<svg xmlns="http://www.w3.org/2000/svg" viewBox="0 0 379 400" width="379" height="400">
  <path d="M 14.49 396.25 C 18.02 391.01 19.42 388.09 18.75 387.41 C 17.58 386.25 14.13 389.08 11.36 393.48 C 9.78 395.96 8.28 398.00 8.00 398.00 C 7.72 398.00 7.65 395.84 7.83 393.21 C 8.02 390.57 7.76 386.86 7.26 384.96 C 6.46 381.93 5.96 381.50 3.19 381.51 L 0.03 381.52 L 0.01 190.76 L -0.01 -0.00 L 189.49 -0.00 L 379.00 0.00 L 379.00 200.00 L 379.00 400.00 L 225.54 400.00 C 73.09 400.00 72.06 399.99 71.00 398.00 C 70.41 396.90 69.00 396.00 67.87 396.00 C 66.65 396.00 65.60 396.82 65.29 398.00 C 64.90 399.50 63.93 400.00 61.38 400.00 L 58.00 400.00 L 57.88 394.75 C 57.75 388.80 57.99 385.71 58.64 385.04 C 58.88 384.79 62.10 384.41 65.79 384.19 C 71.90 383.83 75.12 382.78 73.89 381.56 C 73.63 381.30 65.79 381.74 56.46 382.53 C 47.13 383.32 38.91 383.98 38.19 383.99 C 37.47 383.99 37.16 384.45 37.50 385.00 C 37.84 385.55 40.34 386.00 43.06 386.00 L 48.00 386.00 L 48.00 393.00 L 48.00 400.00 L 29.99 400.00 L 11.97 400.00 L 14.49 396.25 Z M 0.29 394.50 C 0.29 391.75 0.49 390.74 0.72 392.26 C 0.95 393.78 0.94 396.03 0.70 397.26 C 0.47 398.49 0.28 397.25 0.29 394.50 Z M 224.00 393.63 C 250.12 393.38 294.04 392.84 321.60 392.43 L 371.70 391.68 L 372.43 372.09 C 372.83 361.32 373.35 274.52 373.60 179.21 L 374.05 5.93 L 310.78 6.43 C 275.97 6.71 194.62 7.03 130.00 7.15 C 65.38 7.26 11.21 7.62 9.63 7.94 L 6.75 8.53 L 6.33 138.78 L 5.91 269.02 L 20.71 268.92 C 28.84 268.86 35.95 268.91 36.50 269.03 C 37.05 269.14 37.95 269.14 38.50 269.02 C 39.47 268.82 96.01 268.86 97.00 269.07 C 99.27 269.55 119.06 269.08 119.95 268.53 C 120.57 268.15 121.72 268.36 122.50 269.00 C 123.28 269.64 124.38 269.88 124.96 269.53 C 125.58 269.14 126.03 270.01 126.06 271.69 C 126.10 273.24 126.29 294.07 126.48 318.00 C 127.01 382.68 127.12 390.31 127.63 392.51 C 128.15 394.77 118.96 394.66 224.00 393.63 Z M 138.25 391.29 C 134.97 390.66 135.49 389.00 138.97 389.00 C 141.20 389.00 141.79 389.37 141.36 390.50 C 141.05 391.32 140.72 391.94 140.64 391.86 C 140.56 391.79 139.49 391.53 138.25 391.29 Z M 146.37 391.22 C 146.72 390.64 146.45 389.94 145.76 389.66 C 145.07 389.39 145.55 389.12 146.83 389.08 C 149.28 389.00 149.43 391.02 147.05 391.82 C 146.31 392.06 146.01 391.80 146.37 391.22 Z M 191.64 390.50 C 191.32 389.68 191.31 389.00 191.60 389.00 C 191.90 389.00 192.82 389.68 193.64 390.50 C 194.94 391.80 194.95 392.00 193.68 392.00 C 192.87 392.00 191.95 391.32 191.64 390.50 Z M 198.00 391.00 C 198.00 390.45 198.45 390.00 199.00 390.00 C 199.55 390.00 200.00 390.45 200.00 391.00 C 200.00 391.55 199.55 392.00 199.00 392.00 C 198.45 392.00 198.00 391.55 198.00 391.00 Z M 133.50 330.19 L 133.50 269.50 L 178.00 269.34 C 202.48 269.26 222.95 269.09 223.50 268.98 C 224.05 268.86 224.95 268.85 225.50 268.96 C 226.05 269.07 231.00 269.23 236.50 269.33 L 246.50 269.50 L 246.76 314.00 C 246.90 338.48 247.22 359.06 247.48 359.75 C 248.44 362.38 249.49 360.83 249.35 357.00 C 249.27 354.79 249.61 352.74 250.10 352.44 C 250.60 352.13 251.00 352.58 251.00 353.44 C 251.00 354.30 251.45 355.00 252.00 355.00 C 253.19 355.00 253.19 353.26 252.00 350.50 C 251.53 349.40 251.11 349.09 251.07 349.81 C 251.03 350.53 250.54 350.83 249.98 350.49 C 248.78 349.75 248.82 331.44 250.03 325.50 C 250.60 322.70 250.80 325.09 250.67 333.50 C 250.57 340.68 250.90 345.70 251.50 346.00 C 252.57 346.54 252.74 341.68 253.22 296.56 L 253.50 269.63 L 256.75 268.78 C 258.54 268.32 260.00 267.49 260.00 266.94 C 260.00 265.87 254.17 266.16 252.28 267.33 C 251.65 267.71 250.86 267.57 250.51 267.01 C 249.69 265.70 254.77 263.62 258.00 263.95 C 259.38 264.09 260.78 264.66 261.13 265.22 C 261.51 265.83 261.95 265.69 262.24 264.86 C 262.51 264.11 263.11 263.86 263.58 264.30 C 264.06 264.75 264.01 265.42 263.47 265.80 C 261.30 267.35 256.76 275.11 255.93 278.68 C 255.45 280.78 255.04 300.39 255.02 322.25 C 255.00 356.53 254.80 362.00 253.53 362.00 C 252.64 362.00 252.29 361.41 252.64 360.50 C 252.95 359.68 252.72 359.00 252.11 359.00 C 251.50 359.00 251.00 359.68 251.00 360.50 C 251.00 361.33 250.11 362.00 249.00 362.00 C 247.13 362.00 247.00 362.69 246.94 372.75 C 246.88 385.05 245.91 392.23 244.60 390.14 C 243.94 389.09 243.58 389.06 242.99 390.02 C 242.57 390.70 241.72 390.95 241.11 390.57 C 239.26 389.42 239.86 388.00 242.20 388.00 C 243.87 388.00 244.12 387.72 243.24 386.84 C 242.37 385.97 241.74 385.97 240.70 386.83 C 239.94 387.47 239.05 387.72 238.73 387.39 C 238.41 387.07 232.82 386.87 226.32 386.94 C 219.82 387.02 197.18 387.13 176.00 387.20 C 140.70 387.32 137.33 387.48 135.50 389.10 C 133.50 390.87 133.50 390.80 133.50 330.19 Z M 157.50 389.93 L 150.50 389.35 L 158.75 389.18 C 163.29 389.08 167.00 389.18 167.00 389.39 C 167.00 390.30 164.08 390.47 157.50 389.93 Z M 168.03 389.96 C 169.70 388.90 182.70 388.64 181.65 389.68 C 181.28 390.06 177.73 390.48 173.77 390.62 C 169.05 390.79 167.07 390.56 168.03 389.96 Z M 217.47 389.96 C 217.15 389.43 217.81 389.00 218.94 389.00 C 221.36 389.00 221.60 389.56 219.53 390.35 C 218.72 390.66 217.80 390.48 217.47 389.96 Z M 235.00 389.97 C 235.00 389.44 235.68 389.00 236.50 389.00 C 237.32 389.00 238.00 389.18 238.00 389.39 C 238.00 389.61 237.32 390.05 236.50 390.36 C 235.68 390.68 235.00 390.50 235.00 389.97 Z M 185.81 389.32 C 186.53 389.03 187.40 389.06 187.73 389.40 C 188.06 389.73 187.47 389.96 186.42 389.92 C 185.25 389.87 185.01 389.64 185.81 389.32 Z M 205.75 389.29 C 206.99 389.06 209.01 389.06 210.25 389.29 C 211.49 389.53 210.47 389.73 208.00 389.73 C 205.53 389.73 204.51 389.53 205.75 389.29 Z M 222.50 389.00 C 221.72 387.73 223.04 387.73 225.00 389.00 C 226.29 389.84 226.27 389.97 224.81 389.98 C 223.88 389.99 222.84 389.55 222.50 389.00 Z M 129.08 369.42 C 129.13 368.25 129.36 368.01 129.68 368.81 C 129.97 369.53 129.94 370.40 129.60 370.73 C 129.27 371.06 129.04 370.47 129.08 369.42 Z M 130.08 365.42 C 130.13 364.25 130.36 364.01 130.68 364.81 C 130.97 365.53 130.94 366.40 130.60 366.73 C 130.27 367.06 130.04 366.47 130.08 365.42 Z M 129.00 362.00 C 129.00 360.90 129.41 360.00 129.91 360.00 C 130.40 360.00 130.58 360.90 130.29 362.00 C 130.00 363.10 129.59 364.00 129.38 364.00 C 129.17 364.00 129.00 363.10 129.00 362.00 Z M 8.97 361.23 C 11.35 359.30 15.12 349.47 14.30 347.33 C 14.02 346.60 12.74 346.00 11.46 346.00 C 9.56 346.00 8.76 347.02 7.00 351.72 C 3.88 360.07 3.43 363.00 5.26 363.00 C 6.10 363.00 7.76 362.20 8.97 361.23 Z M 262.93 361.64 C 262.62 361.31 262.51 342.74 262.68 320.37 L 262.98 279.71 L 265.54 276.35 C 270.70 269.60 270.94 269.55 307.50 269.00 C 325.65 268.73 341.10 268.67 341.83 268.89 C 342.92 269.21 343.11 277.47 342.83 314.56 C 342.65 339.46 342.23 360.10 341.90 360.43 C 341.10 361.23 263.66 362.42 262.93 361.64 Z M 36.50 359.98 C 43.10 359.43 49.51 358.75 50.75 358.47 C 53.51 357.85 53.74 356.00 51.05 356.00 C 49.33 356.00 49.22 355.66 50.12 353.08 C 50.68 351.48 51.00 348.67 50.82 346.84 L 50.50 343.52 L 42.50 343.83 C 38.10 344.01 32.59 344.62 30.25 345.19 C 27.21 345.94 25.61 345.92 24.66 345.14 C 23.69 344.32 22.86 344.38 21.52 345.37 C 19.98 346.49 19.78 347.65 20.25 352.85 L 20.81 359.00 L 17.41 359.00 C 15.53 359.00 14.00 359.45 14.00 360.00 C 14.00 361.26 21.18 361.26 36.50 359.98 Z M 78.40 360.12 C 79.44 359.71 81.06 357.40 82.01 354.98 C 83.88 350.20 84.72 349.53 87.00 351.00 C 88.32 351.85 88.29 352.34 86.75 355.06 C 85.79 356.77 85.00 358.58 85.00 359.08 C 85.00 360.94 89.47 359.92 92.02 357.48 C 94.56 355.04 94.78 355.01 98.29 356.48 C 100.30 357.32 102.63 358.00 103.47 358.00 C 106.37 358.00 104.99 355.98 101.00 354.38 C 98.80 353.50 97.00 352.36 97.00 351.85 C 97.00 351.34 97.90 349.16 99.00 347.00 C 102.10 340.92 101.89 340.67 94.00 341.23 C 90.15 341.51 87.00 341.43 87.00 341.07 C 87.00 339.70 89.47 338.00 91.45 337.99 C 94.74 337.99 101.00 335.99 101.00 334.95 C 101.00 333.74 96.44 333.73 92.24 334.93 C 89.72 335.66 89.00 335.56 89.00 334.50 C 89.00 331.15 91.06 328.17 94.11 327.11 C 97.21 326.03 97.27 325.92 95.43 324.52 C 94.37 323.72 94.05 323.05 94.73 323.03 C 95.96 323.00 100.00 316.06 100.00 313.97 C 100.00 313.36 98.79 313.01 97.28 313.18 C 95.04 313.44 94.23 314.36 92.78 318.28 C 91.18 322.60 91.17 323.13 92.59 323.67 C 95.24 324.69 92.30 325.77 84.83 326.52 C 81.07 326.89 78.00 327.61 78.00 328.10 C 78.00 328.60 78.90 329.00 80.00 329.00 C 82.09 329.00 82.47 330.63 81.37 334.75 C 80.90 336.52 80.05 337.00 77.38 337.00 C 73.24 337.00 72.93 338.61 76.91 339.48 L 79.82 340.12 L 76.78 349.01 C 73.13 359.69 73.47 362.05 78.40 360.12 Z M 26.00 353.00 C 26.00 349.22 26.37 348.00 27.50 348.00 C 28.63 348.00 29.00 349.22 29.00 353.00 C 29.00 356.78 28.63 358.00 27.50 358.00 C 26.37 358.00 26.00 356.78 26.00 353.00 Z M 129.00 357.00 C 129.00 356.45 129.48 356.00 130.06 356.00 C 130.64 356.00 130.84 356.45 130.50 357.00 C 130.16 357.55 129.68 358.00 129.44 358.00 C 129.20 358.00 129.00 357.55 129.00 357.00 Z M 32.00 352.00 C 32.00 347.33 32.17 347.00 34.50 347.00 C 36.56 347.00 37.00 347.48 36.99 349.75 C 36.96 354.46 35.88 357.00 33.88 357.00 C 32.29 357.00 32.00 356.23 32.00 352.00 Z M 40.44 351.25 C 40.69 348.09 40.93 345.27 40.98 345.00 C 41.02 344.73 41.52 345.29 42.09 346.27 C 43.25 348.27 42.27 357.00 40.88 357.00 C 40.39 357.00 40.19 354.41 40.44 351.25 Z M 64.42 349.95 C 67.12 349.47 69.82 348.58 70.42 347.98 C 71.62 346.77 71.96 324.62 70.78 323.45 C 70.39 323.06 66.12 322.68 61.28 322.62 L 52.50 322.50 L 52.17 327.00 C 51.83 331.77 53.65 349.62 54.64 351.22 C 54.96 351.75 56.19 351.87 57.36 351.50 C 58.54 351.14 61.71 350.44 64.42 349.95 Z M 130.00 351.00 C 130.00 350.45 130.45 350.00 131.00 350.00 C 131.55 350.00 132.00 350.45 132.00 351.00 C 132.00 351.55 131.55 352.00 131.00 352.00 C 130.45 352.00 130.00 351.55 130.00 351.00 Z M 87.20 347.80 C 85.16 345.76 85.86 344.28 89.16 343.62 C 93.10 342.83 93.37 343.10 91.88 346.37 C 90.58 349.22 89.08 349.68 87.20 347.80 Z M 59.00 344.00 C 59.00 340.45 59.27 340.00 61.39 340.00 C 63.31 340.00 63.87 340.63 64.27 343.25 C 64.89 347.32 64.49 348.00 61.44 348.00 C 59.26 348.00 59.00 347.57 59.00 344.00 Z M 129.02 345.75 C 129.03 343.93 129.22 343.79 130.00 345.00 C 131.25 346.94 131.25 348.00 130.00 348.00 C 129.45 348.00 129.01 346.99 129.02 345.75 Z M 12.38 342.19 C 12.66 341.75 11.73 339.05 10.31 336.19 C 8.28 332.09 7.24 331.00 5.34 331.00 C 1.71 331.00 1.48 333.47 4.65 338.48 C 6.61 341.59 8.18 343.00 9.69 343.00 C 10.90 343.00 12.11 342.64 12.38 342.19 Z M 38.18 339.01 C 45.21 339.00 46.00 337.70 46.00 326.13 C 46.00 319.90 45.57 315.97 44.80 315.20 C 42.63 313.03 30.02 313.70 24.96 316.25 L 20.50 318.50 L 20.69 326.54 C 20.80 330.96 21.37 335.86 21.97 337.42 C 23.02 340.18 23.22 340.25 28.28 339.64 C 31.15 339.30 35.61 339.01 38.18 339.01 Z M 129.00 338.12 C 129.00 337.02 129.45 335.84 130.00 335.50 C 130.55 335.16 131.00 335.78 131.00 336.88 C 131.00 337.98 130.55 339.16 130.00 339.50 C 129.45 339.84 129.00 339.22 129.00 338.12 Z M 27.00 333.52 C 27.00 328.83 28.11 328.04 34.75 328.01 C 37.93 328.00 38.00 328.10 38.00 332.43 C 38.00 337.35 37.25 337.91 30.75 337.84 C 27.01 337.80 27.00 337.79 27.00 333.52 Z M 58.00 331.57 C 58.00 325.27 58.10 325.00 60.44 325.00 C 62.55 325.00 62.96 325.58 63.53 329.38 C 64.49 335.74 63.92 337.45 60.74 337.82 L 58.00 338.13 L 58.00 331.57 Z M 129.31 328.50 C 129.32 325.20 129.50 323.97 129.72 325.77 C 129.95 327.57 129.94 330.27 129.71 331.77 C 129.49 333.27 129.30 331.80 129.31 328.50 Z M 12.97 327.04 C 14.22 326.25 14.11 325.54 12.22 322.17 C 11.00 320.00 10.00 317.50 10.00 316.61 C 10.00 314.36 3.46 314.36 2.60 316.61 C 1.87 318.51 5.24 324.36 8.30 326.50 C 10.80 328.25 11.02 328.27 12.97 327.04 Z M 27.00 325.73 C 27.00 324.92 26.73 322.89 26.40 321.23 C 25.73 317.89 26.04 317.68 33.75 316.49 L 38.00 315.82 L 38.00 320.29 C 38.00 324.41 37.78 324.79 35.12 325.33 C 33.53 325.64 31.06 326.20 29.62 326.56 C 27.68 327.05 27.00 326.83 27.00 325.73 Z M 83.00 323.30 C 83.00 321.44 77.70 317.27 75.92 317.73 C 73.54 318.35 73.50 319.25 75.75 321.21 C 78.43 323.54 83.00 324.86 83.00 323.30 Z M 129.62 321.17 C 129.18 319.90 129.08 318.58 129.41 318.26 C 130.45 317.22 131.17 318.75 130.79 321.16 L 130.43 323.50 L 129.62 321.17 Z M 90.00 320.83 C 90.00 318.95 86.85 316.00 84.85 316.00 C 81.88 316.00 82.81 318.72 86.50 320.81 C 89.09 322.27 90.00 322.28 90.00 320.83 Z M 249.44 310.47 C 249.62 304.66 250.04 299.62 250.38 299.28 C 250.72 298.94 251.00 303.44 251.00 309.27 C 251.00 315.11 250.58 320.14 250.06 320.46 C 249.49 320.82 249.25 316.90 249.44 310.47 Z M 130.54 316.07 C 130.23 315.56 130.42 314.86 130.98 314.51 C 131.54 314.16 132.00 314.58 132.00 315.44 C 132.00 317.20 131.40 317.46 130.54 316.07 Z M 86.79 311.71 C 91.42 307.00 91.85 306.00 89.29 306.00 C 87.59 306.00 79.00 313.69 79.00 315.21 C 79.00 317.35 83.04 315.54 86.79 311.71 Z M 129.09 309.00 C 129.06 307.62 129.47 305.82 130.00 305.00 C 130.80 303.76 130.96 303.85 130.91 305.50 C 130.88 306.60 130.47 308.40 130.00 309.50 C 129.21 311.33 129.14 311.29 129.09 309.00 Z M 249.77 295.55 C 249.51 294.21 249.63 291.39 250.03 289.30 C 250.69 285.89 250.78 286.14 250.89 291.75 C 251.00 298.26 250.57 299.74 249.77 295.55 Z M 129.00 285.00 C 129.00 284.45 129.48 284.00 130.06 284.00 C 130.64 284.00 130.84 284.45 130.50 285.00 C 130.16 285.55 129.68 286.00 129.44 286.00 C 129.20 286.00 129.00 285.55 129.00 285.00 Z M 131.08 280.42 C 131.13 279.25 131.36 279.01 131.68 279.81 C 131.97 280.53 131.94 281.40 131.60 281.73 C 131.27 282.06 131.04 281.47 131.08 280.42 Z M 250.02 277.25 C 250.01 276.01 250.45 275.00 251.00 275.00 C 252.25 275.00 252.25 276.06 251.00 278.00 C 250.22 279.21 250.03 279.07 250.02 277.25 Z M 249.02 273.81 C 249.02 273.09 249.47 271.82 250.00 271.00 C 250.79 269.78 250.97 269.91 250.98 271.69 C 250.99 272.90 250.55 274.16 250.00 274.50 C 249.45 274.84 249.01 274.53 249.02 273.81 Z M 10.81 266.32 C 11.53 266.03 12.40 266.06 12.73 266.40 C 13.06 266.73 12.47 266.96 11.42 266.92 C 10.25 266.87 10.01 266.64 10.81 266.32 Z M 24.59 265.38 C 23.79 263.29 24.04 263.08 26.35 263.92 C 27.95 264.51 28.00 264.75 26.71 265.82 C 25.52 266.82 25.11 266.73 24.59 265.38 Z M 64.00 265.36 C 64.00 264.61 64.87 264.00 65.94 264.00 C 68.90 264.00 69.31 265.71 66.49 266.25 C 64.82 266.57 64.00 266.27 64.00 265.36 Z M 73.50 266.18 C 74.05 265.65 76.08 264.92 78.00 264.56 C 80.28 264.14 80.98 264.23 80.00 264.82 C 77.72 266.20 72.30 267.33 73.50 266.18 Z M 97.81 266.32 C 98.53 266.03 99.40 266.06 99.73 266.40 C 100.06 266.73 99.47 266.96 98.42 266.92 C 97.25 266.87 97.01 266.64 97.81 266.32 Z M 106.81 266.32 C 107.53 266.03 108.40 266.06 108.73 266.40 C 109.06 266.73 108.47 266.96 107.42 266.92 C 106.25 266.87 106.01 266.64 106.81 266.32 Z M 167.00 265.59 C 167.00 264.32 167.61 264.11 169.75 264.62 C 173.06 265.42 173.91 266.00 171.75 266.00 C 170.88 266.00 169.45 266.27 168.58 266.61 C 167.54 267.01 167.00 266.66 167.00 265.59 Z M 176.19 265.92 C 176.68 264.47 184.00 263.84 184.00 265.25 C 184.00 265.66 182.91 266.00 181.58 266.00 C 180.25 266.00 178.39 266.30 177.45 266.66 C 176.24 267.12 175.87 266.90 176.19 265.92 Z M 185.33 265.50 C 185.33 264.68 185.71 264.00 186.17 264.00 C 186.62 264.00 187.00 264.68 187.00 265.50 C 187.00 266.32 186.62 267.00 186.17 267.00 C 185.71 267.00 185.33 266.32 185.33 265.50 Z M 193.00 266.00 C 193.00 265.45 194.24 265.03 195.75 265.07 C 198.19 265.13 198.27 265.24 196.50 266.00 C 193.77 267.17 193.00 267.17 193.00 266.00 Z M 225.00 265.50 C 225.00 264.68 225.44 264.00 225.97 264.00 C 226.50 264.00 226.68 264.68 226.36 265.50 C 226.05 266.32 225.61 267.00 225.39 267.00 C 225.18 267.00 225.00 266.32 225.00 265.50 Z M 233.00 266.00 C 233.00 265.45 234.01 265.01 235.25 265.02 C 237.07 265.03 237.21 265.22 236.00 266.00 C 234.06 267.25 233.00 267.25 233.00 266.00 Z M 244.75 266.34 C 245.44 266.06 246.56 266.06 247.25 266.34 C 247.94 266.62 247.38 266.84 246.00 266.84 C 244.62 266.84 244.06 266.62 244.75 266.34 Z M 31.50 265.00 C 31.16 264.45 31.81 264.00 32.94 264.00 C 34.07 264.00 35.00 264.45 35.00 265.00 C 35.00 265.55 34.35 266.00 33.56 266.00 C 32.77 266.00 31.84 265.55 31.50 265.00 Z M 44.00 265.00 C 44.00 264.45 44.45 264.00 45.00 264.00 C 45.55 264.00 46.00 264.45 46.00 265.00 C 46.00 265.55 45.55 266.00 45.00 266.00 C 44.45 266.00 44.00 265.55 44.00 265.00 Z M 48.51 264.98 C 48.86 264.42 49.56 264.23 50.07 264.54 C 51.46 265.40 51.20 266.00 49.44 266.00 C 48.58 266.00 48.16 265.54 48.51 264.98 Z M 53.00 265.00 C 53.00 264.45 53.48 264.00 54.06 264.00 C 54.64 264.00 54.84 264.45 54.50 265.00 C 54.16 265.55 53.68 266.00 53.44 266.00 C 53.20 266.00 53.00 265.55 53.00 265.00 Z M 56.15 265.05 C 56.58 263.76 57.95 263.53 58.08 264.73 C 58.12 265.12 57.61 265.63 56.95 265.85 C 56.29 266.07 55.93 265.71 56.15 265.05 Z M 60.50 265.00 C 60.84 264.45 61.57 264.00 62.12 264.00 C 62.67 264.00 62.84 264.45 62.50 265.00 C 62.16 265.55 61.43 266.00 60.88 266.00 C 60.33 266.00 60.16 265.55 60.50 265.00 Z M 161.00 265.00 C 161.00 264.45 161.68 264.00 162.50 264.00 C 163.32 264.00 164.00 264.45 164.00 265.00 C 164.00 265.55 163.32 266.00 162.50 266.00 C 161.68 266.00 161.00 265.55 161.00 265.00 Z M 12.59 243.00 C 12.70 223.27 12.24 218.35 10.66 222.25 C 10.38 222.94 10.12 222.46 10.08 221.19 C 10.04 219.92 10.41 219.14 10.91 219.45 C 12.48 220.41 12.92 213.34 12.95 187.00 C 12.99 148.83 12.95 145.73 12.47 144.95 C 12.22 144.55 12.76 143.61 13.66 142.86 C 15.00 141.75 25.22 141.47 68.40 141.34 C 97.61 141.26 122.06 141.14 122.75 141.09 C 123.44 141.04 124.00 140.30 124.00 139.44 C 124.00 138.58 123.55 138.16 123.00 138.50 C 122.45 138.84 122.00 138.64 122.00 138.06 C 122.00 137.48 122.62 137.00 123.37 137.00 C 124.19 137.00 124.99 138.55 125.36 140.83 C 125.69 142.94 125.98 171.07 125.98 203.33 L 126.00 262.00 L 123.25 262.11 C 121.74 262.17 118.03 262.19 115.00 262.16 C 108.01 262.10 88.98 262.05 87.00 262.10 C 86.17 262.12 70.37 262.00 51.89 261.83 C 26.42 261.60 17.92 261.83 16.79 262.76 C 15.98 263.43 15.02 263.69 14.66 263.32 C 14.30 262.96 14.00 263.19 14.00 263.83 C 14.00 264.48 13.66 265.00 13.24 265.00 C 12.82 265.00 12.53 255.10 12.59 243.00 Z M 36.81 264.32 C 37.53 264.03 38.40 264.06 38.73 264.40 C 39.06 264.73 38.47 264.96 37.42 264.92 C 36.25 264.87 36.01 264.64 36.81 264.32 Z M 131.64 263.50 C 131.32 262.68 131.50 262.00 132.03 262.00 C 132.56 262.00 133.00 262.68 133.00 263.50 C 133.00 264.32 132.82 265.00 132.61 265.00 C 132.39 265.00 131.95 264.32 131.64 263.50 Z M 237.81 264.32 C 238.53 264.03 239.40 264.06 239.73 264.40 C 240.06 264.73 239.47 264.96 238.42 264.92 C 237.25 264.87 237.01 264.64 237.81 264.32 Z M 246.00 264.08 C 246.00 263.60 246.68 262.95 247.50 262.64 C 248.32 262.32 249.00 262.45 249.00 262.92 C 249.00 263.40 248.32 264.05 247.50 264.36 C 246.68 264.68 246.00 264.55 246.00 264.08 Z M 135.68 262.00 L 133.01 261.50 L 132.89 202.75 C 132.78 149.16 132.62 143.99 131.13 143.94 C 130.11 143.90 130.43 143.48 132.00 142.83 C 134.60 141.74 244.53 141.20 245.60 142.27 C 245.91 142.57 246.32 169.37 246.52 201.82 L 246.89 260.81 L 244.67 261.37 C 243.45 261.67 226.94 261.96 207.98 262.00 C 189.01 262.04 165.59 262.17 155.93 262.28 C 146.26 262.40 137.15 262.27 135.68 262.00 Z M 256.59 262.13 C 253.70 261.51 253.67 261.43 253.38 253.50 C 253.22 249.10 253.07 228.06 253.04 206.75 C 253.00 170.87 252.40 162.36 250.50 171.01 C 250.13 172.66 249.42 173.76 248.92 173.45 C 248.38 173.12 248.36 172.17 248.86 171.19 C 249.34 170.26 249.55 168.99 249.32 168.37 C 248.91 167.24 253.51 165.84 254.48 166.81 C 254.76 167.10 255.00 185.40 255.00 207.49 C 255.00 249.30 255.56 255.73 259.50 259.00 C 261.04 260.28 261.59 263.09 260.25 262.88 C 259.84 262.82 258.19 262.48 256.59 262.13 Z M 9.88 259.29 C 9.67 258.31 9.75 252.10 10.06 245.50 C 10.67 232.62 11.07 234.48 11.12 250.34 C 11.14 259.78 10.68 263.11 9.88 259.29 Z M 249.92 260.75 C 249.87 260.61 249.63 256.92 249.37 252.54 C 248.89 244.28 249.78 242.46 250.54 250.14 C 250.78 252.54 251.18 255.96 251.42 257.75 C 251.66 259.54 251.44 261.00 250.93 261.00 C 250.42 261.00 249.96 260.89 249.92 260.75 Z M 271.00 259.55 C 268.41 258.14 264.98 253.98 263.53 250.50 C 263.08 249.40 262.58 230.23 262.42 207.90 L 262.14 167.30 L 272.73 166.65 C 278.55 166.29 296.68 166.00 313.03 166.00 L 342.75 166.00 L 343.37 169.12 C 344.06 172.53 343.07 259.04 342.34 260.25 C 342.09 260.66 326.50 260.98 307.69 260.96 C 280.74 260.93 272.97 260.63 271.00 259.55 Z M 128.00 244.00 C 128.00 243.45 128.48 243.00 129.06 243.00 C 129.64 243.00 129.84 243.45 129.50 244.00 C 129.16 244.55 128.68 245.00 128.44 245.00 C 128.20 245.00 128.00 244.55 128.00 244.00 Z M 249.73 243.40 C 249.33 242.99 249.01 241.73 249.03 240.58 C 249.06 238.66 249.14 238.64 250.10 240.29 C 251.22 242.21 250.93 244.60 249.73 243.40 Z M 250.19 235.50 C 250.22 233.85 250.44 233.30 250.69 234.27 C 250.95 235.24 250.93 236.59 250.66 237.27 C 250.38 237.95 250.17 237.15 250.19 235.50 Z M 129.00 228.17 C 129.00 225.32 129.39 223.00 129.88 223.00 C 130.68 223.00 130.22 231.95 129.37 232.92 C 129.17 233.15 129.00 231.01 129.00 228.17 Z M 10.25 228.50 C 10.26 226.30 10.47 225.52 10.71 226.76 C 10.95 228.01 10.94 229.81 10.69 230.76 C 10.44 231.72 10.24 230.70 10.25 228.50 Z M 249.00 224.67 C 249.00 222.10 249.39 220.00 249.87 220.00 C 250.84 220.00 250.64 227.69 249.64 228.69 C 249.29 229.05 249.00 227.23 249.00 224.67 Z M 129.08 213.42 C 129.13 212.25 129.36 212.01 129.68 212.81 C 129.97 213.53 129.94 214.40 129.60 214.73 C 129.27 215.06 129.04 214.47 129.08 213.42 Z M 9.79 212.75 C 9.56 212.06 9.69 210.15 10.07 208.50 C 10.71 205.75 10.77 205.85 10.88 209.75 C 11.00 213.99 10.59 215.12 9.79 212.75 Z M 249.19 210.50 C 249.22 208.85 249.44 208.30 249.69 209.27 C 249.95 210.24 249.93 211.59 249.66 212.27 C 249.38 212.95 249.17 212.15 249.19 210.50 Z M 10.08 203.42 C 10.13 202.25 10.36 202.01 10.68 202.81 C 10.97 203.53 10.94 204.40 10.60 204.73 C 10.27 205.06 10.04 204.47 10.08 203.42 Z M 250.08 202.42 C 250.13 201.25 250.36 201.01 250.68 201.81 C 250.97 202.53 250.94 203.40 250.60 203.73 C 250.27 204.06 250.04 203.47 250.08 202.42 Z M 129.08 201.42 C 129.13 200.25 129.36 200.01 129.68 200.81 C 129.97 201.53 129.94 202.40 129.60 202.73 C 129.27 203.06 129.04 202.47 129.08 201.42 Z M 129.00 194.50 C 129.00 193.12 129.17 192.00 129.38 192.00 C 129.59 192.00 129.98 193.12 130.24 194.50 C 130.51 195.88 130.34 197.00 129.86 197.00 C 129.39 197.00 129.00 195.88 129.00 194.50 Z M 10.00 190.50 C 10.00 187.29 10.19 184.85 10.41 185.08 C 11.16 185.84 11.41 194.92 10.70 195.63 C 10.31 196.02 10.00 193.71 10.00 190.50 Z M 249.95 195.75 C 249.29 192.70 249.13 183.04 249.74 182.66 C 250.19 182.38 250.66 185.27 250.78 189.07 C 250.89 192.88 250.76 196.00 250.49 196.00 C 250.22 196.00 249.98 195.89 249.95 195.75 Z M 129.08 174.42 C 129.13 173.25 129.36 173.01 129.68 173.81 C 129.97 174.53 129.94 175.40 129.60 175.73 C 129.27 176.06 129.04 175.47 129.08 174.42 Z M 10.08 164.42 C 10.13 163.25 10.36 163.01 10.68 163.81 C 10.97 164.53 10.94 165.40 10.60 165.73 C 10.27 166.06 10.04 165.47 10.08 164.42 Z M 128.16 161.00 C 128.16 159.62 128.38 159.06 128.66 159.75 C 128.94 160.44 128.94 161.56 128.66 162.25 C 128.38 162.94 128.16 162.38 128.16 161.00 Z M 129.08 149.42 C 129.13 148.25 129.36 148.01 129.68 148.81 C 129.97 149.53 129.94 150.40 129.60 150.73 C 129.27 151.06 129.04 150.47 129.08 149.42 Z M 128.08 144.42 C 128.13 143.25 128.36 143.01 128.68 143.81 C 128.97 144.53 128.94 145.40 128.60 145.73 C 128.27 146.06 128.04 145.47 128.08 144.42 Z M 28.13 139.08 C 27.50 138.69 28.54 137.84 30.58 137.11 C 32.55 136.40 34.31 135.98 34.51 136.18 C 35.28 136.95 29.18 139.73 28.13 139.08 Z M 118.00 139.00 C 118.00 138.45 118.45 138.00 119.00 138.00 C 119.55 138.00 120.00 138.45 120.00 139.00 C 120.00 139.55 119.55 140.00 119.00 140.00 C 118.45 140.00 118.00 139.55 118.00 139.00 Z M 161.00 139.00 C 162.94 137.75 164.00 137.75 164.00 139.00 C 164.00 139.55 162.99 139.99 161.75 139.98 C 159.93 139.97 159.79 139.78 161.00 139.00 Z M 167.00 138.76 L 164.50 137.65 L 166.97 137.23 C 168.32 137.00 169.58 137.25 169.77 137.80 C 169.95 138.34 170.92 138.57 171.94 138.31 C 172.95 138.04 174.08 138.31 174.45 138.91 C 175.33 140.34 170.32 140.24 167.00 138.76 Z M 183.00 139.00 C 182.21 138.51 181.89 137.78 182.30 137.37 C 182.70 136.97 183.56 137.16 184.20 137.80 C 185.71 139.31 184.87 140.15 183.00 139.00 Z M 187.51 138.98 C 187.86 138.42 188.56 138.23 189.07 138.54 C 190.46 139.40 190.20 140.00 188.44 140.00 C 187.58 140.00 187.16 139.54 187.51 138.98 Z M 191.00 138.56 C 191.00 137.70 191.45 137.00 192.00 137.00 C 192.55 137.00 193.00 137.42 193.00 137.94 C 193.00 138.46 192.55 139.16 192.00 139.50 C 191.45 139.84 191.00 139.42 191.00 138.56 Z M 201.81 139.32 C 202.53 139.03 203.40 139.06 203.73 139.40 C 204.06 139.73 203.47 139.96 202.42 139.92 C 201.25 139.87 201.01 139.64 201.81 139.32 Z M 205.00 139.61 C 205.00 139.39 205.68 138.95 206.50 138.64 C 207.32 138.32 208.00 138.50 208.00 139.03 C 208.00 139.56 207.32 140.00 206.50 140.00 C 205.68 140.00 205.00 139.82 205.00 139.61 Z M 210.14 139.11 C 209.04 138.41 209.03 138.10 210.08 137.45 C 210.84 136.98 211.54 137.13 211.77 137.82 C 211.99 138.47 212.92 138.96 213.83 138.92 C 214.87 138.87 215.03 138.65 214.25 138.34 C 212.49 137.63 212.69 136.00 214.53 136.00 C 215.37 136.00 216.32 136.68 216.64 137.50 C 217.43 139.57 220.75 139.39 221.31 137.25 C 221.65 135.93 221.80 136.06 221.88 137.75 C 221.99 139.81 221.57 140.00 216.75 139.98 C 213.86 139.98 210.89 139.58 210.14 139.11 Z M 87.00 138.12 C 87.00 137.57 87.45 136.84 88.00 136.50 C 88.55 136.16 89.00 136.33 89.00 136.88 C 89.00 137.43 88.55 138.16 88.00 138.50 C 87.45 138.84 87.00 138.67 87.00 138.12 Z M 104.21 137.40 C 103.14 136.24 103.27 136.00 104.96 136.00 C 106.08 136.00 107.00 136.42 107.00 136.94 C 107.00 138.60 105.54 138.83 104.21 137.40 Z M 110.64 137.50 C 110.32 136.68 110.50 136.00 111.03 136.00 C 111.56 136.00 112.00 136.68 112.00 137.50 C 112.00 138.32 111.82 139.00 111.61 139.00 C 111.39 139.00 110.95 138.32 110.64 137.50 Z M 156.62 135.88 C 155.90 132.25 155.80 128.00 156.44 128.00 C 156.69 128.00 158.60 129.01 160.69 130.25 C 164.37 132.42 165.37 132.50 189.50 132.50 C 213.63 132.50 214.63 132.42 218.31 130.25 C 220.40 129.01 222.34 128.00 222.62 128.00 C 222.90 128.00 222.99 129.46 222.81 131.25 L 222.50 134.50 L 212.74 134.76 C 204.55 134.98 202.66 135.34 200.99 137.01 C 198.48 139.52 196.68 139.58 197.46 137.12 C 197.98 135.48 197.50 135.23 193.80 135.18 C 191.46 135.15 189.20 135.65 188.79 136.31 C 188.28 137.10 188.03 137.13 188.02 136.39 C 188.00 135.64 183.16 135.24 172.87 135.13 C 160.25 135.00 157.92 135.20 158.86 136.33 C 159.48 137.08 159.69 137.98 159.32 138.34 C 158.02 139.65 157.24 138.94 156.62 135.88 Z M 46.81 137.32 C 47.53 137.03 48.40 137.06 48.73 137.40 C 49.06 137.73 48.47 137.96 47.42 137.92 C 46.25 137.87 46.01 137.64 46.81 137.32 Z M 119.81 136.32 C 120.53 136.03 121.40 136.06 121.73 136.40 C 122.06 136.73 121.47 136.96 120.42 136.92 C 119.25 136.87 119.01 136.64 119.81 136.32 Z M 205.81 136.32 C 206.53 136.03 207.40 136.06 207.73 136.40 C 208.06 136.73 207.47 136.96 206.42 136.92 C 205.25 136.87 205.01 136.64 205.81 136.32 Z M 12.51 134.99 C 12.85 134.43 13.23 107.45 13.35 75.04 C 13.46 42.63 13.89 15.77 14.30 15.37 C 14.71 14.96 39.73 14.60 69.90 14.56 L 124.77 14.50 L 125.50 72.50 C 125.91 104.41 126.07 131.30 125.87 132.27 C 125.52 133.92 122.14 134.03 70.25 134.11 C 38.62 134.16 14.76 134.58 14.44 135.10 C 14.13 135.59 13.43 136.00 12.88 136.00 C 12.33 136.00 12.16 135.54 12.51 134.99 Z M 253.67 133.33 C 253.30 132.97 253.00 105.85 253.00 73.08 L 253.00 13.50 L 264.25 13.82 C 270.44 14.00 276.69 14.11 278.15 14.06 C 296.48 13.50 363.00 13.49 364.53 14.05 C 366.54 14.78 366.57 15.50 366.84 73.73 L 367.12 132.67 L 334.81 133.34 C 293.25 134.19 254.52 134.18 253.67 133.33 Z M 369.20 130.66 C 369.64 127.69 372.00 127.35 372.00 130.25 C 372.00 131.76 371.42 132.67 370.45 132.67 C 369.47 132.67 369.01 131.93 369.20 130.66 Z M 313.00 118.06 C 313.00 112.59 312.57 107.85 312.05 107.53 C 311.52 107.20 309.95 107.23 308.55 107.58 C 306.03 108.21 306.00 108.34 306.00 118.11 L 306.00 128.00 L 309.50 128.00 L 313.00 128.00 L 313.00 118.06 Z M 369.00 123.50 C 369.00 120.86 369.35 120.20 370.50 120.64 C 371.32 120.95 372.00 121.87 372.00 122.67 C 372.00 123.46 371.55 123.84 371.00 123.50 C 370.45 123.16 370.00 123.32 370.00 123.86 C 370.00 124.39 370.54 125.01 371.20 125.23 C 371.95 125.48 371.76 125.88 370.70 126.29 C 369.30 126.82 369.00 126.32 369.00 123.50 Z M 164.35 123.55 C 162.61 122.80 160.02 120.46 158.60 118.36 L 156.00 114.54 L 156.00 76.77 L 156.00 39.00 L 189.00 39.00 L 222.00 39.00 L 222.11 61.75 C 222.17 74.26 222.38 91.21 222.59 99.41 C 223.02 116.48 222.29 118.78 215.16 122.79 C 211.43 124.89 210.11 125.00 189.36 124.96 C 173.11 124.93 166.69 124.57 164.35 123.55 Z M 10.16 117.00 C 10.16 115.62 10.38 115.06 10.66 115.75 C 10.94 116.44 10.94 117.56 10.66 118.25 C 10.38 118.94 10.16 118.38 10.16 117.00 Z M 369.00 114.94 C 369.00 113.81 369.45 113.16 370.00 113.50 C 370.55 113.84 371.04 113.08 371.08 111.81 C 371.12 110.54 371.39 110.08 371.68 110.79 C 372.39 112.57 371.18 117.00 369.98 117.00 C 369.44 117.00 369.00 116.07 369.00 114.94 Z M 284.00 109.38 C 287.02 105.80 289.64 102.48 289.81 102.00 C 290.16 101.02 286.45 97.00 285.19 97.00 C 284.75 97.00 282.38 99.36 279.94 102.25 C 272.07 111.54 272.41 110.75 275.03 113.53 C 276.30 114.89 277.61 115.97 277.92 115.94 C 278.24 115.91 280.98 112.96 284.00 109.38 Z M 347.03 109.45 C 348.34 107.00 348.13 106.65 341.70 100.22 L 335.01 93.53 L 332.26 96.28 L 329.51 99.03 L 336.01 105.49 C 339.58 109.04 343.21 111.96 344.08 111.97 C 344.95 111.99 346.28 110.85 347.03 109.45 Z M 369.00 103.39 C 369.00 101.41 370.72 100.83 371.40 102.59 C 372.20 104.69 372.21 104.67 370.50 104.67 C 369.68 104.67 369.00 104.09 369.00 103.39 Z M 316.24 99.63 C 322.79 97.66 327.30 93.80 330.87 87.09 C 340.27 69.46 328.40 48.05 309.22 48.01 C 302.41 48.00 297.54 50.08 292.24 55.26 C 277.76 69.45 283.70 94.20 302.99 100.07 C 306.92 101.26 311.29 101.12 316.24 99.63 Z M 369.08 93.42 C 369.13 92.25 369.36 92.01 369.68 92.81 C 369.97 93.53 369.94 94.40 369.60 94.73 C 369.27 95.06 369.04 94.47 369.08 93.42 Z M 305.07 92.27 C 301.45 91.59 298.05 89.04 294.85 84.64 C 290.14 78.13 291.02 67.78 296.81 61.66 C 300.60 57.66 304.23 56.00 309.20 56.00 C 315.30 56.00 319.97 58.71 323.84 64.49 C 326.94 69.13 327.12 69.87 326.49 74.99 C 325.51 82.96 322.62 87.51 316.62 90.50 C 311.72 92.94 310.02 93.20 305.07 92.27 Z M 272.62 78.00 L 278.00 78.00 L 278.00 74.50 L 278.00 71.00 L 268.50 71.00 L 259.00 71.00 L 259.00 74.42 C 259.00 78.24 260.17 79.13 264.38 78.46 C 265.96 78.21 269.67 78.00 272.62 78.00 Z M 360.00 74.00 L 360.00 70.00 L 350.50 70.00 L 341.00 70.00 L 341.00 74.00 L 341.00 78.00 L 350.50 78.00 L 360.00 78.00 L 360.00 74.00 Z M 10.16 75.00 C 10.16 73.62 10.38 73.06 10.66 73.75 C 10.94 74.44 10.94 75.56 10.66 76.25 C 10.38 76.94 10.16 76.38 10.16 75.00 Z M 9.58 62.13 C 9.15 61.44 9.07 60.60 9.40 60.27 C 10.29 59.37 11.27 60.69 10.79 62.14 C 10.45 63.15 10.21 63.15 9.58 62.13 Z M 10.08 54.42 C 10.13 53.25 10.36 53.01 10.68 53.81 C 10.97 54.53 10.94 55.40 10.60 55.73 C 10.27 56.06 10.04 55.47 10.08 54.42 Z M 286.43 51.29 L 288.36 48.65 L 281.43 42.35 C 277.62 38.89 274.21 36.04 273.87 36.03 C 273.52 36.01 272.46 37.18 271.51 38.62 L 269.80 41.24 L 276.12 47.62 C 279.60 51.13 282.91 53.99 283.47 53.97 C 284.04 53.95 285.37 52.75 286.43 51.29 Z M 371.16 51.00 C 371.16 49.62 371.38 49.06 371.66 49.75 C 371.94 50.44 371.94 51.56 371.66 52.25 C 371.38 52.94 371.16 52.38 371.16 51.00 Z M 344.09 39.26 C 345.13 37.37 345.04 36.70 343.51 35.01 C 342.51 33.90 341.25 33.00 340.72 33.00 C 339.82 33.00 334.10 39.07 329.57 44.83 L 327.63 47.29 L 330.44 49.70 L 333.24 52.11 L 338.05 46.81 C 340.69 43.89 343.41 40.49 344.09 39.26 Z M 9.58 45.13 C 9.15 44.44 9.07 43.60 9.40 43.27 C 10.29 42.37 11.27 43.69 10.79 45.14 C 10.45 46.15 10.21 46.15 9.58 45.13 Z M 370.00 45.00 C 370.00 44.45 370.45 44.00 371.00 44.00 C 371.55 44.00 372.00 44.45 372.00 45.00 C 372.00 45.55 371.55 46.00 371.00 46.00 C 370.45 46.00 370.00 45.55 370.00 45.00 Z M 312.79 31.25 L 312.50 21.50 L 309.00 21.50 L 305.50 21.50 L 305.21 31.25 L 304.93 41.00 L 309.00 41.00 L 313.07 41.00 L 312.79 31.25 Z M 370.16 37.00 C 370.16 35.62 370.38 35.06 370.66 35.75 C 370.94 36.44 370.94 37.56 370.66 38.25 C 370.38 38.94 370.16 38.38 370.16 37.00 Z M 92.50 12.00 C 90.83 11.28 91.05 11.13 93.81 11.07 C 95.78 11.03 96.87 11.41 96.50 12.00 C 95.78 13.17 95.21 13.17 92.50 12.00 Z M 113.00 11.17 C 113.00 9.83 113.63 9.00 114.62 9.00 C 116.01 9.00 116.05 9.25 114.91 10.75 C 114.17 11.71 113.44 12.69 113.28 12.92 C 113.13 13.15 113.00 12.36 113.00 11.17 Z M 123.27 12.17 C 122.53 11.71 122.43 10.92 123.00 10.00 C 123.75 8.79 124.00 8.84 124.57 10.32 C 125.38 12.43 124.87 13.16 123.27 12.17 Z M 109.50 11.00 C 109.84 10.45 110.32 10.00 110.56 10.00 C 110.80 10.00 111.00 10.45 111.00 11.00 C 111.00 11.55 110.52 12.00 109.94 12.00 C 109.36 12.00 109.16 11.55 109.50 11.00 Z M 117.00 11.00 C 118.97 9.73 121.29 9.73 120.50 11.00 C 120.16 11.55 118.90 11.99 117.69 11.98 C 115.91 11.97 115.78 11.79 117.00 11.00 Z M 253.00 11.00 C 253.00 10.45 253.48 10.00 254.06 10.00 C 254.64 10.00 254.84 10.45 254.50 11.00 C 254.16 11.55 253.68 12.00 253.44 12.00 C 253.20 12.00 253.00 11.55 253.00 11.00 Z M 285.51 10.98 C 285.86 10.42 286.56 10.23 287.07 10.54 C 288.46 11.40 288.20 12.00 286.44 12.00 C 285.58 12.00 285.16 11.54 285.51 10.98 Z M 327.50 11.00 C 327.84 10.45 328.32 10.00 328.56 10.00 C 328.80 10.00 329.00 10.45 329.00 11.00 C 329.00 11.55 328.52 12.00 327.94 12.00 C 327.36 12.00 327.16 11.55 327.50 11.00 Z M 96.50 10.00 C 96.16 9.45 96.58 9.00 97.44 9.00 C 98.30 9.00 99.00 9.45 99.00 10.00 C 99.00 10.55 98.58 11.00 98.06 11.00 C 97.54 11.00 96.84 10.55 96.50 10.00 Z M 101.75 10.34 C 102.44 10.06 103.56 10.06 104.25 10.34 C 104.94 10.62 104.38 10.84 103.00 10.84 C 101.62 10.84 101.06 10.62 101.75 10.34 Z M 263.00 9.94 C 263.00 9.36 263.45 9.16 264.00 9.50 C 264.55 9.84 265.00 10.32 265.00 10.56 C 265.00 10.80 264.55 11.00 264.00 11.00 C 263.45 11.00 263.00 10.52 263.00 9.94 Z M 304.00 10.00 C 304.00 9.45 304.70 9.00 305.56 9.00 C 306.42 9.00 306.84 9.45 306.50 10.00 C 306.16 10.55 305.46 11.00 304.94 11.00 C 304.42 11.00 304.00 10.55 304.00 10.00 Z M 316.00 10.00 C 316.00 9.45 316.68 9.00 317.50 9.00 C 318.32 9.00 319.00 9.45 319.00 10.00 C 319.00 10.55 318.32 11.00 317.50 11.00 C 316.68 11.00 316.00 10.55 316.00 10.00 Z M 323.81 10.32 C 324.53 10.03 325.40 10.06 325.73 10.40 C 326.06 10.73 325.47 10.96 324.42 10.92 C 323.25 10.87 323.01 10.64 323.81 10.32 Z M 348.00 10.00 C 348.00 9.45 348.45 9.00 349.00 9.00 C 349.55 9.00 350.00 9.45 350.00 10.00 C 350.00 10.55 349.55 11.00 349.00 11.00 C 348.45 11.00 348.00 10.55 348.00 10.00 Z M 361.50 10.00 C 361.16 9.45 361.56 9.00 362.38 9.00 C 363.21 9.00 364.16 9.45 364.50 10.00 C 364.84 10.55 364.44 11.00 363.62 11.00 C 362.79 11.00 361.84 10.55 361.50 10.00 Z" fill="none" stroke="rgba(255,255,255,0.92)" stroke-width="1.5" stroke-linejoin="round" fill-rule="evenodd"/>
</svg>
