<svg xmlns="http://www.w3.org/2000/svg" viewBox="0 0 100 100" width="100" height="100">
  <path d="M 0.00 50.00 L 0.00 0.00 L 50.00 0.00 L 100.00 0.00 L 100.00 50.00 L 100.00 100.00 L 50.00 100.00 L 0.00 100.00 L 0.00 50.00 Z M 93.37 93.93 C 95.61 92.16 96.00 91.08 96.00 86.68 L 95.99 81.50 L 94.04 84.70 C 90.13 91.12 90.72 91.02 51.71 91.70 C 11.41 92.40 11.34 92.39 8.04 85.58 C 6.15 81.69 6.00 79.48 6.00 56.31 L 6.00 31.24 L 51.00 30.50 L 96.00 29.76 L 96.00 18.22 L 96.00 6.68 L 65.84 7.34 C 49.25 7.70 28.55 8.00 19.84 8.00 L 4.00 8.00 L 4.00 49.92 L 4.00 91.83 L 6.75 93.88 C 9.42 95.87 10.74 95.94 50.12 95.97 C 89.71 96.00 90.80 95.95 93.37 93.93 Z" fill="none" stroke="rgba(255,255,255,0.92)" stroke-width="1.2" stroke-linejoin="round" fill-rule="evenodd"/>
</svg>
