<svg xmlns="http://www.w3.org/2000/svg" viewBox="0 0 100 100" width="100" height="100">
  <path d="M 0.00 50.00 L 0.00 0.00 L 50.00 0.00 L 100.00 0.00 L 100.00 50.00 L 100.00 100.00 L 50.00 100.00 L 0.00 100.00 L 0.00 50.00 Z M 90.70 92.79 L 96.00 89.58 L 96.00 47.63 L 96.00 5.68 L 77.84 6.34 C 67.85 6.70 47.15 7.00 31.84 7.00 L 4.00 7.00 L 4.00 18.57 L 4.00 30.15 L 47.75 29.91 L 91.50 29.67 L 91.74 55.59 C 92.01 84.08 91.89 84.81 86.09 88.72 C 82.72 90.99 82.54 91.00 46.26 91.00 C 11.01 91.00 9.71 90.93 6.90 88.93 L 4.00 86.86 L 4.00 90.23 C 4.00 92.08 4.54 94.14 5.20 94.80 C 6.09 95.69 16.51 96.00 45.90 96.00 L 85.40 96.00 L 90.70 92.79 Z M 95.43 95.25 C 94.93 94.84 94.19 94.05 93.78 93.50 C 93.35 92.93 93.02 93.25 93.02 94.25 C 93.01 95.22 93.74 96.00 94.67 96.00 C 95.58 96.00 95.93 95.66 95.43 95.25 Z" fill="none" stroke="rgba(255,255,255,0.92)" stroke-width="1.2" stroke-linejoin="round" fill-rule="evenodd"/>
</svg>
