<svg xmlns="http://www.w3.org/2000/svg" viewBox="0 0 100 100" width="100" height="100">
  <path d="M 0.00 50.00 L 0.00 0.00 L 50.00 0.00 L 100.00 0.00 L 100.00 50.00 L 100.00 100.00 L 50.00 100.00 L 0.00 100.00 L 0.00 50.00 Z M 96.00 92.89 C 96.00 90.30 95.71 89.92 94.25 90.57 C 91.25 91.92 74.40 92.72 51.50 92.61 L 29.50 92.50 L 29.24 62.25 L 28.97 32.00 L 48.24 32.00 C 58.83 31.99 73.91 31.70 81.75 31.34 L 96.00 30.69 L 96.00 19.19 L 96.00 7.70 L 86.25 8.34 C 80.89 8.70 60.41 8.99 40.75 8.99 L 5.00 9.00 L 5.00 52.50 L 5.00 96.00 L 50.50 96.00 L 96.00 96.00 L 96.00 92.89 Z" fill="none" stroke="rgba(255,255,255,0.92)" stroke-width="1.2" stroke-linejoin="round" fill-rule="evenodd"/>
</svg>
