<svg xmlns="http://www.w3.org/2000/svg" viewBox="0 0 100 100" width="100" height="100">
  <path d="M 0.00 50.00 L 0.00 0.00 L 50.00 0.00 L 100.00 0.00 L 100.00 50.00 L 100.00 100.00 L 50.00 100.00 L 0.00 100.00 L 0.00 50.00 Z M 48.00 88.50 L 48.00 81.00 L 45.00 81.00 L 42.00 81.00 L 42.00 88.50 L 42.00 96.00 L 45.00 96.00 L 48.00 96.00 L 48.00 88.50 Z M 92.27 93.62 C 92.02 92.31 92.38 90.88 93.08 90.45 C 93.97 89.90 94.15 90.16 93.70 91.34 C 93.35 92.25 93.32 93.67 93.64 94.50 C 95.69 99.86 96.08 92.32 95.91 50.12 L 95.72 4.23 L 71.61 4.55 C 58.35 4.72 37.68 4.90 25.68 4.93 L 3.87 5.00 L 4.18 7.75 L 4.50 10.50 L 46.69 10.25 C 74.19 10.09 89.10 10.36 89.51 11.02 C 89.85 11.57 90.28 30.58 90.46 53.26 C 90.83 99.54 90.71 96.00 91.86 96.00 C 92.34 96.00 92.52 94.93 92.27 93.62 Z M 93.23 85.00 C 93.23 83.08 93.44 82.29 93.69 83.25 C 93.94 84.21 93.94 85.79 93.69 86.75 C 93.44 87.71 93.23 86.92 93.23 85.00 Z M 25.26 81.40 C 29.79 76.52 29.91 76.23 28.17 74.65 C 25.61 72.34 25.06 72.58 20.10 78.11 C 15.80 82.91 15.74 83.06 17.53 85.03 C 18.53 86.14 19.62 86.93 19.95 86.77 C 20.27 86.62 22.67 84.21 25.26 81.40 Z M 74.69 82.13 C 75.68 80.53 75.32 79.76 72.18 76.83 C 65.57 70.65 65.22 70.49 62.93 72.57 C 60.90 74.40 60.92 74.43 66.20 79.16 C 72.14 84.49 73.02 84.80 74.69 82.13 Z M 92.71 79.00 C 92.42 77.90 92.60 76.75 93.09 76.44 C 93.59 76.13 94.00 77.03 94.00 78.44 C 94.00 81.51 93.43 81.75 92.71 79.00 Z M 50.76 74.48 C 57.03 72.62 62.26 67.00 63.95 60.30 C 65.31 54.87 64.66 50.98 61.41 45.34 C 58.43 40.15 53.61 37.10 47.21 36.34 C 23.31 33.51 16.14 66.49 38.89 74.62 C 43.60 76.30 44.66 76.29 50.76 74.48 Z M 93.08 68.42 C 93.13 67.25 93.36 67.01 93.68 67.81 C 93.97 68.53 93.94 69.40 93.60 69.73 C 93.27 70.06 93.04 69.47 93.08 68.42 Z M 36.61 66.91 C 33.22 64.24 31.00 59.94 31.00 56.02 C 31.00 40.70 51.60 36.57 57.62 50.69 C 59.98 56.22 57.26 64.23 51.96 67.36 C 47.93 69.75 39.92 69.51 36.61 66.91 Z M 20.00 56.00 L 20.00 53.00 L 12.50 53.00 L 5.00 53.00 L 5.00 56.00 L 5.00 59.00 L 12.50 59.00 L 20.00 59.00 L 20.00 56.00 Z M 84.81 55.17 C 84.51 52.56 84.34 52.50 77.51 52.50 C 71.57 52.50 70.48 52.77 70.18 54.31 C 69.47 58.00 70.49 58.51 77.93 58.17 C 85.05 57.83 85.11 57.81 84.81 55.17 Z M 23.00 31.97 C 17.21 26.81 16.30 26.53 14.57 29.38 C 13.68 30.86 14.38 31.97 18.90 36.15 L 24.30 41.15 L 26.40 39.01 L 28.50 36.88 L 23.00 31.97 Z M 72.39 27.25 C 70.47 24.20 68.62 24.83 64.15 30.04 C 59.91 34.97 59.84 35.17 61.59 37.10 C 63.37 39.06 63.45 39.03 68.44 34.04 C 72.65 29.83 73.30 28.70 72.39 27.25 Z M 47.50 23.25 C 47.50 16.01 47.50 16.00 44.75 16.00 L 42.00 16.00 L 42.00 23.57 L 42.00 31.13 L 44.75 30.82 C 47.47 30.50 47.50 30.42 47.50 23.25 Z M 93.19 27.50 C 93.22 25.85 93.44 25.30 93.69 26.27 C 93.95 27.24 93.93 28.59 93.66 29.27 C 93.38 29.95 93.17 29.15 93.19 27.50 Z M 59.64 7.50 C 59.95 6.68 60.39 6.00 60.61 6.00 C 60.82 6.00 61.00 6.67 61.00 7.50 C 61.00 8.32 60.56 9.00 60.03 9.00 C 59.50 9.00 59.32 8.32 59.64 7.50 Z M 50.81 7.32 C 51.53 7.03 52.40 7.06 52.73 7.40 C 53.06 7.73 52.47 7.96 51.42 7.92 C 50.25 7.87 50.01 7.64 50.81 7.32 Z M 56.81 7.32 C 57.53 7.03 58.40 7.06 58.73 7.40 C 59.06 7.73 58.47 7.96 57.42 7.92 C 56.25 7.87 56.01 7.64 56.81 7.32 Z M 86.81 7.32 C 87.53 7.03 88.40 7.06 88.73 7.40 C 89.06 7.73 88.47 7.96 87.42 7.92 C 86.25 7.87 86.01 7.64 86.81 7.32 Z" fill="none" stroke="rgba(255,255,255,0.92)" stroke-width="1.2" stroke-linejoin="round" fill-rule="evenodd"/>
</svg>
