<svg xmlns="http://www.w3.org/2000/svg" viewBox="0 0 100 100" width="100" height="100">
  <path d="M 0.00 50.00 L 0.00 0.00 L 50.00 0.00 L 100.00 0.00 L 100.00 50.00 L 100.00 100.00 L 50.00 100.00 L 0.00 100.00 L 0.00 50.00 Z M 15.50 95.05 C 14.40 94.59 12.38 93.01 11.00 91.53 L 8.50 88.84 L 8.00 57.32 C 7.72 39.99 7.72 25.68 8.00 25.53 C 8.28 25.38 22.67 25.08 40.00 24.88 L 71.50 24.50 L 71.50 60.25 L 71.50 96.00 L 83.75 96.00 L 96.00 96.00 L 96.00 50.00 L 96.00 4.00 L 50.00 4.00 L 4.00 4.00 L 4.00 48.01 C 4.00 81.31 4.30 92.51 5.24 94.01 C 6.24 95.62 7.53 95.99 11.99 95.94 C 15.89 95.89 16.91 95.63 15.50 95.05 Z M 60.73 95.40 C 60.40 95.06 59.53 95.03 58.81 95.32 C 58.01 95.64 58.25 95.87 59.42 95.92 C 60.47 95.96 61.06 95.73 60.73 95.40 Z M 68.25 95.34 C 67.56 95.06 66.44 95.06 65.75 95.34 C 65.06 95.62 65.62 95.84 67.00 95.84 C 68.38 95.84 68.94 95.62 68.25 95.34 Z" fill="none" stroke="rgba(255,255,255,0.92)" stroke-width="1.2" stroke-linejoin="round" fill-rule="evenodd"/>
</svg>
