<svg xmlns="http://www.w3.org/2000/svg" viewBox="0 0 400 220" width="400" height="220">
  <path d="M 0.00 110.00 L 0.00 0.00 L 200.00 0.00 L 400.00 0.00 L 400.00 110.00 L 400.00 220.00 L 200.00 220.00 L 0.00 220.00 L 0.00 110.00 Z M 111.09 214.56 C 138.36 214.31 161.09 214.03 161.59 213.94 C 162.09 213.84 162.95 213.84 163.50 213.94 C 164.05 214.03 169.90 214.07 176.50 214.03 C 247.36 213.59 358.77 212.91 375.20 212.83 L 395.89 212.72 L 395.37 177.61 C 395.09 158.30 394.77 111.67 394.68 74.00 L 394.50 5.50 L 381.50 5.50 C 369.56 5.50 305.76 6.28 217.00 7.50 C 197.47 7.77 158.32 8.28 130.00 8.64 C 101.67 9.00 77.26 9.38 75.75 9.47 C 74.24 9.57 57.68 9.73 38.95 9.83 L 4.89 10.00 L 5.07 112.25 C 5.17 168.49 5.43 214.81 5.65 215.19 C 5.87 215.57 18.52 215.68 33.77 215.45 C 49.02 215.21 83.81 214.81 111.09 214.56 Z M 101.50 213.00 C 101.16 212.45 101.36 212.00 101.94 212.00 C 102.52 212.00 103.00 212.45 103.00 213.00 C 103.00 213.55 102.80 214.00 102.56 214.00 C 102.32 214.00 101.84 213.55 101.50 213.00 Z M 94.00 212.25 C 94.00 211.84 95.12 211.44 96.49 211.36 C 97.87 211.28 98.74 211.61 98.43 212.11 C 97.77 213.19 94.00 213.31 94.00 212.25 Z M 110.50 212.00 C 110.16 211.45 110.36 211.00 110.94 211.00 C 111.52 211.00 112.00 211.45 112.00 212.00 C 112.00 212.55 111.80 213.00 111.56 213.00 C 111.32 213.00 110.84 212.55 110.50 212.00 Z M 121.50 212.00 C 121.16 211.45 121.33 211.00 121.88 211.00 C 122.43 211.00 123.16 211.45 123.50 212.00 C 123.84 212.55 123.67 213.00 123.12 213.00 C 122.57 213.00 121.84 212.55 121.50 212.00 Z M 144.50 212.00 C 144.84 211.45 145.32 211.00 145.56 211.00 C 145.80 211.00 146.00 211.45 146.00 212.00 C 146.00 212.55 145.52 213.00 144.94 213.00 C 144.36 213.00 144.16 212.55 144.50 212.00 Z M 172.00 211.91 C 172.00 211.41 172.90 211.00 174.00 211.00 C 175.10 211.00 176.00 211.17 176.00 211.38 C 176.00 211.59 175.10 212.00 174.00 212.29 C 172.90 212.58 172.00 212.40 172.00 211.91 Z M 283.00 211.00 C 283.00 210.45 283.48 210.00 284.06 210.00 C 284.64 210.00 284.84 210.45 284.50 211.00 C 284.16 211.55 283.68 212.00 283.44 212.00 C 283.20 212.00 283.00 211.55 283.00 211.00 Z M 327.50 211.00 C 325.59 210.18 325.60 210.14 327.75 210.07 C 328.99 210.03 330.00 210.45 330.00 211.00 C 330.00 211.55 329.89 211.97 329.75 211.93 C 329.61 211.89 328.60 211.47 327.50 211.00 Z M 295.50 210.00 C 294.77 208.82 295.75 208.82 298.50 210.00 C 300.43 210.83 300.42 210.86 298.31 210.93 C 297.10 210.97 295.84 210.55 295.50 210.00 Z M 10.70 207.23 C 10.37 205.62 10.36 203.33 10.67 202.15 C 10.99 200.92 10.77 200.00 10.14 200.00 C 9.38 200.00 9.35 199.22 10.03 197.43 C 11.11 194.59 10.30 189.70 8.89 190.57 C 7.34 191.52 7.93 189.77 9.55 188.58 C 11.16 187.41 10.62 184.00 8.82 184.00 C 8.29 184.00 8.45 183.41 9.18 182.68 C 10.22 181.64 10.46 175.62 10.30 154.43 C 10.19 139.62 10.08 126.91 10.05 126.19 C 10.02 125.47 9.55 125.16 9.00 125.50 C 8.45 125.84 8.00 125.42 8.00 124.56 C 8.00 123.70 8.45 123.00 9.00 123.00 C 10.59 123.00 10.16 120.02 8.32 118.18 C 6.74 116.61 7.55 116.46 21.07 115.84 C 40.03 114.97 98.92 114.59 99.66 115.33 C 99.98 115.64 100.41 136.85 100.62 162.45 L 101.01 209.00 L 89.76 209.05 C 83.56 209.08 63.38 209.35 44.89 209.64 L 11.28 210.16 L 10.70 207.23 Z M 106.19 172.72 C 105.77 119.44 105.79 116.16 106.49 115.01 C 106.87 114.40 110.37 114.02 114.78 114.11 C 119.68 114.20 122.55 113.85 122.79 113.13 C 123.00 112.51 123.61 112.00 124.14 112.00 C 124.68 112.00 124.82 112.48 124.45 113.08 C 123.98 113.84 134.29 114.05 159.89 113.80 L 196.00 113.45 L 196.03 139.47 C 196.04 153.79 196.13 175.10 196.23 186.82 L 196.41 208.15 L 151.45 208.54 L 106.48 208.93 L 106.19 172.72 Z M 208.75 208.20 L 202.00 207.91 L 201.97 201.70 C 201.95 198.29 201.80 177.17 201.63 154.77 C 201.35 118.20 201.48 113.99 202.91 113.60 C 204.12 113.27 236.96 112.80 247.00 112.97 C 249.21 113.01 259.26 112.89 259.93 112.82 C 260.24 112.79 260.95 112.86 261.50 112.98 C 262.05 113.10 266.55 113.11 271.50 113.01 C 278.27 112.88 280.98 112.42 282.42 111.17 C 284.22 109.61 284.30 109.61 283.70 111.25 C 283.17 112.71 283.69 113.02 286.78 113.12 C 288.83 113.18 290.84 113.18 291.25 113.12 C 292.19 112.97 292.08 108.59 292.53 162.25 L 292.91 208.00 L 272.71 208.03 C 261.59 208.04 244.18 208.16 234.00 208.28 C 223.82 208.40 212.46 208.37 208.75 208.20 Z M 298.64 207.15 C 298.32 206.55 298.18 190.09 298.03 135.06 C 298.00 123.82 298.35 114.25 298.79 113.81 C 299.24 113.36 319.75 112.88 344.38 112.75 L 389.15 112.50 L 389.64 159.75 L 390.13 207.00 L 366.32 207.10 C 353.22 207.15 332.71 207.33 320.75 207.50 C 308.79 207.67 298.84 207.51 298.64 207.15 Z M 392.02 198.81 C 392.01 197.88 392.45 196.84 393.00 196.50 C 394.27 195.72 394.27 197.04 393.00 199.00 C 392.16 200.29 392.03 200.27 392.02 198.81 Z M 198.08 190.42 C 198.13 189.25 198.36 189.01 198.68 189.81 C 198.97 190.53 198.94 191.40 198.60 191.73 C 198.27 192.06 198.04 191.47 198.08 190.42 Z M 199.00 184.94 C 199.00 184.36 199.45 184.16 200.00 184.50 C 200.55 184.84 201.00 185.32 201.00 185.56 C 201.00 185.80 200.55 186.00 200.00 186.00 C 199.45 186.00 199.00 185.52 199.00 184.94 Z M 392.16 171.00 C 392.16 169.62 392.38 169.06 392.66 169.75 C 392.94 170.44 392.94 171.56 392.66 172.25 C 392.38 172.94 392.16 172.38 392.16 171.00 Z M 294.50 153.00 C 294.84 152.45 295.32 152.00 295.56 152.00 C 295.80 152.00 296.00 152.45 296.00 153.00 C 296.00 153.55 295.52 154.00 294.94 154.00 C 294.36 154.00 294.16 153.55 294.50 153.00 Z M 294.50 148.00 C 294.16 147.45 294.36 147.00 294.94 147.00 C 295.52 147.00 296.00 147.45 296.00 148.00 C 296.00 148.55 295.80 149.00 295.56 149.00 C 295.32 149.00 294.84 148.55 294.50 148.00 Z M 198.08 143.42 C 198.13 142.25 198.36 142.01 198.68 142.81 C 198.97 143.53 198.94 144.40 198.60 144.73 C 198.27 145.06 198.04 144.47 198.08 143.42 Z M 294.50 134.00 C 294.16 133.45 294.36 133.00 294.94 133.00 C 295.52 133.00 296.00 133.45 296.00 134.00 C 296.00 134.55 295.80 135.00 295.56 135.00 C 295.32 135.00 294.84 134.55 294.50 134.00 Z M 294.00 124.50 C 294.00 123.67 294.45 123.00 295.00 123.00 C 295.55 123.00 296.00 123.67 296.00 124.50 C 296.00 125.33 295.55 126.00 295.00 126.00 C 294.45 126.00 294.00 125.33 294.00 124.50 Z M 102.68 120.62 C 102.31 119.64 102.03 118.09 102.06 117.17 C 102.11 116.06 102.45 116.32 103.09 117.91 C 103.62 119.24 103.90 120.79 103.71 121.36 C 103.52 121.93 103.06 121.60 102.68 120.62 Z M 294.50 119.00 C 294.16 118.45 294.36 118.00 294.94 118.00 C 295.52 118.00 296.00 118.45 296.00 119.00 C 296.00 119.55 295.80 120.00 295.56 120.00 C 295.32 120.00 294.84 119.55 294.50 119.00 Z M 103.65 113.53 C 103.19 112.34 103.79 112.02 106.28 112.08 C 108.05 112.12 108.83 112.41 108.00 112.71 C 107.17 113.02 105.99 113.67 105.37 114.16 C 104.65 114.73 104.02 114.50 103.65 113.53 Z M 391.50 114.00 C 391.16 113.45 391.36 113.00 391.94 113.00 C 392.52 113.00 393.00 113.45 393.00 114.00 C 393.00 114.55 392.80 115.00 392.56 115.00 C 392.32 115.00 391.84 114.55 391.50 114.00 Z M 29.00 112.50 C 29.00 111.67 29.40 111.00 29.89 111.00 C 30.38 111.00 31.05 111.67 31.36 112.50 C 31.71 113.41 31.36 114.00 30.47 114.00 C 29.66 114.00 29.00 113.33 29.00 112.50 Z M 33.46 112.93 C 32.40 111.22 33.29 111.09 36.50 112.51 L 39.50 113.84 L 36.81 113.92 C 35.33 113.96 33.82 113.52 33.46 112.93 Z M 40.83 112.93 C 39.13 112.52 39.86 112.20 43.49 111.78 C 46.74 111.40 49.36 111.65 50.99 112.51 C 53.34 113.73 53.17 113.81 48.33 113.66 C 45.48 113.57 42.11 113.24 40.83 112.93 Z M 54.57 113.10 C 51.72 111.99 53.92 111.21 58.36 111.76 C 61.03 112.10 61.80 112.51 60.86 113.11 C 59.24 114.14 57.20 114.13 54.57 113.10 Z M 63.50 113.00 C 63.16 112.45 63.36 112.00 63.94 112.00 C 64.52 112.00 65.00 112.45 65.00 113.00 C 65.00 113.55 64.80 114.00 64.56 114.00 C 64.32 114.00 63.84 113.55 63.50 113.00 Z M 74.50 113.22 C 73.40 112.99 72.05 112.34 71.50 111.77 C 70.82 111.07 71.45 110.97 73.50 111.45 C 77.87 112.49 78.79 114.10 74.50 113.22 Z M 99.50 113.00 C 97.59 112.18 97.60 112.14 99.75 112.07 C 100.99 112.03 102.00 112.45 102.00 113.00 C 102.00 113.55 101.89 113.97 101.75 113.93 C 101.61 113.89 100.60 113.47 99.50 113.00 Z M 294.08 112.42 C 294.13 111.25 294.36 111.01 294.68 111.81 C 294.97 112.53 294.94 113.40 294.60 113.73 C 294.27 114.06 294.04 113.47 294.08 112.42 Z M 67.75 112.34 C 68.44 112.06 69.56 112.06 70.25 112.34 C 70.94 112.62 70.38 112.84 69.00 112.84 C 67.62 112.84 67.06 112.62 67.75 112.34 Z M 79.81 112.32 C 80.53 112.03 81.40 112.06 81.73 112.40 C 82.06 112.73 81.47 112.96 80.42 112.92 C 79.25 112.87 79.01 112.64 79.81 112.32 Z M 83.33 112.34 C 84.09 111.58 91.02 111.69 91.81 112.47 C 92.10 112.76 90.16 113.00 87.50 113.00 C 84.84 113.00 82.96 112.70 83.33 112.34 Z M 95.00 112.00 C 96.96 110.73 98.28 110.73 97.50 112.00 C 97.16 112.55 96.12 112.99 95.19 112.98 C 93.73 112.97 93.71 112.84 95.00 112.00 Z M 197.00 111.50 C 197.00 110.67 197.45 110.00 198.00 110.00 C 198.55 110.00 199.00 110.67 199.00 111.50 C 199.00 112.33 198.55 113.00 198.00 113.00 C 197.45 113.00 197.00 112.33 197.00 111.50 Z M 118.00 111.00 C 118.00 110.45 118.48 110.00 119.06 110.00 C 119.64 110.00 119.84 110.45 119.50 111.00 C 119.16 111.55 118.68 112.00 118.44 112.00 C 118.20 112.00 118.00 111.55 118.00 111.00 Z M 137.43 111.10 C 139.24 110.40 144.00 110.77 144.00 111.62 C 144.00 111.83 142.09 111.97 139.75 111.93 C 136.74 111.88 136.06 111.64 137.43 111.10 Z M 149.76 111.29 C 151.01 111.05 152.81 111.06 153.76 111.31 C 154.72 111.56 153.70 111.76 151.50 111.75 C 149.30 111.74 148.52 111.53 149.76 111.29 Z M 162.50 111.00 C 162.84 110.45 163.32 110.00 163.56 110.00 C 163.80 110.00 164.00 110.45 164.00 111.00 C 164.00 111.55 163.52 112.00 162.94 112.00 C 162.36 112.00 162.16 111.55 162.50 111.00 Z M 176.00 111.00 C 176.00 110.45 176.70 110.00 177.56 110.00 C 178.42 110.00 178.84 110.45 178.50 111.00 C 178.16 111.55 177.46 112.00 176.94 112.00 C 176.42 112.00 176.00 111.55 176.00 111.00 Z M 182.68 111.34 C 181.33 110.00 182.07 109.50 185.53 109.42 C 187.47 109.38 188.70 109.67 188.28 110.06 C 186.99 111.25 183.40 112.07 182.68 111.34 Z M 189.00 110.91 C 189.00 110.41 189.90 110.00 191.00 110.00 C 192.10 110.00 193.00 110.17 193.00 110.38 C 193.00 110.59 192.10 111.00 191.00 111.29 C 189.90 111.58 189.00 111.40 189.00 110.91 Z M 201.00 111.00 C 201.00 110.45 202.24 110.03 203.75 110.07 C 206.19 110.13 206.27 110.24 204.50 111.00 C 201.77 112.17 201.00 112.17 201.00 111.00 Z M 213.00 111.00 C 213.00 110.45 213.42 110.00 213.94 110.00 C 214.46 110.00 215.16 110.45 215.50 111.00 C 215.84 111.55 215.42 112.00 214.56 112.00 C 213.70 112.00 213.00 111.55 213.00 111.00 Z M 218.50 111.00 L 216.50 110.14 L 218.50 110.14 C 219.60 110.14 221.40 110.53 222.50 111.00 L 224.50 111.86 L 222.50 111.86 C 221.40 111.86 219.60 111.47 218.50 111.00 Z M 235.00 111.00 C 235.00 110.45 235.42 110.00 235.94 110.00 C 236.46 110.00 237.16 110.45 237.50 111.00 C 237.84 111.55 237.42 112.00 236.56 112.00 C 235.70 112.00 235.00 111.55 235.00 111.00 Z M 249.64 110.50 C 249.29 109.60 249.63 109.00 250.50 109.00 C 251.37 109.00 251.71 109.60 251.36 110.50 C 251.05 111.33 250.66 112.00 250.50 112.00 C 250.34 112.00 249.95 111.33 249.64 110.50 Z M 262.64 110.50 C 262.95 109.67 263.39 109.00 263.61 109.00 C 263.82 109.00 264.00 109.67 264.00 110.50 C 264.00 111.33 263.56 112.00 263.03 112.00 C 262.50 112.00 262.32 111.33 262.64 110.50 Z M 286.00 110.91 C 286.00 110.41 286.90 110.00 288.00 110.00 C 289.10 110.00 290.00 110.17 290.00 110.38 C 290.00 110.59 289.10 111.00 288.00 111.29 C 286.90 111.58 286.00 111.40 286.00 110.91 Z M 310.61 110.43 C 310.28 109.57 310.92 109.23 312.56 109.41 C 316.02 109.78 316.52 110.67 313.59 111.23 C 312.11 111.51 310.90 111.19 310.61 110.43 Z M 194.00 110.00 C 194.00 109.45 194.48 109.00 195.06 109.00 C 195.64 109.00 195.84 109.45 195.50 110.00 C 195.16 110.55 194.68 111.00 194.44 111.00 C 194.20 111.00 194.00 110.55 194.00 110.00 Z M 224.75 110.34 C 225.44 110.06 226.56 110.06 227.25 110.34 C 227.94 110.62 227.38 110.84 226.00 110.84 C 224.62 110.84 224.06 110.62 224.75 110.34 Z M 230.00 110.09 C 230.00 109.60 230.90 109.42 232.00 109.71 C 233.10 110.00 234.00 110.41 234.00 110.62 C 234.00 110.83 233.10 111.00 232.00 111.00 C 230.90 111.00 230.00 110.59 230.00 110.09 Z M 238.81 110.32 C 239.53 110.03 240.40 110.06 240.73 110.40 C 241.06 110.73 240.47 110.96 239.42 110.92 C 238.25 110.87 238.01 110.64 238.81 110.32 Z M 244.64 109.50 C 245.14 108.19 242.33 108.00 222.99 108.00 C 201.26 108.00 200.78 107.96 201.29 106.00 C 201.58 104.90 201.40 103.75 200.91 103.44 C 200.41 103.13 200.00 103.56 200.00 104.38 C 200.00 105.21 199.57 106.15 199.04 106.47 C 198.48 106.82 198.25 105.77 198.48 103.96 C 198.81 101.36 198.64 101.05 197.44 102.05 C 196.65 102.71 196.00 104.31 196.00 105.62 C 196.00 106.93 195.89 108.02 195.75 108.04 C 192.98 108.54 109.46 109.08 107.62 108.62 C 106.12 108.24 105.00 107.26 105.00 106.31 C 105.00 105.40 104.25 103.83 103.34 102.82 C 102.43 101.81 102.01 100.65 102.42 100.25 C 102.83 99.84 103.70 100.23 104.35 101.12 C 105.00 102.02 107.10 103.70 109.02 104.87 C 112.40 106.93 113.56 106.99 148.00 106.97 C 167.53 106.96 185.24 106.55 187.36 106.06 C 189.48 105.56 193.02 103.72 195.22 101.95 C 197.42 100.18 199.51 99.14 199.86 99.63 C 200.21 100.13 202.00 101.76 203.83 103.27 L 207.15 106.00 L 245.62 106.00 C 281.89 106.00 284.30 105.89 287.94 104.03 C 290.06 102.95 292.54 101.32 293.45 100.41 C 294.99 98.87 295.26 98.89 297.30 100.76 C 302.94 105.91 303.63 106.00 338.62 106.00 C 356.61 106.00 371.07 106.27 370.74 106.59 C 370.42 106.92 354.35 107.32 335.04 107.48 C 303.57 107.75 299.75 107.61 298.28 106.14 C 297.38 105.24 296.26 104.50 295.78 104.50 C 295.31 104.50 294.50 103.83 293.98 103.00 C 293.21 101.79 293.03 101.93 293.02 103.71 C 293.01 104.93 292.21 106.33 291.25 106.82 C 290.29 107.31 282.53 107.81 274.02 107.92 C 263.40 108.07 258.30 108.51 257.78 109.32 C 257.22 110.21 257.03 110.19 257.02 109.25 C 257.00 108.40 255.23 108.00 251.50 108.00 C 246.40 108.00 244.31 109.15 247.25 110.34 C 247.94 110.62 247.50 110.88 246.28 110.92 C 244.70 110.98 244.23 110.57 244.64 109.50 Z M 273.81 110.32 C 274.53 110.03 275.40 110.06 275.73 110.40 C 276.06 110.73 275.47 110.96 274.42 110.92 C 273.25 110.87 273.01 110.64 273.81 110.32 Z M 302.00 110.00 C 302.00 109.45 302.45 109.00 303.00 109.00 C 303.55 109.00 304.00 109.45 304.00 110.00 C 304.00 110.55 303.55 111.00 303.00 111.00 C 302.45 111.00 302.00 110.55 302.00 110.00 Z M 368.50 110.00 C 368.84 109.45 369.32 109.00 369.56 109.00 C 369.80 109.00 370.00 109.45 370.00 110.00 C 370.00 110.55 369.52 111.00 368.94 111.00 C 368.36 111.00 368.16 110.55 368.50 110.00 Z M 29.00 109.04 C 29.00 108.34 39.19 108.00 59.83 108.00 L 90.66 108.00 L 95.58 105.50 C 98.29 104.13 100.64 103.01 100.82 103.00 C 100.99 103.00 100.99 104.24 100.82 105.75 C 100.52 108.36 100.16 108.53 94.00 109.14 C 82.61 110.27 29.00 110.19 29.00 109.04 Z M 102.58 106.13 C 102.15 105.44 102.07 104.60 102.40 104.27 C 103.29 103.37 104.27 104.69 103.79 106.14 C 103.45 107.15 103.21 107.15 102.58 106.13 Z M 29.00 68.73 L 29.00 35.27 L 63.75 34.76 C 82.86 34.49 98.86 34.59 99.31 34.99 C 99.75 35.39 99.98 48.72 99.81 64.61 C 99.52 91.68 99.37 93.67 97.50 96.15 C 93.49 101.47 93.66 101.45 60.25 101.83 L 29.00 102.19 L 29.00 68.73 Z M 111.14 98.92 C 106.34 94.44 106.00 92.03 106.00 62.03 L 106.00 34.00 L 122.34 34.00 C 131.32 34.00 151.57 33.70 167.34 33.34 L 196.00 32.68 L 196.00 61.10 C 196.00 92.35 195.74 93.86 189.58 98.47 C 186.98 100.41 185.23 100.51 150.18 100.81 C 113.57 101.12 113.50 101.11 111.14 98.92 Z M 206.11 96.96 C 204.44 95.29 202.82 92.48 202.50 90.71 C 202.18 88.94 201.80 75.24 201.65 60.25 L 201.39 33.00 L 237.94 32.89 C 258.05 32.83 278.32 32.72 283.00 32.64 L 291.50 32.50 L 291.77 61.27 C 292.06 93.17 291.88 94.28 285.70 98.04 C 282.68 99.88 280.44 99.99 245.83 100.00 L 209.15 100.00 L 206.11 96.96 Z M 302.51 96.58 C 300.73 94.70 298.99 91.71 298.64 89.95 C 298.29 88.19 298.00 74.43 298.00 59.38 L 298.00 32.00 L 327.75 31.89 C 344.11 31.83 360.31 31.61 363.75 31.41 L 370.00 31.04 L 370.00 64.86 L 370.00 98.68 L 351.25 99.34 C 340.94 99.70 326.48 100.00 319.12 100.00 L 305.74 100.00 L 302.51 96.58 Z" fill="none" stroke="rgba(255,255,255,0.92)" stroke-width="1.5" stroke-linejoin="round" fill-rule="evenodd"/>
</svg>
