<svg xmlns="http://www.w3.org/2000/svg" viewBox="0 0 100 100" width="100" height="100">
  <path d="M 0.00 50.00 L 0.00 0.00 L 50.00 0.00 L 100.00 0.00 L 100.00 50.00 L 100.00 100.00 L 50.00 100.00 L 0.00 100.00 L 0.00 50.00 Z M 96.00 84.50 L 96.00 73.00 L 87.75 72.87 C 83.21 72.80 68.70 72.69 55.50 72.62 L 31.50 72.50 L 31.24 41.27 L 30.97 10.05 L 33.24 9.48 C 34.48 9.17 49.11 9.04 65.75 9.21 L 96.00 9.50 L 96.00 6.75 L 96.00 4.00 L 51.25 4.00 L 6.50 4.00 L 6.74 26.75 C 6.88 39.26 7.26 59.96 7.60 72.75 L 8.22 96.00 L 52.11 96.00 L 96.00 96.00 L 96.00 84.50 Z" fill="none" stroke="rgba(255,255,255,0.92)" stroke-width="1.2" stroke-linejoin="round" fill-rule="evenodd"/>
</svg>
