<svg xmlns="http://www.w3.org/2000/svg" viewBox="0 0 100 100" width="100" height="100">
  <path d="M 0.00 50.00 L 0.00 0.00 L 50.00 0.00 L 100.00 0.00 L 100.00 50.00 L 100.00 100.00 L 50.00 100.00 L 0.00 100.00 L 0.00 50.00 Z M 18.59 95.27 C 16.99 95.03 14.57 94.11 13.20 93.21 C 8.25 89.97 8.00 87.82 8.00 49.21 L 8.00 13.35 L 10.25 11.24 C 14.41 7.35 17.25 7.00 45.10 7.00 L 72.07 7.00 L 71.62 51.50 L 71.18 96.00 L 83.09 96.00 L 95.00 96.00 L 95.00 84.66 C 95.00 78.43 95.30 57.73 95.66 38.66 L 96.32 4.00 L 52.23 4.00 L 8.14 4.00 L 6.07 6.90 C 4.06 9.73 4.00 10.96 4.00 50.68 C 4.00 99.10 3.31 96.08 14.31 95.85 C 18.26 95.77 20.19 95.51 18.59 95.27 Z M 5.50 6.00 C 5.84 5.45 5.64 5.00 5.06 5.00 C 4.48 5.00 4.00 5.45 4.00 6.00 C 4.00 6.55 4.20 7.00 4.44 7.00 C 4.68 7.00 5.16 6.55 5.50 6.00 Z" fill="none" stroke="rgba(255,255,255,0.92)" stroke-width="1.2" stroke-linejoin="round" fill-rule="evenodd"/>
</svg>
