<svg xmlns="http://www.w3.org/2000/svg" viewBox="0 0 400 320" width="400" height="320">
  <path d="M 0.00 294.00 L 0.00 268.00 L 11.00 268.00 C 21.34 268.00 24.78 267.02 19.89 265.46 C 18.08 264.89 17.86 264.26 18.37 261.15 C 18.71 259.14 18.98 255.59 18.99 253.25 C 19.00 249.66 19.31 249.00 21.02 249.00 C 22.34 249.00 23.61 247.79 24.70 245.50 C 26.71 241.29 29.00 240.89 28.99 244.75 C 28.97 249.74 27.76 255.00 26.62 255.02 C 26.00 255.03 24.38 255.92 23.00 257.00 C 20.90 258.65 20.79 258.96 22.32 258.98 C 23.31 258.99 25.06 258.50 26.19 257.90 C 28.20 256.82 28.24 256.96 27.56 262.40 C 26.96 267.18 27.11 268.10 28.57 268.67 C 31.15 269.65 32.68 266.77 33.47 259.48 C 34.07 253.83 34.53 252.76 37.16 250.89 C 39.30 249.36 39.85 248.45 39.08 247.68 C 38.31 246.91 37.66 246.94 36.80 247.80 C 36.14 248.46 35.27 249.00 34.86 249.00 C 33.84 249.00 35.10 241.58 36.20 241.15 C 36.69 240.96 36.67 240.30 36.13 239.65 C 35.61 239.02 35.02 237.15 34.84 235.50 C 34.59 233.29 33.98 232.50 32.52 232.50 C 31.00 232.50 30.39 233.38 29.92 236.26 C 29.27 240.27 28.41 241.74 27.34 240.68 C 26.98 240.32 27.39 238.24 28.24 236.07 C 29.88 231.91 29.67 231.00 27.07 231.00 C 25.96 231.00 24.56 233.65 22.49 239.66 C 20.37 245.81 19.40 247.63 19.15 245.91 C 18.74 243.11 17.39 242.04 14.25 242.02 C 12.42 242.00 12.00 241.44 12.00 239.00 C 12.00 236.25 12.28 236.00 15.44 236.00 C 17.33 236.00 19.16 235.55 19.50 235.00 C 19.86 234.42 18.84 234.00 17.03 234.00 C 14.64 234.00 13.73 233.42 12.97 231.43 C 11.78 228.28 8.65 228.50 8.18 231.76 C 7.95 233.38 7.19 234.00 5.43 234.00 C 4.09 234.00 3.00 234.45 3.00 235.00 C 3.00 235.55 4.12 236.00 5.50 236.00 C 7.60 236.00 8.00 236.47 8.00 238.93 C 8.00 241.21 7.50 241.93 5.75 242.18 C 3.84 242.45 3.46 243.18 3.26 247.00 C 2.64 258.78 1.75 266.00 0.91 266.00 C 0.37 266.00 0.00 212.73 0.00 133.00 L 0.00 0.00 L 200.00 0.00 L 400.00 0.00 L 400.00 160.00 L 400.00 320.00 L 216.46 320.00 L 32.92 320.00 L 30.02 317.86 L 27.12 315.71 L 29.56 312.12 C 33.67 306.07 33.05 305.00 25.43 305.00 C 19.08 305.00 18.89 304.92 19.56 302.75 C 20.75 298.85 22.10 298.00 27.12 298.00 C 29.81 298.00 32.00 297.55 32.00 297.00 C 32.00 296.45 29.92 296.00 27.38 296.00 C 23.06 296.00 22.81 295.85 23.44 293.75 C 23.80 292.51 24.37 289.77 24.70 287.65 C 25.22 284.25 25.07 283.84 23.40 284.15 C 22.22 284.37 20.41 286.78 18.65 290.50 C 17.08 293.80 15.30 296.81 14.69 297.18 C 12.41 298.61 12.16 296.78 14.05 292.39 C 16.53 286.60 16.51 285.00 13.94 285.00 C 11.76 285.00 8.60 290.76 7.35 297.02 L 6.70 300.23 L 10.85 299.52 C 13.13 299.14 15.00 298.98 15.00 299.17 C 15.00 299.36 13.43 303.12 11.51 307.51 C 9.59 311.90 8.02 316.09 8.01 316.82 C 7.99 319.29 12.39 317.58 13.97 314.50 C 14.81 312.85 15.62 311.30 15.78 311.06 C 15.93 310.81 17.03 311.58 18.22 312.77 C 20.15 314.71 20.24 315.19 19.02 317.47 C 17.72 319.88 17.26 320.00 8.83 320.00 L 0.00 320.00 L 0.00 294.00 Z M 24.51 318.98 C 24.86 318.42 25.56 318.23 26.07 318.54 C 27.46 319.40 27.20 320.00 25.44 320.00 C 24.58 320.00 24.16 319.54 24.51 318.98 Z M 203.50 265.50 C 203.50 238.00 203.84 215.25 204.25 214.94 C 204.66 214.64 222.43 214.27 243.75 214.12 C 265.06 213.97 288.80 213.71 296.50 213.52 C 304.20 213.34 329.74 213.11 353.25 213.00 C 392.18 212.82 396.01 212.65 396.11 211.15 C 396.17 210.24 396.20 207.47 396.17 205.00 C 396.15 202.53 396.10 179.17 396.06 153.11 L 396.00 105.72 L 361.25 106.36 C 342.14 106.71 320.65 107.05 313.50 107.11 L 300.50 107.23 L 300.24 55.86 L 299.98 4.50 L 290.74 4.76 C 236.80 6.27 144.75 8.00 118.00 8.00 C 99.57 8.00 66.67 8.30 44.87 8.66 L 5.25 9.32 L 5.57 23.91 C 5.76 31.93 6.17 78.06 6.49 126.40 C 6.81 174.75 7.33 214.73 7.65 215.24 C 7.99 215.80 21.60 215.88 42.36 215.43 C 86.74 214.48 101.71 214.38 102.35 215.02 C 102.64 215.31 102.96 236.23 103.06 261.52 C 103.15 286.81 103.46 309.18 103.74 311.22 L 104.25 314.95 L 118.37 315.22 C 126.14 315.38 148.47 315.50 168.00 315.50 L 203.50 315.50 L 203.50 265.50 Z M 109.81 312.32 C 110.53 312.03 111.40 312.06 111.73 312.40 C 112.06 312.73 111.47 312.96 110.42 312.92 C 109.25 312.87 109.01 312.64 109.81 312.32 Z M 114.27 312.31 C 115.24 312.05 116.59 312.07 117.27 312.34 C 117.95 312.62 117.15 312.83 115.50 312.81 C 113.85 312.78 113.30 312.56 114.27 312.31 Z M 19.64 310.35 C 16.01 308.41 17.42 306.75 22.32 307.18 C 25.85 307.50 25.88 307.53 24.20 309.69 C 22.60 311.74 22.33 311.78 19.64 310.35 Z M 112.75 309.19 L 109.00 308.88 L 108.96 296.69 C 108.94 289.99 108.80 269.43 108.66 251.00 C 108.52 232.57 108.58 216.76 108.79 215.85 C 109.15 214.34 113.14 214.20 154.55 214.30 C 186.13 214.37 199.67 214.72 199.10 215.45 C 198.64 216.03 198.38 237.51 198.50 263.18 L 198.72 309.87 L 157.61 309.68 C 135.00 309.58 114.81 309.36 112.75 309.19 Z M 105.08 303.42 C 105.13 302.25 105.36 302.01 105.68 302.81 C 105.97 303.53 105.94 304.40 105.60 304.73 C 105.27 305.06 105.04 304.47 105.08 303.42 Z M 105.08 294.42 C 105.13 293.25 105.36 293.01 105.68 293.81 C 105.97 294.53 105.94 295.40 105.60 295.73 C 105.27 296.06 105.04 295.47 105.08 294.42 Z M 35.00 292.15 C 35.00 289.21 32.59 285.00 30.90 285.00 C 28.70 285.00 28.60 285.57 30.10 289.85 C 30.81 291.89 31.86 293.00 33.10 293.00 C 34.14 293.00 35.00 292.62 35.00 292.15 Z M 201.08 288.42 C 201.13 287.25 201.36 287.01 201.68 287.81 C 201.97 288.53 201.94 289.40 201.60 289.73 C 201.27 290.06 201.04 289.47 201.08 288.42 Z M 105.02 286.75 C 105.01 285.24 105.45 284.00 106.00 284.00 C 107.26 284.00 107.26 286.04 106.00 288.00 C 105.24 289.17 105.03 288.89 105.02 286.75 Z M 105.09 281.00 C 105.12 280.18 105.53 278.60 106.00 277.50 L 106.86 275.50 L 106.91 277.50 C 106.94 278.60 106.53 280.18 106.00 281.00 C 105.14 282.33 105.04 282.33 105.09 281.00 Z M 201.16 278.00 C 201.16 276.62 201.38 276.06 201.66 276.75 C 201.94 277.44 201.94 278.56 201.66 279.25 C 201.38 279.94 201.16 279.38 201.16 278.00 Z M 105.08 272.42 C 105.13 271.25 105.36 271.01 105.68 271.81 C 105.97 272.53 105.94 273.40 105.60 273.73 C 105.27 274.06 105.04 273.47 105.08 272.42 Z M 201.16 272.00 C 201.16 270.62 201.38 270.06 201.66 270.75 C 201.94 271.44 201.94 272.56 201.66 273.25 C 201.38 273.94 201.16 273.38 201.16 272.00 Z M 60.06 262.25 C 60.72 259.09 61.31 252.22 61.38 247.00 L 61.50 237.50 L 53.75 237.37 C 49.49 237.30 45.97 237.07 45.93 236.87 C 45.89 236.67 46.34 235.23 46.93 233.68 C 48.46 229.67 48.29 229.00 45.74 229.00 C 43.92 229.00 43.07 230.10 41.29 234.75 C 37.65 244.29 37.44 246.00 39.88 246.00 C 41.34 246.00 42.46 244.87 43.60 242.25 C 44.49 240.19 45.41 238.99 45.64 239.59 C 45.87 240.19 44.70 243.72 43.03 247.43 C 40.04 254.10 39.83 257.21 42.53 254.98 C 43.27 254.36 45.10 250.62 46.59 246.68 C 49.53 238.86 49.76 238.43 50.49 239.16 C 51.22 239.88 45.73 255.63 42.63 261.75 L 39.97 267.00 L 42.32 267.00 C 45.15 267.00 48.45 261.48 52.48 250.00 L 55.12 242.50 L 54.52 251.00 C 53.57 264.39 53.57 264.39 50.92 265.09 L 48.50 265.73 L 51.00 266.80 C 52.38 267.39 54.71 267.90 56.18 267.94 C 58.65 268.00 58.95 267.55 60.06 262.25 Z M 105.00 266.00 C 105.00 265.45 105.48 265.00 106.06 265.00 C 106.64 265.00 106.84 265.45 106.50 266.00 C 106.16 266.55 105.68 267.00 105.44 267.00 C 105.20 267.00 105.00 266.55 105.00 266.00 Z M 201.08 265.42 C 201.13 264.25 201.36 264.01 201.68 264.81 C 201.97 265.53 201.94 266.40 201.60 266.73 C 201.27 267.06 201.04 266.47 201.08 265.42 Z M 6.18 264.25 C 6.40 263.10 7.62 262.39 9.76 262.19 C 12.47 261.92 13.00 262.21 13.00 263.94 C 13.00 265.64 12.37 266.00 9.43 266.00 C 6.56 266.00 5.92 265.65 6.18 264.25 Z M 105.67 262.33 C 105.30 261.97 105.04 260.50 105.09 259.08 C 105.17 256.55 105.19 256.55 106.05 259.45 C 106.96 262.49 106.83 263.49 105.67 262.33 Z M 6.41 259.61 C 5.51 257.28 6.82 256.00 10.13 256.00 C 12.68 256.00 13.09 256.34 12.82 258.25 C 12.43 260.99 7.35 262.07 6.41 259.61 Z M 7.00 252.50 C 7.00 250.39 7.47 250.00 10.00 250.00 C 15.41 250.00 13.21 254.89 7.75 254.99 C 7.34 254.99 7.00 253.88 7.00 252.50 Z M 6.61 246.42 C 5.69 244.04 5.74 244.00 9.50 244.00 C 12.33 244.00 13.00 244.38 13.00 246.00 C 13.00 247.54 12.33 248.00 10.11 248.00 C 8.39 248.00 6.97 247.36 6.61 246.42 Z M 105.00 236.23 C 105.00 229.57 105.38 223.89 105.83 223.60 C 106.69 223.07 106.33 247.00 105.48 247.86 C 105.21 248.12 105.00 242.88 105.00 236.23 Z M 201.14 229.83 C 201.06 228.91 200.71 227.34 200.35 226.33 C 199.85 224.92 199.99 224.76 200.94 225.63 C 201.62 226.26 201.97 227.83 201.72 229.13 C 201.47 230.44 201.21 230.75 201.14 229.83 Z M 201.08 223.42 C 201.13 222.25 201.36 222.01 201.68 222.81 C 201.97 223.53 201.94 224.40 201.60 224.73 C 201.27 225.06 201.04 224.47 201.08 223.42 Z M 105.09 219.50 C 105.07 216.45 105.29 215.89 106.03 217.16 C 106.64 218.21 106.65 219.69 106.06 221.16 C 105.24 223.21 105.12 223.00 105.09 219.50 Z M 51.50 212.00 C 51.84 211.45 52.57 211.00 53.12 211.00 C 53.67 211.00 53.84 211.45 53.50 212.00 C 53.16 212.55 52.43 213.00 51.88 213.00 C 51.33 213.00 51.16 212.55 51.50 212.00 Z M 80.35 211.75 C 80.09 211.34 81.46 211.00 83.38 211.00 C 85.31 211.00 87.11 211.37 87.39 211.82 C 87.67 212.28 86.31 212.61 84.36 212.57 C 82.41 212.53 80.61 212.16 80.35 211.75 Z M 94.33 211.50 C 94.33 209.80 94.91 209.66 96.83 210.88 C 97.90 211.55 97.83 211.85 96.50 212.36 C 94.30 213.21 94.33 213.22 94.33 211.50 Z M 113.81 212.32 C 114.53 212.03 115.40 212.06 115.73 212.40 C 116.06 212.73 115.47 212.96 114.42 212.92 C 113.25 212.87 113.01 212.64 113.81 212.32 Z M 140.00 212.00 C 140.00 211.45 140.42 211.00 140.94 211.00 C 141.46 211.00 142.16 211.45 142.50 212.00 C 142.84 212.55 142.42 213.00 141.56 213.00 C 140.70 213.00 140.00 212.55 140.00 212.00 Z M 162.50 212.00 C 162.84 211.45 163.32 211.00 163.56 211.00 C 163.80 211.00 164.00 211.45 164.00 212.00 C 164.00 212.55 163.52 213.00 162.94 213.00 C 162.36 213.00 162.16 212.55 162.50 212.00 Z M 76.81 211.32 C 77.53 211.03 78.40 211.06 78.73 211.40 C 79.06 211.73 78.47 211.96 77.42 211.92 C 76.25 211.87 76.01 211.64 76.81 211.32 Z M 137.00 210.94 C 137.00 210.36 137.45 210.16 138.00 210.50 C 138.55 210.84 139.00 211.32 139.00 211.56 C 139.00 211.80 138.55 212.00 138.00 212.00 C 137.45 212.00 137.00 211.52 137.00 210.94 Z M 144.81 211.32 C 145.53 211.03 146.40 211.06 146.73 211.40 C 147.06 211.73 146.47 211.96 145.42 211.92 C 144.25 211.87 144.01 211.64 144.81 211.32 Z M 244.50 211.00 C 244.84 210.45 245.54 210.00 246.06 210.00 C 246.58 210.00 247.00 210.45 247.00 211.00 C 247.00 211.55 246.30 212.00 245.44 212.00 C 244.58 212.00 244.16 211.55 244.50 211.00 Z M 280.50 211.00 C 280.84 210.45 281.32 210.00 281.56 210.00 C 281.80 210.00 282.00 210.45 282.00 211.00 C 282.00 211.55 281.52 212.00 280.94 212.00 C 280.36 212.00 280.16 211.55 280.50 211.00 Z M 296.47 211.04 C 296.80 210.52 297.72 210.34 298.53 210.65 C 300.60 211.44 300.36 212.00 297.94 212.00 C 296.81 212.00 296.15 211.57 296.47 211.04 Z M 315.50 211.00 C 315.16 210.45 315.36 210.00 315.94 210.00 C 316.52 210.00 317.00 210.45 317.00 211.00 C 317.00 211.55 316.80 212.00 316.56 212.00 C 316.32 212.00 315.84 211.55 315.50 211.00 Z M 320.81 211.32 C 321.53 211.03 322.40 211.06 322.73 211.40 C 323.06 211.73 322.47 211.96 321.42 211.92 C 320.25 211.87 320.01 211.64 320.81 211.32 Z M 12.43 189.65 C 12.28 149.37 11.69 124.12 10.86 122.81 C 10.24 121.82 10.03 121.93 10.02 123.25 C 10.01 124.21 9.55 125.00 9.00 125.00 C 8.45 125.00 8.00 123.01 8.00 120.58 L 8.00 116.16 L 14.41 115.47 C 17.93 115.10 39.19 114.72 61.66 114.64 L 102.50 114.50 L 102.75 161.14 L 103.00 207.78 L 100.75 208.30 C 99.51 208.58 91.97 208.85 84.00 208.90 C 63.67 209.03 13.60 210.18 13.00 210.52 C 12.72 210.68 12.47 201.29 12.43 189.65 Z M 342.00 210.00 C 340.79 209.22 340.93 209.03 342.75 209.02 C 343.99 209.01 345.00 209.45 345.00 210.00 C 345.00 211.25 343.94 211.25 342.00 210.00 Z M 352.00 209.94 C 352.00 209.36 352.45 209.16 353.00 209.50 C 353.55 209.84 354.00 210.32 354.00 210.56 C 354.00 210.80 353.55 211.00 353.00 211.00 C 352.45 211.00 352.00 210.52 352.00 209.94 Z M 388.50 210.00 C 388.14 209.42 388.75 209.13 389.91 209.30 C 392.78 209.74 393.76 211.00 391.23 211.00 C 390.07 211.00 388.84 210.55 388.50 210.00 Z M 359.81 209.32 C 360.53 209.03 361.40 209.06 361.73 209.40 C 362.06 209.73 361.47 209.96 360.42 209.92 C 359.25 209.87 359.01 209.64 359.81 209.32 Z M 108.98 206.97 C 108.53 206.12 108.15 194.65 108.13 181.47 C 108.06 119.17 107.99 115.00 106.96 115.00 C 106.37 115.00 106.02 116.74 106.15 118.97 C 106.28 121.16 106.08 123.26 105.69 123.64 C 104.31 125.02 104.70 116.44 106.14 113.75 C 106.65 112.79 108.07 112.01 109.29 112.02 C 111.07 112.03 111.21 112.21 110.00 112.99 C 109.04 113.60 124.49 113.92 153.28 113.87 L 198.07 113.81 L 198.28 160.95 C 198.50 207.36 198.47 208.10 196.50 208.55 C 195.40 208.80 175.44 208.89 152.15 208.75 C 115.30 208.53 109.70 208.30 108.98 206.97 Z M 204.50 208.21 C 203.86 207.76 203.50 190.66 203.50 160.49 L 203.50 113.48 L 210.50 113.49 C 216.56 113.50 217.48 113.26 217.36 111.75 C 217.28 110.79 217.81 110.00 218.52 110.00 C 219.28 110.00 219.62 110.75 219.34 111.81 C 218.89 113.54 220.63 113.63 256.68 113.56 L 294.50 113.50 L 294.50 160.17 C 294.50 185.83 294.26 207.07 293.97 207.36 C 293.15 208.19 205.63 209.02 204.50 208.21 Z M 300.55 206.26 C 299.60 203.81 300.05 113.50 301.01 112.00 C 301.65 111.00 301.97 110.92 301.98 111.75 C 302.00 112.73 307.67 112.89 328.25 112.49 C 364.19 111.80 389.16 111.82 389.87 112.54 C 390.20 112.86 390.56 134.25 390.67 160.07 L 390.88 207.00 L 385.69 206.98 C 382.83 206.97 362.62 207.08 340.76 207.23 C 309.95 207.44 300.92 207.22 300.55 206.26 Z M 105.19 203.50 C 105.22 201.85 105.44 201.30 105.69 202.27 C 105.95 203.24 105.93 204.59 105.66 205.27 C 105.38 205.95 105.17 205.15 105.19 203.50 Z M 297.19 202.50 C 297.22 200.85 297.44 200.30 297.69 201.27 C 297.95 202.24 297.93 203.59 297.66 204.27 C 297.38 204.95 297.17 204.15 297.19 202.50 Z M 321.50 199.26 C 331.63 195.05 340.50 188.71 343.55 183.50 L 346.28 178.85 L 349.19 184.18 C 355.41 195.55 361.68 199.00 376.18 199.00 C 383.46 199.00 384.00 198.86 384.00 196.89 C 384.00 192.73 380.76 182.43 377.17 175.15 C 373.58 167.89 366.39 160.00 363.36 160.00 C 360.83 160.00 362.00 158.51 366.05 156.57 C 370.94 154.23 377.36 147.46 379.46 142.45 C 381.06 138.62 381.52 126.77 380.35 119.68 C 379.76 116.15 379.51 115.91 377.11 116.51 C 366.66 119.12 347.77 132.09 346.38 137.61 C 345.54 140.96 344.62 140.59 343.06 136.30 C 342.33 134.26 339.38 130.25 336.51 127.38 C 330.70 121.57 327.60 120.61 314.50 120.54 L 307.50 120.50 L 307.77 124.00 C 308.13 128.67 311.63 139.22 315.07 146.00 C 318.27 152.31 321.78 156.32 326.03 158.52 C 329.59 160.36 329.68 160.78 326.75 161.93 C 322.16 163.71 316.05 169.06 313.37 173.64 C 311.06 177.58 310.53 179.81 310.18 187.13 C 309.95 191.96 310.06 197.52 310.43 199.50 C 311.20 203.59 311.10 203.59 321.50 199.26 Z M 9.73 197.40 C 9.33 196.99 9.03 195.50 9.06 194.08 L 9.13 191.50 L 10.09 193.91 C 11.13 196.52 10.92 198.58 9.73 197.40 Z M 105.08 196.42 C 105.13 195.25 105.36 195.01 105.68 195.81 C 105.97 196.53 105.94 197.40 105.60 197.73 C 105.27 198.06 105.04 197.47 105.08 196.42 Z M 297.16 194.00 C 297.16 192.62 297.38 192.06 297.66 192.75 C 297.94 193.44 297.94 194.56 297.66 195.25 C 297.38 195.94 297.16 195.38 297.16 194.00 Z M 316.00 188.08 C 316.00 180.26 317.69 176.28 322.90 171.82 C 327.04 168.27 336.44 164.00 340.09 164.00 C 344.23 164.00 341.82 177.10 336.68 182.56 C 333.41 186.04 322.62 192.55 318.39 193.62 C 316.06 194.20 316.00 194.05 316.00 188.08 Z M 105.19 190.50 C 105.22 188.85 105.44 188.30 105.69 189.27 C 105.95 190.24 105.93 191.59 105.66 192.27 C 105.38 192.95 105.17 192.15 105.19 190.50 Z M 365.75 191.80 C 358.32 189.83 352.03 179.63 350.25 166.70 C 349.66 162.45 348.96 162.56 359.43 165.19 C 365.80 166.79 370.85 173.43 375.12 185.86 C 376.16 188.86 377.00 191.69 377.00 192.16 C 377.00 193.26 370.49 193.06 365.75 191.80 Z M 393.08 190.42 C 393.13 189.25 393.36 189.01 393.68 189.81 C 393.97 190.53 393.94 191.40 393.60 191.73 C 393.27 192.06 393.04 191.47 393.08 190.42 Z M 9.69 186.75 C 9.37 184.41 9.54 182.07 10.06 181.55 C 10.65 180.95 11.00 182.54 11.00 185.80 C 11.00 192.10 10.46 192.49 9.69 186.75 Z M 105.08 182.42 C 105.13 181.25 105.36 181.01 105.68 181.81 C 105.97 182.53 105.94 183.40 105.60 183.73 C 105.27 184.06 105.04 183.47 105.08 182.42 Z M 9.70 178.61 C 9.29 177.57 9.19 176.48 9.48 176.19 C 10.39 175.28 11.19 176.77 10.81 178.67 C 10.46 180.41 10.41 180.41 9.70 178.61 Z M 104.83 171.75 C 105.28 161.80 106.50 161.28 106.50 171.05 C 106.50 175.68 106.08 179.00 105.50 179.00 C 104.89 179.00 104.63 176.14 104.83 171.75 Z M 200.02 173.08 C 200.00 168.36 200.59 167.93 201.34 172.12 C 201.60 173.53 201.41 175.32 200.92 176.09 C 200.32 177.04 200.03 176.06 200.02 173.08 Z M 297.08 174.42 C 297.13 173.25 297.36 173.01 297.68 173.81 C 297.97 174.53 297.94 175.40 297.60 175.73 C 297.27 176.06 297.04 175.47 297.08 174.42 Z M 9.00 173.00 C 9.00 172.45 9.45 172.00 10.00 172.00 C 10.55 172.00 11.00 172.45 11.00 173.00 C 11.00 173.55 10.55 174.00 10.00 174.00 C 9.45 174.00 9.00 173.55 9.00 173.00 Z M 297.16 168.00 C 297.16 166.62 297.38 166.06 297.66 166.75 C 297.94 167.44 297.94 168.56 297.66 169.25 C 297.38 169.94 297.16 169.38 297.16 168.00 Z M 10.08 167.42 C 10.13 166.25 10.36 166.01 10.68 166.81 C 10.97 167.53 10.94 168.40 10.60 168.73 C 10.27 169.06 10.04 168.47 10.08 167.42 Z M 201.08 164.42 C 201.13 163.25 201.36 163.01 201.68 163.81 C 201.97 164.53 201.94 165.40 201.60 165.73 C 201.27 166.06 201.04 165.47 201.08 164.42 Z M 9.00 163.00 C 9.00 161.13 9.27 160.87 10.20 161.80 C 11.13 162.73 11.13 163.27 10.20 164.20 C 9.27 165.13 9.00 164.87 9.00 163.00 Z M 297.00 158.00 C 297.00 156.90 297.41 156.00 297.91 156.00 C 298.40 156.00 298.58 156.90 298.29 158.00 C 298.00 159.10 297.59 160.00 297.38 160.00 C 297.17 160.00 297.00 159.10 297.00 158.00 Z M 105.08 154.42 C 105.13 153.25 105.36 153.01 105.68 153.81 C 105.97 154.53 105.94 155.40 105.60 155.73 C 105.27 156.06 105.04 155.47 105.08 154.42 Z M 334.50 155.06 C 329.22 153.78 325.42 151.23 322.74 147.18 C 319.67 142.55 315.35 132.58 314.85 129.00 C 314.52 126.61 314.70 126.51 319.00 126.82 C 327.01 127.39 330.74 128.86 333.88 132.67 C 337.17 136.66 340.62 145.17 341.61 151.75 C 342.22 155.76 342.12 155.99 339.88 155.90 C 338.57 155.84 336.15 155.47 334.50 155.06 Z M 349.64 155.17 C 348.99 154.03 350.68 142.46 351.79 140.43 C 353.89 136.57 360.73 130.93 367.54 127.44 L 374.50 123.87 L 374.79 130.90 C 375.12 138.66 373.88 142.13 369.24 146.54 C 364.58 150.96 350.71 157.07 349.64 155.17 Z M 296.77 149.75 C 296.53 149.06 296.67 147.38 297.07 146.00 C 297.71 143.82 297.81 143.99 297.90 147.25 C 298.00 151.06 297.57 152.01 296.77 149.75 Z M 200.71 146.00 C 200.42 144.90 200.60 144.00 201.09 144.00 C 201.59 144.00 202.00 144.90 202.00 146.00 C 202.00 147.10 201.83 148.00 201.62 148.00 C 201.41 148.00 201.00 147.10 200.71 146.00 Z M 9.02 144.25 C 9.01 143.01 9.45 142.00 10.00 142.00 C 11.25 142.00 11.25 143.06 10.00 145.00 C 9.22 146.21 9.03 146.07 9.02 144.25 Z M 200.08 140.42 C 200.13 139.25 200.36 139.01 200.68 139.81 C 200.97 140.53 200.94 141.40 200.60 141.73 C 200.27 142.06 200.04 141.47 200.08 140.42 Z M 297.08 140.42 C 297.13 139.25 297.36 139.01 297.68 139.81 C 297.97 140.53 297.94 141.40 297.60 141.73 C 297.27 142.06 297.04 141.47 297.08 140.42 Z M 8.50 130.00 C 8.12 128.82 8.04 127.62 8.32 127.35 C 8.59 127.07 9.12 127.82 9.50 129.00 C 9.88 130.18 9.96 131.38 9.68 131.65 C 9.41 131.93 8.88 131.18 8.50 130.00 Z M 105.08 130.42 C 105.13 129.25 105.36 129.01 105.68 129.81 C 105.97 130.53 105.94 131.40 105.60 131.73 C 105.27 132.06 105.04 131.47 105.08 130.42 Z M 297.08 130.42 C 297.13 129.25 297.36 129.01 297.68 129.81 C 297.97 130.53 297.94 131.40 297.60 131.73 C 297.27 132.06 297.04 131.47 297.08 130.42 Z M 200.08 127.42 C 200.13 126.25 200.36 126.01 200.68 126.81 C 200.97 127.53 200.94 128.40 200.60 128.73 C 200.27 129.06 200.04 128.47 200.08 127.42 Z M 296.54 124.07 C 296.23 123.56 296.42 122.86 296.98 122.51 C 297.54 122.16 298.00 122.58 298.00 123.44 C 298.00 125.20 297.40 125.46 296.54 124.07 Z M 11.11 117.71 C 10.30 116.90 10.00 117.01 10.00 118.13 C 10.00 120.12 11.34 121.47 11.84 119.97 C 12.05 119.34 11.72 118.32 11.11 117.71 Z M 296.90 120.75 C 296.22 119.08 296.35 113.00 297.06 113.00 C 297.58 113.00 298.00 114.80 298.00 117.00 C 298.00 120.23 297.45 122.11 296.90 120.75 Z M 200.00 118.44 C 200.00 117.58 200.46 117.16 201.02 117.51 C 201.58 117.86 201.77 118.56 201.46 119.07 C 200.60 120.46 200.00 120.20 200.00 118.44 Z M 200.61 115.42 C 200.27 114.55 200.04 113.09 200.08 112.17 C 200.13 111.12 200.35 110.97 200.66 111.76 C 200.94 112.45 201.52 112.80 201.94 112.54 C 202.36 112.27 202.50 113.17 202.24 114.53 C 201.69 117.42 201.43 117.56 200.61 115.42 Z M 30.69 111.15 C 30.41 109.69 30.30 108.38 30.44 108.23 C 30.59 108.08 44.61 107.70 61.61 107.39 C 78.60 107.08 93.87 106.41 95.53 105.90 C 97.20 105.40 100.06 103.63 101.88 101.96 L 105.19 98.94 L 109.07 102.44 C 111.20 104.37 113.97 106.20 115.22 106.52 C 116.48 106.83 134.15 106.95 154.50 106.79 C 191.04 106.50 191.54 106.47 194.65 104.25 C 198.61 101.43 198.60 101.43 198.55 104.75 C 198.50 107.34 198.18 107.53 193.00 108.09 C 184.85 108.96 128.06 109.20 117.30 108.41 C 109.26 107.82 108.00 107.48 108.00 105.92 C 108.00 104.93 107.59 103.87 107.10 103.56 C 106.60 103.25 106.24 104.55 106.30 106.44 C 106.35 108.33 106.75 109.65 107.20 109.38 C 107.64 109.11 108.00 109.36 108.00 109.94 C 108.00 110.52 107.33 111.00 106.52 111.00 C 104.49 111.00 103.67 107.05 104.95 103.46 L 106.01 100.50 L 104.01 102.86 C 102.90 104.16 102.00 105.79 102.00 106.48 C 102.00 108.27 95.91 108.76 70.56 109.01 C 42.03 109.29 33.05 109.61 32.29 110.38 C 31.72 110.95 48.50 111.46 53.75 111.04 C 54.99 110.94 56.00 111.36 56.00 111.97 C 56.00 112.74 52.99 112.97 46.25 112.69 C 40.89 112.47 35.31 112.63 33.85 113.05 C 31.52 113.71 31.13 113.48 30.69 111.15 Z M 58.50 112.05 C 56.80 111.36 57.05 111.13 60.17 110.52 C 62.45 110.08 64.53 110.25 65.67 110.97 C 67.34 112.03 67.30 112.10 65.25 111.66 C 64.01 111.40 62.75 111.60 62.44 112.09 C 61.79 113.15 61.21 113.15 58.50 112.05 Z M 80.00 112.05 C 74.78 111.75 70.97 111.19 71.54 110.82 C 73.13 109.78 96.85 109.95 97.50 111.01 C 97.82 111.51 96.82 111.87 95.29 111.80 C 93.75 111.72 91.83 111.88 91.00 112.13 C 90.17 112.39 85.22 112.35 80.00 112.05 Z M 156.67 112.33 C 155.32 110.99 156.07 110.30 159.00 110.22 C 160.65 110.17 162.00 110.58 162.00 111.13 C 162.00 111.67 161.58 111.86 161.07 111.54 C 160.56 111.23 159.86 111.42 159.51 111.98 C 158.79 113.15 157.63 113.30 156.67 112.33 Z M 205.50 112.00 C 205.16 111.45 205.36 111.00 205.94 111.00 C 206.52 111.00 207.00 111.45 207.00 112.00 C 207.00 112.55 206.80 113.00 206.56 113.00 C 206.32 113.00 205.84 112.55 205.50 112.00 Z M 100.50 111.00 C 100.16 110.45 100.33 110.00 100.88 110.00 C 101.43 110.00 102.16 110.45 102.50 111.00 C 102.84 111.55 102.67 112.00 102.12 112.00 C 101.57 112.00 100.84 111.55 100.50 111.00 Z M 110.50 111.00 C 108.78 110.26 108.92 110.13 111.50 110.09 C 113.15 110.06 115.17 110.47 116.00 111.00 C 117.18 111.76 116.97 111.96 115.00 111.91 C 113.62 111.88 111.60 111.47 110.50 111.00 Z M 122.00 110.94 C 122.00 110.36 122.45 110.16 123.00 110.50 C 123.55 110.84 124.00 111.32 124.00 111.56 C 124.00 111.80 123.55 112.00 123.00 112.00 C 122.45 112.00 122.00 111.52 122.00 110.94 Z M 124.50 111.00 C 124.16 110.45 124.58 110.00 125.44 110.00 C 126.30 110.00 127.00 110.45 127.00 111.00 C 127.00 111.55 126.58 112.00 126.06 112.00 C 125.54 112.00 124.84 111.55 124.50 111.00 Z M 132.53 111.04 C 132.17 110.46 133.77 110.11 136.48 110.16 C 142.40 110.28 143.24 111.63 137.52 111.85 C 135.10 111.94 132.86 111.57 132.53 111.04 Z M 143.51 110.98 C 143.86 110.42 144.56 110.23 145.07 110.54 C 146.46 111.40 146.20 112.00 144.44 112.00 C 143.58 112.00 143.16 111.54 143.51 110.98 Z M 147.40 111.17 C 147.88 110.38 154.00 110.79 154.00 111.61 C 154.00 111.83 152.40 112.00 150.44 112.00 C 148.48 112.00 147.11 111.63 147.40 111.17 Z M 163.47 111.04 C 163.80 110.52 164.72 110.34 165.53 110.65 C 167.60 111.44 167.36 112.00 164.94 112.00 C 163.81 112.00 163.15 111.57 163.47 111.04 Z M 168.81 111.32 C 169.53 111.03 170.40 111.06 170.73 111.40 C 171.06 111.73 170.47 111.96 169.42 111.92 C 168.25 111.87 168.01 111.64 168.81 111.32 Z M 175.00 111.61 C 175.00 111.39 175.68 110.95 176.50 110.64 C 177.32 110.32 178.00 110.50 178.00 111.03 C 178.00 111.56 177.32 112.00 176.50 112.00 C 175.68 112.00 175.00 111.82 175.00 111.61 Z M 186.00 111.00 C 186.00 110.45 186.48 110.00 187.06 110.00 C 187.64 110.00 187.84 110.45 187.50 111.00 C 187.16 111.55 186.68 112.00 186.44 112.00 C 186.20 112.00 186.00 111.55 186.00 111.00 Z M 191.00 111.00 C 191.00 110.45 192.01 110.01 193.25 110.02 C 195.07 110.03 195.21 110.22 194.00 111.00 C 192.06 112.25 191.00 112.25 191.00 111.00 Z M 196.00 111.00 C 197.94 109.75 199.00 109.75 199.00 111.00 C 199.00 111.55 197.99 111.99 196.75 111.98 C 194.93 111.97 194.79 111.78 196.00 111.00 Z M 210.25 111.31 C 211.21 111.06 212.79 111.06 213.75 111.31 C 214.71 111.56 213.93 111.77 212.00 111.77 C 210.07 111.77 209.29 111.56 210.25 111.31 Z M 222.00 111.00 C 223.96 109.73 225.28 109.73 224.50 111.00 C 224.16 111.55 223.12 111.99 222.19 111.98 C 220.73 111.97 220.71 111.84 222.00 111.00 Z M 234.50 111.00 C 234.84 110.45 235.57 110.00 236.12 110.00 C 236.67 110.00 236.84 110.45 236.50 111.00 C 236.16 111.55 235.43 112.00 234.88 112.00 C 234.33 112.00 234.16 111.55 234.50 111.00 Z M 246.80 110.80 C 247.73 109.87 248.27 109.87 249.20 110.80 C 250.13 111.73 249.87 112.00 248.00 112.00 C 246.13 112.00 245.87 111.73 246.80 110.80 Z M 267.55 110.59 C 269.51 109.15 271.00 109.36 271.00 111.06 C 271.00 111.58 269.79 112.00 268.31 112.00 C 265.75 112.00 265.71 111.93 267.55 110.59 Z M 274.08 110.42 C 274.13 109.25 274.36 109.01 274.68 109.81 C 274.97 110.53 274.94 111.40 274.60 111.73 C 274.27 112.06 274.04 111.47 274.08 110.42 Z M 392.50 111.00 C 392.84 110.45 393.32 110.00 393.56 110.00 C 393.80 110.00 394.00 110.45 394.00 111.00 C 394.00 111.55 393.52 112.00 392.94 112.00 C 392.36 112.00 392.16 111.55 392.50 111.00 Z M 117.81 110.32 C 118.53 110.03 119.40 110.06 119.73 110.40 C 120.06 110.73 119.47 110.96 118.42 110.92 C 117.25 110.87 117.01 110.64 117.81 110.32 Z M 242.81 110.32 C 243.53 110.03 244.40 110.06 244.73 110.40 C 245.06 110.73 244.47 110.96 243.42 110.92 C 242.25 110.87 242.01 110.64 242.81 110.32 Z M 359.00 110.00 C 359.00 109.45 359.48 109.00 360.06 109.00 C 360.64 109.00 360.84 109.45 360.50 110.00 C 360.16 110.55 359.68 111.00 359.44 111.00 C 359.20 111.00 359.00 110.55 359.00 110.00 Z M 371.75 110.34 C 372.44 110.06 373.56 110.06 374.25 110.34 C 374.94 110.62 374.38 110.84 373.00 110.84 C 371.62 110.84 371.06 110.62 371.75 110.34 Z M 199.82 104.95 C 199.28 99.23 200.22 98.37 203.61 101.52 C 209.80 107.26 209.36 107.21 244.09 106.50 C 266.50 106.05 276.00 106.18 276.00 106.93 C 276.00 107.52 275.44 108.01 274.75 108.03 C 269.92 108.14 209.74 108.23 206.73 108.13 C 203.23 108.01 203.01 107.82 203.59 105.50 C 203.98 103.96 203.79 103.00 203.11 103.00 C 202.50 103.00 202.00 104.10 202.00 105.44 C 202.00 109.61 200.23 109.21 199.82 104.95 Z M 30.42 101.08 C 30.19 100.85 30.00 85.74 30.00 67.49 L 30.00 34.32 L 64.50 33.69 C 83.48 33.35 99.68 33.32 100.50 33.64 C 101.78 34.13 102.00 38.35 102.00 62.96 C 102.00 91.12 101.95 91.77 99.75 95.01 C 96.13 100.34 93.42 100.76 60.55 101.15 C 44.21 101.34 30.65 101.31 30.42 101.08 Z M 115.79 99.87 C 114.30 99.32 112.05 97.20 110.79 95.18 C 108.56 91.60 108.49 90.72 108.19 62.25 L 107.89 33.00 L 152.94 33.00 L 198.00 33.00 L 198.00 61.55 C 198.00 92.33 197.91 92.96 192.52 98.00 L 189.84 100.50 L 154.17 100.70 C 131.96 100.82 117.48 100.51 115.79 99.87 Z M 214.00 100.40 C 209.59 98.79 207.64 97.21 205.91 93.82 C 204.16 90.39 204.00 87.65 204.00 61.04 L 204.00 32.00 L 221.25 32.00 C 230.74 32.00 246.94 31.70 257.25 31.34 L 276.00 30.68 L 276.00 65.34 L 276.00 100.00 L 250.14 100.00 C 235.92 100.00 222.30 100.21 219.89 100.47 C 217.48 100.73 214.82 100.70 214.00 100.40 Z" fill="none" stroke="rgba(255,255,255,0.92)" stroke-width="1.5" stroke-linejoin="round" fill-rule="evenodd"/>
</svg>
