<svg xmlns="http://www.w3.org/2000/svg" viewBox="0 0 100 100" width="100" height="100">
  <path d="M 0.00 50.00 L 0.00 0.00 L 50.00 0.00 L 100.00 0.00 L 100.00 50.00 L 100.00 100.00 L 50.00 100.00 L 0.00 100.00 L 0.00 50.00 Z M 8.45 92.53 C 7.29 89.77 7.00 83.00 7.00 59.03 L 7.00 29.00 L 38.93 29.00 C 68.49 29.00 70.90 29.13 71.37 30.75 C 71.65 31.71 71.76 46.79 71.62 64.25 L 71.37 96.00 L 83.69 96.00 L 96.00 96.00 L 96.00 49.84 L 96.00 3.68 L 67.75 4.33 C 52.21 4.69 31.51 4.99 21.75 4.99 L 4.00 5.00 L 4.00 50.50 L 4.00 96.00 L 6.95 96.00 L 9.90 96.00 L 8.45 92.53 Z" fill="none" stroke="rgba(255,255,255,0.92)" stroke-width="1.2" stroke-linejoin="round" fill-rule="evenodd"/>
</svg>
