<svg xmlns="http://www.w3.org/2000/svg" viewBox="0 0 100 100" width="100" height="100">
  <path d="M 0.00 50.00 L 0.00 0.00 L 50.00 0.00 L 100.00 0.00 L 100.00 50.00 L 100.00 100.00 L 50.00 100.00 L 0.00 100.00 L 0.00 50.00 Z M 80.25 95.22 L 96.00 94.90 L 96.00 83.17 L 96.00 71.43 L 52.00 71.84 L 8.00 72.24 L 7.86 54.87 C 7.78 45.32 7.68 33.00 7.63 27.50 C 7.56 19.29 7.88 17.00 9.42 14.70 C 13.19 9.07 13.72 9.00 52.76 9.00 L 88.63 9.00 L 91.34 11.83 C 92.90 13.46 94.41 16.53 94.91 19.08 C 95.71 23.14 95.79 22.84 95.89 15.37 C 96.05 3.21 99.10 4.00 51.73 4.00 L 12.39 4.00 L 8.20 7.09 L 4.00 10.17 L 4.00 53.12 L 4.00 96.07 L 34.25 95.80 C 50.89 95.65 71.59 95.39 80.25 95.22 Z M 7.00 4.94 C 7.00 4.42 6.34 4.00 5.53 4.00 C 4.64 4.00 4.29 4.59 4.64 5.49 C 5.23 7.03 7.00 6.62 7.00 4.94 Z" fill="none" stroke="rgba(255,255,255,0.92)" stroke-width="1.2" stroke-linejoin="round" fill-rule="evenodd"/>
</svg>
