<svg xmlns="http://www.w3.org/2000/svg" viewBox="0 0 383 400" width="383" height="400">
  <path d="M 0.00 200.00 L 0.00 0.00 L 191.50 0.00 L 383.00 0.00 L 383.00 200.00 L 383.00 400.00 L 191.50 400.00 L 0.00 400.00 L 0.00 200.00 Z M 257.50 393.11 C 282.25 392.56 319.06 392.07 339.30 392.02 C 367.11 391.94 376.19 391.62 376.49 390.71 C 376.70 390.04 377.03 303.25 377.22 197.84 L 377.56 6.18 L 193.28 6.39 C 68.16 6.54 8.66 6.94 7.96 7.64 C 6.39 9.21 7.05 210.15 9.01 325.00 C 9.55 356.62 9.99 385.36 9.99 388.86 L 10.00 395.22 L 111.25 394.66 C 166.94 394.35 232.75 393.65 257.50 393.11 Z M 40.45 362.51 C 39.70 359.96 38.96 280.15 39.68 279.71 C 40.13 279.44 58.44 279.06 80.36 278.86 L 120.22 278.50 L 124.03 282.91 C 126.12 285.33 128.11 288.48 128.45 289.91 C 128.79 291.33 129.34 308.36 129.67 327.75 L 130.27 363.00 L 127.38 363.07 C 100.61 363.69 40.69 363.31 40.45 362.51 Z M 137.80 357.40 C 137.57 354.16 137.41 337.55 137.44 320.50 L 137.50 289.50 L 139.96 285.86 C 144.54 279.10 143.69 279.22 193.00 278.54 C 243.79 277.84 242.34 277.64 246.99 286.00 L 249.50 290.50 L 249.85 325.35 C 250.07 347.38 249.83 360.57 249.21 361.19 C 248.60 361.80 227.22 362.39 193.21 362.74 L 138.20 363.31 L 137.80 357.40 Z M 258.13 360.00 C 257.79 359.18 257.51 340.42 257.51 318.32 L 257.50 278.14 L 260.50 274.95 C 266.12 268.96 266.52 268.91 307.55 268.88 C 328.11 268.86 345.39 269.13 345.95 269.47 C 347.42 270.38 347.08 360.05 345.60 360.54 C 344.99 360.74 325.21 361.04 301.62 361.20 C 264.26 361.46 258.67 361.31 258.13 360.00 Z M 134.00 277.00 C 134.00 276.45 134.43 276.00 134.95 276.00 C 135.48 276.00 136.20 274.43 136.57 272.50 C 136.99 270.26 137.81 268.96 138.86 268.90 C 139.76 268.84 148.15 268.71 157.51 268.61 C 166.86 268.50 175.07 268.07 175.76 267.65 C 176.45 267.22 177.00 267.35 177.00 267.94 C 177.00 269.24 181.66 269.36 182.45 268.08 C 182.77 267.57 182.23 266.94 181.26 266.69 C 179.89 266.33 179.98 266.21 181.69 266.12 C 182.90 266.05 184.17 266.46 184.52 267.03 C 184.92 267.69 194.83 268.05 212.32 268.05 C 227.27 268.04 241.95 268.15 244.95 268.29 C 250.75 268.55 250.71 268.51 250.10 275.07 C 250.04 275.66 248.78 275.30 247.25 274.27 C 240.94 269.98 240.87 269.98 193.68 270.51 C 168.80 270.78 146.98 271.43 145.19 271.95 C 143.40 272.46 140.56 274.03 138.89 275.44 C 135.69 278.13 134.00 278.67 134.00 277.00 Z M 125.24 273.72 L 120.97 270.60 L 80.08 270.84 L 39.20 271.08 L 39.35 267.79 C 39.47 265.12 40.06 264.29 42.50 263.37 C 44.97 262.44 42.87 262.22 30.56 262.09 C 11.79 261.90 10.97 261.72 11.10 257.64 C 11.15 255.91 11.56 253.38 12.00 252.00 C 12.74 249.68 12.81 249.76 12.97 253.00 C 13.11 255.90 13.29 256.16 14.00 254.50 C 15.06 252.02 15.28 237.96 14.25 238.12 C 12.15 238.45 11.00 237.84 11.00 236.38 C 11.00 235.09 11.30 235.00 12.41 235.93 C 14.70 237.82 14.96 233.76 14.51 204.00 C 13.93 166.44 13.86 159.47 14.06 158.41 C 14.53 155.94 13.89 152.95 13.00 153.50 C 12.45 153.84 12.00 153.68 12.00 153.14 C 12.00 152.61 12.53 151.99 13.17 151.78 C 13.86 151.55 14.27 149.58 14.17 146.94 L 14.00 142.50 L 41.75 142.13 C 57.01 141.92 82.10 141.64 97.50 141.49 C 112.90 141.34 125.84 141.17 126.25 141.11 C 126.66 141.05 127.05 140.21 127.12 139.25 C 127.18 138.29 127.57 139.53 127.98 142.00 C 128.39 144.47 128.78 164.05 128.84 185.50 C 128.90 206.95 128.99 232.55 129.05 242.40 C 129.13 256.24 128.85 260.48 127.82 261.13 C 127.10 261.59 118.26 261.98 108.19 261.98 C 91.30 262.00 89.90 262.14 90.17 263.75 C 90.33 264.71 90.02 265.58 89.48 265.69 C 88.94 265.79 88.61 265.00 88.74 263.94 C 88.96 262.16 88.30 262.00 80.88 262.00 C 74.36 262.00 72.89 262.27 73.32 263.40 C 73.97 265.09 68.54 266.16 65.50 264.93 C 63.93 264.30 64.30 264.11 67.19 264.06 C 69.22 264.03 71.16 263.55 71.50 263.00 C 71.86 262.41 70.76 262.01 68.81 262.01 C 64.34 262.03 60.90 263.03 61.57 264.11 C 61.87 264.60 61.43 265.00 60.59 265.00 C 59.64 265.00 59.28 264.43 59.64 263.50 C 59.95 262.68 59.72 262.00 59.11 262.00 C 58.50 262.00 58.00 262.68 58.00 263.50 C 58.00 265.20 56.43 265.51 55.50 264.00 C 55.16 263.45 53.22 263.04 51.19 263.10 C 47.88 263.19 47.75 263.28 50.00 264.00 C 51.91 264.61 51.14 264.82 46.75 264.90 C 41.79 264.99 41.00 265.26 41.00 266.91 C 41.00 268.59 41.78 268.83 47.47 268.88 C 51.81 268.91 54.40 268.45 55.37 267.49 C 56.51 266.35 56.91 266.32 57.30 267.34 C 57.69 268.36 64.05 268.58 87.65 268.39 C 121.23 268.13 129.19 268.64 129.55 271.13 C 129.68 272.02 130.09 273.71 130.46 274.88 C 131.35 277.68 130.35 277.46 125.24 273.72 Z M 132.67 275.33 C 132.30 274.97 132.01 273.95 132.03 273.08 C 132.06 271.78 132.25 271.83 133.12 273.33 C 134.20 275.18 133.89 276.55 132.67 275.33 Z M 251.61 269.27 C 250.54 268.21 250.95 267.00 252.38 267.00 C 253.14 267.00 254.32 266.32 255.00 265.50 C 256.02 264.27 255.95 264.00 254.62 264.00 C 253.62 264.00 253.00 263.16 253.00 261.81 C 253.00 259.67 253.03 259.66 254.47 261.56 C 255.76 263.27 255.91 256.23 255.72 201.75 C 255.60 167.78 255.65 140.45 255.83 141.00 C 256.02 141.55 257.72 142.00 259.63 142.00 L 263.08 142.00 L 260.51 146.40 L 257.93 150.80 L 258.21 201.15 L 258.50 251.50 L 261.25 256.38 C 262.76 259.06 264.00 261.48 264.00 261.75 C 264.00 262.03 262.67 261.98 261.04 261.66 C 259.41 261.33 257.83 261.47 257.52 261.96 C 257.22 262.45 257.99 263.03 259.24 263.25 C 261.42 263.63 261.41 263.68 258.75 264.80 C 257.24 265.43 256.00 266.30 256.00 266.73 C 256.00 267.87 252.33 269.99 251.61 269.27 Z M 100.21 265.46 C 99.15 264.25 99.19 264.00 100.46 264.00 C 101.31 264.00 102.00 264.68 102.00 265.50 C 102.00 267.32 101.85 267.32 100.21 265.46 Z M 145.00 266.00 C 145.00 265.45 146.24 265.03 147.75 265.07 C 150.19 265.13 150.27 265.24 148.50 266.00 C 145.77 267.17 145.00 267.17 145.00 266.00 Z M 153.50 266.00 C 153.84 265.45 154.57 265.00 155.12 265.00 C 155.67 265.00 155.84 265.45 155.50 266.00 C 155.16 266.55 154.43 267.00 153.88 267.00 C 153.33 267.00 153.16 266.55 153.50 266.00 Z M 210.32 265.54 C 210.51 264.97 211.27 264.50 212.00 264.50 C 212.73 264.50 213.49 264.97 213.68 265.54 C 213.87 266.11 213.11 266.57 212.00 266.57 C 210.89 266.57 210.13 266.11 210.32 265.54 Z M 215.98 265.48 C 214.17 263.30 215.27 262.74 219.14 263.85 C 220.99 264.38 221.71 264.86 220.75 264.91 C 219.79 264.96 219.00 265.45 219.00 266.00 C 219.00 267.49 217.42 267.21 215.98 265.48 Z M 247.48 265.71 C 246.69 263.77 247.31 262.58 248.80 263.15 C 249.31 263.34 249.39 264.40 248.97 265.50 C 248.27 267.37 248.17 267.38 247.48 265.71 Z M 93.00 265.00 C 91.79 264.22 91.93 264.03 93.75 264.02 C 94.99 264.01 96.00 264.45 96.00 265.00 C 96.00 266.25 94.94 266.25 93.00 265.00 Z M 104.50 265.00 C 104.16 264.45 104.61 264.00 105.50 264.00 C 106.39 264.00 106.84 264.45 106.50 265.00 C 106.16 265.55 105.71 266.00 105.50 266.00 C 105.29 266.00 104.84 265.55 104.50 265.00 Z M 139.17 265.12 C 138.10 264.45 138.17 264.15 139.51 263.64 C 141.49 262.88 143.28 263.75 142.46 265.07 C 141.75 266.21 140.90 266.23 139.17 265.12 Z M 186.46 264.93 C 186.10 264.35 186.04 263.63 186.33 263.33 C 187.05 262.62 189.00 263.88 189.00 265.06 C 189.00 266.34 187.27 266.25 186.46 264.93 Z M 201.25 265.29 C 200.01 265.06 199.00 264.39 199.00 263.82 C 199.00 263.25 199.71 263.06 200.58 263.39 C 201.45 263.73 203.28 264.00 204.64 264.00 C 206.04 264.00 206.85 264.44 206.50 265.00 C 205.87 266.02 205.21 266.06 201.25 265.29 Z M 242.00 265.00 C 242.00 264.45 242.45 264.00 243.00 264.00 C 243.55 264.00 244.00 264.45 244.00 265.00 C 244.00 265.55 243.55 266.00 243.00 266.00 C 242.45 266.00 242.00 265.55 242.00 265.00 Z M 251.50 265.00 C 251.16 264.45 251.36 264.00 251.94 264.00 C 252.52 264.00 253.00 264.45 253.00 265.00 C 253.00 265.55 252.80 266.00 252.56 266.00 C 252.32 266.00 251.84 265.55 251.50 265.00 Z M 76.50 264.00 C 79.28 262.81 82.00 262.81 82.00 264.00 C 82.00 264.55 80.31 264.97 78.25 264.93 C 75.24 264.87 74.90 264.69 76.50 264.00 Z M 118.00 263.97 C 114.85 263.28 115.02 263.21 119.75 263.28 C 122.64 263.32 125.00 263.73 125.00 264.18 C 125.00 265.12 122.98 265.06 118.00 263.97 Z M 162.50 264.00 C 162.84 263.45 163.74 263.00 164.50 263.00 C 165.26 263.00 166.16 263.45 166.50 264.00 C 166.85 264.57 165.99 265.00 164.50 265.00 C 163.01 265.00 162.15 264.57 162.50 264.00 Z M 190.17 263.42 C 190.41 262.01 189.97 261.55 188.50 261.71 C 183.61 262.21 138.02 262.13 137.19 261.61 C 136.67 261.30 136.20 252.38 136.12 241.77 C 136.05 231.17 135.84 203.73 135.66 180.79 C 135.43 150.82 135.64 139.46 136.42 140.43 C 137.30 141.53 147.67 141.75 193.50 141.64 L 249.50 141.50 L 249.50 201.23 L 249.50 260.95 L 247.00 261.43 C 245.62 261.69 233.45 261.86 219.95 261.80 C 197.78 261.71 195.12 261.87 192.61 263.52 C 189.91 265.29 189.84 265.29 190.17 263.42 Z M 110.81 263.32 C 111.53 263.03 112.40 263.06 112.73 263.40 C 113.06 263.73 112.47 263.96 111.42 263.92 C 110.25 263.87 110.01 263.64 110.81 263.32 Z M 178.81 263.32 C 179.53 263.03 180.40 263.06 180.73 263.40 C 181.06 263.73 180.47 263.96 179.42 263.92 C 178.25 263.87 178.01 263.64 178.81 263.32 Z M 277.21 260.29 C 275.96 260.05 273.20 258.20 271.09 256.18 C 265.25 250.59 265.00 248.15 265.00 197.60 C 265.00 153.30 265.00 153.30 267.25 149.98 C 268.49 148.16 271.30 145.73 273.50 144.59 C 277.33 142.59 278.97 142.50 312.00 142.50 L 346.50 142.50 L 346.64 197.88 C 346.71 228.33 346.54 255.00 346.26 257.13 L 345.74 261.00 L 312.62 260.86 C 294.40 260.79 278.47 260.53 277.21 260.29 Z M 14.86 257.12 C 14.64 256.49 13.95 256.41 13.12 256.92 C 12.36 257.39 12.08 258.32 12.48 258.98 C 13.36 260.39 15.43 258.78 14.86 257.12 Z M 252.00 257.56 C 252.00 256.70 252.45 256.00 253.00 256.00 C 253.55 256.00 254.00 256.42 254.00 256.94 C 254.00 257.46 253.55 258.16 253.00 258.50 C 252.45 258.84 252.00 258.42 252.00 257.56 Z M 252.20 214.50 C 252.24 192.50 252.57 176.70 252.95 179.39 C 253.32 182.08 253.55 197.13 253.46 212.82 C 253.37 228.52 253.63 242.85 254.04 244.68 C 254.50 246.73 254.41 248.00 253.79 248.00 C 253.24 248.00 253.00 248.56 253.25 249.25 C 253.51 249.94 253.37 251.40 252.93 252.50 C 252.50 253.60 252.17 236.50 252.20 214.50 Z M 11.00 246.94 C 11.00 245.81 11.43 245.15 11.96 245.47 C 12.48 245.80 12.66 246.72 12.35 247.53 C 11.56 249.60 11.00 249.36 11.00 246.94 Z M 132.00 244.00 C 132.00 242.18 132.42 241.14 133.00 241.50 C 133.55 241.84 134.00 242.96 134.00 244.00 C 134.00 245.04 133.55 246.16 133.00 246.50 C 132.42 246.86 132.00 245.82 132.00 244.00 Z M 11.00 241.44 C 11.00 240.58 11.46 240.16 12.02 240.51 C 12.58 240.86 12.77 241.56 12.46 242.07 C 11.60 243.46 11.00 243.20 11.00 241.44 Z M 132.00 238.12 C 132.00 237.57 132.45 236.84 133.00 236.50 C 133.55 236.16 134.00 236.33 134.00 236.88 C 134.00 237.43 133.55 238.16 133.00 238.50 C 132.45 238.84 132.00 238.67 132.00 238.12 Z M 12.00 232.00 C 12.00 231.45 12.45 231.00 13.00 231.00 C 13.55 231.00 14.00 231.45 14.00 232.00 C 14.00 232.55 13.55 233.00 13.00 233.00 C 12.45 233.00 12.00 232.55 12.00 232.00 Z M 132.08 231.42 C 132.13 230.25 132.36 230.01 132.68 230.81 C 132.97 231.53 132.94 232.40 132.60 232.73 C 132.27 233.06 132.04 232.47 132.08 231.42 Z M 11.07 225.25 C 11.13 222.81 11.24 222.73 12.00 224.50 C 13.17 227.23 13.17 228.00 12.00 228.00 C 11.45 228.00 11.03 226.76 11.07 225.25 Z M 11.65 215.53 C 11.34 214.72 11.52 213.80 12.04 213.47 C 12.57 213.15 13.00 213.81 13.00 214.94 C 13.00 217.36 12.44 217.60 11.65 215.53 Z M 11.42 199.61 C 11.47 192.47 11.79 189.66 12.43 190.80 C 13.52 192.74 13.28 206.67 12.13 208.73 C 11.71 209.49 11.39 205.38 11.42 199.61 Z M 11.00 185.62 C 11.00 184.24 11.45 182.84 12.00 182.50 C 12.56 182.15 13.00 182.97 13.00 184.38 C 13.00 185.76 12.55 187.16 12.00 187.50 C 11.44 187.85 11.00 187.03 11.00 185.62 Z M 11.00 177.62 C 11.00 175.69 11.45 173.84 12.00 173.50 C 12.59 173.13 13.00 174.30 13.00 176.38 C 13.00 178.31 12.55 180.16 12.00 180.50 C 11.41 180.87 11.00 179.70 11.00 177.62 Z M 132.62 180.20 C 132.35 179.76 132.55 178.75 133.05 177.95 C 133.77 176.82 133.97 176.99 133.98 178.75 C 134.00 181.06 133.49 181.61 132.62 180.20 Z M 132.19 174.50 C 132.22 172.85 132.44 172.30 132.69 173.27 C 132.95 174.24 132.93 175.59 132.66 176.27 C 132.38 176.95 132.17 176.15 132.19 174.50 Z M 252.27 170.00 C 252.27 167.53 252.47 166.51 252.71 167.75 C 252.94 168.99 252.94 171.01 252.71 172.25 C 252.47 173.49 252.27 172.47 252.27 170.00 Z M 133.16 160.00 C 133.16 158.62 133.38 158.06 133.66 158.75 C 133.94 159.44 133.94 160.56 133.66 161.25 C 133.38 161.94 133.16 161.38 133.16 160.00 Z M 12.08 158.42 C 12.13 157.25 12.36 157.01 12.68 157.81 C 12.97 158.53 12.94 159.40 12.60 159.73 C 12.27 160.06 12.04 159.47 12.08 158.42 Z M 252.29 154.50 C 252.29 151.75 252.49 150.74 252.72 152.26 C 252.95 153.78 252.94 156.03 252.70 157.26 C 252.47 158.49 252.28 157.25 252.29 154.50 Z M 10.00 156.00 C 10.00 154.13 10.27 153.87 11.20 154.80 C 12.13 155.73 12.13 156.27 11.20 157.20 C 10.27 158.13 10.00 157.87 10.00 156.00 Z M 131.08 151.42 C 131.13 150.25 131.36 150.01 131.68 150.81 C 131.97 151.53 131.94 152.40 131.60 152.73 C 131.27 153.06 131.04 152.47 131.08 151.42 Z M 10.08 147.42 C 10.13 146.25 10.36 146.01 10.68 146.81 C 10.97 147.53 10.94 148.40 10.60 148.73 C 10.27 149.06 10.04 148.47 10.08 147.42 Z M 251.16 147.00 C 251.16 145.62 251.38 145.06 251.66 145.75 C 251.94 146.44 251.94 147.56 251.66 148.25 C 251.38 148.94 251.16 148.38 251.16 147.00 Z M 252.13 143.00 C 252.14 139.90 253.48 136.30 254.15 137.57 C 254.42 138.08 254.07 140.07 253.37 142.00 C 252.30 144.98 252.11 145.13 252.13 143.00 Z M 261.25 140.23 C 259.25 139.90 259.16 139.69 260.50 138.36 C 262.84 136.02 262.28 134.73 259.12 135.20 L 256.24 135.62 L 255.74 128.59 C 255.46 124.73 255.14 106.25 255.02 87.53 C 254.90 68.81 254.69 50.22 254.54 46.21 C 254.36 41.20 254.62 39.04 255.39 39.29 C 256.17 39.56 256.65 52.23 257.00 82.08 C 257.55 128.92 257.19 126.31 264.32 135.38 C 267.33 139.20 267.34 139.24 264.93 138.56 C 263.28 138.09 262.94 138.17 263.86 138.81 C 265.56 139.99 264.21 140.72 261.25 140.23 Z M 10.08 138.42 C 10.13 137.25 10.36 137.01 10.68 137.81 C 10.97 138.53 10.94 139.40 10.60 139.73 C 10.27 140.06 10.04 139.47 10.08 138.42 Z M 230.50 139.00 C 230.16 138.45 230.36 138.00 230.94 138.00 C 231.52 138.00 232.00 138.45 232.00 139.00 C 232.00 139.55 231.80 140.00 231.56 140.00 C 231.32 140.00 230.84 139.55 230.50 139.00 Z M 26.50 138.00 C 26.16 137.45 26.61 137.00 27.50 137.00 C 28.39 137.00 28.84 137.45 28.50 138.00 C 28.16 138.55 27.71 139.00 27.50 139.00 C 27.29 139.00 26.84 138.55 26.50 138.00 Z M 13.63 126.75 C 13.70 121.11 13.55 118.48 13.31 120.90 L 12.87 125.30 L 11.44 122.54 C 9.81 119.41 9.40 107.00 10.97 108.57 C 11.51 109.11 12.09 110.53 12.28 111.75 C 13.10 117.16 14.00 114.61 13.97 106.92 C 13.94 99.57 13.76 98.73 12.56 100.31 C 11.81 101.31 10.95 101.72 10.64 101.23 C 9.73 99.75 11.14 96.00 12.62 96.00 C 13.45 96.00 14.00 94.93 14.00 93.31 C 14.00 90.74 13.94 90.70 12.57 92.56 C 11.23 94.39 11.10 94.40 10.45 92.72 C 9.99 91.53 10.48 90.32 11.92 89.07 C 14.05 87.22 14.07 86.77 14.00 55.35 C 13.96 37.83 13.94 21.45 13.96 18.94 L 14.00 14.39 L 22.25 14.30 C 37.54 14.13 122.48 13.80 125.19 13.90 L 127.88 14.00 L 128.00 52.25 C 128.16 105.16 128.19 129.06 128.08 132.00 L 127.99 134.50 L 72.25 134.81 C 39.44 135.00 16.11 135.51 15.55 136.06 C 13.70 137.88 13.50 136.90 13.63 126.75 Z M 252.02 133.00 C 251.42 125.73 251.52 110.80 252.17 110.39 C 253.10 109.82 253.64 125.32 252.91 131.50 C 252.38 135.91 252.28 136.09 252.02 133.00 Z M 10.12 130.81 C 10.05 128.23 10.45 125.84 11.00 125.50 C 12.14 124.80 12.14 128.02 11.00 132.50 C 10.31 135.19 10.22 135.02 10.12 130.81 Z M 135.22 115.50 C 135.22 105.05 135.13 85.03 135.03 71.00 C 134.93 56.98 134.88 38.30 134.92 29.50 L 135.00 13.50 L 191.24 13.82 C 222.17 14.00 247.58 14.24 247.70 14.37 C 247.82 14.49 248.20 41.60 248.54 74.61 L 249.16 134.64 L 192.19 134.57 L 135.23 134.50 L 135.22 115.50 Z M 283.00 134.25 C 273.43 133.72 268.82 130.76 265.87 123.26 C 265.19 121.52 264.60 105.56 264.28 79.91 L 263.76 39.33 L 304.52 38.69 C 326.93 38.34 345.66 38.29 346.12 38.58 C 347.13 39.20 347.13 129.66 346.12 132.30 C 345.49 133.97 343.33 134.11 316.47 134.30 C 300.54 134.41 285.48 134.39 283.00 134.25 Z M 131.08 118.42 C 131.13 117.25 131.36 117.01 131.68 117.81 C 131.97 118.53 131.94 119.40 131.60 119.73 C 131.27 120.06 131.04 119.47 131.08 118.42 Z M 252.08 107.42 C 252.13 106.25 252.36 106.01 252.68 106.81 C 252.97 107.53 252.94 108.40 252.60 108.73 C 252.27 109.06 252.04 108.47 252.08 107.42 Z M 251.00 82.06 C 251.00 80.99 251.40 79.87 251.89 79.57 C 252.39 79.26 252.72 80.13 252.64 81.51 C 252.48 84.42 251.00 84.92 251.00 82.06 Z M 131.16 81.00 C 131.16 79.62 131.38 79.06 131.66 79.75 C 131.94 80.44 131.94 81.56 131.66 82.25 C 131.38 82.94 131.16 82.38 131.16 81.00 Z M 131.19 72.50 C 131.22 70.85 131.44 70.30 131.69 71.27 C 131.95 72.24 131.93 73.59 131.66 74.27 C 131.38 74.95 131.17 74.15 131.19 72.50 Z M 251.11 55.92 C 251.18 45.94 251.53 40.06 251.94 42.15 C 252.73 46.19 252.39 71.94 251.54 72.79 C 251.24 73.09 251.05 65.50 251.11 55.92 Z M 131.16 64.00 C 131.16 62.62 131.38 62.06 131.66 62.75 C 131.94 63.44 131.94 64.56 131.66 65.25 C 131.38 65.94 131.16 65.38 131.16 64.00 Z M 9.50 59.00 C 9.16 58.45 9.36 58.00 9.94 58.00 C 10.52 58.00 11.00 58.45 11.00 59.00 C 11.00 59.55 10.80 60.00 10.56 60.00 C 10.32 60.00 9.84 59.55 9.50 59.00 Z M 131.08 55.42 C 131.13 54.25 131.36 54.01 131.68 54.81 C 131.97 55.53 131.94 56.40 131.60 56.73 C 131.27 57.06 131.04 56.47 131.08 55.42 Z M 10.67 55.33 C 10.30 54.97 10.00 51.59 10.00 47.83 C 10.00 42.66 10.34 41.00 11.39 41.00 C 12.51 41.00 12.60 41.82 11.87 45.10 C 11.36 47.35 11.23 50.73 11.58 52.60 C 12.21 55.95 11.98 56.65 10.67 55.33 Z M 130.50 39.00 C 130.84 38.45 131.32 38.00 131.56 38.00 C 131.80 38.00 132.00 38.45 132.00 39.00 C 132.00 39.55 131.52 40.00 130.94 40.00 C 130.36 40.00 130.16 39.55 130.50 39.00 Z M 130.84 25.43 C 130.64 22.91 130.81 20.32 131.22 19.68 C 131.63 19.03 131.98 21.09 131.98 24.25 C 132.00 31.14 131.35 31.81 130.84 25.43 Z M 10.00 27.06 C 10.00 24.64 10.56 24.40 11.35 26.47 C 11.66 27.28 11.48 28.20 10.96 28.53 C 10.43 28.85 10.00 28.19 10.00 27.06 Z M 10.58 20.13 C 10.15 19.44 10.07 18.60 10.40 18.27 C 11.29 17.37 12.27 18.69 11.79 20.14 C 11.45 21.15 11.21 21.15 10.58 20.13 Z M 12.50 12.00 C 12.84 11.45 13.32 11.00 13.56 11.00 C 13.80 11.00 14.00 11.45 14.00 12.00 C 14.00 12.55 13.52 13.00 12.94 13.00 C 12.36 13.00 12.16 12.55 12.50 12.00 Z M 244.00 11.11 C 244.00 10.62 244.71 9.94 245.58 9.61 C 247.82 8.75 248.00 8.82 248.00 10.50 C 248.00 11.33 247.11 12.00 246.00 12.00 C 244.90 12.00 244.00 11.60 244.00 11.11 Z M 103.50 10.00 C 103.16 9.45 103.36 9.00 103.94 9.00 C 104.52 9.00 105.00 9.45 105.00 10.00 C 105.00 10.55 104.80 11.00 104.56 11.00 C 104.32 11.00 103.84 10.55 103.50 10.00 Z M 115.51 9.98 C 115.86 9.42 116.56 9.23 117.07 9.54 C 118.46 10.40 118.20 11.00 116.44 11.00 C 115.58 11.00 115.16 10.54 115.51 9.98 Z M 239.81 9.32 C 240.53 9.03 241.40 9.06 241.73 9.40 C 242.06 9.73 241.47 9.96 240.42 9.92 C 239.25 9.87 239.01 9.64 239.81 9.32 Z" fill="none" stroke="rgba(255,255,255,0.92)" stroke-width="1.5" stroke-linejoin="round" fill-rule="evenodd"/>
</svg>
