<svg xmlns="http://www.w3.org/2000/svg" viewBox="0 0 100 100" width="100" height="100">
  <path d="M 0.00 50.00 L 0.00 0.00 L 50.00 0.00 L 100.00 0.00 L 100.00 50.00 L 100.00 100.00 L 50.00 100.00 L 0.00 100.00 L 0.00 50.00 Z M 96.00 49.91 L 96.00 3.81 L 91.25 4.37 C 88.64 4.68 67.94 5.23 45.25 5.59 L 4.00 6.24 L 4.00 18.27 L 4.00 30.30 L 39.75 29.90 L 75.50 29.50 L 75.76 61.75 L 76.03 94.00 L 43.76 93.98 C 8.19 93.95 9.12 94.11 5.65 87.50 L 4.08 84.50 L 4.04 90.25 L 4.00 96.00 L 50.00 96.00 L 96.00 96.00 L 96.00 49.91 Z" fill="none" stroke="rgba(255,255,255,0.92)" stroke-width="1.2" stroke-linejoin="round" fill-rule="evenodd"/>
</svg>
