<svg xmlns="http://www.w3.org/2000/svg" viewBox="0 0 100 100" width="100" height="100">
  <path d="M 0.00 50.00 L 0.00 0.00 L 50.00 0.00 L 100.00 0.00 L 100.00 50.00 L 100.00 100.00 L 50.00 100.00 L 0.00 100.00 L 0.00 50.00 Z M 96.00 92.41 L 96.00 88.82 L 93.11 91.26 C 90.24 93.67 89.96 93.70 63.36 94.27 C 48.59 94.58 31.87 94.71 26.21 94.56 C 16.97 94.30 15.65 94.03 13.33 91.89 C 8.34 87.28 8.00 85.09 8.00 57.03 L 8.00 31.00 L 52.00 31.00 L 96.00 31.00 L 96.00 18.70 L 96.00 6.41 L 89.75 6.69 C 86.31 6.84 65.61 7.26 43.75 7.60 L 4.00 8.23 L 4.00 50.21 L 4.00 92.18 L 6.25 94.06 C 8.37 95.83 10.95 95.94 52.25 95.97 L 96.00 96.00 L 96.00 92.41 Z" fill="none" stroke="rgba(255,255,255,0.92)" stroke-width="1.2" stroke-linejoin="round" fill-rule="evenodd"/>
</svg>
