<svg xmlns="http://www.w3.org/2000/svg" viewBox="0 0 383 400" width="383" height="400">
  <path d="M 0.00 200.00 L 0.00 0.00 L 191.50 0.00 L 383.00 0.00 L 383.00 200.00 L 383.00 400.00 L 191.50 400.00 L 0.00 400.00 L 0.00 200.00 Z M 77.50 391.56 C 98.40 391.20 147.00 390.71 185.50 390.48 C 224.00 390.26 256.62 390.04 258.00 390.00 C 259.38 389.96 269.50 389.92 280.50 389.90 C 291.50 389.89 309.95 389.64 321.50 389.36 C 333.05 389.07 350.04 388.76 359.25 388.67 C 369.57 388.57 376.03 388.12 376.08 387.50 C 376.13 386.95 376.11 382.90 376.03 378.50 C 375.95 374.10 375.90 335.18 375.90 292.00 C 375.91 248.82 375.67 212.69 375.38 211.71 C 375.01 210.47 374.24 210.11 372.92 210.53 C 371.55 210.96 371.00 210.66 371.00 209.46 C 371.00 208.42 371.54 207.99 372.43 208.33 C 373.21 208.63 374.36 208.27 374.97 207.53 C 375.79 206.54 375.88 179.86 375.30 107.34 L 374.50 8.50 L 371.00 8.62 C 369.07 8.68 323.62 9.26 270.00 9.90 C 107.31 11.84 10.83 13.65 10.13 14.78 C 9.43 15.92 10.42 153.72 11.41 192.00 C 11.76 205.47 12.25 229.32 12.50 245.00 C 12.75 260.68 13.19 280.02 13.47 288.00 C 13.76 295.98 14.25 317.35 14.57 335.50 C 14.89 353.65 15.29 373.68 15.47 380.00 L 15.79 391.50 L 20.14 392.00 C 22.54 392.27 27.88 392.44 32.00 392.37 C 36.12 392.30 56.60 391.93 77.50 391.56 Z M 26.75 387.31 C 25.79 387.06 25.00 386.44 25.00 385.93 C 25.00 385.42 24.13 385.00 23.07 385.00 C 20.63 385.00 19.53 381.74 21.03 378.94 C 22.30 376.56 21.48 371.58 19.97 372.52 C 19.44 372.85 19.00 372.42 19.00 371.56 C 19.00 370.70 19.54 370.11 20.19 370.25 C 22.08 370.65 22.29 367.29 20.60 363.89 C 19.50 361.69 19.33 360.25 20.02 358.96 C 21.34 356.50 21.31 348.69 19.98 349.51 C 19.31 349.93 19.01 346.24 19.11 338.68 C 19.19 332.38 19.03 326.83 18.77 326.36 C 18.50 325.89 18.87 324.15 19.59 322.50 C 20.86 319.61 20.91 319.73 20.95 325.81 C 21.00 332.45 22.34 333.46 23.29 327.58 C 23.96 323.49 22.74 318.40 21.18 318.74 C 19.78 319.04 18.54 312.57 19.55 310.26 C 20.13 308.95 20.49 309.58 20.98 312.73 C 22.49 322.59 23.04 316.90 22.78 293.94 C 22.56 275.04 22.22 269.56 21.25 269.75 C 20.54 269.89 20.00 269.01 20.00 267.70 C 20.00 266.44 19.44 264.84 18.75 264.15 C 18.06 263.46 17.42 260.11 17.33 256.70 C 17.24 253.29 16.86 243.73 16.49 235.45 C 15.91 222.63 16.04 220.21 17.34 219.14 C 18.64 218.05 18.99 218.48 19.82 222.19 L 20.79 226.50 L 20.89 220.25 C 20.98 215.04 20.72 214.00 19.33 214.00 C 18.42 214.00 18.00 213.66 18.41 213.25 C 18.83 212.84 27.16 212.28 36.93 212.00 C 56.81 211.44 58.42 210.95 56.97 205.88 C 56.47 204.14 56.48 201.85 57.01 200.47 L 57.92 198.08 L 98.21 197.99 C 143.44 197.90 170.79 196.82 176.00 194.93 C 177.93 194.23 182.73 191.53 186.68 188.93 C 194.16 183.99 196.49 183.42 192.39 187.52 C 190.79 189.12 190.00 191.05 190.00 193.38 C 190.00 198.09 187.82 200.00 182.46 200.00 C 179.24 200.00 178.20 200.35 178.57 201.31 C 178.84 202.04 178.08 203.50 176.87 204.56 C 174.95 206.24 174.74 206.27 175.29 204.78 C 175.63 203.84 175.46 202.78 174.91 202.44 C 174.25 202.03 174.24 201.42 174.89 200.63 C 175.65 199.72 169.24 199.51 147.19 199.70 C 89.75 200.21 61.24 200.73 60.34 201.29 C 59.83 201.60 59.49 203.80 59.58 206.18 L 59.75 210.50 L 63.62 210.39 C 65.76 210.32 68.85 210.23 70.50 210.17 C 72.15 210.11 77.55 210.12 82.50 210.18 C 99.20 210.38 178.46 209.01 183.75 208.43 L 189.00 207.86 L 189.05 232.18 C 189.08 245.56 189.29 266.40 189.51 278.50 C 190.73 346.16 191.02 377.78 190.44 379.29 C 190.08 380.23 189.16 381.00 188.39 381.00 C 187.63 381.00 187.00 381.90 187.00 383.00 C 187.00 384.20 186.30 385.04 185.25 385.10 C 180.13 385.39 169.70 385.03 169.22 384.55 C 168.92 384.25 170.29 384.00 172.27 384.00 C 174.26 384.00 176.16 383.55 176.50 383.00 C 176.90 382.35 172.14 382.07 162.81 382.19 C 154.94 382.29 151.09 382.54 154.25 382.74 C 161.09 383.17 161.76 384.49 155.58 385.33 C 148.72 386.27 138.05 385.03 138.69 383.36 C 139.06 382.40 138.33 382.00 136.19 382.00 C 132.37 382.00 129.85 382.94 130.56 384.10 C 130.87 384.60 127.52 385.00 123.00 385.00 C 118.32 385.00 115.12 384.61 115.45 384.08 C 115.76 383.58 114.78 382.89 113.26 382.56 C 109.74 381.80 32.25 382.73 30.91 383.55 C 30.37 383.89 30.19 385.03 30.53 386.08 C 31.14 388.03 30.41 388.27 26.75 387.31 Z M 35.52 387.03 C 34.68 385.67 39.37 384.66 42.18 385.59 L 44.50 386.35 L 42.00 387.08 C 38.33 388.14 36.20 388.13 35.52 387.03 Z M 211.10 386.09 L 208.69 384.00 L 211.10 383.98 C 212.42 383.98 214.18 383.49 215.00 382.91 C 216.09 382.15 215.14 382.04 211.50 382.52 C 208.75 382.89 206.00 383.60 205.39 384.10 C 204.67 384.69 203.38 384.11 201.73 382.45 C 199.55 380.28 199.30 379.44 200.05 376.83 C 200.53 375.15 200.74 370.11 200.51 365.64 C 200.29 361.16 200.08 356.62 200.05 355.55 C 200.02 354.32 199.65 353.95 199.05 354.55 C 198.15 355.46 197.35 363.41 197.95 365.50 C 198.11 366.05 198.14 369.20 198.03 372.50 C 197.85 377.77 197.72 378.13 196.93 375.50 C 196.44 373.85 196.27 371.75 196.56 370.83 C 196.85 369.92 196.61 368.88 196.04 368.53 C 195.39 368.12 195.05 362.74 195.14 354.19 C 195.21 346.66 195.49 341.62 195.76 343.00 C 196.22 345.33 196.30 345.37 197.05 343.50 C 197.69 341.93 197.87 342.30 197.93 345.19 C 197.97 347.22 198.45 349.16 199.00 349.50 C 200.24 350.26 200.24 339.38 199.00 336.50 C 198.27 334.79 198.13 334.75 198.07 336.25 C 198.03 337.21 197.32 338.00 196.50 338.00 C 195.27 338.00 195.00 336.29 195.00 328.58 C 195.00 323.40 194.73 318.45 194.39 317.58 C 194.06 316.71 194.28 316.00 194.89 316.00 C 195.50 316.00 196.01 317.24 196.02 318.75 C 196.03 320.71 196.28 321.10 196.91 320.12 C 197.46 319.24 197.81 321.02 197.87 325.05 C 197.92 328.52 198.43 331.83 199.01 332.41 C 199.75 333.15 200.01 327.01 199.87 311.98 C 199.76 300.17 199.48 289.94 199.23 289.25 C 198.99 288.56 197.88 288.00 196.78 288.00 C 195.24 288.00 194.89 287.51 195.30 285.96 C 195.60 284.83 195.51 282.70 195.11 281.21 C 194.11 277.48 195.19 272.50 197.00 272.50 C 197.81 272.50 198.63 271.67 198.83 270.65 C 199.12 269.15 198.77 268.94 196.95 269.52 C 194.97 270.15 194.78 269.95 195.34 267.86 C 195.69 266.56 195.98 263.59 195.99 261.25 C 196.00 258.39 196.41 257.08 197.25 257.25 C 198.12 257.42 198.50 255.97 198.50 252.50 C 198.50 249.03 198.12 247.58 197.25 247.75 C 196.56 247.89 196.00 247.55 196.00 247.00 C 196.00 246.45 196.41 246.00 196.91 246.00 C 198.67 246.00 199.24 238.30 197.67 235.83 C 195.71 232.74 194.73 225.88 195.97 224.00 C 196.76 222.82 196.97 223.07 196.98 225.19 C 196.99 226.67 197.45 228.16 198.00 228.50 C 199.55 229.46 199.12 224.75 197.47 222.56 C 195.78 220.33 195.52 216.41 197.00 215.50 C 197.55 215.16 198.00 213.81 198.00 212.50 C 198.00 211.19 198.47 209.83 199.04 209.47 C 199.61 209.12 214.58 208.67 232.29 208.46 C 250.01 208.26 287.23 207.84 315.00 207.52 L 365.50 206.94 L 365.83 291.52 C 366.08 356.26 365.87 376.45 364.96 377.55 C 364.30 378.35 362.35 379.01 360.63 379.02 C 358.24 379.03 357.86 379.26 359.00 380.00 C 359.82 380.53 361.74 380.98 363.25 380.98 C 364.76 380.99 366.00 381.34 366.00 381.75 C 365.99 382.39 357.81 382.62 351.56 382.15 C 349.64 382.00 349.64 381.98 351.56 380.44 C 353.37 378.99 353.20 378.92 349.00 379.44 C 346.52 379.75 340.00 380.07 334.50 380.15 C 323.38 380.32 322.38 380.55 324.07 382.59 C 325.83 384.71 323.14 384.44 320.72 382.25 C 318.99 380.68 316.02 380.49 291.64 380.42 C 276.71 380.37 263.38 380.63 262.00 380.99 C 258.20 381.98 259.50 383.49 264.26 383.60 C 270.50 383.76 271.08 384.19 266.00 384.88 C 260.06 385.70 249.00 385.06 249.00 383.91 C 249.00 383.41 250.01 382.99 251.25 382.98 C 252.49 382.98 254.10 382.59 254.83 382.12 C 256.98 380.76 254.24 380.17 248.36 380.74 C 244.26 381.13 243.33 381.55 243.66 382.87 C 244.48 386.14 235.40 388.39 233.00 385.50 C 232.32 384.68 230.97 384.00 230.00 384.00 C 229.03 384.00 227.68 384.68 227.00 385.50 C 225.38 387.45 223.37 387.41 222.61 385.42 C 221.73 383.12 221.80 383.00 224.00 383.00 C 225.10 383.00 226.00 382.55 226.00 382.00 C 226.00 381.45 225.13 381.00 224.07 381.00 C 220.99 381.00 216.82 382.90 217.50 384.00 C 217.84 384.55 217.22 385.00 216.13 385.00 C 215.04 385.00 214.00 385.72 213.82 386.59 C 213.55 387.95 213.15 387.88 211.10 386.09 Z M 50.00 386.00 C 50.00 385.45 50.67 385.00 51.50 385.00 C 52.33 385.00 53.00 385.45 53.00 386.00 C 53.00 386.55 52.33 387.00 51.50 387.00 C 50.67 387.00 50.00 386.55 50.00 386.00 Z M 288.25 385.34 C 286.11 384.47 286.88 383.00 289.47 383.00 C 291.25 383.00 291.78 383.42 291.36 384.50 C 290.76 386.06 290.33 386.18 288.25 385.34 Z M 273.57 384.11 C 273.27 383.63 273.98 382.98 275.16 382.67 C 277.81 381.98 283.00 382.94 283.00 384.12 C 283.00 385.27 274.28 385.26 273.57 384.11 Z M 296.44 383.90 C 296.15 383.44 297.03 382.78 298.39 382.44 C 300.98 381.79 305.00 382.64 305.00 383.83 C 305.00 384.84 297.06 384.91 296.44 383.90 Z M 196.50 381.00 C 196.84 380.45 197.32 380.00 197.56 380.00 C 197.80 380.00 198.00 380.45 198.00 381.00 C 198.00 381.55 197.52 382.00 196.94 382.00 C 196.36 382.00 196.16 381.55 196.50 381.00 Z M 240.25 381.34 C 239.56 381.06 238.44 381.06 237.75 381.34 C 237.06 381.62 237.62 381.84 239.00 381.84 C 240.38 381.84 240.94 381.62 240.25 381.34 Z M 372.00 372.56 C 372.00 371.77 372.45 370.84 373.00 370.50 C 373.55 370.16 374.00 370.81 374.00 371.94 C 374.00 373.07 373.55 374.00 373.00 374.00 C 372.45 374.00 372.00 373.35 372.00 372.56 Z M 371.08 361.42 C 371.13 360.25 371.36 360.01 371.68 360.81 C 371.97 361.53 371.94 362.40 371.60 362.73 C 371.27 363.06 371.04 362.47 371.08 361.42 Z M 22.98 339.25 C 22.97 337.11 22.76 336.83 22.00 338.00 C 20.74 339.96 20.74 342.00 22.00 342.00 C 22.55 342.00 22.99 340.76 22.98 339.25 Z M 195.49 313.79 C 194.61 310.20 195.39 290.47 196.41 290.74 C 197.75 291.10 198.41 314.63 197.11 315.43 C 196.53 315.79 195.80 315.05 195.49 313.79 Z M 19.25 302.44 C 17.87 300.94 17.72 297.56 18.91 294.53 C 19.49 293.05 19.86 293.90 20.39 297.89 C 21.18 303.86 21.05 304.39 19.25 302.44 Z M 19.15 289.80 C 18.01 287.66 18.01 286.87 19.14 284.88 L 20.49 282.50 L 20.81 285.26 C 20.99 286.78 20.99 289.00 20.82 290.19 C 20.51 292.27 20.45 292.25 19.15 289.80 Z M 199.13 277.38 C 198.04 273.31 196.75 276.13 197.60 280.69 C 198.21 283.92 198.41 284.14 199.09 282.29 C 199.52 281.13 199.54 278.91 199.13 277.38 Z M 17.00 281.64 C 17.00 281.27 17.54 280.11 18.20 279.05 C 19.15 277.53 19.12 276.59 18.03 274.56 C 16.36 271.43 17.46 269.91 19.48 272.57 C 21.53 275.28 21.34 278.38 19.00 280.50 C 17.90 281.50 17.00 282.01 17.00 281.64 Z M 198.07 259.67 C 196.80 258.40 196.56 262.76 197.75 265.67 C 198.33 267.09 198.57 266.74 198.82 264.12 C 199.00 262.27 198.66 260.26 198.07 259.67 Z M 369.64 266.31 C 368.55 265.21 368.93 264.33 370.50 264.33 C 371.32 264.33 372.00 264.68 372.00 265.11 C 372.00 266.23 370.39 267.05 369.64 266.31 Z M 22.29 249.79 C 21.83 231.90 21.04 226.79 19.95 234.64 C 18.85 242.68 20.40 266.49 21.97 265.52 C 22.37 265.27 22.51 258.19 22.29 249.79 Z M 194.60 253.40 C 193.92 251.64 194.62 250.00 196.06 250.00 C 197.26 250.00 197.30 253.70 196.10 254.44 C 195.61 254.74 194.94 254.28 194.60 253.40 Z M 371.08 251.42 C 371.13 250.25 371.36 250.01 371.68 250.81 C 371.97 251.53 371.94 252.40 371.60 252.73 C 371.27 253.06 371.04 252.47 371.08 251.42 Z M 371.10 230.22 C 370.19 218.27 371.53 214.37 372.64 225.73 C 372.97 229.18 372.81 232.00 372.26 232.34 C 371.73 232.66 371.21 231.71 371.10 230.22 Z M 369.00 215.11 C 369.00 214.07 369.66 212.96 370.47 212.65 C 372.25 211.97 372.97 212.98 372.12 215.00 C 371.20 217.22 369.00 217.29 369.00 215.11 Z M 191.00 207.94 C 191.00 207.36 191.45 207.16 192.00 207.50 C 192.55 207.84 193.00 208.32 193.00 208.56 C 193.00 208.80 192.55 209.00 192.00 209.00 C 191.45 209.00 191.00 208.52 191.00 207.94 Z M 62.50 206.00 C 61.51 204.41 62.92 203.00 65.49 203.00 C 68.69 203.00 73.00 204.71 73.00 205.98 C 73.00 207.39 69.67 207.27 68.20 205.80 C 67.27 204.87 67.00 204.87 67.00 205.80 C 67.00 207.25 63.37 207.41 62.50 206.00 Z M 197.50 206.00 C 197.84 205.45 198.54 205.00 199.06 205.00 C 199.58 205.00 200.00 205.45 200.00 206.00 C 200.00 206.55 199.30 207.00 198.44 207.00 C 197.58 207.00 197.16 206.55 197.50 206.00 Z M 190.50 205.00 C 190.84 204.45 191.32 204.00 191.56 204.00 C 191.80 204.00 192.00 204.45 192.00 205.00 C 192.00 205.55 191.52 206.00 190.94 206.00 C 190.36 206.00 190.16 205.55 190.50 205.00 Z M 194.00 204.94 C 194.00 204.36 194.45 204.16 195.00 204.50 C 195.55 204.84 196.00 205.32 196.00 205.56 C 196.00 205.80 195.55 206.00 195.00 206.00 C 194.45 206.00 194.00 205.52 194.00 204.94 Z M 268.07 203.53 C 268.60 203.00 272.83 202.55 277.47 202.53 C 282.95 202.51 285.56 202.84 284.92 203.48 C 284.39 204.01 280.16 204.46 275.52 204.48 C 270.05 204.50 267.43 204.17 268.07 203.53 Z M 292.81 204.32 C 293.53 204.03 294.40 204.06 294.73 204.40 C 295.06 204.73 294.47 204.96 293.42 204.92 C 292.25 204.87 292.01 204.64 292.81 204.32 Z M 75.25 203.31 C 76.21 203.06 77.79 203.06 78.75 203.31 C 79.71 203.56 78.92 203.77 77.00 203.77 C 75.08 203.77 74.29 203.56 75.25 203.31 Z M 198.00 203.04 C 198.00 202.47 197.10 202.00 196.00 202.00 C 194.47 202.00 194.02 201.36 194.08 199.25 C 194.12 197.74 194.38 197.06 194.66 197.75 C 195.59 200.05 197.00 199.03 197.00 196.06 C 197.00 194.44 197.43 192.85 197.96 192.53 C 198.48 192.20 198.66 191.28 198.35 190.47 C 197.49 188.22 199.49 188.69 205.69 192.19 C 210.93 195.15 212.16 195.41 222.42 195.76 C 228.51 195.96 254.88 195.72 281.00 195.22 C 307.12 194.73 328.98 194.49 329.56 194.70 C 331.17 195.26 330.51 203.50 328.86 203.50 C 327.45 203.50 327.38 202.71 328.53 199.75 C 329.08 198.35 328.68 198.00 326.50 198.00 C 324.50 198.00 323.94 198.39 324.36 199.50 C 325.12 201.47 323.60 201.42 321.94 199.42 C 320.77 198.02 316.13 197.91 279.06 198.40 C 256.20 198.70 236.38 198.92 235.00 198.87 C 233.62 198.83 230.93 198.80 229.00 198.82 C 227.07 198.83 224.15 198.81 222.50 198.77 C 210.97 198.48 209.87 198.58 208.97 200.01 C 208.34 201.00 208.03 201.08 208.02 200.25 C 207.99 198.48 204.50 198.69 202.95 200.55 C 201.12 202.77 198.00 204.33 198.00 203.04 Z M 317.00 203.01 C 317.00 202.46 319.10 202.00 321.67 202.00 C 327.22 202.00 327.07 202.48 321.25 203.37 C 318.62 203.78 317.00 203.64 317.00 203.01 Z M 204.00 202.00 C 204.00 201.45 204.45 201.00 205.00 201.00 C 205.55 201.00 206.00 201.45 206.00 202.00 C 206.00 202.55 205.55 203.00 205.00 203.00 C 204.45 203.00 204.00 202.55 204.00 202.00 Z M 306.00 202.00 C 308.00 200.71 313.30 200.71 312.50 202.00 C 312.16 202.55 310.22 202.99 308.19 202.98 C 305.44 202.97 304.88 202.72 306.00 202.00 Z M 231.81 201.32 C 232.53 201.03 233.40 201.06 233.73 201.40 C 234.06 201.73 233.47 201.96 232.42 201.92 C 231.25 201.87 231.01 201.64 231.81 201.32 Z M 193.68 194.62 C 193.36 193.76 193.49 192.82 193.97 192.52 C 195.25 191.73 196.01 193.36 195.07 194.88 C 194.45 195.89 194.15 195.83 193.68 194.62 Z M 55.73 153.32 C 55.07 115.65 55.23 62.41 56.00 61.71 C 56.27 61.46 81.47 60.67 112.00 59.96 C 176.78 58.45 186.66 58.32 187.32 59.00 C 188.20 59.90 188.45 164.43 187.58 167.00 C 187.12 168.38 185.13 171.93 183.18 174.89 C 180.45 179.02 178.41 180.84 174.50 182.63 C 169.59 184.88 168.16 184.99 139.44 185.48 C 122.97 185.75 97.53 186.24 82.91 186.56 L 56.32 187.14 L 55.73 153.32 Z M 211.28 182.12 C 206.60 179.13 201.20 170.43 200.00 163.95 C 199.37 160.56 199.08 139.25 199.24 108.47 L 199.50 58.50 L 264.00 57.74 C 299.48 57.32 329.06 57.20 329.75 57.46 C 330.73 57.83 331.00 71.24 331.00 119.86 C 331.00 173.63 330.80 181.86 329.52 182.35 C 328.70 182.67 302.49 183.20 271.27 183.55 C 215.19 184.17 214.46 184.15 211.28 182.12 Z" fill="none" stroke="rgba(255,255,255,0.92)" stroke-width="1.5" stroke-linejoin="round" fill-rule="evenodd"/>
</svg>
