<svg xmlns="http://www.w3.org/2000/svg" viewBox="0 0 100 100" width="100" height="100">
  <path d="M 0.00 50.00 L 0.00 0.00 L 50.00 0.00 L 100.00 0.00 L 100.00 50.00 L 100.00 100.00 L 50.00 100.00 L 0.00 100.00 L 0.00 50.00 Z M 95.76 50.25 L 95.50 4.50 L 85.50 4.62 C 80.00 4.69 59.41 4.80 39.75 4.87 L 4.00 5.00 L 4.00 17.12 L 4.00 29.24 L 38.25 28.87 L 72.50 28.50 L 72.76 59.62 L 73.03 90.74 L 68.26 91.33 C 65.64 91.65 51.68 91.95 37.23 91.99 L 10.97 92.07 L 8.37 89.28 C 6.94 87.75 5.40 85.60 4.95 84.50 C 4.37 83.09 4.11 84.15 4.06 88.05 C 4.03 91.12 4.54 94.14 5.20 94.80 C 6.10 95.70 17.69 96.00 51.21 96.00 L 96.02 96.00 L 95.76 50.25 Z" fill="none" stroke="rgba(255,255,255,0.92)" stroke-width="1.2" stroke-linejoin="round" fill-rule="evenodd"/>
</svg>
