<svg xmlns="http://www.w3.org/2000/svg" viewBox="0 0 100 100" width="100" height="100">
  <path d="M 0.00 50.00 L 0.00 0.00 L 50.00 0.00 L 100.00 0.00 L 100.00 50.00 L 100.00 100.00 L 50.00 100.00 L 0.00 100.00 L 0.00 50.00 Z M 23.97 63.75 L 23.89 31.50 L 59.45 31.24 L 95.00 30.97 L 95.00 59.05 C 95.00 88.02 94.86 89.19 90.70 93.75 L 88.65 96.00 L 92.33 96.00 L 96.00 96.00 L 96.00 51.14 L 96.00 6.28 L 82.75 6.49 C 75.46 6.61 54.76 6.77 36.75 6.85 L 4.00 7.00 L 4.00 51.50 L 4.00 96.00 L 14.03 96.00 L 24.05 96.00 L 23.97 63.75 Z" fill="none" stroke="rgba(255,255,255,0.92)" stroke-width="1.2" stroke-linejoin="round" fill-rule="evenodd"/>
</svg>
