<svg xmlns="http://www.w3.org/2000/svg" viewBox="0 0 100 100" width="100" height="100">
  <path d="M 0.00 50.00 L 0.00 0.00 L 50.00 0.00 L 100.00 0.00 L 100.00 50.00 L 100.00 100.00 L 50.00 100.00 L 0.00 100.00 L 0.00 50.00 Z M 8.22 57.38 C 7.90 14.72 7.76 15.81 14.26 12.28 C 17.12 10.73 20.64 10.52 44.50 10.51 L 71.50 10.50 L 71.76 53.25 L 72.02 96.00 L 84.01 96.00 L 96.00 96.00 L 96.00 49.99 L 96.00 3.98 L 50.00 4.02 L 4.00 4.06 L 4.00 6.45 C 4.00 7.76 4.56 9.04 5.25 9.29 C 6.25 9.65 6.25 10.16 5.25 11.86 C 4.30 13.46 4.00 23.97 4.00 54.99 L 4.00 96.00 L 6.25 96.00 L 8.50 96.00 L 8.22 57.38 Z" fill="none" stroke="rgba(255,255,255,0.92)" stroke-width="1.2" stroke-linejoin="round" fill-rule="evenodd"/>
</svg>
