<svg xmlns="http://www.w3.org/2000/svg" viewBox="0 0 394 400" width="394" height="400">
  <path d="M 0.00 238.62 C 0.00 78.07 0.01 77.23 2.00 76.71 C 4.56 76.04 4.56 73.81 2.00 71.50 C 0.07 69.76 0.00 68.42 0.00 34.85 L 0.00 0.00 L 197.00 0.00 L 394.00 0.00 L 394.00 200.00 L 394.00 400.00 L 391.50 400.00 L 389.00 400.00 L 388.99 321.75 C 388.98 250.54 387.92 6.57 387.63 6.45 C 387.56 6.42 372.88 6.71 355.00 7.10 C 337.12 7.48 279.41 8.15 226.75 8.56 L 131.00 9.33 L 130.88 76.41 C 130.82 113.31 130.55 142.65 130.28 141.61 C 129.81 139.77 128.08 139.73 68.77 140.32 C 35.20 140.66 7.46 141.21 7.12 141.55 C 6.38 142.29 6.30 288.62 7.00 353.75 L 7.50 400.00 L 3.75 400.00 L 0.00 400.00 L 0.00 238.62 Z M 10.00 399.00 C 10.00 398.45 10.45 398.00 11.00 398.00 C 11.55 398.00 12.00 398.45 12.00 399.00 C 12.00 399.55 11.55 400.00 11.00 400.00 C 10.45 400.00 10.00 399.55 10.00 399.00 Z M 14.00 391.50 C 14.00 386.82 13.66 383.05 13.25 383.12 C 11.24 383.44 11.07 382.76 12.50 379.99 C 13.86 377.37 14.01 371.10 13.69 330.74 C 13.49 305.31 12.98 283.51 12.56 282.29 L 11.79 280.08 L 52.64 280.00 C 75.11 279.96 102.10 279.69 112.61 279.41 L 131.72 278.90 L 131.73 295.70 C 131.73 304.94 131.83 330.95 131.94 353.50 C 132.05 376.05 132.11 395.74 132.07 397.25 L 132.00 400.00 L 73.00 400.00 L 14.00 400.00 L 14.00 391.50 Z M 136.00 399.00 C 136.00 398.45 136.45 398.00 137.00 398.00 C 137.55 398.00 138.00 398.45 138.00 399.00 C 138.00 399.55 137.55 400.00 137.00 400.00 C 136.45 400.00 136.00 399.55 136.00 399.00 Z M 139.91 397.75 C 139.19 378.76 138.77 278.47 139.42 278.75 C 141.43 279.61 252.77 278.47 255.50 277.56 C 257.45 276.91 257.49 277.23 257.00 291.20 C 256.73 299.06 256.73 321.48 257.00 341.00 C 257.27 360.52 257.37 381.79 257.22 388.25 L 256.94 400.00 L 198.47 400.00 L 140.00 400.00 L 139.91 397.75 Z M 135.07 394.31 C 135.11 393.86 135.53 392.60 136.00 391.50 C 136.83 389.57 136.86 389.58 136.93 391.69 C 136.97 392.90 136.55 394.16 136.00 394.50 C 135.45 394.84 135.03 394.75 135.07 394.31 Z M 10.00 392.00 C 10.00 391.45 10.45 391.00 11.00 391.00 C 11.55 391.00 12.00 391.45 12.00 392.00 C 12.00 392.55 11.55 393.00 11.00 393.00 C 10.45 393.00 10.00 392.55 10.00 392.00 Z M 136.00 380.44 C 136.00 379.58 136.46 379.16 137.02 379.51 C 137.58 379.86 137.77 380.56 137.46 381.07 C 136.60 382.46 136.00 382.20 136.00 380.44 Z M 135.07 373.75 C 135.03 371.14 135.45 369.00 136.00 369.00 C 137.20 369.00 137.20 373.70 136.00 376.50 C 135.35 378.00 135.12 377.32 135.07 373.75 Z M 262.00 377.18 C 259.70 376.78 259.66 376.69 261.50 376.02 C 263.46 375.31 263.50 374.38 263.53 326.65 C 263.56 279.81 263.49 277.97 261.67 277.39 C 259.97 276.85 259.93 276.64 261.32 275.25 C 262.70 273.87 263.03 273.89 264.63 275.49 C 266.33 277.19 266.30 277.24 263.95 276.60 C 261.77 276.00 261.82 276.11 264.38 277.56 C 266.63 278.84 267.79 278.96 269.63 278.12 C 272.68 276.73 272.61 277.33 269.25 281.74 L 266.50 285.34 L 266.22 330.90 C 266.07 355.96 265.62 376.72 265.22 377.03 C 264.82 377.35 263.38 377.41 262.00 377.18 Z M 273.22 333.33 L 273.50 289.34 L 276.23 285.76 C 281.48 278.88 283.92 278.50 323.00 278.50 L 357.50 278.50 L 357.50 326.67 C 357.50 353.16 357.23 375.11 356.89 375.44 C 356.56 375.78 337.53 376.34 314.61 376.68 L 272.94 377.32 L 273.22 333.33 Z M 260.08 368.42 C 260.13 367.25 260.36 367.01 260.68 367.81 C 260.97 368.53 260.94 369.40 260.60 369.73 C 260.27 370.06 260.04 369.47 260.08 368.42 Z M 135.00 365.56 C 135.00 364.70 135.45 364.00 136.00 364.00 C 136.55 364.00 137.00 364.42 137.00 364.94 C 137.00 365.46 136.55 366.16 136.00 366.50 C 135.45 366.84 135.00 366.42 135.00 365.56 Z M 10.08 361.42 C 10.13 360.25 10.36 360.01 10.68 360.81 C 10.97 361.53 10.94 362.40 10.60 362.73 C 10.27 363.06 10.04 362.47 10.08 361.42 Z M 260.00 361.00 C 260.00 360.45 260.48 360.00 261.06 360.00 C 261.64 360.00 261.84 360.45 261.50 361.00 C 261.16 361.55 260.68 362.00 260.44 362.00 C 260.20 362.00 260.00 361.55 260.00 361.00 Z M 135.13 357.00 C 135.08 355.07 135.47 352.82 136.00 352.00 C 136.80 350.77 136.95 350.85 136.87 352.50 C 136.81 353.60 136.42 355.85 136.00 357.50 L 135.24 360.50 L 135.13 357.00 Z M 260.00 353.00 C 260.00 352.45 260.45 352.00 261.00 352.00 C 261.55 352.00 262.00 352.45 262.00 353.00 C 262.00 353.55 261.55 354.00 261.00 354.00 C 260.45 354.00 260.00 353.55 260.00 353.00 Z M 10.67 352.33 C 10.30 351.97 10.00 351.20 10.00 350.63 C 10.00 350.01 10.47 350.07 11.18 350.78 C 11.83 351.43 12.13 352.20 11.85 352.48 C 11.57 352.77 11.03 352.70 10.67 352.33 Z M 259.50 344.75 C 259.26 344.06 259.46 341.93 259.93 340.00 L 260.80 336.50 L 260.90 341.25 C 261.00 345.84 260.40 347.33 259.50 344.75 Z M 260.08 331.42 C 260.13 330.25 260.36 330.01 260.68 330.81 C 260.97 331.53 260.94 332.40 260.60 332.73 C 260.27 333.06 260.04 332.47 260.08 331.42 Z M 10.23 322.00 C 10.23 320.07 10.44 319.29 10.69 320.25 C 10.94 321.21 10.94 322.79 10.69 323.75 C 10.44 324.71 10.23 323.93 10.23 322.00 Z M 260.00 322.94 C 260.00 321.81 260.45 321.16 261.00 321.50 C 261.55 321.84 262.00 322.77 262.00 323.56 C 262.00 324.35 261.55 325.00 261.00 325.00 C 260.45 325.00 260.00 324.07 260.00 322.94 Z M 10.07 312.25 C 10.13 309.81 10.24 309.73 11.00 311.50 C 12.17 314.23 12.17 315.00 11.00 315.00 C 10.45 315.00 10.03 313.76 10.07 312.25 Z M 135.08 306.42 C 135.13 305.25 135.36 305.01 135.68 305.81 C 135.97 306.53 135.94 307.40 135.60 307.73 C 135.27 308.06 135.04 307.47 135.08 306.42 Z M 259.46 304.93 C 259.08 304.32 259.22 303.38 259.75 302.85 C 260.39 302.21 260.94 302.40 261.32 303.40 C 262.02 305.22 260.44 306.52 259.46 304.93 Z M 259.67 299.33 C 259.30 298.97 259.00 298.20 259.00 297.63 C 259.00 297.01 259.47 297.07 260.18 297.78 C 260.83 298.43 261.13 299.20 260.85 299.48 C 260.57 299.77 260.03 299.70 259.67 299.33 Z M 259.08 288.42 C 259.13 287.25 259.36 287.01 259.68 287.81 C 259.97 288.53 259.94 289.40 259.60 289.73 C 259.27 290.06 259.04 289.47 259.08 288.42 Z M 10.16 285.00 C 10.16 283.62 10.38 283.06 10.66 283.75 C 10.94 284.44 10.94 285.56 10.66 286.25 C 10.38 286.94 10.16 286.38 10.16 285.00 Z M 134.00 284.06 C 134.00 281.64 134.56 281.40 135.35 283.47 C 135.66 284.28 135.48 285.20 134.96 285.53 C 134.43 285.85 134.00 285.19 134.00 284.06 Z M 258.50 279.00 C 258.16 278.45 258.36 278.00 258.94 278.00 C 259.52 278.00 260.00 278.45 260.00 279.00 C 260.00 279.55 259.80 280.00 259.56 280.00 C 259.32 280.00 258.84 279.55 258.50 279.00 Z M 59.81 277.32 C 60.53 277.03 61.40 277.06 61.73 277.40 C 62.06 277.73 61.47 277.96 60.42 277.92 C 59.25 277.87 59.01 277.64 59.81 277.32 Z M 72.25 277.31 C 73.21 277.06 74.79 277.06 75.75 277.31 C 76.71 277.56 75.92 277.77 74.00 277.77 C 72.08 277.77 71.29 277.56 72.25 277.31 Z M 272.40 275.40 C 272.86 274.21 272.60 273.94 271.45 274.38 C 270.23 274.85 270.01 274.53 270.50 272.99 C 271.05 271.27 270.68 271.00 267.70 271.00 C 264.46 271.00 264.23 270.78 263.73 267.06 C 263.44 264.89 263.17 237.17 263.13 205.46 C 263.06 148.87 263.09 147.79 265.03 147.28 C 266.11 147.00 267.00 146.37 267.00 145.88 C 267.00 144.77 268.10 144.78 269.86 145.89 C 270.96 146.59 270.67 147.71 268.36 151.63 L 265.50 156.50 L 265.50 207.50 C 265.50 263.87 265.37 262.63 272.07 271.09 C 275.48 275.39 275.52 275.58 273.39 276.40 C 272.20 276.86 271.94 276.60 272.40 275.40 Z M 53.81 275.32 C 54.53 275.03 55.40 275.06 55.73 275.40 C 56.06 275.73 55.47 275.96 54.42 275.92 C 53.25 275.87 53.01 275.64 53.81 275.32 Z M 71.81 275.32 C 72.53 275.03 73.40 275.06 73.73 275.40 C 74.06 275.73 73.47 275.96 72.42 275.92 C 71.25 275.87 71.01 275.64 71.81 275.32 Z M 266.81 273.32 C 267.53 273.03 268.40 273.06 268.73 273.40 C 269.06 273.73 268.47 273.96 267.42 273.92 C 266.25 273.87 266.01 273.64 266.81 273.32 Z M 14.10 270.75 C 13.63 269.51 13.39 262.32 13.57 254.77 C 13.74 247.22 13.47 240.79 12.98 240.49 C 12.45 240.16 12.44 238.97 12.95 237.62 C 13.43 236.36 13.49 231.53 13.07 226.91 C 12.61 221.89 12.69 218.01 13.25 217.28 C 14.32 215.89 12.08 209.83 10.79 210.63 C 10.35 210.90 10.00 210.14 10.00 208.94 C 10.00 207.08 10.23 206.95 11.54 208.03 C 12.91 209.17 13.05 208.34 12.79 200.41 C 12.58 193.93 12.16 191.57 11.25 191.75 C 9.46 192.11 9.70 190.33 11.53 189.63 C 12.85 189.12 13.04 186.15 12.92 168.77 L 12.77 148.50 L 18.63 148.27 C 28.72 147.88 131.42 147.56 133.00 147.91 C 133.82 148.10 144.85 147.97 157.50 147.63 C 170.15 147.29 197.49 146.96 218.26 146.90 C 239.26 146.84 256.26 146.39 256.56 145.90 C 256.87 145.40 256.16 145.00 255.00 145.00 C 253.73 145.00 253.15 144.57 253.55 143.91 C 253.92 143.31 255.07 143.05 256.11 143.32 C 258.10 143.84 258.22 143.69 258.27 140.50 C 258.34 136.34 257.97 134.90 256.97 135.52 C 256.41 135.87 256.07 136.90 256.22 137.81 C 256.58 139.97 257.87 139.90 215.50 139.99 C 180.27 140.06 164.32 140.65 165.50 141.83 C 165.82 142.16 169.78 142.53 174.29 142.65 C 184.67 142.94 184.00 142.86 184.00 143.84 C 184.00 144.30 180.17 144.56 175.50 144.43 C 170.59 144.29 167.23 144.57 167.56 145.09 C 167.87 145.59 167.19 146.00 166.06 146.00 C 164.93 146.00 163.95 145.66 163.89 145.25 C 163.83 144.84 163.61 143.06 163.40 141.29 L 163.03 138.08 L 204.77 137.79 L 246.50 137.50 L 250.75 135.07 C 253.09 133.73 255.00 132.26 255.00 131.82 C 255.00 129.83 257.04 131.29 258.47 134.30 C 259.33 136.11 261.62 139.22 263.55 141.21 L 267.06 144.83 L 264.09 145.48 C 262.10 145.92 260.80 147.02 260.14 148.82 C 259.23 151.29 259.15 151.32 259.08 149.25 C 258.93 144.93 257.14 147.04 256.53 152.25 C 256.19 155.14 256.06 183.04 256.22 214.25 L 256.53 271.00 L 230.02 271.03 C 215.43 271.04 189.32 271.19 172.00 271.35 C 154.68 271.51 140.05 271.49 139.50 271.31 C 138.85 271.09 138.50 250.01 138.50 210.74 C 138.50 177.61 138.15 150.24 137.73 149.93 C 137.30 149.61 135.67 149.54 134.10 149.77 L 131.24 150.19 L 131.24 210.65 C 131.23 243.90 131.07 271.24 130.86 271.41 C 130.66 271.58 104.50 272.01 72.72 272.36 L 14.95 272.99 L 14.10 270.75 Z M 10.00 269.94 C 10.00 269.36 10.45 269.16 11.00 269.50 C 11.55 269.84 12.00 270.32 12.00 270.56 C 12.00 270.80 11.55 271.00 11.00 271.00 C 10.45 271.00 10.00 270.52 10.00 269.94 Z M 282.35 268.40 C 278.26 266.38 275.55 263.32 274.14 259.10 C 273.35 256.74 273.00 240.80 273.00 207.10 C 273.01 152.01 272.67 154.35 281.21 149.79 C 285.45 147.53 285.92 147.50 321.00 147.50 L 356.50 147.50 L 356.76 208.75 L 357.02 270.00 L 321.26 269.98 C 291.00 269.96 285.02 269.72 282.35 268.40 Z M 10.00 264.00 C 10.00 262.90 10.41 262.00 10.91 262.00 C 11.40 262.00 11.58 262.90 11.29 264.00 C 11.00 265.10 10.59 266.00 10.38 266.00 C 10.17 266.00 10.00 265.10 10.00 264.00 Z M 134.53 259.71 C 134.10 258.72 134.03 257.63 134.38 257.29 C 135.39 256.27 136.21 257.70 135.74 259.67 C 135.33 261.42 135.27 261.42 134.53 259.71 Z M 259.08 258.42 C 259.13 257.25 259.36 257.01 259.68 257.81 C 259.97 258.53 259.94 259.40 259.60 259.73 C 259.27 260.06 259.04 259.47 259.08 258.42 Z M 10.02 256.31 C 10.02 255.31 10.47 253.82 11.00 253.00 C 11.76 251.83 11.97 252.09 11.98 254.19 C 11.99 255.67 11.55 257.16 11.00 257.50 C 10.45 257.84 10.01 257.30 10.02 256.31 Z M 259.67 253.33 C 259.30 252.97 259.00 252.20 259.00 251.63 C 259.00 251.01 259.47 251.07 260.18 251.78 C 260.83 252.43 261.13 253.20 260.85 253.48 C 260.57 253.77 260.03 253.70 259.67 253.33 Z M 134.70 251.66 C 134.42 250.92 134.59 249.68 135.08 248.91 C 135.73 247.88 135.97 248.25 135.98 250.25 C 136.00 253.24 135.51 253.77 134.70 251.66 Z M 10.00 244.94 C 10.00 243.81 10.45 243.16 11.00 243.50 C 11.55 243.84 12.00 244.77 12.00 245.56 C 12.00 246.35 11.55 247.00 11.00 247.00 C 10.45 247.00 10.00 246.07 10.00 244.94 Z M 134.50 245.00 C 134.16 244.45 134.36 244.00 134.94 244.00 C 135.52 244.00 136.00 244.45 136.00 245.00 C 136.00 245.55 135.80 246.00 135.56 246.00 C 135.32 246.00 134.84 245.55 134.50 245.00 Z M 259.10 242.05 C 259.04 239.28 259.35 237.96 259.93 238.55 C 260.48 239.11 260.52 240.95 260.04 243.00 L 259.20 246.50 L 259.10 242.05 Z M 10.14 231.50 C 10.11 228.47 10.51 226.00 11.04 226.00 C 11.57 226.00 12.00 228.47 12.00 231.50 C 12.00 234.53 11.60 237.00 11.10 237.00 C 10.61 237.00 10.18 234.53 10.14 231.50 Z M 259.39 220.50 C 259.39 213.35 259.55 210.56 259.74 214.29 C 259.94 218.03 259.93 223.88 259.74 227.29 C 259.54 230.71 259.39 227.65 259.39 220.50 Z M 9.65 219.53 C 9.34 218.72 9.52 217.80 10.04 217.47 C 10.57 217.15 11.00 217.81 11.00 218.94 C 11.00 221.36 10.44 221.60 9.65 219.53 Z M 134.00 215.00 C 134.00 213.90 134.17 213.00 134.38 213.00 C 134.59 213.00 135.00 213.90 135.29 215.00 C 135.58 216.10 135.40 217.00 134.91 217.00 C 134.41 217.00 134.00 216.10 134.00 215.00 Z M 259.16 203.00 C 259.16 201.62 259.38 201.06 259.66 201.75 C 259.94 202.44 259.94 203.56 259.66 204.25 C 259.38 204.94 259.16 204.38 259.16 203.00 Z M 10.08 199.42 C 10.13 198.25 10.36 198.01 10.68 198.81 C 10.97 199.53 10.94 200.40 10.60 200.73 C 10.27 201.06 10.04 200.47 10.08 199.42 Z M 134.00 197.44 C 134.00 196.58 134.46 196.16 135.02 196.51 C 135.58 196.86 135.77 197.56 135.46 198.07 C 134.60 199.46 134.00 199.20 134.00 197.44 Z M 259.08 193.55 C 259.02 190.65 259.30 189.90 260.11 190.71 C 260.90 191.50 260.92 192.65 260.19 194.66 C 259.17 197.47 259.16 197.46 259.08 193.55 Z M 259.00 171.33 C 259.00 162.17 259.30 154.96 259.66 155.33 C 260.58 156.25 260.67 188.00 259.75 188.00 C 259.34 188.00 259.00 180.50 259.00 171.33 Z M 134.65 185.53 C 134.34 184.72 134.52 183.80 135.04 183.47 C 135.57 183.15 136.00 183.81 136.00 184.94 C 136.00 187.36 135.44 187.60 134.65 185.53 Z M 134.00 180.00 C 134.00 179.45 134.68 179.00 135.50 179.00 C 136.32 179.00 137.00 179.45 137.00 180.00 C 137.00 180.55 136.32 181.00 135.50 181.00 C 134.68 181.00 134.00 180.55 134.00 180.00 Z M 134.54 177.07 C 134.23 176.56 134.42 175.86 134.98 175.51 C 135.54 175.16 136.00 175.58 136.00 176.44 C 136.00 178.20 135.40 178.46 134.54 177.07 Z M 135.19 171.50 C 135.22 169.85 135.44 169.30 135.69 170.27 C 135.95 171.24 135.93 172.59 135.66 173.27 C 135.38 173.95 135.17 173.15 135.19 171.50 Z M 129.00 144.94 C 129.00 144.36 129.45 144.16 130.00 144.50 C 130.55 144.84 131.00 145.32 131.00 145.56 C 131.00 145.80 130.55 146.00 130.00 146.00 C 129.45 146.00 129.00 145.52 129.00 144.94 Z M 188.75 144.34 C 189.44 144.06 190.56 144.06 191.25 144.34 C 191.94 144.62 191.38 144.84 190.00 144.84 C 188.62 144.84 188.06 144.62 188.75 144.34 Z M 201.00 143.75 C 201.00 143.34 201.84 143.00 202.88 143.00 C 203.91 143.00 206.27 142.74 208.12 142.42 C 210.66 141.98 211.13 142.09 210.00 142.89 C 208.88 143.67 209.46 143.79 212.25 143.34 C 214.79 142.93 216.00 143.12 216.00 143.91 C 216.00 144.73 213.73 145.00 208.50 144.79 C 204.38 144.64 201.00 144.17 201.00 143.75 Z M 226.50 144.00 C 226.16 143.45 226.84 143.00 228.00 143.00 C 229.16 143.00 229.84 143.45 229.50 144.00 C 229.16 144.55 228.49 145.00 228.00 145.00 C 227.51 145.00 226.84 144.55 226.50 144.00 Z M 234.00 144.00 C 234.00 143.45 234.65 143.00 235.44 143.00 C 236.23 143.00 237.16 143.45 237.50 144.00 C 237.84 144.55 237.19 145.00 236.06 145.00 C 234.93 145.00 234.00 144.55 234.00 144.00 Z M 244.76 144.29 C 246.01 144.05 247.81 144.06 248.76 144.31 C 249.72 144.56 248.70 144.76 246.50 144.75 C 244.30 144.74 243.52 144.53 244.76 144.29 Z M 262.46 142.93 C 261.52 141.41 260.01 141.87 260.64 143.49 C 260.95 144.32 261.62 144.74 262.12 144.43 C 262.62 144.12 262.77 143.44 262.46 142.93 Z M 217.50 143.00 L 215.50 142.14 L 217.50 142.19 C 218.60 142.22 220.85 142.58 222.50 143.00 L 225.50 143.76 L 222.50 143.81 C 220.85 143.84 218.60 143.47 217.50 143.00 Z M 270.65 136.00 C 263.99 130.15 263.90 129.43 263.92 83.63 C 263.94 45.17 264.05 42.50 265.72 41.84 C 266.70 41.46 287.64 41.11 312.26 41.07 L 357.02 41.00 L 356.76 89.75 L 356.50 138.50 L 315.30 138.76 L 274.09 139.02 L 270.65 136.00 Z M 162.99 88.25 C 162.98 65.29 162.70 45.49 162.37 44.25 L 161.77 42.00 L 208.88 42.00 L 256.00 42.00 L 256.00 79.04 C 256.00 114.02 255.89 116.29 254.02 119.79 C 248.45 130.24 249.67 130.00 202.53 130.00 L 163.00 130.00 L 162.99 88.25 Z M 85.64 88.75 C 89.57 84.76 95.78 78.63 99.43 75.13 C 103.09 71.62 105.87 68.54 105.60 68.27 C 104.90 67.57 67.15 69.52 66.37 70.30 C 66.01 70.66 66.16 71.53 66.71 72.23 C 68.75 74.83 70.09 80.32 68.88 81.08 C 66.99 82.24 68.72 86.82 71.17 87.18 C 72.72 87.41 73.75 88.72 74.76 91.75 C 75.53 94.09 76.69 96.00 77.33 96.00 C 77.97 96.00 81.71 92.73 85.64 88.75 Z M 40.81 90.29 C 41.17 87.81 39.59 87.18 32.00 86.75 C 27.80 86.52 27.50 86.67 27.50 89.00 C 27.50 91.15 28.07 91.59 31.50 92.13 C 38.24 93.19 40.46 92.75 40.81 90.29 Z M 57.25 90.46 C 60.41 89.88 61.00 89.38 61.00 87.25 C 61.00 84.82 60.82 84.75 56.36 85.36 C 53.81 85.71 50.88 86.00 49.86 86.00 C 48.58 86.00 48.00 86.73 48.00 88.33 C 48.00 91.33 48.94 92.23 51.47 91.62 C 52.59 91.35 55.19 90.83 57.25 90.46 Z M 21.00 85.63 C 20.99 84.05 10.52 78.56 9.13 79.42 C 6.37 81.12 8.06 83.97 13.25 86.36 C 18.42 88.74 21.01 88.50 21.00 85.63 Z" fill="none" stroke="rgba(255,255,255,0.92)" stroke-width="1.5" stroke-linejoin="round" fill-rule="evenodd"/>
</svg>
