<svg xmlns="http://www.w3.org/2000/svg" viewBox="0 0 100 100" width="100" height="100">
  <path d="M 0.00 50.00 L 0.00 0.00 L 50.00 0.00 L 100.00 0.00 L 100.00 50.00 L 100.00 100.00 L 50.00 100.00 L 0.00 100.00 L 0.00 50.00 Z M 28.24 63.25 L 28.50 30.50 L 62.25 30.83 L 96.00 31.15 L 96.00 18.08 L 96.00 5.00 L 50.50 5.00 L 5.00 5.00 L 4.98 40.75 C 4.97 60.41 4.86 80.89 4.73 86.25 L 4.50 96.00 L 16.24 96.00 L 27.97 96.00 L 28.24 63.25 Z M 95.94 92.25 C 95.88 88.78 95.80 88.69 94.90 90.95 C 94.36 92.29 93.43 93.98 92.84 94.70 C 92.01 95.70 92.25 96.00 93.88 96.00 C 95.67 96.00 95.99 95.43 95.94 92.25 Z" fill="none" stroke="rgba(255,255,255,0.92)" stroke-width="1.2" stroke-linejoin="round" fill-rule="evenodd"/>
</svg>
