<svg xmlns="http://www.w3.org/2000/svg" viewBox="0 0 100 100" width="100" height="100">
  <path d="M 0.00 50.00 L 0.00 0.00 L 50.00 0.00 L 100.00 0.00 L 100.00 50.00 L 100.00 100.00 L 50.00 100.00 L 0.00 100.00 L 0.00 50.00 Z M 79.25 94.33 L 95.00 93.69 L 95.01 51.09 C 95.02 27.67 95.30 7.49 95.63 6.25 C 96.23 4.00 96.21 4.00 83.62 4.00 L 71.00 4.00 L 70.92 30.75 C 70.88 45.46 70.91 60.31 70.99 63.75 C 71.10 68.31 70.78 70.01 69.82 70.05 C 69.09 70.08 65.80 70.28 62.50 70.49 C 59.20 70.70 45.36 71.16 31.75 71.50 L 7.00 72.12 L 7.00 41.01 C 7.00 15.08 7.25 9.41 8.53 6.95 L 10.05 4.00 L 7.03 4.00 L 4.00 4.00 L 4.00 50.16 L 4.00 96.32 L 33.75 95.64 C 50.11 95.27 70.59 94.68 79.25 94.33 Z" fill="none" stroke="rgba(255,255,255,0.92)" stroke-width="1.2" stroke-linejoin="round" fill-rule="evenodd"/>
</svg>
