<svg xmlns="http://www.w3.org/2000/svg" viewBox="0 0 100 100" width="100" height="100">
  <path d="M 0.00 50.00 L 0.00 0.00 L 50.00 0.00 L 100.00 0.00 L 100.00 50.00 L 100.00 100.00 L 50.00 100.00 L 0.00 100.00 L 0.00 50.00 Z M 93.00 51.00 L 93.00 6.00 L 48.50 6.00 L 4.00 6.00 L 4.00 18.50 C 4.00 27.74 4.33 31.04 5.25 31.17 C 8.74 31.65 12.75 31.73 40.31 31.86 C 68.06 31.99 70.11 32.12 69.95 33.75 C 69.85 34.71 69.82 49.11 69.88 65.75 L 70.00 96.00 L 81.50 96.00 L 93.00 96.00 L 93.00 51.00 Z" fill="none" stroke="rgba(255,255,255,0.92)" stroke-width="1.2" stroke-linejoin="round" fill-rule="evenodd"/>
</svg>
