<svg xmlns="http://www.w3.org/2000/svg" viewBox="0 0 100 100" width="100" height="100">
  <path d="M 0.00 50.00 L 0.00 0.00 L 50.00 0.00 L 100.00 0.00 L 100.00 50.00 L 100.00 100.00 L 50.00 100.00 L 0.00 100.00 L 0.00 50.00 Z M 96.00 50.00 L 96.00 4.00 L 50.00 4.00 L 4.00 4.00 L 4.02 47.75 C 4.02 73.04 4.42 92.12 4.96 92.97 C 5.58 93.95 5.49 94.71 4.70 95.21 C 4.04 95.63 24.31 95.98 49.75 95.98 L 96.00 96.00 L 96.00 50.00 Z M 19.82 93.99 C 13.32 93.41 9.75 90.81 7.95 85.34 C 7.17 82.99 7.02 73.09 7.46 52.78 C 7.80 36.72 8.19 23.48 8.33 23.34 C 8.54 23.13 59.45 22.81 69.41 22.96 L 72.31 23.00 L 71.66 58.25 C 71.30 77.64 71.01 93.60 71.01 93.71 C 70.99 94.21 25.03 94.46 19.82 93.99 Z" fill="none" stroke="rgba(255,255,255,0.92)" stroke-width="1.2" stroke-linejoin="round" fill-rule="evenodd"/>
</svg>
