<svg xmlns="http://www.w3.org/2000/svg" viewBox="0 0 100 100" width="100" height="100">
  <path d="M 0.00 50.00 L 0.00 0.00 L 50.00 0.00 L 100.00 0.00 L 100.00 50.00 L 100.00 100.00 L 50.00 100.00 L 0.00 100.00 L 0.00 50.00 Z M 96.00 50.30 L 96.00 4.68 L 62.25 5.34 C 43.69 5.70 22.99 6.00 16.25 6.00 L 4.00 6.00 L 4.00 51.01 L 4.00 96.02 L 50.00 95.97 L 96.00 95.92 L 96.00 50.30 Z M 28.78 91.48 C 27.28 90.65 25.56 89.04 24.96 87.92 C 24.29 86.67 23.65 75.17 23.31 58.10 L 22.74 30.31 L 29.02 29.66 C 32.47 29.30 44.56 29.00 55.90 29.00 L 76.50 29.00 L 76.83 56.09 C 77.20 85.77 76.96 87.38 71.71 90.56 C 68.89 92.27 66.27 92.53 50.00 92.75 C 34.96 92.96 30.99 92.72 28.78 91.48 Z" fill="none" stroke="rgba(255,255,255,0.92)" stroke-width="1.2" stroke-linejoin="round" fill-rule="evenodd"/>
</svg>
