<svg xmlns="http://www.w3.org/2000/svg" viewBox="0 0 400 391" width="400" height="391">
  <path d="M 0.00 195.50 L 0.00 0.00 L 200.00 0.00 L 400.00 0.00 L 400.00 195.50 L 400.00 391.00 L 200.00 391.00 L 0.00 391.00 L 0.00 195.50 Z M 34.52 385.86 C 44.41 385.77 53.50 385.34 54.71 384.89 C 55.93 384.44 57.16 384.45 57.45 384.92 C 57.73 385.38 61.24 385.60 65.23 385.40 C 69.23 385.20 73.40 385.06 74.50 385.08 C 75.60 385.11 98.44 385.21 125.25 385.31 C 152.06 385.42 174.00 385.87 174.00 386.32 C 174.00 386.77 174.90 386.85 176.01 386.50 C 178.45 385.72 193.88 385.55 194.62 386.29 C 194.91 386.58 196.56 386.41 198.27 385.92 C 200.40 385.31 201.62 385.38 202.09 386.15 C 202.58 386.93 203.65 386.98 205.64 386.30 C 207.21 385.76 211.43 385.51 215.00 385.75 C 218.57 385.98 221.95 386.15 222.50 386.13 C 223.05 386.11 230.70 386.01 239.50 385.91 C 248.30 385.81 256.06 385.28 256.75 384.74 C 257.59 384.08 258.00 384.12 258.00 384.88 C 258.00 385.66 263.03 386.00 274.75 386.00 C 293.29 385.99 392.16 383.18 392.69 382.64 C 392.88 382.45 393.29 351.74 393.61 314.40 C 393.93 277.05 394.52 220.18 394.92 188.00 C 395.33 155.82 395.47 129.13 395.22 128.67 C 394.98 128.21 366.33 128.17 331.55 128.57 L 268.33 129.29 L 267.63 67.95 C 267.25 34.21 266.75 6.42 266.53 6.19 C 266.00 5.66 137.20 8.02 134.18 8.61 L 131.87 9.07 L 132.18 70.24 L 132.50 131.42 L 113.50 131.62 C 103.05 131.74 75.38 132.15 52.00 132.54 C 28.62 132.93 8.80 133.23 7.95 133.20 C 6.56 133.16 6.39 140.10 6.32 198.62 C 6.28 234.62 6.02 264.31 5.74 264.59 C 5.46 264.87 5.58 266.62 5.99 268.47 C 6.41 270.33 6.36 272.24 5.89 272.71 C 5.40 273.20 5.40 274.89 5.87 276.55 C 6.34 278.18 6.36 280.50 5.91 281.70 C 5.47 282.90 5.50 285.26 5.98 286.93 C 6.53 288.84 6.48 290.20 5.86 290.59 C 5.31 290.93 5.10 291.83 5.40 292.59 C 5.81 293.67 6.18 317.41 5.92 326.00 C 5.64 335.19 6.46 384.13 6.91 384.86 C 7.57 385.93 12.66 386.86 15.02 386.34 C 15.86 386.16 24.63 385.94 34.52 385.86 Z M 15.00 382.94 C 15.00 382.36 15.45 382.16 16.00 382.50 C 16.55 382.84 17.00 383.32 17.00 383.56 C 17.00 383.80 16.55 384.00 16.00 384.00 C 15.45 384.00 15.00 383.52 15.00 382.94 Z M 19.00 383.14 C 19.00 382.66 20.12 382.49 21.50 382.76 C 22.88 383.02 24.00 383.41 24.00 383.62 C 24.00 383.83 22.88 384.00 21.50 384.00 C 20.12 384.00 19.00 383.61 19.00 383.14 Z M 46.00 382.94 C 46.00 382.36 46.45 382.16 47.00 382.50 C 47.55 382.84 48.00 383.32 48.00 383.56 C 48.00 383.80 47.55 384.00 47.00 384.00 C 46.45 384.00 46.00 383.52 46.00 382.94 Z M 138.00 383.62 C 138.00 382.71 141.90 382.32 143.14 383.11 C 144.06 383.69 143.46 383.97 141.25 383.98 C 139.46 383.99 138.00 383.83 138.00 383.62 Z M 249.81 383.32 C 250.53 383.03 251.40 383.06 251.73 383.40 C 252.06 383.73 251.47 383.96 250.42 383.92 C 249.25 383.87 249.01 383.64 249.81 383.32 Z M 42.50 382.00 C 42.16 381.45 42.36 381.00 42.94 381.00 C 43.52 381.00 44.00 381.45 44.00 382.00 C 44.00 382.55 43.80 383.00 43.56 383.00 C 43.32 383.00 42.84 382.55 42.50 382.00 Z M 81.81 382.32 C 82.53 382.03 83.40 382.06 83.73 382.40 C 84.06 382.73 83.47 382.96 82.42 382.92 C 81.25 382.87 81.01 382.64 81.81 382.32 Z M 97.81 382.32 C 98.53 382.03 99.40 382.06 99.73 382.40 C 100.06 382.73 99.47 382.96 98.42 382.92 C 97.25 382.87 97.01 382.64 97.81 382.32 Z M 116.50 382.00 C 119.28 380.81 121.24 380.81 120.50 382.00 C 120.16 382.55 118.67 382.97 117.19 382.93 C 114.79 382.87 114.71 382.77 116.50 382.00 Z M 253.00 381.94 C 253.00 381.36 253.45 381.16 254.00 381.50 C 254.55 381.84 255.00 382.32 255.00 382.56 C 255.00 382.80 254.55 383.00 254.00 383.00 C 253.45 383.00 253.00 382.52 253.00 381.94 Z M 94.50 381.00 C 94.84 380.45 95.57 380.00 96.12 380.00 C 96.67 380.00 96.84 380.45 96.50 381.00 C 96.16 381.55 95.43 382.00 94.88 382.00 C 94.33 382.00 94.16 381.55 94.50 381.00 Z M 195.81 381.32 C 196.53 381.03 197.40 381.06 197.73 381.40 C 198.06 381.73 197.47 381.96 196.42 381.92 C 195.25 381.87 195.01 381.64 195.81 381.32 Z M 172.54 379.21 C 172.38 379.05 165.51 378.89 157.27 378.86 C 149.03 378.83 141.69 378.43 140.95 377.97 C 139.85 377.29 139.60 366.80 139.55 320.75 C 139.50 268.42 139.37 264.23 137.75 262.61 C 135.65 260.50 135.60 259.93 137.35 257.54 C 138.66 255.74 141.00 256.11 141.00 258.12 C 141.00 258.67 140.55 258.84 140.00 258.50 C 139.43 258.15 139.00 259.04 139.00 260.60 C 139.00 263.25 139.05 263.27 141.00 261.50 C 142.10 260.50 143.00 260.18 143.00 260.78 C 143.00 261.51 147.79 261.87 157.75 261.87 C 173.27 261.86 178.00 261.42 178.00 259.95 C 178.00 259.46 177.21 259.31 176.25 259.61 C 174.76 260.08 174.78 259.93 176.44 258.58 C 178.52 256.88 181.49 256.40 180.55 257.91 C 180.24 258.42 180.55 259.06 181.24 259.34 C 182.24 259.74 182.24 259.86 181.25 259.92 C 180.56 259.96 180.00 260.37 180.00 260.82 C 180.00 261.26 188.89 261.55 199.75 261.44 C 225.97 261.20 224.51 261.32 223.00 259.50 C 222.04 258.34 222.03 258.00 222.97 258.00 C 223.64 258.00 224.41 258.86 224.69 259.90 C 225.13 261.60 225.99 261.77 232.69 261.47 C 236.82 261.28 240.45 260.88 240.76 260.58 C 241.07 260.27 241.89 260.49 242.59 261.07 C 243.47 261.80 245.00 261.82 247.53 261.12 C 250.11 260.41 251.72 260.44 252.98 261.22 C 254.36 262.08 255.67 261.88 258.88 260.29 C 262.74 258.38 264.91 258.83 261.37 260.81 C 259.91 261.63 259.71 267.46 259.38 320.02 C 259.18 352.09 258.85 378.49 258.65 378.68 C 258.22 379.11 172.96 379.63 172.54 379.21 Z M 13.24 370.64 C 13.22 366.16 13.09 359.23 12.96 355.23 C 12.82 351.23 12.94 347.73 13.21 347.45 C 13.49 347.17 13.39 345.15 12.99 342.95 C 12.59 340.75 12.66 338.71 13.15 338.41 C 13.63 338.11 13.76 337.42 13.43 336.89 C 13.10 336.36 12.90 328.40 12.99 319.21 C 13.08 310.02 13.13 301.82 13.10 301.00 C 12.83 292.55 13.02 268.64 13.37 268.30 C 13.62 268.05 13.47 266.63 13.04 265.15 L 12.27 262.45 L 24.38 262.52 C 31.05 262.56 37.70 262.28 39.17 261.89 C 40.65 261.50 42.11 261.44 42.43 261.76 C 43.26 262.59 53.92 262.69 57.70 261.90 C 59.46 261.53 61.13 261.46 61.41 261.74 C 61.69 262.02 64.53 262.22 67.71 262.18 C 70.89 262.14 86.78 262.03 103.00 261.94 L 132.50 261.77 L 132.52 317.14 C 132.53 347.59 132.29 373.84 131.98 375.48 L 131.43 378.45 L 72.35 378.62 L 13.28 378.78 L 13.24 370.64 Z M 134.00 376.06 C 134.00 375.54 134.45 374.84 135.00 374.50 C 135.55 374.16 136.00 374.58 136.00 375.44 C 136.00 376.30 135.55 377.00 135.00 377.00 C 134.45 377.00 134.00 376.58 134.00 376.06 Z M 10.00 373.12 C 10.00 372.57 10.45 371.84 11.00 371.50 C 11.55 371.16 12.00 371.33 12.00 371.88 C 12.00 372.43 11.55 373.16 11.00 373.50 C 10.45 373.84 10.00 373.67 10.00 373.12 Z M 134.00 367.44 C 134.00 366.58 134.45 366.16 135.00 366.50 C 135.55 366.84 136.00 367.54 136.00 368.06 C 136.00 368.58 135.55 369.00 135.00 369.00 C 134.45 369.00 134.00 368.30 134.00 367.44 Z M 261.10 352.87 C 261.15 352.12 261.52 350.38 261.92 349.00 L 262.63 346.50 L 263.18 349.24 C 263.51 350.93 263.20 352.42 262.36 353.12 C 261.32 353.98 261.02 353.92 261.10 352.87 Z M 265.47 353.04 C 265.80 352.51 266.09 346.33 266.11 339.29 C 266.17 320.32 266.10 319.00 264.93 319.00 C 264.32 319.00 264.14 319.85 264.50 321.00 C 264.85 322.10 264.68 323.00 264.13 323.00 C 263.58 323.00 262.93 324.24 262.69 325.75 C 262.44 327.26 262.30 326.02 262.37 323.00 C 262.48 318.14 262.73 317.52 264.50 317.69 C 266.45 317.88 266.50 317.29 266.48 293.19 C 266.47 279.61 266.69 266.70 266.99 264.50 C 267.44 261.05 267.83 260.54 269.77 260.81 C 272.52 261.20 275.21 258.72 274.39 256.56 C 273.92 255.35 274.22 255.13 275.64 255.64 C 276.66 256.01 277.83 256.49 278.23 256.70 C 278.64 256.92 277.48 258.58 275.67 260.40 C 268.36 267.71 268.34 267.84 268.13 321.75 C 268.02 350.24 267.82 354.00 266.44 354.00 C 265.58 354.00 265.15 353.57 265.47 353.04 Z M 276.00 314.41 C 276.00 269.10 275.86 269.98 284.00 264.52 L 288.50 261.50 L 324.46 260.80 C 344.24 260.41 360.61 260.28 360.83 260.50 C 361.38 261.05 361.01 351.32 360.46 351.87 C 359.82 352.51 354.29 352.71 313.25 353.55 L 276.00 354.32 L 276.00 314.41 Z M 261.63 341.87 C 262.49 337.32 263.67 336.22 263.78 339.89 C 263.82 341.53 263.22 343.40 262.43 344.06 C 261.22 345.06 261.10 344.72 261.63 341.87 Z M 134.00 339.93 C 134.00 339.35 134.45 338.03 135.00 336.99 C 135.68 335.74 135.67 334.91 134.99 334.49 C 134.43 334.15 134.23 333.44 134.55 332.91 C 136.27 330.14 137.83 335.67 136.39 339.42 C 135.71 341.20 134.00 341.57 134.00 339.93 Z M 262.00 331.50 C 262.00 330.68 262.18 330.00 262.39 330.00 C 262.61 330.00 263.05 330.68 263.36 331.50 C 263.68 332.32 263.50 333.00 262.97 333.00 C 262.44 333.00 262.00 332.32 262.00 331.50 Z M 9.16 322.00 C 9.16 320.62 9.38 320.06 9.66 320.75 C 9.94 321.44 9.94 322.56 9.66 323.25 C 9.38 323.94 9.16 323.38 9.16 322.00 Z M 135.00 316.67 C 135.00 315.23 135.59 314.33 136.54 314.33 C 137.46 314.33 137.87 314.91 137.54 315.75 C 137.24 316.53 137.00 317.58 137.00 318.08 C 137.00 318.59 136.55 319.00 136.00 319.00 C 135.45 319.00 135.00 317.95 135.00 316.67 Z M 262.08 314.42 C 262.13 313.25 262.36 313.01 262.68 313.81 C 262.97 314.53 262.94 315.40 262.60 315.73 C 262.27 316.06 262.04 315.47 262.08 314.42 Z M 8.08 309.42 C 8.13 308.25 8.36 308.01 8.68 308.81 C 8.97 309.53 8.94 310.40 8.60 310.73 C 8.27 311.06 8.04 310.47 8.08 309.42 Z M 262.21 301.23 C 262.24 298.33 262.65 295.71 263.13 295.42 C 264.24 294.74 264.14 301.85 263.01 304.50 C 262.40 305.93 262.17 305.00 262.21 301.23 Z M 8.08 303.42 C 8.13 302.25 8.36 302.01 8.68 302.81 C 8.97 303.53 8.94 304.40 8.60 304.73 C 8.27 305.06 8.04 304.47 8.08 303.42 Z M 134.00 297.04 C 134.00 295.97 136.62 294.96 137.40 295.74 C 138.52 296.85 138.01 297.57 136.00 297.73 C 134.90 297.81 134.00 297.50 134.00 297.04 Z M 8.00 286.94 C 8.00 286.36 8.45 286.16 9.00 286.50 C 9.55 286.84 10.00 287.32 10.00 287.56 C 10.00 287.80 9.55 288.00 9.00 288.00 C 8.45 288.00 8.00 287.52 8.00 286.94 Z M 262.00 285.00 C 262.00 283.90 262.45 283.00 263.00 283.00 C 263.55 283.00 264.00 283.90 264.00 285.00 C 264.00 286.10 263.55 287.00 263.00 287.00 C 262.45 287.00 262.00 286.10 262.00 285.00 Z M 135.00 282.00 C 135.00 281.45 135.48 281.00 136.06 281.00 C 136.64 281.00 136.84 281.45 136.50 282.00 C 136.16 282.55 135.68 283.00 135.44 283.00 C 135.20 283.00 135.00 282.55 135.00 282.00 Z M 262.61 278.42 C 261.75 276.20 261.85 275.00 262.88 275.00 C 263.37 275.00 263.98 276.12 264.24 277.50 C 264.77 280.25 263.57 280.93 262.61 278.42 Z M 8.27 269.98 C 8.19 268.87 8.54 268.22 9.06 268.54 C 10.20 269.24 10.32 272.00 9.21 272.00 C 8.78 272.00 8.36 271.09 8.27 269.98 Z M 262.16 268.00 C 262.16 266.62 262.38 266.06 262.66 266.75 C 262.94 267.44 262.94 268.56 262.66 269.25 C 262.38 269.94 262.16 269.38 262.16 268.00 Z M 263.54 261.18 C 263.96 259.65 263.58 258.20 262.43 256.92 C 261.47 255.86 260.99 254.68 261.36 254.30 C 261.74 253.93 262.76 254.64 263.63 255.88 C 264.50 257.12 265.84 257.89 266.60 257.60 C 267.37 257.30 268.00 257.50 268.00 258.03 C 268.00 258.56 267.52 259.00 266.94 259.00 C 266.36 259.00 266.21 259.56 266.60 260.25 C 267.00 260.94 266.96 261.17 266.51 260.77 C 266.06 260.36 265.07 260.81 264.30 261.77 C 263.02 263.35 262.95 263.30 263.54 261.18 Z M 25.50 260.00 C 25.84 259.45 26.32 259.00 26.56 259.00 C 26.80 259.00 27.00 259.45 27.00 260.00 C 27.00 260.55 26.52 261.00 25.94 261.00 C 25.36 261.00 25.16 260.55 25.50 260.00 Z M 43.00 260.06 C 43.00 258.38 44.77 257.97 45.36 259.51 C 45.71 260.41 45.36 261.00 44.47 261.00 C 43.66 261.00 43.00 260.58 43.00 260.06 Z M 133.00 259.50 C 133.00 258.68 133.90 257.10 135.00 256.00 C 136.59 254.41 137.00 254.31 137.00 255.53 C 137.00 256.37 136.30 257.33 135.44 257.66 C 134.59 257.99 134.12 258.88 134.41 259.63 C 134.70 260.38 134.50 261.00 133.97 261.00 C 133.44 261.00 133.00 260.32 133.00 259.50 Z M 160.47 259.95 C 159.55 258.46 160.28 257.94 161.89 258.93 C 162.75 259.46 162.85 259.98 162.18 260.39 C 161.61 260.74 160.84 260.55 160.47 259.95 Z M 216.00 259.97 C 216.00 259.44 216.68 259.00 217.50 259.00 C 218.32 259.00 219.00 259.18 219.00 259.39 C 219.00 259.61 218.32 260.05 217.50 260.36 C 216.68 260.68 216.00 260.50 216.00 259.97 Z M 20.81 259.32 C 21.53 259.03 22.40 259.06 22.73 259.40 C 23.06 259.73 22.47 259.96 21.42 259.92 C 20.25 259.87 20.01 259.64 20.81 259.32 Z M 77.00 259.00 C 77.00 258.45 77.48 258.00 78.06 258.00 C 78.64 258.00 78.84 258.45 78.50 259.00 C 78.16 259.55 77.68 260.00 77.44 260.00 C 77.20 260.00 77.00 259.55 77.00 259.00 Z M 97.00 258.94 C 97.00 258.36 97.41 258.14 97.91 258.45 C 98.42 258.76 99.06 258.45 99.34 257.76 C 99.64 257.00 99.87 257.19 99.92 258.25 C 99.96 259.21 99.33 260.00 98.50 260.00 C 97.67 260.00 97.00 259.52 97.00 258.94 Z M 114.67 259.33 C 114.30 258.97 114.00 258.20 114.00 257.63 C 114.00 257.01 114.47 257.07 115.18 257.78 C 115.83 258.43 116.13 259.20 115.85 259.48 C 115.57 259.77 115.03 259.70 114.67 259.33 Z M 117.00 258.50 C 117.00 257.68 117.38 257.00 117.83 257.00 C 118.29 257.00 118.67 257.68 118.67 258.50 C 118.67 259.32 118.29 260.00 117.83 260.00 C 117.38 260.00 117.00 259.32 117.00 258.50 Z M 128.00 259.03 C 128.00 258.50 128.68 258.32 129.50 258.64 C 130.32 258.95 131.00 259.39 131.00 259.61 C 131.00 259.82 130.32 260.00 129.50 260.00 C 128.68 260.00 128.00 259.56 128.00 259.03 Z M 151.50 259.00 C 151.84 258.45 152.32 258.00 152.56 258.00 C 152.80 258.00 153.00 258.45 153.00 259.00 C 153.00 259.55 152.52 260.00 151.94 260.00 C 151.36 260.00 151.16 259.55 151.50 259.00 Z M 200.27 259.28 C 201.79 259.05 202.77 258.44 202.46 257.93 C 202.14 257.42 202.36 257.00 202.94 257.00 C 203.52 257.00 204.00 257.50 204.00 258.11 C 204.00 258.72 204.66 258.96 205.47 258.65 C 206.28 258.34 207.20 258.52 207.53 259.04 C 207.88 259.61 205.97 259.94 202.81 259.85 C 199.89 259.77 198.75 259.51 200.27 259.28 Z M 237.00 259.00 C 237.00 258.45 237.45 258.00 238.00 258.00 C 238.55 258.00 239.00 258.45 239.00 259.00 C 239.00 259.55 238.55 260.00 238.00 260.00 C 237.45 260.00 237.00 259.55 237.00 259.00 Z M 241.00 258.50 C 239.98 257.27 240.05 257.00 241.38 257.00 C 242.27 257.00 243.00 257.42 243.00 257.93 C 243.00 258.44 244.01 259.06 245.25 259.29 C 247.27 259.68 247.23 259.74 244.87 259.86 C 243.43 259.94 241.68 259.32 241.00 258.50 Z M 259.00 257.00 C 259.00 256.45 259.45 256.00 260.00 256.00 C 260.55 256.00 261.00 256.45 261.00 257.00 C 261.00 257.55 260.55 258.00 260.00 258.00 C 259.45 258.00 259.00 257.55 259.00 257.00 Z M 13.38 216.05 C 13.58 193.26 13.34 175.45 12.80 174.02 C 12.29 172.66 12.25 171.42 12.71 171.26 C 13.72 170.93 13.62 147.82 12.60 146.17 C 12.21 145.53 12.41 145.00 13.05 145.00 C 13.80 145.00 13.99 144.10 13.59 142.50 C 13.10 140.55 13.35 139.98 14.73 139.93 C 19.57 139.74 66.13 138.97 94.16 138.62 C 111.57 138.41 126.28 137.95 126.84 137.60 C 127.40 137.25 128.16 137.44 128.52 138.02 C 128.87 138.61 130.03 138.81 131.08 138.47 C 132.14 138.14 133.03 138.23 133.07 138.68 C 133.25 140.86 133.18 164.39 132.92 190.54 C 132.75 206.51 132.94 220.09 133.33 220.72 C 133.71 221.35 133.69 222.07 133.27 222.34 C 132.84 222.60 132.51 230.05 132.52 238.90 L 132.54 255.00 L 128.02 255.02 C 125.53 255.04 98.64 255.17 68.27 255.32 L 13.03 255.60 L 13.38 216.05 Z M 139.87 252.00 C 139.79 250.07 139.76 245.80 139.80 242.50 C 140.29 193.27 140.26 167.92 139.70 167.37 C 139.32 166.99 139.49 166.11 140.07 165.41 C 140.79 164.54 140.82 163.00 140.15 160.58 C 139.61 158.62 139.47 156.83 139.85 156.59 C 140.59 156.14 140.37 143.40 139.58 141.35 C 139.32 140.66 138.18 140.27 137.05 140.49 C 135.92 140.71 135.00 140.50 135.00 140.03 C 135.00 139.56 138.26 138.89 142.25 138.55 C 148.63 138.01 195.21 136.85 200.50 137.11 C 201.60 137.16 203.51 137.18 204.75 137.15 C 207.80 137.06 209.59 137.04 212.25 137.07 C 213.49 137.08 224.59 137.08 236.93 137.06 C 249.27 137.04 259.54 137.21 259.76 137.42 C 260.17 137.83 260.26 202.46 259.90 232.60 C 259.79 242.00 259.95 250.11 260.26 250.61 C 260.57 251.11 260.30 252.19 259.66 253.01 C 258.66 254.29 250.95 254.54 205.00 254.80 C 175.57 254.97 148.91 255.19 145.75 255.30 L 140.00 255.50 L 139.87 252.00 Z M 266.99 249.33 C 266.97 242.20 266.19 239.00 264.45 239.00 C 263.73 239.00 262.94 240.01 262.69 241.25 C 262.44 242.49 262.37 240.65 262.53 237.17 C 262.87 229.74 263.60 228.37 264.55 233.41 C 266.01 241.21 266.64 237.15 266.57 220.35 C 266.53 210.70 266.73 202.67 267.00 202.50 C 267.27 202.33 267.35 199.16 267.16 195.44 C 266.93 190.98 266.51 189.16 265.92 190.09 C 265.24 191.17 265.03 190.99 265.02 189.33 C 265.01 188.14 265.50 187.00 266.11 186.80 C 266.84 186.55 267.23 182.09 267.25 173.71 C 267.27 166.72 267.67 161.00 268.14 161.00 C 268.61 161.00 269.00 179.61 269.00 202.35 L 269.00 243.70 L 271.54 248.48 C 272.94 251.11 273.95 253.37 273.79 253.51 C 273.63 253.65 272.04 254.08 270.25 254.46 L 267.00 255.16 L 266.99 249.33 Z M 293.50 253.07 C 285.35 252.38 283.10 251.30 279.29 246.31 L 276.50 242.66 L 276.83 202.09 C 277.01 179.77 277.35 161.32 277.60 161.07 C 277.84 160.83 297.14 160.44 320.48 160.21 L 362.92 159.78 L 362.32 205.64 C 361.90 237.55 361.38 251.72 360.61 252.23 C 360.00 252.64 346.82 252.98 331.33 252.98 C 315.84 252.99 302.56 253.15 301.83 253.33 C 301.10 253.52 297.35 253.40 293.50 253.07 Z M 264.08 248.42 C 264.13 247.25 264.36 247.01 264.68 247.81 C 264.97 248.53 264.94 249.40 264.60 249.73 C 264.27 250.06 264.04 249.47 264.08 248.42 Z M 8.00 241.12 C 8.00 240.57 8.45 239.84 9.00 239.50 C 9.55 239.16 10.00 239.33 10.00 239.88 C 10.00 240.43 9.55 241.16 9.00 241.50 C 8.45 241.84 8.00 241.67 8.00 241.12 Z M 135.64 241.31 C 134.70 240.36 134.86 237.20 135.89 236.57 C 136.37 236.27 136.99 237.15 137.25 238.54 C 137.73 241.03 136.86 242.53 135.64 241.31 Z M 136.50 235.00 C 136.16 234.45 136.36 234.00 136.94 234.00 C 137.52 234.00 138.00 234.45 138.00 235.00 C 138.00 235.55 137.80 236.00 137.56 236.00 C 137.32 236.00 136.84 235.55 136.50 235.00 Z M 136.50 224.00 C 136.84 223.45 137.32 223.00 137.56 223.00 C 137.80 223.00 138.00 223.45 138.00 224.00 C 138.00 224.55 137.52 225.00 136.94 225.00 C 136.36 225.00 136.16 224.55 136.50 224.00 Z M 262.03 221.50 C 262.03 219.85 262.47 217.82 263.00 217.00 C 263.74 215.85 263.97 216.20 263.97 218.50 C 263.97 220.15 263.53 222.18 263.00 223.00 C 262.26 224.15 262.03 223.80 262.03 221.50 Z M 135.00 220.17 C 135.00 219.62 135.56 218.96 136.25 218.71 C 137.25 218.35 137.25 217.84 136.25 216.14 C 134.56 213.29 134.68 212.49 136.55 214.04 C 138.33 215.52 138.12 220.14 136.25 220.76 C 135.56 220.98 135.00 220.72 135.00 220.17 Z M 10.00 214.00 C 10.00 213.45 10.48 213.00 11.06 213.00 C 11.64 213.00 11.84 213.45 11.50 214.00 C 11.16 214.55 10.68 215.00 10.44 215.00 C 10.20 215.00 10.00 214.55 10.00 214.00 Z M 262.08 211.42 C 262.13 210.25 262.36 210.01 262.68 210.81 C 262.97 211.53 262.94 212.40 262.60 212.73 C 262.27 213.06 262.04 212.47 262.08 211.42 Z M 135.50 204.00 C 135.84 203.45 136.32 203.00 136.56 203.00 C 136.80 203.00 137.00 203.45 137.00 204.00 C 137.00 204.55 136.52 205.00 135.94 205.00 C 135.36 205.00 135.16 204.55 135.50 204.00 Z M 135.54 201.07 C 135.23 200.56 135.38 199.88 135.88 199.57 C 136.38 199.26 137.05 199.68 137.36 200.51 C 137.99 202.13 136.48 202.59 135.54 201.07 Z M 263.91 200.12 C 262.56 199.60 262.50 199.06 263.52 196.59 L 264.73 193.69 L 265.25 197.09 C 265.85 201.09 265.93 200.92 263.91 200.12 Z M 9.50 198.00 C 9.84 197.45 10.32 197.00 10.56 197.00 C 10.80 197.00 11.00 197.45 11.00 198.00 C 11.00 198.55 10.52 199.00 9.94 199.00 C 9.36 199.00 9.16 198.55 9.50 198.00 Z M 136.50 198.00 C 136.16 197.45 136.36 197.00 136.94 197.00 C 137.52 197.00 138.00 197.45 138.00 198.00 C 138.00 198.55 137.80 199.00 137.56 199.00 C 137.32 199.00 136.84 198.55 136.50 198.00 Z M 8.00 187.00 C 8.00 186.45 8.68 186.00 9.50 186.00 C 10.32 186.00 11.00 186.45 11.00 187.00 C 11.00 187.55 10.32 188.00 9.50 188.00 C 8.68 188.00 8.00 187.55 8.00 187.00 Z M 135.12 180.75 C 135.20 179.04 135.34 178.92 135.69 180.26 C 135.94 181.23 136.54 181.79 137.01 181.50 C 137.48 181.21 138.14 181.42 138.49 181.98 C 138.84 182.55 138.20 183.00 137.06 183.00 C 135.56 183.00 135.03 182.39 135.12 180.75 Z M 9.00 175.44 C 9.00 173.99 9.43 173.15 10.00 173.50 C 10.55 173.84 11.00 174.99 11.00 176.06 C 11.00 177.13 10.55 178.00 10.00 178.00 C 9.45 178.00 9.00 176.85 9.00 175.44 Z M 265.12 171.33 C 265.05 170.69 264.71 169.34 264.35 168.33 C 263.85 166.91 263.98 166.76 264.95 167.64 C 265.63 168.27 265.97 169.62 265.71 170.64 C 265.45 171.66 265.18 171.97 265.12 171.33 Z M 135.29 165.28 C 135.22 162.82 135.47 162.13 136.08 163.09 C 137.19 164.86 137.26 167.72 136.20 168.38 C 135.75 168.65 135.35 167.26 135.29 165.28 Z M 9.02 165.81 C 9.01 164.88 9.45 163.84 10.00 163.50 C 11.27 162.72 11.27 164.04 10.00 166.00 C 9.16 167.29 9.03 167.27 9.02 165.81 Z M 263.00 162.03 C 263.00 161.50 263.68 161.32 264.50 161.64 C 265.32 161.95 266.00 162.39 266.00 162.61 C 266.00 162.82 265.32 163.00 264.50 163.00 C 263.68 163.00 263.00 162.56 263.00 162.03 Z M 136.00 159.00 C 136.00 158.45 136.45 158.00 137.00 158.00 C 137.55 158.00 138.00 158.45 138.00 159.00 C 138.00 159.55 137.55 160.00 137.00 160.00 C 136.45 160.00 136.00 159.55 136.00 159.00 Z M 137.08 149.42 C 137.13 148.25 137.36 148.01 137.68 148.81 C 137.97 149.53 137.94 150.40 137.60 150.73 C 137.27 151.06 137.04 150.47 137.08 149.42 Z M 8.50 145.00 C 8.16 144.45 8.33 144.00 8.88 144.00 C 9.43 144.00 10.16 144.45 10.50 145.00 C 10.84 145.55 10.67 146.00 10.12 146.00 C 9.57 146.00 8.84 145.55 8.50 145.00 Z M 135.81 142.32 C 136.53 142.03 137.40 142.06 137.73 142.40 C 138.06 142.73 137.47 142.96 136.42 142.92 C 135.25 142.87 135.01 142.64 135.81 142.32 Z M 9.00 140.94 C 9.00 140.36 9.45 140.16 10.00 140.50 C 10.55 140.84 11.00 141.32 11.00 141.56 C 11.00 141.80 10.55 142.00 10.00 142.00 C 9.45 142.00 9.00 141.52 9.00 140.94 Z M 33.50 137.00 C 33.84 136.45 34.32 136.00 34.56 136.00 C 34.80 136.00 35.00 136.45 35.00 137.00 C 35.00 137.55 34.52 138.00 33.94 138.00 C 33.36 138.00 33.16 137.55 33.50 137.00 Z M 40.50 136.00 C 40.16 135.45 40.36 135.00 40.94 135.00 C 41.52 135.00 42.00 135.45 42.00 136.00 C 42.00 136.55 41.80 137.00 41.56 137.00 C 41.32 137.00 40.84 136.55 40.50 136.00 Z M 130.02 135.81 C 130.01 134.88 130.45 133.84 131.00 133.50 C 132.27 132.72 132.27 134.04 131.00 136.00 C 130.16 137.29 130.03 137.27 130.02 135.81 Z M 165.72 136.39 C 165.00 135.66 164.67 125.00 165.37 125.00 C 165.58 125.00 167.89 125.95 170.51 127.11 C 175.04 129.11 176.55 129.20 200.39 128.81 C 223.66 128.44 225.86 128.25 230.38 126.21 C 233.06 124.99 235.42 124.00 235.63 124.00 C 236.42 124.00 235.92 129.58 235.00 131.00 C 234.35 132.00 234.03 132.08 234.02 131.25 C 234.00 130.39 232.44 130.07 229.00 130.22 C 226.25 130.34 224.00 130.88 224.00 131.42 C 224.00 132.04 223.65 132.05 223.05 131.45 C 221.89 130.28 204.77 130.82 205.50 132.00 C 205.79 132.48 205.58 133.14 205.02 133.49 C 204.46 133.84 204.00 133.41 204.00 132.54 C 204.00 131.16 201.69 130.98 185.00 131.09 C 168.62 131.19 163.32 131.80 166.87 133.17 C 167.34 133.35 167.44 134.31 167.08 135.30 C 166.73 136.29 166.11 136.78 165.72 136.39 Z M 122.44 134.53 C 120.57 133.12 120.60 133.06 123.08 133.03 C 124.73 133.01 125.67 133.55 125.67 134.50 C 125.67 136.38 124.90 136.39 122.44 134.53 Z M 180.00 134.47 C 180.00 132.85 181.56 132.48 182.44 133.90 C 182.74 134.39 182.32 135.05 181.49 135.36 C 180.59 135.71 180.00 135.36 180.00 134.47 Z M 195.00 135.00 C 195.00 134.45 195.70 134.00 196.56 134.00 C 197.42 134.00 197.84 134.45 197.50 135.00 C 197.16 135.55 196.46 136.00 195.94 136.00 C 195.42 136.00 195.00 135.55 195.00 135.00 Z M 214.00 134.75 C 214.00 133.97 214.69 133.33 215.53 133.33 C 217.26 133.33 217.00 135.17 215.19 135.77 C 214.53 135.99 214.00 135.53 214.00 134.75 Z M 229.00 134.58 C 229.00 133.80 228.44 132.94 227.75 132.66 C 227.06 132.38 227.47 132.12 228.66 132.08 C 230.34 132.02 230.70 132.44 230.29 134.00 C 229.68 136.32 229.00 136.63 229.00 134.58 Z M 84.81 134.32 C 85.53 134.03 86.40 134.06 86.73 134.40 C 87.06 134.73 86.47 134.96 85.42 134.92 C 84.25 134.87 84.01 134.64 84.81 134.32 Z M 104.50 134.00 C 104.16 133.45 104.36 133.00 104.94 133.00 C 105.52 133.00 106.00 133.45 106.00 134.00 C 106.00 134.55 105.80 135.00 105.56 135.00 C 105.32 135.00 104.84 134.55 104.50 134.00 Z M 175.79 120.93 C 171.39 119.74 167.22 116.20 166.13 112.73 C 165.57 110.95 164.85 93.68 164.53 74.34 L 163.96 39.18 L 172.23 38.62 C 176.78 38.31 192.76 37.86 207.75 37.62 L 235.00 37.18 L 235.12 48.84 C 235.18 55.25 235.37 71.53 235.54 85.00 C 235.89 112.34 235.64 113.70 229.48 117.89 C 226.54 119.89 224.47 120.34 216.73 120.63 C 193.96 121.49 178.29 121.61 175.79 120.93 Z M 101.39 101.37 C 111.05 96.63 118.74 92.39 118.47 91.95 C 118.20 91.52 113.60 90.20 108.24 89.02 C 102.88 87.84 95.80 86.28 92.50 85.54 C 89.20 84.80 85.07 83.94 83.33 83.64 L 80.15 83.08 L 80.72 88.54 C 81.19 93.16 81.03 94.00 79.64 94.00 C 78.56 94.00 78.00 94.85 78.00 96.50 C 78.00 98.28 78.54 99.00 79.88 99.00 C 81.77 99.00 83.00 102.38 83.00 107.62 C 83.00 108.93 83.18 110.00 83.41 110.00 C 83.63 110.00 91.72 106.12 101.39 101.37 Z M 69.82 96.39 C 69.52 93.93 69.11 93.74 63.17 93.33 C 57.03 92.90 56.86 92.95 57.17 95.19 C 57.43 97.04 58.31 97.62 61.50 98.11 C 69.66 99.35 70.16 99.24 69.82 96.39 Z M 49.82 92.88 C 49.39 90.04 39.25 86.00 37.90 88.14 C 36.32 90.61 36.95 91.57 41.25 93.22 C 47.48 95.61 50.22 95.50 49.82 92.88 Z M 31.64 84.49 C 32.44 82.42 24.20 75.13 21.79 75.77 C 18.94 76.51 19.68 78.57 24.18 82.42 C 28.70 86.29 30.73 86.86 31.64 84.49 Z M 18.00 70.01 C 19.24 69.22 19.28 68.75 18.22 67.28 C 17.51 66.30 16.20 63.81 15.31 61.75 C 13.76 58.15 10.89 56.75 9.54 58.93 C 8.68 60.33 13.69 71.00 15.19 70.98 C 15.91 70.98 17.18 70.54 18.00 70.01 Z M 10.66 49.75 C 10.35 48.51 9.79 45.59 9.42 43.25 C 8.91 40.06 8.29 39.00 6.93 39.00 C 4.16 39.00 3.76 40.54 5.00 46.51 C 6.02 51.42 6.41 52.00 8.68 52.00 C 10.81 52.00 11.13 51.64 10.66 49.75 Z M 8.16 25.87 C 8.51 19.58 7.70 18.14 4.50 19.36 C 3.42 19.77 3.00 21.46 3.00 25.30 C 3.00 31.11 3.41 32.00 6.08 32.00 C 7.51 32.00 7.88 30.90 8.16 25.87 Z" fill="none" stroke="rgba(255,255,255,0.92)" stroke-width="1.5" stroke-linejoin="round" fill-rule="evenodd"/>
</svg>
