<svg xmlns="http://www.w3.org/2000/svg" viewBox="0 0 400 289" width="400" height="289">
  <path d="M 0.00 144.50 L 0.00 0.00 L 200.00 0.00 L 400.00 0.00 L 400.00 144.50 L 400.00 289.00 L 200.00 289.00 L 0.00 289.00 L 0.00 144.50 Z M 89.87 282.58 C 90.41 282.24 91.16 282.44 91.52 283.02 C 91.89 283.63 93.10 283.77 94.33 283.37 C 95.53 282.97 143.75 282.55 201.50 282.43 C 307.72 282.21 386.61 281.36 388.13 280.42 C 388.59 280.14 389.76 280.32 390.73 280.82 C 391.70 281.32 392.95 281.57 393.50 281.37 C 394.15 281.13 394.42 269.05 394.28 247.25 C 394.15 228.69 394.03 168.15 393.99 112.72 C 393.96 57.29 393.67 10.59 393.34 8.93 L 392.73 5.92 L 369.62 6.52 C 356.90 6.84 337.50 7.30 326.50 7.52 C 303.78 7.98 174.01 8.98 75.00 9.45 C 38.42 9.62 8.14 9.82 7.71 9.88 C 6.91 10.00 6.87 279.01 7.67 282.17 C 8.05 283.70 11.41 283.81 48.48 283.52 C 70.70 283.34 89.32 282.92 89.87 282.58 Z M 64.50 280.00 C 64.84 279.45 65.32 279.00 65.56 279.00 C 65.80 279.00 66.00 279.45 66.00 280.00 C 66.00 280.55 65.52 281.00 64.94 281.00 C 64.36 281.00 64.16 280.55 64.50 280.00 Z M 182.67 280.33 C 181.36 279.02 182.03 277.00 183.75 277.08 C 184.71 277.12 184.96 277.38 184.31 277.64 C 183.65 277.91 183.36 278.78 183.66 279.56 C 184.25 281.08 183.78 281.44 182.67 280.33 Z M 107.50 279.00 C 107.84 278.45 108.32 278.00 108.56 278.00 C 108.80 278.00 109.00 278.45 109.00 279.00 C 109.00 279.55 108.52 280.00 107.94 280.00 C 107.36 280.00 107.16 279.55 107.50 279.00 Z M 131.29 278.55 C 130.34 277.47 130.41 277.06 131.63 276.59 C 132.47 276.27 133.26 276.00 133.37 276.00 C 133.48 276.00 133.64 276.90 133.73 278.00 C 133.90 280.31 133.02 280.51 131.29 278.55 Z M 291.08 278.42 C 291.13 277.25 291.36 277.01 291.68 277.81 C 291.97 278.53 291.94 279.40 291.60 279.73 C 291.27 280.06 291.04 279.47 291.08 278.42 Z M 14.50 214.02 L 14.50 151.00 L 17.50 150.51 C 22.32 149.72 130.81 149.26 132.04 150.02 C 133.24 150.76 134.13 269.28 132.96 272.61 C 132.63 273.56 131.49 274.47 130.43 274.65 C 129.37 274.82 104.65 275.20 75.50 275.49 C 46.35 275.78 20.70 276.25 18.50 276.53 L 14.50 277.05 L 14.50 214.02 Z M 214.53 275.19 C 214.36 275.03 197.75 274.86 177.61 274.82 C 144.57 274.75 140.99 274.59 140.91 273.12 C 140.31 261.93 140.46 151.88 141.08 150.87 C 141.72 149.83 145.22 149.47 155.71 149.37 C 174.64 149.19 174.30 149.23 173.68 147.60 C 173.07 146.02 176.66 144.63 177.56 146.09 C 177.87 146.59 177.38 147.00 176.48 147.00 C 175.57 147.00 175.01 147.54 175.24 148.21 C 175.53 149.09 180.09 149.37 192.45 149.25 C 201.69 149.15 209.49 148.84 209.78 148.55 C 210.08 148.26 210.84 148.45 211.49 148.99 C 212.23 149.61 213.85 149.62 215.96 149.01 C 217.77 148.49 219.99 148.41 220.88 148.82 C 221.77 149.24 225.65 149.43 229.50 149.25 C 233.35 149.07 237.18 148.94 238.00 148.97 C 238.82 148.99 243.89 149.03 249.25 149.06 L 259.00 149.11 L 259.04 162.80 C 259.06 170.34 259.20 198.66 259.35 225.75 L 259.63 275.00 L 247.07 275.03 C 240.15 275.04 230.07 275.16 224.66 275.28 C 219.26 275.40 214.69 275.36 214.53 275.19 Z M 266.96 269.66 C 266.94 266.82 266.71 238.51 266.46 206.75 C 266.05 155.33 266.16 149.00 267.53 149.00 C 268.37 149.00 269.32 148.33 269.64 147.50 C 269.95 146.68 270.60 146.00 271.08 146.00 C 271.55 146.00 271.68 146.68 271.36 147.50 C 270.71 149.19 272.16 149.37 283.50 148.98 C 287.35 148.85 298.60 148.69 308.50 148.62 C 318.40 148.55 327.03 148.16 327.68 147.73 C 328.33 147.31 329.13 147.40 329.45 147.92 C 329.93 148.69 343.18 148.65 346.67 147.87 C 347.13 147.77 348.25 148.01 349.17 148.42 C 350.09 148.82 351.78 148.65 352.92 148.04 C 354.34 147.28 355.59 147.25 356.87 147.93 C 357.90 148.48 358.97 148.70 359.25 148.42 C 359.66 148.00 385.78 147.00 386.09 147.39 C 386.14 147.45 386.37 175.74 386.61 210.25 L 387.04 273.00 L 384.27 273.10 C 377.46 273.34 340.33 273.94 305.25 274.36 L 267.00 274.82 L 266.96 269.66 Z M 390.16 258.00 C 390.16 256.62 390.38 256.06 390.66 256.75 C 390.94 257.44 390.94 258.56 390.66 259.25 C 390.38 259.94 390.16 259.38 390.16 258.00 Z M 390.50 254.00 C 390.16 253.45 390.36 253.00 390.94 253.00 C 391.52 253.00 392.00 253.45 392.00 254.00 C 392.00 254.55 391.80 255.00 391.56 255.00 C 391.32 255.00 390.84 254.55 390.50 254.00 Z M 261.50 250.00 C 261.16 249.45 261.36 249.00 261.94 249.00 C 262.52 249.00 263.00 249.45 263.00 250.00 C 263.00 250.55 262.80 251.00 262.56 251.00 C 262.32 251.00 261.84 250.55 261.50 250.00 Z M 390.08 238.42 C 390.13 237.25 390.36 237.01 390.68 237.81 C 390.97 238.53 390.94 239.40 390.60 239.73 C 390.27 240.06 390.04 239.47 390.08 238.42 Z M 389.65 231.53 C 389.34 230.72 389.52 229.80 390.04 229.47 C 390.57 229.15 391.00 229.81 391.00 230.94 C 391.00 233.36 390.44 233.60 389.65 231.53 Z M 136.39 226.42 C 136.73 225.55 137.03 224.31 137.07 223.67 C 137.11 223.03 137.53 223.40 138.00 224.50 C 139.27 227.45 139.17 228.00 137.39 228.00 C 136.34 228.00 135.99 227.46 136.39 226.42 Z M 389.54 226.07 C 389.23 225.56 389.42 224.86 389.98 224.51 C 390.54 224.16 391.00 224.58 391.00 225.44 C 391.00 227.20 390.40 227.46 389.54 226.07 Z M 137.00 206.94 C 137.00 206.36 137.45 206.16 138.00 206.50 C 138.55 206.84 139.00 207.32 139.00 207.56 C 139.00 207.80 138.55 208.00 138.00 208.00 C 137.45 208.00 137.00 207.52 137.00 206.94 Z M 262.33 199.50 C 262.33 198.68 262.71 198.00 263.17 198.00 C 263.62 198.00 264.00 198.68 264.00 199.50 C 264.00 200.32 263.62 201.00 263.17 201.00 C 262.71 201.00 262.33 200.32 262.33 199.50 Z M 12.08 196.42 C 12.13 195.25 12.36 195.01 12.68 195.81 C 12.97 196.53 12.94 197.40 12.60 197.73 C 12.27 198.06 12.04 197.47 12.08 196.42 Z M 11.00 181.00 C 11.00 180.45 11.48 180.00 12.06 180.00 C 12.64 180.00 12.84 180.45 12.50 181.00 C 12.16 181.55 11.68 182.00 11.44 182.00 C 11.20 182.00 11.00 181.55 11.00 181.00 Z M 263.16 180.00 C 263.16 178.62 263.38 178.06 263.66 178.75 C 263.94 179.44 263.94 180.56 263.66 181.25 C 263.38 181.94 263.16 181.38 263.16 180.00 Z M 390.08 171.42 C 390.13 170.25 390.36 170.01 390.68 170.81 C 390.97 171.53 390.94 172.40 390.60 172.73 C 390.27 173.06 390.04 172.47 390.08 171.42 Z M 137.00 169.00 C 137.00 168.45 137.45 168.00 138.00 168.00 C 138.55 168.00 139.00 168.45 139.00 169.00 C 139.00 169.55 138.55 170.00 138.00 170.00 C 137.45 170.00 137.00 169.55 137.00 169.00 Z M 390.08 163.42 C 390.13 162.25 390.36 162.01 390.68 162.81 C 390.97 163.53 390.94 164.40 390.60 164.73 C 390.27 165.06 390.04 164.47 390.08 163.42 Z M 389.00 159.94 C 389.00 159.36 389.45 159.16 390.00 159.50 C 390.55 159.84 391.00 160.32 391.00 160.56 C 391.00 160.80 390.55 161.00 390.00 161.00 C 389.45 161.00 389.00 160.52 389.00 159.94 Z M 12.08 157.42 C 12.13 156.25 12.36 156.01 12.68 156.81 C 12.97 157.53 12.94 158.40 12.60 158.73 C 12.27 159.06 12.04 158.47 12.08 157.42 Z M 261.50 158.00 C 261.84 157.45 262.32 157.00 262.56 157.00 C 262.80 157.00 263.00 157.45 263.00 158.00 C 263.00 158.55 262.52 159.00 261.94 159.00 C 261.36 159.00 261.16 158.55 261.50 158.00 Z M 261.81 152.32 C 262.53 152.03 263.40 152.06 263.73 152.40 C 264.06 152.73 263.47 152.96 262.42 152.92 C 261.25 152.87 261.01 152.64 261.81 152.32 Z M 389.45 151.91 C 389.08 151.31 389.28 150.32 389.89 149.71 C 390.70 148.90 391.00 149.18 391.00 150.80 C 391.00 153.21 390.48 153.59 389.45 151.91 Z M 10.00 148.97 C 10.00 147.53 12.12 146.72 13.15 147.75 C 13.79 148.39 13.41 148.92 12.07 149.27 C 10.93 149.57 10.00 149.43 10.00 148.97 Z M 24.81 147.32 C 25.53 147.03 26.40 147.06 26.73 147.40 C 27.06 147.73 26.47 147.96 25.42 147.92 C 24.25 147.87 24.01 147.64 24.81 147.32 Z M 72.64 147.31 C 71.51 146.18 71.95 145.00 73.50 145.00 C 74.33 145.00 75.00 145.42 75.00 145.94 C 75.00 147.20 73.44 148.11 72.64 147.31 Z M 80.00 146.36 C 80.00 144.85 80.57 144.78 83.47 145.91 C 85.24 146.60 85.17 146.74 82.72 147.20 C 80.84 147.56 80.00 147.30 80.00 146.36 Z M 87.00 147.00 C 87.00 146.45 87.45 146.00 88.00 146.00 C 88.55 146.00 89.00 146.45 89.00 147.00 C 89.00 147.55 88.55 148.00 88.00 148.00 C 87.45 148.00 87.00 147.55 87.00 147.00 Z M 113.50 147.00 C 113.16 146.45 113.58 146.00 114.44 146.00 C 115.30 146.00 116.00 146.45 116.00 147.00 C 116.00 147.55 115.58 148.00 115.06 148.00 C 114.54 148.00 113.84 147.55 113.50 147.00 Z M 119.50 147.00 C 119.16 146.45 119.36 146.00 119.94 146.00 C 120.52 146.00 121.00 146.45 121.00 147.00 C 121.00 147.55 120.80 148.00 120.56 148.00 C 120.32 148.00 119.84 147.55 119.50 147.00 Z M 202.67 147.27 C 202.42 146.84 202.84 145.92 203.60 145.21 C 204.75 144.15 205.00 144.19 205.00 145.40 C 205.00 147.10 203.37 148.41 202.67 147.27 Z M 221.00 147.00 C 221.00 146.45 221.48 146.00 222.06 146.00 C 222.64 146.00 222.84 146.45 222.50 147.00 C 222.16 147.55 221.68 148.00 221.44 148.00 C 221.20 148.00 221.00 147.55 221.00 147.00 Z M 46.81 146.32 C 47.53 146.03 48.40 146.06 48.73 146.40 C 49.06 146.73 48.47 146.96 47.42 146.92 C 46.25 146.87 46.01 146.64 46.81 146.32 Z M 52.00 146.00 C 52.00 145.45 52.45 145.00 53.00 145.00 C 53.55 145.00 54.00 145.45 54.00 146.00 C 54.00 146.55 53.55 147.00 53.00 147.00 C 52.45 147.00 52.00 146.55 52.00 146.00 Z M 65.81 146.32 C 66.53 146.03 67.40 146.06 67.73 146.40 C 68.06 146.73 67.47 146.96 66.42 146.92 C 65.25 146.87 65.01 146.64 65.81 146.32 Z M 92.80 145.80 C 93.73 144.87 94.27 144.87 95.20 145.80 C 96.13 146.73 95.87 147.00 94.00 147.00 C 92.13 147.00 91.87 146.73 92.80 145.80 Z M 98.00 146.00 C 98.00 145.45 98.67 145.00 99.50 145.00 C 100.33 145.00 101.00 145.45 101.00 146.00 C 101.00 146.55 100.33 147.00 99.50 147.00 C 98.67 147.00 98.00 146.55 98.00 146.00 Z M 155.00 146.00 C 155.00 144.79 157.80 143.47 158.63 144.30 C 158.93 144.59 158.23 145.34 157.09 145.95 C 155.64 146.73 155.00 146.74 155.00 146.00 Z M 206.00 146.61 C 206.00 146.39 206.68 145.95 207.50 145.64 C 208.32 145.32 209.00 145.50 209.00 146.03 C 209.00 146.56 208.32 147.00 207.50 147.00 C 206.68 147.00 206.00 146.82 206.00 146.61 Z M 210.00 145.50 C 208.99 144.28 209.04 144.00 210.27 144.00 C 211.10 144.00 212.05 144.68 212.36 145.50 C 212.68 146.32 212.56 147.00 212.09 147.00 C 211.63 147.00 210.68 146.32 210.00 145.50 Z M 256.25 145.75 C 256.48 145.06 257.51 144.34 258.55 144.13 C 260.18 143.82 260.26 143.99 259.10 145.38 C 257.51 147.30 255.66 147.53 256.25 145.75 Z M 277.00 146.00 C 277.00 145.45 277.68 145.00 278.50 145.00 C 279.32 145.00 280.00 145.45 280.00 146.00 C 280.00 146.55 279.32 147.00 278.50 147.00 C 277.68 147.00 277.00 146.55 277.00 146.00 Z M 283.81 146.32 C 284.53 146.03 285.40 146.06 285.73 146.40 C 286.06 146.73 285.47 146.96 284.42 146.92 C 283.25 146.87 283.01 146.64 283.81 146.32 Z M 295.00 146.19 C 295.00 145.66 295.93 144.99 297.06 144.70 C 298.37 144.35 298.97 144.58 298.72 145.33 C 298.25 146.77 295.00 147.52 295.00 146.19 Z M 304.81 146.32 C 305.53 146.03 306.40 146.06 306.73 146.40 C 307.06 146.73 306.47 146.96 305.42 146.92 C 304.25 146.87 304.01 146.64 304.81 146.32 Z M 311.67 146.33 C 310.71 145.38 310.84 144.00 311.89 144.00 C 312.38 144.00 313.05 144.68 313.36 145.50 C 313.95 147.02 312.88 147.55 311.67 146.33 Z M 323.48 145.98 C 322.65 144.63 324.84 143.81 326.61 144.80 C 328.02 145.59 327.96 145.78 326.12 146.26 C 324.95 146.56 323.77 146.44 323.48 145.98 Z M 385.50 146.00 C 385.16 145.45 385.61 145.00 386.50 145.00 C 387.39 145.00 387.84 145.45 387.50 146.00 C 387.16 146.55 386.71 147.00 386.50 147.00 C 386.29 147.00 385.84 146.55 385.50 146.00 Z M 183.00 145.00 C 183.00 144.45 183.45 144.00 184.00 144.00 C 184.55 144.00 185.00 144.45 185.00 145.00 C 185.00 145.55 184.55 146.00 184.00 146.00 C 183.45 146.00 183.00 145.55 183.00 145.00 Z M 317.27 145.31 C 318.24 145.05 319.59 145.07 320.27 145.34 C 320.95 145.62 320.15 145.83 318.50 145.81 C 316.85 145.78 316.30 145.56 317.27 145.31 Z M 341.50 145.00 C 341.84 144.45 342.32 144.00 342.56 144.00 C 342.80 144.00 343.00 144.45 343.00 145.00 C 343.00 145.55 342.52 146.00 341.94 146.00 C 341.36 146.00 341.16 145.55 341.50 145.00 Z M 137.00 143.85 C 137.00 142.32 138.82 142.08 139.96 143.45 C 140.93 144.62 140.77 144.86 139.08 144.73 C 137.93 144.64 137.00 144.25 137.00 143.85 Z M 376.00 144.12 C 376.00 143.57 376.45 142.84 377.00 142.50 C 377.55 142.16 378.00 142.33 378.00 142.88 C 378.00 143.43 377.55 144.16 377.00 144.50 C 376.45 144.84 376.00 144.67 376.00 144.12 Z M 10.22 141.00 L 10.13 138.00 L 20.32 137.99 C 25.92 137.99 54.00 137.69 82.73 137.34 L 134.96 136.68 L 133.73 139.33 L 132.50 141.98 L 113.50 142.08 C 103.05 142.14 76.39 142.35 54.25 142.55 C 14.85 142.90 14.00 142.87 14.00 140.96 C 14.00 139.88 13.55 139.00 13.00 139.00 C 12.45 139.00 12.00 140.12 12.00 141.50 C 12.00 145.08 10.32 144.60 10.22 141.00 Z M 389.62 143.20 C 389.35 142.76 389.55 141.75 390.05 140.95 C 390.77 139.82 390.97 139.99 390.98 141.75 C 391.00 144.06 390.49 144.61 389.62 143.20 Z M 181.79 142.12 C 180.85 141.78 171.28 141.59 160.54 141.70 C 143.37 141.88 141.00 141.71 141.00 140.34 C 141.00 139.20 140.31 138.90 138.48 139.25 C 135.54 139.81 134.20 138.52 136.72 137.55 C 139.30 136.56 257.29 135.94 258.85 136.91 C 259.87 137.54 259.94 138.24 259.15 139.71 C 258.14 141.62 256.94 141.68 222.80 141.57 C 203.39 141.51 186.60 141.74 185.50 142.09 C 184.40 142.44 182.73 142.45 181.79 142.12 Z M 265.66 139.81 C 265.23 138.17 264.81 138.03 263.07 138.96 C 261.42 139.85 261.00 139.78 261.00 138.62 C 261.00 136.47 268.44 136.14 331.32 135.54 L 387.13 135.00 L 386.44 137.25 C 386.06 138.49 385.67 139.60 385.58 139.71 C 385.32 140.04 333.12 141.06 297.84 141.43 C 267.09 141.76 266.16 141.71 265.66 139.81 Z M 388.00 137.61 C 388.00 136.11 390.43 134.76 391.39 135.73 C 392.10 136.43 390.12 139.00 388.88 139.00 C 388.39 139.00 388.00 138.37 388.00 137.61 Z M 23.67 129.33 C 22.89 128.56 28.59 121.29 30.96 120.02 C 32.02 119.45 74.32 118.86 136.62 118.53 C 193.75 118.24 269.98 117.76 306.00 117.46 L 371.51 116.92 L 375.94 121.44 C 378.38 123.93 380.18 126.15 379.94 126.39 C 379.33 127.00 281.70 127.89 142.54 128.57 C 78.21 128.88 25.29 129.32 24.93 129.54 C 24.57 129.76 24.00 129.67 23.67 129.33 Z M 15.55 122.09 C 15.24 121.58 15.03 101.90 15.08 78.34 L 15.17 35.50 L 19.59 40.35 L 24.00 45.19 L 24.00 80.60 C 24.00 103.31 23.64 116.00 23.01 116.00 C 22.46 116.00 21.00 117.57 19.76 119.49 C 17.42 123.09 16.52 123.65 15.55 122.09 Z M 381.25 115.06 L 377.00 110.13 L 377.00 76.77 L 377.00 43.42 L 381.52 38.98 L 386.03 34.55 L 385.98 77.28 C 385.95 100.77 385.83 120.00 385.71 120.00 C 385.60 120.00 383.59 117.78 381.25 115.06 Z M 32.63 110.29 C 32.28 109.95 32.00 96.02 32.00 79.33 L 32.00 49.00 L 87.25 48.95 C 159.50 48.89 269.21 48.21 324.76 47.49 L 369.03 46.91 L 368.76 77.55 L 368.50 108.19 L 359.00 108.52 C 353.77 108.70 297.08 109.10 233.00 109.42 C 168.92 109.74 97.77 110.20 74.88 110.46 C 51.98 110.71 32.97 110.64 32.63 110.29 Z M 26.67 36.25 C 23.47 32.95 22.29 31.11 23.17 30.80 C 23.90 30.54 73.55 30.24 133.50 30.13 C 238.28 29.95 260.16 29.77 343.00 28.44 L 380.50 27.84 L 375.44 32.97 L 370.38 38.10 L 336.94 38.91 C 318.55 39.36 270.20 39.79 229.50 39.86 C 188.80 39.93 127.60 40.27 93.50 40.61 L 31.50 41.22 L 26.67 36.25 Z M 15.67 22.18 C 14.75 22.00 14.00 20.99 14.00 19.93 C 14.00 17.28 14.35 16.45 15.33 16.78 C 16.27 17.09 51.34 17.07 100.20 16.73 L 132.91 16.50 L 133.50 18.87 C 133.83 20.17 133.94 21.40 133.74 21.59 C 133.29 22.04 17.92 22.61 15.67 22.18 Z M 140.51 18.78 C 140.86 14.50 140.81 14.60 142.25 15.74 C 143.69 16.87 256.02 16.72 257.86 15.59 C 258.61 15.12 259.00 15.87 259.00 17.81 C 259.00 20.38 258.57 20.81 255.50 21.31 C 253.58 21.62 226.86 21.92 196.12 21.97 L 140.23 22.06 L 140.51 18.78 Z M 266.00 18.66 L 266.00 16.00 L 275.25 15.91 C 321.38 15.44 383.02 14.27 385.00 13.83 C 385.98 13.61 386.60 14.40 386.80 16.10 L 387.10 18.69 L 376.30 19.32 C 370.36 19.67 343.11 20.26 315.75 20.64 L 266.00 21.32 L 266.00 18.66 Z M 261.00 18.56 C 261.00 17.77 261.45 16.84 262.00 16.50 C 262.55 16.16 263.00 16.81 263.00 17.94 C 263.00 19.07 262.55 20.00 262.00 20.00 C 261.45 20.00 261.00 19.35 261.00 18.56 Z M 28.50 15.00 C 28.16 14.45 28.36 14.00 28.94 14.00 C 29.52 14.00 30.00 14.45 30.00 15.00 C 30.00 15.55 29.80 16.00 29.56 16.00 C 29.32 16.00 28.84 15.55 28.50 15.00 Z M 43.00 14.00 C 43.00 13.45 43.70 13.00 44.56 13.00 C 45.42 13.00 45.84 13.45 45.50 14.00 C 45.16 14.55 44.46 15.00 43.94 15.00 C 43.42 15.00 43.00 14.55 43.00 14.00 Z M 81.81 14.32 C 82.53 14.03 83.40 14.06 83.73 14.40 C 84.06 14.73 83.47 14.96 82.42 14.92 C 81.25 14.87 81.01 14.64 81.81 14.32 Z M 170.00 14.00 C 170.00 13.45 170.48 13.00 171.06 13.00 C 171.64 13.00 171.84 13.45 171.50 14.00 C 171.16 14.55 170.68 15.00 170.44 15.00 C 170.20 15.00 170.00 14.55 170.00 14.00 Z M 249.02 13.52 C 248.23 12.57 248.16 12.00 248.82 12.00 C 250.03 12.00 251.44 13.90 250.74 14.59 C 250.49 14.84 249.72 14.36 249.02 13.52 Z M 268.00 14.00 C 268.00 13.45 268.48 13.00 269.06 13.00 C 269.64 13.00 269.84 13.45 269.50 14.00 C 269.16 14.55 268.68 15.00 268.44 15.00 C 268.20 15.00 268.00 14.55 268.00 14.00 Z M 112.50 13.00 C 110.71 12.23 110.79 12.13 113.19 12.07 C 114.67 12.03 116.16 12.45 116.50 13.00 C 117.24 14.19 115.28 14.19 112.50 13.00 Z M 142.00 13.00 C 142.00 11.74 144.04 11.74 146.00 13.00 C 147.17 13.76 146.89 13.97 144.75 13.98 C 143.24 13.99 142.00 13.55 142.00 13.00 Z M 152.50 13.00 C 152.84 12.45 153.32 12.00 153.56 12.00 C 153.80 12.00 154.00 12.45 154.00 13.00 C 154.00 13.55 153.52 14.00 152.94 14.00 C 152.36 14.00 152.16 13.55 152.50 13.00 Z M 160.00 13.09 C 160.00 12.60 160.90 12.42 162.00 12.71 C 163.10 13.00 164.00 13.41 164.00 13.62 C 164.00 13.83 163.10 14.00 162.00 14.00 C 160.90 14.00 160.00 13.59 160.00 13.09 Z M 178.00 13.00 C 178.00 12.45 178.70 12.00 179.56 12.00 C 180.42 12.00 180.84 12.45 180.50 13.00 C 180.16 13.55 179.46 14.00 178.94 14.00 C 178.42 14.00 178.00 13.55 178.00 13.00 Z M 204.00 13.00 C 204.00 11.75 205.06 11.75 207.00 13.00 C 208.21 13.78 208.07 13.97 206.25 13.98 C 205.01 13.99 204.00 13.55 204.00 13.00 Z M 228.00 13.00 C 229.94 11.75 231.00 11.75 231.00 13.00 C 231.00 13.55 229.99 13.99 228.75 13.98 C 226.93 13.97 226.79 13.78 228.00 13.00 Z M 238.00 13.00 C 238.00 12.45 238.45 12.00 239.00 12.00 C 239.55 12.00 240.00 12.45 240.00 13.00 C 240.00 13.55 239.55 14.00 239.00 14.00 C 238.45 14.00 238.00 13.55 238.00 13.00 Z M 243.64 12.50 C 243.95 11.68 244.54 11.00 244.94 11.00 C 245.34 11.00 245.67 11.68 245.67 12.50 C 245.67 13.32 245.08 14.00 244.36 14.00 C 243.62 14.00 243.31 13.36 243.64 12.50 Z M 256.50 13.00 C 256.16 12.45 256.58 12.00 257.44 12.00 C 258.30 12.00 259.00 12.45 259.00 13.00 C 259.00 13.55 258.58 14.00 258.06 14.00 C 257.54 14.00 256.84 13.55 256.50 13.00 Z M 280.81 13.32 C 281.53 13.03 282.40 13.06 282.73 13.40 C 283.06 13.73 282.47 13.96 281.42 13.92 C 280.25 13.87 280.01 13.64 280.81 13.32 Z M 288.81 13.32 C 289.53 13.03 290.40 13.06 290.73 13.40 C 291.06 13.73 290.47 13.96 289.42 13.92 C 288.25 13.87 288.01 13.64 288.81 13.32 Z M 208.00 12.00 C 208.00 11.45 208.48 11.00 209.06 11.00 C 209.64 11.00 209.84 11.45 209.50 12.00 C 209.16 12.55 208.68 13.00 208.44 13.00 C 208.20 13.00 208.00 12.55 208.00 12.00 Z M 275.50 12.00 C 275.84 11.45 276.54 11.00 277.06 11.00 C 277.58 11.00 278.00 11.45 278.00 12.00 C 278.00 12.55 277.30 13.00 276.44 13.00 C 275.58 13.00 275.16 12.55 275.50 12.00 Z M 345.26 11.45 C 344.41 10.54 344.36 9.90 345.08 9.45 C 346.45 8.60 347.26 9.46 346.84 11.32 C 346.56 12.56 346.30 12.58 345.26 11.45 Z M 350.00 11.94 C 350.00 11.36 350.45 11.16 351.00 11.50 C 351.55 11.84 352.00 12.32 352.00 12.56 C 352.00 12.80 351.55 13.00 351.00 13.00 C 350.45 13.00 350.00 12.52 350.00 11.94 Z M 367.00 11.00 C 367.00 10.45 367.45 10.00 368.00 10.00 C 368.55 10.00 369.00 10.45 369.00 11.00 C 369.00 11.55 368.55 12.00 368.00 12.00 C 367.45 12.00 367.00 11.55 367.00 11.00 Z M 373.46 10.93 C 372.40 9.22 373.35 9.05 375.44 10.58 C 377.06 11.77 377.12 12.00 375.75 12.00 C 374.85 12.00 373.82 11.52 373.46 10.93 Z M 327.81 10.32 C 328.53 10.03 329.40 10.06 329.73 10.40 C 330.06 10.73 329.47 10.96 328.42 10.92 C 327.25 10.87 327.01 10.64 327.81 10.32 Z" fill="none" stroke="rgba(255,255,255,0.92)" stroke-width="1.5" stroke-linejoin="round" fill-rule="evenodd"/>
</svg>
