<svg xmlns="http://www.w3.org/2000/svg" viewBox="0 0 378 400" width="378" height="400">
  <path d="M 0.00 200.00 L 0.00 0.00 L 189.00 0.00 L 378.00 0.00 L 378.00 200.00 L 378.00 400.00 L 189.00 400.00 L 0.00 400.00 L 0.00 200.00 Z M 49.00 390.97 C 50.38 390.94 55.77 390.92 61.00 390.94 C 66.22 390.95 71.85 390.96 73.50 390.97 C 78.94 390.98 108.46 390.94 110.25 390.92 C 113.62 390.88 122.03 390.84 125.25 390.85 C 132.70 390.86 146.29 390.71 158.00 390.47 C 164.88 390.33 178.98 390.16 189.34 390.09 C 201.20 390.02 208.97 389.55 210.29 388.84 C 211.75 388.06 212.51 388.04 212.76 388.77 C 213.00 389.49 220.45 389.65 236.30 389.28 C 249.06 388.97 260.51 388.78 261.75 388.85 C 262.99 388.91 264.79 388.99 265.75 389.02 C 266.71 389.05 290.41 388.95 318.41 388.79 L 369.32 388.50 L 369.83 369.00 C 370.10 358.27 370.37 273.10 370.41 179.71 C 370.49 32.29 370.31 9.81 369.05 9.03 C 368.25 8.54 367.13 8.42 366.57 8.77 C 366.01 9.11 285.69 9.42 188.09 9.45 L 10.64 9.51 L 9.88 12.35 C 9.46 13.92 9.31 48.11 9.54 88.35 C 10.46 249.72 11.27 364.64 11.50 367.25 C 11.64 368.76 11.81 374.85 11.88 380.77 L 12.00 391.54 L 29.25 391.29 C 38.74 391.15 47.62 391.01 49.00 390.97 Z M 81.81 388.32 C 82.53 388.03 83.40 388.06 83.73 388.40 C 84.06 388.73 83.47 388.96 82.42 388.92 C 81.25 388.87 81.01 388.64 81.81 388.32 Z M 29.43 386.00 C 29.43 384.77 30.10 384.00 31.16 384.00 C 33.48 384.00 34.59 386.01 32.88 387.10 C 30.64 388.52 29.43 388.13 29.43 386.00 Z M 43.24 386.84 C 42.64 386.24 40.99 385.75 39.58 385.75 C 38.16 385.75 37.00 385.36 37.00 384.88 C 37.00 383.51 42.30 383.91 44.31 385.44 C 45.31 386.19 45.71 387.06 45.22 387.36 C 44.73 387.67 43.83 387.43 43.24 386.84 Z M 65.00 387.00 C 65.00 386.45 66.15 386.00 67.56 386.00 C 69.01 386.00 69.85 386.43 69.50 387.00 C 69.16 387.55 68.01 388.00 66.94 388.00 C 65.87 388.00 65.00 387.55 65.00 387.00 Z M 79.49 386.84 C 78.99 385.52 77.26 385.27 69.51 385.39 C 64.35 385.47 59.80 385.86 59.40 386.27 C 59.00 386.67 57.05 386.96 55.08 386.92 C 53.11 386.88 52.17 386.59 53.00 386.27 C 53.83 385.96 54.73 385.37 55.00 384.97 C 55.58 384.13 70.43 383.48 80.00 383.87 C 85.79 384.11 86.23 384.26 84.00 385.29 C 82.62 385.93 81.19 386.89 80.80 387.44 C 80.39 388.04 79.86 387.80 79.49 386.84 Z M 114.50 387.00 C 114.16 386.45 114.36 386.00 114.94 386.00 C 115.52 386.00 116.00 386.45 116.00 387.00 C 116.00 387.55 115.80 388.00 115.56 388.00 C 115.32 388.00 114.84 387.55 114.50 387.00 Z M 19.69 385.25 C 20.03 384.29 20.73 382.96 21.24 382.30 C 21.74 381.64 22.02 379.17 21.85 376.80 L 21.54 372.50 L 93.02 371.76 C 132.33 371.35 169.39 371.12 175.37 371.26 L 186.23 371.50 L 186.57 375.22 C 186.76 377.38 186.39 379.26 185.70 379.69 C 184.33 380.54 107.43 381.56 92.50 380.93 C 85.16 380.62 31.37 381.23 28.17 381.67 C 24.22 382.20 23.90 382.46 24.44 384.63 C 24.97 386.73 24.70 387.00 22.05 387.00 C 19.63 387.00 19.18 386.67 19.69 385.25 Z M 104.20 385.38 C 103.12 384.22 103.18 383.87 104.49 383.36 C 106.56 382.57 107.40 383.46 106.34 385.32 C 105.62 386.59 105.32 386.60 104.20 385.38 Z M 145.50 386.00 C 145.87 385.40 144.41 384.97 141.81 384.94 C 138.53 384.89 137.99 384.68 139.54 384.05 C 140.66 383.59 144.56 383.22 148.20 383.22 C 151.85 383.22 155.34 382.91 155.96 382.53 C 156.58 382.14 157.75 382.37 158.55 383.04 C 159.45 383.79 161.45 384.03 163.76 383.66 C 168.11 382.97 170.29 383.91 169.04 385.94 C 168.34 387.06 167.64 387.09 165.28 386.11 C 163.17 385.24 161.61 385.20 159.62 385.95 C 156.14 387.28 153.70 387.30 154.50 386.00 C 154.87 385.41 153.70 385.00 151.62 385.00 C 149.69 385.00 147.84 385.45 147.50 386.00 C 147.16 386.55 146.43 387.00 145.88 387.00 C 145.33 387.00 145.16 386.55 145.50 386.00 Z M 174.06 385.57 C 172.33 383.49 172.52 383.36 178.61 382.54 C 182.74 381.98 183.84 382.15 184.32 383.39 C 185.05 385.31 184.34 385.76 179.36 386.56 C 176.37 387.04 175.07 386.80 174.06 385.57 Z M 190.81 386.32 C 191.53 386.03 192.40 386.06 192.73 386.40 C 193.06 386.73 192.47 386.96 191.42 386.92 C 190.25 386.87 190.01 386.64 190.81 386.32 Z M 91.69 385.36 C 91.34 385.01 91.28 384.35 91.56 383.90 C 92.18 382.90 95.00 383.88 95.00 385.11 C 95.00 386.13 92.65 386.31 91.69 385.36 Z M 195.00 385.16 C 195.00 384.70 197.44 383.73 200.43 383.02 C 205.18 381.88 206.05 381.91 207.43 383.29 C 209.60 385.46 209.41 386.00 206.44 386.00 C 204.99 386.00 204.15 385.57 204.50 385.00 C 204.84 384.45 204.44 384.00 203.62 384.00 C 202.79 384.00 201.84 384.45 201.50 385.00 C 200.75 386.21 195.00 386.35 195.00 385.16 Z M 267.64 384.50 C 267.97 383.63 267.65 382.99 266.86 382.97 C 265.98 382.95 266.15 382.56 267.31 381.89 C 268.31 381.31 269.78 381.09 270.58 381.39 C 271.79 381.86 271.83 382.30 270.78 383.98 C 269.32 386.32 266.78 386.74 267.64 384.50 Z M 274.75 383.92 C 273.06 382.06 273.11 382.00 276.25 381.99 C 278.04 381.98 280.58 381.68 281.91 381.33 C 283.59 380.88 284.10 381.03 283.60 381.84 C 283.20 382.48 281.78 383.00 280.44 383.00 C 278.94 383.00 278.00 383.58 278.00 384.50 C 278.00 386.47 276.90 386.28 274.75 383.92 Z M 286.00 384.00 C 286.00 382.71 286.67 382.00 287.88 382.00 C 288.93 382.00 290.00 382.89 290.29 384.00 C 290.71 385.59 290.32 386.00 288.41 386.00 C 286.67 386.00 286.00 385.45 286.00 384.00 Z M 302.28 383.96 C 302.47 381.39 304.60 380.92 314.00 381.39 C 324.39 381.91 324.20 381.87 323.43 383.12 C 322.99 383.82 321.13 384.02 318.41 383.64 C 316.03 383.32 313.84 383.46 313.53 383.95 C 313.20 384.48 311.65 384.47 309.74 383.93 C 304.81 382.51 303.09 382.75 305.44 384.53 C 307.31 385.94 307.28 386.00 304.75 386.00 C 302.73 386.00 302.16 385.53 302.28 383.96 Z M 116.00 384.00 C 116.00 383.45 117.12 383.00 118.50 383.00 C 119.88 383.00 121.00 383.45 121.00 384.00 C 121.00 384.55 119.88 385.00 118.50 385.00 C 117.12 385.00 116.00 384.55 116.00 384.00 Z M 123.75 384.34 C 124.44 384.06 125.56 384.06 126.25 384.34 C 126.94 384.62 126.38 384.84 125.00 384.84 C 123.62 384.84 123.06 384.62 123.75 384.34 Z M 128.50 384.00 C 128.84 383.45 130.44 383.00 132.06 383.00 C 133.68 383.00 135.00 383.45 135.00 384.00 C 135.00 384.55 133.40 385.00 131.44 385.00 C 129.32 385.00 128.13 384.60 128.50 384.00 Z M 189.00 383.44 C 189.00 382.58 189.45 382.16 190.00 382.50 C 190.55 382.84 191.00 383.54 191.00 384.06 C 191.00 384.58 190.55 385.00 190.00 385.00 C 189.45 385.00 189.00 384.30 189.00 383.44 Z M 244.45 383.91 C 243.59 382.52 245.49 380.57 246.87 381.42 C 248.02 382.13 247.28 385.00 245.95 385.00 C 245.49 385.00 244.82 384.51 244.45 383.91 Z M 251.00 384.04 C 251.00 381.55 259.98 380.47 260.78 382.86 C 261.13 383.89 260.51 384.05 258.21 383.55 C 256.44 383.16 254.92 383.32 254.54 383.94 C 253.72 385.27 251.00 385.34 251.00 384.04 Z M 293.25 383.85 C 291.14 381.74 291.84 381.07 295.68 381.56 C 301.17 382.27 301.64 383.30 296.99 384.47 C 295.53 384.83 293.98 384.58 293.25 383.85 Z M 326.00 383.50 C 324.91 382.19 325.67 382.00 331.94 382.00 C 336.69 382.00 338.90 382.35 338.47 383.05 C 338.07 383.69 336.12 383.84 333.41 383.43 C 330.44 382.99 329.00 383.14 329.00 383.89 C 329.00 385.46 327.47 385.27 326.00 383.50 Z M 210.51 382.98 C 210.86 382.42 211.56 382.23 212.07 382.54 C 213.46 383.40 213.20 384.00 211.44 384.00 C 210.58 384.00 210.16 383.54 210.51 382.98 Z M 346.00 383.00 C 346.00 382.45 346.90 382.00 348.00 382.00 C 349.10 382.00 350.00 382.45 350.00 383.00 C 350.00 383.55 349.10 384.00 348.00 384.00 C 346.90 384.00 346.00 383.55 346.00 383.00 Z M 352.81 382.32 C 353.53 382.03 354.40 382.06 354.73 382.40 C 355.06 382.73 354.47 382.96 353.42 382.92 C 352.25 382.87 352.01 382.64 352.81 382.32 Z M 189.84 377.51 C 189.64 374.93 189.77 372.64 190.13 372.42 C 191.07 371.84 191.86 380.32 190.96 381.34 C 190.55 381.81 190.05 380.08 189.84 377.51 Z M 195.70 380.29 C 195.45 379.86 195.36 377.70 195.50 375.50 L 195.76 371.50 L 208.63 370.81 C 222.80 370.06 356.84 369.00 358.48 369.63 C 359.04 369.85 359.47 372.16 359.42 374.76 C 359.36 378.36 359.00 379.40 357.92 379.09 C 354.13 378.02 201.67 379.34 198.07 380.48 C 197.02 380.81 195.96 380.73 195.70 380.29 Z M 362.00 372.97 C 362.00 372.44 362.68 372.00 363.50 372.00 C 364.32 372.00 365.00 372.18 365.00 372.39 C 365.00 372.61 364.32 373.05 363.50 373.36 C 362.68 373.68 362.00 373.50 362.00 372.97 Z M 23.06 359.66 C 21.70 358.30 21.61 327.36 22.97 326.52 C 24.33 325.68 149.75 324.67 263.34 324.58 L 359.19 324.50 L 359.05 340.96 C 358.97 350.02 358.82 357.49 358.71 357.57 C 358.59 357.66 322.05 358.02 277.50 358.39 C 232.95 358.75 181.88 359.27 164.00 359.55 C 91.58 360.67 24.13 360.73 23.06 359.66 Z M 21.82 299.39 C 21.57 291.20 21.55 282.60 21.78 280.27 L 22.21 276.04 L 66.85 275.77 C 91.41 275.62 167.34 275.37 235.60 275.21 L 359.69 274.92 L 359.70 293.46 L 359.70 312.00 L 310.60 312.08 C 283.60 312.12 256.55 312.29 250.50 312.46 C 244.45 312.63 190.63 313.11 130.89 313.52 L 22.28 314.27 L 21.82 299.39 Z M 22.25 264.34 C 21.32 263.96 21.00 259.54 21.00 247.02 C 21.00 232.55 21.22 230.13 22.60 229.60 C 25.56 228.47 357.89 227.66 359.25 228.79 C 360.18 229.56 360.42 234.01 360.20 246.25 L 359.91 262.67 L 192.95 263.37 C 101.13 263.75 25.43 264.24 24.75 264.45 C 24.06 264.67 22.94 264.61 22.25 264.34 Z M 19.90 217.15 C 19.65 215.56 20.23 209.45 20.68 209.00 C 20.95 208.73 27.77 208.36 35.83 208.20 C 49.68 207.91 51.74 207.90 57.25 208.07 C 58.49 208.10 87.28 207.96 121.24 207.75 C 155.19 207.54 183.36 207.62 183.83 207.93 C 185.31 208.91 186.03 216.06 184.70 216.48 C 182.54 217.15 20.00 217.81 19.90 217.15 Z M 14.00 214.92 C 14.00 212.48 16.34 212.82 16.82 215.33 C 17.01 216.32 16.50 217.00 15.57 217.00 C 14.65 217.00 14.00 216.15 14.00 214.92 Z M 197.75 216.24 C 196.45 215.95 196.00 214.85 196.00 211.93 C 196.00 208.92 196.41 207.96 197.75 207.83 C 199.51 207.66 225.19 207.00 228.00 207.06 C 228.82 207.08 258.07 207.25 293.00 207.45 C 327.93 207.65 357.46 207.85 358.64 207.91 C 361.61 208.04 362.54 214.64 359.79 216.11 C 358.06 217.04 201.94 217.15 197.75 216.24 Z M 189.00 215.17 C 189.00 213.76 190.13 213.11 191.60 213.68 C 193.68 214.48 193.29 216.00 191.00 216.00 C 189.90 216.00 189.00 215.62 189.00 215.17 Z M 364.50 215.00 C 364.84 214.45 365.54 214.00 366.06 214.00 C 366.58 214.00 367.00 214.45 367.00 215.00 C 367.00 215.55 366.30 216.00 365.44 216.00 C 364.58 216.00 364.16 215.55 364.50 215.00 Z M 189.19 210.94 C 189.43 210.22 190.22 209.43 190.94 209.19 C 191.69 208.94 192.06 209.31 191.81 210.06 C 191.57 210.78 190.78 211.57 190.06 211.81 C 189.31 212.06 188.94 211.69 189.19 210.94 Z M 43.00 205.22 C 43.00 204.28 49.92 201.59 50.60 202.27 C 51.33 202.99 48.71 204.67 45.75 205.38 C 44.24 205.74 43.00 205.67 43.00 205.22 Z M 186.00 204.44 C 186.00 203.58 186.45 203.16 187.00 203.50 C 187.55 203.84 188.00 204.54 188.00 205.06 C 188.00 205.58 187.55 206.00 187.00 206.00 C 186.45 206.00 186.00 205.30 186.00 204.44 Z M 30.75 204.34 C 31.44 204.06 32.56 204.06 33.25 204.34 C 33.94 204.62 33.38 204.84 32.00 204.84 C 30.62 204.84 30.06 204.62 30.75 204.34 Z M 57.51 203.98 C 57.86 203.42 58.56 203.23 59.07 203.54 C 60.46 204.40 60.20 205.00 58.44 205.00 C 57.58 205.00 57.16 204.54 57.51 203.98 Z M 69.21 202.80 C 71.32 199.63 72.83 199.46 72.25 202.46 C 71.92 204.17 71.11 205.00 69.76 205.00 C 67.92 205.00 67.88 204.82 69.21 202.80 Z M 75.23 203.81 C 75.85 201.96 78.00 201.65 78.00 203.42 C 78.00 204.29 77.29 205.00 76.42 205.00 C 75.55 205.00 75.01 204.47 75.23 203.81 Z M 82.21 203.36 C 83.13 202.44 84.56 202.00 85.49 202.36 C 87.84 203.26 86.36 205.00 83.23 205.00 C 80.77 205.00 80.69 204.88 82.21 203.36 Z M 94.81 204.32 C 95.53 204.03 96.40 204.06 96.73 204.40 C 97.06 204.73 96.47 204.96 95.42 204.92 C 94.25 204.87 94.01 204.64 94.81 204.32 Z M 168.00 204.00 C 168.00 203.45 168.93 203.00 170.06 203.00 C 171.19 203.00 171.84 203.45 171.50 204.00 C 171.16 204.55 170.23 205.00 169.44 205.00 C 168.65 205.00 168.00 204.55 168.00 204.00 Z M 321.00 204.00 C 321.00 203.45 321.42 203.00 321.94 203.00 C 322.46 203.00 323.16 203.45 323.50 204.00 C 323.84 204.55 323.42 205.00 322.56 205.00 C 321.70 205.00 321.00 204.55 321.00 204.00 Z M 25.43 202.00 C 25.43 199.67 25.48 199.65 28.20 201.11 C 29.86 202.00 30.00 202.39 28.89 203.09 C 26.64 204.52 25.43 204.13 25.43 202.00 Z M 15.08 201.42 C 15.13 200.25 15.36 200.01 15.68 200.81 C 15.97 201.53 15.94 202.40 15.60 202.73 C 15.27 203.06 15.04 202.47 15.08 201.42 Z M 173.46 202.07 C 173.77 201.56 173.01 200.95 171.76 200.71 C 170.11 200.39 170.37 200.24 172.75 200.14 C 175.03 200.04 176.00 200.45 176.00 201.50 C 176.00 202.32 175.30 203.00 174.44 203.00 C 173.58 203.00 173.14 202.58 173.46 202.07 Z M 19.23 200.00 C 18.55 198.90 18.35 198.00 18.79 198.00 C 19.83 198.00 22.00 200.16 22.00 201.20 C 22.00 202.67 20.49 202.02 19.23 200.00 Z M 259.00 201.00 C 255.60 200.28 255.64 200.26 260.31 200.13 C 263.29 200.05 264.88 200.38 264.50 201.00 C 264.16 201.55 263.57 201.94 263.19 201.87 C 262.81 201.80 260.93 201.41 259.00 201.00 Z M 322.50 201.00 C 320.74 200.24 320.84 200.13 323.31 200.07 C 324.94 200.03 325.86 200.42 325.50 201.00 C 325.16 201.55 324.80 201.97 324.69 201.93 C 324.59 201.89 323.60 201.47 322.50 201.00 Z M 36.27 200.31 C 37.24 200.05 38.59 200.07 39.27 200.34 C 39.95 200.62 39.15 200.83 37.50 200.81 C 35.85 200.78 35.30 200.56 36.27 200.31 Z M 59.25 200.31 C 60.21 200.06 61.79 200.06 62.75 200.31 C 63.71 200.56 62.92 200.77 61.00 200.77 C 59.08 200.77 58.29 200.56 59.25 200.31 Z M 97.81 200.32 C 98.53 200.03 99.40 200.06 99.73 200.40 C 100.06 200.73 99.47 200.96 98.42 200.92 C 97.25 200.87 97.01 200.64 97.81 200.32 Z M 109.81 200.32 C 110.53 200.03 111.40 200.06 111.73 200.40 C 112.06 200.73 111.47 200.96 110.42 200.92 C 109.25 200.87 109.01 200.64 109.81 200.32 Z M 118.00 200.62 C 118.00 199.77 123.09 199.33 123.58 200.13 C 123.88 200.61 122.74 201.00 121.06 201.00 C 119.38 201.00 118.00 200.83 118.00 200.62 Z M 130.81 200.32 C 131.53 200.03 132.40 200.06 132.73 200.40 C 133.06 200.73 132.47 200.96 131.42 200.92 C 130.25 200.87 130.01 200.64 130.81 200.32 Z M 148.81 200.32 C 149.53 200.03 150.40 200.06 150.73 200.40 C 151.06 200.73 150.47 200.96 149.42 200.92 C 148.25 200.87 148.01 200.64 148.81 200.32 Z M 158.81 200.32 C 159.53 200.03 160.40 200.06 160.73 200.40 C 161.06 200.73 160.47 200.96 159.42 200.92 C 158.25 200.87 158.01 200.64 158.81 200.32 Z M 239.81 200.32 C 240.53 200.03 241.40 200.06 241.73 200.40 C 242.06 200.73 241.47 200.96 240.42 200.92 C 239.25 200.87 239.01 200.64 239.81 200.32 Z M 244.24 200.42 C 245.21 199.45 252.02 199.22 252.58 200.14 C 252.88 200.61 250.99 201.00 248.39 201.00 C 245.79 201.00 243.93 200.74 244.24 200.42 Z M 271.81 200.32 C 272.53 200.03 273.40 200.06 273.73 200.40 C 274.06 200.73 273.47 200.96 272.42 200.92 C 271.25 200.87 271.01 200.64 271.81 200.32 Z M 283.77 200.28 C 285.57 200.05 288.27 200.06 289.77 200.29 C 291.27 200.51 289.80 200.70 286.50 200.69 C 283.20 200.68 281.97 200.50 283.77 200.28 Z M 294.81 200.32 C 295.53 200.03 296.40 200.06 296.73 200.40 C 297.06 200.73 296.47 200.96 295.42 200.92 C 294.25 200.87 294.01 200.64 294.81 200.32 Z M 307.76 200.29 C 309.01 200.05 310.81 200.06 311.76 200.31 C 312.72 200.56 311.70 200.76 309.50 200.75 C 307.30 200.74 306.52 200.53 307.76 200.29 Z M 24.75 197.18 C 23.24 197.01 21.57 196.07 21.05 195.09 C 20.50 194.06 20.05 175.92 19.98 151.91 C 19.91 129.13 19.74 89.91 19.60 64.75 C 19.46 39.59 19.69 19.00 20.11 19.00 C 20.53 19.00 21.10 19.36 21.37 19.80 C 21.97 20.77 115.63 20.59 118.67 19.62 C 119.86 19.23 121.05 19.27 121.32 19.71 C 121.59 20.14 132.31 20.40 145.15 20.27 C 157.99 20.14 169.18 20.03 170.00 20.03 C 175.45 19.97 182.94 20.61 183.50 21.17 C 183.87 21.54 184.36 29.86 184.58 39.67 C 185.06 60.55 185.03 56.99 184.88 70.00 C 184.82 75.78 184.97 106.28 185.22 137.79 C 185.55 178.56 185.37 195.28 184.59 195.79 C 183.99 196.18 155.38 196.61 121.00 196.75 C 86.62 196.90 51.53 197.12 43.00 197.26 C 34.47 197.39 26.26 197.36 24.75 197.18 Z M 188.50 197.00 C 188.84 196.45 189.32 196.00 189.56 196.00 C 189.80 196.00 190.00 196.45 190.00 197.00 C 190.00 197.55 189.52 198.00 188.94 198.00 C 188.36 198.00 188.16 197.55 188.50 197.00 Z M 276.00 197.11 C 274.62 196.72 257.08 196.47 237.01 196.55 C 216.93 196.63 199.46 196.41 198.17 196.07 L 195.83 195.45 L 195.44 136.47 C 194.63 14.63 194.60 19.46 196.11 19.91 C 196.88 20.13 199.19 20.24 201.25 20.15 C 203.31 20.05 206.24 19.98 207.75 19.99 C 210.88 20.01 230.22 20.00 234.00 19.97 C 235.97 19.96 280.32 19.95 284.50 19.96 C 328.60 20.08 356.94 20.01 358.49 19.79 C 360.46 19.50 360.48 20.25 360.62 107.75 C 360.70 156.29 360.48 196.07 360.13 196.15 C 359.78 196.23 342.18 196.39 321.00 196.50 C 299.82 196.61 281.60 196.95 280.50 197.26 C 279.40 197.56 277.38 197.49 276.00 197.11 Z M 366.16 168.00 C 366.16 166.62 366.38 166.06 366.66 166.75 C 366.94 167.44 366.94 168.56 366.66 169.25 C 366.38 169.94 366.16 169.38 366.16 168.00 Z M 14.70 116.61 C 14.29 115.57 14.19 114.48 14.48 114.19 C 15.39 113.28 16.19 114.77 15.81 116.67 C 15.46 118.41 15.41 118.41 14.70 116.61 Z M 14.56 108.09 C 14.25 107.59 14.42 106.13 14.93 104.84 C 15.81 102.65 15.88 102.71 15.94 105.75 C 16.00 109.04 15.58 109.75 14.56 108.09 Z M 15.08 86.42 C 15.13 85.25 15.36 85.01 15.68 85.81 C 15.97 86.53 15.94 87.40 15.60 87.73 C 15.27 88.06 15.04 87.47 15.08 86.42 Z M 13.00 57.00 C 13.00 56.45 13.48 56.00 14.06 56.00 C 14.64 56.00 14.84 56.45 14.50 57.00 C 14.16 57.55 13.68 58.00 13.44 58.00 C 13.20 58.00 13.00 57.55 13.00 57.00 Z M 366.08 43.42 C 366.13 42.25 366.36 42.01 366.68 42.81 C 366.97 43.53 366.94 44.40 366.60 44.73 C 366.27 45.06 366.04 44.47 366.08 43.42 Z M 15.19 38.50 C 15.22 36.85 15.44 36.30 15.69 37.27 C 15.95 38.24 15.93 39.59 15.66 40.27 C 15.38 40.95 15.17 40.15 15.19 38.50 Z M 188.00 37.00 C 188.00 35.90 188.45 35.00 189.00 35.00 C 189.55 35.00 190.00 35.90 190.00 37.00 C 190.00 38.10 189.55 39.00 189.00 39.00 C 188.45 39.00 188.00 38.10 188.00 37.00 Z M 188.45 30.92 C 188.07 30.31 188.49 29.08 189.38 28.19 C 190.87 26.70 191.00 26.74 191.00 28.73 C 191.00 31.22 189.46 32.55 188.45 30.92 Z M 366.08 27.42 C 366.13 26.25 366.36 26.01 366.68 26.81 C 366.97 27.53 366.94 28.40 366.60 28.73 C 366.27 29.06 366.04 28.47 366.08 27.42 Z M 188.00 21.06 C 188.00 19.99 188.40 18.87 188.89 18.57 C 189.39 18.26 189.72 19.13 189.64 20.51 C 189.48 23.42 188.00 23.92 188.00 21.06 Z M 13.00 18.00 C 13.00 17.45 13.48 17.00 14.06 17.00 C 14.64 17.00 14.84 17.45 14.50 18.00 C 14.16 18.55 13.68 19.00 13.44 19.00 C 13.20 19.00 13.00 18.55 13.00 18.00 Z M 364.72 18.25 C 364.50 17.84 364.65 16.38 365.06 15.00 C 365.88 12.22 365.98 12.31 366.50 16.25 C 366.83 18.76 365.68 20.05 364.72 18.25 Z M 173.94 16.96 C 171.97 15.75 173.06 15.22 176.00 15.96 C 177.92 16.44 178.13 16.73 176.91 17.20 C 176.03 17.54 174.70 17.43 173.94 16.96 Z M 211.81 17.32 C 212.53 17.03 213.40 17.06 213.73 17.40 C 214.06 17.73 213.47 17.96 212.42 17.92 C 211.25 17.87 211.01 17.64 211.81 17.32 Z M 100.00 16.61 C 100.00 16.39 100.67 15.95 101.50 15.64 C 102.33 15.32 103.00 15.50 103.00 16.03 C 103.00 16.56 102.33 17.00 101.50 17.00 C 100.67 17.00 100.00 16.82 100.00 16.61 Z M 159.50 15.00 C 159.16 14.45 159.36 14.00 159.94 14.00 C 160.52 14.00 161.00 14.45 161.00 15.00 C 161.00 15.55 160.80 16.00 160.56 16.00 C 160.32 16.00 159.84 15.55 159.50 15.00 Z M 304.00 15.00 C 304.00 14.45 304.68 14.00 305.50 14.00 C 306.32 14.00 307.00 14.45 307.00 15.00 C 307.00 15.55 306.32 16.00 305.50 16.00 C 304.68 16.00 304.00 15.55 304.00 15.00 Z M 31.00 14.00 C 31.00 13.45 31.48 13.00 32.06 13.00 C 32.64 13.00 32.84 13.45 32.50 14.00 C 32.16 14.55 31.68 15.00 31.44 15.00 C 31.20 15.00 31.00 14.55 31.00 14.00 Z M 59.00 14.00 C 59.00 13.45 59.48 13.00 60.06 13.00 C 60.64 13.00 60.84 13.45 60.50 14.00 C 60.16 14.55 59.68 15.00 59.44 15.00 C 59.20 15.00 59.00 14.55 59.00 14.00 Z" fill="none" stroke="rgba(255,255,255,0.92)" stroke-width="1.5" stroke-linejoin="round" fill-rule="evenodd"/>
</svg>
