<svg xmlns="http://www.w3.org/2000/svg" viewBox="0 0 100 100" width="100" height="100">
  <path d="M 0.00 50.00 L 0.00 0.00 L 50.00 0.00 L 100.00 0.00 L 100.00 50.00 L 100.00 100.00 L 50.00 100.00 L 0.00 100.00 L 0.00 50.00 Z M 53.25 95.01 L 96.00 95.00 L 96.00 91.97 L 96.00 88.93 L 56.50 89.22 C 34.77 89.37 17.00 89.45 17.00 89.39 C 17.00 89.32 18.33 87.75 19.95 85.89 L 22.91 82.50 L 59.45 82.21 L 96.00 81.93 L 96.00 78.83 L 96.00 75.73 L 60.25 76.11 L 24.50 76.50 L 24.23 55.25 L 23.96 34.00 L 59.98 34.00 L 96.00 34.00 L 96.00 31.00 L 96.00 28.00 L 59.69 28.00 L 23.38 28.00 L 20.06 24.75 L 16.73 21.50 L 56.37 21.24 L 96.00 20.98 L 96.00 17.91 L 96.00 14.84 L 54.25 15.01 C 31.29 15.11 12.03 15.14 11.46 15.09 C 10.89 15.04 10.37 14.21 10.29 13.25 C 10.17 11.61 12.79 11.51 53.08 11.59 L 96.00 11.67 L 96.00 8.96 L 96.00 6.25 L 51.25 6.53 C 26.64 6.68 6.18 6.85 5.79 6.90 C 5.40 6.96 5.30 26.69 5.56 50.75 C 5.83 74.81 6.03 94.89 6.02 95.37 C 6.01 95.84 7.01 95.96 8.25 95.63 C 9.49 95.30 29.74 95.02 53.25 95.01 Z M 11.64 83.34 C 11.34 82.33 11.14 68.77 11.20 53.20 L 11.30 24.90 L 14.65 28.15 L 18.00 31.39 L 18.00 55.51 L 18.00 79.63 L 15.10 82.41 C 12.46 84.93 12.14 85.02 11.64 83.34 Z M 32.81 9.32 C 33.53 9.03 34.40 9.06 34.73 9.40 C 35.06 9.73 34.47 9.96 33.42 9.92 C 32.25 9.87 32.01 9.64 32.81 9.32 Z M 84.50 9.00 C 82.57 8.17 82.58 8.14 84.69 8.07 C 85.90 8.03 87.16 8.45 87.50 9.00 C 88.23 10.18 87.25 10.18 84.50 9.00 Z" fill="none" stroke="rgba(255,255,255,0.92)" stroke-width="1.2" stroke-linejoin="round" fill-rule="evenodd"/>
</svg>
