<svg xmlns="http://www.w3.org/2000/svg" viewBox="0 0 100 100" width="100" height="100">
  <path d="M 0.00 50.00 L 0.00 0.00 L 50.00 0.00 L 100.00 0.00 L 100.00 50.00 L 100.00 100.00 L 50.00 100.00 L 0.00 100.00 L 0.00 50.00 Z M 95.82 49.05 L 96.13 4.00 L 93.57 4.00 C 91.67 4.00 91.00 4.52 91.00 6.00 C 91.00 7.97 90.33 8.00 47.50 8.00 L 4.00 8.00 L 4.00 10.99 L 4.00 13.98 L 47.25 14.24 L 90.50 14.50 L 90.33 18.50 C 90.24 20.70 90.13 24.64 90.08 27.25 L 90.00 32.00 L 47.00 32.00 L 4.00 32.00 L 4.00 34.75 L 4.00 37.50 L 47.00 37.19 L 90.00 36.88 L 90.00 46.44 L 90.00 56.00 L 54.25 56.25 C 34.59 56.39 15.24 56.39 11.25 56.26 L 4.00 56.03 L 4.00 59.01 L 4.00 62.00 L 47.00 62.00 L 90.00 62.00 L 90.00 70.50 L 90.00 79.00 L 54.75 79.11 C 35.36 79.16 18.82 79.31 18.00 79.44 C 17.18 79.56 13.69 79.73 10.25 79.83 C 4.30 79.99 4.00 80.12 4.00 82.50 L 4.00 85.00 L 47.00 85.00 L 90.00 85.00 L 90.00 87.25 L 90.00 89.50 L 72.35 89.20 C 62.26 89.04 53.47 89.34 51.82 89.91 C 50.23 90.47 49.17 90.54 49.45 90.08 C 49.74 89.61 45.83 89.35 40.78 89.50 C 35.09 89.66 31.44 90.19 31.21 90.88 C 31.00 91.50 30.39 92.00 29.86 92.00 C 29.32 92.00 29.16 91.55 29.50 91.00 C 29.90 90.35 25.51 90.00 17.06 90.00 C 8.47 90.00 4.00 90.37 4.00 91.07 C 4.00 91.68 4.85 91.86 5.98 91.51 C 7.07 91.16 8.76 91.37 9.73 91.97 C 11.37 92.98 11.35 93.05 9.50 92.91 C 5.84 92.65 4.00 92.99 4.00 93.92 C 4.00 94.48 22.21 94.70 49.75 94.47 L 95.50 94.10 L 95.82 49.05 Z M 33.00 91.86 C 33.00 91.39 34.12 91.00 35.50 91.00 C 36.88 91.00 38.00 91.17 38.00 91.38 C 38.00 91.59 36.88 91.98 35.50 92.24 C 34.12 92.51 33.00 92.34 33.00 91.86 Z M 41.00 92.00 C 41.00 91.45 41.70 91.00 42.56 91.00 C 43.42 91.00 43.84 91.45 43.50 92.00 C 43.16 92.55 42.46 93.00 41.94 93.00 C 41.42 93.00 41.00 92.55 41.00 92.00 Z M 45.47 91.96 C 45.15 91.43 45.81 91.00 46.94 91.00 C 49.36 91.00 49.60 91.56 47.53 92.35 C 46.72 92.66 45.80 92.48 45.47 91.96 Z M 51.50 92.00 C 51.16 91.45 51.33 91.00 51.88 91.00 C 52.43 91.00 53.16 91.45 53.50 92.00 C 53.84 92.55 53.67 93.00 53.12 93.00 C 52.57 93.00 51.84 92.55 51.50 92.00 Z M 55.47 91.96 C 55.15 91.43 55.81 91.00 56.94 91.00 C 59.36 91.00 59.60 91.56 57.53 92.35 C 56.72 92.66 55.80 92.48 55.47 91.96 Z M 60.00 91.94 C 60.00 91.36 60.45 91.16 61.00 91.50 C 61.55 91.84 62.00 92.32 62.00 92.56 C 62.00 92.80 61.55 93.00 61.00 93.00 C 60.45 93.00 60.00 92.52 60.00 91.94 Z M 64.75 91.29 C 65.99 91.06 68.01 91.06 69.25 91.29 C 70.49 91.53 69.47 91.73 67.00 91.73 C 64.53 91.73 63.51 91.53 64.75 91.29 Z M 76.81 91.32 C 77.53 91.03 78.40 91.06 78.73 91.40 C 79.06 91.73 78.47 91.96 77.42 91.92 C 76.25 91.87 76.01 91.64 76.81 91.32 Z" fill="none" stroke="rgba(255,255,255,0.92)" stroke-width="1.2" stroke-linejoin="round" fill-rule="evenodd"/>
</svg>
