<svg xmlns="http://www.w3.org/2000/svg" viewBox="0 0 100 100" width="100" height="100">
  <path d="M 0.00 50.00 L 0.00 0.00 L 50.00 0.00 L 100.00 0.00 L 100.00 50.00 L 100.00 100.00 L 50.00 100.00 L 0.00 100.00 L 0.00 50.00 Z M 86.75 95.13 C 91.84 95.06 96.00 94.58 96.00 94.07 C 96.00 93.56 94.99 92.96 93.75 92.74 C 91.51 92.35 91.51 92.34 94.00 91.24 C 96.02 90.34 94.28 90.11 84.94 90.06 C 76.25 90.02 72.90 90.36 71.44 91.47 C 70.37 92.28 69.05 92.94 68.50 92.94 C 67.95 92.94 68.32 92.32 69.32 91.56 C 70.95 90.32 70.66 90.19 66.61 90.25 C 64.12 90.28 62.27 90.63 62.51 91.02 C 62.75 91.41 61.27 91.44 59.22 91.09 C 56.18 90.58 37.49 90.50 16.75 90.92 C 14.12 90.98 13.00 91.45 13.00 92.50 C 13.00 93.33 12.61 94.00 12.13 94.00 C 11.65 94.00 11.30 92.20 11.36 90.00 L 11.47 86.00 L 45.48 85.99 C 64.19 85.99 83.21 85.70 87.75 85.35 C 95.56 84.74 96.00 84.58 96.00 82.35 L 96.00 80.00 L 54.00 80.00 L 12.00 80.00 L 12.00 71.50 L 12.00 63.00 L 43.75 62.90 C 61.21 62.85 76.40 62.71 77.50 62.59 C 78.60 62.47 83.21 62.29 87.75 62.18 C 95.82 62.00 96.00 61.95 96.00 59.51 L 96.00 57.02 L 53.75 56.76 L 11.50 56.50 L 11.50 47.50 L 11.50 38.50 L 53.75 38.24 L 96.00 37.98 L 96.00 34.99 L 96.00 32.00 L 53.50 32.00 L 11.00 32.00 L 11.00 23.50 L 11.00 15.00 L 22.25 14.81 C 28.44 14.70 36.42 14.52 40.00 14.40 C 43.58 14.28 57.64 14.14 71.25 14.09 L 96.00 14.00 L 96.00 11.12 L 96.00 8.23 L 52.94 8.77 L 9.89 9.30 L 10.55 6.65 C 11.17 4.21 10.97 4.00 8.08 4.00 L 4.95 4.00 L 5.43 31.75 C 5.70 47.01 5.97 67.66 6.03 77.64 L 6.15 95.78 L 41.83 95.52 C 61.45 95.38 81.66 95.20 86.75 95.13 Z M 15.50 93.00 C 15.16 92.45 15.58 92.00 16.44 92.00 C 17.30 92.00 18.00 92.45 18.00 93.00 C 18.00 93.55 17.58 94.00 17.06 94.00 C 16.54 94.00 15.84 93.55 15.50 93.00 Z M 28.65 92.76 C 28.91 92.34 32.77 92.00 37.23 92.00 C 41.68 92.00 45.06 92.27 44.73 92.60 C 43.83 93.50 28.09 93.66 28.65 92.76 Z M 19.75 92.34 C 20.44 92.06 21.56 92.06 22.25 92.34 C 22.94 92.62 22.38 92.84 21.00 92.84 C 19.62 92.84 19.06 92.62 19.75 92.34 Z M 76.00 92.20 C 76.00 91.34 88.91 91.58 89.80 92.46 C 90.09 92.76 87.11 93.00 83.17 93.00 C 79.22 93.00 76.00 92.64 76.00 92.20 Z M 7.50 7.00 C 7.84 6.45 8.32 6.00 8.56 6.00 C 8.80 6.00 9.00 6.45 9.00 7.00 C 9.00 7.55 8.52 8.00 7.94 8.00 C 7.36 8.00 7.16 7.55 7.50 7.00 Z" fill="none" stroke="rgba(255,255,255,0.92)" stroke-width="1.2" stroke-linejoin="round" fill-rule="evenodd"/>
</svg>
