<svg xmlns="http://www.w3.org/2000/svg" viewBox="0 0 100 100" width="100" height="100">
  <path d="M 0.00 50.00 L 0.00 0.00 L 50.00 0.00 L 100.00 0.00 L 100.00 50.00 L 100.00 100.00 L 50.00 100.00 L 0.00 100.00 L 0.00 50.00 Z M 11.00 84.66 L 11.00 73.32 L 33.66 72.66 C 46.13 72.30 65.25 72.00 76.16 72.00 L 96.00 72.00 L 96.00 69.08 L 96.00 66.16 L 53.50 66.68 L 11.00 67.21 L 11.00 54.10 L 11.00 41.00 L 33.25 40.87 C 45.49 40.79 56.62 40.65 58.00 40.55 C 59.38 40.46 68.49 40.29 78.25 40.19 L 96.00 40.00 L 96.00 37.50 L 96.00 35.00 L 53.64 35.00 L 11.29 35.00 L 10.65 28.25 C 10.30 24.54 10.01 19.64 10.01 17.36 L 10.00 13.23 L 53.00 12.49 L 96.00 11.75 L 96.00 8.89 L 96.00 6.03 L 88.25 6.46 C 83.99 6.69 63.31 6.91 42.29 6.94 L 4.08 7.00 L 4.43 16.25 C 4.63 21.34 4.84 41.36 4.89 60.75 L 5.00 96.00 L 8.00 96.00 L 11.00 96.00 L 11.00 84.66 Z M 65.68 93.81 C 65.36 93.01 65.13 93.25 65.08 94.42 C 65.04 95.47 65.27 96.06 65.60 95.73 C 65.94 95.40 65.97 94.53 65.68 93.81 Z" fill="none" stroke="rgba(255,255,255,0.92)" stroke-width="1.2" stroke-linejoin="round" fill-rule="evenodd"/>
</svg>
