<svg xmlns="http://www.w3.org/2000/svg" viewBox="0 0 100 100" width="100" height="100">
  <path d="M 0.00 50.00 L 0.00 0.00 L 50.00 0.00 L 100.00 0.00 L 100.00 50.00 L 100.00 100.00 L 50.00 100.00 L 0.00 100.00 L 0.00 50.00 Z M 11.00 84.00 L 11.00 72.00 L 53.50 72.00 L 96.00 72.00 L 96.00 69.00 L 96.00 66.00 L 53.50 66.00 L 11.00 66.00 L 11.00 53.61 L 11.00 41.23 L 36.25 40.59 C 50.14 40.24 69.26 40.07 78.75 40.23 L 96.00 40.50 L 96.00 37.75 L 96.00 35.00 L 53.50 35.00 L 11.00 35.00 L 10.82 26.25 C 10.72 21.44 10.60 15.93 10.57 14.00 C 10.53 11.89 11.00 10.45 11.75 10.38 C 12.44 10.31 31.67 10.19 54.50 10.12 L 96.00 10.00 L 96.00 6.84 L 96.00 3.68 L 50.81 4.36 C 25.96 4.74 5.42 5.25 5.17 5.50 C 4.92 5.75 4.74 8.10 4.76 10.73 C 4.79 13.35 4.86 33.61 4.91 55.75 L 5.00 96.00 L 8.00 96.00 L 11.00 96.00 L 11.00 84.00 Z" fill="none" stroke="rgba(255,255,255,0.92)" stroke-width="1.2" stroke-linejoin="round" fill-rule="evenodd"/>
</svg>
