<svg xmlns="http://www.w3.org/2000/svg" viewBox="0 0 100 100" width="100" height="100">
  <path d="M 0.00 50.00 L 0.00 0.00 L 50.00 0.00 L 100.00 0.00 L 100.00 50.00 L 100.00 100.00 L 50.00 100.00 L 0.00 100.00 L 0.00 50.00 Z M 96.00 69.00 L 96.00 66.00 L 50.00 66.00 L 4.00 66.00 L 4.00 69.00 L 4.00 72.00 L 50.00 72.00 L 96.00 72.00 L 96.00 69.00 Z M 86.25 40.03 C 95.89 40.00 96.00 39.97 96.00 37.58 C 96.00 36.25 95.55 35.02 95.00 34.83 C 94.45 34.65 73.75 34.62 49.00 34.77 L 4.00 35.04 L 4.00 38.15 L 4.00 41.26 L 40.25 40.65 C 60.19 40.32 80.89 40.04 86.25 40.03 Z M 96.00 6.93 L 96.00 3.86 L 50.00 4.18 L 4.00 4.50 L 4.00 7.25 L 4.00 10.00 L 50.00 10.00 L 96.00 10.00 L 96.00 6.93 Z" fill="none" stroke="rgba(255,255,255,0.92)" stroke-width="1.2" stroke-linejoin="round" fill-rule="evenodd"/>
</svg>
