<svg xmlns="http://www.w3.org/2000/svg" viewBox="0 0 100 100" width="100" height="100">
  <path d="M 0.00 50.00 L 0.00 0.00 L 50.00 0.00 L 100.00 0.00 L 100.00 50.00 L 100.00 100.00 L 50.00 100.00 L 0.00 100.00 L 0.00 50.00 Z M 96.00 49.50 L 96.00 4.00 L 93.07 4.00 L 90.14 4.00 L 90.04 46.21 C 89.99 69.60 89.55 88.66 89.05 88.97 C 88.57 89.27 82.62 89.51 75.83 89.51 L 63.50 89.50 L 63.24 46.75 L 62.98 4.00 L 59.99 4.00 L 57.00 4.00 L 57.00 47.03 L 57.00 90.06 L 45.25 89.78 L 33.50 89.50 L 32.89 57.00 C 32.55 39.12 32.21 19.89 32.14 14.25 L 32.00 4.00 L 29.06 4.00 L 26.12 4.00 L 26.72 46.87 L 27.31 89.75 L 15.66 89.24 L 4.00 88.72 L 4.00 91.86 L 4.00 95.00 L 50.00 95.00 L 96.00 95.00 L 96.00 49.50 Z" fill="none" stroke="rgba(255,255,255,0.92)" stroke-width="1.2" stroke-linejoin="round" fill-rule="evenodd"/>
</svg>
