<svg xmlns="http://www.w3.org/2000/svg" viewBox="0 0 100 100" width="100" height="100">
  <path d="M 0.00 50.00 L 0.00 0.00 L 50.00 0.00 L 100.00 0.00 L 100.00 50.00 L 100.00 100.00 L 50.00 100.00 L 0.00 100.00 L 0.00 50.00 Z M 94.96 50.50 L 94.92 5.00 L 49.46 5.00 L 4.00 5.00 L 4.00 8.06 L 4.00 11.12 L 34.75 11.00 C 51.66 10.93 70.82 10.90 77.32 10.93 L 89.14 11.00 L 88.82 21.75 L 88.50 32.50 L 47.50 33.11 C 24.95 33.45 5.94 33.79 5.25 33.86 C 4.56 33.94 4.00 35.24 4.00 36.75 L 4.00 39.50 L 46.57 39.17 L 89.14 38.83 L 88.95 49.67 C 88.85 55.62 88.55 61.51 88.28 62.75 L 87.78 65.00 L 61.05 65.00 C 46.35 65.00 27.50 65.30 19.16 65.66 C 4.11 66.31 4.00 66.33 4.00 68.66 L 4.00 71.00 L 46.58 71.00 L 89.16 71.00 L 88.83 83.50 L 88.50 96.00 L 91.75 96.00 L 94.99 96.00 L 94.96 50.50 Z" fill="none" stroke="rgba(255,255,255,0.92)" stroke-width="1.2" stroke-linejoin="round" fill-rule="evenodd"/>
</svg>
