<svg xmlns="http://www.w3.org/2000/svg" viewBox="0 0 100 100" width="100" height="100">
  <path d="M 0.00 50.00 L 0.00 0.00 L 50.00 0.00 L 100.00 0.00 L 100.00 50.00 L 100.00 100.00 L 50.00 100.00 L 0.00 100.00 L 0.00 50.00 Z M 96.00 70.25 C 96.00 56.09 95.70 35.39 95.34 24.25 L 94.68 4.00 L 49.34 4.00 L 4.00 4.00 L 4.00 7.00 L 4.00 10.00 L 46.44 10.00 L 88.88 10.00 L 89.19 21.60 C 89.36 27.98 89.22 33.65 88.89 34.19 C 88.49 34.83 74.75 34.93 49.72 34.46 C 28.52 34.07 9.55 34.05 7.58 34.42 C 4.63 34.97 4.00 35.52 4.00 37.55 L 4.00 40.00 L 30.34 40.00 C 44.83 40.00 64.18 40.30 73.34 40.66 L 90.00 41.31 L 90.00 53.66 L 90.00 66.00 L 47.00 66.00 L 4.00 66.00 L 4.00 69.00 L 4.00 72.00 L 47.00 72.00 L 90.00 72.00 L 90.00 84.00 L 90.00 96.00 L 93.00 96.00 L 96.00 96.00 L 96.00 70.25 Z" fill="none" stroke="rgba(255,255,255,0.92)" stroke-width="1.2" stroke-linejoin="round" fill-rule="evenodd"/>
</svg>
