<svg xmlns="http://www.w3.org/2000/svg" viewBox="0 0 400 220" width="400" height="220">
  <path d="M 0.00 110.00 L 0.00 0.00 L 200.00 0.00 L 400.00 0.00 L 400.00 110.00 L 400.00 220.00 L 200.00 220.00 L 0.00 220.00 L 0.00 110.00 Z M 67.50 215.54 C 96.10 215.18 164.05 214.69 218.50 214.46 C 272.95 214.22 320.20 213.82 323.50 213.57 C 326.80 213.31 344.35 212.90 362.50 212.64 L 395.50 212.16 L 395.35 195.83 C 395.26 186.85 395.14 140.20 395.07 92.16 L 394.94 4.81 L 325.72 5.40 C 287.65 5.73 218.25 6.22 171.50 6.50 C 124.75 6.78 67.95 7.29 45.29 7.64 L 4.08 8.28 L 4.46 18.39 C 4.66 23.95 4.91 70.65 5.00 122.17 C 5.10 173.69 5.36 216.03 5.59 216.25 C 5.81 216.48 8.14 216.56 10.75 216.42 C 13.36 216.29 38.90 215.89 67.50 215.54 Z M 11.42 209.87 C 11.21 209.53 10.84 188.04 10.60 162.12 L 10.17 115.00 L 35.84 114.86 C 49.95 114.78 69.83 114.60 80.00 114.46 C 90.17 114.32 99.27 114.40 100.21 114.65 C 101.79 115.08 101.93 118.50 101.98 159.68 C 102.01 184.20 102.28 204.65 102.58 205.14 C 102.88 205.62 102.88 206.80 102.58 207.76 C 102.07 209.37 98.93 209.53 61.26 209.88 C 38.84 210.09 18.54 210.32 16.15 210.38 C 13.76 210.45 11.63 210.22 11.42 209.87 Z M 107.90 180.86 C 107.84 164.71 107.63 143.06 107.43 132.74 L 107.07 113.98 L 152.61 114.24 L 198.15 114.50 L 198.68 161.73 L 199.22 208.97 L 155.21 208.98 C 131.00 208.98 110.48 209.26 109.60 209.60 C 108.16 210.15 107.99 207.33 107.90 180.86 Z M 204.71 205.79 C 204.42 203.98 204.11 183.40 204.02 160.06 C 203.94 136.71 203.47 116.88 202.98 115.97 C 202.17 114.46 208.38 114.27 282.80 113.54 C 327.19 113.11 369.22 112.70 376.21 112.63 L 388.93 112.50 L 389.59 159.59 L 390.24 206.68 L 366.87 206.95 C 354.02 207.09 333.82 207.52 322.00 207.89 C 310.18 208.27 300.16 208.42 299.75 208.23 C 299.34 208.04 299.00 186.98 299.00 161.44 L 299.00 115.00 L 296.09 115.00 L 293.18 115.00 L 293.34 161.75 L 293.50 208.50 L 249.37 208.79 L 205.24 209.09 L 204.71 205.79 Z M 296.08 203.42 C 296.13 202.25 296.36 202.01 296.68 202.81 C 296.97 203.53 296.94 204.40 296.60 204.73 C 296.27 205.06 296.04 204.47 296.08 203.42 Z M 296.16 197.00 C 296.16 195.62 296.38 195.06 296.66 195.75 C 296.94 196.44 296.94 197.56 296.66 198.25 C 296.38 198.94 296.16 198.38 296.16 197.00 Z M 8.08 195.42 C 8.13 194.25 8.36 194.01 8.68 194.81 C 8.97 195.53 8.94 196.40 8.60 196.73 C 8.27 197.06 8.04 196.47 8.08 195.42 Z M 296.29 187.50 C 296.29 184.75 296.49 183.74 296.72 185.26 C 296.95 186.78 296.94 189.03 296.70 190.26 C 296.47 191.49 296.28 190.25 296.29 187.50 Z M 296.08 174.42 C 296.13 173.25 296.36 173.01 296.68 173.81 C 296.97 174.53 296.94 175.40 296.60 175.73 C 296.27 176.06 296.04 175.47 296.08 174.42 Z M 201.08 172.42 C 201.13 171.25 201.36 171.01 201.68 171.81 C 201.97 172.53 201.94 173.40 201.60 173.73 C 201.27 174.06 201.04 173.47 201.08 172.42 Z M 201.16 166.00 C 201.16 164.62 201.38 164.06 201.66 164.75 C 201.94 165.44 201.94 166.56 201.66 167.25 C 201.38 167.94 201.16 167.38 201.16 166.00 Z M 296.23 161.00 C 296.23 159.07 296.44 158.29 296.69 159.25 C 296.94 160.21 296.94 161.79 296.69 162.75 C 296.44 163.71 296.23 162.93 296.23 161.00 Z M 296.08 154.42 C 296.13 153.25 296.36 153.01 296.68 153.81 C 296.97 154.53 296.94 155.40 296.60 155.73 C 296.27 156.06 296.04 155.47 296.08 154.42 Z M 201.08 152.42 C 201.13 151.25 201.36 151.01 201.68 151.81 C 201.97 152.53 201.94 153.40 201.60 153.73 C 201.27 154.06 201.04 153.47 201.08 152.42 Z M 201.25 131.50 C 201.26 129.30 201.47 128.52 201.71 129.76 C 201.95 131.01 201.94 132.81 201.69 133.76 C 201.44 134.72 201.24 133.70 201.25 131.50 Z M 295.50 131.00 C 295.84 130.45 296.32 130.00 296.56 130.00 C 296.80 130.00 297.00 130.45 297.00 131.00 C 297.00 131.55 296.52 132.00 295.94 132.00 C 295.36 132.00 295.16 131.55 295.50 131.00 Z M 104.16 128.00 C 104.16 126.62 104.38 126.06 104.66 126.75 C 104.94 127.44 104.94 128.56 104.66 129.25 C 104.38 129.94 104.16 129.38 104.16 128.00 Z M 295.00 122.00 C 295.00 120.13 295.27 119.87 296.20 120.80 C 297.13 121.73 297.13 122.27 296.20 123.20 C 295.27 124.13 295.00 123.87 295.00 122.00 Z M 104.16 120.00 C 104.16 118.62 104.38 118.06 104.66 118.75 C 104.94 119.44 104.94 120.56 104.66 121.25 C 104.38 121.94 104.16 121.38 104.16 120.00 Z M 200.02 117.75 C 200.01 116.24 200.45 115.00 201.00 115.00 C 202.26 115.00 202.26 117.04 201.00 119.00 C 200.24 120.17 200.03 119.89 200.02 117.75 Z M 296.08 118.42 C 296.13 117.25 296.36 117.01 296.68 117.81 C 296.97 118.53 296.94 119.40 296.60 119.73 C 296.27 120.06 296.04 119.47 296.08 118.42 Z M 7.00 116.94 C 7.00 115.81 7.43 115.15 7.96 115.47 C 8.48 115.80 8.66 116.72 8.35 117.53 C 7.56 119.60 7.00 119.36 7.00 116.94 Z M 104.00 116.00 C 102.72 115.17 102.75 115.03 104.25 115.02 C 105.21 115.01 106.00 115.45 106.00 116.00 C 106.00 117.22 105.89 117.22 104.00 116.00 Z M 11.42 108.08 C 11.19 107.85 11.00 101.44 11.00 93.83 L 11.00 80.00 L 28.75 79.99 C 38.51 79.98 75.75 79.76 111.50 79.50 C 147.25 79.24 224.31 78.78 282.75 78.49 L 389.00 77.96 L 388.98 90.73 C 388.98 97.75 388.64 104.00 388.23 104.62 C 387.12 106.31 260.57 108.10 126.17 108.31 C 63.28 108.42 11.65 108.31 11.42 108.08 Z M 65.69 103.27 C 65.44 102.30 65.22 102.85 65.19 104.50 C 65.17 106.15 65.38 106.95 65.66 106.27 C 65.93 105.59 65.95 104.24 65.69 103.27 Z M 11.00 59.53 L 11.00 45.31 L 45.25 44.71 C 64.09 44.39 119.10 44.10 167.50 44.07 C 215.90 44.04 285.58 43.72 322.35 43.35 L 389.20 42.67 L 388.80 56.30 C 388.58 63.80 388.19 70.15 387.92 70.41 C 386.75 71.58 357.88 71.90 202.50 72.44 C 111.75 72.76 31.54 73.18 24.25 73.38 L 11.00 73.75 L 11.00 59.53 Z M 10.64 31.24 C 10.29 27.09 10.00 21.53 10.00 18.88 L 10.00 14.05 L 43.75 13.76 C 62.31 13.60 122.95 13.35 178.50 13.19 C 234.05 13.03 281.07 12.75 283.00 12.56 C 286.11 12.24 344.18 11.88 376.79 11.97 L 389.08 12.00 L 388.94 23.84 L 388.79 35.69 L 353.15 36.39 C 333.54 36.77 253.15 37.29 174.50 37.54 C 95.85 37.79 26.95 38.18 21.39 38.39 L 11.28 38.79 L 10.64 31.24 Z" fill="none" stroke="rgba(255,255,255,0.92)" stroke-width="1.5" stroke-linejoin="round" fill-rule="evenodd"/>
</svg>
