<svg xmlns="http://www.w3.org/2000/svg" viewBox="0 0 100 100" width="100" height="100">
  <path d="M 0.00 50.00 L 0.00 0.00 L 50.00 0.00 L 100.00 0.00 L 100.00 50.00 L 100.00 100.00 L 50.00 100.00 L 0.00 100.00 L 0.00 50.00 Z M 96.00 69.00 L 96.00 66.00 L 50.00 66.00 L 4.00 66.00 L 4.00 69.00 L 4.00 72.00 L 50.00 72.00 L 96.00 72.00 L 96.00 69.00 Z M 96.00 37.00 L 96.00 34.00 L 50.00 34.00 L 4.00 34.00 L 4.00 37.00 L 4.00 40.00 L 50.00 40.00 L 96.00 40.00 L 96.00 37.00 Z M 68.25 11.34 L 96.00 10.68 L 96.00 7.70 L 96.00 4.72 L 89.85 5.36 C 86.47 5.71 65.77 6.00 43.85 6.00 L 4.00 6.00 L 4.00 9.00 L 4.00 12.00 L 22.25 12.00 C 32.29 12.00 52.99 11.70 68.25 11.34 Z" fill="none" stroke="rgba(255,255,255,0.92)" stroke-width="1.2" stroke-linejoin="round" fill-rule="evenodd"/>
</svg>
