<svg xmlns="http://www.w3.org/2000/svg" viewBox="0 0 400 288" width="400" height="288">
  <path d="M 0.00 144.00 L 0.00 0.00 L 200.00 0.00 L 400.00 0.00 L 400.00 144.00 L 400.00 288.00 L 200.00 288.00 L 0.00 288.00 L 0.00 144.00 Z M 152.50 281.50 C 208.60 281.24 286.18 281.03 324.91 281.04 L 395.32 281.05 L 394.73 144.54 C 394.40 69.46 393.85 7.57 393.50 7.00 C 392.79 5.85 110.36 5.58 44.13 6.67 L 5.76 7.30 L 6.42 110.40 C 6.78 167.11 7.16 229.13 7.25 248.23 L 7.43 282.96 L 28.96 282.46 C 40.81 282.19 96.40 281.76 152.50 281.50 Z M 256.83 276.34 L 256.50 273.50 L 221.00 273.67 C 201.47 273.76 176.72 273.90 166.00 273.97 C 155.28 274.05 145.29 274.09 143.81 274.06 L 141.12 274.00 L 140.98 236.25 C 140.90 215.49 140.74 187.36 140.63 173.75 L 140.43 149.00 L 188.47 148.97 C 214.89 148.95 241.04 148.67 246.60 148.35 L 256.70 147.76 L 257.36 174.63 C 258.22 209.54 258.45 277.88 257.72 278.61 C 257.41 278.93 257.00 277.90 256.83 276.34 Z M 14.98 263.81 C 14.96 257.59 14.85 229.32 14.73 201.00 L 14.50 149.50 L 74.00 149.25 L 133.50 148.99 L 133.70 211.50 L 133.90 274.00 L 104.20 273.99 C 87.86 273.98 61.11 274.23 44.75 274.54 L 15.00 275.11 L 14.98 263.81 Z M 267.00 272.65 C 267.00 272.44 266.79 264.67 266.53 255.38 C 266.28 246.10 265.94 218.25 265.78 193.50 L 265.50 148.50 L 283.40 148.74 C 293.25 148.87 301.42 149.09 301.56 149.24 C 301.70 149.38 301.97 177.18 302.16 211.00 L 302.50 272.50 L 284.75 272.77 C 274.99 272.92 267.00 272.87 267.00 272.65 Z M 310.87 271.75 C 310.79 271.06 310.45 243.15 310.12 209.73 L 309.50 148.95 L 326.00 149.23 L 342.50 149.50 L 342.76 211.25 L 343.02 273.00 L 327.01 273.00 C 314.94 273.00 310.97 272.69 310.87 271.75 Z M 351.59 272.14 C 351.28 271.65 351.01 243.85 350.98 210.37 L 350.94 149.50 L 368.72 149.50 L 386.50 149.50 L 386.50 211.00 L 386.50 272.50 L 369.32 272.77 C 359.84 272.92 351.90 272.64 351.59 272.14 Z M 10.67 227.33 C 10.30 226.97 10.03 225.73 10.06 224.58 C 10.12 222.67 10.20 222.69 11.08 224.90 C 12.06 227.34 11.86 228.53 10.67 227.33 Z M 136.25 209.50 C 136.26 207.30 136.47 206.52 136.71 207.76 C 136.95 209.01 136.94 210.81 136.69 211.76 C 136.44 212.72 136.24 211.70 136.25 209.50 Z M 136.02 193.31 C 136.02 192.86 136.47 191.82 137.00 191.00 C 137.84 189.71 137.97 189.73 137.98 191.19 C 137.99 192.12 137.55 193.16 137.00 193.50 C 136.45 193.84 136.01 193.75 136.02 193.31 Z M 136.16 187.00 C 136.16 185.62 136.38 185.06 136.66 185.75 C 136.94 186.44 136.94 187.56 136.66 188.25 C 136.38 188.94 136.16 188.38 136.16 187.00 Z M 137.08 162.42 C 137.13 161.25 137.36 161.01 137.68 161.81 C 137.97 162.53 137.94 163.40 137.60 163.73 C 137.27 164.06 137.04 163.47 137.08 162.42 Z M 136.34 153.56 C 136.64 152.78 136.35 151.94 135.69 151.70 C 135.04 151.47 134.86 150.89 135.30 150.42 C 135.75 149.94 136.53 150.22 137.04 151.03 C 138.31 153.04 138.24 155.00 136.89 155.00 C 136.28 155.00 136.03 154.35 136.34 153.56 Z M 175.85 140.25 L 15.20 139.99 L 14.82 135.25 C 14.60 132.64 14.45 124.65 14.47 117.50 L 14.50 104.50 L 28.00 103.81 C 40.89 103.15 307.40 103.15 361.25 103.81 L 387.00 104.12 L 387.00 122.56 L 387.00 141.00 L 361.75 140.75 C 347.86 140.62 264.21 140.39 175.85 140.25 Z M 188.56 95.25 C 75.96 95.08 15.40 94.65 15.00 94.01 C 14.67 93.46 14.27 85.42 14.13 76.13 L 13.86 59.23 L 45.18 58.58 C 82.16 57.81 384.58 58.24 385.40 59.06 C 385.71 59.38 386.08 67.70 386.23 77.56 L 386.50 95.50 L 374.00 95.50 C 367.12 95.50 283.68 95.39 188.56 95.25 Z M 14.70 49.37 C 14.32 48.98 14.00 41.09 14.00 31.83 L 14.00 15.00 L 52.75 15.03 C 74.06 15.04 157.65 14.93 238.50 14.78 L 385.50 14.50 L 385.77 32.11 L 386.05 49.72 L 200.72 49.90 C 98.80 49.99 15.09 49.75 14.70 49.37 Z" fill="none" stroke="rgba(255,255,255,0.92)" stroke-width="1.5" stroke-linejoin="round" fill-rule="evenodd"/>
</svg>
