<svg xmlns="http://www.w3.org/2000/svg" viewBox="0 0 400 221" width="400" height="221">
  <path d="M 0.00 110.50 L 0.00 0.00 L 200.00 0.00 L 400.00 0.00 L 400.00 110.50 L 400.00 221.00 L 200.00 221.00 L 0.00 221.00 L 0.00 110.50 Z M 393.50 215.18 C 395.49 215.00 395.50 214.24 395.60 111.15 L 395.69 7.29 L 259.60 6.65 C 184.74 6.29 96.81 5.71 64.18 5.36 L 4.87 4.71 L 5.36 109.60 C 5.63 167.30 5.88 214.59 5.92 214.71 C 6.18 215.42 385.78 215.89 393.50 215.18 Z M 237.00 212.88 C 235.07 212.54 238.83 212.20 245.42 212.13 C 251.97 212.06 257.13 212.21 256.87 212.46 C 256.11 213.22 240.76 213.55 237.00 212.88 Z M 259.50 213.00 C 259.84 212.45 260.32 212.00 260.56 212.00 C 260.80 212.00 261.00 212.45 261.00 213.00 C 261.00 213.55 260.52 214.00 259.94 214.00 C 259.36 214.00 259.16 213.55 259.50 213.00 Z M 268.00 213.00 C 268.00 212.45 268.45 212.00 269.00 212.00 C 269.55 212.00 270.00 212.45 270.00 213.00 C 270.00 213.55 269.55 214.00 269.00 214.00 C 268.45 214.00 268.00 213.55 268.00 213.00 Z M 11.00 212.10 C 12.10 211.31 12.15 211.03 11.19 211.02 C 10.47 211.01 10.14 210.59 10.45 210.09 C 10.76 209.58 10.58 209.02 10.05 208.84 C 9.44 208.62 9.43 207.04 10.02 204.50 C 11.01 200.27 11.36 189.31 10.48 190.18 C 10.20 190.47 9.56 193.36 9.06 196.60 L 8.15 202.50 L 8.29 194.30 C 8.37 189.79 8.16 185.82 7.82 185.49 C 6.95 184.62 8.07 180.93 9.03 181.52 C 9.90 182.06 11.01 170.35 10.80 162.81 C 10.72 160.04 10.22 158.19 9.58 158.31 C 8.99 158.41 8.37 156.93 8.22 155.00 C 8.01 152.37 8.19 151.87 8.95 153.00 C 9.84 154.30 9.97 154.28 9.98 152.83 C 9.99 151.92 9.61 151.02 9.13 150.83 C 8.65 150.65 8.06 147.93 7.80 144.80 C 7.55 141.66 7.72 139.32 8.17 139.61 C 8.63 139.89 9.00 142.09 9.00 144.50 C 9.00 146.91 9.52 149.20 10.15 149.59 C 11.92 150.69 10.64 136.50 8.80 134.66 C 7.68 133.54 7.43 131.41 7.75 125.84 C 8.25 117.20 9.00 115.42 9.00 122.89 C 9.00 125.77 9.39 127.88 9.86 127.59 C 10.33 127.30 10.50 124.86 10.24 122.18 C 9.98 119.44 10.28 116.34 10.93 115.13 L 12.09 112.97 L 56.51 113.02 C 80.94 113.05 101.11 113.40 101.34 113.79 C 101.57 114.18 101.92 135.65 102.12 161.50 L 102.50 208.50 L 100.25 209.49 C 99.01 210.03 98.00 210.82 98.00 211.24 C 98.00 211.66 97.52 212.00 96.94 212.00 C 96.36 212.00 96.16 211.55 96.50 211.00 C 96.89 210.37 94.70 210.00 90.64 210.00 C 86.40 210.00 83.99 210.43 83.66 211.25 C 83.26 212.25 83.14 212.25 83.08 211.25 C 83.02 210.34 80.28 210.00 72.94 210.00 C 65.58 210.00 63.07 210.31 63.60 211.16 C 64.12 212.00 63.40 212.09 60.91 211.49 C 59.03 211.04 55.16 210.55 52.31 210.40 C 48.14 210.19 47.22 210.42 47.66 211.57 C 48.05 212.56 47.49 213.00 45.86 212.98 C 44.01 212.97 43.82 212.77 44.97 212.04 C 45.78 211.53 46.16 210.82 45.81 210.47 C 45.46 210.13 44.05 210.58 42.68 211.47 C 41.03 212.55 39.96 212.75 39.53 212.05 C 39.18 211.47 39.39 211.00 40.00 211.00 C 40.61 211.00 40.89 210.63 40.60 210.17 C 40.02 209.22 33.76 209.90 33.00 211.00 C 32.73 211.40 30.25 212.02 27.50 212.38 C 22.72 213.01 22.61 212.97 25.00 211.52 C 27.47 210.02 27.46 210.01 23.25 210.20 C 20.91 210.31 19.00 210.71 19.00 211.09 C 19.00 211.47 17.99 211.79 16.75 211.78 C 15.51 211.78 13.38 212.09 12.00 212.47 C 10.07 213.01 9.84 212.93 11.00 212.10 Z M 71.75 212.34 C 72.44 212.06 73.56 212.06 74.25 212.34 C 74.94 212.62 74.38 212.84 73.00 212.84 C 71.62 212.84 71.06 212.62 71.75 212.34 Z M 106.71 211.00 C 106.42 209.90 106.64 208.72 107.19 208.38 C 107.85 207.97 108.08 191.81 107.85 161.46 C 107.66 136.00 107.84 114.83 108.26 114.41 C 109.12 113.55 109.05 113.55 160.25 113.98 L 198.00 114.30 L 198.10 153.90 C 198.15 175.68 198.26 197.10 198.35 201.50 L 198.50 209.50 L 184.50 209.67 C 158.09 209.98 148.50 210.27 150.76 210.71 C 152.01 210.95 152.78 211.54 152.48 212.03 C 152.16 212.55 150.81 212.50 149.30 211.92 C 147.40 211.20 146.46 211.26 145.92 212.12 C 145.37 213.01 144.75 212.90 143.52 211.66 C 142.35 210.49 140.19 210.01 136.18 210.05 C 130.56 210.09 130.53 210.11 133.50 211.46 L 136.50 212.84 L 133.36 212.92 C 131.33 212.97 129.99 212.43 129.59 211.39 C 129.16 210.24 128.33 209.97 126.74 210.46 C 123.40 211.50 117.92 211.69 117.37 210.79 C 116.56 209.49 113.24 209.90 111.64 211.50 C 109.55 213.59 107.33 213.37 106.71 211.00 Z M 155.00 212.00 C 155.00 211.45 155.45 211.00 156.00 211.00 C 156.55 211.00 157.00 211.45 157.00 212.00 C 157.00 212.55 156.55 213.00 156.00 213.00 C 155.45 213.00 155.00 212.55 155.00 212.00 Z M 164.50 212.00 C 164.16 211.45 164.36 211.00 164.94 211.00 C 165.52 211.00 166.00 211.45 166.00 212.00 C 166.00 212.55 165.80 213.00 165.56 213.00 C 165.32 213.00 164.84 212.55 164.50 212.00 Z M 225.81 212.32 C 226.53 212.03 227.40 212.06 227.73 212.40 C 228.06 212.73 227.47 212.96 226.42 212.92 C 225.25 212.87 225.01 212.64 225.81 212.32 Z M 229.17 211.77 C 227.74 210.34 209.10 209.72 207.47 211.05 C 204.25 213.66 204.02 210.69 203.72 162.18 L 203.41 113.97 L 248.46 114.43 L 293.50 114.88 L 293.76 162.33 L 294.02 209.78 L 291.47 210.42 C 290.07 210.77 289.19 211.50 289.52 212.03 C 289.85 212.56 289.36 213.00 288.44 213.00 C 287.21 213.00 287.03 212.67 287.79 211.75 C 288.62 210.76 282.92 210.46 259.97 210.30 C 235.12 210.13 231.18 210.30 231.66 211.55 C 232.34 213.32 230.85 213.45 229.17 211.77 Z M 300.27 212.31 C 301.24 212.05 302.59 212.07 303.27 212.34 C 303.95 212.62 303.15 212.83 301.50 212.81 C 299.85 212.78 299.30 212.56 300.27 212.31 Z M 315.75 212.34 C 316.44 212.06 317.56 212.06 318.25 212.34 C 318.94 212.62 318.38 212.84 317.00 212.84 C 315.62 212.84 315.06 212.62 315.75 212.34 Z M 328.75 212.29 C 329.99 212.06 332.01 212.06 333.25 212.29 C 334.49 212.53 333.48 212.73 331.00 212.73 C 328.52 212.73 327.51 212.53 328.75 212.29 Z M 342.75 212.34 C 343.44 212.06 344.56 212.06 345.25 212.34 C 345.94 212.62 345.38 212.84 344.00 212.84 C 342.62 212.84 342.06 212.62 342.75 212.34 Z M 350.81 212.32 C 351.53 212.03 352.40 212.06 352.73 212.40 C 353.06 212.73 352.47 212.96 351.42 212.92 C 350.25 212.87 350.01 212.64 350.81 212.32 Z M 299.89 210.00 C 299.31 207.34 299.39 116.99 299.97 116.05 C 300.57 115.09 309.24 114.80 338.12 114.80 C 358.68 114.80 378.76 114.84 382.75 114.90 L 390.00 115.00 L 390.00 162.50 C 390.00 188.62 389.66 210.01 389.25 210.02 C 374.57 210.37 299.97 210.35 299.89 210.00 Z M 202.08 205.42 C 202.13 204.25 202.36 204.01 202.68 204.81 C 202.97 205.53 202.94 206.40 202.60 206.73 C 202.27 207.06 202.04 206.47 202.08 205.42 Z M 297.08 204.42 C 297.13 203.25 297.36 203.01 297.68 203.81 C 297.97 204.53 297.94 205.40 297.60 205.73 C 297.27 206.06 297.04 205.47 297.08 204.42 Z M 105.00 194.50 C 105.00 193.68 105.45 193.00 106.00 193.00 C 106.55 193.00 107.00 193.68 107.00 194.50 C 107.00 195.32 106.55 196.00 106.00 196.00 C 105.45 196.00 105.00 195.32 105.00 194.50 Z M 105.19 187.50 C 105.22 185.85 105.44 185.30 105.69 186.27 C 105.95 187.24 105.93 188.59 105.66 189.27 C 105.38 189.95 105.17 189.15 105.19 187.50 Z M 105.27 180.00 C 105.27 177.53 105.47 176.51 105.71 177.75 C 105.94 178.99 105.94 181.01 105.71 182.25 C 105.47 183.49 105.27 182.47 105.27 180.00 Z M 8.32 173.00 C 8.32 169.43 8.50 167.96 8.72 169.75 C 8.95 171.54 8.95 174.46 8.72 176.25 C 8.50 178.04 8.32 176.57 8.32 173.00 Z M 105.00 166.00 C 105.00 160.87 105.19 156.86 105.43 157.10 C 106.15 157.81 106.35 173.99 105.65 174.68 C 105.29 175.04 105.00 171.13 105.00 166.00 Z M 7.77 164.23 C 7.52 163.26 7.66 161.58 8.08 160.48 C 8.67 158.97 8.88 159.39 8.93 162.25 C 9.01 166.27 8.52 167.10 7.77 164.23 Z M 105.08 152.42 C 105.13 151.25 105.36 151.01 105.68 151.81 C 105.97 152.53 105.94 153.40 105.60 153.73 C 105.27 154.06 105.04 153.47 105.08 152.42 Z M 105.08 146.42 C 105.13 145.25 105.36 145.01 105.68 145.81 C 105.97 146.53 105.94 147.40 105.60 147.73 C 105.27 148.06 105.04 147.47 105.08 146.42 Z M 104.71 140.25 C 104.42 138.74 104.58 136.82 105.06 136.00 C 105.67 134.97 105.95 135.83 105.97 138.75 C 106.00 143.62 105.47 144.25 104.71 140.25 Z M 104.64 130.50 C 104.95 129.68 105.39 129.00 105.61 129.00 C 105.82 129.00 106.00 129.68 106.00 130.50 C 106.00 131.32 105.56 132.00 105.03 132.00 C 104.50 132.00 104.32 131.32 104.64 130.50 Z M 105.23 124.00 C 105.23 122.08 105.44 121.29 105.69 122.25 C 105.94 123.21 105.94 124.79 105.69 125.75 C 105.44 126.71 105.23 125.92 105.23 124.00 Z M 341.75 112.34 C 342.44 112.06 343.56 112.06 344.25 112.34 C 344.94 112.62 344.38 112.84 343.00 112.84 C 341.62 112.84 341.06 112.62 341.75 112.34 Z M 383.50 112.00 C 383.16 111.45 383.36 111.00 383.94 111.00 C 384.52 111.00 385.00 111.45 385.00 112.00 C 385.00 112.55 384.80 113.00 384.56 113.00 C 384.32 113.00 383.84 112.55 383.50 112.00 Z M 106.28 110.75 C 104.68 108.69 104.03 106.10 104.96 105.53 C 105.44 105.23 106.06 105.55 106.33 106.24 C 106.61 106.93 106.79 101.88 106.73 95.00 C 106.66 87.58 106.33 83.84 105.92 85.80 C 104.68 91.73 104.29 90.23 104.11 78.95 C 104.01 72.16 104.31 68.07 104.89 68.43 C 105.41 68.75 106.13 67.66 106.50 66.01 C 107.08 63.38 107.59 63.00 110.58 63.00 L 114.00 63.00 L 114.02 68.25 C 114.09 85.95 128.59 103.36 146.27 106.98 C 149.21 107.58 144.58 107.84 131.00 107.84 C 104.57 107.85 106.75 107.65 107.50 110.00 C 108.22 112.27 107.70 112.59 106.28 110.75 Z M 204.00 111.00 C 204.00 110.45 204.45 110.00 205.00 110.00 C 205.55 110.00 206.00 110.45 206.00 111.00 C 206.00 111.55 205.55 112.00 205.00 112.00 C 204.45 112.00 204.00 111.55 204.00 111.00 Z M 256.00 111.08 C 256.00 110.58 256.56 109.94 257.25 109.66 C 257.94 109.38 256.70 109.08 254.50 108.99 C 250.69 108.83 250.82 108.74 257.31 107.01 C 273.35 102.73 283.86 90.16 286.24 72.42 L 287.36 64.00 L 290.68 64.00 L 294.00 64.00 L 294.00 86.50 L 294.00 109.00 L 290.93 109.00 C 289.25 109.00 286.94 109.49 285.81 110.10 C 284.32 110.90 283.94 110.90 284.44 110.10 C 285.43 108.49 267.57 108.63 264.96 110.25 C 263.29 111.28 262.76 111.24 261.95 110.00 C 261.09 108.69 260.79 108.72 259.62 110.25 C 258.20 112.11 256.00 112.61 256.00 111.08 Z M 62.50 110.00 C 62.16 109.45 62.81 109.00 63.94 109.00 C 65.07 109.00 66.00 109.45 66.00 110.00 C 66.00 110.55 65.35 111.00 64.56 111.00 C 63.77 111.00 62.84 110.55 62.50 110.00 Z M 128.76 110.29 C 130.01 110.05 131.81 110.06 132.76 110.31 C 133.72 110.56 132.70 110.76 130.50 110.75 C 128.30 110.74 127.52 110.53 128.76 110.29 Z M 26.75 109.34 C 27.44 109.06 28.56 109.06 29.25 109.34 C 29.94 109.62 29.38 109.84 28.00 109.84 C 26.62 109.84 26.06 109.62 26.75 109.34 Z M 110.75 109.34 C 111.44 109.06 112.56 109.06 113.25 109.34 C 113.94 109.62 113.38 109.84 112.00 109.84 C 110.62 109.84 110.06 109.62 110.75 109.34 Z M 202.93 109.31 C 202.89 108.86 202.92 105.24 202.99 101.25 C 203.08 96.70 202.73 94.00 202.07 94.00 C 201.48 94.00 201.00 93.52 201.00 92.94 C 201.00 92.36 201.47 92.17 202.05 92.53 C 202.76 92.97 203.07 88.92 203.00 79.84 C 202.94 72.50 202.92 65.94 202.95 65.25 C 202.98 64.50 204.39 64.00 206.50 64.00 C 209.88 64.00 210.00 64.13 210.00 67.79 C 210.00 69.87 210.67 74.16 211.50 77.32 C 215.64 93.25 226.56 103.97 242.16 107.43 C 248.26 108.78 247.70 108.83 226.94 108.74 C 215.08 108.69 204.85 108.98 204.19 109.38 C 203.54 109.79 202.97 109.75 202.93 109.31 Z M 347.00 108.88 C 347.00 108.54 348.86 107.96 351.13 107.60 C 361.67 105.91 373.68 96.30 378.56 85.66 C 379.90 82.72 381.52 76.64 382.16 72.15 L 383.31 64.00 L 386.48 64.00 L 389.64 64.00 L 389.77 86.46 L 389.90 108.92 L 368.45 109.21 C 356.65 109.37 347.00 109.22 347.00 108.88 Z M 7.97 102.15 C 7.71 98.10 7.83 94.28 8.23 93.65 C 8.64 93.01 9.00 92.94 9.05 93.50 C 9.09 94.05 9.54 93.48 10.04 92.24 C 10.54 90.99 10.62 88.52 10.23 86.74 L 9.52 83.50 L 8.91 88.00 C 8.45 91.37 8.26 90.17 8.15 83.19 C 8.05 77.20 8.36 74.10 9.00 74.50 C 9.59 74.87 10.00 73.72 10.00 71.68 C 10.00 69.80 10.28 66.84 10.62 65.12 C 11.18 62.37 11.65 62.00 14.62 62.00 C 17.98 62.00 18.00 62.02 18.01 66.75 C 18.06 84.55 30.55 100.77 47.89 105.55 L 52.50 106.82 L 48.50 106.96 C 46.30 107.04 36.70 107.19 27.18 107.30 L 9.85 107.50 L 10.39 104.79 C 10.69 103.30 10.53 101.82 10.03 101.52 C 9.53 101.21 8.97 102.88 8.78 105.23 C 8.52 108.46 8.33 107.71 7.97 102.15 Z M 21.81 108.32 C 22.53 108.03 23.40 108.06 23.73 108.40 C 24.06 108.73 23.47 108.96 22.42 108.92 C 21.25 108.87 21.01 108.64 21.81 108.32 Z M 91.63 108.29 C 91.31 107.98 84.48 107.79 76.45 107.88 C 66.73 107.99 62.07 107.70 62.49 107.02 C 62.83 106.46 63.65 106.00 64.31 106.00 C 66.74 106.00 77.63 100.12 81.58 96.69 C 87.87 91.21 92.98 80.27 93.71 70.71 L 94.29 63.00 L 97.64 63.00 C 99.64 63.00 101.02 63.51 101.05 64.25 C 101.44 74.73 101.57 105.82 101.22 106.78 C 100.97 107.48 99.98 107.81 99.01 107.50 C 98.05 107.20 96.13 107.38 94.73 107.91 C 93.34 108.44 91.95 108.61 91.63 108.29 Z M 157.00 107.85 C 158.93 107.31 162.14 106.44 164.15 105.92 C 169.96 104.42 177.09 99.02 182.19 92.26 C 187.61 85.08 188.94 81.35 189.71 71.25 L 190.26 64.00 L 193.88 64.00 L 197.50 64.00 L 197.60 86.26 L 197.70 108.53 L 175.60 108.68 C 159.59 108.80 154.46 108.57 157.00 107.85 Z M 299.88 108.75 C 299.81 108.61 299.63 98.46 299.48 86.20 L 299.19 63.89 L 302.85 64.20 C 306.05 64.46 306.48 64.81 306.34 67.00 C 306.08 71.21 308.72 82.54 311.03 87.07 C 316.38 97.54 327.80 105.99 339.19 107.88 C 343.14 108.54 338.80 108.80 322.25 108.88 C 310.01 108.95 299.95 108.89 299.88 108.75 Z M 105.08 101.42 C 105.13 100.25 105.36 100.01 105.68 100.81 C 105.97 101.53 105.94 102.40 105.60 102.73 C 105.27 103.06 105.04 102.47 105.08 101.42 Z M 244.35 100.90 C 229.31 98.97 215.95 83.59 215.99 68.24 L 216.00 63.97 L 248.25 64.24 L 280.50 64.50 L 280.35 69.17 C 280.06 77.76 277.42 84.38 271.84 90.48 C 269.01 93.58 265.05 96.95 263.05 97.98 C 258.06 100.52 250.53 101.70 244.35 100.90 Z M 338.15 100.95 C 329.12 99.12 318.53 90.06 315.28 81.39 C 313.52 76.70 311.78 66.16 312.56 64.90 C 313.27 63.75 375.70 63.70 376.41 64.85 C 377.44 66.52 374.89 78.57 372.44 83.64 C 369.53 89.66 362.59 96.42 356.68 98.99 C 351.39 101.28 343.76 102.09 338.15 100.95 Z M 143.57 99.42 C 137.11 97.05 130.10 92.01 126.98 87.48 C 122.75 81.33 119.83 72.85 120.19 67.80 L 120.50 63.53 L 133.00 63.64 C 139.88 63.71 154.22 63.81 164.88 63.88 L 184.27 64.00 L 183.78 70.85 C 182.58 87.56 168.99 101.11 153.59 100.93 C 150.24 100.89 145.73 100.21 143.57 99.42 Z M 45.72 97.83 C 34.06 93.76 24.76 80.88 24.59 68.55 L 24.50 62.50 L 38.50 62.57 C 46.20 62.61 60.55 62.72 70.39 62.82 L 88.29 63.00 L 87.68 69.54 C 86.77 79.24 82.41 87.67 75.56 92.95 C 66.29 100.11 56.73 101.67 45.72 97.83 Z M 10.46 97.07 C 10.77 96.56 10.58 95.86 10.02 95.51 C 9.46 95.16 9.00 95.58 9.00 96.44 C 9.00 98.20 9.60 98.46 10.46 97.07 Z M 104.00 94.56 C 104.00 93.70 104.45 93.00 105.00 93.00 C 105.55 93.00 106.00 93.42 106.00 93.94 C 106.00 94.46 105.55 95.16 105.00 95.50 C 104.45 95.84 104.00 95.42 104.00 94.56 Z M 9.66 79.75 C 9.38 79.06 9.16 79.62 9.16 81.00 C 9.16 82.38 9.38 82.94 9.66 82.25 C 9.94 81.56 9.94 80.44 9.66 79.75 Z M 8.27 69.00 C 8.27 66.53 8.47 65.51 8.71 66.75 C 8.94 67.99 8.94 70.01 8.71 71.25 C 8.47 72.49 8.27 71.47 8.27 69.00 Z M 106.68 70.81 C 106.36 70.01 106.13 70.25 106.08 71.42 C 106.04 72.47 106.27 73.06 106.60 72.73 C 106.94 72.40 106.97 71.53 106.68 70.81 Z M 165.00 56.89 C 116.88 56.56 62.53 55.94 44.23 55.51 L 10.96 54.73 L 11.23 33.12 L 11.50 11.50 L 69.00 11.89 C 100.62 12.11 127.85 12.38 129.50 12.49 C 131.15 12.60 190.49 12.76 261.37 12.84 L 390.23 13.00 L 389.76 34.52 C 389.50 46.36 389.09 56.24 388.85 56.49 C 388.06 57.27 254.92 57.52 165.00 56.89 Z" fill="none" stroke="rgba(255,255,255,0.92)" stroke-width="1.5" stroke-linejoin="round" fill-rule="evenodd"/>
</svg>
