<svg xmlns="http://www.w3.org/2000/svg" viewBox="0 0 100 100" width="100" height="100">
  <path d="M 0.00 50.00 L 0.00 0.00 L 50.00 0.00 L 100.00 0.00 L 100.00 50.00 L 100.00 100.00 L 50.00 100.00 L 0.00 100.00 L 0.00 50.00 Z M 96.00 50.46 L 96.00 4.92 L 71.75 5.39 C 58.41 5.65 37.68 5.89 25.68 5.93 L 3.86 6.00 L 4.18 8.25 L 4.50 10.50 L 38.50 10.65 C 57.20 10.74 77.23 10.85 83.01 10.90 L 93.53 11.00 L 93.51 53.08 C 93.51 76.23 93.69 95.35 93.92 95.58 C 95.69 97.36 96.00 90.64 96.00 50.46 Z M 64.61 91.60 C 79.43 84.93 88.66 68.01 86.10 52.17 C 83.96 38.88 75.35 27.40 63.28 21.75 C 48.37 14.77 28.60 20.10 18.45 33.83 C 6.18 50.43 9.97 74.84 26.81 87.68 C 36.86 95.35 52.63 96.99 64.61 91.60 Z M 39.32 87.21 C 32.20 84.66 28.03 81.60 23.68 75.71 C 11.58 59.37 16.82 37.60 35.20 27.80 C 38.81 25.87 41.02 25.51 49.00 25.50 C 59.46 25.50 62.19 26.58 70.33 33.92 C 82.83 45.20 83.56 66.18 71.89 78.53 C 63.30 87.61 50.20 91.10 39.32 87.21 Z" fill="none" stroke="rgba(255,255,255,0.92)" stroke-width="1.2" stroke-linejoin="round" fill-rule="evenodd"/>
</svg>
