<svg xmlns="http://www.w3.org/2000/svg" viewBox="0 0 100 100" width="100" height="100">
  <path d="M 0.00 50.00 L 0.00 0.00 L 50.00 0.00 L 100.00 0.00 L 100.00 50.00 L 100.00 100.00 L 50.00 100.00 L 0.00 100.00 L 0.00 50.00 Z M 7.88 90.50 C 7.76 87.48 7.96 84.71 8.33 84.34 C 8.70 83.97 9.00 84.94 9.00 86.50 C 9.00 88.06 9.29 89.04 9.65 88.69 C 10.29 88.04 10.46 82.67 9.98 78.00 C 9.78 76.13 9.54 76.50 9.00 79.50 C 8.42 82.72 8.26 81.88 8.14 75.19 C 8.05 69.87 8.36 67.10 9.00 67.50 C 9.58 67.86 10.00 66.89 10.00 65.18 C 10.00 63.57 10.28 60.84 10.62 59.12 C 11.17 56.40 11.66 56.00 14.49 56.00 L 17.73 56.00 L 18.24 62.39 C 19.25 75.03 27.90 87.25 39.76 92.81 C 44.90 95.22 46.65 95.50 56.50 95.50 C 66.63 95.50 67.97 95.27 73.45 92.58 C 85.10 86.86 92.76 75.90 93.75 63.51 C 94.04 59.93 94.66 57.00 95.14 57.00 C 95.61 57.00 96.00 55.72 96.00 54.16 L 96.00 51.32 L 76.34 50.66 C 65.53 50.30 46.39 50.00 33.82 50.00 L 10.96 50.00 L 11.23 30.25 L 11.50 10.50 L 53.75 10.88 L 96.00 11.26 L 96.00 8.13 L 96.00 5.00 L 71.66 5.00 C 58.27 5.00 37.79 4.70 26.14 4.34 L 4.95 3.68 L 5.08 49.84 C 5.19 89.43 5.41 96.00 6.65 96.00 C 7.77 96.00 8.05 94.74 7.88 90.50 Z M 10.10 91.70 C 9.30 90.90 9.01 91.40 9.03 93.55 C 9.06 96.14 9.19 96.27 10.13 94.65 C 10.90 93.33 10.89 92.49 10.10 91.70 Z M 54.00 90.25 C 37.83 88.44 24.86 75.98 24.60 62.00 L 24.50 56.50 L 33.25 56.52 C 38.06 56.54 52.41 56.65 65.14 56.77 L 88.28 57.00 L 87.66 63.00 C 86.56 73.49 79.93 82.96 70.59 87.39 C 66.99 89.10 57.81 90.68 54.00 90.25 Z M 9.68 72.81 C 9.36 72.01 9.13 72.25 9.08 73.42 C 9.04 74.47 9.27 75.06 9.60 74.73 C 9.94 74.40 9.97 73.53 9.68 72.81 Z M 8.29 61.50 C 8.29 58.75 8.49 57.74 8.72 59.26 C 8.95 60.78 8.94 63.03 8.70 64.26 C 8.47 65.49 8.28 64.25 8.29 61.50 Z" fill="none" stroke="rgba(255,255,255,0.92)" stroke-width="1.2" stroke-linejoin="round" fill-rule="evenodd"/>
</svg>
