<svg xmlns="http://www.w3.org/2000/svg" viewBox="0 0 100 100" width="100" height="100">
  <path d="M 0.00 50.00 L 0.00 0.00 L 50.00 0.00 L 100.00 0.00 L 100.00 50.00 L 100.00 100.00 L 50.00 100.00 L 0.00 100.00 L 0.00 50.00 Z M 96.00 49.86 C 96.00 19.95 95.65 4.00 95.00 4.00 C 93.78 4.00 93.76 5.10 93.93 52.25 L 94.07 90.00 L 49.03 90.00 L 4.00 90.00 L 4.00 93.00 L 4.00 96.01 L 50.00 95.87 L 96.00 95.73 L 96.00 49.86 Z M 65.00 79.77 C 75.59 74.61 82.52 65.93 85.57 54.04 C 89.70 37.93 81.16 20.63 65.19 12.77 C 59.02 9.74 57.82 9.50 48.52 9.50 C 39.64 9.50 37.87 9.81 32.96 12.22 C 24.24 16.51 19.51 21.20 15.29 29.73 C 11.88 36.62 11.53 38.11 11.51 45.42 C 11.49 61.84 19.76 74.34 34.82 80.66 C 39.70 82.71 41.83 83.00 50.00 82.75 C 57.89 82.50 60.43 82.00 65.00 79.77 Z M 36.36 74.59 C 30.04 71.64 23.45 65.82 21.06 61.07 C 14.27 47.53 16.77 32.98 27.60 23.09 C 34.06 17.18 39.97 15.00 49.43 15.01 C 76.04 15.05 90.31 46.60 72.74 66.56 C 63.90 76.60 48.15 80.08 36.36 74.59 Z" fill="none" stroke="rgba(255,255,255,0.92)" stroke-width="1.2" stroke-linejoin="round" fill-rule="evenodd"/>
</svg>
