<svg xmlns="http://www.w3.org/2000/svg" viewBox="0 0 100 100" width="100" height="100">
  <path d="M 0.00 50.00 L 0.00 0.00 L 50.00 0.00 L 100.00 0.00 L 100.00 50.00 L 100.00 100.00 L 50.00 100.00 L 0.00 100.00 L 0.00 50.00 Z M 7.00 89.64 C 7.00 84.13 6.88 83.78 5.53 85.56 C 3.52 88.22 3.49 95.67 5.50 95.67 C 6.67 95.67 7.00 94.33 7.00 89.64 Z M 70.19 93.40 C 76.52 90.19 84.03 82.63 87.03 76.44 C 88.41 73.58 89.47 69.12 89.78 64.89 C 90.26 58.09 90.31 58.00 93.13 58.00 C 95.62 58.00 96.00 57.62 96.00 55.16 L 96.00 52.32 L 62.25 51.66 C 43.69 51.30 22.97 51.00 16.20 51.00 L 3.90 51.00 L 4.13 55.98 C 4.41 62.14 5.51 64.19 6.33 60.08 C 6.88 57.37 7.35 57.00 10.34 57.00 L 13.73 57.00 L 14.24 63.40 C 15.22 75.62 23.74 87.53 35.50 93.14 C 41.05 95.78 42.38 96.00 53.28 96.00 C 63.99 96.00 65.54 95.76 70.19 93.40 Z M 5.08 91.42 C 5.13 90.25 5.36 90.01 5.68 90.81 C 5.97 91.53 5.94 92.40 5.60 92.73 C 5.27 93.06 5.04 92.47 5.08 91.42 Z M 47.13 90.92 C 36.45 88.82 27.53 82.00 22.97 72.43 C 20.70 67.68 19.97 64.86 20.19 61.74 L 20.50 57.51 L 34.00 57.51 C 41.42 57.50 55.77 57.61 65.87 57.75 L 84.24 58.00 L 83.82 63.81 C 82.55 81.30 64.83 94.40 47.13 90.92 Z M 6.62 78.87 L 7.08 74.50 L 5.56 78.50 C 3.72 83.32 3.50 85.90 5.08 84.32 C 5.67 83.73 6.37 81.28 6.62 78.87 Z M 96.00 9.28 L 96.00 6.32 L 63.75 5.66 C 46.01 5.30 25.31 5.00 17.75 5.00 L 4.00 5.00 L 4.00 7.98 L 4.00 10.96 L 23.25 11.23 C 33.84 11.38 54.54 11.67 69.25 11.87 L 96.00 12.24 L 96.00 9.28 Z" fill="none" stroke="rgba(255,255,255,0.92)" stroke-width="1.2" stroke-linejoin="round" fill-rule="evenodd"/>
</svg>
