<svg xmlns="http://www.w3.org/2000/svg" viewBox="0 0 100 100" width="100" height="100">
  <path d="M 0.00 50.00 L 0.00 0.00 L 50.00 0.00 L 100.00 0.00 L 100.00 50.00 L 100.00 100.00 L 50.00 100.00 L 0.00 100.00 L 0.00 50.00 Z M 9.75 94.76 C 9.59 94.26 9.02 93.85 8.50 93.85 C 7.98 93.85 7.41 94.26 7.25 94.76 C 7.08 95.26 7.64 95.67 8.50 95.67 C 9.36 95.67 9.92 95.26 9.75 94.76 Z M 15.00 95.00 C 15.00 94.45 13.99 94.03 12.75 94.07 C 10.60 94.14 10.59 94.18 12.50 95.00 C 13.60 95.47 14.61 95.89 14.75 95.93 C 14.89 95.97 15.00 95.55 15.00 95.00 Z M 22.45 95.13 C 21.08 93.88 15.24 92.60 16.50 93.83 C 17.05 94.37 18.40 95.02 19.50 95.29 C 22.88 96.10 23.47 96.07 22.45 95.13 Z M 30.37 94.53 C 30.15 93.94 28.20 93.45 26.05 93.45 C 23.37 93.45 22.41 93.79 23.02 94.53 C 23.51 95.12 25.46 95.60 27.35 95.60 C 29.38 95.60 30.62 95.16 30.37 94.53 Z M 44.00 95.00 C 42.76 94.20 42.75 94.03 43.92 94.02 C 44.70 94.01 45.07 93.73 44.74 93.40 C 44.41 93.08 42.65 93.16 40.82 93.59 L 37.50 94.38 L 40.50 95.07 C 44.93 96.09 45.67 96.08 44.00 95.00 Z M 50.50 95.00 C 50.86 94.42 49.94 94.03 48.31 94.07 C 45.84 94.13 45.74 94.24 47.50 95.00 C 48.60 95.47 49.59 95.89 49.69 95.93 C 49.80 95.97 50.16 95.55 50.50 95.00 Z M 57.33 94.58 C 57.67 93.70 56.90 93.33 54.91 93.40 C 52.19 93.49 51.39 94.06 52.45 95.12 C 53.48 96.14 56.87 95.77 57.33 94.58 Z M 75.00 94.79 C 75.00 94.35 74.21 93.98 73.25 93.95 C 72.29 93.92 69.58 93.77 67.23 93.63 C 62.20 93.32 62.89 94.71 68.00 95.18 C 73.64 95.70 75.00 95.62 75.00 94.79 Z M 77.55 95.09 C 77.24 94.58 77.55 93.94 78.24 93.66 C 79.00 93.36 78.81 93.13 77.75 93.08 C 76.79 93.04 76.00 93.67 76.00 94.50 C 76.00 95.33 76.48 96.00 77.06 96.00 C 77.64 96.00 77.86 95.59 77.55 95.09 Z M 81.50 95.00 C 81.84 94.45 81.39 94.00 80.50 94.00 C 79.61 94.00 79.16 94.45 79.50 95.00 C 79.84 95.55 80.29 96.00 80.50 96.00 C 80.71 96.00 81.16 95.55 81.50 95.00 Z M 88.80 94.48 C 88.96 94.35 87.72 94.04 86.05 93.79 C 83.94 93.48 83.00 93.76 83.00 94.69 C 83.00 95.65 83.79 95.85 85.75 95.38 C 87.26 95.02 88.63 94.61 88.80 94.48 Z M 96.00 95.00 C 96.00 94.45 95.35 94.00 94.56 94.00 C 93.77 94.00 92.84 94.45 92.50 95.00 C 92.16 95.55 92.81 96.00 93.94 96.00 C 95.07 96.00 96.00 95.55 96.00 95.00 Z M 36.50 94.00 C 36.16 93.45 35.43 93.00 34.88 93.00 C 34.33 93.00 34.16 93.45 34.50 94.00 C 34.84 94.55 35.57 95.00 36.12 95.00 C 36.67 95.00 36.84 94.55 36.50 94.00 Z M 60.73 94.40 C 60.40 94.06 59.53 94.03 58.81 94.32 C 58.01 94.64 58.25 94.87 59.42 94.92 C 60.47 94.96 61.06 94.73 60.73 94.40 Z M 92.00 94.00 C 92.00 93.45 91.55 93.00 91.00 93.00 C 90.45 93.00 90.00 93.45 90.00 94.00 C 90.00 94.55 90.45 95.00 91.00 95.00 C 91.55 95.00 92.00 94.55 92.00 94.00 Z M 95.70 89.50 C 95.76 87.58 95.40 86.25 94.90 86.56 C 93.45 87.46 93.94 93.00 95.47 93.00 C 95.54 93.00 95.65 91.43 95.70 89.50 Z M 55.37 86.56 C 64.04 84.90 71.31 80.76 77.36 74.04 C 93.63 55.97 86.94 27.00 64.00 16.11 C 59.13 13.80 57.29 13.50 48.00 13.54 C 39.29 13.57 36.71 13.96 32.86 15.79 C 26.00 19.05 18.80 26.04 14.92 33.19 C 11.67 39.18 11.50 40.01 11.50 49.52 C 11.50 58.79 11.74 60.02 14.75 66.14 C 20.11 77.03 30.76 84.94 42.78 86.97 C 45.38 87.41 47.57 87.82 47.66 87.88 C 47.75 87.95 51.22 87.35 55.37 86.56 Z M 95.97 76.00 C 95.97 72.97 95.63 69.97 95.22 69.33 C 94.81 68.68 94.48 71.68 94.48 76.00 C 94.48 80.32 94.81 83.32 95.22 82.67 C 95.63 82.03 95.97 79.03 95.97 76.00 Z M 40.00 80.63 C 30.56 77.89 24.45 72.88 19.42 63.73 C 16.86 59.10 16.53 57.52 16.56 50.00 C 16.58 42.71 16.97 40.75 19.32 36.22 C 22.81 29.51 28.57 23.73 34.70 20.80 C 38.66 18.90 41.08 18.51 48.50 18.57 C 56.12 18.63 58.27 19.04 62.50 21.22 C 69.33 24.74 74.78 30.29 77.89 36.93 C 81.36 44.35 81.56 56.12 78.34 63.15 C 72.08 76.78 54.43 84.83 40.00 80.63 Z M 95.68 64.81 C 95.36 64.01 95.13 64.25 95.08 65.42 C 95.04 66.47 95.27 67.06 95.60 66.73 C 95.94 66.40 95.97 65.53 95.68 64.81 Z M 95.62 56.07 C 95.80 52.22 95.51 48.82 94.97 48.48 C 94.37 48.11 94.06 50.92 94.15 55.95 C 94.34 65.67 95.16 65.74 95.62 56.07 Z M 96.00 46.00 C 96.00 45.45 95.52 45.00 94.94 45.00 C 94.36 45.00 94.16 45.45 94.50 46.00 C 94.84 46.55 95.32 47.00 95.56 47.00 C 95.80 47.00 96.00 46.55 96.00 46.00 Z M 95.73 33.45 C 95.69 27.65 95.38 22.73 95.03 22.52 C 94.69 22.31 94.30 27.05 94.17 33.07 C 94.03 39.40 94.32 44.00 94.87 44.00 C 95.40 44.00 95.77 39.42 95.73 33.45 Z M 96.00 18.94 C 96.00 18.42 95.55 18.00 95.00 18.00 C 94.45 18.00 94.00 18.70 94.00 19.56 C 94.00 20.42 94.45 20.84 95.00 20.50 C 95.55 20.16 96.00 19.46 96.00 18.94 Z M 95.36 15.50 C 95.68 14.68 95.50 14.00 94.97 14.00 C 94.44 14.00 94.00 14.68 94.00 15.50 C 94.00 16.32 94.18 17.00 94.39 17.00 C 94.61 17.00 95.05 16.32 95.36 15.50 Z M 95.29 8.00 C 95.00 6.90 94.59 6.00 94.38 6.00 C 94.17 6.00 94.00 6.90 94.00 8.00 C 94.00 9.10 94.41 10.00 94.91 10.00 C 95.40 10.00 95.58 9.10 95.29 8.00 Z" fill="none" stroke="rgba(255,255,255,0.92)" stroke-width="1.2" stroke-linejoin="round" fill-rule="evenodd"/>
</svg>
