<svg xmlns="http://www.w3.org/2000/svg" viewBox="0 0 100 100" width="100" height="100">
  <path d="M 0.00 50.00 L 0.00 0.00 L 50.00 0.00 L 100.00 0.00 L 100.00 50.00 L 100.00 100.00 L 50.00 100.00 L 0.00 100.00 L 0.00 50.00 Z M 96.00 94.00 C 96.00 92.90 95.79 92.00 95.54 92.00 C 95.28 92.00 94.59 92.90 94.00 94.00 C 93.15 95.60 93.24 96.00 94.46 96.00 C 95.33 96.00 96.00 95.13 96.00 94.00 Z M 92.68 90.81 C 92.36 90.01 92.13 90.25 92.08 91.42 C 92.04 92.47 92.27 93.06 92.60 92.73 C 92.94 92.40 92.97 91.53 92.68 90.81 Z M 59.04 88.13 C 67.01 85.08 75.16 77.44 79.20 69.25 C 89.93 47.44 76.93 21.91 52.30 16.42 C 38.77 13.41 27.63 16.51 17.45 26.14 C 14.17 29.24 11.19 33.36 9.37 37.28 C 6.88 42.68 6.50 44.70 6.50 52.52 C 6.50 60.70 6.81 62.16 9.80 68.24 C 15.15 79.11 24.85 87.24 35.75 89.97 C 41.47 91.41 52.81 90.51 59.04 88.13 Z M 95.98 87.69 C 95.97 85.91 95.79 85.78 95.00 87.00 C 93.73 88.97 93.73 91.29 95.00 90.50 C 95.55 90.16 95.99 88.90 95.98 87.69 Z M 92.82 81.00 C 92.82 77.15 92.52 73.82 92.15 73.59 C 91.78 73.36 91.48 76.70 91.48 81.00 C 91.48 85.30 91.78 88.64 92.15 88.41 C 92.52 88.18 92.82 84.85 92.82 81.00 Z M 31.50 82.52 C 23.84 79.41 17.00 72.28 13.99 64.26 C 9.56 52.46 12.51 38.39 21.17 30.07 C 27.53 23.96 33.27 21.59 42.73 21.16 C 50.18 20.83 51.57 21.08 57.28 23.75 C 65.91 27.79 70.45 32.06 74.00 39.49 C 76.44 44.61 77.00 47.08 77.00 52.71 C 77.00 62.74 74.73 68.41 68.07 75.09 C 58.18 84.98 44.45 87.77 31.50 82.52 Z M 96.00 61.00 C 96.00 47.80 95.66 37.00 95.25 37.00 C 94.84 37.00 94.65 39.70 94.84 43.00 C 95.08 47.22 94.82 49.00 93.97 49.00 C 93.14 49.00 93.07 49.40 93.74 50.25 C 94.30 50.97 94.62 57.69 94.50 66.00 C 94.29 79.39 94.62 85.00 95.61 85.00 C 95.82 85.00 96.00 74.20 96.00 61.00 Z M 92.24 66.50 C 91.98 65.12 91.59 64.00 91.38 64.00 C 91.17 64.00 91.00 65.12 91.00 66.50 C 91.00 67.88 91.39 69.00 91.86 69.00 C 92.34 69.00 92.51 67.88 92.24 66.50 Z M 91.68 60.81 C 91.36 60.01 91.13 60.25 91.08 61.42 C 91.04 62.47 91.27 63.06 91.60 62.73 C 91.94 62.40 91.97 61.53 91.68 60.81 Z M 92.50 54.00 C 92.12 52.82 91.59 52.07 91.32 52.35 C 91.04 52.62 91.12 53.82 91.50 55.00 C 91.88 56.18 92.41 56.93 92.68 56.65 C 92.96 56.38 92.88 55.18 92.50 54.00 Z M 93.33 39.14 C 93.07 33.53 93.23 32.10 93.95 33.75 C 95.30 36.83 96.00 36.57 96.00 33.00 C 96.00 31.00 95.50 30.00 94.50 30.00 C 93.40 30.00 93.04 28.99 93.16 26.25 C 93.32 22.56 93.33 22.55 93.72 25.75 C 93.95 27.54 94.55 29.00 95.06 29.00 C 95.60 29.00 96.00 23.60 96.00 16.50 C 96.00 9.62 95.59 4.00 95.09 4.00 C 94.60 4.00 94.36 7.42 94.56 11.61 C 94.89 18.40 94.74 19.17 93.21 18.77 C 91.65 18.36 91.48 19.80 91.26 34.91 C 91.05 49.17 91.20 51.17 92.35 49.14 C 93.25 47.56 93.57 44.27 93.33 39.14 Z M 93.00 14.30 C 93.00 12.44 92.68 11.92 91.97 12.63 C 91.40 13.20 91.22 14.42 91.57 15.33 C 92.50 17.75 93.00 17.38 93.00 14.30 Z M 92.43 7.11 C 90.98 5.79 84.49 5.08 82.91 6.07 C 81.96 6.68 83.04 6.97 86.19 6.98 C 88.77 6.99 91.18 7.48 91.54 8.07 C 91.90 8.65 92.46 8.87 92.78 8.55 C 93.10 8.23 92.95 7.58 92.43 7.11 Z M 79.82 7.15 C 80.85 7.03 80.81 6.67 79.64 5.50 C 77.95 3.80 76.56 3.48 77.50 5.00 C 77.91 5.66 72.76 5.92 62.56 5.75 C 54.00 5.61 47.00 5.27 47.00 4.98 C 47.00 3.98 31.13 3.99 30.51 4.99 C 30.16 5.55 29.35 5.99 28.69 5.98 C 27.98 5.98 28.10 5.58 29.00 5.00 C 30.07 4.31 28.92 4.03 25.00 4.03 C 21.08 4.03 19.93 4.31 21.00 5.00 C 21.82 5.53 22.01 5.98 21.42 5.98 C 20.82 5.99 20.01 5.67 19.61 5.27 C 18.64 4.31 4.00 4.10 4.00 5.05 C 4.00 6.45 6.54 6.73 20.46 6.91 C 28.14 7.01 34.52 7.19 34.63 7.30 C 34.86 7.52 77.73 7.38 79.82 7.15 Z M 89.25 4.34 C 88.56 4.06 87.44 4.06 86.75 4.34 C 86.06 4.62 86.62 4.84 88.00 4.84 C 89.38 4.84 89.94 4.62 89.25 4.34 Z" fill="none" stroke="rgba(255,255,255,0.92)" stroke-width="1.2" stroke-linejoin="round" fill-rule="evenodd"/>
</svg>
