<svg xmlns="http://www.w3.org/2000/svg" viewBox="0 0 100 100" width="100" height="100">
  <path d="M 0.00 50.00 L 0.00 0.00 L 50.00 0.00 L 100.00 0.00 L 100.00 50.00 L 100.00 100.00 L 50.00 100.00 L 0.00 100.00 L 0.00 50.00 Z M 7.00 95.61 C 7.00 95.39 6.33 94.95 5.50 94.64 C 4.67 94.32 4.00 94.50 4.00 95.03 C 4.00 95.56 4.67 96.00 5.50 96.00 C 6.33 96.00 7.00 95.82 7.00 95.61 Z M 12.75 95.31 C 11.79 95.06 10.21 95.06 9.25 95.31 C 8.29 95.56 9.07 95.77 11.00 95.77 C 12.93 95.77 13.71 95.56 12.75 95.31 Z M 19.50 95.00 C 20.28 93.73 18.96 93.73 17.00 95.00 C 15.71 95.84 15.73 95.97 17.19 95.98 C 18.12 95.99 19.16 95.55 19.50 95.00 Z M 30.73 94.40 C 30.40 94.06 29.53 94.03 28.81 94.32 C 28.01 94.64 28.25 94.87 29.42 94.92 C 30.47 94.96 31.06 94.73 30.73 94.40 Z M 43.25 94.34 C 42.56 94.06 41.44 94.06 40.75 94.34 C 40.06 94.62 40.62 94.84 42.00 94.84 C 43.38 94.84 43.94 94.62 43.25 94.34 Z M 49.00 94.56 C 49.00 94.32 48.55 93.84 48.00 93.50 C 47.45 93.16 47.00 93.36 47.00 93.94 C 47.00 94.52 47.45 95.00 48.00 95.00 C 48.55 95.00 49.00 94.80 49.00 94.56 Z M 54.73 94.40 C 54.40 94.06 53.53 94.03 52.81 94.32 C 52.01 94.64 52.25 94.87 53.42 94.92 C 54.47 94.96 55.06 94.73 54.73 94.40 Z M 62.00 94.61 C 62.00 94.40 60.65 94.03 59.00 93.79 C 57.35 93.54 56.00 93.72 56.00 94.17 C 56.00 94.63 57.35 95.00 59.00 95.00 C 60.65 95.00 62.00 94.83 62.00 94.61 Z M 72.77 94.29 C 71.27 94.06 68.57 94.05 66.77 94.28 C 64.97 94.50 66.20 94.68 69.50 94.69 C 72.80 94.70 74.27 94.51 72.77 94.29 Z M 85.73 94.27 C 83.65 94.05 80.50 94.06 78.73 94.28 C 76.95 94.50 78.65 94.68 82.50 94.67 C 86.35 94.67 87.80 94.49 85.73 94.27 Z M 95.27 94.34 C 94.59 94.07 93.24 94.05 92.27 94.31 C 91.30 94.56 91.85 94.78 93.50 94.81 C 95.15 94.83 95.95 94.62 95.27 94.34 Z M 67.73 91.40 C 67.40 91.06 66.53 91.03 65.81 91.32 C 65.01 91.64 65.25 91.87 66.42 91.92 C 67.47 91.96 68.06 91.73 67.73 91.40 Z M 93.73 91.40 C 93.40 91.06 92.53 91.03 91.81 91.32 C 91.01 91.64 91.25 91.87 92.42 91.92 C 93.47 91.96 94.06 91.73 93.73 91.40 Z M 8.00 87.00 C 8.00 86.45 7.55 86.00 7.00 86.00 C 6.45 86.00 6.00 86.45 6.00 87.00 C 6.00 87.55 6.45 88.00 7.00 88.00 C 7.55 88.00 8.00 87.55 8.00 87.00 Z M 7.00 81.27 C 7.00 80.04 6.72 79.99 5.50 81.00 C 4.67 81.68 4.00 82.63 4.00 83.09 C 4.00 83.56 4.67 83.68 5.50 83.36 C 6.32 83.05 7.00 82.10 7.00 81.27 Z M 67.85 80.75 C 75.30 78.00 84.70 68.54 87.75 60.73 C 93.52 45.93 88.25 27.69 75.30 17.60 C 65.31 9.82 50.53 7.58 38.61 12.04 C 31.20 14.82 22.77 22.58 18.68 30.41 C 15.73 36.07 15.50 37.21 15.50 46.50 C 15.50 55.55 15.77 57.01 18.33 61.88 C 28.11 80.46 48.06 88.06 67.85 80.75 Z M 7.00 76.44 C 7.00 75.58 6.54 75.16 5.98 75.51 C 5.42 75.86 5.23 76.56 5.54 77.07 C 6.40 78.46 7.00 78.20 7.00 76.44 Z M 41.46 76.19 C 27.27 70.24 20.42 60.29 20.59 45.87 C 20.66 39.66 21.19 37.13 23.39 32.63 C 30.26 18.59 48.46 11.38 63.04 16.93 C 74.09 21.12 82.01 30.51 83.96 41.72 C 85.35 49.70 84.63 54.94 81.27 61.19 C 77.81 67.63 73.62 71.66 66.82 75.09 C 61.88 77.58 59.95 77.99 53.28 77.94 C 48.34 77.91 44.03 77.27 41.46 76.19 Z M 4.68 72.81 C 4.36 72.01 4.13 72.25 4.08 73.42 C 4.04 74.47 4.27 75.06 4.60 74.73 C 4.94 74.40 4.97 73.53 4.68 72.81 Z M 7.00 70.00 C 7.00 69.45 6.55 69.00 6.00 69.00 C 5.45 69.00 5.00 69.45 5.00 70.00 C 5.00 70.55 5.45 71.00 6.00 71.00 C 6.55 71.00 7.00 70.55 7.00 70.00 Z M 6.83 47.58 C 6.87 32.75 6.65 29.81 5.61 31.21 C 4.34 32.91 4.28 40.15 5.49 43.97 C 5.84 45.08 5.78 46.55 5.35 47.24 C 4.93 47.93 4.43 52.36 4.25 57.08 C 3.98 64.01 4.19 65.67 5.34 65.67 C 6.53 65.67 6.78 62.57 6.83 47.58 Z M 6.88 25.32 C 6.78 23.65 6.73 23.64 6.31 25.25 C 6.06 26.21 5.44 27.00 4.93 27.00 C 4.42 27.00 4.00 27.71 4.00 28.57 C 4.00 29.97 4.17 29.98 5.50 28.64 C 6.33 27.82 6.95 26.32 6.88 25.32 Z M 6.00 21.00 C 6.00 19.90 5.59 19.00 5.09 19.00 C 4.60 19.00 4.42 19.90 4.71 21.00 C 5.00 22.10 5.41 23.00 5.62 23.00 C 5.83 23.00 6.00 22.10 6.00 21.00 Z M 6.00 15.00 C 6.00 14.45 5.55 14.00 5.00 14.00 C 4.45 14.00 4.00 14.45 4.00 15.00 C 4.00 15.55 4.45 16.00 5.00 16.00 C 5.55 16.00 6.00 15.55 6.00 15.00 Z M 6.00 7.94 C 6.00 6.81 5.57 6.15 5.04 6.47 C 4.52 6.80 4.34 7.72 4.65 8.53 C 5.44 10.60 6.00 10.36 6.00 7.94 Z" fill="none" stroke="rgba(255,255,255,0.92)" stroke-width="1.2" stroke-linejoin="round" fill-rule="evenodd"/>
</svg>
