<svg xmlns="http://www.w3.org/2000/svg" viewBox="0 0 100 100" width="100" height="100">
  <path d="M 0.00 50.00 L 0.00 0.00 L 50.00 0.00 L 100.00 0.00 L 100.00 50.00 L 100.00 100.00 L 50.00 100.00 L 0.00 100.00 L 0.00 50.00 Z M 10.00 94.14 C 10.00 93.66 8.88 93.49 7.50 93.76 C 4.29 94.37 4.29 95.00 7.50 95.00 C 8.88 95.00 10.00 94.61 10.00 94.14 Z M 16.00 94.62 C 16.00 94.41 14.88 94.02 13.50 93.76 C 12.12 93.49 11.00 93.66 11.00 94.14 C 11.00 94.61 12.12 95.00 13.50 95.00 C 14.88 95.00 16.00 94.83 16.00 94.62 Z M 34.33 93.81 C 32.84 93.09 30.96 93.08 28.33 93.78 C 24.55 94.78 24.57 94.79 30.50 94.83 C 35.39 94.86 36.10 94.67 34.33 93.81 Z M 91.00 93.67 C 94.03 93.51 84.35 93.30 69.50 93.20 C 54.65 93.11 41.98 93.36 41.34 93.77 C 40.28 94.44 78.12 94.37 91.00 93.67 Z M 38.01 92.51 C 37.33 91.69 36.33 91.30 35.78 91.64 C 35.18 92.01 35.32 92.59 36.14 93.11 C 38.30 94.48 39.36 94.14 38.01 92.51 Z M 11.73 91.40 C 11.40 91.06 10.53 91.03 9.81 91.32 C 9.01 91.64 9.25 91.87 10.42 91.92 C 11.47 91.96 12.06 91.73 11.73 91.40 Z M 33.73 91.40 C 33.40 91.06 32.53 91.03 31.81 91.32 C 31.01 91.64 31.25 91.87 32.42 91.92 C 33.47 91.96 34.06 91.73 33.73 91.40 Z M 42.73 91.40 C 42.40 91.06 41.53 91.03 40.81 91.32 C 40.01 91.64 40.25 91.87 41.42 91.92 C 42.47 91.96 43.06 91.73 42.73 91.40 Z M 84.73 90.40 C 84.40 90.06 83.53 90.03 82.81 90.32 C 82.01 90.64 82.25 90.87 83.42 90.92 C 84.47 90.96 85.06 90.73 84.73 90.40 Z M 91.73 90.40 C 91.40 90.06 90.53 90.03 89.81 90.32 C 89.01 90.64 89.25 90.87 90.42 90.92 C 91.47 90.96 92.06 90.73 91.73 90.40 Z M 95.82 76.75 C 95.64 62.18 95.24 63.88 94.76 81.25 C 94.62 86.62 94.84 91.00 95.25 91.00 C 95.66 91.00 95.92 84.59 95.82 76.75 Z M 66.42 78.64 C 77.48 73.17 83.61 65.13 86.23 52.63 C 89.33 37.84 79.60 20.39 64.22 13.18 C 59.21 10.83 57.26 10.50 48.50 10.50 C 39.76 10.50 37.78 10.84 32.82 13.16 C 5.93 25.77 3.26 61.68 28.09 76.96 C 35.25 81.37 42.07 83.05 51.22 82.66 C 57.72 82.39 60.12 81.75 66.42 78.64 Z M 41.50 77.11 C 31.92 74.52 23.22 67.65 18.96 59.30 C 17.00 55.47 16.50 52.98 16.50 47.00 C 16.50 31.97 23.79 22.14 38.89 16.82 C 49.91 12.94 63.40 16.33 71.92 25.12 C 78.20 31.60 80.26 36.24 80.79 45.14 C 81.18 51.74 80.91 53.52 78.77 58.19 C 75.29 65.79 70.81 70.47 63.66 73.99 C 57.07 77.24 47.16 78.63 41.50 77.11 Z M 95.91 34.25 C 95.87 18.99 95.53 7.62 95.16 9.00 C 94.44 11.71 94.81 62.00 95.55 62.00 C 95.80 62.00 95.96 49.51 95.91 34.25 Z M 95.50 6.00 C 95.84 5.45 95.64 5.00 95.06 5.00 C 94.48 5.00 94.00 5.45 94.00 6.00 C 94.00 6.55 94.20 7.00 94.44 7.00 C 94.68 7.00 95.16 6.55 95.50 6.00 Z" fill="none" stroke="rgba(255,255,255,0.92)" stroke-width="1.2" stroke-linejoin="round" fill-rule="evenodd"/>
</svg>
