<svg xmlns="http://www.w3.org/2000/svg" viewBox="0 0 100 100" width="100" height="100">
  <path d="M 0.00 50.00 L 0.00 0.00 L 50.00 0.00 L 100.00 0.00 L 100.00 50.00 L 100.00 100.00 L 50.00 100.00 L 0.00 100.00 L 0.00 50.00 Z M 39.37 94.48 C 39.60 93.89 38.16 93.45 35.96 93.45 C 33.87 93.45 32.39 93.82 32.67 94.27 C 32.94 94.71 31.90 94.76 30.35 94.37 C 28.79 93.98 25.49 93.69 23.01 93.72 C 7.18 93.90 3.64 94.12 4.75 94.82 C 6.64 96.03 38.90 95.71 39.37 94.48 Z M 53.00 95.17 C 53.00 94.72 54.46 94.49 56.25 94.66 L 59.50 94.98 L 56.62 94.04 C 55.03 93.53 52.35 93.38 50.67 93.72 C 48.01 94.25 47.86 94.44 49.55 95.10 C 52.20 96.13 53.00 96.15 53.00 95.17 Z M 67.51 95.02 C 67.22 94.55 67.55 93.96 68.24 93.71 C 68.93 93.46 67.18 93.31 64.34 93.38 C 61.01 93.46 59.47 93.86 60.01 94.50 C 61.03 95.71 68.25 96.21 67.51 95.02 Z M 76.40 94.58 C 79.33 95.03 79.36 94.99 77.06 93.99 C 74.19 92.74 67.91 93.71 70.11 95.07 C 70.88 95.54 71.88 95.52 72.39 95.01 C 72.88 94.52 74.69 94.32 76.40 94.58 Z M 93.66 94.75 C 94.08 94.06 93.73 93.89 92.70 94.29 C 91.80 94.63 90.84 94.55 90.56 94.10 C 90.28 93.65 87.57 93.29 84.53 93.29 C 79.92 93.29 79.29 93.49 80.69 94.51 C 82.78 96.04 92.74 96.22 93.66 94.75 Z M 95.64 92.00 C 95.52 87.41 95.26 87.12 94.11 90.24 C 93.61 91.60 93.71 93.17 94.38 94.24 C 94.99 95.21 95.54 96.00 95.61 96.00 C 95.68 96.00 95.70 94.20 95.64 92.00 Z M 47.00 93.98 C 47.00 93.38 45.88 93.23 44.25 93.62 C 40.32 94.56 40.19 95.00 43.83 95.00 C 45.58 95.00 47.00 94.54 47.00 93.98 Z M 95.89 71.75 C 96.11 58.89 95.95 57.00 94.57 57.00 C 93.71 57.00 93.00 56.50 93.00 55.89 C 93.00 55.28 93.70 55.05 94.55 55.38 C 95.88 55.89 96.07 54.94 95.90 48.95 C 95.79 45.09 95.24 41.65 94.70 41.31 C 94.05 40.91 93.93 42.18 94.36 44.87 C 94.84 47.83 94.56 49.94 93.42 52.15 C 92.54 53.86 92.02 56.31 92.26 57.60 C 92.54 59.04 92.31 59.69 91.69 59.31 C 91.05 58.91 90.92 59.34 91.33 60.42 C 91.70 61.38 92.00 63.03 92.00 64.08 C 92.00 65.14 92.66 66.00 93.47 66.00 C 94.60 66.00 94.80 66.77 94.33 69.25 C 93.62 73.01 93.00 74.10 93.00 71.61 C 93.00 70.66 92.55 70.16 92.00 70.50 C 90.67 71.32 90.71 75.00 92.06 75.00 C 92.64 75.00 92.86 75.41 92.55 75.91 C 91.34 77.87 91.14 86.24 92.28 87.45 C 94.79 90.14 95.63 86.50 95.89 71.75 Z M 61.32 83.63 C 90.60 69.31 90.41 29.85 61.00 15.64 C 55.08 12.78 53.66 12.50 45.00 12.55 C 32.80 12.62 26.44 15.29 18.01 23.91 C 10.31 31.77 7.58 38.52 7.63 49.50 C 7.68 59.82 10.57 67.55 16.90 74.34 C 25.97 84.07 33.11 87.03 46.56 86.67 C 54.13 86.46 56.54 85.97 61.32 83.63 Z M 93.13 80.00 C 93.13 76.33 93.29 75.91 94.03 77.75 C 94.57 79.09 94.57 80.91 94.03 82.25 C 93.29 84.09 93.13 83.67 93.13 80.00 Z M 37.50 81.13 C 12.92 74.67 4.53 44.70 22.32 26.91 C 34.73 14.50 54.35 14.28 67.76 26.40 C 80.20 37.64 80.84 57.86 69.18 71.14 C 64.22 76.80 55.24 81.04 47.25 81.52 C 43.54 81.74 39.15 81.57 37.50 81.13 Z M 93.08 63.42 C 93.13 62.25 93.36 62.01 93.68 62.81 C 93.97 63.53 93.94 64.40 93.60 64.73 C 93.27 65.06 93.04 64.47 93.08 63.42 Z M 93.00 48.50 C 93.00 46.64 92.56 44.85 92.02 44.51 C 91.43 44.14 91.12 45.67 91.23 48.38 C 91.46 53.51 93.00 53.61 93.00 48.50 Z M 92.10 40.29 C 91.14 38.64 91.06 38.66 91.03 40.58 C 91.00 42.90 92.27 44.70 92.80 43.10 C 92.99 42.54 92.67 41.27 92.10 40.29 Z M 96.00 39.44 C 96.00 38.58 95.54 38.16 94.98 38.51 C 94.42 38.86 94.23 39.56 94.54 40.07 C 95.40 41.46 96.00 41.20 96.00 39.44 Z M 92.98 34.25 C 92.97 31.21 92.66 29.99 92.11 30.86 C 91.64 31.60 91.39 33.63 91.56 35.36 C 91.94 39.19 91.89 39.00 92.50 39.00 C 92.78 39.00 92.99 36.86 92.98 34.25 Z M 96.00 34.30 C 96.00 32.29 95.71 31.89 94.87 32.73 C 94.24 33.36 94.01 34.57 94.34 35.43 C 95.25 37.82 96.00 37.31 96.00 34.30 Z M 95.98 26.75 C 95.99 26.34 95.55 26.00 95.00 26.00 C 94.45 26.00 94.01 27.01 94.02 28.25 C 94.03 30.07 94.22 30.21 95.00 29.00 C 95.53 28.18 95.98 27.16 95.98 26.75 Z M 92.08 25.90 C 91.20 23.69 91.12 23.67 91.06 25.58 C 91.03 26.73 91.30 27.97 91.67 28.33 C 92.86 29.53 93.06 28.34 92.08 25.90 Z M 95.00 21.83 C 95.00 21.31 94.55 21.16 94.00 21.50 C 92.92 22.17 92.70 20.69 92.99 14.50 C 93.10 12.30 92.80 10.88 92.34 11.33 C 91.37 12.30 91.03 17.30 91.68 21.19 C 91.99 23.02 92.59 23.71 93.57 23.34 C 94.36 23.03 95.00 22.36 95.00 21.83 Z M 96.00 19.00 C 96.00 17.90 95.59 17.00 95.09 17.00 C 94.60 17.00 94.42 17.90 94.71 19.00 C 95.00 20.10 95.41 21.00 95.62 21.00 C 95.83 21.00 96.00 20.10 96.00 19.00 Z M 95.79 9.44 C 95.75 5.01 95.44 4.00 94.29 4.44 C 93.49 4.75 92.31 5.01 91.67 5.03 C 91.03 5.05 91.35 5.71 92.39 6.49 C 93.68 7.47 94.27 9.17 94.27 11.93 C 94.27 14.14 94.62 15.73 95.05 15.47 C 95.48 15.20 95.81 12.49 95.79 9.44 Z" fill="none" stroke="rgba(255,255,255,0.92)" stroke-width="1.2" stroke-linejoin="round" fill-rule="evenodd"/>
</svg>
