<svg xmlns="http://www.w3.org/2000/svg" viewBox="0 0 100 100" width="100" height="100">
  <path d="M 0.00 50.00 L 0.00 0.00 L 50.00 0.00 L 100.00 0.00 L 100.00 50.00 L 100.00 100.00 L 50.00 100.00 L 0.00 100.00 L 0.00 50.00 Z M 8.35 69.88 C 8.03 45.70 8.67 31.70 9.91 35.25 C 10.24 36.17 10.55 30.40 10.62 22.42 C 10.68 14.45 11.00 7.67 11.32 7.35 C 11.84 6.83 22.18 6.60 76.22 5.90 C 83.77 5.80 89.72 5.35 89.44 4.90 C 89.16 4.44 70.31 4.13 47.55 4.20 L 6.17 4.33 L 6.50 40.41 C 6.69 60.26 6.87 80.91 6.92 86.31 C 6.96 91.70 7.38 95.89 7.84 95.60 C 8.30 95.32 8.53 83.74 8.35 69.88 Z M 10.69 92.27 C 10.44 91.30 10.22 91.85 10.19 93.50 C 10.17 95.15 10.38 95.95 10.66 95.27 C 10.93 94.59 10.95 93.24 10.69 92.27 Z M 72.06 86.59 C 79.58 82.84 87.26 75.01 90.68 67.60 C 93.15 62.26 93.50 60.31 93.50 52.00 C 93.50 43.43 93.20 41.86 90.39 36.00 C 82.54 19.58 65.07 11.05 48.17 15.38 C 36.65 18.33 28.07 25.22 22.31 36.16 C 19.75 41.03 19.50 42.42 19.50 52.00 C 19.50 60.68 19.88 63.32 21.68 67.22 C 26.10 76.78 33.15 83.59 42.92 87.72 C 47.74 89.76 49.73 90.03 57.56 89.69 C 64.89 89.37 67.65 88.78 72.06 86.59 Z M 10.68 85.81 C 10.36 85.01 10.13 85.25 10.08 86.42 C 10.04 87.47 10.27 88.06 10.60 87.73 C 10.94 87.40 10.97 86.53 10.68 85.81 Z M 49.75 83.87 C 29.44 79.31 18.51 56.95 27.52 38.41 C 37.16 18.57 63.52 13.61 78.55 28.81 C 86.40 36.74 89.51 45.70 87.99 56.00 C 86.82 63.94 84.46 68.85 79.16 74.33 C 73.79 79.90 69.54 82.31 62.50 83.76 C 56.61 84.99 54.77 85.00 49.75 83.87 Z M 10.66 77.75 C 10.38 77.06 10.16 77.62 10.16 79.00 C 10.16 80.38 10.38 80.94 10.66 80.25 C 10.94 79.56 10.94 78.44 10.66 77.75 Z M 10.69 71.27 C 10.44 70.30 10.22 70.85 10.19 72.50 C 10.17 74.15 10.38 74.95 10.66 74.27 C 10.93 73.59 10.95 72.24 10.69 71.27 Z M 11.00 67.00 C 11.00 66.45 10.55 66.00 10.00 66.00 C 9.45 66.00 9.00 66.45 9.00 67.00 C 9.00 67.55 9.45 68.00 10.00 68.00 C 10.55 68.00 11.00 67.55 11.00 67.00 Z M 10.90 59.25 L 10.80 54.50 L 9.93 58.00 C 9.46 59.92 9.26 62.06 9.50 62.75 C 10.40 65.33 11.00 63.84 10.90 59.25 Z M 8.08 26.42 C 8.13 25.25 8.36 25.01 8.68 25.81 C 8.97 26.53 8.94 27.40 8.60 27.73 C 8.27 28.06 8.04 27.47 8.08 26.42 Z M 8.08 17.42 C 8.13 16.25 8.36 16.01 8.68 16.81 C 8.97 17.53 8.94 18.40 8.60 18.73 C 8.27 19.06 8.04 18.47 8.08 17.42 Z M 8.00 9.56 C 8.00 8.70 8.45 8.00 9.00 8.00 C 9.55 8.00 10.00 8.42 10.00 8.94 C 10.00 9.46 9.55 10.16 9.00 10.50 C 8.45 10.84 8.00 10.42 8.00 9.56 Z M 96.00 5.21 C 96.00 4.78 94.54 4.35 92.75 4.26 C 90.10 4.13 89.87 4.27 91.50 4.98 C 94.08 6.11 96.00 6.21 96.00 5.21 Z" fill="none" stroke="rgba(255,255,255,0.92)" stroke-width="1.2" stroke-linejoin="round" fill-rule="evenodd"/>
</svg>
