<svg xmlns="http://www.w3.org/2000/svg" viewBox="0 0 100 100" width="100" height="100">
  <path d="M 0.00 50.00 L 0.00 0.00 L 50.00 0.00 L 100.00 0.00 L 100.00 50.00 L 100.00 100.00 L 50.00 100.00 L 0.00 100.00 L 0.00 50.00 Z M 53.38 93.49 C 67.93 89.70 78.98 78.04 82.06 63.22 C 85.26 47.85 75.53 29.17 60.70 22.20 C 42.02 13.42 19.74 20.90 9.94 39.25 C 7.07 44.62 6.54 46.71 6.18 54.14 C 5.54 67.47 9.56 77.19 19.09 85.35 C 28.97 93.80 41.11 96.69 53.38 93.49 Z M 91.96 89.86 C 90.88 86.10 89.43 84.44 90.34 88.00 C 90.69 89.38 90.98 91.06 90.99 91.75 C 90.99 92.44 91.42 93.00 91.93 93.00 C 92.50 93.00 92.51 91.78 91.96 89.86 Z M 94.98 90.25 C 94.97 88.25 94.73 87.88 94.08 88.91 C 93.59 89.68 93.42 90.92 93.70 91.66 C 94.51 93.77 95.00 93.24 94.98 90.25 Z M 33.00 87.42 C 24.96 84.52 18.42 78.64 14.19 70.50 C 10.65 63.69 10.40 50.90 13.66 43.82 C 20.91 28.12 39.62 20.07 55.20 25.96 C 62.34 28.65 70.28 35.68 73.76 42.39 C 75.99 46.71 76.41 48.82 76.45 56.00 C 76.49 63.13 76.08 65.39 73.91 70.00 C 70.73 76.73 64.55 83.05 58.24 86.02 C 51.90 89.00 39.34 89.70 33.00 87.42 Z M 91.98 79.69 C 91.99 79.25 91.55 79.16 91.00 79.50 C 90.45 79.84 90.01 80.88 90.02 81.81 C 90.03 83.27 90.16 83.29 91.00 82.00 C 91.53 81.17 91.98 80.14 91.98 79.69 Z M 94.62 72.44 C 94.30 71.62 93.40 71.29 92.45 71.66 C 91.14 72.16 91.08 72.46 92.17 73.23 C 93.16 73.95 93.06 74.05 91.75 73.63 C 89.79 73.00 89.55 73.76 91.00 76.00 C 91.65 77.00 91.97 77.08 91.98 76.25 C 92.01 74.32 93.98 74.77 94.14 76.75 C 94.22 77.85 94.44 77.64 94.72 76.18 C 94.96 74.90 94.91 73.22 94.62 72.44 Z M 95.00 65.89 C 95.00 64.85 94.50 64.00 93.89 64.00 C 93.28 64.00 93.05 64.67 93.36 65.50 C 93.68 66.33 93.50 67.00 92.97 67.00 C 92.44 67.00 92.00 67.44 92.00 67.97 C 92.00 68.50 92.67 68.68 93.50 68.36 C 94.33 68.05 95.00 66.93 95.00 65.89 Z M 92.26 64.11 C 92.53 63.07 92.37 61.61 91.89 60.86 C 91.31 59.94 91.03 60.54 91.02 62.75 C 91.00 66.39 91.52 66.96 92.26 64.11 Z M 91.69 55.27 C 91.44 54.30 91.22 54.85 91.19 56.50 C 91.17 58.15 91.38 58.95 91.66 58.27 C 91.93 57.59 91.95 56.24 91.69 55.27 Z M 95.00 44.00 C 95.00 35.84 94.62 31.00 93.98 31.00 C 93.41 31.00 93.22 32.04 93.56 33.39 C 93.89 34.71 93.68 36.08 93.08 36.45 C 92.42 36.86 92.00 36.15 92.00 34.62 C 92.00 33.24 91.66 31.91 91.25 31.66 C 90.84 31.40 90.47 34.98 90.44 39.60 C 90.40 45.87 90.72 48.00 91.69 48.00 C 92.97 48.00 93.41 50.20 93.04 54.75 C 92.94 55.99 93.34 57.00 93.93 57.00 C 94.64 57.00 95.00 52.58 95.00 44.00 Z M 92.00 41.67 C 92.00 39.65 92.42 38.00 92.93 38.00 C 93.44 38.00 93.68 39.41 93.46 41.14 C 92.89 45.65 92.00 45.97 92.00 41.67 Z M 95.00 26.00 C 95.00 25.45 94.80 25.00 94.56 25.00 C 94.32 25.00 93.84 25.45 93.50 26.00 C 93.16 26.55 93.36 27.00 93.94 27.00 C 94.52 27.00 95.00 26.55 95.00 26.00 Z M 95.00 17.00 C 95.00 9.78 94.87 9.55 91.50 11.00 L 89.50 11.86 L 91.50 11.93 C 93.24 11.99 93.50 12.68 93.47 17.25 C 93.45 20.83 93.05 22.42 92.22 22.25 C 91.55 22.11 91.00 22.45 91.00 23.00 C 91.00 23.55 91.90 24.00 93.00 24.00 C 94.81 24.00 95.00 23.33 95.00 17.00 Z M 12.00 10.00 C 12.00 9.45 11.80 9.00 11.56 9.00 C 11.32 9.00 10.84 9.45 10.50 10.00 C 10.16 10.55 10.36 11.00 10.94 11.00 C 11.52 11.00 12.00 10.55 12.00 10.00 Z M 46.05 9.57 C 44.70 8.83 42.90 8.48 42.05 8.81 C 40.89 9.26 41.12 9.58 43.00 10.10 C 47.17 11.27 48.64 11.01 46.05 9.57 Z M 53.00 10.00 C 53.00 9.45 51.76 9.04 50.25 9.10 L 47.50 9.20 L 50.00 10.00 C 51.38 10.44 52.61 10.85 52.75 10.90 C 52.89 10.96 53.00 10.55 53.00 10.00 Z M 62.00 10.00 C 62.00 9.45 61.80 9.00 61.56 9.00 C 61.32 9.00 60.84 9.45 60.50 10.00 C 60.16 10.55 60.36 11.00 60.94 11.00 C 61.52 11.00 62.00 10.55 62.00 10.00 Z M 18.00 8.50 C 16.98 7.27 17.05 7.00 18.38 7.00 C 19.27 7.00 20.01 7.56 20.02 8.25 C 20.03 9.16 20.27 9.13 20.90 8.13 C 21.60 7.02 21.98 7.12 22.85 8.63 C 23.84 10.34 23.94 10.35 23.97 8.75 C 23.99 7.79 24.45 7.00 25.00 7.00 C 25.55 7.00 26.00 7.45 26.00 8.00 C 26.00 8.55 26.38 9.00 26.83 9.00 C 27.29 9.00 27.67 8.32 27.67 7.50 C 27.67 6.27 25.91 6.00 17.83 6.00 C 11.82 6.00 8.00 6.40 8.00 7.02 C 8.00 7.62 9.08 7.77 10.65 7.37 C 12.63 6.88 13.10 7.02 12.52 7.96 C 11.95 8.89 12.36 9.04 14.12 8.54 C 15.96 8.02 16.16 8.11 15.00 8.92 C 13.80 9.76 14.08 9.97 16.37 9.98 C 18.81 10.00 19.06 9.77 18.00 8.50 Z M 37.73 9.40 C 37.40 9.06 36.53 9.03 35.81 9.32 C 35.01 9.64 35.25 9.87 36.42 9.92 C 37.47 9.96 38.06 9.73 37.73 9.40 Z M 58.52 9.03 C 57.75 7.79 62.28 6.63 65.48 7.24 C 66.83 7.50 68.06 7.32 68.22 6.85 C 68.37 6.38 69.93 6.41 71.68 6.91 C 74.05 7.59 74.98 7.49 75.36 6.50 C 75.77 5.44 73.22 5.26 62.28 5.58 C 54.81 5.80 48.46 6.20 48.18 6.49 C 47.63 7.04 51.94 7.34 56.00 7.03 C 58.45 6.84 58.46 6.87 56.50 8.39 C 54.53 9.92 54.53 9.94 56.81 9.97 C 58.08 9.99 58.85 9.56 58.52 9.03 Z M 65.00 9.56 C 65.00 9.32 64.55 8.84 64.00 8.50 C 63.45 8.16 63.00 8.36 63.00 8.94 C 63.00 9.52 63.45 10.00 64.00 10.00 C 64.55 10.00 65.00 9.80 65.00 9.56 Z M 71.50 9.00 C 71.16 8.45 70.43 8.00 69.88 8.00 C 69.33 8.00 69.16 8.45 69.50 9.00 C 69.84 9.55 70.57 10.00 71.12 10.00 C 71.67 10.00 71.84 9.55 71.50 9.00 Z M 78.00 9.56 C 78.00 8.50 76.08 8.06 75.51 8.98 C 75.16 9.54 75.58 10.00 76.44 10.00 C 77.30 10.00 78.00 9.80 78.00 9.56 Z M 86.00 8.50 C 87.00 7.30 86.99 7.00 85.96 7.00 C 85.25 7.00 84.95 6.71 85.30 6.36 C 85.65 6.02 87.03 6.44 88.36 7.32 C 90.64 8.81 90.82 8.79 91.30 6.95 C 91.76 5.21 91.28 5.00 86.91 5.00 C 84.21 5.00 82.00 5.45 82.00 6.00 C 82.00 6.55 81.52 7.00 80.94 7.00 C 80.36 7.00 80.16 6.55 80.50 6.00 C 80.84 5.45 80.46 5.00 79.67 5.00 C 78.87 5.00 77.93 5.73 77.59 6.63 C 77.05 8.03 77.53 8.17 80.98 7.62 C 85.40 6.91 86.25 7.56 82.75 8.97 C 80.54 9.86 80.54 9.87 82.63 9.94 C 83.80 9.97 85.32 9.32 86.00 8.50 Z M 89.73 9.40 C 89.40 9.06 88.53 9.03 87.81 9.32 C 87.01 9.64 87.25 9.87 88.42 9.92 C 89.47 9.96 90.06 9.73 89.73 9.40 Z M 31.36 7.50 C 30.73 5.87 29.00 5.44 29.00 6.92 C 29.00 7.68 29.70 8.19 31.72 8.92 C 31.84 8.96 31.68 8.32 31.36 7.50 Z M 35.73 7.73 C 36.79 8.13 37.09 7.95 36.61 7.17 C 36.21 6.53 35.02 6.00 33.97 6.00 C 32.59 6.00 32.24 6.47 32.71 7.70 C 33.09 8.67 33.53 8.91 33.75 8.26 C 33.96 7.63 34.85 7.39 35.73 7.73 Z M 7.00 7.00 C 7.00 6.45 6.33 6.00 5.50 6.00 C 4.67 6.00 4.00 6.45 4.00 7.00 C 4.00 7.55 4.67 8.00 5.50 8.00 C 6.33 8.00 7.00 7.55 7.00 7.00 Z M 95.00 7.17 C 95.00 5.86 93.81 5.00 92.84 5.60 C 91.81 6.24 92.70 8.00 94.06 8.00 C 94.58 8.00 95.00 7.62 95.00 7.17 Z M 39.73 6.40 C 39.40 6.06 38.53 6.03 37.81 6.32 C 37.01 6.64 37.25 6.87 38.42 6.92 C 39.47 6.96 40.06 6.73 39.73 6.40 Z" fill="none" stroke="rgba(255,255,255,0.92)" stroke-width="1.2" stroke-linejoin="round" fill-rule="evenodd"/>
</svg>
