<svg xmlns="http://www.w3.org/2000/svg" viewBox="0 0 100 100" width="100" height="100">
  <path d="M 0.00 50.00 L 0.00 0.00 L 50.00 0.00 L 100.00 0.00 L 100.00 50.00 L 100.00 100.00 L 50.00 100.00 L 0.00 100.00 L 0.00 50.00 Z M 59.30 93.33 C 64.21 91.77 71.33 86.92 75.69 82.16 C 77.03 80.70 79.56 76.58 81.31 73.00 C 84.19 67.12 84.49 65.64 84.44 57.50 C 84.39 49.96 83.96 47.57 81.75 42.75 C 78.08 34.75 70.38 26.91 62.72 23.37 C 57.18 20.82 55.40 20.50 46.50 20.50 C 37.39 20.50 35.97 20.77 30.50 23.50 C 22.77 27.37 16.14 33.98 12.44 41.51 C 9.78 46.93 9.50 48.46 9.50 57.50 C 9.50 66.26 9.83 68.21 12.18 73.22 C 19.02 87.80 34.20 96.81 49.50 95.34 C 52.25 95.08 56.66 94.18 59.30 93.33 Z M 94.98 92.75 C 94.99 92.34 94.55 92.00 94.00 92.00 C 93.45 92.00 93.01 93.01 93.02 94.25 C 93.03 96.07 93.22 96.21 94.00 95.00 C 94.53 94.17 94.98 93.16 94.98 92.75 Z M 93.66 87.75 C 93.38 87.06 93.16 87.62 93.16 89.00 C 93.16 90.38 93.38 90.94 93.66 90.25 C 93.94 89.56 93.94 88.44 93.66 87.75 Z M 37.50 88.60 C 30.82 86.49 27.47 84.32 22.70 79.01 C 14.30 69.67 12.07 54.99 17.36 43.86 C 30.99 15.17 73.91 21.37 78.87 52.74 C 82.51 75.76 59.63 95.60 37.50 88.60 Z M 96.00 83.92 C 96.00 83.45 95.33 83.32 94.50 83.64 C 93.67 83.95 93.00 84.60 93.00 85.08 C 93.00 85.55 93.67 85.68 94.50 85.36 C 95.33 85.05 96.00 84.40 96.00 83.92 Z M 94.29 80.00 C 94.58 78.90 94.40 77.75 93.91 77.44 C 93.41 77.13 93.00 78.03 93.00 79.44 C 93.00 82.51 93.57 82.75 94.29 80.00 Z M 95.32 70.80 C 95.94 70.42 96.15 69.81 95.79 69.45 C 94.45 68.12 93.00 70.22 93.14 73.31 C 93.25 76.06 93.34 76.15 93.74 74.00 C 93.99 72.62 94.71 71.19 95.32 70.80 Z M 96.00 67.61 C 96.00 67.39 95.33 66.95 94.50 66.64 C 93.67 66.32 93.00 66.50 93.00 67.03 C 93.00 67.56 93.67 68.00 94.50 68.00 C 95.33 68.00 96.00 67.82 96.00 67.61 Z M 96.00 63.00 C 96.00 61.96 95.52 60.82 94.94 60.46 C 94.33 60.09 94.15 58.57 94.52 56.90 C 94.92 55.10 94.75 54.00 94.08 54.00 C 92.93 54.00 92.53 64.19 93.64 65.31 C 94.67 66.34 96.00 65.04 96.00 63.00 Z M 94.74 50.31 C 93.81 49.38 92.77 48.90 92.42 49.24 C 91.44 50.23 92.95 52.00 94.77 52.00 C 96.30 52.00 96.30 51.87 94.74 50.31 Z M 96.00 49.00 C 96.00 48.45 95.52 48.00 94.94 48.00 C 94.36 48.00 94.16 48.45 94.50 49.00 C 94.84 49.55 95.32 50.00 95.56 50.00 C 95.80 50.00 96.00 49.55 96.00 49.00 Z M 96.00 45.56 C 96.00 44.50 94.08 44.06 93.51 44.98 C 93.16 45.54 93.58 46.00 94.44 46.00 C 95.30 46.00 96.00 45.80 96.00 45.56 Z M 93.68 38.81 C 93.36 38.01 93.13 38.25 93.08 39.42 C 93.04 40.47 93.27 41.06 93.60 40.73 C 93.94 40.40 93.97 39.53 93.68 38.81 Z M 94.36 34.50 C 94.05 33.67 93.61 33.00 93.39 33.00 C 93.18 33.00 93.00 33.67 93.00 34.50 C 93.00 35.33 93.44 36.00 93.97 36.00 C 94.50 36.00 94.68 35.33 94.36 34.50 Z M 94.00 30.56 C 94.00 30.32 93.55 29.84 93.00 29.50 C 92.45 29.16 92.00 29.36 92.00 29.94 C 92.00 30.52 92.45 31.00 93.00 31.00 C 93.55 31.00 94.00 30.80 94.00 30.56 Z M 96.00 26.03 C 96.00 24.72 95.51 24.25 94.54 24.62 C 93.40 25.06 93.34 25.47 94.29 26.55 C 95.89 28.37 96.00 28.34 96.00 26.03 Z M 93.50 23.00 C 93.84 22.45 93.64 22.00 93.06 22.00 C 92.48 22.00 92.00 22.45 92.00 23.00 C 92.00 23.55 92.20 24.00 92.44 24.00 C 92.68 24.00 93.16 23.55 93.50 23.00 Z M 93.60 16.40 C 93.24 15.47 92.73 14.94 92.45 15.21 C 92.18 15.49 92.24 16.47 92.60 17.40 C 92.96 18.33 93.47 18.86 93.75 18.59 C 94.02 18.31 93.96 17.33 93.60 16.40 Z M 95.09 13.55 C 95.59 13.86 96.00 13.64 96.00 13.06 C 96.00 12.48 95.33 12.00 94.50 12.00 C 93.67 12.00 93.04 12.79 93.08 13.75 C 93.13 14.81 93.36 15.00 93.66 14.24 C 93.94 13.55 94.58 13.24 95.09 13.55 Z M 7.00 11.00 C 6.21 10.51 5.33 10.33 5.06 10.61 C 4.78 10.88 5.21 11.51 6.00 12.00 C 6.79 12.49 7.67 12.67 7.94 12.39 C 8.22 12.12 7.79 11.49 7.00 11.00 Z M 13.00 10.50 C 12.00 9.29 12.02 8.98 13.13 8.88 C 13.88 8.82 13.15 8.45 11.50 8.07 C 7.61 7.17 5.08 7.90 7.47 9.24 C 8.39 9.76 9.39 9.94 9.69 9.64 C 9.99 9.34 10.89 9.75 11.69 10.55 C 13.60 12.46 14.59 12.42 13.00 10.50 Z M 19.00 10.37 C 19.00 9.04 19.70 8.85 22.74 9.35 C 24.80 9.68 26.64 10.41 26.83 10.98 C 27.31 12.43 29.05 12.25 28.75 10.77 C 28.61 10.10 29.62 9.43 31.00 9.29 C 33.20 9.07 33.26 9.14 31.50 9.88 C 29.71 10.63 29.82 10.79 32.57 11.40 C 37.36 12.46 50.01 11.71 48.94 10.43 C 48.45 9.84 46.45 9.49 44.49 9.64 C 42.31 9.81 41.17 9.53 41.55 8.92 C 41.89 8.37 43.09 8.21 44.21 8.57 C 45.56 9.00 46.02 8.84 45.57 8.12 C 44.79 6.86 37.00 6.90 37.00 8.16 C 37.00 8.62 37.67 9.00 38.50 9.00 C 39.33 9.00 40.00 9.34 40.00 9.75 C 40.00 10.16 38.88 10.50 37.51 10.50 C 35.69 10.50 35.16 10.07 35.53 8.91 C 35.97 7.51 34.80 7.35 26.05 7.58 C 15.30 7.87 13.78 8.26 14.65 10.53 C 15.42 12.54 19.00 12.41 19.00 10.37 Z M 25.25 11.34 C 24.56 11.06 23.44 11.06 22.75 11.34 C 22.06 11.62 22.62 11.84 24.00 11.84 C 25.38 11.84 25.94 11.62 25.25 11.34 Z M 57.54 10.93 C 58.68 9.09 57.17 8.69 55.48 10.38 C 54.08 11.78 54.06 12.00 55.37 12.00 C 56.20 12.00 57.18 11.52 57.54 10.93 Z M 70.36 10.51 C 70.05 9.68 69.31 9.31 68.73 9.67 C 68.06 10.08 67.90 9.71 68.30 8.66 C 68.73 7.55 68.42 7.00 67.36 7.00 C 66.37 7.00 66.00 7.56 66.36 8.50 C 66.68 9.32 66.39 10.04 65.72 10.10 C 65.05 10.15 65.62 10.56 67.00 11.00 C 70.70 12.18 70.99 12.14 70.36 10.51 Z M 16.00 10.00 C 16.00 9.45 16.45 9.00 17.00 9.00 C 17.55 9.00 18.00 9.45 18.00 10.00 C 18.00 10.55 17.55 11.00 17.00 11.00 C 16.45 11.00 16.00 10.55 16.00 10.00 Z M 53.00 10.00 C 52.00 9.35 51.92 9.03 52.75 9.02 C 53.44 9.01 54.00 8.59 54.00 8.09 C 54.00 7.60 52.91 7.70 51.58 8.33 C 49.10 9.50 49.90 10.97 53.00 10.97 C 54.33 10.97 54.33 10.86 53.00 10.00 Z M 62.54 8.00 C 63.43 8.00 63.71 8.60 63.30 9.66 C 62.87 10.78 63.04 11.09 63.83 10.61 C 66.13 9.18 65.08 7.00 62.09 7.00 C 59.56 7.00 59.27 7.29 59.80 9.25 C 60.30 11.08 60.49 11.17 60.78 9.75 C 60.98 8.79 61.77 8.00 62.54 8.00 Z M 75.29 9.00 C 75.68 7.51 75.32 7.00 73.87 7.00 C 72.24 7.00 72.10 7.32 73.00 9.00 C 73.59 10.10 74.23 11.00 74.42 11.00 C 74.61 11.00 75.00 10.10 75.29 9.00 Z M 80.73 10.40 C 80.40 10.06 79.53 10.03 78.81 10.32 C 78.01 10.64 78.25 10.87 79.42 10.92 C 80.47 10.96 81.06 10.73 80.73 10.40 Z M 89.25 10.34 C 88.56 10.06 87.44 10.06 86.75 10.34 C 86.06 10.62 86.62 10.84 88.00 10.84 C 89.38 10.84 89.94 10.62 89.25 10.34 Z M 78.52 8.62 C 79.95 7.19 79.51 6.00 77.55 6.00 C 76.93 6.00 76.36 6.90 76.27 8.00 C 76.10 10.36 76.64 10.50 78.52 8.62 Z M 86.34 6.75 C 86.09 6.34 85.00 6.00 83.93 6.00 C 82.27 6.00 82.16 6.28 83.16 7.88 C 84.05 9.31 84.63 9.49 85.56 8.63 C 86.24 8.01 86.59 7.16 86.34 6.75 Z M 50.27 7.34 C 49.59 7.07 48.24 7.05 47.27 7.31 C 46.30 7.56 46.85 7.78 48.50 7.81 C 50.15 7.83 50.95 7.62 50.27 7.34 Z M 57.73 7.40 C 57.40 7.06 56.53 7.03 55.81 7.32 C 55.01 7.64 55.25 7.87 56.42 7.92 C 57.47 7.96 58.06 7.73 57.73 7.40 Z M 91.50 7.00 C 93.43 6.17 93.42 6.14 91.31 6.07 C 90.10 6.03 88.84 6.45 88.50 7.00 C 87.77 8.18 88.75 8.18 91.50 7.00 Z" fill="none" stroke="rgba(255,255,255,0.92)" stroke-width="1.2" stroke-linejoin="round" fill-rule="evenodd"/>
</svg>
