<svg xmlns="http://www.w3.org/2000/svg" viewBox="0 0 100 100" width="100" height="100">
  <path d="M 0.00 50.00 L 0.00 0.00 L 50.00 0.00 L 100.00 0.00 L 100.00 50.00 L 100.00 100.00 L 50.00 100.00 L 0.00 100.00 L 0.00 50.00 Z M 96.00 50.00 L 96.00 4.00 L 50.00 4.00 C 23.28 4.00 4.00 4.38 4.00 4.90 C 4.00 6.34 12.02 6.66 53.45 6.87 C 74.87 6.97 92.49 7.16 92.61 7.28 C 92.74 7.40 92.98 24.15 93.16 44.50 C 93.53 87.80 93.84 96.00 95.08 96.00 C 95.63 96.00 96.00 77.26 96.00 50.00 Z" fill="none" stroke="rgba(255,255,255,0.92)" stroke-width="1.2" stroke-linejoin="round" fill-rule="evenodd"/>
</svg>
