<svg xmlns="http://www.w3.org/2000/svg" viewBox="0 0 100 100" width="100" height="100">
  <path d="M 0.00 50.00 L 0.00 0.00 L 50.00 0.00 L 100.00 0.00 L 100.00 50.00 L 100.00 100.00 L 50.00 100.00 L 0.00 100.00 L 0.00 50.00 Z M 68.84 94.34 L 96.00 93.68 L 95.88 49.32 C 95.81 24.93 95.36 4.72 94.88 4.42 C 94.39 4.13 93.97 5.15 93.93 6.69 C 93.87 9.12 93.75 9.23 93.05 7.50 C 92.61 6.40 92.45 5.16 92.68 4.75 C 92.92 4.34 92.63 4.00 92.04 4.00 C 91.28 4.00 90.98 16.78 91.02 46.75 L 91.09 89.50 L 72.29 90.03 L 53.50 90.57 L 72.25 90.78 C 82.56 90.90 91.00 91.39 91.00 91.86 C 91.00 92.33 78.08 92.81 62.29 92.92 C 28.63 93.16 4.86 93.81 4.16 94.50 C 3.46 95.20 36.77 95.12 68.84 94.34 Z M 92.00 92.00 C 92.00 91.45 92.70 91.00 93.56 91.00 C 94.42 91.00 94.84 91.45 94.50 92.00 C 94.16 92.55 93.46 93.00 92.94 93.00 C 92.42 93.00 92.00 92.55 92.00 92.00 Z M 50.77 90.29 C 49.27 90.06 46.57 90.05 44.77 90.28 C 42.97 90.50 44.20 90.68 47.50 90.69 C 50.80 90.70 52.27 90.51 50.77 90.29 Z M 56.60 84.62 C 67.27 81.78 76.14 74.37 80.54 64.62 C 88.92 46.08 80.46 24.56 61.33 15.73 C 54.10 12.39 40.67 12.63 32.78 16.25 C 17.20 23.38 7.91 40.52 10.99 56.46 C 15.02 77.30 35.83 90.15 56.60 84.62 Z M 38.50 79.66 C 28.96 76.50 22.10 70.58 18.22 62.15 C 16.07 57.48 15.82 55.76 16.21 48.65 C 16.73 39.20 18.68 34.63 25.01 28.11 C 32.93 19.95 44.23 16.66 54.95 19.41 C 65.20 22.04 73.14 29.12 76.56 38.70 C 78.60 44.43 78.34 56.64 76.08 61.64 C 69.90 75.24 51.63 84.00 38.50 79.66 Z M 93.02 67.75 C 93.03 65.54 93.31 64.94 93.89 65.86 C 94.68 67.10 94.29 71.00 93.38 71.00 C 93.17 71.00 93.01 69.54 93.02 67.75 Z M 93.08 47.42 C 93.13 46.25 93.36 46.01 93.68 46.81 C 93.97 47.53 93.94 48.40 93.60 48.73 C 93.27 49.06 93.04 48.47 93.08 47.42 Z M 92.93 28.75 C 92.20 26.30 92.24 23.97 93.01 23.49 C 93.58 23.14 94.00 24.19 94.00 25.94 C 94.00 27.62 93.78 29.00 93.50 29.00 C 93.22 29.00 92.97 28.89 92.93 28.75 Z M 92.61 16.41 C 92.27 15.54 92.43 14.08 92.97 13.16 C 93.74 11.84 93.95 12.16 93.97 14.75 C 94.00 18.31 93.55 18.87 92.61 16.41 Z" fill="none" stroke="rgba(255,255,255,0.92)" stroke-width="1.2" stroke-linejoin="round" fill-rule="evenodd"/>
</svg>
