<svg xmlns="http://www.w3.org/2000/svg" viewBox="0 0 100 100" width="100" height="100">
  <path d="M 0.00 50.00 L 0.00 0.00 L 50.00 0.00 L 100.00 0.00 L 100.00 50.00 L 100.00 100.00 L 50.00 100.00 L 0.00 100.00 L 0.00 50.00 Z M 95.80 50.58 C 95.63 25.60 95.19 4.85 94.80 4.47 C 94.42 4.08 73.83 4.10 49.05 4.51 L 4.00 5.25 L 4.00 7.71 L 4.00 10.17 L 47.00 9.83 L 90.00 9.50 L 90.18 22.00 C 90.40 37.09 90.65 58.97 90.85 80.25 L 91.00 96.00 L 93.55 96.00 L 96.09 96.00 L 95.80 50.58 Z" fill="none" stroke="rgba(255,255,255,0.92)" stroke-width="1.2" stroke-linejoin="round" fill-rule="evenodd"/>
</svg>
