<svg xmlns="http://www.w3.org/2000/svg" viewBox="0 0 100 100" width="100" height="100">
  <path d="M 0.00 50.00 L 0.00 0.00 L 50.00 0.00 L 100.00 0.00 L 100.00 50.00 L 100.00 100.00 L 50.00 100.00 L 0.00 100.00 L 0.00 50.00 Z M 64.45 95.09 C 64.73 94.63 51.24 94.22 34.48 94.18 C 15.58 94.13 4.00 94.46 4.00 95.06 C 4.00 96.25 63.71 96.28 64.45 95.09 Z M 95.92 94.40 C 96.15 94.18 89.73 94.00 81.67 94.00 C 73.60 94.00 67.00 94.37 67.00 94.83 C 67.00 95.63 95.08 95.21 95.92 94.40 Z M 10.00 92.05 C 10.00 91.60 8.65 91.03 7.00 90.79 C 4.85 90.47 4.00 90.75 4.00 91.79 C 4.00 92.74 4.68 93.05 6.00 92.71 C 7.10 92.42 8.00 92.62 8.00 93.15 C 8.00 93.68 8.45 93.84 9.00 93.50 C 9.55 93.16 10.00 92.51 10.00 92.05 Z M 30.50 91.51 C 31.05 91.31 29.11 91.12 26.19 91.08 C 23.27 91.04 21.11 91.36 21.38 91.81 C 21.84 92.54 28.12 92.34 30.50 91.51 Z M 95.92 91.39 C 96.15 91.18 85.03 91.00 71.23 91.00 C 57.42 91.00 45.89 91.37 45.61 91.83 C 45.11 92.63 95.07 92.20 95.92 91.39 Z M 15.73 91.40 C 15.40 91.06 14.53 91.03 13.81 91.32 C 13.01 91.64 13.25 91.87 14.42 91.92 C 15.47 91.96 16.06 91.73 15.73 91.40 Z M 37.25 91.34 C 36.56 91.06 35.44 91.06 34.75 91.34 C 34.06 91.62 34.62 91.84 36.00 91.84 C 37.38 91.84 37.94 91.62 37.25 91.34 Z M 43.27 91.34 C 42.59 91.07 41.24 91.05 40.27 91.31 C 39.30 91.56 39.85 91.78 41.50 91.81 C 43.15 91.83 43.95 91.62 43.27 91.34 Z M 4.73 79.27 C 4.51 77.20 4.33 78.65 4.33 82.50 C 4.32 86.35 4.50 88.05 4.72 86.27 C 4.94 84.50 4.95 81.35 4.73 79.27 Z M 19.10 85.14 C 31.73 80.79 44.90 72.04 46.53 66.91 C 47.40 64.16 48.65 64.56 49.84 67.98 C 51.45 72.59 59.70 80.82 63.88 81.98 C 65.87 82.53 71.69 83.28 76.81 83.64 L 86.11 84.30 L 85.47 81.40 C 84.18 75.59 81.63 68.36 78.73 62.27 C 75.76 56.02 68.37 48.00 65.58 48.00 C 62.33 48.00 63.25 46.06 67.47 44.01 C 74.05 40.83 80.73 32.99 81.56 27.47 C 82.28 22.64 81.81 8.48 80.90 7.56 C 80.05 6.71 69.81 10.46 62.72 14.20 C 56.03 17.75 48.00 24.99 48.00 27.47 C 48.00 30.19 46.09 29.09 44.12 25.25 C 40.94 19.03 34.38 13.29 28.97 11.99 C 23.92 10.78 10.54 10.12 9.62 11.04 C 8.62 12.04 11.88 23.67 15.00 30.19 C 18.97 38.50 22.95 43.27 27.98 45.76 L 32.01 47.75 L 28.96 49.01 C 23.63 51.22 17.99 55.94 14.95 60.74 C 12.27 64.96 12.00 66.18 12.01 73.95 C 12.03 81.28 12.66 87.00 13.46 87.00 C 13.58 87.00 16.12 86.16 19.10 85.14 Z M 17.61 77.69 C 15.88 71.22 17.84 64.15 22.64 59.54 C 26.24 56.08 34.20 52.30 39.75 51.42 C 43.94 50.75 44.00 50.79 44.00 53.69 C 44.00 55.31 43.31 58.94 42.48 61.76 C 40.75 67.59 37.06 71.18 28.48 75.38 C 19.02 80.01 18.28 80.17 17.61 77.69 Z M 66.21 77.02 C 59.02 75.31 53.40 66.67 51.51 54.41 L 50.88 50.32 L 56.28 51.05 C 63.60 52.04 67.34 54.18 70.95 59.43 C 74.15 64.07 75.39 66.76 77.58 73.75 L 78.90 78.00 L 74.20 77.90 C 71.62 77.84 68.02 77.44 66.21 77.02 Z M 4.69 70.27 C 4.44 69.30 4.22 69.85 4.19 71.50 C 4.17 73.15 4.38 73.95 4.66 73.27 C 4.93 72.59 4.95 71.24 4.69 70.27 Z M 4.73 56.78 C 4.52 54.42 4.35 56.10 4.34 60.50 C 4.34 64.90 4.51 66.82 4.73 64.78 C 4.94 62.73 4.94 59.13 4.73 56.78 Z M 4.68 49.81 C 4.36 49.01 4.13 49.25 4.08 50.42 C 4.04 51.47 4.27 52.06 4.60 51.73 C 4.94 51.40 4.97 50.53 4.68 49.81 Z M 4.71 42.76 C 4.47 41.52 4.26 42.30 4.25 44.50 C 4.24 46.70 4.44 47.72 4.69 46.76 C 4.94 45.81 4.95 44.01 4.71 42.76 Z M 34.65 42.49 C 29.34 41.03 25.95 38.38 22.54 33.00 C 20.36 29.58 16.00 18.87 16.00 16.96 C 16.00 15.88 22.16 15.68 26.83 16.62 C 30.95 17.44 37.68 23.34 39.65 27.85 C 41.72 32.58 44.05 42.11 43.39 43.18 C 42.71 44.27 40.50 44.10 34.65 42.49 Z M 51.00 38.97 C 51.00 32.27 52.89 28.11 57.86 23.85 C 62.77 19.65 74.64 13.66 76.18 14.61 C 77.67 15.53 76.51 27.11 74.54 30.92 C 73.69 32.56 71.09 35.21 68.75 36.81 C 64.86 39.46 54.27 44.00 51.96 44.00 C 51.43 44.00 51.00 41.74 51.00 38.97 Z M 4.66 35.75 C 4.38 35.06 4.16 35.62 4.16 37.00 C 4.16 38.38 4.38 38.94 4.66 38.25 C 4.94 37.56 4.94 36.44 4.66 35.75 Z M 4.66 30.75 C 4.38 30.06 4.16 30.62 4.16 32.00 C 4.16 33.38 4.38 33.94 4.66 33.25 C 4.94 32.56 4.94 31.44 4.66 30.75 Z M 4.66 23.75 C 4.38 23.06 4.16 23.62 4.16 25.00 C 4.16 26.38 4.38 26.94 4.66 26.25 C 4.94 25.56 4.94 24.44 4.66 23.75 Z M 4.66 17.75 C 4.38 17.06 4.16 17.62 4.16 19.00 C 4.16 20.38 4.38 20.94 4.66 20.25 C 4.94 19.56 4.94 18.44 4.66 17.75 Z M 95.68 12.81 C 95.36 12.01 95.13 12.25 95.08 13.42 C 95.04 14.47 95.27 15.06 95.60 14.73 C 95.94 14.40 95.97 13.53 95.68 12.81 Z M 4.69 9.25 C 4.44 8.29 4.23 9.07 4.23 11.00 C 4.23 12.93 4.44 13.71 4.69 12.75 C 4.94 11.79 4.94 10.21 4.69 9.25 Z M 95.68 5.81 C 95.36 5.01 95.13 5.25 95.08 6.42 C 95.04 7.47 95.27 8.06 95.60 7.73 C 95.94 7.40 95.97 6.53 95.68 5.81 Z" fill="none" stroke="rgba(255,255,255,0.92)" stroke-width="1.2" stroke-linejoin="round" fill-rule="evenodd"/>
</svg>
