<svg xmlns="http://www.w3.org/2000/svg" viewBox="0 0 100 100" width="100" height="100">
  <path d="M 0.00 50.00 L 0.00 0.00 L 50.00 0.00 L 100.00 0.00 L 100.00 50.00 L 100.00 100.00 L 50.00 100.00 L 0.00 100.00 L 0.00 50.00 Z M 7.97 93.25 C 8.92 91.21 9.27 83.06 9.29 61.75 C 9.31 45.93 9.03 32.69 8.66 32.33 C 8.30 31.96 8.00 37.39 8.00 44.39 C 8.00 51.90 7.62 56.88 7.08 56.55 C 6.56 56.23 6.37 51.06 6.66 44.60 C 6.99 37.05 6.79 32.99 6.08 32.55 C 5.32 32.08 5.05 41.31 5.17 63.94 C 5.26 81.57 5.63 96.00 6.00 96.00 C 6.38 96.00 7.26 94.76 7.97 93.25 Z M 65.49 88.80 C 79.13 85.37 89.28 73.90 92.04 58.82 C 93.29 51.98 91.34 41.96 87.48 35.37 C 84.33 30.01 77.17 23.72 70.47 20.44 C 52.71 11.75 29.12 20.43 20.84 38.69 C 17.06 47.02 16.35 53.91 18.42 62.00 C 23.82 83.08 43.56 94.31 65.49 88.80 Z M 7.19 87.50 C 7.22 85.85 7.44 85.30 7.69 86.27 C 7.95 87.24 7.93 88.59 7.66 89.27 C 7.38 89.95 7.17 89.15 7.19 87.50 Z M 46.00 84.12 C 37.13 81.21 28.82 73.89 25.43 66.03 C 22.47 59.16 22.75 47.01 26.01 40.57 C 33.96 24.86 52.04 18.06 67.60 24.94 C 74.92 28.18 80.53 33.35 83.68 39.76 C 86.12 44.73 86.49 46.65 86.45 54.00 C 86.42 60.81 85.96 63.35 84.16 66.80 C 78.25 78.10 68.75 84.15 56.14 84.64 C 51.94 84.81 47.38 84.58 46.00 84.12 Z M 7.16 75.00 C 7.16 73.62 7.38 73.06 7.66 73.75 C 7.94 74.44 7.94 75.56 7.66 76.25 C 7.38 76.94 7.16 76.38 7.16 75.00 Z M 6.67 69.25 C 6.08 68.26 6.69 60.98 7.42 60.24 C 7.74 59.93 8.00 61.99 8.00 64.83 C 8.00 69.77 7.66 70.90 6.67 69.25 Z M 6.75 29.47 C 6.43 27.82 6.82 26.62 7.88 25.99 C 8.98 25.34 9.15 24.79 8.40 24.27 C 6.78 23.13 5.94 18.70 7.03 16.99 C 7.73 15.87 7.97 16.30 7.98 18.69 C 7.99 20.45 8.38 22.12 8.85 22.40 C 9.31 22.69 9.65 20.91 9.60 18.45 C 9.53 15.31 9.13 14.12 8.25 14.46 C 7.41 14.78 7.00 13.87 7.00 11.64 C 7.00 9.37 7.47 8.33 8.50 8.33 C 9.32 8.33 10.00 8.72 10.00 9.19 C 10.00 9.81 90.17 9.69 95.04 9.07 C 95.33 9.03 95.64 8.10 95.73 7.00 C 95.87 5.03 95.26 5.00 50.69 5.02 C 21.14 5.03 6.02 5.37 7.00 6.00 C 8.29 6.84 8.27 6.97 6.81 6.98 C 5.33 7.00 5.13 8.39 5.17 18.75 C 5.19 25.21 5.42 30.84 5.67 31.25 C 6.63 32.84 7.21 31.89 6.75 29.47 Z M 10.00 28.50 C 10.00 27.68 9.82 27.00 9.61 27.00 C 9.39 27.00 8.95 27.68 8.64 28.50 C 8.32 29.32 8.50 30.00 9.03 30.00 C 9.56 30.00 10.00 29.32 10.00 28.50 Z M 10.50 7.00 C 10.16 6.45 10.84 6.00 12.00 6.00 C 13.16 6.00 13.84 6.45 13.50 7.00 C 13.16 7.55 12.49 8.00 12.00 8.00 C 11.51 8.00 10.84 7.55 10.50 7.00 Z M 14.81 7.32 C 15.53 7.03 16.40 7.06 16.73 7.40 C 17.06 7.73 16.47 7.96 15.42 7.92 C 14.25 7.87 14.01 7.64 14.81 7.32 Z M 17.57 7.12 C 17.27 6.63 19.32 6.23 22.13 6.23 C 25.41 6.23 26.75 6.54 25.87 7.10 C 24.08 8.24 18.27 8.25 17.57 7.12 Z M 28.25 7.31 C 29.21 7.06 30.79 7.06 31.75 7.31 C 32.71 7.56 31.93 7.77 30.00 7.77 C 28.07 7.77 27.29 7.56 28.25 7.31 Z M 36.53 7.05 C 39.25 5.95 55.00 6.01 55.00 7.13 C 55.00 7.61 50.39 7.97 44.75 7.94 C 38.34 7.90 35.26 7.56 36.53 7.05 Z M 59.00 7.00 C 59.00 6.45 59.70 6.00 60.56 6.00 C 61.42 6.00 61.84 6.45 61.50 7.00 C 61.16 7.55 60.46 8.00 59.94 8.00 C 59.42 8.00 59.00 7.55 59.00 7.00 Z M 64.81 7.32 C 65.53 7.03 66.40 7.06 66.73 7.40 C 67.06 7.73 66.47 7.96 65.42 7.92 C 64.25 7.87 64.01 7.64 64.81 7.32 Z M 71.80 6.80 C 72.73 5.87 73.27 5.87 74.20 6.80 C 75.13 7.73 74.87 8.00 73.00 8.00 C 71.13 8.00 70.87 7.73 71.80 6.80 Z M 90.75 7.34 C 91.44 7.06 92.56 7.06 93.25 7.34 C 93.94 7.62 93.38 7.84 92.00 7.84 C 90.62 7.84 90.06 7.62 90.75 7.34 Z M 85.81 6.32 C 86.53 6.03 87.40 6.06 87.73 6.40 C 88.06 6.73 87.47 6.96 86.42 6.92 C 85.25 6.87 85.01 6.64 85.81 6.32 Z" fill="none" stroke="rgba(255,255,255,0.92)" stroke-width="1.2" stroke-linejoin="round" fill-rule="evenodd"/>
</svg>
