<svg xmlns="http://www.w3.org/2000/svg" viewBox="0 0 100 100" width="100" height="100">
  <path d="M 0.00 50.00 L 0.00 0.00 L 50.00 0.00 L 100.00 0.00 L 100.00 50.00 L 100.00 100.00 L 50.00 100.00 L 0.00 100.00 L 0.00 50.00 Z M 5.22 52.27 L 4.96 9.68 L 23.73 10.34 C 34.05 10.70 54.31 11.00 68.74 11.00 L 94.98 11.00 L 95.25 53.75 L 95.52 96.50 L 95.76 50.75 L 96.00 5.00 L 50.00 5.00 L 4.00 5.00 L 4.00 50.67 C 4.00 75.78 4.33 96.00 4.74 95.59 C 5.15 95.19 5.36 75.69 5.22 52.27 Z" fill="none" stroke="rgba(255,255,255,0.92)" stroke-width="1.2" stroke-linejoin="round" fill-rule="evenodd"/>
</svg>
