<svg xmlns="http://www.w3.org/2000/svg" viewBox="0 0 100 100" width="100" height="100">
  <path d="M 0.00 50.00 L 0.00 0.00 L 50.00 0.00 L 100.00 0.00 L 100.00 50.00 L 100.00 100.00 L 50.00 100.00 L 0.00 100.00 L 0.00 50.00 Z M 95.00 64.50 C 95.00 47.17 94.66 33.00 94.25 33.00 C 93.84 33.00 93.54 40.20 93.60 49.00 C 93.65 57.80 93.31 65.00 92.85 65.00 C 92.38 65.00 92.00 58.25 92.00 50.00 C 92.00 41.75 91.66 35.00 91.25 35.00 C 90.84 35.00 90.63 48.72 90.78 65.50 C 91.05 95.09 91.12 96.00 93.03 96.00 C 94.95 96.00 95.00 95.18 95.00 64.50 Z M 92.03 92.50 C 92.03 91.40 92.47 89.83 93.00 89.00 C 93.80 87.76 93.97 87.84 93.97 89.50 C 93.97 90.60 93.53 92.17 93.00 93.00 C 92.20 94.24 92.03 94.16 92.03 92.50 Z M 55.07 88.39 C 66.46 85.01 73.93 78.90 79.33 68.55 C 82.18 63.07 82.48 61.65 82.48 53.50 C 82.48 45.74 82.11 43.74 79.77 38.96 C 75.56 30.38 70.79 25.50 62.67 21.49 C 43.42 11.97 22.29 18.57 11.38 37.50 C 8.68 42.18 8.50 43.20 8.50 53.50 C 8.50 63.81 8.68 64.81 11.37 69.37 C 17.34 79.54 23.71 84.84 33.84 88.08 C 40.95 90.36 48.08 90.46 55.07 88.39 Z M 92.03 86.00 C 92.03 84.62 92.47 82.83 93.00 82.00 C 93.77 80.81 93.97 81.02 93.97 83.00 C 93.97 84.38 93.53 86.17 93.00 87.00 C 92.23 88.19 92.03 87.98 92.03 86.00 Z M 32.82 82.08 C 17.23 75.98 9.19 58.54 14.91 43.24 C 17.64 35.93 24.54 28.61 32.00 25.09 C 39.27 21.67 51.05 21.49 58.18 24.71 C 78.66 33.96 83.56 59.79 67.74 75.14 C 61.37 81.32 54.53 84.01 45.31 83.95 C 40.21 83.92 35.88 83.27 32.82 82.08 Z M 92.16 76.00 C 92.16 71.16 92.28 70.83 93.16 73.25 C 93.83 75.09 93.83 76.91 93.16 78.75 C 92.28 81.17 92.16 80.84 92.16 76.00 Z M 94.58 27.25 C 93.49 26.16 93.08 27.58 93.77 30.04 L 94.46 32.50 L 94.81 30.16 C 95.00 28.88 94.90 27.57 94.58 27.25 Z M 91.89 20.81 C 92.01 15.21 92.34 10.26 92.62 9.81 C 92.89 9.37 92.30 8.99 91.31 8.98 C 89.84 8.97 89.77 8.80 90.93 8.06 C 91.99 7.39 91.46 7.04 88.93 6.74 C 85.71 6.35 85.76 6.31 89.73 6.16 L 93.96 6.00 L 93.65 13.00 C 93.48 16.85 93.72 20.00 94.17 20.00 C 95.58 20.00 95.17 5.27 93.75 4.77 C 93.06 4.53 85.97 4.47 78.00 4.64 C 70.03 4.81 50.11 4.96 33.75 4.98 L 4.00 5.00 L 4.00 7.60 L 4.00 10.21 L 46.93 9.58 C 87.42 9.00 89.88 9.06 90.40 10.73 C 90.70 11.70 90.75 16.66 90.52 21.75 C 90.28 26.84 90.44 31.00 90.87 31.00 C 91.31 31.00 91.76 26.42 91.89 20.81 Z M 94.59 21.26 C 93.50 20.16 92.75 21.90 93.53 23.71 C 94.27 25.42 94.33 25.42 94.74 23.67 C 94.98 22.67 94.91 21.58 94.59 21.26 Z M 7.25 7.31 C 8.21 7.06 9.79 7.06 10.75 7.31 C 11.71 7.56 10.93 7.77 9.00 7.77 C 7.08 7.77 6.29 7.56 7.25 7.31 Z M 13.81 7.32 C 14.53 7.03 15.40 7.06 15.73 7.40 C 16.06 7.73 15.47 7.96 14.42 7.92 C 13.25 7.87 13.01 7.64 13.81 7.32 Z M 17.22 7.46 C 18.14 6.52 78.21 5.85 77.63 6.79 C 77.39 7.18 63.53 7.66 46.85 7.85 C 30.16 8.04 16.82 7.86 17.22 7.46 Z" fill="none" stroke="rgba(255,255,255,0.92)" stroke-width="1.2" stroke-linejoin="round" fill-rule="evenodd"/>
</svg>
