<svg xmlns="http://www.w3.org/2000/svg" viewBox="0 0 400 285" width="400" height="285">
  <path d="M 0.00 142.50 L 0.00 0.00 L 200.00 0.00 L 400.00 0.00 L 400.00 142.50 L 400.00 285.00 L 200.00 285.00 L 0.00 285.00 L 0.00 142.50 Z M 228.00 278.49 C 339.61 277.80 392.30 277.02 393.31 276.06 C 393.75 275.63 394.07 252.16 394.01 223.89 C 393.95 195.63 393.87 144.99 393.83 111.37 C 393.80 77.75 393.38 49.63 392.90 48.87 C 392.32 47.95 392.03 48.71 392.02 51.19 C 392.01 53.22 391.54 55.16 390.98 55.51 C 390.42 55.86 390.30 56.67 390.70 57.32 C 391.61 58.78 392.09 81.77 391.34 88.31 C 390.28 97.61 389.60 91.74 389.36 71.33 C 389.23 59.99 388.76 50.36 388.31 49.91 C 387.86 49.46 387.57 68.91 387.67 93.11 C 387.79 125.87 387.53 137.23 386.67 137.51 C 385.37 137.93 320.38 138.91 289.75 138.97 C 278.62 138.98 270.00 139.40 270.00 139.91 C 270.00 141.02 281.37 141.84 281.83 140.76 C 282.30 139.69 285.77 139.81 286.46 140.93 C 287.47 142.56 285.04 143.22 276.39 143.65 L 267.96 144.07 L 267.84 141.28 C 267.78 139.75 267.55 109.87 267.35 74.88 C 267.01 18.54 267.15 11.12 268.51 9.99 C 270.62 8.24 271.41 9.36 269.98 12.04 L 268.79 14.26 L 327.90 13.60 L 387.00 12.95 L 387.12 15.22 C 387.18 16.48 387.14 23.69 387.02 31.25 C 386.88 39.88 387.17 45.00 387.80 45.00 C 388.35 45.00 388.78 42.64 388.76 39.75 C 388.73 36.86 388.98 30.47 389.31 25.54 C 389.69 19.77 389.52 16.13 388.83 15.29 C 388.06 14.37 388.07 14.00 388.88 14.00 C 389.49 14.00 390.00 13.56 390.00 13.03 C 390.00 12.50 389.32 12.32 388.50 12.64 C 387.68 12.95 387.00 12.75 387.00 12.18 C 387.00 11.61 387.79 10.94 388.75 10.69 C 389.71 10.44 388.25 10.13 385.50 10.01 L 380.50 9.78 L 385.00 8.89 C 387.48 8.40 390.02 8.20 390.66 8.44 C 391.47 8.74 391.74 11.85 391.55 18.44 C 391.40 23.70 391.63 28.00 392.05 28.00 C 393.04 28.00 393.66 16.91 393.00 11.00 L 392.50 6.50 L 370.50 6.64 C 328.82 6.89 9.97 6.99 8.74 6.75 C 6.97 6.39 6.54 156.74 8.31 158.88 C 9.23 160.00 9.23 160.42 8.29 160.73 C 7.36 161.05 7.07 174.62 7.04 219.06 C 7.02 250.92 6.95 277.33 6.88 277.74 C 6.82 278.16 6.82 278.85 6.88 279.27 C 6.95 279.70 37.26 279.82 74.25 279.54 C 111.24 279.26 180.42 278.79 228.00 278.49 Z M 22.17 277.15 C 21.25 276.55 22.01 276.10 24.62 275.67 C 28.12 275.11 29.92 275.42 28.91 276.42 C 27.89 277.45 23.38 277.94 22.17 277.15 Z M 47.00 277.00 C 40.29 276.65 38.38 276.29 40.50 275.80 C 42.15 275.41 47.10 275.26 51.50 275.46 C 55.90 275.66 62.36 275.44 65.85 274.97 C 69.51 274.48 73.20 274.50 74.56 275.02 C 75.97 275.56 77.16 275.56 77.49 275.02 C 77.81 274.50 79.36 274.58 81.17 275.21 C 83.46 276.01 84.78 275.99 86.13 275.15 C 88.09 273.93 114.13 274.34 116.21 275.63 C 116.82 276.00 117.04 275.88 116.72 275.36 C 115.97 274.15 126.88 273.83 128.97 275.00 C 130.33 275.77 130.33 275.93 128.98 276.45 C 127.03 277.20 59.47 277.66 47.00 277.00 Z M 137.13 277.26 C 131.45 276.94 130.96 276.75 132.63 275.53 C 133.66 274.78 134.19 273.86 133.83 273.49 C 133.46 273.12 105.90 272.88 72.59 272.95 L 12.04 273.07 L 12.64 270.04 C 13.22 267.15 12.57 266.44 9.75 266.88 C 9.34 266.95 9.01 265.09 9.02 262.75 C 9.03 259.98 9.33 258.97 9.89 259.86 C 10.37 260.61 10.53 262.07 10.26 263.11 C 9.99 264.15 10.26 265.00 10.86 265.00 C 12.63 265.00 13.40 259.91 12.15 256.58 C 11.39 254.57 11.34 253.39 11.99 253.17 C 12.64 252.95 13.00 239.93 13.00 216.29 C 13.00 185.84 12.78 179.94 11.66 180.87 C 9.44 182.71 9.00 181.10 9.10 171.58 C 9.19 163.78 9.35 162.96 10.25 165.75 C 11.93 171.00 12.91 169.51 12.77 161.93 C 12.65 155.62 12.44 154.91 10.82 155.34 C 9.70 155.63 9.00 155.27 9.00 154.41 C 9.00 153.63 10.01 152.97 11.25 152.93 C 13.40 152.86 13.41 152.82 11.50 152.00 C 10.40 151.53 9.99 151.11 10.58 151.07 C 11.17 151.03 11.62 149.99 11.58 148.75 L 11.50 146.50 L 73.00 146.53 C 106.83 146.54 164.14 146.65 200.38 146.76 C 236.61 146.87 266.76 146.63 267.38 146.23 C 267.99 145.83 275.93 145.45 285.00 145.40 C 294.07 145.34 320.54 145.14 343.81 144.94 C 377.19 144.66 386.29 144.85 386.91 145.85 C 387.34 146.54 387.78 175.10 387.90 209.31 L 388.11 271.50 L 326.64 271.50 C 285.78 271.50 265.46 271.84 266.00 272.50 C 266.78 273.44 267.00 274.13 267.00 275.62 C 267.00 275.96 267.67 275.69 268.49 275.01 C 269.42 274.24 271.01 274.05 272.74 274.50 C 281.71 276.86 265.87 277.28 179.66 276.98 C 149.60 276.87 146.00 276.66 146.00 274.97 C 146.00 274.31 209.64 273.65 251.25 273.88 C 257.36 273.92 261.00 273.55 261.00 272.90 C 261.00 272.18 242.21 272.04 201.06 272.44 C 154.71 272.89 140.96 272.74 140.38 271.81 C 139.97 271.14 139.75 266.08 139.90 260.55 C 140.05 255.02 139.95 250.72 139.69 251.00 C 139.42 251.28 139.01 256.60 138.77 262.84 C 138.45 271.08 137.94 274.45 136.91 275.17 C 135.48 276.17 137.12 275.95 142.91 274.35 C 144.60 273.88 145.10 274.03 144.60 274.84 C 144.20 275.48 144.39 276.00 145.00 276.00 C 145.61 276.00 145.84 276.45 145.50 277.00 C 145.16 277.55 144.57 277.91 144.19 277.81 C 143.81 277.70 140.63 277.45 137.13 277.26 Z M 9.00 272.44 C 9.00 269.76 9.40 268.13 9.97 268.48 C 10.50 268.81 10.68 270.36 10.37 271.92 C 9.88 274.37 10.19 274.91 12.65 275.80 L 15.50 276.84 L 12.25 276.92 C 9.05 277.00 9.00 276.93 9.00 272.44 Z M 30.75 276.34 C 31.44 276.06 32.56 276.06 33.25 276.34 C 33.94 276.62 33.38 276.84 32.00 276.84 C 30.62 276.84 30.06 276.62 30.75 276.34 Z M 277.00 275.62 C 277.00 274.75 281.97 274.36 283.19 275.14 C 284.02 275.67 283.14 275.97 280.75 275.98 C 278.69 275.99 277.00 275.83 277.00 275.62 Z M 287.50 275.00 C 287.84 274.45 289.10 274.01 290.31 274.02 C 292.09 274.03 292.22 274.21 291.00 275.00 C 289.03 276.27 286.71 276.27 287.50 275.00 Z M 293.75 275.29 C 294.99 275.06 297.01 275.06 298.25 275.29 C 299.49 275.53 298.48 275.73 296.00 275.73 C 293.52 275.73 292.51 275.53 293.75 275.29 Z M 309.50 274.43 C 315.75 272.69 315.67 272.69 316.36 274.50 C 316.84 275.74 315.86 275.98 310.72 275.91 L 304.50 275.82 L 309.50 274.43 Z M 322.42 275.14 C 322.71 274.66 324.80 274.27 327.06 274.27 C 329.70 274.27 330.70 274.58 329.84 275.12 C 328.08 276.24 321.73 276.25 322.42 275.14 Z M 335.63 273.97 C 336.31 273.29 337.48 273.27 339.08 273.91 C 341.35 274.81 341.29 274.88 338.05 274.94 C 335.68 274.98 334.92 274.68 335.63 273.97 Z M 348.11 274.56 C 348.87 273.80 357.92 273.59 358.65 274.31 C 359.02 274.69 356.71 275.00 353.50 275.00 C 350.29 275.00 347.87 274.80 348.11 274.56 Z M 371.25 274.31 C 372.21 274.06 373.79 274.06 374.75 274.31 C 375.71 274.56 374.93 274.77 373.00 274.77 C 371.07 274.77 370.29 274.56 371.25 274.31 Z M 380.00 274.00 C 380.00 273.45 380.70 273.00 381.56 273.00 C 382.42 273.00 382.84 273.45 382.50 274.00 C 382.16 274.55 381.46 275.00 380.94 275.00 C 380.42 275.00 380.00 274.55 380.00 274.00 Z M 388.00 274.09 C 388.00 273.60 388.90 273.42 390.00 273.71 C 391.10 274.00 392.00 274.41 392.00 274.62 C 392.00 274.83 391.10 275.00 390.00 275.00 C 388.90 275.00 388.00 274.59 388.00 274.09 Z M 362.81 273.32 C 363.53 273.03 364.40 273.06 364.73 273.40 C 365.06 273.73 364.47 273.96 363.42 273.92 C 362.25 273.87 362.01 273.64 362.81 273.32 Z M 135.52 254.25 C 135.10 233.49 136.02 213.13 137.09 219.50 C 137.46 221.70 138.11 225.03 138.53 226.91 C 139.10 229.39 139.00 230.12 138.16 229.60 C 137.40 229.13 137.00 229.74 137.00 231.38 C 137.00 232.76 137.49 234.18 138.09 234.55 C 138.87 235.04 138.87 235.53 138.09 236.31 C 136.55 237.85 136.74 239.00 138.53 239.00 C 139.83 239.00 140.02 237.04 139.84 225.56 C 139.64 213.11 139.50 212.20 137.88 213.07 C 136.26 213.93 136.10 213.11 135.81 202.75 C 135.45 189.71 135.84 184.00 137.11 184.00 C 137.60 184.00 138.00 184.68 138.00 185.50 C 138.00 186.32 138.45 187.00 139.00 187.00 C 140.28 187.00 140.26 186.35 138.91 183.83 C 138.12 182.35 138.12 181.48 138.91 180.69 C 139.51 180.09 140.00 178.51 140.00 177.18 C 140.00 175.26 139.59 174.87 138.00 175.29 C 136.09 175.79 136.00 175.32 136.00 164.97 C 136.00 158.81 135.57 153.85 135.00 153.50 C 134.34 153.09 134.00 171.95 134.00 209.32 C 134.00 258.82 134.33 272.00 135.56 272.00 C 135.73 272.00 135.71 264.01 135.52 254.25 Z M 262.38 268.25 C 261.44 264.32 261.00 264.19 261.00 267.83 C 261.00 269.57 261.46 271.00 262.02 271.00 C 262.62 271.00 262.77 269.88 262.38 268.25 Z M 391.08 268.42 C 391.13 267.25 391.36 267.01 391.68 267.81 C 391.97 268.53 391.94 269.40 391.60 269.73 C 391.27 270.06 391.04 269.47 391.08 268.42 Z M 161.00 262.88 C 177.54 256.56 190.62 247.30 194.53 239.12 C 195.62 236.87 196.80 235.02 197.18 235.01 C 197.55 235.01 198.99 237.48 200.38 240.51 C 203.76 247.91 210.06 255.18 215.40 257.84 C 220.20 260.24 230.75 261.92 241.32 261.97 C 247.34 262.00 248.08 261.80 247.64 260.25 C 247.37 259.29 246.84 256.93 246.47 255.00 C 245.31 248.96 241.90 238.76 238.79 232.00 C 234.35 222.33 228.76 215.45 222.45 211.89 C 219.45 210.19 217.00 208.68 217.00 208.52 C 217.00 208.36 219.41 207.06 222.35 205.62 C 228.40 202.66 235.94 195.54 239.65 189.29 C 242.64 184.25 243.63 174.75 242.54 161.66 C 241.73 151.92 241.72 151.91 234.00 154.59 C 219.07 159.76 200.55 173.07 197.83 180.58 C 197.15 182.46 196.13 183.99 195.55 183.98 C 194.97 183.97 193.41 181.45 192.08 178.38 C 188.99 171.25 179.59 161.55 174.30 160.04 C 167.78 158.17 154.74 156.85 149.73 157.54 C 145.91 158.06 145.02 158.54 145.39 159.85 C 145.65 160.76 146.81 165.32 147.98 170.00 C 152.80 189.25 161.84 203.76 171.78 208.21 L 176.05 210.12 L 169.94 213.27 C 163.17 216.76 154.44 225.44 151.53 231.58 C 149.29 236.30 148.51 245.99 149.46 257.40 C 149.97 263.51 150.56 266.00 151.50 266.00 C 152.23 266.00 156.50 264.60 161.00 262.88 Z M 266.88 211.39 C 266.84 175.63 266.51 160.09 265.78 160.82 C 265.14 161.46 264.75 168.66 264.75 179.68 C 264.75 191.71 264.47 196.36 263.89 194.00 C 262.73 189.30 262.17 181.62 262.08 169.08 C 262.03 163.35 261.73 158.94 261.39 159.27 C 261.06 159.61 260.80 162.27 260.82 165.19 C 260.84 168.11 260.89 178.26 260.93 187.75 C 260.97 198.54 261.37 205.00 262.00 205.00 C 262.55 205.00 263.05 203.09 263.11 200.75 L 263.21 196.50 L 264.18 200.83 C 265.38 206.19 264.66 208.79 262.49 206.99 C 261.18 205.90 261.00 209.04 261.00 233.38 C 261.00 252.62 261.33 261.00 262.09 261.00 C 262.79 261.00 263.11 258.43 262.98 253.75 C 262.66 241.85 262.95 235.85 263.82 236.39 C 264.27 236.67 264.77 239.96 264.93 243.70 C 265.09 247.44 265.32 251.85 265.44 253.50 C 265.55 255.15 265.73 257.96 265.83 259.75 C 265.92 261.54 266.21 263.00 266.46 263.00 C 266.72 263.00 266.90 239.77 266.88 211.39 Z M 389.64 260.50 C 389.95 259.68 390.39 259.00 390.61 259.00 C 390.82 259.00 391.00 259.68 391.00 260.50 C 391.00 261.32 390.56 262.00 390.03 262.00 C 389.50 262.00 389.32 261.32 389.64 260.50 Z M 156.54 252.26 C 155.09 243.65 157.39 234.24 162.41 228.29 C 167.58 222.16 182.34 215.00 189.83 215.00 C 192.28 215.00 192.28 215.03 191.62 222.25 C 190.32 236.52 183.90 244.13 166.00 252.65 C 157.74 256.58 157.27 256.56 156.54 252.26 Z M 227.00 253.30 C 216.76 251.54 211.71 247.56 206.91 237.50 C 204.64 232.75 200.36 215.15 201.29 214.42 C 201.41 214.33 204.59 214.64 208.37 215.10 C 212.72 215.64 216.86 216.90 219.65 218.54 C 226.46 222.53 232.80 233.34 237.34 248.75 L 238.89 254.00 L 234.20 253.86 C 231.61 253.79 228.38 253.53 227.00 253.30 Z M 139.98 244.75 C 139.98 242.38 139.63 241.03 139.20 241.71 C 138.78 242.38 138.52 244.18 138.63 245.71 C 138.88 249.04 138.87 249.00 139.50 249.00 C 139.78 249.00 139.99 247.09 139.98 244.75 Z M 391.16 246.00 C 391.16 244.62 391.38 244.06 391.66 244.75 C 391.94 245.44 391.94 246.56 391.66 247.25 C 391.38 247.94 391.16 247.38 391.16 246.00 Z M 10.00 245.00 C 10.00 244.45 10.45 244.00 11.00 244.00 C 11.55 244.00 12.00 244.45 12.00 245.00 C 12.00 245.55 11.55 246.00 11.00 246.00 C 10.45 246.00 10.00 245.55 10.00 245.00 Z M 389.92 207.75 C 389.87 188.91 389.76 172.38 389.67 171.00 C 389.58 169.62 389.95 168.28 390.50 168.00 C 391.16 167.67 391.59 180.33 391.75 204.75 C 391.92 229.14 391.66 242.00 391.00 242.00 C 390.35 242.00 389.97 229.91 389.92 207.75 Z M 9.08 239.42 C 9.13 238.25 9.36 238.01 9.68 238.81 C 9.97 239.53 9.94 240.40 9.60 240.73 C 9.27 241.06 9.04 240.47 9.08 239.42 Z M 9.67 234.33 C 9.30 233.97 9.00 232.28 9.01 230.58 L 9.01 227.50 L 10.51 230.36 C 11.33 231.94 12.00 233.63 12.00 234.11 C 12.00 235.16 10.62 235.29 9.67 234.33 Z M 263.61 231.42 C 262.89 229.55 262.78 208.44 263.49 209.15 C 264.08 209.75 265.18 233.00 264.62 233.00 C 264.40 233.00 263.94 232.29 263.61 231.42 Z M 9.75 224.43 C 9.34 224.01 9.00 222.53 9.00 221.13 C 9.00 219.31 9.31 218.91 10.08 219.68 C 10.68 220.28 11.02 221.76 10.83 222.98 C 10.65 224.20 10.16 224.85 9.75 224.43 Z M 9.38 213.56 C 9.08 212.77 9.31 211.31 9.89 210.31 C 10.78 208.77 10.94 208.99 10.97 211.75 C 11.00 215.18 10.31 215.97 9.38 213.56 Z M 139.54 203.37 C 138.55 198.09 136.61 199.17 137.36 204.58 C 137.70 207.10 138.32 209.69 138.74 210.33 C 139.81 211.98 140.32 207.52 139.54 203.37 Z M 9.00 202.94 C 9.00 201.81 9.45 201.16 10.00 201.50 C 10.55 201.84 11.00 202.77 11.00 203.56 C 11.00 204.35 10.55 205.00 10.00 205.00 C 9.45 205.00 9.00 204.07 9.00 202.94 Z M 180.64 203.42 C 173.69 201.73 167.98 197.53 164.45 191.50 C 161.70 186.80 155.69 172.26 154.58 167.60 L 153.89 164.70 L 160.69 165.31 C 174.86 166.59 179.98 169.95 185.60 181.65 C 188.85 188.40 192.36 202.32 191.30 204.25 C 190.71 205.31 187.41 205.05 180.64 203.42 Z M 201.00 199.67 C 201.00 196.61 201.66 191.49 202.47 188.30 C 203.74 183.26 204.74 181.76 210.07 176.86 C 215.81 171.59 230.80 163.00 234.26 163.00 C 236.51 163.00 235.49 181.13 232.96 186.07 C 229.18 193.49 215.32 202.39 204.02 204.65 L 201.00 205.25 L 201.00 199.67 Z M 139.74 193.59 C 139.55 189.22 139.24 188.38 138.17 189.27 C 137.27 190.02 137.06 191.50 137.51 193.93 C 138.84 200.97 140.05 200.78 139.74 193.59 Z M 9.00 189.49 C 9.00 187.01 9.40 185.97 10.25 186.25 C 12.16 186.88 12.33 189.81 10.57 191.57 C 9.14 193.00 9.00 192.81 9.00 189.49 Z M 136.19 179.50 C 136.22 177.85 136.44 177.30 136.69 178.27 C 136.95 179.24 136.93 180.59 136.66 181.27 C 136.38 181.95 136.17 181.15 136.19 179.50 Z M 13.00 174.50 C 13.00 170.24 10.42 170.24 10.30 174.50 C 10.24 176.59 10.68 177.67 11.60 177.67 C 12.50 177.67 13.00 176.54 13.00 174.50 Z M 139.69 162.94 C 139.81 157.60 139.47 153.79 138.84 153.40 C 138.15 152.97 138.24 152.47 139.11 151.93 C 141.35 150.55 139.30 149.73 136.31 150.82 C 134.67 151.42 134.21 151.87 135.20 151.92 C 137.11 152.01 138.21 156.26 137.83 162.00 C 137.45 167.70 137.94 173.39 138.75 172.58 C 139.16 172.17 139.59 167.83 139.69 162.94 Z M 267.00 154.50 C 267.00 151.74 266.55 150.00 265.83 150.00 C 265.19 150.00 264.94 150.27 265.27 150.60 C 265.60 150.93 265.50 152.20 265.04 153.41 C 264.30 155.35 265.28 159.00 266.55 159.00 C 266.80 159.00 267.00 156.97 267.00 154.50 Z M 263.00 155.88 C 263.00 155.33 262.55 155.16 262.00 155.50 C 261.45 155.84 261.00 156.57 261.00 157.12 C 261.00 157.67 261.45 157.84 262.00 157.50 C 262.55 157.16 263.00 156.43 263.00 155.88 Z M 390.27 154.00 C 390.27 151.53 390.47 150.51 390.71 151.75 C 390.94 152.99 390.94 155.01 390.71 156.25 C 390.47 157.49 390.27 156.47 390.27 154.00 Z M 261.98 153.25 C 261.98 152.84 261.53 151.82 261.00 151.00 C 260.22 149.79 260.03 149.93 260.02 151.75 C 260.01 152.99 260.45 154.00 261.00 154.00 C 261.55 154.00 261.99 153.66 261.98 153.25 Z M 135.73 149.40 C 135.40 149.06 134.53 149.03 133.81 149.32 C 133.01 149.64 133.25 149.87 134.42 149.92 C 135.47 149.96 136.06 149.73 135.73 149.40 Z M 9.05 145.50 C 9.02 141.62 10.04 141.33 21.91 141.93 C 30.69 142.37 33.00 142.76 31.91 143.64 C 30.86 144.49 29.12 144.50 25.08 143.66 C 21.40 142.90 19.55 142.86 19.31 143.56 C 19.12 144.13 17.38 144.41 15.43 144.18 C 12.81 143.88 11.52 144.25 10.48 145.63 C 9.11 147.44 9.06 147.44 9.05 145.50 Z M 389.00 143.47 C 389.00 142.11 389.45 141.00 390.00 141.00 C 390.55 141.00 391.00 141.19 391.00 141.42 C 391.00 141.65 391.25 142.49 391.56 143.29 C 391.86 144.09 391.41 145.01 390.56 145.34 C 389.41 145.78 389.00 145.29 389.00 143.47 Z M 96.79 144.45 C 96.48 144.14 86.93 143.84 75.56 143.77 C 64.20 143.71 54.67 143.28 54.39 142.83 C 54.11 142.37 66.40 141.97 81.69 141.94 C 96.99 141.90 114.79 141.70 121.25 141.50 C 132.21 141.16 133.00 141.26 133.00 143.01 C 133.00 144.52 132.34 144.84 129.56 144.67 C 127.66 144.54 125.79 144.12 125.40 143.73 C 125.01 143.34 124.08 143.52 123.35 144.13 C 122.36 144.94 120.77 144.93 117.35 144.07 C 114.78 143.42 112.42 143.25 112.09 143.70 C 111.41 144.62 97.63 145.30 96.79 144.45 Z M 386.83 144.00 C 386.40 142.70 382.23 142.53 356.05 142.75 C 330.87 142.95 325.95 142.77 326.87 141.66 C 328.12 140.15 340.00 139.65 340.00 141.10 C 340.00 141.60 340.90 142.00 342.00 142.00 C 343.10 142.00 344.00 141.55 344.00 141.00 C 344.00 139.56 346.74 139.77 347.34 141.25 C 347.74 142.25 347.86 142.25 347.92 141.25 C 347.98 140.30 352.62 140.00 367.53 140.00 C 387.78 140.00 389.08 140.27 387.76 144.22 C 387.45 145.16 387.20 145.11 386.83 144.00 Z M 35.00 143.00 C 35.00 142.42 38.33 142.00 43.00 142.00 C 47.67 142.00 51.00 142.42 51.00 143.00 C 51.00 143.58 47.67 144.00 43.00 144.00 C 38.33 144.00 35.00 143.58 35.00 143.00 Z M 288.50 143.00 C 286.12 141.98 286.27 141.90 291.75 141.50 C 296.26 141.17 297.53 142.36 293.75 143.37 C 291.06 144.09 291.03 144.09 288.50 143.00 Z M 299.00 142.11 C 299.82 141.65 302.11 141.03 304.08 140.73 C 306.76 140.32 307.67 140.54 307.67 141.59 C 307.67 142.62 306.31 142.99 302.58 142.97 C 299.32 142.95 298.04 142.64 299.00 142.11 Z M 309.00 142.00 C 309.00 141.45 310.91 140.99 313.25 140.99 C 315.59 140.98 318.62 140.70 320.00 140.36 C 322.44 139.77 322.45 139.79 320.50 141.34 C 318.29 143.10 309.00 143.64 309.00 142.00 Z M 9.50 137.55 C 8.95 135.56 9.06 134.48 9.84 134.22 C 10.48 134.01 11.00 133.20 11.00 132.42 C 11.00 131.64 11.37 131.00 11.82 131.00 C 12.27 131.00 12.60 118.32 12.57 102.83 C 12.51 79.61 12.25 74.58 11.10 74.20 C 10.03 73.84 9.84 74.43 10.28 76.66 C 10.61 78.28 10.52 80.17 10.08 80.86 C 9.63 81.60 9.02 79.11 8.64 74.99 C 8.27 71.07 8.26 67.39 8.62 66.81 C 8.97 66.24 9.18 59.26 9.08 51.30 C 8.97 42.10 9.26 37.05 9.89 37.43 C 11.63 38.51 12.17 36.03 10.54 34.40 C 9.26 33.12 8.99 30.58 9.11 20.91 L 9.25 9.00 L 23.88 9.17 C 31.92 9.26 36.70 9.55 34.50 9.81 C 30.89 10.23 30.74 10.35 33.00 11.04 C 34.74 11.57 33.54 11.81 29.00 11.83 C 24.77 11.85 23.20 11.58 24.50 11.06 C 25.75 10.56 23.42 10.24 18.25 10.21 C 11.29 10.17 10.00 10.41 10.00 11.78 C 10.00 13.04 10.27 13.13 11.20 12.20 C 11.86 11.54 13.10 11.01 13.95 11.02 C 15.20 11.03 15.24 11.20 14.14 11.89 C 13.24 12.46 13.14 12.97 13.85 13.41 C 14.43 13.77 41.01 13.93 72.91 13.78 L 130.91 13.50 L 130.35 11.25 C 129.94 9.63 130.22 9.00 131.36 9.00 C 132.79 9.00 132.95 15.46 132.98 74.25 L 133.03 139.50 L 73.01 139.64 L 13.00 139.79 L 13.00 137.19 C 13.00 134.32 11.48 135.21 10.76 138.50 C 10.39 140.16 10.18 140.00 9.50 137.55 Z M 141.41 138.85 C 141.13 138.41 140.76 110.35 140.58 76.51 L 140.25 14.98 L 199.88 15.24 L 259.50 15.50 L 259.69 77.25 L 259.87 139.00 L 236.19 139.10 C 223.16 139.16 196.62 139.31 177.21 139.44 C 157.79 139.56 141.69 139.30 141.41 138.85 Z M 389.90 132.50 C 389.62 131.40 389.69 129.15 390.04 127.50 C 390.58 124.99 390.81 124.80 391.47 126.31 C 391.90 127.30 391.84 129.55 391.33 131.31 C 390.56 133.95 390.31 134.15 389.90 132.50 Z M 82.57 127.92 C 100.66 124.63 115.81 110.15 121.37 90.85 C 123.21 84.45 123.49 70.85 121.92 64.03 C 116.93 42.35 94.88 24.00 73.84 24.00 C 55.44 24.00 37.33 35.47 28.92 52.44 C 23.52 63.33 22.09 72.46 23.86 84.71 C 25.48 95.91 29.54 104.16 37.87 113.17 C 49.69 125.95 65.22 131.08 82.57 127.92 Z M 9.00 124.33 C 9.00 120.01 9.84 120.31 10.37 124.83 C 10.57 126.58 10.35 128.00 9.87 128.00 C 9.39 128.00 9.00 126.35 9.00 124.33 Z M 337.20 126.87 C 350.92 123.96 364.39 113.47 371.16 100.44 C 376.07 90.96 377.35 84.74 376.78 73.13 C 376.38 65.21 375.73 62.17 373.11 56.00 C 369.10 46.56 363.07 38.77 356.00 33.87 C 335.45 19.64 311.52 21.29 293.46 38.19 C 276.29 54.25 271.93 79.50 282.73 100.25 C 293.61 121.15 314.99 131.59 337.20 126.87 Z M 389.43 120.38 C 390.54 115.90 392.20 114.89 391.82 118.92 C 391.64 120.81 390.87 122.55 390.11 122.80 C 389.04 123.16 388.88 122.60 389.43 120.38 Z M 60.97 119.56 C 47.33 114.53 38.86 106.45 33.99 93.82 C 29.02 80.93 30.06 65.21 36.64 54.00 C 44.79 40.10 55.95 32.96 70.76 32.18 C 80.57 31.67 86.35 33.01 94.00 37.58 C 114.41 49.80 121.63 74.65 111.22 96.89 C 108.30 103.11 98.51 113.65 92.99 116.50 C 84.57 120.86 68.63 122.38 60.97 119.56 Z M 313.50 118.18 C 305.65 115.26 302.86 113.55 297.48 108.35 C 287.70 98.92 283.42 87.59 284.29 73.50 C 285.20 58.74 291.88 47.08 304.21 38.71 C 311.75 33.59 319.34 31.68 330.02 32.19 C 337.49 32.54 339.67 33.09 345.37 36.01 C 365.12 46.14 374.87 69.49 367.65 89.38 C 362.98 102.24 356.53 109.75 344.70 116.10 C 339.04 119.14 337.62 119.46 328.50 119.73 C 320.65 119.97 317.42 119.64 313.50 118.18 Z M 9.07 116.31 C 9.03 115.10 9.45 113.84 10.00 113.50 C 11.18 112.77 11.18 113.75 10.00 116.50 C 9.17 118.43 9.14 118.42 9.07 116.31 Z M 389.80 115.49 C 388.93 114.08 389.12 102.04 390.03 101.48 C 391.20 100.76 392.04 109.10 391.18 112.99 C 390.76 114.92 390.14 116.04 389.80 115.49 Z M 9.08 106.55 C 9.02 103.65 9.30 102.90 10.11 103.71 C 10.90 104.50 10.92 105.65 10.19 107.66 C 9.17 110.47 9.16 110.46 9.08 106.55 Z M 8.82 95.42 C 8.60 92.71 8.72 88.92 9.10 87.00 C 9.86 83.01 10.19 84.16 10.52 92.00 C 10.83 99.14 9.37 102.07 8.82 95.42 Z M 390.09 98.61 C 389.38 97.76 389.28 96.94 389.85 96.59 C 390.37 96.27 391.07 96.75 391.42 97.65 C 392.27 99.86 391.56 100.38 390.09 98.61 Z M 12.60 67.53 C 12.24 66.09 11.50 65.19 10.97 65.52 C 9.86 66.20 9.66 70.32 10.68 71.35 C 11.99 72.65 13.25 70.13 12.60 67.53 Z M 12.74 55.03 C 12.44 47.32 11.68 43.54 10.75 45.08 C 10.01 46.32 11.29 64.00 12.12 64.00 C 12.72 64.00 12.96 60.46 12.74 55.03 Z M 392.58 39.24 C 391.49 38.16 391.18 39.50 391.82 42.50 L 392.47 45.50 L 392.81 42.66 C 393.00 41.10 392.89 39.56 392.58 39.24 Z M 12.98 39.75 C 12.97 37.28 12.74 36.86 12.00 38.00 C 10.73 39.97 10.73 43.00 12.00 43.00 C 12.55 43.00 12.99 41.54 12.98 39.75 Z M 393.00 33.00 C 393.00 31.35 392.55 30.00 392.00 30.00 C 390.89 30.00 390.62 34.29 391.67 35.33 C 392.80 36.46 393.00 36.11 393.00 33.00 Z M 12.15 26.96 C 11.33 24.85 11.10 24.74 10.50 26.22 C 10.12 27.17 10.41 29.33 11.15 31.03 C 12.42 33.93 12.52 33.97 12.80 31.77 C 12.96 30.48 12.67 28.32 12.15 26.96 Z M 13.00 20.81 C 13.00 18.17 10.59 19.04 10.18 21.82 C 9.94 23.44 10.26 23.84 11.43 23.39 C 12.29 23.06 13.00 21.90 13.00 20.81 Z M 12.50 16.00 C 12.84 15.45 12.64 15.00 12.06 15.00 C 11.48 15.00 11.00 15.45 11.00 16.00 C 11.00 16.55 11.20 17.00 11.44 17.00 C 11.68 17.00 12.16 16.55 12.50 16.00 Z M 39.76 11.34 C 40.45 11.06 40.76 10.42 40.45 9.91 C 40.14 9.41 40.61 9.00 41.50 9.00 C 42.39 9.00 42.86 9.41 42.55 9.91 C 42.24 10.42 42.55 11.06 43.24 11.34 C 43.93 11.61 43.15 11.84 41.50 11.84 C 39.85 11.84 39.07 11.61 39.76 11.34 Z M 49.75 11.29 C 50.99 11.06 53.01 11.06 54.25 11.29 C 55.49 11.53 54.48 11.73 52.00 11.73 C 49.52 11.73 48.51 11.53 49.75 11.29 Z M 57.68 11.34 C 57.32 10.98 55.33 10.36 53.26 9.96 C 50.72 9.47 53.34 9.19 61.37 9.11 C 71.82 9.01 73.10 9.18 72.00 10.50 C 70.73 12.03 59.06 12.72 57.68 11.34 Z M 75.64 10.50 C 76.02 9.50 77.43 9.05 79.86 9.16 L 83.50 9.32 L 80.00 9.82 L 76.50 10.32 L 79.50 11.04 C 82.47 11.76 82.47 11.76 78.78 11.88 C 75.86 11.97 75.19 11.68 75.64 10.50 Z M 98.25 11.31 C 99.21 11.06 100.79 11.06 101.75 11.31 C 102.71 11.56 101.92 11.77 100.00 11.77 C 98.08 11.77 97.29 11.56 98.25 11.31 Z M 121.64 10.50 C 121.95 9.68 123.12 9.00 124.23 9.00 C 125.91 9.00 126.04 9.25 125.00 10.50 C 124.32 11.32 123.15 12.00 122.41 12.00 C 121.62 12.00 121.30 11.38 121.64 10.50 Z M 275.00 11.00 C 275.00 9.83 275.77 9.83 278.50 11.00 C 280.27 11.76 280.19 11.87 277.75 11.93 C 276.24 11.97 275.00 11.55 275.00 11.00 Z M 285.64 10.50 C 285.95 9.68 286.95 9.01 287.86 9.02 C 289.17 9.03 289.22 9.21 288.14 9.89 C 286.99 10.62 286.99 10.84 288.14 11.30 C 288.93 11.62 288.57 11.88 287.28 11.92 C 285.70 11.98 285.23 11.57 285.64 10.50 Z M 293.76 11.34 C 294.45 11.06 294.76 10.42 294.45 9.91 C 294.12 9.38 299.07 9.00 306.36 9.00 C 315.36 9.00 319.00 9.35 319.42 10.25 C 319.86 11.20 320.13 11.22 320.57 10.30 C 320.98 9.42 327.75 9.09 346.12 9.04 C 367.76 8.98 370.93 9.16 369.80 10.40 C 369.01 11.28 368.13 11.48 367.55 10.92 C 366.19 9.60 350.00 9.74 350.00 11.06 C 350.00 12.23 330.80 11.84 325.50 10.56 C 323.25 10.02 322.87 10.11 324.00 10.91 C 325.12 11.70 323.72 11.97 318.50 11.97 C 313.62 11.97 311.95 11.68 313.00 11.00 C 314.18 10.24 313.92 10.03 311.83 10.02 C 310.37 10.01 308.94 10.56 308.66 11.25 C 308.26 12.25 308.14 12.25 308.08 11.25 C 308.04 10.56 307.52 10.00 306.94 10.00 C 306.36 10.00 306.16 10.45 306.50 11.00 C 306.89 11.63 304.45 11.97 299.81 11.92 C 295.79 11.88 293.07 11.61 293.76 11.34 Z M 60.73 10.40 C 60.40 10.06 59.53 10.03 58.81 10.32 C 58.01 10.64 58.25 10.87 59.42 10.92 C 60.47 10.96 61.06 10.73 60.73 10.40 Z M 86.50 10.00 C 86.16 9.45 86.61 9.00 87.50 9.00 C 88.39 9.00 88.84 9.45 88.50 10.00 C 88.16 10.55 87.71 11.00 87.50 11.00 C 87.29 11.00 86.84 10.55 86.50 10.00 Z M 127.00 9.94 C 127.00 9.36 127.45 9.16 128.00 9.50 C 128.55 9.84 129.00 10.32 129.00 10.56 C 129.00 10.80 128.55 11.00 128.00 11.00 C 127.45 11.00 127.00 10.52 127.00 9.94 Z M 278.50 10.00 C 276.57 9.17 276.58 9.14 278.69 9.07 C 279.90 9.03 281.16 9.45 281.50 10.00 C 282.23 11.18 281.25 11.18 278.50 10.00 Z M 337.25 10.29 C 336.01 10.06 333.99 10.06 332.75 10.29 C 331.51 10.53 332.52 10.73 335.00 10.73 C 337.48 10.73 338.49 10.53 337.25 10.29 Z M 347.76 10.31 C 346.81 10.06 345.01 10.05 343.76 10.29 C 342.52 10.53 343.30 10.74 345.50 10.75 C 347.70 10.76 348.72 10.56 347.76 10.31 Z M 95.25 9.31 C 96.21 9.06 97.79 9.06 98.75 9.31 C 99.71 9.56 98.92 9.77 97.00 9.77 C 95.08 9.77 94.29 9.56 95.25 9.31 Z M 108.77 9.28 C 110.57 9.05 113.27 9.06 114.77 9.29 C 116.27 9.51 114.80 9.70 111.50 9.69 C 108.20 9.68 106.97 9.50 108.77 9.28 Z" fill="none" stroke="rgba(255,255,255,0.92)" stroke-width="1.5" stroke-linejoin="round" fill-rule="evenodd"/>
</svg>
