<svg xmlns="http://www.w3.org/2000/svg" viewBox="0 0 377 400" width="377" height="400">
  <path d="M 0.00 200.00 L 0.00 0.00 L 188.50 0.00 L 377.00 0.00 L 377.00 200.00 L 377.00 400.00 L 188.50 400.00 L 0.00 400.00 L 0.00 200.00 Z M 127.50 391.48 C 161.05 391.18 194.80 390.73 202.50 390.50 C 210.20 390.26 238.55 389.78 265.50 389.43 C 292.45 389.08 326.85 388.50 341.94 388.15 L 369.39 387.50 L 369.33 381.00 C 369.26 373.62 369.02 251.76 368.80 112.00 C 368.72 60.03 368.60 15.48 368.54 13.00 L 368.42 8.50 L 335.96 8.60 C 318.11 8.65 263.90 9.22 215.50 9.85 C 110.20 11.24 53.10 11.92 27.75 12.10 L 9.00 12.24 L 8.93 49.37 C 8.84 98.69 8.94 102.77 10.26 105.67 C 11.11 107.55 11.10 108.32 10.18 108.89 C 9.27 109.45 9.04 118.85 9.24 147.73 C 9.47 181.69 9.85 188.48 11.44 186.89 C 12.02 186.31 12.25 169.31 11.79 161.00 C 11.59 157.43 11.81 151.82 12.27 148.54 C 12.86 144.35 12.75 141.91 11.91 140.33 C 11.09 138.80 10.94 136.09 11.45 131.79 C 11.85 128.33 12.33 122.93 12.50 119.78 C 12.85 113.65 14.64 107.00 15.96 107.00 C 16.92 107.00 16.79 30.46 15.83 29.49 C 14.90 28.57 14.15 35.92 14.21 45.29 C 14.23 49.57 13.97 53.36 13.63 53.70 C 13.28 54.05 13.00 53.72 13.00 52.98 C 13.00 52.23 12.89 45.33 12.75 37.65 C 12.57 27.66 12.83 23.56 13.67 23.28 C 14.32 23.06 15.04 23.92 15.29 25.19 C 15.68 27.27 15.74 27.23 15.86 24.79 C 15.94 23.29 16.79 21.68 17.75 21.21 C 18.71 20.73 56.23 20.25 101.13 20.14 C 176.49 19.95 182.81 20.06 183.40 21.60 C 183.75 22.52 184.01 63.67 183.98 113.05 L 183.92 202.83 L 167.96 202.95 C 158.77 203.01 152.00 202.67 152.00 202.14 C 152.00 201.63 155.86 201.16 160.58 201.09 C 165.53 201.02 170.28 200.40 171.83 199.63 C 173.36 198.85 176.15 198.49 178.39 198.77 C 180.81 199.07 182.04 198.88 181.66 198.26 C 180.92 197.06 81.10 196.75 70.00 197.92 C 65.88 198.35 63.32 198.77 64.33 198.85 C 65.34 198.93 65.98 199.56 65.76 200.25 C 65.51 201.00 62.77 201.71 58.92 202.03 C 54.59 202.38 53.31 202.74 55.00 203.14 C 56.66 203.53 55.75 203.77 52.31 203.86 C 49.45 203.94 46.84 203.55 46.50 203.00 C 46.16 202.45 44.98 202.00 43.88 202.00 C 42.78 202.00 42.12 202.39 42.42 202.86 C 42.71 203.34 39.47 203.81 35.23 203.91 C 30.98 204.01 26.44 204.35 25.14 204.68 C 23.67 205.05 22.45 204.75 21.89 203.89 C 21.14 202.72 20.85 202.73 20.05 203.99 C 19.37 205.04 19.56 205.73 20.70 206.37 C 21.63 206.89 40.45 207.00 65.40 206.64 C 89.11 206.29 125.60 206.02 146.50 206.04 C 209.69 206.11 249.36 205.89 250.03 205.48 C 250.50 205.19 356.50 204.70 365.25 204.95 C 367.49 205.01 367.50 207.36 365.26 209.60 C 364.01 210.85 363.87 211.46 364.76 211.75 C 365.44 211.98 365.96 213.59 365.92 215.33 C 365.88 217.07 365.61 217.93 365.34 217.24 C 365.06 216.55 364.42 216.24 363.91 216.55 C 363.41 216.86 363.00 215.29 363.00 213.06 C 363.00 210.83 363.48 209.00 364.06 209.00 C 364.64 209.00 364.84 208.55 364.50 208.00 C 364.16 207.45 363.03 207.00 361.99 207.00 C 360.16 207.00 360.11 209.31 360.24 292.48 C 360.32 339.49 360.08 378.25 359.73 378.61 C 359.37 378.96 354.67 379.17 349.29 379.07 C 333.69 378.77 291.00 380.22 291.00 381.05 C 291.00 381.46 306.00 381.84 324.34 381.87 C 342.68 381.91 358.32 382.18 359.09 382.46 C 359.87 382.75 361.85 382.87 363.50 382.74 C 365.61 382.57 366.50 382.95 366.50 384.00 C 366.50 384.98 365.63 385.44 364.00 385.34 C 360.29 385.10 354.99 385.14 340.00 385.51 C 332.57 385.70 309.40 385.96 288.50 386.09 C 267.60 386.22 249.54 386.67 248.38 387.09 C 247.13 387.54 245.80 387.40 245.14 386.74 C 244.32 385.92 242.24 385.98 237.31 386.96 C 232.33 387.95 230.50 388.00 230.22 387.15 C 230.01 386.52 228.63 386.04 227.17 386.10 L 224.50 386.20 L 227.00 387.00 C 228.49 387.48 223.05 387.84 213.45 387.90 C 203.39 387.96 197.01 387.61 196.34 386.94 C 194.92 385.52 186.00 384.69 186.00 385.99 C 186.00 386.55 186.87 387.00 187.94 387.00 C 189.01 387.00 190.15 387.43 190.48 387.96 C 190.85 388.57 181.80 388.92 166.04 388.91 C 150.31 388.90 141.00 388.53 141.00 387.91 C 141.00 387.28 140.37 387.27 139.24 387.87 C 137.18 388.98 120.36 388.70 117.65 387.52 C 116.52 387.02 115.53 387.15 115.10 387.83 C 114.60 388.65 112.73 388.69 108.45 387.99 C 100.75 386.73 96.72 386.73 97.50 388.00 C 97.90 388.64 94.68 389.00 88.56 389.00 C 82.85 389.00 79.00 388.60 79.00 388.00 C 79.00 387.38 73.65 387.00 64.94 387.00 C 55.82 387.00 51.10 387.35 51.50 388.00 C 51.85 388.57 50.99 389.00 49.50 389.00 C 48.01 389.00 47.15 388.57 47.50 388.00 C 47.86 387.42 46.93 387.01 45.31 387.02 C 43.08 387.03 42.81 387.24 44.00 388.05 C 45.11 388.81 44.31 389.02 40.96 388.85 C 38.46 388.72 35.99 388.86 35.46 389.15 C 34.66 389.59 30.19 389.57 15.75 389.06 C 13.67 388.99 13.24 383.47 15.25 382.66 C 15.95 382.38 15.67 382.12 14.61 382.08 C 12.92 382.01 12.79 381.44 13.35 376.75 C 13.70 373.86 13.99 366.77 14.01 361.00 C 14.02 353.67 14.33 350.95 15.03 352.00 C 15.58 352.83 15.95 358.81 15.86 365.30 C 15.75 373.09 16.08 377.48 16.85 378.25 C 18.31 379.71 18.20 387.15 18.01 294.99 C 17.92 252.35 17.49 215.90 17.07 213.99 C 16.59 211.83 16.25 217.32 16.19 228.37 C 16.14 238.19 15.83 246.51 15.50 246.84 C 13.48 248.85 11.00 232.61 12.82 229.35 C 13.52 228.11 13.48 226.92 12.69 225.53 C 11.43 223.29 11.06 211.00 12.25 211.00 C 13.43 211.00 13.13 206.20 11.90 205.44 C 11.26 205.04 11.05 203.51 11.39 201.78 C 12.08 198.36 11.12 191.00 9.99 191.00 C 9.57 191.00 9.49 219.24 9.82 253.75 C 10.14 288.26 10.42 333.47 10.45 354.21 L 10.50 391.91 L 13.50 392.28 C 15.15 392.48 27.75 392.51 41.50 392.34 C 55.25 392.17 93.95 391.79 127.50 391.48 Z M 71.75 388.34 C 72.44 388.06 73.56 388.06 74.25 388.34 C 74.94 388.62 74.38 388.84 73.00 388.84 C 71.62 388.84 71.06 388.62 71.75 388.34 Z M 23.14 386.75 C 24.84 385.75 25.35 385.75 25.71 386.75 C 26.29 388.35 29.08 388.40 28.75 386.81 C 28.61 386.15 29.85 385.30 31.50 384.92 C 33.98 384.35 33.62 384.22 29.36 384.12 C 25.59 384.03 23.59 384.52 21.86 385.97 C 19.20 388.19 19.94 388.64 23.14 386.75 Z M 33.73 387.40 C 33.40 387.06 32.53 387.03 31.81 387.32 C 31.01 387.64 31.25 387.87 32.42 387.92 C 33.47 387.96 34.06 387.73 33.73 387.40 Z M 88.73 387.40 C 88.40 387.06 87.53 387.03 86.81 387.32 C 86.01 387.64 86.25 387.87 87.42 387.92 C 88.47 387.96 89.06 387.73 88.73 387.40 Z M 183.61 384.47 C 183.79 383.23 181.47 383.00 168.94 383.00 C 156.21 383.00 154.14 383.21 154.63 384.48 C 155.07 385.62 155.65 385.72 157.15 384.92 C 158.27 384.32 161.51 384.13 164.80 384.49 C 167.93 384.82 172.95 385.31 175.94 385.57 C 178.93 385.83 181.59 386.26 181.85 386.52 C 182.52 387.19 183.35 386.22 183.61 384.47 Z M 204.00 386.00 C 205.14 385.26 204.72 385.03 202.25 385.02 C 200.46 385.01 199.00 385.45 199.00 386.00 C 199.00 387.27 202.03 387.27 204.00 386.00 Z M 106.50 384.88 C 126.30 384.88 144.04 384.90 145.91 384.90 C 147.79 384.91 150.04 384.50 150.91 383.99 C 153.31 382.59 134.05 382.46 71.50 383.47 C 39.55 383.99 36.31 384.23 51.00 385.01 C 57.33 385.35 64.30 385.45 66.50 385.24 C 68.70 385.04 86.70 384.87 106.50 384.88 Z M 208.27 383.34 C 207.59 383.07 206.24 383.05 205.27 383.31 C 204.30 383.56 204.85 383.78 206.50 383.81 C 208.15 383.83 208.95 383.62 208.27 383.34 Z M 189.97 381.32 C 190.23 381.08 189.88 380.54 189.19 380.12 C 188.29 379.56 188.00 376.27 188.15 368.34 C 188.35 357.42 188.37 357.35 190.68 357.79 C 193.05 358.24 193.70 359.45 192.12 360.43 C 190.81 361.23 191.46 375.86 192.86 377.26 C 193.78 378.18 193.99 359.27 193.77 293.72 C 193.53 218.64 193.33 209.00 191.98 209.00 C 190.71 209.00 190.55 210.11 191.05 215.75 C 191.42 219.97 191.14 224.72 190.29 228.42 C 189.37 232.48 189.27 234.67 189.97 235.37 C 191.48 236.88 191.22 240.57 189.50 242.00 C 188.19 243.09 188.00 242.17 188.00 234.56 C 188.00 229.03 188.36 226.11 189.00 226.50 C 189.55 226.84 190.00 226.42 190.00 225.56 C 190.00 224.70 189.44 224.11 188.75 224.25 C 187.83 224.43 187.51 222.44 187.55 216.75 C 187.59 210.40 187.32 209.00 186.05 209.00 C 184.69 209.00 184.53 211.79 184.78 232.25 C 184.94 245.04 185.26 256.06 185.50 256.75 C 186.55 259.76 187.74 257.57 187.63 252.85 C 187.52 248.64 187.82 247.64 189.25 247.43 C 190.76 247.21 191.00 248.06 191.00 253.70 C 191.00 260.08 190.95 260.20 188.60 259.62 C 186.94 259.20 186.02 259.50 185.60 260.59 C 184.59 263.22 184.92 266.51 186.41 268.54 C 187.58 270.14 187.59 270.88 186.51 272.99 C 185.48 274.97 185.20 287.05 185.18 329.30 L 185.15 383.09 L 187.32 382.42 C 188.52 382.05 189.71 381.56 189.97 381.32 Z M 234.25 382.34 C 233.56 382.06 232.44 382.06 231.75 382.34 C 231.06 382.62 231.62 382.84 233.00 382.84 C 234.38 382.84 234.94 382.62 234.25 382.34 Z M 251.76 381.31 C 250.81 381.06 249.01 381.05 247.76 381.29 C 246.52 381.53 247.30 381.74 249.50 381.75 C 251.70 381.76 252.72 381.56 251.76 381.31 Z M 288.00 381.03 C 288.00 380.12 257.09 380.69 256.08 381.62 C 255.85 381.83 262.94 382.00 271.83 382.00 C 281.61 382.00 288.00 381.62 288.00 381.03 Z M 363.00 377.61 C 363.00 377.39 363.68 376.95 364.50 376.64 C 365.32 376.32 366.00 376.50 366.00 377.03 C 366.00 377.56 365.32 378.00 364.50 378.00 C 363.68 378.00 363.00 377.82 363.00 377.61 Z M 365.02 373.25 C 365.01 372.01 365.45 371.00 366.00 371.00 C 367.25 371.00 367.25 372.06 366.00 374.00 C 365.22 375.21 365.03 375.07 365.02 373.25 Z M 297.24 368.64 C 324.13 360.02 341.92 337.80 345.89 307.90 C 346.84 300.77 346.76 297.42 345.42 288.40 C 342.85 271.11 337.22 259.24 326.08 247.66 C 313.67 234.76 300.14 228.03 283.50 226.47 C 248.92 223.23 215.85 250.03 209.41 286.50 C 206.35 303.88 208.44 318.46 216.24 334.00 C 223.68 348.85 241.69 364.78 254.90 368.21 C 256.88 368.73 260.75 369.78 263.50 370.56 C 271.07 372.69 287.51 371.76 297.24 368.64 Z M 365.06 360.05 C 365.02 357.68 365.32 356.92 366.03 357.63 C 366.71 358.31 366.73 359.48 366.09 361.08 C 365.19 363.35 365.12 363.29 365.06 360.05 Z M 263.50 359.48 C 253.73 356.94 251.18 355.79 243.45 350.40 C 228.10 339.70 218.06 320.68 218.02 302.19 C 217.97 282.01 225.34 265.16 240.50 250.83 C 253.82 238.24 277.75 233.40 295.83 239.65 C 304.86 242.76 309.90 245.71 315.86 251.36 C 329.58 264.40 335.95 279.17 335.98 298.07 C 336.01 311.56 334.53 318.13 329.16 328.47 C 322.53 341.24 315.38 348.24 302.30 354.77 C 296.68 357.57 290.16 360.11 287.80 360.40 C 277.19 361.72 271.25 361.50 263.50 359.48 Z M 188.00 351.61 C 188.00 350.29 188.68 348.95 189.50 348.64 C 190.63 348.21 191.00 348.80 191.00 351.03 C 191.00 353.00 190.50 354.00 189.50 354.00 C 188.58 354.00 188.00 353.07 188.00 351.61 Z M 365.16 349.00 C 365.16 347.62 365.38 347.06 365.66 347.75 C 365.94 348.44 365.94 349.56 365.66 350.25 C 365.38 350.94 365.16 350.38 365.16 349.00 Z M 188.00 340.50 C 188.00 335.39 188.32 334.00 189.50 334.00 C 191.22 334.00 191.64 339.49 190.00 340.50 C 189.45 340.84 189.00 341.99 189.00 343.06 C 189.00 344.13 189.45 345.00 190.00 345.00 C 190.55 345.00 191.00 345.45 191.00 346.00 C 191.00 346.55 190.32 347.00 189.50 347.00 C 188.32 347.00 188.00 345.61 188.00 340.50 Z M 363.27 343.00 C 363.27 340.52 363.47 339.51 363.71 340.75 C 363.94 341.99 363.94 344.01 363.71 345.25 C 363.47 346.49 363.27 345.48 363.27 343.00 Z M 15.27 340.00 C 15.27 337.52 15.47 336.51 15.71 337.75 C 15.94 338.99 15.94 341.01 15.71 342.25 C 15.47 343.49 15.27 342.48 15.27 340.00 Z M 365.08 337.81 C 365.04 335.78 364.55 333.84 364.00 333.50 C 362.70 332.69 362.71 331.00 364.02 331.00 C 365.99 331.00 367.30 335.62 366.19 338.65 L 365.16 341.50 L 365.08 337.81 Z M 15.34 327.00 C 15.34 322.88 15.51 321.19 15.73 323.25 C 15.94 325.31 15.94 328.69 15.73 330.75 C 15.51 332.81 15.34 331.12 15.34 327.00 Z M 365.07 321.25 C 365.12 318.39 365.33 317.97 365.92 319.48 C 366.63 321.31 366.27 325.00 365.38 325.00 C 365.17 325.00 365.03 323.31 365.07 321.25 Z M 364.86 310.40 C 364.53 309.25 364.57 306.55 364.93 304.40 C 365.50 301.08 365.67 300.87 366.07 303.00 C 366.33 304.38 366.30 307.07 366.00 309.00 C 365.56 311.83 365.34 312.10 364.86 310.40 Z M 190.17 307.18 C 190.08 305.91 189.58 304.09 189.07 303.13 C 188.53 302.12 188.51 300.80 189.02 299.97 C 190.32 297.86 191.23 300.85 190.73 305.64 C 190.52 307.77 190.26 308.46 190.17 307.18 Z M 363.16 298.42 C 363.04 294.49 363.34 293.33 364.50 293.33 C 366.21 293.33 366.42 294.17 365.07 295.55 C 364.56 296.07 363.96 298.07 363.73 300.00 C 363.41 302.77 363.29 302.44 363.16 298.42 Z M 188.67 295.33 C 187.59 294.25 187.90 292.82 189.06 293.54 C 189.78 293.98 189.91 293.04 189.45 290.60 C 189.01 288.22 189.15 287.00 189.89 287.00 C 190.54 287.00 191.00 288.87 191.00 291.50 C 191.00 295.70 190.26 296.92 188.67 295.33 Z M 12.16 279.96 C 12.07 272.08 12.36 268.03 12.94 268.94 C 14.06 270.70 14.16 287.38 13.08 290.32 C 12.62 291.54 12.24 287.21 12.16 279.96 Z M 15.00 273.73 C 15.00 267.73 14.56 262.85 14.00 262.50 C 13.45 262.16 13.01 260.45 13.02 258.69 C 13.03 254.95 14.40 252.22 15.42 253.88 C 16.20 255.14 16.29 283.05 15.52 283.82 C 15.23 284.10 15.00 279.56 15.00 273.73 Z M 189.57 277.70 C 189.13 276.17 189.04 274.63 189.38 274.29 C 190.50 273.17 191.16 274.76 190.77 277.66 L 190.39 280.50 L 189.57 277.70 Z M 188.00 267.11 C 188.00 266.07 188.68 264.95 189.50 264.64 C 190.58 264.22 191.00 264.75 191.00 266.53 C 191.00 268.06 190.43 269.00 189.50 269.00 C 188.68 269.00 188.00 268.15 188.00 267.11 Z M 363.08 252.22 C 363.12 248.52 363.39 246.07 363.66 246.76 C 363.94 247.45 364.58 247.76 365.09 247.45 C 365.60 247.13 366.00 249.29 366.00 252.33 C 366.00 256.26 365.58 257.95 364.50 258.36 C 363.25 258.84 363.01 257.80 363.08 252.22 Z M 363.17 232.72 C 363.26 227.10 363.52 224.27 363.74 226.44 C 364.03 229.30 364.39 229.99 365.06 228.94 C 365.74 227.87 365.97 228.20 365.98 230.25 C 365.99 231.76 365.55 233.00 365.00 233.00 C 363.66 233.00 363.72 239.32 365.07 240.67 C 365.82 241.42 365.68 241.91 364.57 242.34 C 363.20 242.86 363.02 241.63 363.17 232.72 Z M 189.69 217.27 C 189.44 216.30 189.22 216.85 189.19 218.50 C 189.17 220.15 189.38 220.95 189.66 220.27 C 189.93 219.59 189.95 218.24 189.69 217.27 Z M 17.34 207.21 C 16.72 204.83 15.00 204.16 15.00 206.30 C 15.00 207.57 17.09 210.24 17.64 209.69 C 17.80 209.54 17.66 208.42 17.34 207.21 Z M 65.28 203.26 C 69.84 203.02 71.84 202.55 71.39 201.82 C 70.92 201.06 72.11 200.94 75.36 201.43 C 80.05 202.13 82.22 200.57 77.75 199.71 C 76.51 199.47 82.47 199.22 91.00 199.15 C 99.53 199.09 105.94 199.39 105.26 199.82 C 104.57 200.25 99.06 200.46 93.01 200.27 C 86.92 200.08 82.00 200.33 82.00 200.83 C 82.00 201.74 86.27 202.15 95.75 202.14 C 98.64 202.14 101.00 202.56 101.00 203.07 C 101.00 203.62 92.35 203.92 79.75 203.80 C 68.06 203.70 61.55 203.45 65.28 203.26 Z M 17.00 200.88 C 17.00 200.33 16.55 200.16 16.00 200.50 C 15.45 200.84 15.00 201.57 15.00 202.12 C 15.00 202.67 15.45 202.84 16.00 202.50 C 16.55 202.16 17.00 201.43 17.00 200.88 Z M 119.08 201.41 C 119.90 200.42 119.28 200.04 116.32 199.73 C 114.22 199.51 115.65 199.31 119.50 199.27 C 124.34 199.22 125.73 199.45 124.00 200.00 L 121.50 200.80 L 124.19 200.90 C 125.67 200.96 127.17 201.46 127.51 202.02 C 127.92 202.67 126.31 202.98 123.08 202.86 C 119.10 202.72 118.24 202.41 119.08 201.41 Z M 143.50 202.00 C 143.15 201.43 144.01 201.00 145.50 201.00 C 146.99 201.00 147.85 201.43 147.50 202.00 C 147.16 202.55 146.26 203.00 145.50 203.00 C 144.74 203.00 143.84 202.55 143.50 202.00 Z M 57.00 199.33 L 60.50 198.73 L 57.50 197.84 C 55.85 197.34 52.48 197.25 50.00 197.62 C 47.52 197.99 40.55 198.40 34.50 198.51 C 20.35 198.79 17.89 199.20 26.00 199.92 C 33.35 200.58 51.72 200.22 57.00 199.33 Z M 177.73 200.40 C 177.40 200.06 176.53 200.03 175.81 200.32 C 175.01 200.64 175.25 200.87 176.42 200.92 C 177.47 200.96 178.06 200.73 177.73 200.40 Z M 137.27 199.31 C 138.24 199.05 139.59 199.07 140.27 199.34 C 140.95 199.62 140.15 199.83 138.50 199.81 C 136.85 199.78 136.30 199.56 137.27 199.31 Z M 161.75 199.29 C 162.99 199.06 165.01 199.06 166.25 199.29 C 167.49 199.53 166.47 199.73 164.00 199.73 C 161.53 199.73 160.51 199.53 161.75 199.29 Z M 194.67 192.32 C 194.33 190.22 193.98 161.28 193.88 128.00 C 193.77 94.72 193.65 56.93 193.60 44.00 L 193.50 20.50 L 275.00 19.75 C 319.82 19.33 357.06 19.20 357.75 19.46 C 358.74 19.84 359.00 38.13 359.00 106.33 L 359.00 192.72 L 350.75 193.34 C 346.21 193.67 320.68 194.19 294.00 194.48 C 267.32 194.78 234.20 195.27 220.39 195.58 L 195.28 196.15 L 194.67 192.32 Z M 17.93 182.81 C 17.97 181.33 17.55 179.84 17.00 179.50 C 16.38 179.12 16.03 180.89 16.07 184.19 C 16.12 188.08 16.37 188.97 17.00 187.50 C 17.47 186.40 17.89 184.29 17.93 182.81 Z M 116.23 180.56 C 132.38 176.70 148.70 164.69 158.88 149.18 C 170.66 131.23 173.43 107.43 166.44 84.00 C 162.42 70.51 148.84 53.31 136.34 45.86 C 112.21 31.49 87.64 31.74 64.97 46.58 C 53.40 54.16 45.88 62.94 39.02 76.85 C 34.12 86.80 31.99 96.49 32.03 108.70 C 32.11 140.16 48.68 165.71 76.79 177.72 C 85.95 181.63 105.77 183.06 116.23 180.56 Z M 18.00 168.38 C 18.00 166.30 17.59 165.13 17.00 165.50 C 16.45 165.84 16.00 167.69 16.00 169.62 C 16.00 171.70 16.41 172.87 17.00 172.50 C 17.55 172.16 18.00 170.31 18.00 168.38 Z M 93.00 170.92 C 86.69 170.13 74.12 165.60 69.75 162.54 C 63.90 158.44 54.60 147.99 50.55 140.99 C 43.92 129.49 41.68 120.17 42.27 106.50 C 42.64 97.94 43.36 93.72 45.51 87.50 C 51.47 70.29 64.74 56.26 81.50 49.45 C 87.83 46.88 89.64 46.60 100.50 46.58 C 115.20 46.56 120.79 48.07 131.26 54.91 C 140.96 61.24 147.51 68.18 152.35 77.27 C 159.02 89.77 160.00 93.75 160.00 108.18 C 160.00 119.29 159.66 122.00 157.52 128.14 C 152.60 142.23 144.30 153.38 132.50 161.79 C 127.42 165.41 116.04 169.77 108.41 171.02 C 101.93 172.08 102.27 172.08 93.00 170.92 Z M 15.85 156.90 C 13.15 155.24 12.80 160.78 15.43 163.63 C 16.21 164.47 16.59 163.83 16.82 161.25 C 17.01 159.12 16.62 157.38 15.85 156.90 Z M 17.69 151.27 C 17.44 150.30 17.22 150.85 17.19 152.50 C 17.17 154.15 17.38 154.95 17.66 154.27 C 17.93 153.59 17.95 152.24 17.69 151.27 Z M 17.69 139.25 C 17.44 138.29 17.23 139.07 17.23 141.00 C 17.23 142.93 17.44 143.71 17.69 142.75 C 17.94 141.79 17.94 140.21 17.69 139.25 Z M 17.56 123.53 C 17.71 117.19 17.46 111.79 17.02 111.51 C 15.45 110.54 14.91 114.51 15.57 122.06 C 16.02 127.32 15.85 130.41 15.01 131.98 C 14.04 133.80 14.06 134.42 15.12 135.07 C 15.85 135.52 16.63 135.70 16.86 135.47 C 17.10 135.24 17.41 129.86 17.56 123.53 Z M 13.00 100.07 C 13.00 96.80 12.53 92.90 11.96 91.40 C 11.36 89.82 11.23 86.75 11.66 84.09 L 12.38 79.50 L 13.28 83.50 C 14.74 90.01 15.30 106.00 14.07 106.00 C 13.43 106.00 13.00 103.61 13.00 100.07 Z M 12.65 78.25 C 11.99 75.83 12.41 69.26 13.28 68.39 C 13.68 67.99 14.00 70.44 14.00 73.83 C 14.00 80.03 13.55 81.50 12.65 78.25 Z M 11.81 63.83 C 11.55 63.10 11.93 61.38 12.66 60.00 L 13.97 57.50 L 13.97 60.00 C 13.97 63.20 12.50 65.81 11.81 63.83 Z M 12.50 17.43 C 10.79 16.14 10.72 15.79 12.00 14.98 C 12.83 14.46 14.96 14.02 16.75 14.02 C 19.27 14.00 20.00 14.42 20.00 15.88 C 20.00 16.99 19.07 18.02 17.75 18.37 C 14.78 19.17 14.81 19.17 12.50 17.43 Z M 25.36 17.98 C 23.46 17.63 22.92 17.19 23.75 16.67 C 24.44 16.24 25.43 16.15 25.95 16.47 C 27.33 17.32 32.09 15.95 31.43 14.89 C 31.13 14.40 31.61 14.00 32.50 14.00 C 33.39 14.00 33.84 14.45 33.50 15.00 C 33.16 15.55 33.92 16.03 35.19 16.07 C 36.46 16.11 38.40 16.50 39.50 16.95 C 41.90 17.92 29.86 18.80 25.36 17.98 Z M 92.50 17.32 C 89.40 16.49 87.68 14.82 89.05 13.97 C 90.36 13.16 174.25 13.70 177.83 14.53 C 179.32 14.88 179.93 14.70 179.52 14.03 C 178.72 12.74 181.48 11.56 183.04 12.52 C 183.80 13.00 183.84 13.56 183.17 14.23 C 182.61 14.79 182.42 15.94 182.75 16.78 C 183.24 18.07 182.79 18.18 179.92 17.48 C 178.04 17.01 171.41 16.76 165.19 16.92 C 157.95 17.10 152.83 16.76 150.94 15.98 C 148.90 15.13 147.62 15.07 146.75 15.79 C 146.06 16.36 143.74 17.15 141.59 17.55 C 138.21 18.18 137.76 18.06 138.31 16.64 C 138.82 15.31 138.27 15.00 135.47 15.00 C 131.85 15.00 130.71 16.53 133.75 17.30 C 134.71 17.54 130.44 17.74 124.25 17.74 C 118.06 17.74 113.00 17.45 113.00 17.09 C 113.00 16.74 111.31 16.58 109.25 16.74 C 96.84 17.71 94.30 17.79 92.50 17.32 Z M 83.70 16.37 C 83.36 16.02 75.29 15.42 65.79 15.03 L 48.50 14.32 L 66.64 14.16 C 81.95 14.02 84.88 14.23 85.36 15.50 C 85.94 17.00 84.89 17.55 83.70 16.37 Z" fill="none" stroke="rgba(255,255,255,0.92)" stroke-width="1.5" stroke-linejoin="round" fill-rule="evenodd"/>
</svg>
