<svg xmlns="http://www.w3.org/2000/svg" viewBox="0 0 400 276" width="400" height="276">
  <path d="M 0.00 138.00 L 0.00 0.00 L 200.00 0.00 L 400.00 0.00 L 400.00 28.88 C 400.00 53.33 399.77 57.95 398.50 59.00 C 396.86 60.36 396.44 64.00 397.92 64.00 C 398.42 64.00 399.06 63.44 399.34 62.75 C 399.62 62.06 399.88 62.53 399.92 63.78 C 399.96 65.04 399.32 66.32 398.50 66.64 C 397.68 66.95 397.00 67.62 397.00 68.11 C 397.00 68.60 397.68 69.00 398.50 69.00 C 399.82 69.00 400.00 81.17 400.00 172.50 L 400.00 276.00 L 377.43 276.00 C 358.39 276.00 354.61 275.76 353.31 274.45 C 351.91 273.06 351.60 273.06 350.05 274.45 C 348.52 275.84 329.96 276.00 174.17 276.00 L 0.00 276.00 L 0.00 138.00 Z M 187.50 269.56 C 202.90 269.38 224.39 269.18 235.26 269.11 L 255.03 269.00 L 254.99 205.86 C 254.96 171.14 255.12 142.55 255.34 142.33 C 255.66 142.01 340.70 141.90 367.50 142.19 L 374.50 142.26 L 375.08 135.38 C 375.96 124.87 375.06 113.73 373.21 112.26 C 371.11 110.59 372.60 109.27 374.94 110.73 C 375.95 111.36 377.06 111.61 377.39 111.27 C 378.50 110.17 378.02 107.00 376.75 106.99 C 374.89 106.98 372.77 102.02 374.36 101.41 C 375.68 100.91 375.81 97.53 374.61 94.87 C 373.39 92.16 375.35 86.56 377.56 86.44 C 382.18 86.20 383.00 85.92 383.00 84.55 C 383.00 83.75 382.26 82.69 381.36 82.18 C 380.24 81.56 379.88 80.42 380.22 78.63 C 380.67 76.30 380.41 76.00 377.92 76.00 C 375.00 76.00 373.26 74.57 374.93 73.55 C 375.89 72.95 375.57 60.92 374.46 55.83 C 374.06 54.02 374.36 52.90 375.39 52.32 C 378.03 50.84 375.59 48.98 370.17 48.33 C 365.87 47.82 365.00 47.99 365.00 49.30 C 365.00 50.17 365.42 51.14 365.94 51.46 C 366.45 51.78 367.54 53.38 368.36 55.02 C 369.80 57.91 369.77 58.00 367.48 58.00 C 364.01 58.00 363.36 59.99 366.11 62.18 L 368.50 64.08 L 366.12 63.79 C 363.24 63.44 360.97 67.67 363.52 68.65 C 367.44 70.15 364.12 70.98 355.56 70.64 C 348.07 70.34 346.00 70.55 345.57 71.68 C 345.27 72.46 344.44 72.96 343.73 72.80 C 343.02 72.63 342.32 72.95 342.18 73.50 C 342.04 74.05 342.84 74.64 343.96 74.82 C 345.08 75.00 346.00 75.90 346.00 76.83 C 346.00 78.21 346.80 78.45 350.51 78.16 C 354.19 77.86 354.91 78.07 354.44 79.30 C 353.59 81.51 356.08 82.61 357.51 80.65 C 359.21 78.33 360.00 78.60 360.00 81.50 C 360.00 83.01 359.43 84.00 358.56 84.00 C 356.71 84.00 355.67 85.69 356.37 87.53 C 356.81 88.67 357.49 88.45 359.57 86.52 C 362.78 83.55 365.85 82.45 367.20 83.80 C 367.80 84.40 368.28 94.83 368.42 109.90 L 368.63 135.00 L 364.07 135.03 C 361.55 135.05 348.93 135.04 336.01 135.00 C 315.80 134.94 312.79 135.13 314.41 136.31 C 316.81 138.07 315.44 138.90 311.22 138.26 C 308.22 137.81 308.09 137.65 309.72 136.41 C 311.23 135.27 307.38 135.06 284.50 135.07 C 262.31 135.07 257.90 135.29 259.76 136.33 C 261.53 137.31 261.76 137.84 260.81 138.79 C 259.10 140.50 258.01 140.29 257.92 138.25 C 257.87 137.19 257.64 137.00 257.34 137.76 C 255.40 142.55 255.00 131.84 255.00 75.69 L 255.00 13.50 L 311.18 13.76 C 342.07 13.90 367.56 14.22 367.81 14.48 C 368.45 15.12 368.91 23.64 368.96 35.75 C 368.99 43.68 369.31 46.00 370.35 46.00 C 371.37 46.00 371.59 44.79 371.24 41.12 C 370.98 38.43 371.26 35.40 371.85 34.37 C 372.76 32.81 372.94 33.19 372.97 36.69 C 372.99 39.00 373.39 41.13 373.88 41.42 C 375.22 42.25 375.77 35.84 375.63 21.02 L 375.50 7.53 L 372.00 6.99 C 366.38 6.12 9.63 6.46 8.24 7.33 C 7.24 7.96 7.00 35.06 7.04 139.50 L 7.10 270.87 L 83.30 270.38 C 125.21 270.11 172.10 269.74 187.50 269.56 Z M 12.62 267.16 C 11.53 265.30 10.88 259.81 11.81 260.38 C 13.01 261.12 14.38 250.39 13.78 245.00 C 13.40 241.57 13.38 241.55 12.34 243.98 C 11.36 246.28 11.24 246.32 10.76 244.48 C 9.88 241.09 10.06 234.08 11.05 233.47 C 11.60 233.13 12.01 234.93 12.02 237.69 C 12.03 241.18 12.30 242.09 13.01 241.00 C 14.01 239.47 14.26 187.85 13.28 185.30 C 12.89 184.27 12.44 184.22 11.38 185.10 C 10.49 185.84 10.00 185.87 10.00 185.20 C 10.00 183.15 11.23 181.02 12.10 181.56 C 13.01 182.12 13.13 180.86 13.54 166.50 C 13.79 157.99 12.97 154.53 11.89 159.50 L 11.24 162.50 L 11.12 159.11 C 11.05 157.06 11.63 155.26 12.58 154.56 C 13.90 153.60 14.01 152.54 13.22 148.20 L 12.27 143.00 L 16.89 142.83 C 29.59 142.37 95.89 141.79 118.73 141.94 L 127.95 142.00 L 128.23 202.25 C 128.38 235.39 128.41 262.66 128.31 262.86 C 128.20 263.06 109.90 263.28 87.64 263.36 C 65.38 263.44 46.83 263.84 46.42 264.25 C 46.00 264.66 46.30 265.04 47.08 265.10 C 49.35 265.26 43.79 266.79 40.55 266.90 C 37.12 267.02 38.17 265.42 42.00 264.70 C 43.38 264.45 37.42 264.24 28.76 264.23 C 18.77 264.23 13.24 264.58 13.63 265.20 C 13.99 265.80 16.93 265.91 21.11 265.49 C 25.88 265.01 28.00 265.14 28.00 265.90 C 28.00 266.50 26.54 267.06 24.75 267.13 C 22.96 267.20 19.59 267.39 17.25 267.54 C 14.92 267.70 12.83 267.52 12.62 267.16 Z M 30.00 267.00 C 28.89 266.29 29.55 266.03 32.50 266.03 C 35.45 266.03 36.11 266.29 35.00 267.00 C 34.17 267.53 33.05 267.97 32.50 267.97 C 31.95 267.97 30.82 267.53 30.00 267.00 Z M 51.15 266.63 C 49.01 265.44 49.35 265.32 54.94 265.27 C 60.08 265.22 60.88 265.44 59.91 266.60 C 58.47 268.34 54.26 268.35 51.15 266.63 Z M 118.00 267.06 C 118.00 266.54 116.31 265.94 114.25 265.73 C 112.19 265.51 114.10 265.33 118.50 265.33 C 122.90 265.32 125.04 265.50 123.25 265.72 C 121.46 265.95 120.00 266.55 120.00 267.06 C 120.00 267.58 119.55 268.00 119.00 268.00 C 118.45 268.00 118.00 267.58 118.00 267.06 Z M 358.72 260.12 C 359.24 254.42 359.14 254.00 357.21 254.00 C 354.97 254.00 354.50 255.03 353.54 262.17 C 353.00 266.15 353.17 266.90 354.70 267.24 C 357.47 267.88 358.12 266.73 358.72 260.12 Z M 141.50 266.00 C 138.75 265.73 137.18 265.27 138.00 264.98 C 140.10 264.25 156.00 265.00 156.00 265.83 C 156.00 266.63 148.65 266.71 141.50 266.00 Z M 160.81 266.32 C 161.53 266.03 162.40 266.06 162.73 266.40 C 163.06 266.73 162.47 266.96 161.42 266.92 C 160.25 266.87 160.01 266.64 160.81 266.32 Z M 100.75 265.29 C 101.99 265.06 104.01 265.06 105.25 265.29 C 106.49 265.53 105.47 265.73 103.00 265.73 C 100.53 265.73 99.51 265.53 100.75 265.29 Z M 204.75 265.34 C 205.44 265.06 206.56 265.06 207.25 265.34 C 207.94 265.62 207.38 265.84 206.00 265.84 C 204.62 265.84 204.06 265.62 204.75 265.34 Z M 214.00 265.00 C 214.00 264.45 215.24 264.03 216.75 264.07 C 219.19 264.13 219.27 264.24 217.50 265.00 C 214.77 266.17 214.00 266.17 214.00 265.00 Z M 227.50 265.00 C 227.11 264.37 229.22 264.04 233.19 264.10 C 237.87 264.17 238.85 264.41 237.00 265.00 C 233.38 266.16 228.22 266.16 227.50 265.00 Z M 241.50 265.00 C 241.16 264.45 241.36 264.00 241.94 264.00 C 242.52 264.00 243.00 264.45 243.00 265.00 C 243.00 265.55 242.80 266.00 242.56 266.00 C 242.32 266.00 241.84 265.55 241.50 265.00 Z M 221.27 264.31 C 222.24 264.05 223.59 264.07 224.27 264.34 C 224.95 264.62 224.15 264.83 222.50 264.81 C 220.85 264.78 220.30 264.56 221.27 264.31 Z M 135.29 262.71 C 134.87 262.04 134.45 236.98 134.36 207.00 C 134.14 136.84 134.44 144.21 131.75 143.76 C 124.33 142.50 147.21 141.93 194.26 142.20 L 248.01 142.50 L 248.05 201.87 C 248.07 234.53 247.91 261.42 247.69 261.64 C 247.48 261.86 222.82 262.28 192.90 262.59 C 162.98 262.90 137.95 263.32 137.28 263.53 C 136.61 263.74 135.72 263.37 135.29 262.71 Z M 10.68 252.25 C 10.45 251.84 10.61 250.60 11.05 249.50 C 11.76 247.75 11.87 247.85 11.93 250.25 C 12.00 252.96 11.53 253.71 10.68 252.25 Z M 210.36 249.13 C 215.26 246.91 219.01 244.17 223.84 239.28 C 234.78 228.19 239.01 217.80 238.99 202.04 C 238.97 191.68 237.32 185.04 232.68 176.77 C 227.82 168.09 220.00 160.62 211.22 156.27 C 204.63 153.01 202.99 152.63 193.72 152.23 C 181.07 151.68 173.50 153.88 164.50 160.73 C 156.44 166.86 151.78 172.81 147.93 181.91 C 145.30 188.13 144.63 191.22 144.23 199.06 C 143.38 215.97 147.63 227.58 158.86 238.98 C 169.62 249.91 178.16 253.21 194.04 252.59 C 202.06 252.27 204.65 251.72 210.36 249.13 Z M 358.50 246.00 C 359.40 244.54 358.00 236.39 356.50 234.33 C 355.46 232.91 354.93 232.81 353.73 233.81 C 352.54 234.79 352.44 235.97 353.19 239.77 C 353.71 242.37 354.31 245.06 354.53 245.75 C 355.02 247.25 357.63 247.41 358.50 246.00 Z M 179.22 243.09 C 166.57 238.38 158.34 229.87 153.98 216.96 C 148.23 199.96 153.19 180.69 166.21 169.56 C 186.20 152.45 214.21 158.29 226.80 182.21 C 238.02 203.51 229.46 230.17 207.91 241.04 C 199.48 245.30 187.46 246.16 179.22 243.09 Z M 251.25 240.50 C 251.26 238.30 251.47 237.52 251.71 238.76 C 251.95 240.01 251.94 241.81 251.69 242.76 C 251.44 243.72 251.24 242.70 251.25 240.50 Z M 251.27 231.00 C 251.27 228.53 251.47 227.51 251.71 228.75 C 251.94 229.99 251.94 232.01 251.71 233.25 C 251.47 234.49 251.27 233.47 251.27 231.00 Z M 10.08 225.42 C 10.13 224.25 10.36 224.01 10.68 224.81 C 10.97 225.53 10.94 226.40 10.60 226.73 C 10.27 227.06 10.04 226.47 10.08 225.42 Z M 353.28 225.75 C 353.70 224.56 350.82 217.83 348.81 215.31 C 347.65 213.86 345.00 214.71 345.00 216.52 C 345.00 217.24 345.88 219.90 346.96 222.42 C 348.34 225.63 349.51 227.00 350.88 227.00 C 351.95 227.00 353.03 226.44 353.28 225.75 Z M 250.98 223.50 C 250.64 219.61 251.17 213.49 251.91 212.71 C 252.33 212.28 252.49 214.53 252.26 217.71 C 251.81 224.09 251.25 226.59 250.98 223.50 Z M 10.53 216.71 C 10.10 215.72 10.03 214.63 10.38 214.29 C 11.39 213.27 12.21 214.70 11.74 216.67 C 11.33 218.42 11.27 218.42 10.53 216.71 Z M 132.08 214.42 C 132.13 213.25 132.36 213.01 132.68 213.81 C 132.97 214.53 132.94 215.40 132.60 215.73 C 132.27 216.06 132.04 215.47 132.08 214.42 Z M 334.66 210.84 C 337.25 208.33 338.21 207.93 339.33 208.86 C 341.06 210.30 343.54 207.85 342.66 205.56 C 342.33 204.71 343.23 203.13 344.80 201.77 C 350.97 196.47 351.19 196.88 337.78 188.97 C 331.03 184.98 323.82 180.66 321.77 179.36 C 318.15 177.07 316.00 176.40 316.00 177.57 C 316.00 177.88 317.31 181.37 318.92 185.32 C 320.52 189.27 323.51 197.34 325.55 203.25 C 327.60 209.16 329.75 214.00 330.34 214.00 C 330.93 214.00 332.87 212.58 334.66 210.84 Z M 132.23 209.00 C 132.23 207.07 132.44 206.29 132.69 207.25 C 132.94 208.21 132.94 209.79 132.69 210.75 C 132.44 211.71 132.23 210.93 132.23 209.00 Z M 10.00 208.62 C 10.00 207.24 10.45 205.84 11.00 205.50 C 11.56 205.15 12.00 205.97 12.00 207.38 C 12.00 208.76 11.55 210.16 11.00 210.50 C 10.44 210.85 10.00 210.03 10.00 208.62 Z M 10.02 201.25 C 10.03 199.25 10.27 198.88 10.92 199.91 C 11.41 200.68 11.58 201.92 11.30 202.66 C 10.49 204.77 10.00 204.24 10.02 201.25 Z M 131.76 194.50 C 131.49 193.12 131.66 192.00 132.14 192.00 C 132.61 192.00 133.00 193.12 133.00 194.50 C 133.00 195.88 132.83 197.00 132.62 197.00 C 132.41 197.00 132.02 195.88 131.76 194.50 Z M 251.08 195.42 C 251.13 194.25 251.36 194.01 251.68 194.81 C 251.97 195.53 251.94 196.40 251.60 196.73 C 251.27 197.06 251.04 196.47 251.08 195.42 Z M 10.08 190.42 C 10.13 189.25 10.36 189.01 10.68 189.81 C 10.97 190.53 10.94 191.40 10.60 191.73 C 10.27 192.06 10.04 191.47 10.08 190.42 Z M 10.19 178.50 C 10.22 176.85 10.44 176.30 10.69 177.27 C 10.95 178.24 10.93 179.59 10.66 180.27 C 10.38 180.95 10.17 180.15 10.19 178.50 Z M 10.10 171.25 C 10.19 167.90 10.29 167.77 11.00 170.00 C 12.14 173.57 12.14 175.00 11.00 175.00 C 10.45 175.00 10.04 173.31 10.10 171.25 Z M 130.88 158.50 C 129.81 154.35 129.85 146.00 130.95 146.00 C 131.59 146.00 131.84 147.12 131.55 148.71 C 131.28 150.20 131.55 151.72 132.15 152.10 C 132.91 152.56 132.96 153.98 132.32 156.64 C 131.62 159.57 131.27 160.02 130.88 158.50 Z M 12.50 139.23 C 13.58 138.44 14.47 34.62 13.43 29.77 C 13.11 28.28 12.32 27.15 11.68 27.27 C 10.13 27.57 9.58 22.55 10.91 20.28 C 11.75 18.82 11.94 19.18 11.97 22.25 C 11.99 24.31 12.45 26.00 13.00 26.00 C 14.27 26.00 14.30 22.42 13.05 20.09 C 12.38 18.84 12.55 17.67 13.60 16.15 L 15.11 14.00 L 71.06 14.00 L 127.00 14.00 L 127.03 39.25 C 127.14 126.40 127.02 135.50 125.75 135.09 C 123.92 134.48 16.64 135.03 16.02 135.64 C 15.74 135.93 15.44 136.58 15.38 137.08 C 15.31 137.59 15.19 138.45 15.12 139.00 C 15.06 139.55 14.21 139.99 13.25 139.98 C 12.26 139.98 11.94 139.65 12.50 139.23 Z M 57.75 139.34 C 58.44 139.06 59.56 139.06 60.25 139.34 C 60.94 139.62 60.38 139.84 59.00 139.84 C 57.62 139.84 57.06 139.62 57.75 139.34 Z M 82.50 138.00 C 82.16 137.45 82.58 137.00 83.44 137.00 C 84.30 137.00 85.00 137.45 85.00 138.00 C 85.00 138.55 84.58 139.00 84.06 139.00 C 83.54 139.00 82.84 138.55 82.50 138.00 Z M 123.00 137.38 C 123.00 136.05 123.27 135.98 124.50 137.00 C 125.33 137.68 126.00 138.41 126.00 138.62 C 126.00 138.83 125.33 139.00 124.50 139.00 C 123.67 139.00 123.00 138.27 123.00 137.38 Z M 272.50 138.00 C 272.16 137.45 272.81 137.00 273.94 137.00 C 275.07 137.00 276.00 137.45 276.00 138.00 C 276.00 138.55 275.35 139.00 274.56 139.00 C 273.77 139.00 272.84 138.55 272.50 138.00 Z M 334.50 137.93 C 325.55 137.19 327.80 136.84 340.50 137.00 C 346.00 137.06 350.89 137.50 351.37 137.97 C 352.29 138.89 346.00 138.87 334.50 137.93 Z M 354.00 138.00 C 352.78 137.21 352.91 137.03 354.69 137.02 C 355.90 137.01 357.16 137.45 357.50 138.00 C 358.29 139.27 355.97 139.27 354.00 138.00 Z M 43.27 137.31 C 44.24 137.05 45.59 137.07 46.27 137.34 C 46.95 137.62 46.15 137.83 44.50 137.81 C 42.85 137.78 42.30 137.56 43.27 137.31 Z M 51.27 137.31 C 52.24 137.05 53.59 137.07 54.27 137.34 C 54.95 137.62 54.15 137.83 52.50 137.81 C 50.85 137.78 50.30 137.56 51.27 137.31 Z M 61.80 136.80 C 62.73 135.87 63.27 135.87 64.20 136.80 C 65.13 137.73 64.87 138.00 63.00 138.00 C 61.13 138.00 60.87 137.73 61.80 136.80 Z M 268.81 137.32 C 269.53 137.03 270.40 137.06 270.73 137.40 C 271.06 137.73 270.47 137.96 269.42 137.92 C 268.25 137.87 268.01 137.64 268.81 137.32 Z M 303.81 137.32 C 304.53 137.03 305.40 137.06 305.73 137.40 C 306.06 137.73 305.47 137.96 304.42 137.92 C 303.25 137.87 303.01 137.64 303.81 137.32 Z M 318.81 137.32 C 319.53 137.03 320.40 137.06 320.73 137.40 C 321.06 137.73 320.47 137.96 319.42 137.92 C 318.25 137.87 318.01 137.64 318.81 137.32 Z M 323.75 137.34 C 324.44 137.06 325.56 137.06 326.25 137.34 C 326.94 137.62 326.38 137.84 325.00 137.84 C 323.62 137.84 323.06 137.62 323.75 137.34 Z M 10.50 135.00 C 10.16 134.45 10.36 134.00 10.94 134.00 C 11.52 134.00 12.00 134.45 12.00 135.00 C 12.00 135.55 11.80 136.00 11.56 136.00 C 11.32 136.00 10.84 135.55 10.50 135.00 Z M 135.00 74.00 L 135.00 14.00 L 190.90 14.00 L 246.81 14.00 L 247.25 32.75 C 247.50 43.06 247.74 70.06 247.81 92.75 L 247.92 134.00 L 191.46 134.00 L 135.00 134.00 L 135.00 74.00 Z M 10.00 131.12 C 10.00 130.57 10.45 129.84 11.00 129.50 C 11.55 129.16 12.00 129.33 12.00 129.88 C 12.00 130.43 11.55 131.16 11.00 131.50 C 10.45 131.84 10.00 131.67 10.00 131.12 Z M 315.00 121.50 L 315.00 111.00 L 311.50 111.00 L 308.00 111.00 L 308.00 121.50 L 308.00 132.00 L 311.50 132.00 L 315.00 132.00 L 315.00 121.50 Z M 86.86 122.09 C 101.23 116.33 112.80 103.42 116.51 89.01 C 123.01 63.78 112.13 38.79 90.01 28.15 C 83.33 24.94 81.48 24.51 72.85 24.16 C 64.90 23.84 62.04 24.16 56.69 25.94 C 44.90 29.86 35.86 37.57 29.63 49.00 C 13.67 78.32 27.84 114.67 58.69 123.56 C 65.67 125.57 80.06 124.82 86.86 122.09 Z M 10.00 121.50 C 10.00 120.67 10.44 120.00 10.97 120.00 C 11.50 120.00 11.68 120.67 11.36 121.50 C 11.05 122.33 10.61 123.00 10.39 123.00 C 10.18 123.00 10.00 122.33 10.00 121.50 Z M 284.87 111.58 C 288.24 107.50 291.00 103.69 291.00 103.11 C 291.00 101.50 286.03 98.56 285.07 99.60 C 279.64 105.51 273.00 113.39 273.00 113.92 C 273.00 115.15 276.48 118.97 277.62 118.99 C 278.23 118.99 281.49 115.66 284.87 111.58 Z M 11.08 115.42 C 11.13 114.25 11.36 114.01 11.68 114.81 C 11.97 115.53 11.94 116.40 11.60 116.73 C 11.27 117.06 11.04 116.47 11.08 115.42 Z M 61.50 116.04 C 49.82 113.09 40.22 104.98 34.80 93.50 C 31.89 87.33 31.46 85.32 31.15 76.56 C 30.88 68.86 31.22 65.38 32.65 61.06 C 36.36 49.89 44.43 40.44 55.00 34.87 C 58.94 32.79 60.86 32.50 70.50 32.50 C 80.92 32.50 81.82 32.67 87.59 35.68 C 96.28 40.23 102.46 46.65 106.67 55.52 C 120.11 83.82 99.83 117.49 69.70 116.90 C 66.84 116.84 63.15 116.45 61.50 116.04 Z M 352.38 113.36 L 354.26 110.78 L 347.13 103.65 C 341.24 97.76 339.70 96.70 338.31 97.57 C 333.87 100.38 334.23 101.67 341.49 108.99 C 345.31 112.84 348.91 115.99 349.47 115.97 C 350.04 115.95 351.35 114.78 352.38 113.36 Z M 372.25 108.28 C 371.56 108.03 371.00 107.10 371.00 106.20 C 371.00 104.72 371.15 104.72 372.69 106.26 C 374.50 108.07 374.29 109.01 372.25 108.28 Z M 378.36 102.50 C 377.75 100.91 376.00 100.42 376.00 101.83 C 376.00 102.89 377.09 104.00 378.14 104.00 C 378.58 104.00 378.68 103.33 378.36 102.50 Z M 323.62 100.19 C 328.36 97.78 333.08 92.70 336.16 86.72 C 337.83 83.49 338.34 80.72 338.35 74.89 C 338.37 64.92 335.05 57.66 327.84 51.96 C 306.72 35.27 278.59 56.45 286.37 83.19 C 288.55 90.69 295.25 98.16 302.29 100.96 C 308.79 103.53 317.71 103.21 323.62 100.19 Z M 371.00 96.56 C 371.00 95.70 371.45 95.00 372.00 95.00 C 372.55 95.00 373.00 95.42 373.00 95.94 C 373.00 96.46 372.55 97.16 372.00 97.50 C 371.45 97.84 371.00 97.42 371.00 96.56 Z M 305.01 93.46 C 297.65 90.16 293.04 83.22 292.86 75.19 C 292.67 66.97 295.22 62.03 302.28 56.91 C 308.98 52.06 318.29 53.03 324.73 59.24 C 331.59 65.85 332.74 78.07 327.28 86.28 C 322.54 93.41 312.26 96.72 305.01 93.46 Z M 347.00 92.44 C 347.00 91.58 346.54 91.16 345.98 91.51 C 345.42 91.86 345.23 92.56 345.54 93.07 C 346.40 94.46 347.00 94.20 347.00 92.44 Z M 354.00 90.11 C 354.00 89.00 350.92 87.74 350.14 88.53 C 349.82 88.85 350.22 89.53 351.03 90.04 C 352.90 91.22 354.00 91.25 354.00 90.11 Z M 364.46 86.93 C 363.71 85.73 361.00 85.72 361.00 86.92 C 361.00 88.00 363.17 88.92 364.27 88.30 C 364.69 88.06 364.77 87.44 364.46 86.93 Z M 354.00 86.00 C 354.00 85.45 353.55 85.00 353.00 85.00 C 352.45 85.00 352.00 85.45 352.00 86.00 C 352.00 86.55 352.45 87.00 353.00 87.00 C 353.55 87.00 354.00 86.55 354.00 86.00 Z M 344.50 82.00 C 344.84 81.45 344.64 81.00 344.06 81.00 C 343.48 81.00 343.00 81.45 343.00 82.00 C 343.00 82.55 343.20 83.00 343.44 83.00 C 343.68 83.00 344.16 82.55 344.50 82.00 Z M 387.81 79.26 C 388.09 77.32 393.22 74.00 395.92 74.00 C 397.25 74.00 396.22 68.84 394.69 67.84 C 394.14 67.48 392.59 67.68 391.26 68.29 C 389.12 69.27 389.02 69.54 390.41 70.56 C 392.75 72.27 392.39 72.84 388.50 73.57 C 385.20 74.19 385.00 74.45 385.00 78.19 C 385.00 82.41 387.22 83.25 387.81 79.26 Z M 10.08 78.42 C 10.13 77.25 10.36 77.01 10.68 77.81 C 10.97 78.53 10.94 79.40 10.60 79.73 C 10.27 80.06 10.04 79.47 10.08 78.42 Z M 278.00 74.61 C 278.00 70.39 277.06 70.00 266.89 70.00 C 259.20 70.00 258.92 70.09 257.93 72.67 C 256.10 77.50 257.05 78.00 267.97 78.00 L 278.00 78.00 L 278.00 74.61 Z M 367.02 72.33 C 366.99 66.58 367.83 64.61 369.64 66.12 C 370.84 67.12 370.81 67.55 369.40 69.11 C 368.50 70.11 368.00 71.55 368.29 72.30 C 368.58 73.06 368.41 74.32 367.92 75.09 C 367.32 76.05 367.03 75.17 367.02 72.33 Z M 10.16 70.00 C 10.16 68.62 10.38 68.06 10.66 68.75 C 10.94 69.44 10.94 70.56 10.66 71.25 C 10.38 71.94 10.16 71.38 10.16 70.00 Z M 350.88 66.37 C 351.54 64.92 351.86 63.53 351.60 63.27 C 350.80 62.46 349.00 64.04 349.00 65.56 C 349.00 66.35 348.52 67.00 347.94 67.00 C 347.36 67.00 347.16 67.45 347.50 68.00 C 348.53 69.66 349.62 69.14 350.88 66.37 Z M 371.00 65.00 C 371.00 64.45 371.45 64.00 372.00 64.00 C 372.55 64.00 373.00 64.45 373.00 65.00 C 373.00 65.55 372.55 66.00 372.00 66.00 C 371.45 66.00 371.00 65.55 371.00 65.00 Z M 387.95 59.54 C 392.09 61.14 395.00 61.23 395.00 59.74 C 395.00 58.91 394.03 57.98 392.84 57.67 C 391.13 57.22 390.91 56.81 391.81 55.73 C 392.67 54.70 392.66 54.06 391.78 53.18 C 389.96 51.36 388.71 51.78 389.29 54.00 C 389.68 55.48 389.32 56.00 387.91 56.00 C 386.85 56.00 386.00 56.69 386.00 57.56 C 386.00 58.42 385.55 58.84 385.00 58.50 C 384.45 58.16 384.00 56.72 384.00 55.30 C 384.00 52.73 381.62 50.09 379.25 50.03 C 378.56 50.01 378.00 50.67 378.00 51.50 C 378.00 52.33 378.56 53.01 379.25 53.02 C 380.16 53.03 380.13 53.26 379.13 53.90 C 378.03 54.60 378.18 55.18 379.92 56.92 C 381.11 58.11 382.58 60.30 383.19 61.79 L 384.30 64.50 L 385.35 61.72 C 386.08 59.81 386.89 59.13 387.95 59.54 Z M 10.58 59.13 C 10.15 58.44 10.07 57.60 10.40 57.27 C 11.29 56.37 12.27 57.69 11.79 59.14 C 11.45 60.15 11.21 60.15 10.58 59.13 Z M 357.00 54.93 C 357.00 53.76 350.40 52.64 348.91 53.55 C 348.00 54.12 348.11 54.60 349.31 55.49 C 351.04 56.75 357.00 56.32 357.00 54.93 Z M 360.11 53.71 C 359.30 52.90 359.00 53.01 359.00 54.13 C 359.00 56.12 360.34 57.47 360.84 55.98 C 361.05 55.34 360.72 54.32 360.11 53.71 Z M 10.67 53.33 C 9.62 52.29 9.89 48.00 11.00 48.00 C 11.55 48.00 12.00 49.35 12.00 51.00 C 12.00 54.11 11.80 54.46 10.67 53.33 Z M 287.02 49.47 L 289.40 46.95 L 282.47 39.97 C 278.67 36.14 275.12 33.00 274.59 33.00 C 274.06 33.00 272.58 33.99 271.29 35.20 L 268.95 37.40 L 276.20 44.70 C 280.19 48.71 283.72 52.00 284.05 52.00 C 284.38 52.00 285.72 50.86 287.02 49.47 Z M 344.85 42.54 C 348.23 38.71 351.00 35.15 351.00 34.62 C 351.00 33.21 347.88 30.00 346.51 30.00 C 345.87 30.00 342.37 33.30 338.74 37.34 L 332.14 44.69 L 334.80 47.35 C 336.27 48.81 337.74 49.90 338.08 49.76 C 338.42 49.62 341.46 46.37 344.85 42.54 Z M 10.23 43.00 C 10.23 41.08 10.44 40.29 10.69 41.25 C 10.94 42.21 10.94 43.79 10.69 44.75 C 10.44 45.71 10.23 44.92 10.23 43.00 Z M 388.36 38.50 C 387.77 36.95 383.00 36.36 383.00 37.83 C 383.00 39.26 384.24 40.00 386.64 40.00 C 388.27 40.00 388.77 39.57 388.36 38.50 Z M 315.56 32.75 C 315.40 29.86 315.21 24.91 315.14 21.75 L 315.00 16.00 L 311.50 16.00 L 308.00 16.00 L 308.00 26.33 C 308.00 32.02 308.30 36.97 308.67 37.33 C 309.03 37.70 310.80 38.00 312.59 38.00 L 315.84 38.00 L 315.56 32.75 Z M 372.16 27.00 C 372.16 25.62 372.38 25.06 372.66 25.75 C 372.94 26.44 372.94 27.56 372.66 28.25 C 372.38 28.94 372.16 28.38 372.16 27.00 Z M 372.04 20.00 C 371.89 19.18 371.83 17.97 371.91 17.33 C 371.99 16.68 371.59 15.87 371.03 15.52 C 369.40 14.51 369.79 10.00 371.50 10.00 C 372.32 10.00 373.00 10.68 373.00 11.50 C 373.00 12.32 372.44 13.01 371.75 13.02 C 370.81 13.03 370.83 13.24 371.82 13.87 C 372.65 14.40 372.99 15.98 372.73 18.10 C 372.51 19.97 372.19 20.82 372.04 20.00 Z M 10.50 14.00 C 10.84 13.45 11.32 13.00 11.56 13.00 C 11.80 13.00 12.00 13.45 12.00 14.00 C 12.00 14.55 11.52 15.00 10.94 15.00 C 10.36 15.00 10.16 14.55 10.50 14.00 Z M 125.00 10.56 C 125.00 9.77 125.42 8.86 125.94 8.54 C 126.46 8.22 126.81 8.87 126.73 9.98 C 126.55 12.26 125.00 12.78 125.00 10.56 Z M 305.47 10.96 C 305.15 10.43 305.81 10.00 306.94 10.00 C 309.36 10.00 309.60 10.56 307.53 11.35 C 306.72 11.66 305.80 11.48 305.47 10.96 Z M 352.55 11.07 C 353.07 10.56 354.85 9.81 356.50 9.40 C 359.22 8.74 359.37 8.83 358.13 10.33 C 357.37 11.25 355.60 12.00 354.18 12.00 C 352.58 12.00 351.96 11.65 352.55 11.07 Z M 291.00 10.00 C 291.00 9.45 291.68 9.00 292.50 9.00 C 293.32 9.00 294.00 9.45 294.00 10.00 C 294.00 10.55 293.32 11.00 292.50 11.00 C 291.68 11.00 291.00 10.55 291.00 10.00 Z M 301.50 10.00 C 301.16 9.45 301.61 9.00 302.50 9.00 C 303.39 9.00 303.84 9.45 303.50 10.00 C 303.16 10.55 302.71 11.00 302.50 11.00 C 302.29 11.00 301.84 10.55 301.50 10.00 Z M 318.50 10.00 C 316.90 9.31 317.27 9.13 320.31 9.07 C 322.61 9.03 323.87 9.40 323.50 10.00 C 322.77 11.18 321.25 11.18 318.50 10.00 Z M 327.00 10.00 C 325.72 9.17 325.75 9.03 327.25 9.02 C 328.21 9.01 329.00 9.45 329.00 10.00 C 329.00 11.22 328.89 11.22 327.00 10.00 Z M 347.81 10.32 C 348.53 10.03 349.40 10.06 349.73 10.40 C 350.06 10.73 349.47 10.96 348.42 10.92 C 347.25 10.87 347.01 10.64 347.81 10.32 Z M 362.81 10.32 C 363.53 10.03 364.40 10.06 364.73 10.40 C 365.06 10.73 364.47 10.96 363.42 10.92 C 362.25 10.87 362.01 10.64 362.81 10.32 Z" fill="none" stroke="rgba(255,255,255,0.92)" stroke-width="1.5" stroke-linejoin="round" fill-rule="evenodd"/>
</svg>
