<svg xmlns="http://www.w3.org/2000/svg" viewBox="0 0 100 100" width="100" height="100">
  <path d="M 0.00 50.00 L 0.00 0.00 L 50.00 0.00 L 100.00 0.00 L 100.00 50.00 L 100.00 100.00 L 50.00 100.00 L 0.00 100.00 L 0.00 50.00 Z M 91.00 53.00 L 91.00 10.00 L 93.50 10.00 C 96.90 10.00 97.11 5.54 93.75 4.61 C 92.51 4.27 71.81 4.29 47.75 4.66 L 4.00 5.32 L 4.00 7.66 L 4.00 10.00 L 44.38 10.00 L 84.77 10.00 L 85.37 12.25 C 85.70 13.49 85.98 32.84 85.99 55.25 L 86.00 96.00 L 88.50 96.00 L 91.00 96.00 L 91.00 53.00 Z M 96.00 54.00 C 96.00 52.00 95.50 51.00 94.50 51.00 C 92.99 51.00 92.36 55.02 93.67 56.33 C 95.10 57.77 96.00 56.87 96.00 54.00 Z" fill="none" stroke="rgba(255,255,255,0.92)" stroke-width="1.2" stroke-linejoin="round" fill-rule="evenodd"/>
</svg>
