<svg xmlns="http://www.w3.org/2000/svg" viewBox="0 0 100 100" width="100" height="100">
  <path d="M 0.00 50.00 L 0.00 0.00 L 50.00 0.00 L 100.00 0.00 L 100.00 50.00 L 100.00 100.00 L 50.00 100.00 L 0.00 100.00 L 0.00 50.00 Z M 10.18 66.25 C 10.36 49.89 10.26 31.10 9.97 24.50 C 9.69 17.90 9.85 11.94 10.35 11.25 C 11.04 10.28 20.76 10.00 53.09 10.00 L 94.94 10.00 L 95.25 23.25 L 95.56 36.50 L 95.78 20.50 L 96.00 4.50 L 51.75 4.75 C 27.41 4.88 7.00 5.18 6.38 5.41 C 5.57 5.72 5.24 18.56 5.20 50.92 L 5.14 96.00 L 7.50 96.00 L 9.87 96.00 L 10.18 66.25 Z M 65.54 88.18 C 83.60 81.09 93.16 60.92 87.13 42.65 C 83.72 32.30 76.97 24.73 67.05 20.13 C 59.00 16.40 46.81 16.40 39.00 20.13 C 23.40 27.57 15.08 43.56 17.99 60.50 C 21.90 83.20 44.59 96.41 65.54 88.18 Z M 95.74 75.75 C 95.54 72.86 95.37 75.22 95.37 81.00 C 95.37 86.78 95.54 89.14 95.74 86.25 C 95.94 83.36 95.94 78.64 95.74 75.75 Z M 8.08 83.42 C 8.13 82.25 8.36 82.01 8.68 82.81 C 8.97 83.53 8.94 84.40 8.60 84.73 C 8.27 85.06 8.04 84.47 8.08 83.42 Z M 46.50 84.11 C 36.70 81.47 30.54 76.62 26.37 68.25 C 23.89 63.28 23.50 61.35 23.50 54.00 C 23.50 44.10 25.80 38.20 32.13 31.87 C 38.62 25.38 43.26 23.53 53.00 23.51 C 60.55 23.50 62.09 23.83 66.82 26.45 C 73.29 30.03 77.50 34.66 80.77 41.81 C 82.92 46.51 83.18 48.26 82.81 55.35 C 82.47 61.89 81.85 64.40 79.70 68.08 C 76.16 74.11 70.68 79.49 65.54 81.98 C 60.89 84.23 51.06 85.33 46.50 84.11 Z M 8.08 42.42 C 8.13 41.25 8.36 41.01 8.68 41.81 C 8.97 42.53 8.94 43.40 8.60 43.73 C 8.27 44.06 8.04 43.47 8.08 42.42 Z M 8.16 37.00 C 8.16 35.62 8.38 35.06 8.66 35.75 C 8.94 36.44 8.94 37.56 8.66 38.25 C 8.38 38.94 8.16 38.38 8.16 37.00 Z M 8.23 17.00 C 8.23 15.07 8.44 14.29 8.69 15.25 C 8.94 16.21 8.94 17.79 8.69 18.75 C 8.44 19.71 8.23 18.93 8.23 17.00 Z M 94.08 7.42 C 94.13 6.25 94.36 6.01 94.68 6.81 C 94.97 7.53 94.94 8.40 94.60 8.73 C 94.27 9.06 94.04 8.47 94.08 7.42 Z" fill="none" stroke="rgba(255,255,255,0.92)" stroke-width="1.2" stroke-linejoin="round" fill-rule="evenodd"/>
</svg>
