<svg xmlns="http://www.w3.org/2000/svg" viewBox="0 0 100 100" width="100" height="100">
  <path d="M 0.00 50.00 L 0.00 0.00 L 50.00 0.00 L 100.00 0.00 L 100.00 50.00 L 100.00 100.00 L 50.00 100.00 L 0.00 100.00 L 0.00 50.00 Z M 5.37 54.06 L 4.71 12.12 L 48.61 11.81 C 72.75 11.64 92.84 11.64 93.25 11.81 C 93.66 11.98 94.00 30.99 94.00 54.06 C 94.00 81.35 94.35 96.00 95.00 96.00 C 95.65 96.00 96.00 80.15 96.00 50.45 L 96.00 4.90 L 83.25 5.39 C 76.24 5.66 55.54 5.90 37.25 5.94 L 4.00 6.00 L 4.00 51.00 C 4.00 80.88 4.34 96.00 5.02 96.00 C 5.70 96.00 5.82 82.30 5.37 54.06 Z" fill="none" stroke="rgba(255,255,255,0.92)" stroke-width="1.2" stroke-linejoin="round" fill-rule="evenodd"/>
</svg>
