<svg xmlns="http://www.w3.org/2000/svg" viewBox="0 0 100 100" width="100" height="100">
  <path d="M 0.00 50.00 L 0.00 0.00 L 50.00 0.00 L 100.00 0.00 L 100.00 50.00 L 100.00 100.00 L 50.00 100.00 L 0.00 100.00 L 0.00 50.00 Z M 94.70 50.25 L 94.50 4.50 L 73.50 4.67 C 61.95 4.77 41.59 4.88 28.25 4.92 L 4.00 5.00 L 4.00 7.50 C 4.00 9.36 4.53 10.00 6.06 10.00 C 7.19 10.00 7.84 9.55 7.50 9.00 C 7.16 8.44 7.90 8.01 9.19 8.02 C 10.98 8.03 11.17 8.24 10.05 8.95 C 9.15 9.52 19.70 9.87 37.80 9.89 C 57.84 9.91 67.00 9.59 67.00 8.85 C 67.00 8.24 67.74 8.08 68.75 8.49 C 70.71 9.28 87.35 9.19 89.46 8.38 C 90.52 7.97 90.67 8.60 90.14 11.18 C 89.55 14.06 89.40 51.70 89.86 85.25 C 90.00 95.96 90.01 96.00 92.45 96.00 L 94.91 96.00 L 94.70 50.25 Z M 61.25 86.67 C 75.81 79.54 84.08 64.67 81.93 49.47 C 80.08 36.47 72.16 25.78 60.22 20.18 C 55.20 17.83 53.26 17.50 44.45 17.50 C 34.97 17.50 34.00 17.70 27.62 20.94 C 2.01 33.94 -0.79 67.51 22.40 83.48 C 30.06 88.75 34.87 90.02 46.03 89.71 C 54.10 89.49 56.44 89.02 61.25 86.67 Z M 36.99 83.68 C 28.07 81.70 20.01 75.43 15.31 66.81 C 12.53 61.72 12.74 45.91 15.67 40.50 C 18.45 35.36 25.26 28.86 31.00 25.86 C 37.03 22.71 52.50 22.43 58.00 25.37 C 69.45 31.51 75.10 40.03 75.81 52.23 C 76.22 59.44 76.02 60.52 73.09 66.47 C 69.38 74.01 63.85 79.17 56.54 81.90 C 49.40 84.57 43.43 85.11 36.99 83.68 Z M 92.08 81.42 C 92.13 80.25 92.36 80.01 92.68 80.81 C 92.97 81.53 92.94 82.40 92.60 82.73 C 92.27 83.06 92.04 82.47 92.08 81.42 Z M 91.79 75.00 C 92.03 73.35 92.40 72.00 92.61 72.00 C 92.83 72.00 93.00 73.35 93.00 75.00 C 93.00 76.65 92.63 78.00 92.17 78.00 C 91.72 78.00 91.54 76.65 91.79 75.00 Z M 91.02 67.69 C 91.01 65.40 91.40 64.13 92.00 64.50 C 93.26 65.28 93.26 68.04 92.00 70.00 C 91.28 71.11 91.03 70.52 91.02 67.69 Z M 91.50 62.00 C 91.84 61.45 92.32 61.00 92.56 61.00 C 92.80 61.00 93.00 61.45 93.00 62.00 C 93.00 62.55 92.52 63.00 91.94 63.00 C 91.36 63.00 91.16 62.55 91.50 62.00 Z M 92.16 49.00 C 92.16 47.62 92.38 47.06 92.66 47.75 C 92.94 48.44 92.94 49.56 92.66 50.25 C 92.38 50.94 92.16 50.38 92.16 49.00 Z M 92.08 30.42 C 92.13 29.25 92.36 29.01 92.68 29.81 C 92.97 30.53 92.94 31.40 92.60 31.73 C 92.27 32.06 92.04 31.47 92.08 30.42 Z" fill="none" stroke="rgba(255,255,255,0.92)" stroke-width="1.2" stroke-linejoin="round" fill-rule="evenodd"/>
</svg>
