<svg xmlns="http://www.w3.org/2000/svg" viewBox="0 0 100 100" width="100" height="100">
  <path d="M 0.00 50.00 L 0.00 0.00 L 50.00 0.00 L 100.00 0.00 L 100.00 50.00 L 100.00 100.00 L 50.00 100.00 L 0.00 100.00 L 0.00 50.00 Z M 36.43 93.25 C 35.98 79.09 36.18 80.00 33.50 80.00 C 31.04 80.00 31.00 80.13 31.00 88.07 L 31.00 96.13 L 33.75 95.82 C 35.87 95.57 36.48 94.98 36.43 93.25 Z M 81.55 89.36 C 81.26 85.71 80.45 82.04 79.76 81.19 C 78.68 79.87 78.82 79.74 80.75 80.23 C 83.89 81.04 84.62 79.23 82.11 76.88 C 79.92 74.85 79.34 73.00 80.89 73.00 C 81.38 73.00 82.07 73.74 82.42 74.64 C 82.76 75.55 83.33 76.00 83.68 75.65 C 84.03 75.30 83.50 74.11 82.51 73.01 C 81.51 71.90 81.04 71.00 81.47 71.00 C 81.90 71.00 81.73 70.38 81.10 69.62 C 79.47 67.65 81.40 63.00 83.85 63.00 C 86.61 63.00 88.55 60.43 86.41 59.60 C 85.37 59.20 84.96 58.26 85.29 56.99 C 85.69 55.46 85.32 55.00 83.65 55.00 C 81.69 55.00 81.49 54.48 81.51 49.25 C 81.51 46.09 81.21 42.54 80.83 41.38 C 80.45 40.21 80.61 38.79 81.19 38.21 C 82.89 36.51 81.12 35.00 77.44 35.00 C 75.05 35.00 74.00 35.46 74.00 36.50 C 74.00 37.33 74.40 38.00 74.88 38.00 C 75.37 38.00 75.99 38.86 76.27 39.91 C 76.62 41.25 76.15 41.99 74.72 42.36 C 72.99 42.81 72.87 43.14 73.96 44.45 C 75.03 45.74 74.97 46.00 73.62 46.00 C 71.71 46.00 71.40 49.59 73.25 50.34 C 73.94 50.62 71.51 50.88 67.86 50.92 C 64.07 50.97 60.00 51.64 58.36 52.49 C 56.44 53.50 56.08 53.99 57.25 53.99 C 58.21 54.00 59.00 54.67 59.00 55.50 C 59.00 56.55 60.06 57.00 62.56 57.00 C 64.68 57.00 65.87 57.40 65.50 58.00 C 65.16 58.55 65.58 59.00 66.44 59.00 C 67.30 59.00 68.00 58.55 68.00 58.00 C 68.00 57.45 68.45 57.00 69.00 57.00 C 70.53 57.00 70.19 59.13 68.34 61.18 C 66.37 63.36 67.28 64.84 69.48 63.02 C 70.52 62.16 71.00 62.11 71.00 62.88 C 71.00 63.49 71.76 64.00 72.69 64.00 C 74.21 64.00 74.20 63.86 72.55 62.66 C 70.79 61.37 70.79 61.30 72.53 60.63 C 73.52 60.25 74.77 60.37 75.31 60.91 C 75.88 61.48 76.22 68.97 76.12 78.94 L 75.96 96.00 L 79.02 96.00 L 82.09 96.00 L 81.55 89.36 Z M 78.08 91.42 C 78.13 90.25 78.36 90.01 78.68 90.81 C 78.97 91.53 78.94 92.40 78.60 92.73 C 78.27 93.06 78.04 92.47 78.08 91.42 Z M 13.50 81.00 C 17.88 75.64 18.29 74.22 15.94 72.73 C 14.72 71.96 13.27 72.91 9.26 77.12 C 4.51 82.10 4.25 82.62 5.72 84.25 C 8.06 86.83 9.09 86.41 13.50 81.00 Z M 64.20 82.32 C 66.00 80.69 65.88 80.44 60.82 75.32 C 57.93 72.39 55.15 70.00 54.64 70.00 C 54.14 70.00 53.13 70.79 52.42 71.75 C 51.28 73.28 51.75 74.15 56.27 78.75 C 59.11 81.64 61.64 84.00 61.89 84.00 C 62.14 84.00 63.18 83.24 64.20 82.32 Z M 78.00 76.94 C 78.00 76.36 78.45 76.16 79.00 76.50 C 79.55 76.84 80.00 77.32 80.00 77.56 C 80.00 77.80 79.55 78.00 79.00 78.00 C 78.45 78.00 78.00 77.52 78.00 76.94 Z M 43.00 72.47 C 55.88 65.78 57.69 47.49 46.38 38.16 C 39.56 32.54 33.28 31.72 25.31 35.43 C 13.13 41.11 10.04 57.08 19.13 67.41 C 25.33 74.46 35.15 76.54 43.00 72.47 Z M 28.50 67.59 C 21.71 64.57 18.07 56.91 20.13 49.99 C 21.50 45.39 22.82 43.69 27.02 41.13 C 36.84 35.14 48.74 43.23 47.71 55.21 C 47.18 61.35 43.51 66.23 38.22 67.81 C 33.32 69.28 32.26 69.26 28.50 67.59 Z M 61.00 67.00 C 61.00 66.45 60.55 66.00 60.00 66.00 C 59.45 66.00 59.00 66.45 59.00 67.00 C 59.00 67.55 59.45 68.00 60.00 68.00 C 60.55 68.00 61.00 67.55 61.00 67.00 Z M 65.50 65.00 C 65.16 64.45 64.43 64.00 63.88 64.00 C 63.33 64.00 63.16 64.45 63.50 65.00 C 63.84 65.55 64.57 66.00 65.12 66.00 C 65.67 66.00 65.84 65.55 65.50 65.00 Z M 91.00 57.48 C 91.00 56.64 92.12 55.52 93.50 55.00 C 95.26 54.33 96.00 53.30 96.00 51.52 C 96.00 50.09 95.43 49.00 94.67 49.00 C 92.65 49.00 91.90 50.17 93.04 51.54 C 93.78 52.44 93.38 52.94 91.53 53.40 C 89.67 53.87 89.00 54.70 89.00 56.52 C 89.00 57.88 89.45 59.00 90.00 59.00 C 90.55 59.00 91.00 58.31 91.00 57.48 Z M 8.49 54.00 C 8.50 52.17 7.90 51.41 6.25 51.18 C 4.33 50.91 4.00 51.32 4.00 54.00 C 4.00 56.68 4.33 57.09 6.24 56.82 C 7.88 56.59 8.49 55.82 8.49 54.00 Z M 75.16 53.00 C 75.16 51.62 75.38 51.06 75.66 51.75 C 75.94 52.44 75.94 53.56 75.66 54.25 C 75.38 54.94 75.16 54.38 75.16 53.00 Z M 63.64 46.30 C 63.23 45.89 62.47 46.22 61.96 47.03 C 60.42 49.46 60.88 50.55 62.69 48.74 C 63.62 47.81 64.05 46.71 63.64 46.30 Z M 76.00 48.44 C 76.00 47.58 76.45 47.16 77.00 47.50 C 77.55 47.84 78.00 48.54 78.00 49.06 C 78.00 49.58 77.55 50.00 77.00 50.00 C 76.45 50.00 76.00 49.30 76.00 48.44 Z M 89.39 44.42 C 89.84 43.24 90.76 43.01 93.00 43.50 C 96.80 44.33 97.09 42.31 93.30 41.36 C 91.59 40.93 90.46 41.11 90.22 41.85 C 89.64 43.57 88.00 42.18 88.00 39.98 C 88.00 37.77 84.47 35.43 83.50 37.00 C 83.16 37.55 83.47 38.01 84.19 38.02 C 85.24 38.03 85.25 38.19 84.23 38.84 C 83.25 39.46 83.43 40.08 84.98 41.48 C 86.09 42.49 87.00 43.92 87.00 44.65 C 87.00 46.51 88.65 46.35 89.39 44.42 Z M 68.00 40.11 C 68.00 38.98 63.23 37.74 61.94 38.54 C 61.40 38.87 61.23 39.56 61.54 40.07 C 62.28 41.26 68.00 41.29 68.00 40.11 Z M 71.00 40.00 C 71.00 39.45 70.55 39.00 70.00 39.00 C 69.45 39.00 69.00 39.45 69.00 40.00 C 69.00 40.55 69.45 41.00 70.00 41.00 C 70.55 41.00 71.00 40.55 71.00 40.00 Z M 94.00 39.00 C 94.00 38.45 93.55 38.00 93.00 38.00 C 92.45 38.00 92.00 38.45 92.00 39.00 C 92.00 39.55 92.45 40.00 93.00 40.00 C 93.55 40.00 94.00 39.55 94.00 39.00 Z M 11.48 28.89 C 5.98 23.69 4.00 23.32 4.00 27.48 C 4.00 29.06 5.58 31.20 8.75 33.93 C 13.45 37.98 13.52 38.00 15.17 35.99 C 16.78 34.05 16.64 33.77 11.48 28.89 Z M 58.22 31.29 C 63.51 26.07 63.85 25.08 61.16 22.64 C 59.41 21.06 59.06 21.28 54.22 26.84 C 49.48 32.28 49.24 32.81 50.78 34.35 C 51.69 35.26 52.65 36.00 52.93 36.00 C 53.21 36.00 55.58 33.88 58.22 31.29 Z M 78.23 30.09 C 77.99 28.49 78.28 26.35 78.87 25.34 C 79.78 23.77 79.95 24.02 80.03 27.00 C 80.11 29.81 80.29 30.10 80.93 28.50 C 81.38 27.40 81.72 21.66 81.70 15.75 L 81.66 5.00 L 42.83 5.00 L 4.00 5.00 L 4.00 7.50 L 4.00 10.00 L 39.92 10.00 L 75.84 10.00 L 76.40 12.75 C 76.70 14.26 76.89 16.18 76.82 17.00 C 76.41 21.61 77.12 33.00 77.83 33.00 C 78.28 33.00 78.46 31.69 78.23 30.09 Z M 91.50 28.00 C 91.16 27.45 90.01 27.00 88.94 27.00 C 87.87 27.00 87.00 27.45 87.00 28.00 C 87.00 28.55 88.15 29.00 89.56 29.00 C 91.01 29.00 91.85 28.57 91.50 28.00 Z M 36.79 19.75 L 37.08 12.00 L 34.04 12.00 L 31.00 12.00 L 31.00 19.33 C 31.00 27.30 31.38 28.23 34.46 27.79 C 36.28 27.53 36.53 26.68 36.79 19.75 Z M 78.00 9.50 C 78.00 8.12 78.39 7.00 78.88 7.00 C 79.36 7.00 79.75 8.12 79.75 9.50 C 79.75 10.88 79.36 12.00 78.88 12.00 C 78.39 12.00 78.00 10.88 78.00 9.50 Z M 65.00 8.00 C 65.00 7.45 65.41 7.00 65.92 7.00 C 66.42 7.00 67.66 6.74 68.67 6.42 C 70.34 5.89 70.34 5.97 68.56 7.42 C 66.34 9.23 65.00 9.45 65.00 8.00 Z M 18.00 7.00 C 18.00 6.45 18.45 6.00 19.00 6.00 C 19.55 6.00 20.00 6.45 20.00 7.00 C 20.00 7.55 19.55 8.00 19.00 8.00 C 18.45 8.00 18.00 7.55 18.00 7.00 Z M 29.81 7.32 C 30.53 7.03 31.40 7.06 31.73 7.40 C 32.06 7.73 31.47 7.96 30.42 7.92 C 29.25 7.87 29.01 7.64 29.81 7.32 Z M 71.81 7.32 C 72.53 7.03 73.40 7.06 73.73 7.40 C 74.06 7.73 73.47 7.96 72.42 7.92 C 71.25 7.87 71.01 7.64 71.81 7.32 Z M 23.81 6.32 C 24.53 6.03 25.40 6.06 25.73 6.40 C 26.06 6.73 25.47 6.96 24.42 6.92 C 23.25 6.87 23.01 6.64 23.81 6.32 Z" fill="none" stroke="rgba(255,255,255,0.92)" stroke-width="1.2" stroke-linejoin="round" fill-rule="evenodd"/>
</svg>
