<svg xmlns="http://www.w3.org/2000/svg" viewBox="0 0 400 288" width="400" height="288">
  <path d="M 0.00 144.00 L 0.00 0.00 L 200.00 0.00 L 400.00 0.00 L 400.00 144.00 L 400.00 288.00 L 200.00 288.00 L 0.00 288.00 L 0.00 144.00 Z M 255.00 281.54 C 295.98 281.30 344.02 281.08 361.76 281.05 L 394.02 281.00 L 393.43 183.08 C 393.11 129.23 392.77 67.47 392.67 45.83 L 392.50 6.50 L 364.50 6.60 C 349.10 6.65 308.60 6.99 274.50 7.35 C 240.40 7.72 175.60 8.28 130.50 8.61 C 85.40 8.94 43.55 9.32 37.50 9.46 C 31.45 9.60 22.07 9.78 16.65 9.86 L 6.80 10.00 L 7.46 73.25 C 7.82 108.04 8.24 168.93 8.38 208.56 C 8.53 248.19 8.96 281.13 9.35 281.76 C 10.06 282.91 19.54 282.90 255.00 281.54 Z M 20.75 279.34 C 21.44 279.06 22.56 279.06 23.25 279.34 C 23.94 279.62 23.38 279.84 22.00 279.84 C 20.62 279.84 20.06 279.62 20.75 279.34 Z M 97.50 279.00 C 97.16 278.45 97.81 278.00 98.94 278.00 C 100.07 278.00 101.00 278.45 101.00 279.00 C 101.00 279.55 100.35 280.00 99.56 280.00 C 98.77 280.00 97.84 279.55 97.50 279.00 Z M 125.50 279.00 C 125.16 278.45 125.61 278.00 126.50 278.00 C 127.39 278.00 127.84 278.45 127.50 279.00 C 127.16 279.55 126.71 280.00 126.50 280.00 C 126.29 280.00 125.84 279.55 125.50 279.00 Z M 135.50 279.00 C 134.72 277.73 136.04 277.73 138.00 279.00 C 139.29 279.84 139.27 279.97 137.81 279.98 C 136.88 279.99 135.84 279.55 135.50 279.00 Z M 142.50 279.00 C 142.84 278.45 143.32 278.00 143.56 278.00 C 143.80 278.00 144.00 278.45 144.00 279.00 C 144.00 279.55 143.52 280.00 142.94 280.00 C 142.36 280.00 142.16 279.55 142.50 279.00 Z M 235.88 278.91 C 234.87 278.27 235.18 278.02 237.00 278.00 C 238.38 277.99 240.62 277.69 242.00 277.34 C 245.49 276.45 243.94 277.87 240.27 278.92 C 238.57 279.41 236.67 279.40 235.88 278.91 Z M 263.00 279.00 C 261.79 278.22 261.95 278.03 263.81 278.02 C 265.10 278.01 265.84 278.44 265.50 279.00 C 264.76 280.20 264.86 280.20 263.00 279.00 Z M 104.27 278.31 C 105.24 278.05 106.59 278.07 107.27 278.34 C 107.95 278.62 107.15 278.83 105.50 278.81 C 103.85 278.78 103.30 278.56 104.27 278.31 Z M 186.00 278.00 C 186.00 277.45 186.70 277.00 187.56 277.00 C 188.42 277.00 188.84 277.45 188.50 278.00 C 188.16 278.55 187.46 279.00 186.94 279.00 C 186.42 279.00 186.00 278.55 186.00 278.00 Z M 210.00 278.00 C 210.00 277.45 211.12 277.00 212.50 277.00 C 213.88 277.00 215.00 277.45 215.00 278.00 C 215.00 278.55 213.88 279.00 212.50 279.00 C 211.12 279.00 210.00 278.55 210.00 278.00 Z M 217.75 278.34 C 218.44 278.06 219.56 278.06 220.25 278.34 C 220.94 278.62 220.38 278.84 219.00 278.84 C 217.62 278.84 217.06 278.62 217.75 278.34 Z M 230.00 278.00 C 231.96 276.74 234.00 276.74 234.00 278.00 C 234.00 278.55 232.76 278.99 231.25 278.98 C 229.11 278.97 228.83 278.76 230.00 278.00 Z M 246.75 278.34 C 247.44 278.06 248.56 278.06 249.25 278.34 C 249.94 278.62 249.38 278.84 248.00 278.84 C 246.62 278.84 246.06 278.62 246.75 278.34 Z M 256.81 278.32 C 257.53 278.03 258.40 278.06 258.73 278.40 C 259.06 278.73 258.47 278.96 257.42 278.92 C 256.25 278.87 256.01 278.64 256.81 278.32 Z M 290.50 278.00 C 290.16 277.45 290.36 277.00 290.94 277.00 C 291.52 277.00 292.00 277.45 292.00 278.00 C 292.00 278.55 291.80 279.00 291.56 279.00 C 291.32 279.00 290.84 278.55 290.50 278.00 Z M 317.50 278.00 C 317.16 277.45 317.78 277.00 318.88 277.00 C 319.98 277.00 321.16 277.45 321.50 278.00 C 321.84 278.55 321.22 279.00 320.12 279.00 C 319.02 279.00 317.84 278.55 317.50 278.00 Z M 324.56 278.10 C 324.26 277.61 325.58 277.20 327.50 277.20 C 329.43 277.20 331.00 277.61 331.00 278.10 C 331.00 278.59 329.68 279.00 328.06 279.00 C 326.44 279.00 324.87 278.59 324.56 278.10 Z M 337.81 278.32 C 338.53 278.03 339.40 278.06 339.73 278.40 C 340.06 278.73 339.47 278.96 338.42 278.92 C 337.25 278.87 337.01 278.64 337.81 278.32 Z M 346.00 277.91 C 346.00 277.41 346.90 277.00 348.00 277.00 C 349.10 277.00 350.00 277.17 350.00 277.38 C 350.00 277.59 349.10 278.00 348.00 278.29 C 346.90 278.58 346.00 278.40 346.00 277.91 Z M 353.16 278.12 C 352.19 277.51 352.61 277.12 354.65 276.73 C 357.81 276.12 359.33 276.66 358.46 278.07 C 357.74 279.23 354.95 279.25 353.16 278.12 Z M 364.50 278.00 C 364.84 277.45 366.22 277.00 367.56 277.00 C 368.90 277.00 370.00 277.45 370.00 278.00 C 370.00 278.55 368.62 279.00 366.94 279.00 C 365.16 279.00 364.14 278.58 364.50 278.00 Z M 374.50 278.00 C 374.16 277.45 374.81 277.00 375.94 277.00 C 377.07 277.00 378.00 277.45 378.00 278.00 C 378.00 278.55 377.35 279.00 376.56 279.00 C 375.77 279.00 374.84 278.55 374.50 278.00 Z M 226.81 277.32 C 227.53 277.03 228.40 277.06 228.73 277.40 C 229.06 277.73 228.47 277.96 227.42 277.92 C 226.25 277.87 226.01 277.64 226.81 277.32 Z M 15.15 237.77 C 15.01 217.27 14.75 189.14 14.56 175.25 L 14.24 150.00 L 16.87 149.98 C 18.32 149.97 44.53 149.70 75.12 149.38 C 107.11 149.04 131.54 149.17 132.62 149.69 C 133.72 150.21 159.49 150.23 194.92 149.72 C 228.15 149.25 256.27 149.10 257.42 149.39 C 259.50 149.91 259.50 149.97 259.62 211.96 L 259.75 274.00 L 230.12 274.04 C 213.83 274.06 187.35 274.20 171.28 274.34 C 148.20 274.54 141.95 274.32 141.56 273.30 C 141.29 272.59 140.78 245.58 140.42 213.26 C 140.06 180.94 139.59 154.19 139.37 153.81 C 139.14 153.43 137.73 153.22 136.23 153.33 L 133.50 153.55 L 133.65 213.66 L 133.81 273.78 L 130.15 274.35 C 128.14 274.67 101.51 274.95 70.96 274.98 L 15.42 275.04 L 15.15 237.77 Z M 267.59 273.15 C 267.27 272.63 266.79 244.47 266.51 210.57 C 266.11 161.93 266.27 148.83 267.25 148.46 C 267.94 148.20 294.99 147.88 327.37 147.75 L 386.24 147.50 L 386.61 210.25 L 386.98 273.00 L 370.74 273.07 C 361.81 273.11 335.08 273.35 311.34 273.61 C 284.90 273.91 267.95 273.73 267.59 273.15 Z M 389.68 270.25 C 389.45 269.84 389.61 268.60 390.05 267.50 C 390.76 265.75 390.87 265.85 390.93 268.25 C 391.00 270.96 390.53 271.71 389.68 270.25 Z M 262.07 265.25 C 262.13 262.81 262.24 262.73 263.00 264.50 C 264.17 267.23 264.17 268.00 263.00 268.00 C 262.45 268.00 262.03 266.76 262.07 265.25 Z M 137.08 261.42 C 137.13 260.25 137.36 260.01 137.68 260.81 C 137.97 261.53 137.94 262.40 137.60 262.73 C 137.27 263.06 137.04 262.47 137.08 261.42 Z M 262.50 257.00 C 262.12 255.82 262.04 254.62 262.32 254.35 C 262.59 254.07 263.12 254.82 263.50 256.00 C 263.88 257.18 263.96 258.38 263.68 258.65 C 263.41 258.93 262.88 258.18 262.50 257.00 Z M 136.19 251.50 C 136.22 249.85 136.44 249.30 136.69 250.27 C 136.95 251.24 136.93 252.59 136.66 253.27 C 136.38 253.95 136.17 253.15 136.19 251.50 Z M 136.08 241.42 C 136.13 240.25 136.36 240.01 136.68 240.81 C 136.97 241.53 136.94 242.40 136.60 242.73 C 136.27 243.06 136.04 242.47 136.08 241.42 Z M 264.08 237.42 C 264.13 236.25 264.36 236.01 264.68 236.81 C 264.97 237.53 264.94 238.40 264.60 238.73 C 264.27 239.06 264.04 238.47 264.08 237.42 Z M 390.08 231.42 C 390.13 230.25 390.36 230.01 390.68 230.81 C 390.97 231.53 390.94 232.40 390.60 232.73 C 390.27 233.06 390.04 232.47 390.08 231.42 Z M 390.08 227.42 C 390.13 226.25 390.36 226.01 390.68 226.81 C 390.97 227.53 390.94 228.40 390.60 228.73 C 390.27 229.06 390.04 228.47 390.08 227.42 Z M 263.00 223.50 C 263.00 221.57 263.18 220.00 263.39 220.00 C 263.61 220.00 263.97 221.57 264.19 223.50 C 264.41 225.43 264.24 227.00 263.80 227.00 C 263.36 227.00 263.00 225.43 263.00 223.50 Z M 12.00 219.06 C 12.00 218.54 12.45 217.84 13.00 217.50 C 13.55 217.16 14.00 217.58 14.00 218.44 C 14.00 219.30 13.55 220.00 13.00 220.00 C 12.45 220.00 12.00 219.58 12.00 219.06 Z M 390.16 218.00 C 390.16 216.62 390.38 216.06 390.66 216.75 C 390.94 217.44 390.94 218.56 390.66 219.25 C 390.38 219.94 390.16 219.38 390.16 218.00 Z M 11.50 214.00 C 11.16 213.45 11.36 213.00 11.94 213.00 C 12.52 213.00 13.00 213.45 13.00 214.00 C 13.00 214.55 12.80 215.00 12.56 215.00 C 12.32 215.00 11.84 214.55 11.50 214.00 Z M 389.70 212.66 C 389.42 211.92 389.59 210.68 390.08 209.91 C 390.73 208.88 390.97 209.25 390.98 211.25 C 391.00 214.24 390.51 214.77 389.70 212.66 Z M 262.08 208.42 C 262.13 207.25 262.36 207.01 262.68 207.81 C 262.97 208.53 262.94 209.40 262.60 209.73 C 262.27 210.06 262.04 209.47 262.08 208.42 Z M 12.08 203.42 C 12.13 202.25 12.36 202.01 12.68 202.81 C 12.97 203.53 12.94 204.40 12.60 204.73 C 12.27 205.06 12.04 204.47 12.08 203.42 Z M 390.16 201.00 C 390.16 199.62 390.38 199.06 390.66 199.75 C 390.94 200.44 390.94 201.56 390.66 202.25 C 390.38 202.94 390.16 202.38 390.16 201.00 Z M 390.23 188.00 C 390.23 186.07 390.44 185.29 390.69 186.25 C 390.94 187.21 390.94 188.79 390.69 189.75 C 390.44 190.71 390.23 189.93 390.23 188.00 Z M 262.00 187.56 C 262.00 186.15 262.45 185.00 263.00 185.00 C 263.55 185.00 264.00 185.87 264.00 186.94 C 264.00 188.01 263.55 189.16 263.00 189.50 C 262.43 189.85 262.00 189.01 262.00 187.56 Z M 390.16 182.00 C 390.16 180.62 390.38 180.06 390.66 180.75 C 390.94 181.44 390.94 182.56 390.66 183.25 C 390.38 183.94 390.16 183.38 390.16 182.00 Z M 262.09 181.00 C 262.06 179.62 262.47 177.82 263.00 177.00 C 263.80 175.76 263.96 175.85 263.91 177.50 C 263.88 178.60 263.47 180.40 263.00 181.50 C 262.21 183.33 262.14 183.29 262.09 181.00 Z M 389.61 176.42 C 388.66 173.94 388.90 170.00 390.00 170.00 C 390.55 170.00 391.00 171.80 391.00 174.00 C 391.00 178.26 390.59 178.98 389.61 176.42 Z M 262.53 169.71 C 262.10 168.72 262.03 167.63 262.38 167.29 C 263.39 166.27 264.21 167.70 263.74 169.67 C 263.33 171.42 263.27 171.42 262.53 169.71 Z M 390.08 164.42 C 390.13 163.25 390.36 163.01 390.68 163.81 C 390.97 164.53 390.94 165.40 390.60 165.73 C 390.27 166.06 390.04 165.47 390.08 164.42 Z M 262.22 158.25 C 262.33 155.64 262.05 152.71 261.60 151.75 C 260.96 150.38 261.24 150.00 262.89 150.00 C 264.52 150.00 264.89 150.50 264.57 152.25 C 264.34 153.49 264.12 156.41 264.07 158.75 C 264.03 161.09 263.55 163.00 263.01 163.00 C 262.46 163.00 262.11 160.86 262.22 158.25 Z M 37.81 146.32 C 38.53 146.03 39.40 146.06 39.73 146.40 C 40.06 146.73 39.47 146.96 38.42 146.92 C 37.25 146.87 37.01 146.64 37.81 146.32 Z M 50.81 146.32 C 51.53 146.03 52.40 146.06 52.73 146.40 C 53.06 146.73 52.47 146.96 51.42 146.92 C 50.25 146.87 50.01 146.64 50.81 146.32 Z M 59.75 146.34 C 60.44 146.06 61.56 146.06 62.25 146.34 C 62.94 146.62 62.38 146.84 61.00 146.84 C 59.62 146.84 59.06 146.62 59.75 146.34 Z M 68.27 146.31 C 69.24 146.05 70.59 146.07 71.27 146.34 C 71.95 146.62 71.15 146.83 69.50 146.81 C 67.85 146.78 67.30 146.56 68.27 146.31 Z M 80.81 146.32 C 81.53 146.03 82.40 146.06 82.73 146.40 C 83.06 146.73 82.47 146.96 81.42 146.92 C 80.25 146.87 80.01 146.64 80.81 146.32 Z M 86.81 146.32 C 87.53 146.03 88.40 146.06 88.73 146.40 C 89.06 146.73 88.47 146.96 87.42 146.92 C 86.25 146.87 86.01 146.64 86.81 146.32 Z M 130.55 146.09 C 130.23 145.56 130.39 144.87 130.91 144.55 C 131.44 144.23 132.13 144.39 132.45 144.91 C 132.77 145.44 132.61 146.13 132.09 146.45 C 131.56 146.77 130.87 146.61 130.55 146.09 Z M 20.81 145.32 C 21.53 145.03 22.40 145.06 22.73 145.40 C 23.06 145.73 22.47 145.96 21.42 145.92 C 20.25 145.87 20.01 145.64 20.81 145.32 Z M 267.00 144.00 C 267.00 142.90 267.42 142.00 267.94 142.00 C 268.45 142.00 268.81 142.90 268.73 144.00 C 268.64 145.10 268.22 146.00 267.79 146.00 C 267.35 146.00 267.00 145.10 267.00 144.00 Z M 276.25 145.31 C 277.21 145.06 278.00 144.44 278.00 143.93 C 278.00 143.42 279.46 143.05 281.25 143.12 C 283.35 143.19 283.80 143.40 282.50 143.71 C 281.40 143.98 280.07 144.60 279.55 145.10 C 279.03 145.59 277.68 145.95 276.55 145.88 C 274.86 145.79 274.81 145.69 276.25 145.31 Z M 294.00 144.99 C 294.00 144.37 292.34 144.21 289.75 144.57 C 286.59 145.01 285.89 144.89 287.00 144.10 C 288.83 142.80 297.34 142.63 296.55 143.91 C 296.24 144.42 296.55 145.06 297.24 145.34 C 297.93 145.61 297.49 145.88 296.25 145.92 C 295.01 145.96 294.00 145.54 294.00 144.99 Z M 302.00 144.00 C 302.00 143.45 302.48 143.00 303.06 143.00 C 303.64 143.00 303.84 143.45 303.50 144.00 C 303.16 144.55 302.68 145.00 302.44 145.00 C 302.20 145.00 302.00 144.55 302.00 144.00 Z M 306.00 144.03 C 306.00 143.50 306.68 143.32 307.50 143.64 C 308.32 143.95 309.00 144.39 309.00 144.61 C 309.00 144.82 308.32 145.00 307.50 145.00 C 306.68 145.00 306.00 144.56 306.00 144.03 Z M 362.50 143.00 C 360.73 142.24 360.81 142.13 363.25 142.07 C 364.76 142.03 366.00 142.45 366.00 143.00 C 366.00 144.17 365.23 144.17 362.50 143.00 Z M 367.47 143.04 C 367.80 142.52 368.72 142.34 369.53 142.65 C 371.60 143.44 371.36 144.00 368.94 144.00 C 367.81 144.00 367.15 143.57 367.47 143.04 Z M 17.75 142.21 C 16.24 142.02 14.99 141.78 14.97 141.68 C 14.96 141.58 14.68 132.72 14.35 122.00 C 13.97 109.27 13.37 102.25 12.64 101.79 C 11.82 101.28 11.86 100.74 12.76 99.84 C 14.86 97.74 14.06 88.23 11.90 89.56 C 11.40 89.87 11.00 88.91 11.00 87.44 C 11.00 85.17 11.23 84.95 12.50 86.00 C 13.79 87.07 14.00 86.70 13.98 83.37 C 13.97 80.59 13.71 79.92 13.04 80.97 C 11.42 83.54 10.62 81.14 11.81 77.27 C 12.55 74.85 12.61 73.21 11.98 72.58 C 10.50 71.10 10.81 69.00 12.50 69.00 C 13.32 69.00 13.99 68.66 13.98 68.25 C 13.96 67.06 12.36 64.84 11.39 64.66 C 9.86 64.38 10.32 51.04 11.89 50.07 C 12.77 49.53 13.08 48.21 12.75 46.46 C 12.46 44.95 12.59 42.43 13.04 40.86 C 13.49 39.29 13.47 36.66 13.00 35.01 C 12.53 33.37 12.49 31.82 12.91 31.56 C 13.91 30.94 13.03 19.78 11.89 18.55 C 9.86 16.38 11.40 15.87 18.76 16.25 C 27.31 16.70 29.35 16.38 28.34 14.74 C 27.88 14.00 28.28 13.94 29.59 14.55 C 31.74 15.55 87.79 16.16 101.25 15.33 C 107.88 14.92 110.00 14.44 110.00 13.37 C 110.00 12.16 110.33 12.17 112.25 13.41 C 114.99 15.18 131.89 15.99 129.50 14.23 C 127.91 13.06 127.86 11.00 129.43 11.00 C 130.22 11.00 131.10 11.79 131.39 12.75 C 131.68 13.71 132.05 43.08 132.21 78.00 L 132.50 141.50 L 85.00 141.72 C 58.88 141.84 33.67 142.08 29.00 142.25 C 24.32 142.42 19.26 142.40 17.75 142.21 Z M 12.00 140.94 C 12.00 140.36 12.45 140.16 13.00 140.50 C 13.55 140.84 14.00 141.32 14.00 141.56 C 14.00 141.80 13.55 142.00 13.00 142.00 C 12.45 142.00 12.00 141.52 12.00 140.94 Z M 140.75 109.91 C 140.25 45.54 140.48 17.75 141.50 17.40 C 142.05 17.20 168.49 16.92 200.25 16.77 L 258.00 16.50 L 258.00 78.75 L 258.00 141.00 L 214.66 141.00 C 190.82 141.00 164.50 141.30 156.16 141.66 L 141.00 142.31 L 140.75 109.91 Z M 266.53 139.22 C 265.83 137.38 265.94 18.24 266.65 13.78 C 266.98 11.72 267.66 10.29 268.15 10.59 C 268.65 10.90 268.93 11.90 268.78 12.83 C 268.44 14.86 272.40 15.56 276.04 14.11 C 278.32 13.20 278.23 13.12 274.75 13.06 C 271.86 13.01 271.00 12.60 271.02 11.25 C 271.03 9.85 271.21 9.78 271.92 10.90 C 272.52 11.85 273.89 12.12 276.24 11.74 C 278.13 11.43 280.31 11.58 281.09 12.07 C 282.20 12.78 282.10 12.97 280.58 12.98 C 279.53 12.99 278.95 13.28 279.29 13.62 C 279.63 13.96 284.43 14.21 289.95 14.18 C 295.48 14.15 312.71 14.09 328.25 14.04 C 346.88 14.00 355.99 13.64 355.00 13.00 C 353.83 12.24 354.09 12.03 356.19 12.02 C 357.67 12.01 359.12 12.39 359.41 12.86 C 360.16 14.07 384.07 13.33 385.35 12.05 C 386.90 10.50 388.44 10.77 387.12 12.36 C 386.31 13.33 386.01 31.31 386.06 76.46 C 386.10 110.97 385.97 139.36 385.77 139.56 C 385.58 139.76 358.78 140.05 326.22 140.21 C 278.93 140.44 266.92 140.24 266.53 139.22 Z M 93.13 127.82 C 120.75 114.64 131.74 79.88 116.79 53.00 C 107.11 35.59 91.75 26.38 73.00 26.73 C 53.60 27.10 37.81 37.80 28.70 56.76 L 24.50 65.50 L 24.50 79.00 C 24.50 92.04 24.61 92.76 27.77 100.08 C 33.90 114.28 44.60 124.54 58.50 129.56 C 64.64 131.77 66.74 132.04 75.63 131.71 C 84.74 131.38 86.49 130.99 93.13 127.82 Z M 339.07 128.39 C 356.13 123.33 368.60 110.62 374.29 92.50 C 376.84 84.40 377.20 79.76 375.99 70.88 C 372.64 46.40 356.23 28.78 333.07 24.80 C 327.38 23.83 324.88 23.91 318.00 25.26 C 307.42 27.34 300.37 30.84 293.04 37.62 C 279.51 50.15 273.16 68.13 275.94 86.05 C 278.91 105.22 293.16 122.18 311.05 127.85 C 319.11 130.40 331.49 130.64 339.07 128.39 Z M 63.74 122.44 C 56.29 120.63 52.79 118.77 47.25 113.67 C 37.12 104.32 32.00 92.03 32.00 77.03 C 32.00 64.43 40.68 48.76 51.44 41.93 C 60.00 36.51 63.63 35.50 74.50 35.51 C 83.13 35.52 85.25 35.88 90.00 38.10 C 97.04 41.39 105.84 49.45 109.26 55.74 C 116.95 69.87 117.02 88.75 109.44 101.70 C 102.83 112.97 93.39 119.89 81.10 122.48 C 72.57 124.27 71.30 124.27 63.74 122.44 Z M 315.74 120.44 C 308.50 118.68 304.76 116.75 298.70 111.65 C 282.37 97.88 278.93 69.12 291.57 51.91 C 300.41 39.86 310.62 33.87 323.48 33.20 C 335.68 32.56 342.87 34.90 352.75 42.75 C 363.56 51.34 370.20 68.79 367.98 82.76 C 364.98 101.65 352.57 115.97 335.36 120.41 C 328.03 122.30 323.47 122.31 315.74 120.44 Z M 389.00 117.50 C 389.00 116.67 389.45 116.00 390.00 116.00 C 390.55 116.00 391.00 116.67 391.00 117.50 C 391.00 118.33 390.55 119.00 390.00 119.00 C 389.45 119.00 389.00 118.33 389.00 117.50 Z M 389.00 107.33 C 389.00 100.49 389.51 100.65 390.31 107.75 C 390.66 110.83 390.51 113.00 389.95 113.00 C 389.43 113.00 389.00 110.45 389.00 107.33 Z M 10.00 107.44 C 10.00 106.58 10.45 106.16 11.00 106.50 C 11.55 106.84 12.00 107.54 12.00 108.06 C 12.00 108.58 11.55 109.00 11.00 109.00 C 10.45 109.00 10.00 108.30 10.00 107.44 Z M 388.06 98.47 C 388.11 94.66 389.56 85.96 389.97 87.00 C 390.91 89.42 390.49 98.85 389.37 100.47 C 388.11 102.28 388.00 102.12 388.06 98.47 Z M 389.50 83.00 C 389.84 82.45 390.32 82.00 390.56 82.00 C 390.80 82.00 391.00 82.45 391.00 83.00 C 391.00 83.55 390.52 84.00 389.94 84.00 C 389.36 84.00 389.16 83.55 389.50 83.00 Z M 389.00 71.44 C 389.00 69.48 389.37 68.11 389.83 68.40 C 390.62 68.88 390.21 75.00 389.39 75.00 C 389.17 75.00 389.00 73.40 389.00 71.44 Z M 13.69 58.27 C 13.44 57.30 13.22 57.85 13.19 59.50 C 13.17 61.15 13.38 61.95 13.66 61.27 C 13.93 60.59 13.95 59.24 13.69 58.27 Z M 389.08 58.42 C 389.13 57.25 389.36 57.01 389.68 57.81 C 389.97 58.53 389.94 59.40 389.60 59.73 C 389.27 60.06 389.04 59.47 389.08 58.42 Z M 389.27 43.00 C 389.27 40.52 389.47 39.51 389.71 40.75 C 389.94 41.99 389.94 44.01 389.71 45.25 C 389.47 46.49 389.27 45.48 389.27 43.00 Z M 10.16 27.00 C 10.16 25.62 10.38 25.06 10.66 25.75 C 10.94 26.44 10.94 27.56 10.66 28.25 C 10.38 28.94 10.16 28.38 10.16 27.00 Z M 389.19 26.50 C 389.22 24.85 389.44 24.30 389.69 25.27 C 389.95 26.24 389.93 27.59 389.66 28.27 C 389.38 28.95 389.17 28.15 389.19 26.50 Z M 389.27 16.00 C 389.27 13.52 389.47 12.51 389.71 13.75 C 389.94 14.99 389.94 17.01 389.71 18.25 C 389.47 19.49 389.27 18.48 389.27 16.00 Z M 91.67 13.33 C 90.52 12.18 90.94 11.00 92.50 11.00 C 93.33 11.00 94.00 11.42 94.00 11.93 C 94.00 12.45 95.24 13.05 96.75 13.28 C 99.07 13.64 98.94 13.72 95.92 13.85 C 93.95 13.93 92.03 13.70 91.67 13.33 Z M 376.25 9.31 C 377.21 9.06 378.79 9.06 379.75 9.31 C 380.71 9.56 379.93 9.77 378.00 9.77 C 376.07 9.77 375.29 9.56 376.25 9.31 Z" fill="none" stroke="rgba(255,255,255,0.92)" stroke-width="1.5" stroke-linejoin="round" fill-rule="evenodd"/>
</svg>
