<svg xmlns="http://www.w3.org/2000/svg" viewBox="0 0 100 100" width="100" height="100">
  <path d="M 0.00 50.00 L 0.00 0.00 L 50.00 0.00 L 100.00 0.00 L 100.00 50.00 L 100.00 100.00 L 50.00 100.00 L 0.00 100.00 L 0.00 50.00 Z M 10.66 84.00 C 10.48 77.40 10.09 71.76 9.79 71.46 C 9.50 71.16 9.48 68.91 9.76 66.46 C 10.09 63.51 9.88 62.00 9.13 62.00 C 8.51 62.00 8.00 61.34 8.00 60.53 C 8.00 59.64 8.59 59.29 9.50 59.64 C 10.32 59.95 11.00 59.70 11.00 59.08 C 11.00 58.45 10.31 57.67 9.47 57.35 C 8.50 56.98 8.16 56.07 8.54 54.88 C 9.67 51.31 9.97 44.90 8.97 45.52 C 8.38 45.88 8.00 43.70 8.00 40.00 C 8.00 36.64 8.36 34.10 8.79 34.37 C 10.06 35.16 10.14 13.87 8.87 12.34 C 7.96 11.24 8.92 11.00 14.13 10.98 C 71.65 10.82 83.00 10.63 83.00 9.82 C 83.00 9.30 83.50 9.19 84.10 9.56 C 84.71 9.94 87.63 10.38 90.60 10.54 C 95.75 10.83 96.00 10.73 96.00 8.39 L 96.00 5.94 L 69.85 6.03 C 55.47 6.08 35.08 6.39 24.54 6.71 L 5.38 7.30 L 5.57 27.90 C 5.68 39.23 5.82 59.19 5.88 72.25 L 6.00 96.00 L 8.50 96.00 L 10.99 96.00 L 10.66 84.00 Z M 71.50 88.00 C 89.95 79.20 97.90 56.54 88.81 38.65 C 86.18 33.47 79.53 26.39 74.54 23.47 C 56.05 12.64 30.20 20.54 21.18 39.78 C 18.86 44.73 18.50 46.78 18.50 55.05 C 18.50 63.96 18.73 65.06 21.94 71.39 C 31.09 89.41 53.09 96.78 71.50 88.00 Z M 47.50 85.13 C 28.78 80.22 18.76 59.55 26.84 42.50 C 30.08 35.68 35.33 30.48 42.54 26.96 C 49.38 23.62 61.42 23.52 68.00 26.74 C 78.23 31.76 84.03 39.40 86.10 50.57 C 88.47 63.38 81.05 76.78 68.35 82.67 C 62.79 85.24 52.54 86.45 47.50 85.13 Z M 8.08 74.42 C 8.13 73.25 8.36 73.01 8.68 73.81 C 8.97 74.53 8.94 75.40 8.60 75.73 C 8.27 76.06 8.04 75.47 8.08 74.42 Z M 69.00 9.00 C 67.67 8.14 67.67 8.04 69.00 8.09 C 69.83 8.12 71.40 8.53 72.50 9.00 L 74.50 9.86 L 72.50 9.91 C 71.40 9.94 69.83 9.53 69.00 9.00 Z" fill="none" stroke="rgba(255,255,255,0.92)" stroke-width="1.2" stroke-linejoin="round" fill-rule="evenodd"/>
</svg>
