<svg xmlns="http://www.w3.org/2000/svg" viewBox="0 0 100 100" width="100" height="100">
  <path d="M 0.00 50.00 L 0.00 0.00 L 50.00 0.00 L 100.00 0.00 L 100.00 50.00 L 100.00 100.00 L 50.00 100.00 L 0.00 100.00 L 0.00 50.00 Z M 75.60 89.37 L 94.70 88.79 L 95.35 73.74 C 95.71 65.46 96.00 46.38 96.00 31.34 L 96.00 4.00 L 93.00 4.00 L 90.00 4.00 L 89.99 24.75 C 89.98 46.59 89.09 80.68 88.48 82.67 C 88.23 83.50 83.24 83.86 71.31 83.91 C 62.07 83.94 43.14 84.27 29.25 84.64 L 4.00 85.30 L 4.00 88.21 L 4.00 91.11 L 30.25 90.53 C 44.69 90.21 65.09 89.69 75.60 89.37 Z" fill="none" stroke="rgba(255,255,255,0.92)" stroke-width="1.2" stroke-linejoin="round" fill-rule="evenodd"/>
</svg>
