<svg xmlns="http://www.w3.org/2000/svg" viewBox="0 0 100 100" width="100" height="100">
  <path d="M 0.00 50.00 L 0.00 0.00 L 50.00 0.00 L 100.00 0.00 L 100.00 50.00 L 100.00 100.00 L 50.00 100.00 L 0.00 100.00 L 0.00 50.00 Z M 96.00 92.50 L 96.00 89.00 L 74.87 89.00 C 50.11 89.00 47.38 88.44 40.97 82.03 C 34.98 76.03 34.00 72.29 34.01 55.38 C 34.01 38.22 34.89 34.84 40.86 28.86 C 47.79 21.93 51.97 21.00 76.18 21.00 L 96.00 21.00 L 96.00 17.93 L 96.00 14.87 L 72.75 15.21 C 51.38 15.52 49.14 15.72 45.00 17.71 C 36.58 21.75 30.87 28.54 28.66 37.13 C 27.32 42.32 27.22 61.11 28.47 71.80 C 29.51 80.66 37.67 90.19 47.42 93.94 C 51.88 95.66 55.15 95.90 74.25 95.95 L 96.00 96.00 L 96.00 92.50 Z M 96.00 83.12 C 96.00 81.07 95.42 80.08 94.00 79.71 C 92.07 79.21 92.00 78.35 92.00 55.00 C 92.00 31.65 92.07 30.79 94.00 30.29 C 95.42 29.92 96.00 28.93 96.00 26.88 C 96.00 24.49 95.58 24.00 93.56 24.00 C 92.21 24.00 89.89 25.05 88.40 26.33 L 85.69 28.67 L 85.84 55.08 L 85.99 81.50 L 88.55 83.75 C 89.96 84.99 92.21 86.00 93.56 86.00 C 95.58 86.00 96.00 85.51 96.00 83.12 Z M 80.50 73.87 C 83.57 70.78 69.67 69.67 43.25 70.90 C 41.74 70.97 41.00 71.63 41.00 72.92 C 41.00 73.97 41.44 74.98 41.99 75.17 C 44.38 75.97 79.59 74.79 80.50 73.87 Z M 80.71 65.63 C 81.00 65.33 80.98 64.39 80.65 63.54 C 80.15 62.23 77.26 62.00 61.00 62.00 C 44.44 62.00 41.86 62.21 41.32 63.60 C 40.99 64.48 41.31 65.58 42.05 66.03 C 43.49 66.92 79.80 66.54 80.71 65.63 Z M 79.46 56.65 C 83.58 53.64 80.26 53.00 60.44 53.00 C 42.26 53.00 41.00 53.12 41.00 54.83 C 41.00 55.84 41.30 56.97 41.67 57.33 C 42.03 57.70 50.27 58.00 59.98 58.00 C 73.20 58.00 78.08 57.66 79.46 56.65 Z M 80.68 47.40 C 81.01 46.52 80.66 45.40 79.90 44.91 C 79.13 44.43 70.62 44.03 61.00 44.03 C 51.38 44.03 42.87 44.43 42.10 44.91 C 41.34 45.40 40.99 46.52 41.32 47.40 C 41.86 48.79 44.44 49.00 61.00 49.00 C 77.56 49.00 80.14 48.79 80.68 47.40 Z M 80.53 38.96 C 80.88 38.38 80.61 37.23 79.91 36.40 C 78.87 35.13 75.73 34.91 61.08 35.07 C 43.18 35.27 39.63 35.87 40.64 38.52 C 41.12 39.76 44.37 40.00 60.55 40.00 C 72.90 40.00 80.11 39.62 80.53 38.96 Z M 59.75 11.09 L 96.00 11.00 L 96.00 7.97 L 96.00 4.94 L 68.75 5.01 C 53.76 5.04 33.06 5.35 22.75 5.69 L 4.00 6.32 L 4.00 9.19 L 4.00 12.06 L 13.75 11.62 C 19.11 11.37 39.81 11.13 59.75 11.09 Z" fill="none" stroke="rgba(255,255,255,0.92)" stroke-width="1.2" stroke-linejoin="round" fill-rule="evenodd"/>
</svg>
