<svg xmlns="http://www.w3.org/2000/svg" viewBox="0 0 100 100" width="100" height="100">
  <path d="M 0.00 50.00 L 0.00 0.00 L 50.00 0.00 L 100.00 0.00 L 100.00 50.00 L 100.00 100.00 L 50.00 100.00 L 0.00 100.00 L 0.00 50.00 Z M 96.00 93.00 L 96.00 90.00 L 54.00 90.00 L 12.00 90.00 L 11.91 55.25 C 11.86 36.14 11.72 18.02 11.58 15.00 C 11.07 3.33 11.30 4.00 7.87 4.00 L 4.74 4.00 L 5.35 15.25 C 5.69 21.44 5.97 42.14 5.98 61.25 L 6.00 96.00 L 51.00 96.00 L 96.00 96.00 L 96.00 93.00 Z" fill="none" stroke="rgba(255,255,255,0.92)" stroke-width="1.2" stroke-linejoin="round" fill-rule="evenodd"/>
</svg>
