<svg xmlns="http://www.w3.org/2000/svg" viewBox="0 0 100 100" width="100" height="100">
  <path d="M 0.00 50.00 L 0.00 0.00 L 50.00 0.00 L 100.00 0.00 L 100.00 50.00 L 100.00 100.00 L 50.00 100.00 L 0.00 100.00 L 0.00 50.00 Z M 74.25 95.03 L 96.00 95.00 L 96.00 91.98 L 96.00 88.95 L 64.25 89.14 C 46.79 89.24 26.09 89.52 18.25 89.76 L 4.00 90.19 L 4.00 93.20 L 4.00 96.21 L 28.25 95.64 C 41.59 95.32 62.29 95.05 74.25 95.03 Z M 96.00 82.55 L 96.00 79.09 L 81.75 79.19 C 68.91 79.27 67.03 79.06 62.72 77.02 C 56.33 73.99 51.63 68.32 50.07 61.76 C 49.27 58.38 48.94 51.28 49.16 41.92 C 49.49 27.70 49.58 27.21 52.53 22.44 C 54.40 19.42 57.42 16.40 60.44 14.53 C 65.25 11.56 65.62 11.49 80.67 11.16 L 96.00 10.82 L 96.00 7.98 C 96.00 4.41 95.56 4.34 77.50 5.04 C 61.35 5.66 58.24 6.71 50.89 14.03 C 43.13 21.76 41.60 29.54 43.04 53.88 C 43.73 65.59 45.48 70.64 50.84 76.32 C 57.82 83.72 64.85 85.84 82.75 85.93 L 96.00 86.00 L 96.00 82.55 Z M 95.53 63.96 C 95.88 63.38 95.67 62.31 95.06 61.57 C 94.18 60.51 90.10 60.33 75.22 60.71 C 64.93 60.97 56.33 61.35 56.13 61.55 C 55.92 61.75 56.02 62.61 56.35 63.46 C 56.85 64.77 59.73 65.00 75.91 65.00 C 88.01 65.00 95.12 64.62 95.53 63.96 Z M 95.36 55.00 C 97.90 52.57 94.11 52.00 75.44 52.00 C 56.90 52.00 56.00 52.09 56.00 53.93 C 56.00 55.15 56.83 56.00 58.25 56.25 C 62.25 56.94 94.47 55.86 95.36 55.00 Z M 94.82 45.25 L 95.14 43.00 L 76.19 43.00 C 61.69 43.00 56.99 43.31 56.15 44.32 C 53.53 47.47 56.93 48.06 75.98 47.78 C 94.33 47.50 94.50 47.48 94.82 45.25 Z M 94.93 37.13 C 95.48 36.10 95.65 34.98 95.30 34.63 C 94.18 33.51 57.17 33.91 56.47 35.05 C 56.11 35.62 56.07 36.75 56.38 37.55 C 56.84 38.74 60.19 39.00 75.43 39.00 C 92.47 39.00 94.01 38.85 94.93 37.13 Z M 94.85 28.68 C 97.39 25.62 94.01 25.00 74.80 25.00 C 57.24 25.00 56.00 25.12 56.00 26.83 C 56.00 27.84 56.30 28.97 56.67 29.33 C 57.03 29.70 65.53 30.00 75.54 30.00 C 89.43 30.00 94.02 29.69 94.85 28.68 Z" fill="none" stroke="rgba(255,255,255,0.92)" stroke-width="1.2" stroke-linejoin="round" fill-rule="evenodd"/>
</svg>
