<svg xmlns="http://www.w3.org/2000/svg" viewBox="0 0 400 321" width="400" height="321">
  <path d="M 0.00 160.50 L 0.00 0.00 L 200.00 0.00 L 400.00 0.00 L 400.00 160.50 L 400.00 321.00 L 200.00 321.00 L 0.00 321.00 L 0.00 160.50 Z M 74.50 315.92 C 97.60 315.34 122.12 314.70 129.00 314.50 C 135.88 314.31 162.88 313.88 189.00 313.57 C 215.12 313.25 258.10 312.49 284.50 311.87 C 310.90 311.26 346.45 310.47 363.50 310.13 L 394.50 309.50 L 395.13 296.50 C 395.68 285.04 396.31 112.08 396.08 33.70 L 396.00 4.89 L 321.75 5.44 C 280.91 5.75 212.40 6.22 169.50 6.50 C 126.60 6.78 71.98 7.30 48.12 7.66 L 4.74 8.31 L 5.36 49.41 C 5.70 72.01 6.10 141.46 6.24 203.75 L 6.50 317.00 L 19.50 316.98 C 26.65 316.97 51.40 316.49 74.50 315.92 Z M 109.69 302.00 C 109.33 296.23 109.14 274.22 109.27 253.10 L 109.50 214.70 L 130.50 214.40 C 142.05 214.24 162.30 213.97 175.50 213.80 L 199.50 213.50 L 199.76 260.87 L 200.02 308.24 L 197.27 307.71 C 195.76 307.42 193.72 307.61 192.74 308.14 C 191.76 308.66 190.50 308.81 189.94 308.46 C 188.94 307.84 163.03 307.89 141.50 308.55 C 135.45 308.74 126.14 308.96 120.80 309.05 C 112.70 309.18 111.05 309.47 110.73 310.85 C 110.52 311.76 110.05 307.77 109.69 302.00 Z M 13.00 284.67 C 13.00 270.21 12.81 247.60 12.57 234.44 C 12.34 221.27 12.03 166.40 11.88 112.50 L 11.61 14.50 L 46.06 13.94 C 65.00 13.64 107.27 13.28 140.00 13.14 C 172.73 13.00 201.53 12.75 204.00 12.58 C 210.27 12.14 389.20 11.87 389.63 12.29 C 390.22 12.89 390.12 104.00 389.52 104.96 C 389.20 105.49 361.19 105.90 322.23 105.93 C 235.36 106.01 109.37 106.97 105.32 107.58 L 102.14 108.06 L 102.72 208.41 L 103.31 308.76 L 72.40 309.38 C 55.41 309.72 35.09 310.22 27.25 310.48 L 13.00 310.96 L 13.00 284.67 Z M 206.00 260.74 L 206.00 214.23 L 241.25 213.64 C 260.64 213.32 302.11 212.81 333.41 212.52 L 390.32 211.99 L 389.70 257.13 C 389.36 281.95 388.85 302.49 388.56 302.77 C 388.28 303.05 371.73 303.64 351.78 304.07 C 331.82 304.51 305.60 305.12 293.50 305.42 C 281.40 305.73 256.76 306.27 238.75 306.62 L 206.00 307.25 L 206.00 260.74 Z M 280.09 297.67 C 289.62 292.64 293.27 279.70 287.91 269.90 C 284.69 264.02 276.48 259.57 270.50 260.48 C 260.83 261.95 255.73 266.71 253.05 276.75 C 248.99 292.01 265.96 305.14 280.09 297.67 Z M 237.64 293.46 C 242.22 289.97 244.34 284.92 243.77 278.91 C 241.91 259.55 214.23 261.32 214.04 280.80 C 213.91 293.85 227.55 301.16 237.64 293.46 Z M 235.80 252.60 C 240.22 250.30 243.19 246.39 244.57 241.09 C 246.12 235.10 245.14 230.51 241.34 226.00 C 237.74 221.71 233.93 220.00 228.03 220.00 C 223.49 220.00 222.49 220.43 218.59 224.02 C 212.82 229.34 211.25 234.92 213.43 242.40 C 215.00 247.82 217.76 251.19 222.00 252.88 C 225.68 254.35 232.71 254.20 235.80 252.60 Z M 278.60 244.60 C 281.50 241.70 282.00 240.51 282.00 236.50 C 282.00 232.45 281.51 231.31 278.47 228.27 C 275.26 225.06 274.57 224.79 270.72 225.31 C 267.66 225.72 265.71 226.76 263.64 229.08 C 261.11 231.91 260.83 232.86 261.24 237.15 C 262.23 247.41 271.72 251.48 278.60 244.60 Z M 108.76 162.23 C 108.48 135.98 108.33 114.39 108.44 114.26 C 108.55 114.13 128.97 113.72 153.82 113.35 L 199.00 112.67 L 199.02 123.59 C 199.03 129.59 199.16 151.04 199.30 171.25 L 199.57 208.00 L 176.54 208.07 C 146.00 208.16 114.01 208.85 111.39 209.47 L 109.28 209.97 L 108.76 162.23 Z M 205.41 206.50 C 205.22 205.95 204.94 184.69 204.78 159.25 L 204.50 113.00 L 240.50 112.84 C 260.30 112.76 280.55 112.65 285.50 112.59 L 294.50 112.50 L 294.81 159.26 C 295.06 197.12 294.87 206.11 293.81 206.49 C 291.05 207.49 205.74 207.50 205.41 206.50 Z M 300.75 205.39 C 300.49 204.35 300.19 183.49 300.09 159.03 C 299.97 129.58 299.56 114.34 298.87 113.92 C 298.25 113.54 298.50 113.02 299.50 112.64 C 302.36 111.54 392.19 111.89 391.50 112.99 C 391.17 113.54 390.84 134.69 390.78 159.99 L 390.67 206.00 L 355.59 206.01 C 336.29 206.01 316.16 206.30 310.86 206.65 C 301.95 207.24 301.19 207.14 300.75 205.39 Z M 37.00 163.11 C 37.00 125.73 36.83 121.15 35.41 120.60 C 34.54 120.27 33.41 120.25 32.91 120.56 C 31.91 121.17 31.64 199.07 32.63 202.75 C 32.98 204.07 34.01 205.00 35.12 205.00 C 36.93 205.00 37.00 203.47 37.00 163.11 Z M 52.28 203.25 C 52.51 202.29 52.60 195.43 52.49 188.00 C 52.38 180.57 52.22 162.24 52.14 147.25 C 52.00 120.80 51.94 120.00 50.02 120.00 C 48.75 120.00 47.82 120.88 47.43 122.44 C 47.09 123.78 47.06 138.07 47.36 154.19 C 47.66 170.31 47.93 188.34 47.95 194.25 C 48.00 204.19 48.15 205.00 49.93 205.00 C 51.00 205.00 52.05 204.21 52.28 203.25 Z M 67.53 202.74 C 67.84 201.50 67.89 182.48 67.64 160.49 C 67.19 120.85 67.16 120.50 65.09 120.18 C 63.41 119.92 62.98 120.41 62.88 122.68 C 62.55 130.26 63.25 203.60 63.66 204.25 C 64.63 205.82 66.99 204.90 67.53 202.74 Z M 82.78 161.96 C 82.63 138.97 82.18 119.85 81.79 119.46 C 81.40 119.07 80.39 119.02 79.54 119.35 C 78.19 119.87 78.00 125.00 78.00 161.89 C 78.00 205.01 78.05 205.61 81.78 204.23 C 82.80 203.86 83.01 195.24 82.78 161.96 Z M 297.08 118.42 C 297.13 117.25 297.36 117.01 297.68 117.81 C 297.97 118.53 297.94 119.40 297.60 119.73 C 297.27 120.06 297.04 119.47 297.08 118.42 Z M 392.64 114.50 C 392.32 113.67 392.50 113.00 393.03 113.00 C 393.56 113.00 394.00 113.67 394.00 114.50 C 394.00 115.33 393.82 116.00 393.61 116.00 C 393.39 116.00 392.95 115.33 392.64 114.50 Z M 348.55 99.56 C 355.31 96.53 360.00 92.23 363.55 85.82 L 366.50 80.50 L 366.50 59.00 L 366.50 37.50 L 363.53 32.53 C 359.25 25.38 353.67 20.39 347.26 18.00 C 341.85 15.97 340.27 15.92 295.59 16.20 C 250.29 16.49 249.43 16.54 245.38 18.70 C 239.35 21.93 235.29 25.64 232.39 30.59 C 228.00 38.09 227.25 43.03 227.69 61.55 C 228.07 77.01 228.32 78.98 230.60 84.00 C 234.93 93.52 243.46 100.54 252.50 102.03 C 254.70 102.39 276.07 102.49 300.00 102.26 C 342.57 101.83 343.61 101.78 348.55 99.56 Z M 252.59 94.85 C 246.99 93.58 242.40 90.44 239.14 85.66 C 234.58 78.94 234.00 75.89 234.01 58.60 C 234.02 43.75 234.20 42.11 236.39 37.50 C 237.69 34.75 240.27 31.06 242.13 29.29 C 248.56 23.19 249.60 23.07 297.80 22.89 C 346.64 22.72 345.95 22.63 353.26 29.76 C 359.41 35.76 361.00 41.62 361.00 58.36 C 361.00 74.94 359.72 80.63 354.65 86.55 C 352.78 88.73 349.19 91.55 346.66 92.81 C 342.10 95.09 341.60 95.12 299.28 95.42 C 275.75 95.59 254.74 95.33 252.59 94.85 Z M 346.84 89.94 C 348.81 87.83 350.04 81.21 349.61 75.00 C 349.48 73.08 349.29 62.41 349.19 51.31 C 349.01 31.94 348.91 31.01 346.75 28.51 L 344.50 25.90 L 317.72 25.96 C 289.78 26.02 287.67 26.32 286.37 30.42 C 286.03 31.47 285.77 35.97 285.79 40.42 C 285.81 44.86 285.87 57.18 285.92 67.80 C 286.00 86.90 286.02 87.12 288.45 89.55 L 290.91 92.00 L 317.92 92.00 C 343.89 92.00 345.00 91.92 346.84 89.94 Z M 294.75 85.18 L 292.00 84.87 L 292.00 58.95 L 292.00 33.04 L 294.25 32.54 C 295.49 32.27 306.85 32.15 319.50 32.27 L 342.50 32.50 L 342.77 57.93 C 342.91 71.92 342.67 83.73 342.23 84.17 C 341.46 84.94 300.31 85.82 294.75 85.18 Z M 280.23 79.15 C 281.26 78.11 281.13 77.59 279.55 76.43 C 278.04 75.31 274.28 75.01 263.05 75.10 C 244.33 75.24 241.00 75.67 241.00 77.92 C 241.00 78.88 241.30 79.97 241.67 80.34 C 242.04 80.70 250.58 80.88 260.65 80.72 C 273.95 80.52 279.30 80.09 280.23 79.15 Z M 280.44 70.09 C 280.75 69.59 280.73 68.46 280.40 67.59 C 279.87 66.21 277.25 66.00 260.95 66.00 C 242.09 66.00 240.15 66.35 241.38 69.55 C 241.84 70.75 245.25 71.00 260.91 71.00 C 271.34 71.00 280.13 70.59 280.44 70.09 Z M 279.56 60.56 C 281.27 59.29 281.32 58.97 280.00 57.81 C 278.85 56.80 274.15 56.57 259.75 56.81 C 242.59 57.10 241.00 57.27 241.00 58.90 C 241.00 59.87 241.30 60.97 241.67 61.33 C 242.03 61.70 250.27 62.00 259.98 62.00 C 273.76 62.00 278.04 61.69 279.56 60.56 Z M 269.28 52.10 C 278.18 52.02 280.17 51.72 280.68 50.40 C 281.01 49.52 280.66 48.40 279.90 47.90 C 278.42 46.96 244.80 46.76 242.40 47.68 C 240.43 48.43 240.65 51.79 242.69 52.18 C 243.62 52.35 247.56 52.43 251.44 52.35 C 255.32 52.27 263.35 52.16 269.28 52.10 Z M 279.96 41.54 C 280.63 40.74 280.88 39.62 280.53 39.04 C 279.75 37.79 243.17 37.61 241.22 38.85 C 240.51 39.29 240.22 40.41 240.57 41.33 C 241.14 42.81 243.37 43.00 259.98 43.00 C 275.20 43.00 278.98 42.72 279.96 41.54 Z" fill="none" stroke="rgba(255,255,255,0.92)" stroke-width="1.5" stroke-linejoin="round" fill-rule="evenodd"/>
</svg>
