<svg xmlns="http://www.w3.org/2000/svg" viewBox="0 0 100 100" width="100" height="100">
  <path d="M 0.00 50.00 L 0.00 0.00 L 50.00 0.00 L 100.00 0.00 L 100.00 50.00 L 100.00 100.00 L 50.00 100.00 L 0.00 100.00 L 0.00 50.00 Z M 96.00 49.50 C 96.00 8.01 95.86 4.00 94.36 4.00 C 92.86 4.00 92.77 7.53 93.35 46.50 L 93.99 89.00 L 48.99 89.00 L 4.00 89.00 L 4.00 92.00 L 4.00 95.00 L 50.00 95.00 L 96.00 95.00 L 96.00 49.50 Z M 57.20 84.88 C 67.18 82.76 74.37 77.24 79.16 68.00 C 81.37 63.75 81.49 62.50 81.41 45.50 C 81.33 29.01 81.13 27.09 79.05 22.62 C 76.19 16.45 69.95 10.17 63.50 6.98 C 58.57 4.54 58.10 4.50 31.25 4.36 L 4.00 4.23 L 4.00 7.61 L 4.00 11.00 L 30.25 11.01 C 55.74 11.02 56.65 11.09 61.50 13.38 C 67.11 16.02 69.82 18.66 72.89 24.49 C 74.77 28.04 75.00 30.14 75.00 44.06 C 75.00 62.94 73.89 67.16 67.47 72.82 C 60.91 78.59 58.42 79.00 29.63 79.00 L 4.00 79.00 L 4.00 82.50 L 4.00 86.00 L 27.95 86.00 C 41.86 86.00 54.12 85.53 57.20 84.88 Z M 61.58 73.51 L 64.07 71.02 L 63.93 45.77 C 63.79 19.44 63.30 16.10 59.33 14.57 C 57.27 13.78 6.17 13.78 4.88 14.57 C 3.87 15.20 3.66 74.32 4.67 75.33 C 5.03 75.70 17.43 76.00 32.21 76.00 L 59.09 76.00 L 61.58 73.51 Z M 7.67 69.33 C 7.30 68.97 7.00 57.72 7.00 44.33 L 7.00 20.00 L 31.89 20.00 C 50.90 20.00 56.89 20.30 57.23 21.25 C 57.92 23.20 58.14 65.99 57.46 68.11 C 56.90 69.89 55.50 70.00 32.60 70.00 C 19.25 70.00 8.03 69.70 7.67 69.33 Z" fill="none" stroke="rgba(255,255,255,0.92)" stroke-width="1.2" stroke-linejoin="round" fill-rule="evenodd"/>
</svg>
