<svg xmlns="http://www.w3.org/2000/svg" viewBox="0 0 100 100" width="100" height="100">
  <path d="M 0.00 50.00 L 0.00 0.00 L 50.00 0.00 L 100.00 0.00 L 100.00 50.00 L 100.00 100.00 L 50.00 100.00 L 0.00 100.00 L 0.00 50.00 Z M 48.44 93.43 C 55.18 90.80 63.02 82.90 65.26 76.50 C 66.66 72.49 67.01 68.13 67.00 54.51 C 67.00 38.03 66.92 37.37 64.29 32.16 C 60.71 25.10 53.25 18.45 46.72 16.51 C 42.97 15.40 36.69 15.00 22.82 15.00 L 4.00 15.00 L 4.00 17.92 L 4.00 20.85 L 23.75 21.17 C 41.73 21.47 43.86 21.69 47.50 23.66 C 52.20 26.19 56.05 30.13 58.61 35.00 C 60.06 37.76 60.53 41.36 60.83 52.00 C 61.31 69.08 60.21 74.34 54.91 80.37 C 48.07 88.13 47.20 88.37 24.25 88.78 L 4.00 89.15 L 4.00 92.66 L 4.00 96.18 L 23.75 95.77 C 40.23 95.43 44.32 95.04 48.44 93.43 Z M 96.00 50.50 L 96.00 5.00 L 50.00 5.00 L 4.00 5.00 L 4.00 8.00 L 4.00 11.00 L 47.00 11.00 L 90.00 11.00 L 90.07 45.75 C 90.11 64.86 90.08 83.99 90.01 88.25 L 89.87 96.00 L 92.94 96.00 L 96.00 96.00 L 96.00 50.50 Z M 46.83 83.95 C 48.81 81.82 49.95 76.05 49.59 70.00 C 49.47 68.08 49.29 58.04 49.19 47.70 C 48.93 22.25 50.79 24.00 24.05 24.00 L 4.00 24.00 L 4.00 26.98 L 4.00 29.96 L 23.25 30.23 L 42.50 30.50 L 42.50 55.00 L 42.50 79.50 L 23.25 79.77 L 4.00 80.04 L 4.00 83.02 L 4.00 86.00 L 24.46 86.00 C 43.80 86.00 45.03 85.89 46.83 83.95 Z" fill="none" stroke="rgba(255,255,255,0.92)" stroke-width="1.2" stroke-linejoin="round" fill-rule="evenodd"/>
</svg>
