<svg xmlns="http://www.w3.org/2000/svg" viewBox="0 0 100 100" width="100" height="100">
  <path d="M 0.00 50.00 L 0.00 0.00 L 50.00 0.00 L 100.00 0.00 L 100.00 50.00 L 100.00 100.00 L 50.00 100.00 L 0.00 100.00 L 0.00 50.00 Z M 11.77 54.98 C 11.48 32.43 11.58 13.76 11.99 13.51 C 12.40 13.25 29.56 12.98 50.12 12.90 C 94.98 12.73 96.00 12.65 96.00 9.39 L 96.00 7.00 L 51.75 7.02 C 27.41 7.02 6.89 7.42 6.15 7.89 C 5.03 8.60 4.93 16.22 5.54 52.37 L 6.28 96.00 L 9.28 96.00 L 12.29 96.00 L 11.77 54.98 Z" fill="none" stroke="rgba(255,255,255,0.92)" stroke-width="1.2" stroke-linejoin="round" fill-rule="evenodd"/>
</svg>
