<svg xmlns="http://www.w3.org/2000/svg" viewBox="0 0 400 256" width="400" height="256">
  <path d="M 0.00 128.00 L 0.00 0.00 L 200.00 0.00 L 400.00 0.00 L 400.00 128.00 L 400.00 256.00 L 200.00 256.00 L 0.00 256.00 L 0.00 128.00 Z M 378.66 247.68 C 379.13 244.84 378.93 244.00 377.79 244.00 C 376.06 244.00 373.41 251.23 374.49 252.99 C 375.67 254.89 377.97 251.96 378.66 247.68 Z M 231.50 251.61 L 319.50 251.22 L 319.49 211.61 L 319.48 172.00 L 357.74 172.00 L 396.00 172.00 L 396.00 88.44 L 396.00 4.88 L 199.84 5.19 L 3.68 5.50 L 4.35 45.00 C 4.71 66.72 5.30 103.85 5.64 127.50 C 5.99 151.15 6.43 170.68 6.61 170.89 C 6.80 171.11 24.06 171.51 44.98 171.79 C 79.00 172.23 83.01 172.45 83.06 173.89 C 83.35 181.56 83.78 210.69 83.88 229.13 L 84.00 251.76 L 111.21 251.92 C 126.17 252.01 138.61 252.28 138.86 252.52 C 139.10 252.77 140.24 252.74 141.40 252.48 C 142.55 252.21 183.10 251.82 231.50 251.61 Z M 88.64 248.31 C 88.29 247.95 87.97 245.60 87.93 243.08 C 87.88 239.60 87.65 238.98 87.00 240.50 C 86.24 242.27 86.13 242.19 86.07 239.75 C 86.03 238.24 86.45 237.00 87.00 237.00 C 87.55 237.00 87.96 235.76 87.90 234.25 L 87.80 231.50 L 87.06 234.00 C 86.65 235.38 86.42 231.78 86.55 226.00 C 86.67 220.22 87.12 214.67 87.54 213.65 C 88.01 212.49 87.81 211.50 87.00 211.00 C 86.21 210.51 85.99 209.49 86.44 208.35 C 87.67 205.25 88.06 190.00 86.91 190.00 C 86.34 190.00 86.14 189.58 86.46 189.07 C 86.78 188.55 87.21 185.51 87.42 182.32 C 87.63 179.12 87.59 177.07 87.32 177.76 C 86.58 179.65 84.99 178.19 85.07 175.69 C 85.14 173.58 85.17 173.57 86.00 175.50 C 86.90 177.60 86.89 177.63 87.38 172.75 C 87.47 171.78 95.70 171.46 124.25 171.31 L 161.00 171.11 L 161.10 193.31 C 161.31 238.49 161.15 246.12 159.94 247.57 C 159.30 248.34 158.37 248.73 157.88 248.43 C 156.65 247.67 91.50 247.57 90.27 248.33 C 89.73 248.67 88.99 248.66 88.64 248.31 Z M 165.57 209.51 L 165.63 171.50 L 201.82 171.48 L 238.00 171.46 L 238.08 182.48 C 238.13 188.54 238.35 205.54 238.57 220.25 L 238.98 247.00 L 225.24 247.14 C 217.68 247.22 201.15 247.34 188.50 247.41 L 165.50 247.53 L 165.57 209.51 Z M 242.94 215.97 C 242.91 198.93 242.86 181.96 242.83 178.25 L 242.78 171.50 L 278.39 171.34 C 297.97 171.25 314.18 171.48 314.40 171.84 C 314.62 172.20 314.96 189.15 315.15 209.50 L 315.50 246.50 L 279.25 246.72 L 243.00 246.93 L 242.94 215.97 Z M 380.80 234.25 C 380.59 230.83 380.08 229.50 379.00 229.50 C 378.03 229.50 377.39 230.68 377.18 232.85 C 376.77 237.08 377.51 239.00 379.52 239.00 C 380.79 239.00 381.05 238.05 380.80 234.25 Z M 379.31 224.25 C 379.54 223.84 379.22 221.70 378.59 219.50 C 377.20 214.69 374.33 213.88 374.82 218.44 C 375.35 223.34 377.93 226.68 379.31 224.25 Z M 367.99 210.50 C 369.72 209.61 371.12 209.39 371.48 209.96 C 372.34 211.36 375.20 209.97 374.61 208.44 C 374.32 207.68 375.63 206.24 377.70 205.01 C 379.68 203.84 380.89 202.53 380.40 202.09 C 364.43 187.78 359.85 183.82 359.61 184.13 C 359.31 184.49 362.86 208.28 363.57 210.75 C 364.04 212.35 364.48 212.32 367.99 210.50 Z M 163.00 196.56 C 163.00 193.49 163.57 193.25 164.29 196.00 C 164.58 197.10 164.40 198.25 163.91 198.56 C 163.41 198.87 163.00 197.97 163.00 196.56 Z M 240.08 188.42 C 240.13 187.25 240.36 187.01 240.68 187.81 C 240.97 188.53 240.94 189.40 240.60 189.73 C 240.27 190.06 240.04 189.47 240.08 188.42 Z M 85.08 186.42 C 85.13 185.25 85.36 185.01 85.68 185.81 C 85.97 186.53 85.94 187.40 85.60 187.73 C 85.27 188.06 85.04 187.47 85.08 186.42 Z M 130.62 167.29 C 130.26 166.92 120.59 166.71 109.14 166.81 L 88.32 167.00 L 87.66 139.84 C 87.30 124.90 87.00 108.09 87.00 102.49 L 87.00 92.30 L 96.75 91.66 C 102.11 91.30 118.54 91.01 133.25 91.01 L 160.00 91.00 L 160.02 97.25 C 160.03 100.69 160.14 117.67 160.27 135.00 L 160.50 166.50 L 147.00 166.53 C 139.57 166.54 133.00 166.87 132.39 167.25 C 131.78 167.63 130.98 167.65 130.62 167.29 Z M 164.00 167.07 C 164.00 166.67 164.32 166.01 164.72 165.61 C 165.97 164.37 164.99 135.62 163.68 134.78 C 162.80 134.22 162.81 134.03 163.75 134.02 C 164.58 134.01 165.00 132.33 165.00 129.00 C 165.00 125.67 164.58 123.99 163.75 123.98 C 162.89 123.97 162.84 123.74 163.60 123.23 C 164.33 122.75 164.67 117.27 164.60 107.00 L 164.50 91.50 L 200.75 91.24 L 237.00 90.98 L 237.13 109.24 C 237.21 119.28 237.32 136.28 237.38 147.00 L 237.50 166.50 L 202.55 166.68 C 183.33 166.79 166.80 167.08 165.80 167.34 C 164.81 167.60 164.00 167.48 164.00 167.07 Z M 29.25 166.23 L 11.00 165.95 L 10.86 146.73 C 10.79 136.15 10.64 125.70 10.53 123.50 C 10.43 121.30 10.15 95.05 9.92 65.18 L 9.50 10.85 L 200.25 10.36 L 391.00 9.88 L 391.06 76.69 C 391.12 145.51 391.03 165.30 390.68 165.65 C 390.57 165.77 374.62 166.16 355.24 166.53 L 320.00 167.20 L 319.87 162.35 C 319.24 138.82 319.07 127.46 319.04 108.25 L 319.00 85.99 L 200.75 86.25 L 82.50 86.50 L 82.65 126.25 L 82.80 166.00 L 75.15 166.19 C 62.32 166.50 48.37 166.51 29.25 166.23 Z M 242.34 160.67 C 242.33 157.28 242.16 140.32 241.98 123.00 L 241.64 91.50 L 277.66 91.24 L 313.68 90.98 L 314.37 128.04 C 314.75 148.42 314.82 165.48 314.54 165.94 C 314.26 166.39 297.90 166.79 278.20 166.81 L 242.37 166.85 L 242.34 160.67 Z M 36.52 157.55 C 43.14 152.50 43.67 142.98 37.69 136.64 C 29.24 127.69 15.00 133.54 15.00 145.96 C 15.00 149.92 17.53 155.16 20.45 157.25 C 21.14 157.75 21.01 158.32 20.05 158.93 C 19.00 159.61 19.83 159.98 23.05 160.29 C 29.67 160.93 32.98 160.25 36.52 157.55 Z M 338.77 158.75 C 339.17 157.51 339.27 142.10 339.00 124.50 C 338.57 96.94 338.29 92.50 337.00 92.50 C 335.70 92.50 335.46 96.85 335.22 124.50 C 334.94 156.53 335.16 161.00 337.04 161.00 C 337.60 161.00 338.38 159.99 338.77 158.75 Z M 351.16 126.21 C 350.98 108.22 350.47 93.11 350.01 92.64 C 349.55 92.16 348.65 92.10 348.00 92.50 C 346.53 93.41 346.86 157.80 348.35 159.79 C 351.05 163.41 351.47 158.44 351.16 126.21 Z M 363.41 159.25 C 364.52 155.69 363.28 93.88 362.08 92.68 C 359.32 89.92 358.94 94.80 359.46 126.83 C 359.74 144.60 360.23 159.57 360.55 160.08 C 361.45 161.54 362.82 161.15 363.41 159.25 Z M 376.00 127.58 C 376.00 109.75 375.73 94.45 375.39 93.58 C 374.36 90.89 372.25 91.84 371.69 95.25 C 371.40 97.04 371.31 102.78 371.50 108.00 C 371.69 113.22 371.88 127.06 371.92 138.75 C 372.00 159.31 372.07 160.00 374.00 160.00 C 375.96 160.00 376.00 159.33 376.00 127.58 Z M 68.81 157.65 C 74.36 154.57 76.54 146.87 73.52 141.03 C 68.85 132.01 55.79 131.61 51.63 140.36 C 48.76 146.42 49.88 152.23 54.74 156.51 C 57.88 159.27 64.86 159.84 68.81 157.65 Z M 68.60 125.09 C 81.91 119.05 80.32 99.73 66.13 95.04 C 58.20 92.43 49.49 97.31 46.95 105.78 C 43.95 115.77 51.88 126.53 62.50 126.89 C 63.60 126.93 66.34 126.12 68.60 125.09 Z M 31.36 118.62 C 40.07 114.98 37.22 101.00 27.77 101.00 C 21.33 101.00 18.02 105.96 19.43 113.48 C 19.93 116.13 20.82 117.12 23.78 118.35 C 25.82 119.20 27.63 119.92 27.78 119.95 C 27.94 119.98 29.55 119.38 31.36 118.62 Z M 162.16 95.00 C 162.16 93.62 162.38 93.06 162.66 93.75 C 162.94 94.44 162.94 95.56 162.66 96.25 C 162.38 96.94 162.16 96.38 162.16 95.00 Z M 239.08 92.42 C 239.13 91.25 239.36 91.01 239.68 91.81 C 239.97 92.53 239.94 93.40 239.60 93.73 C 239.27 94.06 239.04 93.47 239.08 92.42 Z M 242.92 81.04 C 245.03 79.96 248.59 77.00 250.82 74.46 C 256.25 68.30 257.30 63.21 256.83 45.50 C 256.40 29.59 255.25 26.17 248.20 19.80 C 241.75 13.98 240.55 13.82 200.19 13.65 C 168.24 13.52 163.04 13.71 159.93 15.12 C 154.25 17.71 149.43 22.57 147.04 28.12 C 145.01 32.85 144.86 34.54 145.17 49.38 C 145.49 64.85 145.61 65.69 148.24 70.16 C 151.43 75.59 157.80 80.96 162.32 82.04 C 164.07 82.45 182.06 82.84 202.29 82.90 C 236.96 82.99 239.30 82.89 242.92 81.04 Z M 186.42 77.06 L 162.34 76.50 L 158.77 73.78 C 156.81 72.28 154.04 68.70 152.60 65.83 C 150.21 61.03 150.00 59.58 150.01 48.05 C 150.02 36.98 150.30 34.91 152.37 30.50 C 155.07 24.74 157.11 22.69 162.25 20.54 C 165.34 19.25 171.56 19.01 200.72 19.08 C 224.76 19.13 236.45 19.51 238.57 20.33 C 243.41 22.18 246.91 25.48 249.55 30.69 C 251.76 35.04 251.99 36.71 252.00 48.28 C 252.00 62.27 250.99 66.29 246.20 71.34 C 239.88 77.99 237.23 78.24 186.42 77.06 Z M 241.04 72.96 C 242.97 71.03 243.06 69.85 242.90 49.21 C 242.80 37.27 242.28 26.54 241.75 25.36 C 240.02 21.54 236.85 21.00 216.06 21.00 C 190.26 21.00 191.92 19.80 191.84 38.50 C 191.70 68.82 191.83 70.83 194.00 73.00 C 195.88 74.88 197.33 75.00 217.50 75.00 C 237.80 75.00 239.11 74.89 241.04 72.96 Z M 203.25 69.21 L 197.00 68.90 L 197.00 47.95 L 197.00 27.00 L 217.00 27.00 C 235.34 27.00 237.01 27.15 237.11 28.75 C 237.67 37.61 237.50 67.18 236.89 68.18 C 236.10 69.45 218.92 69.98 203.25 69.21 Z M 187.27 64.13 C 189.74 61.66 186.42 61.00 171.44 61.00 C 156.79 61.00 156.00 61.10 156.00 62.95 C 156.00 64.65 156.82 64.94 162.25 65.20 C 172.86 65.71 186.27 65.13 187.27 64.13 Z M 187.80 55.80 C 188.10 54.27 186.58 54.07 172.51 53.80 C 163.92 53.63 156.50 53.89 156.03 54.37 C 155.55 54.85 155.40 55.88 155.69 56.65 C 156.13 57.78 159.19 58.00 171.85 57.77 C 185.63 57.53 187.51 57.30 187.80 55.80 Z M 187.80 48.20 C 187.51 46.69 185.72 46.50 171.49 46.50 C 157.99 46.50 155.50 46.73 155.50 47.99 C 155.50 50.11 159.32 50.54 174.70 50.20 C 186.69 49.92 188.09 49.71 187.80 48.20 Z M 187.55 41.91 C 189.15 39.33 185.73 38.68 170.98 38.73 C 162.68 38.76 155.63 39.04 155.32 39.35 C 155.01 39.66 155.02 40.61 155.35 41.46 C 155.84 42.76 158.39 43.00 171.41 43.00 C 181.47 43.00 187.12 42.62 187.55 41.91 Z M 187.38 34.20 C 187.65 33.76 187.53 32.85 187.11 32.18 C 186.55 31.27 182.30 31.02 170.94 31.22 C 157.18 31.47 155.49 31.69 155.19 33.25 C 154.88 34.86 156.15 35.00 170.87 35.00 C 179.68 35.00 187.10 34.64 187.38 34.20 Z" fill="none" stroke="rgba(255,255,255,0.92)" stroke-width="1.5" stroke-linejoin="round" fill-rule="evenodd"/>
</svg>
