<svg xmlns="http://www.w3.org/2000/svg" viewBox="0 0 100 100" width="100" height="100">
  <path d="M 0.00 50.00 L 0.00 0.00 L 50.00 0.00 L 100.00 0.00 L 100.00 50.00 L 100.00 100.00 L 50.00 100.00 L 0.00 100.00 L 0.00 50.00 Z M 13.72 87.24 C 20.04 80.33 21.00 76.40 21.00 57.50 C 21.00 46.09 20.56 39.89 19.50 36.33 C 17.86 30.80 11.55 22.85 6.89 20.44 L 4.00 18.95 L 4.00 22.51 C 4.00 25.19 4.80 26.88 7.25 29.34 C 9.04 31.14 11.55 34.74 12.84 37.34 C 15.04 41.80 15.15 42.95 14.82 57.78 C 14.43 75.19 13.31 79.04 7.04 84.31 C 4.55 86.41 4.00 87.62 4.00 91.05 L 4.00 95.23 L 6.75 93.54 C 8.26 92.61 11.40 89.78 13.72 87.24 Z M 96.00 9.00 L 96.00 6.00 L 50.00 6.00 L 4.00 6.00 L 4.00 9.00 L 4.00 12.00 L 50.00 12.00 L 96.00 12.00 L 96.00 9.00 Z" fill="none" stroke="rgba(255,255,255,0.92)" stroke-width="1.2" stroke-linejoin="round" fill-rule="evenodd"/>
</svg>
