<svg xmlns="http://www.w3.org/2000/svg" viewBox="0 0 392 400" width="392" height="400">
  <path d="M 0.00 200.00 L 0.00 0.00 L 196.00 0.00 L 392.00 0.00 L 392.00 125.06 C 392.00 197.88 391.63 249.89 391.11 249.57 C 390.22 249.02 379.48 250.15 366.82 252.12 L 360.14 253.16 L 359.57 259.33 C 359.25 262.72 358.34 272.47 357.54 281.00 C 356.74 289.52 356.47 296.87 356.94 297.34 C 357.40 297.80 358.67 297.71 359.76 297.13 C 361.97 295.95 363.46 286.94 364.89 266.25 C 365.32 260.06 365.91 254.76 366.20 254.47 C 366.57 254.09 388.51 251.12 391.75 251.01 C 391.89 251.00 392.00 252.53 392.00 254.39 C 392.00 256.50 391.43 258.01 390.48 258.37 C 389.32 258.82 389.12 259.88 389.61 262.97 C 390.25 266.95 390.22 267.00 387.13 267.00 C 385.41 267.00 384.00 267.45 384.00 268.00 C 384.00 268.55 385.30 269.00 386.89 269.00 C 390.04 269.00 389.91 268.62 391.56 283.13 L 392.20 288.76 L 389.60 288.26 C 386.29 287.63 386.22 288.75 389.50 290.00 C 391.97 290.94 392.00 291.10 392.00 302.48 L 392.00 314.00 L 388.74 314.00 C 386.95 314.00 384.03 314.42 382.24 314.93 C 378.84 315.91 377.79 314.61 380.11 312.29 C 381.86 310.54 380.24 308.80 377.98 310.01 C 376.32 310.90 369.00 322.59 369.00 324.35 C 369.00 325.99 372.12 324.75 373.57 322.54 C 375.24 319.98 375.56 320.03 380.86 323.64 C 381.06 323.77 378.43 327.49 375.02 331.89 C 368.76 339.98 367.99 342.72 372.44 341.02 C 374.42 340.27 374.89 340.48 375.39 342.31 C 375.71 343.52 375.98 346.07 376.00 348.00 C 376.02 349.93 376.31 352.57 376.66 353.87 C 377.28 356.18 377.51 356.23 384.65 355.58 L 392.00 354.92 L 392.00 377.46 L 392.00 400.00 L 295.75 400.00 L 199.50 400.00 L 199.69 302.75 C 199.79 249.26 199.90 205.11 199.94 204.63 C 199.97 204.15 200.59 204.24 201.30 204.83 C 202.11 205.51 209.02 205.95 219.55 206.00 C 241.99 206.11 240.82 206.18 239.00 205.00 C 237.86 204.27 238.30 204.03 240.81 204.02 C 242.63 204.01 243.90 204.36 243.62 204.80 C 243.35 205.24 256.65 205.72 273.17 205.87 C 294.33 206.06 303.01 205.83 302.54 205.07 C 302.18 204.48 302.32 204.00 302.86 204.00 C 303.39 204.00 304.01 204.52 304.22 205.16 C 304.71 206.63 329.90 207.05 331.83 205.62 C 332.73 204.94 333.40 205.02 333.92 205.87 C 334.86 207.40 357.08 207.06 358.25 205.50 C 358.74 204.85 359.27 204.92 359.78 205.70 C 360.21 206.37 361.45 206.88 362.53 206.84 C 363.61 206.80 369.36 206.87 375.31 206.99 C 381.25 207.12 386.34 206.99 386.61 206.72 C 387.20 206.13 387.13 7.02 386.55 6.07 C 386.32 5.71 365.07 5.58 339.32 5.77 C 313.57 5.96 232.65 6.09 159.50 6.04 C 86.35 6.00 21.89 6.26 16.25 6.62 L 6.00 7.27 L 6.00 203.64 L 6.00 400.00 L 3.00 400.00 L 0.00 400.00 L 0.00 200.00 Z M 106.07 350.50 C 106.11 325.20 106.53 303.60 107.00 302.50 C 107.75 300.75 107.87 300.72 107.93 302.28 C 108.00 303.96 110.30 304.06 148.25 303.99 C 170.39 303.95 189.90 303.93 191.61 303.96 L 194.72 304.00 L 194.47 350.25 L 194.23 396.50 L 150.12 396.50 L 106.00 396.50 L 106.07 350.50 Z M 12.63 395.30 C 12.34 395.01 12.08 309.71 12.04 205.74 C 12.00 101.77 11.72 15.72 11.41 14.51 L 10.86 12.31 L 195.94 12.34 L 381.02 12.38 L 380.76 58.94 L 380.50 105.50 L 313.00 105.52 C 208.87 105.55 132.93 104.50 132.01 103.02 C 131.51 102.20 130.45 102.06 128.87 102.59 C 127.57 103.03 120.53 103.26 113.24 103.10 L 99.98 102.81 L 100.01 174.65 C 100.02 214.17 100.03 280.14 100.02 321.26 L 100.00 396.02 L 56.58 395.92 C 32.70 395.87 12.92 395.59 12.63 395.30 Z M 51.09 348.62 C 51.09 326.80 50.81 308.51 50.48 307.97 C 49.30 306.05 47.15 307.05 46.65 309.75 C 46.37 311.26 46.14 329.48 46.13 350.23 C 46.11 384.68 46.25 388.04 47.80 388.92 C 48.74 389.44 49.86 389.52 50.30 389.09 C 50.74 388.65 51.10 370.44 51.09 348.62 Z M 65.76 347.94 L 65.50 307.50 L 63.00 307.21 L 60.50 306.91 L 60.76 347.21 C 61.00 383.63 61.19 387.62 62.71 388.75 C 63.63 389.44 64.76 389.64 65.21 389.19 C 65.66 388.74 65.91 370.18 65.76 347.94 Z M 80.50 348.42 C 80.50 308.17 80.47 307.50 78.50 307.50 C 76.54 307.50 76.50 308.25 76.24 347.38 C 75.98 387.35 76.23 390.76 79.40 389.70 C 80.18 389.44 80.50 377.28 80.50 348.42 Z M 36.21 386.25 C 36.59 384.01 36.50 312.67 36.11 308.18 C 36.05 307.41 35.07 306.99 33.75 307.18 L 31.50 307.50 L 31.35 345.50 C 31.26 366.40 31.41 384.74 31.67 386.25 C 31.99 388.05 32.78 389.00 33.95 389.00 C 35.13 389.00 35.91 388.06 36.21 386.25 Z M 329.32 358.88 C 332.21 357.39 337.00 352.88 337.00 351.64 C 337.00 351.10 335.96 351.63 334.69 352.83 C 333.41 354.02 332.18 355.00 331.94 355.00 C 331.70 355.00 331.66 350.71 331.85 345.46 C 332.21 335.48 331.63 331.00 329.98 331.00 C 328.32 331.00 318.64 338.38 319.80 338.77 C 320.40 338.97 321.81 338.63 322.94 338.03 C 324.96 336.95 325.00 337.14 325.00 347.80 C 325.00 360.42 325.22 360.98 329.32 358.88 Z M 345.75 357.16 C 346.71 356.15 348.01 354.46 348.63 353.41 C 349.74 351.54 349.82 351.54 352.13 353.57 C 357.28 358.06 363.00 360.48 363.00 358.17 C 363.00 357.72 360.30 355.39 357.00 353.00 C 353.70 350.61 351.00 348.34 351.00 347.95 C 351.00 347.56 351.68 345.63 352.50 343.65 C 354.79 338.19 354.48 336.00 351.44 336.00 C 347.80 336.00 340.08 338.06 339.36 339.23 C 338.97 339.86 340.22 339.97 342.80 339.53 C 346.55 338.90 346.81 339.00 346.31 340.92 C 345.84 342.72 345.23 342.91 341.64 342.42 L 337.50 341.85 L 340.82 344.71 L 344.14 347.56 L 342.13 352.67 C 341.02 355.48 340.39 358.06 340.72 358.39 C 341.86 359.53 343.99 359.01 345.75 357.16 Z M 382.00 351.12 C 382.00 347.27 385.71 345.99 386.60 349.54 C 387.34 352.49 386.44 354.00 383.94 354.00 C 382.47 354.00 382.00 353.30 382.00 351.12 Z M 391.23 350.00 C 391.23 348.07 391.44 347.29 391.69 348.25 C 391.94 349.21 391.94 350.79 391.69 351.75 C 391.44 352.71 391.23 351.93 391.23 350.00 Z M 381.67 345.33 C 381.30 344.97 381.00 343.84 381.00 342.83 C 381.00 341.54 381.74 341.00 383.50 341.00 C 385.50 341.00 386.00 341.50 386.00 343.50 C 386.00 345.26 385.46 346.00 384.17 346.00 C 383.16 346.00 382.03 345.70 381.67 345.33 Z M 390.53 342.71 C 390.10 341.72 390.03 340.63 390.38 340.29 C 391.39 339.27 392.21 340.70 391.74 342.67 C 391.33 344.42 391.27 344.42 390.53 342.71 Z M 380.49 333.12 C 383.15 329.72 385.60 327.08 385.92 327.26 C 386.24 327.43 387.74 328.18 389.25 328.94 C 391.41 330.03 392.00 331.02 392.00 333.60 C 392.00 335.41 391.65 337.10 391.23 337.36 C 390.81 337.62 387.12 338.16 383.05 338.56 L 375.64 339.29 L 380.49 333.12 Z M 341.70 335.20 C 342.43 334.74 343.02 331.29 343.20 326.47 C 343.58 316.33 345.40 316.38 345.79 326.54 C 346.14 335.61 346.61 335.94 355.56 333.52 C 362.97 331.52 364.35 329.42 357.59 330.43 L 353.18 331.10 L 352.48 323.61 C 351.72 315.52 350.80 314.37 346.43 316.03 C 345.02 316.56 342.55 317.00 340.93 317.00 C 338.04 317.00 338.00 317.08 337.89 322.75 C 337.66 335.24 338.31 337.36 341.70 335.20 Z M 330.54 324.25 C 329.67 319.48 327.98 317.69 325.35 318.72 C 323.36 319.49 323.36 319.55 325.21 323.75 C 326.54 326.78 327.67 328.00 329.15 328.00 C 331.00 328.00 331.15 327.60 330.54 324.25 Z M 390.25 325.34 C 388.55 324.65 388.68 322.51 390.50 321.00 C 391.78 319.94 392.00 320.22 392.00 322.88 C 392.00 324.59 391.89 325.96 391.75 325.92 C 391.61 325.88 390.94 325.62 390.25 325.34 Z M 380.25 319.78 C 376.93 318.18 377.49 317.26 382.05 316.82 C 386.94 316.36 387.52 316.77 385.35 319.17 C 383.47 321.25 383.33 321.26 380.25 319.78 Z M 286.81 298.14 C 287.05 293.82 287.49 292.68 289.06 292.28 C 291.84 291.55 291.46 290.00 288.50 290.00 C 285.62 290.00 285.03 287.05 287.50 285.00 C 289.53 283.31 289.39 282.33 287.00 281.71 C 285.65 281.36 285.00 280.35 285.00 278.59 C 285.00 276.49 284.52 276.00 282.50 276.00 C 280.49 276.00 280.00 275.50 280.00 273.48 C 280.00 271.47 280.62 270.83 282.98 270.35 C 286.24 269.70 286.13 268.00 282.83 268.00 C 281.03 268.00 280.86 267.57 281.42 264.58 C 281.96 261.68 281.74 261.05 279.98 260.49 C 277.47 259.70 275.00 261.53 275.00 264.19 C 275.00 266.81 273.11 270.19 272.02 269.51 C 271.53 269.21 270.89 269.37 270.58 269.87 C 270.27 270.37 270.88 271.00 271.93 271.27 C 273.60 271.71 273.73 272.25 272.94 275.64 C 272.45 277.76 272.04 281.64 272.02 284.25 C 272.00 289.34 273.07 290.10 277.15 287.92 C 279.58 286.62 279.81 286.80 280.58 290.66 C 281.16 293.53 280.99 293.72 277.03 294.59 C 274.75 295.09 273.02 295.95 273.19 296.50 C 273.36 297.05 273.73 297.45 274.00 297.38 C 280.09 295.93 281.00 296.07 281.00 298.44 C 281.00 302.39 282.09 304.13 284.38 303.80 C 286.19 303.54 286.54 302.72 286.81 298.14 Z M 307.46 301.06 C 307.78 300.55 307.27 299.69 306.33 299.16 C 304.79 298.30 304.93 297.85 307.72 294.67 C 310.88 291.06 312.63 287.30 311.62 286.29 C 311.31 285.98 308.80 286.17 306.05 286.71 C 303.29 287.26 300.90 287.57 300.74 287.40 C 300.57 287.24 300.67 284.72 300.97 281.81 C 301.40 277.53 301.88 276.45 303.50 276.16 C 307.08 275.52 307.58 274.00 304.20 274.00 C 301.34 274.00 301.00 273.69 301.00 271.12 C 301.00 268.99 301.59 268.06 303.25 267.57 L 305.50 266.90 L 303.25 265.98 C 301.85 265.41 300.99 264.20 300.98 262.78 C 300.96 259.38 299.71 258.00 297.21 258.65 C 295.48 259.11 295.00 259.96 295.00 262.64 C 295.00 265.29 294.45 266.29 292.53 267.17 C 289.87 268.38 290.08 270.23 292.83 269.78 C 294.04 269.58 294.58 270.35 294.80 272.61 C 295.07 275.38 294.76 275.80 292.05 276.34 C 288.25 277.10 287.99 279.26 291.75 278.82 C 294.48 278.50 294.50 278.54 294.50 284.50 C 294.50 291.10 294.60 291.17 301.75 289.71 C 303.54 289.35 305.00 289.43 305.00 289.89 C 305.00 291.75 300.73 296.00 298.87 296.00 C 296.17 296.00 297.37 297.62 301.81 299.97 C 306.08 302.22 306.68 302.33 307.46 301.06 Z M 328.41 296.25 C 328.34 292.47 328.58 292.00 330.59 292.00 C 332.18 292.00 332.96 292.67 333.18 294.25 C 333.38 295.67 334.30 296.61 335.68 296.81 C 337.50 297.07 337.92 296.57 338.18 293.81 C 338.43 291.26 339.02 290.43 340.75 290.18 C 342.67 289.91 343.00 290.32 343.00 292.96 C 343.00 294.83 342.39 296.30 341.46 296.65 C 339.36 297.46 344.60 300.20 347.45 299.79 C 349.29 299.53 349.53 298.70 349.78 291.50 C 349.94 287.10 349.70 281.02 349.25 278.00 L 348.43 272.50 L 341.71 272.72 L 335.00 272.94 L 337.57 267.87 C 341.42 260.27 340.46 259.27 331.60 261.71 C 330.06 262.13 329.85 261.88 330.48 260.37 C 330.91 259.34 331.48 257.49 331.75 256.25 C 332.48 252.88 328.63 253.31 326.08 256.89 C 323.92 259.92 320.00 268.47 320.00 270.15 C 320.00 272.30 324.59 270.32 326.48 267.34 C 327.59 265.61 329.51 263.98 330.75 263.73 C 333.45 263.19 333.43 263.02 331.27 269.11 C 329.72 273.47 329.15 274.06 326.02 274.58 C 319.43 275.66 319.65 275.28 320.40 284.25 C 320.78 288.76 321.57 294.40 322.17 296.78 C 323.15 300.64 323.55 301.07 325.88 300.80 C 328.26 300.53 328.49 300.12 328.41 296.25 Z M 106.70 298.36 C 105.85 297.51 105.78 209.41 106.63 206.25 C 106.96 205.01 107.97 204.01 108.87 204.02 C 110.18 204.03 110.23 204.20 109.13 204.90 C 108.19 205.49 109.03 205.89 111.80 206.15 C 114.02 206.36 115.60 206.16 115.32 205.70 C 115.03 205.25 116.53 205.22 118.65 205.65 C 121.98 206.33 143.55 206.50 178.00 206.13 C 183.22 206.07 189.07 206.13 191.00 206.26 L 194.50 206.50 L 194.50 252.42 L 194.50 298.33 L 150.95 298.70 C 126.99 298.89 107.08 298.75 106.70 298.36 Z M 380.25 292.87 C 382.31 292.35 384.00 291.44 384.00 290.85 C 384.00 290.27 383.27 290.07 382.38 290.41 C 380.71 291.05 380.71 290.99 382.66 283.25 C 383.14 281.35 382.83 281.00 380.67 281.00 C 378.43 281.00 377.88 281.71 376.37 286.50 C 374.82 291.40 374.34 292.00 371.90 292.00 C 370.39 292.00 368.37 292.30 367.40 292.67 C 365.77 293.30 365.79 293.40 367.57 294.10 C 369.58 294.89 373.89 294.47 380.25 292.87 Z M 328.00 287.50 C 328.00 285.67 328.53 285.00 330.00 285.00 C 331.47 285.00 332.00 285.67 332.00 287.50 C 332.00 289.33 331.47 290.00 330.00 290.00 C 328.53 290.00 328.00 289.33 328.00 287.50 Z M 372.00 288.57 C 372.00 286.22 369.70 283.00 368.02 283.00 C 365.66 283.00 365.63 283.10 367.16 286.45 C 367.80 287.85 369.15 289.00 370.16 289.00 C 371.17 289.00 372.00 288.80 372.00 288.57 Z M 338.00 285.50 C 338.00 283.67 338.53 283.00 340.00 283.00 C 341.47 283.00 342.00 283.67 342.00 285.50 C 342.00 287.33 341.47 288.00 340.00 288.00 C 338.53 288.00 338.00 287.33 338.00 285.50 Z M 278.07 283.25 C 278.11 281.74 278.53 279.60 279.00 278.50 C 279.65 277.00 279.88 277.68 279.93 281.25 C 279.97 283.86 279.55 286.00 279.00 286.00 C 278.45 286.00 278.03 284.76 278.07 283.25 Z M 327.00 279.50 C 327.00 276.73 327.40 276.00 328.89 276.00 C 330.31 276.00 330.88 276.88 331.19 279.50 C 331.55 282.60 331.34 283.00 329.30 283.00 C 327.34 283.00 327.00 282.49 327.00 279.50 Z M 337.52 280.75 C 336.27 277.05 336.58 275.49 338.62 275.20 C 340.26 274.96 340.87 275.54 341.28 277.69 C 341.95 281.18 338.58 283.92 337.52 280.75 Z M 390.00 280.57 C 390.00 277.32 387.99 274.00 386.02 274.00 C 383.60 274.00 383.49 275.12 385.53 279.05 C 387.11 282.10 390.00 283.08 390.00 280.57 Z M 380.80 277.70 C 381.61 277.06 381.99 274.97 381.80 272.09 C 381.51 267.63 381.40 267.49 378.00 267.21 C 376.07 267.05 372.70 267.29 370.50 267.75 C 367.00 268.47 366.46 268.96 366.20 271.60 C 366.04 273.25 366.35 275.79 366.90 277.24 C 367.86 279.76 368.13 279.84 373.70 279.30 C 376.89 278.98 380.08 278.27 380.80 277.70 Z M 372.00 273.00 C 372.00 269.67 372.33 269.00 374.00 269.00 C 375.23 269.00 376.01 269.67 376.01 270.75 C 376.02 271.71 376.30 273.51 376.63 274.75 C 377.14 276.66 376.84 277.00 374.62 277.00 C 372.23 277.00 372.00 276.65 372.00 273.00 Z M 376.75 263.01 C 377.99 263.00 379.00 262.49 379.00 261.87 C 379.00 260.46 368.98 261.61 367.50 263.19 C 366.80 263.94 367.68 264.08 370.50 263.64 C 372.70 263.30 375.51 263.02 376.75 263.01 Z M 197.08 217.42 C 197.13 216.25 197.36 216.01 197.68 216.81 C 197.97 217.53 197.94 218.40 197.60 218.73 C 197.27 219.06 197.04 218.47 197.08 217.42 Z M 129.81 205.32 C 130.53 205.03 131.40 205.06 131.73 205.40 C 132.06 205.73 131.47 205.96 130.42 205.92 C 129.25 205.87 129.01 205.64 129.81 205.32 Z M 340.27 204.31 C 341.24 204.05 342.59 204.07 343.27 204.34 C 343.95 204.62 343.15 204.83 341.50 204.81 C 339.85 204.78 339.30 204.56 340.27 204.31 Z M 106.60 201.26 C 106.26 200.93 106.01 180.12 106.03 155.02 L 106.07 109.39 L 114.79 109.74 C 141.67 110.82 204.89 111.69 241.00 111.48 C 263.82 111.34 284.41 111.46 286.75 111.75 L 291.00 112.27 L 290.83 118.39 C 290.67 123.73 290.60 123.93 290.26 120.00 C 290.05 117.53 289.45 115.07 288.94 114.55 C 288.35 113.96 288.00 130.12 288.00 157.30 C 288.00 198.22 287.89 201.00 286.25 201.08 C 278.27 201.42 200.62 200.96 200.23 200.56 C 199.95 200.28 199.77 188.45 199.83 174.28 C 199.91 156.55 199.57 147.47 198.75 145.20 C 197.91 142.85 197.87 141.69 198.64 141.20 C 199.97 140.33 200.40 115.00 199.08 115.00 C 198.58 115.00 197.94 115.56 197.66 116.25 C 197.38 116.94 197.12 116.49 197.08 115.25 C 197.04 114.01 196.55 113.00 196.00 113.00 C 195.35 113.00 195.00 127.46 195.00 154.37 C 195.00 177.13 194.72 197.14 194.38 198.84 L 193.76 201.93 L 150.48 201.90 C 126.68 201.89 106.93 201.60 106.60 201.26 Z M 294.95 200.78 C 293.07 200.09 293.00 198.77 292.89 164.28 C 292.83 144.60 292.71 124.79 292.64 120.25 L 292.50 112.00 L 295.50 111.96 C 322.57 111.59 382.70 112.30 383.91 113.01 C 385.31 113.83 385.29 113.94 383.71 113.97 C 382.01 114.00 381.94 116.29 382.21 158.08 L 382.50 202.15 L 339.70 201.83 C 316.16 201.65 296.02 201.18 294.95 200.78 Z M 43.19 191.10 C 53.04 184.16 51.70 168.08 40.80 162.40 C 39.31 161.63 35.37 161.00 32.03 161.00 C 26.39 161.00 25.72 161.25 22.50 164.56 C 12.67 174.69 17.43 191.51 30.84 194.03 C 35.72 194.95 38.76 194.23 43.19 191.10 Z M 82.50 191.47 C 90.17 187.94 92.86 176.44 87.62 169.57 C 86.11 167.58 83.71 165.20 82.30 164.28 C 79.19 162.24 68.89 161.85 68.25 163.75 C 68.02 164.44 67.23 165.00 66.50 165.00 C 63.94 165.00 60.57 172.10 60.57 177.51 C 60.57 184.26 63.30 188.87 69.02 191.77 C 73.75 194.17 76.78 194.10 82.50 191.47 Z M 290.16 190.00 C 290.16 188.62 290.38 188.06 290.66 188.75 C 290.94 189.44 290.94 190.56 290.66 191.25 C 290.38 191.94 290.16 191.38 290.16 190.00 Z M 197.00 173.44 C 197.00 172.58 197.45 172.16 198.00 172.50 C 198.55 172.84 199.00 173.54 199.00 174.06 C 199.00 174.58 198.55 175.00 198.00 175.00 C 197.45 175.00 197.00 174.30 197.00 173.44 Z M 290.08 170.42 C 290.13 169.25 290.36 169.01 290.68 169.81 C 290.97 170.53 290.94 171.40 290.60 171.73 C 290.27 172.06 290.04 171.47 290.08 170.42 Z M 290.16 161.00 C 290.16 159.62 290.38 159.06 290.66 159.75 C 290.94 160.44 290.94 161.56 290.66 162.25 C 290.38 162.94 290.16 162.38 290.16 161.00 Z M 197.23 158.00 C 197.23 156.07 197.44 155.29 197.69 156.25 C 197.94 157.21 197.94 158.79 197.69 159.75 C 197.44 160.71 197.23 159.93 197.23 158.00 Z M 84.62 151.24 C 89.77 148.78 94.03 141.50 94.19 134.87 C 94.56 119.53 78.59 109.65 64.75 116.66 C 63.24 117.42 62.00 118.40 62.00 118.84 C 62.00 119.27 61.04 120.65 59.87 121.91 C 55.82 126.26 55.19 136.49 58.57 143.10 C 60.41 146.71 66.49 151.85 69.77 152.57 C 71.27 152.90 72.95 153.34 73.50 153.54 C 75.20 154.16 81.03 152.95 84.62 151.24 Z M 290.16 152.00 C 290.16 150.62 290.38 150.06 290.66 150.75 C 290.94 151.44 290.94 152.56 290.66 153.25 C 290.38 153.94 290.16 153.38 290.16 152.00 Z M 39.02 142.49 C 42.65 140.61 44.00 138.18 44.00 133.52 C 44.00 126.03 39.43 121.80 31.33 121.80 C 29.26 121.80 27.40 122.30 27.19 122.92 C 26.99 123.53 26.11 124.75 25.23 125.62 C 24.34 126.52 23.45 129.53 23.20 132.56 C 22.80 137.47 23.01 138.16 25.80 140.96 C 29.29 144.44 34.15 145.01 39.02 142.49 Z M 384.16 126.00 C 384.16 124.62 384.38 124.06 384.66 124.75 C 384.94 125.44 384.94 126.56 384.66 127.25 C 384.38 127.94 384.16 127.38 384.16 126.00 Z M 135.73 102.40 C 135.40 102.06 134.53 102.03 133.81 102.32 C 133.01 102.64 133.25 102.87 134.42 102.92 C 135.47 102.96 136.06 102.73 135.73 102.40 Z M 353.00 99.15 C 358.53 96.26 363.14 91.38 366.19 85.19 C 368.37 80.76 368.50 79.38 368.50 60.48 L 368.50 40.46 L 365.21 33.78 C 361.26 25.74 354.95 19.83 348.26 17.88 C 344.53 16.80 333.92 16.50 299.00 16.50 L 254.50 16.50 L 249.50 18.95 C 244.62 21.35 238.00 26.87 238.00 28.54 C 238.00 28.99 237.04 31.34 235.88 33.76 C 233.18 39.33 232.27 48.06 232.66 64.74 C 232.95 76.80 233.23 78.55 235.82 84.26 C 237.67 88.35 240.27 91.95 243.29 94.61 C 251.61 101.93 251.66 101.93 303.00 101.70 L 348.50 101.50 L 353.00 99.15 Z M 261.00 95.00 C 254.63 94.42 247.21 90.51 244.04 86.06 C 239.82 80.14 239.00 75.62 239.02 58.62 C 239.04 44.57 239.31 41.92 241.08 38.00 C 243.59 32.45 247.26 28.48 252.50 25.66 C 256.42 23.54 257.31 23.50 299.00 23.56 C 344.61 23.62 346.86 23.84 353.25 28.74 C 360.43 34.25 362.80 43.62 362.95 67.07 C 363.03 79.67 358.54 88.53 349.65 93.28 C 345.56 95.47 344.90 95.50 306.00 95.50 C 284.27 95.50 264.02 95.28 261.00 95.00 Z M 348.97 91.03 C 350.06 89.94 351.25 87.87 351.61 86.43 C 351.97 84.99 351.87 71.94 351.38 57.43 C 350.53 31.90 350.43 30.98 348.22 28.78 C 345.97 26.52 345.69 26.50 319.38 26.50 L 292.82 26.50 L 290.91 28.86 C 289.13 31.06 289.00 33.12 289.00 58.36 C 289.01 83.45 289.15 85.74 290.95 88.68 C 292.20 90.73 293.87 92.00 295.69 92.28 C 297.24 92.51 309.41 92.77 322.75 92.85 C 345.67 92.99 347.11 92.89 348.97 91.03 Z M 296.29 84.32 C 295.94 83.39 295.61 71.58 295.57 58.07 L 295.50 33.50 L 318.00 33.22 C 330.38 33.06 341.51 33.18 342.75 33.49 L 345.00 34.04 L 345.00 60.02 L 345.00 86.00 L 320.97 86.00 C 299.38 86.00 296.87 85.83 296.29 84.32 Z M 283.82 78.75 C 283.50 76.52 283.34 76.50 264.87 76.23 C 248.49 75.99 246.16 76.15 245.61 77.57 C 245.27 78.46 245.25 79.59 245.56 80.09 C 245.87 80.59 254.67 81.00 265.13 81.00 L 284.14 81.00 L 283.82 78.75 Z M 283.50 69.52 C 283.50 66.84 280.10 66.42 261.25 66.82 L 246.00 67.14 L 246.00 69.59 L 246.00 72.04 L 264.75 71.77 C 282.69 71.51 283.50 71.41 283.50 69.52 Z M 284.00 60.98 C 284.00 57.39 281.61 56.84 267.31 57.10 C 249.47 57.42 245.00 57.92 245.00 59.58 C 245.00 62.08 247.91 62.50 265.93 62.61 C 282.46 62.71 284.00 62.57 284.00 60.98 Z M 271.32 53.04 C 284.03 53.00 284.14 52.98 283.82 50.75 C 283.50 48.52 283.33 48.50 265.07 48.23 C 254.84 48.07 246.24 48.36 245.73 48.87 C 245.18 49.42 245.23 50.55 245.86 51.73 C 246.74 53.39 247.79 53.64 252.70 53.38 C 255.89 53.21 264.27 53.06 271.32 53.04 Z M 283.84 41.62 C 284.03 40.59 283.68 39.42 283.05 39.03 C 282.41 38.64 275.28 38.42 267.20 38.54 C 259.11 38.66 251.71 38.34 250.75 37.84 C 248.50 36.67 244.46 40.14 245.35 42.47 C 245.88 43.84 248.39 44.01 264.71 43.77 C 282.16 43.52 283.50 43.37 283.84 41.62 Z" fill="none" stroke="rgba(255,255,255,0.92)" stroke-width="1.5" stroke-linejoin="round" fill-rule="evenodd"/>
</svg>
