<svg xmlns="http://www.w3.org/2000/svg" viewBox="0 0 100 100" width="100" height="100">
  <path d="M 0.00 50.00 L 0.00 0.00 L 50.00 0.00 L 100.00 0.00 L 100.00 50.00 L 100.00 100.00 L 50.00 100.00 L 0.00 100.00 L 0.00 50.00 Z M 93.50 95.35 C 91.85 95.17 73.55 94.90 52.83 94.76 C 32.11 94.62 14.93 94.27 14.65 93.98 C 14.36 93.69 13.80 73.33 13.41 48.73 L 12.69 4.00 L 9.32 4.00 L 5.96 4.00 L 6.50 27.75 C 6.80 40.81 7.31 61.51 7.64 73.75 L 8.22 96.00 L 52.36 95.84 C 76.64 95.75 95.15 95.53 93.50 95.35 Z M 42.90 86.55 C 44.44 85.75 47.12 83.49 48.85 81.52 C 51.57 78.42 52.00 77.17 52.00 72.42 C 52.00 63.75 48.06 58.16 40.50 56.10 C 34.72 54.53 31.43 54.74 27.06 56.97 C 21.53 59.79 19.00 64.39 19.00 71.65 C 19.00 77.11 19.28 77.85 22.69 81.35 C 25.55 84.30 26.07 85.34 25.00 86.00 C 21.82 87.96 39.14 88.50 42.90 86.55 Z M 84.33 85.64 C 95.55 80.95 96.85 65.51 86.54 59.47 C 76.43 53.54 64.77 58.59 62.65 69.81 C 61.21 77.45 69.02 86.95 76.78 86.98 C 79.14 86.99 82.53 86.39 84.33 85.64 Z M 83.71 47.49 C 87.23 46.45 89.88 44.77 92.39 41.99 C 95.89 38.12 96.00 37.76 96.00 30.15 C 96.00 23.08 95.71 21.90 93.10 18.30 C 83.80 5.45 60.73 10.31 58.43 25.60 C 56.81 36.41 62.90 45.48 73.50 48.06 C 77.94 49.14 78.20 49.13 83.71 47.49 Z M 43.25 36.05 C 50.05 28.44 42.83 16.50 32.59 18.42 C 25.81 19.69 22.84 25.04 24.38 33.19 C 25.70 40.15 37.93 42.00 43.25 36.05 Z" fill="none" stroke="rgba(255,255,255,0.92)" stroke-width="1.2" stroke-linejoin="round" fill-rule="evenodd"/>
</svg>
