<svg xmlns="http://www.w3.org/2000/svg" viewBox="0 0 100 100" width="100" height="100">
  <path d="M 0.00 50.00 L 0.00 0.00 L 50.00 0.00 L 100.00 0.00 L 100.00 50.00 L 100.00 100.00 L 50.00 100.00 L 0.00 100.00 L 0.00 50.00 Z M 70.22 90.50 C 75.27 83.86 76.36 79.69 76.58 66.00 C 76.94 43.61 74.76 33.68 67.78 25.99 C 60.04 17.47 53.85 16.00 25.79 16.00 L 4.00 16.00 L 4.00 19.50 L 4.00 23.00 L 16.75 23.16 C 23.76 23.24 30.02 23.30 30.66 23.28 C 31.30 23.27 36.70 23.58 42.67 23.98 C 57.68 24.98 62.84 27.91 67.32 37.96 C 70.27 44.57 71.09 72.85 68.53 79.55 C 65.32 87.97 58.94 93.66 51.22 94.99 C 47.43 95.64 48.47 95.77 56.46 95.65 L 66.42 95.50 L 70.22 90.50 Z M 95.00 52.08 C 95.00 27.93 94.76 7.53 94.46 6.75 C 94.00 5.56 87.55 5.40 53.21 5.69 C 30.82 5.88 10.59 6.02 8.25 6.02 C 4.19 6.00 4.00 6.13 4.00 9.00 L 4.00 12.00 L 46.00 12.00 L 88.00 12.00 L 88.02 15.25 C 88.03 17.04 88.22 23.68 88.44 30.00 C 88.67 36.33 88.89 53.76 88.93 68.75 L 89.00 96.00 L 92.00 96.00 L 95.00 96.00 L 95.00 52.08 Z M 55.97 91.03 C 57.06 89.94 58.23 87.93 58.57 86.56 C 58.92 85.19 59.02 72.58 58.79 58.53 C 58.41 34.77 58.24 32.80 56.35 30.27 C 55.23 28.77 53.24 27.24 51.91 26.87 C 50.58 26.50 39.26 26.15 26.75 26.10 L 4.00 26.00 L 4.00 29.48 L 4.00 32.96 L 27.75 33.23 L 51.50 33.50 L 51.77 59.75 L 52.03 86.00 L 28.02 86.00 L 4.00 86.00 L 4.00 89.50 L 4.00 93.00 L 29.00 93.00 C 52.56 93.00 54.11 92.89 55.97 91.03 Z" fill="none" stroke="rgba(255,255,255,0.92)" stroke-width="1.2" stroke-linejoin="round" fill-rule="evenodd"/>
</svg>
