<svg xmlns="http://www.w3.org/2000/svg" viewBox="0 0 100 100" width="100" height="100">
  <path d="M 0.00 50.00 L 0.00 0.00 L 50.00 0.00 L 100.00 0.00 L 100.00 50.00 L 100.00 100.00 L 50.00 100.00 L 0.00 100.00 L 0.00 50.00 Z M 96.00 93.25 L 96.00 90.50 L 53.95 90.74 C 30.82 90.88 10.12 90.59 7.95 90.10 L 4.00 89.21 L 4.00 92.61 L 4.00 96.00 L 50.00 96.00 L 96.00 96.00 L 96.00 93.25 Z M 96.00 84.72 L 96.00 81.44 L 71.79 81.21 C 58.47 81.08 47.21 80.61 46.77 80.17 C 46.33 79.73 46.08 68.59 46.23 55.43 L 46.50 31.50 L 71.25 31.73 L 96.00 31.95 L 96.00 28.48 L 96.00 25.00 L 70.09 25.00 L 44.18 25.00 L 41.72 27.92 C 39.04 31.11 39.19 27.14 39.90 76.10 C 39.98 81.65 40.39 83.13 42.45 85.35 L 44.90 88.00 L 70.45 88.00 L 96.00 88.00 L 96.00 84.72 Z M 33.96 75.54 C 36.43 72.57 34.01 72.00 18.94 72.00 L 4.00 72.00 L 4.00 74.50 L 4.00 77.00 L 18.38 77.00 C 29.75 77.00 33.01 76.70 33.96 75.54 Z M 33.90 67.09 C 34.66 66.60 35.01 65.48 34.68 64.60 C 34.15 63.23 31.89 63.00 19.03 63.00 L 4.00 63.00 L 4.00 65.50 L 4.00 68.00 L 18.25 67.98 C 26.09 67.98 33.13 67.57 33.90 67.09 Z M 34.50 56.50 C 34.50 54.60 33.74 54.49 19.25 54.22 L 4.00 53.95 L 4.00 56.50 L 4.00 59.05 L 19.25 58.78 C 33.74 58.51 34.50 58.40 34.50 56.50 Z M 34.53 48.96 C 34.88 48.38 34.63 47.26 33.96 46.46 C 33.01 45.30 29.75 45.00 18.38 45.00 L 4.00 45.00 L 4.00 47.50 L 4.00 50.00 L 18.94 50.00 C 28.24 50.00 34.13 49.61 34.53 48.96 Z M 34.00 39.05 C 34.00 36.34 32.16 36.00 17.42 36.00 L 4.00 36.00 L 4.00 38.47 L 4.00 40.95 L 18.25 41.22 C 26.09 41.38 32.84 41.36 33.25 41.19 C 33.66 41.02 34.00 40.06 34.00 39.05 Z M 96.00 19.26 L 96.00 16.00 L 50.00 16.00 L 4.00 16.00 L 4.00 19.25 L 4.00 22.50 L 50.00 22.51 L 96.00 22.51 L 96.00 19.26 Z M 96.00 8.89 L 96.00 6.00 L 50.00 6.00 L 4.00 6.00 L 4.00 8.99 L 4.00 11.98 L 47.25 12.24 C 71.04 12.38 91.74 12.34 93.25 12.14 C 95.53 11.84 96.00 11.28 96.00 8.89 Z" fill="none" stroke="rgba(255,255,255,0.92)" stroke-width="1.2" stroke-linejoin="round" fill-rule="evenodd"/>
</svg>
