<svg xmlns="http://www.w3.org/2000/svg" viewBox="0 0 100 100" width="100" height="100">
  <path d="M 0.00 50.00 L 0.00 0.00 L 50.00 0.00 L 100.00 0.00 L 100.00 50.00 L 100.00 100.00 L 50.00 100.00 L 0.00 100.00 L 0.00 50.00 Z M 12.04 92.75 C 12.07 90.96 12.05 72.34 12.00 51.38 L 11.92 13.26 L 14.21 12.64 C 15.47 12.30 34.39 12.02 56.25 12.01 L 96.00 12.00 L 96.00 9.00 L 96.00 6.00 L 60.15 6.00 C 40.44 6.00 20.19 6.29 15.15 6.65 L 6.00 7.30 L 6.00 51.65 L 6.00 96.00 L 9.00 96.00 C 11.71 96.00 12.00 95.68 12.04 92.75 Z" fill="none" stroke="rgba(255,255,255,0.92)" stroke-width="1.2" stroke-linejoin="round" fill-rule="evenodd"/>
</svg>
