<svg xmlns="http://www.w3.org/2000/svg" viewBox="0 0 100 100" width="100" height="100">
  <path d="M 0.00 50.00 L 0.00 0.00 L 50.00 0.00 L 100.00 0.00 L 100.00 50.00 L 100.00 100.00 L 50.00 100.00 L 0.00 100.00 L 0.00 50.00 Z M 66.37 95.03 C 55.81 93.82 47.68 87.33 45.00 77.99 C 44.47 76.14 44.00 67.27 43.95 58.26 C 43.85 40.36 44.61 37.31 50.84 30.66 C 56.47 24.64 59.87 23.73 78.75 23.21 L 96.00 22.73 L 96.00 19.25 L 96.00 15.78 L 77.75 16.17 C 60.25 16.54 59.26 16.67 53.70 19.33 C 50.51 20.86 47.65 22.76 47.34 23.55 C 47.04 24.35 46.27 25.00 45.64 25.00 C 44.24 25.00 40.20 33.59 38.37 40.46 C 36.49 47.50 36.57 70.93 38.49 78.32 C 40.16 84.72 41.93 87.96 46.38 92.75 L 49.39 96.00 L 60.95 95.86 C 70.96 95.74 71.68 95.63 66.37 95.03 Z M 84.25 95.28 C 82.46 95.05 79.54 95.05 77.75 95.28 C 75.96 95.50 77.42 95.68 81.00 95.68 C 84.58 95.68 86.04 95.50 84.25 95.28 Z M 95.25 95.34 C 94.56 95.06 93.44 95.06 92.75 95.34 C 92.06 95.62 92.62 95.84 94.00 95.84 C 95.38 95.84 95.94 95.62 95.25 95.34 Z M 95.91 58.75 C 95.87 43.21 95.49 31.62 95.08 33.00 C 94.66 34.38 94.45 37.52 94.61 40.00 C 94.76 42.48 94.92 54.06 94.95 65.75 C 94.98 77.44 95.22 87.00 95.50 87.00 C 95.78 87.00 95.96 74.29 95.91 58.75 Z M 89.82 78.75 C 89.50 76.52 89.35 76.50 70.37 76.23 C 53.53 75.99 51.16 76.15 50.61 77.57 C 50.27 78.46 50.25 79.59 50.56 80.09 C 50.87 80.59 59.90 81.00 70.63 81.00 L 90.14 81.00 L 89.82 78.75 Z M 89.50 69.52 C 89.50 66.83 86.13 66.43 66.75 66.82 L 51.00 67.14 L 51.00 69.59 L 51.00 72.04 L 70.25 71.77 C 88.69 71.51 89.50 71.42 89.50 69.52 Z M 89.76 61.22 C 90.00 60.51 89.60 59.22 88.87 58.35 C 87.74 56.98 85.16 56.83 69.72 57.24 C 51.54 57.72 47.45 58.62 51.10 61.32 C 53.47 63.07 89.17 62.97 89.76 61.22 Z M 77.32 53.07 C 90.02 53.00 90.14 52.98 89.82 50.75 C 89.50 48.52 89.35 48.50 70.57 48.23 C 60.04 48.08 51.24 48.36 50.73 48.87 C 50.18 49.42 50.22 50.54 50.84 51.70 C 51.70 53.31 52.84 53.57 58.18 53.37 C 61.66 53.25 70.27 53.11 77.32 53.07 Z M 88.42 43.39 C 90.52 42.59 90.43 40.29 88.25 39.19 C 87.29 38.70 79.97 38.40 72.00 38.52 C 64.03 38.64 56.71 38.33 55.75 37.83 C 53.52 36.68 49.46 40.15 50.34 42.44 C 50.85 43.77 53.57 44.00 68.89 44.00 C 78.76 44.00 87.55 43.73 88.42 43.39 Z M 87.25 12.19 L 96.00 11.72 L 96.00 8.81 L 96.00 5.91 L 54.75 6.11 C 32.06 6.23 11.36 6.52 8.75 6.76 C 4.26 7.18 4.00 7.36 4.00 10.14 L 4.00 13.09 L 41.25 12.88 C 61.74 12.76 82.44 12.45 87.25 12.19 Z" fill="none" stroke="rgba(255,255,255,0.92)" stroke-width="1.2" stroke-linejoin="round" fill-rule="evenodd"/>
</svg>
