<svg xmlns="http://www.w3.org/2000/svg" viewBox="0 0 100 100" width="100" height="100">
  <path d="M 0.00 50.00 L 0.00 0.00 L 50.00 0.00 L 100.00 0.00 L 100.00 50.00 L 100.00 100.00 L 50.00 100.00 L 0.00 100.00 L 0.00 50.00 Z M 12.91 50.00 L 12.73 4.00 L 9.36 4.00 L 6.00 4.00 L 6.00 50.00 L 6.00 96.00 L 9.54 96.00 L 13.09 96.00 L 12.91 50.00 Z M 39.75 95.31 C 38.79 95.06 37.21 95.06 36.25 95.31 C 35.29 95.56 36.08 95.77 38.00 95.77 C 39.92 95.77 40.71 95.56 39.75 95.31 Z M 52.18 50.33 C 52.15 29.52 52.10 11.47 52.06 10.22 C 51.99 7.55 49.18 6.09 47.95 8.08 C 47.48 8.84 47.10 27.12 47.10 48.71 C 47.11 84.57 47.26 88.04 48.80 88.92 C 49.75 89.45 50.89 89.49 51.37 89.02 C 51.85 88.55 52.21 71.14 52.18 50.33 Z M 67.94 48.55 C 67.99 27.49 67.76 9.53 67.41 8.63 C 67.07 7.73 65.82 7.00 64.64 7.00 L 62.50 7.00 L 62.29 47.17 C 62.09 84.07 62.21 87.44 63.79 88.62 C 67.55 91.44 67.84 88.60 67.94 48.55 Z M 81.89 88.63 C 82.70 87.65 82.95 75.99 82.76 47.38 L 82.50 7.50 L 80.25 7.18 C 78.91 6.99 77.98 7.39 77.96 8.18 C 77.56 19.88 77.99 88.17 78.46 88.94 C 79.35 90.38 80.53 90.27 81.89 88.63 Z M 37.13 73.75 C 37.41 41.51 36.85 8.46 36.01 7.62 C 35.53 7.13 34.44 7.00 33.59 7.33 C 32.23 7.85 32.04 12.81 32.04 48.46 L 32.03 89.00 L 34.51 89.00 L 37.00 89.00 L 37.13 73.75 Z" fill="none" stroke="rgba(255,255,255,0.92)" stroke-width="1.2" stroke-linejoin="round" fill-rule="evenodd"/>
</svg>
