<svg xmlns="http://www.w3.org/2000/svg" viewBox="0 0 100 100" width="100" height="100">
  <path d="M 0.00 50.00 L 0.00 0.00 L 50.00 0.00 L 100.00 0.00 L 100.00 50.00 L 100.00 100.00 L 50.00 100.00 L 0.00 100.00 L 0.00 50.00 Z M 95.36 88.75 C 95.28 84.76 95.17 64.06 95.11 42.75 L 95.00 4.00 L 92.00 4.00 L 89.00 4.00 L 89.00 49.49 L 89.00 94.98 L 46.25 95.25 L 3.50 95.52 L 49.50 95.76 L 95.50 95.99 L 95.36 88.75 Z M 24.00 49.58 C 24.00 28.45 23.73 10.45 23.39 9.58 C 22.56 7.42 19.02 7.55 18.91 9.75 C 18.59 16.01 19.25 86.60 19.64 87.23 C 19.90 87.65 20.99 88.00 22.06 88.00 C 23.95 88.00 24.00 86.94 24.00 49.58 Z M 39.14 86.75 C 39.34 86.06 39.38 68.33 39.23 47.35 C 38.99 13.80 38.76 9.12 37.39 8.59 C 36.52 8.26 35.40 8.26 34.88 8.58 C 33.89 9.19 33.70 84.04 34.67 86.59 C 35.34 88.34 38.66 88.45 39.14 86.75 Z M 54.20 84.75 C 54.87 80.09 54.21 10.15 53.49 8.98 C 52.35 7.14 50.04 8.00 49.41 10.48 C 48.96 12.32 49.44 86.23 49.92 87.75 C 49.96 87.89 50.84 88.00 51.87 88.00 C 53.22 88.00 53.87 87.09 54.20 84.75 Z M 69.96 50.75 C 69.87 30.26 69.59 12.26 69.32 10.75 C 68.65 6.92 65.38 7.01 64.52 10.89 C 64.18 12.48 64.14 24.51 64.44 37.64 C 64.74 50.76 64.99 67.46 65.00 74.75 L 65.00 88.00 L 67.55 88.00 L 70.11 88.00 L 69.96 50.75 Z" fill="none" stroke="rgba(255,255,255,0.92)" stroke-width="1.2" stroke-linejoin="round" fill-rule="evenodd"/>
</svg>
