<svg xmlns="http://www.w3.org/2000/svg" viewBox="0 0 100 100" width="100" height="100">
  <path d="M 0.00 50.00 L 0.00 0.00 L 50.00 0.00 L 100.00 0.00 L 100.00 50.00 L 100.00 100.00 L 50.00 100.00 L 0.00 100.00 L 0.00 50.00 Z M 94.16 82.63 C 88.97 77.02 88.08 73.40 87.89 57.00 C 87.69 40.29 88.35 37.16 93.53 30.37 C 95.12 28.28 96.00 25.83 96.00 23.45 L 96.00 19.77 L 93.25 21.52 C 89.23 24.06 86.02 27.90 83.62 33.00 C 81.70 37.08 81.50 39.24 81.50 56.00 L 81.50 74.50 L 84.47 80.36 C 86.10 83.58 89.25 87.78 91.47 89.68 L 95.50 93.14 L 95.81 88.95 C 96.04 85.86 95.61 84.20 94.16 82.63 Z M 95.66 72.75 C 95.38 72.06 95.16 72.62 95.16 74.00 C 95.16 75.38 95.38 75.94 95.66 75.25 C 95.94 74.56 95.94 73.44 95.66 72.75 Z M 96.00 65.30 C 96.00 63.44 95.68 62.92 94.97 63.63 C 94.40 64.20 94.22 65.42 94.57 66.33 C 95.50 68.75 96.00 68.38 96.00 65.30 Z M 96.00 56.30 C 96.00 54.29 95.71 53.89 94.87 54.73 C 94.24 55.36 94.01 56.57 94.34 57.43 C 95.25 59.82 96.00 59.31 96.00 56.30 Z M 96.00 47.30 C 96.00 45.29 95.71 44.89 94.87 45.73 C 94.24 46.36 94.01 47.57 94.34 48.43 C 95.25 50.82 96.00 50.31 96.00 47.30 Z M 96.00 39.00 C 96.00 37.90 95.55 37.00 95.00 37.00 C 94.45 37.00 94.00 37.90 94.00 39.00 C 94.00 40.10 94.45 41.00 95.00 41.00 C 95.55 41.00 96.00 40.10 96.00 39.00 Z M 79.34 12.34 L 96.00 11.69 L 96.00 8.68 L 96.00 5.68 L 71.84 6.34 C 58.55 6.70 37.85 7.00 25.84 7.00 L 4.00 7.00 L 4.00 10.00 L 4.00 13.00 L 33.34 13.00 C 49.48 13.00 70.18 12.70 79.34 12.34 Z" fill="none" stroke="rgba(255,255,255,0.92)" stroke-width="1.2" stroke-linejoin="round" fill-rule="evenodd"/>
</svg>
