<svg xmlns="http://www.w3.org/2000/svg" viewBox="0 0 100 100" width="100" height="100">
  <path d="M 0.00 50.00 L 0.00 0.00 L 50.00 0.00 L 100.00 0.00 L 100.00 50.00 L 100.00 100.00 L 50.00 100.00 L 0.00 100.00 L 0.00 50.00 Z M 95.51 6.17 C 95.23 5.89 74.52 5.45 49.50 5.20 L 4.00 4.74 L 4.00 7.86 L 4.00 10.98 L 49.25 11.24 L 94.50 11.50 L 94.67 43.50 C 94.77 61.10 94.99 80.22 95.16 86.00 C 95.34 91.78 95.60 76.29 95.75 51.59 C 95.90 26.90 95.79 6.46 95.51 6.17 Z M 78.98 90.01 C 89.40 84.69 92.25 70.91 84.71 62.32 C 76.89 53.42 64.96 52.80 56.88 60.88 C 52.28 65.49 50.78 70.55 52.04 77.21 C 54.33 89.28 67.84 95.69 78.98 90.01 Z M 35.76 86.01 C 37.55 84.91 39.96 82.09 41.10 79.72 C 42.92 75.99 43.04 74.88 42.07 71.26 C 39.83 62.95 32.86 58.05 25.29 59.47 C 17.28 60.98 12.49 67.33 13.27 75.42 C 13.67 79.63 14.35 80.94 17.83 84.18 C 21.50 87.61 22.46 88.00 27.21 88.00 C 30.72 87.99 33.59 87.32 35.76 86.01 Z M 34.99 46.75 C 40.83 43.78 44.36 37.43 43.69 31.14 C 42.51 20.14 31.28 14.13 20.68 18.82 C 14.58 21.52 12.01 25.73 12.00 33.02 C 12.00 37.73 12.46 39.10 15.11 42.31 C 20.65 49.04 27.50 50.57 34.99 46.75 Z M 76.09 41.45 C 81.72 38.54 82.74 30.59 78.08 25.92 C 74.10 21.95 67.58 21.80 63.08 25.59 C 60.48 27.77 60.00 28.88 60.00 32.67 C 60.00 41.19 68.08 45.60 76.09 41.45 Z" fill="none" stroke="rgba(255,255,255,0.92)" stroke-width="1.2" stroke-linejoin="round" fill-rule="evenodd"/>
</svg>
