<svg xmlns="http://www.w3.org/2000/svg" viewBox="0 0 383 400" width="383" height="400">
  <path d="M 0.00 200.00 L 0.00 0.00 L 191.50 0.00 L 383.00 0.00 L 383.00 200.00 L 383.00 400.00 L 191.50 400.00 L 0.00 400.00 L 0.00 200.00 Z M 162.00 391.48 C 214.05 389.83 252.53 389.13 318.90 388.59 C 353.42 388.31 374.52 387.78 374.90 387.17 C 375.23 386.63 375.39 360.84 375.26 329.85 C 375.13 298.86 374.90 214.33 374.76 142.00 L 374.50 10.50 L 270.50 10.57 C 213.30 10.61 131.06 10.72 87.75 10.82 L 9.00 11.00 L 9.00 14.85 C 9.00 16.97 9.49 20.11 10.09 21.83 C 10.98 24.38 10.89 25.26 9.59 26.55 C 8.72 27.43 8.00 28.22 8.01 28.32 C 8.02 28.42 8.69 30.71 9.51 33.40 C 10.60 37.00 10.70 38.65 9.89 39.63 C 9.11 40.57 9.08 42.64 9.79 46.73 C 10.50 50.81 10.47 52.70 9.70 53.18 C 8.92 53.67 8.98 55.76 9.93 60.54 C 10.93 65.57 10.97 67.40 10.10 67.94 C 9.23 68.47 9.22 69.95 10.06 73.86 C 10.81 77.35 10.85 79.48 10.18 80.29 C 9.51 81.10 9.54 83.29 10.25 86.88 C 11.00 90.65 11.00 92.77 10.27 93.95 C 9.53 95.12 9.53 97.23 10.26 100.91 C 11.05 104.93 11.01 106.37 10.08 106.95 C 9.12 107.54 9.14 109.06 10.17 114.02 C 11.00 118.04 11.11 120.46 10.49 120.67 C 9.31 121.07 9.23 137.05 10.38 141.79 C 10.91 143.97 10.77 145.57 9.97 146.53 C 9.30 147.34 9.03 149.20 9.35 150.74 C 11.05 158.87 11.15 160.12 10.17 161.29 C 9.47 162.14 9.42 163.90 10.03 166.53 C 11.19 171.54 11.24 174.27 10.16 173.60 C 9.18 172.99 9.36 191.50 10.37 194.62 C 10.74 195.78 10.57 197.99 9.99 199.53 C 9.22 201.55 9.26 203.82 10.14 207.74 C 11.10 212.02 11.10 213.32 10.12 213.92 C 9.16 214.52 9.15 215.70 10.08 219.41 C 11.01 223.09 11.00 224.63 10.05 226.41 C 9.08 228.21 9.09 229.57 10.07 232.85 C 11.05 236.10 11.06 237.58 10.12 239.64 C 9.19 241.68 9.18 243.47 10.11 247.60 C 11.04 251.76 11.04 253.25 10.09 254.39 C 9.14 255.54 9.14 256.73 10.09 259.92 C 10.93 262.71 11.00 264.68 10.32 266.20 C 9.78 267.42 9.65 270.23 10.04 272.46 C 10.43 274.68 10.58 280.32 10.38 285.00 C 9.93 295.29 9.93 292.90 10.37 318.50 C 10.56 330.05 11.05 340.46 11.45 341.64 C 11.87 342.88 11.72 344.06 11.09 344.45 C 9.66 345.33 9.70 349.25 11.18 352.50 C 12.10 354.52 12.09 355.87 11.12 358.55 C 10.12 361.31 10.12 362.69 11.12 365.46 C 12.15 368.30 12.13 369.39 11.00 371.50 C 9.80 373.73 9.87 374.73 11.48 379.23 C 12.82 382.93 13.01 384.50 12.17 384.78 C 10.89 385.20 10.62 388.84 11.67 391.57 C 12.29 393.21 16.33 393.27 80.42 392.61 C 117.86 392.22 154.57 391.72 162.00 391.48 Z M 204.65 387.24 C 203.39 385.21 202.97 363.17 202.52 277.00 C 202.25 225.57 201.80 167.30 201.52 147.50 C 200.20 54.59 200.04 22.41 200.88 21.12 C 201.37 20.36 202.28 20.06 202.91 20.44 C 204.00 21.12 256.73 21.19 328.29 20.61 C 349.54 20.44 363.32 20.71 363.68 21.29 C 364.00 21.81 364.34 60.87 364.43 108.09 C 364.59 184.83 364.44 194.01 363.05 194.61 C 362.20 194.97 326.44 195.43 283.58 195.61 C 230.74 195.84 205.32 196.28 204.60 197.00 C 203.87 197.73 203.89 198.59 204.67 199.84 C 205.29 200.83 205.57 202.82 205.29 204.26 L 204.79 206.88 L 257.64 206.43 C 306.40 206.00 327.91 205.97 354.70 206.26 L 364.89 206.37 L 364.99 211.94 C 365.04 215.00 365.09 218.40 365.09 219.50 C 365.09 220.60 365.10 241.07 365.10 265.00 C 365.11 288.93 365.20 324.12 365.31 343.21 L 365.50 377.92 L 328.00 378.04 C 263.58 378.24 207.81 379.38 205.93 380.54 C 205.43 380.85 205.73 382.19 206.60 383.51 C 207.46 384.83 207.88 386.38 207.53 386.96 C 206.77 388.18 205.32 388.32 204.65 387.24 Z M 223.00 384.94 C 223.00 384.36 223.45 384.16 224.00 384.50 C 224.55 384.84 225.00 385.32 225.00 385.56 C 225.00 385.80 224.55 386.00 224.00 386.00 C 223.45 386.00 223.00 385.52 223.00 384.94 Z M 212.75 384.34 C 213.44 384.06 214.56 384.06 215.25 384.34 C 215.94 384.62 215.38 384.84 214.00 384.84 C 212.62 384.84 212.06 384.62 212.75 384.34 Z M 24.56 366.75 C 24.21 358.36 23.82 277.56 23.71 187.18 L 23.50 22.86 L 106.25 22.28 L 189.00 21.70 L 189.05 34.10 C 189.08 40.92 189.26 50.10 189.45 54.50 C 190.17 70.94 191.50 233.16 191.50 304.92 L 191.50 379.33 L 189.00 379.62 C 186.11 379.95 55.52 382.00 37.36 382.00 L 25.21 382.00 L 24.56 366.75 Z M 143.00 369.94 C 147.12 368.80 152.74 366.65 155.48 365.18 C 166.06 359.49 179.42 342.98 181.50 333.00 C 181.90 331.07 182.72 328.89 183.32 328.15 C 184.43 326.78 184.45 323.90 184.04 212.50 C 183.87 165.62 183.66 159.57 181.93 151.11 C 179.52 139.34 175.20 130.66 167.60 122.33 C 160.38 114.42 153.24 109.74 143.29 106.40 C 135.71 103.85 135.68 103.85 104.60 104.18 L 73.50 104.50 L 65.86 108.13 C 47.98 116.64 36.89 129.33 32.35 146.50 C 30.61 153.08 30.51 158.46 30.73 235.50 C 31.00 330.51 30.98 330.31 39.61 345.07 C 47.74 358.97 62.80 369.42 78.50 372.06 C 81.25 372.53 95.20 372.71 109.50 372.47 C 131.91 372.09 136.53 371.74 143.00 369.94 Z M 78.67 359.84 C 66.90 357.91 53.70 347.39 47.58 335.06 C 42.58 325.01 42.50 323.49 42.50 234.00 L 42.50 150.50 L 46.41 142.66 C 51.03 133.41 57.47 126.52 65.62 122.11 C 75.76 116.62 78.27 116.25 106.54 116.08 C 134.38 115.92 137.89 116.38 148.02 121.51 C 154.12 124.60 161.40 132.08 165.46 139.44 C 171.82 150.98 171.84 151.19 172.59 239.00 C 173.22 313.53 173.15 318.91 171.47 325.00 C 169.07 333.72 166.54 338.61 161.66 344.00 C 155.35 350.96 150.13 354.57 142.50 357.26 C 135.97 359.56 133.80 359.76 110.00 360.26 C 95.57 360.57 81.97 360.38 78.67 359.84 Z M 369.00 357.94 C 369.00 356.16 369.42 355.14 370.00 355.50 C 370.55 355.84 371.00 357.22 371.00 358.56 C 371.00 359.90 370.55 361.00 370.00 361.00 C 369.45 361.00 369.00 359.62 369.00 357.94 Z M 371.19 345.50 C 371.22 343.85 371.44 343.30 371.69 344.27 C 371.95 345.24 371.93 346.59 371.66 347.27 C 371.38 347.95 371.17 347.15 371.19 345.50 Z M 369.14 340.50 C 369.08 335.95 369.31 334.92 370.09 336.26 C 370.76 337.43 370.79 339.46 370.16 342.26 L 369.21 346.50 L 369.14 340.50 Z M 159.29 335.82 C 161.37 334.78 163.97 332.47 165.05 330.71 C 166.95 327.62 167.03 325.62 166.94 278.00 C 166.85 223.04 167.01 224.39 160.18 219.19 L 156.64 216.50 L 108.60 216.70 C 61.88 216.90 60.45 216.97 56.46 219.02 C 48.21 223.26 48.47 221.44 48.74 273.50 C 48.87 298.80 49.25 321.68 49.59 324.34 C 50.61 332.28 53.44 336.07 59.82 338.04 C 61.29 338.49 83.42 338.61 109.00 338.29 C 152.04 337.76 155.78 337.58 159.29 335.82 Z M 369.08 326.42 C 369.13 325.25 369.36 325.01 369.68 325.81 C 369.97 326.53 369.94 327.40 369.60 327.73 C 369.27 328.06 369.04 327.47 369.08 326.42 Z M 61.91 325.39 C 60.75 324.00 60.44 315.44 60.19 277.35 L 59.87 231.00 L 62.19 230.12 C 63.46 229.64 84.36 228.99 108.64 228.68 C 149.37 228.15 152.89 228.24 154.14 229.80 C 155.24 231.18 155.50 240.26 155.50 277.48 L 155.50 323.47 L 153.00 324.61 C 151.32 325.39 136.27 325.98 106.91 326.43 C 66.63 327.04 63.21 326.96 61.91 325.39 Z M 369.23 316.00 C 369.23 314.07 369.44 313.29 369.69 314.25 C 369.94 315.21 369.94 316.79 369.69 317.75 C 369.44 318.71 369.23 317.93 369.23 316.00 Z M 369.08 305.42 C 369.13 304.25 369.36 304.01 369.68 304.81 C 369.97 305.53 369.94 306.40 369.60 306.73 C 369.27 307.06 369.04 306.47 369.08 305.42 Z M 369.00 292.91 C 369.00 291.79 369.42 291.14 369.93 291.46 C 370.44 291.77 371.05 291.01 371.29 289.76 C 371.62 288.05 371.76 288.26 371.86 290.64 C 371.95 292.61 371.44 294.00 370.50 294.36 C 369.47 294.76 369.00 294.30 369.00 292.91 Z M 369.08 286.42 C 369.13 285.25 369.36 285.01 369.68 285.81 C 369.97 286.53 369.94 287.40 369.60 287.73 C 369.27 288.06 369.04 287.47 369.08 286.42 Z M 369.00 279.00 C 369.00 277.18 369.42 276.14 370.00 276.50 C 370.55 276.84 371.00 277.96 371.00 279.00 C 371.00 280.04 370.55 281.16 370.00 281.50 C 369.42 281.86 369.00 280.82 369.00 279.00 Z M 369.08 272.42 C 369.13 271.25 369.36 271.01 369.68 271.81 C 369.97 272.53 369.94 273.40 369.60 273.73 C 369.27 274.06 369.04 273.47 369.08 272.42 Z M 369.02 259.75 C 369.03 257.93 369.22 257.79 370.00 259.00 C 371.25 260.94 371.25 262.00 370.00 262.00 C 369.45 262.00 369.01 260.99 369.02 259.75 Z M 369.00 238.06 C 369.00 236.93 369.45 236.00 370.00 236.00 C 370.55 236.00 371.00 236.65 371.00 237.44 C 371.00 238.23 370.55 239.16 370.00 239.50 C 369.45 239.84 369.00 239.19 369.00 238.06 Z M 369.16 215.00 C 369.16 213.62 369.38 213.06 369.66 213.75 C 369.94 214.44 369.94 215.56 369.66 216.25 C 369.38 216.94 369.16 216.38 369.16 215.00 Z M 76.06 205.97 C 77.93 204.97 77.98 203.74 77.51 168.39 C 77.25 148.30 76.77 131.44 76.46 130.93 C 75.62 129.58 71.41 129.79 70.22 131.25 C 69.55 132.07 69.31 144.85 69.52 168.30 C 69.88 208.11 70.06 209.18 76.06 205.97 Z M 93.67 205.75 C 94.91 203.80 94.03 132.75 92.75 131.20 C 92.16 130.48 90.51 130.03 89.09 130.20 L 86.50 130.50 L 86.50 167.33 C 86.50 202.64 86.58 204.22 88.44 205.58 C 90.84 207.33 92.63 207.39 93.67 205.75 Z M 109.94 205.58 C 111.41 203.80 111.47 136.37 110.00 132.51 C 108.96 129.77 104.77 128.98 103.32 131.25 C 102.89 131.94 102.67 148.47 102.84 168.00 C 103.11 198.62 103.37 203.74 104.73 205.25 C 106.64 207.37 108.36 207.48 109.94 205.58 Z M 126.99 204.52 C 128.74 202.40 127.82 132.69 126.00 130.50 C 124.25 128.40 121.27 128.63 120.01 130.97 C 118.98 132.90 119.60 203.52 120.66 205.25 C 121.46 206.55 125.70 206.06 126.99 204.52 Z M 144.23 202.50 C 144.70 200.85 144.79 184.33 144.42 165.79 C 143.81 135.09 143.59 131.94 141.95 130.45 C 140.82 129.43 139.37 129.07 138.07 129.48 C 135.72 130.22 135.78 129.51 136.01 155.50 C 136.39 197.44 136.60 202.82 137.97 204.46 C 140.04 206.96 143.23 205.96 144.23 202.50 Z M 207.39 202.42 C 207.73 201.55 208.00 200.65 208.00 200.42 C 208.00 200.19 209.01 200.05 210.25 200.12 C 211.85 200.20 212.01 200.36 210.81 200.68 C 209.82 200.94 209.34 201.73 209.66 202.56 C 210.01 203.47 209.58 204.00 208.50 204.00 C 207.35 204.00 206.99 203.48 207.39 202.42 Z M 221.00 203.00 C 221.00 202.45 221.93 202.00 223.06 202.00 C 224.19 202.00 224.84 202.45 224.50 203.00 C 224.16 203.55 223.23 204.00 222.44 204.00 C 221.65 204.00 221.00 203.55 221.00 203.00 Z M 364.50 203.00 C 364.84 202.45 365.32 202.00 365.56 202.00 C 365.80 202.00 366.00 202.45 366.00 203.00 C 366.00 203.55 365.52 204.00 364.94 204.00 C 364.36 204.00 364.16 203.55 364.50 203.00 Z M 235.67 201.58 C 235.20 200.36 235.73 200.00 238.03 200.00 C 239.66 200.00 241.00 200.44 241.00 200.97 C 241.00 201.50 240.28 201.66 239.40 201.32 C 238.52 200.99 237.46 201.26 237.04 201.94 C 236.47 202.85 236.12 202.76 235.67 201.58 Z M 247.76 202.29 C 249.01 202.05 250.81 202.06 251.76 202.31 C 252.72 202.56 251.70 202.76 249.50 202.75 C 247.30 202.74 246.52 202.53 247.76 202.29 Z M 259.27 202.31 C 260.24 202.05 261.59 202.07 262.27 202.34 C 262.95 202.62 262.15 202.83 260.50 202.81 C 258.85 202.78 258.30 202.56 259.27 202.31 Z M 266.73 202.28 C 265.21 202.05 264.23 201.44 264.54 200.93 C 265.28 199.73 269.32 199.72 270.55 200.92 C 271.07 201.43 272.85 202.04 274.50 202.27 C 276.83 202.60 276.61 202.70 273.50 202.70 C 271.30 202.70 268.25 202.51 266.73 202.28 Z M 284.81 202.32 C 285.53 202.03 286.40 202.06 286.73 202.40 C 287.06 202.73 286.47 202.96 285.42 202.92 C 284.25 202.87 284.01 202.64 284.81 202.32 Z M 219.27 200.31 C 220.24 200.05 221.59 200.07 222.27 200.34 C 222.95 200.62 222.15 200.83 220.50 200.81 C 218.85 200.78 218.30 200.56 219.27 200.31 Z M 246.50 200.00 C 246.84 199.45 247.32 199.00 247.56 199.00 C 247.80 199.00 248.00 199.45 248.00 200.00 C 248.00 200.55 247.52 201.00 246.94 201.00 C 246.36 201.00 246.16 200.55 246.50 200.00 Z M 365.00 199.00 C 365.00 198.45 365.45 198.00 366.00 198.00 C 366.55 198.00 367.00 198.45 367.00 199.00 C 367.00 199.55 366.55 200.00 366.00 200.00 C 365.45 200.00 365.00 199.55 365.00 199.00 Z M 369.16 165.00 C 369.16 163.62 369.38 163.06 369.66 163.75 C 369.94 164.44 369.94 165.56 369.66 166.25 C 369.38 166.94 369.16 166.38 369.16 165.00 Z M 369.08 153.42 C 369.13 152.25 369.36 152.01 369.68 152.81 C 369.97 153.53 369.94 154.40 369.60 154.73 C 369.27 155.06 369.04 154.47 369.08 153.42 Z M 369.25 139.50 C 369.26 137.30 369.47 136.52 369.71 137.76 C 369.95 139.01 369.94 140.81 369.69 141.76 C 369.44 142.72 369.24 141.70 369.25 139.50 Z M 368.85 133.50 C 368.49 132.95 368.49 128.90 368.85 124.50 C 369.22 120.10 369.73 117.17 370.01 118.00 C 370.71 120.15 369.63 134.70 368.85 133.50 Z M 369.26 111.99 C 369.34 110.05 369.07 107.92 368.66 107.25 C 368.24 106.58 368.24 104.34 368.65 102.27 L 369.40 98.50 L 370.14 103.44 C 370.55 106.16 370.49 109.98 370.00 111.94 L 369.10 115.50 L 369.26 111.99 Z M 369.08 96.42 C 369.13 95.25 369.36 95.01 369.68 95.81 C 369.97 96.53 369.94 97.40 369.60 97.73 C 369.27 98.06 369.04 97.47 369.08 96.42 Z M 369.75 93.77 C 367.80 91.35 367.62 90.15 368.89 88.14 C 369.49 87.20 369.96 87.12 370.43 87.89 C 370.81 88.50 370.81 89.50 370.43 90.11 C 370.05 90.72 370.30 91.56 370.97 91.98 C 371.64 92.40 372.04 93.46 371.85 94.34 C 371.56 95.68 371.21 95.58 369.75 93.77 Z M 368.73 75.27 C 368.50 74.84 368.61 73.38 368.97 72.00 L 369.63 69.50 L 370.18 72.27 C 370.69 74.85 369.65 76.99 368.73 75.27 Z M 369.58 66.75 C 368.44 61.17 368.34 54.92 369.38 53.50 C 370.24 52.32 370.51 53.92 370.52 60.48 C 370.54 65.17 370.43 69.00 370.29 69.00 C 370.15 69.00 369.83 67.99 369.58 66.75 Z M 370.25 38.80 C 370.20 35.71 370.27 35.65 371.27 37.78 C 371.99 39.33 372.01 40.39 371.32 41.08 C 370.64 41.76 370.29 41.02 370.25 38.80 Z M 369.00 29.67 C 369.00 26.55 369.41 24.00 369.92 24.00 C 370.98 24.00 370.80 33.53 369.72 34.61 C 369.33 35.01 369.00 32.78 369.00 29.67 Z M 201.60 16.41 C 200.75 14.18 200.82 14.00 202.50 14.00 C 203.32 14.00 204.00 14.65 204.00 15.44 C 204.00 17.56 202.31 18.24 201.60 16.41 Z M 324.69 15.93 C 324.10 13.68 325.25 13.40 326.90 15.38 C 327.78 16.44 327.72 16.89 326.62 17.31 C 325.76 17.64 325.00 17.10 324.69 15.93 Z M 237.75 14.34 C 238.44 14.06 239.56 14.06 240.25 14.34 C 240.94 14.62 240.38 14.84 239.00 14.84 C 237.62 14.84 237.06 14.62 237.75 14.34 Z M 250.27 14.31 C 251.24 14.05 252.59 14.07 253.27 14.34 C 253.95 14.62 253.15 14.83 251.50 14.81 C 249.85 14.78 249.30 14.56 250.27 14.31 Z M 274.81 14.32 C 275.53 14.03 276.40 14.06 276.73 14.40 C 277.06 14.73 276.47 14.96 275.42 14.92 C 274.25 14.87 274.01 14.64 274.81 14.32 Z M 289.81 14.32 C 290.53 14.03 291.40 14.06 291.73 14.40 C 292.06 14.73 291.47 14.96 290.42 14.92 C 289.25 14.87 289.01 14.64 289.81 14.32 Z M 298.81 14.32 C 299.53 14.03 300.40 14.06 300.73 14.40 C 301.06 14.73 300.47 14.96 299.42 14.92 C 298.25 14.87 298.01 14.64 298.81 14.32 Z M 310.81 14.32 C 311.53 14.03 312.40 14.06 312.73 14.40 C 313.06 14.73 312.47 14.96 311.42 14.92 C 310.25 14.87 310.01 14.64 310.81 14.32 Z M 315.75 14.34 C 316.44 14.06 317.56 14.06 318.25 14.34 C 318.94 14.62 318.38 14.84 317.00 14.84 C 315.62 14.84 315.06 14.62 315.75 14.34 Z" fill="none" stroke="rgba(255,255,255,0.92)" stroke-width="1.5" stroke-linejoin="round" fill-rule="evenodd"/>
</svg>
