<svg xmlns="http://www.w3.org/2000/svg" viewBox="0 0 100 100" width="100" height="100">
  <path d="M 0.00 50.00 L 0.00 0.00 L 50.00 0.00 L 100.00 0.00 L 100.00 50.00 L 100.00 100.00 L 50.00 100.00 L 0.00 100.00 L 0.00 50.00 Z M 96.00 92.99 L 96.00 89.97 L 54.50 90.65 L 13.00 91.32 L 12.93 79.41 C 12.89 72.86 12.66 59.40 12.41 49.50 C 12.17 39.60 11.97 25.31 11.98 17.75 L 12.00 4.00 L 8.67 4.00 L 5.34 4.00 L 5.66 47.25 C 5.83 71.04 5.97 91.74 5.97 93.25 L 5.97 96.00 L 50.98 96.00 L 96.00 96.00 L 96.00 92.99 Z M 77.05 84.29 C 84.11 82.01 92.02 74.36 94.32 67.57 C 95.74 63.40 96.00 58.12 96.00 33.32 L 96.00 4.00 L 92.96 4.00 L 89.92 4.00 L 90.06 32.75 C 90.21 65.63 89.91 67.27 82.44 73.84 C 76.40 79.16 72.64 80.00 54.79 80.00 C 40.52 80.00 38.97 79.82 34.91 77.67 C 29.18 74.65 24.46 68.39 23.09 61.99 C 22.46 59.04 22.00 45.80 22.00 30.45 L 22.00 4.00 L 18.93 4.00 L 15.87 4.00 L 16.18 34.25 C 16.49 63.33 16.59 64.68 18.77 69.10 C 21.78 75.22 27.38 80.74 33.50 83.62 C 38.12 85.80 39.75 85.98 55.14 85.99 C 68.10 86.00 72.93 85.62 77.05 84.29 Z M 84.37 66.93 L 87.00 64.85 L 87.00 38.88 L 87.00 12.91 L 84.44 10.35 L 81.87 7.78 L 55.85 8.15 L 29.82 8.51 L 27.30 11.44 L 24.78 14.37 L 25.25 38.99 C 25.71 63.15 26.25 67.13 29.24 68.33 C 29.93 68.61 42.03 68.88 56.12 68.92 C 80.58 69.00 81.85 68.91 84.37 66.93 Z M 32.75 62.85 C 32.06 62.42 31.66 54.10 31.59 38.90 L 31.50 15.60 L 34.00 14.90 C 37.46 13.93 79.77 13.82 80.36 14.78 C 81.30 16.29 81.35 61.05 80.43 61.94 C 79.35 62.97 34.33 63.83 32.75 62.85 Z" fill="none" stroke="rgba(255,255,255,0.92)" stroke-width="1.2" stroke-linejoin="round" fill-rule="evenodd"/>
</svg>
