<svg xmlns="http://www.w3.org/2000/svg" viewBox="0 0 400 285" width="400" height="285">
  <path d="M 0.00 142.50 L 0.00 0.00 L 200.00 0.00 L 400.00 0.00 L 400.00 142.50 L 400.00 285.00 L 200.00 285.00 L 0.00 285.00 L 0.00 142.50 Z M 142.00 232.00 C 141.83 205.88 141.65 176.40 141.60 166.50 L 141.50 148.50 L 203.25 148.24 C 241.70 148.08 265.00 148.34 265.00 148.93 C 265.00 150.63 262.95 151.20 261.42 149.93 C 260.09 148.83 259.95 155.71 260.17 210.10 L 260.41 271.50 L 253.45 271.63 C 249.63 271.70 223.41 271.81 195.19 271.88 L 143.88 272.00 L 144.19 275.75 L 144.50 279.50 L 197.50 279.26 C 226.65 279.13 274.35 278.72 303.50 278.35 C 332.65 277.98 365.05 277.64 375.50 277.59 L 394.50 277.50 L 394.50 254.71 C 394.50 235.55 394.26 231.78 393.00 230.98 C 391.67 230.14 391.67 230.03 393.00 230.02 C 394.33 230.00 394.48 217.05 394.34 118.89 C 394.26 57.78 393.81 7.50 393.34 7.14 C 392.88 6.79 378.32 6.77 361.00 7.09 C 343.68 7.42 256.89 7.64 168.14 7.59 L 6.77 7.50 L 6.88 60.00 C 7.03 138.39 8.09 277.32 8.55 278.76 C 8.86 279.75 22.77 279.96 75.62 279.76 L 142.29 279.50 L 142.00 232.00 Z M 153.00 276.05 C 153.82 275.49 155.81 275.02 157.42 275.02 C 161.26 275.00 160.46 275.57 155.50 276.40 C 152.63 276.88 151.93 276.78 153.00 276.05 Z M 176.50 276.00 C 176.16 275.45 176.33 275.00 176.88 275.00 C 177.43 275.00 178.16 275.45 178.50 276.00 C 178.84 276.55 178.67 277.00 178.12 277.00 C 177.57 277.00 176.84 276.55 176.50 276.00 Z M 182.51 275.98 C 182.86 275.42 183.56 275.23 184.07 275.54 C 185.46 276.40 185.20 277.00 183.44 277.00 C 182.58 277.00 182.16 276.54 182.51 275.98 Z M 281.00 275.50 C 281.00 274.68 281.38 274.00 281.83 274.00 C 282.29 274.00 282.67 274.68 282.67 275.50 C 282.67 276.32 282.29 277.00 281.83 277.00 C 281.38 277.00 281.00 276.32 281.00 275.50 Z M 262.08 274.42 C 262.13 273.25 262.36 273.01 262.68 273.81 C 262.97 274.53 262.94 275.40 262.60 275.73 C 262.27 276.06 262.04 275.47 262.08 274.42 Z M 275.47 275.04 C 275.80 274.52 276.72 274.34 277.53 274.65 C 279.60 275.44 279.36 276.00 276.94 276.00 C 275.81 276.00 275.15 275.57 275.47 275.04 Z M 345.27 275.31 C 346.24 275.05 347.59 275.07 348.27 275.34 C 348.95 275.62 348.15 275.83 346.50 275.81 C 344.85 275.78 344.30 275.56 345.27 275.31 Z M 390.50 275.00 C 390.16 274.45 390.61 274.00 391.50 274.00 C 392.39 274.00 392.84 274.45 392.50 275.00 C 392.16 275.55 391.71 276.00 391.50 276.00 C 391.29 276.00 390.84 275.55 390.50 275.00 Z M 16.59 271.15 C 16.30 270.68 15.81 235.46 15.51 192.89 C 15.21 150.33 14.77 93.14 14.54 65.82 L 14.12 16.14 L 35.31 15.75 C 61.20 15.28 257.01 15.95 258.74 16.52 C 259.71 16.84 259.91 30.11 259.64 78.21 L 259.30 139.50 L 256.40 139.56 C 254.80 139.60 226.60 139.71 193.73 139.81 L 133.96 140.00 L 134.02 205.75 L 134.08 271.50 L 75.61 271.76 C 43.44 271.90 16.89 271.63 16.59 271.15 Z M 267.90 261.62 C 267.84 256.06 267.62 228.78 267.41 201.00 C 267.19 173.22 266.80 149.94 266.54 149.25 C 265.94 147.68 265.19 147.78 280.00 147.49 C 332.27 146.49 385.67 146.11 386.50 146.74 C 387.15 147.23 387.50 169.19 387.51 209.00 L 387.52 270.50 L 337.01 270.81 C 309.23 270.98 282.34 271.27 277.25 271.44 L 268.00 271.75 L 267.90 261.62 Z M 390.58 270.13 C 390.15 269.44 390.07 268.60 390.40 268.27 C 391.29 267.37 392.27 268.69 391.79 270.14 C 391.45 271.15 391.21 271.15 390.58 270.13 Z M 390.50 266.00 C 390.16 265.45 390.36 265.00 390.94 265.00 C 391.52 265.00 392.00 265.45 392.00 266.00 C 392.00 266.55 391.80 267.00 391.56 267.00 C 391.32 267.00 390.84 266.55 390.50 266.00 Z M 99.15 264.57 C 109.42 261.45 117.30 255.35 122.77 246.26 C 129.03 235.86 129.21 233.53 128.53 168.00 C 127.87 103.66 127.93 104.31 121.53 93.50 C 117.12 86.07 112.95 82.29 104.32 77.91 L 97.60 74.50 L 73.55 74.50 L 49.50 74.50 L 42.83 77.76 C 32.38 82.87 24.36 92.97 21.05 105.16 C 20.08 108.76 19.90 123.45 20.27 170.16 C 20.74 228.13 20.84 230.76 22.87 237.06 C 26.65 248.80 34.70 257.76 45.54 262.29 C 53.97 265.82 53.48 265.76 75.00 265.87 C 89.18 265.95 95.77 265.59 99.15 264.57 Z M 263.25 264.34 C 262.45 264.02 262.23 262.87 262.63 261.17 C 263.72 256.56 265.00 256.36 265.00 260.80 C 265.00 263.11 264.89 264.96 264.75 264.92 C 264.61 264.88 263.94 264.62 263.25 264.34 Z M 50.88 255.13 C 40.64 251.79 33.17 243.73 30.44 233.09 C 29.13 227.94 28.85 217.63 28.69 166.75 L 28.50 106.50 L 31.30 100.80 C 34.88 93.51 42.50 86.57 49.35 84.36 C 57.12 81.84 86.53 81.25 95.05 83.43 C 106.68 86.41 116.71 96.44 118.96 107.34 C 119.63 110.57 120.12 134.92 120.26 172.50 L 120.50 232.50 L 117.57 238.28 C 113.92 245.49 109.92 249.65 102.94 253.50 L 97.50 256.50 L 77.00 256.73 C 59.41 256.93 55.70 256.71 50.88 255.13 Z M 390.54 256.07 C 390.23 255.56 390.42 254.86 390.98 254.51 C 391.54 254.16 392.00 254.58 392.00 255.44 C 392.00 257.20 391.40 257.46 390.54 256.07 Z M 264.02 256.00 C 263.48 254.88 263.30 243.36 263.80 241.50 C 264.86 237.49 265.79 244.50 265.01 250.63 C 264.60 253.86 264.15 256.27 264.02 256.00 Z M 390.00 251.50 C 390.00 250.01 390.43 249.15 391.00 249.50 C 391.55 249.84 392.00 250.74 392.00 251.50 C 392.00 252.26 391.55 253.16 391.00 253.50 C 390.43 253.85 390.00 252.99 390.00 251.50 Z M 390.46 246.93 C 390.10 246.35 390.04 245.63 390.33 245.33 C 391.05 244.62 393.00 245.88 393.00 247.06 C 393.00 248.34 391.27 248.25 390.46 246.93 Z M 113.23 238.08 L 116.50 235.16 L 116.15 198.35 C 115.83 163.75 115.69 161.37 113.85 158.79 C 110.60 154.22 107.21 153.85 71.67 154.19 L 38.83 154.50 L 35.92 157.77 L 33.00 161.03 L 33.01 195.27 C 33.01 215.64 33.43 231.00 34.04 233.20 C 34.61 235.24 36.24 237.83 37.67 238.95 C 40.18 240.93 41.53 241.00 75.12 241.00 L 109.97 241.00 L 113.23 238.08 Z M 390.02 238.81 C 390.01 237.88 390.45 236.84 391.00 236.50 C 392.27 235.72 392.27 237.04 391.00 239.00 C 390.16 240.29 390.03 240.27 390.02 238.81 Z M 263.02 234.31 C 263.02 233.86 263.47 232.82 264.00 232.00 C 264.84 230.71 264.97 230.73 264.98 232.19 C 264.99 233.12 264.55 234.16 264.00 234.50 C 263.45 234.84 263.01 234.75 263.02 234.31 Z M 390.00 233.94 C 390.00 233.36 390.45 233.16 391.00 233.50 C 391.55 233.84 392.00 234.32 392.00 234.56 C 392.00 234.80 391.55 235.00 391.00 235.00 C 390.45 235.00 390.00 234.52 390.00 233.94 Z M 50.00 232.00 L 41.50 231.50 L 41.50 197.50 L 41.50 163.50 L 73.94 163.24 C 91.78 163.09 106.75 163.35 107.21 163.81 C 108.59 165.19 109.41 229.81 108.06 231.43 C 107.14 232.53 102.18 232.77 82.71 232.65 C 69.39 232.57 54.67 232.28 50.00 232.00 Z M 390.07 230.31 C 390.03 229.10 390.45 227.84 391.00 227.50 C 392.18 226.77 392.18 227.75 391.00 230.50 C 390.17 232.43 390.14 232.42 390.07 230.31 Z M 390.08 225.42 C 390.13 224.25 390.36 224.01 390.68 224.81 C 390.97 225.53 390.94 226.40 390.60 226.73 C 390.27 227.06 390.04 226.47 390.08 225.42 Z M 264.19 223.50 C 264.22 221.85 264.44 221.30 264.69 222.27 C 264.95 223.24 264.93 224.59 264.66 225.27 C 264.38 225.95 264.17 225.15 264.19 223.50 Z M 390.07 218.75 C 390.03 217.24 390.45 216.00 391.00 216.00 C 392.17 216.00 392.17 216.77 391.00 219.50 C 390.24 221.27 390.13 221.19 390.07 218.75 Z M 263.38 217.56 C 263.08 216.77 263.29 215.31 263.85 214.31 C 264.70 212.80 264.86 213.05 264.78 215.75 C 264.69 219.27 264.25 219.83 263.38 217.56 Z M 390.00 213.00 C 390.00 212.45 390.45 212.00 391.00 212.00 C 391.55 212.00 392.00 212.45 392.00 213.00 C 392.00 213.55 391.55 214.00 391.00 214.00 C 390.45 214.00 390.00 213.55 390.00 213.00 Z M 263.69 206.25 C 263.40 204.74 263.57 203.07 264.08 202.55 C 264.65 201.96 265.00 203.02 265.00 205.30 C 265.00 209.68 264.45 210.08 263.69 206.25 Z M 390.00 207.06 C 390.00 204.64 390.56 204.40 391.35 206.47 C 391.66 207.28 391.48 208.20 390.96 208.53 C 390.43 208.85 390.00 208.19 390.00 207.06 Z M 264.23 198.00 C 264.23 196.07 264.44 195.29 264.69 196.25 C 264.94 197.21 264.94 198.79 264.69 199.75 C 264.44 200.71 264.23 199.93 264.23 198.00 Z M 390.00 189.50 C 390.00 184.64 390.23 180.90 390.51 181.18 C 391.24 181.91 391.31 197.02 390.59 197.74 C 390.27 198.07 390.00 194.36 390.00 189.50 Z M 264.16 190.00 C 264.16 188.62 264.38 188.06 264.66 188.75 C 264.94 189.44 264.94 190.56 264.66 191.25 C 264.38 191.94 264.16 191.38 264.16 190.00 Z M 264.16 180.00 C 264.16 178.62 264.38 178.06 264.66 178.75 C 264.94 179.44 264.94 180.56 264.66 181.25 C 264.38 181.94 264.16 181.38 264.16 180.00 Z M 390.16 177.00 C 390.16 175.62 390.38 175.06 390.66 175.75 C 390.94 176.44 390.94 177.56 390.66 178.25 C 390.38 178.94 390.16 178.38 390.16 177.00 Z M 264.08 161.42 C 264.13 160.25 264.36 160.01 264.68 160.81 C 264.97 161.53 264.94 162.40 264.60 162.73 C 264.27 163.06 264.04 162.47 264.08 161.42 Z M 390.00 161.50 C 390.00 160.68 390.18 160.00 390.39 160.00 C 390.61 160.00 391.05 160.68 391.36 161.50 C 391.68 162.32 391.50 163.00 390.97 163.00 C 390.44 163.00 390.00 162.32 390.00 161.50 Z M 263.07 155.31 C 263.03 154.10 263.45 152.84 264.00 152.50 C 265.18 151.77 265.18 152.75 264.00 155.50 C 263.17 157.43 263.14 157.42 263.07 155.31 Z M 53.14 145.75 C 53.21 145.06 53.18 133.25 53.07 119.50 C 52.88 97.68 52.65 94.34 51.22 93.24 C 50.32 92.54 49.11 92.13 48.54 92.32 C 46.99 92.84 47.74 145.22 49.32 146.22 C 51.13 147.37 52.98 147.14 53.14 145.75 Z M 65.10 144.75 C 65.15 143.51 65.12 131.70 65.02 118.50 C 64.85 93.52 64.40 90.87 60.56 92.34 C 59.14 92.88 58.99 95.87 59.24 118.73 C 59.40 132.90 59.89 145.06 60.32 145.75 C 61.71 147.93 64.99 147.24 65.10 144.75 Z M 76.77 120.95 C 77.05 94.07 76.58 90.80 72.63 92.31 C 71.14 92.88 70.98 95.59 71.07 118.72 C 71.17 144.82 71.53 147.43 74.91 146.78 C 76.31 146.51 76.53 143.36 76.77 120.95 Z M 88.72 120.49 C 88.92 97.87 88.74 94.35 87.37 93.32 C 86.51 92.67 85.17 92.38 84.40 92.68 C 83.25 93.12 83.00 97.78 83.00 118.91 C 83.00 145.30 83.31 147.47 86.98 146.77 C 88.29 146.51 88.53 142.83 88.72 120.49 Z M 100.50 143.75 C 100.83 141.96 100.93 130.00 100.73 117.17 C 100.35 93.16 100.16 92.06 96.25 92.02 C 94.81 92.00 94.87 90.51 95.00 120.96 C 95.06 136.05 95.48 144.87 96.17 145.71 C 98.04 147.95 99.89 147.12 100.50 143.75 Z M 267.59 143.55 C 266.92 140.99 267.07 140.91 270.55 141.95 C 272.17 142.43 273.05 142.92 272.50 143.03 C 271.95 143.14 272.85 143.55 274.50 143.94 C 277.27 144.59 277.14 144.67 272.80 145.07 C 268.78 145.44 268.03 145.23 267.59 143.55 Z M 284.64 143.50 C 284.95 142.68 285.54 142.00 285.94 142.00 C 286.34 142.00 286.67 142.68 286.67 143.50 C 286.67 144.32 286.08 145.00 285.36 145.00 C 284.62 145.00 284.31 144.36 284.64 143.50 Z M 290.00 144.22 C 290.00 143.79 292.47 143.45 295.50 143.47 C 298.52 143.49 301.00 143.84 301.00 144.25 C 301.00 144.66 298.52 145.00 295.50 145.00 C 292.48 145.00 290.00 144.65 290.00 144.22 Z M 307.77 144.28 C 309.57 144.05 312.27 144.06 313.77 144.29 C 315.27 144.51 313.80 144.70 310.50 144.69 C 307.20 144.68 305.97 144.50 307.77 144.28 Z M 319.75 144.34 C 320.44 144.06 321.56 144.06 322.25 144.34 C 322.94 144.62 322.38 144.84 321.00 144.84 C 319.62 144.84 319.06 144.62 319.75 144.34 Z M 329.75 144.34 C 330.44 144.06 331.56 144.06 332.25 144.34 C 332.94 144.62 332.38 144.84 331.00 144.84 C 329.62 144.84 329.06 144.62 329.75 144.34 Z M 340.00 144.00 C 341.97 142.73 344.29 142.73 343.50 144.00 C 343.16 144.55 341.90 144.99 340.69 144.98 C 338.91 144.97 338.78 144.79 340.00 144.00 Z M 279.50 143.00 C 279.16 142.45 279.36 142.00 279.94 142.00 C 280.52 142.00 281.00 142.45 281.00 143.00 C 281.00 143.55 280.80 144.00 280.56 144.00 C 280.32 144.00 279.84 143.55 279.50 143.00 Z M 358.27 143.31 C 359.24 143.05 360.59 143.07 361.27 143.34 C 361.95 143.62 361.15 143.83 359.50 143.81 C 357.85 143.78 357.30 143.56 358.27 143.31 Z M 294.81 142.32 C 295.53 142.03 296.40 142.06 296.73 142.40 C 297.06 142.73 296.47 142.96 295.42 142.92 C 294.25 142.87 294.01 142.64 294.81 142.32 Z M 313.81 142.32 C 314.53 142.03 315.40 142.06 315.73 142.40 C 316.06 142.73 315.47 142.96 314.42 142.92 C 313.25 142.87 313.01 142.64 313.81 142.32 Z M 267.00 97.28 C 267.01 48.22 267.94 11.00 269.16 11.00 C 269.62 11.00 270.00 11.90 270.00 13.00 C 270.00 14.80 270.66 15.00 276.75 14.98 C 281.80 14.97 283.12 14.70 282.00 13.90 C 280.89 13.11 281.28 13.05 283.50 13.67 C 287.76 14.85 338.58 14.74 338.18 13.55 C 337.69 12.11 342.16 10.76 343.37 11.97 C 344.08 12.68 344.01 13.00 343.14 13.00 C 342.45 13.00 342.16 13.45 342.50 14.00 C 342.84 14.55 344.78 14.75 346.81 14.45 C 348.84 14.14 358.82 13.80 369.00 13.69 L 387.50 13.50 L 387.25 75.45 C 387.12 109.52 386.67 137.71 386.25 138.09 C 385.84 138.48 358.84 139.08 326.25 139.43 L 267.00 140.06 L 267.00 97.28 Z M 390.19 130.50 C 390.22 128.85 390.44 128.30 390.69 129.27 C 390.95 130.24 390.93 131.59 390.66 132.27 C 390.38 132.95 390.17 132.15 390.19 130.50 Z M 237.29 128.89 C 249.34 122.86 254.62 110.03 250.58 96.61 C 247.50 86.35 238.04 79.03 227.88 79.01 C 217.41 78.99 210.55 82.88 205.29 91.79 C 197.97 104.22 203.69 123.30 216.50 129.13 C 222.17 131.72 231.87 131.61 237.29 128.89 Z M 177.53 124.55 C 184.12 121.80 190.00 113.15 190.00 106.22 C 190.00 89.66 173.63 79.14 160.34 87.15 C 158.60 88.20 155.76 91.26 154.03 93.95 C 143.44 110.46 159.91 131.92 177.53 124.55 Z M 390.16 102.00 C 390.16 100.62 390.38 100.06 390.66 100.75 C 390.94 101.44 390.94 102.56 390.66 103.25 C 390.38 103.94 390.16 103.38 390.16 102.00 Z M 389.00 95.56 C 389.00 93.25 390.72 92.83 391.29 95.01 C 391.63 96.30 391.32 97.00 390.41 97.00 C 389.63 97.00 389.00 96.35 389.00 95.56 Z M 390.16 83.00 C 390.16 81.62 390.38 81.06 390.66 81.75 C 390.94 82.44 390.94 83.56 390.66 84.25 C 390.38 84.94 390.16 84.38 390.16 83.00 Z M 390.19 73.50 C 390.22 71.85 390.44 71.30 390.69 72.27 C 390.95 73.24 390.93 74.59 390.66 75.27 C 390.38 75.95 390.17 75.15 390.19 73.50 Z M 180.68 66.44 C 191.02 60.39 194.55 47.37 188.99 35.79 C 182.12 21.49 161.99 20.40 152.56 33.82 C 150.00 37.46 149.48 39.26 149.16 45.40 C 148.87 51.24 149.20 53.46 150.81 56.59 C 157.02 68.65 169.76 72.85 180.68 66.44 Z M 389.82 65.78 C 390.27 62.73 390.34 62.68 391.15 64.87 C 392.01 67.19 391.55 69.00 390.11 69.00 C 389.69 69.00 389.56 67.55 389.82 65.78 Z M 234.85 59.26 C 239.44 55.84 241.10 52.68 241.22 47.16 C 241.36 41.27 239.53 38.01 234.01 34.25 C 225.14 28.21 213.00 35.38 213.00 46.65 C 213.00 58.32 226.04 65.84 234.85 59.26 Z M 390.00 57.00 C 390.00 54.07 390.20 51.87 390.45 52.11 C 391.21 52.88 391.42 60.91 390.69 61.64 C 390.31 62.02 390.00 59.93 390.00 57.00 Z M 390.00 40.50 C 390.00 36.74 390.24 33.91 390.54 34.20 C 391.28 34.95 391.34 45.99 390.60 46.73 C 390.27 47.06 390.00 44.26 390.00 40.50 Z M 390.16 30.00 C 390.16 28.62 390.38 28.06 390.66 28.75 C 390.94 29.44 390.94 30.56 390.66 31.25 C 390.38 31.94 390.16 31.38 390.16 30.00 Z M 390.19 24.50 C 390.22 22.85 390.44 22.30 390.69 23.27 C 390.95 24.24 390.93 25.59 390.66 26.27 C 390.38 26.95 390.17 26.15 390.19 24.50 Z M 390.19 18.50 C 390.22 16.85 390.44 16.30 390.69 17.27 C 390.95 18.24 390.93 19.59 390.66 20.27 C 390.38 20.95 390.17 20.15 390.19 18.50 Z M 322.00 12.00 C 322.00 11.45 322.45 11.00 323.00 11.00 C 323.55 11.00 324.00 11.45 324.00 12.00 C 324.00 12.55 323.55 13.00 323.00 13.00 C 322.45 13.00 322.00 12.55 322.00 12.00 Z M 331.75 12.34 C 332.44 12.06 333.56 12.06 334.25 12.34 C 334.94 12.62 334.38 12.84 333.00 12.84 C 331.62 12.84 331.06 12.62 331.75 12.34 Z M 328.00 11.00 C 328.00 10.45 328.45 10.00 329.00 10.00 C 329.55 10.00 330.00 10.45 330.00 11.00 C 330.00 11.55 329.55 12.00 329.00 12.00 C 328.45 12.00 328.00 11.55 328.00 11.00 Z M 346.00 11.00 C 346.00 10.45 346.42 10.00 346.94 10.00 C 347.46 10.00 348.16 10.45 348.50 11.00 C 348.84 11.55 348.42 12.00 347.56 12.00 C 346.70 12.00 346.00 11.55 346.00 11.00 Z M 338.81 10.32 C 339.53 10.03 340.40 10.06 340.73 10.40 C 341.06 10.73 340.47 10.96 339.42 10.92 C 338.25 10.87 338.01 10.64 338.81 10.32 Z M 362.27 10.31 C 363.24 10.05 364.59 10.07 365.27 10.34 C 365.95 10.62 365.15 10.83 363.50 10.81 C 361.85 10.78 361.30 10.56 362.27 10.31 Z" fill="none" stroke="rgba(255,255,255,0.92)" stroke-width="1.5" stroke-linejoin="round" fill-rule="evenodd"/>
</svg>
