<svg xmlns="http://www.w3.org/2000/svg" viewBox="0 0 100 100" width="100" height="100">
  <path d="M 0.00 50.00 L 0.00 0.00 L 50.00 0.00 L 100.00 0.00 L 100.00 50.00 L 100.00 100.00 L 50.00 100.00 L 0.00 100.00 L 0.00 50.00 Z M 10.98 53.75 L 10.91 11.50 L 53.46 11.24 L 96.00 10.98 L 96.00 7.99 L 96.00 5.00 L 50.50 5.00 L 5.00 5.00 L 5.00 39.25 C 5.01 58.09 5.30 78.56 5.66 84.75 C 6.29 95.73 6.36 96.00 8.67 96.00 L 11.04 96.00 L 10.98 53.75 Z M 21.01 86.25 C 21.02 74.58 23.40 68.22 29.62 63.31 C 35.20 58.88 39.63 58.01 56.55 58.01 C 70.73 58.00 71.91 58.15 76.78 60.58 C 82.37 63.36 87.00 68.48 88.84 73.90 C 89.48 75.77 90.00 81.51 90.00 86.65 L 90.00 96.00 L 93.00 96.00 L 96.00 96.00 L 95.99 85.75 C 95.98 76.88 95.64 74.76 93.43 70.00 C 90.26 63.17 85.98 58.61 79.50 55.17 C 74.73 52.64 73.69 52.50 56.99 52.18 C 41.24 51.88 38.93 52.05 33.95 53.92 C 27.18 56.45 21.14 62.07 17.64 69.10 C 15.28 73.84 15.00 75.53 15.00 85.20 L 15.00 96.00 L 18.00 96.00 L 21.00 96.00 L 21.01 86.25 Z M 39.78 80.75 C 39.52 66.44 39.38 65.50 37.57 65.50 C 36.04 65.50 35.66 66.17 35.73 68.75 C 35.78 70.54 35.86 77.40 35.91 84.00 C 36.00 95.35 36.11 96.00 38.03 96.00 C 39.98 96.00 40.04 95.49 39.78 80.75 Z M 49.00 80.97 C 49.00 68.34 48.75 65.84 47.46 65.35 C 46.61 65.02 45.62 65.05 45.26 65.41 C 44.90 65.77 44.58 72.80 44.55 81.03 C 44.50 95.90 44.51 96.00 46.75 96.00 C 48.98 96.00 49.00 95.89 49.00 80.97 Z M 58.00 82.08 C 58.00 66.71 57.68 65.00 54.84 65.00 C 52.98 65.00 52.91 65.71 53.20 80.50 C 53.50 95.82 53.53 96.00 55.75 96.00 C 57.98 96.00 58.00 95.85 58.00 82.08 Z M 66.82 81.03 C 66.59 72.80 66.10 65.77 65.74 65.41 C 65.38 65.05 64.39 65.02 63.54 65.35 C 62.25 65.84 62.00 68.34 62.00 80.97 L 62.00 96.00 L 64.62 96.00 L 67.25 96.00 L 66.82 81.03 Z M 75.12 90.75 C 75.24 86.04 75.20 75.16 75.05 67.75 C 75.01 65.68 74.50 65.00 73.00 65.00 C 71.09 65.00 71.00 65.67 71.00 80.50 C 71.00 95.33 71.09 96.00 73.00 96.00 C 74.73 96.00 75.02 95.29 75.12 90.75 Z" fill="none" stroke="rgba(255,255,255,0.92)" stroke-width="1.2" stroke-linejoin="round" fill-rule="evenodd"/>
</svg>
