<svg xmlns="http://www.w3.org/2000/svg" viewBox="0 0 100 100" width="100" height="100">
  <path d="M 0.00 50.00 L 0.00 0.00 L 50.00 0.00 L 100.00 0.00 L 100.00 50.00 L 100.00 100.00 L 50.00 100.00 L 0.00 100.00 L 0.00 50.00 Z M 95.50 49.50 L 95.50 4.50 L 92.75 4.18 C 91.03 3.99 89.95 4.36 89.87 5.18 C 89.80 5.91 89.82 24.84 89.92 47.26 C 90.07 79.97 89.85 88.10 88.80 88.43 C 87.84 88.74 27.88 89.87 6.25 89.99 C 4.54 90.00 4.00 90.58 4.00 92.42 C 4.00 93.75 4.45 94.98 5.00 95.17 C 5.54 95.35 26.13 95.28 50.75 95.00 L 95.50 94.50 L 95.50 49.50 Z M 72.56 81.95 C 76.06 80.66 81.21 75.75 82.64 72.33 C 86.89 62.14 81.38 50.67 70.69 47.50 C 58.48 43.87 45.60 52.75 45.84 64.63 C 46.12 78.74 58.86 86.99 72.56 81.95 Z M 28.93 78.25 C 33.69 75.82 36.20 71.99 36.73 66.32 C 37.09 62.43 36.72 60.82 34.82 58.00 C 26.49 45.64 7.00 50.85 7.00 65.44 C 7.00 76.52 18.80 83.41 28.93 78.25 Z M 29.66 38.46 C 34.86 35.41 38.00 29.88 38.00 23.77 C 38.00 20.40 37.31 18.61 34.82 15.60 C 29.36 8.98 21.43 7.21 14.04 10.98 C 8.27 13.92 5.55 18.32 5.64 24.56 C 5.74 30.95 7.94 34.85 13.37 38.25 C 18.83 41.68 24.05 41.75 29.66 38.46 Z M 69.57 33.54 C 71.94 32.55 73.54 30.95 74.52 28.60 C 77.48 21.52 73.58 15.16 65.75 14.28 C 61.81 13.83 61.01 14.13 57.69 17.26 C 53.28 21.42 52.73 26.11 56.14 30.45 C 59.73 35.01 63.79 35.95 69.57 33.54 Z" fill="none" stroke="rgba(255,255,255,0.92)" stroke-width="1.2" stroke-linejoin="round" fill-rule="evenodd"/>
</svg>
