<svg xmlns="http://www.w3.org/2000/svg" viewBox="0 0 100 100" width="100" height="100">
  <path d="M 0.00 50.00 L 0.00 0.00 L 50.00 0.00 L 100.00 0.00 L 100.00 50.00 L 100.00 100.00 L 50.00 100.00 L 0.00 100.00 L 0.00 50.00 Z M 11.02 94.75 C 11.03 94.06 11.02 75.39 11.00 53.25 L 10.96 13.00 L 17.73 12.83 C 21.45 12.74 26.98 12.57 30.00 12.46 C 33.02 12.35 49.11 12.17 65.75 12.07 L 96.00 11.89 L 96.00 8.54 C 96.00 5.88 95.64 5.26 94.25 5.54 C 93.29 5.73 72.92 6.13 49.00 6.42 C 25.08 6.72 5.39 6.97 5.25 6.98 C 4.74 7.02 5.03 56.26 5.66 75.75 L 6.32 96.00 L 8.66 96.00 C 9.95 96.00 11.01 95.44 11.02 94.75 Z M 96.00 92.41 L 96.00 89.00 L 72.25 88.99 C 49.34 88.98 48.32 88.90 43.38 86.60 C 33.19 81.85 30.02 74.22 30.03 54.50 C 30.05 39.98 31.36 35.35 37.19 29.31 C 43.22 23.07 47.81 22.11 73.00 21.79 L 95.50 21.50 L 95.82 18.11 L 96.15 14.72 L 71.82 15.21 C 48.07 15.68 47.37 15.76 41.90 18.35 C 34.85 21.69 29.98 26.39 26.65 33.07 C 24.12 38.15 24.06 38.72 24.28 55.89 C 24.49 72.56 24.64 73.80 27.12 79.09 C 29.90 85.02 33.58 89.11 38.50 91.73 C 45.48 95.46 49.13 95.90 72.75 95.86 L 96.00 95.82 L 96.00 92.41 Z M 95.81 83.25 L 96.13 80.00 L 72.05 80.00 L 47.96 80.00 L 48.23 55.75 L 48.50 31.50 L 72.25 31.23 L 96.00 30.96 L 96.00 27.55 L 96.00 24.13 L 71.25 24.65 C 46.67 25.16 46.48 25.18 44.00 27.60 L 41.50 30.05 L 41.50 52.77 C 41.50 78.80 41.93 82.71 45.04 85.23 C 47.07 86.88 49.39 87.01 71.38 86.77 L 95.50 86.50 L 95.81 83.25 Z" fill="none" stroke="rgba(255,255,255,0.92)" stroke-width="1.2" stroke-linejoin="round" fill-rule="evenodd"/>
</svg>
