<svg xmlns="http://www.w3.org/2000/svg" viewBox="0 0 100 100" width="100" height="100">
  <path d="M 0.00 50.00 L 0.00 0.00 L 50.00 0.00 L 100.00 0.00 L 100.00 50.00 L 100.00 100.00 L 50.00 100.00 L 0.00 100.00 L 0.00 50.00 Z M 43.62 93.00 C 49.37 90.52 55.67 84.55 58.83 78.56 C 61.45 73.59 61.50 73.16 61.41 55.50 C 61.32 38.95 61.13 37.10 59.02 32.56 C 55.97 25.96 48.60 18.94 42.43 16.75 C 38.47 15.34 34.19 14.99 20.75 15.00 L 4.00 15.00 L 4.00 18.00 L 4.00 21.00 L 20.25 21.02 C 33.81 21.04 37.16 21.35 40.50 22.87 C 46.32 25.52 50.23 29.17 52.83 34.38 C 54.92 38.55 55.14 40.42 55.22 54.74 C 55.33 71.79 54.72 74.64 49.66 80.64 C 44.35 86.93 39.46 88.31 20.75 88.80 L 4.00 89.23 L 4.00 92.57 L 4.00 95.91 L 21.75 95.34 C 35.58 94.90 40.41 94.38 43.62 93.00 Z M 4.68 75.81 C 4.36 75.01 4.13 75.25 4.08 76.42 C 4.04 77.47 4.27 78.06 4.60 77.73 C 4.94 77.40 4.97 76.53 4.68 75.81 Z M 47.90 74.09 C 48.67 73.59 49.02 72.48 48.67 71.58 C 48.12 70.15 45.83 69.99 29.27 70.23 C 10.66 70.50 10.50 70.52 10.18 72.75 L 9.86 75.00 L 28.18 74.98 C 38.26 74.98 47.13 74.57 47.90 74.09 Z M 48.44 65.09 C 48.75 64.59 48.73 63.46 48.40 62.59 C 47.87 61.22 45.30 61.00 29.59 61.00 C 11.30 61.00 8.49 61.51 9.69 64.62 C 10.11 65.73 13.97 66.00 29.05 66.00 C 39.41 66.00 48.13 65.59 48.44 65.09 Z M 37.25 57.06 L 48.00 57.00 L 48.00 54.53 L 48.00 52.05 L 29.43 52.39 C 10.67 52.73 7.41 53.38 9.81 56.28 C 10.63 57.25 13.12 57.56 18.72 57.37 C 23.00 57.23 31.34 57.09 37.25 57.06 Z M 48.25 47.15 C 50.84 44.56 47.39 44.00 28.94 44.00 L 10.00 44.00 L 10.00 46.55 L 10.00 49.10 L 28.64 48.61 C 38.89 48.34 47.72 47.68 48.25 47.15 Z M 47.96 38.54 C 48.63 37.74 48.88 36.62 48.53 36.04 C 47.72 34.73 10.36 34.60 9.56 35.91 C 9.25 36.41 9.27 37.54 9.60 38.41 C 10.13 39.78 12.71 40.00 28.48 40.00 C 43.26 40.00 46.99 39.72 47.96 38.54 Z M 54.25 11.14 L 96.00 11.00 L 96.00 8.00 L 96.00 5.00 L 52.25 5.01 C 28.19 5.02 7.49 5.30 6.25 5.63 C 4.62 6.07 4.00 6.98 4.00 8.93 C 4.00 11.46 4.26 11.61 8.25 11.45 C 10.59 11.35 31.29 11.21 54.25 11.14 Z" fill="none" stroke="rgba(255,255,255,0.92)" stroke-width="1.2" stroke-linejoin="round" fill-rule="evenodd"/>
</svg>
