<svg xmlns="http://www.w3.org/2000/svg" viewBox="0 0 100 100" width="100" height="100">
  <path d="M 0.00 50.00 L 0.00 0.00 L 50.00 0.00 L 100.00 0.00 L 100.00 50.00 L 100.00 100.00 L 50.00 100.00 L 0.00 100.00 L 0.00 50.00 Z M 10.79 54.00 L 10.32 12.00 L 53.16 12.00 L 96.00 12.00 L 96.00 9.64 C 96.00 7.49 95.46 7.23 89.85 6.64 C 81.23 5.74 5.19 5.84 4.78 6.75 C 4.60 7.16 4.61 27.41 4.81 51.75 L 5.16 96.00 L 8.21 96.00 L 11.26 96.00 L 10.79 54.00 Z M 21.02 86.25 C 21.05 75.11 22.59 70.55 28.13 65.30 C 33.55 60.15 37.36 59.10 52.66 58.54 C 70.81 57.88 76.45 59.29 83.18 66.19 C 86.90 70.01 88.07 72.06 88.90 76.24 C 89.48 79.13 89.89 82.17 89.82 83.00 C 89.74 83.83 89.76 87.09 89.84 90.25 C 90.00 95.94 90.03 96.00 93.00 96.00 L 96.00 96.00 L 96.00 87.18 C 96.00 70.90 91.06 61.62 79.32 55.84 L 72.54 52.50 L 55.02 52.50 C 38.74 52.50 37.13 52.67 32.27 54.86 C 29.40 56.16 25.20 59.23 22.93 61.69 C 16.88 68.25 15.19 72.90 14.98 83.50 C 14.73 96.58 14.59 96.00 18.00 96.00 L 21.00 96.00 L 21.02 86.25 Z M 39.98 81.75 C 39.97 67.11 39.38 64.26 36.60 65.32 C 35.24 65.85 35.00 68.05 35.00 80.30 C 35.00 88.20 35.30 94.97 35.67 95.33 C 36.03 95.70 37.16 96.00 38.17 96.00 C 39.86 96.00 40.00 94.91 39.98 81.75 Z M 48.84 81.08 C 48.65 72.88 48.18 65.85 47.79 65.46 C 47.40 65.07 46.39 65.02 45.54 65.35 C 44.25 65.84 44.00 68.34 44.00 80.97 L 44.00 96.00 L 46.59 96.00 L 49.18 96.00 L 48.84 81.08 Z M 57.54 81.43 C 57.38 73.01 56.83 66.43 56.22 65.82 C 53.67 63.27 53.00 66.43 53.00 81.06 L 53.00 96.00 L 55.41 96.00 L 57.81 96.00 L 57.54 81.43 Z M 66.00 80.43 C 66.00 66.13 65.86 64.88 64.25 65.19 C 62.69 65.49 62.47 67.17 62.22 80.76 C 61.96 95.49 62.02 96.00 63.97 96.00 C 65.92 96.00 66.00 95.40 66.00 80.43 Z M 74.78 80.76 C 74.53 67.17 74.31 65.49 72.75 65.19 C 71.14 64.88 71.00 66.13 71.00 80.43 C 71.00 95.40 71.08 96.00 73.03 96.00 C 74.98 96.00 75.04 95.49 74.78 80.76 Z" fill="none" stroke="rgba(255,255,255,0.92)" stroke-width="1.2" stroke-linejoin="round" fill-rule="evenodd"/>
</svg>
