<svg xmlns="http://www.w3.org/2000/svg" viewBox="0 0 100 100" width="100" height="100">
  <path d="M 0.00 50.00 L 0.00 0.00 L 50.00 0.00 L 100.00 0.00 L 100.00 50.00 L 100.00 100.00 L 50.00 100.00 L 0.00 100.00 L 0.00 50.00 Z M 95.67 52.25 C 95.31 28.19 95.02 7.71 95.01 6.75 C 95.00 5.11 92.16 5.00 49.50 5.00 L 4.00 5.00 L 4.00 8.00 L 4.00 11.00 L 46.50 11.00 L 89.00 11.00 L 89.11 16.25 C 89.17 19.14 89.33 25.32 89.46 30.00 C 89.59 34.67 89.77 51.44 89.85 67.25 L 90.00 96.00 L 93.15 96.00 L 96.31 96.00 L 95.67 52.25 Z M 76.49 89.58 C 78.51 88.03 81.02 85.37 82.06 83.67 C 88.79 72.60 81.58 58.10 68.11 55.62 C 60.51 54.22 50.38 60.28 47.93 67.71 C 46.16 73.09 47.34 81.26 50.49 85.39 C 56.59 93.40 68.88 95.38 76.49 89.58 Z M 30.76 87.01 C 42.11 80.08 39.40 63.07 26.50 60.25 C 19.09 58.63 12.88 61.52 9.40 68.20 C 5.74 75.25 9.68 84.41 18.00 88.18 C 21.05 89.56 27.54 88.97 30.76 87.01 Z M 31.76 46.33 C 36.31 42.93 38.31 39.35 38.76 33.79 C 39.13 29.09 38.83 28.02 36.03 24.17 C 27.50 12.47 10.90 15.40 6.91 29.32 C 5.04 35.84 9.99 45.71 16.17 47.78 C 20.91 49.37 28.65 48.65 31.76 46.33 Z M 69.52 42.56 C 77.15 39.37 77.99 28.93 71.00 24.20 C 66.62 21.24 61.90 21.76 57.84 25.65 C 52.63 30.65 54.49 39.56 61.38 42.56 C 65.33 44.28 65.38 44.28 69.52 42.56 Z" fill="none" stroke="rgba(255,255,255,0.92)" stroke-width="1.2" stroke-linejoin="round" fill-rule="evenodd"/>
</svg>
