<svg xmlns="http://www.w3.org/2000/svg" viewBox="0 0 100 100" width="100" height="100">
  <path d="M 0.00 50.00 L 0.00 0.00 L 50.00 0.00 L 100.00 0.00 L 100.00 50.00 L 100.00 100.00 L 50.00 100.00 L 0.00 100.00 L 0.00 50.00 Z M 94.63 65.25 C 94.35 48.34 94.10 27.61 94.06 19.20 L 94.00 3.89 L 55.75 4.00 C 34.71 4.06 14.46 4.37 10.75 4.68 C 4.41 5.22 4.00 5.41 4.00 7.71 L 4.00 10.17 L 45.46 9.75 C 68.26 9.52 87.36 9.60 87.89 9.93 C 88.47 10.29 89.06 26.05 89.37 49.51 C 89.65 70.96 89.91 90.19 89.94 92.25 C 89.99 95.59 90.28 96.00 92.57 96.00 L 95.13 96.00 L 94.63 65.25 Z M 28.63 88.60 C 37.48 84.39 42.18 80.80 45.66 75.56 L 48.28 71.63 L 50.55 76.06 C 53.66 82.11 59.66 87.62 64.50 88.86 C 66.70 89.42 72.21 90.19 76.75 90.57 C 86.62 91.39 86.52 91.62 82.13 78.57 C 78.01 66.30 73.58 59.41 67.62 55.98 L 62.73 53.18 L 66.73 51.14 C 76.44 46.18 80.76 39.95 81.11 30.39 C 81.57 17.63 81.14 14.00 79.17 14.00 C 77.02 14.00 66.74 18.07 61.31 21.07 C 56.77 23.58 49.24 30.68 48.43 33.21 C 47.56 35.97 46.22 35.36 44.10 31.20 C 41.62 26.34 36.42 21.16 32.21 19.35 C 30.40 18.58 24.67 17.66 19.46 17.32 C 8.72 16.61 9.10 16.25 11.63 24.91 C 16.18 40.46 21.99 49.85 28.88 52.72 L 32.38 54.19 L 26.63 57.27 C 20.37 60.63 15.41 66.08 13.94 71.22 C 12.86 74.98 12.70 85.24 13.65 89.98 C 14.26 93.04 14.49 93.18 17.80 92.64 C 19.73 92.33 24.60 90.51 28.63 88.60 Z M 19.00 79.82 C 19.01 72.55 20.84 68.75 26.36 64.54 C 30.20 61.61 38.84 58.00 42.01 58.00 C 46.17 58.00 43.82 70.12 38.66 75.27 C 35.53 78.40 25.84 84.06 21.25 85.45 C 19.08 86.11 19.00 85.90 19.00 79.82 Z M 68.08 83.91 C 60.78 82.48 55.72 76.28 52.98 65.38 C 51.13 58.03 51.76 57.03 57.61 58.12 C 60.22 58.61 63.44 59.71 64.75 60.57 C 69.40 63.62 75.18 73.61 77.39 82.41 C 77.97 84.75 77.77 84.99 75.27 84.89 C 73.75 84.83 70.51 84.39 68.08 83.91 Z M 33.54 48.41 C 31.37 47.61 28.62 46.05 27.44 44.94 C 25.17 42.81 20.79 34.48 18.45 27.86 C 17.20 24.33 17.23 23.85 18.70 23.29 C 19.60 22.94 22.85 23.17 25.92 23.80 C 30.52 24.74 32.20 25.70 35.50 29.30 C 39.38 33.52 42.38 40.08 43.49 46.75 C 44.01 49.87 43.90 50.00 40.76 49.93 C 38.97 49.89 35.72 49.21 33.54 48.41 Z M 51.01 46.75 C 51.02 37.42 54.92 31.78 65.36 25.98 C 75.03 20.63 76.00 20.72 76.00 26.98 C 76.00 37.14 71.52 42.95 60.08 47.66 C 52.29 50.86 51.00 50.73 51.01 46.75 Z" fill="none" stroke="rgba(255,255,255,0.92)" stroke-width="1.2" stroke-linejoin="round" fill-rule="evenodd"/>
</svg>
