<svg xmlns="http://www.w3.org/2000/svg" viewBox="0 0 100 100" width="100" height="100">
  <path d="M 0.00 50.00 L 0.00 0.00 L 50.00 0.00 L 100.00 0.00 L 100.00 50.00 L 100.00 100.00 L 50.00 100.00 L 0.00 100.00 L 0.00 50.00 Z M 95.91 95.06 C 96.13 95.03 96.02 80.94 95.67 63.75 C 95.31 46.56 95.01 26.09 95.01 18.25 L 95.00 4.00 L 91.88 4.00 L 88.77 4.00 L 89.13 46.75 L 89.50 89.50 L 83.50 89.50 L 77.50 89.50 L 76.88 78.00 C 76.54 71.67 76.20 52.44 76.13 35.25 L 76.00 4.00 L 73.00 4.00 L 70.00 4.00 L 70.00 11.50 C 70.00 15.62 69.66 18.99 69.25 18.98 C 68.84 18.98 66.70 18.32 64.50 17.53 C 61.97 16.62 56.45 16.07 49.43 16.04 C 18.75 15.92 4.45 25.95 4.56 47.50 C 4.60 56.58 6.82 62.83 11.62 67.45 C 16.35 71.99 25.71 75.87 34.97 77.11 C 46.10 78.61 62.49 77.86 66.73 75.65 C 69.90 74.00 69.97 74.01 70.53 76.28 C 70.85 77.55 70.97 81.26 70.81 84.54 L 70.50 90.50 L 60.00 90.56 C 54.22 90.59 39.32 90.70 26.88 90.81 L 4.25 91.00 L 4.25 93.59 L 4.25 96.18 L 49.88 95.65 C 74.97 95.36 95.68 95.10 95.91 95.06 Z M 29.73 70.16 C 17.15 66.81 11.00 60.12 10.19 48.91 C 9.25 35.97 16.75 26.92 31.25 23.50 C 39.41 21.58 58.90 21.51 63.40 23.39 C 69.62 25.99 70.00 27.39 70.00 47.67 L 70.00 65.90 L 66.33 68.70 C 62.79 71.40 62.21 71.51 49.58 71.73 C 39.57 71.91 34.91 71.54 29.73 70.16 Z" fill="none" stroke="rgba(255,255,255,0.92)" stroke-width="1.2" stroke-linejoin="round" fill-rule="evenodd"/>
</svg>
