<svg xmlns="http://www.w3.org/2000/svg" viewBox="0 0 375 400" width="375" height="400">
  <path d="M 0.00 200.00 L 0.00 0.00 L 187.50 0.00 L 375.00 0.00 L 375.00 200.00 L 375.00 400.00 L 187.50 400.00 L 0.00 400.00 L 0.00 200.00 Z M 68.49 392.09 C 187.76 392.61 362.04 391.62 365.91 390.39 C 367.33 389.94 367.20 335.28 365.46 205.50 C 365.08 176.42 363.93 54.74 363.82 30.00 C 363.81 28.62 363.93 25.70 364.08 23.50 C 364.23 21.30 364.09 17.02 363.77 14.00 L 363.19 8.50 L 319.35 8.58 C 217.82 8.78 11.58 10.14 10.80 10.62 C 10.34 10.91 9.99 25.18 10.04 42.32 C 10.09 59.47 9.87 124.57 9.55 187.00 C 9.24 249.43 9.04 317.15 9.11 337.50 C 9.18 357.85 9.19 376.75 9.13 379.50 C 9.08 382.25 9.38 386.07 9.80 388.00 C 10.49 391.13 10.99 391.56 14.54 392.10 C 16.72 392.44 19.17 392.52 19.99 392.29 C 20.81 392.07 42.63 391.97 68.49 392.09 Z M 195.00 387.00 C 195.00 386.45 195.70 386.00 196.56 386.00 C 197.42 386.00 197.84 386.45 197.50 387.00 C 197.16 387.55 196.46 388.00 195.94 388.00 C 195.42 388.00 195.00 387.55 195.00 387.00 Z M 18.92 382.85 C 18.10 381.31 17.81 366.79 17.92 331.10 C 18.16 248.77 18.67 207.00 19.44 206.23 C 19.84 205.83 56.58 205.50 101.07 205.50 L 181.98 205.50 L 182.97 208.34 C 183.72 210.50 183.57 211.92 182.36 214.27 C 180.94 217.02 180.84 221.25 181.50 251.93 C 181.91 270.95 182.34 306.98 182.45 332.00 C 182.56 357.02 182.98 378.62 183.37 380.00 L 184.09 382.50 L 165.30 382.28 C 131.49 381.89 31.63 381.63 26.21 381.91 C 21.79 382.15 21.11 382.43 22.08 383.60 C 23.00 384.70 22.91 385.00 21.66 385.00 C 20.78 385.00 19.55 384.03 18.92 382.85 Z M 190.94 380.17 C 191.88 376.85 191.18 314.30 190.14 308.64 C 189.72 306.36 189.75 296.85 190.21 287.50 C 190.67 278.15 190.93 255.99 190.77 238.25 L 190.50 206.00 L 234.00 205.81 C 257.93 205.71 286.61 205.59 297.75 205.55 C 315.18 205.48 318.01 205.68 318.09 206.98 C 318.85 219.44 318.63 239.00 317.74 239.00 C 317.15 239.00 313.70 237.54 310.08 235.75 L 303.50 232.50 L 282.00 232.19 C 262.46 231.91 259.40 232.11 248.36 234.32 C 225.38 238.94 210.25 248.74 202.54 264.00 C 195.51 277.92 193.61 291.58 196.48 307.54 C 200.24 328.41 211.76 341.78 233.00 349.93 C 240.69 352.88 254.84 354.89 273.00 355.63 C 291.89 356.39 303.81 355.10 312.08 351.38 C 315.36 349.91 318.37 349.04 318.77 349.44 C 319.17 349.84 319.50 357.21 319.50 365.83 L 319.50 381.50 L 315.50 381.41 C 313.30 381.36 307.00 381.19 301.50 381.02 C 292.32 380.74 234.81 381.59 203.34 382.47 L 190.19 382.84 L 190.94 380.17 Z M 332.99 378.28 C 332.99 377.85 332.57 374.80 332.07 371.50 C 330.56 361.60 328.45 209.15 329.80 207.80 C 330.89 206.71 352.35 206.01 353.37 207.04 C 354.28 207.95 354.93 244.72 355.21 311.00 L 355.50 378.50 L 344.25 378.78 C 338.06 378.94 333.00 378.71 332.99 378.28 Z M 257.50 342.98 C 229.31 339.50 214.30 329.37 208.47 309.89 C 202.84 291.08 207.73 270.66 220.50 259.63 C 233.19 248.68 248.82 244.25 278.26 243.28 C 295.91 242.69 296.06 242.71 303.02 245.44 C 311.72 248.85 317.43 254.15 318.34 259.64 C 318.69 261.76 318.98 278.91 318.99 297.74 L 319.00 331.97 L 313.27 336.47 C 304.53 343.33 301.51 344.02 281.07 343.86 C 271.41 343.79 260.80 343.39 257.50 342.98 Z M 15.08 218.42 C 15.13 217.25 15.36 217.01 15.68 217.81 C 15.97 218.53 15.94 219.40 15.60 219.73 C 15.27 220.06 15.04 219.47 15.08 218.42 Z M 314.00 201.00 C 314.00 200.45 314.45 200.00 315.00 200.00 C 315.55 200.00 316.00 200.45 316.00 201.00 C 316.00 201.55 315.55 202.00 315.00 202.00 C 314.45 202.00 314.00 201.55 314.00 201.00 Z M 161.81 200.32 C 162.53 200.03 163.40 200.06 163.73 200.40 C 164.06 200.73 163.47 200.96 162.42 200.92 C 161.25 200.87 161.01 200.64 161.81 200.32 Z M 193.50 200.00 C 193.16 199.45 193.56 199.00 194.38 199.00 C 195.21 199.00 196.16 199.45 196.50 200.00 C 196.84 200.55 196.44 201.00 195.62 201.00 C 194.79 201.00 193.84 200.55 193.50 200.00 Z M 120.00 198.00 C 120.00 196.75 121.06 196.75 123.00 198.00 C 124.21 198.78 124.07 198.97 122.25 198.98 C 121.01 198.99 120.00 198.55 120.00 198.00 Z M 19.45 195.35 C 18.73 195.09 18.52 183.19 18.80 157.73 C 19.02 137.25 19.10 100.48 18.99 76.00 C 18.74 21.61 18.73 22.03 20.16 20.31 C 20.88 19.44 22.30 19.13 23.93 19.49 C 25.37 19.80 61.41 20.16 104.02 20.28 C 180.87 20.50 181.50 20.52 181.20 22.50 C 180.89 24.61 180.96 137.13 181.30 174.34 L 181.50 196.18 L 177.75 195.58 C 173.52 194.90 22.44 194.63 21.26 195.30 C 20.84 195.54 20.03 195.56 19.45 195.35 Z M 204.42 195.22 L 190.34 194.95 L 190.55 158.22 C 190.67 138.03 190.47 98.78 190.11 71.00 C 189.74 43.22 189.46 20.43 189.47 20.33 C 189.49 20.24 226.28 19.85 271.23 19.46 C 340.90 18.86 353.05 18.96 353.51 20.15 C 353.80 20.93 354.15 31.26 354.27 43.13 C 354.44 59.06 354.84 65.10 355.80 66.26 C 356.68 67.32 356.76 68.03 356.04 68.47 C 354.95 69.15 354.70 176.58 355.78 186.38 C 356.17 190.00 356.79 191.39 358.14 191.75 C 361.01 192.50 359.36 193.83 354.73 194.49 C 350.35 195.13 229.33 195.71 204.42 195.22 Z M 228.98 182.95 C 236.96 179.87 247.29 174.71 254.30 170.30 C 260.70 166.28 271.84 154.61 274.04 149.63 C 275.17 147.08 276.74 145.00 277.54 145.00 C 278.35 145.00 280.93 148.89 283.47 153.94 C 293.96 174.83 305.75 180.93 335.75 180.98 C 348.98 181.00 348.32 182.05 344.54 167.18 C 339.63 147.79 330.96 128.04 323.44 119.11 C 322.03 117.44 317.53 113.98 313.44 111.43 C 309.35 108.88 306.27 106.37 306.60 105.84 C 306.92 105.31 309.73 103.68 312.84 102.22 C 316.51 100.49 321.36 96.72 326.61 91.53 C 337.85 80.40 339.27 76.61 339.75 56.50 C 339.95 48.25 339.74 38.35 339.29 34.50 C 338.49 27.67 338.40 27.51 335.77 27.78 C 331.81 28.20 310.83 37.28 302.61 42.14 C 295.99 46.05 281.00 59.27 281.00 61.19 C 281.00 62.77 275.74 70.00 274.62 69.97 C 274.00 69.95 271.93 66.50 270.02 62.31 C 267.52 56.83 264.71 52.80 260.02 47.98 C 252.47 40.22 249.32 38.39 240.16 36.45 C 231.80 34.67 206.00 34.45 206.00 36.16 C 206.00 37.62 211.35 57.42 214.06 66.00 C 219.93 84.56 230.65 99.94 241.51 105.39 L 247.27 108.29 L 244.88 110.12 C 243.57 111.13 240.03 113.20 237.00 114.72 C 230.58 117.95 221.49 126.58 217.73 133.00 C 212.38 142.16 210.90 155.21 212.65 177.75 L 213.30 186.00 L 217.18 186.00 C 219.32 186.00 224.63 184.63 228.98 182.95 Z M 224.25 171.26 C 223.35 170.95 223.00 167.71 223.01 159.67 C 223.02 149.84 223.32 147.85 225.54 143.09 C 230.72 131.96 242.26 123.19 259.41 117.36 C 267.12 114.74 269.65 114.45 270.21 116.14 C 270.74 117.72 269.25 131.62 267.99 136.81 C 266.24 144.01 260.77 151.03 251.74 157.64 C 247.21 160.97 242.82 163.94 242.00 164.25 C 241.18 164.56 237.12 166.36 233.00 168.25 C 228.88 170.15 224.94 171.50 224.25 171.26 Z M 323.50 169.04 C 311.32 168.06 305.97 165.85 300.21 159.45 C 297.53 156.47 294.07 151.45 292.53 148.29 C 289.76 142.63 285.79 128.47 284.42 119.35 L 283.73 114.70 L 290.48 115.39 C 302.88 116.66 315.09 123.68 319.39 132.00 C 320.10 133.38 321.81 136.53 323.20 139.00 C 324.59 141.47 327.60 149.04 329.88 155.82 C 333.65 166.98 334.19 170.29 332.19 169.85 C 331.81 169.76 327.90 169.40 323.50 169.04 Z M 259.50 99.51 C 258.95 99.32 255.35 98.20 251.50 97.01 C 238.90 93.13 232.18 83.89 222.37 57.00 C 219.25 48.45 219.30 47.03 222.75 46.88 C 243.26 45.95 252.78 51.52 261.43 69.50 C 266.43 79.91 269.00 88.67 269.00 95.32 L 269.00 100.00 L 264.75 99.92 C 262.41 99.88 260.05 99.69 259.50 99.51 Z M 283.67 99.33 C 282.62 98.29 282.89 88.63 284.13 82.80 C 287.26 68.05 298.05 56.76 318.00 47.35 C 328.58 42.37 328.63 42.36 329.35 46.73 C 330.99 56.62 329.29 68.58 325.19 75.97 C 320.23 84.92 307.68 93.65 293.64 97.92 C 286.29 100.15 284.71 100.38 283.67 99.33 Z M 358.08 56.42 C 358.13 55.25 358.36 55.01 358.68 55.81 C 358.97 56.53 358.94 57.40 358.60 57.73 C 358.27 58.06 358.04 57.47 358.08 56.42 Z M 357.08 42.42 C 357.13 41.25 357.36 41.01 357.68 41.81 C 357.97 42.53 357.94 43.40 357.60 43.73 C 357.27 44.06 357.04 43.47 357.08 42.42 Z" fill="none" stroke="rgba(255,255,255,0.92)" stroke-width="1.5" stroke-linejoin="round" fill-rule="evenodd"/>
</svg>
