<svg xmlns="http://www.w3.org/2000/svg" viewBox="0 0 100 100" width="100" height="100">
  <path d="M 0.00 50.00 L 0.00 0.00 L 50.00 0.00 L 100.00 0.00 L 100.00 50.00 L 100.00 100.00 L 50.00 100.00 L 0.00 100.00 L 0.00 50.00 Z M 30.00 94.44 C 30.00 93.58 30.46 93.16 31.02 93.51 C 31.58 93.86 31.81 94.49 31.55 94.93 C 31.28 95.36 33.56 95.71 36.61 95.71 C 39.81 95.71 41.61 95.37 40.86 94.91 C 40.14 94.47 39.91 93.76 40.33 93.33 C 40.76 92.91 41.43 93.07 41.81 93.70 C 42.20 94.33 43.75 95.15 45.26 95.53 C 47.40 96.07 48.00 95.86 48.00 94.61 C 48.00 93.72 48.45 93.00 49.00 93.00 C 49.55 93.00 50.00 93.48 50.00 94.06 C 50.00 94.64 50.52 94.80 51.15 94.40 C 51.86 93.97 52.04 94.13 51.61 94.83 C 51.11 95.63 52.41 95.93 55.97 95.85 C 60.13 95.76 60.83 95.50 59.89 94.37 C 58.57 92.78 58.43 92.86 63.16 92.56 C 65.96 92.38 66.68 92.66 66.27 93.74 C 65.96 94.55 64.92 94.95 63.86 94.67 C 62.84 94.41 62.00 94.56 62.00 95.02 C 62.00 95.47 68.07 95.89 75.50 95.94 C 85.72 96.01 89.02 95.72 89.08 94.76 C 89.14 93.76 89.26 93.76 89.66 94.75 C 89.94 95.44 91.48 96.00 93.08 96.00 C 95.53 96.00 96.00 95.60 96.00 93.50 L 96.00 91.00 L 78.25 90.89 C 68.49 90.83 53.41 90.81 44.75 90.85 L 29.00 90.93 L 29.00 82.00 L 29.00 73.07 L 32.69 75.25 C 39.83 79.46 62.78 78.66 75.94 73.75 C 88.20 69.17 94.73 58.12 93.78 43.58 C 93.23 35.18 90.80 29.86 85.20 24.80 C 74.36 15.00 46.82 11.81 30.75 18.49 C 29.17 19.14 29.00 18.46 29.00 11.61 C 29.00 4.16 28.95 4.00 26.50 4.00 L 24.00 4.00 L 23.83 38.75 C 23.74 57.86 23.63 77.21 23.58 81.75 L 23.50 90.00 L 16.75 90.00 L 10.00 90.00 L 10.00 47.00 L 10.00 4.00 L 7.50 4.00 L 5.00 4.00 L 4.90 39.75 C 4.84 59.41 4.73 79.93 4.65 85.33 C 4.57 90.74 4.69 95.35 4.92 95.58 C 5.15 95.81 10.88 96.00 17.67 96.00 C 28.17 96.00 30.00 95.77 30.00 94.44 Z M 69.00 94.00 L 66.50 93.20 L 69.25 93.10 C 70.76 93.04 72.00 93.45 72.00 94.00 C 72.00 94.55 71.89 94.96 71.75 94.90 C 71.61 94.85 70.38 94.44 69.00 94.00 Z M 77.50 94.00 C 75.73 93.24 75.81 93.13 78.25 93.07 C 79.76 93.03 81.00 93.45 81.00 94.00 C 81.00 95.17 80.23 95.17 77.50 94.00 Z M 36.03 70.42 C 28.89 67.32 29.00 67.69 29.00 47.28 C 29.00 36.00 29.42 28.09 30.08 26.85 C 32.22 22.85 38.56 21.05 50.57 21.02 C 74.23 20.98 85.69 27.31 88.04 41.73 C 90.47 56.69 82.67 67.06 66.36 70.51 C 57.23 72.45 40.59 72.39 36.03 70.42 Z" fill="none" stroke="rgba(255,255,255,0.92)" stroke-width="1.2" stroke-linejoin="round" fill-rule="evenodd"/>
</svg>
