<svg xmlns="http://www.w3.org/2000/svg" viewBox="0 0 100 100" width="100" height="100">
  <path d="M 0.00 50.00 L 0.00 0.00 L 50.00 0.00 L 100.00 0.00 L 100.00 50.00 L 100.00 100.00 L 50.00 100.00 L 0.00 100.00 L 0.00 50.00 Z M 73.45 95.42 C 74.98 95.04 76.54 93.72 77.05 92.37 C 77.89 90.17 78.48 90.00 85.42 90.00 C 93.19 90.00 94.79 90.78 93.12 93.74 C 92.23 95.33 92.03 95.26 91.13 93.00 L 90.13 90.50 L 90.06 93.25 C 90.01 95.53 90.42 96.00 92.50 96.00 L 95.00 96.00 L 95.01 74.75 C 95.01 63.06 95.31 42.36 95.66 28.75 L 96.31 4.00 L 50.15 4.00 L 4.00 4.00 L 4.00 7.00 L 4.00 10.00 L 47.06 10.00 L 90.12 10.00 L 89.85 40.25 C 89.70 56.89 89.41 73.54 89.21 77.25 L 88.83 84.00 L 46.41 84.00 L 4.00 84.00 L 4.00 87.00 C 4.00 89.92 4.13 90.00 8.84 90.00 C 13.00 90.00 13.84 90.34 14.79 92.44 C 15.68 94.39 16.77 94.94 20.20 95.19 C 29.69 95.87 70.94 96.05 73.45 95.42 Z" fill="none" stroke="rgba(255,255,255,0.92)" stroke-width="1.2" stroke-linejoin="round" fill-rule="evenodd"/>
</svg>
