<svg xmlns="http://www.w3.org/2000/svg" viewBox="0 0 100 100" width="100" height="100">
  <path d="M 0.00 50.00 L 0.00 0.00 L 50.00 0.00 L 100.00 0.00 L 100.00 50.00 L 100.00 100.00 L 50.00 100.00 L 0.00 100.00 L 0.00 50.00 Z M 96.00 49.96 C 96.00 19.99 95.65 4.00 95.00 4.00 C 94.44 4.00 93.91 7.38 93.80 11.75 L 93.60 19.50 L 93.26 11.75 C 93.07 7.49 92.47 4.00 91.92 4.00 C 91.28 4.00 91.07 15.76 91.31 37.43 L 91.69 70.85 L 84.26 71.18 C 80.17 71.35 76.71 71.38 76.57 71.24 C 76.43 71.10 77.13 68.62 78.12 65.74 C 80.18 59.79 80.44 51.51 78.98 38.76 C 77.23 23.45 72.09 13.48 63.30 8.33 C 59.14 5.89 57.46 5.52 50.51 5.51 C 40.87 5.50 36.12 7.56 31.28 13.88 C 26.01 20.75 23.82 29.39 23.27 45.50 C 22.85 57.59 23.05 60.28 24.74 65.25 L 26.69 71.00 L 18.92 71.00 L 11.14 71.00 L 11.23 65.25 C 11.60 41.05 10.85 4.00 10.00 4.00 C 9.45 4.00 8.95 4.79 8.88 5.75 C 8.77 7.42 8.75 7.42 8.31 5.75 C 8.06 4.79 7.38 4.00 6.79 4.00 C 6.05 4.00 5.92 16.17 6.34 44.25 C 6.68 66.39 6.96 87.01 6.98 90.08 L 7.00 95.65 L 51.50 95.78 L 96.00 95.91 L 96.00 49.96 Z M 12.20 83.45 L 12.50 76.90 L 51.44 76.97 C 72.86 77.01 90.62 77.28 90.91 77.57 C 91.20 77.86 91.52 80.78 91.62 84.05 L 91.81 90.00 L 51.86 90.00 L 11.91 90.00 L 12.20 83.45 Z M 8.07 68.25 C 8.11 66.74 8.53 64.60 9.00 63.50 C 9.65 62.00 9.88 62.68 9.93 66.25 C 9.97 68.86 9.55 71.00 9.00 71.00 C 8.45 71.00 8.03 69.76 8.07 68.25 Z M 31.27 66.84 C 28.79 63.08 28.49 61.65 28.16 52.05 C 27.51 33.28 31.55 19.30 39.19 13.87 C 42.98 11.16 51.53 10.26 57.65 11.91 C 62.65 13.25 67.55 17.96 70.14 23.89 C 74.67 34.29 76.35 58.61 72.99 65.09 C 69.90 71.06 70.11 71.00 51.36 71.00 L 34.03 71.00 L 31.27 66.84 Z M 93.00 70.06 C 93.00 69.54 93.45 68.84 94.00 68.50 C 94.55 68.16 95.00 68.58 95.00 69.44 C 95.00 70.30 94.55 71.00 94.00 71.00 C 93.45 71.00 93.00 70.58 93.00 70.06 Z M 93.92 64.75 C 93.12 62.16 93.14 56.00 93.95 56.00 C 94.53 56.00 95.00 58.02 95.00 60.50 C 95.00 62.98 94.78 65.00 94.50 65.00 C 94.22 65.00 93.97 64.89 93.92 64.75 Z M 8.00 60.12 C 8.00 59.57 8.45 58.84 9.00 58.50 C 9.55 58.16 10.00 58.33 10.00 58.88 C 10.00 59.43 9.55 60.16 9.00 60.50 C 8.45 60.84 8.00 60.67 8.00 60.12 Z M 8.68 56.25 C 8.45 55.84 8.61 54.60 9.05 53.50 C 9.76 51.75 9.87 51.85 9.93 54.25 C 10.00 56.96 9.53 57.71 8.68 56.25 Z M 93.64 52.50 C 93.32 51.67 93.50 51.00 94.03 51.00 C 94.56 51.00 95.00 51.67 95.00 52.50 C 95.00 53.33 94.82 54.00 94.61 54.00 C 94.39 54.00 93.95 53.33 93.64 52.50 Z M 8.60 47.40 C 8.24 46.47 8.18 45.49 8.45 45.21 C 8.73 44.94 9.24 45.47 9.60 46.40 C 9.96 47.33 10.02 48.31 9.75 48.59 C 9.47 48.86 8.96 48.33 8.60 47.40 Z M 94.08 47.42 C 94.13 46.25 94.36 46.01 94.68 46.81 C 94.97 47.53 94.94 48.40 94.60 48.73 C 94.27 49.06 94.04 48.47 94.08 47.42 Z M 8.16 41.00 C 8.16 39.62 8.38 39.06 8.66 39.75 C 8.94 40.44 8.94 41.56 8.66 42.25 C 8.38 42.94 8.16 42.38 8.16 41.00 Z M 8.29 30.50 C 8.29 27.75 8.49 26.74 8.72 28.26 C 8.95 29.78 8.94 32.03 8.70 33.26 C 8.47 34.49 8.28 33.25 8.29 30.50 Z M 93.00 23.00 C 93.00 21.35 93.34 20.00 93.75 20.00 C 94.16 20.00 94.50 21.35 94.50 23.00 C 94.50 24.65 94.16 26.00 93.75 26.00 C 93.34 26.00 93.00 24.65 93.00 23.00 Z M 8.34 15.50 C 8.35 11.10 8.52 9.42 8.73 11.78 C 8.94 14.13 8.94 17.73 8.73 19.78 C 8.51 21.82 8.34 19.90 8.34 15.50 Z" fill="none" stroke="rgba(255,255,255,0.92)" stroke-width="1.2" stroke-linejoin="round" fill-rule="evenodd"/>
</svg>
