<svg xmlns="http://www.w3.org/2000/svg" viewBox="0 0 100 100" width="100" height="100">
  <path d="M 0.00 50.00 L 0.00 0.00 L 50.00 0.00 L 100.00 0.00 L 100.00 50.00 L 100.00 100.00 L 50.00 100.00 L 0.00 100.00 L 0.00 50.00 Z M 10.00 92.97 L 10.00 89.94 L 49.75 90.22 L 89.50 90.50 L 89.82 93.25 C 90.07 95.45 90.64 96.00 92.68 96.00 L 95.23 96.00 L 94.50 50.75 C 94.10 25.86 93.71 5.44 93.64 5.37 C 93.56 5.30 73.59 4.98 49.25 4.67 L 5.00 4.10 L 5.00 50.05 L 5.00 96.00 L 7.50 96.00 C 9.62 96.00 10.00 95.54 10.00 92.97 Z M 49.50 84.00 L 10.50 83.50 L 10.22 72.09 L 9.93 60.68 L 49.14 61.31 C 77.74 61.78 88.55 62.27 89.08 63.14 C 90.00 64.61 90.06 80.74 89.16 82.91 C 88.57 84.34 84.52 84.45 49.50 84.00 Z M 28.75 55.25 L 10.00 54.96 L 10.00 49.00 C 10.00 43.45 10.17 42.99 12.55 42.40 C 13.94 42.05 22.83 42.03 32.30 42.35 C 41.76 42.68 58.39 42.96 69.25 42.97 L 89.00 43.00 L 89.00 49.50 L 89.00 56.00 L 68.25 55.77 C 56.84 55.65 39.06 55.41 28.75 55.25 Z M 12.25 36.29 C 10.06 35.87 10.00 35.53 10.00 23.43 L 10.00 11.00 L 49.50 11.00 L 89.00 11.00 L 89.00 24.00 L 89.00 37.00 L 51.75 36.86 C 31.26 36.79 13.49 36.53 12.25 36.29 Z" fill="none" stroke="rgba(255,255,255,0.92)" stroke-width="1.2" stroke-linejoin="round" fill-rule="evenodd"/>
</svg>
