<svg xmlns="http://www.w3.org/2000/svg" viewBox="0 0 143 400" width="143" height="400">
  <path d="M 0.00 200.00 L 0.00 0.00 L 71.50 0.00 L 143.00 0.00 L 143.00 200.00 L 143.00 400.00 L 71.50 400.00 L 0.00 400.00 L 0.00 200.00 Z M 75.73 394.00 L 138.29 394.00 L 137.64 303.75 C 137.28 254.11 136.72 191.23 136.39 164.00 C 136.06 136.77 135.50 90.23 135.14 60.57 L 134.50 6.64 L 70.61 6.24 L 6.73 5.84 L 7.31 128.67 C 7.63 196.23 8.12 265.90 8.40 283.50 C 8.68 301.10 8.95 326.07 9.00 339.00 C 9.15 377.10 10.04 395.20 11.74 394.55 C 12.52 394.25 41.32 394.00 75.73 394.00 Z M 17.67 386.33 C 17.30 385.97 17.00 381.92 17.00 377.33 L 17.00 369.00 L 74.00 369.00 L 131.00 369.00 L 131.00 378.00 L 131.00 387.00 L 74.67 387.00 C 43.68 387.00 18.03 386.70 17.67 386.33 Z M 59.28 361.25 L 48.05 360.93 L 45.01 356.51 C 43.33 354.08 41.52 349.76 40.98 346.91 C 38.70 334.88 40.58 311.48 44.77 299.61 C 47.07 293.10 53.26 286.25 59.46 283.37 C 67.52 279.61 81.15 280.59 89.50 285.51 C 100.80 292.18 107.93 314.41 106.78 339.46 C 106.28 350.52 104.27 356.07 99.39 359.91 C 96.56 362.14 93.71 362.23 59.28 361.25 Z M 109.55 360.25 C 113.95 350.11 114.26 347.89 113.64 331.00 C 113.30 321.83 112.34 311.65 111.49 308.09 C 108.03 293.69 99.39 281.48 89.59 277.14 C 74.07 270.28 55.80 272.99 46.00 283.61 C 37.03 293.34 33.95 304.23 33.28 328.50 C 32.77 346.91 33.08 349.20 37.45 359.25 C 38.15 360.86 37.31 361.00 27.11 361.00 L 16.00 361.00 L 15.96 330.25 C 15.93 313.34 15.77 292.52 15.61 283.98 L 15.30 268.46 L 38.90 268.75 C 51.88 268.90 63.17 269.03 64.00 269.02 C 64.83 269.01 70.45 269.08 76.50 269.16 C 85.72 269.29 106.73 269.22 109.22 269.05 C 109.61 269.02 109.68 268.32 109.36 267.50 C 109.05 266.68 109.28 266.00 109.89 266.00 C 110.50 266.00 111.00 266.62 111.00 267.39 C 111.00 269.11 115.47 269.86 123.75 269.54 C 127.19 269.41 130.03 269.35 130.06 269.40 C 130.10 269.46 130.34 289.75 130.60 314.50 C 130.87 339.25 131.27 360.06 131.51 360.75 C 131.84 361.70 129.18 362.00 120.36 362.00 C 109.71 362.00 108.85 361.86 109.55 360.25 Z M 12.00 357.00 C 12.00 354.80 12.45 353.00 13.00 353.00 C 13.55 353.00 14.00 354.80 14.00 357.00 C 14.00 359.20 13.55 361.00 13.00 361.00 C 12.45 361.00 12.00 359.20 12.00 357.00 Z M 133.23 359.81 C 133.85 357.96 136.00 357.65 136.00 359.42 C 136.00 360.29 135.29 361.00 134.42 361.00 C 133.55 361.00 133.01 360.47 133.23 359.81 Z M 133.67 352.33 C 132.62 351.29 132.89 349.81 134.00 350.50 C 134.55 350.84 135.00 350.67 135.00 350.12 C 135.00 349.57 134.55 348.84 134.00 348.50 C 133.45 348.16 133.07 346.00 133.16 343.69 C 133.32 339.52 133.32 339.52 133.82 343.00 L 134.32 346.50 L 135.04 343.50 C 135.60 341.18 135.79 341.92 135.88 346.75 C 135.99 352.51 135.38 354.05 133.67 352.33 Z M 12.00 345.06 C 12.00 341.24 12.39 337.88 12.86 337.59 C 13.33 337.30 13.66 340.42 13.61 344.53 C 13.55 348.64 13.16 352.00 12.75 352.00 C 12.34 352.00 12.00 348.88 12.00 345.06 Z M 134.00 337.06 C 134.00 336.54 134.45 335.84 135.00 335.50 C 135.55 335.16 136.00 335.58 136.00 336.44 C 136.00 337.30 135.55 338.00 135.00 338.00 C 134.45 338.00 134.00 337.58 134.00 337.06 Z M 12.16 334.00 C 12.16 332.62 12.38 332.06 12.66 332.75 C 12.94 333.44 12.94 334.56 12.66 335.25 C 12.38 335.94 12.16 335.38 12.16 334.00 Z M 133.16 334.00 C 133.16 332.62 133.38 332.06 133.66 332.75 C 133.94 333.44 133.94 334.56 133.66 335.25 C 133.38 335.94 133.16 335.38 133.16 334.00 Z M 12.73 331.40 C 12.33 330.99 12.01 329.73 12.03 328.58 C 12.06 326.66 12.14 326.64 13.10 328.29 C 14.22 330.21 13.93 332.60 12.73 331.40 Z M 134.58 331.13 C 134.15 330.44 134.07 329.60 134.40 329.27 C 135.29 328.37 136.27 329.69 135.79 331.14 C 135.45 332.15 135.21 332.15 134.58 331.13 Z M 135.16 316.00 C 135.16 314.62 135.38 314.06 135.66 314.75 C 135.94 315.44 135.94 316.56 135.66 317.25 C 135.38 317.94 135.16 317.38 135.16 316.00 Z M 133.08 309.42 C 133.13 308.25 133.36 308.01 133.68 308.81 C 133.97 309.53 133.94 310.40 133.60 310.73 C 133.27 311.06 133.04 310.47 133.08 309.42 Z M 11.00 302.94 C 11.00 301.81 11.43 301.15 11.96 301.47 C 12.48 301.80 12.66 302.72 12.35 303.53 C 11.56 305.60 11.00 305.36 11.00 302.94 Z M 133.67 304.33 C 133.30 303.97 133.00 303.20 133.00 302.63 C 133.00 302.01 133.47 302.07 134.18 302.78 C 134.83 303.43 135.13 304.20 134.85 304.48 C 134.57 304.77 134.03 304.70 133.67 304.33 Z M 133.00 295.56 C 133.00 294.22 133.43 292.85 133.96 292.52 C 134.51 292.18 134.83 293.23 134.71 294.96 C 134.46 298.57 133.00 299.08 133.00 295.56 Z M 11.00 292.17 C 11.00 289.32 11.36 287.00 11.80 287.00 C 12.76 287.00 12.66 295.67 11.69 296.65 C 11.31 297.02 11.00 295.01 11.00 292.17 Z M 133.00 282.75 C 133.00 277.48 132.70 272.38 132.33 271.42 C 131.85 270.16 132.02 269.89 132.94 270.46 C 133.90 271.06 134.04 270.67 133.48 268.88 C 133.08 267.57 132.40 266.05 131.96 265.50 C 131.23 264.57 133.04 261.00 134.24 261.00 C 135.00 261.00 134.42 290.91 133.65 291.69 C 133.29 292.04 133.00 288.02 133.00 282.75 Z M 11.00 274.53 C 11.00 265.39 11.20 264.14 12.58 264.67 C 13.51 265.03 13.75 265.54 13.15 265.90 C 12.55 266.28 12.27 270.27 12.45 275.77 C 12.62 280.84 12.36 285.00 11.88 285.00 C 11.39 285.00 11.00 280.29 11.00 274.53 Z M 123.60 267.16 C 123.25 266.60 123.45 265.84 124.05 265.47 C 125.59 264.52 126.58 265.82 125.30 267.10 C 124.58 267.82 124.02 267.84 123.60 267.16 Z M 29.23 265.81 C 29.45 265.16 30.16 264.45 30.81 264.23 C 31.54 263.99 31.77 264.44 31.39 265.42 C 30.70 267.23 28.63 267.61 29.23 265.81 Z M 93.14 266.11 C 92.32 265.59 92.18 265.01 92.78 264.64 C 93.33 264.30 94.33 264.69 95.01 265.51 C 96.36 267.14 95.30 267.48 93.14 266.11 Z M 115.50 266.00 C 115.16 265.45 115.61 265.00 116.50 265.00 C 117.39 265.00 117.84 265.45 117.50 266.00 C 117.16 266.55 116.71 267.00 116.50 267.00 C 116.29 267.00 115.84 266.55 115.50 266.00 Z M 33.00 265.62 C 33.00 264.77 38.09 264.33 38.58 265.13 C 38.88 265.61 37.74 266.00 36.06 266.00 C 34.38 266.00 33.00 265.83 33.00 265.62 Z M 85.00 265.00 C 85.00 264.45 85.45 264.00 86.00 264.00 C 86.55 264.00 87.00 264.45 87.00 265.00 C 87.00 265.55 86.55 266.00 86.00 266.00 C 85.45 266.00 85.00 265.55 85.00 265.00 Z M 106.00 265.00 C 104.72 264.17 104.75 264.03 106.25 264.02 C 107.21 264.01 108.00 264.45 108.00 265.00 C 108.00 266.22 107.89 266.22 106.00 265.00 Z M 11.07 256.25 C 11.04 252.54 10.89 244.66 10.75 238.75 C 10.61 232.84 10.84 228.00 11.25 228.00 C 11.66 228.00 12.04 230.36 12.08 233.25 C 12.12 236.14 12.28 244.01 12.42 250.75 C 12.57 257.49 12.34 263.00 11.91 263.00 C 11.49 263.00 11.11 259.96 11.07 256.25 Z M 15.86 261.50 C 15.26 261.50 14.90 246.15 14.83 217.50 C 14.69 167.32 14.32 145.45 13.56 143.11 L 12.78 140.73 L 70.64 141.46 C 102.46 141.87 128.62 142.32 128.78 142.46 C 129.09 142.75 130.31 255.26 130.06 260.83 C 130.01 261.92 119.85 262.10 73.00 261.83 C 41.65 261.65 15.94 261.50 15.86 261.50 Z M 132.81 256.75 C 132.56 254.96 132.65 250.35 133.02 246.50 C 133.78 238.51 134.14 239.93 134.35 251.75 C 134.50 260.04 133.65 262.79 132.81 256.75 Z M 11.08 216.42 C 11.13 215.25 11.36 215.01 11.68 215.81 C 11.97 216.53 11.94 217.40 11.60 217.73 C 11.27 218.06 11.04 217.47 11.08 216.42 Z M 132.09 205.55 C 132.03 202.99 132.34 201.94 132.97 202.57 C 133.58 203.18 133.61 204.68 133.06 206.52 C 132.18 209.47 132.17 209.45 132.09 205.55 Z M 11.27 204.00 C 11.27 201.53 11.47 200.51 11.71 201.75 C 11.94 202.99 11.94 205.01 11.71 206.25 C 11.47 207.49 11.27 206.47 11.27 204.00 Z M 132.16 198.00 C 132.16 196.62 132.38 196.06 132.66 196.75 C 132.94 197.44 132.94 198.56 132.66 199.25 C 132.38 199.94 132.16 199.38 132.16 198.00 Z M 10.69 196.25 C 9.81 194.72 10.57 184.64 11.59 184.30 C 12.30 184.07 12.42 185.68 11.96 189.23 C 11.58 192.13 11.49 195.06 11.74 195.75 C 12.25 197.09 11.40 197.49 10.69 196.25 Z M 132.16 191.00 C 132.16 189.62 132.38 189.06 132.66 189.75 C 132.94 190.44 132.94 191.56 132.66 192.25 C 132.38 192.94 132.16 192.38 132.16 191.00 Z M 132.00 183.56 C 132.00 180.49 132.57 180.25 133.29 183.00 C 133.58 184.10 133.40 185.25 132.91 185.56 C 132.41 185.87 132.00 184.97 132.00 183.56 Z M 10.67 182.33 C 10.30 181.97 10.01 180.95 10.03 180.08 C 10.06 178.78 10.25 178.83 11.12 180.33 C 12.20 182.18 11.89 183.55 10.67 182.33 Z M 10.45 172.40 C 10.42 169.43 10.76 167.00 11.20 167.00 C 12.21 167.00 12.26 176.72 11.25 177.34 C 10.84 177.60 10.48 175.37 10.45 172.40 Z M 132.03 164.55 C 132.01 162.40 132.30 161.90 133.10 162.70 C 133.89 163.49 133.90 164.33 133.13 165.65 C 132.19 167.27 132.06 167.14 132.03 164.55 Z M 10.31 161.28 C 10.17 158.66 10.39 158.00 11.04 159.03 C 12.16 160.80 12.30 165.00 11.25 165.00 C 10.84 164.99 10.41 163.32 10.31 161.28 Z M 132.08 157.42 C 132.13 156.25 132.36 156.01 132.68 156.81 C 132.97 157.53 132.94 158.40 132.60 158.73 C 132.27 159.06 132.04 158.47 132.08 157.42 Z M 10.54 156.07 C 10.23 155.56 10.42 154.86 10.98 154.51 C 11.54 154.16 12.00 154.58 12.00 155.44 C 12.00 157.20 11.40 157.46 10.54 156.07 Z M 131.00 153.12 C 131.00 152.57 131.45 151.84 132.00 151.50 C 132.55 151.16 133.00 151.33 133.00 151.88 C 133.00 152.43 132.55 153.16 132.00 153.50 C 131.45 153.84 131.00 153.67 131.00 153.12 Z M 10.36 146.45 C 10.37 144.00 10.74 142.00 11.19 142.00 C 12.26 142.00 12.24 149.73 11.17 150.40 C 10.71 150.68 10.35 148.90 10.36 146.45 Z M 131.81 146.00 C 131.14 141.93 131.34 141.53 133.57 142.39 C 134.74 142.84 134.93 143.39 134.22 144.26 C 133.67 144.94 133.03 146.40 132.80 147.50 C 132.51 148.89 132.21 148.43 131.81 146.00 Z M 44.75 133.25 L 15.00 132.97 L 15.00 128.07 C 15.00 125.37 14.71 122.41 14.36 121.49 C 13.76 119.94 17.78 119.84 70.38 120.12 C 101.55 120.28 127.46 120.67 127.96 120.97 C 128.46 121.28 128.78 124.34 128.68 127.77 L 128.50 133.99 L 101.50 133.76 C 86.65 133.64 61.11 133.40 44.75 133.25 Z M 60.34 112.25 L 15.18 111.98 L 14.62 103.74 C 14.31 99.21 14.15 92.35 14.28 88.50 L 14.50 81.50 L 70.50 81.87 C 101.30 82.08 126.84 82.44 127.25 82.68 C 127.66 82.92 128.00 89.84 128.00 98.06 L 128.00 113.00 L 116.75 112.76 C 110.56 112.63 85.18 112.40 60.34 112.25 Z M 121.00 74.25 C 119.62 74.11 95.10 73.88 66.50 73.74 L 14.50 73.50 L 14.18 65.25 L 13.87 57.00 L 21.68 56.93 C 47.19 56.69 126.54 57.21 127.20 57.63 C 127.64 57.90 128.00 61.64 128.00 65.94 C 128.00 74.47 127.60 74.94 121.00 74.25 Z M 111.50 49.25 C 103.25 49.12 78.05 48.89 55.50 48.75 L 14.50 48.50 L 14.23 31.14 L 13.95 13.78 L 70.23 14.51 C 101.18 14.91 126.58 15.30 126.68 15.38 C 127.13 15.74 127.44 48.87 127.00 49.17 C 126.72 49.35 119.75 49.39 111.50 49.25 Z" fill="none" stroke="rgba(255,255,255,0.92)" stroke-width="1.5" stroke-linejoin="round" fill-rule="evenodd"/>
</svg>
