<svg xmlns="http://www.w3.org/2000/svg" viewBox="0 0 390 400" width="390" height="400">
  <path d="M 0.00 200.00 L 0.00 0.00 L 195.00 0.00 L 390.00 0.00 L 390.00 200.00 L 390.00 400.00 L 195.00 400.00 L 0.00 400.00 L 0.00 200.00 Z M 56.63 391.59 C 57.39 391.29 58.01 389.61 58.03 387.78 C 58.06 385.07 58.24 384.80 59.08 386.25 C 59.64 387.21 60.75 388.00 61.55 388.00 C 62.35 388.00 63.00 388.69 63.00 389.53 C 63.00 391.71 65.27 392.30 69.36 391.17 C 72.11 390.41 73.17 390.50 74.08 391.59 C 75.38 393.16 78.59 393.48 79.43 392.12 C 80.18 390.90 85.97 390.14 86.60 391.17 C 87.26 392.23 92.10 392.22 93.78 391.15 C 94.49 390.71 94.80 389.63 94.47 388.77 C 94.13 387.91 94.39 386.87 95.04 386.47 C 96.43 385.61 98.03 387.77 97.34 389.57 C 96.30 392.26 108.70 393.27 111.78 390.75 C 112.72 389.99 113.44 390.22 114.47 391.60 C 115.67 393.21 116.19 393.31 117.93 392.25 C 120.48 390.69 123.16 390.66 126.46 392.16 C 128.43 393.06 129.55 393.04 131.35 392.08 C 133.15 391.12 134.63 391.09 137.94 391.98 C 140.29 392.62 142.95 392.82 143.85 392.43 C 146.44 391.33 163.32 391.23 165.09 392.31 C 167.51 393.79 172.43 391.79 172.82 389.17 C 173.22 386.43 175.00 386.31 175.00 389.02 C 175.00 391.76 179.38 393.41 183.17 392.09 C 185.03 391.44 186.97 391.44 188.84 392.09 C 190.68 392.74 193.18 392.75 195.97 392.12 C 198.96 391.45 200.81 391.49 202.05 392.26 C 203.35 393.08 205.12 393.08 208.64 392.27 C 211.29 391.67 214.14 391.53 214.98 391.97 C 215.81 392.40 223.93 392.59 233.00 392.39 C 242.07 392.19 250.29 392.05 251.25 392.07 C 253.23 392.11 259.86 392.09 263.25 392.03 C 264.49 392.01 267.80 392.26 270.61 392.58 C 274.80 393.07 275.83 392.88 276.36 391.51 C 277.11 389.54 274.87 387.00 272.37 387.00 C 271.26 387.00 270.96 386.65 271.55 386.07 C 272.07 385.55 274.07 385.46 276.00 385.86 C 278.86 386.45 279.59 387.12 280.02 389.54 C 280.50 392.29 280.82 392.48 284.52 392.25 C 286.71 392.12 289.62 392.05 291.00 392.11 C 292.38 392.16 294.96 392.17 296.75 392.12 C 302.14 391.96 305.04 391.96 316.00 392.10 C 321.77 392.18 327.62 392.15 329.00 392.03 C 330.38 391.92 339.38 391.86 349.00 391.91 C 358.62 391.95 367.62 391.91 369.00 391.83 C 370.38 391.74 372.67 392.00 374.11 392.40 C 380.00 394.08 379.70 399.45 379.83 290.83 C 379.90 236.20 380.16 182.95 380.40 172.50 C 380.65 162.05 381.00 120.97 381.17 81.21 L 381.50 8.93 L 287.16 8.96 C 235.28 8.98 192.42 9.24 191.93 9.54 C 191.43 9.85 191.06 11.09 191.10 12.30 C 191.13 13.51 190.66 45.10 190.05 82.50 C 189.44 119.90 189.03 158.49 189.14 168.25 C 189.24 178.02 189.03 186.30 188.66 186.67 C 188.30 187.03 188.00 188.61 188.00 190.17 C 188.00 192.41 187.53 193.02 185.75 193.09 C 184.51 193.14 144.65 193.36 97.17 193.58 C 49.69 193.80 10.43 194.23 9.92 194.55 C 9.03 195.10 8.53 391.19 9.42 392.08 C 10.02 392.69 55.00 392.21 56.63 391.59 Z M 61.46 391.07 C 61.77 390.56 61.58 389.86 61.02 389.51 C 60.46 389.16 60.00 389.58 60.00 390.44 C 60.00 392.20 60.60 392.46 61.46 391.07 Z M 164.56 390.10 C 164.26 389.61 164.72 388.94 165.59 388.60 C 168.34 387.55 169.32 387.91 168.00 389.50 C 166.59 391.20 165.37 391.42 164.56 390.10 Z M 253.02 388.44 L 250.54 386.00 L 252.77 386.00 C 254.00 386.00 255.00 386.38 255.00 386.84 C 255.00 387.30 257.03 387.71 259.50 387.75 C 261.98 387.79 263.75 387.41 263.44 386.91 C 262.62 385.57 267.17 385.80 270.29 387.25 C 273.90 388.93 273.69 389.70 269.50 390.19 C 267.57 390.41 266.00 390.33 266.00 389.99 C 266.00 389.16 258.24 389.43 257.37 390.30 C 256.31 391.35 255.73 391.10 253.02 388.44 Z M 78.21 389.32 C 77.22 388.93 77.19 388.48 78.08 387.40 C 79.84 385.28 81.90 385.66 81.29 388.00 C 80.75 390.06 80.41 390.21 78.21 389.32 Z M 117.36 389.25 C 115.81 388.99 115.35 388.36 115.71 386.99 C 116.17 385.25 117.01 385.12 125.36 385.51 C 130.38 385.75 135.70 385.98 137.16 386.02 C 138.62 386.06 140.10 386.81 140.43 387.69 C 141.32 389.99 140.22 390.62 137.89 389.16 C 136.78 388.47 135.04 388.17 134.02 388.49 C 133.00 388.82 131.88 388.61 131.53 388.04 C 131.17 387.47 129.90 387.01 128.69 387.02 C 127.05 387.03 126.85 387.25 127.88 387.91 C 129.99 389.24 125.56 390.37 123.19 389.10 C 122.15 388.55 120.90 388.43 120.40 388.85 C 119.91 389.26 118.54 389.44 117.36 389.25 Z M 154.00 389.03 C 154.00 388.50 153.32 388.32 152.50 388.64 C 151.68 388.95 150.25 388.93 149.33 388.57 C 147.84 388.00 147.88 387.77 149.72 386.48 C 151.35 385.34 152.46 385.26 154.90 386.11 C 158.31 387.30 158.85 388.46 156.42 389.39 C 154.29 390.21 154.00 390.16 154.00 389.03 Z M 191.88 389.33 C 191.82 388.88 191.82 388.16 191.88 387.75 C 191.95 387.34 191.27 387.00 190.38 387.00 C 189.20 387.00 189.04 386.66 189.79 385.75 C 190.68 384.66 191.17 373.84 191.17 355.00 C 191.17 351.98 191.38 350.26 191.65 351.19 C 191.91 352.13 192.66 352.68 193.31 352.43 C 194.20 352.09 194.46 355.65 194.35 366.49 C 194.26 374.56 194.60 381.00 195.10 381.00 C 195.59 381.00 196.00 381.68 196.00 382.50 C 196.00 383.32 195.53 384.00 194.96 384.00 C 194.39 384.00 194.05 385.19 194.21 386.65 C 194.46 388.94 192.20 391.55 191.88 389.33 Z M 196.68 389.25 C 196.45 388.84 196.61 387.60 197.05 386.50 C 197.76 384.75 197.87 384.85 197.93 387.25 C 198.00 389.96 197.53 390.71 196.68 389.25 Z M 204.36 389.37 C 203.01 388.82 203.77 385.00 205.22 385.00 C 205.77 385.00 205.95 385.68 205.64 386.50 C 205.24 387.53 205.70 388.00 207.09 388.00 C 208.21 388.00 208.84 388.45 208.50 389.00 C 207.86 390.04 206.32 390.18 204.36 389.37 Z M 230.44 388.91 C 230.16 388.46 231.08 387.34 232.47 386.43 C 234.60 385.03 235.71 384.94 239.42 385.87 C 241.84 386.49 245.33 386.73 247.16 386.42 L 250.50 385.85 L 248.14 387.93 C 245.34 390.39 243.69 390.54 242.00 388.50 C 240.67 386.89 236.00 386.41 236.00 387.88 C 236.00 389.06 231.09 389.96 230.44 388.91 Z M 288.84 389.24 C 287.92 389.05 286.92 388.24 286.62 387.44 C 286.19 386.32 287.04 386.00 290.50 386.00 C 293.89 386.00 294.81 386.33 294.40 387.40 C 293.80 388.97 291.34 389.79 288.84 389.24 Z M 319.38 388.54 C 318.63 386.60 318.76 386.46 322.11 385.66 C 324.00 385.21 325.22 385.58 326.51 387.02 C 328.25 388.94 328.24 389.00 326.10 389.00 C 324.87 389.00 324.16 388.55 324.50 388.00 C 324.84 387.45 324.42 387.00 323.56 387.00 C 322.70 387.00 322.11 387.51 322.25 388.12 C 322.65 389.94 320.06 390.32 319.38 388.54 Z M 358.73 389.19 C 357.21 389.01 356.23 388.44 356.54 387.93 C 356.86 387.42 356.30 386.99 355.31 386.97 C 353.59 386.94 353.60 386.88 355.36 385.86 C 356.69 385.08 357.82 385.09 359.36 385.87 C 360.54 386.46 362.35 386.85 363.39 386.73 C 364.43 386.60 365.46 387.01 365.68 387.63 C 366.14 388.91 362.80 389.66 358.73 389.19 Z M 68.00 387.50 C 68.00 386.68 68.73 386.00 69.62 386.00 C 70.95 386.00 71.02 386.27 70.00 387.50 C 69.32 388.32 68.59 389.00 68.38 389.00 C 68.17 389.00 68.00 388.32 68.00 387.50 Z M 85.00 387.50 C 85.00 386.68 85.66 386.00 86.47 386.00 C 87.36 386.00 87.71 386.59 87.36 387.50 C 87.05 388.32 86.38 389.00 85.89 389.00 C 85.40 389.00 85.00 388.32 85.00 387.50 Z M 100.81 388.32 C 101.53 388.03 102.40 388.06 102.73 388.40 C 103.06 388.73 102.47 388.96 101.42 388.92 C 100.25 388.87 100.01 388.64 100.81 388.32 Z M 105.23 387.00 C 104.21 385.36 104.23 385.00 105.37 385.00 C 107.07 385.00 109.23 387.44 108.32 388.34 C 107.25 389.42 106.55 389.11 105.23 387.00 Z M 143.68 387.60 C 143.05 385.97 143.89 384.81 145.14 385.59 C 146.28 386.29 146.25 389.00 145.11 389.00 C 144.62 389.00 143.97 388.37 143.68 387.60 Z M 218.76 388.34 C 219.45 388.06 219.73 387.37 219.39 386.82 C 219.03 386.25 219.54 385.96 220.55 386.15 C 223.63 386.75 223.46 389.01 220.33 388.92 C 218.78 388.88 218.07 388.61 218.76 388.34 Z M 303.33 387.50 C 303.33 386.68 303.86 386.00 304.50 386.00 C 305.14 386.00 305.67 386.68 305.67 387.50 C 305.67 388.32 305.14 389.00 304.50 389.00 C 303.86 389.00 303.33 388.32 303.33 387.50 Z M 311.21 387.46 C 310.13 386.24 310.23 386.00 311.79 386.00 C 312.82 386.00 313.67 386.68 313.67 387.50 C 313.67 389.37 312.88 389.36 311.21 387.46 Z M 332.81 388.32 C 333.53 388.03 334.40 388.06 334.73 388.40 C 335.06 388.73 334.47 388.96 333.42 388.92 C 332.25 388.87 332.01 388.64 332.81 388.32 Z M 337.64 387.52 C 337.32 386.67 336.41 386.29 335.54 386.62 C 334.69 386.95 334.00 386.72 334.00 386.11 C 334.00 384.80 339.89 384.65 341.88 385.90 C 342.64 386.38 342.95 387.28 342.57 387.89 C 341.57 389.50 338.31 389.25 337.64 387.52 Z M 346.13 387.66 C 344.81 386.07 345.63 385.00 348.17 385.00 C 349.18 385.00 350.00 385.64 350.00 386.42 C 350.00 387.20 350.56 388.06 351.25 388.34 C 351.94 388.62 351.32 388.88 349.87 388.92 C 348.43 388.96 346.74 388.40 346.13 387.66 Z M 368.00 388.11 C 368.00 387.30 376.00 385.93 376.85 386.59 C 377.04 386.74 376.90 387.35 376.54 387.93 C 375.75 389.22 368.00 389.38 368.00 388.11 Z M 111.00 387.00 C 111.00 386.45 111.45 386.00 112.00 386.00 C 112.55 386.00 113.00 386.45 113.00 387.00 C 113.00 387.55 112.55 388.00 112.00 388.00 C 111.45 388.00 111.00 387.55 111.00 387.00 Z M 62.15 386.05 C 62.37 385.39 62.88 384.88 63.27 384.93 C 64.47 385.05 64.24 386.42 62.95 386.85 C 62.29 387.07 61.93 386.71 62.15 386.05 Z M 296.50 386.00 C 296.16 385.45 296.58 385.00 297.44 385.00 C 298.30 385.00 299.00 385.45 299.00 386.00 C 299.00 386.55 298.58 387.00 298.06 387.00 C 297.54 387.00 296.84 386.55 296.50 386.00 Z M 373.91 384.25 C 373.44 380.25 374.36 362.28 375.07 361.55 C 375.64 360.97 376.00 365.29 376.00 372.80 C 376.00 380.27 375.61 385.00 375.00 385.00 C 374.45 385.00 373.96 384.66 373.91 384.25 Z M 57.54 381.79 C 56.68 379.18 56.47 347.00 57.32 347.00 C 57.80 347.00 59.44 347.89 60.97 348.98 C 67.62 353.72 77.57 355.92 92.50 355.96 C 117.99 356.04 139.96 352.14 153.50 345.13 C 162.58 340.43 173.69 329.57 177.32 321.83 C 181.70 312.51 183.00 305.70 183.00 292.19 C 183.00 275.19 180.56 267.09 171.92 255.39 C 167.11 248.89 162.54 245.11 154.70 241.18 C 142.64 235.14 132.79 232.68 114.00 231.03 C 89.42 228.87 75.50 230.12 64.44 235.50 C 59.18 238.05 57.71 238.42 57.28 237.29 C 56.57 235.45 57.47 198.20 58.24 197.43 C 58.56 197.10 59.82 197.37 61.03 198.02 C 62.73 198.92 64.23 198.92 67.58 197.98 C 69.97 197.31 72.64 197.03 73.51 197.36 C 75.95 198.30 73.63 201.70 70.01 202.50 C 68.35 202.86 67.00 203.57 67.00 204.08 C 67.00 205.35 70.39 205.23 73.41 203.86 C 75.32 202.99 76.63 203.02 78.97 203.99 C 81.44 205.01 82.90 205.01 86.55 203.98 C 89.86 203.06 91.72 203.01 93.43 203.79 C 95.16 204.58 96.91 204.50 100.14 203.49 C 104.30 202.20 104.35 202.13 101.33 202.07 C 99.59 202.03 97.43 201.72 96.54 201.38 C 95.10 200.82 95.14 200.59 96.88 199.37 C 98.30 198.38 99.55 198.26 101.36 198.95 C 102.94 199.55 105.08 199.55 107.18 198.95 C 111.44 197.73 113.28 197.74 112.50 199.00 C 112.16 199.55 112.43 200.00 113.11 200.00 C 115.84 200.00 112.80 201.31 109.85 201.40 C 106.17 201.52 104.55 204.01 108.17 203.99 C 111.77 203.97 115.04 202.87 114.43 201.89 C 114.13 201.40 114.60 201.00 115.47 201.00 C 116.35 201.00 117.45 199.99 117.93 198.75 C 118.84 196.39 119.51 197.19 120.20 201.49 C 120.65 204.27 124.00 204.79 124.00 202.07 C 124.00 200.93 124.50 200.00 125.11 200.00 C 125.72 200.00 125.95 200.67 125.64 201.50 C 125.24 202.54 125.71 203.00 127.15 203.00 C 128.90 203.00 129.04 202.75 128.00 201.50 C 126.94 200.22 127.24 200.00 130.07 200.00 C 133.12 200.00 133.24 200.11 131.50 201.37 C 129.67 202.71 129.68 202.76 131.59 203.37 C 132.67 203.71 141.86 203.98 152.02 203.97 C 162.19 203.96 171.18 203.99 172.00 204.04 C 172.82 204.10 175.97 204.03 179.00 203.90 C 189.42 203.45 188.54 198.40 188.23 257.15 C 188.08 285.39 187.90 325.27 187.83 345.77 L 187.70 383.04 L 185.62 382.38 C 182.33 381.33 61.73 381.14 59.74 382.17 C 58.51 382.80 57.84 382.69 57.54 381.79 Z M 198.52 381.03 C 198.20 380.51 197.99 359.25 198.06 333.79 C 198.13 308.33 198.08 285.70 197.96 283.50 C 197.84 281.30 197.78 278.82 197.82 278.00 C 198.33 268.56 198.45 205.78 197.96 204.40 C 197.34 202.63 197.27 202.63 196.25 204.54 C 195.66 205.64 194.86 208.22 194.48 210.27 C 194.09 212.32 193.38 214.00 192.89 214.00 C 191.49 214.00 191.83 206.22 193.25 205.75 C 194.22 205.42 194.20 204.96 193.13 203.66 C 192.37 202.75 191.27 202.00 190.68 202.00 C 189.98 202.00 190.02 202.42 190.80 203.20 C 193.17 205.57 191.94 206.01 189.00 203.84 C 187.35 202.62 186.00 201.07 186.00 200.40 C 186.00 199.72 185.44 198.97 184.75 198.72 C 184.06 198.47 183.83 197.92 184.23 197.49 C 184.63 197.07 185.58 197.24 186.35 197.87 C 187.12 198.51 188.41 198.78 189.21 198.47 C 190.02 198.16 191.26 198.60 191.96 199.45 C 192.67 200.30 193.88 201.00 194.66 201.00 C 195.69 201.00 195.51 200.39 194.01 198.79 C 192.88 197.57 192.16 196.01 192.42 195.34 C 192.74 194.53 192.31 194.32 191.20 194.74 C 189.78 195.27 189.70 195.12 190.74 193.85 C 191.42 193.00 191.69 192.02 191.32 191.66 C 190.96 191.30 191.16 191.00 191.76 191.00 C 192.49 191.00 192.67 189.16 192.29 185.50 L 191.72 180.00 L 196.11 179.84 C 198.52 179.76 205.14 179.65 210.81 179.59 L 221.13 179.50 L 222.90 183.50 C 226.22 190.98 221.98 190.50 284.74 190.50 L 341.17 190.50 L 343.59 187.69 C 344.91 186.15 346.00 183.83 346.00 182.53 C 346.00 181.23 346.44 180.02 346.98 179.83 C 347.52 179.65 354.60 179.72 362.72 180.00 C 375.94 180.45 377.51 180.69 377.82 182.31 C 378.01 183.30 377.84 184.88 377.45 185.81 C 376.84 187.23 376.61 187.10 375.99 185.00 C 375.46 183.20 375.26 183.99 375.30 187.80 C 375.32 190.71 375.72 193.32 376.17 193.61 C 377.99 194.73 376.91 197.00 374.56 197.00 C 373.22 197.00 371.82 197.48 371.46 198.07 C 370.48 199.65 371.75 200.45 373.26 199.20 C 373.98 198.60 375.13 198.46 375.82 198.89 C 377.58 199.98 376.21 203.02 374.28 202.28 C 373.20 201.86 372.92 202.11 373.36 203.09 C 373.71 203.87 374.28 205.29 374.62 206.25 C 374.96 207.21 375.63 208.00 376.12 208.00 C 376.60 208.00 377.00 209.38 377.00 211.06 C 377.00 212.84 376.58 213.86 376.00 213.50 C 375.45 213.16 375.00 213.36 375.00 213.94 C 375.00 214.52 374.55 215.00 374.00 215.00 C 373.45 215.00 373.00 213.45 373.00 211.56 C 373.00 208.33 371.57 206.10 370.30 207.36 C 369.99 207.67 369.68 246.76 369.61 294.21 L 369.48 380.50 L 363.99 381.08 C 354.29 382.10 199.15 382.06 198.52 381.03 Z M 21.23 380.18 C 20.22 379.53 19.97 361.70 19.99 293.07 C 20.00 245.61 20.26 206.38 20.57 205.89 C 21.47 204.43 45.72 204.77 46.14 206.25 C 46.34 206.94 46.27 246.42 46.00 294.00 L 45.50 380.50 L 34.00 380.75 C 27.68 380.89 21.93 380.63 21.23 380.18 Z M 376.19 358.50 C 376.22 356.85 376.44 356.30 376.69 357.27 C 376.95 358.24 376.93 359.59 376.66 360.27 C 376.38 360.95 376.17 360.15 376.19 358.50 Z M 375.08 354.42 C 375.13 353.25 375.36 353.01 375.68 353.81 C 375.97 354.53 375.94 355.40 375.60 355.73 C 375.27 356.06 375.04 355.47 375.08 354.42 Z M 374.00 348.50 C 374.00 346.74 374.42 346.22 375.50 346.64 C 376.32 346.95 377.00 347.79 377.00 348.50 C 377.00 349.21 376.32 350.05 375.50 350.36 C 374.42 350.78 374.00 350.26 374.00 348.50 Z M 191.54 344.75 C 191.13 341.86 190.82 338.60 190.83 337.50 C 190.85 336.40 190.85 330.55 190.82 324.50 C 190.80 318.45 190.84 312.60 190.91 311.50 C 190.98 310.40 191.18 294.20 191.37 275.50 C 191.79 233.67 191.78 234.00 193.00 234.00 C 193.55 234.00 194.00 235.71 194.00 237.80 C 194.00 239.89 194.52 242.12 195.16 242.76 C 196.01 243.61 196.02 244.27 195.21 245.25 C 193.85 246.89 193.72 269.71 195.06 270.54 C 195.58 270.86 196.00 271.57 196.00 272.12 C 196.00 272.67 195.55 272.84 195.00 272.50 C 194.38 272.11 194.00 274.09 194.00 277.74 C 194.00 280.96 193.48 284.12 192.84 284.76 C 191.97 285.63 191.98 286.28 192.92 287.40 C 193.77 288.43 194.13 292.88 194.06 301.70 C 194.01 308.74 194.18 319.68 194.44 326.00 C 194.95 338.23 194.25 350.00 193.02 350.00 C 192.61 350.00 191.95 347.64 191.54 344.75 Z M 77.00 343.41 C 66.63 339.52 64.08 338.13 60.78 334.54 L 57.05 330.50 L 57.05 293.00 L 57.05 255.50 L 60.34 252.00 C 67.15 244.75 77.96 240.99 91.96 241.01 C 117.20 241.04 140.42 245.48 152.54 252.58 C 168.94 262.19 176.68 284.20 171.15 305.51 C 168.50 315.69 166.26 319.83 160.04 326.02 C 147.14 338.87 132.93 342.96 99.00 343.59 C 87.72 343.80 77.83 343.71 77.00 343.41 Z M 373.71 340.26 C 373.09 337.01 373.89 335.22 375.11 337.14 C 376.24 338.93 376.24 343.00 375.12 343.00 C 374.63 343.00 374.00 341.77 373.71 340.26 Z M 376.00 331.54 C 376.00 330.07 375.74 329.97 374.50 331.00 C 373.28 332.02 373.00 331.96 373.00 330.68 C 373.00 329.82 373.44 328.85 373.97 328.52 C 374.50 328.19 374.67 326.59 374.34 324.96 C 374.01 323.28 374.18 322.00 374.74 322.00 C 375.74 322.00 377.34 331.99 376.48 332.86 C 376.21 333.12 376.00 332.53 376.00 331.54 Z M 374.02 311.69 C 374.01 309.40 374.40 308.13 375.00 308.50 C 376.26 309.28 376.26 312.04 375.00 314.00 C 374.28 315.11 374.03 314.52 374.02 311.69 Z M 372.00 305.06 C 372.00 303.99 372.45 302.84 373.00 302.50 C 373.57 302.15 374.00 302.99 374.00 304.44 C 374.00 305.85 373.55 307.00 373.00 307.00 C 372.45 307.00 372.00 306.13 372.00 305.06 Z M 374.00 297.37 C 374.00 295.19 373.50 292.90 372.90 292.30 C 371.58 290.98 372.55 284.00 374.38 281.49 C 375.40 280.10 375.61 281.62 375.55 289.83 C 375.50 295.35 375.14 300.20 374.73 300.60 C 374.33 301.00 374.00 299.55 374.00 297.37 Z M 194.00 285.50 C 194.00 284.68 194.45 284.00 195.00 284.00 C 195.55 284.00 196.00 284.68 196.00 285.50 C 196.00 286.32 195.55 287.00 195.00 287.00 C 194.45 287.00 194.00 286.32 194.00 285.50 Z M 375.97 277.25 C 375.94 274.90 375.79 274.75 374.92 276.25 C 374.36 277.21 373.47 278.00 372.95 278.00 C 371.79 278.00 371.68 274.32 372.81 273.62 C 373.26 273.34 373.58 261.43 373.52 247.15 C 373.46 232.87 373.77 220.36 374.22 219.34 C 374.77 218.11 374.89 218.69 374.61 221.09 C 374.37 223.06 374.58 225.31 375.07 226.09 C 375.72 227.11 375.97 226.68 375.98 224.55 C 376.00 222.22 376.26 221.86 377.22 222.82 C 378.12 223.72 378.16 224.51 377.38 225.77 C 376.67 226.91 376.37 236.42 376.51 253.75 C 376.63 268.19 376.56 280.00 376.36 280.00 C 376.16 280.00 375.99 278.76 375.97 277.25 Z M 375.68 250.81 C 375.36 250.01 375.13 250.25 375.08 251.42 C 375.04 252.47 375.27 253.06 375.60 252.73 C 375.94 252.40 375.97 251.53 375.68 250.81 Z M 192.00 226.12 C 192.00 223.99 191.75 220.73 191.44 218.88 C 190.89 215.52 190.90 215.52 192.32 218.00 C 193.10 219.38 194.05 222.64 194.43 225.25 C 195.00 229.18 194.85 230.00 193.56 230.00 C 192.41 230.00 192.00 228.97 192.00 226.12 Z M 352.50 203.55 C 356.35 203.47 360.40 203.28 361.50 203.14 L 363.50 202.87 L 361.50 202.11 C 360.40 201.69 355.90 201.50 351.50 201.69 C 347.10 201.88 342.38 202.08 341.00 202.13 C 339.62 202.19 336.79 201.95 334.69 201.60 C 331.97 201.15 330.26 201.43 328.69 202.58 C 326.61 204.11 326.77 204.16 332.00 203.59 C 335.19 203.24 338.13 203.42 339.00 204.02 C 339.82 204.58 341.62 204.75 343.00 204.38 C 344.38 204.01 348.65 203.64 352.50 203.55 Z M 370.00 204.00 C 370.00 203.45 369.21 203.01 368.25 203.02 C 366.75 203.03 366.72 203.17 368.00 204.00 C 369.89 205.22 370.00 205.22 370.00 204.00 Z M 219.46 201.93 C 219.14 201.42 217.97 201.00 216.86 201.00 C 215.68 201.00 215.01 200.48 215.25 199.75 C 215.84 197.98 219.10 197.55 220.07 199.11 C 220.71 200.16 221.26 200.07 222.77 198.71 C 224.84 196.83 231.00 196.36 231.00 198.08 C 231.00 198.75 232.10 198.92 233.90 198.52 C 235.59 198.15 237.09 198.33 237.47 198.96 C 238.42 200.49 240.02 199.22 239.35 197.47 C 239.03 196.64 237.51 196.00 235.86 196.00 C 234.25 196.00 231.49 195.43 229.72 194.73 C 227.70 193.93 222.22 193.50 215.00 193.57 C 200.09 193.73 199.45 193.47 198.60 187.04 C 197.78 180.83 196.00 181.30 196.00 187.73 C 196.00 190.46 195.38 193.03 194.47 194.03 C 193.11 195.54 193.11 195.84 194.47 196.98 C 195.76 198.05 196.00 197.91 196.00 196.12 C 196.00 194.96 196.45 194.00 197.00 194.00 C 197.55 194.00 198.00 194.85 198.00 195.89 C 198.00 198.21 200.33 199.27 201.94 197.67 C 202.85 196.77 203.36 196.91 204.11 198.25 C 204.66 199.21 205.59 200.00 206.19 200.00 C 206.79 200.00 207.86 199.21 208.58 198.25 C 209.81 196.59 209.97 196.59 211.69 198.29 C 213.23 199.81 213.29 200.20 212.05 200.97 C 211.25 201.46 210.20 201.63 209.73 201.33 C 208.53 200.59 199.86 201.97 200.38 202.81 C 200.61 203.19 205.13 203.36 210.42 203.18 C 216.02 203.00 219.79 202.47 219.46 201.93 Z M 292.50 203.00 C 292.85 202.43 292.01 202.00 290.56 202.00 C 289.15 202.00 288.00 202.45 288.00 203.00 C 288.00 203.55 288.87 204.00 289.94 204.00 C 291.01 204.00 292.16 203.55 292.50 203.00 Z M 319.00 202.99 C 319.00 202.49 316.19 202.04 312.75 202.01 C 309.31 201.97 305.60 201.88 304.50 201.79 C 300.11 201.46 296.50 202.03 297.79 202.85 C 299.58 203.99 319.00 204.11 319.00 202.99 Z M 66.00 202.12 C 66.00 201.05 61.99 199.89 60.83 200.61 C 59.01 201.73 60.17 203.00 63.00 203.00 C 64.65 203.00 66.00 202.60 66.00 202.12 Z M 80.00 201.50 C 80.00 200.68 79.30 200.00 78.44 200.00 C 77.57 200.00 77.18 199.52 77.55 198.91 C 77.92 198.31 79.16 198.07 80.31 198.37 C 81.46 198.67 82.99 198.42 83.72 197.82 C 84.45 197.21 85.36 197.03 85.75 197.41 C 86.13 197.80 85.78 198.53 84.97 199.04 C 83.80 199.78 83.78 199.97 84.87 199.98 C 85.98 200.00 86.00 200.29 85.00 201.50 C 84.32 202.32 82.91 203.00 81.88 203.00 C 80.84 203.00 80.00 202.32 80.00 201.50 Z M 223.73 202.40 C 223.40 202.06 222.53 202.03 221.81 202.32 C 221.01 202.64 221.25 202.87 222.42 202.92 C 223.47 202.96 224.06 202.73 223.73 202.40 Z M 229.73 202.40 C 229.40 202.06 228.53 202.03 227.81 202.32 C 227.01 202.64 227.25 202.87 228.42 202.92 C 229.47 202.96 230.06 202.73 229.73 202.40 Z M 236.25 202.34 C 235.56 202.06 234.44 202.06 233.75 202.34 C 233.06 202.62 233.62 202.84 235.00 202.84 C 236.38 202.84 236.94 202.62 236.25 202.34 Z M 245.50 202.00 C 245.16 201.45 244.01 201.00 242.94 201.00 C 241.87 201.00 241.00 201.45 241.00 202.00 C 241.00 202.55 242.15 203.00 243.56 203.00 C 245.01 203.00 245.85 202.57 245.50 202.00 Z M 273.00 202.09 C 271.08 200.99 258.28 200.03 254.72 200.71 C 248.54 201.89 252.72 203.00 263.25 202.97 C 269.99 202.95 273.90 202.60 273.00 202.09 Z M 283.50 202.00 C 282.71 200.73 277.97 200.73 276.00 202.00 C 274.92 202.70 275.84 202.97 279.31 202.98 C 282.26 202.99 283.88 202.61 283.50 202.00 Z M 136.51 201.02 C 136.24 200.58 136.63 199.72 137.38 199.10 C 138.40 198.25 139.02 198.32 139.89 199.37 C 140.80 200.46 140.62 200.87 139.02 201.28 C 137.91 201.57 136.78 201.46 136.51 201.02 Z M 157.00 201.00 C 155.90 200.29 156.57 200.05 159.50 200.09 C 162.64 200.13 163.07 200.32 161.50 201.00 C 158.87 202.13 158.75 202.13 157.00 201.00 Z M 166.24 201.19 C 164.99 201.01 164.23 200.44 164.54 199.93 C 164.86 199.42 163.52 199.00 161.56 199.00 C 159.60 199.00 158.00 198.55 158.00 198.00 C 158.00 196.31 164.99 196.82 165.66 198.55 C 165.99 199.41 167.21 200.04 168.38 199.94 C 172.28 199.64 175.00 199.99 175.00 200.80 C 175.00 201.61 170.43 201.81 166.24 201.19 Z M 177.66 201.25 C 177.41 200.84 178.27 199.71 179.56 198.74 C 181.82 197.04 181.95 197.05 182.96 198.92 C 183.53 199.99 184.00 201.12 184.00 201.43 C 184.00 202.28 178.19 202.12 177.66 201.25 Z M 88.46 199.45 C 90.60 197.84 92.15 197.96 92.77 199.81 C 93.02 200.57 91.97 200.99 89.83 200.97 C 86.67 200.94 86.60 200.86 88.46 199.45 Z M 149.81 200.32 C 150.53 200.03 151.40 200.06 151.73 200.40 C 152.06 200.73 151.47 200.96 150.42 200.92 C 149.25 200.87 149.01 200.64 149.81 200.32 Z M 197.50 199.00 C 197.84 198.45 197.64 198.00 197.06 198.00 C 196.48 198.00 196.00 198.45 196.00 199.00 C 196.00 199.55 196.20 200.00 196.44 200.00 C 196.68 200.00 197.16 199.55 197.50 199.00 Z M 246.39 199.18 C 246.66 198.73 245.57 197.58 243.95 196.63 C 240.60 194.65 240.22 195.07 242.72 197.99 C 244.57 200.15 245.59 200.48 246.39 199.18 Z M 364.00 199.00 C 362.88 198.28 363.45 198.03 366.21 198.02 C 368.83 198.00 370.23 197.44 370.94 196.10 C 371.89 194.33 371.44 194.18 363.73 193.80 C 359.20 193.58 351.68 193.77 347.00 194.23 C 342.32 194.69 333.25 195.17 326.83 195.29 C 320.42 195.40 314.83 195.84 314.42 196.25 C 313.59 197.08 316.71 197.32 325.00 197.07 C 328.02 196.98 332.54 197.30 335.04 197.78 C 337.87 198.33 340.17 198.30 341.13 197.69 C 342.19 197.02 344.08 197.19 347.09 198.23 C 352.07 199.94 366.48 200.60 364.00 199.00 Z M 124.00 198.00 C 124.00 197.45 124.70 197.00 125.56 197.00 C 126.42 197.00 126.84 197.45 126.50 198.00 C 126.16 198.55 125.46 199.00 124.94 199.00 C 124.42 199.00 124.00 198.55 124.00 198.00 Z M 172.50 198.00 C 172.84 197.45 174.33 197.01 175.81 197.02 C 177.91 197.03 178.17 197.24 177.00 198.00 C 175.02 199.28 171.71 199.28 172.50 198.00 Z M 263.42 197.36 C 264.20 195.30 263.54 194.58 261.56 195.34 C 260.68 195.68 260.28 196.58 260.62 197.46 C 261.39 199.47 262.62 199.42 263.42 197.36 Z M 356.50 198.00 C 356.84 197.45 357.54 197.00 358.06 197.00 C 358.58 197.00 359.00 197.45 359.00 198.00 C 359.00 198.55 358.30 199.00 357.44 199.00 C 356.58 199.00 356.16 198.55 356.50 198.00 Z M 274.60 195.80 C 272.60 194.68 270.16 195.86 272.05 197.03 C 272.75 197.46 273.97 197.56 274.77 197.26 C 275.99 196.79 275.96 196.56 274.60 195.80 Z M 289.45 196.13 C 288.93 195.66 286.25 195.60 283.50 196.00 L 278.50 196.73 L 284.45 196.87 C 287.86 196.94 289.99 196.63 289.45 196.13 Z M 297.73 196.40 C 297.40 196.06 296.53 196.03 295.81 196.32 C 295.01 196.64 295.25 196.87 296.42 196.92 C 297.47 196.96 298.06 196.73 297.73 196.40 Z M 309.50 196.00 C 309.16 195.45 307.11 195.00 304.94 195.00 C 302.77 195.00 301.00 195.45 301.00 196.00 C 301.00 196.55 303.05 197.00 305.56 197.00 C 308.34 197.00 309.88 196.61 309.50 196.00 Z M 375.00 194.56 C 375.00 194.32 374.55 193.84 374.00 193.50 C 373.45 193.16 373.00 193.36 373.00 193.94 C 373.00 194.52 373.45 195.00 374.00 195.00 C 374.55 195.00 375.00 194.80 375.00 194.56 Z M 373.39 188.75 C 372.56 183.94 372.17 183.00 371.03 183.00 C 369.91 183.00 369.63 187.87 370.61 190.42 C 370.94 191.29 371.83 192.00 372.58 192.00 C 373.57 192.00 373.80 191.11 373.39 188.75 Z M 260.09 168.31 L 199.68 167.98 L 200.35 110.24 C 200.72 78.48 201.31 45.23 201.66 36.34 C 202.27 20.94 202.40 20.16 204.40 19.84 C 205.56 19.65 243.40 19.73 288.50 20.00 L 370.50 20.50 L 370.39 24.50 C 370.33 26.70 370.16 53.92 370.01 85.00 C 369.86 116.08 369.46 147.47 369.12 154.77 L 368.50 168.04 L 344.50 168.33 C 331.30 168.49 293.31 168.48 260.09 168.31 Z" fill="none" stroke="rgba(255,255,255,0.92)" stroke-width="1.5" stroke-linejoin="round" fill-rule="evenodd"/>
</svg>
