<svg xmlns="http://www.w3.org/2000/svg" viewBox="0 0 100 100" width="100" height="100">
  <path d="M 0.00 50.00 L 0.00 0.00 L 50.00 0.00 L 100.00 0.00 L 100.00 50.00 L 100.00 100.00 L 50.00 100.00 L 0.00 100.00 L 0.00 50.00 Z M 96.00 50.00 L 96.00 4.00 L 93.00 4.00 L 90.00 4.00 L 90.00 16.50 L 90.00 29.00 L 47.00 29.00 L 4.00 29.00 L 4.00 32.00 L 4.00 35.00 L 47.05 35.00 L 90.10 35.00 L 89.80 40.75 L 89.50 46.50 L 46.75 46.76 L 4.00 47.02 L 4.00 50.01 L 4.00 53.00 L 47.00 53.00 L 90.00 53.00 L 90.00 64.00 L 90.00 75.00 L 47.00 75.00 L 4.00 75.00 L 4.00 78.00 L 4.00 81.00 L 47.00 81.00 L 90.00 81.00 L 90.00 85.50 L 90.00 90.00 L 75.25 90.15 C 67.14 90.23 47.79 90.22 32.25 90.13 L 4.00 89.96 L 4.00 92.98 L 4.00 96.00 L 50.00 96.00 L 96.00 96.00 L 96.00 50.00 Z" fill="none" stroke="rgba(255,255,255,0.92)" stroke-width="1.2" stroke-linejoin="round" fill-rule="evenodd"/>
</svg>
