<svg xmlns="http://www.w3.org/2000/svg" viewBox="0 0 385 400" width="385" height="400">
  <path d="M 0.00 200.00 L 0.00 0.00 L 192.50 0.00 L 385.00 0.00 L 385.00 200.00 L 385.00 400.00 L 192.50 400.00 L 0.00 400.00 L 0.00 200.00 Z M 109.32 390.84 C 143.87 390.70 172.31 390.31 172.51 389.98 C 172.71 389.65 177.52 389.52 183.19 389.68 C 204.65 390.30 245.67 390.89 309.15 391.50 C 362.87 392.02 374.95 391.89 375.63 390.82 C 376.09 390.09 376.58 361.82 376.72 328.00 C 376.86 294.18 376.98 266.05 376.99 265.50 C 377.00 264.95 376.77 245.15 376.49 221.50 C 376.21 197.85 376.05 177.38 376.12 176.00 C 376.27 173.40 376.27 172.45 376.14 165.00 C 376.06 160.13 376.07 156.49 376.21 121.00 C 376.27 108.07 376.35 77.92 376.41 54.00 L 376.50 10.50 L 312.50 9.87 C 197.50 8.75 70.11 8.20 39.71 8.69 L 9.91 9.18 L 10.38 58.34 C 10.63 85.38 10.88 108.62 10.92 110.00 C 10.96 111.38 10.95 128.70 10.89 148.50 C 10.81 179.15 11.63 295.78 12.43 367.50 C 12.56 379.05 13.00 389.25 13.41 390.17 C 14.07 391.65 15.97 391.79 30.33 391.46 C 39.22 391.26 74.77 390.98 109.32 390.84 Z M 24.69 386.36 C 23.89 385.56 24.80 384.00 26.06 384.00 C 26.58 384.00 27.00 384.68 27.00 385.50 C 27.00 387.05 25.82 387.49 24.69 386.36 Z M 49.50 386.00 C 49.16 385.45 49.56 385.00 50.38 385.00 C 51.21 385.00 52.16 385.45 52.50 386.00 C 52.84 386.55 52.44 387.00 51.62 387.00 C 50.79 387.00 49.84 386.55 49.50 386.00 Z M 370.50 386.00 C 370.84 385.45 371.32 385.00 371.56 385.00 C 371.80 385.00 372.00 385.45 372.00 386.00 C 372.00 386.55 371.52 387.00 370.94 387.00 C 370.36 387.00 370.16 386.55 370.50 386.00 Z M 288.61 381.28 C 288.24 380.91 223.26 379.61 210.75 379.72 L 199.00 379.83 L 198.85 375.17 C 198.77 372.60 198.56 358.57 198.39 344.00 C 198.23 329.43 198.06 316.38 198.03 315.00 C 198.00 313.62 197.94 301.25 197.89 287.50 C 197.72 238.57 197.26 210.46 196.58 207.96 L 195.89 205.41 L 219.69 205.78 C 232.79 205.99 249.57 206.37 257.00 206.64 C 269.34 207.08 280.13 207.25 343.28 208.00 C 362.74 208.23 364.13 208.37 365.11 210.20 C 366.33 212.49 366.36 213.05 366.20 236.50 C 366.13 246.40 366.05 267.55 366.01 283.50 C 365.97 299.45 365.92 313.40 365.90 314.50 C 365.89 315.60 365.90 324.60 365.93 334.50 C 365.97 344.40 365.96 356.86 365.90 362.19 C 365.85 367.51 366.09 372.33 366.43 372.89 C 366.78 373.45 366.40 375.51 365.58 377.46 L 364.10 381.00 L 334.80 381.09 C 318.69 381.14 301.75 381.25 297.17 381.34 C 292.58 381.43 288.73 381.40 288.61 381.28 Z M 22.90 380.00 C 22.77 379.37 21.96 300.31 21.60 253.00 C 21.45 233.47 21.54 214.90 21.81 211.73 L 22.29 205.96 L 29.89 205.97 C 50.48 206.01 75.69 205.26 77.26 204.56 C 78.23 204.13 79.58 204.21 80.26 204.75 C 80.96 205.30 86.06 205.56 92.00 205.34 C 97.78 205.13 103.40 204.96 104.50 204.97 C 105.60 204.98 108.30 204.95 110.50 204.91 C 112.70 204.86 115.29 204.85 116.25 204.88 C 117.21 204.90 119.80 204.91 122.00 204.89 C 124.20 204.87 127.35 204.89 129.00 204.93 C 130.65 204.97 133.46 205.00 135.25 205.00 C 137.04 205.00 148.46 204.99 160.64 204.98 C 184.84 204.97 188.63 205.57 187.35 209.25 C 186.92 210.49 186.61 212.62 186.66 214.00 C 186.94 222.22 188.23 352.25 188.10 360.50 C 188.02 366.00 187.98 372.41 188.02 374.75 L 188.08 379.00 L 183.29 379.10 C 146.83 379.82 23.00 380.52 22.90 380.00 Z M 192.00 374.50 C 192.00 373.68 192.18 373.00 192.39 373.00 C 192.61 373.00 193.05 373.68 193.36 374.50 C 193.68 375.32 193.50 376.00 192.97 376.00 C 192.44 376.00 192.00 375.32 192.00 374.50 Z M 370.00 375.06 C 370.00 374.54 370.45 373.84 371.00 373.50 C 371.55 373.16 372.00 373.58 372.00 374.44 C 372.00 375.30 371.55 376.00 371.00 376.00 C 370.45 376.00 370.00 375.58 370.00 375.06 Z M 16.67 359.33 C 15.64 358.31 15.88 354.19 17.00 353.50 C 17.60 353.13 18.00 354.32 18.00 356.44 C 18.00 360.10 17.82 360.49 16.67 359.33 Z M 194.08 349.42 C 194.13 348.25 194.36 348.01 194.68 348.81 C 194.97 349.53 194.94 350.40 194.60 350.73 C 194.27 351.06 194.04 350.47 194.08 349.42 Z M 193.41 339.51 C 193.75 338.14 193.47 336.12 192.78 335.01 C 191.76 333.39 191.77 332.60 192.79 330.96 C 193.49 329.84 193.82 328.52 193.52 328.03 C 193.21 327.54 193.42 326.86 193.98 326.51 C 194.64 326.10 195.00 328.74 195.00 333.94 C 195.00 339.17 194.61 342.00 193.89 342.00 C 193.21 342.00 193.02 341.04 193.41 339.51 Z M 371.23 337.00 C 371.23 335.07 371.44 334.29 371.69 335.25 C 371.94 336.21 371.94 337.79 371.69 338.75 C 371.44 339.71 371.23 338.93 371.23 337.00 Z M 16.50 338.00 C 16.84 337.45 17.32 337.00 17.56 337.00 C 17.80 337.00 18.00 337.45 18.00 338.00 C 18.00 338.55 17.52 339.00 16.94 339.00 C 16.36 339.00 16.16 338.55 16.50 338.00 Z M 17.16 333.00 C 17.16 331.62 17.38 331.06 17.66 331.75 C 17.94 332.44 17.94 333.56 17.66 334.25 C 17.38 334.94 17.16 334.38 17.16 333.00 Z M 17.16 297.00 C 17.16 295.62 17.38 295.06 17.66 295.75 C 17.94 296.44 17.94 297.56 17.66 298.25 C 17.38 298.94 17.16 298.38 17.16 297.00 Z M 369.00 249.06 C 369.00 248.54 369.45 247.84 370.00 247.50 C 370.55 247.16 371.00 247.58 371.00 248.44 C 371.00 249.30 370.55 250.00 370.00 250.00 C 369.45 250.00 369.00 249.58 369.00 249.06 Z M 371.16 241.00 C 371.16 239.62 371.38 239.06 371.66 239.75 C 371.94 240.44 371.94 241.56 371.66 242.25 C 371.38 242.94 371.16 242.38 371.16 241.00 Z M 370.08 237.42 C 370.13 236.25 370.36 236.01 370.68 236.81 C 370.97 237.53 370.94 238.40 370.60 238.73 C 370.27 239.06 370.04 238.47 370.08 237.42 Z M 190.43 215.67 C 189.91 214.32 191.53 209.00 192.47 209.00 C 192.75 209.00 192.92 210.80 192.83 213.00 C 192.68 216.92 191.44 218.30 190.43 215.67 Z M 15.08 207.42 C 15.13 206.25 15.36 206.01 15.68 206.81 C 15.97 207.53 15.94 208.40 15.60 208.73 C 15.27 209.06 15.04 208.47 15.08 207.42 Z M 191.54 206.07 C 191.23 205.56 191.42 204.86 191.98 204.51 C 192.54 204.16 193.00 204.58 193.00 205.44 C 193.00 207.20 192.40 207.46 191.54 206.07 Z M 210.50 202.00 C 210.16 201.45 210.33 201.00 210.88 201.00 C 211.43 201.00 212.16 201.45 212.50 202.00 C 212.84 202.55 212.67 203.00 212.12 203.00 C 211.57 203.00 210.84 202.55 210.50 202.00 Z M 240.54 202.07 C 239.86 200.96 241.44 199.77 242.36 200.69 C 243.31 201.64 243.13 203.00 242.06 203.00 C 241.54 203.00 240.86 202.58 240.54 202.07 Z M 192.02 200.48 C 192.72 199.64 193.49 199.16 193.74 199.41 C 194.44 200.10 193.03 202.00 191.82 202.00 C 191.16 202.00 191.23 201.43 192.02 200.48 Z M 217.75 201.34 C 218.44 201.06 219.56 201.06 220.25 201.34 C 220.94 201.62 220.38 201.84 219.00 201.84 C 217.62 201.84 217.06 201.62 217.75 201.34 Z M 40.00 200.00 C 40.00 199.45 40.67 199.00 41.50 199.00 C 42.33 199.00 43.00 199.45 43.00 200.00 C 43.00 200.55 42.33 201.00 41.50 201.00 C 40.67 201.00 40.00 200.55 40.00 200.00 Z M 152.00 199.00 C 152.00 198.45 152.70 198.00 153.56 198.00 C 154.42 198.00 154.84 198.45 154.50 199.00 C 154.16 199.55 153.46 200.00 152.94 200.00 C 152.42 200.00 152.00 199.55 152.00 199.00 Z M 320.67 197.36 C 320.58 197.29 303.18 196.89 282.00 196.48 C 260.82 196.08 236.75 195.56 228.50 195.33 C 220.25 195.10 211.32 194.96 208.65 195.01 C 200.89 195.17 198.21 194.25 197.55 191.18 C 197.23 189.71 196.92 179.28 196.85 168.00 C 196.79 156.72 196.38 145.75 195.94 143.62 C 195.51 141.47 195.57 138.64 196.08 137.30 C 197.09 134.63 195.58 130.52 193.95 131.53 C 193.43 131.85 193.00 130.93 193.00 129.49 C 193.00 127.15 192.83 127.02 191.50 128.36 C 190.68 129.18 190.00 130.23 190.00 130.69 C 190.00 131.15 189.19 132.02 188.21 132.64 C 186.54 133.68 186.42 135.93 186.51 163.88 C 186.57 180.45 186.37 194.01 186.06 194.02 C 183.58 194.13 30.37 195.15 26.58 195.08 C 23.87 195.03 21.53 194.86 21.36 194.70 C 21.20 194.53 21.08 189.70 21.11 183.95 C 21.19 163.14 20.79 151.48 19.95 149.91 C 19.44 148.95 19.52 147.88 20.16 147.24 C 21.69 145.71 20.23 134.89 18.03 131.55 L 16.22 128.79 L 16.36 135.30 C 16.44 138.88 16.84 141.60 17.25 141.35 C 17.66 141.09 18.00 141.54 18.00 142.35 C 18.00 143.25 17.33 143.64 16.25 143.35 C 14.79 142.97 14.49 141.66 14.44 135.45 C 14.40 131.35 14.69 128.00 15.08 128.00 C 15.47 128.00 15.37 126.14 14.86 123.87 C 14.35 121.60 14.15 119.51 14.42 119.24 C 14.88 118.79 20.00 129.11 20.00 130.48 C 20.00 130.81 20.45 131.63 21.00 132.29 C 21.56 132.96 23.90 136.43 26.21 140.00 C 28.52 143.57 34.48 150.61 39.46 155.63 C 52.53 168.83 62.11 174.46 80.23 179.58 C 88.33 181.87 91.30 182.19 103.66 182.14 C 115.74 182.09 119.17 181.70 127.03 179.49 C 148.63 173.42 168.49 158.89 180.04 140.72 C 182.21 137.30 184.71 133.60 185.60 132.50 C 187.36 130.32 190.11 124.38 190.47 122.00 C 190.85 119.42 192.34 120.36 193.22 123.75 C 193.68 125.54 194.43 127.00 194.89 127.00 C 195.35 127.00 197.20 129.81 199.02 133.25 C 211.15 156.26 235.64 175.70 260.50 182.05 C 273.00 185.24 290.23 185.69 302.26 183.13 C 318.87 179.61 334.10 171.64 346.31 160.08 C 352.32 154.39 360.52 143.92 363.40 138.25 C 365.37 134.38 367.00 134.04 367.00 137.50 C 367.00 138.88 366.64 140.00 366.21 140.00 C 365.77 140.00 365.54 152.58 365.69 167.95 C 365.90 189.24 365.67 196.09 364.73 196.70 C 363.78 197.32 321.39 197.95 320.67 197.36 Z M 15.00 194.00 C 15.00 193.45 15.48 193.00 16.06 193.00 C 16.64 193.00 16.84 193.45 16.50 194.00 C 16.16 194.55 15.68 195.00 15.44 195.00 C 15.20 195.00 15.00 194.55 15.00 194.00 Z M 192.00 189.44 C 192.00 188.58 192.46 188.16 193.02 188.51 C 193.58 188.86 193.77 189.56 193.46 190.07 C 192.60 191.46 192.00 191.20 192.00 189.44 Z M 14.50 186.01 C 13.63 183.25 15.10 181.00 16.10 183.57 C 16.52 184.63 16.89 186.06 16.93 186.75 C 17.04 188.75 15.20 188.19 14.50 186.01 Z M 190.00 182.50 C 190.00 181.68 190.66 181.00 191.47 181.00 C 192.36 181.00 192.71 181.59 192.36 182.50 C 192.05 183.32 191.38 184.00 190.89 184.00 C 190.40 184.00 190.00 183.32 190.00 182.50 Z M 192.07 174.75 C 192.13 172.03 192.28 171.82 193.00 173.50 C 194.19 176.26 194.19 178.00 193.00 178.00 C 192.45 178.00 192.03 176.54 192.07 174.75 Z M 15.49 173.98 C 15.04 172.54 15.26 171.45 16.14 170.90 C 17.10 170.30 17.60 170.66 17.83 172.14 C 18.32 175.20 16.37 176.73 15.49 173.98 Z M 263.50 171.16 C 247.00 166.88 234.38 159.41 222.50 146.88 C 213.91 137.81 208.66 130.02 204.49 120.09 C 197.86 104.34 197.72 103.19 197.25 61.75 L 196.83 24.00 L 233.92 24.00 C 254.31 24.00 271.00 24.19 271.00 24.42 C 271.00 24.65 269.88 27.07 268.51 29.80 C 266.35 34.09 266.13 35.39 266.89 39.47 C 267.38 42.06 268.28 44.68 268.89 45.29 C 271.89 48.29 269.72 48.50 238.56 48.21 L 207.11 47.92 L 205.94 50.10 C 205.10 51.68 204.92 58.90 205.30 75.89 C 205.76 96.95 206.08 100.42 208.25 108.05 C 215.96 135.11 235.33 155.57 261.40 164.20 C 271.01 167.38 290.08 167.82 300.88 165.11 C 322.68 159.63 342.82 142.28 350.71 122.16 C 356.99 106.16 357.93 99.04 357.33 72.00 C 356.77 46.81 360.23 49.12 322.88 49.03 C 306.86 48.99 293.39 48.74 292.94 48.46 C 292.49 48.19 293.01 45.96 294.09 43.52 C 296.34 38.45 296.00 35.66 292.33 29.24 C 289.39 24.08 290.11 23.53 298.69 24.38 C 301.86 24.69 317.77 24.99 334.04 25.05 C 350.31 25.10 364.20 25.51 364.91 25.95 C 366.87 27.16 365.80 96.73 363.67 106.66 C 358.29 131.73 341.31 153.78 318.61 165.20 C 306.89 171.09 302.40 172.09 285.50 172.56 C 273.27 172.89 269.21 172.64 263.50 171.16 Z M 90.00 170.30 C 84.85 169.41 73.47 165.73 68.08 163.21 C 47.60 153.65 31.05 133.27 24.41 109.45 C 21.52 99.10 21.02 91.16 20.71 51.40 L 20.50 24.31 L 56.29 23.62 C 75.97 23.24 92.52 23.20 93.06 23.54 C 93.63 23.89 92.93 25.48 91.45 27.24 C 89.10 30.03 88.89 30.95 89.34 36.42 C 89.61 39.76 89.98 43.48 90.17 44.68 C 90.50 46.85 90.35 46.87 71.00 47.37 C 60.27 47.65 46.90 47.91 41.29 47.94 C 31.84 48.00 30.98 48.17 29.90 50.18 C 29.10 51.68 28.78 59.37 28.89 74.93 C 29.03 95.11 29.30 98.53 31.45 107.23 C 38.10 134.04 59.00 155.70 85.00 162.74 C 93.74 165.10 112.06 165.08 121.00 162.69 C 142.15 157.05 158.90 143.41 168.74 123.83 C 176.43 108.51 177.37 103.12 177.19 75.00 C 177.04 51.31 176.97 50.44 174.91 48.75 C 172.99 47.17 169.90 47.00 143.39 47.00 C 127.23 47.00 114.02 46.66 114.04 46.25 C 114.05 45.84 114.71 44.38 115.50 43.00 C 116.29 41.62 116.95 39.05 116.96 37.27 C 117.00 33.62 114.25 26.00 112.89 26.00 C 112.40 26.00 112.00 25.32 112.00 24.50 C 112.00 23.19 116.65 23.00 147.88 23.00 C 175.36 23.00 184.00 23.29 184.78 24.25 C 186.11 25.87 186.25 81.21 184.95 93.50 C 182.71 114.73 176.42 129.49 163.62 143.60 C 150.62 157.93 136.78 165.69 116.50 170.05 C 112.45 170.92 94.58 171.09 90.00 170.30 Z M 191.57 166.33 C 191.22 165.42 191.40 164.20 191.97 163.63 C 192.68 162.92 193.00 163.44 193.00 165.30 C 193.00 168.38 192.50 168.75 191.57 166.33 Z M 14.99 161.75 C 14.98 160.51 14.69 158.38 14.35 157.00 C 13.88 155.12 14.02 154.77 14.90 155.59 C 16.56 157.12 17.57 164.00 16.13 164.00 C 15.51 164.00 14.99 162.99 14.99 161.75 Z M 371.08 157.42 C 371.13 156.25 371.36 156.01 371.68 156.81 C 371.97 157.53 371.94 158.40 371.60 158.73 C 371.27 159.06 371.04 158.47 371.08 157.42 Z M 276.11 154.92 C 272.59 154.46 267.67 153.39 265.18 152.54 C 262.68 151.70 259.99 151.00 259.18 151.00 C 255.92 151.00 239.81 139.61 234.06 133.24 C 221.09 118.88 216.16 103.12 216.04 75.70 L 215.97 58.91 L 243.24 59.59 C 258.23 59.96 270.64 60.39 270.82 60.53 C 270.99 60.68 271.28 63.55 271.46 66.92 C 271.65 70.36 272.51 74.13 273.42 75.52 C 274.87 77.74 275.73 78.00 281.49 78.00 C 289.38 78.00 290.24 76.89 289.90 67.19 L 289.66 60.50 L 317.08 60.86 C 332.16 61.07 344.86 61.56 345.31 61.97 C 346.23 62.82 346.31 91.01 345.40 98.48 C 344.22 108.13 339.34 120.32 333.82 127.38 C 331.72 130.06 330.00 132.76 330.00 133.38 C 330.00 134.76 321.10 142.53 315.25 146.25 C 309.75 149.75 300.75 152.78 290.53 154.58 C 286.11 155.36 282.50 155.94 282.50 155.87 C 282.50 155.80 279.62 155.37 276.11 154.92 Z M 89.48 151.59 C 73.73 148.00 60.61 138.80 51.05 124.62 C 47.03 118.66 41.46 104.48 40.59 98.00 C 39.63 90.84 39.14 67.91 39.85 63.22 L 40.50 58.95 L 67.00 58.91 L 93.50 58.88 L 93.50 65.40 C 93.50 73.25 94.81 74.96 101.68 76.08 C 105.57 76.71 106.98 76.52 109.00 75.08 C 111.24 73.48 111.53 72.49 111.79 65.60 L 112.09 57.90 L 138.43 58.32 C 152.91 58.55 165.21 59.01 165.75 59.35 C 167.37 60.34 167.21 88.51 165.54 98.09 C 161.09 123.61 145.30 142.35 121.64 150.19 C 113.75 152.80 97.83 153.49 89.48 151.59 Z M 191.20 150.80 C 189.54 149.14 189.70 147.33 191.50 147.33 C 192.40 147.33 193.00 148.26 193.00 149.67 C 193.00 152.34 192.84 152.44 191.20 150.80 Z M 15.00 148.44 C 15.00 147.58 15.45 147.16 16.00 147.50 C 16.55 147.84 17.00 148.54 17.00 149.06 C 17.00 149.58 16.55 150.00 16.00 150.00 C 15.45 150.00 15.00 149.30 15.00 148.44 Z M 368.46 131.75 C 369.24 129.96 370.22 127.15 370.63 125.50 L 371.39 122.50 L 371.77 125.39 C 372.15 128.19 369.32 135.00 367.79 135.00 C 367.37 135.00 367.67 133.54 368.46 131.75 Z M 286.26 113.54 C 297.97 108.64 299.09 91.66 288.07 86.04 C 280.17 82.01 271.48 84.17 267.98 91.04 C 265.58 95.74 265.51 98.21 267.59 104.32 C 269.24 109.15 272.76 112.49 277.79 114.01 C 281.71 115.19 282.38 115.16 286.26 113.54 Z M 111.02 109.97 C 113.72 108.61 114.93 107.08 116.25 103.35 C 118.70 96.42 117.10 90.23 111.51 85.00 C 109.29 82.92 107.85 82.50 103.00 82.50 C 96.13 82.50 92.97 84.74 89.77 91.85 C 87.36 97.23 87.95 101.25 91.98 106.81 C 94.26 109.95 95.88 111.08 99.21 111.81 C 103.97 112.87 105.85 112.57 111.02 109.97 Z M 278.61 101.70 C 275.25 99.25 278.59 94.14 282.55 95.66 C 283.60 96.06 284.01 97.27 283.80 99.37 C 283.46 102.87 281.44 103.78 278.61 101.70 Z M 101.20 99.80 C 99.55 98.15 99.69 94.06 101.42 93.39 C 103.48 92.60 107.00 94.77 107.00 96.84 C 107.00 98.82 105.17 101.00 103.50 101.00 C 102.90 101.00 101.86 100.46 101.20 99.80 Z" fill="none" stroke="rgba(255,255,255,0.92)" stroke-width="1.5" stroke-linejoin="round" fill-rule="evenodd"/>
</svg>
