<svg xmlns="http://www.w3.org/2000/svg" viewBox="0 0 100 100" width="100" height="100">
  <path d="M 0.00 50.00 L 0.00 0.00 L 50.00 0.00 L 100.00 0.00 L 100.00 50.00 L 100.00 100.00 L 50.00 100.00 L 0.00 100.00 L 0.00 50.00 Z M 10.81 80.84 L 10.42 65.68 L 12.46 68.55 C 23.19 83.63 36.69 91.00 53.56 91.00 C 70.37 91.00 84.25 83.83 93.36 70.42 C 95.65 67.06 96.00 65.53 95.96 59.02 L 95.93 51.50 L 93.97 56.94 C 88.48 72.21 75.63 82.58 59.10 85.08 C 52.85 86.03 50.61 85.93 44.60 84.48 C 35.32 82.24 30.77 79.84 24.49 73.90 C 13.56 63.56 11.03 55.38 11.01 30.29 L 11.00 12.09 L 29.51 11.79 C 45.69 11.54 47.93 11.69 47.28 13.00 C 46.88 13.82 46.58 16.63 46.62 19.23 L 46.70 23.95 L 31.10 24.23 L 15.50 24.50 L 15.52 39.00 C 15.53 52.61 15.70 53.85 18.21 59.25 C 32.28 89.45 74.20 90.02 88.33 60.20 C 91.36 53.80 91.51 52.86 91.82 39.25 C 92.08 28.09 91.86 24.90 90.82 24.55 C 90.10 24.31 82.86 23.89 74.75 23.62 C 66.63 23.36 59.93 22.99 59.85 22.82 C 59.77 22.64 60.03 21.48 60.42 20.24 C 60.86 18.86 60.53 16.77 59.57 14.84 C 58.71 13.11 58.00 11.65 58.00 11.60 C 58.00 11.54 66.55 11.65 77.00 11.83 L 96.00 12.16 L 96.00 8.08 L 96.00 4.00 L 50.43 4.00 L 4.86 4.00 L 5.35 49.75 C 5.61 74.91 5.87 95.61 5.92 95.75 C 5.96 95.89 7.17 96.00 8.60 96.00 L 11.20 96.00 L 10.81 80.84 Z M 7.50 93.00 C 7.16 92.45 7.36 92.00 7.94 92.00 C 8.52 92.00 9.00 92.45 9.00 93.00 C 9.00 93.55 8.80 94.00 8.56 94.00 C 8.32 94.00 7.84 93.55 7.50 93.00 Z M 8.08 86.42 C 8.13 85.25 8.36 85.01 8.68 85.81 C 8.97 86.53 8.94 87.40 8.60 87.73 C 8.27 88.06 8.04 87.47 8.08 86.42 Z M 8.08 80.42 C 8.13 79.25 8.36 79.01 8.68 79.81 C 8.97 80.53 8.94 81.40 8.60 81.73 C 8.27 82.06 8.04 81.47 8.08 80.42 Z M 47.79 75.95 C 37.09 74.19 26.96 65.86 23.16 55.70 C 21.22 50.52 19.81 36.43 20.74 31.56 L 21.23 29.00 L 35.24 29.00 L 49.25 29.00 L 48.67 31.88 C 47.84 36.04 49.82 38.23 54.04 37.83 C 57.34 37.52 57.51 37.30 57.81 33.22 L 58.12 28.95 L 72.31 29.22 L 86.50 29.50 L 86.36 40.00 C 86.19 51.84 84.74 57.04 79.79 63.48 C 72.38 73.13 59.97 77.97 47.79 75.95 Z M 7.68 71.25 C 7.45 70.84 7.61 69.60 8.05 68.50 C 8.76 66.75 8.87 66.85 8.93 69.25 C 9.00 71.96 8.53 72.71 7.68 71.25 Z M 7.46 64.25 C 7.76 63.47 8.01 62.31 8.02 61.67 C 8.03 60.21 9.96 63.07 9.98 64.58 C 9.99 65.18 9.31 65.67 8.46 65.67 C 7.54 65.67 7.13 65.09 7.46 64.25 Z M 59.00 54.00 C 63.29 49.71 59.60 41.00 53.50 41.00 C 50.24 41.00 46.00 45.14 46.00 48.32 C 46.00 49.65 46.93 51.92 48.07 53.37 C 50.67 56.67 56.02 56.98 59.00 54.00 Z M 52.66 50.32 C 52.30 49.96 52.00 49.07 52.00 48.33 C 52.00 46.84 54.58 46.51 55.43 47.89 C 56.11 48.99 53.56 51.23 52.66 50.32 Z" fill="none" stroke="rgba(255,255,255,0.92)" stroke-width="1.2" stroke-linejoin="round" fill-rule="evenodd"/>
</svg>
