<svg xmlns="http://www.w3.org/2000/svg" viewBox="0 0 100 100" width="100" height="100">
  <path d="M 0.00 50.00 L 0.00 0.00 L 50.00 0.00 L 100.00 0.00 L 100.00 50.00 L 100.00 100.00 L 50.00 100.00 L 0.00 100.00 L 0.00 50.00 Z M 95.04 95.25 C 95.07 94.84 95.32 74.58 95.59 50.24 C 96.00 14.51 95.84 5.90 94.80 5.57 C 94.08 5.35 73.36 4.92 48.75 4.62 L 4.00 4.07 L 4.00 8.03 L 4.00 12.00 L 22.53 12.00 L 41.05 12.00 L 39.56 14.88 C 38.48 16.97 38.32 18.62 38.97 20.88 L 39.86 24.00 L 23.54 24.00 C 10.43 24.00 7.11 24.28 6.67 25.41 C 5.44 28.62 7.25 51.54 9.14 56.61 C 13.13 67.35 21.62 76.44 31.52 80.57 C 54.31 90.10 80.45 76.18 84.99 52.11 C 86.45 44.31 86.30 27.49 84.75 26.23 C 84.06 25.67 76.41 25.05 67.76 24.85 C 59.10 24.66 52.01 24.42 52.01 24.32 C 52.00 24.21 52.46 22.93 53.02 21.45 C 53.79 19.44 53.66 18.03 52.52 15.73 C 51.68 14.06 51.00 12.54 51.00 12.35 C 51.00 11.81 61.34 11.94 76.34 12.66 L 90.00 13.31 L 90.00 30.02 C 90.00 39.21 89.54 49.15 88.99 52.11 C 87.46 60.21 83.29 67.84 76.86 74.28 C 70.20 80.96 62.96 84.65 53.44 86.23 C 35.53 89.20 15.50 78.70 7.13 61.95 L 4.00 55.68 L 4.00 62.28 L 4.00 68.89 L 9.75 75.11 C 12.91 78.53 17.76 82.78 20.52 84.55 C 41.78 98.18 71.59 93.21 85.50 73.71 C 87.70 70.62 89.72 68.07 90.00 68.05 C 90.28 68.02 90.35 74.30 90.17 82.00 L 89.85 96.00 L 92.42 96.00 C 93.84 96.00 95.02 95.66 95.04 95.25 Z M 39.00 76.63 C 26.93 73.99 16.65 63.79 13.48 51.31 C 11.61 43.90 11.78 29.44 13.75 29.60 C 14.44 29.66 20.85 29.77 28.00 29.85 L 41.00 30.00 L 41.00 32.92 C 41.00 37.93 41.89 39.00 46.04 39.00 C 50.28 39.00 51.33 37.51 50.46 32.75 L 49.96 30.00 L 61.23 30.01 C 67.43 30.02 74.19 30.30 76.25 30.64 L 80.00 31.26 L 80.00 39.53 C 80.00 59.40 70.70 72.74 54.15 76.64 C 47.47 78.21 46.23 78.21 39.00 76.63 Z M 92.08 64.42 C 92.13 63.25 92.36 63.01 92.68 63.81 C 92.97 64.53 92.94 65.40 92.60 65.73 C 92.27 66.06 92.04 65.47 92.08 64.42 Z M 50.70 55.50 C 55.24 52.32 54.06 44.11 48.82 42.44 C 44.96 41.22 40.30 42.85 39.05 45.87 C 35.91 53.46 44.03 60.17 50.70 55.50 Z M 44.00 49.43 C 44.00 48.50 44.68 47.99 45.67 48.18 C 48.18 48.66 48.52 51.00 46.08 51.00 C 44.85 51.00 44.00 50.35 44.00 49.43 Z" fill="none" stroke="rgba(255,255,255,0.92)" stroke-width="1.2" stroke-linejoin="round" fill-rule="evenodd"/>
</svg>
