<svg xmlns="http://www.w3.org/2000/svg" viewBox="0 0 100 100" width="100" height="100">
  <path d="M 0.00 50.00 L 0.00 0.00 L 50.00 0.00 L 100.00 0.00 L 100.00 50.00 L 100.00 100.00 L 50.00 100.00 L 0.00 100.00 L 0.00 50.00 Z M 12.31 81.66 C 12.65 73.78 12.65 65.62 12.31 63.53 C 11.96 61.39 12.09 59.91 12.60 60.15 C 13.09 60.38 14.77 61.20 16.32 61.98 C 18.55 63.09 19.55 63.14 21.06 62.19 C 22.11 61.54 23.20 61.00 23.49 61.00 C 23.77 61.00 24.00 67.71 24.00 75.92 C 24.00 84.12 24.27 91.55 24.61 92.42 C 25.56 94.90 47.74 94.67 55.20 92.10 C 66.21 88.32 73.95 81.40 78.82 71.00 C 81.06 66.22 81.41 64.13 81.45 55.00 C 81.49 45.64 81.21 43.88 78.82 38.78 C 75.08 30.80 68.06 23.65 60.13 19.74 C 53.63 16.54 53.39 16.50 39.03 16.50 L 24.50 16.50 L 24.00 33.50 C 23.73 42.85 23.14 49.94 22.69 49.25 C 21.71 47.73 17.58 47.62 14.93 49.04 C 13.87 49.60 12.97 49.94 12.94 49.79 C 12.90 49.63 12.62 40.93 12.31 30.47 L 11.75 11.43 L 31.25 11.66 C 47.61 11.86 51.64 12.21 56.29 13.84 C 73.69 19.96 85.09 35.96 85.17 54.37 C 85.20 63.83 83.06 71.19 78.09 78.62 C 73.26 85.85 71.12 87.88 63.56 92.43 L 57.62 96.00 L 63.80 96.00 L 69.98 96.00 L 76.26 89.75 C 95.12 70.98 95.97 41.64 78.23 21.91 C 75.88 19.29 71.94 15.88 69.48 14.33 C 67.02 12.77 65.00 11.24 65.00 10.92 C 65.00 10.60 66.13 9.73 67.52 8.99 C 69.46 7.95 70.31 7.91 71.22 8.82 C 72.62 10.22 76.00 10.40 76.00 9.07 C 76.00 8.54 80.32 8.25 86.00 8.39 C 93.74 8.58 96.00 8.34 96.00 7.32 C 96.00 5.80 95.41 5.76 76.50 5.97 C 68.80 6.05 49.56 6.21 33.75 6.31 C 17.94 6.41 5.00 6.84 5.00 7.25 C 5.00 7.66 5.00 27.80 5.00 52.00 L 5.00 96.00 L 8.34 96.00 L 11.69 96.00 L 12.31 81.66 Z M 30.42 88.08 C 30.19 87.85 30.00 81.44 30.00 73.83 L 30.00 60.00 L 32.92 60.00 C 37.38 60.00 39.00 59.02 39.00 56.33 C 39.00 52.00 37.25 50.00 33.46 50.00 L 30.00 50.00 L 30.00 35.75 L 30.00 21.50 L 41.75 22.07 C 51.77 22.55 54.23 23.02 58.50 25.23 C 67.57 29.94 73.40 37.63 75.50 47.65 C 77.97 59.49 74.89 70.19 66.75 78.01 C 59.65 84.84 53.43 87.26 41.30 87.93 C 35.54 88.24 30.65 88.31 30.42 88.08 Z M 52.01 62.00 C 56.01 62.00 57.46 52.63 53.95 49.45 C 51.59 47.32 45.91 47.00 43.66 48.87 C 41.18 50.92 40.59 55.73 42.47 58.59 C 44.26 61.33 47.72 63.13 49.83 62.44 C 50.56 62.20 51.54 62.00 52.01 62.00 Z M 47.67 56.33 C 47.30 55.97 47.00 55.07 47.00 54.33 C 47.00 52.56 49.64 52.62 50.32 54.40 C 51.13 56.51 49.23 57.89 47.67 56.33 Z" fill="none" stroke="rgba(255,255,255,0.92)" stroke-width="1.2" stroke-linejoin="round" fill-rule="evenodd"/>
</svg>
