<svg xmlns="http://www.w3.org/2000/svg" viewBox="0 0 100 100" width="100" height="100">
  <path d="M 0.00 50.00 L 0.00 0.00 L 50.00 0.00 L 100.00 0.00 L 100.00 50.00 L 100.00 100.00 L 50.00 100.00 L 0.00 100.00 L 0.00 50.00 Z M 7.12 94.25 C 7.23 92.58 7.25 92.58 7.69 94.25 C 8.55 97.53 10.00 96.01 10.08 91.75 C 10.40 74.15 10.23 72.00 8.50 72.00 C 7.59 72.00 7.00 71.07 7.00 69.62 C 7.00 68.32 6.75 65.73 6.45 63.87 L 5.89 60.50 L 7.41 63.77 C 8.24 65.57 8.67 67.82 8.37 68.77 C 7.91 70.18 8.00 70.24 8.84 69.05 C 9.67 67.88 10.21 68.25 11.68 71.01 C 14.52 76.33 23.52 85.42 28.75 88.25 C 36.80 92.61 44.33 94.29 53.41 93.76 C 69.21 92.82 80.29 85.98 90.00 71.16 C 91.37 69.06 91.50 70.02 91.50 82.43 C 91.50 95.84 91.53 96.00 93.75 96.00 L 96.00 96.00 L 96.00 50.49 L 96.00 4.98 L 50.25 5.24 L 4.50 5.50 L 4.61 10.00 C 4.67 12.48 4.80 32.84 4.89 55.25 C 5.00 80.68 5.43 96.00 6.03 96.00 C 6.57 96.00 7.05 95.21 7.12 94.25 Z M 38.95 86.59 C 24.43 81.06 15.34 71.07 11.53 56.47 C 10.42 52.19 10.00 45.45 10.00 31.83 L 10.00 13.09 L 27.59 12.79 C 37.26 12.63 45.35 12.68 45.58 12.91 C 45.80 13.13 45.49 13.91 44.89 14.63 C 44.29 15.36 43.96 17.99 44.15 20.48 L 44.51 25.00 L 30.84 25.00 C 23.32 25.00 16.45 25.27 15.58 25.61 C 13.30 26.48 13.36 47.54 15.67 56.72 C 20.21 74.81 35.31 85.88 53.95 84.80 C 63.41 84.25 70.01 80.96 77.02 73.29 C 84.50 65.10 86.30 59.38 86.79 42.22 C 87.08 31.95 86.85 27.52 85.97 26.47 C 85.01 25.30 81.79 25.00 70.38 25.00 C 62.47 25.00 56.00 24.75 56.00 24.43 C 56.00 24.12 56.46 23.01 57.02 21.96 C 57.76 20.57 57.63 19.04 56.52 16.40 C 55.69 14.40 55.00 12.70 55.00 12.63 C 55.00 12.56 63.10 12.63 73.00 12.79 L 91.00 13.09 L 90.98 32.29 C 90.96 42.86 90.50 53.47 89.94 55.89 C 87.10 68.19 78.81 79.00 68.21 84.22 C 62.27 87.15 60.53 87.52 52.03 87.72 C 45.91 87.87 41.23 87.46 38.95 86.59 Z M 7.67 85.33 C 7.30 84.97 7.00 82.42 7.00 79.67 C 7.00 73.40 8.28 74.38 8.78 81.03 C 9.15 85.94 8.97 86.63 7.67 85.33 Z M 93.35 77.90 C 93.32 72.83 93.38 72.70 94.31 75.76 C 94.94 77.85 94.95 79.79 94.34 81.16 C 93.59 82.85 93.38 82.17 93.35 77.90 Z M 46.36 78.90 C 39.03 77.97 31.43 73.50 26.98 67.51 C 21.17 59.67 19.58 54.27 19.54 42.05 L 19.50 31.50 L 32.75 31.22 L 46.00 30.94 L 46.02 34.22 C 46.04 38.94 47.18 40.20 51.10 39.82 C 54.32 39.52 54.52 39.28 54.81 35.25 L 55.11 31.00 L 68.68 31.00 L 82.25 31.00 L 81.81 42.75 C 81.43 52.95 81.00 55.32 78.55 60.75 C 72.56 74.00 60.64 80.73 46.36 78.90 Z M 92.50 67.00 C 92.84 66.45 93.32 66.00 93.56 66.00 C 93.80 66.00 94.00 66.45 94.00 67.00 C 94.00 67.55 93.52 68.00 92.94 68.00 C 92.36 68.00 92.16 67.55 92.50 67.00 Z M 55.69 56.81 C 59.02 54.15 57.50 45.17 53.46 43.62 C 47.02 41.15 41.58 48.61 45.07 55.12 C 46.98 58.70 52.26 59.54 55.69 56.81 Z M 49.69 52.35 C 48.31 50.98 49.03 48.86 50.75 49.19 C 51.71 49.38 52.50 50.16 52.50 50.93 C 52.50 52.51 50.74 53.40 49.69 52.35 Z" fill="none" stroke="rgba(255,255,255,0.92)" stroke-width="1.2" stroke-linejoin="round" fill-rule="evenodd"/>
</svg>
