<svg xmlns="http://www.w3.org/2000/svg" viewBox="0 0 400 283" width="400" height="283">
  <path d="M 0.00 141.50 L 0.00 0.00 L 200.00 0.00 L 400.00 0.00 L 400.00 141.50 L 400.00 283.00 L 200.00 283.00 L 0.00 283.00 L 0.00 141.50 Z M 264.95 276.56 C 265.80 275.54 266.02 258.40 265.80 211.92 C 265.55 158.75 265.28 148.59 264.10 148.20 C 263.09 147.86 262.85 148.33 263.25 149.83 C 263.55 150.98 263.22 152.41 262.51 152.99 C 261.51 153.82 261.13 153.28 260.82 150.61 C 260.44 147.35 260.60 147.15 263.80 146.78 C 265.66 146.56 295.59 146.26 330.32 146.10 C 365.06 145.95 393.76 145.65 394.11 145.43 C 394.47 145.21 394.77 129.16 394.79 109.77 C 394.82 90.37 394.90 59.65 394.98 41.50 C 395.11 10.34 395.02 8.49 393.31 8.30 C 392.31 8.19 336.15 7.88 268.50 7.63 C 200.85 7.37 114.41 6.89 76.41 6.57 L 7.32 5.97 L 6.66 31.65 C 6.30 45.77 6.00 77.09 6.00 101.25 L 6.00 145.18 L 39.85 144.84 C 63.34 144.60 74.12 144.15 75.10 143.35 C 77.45 141.44 83.87 140.10 87.75 140.73 C 90.75 141.22 91.06 141.47 89.46 142.09 C 88.38 142.52 85.70 142.95 83.50 143.05 L 79.50 143.25 L 84.00 143.98 C 86.47 144.38 97.90 144.76 109.39 144.83 C 120.88 144.89 130.46 145.12 130.68 145.35 C 130.90 145.57 131.06 175.06 131.02 210.88 C 130.99 246.69 131.08 276.01 131.23 276.02 C 131.38 276.03 147.25 276.31 166.50 276.65 C 185.75 276.98 201.60 277.34 201.73 277.44 C 201.85 277.54 215.87 277.69 232.88 277.78 C 258.12 277.91 264.02 277.68 264.95 276.56 Z M 164.83 269.04 C 151.26 268.74 139.86 268.20 139.49 267.83 C 139.13 267.46 138.75 239.82 138.66 206.40 L 138.50 145.63 L 195.50 145.98 C 226.85 146.17 253.79 146.37 255.36 146.42 L 258.23 146.50 L 258.16 207.50 C 258.13 241.05 258.08 268.84 258.05 269.25 C 258.00 270.05 205.47 269.93 164.83 269.04 Z M 260.50 267.00 C 260.84 266.45 261.54 266.00 262.06 266.00 C 262.58 266.00 263.00 266.45 263.00 267.00 C 263.00 267.55 262.30 268.00 261.44 268.00 C 260.58 268.00 260.16 267.55 260.50 267.00 Z M 261.07 250.25 C 261.13 247.81 261.24 247.73 262.00 249.50 C 263.17 252.23 263.17 253.00 262.00 253.00 C 261.45 253.00 261.03 251.76 261.07 250.25 Z M 135.08 225.42 C 135.13 224.25 135.36 224.01 135.68 224.81 C 135.97 225.53 135.94 226.40 135.60 226.73 C 135.27 227.06 135.04 226.47 135.08 225.42 Z M 135.08 220.42 C 135.13 219.25 135.36 219.01 135.68 219.81 C 135.97 220.53 135.94 221.40 135.60 221.73 C 135.27 222.06 135.04 221.47 135.08 220.42 Z M 261.00 179.73 C 261.00 178.29 261.47 176.83 262.04 176.48 C 262.72 176.05 262.85 176.81 262.40 178.67 C 261.48 182.50 261.00 182.86 261.00 179.73 Z M 261.00 168.56 C 261.00 167.70 261.45 167.00 262.00 167.00 C 262.55 167.00 263.00 167.42 263.00 167.94 C 263.00 168.46 262.55 169.16 262.00 169.50 C 261.45 169.84 261.00 169.42 261.00 168.56 Z M 135.08 158.42 C 135.13 157.25 135.36 157.01 135.68 157.81 C 135.97 158.53 135.94 159.40 135.60 159.73 C 135.27 160.06 135.04 159.47 135.08 158.42 Z M 255.55 143.09 C 255.23 142.56 255.39 141.87 255.91 141.55 C 256.44 141.23 257.13 141.39 257.45 141.91 C 257.77 142.44 257.61 143.13 257.09 143.45 C 256.56 143.77 255.87 143.61 255.55 143.09 Z M 88.00 137.50 C 89.29 136.12 90.76 135.00 91.26 135.00 C 92.88 135.00 103.40 126.22 107.07 121.80 C 123.02 102.62 128.21 74.71 120.13 51.56 C 115.25 37.57 108.05 27.22 97.89 19.58 C 94.67 17.16 91.47 14.92 90.77 14.59 C 89.76 14.12 89.75 13.88 90.76 13.41 C 91.45 13.09 91.76 12.42 91.45 11.91 C 91.14 11.41 91.33 11.00 91.88 11.00 C 92.43 11.00 93.16 11.46 93.51 12.01 C 93.85 12.57 98.24 13.04 103.32 13.07 C 108.37 13.09 114.08 13.23 116.00 13.38 C 117.92 13.53 122.53 13.74 126.23 13.83 L 132.96 14.00 L 132.43 46.25 C 132.14 63.99 131.78 91.78 131.64 108.00 L 131.39 137.50 L 111.55 137.23 C 95.16 137.01 91.30 137.23 89.39 138.48 C 85.94 140.74 85.35 140.32 88.00 137.50 Z M 176.75 138.25 L 139.00 137.98 L 138.93 125.24 C 138.89 118.23 138.98 102.60 139.13 90.50 C 139.27 78.40 139.42 56.22 139.45 41.20 L 139.50 13.90 L 198.50 14.52 C 239.97 14.95 257.05 14.83 256.00 14.08 C 254.90 13.31 254.85 13.03 255.81 13.02 C 256.53 13.01 256.80 12.49 256.42 11.87 C 256.00 11.18 256.27 10.92 257.11 11.21 C 258.27 11.59 258.51 19.98 258.55 62.09 C 258.57 89.81 258.41 118.46 258.18 125.75 L 257.76 139.00 L 236.13 138.76 C 224.23 138.63 197.51 138.40 176.75 138.25 Z M 266.36 135.31 C 265.99 133.83 265.98 114.82 266.34 93.06 C 266.70 71.30 266.99 45.06 267.00 34.75 L 267.00 16.00 L 327.00 16.00 L 387.00 16.00 L 386.99 74.75 C 386.98 107.06 386.70 134.51 386.37 135.75 L 385.77 138.00 L 326.40 138.00 L 267.04 138.00 L 266.36 135.31 Z M 16.00 109.53 C 16.00 85.53 16.19 82.14 17.50 82.64 C 18.32 82.95 19.00 83.60 19.00 84.06 C 19.00 85.61 26.04 86.30 28.83 85.03 C 30.30 84.36 31.71 83.97 31.97 84.16 C 32.23 84.35 32.31 94.48 32.14 106.67 C 31.83 128.83 31.83 128.84 34.10 130.05 C 37.34 131.79 67.82 130.68 74.34 128.59 C 95.18 121.92 109.93 102.15 111.72 78.51 C 113.76 51.60 96.42 27.18 71.30 21.60 C 63.05 19.77 38.03 19.38 34.93 21.04 C 33.11 22.01 33.00 23.35 33.00 44.64 C 33.00 65.74 32.89 67.17 31.25 66.51 C 27.09 64.83 22.00 64.77 19.56 66.37 C 18.19 67.27 16.86 68.00 16.61 68.00 C 16.36 68.00 16.38 55.96 16.66 41.25 L 17.17 14.50 L 43.84 14.54 L 70.50 14.57 L 78.50 17.79 C 101.93 27.22 116.09 48.50 116.24 74.50 C 116.31 85.39 114.33 93.58 108.98 104.64 C 105.76 111.32 103.62 114.10 97.12 120.14 C 81.58 134.58 73.39 136.96 39.25 136.98 L 16.00 137.00 L 16.00 109.53 Z M 336.57 132.92 C 352.65 130.01 369.75 116.72 376.92 101.58 C 381.89 91.09 383.50 75.32 380.90 62.80 C 377.79 47.87 365.64 33.17 350.27 25.75 C 320.71 11.46 284.25 27.70 273.36 60.00 C 271.92 64.24 271.51 68.36 271.55 78.00 C 271.60 89.39 271.86 91.12 274.47 97.50 C 285.05 123.39 310.16 137.71 336.57 132.92 Z M 320.50 124.90 C 304.26 123.08 290.75 113.06 283.19 97.23 C 279.59 89.70 279.50 89.21 279.52 78.00 C 279.54 64.94 280.40 61.54 286.24 51.72 C 291.20 43.36 297.12 38.04 306.71 33.30 C 313.38 30.00 315.00 29.63 324.39 29.21 C 333.10 28.82 335.85 29.10 341.87 30.96 C 358.98 36.25 372.35 53.02 374.33 71.64 C 375.18 79.62 373.34 89.69 369.62 97.50 C 360.40 116.81 341.64 127.27 320.50 124.90 Z M 40.67 122.33 C 40.30 121.97 40.00 112.74 40.00 101.83 L 40.00 82.00 L 45.48 82.00 C 50.40 82.00 51.02 81.76 51.55 79.65 C 51.87 78.36 52.00 75.55 51.82 73.40 L 51.50 69.50 L 46.52 69.19 C 43.78 69.01 41.24 68.38 40.87 67.79 C 40.50 67.20 40.37 58.11 40.56 47.60 L 40.93 28.50 L 54.71 28.51 C 70.53 28.52 76.11 29.89 84.66 35.90 C 104.50 49.83 110.13 78.32 97.30 99.93 C 90.39 111.57 78.52 119.90 65.91 121.94 C 58.76 123.10 41.70 123.37 40.67 122.33 Z M 135.08 116.42 C 135.13 115.25 135.36 115.01 135.68 115.81 C 135.97 116.53 135.94 117.40 135.60 117.73 C 135.27 118.06 135.04 117.47 135.08 116.42 Z M 336.02 92.84 C 341.89 89.59 344.50 84.74 344.49 77.07 C 344.48 68.95 341.76 63.94 335.66 60.83 C 322.87 54.30 309.00 62.71 309.00 76.99 C 309.00 84.05 311.04 88.24 316.21 91.80 C 322.87 96.38 329.03 96.70 336.02 92.84 Z M 73.75 82.28 C 77.57 77.54 76.58 68.87 71.92 66.46 C 64.89 62.82 57.84 66.01 56.44 73.46 C 55.56 78.15 57.04 81.43 61.23 84.05 C 65.59 86.78 70.70 86.05 73.75 82.28 Z M 64.70 77.37 C 64.32 76.98 64.00 75.81 64.00 74.76 C 64.00 73.36 64.59 72.95 66.25 73.18 C 67.72 73.39 68.50 74.19 68.50 75.49 C 68.50 77.47 66.03 78.69 64.70 77.37 Z M 219.75 13.34 C 220.44 13.06 221.56 13.06 222.25 13.34 C 222.94 13.62 222.38 13.84 221.00 13.84 C 219.62 13.84 219.06 13.62 219.75 13.34 Z M 225.08 13.64 C 226.21 12.66 234.09 12.04 233.51 12.98 C 233.17 13.54 231.03 14.00 228.77 14.00 C 226.52 14.00 224.85 13.84 225.08 13.64 Z M 240.50 13.28 C 241.60 13.01 243.01 12.37 243.63 11.87 C 244.37 11.27 244.97 11.48 245.35 12.47 C 245.82 13.68 245.17 13.98 242.22 13.88 C 240.06 13.82 239.34 13.56 240.50 13.28 Z" fill="none" stroke="rgba(255,255,255,0.92)" stroke-width="1.5" stroke-linejoin="round" fill-rule="evenodd"/>
</svg>
