<svg xmlns="http://www.w3.org/2000/svg" viewBox="0 0 100 100" width="100" height="100">
  <path d="M 0.00 50.00 L 0.00 0.00 L 50.00 0.00 L 100.00 0.00 L 100.00 50.00 L 100.00 100.00 L 50.00 100.00 L 0.00 100.00 L 0.00 50.00 Z M 12.00 77.08 L 12.00 58.15 L 15.03 59.66 C 17.41 60.85 18.72 60.94 21.18 60.09 C 22.89 59.49 24.34 59.00 24.40 59.00 C 24.45 59.00 24.37 66.20 24.20 75.01 L 23.90 91.01 L 26.32 91.93 C 29.67 93.21 50.39 92.19 56.63 90.45 C 62.39 88.84 72.58 81.81 75.89 77.16 C 83.53 66.43 85.91 52.47 82.04 41.08 C 77.30 27.10 67.31 18.11 53.20 15.12 C 47.15 13.84 28.13 13.63 26.24 14.83 C 25.33 15.41 24.96 19.89 24.87 31.16 L 24.75 46.69 L 20.12 46.62 C 17.58 46.58 14.73 46.91 13.80 47.36 C 12.22 48.12 12.11 46.76 12.30 29.09 L 12.50 10.00 L 31.00 10.03 C 41.17 10.04 51.47 10.50 53.89 11.06 C 66.45 13.96 77.76 23.06 83.27 34.68 C 86.34 41.15 86.50 42.08 86.47 53.00 C 86.44 63.97 86.28 64.82 83.10 71.35 C 77.68 82.47 67.96 90.96 56.50 94.60 L 52.50 95.87 L 60.08 95.93 C 66.93 95.99 68.10 95.70 72.32 92.91 C 87.70 82.72 96.21 60.64 91.92 42.03 C 89.29 30.61 81.27 18.91 71.93 12.86 C 69.20 11.09 67.38 9.38 67.88 9.07 C 68.39 8.76 74.59 8.78 81.65 9.13 C 88.72 9.47 94.84 9.56 95.25 9.32 C 95.66 9.08 96.00 8.01 96.00 6.94 C 96.00 5.15 95.21 5.00 85.75 4.95 C 80.11 4.93 59.81 4.79 40.64 4.65 C 16.91 4.48 5.68 4.73 5.45 5.45 C 5.27 6.03 4.96 26.64 4.78 51.25 L 4.44 96.00 L 8.22 96.00 L 12.00 96.00 L 12.00 77.08 Z M 30.75 86.45 C 30.34 86.02 30.00 79.47 30.00 71.89 L 30.00 58.11 L 34.25 57.81 C 38.47 57.50 38.50 57.47 38.80 53.31 L 39.11 49.12 L 34.80 48.81 L 30.50 48.50 L 30.50 34.25 L 30.50 20.00 L 40.07 20.00 C 45.94 20.00 51.72 20.62 55.04 21.60 C 72.09 26.67 81.21 43.38 76.96 61.78 C 74.81 71.13 65.59 81.06 55.80 84.61 C 51.12 86.31 31.96 87.71 30.75 86.45 Z M 55.25 58.23 C 57.65 56.12 57.51 50.51 55.00 48.00 C 52.02 45.02 46.67 45.33 44.07 48.63 C 41.38 52.05 41.44 55.15 44.25 57.70 C 48.19 61.28 51.58 61.45 55.25 58.23 Z M 48.00 53.00 C 48.00 51.49 48.52 50.95 49.75 51.19 C 50.71 51.38 51.50 52.19 51.50 53.00 C 51.50 53.81 50.71 54.62 49.75 54.81 C 48.52 55.05 48.00 54.51 48.00 53.00 Z" fill="none" stroke="rgba(255,255,255,0.92)" stroke-width="1.2" stroke-linejoin="round" fill-rule="evenodd"/>
</svg>
