<svg xmlns="http://www.w3.org/2000/svg" viewBox="0 0 219 400" width="219" height="400">
  <path d="M 0.01 200.00 L -0.02 0.00 L 109.49 0.00 L 219.00 0.00 L 219.00 200.00 L 219.00 400.00 L 109.52 400.00 L 0.04 400.00 L 0.01 200.00 Z M 45.50 391.06 C 94.24 388.21 126.28 387.33 161.00 387.87 C 178.88 388.15 197.55 388.41 202.50 388.44 L 211.50 388.50 L 211.27 268.50 C 211.14 202.50 211.06 117.73 211.10 80.11 C 211.16 24.13 210.93 11.57 209.83 10.88 C 208.31 9.91 43.58 9.91 23.00 10.87 L 9.50 11.50 L 9.77 40.00 C 10.20 86.58 11.21 123.00 12.06 123.00 C 12.50 123.00 13.03 122.21 13.25 121.25 C 13.51 120.15 14.08 120.98 14.80 123.52 C 15.88 127.27 21.32 136.89 23.01 138.00 C 23.42 138.28 24.87 140.47 26.21 142.87 C 41.07 169.41 76.32 188.02 111.69 187.99 C 146.01 187.97 177.43 171.96 194.11 145.99 C 198.10 139.77 200.60 137.26 201.69 138.36 C 201.92 138.58 201.60 141.63 200.99 145.13 C 199.83 151.84 200.25 190.33 201.56 197.30 C 202.25 200.95 202.18 201.08 199.89 200.52 C 193.47 198.95 83.12 199.52 33.75 201.39 L 23.00 201.79 L 22.83 185.65 C 22.57 160.77 22.47 158.01 21.57 150.38 C 20.84 144.11 20.51 143.32 18.87 143.74 C 17.33 144.15 17.00 143.67 17.00 141.01 L 17.00 137.78 L 18.97 140.14 C 20.68 142.20 20.94 142.26 20.97 140.68 C 20.99 139.68 20.28 138.14 19.41 137.27 C 18.09 135.95 17.67 135.91 16.98 137.04 C 16.37 138.02 15.96 137.58 15.50 135.45 C 13.73 127.27 12.54 124.07 11.78 125.43 C 11.35 126.20 10.96 127.89 10.92 129.17 C 10.73 135.22 12.06 249.34 12.57 271.00 C 13.66 317.33 14.00 337.55 14.09 361.00 C 14.14 376.13 14.55 384.96 15.24 385.79 C 16.01 386.72 15.99 387.41 15.16 388.24 C 14.52 388.88 14.00 390.26 14.00 391.31 C 14.00 393.07 14.57 393.18 21.25 392.64 C 25.24 392.32 36.15 391.61 45.50 391.06 Z M 26.81 385.32 C 27.53 385.03 28.40 385.06 28.73 385.40 C 29.06 385.73 28.47 385.96 27.42 385.92 C 26.25 385.87 26.01 385.64 26.81 385.32 Z M 67.75 383.34 C 68.44 383.06 69.56 383.06 70.25 383.34 C 70.94 383.62 70.38 383.84 69.00 383.84 C 67.62 383.84 67.06 383.62 67.75 383.34 Z M 25.56 381.85 C 25.30 381.11 24.85 353.73 24.56 321.00 C 24.26 288.27 23.80 250.83 23.53 237.80 C 23.23 223.36 23.41 213.87 23.99 213.51 C 24.51 213.19 30.24 212.71 36.72 212.45 C 43.20 212.19 58.85 211.54 71.50 211.00 C 84.15 210.46 118.35 210.17 147.50 210.35 L 200.50 210.68 L 200.56 215.59 C 200.59 218.29 200.75 224.55 200.92 229.50 C 201.08 234.45 201.19 252.90 201.16 270.50 C 201.12 288.10 201.09 319.60 201.09 340.50 L 201.09 378.50 L 188.79 378.00 C 165.90 377.07 106.62 377.52 83.50 378.81 C 44.17 380.99 29.12 382.02 27.54 382.62 C 26.70 382.94 25.81 382.60 25.56 381.85 Z M 174.81 382.32 C 175.53 382.03 176.40 382.06 176.73 382.40 C 177.06 382.73 176.47 382.96 175.42 382.92 C 174.25 382.87 174.01 382.64 174.81 382.32 Z M 19.08 346.42 C 19.13 345.25 19.36 345.01 19.68 345.81 C 19.97 346.53 19.94 347.40 19.60 347.73 C 19.27 348.06 19.04 347.47 19.08 346.42 Z M 19.00 321.00 C 19.00 320.45 19.45 320.00 20.00 320.00 C 20.55 320.00 21.00 320.45 21.00 321.00 C 21.00 321.55 20.55 322.00 20.00 322.00 C 19.45 322.00 19.00 321.55 19.00 321.00 Z M 206.00 293.00 C 206.00 292.45 206.45 292.00 207.00 292.00 C 207.55 292.00 208.00 292.45 208.00 293.00 C 208.00 293.55 207.55 294.00 207.00 294.00 C 206.45 294.00 206.00 293.55 206.00 293.00 Z M 205.61 281.17 C 204.98 280.16 205.99 276.00 206.87 276.00 C 207.21 276.00 207.55 277.35 207.61 279.00 C 207.71 281.86 206.70 282.95 205.61 281.17 Z M 205.00 268.94 C 205.00 268.36 205.45 268.16 206.00 268.50 C 206.55 268.84 207.00 269.32 207.00 269.56 C 207.00 269.80 206.55 270.00 206.00 270.00 C 205.45 270.00 205.00 269.52 205.00 268.94 Z M 26.50 206.00 C 26.84 205.45 27.32 205.00 27.56 205.00 C 27.80 205.00 28.00 205.45 28.00 206.00 C 28.00 206.55 27.52 207.00 26.94 207.00 C 26.36 207.00 26.16 206.55 26.50 206.00 Z M 51.81 204.32 C 52.53 204.03 53.40 204.06 53.73 204.40 C 54.06 204.73 53.47 204.96 52.42 204.92 C 51.25 204.87 51.01 204.64 51.81 204.32 Z M 56.81 204.32 C 57.53 204.03 58.40 204.06 58.73 204.40 C 59.06 204.73 58.47 204.96 57.42 204.92 C 56.25 204.87 56.01 204.64 56.81 204.32 Z M 63.81 204.32 C 64.53 204.03 65.40 204.06 65.73 204.40 C 66.06 204.73 65.47 204.96 64.42 204.92 C 63.25 204.87 63.01 204.64 63.81 204.32 Z M 161.25 203.31 C 162.21 203.06 163.79 203.06 164.75 203.31 C 165.71 203.56 164.93 203.77 163.00 203.77 C 161.07 203.77 160.29 203.56 161.25 203.31 Z M 17.08 194.42 C 17.13 193.25 17.36 193.01 17.68 193.81 C 17.97 194.53 17.94 195.40 17.60 195.73 C 17.27 196.06 17.04 195.47 17.08 194.42 Z M 15.27 186.00 C 15.27 183.53 15.47 182.51 15.71 183.75 C 15.94 184.99 15.94 187.01 15.71 188.25 C 15.47 189.49 15.27 188.47 15.27 186.00 Z M 18.08 178.42 C 18.13 177.25 18.36 177.01 18.68 177.81 C 18.97 178.53 18.94 179.40 18.60 179.73 C 18.27 180.06 18.04 179.47 18.08 178.42 Z M 100.50 176.33 C 92.96 175.40 78.98 171.48 72.20 168.40 C 62.12 163.80 53.69 157.60 45.25 148.56 C 35.72 138.35 31.26 130.64 25.86 115.00 C 23.28 107.54 22.82 104.42 22.08 89.50 C 21.62 80.15 21.17 62.11 21.07 49.41 L 20.89 26.32 L 49.61 25.66 C 89.10 24.75 100.00 24.82 100.00 25.98 C 100.00 26.51 99.10 28.43 98.00 30.23 C 95.60 34.18 95.31 42.77 97.45 46.91 L 98.91 49.72 L 67.20 50.43 C 49.77 50.82 34.53 51.37 33.35 51.65 C 32.03 51.97 30.99 53.19 30.66 54.83 C 29.58 60.14 31.16 101.34 32.66 107.00 C 33.46 110.03 34.69 114.75 35.38 117.50 C 37.76 126.95 47.54 141.81 56.95 150.26 C 62.40 155.17 73.45 162.05 79.56 164.35 C 102.63 173.04 129.01 172.10 149.31 161.87 C 161.49 155.73 176.49 141.08 181.42 130.52 C 190.09 111.93 190.48 109.83 190.49 81.50 C 190.50 56.26 190.11 52.66 187.26 51.51 C 186.29 51.12 171.44 50.55 154.25 50.25 C 132.41 49.87 123.01 49.38 123.03 48.60 C 123.05 48.00 123.72 46.63 124.53 45.56 C 127.42 41.74 125.42 31.08 121.36 28.70 C 120.61 28.26 120.00 27.19 120.00 26.31 C 120.00 24.88 123.76 24.80 159.25 25.46 C 180.84 25.86 198.55 26.26 198.61 26.35 C 198.68 26.43 199.02 41.96 199.38 60.85 C 199.92 89.45 199.77 96.69 198.48 104.09 C 196.63 114.78 192.12 127.02 186.58 136.41 C 181.68 144.73 169.75 157.15 161.50 162.54 C 145.09 173.26 120.59 178.80 100.50 176.33 Z M 17.01 170.51 C 15.71 168.95 15.37 151.83 16.60 149.84 C 17.77 147.94 19.00 151.34 18.37 154.76 C 18.04 156.55 18.21 158.58 18.75 159.26 C 19.29 159.94 19.98 162.47 20.29 164.87 C 21.11 171.38 19.72 173.78 17.01 170.51 Z M 205.00 170.00 C 205.00 169.45 205.48 169.00 206.06 169.00 C 206.64 169.00 206.84 169.45 206.50 170.00 C 206.16 170.55 205.68 171.00 205.44 171.00 C 205.20 171.00 205.00 170.55 205.00 170.00 Z M 204.50 162.50 C 204.75 159.75 204.97 157.05 205.01 156.50 C 205.04 155.95 204.77 153.36 204.41 150.75 C 203.95 147.49 204.09 146.00 204.87 146.00 C 205.49 146.00 206.00 147.28 206.00 148.83 C 206.00 150.39 206.32 151.98 206.70 152.37 C 207.75 153.41 207.95 161.00 206.93 161.00 C 206.45 161.00 205.61 162.46 205.06 164.25 C 204.16 167.18 204.10 167.01 204.50 162.50 Z M 99.50 158.05 C 92.71 157.16 83.30 153.82 77.77 150.34 C 75.72 149.05 73.56 148.00 72.97 148.00 C 72.38 148.00 67.97 144.06 63.18 139.25 C 53.21 129.24 47.90 120.49 44.81 109.00 C 42.26 99.52 40.92 66.00 42.99 63.51 C 44.06 62.23 48.52 62.00 72.62 62.00 L 101.00 62.00 L 101.00 66.76 C 101.00 72.41 102.47 78.04 104.23 79.16 C 106.31 80.48 117.78 80.15 118.69 78.75 C 119.14 78.06 119.72 74.12 120.00 70.00 L 120.50 62.50 L 148.93 62.23 C 164.57 62.09 177.72 62.32 178.16 62.76 C 179.57 64.17 179.47 98.99 178.05 105.00 C 175.50 115.73 173.95 119.59 168.94 127.70 C 160.80 140.89 148.61 150.47 133.56 155.50 C 125.58 158.16 109.48 159.37 99.50 158.05 Z M 206.00 139.06 C 206.00 137.93 206.45 137.00 207.00 137.00 C 207.55 137.00 208.00 137.65 208.00 138.44 C 208.00 139.23 207.55 140.16 207.00 140.50 C 206.45 140.84 206.00 140.19 206.00 139.06 Z M 202.00 135.69 C 202.00 134.97 202.64 133.51 203.43 132.44 C 204.75 130.65 204.91 130.63 205.53 132.22 C 205.92 133.23 205.56 134.58 204.67 135.47 C 202.80 137.34 202.00 137.41 202.00 135.69 Z M 207.16 124.00 C 207.16 122.62 207.38 122.06 207.66 122.75 C 207.94 123.44 207.94 124.56 207.66 125.25 C 207.38 125.94 207.16 125.38 207.16 124.00 Z M 118.23 115.55 C 122.39 113.81 124.51 110.82 126.12 104.43 C 127.21 100.13 127.11 99.28 125.15 95.58 C 122.09 89.83 117.23 86.77 111.17 86.77 C 105.68 86.77 102.52 88.09 99.27 91.75 C 93.51 98.24 96.09 111.23 104.00 115.55 C 107.30 117.36 113.91 117.35 118.23 115.55 Z M 108.52 104.38 C 106.57 102.43 106.86 100.11 109.25 98.61 C 112.71 96.43 116.62 101.35 113.96 104.55 C 112.39 106.44 110.53 106.39 108.52 104.38 Z" fill="none" stroke="rgba(255,255,255,0.92)" stroke-width="1.5" stroke-linejoin="round" fill-rule="evenodd"/>
</svg>
