<svg xmlns="http://www.w3.org/2000/svg" viewBox="0 0 385 400" width="385" height="400">
  <path d="M 0.00 200.00 L 0.00 0.00 L 192.50 0.00 L 385.00 0.00 L 385.00 200.00 L 385.00 400.00 L 192.50 400.00 L 0.00 400.00 L 0.00 200.00 Z M 268.00 390.40 C 327.12 390.05 375.85 389.45 376.28 389.06 C 376.70 388.67 376.29 383.88 375.36 378.42 C 374.44 372.97 373.56 365.80 373.42 362.50 C 373.28 359.20 372.70 353.58 372.13 350.01 C 371.07 343.44 372.21 339.14 373.48 344.91 C 374.84 351.08 375.63 346.92 374.49 339.63 C 373.76 334.99 373.67 331.56 374.24 330.54 C 374.81 329.51 374.78 328.44 374.15 327.68 C 373.60 327.01 373.14 323.95 373.14 320.87 C 373.14 317.80 372.84 313.64 372.46 311.64 C 371.84 308.34 371.98 308.00 374.01 308.00 C 375.92 308.00 376.14 307.62 375.60 305.25 C 374.05 298.56 373.76 294.76 374.76 294.15 C 375.49 293.70 375.42 292.35 374.55 289.82 C 373.86 287.80 373.65 285.56 374.09 284.85 C 375.12 283.19 374.04 260.82 372.87 259.55 C 371.55 258.11 371.83 255.00 373.29 255.00 C 374.26 255.00 374.48 253.21 374.18 247.75 C 373.96 243.76 373.83 233.80 373.90 225.61 C 374.02 210.30 373.51 208.00 370.00 208.00 C 365.78 208.00 365.69 209.06 365.99 252.78 C 366.15 275.73 366.25 301.93 366.21 311.00 C 366.17 320.07 366.18 332.00 366.24 337.50 C 366.29 343.00 366.36 354.67 366.39 363.43 L 366.43 379.36 L 282.05 379.43 L 197.67 379.50 L 197.35 377.00 C 197.17 375.62 196.97 351.10 196.89 322.50 C 196.82 293.90 196.36 270.00 195.87 269.39 C 195.34 268.72 195.54 266.92 196.37 264.89 C 197.45 262.22 197.50 260.80 196.60 258.19 C 195.97 256.37 195.12 255.21 194.73 255.61 C 194.33 256.01 194.00 255.61 194.00 254.73 C 194.00 253.84 194.45 252.84 195.00 252.50 C 195.55 252.16 196.00 250.98 196.00 249.88 C 196.00 248.78 195.58 248.14 195.07 248.46 C 194.56 248.77 193.87 248.60 193.55 248.08 C 193.22 247.55 193.73 246.69 194.68 246.16 C 196.12 245.35 196.19 244.93 195.11 243.64 C 194.16 242.49 194.08 241.21 194.79 238.79 C 196.14 234.20 196.20 217.95 194.87 216.34 C 194.27 215.62 194.05 213.93 194.39 212.58 C 194.87 210.67 194.54 209.99 192.90 209.47 C 191.74 209.10 190.28 209.32 189.65 209.95 C 188.81 210.79 188.55 222.99 188.69 254.80 C 188.80 278.84 188.87 303.90 188.85 310.50 C 188.74 354.86 188.43 378.90 187.97 379.36 C 187.41 379.92 121.31 380.82 59.69 381.10 L 21.87 381.27 L 21.44 374.38 C 21.21 370.60 20.81 364.80 20.57 361.50 C 20.33 358.20 20.64 353.34 21.27 350.70 C 22.13 347.07 22.12 345.14 21.22 342.76 C 20.32 340.38 20.31 338.70 21.18 335.80 C 22.07 332.83 22.04 331.45 21.06 329.61 C 20.07 327.77 20.06 326.76 20.98 325.03 C 21.67 323.75 21.87 321.69 21.47 320.16 C 21.08 318.70 20.56 299.50 20.31 277.50 C 19.61 214.91 19.56 213.16 18.50 212.16 C 17.95 211.65 16.55 210.94 15.38 210.59 C 13.32 209.96 13.24 210.29 12.67 222.72 C 11.86 240.33 12.40 324.22 13.33 325.73 C 13.75 326.41 13.62 327.84 13.04 328.92 C 12.34 330.23 12.26 334.36 12.80 341.20 C 13.25 346.86 13.36 359.60 13.04 369.50 C 12.72 379.40 12.81 388.57 13.25 389.87 L 14.04 392.25 L 87.27 391.64 C 127.55 391.30 208.88 390.74 268.00 390.40 Z M 39.00 388.00 C 41.01 387.36 40.51 387.18 36.50 387.08 C 33.42 387.01 32.00 386.65 32.81 386.14 C 34.06 385.35 84.04 385.81 84.92 386.61 C 85.15 386.83 85.13 387.20 84.89 387.45 C 84.24 388.09 65.81 388.02 57.17 387.34 C 52.36 386.96 49.45 387.15 48.72 387.88 C 48.10 388.50 45.10 388.96 42.05 388.90 C 37.76 388.82 37.07 388.62 39.00 388.00 Z M 108.27 387.31 C 109.24 387.05 110.59 387.07 111.27 387.34 C 111.95 387.62 111.15 387.83 109.50 387.81 C 107.85 387.78 107.30 387.56 108.27 387.31 Z M 116.00 387.00 C 116.00 386.45 116.87 386.00 117.94 386.00 C 119.01 386.00 120.16 386.45 120.50 387.00 C 120.85 387.57 120.01 388.00 118.56 388.00 C 117.15 388.00 116.00 387.55 116.00 387.00 Z M 138.50 387.00 C 134.49 386.63 133.08 386.28 135.19 386.18 C 137.22 386.08 139.16 385.55 139.50 385.00 C 140.45 383.47 146.71 383.79 147.32 385.40 C 147.86 386.81 147.17 388.15 146.08 387.82 C 145.76 387.73 142.35 387.36 138.50 387.00 Z M 154.00 387.00 C 154.00 385.80 159.70 385.80 162.50 387.00 C 163.97 387.63 163.11 387.88 159.25 387.93 C 156.36 387.97 154.00 387.55 154.00 387.00 Z M 181.40 386.83 C 181.11 386.37 182.00 386.00 183.36 386.00 C 184.72 386.00 186.01 385.46 186.23 384.80 C 186.49 384.02 186.85 384.16 187.25 385.20 C 187.70 386.39 187.11 386.90 184.89 387.23 C 183.25 387.47 181.68 387.29 181.40 386.83 Z M 192.00 387.00 C 192.00 386.45 193.15 386.00 194.56 386.00 C 196.01 386.00 196.85 386.43 196.50 387.00 C 196.16 387.55 195.01 388.00 193.94 388.00 C 192.87 388.00 192.00 387.55 192.00 387.00 Z M 203.43 386.89 C 203.13 386.40 205.95 385.92 209.69 385.82 L 216.50 385.65 L 209.50 385.00 C 204.38 384.53 207.22 384.31 220.05 384.18 C 230.55 384.07 238.00 384.40 238.59 384.99 C 239.24 385.64 240.75 385.64 243.03 384.99 C 247.68 383.66 252.07 383.66 250.00 385.00 C 248.86 385.74 249.28 385.97 251.75 385.98 C 253.54 385.99 255.00 385.55 255.00 385.00 C 255.00 384.42 257.81 384.07 261.75 384.16 C 265.67 384.25 267.04 384.50 265.01 384.74 C 263.09 384.97 261.20 385.67 260.82 386.30 C 260.37 387.03 255.93 387.49 248.46 387.58 C 234.47 387.76 226.57 387.07 229.52 385.91 C 230.81 385.41 229.58 385.16 226.00 385.20 C 221.07 385.26 220.86 385.34 224.00 386.00 C 228.23 386.89 227.37 387.02 214.24 387.45 C 208.60 387.64 203.74 387.39 203.43 386.89 Z M 265.50 387.00 C 264.21 386.44 266.86 386.16 273.00 386.20 C 280.94 386.24 281.76 386.38 278.00 387.05 C 272.17 388.09 267.99 388.07 265.50 387.00 Z M 168.21 385.46 C 167.10 384.21 167.52 384.00 171.21 384.03 C 175.20 384.06 175.36 384.17 173.56 385.53 C 171.15 387.35 169.86 387.34 168.21 385.46 Z M 199.00 385.50 C 199.00 384.68 199.45 384.00 200.00 384.00 C 200.55 384.00 201.00 384.68 201.00 385.50 C 201.00 386.32 200.55 387.00 200.00 387.00 C 199.45 387.00 199.00 386.32 199.00 385.50 Z M 292.75 386.34 C 293.44 386.06 294.56 386.06 295.25 386.34 C 295.94 386.62 295.38 386.84 294.00 386.84 C 292.62 386.84 292.06 386.62 292.75 386.34 Z M 307.76 386.29 C 309.01 386.05 310.81 386.06 311.76 386.31 C 312.72 386.56 311.70 386.76 309.50 386.75 C 307.30 386.74 306.52 386.53 307.76 386.29 Z M 322.08 385.42 C 322.13 384.25 322.36 384.01 322.68 384.81 C 322.97 385.53 322.94 386.40 322.60 386.73 C 322.27 387.06 322.04 386.47 322.08 385.42 Z M 354.17 386.12 C 353.10 385.45 353.17 385.15 354.50 384.64 C 356.52 383.86 361.00 384.87 361.00 386.11 C 361.00 387.24 355.94 387.25 354.17 386.12 Z M 348.81 385.32 C 349.53 385.03 350.40 385.06 350.73 385.40 C 351.06 385.73 350.47 385.96 349.42 385.92 C 348.25 385.87 348.01 385.64 348.81 385.32 Z M 362.81 385.32 C 363.53 385.03 364.40 385.06 364.73 385.40 C 365.06 385.73 364.47 385.96 363.42 385.92 C 362.25 385.87 362.01 385.64 362.81 385.32 Z M 97.78 384.26 C 100.69 384.06 105.19 384.06 107.78 384.27 C 110.38 384.47 108.00 384.64 102.50 384.63 C 97.00 384.63 94.88 384.46 97.78 384.26 Z M 121.27 384.31 C 122.24 384.05 123.59 384.07 124.27 384.34 C 124.95 384.62 124.15 384.83 122.50 384.81 C 120.85 384.78 120.30 384.56 121.27 384.31 Z M 158.75 384.34 C 159.44 384.06 160.56 384.06 161.25 384.34 C 161.94 384.62 161.38 384.84 160.00 384.84 C 158.62 384.84 158.06 384.62 158.75 384.34 Z M 178.27 384.31 C 179.24 384.05 180.59 384.07 181.27 384.34 C 181.95 384.62 181.15 384.83 179.50 384.81 C 177.85 384.78 177.30 384.56 178.27 384.31 Z M 190.00 384.00 C 190.00 383.45 190.45 383.00 191.00 383.00 C 191.55 383.00 192.00 383.45 192.00 384.00 C 192.00 384.55 191.55 385.00 191.00 385.00 C 190.45 385.00 190.00 384.55 190.00 384.00 Z M 288.76 384.29 C 290.01 384.05 291.81 384.06 292.76 384.31 C 293.72 384.56 292.70 384.76 290.50 384.75 C 288.30 384.74 287.52 384.53 288.76 384.29 Z M 370.45 382.91 C 370.08 382.31 370.28 381.32 370.89 380.71 C 371.70 379.90 372.00 380.18 372.00 381.80 C 372.00 384.21 371.48 384.59 370.45 382.91 Z M 371.00 375.44 C 371.00 374.58 371.46 374.16 372.02 374.51 C 372.58 374.86 372.77 375.56 372.46 376.07 C 371.60 377.46 371.00 377.20 371.00 375.44 Z M 82.00 207.50 C 109.23 207.21 186.17 206.70 253.00 206.37 C 319.83 206.03 374.74 205.39 375.02 204.93 C 376.05 203.32 375.07 9.67 374.03 8.63 C 372.26 6.86 53.01 10.64 19.15 12.83 L 8.79 13.50 L 8.82 33.50 C 8.90 86.46 10.13 199.90 10.66 203.00 C 11.62 208.62 12.12 208.85 22.79 208.41 C 28.13 208.20 54.77 207.79 82.00 207.50 Z M 23.11 196.07 C 22.27 195.55 21.90 173.04 21.70 111.43 C 21.55 65.27 21.10 26.97 20.70 26.32 C 20.30 25.67 20.48 24.82 21.11 24.43 C 22.91 23.32 157.21 21.07 264.58 20.35 L 362.65 19.70 L 362.93 38.60 C 363.08 48.99 363.26 88.10 363.33 125.50 L 363.46 193.50 L 273.48 194.11 C 137.51 195.03 31.93 196.03 27.88 196.42 C 25.88 196.62 23.74 196.46 23.11 196.07 Z M 301.63 177.48 C 307.82 176.91 318.75 173.65 321.50 171.54 C 329.06 165.74 330.98 164.06 334.12 160.50 C 338.67 155.34 341.77 147.41 342.92 138.00 C 343.42 133.88 343.88 118.47 343.94 103.76 C 344.07 74.91 343.47 70.08 338.53 60.25 C 336.20 55.60 327.31 46.19 321.97 42.71 C 315.99 38.81 306.81 36.78 293.00 36.29 C 271.66 35.54 132.37 37.82 124.50 39.05 C 111.28 41.11 97.50 44.22 93.42 46.06 C 91.18 47.07 86.99 48.82 84.12 49.95 C 81.25 51.08 77.01 52.97 74.70 54.14 C 70.72 56.16 69.00 57.40 60.32 64.50 C 54.99 68.86 46.35 80.98 45.00 85.99 C 44.36 88.37 43.17 91.34 42.35 92.58 C 39.79 96.50 38.97 106.42 40.42 116.15 C 41.14 121.00 42.34 125.71 43.09 126.61 C 43.85 127.52 45.18 130.56 46.05 133.38 C 49.10 143.21 61.20 156.47 73.19 163.15 C 86.25 170.42 103.20 175.77 120.00 177.94 C 126.50 178.77 291.94 178.35 301.63 177.48 Z M 126.86 167.06 C 107.19 165.00 89.11 159.46 78.08 152.11 C 65.23 143.55 66.04 144.34 58.75 133.02 C 54.14 125.87 52.79 100.51 56.55 91.50 C 61.63 79.28 73.86 67.52 88.00 61.25 C 91.03 59.91 95.30 58.00 97.50 57.00 C 101.48 55.20 111.11 53.06 124.50 51.00 C 134.35 49.48 217.12 47.84 265.73 48.20 L 306.55 48.50 L 313.71 52.76 C 328.67 61.65 331.70 69.24 332.07 98.74 C 332.40 126.01 332.40 126.18 331.83 131.50 C 329.57 152.31 318.59 163.77 298.74 166.03 C 294.25 166.54 261.75 166.96 226.54 166.97 C 191.32 166.97 156.20 167.17 148.50 167.42 C 140.80 167.66 131.06 167.50 126.86 167.06 Z M 295.92 126.02 C 300.68 124.66 306.64 120.32 309.00 116.49 C 315.97 105.22 305.15 88.00 291.10 88.00 C 286.92 88.00 281.00 89.75 281.00 90.98 C 281.00 91.41 279.65 92.32 278.00 93.00 C 276.35 93.68 274.99 94.98 274.99 95.87 C 274.98 96.77 274.28 99.47 273.44 101.88 C 269.96 111.90 275.12 121.77 285.85 125.61 C 290.33 127.21 291.60 127.26 295.92 126.02 Z" fill="none" stroke="rgba(255,255,255,0.92)" stroke-width="1.5" stroke-linejoin="round" fill-rule="evenodd"/>
</svg>
