<svg xmlns="http://www.w3.org/2000/svg" viewBox="0 0 208 400" width="208" height="400">
  <path d="M 0.00 200.00 L 0.00 0.00 L 104.00 0.00 L 208.00 0.00 L 208.00 200.00 L 208.00 400.00 L 104.00 400.00 L 0.00 400.00 L 0.00 200.00 Z M 89.50 391.01 C 111.50 390.47 145.59 389.49 165.25 388.83 L 201.00 387.63 L 201.00 375.88 C 201.00 369.42 200.55 362.94 199.99 361.48 C 199.44 360.02 199.32 358.31 199.74 357.67 C 200.15 357.02 200.56 352.11 200.66 346.75 C 200.79 338.59 200.55 336.85 199.16 336.06 C 197.65 335.20 197.68 334.99 199.47 333.66 C 201.29 332.31 201.35 331.76 200.27 326.35 C 199.63 323.13 199.35 319.31 199.65 317.86 C 199.97 316.28 199.35 313.32 198.10 310.48 C 195.55 304.73 195.52 304.18 197.75 304.36 C 199.15 304.47 199.45 303.81 199.24 301.00 C 199.09 299.07 199.00 296.38 199.03 295.00 C 199.06 293.62 199.08 282.15 199.08 269.50 C 199.08 245.33 199.23 209.38 199.40 195.00 C 199.55 182.44 197.43 12.52 197.08 8.59 C 196.98 7.42 13.95 9.38 10.14 10.59 C 9.24 10.88 9.00 11.78 9.44 13.26 C 10.07 15.40 10.31 30.86 11.60 153.50 C 12.26 216.68 12.24 213.67 11.99 217.50 C 11.88 219.15 12.04 245.25 12.34 275.50 C 12.65 305.75 12.87 331.85 12.83 333.50 C 12.80 335.15 12.80 337.62 12.83 339.00 C 12.87 340.38 12.89 352.64 12.89 366.25 C 12.89 379.87 13.17 391.46 13.52 392.03 C 13.93 392.69 20.30 392.86 31.82 392.51 C 41.55 392.22 67.50 391.54 89.50 391.01 Z M 17.00 387.93 C 17.00 386.22 18.98 383.00 20.04 383.00 C 20.57 383.00 21.00 383.82 21.00 384.83 C 21.00 386.49 21.54 386.59 26.75 385.83 C 29.91 385.37 39.92 385.04 49.00 385.09 C 58.08 385.15 70.00 384.97 75.50 384.69 C 81.00 384.41 83.71 384.40 81.51 384.67 C 79.32 384.93 77.20 385.68 76.80 386.32 C 76.27 387.18 70.95 387.41 57.53 387.19 C 44.55 386.97 39.00 387.20 39.00 387.97 C 39.00 388.75 38.43 388.77 37.07 388.04 C 36.00 387.47 34.09 387.03 32.82 387.07 C 30.61 387.14 30.60 387.19 32.50 388.09 C 34.24 388.91 34.17 388.96 32.00 388.52 C 30.62 388.24 28.49 387.73 27.25 387.39 C 25.89 387.01 25.00 387.21 25.00 387.88 C 25.00 388.52 23.28 389.00 21.00 389.00 C 18.80 389.00 17.00 388.52 17.00 387.93 Z M 80.25 386.28 C 81.76 386.05 84.24 386.05 85.75 386.28 C 87.26 386.51 86.03 386.70 83.00 386.70 C 79.97 386.70 78.74 386.51 80.25 386.28 Z M 96.26 386.31 C 97.23 386.06 97.77 385.43 97.45 384.92 C 96.79 383.85 96.49 383.91 105.25 383.44 C 108.98 383.24 112.00 383.49 112.00 384.00 C 112.00 385.90 107.93 387.00 101.32 386.88 C 97.57 386.82 95.29 386.56 96.26 386.31 Z M 116.81 385.32 C 117.53 385.03 118.40 385.06 118.73 385.40 C 119.06 385.73 118.47 385.96 117.42 385.92 C 116.25 385.87 116.01 385.64 116.81 385.32 Z M 132.25 385.31 C 133.21 385.06 134.79 385.06 135.75 385.31 C 136.71 385.56 135.93 385.77 134.00 385.77 C 132.07 385.77 131.29 385.56 132.25 385.31 Z M 140.25 384.50 C 138.40 382.40 138.68 382.00 142.00 382.00 C 143.92 382.00 145.00 382.51 145.00 383.42 C 145.00 384.20 145.56 385.06 146.25 385.34 C 146.94 385.62 146.15 385.86 144.50 385.88 C 142.85 385.91 140.94 385.29 140.25 384.50 Z M 156.00 384.50 C 156.00 383.68 156.45 383.00 157.00 383.00 C 157.55 383.00 158.00 383.68 158.00 384.50 C 158.00 385.32 157.55 386.00 157.00 386.00 C 156.45 386.00 156.00 385.32 156.00 384.50 Z M 163.27 384.11 C 163.37 382.68 164.27 382.36 167.95 382.44 C 176.92 382.64 176.89 385.78 167.91 385.85 C 163.94 385.88 163.16 385.58 163.27 384.11 Z M 179.00 384.00 C 179.00 383.45 180.35 383.00 182.00 383.00 C 183.65 383.00 185.00 382.55 185.00 382.00 C 185.00 381.45 186.35 381.00 188.00 381.00 C 191.57 381.00 192.12 383.47 188.75 384.37 C 185.17 385.33 179.00 385.09 179.00 384.00 Z M 194.00 384.00 C 193.18 383.47 192.95 383.02 193.50 383.00 C 194.05 382.99 195.51 382.70 196.75 382.37 C 198.40 381.93 199.00 382.19 199.00 383.38 C 199.00 385.17 196.33 385.50 194.00 384.00 Z M 132.00 383.00 C 132.00 382.45 132.87 382.00 133.94 382.00 C 135.01 382.00 136.16 382.45 136.50 383.00 C 136.85 383.57 136.01 384.00 134.56 384.00 C 133.15 384.00 132.00 383.55 132.00 383.00 Z M 159.81 382.32 C 160.53 382.03 161.40 382.06 161.73 382.40 C 162.06 382.73 161.47 382.96 160.42 382.92 C 159.25 382.87 159.01 382.64 159.81 382.32 Z M 22.87 381.35 C 22.37 378.23 21.94 359.52 22.00 343.13 C 22.06 326.54 21.86 323.84 20.60 324.32 C 19.43 324.77 19.26 324.16 19.71 321.19 C 20.02 319.16 20.67 317.00 21.14 316.39 C 22.36 314.84 20.98 308.74 19.08 307.28 C 17.54 306.09 17.69 305.88 20.25 305.62 C 21.22 305.53 21.51 298.64 21.54 275.00 C 21.57 249.47 21.33 244.04 20.05 241.71 C 18.86 239.53 18.79 238.75 19.76 238.15 C 21.46 237.10 22.17 226.09 20.91 220.28 C 20.34 217.65 19.63 214.30 19.34 212.84 C 19.02 211.25 17.93 209.94 16.65 209.57 C 10.07 207.72 22.80 206.99 78.59 206.05 C 112.09 205.48 151.99 205.01 167.25 205.01 C 193.01 205.00 195.00 205.13 195.01 206.75 C 195.02 207.71 195.30 209.51 195.63 210.75 C 195.99 212.10 195.79 213.00 195.12 213.00 C 194.50 213.00 194.00 211.84 194.00 210.43 C 194.00 208.33 193.59 207.92 191.75 208.20 C 190.35 208.42 189.64 209.11 189.88 210.02 C 190.09 210.84 190.14 218.93 190.00 228.00 C 189.69 247.46 189.69 241.94 189.97 290.50 C 190.10 313.88 190.60 330.59 191.21 332.23 C 191.77 333.73 191.90 335.76 191.49 336.73 C 190.79 338.44 190.74 345.40 191.29 366.68 L 191.55 376.86 L 183.52 377.40 C 179.11 377.69 164.47 378.18 151.00 378.49 C 117.48 379.25 92.16 379.93 75.50 380.52 C 36.53 381.90 22.99 382.12 22.87 381.35 Z M 197.32 376.92 C 196.12 375.72 196.72 372.00 198.12 372.00 C 198.60 372.00 199.00 373.35 199.00 375.00 C 199.00 378.33 198.87 378.47 197.32 376.92 Z M 195.75 371.43 C 195.34 371.01 195.01 369.05 195.03 367.08 C 195.06 364.13 195.24 363.81 196.09 365.28 C 197.24 367.24 196.94 372.64 195.75 371.43 Z M 17.69 367.63 C 17.26 366.05 17.15 364.52 17.45 364.22 C 18.49 363.17 19.15 364.83 18.81 367.66 L 18.48 370.50 L 17.69 367.63 Z M 196.19 341.50 C 196.22 339.85 196.44 339.30 196.69 340.27 C 196.95 341.24 196.93 342.59 196.66 343.27 C 196.38 343.95 196.17 343.15 196.19 341.50 Z M 195.12 326.75 C 195.18 324.41 195.45 323.40 195.71 324.50 C 195.98 325.60 196.57 326.89 197.02 327.37 C 197.99 328.40 197.18 331.00 195.89 331.00 C 195.40 331.00 195.05 329.09 195.12 326.75 Z M 195.50 316.00 C 195.12 313.73 195.03 311.64 195.30 311.37 C 195.58 311.09 196.12 312.73 196.50 315.00 C 196.88 317.27 196.97 319.36 196.70 319.63 C 196.42 319.91 195.88 318.27 195.50 316.00 Z M 194.00 300.50 C 194.00 299.12 194.56 298.00 195.25 298.00 C 195.94 298.00 196.50 299.12 196.50 300.50 C 196.50 301.88 195.94 303.00 195.25 303.00 C 194.56 303.00 194.00 301.88 194.00 300.50 Z M 195.50 292.00 C 195.84 291.45 196.32 291.00 196.56 291.00 C 196.80 291.00 197.00 291.45 197.00 292.00 C 197.00 292.55 196.52 293.00 195.94 293.00 C 195.36 293.00 195.16 292.55 195.50 292.00 Z M 194.07 286.25 C 194.13 283.81 194.24 283.73 195.00 285.50 C 196.17 288.23 196.17 289.00 195.00 289.00 C 194.45 289.00 194.03 287.76 194.07 286.25 Z M 17.00 286.06 C 17.00 285.54 17.45 284.84 18.00 284.50 C 18.55 284.16 19.00 284.58 19.00 285.44 C 19.00 286.30 18.55 287.00 18.00 287.00 C 17.45 287.00 17.00 286.58 17.00 286.06 Z M 195.08 277.42 C 195.13 276.25 195.36 276.01 195.68 276.81 C 195.97 277.53 195.94 278.40 195.60 278.73 C 195.27 279.06 195.04 278.47 195.08 277.42 Z M 17.57 275.70 C 17.13 274.17 17.04 272.63 17.38 272.29 C 18.50 271.17 19.16 272.76 18.77 275.66 L 18.39 278.50 L 17.57 275.70 Z M 194.48 263.81 C 194.17 263.00 194.05 258.67 194.21 254.20 C 194.44 247.66 194.77 246.23 195.85 246.91 C 196.89 247.55 196.95 248.22 196.10 249.81 C 195.33 251.26 195.31 252.08 196.05 252.53 C 196.69 252.92 196.92 255.38 196.63 258.68 C 196.13 264.51 195.41 266.23 194.48 263.81 Z M 195.16 224.00 C 195.16 222.62 195.38 222.06 195.66 222.75 C 195.94 223.44 195.94 224.56 195.66 225.25 C 195.38 225.94 195.16 225.38 195.16 224.00 Z M 22.99 194.82 C 22.39 176.76 21.96 148.10 21.51 94.50 C 21.20 57.65 20.70 26.31 20.41 24.85 C 20.12 23.39 20.33 21.92 20.87 21.58 C 22.12 20.81 181.77 18.73 184.65 19.45 C 186.70 19.96 186.81 20.57 186.88 31.74 C 186.92 38.21 187.30 77.02 187.74 118.00 C 188.17 158.98 188.40 192.70 188.24 192.94 C 188.08 193.19 177.05 193.49 163.72 193.62 C 150.40 193.74 113.29 194.14 81.25 194.50 C 49.21 194.86 23.00 195.00 22.99 194.82 Z M 151.22 180.18 C 163.13 176.00 172.55 166.10 175.63 154.56 C 177.22 148.58 177.60 74.21 176.08 64.96 C 173.34 48.25 161.20 35.39 144.82 31.86 C 138.00 30.39 66.44 31.44 60.50 33.10 C 51.17 35.71 39.42 45.93 36.49 54.00 C 33.01 63.55 32.82 66.87 33.22 109.30 C 33.63 150.80 33.67 151.62 36.05 158.50 C 38.01 164.17 39.54 166.55 44.13 171.04 C 49.79 176.58 55.44 180.03 62.00 181.95 C 64.24 182.61 79.90 182.83 105.53 182.57 C 142.31 182.20 146.02 182.01 151.22 180.18 Z M 67.22 170.91 C 56.11 168.79 47.54 160.63 45.22 149.93 C 43.39 141.48 43.20 68.85 45.00 63.00 C 47.51 54.85 52.25 49.39 60.00 45.75 C 64.20 43.77 66.88 43.58 99.91 42.82 C 138.42 41.94 144.55 42.37 151.59 46.50 C 156.52 49.39 163.17 57.66 164.88 63.02 C 165.62 65.34 166.09 80.60 166.25 107.52 C 166.50 148.11 166.48 148.54 164.28 153.00 C 158.98 163.73 150.46 169.91 140.06 170.59 C 127.43 171.41 71.18 171.66 67.22 170.91 Z M 133.50 150.14 C 138.68 146.95 141.73 143.12 142.95 138.30 C 145.17 129.47 142.51 122.55 134.72 116.91 C 126.87 111.22 115.39 113.78 110.06 122.40 C 107.47 126.60 106.46 134.82 107.97 139.41 C 109.52 144.11 113.59 148.91 117.45 150.59 C 121.96 152.56 129.95 152.33 133.50 150.14 Z" fill="none" stroke="rgba(255,255,255,0.92)" stroke-width="1.5" stroke-linejoin="round" fill-rule="evenodd"/>
</svg>
