<svg xmlns="http://www.w3.org/2000/svg" viewBox="0 0 100 100" width="100" height="100">
  <path d="M 0.00 50.00 L 0.00 0.00 L 50.00 0.00 L 100.00 0.00 L 100.00 50.00 L 100.00 100.00 L 50.00 100.00 L 0.00 100.00 L 0.00 50.00 Z M 11.10 93.25 C 11.15 91.74 11.12 72.91 11.03 51.41 L 10.86 12.32 L 26.68 11.66 C 35.38 11.30 52.85 11.00 65.50 10.99 C 93.46 10.97 96.00 10.66 96.00 7.25 L 96.00 4.77 L 50.75 5.50 C 25.86 5.90 5.26 6.37 4.98 6.53 C 4.69 6.70 4.54 11.49 4.63 17.17 C 4.73 22.85 4.85 42.91 4.91 61.75 L 5.00 96.00 L 8.00 96.00 C 10.58 96.00 11.01 95.62 11.10 93.25 Z M 89.25 89.35 C 95.69 88.74 96.00 88.59 96.00 86.11 L 96.00 83.50 L 78.75 83.47 C 61.03 83.44 54.92 82.57 46.00 78.79 C 34.65 73.99 29.51 67.97 28.43 58.25 C 27.52 50.02 29.26 43.93 33.90 39.09 C 43.41 29.18 56.19 25.07 77.61 25.02 C 82.62 25.01 88.81 24.71 91.36 24.36 C 95.47 23.80 96.00 23.44 96.00 21.23 L 96.00 18.73 L 77.75 19.27 C 58.11 19.85 52.72 20.84 41.51 25.92 C 34.98 28.88 24.01 38.44 23.99 41.18 C 23.99 41.91 23.27 43.85 22.40 45.50 C 20.29 49.49 20.30 60.17 22.43 63.20 C 23.29 64.43 24.00 66.22 24.00 67.18 C 24.00 69.80 33.93 79.42 39.59 82.29 C 51.84 88.50 70.36 91.13 89.25 89.35 Z" fill="none" stroke="rgba(255,255,255,0.92)" stroke-width="1.2" stroke-linejoin="round" fill-rule="evenodd"/>
</svg>
