<svg xmlns="http://www.w3.org/2000/svg" viewBox="0 0 100 100" width="100" height="100">
  <path d="M 0.00 50.00 L 0.00 0.00 L 50.00 0.00 L 100.00 0.00 L 100.00 50.00 L 100.00 100.00 L 50.00 100.00 L 0.00 100.00 L 0.00 50.00 Z M 95.00 50.00 L 95.00 4.00 L 54.75 4.01 C 32.61 4.01 12.14 4.30 9.25 4.65 C 4.58 5.21 4.00 5.54 4.00 7.64 L 4.00 10.00 L 46.40 10.00 L 88.80 10.00 L 88.88 49.25 C 88.92 70.84 88.97 90.19 88.98 92.25 C 89.00 95.75 89.20 96.00 92.00 96.00 L 95.00 96.00 L 95.00 50.00 Z M 61.59 87.87 C 67.09 86.49 75.46 79.27 76.85 74.72 C 77.39 72.95 78.12 64.49 78.47 55.92 C 79.26 36.81 78.45 32.83 72.43 26.14 C 65.59 18.52 62.92 18.00 30.89 18.00 L 4.00 18.00 L 4.00 21.00 L 4.00 24.00 L 30.93 24.00 C 45.75 24.00 59.00 24.43 60.38 24.96 C 61.76 25.48 64.70 27.54 66.90 29.53 C 71.39 33.58 71.65 34.64 72.47 51.69 C 73.32 69.41 70.72 77.02 62.49 81.00 C 58.68 82.85 56.31 83.00 31.18 83.00 L 4.00 83.00 L 4.00 86.00 L 4.00 89.00 L 30.56 89.00 C 46.94 89.00 58.83 88.57 61.59 87.87 Z M 57.05 61.31 C 64.80 56.73 62.06 45.86 52.78 44.35 C 47.81 43.55 43.65 45.98 42.26 50.49 C 39.46 59.62 48.60 66.30 57.05 61.31 Z" fill="none" stroke="rgba(255,255,255,0.92)" stroke-width="1.2" stroke-linejoin="round" fill-rule="evenodd"/>
</svg>
