<svg xmlns="http://www.w3.org/2000/svg" viewBox="0 0 100 100" width="100" height="100">
  <path d="M 0.00 50.00 L 0.00 0.00 L 50.00 0.00 L 100.00 0.00 L 100.00 50.00 L 100.00 100.00 L 50.00 100.00 L 0.00 100.00 L 0.00 50.00 Z M 95.35 51.25 C 95.07 26.64 94.66 5.94 94.45 5.25 C 94.24 4.56 92.90 4.00 91.47 4.00 L 88.88 4.00 L 89.11 37.75 C 89.24 56.31 89.54 77.01 89.79 83.75 L 90.25 96.00 L 93.05 96.00 L 95.86 96.00 L 95.35 51.25 Z M 38.72 16.75 L 51.10 4.00 L 46.65 4.00 L 42.20 4.00 L 23.35 23.61 C 4.83 42.86 4.50 43.29 4.24 47.86 L 3.97 52.50 L 15.16 41.00 C 21.31 34.67 31.92 23.76 38.72 16.75 Z" fill="none" stroke="rgba(255,255,255,0.92)" stroke-width="1.2" stroke-linejoin="round" fill-rule="evenodd"/>
</svg>
