<svg xmlns="http://www.w3.org/2000/svg" viewBox="0 0 100 100" width="100" height="100">
  <path d="M 0.00 50.00 L 0.00 0.00 L 50.00 0.00 L 100.00 0.00 L 100.00 50.00 L 100.00 100.00 L 50.00 100.00 L 0.00 100.00 L 0.00 50.00 Z M 10.98 50.00 L 10.97 4.00 L 7.98 4.00 L 5.00 4.00 L 5.00 50.00 L 5.00 96.00 L 8.00 96.00 L 10.99 96.00 L 10.98 50.00 Z M 79.03 71.40 C 82.63 69.70 87.91 66.62 90.78 64.56 C 95.54 61.14 96.00 60.47 96.00 56.91 C 96.00 54.76 95.74 53.00 95.43 53.00 C 95.12 53.00 92.75 54.74 90.18 56.87 C 70.30 73.31 49.38 72.75 41.38 55.57 C 35.97 43.94 40.81 26.59 54.05 10.24 L 59.09 4.00 L 55.10 4.00 C 51.43 4.00 50.77 4.45 46.70 9.75 C 41.28 16.81 38.78 21.64 35.52 31.35 C 30.24 47.08 33.48 60.86 44.39 69.11 C 50.92 74.05 54.00 74.92 64.00 74.69 C 71.18 74.52 73.52 74.01 79.03 71.40 Z" fill="none" stroke="rgba(255,255,255,0.92)" stroke-width="1.2" stroke-linejoin="round" fill-rule="evenodd"/>
</svg>
