<svg xmlns="http://www.w3.org/2000/svg" viewBox="0 0 100 100" width="100" height="100">
  <path d="M 0.00 50.00 L 0.00 0.00 L 50.00 0.00 L 100.00 0.00 L 100.00 50.00 L 100.00 100.00 L 50.00 100.00 L 0.00 100.00 L 0.00 50.00 Z M 61.57 92.50 C 68.61 83.26 68.82 71.20 62.10 61.90 C 57.82 55.98 41.25 38.83 37.76 36.71 C 33.23 33.95 23.64 33.34 18.62 35.48 C 16.48 36.39 12.32 39.42 9.37 42.21 C 4.43 46.88 4.00 47.65 4.00 51.78 L 4.00 56.27 L 11.93 48.69 C 20.42 40.58 23.61 39.18 30.75 40.44 C 33.81 40.99 36.31 42.97 44.40 51.30 C 56.97 64.26 59.74 68.09 60.58 73.68 C 61.54 80.09 59.61 85.43 54.29 91.13 L 49.73 96.00 L 54.31 96.00 C 58.38 96.00 59.20 95.60 61.57 92.50 Z M 94.00 50.50 L 94.00 5.00 L 49.00 5.00 L 4.00 5.00 L 4.00 8.00 L 4.00 11.00 L 46.00 11.00 L 88.00 11.00 L 88.11 40.75 C 88.17 57.11 88.28 76.24 88.36 83.25 L 88.50 96.00 L 91.25 96.00 L 94.00 96.00 L 94.00 50.50 Z M 37.34 77.12 C 39.89 74.77 40.14 74.00 39.72 69.56 C 39.15 63.46 35.76 60.00 30.37 60.00 C 21.99 60.00 17.59 71.44 23.75 77.19 C 25.26 78.60 27.18 79.98 28.00 80.27 C 30.54 81.15 34.37 79.87 37.34 77.12 Z" fill="none" stroke="rgba(255,255,255,0.92)" stroke-width="1.2" stroke-linejoin="round" fill-rule="evenodd"/>
</svg>
