<svg xmlns="http://www.w3.org/2000/svg" viewBox="0 0 100 100" width="100" height="100">
  <path d="M 0.00 50.00 L 0.00 0.00 L 50.00 0.00 L 100.00 0.00 L 100.00 50.00 L 100.00 100.00 L 50.00 100.00 L 0.00 100.00 L 0.00 50.00 Z M 15.70 94.61 C 16.59 93.06 44.36 63.86 67.62 40.01 C 94.65 12.30 96.00 10.76 96.00 7.76 L 96.00 5.00 L 52.08 5.00 C 27.93 5.00 7.45 5.27 6.58 5.61 C 5.17 6.15 5.00 11.09 5.00 51.11 L 5.00 96.00 L 9.95 96.00 C 13.13 96.00 15.19 95.50 15.70 94.61 Z M 81.33 80.59 C 95.66 65.54 96.00 65.08 95.96 60.84 L 95.92 56.50 L 81.41 71.50 C 73.43 79.75 65.09 88.64 62.86 91.25 L 58.81 96.00 L 62.74 96.00 C 66.51 96.00 67.27 95.37 81.33 80.59 Z M 10.83 81.45 C 10.53 73.45 10.69 72.53 12.88 70.12 C 16.16 66.50 35.31 46.67 54.29 27.25 L 70.17 11.00 L 78.82 11.00 L 87.46 11.00 L 77.47 21.25 C 46.14 53.39 33.19 66.78 22.78 77.83 L 11.15 90.17 L 10.83 81.45 Z M 11.00 53.32 L 11.00 43.83 L 27.17 27.42 L 43.35 11.00 L 52.34 11.00 L 61.34 11.00 L 53.96 18.75 C 49.90 23.01 38.57 34.67 28.79 44.66 L 11.00 62.82 L 11.00 53.32 Z M 11.22 23.35 L 11.50 11.50 L 22.75 11.18 C 28.94 11.01 34.00 11.02 34.00 11.22 C 34.00 11.41 28.81 16.88 22.47 23.38 L 10.93 35.20 L 11.22 23.35 Z" fill="none" stroke="rgba(255,255,255,0.92)" stroke-width="1.2" stroke-linejoin="round" fill-rule="evenodd"/>
</svg>
