<svg xmlns="http://www.w3.org/2000/svg" viewBox="0 0 100 100" width="100" height="100">
  <path d="M 0.00 50.00 L 0.00 0.00 L 50.00 0.00 L 100.00 0.00 L 100.00 50.00 L 100.00 100.00 L 50.00 100.00 L 0.00 100.00 L 0.00 50.00 Z M 10.12 92.75 C 10.34 86.99 10.70 58.14 10.85 34.25 L 11.00 11.00 L 53.50 11.00 L 96.00 11.00 L 96.00 7.96 L 96.00 4.91 L 51.14 5.05 L 6.28 5.19 L 5.64 12.74 C 5.29 16.90 5.00 37.33 5.00 58.15 L 5.00 96.00 L 7.50 96.00 C 9.63 96.00 10.02 95.52 10.12 92.75 Z M 24.18 68.08 L 24.50 40.17 L 27.51 35.83 C 29.27 33.30 32.38 30.56 34.98 29.25 C 39.00 27.21 40.85 27.00 54.40 27.00 C 71.75 27.00 76.18 28.34 80.21 34.82 C 82.44 38.40 82.51 39.30 82.81 67.25 L 83.11 96.00 L 85.43 96.00 C 88.55 96.00 88.60 95.43 88.55 64.00 C 88.50 34.77 88.41 34.33 81.71 27.27 C 76.57 21.85 71.26 20.74 52.69 21.18 C 38.53 21.52 35.99 21.84 32.43 23.71 C 27.34 26.39 21.58 32.68 20.15 37.12 C 19.53 39.06 18.86 52.36 18.58 68.25 L 18.11 96.00 L 20.98 96.00 L 23.86 96.00 L 24.18 68.08 Z M 60.75 54.45 C 63.20 51.66 63.75 46.27 61.92 42.85 C 60.52 40.24 54.99 37.94 51.91 38.69 C 46.19 40.09 43.12 45.81 45.01 51.54 C 47.19 58.13 56.06 59.77 60.75 54.45 Z" fill="none" stroke="rgba(255,255,255,0.92)" stroke-width="1.2" stroke-linejoin="round" fill-rule="evenodd"/>
</svg>
