<svg xmlns="http://www.w3.org/2000/svg" viewBox="0 0 380 400" width="380" height="400">
  <path d="M 0.00 200.00 L 0.00 0.00 L 190.00 0.00 L 380.00 0.00 L 380.00 200.00 L 380.00 400.00 L 190.00 400.00 L 0.00 400.00 L 0.00 200.00 Z M 200.00 393.10 C 203.57 393.01 207.40 393.00 208.50 393.08 C 215.17 393.54 239.80 392.58 241.31 391.80 C 242.45 391.21 243.57 391.22 244.31 391.83 C 245.68 392.94 276.57 392.67 279.26 391.53 C 280.28 391.09 281.65 391.30 282.51 392.01 C 283.64 392.95 285.02 392.98 288.31 392.15 C 290.68 391.55 294.26 391.33 296.25 391.65 C 298.24 391.98 301.23 391.77 302.89 391.19 C 305.05 390.44 306.76 390.46 308.93 391.28 C 311.25 392.16 312.77 392.12 315.52 391.13 C 318.30 390.12 319.42 390.10 320.54 391.03 C 321.45 391.79 322.98 391.94 324.74 391.45 C 327.33 390.73 345.32 389.99 360.05 390.00 C 371.06 390.01 370.49 391.66 370.59 359.75 C 370.63 344.67 370.98 331.84 371.36 331.23 C 371.73 330.63 371.57 328.03 370.99 325.45 C 370.25 322.14 370.26 320.40 371.02 319.48 C 371.72 318.64 371.82 316.32 371.31 312.84 C 370.87 309.90 370.64 306.82 370.79 306.00 C 370.94 305.18 371.30 279.23 371.60 248.35 L 372.13 192.19 L 341.81 192.59 C 325.14 192.80 292.15 193.24 268.50 193.57 C 244.85 193.89 219.43 194.23 212.00 194.34 C 204.57 194.44 197.86 194.74 197.08 195.01 C 196.12 195.34 195.42 194.39 194.90 192.00 C 194.14 188.58 194.51 121.38 195.47 87.50 C 195.73 78.15 196.00 57.02 196.06 40.54 C 196.16 12.33 196.06 10.55 194.34 9.93 C 193.33 9.57 173.82 9.43 151.00 9.62 C 37.21 10.58 11.81 10.86 11.53 11.17 C 11.36 11.35 10.96 16.22 10.64 22.00 C 9.88 35.62 8.52 390.31 9.22 392.12 C 9.66 393.28 24.48 393.48 101.62 393.38 C 152.16 393.32 196.43 393.19 200.00 393.10 Z M 194.47 390.95 C 193.52 389.41 194.82 388.42 196.10 389.70 C 196.82 390.42 196.84 390.98 196.16 391.40 C 195.60 391.75 194.84 391.55 194.47 390.95 Z M 202.00 389.00 C 202.00 388.45 202.70 388.00 203.56 388.00 C 204.42 388.00 204.84 388.45 204.50 389.00 C 204.16 389.55 203.46 390.00 202.94 390.00 C 202.42 390.00 202.00 389.55 202.00 389.00 Z M 206.14 388.09 C 205.14 387.47 205.09 387.06 205.96 386.52 C 207.33 385.68 208.36 386.43 207.85 387.91 C 207.65 388.51 206.94 388.59 206.14 388.09 Z M 270.50 388.00 C 270.84 387.45 271.54 387.00 272.06 387.00 C 272.58 387.00 273.00 387.45 273.00 388.00 C 273.00 388.55 272.30 389.00 271.44 389.00 C 270.58 389.00 270.16 388.55 270.50 388.00 Z M 222.00 386.00 C 222.00 385.45 222.45 385.00 223.00 385.00 C 223.55 385.00 224.00 385.45 224.00 386.00 C 224.00 386.55 223.55 387.00 223.00 387.00 C 222.45 387.00 222.00 386.55 222.00 386.00 Z M 194.40 382.06 C 193.44 381.12 194.14 200.61 195.11 198.79 C 196.59 196.03 198.10 197.60 196.93 200.67 C 195.67 204.00 196.03 204.29 201.49 204.40 C 203.97 204.46 206.00 204.81 206.00 205.20 C 206.00 205.58 204.88 208.01 203.50 210.60 C 201.71 213.97 201.00 216.85 201.00 220.80 C 201.00 225.69 201.55 227.16 206.00 234.09 C 208.75 238.38 211.00 242.70 210.99 243.69 C 210.98 244.69 208.95 248.40 206.47 251.95 C 198.25 263.72 198.16 270.39 206.05 282.49 C 212.29 292.04 212.36 294.21 206.67 302.32 C 198.25 314.32 198.15 318.05 205.96 329.94 C 209.18 334.84 211.00 338.70 211.00 340.60 C 211.00 342.47 209.30 346.18 206.49 350.46 C 199.04 361.80 198.49 366.70 203.52 376.62 C 204.88 379.31 205.99 381.76 206.00 382.08 C 206.00 382.75 195.09 382.73 194.40 382.06 Z M 224.63 382.01 L 218.76 381.50 L 214.88 375.07 C 212.75 371.53 211.00 367.57 211.00 366.27 C 211.00 364.97 213.20 360.21 215.90 355.70 C 223.73 342.59 223.65 336.81 215.44 324.58 C 210.12 316.65 210.15 315.84 215.96 308.05 C 224.08 297.17 223.89 290.15 215.12 276.68 C 212.85 273.20 211.00 269.31 211.00 268.02 C 211.00 265.85 215.39 257.15 217.05 256.00 C 217.45 255.72 218.79 253.56 220.02 251.19 C 223.42 244.65 222.40 239.01 216.05 229.38 C 213.27 225.17 211.00 221.04 211.00 220.20 C 211.00 219.36 213.02 215.43 215.49 211.47 L 219.97 204.27 L 231.74 204.54 C 238.21 204.69 245.22 204.38 247.33 203.85 C 250.00 203.17 251.56 203.22 252.50 204.00 C 253.48 204.81 254.94 204.82 257.83 204.05 C 260.45 203.34 262.67 203.30 264.33 203.94 C 265.73 204.47 268.13 204.56 269.68 204.15 C 271.23 203.74 286.23 203.46 303.00 203.53 C 319.77 203.60 334.79 203.29 336.38 202.86 C 338.04 202.40 340.05 202.49 341.13 203.07 C 342.41 203.75 344.34 203.72 347.17 202.96 C 350.29 202.11 351.87 202.13 353.51 203.01 C 355.09 203.85 356.73 203.89 359.43 203.15 C 362.78 202.22 363.09 202.29 362.43 203.81 C 361.74 205.39 360.80 259.16 361.04 283.50 C 361.10 289.55 361.13 295.18 361.10 296.00 C 361.08 296.82 360.93 315.95 360.76 338.50 L 360.47 379.50 L 351.99 379.64 C 347.32 379.71 330.68 380.06 315.00 380.42 C 299.32 380.77 274.17 381.29 259.10 381.57 C 244.03 381.84 231.43 382.17 231.10 382.30 C 230.77 382.43 227.86 382.30 224.63 382.01 Z M 20.90 380.94 C 19.02 379.77 19.97 24.80 21.86 22.84 C 22.21 22.47 58.95 22.02 103.50 21.84 L 184.50 21.50 L 184.50 39.50 C 184.50 49.40 184.16 92.83 183.76 136.00 C 183.35 179.18 182.96 251.72 182.89 297.22 C 182.81 357.77 182.47 380.18 181.64 380.85 C 180.37 381.87 22.54 381.95 20.90 380.94 Z M 115.18 357.57 C 131.75 352.99 144.31 341.43 153.57 322.24 C 156.56 316.04 159.00 310.51 159.00 309.95 C 159.00 309.39 159.96 306.14 161.13 302.72 C 162.30 299.30 164.14 291.10 165.22 284.50 C 167.01 273.51 167.24 264.58 168.00 178.00 C 168.74 94.29 168.66 82.76 167.29 77.00 C 163.89 62.72 153.85 50.27 141.82 45.43 L 134.84 42.62 L 104.44 42.79 C 76.57 42.95 73.53 43.14 67.77 45.05 C 52.43 50.15 41.00 62.72 36.89 79.00 C 34.92 86.81 34.83 274.39 36.79 283.50 C 39.18 294.56 42.26 306.48 43.23 308.35 C 43.75 309.37 45.21 313.05 46.47 316.51 C 49.27 324.23 58.10 337.88 64.32 344.12 C 70.45 350.25 81.20 356.50 88.00 357.88 C 100.92 360.50 104.75 360.46 115.18 357.57 Z M 94.00 346.97 C 81.60 344.97 74.29 339.78 64.08 325.72 C 61.78 322.54 59.28 318.26 58.53 316.22 C 57.78 314.17 56.29 310.70 55.22 308.50 C 54.15 306.30 52.51 301.12 51.58 297.00 C 50.65 292.88 49.47 287.70 48.96 285.50 C 45.85 272.09 45.72 267.49 45.91 178.94 C 46.06 111.84 46.43 87.85 47.36 83.30 C 49.72 71.87 57.87 61.72 68.72 56.71 C 73.32 54.58 74.66 54.50 104.00 54.50 L 134.50 54.50 L 140.73 58.31 C 149.57 63.72 153.55 68.98 156.09 78.61 C 158.10 86.23 158.15 88.10 157.59 133.50 C 157.26 159.35 156.92 199.40 156.82 222.50 C 156.71 248.52 156.17 268.50 155.40 275.00 C 154.04 286.45 150.20 302.23 146.58 311.19 C 142.93 320.23 135.38 331.51 129.41 336.82 C 120.37 344.88 106.22 348.93 94.00 346.97 Z M 364.50 325.00 C 364.16 324.45 364.61 324.00 365.50 324.00 C 366.39 324.00 366.84 324.45 366.50 325.00 C 366.16 325.55 365.71 326.00 365.50 326.00 C 365.29 326.00 364.84 325.55 364.50 325.00 Z M 365.65 244.53 C 365.34 243.72 365.52 242.80 366.04 242.47 C 366.57 242.15 367.00 242.81 367.00 243.94 C 367.00 246.36 366.44 246.60 365.65 244.53 Z M 365.71 228.00 C 365.42 226.90 365.54 225.78 365.98 225.51 C 366.42 225.24 366.99 226.14 367.25 227.51 C 367.81 230.46 366.47 230.89 365.71 228.00 Z M 366.08 214.42 C 366.13 213.25 366.36 213.01 366.68 213.81 C 366.97 214.53 366.94 215.40 366.60 215.73 C 366.27 216.06 366.04 215.47 366.08 214.42 Z M 366.00 204.00 C 366.00 203.45 366.45 203.00 367.00 203.00 C 367.55 203.00 368.00 203.45 368.00 204.00 C 368.00 204.55 367.55 205.00 367.00 205.00 C 366.45 205.00 366.00 204.55 366.00 204.00 Z M 304.81 201.32 C 305.53 201.03 306.40 201.06 306.73 201.40 C 307.06 201.73 306.47 201.96 305.42 201.92 C 304.25 201.87 304.01 201.64 304.81 201.32 Z M 355.00 201.00 C 355.00 200.45 355.48 200.00 356.06 200.00 C 356.64 200.00 356.84 200.45 356.50 201.00 C 356.16 201.55 355.68 202.00 355.44 202.00 C 355.20 202.00 355.00 201.55 355.00 201.00 Z M 223.00 199.50 C 223.00 198.68 223.45 198.00 224.00 198.00 C 224.55 198.00 225.00 198.68 225.00 199.50 C 225.00 200.32 224.55 201.00 224.00 201.00 C 223.45 201.00 223.00 200.32 223.00 199.50 Z M 207.50 199.00 C 207.16 198.45 207.36 198.00 207.94 198.00 C 208.52 198.00 209.00 198.45 209.00 199.00 C 209.00 199.55 208.80 200.00 208.56 200.00 C 208.32 200.00 207.84 199.55 207.50 199.00 Z M 248.81 199.32 C 249.53 199.03 250.40 199.06 250.73 199.40 C 251.06 199.73 250.47 199.96 249.42 199.92 C 248.25 199.87 248.01 199.64 248.81 199.32 Z M 107.00 115.00 C 111.38 113.77 116.78 108.77 118.70 104.18 C 125.43 88.08 110.86 72.02 95.39 78.48 C 88.47 81.37 83.45 90.36 84.36 98.25 C 85.42 107.49 90.07 113.07 98.36 115.05 C 102.79 116.10 103.10 116.10 107.00 115.00 Z" fill="none" stroke="rgba(255,255,255,0.92)" stroke-width="1.5" stroke-linejoin="round" fill-rule="evenodd"/>
</svg>
