<svg xmlns="http://www.w3.org/2000/svg" viewBox="0 0 262 400" width="262" height="400">
  <path d="M 0.00 200.00 L 0.00 0.00 L 131.00 0.00 L 262.00 0.00 L 262.00 200.00 L 262.00 400.00 L 131.00 400.00 L 0.00 400.00 L 0.00 200.00 Z M 12.68 394.09 C 14.42 393.59 16.03 393.36 16.25 393.59 C 16.48 393.81 70.40 394.11 136.08 394.25 L 255.50 394.50 L 255.76 352.50 C 256.22 277.16 255.99 212.70 255.01 145.50 C 254.49 109.20 254.04 62.89 254.03 42.58 L 254.00 5.67 L 130.85 6.32 C 63.11 6.68 7.46 7.21 7.17 7.50 C 5.95 8.72 6.95 303.34 8.39 368.50 C 8.97 394.68 8.98 395.00 9.26 395.00 C 9.40 395.00 10.94 394.59 12.68 394.09 Z M 89.61 388.18 C 89.32 387.71 72.38 387.39 51.96 387.46 L 14.84 387.58 L 15.04 382.04 C 15.32 374.19 15.19 373.33 13.43 371.57 C 12.10 370.24 12.07 369.91 13.27 369.45 C 14.64 368.92 14.84 349.14 14.03 294.00 C 13.95 288.23 13.91 280.61 13.94 277.09 L 14.00 270.67 L 70.17 271.34 C 101.07 271.71 126.44 272.12 126.56 272.26 C 126.67 272.39 127.01 298.40 127.31 330.06 L 127.86 387.61 L 110.01 387.70 C 100.19 387.74 91.71 388.06 91.15 388.41 C 90.59 388.75 89.90 388.65 89.61 388.18 Z M 203.67 388.34 C 203.55 388.23 143.64 387.50 134.93 387.50 C 134.89 387.50 134.61 361.55 134.31 329.83 L 133.77 272.17 L 163.14 272.70 C 179.29 272.99 205.10 273.51 220.50 273.86 L 248.50 274.50 L 248.71 300.50 C 248.82 314.80 248.96 327.62 249.01 329.00 C 249.06 330.38 248.97 344.32 248.80 360.00 L 248.49 388.50 L 226.16 388.50 C 213.88 388.50 203.76 388.43 203.67 388.34 Z M 12.16 379.00 C 12.16 377.62 12.38 377.06 12.66 377.75 C 12.94 378.44 12.94 379.56 12.66 380.25 C 12.38 380.94 12.16 380.38 12.16 379.00 Z M 129.50 274.00 C 129.16 273.45 129.36 273.00 129.94 273.00 C 130.52 273.00 131.00 273.45 131.00 274.00 C 131.00 274.55 130.80 275.00 130.56 275.00 C 130.32 275.00 129.84 274.55 129.50 274.00 Z M 188.50 264.91 C 174.75 264.56 129.88 263.91 88.79 263.47 L 14.08 262.67 L 14.05 197.59 L 14.03 132.50 L 27.18 118.50 C 34.41 110.80 46.86 97.53 54.85 89.00 C 68.44 74.48 94.01 47.51 112.65 28.02 C 117.14 23.34 121.71 18.38 122.81 17.00 L 124.82 14.50 L 174.66 14.50 C 202.07 14.50 229.45 14.72 235.50 15.00 L 246.49 15.50 L 246.66 36.50 C 246.75 48.05 247.13 99.12 247.51 150.00 C 247.88 200.88 248.31 247.80 248.46 254.28 L 248.74 266.05 L 231.12 265.81 C 221.43 265.67 202.25 265.27 188.50 264.91 Z M 91.20 232.91 C 97.77 231.56 111.84 224.66 119.40 219.07 C 126.20 214.05 135.88 204.53 154.03 185.02 C 171.45 166.29 179.54 157.66 190.07 146.55 C 209.70 125.81 212.95 122.05 215.63 116.90 C 218.12 112.12 218.44 110.47 218.41 102.50 C 218.35 89.54 216.41 85.94 199.62 67.57 C 192.12 59.35 184.13 51.41 181.87 49.91 C 173.19 44.16 162.54 43.59 153.39 48.39 C 147.45 51.49 146.06 52.76 134.00 66.02 C 124.34 76.63 115.30 86.32 99.95 102.49 C 95.25 107.45 87.15 116.22 81.95 121.98 C 76.75 127.75 71.45 133.60 70.17 134.98 C 65.44 140.08 56.27 152.64 53.74 157.50 C 46.14 172.03 43.63 181.16 43.55 194.50 C 43.50 203.72 43.75 205.01 46.63 211.00 C 54.91 228.15 72.42 236.77 91.20 232.91 Z M 70.70 223.46 C 66.12 221.78 59.63 216.40 56.32 211.51 C 46.97 197.76 50.21 177.47 65.49 154.00 C 69.58 147.72 81.09 134.58 104.51 109.50 C 110.67 102.90 116.79 96.32 118.11 94.88 C 120.84 91.89 140.02 71.46 147.50 63.56 C 154.67 56.00 158.48 54.00 165.75 54.00 C 174.87 54.00 177.67 55.70 189.12 68.22 C 194.79 74.43 199.93 79.95 200.55 80.50 C 206.71 86.00 211.00 95.45 211.00 103.51 C 211.00 108.14 206.97 116.52 202.35 121.50 C 190.05 134.74 183.98 141.22 176.08 149.54 C 171.36 154.51 163.90 162.40 159.50 167.08 C 130.03 198.42 123.99 204.59 118.10 209.40 C 110.05 215.97 99.80 221.70 92.75 223.58 C 86.14 225.34 75.66 225.28 70.70 223.46 Z M 14.00 108.37 L 14.00 96.74 L 24.72 85.12 C 35.22 73.74 43.78 64.70 65.08 42.52 C 70.89 36.46 79.24 27.73 83.64 23.13 L 91.62 14.76 L 102.81 14.63 C 108.96 14.56 114.00 14.63 114.00 14.80 C 114.00 14.96 112.09 17.05 109.75 19.43 C 107.41 21.82 99.21 30.46 91.52 38.63 C 79.90 50.99 69.58 61.82 55.50 76.43 C 54.40 77.57 47.44 85.03 40.04 93.00 C 32.64 100.97 24.20 109.96 21.29 112.97 C 18.38 115.98 16.00 118.79 16.00 119.22 C 16.00 119.65 15.55 120.00 15.00 120.00 C 14.39 120.00 14.00 115.46 14.00 108.37 Z M 177.81 104.97 C 184.67 100.79 185.54 90.73 179.59 84.26 C 175.28 79.57 170.38 78.59 165.34 81.41 C 160.77 83.97 158.67 87.88 158.57 94.00 C 158.49 98.98 161.62 104.50 165.37 106.01 C 169.07 107.51 174.38 107.06 177.81 104.97 Z M 14.02 71.92 L 14.00 59.33 L 17.29 55.92 C 19.10 54.04 28.60 44.09 38.39 33.81 L 56.21 15.11 L 68.10 14.81 C 74.65 14.64 79.89 14.79 79.75 15.15 C 79.48 15.86 57.73 38.91 37.96 59.46 C 31.06 66.63 22.86 75.20 19.73 78.50 L 14.04 84.50 L 14.02 71.92 Z M 14.22 30.75 L 14.50 15.50 L 29.25 15.22 C 37.36 15.07 44.00 15.25 44.00 15.63 C 44.00 16.00 39.31 21.08 33.58 26.91 C 27.85 32.73 21.49 39.41 19.46 41.75 C 17.42 44.09 15.35 46.00 14.85 46.00 C 14.34 46.00 14.07 39.39 14.22 30.75 Z" fill="none" stroke="rgba(255,255,255,0.92)" stroke-width="1.5" stroke-linejoin="round" fill-rule="evenodd"/>
</svg>
