<svg xmlns="http://www.w3.org/2000/svg" viewBox="0 0 388 400" width="388" height="400">
  <path d="M 0.00 200.00 L 0.00 0.00 L 165.45 0.00 C 304.43 0.00 331.03 0.22 331.70 1.37 C 333.19 3.92 336.80 4.30 338.20 2.05 C 339.33 0.24 340.46 0.00 347.99 0.04 L 356.50 0.09 L 352.05 4.00 C 348.30 7.29 347.87 8.01 349.35 8.58 C 350.32 8.95 352.87 8.46 355.02 7.49 L 358.94 5.72 L 361.87 8.86 C 363.70 10.82 365.78 12.00 367.40 12.00 C 368.83 12.00 370.00 11.74 370.00 11.43 C 370.00 11.12 368.63 8.86 366.95 6.42 C 365.27 3.98 364.17 1.54 364.51 0.99 C 364.84 0.44 369.55 0.00 375.02 0.00 L 384.92 0.00 L 381.96 6.25 C 378.88 12.75 378.36 15.00 379.92 15.00 C 380.42 15.00 381.51 15.26 382.34 15.58 C 383.17 15.89 384.78 15.22 385.92 14.08 L 388.00 12.00 L 388.00 206.00 L 388.00 400.00 L 194.00 400.00 L 0.00 400.00 L 0.00 200.00 Z M 211.00 393.56 C 215.12 393.31 226.15 392.82 235.50 392.47 C 244.85 392.13 256.10 391.68 260.50 391.48 C 264.90 391.28 279.07 390.86 292.00 390.53 C 304.93 390.21 319.32 389.74 324.00 389.49 C 332.76 389.04 353.69 388.14 369.95 387.54 C 375.07 387.34 379.72 386.68 380.35 386.05 C 381.45 384.95 382.30 284.89 381.90 203.50 C 381.82 187.00 381.81 172.71 381.88 171.75 C 382.16 167.71 382.17 165.79 381.96 151.00 C 381.83 142.47 381.91 134.82 382.12 134.00 C 382.45 132.68 375.09 132.50 320.25 132.50 L 258.00 132.50 L 257.78 108.50 C 257.66 95.30 257.50 82.47 257.42 80.00 C 257.35 77.53 257.23 59.98 257.15 41.00 L 257.00 6.50 L 132.00 6.50 C 63.25 6.50 7.00 6.84 6.99 7.25 C 6.99 7.66 6.98 66.83 6.98 138.74 L 6.97 269.47 L 21.73 268.99 C 36.31 268.51 66.49 268.47 160.50 268.82 C 196.69 268.96 213.18 268.62 227.50 267.44 C 244.71 266.02 266.93 265.53 351.75 264.72 L 375.00 264.50 L 375.02 276.50 C 375.15 337.23 374.73 379.61 374.00 380.33 C 373.52 380.80 363.45 381.19 316.00 382.59 C 304.18 382.94 286.51 383.51 276.75 383.86 L 259.00 384.50 L 259.00 327.83 C 259.00 296.66 258.73 270.45 258.39 269.58 C 257.73 267.85 253.48 267.41 252.51 268.98 C 252.18 269.51 251.99 293.48 252.08 322.23 C 252.24 370.75 252.16 384.23 251.69 384.61 C 251.58 384.69 243.40 385.09 233.50 385.49 C 223.60 385.89 213.93 386.32 212.00 386.44 C 210.07 386.56 191.89 387.03 171.59 387.47 C 135.60 388.26 134.70 388.23 135.54 386.39 C 136.01 385.35 136.34 375.05 136.28 363.50 C 135.93 301.31 136.06 305.14 134.22 304.10 C 132.89 303.36 132.37 301.25 131.94 294.82 C 131.64 290.24 131.52 286.31 131.69 286.08 C 132.60 284.86 133.52 287.78 133.66 292.33 C 133.75 295.17 133.86 298.74 133.91 300.25 C 133.96 301.76 134.36 303.00 134.80 303.00 C 135.24 303.00 135.57 295.92 135.55 287.28 L 135.50 271.55 L 132.15 271.28 L 128.81 271.01 L 129.04 330.25 C 129.17 362.84 129.49 390.79 129.74 392.37 L 130.21 395.23 L 166.86 394.63 C 187.01 394.29 206.88 393.81 211.00 393.56 Z M 192.00 390.00 C 192.00 389.45 192.70 389.00 193.56 389.00 C 194.42 389.00 194.84 389.45 194.50 390.00 C 194.16 390.55 193.46 391.00 192.94 391.00 C 192.42 391.00 192.00 390.55 192.00 390.00 Z M 199.00 390.00 C 199.00 389.45 200.24 389.03 201.75 389.07 C 204.19 389.13 204.27 389.24 202.50 390.00 C 199.77 391.17 199.00 391.17 199.00 390.00 Z M 206.47 389.91 C 205.25 389.44 207.33 389.11 211.92 389.07 C 216.00 389.03 219.13 389.20 218.89 389.45 C 218.02 390.31 208.42 390.67 206.47 389.91 Z M 233.00 389.00 C 233.00 388.45 233.93 388.00 235.06 388.00 C 236.19 388.00 236.84 388.45 236.50 389.00 C 236.16 389.55 235.23 390.00 234.44 390.00 C 233.65 390.00 233.00 389.55 233.00 389.00 Z M 248.81 388.32 C 249.53 388.03 250.40 388.06 250.73 388.40 C 251.06 388.73 250.47 388.96 249.42 388.92 C 248.25 388.87 248.01 388.64 248.81 388.32 Z M 261.81 388.32 C 262.53 388.03 263.40 388.06 263.73 388.40 C 264.06 388.73 263.47 388.96 262.42 388.92 C 261.25 388.87 261.01 388.64 261.81 388.32 Z M 318.81 386.32 C 319.53 386.03 320.40 386.06 320.73 386.40 C 321.06 386.73 320.47 386.96 319.42 386.92 C 318.25 386.87 318.01 386.64 318.81 386.32 Z M 322.00 386.00 C 322.00 385.45 322.93 385.00 324.06 385.00 C 325.19 385.00 325.84 385.45 325.50 386.00 C 325.16 386.55 324.23 387.00 323.44 387.00 C 322.65 387.00 322.00 386.55 322.00 386.00 Z M 334.81 385.32 C 335.53 385.03 336.40 385.06 336.73 385.40 C 337.06 385.73 336.47 385.96 335.42 385.92 C 334.25 385.87 334.01 385.64 334.81 385.32 Z M 347.75 384.34 C 348.44 384.06 349.56 384.06 350.25 384.34 C 350.94 384.62 350.38 384.84 349.00 384.84 C 347.62 384.84 347.06 384.62 347.75 384.34 Z M 354.81 384.32 C 355.53 384.03 356.40 384.06 356.73 384.40 C 357.06 384.73 356.47 384.96 355.42 384.92 C 354.25 384.87 354.01 384.64 354.81 384.32 Z M 365.00 383.91 C 365.00 383.41 365.90 383.00 367.00 383.00 C 368.10 383.00 369.00 383.17 369.00 383.38 C 369.00 383.59 368.10 384.00 367.00 384.29 C 365.90 384.58 365.00 384.40 365.00 383.91 Z M 373.53 384.05 C 373.21 383.53 373.83 382.63 374.91 382.05 C 376.22 381.35 377.09 381.33 377.50 382.00 C 377.84 382.55 377.39 383.00 376.50 383.00 C 375.61 383.00 375.16 383.45 375.50 384.00 C 375.84 384.55 375.67 385.00 375.12 385.00 C 374.57 385.00 373.85 384.57 373.53 384.05 Z M 132.00 380.12 C 132.00 379.57 132.45 378.84 133.00 378.50 C 133.55 378.16 134.00 378.33 134.00 378.88 C 134.00 379.43 133.55 380.16 133.00 380.50 C 132.45 380.84 132.00 380.67 132.00 380.12 Z M 377.00 378.94 C 377.00 378.36 377.45 378.16 378.00 378.50 C 378.55 378.84 379.00 379.32 379.00 379.56 C 379.00 379.80 378.55 380.00 378.00 380.00 C 377.45 380.00 377.00 379.52 377.00 378.94 Z M 132.00 373.12 C 132.00 372.02 132.45 370.84 133.00 370.50 C 133.55 370.16 134.00 370.78 134.00 371.88 C 134.00 372.98 133.55 374.16 133.00 374.50 C 132.45 374.84 132.00 374.22 132.00 373.12 Z M 377.00 373.00 C 377.00 371.90 377.45 371.00 378.00 371.00 C 378.55 371.00 379.00 371.90 379.00 373.00 C 379.00 374.10 378.55 375.00 378.00 375.00 C 377.45 375.00 377.00 374.10 377.00 373.00 Z M 132.70 365.35 C 131.92 362.45 131.98 351.84 132.78 350.61 C 133.18 350.00 133.75 353.10 134.05 357.50 C 134.57 365.02 133.81 369.46 132.70 365.35 Z M 255.23 364.00 C 255.23 362.07 255.44 361.29 255.69 362.25 C 255.94 363.21 255.94 364.79 255.69 365.75 C 255.44 366.71 255.23 365.93 255.23 364.00 Z M 378.27 363.00 C 378.27 360.52 378.47 359.51 378.71 360.75 C 378.94 361.99 378.94 364.01 378.71 365.25 C 378.47 366.49 378.27 365.48 378.27 363.00 Z M 255.00 356.00 C 255.00 354.18 255.42 353.14 256.00 353.50 C 256.55 353.84 257.00 354.96 257.00 356.00 C 257.00 357.04 256.55 358.16 256.00 358.50 C 255.42 358.86 255.00 357.82 255.00 356.00 Z M 378.00 356.44 C 378.00 355.58 378.46 355.16 379.02 355.51 C 379.58 355.86 379.77 356.56 379.46 357.07 C 378.60 358.46 378.00 358.20 378.00 356.44 Z M 378.08 352.42 C 378.13 351.25 378.36 351.01 378.68 351.81 C 378.97 352.53 378.94 353.40 378.60 353.73 C 378.27 354.06 378.04 353.47 378.08 352.42 Z M 132.76 348.40 C 131.88 347.00 132.19 328.00 133.09 328.00 C 134.03 328.00 134.73 341.68 134.02 346.00 C 133.71 347.93 133.14 349.01 132.76 348.40 Z M 255.25 345.50 C 255.26 343.30 255.47 342.52 255.71 343.76 C 255.95 345.01 255.94 346.81 255.69 347.76 C 255.44 348.72 255.24 347.70 255.25 345.50 Z M 377.55 347.75 C 377.13 346.79 377.13 345.21 377.55 344.25 C 378.27 342.58 378.33 342.58 378.73 344.25 C 378.96 345.21 378.96 346.79 378.73 347.75 C 378.33 349.42 378.27 349.42 377.55 347.75 Z M 255.23 336.00 C 255.23 334.07 255.44 333.29 255.69 334.25 C 255.94 335.21 255.94 336.79 255.69 337.75 C 255.44 338.71 255.23 337.93 255.23 336.00 Z M 377.58 338.13 C 377.15 337.44 377.07 336.60 377.40 336.27 C 378.29 335.37 379.27 336.69 378.79 338.14 C 378.45 339.15 378.21 339.15 377.58 338.13 Z M 255.00 328.50 C 255.00 327.12 255.39 326.00 255.86 326.00 C 256.34 326.00 256.51 327.12 256.24 328.50 C 255.98 329.88 255.59 331.00 255.38 331.00 C 255.17 331.00 255.00 329.88 255.00 328.50 Z M 255.08 321.42 C 255.13 320.25 255.36 320.01 255.68 320.81 C 255.97 321.53 255.94 322.40 255.60 322.73 C 255.27 323.06 255.04 322.47 255.08 321.42 Z M 132.10 317.25 C 132.04 314.35 132.45 312.00 133.00 312.00 C 134.16 312.00 134.16 316.38 133.00 320.00 C 132.37 321.97 132.18 321.38 132.10 317.25 Z M 255.00 317.00 C 255.00 316.45 255.45 316.00 256.00 316.00 C 256.55 316.00 257.00 316.45 257.00 317.00 C 257.00 317.55 256.55 318.00 256.00 318.00 C 255.45 318.00 255.00 317.55 255.00 317.00 Z M 377.00 316.94 C 377.00 316.36 377.45 316.16 378.00 316.50 C 378.55 316.84 379.00 317.32 379.00 317.56 C 379.00 317.80 378.55 318.00 378.00 318.00 C 377.45 318.00 377.00 317.52 377.00 316.94 Z M 132.16 309.00 C 132.16 307.62 132.38 307.06 132.66 307.75 C 132.94 308.44 132.94 309.56 132.66 310.25 C 132.38 310.94 132.16 310.38 132.16 309.00 Z M 255.08 305.42 C 255.13 304.25 255.36 304.01 255.68 304.81 C 255.97 305.53 255.94 306.40 255.60 306.73 C 255.27 307.06 255.04 306.47 255.08 305.42 Z M 378.08 300.42 C 378.13 299.25 378.36 299.01 378.68 299.81 C 378.97 300.53 378.94 301.40 378.60 301.73 C 378.27 302.06 378.04 301.47 378.08 300.42 Z M 378.08 284.42 C 378.13 283.25 378.36 283.01 378.68 283.81 C 378.97 284.53 378.94 285.40 378.60 285.73 C 378.27 286.06 378.04 285.47 378.08 284.42 Z M 254.02 282.25 C 254.02 281.84 254.47 280.82 255.00 280.00 C 255.78 278.79 255.97 278.93 255.98 280.75 C 255.99 281.99 255.55 283.00 255.00 283.00 C 254.45 283.00 254.01 282.66 254.02 282.25 Z M 132.00 277.00 C 132.00 275.18 132.42 274.14 133.00 274.50 C 133.55 274.84 134.00 275.96 134.00 277.00 C 134.00 278.04 133.55 279.16 133.00 279.50 C 132.42 279.86 132.00 278.82 132.00 277.00 Z M 254.08 272.42 C 254.13 271.25 254.36 271.01 254.68 271.81 C 254.97 272.53 254.94 273.40 254.60 273.73 C 254.27 274.06 254.04 273.47 254.08 272.42 Z M 378.00 266.62 C 378.00 265.79 378.45 264.84 379.00 264.50 C 379.55 264.16 380.00 264.56 380.00 265.38 C 380.00 266.21 379.55 267.16 379.00 267.50 C 378.45 267.84 378.00 267.44 378.00 266.62 Z M 260.00 262.00 C 260.00 261.45 260.70 261.00 261.56 261.00 C 262.42 261.00 262.84 261.45 262.50 262.00 C 262.16 262.55 261.46 263.00 260.94 263.00 C 260.42 263.00 260.00 262.55 260.00 262.00 Z M 334.31 262.35 C 335.33 261.34 341.00 261.13 341.00 262.12 C 341.00 262.60 339.35 263.00 337.33 263.00 C 335.32 263.00 333.96 262.71 334.31 262.35 Z M 273.00 261.00 L 269.50 260.26 L 273.75 260.13 C 276.09 260.06 278.00 260.45 278.00 261.00 C 278.00 261.55 277.66 261.94 277.25 261.87 C 276.84 261.80 274.93 261.41 273.00 261.00 Z M 283.00 261.00 C 280.56 260.22 280.57 260.20 283.50 260.17 C 285.15 260.15 287.40 260.53 288.50 261.00 C 290.32 261.78 290.27 261.86 288.00 261.83 C 286.62 261.81 284.38 261.44 283.00 261.00 Z M 305.81 261.32 C 306.53 261.03 307.40 261.06 307.73 261.40 C 308.06 261.73 307.47 261.96 306.42 261.92 C 305.25 261.87 305.01 261.64 305.81 261.32 Z M 311.00 261.00 L 308.50 260.20 L 311.19 260.10 C 312.67 260.04 314.16 260.45 314.50 261.00 C 315.20 262.14 314.55 262.14 311.00 261.00 Z M 316.50 261.00 C 316.84 260.45 317.32 260.00 317.56 260.00 C 317.80 260.00 318.00 260.45 318.00 261.00 C 318.00 261.55 317.52 262.00 316.94 262.00 C 316.36 262.00 316.16 261.55 316.50 261.00 Z M 14.98 260.50 C 14.96 260.50 14.91 231.18 14.85 195.35 C 14.77 141.56 14.99 129.85 16.12 128.23 C 16.88 127.15 26.27 117.10 36.99 105.89 C 54.34 87.75 66.11 75.67 113.07 27.84 L 125.50 15.18 L 187.10 14.56 L 248.70 13.95 L 249.35 62.23 C 250.79 169.66 251.26 258.00 250.40 258.00 C 249.90 258.01 239.15 258.70 226.50 259.54 C 207.90 260.77 185.48 261.01 109.25 260.78 C 57.41 260.63 14.99 260.50 14.98 260.50 Z M 290.81 260.32 C 291.53 260.03 292.40 260.06 292.73 260.40 C 293.06 260.73 292.47 260.96 291.42 260.92 C 290.25 260.87 290.01 260.64 290.81 260.32 Z M 259.53 257.70 C 259.32 257.04 258.87 230.33 258.51 198.34 L 257.87 140.19 L 260.68 139.70 C 266.08 138.76 373.92 139.07 374.51 140.02 C 375.36 141.40 375.40 255.93 374.56 256.78 C 374.16 257.18 349.68 257.60 320.17 257.73 C 290.65 257.85 265.01 258.17 263.20 258.42 C 261.14 258.71 259.76 258.44 259.53 257.70 Z M 195.40 251.01 C 219.93 249.14 235.06 244.42 239.23 237.34 C 243.18 230.61 243.41 222.09 242.42 122.50 C 241.82 63.08 240.76 44.28 237.59 36.80 C 231.21 21.78 190.67 16.18 161.50 26.29 C 144.48 32.18 143.94 32.65 84.67 92.00 C 39.77 136.96 36.83 140.41 29.02 157.34 C 23.86 168.54 21.00 180.41 20.31 193.54 C 19.59 207.12 20.94 215.58 25.38 225.26 C 35.14 246.57 44.50 249.43 108.50 250.65 C 126.10 250.99 140.63 251.37 140.79 251.50 C 141.72 252.28 183.77 251.90 195.40 251.01 Z M 378.13 246.45 L 378.27 240.50 L 379.00 245.50 C 379.40 248.25 379.34 250.93 378.87 251.45 C 378.37 251.99 378.06 249.86 378.13 246.45 Z M 113.50 243.05 C 56.02 241.63 43.90 239.53 37.23 229.84 C 30.74 220.41 28.09 210.74 28.04 196.38 C 27.97 178.35 35.31 157.10 46.81 142.00 C 49.54 138.43 73.14 114.30 99.26 88.39 C 145.19 42.83 147.01 41.15 154.63 37.53 C 165.31 32.46 174.92 30.17 188.81 29.40 C 203.70 28.57 213.40 29.99 222.00 34.27 C 230.18 38.33 231.55 40.94 232.89 55.00 C 233.99 66.48 235.62 171.15 235.22 204.00 C 234.90 230.03 234.00 233.86 227.44 237.03 C 224.94 238.24 218.08 240.08 212.20 241.12 C 199.07 243.44 160.11 244.20 113.50 243.05 Z M 378.00 229.17 C 378.00 227.43 378.46 226.00 379.02 226.00 C 379.62 226.00 379.77 227.12 379.38 228.75 C 378.44 232.68 378.00 232.81 378.00 229.17 Z M 208.46 223.02 C 213.08 220.78 215.47 217.33 216.43 211.50 C 216.98 208.16 216.66 206.93 214.52 204.02 C 211.36 199.74 208.50 198.08 204.20 198.04 C 196.55 197.95 191.01 203.97 191.00 212.37 C 191.00 216.69 191.43 217.67 194.88 221.12 C 199.38 225.61 202.27 226.02 208.46 223.02 Z M 378.02 212.81 C 378.01 211.88 378.45 210.84 379.00 210.50 C 380.27 209.72 380.27 211.04 379.00 213.00 C 378.16 214.29 378.03 214.27 378.02 212.81 Z M 377.00 178.00 C 377.00 177.45 377.45 177.00 378.00 177.00 C 378.55 177.00 379.00 177.45 379.00 178.00 C 379.00 178.55 378.55 179.00 378.00 179.00 C 377.45 179.00 377.00 178.55 377.00 178.00 Z M 378.00 163.00 C 378.00 162.45 378.48 162.00 379.06 162.00 C 379.64 162.00 379.84 162.45 379.50 163.00 C 379.16 163.55 378.68 164.00 378.44 164.00 C 378.20 164.00 378.00 163.55 378.00 163.00 Z M 377.50 138.00 C 377.84 137.45 378.32 137.00 378.56 137.00 C 378.80 137.00 379.00 137.45 379.00 138.00 C 379.00 138.55 378.52 139.00 377.94 139.00 C 377.36 139.00 377.16 138.55 377.50 138.00 Z M 259.00 136.17 C 259.00 134.97 259.41 134.00 259.91 134.00 C 260.93 134.00 260.78 136.56 259.70 137.64 C 259.31 138.02 259.00 137.36 259.00 136.17 Z M 294.64 135.50 C 294.32 134.68 294.50 134.00 295.03 134.00 C 295.56 134.00 296.00 134.44 296.00 134.97 C 296.00 135.50 296.75 135.65 297.66 135.30 C 298.78 134.87 299.09 135.04 298.61 135.83 C 297.59 137.47 295.32 137.29 294.64 135.50 Z M 311.00 136.03 C 311.00 135.50 311.68 135.32 312.50 135.64 C 313.32 135.95 314.00 136.39 314.00 136.61 C 314.00 136.82 313.32 137.00 312.50 137.00 C 311.68 137.00 311.00 136.56 311.00 136.03 Z M 316.80 135.80 C 317.73 134.87 318.27 134.87 319.20 135.80 C 320.13 136.73 319.87 137.00 318.00 137.00 C 316.13 137.00 315.87 136.73 316.80 135.80 Z M 335.08 136.64 C 336.14 135.73 343.00 135.23 343.00 136.06 C 343.00 136.58 341.12 137.00 338.83 137.00 C 336.54 137.00 334.85 136.84 335.08 136.64 Z M 355.81 136.32 C 356.53 136.03 357.40 136.06 357.73 136.40 C 358.06 136.73 357.47 136.96 356.42 136.92 C 355.25 136.87 355.01 136.64 355.81 136.32 Z M 269.00 135.00 C 269.00 134.45 269.48 134.00 270.06 134.00 C 270.64 134.00 270.84 134.45 270.50 135.00 C 270.16 135.55 269.68 136.00 269.44 136.00 C 269.20 136.00 269.00 135.55 269.00 135.00 Z M 285.00 135.00 C 285.00 134.45 285.87 134.00 286.94 134.00 C 288.01 134.00 289.16 134.45 289.50 135.00 C 289.85 135.57 289.01 136.00 287.56 136.00 C 286.15 136.00 285.00 135.55 285.00 135.00 Z M 303.00 135.00 C 303.00 134.45 303.68 134.00 304.50 134.00 C 305.32 134.00 306.00 134.45 306.00 135.00 C 306.00 135.55 305.32 136.00 304.50 136.00 C 303.68 136.00 303.00 135.55 303.00 135.00 Z M 330.00 135.00 C 328.71 134.16 328.73 134.03 330.19 134.02 C 331.12 134.01 332.16 134.45 332.50 135.00 C 333.28 136.27 331.96 136.27 330.00 135.00 Z M 277.27 134.31 C 278.24 134.05 279.59 134.07 280.27 134.34 C 280.95 134.62 280.15 134.83 278.50 134.81 C 276.85 134.78 276.30 134.56 277.27 134.31 Z M 14.66 104.85 L 14.82 92.70 L 27.23 80.10 C 34.05 73.17 51.27 55.69 65.50 41.25 L 91.36 15.00 L 102.86 15.00 L 114.35 15.00 L 105.98 23.75 C 101.37 28.56 87.45 42.85 75.04 55.50 C 62.64 68.15 44.24 87.16 34.16 97.75 C 24.07 108.34 15.53 117.00 15.16 117.00 C 14.80 117.00 14.57 111.53 14.66 104.85 Z M 363.82 90.25 C 364.12 88.12 363.81 88.00 357.68 88.00 C 352.56 88.00 351.08 88.35 350.57 89.67 C 349.63 92.14 351.83 93.05 358.00 92.76 C 362.85 92.53 363.54 92.23 363.82 90.25 Z M 316.88 88.00 C 318.21 85.63 319.87 84.00 320.94 84.00 C 321.94 84.00 323.36 83.28 324.09 82.39 C 325.22 81.03 325.16 80.59 323.71 79.53 C 322.11 78.36 322.17 77.95 324.61 73.58 C 326.05 71.01 327.07 68.76 326.86 68.60 C 326.66 68.43 318.62 67.08 309.00 65.59 C 299.38 64.11 290.71 62.66 289.75 62.38 C 287.28 61.66 287.52 64.26 290.13 66.60 C 291.30 67.64 296.75 73.79 302.23 80.25 C 307.72 86.71 312.75 92.00 313.42 92.00 C 314.09 92.00 315.64 90.20 316.88 88.00 Z M 343.52 88.92 C 344.34 86.35 344.66 86.58 337.60 84.55 C 332.77 83.17 331.55 83.10 330.87 84.18 C 329.22 86.77 330.07 87.77 335.25 89.29 C 342.26 91.36 342.76 91.34 343.52 88.92 Z M 379.75 88.36 C 387.42 85.60 384.40 81.77 376.42 84.13 C 371.20 85.67 369.69 87.04 370.60 89.40 C 371.28 91.18 372.22 91.07 379.75 88.36 Z M 14.94 80.45 C 14.91 79.93 14.93 74.10 14.98 67.50 L 15.08 55.50 L 35.51 35.03 L 55.94 14.57 L 67.57 14.72 C 73.97 14.80 79.33 15.01 79.48 15.19 C 79.63 15.36 65.19 30.33 47.38 48.45 C 29.57 66.58 14.98 80.98 14.94 80.45 Z M 182.00 49.00 C 182.00 48.45 181.55 48.00 181.00 48.00 C 180.45 48.00 180.00 48.45 180.00 49.00 C 180.00 49.55 180.45 50.00 181.00 50.00 C 181.55 50.00 182.00 49.55 182.00 49.00 Z M 14.92 43.59 C 14.69 43.36 14.64 36.61 14.80 28.59 L 15.10 14.00 L 30.29 14.00 L 45.47 14.00 L 30.50 29.00 C 22.26 37.25 15.48 44.00 15.43 44.00 C 15.38 44.00 15.15 43.81 14.92 43.59 Z" fill="none" stroke="rgba(255,255,255,0.92)" stroke-width="1.5" stroke-linejoin="round" fill-rule="evenodd"/>
</svg>
