<svg xmlns="http://www.w3.org/2000/svg" viewBox="0 0 100 100" width="100" height="100">
  <path d="M 0.00 50.00 L 0.00 0.00 L 50.00 0.00 L 100.00 0.00 L 100.00 50.00 L 100.00 100.00 L 50.00 100.00 L 0.00 100.00 L 0.00 50.00 Z M 54.07 54.06 C 93.59 14.52 96.00 11.91 96.00 8.56 L 96.00 5.00 L 50.50 5.00 L 5.00 5.00 L 5.00 50.50 L 5.00 96.00 L 8.57 96.00 C 11.95 96.00 14.48 93.66 54.07 54.06 Z M 71.32 71.65 C 95.60 47.93 96.14 47.32 95.82 43.75 L 95.50 40.10 L 86.99 48.30 C 82.31 52.81 69.28 65.39 58.03 76.25 L 37.57 96.00 L 42.04 95.95 C 46.50 95.89 46.52 95.87 71.32 71.65 Z M 11.00 79.49 L 11.00 70.49 L 40.80 40.70 L 70.60 10.92 L 79.31 11.21 L 88.02 11.50 L 49.51 50.00 L 11.00 88.49 L 11.00 79.49 Z M 11.09 51.75 L 11.01 42.50 L 26.89 26.75 L 42.78 11.00 L 52.64 11.02 L 62.50 11.03 L 37.00 36.01 C 22.98 49.74 11.42 60.99 11.33 60.99 C 11.24 61.00 11.13 56.84 11.09 51.75 Z M 11.29 22.06 L 11.24 11.12 L 22.62 10.81 C 28.88 10.64 34.00 10.73 34.00 11.02 C 34.00 11.72 12.61 33.00 11.91 33.00 C 11.60 33.00 11.32 28.08 11.29 22.06 Z" fill="none" stroke="rgba(255,255,255,0.92)" stroke-width="1.2" stroke-linejoin="round" fill-rule="evenodd"/>
</svg>
