<svg xmlns="http://www.w3.org/2000/svg" viewBox="0 0 100 100" width="100" height="100">
  <path d="M 0.00 50.00 L 0.00 0.00 L 50.00 0.00 L 100.00 0.00 L 100.00 50.00 L 100.00 100.00 L 50.00 100.00 L 0.00 100.00 L 0.00 50.00 Z M 86.76 65.25 C 86.15 27.01 85.85 25.86 75.31 20.56 C 68.16 16.97 58.44 15.62 45.03 16.34 C 29.31 17.19 14.97 22.00 7.25 29.02 C 4.56 31.46 4.00 32.70 4.00 36.20 L 4.00 40.42 L 8.75 35.77 C 18.62 26.11 34.02 21.40 52.89 22.28 C 69.99 23.07 77.21 26.17 79.16 33.55 C 79.74 35.72 80.44 50.66 80.71 66.75 L 81.22 96.00 L 84.23 96.00 L 87.24 96.00 L 86.76 65.25 Z M 96.00 49.88 L 96.00 3.77 L 93.75 4.37 C 92.51 4.70 71.81 4.98 47.75 4.99 L 4.00 5.00 L 4.00 8.04 L 4.00 11.09 L 48.25 10.95 L 92.50 10.82 L 92.76 53.41 C 92.99 90.35 93.22 96.00 94.51 96.00 C 95.81 96.00 96.00 90.06 96.00 49.88 Z" fill="none" stroke="rgba(255,255,255,0.92)" stroke-width="1.2" stroke-linejoin="round" fill-rule="evenodd"/>
</svg>
