<svg xmlns="http://www.w3.org/2000/svg" viewBox="0 0 100 100" width="100" height="100">
  <path d="M 0.00 50.00 L 0.00 0.00 L 50.00 0.00 L 100.00 0.00 L 100.00 50.00 L 100.00 100.00 L 50.00 100.00 L 0.00 100.00 L 0.00 50.00 Z M 96.00 50.00 C 96.00 13.87 95.73 4.00 94.75 4.00 C 93.77 4.00 93.50 13.62 93.50 48.75 L 93.50 93.50 L 77.00 94.59 L 60.50 95.68 L 78.25 95.84 L 96.00 96.00 L 96.00 50.00 Z M 54.14 87.99 C 66.74 86.76 76.62 84.52 80.91 81.91 C 86.75 78.36 87.36 75.33 87.81 47.55 C 88.03 33.83 87.89 18.41 87.51 13.30 L 86.81 4.00 L 84.04 4.00 L 81.27 4.00 L 81.38 37.92 C 81.50 70.62 81.43 71.94 79.46 74.58 C 78.33 76.09 75.66 77.93 73.53 78.67 C 65.88 81.32 47.23 83.00 25.45 83.00 L 4.00 83.00 L 4.00 86.00 L 4.00 89.00 L 23.89 89.00 C 34.84 89.00 48.45 88.55 54.14 87.99 Z M 63.81 65.50 C 71.36 59.16 66.01 47.26 56.28 48.73 C 52.59 49.29 48.42 53.00 47.80 56.27 C 47.13 59.76 48.82 64.76 51.24 66.46 C 54.65 68.85 60.36 68.41 63.81 65.50 Z" fill="none" stroke="rgba(255,255,255,0.92)" stroke-width="1.2" stroke-linejoin="round" fill-rule="evenodd"/>
</svg>
