<svg xmlns="http://www.w3.org/2000/svg" viewBox="0 0 100 100" width="100" height="100">
  <path d="M 0.00 50.00 L 0.00 0.00 L 50.00 0.00 L 100.00 0.00 L 100.00 50.00 L 100.00 100.00 L 50.00 100.00 L 0.00 100.00 L 0.00 50.00 Z M 96.00 91.00 L 96.00 88.00 L 81.50 88.00 L 67.00 88.00 L 67.00 46.00 L 67.00 4.00 L 63.75 4.00 L 60.50 4.00 L 60.77 46.00 L 61.04 88.00 L 58.52 88.00 L 56.00 88.00 L 56.00 46.00 L 56.00 4.00 L 52.75 4.00 L 49.50 4.00 L 49.85 46.00 L 50.19 88.00 L 47.60 88.00 L 45.00 88.00 L 44.89 68.25 C 44.84 57.39 44.71 46.25 44.62 43.50 C 44.53 40.75 44.35 30.74 44.23 21.25 L 44.00 4.00 L 41.07 4.00 L 38.14 4.00 L 38.32 46.16 L 38.50 88.33 L 36.25 88.50 C 35.01 88.59 33.97 88.18 33.94 87.58 C 33.80 84.83 33.30 45.29 33.16 25.75 L 33.00 4.00 L 29.98 4.00 L 26.96 4.00 L 27.13 45.67 L 27.30 87.35 L 25.11 88.15 C 22.66 89.06 21.91 88.00 22.19 84.00 C 22.29 82.62 22.28 64.06 22.18 42.75 L 22.00 4.00 L 19.00 4.00 L 16.00 4.00 L 16.00 46.00 L 16.00 88.00 L 13.50 88.00 L 11.00 88.00 L 11.00 46.00 L 11.00 4.00 L 8.00 4.00 L 5.00 4.00 L 5.00 49.00 L 5.00 94.00 L 50.50 94.00 L 96.00 94.00 L 96.00 91.00 Z" fill="none" stroke="rgba(255,255,255,0.92)" stroke-width="1.2" stroke-linejoin="round" fill-rule="evenodd"/>
</svg>
