<svg xmlns="http://www.w3.org/2000/svg" viewBox="0 0 100 100" width="100" height="100">
  <path d="M 0.00 50.00 L 0.00 0.00 L 50.00 0.00 L 100.00 0.00 L 100.00 50.00 L 100.00 100.00 L 50.00 100.00 L 0.00 100.00 L 0.00 50.00 Z M 11.00 79.43 L 11.00 62.86 L 13.25 63.18 C 15.70 63.53 15.48 61.34 15.91 90.25 C 16.00 95.95 16.02 96.00 19.00 96.00 L 22.00 96.00 L 22.00 79.50 L 22.00 63.00 L 24.50 63.00 L 27.00 63.00 L 27.00 79.50 L 27.00 96.00 L 30.00 96.00 L 33.00 96.00 L 33.00 78.89 C 33.00 63.70 33.18 61.85 34.58 62.39 C 35.45 62.73 36.58 63.00 37.08 63.00 C 37.60 63.00 38.00 70.15 38.00 79.50 L 38.00 96.00 L 41.00 96.00 L 44.00 96.00 L 44.00 78.89 C 44.00 63.70 44.18 61.85 45.58 62.39 C 46.45 62.73 47.58 63.00 48.08 63.00 C 48.60 63.00 49.00 70.15 49.00 79.50 L 49.00 96.00 L 52.00 96.00 C 55.51 96.00 55.37 96.82 55.45 76.00 L 55.50 62.50 L 57.88 62.50 C 60.41 62.50 60.50 63.31 60.93 91.75 C 61.00 95.82 61.13 96.00 64.09 96.00 L 67.17 96.00 L 66.84 79.52 L 66.50 63.05 L 70.84 62.40 C 73.23 62.04 79.86 61.95 85.59 62.21 L 96.00 62.67 L 96.00 59.84 L 96.00 57.00 L 53.61 57.00 C 15.21 57.00 11.15 56.85 10.58 55.36 C 10.24 54.45 10.19 53.47 10.48 53.18 C 10.78 52.89 30.14 52.45 53.51 52.19 L 96.00 51.73 L 96.00 49.52 C 96.00 47.43 95.46 47.27 86.30 46.66 C 80.96 46.31 61.84 46.32 43.80 46.67 C 13.66 47.26 11.00 47.18 11.00 45.66 C 11.00 44.75 10.89 43.66 10.75 43.25 C 10.42 42.26 7.83 42.33 54.75 42.15 L 96.00 42.00 L 96.00 38.89 L 96.00 35.78 L 53.46 36.15 C 11.31 36.52 10.93 36.50 11.21 34.51 C 11.49 32.59 12.47 32.47 34.00 31.85 C 46.38 31.50 65.39 31.36 76.25 31.54 L 96.00 31.86 L 96.00 28.87 L 96.00 25.89 L 53.75 26.07 C 12.41 26.25 11.49 26.21 11.20 24.29 C 10.92 22.42 11.74 22.28 27.61 21.66 C 36.80 21.30 55.95 21.00 70.16 21.00 L 96.00 21.00 L 96.00 18.61 C 96.00 17.29 95.44 16.02 94.75 15.79 C 94.06 15.56 85.17 15.47 75.00 15.59 C 13.46 16.35 11.52 16.31 11.20 14.23 C 10.93 12.49 11.77 12.25 20.10 11.65 C 25.17 11.29 44.31 11.00 62.65 11.00 L 96.00 11.00 L 96.00 8.00 L 96.00 5.00 L 67.75 5.12 C 52.21 5.19 31.68 5.53 22.13 5.87 L 4.76 6.50 L 4.81 37.00 C 4.84 53.77 4.90 73.91 4.93 81.75 L 5.00 96.00 L 8.00 96.00 L 11.00 96.00 L 11.00 79.43 Z" fill="none" stroke="rgba(255,255,255,0.92)" stroke-width="1.2" stroke-linejoin="round" fill-rule="evenodd"/>
</svg>
