<svg xmlns="http://www.w3.org/2000/svg" viewBox="0 0 100 100" width="100" height="100">
  <path d="M 0.00 50.00 L 0.00 0.00 L 50.00 0.00 L 100.00 0.00 L 100.00 50.00 L 100.00 100.00 L 50.00 100.00 L 0.00 100.00 L 0.00 50.00 Z M 11.04 80.25 C 11.06 71.59 11.11 58.20 11.15 50.50 C 11.20 42.80 11.18 29.19 11.12 20.25 L 11.00 4.00 L 8.00 4.00 L 5.00 4.00 L 5.00 50.00 L 5.00 96.00 L 8.00 96.00 L 11.00 96.00 L 11.04 80.25 Z M 71.81 95.25 C 63.19 95.09 48.79 95.09 39.81 95.25 C 30.84 95.42 37.90 95.55 55.50 95.55 C 73.10 95.55 80.44 95.42 71.81 95.25 Z M 96.00 85.15 L 96.00 82.30 L 73.75 81.65 C 44.82 80.80 34.85 79.09 30.29 74.18 C 17.24 60.14 19.17 30.21 34.49 8.89 L 38.00 4.00 L 34.23 4.00 C 30.65 4.00 30.25 4.34 26.34 10.75 C 12.06 34.14 11.93 63.65 26.03 78.72 C 31.89 84.98 46.57 87.47 79.75 87.83 L 96.00 88.00 L 96.00 85.15 Z" fill="none" stroke="rgba(255,255,255,0.92)" stroke-width="1.2" stroke-linejoin="round" fill-rule="evenodd"/>
</svg>
