<svg xmlns="http://www.w3.org/2000/svg" viewBox="0 0 400 214" width="400" height="214">
  <path d="M 0.00 107.00 L 0.00 0.00 L 200.00 0.00 L 400.00 0.00 L 400.00 107.00 L 400.00 214.00 L 200.00 214.00 L 0.00 214.00 L 0.00 107.00 Z M 395.83 207.13 C 396.02 205.83 395.71 204.31 395.16 203.76 C 394.47 203.07 394.53 202.13 395.32 200.84 C 396.25 199.34 396.21 198.76 395.15 198.10 C 394.11 197.45 394.05 196.78 394.90 195.19 C 396.28 192.60 396.34 186.00 394.98 186.00 C 394.37 186.00 394.24 184.91 394.66 183.25 C 395.62 179.50 395.32 176.61 393.93 176.14 C 393.09 175.86 393.12 175.55 394.03 174.98 C 395.14 174.29 395.56 169.56 395.03 163.50 L 394.86 161.50 L 394.00 163.50 L 393.14 165.50 L 392.95 163.50 C 392.67 160.49 393.09 158.57 394.19 157.89 C 394.73 157.55 395.06 156.43 394.93 155.39 C 394.80 154.35 395.04 152.71 395.46 151.74 C 395.89 150.75 395.74 149.39 395.12 148.65 C 394.51 147.91 394.28 147.05 394.61 146.72 C 395.06 146.27 395.24 115.90 394.82 110.50 C 394.78 109.95 394.92 108.83 395.12 108.00 C 395.45 106.68 389.57 106.50 346.63 106.50 L 297.76 106.50 L 298.33 100.32 C 298.74 95.94 298.56 94.02 297.71 93.73 C 296.83 93.43 296.79 92.94 297.58 91.91 C 298.33 90.94 298.63 77.20 298.54 48.00 L 298.40 5.50 L 157.95 5.62 C 80.70 5.69 14.62 6.14 11.11 6.62 L 4.72 7.50 L 4.90 106.99 C 5.00 161.72 5.41 206.79 5.79 207.16 C 6.18 207.54 50.82 207.99 105.00 208.17 C 159.18 208.35 210.25 208.72 218.50 209.00 C 226.75 209.28 269.95 209.50 314.50 209.50 L 395.50 209.50 L 395.83 207.13 Z M 213.50 207.00 C 213.84 206.45 214.32 206.00 214.56 206.00 C 214.80 206.00 215.00 206.45 215.00 207.00 C 215.00 207.55 214.52 208.00 213.94 208.00 C 213.36 208.00 213.16 207.55 213.50 207.00 Z M 221.50 207.11 C 219.30 206.77 217.95 206.23 218.50 205.91 C 219.96 205.04 228.00 206.05 228.00 207.11 C 228.00 208.06 227.73 208.06 221.50 207.11 Z M 234.57 206.89 C 234.83 206.46 237.78 206.12 241.11 206.13 C 244.44 206.15 246.94 206.39 246.66 206.67 C 245.81 207.52 234.04 207.74 234.57 206.89 Z M 253.35 206.76 C 253.08 206.32 256.04 206.09 259.93 206.23 C 263.82 206.38 267.00 206.83 267.00 207.23 C 267.00 208.21 253.97 207.77 253.35 206.76 Z M 269.00 207.00 C 269.00 206.45 269.68 206.00 270.50 206.00 C 271.32 206.00 272.00 206.45 272.00 207.00 C 272.00 207.55 271.32 208.00 270.50 208.00 C 269.68 208.00 269.00 207.55 269.00 207.00 Z M 280.51 206.98 C 280.86 206.42 281.56 206.23 282.07 206.54 C 283.46 207.40 283.20 208.00 281.44 208.00 C 280.58 208.00 280.16 207.54 280.51 206.98 Z M 284.00 207.00 C 284.00 206.45 284.68 206.00 285.50 206.00 C 286.32 206.00 287.00 206.45 287.00 207.00 C 287.00 207.55 286.32 208.00 285.50 208.00 C 284.68 208.00 284.00 207.55 284.00 207.00 Z M 290.50 207.00 C 290.16 206.45 290.61 206.00 291.50 206.00 C 292.39 206.00 292.84 206.45 292.50 207.00 C 292.16 207.55 291.71 208.00 291.50 208.00 C 291.29 208.00 290.84 207.55 290.50 207.00 Z M 295.20 207.32 C 297.58 206.69 298.22 203.99 298.05 195.15 C 297.97 190.94 297.93 186.82 297.98 186.00 C 298.72 171.01 298.31 152.25 297.21 150.87 C 296.14 149.53 296.16 149.15 297.33 148.71 C 298.44 148.28 298.65 146.29 298.34 139.33 C 297.99 131.58 297.87 124.93 298.01 120.00 C 298.03 119.17 298.00 116.70 297.93 114.50 C 297.76 108.27 297.86 108.00 300.25 108.03 C 302.26 108.06 302.31 108.17 300.75 109.08 C 297.77 110.82 298.80 111.59 303.75 111.34 C 306.36 111.21 309.34 111.08 310.36 111.05 C 311.59 111.02 312.02 110.49 311.64 109.50 C 311.29 108.60 311.63 108.00 312.47 108.00 C 314.38 108.00 315.32 109.71 313.76 110.34 C 312.32 110.92 343.73 111.51 351.36 111.05 C 351.83 111.02 351.95 110.33 351.64 109.50 C 351.32 108.68 351.50 108.00 352.03 108.00 C 352.56 108.00 353.00 108.62 353.00 109.38 C 353.00 111.47 355.04 111.66 373.57 111.32 L 390.64 111.01 L 390.80 124.25 C 390.89 131.54 390.97 138.18 390.99 139.00 C 391.01 139.82 390.87 153.78 390.68 170.00 C 390.49 186.22 390.70 200.51 391.14 201.75 C 391.89 203.82 391.66 204.00 388.23 204.03 C 386.18 204.05 365.26 204.03 341.75 204.00 C 298.48 203.94 298.36 203.95 298.88 207.25 C 298.95 207.66 297.76 207.95 296.25 207.88 C 294.65 207.82 294.21 207.58 295.20 207.32 Z M 300.50 207.00 C 300.16 206.45 300.36 206.00 300.94 206.00 C 301.52 206.00 302.00 206.45 302.00 207.00 C 302.00 207.55 301.80 208.00 301.56 208.00 C 301.32 208.00 300.84 207.55 300.50 207.00 Z M 304.00 206.81 C 304.00 206.43 306.25 206.13 309.00 206.15 C 311.75 206.17 313.75 206.60 313.44 207.10 C 312.80 208.14 304.01 207.86 304.00 206.81 Z M 315.44 207.10 C 315.81 206.49 317.74 206.00 319.73 206.00 C 324.19 206.00 323.41 207.03 318.45 207.70 C 315.92 208.04 314.98 207.85 315.44 207.10 Z M 327.19 206.81 C 329.69 206.15 331.46 206.17 332.69 206.89 C 334.11 207.71 333.31 207.92 329.00 207.87 C 323.52 207.79 323.51 207.79 327.19 206.81 Z M 340.50 207.00 C 340.84 206.45 341.88 206.01 342.81 206.02 C 344.27 206.03 344.29 206.16 343.00 207.00 C 341.04 208.27 339.72 208.27 340.50 207.00 Z M 345.50 207.00 C 345.84 206.45 347.02 206.00 348.12 206.00 C 349.22 206.00 349.84 206.45 349.50 207.00 C 349.16 207.55 347.98 208.00 346.88 208.00 C 345.78 208.00 345.16 207.55 345.50 207.00 Z M 352.00 206.91 C 352.00 206.41 352.90 206.00 354.00 206.00 C 355.10 206.00 356.00 206.17 356.00 206.38 C 356.00 206.59 355.10 207.00 354.00 207.29 C 352.90 207.58 352.00 207.40 352.00 206.91 Z M 357.47 207.04 C 357.80 206.52 358.72 206.34 359.53 206.65 C 361.60 207.44 361.36 208.00 358.94 208.00 C 357.81 208.00 357.15 207.57 357.47 207.04 Z M 374.50 207.00 C 374.84 206.45 375.32 206.00 375.56 206.00 C 375.80 206.00 376.00 206.45 376.00 207.00 C 376.00 207.55 375.52 208.00 374.94 208.00 C 374.36 208.00 374.16 207.55 374.50 207.00 Z M 386.00 207.00 C 384.79 206.22 384.95 206.03 386.81 206.02 C 388.10 206.01 388.84 206.44 388.50 207.00 C 387.76 208.20 387.86 208.20 386.00 207.00 Z M 202.51 205.98 C 202.86 205.42 203.56 205.23 204.07 205.54 C 205.46 206.40 205.20 207.00 203.44 207.00 C 202.58 207.00 202.16 206.54 202.51 205.98 Z M 206.00 206.00 C 206.00 205.45 206.68 205.00 207.50 205.00 C 208.32 205.00 209.00 205.45 209.00 206.00 C 209.00 206.55 208.32 207.00 207.50 207.00 C 206.68 207.00 206.00 206.55 206.00 206.00 Z M 229.81 206.32 C 230.53 206.03 231.40 206.06 231.73 206.40 C 232.06 206.73 231.47 206.96 230.42 206.92 C 229.25 206.87 229.01 206.64 229.81 206.32 Z M 334.81 206.32 C 335.53 206.03 336.40 206.06 336.73 206.40 C 337.06 206.73 336.47 206.96 335.42 206.92 C 334.25 206.87 334.01 206.64 334.81 206.32 Z M 380.81 206.32 C 381.53 206.03 382.40 206.06 382.73 206.40 C 383.06 206.73 382.47 206.96 381.42 206.92 C 380.25 206.87 380.01 206.64 380.81 206.32 Z M 202.24 157.11 C 202.49 111.42 202.54 110.52 204.50 110.15 C 205.60 109.94 206.77 109.35 207.09 108.83 C 207.74 107.81 208.94 107.71 216.75 108.04 C 223.06 108.31 223.70 109.73 217.75 110.27 C 212.31 110.76 244.76 111.29 269.41 111.11 C 281.61 111.02 288.80 110.58 289.66 109.87 C 290.66 109.04 291.00 109.07 291.00 109.98 C 291.00 110.66 291.60 110.98 292.34 110.70 C 293.44 110.28 293.63 115.98 293.40 143.31 C 293.24 161.53 293.49 175.82 293.95 175.08 C 294.60 174.03 295.04 174.20 295.93 175.86 C 296.58 177.08 296.66 178.00 296.12 178.00 C 295.59 178.00 294.94 177.44 294.66 176.75 C 293.94 174.97 293.44 181.93 293.12 197.81 L 293.00 204.11 L 247.49 203.91 L 201.98 203.70 L 202.24 157.11 Z M 185.92 202.62 C 185.69 202.41 159.00 201.98 126.62 201.66 C 94.24 201.34 67.59 200.92 67.40 200.73 C 67.21 200.54 66.93 170.30 66.78 133.53 L 66.50 66.68 L 128.50 67.42 C 162.60 67.82 191.62 68.23 193.00 68.33 L 195.50 68.50 L 195.76 135.75 L 196.01 203.00 L 191.17 203.00 C 188.51 203.00 186.15 202.83 185.92 202.62 Z M 11.67 201.33 C 10.87 200.53 10.76 68.58 11.56 67.78 C 11.86 67.47 12.94 67.43 13.96 67.70 C 15.72 68.16 15.80 71.01 15.94 135.09 C 16.08 199.90 16.03 202.00 14.21 202.00 C 13.18 202.00 12.03 201.70 11.67 201.33 Z M 22.73 201.40 C 22.40 201.07 22.09 170.69 22.04 133.90 L 21.94 67.00 L 24.47 67.00 L 27.00 67.00 L 27.10 114.25 C 27.25 188.49 27.17 199.92 26.50 200.99 C 25.82 202.11 23.67 202.34 22.73 201.40 Z M 33.93 201.82 C 33.89 201.64 33.61 171.24 33.31 134.25 L 32.75 67.00 L 35.38 67.00 L 38.00 67.00 L 38.09 96.75 C 38.14 113.11 38.26 143.38 38.34 164.00 L 38.50 201.50 L 36.25 201.82 C 35.01 202.00 33.97 202.00 33.93 201.82 Z M 44.99 195.61 C 44.99 192.25 44.69 161.94 44.34 128.25 L 43.68 67.00 L 46.34 67.00 L 49.00 67.00 L 49.01 75.25 C 49.02 79.79 49.31 109.87 49.66 142.11 L 50.28 200.71 L 47.64 201.22 C 45.02 201.72 45.00 201.68 44.99 195.61 Z M 57.75 201.25 C 56.11 200.88 56.00 197.75 55.93 153.68 C 55.89 127.73 55.65 97.61 55.39 86.75 L 54.92 67.00 L 57.75 67.00 L 60.58 67.00 L 60.86 133.90 C 61.01 170.69 60.77 200.99 60.32 201.22 C 59.87 201.46 58.71 201.47 57.75 201.25 Z M 392.85 193.25 C 392.35 190.78 392.62 186.00 393.25 186.00 C 393.66 186.00 394.00 187.80 394.00 190.00 C 394.00 193.47 393.29 195.46 392.85 193.25 Z M 295.00 181.50 C 295.00 180.68 295.18 180.00 295.39 180.00 C 295.61 180.00 296.05 180.68 296.36 181.50 C 296.68 182.32 296.50 183.00 295.97 183.00 C 295.44 183.00 295.00 182.32 295.00 181.50 Z M 295.64 172.50 C 295.32 171.68 295.50 171.00 296.03 171.00 C 296.56 171.00 297.00 171.68 297.00 172.50 C 297.00 173.32 296.82 174.00 296.61 174.00 C 296.39 174.00 295.95 173.32 295.64 172.50 Z M 392.54 173.07 C 392.23 172.56 392.42 171.86 392.98 171.51 C 393.54 171.16 394.00 171.58 394.00 172.44 C 394.00 174.20 393.40 174.46 392.54 173.07 Z M 295.00 167.94 C 295.00 167.36 295.45 167.16 296.00 167.50 C 296.55 167.84 297.00 168.32 297.00 168.56 C 297.00 168.80 296.55 169.00 296.00 169.00 C 295.45 169.00 295.00 168.52 295.00 167.94 Z M 296.23 162.00 C 296.23 160.07 296.44 159.29 296.69 160.25 C 296.94 161.21 296.94 162.79 296.69 163.75 C 296.44 164.71 296.23 163.93 296.23 162.00 Z M 295.74 155.11 C 295.47 154.07 295.63 152.61 296.11 151.86 C 296.69 150.94 296.97 151.54 296.98 153.75 C 297.00 157.39 296.48 157.96 295.74 155.11 Z M 392.00 148.94 C 392.00 148.36 392.45 148.16 393.00 148.50 C 393.55 148.84 394.00 149.32 394.00 149.56 C 394.00 149.80 393.55 150.00 393.00 150.00 C 392.45 150.00 392.00 149.52 392.00 148.94 Z M 295.10 145.31 C 295.15 144.31 295.56 142.38 296.00 141.00 C 296.72 138.75 296.81 138.88 296.90 142.19 C 296.96 144.22 296.55 146.16 296.00 146.50 C 295.45 146.84 295.04 146.30 295.10 145.31 Z M 392.50 132.00 C 392.16 131.45 392.36 131.00 392.94 131.00 C 393.52 131.00 394.00 131.45 394.00 132.00 C 394.00 132.55 393.80 133.00 393.56 133.00 C 393.32 133.00 392.84 132.55 392.50 132.00 Z M 392.08 122.42 C 392.13 121.25 392.36 121.01 392.68 121.81 C 392.97 122.53 392.94 123.40 392.60 123.73 C 392.27 124.06 392.04 123.47 392.08 122.42 Z M 212.00 110.00 C 212.00 109.45 211.58 109.00 211.06 109.00 C 210.54 109.00 209.84 109.45 209.50 110.00 C 209.16 110.55 209.58 111.00 210.44 111.00 C 211.30 111.00 212.00 110.55 212.00 110.00 Z M 223.38 108.80 C 222.45 107.29 223.40 107.01 226.55 107.86 L 229.50 108.66 L 226.73 109.19 C 225.20 109.49 223.69 109.31 223.38 108.80 Z M 230.81 109.32 C 231.53 109.03 232.40 109.06 232.73 109.40 C 233.06 109.73 232.47 109.96 231.42 109.92 C 230.25 109.87 230.01 109.64 230.81 109.32 Z M 256.00 109.00 C 254.72 108.17 254.75 108.03 256.25 108.02 C 257.21 108.01 258.00 108.45 258.00 109.00 C 258.00 110.22 257.89 110.22 256.00 109.00 Z M 262.50 109.00 C 260.57 108.17 260.58 108.14 262.69 108.07 C 263.90 108.03 265.16 108.45 265.50 109.00 C 266.23 110.18 265.25 110.18 262.50 109.00 Z M 275.96 108.95 C 274.98 108.33 276.54 108.03 280.75 108.02 C 284.19 108.01 287.00 108.37 287.00 108.83 C 287.00 109.98 277.75 110.09 275.96 108.95 Z M 306.81 109.32 C 307.53 109.03 308.40 109.06 308.73 109.40 C 309.06 109.73 308.47 109.96 307.42 109.92 C 306.25 109.87 306.01 109.64 306.81 109.32 Z M 335.50 109.00 C 335.84 108.45 337.10 108.01 338.31 108.02 C 340.09 108.03 340.22 108.21 339.00 109.00 C 337.03 110.27 334.71 110.27 335.50 109.00 Z M 356.00 109.00 C 356.00 108.45 356.45 108.00 357.00 108.00 C 357.55 108.00 358.00 108.45 358.00 109.00 C 358.00 109.55 357.55 110.00 357.00 110.00 C 356.45 110.00 356.00 109.55 356.00 109.00 Z M 360.00 109.00 C 360.00 107.83 360.77 107.83 363.50 109.00 C 365.27 109.76 365.19 109.87 362.75 109.93 C 361.24 109.97 360.00 109.55 360.00 109.00 Z M 375.92 108.91 C 377.52 108.27 378.69 108.29 379.37 108.97 C 380.08 109.68 379.32 109.98 376.95 109.94 C 373.71 109.88 373.65 109.81 375.92 108.91 Z M 391.00 109.00 C 391.00 108.45 391.48 108.00 392.06 108.00 C 392.64 108.00 392.84 108.45 392.50 109.00 C 392.16 109.55 391.68 110.00 391.44 110.00 C 391.20 110.00 391.00 109.55 391.00 109.00 Z M 202.50 108.00 C 202.16 107.45 202.61 107.00 203.50 107.00 C 204.39 107.00 204.84 107.45 204.50 108.00 C 204.16 108.55 203.71 109.00 203.50 109.00 C 203.29 109.00 202.84 108.55 202.50 108.00 Z M 234.81 108.32 C 235.53 108.03 236.40 108.06 236.73 108.40 C 237.06 108.73 236.47 108.96 235.42 108.92 C 234.25 108.87 234.01 108.64 234.81 108.32 Z M 245.81 108.32 C 246.53 108.03 247.40 108.06 247.73 108.40 C 248.06 108.73 247.47 108.96 246.42 108.92 C 245.25 108.87 245.01 108.64 245.81 108.32 Z M 293.52 107.61 C 294.56 106.85 296.08 106.48 296.88 106.79 C 298.05 107.23 297.96 107.51 296.43 108.10 C 293.05 109.43 291.41 109.15 293.52 107.61 Z M 330.81 108.32 C 331.53 108.03 332.40 108.06 332.73 108.40 C 333.06 108.73 332.47 108.96 331.42 108.92 C 330.25 108.87 330.01 108.64 330.81 108.32 Z M 344.25 108.31 C 345.21 108.06 346.79 108.06 347.75 108.31 C 348.71 108.56 347.93 108.77 346.00 108.77 C 344.07 108.77 343.29 108.56 344.25 108.31 Z M 207.75 105.20 L 202.00 104.90 L 202.00 56.92 L 202.00 8.94 L 204.25 8.09 C 205.87 7.48 206.59 7.63 206.82 8.62 C 207.00 9.38 208.13 9.99 209.32 9.98 C 210.96 9.97 211.15 9.75 210.12 9.09 C 209.01 8.40 209.12 8.12 210.62 7.73 C 214.42 6.75 228.00 6.98 228.00 8.03 C 228.00 8.75 228.61 8.74 229.97 8.02 C 232.23 6.80 240.00 7.76 240.00 9.25 C 240.00 9.80 240.71 9.65 241.58 8.93 C 243.60 7.26 246.63 6.95 250.74 8.00 C 252.53 8.46 254.17 8.53 254.40 8.16 C 254.89 7.36 270.56 7.61 271.90 8.44 C 272.41 8.75 273.50 8.74 274.34 8.42 C 275.18 8.10 280.62 7.76 286.43 7.67 C 294.56 7.54 297.00 7.80 297.00 8.81 C 297.00 9.53 296.58 9.86 296.07 9.54 C 295.56 9.23 294.82 9.48 294.43 10.11 C 294.04 10.74 293.73 32.61 293.74 58.70 L 293.76 106.15 L 253.63 105.83 C 231.56 105.65 210.91 105.37 207.75 105.20 Z M 295.02 97.31 C 295.02 96.86 295.47 95.83 296.00 95.00 C 296.84 93.71 296.97 93.73 296.98 95.19 C 296.99 96.12 296.55 97.16 296.00 97.50 C 295.45 97.84 295.01 97.75 295.02 97.31 Z M 295.71 63.00 C 295.42 61.90 295.60 60.75 296.09 60.44 C 296.59 60.13 297.00 61.03 297.00 62.44 C 297.00 65.51 296.43 65.75 295.71 63.00 Z M 69.85 61.24 C 16.64 61.01 11.15 60.83 10.58 59.35 C 10.24 58.45 10.23 57.44 10.56 57.11 C 11.50 56.16 111.00 55.92 155.50 56.75 C 194.58 57.48 195.50 57.55 195.50 59.50 C 195.50 61.77 193.96 61.79 69.85 61.24 Z M 295.63 54.75 C 294.81 51.69 294.84 44.51 295.67 45.34 C 296.34 46.01 297.18 57.00 296.56 57.00 C 296.38 57.00 295.96 55.99 295.63 54.75 Z M 78.86 50.24 C 12.94 49.99 11.22 49.94 10.72 48.05 C 10.45 46.99 10.45 45.89 10.72 45.61 C 11.50 44.83 111.40 44.85 156.25 45.62 L 196.00 46.32 L 196.00 48.67 L 196.00 51.02 L 171.25 50.76 C 157.64 50.62 116.06 50.38 78.86 50.24 Z M 296.31 36.50 C 296.32 33.20 296.50 31.97 296.72 33.77 C 296.95 35.57 296.94 38.27 296.71 39.77 C 296.49 41.27 296.30 39.80 296.31 36.50 Z M 11.00 37.39 C 11.00 35.63 11.78 35.16 15.64 34.64 C 21.76 33.80 140.95 33.82 171.89 34.66 C 195.69 35.31 196.09 35.36 195.80 37.41 L 195.50 39.50 L 103.25 39.50 L 11.00 39.50 L 11.00 37.39 Z M 11.42 28.08 C 11.19 27.85 11.00 26.90 11.00 25.97 C 11.00 24.59 12.38 24.15 18.46 23.60 C 26.98 22.83 187.78 22.95 192.80 23.73 C 195.37 24.13 196.04 24.67 195.80 26.17 C 195.51 28.05 193.42 28.09 103.67 28.29 C 53.16 28.41 11.65 28.31 11.42 28.08 Z M 295.50 26.00 C 295.16 25.45 295.36 25.00 295.94 25.00 C 296.52 25.00 297.00 25.45 297.00 26.00 C 297.00 26.55 296.80 27.00 296.56 27.00 C 296.32 27.00 295.84 26.55 295.50 26.00 Z M 11.72 17.39 C 11.33 16.99 11.00 15.88 11.00 14.91 C 11.00 13.49 12.17 13.05 17.25 12.60 C 25.40 11.87 94.64 11.43 151.25 11.75 L 196.00 12.00 L 196.00 14.50 L 196.00 16.99 L 106.25 17.00 C 56.89 17.01 15.59 17.26 14.47 17.56 C 13.36 17.87 12.12 17.79 11.72 17.39 Z M 214.73 10.40 C 214.40 10.06 213.53 10.03 212.81 10.32 C 212.01 10.64 212.25 10.87 213.42 10.92 C 214.47 10.96 215.06 10.73 214.73 10.40 Z" fill="none" stroke="rgba(255,255,255,0.92)" stroke-width="1.5" stroke-linejoin="round" fill-rule="evenodd"/>
</svg>
