<svg xmlns="http://www.w3.org/2000/svg" viewBox="0 0 100 100" width="100" height="100">
  <path d="M 0.00 50.00 L 0.00 0.00 L 50.00 0.00 L 100.00 0.00 L 100.00 50.00 L 100.00 100.00 L 50.00 100.00 L 0.00 100.00 L 0.00 50.00 Z M 10.81 50.00 L 10.50 4.01 L 7.75 4.00 C 4.71 4.00 5.00 2.26 4.70 22.50 C 4.66 25.25 4.71 42.91 4.82 61.75 L 5.00 96.00 L 8.06 96.00 L 11.12 96.00 L 10.81 50.00 Z M 21.35 89.25 C 21.24 85.54 21.12 64.84 21.08 43.25 L 21.00 4.00 L 18.01 4.00 L 15.02 4.00 L 15.45 49.75 C 15.69 74.91 15.91 95.61 15.94 95.75 C 15.97 95.89 17.25 96.00 18.77 96.00 L 21.54 96.00 L 21.35 89.25 Z M 32.35 56.25 C 32.13 34.39 31.96 13.69 31.97 10.25 C 32.00 4.09 31.96 4.00 29.25 4.00 L 26.50 4.00 L 26.71 35.25 C 26.83 52.44 26.94 73.14 26.96 81.25 L 27.00 96.00 L 29.88 96.00 L 32.76 96.00 L 32.35 56.25 Z M 43.84 50.00 L 43.50 4.00 L 40.75 4.00 L 38.00 4.00 L 38.00 50.00 L 38.00 96.00 L 41.09 96.00 L 44.18 96.00 L 43.84 50.00 Z M 55.00 50.00 L 55.00 4.00 L 52.00 4.00 L 49.00 4.00 L 49.00 50.00 L 49.00 96.00 L 52.00 96.00 L 55.00 96.00 L 55.00 50.00 Z M 66.00 50.00 L 66.00 4.00 L 63.00 4.00 L 60.00 4.00 L 60.00 50.00 L 60.00 96.00 L 63.00 96.00 L 66.00 96.00 L 66.00 50.00 Z" fill="none" stroke="rgba(255,255,255,0.92)" stroke-width="1.2" stroke-linejoin="round" fill-rule="evenodd"/>
</svg>
