<svg xmlns="http://www.w3.org/2000/svg" viewBox="0 0 100 100" width="100" height="100">
  <path d="M 0.00 50.00 L 0.00 0.00 L 50.00 0.00 L 100.00 0.00 L 100.00 50.00 L 100.00 100.00 L 50.00 100.00 L 0.00 100.00 L 0.00 50.00 Z M 64.25 66.12 L 96.00 66.00 L 96.00 62.86 L 96.00 59.72 L 52.25 60.34 C 28.19 60.68 7.49 60.97 6.25 60.98 C 4.56 61.00 4.00 61.59 4.00 63.33 C 4.00 64.62 4.20 65.87 4.45 66.12 C 4.70 66.37 11.11 66.49 18.70 66.40 C 26.29 66.31 46.79 66.18 64.25 66.12 Z M 79.75 55.01 L 96.00 55.00 L 96.00 51.85 L 96.00 48.70 L 74.75 49.34 C 63.06 49.69 42.36 49.98 28.75 49.99 L 4.00 50.00 L 4.00 53.16 L 4.00 56.31 L 33.75 55.67 C 50.11 55.31 70.81 55.01 79.75 55.01 Z M 80.84 44.34 L 96.00 43.69 L 96.00 41.09 L 96.00 38.50 L 87.25 38.64 C 82.44 38.72 61.74 38.83 41.25 38.89 L 4.00 39.00 L 4.00 42.00 L 4.00 45.00 L 34.84 45.00 C 51.80 45.00 72.50 44.70 80.84 44.34 Z M 58.25 34.03 L 96.00 34.00 L 96.00 30.86 L 96.00 27.71 L 50.25 28.33 C 25.09 28.67 4.39 28.96 4.25 28.97 C 4.11 28.99 4.00 30.09 4.00 31.43 C 4.00 34.26 5.46 34.66 14.50 34.30 C 17.80 34.17 37.49 34.05 58.25 34.03 Z M 78.25 23.01 L 96.00 23.00 L 96.00 19.84 L 96.00 16.68 L 60.25 17.33 C 40.59 17.69 19.89 17.99 14.25 17.99 L 4.00 18.00 L 4.00 21.15 L 4.00 24.30 L 32.25 23.66 C 47.79 23.31 68.49 23.02 78.25 23.01 Z M 74.75 12.00 L 96.00 12.00 L 96.00 8.85 L 96.00 5.70 L 72.25 6.34 C 59.19 6.69 38.49 6.98 26.25 6.99 L 4.00 7.00 L 4.00 10.16 L 4.00 13.32 L 28.75 12.66 C 42.36 12.30 63.06 12.00 74.75 12.00 Z" fill="none" stroke="rgba(255,255,255,0.92)" stroke-width="1.2" stroke-linejoin="round" fill-rule="evenodd"/>
</svg>
