<svg xmlns="http://www.w3.org/2000/svg" viewBox="0 0 100 100" width="100" height="100">
  <path d="M 0.00 50.00 L 0.00 0.00 L 50.00 0.00 L 100.00 0.00 L 100.00 50.00 L 100.00 100.00 L 50.00 100.00 L 0.00 100.00 L 0.00 50.00 Z M 95.76 50.25 L 95.50 4.50 L 88.50 4.72 C 84.65 4.83 64.06 5.22 42.75 5.58 L 4.00 6.23 L 4.00 9.26 L 4.00 12.28 L 31.75 11.64 C 89.33 10.32 89.46 10.32 89.80 12.68 C 90.23 15.57 88.69 15.78 65.50 15.99 C 54.50 16.08 42.35 16.34 38.50 16.56 C 34.65 16.77 25.31 16.96 17.75 16.98 L 4.00 17.00 L 4.00 20.15 L 4.00 23.29 L 24.25 22.65 C 53.79 21.71 89.41 21.73 89.71 22.68 C 90.62 25.58 87.92 26.00 64.94 26.52 C 52.05 26.81 34.30 27.25 25.50 27.49 C 16.70 27.73 8.26 27.95 6.75 27.97 C 4.35 28.00 4.00 28.39 4.00 31.09 L 4.00 34.19 L 8.75 33.64 C 11.36 33.34 30.60 32.96 51.50 32.80 C 89.39 32.50 89.50 32.51 89.80 34.59 C 90.09 36.63 89.64 36.69 69.80 37.34 C 58.63 37.70 39.26 38.00 26.75 38.00 L 4.00 38.00 L 4.00 41.14 L 4.00 44.27 L 47.00 43.53 L 90.00 42.80 L 90.00 44.93 C 90.00 46.10 89.44 47.24 88.75 47.45 C 87.31 47.90 38.19 48.96 17.75 48.98 L 4.00 49.00 L 4.00 52.03 L 4.00 55.07 L 47.00 54.37 C 89.88 53.68 90.00 53.69 90.00 55.72 C 90.00 58.57 85.85 58.92 49.00 59.17 C 32.23 59.29 15.24 59.57 11.25 59.81 C 4.19 60.21 4.00 60.29 4.00 62.86 L 4.00 65.50 L 34.75 65.26 C 51.66 65.13 71.01 64.88 77.75 64.72 L 90.00 64.41 L 90.00 80.20 L 90.00 96.00 L 93.01 96.00 L 96.02 96.00 L 95.76 50.25 Z" fill="none" stroke="rgba(255,255,255,0.92)" stroke-width="1.2" stroke-linejoin="round" fill-rule="evenodd"/>
</svg>
