<svg xmlns="http://www.w3.org/2000/svg" viewBox="0 0 384 400" width="384" height="400">
  <path d="M 0.00 200.00 L 0.00 0.00 L 192.00 0.00 L 384.00 0.00 L 384.00 200.00 L 384.00 400.00 L 192.00 400.00 L 0.00 400.00 L 0.00 200.00 Z M 257.24 383.84 C 256.84 354.77 256.88 270.79 257.29 270.37 C 257.56 270.11 284.38 269.83 316.89 269.75 C 349.41 269.67 376.58 269.26 377.26 268.84 C 378.22 268.25 378.46 258.85 378.31 227.29 C 378.20 204.85 378.10 170.30 378.07 150.50 C 378.05 130.70 377.73 90.05 377.36 60.16 L 376.68 5.82 L 208.59 6.53 C 116.14 6.92 32.85 7.52 23.50 7.87 C 7.28 8.47 6.51 8.59 6.72 10.50 C 7.20 14.88 6.98 268.22 6.50 269.00 C 6.10 269.65 16.60 270.31 24.50 270.13 C 25.05 270.12 47.30 269.87 73.95 269.59 C 100.60 269.30 123.66 268.79 125.20 268.46 C 127.91 267.86 128.01 267.98 128.18 272.17 C 128.54 280.69 128.76 301.21 128.98 346.76 C 129.18 387.22 129.41 393.13 130.75 393.88 C 131.60 394.36 160.44 394.62 194.84 394.46 L 257.39 394.17 L 257.24 383.84 Z M 151.84 391.40 C 153.10 390.52 154.42 390.09 154.79 390.45 C 155.59 391.25 153.05 392.96 151.03 392.98 C 150.08 392.99 150.37 392.43 151.84 391.40 Z M 202.24 391.76 C 202.77 390.15 211.00 389.45 211.00 391.01 C 211.00 391.65 210.20 391.88 209.13 391.54 C 208.10 391.22 206.04 391.41 204.55 391.98 C 202.45 392.78 201.92 392.73 202.24 391.76 Z M 188.27 390.31 C 189.24 390.05 190.59 390.07 191.27 390.34 C 191.95 390.62 191.15 390.83 189.50 390.81 C 187.85 390.78 187.30 390.56 188.27 390.31 Z M 195.81 390.32 C 196.53 390.03 197.40 390.06 197.73 390.40 C 198.06 390.73 197.47 390.96 196.42 390.92 C 195.25 390.87 195.01 390.64 195.81 390.32 Z M 253.00 390.06 C 253.00 389.54 253.45 388.84 254.00 388.50 C 254.55 388.16 255.00 388.58 255.00 389.44 C 255.00 390.30 254.55 391.00 254.00 391.00 C 253.45 391.00 253.00 390.58 253.00 390.06 Z M 136.64 387.14 C 136.16 386.22 135.54 290.24 135.91 273.43 L 136.00 269.37 L 157.75 269.66 C 185.91 270.04 214.52 270.07 234.16 269.75 L 249.81 269.50 L 249.84 283.00 C 249.85 290.43 249.92 316.68 249.99 341.35 C 250.07 366.02 249.93 386.40 249.69 386.64 C 248.99 387.35 137.01 387.84 136.64 387.14 Z M 251.54 386.07 C 251.23 385.56 251.42 384.86 251.98 384.51 C 252.54 384.16 253.00 384.58 253.00 385.44 C 253.00 387.20 252.40 387.46 251.54 386.07 Z M 253.64 380.50 C 253.95 379.68 254.39 379.00 254.61 379.00 C 254.82 379.00 255.00 379.68 255.00 380.50 C 255.00 381.32 254.56 382.00 254.03 382.00 C 253.50 382.00 253.32 381.32 253.64 380.50 Z M 253.07 372.42 C 253.11 369.16 253.55 365.60 254.04 364.50 C 254.64 363.17 254.81 364.97 254.55 369.84 C 254.07 378.75 252.97 380.66 253.07 372.42 Z M 132.23 371.00 C 132.23 369.07 132.44 368.29 132.69 369.25 C 132.94 370.21 132.94 371.79 132.69 372.75 C 132.44 373.71 132.23 372.93 132.23 371.00 Z M 132.00 363.06 C 132.00 361.93 132.45 361.00 133.00 361.00 C 133.55 361.00 134.00 361.65 134.00 362.44 C 134.00 363.23 133.55 364.16 133.00 364.50 C 132.45 364.84 132.00 364.19 132.00 363.06 Z M 253.02 361.25 C 253.01 360.01 253.45 359.00 254.00 359.00 C 255.25 359.00 255.25 360.06 254.00 362.00 C 253.22 363.21 253.03 363.07 253.02 361.25 Z M 131.49 354.98 C 130.57 353.50 131.44 352.74 133.58 353.16 C 135.14 353.47 135.16 353.63 133.74 354.80 C 132.62 355.73 131.98 355.78 131.49 354.98 Z M 253.28 351.78 C 253.51 350.29 253.34 348.94 252.88 348.78 C 252.42 348.63 252.33 347.45 252.66 346.17 C 253.12 344.42 253.49 344.17 254.12 345.17 C 255.30 347.02 255.18 351.20 253.91 353.00 C 253.07 354.18 252.94 353.91 253.28 351.78 Z M 132.25 348.50 C 132.26 346.30 132.47 345.52 132.71 346.76 C 132.95 348.01 132.94 349.81 132.69 350.76 C 132.44 351.72 132.24 350.70 132.25 348.50 Z M 132.00 340.50 C 132.00 339.68 132.45 339.00 133.00 339.00 C 133.55 339.00 134.00 339.68 134.00 340.50 C 134.00 341.32 133.55 342.00 133.00 342.00 C 132.45 342.00 132.00 341.32 132.00 340.50 Z M 252.43 338.40 C 253.05 333.35 253.71 333.18 254.17 337.94 C 254.44 340.78 254.17 342.00 253.27 342.00 C 252.37 342.00 252.12 340.90 252.43 338.40 Z M 131.18 333.83 C 131.65 330.63 134.00 330.28 134.00 333.42 C 134.00 335.10 133.45 336.00 132.43 336.00 C 131.39 336.00 130.97 335.27 131.18 333.83 Z M 131.00 326.47 C 131.00 325.11 131.45 324.00 132.00 324.00 C 132.55 324.00 133.00 324.19 133.00 324.42 C 133.00 324.65 133.25 325.49 133.56 326.29 C 133.86 327.09 133.41 328.01 132.56 328.34 C 131.41 328.78 131.00 328.29 131.00 326.47 Z M 132.73 323.40 C 132.33 322.99 132.00 321.98 132.00 321.13 C 132.00 320.01 132.30 319.90 133.11 320.71 C 133.72 321.32 134.05 322.34 133.84 322.98 C 133.63 323.61 133.13 323.80 132.73 323.40 Z M 131.00 315.56 C 131.00 314.70 131.45 314.00 132.00 314.00 C 132.55 314.00 133.00 314.42 133.00 314.94 C 133.00 315.46 132.55 316.16 132.00 316.50 C 131.45 316.84 131.00 316.42 131.00 315.56 Z M 132.71 309.00 C 132.42 307.90 132.60 307.00 133.09 307.00 C 133.59 307.00 134.00 307.90 134.00 309.00 C 134.00 310.10 133.83 311.00 133.62 311.00 C 133.41 311.00 133.00 310.10 132.71 309.00 Z M 252.73 296.07 C 252.45 295.01 252.58 292.65 253.01 290.82 C 253.73 287.79 253.80 287.96 253.90 292.75 C 254.00 298.21 253.59 299.38 252.73 296.07 Z M 131.50 288.00 C 131.84 287.45 132.32 287.00 132.56 287.00 C 132.80 287.00 133.00 287.45 133.00 288.00 C 133.00 288.55 132.52 289.00 131.94 289.00 C 131.36 289.00 131.16 288.55 131.50 288.00 Z M 132.00 281.00 C 132.00 280.45 132.45 280.00 133.00 280.00 C 133.55 280.00 134.00 280.45 134.00 281.00 C 134.00 281.55 133.55 282.00 133.00 282.00 C 132.45 282.00 132.00 281.55 132.00 281.00 Z M 253.19 279.50 C 253.22 277.85 253.44 277.30 253.69 278.27 C 253.95 279.24 253.93 280.59 253.66 281.27 C 253.38 281.95 253.17 281.15 253.19 279.50 Z M 253.23 269.81 C 253.73 268.32 256.00 267.50 256.00 268.81 C 256.00 269.35 255.29 270.06 254.42 270.39 C 253.44 270.77 252.99 270.54 253.23 269.81 Z M 42.00 267.00 C 42.00 266.45 42.45 266.00 43.00 266.00 C 43.55 266.00 44.00 266.45 44.00 267.00 C 44.00 267.55 43.55 268.00 43.00 268.00 C 42.45 268.00 42.00 267.55 42.00 267.00 Z M 180.81 267.32 C 181.53 267.03 182.40 267.06 182.73 267.40 C 183.06 267.73 182.47 267.96 181.42 267.92 C 180.25 267.87 180.01 267.64 180.81 267.32 Z M 195.76 267.29 C 197.01 267.05 198.81 267.06 199.76 267.31 C 200.72 267.56 199.70 267.76 197.50 267.75 C 195.30 267.74 194.52 267.53 195.76 267.29 Z M 205.76 267.29 C 207.01 267.05 208.81 267.06 209.76 267.31 C 210.72 267.56 209.70 267.76 207.50 267.75 C 205.30 267.74 204.52 267.53 205.76 267.29 Z M 223.81 267.32 C 224.53 267.03 225.40 267.06 225.73 267.40 C 226.06 267.73 225.47 267.96 224.42 267.92 C 223.25 267.87 223.01 267.64 223.81 267.32 Z M 265.00 267.03 C 265.00 266.50 265.68 266.32 266.50 266.64 C 267.32 266.95 268.00 267.39 268.00 267.61 C 268.00 267.82 267.32 268.00 266.50 268.00 C 265.68 268.00 265.00 267.56 265.00 267.03 Z M 269.37 267.22 C 269.72 266.64 269.45 265.92 268.76 265.60 C 268.07 265.29 268.37 265.14 269.43 265.27 C 271.54 265.52 271.87 267.21 269.94 267.85 C 269.27 268.08 269.01 267.79 269.37 267.22 Z M 276.75 267.34 C 277.44 267.06 278.56 267.06 279.25 267.34 C 279.94 267.62 279.38 267.84 278.00 267.84 C 276.62 267.84 276.06 267.62 276.75 267.34 Z M 283.33 266.50 C 283.33 265.42 284.33 265.04 286.92 265.15 C 289.94 265.28 290.07 265.36 287.75 265.72 C 286.24 265.95 285.00 266.55 285.00 267.07 C 285.00 267.58 284.62 268.00 284.17 268.00 C 283.71 268.00 283.33 267.32 283.33 266.50 Z M 301.81 267.32 C 302.53 267.03 303.40 267.06 303.73 267.40 C 304.06 267.73 303.47 267.96 302.42 267.92 C 301.25 267.87 301.01 267.64 301.81 267.32 Z M 311.81 267.32 C 312.53 267.03 313.40 267.06 313.73 267.40 C 314.06 267.73 313.47 267.96 312.42 267.92 C 311.25 267.87 311.01 267.64 311.81 267.32 Z M 329.81 267.32 C 330.53 267.03 331.40 267.06 331.73 267.40 C 332.06 267.73 331.47 267.96 330.42 267.92 C 329.25 267.87 329.01 267.64 329.81 267.32 Z M 374.00 266.12 C 374.00 265.02 374.45 263.84 375.00 263.50 C 375.55 263.16 376.00 263.78 376.00 264.88 C 376.00 265.98 375.55 267.16 375.00 267.50 C 374.45 267.84 374.00 267.22 374.00 266.12 Z M 103.81 266.32 C 104.53 266.03 105.40 266.06 105.73 266.40 C 106.06 266.73 105.47 266.96 104.42 266.92 C 103.25 266.87 103.01 266.64 103.81 266.32 Z M 165.50 266.00 C 163.74 265.24 163.84 265.13 166.31 265.07 C 167.94 265.03 168.86 265.42 168.50 266.00 C 168.16 266.55 167.80 266.97 167.69 266.93 C 167.59 266.89 166.60 266.47 165.50 266.00 Z M 191.00 266.00 C 191.00 265.45 191.48 265.00 192.06 265.00 C 192.64 265.00 192.84 265.45 192.50 266.00 C 192.16 266.55 191.68 267.00 191.44 267.00 C 191.20 267.00 191.00 266.55 191.00 266.00 Z M 349.50 266.00 C 346.54 265.25 346.55 265.24 350.31 265.12 C 352.62 265.05 353.87 265.39 353.50 266.00 C 353.16 266.55 352.80 266.95 352.69 266.88 C 352.59 266.82 351.15 266.42 349.50 266.00 Z M 357.50 266.00 C 355.71 265.23 355.79 265.13 358.19 265.07 C 359.67 265.03 361.16 265.45 361.50 266.00 C 362.24 267.19 360.28 267.19 357.50 266.00 Z M 98.27 265.31 C 99.24 265.05 100.59 265.07 101.27 265.34 C 101.95 265.62 101.15 265.83 99.50 265.81 C 97.85 265.78 97.30 265.56 98.27 265.31 Z M 276.75 265.34 C 277.44 265.06 278.56 265.06 279.25 265.34 C 279.94 265.62 279.38 265.84 278.00 265.84 C 276.62 265.84 276.06 265.62 276.75 265.34 Z M 304.81 265.32 C 305.53 265.03 306.40 265.06 306.73 265.40 C 307.06 265.73 306.47 265.96 305.42 265.92 C 304.25 265.87 304.01 265.64 304.81 265.32 Z M 311.81 265.32 C 312.53 265.03 313.40 265.06 313.73 265.40 C 314.06 265.73 313.47 265.96 312.42 265.92 C 311.25 265.87 311.01 265.64 311.81 265.32 Z M 365.81 265.32 C 366.53 265.03 367.40 265.06 367.73 265.40 C 368.06 265.73 367.47 265.96 366.42 265.92 C 365.25 265.87 365.01 265.64 365.81 265.32 Z M 112.81 264.32 C 113.53 264.03 114.40 264.06 114.73 264.40 C 115.06 264.73 114.47 264.96 113.42 264.92 C 112.25 264.87 112.01 264.64 112.81 264.32 Z M 118.81 264.32 C 119.53 264.03 120.40 264.06 120.73 264.40 C 121.06 264.73 120.47 264.96 119.42 264.92 C 118.25 264.87 118.01 264.64 118.81 264.32 Z M 13.94 245.29 C 13.90 235.50 13.85 211.63 13.83 192.24 C 13.80 160.58 13.62 156.89 12.15 156.06 C 10.67 155.22 10.73 154.92 12.72 153.05 C 14.63 151.26 14.78 150.62 13.80 148.45 C 11.16 142.66 4.80 142.99 132.57 142.31 L 249.50 141.68 L 249.36 198.59 C 249.28 229.89 249.17 257.21 249.11 259.31 L 249.00 263.11 L 196.25 262.62 C 167.24 262.36 141.70 262.10 139.50 262.07 L 135.50 262.00 L 135.25 207.91 C 135.11 178.17 135.00 151.62 135.00 148.91 C 135.00 144.57 134.75 144.00 132.88 144.00 C 131.09 144.00 130.95 144.24 132.02 145.52 C 132.72 146.36 133.03 147.31 132.71 147.62 C 132.40 147.94 131.55 147.25 130.83 146.10 C 130.11 144.94 129.17 144.00 128.75 144.00 C 128.33 144.00 128.01 169.99 128.05 201.75 C 128.09 233.51 128.09 260.01 128.06 260.62 C 128.02 261.39 124.08 261.77 115.75 261.82 C 109.01 261.85 83.36 262.15 58.75 262.48 L 14.00 263.07 L 13.94 245.29 Z M 256.21 204.22 C 256.05 172.03 255.69 145.31 255.40 144.84 C 254.19 142.88 253.16 144.24 253.60 147.25 C 253.86 149.04 253.65 151.85 253.12 153.50 C 252.37 155.89 252.15 156.06 252.09 154.33 C 252.04 153.14 251.70 151.38 251.33 150.42 C 250.84 149.14 251.01 148.89 251.98 149.49 C 253.00 150.12 253.13 149.66 252.57 147.42 C 252.17 145.83 251.77 144.08 251.67 143.52 C 251.56 142.84 272.19 142.41 313.75 142.24 C 347.99 142.09 376.00 142.22 376.00 142.53 C 376.00 142.83 375.44 143.68 374.76 144.41 C 373.74 145.50 373.31 145.45 372.29 144.12 C 370.69 142.01 370.71 141.39 371.06 184.50 C 371.33 217.19 371.34 240.59 371.10 256.00 L 371.00 262.50 L 313.75 262.62 L 256.50 262.74 L 256.21 204.22 Z M 132.01 260.00 C 131.62 258.56 131.28 253.00 131.58 253.00 C 132.68 253.00 133.63 256.80 132.94 258.50 C 132.50 259.60 132.08 260.27 132.01 260.00 Z M 252.59 245.86 C 252.74 238.68 253.12 232.55 253.43 232.23 C 253.74 231.92 254.00 237.57 254.00 244.77 C 254.00 251.98 253.62 258.12 253.16 258.40 C 252.70 258.69 252.44 253.05 252.59 245.86 Z M 374.00 255.44 C 374.00 254.58 374.46 254.16 375.02 254.51 C 375.58 254.86 375.77 255.56 375.46 256.07 C 374.60 257.46 374.00 257.20 374.00 255.44 Z M 130.00 248.06 C 130.00 246.93 130.45 246.00 131.00 246.00 C 131.55 246.00 132.00 246.65 132.00 247.44 C 132.00 248.23 131.55 249.16 131.00 249.50 C 130.45 249.84 130.00 249.19 130.00 248.06 Z M 374.07 242.81 C 374.03 241.33 374.45 239.84 375.00 239.50 C 376.19 238.76 376.19 240.72 375.00 243.50 C 374.23 245.29 374.13 245.21 374.07 242.81 Z M 131.35 234.04 C 131.35 230.42 131.81 227.90 132.52 227.63 C 133.58 227.22 133.69 229.30 133.08 238.75 C 133.04 239.44 132.63 240.00 132.18 240.00 C 131.72 240.00 131.35 237.32 131.35 234.04 Z M 374.08 230.42 C 374.13 229.25 374.36 229.01 374.68 229.81 C 374.97 230.53 374.94 231.40 374.60 231.73 C 374.27 232.06 374.04 231.47 374.08 230.42 Z M 252.21 227.21 C 252.26 225.44 252.69 224.00 253.15 224.00 C 254.28 224.00 254.21 227.12 253.05 228.96 C 252.38 230.02 252.15 229.54 252.21 227.21 Z M 10.25 224.50 C 10.25 223.15 10.64 222.28 11.12 222.58 C 11.61 222.87 12.00 223.74 12.00 224.50 C 12.00 225.26 11.61 226.13 11.12 226.42 C 10.64 226.72 10.25 225.85 10.25 224.50 Z M 131.00 223.06 C 131.00 221.99 131.45 220.84 132.00 220.50 C 132.57 220.15 133.00 220.99 133.00 222.44 C 133.00 223.85 132.55 225.00 132.00 225.00 C 131.45 225.00 131.00 224.13 131.00 223.06 Z M 374.08 222.42 C 374.13 221.25 374.36 221.01 374.68 221.81 C 374.97 222.53 374.94 223.40 374.60 223.73 C 374.27 224.06 374.04 223.47 374.08 222.42 Z M 252.00 220.50 C 252.00 219.68 252.45 219.00 253.00 219.00 C 253.55 219.00 254.00 219.68 254.00 220.50 C 254.00 221.32 253.55 222.00 253.00 222.00 C 252.45 222.00 252.00 221.32 252.00 220.50 Z M 10.50 217.00 C 10.84 216.45 11.32 216.00 11.56 216.00 C 11.80 216.00 12.00 216.45 12.00 217.00 C 12.00 217.55 11.52 218.00 10.94 218.00 C 10.36 218.00 10.16 217.55 10.50 217.00 Z M 252.08 216.42 C 252.13 215.25 252.36 215.01 252.68 215.81 C 252.97 216.53 252.94 217.40 252.60 217.73 C 252.27 218.06 252.04 217.47 252.08 216.42 Z M 131.00 214.50 C 131.00 213.12 131.39 212.00 131.86 212.00 C 132.34 212.00 132.51 213.12 132.24 214.50 C 131.98 215.88 131.59 217.00 131.38 217.00 C 131.17 217.00 131.00 215.88 131.00 214.50 Z M 10.08 211.42 C 10.13 210.25 10.36 210.01 10.68 210.81 C 10.97 211.53 10.94 212.40 10.60 212.73 C 10.27 213.06 10.04 212.47 10.08 211.42 Z M 11.08 208.42 C 11.13 207.25 11.36 207.01 11.68 207.81 C 11.97 208.53 11.94 209.40 11.60 209.73 C 11.27 210.06 11.04 209.47 11.08 208.42 Z M 131.00 208.12 C 131.00 207.57 131.45 206.84 132.00 206.50 C 132.55 206.16 133.00 206.33 133.00 206.88 C 133.00 207.43 132.55 208.16 132.00 208.50 C 131.45 208.84 131.00 208.67 131.00 208.12 Z M 252.02 206.81 C 252.01 205.88 252.45 204.84 253.00 204.50 C 254.27 203.72 254.27 205.04 253.00 207.00 C 252.16 208.29 252.03 208.27 252.02 206.81 Z M 10.00 204.06 C 10.00 203.54 10.45 202.84 11.00 202.50 C 11.55 202.16 12.00 202.58 12.00 203.44 C 12.00 204.30 11.55 205.00 11.00 205.00 C 10.45 205.00 10.00 204.58 10.00 204.06 Z M 252.00 199.56 C 252.00 198.70 252.45 198.00 253.00 198.00 C 253.55 198.00 254.00 198.42 254.00 198.94 C 254.00 199.46 253.55 200.16 253.00 200.50 C 252.45 200.84 252.00 200.42 252.00 199.56 Z M 10.64 194.50 C 10.32 193.68 10.50 193.00 11.03 193.00 C 11.56 193.00 12.00 193.68 12.00 194.50 C 12.00 195.32 11.82 196.00 11.61 196.00 C 11.39 196.00 10.95 195.32 10.64 194.50 Z M 252.00 195.12 C 252.00 194.57 252.45 193.84 253.00 193.50 C 253.55 193.16 254.00 193.33 254.00 193.88 C 254.00 194.43 253.55 195.16 253.00 195.50 C 252.45 195.84 252.00 195.67 252.00 195.12 Z M 373.58 194.13 C 373.15 193.44 373.07 192.60 373.40 192.27 C 374.29 191.37 375.27 192.69 374.79 194.14 C 374.45 195.15 374.21 195.15 373.58 194.13 Z M 251.67 192.27 C 250.86 190.96 251.85 188.00 253.11 188.00 C 254.15 188.00 254.15 188.77 253.10 191.43 C 252.63 192.64 252.09 192.96 251.67 192.27 Z M 373.02 188.37 C 373.02 187.34 373.41 185.90 373.88 185.17 C 374.52 184.15 374.85 184.32 375.26 185.88 C 375.55 187.01 375.17 188.44 374.40 189.09 C 373.29 190.01 373.00 189.86 373.02 188.37 Z M 253.08 185.42 C 253.13 184.25 253.36 184.01 253.68 184.81 C 253.97 185.53 253.94 186.40 253.60 186.73 C 253.27 187.06 253.04 186.47 253.08 185.42 Z M 10.79 179.00 C 11.03 177.35 11.40 176.00 11.61 176.00 C 11.83 176.00 12.00 177.35 12.00 179.00 C 12.00 180.65 11.63 182.00 11.17 182.00 C 10.72 182.00 10.54 180.65 10.79 179.00 Z M 373.00 180.50 C 373.00 179.68 373.66 179.00 374.47 179.00 C 375.36 179.00 375.71 179.59 375.36 180.50 C 375.05 181.32 374.38 182.00 373.89 182.00 C 373.40 182.00 373.00 181.32 373.00 180.50 Z M 131.08 177.42 C 131.13 176.25 131.36 176.01 131.68 176.81 C 131.97 177.53 131.94 178.40 131.60 178.73 C 131.27 179.06 131.04 178.47 131.08 177.42 Z M 252.72 175.75 C 252.44 173.96 252.62 172.07 253.11 171.55 C 253.64 170.98 254.00 172.29 254.00 174.80 C 254.00 179.81 253.42 180.24 252.72 175.75 Z M 373.40 174.56 C 373.40 172.68 373.76 171.35 374.20 171.62 C 374.64 171.90 375.00 173.44 375.00 175.06 C 375.00 176.68 374.64 178.00 374.20 178.00 C 373.76 178.00 373.40 176.45 373.40 174.56 Z M 375.08 170.42 C 375.13 169.25 375.36 169.01 375.68 169.81 C 375.97 170.53 375.94 171.40 375.60 171.73 C 375.27 172.06 375.04 171.47 375.08 170.42 Z M 251.46 166.25 C 251.76 165.47 252.00 163.75 252.00 162.42 C 252.00 158.39 253.53 159.71 253.63 163.83 C 253.70 166.51 253.31 167.67 252.32 167.67 C 251.52 167.67 251.15 167.06 251.46 166.25 Z M 374.55 165.75 C 374.13 164.79 374.13 163.21 374.55 162.25 C 375.27 160.58 375.33 160.58 375.73 162.25 C 375.96 163.21 375.96 164.79 375.73 165.75 C 375.33 167.42 375.27 167.42 374.55 165.75 Z M 373.19 159.50 C 373.22 157.85 373.44 157.30 373.69 158.27 C 373.95 159.24 373.93 160.59 373.66 161.27 C 373.38 161.95 373.17 161.15 373.19 159.50 Z M 131.08 154.42 C 131.13 153.25 131.36 153.01 131.68 153.81 C 131.97 154.53 131.94 155.40 131.60 155.73 C 131.27 156.06 131.04 155.47 131.08 154.42 Z M 373.75 151.54 C 374.01 150.14 374.66 149.00 375.19 149.00 C 376.50 149.00 375.77 153.25 374.38 153.71 C 373.67 153.94 373.44 153.14 373.75 151.54 Z M 10.67 150.33 C 10.30 149.97 10.00 149.20 10.00 148.63 C 10.00 148.01 10.47 148.07 11.18 148.78 C 11.83 149.43 12.13 150.20 11.85 150.48 C 11.57 150.77 11.03 150.70 10.67 150.33 Z M 9.00 145.00 C 9.00 144.45 9.68 144.00 10.50 144.00 C 11.32 144.00 12.00 144.45 12.00 145.00 C 12.00 145.55 11.32 146.00 10.50 146.00 C 9.68 146.00 9.00 145.55 9.00 145.00 Z M 14.50 75.41 L 14.50 15.50 L 19.50 15.35 C 22.25 15.27 102.22 14.87 197.22 14.46 L 369.94 13.72 L 369.96 73.86 L 369.98 134.00 L 249.24 134.00 C 182.83 134.01 102.85 134.30 71.50 134.66 L 14.50 135.31 L 14.50 75.41 Z M 325.62 120.87 C 332.71 118.22 339.21 111.92 342.83 104.20 L 345.50 98.50 L 345.26 74.50 C 344.98 46.93 344.41 44.22 337.19 35.97 C 334.76 33.19 330.46 29.70 327.64 28.21 L 322.50 25.50 L 208.09 25.69 C 83.91 25.90 87.98 25.73 71.06 31.48 C 61.92 34.59 50.18 41.80 45.65 47.09 C 39.76 53.98 36.07 62.07 35.01 70.41 C 33.28 84.09 37.15 95.22 47.03 104.95 C 55.62 113.41 68.57 119.42 83.66 121.95 C 86.32 122.40 140.57 122.82 204.21 122.88 L 319.92 123.00 L 325.62 120.87 Z M 90.00 114.32 C 61.95 109.74 48.19 100.94 43.47 84.57 C 37.14 62.67 53.36 42.93 83.50 35.87 C 92.32 33.80 94.80 33.75 204.78 33.35 C 279.02 33.08 318.33 33.28 320.83 33.95 C 325.69 35.26 332.46 41.07 335.28 46.36 C 337.40 50.30 337.50 51.64 337.50 74.50 C 337.50 97.63 337.42 98.63 335.26 102.11 C 332.01 107.33 328.06 111.03 323.50 113.12 C 319.69 114.87 314.11 114.95 206.00 114.84 C 143.57 114.78 91.38 114.54 90.00 114.32 Z M 315.89 85.89 C 320.44 84.30 323.41 78.21 322.52 72.30 C 321.61 66.22 317.72 62.05 311.97 60.99 C 304.12 59.54 298.00 65.24 298.00 74.00 C 298.00 84.09 305.93 89.36 315.89 85.89 Z" fill="none" stroke="rgba(255,255,255,0.92)" stroke-width="1.5" stroke-linejoin="round" fill-rule="evenodd"/>
</svg>
