<svg xmlns="http://www.w3.org/2000/svg" viewBox="0 0 381 400" width="381" height="400">
  <path d="M 0.00 200.00 L 0.00 0.00 L 190.50 0.00 L 381.00 0.00 L 381.00 200.00 L 381.00 400.00 L 190.50 400.00 L 0.00 400.00 L 0.00 200.00 Z M 157.09 395.74 L 253.68 395.50 L 253.47 347.45 C 253.36 321.02 252.95 298.41 252.56 297.19 C 252.17 295.97 251.46 295.22 250.98 295.51 C 250.50 295.81 249.63 295.17 249.05 294.09 C 248.39 292.86 248.35 291.90 248.95 291.53 C 249.47 291.21 250.41 291.90 251.03 293.06 C 252.71 296.19 253.25 294.82 253.11 287.80 C 253.05 284.33 253.00 278.87 253.00 275.67 C 253.01 269.33 252.26 266.96 250.93 269.11 C 250.48 269.84 249.78 270.11 249.37 269.70 C 247.89 268.22 250.83 266.74 253.68 267.54 C 255.23 267.97 256.95 268.20 257.50 268.05 C 258.35 267.82 301.36 267.30 351.58 266.92 C 358.78 266.87 365.31 266.42 366.08 265.93 C 367.64 264.94 362.01 264.48 353.75 264.93 C 350.83 265.09 349.00 264.76 349.00 264.09 C 349.00 263.49 350.01 262.98 351.25 262.95 C 352.49 262.92 355.41 262.73 357.75 262.53 C 360.09 262.33 362.00 262.57 362.00 263.06 C 362.00 263.55 363.35 263.68 365.00 263.35 C 366.78 262.99 368.00 263.17 368.00 263.78 C 368.00 264.35 368.88 264.58 369.96 264.30 C 371.04 264.02 371.83 263.33 371.71 262.77 C 371.60 262.21 372.03 261.56 372.67 261.32 C 373.41 261.05 373.65 261.61 373.33 262.85 C 373.05 263.93 371.84 265.14 370.66 265.53 C 368.51 266.25 368.51 266.26 370.82 266.71 C 372.10 266.95 373.72 266.94 374.42 266.67 C 375.44 266.28 375.62 240.83 375.35 136.42 C 375.16 65.06 374.82 6.49 374.61 6.27 C 374.39 6.05 353.57 6.34 328.35 6.90 C 303.13 7.47 253.25 8.18 217.50 8.48 C 181.75 8.78 138.78 9.24 122.00 9.50 C 67.06 10.35 21.58 11.26 18.51 11.57 C 16.86 11.74 13.31 11.90 10.64 11.94 L 5.78 12.00 L 6.14 203.62 C 6.49 391.05 6.54 395.26 8.41 395.95 C 9.46 396.34 21.61 396.51 35.41 396.32 C 49.21 396.13 103.97 395.86 157.09 395.74 Z M 44.50 393.00 C 44.84 392.45 45.88 392.01 46.81 392.02 C 48.27 392.03 48.29 392.16 47.00 393.00 C 45.04 394.27 43.72 394.27 44.50 393.00 Z M 64.81 393.32 C 65.53 393.03 66.40 393.06 66.73 393.40 C 67.06 393.73 66.47 393.96 65.42 393.92 C 64.25 393.87 64.01 393.64 64.81 393.32 Z M 70.54 393.07 C 69.90 392.03 73.82 390.48 74.74 391.41 C 75.07 391.73 74.70 392.01 73.92 392.02 C 72.75 392.03 72.76 392.20 74.00 393.00 C 75.22 393.79 75.09 393.97 73.31 393.98 C 72.10 393.99 70.86 393.58 70.54 393.07 Z M 106.81 393.32 C 107.53 393.03 108.40 393.06 108.73 393.40 C 109.06 393.73 108.47 393.96 107.42 393.92 C 106.25 393.87 106.01 393.64 106.81 393.32 Z M 122.75 393.34 C 123.44 393.06 124.56 393.06 125.25 393.34 C 125.94 393.62 125.38 393.84 124.00 393.84 C 122.62 393.84 122.06 393.62 122.75 393.34 Z M 140.24 393.43 C 141.13 392.54 156.20 392.27 159.00 393.09 C 160.47 393.52 156.99 393.86 150.58 393.91 C 144.58 393.96 139.92 393.74 140.24 393.43 Z M 168.00 393.00 C 168.00 392.45 168.45 392.00 169.00 392.00 C 169.55 392.00 170.00 392.45 170.00 393.00 C 170.00 393.55 169.55 394.00 169.00 394.00 C 168.45 394.00 168.00 393.55 168.00 393.00 Z M 174.80 392.80 C 175.73 391.87 176.27 391.87 177.20 392.80 C 178.13 393.73 177.87 394.00 176.00 394.00 C 174.13 394.00 173.87 393.73 174.80 392.80 Z M 192.50 393.00 C 193.60 392.53 195.18 392.12 196.00 392.09 C 197.33 392.04 197.33 392.14 196.00 393.00 C 195.18 393.53 193.60 393.94 192.50 393.91 L 190.50 393.86 L 192.50 393.00 Z M 244.00 393.61 C 244.00 393.39 244.68 392.95 245.50 392.64 C 246.32 392.32 247.00 392.50 247.00 393.03 C 247.00 393.56 246.32 394.00 245.50 394.00 C 244.68 394.00 244.00 393.82 244.00 393.61 Z M 59.50 392.00 C 59.84 391.45 60.79 391.00 61.62 391.00 C 62.44 391.00 62.84 391.45 62.50 392.00 C 62.16 392.55 61.21 393.00 60.38 393.00 C 59.56 393.00 59.16 392.55 59.50 392.00 Z M 102.81 392.32 C 103.53 392.03 104.40 392.06 104.73 392.40 C 105.06 392.73 104.47 392.96 103.42 392.92 C 102.25 392.87 102.01 392.64 102.81 392.32 Z M 205.00 391.94 C 205.00 391.36 205.45 391.16 206.00 391.50 C 206.55 391.84 207.00 392.32 207.00 392.56 C 207.00 392.80 206.55 393.00 206.00 393.00 C 205.45 393.00 205.00 392.52 205.00 391.94 Z M 221.50 392.00 C 219.57 391.17 219.58 391.14 221.69 391.07 C 222.90 391.03 224.16 391.45 224.50 392.00 C 225.23 393.18 224.25 393.18 221.50 392.00 Z M 229.50 392.00 C 229.16 391.45 229.84 391.00 231.00 391.00 C 232.16 391.00 232.84 391.45 232.50 392.00 C 232.16 392.55 231.49 393.00 231.00 393.00 C 230.51 393.00 229.84 392.55 229.50 392.00 Z M 237.00 392.00 C 237.00 391.45 237.48 391.00 238.06 391.00 C 238.64 391.00 238.84 391.45 238.50 392.00 C 238.16 392.55 237.68 393.00 237.44 393.00 C 237.20 393.00 237.00 392.55 237.00 392.00 Z M 249.50 392.00 C 249.84 391.45 250.54 391.00 251.06 391.00 C 251.58 391.00 252.00 391.45 252.00 392.00 C 252.00 392.55 251.30 393.00 250.44 393.00 C 249.58 393.00 249.16 392.55 249.50 392.00 Z M 10.02 391.31 C 10.02 390.86 10.47 389.82 11.00 389.00 C 11.84 387.71 11.97 387.73 11.98 389.19 C 11.99 390.12 11.55 391.16 11.00 391.50 C 10.45 391.84 10.01 391.75 10.02 391.31 Z M 137.81 391.32 C 138.53 391.03 139.40 391.06 139.73 391.40 C 140.06 391.73 139.47 391.96 138.42 391.92 C 137.25 391.87 137.01 391.64 137.81 391.32 Z M 211.75 391.34 C 212.44 391.06 213.56 391.06 214.25 391.34 C 214.94 391.62 214.38 391.84 213.00 391.84 C 211.62 391.84 211.06 391.62 211.75 391.34 Z M 15.75 389.31 C 14.79 389.06 13.96 387.87 13.92 386.68 C 13.87 385.48 13.66 369.46 13.43 351.07 C 13.13 325.55 12.73 317.45 11.77 316.83 C 10.78 316.21 10.80 316.03 11.88 316.02 C 13.72 315.99 12.54 307.96 10.47 306.39 C 8.54 304.93 8.57 302.62 10.50 303.36 C 12.22 304.02 12.17 304.41 12.48 285.80 C 12.68 273.75 12.58 273.08 10.67 272.80 C 9.56 272.63 8.48 271.96 8.26 271.30 C 7.96 270.38 15.86 270.08 41.68 270.03 C 60.28 269.99 88.78 269.67 105.00 269.33 C 121.22 268.99 146.64 268.79 161.47 268.89 C 176.30 268.98 189.69 268.79 191.23 268.45 C 196.36 267.32 192.98 266.03 186.26 266.55 C 179.01 267.10 178.45 266.36 184.99 264.89 C 191.33 263.47 201.20 266.75 195.25 268.31 C 194.28 268.56 194.84 268.81 196.50 268.87 C 198.15 268.92 200.13 268.57 200.89 268.09 C 201.97 267.40 201.70 266.91 199.63 265.82 C 197.14 264.52 197.47 264.42 204.86 264.20 C 211.01 264.03 213.02 264.32 214.04 265.55 C 215.19 266.93 215.02 267.06 212.67 266.56 C 211.20 266.25 208.84 265.76 207.42 265.46 C 205.77 265.12 205.07 265.30 205.48 265.96 C 205.83 266.53 205.42 267.00 204.56 267.00 C 203.70 267.00 203.00 267.39 203.00 267.88 C 203.00 268.36 205.81 268.61 209.25 268.44 C 212.69 268.27 216.34 268.10 217.37 268.07 C 218.84 268.01 219.00 267.71 218.11 266.63 C 217.19 265.53 217.59 265.13 220.11 264.63 C 224.84 263.68 226.00 263.85 226.00 265.50 C 226.00 266.52 224.98 267.00 222.83 267.00 C 221.09 267.00 219.95 267.29 220.30 267.63 C 221.26 268.59 232.18 268.76 234.71 267.86 C 235.93 267.43 237.16 267.45 237.45 267.92 C 237.73 268.38 239.89 268.54 242.23 268.28 L 246.50 267.80 L 246.63 327.90 L 246.76 388.00 L 244.13 388.06 C 218.35 388.68 134.83 388.54 134.43 387.89 C 133.93 387.07 133.34 345.01 133.10 292.92 L 133.00 271.33 L 129.61 271.33 L 126.22 271.33 L 126.66 329.55 L 127.09 387.76 L 124.80 388.32 C 123.53 388.63 99.49 388.90 71.37 388.93 C 43.25 388.95 19.63 389.15 18.87 389.37 C 18.12 389.58 16.71 389.56 15.75 389.31 Z M 130.08 385.42 C 130.13 384.25 130.36 384.01 130.68 384.81 C 130.97 385.53 130.94 386.40 130.60 386.73 C 130.27 387.06 130.04 386.47 130.08 385.42 Z M 249.42 385.64 C 248.65 383.65 249.55 381.00 250.99 381.00 C 251.58 381.00 251.83 382.15 251.56 383.62 C 250.95 387.01 250.21 387.70 249.42 385.64 Z M 129.00 378.00 C 129.00 377.45 129.68 377.00 130.50 377.00 C 131.32 377.00 132.00 377.45 132.00 378.00 C 132.00 378.55 131.32 379.00 130.50 379.00 C 129.68 379.00 129.00 378.55 129.00 378.00 Z M 130.50 373.00 C 130.84 372.45 131.32 372.00 131.56 372.00 C 131.80 372.00 132.00 372.45 132.00 373.00 C 132.00 373.55 131.52 374.00 130.94 374.00 C 130.36 374.00 130.16 373.55 130.50 373.00 Z M 129.08 371.42 C 129.13 370.25 129.36 370.01 129.68 370.81 C 129.97 371.53 129.94 372.40 129.60 372.73 C 129.27 373.06 129.04 372.47 129.08 371.42 Z M 249.00 371.00 C 249.00 370.45 249.48 370.00 250.06 370.00 C 250.64 370.00 250.84 370.45 250.50 371.00 C 250.16 371.55 249.68 372.00 249.44 372.00 C 249.20 372.00 249.00 371.55 249.00 371.00 Z M 130.19 367.50 C 130.22 365.85 130.44 365.30 130.69 366.27 C 130.95 367.24 130.93 368.59 130.66 369.27 C 130.38 369.95 130.17 369.15 130.19 367.50 Z M 9.50 359.00 C 9.84 358.45 10.32 358.00 10.56 358.00 C 10.80 358.00 11.00 358.45 11.00 359.00 C 11.00 359.55 10.52 360.00 9.94 360.00 C 9.36 360.00 9.16 359.55 9.50 359.00 Z M 129.51 358.98 C 129.86 358.42 130.56 358.23 131.07 358.54 C 132.46 359.40 132.20 360.00 130.44 360.00 C 129.58 360.00 129.16 359.54 129.51 358.98 Z M 129.08 353.75 C 129.12 352.51 129.39 352.07 129.66 352.76 C 129.94 353.45 130.58 353.76 131.09 353.45 C 131.59 353.14 132.00 353.58 132.00 354.44 C 132.00 355.30 131.32 356.00 130.50 356.00 C 129.59 356.00 129.03 355.12 129.08 353.75 Z M 9.00 348.94 C 9.00 347.81 9.45 347.16 10.00 347.50 C 10.55 347.84 11.00 348.77 11.00 349.56 C 11.00 350.35 10.55 351.00 10.00 351.00 C 9.45 351.00 9.00 350.07 9.00 348.94 Z M 129.67 350.33 C 129.30 349.97 129.03 348.73 129.06 347.58 C 129.12 345.67 129.20 345.69 130.08 347.90 C 131.06 350.34 130.86 351.53 129.67 350.33 Z M 249.00 346.00 C 249.00 344.90 249.45 344.00 250.00 344.00 C 250.55 344.00 251.00 344.90 251.00 346.00 C 251.00 347.10 250.55 348.00 250.00 348.00 C 249.45 348.00 249.00 347.10 249.00 346.00 Z M 10.16 341.00 C 10.16 339.62 10.38 339.06 10.66 339.75 C 10.94 340.44 10.94 341.56 10.66 342.25 C 10.38 342.94 10.16 342.38 10.16 341.00 Z M 130.73 337.40 C 130.33 336.99 130.00 335.98 130.00 335.13 C 130.00 334.01 130.30 333.90 131.11 334.71 C 131.72 335.32 132.05 336.34 131.84 336.98 C 131.63 337.61 131.13 337.80 130.73 337.40 Z M 249.04 332.75 C 249.02 330.13 249.46 328.00 250.03 328.00 C 251.87 328.00 252.10 330.54 250.57 334.06 L 249.08 337.50 L 249.04 332.75 Z M 10.08 333.42 C 10.13 332.25 10.36 332.01 10.68 332.81 C 10.97 333.53 10.94 334.40 10.60 334.73 C 10.27 335.06 10.04 334.47 10.08 333.42 Z M 129.54 332.07 C 129.23 331.56 129.42 330.86 129.98 330.51 C 130.54 330.16 131.00 330.58 131.00 331.44 C 131.00 333.20 130.40 333.46 129.54 332.07 Z M 10.07 325.75 C 10.03 324.24 10.45 323.00 11.00 323.00 C 12.17 323.00 12.17 323.77 11.00 326.50 C 10.24 328.27 10.13 328.19 10.07 325.75 Z M 249.00 318.67 C 249.00 313.90 249.34 310.00 249.76 310.00 C 250.74 310.00 250.73 325.60 249.75 326.58 C 249.34 327.00 249.00 323.43 249.00 318.67 Z M 129.50 322.00 C 129.84 321.45 130.32 321.00 130.56 321.00 C 130.80 321.00 131.00 321.45 131.00 322.00 C 131.00 322.55 130.52 323.00 129.94 323.00 C 129.36 323.00 129.16 322.55 129.50 322.00 Z M 9.08 313.42 C 9.13 312.25 9.36 312.01 9.68 312.81 C 9.97 313.53 9.94 314.40 9.60 314.73 C 9.27 315.06 9.04 314.47 9.08 313.42 Z M 130.08 310.42 C 130.13 309.25 130.36 309.01 130.68 309.81 C 130.97 310.53 130.94 311.40 130.60 311.73 C 130.27 312.06 130.04 311.47 130.08 310.42 Z M 129.28 304.75 C 129.35 302.69 129.77 301.00 130.20 301.00 C 131.16 301.00 131.09 302.63 129.98 306.00 C 129.26 308.16 129.17 307.99 129.28 304.75 Z M 249.00 307.00 C 249.00 306.45 249.48 306.00 250.06 306.00 C 250.64 306.00 250.84 306.45 250.50 307.00 C 250.16 307.55 249.68 308.00 249.44 308.00 C 249.20 308.00 249.00 307.55 249.00 307.00 Z M 249.00 300.00 C 249.00 297.80 249.18 296.00 249.39 296.00 C 249.61 296.00 249.96 297.80 250.17 300.00 C 250.38 302.20 250.20 304.00 249.78 304.00 C 249.35 304.00 249.00 302.20 249.00 300.00 Z M 10.08 296.42 C 10.13 295.25 10.36 295.01 10.68 295.81 C 10.97 296.53 10.94 297.40 10.60 297.73 C 10.27 298.06 10.04 297.47 10.08 296.42 Z M 129.00 293.50 C 129.00 292.68 129.44 292.00 129.97 292.00 C 130.50 292.00 130.68 292.68 130.36 293.50 C 130.05 294.32 129.61 295.00 129.39 295.00 C 129.18 295.00 129.00 294.32 129.00 293.50 Z M 8.00 289.73 C 8.00 288.90 8.68 287.95 9.50 287.64 C 10.32 287.32 11.00 287.44 11.00 287.91 C 11.00 288.37 10.32 289.32 9.50 290.00 C 8.28 291.01 8.00 290.96 8.00 289.73 Z M 128.00 289.40 C 128.00 289.10 128.68 288.18 129.50 287.36 C 130.80 286.06 131.00 286.05 131.00 287.32 C 131.00 288.13 130.32 289.05 129.50 289.36 C 128.68 289.68 128.00 289.69 128.00 289.40 Z M 249.00 282.83 C 249.00 279.99 249.22 277.89 249.50 278.17 C 250.47 279.13 250.86 288.00 249.94 288.00 C 249.42 288.00 249.00 285.68 249.00 282.83 Z M 129.29 283.00 C 129.58 281.90 129.46 280.79 129.04 280.52 C 128.08 279.93 128.92 275.17 130.12 274.43 C 130.60 274.13 131.00 276.38 131.00 279.44 C 131.00 282.87 130.57 285.00 129.88 285.00 C 129.26 285.00 129.00 284.12 129.29 283.00 Z M 249.19 274.50 C 249.22 272.85 249.44 272.30 249.69 273.27 C 249.95 274.24 249.93 275.59 249.66 276.27 C 249.38 276.95 249.17 276.15 249.19 274.50 Z M 9.00 275.00 C 9.00 274.45 9.45 274.00 10.00 274.00 C 10.55 274.00 11.00 274.45 11.00 275.00 C 11.00 275.55 10.55 276.00 10.00 276.00 C 9.45 276.00 9.00 275.55 9.00 275.00 Z M 134.67 267.33 C 133.09 265.75 134.12 264.30 136.50 264.76 C 139.34 265.30 139.76 266.50 137.42 267.39 C 135.46 268.14 135.48 268.14 134.67 267.33 Z M 173.00 266.00 C 171.84 265.25 172.13 265.03 174.31 265.02 C 175.93 265.01 176.86 265.42 176.50 266.00 C 175.73 267.24 174.92 267.24 173.00 266.00 Z M 229.10 265.62 C 227.58 263.79 229.98 263.26 236.00 264.08 L 240.50 264.70 L 236.25 264.85 C 233.91 264.93 232.00 265.45 232.00 266.00 C 232.00 267.44 230.44 267.23 229.10 265.62 Z M 163.81 265.32 C 164.53 265.03 165.40 265.06 165.73 265.40 C 166.06 265.73 165.47 265.96 164.42 265.92 C 163.25 265.87 163.01 265.64 163.81 265.32 Z M 247.00 264.44 C 247.00 263.58 247.45 263.16 248.00 263.50 C 248.55 263.84 249.00 264.54 249.00 265.06 C 249.00 265.58 248.55 266.00 248.00 266.00 C 247.45 266.00 247.00 265.30 247.00 264.44 Z M 258.91 264.47 C 256.41 263.63 256.01 263.21 257.28 262.72 C 258.19 262.37 259.19 262.50 259.50 263.00 C 259.82 263.51 263.00 263.64 266.63 263.31 C 271.47 262.85 273.40 263.03 274.00 263.99 C 274.51 264.82 275.47 265.01 276.65 264.51 C 279.76 263.19 282.13 262.97 291.96 263.06 C 301.25 263.14 303.00 263.42 303.00 264.81 C 303.00 265.74 273.53 265.56 268.50 264.60 C 265.55 264.03 264.89 264.12 266.00 264.91 C 267.20 265.77 266.98 265.94 264.86 265.78 C 263.40 265.67 260.73 265.08 258.91 264.47 Z M 305.50 265.04 C 301.93 263.57 306.41 262.66 311.75 263.77 C 315.78 264.61 316.02 264.78 313.33 264.88 C 311.59 264.95 309.56 265.19 308.83 265.43 C 308.10 265.67 306.60 265.49 305.50 265.04 Z M 320.75 264.31 C 319.79 264.06 319.00 263.44 319.00 262.93 C 319.00 261.74 319.68 261.76 322.01 263.00 C 323.26 263.67 324.08 263.67 324.50 263.00 C 324.84 262.45 325.85 262.00 326.75 262.00 C 328.12 262.00 328.07 262.24 326.44 263.47 C 324.44 264.98 323.73 265.09 320.75 264.31 Z M 333.50 264.00 C 332.72 262.73 334.04 262.73 336.00 264.00 C 337.29 264.84 337.27 264.97 335.81 264.98 C 334.88 264.99 333.84 264.55 333.50 264.00 Z M 133.76 261.69 C 133.53 261.03 133.23 234.06 133.08 201.75 L 132.81 143.00 L 155.40 142.82 C 167.83 142.73 179.46 142.57 181.25 142.48 C 183.04 142.38 213.52 142.01 249.00 141.65 C 284.48 141.29 327.14 140.71 343.80 140.35 L 374.11 139.69 L 373.64 142.60 C 373.38 144.19 373.07 145.72 372.96 146.00 C 372.85 146.28 372.88 146.95 373.02 147.50 C 373.17 148.05 373.40 151.73 373.54 155.68 C 373.74 161.10 373.46 162.99 372.40 163.40 C 371.28 163.83 371.02 162.60 371.11 157.22 C 371.34 144.02 371.10 141.50 369.78 142.82 C 368.84 143.76 368.59 157.50 368.71 201.95 L 368.87 259.86 L 350.68 259.93 C 308.94 260.09 254.83 260.99 253.95 261.53 C 253.36 261.90 252.97 246.35 252.92 220.31 C 252.79 155.04 252.60 144.53 251.50 144.23 C 250.95 144.09 250.36 145.77 250.19 147.98 C 250.02 150.19 249.40 152.00 248.81 152.00 C 248.13 152.00 247.97 150.57 248.38 148.00 C 248.89 144.82 248.72 144.00 247.51 144.00 C 246.26 144.00 245.99 145.79 245.96 154.25 C 245.89 173.33 246.11 231.41 246.31 246.25 L 246.50 261.00 L 243.00 261.02 C 216.23 261.13 136.21 262.24 135.33 262.51 C 134.69 262.71 133.98 262.34 133.76 261.69 Z M 13.71 260.01 C 13.43 258.92 13.13 204.50 13.05 139.10 C 12.95 53.63 13.23 19.98 14.01 19.49 C 14.62 19.12 16.10 19.06 17.31 19.36 L 19.50 19.91 L 19.78 140.96 L 20.07 262.00 L 17.15 262.00 C 15.08 262.00 14.08 261.42 13.71 260.01 Z M 27.67 261.33 C 27.30 260.97 27.00 206.29 27.00 139.83 L 27.00 19.00 L 29.89 19.00 C 31.49 19.00 33.03 19.65 33.34 20.45 C 33.65 21.24 33.91 75.92 33.93 141.95 L 33.97 262.00 L 31.15 262.00 C 29.60 262.00 28.03 261.70 27.67 261.33 Z M 41.69 260.64 C 40.86 258.46 40.91 20.62 41.74 19.34 C 42.17 18.69 43.71 18.41 45.25 18.71 L 48.00 19.23 L 48.00 140.62 L 48.00 262.00 L 45.11 262.00 C 43.52 262.00 41.98 261.39 41.69 260.64 Z M 55.78 256.75 C 55.55 253.86 55.26 198.96 55.13 134.75 L 54.89 18.00 L 57.84 18.00 C 59.60 18.00 61.03 18.63 61.39 19.58 C 61.73 20.45 62.00 75.35 62.00 141.58 L 62.00 262.00 L 59.10 262.00 C 56.31 262.00 56.18 261.78 55.78 256.75 Z M 69.80 237.81 C 69.64 224.44 69.38 169.51 69.24 115.75 L 68.99 18.00 L 72.49 18.00 L 76.00 18.00 L 76.15 138.50 C 76.23 204.78 76.34 259.56 76.40 260.25 C 76.46 260.95 75.10 261.64 73.30 261.81 L 70.10 262.12 L 69.80 237.81 Z M 84.59 261.15 C 84.21 260.54 83.65 221.55 83.35 174.52 L 82.79 89.00 L 129.15 88.94 C 154.64 88.90 178.65 88.70 182.50 88.49 C 186.35 88.29 214.02 87.86 244.00 87.56 C 273.98 87.25 314.14 86.70 333.25 86.34 L 368.00 85.69 L 368.00 108.69 L 368.00 131.70 L 353.25 132.35 C 345.14 132.70 308.57 133.25 272.00 133.57 C 235.43 133.89 204.93 134.34 204.23 134.55 C 203.54 134.77 185.65 134.99 164.48 135.04 L 126.00 135.12 L 126.00 198.06 L 126.00 261.00 L 113.15 261.00 C 106.08 261.00 96.92 261.29 92.79 261.63 C 87.71 262.06 85.06 261.91 84.59 261.15 Z M 249.50 257.00 C 249.84 256.45 250.32 256.00 250.56 256.00 C 250.80 256.00 251.00 256.45 251.00 257.00 C 251.00 257.55 250.52 258.00 249.94 258.00 C 249.36 258.00 249.16 257.55 249.50 257.00 Z M 371.00 256.44 C 371.00 255.58 371.46 255.16 372.02 255.51 C 372.58 255.86 372.77 256.56 372.46 257.07 C 371.60 258.46 371.00 258.20 371.00 256.44 Z M 371.65 253.53 C 370.57 250.71 370.88 244.81 372.07 245.54 C 372.65 245.90 372.91 246.43 372.63 246.70 C 372.35 246.98 372.55 248.32 373.07 249.68 C 373.60 251.09 373.64 252.82 373.15 253.69 C 372.40 255.03 372.22 255.01 371.65 253.53 Z M 249.00 246.94 C 249.00 245.81 249.45 245.16 250.00 245.50 C 250.55 245.84 251.00 246.77 251.00 247.56 C 251.00 248.35 250.55 249.00 250.00 249.00 C 249.45 249.00 249.00 248.07 249.00 246.94 Z M 372.07 242.59 C 370.49 240.68 370.96 239.74 372.90 240.94 C 373.64 241.40 374.06 242.32 373.84 242.99 C 373.54 243.87 373.04 243.75 372.07 242.59 Z M 249.10 238.50 C 249.13 235.01 249.27 234.77 250.17 236.65 C 250.90 238.15 250.89 239.35 250.14 240.65 C 249.24 242.19 249.07 241.83 249.10 238.50 Z M 371.27 233.00 C 371.11 229.19 372.15 227.82 373.52 230.02 C 374.28 231.26 373.14 237.00 372.13 237.00 C 371.74 237.00 371.35 235.20 371.27 233.00 Z M 248.84 230.38 C 248.59 228.66 248.68 226.41 249.04 225.38 C 249.56 223.89 249.79 224.15 250.16 226.62 C 250.41 228.34 250.32 230.59 249.96 231.62 C 249.44 233.11 249.21 232.85 248.84 230.38 Z M 371.00 221.22 C 371.00 216.51 371.42 216.05 373.01 219.02 C 373.84 220.56 373.73 221.55 372.54 223.24 C 371.05 225.38 371.00 225.32 371.00 221.22 Z M 248.35 214.50 C 248.30 206.47 249.02 204.02 250.40 207.59 C 250.73 208.46 250.78 209.54 250.51 209.98 C 250.24 210.42 250.39 212.79 250.85 215.24 C 251.43 218.34 251.32 220.21 250.48 221.35 C 249.82 222.26 249.08 223.00 248.84 223.00 C 248.60 223.00 248.38 219.18 248.35 214.50 Z M 371.00 208.44 C 371.00 207.58 371.45 207.16 372.00 207.50 C 372.55 207.84 373.00 208.54 373.00 209.06 C 373.00 209.58 372.55 210.00 372.00 210.00 C 371.45 210.00 371.00 209.30 371.00 208.44 Z M 371.62 204.17 C 371.18 202.90 371.08 201.58 371.41 201.26 C 372.45 200.22 373.17 201.75 372.79 204.16 L 372.43 206.50 L 371.62 204.17 Z M 248.57 198.92 C 249.49 191.60 251.10 190.10 250.87 196.78 C 250.76 199.84 250.10 202.50 249.28 203.18 C 248.10 204.16 247.99 203.50 248.57 198.92 Z M 371.00 193.04 C 371.00 189.72 371.44 187.00 371.98 187.00 C 372.52 187.00 372.79 188.46 372.58 190.25 C 372.37 192.04 372.56 194.18 372.99 195.00 C 373.48 195.91 373.24 197.01 372.39 197.79 C 371.21 198.88 371.00 198.15 371.00 193.04 Z M 371.50 184.00 C 371.84 183.45 372.32 183.00 372.56 183.00 C 372.80 183.00 373.00 183.45 373.00 184.00 C 373.00 184.55 372.52 185.00 371.94 185.00 C 371.36 185.00 371.16 184.55 371.50 184.00 Z M 248.00 182.00 C 248.00 181.45 248.48 181.00 249.06 181.00 C 249.64 181.00 249.84 181.45 249.50 182.00 C 249.16 182.55 248.68 183.00 248.44 183.00 C 248.20 183.00 248.00 182.55 248.00 182.00 Z M 370.88 178.00 C 370.42 172.57 371.26 164.10 372.11 165.50 C 373.42 167.63 373.96 171.91 373.00 172.50 C 372.45 172.84 372.24 174.12 372.55 175.33 C 372.85 176.55 372.69 178.66 372.18 180.02 C 371.35 182.25 371.22 182.04 370.88 178.00 Z M 248.15 175.05 C 248.58 173.76 249.95 173.53 250.07 174.72 C 250.12 175.12 249.61 175.63 248.95 175.85 C 248.29 176.07 247.93 175.71 248.15 175.05 Z M 248.13 164.95 L 248.25 159.50 L 249.01 164.00 C 249.43 166.47 249.37 168.93 248.88 169.45 C 248.36 170.01 248.05 168.15 248.13 164.95 Z M 248.50 158.00 C 248.12 156.82 248.04 155.62 248.32 155.35 C 248.59 155.07 249.12 155.82 249.50 157.00 C 249.88 158.18 249.96 159.38 249.68 159.65 C 249.41 159.93 248.88 159.18 248.50 158.00 Z M 83.75 80.47 C 83.34 80.03 83.00 78.62 83.00 77.33 L 83.00 75.00 L 104.25 74.98 C 115.94 74.97 173.20 74.30 231.50 73.50 C 289.80 72.70 344.36 72.03 352.75 72.02 L 368.00 72.00 L 368.00 75.00 L 368.00 78.00 L 359.25 78.02 C 354.44 78.02 341.50 78.24 330.50 78.50 C 258.03 80.22 84.81 81.60 83.75 80.47 Z M 83.44 65.70 C 83.10 64.83 82.98 63.37 83.17 62.46 C 83.55 60.57 84.53 60.54 203.50 59.54 C 273.00 58.96 311.88 58.40 348.25 57.44 L 368.00 56.92 L 368.00 59.90 C 368.00 61.54 367.65 63.10 367.22 63.37 C 366.43 63.85 262.62 65.38 146.77 66.61 C 90.14 67.21 83.98 67.12 83.44 65.70 Z M 83.43 50.57 C 83.09 49.22 83.08 47.67 83.42 47.14 C 83.79 46.53 99.40 46.13 124.76 46.09 C 147.17 46.04 176.53 45.79 190.00 45.51 C 203.47 45.23 238.57 44.78 268.00 44.50 C 297.43 44.22 332.00 43.70 344.83 43.34 L 368.15 42.68 L 367.83 45.96 C 367.52 49.01 367.22 49.26 363.50 49.54 C 358.26 49.92 288.97 50.86 217.50 51.52 C 186.15 51.81 143.30 52.27 122.27 52.54 L 84.04 53.02 L 83.43 50.57 Z M 83.70 36.27 C 83.40 34.75 83.46 33.22 83.83 32.87 C 84.20 32.52 117.80 31.94 158.50 31.58 C 199.20 31.21 256.57 30.50 286.00 29.99 C 371.52 28.50 367.46 28.46 367.76 30.64 C 367.90 31.66 367.67 33.03 367.25 33.67 C 366.31 35.10 293.49 36.71 194.00 37.50 C 156.88 37.79 116.99 38.26 105.37 38.54 L 84.24 39.04 L 83.70 36.27 Z M 83.73 21.74 C 83.46 19.96 83.40 18.22 83.60 17.88 C 83.80 17.53 97.81 17.19 114.73 17.12 C 192.46 16.79 281.49 15.82 312.50 14.96 C 331.20 14.44 351.34 14.01 357.25 14.01 L 368.00 14.00 L 368.00 16.94 C 368.00 18.56 367.66 20.09 367.25 20.33 C 365.82 21.20 274.83 22.62 165.00 23.49 C 124.58 23.81 89.86 24.28 87.86 24.53 C 84.41 24.96 84.20 24.83 83.73 21.74 Z" fill="none" stroke="rgba(255,255,255,0.92)" stroke-width="1.5" stroke-linejoin="round" fill-rule="evenodd"/>
</svg>
