<svg xmlns="http://www.w3.org/2000/svg" viewBox="0 0 100 100" width="100" height="100">
  <path d="M 0.00 50.00 L 0.00 0.00 L 50.00 0.00 L 100.00 0.00 L 100.00 50.00 L 100.00 100.00 L 50.00 100.00 L 0.00 100.00 L 0.00 50.00 Z M 94.76 50.25 L 94.50 4.50 L 79.50 4.18 C 71.25 4.00 50.89 4.16 34.25 4.54 L 4.00 5.23 L 4.00 7.86 L 4.00 10.50 L 46.50 10.18 L 89.00 9.86 L 89.00 52.93 L 89.00 96.00 L 92.01 96.00 L 95.02 96.00 L 94.76 50.25 Z M 58.56 88.47 C 61.58 86.60 64.60 83.58 66.47 80.56 L 69.50 75.66 L 69.83 57.69 C 70.27 34.14 68.66 29.49 57.50 22.14 L 53.50 19.50 L 28.75 19.19 L 4.00 18.87 L 4.00 21.94 L 4.00 25.00 L 27.04 25.00 C 48.00 25.00 50.43 25.18 53.95 26.97 C 62.73 31.46 64.26 36.25 63.83 58.08 C 63.50 74.48 63.47 74.70 60.70 78.33 C 55.50 85.14 54.22 85.44 28.00 86.00 L 4.50 86.50 L 4.18 89.30 L 3.86 92.10 L 28.76 91.80 L 53.66 91.50 L 58.56 88.47 Z M 49.55 62.55 C 54.11 57.99 52.35 49.34 46.28 46.46 C 39.50 43.25 33.00 47.67 33.00 55.50 C 33.00 61.87 36.13 65.00 42.50 65.00 C 46.04 65.00 47.65 64.44 49.55 62.55 Z" fill="none" stroke="rgba(255,255,255,0.92)" stroke-width="1.2" stroke-linejoin="round" fill-rule="evenodd"/>
</svg>
