<svg xmlns="http://www.w3.org/2000/svg" viewBox="0 0 100 100" width="100" height="100">
  <path d="M 0.00 50.00 L 0.00 0.00 L 50.00 0.00 L 100.00 0.00 L 100.00 50.00 L 100.00 100.00 L 50.00 100.00 L 0.00 100.00 L 0.00 50.00 Z M 75.00 95.45 C 75.00 95.15 73.44 94.25 71.53 93.45 C 68.75 92.29 61.74 92.00 36.03 92.00 C 4.67 92.00 4.00 92.04 4.00 94.00 C 4.00 95.96 4.67 96.00 39.50 96.00 C 59.02 96.00 75.00 95.75 75.00 95.45 Z M 95.00 50.50 L 95.00 5.00 L 60.75 5.00 C 41.91 5.01 21.44 5.30 15.25 5.66 L 4.00 6.31 L 4.00 8.90 L 4.00 11.50 L 46.50 11.18 L 89.00 10.87 L 89.00 53.43 L 89.00 96.00 L 92.00 96.00 L 95.00 96.00 L 95.00 50.50 Z M 74.23 81.20 C 79.79 77.93 80.28 75.10 79.55 50.63 C 79.19 38.46 78.43 27.56 77.87 26.42 C 77.31 25.27 75.53 23.56 73.92 22.61 C 71.33 21.08 67.89 20.89 44.26 20.97 C 29.56 21.01 15.87 21.32 13.84 21.64 C 11.60 22.00 9.04 23.39 7.33 25.19 L 4.50 28.15 L 4.65 51.94 C 4.74 67.51 5.18 76.48 5.93 77.86 C 6.55 79.03 8.74 80.89 10.78 82.00 C 14.34 83.93 15.70 83.99 43.00 83.41 C 66.64 82.91 71.97 82.53 74.23 81.20 Z M 12.49 75.58 C 10.45 73.54 10.34 72.42 10.10 51.83 C 9.86 30.29 9.87 30.21 12.15 28.61 C 14.12 27.23 18.31 27.00 42.03 27.00 C 62.76 27.00 70.05 27.32 71.36 28.27 C 72.89 29.39 73.14 32.12 73.53 51.76 C 73.96 73.88 73.95 73.99 71.73 75.39 C 70.00 76.50 63.39 76.91 42.07 77.27 C 15.06 77.72 14.60 77.69 12.49 75.58 Z" fill="none" stroke="rgba(255,255,255,0.92)" stroke-width="1.2" stroke-linejoin="round" fill-rule="evenodd"/>
</svg>
