<svg xmlns="http://www.w3.org/2000/svg" viewBox="0 0 100 100" width="100" height="100">
  <path d="M 0.00 50.00 L 0.00 0.00 L 50.00 0.00 L 100.00 0.00 L 100.00 50.00 L 100.00 100.00 L 50.00 100.00 L 0.00 100.00 L 0.00 50.00 Z M 59.77 92.25 C 59.53 90.19 59.15 87.83 58.92 87.00 C 58.56 85.72 60.97 85.46 75.63 85.23 L 92.76 84.95 L 93.30 87.73 C 93.59 89.25 93.59 91.74 93.29 93.25 C 92.88 95.34 93.14 96.00 94.38 96.00 C 95.85 96.00 96.00 91.86 96.00 50.85 L 96.00 5.70 L 85.34 6.35 C 79.48 6.71 58.78 7.00 39.34 7.00 L 4.00 7.00 L 4.00 10.07 L 4.00 13.13 L 48.25 12.92 L 92.50 12.71 L 92.76 45.85 L 93.03 79.00 L 48.51 79.00 L 4.00 79.00 L 4.00 82.00 L 4.00 85.00 L 18.25 85.15 C 26.09 85.23 33.71 85.21 35.18 85.10 C 37.86 84.89 37.87 84.91 37.29 90.44 L 36.72 96.00 L 48.47 96.00 L 60.21 96.00 L 59.77 92.25 Z" fill="none" stroke="rgba(255,255,255,0.92)" stroke-width="1.2" stroke-linejoin="round" fill-rule="evenodd"/>
</svg>
