<svg xmlns="http://www.w3.org/2000/svg" viewBox="0 0 100 100" width="100" height="100">
  <path d="M 0.00 50.00 L 0.00 0.00 L 50.00 0.00 L 100.00 0.00 L 100.00 50.00 L 100.00 100.00 L 50.00 100.00 L 0.00 100.00 L 0.00 50.00 Z M 9.00 90.50 L 9.00 85.00 L 25.93 85.00 L 42.86 85.00 L 42.28 90.53 L 41.71 96.07 L 53.11 95.78 L 64.50 95.50 L 64.43 92.00 C 64.39 90.08 64.00 87.71 63.57 86.75 C 62.84 85.12 63.94 85.00 79.39 85.00 L 96.00 85.00 L 96.00 82.01 L 96.00 79.02 L 52.25 78.76 L 8.50 78.50 L 8.24 45.75 L 7.97 13.00 L 51.99 13.00 L 96.00 13.00 L 96.00 10.00 L 96.00 7.00 L 50.00 7.00 L 4.00 7.00 L 4.00 51.50 L 4.00 96.00 L 6.50 96.00 C 8.86 96.00 9.00 95.70 9.00 90.50 Z" fill="none" stroke="rgba(255,255,255,0.92)" stroke-width="1.2" stroke-linejoin="round" fill-rule="evenodd"/>
</svg>
