<svg xmlns="http://www.w3.org/2000/svg" viewBox="0 0 100 100" width="100" height="100">
  <path d="M 0.00 50.00 L 0.00 0.00 L 50.00 0.00 L 100.00 0.00 L 100.00 50.00 L 100.00 100.00 L 50.00 100.00 L 0.00 100.00 L 0.00 50.00 Z M 96.00 68.75 C 96.00 53.76 95.70 33.06 95.34 22.75 L 94.68 4.00 L 92.03 4.00 L 89.38 4.00 L 89.82 49.00 L 90.25 94.00 L 50.37 94.12 C 28.44 94.18 9.72 94.15 8.77 94.06 C 7.82 93.96 6.24 94.34 5.27 94.91 C 4.04 95.63 17.54 95.95 49.75 95.97 L 96.00 96.00 L 96.00 68.75 Z M 72.99 87.25 C 79.01 84.23 79.07 83.83 78.80 48.50 C 78.66 30.90 78.39 13.69 78.19 10.25 C 77.84 4.24 77.72 4.00 75.16 4.00 L 72.50 4.00 L 72.82 41.89 L 73.14 79.79 L 70.85 81.39 C 68.86 82.79 64.29 83.00 36.28 83.00 L 4.00 83.00 L 4.00 86.00 L 4.00 89.00 L 36.75 89.00 C 65.93 89.00 69.88 88.81 72.99 87.25 Z" fill="none" stroke="rgba(255,255,255,0.92)" stroke-width="1.2" stroke-linejoin="round" fill-rule="evenodd"/>
</svg>
