<svg xmlns="http://www.w3.org/2000/svg" viewBox="0 0 100 100" width="100" height="100">
  <path d="M 0.00 50.00 L 0.00 0.00 L 50.00 0.00 L 100.00 0.00 L 100.00 50.00 L 100.00 100.00 L 50.00 100.00 L 0.00 100.00 L 0.00 50.00 Z M 11.98 55.25 L 11.91 14.50 L 53.96 14.24 L 96.00 13.98 L 96.00 10.98 L 96.00 7.98 L 50.75 8.24 L 5.50 8.50 L 5.65 32.50 C 5.73 45.70 5.84 65.39 5.90 76.25 L 6.00 96.00 L 9.02 96.00 L 12.04 96.00 L 11.98 55.25 Z M 29.00 94.02 C 29.00 89.70 31.99 89.17 58.21 88.82 C 84.88 88.47 85.87 88.65 86.26 93.84 C 86.39 95.50 87.07 96.00 89.21 96.00 C 91.71 96.00 92.00 95.65 92.00 92.62 C 92.00 88.34 87.15 83.31 82.14 82.37 C 77.08 81.42 31.19 82.83 29.00 84.00 C 25.93 85.65 23.00 90.10 23.00 93.13 C 23.00 95.65 23.36 96.00 26.00 96.00 C 28.32 96.00 29.00 95.55 29.00 94.02 Z M 86.66 71.58 C 88.41 70.53 90.32 68.60 90.91 67.29 C 91.55 65.90 92.00 58.42 92.00 49.42 C 92.00 32.26 91.16 28.69 86.39 25.45 C 83.67 23.62 81.90 23.52 57.07 23.78 C 38.89 23.98 29.84 24.44 28.07 25.28 C 26.66 25.95 24.69 28.08 23.69 30.00 C 22.11 33.08 21.94 35.48 22.34 49.87 C 22.72 64.11 23.04 66.57 24.74 68.87 C 28.47 73.89 29.55 74.06 57.50 73.77 C 81.07 73.53 83.80 73.32 86.66 71.58 Z M 30.86 66.35 C 29.56 64.90 29.06 61.26 28.50 49.36 C 27.51 28.34 25.03 30.00 57.35 30.00 C 80.63 30.00 82.82 30.15 84.35 31.83 C 85.73 33.36 86.00 36.08 85.98 48.58 C 85.98 56.79 85.59 64.10 85.13 64.82 C 83.74 67.02 78.50 67.55 55.00 67.89 C 34.11 68.19 32.38 68.08 30.86 66.35 Z" fill="none" stroke="rgba(255,255,255,0.92)" stroke-width="1.2" stroke-linejoin="round" fill-rule="evenodd"/>
</svg>
