<svg xmlns="http://www.w3.org/2000/svg" viewBox="0 0 100 100" width="100" height="100">
  <path d="M 0.00 50.00 L 0.00 0.00 L 50.00 0.00 L 100.00 0.00 L 100.00 50.00 L 100.00 100.00 L 50.00 100.00 L 0.00 100.00 L 0.00 50.00 Z M 16.00 93.57 C 16.00 91.69 17.95 88.39 19.32 87.94 C 19.42 87.91 30.18 87.63 43.24 87.32 C 64.20 86.82 67.27 86.95 69.49 88.40 C 71.24 89.55 72.00 90.95 72.00 93.02 C 72.00 95.66 72.34 96.00 75.00 96.00 C 77.74 96.00 78.00 95.71 78.00 92.63 C 78.00 90.70 77.08 88.10 75.83 86.51 C 71.89 81.50 68.81 80.92 46.86 81.07 C 20.48 81.24 16.45 81.81 12.82 85.87 C 10.87 88.06 10.00 90.11 10.00 92.52 C 10.00 95.72 10.24 96.00 13.00 96.00 C 15.51 96.00 16.00 95.60 16.00 93.57 Z M 94.00 50.61 L 94.00 5.21 L 58.25 5.63 C 38.59 5.87 18.34 6.31 13.25 6.62 L 4.00 7.19 L 4.00 9.96 L 4.00 12.74 L 40.75 12.34 C 60.96 12.13 79.86 11.81 82.75 11.64 L 88.00 11.34 L 88.00 53.67 L 88.00 96.00 L 91.00 96.00 L 94.00 96.00 L 94.00 50.61 Z M 72.18 70.33 C 77.43 67.26 77.97 65.19 77.99 47.90 C 78.00 30.91 77.31 27.53 73.21 24.50 C 70.68 22.64 68.78 22.49 45.04 22.33 C 18.39 22.14 17.64 22.25 12.75 26.81 L 10.00 29.37 L 10.00 47.22 C 10.00 74.06 8.91 73.25 44.18 72.67 C 66.35 72.31 69.20 72.07 72.18 70.33 Z M 18.25 65.52 C 16.07 63.94 16.00 63.34 16.00 47.48 C 16.00 32.65 16.17 30.98 17.82 30.10 C 18.81 29.56 30.77 28.99 44.39 28.81 C 67.93 28.52 69.21 28.60 70.57 30.44 C 71.66 31.92 72.00 35.97 72.00 47.54 C 72.00 60.85 71.78 62.89 70.20 64.32 C 68.69 65.68 64.59 66.04 44.45 66.55 C 23.24 67.09 20.24 66.97 18.25 65.52 Z" fill="none" stroke="rgba(255,255,255,0.92)" stroke-width="1.2" stroke-linejoin="round" fill-rule="evenodd"/>
</svg>
