<svg xmlns="http://www.w3.org/2000/svg" viewBox="0 0 100 100" width="100" height="100">
  <path d="M 0.00 50.00 L 0.00 0.00 L 50.00 0.00 L 100.00 0.00 L 100.00 50.00 L 100.00 100.00 L 50.00 100.00 L 0.00 100.00 L 0.00 50.00 Z M 6.84 54.96 C 6.79 32.39 7.04 13.63 7.39 13.28 C 7.74 12.92 27.83 12.43 52.02 12.19 L 96.00 11.74 L 96.00 8.87 L 96.00 6.00 L 72.66 6.00 C 59.83 6.00 39.13 6.30 26.66 6.66 L 4.00 7.32 L 4.00 51.66 C 4.00 89.94 4.20 96.00 5.47 96.00 C 6.73 96.00 6.92 90.39 6.84 54.96 Z M 96.00 94.50 C 96.00 93.19 91.55 93.01 61.75 93.05 C 34.90 93.08 26.85 93.39 24.50 94.46 C 21.89 95.66 26.33 95.85 58.75 95.92 C 91.23 95.99 96.00 95.81 96.00 94.50 Z M 87.63 82.08 C 92.58 78.79 93.00 76.64 92.99 54.35 C 92.99 42.88 92.53 31.83 91.96 29.79 C 91.35 27.61 89.72 25.22 87.99 23.99 C 85.17 21.98 83.94 21.90 55.87 21.97 C 28.15 22.03 26.51 22.14 23.33 24.11 C 21.48 25.25 19.53 27.01 18.99 28.02 C 18.42 29.09 18.00 39.91 18.00 53.64 L 18.00 77.40 L 21.25 80.75 L 24.49 84.10 L 55.00 83.80 C 79.27 83.56 85.94 83.21 87.63 82.08 Z M 25.14 76.66 C 24.40 75.78 24.00 67.90 23.96 53.42 C 23.89 32.11 23.95 31.46 26.06 29.75 C 27.98 28.20 31.06 27.98 53.36 27.82 C 84.00 27.59 82.82 27.53 85.12 29.61 C 86.85 31.17 87.00 33.05 87.00 53.10 C 87.00 74.48 86.96 74.92 84.78 76.44 C 82.89 77.76 78.26 78.00 54.40 78.00 C 32.12 78.00 26.01 77.72 25.14 76.66 Z" fill="none" stroke="rgba(255,255,255,0.92)" stroke-width="1.2" stroke-linejoin="round" fill-rule="evenodd"/>
</svg>
