<svg xmlns="http://www.w3.org/2000/svg" viewBox="0 0 378 400" width="378" height="400">
  <path d="M 0.00 200.00 L 0.00 0.00 L 189.00 0.00 L 378.00 0.00 L 378.00 200.00 L 378.00 400.00 L 189.00 400.00 L 0.00 400.00 L 0.00 200.00 Z M 91.00 393.59 C 119.33 393.33 172.43 392.85 209.00 392.53 C 276.46 391.92 287.20 391.75 336.73 390.41 C 352.00 390.00 366.30 389.63 368.50 389.58 L 372.50 389.50 L 372.50 290.00 C 372.50 177.50 371.94 78.30 371.08 35.65 L 370.50 6.79 L 327.50 6.92 C 283.54 7.04 148.30 8.71 119.50 9.48 C 106.00 9.84 72.43 10.48 19.29 11.39 C 13.13 11.49 7.82 11.84 7.50 12.17 C 7.17 12.49 6.95 39.25 7.01 71.63 C 7.07 104.01 7.11 189.95 7.10 262.62 L 7.08 394.73 L 23.29 394.40 C 32.20 394.21 62.67 393.85 91.00 393.59 Z M 113.00 388.94 C 113.00 388.36 113.45 388.16 114.00 388.50 C 114.55 388.84 115.00 389.32 115.00 389.56 C 115.00 389.80 114.55 390.00 114.00 390.00 C 113.45 390.00 113.00 389.52 113.00 388.94 Z M 161.81 389.32 C 162.53 389.03 163.40 389.06 163.73 389.40 C 164.06 389.73 163.47 389.96 162.42 389.92 C 161.25 389.87 161.01 389.64 161.81 389.32 Z M 213.50 389.00 C 213.16 388.45 213.61 388.00 214.50 388.00 C 215.39 388.00 215.84 388.45 215.50 389.00 C 215.16 389.55 214.71 390.00 214.50 390.00 C 214.29 390.00 213.84 389.55 213.50 389.00 Z M 226.13 389.13 C 225.18 388.51 226.04 388.11 228.95 387.83 C 231.26 387.61 233.37 387.79 233.63 388.22 C 233.90 388.65 233.53 389.01 232.81 389.01 C 232.09 389.02 230.60 389.25 229.50 389.53 C 228.40 389.80 226.88 389.62 226.13 389.13 Z M 237.50 389.00 C 237.14 388.42 238.07 388.01 239.69 388.02 C 241.87 388.03 242.16 388.25 241.00 389.00 C 239.08 390.24 238.27 390.24 237.50 389.00 Z M 247.00 389.61 C 247.00 388.66 249.99 388.18 250.53 389.04 C 250.85 389.57 250.19 390.00 249.06 390.00 C 247.93 390.00 247.00 389.82 247.00 389.61 Z M 253.81 389.32 C 254.53 389.03 255.40 389.06 255.73 389.40 C 256.06 389.73 255.47 389.96 254.42 389.92 C 253.25 389.87 253.01 389.64 253.81 389.32 Z M 263.50 389.00 C 263.16 388.45 263.36 388.00 263.94 388.00 C 264.52 388.00 265.00 388.45 265.00 389.00 C 265.00 389.55 264.80 390.00 264.56 390.00 C 264.32 390.00 263.84 389.55 263.50 389.00 Z M 283.50 388.00 C 283.84 387.45 284.32 387.00 284.56 387.00 C 284.80 387.00 285.00 387.45 285.00 388.00 C 285.00 388.55 284.52 389.00 283.94 389.00 C 283.36 389.00 283.16 388.55 283.50 388.00 Z M 16.79 386.95 C 14.83 386.48 14.47 385.70 14.28 381.45 C 13.85 371.75 13.98 270.68 14.43 270.24 C 14.68 269.99 25.37 269.61 38.19 269.39 C 67.32 268.91 113.62 267.96 121.25 267.70 C 124.54 267.58 127.01 267.93 127.01 268.50 C 127.02 269.05 127.13 295.71 127.26 327.75 L 127.50 386.00 L 114.50 386.03 C 99.52 386.06 32.05 387.02 24.29 387.31 C 21.42 387.41 18.05 387.25 16.79 386.95 Z M 330.50 387.00 C 330.16 386.45 330.58 386.00 331.44 386.00 C 332.30 386.00 333.00 386.45 333.00 387.00 C 333.00 387.55 332.58 388.00 332.06 388.00 C 331.54 388.00 330.84 387.55 330.50 387.00 Z M 336.50 387.00 C 336.16 386.45 336.36 386.00 336.94 386.00 C 337.52 386.00 338.00 386.45 338.00 387.00 C 338.00 387.55 337.80 388.00 337.56 388.00 C 337.32 388.00 336.84 387.55 336.50 387.00 Z M 344.81 387.32 C 345.53 387.03 346.40 387.06 346.73 387.40 C 347.06 387.73 346.47 387.96 345.42 387.92 C 344.25 387.87 344.01 387.64 344.81 387.32 Z M 359.81 386.32 C 360.53 386.03 361.40 386.06 361.73 386.40 C 362.06 386.73 361.47 386.96 360.42 386.92 C 359.25 386.87 359.01 386.64 359.81 386.32 Z M 134.29 332.23 C 134.27 302.68 133.93 276.14 133.54 273.25 L 132.81 268.00 L 177.66 267.94 C 202.32 267.91 227.90 267.80 234.50 267.70 L 246.50 267.53 L 246.66 291.51 C 247.18 368.60 247.20 384.14 246.76 384.58 C 246.49 384.84 221.08 385.26 190.30 385.51 L 134.32 385.95 L 134.29 332.23 Z M 254.64 384.21 C 254.40 383.82 254.14 360.77 254.06 333.00 C 253.98 305.23 253.71 279.26 253.48 275.29 L 253.05 268.08 L 256.27 267.59 C 258.05 267.32 283.44 266.89 312.70 266.63 L 365.89 266.15 L 366.20 288.83 C 366.36 301.30 366.27 327.48 366.00 347.00 L 365.50 382.50 L 363.00 382.63 C 360.32 382.76 311.04 383.83 276.29 384.51 C 264.62 384.74 254.88 384.60 254.64 384.21 Z M 10.19 380.50 C 10.22 378.85 10.44 378.30 10.69 379.27 C 10.95 380.24 10.93 381.59 10.66 382.27 C 10.38 382.95 10.17 382.15 10.19 380.50 Z M 10.08 373.42 C 10.13 372.25 10.36 372.01 10.68 372.81 C 10.97 373.53 10.94 374.40 10.60 374.73 C 10.27 375.06 10.04 374.47 10.08 373.42 Z M 369.00 366.94 C 369.00 366.36 369.45 366.16 370.00 366.50 C 370.55 366.84 371.00 367.32 371.00 367.56 C 371.00 367.80 370.55 368.00 370.00 368.00 C 369.45 368.00 369.00 367.52 369.00 366.94 Z M 10.00 365.44 C 10.00 364.58 10.46 364.16 11.02 364.51 C 11.58 364.86 11.77 365.56 11.46 366.07 C 10.60 367.46 10.00 367.20 10.00 365.44 Z M 130.00 365.94 C 130.00 365.36 130.45 365.16 131.00 365.50 C 131.55 365.84 132.00 366.32 132.00 366.56 C 132.00 366.80 131.55 367.00 131.00 367.00 C 130.45 367.00 130.00 366.52 130.00 365.94 Z M 130.02 360.31 C 130.02 359.31 130.47 357.82 131.00 357.00 C 131.76 355.83 131.97 356.09 131.98 358.19 C 131.99 359.67 131.55 361.16 131.00 361.50 C 130.45 361.84 130.01 361.30 130.02 360.31 Z M 369.08 360.42 C 369.13 359.25 369.36 359.01 369.68 359.81 C 369.97 360.53 369.94 361.40 369.60 361.73 C 369.27 362.06 369.04 361.47 369.08 360.42 Z M 9.71 357.00 C 10.00 355.90 10.63 355.00 11.12 355.00 C 12.16 355.00 12.20 355.32 11.39 357.42 C 10.51 359.71 9.09 359.36 9.71 357.00 Z M 369.16 356.00 C 369.16 354.62 369.38 354.06 369.66 354.75 C 369.94 355.44 369.94 356.56 369.66 357.25 C 369.38 357.94 369.16 357.38 369.16 356.00 Z M 130.07 352.81 C 130.03 351.33 130.45 349.84 131.00 349.50 C 132.19 348.76 132.19 350.72 131.00 353.50 C 130.23 355.29 130.13 355.21 130.07 352.81 Z M 9.50 351.00 C 9.84 350.45 10.32 350.00 10.56 350.00 C 10.80 350.00 11.00 350.45 11.00 351.00 C 11.00 351.55 10.52 352.00 9.94 352.00 C 9.36 352.00 9.16 351.55 9.50 351.00 Z M 11.08 347.42 C 11.13 346.25 11.36 346.01 11.68 346.81 C 11.97 347.53 11.94 348.40 11.60 348.73 C 11.27 349.06 11.04 348.47 11.08 347.42 Z M 130.67 344.33 C 130.30 343.97 130.00 343.20 130.00 342.63 C 130.00 342.01 130.47 342.07 131.18 342.78 C 131.83 343.43 132.13 344.20 131.85 344.48 C 131.57 344.77 131.03 344.70 130.67 344.33 Z M 10.00 342.77 C 10.00 340.95 11.77 339.44 12.76 340.42 C 13.10 340.77 12.62 341.81 11.69 342.74 C 10.13 344.30 10.00 344.30 10.00 342.77 Z M 130.00 337.44 C 130.00 336.58 130.46 336.16 131.02 336.51 C 131.58 336.86 131.77 337.56 131.46 338.07 C 130.60 339.46 130.00 339.20 130.00 337.44 Z M 10.32 333.26 C 10.42 330.92 10.84 329.01 11.25 329.01 C 12.24 329.00 12.09 332.97 11.00 335.50 C 10.37 336.98 10.19 336.39 10.32 333.26 Z M 130.37 333.91 C 129.72 333.09 129.57 331.66 130.02 330.50 C 130.70 328.71 130.86 328.68 131.48 330.19 C 131.86 331.12 132.02 332.65 131.83 333.60 C 131.55 335.04 131.32 335.09 130.37 333.91 Z M 369.30 327.00 C 369.30 323.98 369.49 322.74 369.72 324.25 C 369.95 325.76 369.95 328.24 369.72 329.75 C 369.49 331.26 369.30 330.02 369.30 327.00 Z M 130.00 323.06 C 130.00 321.99 130.45 320.84 131.00 320.50 C 131.57 320.15 132.00 320.99 132.00 322.44 C 132.00 323.85 131.55 325.00 131.00 325.00 C 130.45 325.00 130.00 324.13 130.00 323.06 Z M 10.50 323.00 C 10.84 322.45 11.32 322.00 11.56 322.00 C 11.80 322.00 12.00 322.45 12.00 323.00 C 12.00 323.55 11.52 324.00 10.94 324.00 C 10.36 324.00 10.16 323.55 10.50 323.00 Z M 369.16 319.00 C 369.16 317.62 369.38 317.06 369.66 317.75 C 369.94 318.44 369.94 319.56 369.66 320.25 C 369.38 320.94 369.16 320.38 369.16 319.00 Z M 10.00 317.94 C 10.00 317.36 10.45 317.16 11.00 317.50 C 11.55 317.84 12.00 318.32 12.00 318.56 C 12.00 318.80 11.55 319.00 11.00 319.00 C 10.45 319.00 10.00 318.52 10.00 317.94 Z M 130.00 315.06 C 130.00 313.38 130.17 312.00 130.38 312.00 C 131.23 312.00 131.67 317.09 130.87 317.58 C 130.39 317.88 130.00 316.74 130.00 315.06 Z M 10.00 311.50 C 10.00 310.12 10.45 309.00 11.00 309.00 C 11.55 309.00 12.00 310.12 12.00 311.50 C 12.00 312.88 11.55 314.00 11.00 314.00 C 10.45 314.00 10.00 312.88 10.00 311.50 Z M 130.14 302.20 C 130.07 297.30 130.40 294.13 130.94 294.47 C 131.46 294.78 131.86 296.72 131.84 298.77 C 131.82 300.82 131.92 302.95 132.06 303.50 C 132.20 304.05 132.06 305.18 131.74 306.00 C 131.42 306.82 130.96 308.18 130.71 309.00 C 130.46 309.82 130.20 306.76 130.14 302.20 Z M 369.10 302.05 C 369.04 299.28 369.35 297.96 369.93 298.55 C 370.48 299.11 370.52 300.95 370.04 303.00 L 369.20 306.50 L 369.10 302.05 Z M 369.00 294.44 C 369.00 293.58 369.46 293.16 370.02 293.51 C 370.58 293.86 370.77 294.56 370.46 295.07 C 369.60 296.46 369.00 296.20 369.00 294.44 Z M 130.25 290.48 C 130.25 289.12 130.64 288.00 131.12 288.00 C 131.61 288.00 132.00 288.87 132.00 289.94 C 132.00 291.01 131.61 292.13 131.12 292.42 C 130.64 292.72 130.25 291.85 130.25 290.48 Z M 368.00 287.00 C 368.00 286.45 368.45 286.00 369.00 286.00 C 369.55 286.00 370.00 286.45 370.00 287.00 C 370.00 287.55 369.55 288.00 369.00 288.00 C 368.45 288.00 368.00 287.55 368.00 287.00 Z M 130.00 284.56 C 130.00 283.70 130.45 283.00 131.00 283.00 C 131.55 283.00 132.00 283.42 132.00 283.94 C 132.00 284.46 131.55 285.16 131.00 285.50 C 130.45 285.84 130.00 285.42 130.00 284.56 Z M 369.23 280.00 C 369.23 278.07 369.44 277.29 369.69 278.25 C 369.94 279.21 369.94 280.79 369.69 281.75 C 369.44 282.71 369.23 281.93 369.23 280.00 Z M 10.50 279.00 C 10.84 278.45 11.32 278.00 11.56 278.00 C 11.80 278.00 12.00 278.45 12.00 279.00 C 12.00 279.55 11.52 280.00 10.94 280.00 C 10.36 280.00 10.16 279.55 10.50 279.00 Z M 130.00 275.00 C 130.00 274.45 130.45 274.00 131.00 274.00 C 131.55 274.00 132.00 274.45 132.00 275.00 C 132.00 275.55 131.55 276.00 131.00 276.00 C 130.45 276.00 130.00 275.55 130.00 275.00 Z M 249.67 272.33 C 248.63 271.30 248.88 268.00 250.00 268.00 C 250.55 268.00 251.00 269.12 251.00 270.50 C 251.00 273.12 250.77 273.44 249.67 272.33 Z M 129.55 270.09 C 129.23 269.56 129.39 268.87 129.91 268.55 C 130.44 268.23 131.13 268.39 131.45 268.91 C 131.77 269.44 131.61 270.13 131.09 270.45 C 130.56 270.77 129.87 270.61 129.55 270.09 Z M 368.50 268.00 C 368.16 267.45 368.61 267.00 369.50 267.00 C 370.39 267.00 370.84 267.45 370.50 268.00 C 370.16 268.55 369.71 269.00 369.50 269.00 C 369.29 269.00 368.84 268.55 368.50 268.00 Z M 32.50 266.00 C 32.84 265.45 33.54 265.00 34.06 265.00 C 34.58 265.00 35.00 265.45 35.00 266.00 C 35.00 266.55 34.30 267.00 33.44 267.00 C 32.58 267.00 32.16 266.55 32.50 266.00 Z M 58.50 266.00 C 58.84 265.45 59.32 265.00 59.56 265.00 C 59.80 265.00 60.00 265.45 60.00 266.00 C 60.00 266.55 59.52 267.00 58.94 267.00 C 58.36 267.00 58.16 266.55 58.50 266.00 Z M 24.25 262.24 C 16.55 262.07 11.00 261.54 11.00 260.97 C 11.00 260.44 11.70 260.00 12.55 260.00 C 13.77 260.00 14.08 258.87 14.00 254.75 C 13.94 251.86 13.91 225.76 13.94 196.75 L 13.99 144.00 L 26.24 143.93 C 32.98 143.89 50.42 143.61 65.00 143.32 C 79.58 143.02 99.38 142.71 109.00 142.64 L 126.50 142.50 L 126.76 201.62 L 127.02 260.74 L 116.26 260.77 C 101.31 260.81 40.83 262.00 39.00 262.29 C 38.17 262.42 31.54 262.40 24.25 262.24 Z M 134.66 259.26 C 134.34 258.74 134.07 204.02 134.06 137.66 L 134.05 17.00 L 147.27 16.86 C 154.55 16.79 162.30 16.64 164.50 16.54 C 166.70 16.44 202.93 16.03 245.00 15.62 C 287.07 15.21 331.06 14.70 342.75 14.48 L 364.00 14.09 L 364.07 50.79 C 364.14 90.59 364.57 139.28 365.51 211.75 L 366.10 258.00 L 361.30 258.15 C 358.66 258.23 353.12 258.38 349.00 258.49 C 315.12 259.38 135.13 260.02 134.66 259.26 Z M 10.08 255.42 C 10.13 254.25 10.36 254.01 10.68 254.81 C 10.97 255.53 10.94 256.40 10.60 256.73 C 10.27 257.06 10.04 256.47 10.08 255.42 Z M 342.41 250.60 C 345.96 249.12 350.93 243.75 351.14 241.17 C 351.71 234.10 350.61 134.15 349.94 132.55 C 348.55 129.21 345.73 126.33 342.01 124.46 C 338.73 122.80 333.26 122.74 249.59 123.41 C 179.90 123.96 159.99 124.40 157.54 125.42 C 154.00 126.90 149.27 132.07 148.46 135.33 C 148.17 136.52 148.06 161.35 148.21 190.50 L 148.50 243.50 L 150.90 246.86 C 155.60 253.45 150.26 253.14 249.37 252.51 C 320.79 252.05 339.89 251.66 342.41 250.60 Z M 158.70 242.90 L 155.93 240.50 L 155.83 188.66 L 155.73 136.82 L 157.89 134.66 C 159.98 132.57 161.06 132.48 189.78 131.88 C 206.12 131.54 246.13 131.19 278.67 131.11 L 337.85 130.96 L 340.43 133.23 L 343.01 135.50 L 343.62 187.18 L 344.24 238.85 L 341.66 241.43 C 339.10 243.99 339.04 244.00 321.80 244.01 C 312.28 244.01 272.32 244.30 232.98 244.66 L 161.47 245.31 L 158.70 242.90 Z M 360.00 238.56 C 360.00 238.32 359.55 237.84 359.00 237.50 C 358.45 237.16 358.00 237.36 358.00 237.94 C 358.00 238.52 358.45 239.00 359.00 239.00 C 359.55 239.00 360.00 238.80 360.00 238.56 Z M 10.19 235.50 C 10.22 233.85 10.44 233.30 10.69 234.27 C 10.95 235.24 10.93 236.59 10.66 237.27 C 10.38 237.95 10.17 237.15 10.19 235.50 Z M 10.08 224.42 C 10.13 223.25 10.36 223.01 10.68 223.81 C 10.97 224.53 10.94 225.40 10.60 225.73 C 10.27 226.06 10.04 225.47 10.08 224.42 Z M 10.23 216.00 C 10.23 214.07 10.44 213.29 10.69 214.25 C 10.94 215.21 10.94 216.79 10.69 217.75 C 10.44 218.71 10.23 217.93 10.23 216.00 Z M 10.00 203.00 C 10.00 198.42 10.30 194.96 10.66 195.33 C 11.36 196.03 11.15 210.19 10.43 210.91 C 10.19 211.14 10.00 207.58 10.00 203.00 Z M 10.25 190.50 C 10.26 188.30 10.47 187.52 10.71 188.76 C 10.95 190.01 10.94 191.81 10.69 192.76 C 10.44 193.72 10.24 192.70 10.25 190.50 Z M 10.00 183.94 C 10.00 182.81 10.43 182.15 10.96 182.47 C 11.48 182.80 11.66 183.72 11.35 184.53 C 10.56 186.60 10.00 186.36 10.00 183.94 Z M 10.02 173.31 C 10.01 172.10 10.45 170.84 11.00 170.50 C 12.27 169.71 12.27 172.03 11.00 174.00 C 10.21 175.22 10.03 175.09 10.02 173.31 Z M 10.08 158.42 C 10.13 157.25 10.36 157.01 10.68 157.81 C 10.97 158.53 10.94 159.40 10.60 159.73 C 10.27 160.06 10.04 159.47 10.08 158.42 Z M 19.00 141.00 C 19.00 140.45 19.48 140.00 20.06 140.00 C 20.64 140.00 20.84 140.45 20.50 141.00 C 20.16 141.55 19.68 142.00 19.44 142.00 C 19.20 142.00 19.00 141.55 19.00 141.00 Z M 98.27 139.67 C 98.48 139.03 99.68 138.35 100.94 138.17 C 103.71 137.76 102.89 139.53 99.96 140.30 C 98.64 140.65 98.03 140.42 98.27 139.67 Z M 88.50 139.00 C 88.16 138.45 88.36 138.00 88.94 138.00 C 89.52 138.00 90.00 138.45 90.00 139.00 C 90.00 139.55 89.80 140.00 89.56 140.00 C 89.32 140.00 88.84 139.55 88.50 139.00 Z M 106.50 139.00 C 106.14 138.42 107.07 138.01 108.69 138.02 C 110.87 138.03 111.16 138.25 110.00 139.00 C 108.08 140.24 107.27 140.24 106.50 139.00 Z M 115.80 138.88 C 113.52 137.47 115.85 136.76 119.70 137.71 L 123.50 138.64 L 120.27 139.14 C 118.50 139.42 116.49 139.30 115.80 138.88 Z M 14.06 120.37 C 14.15 111.09 13.90 102.71 13.50 101.75 C 13.05 100.65 13.24 100.00 14.00 100.00 C 14.76 100.00 15.01 99.15 14.66 97.75 C 14.20 95.87 13.62 37.81 13.91 23.00 L 14.00 18.50 L 36.25 18.25 C 48.49 18.12 68.85 17.76 81.50 17.46 C 103.41 16.95 123.05 16.70 125.75 16.90 C 126.73 16.98 127.00 29.41 127.00 75.44 C 127.00 107.58 126.66 134.09 126.25 134.34 C 125.84 134.59 109.97 135.07 91.00 135.40 C 72.03 135.74 46.91 136.29 35.19 136.62 L 13.89 137.23 L 14.06 120.37 Z M 212.00 111.75 C 234.88 111.47 237.02 110.95 240.90 104.66 C 242.91 101.41 243.00 99.97 242.99 71.88 C 242.99 54.43 242.56 40.96 241.94 38.72 C 241.20 36.07 239.62 34.01 236.69 31.89 L 232.50 28.84 L 195.83 29.17 L 159.17 29.50 L 154.83 32.54 C 148.19 37.21 147.97 38.58 148.25 72.98 L 148.50 102.82 L 151.59 106.66 C 153.30 108.77 156.03 110.95 157.67 111.50 C 159.32 112.05 167.60 112.39 176.08 112.25 C 184.56 112.12 200.72 111.90 212.00 111.75 Z M 342.16 109.99 C 344.21 109.42 347.17 107.43 348.91 105.45 L 352.00 101.93 L 352.00 69.54 L 352.00 37.15 L 349.38 34.04 C 344.16 27.84 344.21 27.85 306.73 27.96 C 286.34 28.02 270.94 28.49 268.41 29.13 C 262.96 30.50 258.98 34.70 257.93 40.18 C 257.11 44.49 257.61 94.75 258.53 100.56 C 259.28 105.27 264.79 109.99 270.49 110.81 C 277.69 111.85 337.96 111.16 342.16 109.99 Z M 157.90 102.38 C 156.78 101.04 156.44 94.66 156.21 70.90 L 155.92 41.10 L 158.66 39.30 C 161.15 37.67 164.69 37.47 196.01 37.18 C 228.24 36.89 230.77 36.99 232.82 38.68 C 234.99 40.47 235.04 41.05 235.45 69.71 C 235.85 97.01 235.76 99.08 234.03 101.21 L 232.18 103.50 L 195.74 103.79 C 162.56 104.04 159.18 103.92 157.90 102.38 Z M 267.78 101.04 L 265.20 99.02 L 265.06 69.70 C 264.92 40.91 264.96 40.35 267.06 38.44 C 269.06 36.63 271.32 36.47 300.89 36.00 C 318.32 35.73 334.49 35.76 336.82 36.07 C 344.65 37.13 344.46 36.35 344.80 69.33 C 345.10 98.23 345.08 98.62 342.95 100.55 C 340.91 102.39 338.89 102.52 305.58 102.79 C 271.49 103.06 270.28 103.01 267.78 101.04 Z M 10.08 86.42 C 10.13 85.25 10.36 85.01 10.68 85.81 C 10.97 86.53 10.94 87.40 10.60 87.73 C 10.27 88.06 10.04 87.47 10.08 86.42 Z M 10.16 73.00 C 10.16 71.62 10.38 71.06 10.66 71.75 C 10.94 72.44 10.94 73.56 10.66 74.25 C 10.38 74.94 10.16 74.38 10.16 73.00 Z M 10.00 65.67 C 10.00 64.20 10.42 63.00 10.94 63.00 C 11.46 63.00 11.70 63.96 11.47 65.14 C 10.85 68.37 10.00 68.67 10.00 65.67 Z M 10.23 57.00 C 10.23 55.08 10.44 54.29 10.69 55.25 C 10.94 56.21 10.94 57.79 10.69 58.75 C 10.44 59.71 10.23 58.92 10.23 57.00 Z M 10.29 44.50 C 10.29 41.75 10.49 40.74 10.72 42.26 C 10.95 43.78 10.94 46.03 10.70 47.26 C 10.47 48.49 10.28 47.25 10.29 44.50 Z M 10.16 27.00 C 10.16 25.62 10.38 25.06 10.66 25.75 C 10.94 26.44 10.94 27.56 10.66 28.25 C 10.38 28.94 10.16 28.38 10.16 27.00 Z M 10.16 20.00 C 10.16 18.62 10.38 18.06 10.66 18.75 C 10.94 19.44 10.94 20.56 10.66 21.25 C 10.38 21.94 10.16 21.38 10.16 20.00 Z M 64.00 14.00 C 64.00 13.45 64.42 13.00 64.94 13.00 C 65.46 13.00 66.16 13.45 66.50 14.00 C 66.84 14.55 66.42 15.00 65.56 15.00 C 64.70 15.00 64.00 14.55 64.00 14.00 Z M 97.81 14.32 C 98.53 14.03 99.40 14.06 99.73 14.40 C 100.06 14.73 99.47 14.96 98.42 14.92 C 97.25 14.87 97.01 14.64 97.81 14.32 Z" fill="none" stroke="rgba(255,255,255,0.92)" stroke-width="1.5" stroke-linejoin="round" fill-rule="evenodd"/>
</svg>
