<svg xmlns="http://www.w3.org/2000/svg" viewBox="0 0 100 100" width="100" height="100">
  <path d="M 0.00 50.00 L 0.00 0.00 L 50.00 0.00 L 100.00 0.00 L 100.00 50.00 L 100.00 100.00 L 50.00 100.00 L 0.00 100.00 L 0.00 50.00 Z M 13.00 50.00 L 13.00 4.00 L 9.37 4.00 L 5.74 4.00 L 6.35 21.75 C 6.68 31.51 6.97 52.21 6.98 67.75 L 7.00 96.00 L 10.00 96.00 L 13.00 96.00 L 13.00 50.00 Z M 82.11 90.01 C 86.28 89.24 88.13 88.28 90.29 85.76 L 93.08 82.50 L 92.94 43.25 L 92.79 4.00 L 89.55 4.00 L 86.31 4.00 L 86.78 42.25 C 87.24 79.64 87.20 80.54 85.23 82.31 C 83.44 83.91 80.40 84.18 58.33 84.71 C 28.33 85.43 30.04 86.12 29.91 73.18 C 29.86 68.41 29.73 60.90 29.62 56.50 C 29.51 52.10 29.33 38.49 29.21 26.25 L 29.00 4.00 L 25.90 4.00 L 22.79 4.00 L 23.07 40.25 C 23.22 60.19 23.68 78.52 24.09 81.00 C 24.64 84.35 25.68 86.20 28.13 88.25 L 31.42 91.00 L 54.08 91.00 C 66.53 91.00 79.15 90.55 82.11 90.01 Z" fill="none" stroke="rgba(255,255,255,0.92)" stroke-width="1.2" stroke-linejoin="round" fill-rule="evenodd"/>
</svg>
