<svg xmlns="http://www.w3.org/2000/svg" viewBox="0 0 400 289" width="400" height="289">
  <path d="M 0.00 144.50 L 0.00 0.00 L 200.00 0.00 L 400.00 0.00 L 400.00 144.50 C 400.00 288.33 399.99 289.00 398.00 289.00 C 396.02 289.00 396.00 288.33 395.98 223.75 C 395.97 187.86 395.77 133.53 395.53 103.00 C 395.29 72.47 395.08 37.91 395.05 26.18 L 395.00 4.86 L 358.25 5.43 C 338.04 5.74 304.40 6.23 283.50 6.50 C 175.01 7.95 106.35 9.04 96.50 9.47 C 90.45 9.74 67.72 10.24 46.00 10.58 C 24.27 10.93 6.41 11.29 6.31 11.38 C 5.66 11.95 6.21 63.70 7.51 125.50 C 7.80 139.25 8.26 168.05 8.53 189.50 C 8.80 210.95 9.25 242.11 9.53 258.75 L 10.04 289.00 L 5.02 289.00 L 0.00 289.00 L 0.00 144.50 Z M 12.50 288.00 C 12.16 287.45 12.58 287.00 13.44 287.00 C 14.44 287.00 15.00 286.10 15.00 284.50 C 15.00 283.12 14.49 282.00 13.88 282.00 C 13.05 282.00 13.05 281.64 13.86 280.66 C 15.44 278.76 14.69 267.07 12.91 265.83 C 11.88 265.11 11.82 264.72 12.69 264.36 C 13.35 264.09 13.61 263.15 13.27 262.27 C 12.87 261.21 13.05 260.91 13.83 261.39 C 14.47 261.79 15.00 261.64 15.00 261.06 C 15.00 260.48 14.32 260.00 13.50 260.00 C 12.68 260.00 12.01 259.21 12.02 258.25 C 12.03 256.94 12.24 256.83 12.86 257.80 C 13.36 258.60 13.67 257.33 13.64 254.57 C 13.62 252.07 13.26 250.58 12.84 251.25 C 12.43 251.93 12.16 250.57 12.26 248.24 C 12.35 245.91 12.78 244.00 13.21 244.00 C 13.65 244.00 14.00 243.52 14.00 242.94 C 14.00 242.36 13.55 242.16 13.00 242.50 C 11.75 243.27 11.75 242.79 13.00 239.51 C 13.66 237.77 13.66 237.09 13.00 237.50 C 11.58 238.38 11.76 234.64 13.20 233.20 C 13.86 232.54 13.97 232.00 13.45 232.00 C 12.93 232.00 12.50 230.88 12.50 229.50 C 12.50 228.12 12.93 227.00 13.45 227.00 C 13.97 227.00 13.86 226.46 13.20 225.80 C 11.66 224.26 11.64 222.66 13.17 223.61 C 14.00 224.12 14.11 223.77 13.54 222.41 C 11.98 218.67 11.75 216.00 12.99 216.00 C 13.67 216.00 13.96 215.33 13.64 214.50 C 13.29 213.59 13.64 213.00 14.53 213.00 C 15.34 213.00 16.00 213.45 16.00 214.00 C 16.00 215.46 23.74 215.23 24.34 213.75 C 24.74 212.75 24.86 212.75 24.92 213.75 C 25.05 215.83 28.00 215.15 28.00 213.03 C 28.00 211.70 28.48 211.25 29.49 211.64 C 30.32 211.95 30.74 212.61 30.44 213.10 C 30.13 213.60 31.48 214.00 33.44 214.00 C 35.40 214.00 36.95 213.66 36.88 213.25 C 36.54 211.12 37.15 210.82 38.39 212.51 C 39.59 214.17 40.23 214.27 43.39 213.30 C 45.37 212.69 47.00 212.55 47.00 212.99 C 47.00 213.44 59.82 213.66 75.50 213.48 L 104.00 213.16 L 104.07 223.33 C 104.11 228.92 104.34 245.99 104.58 261.25 L 105.03 289.00 L 59.08 289.00 C 29.52 289.00 12.90 288.64 12.50 288.00 Z M 109.96 272.75 C 109.79 257.96 109.27 230.00 109.08 225.78 C 109.03 224.68 108.46 224.27 107.50 224.64 C 106.67 224.95 106.00 224.72 106.00 224.11 C 106.00 223.50 106.67 223.00 107.50 223.00 C 109.06 223.00 109.47 220.38 108.36 217.50 C 107.91 216.34 107.50 216.19 107.00 217.00 C 106.53 217.77 106.09 217.47 105.74 216.13 C 105.28 214.37 105.78 214.02 109.36 213.58 C 111.63 213.30 132.51 212.79 155.75 212.44 C 190.63 211.92 198.07 212.05 198.46 213.16 C 199.06 214.87 199.82 286.08 199.26 287.75 C 198.93 288.72 189.07 289.00 154.49 289.00 L 110.14 289.00 L 109.96 272.75 Z M 204.95 275.25 C 204.92 267.69 204.75 250.58 204.57 237.23 C 204.39 223.89 204.54 212.78 204.90 212.56 C 205.26 212.34 225.34 212.04 249.52 211.90 L 293.50 211.64 L 294.00 247.57 C 294.27 267.33 294.36 284.74 294.18 286.25 L 293.87 289.00 L 249.43 289.00 L 205.00 289.00 L 204.95 275.25 Z M 299.50 249.58 C 299.50 227.90 299.84 209.83 300.25 209.42 C 300.66 209.00 301.00 209.18 301.00 209.81 C 301.00 211.11 327.65 210.95 329.77 209.64 C 330.45 209.22 331.00 209.33 331.00 209.89 C 331.00 211.01 342.96 210.76 344.84 209.60 C 345.48 209.20 346.00 209.27 346.00 209.74 C 346.00 211.15 366.26 210.20 367.18 208.75 C 367.80 207.76 367.97 207.76 367.98 208.74 C 368.00 210.23 379.79 210.21 381.75 208.71 C 382.59 208.07 383.00 208.16 383.00 208.99 C 383.00 209.86 384.04 210.03 386.50 209.57 C 388.43 209.20 390.07 209.27 390.15 209.70 C 390.23 210.14 390.36 228.16 390.44 249.75 L 390.60 289.00 L 345.05 289.00 L 299.50 289.00 L 299.50 249.58 Z M 107.02 279.25 C 107.01 277.46 107.17 276.00 107.38 276.00 C 108.29 276.00 108.68 279.90 107.89 281.14 C 107.31 282.06 107.03 281.46 107.02 279.25 Z M 13.08 277.42 C 13.13 276.25 13.36 276.01 13.68 276.81 C 13.97 277.53 13.94 278.40 13.60 278.73 C 13.27 279.06 13.04 278.47 13.08 277.42 Z M 202.08 277.42 C 202.13 276.25 202.36 276.01 202.68 276.81 C 202.97 277.53 202.94 278.40 202.60 278.73 C 202.27 279.06 202.04 278.47 202.08 277.42 Z M 106.83 269.75 C 106.61 268.51 106.73 266.15 107.10 264.50 C 107.64 262.07 107.79 262.50 107.88 266.75 C 108.01 272.23 107.52 273.61 106.83 269.75 Z M 296.50 267.00 C 296.16 266.45 296.36 266.00 296.94 266.00 C 297.52 266.00 298.00 266.45 298.00 267.00 C 298.00 267.55 297.80 268.00 297.56 268.00 C 297.32 268.00 296.84 267.55 296.50 267.00 Z M 107.19 258.50 C 107.22 256.85 107.44 256.30 107.69 257.27 C 107.95 258.24 107.93 259.59 107.66 260.27 C 107.38 260.95 107.17 260.15 107.19 258.50 Z M 393.25 250.50 C 393.26 248.30 393.47 247.52 393.71 248.76 C 393.95 250.01 393.94 251.81 393.69 252.76 C 393.44 253.72 393.24 252.70 393.25 250.50 Z M 393.16 243.00 C 393.16 241.62 393.38 241.06 393.66 241.75 C 393.94 242.44 393.94 243.56 393.66 244.25 C 393.38 244.94 393.16 244.38 393.16 243.00 Z M 107.08 235.42 C 107.13 234.25 107.36 234.01 107.68 234.81 C 107.97 235.53 107.94 236.40 107.60 236.73 C 107.27 237.06 107.04 236.47 107.08 235.42 Z M 296.16 220.00 C 296.16 218.62 296.38 218.06 296.66 218.75 C 296.94 219.44 296.94 220.56 296.66 221.25 C 296.38 221.94 296.16 221.38 296.16 220.00 Z M 200.50 214.00 C 200.16 213.45 200.61 213.00 201.50 213.00 C 202.39 213.00 202.84 213.45 202.50 214.00 C 202.16 214.55 201.71 215.00 201.50 215.00 C 201.29 215.00 200.84 214.55 200.50 214.00 Z M 88.00 210.91 C 88.00 210.41 88.90 210.00 90.00 210.00 C 91.10 210.00 92.00 210.17 92.00 210.38 C 92.00 210.59 91.10 211.00 90.00 211.29 C 88.90 211.58 88.00 211.40 88.00 210.91 Z M 101.00 211.00 C 100.21 210.51 99.78 209.88 100.06 209.61 C 100.33 209.33 101.21 209.51 102.00 210.00 C 102.79 210.49 103.22 211.12 102.94 211.39 C 102.67 211.67 101.79 211.49 101.00 211.00 Z M 13.88 207.77 C 13.00 206.13 12.61 206.00 11.91 207.11 C 11.25 208.15 11.03 207.93 11.02 206.25 C 11.01 204.91 11.61 204.00 12.50 204.00 C 13.33 204.00 14.00 203.11 14.00 202.00 C 14.00 200.90 13.44 200.11 12.75 200.25 C 12.05 200.39 11.36 199.30 11.18 197.75 C 11.00 196.11 11.35 195.00 12.06 195.00 C 12.89 195.00 12.94 194.63 12.21 193.75 C 11.65 193.06 11.21 188.90 11.25 184.50 C 11.28 180.10 10.98 175.49 10.59 174.25 C 10.05 172.57 10.26 172.00 11.43 172.00 C 12.29 172.00 13.00 171.52 13.00 170.94 C 13.00 170.36 12.57 170.15 12.05 170.47 C 10.91 171.17 9.66 165.23 10.24 161.88 L 10.65 159.50 L 11.76 162.00 C 12.80 164.33 12.88 164.35 12.94 162.36 C 12.97 161.18 12.21 159.91 11.25 159.54 C 9.65 158.92 9.64 158.75 11.11 157.67 C 12.25 156.83 12.77 154.73 12.86 150.55 C 12.99 145.13 12.87 144.79 11.53 146.56 C 10.22 148.30 10.06 147.07 10.03 134.83 C 10.01 125.22 10.35 121.05 11.18 120.77 C 11.94 120.52 12.04 119.87 11.46 118.94 C 10.11 116.78 10.07 110.83 11.41 111.88 C 12.78 112.96 26.14 114.04 25.51 113.02 C 25.26 112.61 26.83 112.27 29.00 112.27 C 31.17 112.27 32.71 112.66 32.42 113.14 C 32.12 113.61 32.36 114.00 32.94 114.00 C 33.52 114.00 34.00 113.55 34.00 113.01 C 34.00 112.38 41.61 112.10 55.00 112.26 C 66.55 112.39 76.00 112.28 76.00 112.00 C 76.00 111.54 86.20 111.57 88.50 112.03 C 89.05 112.15 88.15 112.60 86.50 113.04 L 83.50 113.85 L 87.00 113.67 C 88.92 113.58 90.43 113.05 90.34 112.50 C 90.24 111.95 92.80 111.40 96.03 111.28 L 101.89 111.06 L 102.40 115.28 C 102.69 117.60 103.18 139.41 103.49 163.75 L 104.06 208.00 L 94.28 208.03 C 81.29 208.06 38.13 208.94 25.24 209.43 C 15.71 209.79 14.90 209.67 13.88 207.77 Z M 302.12 208.36 C 300.92 207.01 300.98 206.85 302.54 207.15 C 303.52 207.34 304.52 208.06 304.75 208.75 C 305.33 210.48 303.79 210.25 302.12 208.36 Z M 391.50 209.00 C 391.16 208.45 391.36 208.00 391.94 208.00 C 392.52 208.00 393.00 208.45 393.00 209.00 C 393.00 209.55 392.80 210.00 392.56 210.00 C 392.32 210.00 391.84 209.55 391.50 209.00 Z M 326.50 208.00 C 326.84 207.45 327.32 207.00 327.56 207.00 C 327.80 207.00 328.00 207.45 328.00 208.00 C 328.00 208.55 327.52 209.00 326.94 209.00 C 326.36 209.00 326.16 208.55 326.50 208.00 Z M 109.95 202.23 C 109.93 199.63 109.74 189.85 109.53 180.50 C 109.33 171.15 108.83 130.15 108.42 89.39 L 107.69 15.29 L 143.09 14.65 C 162.57 14.29 202.57 13.76 232.00 13.46 C 261.43 13.17 286.97 12.69 288.76 12.41 C 290.93 12.08 292.17 12.34 292.44 13.20 C 293.37 16.08 293.98 203.89 293.06 204.46 C 292.13 205.04 261.78 205.50 160.25 206.48 L 110.00 206.96 L 109.95 202.23 Z M 299.55 205.01 C 298.97 203.93 298.94 11.31 299.52 9.81 C 300.02 8.49 302.16 8.21 312.31 8.14 C 320.44 8.08 324.00 8.37 323.00 9.01 C 322.10 9.58 321.98 9.98 322.69 9.98 C 323.35 9.99 324.17 9.53 324.53 8.96 C 325.27 7.75 357.89 8.02 358.65 9.24 C 358.91 9.66 359.57 10.00 360.12 10.00 C 360.67 10.00 360.84 9.55 360.50 9.00 C 360.15 8.43 360.99 8.00 362.44 8.00 C 363.85 8.00 365.00 8.42 365.00 8.94 C 365.00 9.46 366.24 9.24 367.75 8.45 C 371.37 6.56 375.00 6.58 375.00 8.50 C 375.00 9.32 375.45 10.00 376.00 10.00 C 376.55 10.00 376.89 9.44 376.75 8.75 C 376.58 7.88 378.42 7.41 382.84 7.20 C 386.73 7.02 388.95 7.27 388.58 7.86 C 388.26 8.40 388.43 8.98 388.98 9.16 C 389.88 9.47 390.63 103.70 389.74 104.59 C 389.31 105.02 348.12 105.83 321.68 105.92 C 300.90 106.00 300.86 106.00 301.18 108.17 C 301.36 109.37 302.13 110.55 302.91 110.81 C 303.81 111.11 304.12 110.76 303.77 109.84 C 303.34 108.72 304.47 108.36 309.11 108.18 C 312.55 108.04 315.00 108.37 315.00 108.95 C 315.00 109.51 313.65 109.80 312.00 109.61 C 310.35 109.42 309.00 109.65 309.00 110.13 C 309.00 110.61 311.59 110.96 314.75 110.92 C 317.91 110.88 319.93 110.61 319.24 110.34 C 317.33 109.57 318.81 108.00 321.45 108.00 C 322.74 108.00 324.05 108.68 324.36 109.50 C 324.68 110.33 325.43 111.00 326.03 111.00 C 326.63 111.00 326.84 110.55 326.50 109.99 C 325.67 108.66 328.54 107.61 330.72 108.45 C 332.20 109.01 332.23 109.24 330.97 110.03 C 329.43 111.00 341.84 110.41 345.38 109.35 C 346.55 109.00 347.01 109.18 346.60 109.84 C 346.18 110.52 347.36 110.84 349.94 110.74 C 352.26 110.64 353.42 110.25 352.72 109.80 C 351.98 109.33 352.60 109.02 354.31 109.02 C 355.85 109.01 356.89 109.37 356.61 109.82 C 356.33 110.27 358.42 110.53 361.25 110.41 C 364.87 110.25 366.82 109.63 367.82 108.34 C 369.18 106.60 369.22 106.61 368.74 108.67 C 368.27 110.66 368.53 110.79 371.86 110.26 C 373.86 109.95 375.84 109.20 376.25 108.60 C 376.77 107.83 377.27 107.92 377.89 108.88 C 378.39 109.65 379.31 109.92 380.00 109.50 C 380.68 109.08 381.66 109.35 382.21 110.12 C 382.97 111.19 383.06 111.10 382.63 109.75 C 382.01 107.83 383.47 107.34 384.56 109.09 C 384.93 109.70 386.31 109.98 387.62 109.73 C 388.93 109.48 390.03 109.55 390.06 109.89 C 390.48 114.43 390.51 204.01 390.09 204.04 C 388.97 204.12 331.45 205.10 315.66 205.31 C 306.95 205.42 299.70 205.29 299.55 205.01 Z M 10.50 202.00 C 10.84 201.45 11.32 201.00 11.56 201.00 C 11.80 201.00 12.00 201.45 12.00 202.00 C 12.00 202.55 11.52 203.00 10.94 203.00 C 10.36 203.00 10.16 202.55 10.50 202.00 Z M 274.79 198.90 C 276.28 198.33 278.50 196.66 279.71 195.19 C 281.92 192.51 281.93 192.35 281.96 150.72 C 282.00 104.40 281.90 103.55 275.84 100.42 C 272.77 98.83 267.52 98.76 203.01 99.40 C 164.78 99.79 131.84 100.35 129.82 100.67 C 127.61 101.01 124.89 102.46 122.99 104.31 L 119.84 107.39 L 120.04 147.95 C 120.15 170.25 120.45 189.92 120.71 191.66 C 120.97 193.39 122.61 196.27 124.34 198.05 L 127.50 201.30 L 199.79 200.61 C 244.88 200.18 273.10 199.53 274.79 198.90 Z M 128.37 193.53 C 126.70 192.31 126.54 189.27 126.16 151.10 C 125.86 120.50 126.06 109.63 126.94 108.58 C 127.58 107.80 129.78 106.92 131.81 106.62 C 133.84 106.33 166.32 105.79 204.00 105.43 C 271.10 104.79 272.54 104.82 274.26 106.73 C 275.89 108.54 276.00 111.74 275.76 150.08 L 275.50 191.47 L 273.00 192.62 C 269.06 194.42 130.78 195.29 128.37 193.53 Z M 392.08 162.42 C 392.13 161.25 392.36 161.01 392.68 161.81 C 392.97 162.53 392.94 163.40 392.60 163.73 C 392.27 164.06 392.04 163.47 392.08 162.42 Z M 10.07 152.31 C 10.11 151.86 10.53 150.60 11.00 149.50 C 11.83 147.57 11.86 147.58 11.93 149.69 C 11.97 150.90 11.55 152.16 11.00 152.50 C 10.45 152.84 10.03 152.75 10.07 152.31 Z M 17.25 115.34 C 16.56 115.06 15.44 115.06 14.75 115.34 C 14.06 115.62 14.62 115.84 16.00 115.84 C 17.38 115.84 17.94 115.62 17.25 115.34 Z M 100.50 113.00 C 100.16 112.45 99.43 112.00 98.88 112.00 C 98.33 112.00 98.16 112.45 98.50 113.00 C 98.84 113.55 99.57 114.00 100.12 114.00 C 100.67 114.00 100.84 113.55 100.50 113.00 Z M 12.31 109.38 C 12.03 108.63 11.39 108.26 10.90 108.56 C 10.40 108.87 9.96 108.30 9.91 107.31 C 9.39 96.68 8.95 78.87 8.49 50.50 C 8.18 31.80 7.78 15.75 7.58 14.83 C 7.27 13.35 8.66 13.16 20.32 13.06 C 27.52 13.00 35.07 12.69 37.08 12.37 C 39.45 11.99 41.01 12.21 41.50 13.00 C 42.01 13.83 42.46 13.88 42.91 13.15 C 43.35 12.44 52.54 12.08 70.53 12.08 C 85.36 12.08 98.28 12.14 99.24 12.21 C 100.36 12.29 101.14 13.42 101.46 15.42 C 101.73 17.11 102.08 38.86 102.24 63.75 L 102.53 109.00 L 97.01 109.03 C 83.98 109.11 30.71 110.08 22.17 110.40 C 14.96 110.67 12.72 110.43 12.31 109.38 Z M 307.73 110.40 C 307.40 110.06 306.53 110.03 305.81 110.32 C 305.01 110.64 305.25 110.87 306.42 110.92 C 307.47 110.96 308.06 110.73 307.73 110.40 Z M 323.00 110.56 C 323.00 110.32 322.55 109.84 322.00 109.50 C 321.45 109.16 321.00 109.36 321.00 109.94 C 321.00 110.52 321.45 111.00 322.00 111.00 C 322.55 111.00 323.00 110.80 323.00 110.56 Z M 386.00 107.97 C 386.00 107.44 386.68 107.00 387.50 107.00 C 388.32 107.00 389.00 107.18 389.00 107.39 C 389.00 107.61 388.32 108.05 387.50 108.36 C 386.68 108.68 386.00 108.50 386.00 107.97 Z M 83.50 102.40 L 95.50 101.83 L 95.20 62.19 C 95.03 40.39 94.71 22.38 94.50 22.16 C 94.28 21.95 77.08 22.10 56.26 22.51 L 18.42 23.24 L 18.74 60.37 C 18.92 80.79 19.28 98.91 19.55 100.63 L 20.04 103.75 L 45.77 103.36 C 59.92 103.14 76.90 102.71 83.50 102.40 Z M 356.81 98.72 C 374.07 98.52 382.34 98.07 382.81 97.31 C 383.19 96.70 383.38 78.32 383.23 56.48 L 382.95 16.76 L 372.73 17.36 C 367.10 17.68 350.01 18.07 334.75 18.22 L 307.00 18.50 L 307.00 58.69 L 307.00 98.89 L 311.25 99.19 C 313.59 99.36 319.10 99.39 323.50 99.25 C 327.90 99.12 342.89 98.88 356.81 98.72 Z M 25.57 93.75 C 25.29 91.96 24.89 76.66 24.68 59.75 L 24.31 29.00 L 37.90 28.98 C 45.38 28.98 58.76 28.69 67.62 28.34 C 76.49 28.00 84.93 28.02 86.37 28.38 L 89.00 29.04 L 89.00 62.36 L 89.00 95.68 L 69.34 96.34 C 58.53 96.70 44.37 97.00 37.88 97.00 L 26.09 97.00 L 25.57 93.75 Z M 392.08 95.42 C 392.13 94.25 392.36 94.01 392.68 94.81 C 392.97 95.53 392.94 96.40 392.60 96.73 C 392.27 97.06 392.04 96.47 392.08 95.42 Z M 312.89 64.86 C 312.83 49.26 312.66 33.98 312.51 30.90 L 312.23 25.30 L 324.86 24.65 C 331.81 24.30 346.39 24.01 357.25 24.00 L 377.00 24.00 L 377.10 43.25 C 377.24 70.58 377.10 91.23 376.78 91.53 C 376.63 91.67 362.21 92.10 344.75 92.50 L 313.00 93.23 L 312.89 64.86 Z M 190.73 88.42 C 195.83 85.12 196.22 82.67 195.83 56.61 C 195.44 30.24 195.13 28.80 189.24 26.01 C 185.92 24.45 130.09 24.53 126.63 26.11 C 122.66 27.93 120.50 29.55 120.10 31.03 C 119.87 31.84 119.74 43.65 119.81 57.28 C 119.94 84.76 120.24 86.32 126.00 89.33 C 129.25 91.02 131.64 91.11 159.00 90.51 C 182.17 90.01 188.98 89.56 190.73 88.42 Z M 278.08 87.27 C 282.83 84.51 282.98 83.55 283.04 57.00 C 283.09 29.17 282.81 27.67 277.00 24.72 C 273.79 23.10 271.10 23.00 245.00 23.59 C 213.57 24.31 211.27 24.73 208.69 30.33 C 207.48 32.95 207.32 37.81 207.75 58.29 C 208.34 85.83 208.60 86.90 215.31 88.95 C 217.26 89.54 229.62 89.70 247.00 89.34 C 269.72 88.88 276.02 88.46 278.08 87.27 Z M 129.10 83.84 C 127.92 83.40 126.76 82.47 126.53 81.77 C 126.29 81.07 125.93 70.27 125.72 57.76 C 125.36 35.78 125.42 34.96 127.42 33.11 C 129.36 31.32 131.41 31.18 157.50 31.05 C 180.66 30.93 185.85 31.16 187.50 32.37 C 189.38 33.75 189.52 35.20 189.83 56.84 C 190.15 79.03 190.09 79.91 188.08 81.92 C 186.12 83.88 184.80 84.01 165.75 84.17 C 154.61 84.27 142.29 84.41 138.37 84.49 C 134.45 84.57 130.28 84.28 129.10 83.84 Z M 392.32 79.00 C 392.32 75.42 392.50 73.96 392.72 75.75 C 392.95 77.54 392.95 80.46 392.72 82.25 C 392.50 84.04 392.32 82.58 392.32 79.00 Z M 219.32 83.19 C 213.78 82.65 213.58 81.80 213.17 57.43 L 212.79 35.12 L 215.35 32.56 L 217.91 30.00 L 239.70 29.90 C 251.69 29.84 264.33 29.76 267.78 29.72 C 271.99 29.66 274.53 30.11 275.49 31.07 C 276.63 32.21 276.94 36.56 277.00 52.50 C 277.12 83.52 277.39 80.60 274.25 81.86 C 271.71 82.88 227.21 83.96 219.32 83.19 Z M 392.16 68.00 C 392.16 66.62 392.38 66.06 392.66 66.75 C 392.94 67.44 392.94 68.56 392.66 69.25 C 392.38 69.94 392.16 69.38 392.16 68.00 Z M 392.08 59.42 C 392.13 58.25 392.36 58.01 392.68 58.81 C 392.97 59.53 392.94 60.40 392.60 60.73 C 392.27 61.06 392.04 60.47 392.08 59.42 Z M 392.16 54.00 C 392.16 52.62 392.38 52.06 392.66 52.75 C 392.94 53.44 392.94 54.56 392.66 55.25 C 392.38 55.94 392.16 55.38 392.16 54.00 Z M 392.08 44.42 C 392.13 43.25 392.36 43.01 392.68 43.81 C 392.97 44.53 392.94 45.40 392.60 45.73 C 392.27 46.06 392.04 45.47 392.08 44.42 Z M 392.08 22.42 C 392.13 21.25 392.36 21.01 392.68 21.81 C 392.97 22.53 392.94 23.40 392.60 23.73 C 392.27 24.06 392.04 23.47 392.08 22.42 Z" fill="none" stroke="rgba(255,255,255,0.92)" stroke-width="1.5" stroke-linejoin="round" fill-rule="evenodd"/>
</svg>
