<svg xmlns="http://www.w3.org/2000/svg" viewBox="0 0 100 100" width="100" height="100">
  <path d="M 0.00 50.00 L 0.00 0.00 L 50.00 0.00 L 100.00 0.00 L 100.00 50.00 L 100.00 100.00 L 50.00 100.00 L 0.00 100.00 L 0.00 50.00 Z M 12.66 57.25 C 12.32 35.94 12.04 15.24 12.03 11.25 L 12.00 4.00 L 8.90 4.00 L 5.80 4.00 L 6.37 47.75 C 6.68 71.81 6.95 92.51 6.97 93.75 C 6.99 95.60 7.56 96.00 10.13 96.00 L 13.26 96.00 L 12.66 57.25 Z M 79.79 88.26 C 82.88 87.92 85.08 86.85 87.61 84.46 L 91.12 81.15 L 90.89 42.57 L 90.66 4.00 L 87.36 4.00 L 84.06 4.00 L 84.60 40.92 C 85.27 86.22 87.08 81.94 67.25 82.13 C 59.69 82.20 49.26 82.40 44.08 82.59 C 36.64 82.85 34.08 82.57 31.83 81.24 L 29.00 79.57 L 28.90 58.53 C 28.82 40.30 28.47 17.97 28.11 7.25 C 28.01 4.30 27.71 4.00 24.86 4.00 L 21.72 4.00 L 22.36 42.59 C 22.96 79.42 23.09 81.31 25.06 84.08 C 26.19 85.67 28.55 87.40 30.31 87.91 C 33.54 88.86 71.88 89.13 79.79 88.26 Z" fill="none" stroke="rgba(255,255,255,0.92)" stroke-width="1.2" stroke-linejoin="round" fill-rule="evenodd"/>
</svg>
