<svg xmlns="http://www.w3.org/2000/svg" viewBox="0 0 100 100" width="100" height="100">
  <path d="M 0.00 50.00 L 0.00 0.00 L 50.00 0.00 L 100.00 0.00 L 100.00 50.00 L 100.00 100.00 L 50.00 100.00 L 0.00 100.00 L 0.00 50.00 Z M 9.54 83.25 C 9.29 76.24 9.02 56.77 8.95 40.00 C 8.87 23.23 8.57 8.26 8.28 6.75 C 7.93 4.92 7.13 4.00 5.88 4.00 C 4.07 4.00 4.00 5.69 4.00 50.00 L 4.00 96.00 L 7.00 96.00 L 9.99 96.00 L 9.54 83.25 Z M 26.15 54.70 C 25.84 18.30 25.99 13.26 27.36 12.12 C 29.31 10.50 37.83 10.08 70.25 10.04 L 96.00 10.00 L 96.00 7.00 L 96.00 4.00 L 63.25 4.10 C 45.24 4.15 29.49 4.49 28.25 4.85 C 27.01 5.21 24.61 6.81 22.91 8.41 L 19.83 11.33 L 20.15 53.66 L 20.47 96.00 L 23.49 96.00 L 26.50 96.00 L 26.15 54.70 Z" fill="none" stroke="rgba(255,255,255,0.92)" stroke-width="1.2" stroke-linejoin="round" fill-rule="evenodd"/>
</svg>
