<svg xmlns="http://www.w3.org/2000/svg" viewBox="0 0 100 100" width="100" height="100">
  <path d="M 0.00 50.00 L 0.00 0.00 L 50.00 0.00 L 100.00 0.00 L 100.00 50.00 L 100.00 100.00 L 50.00 100.00 L 0.00 100.00 L 0.00 50.00 Z M 81.78 53.07 C 81.51 11.20 81.45 10.08 79.39 7.32 L 77.28 4.50 L 40.64 4.24 L 4.00 3.98 L 4.00 6.74 L 4.00 9.50 L 38.08 9.17 C 69.32 8.86 72.32 8.98 74.08 10.57 C 75.91 12.23 76.00 14.17 76.00 54.15 L 76.00 96.00 L 79.03 96.00 L 82.06 96.00 L 81.78 53.07 Z M 96.00 50.00 C 96.00 10.44 95.80 4.00 94.55 4.00 C 93.29 4.00 93.15 9.08 93.53 40.75 C 93.77 60.96 93.97 81.66 93.98 86.75 C 93.99 92.24 94.41 96.00 95.00 96.00 C 95.65 96.00 96.00 80.00 96.00 50.00 Z" fill="none" stroke="rgba(255,255,255,0.92)" stroke-width="1.2" stroke-linejoin="round" fill-rule="evenodd"/>
</svg>
