<svg xmlns="http://www.w3.org/2000/svg" viewBox="0 0 100 100" width="100" height="100">
  <path d="M 0.00 50.00 L 0.00 0.00 L 50.00 0.00 L 100.00 0.00 L 100.00 50.00 L 100.00 100.00 L 50.00 100.00 L 0.00 100.00 L 0.00 50.00 Z M 9.12 92.75 C 9.18 90.96 9.14 89.05 9.02 88.50 C 8.90 87.95 8.61 71.75 8.37 52.50 C 8.13 33.25 7.77 16.71 7.56 15.75 C 7.35 14.79 7.71 13.97 8.34 13.94 C 8.98 13.90 10.96 13.73 12.75 13.55 C 14.54 13.38 16.00 13.52 16.00 13.88 C 16.00 14.23 19.20 14.29 23.12 14.01 C 27.04 13.73 33.11 13.50 36.62 13.50 C 40.12 13.50 42.99 13.28 43.00 13.00 C 43.00 12.54 51.52 12.36 84.25 12.09 C 91.10 12.04 96.00 11.60 96.00 11.03 C 96.00 10.42 87.92 10.22 74.25 10.49 C 62.29 10.73 42.04 11.00 29.25 11.09 L 6.00 11.26 L 5.92 16.38 C 5.87 19.20 5.92 24.20 6.02 27.50 C 6.21 33.91 6.66 63.62 6.87 83.75 C 6.95 91.16 7.39 96.00 8.00 96.00 C 8.55 96.00 9.05 94.54 9.12 92.75 Z M 24.78 63.16 L 24.35 30.31 L 55.17 29.69 C 72.13 29.34 86.67 29.32 87.50 29.64 C 88.79 30.13 89.00 34.77 89.00 63.11 L 89.00 96.00 L 92.00 96.00 L 95.00 96.00 L 95.00 59.34 L 95.00 22.69 L 56.78 23.40 C 35.75 23.79 18.51 24.20 18.45 24.31 C 18.39 24.41 18.55 40.59 18.79 60.25 L 19.24 96.00 L 22.23 96.00 L 25.22 96.00 L 24.78 63.16 Z" fill="none" stroke="rgba(255,255,255,0.92)" stroke-width="1.2" stroke-linejoin="round" fill-rule="evenodd"/>
</svg>
