<svg xmlns="http://www.w3.org/2000/svg" viewBox="0 0 100 100" width="100" height="100">
  <path d="M 0.00 50.00 L 0.00 0.00 L 50.00 0.00 L 100.00 0.00 L 100.00 50.00 L 100.00 100.00 L 50.00 100.00 L 0.00 100.00 L 0.00 50.00 Z M 96.00 51.44 L 96.00 6.89 L 62.25 7.19 C 43.69 7.35 22.99 7.63 16.25 7.80 L 4.00 8.12 L 4.00 11.18 L 4.00 14.25 L 48.50 13.51 L 93.00 12.76 L 93.12 53.13 C 93.18 75.33 93.16 94.06 93.07 94.75 C 92.99 95.44 93.61 96.00 94.46 96.00 C 95.82 96.00 96.00 90.94 96.00 51.44 Z M 78.29 90.61 C 79.83 89.57 81.51 87.92 82.03 86.94 C 82.56 85.96 83.01 73.52 83.05 59.15 C 83.16 21.16 85.73 23.51 45.11 24.50 C 12.89 25.28 11.15 25.63 8.71 31.83 C 7.53 34.82 7.36 40.22 7.77 61.00 L 8.27 86.50 L 11.78 89.82 L 15.28 93.13 L 45.39 92.82 C 72.97 92.53 75.73 92.34 78.29 90.61 Z M 15.88 85.10 C 13.62 83.27 13.57 82.82 13.19 59.86 C 12.81 37.60 12.89 36.35 14.81 33.99 L 16.82 31.50 L 45.75 31.21 C 69.32 30.97 74.90 31.17 75.82 32.29 C 76.60 33.23 76.99 41.47 77.04 58.43 C 77.10 81.19 76.96 83.31 75.31 84.57 C 73.94 85.61 68.78 85.97 54.00 86.08 C 43.27 86.16 30.83 86.39 26.34 86.59 C 19.51 86.90 17.80 86.66 15.88 85.10 Z" fill="none" stroke="rgba(255,255,255,0.92)" stroke-width="1.2" stroke-linejoin="round" fill-rule="evenodd"/>
</svg>
