<svg xmlns="http://www.w3.org/2000/svg" viewBox="0 0 100 100" width="100" height="100">
  <path d="M 0.00 50.00 L 0.00 0.00 L 50.00 0.00 L 100.00 0.00 L 100.00 50.00 L 100.00 100.00 L 50.00 100.00 L 0.00 100.00 L 0.00 50.00 Z M 17.02 93.25 C 17.05 86.74 19.15 86.25 46.17 86.41 C 66.85 86.53 69.02 86.71 70.92 88.43 C 72.10 89.49 73.00 91.54 73.00 93.15 C 73.00 95.68 73.36 96.00 76.13 96.00 C 79.25 96.00 79.26 95.99 78.75 91.46 C 78.17 86.32 75.97 83.35 71.28 81.36 C 66.68 79.42 23.32 79.42 18.72 81.36 C 14.08 83.33 12.10 86.01 11.37 91.32 L 10.73 96.00 L 13.86 96.00 C 16.61 96.00 17.00 95.66 17.02 93.25 Z M 94.82 61.25 C 94.64 42.14 94.36 21.38 94.19 15.12 L 93.87 3.74 L 74.19 4.35 C 63.36 4.69 43.14 4.97 29.25 4.98 L 4.00 5.00 L 4.00 8.09 L 4.00 11.18 L 46.19 10.85 L 88.39 10.51 L 88.65 27.01 C 88.79 36.08 88.93 55.31 88.95 69.75 L 89.00 96.00 L 92.07 96.00 L 95.13 96.00 L 94.82 61.25 Z M 69.17 71.31 C 70.64 71.02 73.26 69.59 75.01 68.13 L 78.18 65.48 L 78.07 47.04 C 77.91 19.56 79.23 20.60 44.99 20.83 C 31.32 20.92 19.04 21.41 17.70 21.92 C 16.36 22.43 14.30 24.07 13.13 25.56 C 11.14 28.09 11.00 29.42 11.00 45.92 L 11.00 63.58 L 13.75 66.86 C 15.38 68.82 17.92 70.48 20.00 70.95 C 23.88 71.84 64.96 72.13 69.17 71.31 Z M 18.57 63.43 C 17.27 62.13 17.00 59.08 17.00 45.99 C 17.00 30.72 17.08 30.05 19.22 28.56 C 21.08 27.25 25.26 27.01 44.97 27.03 C 62.60 27.06 68.93 27.39 70.20 28.35 C 71.65 29.46 71.93 31.96 72.12 45.96 C 72.33 60.87 72.19 62.39 70.48 63.64 C 69.03 64.70 63.26 65.00 44.38 65.00 C 23.68 65.00 19.91 64.77 18.57 63.43 Z" fill="none" stroke="rgba(255,255,255,0.92)" stroke-width="1.2" stroke-linejoin="round" fill-rule="evenodd"/>
</svg>
