<svg xmlns="http://www.w3.org/2000/svg" viewBox="0 0 100 100" width="100" height="100">
  <path d="M 0.00 50.00 L 0.00 0.00 L 50.00 0.00 L 100.00 0.00 L 100.00 50.00 L 100.00 100.00 L 50.00 100.00 L 0.00 100.00 L 0.00 50.00 Z M 96.00 49.50 L 96.00 4.00 L 93.00 4.00 L 90.00 4.00 L 90.00 46.50 L 90.00 89.00 L 49.25 89.11 C 26.84 89.16 7.60 89.28 6.50 89.36 C 5.11 89.46 4.40 90.33 4.18 92.25 L 3.87 95.00 L 49.93 95.00 L 96.00 95.00 L 96.00 49.50 Z M 73.40 79.61 C 80.09 76.81 80.00 77.34 80.00 38.78 L 80.00 4.00 L 77.00 4.00 L 74.00 4.00 L 74.00 37.67 C 74.00 67.60 73.82 71.55 72.35 73.17 C 70.83 74.85 68.68 75.00 46.10 74.97 C 27.29 74.94 21.09 74.63 19.76 73.61 C 18.18 72.42 18.01 69.73 17.97 44.90 C 17.95 29.83 17.66 14.46 17.33 10.75 C 16.78 4.48 16.57 4.00 14.37 4.00 L 12.00 4.00 L 12.10 37.75 C 12.15 56.31 12.51 72.62 12.89 73.99 C 13.27 75.36 15.09 77.50 16.94 78.74 C 20.20 80.94 20.99 81.00 45.18 81.00 C 64.20 81.00 70.85 80.67 73.40 79.61 Z" fill="none" stroke="rgba(255,255,255,0.92)" stroke-width="1.2" stroke-linejoin="round" fill-rule="evenodd"/>
</svg>
