<svg xmlns="http://www.w3.org/2000/svg" viewBox="0 0 385 400" width="385" height="400">
  <path d="M 0.00 200.00 L 0.00 0.00 L 192.50 0.00 L 385.00 0.00 L 385.00 200.00 L 385.00 400.00 L 192.50 400.00 L 0.00 400.00 L 0.00 200.00 Z M 35.68 391.94 C 47.73 392.05 50.00 391.83 50.76 390.47 C 51.57 389.02 51.77 389.02 52.95 390.44 C 54.38 392.16 61.50 392.61 62.48 391.04 C 62.83 390.47 63.98 390.42 65.29 390.91 C 68.30 392.05 113.04 391.94 115.31 390.78 C 116.44 390.21 117.58 390.23 118.31 390.82 C 119.01 391.38 125.95 391.62 135.00 391.39 C 143.53 391.17 152.07 391.04 154.00 391.08 C 172.12 391.54 229.57 391.34 296.89 390.59 L 378.28 389.68 L 377.64 275.59 C 376.47 67.15 375.81 9.00 374.61 8.97 C 364.62 8.74 260.15 9.17 226.50 9.59 C 201.75 9.89 146.18 10.14 103.00 10.15 C 59.83 10.15 21.12 10.45 17.00 10.83 L 9.50 11.50 L 9.84 106.50 C 10.02 158.75 10.27 240.30 10.39 287.72 C 10.51 335.14 10.88 374.21 11.21 374.54 C 11.53 374.87 11.41 376.57 10.93 378.32 C 10.36 380.40 10.51 383.23 11.35 386.50 C 12.45 390.80 13.04 391.59 15.57 392.13 C 17.18 392.47 19.18 392.54 20.00 392.28 C 20.82 392.02 27.88 391.87 35.68 391.94 Z M 146.50 388.28 C 147.60 388.01 149.07 387.32 149.77 386.75 C 151.26 385.54 152.50 386.38 151.54 387.93 C 151.18 388.52 149.45 388.95 147.69 388.88 C 145.56 388.81 145.17 388.60 146.50 388.28 Z M 184.08 388.11 C 184.00 386.78 186.72 384.10 188.22 384.03 C 188.61 384.01 188.68 384.68 188.36 385.50 C 188.05 386.32 187.20 387.00 186.48 387.00 C 185.76 387.00 184.94 387.56 184.66 388.25 C 184.29 389.16 184.14 389.13 184.08 388.11 Z M 109.50 387.00 C 109.16 386.44 107.67 386.25 106.19 386.56 C 103.90 387.04 103.76 386.96 105.29 385.99 C 107.29 384.72 113.34 385.64 112.45 387.08 C 111.70 388.29 110.27 388.25 109.50 387.00 Z M 136.00 386.38 C 136.00 385.05 136.27 384.98 137.50 386.00 C 138.32 386.68 139.00 387.41 139.00 387.62 C 139.00 387.83 138.32 388.00 137.50 388.00 C 136.68 388.00 136.00 387.27 136.00 386.38 Z M 22.00 386.00 C 22.00 385.45 22.45 385.00 23.00 385.00 C 23.55 385.00 24.00 385.45 24.00 386.00 C 24.00 386.55 23.55 387.00 23.00 387.00 C 22.45 387.00 22.00 386.55 22.00 386.00 Z M 145.00 386.00 C 145.00 385.45 145.48 385.00 146.06 385.00 C 146.64 385.00 146.84 385.45 146.50 386.00 C 146.16 386.55 145.68 387.00 145.44 387.00 C 145.20 387.00 145.00 386.55 145.00 386.00 Z M 16.00 382.00 C 16.00 381.45 16.42 381.00 16.94 381.00 C 17.46 381.00 18.16 381.45 18.50 382.00 C 18.84 382.55 18.42 383.00 17.56 383.00 C 16.70 383.00 16.00 382.55 16.00 382.00 Z M 20.88 379.18 C 20.39 377.89 20.22 376.46 20.50 376.01 C 21.08 375.06 21.06 376.88 21.04 337.50 C 21.04 321.00 21.05 306.38 21.06 305.00 C 21.07 303.62 20.83 289.90 20.51 274.50 C 20.19 259.10 19.94 245.60 19.97 244.50 C 19.99 243.40 20.06 234.96 20.12 225.73 C 20.20 214.48 20.61 208.74 21.37 208.26 C 22.47 207.57 71.64 206.79 87.50 207.21 C 91.90 207.33 97.53 207.37 100.00 207.30 C 102.47 207.23 106.53 207.18 109.00 207.17 C 111.47 207.17 114.62 207.14 116.00 207.11 C 117.38 207.09 122.78 207.07 128.00 207.07 C 133.22 207.07 138.29 207.06 139.25 207.04 C 142.25 207.00 160.91 207.01 162.75 207.06 C 163.71 207.09 169.68 206.97 176.00 206.80 L 187.50 206.50 L 188.12 233.00 C 188.46 247.57 188.80 286.84 188.87 320.25 L 189.00 381.00 L 184.75 380.98 C 182.41 380.97 144.79 381.09 101.14 381.25 L 21.77 381.53 L 20.88 379.18 Z M 200.65 378.28 C 200.38 377.30 199.81 319.58 199.38 250.00 C 198.96 180.42 198.56 120.80 198.50 117.50 C 197.82 80.15 197.88 22.73 198.60 22.05 C 199.09 21.59 236.62 21.04 282.00 20.85 L 364.50 20.50 L 364.65 43.00 C 364.74 55.38 365.08 87.10 365.41 113.50 C 365.74 139.90 366.25 181.30 366.55 205.50 C 367.15 253.85 367.35 377.00 366.83 377.49 C 366.65 377.66 345.35 378.08 319.50 378.43 C 293.65 378.78 256.45 379.29 236.83 379.56 C 203.23 380.03 201.13 379.96 200.65 378.28 Z M 334.26 360.43 C 339.20 358.74 345.31 352.93 347.11 348.21 C 348.19 345.37 348.13 250.52 347.01 198.50 C 346.45 172.50 346.25 170.21 344.27 166.42 C 341.56 161.24 336.43 157.32 329.74 155.32 C 325.19 153.95 318.75 153.82 280.50 154.33 C 250.34 154.72 235.43 155.28 233.11 156.10 C 231.24 156.76 227.42 159.45 224.61 162.09 L 219.50 166.89 L 219.68 256.98 L 219.85 347.07 L 222.33 351.29 C 225.56 356.77 228.91 359.83 233.66 361.62 C 239.43 363.81 327.41 362.76 334.26 360.43 Z M 16.02 359.25 C 16.02 358.84 16.47 357.82 17.00 357.00 C 17.78 355.79 17.97 355.93 17.98 357.75 C 17.99 358.99 17.55 360.00 17.00 360.00 C 16.45 360.00 16.01 359.66 16.02 359.25 Z M 239.40 350.92 C 237.69 350.42 235.10 348.83 233.65 347.37 L 231.00 344.73 L 231.04 315.61 C 231.06 299.60 230.84 270.75 230.56 251.50 C 230.27 232.25 229.98 207.11 229.92 195.62 C 229.74 163.82 225.83 165.97 283.50 166.10 C 307.15 166.16 327.62 166.51 328.99 166.89 C 330.36 167.27 332.46 169.04 333.66 170.83 C 335.80 174.00 335.85 174.84 336.11 213.28 C 336.25 234.85 336.40 273.23 336.43 298.57 C 336.50 341.53 336.38 344.76 334.71 346.43 C 330.93 350.21 325.85 350.67 284.62 350.92 C 262.69 351.05 244.24 351.31 243.62 351.49 C 243.00 351.67 241.10 351.41 239.40 350.92 Z M 15.00 349.00 C 15.00 348.45 15.68 348.00 16.50 348.00 C 17.32 348.00 18.00 348.45 18.00 349.00 C 18.00 349.55 17.32 350.00 16.50 350.00 C 15.68 350.00 15.00 349.55 15.00 349.00 Z M 16.00 337.56 C 16.00 336.77 16.45 335.84 17.00 335.50 C 17.55 335.16 18.00 335.81 18.00 336.94 C 18.00 338.07 17.55 339.00 17.00 339.00 C 16.45 339.00 16.00 338.35 16.00 337.56 Z M 15.00 323.00 C 15.00 321.90 15.17 321.00 15.38 321.00 C 15.59 321.00 16.00 321.90 16.29 323.00 C 16.58 324.10 16.40 325.00 15.91 325.00 C 15.41 325.00 15.00 324.10 15.00 323.00 Z M 17.08 291.42 C 17.13 290.25 17.36 290.01 17.68 290.81 C 17.97 291.53 17.94 292.40 17.60 292.73 C 17.27 293.06 17.04 292.47 17.08 291.42 Z M 14.06 288.18 C 13.99 285.47 15.66 282.00 17.04 282.00 C 17.57 282.00 18.00 282.90 18.00 284.00 C 18.00 285.10 17.54 286.00 16.97 286.00 C 16.40 286.00 15.53 287.01 15.03 288.25 L 14.13 290.50 L 14.06 288.18 Z M 16.50 279.00 C 16.16 278.45 16.14 277.58 16.46 277.07 C 16.77 276.56 16.58 275.86 16.02 275.51 C 14.44 274.54 14.82 271.00 16.50 271.00 C 17.61 271.00 18.00 272.17 18.00 275.50 C 18.00 280.02 17.64 280.85 16.50 279.00 Z M 15.50 266.00 C 15.84 265.45 16.54 265.00 17.06 265.00 C 17.58 265.00 18.00 265.45 18.00 266.00 C 18.00 266.55 17.30 267.00 16.44 267.00 C 15.58 267.00 15.16 266.55 15.50 266.00 Z M 14.00 258.00 C 14.00 257.45 14.48 257.00 15.06 257.00 C 15.64 257.00 15.84 257.45 15.50 258.00 C 15.16 258.55 14.68 259.00 14.44 259.00 C 14.20 259.00 14.00 258.55 14.00 258.00 Z M 16.02 255.31 C 16.02 254.31 16.47 252.82 17.00 252.00 C 17.76 250.83 17.97 251.09 17.98 253.19 C 17.99 254.67 17.55 256.16 17.00 256.50 C 16.45 256.84 16.01 256.30 16.02 255.31 Z M 14.02 246.25 C 14.02 245.29 14.47 243.82 15.02 243.00 C 16.55 240.66 18.17 243.75 16.67 246.16 C 15.22 248.48 14.00 248.52 14.02 246.25 Z M 16.08 239.42 C 16.13 238.25 16.36 238.01 16.68 238.81 C 16.97 239.53 16.94 240.40 16.60 240.73 C 16.27 241.06 16.04 240.47 16.08 239.42 Z M 16.72 206.71 C 16.37 205.80 16.55 204.78 17.11 204.43 C 18.55 203.54 18.86 204.19 18.05 206.43 C 17.43 208.12 17.27 208.15 16.72 206.71 Z M 99.00 204.00 C 99.00 203.45 99.45 203.00 100.00 203.00 C 100.55 203.00 101.00 203.45 101.00 204.00 C 101.00 204.55 100.55 205.00 100.00 205.00 C 99.45 205.00 99.00 204.55 99.00 204.00 Z M 45.81 203.32 C 46.53 203.03 47.40 203.06 47.73 203.40 C 48.06 203.73 47.47 203.96 46.42 203.92 C 45.25 203.87 45.01 203.64 45.81 203.32 Z M 110.00 202.50 C 110.00 201.68 110.40 201.00 110.89 201.00 C 111.38 201.00 112.05 201.68 112.36 202.50 C 112.71 203.41 112.36 204.00 111.47 204.00 C 110.66 204.00 110.00 203.32 110.00 202.50 Z M 123.00 202.42 C 123.00 200.65 125.15 200.96 125.77 202.81 C 125.99 203.47 125.45 204.00 124.58 204.00 C 123.71 204.00 123.00 203.29 123.00 202.42 Z M 136.80 202.80 C 137.73 201.87 138.27 201.87 139.20 202.80 C 140.13 203.73 139.87 204.00 138.00 204.00 C 136.13 204.00 135.87 203.73 136.80 202.80 Z M 150.50 203.00 C 150.84 202.45 151.54 202.00 152.06 202.00 C 152.58 202.00 153.00 202.45 153.00 203.00 C 153.00 203.55 152.30 204.00 151.44 204.00 C 150.58 204.00 150.16 203.55 150.50 203.00 Z M 174.81 203.32 C 175.53 203.03 176.40 203.06 176.73 203.40 C 177.06 203.73 176.47 203.96 175.42 203.92 C 174.25 203.87 174.01 203.64 174.81 203.32 Z M 103.67 202.33 C 102.52 201.18 102.94 200.00 104.50 200.00 C 105.33 200.00 106.00 200.68 106.00 201.50 C 106.00 203.06 104.82 203.48 103.67 202.33 Z M 156.54 202.07 C 155.86 200.96 157.44 199.77 158.36 200.69 C 159.31 201.64 159.13 203.00 158.06 203.00 C 157.54 203.00 156.86 202.58 156.54 202.07 Z M 58.50 201.00 C 58.84 200.45 59.32 200.00 59.56 200.00 C 59.80 200.00 60.00 200.45 60.00 201.00 C 60.00 201.55 59.52 202.00 58.94 202.00 C 58.36 202.00 58.16 201.55 58.50 201.00 Z M 84.50 201.00 C 84.84 200.45 85.32 200.00 85.56 200.00 C 85.80 200.00 86.00 200.45 86.00 201.00 C 86.00 201.55 85.52 202.00 84.94 202.00 C 84.36 202.00 84.16 201.55 84.50 201.00 Z M 129.80 200.80 C 130.73 199.87 131.27 199.87 132.20 200.80 C 133.13 201.73 132.87 202.00 131.00 202.00 C 129.13 202.00 128.87 201.73 129.80 200.80 Z M 184.29 196.98 C 183.04 196.48 148.26 196.19 104.79 196.32 C 62.28 196.45 25.93 196.31 24.00 196.00 L 20.50 195.45 L 20.42 188.48 C 20.37 184.64 20.25 179.70 20.14 177.50 C 19.95 173.45 19.88 150.97 19.79 67.17 C 19.75 28.89 19.50 20.75 18.37 20.31 C 16.87 19.74 16.46 17.00 17.88 17.00 C 18.36 17.00 19.37 17.89 20.13 18.97 C 21.35 20.73 22.69 20.94 32.50 20.94 C 38.55 20.94 44.40 20.92 45.50 20.88 C 46.60 20.85 64.38 20.87 85.00 20.92 C 143.17 21.07 182.42 20.82 183.30 20.30 C 184.73 19.44 181.98 17.19 180.10 17.68 C 178.99 17.98 178.02 17.50 177.62 16.46 C 177.10 15.10 177.40 14.87 179.12 15.32 C 180.40 15.66 181.91 15.23 182.88 14.27 C 184.36 12.78 184.56 12.96 185.37 16.58 C 186.97 23.74 188.78 198.07 187.25 197.94 C 186.84 197.90 185.50 197.47 184.29 196.98 Z M 14.67 181.33 C 14.30 180.97 14.00 179.76 14.00 178.64 C 14.00 176.65 14.02 176.65 15.47 178.56 C 16.28 179.63 16.95 180.84 16.97 181.25 C 17.01 182.18 15.57 182.23 14.67 181.33 Z M 14.00 174.15 C 14.00 173.69 14.90 172.50 16.00 171.50 C 17.94 169.75 18.00 169.75 18.00 171.74 C 18.00 172.86 17.29 174.06 16.42 174.39 C 14.33 175.19 14.00 175.16 14.00 174.15 Z M 17.08 167.42 C 17.13 166.25 17.36 166.01 17.68 166.81 C 17.97 167.53 17.94 168.40 17.60 168.73 C 17.27 169.06 17.04 168.47 17.08 167.42 Z M 14.00 162.51 C 14.00 161.03 14.57 160.00 15.39 160.00 C 17.63 160.00 17.97 162.54 15.90 163.83 C 14.22 164.88 14.00 164.72 14.00 162.51 Z M 17.08 158.42 C 17.13 157.25 17.36 157.01 17.68 157.81 C 17.97 158.53 17.94 159.40 17.60 159.73 C 17.27 160.06 17.04 159.47 17.08 158.42 Z M 14.00 147.50 C 14.00 144.67 14.38 144.00 16.00 144.00 C 17.10 144.00 18.00 144.45 18.00 145.00 C 18.00 145.55 17.55 146.00 17.00 146.00 C 16.45 146.00 16.00 147.12 16.00 148.50 C 16.00 149.88 15.55 151.00 15.00 151.00 C 14.45 151.00 14.00 149.43 14.00 147.50 Z M 14.06 133.25 C 14.01 128.33 14.32 127.00 15.50 127.00 C 17.31 127.00 17.43 128.17 15.80 129.80 C 14.87 130.73 14.98 131.00 16.30 131.00 C 17.33 131.00 18.00 131.78 18.00 133.00 C 18.00 134.10 17.54 135.00 16.97 135.00 C 16.40 135.00 15.53 136.01 15.03 137.25 C 14.34 138.96 14.11 138.01 14.06 133.25 Z M 333.82 134.71 C 336.43 133.42 339.60 130.59 341.82 127.55 L 345.50 122.53 L 345.34 89.29 C 345.20 59.21 345.01 55.68 343.34 52.28 C 340.95 47.40 332.93 41.41 327.63 40.54 C 323.52 39.87 253.89 39.76 241.18 40.41 C 237.51 40.60 232.89 41.43 230.91 42.25 C 226.13 44.27 220.24 50.48 218.90 54.93 C 218.20 57.29 217.94 69.42 218.16 90.10 L 218.50 121.66 L 221.51 126.53 C 223.17 129.21 226.03 132.28 227.87 133.36 C 235.77 137.97 235.90 137.98 284.00 137.39 C 327.82 136.86 329.66 136.76 333.82 134.71 Z M 236.00 124.73 C 229.77 122.54 229.45 120.88 229.13 88.74 C 228.93 68.75 229.19 59.51 229.99 58.02 C 230.61 56.85 232.56 55.02 234.31 53.95 C 237.34 52.10 239.70 52.01 282.35 52.00 L 327.20 52.00 L 330.60 55.40 L 334.00 58.80 L 334.08 74.65 C 334.13 83.37 334.36 96.73 334.60 104.35 L 335.04 118.20 L 331.48 121.46 C 327.02 125.54 325.82 125.63 276.00 125.83 C 249.31 125.93 238.56 125.64 236.00 124.73 Z M 14.72 122.39 C 14.04 121.71 16.64 116.00 17.63 116.00 C 18.38 116.00 17.10 121.25 16.11 122.27 C 15.70 122.69 15.08 122.74 14.72 122.39 Z M 14.03 111.16 C 14.01 110.42 14.90 108.67 16.00 107.27 L 18.00 104.73 L 18.00 107.42 C 18.00 108.91 17.58 109.86 17.06 109.54 C 16.55 109.22 15.66 109.75 15.09 110.73 C 14.43 111.87 14.05 112.02 14.03 111.16 Z M 15.05 86.00 C 15.07 84.62 15.71 82.15 16.46 80.50 L 17.84 77.50 L 17.92 80.14 C 17.96 81.59 17.33 84.06 16.51 85.64 C 15.01 88.50 15.01 88.50 15.05 86.00 Z M 14.34 71.43 C 14.01 70.57 14.24 69.36 14.87 68.73 C 15.71 67.89 16.00 68.29 16.00 70.30 C 16.00 73.31 15.25 73.82 14.34 71.43 Z M 14.07 58.31 C 14.11 56.76 14.53 54.60 15.00 53.50 C 15.67 51.95 15.88 52.43 15.93 55.69 C 15.97 58.00 15.55 60.16 15.00 60.50 C 14.42 60.86 14.03 59.94 14.07 58.31 Z M 14.65 45.53 C 14.34 44.72 14.52 43.80 15.04 43.47 C 15.57 43.15 16.00 43.81 16.00 44.94 C 16.00 47.36 15.44 47.60 14.65 45.53 Z M 12.54 35.07 C 12.23 34.56 12.42 33.86 12.98 33.51 C 13.54 33.16 14.00 33.58 14.00 34.44 C 14.00 36.20 13.40 36.46 12.54 35.07 Z M 14.54 29.07 C 14.23 28.56 14.38 27.88 14.88 27.57 C 15.38 27.26 16.05 27.68 16.36 28.51 C 16.99 30.13 15.48 30.59 14.54 29.07 Z M 13.19 22.50 C 13.22 20.85 13.44 20.30 13.69 21.27 C 13.95 22.24 13.93 23.59 13.66 24.27 C 13.38 24.95 13.17 24.15 13.19 22.50 Z M 23.64 16.49 C 23.29 15.59 23.64 15.00 24.53 15.00 C 26.15 15.00 26.52 16.56 25.10 17.44 C 24.61 17.74 23.95 17.32 23.64 16.49 Z M 113.81 17.32 C 114.53 17.03 115.40 17.06 115.73 17.40 C 116.06 17.73 115.47 17.96 114.42 17.92 C 113.25 17.87 113.01 17.64 113.81 17.32 Z M 14.00 16.00 C 14.00 15.45 14.45 15.00 15.00 15.00 C 15.55 15.00 16.00 15.45 16.00 16.00 C 16.00 16.55 15.55 17.00 15.00 17.00 C 14.45 17.00 14.00 16.55 14.00 16.00 Z M 71.00 16.12 C 71.00 15.57 71.45 14.84 72.00 14.50 C 72.55 14.16 73.00 14.33 73.00 14.88 C 73.00 15.43 72.55 16.16 72.00 16.50 C 71.45 16.84 71.00 16.67 71.00 16.12 Z M 121.58 16.13 C 121.15 15.44 121.07 14.60 121.40 14.27 C 122.29 13.37 123.27 14.69 122.79 16.14 C 122.45 17.15 122.21 17.15 121.58 16.13 Z M 129.00 16.06 C 129.00 14.62 130.64 13.92 132.41 14.60 C 134.85 15.54 134.30 17.00 131.50 17.00 C 130.12 17.00 129.00 16.58 129.00 16.06 Z M 83.81 15.32 C 84.53 15.03 85.40 15.06 85.73 15.40 C 86.06 15.73 85.47 15.96 84.42 15.92 C 83.25 15.87 83.01 15.64 83.81 15.32 Z M 96.00 15.00 C 96.00 14.45 96.45 14.00 97.00 14.00 C 97.55 14.00 98.00 14.45 98.00 15.00 C 98.00 15.55 97.55 16.00 97.00 16.00 C 96.45 16.00 96.00 15.55 96.00 15.00 Z M 144.50 15.00 C 144.16 14.45 144.36 14.00 144.94 14.00 C 145.52 14.00 146.00 14.45 146.00 15.00 C 146.00 15.55 145.80 16.00 145.56 16.00 C 145.32 16.00 144.84 15.55 144.50 15.00 Z M 138.81 14.32 C 139.53 14.03 140.40 14.06 140.73 14.40 C 141.06 14.73 140.47 14.96 139.42 14.92 C 138.25 14.87 138.01 14.64 138.81 14.32 Z M 168.81 14.32 C 169.53 14.03 170.40 14.06 170.73 14.40 C 171.06 14.73 170.47 14.96 169.42 14.92 C 168.25 14.87 168.01 14.64 168.81 14.32 Z" fill="none" stroke="rgba(255,255,255,0.92)" stroke-width="1.5" stroke-linejoin="round" fill-rule="evenodd"/>
</svg>
