<svg xmlns="http://www.w3.org/2000/svg" viewBox="0 0 400 288" width="400" height="288">
  <path d="M 0.00 144.00 L 0.00 0.00 L 200.00 0.00 L 400.00 0.00 L 400.00 144.00 L 400.00 288.00 L 200.00 288.00 L 0.00 288.00 L 0.00 144.00 Z M 14.50 281.05 C 15.60 280.61 17.02 280.67 17.67 281.18 C 18.46 281.81 19.04 281.45 19.48 280.05 C 19.88 278.80 20.99 278.01 22.32 278.02 C 23.89 278.03 24.13 278.27 23.17 278.88 C 22.10 279.55 22.17 279.85 23.50 280.36 C 24.41 280.71 25.86 281.00 26.70 281.00 C 27.96 281.00 28.01 280.72 27.00 279.50 C 25.95 278.23 26.16 278.00 28.38 278.00 C 29.82 278.00 31.00 278.38 31.00 278.84 C 31.00 279.31 33.35 279.71 36.21 279.74 C 39.09 279.77 41.60 280.29 41.80 280.89 C 42.00 281.50 43.59 281.95 45.33 281.88 L 48.50 281.76 L 45.50 281.09 C 42.70 280.47 42.65 280.38 44.77 279.80 C 46.11 279.43 47.59 279.73 48.39 280.53 C 49.37 281.52 51.77 281.77 57.12 281.45 C 61.18 281.21 65.40 280.97 66.50 280.91 C 67.60 280.86 70.30 281.02 72.50 281.28 C 74.70 281.54 75.71 281.56 74.75 281.31 C 73.79 281.06 73.00 280.44 73.00 279.93 C 73.00 278.69 73.45 278.74 77.65 280.50 C 82.32 282.45 86.00 282.44 86.00 280.49 C 86.00 279.23 86.33 279.19 88.00 280.23 C 89.55 281.20 90.43 281.22 91.89 280.30 C 92.93 279.65 94.10 279.43 94.48 279.81 C 95.43 280.76 100.00 280.77 100.00 279.82 C 100.00 279.39 102.10 279.33 104.66 279.68 C 108.06 280.14 109.12 280.00 108.60 279.16 C 108.20 278.52 108.32 278.00 108.86 278.00 C 109.40 278.00 110.62 277.70 111.58 277.33 C 112.87 276.83 113.11 277.01 112.50 278.00 C 111.89 278.98 112.12 279.17 113.34 278.70 C 114.25 278.35 115.00 278.52 115.00 279.08 C 115.00 279.64 117.14 280.10 119.75 280.10 C 122.36 280.10 131.93 280.31 141.00 280.56 C 161.30 281.11 168.14 280.53 167.28 278.30 C 166.87 277.23 167.13 276.89 168.09 277.24 C 168.87 277.52 169.41 278.20 169.29 278.76 C 168.99 280.19 174.87 281.18 176.85 280.03 C 178.20 279.24 178.00 279.06 175.75 279.03 C 174.24 279.01 173.00 278.55 173.00 278.00 C 173.00 277.45 173.68 277.00 174.50 277.00 C 175.32 277.00 176.00 276.32 176.00 275.50 C 176.00 273.71 171.93 273.47 170.24 275.16 C 169.37 276.03 168.74 276.03 167.66 275.14 C 166.68 274.32 165.47 274.25 163.72 274.91 C 162.34 275.44 160.97 275.63 160.67 275.34 C 160.38 275.05 156.55 274.85 152.15 274.90 C 144.55 274.98 144.05 274.84 142.11 272.24 C 140.23 269.72 140.06 269.67 140.03 271.60 C 140.01 273.35 143.91 278.32 144.35 277.10 C 144.43 276.89 145.62 277.10 147.00 277.57 C 149.15 278.31 148.72 278.52 144.00 279.05 C 140.57 279.43 137.18 279.19 135.00 278.40 L 131.50 277.14 L 134.69 277.07 C 136.45 277.03 138.16 277.46 138.51 278.02 C 139.76 280.03 141.01 277.88 139.85 275.71 C 138.10 272.46 137.97 267.27 139.59 265.92 C 140.64 265.05 156.54 264.71 200.76 264.62 L 260.50 264.50 L 260.57 271.06 C 260.61 274.67 260.93 278.38 261.29 279.31 C 261.89 280.87 266.94 281.00 328.47 281.00 L 395.01 281.00 L 394.75 144.25 L 394.50 7.50 L 336.00 7.57 C 279.68 7.63 234.09 8.10 232.95 8.62 C 232.65 8.75 216.23 9.08 196.45 9.35 C 136.47 10.15 87.48 10.99 68.50 11.54 C 58.60 11.83 40.62 12.21 28.54 12.38 L 6.59 12.70 L 6.68 30.60 C 6.73 40.45 7.04 75.05 7.36 107.50 C 9.13 283.66 9.09 282.17 11.73 281.93 C 12.15 281.89 13.40 281.50 14.50 281.05 Z M 183.98 279.48 C 182.14 277.26 183.49 276.55 187.23 277.75 C 189.03 278.32 189.71 278.84 188.75 278.90 C 185.65 279.08 186.89 280.69 190.20 280.79 C 192.30 280.85 193.86 280.22 194.76 278.94 C 195.50 277.87 196.88 277.01 197.81 277.03 C 199.35 277.06 199.34 277.15 197.73 278.09 C 196.75 278.66 196.19 279.49 196.47 279.95 C 197.14 281.04 221.92 280.94 222.59 279.85 C 222.88 279.38 222.64 279.00 222.06 279.00 C 221.48 279.00 221.00 278.52 221.00 277.93 C 221.00 276.58 218.82 274.44 217.50 274.49 C 216.95 274.51 215.91 274.90 215.19 275.36 C 214.44 275.83 212.60 275.66 210.92 274.97 C 207.93 273.73 187.27 274.19 183.65 275.58 C 182.73 275.93 182.00 275.73 182.00 275.11 C 182.00 273.55 180.13 273.73 178.40 275.46 C 177.13 276.73 177.16 277.17 178.69 278.96 C 179.66 280.08 181.52 281.00 182.84 281.00 C 184.88 281.00 185.05 280.77 183.98 279.48 Z M 235.14 279.94 C 238.24 280.03 239.74 277.31 237.71 275.28 C 236.07 273.64 231.29 275.07 230.37 277.48 C 230.05 278.32 228.82 278.96 227.64 278.92 C 226.46 278.88 226.06 278.62 226.75 278.34 C 228.09 277.80 228.50 275.01 227.25 274.99 C 226.84 274.98 225.49 274.70 224.25 274.37 C 222.90 274.01 222.00 274.21 222.00 274.88 C 222.00 275.50 222.68 276.00 223.50 276.00 C 224.41 276.00 225.00 276.93 225.00 278.36 C 225.00 280.50 225.36 280.68 228.75 280.30 C 230.81 280.06 233.69 279.90 235.14 279.94 Z M 248.00 280.00 C 248.00 279.45 247.44 278.97 246.75 278.93 C 246.06 278.88 244.49 278.66 243.25 278.43 C 240.88 277.99 240.11 279.47 242.25 280.34 C 244.47 281.24 248.00 281.03 248.00 280.00 Z M 259.00 279.88 C 259.00 279.27 258.16 278.99 257.14 279.25 C 256.12 279.52 254.54 279.32 253.63 278.82 C 251.78 277.78 249.66 278.64 250.54 280.07 C 251.37 281.40 259.00 281.23 259.00 279.88 Z M 155.25 279.35 C 152.70 278.30 153.96 276.00 157.07 276.00 C 159.45 276.00 160.07 276.39 159.81 277.74 C 159.47 279.53 157.44 280.25 155.25 279.35 Z M 201.00 277.88 C 201.00 276.11 201.25 275.96 202.49 276.99 C 203.99 278.24 203.67 280.00 201.94 280.00 C 201.42 280.00 201.00 279.04 201.00 277.88 Z M 180.00 278.00 C 180.00 277.45 180.45 277.00 181.00 277.00 C 181.55 277.00 182.00 277.45 182.00 278.00 C 182.00 278.55 181.55 279.00 181.00 279.00 C 180.45 279.00 180.00 278.55 180.00 278.00 Z M 234.51 277.98 C 234.86 277.42 235.56 277.23 236.07 277.54 C 237.46 278.40 237.20 279.00 235.44 279.00 C 234.58 279.00 234.16 278.54 234.51 277.98 Z M 252.25 276.30 C 255.41 276.03 257.78 275.46 257.52 275.03 C 256.79 273.86 241.66 274.52 241.25 275.74 C 240.87 276.90 243.58 277.04 252.25 276.30 Z M 16.18 272.49 C 15.53 271.06 14.54 270.16 14.00 270.50 C 12.95 271.15 12.83 270.46 12.60 262.81 C 12.52 260.23 12.18 257.84 11.84 257.51 C 11.50 257.17 11.70 255.34 12.28 253.45 C 13.02 251.03 13.02 248.29 12.28 244.25 C 11.70 241.09 11.59 237.80 12.04 236.95 C 12.49 236.09 12.53 234.86 12.14 234.22 C 11.74 233.58 11.26 217.85 11.08 199.27 C 10.90 180.70 10.67 161.90 10.56 157.50 C 10.38 149.57 11.25 146.42 13.28 147.68 C 13.94 148.08 14.10 147.70 13.70 146.66 C 13.35 145.75 13.54 145.00 14.13 145.00 C 14.71 145.00 15.43 145.94 15.74 147.10 C 16.20 148.87 16.76 149.08 19.39 148.48 C 24.00 147.43 31.12 147.00 30.62 147.80 C 29.99 148.83 35.10 148.49 38.00 147.32 C 39.38 146.76 44.10 146.44 48.50 146.60 C 52.90 146.76 58.30 146.96 60.50 147.04 C 62.70 147.11 73.72 146.92 85.00 146.61 C 99.32 146.21 106.17 146.38 107.72 147.17 C 109.40 148.03 110.29 148.00 111.42 147.06 C 112.24 146.38 113.40 146.13 114.00 146.50 C 114.60 146.87 115.73 146.64 116.51 145.99 C 117.38 145.27 119.61 145.02 122.22 145.35 C 124.57 145.65 127.50 145.92 128.72 145.95 C 130.18 145.98 130.76 146.47 130.41 147.38 C 130.07 148.27 131.01 149.16 133.07 149.87 C 135.44 150.70 136.00 151.31 135.25 152.24 C 134.61 153.04 134.37 161.63 134.59 175.50 C 134.79 187.60 135.14 214.82 135.38 236.00 L 135.81 274.50 L 76.58 274.80 L 17.36 275.09 L 16.18 272.49 Z M 269.00 272.80 C 269.00 272.63 268.75 216.25 268.46 147.50 C 268.16 78.75 267.74 21.04 267.52 19.25 C 267.30 17.46 267.43 16.00 267.81 16.00 C 268.19 16.00 295.16 15.72 327.75 15.39 L 387.00 14.78 L 387.00 143.78 L 387.00 272.77 L 328.00 272.93 C 295.55 273.02 269.00 272.96 269.00 272.80 Z M 15.98 264.69 C 15.98 263.49 15.53 261.82 15.00 261.00 C 14.29 259.90 14.03 260.66 14.02 263.81 C 14.01 266.43 14.39 267.88 15.00 267.50 C 15.55 267.16 15.99 265.90 15.98 264.69 Z M 363.91 259.04 C 366.02 257.97 368.93 255.68 370.37 253.97 L 373.00 250.85 L 373.00 186.87 C 373.00 115.96 373.34 119.65 366.33 114.30 L 362.65 111.50 L 329.58 111.33 C 292.24 111.15 290.19 111.45 285.27 117.88 L 282.50 121.50 L 282.67 184.24 C 282.79 226.83 283.20 248.06 283.94 250.33 C 285.29 254.40 289.69 258.79 293.60 259.96 C 295.20 260.44 310.81 260.87 328.29 260.91 C 357.97 260.99 360.33 260.87 363.91 259.04 Z M 140.88 253.75 C 140.80 252.06 140.65 251.93 140.31 253.25 C 140.06 254.21 139.44 255.00 138.93 255.00 C 137.63 255.00 137.77 253.78 139.35 251.47 C 141.27 248.67 142.19 244.23 141.00 243.50 C 140.44 243.16 139.99 243.90 139.98 245.19 C 139.98 246.46 139.53 248.18 139.00 249.00 C 138.30 250.08 138.03 249.19 138.02 245.75 C 138.00 241.90 138.33 240.99 139.75 240.97 C 141.39 240.94 141.40 240.86 139.80 239.64 C 137.92 238.21 137.99 239.63 137.73 199.50 C 137.63 183.24 137.94 175.86 138.78 174.33 C 139.44 173.14 139.59 172.01 139.11 171.83 C 138.63 171.65 137.93 169.47 137.56 167.00 C 137.19 164.53 137.25 163.02 137.69 163.65 C 138.16 164.31 141.19 164.80 144.82 164.80 C 148.29 164.80 151.29 164.96 151.47 165.15 C 151.66 165.34 151.99 185.86 152.22 210.75 L 152.63 256.00 L 146.82 256.00 C 141.49 256.00 140.99 255.81 140.88 253.75 Z M 160.56 245.75 C 160.22 240.11 159.84 219.40 159.72 199.72 L 159.50 163.93 L 169.50 164.22 L 179.50 164.50 L 180.00 201.50 C 180.28 221.85 180.37 242.44 180.21 247.25 L 179.92 256.00 L 170.56 256.00 L 161.19 256.00 L 160.56 245.75 Z M 188.63 252.25 C 188.33 250.19 187.95 229.60 187.79 206.50 L 187.50 164.50 L 196.41 164.21 C 201.31 164.05 205.66 164.27 206.08 164.71 C 206.50 165.14 207.17 185.86 207.57 210.75 L 208.29 256.00 L 198.73 256.00 L 189.18 256.00 L 188.63 252.25 Z M 215.77 251.75 C 215.53 249.41 215.23 228.60 215.11 205.50 L 214.88 163.50 L 224.35 163.50 C 229.57 163.50 234.06 163.73 234.34 164.01 C 234.81 164.47 235.29 216.99 235.08 244.75 L 235.00 256.00 L 225.61 256.00 L 216.21 256.00 L 215.77 251.75 Z M 243.64 254.29 C 243.36 253.31 242.99 232.48 242.81 208.00 L 242.50 163.50 L 249.70 163.19 C 262.09 162.65 260.99 157.97 260.73 210.27 L 260.50 255.50 L 252.33 255.79 C 245.19 256.04 244.09 255.85 243.64 254.29 Z M 313.78 252.00 C 296.61 251.56 293.84 251.27 292.28 249.71 C 290.62 248.05 290.48 243.80 290.15 185.55 L 289.81 123.17 L 292.35 121.51 C 294.59 120.04 298.76 119.84 327.35 119.83 C 349.04 119.83 360.49 120.19 361.86 120.92 C 362.99 121.53 364.28 123.48 364.72 125.26 C 365.16 127.04 365.52 155.15 365.51 187.73 L 365.50 246.95 L 362.87 249.59 C 360.31 252.15 359.89 252.22 346.87 252.36 C 339.52 252.44 324.63 252.28 313.78 252.00 Z M 14.69 243.27 C 14.44 242.30 14.22 242.85 14.19 244.50 C 14.17 246.15 14.38 246.95 14.66 246.27 C 14.93 245.59 14.95 244.24 14.69 243.27 Z M 14.68 236.81 C 14.36 236.01 14.13 236.25 14.08 237.42 C 14.04 238.47 14.27 239.06 14.60 238.73 C 14.94 238.40 14.97 237.53 14.68 236.81 Z M 141.68 229.81 C 141.36 229.01 141.13 229.25 141.08 230.42 C 141.04 231.47 141.27 232.06 141.60 231.73 C 141.94 231.40 141.97 230.53 141.68 229.81 Z M 14.73 209.78 C 14.52 207.42 14.35 209.10 14.34 213.50 C 14.34 217.90 14.51 219.82 14.73 217.78 C 14.94 215.73 14.94 212.13 14.73 209.78 Z M 139.68 202.81 C 139.36 202.01 139.13 202.25 139.08 203.42 C 139.04 204.47 139.27 205.06 139.60 204.73 C 139.94 204.40 139.97 203.53 139.68 202.81 Z M 140.13 194.35 C 139.19 192.73 139.06 192.86 139.03 195.45 C 139.01 197.60 139.30 198.10 140.10 197.30 C 140.89 196.51 140.90 195.67 140.13 194.35 Z M 140.15 185.89 L 139.18 182.50 L 139.09 186.95 C 139.03 190.09 139.31 191.09 140.06 190.34 C 140.79 189.61 140.82 188.19 140.15 185.89 Z M 141.00 177.88 C 141.00 177.33 140.55 177.16 140.00 177.50 C 139.45 177.84 139.00 178.57 139.00 179.12 C 139.00 179.67 139.45 179.84 140.00 179.50 C 140.55 179.16 141.00 178.43 141.00 177.88 Z M 141.30 153.41 C 139.75 151.21 139.47 149.92 140.13 148.14 C 140.89 146.13 141.25 145.97 142.59 147.07 C 143.88 148.14 144.30 148.13 145.00 146.99 C 145.67 145.91 146.39 145.85 148.30 146.73 C 150.27 147.62 151.05 147.52 152.40 146.17 C 153.64 144.94 154.27 144.81 154.81 145.70 C 155.32 146.52 156.66 146.64 159.14 146.08 C 161.55 145.54 163.77 145.70 165.87 146.59 C 168.61 147.74 169.00 147.71 169.00 146.32 C 169.00 145.01 169.74 144.86 173.25 145.45 C 180.38 146.65 191.00 147.06 191.00 146.14 C 191.00 145.66 192.81 145.60 195.02 146.00 C 197.23 146.41 199.28 146.35 199.58 145.87 C 199.88 145.39 201.10 145.01 202.31 145.02 C 204.05 145.03 204.20 145.22 203.03 145.96 C 202.22 146.47 201.88 147.21 202.27 147.61 C 202.67 148.00 203.78 147.64 204.74 146.81 C 207.00 144.87 210.00 143.81 210.00 144.95 C 210.00 145.43 209.44 146.06 208.75 146.34 C 207.91 146.68 208.00 146.87 209.03 146.92 C 209.87 146.96 211.55 146.30 212.76 145.46 C 214.50 144.24 215.42 144.15 217.09 145.05 C 218.50 145.80 219.55 145.85 220.21 145.19 C 220.83 144.57 222.36 144.53 224.24 145.07 C 225.92 145.55 227.74 145.66 228.30 145.32 C 228.85 144.97 233.17 144.79 237.90 144.91 C 242.63 145.03 247.51 145.15 248.75 145.17 C 249.99 145.19 251.01 145.73 251.02 146.36 C 251.02 147.05 251.38 146.96 251.90 146.13 C 252.38 145.37 253.38 144.96 254.13 145.21 C 254.87 145.46 256.08 145.06 256.81 144.33 C 259.26 141.88 260.00 142.96 260.00 149.00 L 260.00 155.00 L 252.25 155.01 C 247.99 155.01 221.74 155.31 193.93 155.66 L 143.36 156.31 L 141.30 153.41 Z M 137.08 148.42 C 137.13 147.25 137.36 147.01 137.68 147.81 C 137.97 148.53 137.94 149.40 137.60 149.73 C 137.27 150.06 137.04 149.47 137.08 148.42 Z M 54.73 148.40 C 54.40 148.06 53.53 148.03 52.81 148.32 C 52.01 148.64 52.25 148.87 53.42 148.92 C 54.47 148.96 55.06 148.73 54.73 148.40 Z M 133.50 148.00 C 133.16 147.45 133.36 147.00 133.94 147.00 C 134.52 147.00 135.00 147.45 135.00 148.00 C 135.00 148.55 134.80 149.00 134.56 149.00 C 134.32 149.00 133.84 148.55 133.50 148.00 Z M 14.98 141.44 C 14.44 140.02 14.00 138.00 14.00 136.93 C 14.00 135.87 13.55 135.00 13.00 135.00 C 12.45 135.00 12.00 135.45 12.00 136.00 C 12.00 136.55 11.65 137.00 11.23 137.00 C 10.37 137.00 10.38 137.48 9.64 67.37 L 9.10 16.25 L 12.80 15.63 C 19.28 14.56 24.21 14.85 23.37 16.25 C 22.77 17.25 22.93 17.25 24.15 16.26 C 25.24 15.37 33.62 14.86 53.58 14.46 C 68.93 14.15 85.08 13.73 89.48 13.53 C 93.88 13.32 98.01 13.59 98.67 14.14 C 99.45 14.79 101.25 14.71 104.01 13.88 C 107.49 12.84 108.31 12.87 109.08 14.07 C 109.75 15.11 110.20 15.19 110.75 14.34 C 111.71 12.87 131.46 13.03 131.59 14.50 C 131.63 15.05 131.95 16.18 132.29 17.00 C 132.63 17.82 133.10 45.80 133.34 79.16 C 133.58 112.53 134.08 140.32 134.45 140.91 C 134.82 141.51 134.53 142.02 133.81 142.05 C 133.09 142.08 118.10 142.30 100.50 142.53 C 82.90 142.76 56.68 143.19 42.23 143.48 L 15.95 144.00 L 14.98 141.44 Z M 141.25 141.32 C 140.56 141.05 140.00 140.11 140.00 139.23 C 140.00 137.89 139.74 137.95 138.47 139.56 C 137.07 141.34 136.97 140.96 137.22 134.75 C 137.38 131.03 137.26 128.00 136.97 128.00 C 136.20 128.00 136.65 115.83 137.50 113.76 C 137.89 112.80 138.61 112.26 139.10 112.56 C 139.60 112.87 139.93 110.95 139.85 108.31 C 139.75 104.95 139.57 104.41 139.27 106.50 C 138.68 110.69 137.38 111.65 136.58 108.48 C 136.19 106.93 136.40 105.22 137.08 104.40 C 137.89 103.43 137.93 102.62 137.21 101.75 C 135.87 100.13 135.71 76.80 137.04 75.98 C 137.65 75.60 137.41 74.13 136.40 72.10 C 135.20 69.69 135.06 68.54 135.88 67.72 C 136.71 66.89 137.00 66.94 137.00 67.87 C 137.00 68.57 137.68 69.82 138.50 70.64 C 139.83 71.98 140.00 71.73 140.00 68.45 C 140.00 65.38 139.76 64.95 138.59 65.93 C 137.81 66.57 136.97 66.74 136.72 66.30 C 135.64 64.42 135.02 58.11 135.85 57.59 C 136.77 57.03 136.76 52.15 135.84 50.41 C 135.57 49.91 135.48 46.58 135.64 43.00 C 136.06 33.65 135.96 26.74 135.40 25.83 C 135.13 25.40 135.44 24.04 136.10 22.82 C 136.98 21.17 136.99 20.50 136.14 20.21 C 135.51 20.00 135.00 19.43 135.00 18.95 C 135.00 17.45 137.86 19.07 138.33 20.84 C 138.63 21.99 138.80 21.80 138.88 20.25 C 138.96 18.87 138.42 18.00 137.50 18.00 C 135.43 18.00 135.61 15.27 137.75 14.17 C 138.71 13.67 143.89 13.33 149.25 13.41 C 154.61 13.49 159.00 13.21 159.00 12.79 C 159.00 12.36 166.99 12.11 176.75 12.22 C 186.51 12.34 194.95 12.16 195.50 11.83 C 196.05 11.49 202.12 11.63 209.00 12.13 C 228.31 13.53 247.57 13.45 239.50 12.00 C 236.56 11.47 238.19 11.25 245.69 11.14 C 251.67 11.06 256.14 11.42 256.51 12.02 C 256.86 12.58 257.51 12.80 257.96 12.52 C 258.42 12.24 259.06 12.72 259.40 13.59 C 259.73 14.45 260.00 43.59 260.00 78.33 L 260.00 141.50 L 201.25 141.65 C 168.94 141.74 141.94 141.59 141.25 141.32 Z M 139.66 132.75 C 139.38 132.06 139.16 132.62 139.16 134.00 C 139.16 135.38 139.38 135.94 139.66 135.25 C 139.94 134.56 139.94 133.44 139.66 132.75 Z M 139.68 114.81 C 139.36 114.01 139.13 114.25 139.08 115.42 C 139.04 116.47 139.27 117.06 139.60 116.73 C 139.94 116.40 139.97 115.53 139.68 114.81 Z M 365.81 96.86 C 367.08 95.97 369.22 93.74 370.56 91.92 C 372.98 88.64 373.00 88.40 372.99 66.06 C 372.99 53.65 372.53 41.83 371.96 39.79 C 370.58 34.84 365.98 30.41 361.29 29.52 C 357.94 28.89 312.57 28.85 296.41 29.46 C 290.96 29.67 289.98 30.04 287.15 33.00 C 282.26 38.12 281.81 41.12 282.17 66.50 C 282.54 92.42 282.65 92.83 290.50 96.93 C 294.36 98.95 295.67 99.02 329.00 98.76 C 359.05 98.53 363.80 98.29 365.81 96.86 Z M 139.69 93.27 C 139.44 92.30 139.22 92.85 139.19 94.50 C 139.17 96.15 139.38 96.95 139.66 96.27 C 139.93 95.59 139.95 94.24 139.69 93.27 Z M 294.50 89.84 C 290.17 87.48 290.00 86.52 290.00 64.36 C 290.00 43.75 290.07 43.03 292.25 40.55 L 294.50 38.00 L 327.16 37.75 L 359.83 37.50 L 362.41 39.92 L 365.00 42.35 L 365.00 63.74 C 365.00 76.33 364.58 85.91 363.98 87.03 C 363.42 88.08 361.29 89.38 359.23 89.93 C 354.02 91.33 297.09 91.25 294.50 89.84 Z M 139.66 84.75 C 139.38 84.06 139.16 84.62 139.16 86.00 C 139.16 87.38 139.38 87.94 139.66 87.25 C 139.94 86.56 139.94 85.44 139.66 84.75 Z M 139.68 78.81 C 139.36 78.01 139.13 78.25 139.08 79.42 C 139.04 80.47 139.27 81.06 139.60 80.73 C 139.94 80.40 139.97 79.53 139.68 78.81 Z M 139.69 58.27 C 139.44 57.30 139.22 57.85 139.19 59.50 C 139.17 61.15 139.38 61.95 139.66 61.27 C 139.93 60.59 139.95 59.24 139.69 58.27 Z M 138.68 38.81 C 138.36 38.01 138.13 38.25 138.08 39.42 C 138.04 40.47 138.27 41.06 138.60 40.73 C 138.94 40.40 138.97 39.53 138.68 38.81 Z M 138.18 27.78 C 137.47 27.07 137.00 27.01 137.00 27.63 C 137.00 28.97 138.18 30.15 138.85 29.48 C 139.13 29.20 138.83 28.43 138.18 27.78 Z" fill="none" stroke="rgba(255,255,255,0.92)" stroke-width="1.5" stroke-linejoin="round" fill-rule="evenodd"/>
</svg>
