<svg xmlns="http://www.w3.org/2000/svg" viewBox="0 0 100 100" width="100" height="100">
  <path d="M 0.00 50.00 L 0.00 0.00 L 50.00 0.00 L 100.00 0.00 L 100.00 50.00 L 100.00 100.00 L 50.00 100.00 L 0.00 100.00 L 0.00 50.00 Z M 65.16 95.00 L 96.00 95.00 L 96.00 49.50 L 96.00 4.00 L 93.20 4.00 L 90.40 4.00 L 90.80 46.50 L 91.20 89.00 L 71.35 89.18 C 60.43 89.29 50.60 89.47 49.50 89.59 C 48.40 89.71 37.71 89.85 25.75 89.90 L 4.00 90.00 L 4.00 93.16 L 4.00 96.31 L 19.16 95.66 C 27.50 95.30 48.20 95.00 65.16 95.00 Z M 75.24 79.35 C 81.11 76.38 81.17 75.97 80.95 42.81 C 80.85 26.14 80.53 10.59 80.24 8.25 C 79.78 4.47 79.44 4.00 77.11 4.00 L 74.50 4.00 L 74.78 38.45 C 75.03 70.59 74.93 72.97 73.28 73.84 C 72.30 74.35 61.04 75.10 48.25 75.50 C 27.64 76.15 24.72 76.05 22.52 74.60 L 20.03 72.97 L 19.76 38.74 L 19.50 4.50 L 16.75 4.18 L 14.00 3.87 L 14.00 38.71 C 14.00 74.52 13.95 74.00 17.59 78.84 C 17.74 79.03 19.56 79.77 21.66 80.49 C 26.98 82.32 71.23 81.38 75.24 79.35 Z" fill="none" stroke="rgba(255,255,255,0.92)" stroke-width="1.2" stroke-linejoin="round" fill-rule="evenodd"/>
</svg>
