<svg xmlns="http://www.w3.org/2000/svg" viewBox="0 0 100 100" width="100" height="100">
  <path d="M 0.00 50.00 L 0.00 0.00 L 50.00 0.00 L 100.00 0.00 L 100.00 50.00 L 100.00 100.00 L 50.00 100.00 L 0.00 100.00 L 0.00 50.00 Z M 25.82 92.84 C 25.52 90.80 25.02 90.69 17.15 90.91 C 10.44 91.09 8.43 90.80 6.90 89.41 C 5.29 87.95 5.00 87.92 5.00 89.21 C 5.00 90.04 6.69 91.42 8.75 92.26 L 12.50 93.78 L 8.75 93.73 C 6.68 93.70 4.69 93.97 4.33 94.34 C 3.96 94.70 8.72 95.00 14.90 95.00 C 25.85 95.00 26.13 94.94 25.82 92.84 Z M 31.70 94.30 C 30.25 93.93 30.13 93.55 31.09 92.39 C 32.63 90.54 31.98 89.93 29.21 90.66 C 25.12 91.72 26.87 94.89 31.50 94.81 C 33.23 94.77 33.26 94.71 31.70 94.30 Z M 38.40 93.75 C 36.54 90.48 35.75 89.96 34.38 91.10 C 33.63 91.72 33.30 92.67 33.64 93.22 C 34.01 93.83 34.63 93.69 35.22 92.86 C 35.96 91.82 36.05 91.92 35.63 93.25 C 35.22 94.53 35.61 95.00 37.09 95.00 C 38.43 95.00 38.87 94.57 38.40 93.75 Z M 45.80 93.80 C 46.73 92.87 47.00 92.87 47.00 93.80 C 47.00 94.65 49.90 95.00 57.04 95.00 C 66.92 95.00 67.05 94.97 65.95 92.90 C 65.11 91.34 64.15 90.93 62.23 91.30 C 60.80 91.57 58.63 91.33 57.40 90.77 C 56.00 90.14 51.84 90.03 46.38 90.48 C 38.52 91.14 37.84 91.35 39.95 92.47 C 41.67 93.40 41.93 93.88 40.90 94.29 C 40.12 94.59 40.64 94.88 42.05 94.92 C 43.45 94.96 45.14 94.46 45.80 93.80 Z M 74.40 94.04 C 76.11 93.39 77.14 93.42 77.59 94.14 C 78.03 94.87 78.51 94.79 79.06 93.90 C 79.50 93.18 79.65 92.24 79.38 91.80 C 78.50 90.39 73.24 90.94 72.64 92.50 C 72.32 93.33 71.61 94.00 71.06 94.00 C 70.51 94.00 70.32 93.33 70.64 92.50 C 71.00 91.55 70.62 91.00 69.61 91.00 C 67.81 91.00 67.74 91.17 68.61 93.42 C 69.30 95.24 70.82 95.40 74.40 94.04 Z M 85.00 94.00 C 83.04 92.74 81.00 92.74 81.00 94.00 C 81.00 94.55 82.24 94.99 83.75 94.98 C 85.89 94.97 86.17 94.76 85.00 94.00 Z M 91.52 93.94 C 89.68 93.39 88.18 93.42 87.57 94.03 C 86.94 94.66 87.99 94.97 90.55 94.91 C 94.45 94.83 94.47 94.82 91.52 93.94 Z M 15.50 93.00 C 15.15 92.43 15.99 92.00 17.44 92.00 C 18.85 92.00 20.00 92.45 20.00 93.00 C 20.00 93.55 19.13 94.00 18.06 94.00 C 16.99 94.00 15.84 93.55 15.50 93.00 Z M 50.51 92.98 C 50.86 92.42 51.56 92.23 52.07 92.54 C 53.46 93.40 53.20 94.00 51.44 94.00 C 50.58 94.00 50.16 93.54 50.51 92.98 Z M 89.00 91.06 C 89.00 90.66 87.99 90.45 86.75 90.58 C 85.51 90.72 83.60 90.92 82.50 91.03 C 81.10 91.18 81.40 91.45 83.50 91.93 C 86.65 92.66 89.00 92.29 89.00 91.06 Z M 95.68 90.81 C 95.36 90.01 95.13 90.25 95.08 91.42 C 95.04 92.47 95.27 93.06 95.60 92.73 C 95.94 92.40 95.97 91.53 95.68 90.81 Z M 93.00 91.00 C 93.00 90.45 92.58 90.00 92.06 90.00 C 91.54 90.00 90.84 90.45 90.50 91.00 C 90.16 91.55 90.58 92.00 91.44 92.00 C 92.30 92.00 93.00 91.55 93.00 91.00 Z M 50.85 83.93 L 96.00 83.80 L 96.00 80.65 L 96.00 77.50 L 89.87 77.85 C 85.51 78.09 83.49 77.80 82.88 76.85 C 82.41 76.11 82.02 61.55 82.02 44.50 L 82.00 13.50 L 86.97 13.20 C 89.71 13.04 92.86 13.39 93.97 13.99 C 95.91 15.02 95.99 14.80 95.86 9.29 C 95.79 6.10 95.53 4.51 95.29 5.75 L 94.86 8.00 L 50.79 8.00 C 9.99 8.00 6.62 7.87 5.39 6.25 C 4.23 4.72 4.06 5.15 4.03 9.63 L 4.00 14.75 L 8.37 14.26 C 10.77 13.99 12.99 14.18 13.30 14.68 C 13.61 15.18 13.98 29.52 14.12 46.55 L 14.38 77.50 L 10.68 77.81 C 7.97 78.04 6.81 77.68 6.35 76.48 C 5.85 75.16 5.55 75.10 4.88 76.17 C 3.77 77.91 3.75 85.27 4.85 84.59 C 5.32 84.30 26.02 84.01 50.85 83.93 Z M 20.79 77.75 C 20.68 77.61 20.34 63.20 20.04 45.71 L 19.50 13.92 L 27.00 14.21 L 34.50 14.50 L 34.76 46.25 L 35.03 78.00 L 28.01 78.00 C 24.16 78.00 20.91 77.89 20.79 77.75 Z M 41.60 77.16 C 41.21 76.53 40.69 26.92 40.96 15.75 C 40.99 14.26 42.01 14.00 47.90 14.00 L 54.81 14.00 L 55.22 23.75 C 55.45 29.11 55.74 43.51 55.86 55.75 L 56.09 78.00 L 49.10 78.00 C 45.26 78.00 41.88 77.62 41.60 77.16 Z M 61.97 77.79 C 61.95 77.63 61.67 63.21 61.34 45.75 L 60.75 14.00 L 65.12 13.93 C 67.53 13.88 70.40 13.68 71.51 13.47 C 72.62 13.26 74.03 13.40 74.66 13.79 C 75.45 14.29 75.90 23.92 76.15 46.00 L 76.50 77.50 L 69.25 77.79 C 65.26 77.96 61.99 77.96 61.97 77.79 Z M 6.00 71.50 C 6.00 70.12 5.83 69.00 5.62 69.00 C 5.41 69.00 5.02 70.12 4.76 71.50 C 4.49 72.88 4.66 74.00 5.14 74.00 C 5.61 74.00 6.00 72.88 6.00 71.50 Z M 4.68 40.81 C 4.36 40.01 4.13 40.25 4.08 41.42 C 4.04 42.47 4.27 43.06 4.60 42.73 C 4.94 42.40 4.97 41.53 4.68 40.81 Z M 4.68 34.81 C 4.36 34.01 4.13 34.25 4.08 35.42 C 4.04 36.47 4.27 37.06 4.60 36.73 C 4.94 36.40 4.97 35.53 4.68 34.81 Z M 5.93 31.25 C 5.89 30.84 5.47 29.60 5.00 28.50 C 4.24 26.73 4.13 26.81 4.07 29.25 C 4.03 30.76 4.45 32.00 5.00 32.00 C 5.55 32.00 5.97 31.66 5.93 31.25 Z M 95.72 19.77 C 95.50 17.97 95.32 19.20 95.31 22.50 C 95.30 25.80 95.49 27.27 95.71 25.77 C 95.94 24.27 95.95 21.57 95.72 19.77 Z" fill="none" stroke="rgba(255,255,255,0.92)" stroke-width="1.2" stroke-linejoin="round" fill-rule="evenodd"/>
</svg>
