<svg xmlns="http://www.w3.org/2000/svg" viewBox="0 0 259 400" width="259" height="400">
  <path d="M 0.00 200.00 L 0.00 0.00 L 129.50 0.00 L 259.00 0.00 L 259.00 17.61 L 259.00 35.22 L 256.75 34.68 C 255.51 34.38 252.81 33.83 250.75 33.46 C 247.22 32.82 247.00 32.92 247.00 35.34 C 247.00 37.73 247.40 37.95 253.00 38.58 L 259.00 39.26 L 259.00 219.63 L 259.00 400.00 L 129.50 400.00 L 0.00 400.00 L 0.00 200.00 Z M 92.00 393.44 C 114.28 393.11 133.31 392.62 134.29 392.34 C 135.53 391.99 135.90 391.25 135.47 389.92 C 135.04 388.56 135.34 388.00 136.50 388.00 C 137.65 388.00 137.96 388.56 137.53 389.90 C 136.94 391.76 138.32 391.81 195.34 391.65 L 253.76 391.50 L 253.44 359.50 C 253.04 320.46 251.95 155.83 251.98 140.28 L 252.00 129.06 L 223.75 129.53 C 172.88 130.36 136.54 131.07 134.50 131.29 C 132.80 131.47 132.46 130.83 132.25 127.00 C 131.78 118.76 130.99 115.79 129.44 116.39 C 128.43 116.77 128.00 116.21 128.00 114.47 C 128.00 111.39 129.35 111.28 130.78 114.25 C 131.66 116.09 131.85 115.21 131.78 109.50 C 131.74 105.65 131.51 103.74 131.28 105.25 C 130.82 108.30 129.54 108.86 128.61 106.42 C 127.65 103.92 127.89 103.00 129.50 103.00 C 130.32 103.00 131.00 102.33 131.00 101.50 C 131.00 100.67 130.29 100.00 129.43 100.00 C 128.27 100.00 128.04 99.42 128.57 97.75 C 128.95 96.51 129.61 95.28 130.03 95.00 C 130.45 94.72 131.06 91.80 131.37 88.50 L 131.95 82.50 L 130.66 87.00 C 129.56 90.84 129.30 91.13 128.93 89.00 C 128.33 85.55 129.45 75.15 130.22 77.00 C 130.56 77.83 131.07 79.17 131.34 80.00 C 131.66 80.94 131.87 80.68 131.92 79.28 C 131.96 78.07 131.23 75.45 130.29 73.47 C 128.87 70.51 128.81 69.74 129.92 69.05 C 130.83 68.49 131.06 67.27 130.61 65.36 C 130.25 63.79 129.79 60.40 129.59 57.84 C 129.39 55.27 128.89 52.63 128.48 51.97 C 128.08 51.32 128.27 50.45 128.92 50.05 C 130.25 49.23 130.42 46.80 129.44 42.75 C 128.98 40.88 129.16 40.00 129.99 40.00 C 130.80 40.00 131.00 39.15 130.59 37.50 C 130.23 36.06 130.39 35.00 130.98 35.00 C 132.36 35.00 132.31 21.31 130.93 20.46 C 130.34 20.09 130.11 19.14 130.42 18.35 C 130.73 17.54 130.54 17.17 129.99 17.51 C 129.42 17.86 129.03 16.92 129.07 15.31 C 129.13 12.89 129.25 12.78 129.93 14.50 C 130.57 16.13 130.80 15.79 131.16 12.71 C 131.44 10.36 131.12 8.52 130.34 7.86 C 129.49 7.16 123.01 7.01 110.78 7.42 C 100.73 7.75 85.08 8.25 76.00 8.51 C 61.23 8.95 51.64 9.36 28.50 10.52 C 24.65 10.71 18.16 10.90 14.08 10.93 L 6.67 11.00 L 7.34 202.11 C 7.71 307.22 8.30 393.67 8.63 394.22 C 9.03 394.86 16.76 395.00 30.38 394.62 C 41.99 394.29 69.72 393.76 92.00 393.44 Z M 209.50 389.00 C 209.84 388.45 210.57 388.00 211.12 388.00 C 211.67 388.00 211.84 388.45 211.50 389.00 C 211.16 389.55 210.43 390.00 209.88 390.00 C 209.33 390.00 209.16 389.55 209.50 389.00 Z M 16.56 386.10 C 15.70 384.70 15.04 337.10 14.48 236.81 L 13.96 141.12 L 38.73 140.99 C 52.35 140.92 64.62 140.73 66.00 140.56 C 67.38 140.39 81.21 139.93 96.75 139.53 L 125.00 138.80 L 125.09 170.65 C 125.15 188.17 125.31 208.12 125.46 215.00 C 125.62 221.88 125.91 262.78 126.12 305.90 C 126.50 383.68 126.48 384.31 124.50 384.63 C 123.40 384.81 100.00 385.21 72.50 385.52 C 45.00 385.84 21.28 386.28 19.79 386.51 C 18.30 386.75 16.85 386.56 16.56 386.10 Z M 134.62 383.45 C 134.37 382.80 134.12 359.82 134.06 332.39 C 134.01 304.95 133.69 280.39 133.36 277.80 C 132.43 270.57 133.82 260.00 135.70 260.00 C 136.74 260.00 137.07 260.64 136.71 262.00 C 136.24 263.81 136.68 264.00 141.34 263.98 C 145.23 263.97 146.13 263.71 145.00 262.92 C 143.90 262.15 144.56 262.04 147.50 262.50 C 153.62 263.47 171.76 263.97 169.57 263.11 C 167.84 262.43 167.82 262.28 169.33 261.70 C 171.10 261.03 176.77 261.80 178.50 262.95 C 179.05 263.31 184.22 263.32 190.00 262.97 C 195.78 262.61 201.13 262.64 201.89 263.03 C 203.85 264.03 207.00 263.03 207.00 261.41 C 207.00 260.63 207.62 260.30 208.49 260.64 C 209.32 260.95 209.79 261.53 209.54 261.93 C 209.30 262.33 212.79 262.65 217.30 262.65 C 223.05 262.65 224.46 262.44 222.00 261.96 C 218.89 261.34 219.11 261.25 224.00 261.15 C 227.88 261.06 229.06 261.32 228.00 262.00 C 226.86 262.74 227.28 262.97 229.75 262.98 C 231.54 262.99 233.00 262.55 233.00 262.00 C 233.00 261.45 233.93 261.00 235.06 261.00 C 236.19 261.00 236.84 261.45 236.50 262.00 C 236.16 262.55 236.80 263.00 237.93 263.00 C 239.06 263.00 240.55 262.10 241.23 261.00 C 242.69 258.67 244.00 258.39 244.00 260.42 C 244.00 261.20 244.43 261.98 244.95 262.17 C 245.89 262.50 246.88 382.45 245.95 383.38 C 245.70 383.63 220.65 384.01 190.28 384.23 C 148.61 384.53 134.96 384.33 134.62 383.45 Z M 249.08 375.42 C 249.13 374.25 249.36 374.01 249.68 374.81 C 249.97 375.53 249.94 376.40 249.60 376.73 C 249.27 377.06 249.04 376.47 249.08 375.42 Z M 104.59 372.02 C 106.84 371.05 109.77 368.73 111.09 366.88 C 113.45 363.57 113.50 363.10 113.41 343.50 C 113.35 332.50 113.24 305.00 113.16 282.40 C 113.00 241.54 112.99 241.28 110.75 237.95 C 109.51 236.11 106.92 233.69 105.00 232.57 C 101.16 230.33 99.76 230.30 57.50 231.55 C 38.00 232.13 37.40 232.21 33.65 234.78 C 31.53 236.23 29.34 238.56 28.79 239.96 C 27.54 243.11 27.70 357.76 28.96 363.32 C 29.43 365.43 30.65 368.13 31.65 369.32 C 32.66 370.52 33.56 371.65 33.66 371.84 C 33.77 372.03 35.57 372.82 37.68 373.60 C 43.65 375.81 98.84 374.51 104.59 372.02 Z M 40.47 366.09 C 35.94 364.17 36.01 365.11 35.36 303.39 C 34.74 245.10 34.76 244.47 36.78 242.00 L 38.82 239.50 L 69.68 239.16 C 99.36 238.82 100.64 238.89 103.02 240.82 L 105.50 242.82 L 105.85 301.94 C 106.10 344.47 105.88 361.44 105.08 362.40 C 104.46 363.15 102.06 364.23 99.73 364.83 C 94.44 366.17 43.23 367.26 40.47 366.09 Z M 249.08 329.42 C 249.13 328.25 249.36 328.01 249.68 328.81 C 249.97 329.53 249.94 330.40 249.60 330.73 C 249.27 331.06 249.04 330.47 249.08 329.42 Z M 249.19 323.50 C 249.22 321.85 249.44 321.30 249.69 322.27 C 249.95 323.24 249.93 324.59 249.66 325.27 C 249.38 325.95 249.17 325.15 249.19 323.50 Z M 249.00 318.00 C 249.00 317.45 249.45 317.00 250.00 317.00 C 250.55 317.00 251.00 317.45 251.00 318.00 C 251.00 318.55 250.55 319.00 250.00 319.00 C 249.45 319.00 249.00 318.55 249.00 318.00 Z M 249.08 310.42 C 249.13 309.25 249.36 309.01 249.68 309.81 C 249.97 310.53 249.94 311.40 249.60 311.73 C 249.27 312.06 249.04 311.47 249.08 310.42 Z M 249.08 304.42 C 249.13 303.25 249.36 303.01 249.68 303.81 C 249.97 304.53 249.94 305.40 249.60 305.73 C 249.27 306.06 249.04 305.47 249.08 304.42 Z M 249.60 296.40 C 249.24 295.47 249.18 294.49 249.45 294.21 C 249.73 293.94 250.24 294.47 250.60 295.40 C 250.96 296.33 251.02 297.31 250.75 297.59 C 250.47 297.86 249.96 297.33 249.60 296.40 Z M 248.50 287.01 C 248.17 286.46 248.35 285.22 248.92 284.26 C 249.79 282.75 249.94 282.89 249.97 285.25 C 250.00 288.13 249.54 288.68 248.50 287.01 Z M 138.50 262.00 C 138.16 261.45 138.33 261.00 138.88 261.00 C 139.43 261.00 140.16 261.45 140.50 262.00 C 140.84 262.55 140.67 263.00 140.12 263.00 C 139.57 263.00 138.84 262.55 138.50 262.00 Z M 143.81 260.32 C 144.53 260.03 145.40 260.06 145.73 260.40 C 146.06 260.73 145.47 260.96 144.42 260.92 C 143.25 260.87 143.01 260.64 143.81 260.32 Z M 133.46 256.94 C 132.85 255.94 132.80 133.86 133.42 133.25 C 133.71 132.95 134.57 133.23 135.32 133.85 C 136.07 134.47 136.88 134.79 137.11 134.56 C 137.99 133.68 203.00 133.02 203.00 133.89 C 203.00 134.39 204.12 134.72 205.50 134.64 C 206.87 134.56 208.00 134.10 208.00 133.61 C 208.00 133.12 210.47 132.98 213.50 133.29 C 216.62 133.61 219.00 133.45 219.00 132.93 C 219.00 132.42 219.90 132.00 221.00 132.00 C 222.10 132.00 223.00 132.45 223.00 133.00 C 223.00 133.55 223.48 134.00 224.06 134.00 C 224.64 134.00 224.87 133.59 224.56 133.10 C 224.24 132.58 228.47 132.26 234.49 132.35 C 243.98 132.49 244.92 132.67 244.42 134.25 C 244.05 135.43 244.40 136.00 245.50 136.00 C 246.75 136.00 246.96 136.53 246.39 138.25 C 245.98 139.49 245.69 166.49 245.76 198.25 L 245.88 256.00 L 226.19 256.02 C 209.06 256.03 185.11 256.42 144.69 257.35 C 138.74 257.49 133.69 257.30 133.46 256.94 Z M 248.00 253.00 C 248.00 252.45 248.45 252.00 249.00 252.00 C 249.55 252.00 250.00 252.45 250.00 253.00 C 250.00 253.55 249.55 254.00 249.00 254.00 C 248.45 254.00 248.00 253.55 248.00 253.00 Z M 248.12 227.55 C 248.04 222.96 248.34 220.94 248.99 221.59 C 249.62 222.22 249.66 224.75 249.11 228.54 L 248.24 234.50 L 248.12 227.55 Z M 89.00 219.12 C 100.87 218.45 102.95 218.06 106.20 215.93 C 108.24 214.59 110.38 212.45 110.97 211.16 C 112.46 207.90 112.40 165.45 110.90 161.15 C 110.20 159.14 108.24 156.92 105.83 155.39 L 101.90 152.91 L 69.84 153.49 C 38.33 154.06 37.71 154.11 33.21 156.50 C 30.33 158.04 28.46 159.78 28.15 161.22 C 27.89 162.47 27.63 173.90 27.59 186.60 C 27.49 212.28 27.72 213.38 33.97 217.62 C 37.35 219.93 38.06 220.00 56.48 219.94 C 66.94 219.91 81.58 219.54 89.00 219.12 Z M 248.00 208.06 C 248.00 201.84 248.43 196.85 249.00 196.50 C 249.64 196.10 250.00 199.99 250.00 207.44 C 250.00 214.48 249.61 219.00 249.00 219.00 C 248.39 219.00 248.00 214.69 248.00 208.06 Z M 37.19 209.51 C 34.79 206.46 34.84 207.04 34.76 181.19 C 34.73 170.83 35.11 164.49 35.79 163.81 C 37.06 162.54 62.05 161.11 84.30 161.05 C 106.28 160.98 105.00 159.41 105.00 186.43 L 105.00 206.95 L 102.37 208.68 C 99.20 210.76 100.13 210.68 66.44 211.57 L 39.37 212.29 L 37.19 209.51 Z M 249.08 193.42 C 249.13 192.25 249.36 192.01 249.68 192.81 C 249.97 193.53 249.94 194.40 249.60 194.73 C 249.27 195.06 249.04 194.47 249.08 193.42 Z M 248.03 186.55 C 248.01 184.40 248.30 183.90 249.10 184.70 C 249.89 185.49 249.90 186.33 249.13 187.65 C 248.19 189.27 248.06 189.14 248.03 186.55 Z M 196.73 134.40 C 196.40 134.06 195.53 134.03 194.81 134.32 C 194.01 134.64 194.25 134.87 195.42 134.92 C 196.47 134.96 197.06 134.73 196.73 134.40 Z M 14.00 132.43 C 14.00 131.02 13.57 129.94 11.16 125.26 C 9.65 122.36 9.69 120.27 11.25 119.75 C 12.21 119.42 12.23 118.99 11.34 117.91 C 10.64 117.07 10.04 111.58 9.84 104.25 C 9.53 93.00 9.95 89.97 11.38 93.25 C 11.68 93.94 11.68 93.31 11.38 91.86 C 11.08 90.41 11.32 88.92 11.92 88.55 C 13.24 87.73 13.35 86.00 12.07 86.00 C 11.56 86.00 10.96 86.79 10.73 87.75 C 10.50 88.71 10.24 72.85 10.16 52.50 L 10.01 15.50 L 12.71 14.25 C 14.19 13.56 16.01 13.00 16.76 13.00 C 17.58 13.00 17.82 13.49 17.37 14.25 C 16.83 15.15 17.08 15.13 18.26 14.17 C 19.16 13.44 21.83 12.92 24.20 13.01 C 26.56 13.11 28.73 13.08 29.00 12.95 C 29.62 12.66 35.41 12.41 59.50 11.62 C 69.95 11.27 85.70 10.70 94.50 10.33 C 116.99 9.40 122.89 9.49 124.16 10.76 C 125.34 11.94 126.11 129.81 124.94 130.53 C 124.17 131.01 71.00 132.79 38.75 133.41 C 17.50 133.83 14.00 133.69 14.00 132.43 Z M 73.54 122.60 C 73.86 120.89 73.98 116.58 73.81 113.00 C 73.50 106.52 73.49 106.50 70.36 106.19 C 67.27 105.89 67.20 105.98 66.81 110.69 C 66.59 113.34 66.60 117.83 66.82 120.68 C 67.22 125.64 67.36 125.86 70.10 125.78 C 72.49 125.71 73.06 125.18 73.54 122.60 Z M 129.22 122.45 C 129.10 120.96 129.43 120.15 130.01 120.50 C 131.18 121.23 131.36 125.00 130.22 125.00 C 129.79 125.00 129.34 123.85 129.22 122.45 Z M 44.25 109.36 C 46.31 106.81 48.00 104.11 48.00 103.36 C 48.00 102.61 48.67 102.00 49.50 102.00 C 51.48 102.00 51.41 100.11 49.35 97.83 C 47.04 95.28 45.34 95.54 43.29 98.75 C 42.32 100.26 41.03 101.95 40.42 102.50 C 39.81 103.05 38.29 104.99 37.05 106.80 C 34.88 109.97 34.86 110.19 36.55 112.05 C 39.09 114.87 40.07 114.53 44.25 109.36 Z M 106.37 107.37 L 108.24 104.80 L 102.40 98.90 C 99.19 95.66 96.00 93.00 95.30 93.00 C 94.61 93.00 93.26 94.20 92.31 95.66 L 90.57 98.31 L 96.92 104.16 C 100.41 107.37 103.55 109.99 103.89 109.97 C 104.22 109.95 105.34 108.78 106.37 107.37 Z M 12.93 96.69 C 12.87 94.00 12.72 93.81 12.00 95.50 C 10.80 98.29 10.80 101.24 12.00 100.50 C 12.55 100.16 12.97 98.45 12.93 96.69 Z M 81.69 95.16 C 95.87 87.91 98.26 66.26 86.18 54.52 C 81.76 50.23 77.39 48.68 69.34 48.58 C 63.73 48.51 62.67 48.85 57.39 52.50 C 53.11 55.45 50.83 57.94 48.70 62.00 C 46.06 67.02 45.85 68.19 46.22 75.50 C 46.69 84.65 49.09 89.54 55.48 94.42 C 63.12 100.24 71.30 100.47 81.69 95.16 Z M 63.02 89.88 C 59.27 88.39 57.13 86.08 54.96 81.19 C 51.60 73.59 52.98 67.15 59.39 60.46 C 63.18 56.50 64.15 56.00 68.09 56.00 C 74.69 56.00 78.70 57.49 81.76 61.09 C 87.45 67.79 88.28 74.10 84.35 80.91 C 81.13 86.50 81.46 86.09 79.84 86.43 C 77.62 86.88 73.43 88.87 74.50 88.95 C 75.05 89.00 74.83 89.47 74.00 90.00 C 72.09 91.23 66.24 91.17 63.02 89.88 Z M 39.58 76.75 C 39.88 75.79 39.85 74.10 39.50 73.00 C 38.93 71.20 37.99 71.00 29.93 71.00 C 25.02 71.00 21.00 71.39 21.00 71.88 C 21.00 72.36 21.26 74.04 21.57 75.62 L 22.15 78.50 L 30.59 78.50 C 37.74 78.50 39.11 78.23 39.58 76.75 Z M 112.75 75.63 L 119.00 75.70 L 119.00 72.43 C 119.00 70.64 118.56 69.02 118.02 68.83 C 117.49 68.65 113.44 68.65 109.02 68.83 L 101.00 69.15 L 101.00 72.41 C 101.00 76.40 101.74 77.24 104.43 76.29 C 105.57 75.89 109.31 75.59 112.75 75.63 Z M 159.00 70.04 C 159.00 69.15 162.07 67.84 165.00 67.48 C 171.97 66.64 176.66 65.49 177.82 64.32 C 179.44 62.71 182.88 63.49 184.71 65.90 C 186.91 68.78 186.25 63.92 183.93 60.12 C 182.53 57.82 182.19 56.41 182.89 55.71 C 184.21 54.39 182.47 51.00 180.48 51.00 C 179.68 51.00 177.83 49.19 176.36 46.97 C 174.89 44.75 173.35 43.06 172.92 43.22 C 171.95 43.58 156.16 64.32 153.22 69.12 C 150.06 74.27 150.44 75.09 155.00 72.89 C 157.20 71.82 159.00 70.54 159.00 70.04 Z M 46.45 54.09 C 46.76 53.58 46.45 52.92 45.76 52.61 C 45.07 52.31 45.38 52.16 46.46 52.28 C 47.55 52.40 48.55 51.83 48.70 51.00 C 48.98 49.43 47.10 47.13 40.22 40.60 L 36.11 36.70 L 34.38 40.34 L 32.64 43.97 L 38.57 49.44 C 44.76 55.15 45.52 55.59 46.45 54.09 Z M 94.77 48.59 C 95.38 47.27 97.14 45.43 98.69 44.51 C 100.23 43.59 102.32 41.72 103.33 40.37 C 105.03 38.08 105.05 37.73 103.56 35.45 C 101.63 32.50 99.44 32.30 98.03 34.95 C 97.46 36.02 95.19 38.97 92.99 41.51 C 88.52 46.67 88.24 47.70 90.75 49.61 C 93.16 51.44 93.52 51.35 94.77 48.59 Z M 194.50 49.00 C 196.15 47.91 198.29 47.01 199.25 47.01 C 201.17 47.00 201.71 43.55 199.95 42.47 C 198.84 41.78 190.55 45.30 189.58 46.88 C 188.92 47.94 189.87 51.00 190.86 50.99 C 191.21 50.99 192.85 50.09 194.50 49.00 Z M 216.65 40.92 C 221.89 38.99 220.32 35.47 214.68 36.53 C 209.95 37.42 207.51 39.28 208.32 41.38 C 208.96 43.07 211.14 42.94 216.65 40.92 Z M 72.80 40.80 C 73.54 40.06 74.00 36.42 74.00 31.30 C 74.00 24.07 73.78 23.00 72.25 22.99 C 71.29 22.98 69.54 22.72 68.37 22.40 C 66.29 21.84 66.25 22.04 66.69 30.66 C 66.93 35.52 67.32 40.06 67.54 40.75 C 68.05 42.34 71.23 42.37 72.80 40.80 Z M 235.31 37.66 C 238.78 38.23 239.00 38.10 239.00 35.63 C 239.00 32.75 237.84 32.47 230.75 33.64 C 228.05 34.09 227.00 34.76 227.00 36.05 C 227.00 38.09 228.99 39.13 230.56 37.90 C 231.15 37.44 233.29 37.33 235.31 37.66 Z M 254.81 37.32 C 255.53 37.03 256.40 37.06 256.73 37.40 C 257.06 37.73 256.47 37.96 255.42 37.92 C 254.25 37.87 254.01 37.64 254.81 37.32 Z M 128.00 31.06 C 128.00 29.44 128.45 27.84 129.00 27.50 C 129.55 27.16 130.00 25.93 130.00 24.77 C 130.00 23.62 130.25 22.91 130.55 23.22 C 131.40 24.07 129.85 34.00 128.87 34.00 C 128.39 34.00 128.00 32.68 128.00 31.06 Z" fill="none" stroke="rgba(255,255,255,0.92)" stroke-width="1.5" stroke-linejoin="round" fill-rule="evenodd"/>
</svg>
