<svg xmlns="http://www.w3.org/2000/svg" viewBox="0 0 100 100" width="100" height="100">
  <path d="M 0.00 50.00 L 0.00 0.00 L 50.00 0.00 L 100.00 0.00 L 100.00 50.00 L 100.00 100.00 L 50.00 100.00 L 0.00 100.00 L 0.00 50.00 Z M 9.98 84.75 C 9.96 78.56 10.20 57.86 10.50 38.75 L 11.05 4.00 L 8.67 4.00 C 6.43 4.00 6.26 4.44 5.65 11.65 C 5.29 15.86 5.00 36.56 5.00 57.65 L 5.00 96.00 L 7.50 96.00 L 10.00 96.00 L 9.98 84.75 Z M 96.00 50.00 L 96.00 4.00 L 93.50 4.00 L 91.00 4.00 L 91.00 50.00 L 91.00 96.00 L 93.50 96.00 L 96.00 96.00 L 96.00 50.00 Z M 75.38 89.04 C 76.76 88.52 78.68 86.90 79.63 85.44 C 81.20 83.05 81.39 79.03 81.55 45.22 C 81.64 24.56 81.51 6.83 81.24 5.83 C 80.95 4.70 79.85 4.00 78.38 4.00 L 76.00 4.00 L 76.00 42.43 C 76.00 76.10 75.80 81.05 74.42 82.44 C 73.04 83.82 70.13 83.94 51.17 83.39 C 34.89 82.92 28.93 82.41 27.19 81.32 L 24.88 79.88 L 25.00 43.19 C 25.07 23.01 25.10 5.94 25.06 5.25 C 25.03 4.56 23.88 4.00 22.50 4.00 L 20.00 4.00 L 19.87 32.75 C 19.63 87.61 19.29 81.75 22.89 85.35 L 26.03 88.50 L 39.77 89.07 C 63.34 90.04 72.78 90.03 75.38 89.04 Z" fill="none" stroke="rgba(255,255,255,0.92)" stroke-width="1.2" stroke-linejoin="round" fill-rule="evenodd"/>
</svg>
