<svg xmlns="http://www.w3.org/2000/svg" viewBox="0 0 100 100" width="100" height="100">
  <path d="M 0.00 50.00 L 0.00 0.00 L 50.00 0.00 L 100.00 0.00 L 100.00 50.00 L 100.00 100.00 L 50.00 100.00 L 0.00 100.00 L 0.00 50.00 Z M 83.25 95.00 L 96.00 95.00 L 96.00 91.39 L 96.00 87.77 L 91.75 88.34 C 89.41 88.66 70.51 89.22 49.75 89.59 L 12.00 90.27 L 12.00 47.14 L 12.00 4.00 L 9.00 4.00 L 6.00 4.00 L 6.00 50.16 L 6.00 96.32 L 38.25 95.66 C 55.99 95.30 76.24 95.00 83.25 95.00 Z M 81.73 78.64 C 88.02 75.39 88.36 73.48 87.65 46.02 C 87.30 32.54 87.01 17.56 87.01 12.75 C 87.00 4.09 86.98 4.00 84.50 4.00 L 82.00 4.00 L 82.00 37.48 L 82.00 70.95 L 79.70 72.46 C 76.44 74.59 35.62 75.92 31.08 74.03 C 27.67 72.62 28.04 74.92 27.52 52.00 C 27.44 48.42 27.29 36.16 27.19 24.75 L 27.00 4.00 L 23.91 4.00 L 20.82 4.00 L 21.47 38.75 C 22.19 76.52 22.20 76.60 28.10 79.81 C 31.93 81.89 77.36 80.91 81.73 78.64 Z" fill="none" stroke="rgba(255,255,255,0.92)" stroke-width="1.2" stroke-linejoin="round" fill-rule="evenodd"/>
</svg>
