<svg xmlns="http://www.w3.org/2000/svg" viewBox="0 0 100 100" width="100" height="100">
  <path d="M 0.00 50.00 L 0.00 0.00 L 50.00 0.00 L 100.00 0.00 L 100.00 50.00 L 100.00 100.00 L 50.00 100.00 L 0.00 100.00 L 0.00 50.00 Z M 11.02 92.25 C 11.03 90.19 11.02 69.94 11.00 47.25 L 10.96 6.00 L 17.73 5.99 C 32.10 5.98 84.52 4.71 84.92 4.36 C 85.15 4.16 67.19 4.00 45.01 4.00 L 4.68 4.00 L 5.32 49.75 C 5.67 74.91 5.97 95.61 5.98 95.75 C 5.99 95.89 7.12 96.00 8.50 96.00 C 10.72 96.00 11.00 95.58 11.02 92.25 Z M 27.00 89.69 C 27.00 79.16 26.00 79.56 53.29 79.15 C 69.55 78.90 77.40 79.14 78.87 79.93 C 80.75 80.94 81.00 81.94 81.00 88.54 L 81.00 96.00 L 84.00 96.00 L 87.00 96.00 L 87.00 88.08 C 87.00 81.03 86.72 79.82 84.44 77.11 C 82.89 75.26 80.51 73.81 78.39 73.41 C 76.47 73.05 64.30 73.09 51.34 73.49 L 27.77 74.23 L 24.65 77.02 C 21.72 79.64 21.50 80.31 21.16 87.91 L 20.79 96.00 L 23.89 96.00 L 27.00 96.00 L 27.00 89.69 Z M 81.23 62.30 C 86.69 59.11 87.09 57.37 86.78 38.17 L 86.50 20.83 L 83.23 17.92 L 79.97 15.00 L 55.34 15.00 C 32.19 15.00 30.46 15.13 26.44 17.14 C 24.05 18.33 21.91 20.21 21.59 21.39 C 21.28 22.55 21.02 31.05 21.01 40.29 C 20.99 65.92 20.10 65.25 53.73 64.64 C 75.28 64.25 78.32 63.99 81.23 62.30 Z M 28.72 57.27 C 27.15 55.51 26.98 53.43 27.22 38.99 C 27.48 23.60 27.61 22.67 29.50 22.30 C 30.60 22.08 41.87 21.64 54.55 21.32 C 75.40 20.79 77.76 20.90 79.30 22.44 C 80.75 23.90 81.00 26.37 81.00 39.55 C 81.00 54.43 80.92 55.00 78.75 56.41 C 77.04 57.51 70.97 58.03 53.50 58.55 C 31.36 59.23 30.43 59.18 28.72 57.27 Z" fill="none" stroke="rgba(255,255,255,0.92)" stroke-width="1.2" stroke-linejoin="round" fill-rule="evenodd"/>
</svg>
