<svg xmlns="http://www.w3.org/2000/svg" viewBox="0 0 100 100" width="100" height="100">
  <path d="M 0.00 50.00 L 0.00 0.00 L 50.00 0.00 L 100.00 0.00 L 100.00 50.00 L 100.00 100.00 L 50.00 100.00 L 0.00 100.00 L 0.00 50.00 Z M 8.45 89.75 C 7.27 72.46 7.22 69.02 8.20 69.62 C 8.86 70.03 8.96 69.09 8.49 66.94 C 8.09 65.12 7.79 57.75 7.83 50.57 C 8.04 10.19 8.00 11.13 9.80 10.61 C 12.46 9.85 31.11 9.05 89.25 7.21 C 92.96 7.10 96.00 6.56 96.00 6.03 C 96.00 5.46 93.24 5.23 89.25 5.48 C 85.54 5.71 72.15 6.19 59.50 6.55 C 46.85 6.90 33.58 7.35 30.00 7.55 C 26.42 7.74 19.56 7.97 14.75 8.06 C 6.57 8.22 5.99 8.37 5.91 10.37 C 5.86 11.54 5.64 31.29 5.42 54.25 C 5.03 94.96 5.07 96.00 6.95 96.00 C 8.69 96.00 8.84 95.40 8.45 89.75 Z M 57.00 87.12 C 57.00 80.59 56.87 80.21 54.52 79.76 C 51.26 79.14 51.00 79.52 51.01 84.92 C 51.03 91.90 51.87 94.00 54.62 94.00 C 56.90 94.00 57.00 93.70 57.00 87.12 Z M 37.00 77.26 C 37.00 76.57 37.77 76.00 38.72 76.00 C 40.20 76.00 40.13 75.69 38.22 73.78 L 36.00 71.55 L 32.94 74.91 C 31.25 76.75 29.14 79.38 28.24 80.75 C 26.71 83.09 26.73 83.33 28.54 84.66 C 30.30 85.94 30.77 85.73 33.74 82.30 C 35.53 80.22 37.00 77.95 37.00 77.26 Z M 82.42 79.70 C 83.28 78.33 82.58 77.22 78.49 73.56 L 73.50 69.10 L 71.64 71.29 C 69.80 73.47 69.82 73.51 74.53 77.78 C 79.46 82.24 80.63 82.53 82.42 79.70 Z M 9.66 71.75 C 9.38 71.06 9.16 71.62 9.16 73.00 C 9.16 74.38 9.38 74.94 9.66 74.25 C 9.94 73.56 9.94 72.44 9.66 71.75 Z M 62.50 71.48 C 67.63 68.57 69.86 66.06 71.55 61.32 C 73.47 55.95 73.31 51.53 71.06 47.12 C 64.91 35.05 50.79 32.62 41.16 41.96 C 30.53 52.28 34.88 69.89 49.04 73.79 C 53.49 75.01 57.50 74.33 62.50 71.48 Z M 46.86 66.31 C 43.76 64.39 40.98 59.08 41.04 55.22 C 41.10 51.60 43.85 46.67 47.32 43.95 C 49.71 42.08 50.94 41.83 55.24 42.34 C 61.80 43.12 65.67 46.59 66.55 52.51 C 67.42 58.32 64.29 64.56 60.02 65.50 C 58.36 65.86 57.00 66.57 57.00 67.08 C 57.00 68.62 49.68 68.06 46.86 66.31 Z M 30.50 56.00 C 30.50 53.57 30.29 53.50 23.25 53.43 C 19.26 53.39 16.01 53.61 16.01 53.93 C 16.02 54.24 16.29 55.47 16.60 56.65 C 17.13 58.60 17.80 58.79 23.84 58.65 C 30.23 58.50 30.50 58.39 30.50 56.00 Z M 88.81 56.58 C 91.83 56.75 92.08 56.55 91.81 54.14 C 91.64 52.69 90.94 51.55 90.25 51.60 C 89.56 51.66 86.53 51.77 83.50 51.85 C 78.45 51.99 78.00 52.19 78.00 54.33 C 78.00 57.51 78.58 57.88 82.30 57.07 C 84.06 56.69 86.99 56.47 88.81 56.58 Z M 35.50 40.00 C 35.16 39.45 35.58 39.00 36.44 39.00 C 37.30 39.00 38.00 38.62 38.00 38.15 C 38.00 37.19 28.90 28.00 27.94 28.00 C 27.60 28.00 26.82 29.11 26.20 30.46 C 25.18 32.71 25.48 33.26 29.79 36.95 C 34.27 40.79 36.84 42.16 35.50 40.00 Z M 74.06 35.75 C 75.09 34.51 75.96 32.83 75.98 32.00 C 76.02 30.85 76.22 30.80 76.84 31.77 C 77.96 33.55 81.46 29.63 80.64 27.51 C 79.46 24.43 77.14 24.78 73.80 28.54 C 69.50 33.40 68.72 34.82 69.38 36.56 C 70.18 38.63 71.90 38.33 74.06 35.75 Z M 57.00 24.00 L 57.00 17.00 L 54.00 17.00 C 51.28 17.00 51.00 17.30 51.01 20.25 C 51.02 22.04 51.30 25.19 51.64 27.25 C 52.15 30.35 52.67 31.00 54.63 31.00 C 56.90 31.00 57.00 30.70 57.00 24.00 Z" fill="none" stroke="rgba(255,255,255,0.92)" stroke-width="1.2" stroke-linejoin="round" fill-rule="evenodd"/>
</svg>
