<svg xmlns="http://www.w3.org/2000/svg" viewBox="0 0 100 100" width="100" height="100">
  <path d="M 0.00 50.00 L 0.00 0.00 L 50.00 0.00 L 100.00 0.00 L 100.00 50.00 L 100.00 100.00 L 50.00 100.00 L 0.00 100.00 L 0.00 50.00 Z M 55.52 93.93 C 55.88 92.79 55.91 90.76 55.57 89.43 L 54.96 87.00 L 73.98 87.00 C 92.33 87.00 93.00 87.07 93.00 89.00 C 93.00 90.10 92.55 91.00 92.00 91.00 C 91.45 91.00 91.00 90.33 91.00 89.50 C 91.00 88.67 90.55 88.00 90.00 88.00 C 89.45 88.00 89.00 89.73 89.00 91.85 C 89.00 95.44 89.20 95.70 92.00 95.78 L 95.01 95.87 L 94.43 51.68 C 94.12 27.38 93.68 6.94 93.46 6.25 C 93.15 5.27 83.28 5.00 48.53 5.00 L 4.00 5.00 L 4.00 7.94 L 4.00 10.89 L 45.69 10.97 C 68.62 11.01 87.46 11.15 87.57 11.27 C 87.67 11.40 87.98 27.14 88.25 46.25 L 88.75 81.00 L 46.38 81.00 L 4.00 81.00 L 4.00 83.47 L 4.00 85.95 L 18.75 86.22 L 33.50 86.50 L 33.17 90.23 C 33.00 92.27 33.14 94.41 33.48 94.98 C 33.85 95.57 38.49 96.00 44.49 96.00 C 54.11 96.00 54.91 95.85 55.52 93.93 Z" fill="none" stroke="rgba(255,255,255,0.92)" stroke-width="1.2" stroke-linejoin="round" fill-rule="evenodd"/>
</svg>
