<svg xmlns="http://www.w3.org/2000/svg" viewBox="0 0 400 285" width="400" height="285">
  <path d="M 0.00 142.50 L 0.00 0.00 L 200.00 0.00 L 400.00 0.00 L 400.00 142.50 L 400.00 285.00 L 200.00 285.00 L 0.00 285.00 L 0.00 142.50 Z M 393.36 203.25 C 393.17 161.04 392.73 99.87 392.39 67.33 L 391.76 8.16 L 383.27 7.45 C 367.71 6.16 141.61 7.71 103.50 9.37 C 84.25 10.21 55.23 11.41 39.00 12.02 C 22.77 12.64 8.88 13.34 8.13 13.58 C 6.98 13.96 6.87 21.96 7.42 62.76 C 8.22 121.84 8.77 164.91 9.56 228.99 C 9.97 262.65 10.49 277.68 11.25 278.16 C 11.86 278.53 87.09 278.71 178.43 278.56 C 315.60 278.32 389.31 278.76 393.11 279.83 C 393.44 279.92 393.56 245.46 393.36 203.25 Z M 147.00 275.62 C 147.00 275.41 147.68 274.68 148.50 274.00 C 149.73 272.98 150.00 273.05 150.00 274.38 C 150.00 275.27 149.32 276.00 148.50 276.00 C 147.68 276.00 147.00 275.83 147.00 275.62 Z M 178.81 275.32 C 179.53 275.03 180.40 275.06 180.73 275.40 C 181.06 275.73 180.47 275.96 179.42 275.92 C 178.25 275.87 178.01 275.64 178.81 275.32 Z M 195.00 274.50 C 195.00 273.68 195.66 273.00 196.47 273.00 C 197.36 273.00 197.71 273.59 197.36 274.50 C 197.05 275.32 196.38 276.00 195.89 276.00 C 195.40 276.00 195.00 275.32 195.00 274.50 Z M 220.81 275.32 C 221.53 275.03 222.40 275.06 222.73 275.40 C 223.06 275.73 222.47 275.96 221.42 275.92 C 220.25 275.87 220.01 275.64 220.81 275.32 Z M 53.75 271.24 L 17.00 270.98 L 16.97 264.24 C 16.90 247.71 15.90 171.42 15.62 161.36 L 15.31 150.23 L 19.80 149.61 C 22.26 149.28 33.58 149.00 44.94 149.00 C 56.30 149.00 66.03 148.66 66.55 148.25 C 67.07 147.84 82.21 147.62 100.19 147.78 C 130.12 148.03 132.93 148.20 133.42 149.78 C 133.86 151.21 135.32 256.94 135.02 266.48 C 134.97 268.12 134.60 269.80 134.20 270.20 C 133.25 271.15 100.41 271.57 53.75 271.24 Z M 371.78 271.45 C 371.48 271.15 348.34 270.91 320.37 270.92 C 292.39 270.93 269.05 270.62 268.50 270.22 C 267.52 269.52 267.31 257.84 266.96 182.57 C 266.88 165.00 266.46 149.70 266.03 148.57 L 265.24 146.50 L 308.87 146.67 C 348.79 146.82 384.94 147.60 385.67 148.34 C 386.26 148.92 386.06 270.09 385.48 271.03 C 384.86 272.04 372.74 272.41 371.78 271.45 Z M 142.56 269.18 C 141.55 266.01 140.60 149.06 141.58 148.09 C 142.13 147.54 156.63 147.13 178.25 147.05 C 187.38 147.02 193.00 146.62 193.00 146.00 C 193.00 145.45 191.70 145.00 190.11 145.00 C 188.52 145.00 186.97 144.36 186.67 143.58 C 185.91 141.61 188.59 140.80 190.05 142.56 C 190.71 143.35 191.67 144.00 192.19 144.00 C 192.72 144.00 193.77 144.63 194.54 145.39 C 195.67 146.53 201.70 146.76 227.46 146.64 L 259.00 146.50 L 259.05 149.00 C 259.19 155.36 260.09 224.10 260.33 246.25 L 260.59 271.00 L 201.86 271.00 C 146.00 271.00 143.11 270.91 142.56 269.18 Z M 390.08 224.42 C 390.13 223.25 390.36 223.01 390.68 223.81 C 390.97 224.53 390.94 225.40 390.60 225.73 C 390.27 226.06 390.04 225.47 390.08 224.42 Z M 136.67 169.33 C 136.30 168.97 136.01 167.95 136.03 167.08 C 136.06 165.78 136.25 165.83 137.12 167.33 C 138.20 169.18 137.89 170.55 136.67 169.33 Z M 137.08 149.42 C 137.13 148.25 137.36 148.01 137.68 148.81 C 137.97 149.53 137.94 150.40 137.60 150.73 C 137.27 151.06 137.04 150.47 137.08 149.42 Z M 262.00 150.12 C 262.00 149.57 262.45 148.84 263.00 148.50 C 263.55 148.16 264.00 148.33 264.00 148.88 C 264.00 149.43 263.55 150.16 263.00 150.50 C 262.45 150.84 262.00 150.67 262.00 150.12 Z M 135.50 147.00 C 135.16 146.45 135.36 146.00 135.94 146.00 C 136.52 146.00 137.00 146.45 137.00 147.00 C 137.00 147.55 136.80 148.00 136.56 148.00 C 136.32 148.00 135.84 147.55 135.50 147.00 Z M 59.00 144.94 C 59.00 144.36 59.45 144.16 60.00 144.50 C 60.55 144.84 61.00 145.32 61.00 145.56 C 61.00 145.80 60.55 146.00 60.00 146.00 C 59.45 146.00 59.00 145.52 59.00 144.94 Z M 62.46 144.93 C 61.29 143.04 63.00 142.57 64.74 144.31 C 66.30 145.87 66.30 146.00 64.77 146.00 C 63.86 146.00 62.82 145.52 62.46 144.93 Z M 85.45 144.06 C 86.90 142.46 87.54 142.32 89.10 143.30 C 91.98 145.09 91.39 146.00 87.35 146.00 C 83.79 146.00 83.74 145.95 85.45 144.06 Z M 118.00 145.00 C 116.79 144.22 116.95 144.03 118.81 144.02 C 120.10 144.01 120.84 144.44 120.50 145.00 C 119.76 146.20 119.86 146.20 118.00 145.00 Z M 92.00 144.00 C 90.72 143.17 90.75 143.03 92.25 143.02 C 93.21 143.01 94.00 143.45 94.00 144.00 C 94.00 145.22 93.89 145.22 92.00 144.00 Z M 125.27 144.31 C 126.24 144.05 127.59 144.07 128.27 144.34 C 128.95 144.62 128.15 144.83 126.50 144.81 C 124.85 144.78 124.30 144.56 125.27 144.31 Z M 132.00 144.00 C 132.00 143.45 132.45 143.00 133.00 143.00 C 133.55 143.00 134.00 143.45 134.00 144.00 C 134.00 144.55 133.55 145.00 133.00 145.00 C 132.45 145.00 132.00 144.55 132.00 144.00 Z M 145.81 144.32 C 146.53 144.03 147.40 144.06 147.73 144.40 C 148.06 144.73 147.47 144.96 146.42 144.92 C 145.25 144.87 145.01 144.64 145.81 144.32 Z M 152.81 144.32 C 153.53 144.03 154.40 144.06 154.73 144.40 C 155.06 144.73 154.47 144.96 153.42 144.92 C 152.25 144.87 152.01 144.64 152.81 144.32 Z M 160.27 144.31 C 161.24 144.05 162.59 144.07 163.27 144.34 C 163.95 144.62 163.15 144.83 161.50 144.81 C 159.85 144.78 159.30 144.56 160.27 144.31 Z M 214.00 144.62 C 214.00 144.41 214.68 143.68 215.50 143.00 C 216.73 141.98 217.00 142.05 217.00 143.38 C 217.00 144.27 216.32 145.00 215.50 145.00 C 214.68 145.00 214.00 144.83 214.00 144.62 Z M 242.81 144.32 C 243.53 144.03 244.40 144.06 244.73 144.40 C 245.06 144.73 244.47 144.96 243.42 144.92 C 242.25 144.87 242.01 144.64 242.81 144.32 Z M 314.75 144.31 C 313.79 144.06 313.00 142.97 313.00 141.90 C 313.00 140.01 313.11 140.02 316.00 142.16 C 317.65 143.38 319.00 144.52 319.00 144.69 C 319.00 145.08 317.03 144.91 314.75 144.31 Z M 333.95 144.05 C 334.75 143.55 335.72 143.32 336.10 143.56 C 336.48 143.80 337.09 143.20 337.47 142.24 C 338.10 140.62 338.23 140.61 339.38 142.18 C 340.23 143.33 341.07 143.57 342.06 142.94 C 344.01 141.71 347.27 141.75 346.50 143.00 C 346.16 143.55 346.55 144.00 347.36 144.00 C 348.17 144.00 349.06 143.44 349.34 142.75 C 349.74 141.76 350.04 141.77 350.75 142.78 C 351.25 143.49 352.37 143.80 353.23 143.47 C 354.09 143.13 355.09 143.34 355.46 143.93 C 355.91 144.67 352.43 145.00 344.31 144.98 C 336.74 144.97 333.02 144.64 333.95 144.05 Z M 359.75 144.34 C 360.44 144.06 361.56 144.06 362.25 144.34 C 362.94 144.62 362.38 144.84 361.00 144.84 C 359.62 144.84 359.06 144.62 359.75 144.34 Z M 209.08 143.72 C 209.31 143.56 210.29 142.83 211.25 142.09 C 212.75 140.95 213.00 140.99 213.00 142.38 C 213.00 143.37 212.17 144.00 210.83 144.00 C 209.64 144.00 208.85 143.87 209.08 143.72 Z M 308.50 143.00 C 308.16 142.45 308.61 142.00 309.50 142.00 C 310.39 142.00 310.84 142.45 310.50 143.00 C 310.16 143.55 309.71 144.00 309.50 144.00 C 309.29 144.00 308.84 143.55 308.50 143.00 Z M 170.75 142.34 C 171.44 142.06 172.56 142.06 173.25 142.34 C 173.94 142.62 173.38 142.84 172.00 142.84 C 170.62 142.84 170.06 142.62 170.75 142.34 Z M 15.08 139.32 C 15.58 133.02 15.00 129.00 13.58 129.00 C 12.80 129.00 11.94 129.56 11.66 130.25 C 11.38 130.94 11.12 130.56 11.08 129.40 C 11.01 127.45 11.68 127.26 20.75 126.66 C 26.11 126.30 37.17 126.01 45.33 126.01 L 60.16 126.00 L 59.51 128.93 C 58.94 131.56 59.65 135.76 61.40 140.00 C 61.94 141.30 58.93 141.54 38.44 141.82 L 14.85 142.15 L 15.08 139.32 Z M 88.49 138.77 C 89.90 134.43 90.18 129.21 89.12 127.23 C 88.08 125.29 88.48 125.23 105.28 124.65 C 114.75 124.32 136.65 123.93 153.95 123.77 L 185.40 123.50 L 185.13 128.67 C 184.96 131.89 185.45 134.97 186.43 136.87 C 188.51 140.88 188.46 140.99 185.17 140.05 C 183.62 139.60 173.27 139.45 162.18 139.71 L 142.02 140.18 L 140.95 137.36 C 140.36 135.81 139.96 132.95 140.08 131.02 C 140.19 129.08 140.22 126.94 140.14 126.25 C 139.91 124.21 138.01 124.83 137.03 127.25 L 136.13 129.50 L 136.06 127.17 C 136.03 125.76 135.50 125.00 134.75 125.25 C 133.90 125.54 133.52 127.94 133.57 132.84 L 133.64 140.00 L 125.57 140.09 C 121.13 140.14 110.81 140.37 102.63 140.61 L 87.76 141.04 L 88.49 138.77 Z M 213.54 139.00 C 213.99 137.62 214.45 133.57 214.57 130.00 L 214.79 123.50 L 237.51 123.23 C 258.00 122.99 260.17 123.12 259.61 124.56 C 259.28 125.44 259.00 129.05 259.00 132.58 L 259.00 139.00 L 237.20 139.00 C 221.14 139.00 215.05 139.33 214.06 140.25 C 212.96 141.28 212.87 141.06 213.54 139.00 Z M 339.58 138.50 C 340.09 136.85 340.48 132.63 340.45 129.13 L 340.40 122.76 L 346.35 123.38 C 349.62 123.72 360.78 124.00 371.15 124.00 L 390.00 124.00 L 389.91 129.25 C 389.84 133.76 389.71 134.10 388.98 131.67 C 388.51 130.11 388.37 128.19 388.67 127.42 C 389.02 126.49 388.53 126.00 387.27 126.00 C 385.51 126.00 385.33 126.70 385.41 133.09 L 385.50 140.17 L 367.00 140.06 C 356.82 140.01 347.03 139.69 345.24 139.36 C 343.17 138.99 341.37 139.27 340.32 140.14 C 338.82 141.37 338.75 141.22 339.58 138.50 Z M 288.68 139.25 L 265.87 138.96 L 266.11 135.23 C 266.63 127.11 266.16 125.01 263.86 125.26 C 262.68 125.39 261.52 124.94 261.28 124.25 C 260.93 123.27 266.26 123.00 285.80 123.00 L 310.77 123.00 L 311.23 129.75 C 311.49 133.46 312.04 137.29 312.45 138.25 C 312.87 139.21 312.83 139.90 312.36 139.77 C 311.89 139.64 301.23 139.41 288.68 139.25 Z M 388.00 137.00 C 388.00 135.13 388.27 134.87 389.20 135.80 C 390.13 136.73 390.13 137.27 389.20 138.20 C 388.27 139.13 388.00 138.87 388.00 137.00 Z M 262.00 134.44 C 262.00 133.58 262.46 133.16 263.02 133.51 C 263.58 133.86 263.77 134.56 263.46 135.07 C 262.60 136.46 262.00 136.20 262.00 134.44 Z M 136.00 131.00 C 136.00 130.45 136.48 130.00 137.06 130.00 C 137.64 130.00 137.84 130.45 137.50 131.00 C 137.16 131.55 136.68 132.00 136.44 132.00 C 136.20 132.00 136.00 131.55 136.00 131.00 Z M 17.13 116.78 C 16.66 115.53 15.99 93.51 15.64 67.85 L 15.00 21.21 L 29.75 20.55 C 37.86 20.19 53.50 19.48 64.50 18.98 C 120.49 16.39 166.69 15.62 270.67 15.56 C 332.36 15.53 383.03 15.72 383.28 16.00 C 383.53 16.27 384.03 38.77 384.39 66.00 L 385.05 115.50 L 255.77 115.50 C 141.14 115.50 46.38 116.75 24.24 118.55 C 18.41 119.02 17.91 118.90 17.13 116.78 Z" fill="none" stroke="rgba(255,255,255,0.92)" stroke-width="1.5" stroke-linejoin="round" fill-rule="evenodd"/>
</svg>
