<svg xmlns="http://www.w3.org/2000/svg" viewBox="0 0 100 100" width="100" height="100">
  <path d="M 0.00 50.00 L 0.00 0.00 L 50.00 0.00 L 100.00 0.00 L 100.00 50.00 L 100.00 100.00 L 50.00 100.00 L 0.00 100.00 L 0.00 50.00 Z M 11.22 93.07 C 10.93 91.07 10.35 90.31 9.40 90.68 C 8.63 90.97 8.00 90.72 8.00 90.11 C 8.00 89.43 10.22 89.00 13.75 89.00 C 16.91 88.99 25.27 88.70 32.31 88.34 L 45.13 87.69 L 44.91 90.09 C 44.36 96.15 44.07 96.00 56.08 96.00 L 67.15 96.00 L 66.85 91.80 C 66.50 86.98 64.44 87.52 84.25 87.19 L 96.00 87.00 L 96.00 83.93 L 96.00 80.85 L 83.75 81.39 C 77.01 81.68 58.35 82.23 42.27 82.60 C 17.84 83.16 12.96 83.04 12.57 81.88 C 12.31 81.12 11.96 65.81 11.80 47.85 L 11.50 15.21 L 18.00 14.64 C 21.58 14.33 40.59 13.53 60.25 12.85 L 96.00 11.62 L 96.00 8.67 L 96.00 5.72 L 83.25 6.35 C 76.24 6.70 56.33 7.47 39.00 8.07 C 21.67 8.66 6.87 9.35 6.10 9.60 C 4.94 9.98 4.81 13.50 5.34 30.78 C 5.69 42.17 5.98 61.51 5.99 73.75 L 6.00 96.00 L 8.83 96.00 C 11.38 96.00 11.61 95.72 11.22 93.07 Z" fill="none" stroke="rgba(255,255,255,0.92)" stroke-width="1.2" stroke-linejoin="round" fill-rule="evenodd"/>
</svg>
