<svg xmlns="http://www.w3.org/2000/svg" viewBox="0 0 100 100" width="100" height="100">
  <path d="M 0.00 50.00 L 0.00 0.00 L 50.00 0.00 L 100.00 0.00 L 100.00 50.00 L 100.00 100.00 L 50.00 100.00 L 0.00 100.00 L 0.00 50.00 Z M 54.73 92.00 L 54.19 88.00 L 72.10 88.00 L 90.00 88.00 L 90.00 92.00 C 90.00 95.75 90.18 96.00 92.92 96.00 L 95.84 96.00 L 95.67 50.75 L 95.50 5.50 L 49.75 5.38 L 4.00 5.25 L 4.00 8.63 L 4.00 12.00 L 47.00 12.00 L 90.00 12.00 L 90.00 47.00 L 90.00 82.00 L 47.00 82.00 L 4.00 82.00 L 4.00 85.00 L 4.00 88.00 L 19.00 88.00 L 34.00 88.00 L 34.00 92.00 L 34.00 96.00 L 44.63 96.00 L 55.26 96.00 L 54.73 92.00 Z" fill="none" stroke="rgba(255,255,255,0.92)" stroke-width="1.2" stroke-linejoin="round" fill-rule="evenodd"/>
</svg>
