<svg xmlns="http://www.w3.org/2000/svg" viewBox="0 0 100 100" width="100" height="100">
  <path d="M 0.00 50.00 L 0.00 0.00 L 50.00 0.00 L 100.00 0.00 L 100.00 50.00 L 100.00 100.00 L 50.00 100.00 L 0.00 100.00 L 0.00 50.00 Z M 4.71 89.75 C 4.47 88.51 4.27 89.53 4.27 92.00 C 4.27 94.47 4.47 95.49 4.71 94.25 C 4.94 93.01 4.94 90.99 4.71 89.75 Z M 61.33 93.85 C 61.64 92.67 61.63 90.42 61.32 88.85 L 60.75 86.00 L 77.82 86.00 L 94.89 86.00 L 94.36 90.39 C 94.03 93.04 94.25 95.04 94.91 95.44 C 95.66 95.91 96.00 93.76 96.00 88.56 L 96.00 81.00 L 50.00 81.00 L 4.00 81.00 L 4.00 84.04 L 4.00 87.08 L 21.25 86.95 L 38.50 86.81 L 38.80 91.40 L 39.11 96.00 L 49.94 96.00 C 60.18 96.00 60.80 95.88 61.33 93.85 Z M 96.00 7.98 L 96.00 5.00 L 61.25 5.00 C 42.14 5.01 21.44 5.30 15.25 5.66 L 4.00 6.31 L 4.00 8.90 L 4.00 11.50 L 50.00 11.23 L 96.00 10.96 L 96.00 7.98 Z" fill="none" stroke="rgba(255,255,255,0.92)" stroke-width="1.2" stroke-linejoin="round" fill-rule="evenodd"/>
</svg>
