<svg xmlns="http://www.w3.org/2000/svg" viewBox="0 0 100 100" width="100" height="100">
  <path d="M 0.00 50.00 L 0.00 0.00 L 50.00 0.00 L 100.00 0.00 L 100.00 50.00 L 100.00 100.00 L 50.00 100.00 L 0.00 100.00 L 0.00 50.00 Z M 12.25 94.64 C 12.11 94.29 11.98 92.54 11.96 90.75 L 11.93 87.50 L 10.50 90.00 C 9.71 91.38 9.05 91.97 9.04 91.33 C 9.02 90.69 8.73 89.45 8.39 88.58 C 7.85 87.17 9.84 87.00 26.39 87.00 L 45.00 87.00 L 45.00 91.53 L 45.00 96.07 L 56.25 95.78 L 67.50 95.50 L 67.50 91.25 L 67.50 87.00 L 81.75 87.00 L 96.00 87.00 L 96.00 84.00 L 96.00 81.00 L 54.16 81.00 L 12.31 81.00 L 11.66 65.25 C 11.30 56.59 11.01 41.01 11.00 30.64 L 11.00 11.78 L 38.25 12.35 C 53.24 12.66 72.36 12.64 80.75 12.30 C 95.90 11.69 96.00 11.67 96.00 9.34 L 96.00 7.00 L 50.36 7.00 L 4.71 7.00 L 5.38 44.75 C 5.75 65.51 6.32 85.50 6.65 89.17 C 7.23 95.65 7.32 95.83 9.87 95.56 C 11.32 95.40 12.39 94.99 12.25 94.64 Z" fill="none" stroke="rgba(255,255,255,0.92)" stroke-width="1.2" stroke-linejoin="round" fill-rule="evenodd"/>
</svg>
