<svg xmlns="http://www.w3.org/2000/svg" viewBox="0 0 100 100" width="100" height="100">
  <path d="M 0.00 50.00 L 0.00 0.00 L 50.00 0.00 L 100.00 0.00 L 100.00 50.00 L 100.00 100.00 L 50.00 100.00 L 0.00 100.00 L 0.00 50.00 Z M 5.65 93.00 L 5.05 90.00 L 20.27 89.99 C 28.65 89.98 36.51 89.70 37.75 89.37 C 39.78 88.83 40.00 89.12 40.00 92.38 L 40.00 96.00 L 50.00 96.00 L 60.00 96.00 L 60.00 93.00 L 60.00 90.00 L 77.44 90.00 L 94.87 90.00 L 95.28 93.25 C 95.50 95.04 95.75 93.70 95.84 90.25 L 96.00 84.00 L 88.25 83.96 C 83.99 83.94 63.95 83.96 43.73 83.99 C 14.77 84.04 6.87 83.78 6.53 82.78 C 6.30 82.07 5.97 65.86 5.79 46.75 L 5.47 12.00 L 50.73 12.00 L 96.00 12.00 L 96.00 8.50 C 96.00 5.85 95.58 4.99 94.25 4.97 C 90.01 4.88 48.45 4.91 27.25 5.00 L 4.00 5.11 L 4.00 50.55 C 4.00 83.55 4.31 96.00 5.12 96.00 C 5.84 96.00 6.03 94.91 5.65 93.00 Z" fill="none" stroke="rgba(255,255,255,0.92)" stroke-width="1.2" stroke-linejoin="round" fill-rule="evenodd"/>
</svg>
