<svg xmlns="http://www.w3.org/2000/svg" viewBox="0 0 100 100" width="100" height="100">
  <path d="M 0.00 50.00 L 0.00 0.00 L 50.00 0.00 L 100.00 0.00 L 100.00 50.00 L 100.00 100.00 L 50.00 100.00 L 0.00 100.00 L 0.00 50.00 Z M 8.00 91.94 C 8.00 88.67 7.66 88.00 6.00 88.00 C 4.35 88.00 4.00 88.67 4.00 91.79 C 4.00 94.86 4.38 95.60 6.00 95.73 C 7.69 95.85 8.00 95.26 8.00 91.94 Z M 63.56 93.61 C 63.89 92.29 64.01 90.16 63.83 88.86 L 63.50 86.50 L 79.75 86.88 L 96.00 87.27 L 96.00 84.13 L 96.00 81.00 L 50.00 81.00 L 4.00 81.00 L 4.00 84.08 L 4.00 87.17 L 22.50 86.83 L 41.00 86.50 L 41.00 90.58 C 41.00 92.83 41.30 94.97 41.67 95.33 C 42.03 95.70 46.97 96.00 52.65 96.00 C 62.69 96.00 62.98 95.94 63.56 93.61 Z M 96.00 9.50 L 96.00 7.00 L 50.00 7.00 L 4.00 7.00 L 4.00 9.50 L 4.00 12.00 L 50.00 12.00 L 96.00 12.00 L 96.00 9.50 Z" fill="none" stroke="rgba(255,255,255,0.92)" stroke-width="1.2" stroke-linejoin="round" fill-rule="evenodd"/>
</svg>
