<svg xmlns="http://www.w3.org/2000/svg" viewBox="0 0 100 100" width="100" height="100">
  <path d="M 0.00 50.00 L 0.00 0.00 L 50.00 0.00 L 100.00 0.00 L 100.00 50.00 L 100.00 100.00 L 50.00 100.00 L 0.00 100.00 L 0.00 50.00 Z M 57.80 90.75 L 58.11 86.00 L 75.55 86.00 L 93.00 86.00 L 93.11 88.75 C 93.17 90.26 93.14 92.51 93.04 93.75 C 92.92 95.21 93.41 96.00 94.43 96.00 C 95.83 96.00 96.00 91.24 96.00 50.95 L 96.00 5.89 L 61.75 6.00 C 42.91 6.06 22.21 6.38 15.75 6.70 C 4.08 7.30 4.00 7.32 4.00 9.77 L 4.00 12.24 L 47.75 11.87 L 91.50 11.50 L 91.73 45.75 L 91.97 80.00 L 83.23 80.19 C 78.43 80.29 73.38 80.46 72.00 80.55 C 70.62 80.65 54.76 80.79 36.75 80.87 L 4.00 81.00 L 4.00 83.80 L 4.00 86.59 L 19.75 86.55 L 35.50 86.50 L 35.21 89.00 C 35.05 90.38 35.18 92.53 35.49 93.78 C 36.04 96.01 36.34 96.06 46.78 95.78 L 57.50 95.50 L 57.80 90.75 Z" fill="none" stroke="rgba(255,255,255,0.92)" stroke-width="1.2" stroke-linejoin="round" fill-rule="evenodd"/>
</svg>
