<svg xmlns="http://www.w3.org/2000/svg" viewBox="0 0 100 100" width="100" height="100">
  <path d="M 0.00 50.00 L 0.00 0.00 L 50.00 0.00 L 100.00 0.00 L 100.00 50.00 L 100.00 100.00 L 50.00 100.00 L 0.00 100.00 L 0.00 50.00 Z M 95.72 49.98 L 95.50 3.95 L 93.00 4.44 C 91.62 4.71 79.03 5.22 65.00 5.57 C 50.98 5.92 35.67 6.35 31.00 6.51 C 26.32 6.67 18.34 6.85 13.25 6.90 C 4.01 7.00 4.00 7.00 4.00 9.57 L 4.00 12.14 L 32.75 11.40 C 48.56 10.99 63.02 10.74 64.89 10.84 C 66.75 10.94 68.88 10.51 69.64 9.89 C 70.39 9.26 71.00 9.17 71.00 9.67 C 71.00 10.20 75.09 10.41 80.50 10.18 L 90.00 9.76 L 90.16 51.13 C 90.25 73.88 90.25 93.29 90.17 94.25 C 90.06 95.56 90.78 96.00 92.98 96.00 L 95.95 96.00 L 95.72 49.98 Z M 47.03 91.75 C 47.01 91.34 47.00 88.30 47.00 85.00 C 47.00 79.27 46.89 79.00 44.50 79.00 C 42.07 79.00 42.00 79.20 42.00 86.07 C 42.00 93.04 42.03 93.13 44.53 92.82 C 45.92 92.64 47.05 92.16 47.03 91.75 Z M 27.12 72.67 L 25.03 70.59 L 20.07 76.04 L 15.11 81.50 L 17.27 83.33 C 19.40 85.15 19.48 85.11 24.31 79.96 L 29.20 74.76 L 27.12 72.67 Z M 76.00 77.97 C 76.00 77.57 73.50 75.31 70.44 72.96 L 64.89 68.67 L 62.86 70.69 L 60.84 72.71 L 66.64 77.31 C 72.04 81.60 72.56 81.80 74.22 80.30 C 75.20 79.42 76.00 78.36 76.00 77.97 Z M 50.28 72.94 C 54.98 71.63 60.86 66.57 62.65 62.30 C 64.27 58.42 64.41 51.20 62.93 47.32 C 58.07 34.47 37.15 32.07 28.53 43.37 C 22.45 51.35 22.97 60.97 29.85 67.85 C 35.40 73.40 42.37 75.14 50.28 72.94 Z M 38.42 67.03 C 35.28 65.76 31.16 60.36 30.45 56.59 C 29.69 52.52 31.65 48.31 36.04 44.62 C 38.54 42.52 40.17 42.01 44.33 42.04 C 50.09 42.07 52.90 43.30 55.76 47.00 C 58.99 51.18 59.33 54.69 56.97 59.56 C 53.54 66.65 45.49 69.89 38.42 67.03 Z M 18.82 55.47 C 18.64 54.08 18.16 52.95 17.75 52.97 C 17.34 52.99 14.08 53.00 10.50 53.00 C 4.23 53.00 4.00 53.09 4.00 55.50 C 4.00 57.95 4.16 58.00 11.57 58.00 C 19.08 58.00 19.13 57.98 18.82 55.47 Z M 84.82 53.75 L 85.13 51.00 L 77.57 51.00 L 70.00 51.00 L 70.00 54.04 L 70.00 57.09 L 77.25 56.79 C 84.33 56.51 84.51 56.44 84.82 53.75 Z M 25.88 38.83 C 27.13 36.81 26.88 36.35 22.37 32.37 C 16.97 27.61 15.87 27.25 13.89 29.63 C 12.70 31.07 13.20 31.86 18.02 36.12 C 21.03 38.79 23.73 40.98 24.01 40.99 C 24.29 41.00 25.13 40.02 25.88 38.83 Z M 69.11 32.72 L 73.72 27.46 L 71.50 25.79 C 69.36 24.18 69.17 24.24 66.36 27.31 C 59.94 34.32 59.63 34.85 60.98 36.48 C 62.98 38.88 64.20 38.32 69.11 32.72 Z M 47.00 23.43 L 47.00 15.87 L 44.25 16.18 C 41.64 16.48 41.48 16.80 41.20 22.39 C 40.82 29.74 41.30 31.00 44.47 31.00 C 46.95 31.00 47.00 30.86 47.00 23.43 Z" fill="none" stroke="rgba(255,255,255,0.92)" stroke-width="1.2" stroke-linejoin="round" fill-rule="evenodd"/>
</svg>
