<svg xmlns="http://www.w3.org/2000/svg" viewBox="0 0 400 219" width="400" height="219">
  <path d="M 0.00 109.50 L 0.00 0.00 L 200.00 0.00 L 400.00 0.00 L 400.00 109.50 L 400.00 219.00 L 200.00 219.00 L 0.00 219.00 L 0.00 109.50 Z M 203.26 213.81 L 299.03 213.75 L 298.76 163.94 L 298.50 114.13 L 301.50 113.67 C 303.15 113.42 311.02 113.17 319.00 113.12 C 326.98 113.06 343.85 112.75 356.50 112.42 C 369.15 112.09 383.21 111.81 387.75 111.80 L 396.01 111.77 L 395.75 58.31 L 395.50 4.86 L 383.50 5.41 C 376.90 5.72 360.25 6.23 346.50 6.55 C 332.75 6.88 317.23 7.31 312.00 7.52 C 306.77 7.73 301.71 7.93 300.75 7.95 C 299.65 7.98 298.96 8.84 298.88 10.25 C 298.79 12.01 298.63 11.86 298.13 9.53 L 297.49 6.57 L 190.50 7.03 C 131.65 7.29 65.84 7.47 44.25 7.43 L 5.00 7.36 L 5.04 24.43 C 5.06 33.82 5.49 56.80 6.00 75.50 C 6.51 94.20 6.96 132.95 7.00 161.62 C 7.03 190.28 7.38 214.05 7.77 214.44 C 8.16 214.83 30.76 214.86 57.99 214.51 C 85.22 214.17 150.59 213.85 203.26 213.81 Z M 12.34 162.59 C 12.26 136.97 12.55 115.78 12.99 115.51 C 13.43 115.24 23.24 114.90 34.80 114.76 C 46.35 114.62 55.29 114.17 54.65 113.77 C 54.02 113.36 52.77 113.02 51.87 113.02 C 50.98 113.01 49.68 112.33 49.00 111.50 C 47.41 109.59 47.48 109.59 54.01 112.12 C 58.94 114.01 61.70 114.24 81.00 114.37 L 102.50 114.50 L 102.76 161.50 L 103.02 208.50 L 57.76 208.83 L 12.50 209.17 L 12.34 162.59 Z M 108.90 206.00 C 108.84 204.62 108.71 183.34 108.60 158.70 L 108.41 113.91 L 115.95 113.99 C 127.58 114.12 174.22 114.20 186.20 114.11 C 192.09 114.07 197.16 114.45 197.48 114.96 C 198.21 116.15 198.38 206.95 197.65 207.68 C 197.35 207.98 177.28 208.29 153.05 208.36 L 109.00 208.50 L 108.90 206.00 Z M 203.65 207.00 C 203.47 206.18 203.36 185.03 203.41 160.00 L 203.50 114.50 L 208.50 114.38 C 211.25 114.31 213.95 114.14 214.50 114.01 C 215.05 113.87 215.95 113.84 216.50 113.93 C 220.96 114.68 241.50 114.00 241.80 113.09 C 242.00 112.49 243.14 112.03 244.33 112.07 C 246.43 112.14 246.44 112.17 244.50 113.02 C 243.29 113.55 251.92 113.87 266.50 113.82 C 279.70 113.77 291.18 113.79 292.00 113.87 C 293.31 113.98 293.50 119.95 293.50 161.00 L 293.50 208.00 L 277.00 208.06 C 267.93 208.09 247.78 208.20 232.24 208.31 C 207.80 208.48 203.93 208.30 203.65 207.00 Z M 296.08 199.42 C 296.13 198.25 296.36 198.01 296.68 198.81 C 296.97 199.53 296.94 200.40 296.60 200.73 C 296.27 201.06 296.04 200.47 296.08 199.42 Z M 105.50 178.00 C 105.84 177.45 106.32 177.00 106.56 177.00 C 106.80 177.00 107.00 177.45 107.00 178.00 C 107.00 178.55 106.52 179.00 105.94 179.00 C 105.36 179.00 105.16 178.55 105.50 178.00 Z M 200.08 161.42 C 200.13 160.25 200.36 160.01 200.68 160.81 C 200.97 161.53 200.94 162.40 200.60 162.73 C 200.27 163.06 200.04 162.47 200.08 161.42 Z M 9.08 135.42 C 9.13 134.25 9.36 134.01 9.68 134.81 C 9.97 135.53 9.94 136.40 9.60 136.73 C 9.27 137.06 9.04 136.47 9.08 135.42 Z M 105.08 131.42 C 105.13 130.25 105.36 130.01 105.68 130.81 C 105.97 131.53 105.94 132.40 105.60 132.73 C 105.27 133.06 105.04 132.47 105.08 131.42 Z M 9.25 128.50 C 9.26 126.30 9.47 125.52 9.71 126.76 C 9.95 128.01 9.94 129.81 9.69 130.76 C 9.44 131.72 9.24 130.70 9.25 128.50 Z M 200.00 118.50 C 200.00 117.12 200.39 116.00 200.86 116.00 C 201.34 116.00 201.51 117.12 201.24 118.50 C 200.98 119.88 200.59 121.00 200.38 121.00 C 200.17 121.00 200.00 119.88 200.00 118.50 Z M 58.08 112.64 C 59.26 111.62 64.11 111.02 63.52 111.96 C 63.17 112.53 61.71 113.00 60.27 113.00 C 58.84 113.00 57.85 112.84 58.08 112.64 Z M 82.00 111.44 C 82.00 110.58 82.46 110.16 83.02 110.51 C 83.58 110.86 83.77 111.56 83.46 112.07 C 82.60 113.46 82.00 113.20 82.00 111.44 Z M 115.50 112.00 C 115.84 111.45 116.32 111.00 116.56 111.00 C 116.80 111.00 117.00 111.45 117.00 112.00 C 117.00 112.55 116.52 113.00 115.94 113.00 C 115.36 113.00 115.16 112.55 115.50 112.00 Z M 147.50 112.00 C 147.16 111.45 147.36 111.00 147.94 111.00 C 148.52 111.00 149.00 111.45 149.00 112.00 C 149.00 112.55 148.80 113.00 148.56 113.00 C 148.32 113.00 147.84 112.55 147.50 112.00 Z M 250.00 111.91 C 250.00 111.41 250.97 111.00 252.17 111.00 C 253.36 111.00 254.02 111.31 253.64 111.70 C 252.56 112.78 250.00 112.93 250.00 111.91 Z M 143.50 110.00 C 143.84 109.45 144.32 109.00 144.56 109.00 C 144.80 109.00 145.00 109.45 145.00 110.00 C 145.00 110.55 144.52 111.00 143.94 111.00 C 143.36 111.00 143.16 110.55 143.50 110.00 Z M 159.50 110.00 C 159.84 109.45 160.32 109.00 160.56 109.00 C 160.80 109.00 161.00 109.45 161.00 110.00 C 161.00 110.55 160.52 111.00 159.94 111.00 C 159.36 111.00 159.16 110.55 159.50 110.00 Z M 334.00 109.94 C 334.00 109.36 334.45 109.16 335.00 109.50 C 335.55 109.84 336.00 110.32 336.00 110.56 C 336.00 110.80 335.55 111.00 335.00 111.00 C 334.45 111.00 334.00 110.52 334.00 109.94 Z M 255.03 108.87 C 255.05 108.12 255.72 106.63 256.53 105.56 C 257.34 104.49 258.00 101.74 258.00 99.45 L 258.00 95.28 L 264.15 94.64 C 267.53 94.29 275.37 94.00 281.58 94.00 L 292.87 94.00 L 293.19 97.25 C 293.36 99.04 293.34 102.19 293.14 104.25 L 292.79 108.00 L 278.14 108.15 C 270.09 108.23 262.24 108.20 260.69 108.08 C 259.14 107.96 257.23 108.39 256.44 109.05 C 255.31 109.99 255.01 109.95 255.03 108.87 Z M 12.12 102.00 L 12.05 95.00 L 28.53 95.00 L 45.00 95.00 L 45.00 99.78 C 45.00 102.48 45.68 105.52 46.56 106.78 L 48.11 109.00 L 30.15 109.00 L 12.18 109.00 L 12.12 102.00 Z M 66.61 105.80 C 67.65 103.78 68.04 101.31 67.70 98.84 L 67.19 95.00 L 85.10 95.00 L 103.00 95.00 L 103.00 101.50 C 103.00 105.99 102.61 108.02 101.75 108.08 C 101.06 108.12 92.51 108.33 82.75 108.54 L 64.99 108.92 L 66.61 105.80 Z M 110.45 107.99 C 108.83 107.71 107.61 107.15 107.75 106.74 C 107.89 106.33 108.00 103.72 108.00 100.93 C 108.00 96.22 107.85 95.91 105.87 96.54 C 104.44 96.99 103.97 96.85 104.43 96.11 C 104.89 95.36 110.99 95.00 122.96 95.00 L 140.81 95.00 L 141.30 99.75 C 141.57 102.36 141.95 105.40 142.14 106.49 C 142.49 108.41 141.93 108.49 127.95 108.49 C 119.94 108.50 112.07 108.27 110.45 107.99 Z M 161.00 108.40 C 161.00 108.35 161.73 106.85 162.62 105.07 C 163.63 103.03 164.03 100.56 163.68 98.41 L 163.13 95.00 L 180.61 95.00 L 198.09 95.00 L 197.80 101.75 L 197.50 108.50 L 179.25 108.50 C 169.21 108.50 161.00 108.46 161.00 108.40 Z M 204.75 108.20 C 203.30 107.91 203.00 106.75 203.00 101.43 L 203.00 95.00 L 219.44 95.00 L 235.87 95.00 L 235.33 98.35 C 234.99 100.43 235.39 102.86 236.39 104.80 C 237.28 106.50 238.00 108.06 238.00 108.25 C 238.00 108.70 207.03 108.66 204.75 108.20 Z M 298.31 60.67 L 298.12 13.22 L 304.31 13.26 C 307.71 13.28 321.98 12.97 336.00 12.57 C 350.02 12.16 363.01 11.89 364.85 11.95 C 366.69 12.02 368.83 11.55 369.60 10.92 C 370.41 10.25 371.00 10.17 371.00 10.74 C 371.00 11.68 385.87 11.47 388.75 10.49 C 389.74 10.15 390.03 19.70 390.16 55.78 C 390.31 99.28 390.26 105.10 389.73 105.58 C 389.60 105.70 378.48 106.07 365.00 106.42 C 351.52 106.76 331.05 107.29 319.50 107.58 L 298.50 108.12 L 298.31 60.67 Z M 105.08 105.42 C 105.13 104.25 105.36 104.01 105.68 104.81 C 105.97 105.53 105.94 106.40 105.60 106.73 C 105.27 107.06 105.04 106.47 105.08 105.42 Z M 9.00 105.00 C 9.00 104.45 9.48 104.00 10.06 104.00 C 10.64 104.00 10.84 104.45 10.50 105.00 C 10.16 105.55 9.68 106.00 9.44 106.00 C 9.20 106.00 9.00 105.55 9.00 105.00 Z M 347.00 94.00 C 347.00 86.13 346.96 86.00 344.50 86.00 C 342.04 86.00 342.00 86.13 342.00 94.00 C 342.00 101.87 342.04 102.00 344.50 102.00 C 346.96 102.00 347.00 101.87 347.00 94.00 Z M 8.78 98.64 C 8.48 97.06 8.81 95.90 9.65 95.58 C 11.17 95.00 11.47 97.71 10.12 99.84 C 9.50 100.82 9.14 100.50 8.78 98.64 Z M 199.72 97.71 C 199.37 96.80 199.55 95.78 200.11 95.43 C 201.55 94.54 201.86 95.19 201.05 97.43 C 200.43 99.12 200.27 99.15 199.72 97.71 Z M 324.42 87.24 C 329.17 82.11 329.25 81.93 327.49 79.99 C 326.50 78.90 325.42 78.01 325.10 78.01 C 324.77 78.02 322.31 80.52 319.64 83.56 C 314.92 88.94 314.84 89.16 316.57 91.08 C 317.55 92.16 318.62 92.93 318.95 92.77 C 319.27 92.62 321.73 90.13 324.42 87.24 Z M 11.66 71.82 C 11.30 62.29 11.00 45.28 11.00 34.00 L 11.00 13.50 L 54.75 13.50 C 78.81 13.50 141.92 13.36 195.00 13.18 L 291.50 12.87 L 291.73 49.89 C 291.91 77.80 291.67 87.09 290.77 87.64 C 290.11 88.05 227.19 88.55 150.94 88.76 L 12.32 89.13 L 11.66 71.82 Z M 374.32 87.19 C 375.86 85.50 375.64 85.07 370.67 80.17 L 365.39 74.95 L 363.15 77.34 L 360.90 79.73 L 366.20 84.34 C 369.12 86.88 371.77 88.96 372.10 88.98 C 372.42 88.99 373.43 88.19 374.32 87.19 Z M 350.10 79.83 C 358.91 76.81 364.00 69.42 364.00 59.64 C 364.00 45.52 351.60 35.88 338.90 40.14 C 333.82 41.84 329.22 45.64 327.02 49.97 C 321.32 61.14 324.88 73.21 335.45 78.52 C 340.88 81.25 344.92 81.61 350.10 79.83 Z M 336.97 72.30 C 333.45 69.86 332.18 68.04 330.92 63.54 C 329.41 58.15 331.04 53.05 335.55 49.09 C 338.56 46.45 339.86 46.00 344.50 46.00 C 349.14 46.00 350.44 46.45 353.44 49.08 C 360.10 54.93 360.10 63.84 353.43 70.51 C 350.32 73.61 349.35 74.00 344.69 74.00 C 341.38 74.00 338.53 73.37 336.97 72.30 Z M 318.50 60.75 C 318.50 59.24 318.16 58.00 317.75 58.00 C 317.34 58.00 314.07 58.00 310.50 58.00 L 304.00 58.00 L 304.00 61.04 L 304.00 64.09 L 311.25 63.79 C 318.42 63.50 318.50 63.47 318.50 60.75 Z M 385.00 59.00 L 385.00 56.00 L 377.50 56.00 L 370.00 56.00 L 370.00 59.00 L 370.00 62.00 L 377.50 62.00 L 385.00 62.00 L 385.00 59.00 Z M 327.00 40.54 C 327.00 39.90 324.58 37.29 321.62 34.73 C 316.29 30.13 316.21 30.11 314.43 32.07 C 312.68 34.02 312.76 34.20 318.01 39.51 C 323.06 44.63 323.50 44.86 325.19 43.32 C 326.19 42.43 327.00 41.17 327.00 40.54 Z M 368.88 36.14 L 373.96 30.27 L 371.86 28.39 C 369.78 26.51 369.73 26.54 364.88 31.94 C 362.20 34.93 360.00 37.76 360.00 38.23 C 360.00 39.26 362.24 41.91 363.15 41.96 C 363.51 41.98 366.09 39.36 368.88 36.14 Z M 347.00 26.00 L 347.00 18.00 L 344.00 18.00 L 341.00 18.00 L 341.00 25.33 C 341.00 29.37 341.30 32.97 341.67 33.33 C 342.03 33.70 343.38 34.00 344.67 34.00 C 346.92 34.00 347.00 33.71 347.00 26.00 Z" fill="none" stroke="rgba(255,255,255,0.92)" stroke-width="1.5" stroke-linejoin="round" fill-rule="evenodd"/>
</svg>
