<svg xmlns="http://www.w3.org/2000/svg" viewBox="0 0 100 100" width="100" height="100">
  <path d="M 0.00 50.00 L 0.00 0.00 L 50.00 0.00 L 100.00 0.00 L 100.00 50.00 L 100.00 100.00 L 50.00 100.00 L 0.00 100.00 L 0.00 50.00 Z M 80.25 94.75 L 96.00 94.50 L 96.00 91.75 C 96.00 89.97 95.47 89.00 94.50 89.00 C 93.67 89.00 93.00 89.67 93.00 90.50 C 93.00 91.33 92.55 92.00 92.00 92.00 C 91.37 92.00 91.00 85.17 91.00 73.50 L 91.00 55.00 L 93.50 55.00 L 96.00 55.00 L 96.00 45.00 L 96.00 35.00 L 93.00 35.00 L 90.00 35.00 L 90.00 19.50 L 90.00 4.00 L 86.88 4.00 L 83.76 4.00 L 84.50 45.85 C 85.21 86.41 85.18 87.72 83.34 88.20 C 82.30 88.47 75.16 88.76 67.47 88.84 C 59.79 88.93 44.39 89.28 33.25 89.64 L 13.00 90.28 L 13.00 47.14 L 13.00 4.00 L 9.38 4.00 L 5.75 4.00 L 6.34 48.75 C 6.67 73.36 6.95 94.12 6.97 94.88 C 6.99 96.05 11.64 96.17 35.75 95.64 C 51.56 95.29 71.59 94.89 80.25 94.75 Z" fill="none" stroke="rgba(255,255,255,0.92)" stroke-width="1.2" stroke-linejoin="round" fill-rule="evenodd"/>
</svg>
