<svg xmlns="http://www.w3.org/2000/svg" viewBox="0 0 377 400" width="377" height="400">
  <path d="M 0.01 220.90 C 0.03 45.61 0.07 41.76 1.95 40.15 C 3.97 38.42 5.98 32.38 5.26 30.25 C 5.02 29.56 3.75 29.00 2.42 29.00 C 0.32 29.00 0.00 28.54 0.00 25.48 C 0.00 22.23 0.19 22.01 2.50 22.59 C 4.02 22.97 5.00 22.79 5.00 22.13 C 5.00 21.53 3.87 20.76 2.50 20.41 C 0.54 19.92 0.00 19.15 0.00 16.83 L 0.00 13.88 L 7.00 14.57 C 11.55 15.02 14.00 14.90 14.00 14.24 C 14.00 12.86 12.35 12.31 5.66 11.48 L 0.00 10.77 L 0.00 5.38 L 0.00 0.00 L 37.47 0.00 L 74.93 0.00 L 78.00 3.00 C 81.99 6.90 84.83 6.90 86.31 3.00 L 87.44 0.00 L 232.22 0.00 L 377.00 0.00 L 377.00 200.00 L 377.00 400.00 L 188.49 400.00 L -0.02 400.00 L 0.01 220.90 Z M 70.50 393.49 C 85.35 393.20 106.28 392.73 117.00 392.46 C 127.72 392.18 145.05 391.73 155.50 391.46 C 165.95 391.19 180.35 390.75 187.50 390.47 C 194.65 390.20 207.03 389.76 215.00 389.49 C 242.65 388.55 251.03 388.10 252.01 387.49 C 252.64 387.11 252.97 365.23 252.92 327.19 C 252.89 294.36 252.89 266.95 252.93 266.29 C 252.98 265.37 259.43 265.07 279.25 265.03 C 329.49 264.94 370.94 264.39 371.51 263.82 C 371.99 263.34 372.00 53.78 371.52 38.50 C 371.43 35.75 371.28 27.43 371.18 20.00 L 371.00 6.50 L 250.75 6.63 C 184.61 6.70 129.19 6.81 127.60 6.88 L 124.69 7.00 L 125.42 69.40 C 125.85 107.15 125.77 132.02 125.22 132.37 C 124.71 132.68 104.77 133.16 80.90 133.44 C 57.03 133.72 30.57 134.25 22.09 134.61 L 6.69 135.28 L 7.34 252.39 C 7.69 316.80 7.99 375.29 7.99 382.37 L 8.00 395.23 L 25.75 394.63 C 35.51 394.30 55.65 393.79 70.50 393.49 Z M 114.62 386.88 C 114.28 385.16 114.00 373.95 114.00 361.97 L 114.00 340.19 L 119.25 339.78 C 122.14 339.55 125.17 339.06 126.00 338.68 C 127.31 338.08 127.52 340.99 127.64 361.45 L 127.78 384.91 L 122.14 385.20 C 116.96 385.48 116.52 385.68 116.74 387.75 C 117.10 391.17 115.34 390.44 114.62 386.88 Z M 133.67 388.33 C 133.30 387.97 133.00 387.20 133.00 386.63 C 133.00 386.01 133.47 386.07 134.18 386.78 C 134.83 387.43 135.13 388.20 134.85 388.48 C 134.57 388.77 134.03 388.70 133.67 388.33 Z M 148.00 387.97 C 148.00 387.08 150.54 386.00 152.64 386.00 C 153.45 386.00 153.87 386.40 153.57 386.88 C 152.87 388.01 148.00 388.96 148.00 387.97 Z M 155.00 387.97 C 155.00 386.53 157.12 385.72 158.15 386.75 C 158.79 387.39 158.41 387.92 157.07 388.27 C 155.93 388.57 155.00 388.43 155.00 387.97 Z M 122.27 387.31 C 123.24 387.05 124.59 387.07 125.27 387.34 C 125.95 387.62 125.15 387.83 123.50 387.81 C 121.85 387.78 121.30 387.56 122.27 387.31 Z M 138.25 387.31 C 139.21 387.06 140.79 387.06 141.75 387.31 C 142.71 387.56 141.93 387.77 140.00 387.77 C 138.07 387.77 137.29 387.56 138.25 387.31 Z M 172.50 387.00 C 172.84 386.45 173.32 386.00 173.56 386.00 C 173.80 386.00 174.00 386.45 174.00 387.00 C 174.00 387.55 173.52 388.00 172.94 388.00 C 172.36 388.00 172.16 387.55 172.50 387.00 Z M 17.00 386.09 C 17.00 385.76 16.80 376.73 16.54 366.00 C 15.54 323.57 14.93 145.44 15.79 144.20 C 16.81 142.71 25.99 142.34 74.35 141.83 L 105.20 141.50 L 105.55 194.50 C 105.75 223.65 106.04 278.32 106.20 316.00 L 106.50 384.50 L 77.00 385.16 C 60.77 385.53 40.64 386.02 32.25 386.25 C 23.86 386.48 17.00 386.41 17.00 386.09 Z M 143.81 385.92 C 143.61 385.32 141.43 384.83 138.97 384.83 L 134.50 384.83 L 134.27 363.67 C 134.15 352.02 134.04 341.74 134.02 340.82 C 134.01 339.90 133.32 338.47 132.50 337.64 C 131.68 336.82 131.01 335.55 131.03 334.82 C 131.05 333.93 131.50 334.08 132.40 335.26 C 133.52 336.74 133.71 331.43 133.55 302.01 L 133.36 267.00 L 142.93 266.91 C 148.19 266.87 156.55 266.66 161.50 266.45 C 171.49 266.02 172.24 266.01 174.75 266.14 C 175.71 266.19 191.27 265.94 209.31 265.57 C 227.36 265.20 242.98 265.18 244.03 265.51 C 245.88 266.10 245.93 267.83 245.72 323.67 L 245.50 381.22 L 240.00 381.53 C 228.89 382.15 178.19 383.76 159.50 384.08 C 146.93 384.30 144.65 384.63 145.56 386.10 C 145.87 386.60 145.68 387.00 145.14 387.00 C 144.61 387.00 144.00 386.51 143.81 385.92 Z M 249.08 375.42 C 249.13 374.25 249.36 374.01 249.68 374.81 C 249.97 375.53 249.94 376.40 249.60 376.73 C 249.27 377.06 249.04 376.47 249.08 375.42 Z M 131.16 317.00 C 131.16 315.62 131.38 315.06 131.66 315.75 C 131.94 316.44 131.94 317.56 131.66 318.25 C 131.38 318.94 131.16 318.38 131.16 317.00 Z M 113.70 310.00 C 113.44 308.07 113.29 297.73 113.36 287.00 L 113.50 267.50 L 120.00 267.21 L 126.50 266.92 L 126.67 288.08 C 126.77 299.72 127.09 310.23 127.40 311.44 C 127.93 313.57 127.68 313.65 121.06 313.58 L 114.17 313.50 L 113.70 310.00 Z M 131.16 309.00 C 131.16 307.62 131.38 307.06 131.66 307.75 C 131.94 308.44 131.94 309.56 131.66 310.25 C 131.38 310.94 131.16 310.38 131.16 309.00 Z M 249.08 296.42 C 249.13 295.25 249.36 295.01 249.68 295.81 C 249.97 296.53 249.94 297.40 249.60 297.73 C 249.27 298.06 249.04 297.47 249.08 296.42 Z M 129.16 294.00 C 129.16 292.62 129.38 292.06 129.66 292.75 C 129.94 293.44 129.94 294.56 129.66 295.25 C 129.38 295.94 129.16 295.38 129.16 294.00 Z M 249.08 274.42 C 249.13 273.25 249.36 273.01 249.68 273.81 C 249.97 274.53 249.94 275.40 249.60 275.73 C 249.27 276.06 249.04 275.47 249.08 274.42 Z M 116.00 264.00 C 116.00 263.45 116.48 263.00 117.06 263.00 C 117.64 263.00 117.84 263.45 117.50 264.00 C 117.16 264.55 116.68 265.00 116.44 265.00 C 116.20 265.00 116.00 264.55 116.00 264.00 Z M 113.75 262.42 C 113.34 262.01 113.00 251.21 113.00 238.43 L 113.00 215.19 L 118.25 214.73 C 121.14 214.48 124.62 213.91 126.00 213.46 C 128.08 212.79 128.31 212.89 127.36 214.08 C 126.58 215.05 126.27 222.30 126.36 237.20 C 126.52 261.55 127.04 259.96 118.82 259.99 C 116.27 260.00 115.05 260.49 114.82 261.59 C 114.65 262.46 114.16 262.84 113.75 262.42 Z M 133.02 205.45 C 132.99 175.46 132.93 150.60 132.87 150.21 C 132.81 149.82 132.82 147.43 132.88 144.90 L 133.00 140.31 L 189.00 140.31 L 245.00 140.31 L 245.07 154.41 C 245.12 162.16 245.32 188.40 245.52 212.72 C 245.73 237.04 245.58 257.13 245.20 257.36 C 244.81 257.58 226.71 258.07 204.98 258.44 C 183.24 258.80 158.17 259.30 149.26 259.54 L 133.06 259.98 L 133.02 205.45 Z M 262.75 258.21 C 254.35 257.97 252.99 257.69 252.95 256.21 C 252.92 255.27 252.70 228.79 252.47 197.37 L 252.04 140.25 L 308.27 140.37 L 364.50 140.50 L 364.76 198.75 C 364.90 230.79 364.90 257.03 364.76 257.07 C 364.62 257.10 344.93 257.33 321.00 257.58 C 297.07 257.83 276.38 258.14 275.00 258.27 C 273.62 258.39 268.11 258.37 262.75 258.21 Z M 129.08 221.42 C 129.13 220.25 129.36 220.01 129.68 220.81 C 129.97 221.53 129.94 222.40 129.60 222.73 C 129.27 223.06 129.04 222.47 129.08 221.42 Z M 129.02 211.48 C 129.72 210.64 130.49 210.16 130.74 210.41 C 131.44 211.10 130.03 213.00 128.82 213.00 C 128.16 213.00 128.23 212.43 129.02 211.48 Z M 126.23 188.83 C 125.59 188.19 122.35 187.67 119.03 187.67 L 113.00 187.67 L 113.00 163.89 C 113.00 142.02 113.43 137.79 115.46 139.78 C 115.86 140.17 118.29 140.50 120.85 140.50 L 125.50 140.50 L 126.00 163.50 C 126.28 176.15 126.89 187.29 127.36 188.25 C 128.35 190.27 127.90 190.50 126.23 188.83 Z M 368.00 162.12 C 368.00 161.57 368.45 160.84 369.00 160.50 C 369.55 160.16 370.00 160.33 370.00 160.88 C 370.00 161.43 369.55 162.16 369.00 162.50 C 368.45 162.84 368.00 162.67 368.00 162.12 Z M 177.00 136.44 C 177.00 135.58 177.45 135.16 178.00 135.50 C 178.55 135.84 179.00 136.54 179.00 137.06 C 179.00 137.58 178.55 138.00 178.00 138.00 C 177.45 138.00 177.00 137.30 177.00 136.44 Z M 197.00 137.62 C 197.00 137.41 197.68 136.68 198.50 136.00 C 199.73 134.98 200.00 135.05 200.00 136.38 C 200.00 137.27 199.32 138.00 198.50 138.00 C 197.68 138.00 197.00 137.83 197.00 137.62 Z M 291.50 137.00 C 291.16 136.45 291.36 136.00 291.94 136.00 C 292.52 136.00 293.00 136.45 293.00 137.00 C 293.00 137.55 292.80 138.00 292.56 138.00 C 292.32 138.00 291.84 137.55 291.50 137.00 Z M 296.00 137.00 C 296.00 136.45 296.42 136.00 296.94 136.00 C 297.46 136.00 298.16 136.45 298.50 137.00 C 298.84 137.55 298.42 138.00 297.56 138.00 C 296.70 138.00 296.00 137.55 296.00 137.00 Z M 317.00 137.00 C 317.00 136.45 317.48 136.00 318.06 136.00 C 318.64 136.00 318.84 136.45 318.50 137.00 C 318.16 137.55 317.68 138.00 317.44 138.00 C 317.20 138.00 317.00 137.55 317.00 137.00 Z M 135.98 133.20 L 132.46 132.91 L 132.48 126.56 L 132.50 120.21 L 153.79 119.48 C 165.50 119.08 175.23 118.92 175.41 119.13 C 175.59 119.33 175.96 122.65 176.22 126.50 L 176.70 133.50 L 158.10 133.50 C 147.87 133.50 137.92 133.37 135.98 133.20 Z M 200.42 127.20 C 200.47 123.52 200.80 120.27 201.18 119.99 C 201.69 119.59 241.27 119.53 244.09 119.92 C 244.42 119.96 244.78 122.92 244.89 126.48 L 245.10 132.97 L 223.63 132.88 C 211.82 132.83 201.75 133.04 201.25 133.35 C 200.74 133.66 200.38 130.96 200.42 127.20 Z M 292.84 133.50 C 292.56 133.23 283.31 132.98 272.27 132.96 L 252.20 132.91 L 251.85 129.18 C 251.65 127.12 251.72 124.11 252.01 122.47 L 252.52 119.50 L 273.31 119.72 L 294.11 119.93 L 294.41 126.97 C 294.69 133.32 294.29 134.96 292.84 133.50 Z M 319.66 126.77 L 319.87 120.03 L 342.69 119.84 C 364.71 119.65 365.49 119.71 365.20 121.57 C 365.03 122.63 364.94 125.42 364.99 127.76 C 365.06 130.43 364.61 132.20 363.80 132.49 C 363.08 132.74 352.81 133.07 340.97 133.22 L 319.44 133.50 L 319.66 126.77 Z M 247.21 121.46 C 246.13 120.24 246.25 120.00 247.96 120.00 C 249.11 120.00 250.00 120.66 250.00 121.50 C 250.00 123.38 248.89 123.36 247.21 121.46 Z M 128.50 121.00 C 128.16 120.45 128.36 120.00 128.94 120.00 C 129.52 120.00 130.00 120.45 130.00 121.00 C 130.00 121.55 129.80 122.00 129.56 122.00 C 129.32 122.00 128.84 121.55 128.50 121.00 Z M 134.00 111.00 C 133.55 110.72 133.03 89.24 132.84 63.25 L 132.50 16.00 L 248.25 16.00 L 364.00 16.00 L 364.00 63.88 L 364.00 111.77 L 249.41 111.63 C 186.38 111.56 134.45 111.27 134.00 111.00 Z M 9.73 55.75 C 10.27 55.06 11.24 51.58 11.89 48.00 C 14.13 35.71 13.95 36.15 16.82 35.70 C 19.49 35.28 19.49 35.28 17.17 34.50 C 14.97 33.77 14.87 33.40 15.52 27.86 C 16.15 22.44 16.05 22.00 14.20 22.00 C 12.63 22.00 11.94 23.07 11.00 27.01 C 10.34 29.76 9.08 32.42 8.20 32.91 C 6.99 33.58 6.87 34.14 7.69 35.15 C 8.39 36.01 8.51 37.94 8.01 40.50 C 7.58 42.70 7.18 43.49 7.11 42.25 C 6.98 39.68 4.52 39.21 3.61 41.58 C 2.42 44.67 3.00 47.19 5.00 47.71 C 6.11 48.00 7.00 49.07 7.00 50.12 C 7.00 52.13 5.52 52.65 4.50 51.00 C 3.74 49.77 2.00 49.68 2.00 50.86 C 2.00 51.92 6.98 57.00 8.01 57.00 C 8.42 57.00 9.20 56.44 9.73 55.75 Z" fill="none" stroke="rgba(255,255,255,0.92)" stroke-width="1.5" stroke-linejoin="round" fill-rule="evenodd"/>
</svg>
