<svg xmlns="http://www.w3.org/2000/svg" viewBox="0 0 100 100" width="100" height="100">
  <path d="M 0.00 50.00 L 0.00 0.00 L 50.00 0.00 L 100.00 0.00 L 100.00 50.00 L 100.00 100.00 L 50.00 100.00 L 0.00 100.00 L 0.00 50.00 Z M 12.21 52.34 C 12.05 28.33 12.27 8.35 12.71 7.93 C 13.14 7.52 29.36 6.85 48.75 6.46 L 84.00 5.74 L 84.00 50.87 L 84.00 96.00 L 87.00 96.00 L 90.00 96.00 L 90.00 78.50 L 90.00 61.00 L 93.00 61.00 L 96.00 61.00 L 96.00 51.00 L 96.00 41.00 L 93.00 41.00 L 90.00 41.00 L 90.00 22.89 L 90.00 4.78 L 92.44 5.40 C 93.78 5.73 95.16 5.55 95.50 4.99 C 95.92 4.31 81.25 4.06 50.82 4.24 L 5.50 4.50 L 5.50 46.50 C 5.50 98.48 5.31 96.00 9.36 96.00 L 12.50 96.00 L 12.21 52.34 Z M 95.27 95.34 C 94.59 95.07 93.24 95.05 92.27 95.31 C 91.30 95.56 91.85 95.78 93.50 95.81 C 95.15 95.83 95.95 95.62 95.27 95.34 Z" fill="none" stroke="rgba(255,255,255,0.92)" stroke-width="1.2" stroke-linejoin="round" fill-rule="evenodd"/>
</svg>
