<svg xmlns="http://www.w3.org/2000/svg" viewBox="0 0 100 100" width="100" height="100">
  <path d="M 0.00 50.00 L 0.00 0.00 L 50.00 0.00 L 100.00 0.00 L 100.00 50.00 L 100.00 100.00 L 50.00 100.00 L 0.00 100.00 L 0.00 50.00 Z M 96.00 93.50 L 96.00 91.00 L 82.25 90.86 C 74.69 90.79 55.90 90.45 40.50 90.11 L 12.50 89.50 L 12.50 65.50 C 12.50 52.30 12.39 33.06 12.25 22.75 L 12.00 4.00 L 8.46 4.00 L 4.93 4.00 L 5.13 49.25 C 5.24 74.14 5.51 94.84 5.72 95.25 C 5.94 95.66 26.34 96.00 51.06 96.00 L 96.00 96.00 L 96.00 93.50 Z M 96.00 6.00 C 96.00 4.62 95.33 4.00 93.85 4.00 C 91.75 4.00 91.74 4.06 93.50 6.00 C 94.50 7.10 95.47 8.00 95.65 8.00 C 95.84 8.00 96.00 7.10 96.00 6.00 Z" fill="none" stroke="rgba(255,255,255,0.92)" stroke-width="1.2" stroke-linejoin="round" fill-rule="evenodd"/>
</svg>
