<svg xmlns="http://www.w3.org/2000/svg" viewBox="0 0 400 372" width="400" height="372">
  <path d="M 0.00 186.00 L 0.00 0.00 L 200.00 0.00 L 400.00 0.00 L 400.00 186.00 L 400.00 372.00 L 200.00 372.00 L 0.00 372.00 L 0.00 186.00 Z M 326.04 364.37 L 390.58 363.74 L 390.79 342.12 C 390.90 330.23 391.28 315.24 391.62 308.81 C 392.26 296.88 391.61 290.39 390.04 292.94 C 388.50 295.43 387.81 275.82 388.73 255.50 C 389.22 244.50 389.55 233.03 389.46 230.00 C 389.37 226.97 388.98 204.03 388.59 179.00 C 388.21 153.97 387.65 123.38 387.36 111.00 C 386.57 77.33 386.57 17.00 387.35 12.89 L 388.04 9.28 L 383.38 8.64 C 380.82 8.29 295.57 8.00 193.93 8.00 C 18.76 8.00 9.13 8.09 8.77 9.75 C 8.57 10.71 8.73 13.05 9.14 14.93 C 9.54 16.82 9.52 19.07 9.10 19.93 C 8.09 21.96 7.74 114.08 8.71 120.00 L 9.45 124.50 L 10.12 120.00 C 10.48 117.53 10.49 131.70 10.14 151.50 C 9.79 171.30 9.56 196.50 9.64 207.50 C 9.93 247.97 10.95 340.80 11.22 350.50 C 11.37 356.00 11.28 361.18 11.00 362.00 C 10.57 363.30 13.41 363.54 32.00 363.78 C 43.83 363.94 80.50 364.45 113.50 364.93 C 146.50 365.41 193.30 365.62 217.50 365.41 C 241.70 365.19 290.54 364.72 326.04 364.37 Z M 76.50 353.80 C 48.45 353.24 25.40 352.70 25.29 352.60 C 25.02 352.36 23.83 158.22 23.64 85.00 C 23.53 44.08 23.18 29.28 22.21 25.59 C 21.27 22.03 21.22 20.38 22.02 19.59 C 23.30 18.31 144.85 18.44 146.10 19.72 C 146.52 20.15 147.08 51.20 147.34 88.71 L 147.81 156.93 L 154.11 163.96 C 157.57 167.83 160.67 171.00 160.98 171.00 C 161.57 171.00 195.84 205.26 213.99 224.00 L 224.16 234.50 L 299.83 235.00 L 375.50 235.50 L 376.13 249.00 C 377.09 269.48 377.12 352.81 376.16 353.40 C 374.47 354.45 125.83 354.78 76.50 353.80 Z M 391.72 283.26 C 391.49 281.74 391.29 282.75 391.29 285.50 C 391.28 288.25 391.47 289.49 391.70 288.26 C 391.94 287.03 391.95 284.78 391.72 283.26 Z M 231.50 223.05 C 230.40 222.59 227.16 219.81 224.30 216.86 C 221.44 213.91 216.34 208.80 212.98 205.50 C 207.19 199.82 204.00 195.40 204.00 193.05 C 204.00 190.82 229.70 192.58 240.62 195.56 C 243.85 196.44 249.65 198.02 253.50 199.06 C 264.25 201.97 272.50 204.29 298.00 211.57 C 322.63 218.61 330.05 220.53 336.25 221.50 C 338.31 221.83 340.00 222.52 340.00 223.05 C 340.00 224.23 234.38 224.24 231.50 223.05 Z M 375.50 221.79 C 373.30 221.27 367.23 219.52 362.00 217.92 C 356.77 216.31 346.88 213.62 340.00 211.93 C 333.13 210.25 324.13 207.78 320.00 206.45 C 315.88 205.12 306.43 202.48 299.00 200.60 C 280.90 196.00 272.00 193.13 272.00 191.90 C 272.00 191.32 272.54 191.23 273.25 191.69 C 273.94 192.14 297.65 192.72 325.95 193.00 L 377.41 193.50 L 377.13 203.14 C 376.97 208.44 377.30 213.61 377.85 214.64 C 378.40 215.66 379.11 217.33 379.43 218.34 C 379.75 219.36 380.90 220.42 381.99 220.71 C 384.31 221.32 383.67 223.06 381.19 222.87 C 380.26 222.80 377.70 222.32 375.50 221.79 Z M 198.43 187.57 C 197.37 186.80 196.76 185.91 197.07 185.59 C 197.39 185.28 198.51 185.65 199.57 186.43 C 200.63 187.20 201.24 188.09 200.93 188.41 C 200.61 188.72 199.49 188.35 198.43 187.57 Z M 276.03 182.02 L 204.56 181.50 L 204.87 172.75 C 205.16 164.35 205.08 164.00 203.00 164.00 C 201.70 164.00 201.01 163.50 201.27 162.75 C 201.51 162.06 202.45 161.63 203.35 161.79 C 205.63 162.20 205.60 154.50 203.30 149.90 C 201.97 147.25 201.53 143.19 201.31 131.50 C 201.15 123.25 201.28 117.06 201.59 117.75 C 201.91 118.44 202.47 119.00 202.83 119.00 C 203.81 119.00 204.08 32.25 203.12 26.17 C 202.47 22.05 202.61 20.74 203.81 19.75 C 204.98 18.77 224.00 18.50 291.16 18.50 C 338.37 18.50 377.00 18.75 377.00 19.05 C 377.00 19.35 376.51 20.09 375.92 20.68 C 375.20 21.40 375.14 22.89 375.74 25.13 C 376.24 26.98 376.28 30.07 375.84 32.00 C 375.39 33.92 375.28 36.61 375.59 37.97 C 376.20 40.65 376.75 81.92 377.01 143.50 L 377.18 182.50 L 362.34 182.52 C 354.18 182.53 315.34 182.31 276.03 182.02 Z M 189.50 180.61 C 187.85 179.89 185.38 178.03 184.00 176.47 C 179.34 171.18 166.81 158.96 163.30 156.28 C 160.04 153.79 159.85 153.34 160.46 149.56 C 161.47 143.30 161.05 93.37 159.92 85.50 C 157.77 70.54 157.65 65.54 159.38 64.10 C 162.88 61.19 165.94 67.36 169.00 83.50 C 170.92 93.61 173.13 101.73 179.48 122.00 C 180.77 126.12 182.13 131.30 182.51 133.49 C 182.88 135.69 184.27 140.16 185.59 143.42 C 186.92 146.68 188.00 150.30 188.00 151.47 C 188.00 154.77 189.97 156.00 195.28 156.00 C 198.74 156.00 200.05 156.36 199.76 157.25 C 199.53 157.94 198.38 158.64 197.20 158.82 C 194.26 159.25 193.37 164.68 194.84 173.27 C 195.48 176.99 196.00 180.48 196.00 181.02 C 196.00 182.37 193.10 182.18 189.50 180.61 Z M 384.50 168.00 C 384.84 167.45 385.54 167.00 386.06 167.00 C 386.58 167.00 387.00 167.45 387.00 168.00 C 387.00 168.55 386.30 169.00 385.44 169.00 C 384.58 169.00 384.16 168.55 384.50 168.00 Z M 191.68 113.03 C 189.11 109.98 183.12 92.63 180.62 81.00 C 176.93 63.84 172.58 50.23 170.21 48.45 C 169.45 47.87 167.78 42.47 166.50 36.45 C 165.22 30.43 163.68 24.22 163.08 22.67 C 162.48 21.11 162.24 19.42 162.55 18.92 C 163.43 17.49 192.73 17.75 193.62 19.19 C 194.02 19.85 193.82 20.56 193.18 20.77 C 192.44 21.02 192.00 23.57 192.00 27.68 C 192.00 33.35 192.26 34.25 194.00 34.71 C 195.10 35.00 196.00 35.52 196.00 35.88 C 196.00 36.23 195.10 37.08 194.00 37.77 C 192.16 38.92 192.00 40.10 192.00 52.66 C 192.00 67.09 194.16 89.81 196.64 101.50 C 199.59 115.39 199.59 116.00 196.72 116.00 C 195.13 116.00 193.24 114.89 191.68 113.03 Z M 199.16 50.00 C 199.16 48.62 199.38 48.06 199.66 48.75 C 199.94 49.44 199.94 50.56 199.66 51.25 C 199.38 51.94 199.16 51.38 199.16 50.00 Z M 378.50 41.00 C 378.84 40.45 379.54 40.00 380.06 40.00 C 380.58 40.00 381.00 40.45 381.00 41.00 C 381.00 41.55 380.30 42.00 379.44 42.00 C 378.58 42.00 378.16 41.55 378.50 41.00 Z M 198.68 38.89 C 198.06 36.51 198.79 34.00 200.11 34.00 C 201.27 34.00 201.27 39.71 200.11 40.43 C 199.63 40.73 198.98 40.04 198.68 38.89 Z M 243.75 14.26 C 246.64 14.06 251.36 14.06 254.25 14.26 C 257.14 14.46 254.78 14.63 249.00 14.63 C 243.22 14.63 240.86 14.46 243.75 14.26 Z" fill="none" stroke="rgba(255,255,255,0.92)" stroke-width="1.5" stroke-linejoin="round" fill-rule="evenodd"/>
</svg>
