<svg xmlns="http://www.w3.org/2000/svg" viewBox="0 0 100 100" width="100" height="100">
  <path d="M 0.00 50.00 L 0.00 0.00 L 50.00 0.00 L 100.00 0.00 L 100.00 50.00 L 100.00 100.00 L 50.00 100.00 L 0.00 100.00 L 0.00 50.00 Z M 11.83 52.99 L 11.50 9.97 L 42.50 10.24 L 73.50 10.50 L 73.69 32.00 C 73.79 43.83 73.90 60.50 73.94 69.05 L 74.00 84.60 L 79.08 90.30 C 83.83 95.63 84.45 96.00 88.65 96.00 C 93.70 96.00 93.97 96.72 85.56 88.07 L 80.62 82.99 L 80.46 66.25 C 80.38 57.04 79.95 46.01 79.51 41.75 C 78.99 36.65 79.07 34.00 79.74 34.00 C 81.72 34.00 82.99 36.75 84.39 44.08 C 85.67 50.75 87.46 57.75 92.67 76.50 C 93.59 79.80 94.71 82.93 95.17 83.45 C 96.66 85.16 96.14 61.17 94.62 58.20 C 93.86 56.72 92.27 51.45 91.10 46.50 C 88.38 35.00 85.99 26.77 85.00 25.50 C 84.57 24.95 83.67 21.81 82.99 18.53 C 82.32 15.24 81.54 11.98 81.28 11.28 C 80.91 10.31 82.64 10.00 88.39 10.00 L 96.00 10.00 L 96.00 6.99 L 96.00 3.98 L 50.25 4.24 L 4.50 4.50 L 4.28 35.00 C 4.15 53.49 4.42 64.71 4.96 63.50 C 5.50 62.29 5.64 68.30 5.31 78.75 L 4.77 96.00 L 8.46 96.00 L 12.15 96.00 L 11.83 52.99 Z" fill="none" stroke="rgba(255,255,255,0.92)" stroke-width="1.2" stroke-linejoin="round" fill-rule="evenodd"/>
</svg>
