<svg xmlns="http://www.w3.org/2000/svg" viewBox="0 0 100 100" width="100" height="100">
  <path d="M 0.00 50.00 L 0.00 0.00 L 50.00 0.00 L 100.00 0.00 L 100.00 50.00 L 100.00 100.00 L 50.00 100.00 L 0.00 100.00 L 0.00 50.00 Z M 95.78 76.75 C 96.10 63.60 95.90 57.58 95.10 56.62 C 94.29 55.65 94.11 48.42 94.48 31.41 C 94.77 18.30 94.74 6.77 94.43 5.78 C 94.09 4.72 92.89 4.00 91.43 4.00 C 89.11 4.00 89.00 4.29 89.00 10.43 C 89.00 14.94 89.47 17.33 90.57 18.43 C 91.44 19.29 91.71 20.00 91.18 20.00 C 90.36 20.00 57.73 10.45 41.64 5.50 C 38.64 4.58 33.07 4.03 27.14 4.08 L 17.50 4.15 L 23.50 5.96 C 26.80 6.96 37.79 10.30 47.91 13.38 C 58.04 16.47 67.18 19.00 68.22 19.00 C 69.26 19.00 69.87 19.40 69.57 19.88 C 69.27 20.37 57.15 20.57 42.26 20.32 L 15.50 19.88 L 9.75 13.86 L 4.00 7.84 L 4.00 12.71 C 4.00 17.13 4.40 17.98 8.28 21.78 L 12.55 25.98 L 50.03 26.24 L 87.50 26.50 L 87.76 58.25 L 88.03 90.00 L 74.68 90.00 C 67.33 90.00 48.43 90.30 32.66 90.66 L 4.00 91.32 L 4.00 93.67 L 4.00 96.02 L 49.66 95.76 L 95.32 95.50 L 95.78 76.75 Z" fill="none" stroke="rgba(255,255,255,0.92)" stroke-width="1.2" stroke-linejoin="round" fill-rule="evenodd"/>
</svg>
