<svg xmlns="http://www.w3.org/2000/svg" viewBox="0 0 400 283" width="400" height="283">
  <path d="M 0.00 141.50 L 0.00 0.00 L 200.00 0.00 L 400.00 0.00 L 400.00 141.50 L 400.00 283.00 L 200.00 283.00 L 0.00 283.00 L 0.00 141.50 Z M 125.00 276.49 C 161.03 276.16 197.03 275.73 205.00 275.53 C 212.97 275.32 241.55 274.88 268.50 274.54 C 295.45 274.20 324.48 273.73 333.00 273.49 C 360.65 272.72 387.42 271.81 390.97 271.52 L 394.45 271.24 L 394.77 138.66 L 395.09 6.08 L 370.80 6.51 C 357.43 6.75 305.55 6.95 255.50 6.95 C 165.83 6.95 21.62 8.53 11.12 9.62 L 5.74 10.18 L 6.39 117.34 C 6.75 176.28 7.15 236.48 7.27 251.12 L 7.50 277.74 L 33.50 277.41 C 47.80 277.23 88.97 276.81 125.00 276.49 Z M 14.51 270.01 C 14.33 269.72 14.03 242.03 13.84 208.49 L 13.50 147.50 L 16.50 147.30 C 18.15 147.19 45.22 146.97 76.66 146.80 L 133.83 146.50 L 134.16 208.00 L 134.50 269.50 L 106.50 269.72 C 91.10 269.84 64.18 270.07 46.67 270.24 C 29.16 270.41 14.69 270.31 14.51 270.01 Z M 142.50 269.28 C 141.87 268.79 141.37 251.71 141.14 223.00 C 140.94 197.97 140.72 170.18 140.64 161.24 C 140.51 147.13 140.69 145.05 141.99 145.56 C 143.70 146.22 195.49 146.14 234.75 145.42 C 259.44 144.96 261.00 145.04 261.05 146.72 C 261.58 167.18 261.05 266.35 260.40 266.98 C 259.90 267.46 241.28 268.11 219.00 268.43 C 196.72 268.75 170.62 269.25 161.00 269.54 C 151.38 269.83 143.05 269.71 142.50 269.28 Z M 270.29 266.97 L 268.08 266.10 L 268.29 205.90 L 268.50 145.71 L 276.50 145.40 C 280.90 145.22 306.77 144.84 334.00 144.55 C 361.23 144.25 384.52 143.73 385.77 143.38 L 388.05 142.75 L 387.97 203.88 L 387.89 265.00 L 381.19 265.17 C 377.51 265.26 372.70 265.41 370.50 265.50 C 368.30 265.59 347.60 265.97 324.50 266.36 C 301.40 266.74 280.25 267.23 277.50 267.45 C 274.75 267.67 271.51 267.46 270.29 266.97 Z M 77.68 140.90 C 81.77 139.72 87.78 132.70 88.64 128.10 C 89.07 125.82 88.76 122.98 87.78 120.26 L 86.25 116.00 L 108.37 115.99 C 120.54 115.99 143.44 115.70 159.26 115.34 L 188.02 114.70 L 186.51 118.32 C 185.68 120.31 185.00 123.32 185.00 125.01 C 185.00 128.40 188.47 136.00 190.02 136.00 C 190.56 136.00 191.00 136.68 191.00 137.50 C 191.00 138.32 190.44 139.00 189.75 139.00 C 189.06 139.01 177.65 139.12 164.40 139.25 L 140.29 139.50 L 140.57 133.00 C 140.72 129.43 140.59 124.36 140.29 121.75 C 139.78 117.31 139.55 117.00 136.87 117.00 L 134.00 117.00 L 133.87 124.75 C 133.80 129.01 133.69 134.05 133.62 135.95 L 133.50 139.39 L 108.50 139.52 C 91.56 139.62 82.80 140.04 81.32 140.83 C 80.11 141.47 78.09 141.96 76.82 141.91 C 74.93 141.84 75.08 141.65 77.68 140.90 Z M 13.43 139.89 C 12.98 139.16 12.95 136.14 13.27 126.00 L 13.50 118.50 L 10.01 118.79 C 7.44 119.00 6.82 118.78 7.65 117.95 C 8.39 117.21 17.56 116.63 34.54 116.26 L 60.32 115.69 L 59.56 118.09 C 57.03 126.21 57.82 131.67 62.16 136.01 C 63.86 137.70 65.07 139.26 64.86 139.47 C 64.21 140.13 13.83 140.53 13.43 139.89 Z M 208.00 138.82 C 208.00 138.43 208.92 137.47 210.04 136.68 C 212.90 134.68 216.00 128.21 216.00 124.24 C 216.00 122.40 215.31 119.57 214.47 117.95 L 212.95 115.00 L 236.90 115.00 L 260.85 115.00 L 261.17 122.75 C 261.35 127.01 261.27 132.28 261.00 134.45 L 260.50 138.40 L 238.00 138.67 C 225.62 138.82 213.81 139.07 211.75 139.24 C 209.69 139.40 208.00 139.21 208.00 138.82 Z M 272.91 138.20 L 268.33 137.90 L 267.65 76.87 C 267.28 43.30 267.21 15.47 267.49 15.02 C 267.77 14.56 286.79 14.12 309.75 14.03 C 332.71 13.94 359.45 13.71 369.18 13.52 C 383.95 13.23 386.94 13.41 387.41 14.63 C 387.99 16.13 388.31 136.02 387.74 136.59 C 387.05 137.28 281.51 138.76 272.91 138.20 Z M 307.74 122.84 C 316.75 117.90 325.06 110.41 327.48 105.05 L 329.32 100.96 L 332.33 107.03 C 336.09 114.61 342.05 121.48 347.13 124.07 C 352.15 126.63 364.66 128.22 373.25 127.39 C 381.32 126.61 381.21 127.02 377.08 113.09 C 371.40 93.99 363.63 82.10 354.32 78.27 C 351.95 77.30 350.02 76.28 350.03 76.00 C 350.05 75.72 352.80 73.93 356.15 72.01 C 362.91 68.14 371.54 59.33 373.75 54.06 C 375.63 49.56 376.30 38.48 375.29 28.50 C 374.50 20.66 374.43 20.50 371.84 20.67 C 367.75 20.95 352.47 27.86 344.56 33.02 C 337.07 37.92 330.32 44.88 329.35 48.72 C 328.48 52.21 327.37 51.49 324.72 45.70 C 319.63 34.59 311.89 28.53 300.10 26.42 C 291.52 24.90 280.17 24.61 278.18 25.87 C 276.42 26.98 277.33 31.75 281.74 44.50 C 287.67 61.67 294.43 71.47 303.35 75.80 L 307.18 77.67 L 300.25 81.78 C 284.86 90.93 280.13 100.68 281.35 120.76 C 281.71 126.49 282.23 131.57 282.53 132.05 C 283.31 133.31 299.29 127.48 307.74 122.84 Z M 289.66 121.25 C 288.63 119.60 289.83 104.34 291.25 100.96 C 294.41 93.45 309.07 83.77 319.47 82.35 L 324.32 81.68 L 323.70 88.99 C 322.56 102.67 317.32 109.30 301.38 117.29 C 293.15 121.41 290.34 122.36 289.66 121.25 Z M 358.75 118.91 C 355.59 118.45 351.99 117.53 350.75 116.87 C 344.71 113.66 338.21 102.63 335.60 91.16 C 334.72 87.28 334.00 83.63 334.00 83.05 C 334.00 81.47 341.00 81.79 346.57 83.63 C 351.99 85.42 356.69 89.33 360.92 95.57 C 364.13 100.29 371.21 117.85 370.42 119.13 C 369.79 120.14 366.75 120.09 358.75 118.91 Z M 262.50 116.00 C 262.16 115.45 262.81 115.00 263.94 115.00 C 265.07 115.00 266.00 115.45 266.00 116.00 C 266.00 116.55 265.35 117.00 264.56 117.00 C 263.77 117.00 262.84 116.55 262.50 116.00 Z M 14.47 107.69 C 14.23 107.03 13.92 86.60 13.77 62.27 L 13.50 18.05 L 17.50 17.56 C 25.58 16.58 61.77 16.01 159.09 15.35 L 258.69 14.68 L 259.18 18.09 C 259.46 19.97 259.79 40.74 259.93 64.25 L 260.18 107.00 L 218.84 107.03 C 172.51 107.07 83.62 107.78 42.20 108.44 C 21.67 108.77 14.79 108.58 14.47 107.69 Z M 313.00 70.63 C 302.76 67.82 295.94 60.33 291.03 46.50 C 289.85 43.20 288.47 39.72 287.95 38.76 C 287.43 37.81 287.00 36.09 287.00 34.94 C 287.00 32.99 287.38 32.90 292.75 33.52 C 295.91 33.88 300.30 34.63 302.50 35.17 C 307.21 36.34 314.20 42.65 317.26 48.50 C 319.62 53.02 324.19 69.88 323.40 71.16 C 322.68 72.32 318.35 72.10 313.00 70.63 Z M 333.43 69.75 C 333.69 68.51 334.19 64.35 334.54 60.50 C 334.93 56.27 335.97 52.22 337.16 50.28 C 341.22 43.65 353.03 35.37 363.92 31.53 L 368.00 30.09 L 368.00 38.73 C 368.00 45.39 367.53 48.34 365.95 51.60 C 362.08 59.60 352.15 66.80 340.07 70.39 C 333.10 72.46 332.87 72.43 333.43 69.75 Z M 17.00 35.00 C 17.00 34.45 16.55 34.00 16.00 34.00 C 15.45 34.00 15.00 34.45 15.00 35.00 C 15.00 35.55 15.45 36.00 16.00 36.00 C 16.55 36.00 17.00 35.55 17.00 35.00 Z" fill="none" stroke="rgba(255,255,255,0.92)" stroke-width="1.5" stroke-linejoin="round" fill-rule="evenodd"/>
</svg>
