<svg xmlns="http://www.w3.org/2000/svg" viewBox="0 0 100 100" width="100" height="100">
  <path d="M 0.00 50.00 L 0.00 0.00 L 50.00 0.00 L 100.00 0.00 L 100.00 50.00 L 100.00 100.00 L 50.00 100.00 L 0.00 100.00 L 0.00 50.00 Z M 96.00 50.13 L 96.00 4.26 L 88.25 4.50 C 83.99 4.63 63.29 4.82 42.25 4.91 L 4.00 5.08 L 4.00 7.62 L 4.00 10.16 L 47.25 9.87 L 90.50 9.57 L 90.76 52.79 L 91.02 96.00 L 93.51 96.00 L 96.00 96.00 L 96.00 50.13 Z M 29.83 87.23 C 37.37 83.57 46.00 76.26 46.00 73.54 C 46.00 70.79 47.45 71.90 49.90 76.52 C 52.98 82.32 58.82 87.58 63.68 88.93 C 65.78 89.51 71.44 89.99 76.25 89.99 C 86.48 90.00 86.33 90.25 82.64 79.43 C 77.80 65.18 72.81 58.23 65.14 55.06 L 61.88 53.71 L 67.19 50.86 C 73.91 47.25 79.67 40.95 81.11 35.63 C 82.06 32.09 81.62 15.29 80.55 14.21 C 79.84 13.50 67.07 18.39 61.42 21.53 C 54.67 25.28 47.00 32.18 47.00 34.50 C 47.00 37.03 45.45 36.17 43.81 32.72 C 38.95 22.53 32.65 18.97 18.16 18.23 L 7.70 17.70 L 8.36 21.88 C 9.31 27.78 13.74 38.61 17.63 44.50 C 20.79 49.30 26.32 54.00 28.81 54.00 C 31.22 54.00 29.86 55.56 25.74 57.50 C 19.86 60.27 13.37 67.00 12.08 71.65 C 10.91 75.88 10.65 86.02 11.61 90.79 L 12.22 93.83 L 17.36 92.31 C 20.19 91.48 25.80 89.19 29.83 87.23 Z M 17.00 79.95 C 17.00 73.48 18.40 69.79 22.15 66.36 C 25.60 63.22 34.22 59.15 39.07 58.37 L 43.31 57.69 L 42.75 63.13 C 42.10 69.41 39.35 74.63 34.97 77.86 C 31.43 80.48 20.09 86.00 18.25 86.00 C 17.39 86.00 17.00 84.12 17.00 79.95 Z M 68.56 83.94 C 65.85 83.48 62.48 82.26 61.08 81.21 C 56.55 77.83 51.00 66.22 51.00 60.13 C 51.00 58.50 51.61 58.00 53.63 58.00 C 62.74 58.00 70.94 65.08 75.42 76.79 C 76.84 80.50 78.00 83.87 78.00 84.27 C 78.00 85.15 75.19 85.05 68.56 83.94 Z M 33.76 49.58 C 28.08 47.55 25.26 45.36 22.33 40.72 C 18.48 34.63 14.77 24.76 16.03 23.98 C 16.60 23.63 19.80 23.71 23.15 24.17 C 29.65 25.06 34.17 27.94 37.45 33.30 C 38.94 35.72 43.00 48.12 43.00 50.25 C 43.00 51.42 37.89 51.05 33.76 49.58 Z M 50.57 44.75 C 50.94 41.31 52.11 37.07 53.16 35.32 C 55.41 31.59 63.59 25.92 70.86 23.06 L 76.00 21.03 L 76.00 27.11 C 76.00 34.92 73.89 39.32 68.08 43.61 C 64.52 46.24 53.10 51.00 50.35 51.00 C 50.10 51.00 50.20 48.19 50.57 44.75 Z" fill="none" stroke="rgba(255,255,255,0.92)" stroke-width="1.2" stroke-linejoin="round" fill-rule="evenodd"/>
</svg>
