<svg xmlns="http://www.w3.org/2000/svg" viewBox="0 0 100 100" width="100" height="100">
  <path d="M 0.00 50.00 L 0.00 0.00 L 50.00 0.00 L 100.00 0.00 L 100.00 50.00 L 100.00 100.00 L 50.00 100.00 L 0.00 100.00 L 0.00 50.00 Z M 62.17 93.98 C 86.29 93.90 94.96 93.56 95.29 92.68 C 95.54 92.03 95.59 81.38 95.40 69.00 C 95.21 56.62 95.05 36.94 95.03 25.25 L 95.00 4.00 L 92.39 4.00 L 89.78 4.00 L 90.33 45.29 C 90.64 67.99 90.57 87.06 90.19 87.67 C 89.72 88.42 76.22 88.93 47.00 89.30 C 23.62 89.59 4.39 89.87 4.25 89.91 C 3.45 90.19 4.18 93.89 5.10 94.20 C 5.70 94.40 11.44 94.46 17.85 94.33 C 24.26 94.20 44.20 94.05 62.17 93.98 Z M 46.98 82.75 C 46.99 82.34 47.00 79.27 47.00 75.93 C 47.00 69.91 46.98 69.87 44.25 70.18 C 41.57 70.49 41.50 70.67 41.45 77.00 C 41.42 80.58 41.53 83.80 41.70 84.16 C 42.10 85.03 46.96 83.73 46.98 82.75 Z M 24.44 70.86 C 28.83 65.97 28.97 65.63 27.37 63.85 C 25.75 62.07 25.59 62.06 23.73 63.74 C 22.66 64.71 20.43 67.20 18.79 69.27 C 16.35 72.35 16.02 73.32 17.02 74.52 C 18.85 76.73 19.41 76.45 24.44 70.86 Z M 73.99 71.01 C 74.89 69.34 74.53 68.55 71.78 66.07 C 66.36 61.18 64.23 60.34 62.25 62.32 C 60.67 63.90 60.87 64.28 65.53 68.46 C 71.12 73.46 72.46 73.87 73.99 71.01 Z M 54.99 61.63 C 59.68 58.52 63.97 50.69 63.99 45.20 C 64.01 39.01 59.30 32.24 52.58 28.79 C 49.61 27.27 47.31 26.89 43.08 27.20 C 35.21 27.79 29.58 31.55 26.44 38.31 C 23.74 44.10 23.55 45.84 25.04 51.22 C 28.44 63.44 44.05 68.87 54.99 61.63 Z M 41.00 58.82 C 26.93 54.87 26.89 36.06 40.95 32.90 C 46.05 31.75 52.86 34.33 55.54 38.42 C 62.31 48.75 52.78 62.12 41.00 58.82 Z M 19.00 46.00 C 19.00 43.03 18.95 43.00 13.43 43.00 C 6.97 43.00 4.00 44.27 4.00 47.04 C 4.00 48.81 4.71 49.00 11.50 49.00 L 19.00 49.00 L 19.00 46.00 Z M 84.00 45.38 C 84.00 42.96 83.87 42.92 76.75 43.21 C 69.85 43.49 69.49 43.62 69.21 46.00 C 68.91 48.50 68.92 48.50 76.46 48.17 C 83.72 47.85 84.00 47.75 84.00 45.38 Z M 26.31 28.87 C 27.13 27.57 26.56 26.56 23.50 23.87 C 21.38 22.02 19.00 19.85 18.20 19.05 C 16.93 17.78 16.50 17.90 14.83 19.96 L 12.92 22.32 L 17.71 26.63 C 22.70 31.12 24.59 31.61 26.31 28.87 Z M 67.79 24.71 C 72.42 20.00 72.79 18.90 70.38 16.90 C 68.96 15.73 68.15 16.24 63.93 20.98 C 60.27 25.08 59.36 26.72 60.17 27.70 C 61.91 29.81 63.34 29.25 67.79 24.71 Z M 45.42 21.39 C 47.60 20.55 47.76 7.00 45.58 7.00 C 41.62 7.00 41.00 8.09 41.00 15.11 C 41.00 22.22 41.48 22.90 45.42 21.39 Z" fill="none" stroke="rgba(255,255,255,0.92)" stroke-width="1.2" stroke-linejoin="round" fill-rule="evenodd"/>
</svg>
