<svg xmlns="http://www.w3.org/2000/svg" viewBox="0 0 100 100" width="100" height="100">
  <path d="M 0.00 50.00 L 0.00 0.00 L 50.00 0.00 L 100.00 0.00 L 100.00 50.00 L 100.00 100.00 L 50.00 100.00 L 0.00 100.00 L 0.00 50.00 Z M 9.50 88.75 L 9.50 82.00 L 27.08 82.00 L 44.66 82.00 L 44.21 87.50 C 43.56 95.38 44.36 96.00 55.17 96.00 L 64.10 96.00 L 65.52 92.62 C 66.55 90.13 66.67 88.34 65.96 85.87 C 65.43 84.03 65.00 82.40 65.00 82.26 C 65.00 82.12 71.97 82.00 80.50 82.00 L 96.00 82.00 L 96.00 78.86 L 96.00 75.72 L 53.60 76.41 L 11.19 77.10 L 10.80 71.30 C 10.58 68.11 10.28 53.46 10.14 38.75 L 9.87 12.00 L 26.19 11.90 C 35.16 11.85 43.40 11.71 44.50 11.59 C 45.60 11.47 57.64 11.29 71.25 11.18 L 96.00 11.00 L 96.00 8.14 L 96.00 5.27 L 63.25 5.74 C 45.24 6.00 24.65 6.50 17.50 6.86 L 4.50 7.50 L 4.50 39.50 C 4.49 78.70 4.72 82.96 6.89 83.12 C 8.22 83.21 8.20 83.31 6.75 83.69 C 5.33 84.06 5.00 85.27 5.00 90.14 C 5.00 95.79 5.13 96.12 7.25 95.82 C 9.33 95.52 9.50 94.99 9.50 88.75 Z" fill="none" stroke="rgba(255,255,255,0.92)" stroke-width="1.2" stroke-linejoin="round" fill-rule="evenodd"/>
</svg>
