<svg xmlns="http://www.w3.org/2000/svg" viewBox="0 0 400 280" width="400" height="280">
  <path d="M 0.00 140.00 L 0.00 0.00 L 200.00 0.00 L 400.00 0.00 L 400.00 140.00 L 400.00 280.00 L 200.00 280.00 L 0.00 280.00 L 0.00 140.00 Z M 158.50 273.36 C 186.00 273.12 209.06 272.94 209.75 272.96 C 210.44 272.98 211.56 273.02 212.25 273.04 C 212.94 273.07 236.22 272.82 264.00 272.49 C 291.77 272.16 332.26 271.79 353.96 271.67 L 393.42 271.44 L 394.24 267.51 C 394.69 265.35 394.80 262.91 394.48 262.09 C 394.17 261.27 393.92 250.34 393.94 237.80 C 393.96 224.66 393.58 215.00 393.05 215.00 C 392.50 215.00 392.50 213.74 393.05 211.83 C 393.55 210.08 393.77 200.30 393.54 190.08 C 393.31 179.86 393.04 163.26 392.95 153.19 L 392.78 134.88 L 330.64 135.49 C 296.46 135.82 267.76 136.32 266.86 136.58 C 265.04 137.12 265.21 145.21 265.07 50.79 L 265.00 7.09 L 219.25 7.50 C 194.09 7.73 138.64 7.93 96.03 7.95 C 53.43 7.97 15.68 8.28 12.15 8.65 L 5.74 9.30 L 6.45 135.90 C 7.05 241.04 7.33 266.88 7.97 274.89 C 7.99 275.10 30.61 274.94 58.25 274.53 C 85.89 274.12 131.00 273.59 158.50 273.36 Z M 15.68 266.27 C 15.42 265.85 14.92 221.18 14.57 167.00 C 14.21 112.82 13.72 57.48 13.49 44.00 C 13.25 30.52 13.39 18.97 13.79 18.32 C 14.33 17.46 24.04 16.95 48.52 16.48 C 67.21 16.12 82.72 15.81 83.00 15.79 C 83.28 15.78 87.64 15.82 92.69 15.88 L 101.88 16.00 L 102.09 78.75 C 102.21 113.26 102.40 146.68 102.52 153.00 C 103.10 182.69 103.19 264.88 102.65 265.75 C 101.92 266.93 16.39 267.44 15.68 266.27 Z M 111.00 243.00 C 111.00 220.95 111.46 216.70 113.50 220.00 C 113.84 220.55 116.63 221.00 119.70 221.00 C 125.05 221.00 125.49 220.79 130.14 216.14 C 132.84 213.44 135.00 210.36 135.00 209.20 C 135.00 208.06 135.45 206.84 136.00 206.50 C 137.59 205.52 137.17 210.97 135.53 212.61 C 134.31 213.83 134.07 218.39 134.14 239.46 C 134.18 253.42 133.91 265.33 133.55 265.92 C 133.14 266.59 128.68 267.00 121.94 267.00 L 111.00 267.00 L 111.00 243.00 Z M 141.55 266.08 C 140.25 263.97 138.98 145.68 140.25 144.42 C 140.64 144.03 160.20 143.57 183.73 143.39 C 207.25 143.22 233.93 142.85 243.00 142.56 L 259.50 142.05 L 259.50 186.77 C 259.50 211.37 259.73 238.86 260.00 247.85 C 260.44 262.39 260.32 264.30 258.84 265.09 C 256.64 266.26 142.26 267.23 141.55 266.08 Z M 266.10 206.13 C 265.99 173.33 265.67 145.55 265.38 144.39 C 264.99 142.85 265.40 142.13 266.88 141.74 C 267.99 141.45 269.04 141.50 269.20 141.86 C 269.37 142.21 279.40 142.27 291.50 141.98 C 303.60 141.69 313.90 141.65 314.40 141.88 C 314.89 142.11 318.49 142.21 322.40 142.09 C 326.30 141.98 341.92 141.76 357.09 141.60 C 372.27 141.44 385.17 141.01 385.76 140.65 C 386.52 140.18 386.90 153.86 387.06 187.24 C 387.18 213.23 387.33 240.32 387.39 247.43 C 387.46 254.57 387.04 261.28 386.47 262.43 C 385.47 264.45 384.70 264.50 354.64 264.70 C 337.70 264.81 310.89 265.09 295.06 265.33 L 266.29 265.77 L 266.10 206.13 Z M 329.62 247.70 L 329.74 237.89 L 326.12 238.20 L 322.50 238.50 L 322.21 248.31 L 321.93 258.13 L 325.71 257.81 L 329.50 257.50 L 329.62 247.70 Z M 299.39 239.14 C 302.47 235.36 305.00 231.93 305.00 231.51 C 305.00 230.88 301.14 227.00 300.52 227.00 C 300.42 227.00 297.26 230.43 293.50 234.61 L 286.65 242.23 L 289.08 244.09 C 290.41 245.12 292.01 245.97 292.64 245.98 C 293.26 245.99 296.30 242.91 299.39 239.14 Z M 365.39 239.33 L 367.29 236.74 L 363.39 233.35 C 361.25 231.48 358.01 228.76 356.19 227.31 L 352.88 224.67 L 350.25 227.29 L 347.63 229.92 L 352.52 234.21 C 355.21 236.57 358.27 239.48 359.32 240.67 C 361.53 243.19 362.77 242.92 365.39 239.33 Z M 334.81 229.14 C 347.88 223.83 355.38 206.73 350.06 194.36 C 345.72 184.28 336.48 177.99 326.01 178.01 C 311.57 178.03 300.57 188.29 299.29 202.93 C 298.68 209.91 301.86 219.03 306.39 223.29 C 314.07 230.51 325.59 232.88 334.81 229.14 Z M 322.75 223.26 C 321.24 223.04 320.00 222.45 320.00 221.93 C 320.00 221.42 319.19 221.00 318.20 221.00 C 315.78 221.00 310.47 215.38 308.55 210.78 C 302.72 196.80 315.41 182.07 329.93 185.98 C 340.75 188.90 347.13 202.94 342.11 212.79 C 338.43 220.00 330.39 224.34 322.75 223.26 Z M 284.75 208.07 L 292.00 208.00 L 292.00 204.50 L 292.00 201.00 L 283.06 201.00 C 278.14 201.00 273.92 201.34 273.68 201.75 C 273.43 202.16 272.93 203.93 272.55 205.69 C 271.90 208.73 271.99 208.86 274.68 208.51 C 276.23 208.30 280.76 208.11 284.75 208.07 Z M 377.42 207.39 C 378.44 207.00 379.00 205.56 379.00 203.36 L 379.00 199.93 L 369.26 200.21 L 359.53 200.50 L 358.92 204.25 L 358.31 208.00 L 367.08 208.00 C 371.89 208.00 376.55 207.73 377.42 207.39 Z M 135.73 204.40 C 135.33 203.99 135.01 202.73 135.03 201.58 C 135.06 199.66 135.14 199.64 136.10 201.29 C 137.22 203.21 136.93 205.60 135.73 204.40 Z M 131.38 195.55 C 131.07 194.75 128.86 193.14 126.45 191.98 C 123.02 190.32 121.11 190.01 117.53 190.55 C 115.03 190.92 112.73 191.63 112.43 192.12 C 110.59 195.10 110.17 190.37 110.32 168.34 L 110.50 143.69 L 121.67 143.59 L 132.85 143.50 L 133.38 147.50 C 134.34 154.71 133.93 197.00 132.91 197.00 C 132.37 197.00 131.69 196.35 131.38 195.55 Z M 301.36 180.72 L 303.35 178.06 L 298.47 173.78 C 295.78 171.43 292.90 168.71 292.07 167.75 C 290.03 165.39 288.78 165.54 285.99 168.51 L 283.62 171.03 L 290.56 177.46 C 294.38 181.00 297.92 183.78 298.44 183.64 C 298.96 183.49 300.27 182.18 301.36 180.72 Z M 356.89 174.46 C 360.25 170.87 363.00 167.42 363.00 166.79 C 363.00 165.49 360.05 162.00 358.96 162.00 C 358.56 162.00 355.24 165.41 351.60 169.57 L 344.96 177.15 L 347.23 179.04 C 348.48 180.08 349.79 180.95 350.14 180.97 C 350.48 180.99 353.52 178.06 356.89 174.46 Z M 328.79 159.75 C 329.06 150.42 328.98 150.00 326.97 150.00 C 321.77 150.00 321.00 151.43 321.00 161.10 L 321.00 170.12 L 324.75 169.81 L 328.50 169.50 L 328.79 159.75 Z M 110.82 141.46 C 109.93 140.09 109.49 90.18 110.36 89.30 C 110.73 88.94 111.57 89.17 112.22 89.82 C 112.87 90.47 115.62 91.00 118.33 91.00 C 123.75 91.00 128.69 88.58 131.71 84.43 C 133.45 82.04 133.49 82.78 133.32 109.08 C 133.22 123.99 132.96 136.37 132.74 136.59 C 132.52 136.81 128.33 137.18 123.42 137.41 C 118.51 137.64 113.97 137.86 113.32 137.91 C 112.67 137.96 111.99 139.01 111.82 140.25 C 111.64 141.49 111.19 142.03 110.82 141.46 Z M 144.50 140.00 C 144.84 139.45 145.32 139.00 145.56 139.00 C 145.80 139.00 146.00 139.45 146.00 140.00 C 146.00 140.55 145.52 141.00 144.94 141.00 C 144.36 141.00 144.16 140.55 144.50 140.00 Z M 140.02 136.54 C 139.37 134.84 139.00 112.27 139.00 74.38 L 139.00 14.90 L 142.47 13.45 C 146.46 11.78 150.41 11.53 149.50 13.00 C 149.16 13.55 149.78 14.00 150.88 14.00 C 151.98 14.00 153.16 13.55 153.50 13.00 C 154.50 11.38 157.01 11.82 156.36 13.50 C 155.57 15.55 157.61 15.39 159.77 13.23 C 161.28 11.72 161.90 11.65 164.02 12.72 C 166.97 14.21 193.79 14.50 198.70 13.09 C 200.46 12.58 202.03 12.49 202.20 12.88 C 202.36 13.28 205.79 13.34 209.82 13.03 C 213.84 12.72 217.35 12.69 217.62 12.95 C 218.05 13.39 241.91 13.13 254.19 12.56 L 258.88 12.35 L 258.96 74.42 L 259.04 136.50 L 227.27 136.71 C 209.80 136.83 183.80 136.98 169.50 137.04 C 153.40 137.12 143.03 137.56 142.27 138.19 C 141.36 138.95 140.76 138.51 140.02 136.54 Z M 136.00 85.00 C 136.00 83.90 136.41 83.00 136.91 83.00 C 137.40 83.00 137.58 83.90 137.29 85.00 C 137.00 86.10 136.59 87.00 136.38 87.00 C 136.17 87.00 136.00 86.10 136.00 85.00 Z M 128.19 64.39 C 124.04 60.21 119.38 59.23 113.98 61.39 C 111.77 62.28 109.72 63.00 109.43 63.00 C 108.51 63.00 109.20 12.00 110.12 11.42 C 110.61 11.13 111.00 11.58 111.00 12.44 C 111.00 13.67 112.20 14.00 116.75 13.98 C 120.83 13.97 122.06 13.69 121.00 13.00 C 119.92 12.30 120.94 12.03 124.60 12.02 C 133.14 11.99 133.00 11.49 133.00 41.83 C 133.00 56.22 132.66 67.94 132.25 67.86 C 131.84 67.78 130.01 66.22 128.19 64.39 Z M 135.02 45.25 C 135.01 44.01 135.45 43.00 136.00 43.00 C 137.25 43.00 137.25 44.06 136.00 46.00 C 135.22 47.21 135.03 47.07 135.02 45.25 Z M 139.00 12.00 C 139.00 11.45 140.01 11.01 141.25 11.02 C 143.07 11.03 143.21 11.22 142.00 12.00 C 140.06 13.25 139.00 13.25 139.00 12.00 Z M 150.81 11.32 C 151.53 11.03 152.40 11.06 152.73 11.40 C 153.06 11.73 152.47 11.96 151.42 11.92 C 150.25 11.87 150.01 11.64 150.81 11.32 Z M 170.00 11.00 C 171.38 10.56 173.18 10.16 174.00 10.11 C 175.33 10.04 175.33 10.14 174.00 11.00 C 173.18 11.53 171.38 11.93 170.00 11.89 L 167.50 11.80 L 170.00 11.00 Z M 184.81 11.32 C 185.53 11.03 186.40 11.06 186.73 11.40 C 187.06 11.73 186.47 11.96 185.42 11.92 C 184.25 11.87 184.01 11.64 184.81 11.32 Z M 202.00 10.61 C 202.00 10.39 203.57 10.03 205.50 9.81 C 207.43 9.59 209.00 9.76 209.00 10.20 C 209.00 10.64 207.43 11.00 205.50 11.00 C 203.57 11.00 202.00 10.82 202.00 10.61 Z M 221.25 10.28 C 222.76 10.05 225.24 10.05 226.75 10.28 C 228.26 10.51 227.03 10.70 224.00 10.70 C 220.97 10.70 219.74 10.51 221.25 10.28 Z M 235.27 10.31 C 236.24 10.05 237.59 10.07 238.27 10.34 C 238.95 10.62 238.15 10.83 236.50 10.81 C 234.85 10.78 234.30 10.56 235.27 10.31 Z" fill="none" stroke="rgba(255,255,255,0.92)" stroke-width="1.5" stroke-linejoin="round" fill-rule="evenodd"/>
</svg>
