<svg xmlns="http://www.w3.org/2000/svg" viewBox="0 0 100 100" width="100" height="100">
  <path d="M 0.00 50.00 L 0.00 0.00 L 50.00 0.00 L 100.00 0.00 L 100.00 50.00 L 100.00 100.00 L 50.00 100.00 L 0.00 100.00 L 0.00 50.00 Z M 5.12 88.78 L 5.17 82.30 L 16.34 81.65 C 22.48 81.30 30.55 81.01 34.29 81.00 C 40.68 81.00 41.01 81.11 40.04 82.93 C 38.51 85.78 38.77 91.23 40.56 93.78 C 41.96 95.77 42.97 96.00 50.53 96.00 L 58.95 96.00 L 60.57 92.87 C 62.13 89.85 62.12 86.45 60.53 82.75 C 59.84 81.12 61.03 81.00 77.89 81.00 L 96.00 81.00 L 96.00 43.00 L 96.00 5.00 L 50.00 5.00 L 4.00 5.00 L 4.00 8.00 L 4.00 11.00 L 49.46 11.00 L 94.92 11.00 L 94.71 43.24 L 94.50 75.49 L 89.00 75.65 C 85.97 75.74 65.61 75.86 43.75 75.91 L 4.00 76.00 L 4.00 86.17 C 4.00 91.76 4.24 96.09 4.54 95.80 C 4.83 95.50 5.09 92.34 5.12 88.78 Z" fill="none" stroke="rgba(255,255,255,0.92)" stroke-width="1.2" stroke-linejoin="round" fill-rule="evenodd"/>
</svg>
