<svg xmlns="http://www.w3.org/2000/svg" viewBox="0 0 100 100" width="100" height="100">
  <path d="M 0.00 50.00 L 0.00 0.00 L 50.00 0.00 L 100.00 0.00 L 100.00 50.00 L 100.00 100.00 L 50.00 100.00 L 0.00 100.00 L 0.00 50.00 Z M 10.23 54.65 C 9.93 30.71 10.09 13.07 10.60 12.76 C 11.10 12.46 26.01 11.92 43.75 11.56 L 76.00 10.91 L 76.21 29.21 C 76.33 39.27 76.47 50.88 76.53 55.00 C 76.58 59.12 76.71 70.04 76.81 79.25 L 77.00 96.00 L 79.75 96.00 L 82.50 96.00 L 82.20 80.07 L 81.91 64.13 L 87.43 64.71 C 95.35 65.52 96.00 64.71 96.00 53.91 C 96.00 45.94 95.79 44.96 93.89 43.94 C 91.76 42.80 87.00 43.04 83.73 44.46 C 82.06 45.19 81.97 44.17 82.23 27.87 L 82.50 10.50 L 87.50 9.74 C 90.25 9.32 93.29 8.96 94.25 8.93 C 95.21 8.90 96.00 8.23 96.00 7.44 C 96.00 5.80 99.75 5.90 43.52 6.00 C 22.63 6.04 5.13 6.47 4.64 6.96 C 4.13 7.47 4.07 26.43 4.50 51.92 L 5.24 96.00 L 8.00 96.00 L 10.76 96.00 L 10.23 54.65 Z" fill="none" stroke="rgba(255,255,255,0.92)" stroke-width="1.2" stroke-linejoin="round" fill-rule="evenodd"/>
</svg>
