<svg xmlns="http://www.w3.org/2000/svg" viewBox="0 0 100 100" width="100" height="100">
  <path d="M 0.00 50.00 L 0.00 0.00 L 50.00 0.00 L 100.00 0.00 L 100.00 50.00 L 100.00 100.00 L 50.00 100.00 L 0.00 100.00 L 0.00 50.00 Z M 9.70 95.20 C 10.37 94.78 10.92 93.55 10.92 92.47 C 10.93 91.39 10.95 72.67 10.96 50.88 L 10.97 11.26 L 13.87 10.68 C 15.46 10.36 32.00 10.04 50.63 9.98 C 99.08 9.81 96.00 10.02 96.00 6.92 L 96.00 4.34 L 51.34 4.66 C 26.78 4.84 6.44 5.23 6.13 5.54 C 5.83 5.84 5.62 10.01 5.67 14.80 C 5.73 19.58 5.82 39.81 5.89 59.75 C 6.00 96.91 6.07 97.52 9.70 95.20 Z M 85.19 95.25 C 78.98 95.08 69.08 95.08 63.19 95.25 C 57.31 95.43 62.40 95.57 74.50 95.57 C 86.60 95.57 91.41 95.43 85.19 95.25 Z M 8.50 89.00 C 8.16 88.45 8.36 88.00 8.94 88.00 C 9.52 88.00 10.00 88.45 10.00 89.00 C 10.00 89.55 9.80 90.00 9.56 90.00 C 9.32 90.00 8.84 89.55 8.50 89.00 Z M 74.09 78.43 C 84.28 76.56 92.19 72.46 94.60 67.81 C 97.48 62.23 94.24 49.20 87.97 41.23 C 84.22 36.47 75.99 31.08 69.31 29.02 C 56.21 24.97 44.19 26.92 33.77 34.79 C 28.76 38.58 26.79 40.93 23.84 46.66 C 19.28 55.54 18.07 63.24 20.45 68.26 C 22.44 72.46 29.07 76.31 37.00 77.89 C 40.02 78.49 43.40 79.16 44.50 79.37 C 49.63 80.38 66.35 79.85 74.09 78.43 Z M 38.05 71.94 C 33.16 70.66 29.61 69.05 27.71 67.24 C 25.11 64.78 24.88 64.05 25.42 60.00 C 26.83 49.43 36.05 37.88 45.68 34.59 C 55.41 31.28 68.01 33.00 76.50 38.82 C 85.25 44.81 92.07 60.19 88.44 65.73 C 83.62 73.09 55.63 76.54 38.05 71.94 Z" fill="none" stroke="rgba(255,255,255,0.92)" stroke-width="1.2" stroke-linejoin="round" fill-rule="evenodd"/>
</svg>
