<svg xmlns="http://www.w3.org/2000/svg" viewBox="0 0 384 400" width="384" height="400">
  <path d="M 0.00 200.00 L 0.00 0.00 L 192.00 0.00 L 384.00 0.00 L 384.00 155.90 L 384.00 311.79 L 376.25 313.21 C 368.44 314.64 365.80 314.20 367.70 311.79 C 369.63 309.35 370.16 305.00 368.60 304.40 C 366.51 303.60 363.25 305.63 362.44 308.25 C 360.82 313.45 358.22 315.71 353.07 316.40 C 348.14 317.05 345.81 318.43 348.24 319.25 C 348.93 319.48 351.06 319.32 352.97 318.89 C 354.88 318.46 356.58 318.25 356.75 318.42 C 356.92 318.59 355.08 322.08 352.67 326.16 C 347.45 334.98 343.95 342.62 344.76 343.42 C 345.07 343.74 346.38 344.00 347.65 344.00 C 349.87 344.00 353.51 339.59 355.29 334.75 C 356.59 331.24 357.55 333.15 357.82 339.75 C 357.97 343.46 358.52 349.20 359.04 352.50 C 359.56 355.80 359.99 358.84 359.99 359.25 C 360.00 359.66 360.88 360.00 361.95 360.00 C 363.59 360.00 363.94 359.18 364.20 354.85 L 364.50 349.69 L 370.32 348.25 C 373.52 347.45 376.29 346.96 376.48 347.15 C 376.66 347.34 376.97 349.30 377.16 351.50 C 377.49 355.39 377.40 355.51 374.00 356.01 C 369.20 356.70 371.53 357.89 378.35 358.22 L 383.99 358.50 L 383.99 374.18 C 384.00 388.99 383.89 389.90 382.00 390.50 C 379.39 391.33 379.39 393.39 382.00 392.71 C 383.75 392.25 384.00 392.68 384.00 396.09 L 384.00 400.00 L 379.09 400.00 L 374.18 400.00 L 373.47 395.75 C 372.20 388.07 371.71 387.68 363.91 388.24 L 357.03 388.73 L 357.66 386.12 C 358.01 384.68 358.68 382.45 359.15 381.17 C 360.19 378.37 359.51 377.00 357.10 377.00 C 354.97 377.00 353.41 380.17 351.47 388.40 C 349.45 396.94 349.56 398.00 352.39 398.00 C 354.16 398.00 354.96 397.29 355.47 395.26 C 356.26 392.11 357.59 391.04 360.70 391.02 C 362.40 391.00 363.14 391.86 363.95 394.75 C 364.52 396.81 364.99 398.83 364.99 399.23 C 365.00 399.62 358.06 399.86 349.58 399.74 L 334.17 399.53 L 337.71 393.19 C 340.21 388.73 340.94 386.54 340.19 385.79 C 338.29 383.89 336.29 385.73 332.40 392.93 L 328.58 400.00 L 164.29 400.00 L 0.00 400.00 L 0.00 200.00 Z M 188.00 393.41 L 257.50 393.04 L 257.69 330.27 C 257.80 295.75 257.98 265.93 258.09 264.00 C 258.26 261.12 258.37 260.96 258.70 263.11 L 259.11 265.73 L 270.30 265.94 C 276.46 266.06 286.00 266.13 291.50 266.09 C 297.00 266.05 307.35 266.06 314.50 266.12 C 331.64 266.24 332.26 266.20 333.18 264.75 C 333.76 263.83 333.97 263.91 333.98 265.05 C 334.00 266.39 336.30 266.59 351.10 266.55 C 360.50 266.52 368.34 266.73 368.51 267.02 C 368.69 267.31 371.13 267.47 373.94 267.37 L 379.04 267.20 L 379.00 175.35 C 378.96 97.33 378.75 58.02 378.11 13.63 L 378.00 5.76 L 367.48 6.48 C 355.01 7.33 304.15 7.71 151.50 8.12 C 45.59 8.40 12.95 8.93 8.20 10.44 C 6.24 11.06 6.22 12.74 6.07 203.18 L 5.93 395.30 L 62.22 394.54 C 93.17 394.12 149.77 393.62 188.00 393.41 Z M 13.24 328.31 L 13.50 269.61 L 58.50 269.42 C 83.25 269.32 108.79 268.90 115.25 268.50 L 127.00 267.76 L 127.14 286.13 C 127.22 296.23 127.33 322.73 127.38 345.00 L 127.48 385.50 L 106.99 386.11 C 95.72 386.45 69.96 386.79 49.74 386.86 L 12.98 387.00 L 13.24 328.31 Z M 247.81 385.47 C 247.51 385.18 222.30 384.96 191.78 384.98 L 136.29 385.02 L 135.64 378.86 C 135.29 375.48 135.00 320.86 135.00 257.49 L 135.00 142.27 L 165.91 141.53 C 182.91 141.13 208.56 141.13 222.91 141.54 L 249.00 142.27 L 249.07 160.38 C 249.10 170.35 249.28 186.60 249.46 196.50 C 249.73 210.85 250.15 347.56 250.03 378.75 C 250.00 385.25 249.40 387.07 247.81 385.47 Z M 176.54 371.12 C 184.46 367.52 188.77 359.20 187.65 349.68 C 186.44 339.44 179.08 332.86 168.58 332.63 C 163.59 332.52 161.87 332.94 159.00 334.98 C 151.83 340.05 149.00 345.16 149.00 353.01 C 149.00 367.52 163.49 377.05 176.54 371.12 Z M 319.51 365.99 C 319.85 365.43 320.11 359.58 320.07 352.99 L 320.01 341.00 L 322.51 341.00 C 324.27 341.00 325.00 341.54 325.00 342.86 C 325.00 343.88 325.29 346.82 325.64 349.38 C 326.21 353.57 326.10 353.97 324.50 353.36 C 323.24 352.88 322.86 353.09 323.19 354.09 C 323.89 356.23 330.54 357.63 332.45 356.04 C 334.19 354.60 334.49 347.82 333.08 341.75 C 332.31 338.43 332.43 338.00 334.11 338.00 C 337.76 338.00 340.13 334.34 339.80 329.20 L 339.50 324.50 L 333.75 324.76 L 328.00 325.02 L 328.00 321.98 C 328.00 319.41 328.46 318.86 331.00 318.35 C 334.82 317.59 334.90 316.00 331.12 316.00 C 329.04 316.00 328.08 315.42 327.69 313.93 C 326.91 310.92 321.63 311.59 321.18 314.75 C 320.76 317.68 317.00 317.90 317.00 315.00 C 317.00 313.67 316.33 313.00 315.00 313.00 C 313.69 313.00 313.00 313.67 313.00 314.94 C 313.00 317.68 311.27 318.43 310.50 316.01 C 309.58 313.10 305.24 313.28 304.82 316.25 C 304.61 317.70 303.70 318.61 302.25 318.82 C 299.11 319.27 299.44 320.80 302.75 321.18 C 305.14 321.46 305.54 321.99 305.81 325.25 C 306.11 328.89 306.02 329.00 302.81 329.02 C 297.71 329.04 296.84 330.06 297.19 335.60 C 297.46 339.81 297.82 340.55 299.75 340.82 C 301.80 341.11 302.00 340.73 302.00 336.63 C 302.00 334.15 302.40 331.87 302.89 331.57 C 304.06 330.84 329.94 327.59 330.39 328.10 C 330.58 328.32 330.96 330.64 331.24 333.25 L 331.75 338.00 L 325.35 338.00 C 319.40 338.00 318.88 337.82 317.97 335.43 C 316.55 331.68 312.62 332.40 312.17 336.50 C 311.71 340.73 310.51 341.61 307.46 339.98 C 303.67 337.95 302.83 339.93 303.59 349.00 C 304.22 356.64 305.71 359.71 308.28 358.72 C 309.41 358.29 309.61 356.58 309.22 350.59 C 308.77 343.50 308.87 343.00 310.74 343.00 C 312.95 343.00 313.96 346.72 314.00 355.00 C 314.04 362.97 315.07 367.00 317.07 367.00 C 318.07 367.00 319.16 366.55 319.51 365.99 Z M 161.93 362.73 C 160.04 361.46 157.95 358.84 157.15 356.73 C 155.89 353.42 155.92 352.50 157.43 348.54 C 159.25 343.79 163.92 340.00 167.97 340.00 C 171.64 340.00 176.99 343.08 178.54 346.09 C 184.58 357.76 172.51 369.86 161.93 362.73 Z M 364.00 343.06 C 364.00 340.89 364.36 338.89 364.81 338.62 C 365.25 338.34 367.95 337.81 370.81 337.43 L 376.00 336.74 L 376.00 340.33 C 376.00 343.79 375.81 343.98 370.82 345.46 C 363.89 347.52 364.00 347.56 364.00 343.06 Z M 362.76 332.33 C 362.50 330.22 362.41 328.35 362.56 328.16 C 362.72 327.98 365.58 327.58 368.92 327.27 L 375.00 326.72 L 375.00 330.30 C 375.00 334.54 374.95 334.58 368.37 335.46 L 363.24 336.16 L 362.76 332.33 Z M 311.00 324.00 C 311.00 321.80 311.39 320.00 311.88 320.00 C 312.93 320.00 314.22 325.84 313.44 327.10 C 312.15 329.19 311.00 327.72 311.00 324.00 Z M 318.19 322.75 C 318.39 320.67 319.04 319.50 320.00 319.50 C 320.96 319.50 321.61 320.67 321.81 322.75 C 322.08 325.50 321.80 326.00 320.00 326.00 C 318.20 326.00 317.92 325.50 318.19 322.75 Z M 362.00 323.63 C 362.00 322.88 362.88 321.15 363.96 319.78 C 365.57 317.73 367.13 317.16 372.71 316.59 C 376.44 316.21 380.51 315.65 381.75 315.34 C 383.87 314.81 384.00 315.08 383.98 320.14 C 383.97 323.69 383.67 325.02 383.07 324.09 C 382.32 322.90 380.85 322.86 373.84 323.84 C 363.22 325.32 362.00 325.30 362.00 323.63 Z M 214.16 266.00 L 245.00 266.00 L 245.00 206.56 C 245.00 169.68 244.64 146.89 244.04 146.52 C 243.51 146.20 224.84 145.80 202.54 145.63 L 162.00 145.34 L 162.00 206.32 L 162.00 267.30 L 172.66 266.65 C 178.52 266.29 197.19 266.00 214.16 266.00 Z M 12.89 261.29 C 12.83 260.85 12.86 259.49 12.96 258.25 C 13.06 257.01 12.44 255.29 11.57 254.43 C 10.71 253.56 10.06 251.65 10.14 250.18 C 10.26 247.80 10.32 247.75 10.71 249.76 C 10.95 251.01 11.56 251.77 12.07 251.46 C 13.32 250.68 13.25 246.65 11.96 245.36 C 11.30 244.70 11.25 243.45 11.83 241.91 C 12.32 240.59 12.68 230.18 12.61 218.79 C 12.51 199.63 12.36 197.98 10.59 196.69 C 9.24 195.70 8.90 194.73 9.45 193.39 C 9.96 192.15 10.39 191.93 10.70 192.75 C 10.96 193.44 11.58 194.00 12.08 194.00 C 13.14 194.00 13.30 190.93 12.36 188.50 C 11.85 187.17 11.55 187.10 10.88 188.17 C 10.37 188.97 10.02 186.62 10.02 182.31 C 10.01 177.93 10.45 174.84 11.16 174.40 C 11.98 173.90 12.17 174.68 11.81 177.09 C 11.53 178.97 11.64 181.62 12.05 183.00 C 12.56 184.69 12.83 183.14 12.90 178.25 C 12.98 172.43 12.70 171.00 11.50 171.00 C 10.55 171.00 10.00 170.04 10.00 168.38 C 10.00 166.16 10.23 165.95 11.50 167.00 C 12.78 168.06 13.00 167.78 13.00 165.12 C 13.00 163.16 12.54 162.09 11.75 162.25 C 10.47 162.51 10.45 161.59 11.59 156.75 C 12.00 155.01 11.83 154.00 11.12 154.00 C 9.45 154.00 9.77 150.30 11.50 149.64 C 13.45 148.89 13.43 145.60 11.46 143.96 C 10.61 143.26 10.29 142.31 10.74 141.86 C 11.46 141.14 53.84 140.74 108.75 140.93 L 127.00 141.00 L 127.00 200.37 L 127.00 259.74 L 122.04 260.40 C 114.66 261.38 13.02 262.21 12.89 261.29 Z M 290.00 259.00 L 257.50 258.50 L 257.24 197.75 L 256.98 137.00 L 259.24 137.12 C 261.02 137.21 261.12 137.33 259.69 137.70 C 258.70 137.96 258.06 138.69 258.28 139.33 C 258.55 140.15 263.76 140.57 275.58 140.72 C 284.89 140.84 292.95 140.97 293.50 141.02 C 294.94 141.15 357.31 140.82 364.84 140.65 C 368.33 140.56 371.37 140.78 371.58 141.14 C 371.92 141.68 372.19 205.35 372.04 247.74 L 372.00 259.99 L 347.25 259.74 C 333.64 259.61 307.88 259.27 290.00 259.00 Z M 169.94 246.05 C 169.91 239.15 169.80 215.50 169.69 193.50 L 169.50 153.50 L 202.78 153.61 C 221.08 153.67 236.22 153.90 236.42 154.11 C 236.62 154.33 237.00 177.60 237.27 205.83 C 237.63 243.48 237.46 257.25 236.63 257.51 C 236.01 257.71 220.76 258.04 202.75 258.24 L 170.00 258.60 L 169.94 246.05 Z M 89.63 250.08 C 99.33 244.17 105.00 226.32 105.00 201.69 C 105.00 177.71 99.39 159.61 89.98 153.17 C 86.83 151.02 85.75 150.84 78.59 151.31 C 54.19 152.91 35.04 175.41 35.03 202.50 C 35.02 224.12 48.46 243.28 68.49 250.20 C 75.42 252.60 85.60 252.54 89.63 250.08 Z M 312.20 248.89 C 343.85 242.29 360.39 206.39 345.41 176.82 C 342.24 170.57 334.42 162.11 328.13 158.12 C 318.40 151.95 302.43 149.18 295.93 152.54 C 282.04 159.72 276.05 199.30 284.46 228.27 C 289.88 246.97 296.80 252.11 312.20 248.89 Z M 73.00 243.06 C 60.92 239.38 52.09 231.52 46.24 219.26 C 42.82 212.09 42.79 211.89 43.18 200.76 C 43.53 190.61 43.88 188.86 46.72 182.99 C 52.87 170.29 66.35 160.41 79.13 159.25 C 86.17 158.62 88.00 159.83 91.57 167.50 C 95.78 176.54 97.15 184.35 97.25 199.94 C 97.38 221.02 94.10 234.99 87.46 241.63 C 85.59 243.50 84.08 243.98 80.30 243.91 C 77.66 243.87 74.38 243.48 73.00 243.06 Z M 299.75 240.41 C 295.99 238.39 292.27 230.61 289.83 219.65 C 285.95 202.21 289.06 171.88 295.62 163.26 C 299.36 158.35 301.19 157.72 308.45 158.85 C 317.13 160.20 325.24 164.28 331.01 170.20 C 336.25 175.58 342.42 186.45 341.54 188.75 C 341.24 189.53 341.68 191.13 342.50 192.30 C 345.25 196.23 343.67 209.63 339.42 218.50 C 334.83 228.07 324.91 236.77 315.66 239.35 C 307.08 241.74 302.76 242.03 299.75 240.41 Z M 9.07 238.25 C 9.13 235.81 9.24 235.73 10.00 237.50 C 11.17 240.23 11.17 241.00 10.00 241.00 C 9.45 241.00 9.03 239.76 9.07 238.25 Z M 181.62 220.75 C 181.36 212.91 181.11 199.86 181.07 191.75 L 181.00 177.00 L 177.50 177.00 L 174.00 177.00 L 174.00 205.33 C 174.00 220.92 174.30 233.97 174.67 234.33 C 175.03 234.70 176.85 235.00 178.71 235.00 L 182.10 235.00 L 181.62 220.75 Z M 9.61 213.42 C 8.73 211.13 8.86 207.20 9.83 206.60 C 10.29 206.32 10.67 208.09 10.67 210.54 C 10.67 215.41 10.52 215.80 9.61 213.42 Z M 375.00 214.00 C 375.00 213.45 375.48 213.00 376.06 213.00 C 376.64 213.00 376.84 213.45 376.50 214.00 C 376.16 214.55 375.68 215.00 375.44 215.00 C 375.20 215.00 375.00 214.55 375.00 214.00 Z M 374.08 204.42 C 374.13 203.25 374.36 203.01 374.68 203.81 C 374.97 204.53 374.94 205.40 374.60 205.73 C 374.27 206.06 374.04 205.47 374.08 204.42 Z M 374.54 196.07 C 374.23 195.56 374.42 194.86 374.98 194.51 C 375.54 194.16 376.00 194.58 376.00 195.44 C 376.00 197.20 375.40 197.46 374.54 196.07 Z M 375.16 180.00 C 375.16 178.62 375.38 178.06 375.66 178.75 C 375.94 179.44 375.94 180.56 375.66 181.25 C 375.38 181.94 375.16 181.38 375.16 180.00 Z M 375.19 163.50 C 375.22 161.85 375.44 161.30 375.69 162.27 C 375.95 163.24 375.93 164.59 375.66 165.27 C 375.38 165.95 375.17 165.15 375.19 163.50 Z M 375.00 156.44 C 375.00 155.58 375.45 155.16 376.00 155.50 C 376.55 155.84 377.00 156.54 377.00 157.06 C 377.00 157.58 376.55 158.00 376.00 158.00 C 375.45 158.00 375.00 157.30 375.00 156.44 Z M 375.19 151.50 C 375.22 149.85 375.44 149.30 375.69 150.27 C 375.95 151.24 375.93 152.59 375.66 153.27 C 375.38 153.95 375.17 153.15 375.19 151.50 Z M 376.08 139.42 C 376.13 138.25 376.36 138.01 376.68 138.81 C 376.97 139.53 376.94 140.40 376.60 140.73 C 376.27 141.06 376.04 140.47 376.08 139.42 Z M 12.88 134.00 C 12.81 133.72 12.70 131.70 12.63 129.50 C 12.54 126.71 12.09 125.59 11.15 125.78 C 10.07 126.01 9.86 124.32 10.15 117.53 C 10.34 112.84 10.25 109.00 9.94 109.00 C 9.51 109.00 9.55 98.62 10.00 91.00 C 10.02 90.72 10.44 91.15 10.95 91.95 C 11.54 92.89 11.66 91.88 11.29 89.10 C 10.89 86.14 11.11 84.55 12.00 84.00 C 12.83 83.49 13.01 82.54 12.49 81.35 C 11.75 79.63 11.66 79.62 11.27 81.25 C 10.59 84.08 9.00 83.25 9.00 80.07 C 9.00 78.46 9.78 76.36 10.74 75.40 C 11.99 74.15 12.13 73.54 11.24 73.25 C 9.47 72.66 9.71 68.30 11.71 64.91 C 13.05 62.65 13.16 61.76 12.21 60.81 C 11.26 59.86 11.00 60.08 11.00 61.80 C 11.00 63.01 10.66 64.00 10.25 64.00 C 9.84 64.00 9.48 61.31 9.47 58.01 C 9.43 51.71 10.57 51.34 12.09 57.16 C 12.80 59.88 12.88 59.50 12.51 55.08 C 12.26 52.09 11.51 49.31 10.84 48.90 C 9.90 48.32 9.92 47.80 10.94 46.58 C 11.95 45.35 11.99 44.39 11.11 42.25 C 9.44 38.20 9.18 28.44 10.75 28.75 C 11.44 28.89 12.00 28.55 12.00 28.00 C 12.00 27.45 11.55 27.00 11.00 27.00 C 9.62 27.00 9.74 18.67 11.16 15.55 C 12.30 13.06 14.39 12.20 15.38 13.81 C 15.66 14.26 18.27 14.57 21.19 14.51 C 41.02 14.08 43.08 13.94 42.50 13.00 C 41.72 11.74 45.26 11.67 46.55 12.92 C 47.81 14.14 57.16 15.07 56.44 13.90 C 56.13 13.41 56.81 13.00 57.94 13.00 C 59.07 13.00 60.00 13.47 60.00 14.03 C 60.00 14.70 61.85 14.82 65.25 14.37 C 68.14 13.99 70.95 13.72 71.50 13.78 C 75.65 14.22 100.00 14.57 100.00 14.20 C 100.00 13.94 99.21 13.07 98.25 12.28 C 96.59 10.91 96.60 10.87 98.33 11.42 C 99.34 11.74 100.60 12.00 101.14 12.00 C 101.68 12.00 101.80 12.52 101.40 13.15 C 100.97 13.86 101.13 14.04 101.82 13.61 C 102.45 13.22 103.93 13.42 105.11 14.06 C 106.44 14.77 107.49 14.84 107.88 14.25 C 108.69 13.01 120.60 13.52 124.59 14.96 L 127.67 16.08 L 127.40 72.79 C 127.24 103.98 127.09 130.62 127.06 132.00 L 127.00 134.50 L 70.00 134.50 C 38.65 134.50 12.95 134.28 12.88 134.00 Z M 256.61 134.00 C 256.50 133.72 256.44 106.73 256.48 74.00 L 256.56 14.50 L 283.76 14.37 C 298.72 14.29 311.53 14.02 312.23 13.76 C 312.93 13.50 316.39 13.63 319.92 14.05 C 323.57 14.49 327.40 14.42 328.79 13.89 C 330.14 13.38 331.75 13.33 332.37 13.78 C 332.99 14.23 336.20 14.49 339.50 14.36 C 342.80 14.23 347.13 14.11 349.13 14.10 C 351.45 14.08 352.97 13.51 353.35 12.53 C 354.13 10.50 356.00 10.57 356.00 12.64 C 356.00 14.05 356.87 14.19 362.25 13.65 C 365.69 13.31 369.15 13.44 369.95 13.95 C 371.18 14.73 371.45 23.77 371.74 74.43 L 372.07 134.00 L 349.29 134.07 C 336.75 134.11 310.82 134.22 291.66 134.32 C 272.49 134.42 256.72 134.28 256.61 134.00 Z M 130.00 133.00 C 130.00 132.45 130.42 132.00 130.94 132.00 C 131.46 132.00 132.16 132.45 132.50 133.00 C 132.84 133.55 132.42 134.00 131.56 134.00 C 130.70 134.00 130.00 133.55 130.00 133.00 Z M 134.55 133.09 C 133.60 131.54 134.16 13.00 135.12 13.00 C 135.60 13.00 136.00 13.45 136.00 14.00 C 136.00 14.58 139.03 14.97 143.25 14.92 C 147.24 14.88 149.94 14.62 149.25 14.34 C 147.51 13.64 147.68 12.00 149.50 12.00 C 150.32 12.00 150.89 12.54 150.75 13.20 C 150.57 14.07 153.08 14.42 159.75 14.45 C 164.96 14.48 169.00 14.08 169.00 13.55 C 169.00 13.03 169.54 13.14 170.20 13.80 C 171.66 15.26 180.40 15.45 179.50 14.00 C 179.16 13.45 179.56 13.00 180.38 13.00 C 181.21 13.00 182.17 13.47 182.53 14.05 C 182.96 14.75 183.58 14.77 184.38 14.10 C 185.18 13.44 186.99 13.46 189.79 14.17 C 192.80 14.94 194.37 14.93 195.31 14.16 C 196.26 13.37 197.67 13.39 200.38 14.23 C 203.43 15.16 204.31 15.12 205.00 14.00 C 205.68 12.89 206.14 12.87 207.36 13.88 C 208.58 14.90 209.34 14.82 211.39 13.48 C 212.78 12.57 214.44 12.16 215.09 12.56 C 215.74 12.96 222.40 13.41 229.89 13.56 C 237.37 13.72 244.26 13.88 245.18 13.92 C 246.10 13.96 247.54 14.69 248.39 15.53 C 249.73 16.87 249.88 24.16 249.66 75.28 L 249.40 133.50 L 192.27 133.76 C 157.85 133.91 134.90 133.65 134.55 133.09 Z M 252.62 130.20 C 252.35 129.76 252.55 128.75 253.05 127.95 C 253.77 126.82 253.97 126.99 253.98 128.75 C 254.00 131.06 253.49 131.61 252.62 130.20 Z M 9.00 128.00 C 9.00 127.45 9.45 127.00 10.00 127.00 C 10.55 127.00 11.00 127.45 11.00 128.00 C 11.00 128.55 10.55 129.00 10.00 129.00 C 9.45 129.00 9.00 128.55 9.00 128.00 Z M 252.71 121.00 C 252.42 119.90 252.60 118.75 253.09 118.44 C 253.59 118.13 254.00 119.03 254.00 120.44 C 254.00 123.51 253.43 123.75 252.71 121.00 Z M 252.72 107.25 C 252.41 103.54 252.57 100.07 253.08 99.55 C 253.64 98.97 254.00 101.59 254.00 106.30 C 254.00 110.53 253.84 114.00 253.64 114.00 C 253.44 114.00 253.02 110.96 252.72 107.25 Z M 11.66 104.75 C 11.38 104.06 11.16 104.62 11.16 106.00 C 11.16 107.38 11.38 107.94 11.66 107.25 C 11.94 106.56 11.94 105.44 11.66 104.75 Z M 12.68 99.81 C 12.36 99.01 12.13 99.25 12.08 100.42 C 12.04 101.47 12.27 102.06 12.60 101.73 C 12.94 101.40 12.97 100.53 12.68 99.81 Z M 253.19 92.50 C 253.22 90.85 253.44 90.30 253.69 91.27 C 253.95 92.24 253.93 93.59 253.66 94.27 C 253.38 94.95 253.17 94.15 253.19 92.50 Z M 253.19 74.50 C 253.22 72.85 253.44 72.30 253.69 73.27 C 253.95 74.24 253.93 75.59 253.66 76.27 C 253.38 76.95 253.17 76.15 253.19 74.50 Z M 253.23 57.00 C 253.23 55.08 253.44 54.29 253.69 55.25 C 253.94 56.21 253.94 57.79 253.69 58.75 C 253.44 59.71 253.23 58.92 253.23 57.00 Z M 253.25 46.50 C 253.26 44.30 253.47 43.52 253.71 44.76 C 253.95 46.01 253.94 47.81 253.69 48.76 C 253.44 49.72 253.24 48.70 253.25 46.50 Z M 374.08 39.42 C 374.13 38.25 374.36 38.01 374.68 38.81 C 374.97 39.53 374.94 40.40 374.60 40.73 C 374.27 41.06 374.04 40.47 374.08 39.42 Z M 374.34 28.00 C 374.34 23.88 374.51 22.19 374.73 24.25 C 374.94 26.31 374.94 29.69 374.73 31.75 C 374.51 33.81 374.34 32.12 374.34 28.00 Z M 12.66 20.75 C 12.38 20.06 12.16 20.62 12.16 22.00 C 12.16 23.38 12.38 23.94 12.66 23.25 C 12.94 22.56 12.94 21.44 12.66 20.75 Z M 374.25 16.50 C 374.26 14.30 374.47 13.52 374.71 14.76 C 374.95 16.01 374.94 17.81 374.69 18.76 C 374.44 19.72 374.24 18.70 374.25 16.50 Z M 142.51 12.98 C 142.86 12.42 143.56 12.23 144.07 12.54 C 145.46 13.40 145.20 14.00 143.44 14.00 C 142.58 14.00 142.16 13.54 142.51 12.98 Z M 171.00 12.62 C 171.00 12.41 171.90 12.00 173.00 11.71 C 174.10 11.42 175.00 11.60 175.00 12.09 C 175.00 12.59 174.10 13.00 173.00 13.00 C 171.90 13.00 171.00 12.83 171.00 12.62 Z" fill="none" stroke="rgba(255,255,255,0.92)" stroke-width="1.5" stroke-linejoin="round" fill-rule="evenodd"/>
</svg>
