<svg xmlns="http://www.w3.org/2000/svg" viewBox="0 0 100 100" width="100" height="100">
  <path d="M 0.00 50.00 L 0.00 0.00 L 50.00 0.00 L 100.00 0.00 L 100.00 50.00 L 100.00 100.00 L 50.00 100.00 L 0.00 100.00 L 0.00 50.00 Z M 50.00 6.50 L 94.50 6.50 L 95.02 51.50 L 95.53 96.50 L 95.77 50.25 L 96.00 4.00 L 50.00 4.00 L 4.00 4.00 L 4.23 50.25 L 4.47 96.50 L 4.98 51.50 L 5.50 6.50 L 50.00 6.50 Z M 91.32 94.25 C 91.58 93.29 91.68 89.12 91.55 85.00 C 91.42 80.88 91.24 62.08 91.16 43.24 L 91.00 8.97 L 58.95 9.24 L 26.90 9.50 L 26.81 30.50 C 26.76 42.05 26.78 61.51 26.86 73.75 L 27.00 96.00 L 58.93 96.00 C 88.50 96.00 90.90 95.87 91.32 94.25 Z M 32.92 88.82 C 32.87 85.89 32.63 68.09 32.38 49.25 L 31.92 15.00 L 58.46 15.00 L 85.00 15.00 L 85.19 37.25 C 85.30 49.49 85.41 67.15 85.44 76.50 L 85.50 93.50 L 59.25 93.82 L 33.00 94.14 L 32.92 88.82 Z M 41.77 54.14 L 41.50 32.52 L 39.00 32.51 L 36.50 32.50 L 36.23 53.47 C 36.08 65.01 36.16 74.97 36.40 75.60 C 36.65 76.25 37.97 76.54 39.44 76.26 L 42.04 75.76 L 41.77 54.14 Z" fill="none" stroke="rgba(255,255,255,0.92)" stroke-width="1.2" stroke-linejoin="round" fill-rule="evenodd"/>
</svg>
