<svg xmlns="http://www.w3.org/2000/svg" viewBox="0 0 100 100" width="100" height="100">
  <path d="M 0.00 50.00 L 0.00 0.00 L 50.00 0.00 L 100.00 0.00 L 100.00 50.00 L 100.00 100.00 L 50.00 100.00 L 0.00 100.00 L 0.00 50.00 Z M 96.00 93.00 L 96.00 90.00 L 57.65 90.00 C 36.56 90.00 15.86 89.71 11.65 89.35 L 4.00 88.71 L 4.00 91.81 L 4.00 94.91 L 10.75 95.26 C 14.46 95.45 35.16 95.70 56.75 95.80 L 96.00 96.00 L 96.00 93.00 Z M 69.54 87.00 L 93.92 87.00 L 93.32 46.25 C 92.99 23.84 92.65 5.40 92.56 5.28 C 92.46 5.15 77.79 5.02 59.94 4.97 L 27.50 4.90 L 27.39 44.20 C 27.33 65.81 27.47 84.27 27.69 85.21 C 28.03 86.58 29.52 86.98 35.30 87.25 C 39.26 87.43 43.10 87.45 43.83 87.29 C 44.56 87.13 56.13 87.00 69.54 87.00 Z M 33.99 70.75 C 33.99 65.11 33.69 49.36 33.34 35.73 L 32.69 10.97 L 59.60 11.23 L 86.50 11.50 L 86.76 46.25 L 87.03 81.00 L 60.51 81.00 L 34.00 81.00 L 33.99 70.75 Z M 43.00 45.50 L 43.00 24.00 L 40.00 24.00 L 37.00 24.00 L 37.00 45.50 L 37.00 67.00 L 40.00 67.00 L 43.00 67.00 L 43.00 45.50 Z M 12.99 34.73 C 25.77 27.96 22.33 9.20 7.95 7.27 C 4.10 6.75 4.00 6.82 4.00 9.76 C 4.00 12.39 4.43 12.86 7.36 13.41 C 11.42 14.17 13.76 16.55 14.61 20.79 C 15.15 23.50 14.73 24.47 11.72 27.48 C 9.78 29.42 7.25 31.00 6.10 31.00 C 4.43 31.00 4.00 31.62 4.00 34.00 C 4.00 36.48 4.41 37.00 6.34 37.00 C 7.63 37.00 10.62 35.98 12.99 34.73 Z" fill="none" stroke="rgba(255,255,255,0.92)" stroke-width="1.2" stroke-linejoin="round" fill-rule="evenodd"/>
</svg>
