<svg xmlns="http://www.w3.org/2000/svg" viewBox="0 0 100 100" width="100" height="100">
  <path d="M 0.00 50.00 L 0.00 0.00 L 50.00 0.00 L 100.00 0.00 L 100.00 50.00 L 100.00 100.00 L 50.00 100.00 L 0.00 100.00 L 0.00 50.00 Z M 96.00 50.00 L 96.00 4.00 L 50.00 4.00 C 19.16 4.00 4.00 4.34 4.00 5.03 C 4.00 5.72 18.17 6.00 47.25 5.87 L 90.50 5.68 L 90.70 48.09 C 90.82 71.42 90.70 91.49 90.45 92.69 L 89.99 94.88 L 47.61 94.35 C 17.56 93.97 5.03 94.14 4.56 94.91 C 4.07 95.69 16.95 96.00 49.94 96.00 L 96.00 96.00 L 96.00 50.00 Z M 53.52 83.27 C 60.55 79.69 68.23 71.90 71.32 65.22 C 73.12 61.32 73.50 58.68 73.50 50.00 C 73.50 40.57 73.23 38.99 70.85 34.50 C 64.74 22.95 55.14 15.87 42.68 13.74 C 35.20 12.46 31.64 13.20 28.03 16.81 C 19.93 24.92 16.73 50.60 21.52 69.09 C 23.58 77.03 25.47 80.70 29.38 84.35 C 32.32 87.10 32.79 87.21 39.98 86.78 C 45.79 86.43 48.87 85.63 53.52 83.27 Z M 32.64 78.93 C 28.02 75.29 25.49 64.82 25.55 49.50 C 25.61 34.96 27.57 25.83 31.58 21.51 C 36.42 16.29 50.78 19.61 58.72 27.78 C 63.20 32.39 67.24 39.09 66.86 41.28 C 66.75 41.95 67.27 43.76 68.01 45.31 C 69.14 47.64 69.16 49.19 68.11 54.31 C 65.49 67.06 57.58 76.22 46.35 79.50 C 39.36 81.53 35.76 81.39 32.64 78.93 Z M 93.08 60.42 C 93.13 59.25 93.36 59.01 93.68 59.81 C 93.97 60.53 93.94 61.40 93.60 61.73 C 93.27 62.06 93.04 61.47 93.08 60.42 Z M 93.08 39.42 C 93.13 38.25 93.36 38.01 93.68 38.81 C 93.97 39.53 93.94 40.40 93.60 40.73 C 93.27 41.06 93.04 40.47 93.08 39.42 Z M 93.08 35.42 C 93.13 34.25 93.36 34.01 93.68 34.81 C 93.97 35.53 93.94 36.40 93.60 36.73 C 93.27 37.06 93.04 36.47 93.08 35.42 Z M 93.29 20.50 C 93.29 17.75 93.49 16.74 93.72 18.26 C 93.95 19.78 93.94 22.03 93.70 23.26 C 93.47 24.49 93.28 23.25 93.29 20.50 Z M 93.19 12.50 C 93.22 10.85 93.44 10.30 93.69 11.27 C 93.95 12.24 93.93 13.59 93.66 14.27 C 93.38 14.95 93.17 14.15 93.19 12.50 Z M 93.08 6.42 C 93.13 5.25 93.36 5.01 93.68 5.81 C 93.97 6.53 93.94 7.40 93.60 7.73 C 93.27 8.06 93.04 7.47 93.08 6.42 Z" fill="none" stroke="rgba(255,255,255,0.92)" stroke-width="1.2" stroke-linejoin="round" fill-rule="evenodd"/>
</svg>
