<svg xmlns="http://www.w3.org/2000/svg" viewBox="0 0 100 100" width="100" height="100">
  <path d="M 0.00 50.00 L 0.00 0.00 L 50.00 0.00 L 100.00 0.00 L 100.00 50.00 L 100.00 100.00 L 50.00 100.00 L 0.00 100.00 L 0.00 50.00 Z M 10.00 93.56 C 10.00 92.22 9.55 90.84 9.00 90.50 C 8.45 90.16 8.03 88.90 8.07 87.69 C 8.14 85.59 8.17 85.58 8.92 87.50 C 9.35 88.60 9.72 81.62 9.74 72.00 C 9.77 56.55 9.62 54.85 8.43 57.50 L 7.09 60.50 L 7.05 57.72 C 7.02 56.14 7.65 54.69 8.50 54.36 C 10.46 53.61 10.46 48.39 8.50 47.64 C 7.67 47.32 7.00 46.37 7.00 45.53 C 7.00 43.69 8.63 43.49 9.34 45.25 C 9.62 45.94 9.88 45.01 9.92 43.19 C 9.96 41.37 9.60 40.13 9.10 40.44 C 8.05 41.08 7.06 33.20 7.92 31.00 C 8.24 30.18 8.77 31.75 9.09 34.50 L 9.69 39.50 L 9.84 33.69 C 9.94 30.04 9.63 28.11 9.00 28.50 C 8.42 28.86 8.01 27.93 8.02 26.31 C 8.03 24.13 8.25 23.84 9.00 25.00 C 9.78 26.21 9.97 26.05 9.98 24.19 C 9.99 22.90 9.56 22.16 9.00 22.50 C 7.56 23.39 7.77 19.65 9.25 18.07 C 10.25 17.02 10.25 16.66 9.25 16.29 C 7.77 15.75 7.55 12.00 9.00 12.00 C 10.45 12.00 10.23 8.25 8.75 7.72 C 4.90 6.35 11.46 5.87 34.65 5.85 C 48.87 5.84 62.98 5.48 66.00 5.06 C 69.37 4.58 58.62 4.23 38.25 4.14 L 5.00 4.00 L 5.00 50.00 L 5.00 96.00 L 7.50 96.00 C 9.48 96.00 10.00 95.50 10.00 93.56 Z M 95.27 95.34 C 94.59 95.07 93.24 95.05 92.27 95.31 C 91.30 95.56 91.85 95.78 93.50 95.81 C 95.15 95.83 95.95 95.62 95.27 95.34 Z M 71.85 86.48 C 86.34 74.28 84.96 22.67 69.92 14.69 C 62.90 10.97 46.71 15.52 39.19 23.33 C 21.90 41.27 23.88 69.03 43.40 82.48 C 49.88 86.94 55.72 88.85 63.17 88.93 C 67.84 88.99 69.38 88.55 71.85 86.48 Z M 52.50 80.52 C 45.63 77.73 39.29 71.51 35.81 64.16 C 32.46 57.07 32.69 45.41 36.32 37.86 C 41.10 27.95 51.31 20.59 62.06 19.31 C 66.26 18.81 66.84 19.02 69.29 21.93 C 73.35 26.76 75.23 34.11 75.75 47.11 C 76.39 63.48 73.22 77.81 68.10 81.72 C 65.55 83.66 58.99 83.15 52.50 80.52 Z M 7.16 79.00 C 7.16 77.62 7.38 77.06 7.66 77.75 C 7.94 78.44 7.94 79.56 7.66 80.25 C 7.38 80.94 7.16 80.38 7.16 79.00 Z M 96.00 4.98 C 96.00 4.39 91.16 4.00 84.00 4.00 C 77.40 4.00 72.00 4.37 72.00 4.82 C 72.00 5.27 77.40 5.71 84.00 5.80 C 91.27 5.90 96.00 5.57 96.00 4.98 Z" fill="none" stroke="rgba(255,255,255,0.92)" stroke-width="1.2" stroke-linejoin="round" fill-rule="evenodd"/>
</svg>
