<svg xmlns="http://www.w3.org/2000/svg" viewBox="0 0 400 176" width="400" height="176">
  <path d="M 0.00 88.00 L 0.00 0.00 L 200.00 0.00 L 400.00 0.00 L 400.00 88.00 L 400.00 176.00 L 376.36 176.00 C 355.53 176.00 352.58 175.80 351.51 174.35 C 350.29 172.67 347.48 173.35 348.54 175.07 C 348.90 175.64 282.04 176.00 174.56 176.00 L 0.00 176.00 L 0.00 88.00 Z M 268.00 171.38 L 319.50 170.88 L 319.64 130.69 L 319.78 90.50 L 348.64 90.32 C 364.51 90.22 381.93 90.11 387.33 90.07 L 397.17 90.00 L 396.90 49.25 C 396.75 26.84 396.29 7.51 395.86 6.30 L 395.09 4.09 L 203.79 4.10 C 98.58 4.10 10.70 4.43 8.50 4.82 L 4.50 5.54 L 4.61 16.02 C 4.67 21.78 4.78 59.18 4.86 99.12 L 5.00 171.73 L 57.25 171.32 C 85.99 171.09 128.85 171.33 152.50 171.86 C 176.15 172.38 200.22 172.60 206.00 172.34 C 211.78 172.09 239.68 171.65 268.00 171.38 Z M 341.26 171.26 C 342.32 170.31 343.92 169.52 344.82 169.51 C 345.73 169.51 346.64 168.60 346.84 167.50 C 347.05 166.40 348.07 164.69 349.11 163.71 C 350.15 162.73 351.00 161.74 351.00 161.51 C 351.00 160.95 329.65 150.02 329.27 150.39 C 328.87 150.80 338.31 173.00 338.88 173.00 C 339.14 173.00 340.21 172.22 341.26 171.26 Z M 183.00 167.05 C 171.72 166.74 128.19 166.49 86.25 166.50 L 10.00 166.50 L 10.00 128.40 L 10.00 90.30 L 23.75 89.62 C 38.56 88.89 172.96 89.15 212.73 89.99 L 236.96 90.50 L 237.60 128.75 L 238.24 167.00 L 222.87 167.01 C 214.42 167.02 206.60 167.16 205.50 167.32 C 204.40 167.48 194.28 167.36 183.00 167.05 Z M 242.54 129.28 C 242.14 108.70 242.10 91.56 242.46 91.21 C 242.82 90.85 259.08 90.46 278.61 90.35 C 305.21 90.19 314.21 90.43 314.52 91.32 C 314.74 91.97 315.08 109.27 315.27 129.76 L 315.61 167.02 L 279.44 166.86 L 243.27 166.70 L 242.54 129.28 Z M 234.56 129.13 C 234.16 109.53 233.76 93.44 233.67 93.37 C 233.58 93.29 221.91 92.93 207.75 92.55 L 182.00 91.88 L 182.00 128.48 L 182.00 165.09 L 208.64 164.92 L 235.28 164.75 L 234.56 129.13 Z M 105.88 160.64 C 110.92 156.11 112.26 149.13 109.10 143.92 C 103.43 134.60 91.48 135.25 87.06 145.12 C 83.56 152.94 87.68 161.50 95.67 163.02 C 100.44 163.93 102.84 163.37 105.88 160.64 Z M 284.32 157.98 C 298.79 150.54 305.68 132.72 299.94 117.53 C 295.58 105.97 284.24 97.19 273.05 96.71 C 269.05 96.54 267.67 96.96 265.45 99.00 C 258.97 104.96 255.86 120.30 257.84 136.46 C 259.23 147.78 261.99 154.97 266.35 158.64 C 269.08 160.94 270.05 161.17 274.79 160.68 C 277.73 160.38 282.02 159.16 284.32 157.98 Z M 190.28 159.19 L 187.06 158.88 L 186.78 129.43 C 186.63 113.24 186.65 99.54 186.83 98.99 C 187.12 98.15 228.85 97.42 229.06 98.25 C 229.10 98.39 229.37 112.11 229.67 128.75 L 230.20 159.00 L 220.85 159.20 C 205.80 159.53 193.74 159.52 190.28 159.19 Z M 93.45 155.55 C 88.52 150.62 91.49 143.00 98.35 143.00 C 103.98 143.00 107.25 148.68 104.59 153.83 C 102.07 158.70 97.34 159.43 93.45 155.55 Z M 268.34 153.84 C 263.03 148.06 260.49 127.90 263.42 114.73 C 265.63 104.78 267.80 101.99 273.32 102.02 C 281.39 102.06 289.69 107.75 294.28 116.37 C 297.42 122.27 297.43 135.71 294.30 141.59 C 290.41 148.89 282.51 154.56 274.77 155.61 C 271.15 156.10 270.17 155.83 268.34 153.84 Z M 63.19 146.00 L 81.06 146.00 L 80.95 119.01 C 80.88 102.07 80.46 91.79 79.83 91.40 C 79.28 91.05 63.81 91.10 45.46 91.51 L 12.10 92.24 L 11.80 106.87 C 11.64 114.92 11.63 127.31 11.78 134.41 L 12.06 147.31 L 28.69 146.66 C 37.84 146.30 53.36 146.00 63.19 146.00 Z M 194.14 145.75 C 194.34 145.06 194.37 136.51 194.21 126.75 L 193.91 109.00 L 191.46 109.00 L 189.00 109.00 L 189.00 126.42 C 189.00 136.00 189.27 144.55 189.61 145.42 C 190.33 147.30 193.63 147.54 194.14 145.75 Z M 17.00 119.57 C 17.00 107.77 17.39 97.88 17.86 97.59 C 18.33 97.30 31.49 97.02 47.11 96.97 L 75.50 96.88 L 75.50 118.69 L 75.50 140.50 L 46.25 140.77 L 17.00 141.03 L 17.00 119.57 Z M 61.25 138.24 C 63.34 137.87 64.00 137.18 64.00 135.38 L 64.00 133.00 L 46.11 133.00 C 30.71 133.00 28.13 133.22 27.61 134.58 C 25.93 138.96 26.19 139.04 42.75 138.88 C 51.41 138.80 59.74 138.51 61.25 138.24 Z M 171.49 117.83 C 174.43 115.52 177.00 110.43 177.00 106.93 C 177.00 100.40 170.33 94.00 163.51 94.00 C 160.49 94.00 159.01 94.75 155.88 97.88 C 152.47 101.29 152.00 102.34 152.00 106.48 C 152.00 114.70 156.88 119.92 164.62 119.97 C 167.35 119.99 169.65 119.27 171.49 117.83 Z M 159.40 112.49 C 155.96 109.05 156.35 103.55 160.25 100.66 C 162.43 99.04 163.55 98.81 165.65 99.56 C 169.52 100.94 172.41 105.24 171.60 108.44 C 170.00 114.84 163.80 116.89 159.40 112.49 Z M 242.00 47.07 L 242.00 8.50 L 275.25 8.63 C 293.54 8.70 309.96 8.82 311.75 8.88 L 315.00 9.00 L 315.00 47.25 L 315.00 85.50 L 278.50 85.57 L 242.00 85.65 L 242.00 47.07 Z M 321.25 85.16 C 320.53 84.71 320.16 72.32 320.09 46.75 L 320.00 9.00 L 356.47 9.00 L 392.95 9.00 L 393.23 44.75 C 393.38 64.41 393.25 81.61 392.94 82.97 L 392.37 85.44 L 357.35 85.63 C 338.08 85.73 321.84 85.52 321.25 85.16 Z M 7.59 84.14 C 7.20 83.51 7.35 83.00 7.91 83.00 C 8.61 83.00 8.92 71.09 8.86 46.85 C 8.78 17.18 9.01 10.57 10.14 9.94 C 11.10 9.40 63.70 8.33 81.07 8.50 C 81.11 8.50 81.39 25.49 81.68 46.25 L 82.23 84.00 L 54.86 84.01 C 39.81 84.01 23.18 84.30 17.90 84.65 C 11.16 85.09 8.08 84.94 7.59 84.14 Z M 180.54 84.26 C 171.14 84.06 165.33 83.54 164.91 82.85 C 164.54 82.25 164.16 65.28 164.08 45.13 L 163.92 8.50 L 200.11 8.73 C 220.01 8.86 236.51 9.17 236.77 9.44 C 237.03 9.70 237.30 26.69 237.37 47.21 L 237.50 84.50 L 216.50 84.54 C 204.95 84.56 188.77 84.43 180.54 84.26 Z M 86.18 46.50 L 85.86 9.00 L 88.18 8.91 C 90.70 8.81 145.02 8.83 154.00 8.94 L 159.50 9.00 L 159.80 46.50 L 160.10 84.00 L 123.30 84.00 L 86.50 84.00 L 86.18 46.50 Z M 64.68 67.65 C 77.17 63.13 79.69 55.99 73.58 42.45 C 70.34 35.28 65.80 30.56 58.78 27.05 C 47.18 21.25 33.54 23.49 24.80 32.63 C 19.55 38.13 15.89 46.68 15.67 53.94 C 15.52 59.23 15.81 60.18 18.41 62.90 C 20.01 64.58 23.61 66.72 26.41 67.66 C 36.22 70.96 55.58 70.95 64.68 67.65 Z M 31.01 63.45 C 20.38 60.48 18.80 57.91 21.55 48.09 C 26.03 32.13 42.44 24.43 56.78 31.58 C 64.66 35.50 70.02 42.93 71.38 51.81 C 71.97 55.65 71.74 56.42 69.19 58.96 C 65.30 62.86 60.42 64.12 47.50 64.59 C 39.61 64.88 34.95 64.55 31.01 63.45 Z M 239.08 14.42 C 239.13 13.25 239.36 13.01 239.68 13.81 C 239.97 14.53 239.94 15.40 239.60 15.73 C 239.27 16.06 239.04 15.47 239.08 14.42 Z" fill="none" stroke="rgba(255,255,255,0.92)" stroke-width="1.5" stroke-linejoin="round" fill-rule="evenodd"/>
</svg>
