<svg xmlns="http://www.w3.org/2000/svg" viewBox="0 0 100 100" width="100" height="100">
  <path d="M 0.00 50.00 L 0.00 0.00 L 50.00 0.00 L 100.00 0.00 L 100.00 50.00 L 100.00 100.00 L 50.00 100.00 L 0.00 100.00 L 0.00 50.00 Z M 96.00 92.03 C 96.00 90.20 95.40 89.09 94.25 88.81 C 93.29 88.57 74.39 88.53 52.26 88.71 L 12.02 89.05 L 12.09 70.77 C 12.13 60.72 12.13 41.59 12.08 28.25 L 12.00 4.00 L 9.00 4.00 L 6.00 4.00 L 6.00 49.52 L 6.00 95.04 L 51.00 94.93 L 96.00 94.82 L 96.00 92.03 Z M 72.25 66.02 L 96.00 66.00 L 96.00 34.90 L 96.00 3.79 L 56.08 4.15 C 34.13 4.34 15.90 4.77 15.57 5.09 C 15.01 5.66 14.85 17.79 14.95 51.89 L 15.00 67.28 L 31.75 66.66 C 40.96 66.32 59.19 66.03 72.25 66.02 Z M 21.61 60.00 C 21.49 59.73 21.27 48.64 21.10 35.36 L 20.81 11.22 L 25.65 10.77 C 28.32 10.52 44.90 10.23 62.50 10.12 L 94.50 9.91 L 94.75 34.49 C 94.95 53.46 94.72 59.16 93.75 59.48 C 91.93 60.09 21.85 60.59 21.61 60.00 Z M 77.75 57.06 C 79.58 57.01 80.00 56.43 80.00 53.96 L 80.00 50.91 L 57.71 51.09 C 35.89 51.26 35.40 51.31 34.40 53.44 C 33.83 54.63 33.53 56.09 33.73 56.68 C 34.02 57.56 54.00 57.74 77.75 57.06 Z" fill="none" stroke="rgba(255,255,255,0.92)" stroke-width="1.2" stroke-linejoin="round" fill-rule="evenodd"/>
</svg>
