<svg xmlns="http://www.w3.org/2000/svg" viewBox="0 0 100 100" width="100" height="100">
  <path d="M 0.00 50.00 L 0.00 0.00 L 50.00 0.00 L 100.00 0.00 L 100.00 50.00 L 100.00 100.00 L 50.00 100.00 L 0.00 100.00 L 0.00 50.00 Z M 87.75 95.35 C 95.80 94.72 96.00 94.64 96.00 92.10 L 96.00 89.50 L 52.91 89.84 L 9.82 90.18 L 10.06 86.84 C 10.19 85.00 10.23 65.61 10.15 43.75 L 10.00 4.00 L 7.06 4.00 L 4.12 4.00 L 4.06 50.00 L 4.00 96.00 L 41.75 95.99 C 62.51 95.99 83.21 95.70 87.75 95.35 Z" fill="none" stroke="rgba(255,255,255,0.92)" stroke-width="1.2" stroke-linejoin="round" fill-rule="evenodd"/>
</svg>
