<svg xmlns="http://www.w3.org/2000/svg" viewBox="0 0 100 100" width="100" height="100">
  <path d="M 0.00 50.00 L 0.00 0.00 L 50.00 0.00 L 100.00 0.00 L 100.00 50.00 L 100.00 100.00 L 50.00 100.00 L 0.00 100.00 L 0.00 50.00 Z M 96.00 50.94 L 96.00 5.88 L 53.25 6.07 C 29.74 6.18 9.04 6.48 7.25 6.75 C 4.61 7.14 4.00 7.68 4.00 9.65 L 4.00 12.08 L 47.75 12.00 C 71.81 11.96 91.95 11.94 92.50 11.96 C 93.11 11.98 93.50 16.61 93.51 23.75 C 93.54 68.45 94.10 96.00 95.00 96.00 C 95.65 96.00 96.00 80.31 96.00 50.94 Z" fill="none" stroke="rgba(255,255,255,0.92)" stroke-width="1.2" stroke-linejoin="round" fill-rule="evenodd"/>
</svg>
