<svg xmlns="http://www.w3.org/2000/svg" viewBox="0 0 400 228" width="400" height="228">
  <path d="M 0.00 114.00 L 0.00 0.00 L 200.00 0.00 L 400.00 0.00 L 400.00 114.00 L 400.00 228.00 L 200.00 228.00 L 0.00 228.00 L 0.00 114.00 Z M 84.00 222.50 C 90.88 222.23 123.05 221.77 155.50 221.47 C 187.95 221.17 246.00 220.51 284.50 220.00 C 323.00 219.49 363.84 219.06 375.25 219.04 L 396.00 219.00 L 396.00 111.90 L 396.00 4.80 L 270.25 5.41 C 113.94 6.15 6.46 7.40 5.23 8.47 C 5.09 8.59 5.02 33.40 5.09 63.60 C 5.16 93.79 5.21 119.17 5.22 120.00 C 5.22 120.83 5.16 144.14 5.09 171.81 C 5.01 199.48 5.26 222.61 5.63 223.21 C 6.27 224.25 48.11 223.87 84.00 222.50 Z M 32.75 221.29 C 33.99 221.06 36.01 221.06 37.25 221.29 C 38.49 221.53 37.48 221.73 35.00 221.73 C 32.52 221.73 31.51 221.53 32.75 221.29 Z M 39.76 219.29 C 41.01 219.05 42.81 219.06 43.76 219.31 C 44.72 219.56 43.70 219.76 41.50 219.75 C 39.30 219.74 38.52 219.53 39.76 219.29 Z M 99.54 219.07 C 99.23 218.56 99.42 217.86 99.98 217.51 C 100.54 217.16 101.00 217.58 101.00 218.44 C 101.00 220.20 100.40 220.46 99.54 219.07 Z M 206.71 217.30 C 207.10 216.30 207.53 216.08 207.75 216.76 C 207.99 217.46 209.25 217.70 210.95 217.36 C 212.52 217.05 214.06 217.28 214.44 217.90 C 214.89 218.64 213.63 219.00 210.59 219.00 C 206.74 219.00 206.16 218.75 206.71 217.30 Z M 216.41 218.14 C 216.98 217.22 224.80 217.47 225.77 218.43 C 226.08 218.74 223.98 219.00 221.11 219.00 C 218.23 219.00 216.12 218.61 216.41 218.14 Z M 231.50 218.00 C 231.84 217.45 231.30 216.96 230.31 216.92 C 229.10 216.87 228.95 216.66 229.85 216.30 C 230.59 216.01 232.17 216.24 233.35 216.81 C 234.53 217.38 236.18 218.08 237.00 218.35 C 237.82 218.62 236.79 218.88 234.69 218.92 C 232.39 218.97 231.13 218.60 231.50 218.00 Z M 10.00 203.36 C 10.02 195.19 9.98 187.82 9.92 187.00 C 9.86 186.18 9.88 170.60 9.95 152.40 L 10.09 119.29 L 29.30 118.63 C 39.86 118.27 60.54 117.71 75.25 117.39 L 102.00 116.81 L 102.00 166.29 L 102.00 215.77 L 84.25 216.38 C 74.49 216.71 53.78 217.27 38.24 217.61 L 9.98 218.22 L 10.00 203.36 Z M 266.81 217.32 C 267.53 217.03 268.40 217.06 268.73 217.40 C 269.06 217.73 268.47 217.96 267.42 217.92 C 266.25 217.87 266.01 217.64 266.81 217.32 Z M 287.50 217.00 C 287.84 216.45 288.32 216.00 288.56 216.00 C 288.80 216.00 289.00 216.45 289.00 217.00 C 289.00 217.55 288.52 218.00 287.94 218.00 C 287.36 218.00 287.16 217.55 287.50 217.00 Z M 292.50 217.00 C 292.84 216.45 293.32 216.00 293.56 216.00 C 293.80 216.00 294.00 216.45 294.00 217.00 C 294.00 217.55 293.52 218.00 292.94 218.00 C 292.36 218.00 292.16 217.55 292.50 217.00 Z M 108.00 114.07 L 108.00 13.11 L 121.25 12.78 C 151.81 12.02 197.87 11.98 198.32 12.71 C 198.59 13.15 198.97 58.73 199.15 114.00 L 199.50 214.50 L 153.75 214.76 L 108.00 215.02 L 108.00 114.07 Z M 205.78 200.90 C 205.48 190.51 205.63 124.30 205.97 116.91 C 205.99 116.58 225.97 116.21 250.38 116.09 L 294.76 115.86 L 294.88 164.93 L 295.00 214.00 L 268.66 214.00 C 254.17 214.00 234.19 214.29 224.26 214.65 L 206.20 215.31 L 205.78 200.90 Z M 301.00 167.75 C 301.01 142.86 300.75 97.71 300.44 67.40 L 299.88 12.31 L 312.62 11.71 C 319.63 11.38 325.71 11.32 326.14 11.58 C 326.56 11.85 326.94 57.27 326.98 112.53 L 327.04 213.00 L 314.02 213.00 L 301.00 213.00 L 301.00 167.75 Z M 333.61 211.42 C 333.27 210.55 333.00 165.10 333.00 110.42 L 333.00 11.00 L 345.96 11.00 L 358.92 11.00 L 359.21 66.75 C 359.37 97.41 359.37 142.86 359.21 167.75 L 358.92 213.00 L 346.57 213.00 C 336.23 213.00 334.12 212.74 333.61 211.42 Z M 195.00 160.99 L 195.00 109.97 L 162.25 110.24 L 129.50 110.50 L 129.24 161.25 L 128.98 212.00 L 161.99 212.00 L 195.00 212.00 L 195.00 160.99 Z M 365.24 111.50 L 365.15 11.00 L 377.58 11.00 L 390.00 11.00 L 390.00 111.50 L 390.00 212.00 L 377.67 212.00 L 365.33 212.00 L 365.24 111.50 Z M 256.79 203.32 C 270.28 196.94 280.00 180.83 280.00 164.83 C 280.00 158.50 276.07 146.41 272.15 140.72 C 268.98 136.11 262.62 130.37 258.05 127.99 C 254.34 126.06 245.98 124.03 241.71 124.01 C 235.93 123.99 230.68 129.44 227.25 139.00 C 224.72 146.04 224.56 147.57 224.53 164.00 C 224.50 182.63 225.44 188.86 229.54 197.00 C 231.80 201.49 235.15 205.20 238.00 206.35 C 241.07 207.60 251.19 205.97 256.79 203.32 Z M 135.77 204.25 C 135.58 203.84 135.27 184.04 135.09 160.25 L 134.76 117.00 L 161.88 117.00 L 189.00 117.00 L 189.00 161.00 L 189.00 205.00 L 162.56 205.00 C 148.02 205.00 135.96 204.66 135.77 204.25 Z M 237.73 198.25 C 235.25 195.49 232.33 187.14 231.11 179.31 C 228.16 160.21 231.48 138.59 238.38 132.12 C 240.37 130.24 241.15 130.13 246.39 130.98 C 256.55 132.64 265.06 139.39 270.25 149.92 C 272.17 153.83 272.50 156.11 272.50 165.50 C 272.50 175.63 272.28 176.92 269.68 181.86 C 268.13 184.80 264.85 189.16 262.40 191.54 C 255.01 198.72 241.48 202.40 237.73 198.25 Z M 145.00 161.11 L 145.00 137.23 L 142.00 136.79 L 139.00 136.35 L 139.00 160.67 L 139.00 185.00 L 142.00 185.00 L 145.00 185.00 L 145.00 161.11 Z M 7.00 137.50 C 7.00 136.68 7.44 136.00 7.97 136.00 C 8.50 136.00 8.68 136.68 8.36 137.50 C 8.05 138.32 7.61 139.00 7.39 139.00 C 7.18 139.00 7.00 138.32 7.00 137.50 Z M 40.81 114.32 C 41.53 114.03 42.40 114.06 42.73 114.40 C 43.06 114.73 42.47 114.96 41.42 114.92 C 40.25 114.87 40.01 114.64 40.81 114.32 Z M 90.00 114.00 C 87.63 113.24 87.67 113.19 90.75 113.10 C 92.54 113.04 94.00 113.45 94.00 114.00 C 94.00 115.13 93.53 115.13 90.00 114.00 Z M 95.00 114.21 C 95.00 113.78 96.46 113.33 98.25 113.21 C 100.69 113.04 101.13 113.24 100.00 113.98 C 98.20 115.17 95.00 115.32 95.00 114.21 Z M 206.00 113.50 C 206.00 112.67 206.45 112.00 207.00 112.00 C 207.55 112.00 208.00 112.67 208.00 113.50 C 208.00 114.33 207.55 115.00 207.00 115.00 C 206.45 115.00 206.00 114.33 206.00 113.50 Z M 215.50 114.00 C 215.16 113.45 215.58 113.00 216.44 113.00 C 217.30 113.00 218.00 113.45 218.00 114.00 C 218.00 114.55 217.58 115.00 217.06 115.00 C 216.54 115.00 215.84 114.55 215.50 114.00 Z M 224.25 114.31 C 225.21 114.06 226.00 113.44 226.00 112.93 C 226.00 111.44 227.73 111.86 228.36 113.50 C 228.80 114.65 228.20 114.97 225.72 114.88 C 223.95 114.82 223.29 114.56 224.25 114.31 Z M 219.50 113.00 C 219.84 112.45 220.54 112.00 221.06 112.00 C 221.58 112.00 222.00 112.45 222.00 113.00 C 222.00 113.55 221.30 114.00 220.44 114.00 C 219.58 114.00 219.16 113.55 219.50 113.00 Z M 257.50 112.92 C 254.34 112.42 255.12 112.25 261.19 112.14 C 265.42 112.06 269.13 112.41 269.44 112.91 C 270.06 113.91 263.74 113.92 257.50 112.92 Z M 277.00 113.00 C 277.00 112.45 277.45 112.00 278.00 112.00 C 278.55 112.00 279.00 112.45 279.00 113.00 C 279.00 113.55 278.55 114.00 278.00 114.00 C 277.45 114.00 277.00 113.55 277.00 113.00 Z M 281.47 112.94 C 281.22 112.54 283.94 112.17 287.51 112.12 C 291.40 112.06 294.00 112.44 294.00 113.06 C 294.00 114.24 282.19 114.12 281.47 112.94 Z M 245.75 112.34 C 246.44 112.06 247.56 112.06 248.25 112.34 C 248.94 112.62 248.38 112.84 247.00 112.84 C 245.62 112.84 245.06 112.62 245.75 112.34 Z M 10.17 63.81 C 10.01 37.30 9.66 15.25 9.38 14.81 C 9.11 14.36 10.82 14.00 13.19 13.99 C 15.56 13.99 36.52 13.69 59.76 13.33 L 102.01 12.68 L 101.96 61.68 L 101.91 110.68 L 74.79 111.34 C 59.88 111.70 39.30 112.00 29.07 112.00 L 10.46 112.00 L 10.17 63.81 Z M 205.60 109.41 C 205.27 108.55 205.00 86.16 205.00 59.67 L 205.00 11.50 L 249.02 11.60 C 273.23 11.65 293.23 11.89 293.46 12.13 C 293.70 12.37 294.03 34.47 294.20 61.25 L 294.50 109.93 L 251.14 109.98 C 227.28 110.00 207.42 110.24 206.99 110.51 C 206.56 110.77 205.94 110.28 205.60 109.41 Z M 7.16 100.00 C 7.16 98.62 7.38 98.06 7.66 98.75 C 7.94 99.44 7.94 100.56 7.66 101.25 C 7.38 101.94 7.16 101.38 7.16 100.00 Z M 136.80 48.30 C 141.08 45.10 143.01 41.73 143.65 36.32 C 144.84 26.25 137.95 18.00 128.33 18.00 C 120.15 18.00 114.41 23.74 113.31 33.02 C 112.49 39.98 116.67 47.27 123.02 49.94 C 126.54 51.42 133.77 50.56 136.80 48.30 Z M 123.25 42.22 C 120.61 40.19 119.01 35.39 119.73 31.63 C 120.01 30.17 121.62 27.81 123.31 26.39 C 128.54 21.99 135.71 24.68 137.61 31.75 C 139.87 40.13 129.94 47.37 123.25 42.22 Z M 40.50 11.00 C 38.57 10.17 38.58 10.14 40.69 10.07 C 41.90 10.03 43.16 10.45 43.50 11.00 C 44.23 12.18 43.25 12.18 40.50 11.00 Z M 24.25 10.31 C 25.21 10.06 26.79 10.06 27.75 10.31 C 28.71 10.56 27.93 10.77 26.00 10.77 C 24.07 10.77 23.29 10.56 24.25 10.31 Z M 84.00 9.94 C 84.00 9.36 84.45 9.16 85.00 9.50 C 85.55 9.84 86.00 10.32 86.00 10.56 C 86.00 10.80 85.55 11.00 85.00 11.00 C 84.45 11.00 84.00 10.52 84.00 9.94 Z M 96.00 9.90 C 94.79 9.04 94.94 8.92 96.75 9.32 C 97.99 9.59 99.00 9.40 99.00 8.91 C 99.00 8.41 99.45 8.00 100.00 8.00 C 100.55 8.00 101.00 8.68 101.00 9.50 C 101.00 11.24 98.19 11.46 96.00 9.90 Z M 205.46 9.06 C 205.82 8.48 207.97 8.00 210.23 8.00 C 215.34 8.00 214.46 9.15 208.92 9.71 C 206.19 9.98 205.03 9.76 205.46 9.06 Z M 215.00 9.61 C 215.00 8.78 221.03 8.40 222.23 9.16 C 222.99 9.65 221.80 9.98 219.25 9.98 C 216.91 9.99 215.00 9.83 215.00 9.61 Z M 267.50 9.00 C 267.16 8.45 267.61 8.00 268.50 8.00 C 269.39 8.00 269.84 8.45 269.50 9.00 C 269.16 9.55 268.71 10.00 268.50 10.00 C 268.29 10.00 267.84 9.55 267.50 9.00 Z M 275.00 9.11 C 275.00 8.62 275.71 7.94 276.58 7.61 C 278.69 6.80 278.67 6.78 278.67 8.50 C 278.67 9.32 277.84 10.00 276.83 10.00 C 275.82 10.00 275.00 9.60 275.00 9.11 Z M 282.00 9.25 C 282.00 8.84 283.91 8.38 286.25 8.24 C 289.34 8.05 290.09 8.25 289.00 8.98 C 287.24 10.14 282.00 10.34 282.00 9.25 Z M 291.45 9.09 C 291.76 8.58 291.45 7.94 290.76 7.66 C 289.96 7.34 290.10 7.13 291.14 7.08 C 292.05 7.04 293.05 7.67 293.36 8.50 C 293.72 9.43 293.36 10.00 292.41 10.00 C 291.57 10.00 291.14 9.59 291.45 9.09 Z" fill="none" stroke="rgba(255,255,255,0.92)" stroke-width="1.5" stroke-linejoin="round" fill-rule="evenodd"/>
</svg>
