<svg xmlns="http://www.w3.org/2000/svg" viewBox="0 0 100 100" width="100" height="100">
  <path d="M 0.00 50.00 L 0.00 0.00 L 50.00 0.00 L 100.00 0.00 L 100.00 50.00 L 100.00 100.00 L 50.00 100.00 L 0.00 100.00 L 0.00 50.00 Z M 73.75 93.01 L 96.00 93.00 L 96.00 48.33 C 96.00 23.77 95.72 3.95 95.38 4.29 C 95.03 4.63 94.81 23.33 94.88 45.85 L 95.01 86.78 L 92.73 87.35 C 91.48 87.67 72.52 87.95 50.59 87.98 C 28.67 88.01 9.71 88.29 8.45 88.60 C 6.18 89.17 6.17 89.12 5.78 76.34 C 5.56 69.28 5.52 50.36 5.68 34.30 C 5.87 15.82 5.61 4.88 4.99 4.49 C 4.34 4.09 4.00 19.56 4.00 49.10 L 4.00 94.31 L 27.75 93.66 C 40.81 93.31 61.51 93.01 73.75 93.01 Z M 6.40 91.16 C 7.13 89.98 13.80 89.87 14.52 91.03 C 14.87 91.60 13.22 92.00 10.50 92.00 C 7.96 92.00 6.11 91.62 6.40 91.16 Z M 16.00 91.00 C 16.00 90.45 18.28 90.00 21.06 90.00 C 24.18 90.00 25.88 90.38 25.50 91.00 C 25.16 91.55 22.88 92.00 20.44 92.00 C 18.00 92.00 16.00 91.55 16.00 91.00 Z M 29.50 91.00 C 27.88 90.30 28.16 90.14 31.00 90.14 C 32.92 90.14 35.40 90.53 36.50 91.00 C 38.12 91.70 37.84 91.86 35.00 91.86 C 33.08 91.86 30.60 91.47 29.50 91.00 Z M 39.75 90.34 C 40.44 90.06 41.56 90.06 42.25 90.34 C 42.94 90.62 42.38 90.84 41.00 90.84 C 39.62 90.84 39.06 90.62 39.75 90.34 Z M 45.75 90.34 C 46.44 90.06 47.56 90.06 48.25 90.34 C 48.94 90.62 48.38 90.84 47.00 90.84 C 45.62 90.84 45.06 90.62 45.75 90.34 Z M 50.81 90.32 C 51.53 90.03 52.40 90.06 52.73 90.40 C 53.06 90.73 52.47 90.96 51.42 90.92 C 50.25 90.87 50.01 90.64 50.81 90.32 Z M 92.50 90.00 C 92.84 89.45 93.32 89.00 93.56 89.00 C 93.80 89.00 94.00 89.45 94.00 90.00 C 94.00 90.55 93.52 91.00 92.94 91.00 C 92.36 91.00 92.16 90.55 92.50 90.00 Z M 71.81 89.32 C 72.53 89.03 73.40 89.06 73.73 89.40 C 74.06 89.73 73.47 89.96 72.42 89.92 C 71.25 89.87 71.01 89.64 71.81 89.32 Z M 58.02 77.82 C 74.98 69.96 83.62 51.53 78.04 35.08 C 76.85 31.55 74.58 26.79 73.00 24.51 C 67.15 15.99 55.89 9.95 44.52 9.22 C 37.93 8.80 37.21 8.96 34.18 11.50 C 27.58 17.06 23.99 28.52 24.02 44.00 C 24.05 61.34 27.42 72.81 34.17 78.49 C 37.23 81.06 37.90 81.21 44.98 80.79 C 50.25 80.49 54.20 79.59 58.02 77.82 Z M 38.78 74.26 C 29.52 68.52 26.93 35.94 34.54 20.92 C 37.58 14.93 39.50 13.84 45.67 14.64 C 56.10 16.00 66.75 23.83 71.05 33.31 C 73.89 39.55 73.69 50.97 70.64 57.52 C 65.09 69.45 46.65 79.13 38.78 74.26 Z" fill="none" stroke="rgba(255,255,255,0.92)" stroke-width="1.2" stroke-linejoin="round" fill-rule="evenodd"/>
</svg>
