<svg xmlns="http://www.w3.org/2000/svg" viewBox="0 0 374 400" width="374" height="400">
  <path d="M 0.00 200.00 L 0.00 0.00 L 187.00 0.00 L 374.00 0.00 L 374.00 200.00 L 374.00 400.00 L 187.00 400.00 L 0.00 400.00 L 0.00 200.00 Z M 116.50 393.51 C 146.20 393.24 208.30 392.97 254.50 392.90 C 300.70 392.83 345.31 392.53 353.63 392.24 L 368.75 391.70 L 368.49 371.30 C 368.35 360.07 367.95 350.62 367.61 350.28 C 367.28 349.94 367.00 350.19 367.00 350.83 C 367.00 351.48 366.55 352.00 366.00 352.00 C 364.56 352.00 364.76 349.25 366.24 348.75 C 367.69 348.27 367.92 339.50 366.55 336.59 C 365.95 335.30 366.01 334.89 366.71 335.32 C 367.39 335.74 367.93 333.74 368.23 329.74 C 368.86 321.50 367.53 317.55 366.74 325.26 C 366.42 328.36 365.65 331.71 365.03 332.70 C 364.16 334.09 364.07 333.12 364.64 328.50 C 365.06 325.20 365.46 320.02 365.55 317.00 C 365.80 308.56 365.93 307.84 367.00 308.50 C 367.55 308.84 368.00 308.14 368.00 306.94 C 368.00 305.26 367.55 304.89 366.00 305.29 C 364.70 305.63 364.00 305.32 364.00 304.41 C 364.00 303.63 364.48 303.00 365.07 303.00 C 365.68 303.00 365.86 302.15 365.50 301.00 C 365.14 299.85 365.32 299.00 365.93 299.00 C 367.55 299.00 367.21 296.42 365.38 294.90 C 364.11 293.85 363.87 292.34 364.27 287.96 C 364.55 284.88 364.34 281.57 363.80 280.60 C 362.61 278.47 363.74 276.96 365.00 279.00 C 365.49 279.79 366.10 280.23 366.35 279.97 C 366.97 279.32 367.42 269.73 367.16 262.50 C 366.98 257.64 366.73 256.86 365.85 258.37 C 365.26 259.39 364.77 262.38 364.77 265.00 C 364.77 267.61 364.38 270.37 363.90 271.13 C 363.32 272.05 363.03 271.29 363.02 268.81 C 363.01 266.78 362.53 264.83 361.95 264.47 C 361.23 264.03 361.27 263.38 362.07 262.41 C 362.99 261.31 362.94 261.00 361.87 260.98 C 361.05 260.98 360.90 260.68 361.50 260.23 C 363.23 258.97 365.11 255.00 363.98 255.00 C 362.44 255.00 362.80 200.03 364.34 199.92 C 365.12 199.87 365.09 199.68 364.25 199.34 C 362.87 198.78 362.73 192.96 364.00 189.00 C 364.69 186.85 364.83 186.78 365.02 188.50 C 365.13 189.60 365.15 191.29 365.05 192.25 C 364.95 193.21 365.32 194.00 365.86 194.00 C 367.13 194.00 367.21 175.25 365.94 174.46 C 365.42 174.14 365.00 175.03 365.00 176.44 C 365.00 181.53 363.50 178.86 363.34 173.50 C 363.25 170.47 363.35 168.00 363.56 168.00 C 363.77 168.00 364.58 169.23 365.37 170.74 C 366.63 173.14 366.79 163.06 366.69 89.71 L 366.57 5.95 L 341.54 6.52 C 327.77 6.84 301.46 7.50 283.08 7.99 C 264.70 8.49 248.95 8.56 248.08 8.17 C 247.21 7.77 223.78 7.73 196.00 8.08 C 168.22 8.43 114.11 8.89 75.75 9.11 L 6.00 9.50 L 6.00 104.58 C 6.00 156.88 6.30 243.66 6.67 297.43 L 7.33 395.19 L 34.92 394.59 C 50.09 394.26 86.80 393.78 116.50 393.51 Z M 135.00 390.19 C 135.00 388.35 135.56 388.00 138.56 388.00 C 140.57 388.00 141.86 388.42 141.53 388.96 C 141.20 389.48 140.21 389.63 139.32 389.29 C 138.35 388.92 137.17 389.41 136.36 390.53 C 135.06 392.30 135.00 392.28 135.00 390.19 Z M 152.00 389.36 C 152.00 388.56 155.59 388.22 163.75 388.24 C 170.21 388.25 174.26 388.45 172.75 388.69 C 171.24 388.94 170.00 389.48 170.00 389.90 C 170.00 390.32 165.95 390.63 161.00 390.58 C 154.98 390.53 152.01 390.12 152.00 389.36 Z M 175.00 390.27 C 175.82 389.96 176.79 389.26 177.14 388.71 C 177.51 388.15 178.99 388.05 180.64 388.48 C 183.25 389.16 183.32 389.30 181.50 390.04 C 180.40 390.49 178.15 390.86 176.50 390.85 C 174.85 390.85 174.18 390.59 175.00 390.27 Z M 190.25 389.76 C 190.48 389.07 191.47 388.34 192.45 388.15 C 193.55 387.94 193.98 388.23 193.56 388.90 C 193.13 389.60 193.91 389.99 195.69 389.98 C 197.87 389.97 198.16 389.75 197.00 389.00 C 195.93 388.31 196.94 388.07 200.50 388.15 C 203.39 388.22 204.44 388.48 203.00 388.76 C 200.78 389.20 200.71 389.33 202.41 389.94 C 203.48 390.33 201.16 390.72 197.07 390.83 C 191.61 390.98 189.93 390.71 190.25 389.76 Z M 298.12 389.36 C 296.92 388.01 296.98 387.85 298.54 388.15 C 299.52 388.34 300.52 389.06 300.75 389.75 C 301.33 391.48 299.79 391.25 298.12 389.36 Z M 312.21 389.40 C 311.13 388.23 311.37 388.00 313.71 388.02 C 315.24 388.02 316.05 388.37 315.50 388.78 C 314.95 389.19 314.27 389.81 314.00 390.16 C 313.73 390.51 312.92 390.17 312.21 389.40 Z M 207.00 389.00 C 205.79 388.22 205.95 388.03 207.81 388.02 C 209.10 388.01 209.84 388.44 209.50 389.00 C 208.76 390.20 208.86 390.20 207.00 389.00 Z M 255.00 388.98 C 252.93 388.56 257.99 388.21 267.42 388.13 C 276.17 388.06 283.15 388.19 282.92 388.41 C 282.11 389.21 258.46 389.70 255.00 388.98 Z M 286.00 389.00 C 286.00 388.45 287.01 388.01 288.25 388.02 C 290.07 388.03 290.21 388.22 289.00 389.00 C 287.06 390.25 286.00 390.25 286.00 389.00 Z M 355.50 389.00 C 353.29 388.44 353.03 388.17 354.50 388.00 C 355.60 387.87 356.95 387.88 357.50 388.03 C 358.05 388.18 359.48 388.34 360.67 388.40 C 361.86 388.45 363.17 388.84 363.58 389.25 C 364.51 390.18 359.53 390.03 355.50 389.00 Z M 185.25 388.31 C 186.21 388.06 187.79 388.06 188.75 388.31 C 189.71 388.56 188.93 388.77 187.00 388.77 C 185.07 388.77 184.29 388.56 185.25 388.31 Z M 219.81 388.32 C 220.53 388.03 221.40 388.06 221.73 388.40 C 222.06 388.73 221.47 388.96 220.42 388.92 C 219.25 388.87 219.01 388.64 219.81 388.32 Z M 248.32 388.22 C 246.49 387.05 246.65 370.35 248.49 369.64 C 249.68 369.18 249.92 364.07 249.91 338.55 C 249.90 319.93 249.53 308.00 248.95 308.00 C 248.43 308.00 248.00 311.67 248.00 316.17 C 248.00 330.68 247.00 323.83 246.65 306.91 C 246.46 297.89 246.47 293.20 246.66 296.50 C 247.08 303.73 247.76 307.00 248.84 307.00 C 249.57 307.00 249.69 274.92 248.98 272.50 C 248.81 271.95 249.04 270.69 249.47 269.70 C 250.01 268.45 249.68 267.48 248.38 266.51 C 246.64 265.22 246.73 265.14 249.50 265.49 C 251.15 265.69 277.02 265.89 307.00 265.93 L 361.50 266.00 L 361.79 298.25 C 361.94 315.99 362.21 342.76 362.37 357.75 L 362.68 385.00 L 320.09 385.06 C 296.67 385.09 273.23 385.35 268.00 385.62 C 255.22 386.30 250.00 385.50 250.00 382.88 C 250.00 381.78 249.56 381.16 249.01 381.49 C 247.75 382.27 248.22 385.35 249.92 387.40 C 251.30 389.06 250.38 389.53 248.32 388.22 Z M 319.75 388.29 C 320.99 388.06 323.01 388.06 324.25 388.29 C 325.49 388.53 324.48 388.73 322.00 388.73 C 319.52 388.73 318.51 388.53 319.75 388.29 Z M 333.81 388.32 C 334.53 388.03 335.40 388.06 335.73 388.40 C 336.06 388.73 335.47 388.96 334.42 388.92 C 333.25 388.87 333.01 388.64 333.81 388.32 Z M 347.25 388.31 C 348.21 388.06 349.79 388.06 350.75 388.31 C 351.71 388.56 350.93 388.77 349.00 388.77 C 347.07 388.77 346.29 388.56 347.25 388.31 Z M 14.80 373.70 C 14.44 358.10 13.98 249.87 13.70 114.29 L 13.50 17.07 L 58.00 16.88 C 82.48 16.77 107.00 16.58 112.50 16.46 C 118.00 16.35 149.05 16.12 181.50 15.97 L 240.50 15.70 L 241.20 42.10 C 241.59 56.62 241.81 83.12 241.70 101.00 L 241.50 133.50 L 183.50 134.10 C 151.60 134.44 125.50 134.77 125.50 134.85 C 125.50 134.93 125.60 158.74 125.72 187.75 C 126.08 270.37 126.12 385.22 125.79 385.49 C 125.63 385.62 100.66 385.99 70.30 386.32 L 15.11 386.91 L 14.80 373.70 Z M 134.01 357.23 C 134.01 341.43 133.81 314.53 133.55 297.45 L 133.09 266.40 L 186.56 266.14 C 215.97 265.99 240.81 266.12 241.76 266.43 C 243.38 266.94 243.52 271.04 243.82 326.35 L 244.15 385.72 L 189.07 385.84 L 134.00 385.96 L 134.01 357.23 Z M 96.88 381.00 L 121.26 381.00 L 120.54 320.75 C 120.14 287.61 119.52 260.27 119.16 260.00 C 118.80 259.73 100.82 259.73 79.21 260.00 L 39.93 260.50 L 40.04 311.00 C 40.11 338.77 40.35 366.00 40.57 371.50 C 40.80 377.00 40.99 381.68 40.99 381.91 C 41.00 382.13 48.09 382.02 56.75 381.66 C 65.41 381.30 83.47 381.01 96.88 381.00 Z M 365.00 377.56 C 365.00 376.70 365.45 376.00 366.00 376.00 C 366.55 376.00 367.00 376.42 367.00 376.94 C 367.00 377.46 366.55 378.16 366.00 378.50 C 365.45 378.84 365.00 378.42 365.00 377.56 Z M 249.68 375.81 C 249.36 375.01 249.13 375.25 249.08 376.42 C 249.04 377.47 249.27 378.06 249.60 377.73 C 249.94 377.40 249.97 376.53 249.68 375.81 Z M 188.91 374.11 C 208.96 367.86 222.00 348.70 222.00 325.47 C 222.00 312.32 217.33 300.62 208.12 290.73 C 196.88 278.64 176.64 272.35 167.39 278.07 C 162.71 280.96 157.40 292.08 155.47 303.00 C 153.69 313.11 153.43 335.72 154.98 345.42 C 157.26 359.64 162.32 370.39 168.50 374.16 C 172.46 376.58 181.03 376.56 188.91 374.11 Z M 48.55 372.91 C 48.28 372.13 47.93 348.28 47.77 319.89 L 47.50 268.28 L 79.50 267.75 C 97.10 267.47 111.84 267.43 112.25 267.67 C 112.66 267.92 113.00 291.72 113.00 320.56 L 113.00 373.00 L 97.66 373.00 C 89.22 373.00 74.84 373.30 65.69 373.66 C 51.88 374.20 48.97 374.07 48.55 372.91 Z M 365.43 371.68 C 365.15 370.96 365.37 369.27 365.90 367.93 C 366.80 365.69 366.88 365.80 366.94 369.25 C 367.00 373.05 366.36 374.09 365.43 371.68 Z M 171.35 366.53 C 165.32 362.31 161.48 346.02 161.56 325.00 C 161.63 307.50 163.35 297.71 167.81 289.50 L 170.53 284.50 L 178.01 284.51 C 184.00 284.52 186.63 285.05 191.16 287.16 C 201.52 292.00 210.20 303.19 213.52 316.00 C 218.73 336.04 206.32 359.77 187.12 366.47 C 181.58 368.41 174.07 368.44 171.35 366.53 Z M 247.20 354.50 C 247.18 348.38 247.38 347.19 248.05 349.44 C 248.54 351.09 248.56 354.60 248.08 357.44 C 247.26 362.33 247.23 362.23 247.20 354.50 Z M 365.00 355.00 C 365.00 354.45 365.45 354.00 366.00 354.00 C 366.55 354.00 367.00 354.45 367.00 355.00 C 367.00 355.55 366.55 356.00 366.00 356.00 C 365.45 356.00 365.00 355.55 365.00 355.00 Z M 59.62 346.88 C 59.28 345.16 59.00 332.11 59.00 317.88 L 59.00 292.00 L 55.25 292.00 L 51.50 292.00 L 51.76 319.75 C 51.91 335.01 52.23 348.06 52.48 348.75 C 52.73 349.44 54.58 350.00 56.59 350.00 C 60.16 350.00 60.23 349.92 59.62 346.88 Z M 247.19 339.50 C 247.22 337.85 247.44 337.30 247.69 338.27 C 247.95 339.24 247.93 340.59 247.66 341.27 C 247.38 341.95 247.17 341.15 247.19 339.50 Z M 246.02 329.75 C 246.02 329.06 246.47 327.82 247.00 327.00 C 247.76 325.83 247.97 326.11 247.98 328.25 C 247.99 329.76 247.55 331.00 247.00 331.00 C 246.45 331.00 246.01 330.44 246.02 329.75 Z M 367.69 315.27 C 367.44 314.30 367.22 314.85 367.19 316.50 C 367.17 318.15 367.38 318.95 367.66 318.27 C 367.93 317.59 367.95 316.24 367.69 315.27 Z M 366.58 287.25 C 365.49 286.16 365.08 287.58 365.77 290.04 L 366.46 292.50 L 366.81 290.16 C 367.00 288.88 366.90 287.57 366.58 287.25 Z M 246.03 285.45 C 246.06 282.86 246.19 282.73 247.13 284.35 C 247.90 285.67 247.89 286.51 247.10 287.30 C 246.30 288.10 246.01 287.60 246.03 285.45 Z M 246.08 277.42 C 246.13 276.25 246.36 276.01 246.68 276.81 C 246.97 277.53 246.94 278.40 246.60 278.73 C 246.27 279.06 246.04 278.47 246.08 277.42 Z M 246.00 269.50 C 246.00 268.68 246.18 268.00 246.39 268.00 C 246.61 268.00 247.05 268.68 247.36 269.50 C 247.68 270.32 247.50 271.00 246.97 271.00 C 246.44 271.00 246.00 270.32 246.00 269.50 Z M 245.17 263.50 C 245.37 262.30 245.00 261.60 244.25 261.75 C 243.56 261.89 243.00 261.55 243.00 261.00 C 243.00 259.39 246.01 259.85 246.66 261.57 C 246.99 262.43 246.72 263.67 246.05 264.32 C 245.10 265.24 244.91 265.05 245.17 263.50 Z M 134.29 262.75 C 134.54 262.06 135.37 261.66 136.12 261.86 C 136.88 262.05 141.10 262.13 145.50 262.03 C 149.90 261.94 153.95 261.89 154.50 261.93 C 162.30 262.55 169.84 262.51 171.14 261.86 C 172.21 261.33 173.22 261.56 174.02 262.52 C 175.09 263.82 172.70 264.00 154.54 264.00 C 138.40 264.00 133.93 263.72 134.29 262.75 Z M 179.00 262.67 C 180.38 261.96 182.28 261.57 183.24 261.80 C 186.17 262.52 184.10 264.00 180.19 263.99 C 176.55 263.97 176.53 263.95 179.00 262.67 Z M 186.25 263.31 C 187.21 263.06 188.79 263.06 189.75 263.31 C 190.71 263.56 189.93 263.77 188.00 263.77 C 186.07 263.77 185.29 263.56 186.25 263.31 Z M 196.00 263.00 C 197.98 261.72 202.29 261.72 201.50 263.00 C 201.16 263.55 199.45 263.99 197.69 263.98 C 195.26 263.97 194.86 263.74 196.00 263.00 Z M 209.50 262.60 C 212.71 261.83 215.69 261.70 217.82 262.26 C 219.64 262.74 222.41 262.85 223.97 262.51 C 225.58 262.15 227.09 262.34 227.46 262.94 C 227.91 263.67 224.38 263.97 216.31 263.90 C 204.90 263.81 204.67 263.77 209.50 262.60 Z M 230.81 263.32 C 231.53 263.03 232.40 263.06 232.73 263.40 C 233.06 263.73 232.47 263.96 231.42 263.92 C 230.25 263.87 230.01 263.64 230.81 263.32 Z M 240.81 263.32 C 241.53 263.03 242.40 263.06 242.73 263.40 C 243.06 263.73 242.47 263.96 241.42 263.92 C 240.25 263.87 240.01 263.64 240.81 263.32 Z M 253.75 263.29 C 254.99 263.06 257.01 263.06 258.25 263.29 C 259.49 263.53 258.48 263.73 256.00 263.73 C 253.53 263.73 252.51 263.53 253.75 263.29 Z M 263.81 263.32 C 264.53 263.03 265.40 263.06 265.73 263.40 C 266.06 263.73 265.47 263.96 264.42 263.92 C 263.25 263.87 263.01 263.64 263.81 263.32 Z M 271.76 263.29 C 273.01 263.05 274.81 263.06 275.76 263.31 C 276.72 263.56 275.70 263.76 273.50 263.75 C 271.30 263.74 270.52 263.53 271.76 263.29 Z M 279.27 263.31 C 280.24 263.05 281.59 263.07 282.27 263.34 C 282.95 263.62 282.15 263.83 280.50 263.81 C 278.85 263.78 278.30 263.56 279.27 263.31 Z M 287.25 263.31 C 288.21 263.06 289.79 263.06 290.75 263.31 C 291.71 263.56 290.93 263.77 289.00 263.77 C 287.07 263.77 286.29 263.56 287.25 263.31 Z M 295.00 263.00 C 295.00 261.75 296.06 261.75 298.00 263.00 C 299.21 263.78 299.07 263.97 297.25 263.98 C 296.01 263.99 295.00 263.55 295.00 263.00 Z M 307.25 263.31 C 308.21 263.06 309.79 263.06 310.75 263.31 C 311.71 263.56 310.93 263.77 309.00 263.77 C 307.07 263.77 306.29 263.56 307.25 263.31 Z M 316.00 263.11 C 318.58 262.69 317.26 262.39 311.00 261.96 C 303.28 261.43 303.70 261.37 315.50 261.32 C 322.65 261.29 327.38 261.49 326.00 261.76 C 323.67 262.22 323.63 262.30 325.50 263.05 C 326.75 263.56 324.70 263.83 320.00 263.77 C 315.09 263.71 313.71 263.48 316.00 263.11 Z M 330.50 263.00 C 329.15 262.42 328.99 262.11 330.00 262.06 C 330.82 262.01 332.62 261.68 334.00 261.31 C 336.24 260.72 336.36 260.82 335.13 262.33 C 333.60 264.19 333.35 264.22 330.50 263.00 Z M 344.00 263.00 C 344.00 262.45 344.68 262.00 345.50 262.00 C 346.32 262.00 347.00 262.45 347.00 263.00 C 347.00 263.55 346.32 264.00 345.50 264.00 C 344.68 264.00 344.00 263.55 344.00 263.00 Z M 349.27 263.31 C 350.24 263.05 351.59 263.07 352.27 263.34 C 352.95 263.62 352.15 263.83 350.50 263.81 C 348.85 263.78 348.30 263.56 349.27 263.31 Z M 352.50 261.93 C 348.54 261.29 348.55 261.28 353.75 261.14 C 358.86 261.00 360.29 261.38 357.75 262.18 C 357.06 262.40 354.70 262.29 352.50 261.93 Z M 298.81 261.32 C 299.53 261.03 300.40 261.06 300.73 261.40 C 301.06 261.73 300.47 261.96 299.42 261.92 C 298.25 261.87 298.01 261.64 298.81 261.32 Z M 133.42 259.08 C 133.19 258.85 133.00 232.42 133.00 200.33 L 133.00 142.00 L 164.75 141.87 C 200.30 141.73 235.53 141.34 281.50 140.58 C 298.55 140.30 322.96 140.06 335.75 140.04 C 356.48 140.00 359.00 139.82 359.00 138.38 C 359.00 137.27 358.39 136.93 357.04 137.28 C 355.94 137.57 354.51 137.12 353.81 136.27 C 352.70 134.93 352.97 134.83 356.02 135.49 C 357.93 135.90 359.73 136.44 360.00 136.70 C 360.27 136.96 360.59 153.22 360.71 172.83 C 360.82 192.45 360.99 219.75 361.09 233.50 L 361.26 258.50 L 306.17 258.78 L 251.08 259.06 L 249.42 255.84 C 248.12 253.32 248.00 252.22 248.90 250.79 C 249.74 249.44 249.75 248.41 248.95 246.90 C 248.31 245.71 248.13 243.20 248.51 240.93 C 249.14 237.20 247.84 235.33 246.66 238.25 C 246.38 238.94 246.18 235.22 246.21 230.00 L 246.26 220.50 L 247.50 228.00 C 249.02 237.18 249.08 236.26 249.06 202.01 C 249.06 185.15 248.68 174.39 248.08 174.19 C 247.55 174.02 247.33 173.30 247.60 172.60 C 247.87 171.89 247.40 170.74 246.55 170.04 C 244.36 168.23 244.63 166.75 247.00 167.50 C 249.07 168.16 249.45 167.34 248.38 164.56 C 247.91 163.31 247.45 163.21 246.38 164.10 C 245.25 165.04 245.00 164.59 245.00 161.62 C 245.00 157.82 246.32 156.79 247.45 159.72 C 248.71 163.02 249.50 159.29 249.17 151.60 C 248.77 142.30 247.00 141.45 247.00 150.56 C 247.00 154.68 246.63 156.89 246.00 156.50 C 245.45 156.16 245.00 152.96 245.00 149.38 C 245.00 145.30 244.63 143.11 244.00 143.50 C 243.35 143.90 243.00 164.17 243.00 201.04 L 243.00 257.96 L 240.75 258.49 C 238.07 259.11 134.02 259.69 133.42 259.08 Z M 245.23 257.81 C 245.73 256.32 248.00 255.50 248.00 256.81 C 248.00 257.35 247.29 258.06 246.42 258.39 C 245.44 258.77 244.99 258.54 245.23 257.81 Z M 367.25 252.52 C 366.59 249.09 366.00 249.35 366.00 253.06 C 366.00 254.74 366.39 255.88 366.87 255.58 C 367.34 255.29 367.51 253.91 367.25 252.52 Z M 367.61 244.42 C 367.27 243.55 367.00 242.11 367.00 241.22 C 367.00 240.18 366.66 239.94 366.03 240.57 C 364.88 241.72 365.81 246.00 367.22 246.00 C 367.77 246.00 367.94 245.29 367.61 244.42 Z M 366.82 230.53 C 366.58 228.66 366.15 228.27 365.06 228.95 C 363.82 229.73 363.82 230.41 365.06 234.17 C 366.38 238.14 366.53 238.27 366.82 235.75 C 366.99 234.24 366.99 231.89 366.82 230.53 Z M 367.00 224.50 C 367.00 223.74 366.55 222.84 366.00 222.50 C 365.43 222.15 365.00 223.01 365.00 224.50 C 365.00 225.99 365.43 226.85 366.00 226.50 C 366.55 226.16 367.00 225.26 367.00 224.50 Z M 365.69 215.25 C 365.44 214.29 365.23 215.07 365.23 217.00 C 365.23 218.93 365.44 219.71 365.69 218.75 C 365.94 217.79 365.94 216.21 365.69 215.25 Z M 246.19 214.50 C 246.22 212.85 246.44 212.30 246.69 213.27 C 246.95 214.24 246.93 215.59 246.66 216.27 C 246.38 216.95 246.17 216.15 246.19 214.50 Z M 56.02 206.99 C 58.42 205.77 61.34 202.93 63.48 199.75 C 67.09 194.39 67.38 191.86 65.43 182.27 C 64.85 179.43 59.49 173.29 56.10 171.59 C 48.91 167.98 38.89 169.72 33.40 175.53 C 28.17 181.09 26.87 191.76 30.55 199.00 C 32.21 202.27 36.85 206.63 40.00 207.88 C 44.26 209.57 51.77 209.16 56.02 206.99 Z M 366.68 204.81 C 366.36 204.01 366.13 204.25 366.08 205.42 C 366.04 206.47 366.27 207.06 366.60 206.73 C 366.94 206.40 366.97 205.53 366.68 204.81 Z M 245.70 204.66 C 245.42 203.92 245.59 202.68 246.08 201.91 C 246.73 200.88 246.97 201.25 246.98 203.25 C 247.00 206.24 246.51 206.77 245.70 204.66 Z M 43.27 200.54 C 39.41 198.83 36.01 193.66 36.00 189.48 C 36.00 185.16 40.25 179.40 44.48 178.01 C 51.76 175.60 59.00 181.19 59.00 189.22 C 59.00 192.92 54.04 200.99 51.74 201.01 C 51.06 201.02 49.60 201.24 48.50 201.50 C 47.40 201.76 45.05 201.33 43.27 200.54 Z M 245.48 195.75 C 245.18 194.51 245.34 191.03 245.85 188.00 L 246.77 182.50 L 246.88 190.25 C 247.00 198.03 246.52 199.94 245.48 195.75 Z M 245.65 179.53 C 245.34 178.72 245.52 177.80 246.04 177.47 C 246.57 177.15 247.00 177.81 247.00 178.94 C 247.00 181.36 246.44 181.60 245.65 179.53 Z M 363.00 160.50 C 363.00 159.68 363.44 159.00 363.97 159.00 C 364.50 159.00 364.68 159.68 364.36 160.50 C 364.05 161.32 363.61 162.00 363.39 162.00 C 363.18 162.00 363.00 161.32 363.00 160.50 Z M 362.75 141.49 C 362.43 139.82 362.73 139.00 363.64 139.00 C 364.39 139.00 365.00 139.87 365.00 140.94 C 365.00 143.90 363.29 144.31 362.75 141.49 Z M 250.33 137.50 C 250.33 136.22 252.72 136.02 266.42 136.15 C 275.26 136.23 281.26 136.49 279.75 136.72 C 278.24 136.95 277.00 137.55 277.00 138.07 C 277.00 138.58 274.05 139.00 270.44 139.00 C 266.32 139.00 264.11 138.63 264.50 138.00 C 264.86 137.42 263.93 137.01 262.31 137.02 C 260.13 137.03 259.84 137.25 261.00 138.00 C 262.22 138.79 262.09 138.97 260.31 138.98 C 259.10 138.99 257.84 138.55 257.50 138.00 C 257.16 137.45 255.78 137.00 254.44 137.00 C 253.10 137.00 252.00 137.45 252.00 138.00 C 252.00 138.55 251.62 139.00 251.17 139.00 C 250.71 139.00 250.33 138.32 250.33 137.50 Z M 283.75 138.34 C 284.44 138.06 285.56 138.06 286.25 138.34 C 286.94 138.62 286.38 138.84 285.00 138.84 C 283.62 138.84 283.06 138.62 283.75 138.34 Z M 290.46 138.06 C 290.78 137.55 289.34 136.95 287.27 136.73 C 285.20 136.51 287.21 136.26 291.75 136.17 C 299.63 136.01 302.55 137.08 297.75 138.37 C 294.28 139.30 289.81 139.11 290.46 138.06 Z M 302.12 138.10 C 300.47 137.05 301.49 135.00 303.67 135.00 C 304.60 135.00 305.00 135.57 304.66 136.44 C 304.36 137.22 304.65 138.09 305.31 138.36 C 306.05 138.66 305.94 138.87 305.00 138.91 C 304.18 138.94 302.88 138.58 302.12 138.10 Z M 317.00 137.50 C 317.00 136.68 317.39 136.00 317.88 136.00 C 318.36 136.00 319.32 136.68 320.00 137.50 C 321.04 138.75 320.90 139.00 319.12 139.00 C 317.90 139.00 317.00 138.36 317.00 137.50 Z M 323.00 138.00 C 323.00 137.45 323.45 137.00 324.00 137.00 C 324.55 137.00 325.00 137.45 325.00 138.00 C 325.00 138.55 324.55 139.00 324.00 139.00 C 323.45 139.00 323.00 138.55 323.00 138.00 Z M 329.50 138.00 C 329.84 137.45 330.32 137.00 330.56 137.00 C 330.80 137.00 331.00 137.45 331.00 138.00 C 331.00 138.55 330.52 139.00 329.94 139.00 C 329.36 139.00 329.16 138.55 329.50 138.00 Z M 311.00 136.67 C 312.38 135.94 314.06 135.54 314.75 135.78 C 317.12 136.60 315.98 137.50 312.25 137.75 C 308.59 137.99 308.56 137.96 311.00 136.67 Z M 362.79 135.46 C 361.97 134.64 363.06 131.00 364.12 131.00 C 364.60 131.00 364.99 131.56 364.98 132.25 C 364.96 133.99 363.48 136.15 362.79 135.46 Z M 249.67 133.34 C 249.34 133.00 249.04 106.35 249.02 74.11 L 248.97 15.50 L 257.74 15.50 C 262.56 15.50 280.45 15.14 297.50 14.70 C 314.55 14.26 335.69 13.71 344.49 13.48 C 358.17 13.13 360.66 12.82 361.74 11.34 C 362.93 9.71 363.00 9.72 363.00 11.38 C 363.00 12.35 362.43 13.72 361.73 14.42 C 360.72 15.43 360.51 27.84 360.74 74.35 L 361.04 133.00 L 328.27 133.11 C 310.25 133.17 285.33 133.39 272.89 133.58 C 260.45 133.78 250.01 133.67 249.67 133.34 Z M 363.00 117.73 C 363.00 110.79 363.38 104.88 363.85 104.59 C 364.78 104.02 364.50 128.83 363.57 129.76 C 363.26 130.08 363.00 124.66 363.00 117.73 Z M 363.33 94.50 C 363.33 90.65 363.51 89.20 363.73 91.27 C 363.95 93.35 363.94 96.50 363.72 98.27 C 363.50 100.05 363.32 98.35 363.33 94.50 Z M 363.00 79.00 C 363.00 76.80 363.18 75.00 363.39 75.00 C 363.61 75.00 363.96 76.80 364.17 79.00 C 364.38 81.20 364.20 83.00 363.78 83.00 C 363.35 83.00 363.00 81.20 363.00 79.00 Z M 251.75 13.33 C 250.79 13.07 250.00 12.44 250.00 11.93 C 250.00 10.74 250.68 10.76 253.01 12.00 C 254.26 12.67 255.08 12.67 255.50 12.00 C 255.84 11.45 258.87 11.00 262.23 11.00 C 265.58 11.00 267.99 11.34 267.58 11.75 C 267.16 12.16 264.95 12.53 262.66 12.56 C 260.37 12.59 257.38 12.88 256.00 13.21 C 254.62 13.54 252.71 13.59 251.75 13.33 Z M 271.41 11.85 C 270.80 10.87 278.35 10.38 284.26 11.01 C 288.09 11.41 288.95 11.76 287.44 12.29 C 285.02 13.14 272.00 12.79 271.41 11.85 Z M 292.75 11.29 C 293.99 11.06 296.01 11.06 297.25 11.29 C 298.49 11.53 297.48 11.73 295.00 11.73 C 292.52 11.73 291.51 11.53 292.75 11.29 Z M 327.81 11.32 C 328.53 11.03 329.40 11.06 329.73 11.40 C 330.06 11.73 329.47 11.96 328.42 11.92 C 327.25 11.87 327.01 11.64 327.81 11.32 Z M 331.25 10.99 C 330.01 10.48 329.00 9.80 329.00 9.48 C 329.00 9.15 335.86 9.13 344.25 9.42 C 352.64 9.71 359.91 9.96 360.42 9.97 C 360.92 9.99 361.02 10.31 360.65 10.69 C 359.58 11.76 333.77 12.02 331.25 10.99 Z" fill="none" stroke="rgba(255,255,255,0.92)" stroke-width="1.5" stroke-linejoin="round" fill-rule="evenodd"/>
</svg>
