<svg xmlns="http://www.w3.org/2000/svg" viewBox="0 0 100 100" width="100" height="100">
  <path d="M 0.00 50.00 L 0.00 0.00 L 50.00 0.00 L 100.00 0.00 L 100.00 50.00 L 100.00 100.00 L 50.00 100.00 L 0.00 100.00 L 0.00 50.00 Z M 71.75 92.00 L 96.00 92.00 L 96.00 48.00 L 96.00 4.00 L 93.00 4.00 L 90.00 4.00 L 90.00 45.00 L 90.00 86.00 L 77.60 86.00 L 65.21 86.00 L 65.35 45.00 L 65.50 4.00 L 62.75 4.00 C 61.24 4.00 59.92 4.11 59.83 4.25 C 59.74 4.39 59.40 22.95 59.08 45.50 L 58.50 86.50 L 46.58 86.78 C 37.72 86.99 34.45 86.74 33.84 85.78 C 33.40 85.08 33.02 66.39 33.02 44.25 L 33.00 4.00 L 30.00 4.00 L 27.00 4.00 L 27.00 45.50 L 27.00 87.00 L 15.50 87.00 L 4.00 87.00 L 4.00 90.16 L 4.00 93.32 L 25.75 92.66 C 37.71 92.30 58.41 92.00 71.75 92.00 Z" fill="none" stroke="rgba(255,255,255,0.92)" stroke-width="1.2" stroke-linejoin="round" fill-rule="evenodd"/>
</svg>
