<svg xmlns="http://www.w3.org/2000/svg" viewBox="0 0 100 100" width="100" height="100">
  <path d="M 0.00 50.00 L 0.00 0.00 L 50.00 0.00 L 100.00 0.00 L 100.00 50.00 L 100.00 100.00 L 50.00 100.00 L 0.00 100.00 L 0.00 50.00 Z M 95.81 92.20 L 95.50 89.50 L 51.62 89.33 L 7.75 89.15 L 7.50 82.33 C 7.37 78.57 7.20 59.41 7.13 39.75 C 7.02 8.70 6.80 4.00 5.50 4.00 C 4.19 4.00 4.00 9.72 4.00 49.48 L 4.00 94.95 L 50.06 94.93 L 96.12 94.90 L 95.81 92.20 Z M 8.00 91.83 C 8.00 91.37 9.35 91.00 11.00 91.00 C 12.65 91.00 14.00 91.17 14.00 91.39 C 14.00 91.60 12.65 91.97 11.00 92.21 C 9.35 92.46 8.00 92.28 8.00 91.83 Z M 21.62 91.81 C 21.89 91.37 26.03 91.01 30.81 91.02 C 36.72 91.03 39.02 91.34 38.00 91.99 C 36.20 93.14 20.90 92.98 21.62 91.81 Z M 41.00 92.00 C 42.98 90.72 47.29 90.72 46.50 92.00 C 46.16 92.55 44.45 92.99 42.69 92.98 C 40.26 92.97 39.86 92.74 41.00 92.00 Z M 50.00 92.00 C 47.88 91.32 48.14 91.18 51.75 91.10 C 54.09 91.04 56.00 91.45 56.00 92.00 C 56.00 93.15 53.60 93.15 50.00 92.00 Z M 57.50 92.00 C 57.84 91.45 59.47 91.00 61.12 91.00 C 62.86 91.00 63.86 91.42 63.50 92.00 C 63.16 92.55 61.53 93.00 59.88 93.00 C 58.14 93.00 57.14 92.58 57.50 92.00 Z M 65.50 92.00 C 64.71 90.73 67.03 90.73 69.00 92.00 C 70.22 92.79 70.09 92.97 68.31 92.98 C 67.10 92.99 65.84 92.55 65.50 92.00 Z M 75.50 92.00 C 75.84 91.45 76.32 91.00 76.56 91.00 C 76.80 91.00 77.00 91.45 77.00 92.00 C 77.00 92.55 76.52 93.00 75.94 93.00 C 75.36 93.00 75.16 92.55 75.50 92.00 Z M 52.04 80.40 C 61.95 77.45 70.13 70.27 74.70 60.50 C 77.18 55.18 77.50 53.36 77.50 44.50 C 77.50 35.57 77.20 33.89 74.69 28.78 C 68.65 16.48 56.70 8.28 43.34 7.27 L 35.97 6.71 L 32.09 10.79 C 29.95 13.03 27.49 17.04 26.62 19.68 C 20.98 36.78 22.72 64.68 30.10 75.45 C 34.67 82.10 41.27 83.59 52.04 80.40 Z M 36.62 73.75 C 28.40 66.32 26.62 33.24 33.69 19.12 L 36.50 13.50 L 41.59 13.20 C 52.11 12.59 64.00 20.17 69.13 30.77 C 72.43 37.59 72.79 47.90 69.98 55.50 C 64.57 70.16 44.68 81.03 36.62 73.75 Z M 95.68 59.81 C 95.36 59.01 95.13 59.25 95.08 60.42 C 95.04 61.47 95.27 62.06 95.60 61.73 C 95.94 61.40 95.97 60.53 95.68 59.81 Z M 95.68 45.81 C 95.36 45.01 95.13 45.25 95.08 46.42 C 95.04 47.47 95.27 48.06 95.60 47.73 C 95.94 47.40 95.97 46.53 95.68 45.81 Z M 95.68 38.81 C 95.36 38.01 95.13 38.25 95.08 39.42 C 95.04 40.47 95.27 41.06 95.60 40.73 C 95.94 40.40 95.97 39.53 95.68 38.81 Z M 95.66 31.75 C 95.38 31.06 95.16 31.62 95.16 33.00 C 95.16 34.38 95.38 34.94 95.66 34.25 C 95.94 33.56 95.94 32.44 95.66 31.75 Z M 95.74 10.25 C 95.55 6.54 95.39 9.57 95.39 17.00 C 95.39 24.43 95.55 27.46 95.74 23.75 C 95.93 20.04 95.93 13.96 95.74 10.25 Z" fill="none" stroke="rgba(255,255,255,0.92)" stroke-width="1.2" stroke-linejoin="round" fill-rule="evenodd"/>
</svg>
