<svg xmlns="http://www.w3.org/2000/svg" viewBox="0 0 100 100" width="100" height="100">
  <path d="M 0.00 50.00 L 0.00 0.00 L 50.00 0.00 L 100.00 0.00 L 100.00 50.00 L 100.00 100.00 L 50.00 100.00 L 0.00 100.00 L 0.00 50.00 Z M 33.00 53.00 L 33.00 10.00 L 46.00 10.00 L 59.00 10.00 L 59.00 53.00 L 59.00 96.00 L 62.35 96.00 L 65.70 96.00 L 65.22 53.00 L 64.74 10.00 L 77.37 10.00 L 90.00 10.00 L 90.00 53.00 L 90.00 96.00 L 93.00 96.00 L 96.00 96.00 L 96.00 50.00 L 96.00 4.00 L 74.16 4.00 C 62.15 4.00 41.45 4.30 28.16 4.66 L 4.00 5.32 L 4.00 7.66 C 4.00 9.98 4.11 10.00 15.57 10.00 L 27.13 10.00 L 26.89 13.75 C 26.76 15.81 26.73 35.16 26.82 56.75 L 27.00 96.00 L 30.00 96.00 L 33.00 96.00 L 33.00 53.00 Z" fill="none" stroke="rgba(255,255,255,0.92)" stroke-width="1.2" stroke-linejoin="round" fill-rule="evenodd"/>
</svg>
