<svg xmlns="http://www.w3.org/2000/svg" viewBox="0 0 100 100" width="100" height="100">
  <path d="M 0.00 50.00 L 0.00 0.00 L 50.00 0.00 L 100.00 0.00 L 100.00 50.00 L 100.00 100.00 L 50.00 100.00 L 0.00 100.00 L 0.00 50.00 Z M 11.00 50.00 L 11.00 4.00 L 8.00 4.00 L 5.00 4.00 L 5.00 50.00 L 5.00 96.00 L 8.00 96.00 L 11.00 96.00 L 11.00 50.00 Z M 80.25 95.25 C 71.31 95.09 56.69 95.09 47.75 95.25 C 38.81 95.42 46.12 95.55 64.00 95.55 C 81.88 95.55 89.19 95.42 80.25 95.25 Z M 44.30 55.65 C 46.08 54.90 48.84 52.59 50.42 50.51 C 52.82 47.36 53.28 45.87 53.13 41.62 C 52.64 27.74 35.67 22.10 26.25 32.68 C 23.47 35.80 23.00 37.08 23.00 41.52 C 23.00 52.95 33.73 60.07 44.30 55.65 Z M 31.59 47.92 C 28.16 43.84 28.26 40.01 31.90 36.11 C 36.26 31.44 43.31 32.01 46.16 37.27 C 49.36 43.18 44.65 51.00 37.90 51.00 C 34.97 51.00 33.63 50.34 31.59 47.92 Z" fill="none" stroke="rgba(255,255,255,0.92)" stroke-width="1.2" stroke-linejoin="round" fill-rule="evenodd"/>
</svg>
