<svg xmlns="http://www.w3.org/2000/svg" viewBox="0 0 100 100" width="100" height="100">
  <path d="M 0.00 50.00 L 0.00 0.00 L 50.00 0.00 L 100.00 0.00 L 100.00 50.00 L 100.00 100.00 L 50.00 100.00 L 0.00 100.00 L 0.00 50.00 Z M 70.75 94.01 L 96.00 94.00 L 96.00 91.25 L 96.00 88.50 L 52.00 88.78 L 8.00 89.06 L 8.00 46.53 C 8.00 4.67 7.97 4.00 6.00 4.00 C 4.03 4.00 4.00 4.67 4.00 49.64 L 4.00 95.29 L 24.75 94.66 C 36.16 94.31 56.86 94.02 70.75 94.01 Z M 95.00 45.00 L 95.00 4.00 L 92.00 4.00 L 89.00 4.00 L 89.00 42.02 L 89.00 80.03 L 62.46 79.77 L 35.91 79.50 L 35.58 70.50 C 35.40 65.55 35.19 48.56 35.12 32.75 L 35.00 4.00 L 32.00 4.00 L 29.00 4.00 L 29.00 45.00 L 29.00 86.00 L 62.00 86.00 L 95.00 86.00 L 95.00 45.00 Z M 44.77 41.75 L 44.50 20.50 L 41.75 20.18 L 39.00 19.87 L 39.00 41.43 L 39.00 63.00 L 42.02 63.00 L 45.04 63.00 L 44.77 41.75 Z" fill="none" stroke="rgba(255,255,255,0.92)" stroke-width="1.2" stroke-linejoin="round" fill-rule="evenodd"/>
</svg>
