<svg xmlns="http://www.w3.org/2000/svg" viewBox="0 0 387 400" width="387" height="400">
  <path d="M 0.00 200.00 L 0.00 0.00 L 193.50 0.00 L 387.00 0.00 L 387.00 200.00 L 387.00 400.00 L 193.50 400.00 L 0.00 400.00 L 0.00 200.00 Z M 48.24 392.88 C 53.88 392.89 59.40 392.90 60.50 392.90 C 61.60 392.91 105.47 392.79 158.00 392.65 C 360.36 392.09 378.93 391.92 379.73 390.68 C 380.47 389.54 380.40 357.84 379.10 119.00 L 378.50 9.50 L 196.81 9.86 C 96.88 10.06 13.63 10.53 11.81 10.91 L 8.50 11.58 L 8.76 59.04 C 8.90 85.14 9.27 108.60 9.59 111.16 C 9.93 113.92 9.69 116.71 9.00 117.99 C 8.33 119.24 8.19 120.86 8.66 121.83 C 9.11 122.75 9.55 127.10 9.64 131.50 C 9.73 135.90 9.86 140.62 9.94 142.00 C 10.01 143.38 10.06 148.78 10.04 154.00 C 9.80 214.57 10.03 231.33 11.12 232.64 C 12.01 233.72 12.02 234.67 11.15 236.58 C 9.75 239.63 9.65 244.25 10.95 245.55 C 11.53 246.13 11.56 248.02 11.03 250.38 C 10.54 252.53 10.53 255.26 11.00 256.50 C 11.47 257.73 11.51 260.26 11.09 262.12 C 10.67 263.98 10.49 266.85 10.68 268.50 C 11.30 273.67 12.22 327.10 12.03 347.00 C 12.00 349.57 12.83 391.46 12.92 392.16 C 12.96 392.52 17.31 392.74 22.58 392.65 C 27.85 392.56 32.69 392.81 33.33 393.22 C 33.97 393.62 35.28 393.71 36.24 393.41 C 37.20 393.11 42.60 392.88 48.24 392.88 Z M 22.87 388.66 C 23.48 387.92 23.69 387.02 23.32 386.66 C 22.71 386.04 39.08 385.61 49.00 385.98 C 54.60 386.20 56.26 387.57 52.60 388.96 C 49.09 390.30 49.00 390.28 49.00 388.50 C 49.00 387.41 47.88 387.00 44.94 387.00 C 42.71 387.00 41.13 387.40 41.43 387.89 C 41.74 388.38 40.79 389.09 39.32 389.46 C 37.42 389.93 36.40 389.68 35.78 388.56 C 34.84 386.89 32.39 386.45 31.83 387.85 C 31.65 388.31 29.31 388.98 26.63 389.34 C 22.63 389.88 21.96 389.76 22.87 388.66 Z M 66.50 389.32 C 58.98 388.90 56.00 388.24 56.00 386.98 C 56.00 386.44 56.90 386.00 58.00 386.00 C 59.10 386.00 60.00 386.45 60.00 387.00 C 60.00 387.55 60.48 388.00 61.06 388.00 C 61.64 388.00 61.84 387.55 61.50 387.00 C 61.12 386.38 63.27 385.94 67.19 385.85 C 70.66 385.76 75.68 385.65 78.34 385.59 C 81.00 385.53 83.37 385.79 83.60 386.17 C 84.01 386.83 81.10 388.10 78.00 388.59 C 77.17 388.73 75.60 389.02 74.50 389.25 C 73.40 389.47 69.80 389.51 66.50 389.32 Z M 92.00 388.92 C 87.63 388.32 87.60 388.29 91.00 387.99 C 92.92 387.82 96.08 387.64 98.00 387.59 C 99.92 387.54 102.10 387.11 102.84 386.64 C 103.64 386.12 104.62 386.22 105.29 386.89 C 106.61 388.21 110.36 388.40 109.56 387.10 C 108.79 385.85 111.64 384.92 113.75 385.74 C 115.23 386.30 115.12 386.51 113.00 387.10 L 110.50 387.80 L 113.19 387.90 C 114.67 387.96 116.16 387.55 116.50 387.00 C 116.84 386.45 119.37 386.00 122.12 386.00 C 125.20 386.00 126.88 386.38 126.50 387.00 C 126.12 387.62 127.72 387.96 130.69 387.90 C 134.59 387.82 135.03 387.65 133.00 387.00 C 129.74 385.96 134.29 385.71 159.60 385.59 C 174.80 385.52 178.37 385.75 177.10 386.72 C 175.68 387.80 175.67 387.94 177.05 387.97 C 177.90 387.99 179.03 387.60 179.55 387.12 C 180.07 386.64 182.15 385.95 184.16 385.59 C 187.49 385.00 187.78 385.13 187.30 386.97 C 186.86 388.64 185.87 389.03 181.63 389.18 C 178.81 389.28 175.60 389.30 174.50 389.23 C 171.90 389.07 174.07 389.07 132.50 389.32 C 112.70 389.44 94.47 389.26 92.00 388.92 Z M 16.00 386.06 C 16.00 382.63 17.29 381.44 18.91 383.39 C 19.79 384.45 19.68 384.91 18.41 385.40 C 17.08 385.90 17.01 386.31 18.01 387.51 C 19.02 388.73 18.95 389.00 17.62 389.00 C 16.49 389.00 16.00 388.11 16.00 386.06 Z M 84.00 388.00 C 84.00 387.45 84.45 387.00 85.00 387.00 C 85.55 387.00 86.00 387.45 86.00 388.00 C 86.00 388.55 85.55 389.00 85.00 389.00 C 84.45 389.00 84.00 388.55 84.00 388.00 Z M 143.73 387.40 C 143.40 387.06 142.53 387.03 141.81 387.32 C 141.01 387.64 141.25 387.87 142.42 387.92 C 143.47 387.96 144.06 387.73 143.73 387.40 Z M 26.00 382.21 C 20.46 381.75 19.59 381.26 21.31 379.54 C 22.51 378.34 22.70 375.15 22.36 361.79 C 21.86 342.23 21.91 333.75 22.54 333.13 C 22.80 332.87 22.30 331.58 21.44 330.26 C 20.48 328.80 20.21 327.40 20.74 326.68 C 22.13 324.79 22.27 319.03 20.96 317.45 C 20.30 316.65 19.11 316.00 18.33 316.00 C 17.23 316.00 17.01 317.14 17.35 321.01 C 17.59 323.76 17.38 326.26 16.89 326.57 C 16.40 326.87 15.93 325.63 15.84 323.81 C 15.41 315.09 15.57 310.40 16.32 309.31 C 16.77 308.66 16.64 307.20 16.03 306.06 C 14.81 303.78 16.13 303.24 17.86 305.33 C 18.59 306.21 18.66 307.71 18.06 309.78 C 17.38 312.15 17.53 313.19 18.66 314.13 C 21.04 316.11 22.17 313.30 21.53 307.00 C 21.23 303.98 21.00 300.94 21.03 300.25 C 21.58 287.10 20.29 213.50 19.47 210.91 C 19.05 209.59 18.09 208.06 17.34 207.50 C 16.41 206.83 38.48 206.52 84.73 206.56 C 122.55 206.59 155.70 206.25 158.40 205.81 C 161.14 205.35 163.78 205.39 164.40 205.89 C 165.00 206.38 169.93 206.48 175.34 206.12 C 180.75 205.77 185.38 205.80 185.62 206.20 C 186.45 207.53 186.92 232.75 187.53 308.05 L 188.14 382.61 L 182.82 382.31 C 179.90 382.15 161.75 382.03 142.50 382.06 C 123.25 382.08 103.45 382.05 98.50 381.99 C 93.55 381.92 88.15 381.92 86.50 381.99 C 78.83 382.28 29.11 382.47 26.00 382.21 Z M 199.69 378.90 C 199.10 376.53 198.52 334.71 197.52 222.00 C 197.24 190.38 196.72 132.29 196.37 92.91 L 195.73 21.33 L 214.61 20.71 C 234.01 20.09 364.51 20.78 366.75 21.52 C 367.74 21.85 368.03 41.78 368.14 116.22 C 368.21 168.07 368.55 248.30 368.89 294.50 C 369.22 340.70 369.24 378.85 368.92 379.28 C 368.61 379.70 330.54 380.33 284.32 380.68 L 200.29 381.30 L 199.69 378.90 Z M 16.00 377.97 C 16.00 376.89 16.67 376.00 17.50 376.00 C 18.32 376.00 19.00 376.63 19.00 377.39 C 19.00 378.16 18.32 379.05 17.50 379.36 C 16.48 379.75 16.00 379.31 16.00 377.97 Z M 16.00 374.00 C 16.00 373.45 16.70 373.00 17.56 373.00 C 18.42 373.00 18.84 373.45 18.50 374.00 C 18.16 374.55 17.46 375.00 16.94 375.00 C 16.42 375.00 16.00 374.55 16.00 374.00 Z M 17.34 367.81 C 17.71 366.32 17.56 364.85 17.00 364.50 C 16.45 364.16 16.00 362.78 16.00 361.44 C 16.00 359.67 16.55 359.00 18.00 359.00 C 19.17 359.00 20.00 359.67 20.00 360.61 C 20.00 361.62 19.45 362.00 18.50 361.64 C 17.68 361.32 17.00 361.31 17.00 361.60 C 17.00 361.90 17.68 362.82 18.50 363.64 C 20.45 365.60 20.40 367.43 18.33 369.13 C 16.83 370.36 16.74 370.23 17.34 367.81 Z M 337.81 367.86 C 348.58 365.24 357.82 354.15 358.72 342.76 C 360.17 324.43 347.43 310.00 329.81 310.00 C 326.03 310.00 321.42 310.63 319.58 311.40 C 314.91 313.36 308.40 319.47 305.19 324.92 C 302.81 328.98 302.50 330.53 302.50 338.50 C 302.50 346.34 302.86 348.24 305.31 353.23 C 311.27 365.36 324.18 371.17 337.81 367.86 Z M 322.11 354.92 C 317.50 352.11 316.18 350.67 314.46 346.57 C 312.60 342.11 312.60 336.21 314.45 331.77 C 316.15 327.70 321.94 322.30 325.59 321.39 C 329.10 320.51 336.88 321.69 339.69 323.53 C 342.83 325.59 347.04 332.45 347.71 336.62 C 348.36 340.59 345.77 348.33 342.62 351.88 C 337.91 357.17 328.16 358.62 322.11 354.92 Z M 16.04 352.12 C 14.55 347.62 15.04 344.31 16.71 347.50 C 18.30 350.53 19.28 356.00 18.24 356.00 C 17.73 356.00 16.74 354.25 16.04 352.12 Z M 19.00 344.94 C 19.00 343.81 19.43 343.15 19.96 343.47 C 20.48 343.80 20.66 344.72 20.35 345.53 C 19.56 347.60 19.00 347.36 19.00 344.94 Z M 16.57 339.83 C 16.17 338.92 16.00 337.02 16.18 335.61 C 16.42 333.69 16.85 333.27 17.92 333.94 C 19.04 334.64 19.12 335.53 18.31 338.16 C 17.51 340.76 17.12 341.13 16.57 339.83 Z M 15.39 299.56 C 14.68 297.72 15.55 295.00 16.84 295.00 C 18.01 295.00 18.03 299.86 16.87 300.58 C 16.38 300.88 15.72 300.42 15.39 299.56 Z M 289.92 295.11 L 324.34 294.50 L 323.94 222.00 C 323.71 182.12 323.52 139.82 323.51 128.00 L 323.50 106.50 L 265.00 106.22 C 232.82 106.07 205.44 106.20 204.15 106.52 C 202.32 106.96 201.93 107.57 202.36 109.31 C 202.67 110.53 203.00 140.10 203.11 175.01 C 203.21 209.93 203.51 251.44 203.77 267.25 L 204.24 296.00 L 229.87 295.86 C 243.97 295.78 270.99 295.44 289.92 295.11 Z M 15.00 290.50 C 15.00 289.12 15.41 288.00 15.92 288.00 C 17.09 288.00 17.84 290.13 17.25 291.75 C 16.45 293.91 15.00 293.11 15.00 290.50 Z M 15.00 285.06 C 15.00 284.54 15.45 283.84 16.00 283.50 C 16.55 283.16 17.00 283.58 17.00 284.44 C 17.00 285.30 16.55 286.00 16.00 286.00 C 15.45 286.00 15.00 285.58 15.00 285.06 Z M 215.67 283.25 C 215.28 282.61 214.88 252.55 213.71 138.50 L 213.50 117.50 L 261.94 117.24 C 288.58 117.10 310.73 117.33 311.16 117.76 C 311.59 118.19 312.24 155.77 312.61 201.27 L 313.27 284.00 L 264.69 284.00 C 237.98 284.00 215.92 283.66 215.67 283.25 Z M 15.00 280.56 C 15.00 279.70 15.45 279.00 16.00 279.00 C 16.55 279.00 17.00 279.42 17.00 279.94 C 17.00 280.46 16.55 281.16 16.00 281.50 C 15.45 281.84 15.00 281.42 15.00 280.56 Z M 16.69 278.25 C 16.46 277.84 15.95 275.77 15.57 273.64 C 15.03 270.68 15.17 269.90 16.18 270.25 C 16.91 270.50 17.45 271.78 17.38 273.10 C 17.31 274.42 17.89 275.87 18.65 276.31 C 19.42 276.76 19.78 277.55 19.46 278.06 C 18.77 279.19 17.28 279.29 16.69 278.25 Z M 14.45 264.38 C 14.85 262.80 15.18 259.81 15.18 257.75 C 15.19 255.69 15.65 254.00 16.22 254.00 C 16.84 254.00 16.76 253.42 16.04 252.54 C 14.79 251.05 15.39 249.00 17.06 249.00 C 19.19 249.00 17.32 266.07 15.11 266.80 C 14.03 267.16 13.88 266.61 14.45 264.38 Z M 15.24 246.32 C 13.74 243.67 13.61 240.00 15.03 240.00 C 16.47 240.00 17.21 242.33 16.82 245.67 C 16.49 248.46 16.47 248.47 15.24 246.32 Z M 305.45 243.38 C 306.92 242.82 307.01 238.88 306.46 201.13 C 306.13 178.23 305.68 158.94 305.46 158.25 C 305.04 156.92 301.00 156.62 297.19 157.65 L 294.88 158.26 L 295.06 200.38 C 295.16 223.55 295.44 242.84 295.68 243.25 C 296.21 244.16 303.19 244.25 305.45 243.38 Z M 14.50 238.00 C 14.10 237.35 14.22 236.38 14.77 235.83 C 15.44 235.16 16.02 235.22 16.50 236.00 C 16.90 236.65 16.78 237.62 16.23 238.17 C 15.56 238.84 14.98 238.78 14.50 238.00 Z M 16.09 232.45 C 16.04 231.32 15.47 229.87 14.83 229.23 C 13.94 228.34 14.07 227.91 15.38 227.41 C 17.83 226.47 18.24 227.33 17.15 231.14 C 16.53 233.30 16.15 233.77 16.09 232.45 Z M 14.46 223.93 C 14.10 223.35 14.01 222.66 14.26 222.41 C 14.95 221.71 18.00 223.09 18.00 224.11 C 18.00 225.36 15.26 225.22 14.46 223.93 Z M 14.61 216.80 C 13.77 212.61 13.84 208.00 14.75 208.02 C 16.64 208.05 17.52 209.85 17.75 214.14 C 18.06 219.74 15.61 221.81 14.61 216.80 Z M 13.80 203.75 C 13.05 201.53 14.16 191.98 15.10 192.56 C 15.59 192.87 16.00 192.64 16.00 192.06 C 16.00 191.48 16.79 191.01 17.75 191.03 C 19.42 191.06 19.42 191.13 17.75 192.39 C 15.87 193.82 15.35 197.00 17.00 197.00 C 18.63 197.00 18.14 199.73 16.39 200.40 C 15.17 200.87 15.05 201.35 15.88 202.35 C 16.49 203.09 16.69 203.98 16.32 204.34 C 15.30 205.37 14.25 205.12 13.80 203.75 Z M 25.00 204.43 C 25.00 204.04 25.79 203.08 26.75 202.30 C 28.30 201.05 27.96 200.95 23.75 201.50 C 20.97 201.87 19.00 201.73 19.00 201.17 C 19.00 199.55 20.97 199.39 38.39 199.62 C 50.97 199.79 55.49 200.18 56.09 201.15 C 56.56 201.90 56.39 202.77 55.70 203.21 C 53.88 204.36 50.00 204.15 50.00 202.89 C 50.00 202.16 48.87 202.01 46.75 202.44 C 44.96 202.81 40.35 203.23 36.50 203.37 C 32.65 203.51 28.49 203.97 27.25 204.38 C 26.01 204.80 25.00 204.82 25.00 204.43 Z M 60.19 203.29 C 58.92 203.04 58.06 202.33 58.27 201.70 C 58.80 200.11 64.88 199.00 67.41 200.03 C 69.46 200.86 69.46 200.87 67.25 200.94 C 65.94 200.97 65.00 201.63 65.00 202.50 C 65.00 204.01 64.44 204.10 60.19 203.29 Z M 70.42 203.08 C 69.34 202.01 70.20 200.18 72.00 199.71 C 74.24 199.13 75.72 200.53 73.76 201.37 C 73.07 201.67 74.86 201.65 77.75 201.33 C 81.21 200.94 83.00 201.11 83.00 201.83 C 83.00 203.54 71.98 204.64 70.42 203.08 Z M 86.50 203.00 C 86.13 202.40 87.32 202.00 89.44 202.00 C 91.40 202.00 93.00 202.45 93.00 203.00 C 93.00 203.55 91.68 204.00 90.06 204.00 C 88.44 204.00 86.84 203.55 86.50 203.00 Z M 97.75 203.31 C 96.79 203.06 96.00 202.44 96.00 201.93 C 96.00 201.42 95.21 200.95 94.25 200.89 C 93.29 200.82 94.08 200.44 96.00 200.03 C 97.92 199.62 100.74 198.94 102.25 198.53 C 104.05 198.04 105.00 198.17 105.00 198.89 C 105.00 199.50 104.13 200.00 103.06 200.00 C 101.99 200.00 100.84 200.45 100.50 201.00 C 100.13 201.59 101.30 202.00 103.36 202.00 C 105.27 202.00 106.98 201.60 107.17 201.12 C 107.35 200.63 109.53 199.96 112.00 199.63 L 116.50 199.02 L 111.50 201.50 C 106.87 203.79 102.03 204.43 97.75 203.31 Z M 114.00 203.20 C 114.00 202.35 122.61 198.99 124.75 199.00 C 125.44 199.00 126.00 199.68 126.00 200.50 C 126.00 201.32 126.67 202.00 127.50 202.00 C 128.32 202.00 129.00 201.32 129.00 200.50 C 129.00 199.68 129.40 199.00 129.88 199.00 C 130.93 199.00 132.03 202.64 131.22 203.44 C 130.22 204.45 126.43 204.03 125.18 202.78 C 124.21 201.81 123.54 201.81 121.99 202.78 C 119.80 204.14 114.00 204.45 114.00 203.20 Z M 138.00 203.00 C 138.00 202.45 139.57 202.00 141.50 202.00 C 143.43 202.00 145.00 202.45 145.00 203.00 C 145.00 203.55 143.43 204.00 141.50 204.00 C 139.57 204.00 138.00 203.55 138.00 203.00 Z M 148.67 203.33 C 147.63 202.30 147.88 200.81 148.97 201.48 C 149.51 201.81 150.97 201.46 152.22 200.69 C 154.96 199.02 164.31 199.56 163.72 201.35 C 163.14 203.08 160.04 203.36 157.37 201.93 C 156.07 201.23 154.70 200.96 154.33 201.33 C 153.97 201.70 154.22 202.00 154.89 202.00 C 155.57 202.00 155.84 202.45 155.50 203.00 C 154.81 204.12 149.70 204.37 148.67 203.33 Z M 167.00 202.94 C 167.00 202.49 168.69 201.94 170.75 201.73 L 174.50 201.34 L 170.31 201.17 C 163.18 200.88 164.54 199.19 171.95 199.12 C 175.78 199.08 179.18 199.47 179.50 199.99 C 179.82 200.51 181.41 200.67 183.04 200.34 C 185.53 199.84 186.00 200.07 186.00 201.74 C 186.00 203.42 185.41 203.70 182.25 203.48 C 180.19 203.34 177.73 202.91 176.80 202.52 C 175.86 202.14 174.55 202.16 173.88 202.57 C 172.15 203.64 167.00 203.92 167.00 202.94 Z M 83.81 200.32 C 84.53 200.03 85.40 200.06 85.73 200.40 C 86.06 200.73 85.47 200.96 84.42 200.92 C 83.25 200.87 83.01 200.64 83.81 200.32 Z M 134.75 200.34 C 135.44 200.06 136.56 200.06 137.25 200.34 C 137.94 200.62 137.38 200.84 136.00 200.84 C 134.62 200.84 134.06 200.62 134.75 200.34 Z M 108.69 196.36 C 108.37 196.04 88.25 195.71 63.99 195.64 L 19.87 195.50 L 19.55 182.74 C 19.34 174.59 18.78 169.44 18.00 168.50 C 16.32 166.47 14.66 167.74 15.56 170.36 C 15.97 171.54 16.34 176.21 16.40 180.75 C 16.47 186.84 16.16 188.99 15.22 189.00 C 13.08 189.00 12.62 186.00 13.97 180.76 C 14.67 177.99 14.86 175.49 14.37 175.13 C 13.29 174.35 13.15 163.00 14.22 163.00 C 14.65 163.00 15.00 162.32 15.00 161.50 C 15.00 160.68 14.32 160.00 13.50 160.00 C 12.68 160.00 12.00 159.55 12.00 159.00 C 12.00 158.45 12.72 158.00 13.59 158.00 C 14.93 158.00 15.08 157.20 14.51 153.04 C 14.13 150.31 14.19 146.60 14.63 144.79 C 15.39 141.67 15.47 141.81 16.23 147.50 C 17.23 154.98 17.27 156.48 16.61 161.66 C 16.22 164.69 16.45 165.96 17.48 166.36 C 19.41 167.09 20.33 163.76 19.62 158.65 C 19.10 154.97 18.83 132.90 18.92 102.08 C 18.94 96.02 18.50 91.10 17.87 90.35 C 17.15 89.47 17.10 88.13 17.74 86.27 C 19.17 82.08 18.40 65.11 16.68 63.13 C 15.90 62.24 14.99 60.83 14.65 60.00 C 14.31 59.17 14.09 61.88 14.16 66.00 C 14.31 75.41 14.21 76.25 13.08 75.55 C 11.76 74.73 11.65 22.00 12.97 22.00 C 13.54 22.00 14.03 24.14 14.06 26.75 C 14.36 49.57 14.59 55.75 15.14 55.41 C 15.49 55.20 16.06 56.03 16.40 57.26 C 16.94 59.18 17.17 59.27 17.97 57.92 C 18.54 56.96 18.58 52.24 18.08 45.92 C 17.62 40.19 17.47 33.20 17.74 30.40 C 18.02 27.48 17.73 24.37 17.08 23.15 C 16.45 21.97 16.28 20.98 16.71 20.96 C 23.92 20.56 80.34 20.04 112.95 20.07 C 180.43 20.12 182.36 20.04 181.78 17.13 C 181.56 16.06 180.65 15.61 179.12 15.83 C 177.83 16.01 175.60 15.87 174.16 15.50 C 169.90 14.44 173.74 13.14 178.98 13.87 C 183.28 14.47 183.50 14.67 184.21 18.50 C 184.62 20.70 185.27 61.84 185.64 109.92 C 186.27 191.05 186.20 197.29 184.66 196.70 C 182.58 195.90 111.49 195.58 110.21 196.37 C 109.70 196.69 109.02 196.68 108.69 196.36 Z M 129.65 180.94 C 135.09 178.87 140.99 172.96 144.41 166.15 C 150.42 154.20 153.68 140.46 154.91 121.97 C 155.64 111.01 155.54 104.01 154.51 93.47 C 152.36 71.48 149.41 59.84 143.46 49.98 C 139.10 42.74 137.39 40.88 132.00 37.46 C 127.92 34.87 126.74 34.63 119.34 34.78 C 106.01 35.05 94.70 38.77 82.81 46.79 C 72.60 53.68 63.91 64.10 59.04 75.28 C 57.79 78.15 56.45 81.17 56.05 82.00 C 53.29 87.69 51.78 98.71 52.24 109.81 C 52.99 128.19 57.30 140.80 67.26 153.80 C 77.03 166.56 89.75 175.11 106.00 179.86 C 113.60 182.09 125.24 182.62 129.65 180.94 Z M 105.41 167.61 C 82.88 160.31 64.98 137.31 63.30 113.50 C 62.28 99.07 66.26 82.90 73.41 72.33 C 77.70 66.00 87.13 57.04 93.33 53.40 C 99.95 49.50 113.21 45.69 120.25 45.64 C 126.75 45.60 129.63 47.97 134.62 57.47 C 141.89 71.29 144.51 88.34 143.75 116.90 C 143.36 131.67 142.86 136.08 140.69 144.30 C 138.00 154.42 133.38 163.82 129.14 167.75 C 125.77 170.87 115.28 170.81 105.41 167.61 Z M 14.02 140.25 C 14.02 139.84 14.47 138.82 15.00 138.00 C 15.78 136.79 15.97 136.93 15.98 138.75 C 15.99 139.99 15.55 141.00 15.00 141.00 C 14.45 141.00 14.01 140.66 14.02 140.25 Z M 14.25 135.56 C 11.94 134.50 11.22 131.60 13.00 130.50 C 13.55 130.16 14.00 130.61 14.00 131.50 C 14.00 132.39 14.42 132.86 14.93 132.54 C 15.44 132.23 16.15 132.91 16.52 134.06 C 17.35 136.67 17.06 136.86 14.25 135.56 Z M 15.00 127.87 C 15.00 126.74 14.26 124.55 13.35 123.02 C 12.29 121.22 11.99 119.56 12.50 118.36 C 13.25 116.64 13.34 116.63 13.73 118.25 C 13.96 119.21 14.56 120.00 15.07 120.00 C 15.58 120.00 16.00 121.32 16.00 122.94 C 16.00 124.56 16.45 126.16 17.00 126.50 C 18.45 127.40 18.23 128.70 16.50 129.36 C 15.47 129.76 15.00 129.30 15.00 127.87 Z M 14.00 115.06 C 14.00 114.54 14.45 113.84 15.00 113.50 C 15.55 113.16 16.00 113.58 16.00 114.44 C 16.00 115.30 15.55 116.00 15.00 116.00 C 14.45 116.00 14.00 115.58 14.00 115.06 Z M 12.77 110.75 C 12.53 110.06 12.40 102.59 12.49 94.14 C 12.63 80.92 12.89 78.64 14.33 77.84 C 16.33 76.71 16.37 77.16 14.89 84.07 C 14.03 88.10 14.07 89.76 15.08 91.65 C 16.10 93.56 16.13 94.76 15.19 97.36 C 14.53 99.16 14.00 102.52 14.00 104.82 C 14.00 108.41 14.30 109.00 16.12 109.00 C 17.90 109.00 18.04 109.25 17.00 110.50 C 15.49 112.32 13.37 112.45 12.77 110.75 Z M 15.00 103.50 C 15.00 102.12 15.45 101.00 16.00 101.00 C 16.55 101.00 17.00 102.12 17.00 103.50 C 17.00 104.88 16.55 106.00 16.00 106.00 C 15.45 106.00 15.00 104.88 15.00 103.50 Z M 12.36 17.49 C 11.59 15.49 12.80 14.00 15.18 14.00 C 16.98 14.00 17.07 14.21 15.88 15.64 C 14.67 17.10 14.76 17.21 16.67 16.60 C 17.86 16.23 19.12 16.39 19.47 16.96 C 19.83 17.53 19.75 18.03 19.31 18.07 C 18.86 18.11 17.24 18.30 15.69 18.51 C 13.95 18.74 12.69 18.35 12.36 17.49 Z M 23.00 16.97 C 23.00 16.40 21.99 15.52 20.75 15.02 C 19.26 14.41 24.61 14.11 36.49 14.13 C 49.35 14.15 53.95 14.45 52.64 15.18 C 51.63 15.75 49.53 15.96 47.97 15.64 C 46.20 15.29 44.99 15.53 44.74 16.29 C 44.42 17.24 43.37 17.24 39.92 16.30 C 36.22 15.29 35.32 15.33 34.39 16.55 C 33.10 18.24 23.00 18.61 23.00 16.97 Z M 67.36 16.50 C 67.82 15.30 67.01 15.00 63.30 15.00 C 60.75 15.00 58.91 14.76 59.20 14.47 C 59.49 14.18 67.55 13.90 77.11 13.86 C 103.61 13.75 107.19 13.89 106.50 15.00 C 105.70 16.30 109.30 16.30 110.59 15.01 C 111.14 14.46 116.29 13.98 122.04 13.93 C 135.96 13.83 135.90 13.83 133.64 15.14 C 132.53 15.79 129.80 15.97 126.90 15.58 C 123.18 15.09 121.41 15.34 119.43 16.64 C 117.49 17.91 116.64 18.04 116.09 17.15 C 115.35 15.95 112.97 16.06 109.73 17.46 C 108.75 17.89 106.63 17.67 104.96 16.98 C 101.92 15.73 86.34 15.44 82.76 16.58 C 81.71 16.91 79.52 16.63 77.90 15.96 C 75.41 14.93 74.67 14.99 73.15 16.37 C 70.80 18.49 66.56 18.59 67.36 16.50 Z M 143.57 16.10 C 139.93 14.68 143.88 13.79 153.26 13.91 C 158.27 13.98 162.57 14.24 162.81 14.48 C 163.06 14.73 162.05 15.48 160.56 16.15 C 158.44 17.12 156.91 17.12 153.27 16.15 C 150.09 15.30 148.36 15.24 147.64 15.96 C 146.46 17.14 146.24 17.15 143.57 16.10 Z" fill="none" stroke="rgba(255,255,255,0.92)" stroke-width="1.5" stroke-linejoin="round" fill-rule="evenodd"/>
</svg>
