<svg xmlns="http://www.w3.org/2000/svg" viewBox="0 0 400 284" width="400" height="284">
  <path d="M 0.00 142.00 L 0.00 0.00 L 200.00 0.00 L 400.00 0.00 L 400.00 142.00 L 400.00 284.00 L 200.00 284.00 L 0.00 284.00 L 0.00 142.00 Z M 38.54 277.99 C 39.89 277.47 41.00 277.40 41.00 277.84 C 41.00 278.27 44.04 278.47 47.75 278.28 C 51.46 278.09 130.81 277.97 224.09 278.00 L 393.68 278.06 L 394.34 250.28 C 395.17 215.05 395.17 168.17 394.33 78.12 L 393.67 6.74 L 216.58 7.36 C 119.19 7.69 35.67 8.18 31.00 8.43 C 26.32 8.68 18.77 8.91 14.21 8.94 L 5.92 9.00 L 6.47 123.75 C 6.77 186.86 7.00 247.30 6.98 258.05 C 6.95 268.80 7.22 277.89 7.58 278.24 C 8.59 279.25 35.79 279.03 38.54 277.99 Z M 30.02 276.26 C 29.20 275.94 27.85 275.00 27.02 274.17 C 25.67 272.81 25.87 272.72 28.88 273.33 C 30.73 273.70 33.80 274.00 35.68 274.00 C 37.73 274.00 38.87 274.41 38.50 275.00 C 38.16 275.56 36.78 275.73 35.44 275.40 C 33.95 275.02 33.00 275.22 33.00 275.89 C 33.00 277.09 32.33 277.17 30.02 276.26 Z M 17.00 275.00 C 18.98 273.72 23.29 273.72 22.50 275.00 C 22.16 275.55 20.45 275.99 18.69 275.98 C 16.26 275.97 15.86 275.74 17.00 275.00 Z M 42.46 275.12 C 41.05 273.71 44.33 273.48 68.50 273.23 C 85.31 273.06 95.00 273.32 95.00 273.94 C 95.00 274.52 90.37 274.95 83.75 275.00 C 77.56 275.05 65.84 275.20 57.71 275.33 C 49.57 275.47 42.71 275.38 42.46 275.12 Z M 156.57 275.11 C 156.04 274.25 159.10 273.04 161.87 273.01 C 162.98 273.00 163.00 273.29 162.00 274.50 C 160.63 276.15 157.43 276.51 156.57 275.11 Z M 193.00 275.12 C 193.00 274.12 196.48 273.02 199.50 273.05 C 201.27 273.07 201.22 273.23 199.00 274.50 C 196.17 276.12 193.00 276.44 193.00 275.12 Z M 96.55 274.12 C 97.07 273.63 99.53 273.57 102.00 273.99 L 106.50 274.75 L 101.05 274.87 C 97.85 274.95 95.99 274.64 96.55 274.12 Z M 118.59 274.06 C 120.29 273.65 122.20 273.00 122.84 272.60 C 123.48 272.21 124.00 272.41 124.00 273.05 C 124.00 273.79 124.90 273.99 126.44 273.60 C 127.78 273.27 129.16 273.44 129.50 274.00 C 129.89 274.64 127.47 274.96 122.81 274.90 C 117.38 274.82 116.30 274.61 118.59 274.06 Z M 184.00 274.00 C 184.00 273.45 184.68 273.00 185.50 273.00 C 186.32 273.00 187.00 273.45 187.00 274.00 C 187.00 274.55 186.32 275.00 185.50 275.00 C 184.68 275.00 184.00 274.55 184.00 274.00 Z M 213.00 274.00 C 213.00 273.45 213.45 273.00 214.00 273.00 C 214.55 273.00 215.00 273.45 215.00 274.00 C 215.00 274.55 214.55 275.00 214.00 275.00 C 213.45 275.00 213.00 274.55 213.00 274.00 Z M 234.50 274.00 C 234.16 273.45 234.36 273.00 234.94 273.00 C 235.52 273.00 236.00 273.45 236.00 274.00 C 236.00 274.55 235.80 275.00 235.56 275.00 C 235.32 275.00 234.84 274.55 234.50 274.00 Z M 249.50 274.00 C 248.71 272.73 251.03 272.73 253.00 274.00 C 254.22 274.79 254.09 274.97 252.31 274.98 C 251.10 274.99 249.84 274.55 249.50 274.00 Z M 256.00 273.11 C 256.00 272.07 255.30 270.95 254.44 270.62 C 253.59 270.29 237.05 270.04 217.69 270.06 C 198.34 270.08 173.21 270.08 161.86 270.05 L 141.22 270.00 L 140.59 267.52 C 140.25 266.16 139.94 239.39 139.91 208.03 C 139.87 174.34 139.47 150.79 138.92 150.45 C 138.39 150.12 137.96 153.20 137.90 157.69 C 137.81 164.78 137.71 165.13 136.87 161.54 C 136.36 159.37 136.18 156.98 136.46 156.24 C 136.74 155.50 136.58 155.14 136.09 155.44 C 134.75 156.27 133.98 153.35 134.65 149.99 L 135.25 147.00 L 196.62 147.00 L 258.00 147.00 L 258.00 211.00 C 258.00 253.00 257.66 275.00 257.00 275.00 C 256.45 275.00 256.00 274.15 256.00 273.11 Z M 171.75 273.29 C 172.99 273.06 175.01 273.06 176.25 273.29 C 177.49 273.53 176.47 273.73 174.00 273.73 C 171.53 273.73 170.51 273.53 171.75 273.29 Z M 205.81 273.32 C 206.53 273.03 207.40 273.06 207.73 273.40 C 208.06 273.73 207.47 273.96 206.42 273.92 C 205.25 273.87 205.01 273.64 205.81 273.32 Z M 240.75 273.34 C 241.44 273.06 242.56 273.06 243.25 273.34 C 243.94 273.62 243.38 273.84 242.00 273.84 C 240.62 273.84 240.06 273.62 240.75 273.34 Z M 10.17 272.12 C 9.09 271.44 9.14 271.16 10.42 270.67 C 11.42 270.29 12.00 270.60 12.00 271.53 C 12.00 273.23 11.94 273.25 10.17 272.12 Z M 14.65 271.32 C 14.36 271.02 14.06 245.07 13.99 213.64 C 13.93 182.21 13.79 154.58 13.69 152.22 L 13.50 147.95 L 58.00 147.39 C 82.48 147.08 109.17 146.76 117.32 146.67 L 132.15 146.50 L 132.32 208.25 L 132.50 270.00 L 113.50 270.02 C 85.95 270.04 17.70 271.09 16.35 271.51 C 15.71 271.70 14.95 271.62 14.65 271.32 Z M 265.93 226.26 C 265.89 202.19 265.90 173.28 265.95 162.00 C 266.00 150.72 265.64 140.90 265.16 140.16 C 264.44 139.07 253.02 138.76 204.39 138.47 C 171.45 138.28 143.48 138.09 142.24 138.06 L 139.98 138.00 L 140.24 76.75 L 140.50 15.50 L 263.20 15.25 L 385.90 14.99 L 386.20 38.25 C 386.37 51.04 386.51 108.30 386.50 165.50 L 386.50 269.50 L 326.25 269.76 L 266.00 270.02 L 265.93 226.26 Z M 136.00 268.12 C 136.00 267.57 136.45 266.84 137.00 266.50 C 137.55 266.16 138.00 266.33 138.00 266.88 C 138.00 267.43 137.55 268.16 137.00 268.50 C 136.45 268.84 136.00 268.67 136.00 268.12 Z M 10.22 265.00 C 10.17 263.35 10.55 262.00 11.07 262.00 C 11.58 262.00 12.00 263.35 12.00 265.00 C 12.00 266.65 11.62 268.00 11.15 268.00 C 10.69 268.00 10.27 266.65 10.22 265.00 Z M 355.59 245.25 C 355.33 233.84 355.09 205.26 355.06 181.75 L 355.00 139.00 L 312.50 139.00 L 270.00 139.00 L 270.00 202.50 L 270.00 266.00 L 313.03 266.00 L 356.07 266.00 L 355.59 245.25 Z M 221.51 257.56 C 225.84 254.26 229.69 247.25 232.26 238.00 C 235.10 227.80 235.38 193.66 232.72 182.03 C 229.44 167.65 222.37 157.91 214.22 156.54 C 204.07 154.82 187.64 161.35 178.14 170.87 C 168.17 180.86 163.00 193.47 163.00 207.79 C 163.00 223.36 167.85 235.53 178.16 245.84 C 191.40 259.08 212.16 264.69 221.51 257.56 Z M 137.16 257.00 C 137.16 255.62 137.38 255.06 137.66 255.75 C 137.94 256.44 137.94 257.56 137.66 258.25 C 137.38 258.94 137.16 258.38 137.16 257.00 Z M 278.58 257.14 C 278.29 256.66 278.02 231.80 277.97 201.89 L 277.90 147.50 L 312.70 147.50 L 347.50 147.50 L 347.73 202.75 L 347.97 258.00 L 313.54 258.00 C 294.61 258.00 278.88 257.61 278.58 257.14 Z M 135.04 254.81 C 135.02 253.33 135.45 251.84 136.00 251.50 C 136.55 251.16 136.97 249.67 136.93 248.19 C 136.87 245.79 136.77 245.71 136.00 247.50 C 135.24 249.28 135.13 249.20 135.07 246.78 C 135.02 244.76 135.38 244.21 136.50 244.64 C 138.41 245.37 138.43 249.78 136.54 254.14 C 135.11 257.42 135.08 257.44 135.04 254.81 Z M 204.48 251.61 C 194.15 249.57 183.30 241.71 177.21 231.85 C 168.68 218.02 168.80 197.79 177.49 184.02 C 183.99 173.72 194.75 166.68 206.88 164.80 C 212.57 163.91 213.54 164.01 215.88 165.76 C 219.65 168.57 221.92 172.94 224.17 181.76 C 230.30 205.69 226.93 241.84 217.85 249.47 C 216.20 250.86 214.47 252.00 214.01 252.00 C 213.54 252.00 212.56 252.18 211.83 252.40 C 211.10 252.62 207.79 252.27 204.48 251.61 Z M 10.19 249.50 C 10.22 247.85 10.44 247.30 10.69 248.27 C 10.95 249.24 10.93 250.59 10.66 251.27 C 10.38 251.95 10.17 251.15 10.19 249.50 Z M 9.02 244.97 C 9.04 242.95 10.75 240.41 11.55 241.21 C 11.91 241.58 11.48 242.90 10.60 244.16 C 9.57 245.63 9.01 245.92 9.02 244.97 Z M 135.00 237.06 C 135.00 233.98 135.39 232.12 135.97 232.48 C 136.50 232.81 136.65 234.48 136.31 236.19 C 135.87 238.42 136.02 239.11 136.84 238.60 C 138.54 237.55 138.25 239.54 136.50 241.00 C 135.20 242.08 135.00 241.56 135.00 237.06 Z M 343.00 202.50 L 343.00 172.00 L 339.00 172.00 L 335.00 172.00 L 335.00 201.83 C 335.00 218.24 335.30 231.97 335.67 232.33 C 336.03 232.70 337.83 233.00 339.67 233.00 L 343.00 233.00 L 343.00 202.50 Z M 135.19 227.50 C 135.22 225.85 135.44 225.30 135.69 226.27 C 135.95 227.24 135.93 228.59 135.66 229.27 C 135.38 229.95 135.17 229.15 135.19 227.50 Z M 9.08 223.42 C 9.13 222.25 9.36 222.01 9.68 222.81 C 9.97 223.53 9.94 224.40 9.60 224.73 C 9.27 225.06 9.04 224.47 9.08 223.42 Z M 136.74 223.11 C 136.47 222.07 136.63 220.61 137.11 219.86 C 137.69 218.94 137.97 219.54 137.98 221.75 C 138.00 225.39 137.48 225.96 136.74 223.11 Z M 10.08 220.42 C 10.13 219.25 10.36 219.01 10.68 219.81 C 10.97 220.53 10.94 221.40 10.60 221.73 C 10.27 222.06 10.04 221.47 10.08 220.42 Z M 9.16 207.00 C 9.16 205.62 9.38 205.06 9.66 205.75 C 9.94 206.44 9.94 207.56 9.66 208.25 C 9.38 208.94 9.16 208.38 9.16 207.00 Z M 136.00 205.94 C 136.00 205.36 136.45 205.16 137.00 205.50 C 137.55 205.84 138.00 206.32 138.00 206.56 C 138.00 206.80 137.55 207.00 137.00 207.00 C 136.45 207.00 136.00 206.52 136.00 205.94 Z M 135.76 194.50 C 136.02 193.12 136.68 192.00 137.22 192.00 C 137.77 192.00 137.94 192.71 137.61 193.58 C 137.27 194.45 137.00 195.58 137.00 196.08 C 137.00 196.59 136.61 197.00 136.14 197.00 C 135.66 197.00 135.49 195.88 135.76 194.50 Z M 10.16 189.00 C 10.16 187.62 10.38 187.06 10.66 187.75 C 10.94 188.44 10.94 189.56 10.66 190.25 C 10.38 190.94 10.16 190.38 10.16 189.00 Z M 136.00 185.06 C 136.00 183.38 136.45 182.00 137.00 182.00 C 137.55 182.00 138.00 183.10 138.00 184.44 C 138.00 185.78 137.55 187.16 137.00 187.50 C 136.42 187.86 136.00 186.84 136.00 185.06 Z M 10.23 182.00 C 10.23 180.07 10.44 179.29 10.69 180.25 C 10.94 181.21 10.94 182.79 10.69 183.75 C 10.44 184.71 10.23 183.93 10.23 182.00 Z M 136.00 178.12 C 136.00 177.57 136.45 176.84 137.00 176.50 C 137.55 176.16 138.00 176.33 138.00 176.88 C 138.00 177.43 137.55 178.16 137.00 178.50 C 136.45 178.84 136.00 178.67 136.00 178.12 Z M 136.67 169.33 C 136.30 168.97 136.01 167.95 136.03 167.08 C 136.06 165.78 136.25 165.83 137.12 167.33 C 138.20 169.18 137.89 170.55 136.67 169.33 Z M 10.23 160.00 C 10.23 158.07 10.44 157.29 10.69 158.25 C 10.94 159.21 10.94 160.79 10.69 161.75 C 10.44 162.71 10.23 161.93 10.23 160.00 Z M 47.00 144.00 C 47.00 143.45 47.45 143.00 48.00 143.00 C 48.55 143.00 49.00 143.45 49.00 144.00 C 49.00 144.55 48.55 145.00 48.00 145.00 C 47.45 145.00 47.00 144.55 47.00 144.00 Z M 91.12 144.25 C 91.05 143.56 90.21 142.97 89.25 142.93 C 87.75 142.87 87.79 142.73 89.50 142.00 C 90.60 141.53 92.40 141.16 93.50 141.19 C 95.06 141.22 95.13 141.33 93.81 141.68 C 92.88 141.92 91.92 142.88 91.68 143.81 C 91.43 144.74 91.18 144.94 91.12 144.25 Z M 26.81 143.32 C 27.53 143.03 28.40 143.06 28.73 143.40 C 29.06 143.73 28.47 143.96 27.42 143.92 C 26.25 143.87 26.01 143.64 26.81 143.32 Z M 64.50 143.00 C 64.16 142.45 64.61 142.00 65.50 142.00 C 66.39 142.00 66.84 142.45 66.50 143.00 C 66.16 143.55 65.71 144.00 65.50 144.00 C 65.29 144.00 64.84 143.55 64.50 143.00 Z M 73.50 143.00 C 73.16 142.45 73.58 142.00 74.44 142.00 C 75.30 142.00 76.00 142.45 76.00 143.00 C 76.00 143.55 75.58 144.00 75.06 144.00 C 74.54 144.00 73.84 143.55 73.50 143.00 Z M 80.00 143.00 C 80.00 142.45 80.45 142.00 81.00 142.00 C 81.55 142.00 82.00 142.45 82.00 143.00 C 82.00 143.55 81.55 144.00 81.00 144.00 C 80.45 144.00 80.00 143.55 80.00 143.00 Z M 97.44 142.53 C 95.64 141.17 95.80 141.06 99.82 141.03 C 103.66 141.00 103.98 141.17 102.64 142.50 C 100.77 144.37 99.88 144.38 97.44 142.53 Z M 118.81 143.32 C 119.53 143.03 120.40 143.06 120.73 143.40 C 121.06 143.73 120.47 143.96 119.42 143.92 C 118.25 143.87 118.01 143.64 118.81 143.32 Z M 124.00 142.94 C 124.00 142.36 124.45 142.16 125.00 142.50 C 125.55 142.84 126.00 142.72 126.00 142.23 C 126.00 141.73 127.35 141.33 129.00 141.33 C 130.83 141.33 132.00 141.85 132.00 142.67 C 132.00 143.56 130.67 144.00 128.00 144.00 C 125.80 144.00 124.00 143.52 124.00 142.94 Z M 9.00 141.50 C 9.00 140.63 9.60 140.29 10.50 140.64 C 11.32 140.95 12.00 141.34 12.00 141.50 C 12.00 141.66 11.32 142.05 10.50 142.36 C 9.60 142.71 9.00 142.37 9.00 141.50 Z M 108.00 142.15 C 108.00 141.68 111.26 141.29 115.25 141.28 C 120.46 141.26 121.66 141.47 119.50 142.01 C 115.27 143.07 108.00 143.16 108.00 142.15 Z M 13.51 111.29 C 13.51 95.08 13.15 81.59 12.71 81.32 C 12.27 81.05 12.41 80.22 13.02 79.47 C 13.78 78.56 13.97 74.17 13.60 65.81 C 13.31 59.04 13.04 52.83 13.01 52.00 C 12.59 41.57 13.30 18.34 14.06 17.42 C 14.76 16.58 21.45 16.16 36.78 15.99 C 48.72 15.86 65.03 15.63 73.00 15.48 C 88.53 15.19 124.71 14.85 129.25 14.94 L 132.00 15.00 L 132.00 77.25 L 131.99 139.50 L 91.75 139.70 C 69.61 139.82 42.95 140.10 32.50 140.34 L 13.50 140.77 L 13.51 111.29 Z M 9.08 137.42 C 9.13 136.25 9.36 136.01 9.68 136.81 C 9.97 137.53 9.94 138.40 9.60 138.73 C 9.27 139.06 9.04 138.47 9.08 137.42 Z M 9.08 130.42 C 9.13 129.25 9.36 129.01 9.68 129.81 C 9.97 130.53 9.94 131.40 9.60 131.73 C 9.27 132.06 9.04 131.47 9.08 130.42 Z M 9.47 121.90 C 9.10 120.74 9.30 119.30 9.90 118.70 C 10.70 117.90 11.00 118.47 11.00 120.80 C 11.00 124.49 10.42 124.91 9.47 121.90 Z M 9.08 111.42 C 9.13 110.25 9.36 110.01 9.68 110.81 C 9.97 111.53 9.94 112.40 9.60 112.73 C 9.27 113.06 9.04 112.47 9.08 111.42 Z M 9.23 94.00 C 9.23 92.08 9.44 91.29 9.69 92.25 C 9.94 93.21 9.94 94.79 9.69 95.75 C 9.44 96.71 9.23 95.92 9.23 94.00 Z M 9.50 88.00 C 9.84 87.45 10.32 87.00 10.56 87.00 C 10.80 87.00 11.00 87.45 11.00 88.00 C 11.00 88.55 10.52 89.00 9.94 89.00 C 9.36 89.00 9.16 88.55 9.50 88.00 Z M 9.00 83.00 C 9.00 82.45 9.48 82.00 10.06 82.00 C 10.64 82.00 10.84 82.45 10.50 83.00 C 10.16 83.55 9.68 84.00 9.44 84.00 C 9.20 84.00 9.00 83.55 9.00 83.00 Z M 192.11 69.41 C 198.42 65.23 202.36 57.31 201.52 50.50 C 200.63 43.31 197.58 37.67 192.80 34.36 C 189.19 31.86 187.77 31.50 181.43 31.50 C 174.85 31.50 173.83 31.78 170.34 34.56 C 161.85 41.32 159.64 52.25 164.78 62.10 C 167.05 66.44 168.58 67.97 173.03 70.30 C 179.96 73.94 185.68 73.68 192.11 69.41 Z M 9.00 65.00 C 9.00 64.45 9.45 64.00 10.00 64.00 C 10.55 64.00 11.00 64.45 11.00 65.00 C 11.00 65.55 10.55 66.00 10.00 66.00 C 9.45 66.00 9.00 65.55 9.00 65.00 Z M 176.30 63.04 C 165.60 56.52 169.58 39.00 181.76 39.00 C 185.32 39.00 191.01 42.64 192.72 46.03 C 195.80 52.12 192.87 60.41 186.58 63.39 C 182.18 65.48 180.19 65.42 176.30 63.04 Z M 9.58 61.13 C 9.15 60.44 9.07 59.60 9.40 59.27 C 10.29 58.37 11.27 59.69 10.79 61.14 C 10.45 62.15 10.21 62.15 9.58 61.13 Z M 9.23 54.00 C 9.23 52.08 9.44 51.29 9.69 52.25 C 9.94 53.21 9.94 54.79 9.69 55.75 C 9.44 56.71 9.23 55.92 9.23 54.00 Z M 9.50 41.00 C 9.16 40.45 9.36 40.00 9.94 40.00 C 10.52 40.00 11.00 40.45 11.00 41.00 C 11.00 41.55 10.80 42.00 10.56 42.00 C 10.32 42.00 9.84 41.55 9.50 41.00 Z M 9.08 36.42 C 9.13 35.25 9.36 35.01 9.68 35.81 C 9.97 36.53 9.94 37.40 9.60 37.73 C 9.27 38.06 9.04 37.47 9.08 36.42 Z M 9.00 29.44 C 9.00 28.03 9.41 27.13 9.91 27.44 C 10.40 27.75 10.58 28.90 10.29 30.00 C 9.57 32.75 9.00 32.51 9.00 29.44 Z M 9.25 21.50 C 9.26 19.30 9.47 18.52 9.71 19.76 C 9.95 21.01 9.94 22.81 9.69 23.76 C 9.44 24.72 9.24 23.70 9.25 21.50 Z M 10.50 17.00 C 10.84 16.45 11.32 16.00 11.56 16.00 C 11.80 16.00 12.00 16.45 12.00 17.00 C 12.00 17.55 11.52 18.00 10.94 18.00 C 10.36 18.00 10.16 17.55 10.50 17.00 Z M 12.00 15.12 C 12.00 14.57 12.45 13.84 13.00 13.50 C 13.55 13.16 14.00 13.33 14.00 13.88 C 14.00 14.43 13.55 15.16 13.00 15.50 C 12.45 15.84 12.00 15.67 12.00 15.12 Z M 10.00 11.97 C 10.00 11.44 10.68 11.00 11.50 11.00 C 12.32 11.00 13.00 11.18 13.00 11.39 C 13.00 11.61 12.32 12.05 11.50 12.36 C 10.68 12.68 10.00 12.50 10.00 11.97 Z M 94.81 12.32 C 95.53 12.03 96.40 12.06 96.73 12.40 C 97.06 12.73 96.47 12.96 95.42 12.92 C 94.25 12.87 94.01 12.64 94.81 12.32 Z M 129.59 12.25 C 129.18 11.84 125.61 11.24 121.67 10.91 L 114.50 10.32 L 123.25 10.16 C 130.43 10.03 132.00 10.27 132.00 11.50 C 132.00 13.11 130.81 13.48 129.59 12.25 Z M 22.81 11.32 C 23.53 11.03 24.40 11.06 24.73 11.40 C 25.06 11.73 24.47 11.96 23.42 11.92 C 22.25 11.87 22.01 11.64 22.81 11.32 Z M 28.75 11.34 C 29.44 11.06 30.56 11.06 31.25 11.34 C 31.94 11.62 31.38 11.84 30.00 11.84 C 28.62 11.84 28.06 11.62 28.75 11.34 Z M 44.25 11.31 C 45.21 11.06 46.79 11.06 47.75 11.31 C 48.71 11.56 47.92 11.77 46.00 11.77 C 44.08 11.77 43.29 11.56 44.25 11.31 Z M 95.81 10.32 C 96.53 10.03 97.40 10.06 97.73 10.40 C 98.06 10.73 97.47 10.96 96.42 10.92 C 95.25 10.87 95.01 10.64 95.81 10.32 Z M 103.25 10.31 C 104.21 10.06 105.79 10.06 106.75 10.31 C 107.71 10.56 106.92 10.77 105.00 10.77 C 103.08 10.77 102.29 10.56 103.25 10.31 Z M 111.81 10.32 C 112.53 10.03 113.40 10.06 113.73 10.40 C 114.06 10.73 113.47 10.96 112.42 10.92 C 111.25 10.87 111.01 10.64 111.81 10.32 Z" fill="none" stroke="rgba(255,255,255,0.92)" stroke-width="1.5" stroke-linejoin="round" fill-rule="evenodd"/>
</svg>
