<svg xmlns="http://www.w3.org/2000/svg" viewBox="0 0 100 100" width="100" height="100">
  <path d="M 0.00 50.00 L 0.00 0.00 L 50.00 0.00 L 100.00 0.00 L 100.00 50.00 L 100.00 100.00 L 50.00 100.00 L 0.00 100.00 L 0.00 50.00 Z M 10.45 77.50 L 9.93 59.00 L 35.46 59.00 L 61.00 59.00 L 61.20 74.25 C 61.31 82.64 61.33 90.96 61.23 92.75 C 61.07 95.73 61.31 96.00 64.03 96.00 L 67.00 96.00 L 67.00 74.50 L 67.00 53.00 L 36.17 53.00 C 19.21 53.00 5.15 53.19 4.92 53.41 C 4.69 53.64 4.63 63.32 4.79 74.91 L 5.08 96.00 L 8.02 96.00 L 10.96 96.00 L 10.45 77.50 Z M 58.00 87.50 L 58.00 79.00 L 54.87 79.00 C 51.81 79.00 51.75 79.08 52.36 82.75 C 52.70 84.81 52.98 88.64 52.99 91.25 C 53.00 95.65 53.19 96.00 55.50 96.00 C 57.97 96.00 58.00 95.90 58.00 87.50 Z M 96.00 50.50 L 96.00 5.00 L 50.00 5.00 L 4.00 5.00 L 4.00 7.50 L 4.00 10.00 L 47.00 10.00 L 90.00 10.00 L 90.00 53.00 L 90.00 96.00 L 93.00 96.00 L 96.00 96.00 L 96.00 50.50 Z" fill="none" stroke="rgba(255,255,255,0.92)" stroke-width="1.2" stroke-linejoin="round" fill-rule="evenodd"/>
</svg>
