<svg xmlns="http://www.w3.org/2000/svg" viewBox="0 0 100 100" width="100" height="100">
  <path d="M 0.00 50.00 L 0.00 0.00 L 50.00 0.00 L 100.00 0.00 L 100.00 50.00 L 100.00 100.00 L 50.00 100.00 L 0.00 100.00 L 0.00 50.00 Z M 10.00 89.78 C 10.00 86.60 9.56 84.00 9.03 84.00 C 8.49 84.00 8.28 85.24 8.55 86.75 C 8.83 88.26 8.66 90.85 8.18 92.50 C 7.47 94.93 7.28 94.13 7.20 88.28 C 7.15 83.94 7.56 80.77 8.22 80.36 C 8.95 79.91 9.12 80.25 8.70 81.34 C 8.35 82.25 8.53 83.00 9.10 83.00 C 10.31 83.00 9.97 33.10 8.76 32.35 C 8.34 32.09 8.00 33.03 8.00 34.44 C 8.00 35.85 7.59 37.00 7.10 37.00 C 6.60 37.00 6.14 31.06 6.06 23.79 C 5.98 16.53 6.26 10.93 6.68 11.35 C 7.10 11.77 7.51 14.22 7.59 16.81 C 7.67 19.39 7.80 23.19 7.87 25.25 C 7.94 27.31 8.39 29.00 8.86 29.00 C 9.33 29.00 9.50 24.76 9.23 19.57 L 8.73 10.14 L 50.51 10.04 C 89.65 9.95 98.77 9.47 91.50 7.89 L 88.50 7.24 L 91.68 7.12 C 94.43 7.02 94.92 7.38 95.28 9.75 C 95.62 11.96 95.73 11.77 95.85 8.75 L 96.00 5.00 L 51.58 5.00 C 27.15 5.00 6.53 5.24 5.75 5.54 C 4.56 6.00 4.39 10.64 4.70 34.29 C 4.90 49.81 5.04 70.03 5.02 79.24 L 4.98 95.98 L 7.49 95.77 C 9.86 95.58 10.00 95.23 10.00 89.78 Z M 69.19 89.25 C 75.75 85.42 80.02 71.81 79.96 54.86 C 79.91 36.44 76.09 24.13 68.89 19.16 C 65.91 17.11 64.77 16.90 59.50 17.47 C 47.38 18.78 35.61 27.00 30.26 37.87 C 27.81 42.88 27.50 44.60 27.50 53.50 C 27.50 62.22 27.84 64.22 30.14 69.12 C 31.58 72.21 34.47 76.62 36.55 78.93 C 45.45 88.77 61.37 93.81 69.19 89.25 Z M 53.70 83.56 C 37.50 77.78 28.92 59.79 34.44 43.17 C 38.09 32.21 49.29 23.74 60.38 23.59 C 66.09 23.50 66.48 23.66 68.64 26.82 C 72.50 32.51 74.01 39.84 74.16 53.69 C 74.31 68.00 72.64 76.10 68.36 81.75 C 66.25 84.53 65.29 84.99 61.70 84.96 C 59.39 84.93 55.79 84.30 53.70 83.56 Z M 7.62 77.46 C 7.28 76.57 7.04 74.86 7.09 73.67 C 7.15 72.13 7.46 72.48 8.15 74.86 C 9.14 78.32 8.73 80.35 7.62 77.46 Z M 6.00 67.06 C 6.00 65.38 7.77 64.97 8.36 66.51 C 8.71 67.41 8.36 68.00 7.47 68.00 C 6.66 68.00 6.00 67.58 6.00 67.06 Z M 6.60 61.40 C 6.24 60.47 6.18 59.49 6.45 59.21 C 6.73 58.94 7.24 59.47 7.60 60.40 C 7.96 61.33 8.02 62.31 7.75 62.59 C 7.47 62.86 6.96 62.33 6.60 61.40 Z M 6.69 55.91 C 5.96 53.13 6.14 52.85 7.90 53.94 C 8.84 54.52 8.95 55.27 8.26 56.49 C 7.39 58.05 7.23 57.99 6.69 55.91 Z M 7.34 51.56 C 7.64 50.78 7.36 49.95 6.71 49.74 C 5.82 49.44 5.82 48.77 6.70 46.92 C 7.74 44.76 7.87 44.71 7.95 46.50 C 7.99 47.60 8.30 49.51 8.63 50.75 C 9.02 52.19 8.79 53.00 8.01 53.00 C 7.34 53.00 7.03 52.35 7.34 51.56 Z M 6.45 41.91 C 6.08 41.31 6.28 40.32 6.89 39.71 C 7.70 38.90 8.00 39.18 8.00 40.80 C 8.00 43.21 7.48 43.59 6.45 41.91 Z M 6.52 9.04 C 5.68 7.67 6.43 6.64 7.91 7.15 C 8.51 7.35 8.59 8.06 8.09 8.86 C 7.47 9.86 7.06 9.91 6.52 9.04 Z M 11.52 8.03 C 11.10 7.35 13.85 7.00 19.61 7.00 C 24.41 7.00 28.15 7.16 27.92 7.37 C 26.77 8.37 12.10 8.97 11.52 8.03 Z M 33.24 7.83 C 32.28 7.45 36.90 7.17 43.50 7.21 C 56.52 7.28 56.40 7.74 43.24 8.22 C 38.69 8.38 34.19 8.21 33.24 7.83 Z M 58.50 8.00 C 56.83 7.28 57.05 7.13 59.81 7.07 C 61.78 7.03 62.87 7.41 62.50 8.00 C 61.78 9.17 61.21 9.17 58.50 8.00 Z M 65.25 7.31 C 66.21 7.06 67.79 7.06 68.75 7.31 C 69.71 7.56 68.92 7.77 67.00 7.77 C 65.08 7.77 64.29 7.56 65.25 7.31 Z M 73.75 7.34 C 74.44 7.06 75.56 7.06 76.25 7.34 C 76.94 7.62 76.38 7.84 75.00 7.84 C 73.62 7.84 73.06 7.62 73.75 7.34 Z M 79.25 7.31 C 80.21 7.06 81.79 7.06 82.75 7.31 C 83.71 7.56 82.92 7.77 81.00 7.77 C 79.08 7.77 78.29 7.56 79.25 7.31 Z" fill="none" stroke="rgba(255,255,255,0.92)" stroke-width="1.2" stroke-linejoin="round" fill-rule="evenodd"/>
</svg>
