<svg xmlns="http://www.w3.org/2000/svg" viewBox="0 0 100 100" width="100" height="100">
  <path d="M 0.00 50.00 L 0.00 0.00 L 50.00 0.00 L 100.00 0.00 L 100.00 50.00 L 100.00 100.00 L 50.00 100.00 L 0.00 100.00 L 0.00 50.00 Z M 47.39 11.00 C 70.69 11.00 91.16 10.72 92.88 10.38 C 95.32 9.89 96.00 9.23 96.00 7.38 L 96.00 5.00 L 50.00 5.00 L 4.00 5.00 L 4.24 50.75 L 4.48 96.50 L 4.75 53.75 L 5.02 11.00 L 47.39 11.00 Z M 43.36 49.37 C 49.44 46.46 52.66 37.49 50.06 30.66 C 47.82 24.76 39.02 20.27 33.06 21.98 C 28.81 23.20 25.06 25.98 23.45 29.10 C 21.40 33.06 21.61 40.85 23.88 44.56 C 27.48 50.47 36.42 52.67 43.36 49.37 Z M 34.37 45.24 C 31.45 44.76 28.15 41.02 27.42 37.33 C 26.92 34.84 27.35 33.66 29.65 31.16 C 33.42 27.07 36.66 26.44 40.77 28.98 C 45.95 32.17 47.01 37.84 43.26 42.19 C 41.48 44.24 37.24 45.70 34.37 45.24 Z" fill="none" stroke="rgba(255,255,255,0.92)" stroke-width="1.2" stroke-linejoin="round" fill-rule="evenodd"/>
</svg>
