<svg xmlns="http://www.w3.org/2000/svg" viewBox="0 0 100 100" width="100" height="100">
  <path d="M 0.00 50.00 L 0.00 0.00 L 50.00 0.00 L 100.00 0.00 L 100.00 50.00 L 100.00 100.00 L 50.00 100.00 L 0.00 100.00 L 0.00 50.00 Z M 4.75 51.19 C 4.58 43.11 4.44 50.00 4.44 66.50 C 4.44 83.00 4.58 89.61 4.75 81.19 C 4.92 72.77 4.92 59.27 4.75 51.19 Z M 44.77 49.36 C 53.69 42.56 52.62 28.90 42.80 24.14 C 37.12 21.39 33.14 21.43 28.92 24.27 C 19.30 30.76 18.34 41.34 26.66 49.17 C 31.45 53.68 39.00 53.76 44.77 49.36 Z M 30.05 44.20 C 25.88 40.04 25.84 35.01 29.92 30.92 C 33.85 26.99 38.15 26.99 42.08 30.92 C 47.72 36.57 44.76 45.39 36.80 46.66 C 33.60 47.17 32.68 46.83 30.05 44.20 Z M 4.69 31.27 C 4.44 30.30 4.22 30.85 4.19 32.50 C 4.17 34.15 4.38 34.95 4.66 34.27 C 4.93 33.59 4.95 32.24 4.69 31.27 Z M 42.57 10.84 C 62.88 10.69 83.21 10.41 87.75 10.21 C 95.71 9.86 96.00 9.76 96.00 7.42 L 96.00 5.00 L 50.00 5.00 L 4.00 5.00 L 4.00 8.56 C 4.00 10.52 4.37 11.89 4.82 11.61 C 5.27 11.33 22.26 10.98 42.57 10.84 Z" fill="none" stroke="rgba(255,255,255,0.92)" stroke-width="1.2" stroke-linejoin="round" fill-rule="evenodd"/>
</svg>
