<svg xmlns="http://www.w3.org/2000/svg" viewBox="0 0 100 100" width="100" height="100">
  <path d="M 0.00 50.00 L 0.00 0.00 L 50.00 0.00 L 100.00 0.00 L 100.00 50.00 L 100.00 100.00 L 50.00 100.00 L 0.00 100.00 L 0.00 50.00 Z M 95.00 49.88 L 95.00 3.75 L 91.87 4.38 C 90.16 4.72 69.68 5.00 46.37 5.00 L 4.00 5.00 L 4.00 8.11 L 4.00 11.22 L 46.50 10.48 L 89.00 9.74 L 89.16 51.12 C 89.25 73.88 89.25 93.29 89.17 94.25 C 89.06 95.56 89.78 96.00 92.01 96.00 L 95.00 96.00 L 95.00 49.88 Z M 78.20 41.86 C 83.18 38.31 85.34 30.66 83.06 24.66 C 82.55 23.31 80.71 20.75 78.99 18.99 C 75.96 15.89 75.63 15.80 68.91 16.17 C 62.49 16.54 61.69 16.84 58.32 20.21 C 55.22 23.31 54.62 24.65 54.28 29.18 C 53.98 33.31 54.35 35.24 55.96 37.81 C 60.32 44.74 71.33 46.75 78.20 41.86 Z M 62.10 35.46 C 58.36 31.20 58.64 27.96 63.11 23.75 C 67.06 20.03 71.25 20.10 75.08 23.92 C 81.01 29.85 77.27 38.89 68.85 38.97 C 65.91 38.99 64.61 38.32 62.10 35.46 Z" fill="none" stroke="rgba(255,255,255,0.92)" stroke-width="1.2" stroke-linejoin="round" fill-rule="evenodd"/>
</svg>
