<svg xmlns="http://www.w3.org/2000/svg" viewBox="0 0 100 100" width="100" height="100">
  <path d="M 0.00 50.00 L 0.00 0.00 L 50.00 0.00 L 100.00 0.00 L 100.00 50.00 L 100.00 100.00 L 50.00 100.00 L 0.00 100.00 L 0.00 50.00 Z M 94.73 95.27 C 95.72 94.89 96.00 88.08 96.00 64.39 L 96.00 34.00 L 50.00 34.00 L 4.00 34.00 L 4.00 65.05 L 4.00 96.10 L 48.73 95.93 C 73.33 95.84 94.03 95.54 94.73 95.27 Z M 7.00 65.16 L 7.00 40.30 L 15.25 39.71 C 19.79 39.39 38.92 39.07 57.77 39.01 L 92.03 38.91 L 91.77 64.20 L 91.50 89.50 L 49.25 89.76 L 7.00 90.02 L 7.00 65.16 Z M 71.50 45.50 C 71.50 44.40 70.69 43.27 69.71 43.00 C 68.73 42.73 58.76 42.63 47.57 42.79 L 27.22 43.08 L 27.36 45.56 L 27.50 48.04 L 49.50 47.77 C 70.74 47.51 71.50 47.43 71.50 45.50 Z M 96.00 7.84 L 96.00 4.68 L 71.84 5.34 C 58.55 5.70 37.85 6.00 25.84 6.00 L 4.00 6.00 L 4.00 8.50 L 4.00 11.00 L 50.00 11.00 L 96.00 11.00 L 96.00 7.84 Z" fill="none" stroke="rgba(255,255,255,0.92)" stroke-width="1.2" stroke-linejoin="round" fill-rule="evenodd"/>
</svg>
