<svg xmlns="http://www.w3.org/2000/svg" viewBox="0 0 400 288" width="400" height="288">
  <path d="M 0.00 144.00 L 0.00 0.00 L 200.00 0.00 L 400.00 0.00 L 400.00 144.00 L 400.00 288.00 L 200.00 288.00 L 0.00 288.00 L 0.00 144.00 Z M 50.20 281.68 C 57.47 281.57 62.34 281.06 63.05 280.35 C 63.92 279.48 62.09 279.23 55.61 279.35 C 50.88 279.43 47.01 279.89 47.00 280.37 C 47.00 280.85 46.33 280.69 45.50 280.00 C 44.32 279.02 43.38 279.01 41.10 279.96 C 37.76 281.34 33.83 281.03 33.28 279.35 C 33.05 278.67 34.46 277.96 36.70 277.62 C 41.20 276.95 67.12 277.08 65.14 277.77 C 63.99 278.17 63.99 278.38 65.14 279.12 C 66.25 279.84 66.26 280.16 65.20 280.84 C 64.11 281.54 71.92 281.63 88.31 281.09 C 90.09 281.03 90.87 280.60 90.43 279.89 C 90.01 279.20 88.27 279.02 85.80 279.42 C 83.43 279.79 82.09 279.67 82.43 279.11 C 82.75 278.59 82.45 277.94 81.76 277.66 C 81.07 277.39 83.20 277.12 86.50 277.07 C 110.85 276.70 129.81 276.53 129.66 276.67 C 128.38 277.95 120.04 279.65 116.76 279.30 C 113.86 278.99 111.86 279.34 110.50 280.39 C 108.19 282.18 109.66 282.46 113.56 280.98 C 115.29 280.32 116.66 280.30 117.41 280.92 C 118.68 281.98 124.21 281.03 127.71 279.16 C 128.90 278.52 130.46 278.03 131.18 278.07 C 131.91 278.10 131.49 278.62 130.25 279.22 C 127.32 280.63 127.32 282.37 130.25 281.37 C 131.49 280.94 133.62 280.65 135.00 280.70 C 139.34 280.89 144.00 279.95 144.00 278.89 C 144.00 278.26 142.35 278.12 139.62 278.53 C 135.19 279.20 132.33 277.65 134.98 276.01 C 138.66 273.74 132.98 273.64 51.70 274.55 C 32.57 274.76 16.45 275.22 15.89 275.57 C 15.32 275.92 14.63 275.31 14.35 274.22 C 14.02 272.97 13.21 272.39 12.16 272.66 C 10.69 273.05 10.46 271.71 10.19 261.15 C 10.00 253.95 10.27 248.95 10.87 248.58 C 12.40 247.63 13.32 249.91 12.02 251.47 C 11.15 252.52 11.22 253.87 12.30 257.06 C 13.53 260.70 13.78 260.95 14.17 258.88 C 14.42 257.57 14.52 254.03 14.38 251.00 C 14.25 247.97 14.12 230.30 14.09 211.73 C 14.05 180.36 13.92 177.90 12.27 177.23 C 11.30 176.83 10.44 175.38 10.37 174.00 C 10.29 172.62 9.91 167.18 9.52 161.90 L 8.81 152.30 L 49.15 151.57 C 88.61 150.86 390.22 149.02 390.78 149.49 C 391.56 150.15 391.84 165.98 391.08 166.45 C 390.59 166.75 390.65 168.71 391.20 170.91 C 391.89 173.60 391.86 175.40 391.13 176.66 C 390.19 178.28 390.04 178.14 389.88 175.50 C 389.78 173.85 389.61 171.82 389.50 171.00 C 389.39 170.18 389.23 168.71 389.15 167.75 C 389.07 166.79 388.58 166.00 388.06 166.00 C 386.99 166.00 387.11 219.44 388.19 220.52 C 388.56 220.90 389.18 219.58 389.55 217.59 C 390.42 212.94 391.67 212.16 391.67 216.27 C 391.67 218.15 390.91 220.07 389.82 220.97 C 387.89 222.56 387.61 224.83 387.79 237.00 C 387.85 240.57 387.85 244.81 387.81 246.41 C 387.76 248.16 388.47 249.87 389.56 250.66 C 391.30 251.94 391.30 252.00 389.59 252.00 C 388.07 252.00 387.86 252.67 388.22 256.25 C 388.46 258.59 388.30 261.79 387.86 263.38 C 387.39 265.09 387.50 267.06 388.13 268.24 C 388.83 269.56 388.85 270.55 388.18 271.22 C 387.58 271.82 377.20 272.34 362.34 272.51 C 348.68 272.68 332.32 272.88 326.00 272.96 C 319.68 273.04 314.05 273.05 313.50 272.97 C 312.95 272.90 307.32 272.93 301.00 273.05 C 294.68 273.17 284.45 273.34 278.28 273.43 L 267.07 273.59 L 266.63 271.05 C 266.39 269.65 266.28 264.32 266.38 259.22 L 266.58 249.93 L 263.54 250.45 L 260.50 250.98 L 263.49 249.59 C 266.70 248.10 267.77 244.31 265.95 240.91 C 265.42 239.92 265.34 238.91 265.75 238.65 C 266.17 238.40 266.44 233.08 266.35 226.84 C 266.26 220.60 266.17 210.10 266.16 203.50 C 266.15 196.90 266.14 190.15 266.13 188.50 C 266.13 186.85 266.12 178.45 266.11 169.84 C 266.10 160.00 265.71 153.94 265.05 153.53 C 264.37 153.11 263.98 154.91 263.94 158.69 C 263.89 163.35 263.69 164.03 262.93 162.16 C 262.42 160.87 262.25 159.41 262.56 158.91 C 262.87 158.41 262.64 158.00 262.06 158.00 C 261.48 158.00 261.00 157.07 261.00 155.94 C 261.00 154.81 260.64 154.11 260.19 154.38 C 259.75 154.66 259.49 164.24 259.62 175.69 C 259.75 187.14 259.94 211.93 260.05 230.79 C 260.23 261.79 260.40 265.07 261.87 264.93 C 265.09 264.62 265.46 265.05 263.00 266.29 C 261.43 267.08 260.38 268.56 260.18 270.27 C 259.92 272.58 259.37 273.02 256.68 273.12 C 254.93 273.18 229.20 273.34 199.50 273.47 C 169.80 273.60 144.04 274.03 142.25 274.43 C 137.42 275.51 138.13 277.39 143.07 276.60 C 146.10 276.12 146.96 276.26 146.41 277.15 C 145.88 278.00 146.22 278.12 147.59 277.57 C 150.22 276.52 165.48 275.94 164.38 276.94 C 162.87 278.32 154.75 279.21 155.55 277.92 C 156.02 277.16 155.60 276.99 154.27 277.42 C 153.17 277.76 150.30 278.65 147.89 279.38 C 143.69 280.66 144.05 280.72 156.00 280.72 C 162.88 280.71 169.40 280.32 170.50 279.83 C 171.87 279.23 171.16 279.12 168.25 279.49 C 162.64 280.20 162.81 278.73 168.51 277.21 C 174.88 275.50 175.47 275.63 173.69 278.34 L 172.16 280.69 L 196.83 280.76 C 210.40 280.80 222.29 280.62 223.25 280.35 C 227.32 279.22 224.44 278.44 216.86 278.61 C 211.44 278.73 209.19 278.47 210.11 277.83 C 211.04 277.20 210.33 277.12 208.00 277.60 C 206.07 277.99 199.99 278.38 194.47 278.46 C 188.96 278.54 183.82 278.99 183.05 279.47 C 182.00 280.12 181.82 279.90 182.34 278.55 C 182.80 277.35 182.62 276.93 181.76 277.25 C 181.07 277.51 179.38 278.06 178.00 278.48 C 175.91 279.10 175.71 279.00 176.80 277.86 C 178.33 276.26 192.25 275.78 191.28 277.36 C 190.93 277.92 191.36 278.08 192.27 277.73 C 197.53 275.71 202.24 274.95 203.42 275.93 C 204.11 276.51 204.91 276.75 205.19 276.48 C 205.68 275.99 219.45 275.58 221.50 275.99 C 224.16 276.52 234.86 276.20 235.91 275.56 C 236.56 275.16 237.66 275.30 238.36 275.88 C 239.23 276.60 240.77 276.63 243.18 275.96 C 245.90 275.21 247.41 275.33 249.62 276.48 C 252.85 278.17 252.94 278.14 242.73 278.46 C 239.56 278.56 236.52 279.08 235.99 279.61 C 234.83 280.77 285.28 280.77 288.75 279.61 C 289.99 279.20 291.00 278.40 291.00 277.82 C 291.00 276.86 288.86 277.10 283.75 278.61 C 282.79 278.90 282.00 278.74 282.00 278.27 C 282.00 277.79 280.36 277.59 278.36 277.83 C 273.55 278.39 274.72 276.47 279.68 275.66 C 281.94 275.30 283.68 275.49 284.09 276.15 C 284.57 276.92 285.86 276.87 288.58 275.97 C 290.84 275.23 292.53 275.10 292.72 275.65 C 292.89 276.17 294.71 276.48 296.77 276.33 C 300.47 276.07 300.46 276.08 295.75 277.59 C 293.14 278.43 291.00 279.54 291.00 280.06 C 291.00 281.26 292.21 281.25 295.50 280.00 C 297.24 279.34 298.76 279.33 299.99 279.99 C 301.35 280.72 302.99 280.45 306.17 278.97 C 309.83 277.27 310.04 277.03 307.50 277.46 C 305.85 277.73 303.49 278.24 302.25 278.59 C 301.01 278.94 300.00 278.82 300.00 278.32 C 300.00 276.94 308.32 274.95 309.45 276.06 C 309.97 276.58 311.10 276.97 311.95 276.93 C 313.21 276.87 313.18 276.73 311.79 276.18 C 310.13 275.52 341.61 275.58 357.24 276.26 C 361.49 276.45 364.53 276.33 363.99 275.99 C 363.44 275.66 365.24 275.35 367.99 275.31 C 373.56 275.22 373.88 276.43 368.55 277.43 C 366.63 277.78 364.80 278.51 364.48 279.04 C 363.45 280.70 367.91 280.08 372.00 278.00 C 374.16 276.90 377.20 276.00 378.76 276.00 C 380.32 276.00 382.16 275.44 382.84 274.76 C 383.83 273.77 384.26 273.80 384.94 274.90 C 385.43 275.69 386.51 276.02 387.46 275.65 C 388.38 275.30 388.88 274.61 388.57 274.12 C 388.27 273.63 388.89 273.00 389.95 272.72 C 391.05 272.43 392.10 272.81 392.40 273.61 C 393.14 275.54 392.08 277.95 390.67 277.52 C 390.03 277.33 387.93 276.91 386.00 276.59 C 383.55 276.18 382.95 276.29 384.00 276.97 C 385.05 277.65 383.95 277.87 380.30 277.72 C 377.44 277.60 374.62 277.98 374.03 278.57 C 373.27 279.33 376.10 279.61 383.73 279.56 L 394.50 279.47 L 394.25 252.49 C 394.11 237.64 393.82 176.30 393.59 116.18 C 393.37 56.05 393.03 6.75 392.84 6.64 C 391.59 5.84 8.00 9.94 6.62 10.76 C 5.36 11.50 7.16 279.82 8.43 281.89 C 8.78 282.46 14.96 282.64 23.76 282.35 C 31.87 282.08 43.77 281.78 50.20 281.68 Z M 107.22 280.18 C 109.00 278.40 107.58 277.83 104.41 279.03 C 102.67 279.70 101.42 279.75 101.23 279.18 C 100.90 278.21 93.21 279.65 91.74 280.95 C 91.32 281.32 94.37 281.56 98.52 281.48 C 102.68 281.39 106.59 280.81 107.22 280.18 Z M 10.54 280.07 C 9.54 278.45 11.46 278.06 22.62 277.62 C 28.85 277.38 32.43 277.54 31.00 278.00 C 29.23 278.57 29.03 278.83 30.31 278.90 C 31.30 278.96 31.87 279.41 31.56 279.90 C 30.94 280.91 16.41 280.75 15.39 279.72 C 15.03 279.36 13.92 279.51 12.93 280.04 C 11.82 280.63 10.90 280.65 10.54 280.07 Z M 233.79 279.54 C 234.90 278.43 233.28 278.08 229.70 278.66 C 227.66 278.99 226.00 279.71 226.00 280.26 C 226.00 281.25 232.70 280.63 233.79 279.54 Z M 314.85 279.48 C 316.27 279.07 316.84 278.44 316.29 277.89 C 315.19 276.79 309.00 278.73 309.00 280.17 C 309.00 280.70 309.79 280.92 310.75 280.65 C 311.71 280.38 313.56 279.85 314.85 279.48 Z M 321.88 280.03 C 323.75 279.50 325.98 279.44 326.88 279.90 C 328.84 280.91 337.06 278.78 335.33 277.71 C 334.69 277.31 333.01 277.43 331.58 277.97 C 330.16 278.51 327.67 278.68 326.04 278.36 C 322.57 277.66 318.00 278.61 318.00 280.02 C 318.00 281.21 317.78 281.21 321.88 280.03 Z M 67.66 278.44 C 68.18 277.08 80.21 277.15 80.67 278.52 C 80.88 279.14 78.36 279.53 74.13 279.52 C 69.70 279.51 67.40 279.12 67.66 278.44 Z M 352.66 278.67 C 353.03 278.30 350.90 277.95 347.92 277.88 C 341.08 277.74 338.88 277.98 337.00 279.07 C 336.09 279.59 338.74 279.82 343.74 279.64 C 348.28 279.48 352.29 279.05 352.66 278.67 Z M 362.00 279.00 C 363.24 278.20 363.15 278.05 361.50 278.11 C 360.40 278.16 358.38 278.56 357.00 279.00 C 354.55 279.78 354.56 279.80 357.50 279.89 C 359.15 279.93 361.18 279.53 362.00 279.00 Z M 40.73 278.40 C 40.40 278.06 39.53 278.03 38.81 278.32 C 38.01 278.64 38.25 278.87 39.42 278.92 C 40.47 278.96 41.06 278.73 40.73 278.40 Z M 254.25 278.27 C 252.12 277.53 252.87 276.26 255.75 275.71 C 257.26 275.42 258.79 275.66 259.16 276.25 C 259.59 276.96 260.37 276.78 261.44 275.70 C 263.07 274.07 266.00 274.38 266.00 276.19 C 266.00 276.78 267.71 276.92 270.25 276.55 C 273.86 276.01 274.20 276.10 272.52 277.14 C 270.61 278.31 256.83 279.17 254.25 278.27 Z M 138.65 271.76 C 140.01 275.03 140.60 271.12 140.32 260.81 C 140.14 254.59 140.00 248.88 140.00 248.13 C 140.00 247.00 139.72 246.99 138.46 248.04 C 137.39 248.92 137.23 249.63 137.96 250.36 C 139.32 251.72 139.30 255.00 137.94 255.00 C 137.34 255.00 137.22 255.54 137.67 256.25 C 139.02 258.38 138.84 262.89 137.35 264.12 C 136.16 265.12 135.99 263.81 136.22 255.40 C 136.45 247.39 136.79 245.50 138.00 245.50 C 140.21 245.50 140.92 243.12 140.38 237.50 C 139.48 228.11 138.94 226.00 137.45 226.00 C 136.26 226.00 136.00 223.77 136.00 213.50 C 136.00 206.62 136.00 200.78 136.00 200.50 C 136.00 200.22 136.34 200.00 136.75 200.00 C 137.16 200.00 137.58 204.61 137.68 210.25 C 137.78 215.89 138.28 221.62 138.80 223.00 C 139.44 224.70 139.71 219.34 139.62 206.33 C 139.56 195.79 139.10 186.79 138.61 186.33 C 138.10 185.85 137.99 187.61 138.35 190.50 C 138.93 195.15 137.93 199.32 136.72 197.35 C 136.19 196.50 135.71 182.75 135.90 174.19 C 136.06 167.40 138.00 170.27 138.02 177.31 C 138.03 181.42 138.34 183.02 138.94 182.06 C 139.77 180.75 139.27 159.05 138.38 158.08 C 138.17 157.85 138.00 160.53 138.00 164.03 C 138.00 168.75 137.71 170.11 136.88 169.28 C 135.88 168.28 135.58 165.98 135.12 155.75 C 135.06 154.24 134.51 153.00 133.92 153.00 C 132.62 153.00 133.05 270.74 134.36 272.81 C 135.02 273.84 135.50 273.74 136.66 272.31 C 137.72 271.00 138.27 270.85 138.65 271.76 Z M 390.41 269.62 C 390.09 268.79 389.98 267.42 390.17 266.57 C 390.40 265.47 390.83 265.74 391.66 267.51 C 392.33 268.96 392.43 270.23 391.90 270.56 C 391.40 270.87 390.73 270.45 390.41 269.62 Z M 14.38 265.81 C 13.89 265.01 13.43 265.25 12.95 266.57 C 12.03 269.10 13.01 270.73 14.19 268.62 C 14.70 267.72 14.78 266.46 14.38 265.81 Z M 136.00 267.58 C 136.00 266.71 136.71 266.00 137.58 266.00 C 138.45 266.00 138.99 266.53 138.77 267.19 C 138.15 269.04 136.00 269.35 136.00 267.58 Z M 390.71 262.38 C 389.93 261.59 391.00 259.00 392.11 259.00 C 393.25 259.00 393.28 261.71 392.14 262.41 C 391.67 262.71 391.02 262.69 390.71 262.38 Z M 263.00 255.94 C 263.00 255.36 263.45 255.16 264.00 255.50 C 264.55 255.84 265.00 256.32 265.00 256.56 C 265.00 256.80 264.55 257.00 264.00 257.00 C 263.45 257.00 263.00 256.52 263.00 255.94 Z M 211.46 249.47 C 233.71 243.67 249.75 223.05 249.94 200.00 C 249.98 195.23 249.47 192.64 248.03 190.28 C 243.14 182.27 229.63 176.74 210.60 174.97 C 184.37 172.53 159.73 178.89 152.37 190.02 C 149.87 193.79 149.76 194.52 150.22 203.25 C 150.63 210.76 151.30 213.76 153.78 219.21 C 160.92 234.88 172.37 245.09 187.10 248.95 C 196.16 251.32 203.72 251.49 211.46 249.47 Z M 390.58 248.13 C 390.15 247.44 390.07 246.60 390.40 246.27 C 391.29 245.37 392.27 246.69 391.79 248.14 C 391.45 249.15 391.21 249.15 390.58 248.13 Z M 10.00 246.00 C 10.00 245.45 10.70 245.00 11.56 245.00 C 12.42 245.00 12.84 245.45 12.50 246.00 C 12.16 246.55 11.46 247.00 10.94 247.00 C 10.42 247.00 10.00 246.55 10.00 246.00 Z M 136.00 236.06 C 136.00 231.63 136.39 228.00 136.86 228.00 C 138.13 228.00 139.24 240.42 138.00 240.83 C 137.45 241.02 137.22 241.55 137.51 242.02 C 137.80 242.48 137.58 243.14 137.02 243.49 C 136.36 243.90 136.00 241.26 136.00 236.06 Z M 11.08 241.42 C 11.13 240.25 11.36 240.01 11.68 240.81 C 11.97 241.53 11.94 242.40 11.60 242.73 C 11.27 243.06 11.04 242.47 11.08 241.42 Z M 191.50 241.62 C 181.65 239.67 172.88 233.63 164.99 223.35 C 162.55 220.17 158.07 208.41 157.47 203.61 C 156.40 195.05 160.36 190.22 171.50 186.52 C 179.99 183.69 185.99 182.93 200.00 182.89 C 219.29 182.83 232.55 186.05 239.39 192.45 C 242.21 195.10 242.26 195.33 241.73 203.08 C 240.41 222.39 225.58 238.92 206.86 241.95 C 199.41 243.16 199.30 243.16 191.50 241.62 Z M 10.25 232.46 C 10.29 229.96 10.70 227.69 11.16 227.40 C 11.62 227.12 12.00 229.16 12.00 231.94 C 12.00 234.72 11.59 237.00 11.09 237.00 C 10.59 237.00 10.21 234.96 10.25 232.46 Z M 263.00 236.00 C 263.00 235.45 263.48 235.00 264.06 235.00 C 264.64 235.00 264.84 235.45 264.50 236.00 C 264.16 236.55 263.68 237.00 263.44 237.00 C 263.20 237.00 263.00 236.55 263.00 236.00 Z M 389.70 234.66 C 389.42 233.92 389.59 232.68 390.08 231.91 C 390.73 230.88 390.97 231.25 390.98 233.25 C 391.00 236.24 390.51 236.77 389.70 234.66 Z M 263.00 230.06 C 263.00 229.54 263.45 228.84 264.00 228.50 C 264.55 228.16 265.00 228.58 265.00 229.44 C 265.00 230.30 264.55 231.00 264.00 231.00 C 263.45 231.00 263.00 230.58 263.00 230.06 Z M 390.02 227.25 C 390.01 226.01 390.45 225.00 391.00 225.00 C 392.25 225.00 392.25 226.06 391.00 228.00 C 390.22 229.21 390.03 229.07 390.02 227.25 Z M 10.00 222.56 C 10.00 221.70 10.45 221.00 11.00 221.00 C 11.55 221.00 12.00 221.42 12.00 221.94 C 12.00 222.46 11.55 223.16 11.00 223.50 C 10.45 223.84 10.00 223.42 10.00 222.56 Z M 262.77 218.04 C 262.08 215.58 262.49 214.16 263.58 215.25 C 263.90 215.57 264.00 216.88 263.81 218.16 L 263.46 220.50 L 262.77 218.04 Z M 11.00 217.56 C 11.00 216.70 11.45 216.00 12.00 216.00 C 12.55 216.00 13.00 216.42 13.00 216.94 C 13.00 217.46 12.55 218.16 12.00 218.50 C 11.45 218.84 11.00 218.42 11.00 217.56 Z M 10.71 211.00 C 10.35 209.07 10.02 202.32 9.97 196.00 C 9.85 179.64 9.90 178.82 10.91 179.45 C 11.41 179.76 11.78 186.22 11.73 193.81 C 11.68 201.40 11.87 208.03 12.16 208.55 C 12.45 209.07 12.39 210.62 12.02 212.00 C 11.40 214.36 11.33 214.30 10.71 211.00 Z M 390.00 207.17 C 390.00 204.88 390.42 203.00 390.94 203.00 C 391.46 203.00 391.62 204.67 391.30 206.75 C 390.49 211.94 390.00 212.10 390.00 207.17 Z M 263.02 206.75 C 263.03 204.93 263.22 204.79 264.00 206.00 C 265.25 207.94 265.25 209.00 264.00 209.00 C 263.45 209.00 263.01 207.99 263.02 206.75 Z M 389.90 194.00 C 389.62 190.43 389.70 187.13 390.07 186.67 C 391.07 185.45 391.58 190.84 390.95 196.00 C 390.41 200.43 390.39 200.40 389.90 194.00 Z M 262.64 190.25 C 261.79 185.09 261.85 182.79 262.82 183.39 C 263.64 183.90 264.46 194.00 263.68 194.00 C 263.45 194.00 262.98 192.31 262.64 190.25 Z M 389.66 183.57 C 389.33 182.71 389.35 181.25 389.70 180.34 C 390.23 178.95 390.48 179.06 391.20 181.01 C 391.69 182.35 391.68 183.72 391.16 184.24 C 390.63 184.77 390.02 184.49 389.66 183.57 Z M 262.63 179.33 C 261.83 176.64 262.28 165.88 263.17 166.77 C 264.06 167.66 264.56 179.77 263.74 180.59 C 263.43 180.90 262.94 180.33 262.63 179.33 Z M 14.00 171.50 C 14.00 169.57 13.58 168.00 13.06 168.00 C 11.67 168.00 10.82 169.77 11.89 170.43 C 12.40 170.75 12.58 171.90 12.29 173.00 C 12.00 174.12 12.26 175.00 12.88 175.00 C 13.50 175.00 14.00 173.43 14.00 171.50 Z M 13.17 160.77 C 12.28 159.88 12.02 160.42 12.07 163.05 C 12.13 166.29 12.20 166.36 13.24 164.22 C 14.05 162.53 14.03 161.63 13.17 160.77 Z M 389.16 160.50 C 388.96 158.03 388.39 156.00 387.90 156.00 C 386.87 156.00 386.66 163.33 387.67 164.33 C 389.12 165.79 389.50 164.81 389.16 160.50 Z M 387.68 151.81 C 387.36 151.01 387.13 151.25 387.08 152.42 C 387.04 153.47 387.27 154.06 387.60 153.73 C 387.94 153.40 387.97 152.53 387.68 151.81 Z M 14.68 140.40 C 14.34 138.26 14.06 109.84 14.04 77.25 L 14.03 18.00 L 35.26 17.99 C 46.94 17.98 83.27 17.55 116.00 17.04 C 148.73 16.53 222.07 15.83 279.00 15.49 C 335.93 15.14 383.18 14.68 384.00 14.45 C 385.32 14.08 385.55 21.69 385.89 77.51 L 386.28 141.00 L 360.39 141.04 C 346.15 141.06 316.50 141.27 294.50 141.51 C 272.50 141.74 212.20 142.18 160.50 142.48 C 108.80 142.77 54.98 143.31 40.90 143.66 L 15.30 144.30 L 14.68 140.40 Z M 259.34 137.32 L 264.17 136.72 L 263.84 92.82 C 263.51 49.88 263.46 48.91 261.50 48.44 C 260.40 48.18 246.90 48.15 231.50 48.38 C 216.10 48.61 188.09 48.84 169.25 48.90 L 135.00 49.00 L 135.00 93.54 L 135.00 138.07 L 194.75 138.00 C 227.61 137.95 256.68 137.65 259.34 137.32 Z M 143.00 94.11 C 143.00 66.06 143.28 57.84 144.25 57.52 C 144.94 57.29 170.36 56.96 200.75 56.79 L 256.00 56.48 L 256.00 92.18 C 256.00 114.91 255.64 128.11 255.00 128.50 C 254.45 128.84 229.02 129.38 198.50 129.70 L 143.00 130.29 L 143.00 94.11 Z M 228.33 68.01 C 228.78 67.59 229.01 65.95 228.83 64.37 L 228.50 61.50 L 211.00 61.72 C 201.38 61.84 188.21 61.95 181.75 61.97 L 170.00 62.00 L 170.00 66.10 L 170.00 70.21 L 198.75 69.50 C 214.56 69.10 227.87 68.44 228.33 68.01 Z M 367.78 62.25 C 379.06 57.06 382.16 39.64 373.69 29.10 C 368.83 23.06 363.29 21.48 353.66 23.37 C 347.84 24.51 341.35 31.00 339.43 37.59 C 334.25 55.41 350.99 69.98 367.78 62.25 Z M 350.24 52.57 C 346.76 49.39 346.50 48.76 346.55 43.60 C 346.61 37.39 348.62 34.36 354.51 31.56 C 358.90 29.48 363.07 30.45 366.94 34.44 C 370.95 38.57 371.88 43.72 369.56 48.86 C 367.46 53.53 363.49 56.00 358.08 56.00 C 354.79 56.00 353.22 55.31 350.24 52.57 Z" fill="none" stroke="rgba(255,255,255,0.92)" stroke-width="1.5" stroke-linejoin="round" fill-rule="evenodd"/>
</svg>
