<svg xmlns="http://www.w3.org/2000/svg" viewBox="0 0 100 100" width="100" height="100">
  <path d="M 0.00 50.00 L 0.00 0.00 L 50.00 0.00 L 100.00 0.00 L 100.00 50.00 L 100.00 100.00 L 50.00 100.00 L 0.00 100.00 L 0.00 50.00 Z M 95.66 62.84 C 95.30 44.60 95.00 23.90 95.00 16.84 L 95.00 4.00 L 49.50 4.00 L 4.00 4.00 L 4.00 7.00 L 4.00 10.00 L 46.50 10.00 L 89.00 10.00 L 89.09 31.25 C 89.14 42.94 89.31 55.65 89.46 59.50 C 89.62 63.35 89.80 73.14 89.87 81.25 L 90.00 96.00 L 93.16 96.00 L 96.32 96.00 L 95.66 62.84 Z" fill="none" stroke="rgba(255,255,255,0.92)" stroke-width="1.2" stroke-linejoin="round" fill-rule="evenodd"/>
</svg>
