<svg xmlns="http://www.w3.org/2000/svg" viewBox="0 0 388 400" width="388" height="400">
  <path d="M 0.00 200.00 L 0.00 0.00 L 194.00 0.00 L 388.00 0.00 L 388.00 178.54 C 388.00 340.89 387.85 357.29 386.39 359.52 C 384.91 361.78 384.91 362.03 386.39 362.60 C 387.66 363.08 388.00 364.71 388.00 370.31 C 388.00 376.92 387.78 377.63 384.83 380.67 C 382.53 383.05 382.05 384.05 383.08 384.37 C 388.16 385.94 388.00 385.66 388.00 392.97 L 388.00 400.00 L 194.00 400.00 L 0.00 400.00 L 0.00 200.00 Z M 93.00 393.93 C 125.33 393.83 128.94 393.67 124.64 392.49 C 121.96 391.75 119.21 391.37 118.52 391.63 C 117.82 391.90 117.03 391.53 116.76 390.81 C 116.37 389.80 118.13 389.50 124.53 389.50 C 129.08 389.50 132.62 389.81 132.39 390.18 C 132.16 390.56 132.51 391.20 133.17 391.60 C 134.01 392.12 133.79 392.59 132.43 393.15 C 131.03 393.73 172.41 393.59 191.50 392.95 C 192.05 392.94 197.22 392.98 203.00 393.05 C 208.78 393.12 223.78 393.14 236.33 393.09 L 259.17 393.00 L 258.63 339.25 C 258.33 309.69 258.07 284.71 258.05 283.75 C 258.02 282.79 257.62 282.00 257.15 282.00 C 256.69 282.00 256.35 291.30 256.40 302.67 C 256.46 315.64 256.13 323.45 255.50 323.66 C 254.85 323.88 254.42 314.92 254.28 298.37 C 254.16 284.27 253.83 272.49 253.53 272.20 C 253.24 271.91 252.71 271.96 252.36 272.31 C 252.00 272.66 251.80 298.50 251.90 329.73 L 252.10 386.50 L 222.30 386.69 C 205.91 386.79 180.95 386.94 166.83 387.02 C 147.43 387.13 140.71 387.49 139.36 388.48 C 137.81 389.62 138.56 389.87 145.03 390.40 C 159.13 391.55 159.48 391.72 147.80 391.68 C 141.37 391.66 136.33 391.28 136.61 390.82 C 136.89 390.37 136.42 390.00 135.56 390.00 C 133.77 390.00 133.44 388.35 135.13 387.79 C 137.82 386.89 137.75 352.15 135.05 347.10 C 134.05 345.22 134.04 344.59 135.04 343.97 C 136.39 343.14 137.46 330.14 136.51 326.25 C 136.17 324.84 135.21 324.00 133.95 324.00 C 132.01 324.00 131.95 323.45 132.21 308.93 C 132.40 298.29 132.85 293.54 133.74 292.80 C 134.68 292.02 135.00 292.22 135.00 293.58 C 135.00 294.88 135.31 295.09 136.08 294.32 C 137.46 292.94 135.19 289.01 133.01 288.98 C 131.67 288.97 131.67 288.85 133.00 287.91 C 134.13 287.11 134.19 286.72 133.25 286.34 C 132.55 286.06 132.03 284.22 132.07 282.17 C 132.12 279.81 132.38 279.11 132.82 280.21 C 133.28 281.36 133.95 281.65 134.88 281.08 C 135.64 280.61 135.94 279.72 135.56 279.10 C 135.18 278.48 134.37 278.27 133.76 278.65 C 133.05 279.09 132.89 278.73 133.30 277.66 C 133.65 276.75 133.50 276.00 132.97 276.00 C 132.44 276.00 132.00 275.55 132.00 275.00 C 132.00 274.45 132.34 274.05 132.75 274.12 C 135.05 274.48 136.15 273.84 135.62 272.46 C 135.30 271.62 135.59 270.73 136.27 270.48 C 136.95 270.24 149.88 269.82 165.00 269.55 C 180.12 269.27 193.18 269.01 194.00 268.97 C 195.32 268.90 215.38 268.82 232.50 268.82 C 235.80 268.82 271.01 269.14 310.75 269.53 C 371.51 270.12 383.00 270.02 383.03 268.87 C 383.25 259.00 382.87 162.44 382.35 93.59 L 381.68 5.67 L 255.22 6.35 C 185.67 6.72 128.41 7.25 127.97 7.52 C 127.53 7.79 127.42 36.53 127.73 71.39 L 128.28 134.76 L 88.39 134.98 C 66.45 135.11 39.28 135.27 28.00 135.35 L 7.50 135.50 L 7.38 150.17 C 7.27 163.30 7.43 164.78 8.88 164.25 C 10.34 163.72 10.34 163.85 8.83 165.58 C 7.31 167.33 7.20 171.94 7.56 218.00 C 7.78 245.78 8.21 285.82 8.53 307.00 C 8.84 328.18 9.05 351.27 9.00 358.33 C 8.92 370.46 9.02 371.19 10.96 371.70 C 13.56 372.38 13.58 373.61 11.00 374.29 C 9.18 374.77 9.00 375.65 9.00 384.24 C 9.00 389.42 9.20 393.87 9.45 394.12 C 9.70 394.37 20.39 394.45 33.20 394.30 C 46.02 394.15 72.92 393.99 93.00 393.93 Z M 20.34 391.50 C 20.53 390.95 21.77 390.47 23.09 390.43 C 24.42 390.39 26.34 389.99 27.38 389.53 C 28.48 389.03 30.56 389.16 32.45 389.84 C 36.22 391.21 39.34 391.36 38.58 390.13 C 38.29 389.65 40.61 389.24 43.75 389.21 C 48.13 389.17 49.04 389.40 47.65 390.18 C 46.65 390.74 44.86 391.32 43.66 391.47 C 42.47 391.63 40.31 392.07 38.86 392.46 C 37.13 392.92 35.09 392.58 32.96 391.48 C 30.25 390.08 29.80 390.04 30.28 391.28 C 30.74 392.48 29.83 392.73 25.42 392.63 C 22.30 392.55 20.15 392.08 20.34 391.50 Z M 47.92 391.34 C 50.07 389.84 68.46 388.44 67.60 389.85 C 66.85 391.06 61.18 392.02 52.80 392.35 C 47.15 392.57 46.39 392.42 47.92 391.34 Z M 62.75 392.34 C 63.44 392.06 64.56 392.06 65.25 392.34 C 65.94 392.62 65.38 392.84 64.00 392.84 C 62.62 392.84 62.06 392.62 62.75 392.34 Z M 70.75 392.31 C 68.35 391.68 68.54 390.00 71.00 390.00 C 72.11 390.00 73.00 390.67 73.00 391.50 C 73.00 392.32 72.89 392.95 72.75 392.88 C 72.61 392.82 71.71 392.56 70.75 392.31 Z M 87.46 391.93 C 86.31 390.08 88.35 389.48 94.50 389.87 C 97.07 390.03 97.25 390.21 95.73 391.09 C 94.76 391.66 93.01 391.82 91.85 391.45 C 90.44 391.01 89.97 391.15 90.43 391.89 C 90.82 392.51 90.46 393.00 89.62 393.00 C 88.79 393.00 87.82 392.52 87.46 391.93 Z M 98.08 390.86 C 98.87 389.38 99.51 389.24 101.70 390.08 C 103.59 390.80 105.21 390.74 107.28 389.89 C 109.20 389.09 110.41 389.02 110.84 389.69 C 111.20 390.25 112.17 390.96 113.00 391.27 C 114.00 391.65 113.75 391.87 112.25 391.92 C 111.01 391.96 109.99 391.44 109.98 390.75 C 109.97 389.87 109.75 389.83 109.23 390.62 C 108.83 391.23 105.94 391.94 102.81 392.19 C 97.57 392.62 97.19 392.51 98.08 390.86 Z M 12.67 391.33 C 11.60 390.26 11.90 380.00 13.00 380.00 C 13.55 380.00 14.05 381.91 14.11 384.25 L 14.23 388.50 L 15.08 384.50 C 15.55 382.30 15.64 377.57 15.27 374.00 C 14.91 370.43 14.70 367.17 14.80 366.77 C 14.90 366.37 14.96 358.27 14.93 348.77 C 14.90 339.27 14.92 329.85 14.98 327.83 C 15.08 323.66 13.63 322.09 12.09 324.73 C 11.20 326.27 11.06 326.16 11.03 323.86 C 11.01 321.95 11.48 321.26 12.75 321.36 C 14.37 321.49 14.50 319.87 14.51 300.25 C 14.51 288.56 14.17 279.00 13.76 279.00 C 13.34 279.00 13.00 279.65 13.00 280.44 C 13.00 281.23 12.55 282.16 12.00 282.50 C 11.41 282.86 11.00 281.81 11.00 279.95 C 11.00 277.55 11.36 276.92 12.50 277.36 C 14.45 278.11 14.51 275.12 12.57 273.61 C 11.79 273.00 11.00 271.38 10.82 270.00 C 10.58 268.09 10.91 267.57 12.23 267.79 C 13.44 267.99 13.79 267.61 13.38 266.54 C 13.05 265.69 12.38 265.00 11.89 265.00 C 10.14 265.00 10.93 257.04 12.84 255.40 C 15.01 253.55 14.62 248.55 12.37 249.41 C 11.62 249.70 11.00 249.50 11.00 248.97 C 11.00 248.44 11.70 248.00 12.55 248.00 C 13.73 248.00 14.10 246.88 14.09 243.25 C 14.09 240.64 14.11 237.38 14.14 236.00 C 14.17 234.62 14.06 220.78 13.90 205.24 C 13.63 178.53 13.51 177.02 11.81 177.56 C 10.81 177.88 10.00 177.65 10.00 177.07 C 10.00 176.48 10.68 176.00 11.50 176.00 C 13.17 176.00 13.14 176.15 13.53 166.75 C 13.76 161.31 13.49 159.81 12.15 159.06 C 10.64 158.21 10.65 158.08 12.28 157.45 C 13.76 156.88 14.01 155.76 13.78 150.90 C 13.54 145.84 13.26 145.11 11.75 145.59 C 8.93 146.47 9.74 145.05 12.75 143.85 C 14.34 143.21 23.69 142.66 35.00 142.53 C 45.73 142.40 55.47 141.99 56.67 141.61 C 57.86 141.23 59.06 141.29 59.34 141.75 C 59.87 142.60 88.44 142.35 90.88 141.47 C 91.63 141.19 92.77 141.40 93.41 141.93 C 94.10 142.50 96.05 142.55 98.21 142.07 C 100.29 141.60 102.24 141.64 102.76 142.16 C 103.31 142.71 104.75 142.66 106.40 142.04 C 107.91 141.46 109.88 141.36 110.82 141.81 C 111.74 142.26 116.14 142.49 120.60 142.32 L 128.69 142.01 L 128.85 190.76 C 128.93 217.57 129.16 244.56 129.36 250.75 L 129.72 262.00 L 127.11 262.03 C 125.68 262.04 100.88 262.17 72.00 262.32 C 29.01 262.54 19.05 262.85 17.00 264.01 L 14.50 265.42 L 17.50 266.09 C 19.47 266.53 19.81 266.81 18.50 266.91 C 15.64 267.13 12.99 269.40 13.03 271.61 C 13.06 273.43 13.12 273.42 14.56 271.52 C 16.01 269.60 17.45 269.55 69.10 269.52 C 125.65 269.50 131.33 269.65 130.40 271.17 C 130.07 271.70 129.90 287.29 130.03 305.81 C 130.24 337.66 130.38 348.02 130.99 374.80 C 131.13 381.01 131.02 386.31 130.75 386.58 C 130.48 386.85 105.57 387.23 75.38 387.43 C 45.20 387.63 19.98 387.84 19.34 387.89 C 18.69 387.95 18.42 388.88 18.71 390.00 C 19.15 391.67 18.74 392.00 16.28 392.00 C 14.66 392.00 13.03 391.70 12.67 391.33 Z M 75.00 391.00 C 75.00 390.45 75.70 390.00 76.56 390.00 C 77.42 390.00 77.84 390.45 77.50 391.00 C 77.16 391.55 76.46 392.00 75.94 392.00 C 75.42 392.00 75.00 391.55 75.00 391.00 Z M 80.00 391.00 C 78.86 390.27 79.30 390.03 81.81 390.02 C 83.76 390.01 84.87 390.41 84.50 391.00 C 83.72 392.26 81.94 392.26 80.00 391.00 Z M 161.00 391.00 C 161.00 390.45 161.65 390.00 162.44 390.00 C 163.23 390.00 164.16 390.45 164.50 391.00 C 164.84 391.55 164.19 392.00 163.06 392.00 C 161.93 392.00 161.00 391.55 161.00 391.00 Z M 170.00 391.03 C 171.93 390.62 174.85 389.99 176.50 389.64 L 179.50 388.99 L 176.50 390.45 C 174.85 391.25 171.93 391.88 170.00 391.84 L 166.50 391.77 L 170.00 391.03 Z M 184.81 391.32 C 185.53 391.03 186.40 391.06 186.73 391.40 C 187.06 391.73 186.47 391.96 185.42 391.92 C 184.25 391.87 184.01 391.64 184.81 391.32 Z M 216.90 391.09 C 218.02 390.38 217.92 390.11 216.40 389.72 C 215.35 389.45 216.53 389.23 219.00 389.23 C 221.47 389.23 222.65 389.45 221.60 389.72 C 220.08 390.11 219.98 390.38 221.10 391.09 C 222.07 391.69 221.41 391.97 219.00 391.97 C 216.59 391.97 215.93 391.69 216.90 391.09 Z M 227.44 390.47 C 229.60 388.83 232.00 388.53 232.00 389.88 C 232.00 390.37 230.99 391.04 229.75 391.37 C 226.13 392.34 225.36 392.04 227.44 390.47 Z M 202.00 390.00 C 202.00 389.45 202.70 389.00 203.56 389.00 C 204.42 389.00 204.84 389.45 204.50 390.00 C 204.16 390.55 203.46 391.00 202.94 391.00 C 202.42 391.00 202.00 390.55 202.00 390.00 Z M 167.81 389.32 C 168.53 389.03 169.40 389.06 169.73 389.40 C 170.06 389.73 169.47 389.96 168.42 389.92 C 167.25 389.87 167.01 389.64 167.81 389.32 Z M 193.81 389.32 C 194.53 389.03 195.40 389.06 195.73 389.40 C 196.06 389.73 195.47 389.96 194.42 389.92 C 193.25 389.87 193.01 389.64 193.81 389.32 Z M 238.81 389.32 C 239.53 389.03 240.40 389.06 240.73 389.40 C 241.06 389.73 240.47 389.96 239.42 389.92 C 238.25 389.87 238.01 389.64 238.81 389.32 Z M 254.64 363.62 C 254.72 349.81 254.90 335.57 255.04 332.00 L 255.28 325.50 L 256.02 332.50 C 256.66 338.49 257.42 375.14 257.10 384.64 C 257.05 386.37 256.44 388.00 255.75 388.27 C 254.77 388.64 254.53 383.36 254.64 363.62 Z M 134.21 375.00 C 134.19 370.60 134.59 367.00 135.09 367.00 C 135.59 367.00 136.00 370.60 136.00 375.00 C 136.00 379.40 135.61 383.00 135.12 383.00 C 134.64 383.00 134.23 379.40 134.21 375.00 Z M 361.54 376.50 C 363.23 371.41 366.56 357.78 367.47 352.26 C 368.13 348.31 367.99 347.95 365.52 347.01 C 364.06 346.45 360.42 346.00 357.43 346.00 C 351.55 346.00 351.12 345.45 353.03 340.43 C 354.23 337.26 354.29 337.36 350.76 336.48 C 348.23 335.84 347.86 336.15 346.05 340.39 C 344.11 344.90 343.97 345.00 339.54 345.00 C 337.04 345.00 335.00 345.45 335.00 346.00 C 335.00 346.55 336.85 347.00 339.12 347.00 C 342.90 347.00 343.18 347.18 342.62 349.25 C 338.92 362.78 336.77 372.97 337.32 374.39 C 337.78 375.59 338.85 376.03 340.71 375.82 C 343.14 375.53 343.55 374.91 344.54 370.00 C 345.15 366.98 346.92 360.77 348.48 356.20 L 351.31 347.90 L 355.41 348.20 C 360.24 348.55 360.21 347.42 355.83 364.29 C 352.68 376.40 352.38 377.06 350.25 376.52 C 349.01 376.21 348.00 376.41 348.00 376.95 C 348.00 378.68 353.38 380.98 356.86 380.74 C 359.81 380.53 360.37 380.02 361.54 376.50 Z M 335.70 366.00 C 339.77 355.24 339.78 355.00 335.82 355.00 C 332.69 355.00 332.20 355.44 329.71 360.52 C 326.82 366.40 326.20 371.50 328.25 372.36 C 331.65 373.78 333.27 372.40 335.70 366.00 Z M 375.36 369.25 C 377.80 360.59 377.19 359.04 371.36 359.02 C 368.39 359.00 368.19 359.24 367.52 363.70 C 366.94 367.57 367.13 368.62 368.60 369.70 C 371.15 371.56 374.77 371.32 375.36 369.25 Z M 12.02 361.33 C 12.01 359.59 11.73 357.45 11.39 356.58 C 11.00 355.57 11.33 355.00 12.29 355.00 C 13.99 355.00 14.43 360.71 12.92 363.10 C 12.29 364.08 12.03 363.56 12.02 361.33 Z M 134.00 359.44 C 134.00 358.58 134.46 358.16 135.02 358.51 C 135.58 358.86 135.77 359.56 135.46 360.07 C 134.60 361.46 134.00 361.20 134.00 359.44 Z M 133.00 353.44 C 133.00 352.58 133.45 352.16 134.00 352.50 C 134.55 352.84 135.00 353.54 135.00 354.06 C 135.00 354.58 134.55 355.00 134.00 355.00 C 133.45 355.00 133.00 354.30 133.00 353.44 Z M 11.93 347.00 C 11.38 341.49 11.52 340.18 12.56 341.22 C 12.86 341.53 12.97 344.19 12.80 347.14 L 12.48 352.50 L 11.93 347.00 Z M 134.16 350.00 C 134.16 348.62 134.38 348.06 134.66 348.75 C 134.94 349.44 134.94 350.56 134.66 351.25 C 134.38 351.94 134.16 351.38 134.16 350.00 Z M 133.00 342.06 C 133.00 341.54 133.45 340.84 134.00 340.50 C 134.55 340.16 135.00 340.58 135.00 341.44 C 135.00 342.30 134.55 343.00 134.00 343.00 C 133.45 343.00 133.00 342.58 133.00 342.06 Z M 132.00 337.56 C 132.00 336.70 132.45 336.00 133.00 336.00 C 133.55 336.00 134.00 336.42 134.00 336.94 C 134.00 337.46 133.55 338.16 133.00 338.50 C 132.45 338.84 132.00 338.42 132.00 337.56 Z M 11.89 337.92 C 11.83 337.69 11.67 335.56 11.53 333.18 C 11.35 330.25 11.59 329.19 12.29 329.89 C 13.35 330.95 13.55 336.78 12.56 337.77 C 12.25 338.08 11.95 338.15 11.89 337.92 Z M 133.39 330.43 C 133.03 328.97 133.24 327.36 133.87 326.73 C 134.71 325.89 135.00 326.56 135.00 329.30 C 135.00 333.61 134.31 334.09 133.39 330.43 Z M 136.61 311.47 C 136.67 298.46 134.95 296.93 134.39 309.49 C 134.20 313.68 133.79 317.54 133.47 318.06 C 133.14 318.58 133.33 319.00 133.87 319.00 C 134.42 319.00 135.15 319.90 135.50 321.00 C 135.85 322.10 136.23 323.00 136.34 323.00 C 136.46 323.00 136.58 317.81 136.61 311.47 Z M 11.00 309.00 C 11.00 305.00 11.43 302.00 12.00 302.00 C 12.57 302.00 13.00 305.00 13.00 309.00 C 13.00 313.00 12.57 316.00 12.00 316.00 C 11.43 316.00 11.00 313.00 11.00 309.00 Z M 11.02 296.75 C 11.01 295.24 11.45 294.00 12.00 294.00 C 13.26 294.00 13.26 296.04 12.00 298.00 C 11.24 299.17 11.03 298.89 11.02 296.75 Z M 11.00 288.94 C 11.00 287.81 11.43 287.15 11.96 287.47 C 12.48 287.80 12.66 288.72 12.35 289.53 C 11.56 291.60 11.00 291.36 11.00 288.94 Z M 136.98 285.25 C 136.98 284.84 136.53 283.82 136.00 283.00 C 135.22 281.79 135.03 281.93 135.02 283.75 C 135.01 284.99 135.45 286.00 136.00 286.00 C 136.55 286.00 136.99 285.66 136.98 285.25 Z M 257.93 277.75 C 257.87 275.03 257.72 274.82 257.00 276.50 C 255.81 279.26 255.81 281.00 257.00 281.00 C 257.55 281.00 257.97 279.54 257.93 277.75 Z M 257.50 272.00 C 257.84 271.45 257.67 271.00 257.12 271.00 C 256.57 271.00 255.84 271.45 255.50 272.00 C 255.16 272.55 255.33 273.00 255.88 273.00 C 256.43 273.00 257.16 272.55 257.50 272.00 Z M 130.00 267.93 C 130.00 267.42 130.51 267.00 131.12 267.00 C 131.90 267.00 131.86 266.54 131.00 265.50 C 129.50 263.69 131.05 263.49 132.95 265.25 C 134.04 266.27 134.18 266.19 133.70 264.81 C 133.38 263.89 133.57 262.98 134.12 262.79 C 134.68 262.61 135.31 260.44 135.53 257.98 C 135.75 255.52 135.68 254.40 135.37 255.50 C 134.51 258.54 133.15 259.56 132.44 257.70 C 132.08 256.77 132.74 254.77 133.97 253.04 C 135.45 250.96 136.00 248.99 135.72 246.76 C 135.34 243.80 135.23 243.71 134.54 245.75 C 133.40 249.06 131.99 248.49 132.07 244.75 C 132.13 242.19 132.30 241.91 132.90 243.45 C 133.63 245.30 133.69 245.29 134.24 243.20 C 134.63 241.70 134.36 241.00 133.41 241.00 C 132.28 241.00 132.00 238.79 132.00 230.00 C 132.00 223.03 132.38 219.00 133.04 219.00 C 133.62 219.00 134.01 219.56 133.93 220.25 C 133.60 222.79 134.03 224.10 135.00 223.50 C 136.36 222.66 136.26 218.66 134.84 217.24 C 134.05 216.45 134.00 215.68 134.70 214.79 C 135.83 213.36 135.67 163.89 134.53 162.05 C 134.16 161.45 133.44 161.23 132.93 161.54 C 132.42 161.86 132.00 161.36 132.00 160.44 C 132.00 159.06 132.27 158.98 133.50 160.00 C 135.14 161.36 135.27 160.66 135.25 150.70 C 135.24 145.39 134.56 144.04 132.78 145.82 C 132.06 146.54 132.01 147.00 132.64 147.00 C 133.23 147.00 133.63 149.32 133.59 152.50 C 133.54 155.52 133.21 158.00 132.86 158.00 C 131.80 158.00 130.87 152.98 131.54 150.87 C 131.88 149.79 131.75 148.36 131.24 147.70 C 129.51 145.44 131.30 142.51 134.50 142.36 C 136.15 142.28 162.70 142.14 193.50 142.04 L 249.50 141.87 L 250.35 200.45 C 250.82 232.67 250.95 259.68 250.65 260.48 C 250.18 261.70 245.11 261.94 218.29 262.00 C 166.08 262.11 137.10 262.57 136.36 263.31 C 135.98 263.69 136.27 264.00 137.00 264.00 C 137.73 264.00 138.04 264.29 137.68 264.65 C 137.32 265.01 137.81 265.89 138.77 266.62 C 140.38 267.85 140.38 267.94 138.80 267.97 C 137.86 267.99 136.62 267.21 136.02 266.25 C 135.02 264.62 134.97 264.63 135.23 266.37 C 135.43 267.76 134.78 268.32 132.75 268.55 C 131.24 268.72 130.00 268.44 130.00 267.93 Z M 32.00 266.94 C 32.00 266.36 32.45 266.16 33.00 266.50 C 33.55 266.84 34.00 267.32 34.00 267.56 C 34.00 267.80 33.55 268.00 33.00 268.00 C 32.45 268.00 32.00 267.52 32.00 266.94 Z M 81.02 267.01 C 80.35 266.60 81.47 266.02 83.67 265.65 C 89.32 264.72 95.00 264.87 95.00 265.94 C 95.00 267.56 92.97 268.22 91.57 267.06 C 90.65 266.30 88.94 266.23 86.21 266.84 C 84.01 267.34 81.67 267.41 81.02 267.01 Z M 98.08 266.55 L 95.75 265.30 L 98.00 264.71 C 101.30 263.85 110.07 265.07 109.32 266.29 C 108.96 266.87 109.19 267.00 109.85 266.60 C 110.48 266.20 111.00 266.36 111.00 266.94 C 111.00 268.23 108.03 268.31 106.08 267.07 C 105.30 266.58 103.71 266.54 102.54 266.98 C 101.24 267.48 99.51 267.31 98.08 266.55 Z M 144.75 267.34 C 145.44 267.06 146.56 267.06 147.25 267.34 C 147.94 267.62 147.38 267.84 146.00 267.84 C 144.62 267.84 144.06 267.62 144.75 267.34 Z M 152.58 267.02 C 153.12 266.48 155.12 265.77 157.03 265.45 C 160.31 264.89 160.39 264.94 158.56 266.43 C 156.43 268.15 150.91 268.69 152.58 267.02 Z M 162.43 265.98 C 162.43 264.54 162.91 264.15 164.21 264.57 C 167.00 265.45 179.88 265.62 179.36 264.77 C 178.67 263.66 181.20 263.82 184.96 265.14 C 186.99 265.84 188.46 265.91 188.86 265.32 C 189.21 264.79 190.62 264.64 192.00 264.98 C 196.84 266.17 191.08 267.12 176.46 267.55 C 163.01 267.94 162.43 267.87 162.43 265.98 Z M 219.00 267.00 C 212.45 266.27 212.88 264.28 219.58 264.31 C 223.08 264.33 224.60 264.66 223.78 265.23 C 223.00 265.78 223.86 265.86 226.00 265.45 C 229.97 264.69 229.53 264.72 233.45 264.88 C 238.30 265.08 235.02 266.74 229.00 267.14 C 225.97 267.34 221.47 267.27 219.00 267.00 Z M 35.55 266.11 C 36.07 265.62 37.62 264.88 38.99 264.47 C 41.22 263.79 41.34 263.88 40.12 265.36 C 39.37 266.26 37.82 267.00 36.68 267.00 C 35.42 267.00 34.98 266.65 35.55 266.11 Z M 42.00 266.00 C 42.00 265.45 42.93 265.00 44.06 265.00 C 45.19 265.00 45.84 265.45 45.50 266.00 C 45.16 266.55 44.23 267.00 43.44 267.00 C 42.65 267.00 42.00 266.55 42.00 266.00 Z M 51.80 265.80 C 52.73 264.87 53.27 264.87 54.20 265.80 C 55.13 266.73 54.87 267.00 53.00 267.00 C 51.13 267.00 50.87 266.73 51.80 265.80 Z M 61.50 266.07 C 59.87 265.43 60.27 265.15 63.68 264.56 C 66.06 264.16 68.66 264.28 69.74 264.86 C 70.78 265.42 73.62 265.66 76.06 265.41 C 79.26 265.07 80.08 265.23 79.00 265.96 C 77.25 267.14 64.42 267.22 61.50 266.07 Z M 121.75 266.34 C 122.44 266.06 123.56 266.06 124.25 266.34 C 124.94 266.62 124.38 266.84 123.00 266.84 C 121.62 266.84 121.06 266.62 121.75 266.34 Z M 195.26 266.31 C 196.23 266.06 196.80 265.49 196.53 265.04 C 196.13 264.40 200.65 264.38 203.00 265.01 C 204.39 265.38 199.10 266.85 196.50 266.81 C 194.85 266.79 194.29 266.56 195.26 266.31 Z M 205.36 265.50 C 206.18 264.68 207.37 264.00 208.00 264.00 C 208.63 264.00 209.82 264.68 210.64 265.50 C 211.98 266.83 211.68 267.00 208.00 267.00 C 204.32 267.00 204.02 266.83 205.36 265.50 Z M 237.00 266.02 C 237.00 264.47 241.61 263.72 243.83 264.91 C 244.93 265.50 245.99 265.60 246.17 265.12 C 246.35 264.65 247.51 263.95 248.75 263.56 C 250.58 262.99 251.00 263.25 251.00 264.93 C 251.00 266.83 250.41 267.00 244.00 267.00 C 240.09 267.00 237.00 266.57 237.00 266.02 Z M 47.00 265.00 C 47.00 264.45 47.45 264.00 48.00 264.00 C 48.55 264.00 49.00 264.45 49.00 265.00 C 49.00 265.55 48.55 266.00 48.00 266.00 C 47.45 266.00 47.00 265.55 47.00 265.00 Z M 142.50 265.00 C 145.28 263.81 147.24 263.81 146.50 265.00 C 146.16 265.55 144.67 265.97 143.19 265.93 C 140.79 265.87 140.71 265.77 142.50 265.00 Z M 13.97 259.25 C 13.94 256.89 13.79 256.75 12.92 258.26 C 12.35 259.22 12.17 260.46 12.50 261.01 C 13.54 262.68 14.00 262.13 13.97 259.25 Z M 271.81 261.22 L 258.12 260.94 L 257.87 202.22 C 257.72 169.92 257.67 141.36 257.74 138.75 L 257.86 134.00 L 197.09 134.00 L 136.31 134.00 L 135.66 118.25 C 135.30 109.59 135.01 82.81 135.00 58.75 L 135.00 15.00 L 159.75 14.86 C 173.36 14.78 186.30 14.64 188.50 14.53 C 195.41 14.20 373.22 13.88 373.53 14.20 C 373.93 14.61 375.50 184.02 375.50 227.00 L 375.50 261.50 L 330.50 261.50 C 305.75 261.50 279.34 261.37 271.81 261.22 Z M 345.63 255.68 C 345.31 254.40 345.01 226.52 344.97 193.71 L 344.89 134.07 L 305.19 133.78 C 283.36 133.63 264.69 133.74 263.70 134.04 C 262.01 134.55 261.91 136.79 261.95 171.04 C 261.97 191.09 262.29 218.63 262.65 232.22 L 263.31 256.95 L 276.91 257.25 C 284.38 257.42 303.04 257.66 318.36 257.78 L 346.22 258.00 L 345.63 255.68 Z M 270.47 248.75 C 270.22 248.06 269.89 223.65 269.75 194.50 L 269.50 141.50 L 303.00 141.83 C 321.42 142.01 336.60 142.26 336.72 142.38 C 336.84 142.51 337.25 166.77 337.63 196.30 L 338.32 250.00 L 304.63 250.00 C 278.59 250.00 270.83 249.72 270.47 248.75 Z M 11.02 243.48 C 11.72 242.64 12.49 242.16 12.74 242.41 C 13.44 243.10 12.03 245.00 10.82 245.00 C 10.16 245.00 10.23 244.43 11.02 243.48 Z M 214.36 238.42 C 226.21 235.37 237.85 226.56 240.14 218.92 C 245.23 201.93 217.82 165.07 190.71 152.44 C 184.69 149.64 175.52 149.16 171.20 151.41 C 167.71 153.24 161.74 161.15 158.48 168.27 C 153.40 179.37 152.78 195.98 157.02 207.33 C 161.39 219.01 171.69 230.70 182.00 235.68 C 190.92 239.98 203.98 241.09 214.36 238.42 Z M 135.09 236.10 C 135.66 237.01 135.97 235.49 135.98 231.81 C 135.99 228.68 135.55 225.84 134.99 225.50 C 133.53 224.59 132.53 227.93 133.87 229.27 C 135.26 230.66 135.38 234.35 134.00 233.50 C 133.42 233.14 133.05 234.05 133.12 235.69 C 133.20 237.64 133.38 237.92 133.72 236.60 C 134.11 235.08 134.38 234.98 135.09 236.10 Z M 191.13 230.90 C 172.07 225.16 159.24 204.40 162.04 183.83 C 163.18 175.43 163.83 173.41 167.27 167.50 C 171.36 160.50 173.80 158.13 177.68 157.40 C 184.67 156.09 198.67 164.46 211.79 177.80 C 224.50 190.72 231.99 202.92 233.27 212.81 C 233.76 216.60 233.46 217.55 230.82 220.56 C 229.16 222.44 224.39 225.68 220.21 227.74 C 213.30 231.16 211.80 231.52 203.56 231.71 C 198.58 231.82 192.98 231.45 191.13 230.90 Z M 11.00 221.00 C 11.00 218.07 11.28 215.95 11.62 216.29 C 12.38 217.05 12.33 225.00 11.56 225.77 C 11.25 226.08 11.00 223.93 11.00 221.00 Z M 333.00 224.75 C 333.00 224.34 333.00 210.92 333.00 194.94 L 333.00 165.88 L 329.25 166.19 L 325.50 166.50 L 325.85 195.50 C 326.05 211.45 326.34 224.72 326.51 225.00 C 326.99 225.81 333.00 225.57 333.00 224.75 Z M 132.00 209.00 C 132.00 208.45 132.48 208.00 133.06 208.00 C 133.64 208.00 133.84 208.45 133.50 209.00 C 133.16 209.55 132.68 210.00 132.44 210.00 C 132.20 210.00 132.00 209.55 132.00 209.00 Z M 131.03 205.37 C 131.01 204.20 131.68 202.68 132.50 202.00 C 134.55 200.30 134.57 202.86 132.53 205.56 C 131.09 207.46 131.06 207.46 131.03 205.37 Z M 10.50 205.00 C 10.84 204.45 11.32 204.00 11.56 204.00 C 11.80 204.00 12.00 204.45 12.00 205.00 C 12.00 205.55 11.52 206.00 10.94 206.00 C 10.36 206.00 10.16 205.55 10.50 205.00 Z M 132.18 198.50 C 132.07 197.40 131.70 194.03 131.36 191.00 C 130.89 186.80 131.02 185.76 131.92 186.60 C 132.67 187.30 132.97 190.04 132.74 194.10 C 132.55 197.62 132.29 199.60 132.18 198.50 Z M 10.02 185.31 C 10.01 183.55 10.45 181.84 11.00 181.50 C 12.28 180.71 12.28 185.02 11.00 187.00 C 10.26 188.14 10.03 187.74 10.02 185.31 Z M 131.00 176.94 C 131.00 173.16 131.38 171.11 132.00 171.50 C 132.55 171.84 133.00 174.57 133.00 177.56 C 133.00 180.55 132.55 183.00 132.00 183.00 C 131.44 183.00 131.00 180.31 131.00 176.94 Z M 131.78 166.04 C 132.02 164.38 132.62 163.26 133.10 163.56 C 134.22 164.26 133.62 168.29 132.33 168.72 C 131.76 168.91 131.53 167.77 131.78 166.04 Z M 11.67 164.33 C 11.30 163.97 11.00 163.20 11.00 162.63 C 11.00 162.01 11.47 162.07 12.18 162.78 C 12.83 163.43 13.13 164.20 12.85 164.48 C 12.57 164.77 12.03 164.70 11.67 164.33 Z M 9.50 160.00 C 9.84 159.45 10.32 159.00 10.56 159.00 C 10.80 159.00 11.00 159.45 11.00 160.00 C 11.00 160.55 10.52 161.00 9.94 161.00 C 9.36 161.00 9.16 160.55 9.50 160.00 Z M 10.20 151.54 C 9.52 150.05 9.45 148.84 10.01 148.49 C 10.52 148.18 11.23 149.08 11.59 150.51 C 12.46 153.97 11.60 154.61 10.20 151.54 Z M 10.00 140.50 C 10.00 139.40 10.53 138.99 11.47 139.35 C 12.28 139.66 13.20 139.48 13.53 138.96 C 13.85 138.43 14.88 138.01 15.81 138.02 C 17.20 138.03 17.25 138.19 16.08 138.93 C 15.00 139.61 15.38 139.94 17.58 140.27 C 20.20 140.66 20.12 140.72 16.83 140.85 C 14.81 140.93 12.45 141.27 11.58 141.61 C 10.52 142.01 10.00 141.65 10.00 140.50 Z M 27.00 139.50 C 28.36 137.86 31.00 137.46 31.00 138.89 C 31.00 139.81 28.63 141.00 26.80 141.00 C 26.17 141.00 26.25 140.41 27.00 139.50 Z M 34.50 140.09 C 37.45 138.91 49.00 138.06 49.00 139.02 C 49.00 140.09 44.85 140.78 38.00 140.84 C 34.30 140.87 33.15 140.62 34.50 140.09 Z M 60.00 140.12 C 60.00 139.54 58.54 139.36 56.50 139.69 C 54.23 140.06 53.00 139.86 53.00 139.13 C 53.00 138.51 54.46 137.95 56.25 137.89 C 58.04 137.83 60.94 137.61 62.70 137.40 C 64.46 137.20 66.13 137.40 66.40 137.84 C 66.89 138.63 78.19 138.55 79.72 137.74 C 80.15 137.52 82.75 137.44 85.50 137.57 C 92.30 137.90 92.20 137.88 91.52 138.97 C 91.18 139.52 84.72 139.92 76.46 139.91 C 68.51 139.89 61.55 140.16 61.00 140.50 C 60.45 140.84 60.00 140.67 60.00 140.12 Z M 102.39 140.05 C 102.13 139.79 100.02 139.64 97.71 139.72 L 93.50 139.86 L 98.00 138.85 C 100.47 138.30 103.27 137.44 104.20 136.95 C 105.26 136.38 106.14 136.42 106.53 137.05 C 106.87 137.60 107.68 137.99 108.33 137.91 C 110.59 137.63 112.00 138.01 112.00 138.90 C 112.00 139.83 103.22 140.89 102.39 140.05 Z M 112.65 138.53 C 112.22 137.40 112.88 137.09 115.54 137.19 C 119.47 137.34 120.10 138.47 116.75 139.37 C 113.55 140.23 113.28 140.17 112.65 138.53 Z M 120.33 138.59 C 120.33 137.46 121.31 137.13 124.16 137.29 C 128.88 137.55 128.64 139.39 123.84 139.80 C 121.24 140.02 120.33 139.71 120.33 138.59 Z M 51.00 138.00 C 51.00 137.45 51.48 137.00 52.06 137.00 C 52.64 137.00 52.84 137.45 52.50 138.00 C 52.16 138.55 51.68 139.00 51.44 139.00 C 51.20 139.00 51.00 138.55 51.00 138.00 Z M 185.60 67.15 C 187.74 65.58 190.23 63.44 191.12 62.40 C 195.61 57.15 196.05 45.05 191.98 38.47 C 188.94 33.55 182.61 30.09 176.23 29.87 C 161.44 29.34 151.54 46.93 159.26 60.00 C 163.64 67.41 167.69 69.73 176.60 69.90 C 180.73 69.98 182.45 69.45 185.60 67.15 Z M 168.18 59.17 C 161.06 52.51 163.74 40.49 172.91 38.03 C 179.95 36.13 186.05 40.40 187.52 48.24 C 189.49 58.77 175.95 66.43 168.18 59.17 Z" fill="none" stroke="rgba(255,255,255,0.92)" stroke-width="1.5" stroke-linejoin="round" fill-rule="evenodd"/>
</svg>
