<svg xmlns="http://www.w3.org/2000/svg" viewBox="0 0 100 100" width="100" height="100">
  <path d="M 0.00 50.00 L 0.00 0.00 L 50.00 0.00 L 100.00 0.00 L 100.00 50.00 L 100.00 100.00 L 50.00 100.00 L 0.00 100.00 L 0.00 50.00 Z M 10.80 54.50 L 10.50 13.00 L 16.75 12.87 C 20.19 12.81 23.45 12.64 24.00 12.50 C 24.55 12.36 40.98 12.19 60.50 12.12 L 96.00 12.00 L 96.00 8.99 L 96.00 5.98 L 50.75 6.63 C 25.86 6.99 5.43 7.33 5.35 7.39 C 4.86 7.75 4.78 15.63 4.88 53.75 L 5.00 96.00 L 8.05 96.00 L 11.09 96.00 L 10.80 54.50 Z" fill="none" stroke="rgba(255,255,255,0.92)" stroke-width="1.2" stroke-linejoin="round" fill-rule="evenodd"/>
</svg>
