<svg xmlns="http://www.w3.org/2000/svg" viewBox="0 0 100 100" width="100" height="100">
  <path d="M 0.00 50.00 L 0.00 0.00 L 50.00 0.00 L 100.00 0.00 L 100.00 50.00 L 100.00 100.00 L 50.00 100.00 L 0.00 100.00 L 0.00 50.00 Z M 5.29 94.00 C 5.58 92.90 5.40 91.75 4.91 91.44 C 4.41 91.13 4.00 92.03 4.00 93.44 C 4.00 96.51 4.57 96.75 5.29 94.00 Z M 96.00 50.00 L 96.00 4.00 L 50.00 4.00 C 9.71 4.00 4.00 4.19 4.00 5.50 C 4.00 6.83 9.24 6.93 48.34 6.35 L 92.67 5.69 L 93.33 36.59 C 93.70 53.59 94.00 73.91 94.00 81.75 C 94.00 90.58 94.38 96.00 95.00 96.00 C 95.65 96.00 96.00 80.00 96.00 50.00 Z M 4.69 84.25 C 4.44 83.29 4.23 84.08 4.23 86.00 C 4.23 87.92 4.44 88.71 4.69 87.75 C 4.94 86.79 4.94 85.21 4.69 84.25 Z M 66.90 78.44 C 74.58 76.16 82.41 70.84 84.87 66.24 C 89.93 56.79 78.66 36.80 60.02 22.16 C 49.08 13.57 39.16 10.31 33.24 13.38 C 29.46 15.33 24.62 21.36 21.78 27.67 C 20.06 31.50 19.60 34.47 19.55 42.00 C 19.50 50.62 19.79 52.11 22.62 58.09 C 30.79 75.32 49.08 83.73 66.90 78.44 Z M 4.72 71.26 C 4.49 69.74 4.29 70.75 4.29 73.50 C 4.28 76.25 4.47 77.49 4.70 76.26 C 4.94 75.03 4.95 72.78 4.72 71.26 Z M 47.12 72.85 C 39.93 70.78 32.13 64.02 28.25 56.50 C 24.50 49.22 24.01 38.60 27.06 30.50 C 29.77 23.31 34.64 18.00 38.53 18.00 C 50.54 18.00 77.29 43.61 79.94 57.65 C 80.79 62.15 80.66 62.71 78.18 65.38 C 76.71 66.96 72.80 69.54 69.50 71.12 C 64.68 73.43 62.22 73.98 57.00 73.91 C 53.42 73.86 48.98 73.38 47.12 72.85 Z M 4.69 64.27 C 4.44 63.30 4.22 63.85 4.19 65.50 C 4.17 67.15 4.38 67.95 4.66 67.27 C 4.93 66.59 4.95 65.24 4.69 64.27 Z M 4.69 57.27 C 4.44 56.30 4.22 56.85 4.19 58.50 C 4.17 60.15 4.38 60.95 4.66 60.27 C 4.93 59.59 4.95 58.24 4.69 57.27 Z M 4.72 45.75 C 4.50 43.96 4.32 45.42 4.32 49.00 C 4.32 52.58 4.50 54.04 4.72 52.25 C 4.95 50.46 4.95 47.54 4.72 45.75 Z M 4.66 35.75 C 4.38 35.06 4.16 35.62 4.16 37.00 C 4.16 38.38 4.38 38.94 4.66 38.25 C 4.94 37.56 4.94 36.44 4.66 35.75 Z M 4.66 29.75 C 4.38 29.06 4.16 29.62 4.16 31.00 C 4.16 32.38 4.38 32.94 4.66 32.25 C 4.94 31.56 4.94 30.44 4.66 29.75 Z M 4.69 23.27 C 4.44 22.30 4.22 22.85 4.19 24.50 C 4.17 26.15 4.38 26.95 4.66 26.27 C 4.93 25.59 4.95 24.24 4.69 23.27 Z M 4.69 16.27 C 4.44 15.30 4.22 15.85 4.19 17.50 C 4.17 19.15 4.38 19.95 4.66 19.27 C 4.93 18.59 4.95 17.24 4.69 16.27 Z M 4.68 10.81 C 4.36 10.01 4.13 10.25 4.08 11.42 C 4.04 12.47 4.27 13.06 4.60 12.73 C 4.94 12.40 4.97 11.53 4.68 10.81 Z" fill="none" stroke="rgba(255,255,255,0.92)" stroke-width="1.2" stroke-linejoin="round" fill-rule="evenodd"/>
</svg>
