<svg xmlns="http://www.w3.org/2000/svg" viewBox="0 0 100 100" width="100" height="100">
  <path d="M 0.00 50.00 L 0.00 0.00 L 50.00 0.00 L 100.00 0.00 L 100.00 50.00 L 100.00 100.00 L 50.00 100.00 L 0.00 100.00 L 0.00 50.00 Z M 7.50 94.00 C 7.84 93.45 7.44 93.00 6.62 93.00 C 5.79 93.00 4.84 93.45 4.50 94.00 C 4.16 94.55 4.56 95.00 5.38 95.00 C 6.21 95.00 7.16 94.55 7.50 94.00 Z M 68.51 93.99 C 68.80 93.52 66.22 93.30 62.77 93.51 C 57.87 93.80 56.92 93.64 58.43 92.79 C 60.45 91.65 75.44 91.54 77.25 92.66 C 77.88 93.05 78.01 92.83 77.57 92.11 C 76.88 90.99 79.29 91.17 83.80 92.57 C 84.52 92.79 84.89 92.63 84.63 92.21 C 84.37 91.79 86.82 91.55 90.08 91.68 L 96.00 91.92 L 95.86 88.71 C 95.77 86.42 95.60 86.14 95.30 87.71 L 94.87 89.93 L 51.48 89.98 C 27.44 90.01 7.07 90.44 5.80 90.95 C 3.71 91.79 3.82 91.89 7.00 92.02 C 8.93 92.09 13.42 92.09 16.99 92.00 C 25.39 91.80 24.41 92.79 15.53 93.47 C 1.68 94.53 8.41 94.97 37.84 94.91 C 54.41 94.88 68.21 94.46 68.51 93.99 Z M 75.00 94.00 C 76.33 93.14 76.33 93.04 75.00 93.11 C 74.17 93.16 72.38 93.56 71.00 94.00 L 68.50 94.80 L 71.00 94.89 C 72.38 94.93 74.17 94.53 75.00 94.00 Z M 82.50 94.00 C 83.21 92.85 81.59 92.85 78.00 94.00 C 75.61 94.76 75.64 94.81 78.69 94.90 C 80.45 94.96 82.16 94.55 82.50 94.00 Z M 95.47 94.05 C 96.13 92.98 86.84 92.84 85.16 93.90 C 84.33 94.41 85.97 94.75 89.40 94.79 C 92.47 94.81 95.20 94.48 95.47 94.05 Z M 24.50 93.03 C 27.03 91.91 31.28 91.74 30.63 92.79 C 30.36 93.23 28.42 93.66 26.32 93.75 C 23.35 93.87 22.94 93.71 24.50 93.03 Z M 37.00 92.79 C 37.00 92.38 39.67 92.08 42.92 92.13 C 46.18 92.18 49.26 91.96 49.76 91.65 C 50.26 91.34 51.98 91.48 53.59 91.96 C 57.03 92.99 56.15 93.13 44.75 93.37 C 40.49 93.46 37.00 93.20 37.00 92.79 Z M 33.81 92.32 C 34.53 92.03 35.40 92.06 35.73 92.40 C 36.06 92.73 35.47 92.96 34.42 92.92 C 33.25 92.87 33.01 92.64 33.81 92.32 Z M 4.97 79.50 L 4.33 71.50 L 4.20 81.00 C 4.12 86.22 4.41 89.83 4.84 89.00 C 5.26 88.17 5.32 83.90 4.97 79.50 Z M 95.73 70.72 C 95.52 68.40 95.35 70.55 95.35 75.50 C 95.36 80.45 95.53 82.35 95.74 79.72 C 95.94 77.09 95.94 73.04 95.73 70.72 Z M 62.57 72.06 C 75.13 67.64 83.93 57.76 86.55 45.13 C 89.12 32.72 86.02 28.30 71.50 23.73 C 62.09 20.78 38.78 20.57 29.50 23.37 C 15.99 27.44 11.30 32.41 12.37 41.49 C 14.02 55.54 23.74 67.42 37.50 72.20 C 44.37 74.58 55.57 74.52 62.57 72.06 Z M 4.99 63.00 L 4.28 57.50 L 4.14 63.95 C 4.06 67.56 4.37 69.98 4.85 69.45 C 5.32 68.93 5.38 66.03 4.99 63.00 Z M 44.22 67.83 C 33.84 66.21 25.75 59.88 20.88 49.58 C 16.86 41.08 17.02 36.95 21.54 33.23 C 31.18 25.28 66.38 24.71 77.78 32.31 C 81.85 35.03 82.48 37.36 81.04 44.31 C 77.76 60.09 61.43 70.53 44.22 67.83 Z M 96.00 35.83 C 96.00 19.79 95.69 6.97 95.32 7.35 C 94.94 7.73 94.70 12.87 94.79 18.77 C 94.88 24.67 94.97 37.49 94.98 47.25 C 94.99 57.01 95.22 65.00 95.50 65.00 C 95.78 65.00 96.00 51.88 96.00 35.83 Z M 4.66 52.75 C 4.38 52.06 4.16 52.62 4.16 54.00 C 4.16 55.38 4.38 55.94 4.66 55.25 C 4.94 54.56 4.94 53.44 4.66 52.75 Z M 4.69 46.25 C 4.44 45.29 4.23 46.08 4.23 48.00 C 4.23 49.92 4.44 50.71 4.69 49.75 C 4.94 48.79 4.94 47.21 4.69 46.25 Z M 4.68 40.81 C 4.36 40.01 4.13 40.25 4.08 41.42 C 4.04 42.47 4.27 43.06 4.60 42.73 C 4.94 42.40 4.97 41.53 4.68 40.81 Z M 4.72 31.26 C 4.49 29.74 4.29 30.75 4.29 33.50 C 4.28 36.25 4.47 37.49 4.70 36.26 C 4.94 35.03 4.95 32.78 4.72 31.26 Z M 4.71 21.76 C 4.47 20.52 4.26 21.30 4.25 23.50 C 4.24 25.70 4.44 26.72 4.69 25.76 C 4.94 24.81 4.95 23.01 4.71 21.76 Z M 8.75 4.31 C 7.79 4.06 6.21 4.06 5.25 4.31 C 4.29 4.56 5.08 4.77 7.00 4.77 C 8.93 4.77 9.71 4.56 8.75 4.31 Z M 16.27 4.34 C 15.59 4.07 14.24 4.05 13.27 4.31 C 12.30 4.56 12.85 4.78 14.50 4.81 C 16.15 4.83 16.95 4.62 16.27 4.34 Z" fill="none" stroke="rgba(255,255,255,0.92)" stroke-width="1.2" stroke-linejoin="round" fill-rule="evenodd"/>
</svg>
