<svg xmlns="http://www.w3.org/2000/svg" viewBox="0 0 100 100" width="100" height="100">
  <path d="M 0.00 50.00 L 0.00 0.00 L 50.00 0.00 L 100.00 0.00 L 100.00 50.00 L 100.00 100.00 L 50.00 100.00 L 0.00 100.00 L 0.00 50.00 Z M 96.00 50.00 L 96.00 4.00 L 92.87 4.00 L 89.74 4.00 L 90.12 50.00 L 90.50 95.99 L 93.25 96.00 L 96.00 96.00 L 96.00 50.00 Z M 65.89 93.09 C 67.06 92.35 67.19 85.21 66.68 48.35 C 66.34 24.23 66.05 4.39 66.04 4.25 C 66.02 4.11 52.05 4.00 35.00 4.00 L 4.00 4.00 L 4.00 48.48 L 4.00 92.97 L 29.25 93.25 C 43.14 93.41 56.75 93.63 59.50 93.75 C 62.25 93.87 65.13 93.57 65.89 93.09 Z M 24.41 87.25 L 9.32 86.95 L 8.66 66.72 C 8.30 55.60 8.00 37.39 8.00 26.25 L 8.00 6.00 L 33.94 6.00 C 48.21 6.00 60.11 6.36 60.38 6.81 C 60.76 7.43 61.39 80.63 61.07 86.75 C 61.02 87.68 58.27 87.94 50.25 87.78 C 44.34 87.66 32.71 87.42 24.41 87.25 Z M 57.65 58.34 C 57.29 52.48 57.00 42.33 57.00 35.78 L 57.00 23.87 L 54.25 24.18 C 52.36 24.40 51.54 25.04 51.62 26.25 C 51.69 27.21 51.81 37.22 51.88 48.50 L 52.00 69.00 L 55.15 69.00 L 58.30 69.00 L 57.65 58.34 Z" fill="none" stroke="rgba(255,255,255,0.92)" stroke-width="1.2" stroke-linejoin="round" fill-rule="evenodd"/>
</svg>
