<svg xmlns="http://www.w3.org/2000/svg" viewBox="0 0 400 285" width="400" height="285">
  <path d="M 0.00 142.50 L 0.00 0.00 L 200.00 0.00 L 400.00 0.00 L 400.00 142.50 L 400.00 285.00 L 200.00 285.00 L 0.00 285.00 L 0.00 142.50 Z M 81.50 278.59 C 204.49 277.39 248.36 276.87 257.50 276.49 C 268.39 276.03 302.78 275.32 357.50 274.44 C 378.34 274.10 392.90 273.47 393.50 272.89 C 394.43 271.97 394.79 7.20 393.86 6.70 C 393.66 6.59 383.82 6.73 372.00 7.00 C 360.18 7.28 282.33 7.64 199.00 7.80 C 115.67 7.96 42.10 8.33 35.50 8.62 C 28.90 8.90 22.82 9.11 22.00 9.07 C 15.25 8.79 8.33 9.29 7.50 10.11 C 6.89 10.72 6.57 18.09 6.68 28.80 C 6.78 38.54 7.10 72.15 7.40 103.50 C 7.70 134.85 8.20 174.22 8.52 191.00 C 8.85 207.78 9.27 232.97 9.48 247.00 C 9.68 261.02 9.88 274.22 9.92 276.33 L 10.00 280.16 L 23.25 279.59 C 30.54 279.28 56.75 278.83 81.50 278.59 Z M 14.32 276.34 C 16.03 275.86 16.03 275.75 14.44 274.58 C 12.83 273.41 12.84 273.18 14.45 270.71 C 16.25 267.97 15.62 264.55 13.80 267.14 C 13.15 268.06 13.00 267.11 13.33 264.25 C 13.59 261.91 13.40 260.00 12.90 260.00 C 12.41 260.00 12.00 259.56 12.00 259.03 C 12.00 258.50 12.75 258.35 13.66 258.70 C 15.04 259.23 15.19 258.92 14.54 256.92 C 13.51 253.72 13.78 247.75 14.99 247.01 C 15.51 246.68 15.67 244.72 15.33 242.65 C 14.68 238.66 13.47 238.83 12.72 243.00 C 12.32 245.23 12.26 245.18 12.18 242.50 C 12.13 240.85 12.78 237.70 13.63 235.50 C 15.26 231.29 16.22 206.00 14.75 206.00 C 14.34 206.00 14.00 208.65 14.00 211.89 C 14.00 216.21 13.60 217.94 12.50 218.36 C 10.73 219.04 10.44 215.91 12.00 212.99 C 12.64 211.80 12.66 210.91 12.04 210.52 C 11.04 209.91 10.72 197.82 11.62 194.75 C 12.33 192.33 14.00 192.55 14.00 195.06 C 14.00 196.19 14.36 196.89 14.80 196.62 C 15.24 196.35 15.48 185.77 15.32 173.11 C 15.17 160.45 15.37 149.89 15.78 149.64 C 17.84 148.36 94.29 147.51 117.00 148.50 C 120.58 148.66 126.02 148.84 129.10 148.90 L 134.70 149.00 L 134.95 197.75 C 135.08 224.56 135.36 249.20 135.56 252.50 C 135.77 255.80 136.10 261.31 136.31 264.75 L 136.69 271.00 L 133.60 271.02 C 131.89 271.03 112.05 271.25 89.50 271.51 C 53.17 271.93 48.36 272.17 47.30 273.61 C 45.90 275.51 36.26 277.01 37.41 275.15 C 37.80 274.52 39.41 274.00 41.00 274.00 C 42.59 274.00 44.16 273.55 44.50 273.00 C 45.78 270.92 38.15 272.00 35.33 274.30 C 32.83 276.33 31.33 276.61 22.50 276.72 C 17.00 276.79 13.32 276.62 14.32 276.34 Z M 49.00 275.11 C 49.00 274.62 49.71 273.94 50.58 273.61 C 52.82 272.75 53.00 272.82 53.00 274.50 C 53.00 275.33 52.11 276.00 51.00 276.00 C 49.90 276.00 49.00 275.60 49.00 275.11 Z M 54.00 274.50 C 54.00 273.68 54.18 273.00 54.39 273.00 C 54.61 273.00 55.05 273.68 55.36 274.50 C 55.68 275.32 55.50 276.00 54.97 276.00 C 54.44 276.00 54.00 275.32 54.00 274.50 Z M 66.50 275.00 C 66.14 274.42 67.07 274.01 68.69 274.02 C 70.87 274.03 71.16 274.25 70.00 275.00 C 68.08 276.24 67.27 276.24 66.50 275.00 Z M 85.21 274.88 C 81.80 273.62 82.57 273.00 87.56 273.00 C 90.07 273.00 91.87 273.40 91.57 273.88 C 90.71 275.28 87.61 275.77 85.21 274.88 Z M 96.27 275.31 C 97.24 275.05 98.59 275.07 99.27 275.34 C 99.95 275.62 99.15 275.83 97.50 275.81 C 95.85 275.78 95.30 275.56 96.27 275.31 Z M 105.00 274.83 C 96.05 273.43 96.85 273.12 109.16 273.20 C 115.58 273.24 121.43 273.66 122.16 274.12 C 122.90 274.59 123.28 275.03 123.00 275.10 C 120.78 275.70 109.45 275.53 105.00 274.83 Z M 158.00 274.94 C 158.00 274.38 159.14 274.25 160.65 274.63 C 162.35 275.05 163.07 274.93 162.67 274.27 C 162.31 273.69 163.43 272.96 165.26 272.60 C 167.03 272.24 168.60 272.31 168.75 272.75 C 168.90 273.19 170.81 273.38 173.01 273.17 C 175.49 272.93 177.00 273.21 177.00 273.89 C 177.00 274.50 175.76 275.06 174.25 275.13 C 172.74 275.20 168.46 275.40 164.75 275.59 C 160.80 275.78 158.00 275.51 158.00 274.94 Z M 34.40 272.94 C 34.89 272.48 32.86 272.13 29.90 272.15 C 23.70 272.20 20.77 272.81 21.44 273.91 C 22.05 274.88 33.20 274.05 34.40 272.94 Z M 74.50 274.00 C 74.16 273.45 74.61 273.00 75.50 273.00 C 76.39 273.00 76.84 273.45 76.50 274.00 C 76.16 274.55 75.71 275.00 75.50 275.00 C 75.29 275.00 74.84 274.55 74.50 274.00 Z M 80.00 274.00 C 80.00 273.45 80.45 273.00 81.00 273.00 C 81.55 273.00 82.00 273.45 82.00 274.00 C 82.00 274.55 81.55 275.00 81.00 275.00 C 80.45 275.00 80.00 274.55 80.00 274.00 Z M 127.50 274.00 C 127.84 273.45 128.74 273.00 129.50 273.00 C 130.26 273.00 131.16 273.45 131.50 274.00 C 131.85 274.57 130.99 275.00 129.50 275.00 C 128.01 275.00 127.15 274.57 127.50 274.00 Z M 152.00 274.25 C 152.00 273.84 153.13 273.44 154.50 273.36 C 155.88 273.28 157.00 273.61 157.00 274.11 C 157.00 274.60 155.88 275.00 154.50 275.00 C 153.12 275.00 152.00 274.66 152.00 274.25 Z M 181.50 274.00 C 177.94 273.36 178.22 273.28 184.00 273.21 C 188.46 273.16 189.87 273.41 188.50 274.00 C 187.40 274.47 186.28 274.83 186.00 274.79 C 185.72 274.75 183.70 274.39 181.50 274.00 Z M 228.50 273.00 C 226.90 272.31 227.27 272.13 230.31 272.07 C 232.61 272.03 233.87 272.40 233.50 273.00 C 232.77 274.18 231.25 274.18 228.50 273.00 Z M 237.00 273.00 C 237.00 272.45 238.12 272.00 239.50 272.00 C 240.88 272.00 242.00 272.45 242.00 273.00 C 242.00 273.55 240.88 274.00 239.50 274.00 C 238.12 274.00 237.00 273.55 237.00 273.00 Z M 247.44 272.97 C 242.10 272.01 247.24 271.18 253.54 271.98 C 256.82 272.40 258.82 272.83 258.00 272.95 C 254.37 273.45 250.15 273.46 247.44 272.97 Z M 270.00 273.00 C 270.00 272.45 270.45 272.00 271.00 272.00 C 271.55 272.00 272.00 272.45 272.00 273.00 C 272.00 273.55 271.55 274.00 271.00 274.00 C 270.45 274.00 270.00 273.55 270.00 273.00 Z M 215.75 272.34 C 216.44 272.06 217.56 272.06 218.25 272.34 C 218.94 272.62 218.38 272.84 217.00 272.84 C 215.62 272.84 215.06 272.62 215.75 272.34 Z M 222.27 272.31 C 223.24 272.05 224.59 272.07 225.27 272.34 C 225.95 272.62 225.15 272.83 223.50 272.81 C 221.85 272.78 221.30 272.56 222.27 272.31 Z M 275.00 272.00 C 275.00 271.45 276.24 271.03 277.75 271.07 C 280.19 271.13 280.27 271.24 278.50 272.00 C 275.77 273.17 275.00 273.17 275.00 272.00 Z M 296.00 272.00 C 296.00 271.45 297.01 271.01 298.25 271.02 C 300.07 271.03 300.21 271.22 299.00 272.00 C 297.06 273.25 296.00 273.25 296.00 272.00 Z M 307.00 272.00 C 307.00 271.45 308.01 271.01 309.25 271.02 C 311.07 271.03 311.21 271.22 310.00 272.00 C 308.06 273.25 307.00 273.25 307.00 272.00 Z M 143.48 270.97 C 143.14 270.41 142.04 215.62 141.54 173.66 C 141.25 149.77 141.31 148.85 143.12 149.32 C 144.15 149.59 145.27 149.37 145.61 148.83 C 145.94 148.28 147.38 148.13 148.79 148.48 C 152.16 149.33 249.62 149.25 256.05 148.40 L 261.00 147.74 L 261.00 208.29 L 261.00 268.84 L 258.25 269.38 C 256.74 269.68 235.25 270.21 210.50 270.56 C 185.75 270.91 160.62 271.26 154.65 271.35 C 148.69 271.43 143.66 271.26 143.48 270.97 Z M 283.75 271.34 C 284.44 271.06 285.56 271.06 286.25 271.34 C 286.94 271.62 286.38 271.84 285.00 271.84 C 283.62 271.84 283.06 271.62 283.75 271.34 Z M 302.50 271.00 C 302.84 270.45 303.54 270.00 304.06 270.00 C 304.58 270.00 305.00 270.45 305.00 271.00 C 305.00 271.55 304.30 272.00 303.44 272.00 C 302.58 272.00 302.16 271.55 302.50 271.00 Z M 311.50 271.00 C 311.16 270.45 311.33 270.00 311.88 270.00 C 312.43 270.00 313.16 270.45 313.50 271.00 C 313.84 271.55 313.67 272.00 313.12 272.00 C 312.57 272.00 311.84 271.55 311.50 271.00 Z M 320.00 271.00 C 318.93 270.31 319.93 270.05 323.50 270.11 C 327.49 270.18 327.99 270.36 326.00 271.00 C 322.53 272.11 321.72 272.11 320.00 271.00 Z M 380.50 271.00 C 380.16 270.45 380.36 270.00 380.94 270.00 C 381.52 270.00 382.00 270.45 382.00 271.00 C 382.00 271.55 381.80 272.00 381.56 272.00 C 381.32 272.00 380.84 271.55 380.50 271.00 Z M 334.08 270.58 C 334.82 269.85 345.95 269.61 346.65 270.32 C 347.03 270.69 344.26 271.00 340.50 271.00 C 336.74 271.00 333.85 270.81 334.08 270.58 Z M 351.75 270.28 C 353.54 270.05 356.46 270.05 358.25 270.28 C 360.04 270.50 358.57 270.68 355.00 270.68 C 351.43 270.68 349.96 270.50 351.75 270.28 Z M 370.81 270.32 C 371.53 270.03 372.40 270.06 372.73 270.40 C 373.06 270.73 372.47 270.96 371.42 270.92 C 370.25 270.87 370.01 270.64 370.81 270.32 Z M 268.66 266.25 C 268.32 264.16 268.03 236.70 268.02 205.22 L 267.99 148.00 L 274.74 147.91 C 278.46 147.86 286.00 147.60 291.50 147.33 C 297.00 147.06 302.40 146.85 303.50 146.86 C 304.60 146.87 323.84 146.93 346.25 147.01 L 387.00 147.15 L 387.05 151.82 C 387.39 186.56 386.86 265.53 386.27 266.07 C 385.56 266.73 374.57 267.05 299.50 268.58 C 284.65 268.88 271.77 269.34 270.88 269.59 C 269.66 269.94 269.12 269.12 268.66 266.25 Z M 264.64 261.50 C 264.95 260.68 265.39 260.00 265.61 260.00 C 265.82 260.00 266.00 260.68 266.00 261.50 C 266.00 262.32 265.56 263.00 265.03 263.00 C 264.50 263.00 264.32 262.32 264.64 261.50 Z M 139.02 252.31 C 139.02 251.86 139.47 250.82 140.00 250.00 C 140.84 248.71 140.97 248.73 140.98 250.19 C 140.99 251.12 140.55 252.16 140.00 252.50 C 139.45 252.84 139.01 252.75 139.02 252.31 Z M 264.02 249.25 C 264.01 246.91 264.45 245.00 265.00 245.00 C 266.28 245.00 266.28 250.03 265.00 252.00 C 264.29 253.10 264.03 252.36 264.02 249.25 Z M 140.16 246.00 C 140.16 244.62 140.38 244.06 140.66 244.75 C 140.94 245.44 140.94 246.56 140.66 247.25 C 140.38 247.94 140.16 247.38 140.16 246.00 Z M 140.00 239.50 C 140.00 238.12 139.59 237.00 139.09 237.00 C 138.58 237.00 138.70 235.58 139.34 233.84 C 140.25 231.37 140.23 230.59 139.25 230.26 C 137.58 229.69 137.67 228.18 139.50 226.36 C 140.83 225.02 141.00 225.81 141.00 233.43 C 141.00 238.14 140.78 242.00 140.50 242.00 C 140.22 242.00 140.00 240.88 140.00 239.50 Z M 264.48 232.02 C 264.71 228.95 265.70 228.64 266.24 231.46 C 266.54 233.03 266.27 234.00 265.53 234.00 C 264.87 234.00 264.40 233.11 264.48 232.02 Z M 11.54 230.81 C 10.71 228.39 11.49 221.67 12.63 221.29 C 13.38 221.04 13.77 222.64 13.77 225.97 C 13.77 230.80 12.48 233.59 11.54 230.81 Z M 390.07 223.75 C 390.03 221.69 390.45 220.00 391.00 220.00 C 392.19 220.00 392.19 222.72 391.00 225.50 C 390.31 227.10 390.13 226.76 390.07 223.75 Z M 138.08 221.42 C 138.13 220.25 138.36 220.01 138.68 220.81 C 138.97 221.53 138.94 222.40 138.60 222.73 C 138.27 223.06 138.04 222.47 138.08 221.42 Z M 138.68 217.60 C 138.11 216.13 138.76 215.00 140.17 215.00 C 140.62 215.00 141.00 215.90 141.00 217.00 C 141.00 219.29 139.48 219.68 138.68 217.60 Z M 391.08 213.42 C 391.13 212.25 391.36 212.01 391.68 212.81 C 391.97 213.53 391.94 214.40 391.60 214.73 C 391.27 215.06 391.04 214.47 391.08 213.42 Z M 138.55 211.74 C 139.63 208.17 141.00 207.30 141.00 210.19 C 141.00 211.62 140.30 213.06 139.43 213.39 C 138.20 213.86 138.01 213.52 138.55 211.74 Z M 390.20 204.50 C 390.20 202.57 390.61 201.00 391.10 201.00 C 391.59 201.00 392.00 202.57 392.00 204.50 C 392.00 206.43 391.59 208.00 391.10 208.00 C 390.61 208.00 390.20 206.43 390.20 204.50 Z M 15.00 200.30 C 15.00 198.29 14.71 197.89 13.87 198.73 C 13.24 199.36 13.01 200.57 13.34 201.43 C 14.25 203.82 15.00 203.31 15.00 200.30 Z M 138.84 200.25 C 138.36 194.83 138.43 192.29 139.11 190.50 C 139.59 189.24 139.90 191.01 139.94 195.25 C 139.97 198.96 139.78 202.00 139.50 202.00 C 139.22 202.00 138.93 201.21 138.84 200.25 Z M 390.07 193.25 C 390.11 191.74 390.51 189.60 390.96 188.50 C 391.54 187.09 391.75 187.91 391.64 191.25 C 391.56 193.86 391.16 196.00 390.75 196.00 C 390.34 196.00 390.03 194.76 390.07 193.25 Z M 12.67 190.33 C 11.64 189.31 11.88 185.19 13.00 184.50 C 13.60 184.13 14.00 185.32 14.00 187.44 C 14.00 191.10 13.82 191.49 12.67 190.33 Z M 390.07 183.75 C 390.03 182.24 390.45 181.00 391.00 181.00 C 392.17 181.00 392.17 181.77 391.00 184.50 C 390.24 186.27 390.13 186.19 390.07 183.75 Z M 11.91 183.00 C 11.84 182.18 11.66 177.93 11.52 173.57 C 11.30 166.67 11.45 165.89 12.63 167.52 C 14.21 169.67 14.47 180.72 13.00 183.00 C 12.14 184.33 12.02 184.33 11.91 183.00 Z M 138.67 182.33 C 137.63 181.30 137.88 178.00 139.00 178.00 C 139.55 178.00 140.00 179.12 140.00 180.50 C 140.00 183.12 139.77 183.44 138.67 182.33 Z M 265.08 180.42 C 265.13 179.25 265.36 179.01 265.68 179.81 C 265.97 180.53 265.94 181.40 265.60 181.73 C 265.27 182.06 265.04 181.47 265.08 180.42 Z M 390.67 178.33 C 389.63 177.30 389.88 174.00 391.00 174.00 C 391.55 174.00 392.00 174.41 392.00 174.92 C 392.00 175.42 392.27 176.55 392.61 177.42 C 393.21 179.00 391.93 179.60 390.67 178.33 Z M 264.58 177.13 C 264.15 176.44 264.07 175.60 264.40 175.27 C 265.29 174.37 266.27 175.69 265.79 177.14 C 265.45 178.15 265.21 178.15 264.58 177.13 Z M 138.15 173.34 C 137.41 172.53 137.08 171.59 137.42 171.25 C 138.25 170.41 140.32 172.58 139.86 173.81 C 139.66 174.36 138.89 174.14 138.15 173.34 Z M 137.25 161.50 C 137.26 159.30 137.47 158.52 137.71 159.76 C 137.95 161.01 137.94 162.81 137.69 163.76 C 137.44 164.72 137.24 163.70 137.25 161.50 Z M 139.16 163.00 C 139.16 161.62 139.38 161.06 139.66 161.75 C 139.94 162.44 139.94 163.56 139.66 164.25 C 139.38 164.94 139.16 164.38 139.16 163.00 Z M 263.82 160.00 C 263.54 157.53 263.62 154.88 264.01 154.12 C 265.17 151.88 265.99 157.01 265.11 161.00 L 264.34 164.50 L 263.82 160.00 Z M 12.00 158.62 C 12.00 157.79 12.45 156.84 13.00 156.50 C 13.55 156.16 14.00 156.56 14.00 157.38 C 14.00 158.21 13.55 159.16 13.00 159.50 C 12.45 159.84 12.00 159.44 12.00 158.62 Z M 10.16 157.00 C 10.16 155.62 10.38 155.06 10.66 155.75 C 10.94 156.44 10.94 157.56 10.66 158.25 C 10.38 158.94 10.16 158.38 10.16 157.00 Z M 11.12 153.70 C 11.05 152.71 11.70 150.54 12.56 148.88 C 13.42 147.22 13.92 145.33 13.67 144.68 C 13.43 144.03 12.49 145.07 11.58 147.00 L 9.94 150.50 L 10.60 146.01 C 10.96 143.53 11.99 140.83 12.88 140.01 C 14.22 138.76 14.52 136.02 14.59 124.25 C 14.64 116.41 14.42 110.00 14.09 110.00 C 13.77 110.00 13.72 101.79 14.00 91.75 C 14.63 68.63 13.76 19.42 12.70 18.36 C 12.25 17.92 11.44 18.22 10.89 19.03 C 10.09 20.21 9.95 20.11 10.21 18.50 C 10.62 15.95 7.59 16.07 76.82 15.77 L 133.14 15.52 L 133.10 32.47 C 133.06 51.97 133.40 54.33 136.12 53.46 C 139.67 52.33 137.99 53.76 132.50 56.55 C 129.47 58.08 126.78 59.12 126.53 58.86 C 126.27 58.60 126.54 56.61 127.14 54.44 C 128.74 48.65 127.49 39.33 124.49 34.80 C 121.72 30.62 113.74 26.00 109.28 26.00 C 105.53 26.00 91.23 28.74 87.50 30.17 C 85.85 30.80 83.26 32.45 81.76 33.84 C 80.13 35.34 77.30 36.60 74.81 36.93 C 71.24 37.42 69.96 38.30 66.20 42.92 C 62.43 47.55 61.87 48.81 62.33 51.67 C 62.72 54.03 62.49 55.00 61.55 55.00 C 60.83 55.00 58.63 56.77 56.67 58.94 C 50.67 65.58 48.57 71.17 51.12 73.72 C 51.94 74.54 51.52 75.76 49.54 78.36 C 45.46 83.70 42.93 91.38 42.88 98.55 C 42.81 107.56 43.53 109.34 46.99 108.65 L 49.77 108.10 L 50.47 116.49 C 50.86 121.11 50.90 125.74 50.57 126.79 C 49.05 131.58 59.42 137.89 66.59 136.55 C 69.07 136.08 72.02 134.20 75.63 130.78 C 78.59 127.99 81.00 126.20 81.00 126.80 C 81.00 127.39 80.58 128.14 80.06 128.46 C 78.88 129.19 76.00 134.91 76.00 136.53 C 76.00 137.21 77.01 138.46 78.25 139.33 C 80.40 140.82 80.20 140.90 74.00 140.96 C 70.42 141.00 66.83 141.47 66.00 142.00 C 64.96 142.67 66.96 142.97 72.47 142.98 C 79.62 143.00 80.24 143.15 78.43 144.41 C 77.11 145.34 74.58 145.70 71.06 145.46 C 68.11 145.26 64.89 145.52 63.90 146.05 C 62.59 146.76 61.88 146.60 61.25 145.48 C 60.48 144.11 59.95 144.11 56.07 145.48 C 50.86 147.31 50.94 147.31 51.25 145.75 C 51.50 144.50 50.66 144.40 46.09 145.12 C 44.76 145.33 43.50 144.94 43.26 144.25 C 42.95 143.35 44.39 143.00 48.42 143.00 C 51.49 143.00 54.00 142.55 54.00 142.00 C 54.00 141.36 48.89 141.19 39.75 141.52 C 23.46 142.10 18.00 142.76 18.00 144.15 C 18.00 144.68 17.55 144.84 17.00 144.50 C 16.45 144.16 16.00 144.40 16.00 145.04 C 16.00 145.67 15.15 147.39 14.12 148.85 C 13.08 150.31 12.01 152.40 11.73 153.50 C 11.31 155.21 11.21 155.23 11.12 153.70 Z M 137.16 152.00 C 137.16 150.62 137.38 150.06 137.66 150.75 C 137.94 151.44 137.94 152.56 137.66 153.25 C 137.38 153.94 137.16 153.38 137.16 152.00 Z M 263.64 150.50 C 262.75 148.18 262.81 148.00 264.50 148.00 C 266.18 148.00 266.37 148.86 265.12 150.83 C 264.45 151.90 264.15 151.83 263.64 150.50 Z M 135.67 148.58 C 135.37 147.80 135.77 146.92 136.56 146.61 C 137.39 146.30 138.00 146.66 138.00 147.47 C 138.00 149.47 136.32 150.27 135.67 148.58 Z M 88.38 145.46 C 88.87 144.18 88.37 144.03 85.48 144.57 C 83.20 145.00 82.00 144.84 82.00 144.11 C 82.00 143.43 84.13 143.00 87.50 143.00 C 93.35 143.00 94.05 143.48 91.25 145.61 C 88.89 147.40 87.66 147.33 88.38 145.46 Z M 122.81 146.32 C 123.53 146.03 124.40 146.06 124.73 146.40 C 125.06 146.73 124.47 146.96 123.42 146.92 C 122.25 146.87 122.01 146.64 122.81 146.32 Z M 130.00 145.50 C 131.33 143.90 134.50 143.38 133.55 144.91 C 133.24 145.42 133.55 146.06 134.24 146.34 C 134.93 146.61 133.98 146.88 132.13 146.92 C 129.24 146.99 128.93 146.78 130.00 145.50 Z M 140.00 145.44 C 140.00 144.58 140.45 144.16 141.00 144.50 C 141.55 144.84 142.00 145.54 142.00 146.06 C 142.00 146.58 141.55 147.00 141.00 147.00 C 140.45 147.00 140.00 146.30 140.00 145.44 Z M 79.81 145.32 C 80.53 145.03 81.40 145.06 81.73 145.40 C 82.06 145.73 81.47 145.96 80.42 145.92 C 79.25 145.87 79.01 145.64 79.81 145.32 Z M 117.50 144.66 C 124.87 141.15 131.24 131.26 132.56 121.25 C 132.95 118.36 133.66 116.00 134.16 116.00 C 135.10 116.00 134.36 139.61 133.36 141.22 C 133.05 141.73 131.38 142.06 129.65 141.97 C 124.82 141.71 123.83 141.91 124.51 143.02 C 124.86 143.58 125.53 143.79 126.00 143.50 C 126.47 143.21 127.15 143.43 127.49 143.99 C 127.88 144.61 126.82 144.98 124.81 144.94 C 122.99 144.91 119.92 145.15 118.00 145.48 L 114.50 146.08 L 117.50 144.66 Z M 276.08 144.77 C 276.01 143.30 276.93 143.06 282.25 143.15 C 287.32 143.23 288.03 143.42 286.00 144.18 C 284.62 144.70 282.08 144.86 280.34 144.53 C 278.25 144.14 277.01 144.37 276.67 145.22 C 276.35 146.03 276.13 145.86 276.08 144.77 Z M 288.00 145.00 C 289.97 143.73 292.29 143.73 291.50 145.00 C 291.16 145.55 289.90 145.99 288.69 145.98 C 286.91 145.97 286.78 145.79 288.00 145.00 Z M 296.50 145.00 C 296.16 144.45 296.33 144.00 296.88 144.00 C 297.43 144.00 298.16 144.45 298.50 145.00 C 298.84 145.55 298.67 146.00 298.12 146.00 C 297.57 146.00 296.84 145.55 296.50 145.00 Z M 135.23 143.81 C 135.73 142.32 138.00 141.50 138.00 142.81 C 138.00 143.35 137.29 144.06 136.42 144.39 C 135.44 144.77 134.99 144.54 135.23 143.81 Z M 153.25 144.31 C 154.21 144.06 155.79 144.06 156.75 144.31 C 157.71 144.56 156.93 144.77 155.00 144.77 C 153.07 144.77 152.29 144.56 153.25 144.31 Z M 161.75 144.34 C 162.44 144.06 163.56 144.06 164.25 144.34 C 164.94 144.62 164.38 144.84 163.00 144.84 C 161.62 144.84 161.06 144.62 161.75 144.34 Z M 200.81 144.32 C 201.53 144.03 202.40 144.06 202.73 144.40 C 203.06 144.73 202.47 144.96 201.42 144.92 C 200.25 144.87 200.01 144.64 200.81 144.32 Z M 249.48 144.04 C 249.83 143.47 251.29 143.00 252.73 143.00 C 255.86 143.00 255.50 143.48 251.67 144.40 C 249.81 144.85 249.05 144.72 249.48 144.04 Z M 318.00 143.59 C 318.00 142.66 318.70 142.37 320.08 142.73 C 321.67 143.15 321.85 143.48 320.83 144.12 C 318.89 145.36 318.00 145.19 318.00 143.59 Z M 338.86 143.89 C 337.94 143.31 338.54 143.03 340.75 143.02 C 342.54 143.01 344.00 143.17 344.00 143.38 C 344.00 144.29 340.10 144.68 338.86 143.89 Z M 34.81 143.32 C 35.53 143.03 36.40 143.06 36.73 143.40 C 37.06 143.73 36.47 143.96 35.42 143.92 C 34.25 143.87 34.01 143.64 34.81 143.32 Z M 141.21 136.79 C 141.47 130.25 141.71 129.53 143.76 129.04 C 150.03 127.54 156.08 119.30 156.18 112.14 C 156.22 108.90 156.65 108.19 159.12 107.26 C 161.18 106.48 162.19 105.28 162.63 103.08 C 163.43 99.11 164.11 99.20 166.47 103.58 C 167.53 105.54 170.99 109.55 174.16 112.49 C 193.62 130.51 225.19 124.11 236.78 99.80 C 238.28 96.67 239.74 94.08 240.04 94.05 C 240.34 94.02 241.13 96.05 241.80 98.56 C 242.47 101.06 244.14 104.23 245.51 105.60 C 247.18 107.27 248.00 109.20 248.00 111.47 C 248.00 116.88 257.41 126.00 262.98 126.00 C 264.09 126.00 265.00 126.51 265.00 127.13 C 265.00 128.71 268.45 131.54 274.79 135.16 C 279.39 137.80 280.53 138.08 282.64 137.12 C 284.65 136.20 285.57 136.32 287.52 137.75 C 291.26 140.46 290.49 141.22 284.25 140.91 C 273.47 140.39 268.17 140.90 267.82 142.47 C 267.59 143.54 267.09 143.68 266.00 142.95 C 264.70 142.09 264.75 141.77 266.37 140.53 C 267.85 139.40 268.10 138.36 267.58 135.55 C 267.21 133.60 266.43 132.00 265.85 132.00 C 265.20 132.00 265.04 133.02 265.44 134.62 C 266.02 136.93 265.92 137.07 264.62 135.77 C 263.81 134.96 263.00 132.80 262.82 130.97 C 262.23 124.94 260.51 126.76 260.34 133.58 C 260.25 137.19 259.89 140.45 259.52 140.81 C 259.16 141.17 232.91 141.60 201.18 141.76 C 164.56 141.95 143.59 142.41 143.75 143.03 C 143.89 143.56 143.31 144.00 142.46 144.00 C 141.18 144.00 140.96 142.75 141.21 136.79 Z M 346.00 142.94 C 346.00 142.36 346.45 142.16 347.00 142.50 C 347.55 142.84 348.00 143.32 348.00 143.56 C 348.00 143.80 347.55 144.00 347.00 144.00 C 346.45 144.00 346.00 143.52 346.00 142.94 Z M 64.00 142.00 C 65.14 141.26 64.79 141.05 62.50 141.11 C 60.85 141.16 58.38 141.56 57.00 142.00 C 54.83 142.69 55.03 142.81 58.50 142.89 C 60.70 142.93 63.17 142.53 64.00 142.00 Z M 103.75 142.20 C 99.98 141.74 100.20 139.39 104.61 132.85 C 110.99 123.38 113.00 118.53 113.00 112.62 C 113.00 106.59 110.44 99.55 107.18 96.64 C 105.13 94.81 105.09 94.82 104.60 97.14 C 104.33 98.44 103.92 103.71 103.68 108.86 C 103.29 117.05 102.82 119.03 99.87 124.75 C 97.10 130.12 95.68 131.71 91.90 133.67 C 86.99 136.21 80.00 137.61 80.00 136.04 C 80.00 135.52 81.11 133.46 82.46 131.47 C 87.98 123.34 90.31 112.97 87.84 107.55 C 86.13 103.78 84.23 104.44 82.94 109.25 C 80.49 118.38 78.54 122.55 74.82 126.58 C 70.15 131.64 66.20 133.45 61.65 132.59 C 56.57 131.64 54.67 128.90 54.44 122.22 C 54.33 119.07 53.92 115.11 53.53 113.41 C 52.61 109.43 54.25 107.77 61.75 105.09 C 70.47 101.97 74.44 99.70 74.84 97.60 C 75.47 94.31 64.23 96.12 54.66 100.84 C 45.76 105.23 45.34 105.02 46.42 96.87 C 47.64 87.70 50.69 81.31 55.32 78.18 C 62.59 73.29 67.80 72.53 88.50 73.34 C 91.80 73.47 92.50 73.17 92.50 71.62 C 92.50 70.49 91.10 68.99 89.02 67.87 C 84.13 65.25 75.47 65.48 64.10 68.52 C 58.94 69.91 54.51 70.84 54.27 70.61 C 53.70 70.03 55.68 66.27 58.68 62.25 C 61.72 58.17 63.66 58.11 81.72 61.56 C 96.01 64.29 100.50 64.40 100.50 62.04 C 100.50 59.74 91.69 54.90 84.80 53.42 C 81.33 52.68 75.69 52.05 72.25 52.04 C 67.92 52.01 66.01 51.62 66.04 50.75 C 66.10 48.63 68.37 45.27 71.31 42.96 C 75.26 39.87 79.83 40.83 86.67 46.20 C 97.26 54.52 99.53 55.93 102.28 55.97 C 105.54 56.01 106.70 53.88 105.40 50.24 C 104.13 46.68 94.43 40.13 89.08 39.22 C 80.09 37.70 83.85 34.56 98.21 31.59 C 109.33 29.30 112.02 29.51 116.93 33.06 C 123.92 38.13 125.71 46.32 122.51 58.61 C 121.51 62.47 121.35 64.72 122.02 65.53 C 122.66 66.29 127.51 66.90 135.38 67.21 C 145.99 67.62 148.18 67.99 150.79 69.85 C 155.19 72.98 157.74 79.19 158.86 89.50 C 160.30 102.85 158.88 107.54 155.42 100.85 C 154.52 99.11 151.80 94.58 149.36 90.78 C 145.80 85.23 144.50 83.93 142.73 84.19 C 139.06 84.71 139.59 87.72 144.69 95.29 C 152.08 106.28 153.56 110.18 152.15 114.90 C 150.85 119.22 144.11 126.00 141.12 126.00 C 139.44 126.00 139.17 124.86 138.57 115.25 C 137.53 98.29 137.03 95.87 133.93 92.78 C 130.89 89.73 126.30 89.06 125.35 91.52 C 125.03 92.36 125.79 95.39 127.03 98.27 C 133.28 112.75 128.26 134.17 117.40 139.35 C 113.01 141.44 107.31 142.63 103.75 142.20 Z M 290.00 142.00 C 290.00 141.45 290.48 141.00 291.06 141.00 C 291.64 141.00 291.84 141.45 291.50 142.00 C 291.16 142.55 290.68 143.00 290.44 143.00 C 290.20 143.00 290.00 142.55 290.00 142.00 Z M 82.52 141.03 C 82.25 140.60 83.94 139.95 86.27 139.57 C 88.60 139.20 92.41 137.78 94.75 136.41 C 97.09 135.04 99.00 134.11 99.00 134.34 C 99.00 134.58 98.36 136.28 97.59 138.14 C 96.19 141.44 96.06 141.50 89.59 141.65 C 85.96 141.74 82.78 141.46 82.52 141.03 Z M 305.00 141.23 C 296.40 140.06 288.73 135.29 285.62 129.20 C 282.35 122.80 280.79 105.31 282.98 99.57 C 283.62 97.86 283.60 96.08 282.90 94.25 L 281.85 91.50 L 278.93 94.77 C 276.22 97.79 276.00 98.61 276.03 105.77 C 276.05 110.36 277.03 117.55 278.45 123.50 C 279.76 129.00 280.69 133.65 280.51 133.82 C 279.74 134.59 274.02 130.82 271.62 127.96 C 268.45 124.19 268.37 121.92 270.93 107.42 C 272.67 97.54 273.50 89.62 273.13 86.25 C 272.85 83.61 269.98 85.18 267.65 89.25 C 264.47 94.82 263.04 101.52 262.74 112.25 C 262.59 117.79 262.10 120.99 261.40 121.00 C 260.80 121.00 258.43 119.65 256.15 117.99 C 252.63 115.45 252.00 114.45 252.00 111.45 C 252.00 107.12 254.40 102.33 260.43 94.61 C 265.46 88.17 266.56 85.35 265.56 81.40 C 265.00 79.16 264.54 78.90 262.21 79.48 C 260.72 79.85 258.78 80.81 257.90 81.60 C 255.21 84.02 251.11 92.39 249.94 97.84 C 249.33 100.68 248.48 103.00 248.05 103.00 C 247.06 103.00 244.55 96.14 242.94 89.06 C 237.98 67.20 247.24 56.32 266.39 61.51 C 269.95 62.47 273.53 63.01 274.34 62.70 C 275.49 62.26 275.88 59.34 276.18 48.82 C 276.61 33.56 277.60 30.70 283.65 27.35 C 288.34 24.75 296.32 22.99 303.30 23.02 C 312.24 23.04 312.15 24.16 302.74 30.43 C 292.96 36.93 290.52 39.30 291.35 41.46 C 292.45 44.33 296.62 43.02 304.03 37.48 C 316.53 28.13 322.40 28.04 328.97 37.12 C 334.09 44.18 333.66 44.61 320.75 45.42 C 302.17 46.58 298.00 48.44 298.00 55.62 C 298.00 59.94 299.78 60.29 306.12 57.24 C 310.56 55.10 312.99 54.63 320.06 54.57 C 327.69 54.51 329.27 54.83 334.47 57.50 C 341.58 61.15 346.18 67.27 347.78 75.24 C 348.89 80.81 348.51 85.00 346.87 85.00 C 346.38 85.00 342.18 82.52 337.53 79.49 C 332.88 76.46 327.90 73.53 326.47 72.99 C 320.51 70.72 310.38 72.54 305.79 76.69 C 302.29 79.86 303.63 80.68 313.25 81.27 C 325.03 81.98 332.61 84.71 337.36 89.97 C 340.77 93.75 342.98 99.16 342.99 103.75 C 343.00 106.67 342.40 106.59 337.00 103.00 C 328.33 97.23 318.01 95.56 314.26 99.31 C 312.00 101.57 313.10 102.40 321.63 104.91 C 327.36 106.60 329.61 107.88 333.07 111.46 C 340.55 119.17 341.70 123.52 337.89 129.68 C 335.96 132.80 335.40 133.08 331.14 132.97 C 328.59 132.91 324.45 133.16 321.94 133.54 C 317.85 134.15 317.21 133.97 315.85 131.86 C 315.01 130.56 313.77 127.25 313.09 124.50 C 311.41 117.76 308.06 112.00 305.82 112.00 C 304.69 112.00 304.00 112.73 304.00 113.94 C 304.00 117.60 306.97 128.69 309.47 134.35 C 310.85 137.46 312.10 140.34 312.24 140.75 C 312.52 141.56 309.05 141.79 305.00 141.23 Z M 316.66 139.55 C 316.06 138.00 323.52 136.71 331.87 136.92 C 334.94 137.00 337.89 136.51 338.77 135.78 C 340.98 133.95 343.95 127.00 343.98 123.61 C 344.01 119.19 339.99 112.13 335.23 108.23 C 329.46 103.49 330.58 102.99 337.02 107.42 C 339.88 109.39 342.83 111.00 343.58 111.00 C 347.82 111.00 347.71 99.52 343.39 91.40 C 341.27 87.41 341.18 86.86 342.71 87.51 C 349.96 90.55 352.00 88.67 352.00 78.96 C 352.00 73.73 351.44 71.24 349.42 67.40 C 343.38 55.93 334.46 50.96 320.06 51.04 C 313.36 51.08 310.15 51.76 303.75 54.47 C 302.52 54.99 302.00 54.76 302.00 53.68 C 302.00 51.32 307.75 49.95 321.09 49.11 C 331.28 48.48 333.49 48.05 334.63 46.48 C 336.61 43.79 336.34 42.13 333.00 36.30 C 329.44 30.09 322.86 25.68 317.90 26.18 C 315.41 26.43 314.66 26.09 314.43 24.60 C 313.79 20.48 311.39 19.50 302.21 19.58 C 286.77 19.72 275.67 25.16 273.26 33.77 C 272.84 35.27 272.50 40.21 272.50 44.75 C 272.50 49.29 272.27 53.00 272.00 52.99 C 271.73 52.99 270.53 51.28 269.34 49.19 C 267.43 45.86 267.14 43.63 266.89 30.49 L 266.61 15.58 L 293.05 15.39 C 307.60 15.29 334.24 15.09 352.26 14.95 C 370.28 14.81 385.36 15.02 385.76 15.43 C 386.55 16.21 386.63 20.96 387.10 92.21 C 387.27 117.36 387.18 138.15 386.90 138.43 C 386.63 138.71 374.72 139.19 360.45 139.51 C 346.18 139.83 330.60 140.26 325.83 140.47 C 319.34 140.76 317.03 140.52 316.66 139.55 Z M 137.08 136.25 C 137.12 134.19 137.39 133.07 137.66 133.76 C 137.94 134.45 138.58 134.76 139.09 134.45 C 140.14 133.79 140.21 134.60 139.37 137.75 C 138.42 141.30 136.99 140.37 137.08 136.25 Z M 263.00 137.88 C 263.00 136.11 263.25 135.96 264.49 136.99 C 265.99 138.24 265.67 140.00 263.94 140.00 C 263.42 140.00 263.00 139.04 263.00 137.88 Z M 390.00 137.00 C 390.00 136.45 390.48 136.00 391.06 136.00 C 391.64 136.00 391.84 136.45 391.50 137.00 C 391.16 137.55 390.68 138.00 390.44 138.00 C 390.20 138.00 390.00 137.55 390.00 137.00 Z M 10.64 133.50 C 10.29 132.59 10.01 131.09 10.02 130.17 C 10.03 128.82 10.20 128.76 10.91 129.90 C 11.62 131.02 11.89 130.92 12.28 129.40 C 12.66 127.94 12.79 128.08 12.87 130.00 C 13.01 133.43 11.51 135.78 10.64 133.50 Z M 104.05 125.50 C 104.04 124.95 104.68 122.63 105.48 120.34 C 106.27 118.05 107.12 113.78 107.36 110.84 C 107.91 104.06 107.85 104.23 109.00 106.00 C 110.43 108.21 110.21 115.59 108.61 119.28 C 107.00 122.98 104.07 126.98 104.05 125.50 Z M 11.08 123.42 C 11.13 122.25 11.36 122.01 11.68 122.81 C 11.97 123.53 11.94 124.40 11.60 124.73 C 11.27 125.06 11.04 124.47 11.08 123.42 Z M 390.00 120.00 C 390.00 119.45 390.48 119.00 391.06 119.00 C 391.64 119.00 391.84 119.45 391.50 120.00 C 391.16 120.55 390.68 121.00 390.44 121.00 C 390.20 121.00 390.00 120.55 390.00 120.00 Z M 84.08 118.42 C 84.13 117.25 84.36 117.01 84.68 117.81 C 84.97 118.53 84.94 119.40 84.60 119.73 C 84.27 120.06 84.04 119.47 84.08 118.42 Z M 10.00 114.00 C 10.00 113.45 10.48 113.00 11.06 113.00 C 11.64 113.00 11.84 113.45 11.50 114.00 C 11.16 114.55 10.68 115.00 10.44 115.00 C 10.20 115.00 10.00 114.55 10.00 114.00 Z M 193.33 114.10 C 183.64 111.61 171.44 100.42 168.73 91.52 C 166.92 85.59 167.30 69.36 169.35 64.75 C 171.42 60.11 173.29 60.00 179.10 64.13 C 188.22 70.61 188.82 71.50 187.81 77.02 C 187.12 80.83 187.26 82.61 188.44 84.88 C 193.35 94.39 205.73 95.42 211.00 86.76 C 213.23 83.12 213.63 76.47 211.86 72.59 C 210.85 70.38 211.30 69.08 215.72 61.30 C 218.47 56.46 221.30 52.50 222.00 52.50 C 224.37 52.50 230.92 63.29 232.60 69.99 C 237.00 87.45 229.13 104.47 213.31 111.71 C 207.49 114.38 198.57 115.44 193.33 114.10 Z M 12.08 111.42 C 12.13 110.25 12.36 110.01 12.68 110.81 C 12.97 111.53 12.94 112.40 12.60 112.73 C 12.27 113.06 12.04 112.47 12.08 111.42 Z M 132.62 106.43 C 132.26 103.36 131.32 99.31 130.53 97.43 C 129.37 94.63 129.35 94.00 130.43 94.00 C 132.29 94.00 133.76 98.43 134.33 105.75 C 134.93 113.50 133.52 114.06 132.62 106.43 Z M 389.73 109.34 C 389.46 108.88 389.71 107.38 390.29 106.00 L 391.35 103.50 L 391.76 105.87 C 392.17 108.26 390.64 110.88 389.73 109.34 Z M 267.23 103.00 C 267.23 101.08 267.44 100.29 267.69 101.25 C 267.94 102.21 267.94 103.79 267.69 104.75 C 267.44 105.71 267.23 104.92 267.23 103.00 Z M 268.16 98.00 C 268.16 96.62 268.38 96.06 268.66 96.75 C 268.94 97.44 268.94 98.56 268.66 99.25 C 268.38 99.94 268.16 99.38 268.16 98.00 Z M 390.07 93.31 C 390.12 89.70 390.36 89.00 391.00 90.50 C 392.19 93.28 392.19 96.76 391.00 97.50 C 390.38 97.88 390.03 96.28 390.07 93.31 Z M 254.00 95.39 C 254.00 94.05 259.37 85.00 260.16 85.00 C 261.72 85.00 261.01 87.12 257.95 91.57 C 255.07 95.76 254.00 96.79 254.00 95.39 Z M 327.50 79.91 C 324.75 78.91 320.36 78.07 317.75 78.04 C 312.05 77.99 311.47 76.50 316.82 75.65 C 321.26 74.93 325.02 75.86 330.25 78.97 C 336.22 82.52 335.41 82.79 327.50 79.91 Z M 389.86 77.92 C 389.65 70.92 390.04 66.03 391.01 63.68 C 391.59 62.29 391.72 65.12 391.39 71.48 C 390.85 82.07 390.09 85.25 389.86 77.92 Z M 156.53 70.41 C 153.97 66.50 146.68 63.70 138.76 63.59 C 131.70 63.50 130.12 62.69 134.72 61.54 C 136.21 61.16 139.47 59.92 141.97 58.79 C 147.60 56.22 161.65 54.25 163.20 55.80 C 163.97 56.57 163.64 58.46 162.04 62.41 C 160.80 65.45 159.73 69.08 159.65 70.47 C 159.46 73.68 158.67 73.67 156.53 70.41 Z M 191.00 67.16 C 191.00 66.69 187.62 63.92 183.50 61.00 C 179.38 58.08 176.00 55.39 176.00 55.03 C 176.00 53.43 181.99 48.89 187.29 46.47 C 194.22 43.30 204.23 42.94 211.16 45.62 C 217.00 47.88 217.66 48.61 215.79 50.73 C 214.93 51.70 212.66 55.62 210.76 59.43 L 207.29 66.36 L 201.25 66.11 C 197.77 65.97 194.92 66.32 194.54 66.93 C 193.76 68.20 191.00 68.37 191.00 67.16 Z M 9.63 64.67 C 9.31 63.38 9.44 60.95 9.92 59.27 C 10.51 57.21 10.43 55.80 9.65 54.98 C 8.77 54.04 8.84 53.85 9.95 54.19 C 10.99 54.51 11.45 56.39 11.57 60.82 C 11.73 67.02 10.73 69.03 9.63 64.67 Z M 237.58 60.33 C 236.53 57.76 233.71 53.27 231.33 50.35 C 228.95 47.42 227.00 44.81 227.00 44.53 C 227.00 42.93 236.34 39.64 242.08 39.23 C 251.74 38.53 256.46 40.90 262.93 49.67 C 265.70 53.43 267.98 56.81 267.98 57.18 C 267.99 57.55 266.54 57.44 264.76 56.93 C 257.35 54.81 249.63 56.54 244.06 61.57 C 241.97 63.45 240.09 65.00 239.88 65.00 C 239.67 64.99 238.64 62.89 237.58 60.33 Z M 390.45 58.91 C 390.08 58.31 390.28 57.32 390.89 56.71 C 391.70 55.90 392.00 56.18 392.00 57.80 C 392.00 60.21 391.48 60.59 390.45 58.91 Z M 81.11 57.92 C 74.61 56.64 74.66 55.64 81.20 56.28 C 87.25 56.88 92.89 59.01 88.00 58.86 C 86.62 58.82 83.53 58.39 81.11 57.92 Z M 262.25 53.75 C 262.84 52.13 262.09 50.00 260.92 50.00 C 260.41 50.00 260.00 51.12 260.00 52.50 C 260.00 55.11 261.45 55.91 262.25 53.75 Z M 390.16 52.00 C 390.16 50.62 390.38 50.06 390.66 50.75 C 390.94 51.44 390.94 52.56 390.66 53.25 C 390.38 53.94 390.16 53.38 390.16 52.00 Z M 96.13 49.01 C 90.52 44.57 89.19 41.82 94.04 44.69 C 97.70 46.84 102.57 51.76 101.81 52.52 C 101.51 52.82 98.96 51.24 96.13 49.01 Z M 140.18 34.33 L 139.86 15.50 L 199.98 15.50 L 260.09 15.50 L 259.66 25.40 C 259.24 34.81 259.34 35.43 261.61 37.70 C 262.92 39.01 264.00 40.21 264.00 40.36 C 264.00 40.51 260.93 39.11 257.17 37.24 C 252.11 34.74 248.93 33.83 244.92 33.75 C 238.12 33.63 229.03 36.26 225.23 39.46 L 222.33 41.90 L 217.62 39.51 C 202.70 31.96 184.40 35.02 172.19 47.10 C 167.36 51.87 167.35 51.88 163.12 50.80 C 159.06 49.77 156.84 49.98 143.00 52.67 L 140.50 53.15 L 140.18 34.33 Z M 9.62 51.20 C 9.35 50.76 9.55 49.75 10.05 48.95 C 10.77 47.82 10.97 47.99 10.98 49.75 C 11.00 52.06 10.49 52.61 9.62 51.20 Z M 136.00 48.50 C 136.00 46.34 136.40 45.13 137.00 45.50 C 137.55 45.84 138.00 47.19 138.00 48.50 C 138.00 49.81 137.55 51.16 137.00 51.50 C 136.40 51.87 136.00 50.66 136.00 48.50 Z M 9.00 43.77 C 9.00 41.95 10.77 40.44 11.76 41.42 C 12.10 41.77 11.62 42.81 10.69 43.74 C 9.13 45.30 9.00 45.30 9.00 43.77 Z M 137.24 43.01 C 135.84 40.77 135.49 27.05 136.87 28.55 C 137.58 29.32 139.29 45.00 138.66 45.00 C 138.56 45.00 137.92 44.11 137.24 43.01 Z M 390.08 41.42 C 390.13 40.25 390.36 40.01 390.68 40.81 C 390.97 41.53 390.94 42.40 390.60 42.73 C 390.27 43.06 390.04 42.47 390.08 41.42 Z M 390.03 36.45 C 390.06 33.86 390.19 33.73 391.13 35.35 C 391.90 36.67 391.89 37.51 391.10 38.30 C 390.30 39.10 390.01 38.60 390.03 36.45 Z M 10.78 34.96 C 10.53 33.28 10.71 31.68 11.17 31.40 C 11.63 31.11 12.00 32.48 12.00 34.44 C 12.00 38.80 11.38 39.06 10.78 34.96 Z M 262.57 35.75 C 262.14 34.24 262.14 32.22 262.57 31.25 C 263.26 29.71 263.40 29.77 263.75 31.75 C 263.96 32.99 263.96 35.01 263.75 36.25 C 263.38 38.37 263.31 38.34 262.57 35.75 Z M 9.65 28.83 C 9.31 27.55 9.02 25.68 9.01 24.68 C 9.00 23.06 9.17 23.02 10.50 24.36 C 12.18 26.04 12.38 27.85 11.12 29.83 C 10.49 30.83 10.12 30.58 9.65 28.83 Z M 262.67 28.33 C 261.65 27.32 261.90 19.70 263.00 18.00 C 263.68 16.94 263.97 18.35 263.98 22.75 C 264.00 29.05 263.88 29.55 262.67 28.33 Z M 136.00 23.50 C 136.00 22.68 136.44 22.00 136.97 22.00 C 137.50 22.00 137.68 22.68 137.36 23.50 C 137.05 24.32 136.61 25.00 136.39 25.00 C 136.18 25.00 136.00 24.32 136.00 23.50 Z M 135.50 19.00 C 135.16 18.45 135.36 18.00 135.94 18.00 C 136.52 18.00 137.00 18.45 137.00 19.00 C 137.00 19.55 136.80 20.00 136.56 20.00 C 136.32 20.00 135.84 19.55 135.50 19.00 Z M 262.00 15.24 C 262.00 14.20 266.07 11.74 266.72 12.38 C 267.40 13.07 264.45 16.00 263.07 16.00 C 262.48 16.00 262.00 15.66 262.00 15.24 Z M 63.57 13.25 C 64.07 12.84 64.81 12.05 65.22 11.50 C 65.65 10.93 65.98 11.25 65.98 12.25 C 65.99 13.22 65.26 14.00 64.33 14.00 C 63.42 14.00 63.07 13.66 63.57 13.25 Z M 116.55 12.92 C 116.86 12.42 118.24 12.00 119.62 12.00 C 121.03 12.00 121.85 11.56 121.50 11.00 C 120.58 9.51 121.93 9.79 123.57 11.43 C 125.58 13.44 125.52 13.48 120.49 13.67 C 117.94 13.77 116.22 13.45 116.55 12.92 Z M 143.50 13.00 C 143.16 12.45 143.56 12.00 144.38 12.00 C 145.21 12.00 146.16 12.45 146.50 13.00 C 146.84 13.55 146.44 14.00 145.62 14.00 C 144.79 14.00 143.84 13.55 143.50 13.00 Z M 152.68 13.34 C 151.95 12.61 153.79 10.00 155.03 10.00 C 155.46 10.00 155.58 10.90 155.29 12.00 C 154.75 14.05 153.85 14.51 152.68 13.34 Z M 169.43 12.89 C 168.97 12.15 169.44 12.01 170.87 12.46 C 173.11 13.17 173.91 11.53 171.75 10.66 C 171.00 10.36 171.20 10.13 172.25 10.08 C 173.21 10.04 174.00 10.45 174.00 11.00 C 174.00 11.55 174.79 12.01 175.75 12.02 C 177.25 12.03 177.28 12.17 176.00 13.00 C 173.97 14.31 170.27 14.25 169.43 12.89 Z M 179.25 13.31 C 180.21 13.06 181.79 13.06 182.75 13.31 C 183.71 13.56 182.93 13.77 181.00 13.77 C 179.07 13.77 178.29 13.56 179.25 13.31 Z M 188.00 13.00 C 186.86 12.26 187.28 12.03 189.75 12.02 C 191.54 12.01 193.00 12.45 193.00 13.00 C 193.00 14.27 189.97 14.27 188.00 13.00 Z M 235.00 13.00 C 235.00 12.45 235.68 12.00 236.50 12.00 C 237.32 12.00 238.00 12.45 238.00 13.00 C 238.00 13.55 237.32 14.00 236.50 14.00 C 235.68 14.00 235.00 13.55 235.00 13.00 Z M 251.27 13.31 C 252.24 13.05 253.59 13.07 254.27 13.34 C 254.95 13.62 254.15 13.83 252.50 13.81 C 250.85 13.78 250.30 13.56 251.27 13.31 Z M 279.27 13.31 C 280.24 13.05 281.59 13.07 282.27 13.34 C 282.95 13.62 282.15 13.83 280.50 13.81 C 278.85 13.78 278.30 13.56 279.27 13.31 Z M 76.50 12.00 C 76.16 11.45 76.61 11.00 77.50 11.00 C 78.39 11.00 78.84 11.45 78.50 12.00 C 78.16 12.55 77.71 13.00 77.50 13.00 C 77.29 13.00 76.84 12.55 76.50 12.00 Z M 128.12 11.36 C 126.92 10.01 126.98 9.85 128.54 10.15 C 129.52 10.34 130.52 11.06 130.75 11.75 C 131.33 13.48 129.79 13.25 128.12 11.36 Z M 160.00 12.00 C 158.71 11.16 158.73 11.03 160.19 11.02 C 161.12 11.01 162.16 11.45 162.50 12.00 C 163.28 13.27 161.96 13.27 160.00 12.00 Z M 285.35 12.31 C 286.36 11.31 290.00 11.19 290.00 12.17 C 290.00 12.63 288.80 13.00 287.33 13.00 C 285.87 13.00 284.98 12.69 285.35 12.31 Z M 353.81 12.32 C 354.53 12.03 355.40 12.06 355.73 12.40 C 356.06 12.73 355.47 12.96 354.42 12.92 C 353.25 12.87 353.01 12.64 353.81 12.32 Z M 390.16 11.00 C 390.16 9.62 390.38 9.06 390.66 9.75 C 390.94 10.44 390.94 11.56 390.66 12.25 C 390.38 12.94 390.16 12.38 390.16 11.00 Z M 14.75 11.34 C 15.44 11.06 16.56 11.06 17.25 11.34 C 17.94 11.62 17.38 11.84 16.00 11.84 C 14.62 11.84 14.06 11.62 14.75 11.34 Z M 85.50 11.00 C 85.84 10.45 86.32 10.00 86.56 10.00 C 86.80 10.00 87.00 10.45 87.00 11.00 C 87.00 11.55 86.52 12.00 85.94 12.00 C 85.36 12.00 85.16 11.55 85.50 11.00 Z M 89.81 10.32 C 90.53 10.03 91.40 10.06 91.73 10.40 C 92.06 10.73 91.47 10.96 90.42 10.92 C 89.25 10.87 89.01 10.64 89.81 10.32 Z M 109.76 10.29 C 111.01 10.05 112.81 10.06 113.76 10.31 C 114.72 10.56 113.70 10.76 111.50 10.75 C 109.30 10.74 108.52 10.53 109.76 10.29 Z M 139.81 10.32 C 140.53 10.03 141.40 10.06 141.73 10.40 C 142.06 10.73 141.47 10.96 140.42 10.92 C 139.25 10.87 139.01 10.64 139.81 10.32 Z M 246.81 10.32 C 247.53 10.03 248.40 10.06 248.73 10.40 C 249.06 10.73 248.47 10.96 247.42 10.92 C 246.25 10.87 246.01 10.64 246.81 10.32 Z M 345.75 10.34 C 346.44 10.06 347.56 10.06 348.25 10.34 C 348.94 10.62 348.38 10.84 347.00 10.84 C 345.62 10.84 345.06 10.62 345.75 10.34 Z" fill="none" stroke="rgba(255,255,255,0.92)" stroke-width="1.5" stroke-linejoin="round" fill-rule="evenodd"/>
</svg>
