<svg xmlns="http://www.w3.org/2000/svg" viewBox="0 0 100 100" width="100" height="100">
  <path d="M 0.00 50.00 L 0.00 0.00 L 50.00 0.00 L 100.00 0.00 L 100.00 50.00 L 100.00 100.00 L 50.00 100.00 L 0.00 100.00 L 0.00 50.00 Z M 94.52 51.75 C 94.25 27.41 94.02 6.91 94.01 6.20 C 94.00 5.14 87.84 5.00 61.75 5.43 C 44.01 5.73 23.76 5.98 16.75 5.99 C 8.93 5.99 4.00 6.39 4.00 7.00 C 4.00 7.55 6.25 8.00 9.00 8.00 C 11.75 8.00 14.00 8.38 14.00 8.84 C 14.00 9.31 11.75 9.61 9.00 9.51 C 5.97 9.41 4.00 9.76 4.00 10.42 C 4.00 11.01 5.46 11.44 7.25 11.37 C 9.04 11.30 15.84 11.18 22.36 11.12 C 32.46 11.02 34.13 10.78 33.64 9.50 C 33.29 8.60 33.63 8.00 34.50 8.00 C 35.37 8.00 35.71 8.60 35.36 9.50 C 34.70 11.22 38.46 11.68 39.50 10.00 C 39.84 9.45 40.57 9.00 41.12 9.00 C 41.67 9.00 41.88 9.38 41.60 9.85 C 41.31 10.31 51.90 10.65 65.14 10.60 L 89.21 10.50 L 89.35 53.25 L 89.50 96.00 L 92.26 96.00 L 95.02 96.00 L 94.52 51.75 Z M 91.76 79.50 C 92.02 78.12 92.41 77.00 92.62 77.00 C 92.83 77.00 93.00 78.12 93.00 79.50 C 93.00 80.88 92.61 82.00 92.14 82.00 C 91.66 82.00 91.49 80.88 91.76 79.50 Z M 12.91 77.75 C 12.85 77.06 10.83 74.75 8.41 72.62 C 4.02 68.76 4.00 68.75 4.00 71.30 C 4.00 72.99 5.10 74.72 7.25 76.42 C 10.77 79.19 13.06 79.73 12.91 77.75 Z M 22.35 74.53 C 22.67 73.68 22.02 72.43 20.82 71.58 C 19.66 70.77 15.40 66.88 11.36 62.93 C 4.69 56.42 4.00 55.98 4.00 58.28 C 4.00 60.18 6.07 62.75 12.17 68.41 C 16.66 72.59 20.66 76.00 21.06 76.00 C 21.46 76.00 22.04 75.34 22.35 74.53 Z M 30.54 72.93 C 30.90 72.35 29.24 70.22 26.85 68.21 C 20.06 62.51 8.00 50.75 8.00 49.83 C 8.00 49.37 9.29 49.00 10.87 49.00 C 13.01 49.00 14.84 50.20 18.12 53.78 C 25.45 61.78 35.83 70.28 37.49 69.64 C 39.84 68.74 39.29 67.77 34.34 64.04 C 31.82 62.13 26.99 57.88 23.63 54.58 C 18.73 49.79 17.87 48.51 19.33 48.20 C 20.54 47.95 23.42 50.04 27.83 54.38 C 35.25 61.67 43.91 68.17 45.18 67.39 C 46.97 66.28 45.73 64.35 41.22 61.25 C 38.63 59.46 33.80 55.54 30.50 52.53 C 25.37 47.87 24.83 47.07 26.81 47.04 C 28.26 47.01 30.98 48.84 34.17 51.98 C 39.66 57.38 49.31 64.19 51.76 64.38 C 54.99 64.63 53.89 62.13 49.69 59.66 C 44.12 56.40 34.00 48.19 34.00 46.95 C 34.00 44.62 38.62 46.38 43.10 50.40 C 49.98 56.59 58.83 62.28 60.55 61.62 C 62.54 60.86 62.37 59.07 60.25 58.30 C 57.86 57.43 50.21 52.27 46.22 48.83 C 43.94 46.87 43.43 46.00 44.58 46.00 C 45.48 46.00 48.31 47.74 50.86 49.87 C 56.22 54.34 65.63 59.35 67.04 58.48 C 69.05 57.23 67.86 55.35 64.25 54.06 C 60.10 52.58 52.00 47.13 52.00 45.83 C 52.00 44.11 54.86 45.11 58.61 48.13 C 62.59 51.33 69.51 54.94 71.75 54.98 C 74.97 55.03 72.41 52.09 67.00 49.50 C 61.18 46.72 59.45 45.00 62.47 45.00 C 63.28 45.00 65.87 46.36 68.23 48.02 C 73.34 51.62 80.00 53.14 80.00 50.70 C 80.00 49.16 79.54 48.93 73.50 47.45 L 70.50 46.71 L 72.99 46.06 C 74.37 45.70 75.64 44.64 75.82 43.71 C 76.07 42.38 75.42 42.00 72.88 42.00 C 69.80 42.00 69.72 41.92 71.56 40.53 C 72.63 39.72 74.96 38.77 76.75 38.42 C 79.12 37.95 80.00 37.23 80.00 35.78 C 80.00 34.37 79.53 33.96 78.42 34.39 C 77.55 34.73 76.24 35.00 75.52 35.00 C 74.79 35.00 71.86 36.57 69.00 38.50 C 62.91 42.60 57.41 43.63 62.78 39.67 C 64.52 38.38 67.77 36.51 70.00 35.50 C 74.40 33.52 74.82 31.40 70.75 31.67 C 68.72 31.81 68.33 31.47 68.73 29.92 C 69.87 25.56 61.64 29.06 52.11 36.98 C 48.80 39.74 45.35 42.00 44.45 42.00 C 42.69 42.00 48.26 36.98 55.71 31.86 C 59.50 29.25 61.43 26.00 59.20 26.00 C 57.57 26.00 49.33 31.85 43.21 37.35 C 37.43 42.55 34.00 44.32 34.00 42.12 C 34.00 40.80 40.87 34.84 47.90 30.07 C 52.96 26.63 53.90 25.58 52.95 24.44 C 51.97 23.26 50.78 23.72 45.68 27.26 C 42.32 29.59 37.01 34.09 33.87 37.25 C 30.74 40.41 27.59 43.00 26.88 43.00 C 24.51 43.00 34.90 33.36 45.84 25.40 C 46.03 25.26 45.77 24.40 45.26 23.49 C 44.46 22.06 43.26 22.69 36.73 27.94 C 32.55 31.31 27.15 36.36 24.73 39.17 C 22.31 41.98 19.74 44.08 19.02 43.84 C 17.59 43.36 26.13 34.16 34.31 27.36 C 38.44 23.92 38.92 23.17 37.63 22.11 C 36.37 21.06 34.18 22.77 23.82 32.91 C 17.04 39.54 10.94 45.18 10.25 45.45 C 6.95 46.74 9.92 42.94 19.68 33.40 C 27.75 25.50 30.07 22.67 29.20 21.80 C 27.92 20.52 21.72 25.90 10.25 38.21 C 2.60 46.41 2.39 48.22 8.25 55.21 C 12.62 60.43 27.68 74.00 29.09 74.00 C 29.53 74.00 30.18 73.52 30.54 72.93 Z M 91.00 56.00 C 91.00 55.45 91.48 55.00 92.06 55.00 C 92.64 55.00 92.84 55.45 92.50 56.00 C 92.16 56.55 91.68 57.00 91.44 57.00 C 91.20 57.00 91.00 56.55 91.00 56.00 Z M 52.45 41.07 C 53.49 39.40 65.19 32.00 66.81 32.00 C 67.68 32.00 66.39 33.28 63.95 34.85 C 61.50 36.42 58.64 38.67 57.60 39.85 C 55.77 41.91 51.27 42.98 52.45 41.07 Z M 21.82 22.35 C 22.51 19.50 19.48 21.26 11.88 28.11 C 6.03 33.38 4.00 35.86 4.00 37.71 C 4.00 39.95 4.95 39.32 12.75 31.96 C 17.56 27.41 21.65 23.09 21.82 22.35 Z M 12.91 23.72 C 12.96 23.29 12.30 22.67 11.44 22.34 C 9.25 21.50 4.00 26.77 4.00 29.82 C 4.00 32.19 4.13 32.15 8.41 28.38 C 10.83 26.25 12.85 24.15 12.91 23.72 Z M 15.00 9.02 C 15.00 8.43 17.82 8.00 21.67 8.00 C 25.33 8.00 28.11 8.23 27.83 8.50 C 26.78 9.55 15.00 10.02 15.00 9.02 Z M 59.50 9.00 C 57.59 8.18 57.60 8.14 59.75 8.07 C 60.99 8.03 62.00 8.45 62.00 9.00 C 62.00 9.55 61.89 9.97 61.75 9.93 C 61.61 9.89 60.60 9.47 59.50 9.00 Z M 89.50 9.00 C 89.16 8.45 89.33 8.00 89.88 8.00 C 90.43 8.00 91.16 8.45 91.50 9.00 C 91.84 9.55 91.67 10.00 91.12 10.00 C 90.57 10.00 89.84 9.55 89.50 9.00 Z M 63.00 8.00 C 61.78 7.21 61.91 7.03 63.69 7.02 C 64.90 7.01 66.16 7.45 66.50 8.00 C 67.29 9.27 64.97 9.27 63.00 8.00 Z M 69.51 7.98 C 69.86 7.42 70.56 7.23 71.07 7.54 C 72.46 8.40 72.20 9.00 70.44 9.00 C 69.58 9.00 69.16 8.54 69.51 7.98 Z M 74.00 8.00 C 74.00 7.45 75.46 7.01 77.25 7.02 C 79.72 7.03 80.14 7.26 79.00 8.00 C 77.03 9.27 74.00 9.27 74.00 8.00 Z" fill="none" stroke="rgba(255,255,255,0.92)" stroke-width="1.2" stroke-linejoin="round" fill-rule="evenodd"/>
</svg>
