<svg xmlns="http://www.w3.org/2000/svg" viewBox="0 0 100 100" width="100" height="100">
  <path d="M 0.00 50.00 L 0.00 0.00 L 50.00 0.00 L 100.00 0.00 L 100.00 50.00 L 100.00 100.00 L 50.00 100.00 L 0.00 100.00 L 0.00 50.00 Z M 17.19 94.42 C 12.96 91.46 10.11 77.47 12.21 69.99 C 12.60 68.61 12.51 66.83 12.02 66.03 C 11.26 64.79 10.82 64.86 9.06 66.44 C 6.36 68.89 6.29 76.94 8.89 86.82 C 9.92 90.77 10.46 94.00 10.08 94.00 C 9.69 94.00 8.51 93.34 7.44 92.53 C 4.96 90.66 4.00 90.63 4.00 92.45 C 4.00 94.77 7.06 95.88 13.36 95.86 C 18.70 95.84 19.03 95.71 17.19 94.42 Z M 56.01 92.75 C 59.24 87.46 58.47 83.41 53.19 77.75 C 50.31 74.66 50.85 74.20 54.53 76.61 C 55.88 77.50 57.66 77.96 58.49 77.64 C 60.46 76.89 60.47 71.05 58.50 66.35 C 56.59 61.78 56.60 61.74 59.05 62.52 C 62.33 63.56 64.00 61.30 64.00 55.84 C 64.00 47.17 58.20 39.26 50.22 37.04 C 44.83 35.55 33.49 35.77 29.47 37.45 C 27.54 38.25 26.00 38.46 26.00 37.92 C 26.00 36.25 30.50 35.13 40.57 34.30 C 52.17 33.34 53.64 32.19 50.54 26.44 C 48.05 21.81 43.79 18.82 39.52 18.70 C 37.15 18.64 35.99 18.07 35.66 16.82 C 34.85 13.70 30.31 12.73 22.21 13.92 C 7.41 16.11 4.04 20.11 4.10 35.44 C 4.12 42.19 4.43 44.00 5.57 44.00 C 6.70 44.00 7.00 42.21 7.00 35.47 C 7.00 24.27 8.44 20.84 14.09 18.58 C 19.25 16.52 31.44 15.28 32.34 16.73 C 32.68 17.28 29.58 19.91 25.46 22.56 C 21.34 25.21 18.12 27.86 18.31 28.44 C 19.08 30.80 23.02 29.89 28.60 26.06 C 31.85 23.83 35.96 21.73 37.74 21.38 C 40.60 20.83 41.48 21.25 45.09 24.85 C 47.34 27.10 48.99 29.52 48.76 30.22 C 48.48 31.09 45.11 31.70 38.36 32.11 C 26.09 32.86 24.00 33.81 24.00 38.65 C 24.00 42.58 23.77 42.55 31.50 39.61 C 40.36 36.24 52.19 38.82 57.33 45.24 C 59.62 48.09 60.44 50.29 60.79 54.49 C 61.04 57.52 60.98 60.00 60.66 60.00 C 60.34 60.00 56.74 57.97 52.66 55.50 C 48.58 53.02 43.94 50.74 42.35 50.42 C 38.53 49.66 28.61 53.08 28.18 55.32 C 27.90 56.74 28.76 57.00 33.75 57.00 C 46.33 57.00 54.66 61.68 56.75 69.92 C 58.01 74.89 57.47 75.47 53.93 72.95 C 50.61 70.58 43.63 68.00 40.57 68.00 C 39.36 68.00 37.51 68.67 36.44 69.48 C 34.78 70.75 34.71 71.10 35.98 71.93 C 36.79 72.47 39.27 73.20 41.48 73.57 C 44.44 74.07 46.75 75.49 50.25 78.98 C 55.27 83.98 56.00 86.57 53.62 90.86 C 52.46 92.96 51.49 93.26 45.14 93.52 C 38.79 93.77 37.81 93.56 36.49 91.68 C 35.67 90.51 35.00 88.92 35.00 88.14 C 35.00 85.67 30.70 78.00 29.32 78.00 C 27.66 78.00 27.67 80.16 29.37 86.55 C 31.93 96.18 31.66 96.00 43.55 96.00 L 54.03 96.00 L 56.01 92.75 Z M 95.78 50.33 L 95.42 4.91 L 55.96 5.04 C 34.26 5.11 13.69 5.19 10.25 5.21 C 4.03 5.25 4.00 5.27 4.00 8.14 L 4.00 11.04 L 47.00 10.60 L 90.00 10.16 L 90.13 42.83 C 90.25 72.35 90.50 89.63 90.87 94.12 C 90.95 95.17 91.92 95.75 93.57 95.75 L 96.15 95.75 L 95.78 50.33 Z M 92.50 93.00 C 92.16 92.45 92.36 92.00 92.94 92.00 C 93.52 92.00 94.00 92.45 94.00 93.00 C 94.00 93.55 93.80 94.00 93.56 94.00 C 93.32 94.00 92.84 93.55 92.50 93.00 Z M 92.50 84.00 C 92.84 83.45 93.32 83.00 93.56 83.00 C 93.80 83.00 94.00 83.45 94.00 84.00 C 94.00 84.55 93.52 85.00 92.94 85.00 C 92.36 85.00 92.16 84.55 92.50 84.00 Z M 92.00 75.56 C 92.00 74.77 92.45 73.84 93.00 73.50 C 93.55 73.16 94.00 73.81 94.00 74.94 C 94.00 76.07 93.55 77.00 93.00 77.00 C 92.45 77.00 92.00 76.35 92.00 75.56 Z M 92.00 66.00 C 92.00 64.90 92.45 64.00 93.00 64.00 C 93.55 64.00 94.00 64.90 94.00 66.00 C 94.00 67.10 93.55 68.00 93.00 68.00 C 92.45 68.00 92.00 67.10 92.00 66.00 Z M 4.71 61.76 C 4.47 60.52 4.26 61.30 4.25 63.50 C 4.24 65.70 4.44 66.72 4.69 65.76 C 4.94 64.81 4.95 63.01 4.71 61.76 Z M 45.50 56.00 C 44.40 55.53 41.59 55.11 39.25 55.07 C 36.91 55.03 35.00 54.55 35.00 54.00 C 35.00 52.29 43.32 52.98 47.00 55.00 C 50.47 56.90 49.34 57.65 45.50 56.00 Z M 92.00 53.17 C 92.00 50.88 92.47 49.00 93.05 49.00 C 93.71 49.00 93.84 50.38 93.41 52.75 C 92.47 57.94 92.00 58.08 92.00 53.17 Z M 93.19 45.50 C 93.22 43.85 93.44 43.30 93.69 44.27 C 93.95 45.24 93.93 46.59 93.66 47.27 C 93.38 47.95 93.17 47.15 93.19 45.50 Z M 92.54 41.07 C 92.23 40.56 92.42 39.86 92.98 39.51 C 93.54 39.16 94.00 39.58 94.00 40.44 C 94.00 42.20 93.40 42.46 92.54 41.07 Z M 92.08 36.42 C 92.13 35.25 92.36 35.01 92.68 35.81 C 92.97 36.53 92.94 37.40 92.60 37.73 C 92.27 38.06 92.04 37.47 92.08 36.42 Z M 14.75 8.34 C 15.44 8.06 16.56 8.06 17.25 8.34 C 17.94 8.62 17.38 8.84 16.00 8.84 C 14.62 8.84 14.06 8.62 14.75 8.34 Z" fill="none" stroke="rgba(255,255,255,0.92)" stroke-width="1.2" stroke-linejoin="round" fill-rule="evenodd"/>
</svg>
