<svg xmlns="http://www.w3.org/2000/svg" viewBox="0 0 100 100" width="100" height="100">
  <path d="M 0.00 50.00 L 0.00 0.00 L 50.00 0.00 L 100.00 0.00 L 100.00 50.00 L 100.00 100.00 L 50.00 100.00 L 0.00 100.00 L 0.00 50.00 Z M 8.86 94.89 C 7.87 94.27 7.84 94.03 8.74 94.02 C 10.63 93.99 10.05 29.85 8.15 29.22 C 7.10 28.87 7.04 29.20 7.87 30.75 C 8.91 32.70 8.49 34.00 6.83 34.00 C 6.37 34.00 6.10 31.75 6.22 29.00 C 6.34 26.25 6.79 24.00 7.22 24.00 C 7.65 24.00 8.00 24.68 8.00 25.50 C 8.00 26.32 8.42 27.00 8.94 27.00 C 9.88 27.00 9.50 14.16 8.52 13.19 C 8.23 12.90 8.00 15.07 8.00 18.00 C 8.00 25.29 6.99 23.72 6.46 15.61 C 6.11 10.23 6.30 9.00 7.51 9.00 C 8.80 9.00 9.37 10.04 9.19 12.05 C 9.16 12.35 18.89 12.51 30.82 12.40 C 42.74 12.29 62.29 12.11 74.25 12.00 C 86.21 11.88 96.00 11.38 96.00 10.89 C 96.00 10.40 93.19 9.95 89.75 9.90 C 84.16 9.81 83.87 9.71 87.00 8.96 C 88.92 8.50 91.46 8.35 92.64 8.64 C 93.82 8.93 95.08 8.68 95.45 8.08 C 95.85 7.43 95.20 6.97 93.81 6.94 C 90.93 6.86 48.84 7.09 23.50 7.32 L 4.50 7.50 L 4.70 43.50 C 4.81 63.30 4.92 83.16 4.95 87.62 C 5.00 95.70 5.02 95.75 7.61 95.75 C 9.45 95.75 9.81 95.50 8.86 94.89 Z M 34.50 91.00 C 37.21 88.25 40.23 86.00 41.21 86.00 C 43.81 86.00 43.41 87.33 40.25 89.20 C 38.74 90.09 36.41 91.99 35.08 93.41 C 32.79 95.85 32.76 96.00 34.65 96.00 C 35.74 96.00 39.05 94.20 41.99 92.01 C 48.28 87.31 49.78 87.57 44.99 92.51 L 41.61 96.00 L 49.05 95.96 L 56.50 95.93 L 53.75 93.68 C 51.26 91.64 49.95 88.00 51.71 88.00 C 52.10 88.00 55.02 89.83 58.21 92.07 C 61.79 94.58 64.87 96.02 66.26 95.82 C 68.23 95.54 67.93 95.09 63.75 92.08 C 58.44 88.25 58.06 87.48 61.12 86.68 C 62.72 86.26 64.57 87.37 68.56 91.15 C 71.66 94.08 74.59 96.03 75.59 95.84 C 76.94 95.57 76.17 94.25 72.06 89.76 C 67.75 85.04 67.11 83.90 68.48 83.37 C 69.62 82.93 71.54 84.09 74.57 87.07 C 78.03 90.46 79.26 91.14 80.20 90.20 C 81.14 89.26 80.48 88.05 77.17 84.68 L 72.94 80.36 L 75.00 78.50 C 77.02 76.67 77.11 76.71 80.99 80.49 C 84.38 83.80 85.03 84.10 85.60 82.59 C 86.08 81.34 85.25 80.00 82.64 77.85 C 79.28 75.08 78.09 72.25 79.63 70.70 C 79.98 70.35 83.20 72.75 86.78 76.03 C 92.99 81.73 96.00 83.31 96.00 80.89 C 96.00 80.28 92.85 76.86 89.00 73.29 C 84.07 68.73 82.00 66.10 82.00 64.41 C 82.00 63.08 82.23 62.00 82.51 62.00 C 82.79 62.00 85.92 65.04 89.48 68.75 C 95.35 74.89 95.94 75.27 95.97 72.94 C 95.99 71.35 94.83 69.26 92.92 67.44 C 91.22 65.82 88.23 62.33 86.28 59.68 C 83.51 55.92 83.00 54.61 83.95 53.68 C 84.89 52.76 86.37 53.84 90.56 58.50 C 95.36 63.85 95.95 64.23 95.94 62.00 C 95.93 60.62 94.57 57.93 92.93 56.01 L 89.95 52.51 L 92.97 51.73 C 95.34 51.11 96.00 50.39 96.00 48.40 C 96.00 46.09 95.86 46.00 94.43 47.43 C 92.85 49.01 91.00 49.53 91.00 48.39 C 91.00 48.06 92.13 46.45 93.50 44.82 C 94.88 43.18 96.00 40.65 96.00 39.20 C 96.00 36.60 95.93 36.62 92.75 40.51 C 86.43 48.22 84.16 50.49 83.44 49.78 C 82.72 49.05 88.54 40.88 93.41 35.79 C 94.83 34.31 96.00 32.07 96.00 30.84 C 96.00 28.82 95.52 29.05 91.47 33.03 C 88.98 35.47 85.74 39.27 84.26 41.48 C 82.78 43.69 81.44 45.70 81.27 45.93 C 81.10 46.17 80.50 45.90 79.93 45.33 C 78.59 43.99 85.15 35.75 91.35 31.00 C 93.87 29.07 95.94 26.96 95.96 26.31 C 96.07 23.00 93.16 24.58 85.64 31.92 C 81.09 36.36 77.01 40.00 76.58 40.00 C 76.15 40.00 78.14 37.30 81.00 34.00 C 84.91 29.49 85.83 27.87 84.71 27.44 C 83.78 27.09 81.56 28.64 78.75 31.62 L 74.26 36.36 L 69.60 33.27 C 54.33 23.16 33.79 28.75 25.56 45.26 C 23.48 49.42 23.00 51.82 23.02 57.95 C 23.05 66.18 24.74 71.19 29.35 76.64 C 30.81 78.37 32.00 80.19 32.00 80.69 C 32.00 81.19 30.21 83.34 28.03 85.48 C 24.90 88.53 24.29 89.65 25.19 90.73 C 26.12 91.85 27.22 91.23 31.14 87.36 C 33.79 84.75 36.26 82.93 36.63 83.30 C 37.00 83.67 35.21 85.83 32.64 88.09 C 26.86 93.17 25.12 96.00 27.75 96.00 C 28.75 96.00 31.79 93.75 34.50 91.00 Z M 7.08 89.42 C 7.13 88.25 7.36 88.01 7.68 88.81 C 7.97 89.53 7.94 90.40 7.60 90.73 C 7.27 91.06 7.04 90.47 7.08 89.42 Z M 52.69 82.36 C 52.34 82.01 52.28 81.35 52.56 80.90 C 53.18 79.90 56.00 80.88 56.00 82.11 C 56.00 83.13 53.65 83.31 52.69 82.36 Z M 6.73 80.04 C 6.04 77.42 6.34 76.57 7.75 77.15 C 8.23 77.34 8.35 78.62 8.01 80.00 L 7.39 82.50 L 6.73 80.04 Z M 47.50 81.00 C 47.84 80.45 48.32 80.00 48.56 80.00 C 48.80 80.00 49.00 80.45 49.00 81.00 C 49.00 81.55 48.52 82.00 47.94 82.00 C 47.36 82.00 47.16 81.55 47.50 81.00 Z M 57.76 78.71 C 55.21 77.20 54.02 75.78 54.01 74.25 C 54.00 73.01 54.38 72.00 54.85 72.00 C 55.53 72.00 62.87 76.86 64.97 78.70 C 65.44 79.11 62.94 81.00 62.00 80.94 C 61.73 80.92 59.82 79.92 57.76 78.71 Z M 41.00 79.10 C 41.00 78.27 49.13 73.00 50.40 73.00 C 52.04 73.00 49.38 75.98 46.07 77.84 C 41.82 80.23 41.00 80.43 41.00 79.10 Z M 34.29 73.75 C 30.26 69.34 28.63 64.77 28.68 58.00 C 28.74 50.20 30.54 45.77 35.67 40.80 C 43.46 33.27 54.47 31.73 64.14 36.83 C 67.09 38.39 69.46 40.30 69.40 41.08 C 69.35 41.86 67.62 45.13 65.56 48.35 L 61.81 54.20 L 59.10 51.60 C 52.43 45.20 41.41 51.62 43.81 60.50 C 44.28 62.21 45.98 64.36 47.77 65.50 C 50.98 67.53 51.87 69.00 49.92 69.00 C 49.33 69.00 46.47 70.58 43.57 72.50 C 40.67 74.42 37.86 76.00 37.32 76.00 C 36.79 76.00 35.42 74.99 34.29 73.75 Z M 61.30 71.85 L 55.10 67.85 L 58.49 64.88 C 60.35 63.24 62.02 60.91 62.19 59.70 C 62.44 57.94 63.47 58.99 67.37 64.96 C 71.01 70.55 71.99 72.80 71.26 73.96 C 69.68 76.47 67.84 76.08 61.30 71.85 Z M 6.87 64.75 C 6.65 54.79 6.84 49.83 7.44 49.23 C 7.75 48.92 8.00 53.69 8.00 59.83 C 8.00 71.57 7.10 75.49 6.87 64.75 Z M 70.15 62.85 C 67.52 58.82 67.10 57.55 68.15 56.88 C 70.31 55.52 70.67 55.76 73.40 60.43 C 78.41 68.96 75.55 71.09 70.15 62.85 Z M 75.58 57.36 C 74.75 55.18 75.86 54.16 77.04 56.03 C 78.22 57.90 78.25 59.00 77.11 59.00 C 76.62 59.00 75.93 58.26 75.58 57.36 Z M 69.75 48.53 C 71.24 46.07 72.83 44.43 73.28 44.88 C 74.38 45.98 70.18 53.00 68.43 53.00 C 67.45 53.00 67.84 51.68 69.75 48.53 Z M 7.03 47.00 C 6.19 41.62 6.11 36.00 6.88 36.00 C 8.40 36.00 8.73 38.26 7.98 43.50 C 7.59 46.25 7.16 47.83 7.03 47.00 Z M 12.50 10.00 C 12.16 9.45 12.58 9.00 13.44 9.00 C 14.30 9.00 15.00 9.45 15.00 10.00 C 15.00 10.55 14.58 11.00 14.06 11.00 C 13.54 11.00 12.84 10.55 12.50 10.00 Z M 16.00 10.00 C 16.00 9.45 16.45 9.00 17.00 9.00 C 17.55 9.00 18.00 9.45 18.00 10.00 C 18.00 10.55 17.55 11.00 17.00 11.00 C 16.45 11.00 16.00 10.55 16.00 10.00 Z M 21.81 10.32 C 22.53 10.03 23.40 10.06 23.73 10.40 C 24.06 10.73 23.47 10.96 22.42 10.92 C 21.25 10.87 21.01 10.64 21.81 10.32 Z M 38.75 10.34 C 39.44 10.06 40.56 10.06 41.25 10.34 C 41.94 10.62 41.38 10.84 40.00 10.84 C 38.62 10.84 38.06 10.62 38.75 10.34 Z M 57.00 10.00 C 57.00 9.45 57.45 9.00 58.00 9.00 C 58.55 9.00 59.00 9.45 59.00 10.00 C 59.00 10.55 58.55 11.00 58.00 11.00 C 57.45 11.00 57.00 10.55 57.00 10.00 Z M 68.42 9.87 C 68.12 9.39 69.26 9.00 70.94 9.00 C 72.62 9.00 74.00 9.17 74.00 9.38 C 74.00 10.23 68.91 10.67 68.42 9.87 Z M 76.00 8.97 C 76.00 8.44 76.67 8.00 77.50 8.00 C 78.33 8.00 79.00 8.18 79.00 8.39 C 79.00 8.61 78.33 9.05 77.50 9.36 C 76.67 9.68 76.00 9.50 76.00 8.97 Z" fill="none" stroke="rgba(255,255,255,0.92)" stroke-width="1.2" stroke-linejoin="round" fill-rule="evenodd"/>
</svg>
