<svg xmlns="http://www.w3.org/2000/svg" viewBox="0 0 385 400" width="385" height="400">
  <path d="M 0.00 200.00 L 0.00 0.00 L 192.50 0.00 L 385.00 0.00 L 385.00 200.00 L 385.00 400.00 L 192.50 400.00 L 0.00 400.00 L 0.00 200.00 Z M 40.50 392.96 C 52.05 392.99 62.40 393.02 63.50 393.04 C 79.24 393.23 133.17 392.12 135.14 391.57 C 136.59 391.17 138.01 391.21 138.30 391.67 C 138.58 392.13 151.56 392.37 167.15 392.20 C 182.74 392.04 196.85 391.96 198.50 392.04 C 200.15 392.11 202.96 392.14 204.75 392.11 C 206.54 392.08 209.12 392.05 210.50 392.05 C 216.44 392.05 220.21 392.02 223.25 391.94 C 226.34 391.86 256.13 391.81 262.50 391.87 C 266.11 391.91 271.83 391.88 328.50 391.53 C 352.70 391.38 373.48 391.20 374.67 391.13 L 376.84 391.00 L 376.79 349.75 C 376.76 316.84 376.47 307.91 375.37 305.59 C 374.19 303.10 374.20 302.44 375.40 301.09 C 376.24 300.14 376.62 298.28 376.33 296.50 C 376.07 294.85 375.86 287.44 375.86 280.04 C 375.85 272.64 375.43 265.81 374.92 264.85 C 374.32 263.73 374.39 262.23 375.12 260.63 C 376.56 257.47 375.42 251.10 373.25 250.27 C 372.36 249.92 371.44 250.17 371.22 250.83 C 370.52 252.94 369.00 250.97 369.00 247.94 C 369.00 246.32 369.19 245.00 369.42 245.00 C 369.65 245.00 370.66 244.69 371.67 244.31 C 373.26 243.71 373.33 243.84 372.16 245.27 C 370.67 247.10 371.37 249.00 373.54 249.00 C 375.55 249.00 376.40 244.63 375.27 240.17 C 374.74 238.09 374.63 235.51 375.02 234.44 C 375.60 232.87 375.55 224.42 374.87 211.00 C 374.77 208.95 374.91 199.06 375.08 196.00 C 375.16 194.62 375.22 192.82 375.21 192.00 C 375.02 165.41 374.92 145.87 374.97 142.50 C 375.25 122.66 374.45 105.25 373.19 103.73 C 372.19 102.52 372.24 102.12 373.47 101.65 C 375.23 100.97 375.46 97.33 373.98 93.44 C 373.34 91.78 373.31 90.33 373.89 89.63 C 374.40 89.01 374.64 83.33 374.41 77.00 C 374.19 70.67 374.06 54.93 374.13 42.00 C 374.28 13.96 374.22 11.82 373.12 10.72 C 372.07 9.67 372.39 9.67 333.00 10.44 C 315.12 10.79 288.35 11.30 273.50 11.57 C 258.65 11.85 245.60 12.09 244.50 12.12 C 243.40 12.14 241.38 12.05 240.00 11.91 C 237.83 11.69 212.06 12.19 154.00 13.56 C 145.47 13.76 109.48 14.15 74.00 14.43 L 9.50 14.94 L 8.95 17.72 C 8.65 19.25 8.52 35.35 8.66 53.50 C 8.80 71.65 9.00 108.77 9.11 136.00 C 9.23 163.23 9.68 186.50 10.12 187.71 C 10.56 188.93 10.59 190.13 10.19 190.38 C 9.79 190.63 9.58 196.16 9.73 202.67 C 9.87 209.18 10.00 214.95 10.01 215.50 C 10.02 216.05 9.98 221.00 9.92 226.50 C 9.51 263.70 10.36 303.68 11.61 306.15 C 12.70 308.32 12.71 308.90 11.65 309.30 C 10.66 309.68 10.45 312.37 10.77 320.65 C 11.17 331.27 11.22 336.23 10.95 339.75 C 10.88 340.71 10.87 346.23 10.93 352.00 C 10.99 357.77 11.04 363.40 11.03 364.50 C 10.99 372.28 11.76 386.09 12.26 386.60 C 12.60 386.93 12.43 388.36 11.90 389.77 C 10.67 392.99 12.28 394.29 16.50 393.49 C 18.15 393.17 28.95 392.94 40.50 392.96 Z M 23.50 390.00 C 23.84 389.45 25.02 389.00 26.12 389.00 C 27.22 389.00 27.84 389.45 27.50 390.00 C 27.16 390.55 25.98 391.00 24.88 391.00 C 23.78 391.00 23.16 390.55 23.50 390.00 Z M 38.57 390.12 C 38.27 389.63 39.01 388.97 40.22 388.65 C 43.15 387.89 43.66 388.58 41.15 389.92 C 40.01 390.53 38.88 390.62 38.57 390.12 Z M 50.00 389.50 C 51.35 387.88 55.00 387.43 55.00 388.89 C 55.00 389.91 52.57 391.00 50.30 391.00 C 49.04 391.00 48.99 390.72 50.00 389.50 Z M 60.44 389.53 C 59.24 388.63 59.00 388.05 59.81 388.03 C 60.53 388.01 60.84 387.55 60.50 387.00 C 59.80 385.87 62.10 385.80 108.75 385.62 C 126.49 385.56 141.00 385.81 141.00 386.18 C 141.00 387.21 137.17 388.22 136.01 387.51 C 135.45 387.16 135.00 387.30 135.00 387.82 C 135.00 388.33 133.72 389.01 132.16 389.32 C 128.37 390.08 117.91 388.95 118.58 387.86 C 118.88 387.39 117.91 387.00 116.44 387.00 C 114.17 387.00 113.95 387.23 115.00 388.50 C 116.19 389.94 115.65 390.48 113.50 390.02 C 110.13 389.29 94.33 389.33 91.75 390.07 C 89.81 390.63 88.21 390.59 87.45 389.96 C 86.79 389.41 85.52 389.25 84.63 389.59 C 83.73 389.93 82.21 389.89 81.25 389.50 C 79.64 388.84 79.66 388.72 81.50 387.96 C 83.40 387.18 83.39 387.14 81.25 387.07 C 79.89 387.03 79.00 387.59 79.00 388.50 C 79.00 389.32 78.31 390.00 77.47 390.00 C 76.63 390.00 75.68 389.32 75.36 388.50 C 75.05 387.68 74.36 387.00 73.83 387.00 C 73.31 387.00 73.16 387.45 73.50 388.00 C 73.87 388.60 72.53 389.00 70.12 389.00 C 67.92 389.00 65.84 389.45 65.50 390.00 C 64.62 391.42 62.70 391.24 60.44 389.53 Z M 138.50 390.00 C 138.84 389.45 139.57 389.00 140.12 389.00 C 140.67 389.00 140.84 389.45 140.50 390.00 C 140.16 390.55 139.43 391.00 138.88 391.00 C 138.33 391.00 138.16 390.55 138.50 390.00 Z M 142.54 389.07 C 142.15 388.43 142.82 387.97 144.19 387.93 C 146.37 387.86 146.39 387.81 144.50 387.00 C 141.96 385.91 141.55 385.95 154.50 385.91 C 169.51 385.86 177.95 386.18 175.25 386.71 C 174.01 386.94 173.00 387.57 173.00 388.10 C 173.00 388.68 167.70 389.02 159.75 388.94 C 152.46 388.87 145.76 389.11 144.85 389.47 C 143.94 389.84 142.91 389.66 142.54 389.07 Z M 182.00 389.00 C 180.84 388.25 181.13 388.03 183.31 388.02 C 184.93 388.01 185.86 388.42 185.50 389.00 C 184.73 390.24 183.92 390.24 182.00 389.00 Z M 188.00 389.22 C 188.00 387.81 192.28 386.88 193.43 388.03 C 194.06 388.66 193.82 389.00 192.78 389.00 C 191.89 389.00 190.45 389.27 189.58 389.61 C 188.71 389.94 188.00 389.77 188.00 389.22 Z M 203.50 389.00 C 203.16 388.45 203.58 388.00 204.44 388.00 C 205.30 388.00 206.00 388.45 206.00 389.00 C 206.00 389.55 205.58 390.00 205.06 390.00 C 204.54 390.00 203.84 389.55 203.50 389.00 Z M 211.58 388.88 C 211.87 388.39 212.99 388.00 214.06 388.00 C 215.13 388.00 216.00 388.39 216.00 388.88 C 216.00 389.36 214.88 389.75 213.52 389.75 C 212.15 389.75 211.28 389.36 211.58 388.88 Z M 228.50 389.00 C 228.15 388.43 229.01 388.00 230.50 388.00 C 231.99 388.00 232.85 388.43 232.50 389.00 C 232.16 389.55 231.26 390.00 230.50 390.00 C 229.74 390.00 228.84 389.55 228.50 389.00 Z M 290.50 389.00 C 288.98 388.35 289.58 388.13 293.00 388.09 C 296.26 388.05 297.09 388.30 296.00 389.00 C 294.22 390.15 293.18 390.15 290.50 389.00 Z M 29.45 388.08 C 29.77 387.57 29.23 386.94 28.26 386.69 C 26.78 386.30 26.76 386.21 28.14 386.12 C 29.03 386.05 31.28 386.66 33.14 387.46 L 36.50 388.92 L 32.69 388.96 C 30.60 388.98 29.14 388.58 29.45 388.08 Z M 96.92 387.37 C 97.15 387.17 95.26 387.00 92.73 387.00 C 90.19 387.00 87.82 387.48 87.45 388.08 C 86.99 388.83 88.27 388.94 91.64 388.45 C 94.31 388.06 96.69 387.58 96.92 387.37 Z M 129.00 387.39 C 129.00 387.18 128.07 387.00 126.94 387.00 C 125.81 387.00 125.15 387.43 125.47 387.96 C 126.01 388.82 129.00 388.34 129.00 387.39 Z M 240.26 388.28 C 241.78 388.05 244.03 388.06 245.26 388.30 C 246.49 388.53 245.25 388.72 242.50 388.71 C 239.75 388.71 238.74 388.51 240.26 388.28 Z M 256.27 388.31 C 257.24 388.05 258.59 388.07 259.27 388.34 C 259.95 388.62 259.15 388.83 257.50 388.81 C 255.85 388.78 255.30 388.56 256.27 388.31 Z M 268.26 388.31 C 269.23 388.06 269.77 387.43 269.45 386.92 C 269.14 386.41 270.91 386.00 273.44 386.00 C 275.95 386.00 278.00 386.42 278.00 386.94 C 278.00 387.46 279.69 388.06 281.75 388.27 C 283.81 388.49 281.23 388.69 276.00 388.72 C 270.77 388.74 267.29 388.56 268.26 388.31 Z M 298.00 388.11 C 298.00 387.62 298.68 386.95 299.50 386.64 C 300.41 386.29 301.00 386.64 301.00 387.53 C 301.00 388.34 300.32 389.00 299.50 389.00 C 298.68 389.00 298.00 388.60 298.00 388.11 Z M 303.75 388.34 C 304.44 388.06 305.56 388.06 306.25 388.34 C 306.94 388.62 306.38 388.84 305.00 388.84 C 303.62 388.84 303.06 388.62 303.75 388.34 Z M 317.00 388.31 C 317.82 388.01 319.00 387.14 319.62 386.37 C 320.45 385.34 321.37 385.22 323.12 385.92 L 325.50 386.87 L 323.25 386.94 C 322.01 386.97 321.00 387.45 321.00 388.00 C 321.00 388.55 319.76 388.96 318.25 388.92 C 316.73 388.88 316.17 388.60 317.00 388.31 Z M 327.00 388.00 C 328.33 387.14 328.33 387.03 327.00 386.98 C 325.85 386.95 325.96 386.59 327.44 385.47 C 328.51 384.66 330.53 384.03 331.94 384.06 L 334.50 384.13 L 332.09 385.09 C 329.76 386.02 329.75 386.10 331.59 387.49 C 333.36 388.83 333.20 388.94 329.50 388.95 C 326.56 388.97 325.90 388.71 327.00 388.00 Z M 342.50 388.00 C 342.84 387.45 343.96 387.00 345.00 387.00 C 346.04 387.00 347.16 387.45 347.50 388.00 C 347.86 388.58 346.82 389.00 345.00 389.00 C 343.18 389.00 342.14 388.58 342.50 388.00 Z M 354.50 388.00 C 354.84 387.45 356.24 387.00 357.62 387.00 C 359.03 387.00 359.85 387.44 359.50 388.00 C 359.16 388.55 357.76 389.00 356.38 389.00 C 354.97 389.00 354.15 388.56 354.50 388.00 Z M 367.00 388.00 C 367.00 387.45 367.65 387.00 368.44 387.00 C 369.23 387.00 370.16 387.45 370.50 388.00 C 370.84 388.55 370.19 389.00 369.06 389.00 C 367.93 389.00 367.00 388.55 367.00 388.00 Z M 112.27 387.34 C 111.59 387.07 110.24 387.05 109.27 387.31 C 108.30 387.56 108.85 387.78 110.50 387.81 C 112.15 387.83 112.95 387.62 112.27 387.34 Z M 221.00 386.91 C 221.00 386.41 221.90 386.00 223.00 386.00 C 224.10 386.00 225.00 386.17 225.00 386.38 C 225.00 386.59 224.10 387.00 223.00 387.29 C 221.90 387.58 221.00 387.40 221.00 386.91 Z M 249.50 387.00 C 247.90 386.31 248.27 386.13 251.31 386.07 C 253.61 386.03 254.87 386.40 254.50 387.00 C 253.77 388.18 252.25 388.18 249.50 387.00 Z M 260.00 387.00 C 260.00 386.45 261.46 386.03 263.25 386.07 C 265.97 386.13 266.18 386.28 264.50 387.00 C 261.74 388.19 260.00 388.19 260.00 387.00 Z M 284.50 387.00 C 284.13 386.41 285.24 386.01 287.19 386.02 C 289.70 386.03 290.14 386.27 289.00 387.00 C 287.06 388.26 285.28 388.26 284.50 387.00 Z M 23.51 385.98 C 23.86 385.42 24.56 385.23 25.07 385.54 C 26.46 386.40 26.20 387.00 24.44 387.00 C 23.58 387.00 23.16 386.54 23.51 385.98 Z M 42.00 386.62 C 42.00 385.71 45.90 385.32 47.14 386.11 C 48.06 386.69 47.46 386.97 45.25 386.98 C 43.46 386.99 42.00 386.83 42.00 386.62 Z M 51.81 386.32 C 52.53 386.03 53.40 386.06 53.73 386.40 C 54.06 386.73 53.47 386.96 52.42 386.92 C 51.25 386.87 51.01 386.64 51.81 386.32 Z M 212.81 386.32 C 213.53 386.03 214.40 386.06 214.73 386.40 C 215.06 386.73 214.47 386.96 213.42 386.92 C 212.25 386.87 212.01 386.64 212.81 386.32 Z M 307.10 385.92 C 305.79 385.39 304.98 384.69 305.31 384.36 C 306.19 383.47 311.00 384.88 311.00 386.02 C 311.00 387.20 310.26 387.18 307.10 385.92 Z M 315.00 386.00 C 315.00 385.45 315.45 385.00 316.00 385.00 C 316.55 385.00 317.00 385.45 317.00 386.00 C 317.00 386.55 316.55 387.00 316.00 387.00 C 315.45 387.00 315.00 386.55 315.00 386.00 Z M 338.81 386.32 C 339.53 386.03 340.40 386.06 340.73 386.40 C 341.06 386.73 340.47 386.96 339.42 386.92 C 338.25 386.87 338.01 386.64 338.81 386.32 Z M 353.50 386.00 C 353.84 385.45 354.32 385.00 354.56 385.00 C 354.80 385.00 355.00 385.45 355.00 386.00 C 355.00 386.55 354.52 387.00 353.94 387.00 C 353.36 387.00 353.16 386.55 353.50 386.00 Z M 191.00 384.00 C 191.00 383.45 191.45 383.00 192.00 383.00 C 192.55 383.00 193.00 383.45 193.00 384.00 C 193.00 384.55 192.55 385.00 192.00 385.00 C 191.45 385.00 191.00 384.55 191.00 384.00 Z M 368.00 383.50 C 368.68 382.68 369.63 382.00 370.09 382.00 C 370.56 382.00 370.68 382.68 370.36 383.50 C 370.05 384.32 369.10 385.00 368.27 385.00 C 367.04 385.00 366.99 384.72 368.00 383.50 Z M 15.00 383.12 C 15.00 381.84 17.94 379.61 18.67 380.33 C 19.39 381.06 17.16 384.00 15.88 384.00 C 15.39 384.00 15.00 383.61 15.00 383.12 Z M 22.56 381.61 C 22.42 381.00 21.80 378.98 21.19 377.12 C 20.45 374.89 20.40 373.12 21.04 371.93 C 22.32 369.54 22.26 364.36 20.93 361.87 C 20.28 360.66 20.22 359.40 20.76 358.69 C 21.26 358.03 21.51 352.77 21.32 347.00 C 21.13 341.23 20.98 335.82 20.99 335.00 C 21.30 317.13 21.04 310.76 19.98 309.47 C 19.05 308.36 19.03 307.66 19.91 306.61 C 20.54 305.84 21.06 303.93 21.05 302.36 C 21.03 294.13 20.25 283.21 19.61 282.18 C 19.21 281.53 19.55 280.05 20.36 278.89 C 21.60 277.13 21.64 276.10 20.61 272.64 C 19.87 270.13 19.68 267.12 20.14 265.00 C 20.56 263.07 20.45 259.81 19.91 257.75 C 19.24 255.20 19.26 253.37 19.99 252.02 C 21.47 249.25 19.94 240.50 17.98 240.50 C 16.39 240.50 16.30 241.63 17.44 246.75 C 18.04 249.47 17.87 250.00 16.38 250.00 C 15.00 250.00 14.87 250.27 15.80 251.20 C 17.50 252.90 17.29 255.00 15.41 255.00 C 14.07 255.00 13.88 253.92 14.25 248.04 C 14.48 244.21 14.26 240.66 13.75 240.15 C 13.18 239.58 13.25 238.97 13.91 238.55 C 15.34 237.67 15.31 234.27 13.87 233.79 C 13.15 233.55 13.01 232.54 13.50 231.01 L 14.26 228.60 L 16.19 230.99 C 17.41 232.49 17.91 234.20 17.56 235.63 C 16.94 238.11 18.78 239.97 19.97 238.05 C 20.38 237.39 20.31 234.74 19.83 232.17 C 19.34 229.60 19.20 226.45 19.51 225.17 C 19.82 223.88 19.78 220.16 19.41 216.90 C 18.84 211.91 18.51 211.16 17.30 212.16 C 16.40 212.91 16.10 214.25 16.48 215.78 C 17.41 219.49 16.01 227.00 14.39 227.00 C 13.46 227.00 13.00 225.81 13.00 223.44 C 13.00 221.47 13.42 220.14 13.94 220.46 C 14.92 221.07 14.46 216.09 13.00 210.32 C 12.10 206.73 12.48 206.00 15.28 206.00 C 16.74 206.00 17.10 206.51 16.71 208.00 C 16.10 210.35 17.53 211.67 18.36 209.51 C 18.82 208.30 20.94 208.11 30.21 208.42 C 40.60 208.77 45.72 207.97 44.61 206.19 C 44.06 205.29 33.05 205.44 30.96 206.37 C 30.04 206.78 28.56 206.24 27.26 205.02 C 26.06 203.91 24.19 203.00 23.10 203.00 C 22.01 203.00 20.86 202.58 20.54 202.06 C 20.19 201.50 21.47 201.36 23.73 201.71 C 25.80 202.04 27.65 202.69 27.83 203.16 C 28.02 203.62 29.28 204.00 30.64 204.00 C 32.00 204.00 32.87 203.61 32.58 203.13 C 31.49 201.36 41.99 201.21 45.38 202.94 C 48.58 204.57 49.20 207.00 46.42 207.00 C 45.64 207.00 45.00 207.82 45.00 208.83 C 45.00 209.83 43.88 211.71 42.50 213.00 C 40.16 215.20 40.11 215.46 41.66 217.17 C 42.57 218.18 43.92 219.00 44.66 219.00 C 45.94 219.00 56.54 208.50 62.69 201.14 C 68.31 194.43 73.70 189.36 82.28 182.75 C 87.09 179.04 91.25 176.00 91.52 176.00 C 91.78 176.00 92.00 177.06 92.00 178.36 C 92.00 180.04 89.67 182.84 83.93 188.06 C 74.16 196.96 73.12 197.71 69.97 198.15 C 68.60 198.35 67.50 199.17 67.50 200.00 C 67.50 200.82 62.71 206.45 56.86 212.50 C 38.32 231.65 36.18 234.97 41.29 236.59 C 42.97 237.13 44.20 236.29 47.44 232.38 C 54.80 223.51 67.25 211.23 71.03 209.10 C 73.07 207.96 77.72 203.86 81.35 200.01 C 88.29 192.65 90.00 191.67 90.00 195.04 C 90.00 197.21 82.38 204.97 80.23 204.99 C 79.52 204.99 78.52 206.12 78.00 207.50 C 77.48 208.88 76.70 210.00 76.27 210.01 C 75.11 210.03 61.66 222.87 57.48 227.94 C 53.87 232.35 41.27 246.53 37.59 250.34 C 35.71 252.29 35.71 252.35 37.95 254.16 C 39.20 255.17 40.56 256.00 40.98 256.00 C 41.83 256.00 45.29 252.23 58.48 236.92 C 68.29 225.55 82.76 211.69 85.36 211.18 C 86.52 210.95 87.00 211.57 87.00 213.27 C 87.00 215.59 85.29 217.43 63.97 238.08 C 60.84 241.11 42.74 261.64 39.11 266.27 C 37.91 267.80 37.97 268.31 39.55 270.06 C 40.56 271.17 41.90 271.94 42.54 271.79 C 43.18 271.63 48.23 266.10 53.75 259.50 C 65.97 244.90 83.50 227.38 84.41 228.85 C 85.97 231.38 83.14 235.38 71.86 246.58 C 65.26 253.13 57.30 261.65 54.18 265.50 C 51.05 269.35 47.96 273.07 47.30 273.77 C 46.63 274.48 44.41 277.10 42.36 279.61 C 39.40 283.22 38.84 284.52 39.66 285.84 C 42.12 289.76 44.32 288.32 53.49 276.79 C 63.96 263.63 80.87 245.80 82.13 246.58 C 84.25 247.89 81.13 252.36 70.65 263.04 C 64.47 269.35 56.06 279.15 51.96 284.84 C 41.24 299.71 41.35 299.51 42.92 301.40 C 45.37 304.35 47.53 303.13 52.06 296.26 C 59.27 285.32 78.09 263.00 80.11 263.00 C 80.60 263.00 81.00 264.07 81.00 265.39 C 81.00 267.06 78.58 270.12 72.88 275.64 C 64.32 283.93 57.24 292.93 50.17 304.50 C 47.82 308.35 45.40 312.23 44.79 313.11 C 43.19 315.44 44.54 318.00 47.37 318.00 C 49.23 318.00 50.47 316.86 52.57 313.25 C 60.92 298.90 76.33 279.00 79.11 279.00 C 79.60 279.00 80.00 280.62 80.00 282.59 C 80.00 285.56 79.02 287.26 74.39 292.34 C 67.31 300.13 56.07 315.76 52.00 323.50 C 49.08 329.06 48.99 329.52 50.63 330.72 C 53.52 332.83 54.85 332.22 57.10 327.75 C 61.78 318.44 76.91 298.00 79.12 298.00 C 81.21 298.00 79.72 303.19 76.50 307.17 C 62.51 324.47 55.02 336.66 53.40 344.75 C 52.93 347.10 53.19 347.81 54.65 348.16 C 57.63 348.87 60.00 347.98 60.00 346.16 C 60.00 341.62 76.40 315.00 79.20 315.00 C 79.64 315.00 80.00 316.42 80.00 318.16 C 80.00 320.63 78.79 322.59 74.47 327.11 C 70.41 331.38 67.63 335.73 63.97 343.56 C 58.54 355.18 58.22 356.49 60.58 357.39 C 63.60 358.55 65.06 357.98 66.05 355.25 C 69.66 345.26 77.13 332.00 79.14 332.00 C 79.61 332.00 80.00 333.80 80.00 336.00 C 80.00 339.09 79.26 340.84 76.70 343.75 C 72.49 348.55 70.77 351.42 68.77 357.00 C 65.28 366.72 65.67 370.47 70.09 369.84 C 72.08 369.55 72.66 368.59 73.72 363.80 C 75.11 357.53 77.88 351.87 79.90 351.20 C 80.88 350.87 81.11 351.97 80.85 355.63 L 80.50 360.50 L 84.00 360.50 C 87.44 360.50 87.49 360.43 87.17 356.75 C 86.99 354.69 87.30 353.00 87.85 353.00 C 89.21 353.00 91.80 358.37 92.61 362.85 C 93.57 368.22 94.78 370.00 97.48 370.00 C 100.76 370.00 100.97 369.33 99.73 363.00 C 98.54 356.93 95.38 350.61 90.47 344.50 C 86.84 339.98 84.95 333.00 87.35 333.00 C 88.19 333.00 91.23 337.82 94.61 344.50 C 100.46 356.09 102.24 357.82 104.96 354.55 C 106.67 352.49 98.54 335.95 91.88 327.95 C 88.27 323.61 86.63 320.69 86.26 317.92 C 85.97 315.76 86.13 314.00 86.62 314.00 C 87.50 314.00 91.15 318.25 96.18 325.12 C 99.40 329.52 103.28 337.11 104.94 342.25 C 105.85 345.07 106.69 346.00 108.33 345.98 C 112.79 345.95 113.25 344.75 111.05 338.91 C 107.91 330.62 104.06 324.50 94.11 312.09 C 89.10 305.83 85.00 300.35 85.00 299.91 C 85.00 298.08 87.27 297.93 89.15 299.64 C 92.81 302.95 106.57 321.65 109.57 327.38 C 111.73 331.52 113.06 333.00 114.63 333.00 C 119.00 333.00 119.27 330.67 115.65 324.26 C 110.55 315.24 105.42 308.45 92.75 293.94 C 86.77 287.09 86.00 285.74 86.00 282.10 C 86.00 279.85 86.37 278.00 86.83 278.00 C 88.12 278.00 99.48 289.89 104.04 296.00 C 106.29 299.02 110.41 305.21 113.20 309.75 C 115.99 314.29 118.69 318.00 119.20 318.00 C 120.86 318.00 124.00 315.96 124.00 314.88 C 124.00 313.14 109.58 291.97 103.84 285.28 C 100.90 281.85 95.91 276.75 92.75 273.95 C 87.87 269.61 87.00 268.32 87.00 265.42 C 87.00 263.20 87.48 262.00 88.36 262.00 C 90.25 262.00 104.82 278.04 114.71 290.99 C 119.23 296.91 123.57 302.00 124.36 302.31 C 125.16 302.61 126.64 302.25 127.65 301.50 C 129.34 300.25 129.37 299.91 128.00 297.63 C 124.12 291.16 106.14 269.52 98.14 261.69 C 91.68 255.37 89.10 252.13 88.78 249.94 C 88.53 248.27 88.76 246.65 89.27 246.33 C 90.43 245.62 106.09 261.02 113.81 270.46 C 116.94 274.29 120.19 278.13 121.04 279.00 C 121.88 279.86 123.85 282.24 125.40 284.29 C 128.62 288.50 129.94 288.83 132.45 286.05 C 134.16 284.16 133.90 283.73 123.91 271.80 C 118.24 265.04 108.33 254.32 101.90 247.99 L 90.19 236.49 L 90.73 231.74 C 91.02 229.13 91.69 227.00 92.22 227.00 C 93.89 227.00 115.73 249.00 125.73 260.75 C 130.99 266.94 135.61 272.00 136.00 272.00 C 136.89 272.00 140.00 268.58 140.00 267.60 C 140.00 265.83 115.36 238.72 106.36 230.59 C 93.53 219.01 92.20 217.42 92.77 214.41 C 93.03 213.07 93.62 211.74 94.08 211.45 C 95.55 210.54 114.06 228.25 126.42 242.38 C 132.97 249.87 138.57 256.00 138.85 256.00 C 139.14 256.00 140.39 255.04 141.63 253.88 L 143.89 251.75 L 134.20 240.68 C 122.86 227.74 116.78 221.52 104.48 210.31 L 95.50 202.11 L 95.84 196.56 C 96.03 193.50 96.48 191.00 96.84 191.00 C 97.73 191.00 112.00 204.49 112.00 205.33 C 112.00 205.70 110.90 206.00 109.56 206.00 C 107.21 206.00 105.25 207.59 106.31 208.64 C 106.58 208.92 108.54 208.67 110.65 208.09 C 114.08 207.14 114.86 207.29 117.99 209.52 C 122.65 212.83 135.85 225.95 140.66 232.05 C 142.77 234.73 144.99 236.94 145.60 236.96 C 146.77 237.00 150.00 233.82 150.00 232.61 C 150.00 231.55 143.17 224.11 130.27 211.10 C 124.05 204.84 119.17 199.50 119.43 199.24 C 119.68 198.98 121.52 199.77 123.50 201.00 C 127.42 203.42 128.50 203.39 126.67 200.91 C 124.63 198.14 121.21 196.82 119.07 197.96 C 117.44 198.83 115.75 197.81 108.05 191.32 C 99.15 183.82 96.57 180.03 98.85 177.75 C 100.36 176.24 103.25 177.67 112.20 184.38 C 121.99 191.71 129.38 198.97 133.45 205.25 C 134.43 206.76 135.74 208.00 136.37 208.01 C 136.99 208.01 139.53 210.48 142.00 213.50 C 144.47 216.52 146.99 218.99 147.60 218.99 C 148.20 219.00 149.49 218.11 150.47 217.03 C 152.19 215.13 152.15 214.94 149.38 211.47 C 147.79 209.49 145.26 206.52 143.75 204.86 C 140.59 201.39 140.38 200.45 142.58 199.61 C 145.14 198.63 146.25 198.90 145.69 200.38 C 145.37 201.19 146.18 202.22 147.68 202.90 C 149.76 203.85 149.99 204.31 148.98 205.52 C 147.51 207.30 147.12 207.26 169.50 207.49 C 184.37 207.64 186.92 207.27 186.98 204.95 C 186.99 204.65 185.42 204.59 183.49 204.81 C 181.55 205.04 179.37 204.72 178.63 204.11 C 177.63 203.28 176.23 203.36 173.20 204.43 C 169.40 205.77 153.60 205.93 152.31 204.64 C 152.05 204.38 152.77 203.23 153.92 202.08 C 156.03 199.97 161.00 199.19 161.00 200.98 C 161.00 201.52 162.31 201.69 164.00 201.35 C 165.65 201.02 167.56 201.20 168.25 201.76 C 169.08 202.42 171.85 202.44 176.44 201.82 C 183.54 200.84 187.36 201.71 189.30 204.75 C 190.61 206.80 192.19 206.19 191.47 203.90 C 190.91 202.15 191.13 201.91 192.76 202.42 C 195.11 203.17 198.21 202.15 197.44 200.90 C 196.82 199.90 198.32 199.66 199.26 200.60 C 200.09 201.43 199.00 204.00 197.82 204.00 C 197.29 204.00 196.18 204.68 195.36 205.50 C 194.53 206.33 192.96 207.00 191.86 207.00 C 190.77 207.00 189.04 207.44 188.03 207.98 C 186.30 208.91 186.22 210.43 186.65 233.23 C 187.19 262.03 187.14 258.29 187.10 265.00 C 187.08 268.02 187.26 276.80 187.50 284.50 C 187.73 292.20 187.90 299.06 187.88 299.75 C 187.72 304.17 187.68 309.86 187.79 312.00 C 187.94 314.90 188.18 349.40 188.07 352.75 C 188.03 353.99 187.97 356.01 187.93 357.25 C 187.89 358.49 188.00 364.45 188.18 370.50 L 188.50 381.50 L 152.50 381.76 C 132.70 381.91 95.42 382.18 69.66 382.37 C 36.02 382.62 22.75 382.40 22.56 381.61 Z M 197.48 378.98 C 197.68 377.37 198.13 375.17 198.48 374.08 C 198.82 372.99 198.60 370.24 197.99 367.97 C 197.16 364.88 197.17 363.49 198.05 362.44 C 198.70 361.66 198.90 360.23 198.50 359.26 C 198.10 358.29 197.84 350.91 197.93 342.85 C 198.10 326.68 197.59 323.03 195.14 322.94 C 193.91 322.89 194.02 322.66 195.56 322.04 C 197.58 321.22 197.61 320.71 197.30 290.35 C 196.58 220.30 196.41 211.45 195.73 210.36 C 194.40 208.22 197.75 206.96 204.63 207.01 C 208.41 207.04 212.62 207.04 214.00 207.00 C 216.83 206.93 224.49 206.87 227.50 206.89 C 228.60 206.89 231.30 206.87 233.50 206.84 C 237.41 206.78 241.23 206.85 244.75 207.03 C 253.40 207.47 314.81 206.23 315.85 205.60 C 316.62 205.12 318.15 205.28 319.45 205.97 C 321.11 206.86 322.70 206.90 325.49 206.13 C 327.65 205.53 329.98 205.45 330.89 205.93 C 331.78 206.39 337.45 206.56 343.50 206.29 C 355.34 205.78 355.51 205.78 361.50 206.21 L 365.50 206.50 L 365.50 234.00 C 365.50 249.12 365.84 262.03 366.27 262.68 C 366.69 263.33 366.64 264.11 366.15 264.40 C 365.12 265.04 365.46 314.67 366.51 317.26 C 366.90 318.23 366.68 319.67 366.02 320.47 C 365.28 321.37 365.08 323.11 365.52 325.08 C 365.90 326.81 366.31 340.22 366.43 354.87 L 366.65 381.50 L 281.88 381.70 L 197.11 381.90 L 197.48 378.98 Z M 192.00 378.94 C 192.00 378.36 192.45 378.16 193.00 378.50 C 193.55 378.84 194.00 379.32 194.00 379.56 C 194.00 379.80 193.55 380.00 193.00 380.00 C 192.45 380.00 192.00 379.52 192.00 378.94 Z M 369.67 377.33 C 369.30 376.97 369.00 375.79 369.00 374.71 C 369.00 373.09 369.25 372.97 370.50 374.00 C 371.32 374.68 372.00 375.86 372.00 376.62 C 372.00 378.08 370.78 378.45 369.67 377.33 Z M 191.75 374.46 C 191.48 373.08 191.61 371.74 192.02 371.49 C 192.43 371.23 192.99 372.15 193.25 373.54 C 193.52 374.92 193.39 376.26 192.98 376.51 C 192.57 376.77 192.01 375.85 191.75 374.46 Z M 15.00 371.62 C 15.00 370.86 15.90 370.00 17.00 369.71 C 19.36 369.09 19.53 369.62 17.57 371.57 C 15.77 373.37 15.00 373.38 15.00 371.62 Z M 193.25 370.02 C 192.56 368.93 192.00 367.23 192.01 366.26 C 192.01 365.08 192.51 365.46 193.53 367.42 C 195.31 370.83 195.08 372.95 193.25 370.02 Z M 371.00 369.56 C 371.00 366.49 371.57 366.25 372.29 369.00 C 372.58 370.10 372.40 371.25 371.91 371.56 C 371.41 371.87 371.00 370.97 371.00 369.56 Z M 14.00 367.61 C 14.00 366.84 14.71 365.94 15.58 365.61 C 17.87 364.73 19.00 364.86 19.00 366.00 C 19.00 366.55 18.32 367.00 17.50 367.00 C 16.68 367.00 16.00 367.45 16.00 368.00 C 16.00 368.55 15.55 369.00 15.00 369.00 C 14.45 369.00 14.00 368.37 14.00 367.61 Z M 191.53 361.71 C 191.10 360.72 191.03 359.63 191.38 359.29 C 192.39 358.27 193.21 359.70 192.74 361.67 C 192.33 363.42 192.27 363.42 191.53 361.71 Z M 369.15 361.45 C 369.34 360.47 370.11 359.46 370.85 359.22 C 371.71 358.93 372.07 359.41 371.85 360.55 C 371.66 361.53 370.89 362.54 370.15 362.78 C 369.29 363.07 368.93 362.59 369.15 361.45 Z M 15.69 361.36 C 14.89 360.56 15.80 359.00 17.06 359.00 C 17.58 359.00 18.00 359.68 18.00 360.50 C 18.00 362.05 16.82 362.49 15.69 361.36 Z M 194.08 359.42 C 194.13 358.25 194.36 358.01 194.68 358.81 C 194.97 359.53 194.94 360.40 194.60 360.73 C 194.27 361.06 194.04 360.47 194.08 359.42 Z M 15.25 357.28 C 14.56 357.03 14.07 355.42 14.15 353.67 C 14.30 350.53 14.30 350.53 14.72 353.33 C 15.02 355.27 15.59 355.99 16.57 355.61 C 17.36 355.31 18.00 355.47 18.00 355.97 C 18.00 357.22 16.75 357.82 15.25 357.28 Z M 371.08 356.42 C 371.13 355.25 371.36 355.01 371.68 355.81 C 371.97 356.53 371.94 357.40 371.60 357.73 C 371.27 358.06 371.04 357.47 371.08 356.42 Z M 191.00 355.06 C 191.00 354.54 191.45 353.84 192.00 353.50 C 192.55 353.16 193.00 353.58 193.00 354.44 C 193.00 355.30 192.55 356.00 192.00 356.00 C 191.45 356.00 191.00 355.58 191.00 355.06 Z M 15.50 351.00 C 15.16 350.45 15.58 350.00 16.44 350.00 C 17.30 350.00 18.00 350.45 18.00 351.00 C 18.00 351.55 17.58 352.00 17.06 352.00 C 16.54 352.00 15.84 351.55 15.50 351.00 Z M 191.61 349.42 C 190.78 347.25 190.75 347.30 193.00 346.71 C 194.10 346.42 195.00 346.56 195.00 347.01 C 195.00 348.58 193.78 351.00 193.00 351.00 C 192.57 351.00 191.94 350.29 191.61 349.42 Z M 370.00 349.50 C 370.00 348.68 370.18 348.00 370.39 348.00 C 370.61 348.00 371.05 348.68 371.36 349.50 C 371.68 350.32 371.50 351.00 370.97 351.00 C 370.44 351.00 370.00 350.32 370.00 349.50 Z M 14.67 347.33 C 14.30 346.97 14.00 345.39 14.00 343.83 C 14.00 341.13 14.08 341.08 15.79 342.75 C 17.91 344.83 18.40 348.00 16.60 348.00 C 15.91 348.00 15.03 347.70 14.67 347.33 Z M 371.02 343.25 C 371.03 339.81 371.30 338.92 372.00 340.00 C 373.28 341.98 373.28 348.00 372.00 348.00 C 371.45 348.00 371.01 345.86 371.02 343.25 Z M 190.94 342.11 C 191.49 341.08 191.89 338.60 191.81 336.61 C 191.67 332.93 192.46 331.12 193.67 332.33 C 194.04 332.70 194.54 335.48 194.79 338.50 C 195.24 343.90 195.20 344.00 192.59 344.00 C 190.29 344.00 190.07 343.74 190.94 342.11 Z M 15.75 340.31 C 14.79 340.06 14.00 338.99 14.00 337.93 C 14.00 334.92 17.47 335.46 17.64 338.50 C 17.72 339.88 17.72 340.95 17.64 340.88 C 17.56 340.82 16.71 340.56 15.75 340.31 Z M 369.67 337.33 C 368.35 336.02 368.97 331.00 370.44 331.00 C 372.49 331.00 373.16 332.51 372.42 335.45 C 371.78 338.00 370.92 338.59 369.67 337.33 Z M 15.25 332.28 C 13.84 331.78 13.52 329.00 14.88 329.00 C 16.19 329.00 18.22 331.75 17.30 332.28 C 16.86 332.53 15.94 332.53 15.25 332.28 Z M 193.60 330.40 C 193.24 329.47 193.18 328.49 193.45 328.21 C 193.73 327.94 194.24 328.47 194.60 329.40 C 194.96 330.33 195.02 331.31 194.75 331.59 C 194.47 331.86 193.96 331.33 193.60 330.40 Z M 371.00 328.23 C 371.00 327.12 371.68 325.95 372.50 325.64 C 373.38 325.30 374.00 325.62 374.00 326.41 C 374.00 327.15 373.32 328.32 372.50 329.00 C 371.25 330.04 371.00 329.91 371.00 328.23 Z M 14.19 321.62 C 14.40 316.71 14.61 316.25 16.21 317.11 C 18.80 318.50 18.64 324.59 15.98 326.01 C 14.06 327.04 13.98 326.82 14.19 321.62 Z M 191.16 323.14 C 189.76 318.47 189.74 318.00 190.91 318.00 C 191.86 318.00 193.54 325.80 192.76 326.57 C 192.52 326.82 191.80 325.27 191.16 323.14 Z M 369.16 324.00 C 369.16 322.62 369.38 322.06 369.66 322.75 C 369.94 323.44 369.94 324.56 369.66 325.25 C 369.38 325.94 369.16 325.38 369.16 324.00 Z M 371.75 322.42 C 371.34 322.01 371.00 320.75 371.00 319.63 C 371.00 318.16 371.30 317.90 372.09 318.69 C 372.70 319.30 373.03 320.55 372.84 321.48 C 372.65 322.42 372.16 322.84 371.75 322.42 Z M 193.25 317.29 C 192.56 315.81 192.00 313.59 192.00 312.36 C 192.00 311.13 191.55 309.84 191.00 309.50 C 190.45 309.16 190.00 308.18 190.00 307.32 C 190.00 306.10 190.31 306.01 191.38 306.90 C 192.46 307.80 192.92 307.66 193.44 306.30 C 193.98 304.88 194.27 304.81 194.97 305.95 C 195.50 306.81 195.26 308.19 194.34 309.60 C 193.18 311.37 193.11 312.33 193.99 313.98 C 194.62 315.15 194.98 316.98 194.81 318.04 C 194.54 319.71 194.33 319.61 193.25 317.29 Z M 13.62 314.28 C 13.34 314.01 13.51 313.05 13.99 312.14 C 14.46 311.24 15.10 309.71 15.40 308.75 C 15.69 307.79 16.42 307.00 17.00 307.00 C 17.75 307.00 17.74 307.63 16.97 309.06 C 16.17 310.56 16.16 311.49 16.95 312.44 C 17.78 313.44 17.57 313.88 16.08 314.27 C 15.00 314.55 13.89 314.56 13.62 314.28 Z M 371.00 314.00 C 371.00 313.45 371.48 313.00 372.06 313.00 C 372.64 313.00 372.84 313.45 372.50 314.00 C 372.16 314.55 371.68 315.00 371.44 315.00 C 371.20 315.00 371.00 314.55 371.00 314.00 Z M 369.12 307.17 C 369.00 301.72 370.15 300.71 372.41 304.28 C 373.20 305.54 373.05 306.26 371.81 307.22 C 370.91 307.93 369.96 309.40 369.70 310.50 C 369.44 311.60 369.18 310.10 369.12 307.17 Z M 14.00 305.00 C 14.00 304.45 14.45 304.00 15.00 304.00 C 15.55 304.00 16.00 304.45 16.00 305.00 C 16.00 305.55 15.55 306.00 15.00 306.00 C 14.45 306.00 14.00 305.55 14.00 305.00 Z M 192.33 300.59 C 192.95 299.26 193.77 298.36 194.14 298.59 C 195.26 299.28 193.86 303.00 192.48 303.00 C 191.47 303.00 191.43 302.48 192.33 300.59 Z M 14.27 296.08 C 14.40 292.41 14.98 289.50 15.63 289.29 C 17.17 288.78 18.31 292.09 17.03 293.37 C 15.51 294.89 15.78 297.00 17.50 297.00 C 19.57 297.00 19.39 298.92 17.25 299.71 C 16.29 300.06 15.17 300.84 14.77 301.43 C 14.36 302.02 14.14 299.61 14.27 296.08 Z M 369.00 297.70 C 369.00 296.98 369.56 295.80 370.25 295.07 C 371.25 294.01 371.25 293.66 370.25 293.29 C 369.47 293.00 369.01 290.90 369.01 287.67 C 369.03 281.08 369.86 278.00 371.63 278.00 C 372.77 278.00 372.95 279.93 372.61 288.25 C 372.38 293.89 372.15 298.61 372.10 298.75 C 371.74 299.68 369.00 298.75 369.00 297.70 Z M 191.00 292.00 C 191.00 291.45 191.45 291.00 192.00 291.00 C 192.55 291.00 193.00 291.45 193.00 292.00 C 193.00 292.55 192.55 293.00 192.00 293.00 C 191.45 293.00 191.00 292.55 191.00 292.00 Z M 191.43 287.68 C 190.63 285.59 191.63 284.23 192.98 285.58 C 193.54 286.14 193.56 287.10 193.01 287.98 C 192.24 289.22 192.00 289.18 191.43 287.68 Z M 14.27 282.00 C 14.27 279.80 14.66 278.00 15.14 278.00 C 15.61 278.00 16.00 278.68 16.00 279.50 C 16.00 280.32 16.51 281.00 17.12 281.00 C 17.87 281.00 17.81 281.52 16.94 282.58 C 15.85 283.88 15.87 284.31 17.06 285.06 C 18.19 285.77 18.04 285.97 16.39 285.98 C 14.58 286.00 14.27 285.41 14.27 282.00 Z M 190.00 280.00 C 190.00 279.45 190.45 279.00 191.00 279.00 C 191.55 279.00 192.00 279.45 192.00 280.00 C 192.00 280.55 191.55 281.00 191.00 281.00 C 190.45 281.00 190.00 280.55 190.00 280.00 Z M 15.29 276.09 C 14.31 274.52 14.39 274.07 15.72 273.56 C 17.36 272.92 19.21 274.73 18.67 276.44 C 18.12 278.18 16.49 278.02 15.29 276.09 Z M 192.00 275.56 C 192.00 272.49 192.57 272.25 193.29 275.00 C 193.58 276.10 193.40 277.25 192.91 277.56 C 192.41 277.87 192.00 276.97 192.00 275.56 Z M 369.06 272.50 C 369.06 270.85 369.72 268.63 370.53 267.56 C 371.93 265.71 372.00 265.77 372.00 268.62 C 372.00 270.27 371.34 272.49 370.53 273.56 C 369.14 275.40 369.06 275.35 369.06 272.50 Z M 13.83 267.54 C 13.74 265.04 13.63 262.21 13.58 261.25 C 13.53 260.16 14.35 259.38 15.75 259.18 C 17.63 258.91 18.00 259.33 17.98 261.68 C 17.98 263.23 17.55 265.16 17.04 265.97 C 16.46 266.89 16.49 267.89 17.12 268.65 C 17.84 269.51 17.53 270.18 16.06 270.97 C 14.13 272.00 13.99 271.79 13.83 267.54 Z M 190.67 270.33 C 190.30 269.97 190.00 269.01 190.00 268.21 C 190.00 267.03 190.28 266.99 191.50 268.00 C 192.32 268.68 193.00 269.64 193.00 270.12 C 193.00 271.16 191.62 271.28 190.67 270.33 Z M 192.67 265.33 C 191.71 264.38 191.84 263.00 192.89 263.00 C 193.38 263.00 194.05 263.68 194.36 264.50 C 194.95 266.02 193.88 266.55 192.67 265.33 Z M 368.50 264.00 C 368.16 263.45 368.36 263.00 368.94 263.00 C 369.52 263.00 370.00 263.45 370.00 264.00 C 370.00 264.55 369.80 265.00 369.56 265.00 C 369.32 265.00 368.84 264.55 368.50 264.00 Z M 370.25 261.34 C 368.53 260.64 368.68 258.34 370.48 257.64 C 371.37 257.31 371.71 256.42 371.34 255.45 C 370.86 254.18 370.55 254.11 369.92 255.14 C 369.47 255.85 368.88 256.22 368.61 255.94 C 367.55 254.89 369.87 252.74 371.42 253.33 C 372.62 253.79 372.98 255.01 372.78 257.98 C 372.62 260.19 372.27 261.96 372.00 261.92 C 371.73 261.88 370.94 261.62 370.25 261.34 Z M 192.00 259.00 C 192.00 258.45 192.45 258.00 193.00 258.00 C 193.55 258.00 194.00 258.45 194.00 259.00 C 194.00 259.55 193.55 260.00 193.00 260.00 C 192.45 260.00 192.00 259.55 192.00 259.00 Z M 190.75 255.34 C 191.44 255.06 192.56 255.06 193.25 255.34 C 193.94 255.62 193.38 255.84 192.00 255.84 C 190.62 255.84 190.06 255.62 190.75 255.34 Z M 190.00 252.50 C 190.00 251.68 190.73 251.00 191.62 251.00 C 192.95 251.00 193.02 251.27 192.00 252.50 C 191.32 253.32 190.59 254.00 190.38 254.00 C 190.17 254.00 190.00 253.32 190.00 252.50 Z M 190.00 246.06 C 190.00 245.54 190.45 244.84 191.00 244.50 C 191.55 244.16 192.00 244.58 192.00 245.44 C 192.00 246.30 191.55 247.00 191.00 247.00 C 190.45 247.00 190.00 246.58 190.00 246.06 Z M 369.07 241.75 C 369.11 241.06 369.51 239.60 369.96 238.50 C 370.72 236.66 370.84 236.64 371.50 238.25 C 371.89 239.21 371.95 240.68 371.64 241.50 C 370.94 243.31 368.97 243.50 369.07 241.75 Z M 190.08 240.25 C 190.04 239.01 190.19 238.00 190.42 238.00 C 190.65 238.00 191.55 237.73 192.42 237.39 C 193.62 236.93 194.00 237.44 194.00 239.52 C 194.00 241.74 193.74 242.03 192.60 241.08 C 191.52 240.19 191.07 240.22 190.68 241.21 C 190.39 241.92 190.12 241.49 190.08 240.25 Z M 369.00 232.59 C 369.00 230.68 369.41 230.29 371.00 230.71 C 372.11 231.00 373.00 232.07 373.00 233.12 C 373.00 234.33 372.29 235.00 371.00 235.00 C 369.55 235.00 369.00 234.33 369.00 232.59 Z M 190.00 232.00 C 190.00 231.45 190.45 231.00 191.00 231.00 C 191.55 231.00 192.00 231.45 192.00 232.00 C 192.00 232.55 191.55 233.00 191.00 233.00 C 190.45 233.00 190.00 232.55 190.00 232.00 Z M 189.69 228.36 C 188.66 227.32 189.97 226.00 192.03 226.00 C 193.31 226.00 193.75 226.49 193.36 227.50 C 192.77 229.04 190.83 229.50 189.69 228.36 Z M 369.63 223.75 C 368.75 220.46 368.85 220.00 370.43 220.00 C 371.38 220.00 371.84 221.02 371.78 223.00 C 371.68 226.53 370.49 226.95 369.63 223.75 Z M 190.00 215.69 C 190.00 210.08 191.44 207.37 192.69 210.63 C 193.07 211.64 192.86 212.55 192.18 212.77 C 190.48 213.34 190.72 215.00 192.50 215.00 C 194.49 215.00 194.39 215.68 192.00 218.73 L 190.00 221.27 L 190.00 215.69 Z M 369.23 215.81 C 369.85 213.96 372.00 213.65 372.00 215.42 C 372.00 216.29 371.29 217.00 370.42 217.00 C 369.55 217.00 369.01 216.47 369.23 215.81 Z M 369.00 212.00 C 369.00 211.45 369.45 211.00 370.00 211.00 C 370.55 211.00 371.00 211.45 371.00 212.00 C 371.00 212.55 370.55 213.00 370.00 213.00 C 369.45 213.00 369.00 212.55 369.00 212.00 Z M 133.50 208.00 C 133.84 207.45 133.42 207.00 132.56 207.00 C 131.70 207.00 131.00 207.45 131.00 208.00 C 131.00 208.55 131.42 209.00 131.94 209.00 C 132.46 209.00 133.16 208.55 133.50 208.00 Z M 369.07 207.59 C 368.27 206.62 368.23 205.97 368.95 205.53 C 369.53 205.17 370.00 205.34 370.00 205.91 C 370.00 206.47 370.68 206.68 371.51 206.36 C 372.59 205.94 372.85 206.24 372.40 207.39 C 371.64 209.37 370.61 209.44 369.07 207.59 Z M 18.00 205.00 C 18.00 204.45 19.15 204.00 20.56 204.00 C 22.01 204.00 22.85 204.43 22.50 205.00 C 22.16 205.55 21.01 206.00 19.94 206.00 C 18.87 206.00 18.00 205.55 18.00 205.00 Z M 129.18 203.78 C 128.47 203.07 128.00 203.01 128.00 203.63 C 128.00 204.20 128.30 204.97 128.67 205.33 C 129.03 205.70 129.57 205.77 129.85 205.48 C 130.13 205.20 129.83 204.43 129.18 203.78 Z M 14.68 204.25 C 13.24 201.81 12.95 196.76 14.16 195.27 C 15.11 194.09 15.14 193.83 14.25 194.37 C 12.61 195.35 12.54 190.86 14.18 189.22 C 15.08 188.32 14.97 187.62 13.71 186.23 C 11.72 184.04 12.43 177.00 14.63 177.00 C 15.89 177.00 16.19 178.25 16.42 184.66 C 16.55 188.06 17.81 188.51 19.13 185.62 C 20.02 183.65 20.05 182.08 19.24 179.43 C 18.47 176.91 18.46 174.99 19.20 172.84 C 19.97 170.66 19.93 168.72 19.09 165.91 C 18.35 163.45 18.26 161.36 18.84 160.26 C 19.35 159.26 19.59 145.65 19.39 129.00 C 19.07 102.99 18.92 86.05 18.94 78.00 C 18.98 58.44 18.52 56.12 14.93 58.04 C 13.84 58.62 13.21 59.54 13.54 60.07 C 13.87 60.60 14.51 60.80 14.96 60.53 C 16.51 59.57 16.73 66.12 15.20 67.65 C 12.84 70.02 11.87 67.84 12.20 60.90 C 12.41 56.44 12.88 54.58 13.75 54.75 C 14.44 54.89 15.00 54.34 15.00 53.53 C 15.00 52.64 14.41 52.29 13.50 52.64 C 12.39 53.06 12.00 52.50 12.00 50.50 C 12.00 48.55 12.41 47.94 13.44 48.34 C 14.27 48.66 15.06 48.18 15.32 47.19 C 15.57 46.26 15.82 47.39 15.88 49.69 C 16.00 53.81 17.37 56.18 18.23 53.74 C 18.62 52.62 18.49 44.50 17.86 31.95 C 17.74 29.44 17.95 26.89 18.33 26.28 C 18.79 25.53 24.60 25.12 35.76 25.05 C 79.70 24.78 162.86 23.88 174.25 23.55 C 185.63 23.22 188.86 23.73 186.12 25.42 C 185.16 26.02 185.36 45.60 186.36 48.00 C 186.70 48.83 186.55 50.17 186.03 51.00 C 185.21 52.28 184.88 52.22 183.65 50.54 C 182.55 49.03 181.77 48.81 180.20 49.55 C 176.66 51.21 160.27 67.51 151.22 78.35 C 149.20 80.77 147.00 81.19 147.00 79.15 C 147.00 78.74 151.05 73.78 156.00 68.11 C 160.95 62.44 165.00 57.19 165.00 56.44 C 165.00 55.69 164.09 54.58 162.98 53.99 C 161.19 53.03 160.14 53.76 154.23 60.05 C 150.53 63.98 146.84 68.27 146.03 69.57 C 143.71 73.34 142.11 73.27 137.50 69.21 C 132.79 65.06 123.04 59.94 115.97 57.91 C 109.59 56.07 91.71 56.39 85.50 58.45 C 69.05 63.91 57.26 74.17 49.60 89.67 C 38.66 111.82 41.94 136.11 58.62 156.59 L 63.10 162.10 L 54.38 170.53 C 45.81 178.82 45.69 179.00 47.48 180.98 C 48.49 182.09 49.86 183.00 50.54 183.00 C 51.22 183.00 55.28 179.40 59.56 175.00 C 63.84 170.60 68.17 167.00 69.17 167.00 C 70.18 167.00 71.00 167.31 71.00 167.69 C 71.00 168.07 66.60 172.91 61.22 178.44 C 55.84 183.97 49.58 190.74 47.32 193.49 L 43.21 198.48 L 33.35 198.60 C 27.93 198.67 22.72 198.32 21.76 197.83 C 20.76 197.32 19.74 195.24 19.38 192.97 C 18.74 188.99 16.73 187.67 15.63 190.51 C 15.05 192.03 16.77 197.00 18.24 198.07 C 18.68 198.38 18.31 200.07 17.44 201.82 C 15.78 205.15 15.40 205.48 14.68 204.25 Z M 205.54 204.07 C 205.18 203.48 205.02 202.97 205.19 202.93 C 205.36 202.89 207.24 202.65 209.37 202.39 C 211.50 202.13 213.53 201.86 213.87 201.80 C 214.22 201.73 215.79 202.03 217.36 202.47 C 218.97 202.92 221.65 202.83 223.52 202.26 C 226.77 201.26 232.00 201.63 232.00 202.87 C 232.00 203.66 219.42 204.45 215.75 203.89 C 215.06 203.79 212.63 204.03 210.35 204.42 C 207.73 204.88 205.96 204.75 205.54 204.07 Z M 308.81 203.32 C 309.53 203.03 310.40 203.06 310.73 203.40 C 311.06 203.73 310.47 203.96 309.42 203.92 C 308.25 203.87 308.01 203.64 308.81 203.32 Z M 323.50 203.00 C 323.84 202.45 324.57 202.00 325.12 202.00 C 325.67 202.00 325.84 202.45 325.50 203.00 C 325.16 203.55 324.43 204.00 323.88 204.00 C 323.33 204.00 323.16 203.55 323.50 203.00 Z M 333.35 203.31 C 335.66 201.00 346.77 198.94 345.46 201.07 C 345.09 201.66 344.13 201.88 343.32 201.57 C 342.50 201.26 340.87 201.68 339.70 202.50 C 337.61 203.96 331.98 204.68 333.35 203.31 Z M 50.00 202.00 C 50.00 201.45 50.45 201.00 51.00 201.00 C 51.55 201.00 52.00 201.45 52.00 202.00 C 52.00 202.55 51.55 203.00 51.00 203.00 C 50.45 203.00 50.00 202.55 50.00 202.00 Z M 236.50 202.00 C 236.84 201.45 237.54 201.00 238.06 201.00 C 238.58 201.00 239.00 201.45 239.00 202.00 C 239.00 202.55 238.30 203.00 237.44 203.00 C 236.58 203.00 236.16 202.55 236.50 202.00 Z M 277.00 202.00 C 277.00 201.45 277.45 201.00 278.00 201.00 C 278.55 201.00 279.00 201.45 279.00 202.00 C 279.00 202.55 278.55 203.00 278.00 203.00 C 277.45 203.00 277.00 202.55 277.00 202.00 Z M 303.64 201.50 C 303.95 200.68 304.83 200.00 305.58 200.00 C 306.38 200.00 306.70 200.62 306.36 201.50 C 306.05 202.32 305.17 203.00 304.42 203.00 C 303.62 203.00 303.30 202.38 303.64 201.50 Z M 313.56 201.53 C 314.63 200.72 316.85 200.08 318.50 200.11 L 321.50 200.15 L 318.00 201.50 C 313.13 203.37 311.10 203.39 313.56 201.53 Z M 369.50 202.00 C 369.16 201.45 369.33 201.00 369.88 201.00 C 370.43 201.00 371.16 201.45 371.50 202.00 C 371.84 202.55 371.67 203.00 371.12 203.00 C 370.57 203.00 369.84 202.55 369.50 202.00 Z M 102.42 201.39 C 105.03 200.39 104.21 199.00 101.00 199.00 C 98.13 199.00 97.23 199.90 98.67 201.33 C 99.49 202.16 100.38 202.17 102.42 201.39 Z M 264.00 201.00 C 262.72 200.17 262.75 200.03 264.25 200.02 C 265.21 200.01 266.00 200.45 266.00 201.00 C 266.00 202.22 265.89 202.22 264.00 201.00 Z M 326.00 201.00 C 326.00 200.45 327.24 200.03 328.75 200.07 C 331.19 200.13 331.27 200.24 329.50 201.00 C 326.77 202.17 326.00 202.17 326.00 201.00 Z M 353.00 201.20 C 355.48 199.66 360.00 198.87 360.00 199.98 C 360.00 200.54 359.21 201.01 358.25 201.01 C 357.29 201.02 355.38 201.28 354.00 201.58 C 352.20 201.98 351.92 201.88 353.00 201.20 Z M 240.27 200.31 C 241.24 200.05 242.59 200.07 243.27 200.34 C 243.95 200.62 243.15 200.83 241.50 200.81 C 239.85 200.78 239.30 200.56 240.27 200.31 Z M 258.75 200.34 C 259.44 200.06 260.56 200.06 261.25 200.34 C 261.94 200.62 261.38 200.84 260.00 200.84 C 258.62 200.84 258.06 200.62 258.75 200.34 Z M 271.70 199.90 C 272.49 199.11 273.33 199.10 274.65 199.87 C 276.27 200.81 276.14 200.94 273.55 200.97 C 271.40 200.99 270.90 200.70 271.70 199.90 Z M 288.75 200.34 C 289.44 200.06 290.56 200.06 291.25 200.34 C 291.94 200.62 291.38 200.84 290.00 200.84 C 288.62 200.84 288.06 200.62 288.75 200.34 Z M 293.00 200.62 C 293.00 199.77 298.09 199.33 298.58 200.13 C 298.88 200.61 297.74 201.00 296.06 201.00 C 294.38 201.00 293.00 200.83 293.00 200.62 Z M 53.00 198.20 C 53.00 196.79 57.11 191.84 64.86 183.94 C 75.28 173.31 77.07 171.88 79.61 172.17 C 81.20 172.35 82.50 173.02 82.50 173.65 C 82.50 174.28 79.58 176.94 76.00 179.55 C 72.42 182.17 65.79 187.92 61.25 192.33 C 54.61 198.79 53.00 199.93 53.00 198.20 Z M 192.50 199.00 C 192.16 198.45 192.58 198.00 193.44 198.00 C 194.30 198.00 195.00 198.45 195.00 199.00 C 195.00 199.55 194.58 200.00 194.06 200.00 C 193.54 200.00 192.84 199.55 192.50 199.00 Z M 361.00 199.00 C 361.00 198.45 361.70 198.00 362.56 198.00 C 363.42 198.00 363.84 198.45 363.50 199.00 C 363.16 199.55 362.46 200.00 361.94 200.00 C 361.42 200.00 361.00 199.55 361.00 199.00 Z M 132.47 192.90 C 129.19 189.54 123.58 184.56 120.00 181.82 C 116.42 179.09 113.50 176.35 113.50 175.75 C 113.50 174.35 118.85 172.82 121.55 173.45 C 124.31 174.11 144.00 194.64 144.00 196.87 C 144.00 197.62 140.86 198.94 138.97 198.99 C 138.68 198.99 135.75 196.25 132.47 192.90 Z M 149.75 192.55 C 147.56 189.77 141.97 183.50 137.33 178.60 C 132.69 173.71 129.11 169.16 129.37 168.48 C 129.63 167.81 131.08 166.95 132.59 166.57 C 135.05 165.95 136.18 166.72 143.44 173.94 C 147.90 178.37 152.03 182.00 152.62 182.00 C 153.21 182.00 154.55 181.05 155.60 179.89 C 157.50 177.78 157.48 177.76 149.05 169.94 C 140.88 162.35 140.65 162.02 141.96 159.58 C 142.70 158.20 144.31 156.12 145.53 154.97 L 147.76 152.88 L 154.08 159.94 C 157.56 163.82 161.11 167.00 161.96 167.00 C 162.82 167.00 164.12 166.04 164.85 164.87 C 166.09 162.89 165.66 162.21 159.09 155.59 C 155.19 151.67 152.00 147.65 152.00 146.66 C 152.00 144.54 153.76 141.00 154.81 141.00 C 155.22 141.00 159.36 144.73 164.02 149.28 C 168.69 153.84 174.65 159.30 177.28 161.43 C 181.77 165.06 182.16 165.19 183.78 163.60 C 184.73 162.67 186.36 161.32 187.40 160.61 C 188.57 159.81 189.00 158.82 188.53 158.04 C 187.91 157.04 187.59 157.04 186.95 158.07 C 185.86 159.84 181.05 156.13 168.25 143.63 C 158.50 134.11 158.00 133.42 158.07 129.56 C 158.21 121.32 159.18 121.09 164.20 128.11 C 166.72 131.62 174.47 140.35 181.43 147.50 C 191.70 158.05 193.96 160.88 193.39 162.50 C 193.01 163.60 192.74 166.64 192.80 169.25 C 192.86 171.86 192.48 174.00 191.95 174.00 C 191.37 174.00 191.24 175.68 191.64 178.13 C 192.16 181.43 192.01 182.17 190.90 181.79 C 189.95 181.46 189.46 179.56 189.39 175.91 C 189.13 162.96 189.07 162.53 187.75 163.85 C 186.86 164.74 186.50 169.53 186.50 180.56 C 186.50 195.14 186.39 196.06 184.50 196.66 C 183.40 197.02 176.03 197.37 168.12 197.46 L 153.74 197.61 L 149.75 192.55 Z M 195.99 188.28 C 195.98 183.45 195.81 175.85 195.60 171.39 C 195.25 163.53 195.32 163.19 198.12 160.55 C 199.70 159.05 201.00 157.53 201.00 157.15 C 201.00 156.78 199.09 154.61 196.75 152.33 C 177.51 133.60 172.54 128.30 166.22 119.83 C 162.25 114.51 159.00 109.45 159.00 108.58 C 159.00 107.45 159.97 107.00 162.38 107.00 C 165.28 107.00 166.53 107.89 171.18 113.25 C 183.70 127.68 186.00 131.02 186.03 134.84 C 186.06 138.31 187.84 142.00 189.47 142.00 C 189.88 142.00 189.91 140.80 189.55 139.33 C 188.93 136.86 189.02 136.76 190.69 138.05 C 191.68 138.82 196.10 142.92 200.50 147.16 C 204.90 151.39 209.76 155.84 211.30 157.04 C 214.00 159.15 214.17 159.16 216.09 157.42 C 217.18 156.43 217.94 155.11 217.79 154.48 C 217.63 153.85 214.61 150.77 211.08 147.63 C 204.94 142.17 199.63 136.43 192.00 126.99 C 190.07 124.61 185.24 119.03 181.25 114.61 C 177.26 110.18 174.00 106.02 174.00 105.37 C 174.00 104.12 183.25 102.42 184.81 103.38 C 185.31 103.69 185.97 106.72 186.28 110.10 C 186.60 113.69 187.49 116.91 188.39 117.82 C 189.81 119.24 189.92 119.09 189.56 116.28 C 189.35 114.58 188.64 112.20 188.00 111.01 C 186.17 107.58 187.84 107.27 190.51 110.54 C 191.84 112.17 192.94 113.77 192.96 114.11 C 193.00 114.77 218.36 139.82 226.76 147.49 C 231.88 152.17 232.07 152.25 234.01 150.49 C 235.10 149.50 236.00 148.15 236.00 147.49 C 236.00 146.84 233.41 144.03 230.25 141.25 C 218.98 131.37 203.16 115.39 197.96 108.66 C 193.76 103.22 192.96 101.64 194.09 100.92 C 197.72 98.63 197.75 98.65 213.49 116.00 C 220.81 124.06 222.43 125.65 237.10 139.16 C 242.38 144.02 247.15 148.00 247.70 148.00 C 248.92 148.00 252.01 144.68 251.96 143.42 C 251.94 142.91 249.58 140.70 246.71 138.50 C 239.16 132.70 206.76 99.84 207.70 98.93 C 208.14 98.51 210.55 97.86 213.06 97.50 C 217.58 96.84 217.66 96.88 221.56 101.64 C 229.88 111.80 261.16 141.00 263.73 141.00 C 264.69 141.00 268.00 137.78 268.00 136.85 C 268.00 136.57 262.54 131.66 255.86 125.93 C 244.27 115.98 226.00 97.55 226.00 95.82 C 226.00 95.37 227.35 95.00 229.01 95.00 C 231.54 95.00 234.06 97.05 244.76 107.81 C 255.91 119.03 270.10 131.06 276.44 134.67 C 278.10 135.62 278.84 135.54 280.25 134.27 C 281.21 133.40 282.00 132.15 282.00 131.50 C 282.00 130.85 278.98 128.10 275.29 125.40 C 271.60 122.71 266.54 118.76 264.04 116.64 C 256.87 110.56 241.00 94.89 241.00 93.90 C 241.00 93.41 242.60 93.00 244.55 93.00 C 247.38 93.00 248.81 93.77 251.55 96.75 C 253.44 98.81 254.99 100.82 255.00 101.21 C 255.01 103.95 289.52 130.00 293.13 130.00 C 293.89 130.00 295.14 129.01 295.89 127.80 C 297.53 125.18 297.40 125.07 283.00 115.71 C 274.25 110.03 257.00 94.87 257.00 92.86 C 257.00 92.39 259.08 92.00 261.63 92.00 C 266.03 92.00 266.64 92.36 273.63 99.20 C 277.69 103.16 284.94 109.34 289.75 112.95 C 304.76 124.19 311.00 126.42 311.00 120.55 C 311.00 118.60 310.05 117.56 306.75 115.89 C 301.32 113.14 287.77 103.29 282.21 98.05 C 279.85 95.82 277.48 94.00 276.96 94.00 C 276.43 94.00 276.00 93.27 276.00 92.38 C 276.00 90.02 281.92 91.34 284.50 94.26 C 289.22 99.61 303.77 110.38 310.55 113.56 C 319.49 117.74 322.58 117.98 323.23 114.55 C 323.73 111.95 322.46 110.00 320.27 110.00 C 316.23 110.00 292.00 94.45 292.00 91.86 C 292.00 91.39 293.55 91.00 295.44 91.00 C 298.15 91.00 300.11 92.08 304.69 96.10 C 311.73 102.28 329.78 111.43 331.73 109.81 C 332.43 109.23 333.00 107.80 333.00 106.63 C 332.99 104.91 330.82 103.43 321.82 99.00 C 309.54 92.95 307.57 91.00 313.74 91.00 C 316.80 91.00 318.48 91.76 321.57 94.54 C 326.74 99.19 336.38 103.73 342.00 104.16 C 346.06 104.47 346.53 104.27 346.83 102.19 C 347.26 99.12 345.34 97.00 342.13 97.00 C 338.26 97.01 330.00 93.81 330.00 92.30 C 330.00 91.45 331.39 91.00 334.06 91.00 C 338.05 91.00 338.12 90.93 337.81 87.75 C 337.51 84.63 337.30 84.49 332.75 84.20 C 330.14 84.03 328.00 83.54 328.00 83.10 C 328.00 81.72 337.36 77.23 341.75 76.52 C 345.82 75.85 346.00 75.67 346.00 72.28 L 346.00 68.74 L 341.51 69.25 C 335.55 69.92 327.60 74.05 321.72 79.54 C 317.73 83.27 316.29 84.00 312.97 84.00 C 310.79 84.00 309.01 83.66 309.02 83.25 C 309.05 81.69 319.81 74.57 327.29 71.17 C 333.54 68.32 335.03 67.23 334.79 65.66 C 334.63 64.59 333.71 63.21 332.73 62.60 C 329.72 60.72 312.97 69.96 305.35 77.69 C 300.33 82.79 298.53 84.00 295.98 84.00 C 294.25 84.00 292.98 83.61 293.17 83.14 C 294.42 79.90 313.19 66.61 320.50 63.78 C 323.47 62.64 324.58 61.60 324.80 59.78 C 325.36 55.19 323.10 54.88 315.36 58.47 C 306.86 62.40 299.28 67.86 289.61 76.98 C 284.96 81.37 281.37 83.91 279.25 84.32 C 277.00 84.76 276.02 84.57 276.07 83.72 C 276.16 82.09 292.21 68.69 301.12 62.81 C 305.02 60.23 308.45 57.88 308.73 57.60 C 309.81 56.52 307.89 52.00 306.34 52.00 C 303.35 52.00 288.60 62.75 276.27 73.92 C 266.38 82.89 263.47 85.00 261.02 85.00 C 259.36 85.00 258.02 84.66 258.04 84.25 C 258.11 82.97 268.25 72.51 273.50 68.31 C 276.25 66.11 282.32 61.72 287.00 58.54 C 291.68 55.37 295.64 52.40 295.81 51.94 C 296.34 50.56 294.02 47.00 292.59 47.00 C 291.85 47.00 286.36 50.46 280.38 54.69 C 269.99 62.03 258.37 72.68 250.95 81.68 C 247.35 86.04 243.00 88.27 243.00 85.76 C 243.00 83.90 262.60 64.82 272.50 57.03 C 276.90 53.58 280.64 50.38 280.81 49.93 C 281.29 48.69 279.08 45.00 277.85 45.00 C 276.54 45.00 265.98 53.18 256.72 61.36 C 252.98 64.65 245.86 72.00 240.89 77.68 C 234.08 85.46 231.26 88.00 229.43 88.00 C 228.09 88.00 227.00 87.56 227.00 87.02 C 227.00 85.84 250.74 61.76 260.32 53.22 L 267.14 47.14 L 265.45 44.57 C 264.53 43.16 263.44 42.00 263.05 42.00 C 261.69 42.00 230.51 72.69 223.11 81.30 C 216.14 89.43 210.84 93.16 209.46 90.93 C 208.44 89.28 227.46 68.70 244.25 53.27 C 247.96 49.86 251.00 46.39 251.00 45.57 C 251.00 43.17 247.20 41.59 245.25 43.18 C 238.99 48.27 218.86 68.72 209.22 79.78 C 198.58 91.98 194.20 95.53 192.21 93.55 C 191.83 93.16 192.30 92.41 193.26 91.88 C 194.22 91.34 195.00 90.34 195.00 89.66 C 195.00 87.09 208.55 71.64 222.23 58.63 C 236.31 45.23 236.41 45.11 234.56 43.06 C 233.53 41.93 232.19 41.00 231.58 41.00 C 230.43 41.00 203.35 67.92 193.53 78.84 C 190.39 82.32 187.22 86.60 186.47 88.34 C 184.49 92.97 180.30 97.00 177.46 97.00 C 176.11 97.00 175.00 96.71 175.00 96.35 C 175.00 95.46 181.61 87.46 186.84 82.02 C 189.23 79.53 192.70 75.24 194.54 72.47 C 198.16 67.05 208.13 56.42 214.34 51.35 C 218.16 48.24 218.18 48.20 216.48 45.61 C 215.54 44.17 214.24 43.00 213.59 43.00 C 211.96 43.00 187.23 68.11 185.18 71.86 C 183.58 74.78 179.68 79.79 168.44 93.38 C 165.61 96.80 162.41 99.64 161.19 99.82 C 159.99 100.00 159.00 99.82 159.00 99.44 C 159.00 99.05 162.60 93.73 167.01 87.62 C 175.08 76.41 178.36 72.71 192.34 59.00 C 196.54 54.88 199.99 51.08 199.99 50.56 C 200.00 50.05 198.99 48.55 197.75 47.23 C 196.51 45.92 195.46 43.64 195.41 42.17 C 195.35 40.70 195.17 36.22 195.00 32.20 C 194.82 27.88 195.14 24.46 195.78 23.82 C 196.99 22.61 209.06 21.99 231.00 22.01 C 241.04 22.02 263.49 21.49 267.32 21.16 C 268.61 21.05 268.96 20.46 268.54 19.13 C 268.05 17.58 268.37 17.35 270.48 17.75 C 271.96 18.03 273.00 17.77 273.00 17.12 C 273.00 16.50 273.90 16.00 275.00 16.00 C 278.55 16.00 277.19 18.74 273.28 19.48 C 270.03 20.09 269.80 20.31 271.43 21.22 C 272.74 21.96 274.69 21.95 277.90 21.22 C 280.43 20.64 284.30 20.47 286.50 20.84 C 288.70 21.22 296.80 21.38 304.50 21.21 C 312.20 21.05 319.85 20.96 321.50 21.03 C 331.87 21.44 358.41 20.48 359.77 19.64 C 360.45 19.22 361.87 19.14 362.92 19.47 C 364.69 20.04 364.79 20.94 364.35 32.29 C 364.10 39.01 363.91 44.95 363.93 45.50 C 363.96 46.05 364.15 62.02 364.36 81.00 C 364.57 99.97 365.08 116.29 365.48 117.26 C 365.90 118.25 365.71 119.65 365.05 120.44 C 364.17 121.49 364.14 123.31 364.92 127.53 C 365.65 131.48 365.65 133.78 364.92 135.15 C 364.32 136.26 364.18 138.51 364.58 140.31 C 364.98 142.06 365.27 146.65 365.23 150.50 C 365.19 154.35 365.09 165.94 365.01 176.25 L 364.85 195.00 L 361.68 195.20 C 355.81 195.56 346.79 195.67 271.25 196.36 L 196.00 197.05 L 195.99 188.28 Z M 189.82 192.00 C 189.45 185.77 189.53 185.00 190.50 185.05 C 191.05 185.07 191.37 186.31 191.21 187.80 C 190.98 189.85 191.15 190.15 191.90 189.03 C 192.45 188.22 193.24 187.91 193.67 188.33 C 194.09 188.76 193.87 189.46 193.17 189.90 C 192.47 190.33 191.97 191.09 192.07 191.59 C 192.43 193.51 191.96 195.00 191.00 195.00 C 190.45 195.00 189.92 193.65 189.82 192.00 Z M 368.67 184.33 C 367.52 183.18 367.94 182.00 369.50 182.00 C 370.32 182.00 371.00 182.68 371.00 183.50 C 371.00 185.06 369.82 185.48 368.67 184.33 Z M 15.46 183.07 C 15.77 182.56 15.58 181.86 15.02 181.51 C 14.46 181.16 14.00 181.58 14.00 182.44 C 14.00 184.20 14.60 184.46 15.46 183.07 Z M 12.64 171.95 C 11.78 167.65 11.83 167.00 13.00 167.00 C 13.55 167.00 14.03 167.79 14.07 168.75 C 14.13 170.25 14.27 170.21 15.00 168.50 C 15.61 167.07 15.91 166.93 16.05 168.00 C 16.37 170.57 15.89 172.45 14.56 173.82 C 13.51 174.91 13.17 174.58 12.64 171.95 Z M 370.08 172.42 C 370.13 171.25 370.36 171.01 370.68 171.81 C 370.97 172.53 370.94 173.40 370.60 173.73 C 370.27 174.06 370.04 173.47 370.08 172.42 Z M 369.00 168.00 C 369.00 167.45 369.45 167.00 370.00 167.00 C 370.55 167.00 371.00 167.45 371.00 168.00 C 371.00 168.55 370.55 169.00 370.00 169.00 C 369.45 169.00 369.00 168.55 369.00 168.00 Z M 101.27 164.27 C 100.34 161.84 102.62 160.50 105.47 161.81 C 108.88 163.36 108.66 164.68 104.91 165.23 C 102.84 165.53 101.64 165.21 101.27 164.27 Z M 90.68 164.34 C 89.75 163.41 91.95 161.00 93.73 161.00 C 94.67 161.00 94.99 161.58 94.61 162.58 C 94.27 163.45 94.00 164.35 94.00 164.58 C 94.00 165.25 91.40 165.06 90.68 164.34 Z M 368.92 163.50 C 368.87 163.22 368.80 161.34 368.75 159.31 C 368.63 153.90 370.72 154.03 371.15 159.45 C 371.41 162.63 371.14 164.00 370.26 164.00 C 369.57 164.00 368.96 163.78 368.92 163.50 Z M 12.55 158.50 C 11.74 153.10 11.84 152.88 14.75 153.64 C 16.56 154.12 16.81 154.72 16.33 157.35 C 16.01 159.08 15.18 161.10 14.50 161.84 C 13.49 162.92 13.12 162.30 12.55 158.50 Z M 110.50 156.42 C 106.65 153.93 103.55 151.46 103.60 150.94 C 103.66 150.43 103.77 148.65 103.85 147.00 C 103.94 145.26 104.55 144.00 105.32 144.00 C 106.81 144.00 120.42 153.09 123.50 156.14 C 125.48 158.09 125.48 158.13 123.56 159.56 C 120.46 161.86 117.96 161.26 110.50 156.42 Z M 78.59 159.15 C 78.30 158.68 79.06 157.39 80.28 156.28 C 83.88 153.02 96.28 145.06 97.04 145.52 C 97.42 145.76 97.51 147.14 97.23 148.58 C 96.89 150.38 95.67 151.66 93.43 152.59 C 91.62 153.35 89.85 154.43 89.50 155.00 C 88.77 156.17 81.58 160.00 80.10 160.00 C 79.56 160.00 78.88 159.62 78.59 159.15 Z M 69.31 151.51 C 65.53 148.86 60.31 140.69 57.49 133.00 C 51.29 116.13 54.91 96.01 66.43 83.20 C 79.91 68.20 102.08 63.25 120.00 71.22 C 125.18 73.52 135.00 80.60 135.00 82.03 C 135.00 82.56 133.49 85.13 131.64 87.75 C 129.79 90.36 126.56 95.65 124.45 99.50 C 122.34 103.35 120.14 106.83 119.56 107.23 C 118.97 107.63 117.17 106.45 115.50 104.57 C 107.71 95.77 97.93 94.91 89.84 102.32 C 83.86 107.78 81.89 118.02 85.47 124.95 C 87.25 128.39 92.99 133.26 96.17 134.03 C 98.80 134.66 99.85 137.00 97.51 137.00 C 95.72 137.00 85.45 143.38 77.65 149.33 C 72.17 153.52 72.18 153.51 69.31 151.51 Z M 123.00 146.79 C 118.33 143.49 112.59 139.85 110.25 138.70 C 106.31 136.75 104.49 134.00 107.16 134.00 C 109.08 134.00 115.05 128.97 117.08 125.63 C 118.13 123.91 118.99 121.04 119.00 119.25 C 119.00 114.73 121.02 115.15 123.86 120.26 C 127.13 126.12 136.98 140.87 138.09 141.56 C 139.38 142.35 139.16 146.21 137.72 148.08 C 137.05 148.94 135.38 150.36 134.00 151.22 C 131.58 152.74 131.24 152.60 123.00 146.79 Z M 12.68 147.60 C 12.38 146.83 12.38 145.96 12.67 145.67 C 13.59 144.75 16.00 146.15 16.00 147.61 C 16.00 149.42 13.37 149.41 12.68 147.60 Z M 369.64 147.50 C 369.29 146.59 369.64 146.00 370.53 146.00 C 371.34 146.00 372.00 146.68 372.00 147.50 C 372.00 148.32 371.60 149.00 371.11 149.00 C 370.62 149.00 369.95 148.32 369.64 147.50 Z M 196.00 146.56 C 196.00 146.32 195.55 145.84 195.00 145.50 C 194.45 145.16 194.00 145.36 194.00 145.94 C 194.00 146.52 194.45 147.00 195.00 147.00 C 195.55 147.00 196.00 146.80 196.00 146.56 Z M 12.69 143.26 C 11.84 141.80 12.51 136.50 13.50 136.81 C 14.05 136.98 14.79 136.08 15.15 134.81 C 15.62 133.13 15.83 133.68 15.90 136.82 C 15.99 140.78 13.80 145.17 12.69 143.26 Z M 141.00 134.25 C 139.82 132.74 136.46 127.82 133.55 123.33 C 127.80 114.46 127.82 113.00 133.67 113.00 C 136.36 113.00 137.25 113.59 138.63 116.24 C 139.55 118.03 141.80 121.74 143.63 124.50 C 146.74 129.18 146.88 129.77 145.81 133.26 C 145.18 135.32 144.32 137.00 143.91 137.00 C 143.49 137.00 142.18 135.76 141.00 134.25 Z M 369.50 135.00 C 369.16 134.45 369.58 134.00 370.44 134.00 C 371.30 134.00 372.00 134.45 372.00 135.00 C 372.00 135.55 371.58 136.00 371.06 136.00 C 370.54 136.00 369.84 135.55 369.50 135.00 Z M 12.44 127.76 C 12.54 122.71 12.89 121.45 14.28 121.18 C 15.60 120.93 16.00 121.56 16.00 123.84 C 16.00 125.49 15.44 127.06 14.75 127.34 C 13.75 127.74 13.75 127.86 14.75 127.92 C 15.44 127.96 16.00 128.93 16.00 130.06 C 16.00 131.19 15.55 131.84 15.00 131.50 C 14.45 131.16 14.00 131.58 14.00 132.44 C 14.00 133.30 13.62 134.00 13.16 134.00 C 12.70 134.00 12.38 131.19 12.44 127.76 Z M 370.63 125.34 C 371.18 123.13 371.02 122.78 369.65 123.30 C 368.74 123.65 368.00 123.55 368.00 123.08 C 368.00 121.98 370.61 120.95 371.40 121.74 C 372.42 122.75 372.06 128.00 370.98 128.00 C 370.38 128.00 370.23 126.92 370.63 125.34 Z M 195.26 124.44 C 195.75 121.87 193.58 118.52 192.04 119.48 C 191.41 119.86 193.84 127.00 194.59 127.00 C 194.69 127.00 194.99 125.85 195.26 124.44 Z M 13.75 119.31 C 11.53 118.73 11.33 113.19 13.50 112.36 C 14.32 112.05 15.00 111.36 15.00 110.83 C 15.00 110.31 14.55 110.16 14.00 110.50 C 12.81 111.24 12.92 112.69 12.47 90.77 C 12.12 73.33 12.61 70.21 15.29 72.89 C 16.66 74.26 16.36 94.35 14.96 94.83 C 13.78 95.24 13.67 99.00 14.84 99.00 C 15.29 99.00 15.75 103.72 15.84 109.50 C 15.93 115.28 15.89 119.95 15.75 119.88 C 15.61 119.82 14.71 119.56 13.75 119.31 Z M 146.08 115.38 C 143.64 112.58 144.00 109.66 146.71 110.18 C 148.46 110.52 150.40 116.63 149.03 117.48 C 148.63 117.73 147.30 116.78 146.08 115.38 Z M 368.67 113.33 C 368.30 112.97 368.00 112.20 368.00 111.63 C 368.00 111.01 368.47 111.07 369.18 111.78 C 369.83 112.43 370.13 113.20 369.85 113.48 C 369.57 113.77 369.03 113.70 368.67 113.33 Z M 371.00 110.94 C 371.00 110.36 371.45 110.16 372.00 110.50 C 372.55 110.84 373.00 111.32 373.00 111.56 C 373.00 111.80 372.55 112.00 372.00 112.00 C 371.45 112.00 371.00 111.52 371.00 110.94 Z M 369.16 106.00 C 369.16 104.62 369.38 104.06 369.66 104.75 C 369.94 105.44 369.94 106.56 369.66 107.25 C 369.38 107.94 369.16 107.38 369.16 106.00 Z M 130.00 105.12 C 130.00 104.63 132.09 100.81 134.65 96.62 C 139.21 89.16 142.00 87.02 142.00 90.98 C 142.00 93.21 136.52 102.82 134.15 104.75 C 132.38 106.20 130.00 106.41 130.00 105.12 Z M 144.64 103.31 C 143.44 102.11 143.99 100.00 145.50 100.00 C 146.32 100.00 147.00 100.65 147.00 101.44 C 147.00 103.11 145.57 104.24 144.64 103.31 Z M 368.00 97.21 C 368.00 96.68 368.73 95.64 369.62 94.90 C 371.01 93.74 371.18 93.82 370.87 95.45 C 370.49 97.39 368.00 98.92 368.00 97.21 Z M 369.00 92.00 C 369.00 90.13 369.27 89.87 370.20 90.80 C 371.13 91.73 371.13 92.27 370.20 93.20 C 369.27 94.13 369.00 93.87 369.00 92.00 Z M 153.48 89.95 C 153.02 88.49 153.95 86.26 156.67 82.32 C 161.09 75.87 182.52 55.00 184.70 55.00 C 185.51 55.00 181.86 59.61 176.60 65.25 C 171.34 70.89 164.66 79.20 161.77 83.72 C 156.34 92.19 154.61 93.49 153.48 89.95 Z M 369.25 82.50 C 367.61 80.64 367.67 80.00 369.50 80.00 C 370.33 80.00 371.00 80.89 371.00 82.00 C 371.00 84.35 370.90 84.38 369.25 82.50 Z M 368.58 76.13 C 368.15 75.44 368.07 74.60 368.40 74.27 C 369.29 73.37 370.27 74.69 369.79 76.14 C 369.45 77.15 369.21 77.15 368.58 76.13 Z M 367.00 69.11 C 367.00 68.62 367.71 67.94 368.58 67.61 C 370.82 66.75 371.00 66.82 371.00 68.50 C 371.00 69.33 370.11 70.00 369.00 70.00 C 367.90 70.00 367.00 69.60 367.00 69.11 Z M 369.00 64.44 C 369.00 63.58 369.45 63.16 370.00 63.50 C 370.55 63.84 371.00 64.54 371.00 65.06 C 371.00 65.58 370.55 66.00 370.00 66.00 C 369.45 66.00 369.00 65.30 369.00 64.44 Z M 370.19 58.50 C 370.22 56.85 370.44 56.30 370.69 57.27 C 370.95 58.24 370.93 59.59 370.66 60.27 C 370.38 60.95 370.17 60.15 370.19 58.50 Z M 186.00 53.00 C 186.00 52.45 186.48 52.00 187.06 52.00 C 187.64 52.00 187.84 52.45 187.50 53.00 C 187.16 53.55 186.68 54.00 186.44 54.00 C 186.20 54.00 186.00 53.55 186.00 53.00 Z M 189.00 49.88 C 189.00 47.98 192.73 44.40 193.70 45.37 C 194.08 45.75 193.18 47.27 191.70 48.76 C 189.72 50.73 189.00 51.03 189.00 49.88 Z M 369.02 48.25 C 369.02 47.84 369.47 46.83 370.00 46.00 C 370.78 44.79 370.97 44.93 370.98 46.75 C 370.99 47.99 370.55 49.00 370.00 49.00 C 369.45 49.00 369.01 48.66 369.02 48.25 Z M 188.00 43.50 C 188.00 42.67 188.45 42.00 189.00 42.00 C 189.55 42.00 190.00 41.33 190.00 40.50 C 190.00 38.77 191.57 38.50 192.54 40.06 C 193.22 41.16 190.34 45.00 188.85 45.00 C 188.38 45.00 188.00 44.33 188.00 43.50 Z M 13.44 42.91 C 13.06 42.29 12.63 36.65 12.48 30.39 L 12.22 19.00 L 15.73 19.00 C 18.74 19.00 19.07 19.22 18.00 20.50 C 16.97 21.74 17.08 22.01 18.63 22.03 C 20.28 22.06 20.21 22.31 18.05 24.10 C 16.02 25.79 15.59 27.07 15.55 31.57 C 15.52 34.56 15.16 37.00 14.75 37.00 C 14.34 37.00 14.01 37.79 14.02 38.75 C 14.03 40.25 14.17 40.28 15.00 39.00 C 15.76 37.83 15.97 38.09 15.98 40.19 C 16.00 43.14 14.55 44.69 13.44 42.91 Z M 188.58 31.13 C 188.29 30.66 188.88 29.51 189.90 28.59 C 191.60 27.05 191.80 27.05 192.38 28.54 C 192.72 29.43 193.00 30.58 193.00 31.08 C 193.00 32.25 189.30 32.29 188.58 31.13 Z M 16.73 22.40 C 16.40 22.06 15.53 22.03 14.81 22.32 C 14.01 22.64 14.25 22.87 15.42 22.92 C 16.47 22.96 17.06 22.73 16.73 22.40 Z M 22.81 22.32 C 23.53 22.03 24.40 22.06 24.73 22.40 C 25.06 22.73 24.47 22.96 23.42 22.92 C 22.25 22.87 22.01 22.64 22.81 22.32 Z M 30.76 22.43 C 29.91 21.58 32.18 18.00 33.57 18.00 C 35.22 18.00 34.56 22.46 32.87 22.78 C 32.06 22.94 31.11 22.78 30.76 22.43 Z M 42.44 21.43 C 40.60 19.94 40.68 19.89 43.88 20.43 C 45.73 20.74 48.09 21.00 49.12 21.00 C 50.16 21.00 51.00 21.45 51.00 22.00 C 51.00 23.59 44.58 23.16 42.44 21.43 Z M 72.92 21.60 C 74.36 19.87 78.70 18.70 80.22 19.63 C 80.84 20.02 79.37 20.91 76.92 21.65 C 71.43 23.29 71.51 23.29 72.92 21.60 Z M 25.08 20.07 C 23.58 18.77 23.22 18.01 24.10 18.02 C 26.25 18.04 28.29 19.63 27.85 20.95 C 27.59 21.73 26.65 21.43 25.08 20.07 Z M 60.00 21.00 C 60.00 20.45 60.42 20.00 60.94 20.00 C 61.46 20.00 62.16 20.45 62.50 21.00 C 62.84 21.55 62.42 22.00 61.56 22.00 C 60.70 22.00 60.00 21.55 60.00 21.00 Z M 97.81 21.32 C 98.53 21.03 99.40 21.06 99.73 21.40 C 100.06 21.73 99.47 21.96 98.42 21.92 C 97.25 21.87 97.01 21.64 97.81 21.32 Z M 109.00 21.00 C 109.00 20.45 109.90 20.00 111.00 20.00 C 112.10 20.00 113.00 20.45 113.00 21.00 C 113.00 21.55 112.10 22.00 111.00 22.00 C 109.90 22.00 109.00 21.55 109.00 21.00 Z M 133.00 20.82 C 133.00 20.43 134.69 19.94 136.75 19.73 C 139.87 19.40 139.57 19.29 135.00 19.05 L 129.50 18.77 L 134.97 17.86 C 141.14 16.84 143.22 17.26 142.41 19.37 C 141.85 20.82 133.00 22.19 133.00 20.82 Z M 184.50 21.00 C 184.14 20.42 185.14 20.00 186.88 20.00 C 188.53 20.00 190.16 20.45 190.50 21.00 C 190.86 21.58 189.86 22.00 188.12 22.00 C 186.47 22.00 184.84 21.55 184.50 21.00 Z M 52.00 20.09 C 52.00 19.60 52.90 19.42 54.00 19.71 C 55.10 20.00 56.00 20.41 56.00 20.62 C 56.00 20.83 55.10 21.00 54.00 21.00 C 52.90 21.00 52.00 20.59 52.00 20.09 Z M 91.50 20.00 C 91.16 19.45 91.56 19.00 92.38 19.00 C 93.21 19.00 94.16 19.45 94.50 20.00 C 94.84 20.55 94.44 21.00 93.62 21.00 C 92.79 21.00 91.84 20.55 91.50 20.00 Z M 118.00 19.50 C 118.00 18.68 118.60 18.00 119.33 18.00 C 120.07 18.00 120.67 18.68 120.67 19.50 C 120.67 20.32 120.07 21.00 119.33 21.00 C 118.60 21.00 118.00 20.32 118.00 19.50 Z M 124.75 19.61 C 122.62 17.99 122.51 17.00 124.46 17.00 C 125.27 17.00 126.41 17.90 127.00 19.00 C 128.23 21.29 127.30 21.54 124.75 19.61 Z M 148.25 20.31 C 149.21 20.06 150.79 20.06 151.75 20.31 C 152.71 20.56 151.93 20.77 150.00 20.77 C 148.07 20.77 147.29 20.56 148.25 20.31 Z M 169.73 19.95 C 168.76 19.36 167.11 19.15 166.06 19.48 C 165.02 19.81 163.88 19.61 163.53 19.04 C 163.15 18.43 163.90 18.00 165.38 18.00 C 166.75 18.00 168.91 17.61 170.18 17.12 C 171.46 16.64 175.43 16.56 179.00 16.95 C 184.90 17.58 185.26 17.74 182.91 18.74 C 178.79 20.47 171.68 21.13 169.73 19.95 Z M 193.25 19.91 C 189.97 18.68 190.50 17.03 194.25 16.80 C 196.04 16.70 199.07 16.51 201.00 16.39 C 212.11 15.70 216.17 15.83 218.89 16.95 C 221.39 17.99 222.17 17.97 223.31 16.83 C 224.83 15.31 236.83 15.11 243.00 16.49 C 246.01 17.17 246.22 17.39 244.50 18.07 C 243.40 18.50 241.38 18.88 240.00 18.91 C 238.03 18.96 237.82 18.76 239.00 18.00 C 240.27 17.18 240.22 17.03 238.68 17.02 C 237.69 17.01 235.90 17.52 234.73 18.15 C 233.55 18.78 228.84 19.40 224.27 19.52 C 217.78 19.70 215.78 19.42 215.13 18.26 C 214.23 16.66 210.00 17.34 210.00 19.09 C 210.00 19.61 208.99 19.83 207.75 19.58 C 206.51 19.32 203.73 18.83 201.56 18.48 C 198.05 17.91 197.76 18.01 198.93 19.42 C 200.04 20.75 199.98 21.00 198.56 21.00 C 197.64 21.00 197.16 20.55 197.50 20.00 C 197.84 19.45 197.68 19.00 197.14 19.00 C 196.61 19.00 196.02 19.40 195.83 19.88 C 195.65 20.37 194.51 20.39 193.25 19.91 Z M 249.50 19.00 C 249.14 18.42 250.18 18.00 252.00 18.00 C 253.82 18.00 254.86 18.42 254.50 19.00 C 254.16 19.55 253.04 20.00 252.00 20.00 C 250.96 20.00 249.84 19.55 249.50 19.00 Z M 257.80 18.26 C 256.47 16.65 258.17 15.04 261.25 15.02 C 263.26 15.00 263.61 16.59 261.75 17.34 C 261.06 17.62 261.99 17.88 263.81 17.92 C 265.67 17.97 266.86 18.42 266.52 18.97 C 265.63 20.41 259.15 19.89 257.80 18.26 Z M 309.69 18.52 C 308.71 17.80 306.92 17.45 305.70 17.74 C 303.99 18.15 303.75 18.00 304.65 17.03 C 305.87 15.73 311.53 16.43 312.50 18.01 C 313.44 19.52 311.53 19.86 309.69 18.52 Z M 366.25 19.34 C 365.56 19.06 365.00 18.16 365.00 17.34 C 365.00 15.27 368.39 16.09 368.81 18.26 C 369.15 20.01 368.55 20.27 366.25 19.34 Z M 84.81 18.32 C 85.53 18.03 86.40 18.06 86.73 18.40 C 87.06 18.73 86.47 18.96 85.42 18.92 C 84.25 18.87 84.01 18.64 84.81 18.32 Z M 111.81 18.32 C 112.53 18.03 113.40 18.06 113.73 18.40 C 114.06 18.73 113.47 18.96 112.42 18.92 C 111.25 18.87 111.01 18.64 111.81 18.32 Z M 145.00 18.11 C 145.00 16.66 147.95 15.95 150.83 16.69 L 153.50 17.38 L 151.00 18.09 C 147.37 19.12 145.00 19.13 145.00 18.11 Z M 289.81 18.32 C 290.53 18.03 291.40 18.06 291.73 18.40 C 292.06 18.73 291.47 18.96 290.42 18.92 C 289.25 18.87 289.01 18.64 289.81 18.32 Z M 295.25 17.97 C 294.01 17.47 293.00 16.60 293.00 16.03 C 293.00 14.60 293.48 14.71 297.23 17.00 C 300.55 19.02 299.35 19.62 295.25 17.97 Z M 324.00 18.12 C 324.00 17.50 324.72 17.00 325.61 17.00 C 326.62 17.00 327.00 16.45 326.64 15.50 C 326.25 14.50 326.68 14.00 327.91 14.00 C 328.93 14.00 330.00 14.90 330.29 16.00 C 330.59 17.15 330.32 18.01 329.66 18.01 C 329.02 18.02 327.49 18.30 326.25 18.63 C 324.90 18.99 324.00 18.79 324.00 18.12 Z M 350.03 18.02 C 349.24 17.53 349.63 17.06 351.17 16.65 C 354.48 15.77 356.21 15.86 355.57 16.88 C 354.77 18.18 351.40 18.87 350.03 18.02 Z M 227.73 17.40 C 227.40 17.06 226.53 17.03 225.81 17.32 C 225.01 17.64 225.25 17.87 226.42 17.92 C 227.47 17.96 228.06 17.73 227.73 17.40 Z M 280.00 17.00 C 280.00 16.45 280.68 16.00 281.50 16.00 C 282.32 16.00 283.00 16.45 283.00 17.00 C 283.00 17.55 282.32 18.00 281.50 18.00 C 280.68 18.00 280.00 17.55 280.00 17.00 Z M 316.67 16.58 C 316.37 15.80 315.08 14.96 313.81 14.71 C 311.98 14.36 312.14 14.24 314.60 14.14 C 316.55 14.05 318.36 14.74 319.50 16.00 C 321.25 17.94 321.25 18.00 319.26 18.00 C 318.14 18.00 316.97 17.36 316.67 16.58 Z M 334.00 17.43 C 334.00 16.24 336.93 14.00 338.68 13.84 C 342.70 13.49 346.00 14.06 346.00 15.11 C 346.00 15.81 345.02 15.97 343.33 15.55 C 340.98 14.96 340.81 15.07 341.95 16.44 C 343.09 17.82 342.70 18.00 338.62 18.00 C 336.08 18.00 334.00 17.74 334.00 17.43 Z M 185.75 16.34 C 186.44 16.06 187.56 16.06 188.25 16.34 C 188.94 16.62 188.38 16.84 187.00 16.84 C 185.62 16.84 185.06 16.62 185.75 16.34 Z M 360.81 15.32 C 361.53 15.03 362.40 15.06 362.73 15.40 C 363.06 15.73 362.47 15.96 361.42 15.92 C 360.25 15.87 360.01 15.64 360.81 15.32 Z M 301.27 14.31 C 302.24 14.05 303.59 14.07 304.27 14.34 C 304.95 14.62 304.15 14.83 302.50 14.81 C 300.85 14.78 300.30 14.56 301.27 14.31 Z" fill="none" stroke="rgba(255,255,255,0.92)" stroke-width="1.5" stroke-linejoin="round" fill-rule="evenodd"/>
</svg>
