<svg xmlns="http://www.w3.org/2000/svg" viewBox="0 0 100 100" width="100" height="100">
  <path d="M 0.00 50.00 L 0.00 0.00 L 50.00 0.00 L 100.00 0.00 L 100.00 50.00 L 100.00 100.00 L 50.00 100.00 L 0.00 100.00 L 0.00 50.00 Z M 7.52 91.00 C 8.29 91.00 10.73 89.27 12.96 87.15 C 16.18 84.09 17.00 82.60 17.00 79.82 C 17.00 77.06 17.53 76.08 19.50 75.18 C 20.88 74.56 22.00 73.36 22.00 72.52 C 22.00 71.68 22.19 71.00 22.42 71.00 C 22.65 71.00 25.46 73.59 28.67 76.75 C 36.27 84.26 42.06 86.43 52.83 85.80 C 58.90 85.45 61.53 84.78 65.20 82.62 C 70.58 79.47 76.61 73.16 78.47 68.73 L 79.76 65.67 L 81.82 70.33 C 82.96 72.90 84.36 75.00 84.94 75.00 C 85.52 75.00 86.00 76.30 86.00 77.88 C 86.00 79.98 87.09 81.76 90.00 84.38 C 94.27 88.24 96.00 88.87 96.00 86.58 C 96.00 85.80 94.42 84.19 92.50 83.00 C 87.89 80.15 87.89 76.84 92.50 70.14 C 96.64 64.11 97.40 59.70 93.47 64.50 C 91.79 66.55 91.01 66.99 91.00 65.90 C 91.00 65.01 92.13 63.08 93.50 61.59 C 96.58 58.28 96.94 55.43 94.10 56.95 C 91.98 58.08 87.00 67.38 87.00 70.20 C 87.00 73.81 85.04 71.87 83.52 66.75 C 80.85 57.75 80.51 51.63 82.51 48.25 C 84.72 44.51 88.89 42.00 92.90 42.00 C 95.07 42.00 96.00 41.52 96.00 40.41 C 96.00 37.25 83.27 40.91 81.16 44.68 C 80.37 46.08 79.88 45.68 78.10 42.21 C 76.94 39.92 74.62 36.49 72.94 34.58 L 69.89 31.11 L 72.93 29.54 C 79.84 25.97 89.09 26.64 93.84 31.06 L 96.00 33.08 L 96.00 30.19 C 96.00 23.79 81.62 21.51 71.75 26.34 L 66.39 28.96 L 61.18 26.98 C 50.74 23.01 37.41 25.32 29.63 32.45 C 26.17 35.61 25.39 35.88 20.18 35.70 C 17.06 35.59 12.45 35.85 9.94 36.28 L 5.39 37.06 L 5.12 23.78 L 4.86 10.50 L 49.99 10.77 L 95.13 11.04 L 94.85 17.97 C 94.69 21.78 94.89 25.22 95.28 25.62 C 95.68 26.01 96.00 21.76 96.00 16.17 C 96.00 8.72 95.67 5.99 94.75 5.96 C 94.06 5.95 73.36 5.83 48.75 5.70 L 4.00 5.48 L 4.00 23.84 C 4.00 40.95 4.12 42.16 5.75 41.48 C 8.61 40.29 15.23 39.09 19.25 39.04 C 23.37 39.00 23.81 39.97 21.50 44.00 C 20.71 45.38 20.05 47.51 20.04 48.75 C 20.02 49.99 19.55 51.00 19.00 51.00 C 18.45 51.00 18.00 50.59 18.00 50.08 C 18.00 48.57 11.77 45.30 7.75 44.69 C 4.99 44.28 4.00 44.48 4.00 45.47 C 4.00 46.29 5.69 47.10 8.25 47.52 C 15.70 48.73 18.05 52.42 19.42 65.00 C 20.37 73.79 18.98 74.04 13.66 66.03 C 10.47 61.24 8.35 59.00 6.99 59.00 C 4.04 59.00 4.52 60.81 9.46 68.17 C 11.91 71.82 14.18 75.88 14.51 77.18 C 15.35 80.54 11.30 86.25 7.23 87.46 C 4.48 88.27 4.00 88.88 4.00 91.54 C 4.00 95.49 5.39 97.06 5.82 93.60 C 5.99 92.17 6.76 91.00 7.52 91.00 Z M 45.12 79.87 C 38.03 78.56 31.38 73.45 27.70 66.50 C 24.01 59.50 25.39 43.00 29.68 43.00 C 30.47 43.00 33.37 44.46 36.13 46.25 C 40.96 49.38 41.12 49.64 40.72 53.50 C 40.00 60.42 44.15 65.00 51.12 65.00 C 57.34 65.00 62.07 56.74 59.07 51.13 C 57.93 49.01 64.29 37.00 66.54 37.00 C 68.49 37.00 72.83 43.78 74.56 49.53 C 79.70 66.60 63.52 83.26 45.12 79.87 Z M 39.18 43.95 C 36.25 41.85 33.33 39.93 32.68 39.71 C 30.84 39.06 34.91 34.99 39.50 32.88 C 44.40 30.63 54.65 30.41 59.54 32.45 L 63.01 33.90 L 60.75 37.34 C 59.51 39.23 57.78 42.09 56.90 43.70 C 55.51 46.25 54.85 46.58 51.77 46.22 C 49.82 45.99 47.39 46.25 46.36 46.80 C 44.88 47.59 43.41 47.00 39.18 43.95 Z M 95.68 35.81 C 95.36 35.01 95.13 35.25 95.08 36.42 C 95.04 37.47 95.27 38.06 95.60 37.73 C 95.94 37.40 95.97 36.53 95.68 35.81 Z M 41.00 9.00 C 39.71 8.16 39.73 8.03 41.19 8.02 C 42.12 8.01 43.16 8.45 43.50 9.00 C 44.28 10.27 42.96 10.27 41.00 9.00 Z M 76.00 9.00 C 76.00 8.45 76.45 8.00 77.00 8.00 C 77.55 8.00 78.00 8.45 78.00 9.00 C 78.00 9.55 77.55 10.00 77.00 10.00 C 76.45 10.00 76.00 9.55 76.00 9.00 Z M 14.50 8.00 C 14.84 7.45 15.32 7.00 15.56 7.00 C 15.80 7.00 16.00 7.45 16.00 8.00 C 16.00 8.55 15.52 9.00 14.94 9.00 C 14.36 9.00 14.16 8.55 14.50 8.00 Z M 19.81 8.32 C 20.53 8.03 21.40 8.06 21.73 8.40 C 22.06 8.73 21.47 8.96 20.42 8.92 C 19.25 8.87 19.01 8.64 19.81 8.32 Z M 30.81 8.32 C 31.53 8.03 32.40 8.06 32.73 8.40 C 33.06 8.73 32.47 8.96 31.42 8.92 C 30.25 8.87 30.01 8.64 30.81 8.32 Z" fill="none" stroke="rgba(255,255,255,0.92)" stroke-width="1.2" stroke-linejoin="round" fill-rule="evenodd"/>
</svg>
