<svg xmlns="http://www.w3.org/2000/svg" viewBox="0 0 100 100" width="100" height="100">
  <path d="M 0.00 50.00 L 0.00 0.00 L 50.00 0.00 L 100.00 0.00 L 100.00 50.00 L 100.00 100.00 L 50.00 100.00 L 0.00 100.00 L 0.00 50.00 Z M 10.52 60.50 C 10.56 17.97 10.30 12.67 8.30 13.44 C 7.41 13.78 7.00 13.51 7.25 12.75 C 7.78 11.16 7.80 11.16 55.68 11.04 L 95.86 10.95 L 95.79 8.15 L 95.71 5.34 L 59.10 5.74 C 38.97 5.96 18.68 6.22 14.00 6.32 L 5.50 6.50 L 5.50 42.00 C 5.50 61.52 5.65 81.69 5.82 86.81 C 6.13 95.72 6.24 96.11 8.32 95.81 L 10.50 95.50 L 10.52 60.50 Z M 56.52 91.87 C 61.24 87.52 62.36 87.46 59.00 91.73 C 56.69 94.67 56.47 96.00 58.29 96.00 C 60.20 96.00 65.82 86.10 66.53 81.50 C 66.96 78.71 66.69 76.90 65.64 75.50 C 63.73 72.97 62.69 74.05 61.01 80.27 C 59.66 85.30 53.91 92.27 50.33 93.20 C 49.25 93.49 46.82 93.22 44.93 92.61 C 41.57 91.52 41.48 91.35 40.72 84.50 C 40.00 78.06 40.11 77.36 42.06 75.76 C 43.23 74.81 46.01 73.54 48.23 72.94 C 53.26 71.58 56.00 69.91 56.00 68.20 C 56.00 66.28 47.84 67.60 41.13 70.60 C 38.18 71.92 35.42 73.00 35.01 73.00 C 33.79 73.00 35.09 64.96 37.06 60.36 C 39.98 53.56 44.86 51.50 58.18 51.48 C 64.06 51.47 69.20 51.13 69.61 50.72 C 70.82 49.51 66.80 47.14 62.50 46.53 C 60.17 46.19 54.73 46.75 49.50 47.86 C 44.55 48.90 40.32 49.60 40.11 49.40 C 39.35 48.72 45.03 42.12 46.89 41.53 C 47.93 41.20 53.97 41.85 60.31 42.97 C 66.66 44.09 72.55 45.00 73.42 45.00 C 76.35 45.00 75.03 42.06 71.25 40.14 C 66.61 37.79 63.13 37.06 55.71 36.85 C 52.53 36.76 49.68 36.30 49.39 35.82 C 49.09 35.34 50.43 33.37 52.36 31.44 L 55.88 27.92 L 59.69 29.51 C 61.79 30.38 65.08 32.35 67.00 33.88 C 73.63 39.17 78.21 40.49 79.38 37.44 C 80.52 34.49 70.13 27.09 64.75 27.02 C 63.79 27.01 63.00 26.57 63.00 26.04 C 63.00 24.81 71.19 22.37 78.35 21.48 C 88.42 20.22 93.91 25.93 92.57 36.26 C 91.29 46.16 91.32 46.47 93.73 46.82 C 95.92 47.13 95.95 46.97 95.68 37.25 C 95.35 25.58 93.62 22.17 86.70 19.52 C 83.09 18.14 81.36 18.06 75.48 19.00 C 68.31 20.15 60.78 22.93 59.57 24.89 C 59.19 25.50 57.61 26.00 56.04 26.00 C 52.29 26.00 47.00 31.87 47.00 36.03 C 47.00 37.92 46.49 39.00 45.59 39.00 C 42.44 39.00 35.93 49.33 37.86 51.26 C 38.44 51.84 37.66 54.02 35.81 56.99 C 33.68 60.42 32.67 63.54 32.28 67.88 C 31.68 74.46 32.80 77.13 35.83 76.33 C 37.13 75.99 37.59 76.48 37.60 78.19 C 37.68 90.86 37.88 91.73 41.25 93.88 C 46.61 97.32 51.28 96.71 56.52 91.87 Z M 73.34 94.25 C 75.25 92.58 75.31 92.58 74.67 94.32 C 74.18 95.66 74.43 96.06 75.62 95.82 C 76.50 95.65 79.01 92.58 81.19 89.00 C 84.69 83.26 85.10 81.93 84.72 77.68 C 84.30 73.09 81.54 67.79 79.46 67.59 C 78.93 67.54 78.26 70.88 77.96 75.00 C 77.24 85.11 74.40 90.90 68.75 93.79 L 64.50 95.97 L 67.92 95.99 C 69.80 95.99 72.24 95.21 73.34 94.25 Z M 95.71 92.00 C 95.83 90.08 95.66 89.17 95.34 90.00 C 95.01 90.83 93.79 92.56 92.62 93.85 L 90.50 96.19 L 93.00 95.85 C 95.07 95.56 95.54 94.90 95.71 92.00 Z M 8.00 92.50 C 8.00 91.12 8.39 90.00 8.86 90.00 C 9.34 90.00 9.51 91.12 9.24 92.50 C 8.98 93.88 8.59 95.00 8.38 95.00 C 8.17 95.00 8.00 93.88 8.00 92.50 Z M 78.45 86.50 C 78.90 85.40 79.72 82.03 80.27 79.01 C 81.18 74.07 81.37 73.77 82.21 76.01 C 83.34 79.03 81.75 85.15 79.31 87.13 C 77.81 88.35 77.72 88.28 78.45 86.50 Z M 95.57 63.24 C 94.33 62.00 93.85 64.03 94.63 67.18 L 95.46 70.50 L 95.80 67.15 C 95.99 65.31 95.88 63.55 95.57 63.24 Z M 7.73 46.40 C 7.33 45.99 7.01 44.73 7.03 43.58 C 7.06 41.66 7.14 41.64 8.10 43.29 C 9.22 45.21 8.93 47.60 7.73 46.40 Z M 62.25 40.31 C 63.21 40.06 64.79 40.06 65.75 40.31 C 66.71 40.56 65.92 40.77 64.00 40.77 C 62.08 40.77 61.29 40.56 62.25 40.31 Z M 57.75 39.34 C 58.44 39.06 59.56 39.06 60.25 39.34 C 60.94 39.62 60.38 39.84 59.00 39.84 C 57.62 39.84 57.06 39.62 57.75 39.34 Z M 7.00 36.44 C 7.00 35.03 7.41 34.13 7.91 34.44 C 8.40 34.75 8.58 35.90 8.29 37.00 C 7.57 39.75 7.00 39.51 7.00 36.44 Z M 71.70 34.25 C 69.70 32.74 68.06 31.15 68.04 30.72 C 67.98 29.54 73.26 32.53 75.41 34.90 C 78.10 37.87 75.99 37.51 71.70 34.25 Z M 7.00 30.50 C 7.00 29.68 7.44 29.00 7.97 29.00 C 8.50 29.00 8.68 29.68 8.36 30.50 C 8.05 31.32 7.61 32.00 7.39 32.00 C 7.18 32.00 7.00 31.32 7.00 30.50 Z M 8.23 24.00 C 8.23 22.07 8.44 21.29 8.69 22.25 C 8.94 23.21 8.94 24.79 8.69 25.75 C 8.44 26.71 8.23 25.93 8.23 24.00 Z M 7.00 19.00 C 7.00 17.13 7.27 16.87 8.20 17.80 C 9.13 18.73 9.13 19.27 8.20 20.20 C 7.27 21.13 7.00 20.87 7.00 19.00 Z M 18.81 8.32 C 19.53 8.03 20.40 8.06 20.73 8.40 C 21.06 8.73 20.47 8.96 19.42 8.92 C 18.25 8.87 18.01 8.64 18.81 8.32 Z M 91.00 7.94 C 91.00 7.36 91.45 7.16 92.00 7.50 C 92.55 7.84 93.00 8.32 93.00 8.56 C 93.00 8.80 92.55 9.00 92.00 9.00 C 91.45 9.00 91.00 8.52 91.00 7.94 Z M 82.27 7.31 C 83.24 7.05 84.59 7.07 85.27 7.34 C 85.95 7.62 85.15 7.83 83.50 7.81 C 81.85 7.78 81.30 7.56 82.27 7.31 Z" fill="none" stroke="rgba(255,255,255,0.92)" stroke-width="1.2" stroke-linejoin="round" fill-rule="evenodd"/>
</svg>
