<svg xmlns="http://www.w3.org/2000/svg" viewBox="0 0 100 100" width="100" height="100">
  <path d="M 0.00 50.00 L 0.00 0.00 L 50.00 0.00 L 100.00 0.00 L 100.00 50.00 L 100.00 100.00 L 50.00 100.00 L 0.00 100.00 L 0.00 50.00 Z M 94.98 94.48 C 94.12 93.44 94.09 93.00 94.88 93.00 C 95.49 93.00 96.00 92.55 96.00 92.00 C 96.00 91.35 81.19 91.00 53.57 91.00 L 11.14 91.00 L 10.93 73.25 C 10.82 63.49 10.79 54.02 10.86 52.21 C 10.99 49.22 10.83 49.02 9.00 50.00 C 7.39 50.86 7.00 50.76 7.00 49.49 C 7.00 48.54 7.70 48.03 8.75 48.21 C 10.36 48.48 10.49 47.23 10.34 32.50 C 10.07 6.67 10.04 5.86 9.19 6.38 C 8.74 6.66 8.47 8.26 8.59 9.94 C 8.71 11.63 8.40 13.26 7.90 13.56 C 7.41 13.87 7.00 11.84 7.00 9.06 C 7.00 6.16 6.55 4.00 5.94 4.00 C 5.20 4.00 5.08 17.33 5.54 48.25 C 5.90 72.59 6.18 93.29 6.16 94.25 C 6.13 95.90 8.88 96.01 51.16 95.98 C 90.75 95.95 96.06 95.77 94.98 94.48 Z M 15.00 94.00 C 15.00 93.45 15.42 93.00 15.94 93.00 C 16.46 93.00 17.16 93.45 17.50 94.00 C 17.84 94.55 17.42 95.00 16.56 95.00 C 15.70 95.00 15.00 94.55 15.00 94.00 Z M 26.51 93.98 C 26.86 93.42 27.56 93.23 28.07 93.54 C 29.46 94.40 29.20 95.00 27.44 95.00 C 26.58 95.00 26.16 94.54 26.51 93.98 Z M 31.00 93.90 C 31.00 93.38 44.10 93.01 61.63 93.03 C 78.48 93.05 91.98 93.35 91.63 93.70 C 90.61 94.72 31.00 94.91 31.00 93.90 Z M 8.00 91.00 C 8.00 90.45 8.48 90.00 9.06 90.00 C 9.64 90.00 9.84 90.45 9.50 91.00 C 9.16 91.55 8.68 92.00 8.44 92.00 C 8.20 92.00 8.00 91.55 8.00 91.00 Z M 38.40 81.67 C 38.74 79.84 39.68 77.48 40.48 76.42 C 41.85 74.61 41.94 74.70 41.97 77.82 C 41.99 80.45 42.37 81.07 43.75 80.80 C 44.94 80.56 45.39 79.71 45.17 78.12 C 44.64 74.37 46.82 76.61 48.01 81.04 C 48.64 83.36 49.68 85.00 50.54 85.00 C 53.56 85.00 51.27 77.25 46.80 72.35 C 45.70 71.14 44.98 69.18 45.17 67.87 C 45.44 65.98 46.10 66.69 48.81 71.78 C 52.04 77.86 53.27 78.99 54.48 77.03 C 55.26 75.76 51.72 68.91 48.15 64.78 C 45.29 61.48 43.48 57.00 45.01 57.00 C 46.20 57.00 51.79 64.86 53.73 69.25 C 55.28 72.76 56.84 73.83 58.29 72.38 C 59.35 71.31 54.28 62.44 48.93 56.01 C 46.11 52.63 44.12 49.55 44.50 49.18 C 45.34 48.36 51.01 54.72 55.25 61.25 C 57.14 64.16 59.07 66.00 60.23 66.00 C 62.03 66.00 62.00 65.78 59.81 61.88 C 58.54 59.62 54.69 54.48 51.25 50.47 C 47.53 46.12 45.00 42.25 45.00 40.88 C 45.00 38.77 45.31 38.90 49.07 42.55 C 51.31 44.72 54.95 49.20 57.16 52.50 C 61.02 58.26 62.93 59.71 63.68 57.45 C 64.25 55.74 58.01 46.99 51.27 40.04 C 45.59 34.18 43.66 31.00 45.79 31.00 C 46.78 31.00 54.31 38.87 59.92 45.75 C 63.81 50.54 67.00 52.47 67.00 50.04 C 67.00 48.49 52.46 31.46 49.08 29.06 C 46.28 27.07 44.78 23.00 46.85 23.00 C 47.73 23.00 55.43 30.93 62.79 39.42 C 65.95 43.07 67.35 44.05 68.18 43.22 C 69.68 41.72 66.05 36.95 55.29 26.25 C 47.62 18.63 44.95 14.00 48.23 14.00 C 48.91 14.00 54.33 19.04 60.29 25.21 C 68.47 33.67 71.33 36.08 71.98 35.02 C 72.99 33.39 63.21 21.98 53.85 13.87 C 48.30 9.06 46.49 5.97 49.25 6.02 C 50.63 6.05 58.58 13.41 66.88 22.36 C 71.41 27.24 72.48 27.95 73.62 26.81 C 74.76 25.67 73.24 23.75 64.09 14.73 L 53.21 4.00 L 47.07 4.00 C 39.58 4.00 38.20 4.91 26.89 17.23 C 20.61 24.09 19.01 26.41 19.92 27.32 C 20.83 28.23 23.03 26.42 29.48 19.42 C 38.57 9.57 45.01 4.08 44.99 6.20 C 44.98 6.91 39.33 13.26 32.42 20.31 C 21.06 31.90 18.54 35.50 21.77 35.50 C 22.38 35.50 25.49 32.49 28.69 28.82 C 35.71 20.74 44.01 13.33 43.97 15.17 C 43.96 15.90 38.55 22.11 31.96 28.97 C 25.37 35.82 20.13 41.90 20.32 42.47 C 21.14 44.92 23.77 43.61 27.45 38.93 C 33.08 31.78 42.43 22.78 42.87 24.10 C 43.07 24.71 40.12 28.43 36.31 32.36 C 26.73 42.23 21.70 48.78 22.37 50.53 C 23.28 52.88 24.30 52.25 27.71 47.22 C 32.60 40.01 41.93 30.19 41.97 32.21 C 41.99 33.15 39.75 36.02 37.00 38.60 C 32.21 43.08 23.00 55.82 23.00 57.97 C 23.00 60.77 26.11 58.32 30.26 52.25 C 36.05 43.78 42.00 37.79 42.00 40.42 C 42.00 41.41 39.81 44.76 37.13 47.86 C 31.63 54.23 26.00 62.74 26.00 64.70 C 26.00 66.84 28.60 66.17 29.71 63.75 C 31.27 60.37 40.03 49.00 41.08 49.00 C 42.85 49.00 41.96 50.73 36.96 56.95 C 29.40 66.37 25.97 74.00 29.30 74.00 C 30.02 74.00 31.62 71.91 32.85 69.36 C 35.37 64.18 39.82 58.00 41.03 58.00 C 42.65 58.00 41.29 61.11 38.30 64.26 C 34.98 67.74 31.00 74.95 31.00 77.46 C 31.00 80.22 33.73 79.08 35.07 75.75 C 36.76 71.58 40.28 66.03 41.25 66.01 C 42.63 65.99 42.02 69.74 40.43 71.05 C 37.58 73.42 33.46 83.13 34.76 84.42 C 36.24 85.90 37.83 84.70 38.40 81.67 Z M 7.67 73.33 C 7.30 72.97 7.00 72.20 7.00 71.63 C 7.00 71.01 7.47 71.07 8.18 71.78 C 8.83 72.43 9.13 73.20 8.85 73.48 C 8.57 73.77 8.03 73.70 7.67 73.33 Z M 7.00 69.00 C 7.00 68.45 7.45 68.00 8.00 68.00 C 8.55 68.00 9.00 68.45 9.00 69.00 C 9.00 69.55 8.55 70.00 8.00 70.00 C 7.45 70.00 7.00 69.55 7.00 69.00 Z M 7.02 62.25 C 7.02 61.84 7.47 60.83 8.00 60.00 C 8.78 58.79 8.97 58.93 8.98 60.75 C 8.99 61.99 8.55 63.00 8.00 63.00 C 7.45 63.00 7.01 62.66 7.02 62.25 Z M 7.00 46.00 C 7.00 45.45 7.45 45.00 8.00 45.00 C 8.55 45.00 9.00 45.45 9.00 46.00 C 9.00 46.55 8.55 47.00 8.00 47.00 C 7.45 47.00 7.00 46.55 7.00 46.00 Z M 7.00 42.06 C 7.00 41.54 7.45 40.84 8.00 40.50 C 8.55 40.16 9.00 40.58 9.00 41.44 C 9.00 42.30 8.55 43.00 8.00 43.00 C 7.45 43.00 7.00 42.58 7.00 42.06 Z M 8.00 38.00 C 8.00 37.45 8.45 37.00 9.00 37.00 C 9.55 37.00 10.00 37.45 10.00 38.00 C 10.00 38.55 9.55 39.00 9.00 39.00 C 8.45 39.00 8.00 38.55 8.00 38.00 Z M 7.02 33.81 C 7.01 31.78 7.45 29.84 8.00 29.50 C 9.29 28.70 9.29 34.00 8.00 36.00 C 7.28 37.12 7.03 36.56 7.02 33.81 Z M 7.28 21.00 C 7.39 17.70 7.85 15.00 8.29 15.00 C 8.74 15.00 9.01 17.70 8.89 21.00 C 8.77 24.30 8.32 27.00 7.88 27.00 C 7.44 27.00 7.18 24.30 7.28 21.00 Z M 34.12 4.17 C 30.30 3.64 18.22 16.28 20.94 17.96 C 21.72 18.44 24.77 16.13 29.33 11.61 C 35.85 5.14 36.29 4.47 34.12 4.17 Z M 77.46 17.07 C 77.77 16.56 75.50 13.41 72.41 10.07 C 68.06 5.38 66.14 4.00 63.94 4.00 C 61.19 4.00 61.32 4.23 67.80 10.83 C 74.45 17.62 76.36 18.85 77.46 17.07 Z M 26.94 4.16 C 25.66 3.97 23.84 4.72 22.62 5.95 C 20.81 7.76 20.72 8.20 21.99 8.99 C 23.06 9.66 24.27 9.16 26.32 7.21 C 29.10 4.55 29.12 4.49 26.94 4.16 Z M 77.37 5.86 C 76.45 4.84 74.83 4.00 73.78 4.00 C 71.95 4.00 71.96 4.13 74.03 7.04 C 75.78 9.50 76.47 9.85 77.62 8.90 C 78.85 7.88 78.82 7.45 77.37 5.86 Z" fill="none" stroke="rgba(255,255,255,0.92)" stroke-width="1.2" stroke-linejoin="round" fill-rule="evenodd"/>
</svg>
