<svg xmlns="http://www.w3.org/2000/svg" viewBox="0 0 100 100" width="100" height="100">
  <path d="M 0.00 50.00 L 0.00 0.00 L 50.00 0.00 L 100.00 0.00 L 100.00 50.00 L 100.00 100.00 L 50.00 100.00 L 0.00 100.00 L 0.00 50.00 Z M 59.41 94.58 C 60.84 93.90 61.13 93.98 60.57 94.89 C 59.98 95.85 61.95 96.02 69.30 95.69 C 74.52 95.45 79.28 94.94 79.89 94.57 C 80.50 94.19 81.00 94.27 81.00 94.74 C 81.00 95.21 84.37 95.57 88.50 95.55 C 95.60 95.51 96.00 95.39 96.00 93.25 C 96.00 91.48 95.41 90.98 93.25 90.92 C 87.98 90.76 74.30 90.77 45.00 90.95 C 8.81 91.16 11.35 91.25 11.25 89.75 C 11.20 89.06 11.11 74.01 11.06 56.29 C 10.99 34.74 10.60 23.87 9.89 23.43 C 9.24 23.03 8.90 23.69 9.02 25.14 C 9.41 29.71 8.99 34.00 8.17 34.00 C 7.17 34.00 7.29 10.37 8.30 9.37 C 8.68 8.98 9.01 11.33 9.02 14.58 C 9.02 17.84 9.49 21.18 10.06 22.00 C 10.82 23.10 11.05 21.89 10.93 17.50 C 10.84 14.20 10.81 11.03 10.88 10.45 C 10.95 9.84 13.17 9.50 16.25 9.64 C 27.90 10.15 95.32 10.01 95.86 9.47 C 96.18 9.15 95.78 8.47 94.97 7.96 C 93.97 7.33 93.90 7.03 94.75 7.02 C 95.44 7.01 96.00 6.56 96.00 6.02 C 96.00 5.39 81.93 5.03 57.03 5.02 C 35.59 5.02 17.70 4.96 17.28 4.89 C 16.85 4.82 13.88 4.82 10.69 4.88 L 4.88 5.00 L 5.39 47.25 C 5.67 70.49 5.92 90.96 5.95 92.74 L 6.00 95.97 L 31.75 95.74 C 45.91 95.61 58.36 95.09 59.41 94.58 Z M 21.00 94.00 C 21.00 93.45 21.48 93.00 22.06 93.00 C 22.64 93.00 22.84 93.45 22.50 94.00 C 22.16 94.55 21.68 95.00 21.44 95.00 C 21.20 95.00 21.00 94.55 21.00 94.00 Z M 38.00 94.01 C 38.00 93.46 40.10 93.00 42.67 93.00 C 48.22 93.00 48.07 93.48 42.25 94.37 C 39.62 94.78 38.00 94.64 38.00 94.01 Z M 66.50 94.00 C 66.84 93.45 67.32 93.00 67.56 93.00 C 67.80 93.00 68.00 93.45 68.00 94.00 C 68.00 94.55 67.52 95.00 66.94 95.00 C 66.36 95.00 66.16 94.55 66.50 94.00 Z M 28.81 93.32 C 29.53 93.03 30.40 93.06 30.73 93.40 C 31.06 93.73 30.47 93.96 29.42 93.92 C 28.25 93.87 28.01 93.64 28.81 93.32 Z M 54.00 77.31 C 54.00 79.33 54.50 80.00 56.00 80.00 C 57.57 80.00 58.00 79.33 58.00 76.88 L 58.00 73.77 L 60.61 75.48 C 62.58 76.77 63.49 76.91 64.36 76.03 C 65.22 75.15 65.07 74.54 63.75 73.57 C 61.33 71.79 61.54 71.26 64.94 70.51 C 66.56 70.16 69.71 68.55 71.93 66.93 C 75.77 64.15 76.51 64.00 85.99 64.00 C 94.22 64.00 96.00 63.73 96.00 62.50 C 96.00 61.28 94.35 61.00 87.12 61.00 L 78.23 61.00 L 79.70 56.75 C 81.13 52.60 80.68 46.86 78.53 41.75 C 77.85 40.16 78.60 40.00 86.79 40.00 L 95.79 40.00 L 95.86 34.49 L 95.92 28.98 L 93.49 31.74 L 91.06 34.50 L 91.03 31.75 C 91.01 29.68 90.51 29.00 89.00 29.00 C 87.67 29.00 87.00 29.67 87.00 31.00 C 87.00 33.56 86.18 33.52 83.30 30.81 C 81.43 29.06 80.73 28.88 79.74 29.89 C 78.75 30.89 79.11 31.64 81.50 33.57 C 83.15 34.90 84.16 36.03 83.75 36.07 C 82.64 36.19 75.12 36.17 74.25 36.04 C 73.84 35.98 72.43 35.04 71.11 33.95 C 68.80 32.02 68.78 31.90 70.54 29.96 C 71.98 28.36 72.10 27.70 71.11 26.73 C 70.12 25.75 69.39 26.04 67.59 28.12 C 65.62 30.39 64.80 30.65 61.41 30.11 C 57.75 29.52 57.48 29.24 57.19 25.74 C 56.95 22.81 56.46 22.00 54.94 22.00 C 53.36 22.00 53.00 22.71 53.00 25.77 C 53.00 29.40 52.82 29.59 47.77 31.39 L 42.55 33.24 L 38.80 28.89 C 35.87 25.49 34.79 24.81 33.85 25.75 C 32.90 26.70 33.35 27.85 35.89 31.01 C 37.68 33.24 39.00 35.39 38.82 35.78 C 38.65 36.18 37.38 38.41 36.00 40.74 C 33.68 44.67 33.19 44.99 29.25 44.99 C 26.14 45.00 25.00 45.40 25.00 46.50 C 25.00 47.58 26.11 48.00 29.00 48.00 C 32.77 48.00 33.00 48.17 33.00 50.98 C 33.00 52.62 33.75 55.84 34.67 58.13 L 36.34 62.31 L 33.67 64.61 C 32.20 65.87 31.00 67.35 31.00 67.89 C 31.00 70.05 32.98 69.89 35.84 67.48 L 38.84 64.95 L 42.60 67.50 C 44.66 68.90 47.40 70.31 48.68 70.63 C 51.62 71.37 51.60 72.09 48.51 74.99 C 46.57 76.81 46.28 77.63 47.17 78.70 C 48.11 79.84 48.80 79.61 51.15 77.35 L 54.00 74.63 L 54.00 77.31 Z M 7.64 77.49 C 7.29 76.59 7.64 76.00 8.53 76.00 C 10.15 76.00 10.52 77.56 9.10 78.44 C 8.61 78.74 7.95 78.32 7.64 77.49 Z M 8.08 72.42 C 8.13 71.25 8.36 71.01 8.68 71.81 C 8.97 72.53 8.94 73.40 8.60 73.73 C 8.27 74.06 8.04 73.47 8.08 72.42 Z M 8.08 66.42 C 8.13 65.25 8.36 65.01 8.68 65.81 C 8.97 66.53 8.94 67.40 8.60 67.73 C 8.27 68.06 8.04 67.47 8.08 66.42 Z M 48.01 66.46 C 41.37 63.48 37.00 57.76 37.00 52.05 C 37.00 50.01 37.49 49.00 38.50 49.00 C 39.33 49.00 40.00 48.11 40.00 47.00 C 40.00 45.90 39.56 45.00 39.02 45.00 C 37.12 45.00 40.24 40.16 42.51 39.59 C 43.75 39.28 44.98 38.19 45.25 37.16 C 45.79 35.10 52.45 33.00 58.44 33.00 C 61.33 33.00 62.00 33.37 62.00 35.00 C 62.00 37.17 65.54 37.89 66.22 35.85 C 66.79 34.12 74.09 40.97 75.65 44.70 C 78.66 51.90 76.05 59.61 68.95 64.54 C 65.52 66.91 63.53 67.50 58.12 67.74 C 53.71 67.93 50.34 67.51 48.01 66.46 Z M 57.33 61.34 C 57.66 59.33 57.69 57.31 57.40 56.84 C 56.24 54.96 54.21 56.19 53.62 59.12 C 52.65 64.00 52.86 65.00 54.87 65.00 C 56.25 65.00 56.89 64.04 57.33 61.34 Z M 8.08 62.42 C 8.13 61.25 8.36 61.01 8.68 61.81 C 8.97 62.53 8.94 63.40 8.60 63.73 C 8.27 64.06 8.04 63.47 8.08 62.42 Z M 96.00 56.00 C 96.00 54.53 95.33 54.00 93.50 54.00 C 90.63 54.00 90.04 56.60 92.75 57.31 C 95.82 58.11 96.00 58.04 96.00 56.00 Z M 50.00 52.04 C 50.00 50.15 48.03 50.02 44.57 51.67 C 41.21 53.27 40.20 54.86 41.62 56.29 C 42.43 57.10 50.00 53.25 50.00 52.04 Z M 8.08 54.42 C 8.13 53.25 8.36 53.01 8.68 53.81 C 8.97 54.53 8.94 55.40 8.60 55.73 C 8.27 56.06 8.04 55.47 8.08 54.42 Z M 75.00 54.64 C 75.00 53.43 69.21 52.00 64.36 52.00 C 62.37 52.00 62.70 54.77 64.75 55.31 C 68.88 56.39 75.00 55.99 75.00 54.64 Z M 65.25 45.61 C 70.02 43.72 70.93 42.69 68.92 41.45 C 68.10 40.94 59.74 43.32 58.23 44.50 C 57.68 44.93 59.26 48.08 59.88 47.79 C 60.23 47.63 62.64 46.65 65.25 45.61 Z M 96.00 45.40 C 96.00 44.37 94.57 44.00 90.59 44.00 C 85.94 44.00 85.25 44.24 85.64 45.75 C 86.02 47.18 87.00 47.44 91.05 47.15 C 94.47 46.91 96.00 46.37 96.00 45.40 Z M 7.50 46.00 C 7.84 45.45 8.32 45.00 8.56 45.00 C 8.80 45.00 9.00 45.45 9.00 46.00 C 9.00 46.55 8.52 47.00 7.94 47.00 C 7.36 47.00 7.16 46.55 7.50 46.00 Z M 52.68 46.22 C 53.54 45.67 53.60 44.24 52.87 40.84 C 52.06 37.04 51.55 36.30 50.02 36.70 C 48.50 37.10 48.25 37.87 48.66 40.85 C 49.55 47.22 50.05 47.89 52.68 46.22 Z M 7.50 43.00 C 7.16 42.45 7.36 42.00 7.94 42.00 C 8.52 42.00 9.00 42.45 9.00 43.00 C 9.00 43.55 8.80 44.00 8.56 44.00 C 8.32 44.00 7.84 43.55 7.50 43.00 Z M 7.00 37.06 C 7.00 36.54 7.45 35.84 8.00 35.50 C 8.55 35.16 9.00 35.58 9.00 36.44 C 9.00 37.30 8.55 38.00 8.00 38.00 C 7.45 38.00 7.00 37.58 7.00 37.06 Z M 8.64 7.49 C 8.29 6.59 8.64 6.00 9.53 6.00 C 11.15 6.00 11.52 7.56 10.10 8.44 C 9.61 8.74 8.95 8.32 8.64 7.49 Z M 25.50 8.00 L 22.50 7.24 L 25.75 7.12 C 27.54 7.05 29.00 7.45 29.00 8.00 C 29.00 8.55 28.89 8.95 28.75 8.88 C 28.61 8.82 27.15 8.42 25.50 8.00 Z M 47.59 8.15 C 47.30 7.68 48.50 7.26 50.24 7.21 C 52.55 7.15 53.02 7.37 51.96 8.05 C 50.12 9.21 48.27 9.25 47.59 8.15 Z M 66.95 7.95 C 65.95 7.32 67.04 7.03 70.42 7.02 C 75.81 7.00 76.14 7.40 71.45 8.29 C 69.78 8.61 67.75 8.46 66.95 7.95 Z M 31.81 7.32 C 32.53 7.03 33.40 7.06 33.73 7.40 C 34.06 7.73 33.47 7.96 32.42 7.92 C 31.25 7.87 31.01 7.64 31.81 7.32 Z M 54.81 7.32 C 55.53 7.03 56.40 7.06 56.73 7.40 C 57.06 7.73 56.47 7.96 55.42 7.92 C 54.25 7.87 54.01 7.64 54.81 7.32 Z M 80.00 7.61 C 80.00 7.40 81.35 7.03 83.00 6.79 C 84.65 6.54 86.00 6.72 86.00 7.17 C 86.00 7.63 84.65 8.00 83.00 8.00 C 81.35 8.00 80.00 7.83 80.00 7.61 Z" fill="none" stroke="rgba(255,255,255,0.92)" stroke-width="1.2" stroke-linejoin="round" fill-rule="evenodd"/>
</svg>
