<svg xmlns="http://www.w3.org/2000/svg" viewBox="0 0 100 100" width="100" height="100">
  <path d="M 0.00 50.00 L 0.00 0.00 L 50.00 0.00 L 100.00 0.00 L 100.00 50.00 L 100.00 100.00 L 50.00 100.00 L 0.00 100.00 L 0.00 50.00 Z M 16.23 94.17 C 16.90 93.50 19.96 93.06 23.45 93.15 L 29.50 93.30 L 23.33 93.90 C 19.94 94.23 16.91 94.75 16.60 95.07 C 16.29 95.38 34.03 95.73 56.02 95.84 C 82.72 95.98 96.00 95.70 96.00 95.02 C 96.00 94.46 95.44 93.96 94.75 93.92 C 93.75 93.86 93.75 93.74 94.75 93.34 C 99.49 91.42 91.77 91.00 52.15 91.00 L 8.29 91.00 L 8.12 81.08 C 7.97 71.81 8.12 70.97 10.45 68.33 L 12.94 65.50 L 12.97 68.75 C 12.99 70.96 13.48 72.00 14.50 72.00 C 15.43 72.00 16.00 71.06 16.00 69.50 C 16.00 66.43 16.70 66.37 19.70 69.19 C 21.56 70.94 22.27 71.12 23.26 70.12 C 24.25 69.11 24.04 68.48 22.25 67.02 C 19.69 64.92 19.41 64.00 21.33 64.00 C 22.07 64.00 24.16 65.86 25.98 68.13 C 28.63 71.42 29.02 72.42 27.90 73.10 C 23.65 75.66 23.48 75.88 24.77 77.17 C 25.77 78.17 26.62 78.06 29.04 76.64 C 32.01 74.88 32.16 74.90 37.28 77.45 C 40.15 78.88 44.21 80.33 46.30 80.66 C 49.09 81.11 49.96 81.66 49.55 82.73 C 47.94 86.93 47.92 88.75 49.46 89.35 C 50.35 89.69 51.27 89.41 51.51 88.73 C 53.81 82.18 53.59 82.36 60.19 81.27 C 65.36 80.41 71.34 78.41 75.07 76.28 C 75.39 76.10 77.36 77.12 79.46 78.54 C 82.28 80.45 83.56 80.83 84.39 80.00 C 85.21 79.17 84.58 78.10 82.00 75.93 C 78.93 73.35 78.71 72.86 80.17 71.99 C 81.09 71.44 82.82 69.42 84.00 67.49 C 85.97 64.32 86.59 64.00 90.77 64.00 L 95.37 64.00 L 92.53 66.97 C 90.07 69.54 89.91 70.03 91.35 70.58 C 94.00 71.60 96.00 69.14 96.00 64.88 C 96.00 61.01 95.99 61.00 91.93 61.00 C 88.28 61.00 87.93 60.79 88.52 58.94 C 89.53 55.76 89.20 44.24 88.04 42.07 C 86.47 39.15 86.64 39.00 91.50 39.00 C 94.83 39.00 96.00 38.61 96.00 37.50 C 96.00 36.37 94.79 36.00 91.11 36.00 C 86.49 36.00 85.87 35.67 80.28 30.19 C 77.01 27.00 72.94 23.80 71.22 23.09 C 68.48 21.96 68.16 21.43 68.67 18.90 C 69.12 16.64 68.89 16.00 67.60 16.00 C 66.69 16.00 65.54 17.07 65.05 18.37 C 64.19 20.64 63.92 20.70 59.06 19.74 C 52.78 18.49 44.76 19.92 37.16 23.63 L 31.81 26.24 L 28.81 24.02 C 26.51 22.32 25.53 22.07 24.65 22.97 C 23.78 23.87 24.19 24.71 26.38 26.47 L 29.26 28.78 L 26.38 32.39 C 23.52 35.98 23.45 36.00 15.75 36.00 C 10.24 36.00 7.99 35.64 7.95 34.75 C 7.88 32.66 7.86 14.67 7.93 12.00 L 8.00 9.50 L 25.11 9.59 C 41.22 9.67 42.34 9.56 44.22 7.59 L 46.23 5.50 L 45.60 7.57 C 44.99 9.62 45.16 9.63 70.49 9.57 L 96.00 9.50 L 96.00 7.25 C 96.00 5.07 95.69 5.00 85.75 4.91 C 73.42 4.81 45.99 4.82 21.78 4.92 L 4.06 5.00 L 4.19 8.46 C 4.26 10.36 4.70 11.69 5.16 11.40 C 5.62 11.12 6.00 11.36 6.00 11.94 C 6.00 12.52 5.55 13.00 5.00 13.00 C 4.45 13.00 4.00 13.48 4.00 14.06 C 4.00 14.64 4.43 14.85 4.96 14.52 C 6.06 13.84 5.71 19.47 4.47 22.41 C 3.90 23.77 4.00 24.12 4.83 23.61 C 5.47 23.21 6.00 23.33 6.00 23.88 C 6.00 24.43 5.55 25.16 5.00 25.50 C 4.45 25.84 4.00 26.57 4.00 27.12 C 4.00 27.67 4.45 27.84 5.00 27.50 C 5.55 27.16 6.00 27.36 6.00 27.94 C 6.00 28.52 5.57 29.00 5.05 29.00 C 4.49 29.00 4.56 30.30 5.22 32.19 C 6.05 34.59 6.04 35.49 5.17 35.78 C 4.52 35.99 4.00 36.97 4.00 37.94 C 4.00 39.51 5.04 39.72 12.75 39.74 C 19.71 39.77 21.40 40.05 21.00 41.14 C 20.73 41.89 20.51 46.66 20.52 51.75 L 20.53 61.00 L 12.26 61.00 C 4.53 61.00 4.00 61.13 4.00 63.11 C 4.00 64.89 4.41 65.11 6.63 64.56 L 9.27 63.90 L 6.63 67.02 C 4.06 70.08 3.08 72.69 4.93 71.54 C 6.37 70.66 7.21 72.76 6.42 75.26 C 5.73 77.43 5.68 77.44 4.92 75.50 C 4.47 74.34 4.11 78.16 4.07 84.61 L 4.00 95.72 L 9.53 95.53 C 12.57 95.42 15.59 94.81 16.23 94.17 Z M 77.50 94.00 C 77.16 93.45 77.33 93.00 77.88 93.00 C 78.43 93.00 79.16 93.45 79.50 94.00 C 79.84 94.55 79.67 95.00 79.12 95.00 C 78.57 95.00 77.84 94.55 77.50 94.00 Z M 90.00 94.00 L 87.50 93.20 L 90.25 93.10 C 91.76 93.04 93.00 93.45 93.00 94.00 C 93.00 94.55 92.89 94.96 92.75 94.90 C 92.61 94.85 91.38 94.44 90.00 94.00 Z M 32.81 93.32 C 33.53 93.03 34.40 93.06 34.73 93.40 C 35.06 93.73 34.47 93.96 33.42 93.92 C 32.25 93.87 32.01 93.64 32.81 93.32 Z M 67.25 93.31 C 68.21 93.06 69.79 93.06 70.75 93.31 C 71.71 93.56 70.92 93.77 69.00 93.77 C 67.08 93.77 66.29 93.56 67.25 93.31 Z M 81.75 93.34 C 82.44 93.06 83.56 93.06 84.25 93.34 C 84.94 93.62 84.38 93.84 83.00 93.84 C 81.62 93.84 81.06 93.62 81.75 93.34 Z M 5.19 89.50 C 5.22 87.85 5.44 87.30 5.69 88.27 C 5.95 89.24 5.93 90.59 5.66 91.27 C 5.38 91.95 5.17 91.15 5.19 89.50 Z M 5.00 84.94 C 5.00 84.36 5.45 84.16 6.00 84.50 C 6.55 84.84 7.00 85.32 7.00 85.56 C 7.00 85.80 6.55 86.00 6.00 86.00 C 5.45 86.00 5.00 85.52 5.00 84.94 Z M 5.02 81.31 C 5.02 80.86 5.47 79.83 6.00 79.00 C 6.84 77.71 6.97 77.73 6.98 79.19 C 6.99 80.12 6.55 81.16 6.00 81.50 C 5.45 81.84 5.01 81.75 5.02 81.31 Z M 44.50 76.61 C 40.27 75.27 36.00 72.92 36.00 71.92 C 36.00 71.59 37.12 70.81 38.50 70.18 C 41.04 69.02 41.81 66.62 40.01 65.50 C 39.46 65.17 37.47 66.06 35.60 67.50 L 32.18 70.10 L 29.66 66.79 C 25.16 60.90 24.01 57.74 24.01 51.22 C 24.00 44.39 25.62 39.49 29.64 34.23 L 32.21 30.85 L 34.56 33.05 C 35.89 34.31 37.56 35.00 38.45 34.66 C 40.58 33.84 40.39 32.28 38.00 31.00 C 35.04 29.42 35.53 28.28 40.20 25.90 C 43.11 24.41 46.88 23.62 52.45 23.32 C 61.97 22.81 63.94 23.64 62.19 27.48 C 60.47 31.26 60.72 33.00 63.00 33.00 C 64.22 33.00 65.01 32.32 65.04 31.25 C 65.05 30.29 65.64 28.48 66.33 27.24 L 67.58 24.98 L 72.09 27.84 C 85.58 36.40 89.40 52.54 80.88 65.03 C 77.06 70.62 75.71 71.45 72.85 69.92 C 71.75 69.33 70.09 69.14 69.17 69.50 C 67.70 70.07 67.78 70.38 69.81 72.03 L 72.12 73.92 L 68.31 75.51 C 66.22 76.39 62.59 77.37 60.25 77.69 C 56.39 78.22 56.00 78.07 56.00 76.14 C 56.00 73.35 52.38 73.24 51.50 76.00 C 50.77 78.29 50.03 78.35 44.50 76.61 Z M 65.00 65.86 C 65.00 63.61 60.62 56.00 59.32 56.00 C 57.44 56.00 57.68 58.46 60.02 63.04 C 61.90 66.72 65.00 68.47 65.00 65.86 Z M 50.28 63.10 C 52.37 59.57 52.46 58.00 50.60 58.00 C 49.01 58.00 44.88 63.99 45.63 65.21 C 46.63 66.82 48.62 65.92 50.28 63.10 Z M 46.50 52.93 C 46.50 51.40 30.35 45.66 28.79 46.63 C 26.81 47.85 28.95 49.34 36.53 52.03 C 45.01 55.03 46.50 55.16 46.50 52.93 Z M 11.75 51.28 C 14.77 50.78 16.08 48.79 14.18 47.61 C 13.13 46.96 4.42 49.51 4.75 50.36 C 4.89 50.71 5.00 51.50 5.00 52.11 C 5.00 52.76 5.72 52.93 6.75 52.52 C 7.71 52.14 9.96 51.58 11.75 51.28 Z M 76.25 41.20 C 77.51 40.12 77.70 39.34 76.95 38.44 C 76.14 37.46 74.28 38.30 68.70 42.14 C 64.74 44.87 61.55 47.53 61.60 48.05 C 61.66 48.57 61.77 49.47 61.85 50.04 C 61.99 50.98 72.09 44.78 76.25 41.20 Z M 51.62 44.56 C 51.92 43.76 51.79 40.73 51.33 37.82 C 50.71 33.92 50.01 32.43 48.68 32.18 C 47.04 31.86 46.94 32.40 47.57 38.17 C 47.95 41.65 48.45 44.84 48.69 45.25 C 49.40 46.49 51.02 46.10 51.62 44.56 Z M 60.08 7.42 C 60.13 6.25 60.36 6.01 60.68 6.81 C 60.97 7.53 60.94 8.40 60.60 8.73 C 60.27 9.06 60.04 8.47 60.08 7.42 Z M 6.75 7.34 C 7.44 7.06 8.56 7.06 9.25 7.34 C 9.94 7.62 9.38 7.84 8.00 7.84 C 6.62 7.84 6.06 7.62 6.75 7.34 Z M 35.81 7.32 C 36.53 7.03 37.40 7.06 37.73 7.40 C 38.06 7.73 37.47 7.96 36.42 7.92 C 35.25 7.87 35.01 7.64 35.81 7.32 Z M 66.00 7.00 C 66.00 6.45 66.48 6.00 67.06 6.00 C 67.64 6.00 67.84 6.45 67.50 7.00 C 67.16 7.55 66.68 8.00 66.44 8.00 C 66.20 8.00 66.00 7.55 66.00 7.00 Z M 75.81 7.32 C 76.53 7.03 77.40 7.06 77.73 7.40 C 78.06 7.73 77.47 7.96 76.42 7.92 C 75.25 7.87 75.01 7.64 75.81 7.32 Z M 89.00 7.00 C 87.79 6.22 87.95 6.03 89.81 6.02 C 91.10 6.01 91.84 6.44 91.50 7.00 C 90.76 8.20 90.86 8.20 89.00 7.00 Z" fill="none" stroke="rgba(255,255,255,0.92)" stroke-width="1.2" stroke-linejoin="round" fill-rule="evenodd"/>
</svg>
