<svg xmlns="http://www.w3.org/2000/svg" viewBox="0 0 400 290" width="400" height="290">
  <path d="M 0.00 145.00 L 0.00 0.00 L 200.00 0.00 L 400.00 0.00 L 400.00 145.00 L 400.00 290.00 L 200.00 290.00 L 0.00 290.00 L 0.00 145.00 Z M 102.75 283.88 C 103.99 283.87 107.62 283.95 110.83 284.05 C 114.03 284.15 118.04 283.93 119.73 283.56 C 121.42 283.19 123.07 283.30 123.38 283.81 C 124.05 284.89 128.93 284.18 130.75 282.74 C 131.56 282.10 132.00 282.10 132.00 282.74 C 132.00 283.35 140.88 283.68 155.88 283.63 C 174.75 283.56 179.66 283.27 179.27 282.27 C 179.01 281.57 179.25 281.00 179.81 281.00 C 180.37 281.00 181.00 281.51 181.21 282.14 C 181.46 282.88 185.29 283.31 192.33 283.39 C 200.87 283.48 203.26 283.19 204.02 282.00 C 204.86 280.68 204.97 280.68 204.98 282.05 C 205.00 283.29 206.40 283.62 212.00 283.71 C 215.85 283.77 219.00 283.44 219.00 282.98 C 219.00 282.52 218.33 282.00 217.51 281.82 C 216.52 281.61 216.89 281.10 218.62 280.29 C 220.99 279.19 221.17 279.26 220.68 281.11 C 219.98 283.80 221.90 284.40 227.46 283.21 C 230.48 282.57 232.00 282.58 232.00 283.25 C 232.00 283.86 233.55 284.01 235.94 283.63 C 238.11 283.28 240.13 283.40 240.44 283.90 C 241.05 284.89 244.82 284.24 246.63 282.83 C 247.34 282.28 247.97 282.47 248.30 283.35 C 248.81 284.66 254.25 284.76 257.72 283.52 C 258.39 283.28 259.18 283.48 259.48 283.97 C 259.79 284.47 261.31 284.48 263.00 284.00 C 264.75 283.50 266.21 283.53 266.55 284.07 C 268.15 286.66 268.50 283.66 268.30 269.25 C 267.93 242.45 268.03 227.76 268.59 226.86 C 268.88 226.39 268.80 225.49 268.42 224.87 C 268.03 224.24 267.61 207.05 267.49 186.66 C 267.32 160.22 266.93 149.48 266.13 149.21 C 265.47 148.99 265.00 149.99 265.00 151.58 C 265.00 154.53 263.80 154.17 263.33 151.08 C 262.91 148.35 265.27 146.77 268.13 147.86 C 269.43 148.35 274.77 148.79 280.00 148.82 C 285.23 148.86 307.48 149.13 329.45 149.42 C 360.42 149.84 369.58 149.68 370.19 148.73 C 370.76 147.83 370.97 147.90 370.99 149.00 C 371.00 150.24 372.98 150.51 382.44 150.58 C 393.24 150.65 393.89 150.54 394.29 148.58 C 394.52 147.43 394.57 133.00 394.40 116.50 C 394.23 100.00 393.99 68.89 393.87 47.36 L 393.65 8.22 L 390.08 8.32 C 388.11 8.38 373.00 8.09 356.50 7.69 C 321.19 6.83 230.41 6.69 207.50 7.45 C 198.70 7.75 178.51 8.22 162.64 8.50 C 146.77 8.79 133.39 9.26 132.90 9.56 C 132.41 9.86 132.29 32.01 132.63 60.30 C 132.95 87.91 133.28 117.67 133.36 126.44 L 133.50 142.38 L 121.00 142.60 C 114.12 142.71 93.65 143.12 75.50 143.49 C 57.35 143.87 34.51 144.22 24.75 144.28 L 7.00 144.37 L 6.94 147.94 C 6.77 157.51 6.85 167.16 7.49 213.00 C 8.14 259.77 8.46 276.12 8.84 282.08 L 9.00 284.66 L 54.75 284.28 C 79.91 284.07 101.51 283.89 102.75 283.88 Z M 12.75 283.24 C 11.79 283.03 11.00 282.44 11.00 281.93 C 11.00 280.76 12.08 280.77 13.97 281.96 C 15.77 283.10 15.13 283.77 12.75 283.24 Z M 18.00 281.50 C 18.00 280.67 18.89 280.00 19.97 280.00 C 21.31 280.00 21.75 280.48 21.36 281.50 C 21.05 282.32 20.16 283.00 19.39 283.00 C 18.63 283.00 18.00 282.32 18.00 281.50 Z M 24.00 281.53 C 24.00 280.64 24.59 280.29 25.49 280.64 C 26.32 280.95 26.74 281.61 26.44 282.10 C 25.56 283.52 24.00 283.15 24.00 281.53 Z M 31.81 282.32 C 32.53 282.03 33.40 282.06 33.73 282.40 C 34.06 282.73 33.47 282.96 32.42 282.92 C 31.25 282.87 31.01 282.64 31.81 282.32 Z M 42.50 282.00 C 42.84 281.45 43.32 281.00 43.56 281.00 C 43.80 281.00 44.00 281.45 44.00 282.00 C 44.00 282.55 43.52 283.00 42.94 283.00 C 42.36 283.00 42.16 282.55 42.50 282.00 Z M 79.27 281.00 C 79.36 279.90 79.96 279.00 80.62 279.00 C 81.32 279.00 81.60 279.82 81.29 281.00 C 81.00 282.10 80.40 283.00 79.95 283.00 C 79.49 283.00 79.19 282.10 79.27 281.00 Z M 106.00 281.44 C 106.00 280.58 106.46 280.16 107.02 280.51 C 107.58 280.86 107.77 281.56 107.46 282.07 C 106.60 283.46 106.00 283.20 106.00 281.44 Z M 166.70 281.61 C 166.29 280.57 166.19 279.48 166.48 279.19 C 167.39 278.28 168.19 279.77 167.81 281.67 C 167.46 283.41 167.41 283.41 166.70 281.61 Z M 28.50 281.00 C 28.84 280.45 29.54 280.00 30.06 280.00 C 30.58 280.00 31.00 280.45 31.00 281.00 C 31.00 281.55 30.30 282.00 29.44 282.00 C 28.58 282.00 28.16 281.55 28.50 281.00 Z M 93.00 281.00 C 91.72 280.17 91.75 280.03 93.25 280.02 C 94.21 280.01 95.00 280.45 95.00 281.00 C 95.00 282.22 94.89 282.22 93.00 281.00 Z M 97.00 281.62 C 97.00 281.41 97.67 280.68 98.50 280.00 C 99.73 278.98 100.00 279.05 100.00 280.38 C 100.00 281.27 99.33 282.00 98.50 282.00 C 97.67 282.00 97.00 281.83 97.00 281.62 Z M 102.00 281.00 C 102.00 280.45 102.45 280.00 103.00 280.00 C 103.55 280.00 104.00 280.45 104.00 281.00 C 104.00 281.55 103.55 282.00 103.00 282.00 C 102.45 282.00 102.00 281.55 102.00 281.00 Z M 126.64 280.51 C 126.95 279.68 127.62 279.26 128.12 279.57 C 129.17 280.22 128.33 282.00 126.97 282.00 C 126.47 282.00 126.32 281.33 126.64 280.51 Z M 188.00 280.94 C 188.00 280.36 188.45 280.16 189.00 280.50 C 189.55 280.84 190.00 281.32 190.00 281.56 C 190.00 281.80 189.55 282.00 189.00 282.00 C 188.45 282.00 188.00 281.52 188.00 280.94 Z M 207.00 280.91 C 207.00 280.41 207.90 280.00 209.00 280.00 C 210.10 280.00 211.00 280.17 211.00 280.38 C 211.00 280.59 210.10 281.00 209.00 281.29 C 207.90 281.58 207.00 281.40 207.00 280.91 Z M 254.44 280.58 C 256.66 278.77 258.00 278.55 258.00 280.00 C 258.00 280.55 257.59 281.00 257.08 281.00 C 256.58 281.00 255.34 281.26 254.33 281.58 C 252.66 282.11 252.66 282.03 254.44 280.58 Z M 38.81 280.32 C 39.53 280.03 40.40 280.06 40.73 280.40 C 41.06 280.73 40.47 280.96 39.42 280.92 C 38.25 280.87 38.01 280.64 38.81 280.32 Z M 74.81 280.32 C 75.53 280.03 76.40 280.06 76.73 280.40 C 77.06 280.73 76.47 280.96 75.42 280.92 C 74.25 280.87 74.01 280.64 74.81 280.32 Z M 108.00 279.98 C 108.00 279.38 109.12 279.23 110.75 279.62 C 114.68 280.56 114.81 281.00 111.17 281.00 C 109.42 281.00 108.00 280.54 108.00 279.98 Z M 119.75 280.34 C 120.44 280.06 121.56 280.06 122.25 280.34 C 122.94 280.62 122.38 280.84 121.00 280.84 C 119.62 280.84 119.06 280.62 119.75 280.34 Z M 147.50 280.00 C 147.84 279.45 148.32 279.00 148.56 279.00 C 148.80 279.00 149.00 279.45 149.00 280.00 C 149.00 280.55 148.52 281.00 147.94 281.00 C 147.36 281.00 147.16 280.55 147.50 280.00 Z M 202.50 280.00 C 202.16 279.45 202.36 279.00 202.94 279.00 C 203.52 279.00 204.00 279.45 204.00 280.00 C 204.00 280.55 203.80 281.00 203.56 281.00 C 203.32 281.00 202.84 280.55 202.50 280.00 Z M 214.00 279.44 C 214.00 278.58 214.45 278.16 215.00 278.50 C 215.55 278.84 216.00 279.54 216.00 280.06 C 216.00 280.58 215.55 281.00 215.00 281.00 C 214.45 281.00 214.00 280.30 214.00 279.44 Z M 68.00 278.94 C 68.00 278.36 68.45 278.16 69.00 278.50 C 69.55 278.84 70.00 279.32 70.00 279.56 C 70.00 279.80 69.55 280.00 69.00 280.00 C 68.45 280.00 68.00 279.52 68.00 278.94 Z M 169.00 279.00 C 169.00 278.45 169.48 278.00 170.06 278.00 C 170.64 278.00 170.84 278.45 170.50 279.00 C 170.16 279.55 169.68 280.00 169.44 280.00 C 169.20 280.00 169.00 279.55 169.00 279.00 Z M 174.50 279.00 C 174.16 278.45 174.36 278.00 174.94 278.00 C 175.52 278.00 176.00 278.45 176.00 279.00 C 176.00 279.55 175.80 280.00 175.56 280.00 C 175.32 280.00 174.84 279.55 174.50 279.00 Z M 187.00 279.00 C 187.00 278.45 187.48 278.00 188.06 278.00 C 188.64 278.00 188.84 278.45 188.50 279.00 C 188.16 279.55 187.68 280.00 187.44 280.00 C 187.20 280.00 187.00 279.55 187.00 279.00 Z M 234.00 279.00 C 234.00 278.45 234.45 278.00 235.00 278.00 C 235.55 278.00 236.00 278.45 236.00 279.00 C 236.00 279.55 235.55 280.00 235.00 280.00 C 234.45 280.00 234.00 279.55 234.00 279.00 Z M 11.00 276.36 C 11.00 275.62 11.64 275.31 12.50 275.64 C 13.32 275.95 14.00 276.54 14.00 276.94 C 14.00 277.34 13.32 277.67 12.50 277.67 C 11.68 277.67 11.00 277.08 11.00 276.36 Z M 27.81 277.22 C 17.75 276.98 16.05 276.70 15.65 275.22 C 15.39 274.27 15.17 267.88 15.16 261.00 C 15.13 236.83 14.78 218.48 14.31 216.71 C 13.98 215.46 13.25 215.10 11.92 215.53 C 10.27 216.05 10.02 215.66 10.14 212.82 C 10.24 210.37 10.39 210.10 10.71 211.81 C 11.00 213.31 11.74 214.00 12.83 213.79 C 14.24 213.51 14.48 212.21 14.35 205.30 C 14.25 199.62 13.71 196.43 12.60 194.84 C 11.01 192.58 11.00 192.59 10.87 196.53 L 10.75 200.50 L 10.01 196.00 C 9.18 190.93 9.84 183.78 11.06 184.54 C 11.51 184.81 11.64 186.72 11.35 188.77 C 10.96 191.59 11.10 192.13 11.90 191.00 C 12.82 189.70 12.97 189.74 12.98 191.25 C 12.99 192.21 13.38 193.00 13.84 193.00 C 14.31 193.00 14.53 189.29 14.34 184.75 C 13.28 159.94 13.35 150.05 14.57 151.06 C 16.20 152.41 46.06 151.88 45.74 150.50 C 45.62 149.95 45.96 149.50 46.51 149.50 C 47.05 149.50 47.41 149.78 47.29 150.12 C 47.18 150.47 48.98 151.00 51.29 151.32 C 54.21 151.71 56.23 151.41 57.88 150.34 C 59.44 149.32 60.47 149.15 60.90 149.84 C 61.63 151.01 92.38 150.78 95.15 149.58 C 96.06 149.19 97.08 149.32 97.43 149.89 C 98.29 151.27 101.00 150.13 101.00 148.39 C 101.00 147.63 101.45 147.00 102.00 147.00 C 102.55 147.00 103.00 147.68 103.00 148.50 C 103.00 149.51 104.06 150.03 106.25 150.08 C 113.58 150.26 119.88 150.19 126.55 149.85 L 133.60 149.50 L 133.75 167.00 C 133.90 183.02 134.55 224.44 135.23 261.25 C 135.38 269.36 135.50 276.04 135.50 276.09 C 135.50 276.14 114.35 276.36 88.50 276.60 C 62.65 276.83 41.05 277.13 40.50 277.26 C 39.95 277.39 34.24 277.37 27.81 277.22 Z M 144.38 276.20 C 142.41 275.92 142.25 275.27 142.17 267.20 C 142.06 255.51 142.06 255.43 142.08 248.00 C 142.11 231.95 141.64 220.32 140.88 218.25 C 140.42 217.01 140.44 216.00 140.92 216.00 C 141.39 216.00 141.59 209.36 141.36 201.25 C 141.12 193.14 140.81 178.61 140.65 168.96 C 140.50 159.32 140.02 150.84 139.58 150.13 C 138.96 149.12 139.76 148.99 143.39 149.54 C 146.59 150.02 148.00 149.88 148.00 149.08 C 148.00 148.45 147.32 147.68 146.50 147.36 C 144.70 146.67 144.46 143.65 146.25 144.25 C 146.94 144.47 148.06 145.75 148.74 147.08 C 149.41 148.41 149.98 149.17 149.99 148.77 C 149.99 148.38 151.15 148.49 152.57 149.02 C 154.29 149.68 155.79 149.65 157.15 148.92 C 160.45 147.15 160.24 148.45 156.60 152.19 C 150.59 158.38 147.12 167.74 148.51 174.03 C 149.28 177.56 153.48 179.17 161.79 179.13 C 173.49 179.08 183.52 175.13 187.82 168.87 C 189.74 166.09 190.10 164.45 189.85 159.50 C 189.57 153.80 190.23 151.00 191.85 151.00 C 192.26 151.00 192.56 160.00 192.52 171.00 L 192.46 190.99 L 189.86 193.59 C 187.35 196.10 187.16 196.14 184.18 194.59 C 177.74 191.26 170.32 193.58 163.58 201.04 C 158.62 206.53 156.05 212.39 156.02 218.25 C 155.98 226.88 161.02 228.85 174.36 225.42 C 181.82 223.49 186.20 220.91 189.63 216.42 C 192.46 212.71 192.74 210.87 191.56 203.75 C 190.89 199.72 191.02 199.00 192.39 199.00 C 193.39 199.00 194.01 199.86 194.02 201.25 C 194.04 202.49 194.32 208.91 194.65 215.52 C 195.17 225.72 195.03 227.73 193.70 228.84 C 192.49 229.84 191.63 229.87 190.01 229.00 C 185.05 226.35 176.87 231.60 172.59 240.19 C 169.86 245.67 169.35 250.17 170.98 254.43 C 171.84 256.70 172.52 257.00 176.73 256.99 C 182.60 256.98 190.27 253.56 194.85 248.90 C 198.02 245.68 198.17 245.21 197.70 239.84 C 197.28 235.01 197.47 234.11 198.98 233.72 C 200.53 233.31 200.69 232.36 200.24 226.13 C 199.82 220.22 199.99 219.00 201.24 219.00 C 202.27 219.00 202.89 220.36 203.23 223.32 C 203.91 229.40 206.34 232.53 212.85 235.72 C 222.48 240.46 233.85 238.65 234.81 232.23 C 235.51 227.54 226.38 214.88 219.80 211.42 C 215.72 209.27 211.54 209.68 208.12 212.55 C 205.27 214.95 204.93 215.01 202.21 213.61 C 199.34 212.12 199.32 212.05 198.16 198.26 C 196.64 180.09 196.66 175.72 198.25 176.25 C 199.06 176.52 199.50 178.74 199.50 182.59 C 199.50 189.19 201.31 192.92 206.67 197.40 C 216.26 205.40 231.95 206.59 235.16 199.55 C 237.52 194.38 227.83 175.53 220.48 170.99 C 216.13 168.30 209.11 168.34 205.64 171.07 L 203.01 173.14 L 199.87 170.91 L 196.73 168.67 L 197.47 157.59 C 197.87 151.49 198.28 144.70 198.37 142.50 C 198.47 140.30 198.87 138.61 199.27 138.75 C 199.67 138.89 200.45 139.00 201.00 139.00 C 201.55 139.00 202.00 139.68 202.00 140.50 C 202.00 141.32 201.44 142.01 200.75 142.02 C 199.92 142.03 200.00 142.34 200.99 142.97 C 202.18 143.72 202.23 144.17 201.24 145.16 C 199.80 146.60 199.55 149.40 200.93 148.54 C 201.45 148.22 202.62 149.21 203.54 150.73 C 207.39 157.08 218.82 162.93 227.43 162.98 C 232.50 163.00 239.72 160.24 242.10 157.38 C 243.27 155.96 242.86 151.75 240.91 145.12 C 240.68 144.37 241.06 143.54 241.75 143.29 C 242.60 142.98 242.78 143.43 242.33 144.67 C 241.69 146.42 241.75 146.42 243.66 144.75 C 246.22 142.51 248.24 142.51 247.81 144.75 C 247.63 145.71 246.47 146.64 245.24 146.82 C 244.01 147.00 243.00 147.53 243.00 148.02 C 243.00 148.50 246.82 148.75 251.50 148.58 C 259.58 148.28 260.00 148.36 260.05 150.38 C 260.07 151.55 260.31 172.07 260.58 196.00 C 260.84 219.93 261.16 247.05 261.29 256.27 C 261.41 265.49 261.25 273.80 260.92 274.72 C 260.38 276.27 255.84 276.41 203.42 276.45 C 172.11 276.48 145.54 276.36 144.38 276.20 Z M 12.00 272.00 C 12.00 271.45 12.48 271.00 13.06 271.00 C 13.64 271.00 13.84 271.45 13.50 272.00 C 13.16 272.55 12.68 273.00 12.44 273.00 C 12.20 273.00 12.00 272.55 12.00 272.00 Z M 264.00 268.94 C 264.00 268.36 264.45 268.16 265.00 268.50 C 265.55 268.84 266.00 269.32 266.00 269.56 C 266.00 269.80 265.55 270.00 265.00 270.00 C 264.45 270.00 264.00 269.52 264.00 268.94 Z M 11.81 268.32 C 12.53 268.03 13.40 268.06 13.73 268.40 C 14.06 268.73 13.47 268.96 12.42 268.92 C 11.25 268.87 11.01 268.64 11.81 268.32 Z M 11.64 264.50 C 11.95 263.68 12.39 263.00 12.61 263.00 C 12.82 263.00 13.00 263.68 13.00 264.50 C 13.00 265.32 12.56 266.00 12.03 266.00 C 11.50 266.00 11.32 265.32 11.64 264.50 Z M 137.00 265.62 C 137.00 265.41 137.68 264.68 138.50 264.00 C 139.73 262.98 140.00 263.05 140.00 264.38 C 140.00 265.27 139.32 266.00 138.50 266.00 C 137.68 266.00 137.00 265.83 137.00 265.62 Z M 263.81 262.50 C 264.03 260.57 264.62 259.00 265.11 259.00 C 265.60 259.00 266.00 260.57 266.00 262.50 C 266.00 264.70 265.52 266.00 264.70 266.00 C 263.80 266.00 263.53 264.91 263.81 262.50 Z M 11.00 262.24 C 11.00 261.69 11.68 260.68 12.50 260.00 C 13.34 259.31 14.00 259.20 14.00 259.76 C 14.00 260.31 13.32 261.32 12.50 262.00 C 11.66 262.69 11.00 262.80 11.00 262.24 Z M 10.00 257.62 C 10.00 256.79 10.45 255.84 11.00 255.50 C 11.55 255.16 12.00 255.56 12.00 256.38 C 12.00 257.21 11.55 258.16 11.00 258.50 C 10.45 258.84 10.00 258.44 10.00 257.62 Z M 263.00 256.00 C 263.00 255.45 263.45 255.00 264.00 255.00 C 264.55 255.00 265.00 255.45 265.00 256.00 C 265.00 256.55 264.55 257.00 264.00 257.00 C 263.45 257.00 263.00 256.55 263.00 256.00 Z M 175.01 250.25 C 175.02 246.34 177.29 240.74 180.20 237.42 C 182.82 234.45 183.85 233.94 186.85 234.20 C 189.66 234.44 190.80 235.19 192.34 237.83 C 194.25 241.12 194.25 241.18 192.34 243.83 C 190.10 246.91 180.74 252.00 177.32 252.00 C 175.78 252.00 175.00 251.42 175.01 250.25 Z M 11.50 247.00 C 11.84 246.45 12.32 246.00 12.56 246.00 C 12.80 246.00 13.00 246.45 13.00 247.00 C 13.00 247.55 12.52 248.00 11.94 248.00 C 11.36 248.00 11.16 247.55 11.50 247.00 Z M 264.00 244.44 C 264.00 243.58 264.46 243.16 265.02 243.51 C 265.58 243.86 265.77 244.56 265.46 245.07 C 264.60 246.46 264.00 246.20 264.00 244.44 Z M 139.16 241.00 C 139.16 239.62 139.38 239.06 139.66 239.75 C 139.94 240.44 139.94 241.56 139.66 242.25 C 139.38 242.94 139.16 242.38 139.16 241.00 Z M 264.00 240.06 C 264.00 239.54 264.45 238.84 265.00 238.50 C 265.55 238.16 266.00 238.58 266.00 239.44 C 266.00 240.30 265.55 241.00 265.00 241.00 C 264.45 241.00 264.00 240.58 264.00 240.06 Z M 138.08 237.42 C 138.13 236.25 138.36 236.01 138.68 236.81 C 138.97 237.53 138.94 238.40 138.60 238.73 C 138.27 239.06 138.04 238.47 138.08 237.42 Z M 263.32 232.12 L 263.23 226.50 L 264.70 230.74 C 265.94 234.34 265.95 235.19 264.78 236.36 C 263.61 237.53 263.39 236.89 263.32 232.12 Z M 216.03 231.42 C 208.58 228.18 206.32 223.17 209.99 218.01 C 212.62 214.31 214.60 214.24 219.59 217.63 C 224.01 220.63 225.27 222.05 227.97 227.10 C 229.41 229.81 229.61 230.99 228.75 231.85 C 227.15 233.45 220.18 233.21 216.03 231.42 Z M 12.08 229.42 C 12.13 228.25 12.36 228.01 12.68 228.81 C 12.97 229.53 12.94 230.40 12.60 230.73 C 12.27 231.06 12.04 230.47 12.08 229.42 Z M 137.16 229.00 C 137.16 227.62 137.38 227.06 137.66 227.75 C 137.94 228.44 137.94 229.56 137.66 230.25 C 137.38 230.94 137.16 230.38 137.16 229.00 Z M 264.61 226.42 C 263.75 224.20 263.85 223.00 264.88 223.00 C 265.37 223.00 265.98 224.12 266.24 225.50 C 266.77 228.25 265.57 228.93 264.61 226.42 Z M 10.02 222.58 C 10.01 219.88 10.29 217.96 10.65 218.31 C 11.67 219.34 11.84 224.65 10.89 226.14 C 10.34 227.01 10.03 225.72 10.02 222.58 Z M 136.03 222.33 C 135.98 220.43 137.15 218.00 138.11 218.00 C 139.42 218.00 139.20 219.36 137.53 221.56 C 136.72 222.63 136.05 222.97 136.03 222.33 Z M 161.53 221.04 C 160.16 218.83 162.09 211.18 165.04 207.10 C 168.44 202.41 174.88 198.00 178.35 198.00 C 184.00 198.00 189.26 206.14 186.92 211.27 C 184.76 216.01 176.49 220.34 167.23 221.56 C 163.84 222.01 162.02 221.85 161.53 221.04 Z M 263.09 218.75 C 262.62 217.51 262.51 216.05 262.84 215.50 C 263.18 214.95 263.61 215.29 263.80 216.25 C 263.99 217.21 264.56 218.00 265.07 218.00 C 265.58 218.00 266.00 218.68 266.00 219.50 C 266.00 221.79 264.04 221.29 263.09 218.75 Z M 136.00 214.00 C 136.00 213.45 137.01 213.01 138.25 213.02 C 140.07 213.03 140.21 213.22 139.00 214.00 C 137.06 215.25 136.00 215.25 136.00 214.00 Z M 264.00 210.00 C 264.00 209.45 264.48 209.00 265.06 209.00 C 265.64 209.00 265.84 209.45 265.50 210.00 C 265.16 210.55 264.68 211.00 264.44 211.00 C 264.20 211.00 264.00 210.55 264.00 210.00 Z M 137.00 207.50 C 137.00 206.12 137.45 205.00 138.00 205.00 C 138.55 205.00 139.00 206.12 139.00 207.50 C 139.00 208.88 138.55 210.00 138.00 210.00 C 137.45 210.00 137.00 208.88 137.00 207.50 Z M 10.15 205.69 C 10.07 203.58 10.41 202.14 10.92 202.45 C 11.43 202.77 12.06 202.23 12.31 201.26 C 12.66 199.92 12.80 200.04 12.88 201.75 C 12.95 202.99 12.58 204.00 12.07 204.00 C 11.55 204.00 10.95 205.24 10.72 206.75 C 10.39 208.93 10.27 208.70 10.15 205.69 Z M 263.64 207.31 C 262.51 206.18 262.95 205.00 264.50 205.00 C 265.32 205.00 266.00 205.42 266.00 205.94 C 266.00 207.20 264.44 208.11 263.64 207.31 Z M 137.00 199.94 C 137.00 198.81 137.45 198.16 138.00 198.50 C 138.55 198.84 139.00 199.77 139.00 200.56 C 139.00 201.35 138.55 202.00 138.00 202.00 C 137.45 202.00 137.00 201.07 137.00 199.94 Z M 264.00 200.56 C 264.00 199.70 264.45 199.00 265.00 199.00 C 265.55 199.00 266.00 199.42 266.00 199.94 C 266.00 200.46 265.55 201.16 265.00 201.50 C 264.45 201.84 264.00 201.42 264.00 200.56 Z M 214.91 196.51 C 209.65 193.77 204.00 187.83 204.00 185.03 C 204.00 179.37 208.66 174.00 213.56 174.00 C 217.76 174.00 224.03 180.71 228.25 189.72 C 231.20 196.03 231.25 196.34 229.47 197.64 C 226.66 199.70 220.04 199.19 214.91 196.51 Z M 263.20 194.05 C 264.58 191.84 265.55 192.11 264.65 194.46 C 264.33 195.31 263.59 196.00 263.02 196.00 C 262.36 196.00 262.43 195.28 263.20 194.05 Z M 136.08 193.42 C 136.13 192.25 136.36 192.01 136.68 192.81 C 136.97 193.53 136.94 194.40 136.60 194.73 C 136.27 195.06 136.04 194.47 136.08 193.42 Z M 136.64 188.50 C 136.95 187.68 137.39 187.00 137.61 187.00 C 137.82 187.00 138.00 187.68 138.00 188.50 C 138.00 189.32 137.56 190.00 137.03 190.00 C 136.50 190.00 136.32 189.32 136.64 188.50 Z M 136.00 185.44 C 136.00 184.58 136.46 184.16 137.02 184.51 C 137.58 184.86 137.77 185.56 137.46 186.07 C 136.60 187.46 136.00 187.20 136.00 185.44 Z M 11.00 183.12 C 9.90 182.67 9.54 181.04 9.64 177.00 C 9.86 168.43 9.93 168.00 11.11 168.00 C 11.78 168.00 11.98 168.95 11.61 170.42 C 11.27 171.79 11.47 172.99 12.08 173.19 C 12.84 173.45 12.81 174.33 11.98 176.15 C 11.07 178.15 11.07 179.26 11.98 180.96 C 13.34 183.50 13.11 184.00 11.00 183.12 Z M 138.08 182.42 C 138.13 181.25 138.36 181.01 138.68 181.81 C 138.97 182.53 138.94 183.40 138.60 183.73 C 138.27 184.06 138.04 183.47 138.08 182.42 Z M 263.00 181.62 C 263.00 180.24 263.45 178.84 264.00 178.50 C 264.56 178.15 265.00 178.97 265.00 180.38 C 265.00 181.76 264.55 183.16 264.00 183.50 C 263.44 183.85 263.00 183.03 263.00 181.62 Z M 138.08 175.42 C 138.13 174.25 138.36 174.01 138.68 174.81 C 138.97 175.53 138.94 176.40 138.60 176.73 C 138.27 177.06 138.04 176.47 138.08 175.42 Z M 263.00 174.44 C 263.00 173.58 263.45 173.16 264.00 173.50 C 264.55 173.84 265.00 174.54 265.00 175.06 C 265.00 175.58 264.55 176.00 264.00 176.00 C 263.45 176.00 263.00 175.30 263.00 174.44 Z M 156.19 173.35 C 153.11 172.68 152.64 171.06 154.02 165.85 C 155.63 159.78 164.74 150.89 171.22 149.08 C 175.46 147.89 176.23 147.95 179.21 149.68 C 182.87 151.81 184.47 154.61 185.33 160.34 C 185.82 163.63 185.51 164.55 183.20 166.72 C 181.72 168.11 178.47 170.13 176.00 171.20 C 171.54 173.13 160.64 174.32 156.19 173.35 Z M 263.26 166.50 C 262.55 164.17 262.52 162.79 263.19 162.38 C 263.75 162.04 263.94 160.44 263.62 158.83 C 263.28 157.15 263.42 156.14 263.95 156.47 C 264.74 156.96 265.37 170.00 264.61 170.00 C 264.46 170.00 263.85 168.43 263.26 166.50 Z M 136.02 164.25 C 136.03 161.86 136.33 160.98 136.86 161.81 C 137.64 163.03 137.25 168.00 136.38 168.00 C 136.17 168.00 136.01 166.31 136.02 164.25 Z M 9.80 158.10 C 9.57 156.51 9.90 154.48 10.55 153.60 C 12.21 151.33 13.28 151.61 12.01 153.98 C 11.43 155.07 11.24 157.09 11.58 158.48 C 11.94 159.91 11.79 161.00 11.22 161.00 C 10.67 161.00 10.04 159.70 9.80 158.10 Z M 136.00 158.50 C 136.00 157.60 136.68 156.18 137.50 155.36 C 138.83 154.02 139.00 154.04 139.00 155.50 C 139.00 156.40 138.32 157.82 137.50 158.64 C 136.17 159.98 136.00 159.96 136.00 158.50 Z M 217.29 155.35 C 212.27 153.57 207.00 147.95 207.00 144.37 C 207.00 141.38 209.54 135.62 211.63 133.89 C 216.99 129.44 230.46 138.04 236.38 149.70 C 238.47 153.83 238.50 153.69 235.05 155.47 C 231.37 157.38 222.85 157.32 217.29 155.35 Z M 136.00 152.62 C 136.00 151.79 136.45 150.84 137.00 150.50 C 137.55 150.16 138.00 150.56 138.00 151.38 C 138.00 152.21 137.55 153.16 137.00 153.50 C 136.45 153.84 136.00 153.44 136.00 152.62 Z M 9.50 150.00 C 9.84 149.45 10.32 149.00 10.56 149.00 C 10.80 149.00 11.00 149.45 11.00 150.00 C 11.00 150.55 10.52 151.00 9.94 151.00 C 9.36 151.00 9.16 150.55 9.50 150.00 Z M 17.50 150.00 C 17.16 149.45 17.61 149.00 18.50 149.00 C 19.39 149.00 19.84 149.45 19.50 150.00 C 19.16 150.55 18.71 151.00 18.50 151.00 C 18.29 151.00 17.84 150.55 17.50 150.00 Z M 26.00 150.00 C 26.00 149.45 26.48 149.00 27.06 149.00 C 27.64 149.00 27.84 149.45 27.50 150.00 C 27.16 150.55 26.68 151.00 26.44 151.00 C 26.20 151.00 26.00 150.55 26.00 150.00 Z M 32.00 148.50 C 32.00 147.68 32.44 147.00 32.97 147.00 C 33.50 147.00 33.68 147.68 33.36 148.50 C 33.05 149.32 32.61 150.00 32.39 150.00 C 32.18 150.00 32.00 149.32 32.00 148.50 Z M 37.53 148.66 C 40.24 146.81 43.88 146.00 44.56 147.09 C 44.87 147.59 43.99 148.00 42.62 148.00 C 41.24 148.00 39.84 148.45 39.50 149.00 C 39.16 149.55 38.13 150.00 37.22 150.00 C 35.82 150.00 35.87 149.79 37.53 148.66 Z M 53.00 149.61 C 53.00 149.39 53.67 148.95 54.50 148.64 C 55.33 148.32 56.00 148.50 56.00 149.03 C 56.00 149.56 55.33 150.00 54.50 150.00 C 53.67 150.00 53.00 149.82 53.00 149.61 Z M 69.50 148.00 C 69.16 147.45 69.33 147.00 69.88 147.00 C 70.43 147.00 71.16 147.45 71.50 148.00 C 71.84 148.55 71.67 149.00 71.12 149.00 C 70.57 149.00 69.84 148.55 69.50 148.00 Z M 82.00 148.00 C 82.00 147.45 82.45 147.00 83.00 147.00 C 83.55 147.00 84.00 147.45 84.00 148.00 C 84.00 148.55 83.55 149.00 83.00 149.00 C 82.45 149.00 82.00 148.55 82.00 148.00 Z M 185.18 146.91 C 183.63 144.44 183.69 144.00 185.56 144.00 C 186.44 144.00 186.82 144.48 186.44 145.10 C 185.98 145.84 186.48 145.81 187.96 145.02 C 189.18 144.37 190.47 144.16 190.84 144.56 C 191.20 144.95 190.93 145.48 190.23 145.73 C 189.53 145.97 188.38 146.77 187.66 147.49 C 186.58 148.56 186.14 148.46 185.18 146.91 Z M 365.50 148.00 C 365.16 147.45 365.36 147.00 365.94 147.00 C 366.52 147.00 367.00 147.45 367.00 148.00 C 367.00 148.55 366.80 149.00 366.56 149.00 C 366.32 149.00 365.84 148.55 365.50 148.00 Z M 389.46 147.93 C 389.09 147.34 388.17 147.11 387.40 147.40 C 386.63 147.70 386.00 147.55 386.00 147.08 C 386.00 145.57 389.31 144.88 390.15 146.22 C 391.05 147.63 391.25 149.00 390.56 149.00 C 390.32 149.00 389.82 148.52 389.46 147.93 Z M 56.00 147.03 C 56.00 146.50 56.67 146.32 57.50 146.64 C 58.33 146.95 59.00 147.39 59.00 147.61 C 59.00 147.82 58.33 148.00 57.50 148.00 C 56.67 148.00 56.00 147.56 56.00 147.03 Z M 74.00 147.00 C 74.00 146.45 74.45 146.00 75.00 146.00 C 75.55 146.00 76.00 146.45 76.00 147.00 C 76.00 147.55 75.55 148.00 75.00 148.00 C 74.45 148.00 74.00 147.55 74.00 147.00 Z M 122.00 147.00 C 120.67 146.14 120.67 146.04 122.00 146.09 C 122.83 146.12 124.40 146.53 125.50 147.00 L 127.50 147.86 L 125.50 147.91 C 124.40 147.94 122.83 147.53 122.00 147.00 Z M 155.60 147.16 C 155.34 146.74 156.00 145.86 157.06 145.19 C 158.63 144.21 159.00 144.25 159.00 145.38 C 159.00 146.95 156.33 148.34 155.60 147.16 Z M 270.92 147.95 C 270.41 145.21 270.47 143.00 271.06 143.00 C 272.36 143.00 273.09 146.31 272.03 147.37 C 271.46 147.94 270.96 148.20 270.92 147.95 Z M 326.00 146.00 C 326.00 144.90 326.48 144.00 327.06 144.00 C 327.64 144.00 327.81 144.50 327.43 145.11 C 327.05 145.72 327.36 146.62 328.12 147.10 C 329.21 147.79 329.13 147.97 327.75 147.98 C 326.66 147.99 326.00 147.24 326.00 146.00 Z M 331.00 146.50 C 329.65 144.87 329.97 144.67 332.42 145.61 C 333.29 145.94 334.00 146.62 334.00 147.11 C 334.00 148.49 332.38 148.16 331.00 146.50 Z M 349.25 146.75 C 349.48 146.06 350.51 145.34 351.55 145.13 C 353.18 144.82 353.26 144.99 352.10 146.38 C 350.51 148.30 348.66 148.53 349.25 146.75 Z M 356.00 147.00 C 356.00 146.45 356.68 146.00 357.50 146.00 C 358.32 146.00 359.00 146.45 359.00 147.00 C 359.00 147.55 358.32 148.00 357.50 148.00 C 356.68 148.00 356.00 147.55 356.00 147.00 Z M 361.00 146.44 C 361.00 145.58 361.46 145.16 362.02 145.51 C 362.58 145.86 362.77 146.56 362.46 147.07 C 361.60 148.46 361.00 148.20 361.00 146.44 Z M 133.19 145.94 C 133.43 145.22 134.22 144.43 134.94 144.19 C 135.69 143.94 136.06 144.31 135.81 145.06 C 135.57 145.78 134.78 146.57 134.06 146.81 C 133.31 147.06 132.94 146.69 133.19 145.94 Z M 140.00 146.09 C 140.00 145.60 140.90 145.42 142.00 145.71 C 143.10 146.00 144.00 146.41 144.00 146.62 C 144.00 146.83 143.10 147.00 142.00 147.00 C 140.90 147.00 140.00 146.59 140.00 146.09 Z M 161.24 145.75 C 161.47 145.06 162.75 144.37 164.08 144.22 C 166.42 143.95 166.44 143.99 164.56 145.47 C 162.21 147.32 160.68 147.45 161.24 145.75 Z M 253.25 146.31 C 254.21 146.06 255.00 145.53 255.00 145.14 C 255.00 144.75 255.87 144.36 256.94 144.28 C 258.25 144.18 258.71 144.60 258.34 145.57 C 258.00 146.43 256.54 146.95 254.64 146.88 C 252.91 146.82 252.29 146.56 253.25 146.31 Z M 260.44 144.38 C 261.14 140.51 262.00 140.21 262.00 143.83 C 262.00 145.57 261.54 147.00 260.98 147.00 C 260.42 147.00 260.17 145.82 260.44 144.38 Z M 277.50 146.28 C 278.60 146.01 280.07 145.32 280.77 144.75 C 282.26 143.54 283.50 144.38 282.54 145.93 C 282.18 146.52 280.45 146.95 278.69 146.88 C 276.56 146.81 276.17 146.60 277.50 146.28 Z M 290.00 146.00 C 290.00 145.45 290.45 145.00 291.00 145.00 C 291.55 145.00 292.00 145.45 292.00 146.00 C 292.00 146.55 291.55 147.00 291.00 147.00 C 290.45 147.00 290.00 146.55 290.00 146.00 Z M 303.00 146.00 C 303.00 145.45 303.45 145.00 304.00 145.00 C 304.55 145.00 305.00 145.45 305.00 146.00 C 305.00 146.55 304.55 147.00 304.00 147.00 C 303.45 147.00 303.00 146.55 303.00 146.00 Z M 311.00 146.00 C 311.00 145.45 311.70 145.00 312.56 145.00 C 313.42 145.00 313.84 145.45 313.50 146.00 C 313.16 146.55 312.46 147.00 311.94 147.00 C 311.42 147.00 311.00 146.55 311.00 146.00 Z M 319.00 145.94 C 319.00 145.36 319.45 145.16 320.00 145.50 C 320.55 145.84 321.00 146.32 321.00 146.56 C 321.00 146.80 320.55 147.00 320.00 147.00 C 319.45 147.00 319.00 146.52 319.00 145.94 Z M 322.67 146.33 C 321.71 145.38 321.84 144.00 322.89 144.00 C 323.38 144.00 324.05 144.68 324.36 145.50 C 324.95 147.02 323.88 147.55 322.67 146.33 Z M 338.50 146.00 C 338.16 145.45 338.33 145.00 338.88 145.00 C 339.43 145.00 340.16 145.45 340.50 146.00 C 340.84 146.55 340.67 147.00 340.12 147.00 C 339.57 147.00 338.84 146.55 338.50 146.00 Z M 368.00 145.94 C 368.00 145.36 368.45 145.16 369.00 145.50 C 369.55 145.84 370.00 146.32 370.00 146.56 C 370.00 146.80 369.55 147.00 369.00 147.00 C 368.45 147.00 368.00 146.52 368.00 145.94 Z M 136.45 143.91 C 136.08 143.31 136.21 142.39 136.75 141.85 C 137.39 141.21 137.92 141.59 138.27 142.93 C 138.84 145.11 137.60 145.77 136.45 143.91 Z M 385.82 143.49 C 385.54 143.21 372.53 142.75 356.91 142.47 C 314.23 141.70 314.29 141.70 313.10 142.44 C 312.50 142.81 311.47 142.79 310.82 142.39 C 310.17 141.99 300.26 141.57 288.79 141.46 C 277.32 141.35 267.67 141.01 267.36 140.69 C 267.04 140.37 266.72 136.61 266.64 132.32 C 266.51 124.86 266.38 124.47 263.75 123.21 C 262.24 122.48 261.00 121.47 261.00 120.95 C 261.00 119.70 261.27 119.74 264.64 121.49 C 268.69 123.61 270.56 123.37 272.87 120.44 C 276.12 116.31 277.28 111.30 276.78 103.61 C 276.27 95.66 273.69 88.87 269.04 83.23 C 267.37 81.20 266.00 78.75 266.00 77.77 C 266.00 76.80 265.55 76.00 265.00 76.00 C 264.45 76.00 264.00 76.67 264.00 77.50 C 264.00 78.33 263.37 79.00 262.59 79.00 C 261.70 79.00 261.37 78.30 261.69 77.09 C 262.27 74.86 265.42 74.14 275.78 73.88 C 281.89 73.72 283.29 74.00 284.50 75.60 C 286.47 78.20 286.35 80.36 284.00 84.74 C 282.90 86.79 282.00 89.35 282.00 90.42 C 282.00 96.32 290.64 106.72 299.16 111.08 C 303.37 113.23 310.69 115.06 312.43 114.39 C 314.33 113.66 316.07 107.63 316.14 101.51 C 316.23 94.37 311.80 84.86 305.91 79.54 C 302.19 76.18 301.39 75.88 296.61 76.10 C 291.37 76.35 289.00 75.68 289.00 73.97 C 289.00 73.46 292.17 73.28 296.25 73.57 C 311.06 74.63 322.96 75.86 323.89 76.43 C 324.42 76.76 325.15 78.40 325.52 80.09 C 326.04 82.45 325.71 83.68 324.10 85.40 C 320.93 88.77 321.26 95.43 324.86 101.11 C 328.34 106.61 336.66 112.91 341.46 113.69 C 344.89 114.24 345.06 114.12 347.12 109.47 C 349.75 103.51 349.22 97.01 345.46 89.33 C 342.38 83.04 338.52 80.00 333.60 80.00 C 330.81 80.00 330.00 79.60 330.00 78.22 C 330.00 76.64 330.80 76.48 337.00 76.83 C 342.81 77.16 344.00 76.96 344.00 75.69 C 344.00 74.43 344.96 74.24 349.25 74.68 C 353.60 75.12 354.96 74.85 357.19 73.08 C 361.13 69.96 365.18 60.65 365.76 53.39 C 366.22 47.71 366.07 47.11 363.96 45.98 C 360.04 43.88 351.58 45.37 347.04 48.97 C 340.69 54.00 338.63 58.17 339.37 64.46 C 340.22 71.74 339.66 72.05 327.49 70.96 C 321.99 70.47 316.04 70.06 314.25 70.04 C 311.94 70.01 311.00 69.53 311.00 68.39 C 311.00 67.05 311.64 66.91 314.75 67.58 C 324.18 69.59 327.82 67.60 332.94 57.62 C 335.92 51.83 336.44 49.74 336.78 42.21 C 337.28 30.97 336.37 29.53 328.83 29.64 C 322.49 29.73 319.01 31.38 313.31 36.99 C 305.67 44.51 303.28 52.57 306.61 59.60 C 308.10 62.74 308.10 63.20 306.59 65.50 C 305.69 66.88 304.63 68.04 304.23 68.08 C 303.83 68.13 295.09 68.26 284.81 68.38 C 268.70 68.58 266.23 68.41 266.94 67.15 C 267.51 66.12 269.71 65.67 274.46 65.60 C 280.66 65.51 281.38 65.26 283.97 62.36 C 291.86 53.53 294.61 28.76 288.40 22.55 C 284.68 18.82 273.20 22.69 266.75 29.85 C 264.69 32.13 263.00 34.45 263.00 35.00 C 263.00 35.55 262.55 36.00 262.00 36.00 C 261.45 36.00 261.00 35.33 261.00 34.50 C 261.00 33.67 261.35 33.00 261.78 33.00 C 263.81 33.00 266.27 26.41 266.39 20.70 C 266.46 16.86 266.96 14.51 267.75 14.25 C 268.44 14.02 269.00 13.20 269.00 12.42 C 269.00 11.64 269.45 11.00 270.00 11.00 C 270.55 11.00 271.00 11.68 271.00 12.50 C 271.00 13.65 272.28 14.00 276.50 14.00 C 279.52 14.00 282.00 13.55 282.00 13.00 C 282.00 12.45 282.50 12.00 283.11 12.00 C 283.72 12.00 283.95 12.68 283.64 13.50 C 282.97 15.25 283.88 15.41 286.00 13.91 C 287.13 13.11 287.19 12.72 286.25 12.34 C 284.28 11.54 284.79 10.11 287.00 10.27 C 288.10 10.36 289.24 11.19 289.54 12.12 C 290.26 14.40 292.51 15.14 295.41 14.04 C 296.72 13.54 298.02 13.35 298.29 13.63 C 298.70 14.03 306.71 14.21 316.00 14.02 C 316.82 14.00 318.18 14.06 319.00 14.15 C 319.82 14.24 322.00 14.24 323.83 14.16 C 327.93 13.96 327.65 11.79 323.42 10.87 C 321.81 10.52 325.73 10.29 332.12 10.37 C 340.25 10.46 343.61 10.84 343.31 11.62 C 343.08 12.24 343.61 13.02 344.49 13.36 C 345.43 13.72 345.85 13.56 345.49 12.99 C 345.15 12.43 346.07 12.00 347.63 12.00 C 350.26 12.00 350.30 12.06 348.44 13.47 C 346.57 14.88 346.59 14.94 349.05 14.97 C 350.45 14.99 352.20 14.44 352.93 13.75 C 353.98 12.75 354.34 12.75 354.71 13.75 C 355.40 15.63 358.80 15.29 358.64 13.36 C 358.56 12.45 359.09 11.51 359.82 11.25 C 360.66 10.96 361.02 11.45 360.82 12.62 C 360.63 13.69 361.13 14.50 362.00 14.57 C 362.82 14.64 363.95 14.81 364.50 14.96 C 366.60 15.51 370.53 14.75 371.27 13.65 C 371.81 12.84 372.32 12.98 373.01 14.14 C 373.77 15.44 375.38 15.75 380.56 15.59 C 386.65 15.42 389.24 16.12 387.17 17.39 C 386.70 17.69 386.44 29.98 386.59 44.71 C 387.15 99.52 387.24 143.09 386.80 143.54 C 386.54 143.79 386.10 143.77 385.82 143.49 Z M 140.25 115.50 C 139.91 78.37 139.46 64.83 138.49 62.59 C 137.96 61.37 138.02 60.90 138.66 61.29 C 139.32 61.70 139.60 54.23 139.47 39.37 C 139.26 15.03 139.06 15.93 144.75 15.66 C 146.26 15.58 147.83 15.07 148.23 14.51 C 148.70 13.88 148.98 13.96 148.98 14.75 C 148.99 15.44 149.45 16.00 150.00 16.00 C 150.55 16.00 151.00 15.10 151.00 14.00 C 151.00 12.90 151.49 12.00 152.09 12.00 C 152.70 12.00 153.42 12.90 153.71 14.00 C 154.00 15.10 154.66 16.00 155.18 16.00 C 155.69 16.00 155.86 15.58 155.54 15.07 C 154.76 13.81 157.06 12.48 157.86 13.73 C 158.82 15.22 167.69 16.31 168.48 15.03 C 168.84 14.45 169.54 14.21 170.02 14.51 C 170.51 14.82 176.89 15.01 184.20 14.95 C 191.52 14.89 198.40 14.89 199.50 14.95 C 205.57 15.28 226.00 13.65 226.00 12.84 C 226.00 12.31 225.58 12.14 225.07 12.46 C 224.56 12.77 223.88 12.62 223.57 12.12 C 222.91 11.04 225.28 9.99 228.33 10.02 C 229.98 10.03 230.16 10.24 229.10 10.91 C 227.26 12.08 228.45 15.15 230.46 14.38 C 231.30 14.05 231.71 13.34 231.37 12.79 C 230.79 11.86 232.64 12.20 236.91 13.81 C 239.25 14.69 237.06 11.97 234.65 10.99 C 232.61 10.17 232.63 10.12 235.10 10.06 C 236.52 10.03 238.50 10.90 239.50 12.00 C 241.60 14.32 243.87 14.75 241.98 12.48 C 241.28 11.64 241.07 10.63 241.49 10.23 C 241.92 9.83 242.47 10.06 242.72 10.75 C 242.97 11.44 244.03 12.00 245.08 12.00 C 246.14 12.00 246.89 12.34 246.75 12.75 C 246.43 13.70 247.39 14.02 250.25 13.93 C 252.23 13.87 252.28 13.77 250.65 13.13 C 247.36 11.84 251.19 9.76 255.42 10.55 C 259.70 11.35 259.39 7.71 258.74 49.00 C 258.69 52.02 258.95 57.74 259.31 61.70 C 259.68 65.66 259.64 69.10 259.24 69.34 C 258.83 69.58 254.74 69.94 250.15 70.14 L 241.81 70.50 L 239.53 64.26 C 236.53 56.01 230.09 47.67 223.44 43.42 C 216.67 39.09 213.89 38.01 207.00 37.02 C 189.71 34.54 172.50 44.11 164.26 60.79 C 160.54 68.32 160.50 68.52 160.50 80.50 C 160.50 92.43 160.55 92.71 164.18 100.05 C 170.02 111.86 178.83 119.48 190.78 123.05 L 195.05 124.33 L 194.45 131.92 C 194.11 136.09 193.70 139.96 193.54 140.52 C 193.35 141.15 185.37 141.68 172.37 141.90 C 160.89 142.10 149.03 142.32 146.00 142.38 L 140.50 142.50 L 140.25 115.50 Z M 233.71 137.16 C 228.56 131.85 220.47 127.02 216.70 127.01 C 213.24 127.00 209.24 129.01 206.14 132.33 C 204.13 134.49 203.44 134.70 201.39 133.77 C 199.59 132.95 199.00 131.88 199.00 129.46 C 199.00 125.34 200.27 124.41 206.99 123.66 C 224.89 121.64 240.43 104.26 241.89 84.64 L 242.50 76.50 L 246.00 76.50 C 249.13 76.50 249.54 76.81 249.84 79.45 C 250.03 81.14 249.58 82.85 248.79 83.45 C 243.73 87.29 242.55 95.37 246.00 102.50 C 247.10 104.78 250.52 109.31 253.60 112.57 L 259.19 118.50 L 259.63 127.00 C 259.87 131.68 259.83 136.85 259.53 138.50 L 259.00 141.50 L 248.46 141.50 L 237.93 141.50 L 233.71 137.16 Z M 263.00 138.00 C 262.21 137.51 261.89 136.78 262.30 136.37 C 262.70 135.97 263.56 136.16 264.20 136.80 C 265.71 138.31 264.87 139.15 263.00 138.00 Z M 136.08 132.42 C 136.13 131.25 136.36 131.01 136.68 131.81 C 136.97 132.53 136.94 133.40 136.60 133.73 C 136.27 134.06 136.04 133.47 136.08 132.42 Z M 263.07 132.75 C 263.11 132.06 263.53 130.60 264.00 129.50 C 264.72 127.82 264.87 128.03 264.93 130.75 C 264.97 132.54 264.55 134.00 264.00 134.00 C 263.45 134.00 263.03 133.44 263.07 132.75 Z M 262.00 125.94 C 262.00 124.81 262.45 124.16 263.00 124.50 C 263.55 124.84 264.00 125.77 264.00 126.56 C 264.00 127.35 263.55 128.00 263.00 128.00 C 262.45 128.00 262.00 127.07 262.00 125.94 Z M 389.50 125.00 C 389.84 124.45 390.32 124.00 390.56 124.00 C 390.80 124.00 391.00 124.45 391.00 125.00 C 391.00 125.55 390.52 126.00 389.94 126.00 C 389.36 126.00 389.16 125.55 389.50 125.00 Z M 136.57 120.33 C 136.22 119.42 136.40 118.20 136.97 117.63 C 137.68 116.92 138.00 117.44 138.00 119.30 C 138.00 122.38 137.50 122.75 136.57 120.33 Z M 389.64 118.22 C 389.30 117.67 389.69 116.67 390.51 115.99 C 392.14 114.64 392.48 115.70 391.11 117.86 C 390.59 118.68 390.01 118.82 389.64 118.22 Z M 265.23 115.50 C 260.00 113.23 251.64 103.55 249.48 97.26 C 248.40 94.13 248.43 93.07 249.65 90.72 C 251.31 87.51 256.50 84.01 259.62 84.00 C 268.23 83.99 275.55 104.23 270.47 114.05 C 269.64 115.67 268.85 116.98 268.72 116.96 C 268.60 116.94 267.03 116.28 265.23 115.50 Z M 136.00 114.56 C 136.00 113.70 136.45 113.00 137.00 113.00 C 137.55 113.00 138.00 113.42 138.00 113.94 C 138.00 114.46 137.55 115.16 137.00 115.50 C 136.45 115.84 136.00 115.42 136.00 114.56 Z M 189.36 113.88 C 181.78 111.02 175.66 105.13 171.51 96.68 C 168.45 90.45 167.96 88.44 167.81 81.50 C 167.61 71.96 168.85 67.19 173.23 60.54 C 185.00 42.66 209.49 39.73 224.10 54.45 C 228.15 58.53 234.56 70.29 233.59 71.86 C 233.30 72.32 230.24 72.99 226.78 73.33 C 223.33 73.68 218.82 74.25 216.77 74.61 C 213.68 75.14 212.91 74.93 212.32 73.38 C 210.97 69.81 207.79 67.72 202.07 66.63 C 194.73 65.24 187.11 74.04 188.44 82.38 C 189.11 86.59 194.09 93.00 196.70 93.00 C 197.41 93.00 198.00 94.01 197.99 95.25 C 197.98 100.03 196.01 114.39 195.27 115.09 C 194.85 115.49 192.19 114.95 189.36 113.88 Z M 201.36 111.75 C 201.68 109.41 202.25 104.64 202.61 101.15 C 203.20 95.53 203.62 94.59 206.22 93.02 C 209.63 90.94 212.09 87.72 213.50 83.50 C 214.43 80.72 214.95 80.45 220.67 79.82 C 224.06 79.45 228.47 78.69 230.47 78.13 C 235.18 76.83 235.67 78.03 234.08 86.93 C 232.56 95.45 228.03 103.14 221.28 108.64 C 216.37 112.63 208.01 116.00 202.98 116.00 C 200.96 116.00 200.82 115.64 201.36 111.75 Z M 390.19 110.50 C 390.22 108.85 390.44 108.30 390.69 109.27 C 390.95 110.24 390.93 111.59 390.66 112.27 C 390.38 112.95 390.17 112.15 390.19 110.50 Z M 135.70 108.66 C 135.42 107.93 135.55 105.79 135.99 103.91 C 136.66 101.09 136.82 100.94 136.91 103.00 C 136.98 104.38 137.30 106.51 137.63 107.75 C 138.27 110.14 136.57 110.94 135.70 108.66 Z M 302.41 106.52 C 296.89 103.77 289.26 96.76 287.89 93.18 C 287.40 91.90 287.27 89.77 287.61 88.43 C 288.39 85.30 293.50 81.00 296.43 81.00 C 304.72 81.00 313.61 97.20 310.57 106.78 C 309.67 109.60 308.53 109.57 302.41 106.52 Z M 333.10 102.25 C 326.97 96.11 325.81 93.76 327.13 90.17 C 328.28 87.07 333.70 84.84 336.42 86.36 C 339.58 88.13 340.86 90.07 342.55 95.70 C 344.51 102.23 343.70 108.00 340.81 108.00 C 339.73 108.00 336.26 105.41 333.10 102.25 Z M 390.00 102.94 C 390.00 102.36 390.45 102.16 391.00 102.50 C 391.55 102.84 392.00 103.32 392.00 103.56 C 392.00 103.80 391.55 104.00 391.00 104.00 C 390.45 104.00 390.00 103.52 390.00 102.94 Z M 135.16 99.00 C 135.16 97.62 135.38 97.06 135.66 97.75 C 135.94 98.44 135.94 99.56 135.66 100.25 C 135.38 100.94 135.16 100.38 135.16 99.00 Z M 389.00 98.94 C 389.00 98.36 389.45 98.16 390.00 98.50 C 390.55 98.84 391.00 99.32 391.00 99.56 C 391.00 99.80 390.55 100.00 390.00 100.00 C 389.45 100.00 389.00 99.52 389.00 98.94 Z M 390.47 95.50 C 390.21 94.67 389.79 93.34 389.54 92.53 C 389.29 91.72 389.45 90.84 389.89 90.57 C 390.33 90.29 390.34 87.92 389.91 85.29 C 388.81 78.60 388.82 77.42 389.97 78.57 C 390.50 79.10 391.14 83.46 391.40 88.27 C 391.84 96.51 391.53 98.91 390.47 95.50 Z M 136.80 94.45 C 136.49 93.93 135.96 91.92 135.63 90.00 L 135.03 86.50 L 136.56 89.86 C 137.96 92.92 138.16 96.73 136.80 94.45 Z M 87.96 77.83 C 80.01 70.24 73.10 64.16 72.61 64.31 C 72.12 64.47 70.94 66.60 69.97 69.05 C 68.62 72.48 67.77 73.43 66.23 73.21 C 63.69 72.83 62.44 75.87 64.36 77.79 C 65.61 79.04 65.53 79.87 63.75 84.14 C 62.63 86.84 62.01 89.34 62.36 89.70 C 63.16 90.49 100.11 92.76 101.46 92.10 C 101.98 91.84 95.91 85.42 87.96 77.83 Z M 136.16 84.00 C 136.16 82.62 136.38 82.06 136.66 82.75 C 136.94 83.44 136.94 84.56 136.66 85.25 C 136.38 85.94 136.16 85.38 136.16 84.00 Z M 135.12 79.31 C 134.97 75.37 136.71 74.05 137.89 77.19 C 138.87 79.78 138.17 81.90 136.98 79.96 C 136.42 79.06 136.07 79.24 135.72 80.60 C 135.42 81.78 135.19 81.28 135.12 79.31 Z M 254.70 77.65 C 253.96 75.74 254.81 75.00 257.74 75.00 C 259.49 75.00 260.06 75.48 259.81 76.75 C 259.40 78.93 255.45 79.62 254.70 77.65 Z M 390.00 72.00 C 390.00 70.90 390.41 70.00 390.91 70.00 C 391.40 70.00 391.58 70.90 391.29 72.00 C 391.00 73.10 390.59 74.00 390.38 74.00 C 390.17 74.00 390.00 73.10 390.00 72.00 Z M 135.66 71.56 C 135.36 70.78 135.65 69.93 136.31 69.69 C 137.22 69.35 137.20 68.94 136.25 67.92 C 135.56 67.20 135.03 64.78 135.07 62.55 L 135.13 58.50 L 136.52 63.50 C 137.29 66.25 137.93 69.51 137.96 70.75 C 138.01 73.26 136.52 73.79 135.66 71.56 Z M 57.78 69.90 C 58.11 68.17 49.29 60.74 47.56 61.31 C 46.98 61.50 46.36 62.59 46.19 63.73 C 45.97 65.22 47.10 66.68 50.19 68.87 C 54.77 72.13 57.29 72.47 57.78 69.90 Z M 347.79 68.45 C 345.94 67.44 344.88 65.86 344.42 63.42 C 343.83 60.28 344.16 59.42 347.12 56.31 C 352.86 50.29 361.00 47.91 361.00 52.25 C 361.01 56.02 357.66 64.15 354.85 67.16 C 351.83 70.40 351.49 70.46 347.79 68.45 Z M 389.34 65.43 C 389.01 64.57 389.24 63.36 389.87 62.73 C 390.71 61.89 391.00 62.29 391.00 64.30 C 391.00 67.31 390.25 67.82 389.34 65.43 Z M 261.00 62.44 C 261.00 61.58 261.45 61.16 262.00 61.50 C 262.55 61.84 263.00 62.54 263.00 63.06 C 263.00 63.58 262.55 64.00 262.00 64.00 C 261.45 64.00 261.00 63.30 261.00 62.44 Z M 314.11 60.44 C 310.12 57.08 309.07 51.89 311.50 47.62 C 315.99 39.74 322.85 35.02 329.86 35.01 C 332.16 35.00 332.21 35.19 331.84 42.25 C 331.44 49.80 328.95 56.53 324.97 60.81 C 322.21 63.76 317.88 63.61 314.11 60.44 Z M 137.08 59.42 C 137.13 58.25 137.36 58.01 137.68 58.81 C 137.97 59.53 137.94 60.40 137.60 60.73 C 137.27 61.06 137.04 60.47 137.08 59.42 Z M 270.50 60.06 C 266.23 58.32 263.00 53.91 263.00 49.82 C 263.00 40.77 272.82 28.88 282.13 26.65 C 286.02 25.72 287.43 29.84 286.73 40.10 C 285.67 55.53 279.13 63.58 270.50 60.06 Z M 41.62 56.54 C 42.38 54.56 36.10 46.00 33.89 46.00 C 30.65 46.00 30.82 47.99 34.51 53.02 C 38.20 58.04 40.59 59.23 41.62 56.54 Z M 390.00 50.67 C 390.00 49.20 390.37 48.00 390.83 48.00 C 391.81 48.00 391.69 51.64 390.69 52.65 C 390.31 53.02 390.00 52.13 390.00 50.67 Z M 135.07 43.75 C 135.12 40.74 135.36 40.06 135.90 41.43 C 136.60 43.24 136.23 48.00 135.38 48.00 C 135.17 48.00 135.03 46.09 135.07 43.75 Z M 30.57 38.89 C 30.94 38.28 30.45 35.13 29.47 31.89 C 27.93 26.83 27.35 26.00 25.27 26.00 C 23.46 26.00 22.99 26.43 23.36 27.75 C 23.63 28.71 24.16 31.07 24.54 33.00 C 24.92 34.92 25.65 37.29 26.15 38.25 C 27.19 40.22 29.53 40.56 30.57 38.89 Z M 135.31 29.50 C 135.32 26.20 135.50 24.97 135.72 26.77 C 135.95 28.57 135.94 31.27 135.71 32.77 C 135.49 34.27 135.30 32.80 135.31 29.50 Z M 262.46 27.20 C 262.77 25.17 262.59 24.13 261.98 24.51 C 260.62 25.35 260.83 22.11 262.37 18.50 C 263.63 15.54 263.65 15.57 263.77 20.81 C 263.84 23.73 263.45 27.11 262.92 28.31 C 262.11 30.13 262.03 29.94 262.46 27.20 Z M 389.58 21.13 C 389.15 20.44 389.07 19.60 389.40 19.27 C 390.29 18.37 391.27 19.69 390.79 21.14 C 390.45 22.15 390.21 22.15 389.58 21.13 Z M 135.16 19.00 C 135.16 17.62 135.38 17.06 135.66 17.75 C 135.94 18.44 135.94 19.56 135.66 20.25 C 135.38 20.94 135.16 20.38 135.16 19.00 Z M 27.35 12.90 C 28.06 6.13 27.73 5.00 25.05 5.00 C 23.66 5.00 23.07 6.05 22.57 9.39 C 21.72 15.06 22.70 19.00 24.97 19.00 C 26.37 19.00 26.84 17.80 27.35 12.90 Z M 390.08 14.42 C 390.13 13.25 390.36 13.01 390.68 13.81 C 390.97 14.53 390.94 15.40 390.60 15.73 C 390.27 16.06 390.04 15.47 390.08 14.42 Z M 341.00 14.05 C 341.27 13.93 340.15 13.42 338.50 12.92 C 335.41 11.99 329.00 12.67 329.00 13.93 C 329.00 14.55 339.67 14.66 341.00 14.05 Z M 134.00 13.00 C 134.00 12.45 134.45 12.00 135.00 12.00 C 135.55 12.00 136.00 12.45 136.00 13.00 C 136.00 13.55 135.55 14.00 135.00 14.00 C 134.45 14.00 134.00 13.55 134.00 13.00 Z M 258.00 13.56 C 258.00 12.50 256.08 12.06 255.51 12.98 C 255.16 13.54 255.58 14.00 256.44 14.00 C 257.30 14.00 258.00 13.80 258.00 13.56 Z M 261.00 13.00 C 261.00 12.45 261.90 12.00 263.00 12.00 C 264.10 12.00 265.00 12.45 265.00 13.00 C 265.00 13.55 264.10 14.00 263.00 14.00 C 261.90 14.00 261.00 13.55 261.00 13.00 Z M 143.81 12.32 C 144.53 12.03 145.40 12.06 145.73 12.40 C 146.06 12.73 145.47 12.96 144.42 12.92 C 143.25 12.87 143.01 12.64 143.81 12.32 Z M 216.21 11.46 C 215.11 10.21 215.44 10.00 218.53 10.00 C 221.74 10.00 221.98 10.17 220.64 11.50 C 218.79 13.35 217.87 13.34 216.21 11.46 Z M 255.00 12.56 C 255.00 12.32 254.55 11.84 254.00 11.50 C 253.45 11.16 253.00 11.36 253.00 11.94 C 253.00 12.52 253.45 13.00 254.00 13.00 C 254.55 13.00 255.00 12.80 255.00 12.56 Z M 273.70 11.67 C 273.29 10.60 274.11 10.01 276.67 9.53 C 282.37 8.47 282.56 11.10 276.89 12.50 C 275.05 12.96 274.10 12.71 273.70 11.67 Z M 302.00 11.83 C 304.39 10.84 304.41 10.75 302.50 9.92 C 300.83 9.19 300.98 9.08 303.42 9.27 C 305.03 9.40 306.53 10.06 306.76 10.75 C 307.03 11.58 306.58 11.78 305.42 11.33 C 304.23 10.87 303.90 11.03 304.39 11.83 C 304.88 12.62 304.21 12.98 302.31 12.94 L 299.50 12.87 L 302.00 11.83 Z M 319.00 12.03 C 319.00 11.50 319.68 11.32 320.50 11.64 C 321.32 11.95 322.00 12.39 322.00 12.61 C 322.00 12.82 321.32 13.00 320.50 13.00 C 319.68 13.00 319.00 12.56 319.00 12.03 Z M 362.50 12.00 C 362.16 11.45 362.36 11.00 362.94 11.00 C 363.52 11.00 364.00 11.45 364.00 12.00 C 364.00 12.55 363.80 13.00 363.56 13.00 C 363.32 13.00 362.84 12.55 362.50 12.00 Z M 379.50 12.00 C 379.16 11.45 379.56 11.00 380.38 11.00 C 381.21 11.00 382.16 11.45 382.50 12.00 C 382.84 12.55 382.44 13.00 381.62 13.00 C 380.79 13.00 379.84 12.55 379.50 12.00 Z M 203.50 11.00 C 203.16 10.45 203.36 10.00 203.94 10.00 C 204.52 10.00 205.00 10.45 205.00 11.00 C 205.00 11.55 204.80 12.00 204.56 12.00 C 204.32 12.00 203.84 11.55 203.50 11.00 Z M 206.00 11.00 C 206.00 10.45 207.91 10.04 210.25 10.10 C 213.86 10.18 214.12 10.32 212.00 11.00 C 208.40 12.15 206.00 12.15 206.00 11.00 Z M 265.00 11.06 C 265.00 10.54 265.45 9.84 266.00 9.50 C 266.55 9.16 267.00 9.58 267.00 10.44 C 267.00 11.30 266.55 12.00 266.00 12.00 C 265.45 12.00 265.00 11.58 265.00 11.06 Z M 291.00 11.00 C 291.00 10.45 291.48 10.00 292.06 10.00 C 292.64 10.00 292.84 10.45 292.50 11.00 C 292.16 11.55 291.68 12.00 291.44 12.00 C 291.20 12.00 291.00 11.55 291.00 11.00 Z M 310.67 10.42 C 311.07 9.38 312.00 9.03 313.39 9.41 C 314.55 9.72 316.40 10.01 317.50 10.06 L 319.50 10.14 L 317.50 11.00 C 316.40 11.47 314.28 11.89 312.78 11.93 C 310.70 11.98 310.20 11.63 310.67 10.42 Z M 192.81 10.32 C 193.53 10.03 194.40 10.06 194.73 10.40 C 195.06 10.73 194.47 10.96 193.42 10.92 C 192.25 10.87 192.01 10.64 192.81 10.32 Z M 260.00 10.00 C 260.00 9.45 260.45 9.00 261.00 9.00 C 261.55 9.00 262.00 9.45 262.00 10.00 C 262.00 10.55 261.55 11.00 261.00 11.00 C 260.45 11.00 260.00 10.55 260.00 10.00 Z M 295.50 10.00 C 295.16 9.45 295.33 9.00 295.88 9.00 C 296.43 9.00 297.16 9.45 297.50 10.00 C 297.84 10.55 297.67 11.00 297.12 11.00 C 296.57 11.00 295.84 10.55 295.50 10.00 Z M 346.81 10.32 C 347.53 10.03 348.40 10.06 348.73 10.40 C 349.06 10.73 348.47 10.96 347.42 10.92 C 346.25 10.87 346.01 10.64 346.81 10.32 Z" fill="none" stroke="rgba(255,255,255,0.92)" stroke-width="1.5" stroke-linejoin="round" fill-rule="evenodd"/>
</svg>
