<svg xmlns="http://www.w3.org/2000/svg" viewBox="0 0 100 100" width="100" height="100">
  <path d="M 0.00 50.00 L 0.00 0.00 L 50.00 0.00 L 100.00 0.00 L 100.00 50.00 L 100.00 100.00 L 50.00 100.00 L 0.00 100.00 L 0.00 50.00 Z M 95.46 51.25 C 95.11 26.64 94.75 6.42 94.65 6.31 C 94.23 5.90 57.02 5.04 36.00 4.96 C 1.69 4.83 4.00 4.69 4.00 7.03 C 4.00 9.66 6.22 10.47 9.93 9.17 C 12.03 8.44 12.99 8.46 13.25 9.25 C 13.46 9.88 14.17 10.01 14.92 9.55 C 15.97 8.90 15.96 8.59 14.86 7.89 C 13.78 7.21 13.84 7.03 15.14 7.02 C 16.05 7.01 17.03 7.62 17.32 8.38 C 17.68 9.33 19.55 9.76 23.17 9.75 C 27.11 9.74 27.98 9.51 26.50 8.85 C 25.04 8.21 25.31 8.14 27.50 8.61 C 36.00 10.41 49.10 9.85 43.00 7.94 C 41.44 7.45 43.98 7.19 49.79 7.25 C 54.90 7.29 58.52 7.68 57.84 8.10 C 56.22 9.10 61.29 10.42 64.02 9.71 C 65.11 9.42 66.25 9.60 66.56 10.09 C 67.56 11.72 69.00 11.05 69.00 8.94 C 69.00 7.80 69.45 7.16 70.02 7.51 C 70.58 7.86 70.81 8.51 70.53 8.95 C 69.77 10.18 74.36 10.78 77.01 9.80 C 78.42 9.28 79.58 9.32 79.94 9.91 C 80.79 11.28 89.00 11.03 89.02 9.63 C 89.02 9.01 89.44 9.15 89.95 9.95 C 90.45 10.75 90.63 11.79 90.33 12.27 C 90.04 12.75 89.89 25.82 90.01 41.32 C 90.12 56.82 90.23 75.46 90.24 82.75 L 90.27 96.00 L 93.18 96.00 L 96.09 96.00 L 95.46 51.25 Z M 6.55 79.53 C 8.51 74.83 8.33 69.31 6.05 64.50 L 4.16 60.50 L 4.08 71.75 C 4.04 77.94 4.25 83.00 4.55 83.00 C 4.85 83.00 5.75 81.44 6.55 79.53 Z M 92.02 81.81 C 92.01 80.88 92.45 79.84 93.00 79.50 C 94.27 78.72 94.27 80.04 93.00 82.00 C 92.16 83.29 92.03 83.27 92.02 81.81 Z M 35.96 77.07 C 37.62 73.97 37.17 66.25 35.09 62.21 C 31.82 55.85 27.57 52.56 22.49 52.47 C 20.05 52.42 17.74 52.07 17.36 51.69 C 16.50 50.83 23.93 50.81 34.65 51.65 C 41.69 52.19 42.94 52.58 43.79 54.43 C 44.53 56.07 44.32 57.12 42.88 58.90 C 41.85 60.18 41.00 62.18 41.00 63.36 C 41.01 68.10 47.74 75.43 54.39 77.96 C 62.68 81.11 64.30 66.10 56.51 58.31 C 54.50 56.30 52.20 55.00 50.66 55.00 C 49.26 55.00 47.84 54.55 47.50 54.00 C 47.12 53.38 48.99 53.00 52.44 53.00 C 55.64 53.00 58.00 52.56 58.00 51.95 C 58.00 51.30 59.31 51.16 61.50 51.57 C 65.95 52.40 69.27 50.35 71.94 45.12 C 74.41 40.27 74.95 33.22 72.95 31.95 C 68.68 29.24 60.08 32.39 56.20 38.07 C 54.38 40.74 54.03 42.23 54.54 45.22 C 55.23 49.35 55.36 49.27 48.50 49.08 C 40.92 48.88 33.00 47.80 33.47 47.05 C 33.73 46.63 36.12 46.50 38.78 46.75 C 43.16 47.17 43.92 46.92 46.71 44.14 C 50.29 40.55 53.01 33.39 52.98 27.57 C 52.96 21.56 51.89 20.49 46.04 20.57 C 42.00 20.63 40.27 21.24 37.25 23.67 C 29.81 29.66 27.47 35.55 30.18 41.49 C 31.14 43.61 31.07 44.36 29.78 45.65 C 28.50 46.93 25.93 47.19 16.10 47.07 C 4.53 46.92 4.00 47.00 4.00 48.95 C 4.00 50.70 4.64 51.00 8.26 51.00 C 13.66 51.00 15.98 53.76 13.53 57.26 C 9.45 63.09 14.08 71.37 24.26 76.44 C 30.45 79.53 34.53 79.75 35.96 77.07 Z M 24.21 71.95 C 19.62 69.31 15.02 64.19 15.00 61.70 C 15.00 59.93 20.07 56.00 22.38 56.00 C 28.28 56.00 35.24 66.60 33.08 72.29 C 31.78 75.72 30.72 75.68 24.21 71.95 Z M 51.29 71.83 C 49.02 70.00 46.63 67.54 45.98 66.37 C 43.22 61.43 48.54 57.16 53.46 60.38 C 54.80 61.26 56.37 63.67 56.94 65.74 C 58.29 70.57 58.27 71.25 56.70 73.39 C 55.50 75.04 55.13 74.94 51.29 71.83 Z M 92.00 70.94 C 92.00 70.36 92.45 70.16 93.00 70.50 C 93.55 70.84 94.00 71.32 94.00 71.56 C 94.00 71.80 93.55 72.00 93.00 72.00 C 92.45 72.00 92.00 71.52 92.00 70.94 Z M 92.25 61.50 C 92.25 60.15 92.64 59.28 93.12 59.58 C 93.61 59.87 94.00 60.74 94.00 61.50 C 94.00 62.26 93.61 63.13 93.12 63.42 C 92.64 63.72 92.25 62.85 92.25 61.50 Z M 92.16 56.00 C 92.16 54.62 92.38 54.06 92.66 54.75 C 92.94 55.44 92.94 56.56 92.66 57.25 C 92.38 57.94 92.16 57.38 92.16 56.00 Z M 92.00 49.00 C 92.00 48.45 92.45 48.00 93.00 48.00 C 93.55 48.00 94.00 48.45 94.00 49.00 C 94.00 49.55 93.55 50.00 93.00 50.00 C 92.45 50.00 92.00 49.55 92.00 49.00 Z M 59.54 46.04 C 57.06 43.31 58.22 39.64 62.37 37.08 C 65.91 34.89 71.00 34.27 71.00 36.03 C 71.00 36.60 70.31 38.72 69.46 40.75 C 66.47 47.91 62.94 49.80 59.54 46.04 Z M 11.14 44.43 C 16.79 41.50 20.74 26.79 18.05 18.65 C 16.94 15.29 16.54 15.00 12.99 15.00 C 7.13 15.00 4.00 16.52 4.00 19.37 L 4.00 21.78 L 7.71 19.89 C 14.03 16.67 15.00 17.50 15.00 26.11 C 15.00 34.40 10.86 42.00 6.35 42.00 C 4.67 42.00 4.00 42.57 4.00 44.00 C 4.00 46.47 6.86 46.64 11.14 44.43 Z M 92.16 44.00 C 92.16 42.62 92.38 42.06 92.66 42.75 C 92.94 43.44 92.94 44.56 92.66 45.25 C 92.38 45.94 92.16 45.38 92.16 44.00 Z M 38.00 43.22 C 32.57 41.47 31.35 35.12 35.49 30.20 C 38.23 26.94 43.64 24.00 46.90 24.00 C 48.71 24.00 49.00 24.59 48.98 28.25 C 48.93 36.95 43.12 44.87 38.00 43.22 Z M 53.91 8.89 C 52.27 8.29 50.45 8.30 48.91 8.91 C 46.88 9.72 47.29 9.87 51.50 9.86 C 55.81 9.84 56.15 9.71 53.91 8.89 Z M 5.61 8.18 C 4.81 6.88 9.22 5.82 10.43 7.03 C 11.06 7.66 11.00 8.00 10.28 8.00 C 9.67 8.00 8.50 8.26 7.68 8.57 C 6.87 8.88 5.94 8.71 5.61 8.18 Z M 60.00 8.00 C 60.00 7.45 60.45 7.00 61.00 7.00 C 61.55 7.00 62.00 7.45 62.00 8.00 C 62.00 8.55 61.55 9.00 61.00 9.00 C 60.45 9.00 60.00 8.55 60.00 8.00 Z M 84.81 8.32 C 85.53 8.03 86.40 8.06 86.73 8.40 C 87.06 8.73 86.47 8.96 85.42 8.92 C 84.25 8.87 84.01 8.64 84.81 8.32 Z M 28.00 6.94 C 28.00 6.36 28.45 6.16 29.00 6.50 C 29.55 6.84 30.00 7.32 30.00 7.56 C 30.00 7.80 29.55 8.00 29.00 8.00 C 28.45 8.00 28.00 7.52 28.00 6.94 Z M 33.00 6.98 C 33.00 6.38 34.12 6.23 35.75 6.62 C 39.68 7.56 39.81 8.00 36.17 8.00 C 34.42 8.00 33.00 7.54 33.00 6.98 Z" fill="none" stroke="rgba(255,255,255,0.92)" stroke-width="1.2" stroke-linejoin="round" fill-rule="evenodd"/>
</svg>
