<svg xmlns="http://www.w3.org/2000/svg" viewBox="0 0 100 100" width="100" height="100">
  <path d="M 0.00 50.00 L 0.00 0.00 L 50.00 0.00 L 100.00 0.00 L 100.00 50.00 L 100.00 100.00 L 50.00 100.00 L 0.00 100.00 L 0.00 50.00 Z M 5.21 74.29 C 5.05 62.35 4.71 52.37 4.46 52.12 C 4.21 51.87 4.00 61.64 4.00 73.83 C 4.00 86.02 4.34 96.00 4.75 96.00 C 5.16 96.00 5.37 86.23 5.21 74.29 Z M 58.18 93.50 C 61.86 90.41 62.52 90.41 67.50 93.47 C 69.70 94.83 72.59 95.95 73.92 95.97 L 76.35 96.00 L 74.05 93.56 C 68.61 87.77 60.11 86.31 55.68 90.42 C 54.00 91.97 52.35 92.64 51.04 92.30 C 48.82 91.72 48.75 91.53 49.60 88.35 C 50.05 86.68 51.22 86.05 54.84 85.54 C 69.16 83.53 80.22 71.96 81.72 57.42 C 82.17 53.04 82.63 52.00 84.10 52.00 C 85.11 52.00 86.43 52.93 87.04 54.07 C 87.96 55.79 87.72 56.56 85.57 58.70 C 80.94 63.33 82.34 69.31 89.95 77.35 C 94.78 82.46 94.91 82.76 95.25 89.54 C 95.59 96.13 95.62 96.02 95.80 87.45 L 96.00 78.39 L 92.54 75.04 C 90.63 73.19 88.34 70.12 87.43 68.22 C 85.88 64.94 85.89 64.62 87.73 62.13 C 88.79 60.68 91.10 59.07 92.86 58.54 L 96.06 57.57 L 95.97 31.29 C 95.90 11.74 95.57 4.98 94.69 4.91 C 92.72 4.77 43.98 5.31 37.00 5.55 C 33.42 5.67 24.61 5.83 17.42 5.89 L 4.33 6.00 L 4.33 8.76 C 4.33 11.39 4.53 11.50 8.40 11.13 C 10.64 10.92 13.02 10.02 13.70 9.12 C 14.83 7.64 14.94 7.65 14.97 9.25 C 15.00 10.98 17.00 11.83 17.00 10.11 C 17.00 9.59 18.60 9.57 20.81 10.07 C 22.91 10.54 25.95 10.57 27.56 10.14 C 29.18 9.71 32.30 9.64 34.50 10.00 C 36.70 10.35 40.30 10.53 42.50 10.39 C 44.70 10.26 51.34 10.11 57.25 10.07 C 66.11 10.01 68.00 9.74 68.00 8.50 C 68.00 7.67 68.89 7.00 69.97 7.00 C 71.31 7.00 71.75 7.48 71.36 8.50 C 71.00 9.45 71.38 10.00 72.39 10.00 C 73.28 10.00 74.00 9.52 74.00 8.94 C 74.00 8.36 74.50 8.19 75.11 8.57 C 75.72 8.95 76.59 8.67 77.04 7.94 C 77.70 6.86 78.13 6.86 79.42 7.94 C 80.43 8.77 81.00 8.85 81.00 8.15 C 81.00 6.89 84.12 7.82 85.27 9.43 C 85.78 10.13 86.39 9.90 87.07 8.75 C 88.19 6.85 90.67 6.50 92.94 7.94 C 94.11 8.68 94.40 12.55 94.47 28.43 C 94.56 47.79 94.54 48.00 92.42 48.00 C 91.24 48.00 88.30 48.26 85.89 48.58 L 81.50 49.17 L 79.55 44.35 C 77.03 38.10 70.88 31.49 64.54 28.21 C 57.26 24.45 45.81 24.40 38.00 28.11 C 26.71 33.47 20.94 41.88 20.22 54.09 C 19.71 62.59 21.45 67.99 26.93 74.92 C 30.14 78.97 40.37 85.00 44.03 85.00 C 46.16 85.00 46.25 85.29 45.71 90.50 L 45.14 96.00 L 50.18 96.00 C 54.09 96.00 55.87 95.44 58.18 93.50 Z M 42.22 78.74 C 37.80 77.33 30.37 70.64 27.96 65.92 C 25.36 60.83 25.34 50.99 27.92 45.50 C 34.96 30.50 55.18 26.31 67.66 37.28 C 70.79 40.03 75.00 46.62 75.00 48.78 C 75.00 49.26 71.74 50.16 67.75 50.78 C 61.12 51.82 60.37 51.76 59.00 50.08 C 55.41 45.67 49.50 44.80 44.98 48.01 C 39.59 51.85 40.18 59.90 46.10 63.40 C 48.57 64.86 49.02 65.67 48.60 67.84 C 48.31 69.30 47.78 72.64 47.42 75.25 C 47.07 77.86 46.49 79.95 46.14 79.90 C 45.79 79.84 44.02 79.32 42.22 78.74 Z M 51.52 73.25 C 52.14 67.03 52.49 66.25 55.99 63.26 C 58.07 61.48 60.06 58.89 60.41 57.51 C 60.94 55.40 61.63 55.00 64.77 54.98 C 66.82 54.96 70.19 54.56 72.25 54.08 L 76.00 53.21 L 75.99 56.86 C 75.97 65.56 68.34 75.33 59.13 78.47 C 51.06 81.22 50.74 81.00 51.52 73.25 Z M 91.00 53.57 C 91.00 52.65 91.85 52.00 93.08 52.00 C 95.52 52.00 95.18 54.34 92.67 54.82 C 91.68 55.01 91.00 54.50 91.00 53.57 Z M 4.69 46.27 C 4.44 45.30 4.22 45.85 4.19 47.50 C 4.17 49.15 4.38 49.95 4.66 49.27 C 4.93 48.59 4.95 47.24 4.69 46.27 Z M 4.72 35.25 C 4.49 33.74 4.30 34.98 4.30 38.00 C 4.30 41.02 4.49 42.26 4.72 40.75 C 4.95 39.24 4.95 36.76 4.72 35.25 Z M 4.66 26.75 C 4.38 26.06 4.16 26.62 4.16 28.00 C 4.16 29.38 4.38 29.94 4.66 29.25 C 4.94 28.56 4.94 27.44 4.66 26.75 Z M 4.68 20.81 C 4.36 20.01 4.13 20.25 4.08 21.42 C 4.04 22.47 4.27 23.06 4.60 22.73 C 4.94 22.40 4.97 21.53 4.68 20.81 Z M 4.68 14.81 C 4.36 14.01 4.13 14.25 4.08 15.42 C 4.04 16.47 4.27 17.06 4.60 16.73 C 4.94 16.40 4.97 15.53 4.68 14.81 Z M 7.81 8.32 C 8.53 8.03 9.40 8.06 9.73 8.40 C 10.06 8.73 9.47 8.96 8.42 8.92 C 7.25 8.87 7.01 8.64 7.81 8.32 Z M 62.50 8.00 C 62.16 7.45 62.84 7.00 64.00 7.00 C 65.16 7.00 65.84 7.45 65.50 8.00 C 65.16 8.55 64.49 9.00 64.00 9.00 C 63.51 9.00 62.84 8.55 62.50 8.00 Z M 53.75 7.29 C 54.99 7.06 57.01 7.06 58.25 7.29 C 59.49 7.53 58.48 7.73 56.00 7.73 C 53.52 7.73 52.51 7.53 53.75 7.29 Z" fill="none" stroke="rgba(255,255,255,0.92)" stroke-width="1.2" stroke-linejoin="round" fill-rule="evenodd"/>
</svg>
