<svg xmlns="http://www.w3.org/2000/svg" viewBox="0 0 100 100" width="100" height="100">
  <path d="M 0.00 50.00 L 0.00 0.00 L 50.00 0.00 L 100.00 0.00 L 100.00 50.00 L 100.00 100.00 L 50.00 100.00 L 0.00 100.00 L 0.00 50.00 Z M 34.67 94.65 C 34.58 94.15 35.13 93.52 35.89 93.25 C 36.74 92.94 37.01 93.18 36.58 93.87 C 36.20 94.49 36.47 95.03 37.19 95.07 C 37.91 95.10 41.07 95.35 44.22 95.62 C 47.42 95.89 50.83 95.62 51.97 95.02 C 53.09 94.42 54.00 94.31 54.00 94.77 C 54.00 95.24 56.25 95.65 59.00 95.69 C 62.63 95.75 64.00 95.39 64.00 94.38 C 64.00 93.62 64.45 93.00 65.00 93.00 C 65.55 93.00 65.89 93.54 65.75 94.21 C 65.57 95.10 69.42 95.47 80.54 95.62 L 95.59 95.83 L 95.79 93.17 L 95.99 90.50 L 53.25 90.57 C 29.74 90.61 9.60 90.47 8.50 90.27 C 6.59 89.92 6.49 89.03 6.30 70.70 C 5.75 16.24 5.51 5.82 4.80 4.71 C 4.06 3.55 3.83 93.87 4.57 95.10 C 5.16 96.07 34.86 95.62 34.67 94.65 Z M 25.00 93.67 C 25.00 92.74 25.78 92.01 26.75 92.02 C 27.75 92.02 28.07 92.35 27.50 92.78 C 26.95 93.19 26.16 93.93 25.75 94.43 C 25.34 94.93 25.00 94.58 25.00 93.67 Z M 51.50 93.00 C 51.16 92.45 51.36 92.00 51.94 92.00 C 52.52 92.00 53.00 92.45 53.00 93.00 C 53.00 93.55 52.80 94.00 52.56 94.00 C 52.32 94.00 51.84 93.55 51.50 93.00 Z M 55.81 93.32 C 56.53 93.03 57.40 93.06 57.73 93.40 C 58.06 93.73 57.47 93.96 56.42 93.92 C 55.25 93.87 55.01 93.64 55.81 93.32 Z M 60.50 93.00 C 60.16 92.45 60.36 92.00 60.94 92.00 C 61.52 92.00 62.00 92.45 62.00 93.00 C 62.00 93.55 61.80 94.00 61.56 94.00 C 61.32 94.00 60.84 93.55 60.50 93.00 Z M 42.00 74.40 C 47.36 71.48 49.23 68.42 48.35 64.01 C 47.97 62.09 48.16 61.00 48.88 61.00 C 49.56 61.00 50.00 59.02 50.00 55.92 C 50.00 50.44 52.04 49.27 52.59 54.43 C 53.02 58.51 56.66 61.84 62.55 63.56 C 66.84 64.80 68.33 64.84 71.59 63.78 C 76.79 62.08 77.21 58.96 73.02 53.18 C 67.64 45.76 60.01 42.87 55.82 46.66 C 54.38 47.97 53.50 48.09 51.65 47.25 C 49.56 46.30 49.24 45.30 48.66 37.84 C 47.69 25.42 47.82 20.77 49.09 21.56 C 49.73 21.95 49.93 23.56 49.58 25.45 C 48.71 30.07 52.20 34.84 58.93 38.25 C 64.78 41.21 70.02 41.72 73.99 39.71 C 77.41 37.98 77.56 35.89 74.71 29.75 C 69.76 19.06 61.23 13.66 55.37 17.49 C 53.30 18.85 52.25 18.98 50.38 18.13 C 48.23 17.15 48.00 16.42 48.00 10.52 C 48.00 5.51 47.67 4.00 46.56 4.00 C 44.54 4.00 43.63 11.22 44.23 22.58 C 44.66 30.82 44.49 32.15 42.86 33.63 C 41.32 35.02 40.54 35.11 38.45 34.16 C 32.57 31.48 26.64 33.83 20.73 41.18 C 17.59 45.08 16.10 52.29 17.88 54.94 C 20.36 58.62 36.45 55.27 41.47 50.03 C 43.93 47.46 44.21 46.55 43.76 42.54 C 43.47 40.02 43.61 37.74 44.06 37.46 C 45.46 36.60 47.19 55.07 45.90 57.15 C 45.42 57.94 43.56 58.32 41.13 58.15 C 36.42 57.80 32.90 59.81 30.02 64.47 C 28.08 67.60 27.25 74.92 28.67 76.33 C 30.24 77.91 37.49 76.86 42.00 74.40 Z M 31.68 73.35 C 29.54 71.21 36.45 61.00 40.04 61.00 C 42.04 61.00 45.00 64.09 45.00 66.17 C 45.00 68.19 42.25 70.58 37.75 72.46 C 33.68 74.16 32.65 74.31 31.68 73.35 Z M 64.00 60.35 C 58.10 58.40 55.42 55.41 56.51 51.96 C 57.54 48.72 60.54 47.71 63.94 49.47 C 66.95 51.03 72.00 56.83 72.00 58.74 C 72.00 60.64 67.59 61.53 64.00 60.35 Z M 95.68 55.81 C 95.36 55.01 95.13 55.25 95.08 56.42 C 95.04 57.47 95.27 58.06 95.60 57.73 C 95.94 57.40 95.97 56.53 95.68 55.81 Z M 21.27 48.91 C 21.74 45.39 22.67 43.77 25.92 40.87 C 28.16 38.87 30.86 37.01 31.91 36.73 C 34.69 36.01 38.29 38.12 39.86 41.39 C 41.07 43.92 41.00 44.52 39.26 46.86 C 37.17 49.69 32.22 51.73 25.11 52.71 L 20.69 53.31 L 21.27 48.91 Z M 95.68 48.81 C 95.36 48.01 95.13 48.25 95.08 49.42 C 95.04 50.47 95.27 51.06 95.60 50.73 C 95.94 50.40 95.97 49.53 95.68 48.81 Z M 95.66 41.75 C 95.38 41.06 95.16 41.62 95.16 43.00 C 95.16 44.38 95.38 44.94 95.66 44.25 C 95.94 43.56 95.94 42.44 95.66 41.75 Z M 95.66 35.75 C 95.38 35.06 95.16 35.62 95.16 37.00 C 95.16 38.38 95.38 38.94 95.66 38.25 C 95.94 37.56 95.94 36.44 95.66 35.75 Z M 58.73 34.04 C 53.06 30.45 51.81 27.07 54.72 23.16 C 57.55 19.35 61.51 19.17 65.20 22.67 C 69.17 26.44 73.34 33.66 72.63 35.51 C 71.61 38.19 64.00 37.39 58.73 34.04 Z M 95.69 28.27 C 95.44 27.30 95.22 27.85 95.19 29.50 C 95.17 31.15 95.38 31.95 95.66 31.27 C 95.93 30.59 95.95 29.24 95.69 28.27 Z M 95.66 21.75 C 95.38 21.06 95.16 21.62 95.16 23.00 C 95.16 24.38 95.38 24.94 95.66 24.25 C 95.94 23.56 95.94 22.44 95.66 21.75 Z M 34.15 21.32 C 40.26 18.88 43.10 14.78 42.77 8.90 C 42.51 4.10 42.44 4.01 39.23 4.00 C 35.99 4.00 35.97 4.03 37.55 6.44 C 40.18 10.45 39.09 14.12 34.50 16.69 C 27.00 20.90 15.00 21.02 15.00 16.89 C 15.00 13.80 16.80 10.82 20.83 7.26 L 24.50 4.03 L 21.34 4.01 C 17.66 4.00 13.87 7.84 12.01 13.46 C 10.21 18.91 10.99 21.32 15.00 22.75 C 19.19 24.24 28.61 23.54 34.15 21.32 Z M 95.73 7.75 C 95.52 5.41 95.35 7.32 95.35 12.00 C 95.35 16.68 95.52 18.59 95.73 16.25 C 95.94 13.91 95.94 10.09 95.73 7.75 Z M 79.94 9.55 C 82.62 7.13 82.65 4.00 80.00 4.00 C 78.90 4.00 78.00 4.64 78.00 5.43 C 78.00 8.74 67.07 9.18 60.76 6.13 C 58.34 4.96 55.50 4.02 54.43 4.04 C 52.86 4.07 53.14 4.63 56.00 7.08 C 60.52 10.94 64.07 11.98 71.69 11.67 C 76.06 11.49 78.49 10.86 79.94 9.55 Z" fill="none" stroke="rgba(255,255,255,0.92)" stroke-width="1.2" stroke-linejoin="round" fill-rule="evenodd"/>
</svg>
