<svg xmlns="http://www.w3.org/2000/svg" viewBox="0 0 400 118" width="400" height="118">
  <path d="M 0.00 59.00 L 0.00 0.00 L 200.00 0.00 L 400.00 0.00 L 400.00 59.00 L 400.00 118.00 L 200.00 118.00 L 0.00 118.00 L 0.00 59.00 Z M 8.53 112.95 C 8.93 112.31 9.63 112.25 10.34 112.81 C 11.93 114.05 57.11 113.29 58.39 112.01 C 59.74 110.66 61.29 110.72 60.45 112.08 C 59.68 113.33 77.19 112.76 80.41 111.44 C 81.57 110.97 82.09 111.04 81.74 111.62 C 81.37 112.22 96.25 112.66 121.82 112.80 C 254.90 113.53 393.86 113.04 394.60 111.84 C 394.92 111.31 395.31 87.32 395.44 58.52 L 395.70 6.15 L 388.60 5.78 C 384.69 5.58 317.60 5.50 239.50 5.62 C 161.40 5.73 82.65 5.84 64.50 5.87 C 46.35 5.90 26.10 5.89 19.50 5.86 C 12.90 5.83 6.91 5.85 6.18 5.90 C 4.88 6.00 4.87 8.88 5.95 109.75 C 6.00 113.80 7.13 115.21 8.53 112.95 Z M 21.00 110.44 C 21.00 109.58 21.46 109.16 22.02 109.51 C 22.58 109.86 22.77 110.56 22.46 111.07 C 21.60 112.46 21.00 112.20 21.00 110.44 Z M 32.81 111.32 C 33.53 111.03 34.40 111.06 34.73 111.40 C 35.06 111.73 34.47 111.96 33.42 111.92 C 32.25 111.87 32.01 111.64 32.81 111.32 Z M 38.00 111.00 C 38.00 110.45 39.46 110.03 41.25 110.07 C 43.97 110.13 44.18 110.28 42.50 111.00 C 39.74 112.19 38.00 112.19 38.00 111.00 Z M 53.00 111.00 C 53.00 110.45 53.48 110.00 54.06 110.00 C 54.64 110.00 54.84 110.45 54.50 111.00 C 54.16 111.55 53.68 112.00 53.44 112.00 C 53.20 112.00 53.00 111.55 53.00 111.00 Z M 66.50 111.00 C 66.84 110.45 67.32 110.00 67.56 110.00 C 67.80 110.00 68.00 110.45 68.00 111.00 C 68.00 111.55 67.52 112.00 66.94 112.00 C 66.36 112.00 66.16 111.55 66.50 111.00 Z M 116.99 110.51 C 117.67 109.69 118.67 109.30 119.22 109.64 C 119.82 110.01 119.68 110.59 118.86 111.11 C 116.70 112.48 115.64 112.14 116.99 110.51 Z M 138.00 111.00 C 138.00 110.45 138.48 110.00 139.06 110.00 C 139.64 110.00 139.84 110.45 139.50 111.00 C 139.16 111.55 138.68 112.00 138.44 112.00 C 138.20 112.00 138.00 111.55 138.00 111.00 Z M 177.00 110.50 C 177.00 109.67 177.40 109.00 177.89 109.00 C 178.38 109.00 179.05 109.67 179.36 110.50 C 179.71 111.41 179.36 112.00 178.47 112.00 C 177.66 112.00 177.00 111.33 177.00 110.50 Z M 189.50 111.00 L 187.50 110.14 L 189.50 110.09 C 190.60 110.06 192.18 110.47 193.00 111.00 C 194.33 111.86 194.33 111.96 193.00 111.91 C 192.18 111.88 190.60 111.47 189.50 111.00 Z M 232.81 111.32 C 233.53 111.03 234.40 111.06 234.73 111.40 C 235.06 111.73 234.47 111.96 233.42 111.92 C 232.25 111.87 232.01 111.64 232.81 111.32 Z M 240.26 110.31 C 241.19 109.38 242.29 108.95 242.70 109.36 C 243.11 109.77 242.78 110.53 241.97 111.04 C 239.54 112.58 238.45 112.12 240.26 110.31 Z M 252.67 111.33 C 252.30 110.97 252.00 110.20 252.00 109.63 C 252.00 109.01 252.47 109.07 253.18 109.78 C 253.83 110.43 254.13 111.20 253.85 111.48 C 253.57 111.77 253.03 111.70 252.67 111.33 Z M 28.81 110.32 C 29.53 110.03 30.40 110.06 30.73 110.40 C 31.06 110.73 30.47 110.96 29.42 110.92 C 28.25 110.87 28.01 110.64 28.81 110.32 Z M 45.00 110.00 C 45.00 109.45 45.48 109.00 46.06 109.00 C 46.64 109.00 46.84 109.45 46.50 110.00 C 46.16 110.55 45.68 111.00 45.44 111.00 C 45.20 111.00 45.00 110.55 45.00 110.00 Z M 123.00 110.17 C 123.00 109.72 124.35 109.54 126.00 109.79 C 127.65 110.03 129.00 110.40 129.00 110.61 C 129.00 110.83 127.65 111.00 126.00 111.00 C 124.35 111.00 123.00 110.63 123.00 110.17 Z M 157.50 110.00 C 157.16 109.45 157.36 109.00 157.94 109.00 C 158.52 109.00 159.00 109.45 159.00 110.00 C 159.00 110.55 158.80 111.00 158.56 111.00 C 158.32 111.00 157.84 110.55 157.50 110.00 Z M 160.00 109.94 C 160.00 109.36 160.45 109.16 161.00 109.50 C 161.55 109.84 162.00 110.32 162.00 110.56 C 162.00 110.80 161.55 111.00 161.00 111.00 C 160.45 111.00 160.00 110.52 160.00 109.94 Z M 166.00 109.88 C 166.00 109.39 166.87 109.00 167.94 109.00 C 169.01 109.00 170.13 109.39 170.42 109.88 C 170.72 110.36 169.85 110.75 168.48 110.75 C 167.12 110.75 166.00 110.36 166.00 109.88 Z M 174.00 109.94 C 174.00 109.36 174.45 109.16 175.00 109.50 C 175.55 109.84 176.00 110.32 176.00 110.56 C 176.00 110.80 175.55 111.00 175.00 111.00 C 174.45 111.00 174.00 110.52 174.00 109.94 Z M 181.00 110.00 C 181.00 109.45 181.42 109.00 181.94 109.00 C 182.46 109.00 183.16 109.45 183.50 110.00 C 183.84 110.55 183.42 111.00 182.56 111.00 C 181.70 111.00 181.00 110.55 181.00 110.00 Z M 198.00 110.00 C 198.00 109.45 198.48 109.00 199.06 109.00 C 199.64 109.00 199.84 109.45 199.50 110.00 C 199.16 110.55 198.68 111.00 198.44 111.00 C 198.20 111.00 198.00 110.55 198.00 110.00 Z M 229.81 110.32 C 230.53 110.03 231.40 110.06 231.73 110.40 C 232.06 110.73 231.47 110.96 230.42 110.92 C 229.25 110.87 229.01 110.64 229.81 110.32 Z M 236.50 110.00 C 236.16 109.45 236.36 109.00 236.94 109.00 C 237.52 109.00 238.00 109.45 238.00 110.00 C 238.00 110.55 237.80 111.00 237.56 111.00 C 237.32 111.00 236.84 110.55 236.50 110.00 Z M 258.50 110.00 C 258.84 109.45 259.32 109.00 259.56 109.00 C 259.80 109.00 260.00 109.45 260.00 110.00 C 260.00 110.55 259.52 111.00 258.94 111.00 C 258.36 111.00 258.16 110.55 258.50 110.00 Z M 292.50 110.00 C 292.16 109.45 292.33 109.00 292.88 109.00 C 293.43 109.00 294.16 109.45 294.50 110.00 C 294.84 110.55 294.67 111.00 294.12 111.00 C 293.57 111.00 292.84 110.55 292.50 110.00 Z M 298.51 109.98 C 298.86 109.42 299.56 109.23 300.07 109.54 C 301.46 110.40 301.20 111.00 299.44 111.00 C 298.58 111.00 298.16 110.54 298.51 109.98 Z M 351.50 110.00 C 351.16 109.45 351.36 109.00 351.94 109.00 C 352.52 109.00 353.00 109.45 353.00 110.00 C 353.00 110.55 352.80 111.00 352.56 111.00 C 352.32 111.00 351.84 110.55 351.50 110.00 Z M 376.50 110.00 C 376.16 109.45 376.33 109.00 376.88 109.00 C 377.43 109.00 378.16 109.45 378.50 110.00 C 378.84 110.55 378.67 111.00 378.12 111.00 C 377.57 111.00 376.84 110.55 376.50 110.00 Z M 391.50 110.00 C 391.84 109.45 392.32 109.00 392.56 109.00 C 392.80 109.00 393.00 109.45 393.00 110.00 C 393.00 110.55 392.52 111.00 391.94 111.00 C 391.36 111.00 391.16 110.55 391.50 110.00 Z M 93.81 109.32 C 94.53 109.03 95.40 109.06 95.73 109.40 C 96.06 109.73 95.47 109.96 94.42 109.92 C 93.25 109.87 93.01 109.64 93.81 109.32 Z M 153.24 108.83 C 153.82 107.31 152.09 107.16 133.44 107.12 C 122.20 107.10 111.93 107.06 110.61 107.04 C 108.24 107.00 108.22 106.93 108.14 95.24 C 108.05 84.18 108.20 83.29 110.49 80.49 L 112.93 77.50 L 112.96 81.33 C 113.01 85.77 115.30 86.04 115.82 81.67 C 116.21 78.34 116.53 78.34 119.48 81.75 C 121.27 83.82 122.15 84.22 123.02 83.36 C 124.31 82.09 122.74 78.00 120.96 78.00 C 120.43 78.00 120.00 77.55 120.00 77.00 C 120.00 74.32 123.79 76.54 126.31 80.69 L 129.13 85.32 L 126.40 87.50 C 124.82 88.76 123.98 90.16 124.40 90.83 C 125.46 92.56 127.09 92.26 129.64 89.87 L 131.90 87.75 L 136.41 90.73 C 138.89 92.37 142.95 94.29 145.44 94.98 C 149.65 96.16 149.93 96.44 149.30 98.88 C 147.35 106.50 150.46 108.36 152.64 100.87 L 153.99 96.25 L 159.37 95.80 C 162.40 95.55 167.21 94.16 170.36 92.61 L 175.96 89.87 L 179.33 92.44 C 181.18 93.85 183.21 95.00 183.84 95.00 C 186.04 95.00 184.99 92.05 182.00 89.84 C 179.15 87.73 177.96 85.00 179.90 85.00 C 180.40 85.00 182.00 82.97 183.45 80.50 C 185.97 76.19 186.28 76.00 190.73 76.00 L 195.37 76.00 L 192.58 78.92 C 189.99 81.62 189.77 84.00 192.11 84.00 C 192.65 84.00 194.19 82.76 195.52 81.25 L 197.94 78.50 L 198.08 84.00 C 198.48 99.84 198.52 105.60 198.26 106.51 C 198.08 107.15 190.45 107.42 177.07 107.25 C 158.24 107.01 155.98 107.16 154.39 108.74 C 152.81 110.30 152.68 110.31 153.24 108.83 Z M 357.27 109.31 C 358.24 109.05 359.59 109.07 360.27 109.34 C 360.95 109.62 360.15 109.83 358.50 109.81 C 356.85 109.78 356.30 109.56 357.27 109.31 Z M 366.75 109.34 C 367.44 109.06 368.56 109.06 369.25 109.34 C 369.94 109.62 369.38 109.84 368.00 109.84 C 366.62 109.84 366.06 109.62 366.75 109.34 Z M 11.17 106.10 C 11.50 85.98 10.63 29.03 9.99 27.99 C 9.41 27.04 9.08 28.23 9.02 31.53 C 8.88 38.86 8.74 40.00 7.95 40.00 C 7.56 40.00 7.30 33.40 7.38 25.33 C 7.49 13.84 7.82 10.56 8.90 10.20 C 9.80 9.90 10.01 10.17 9.51 10.98 C 8.41 12.77 8.82 23.90 10.06 25.85 C 10.83 27.06 11.00 25.59 10.70 20.33 C 10.47 16.39 10.55 12.79 10.89 12.33 C 11.23 11.87 31.86 11.50 56.75 11.50 C 101.31 11.50 102.00 11.53 102.08 13.50 C 102.19 16.24 102.19 39.08 102.09 41.25 C 102.02 42.57 101.13 43.00 98.50 43.00 C 94.43 43.00 94.33 42.75 96.99 39.02 C 98.66 36.67 98.76 36.04 97.59 35.07 C 96.49 34.16 95.67 34.61 93.61 37.21 L 91.02 40.50 L 91.01 37.25 C 91.00 34.67 90.59 34.00 89.00 34.00 C 87.50 34.00 87.00 34.67 87.00 36.69 L 87.00 39.37 L 84.15 36.65 C 81.61 34.21 81.17 34.09 80.00 35.50 C 78.89 36.83 79.13 37.52 81.53 40.04 L 84.37 43.00 L 79.44 42.97 C 75.62 42.94 73.85 42.37 71.66 40.44 C 68.92 38.03 68.87 37.84 70.45 35.44 C 71.35 34.07 71.81 32.51 71.48 31.97 C 70.40 30.22 68.34 30.95 67.18 33.50 C 65.98 36.15 65.12 36.37 60.12 35.38 C 57.20 34.79 57.00 34.47 57.00 30.38 C 57.00 26.67 56.70 26.00 55.00 26.00 C 53.29 26.00 53.00 26.67 53.00 30.53 C 53.00 33.97 52.58 35.19 51.25 35.60 C 50.29 35.90 47.92 36.83 46.00 37.68 C 42.57 39.18 42.46 39.15 40.50 36.46 C 35.66 29.83 35.21 29.44 33.88 30.75 C 32.86 31.75 33.23 32.88 35.80 36.52 C 37.56 39.02 39.00 41.38 39.00 41.76 C 39.00 42.15 37.76 44.84 36.25 47.73 C 33.59 52.83 33.36 53.00 29.25 53.00 C 25.67 53.00 25.00 53.31 25.00 55.00 C 25.00 56.67 25.67 57.00 29.00 57.00 C 32.88 57.00 33.00 57.10 33.00 60.39 C 33.00 62.25 33.76 66.13 34.70 69.02 L 36.39 74.28 L 33.70 76.43 C 32.21 77.61 31.00 79.09 31.00 79.73 C 31.00 82.18 33.28 82.10 35.93 79.57 L 38.69 76.93 L 43.80 80.36 C 46.61 82.26 49.46 83.99 50.15 84.22 C 50.98 84.49 50.45 85.85 48.54 88.36 C 46.30 91.29 45.95 92.35 46.91 93.30 C 47.87 94.24 48.76 93.80 51.01 91.30 L 53.88 88.10 L 54.19 91.30 C 54.65 96.06 57.41 95.55 57.82 90.64 L 58.13 86.78 L 60.62 89.11 C 62.62 91.00 63.27 91.18 63.96 90.06 C 64.92 88.51 64.26 86.00 62.89 86.00 C 60.89 86.00 62.20 84.16 65.04 82.98 C 66.71 82.29 69.86 80.44 72.03 78.86 C 75.96 76.01 76.06 76.00 91.05 76.00 C 102.81 76.00 105.96 76.27 105.41 77.25 C 104.85 78.25 104.98 78.25 106.05 77.25 C 108.40 75.07 109.44 75.90 107.30 78.25 C 106.18 79.49 105.01 81.17 104.71 82.00 C 104.40 82.83 104.12 82.01 104.08 80.19 C 104.04 78.37 103.63 77.11 103.18 77.39 C 102.74 77.66 102.53 84.44 102.73 92.45 C 103.07 105.93 102.96 107.00 101.30 106.98 C 100.31 106.98 79.62 107.13 55.32 107.34 C 15.28 107.67 11.15 107.56 11.17 106.10 Z M 105.19 105.50 C 105.22 103.85 105.44 103.30 105.69 104.27 C 105.95 105.24 105.93 106.59 105.66 107.27 C 105.38 107.95 105.17 107.15 105.19 105.50 Z M 203.85 99.61 C 203.64 87.47 203.46 84.79 202.62 81.50 L 201.86 78.50 L 204.02 81.25 C 206.17 84.00 208.40 84.77 209.43 83.12 C 209.73 82.63 209.08 81.10 207.99 79.71 C 206.89 78.32 206.00 76.92 206.00 76.59 C 206.00 76.27 213.09 76.02 221.75 76.04 C 236.88 76.07 237.62 76.17 240.45 78.48 C 243.16 80.70 243.29 81.09 242.07 83.38 C 241.33 84.75 241.05 86.68 241.44 87.68 C 242.10 89.37 242.28 89.34 244.00 87.24 C 245.01 85.99 246.00 84.51 246.19 83.94 C 246.40 83.29 248.14 83.16 250.77 83.58 C 255.00 84.25 255.00 84.26 255.00 88.63 C 255.00 92.33 255.30 93.00 257.00 93.00 C 258.69 93.00 259.00 92.33 259.00 88.74 C 259.00 84.59 259.12 84.43 264.22 82.09 L 269.43 79.70 L 271.47 82.49 C 276.23 89.02 276.81 89.54 278.03 88.35 C 278.91 87.48 278.34 85.94 275.65 81.94 C 272.13 76.72 272.11 76.65 273.91 74.09 C 274.90 72.66 276.16 70.15 276.70 68.50 C 277.61 65.72 277.99 65.52 281.84 65.84 C 285.46 66.13 286.00 65.91 286.00 64.15 C 286.00 62.61 285.24 62.05 282.83 61.81 C 279.81 61.51 279.61 61.22 278.40 55.29 C 277.71 51.87 276.69 48.27 276.13 47.29 C 275.33 45.87 275.76 44.84 278.22 42.29 C 280.85 39.56 281.12 38.85 280.00 37.50 C 278.83 36.09 278.42 36.18 276.04 38.46 C 272.85 41.52 271.86 41.60 269.51 39.01 C 268.52 37.92 266.20 36.48 264.36 35.81 C 262.51 35.14 261.00 34.34 261.00 34.03 C 261.00 33.72 262.10 31.85 263.44 29.87 C 265.32 27.11 265.61 26.01 264.70 25.10 C 263.79 24.19 262.89 24.68 260.79 27.21 L 258.05 30.50 L 258.03 27.25 C 258.01 24.68 257.58 24.00 256.00 24.00 C 254.36 24.00 254.00 24.67 254.00 27.65 C 254.00 31.22 253.95 31.27 252.04 29.53 C 250.13 27.81 247.00 28.00 247.00 29.85 C 247.00 30.35 247.68 31.32 248.50 32.00 C 250.68 33.81 250.36 34.70 247.25 35.45 C 245.74 35.82 242.92 37.38 240.99 38.92 C 238.35 41.02 236.05 41.83 231.74 42.19 C 228.58 42.45 226.00 42.50 226.00 42.29 C 226.00 42.08 227.11 40.72 228.46 39.26 C 230.34 37.23 230.66 36.29 229.80 35.26 C 228.90 34.17 228.18 34.41 225.92 36.57 L 223.15 39.23 L 222.83 36.36 C 222.35 32.21 219.50 32.54 219.51 36.75 C 219.52 40.76 219.04 40.80 216.50 37.00 C 215.40 35.35 214.15 34.00 213.72 34.00 C 212.07 34.00 211.89 37.01 213.41 39.18 C 214.28 40.42 215.00 41.68 215.00 41.98 C 215.00 42.27 212.41 42.51 209.25 42.50 L 203.50 42.50 L 203.28 26.90 L 203.06 11.30 L 213.28 11.24 C 253.38 10.99 275.81 10.89 284.00 10.94 L 293.50 11.00 L 293.68 59.00 L 293.86 107.00 L 276.68 107.04 C 267.23 107.06 247.01 107.22 231.75 107.40 L 204.00 107.72 L 203.85 99.61 Z M 299.00 58.94 L 299.00 11.00 L 303.75 10.95 C 306.36 10.93 315.02 10.95 323.00 11.00 C 330.98 11.05 348.07 11.11 361.00 11.13 C 373.93 11.15 385.76 11.39 387.29 11.67 L 390.09 12.18 L 389.90 59.61 L 389.71 107.05 L 344.35 106.97 L 299.00 106.89 L 299.00 58.94 Z M 105.00 100.44 C 105.00 99.58 105.46 99.16 106.02 99.51 C 106.58 99.86 106.77 100.56 106.46 101.07 C 105.60 102.46 105.00 102.20 105.00 100.44 Z M 200.68 98.62 C 200.31 97.64 200.03 96.09 200.06 95.17 C 200.11 94.06 200.45 94.32 201.09 95.91 C 201.62 97.24 201.90 98.79 201.71 99.36 C 201.52 99.93 201.06 99.60 200.68 98.62 Z M 296.08 98.42 C 296.13 97.25 296.36 97.01 296.68 97.81 C 296.97 98.53 296.94 99.40 296.60 99.73 C 296.27 100.06 296.04 99.47 296.08 98.42 Z M 8.08 96.42 C 8.13 95.25 8.36 95.01 8.68 95.81 C 8.97 96.53 8.94 97.40 8.60 97.73 C 8.27 98.06 8.04 97.47 8.08 96.42 Z M 105.03 96.00 C 105.03 95.17 105.47 93.83 106.00 93.00 C 106.86 91.67 106.97 91.67 106.97 93.00 C 106.97 93.83 106.53 95.17 106.00 96.00 C 105.14 97.33 105.03 97.33 105.03 96.00 Z M 392.08 93.42 C 392.13 92.25 392.36 92.01 392.68 92.81 C 392.97 93.53 392.94 94.40 392.60 94.73 C 392.27 95.06 392.04 94.47 392.08 93.42 Z M 7.68 91.62 C 7.36 90.76 7.49 89.82 7.97 89.52 C 9.25 88.73 10.01 90.36 9.07 91.88 C 8.45 92.89 8.15 92.83 7.68 91.62 Z M 296.16 91.00 C 296.16 89.62 296.38 89.06 296.66 89.75 C 296.94 90.44 296.94 91.56 296.66 92.25 C 296.38 92.94 296.16 92.38 296.16 91.00 Z M 144.16 90.09 C 141.22 89.08 138.10 87.53 137.23 86.66 C 135.78 85.21 135.87 84.89 138.32 82.96 C 139.79 81.80 141.00 80.24 141.00 79.49 C 141.00 76.80 138.79 76.83 135.95 79.54 C 132.54 82.81 131.59 82.33 127.30 75.17 C 124.71 70.85 124.50 69.72 124.50 60.00 C 124.50 49.93 124.64 49.26 127.87 43.50 C 129.73 40.20 131.42 37.31 131.63 37.07 C 131.85 36.84 133.30 37.87 134.86 39.36 C 137.45 41.85 137.81 41.94 139.06 40.42 C 140.25 38.99 140.13 38.52 138.11 36.89 C 135.06 34.42 135.86 32.73 141.30 30.09 C 146.50 27.58 154.25 26.45 159.50 27.43 C 162.85 28.06 163.13 28.36 162.54 30.68 C 160.67 38.14 160.69 39.00 162.67 39.00 C 164.10 39.00 164.89 37.85 165.79 34.50 C 166.45 32.02 167.38 30.00 167.86 30.00 C 169.72 30.00 176.66 36.39 179.61 40.83 C 183.98 47.37 185.40 52.36 185.30 60.81 C 185.23 66.85 184.68 69.21 182.13 74.38 C 180.44 77.83 178.18 81.44 177.11 82.40 C 175.27 84.07 175.03 84.07 172.53 82.43 C 170.46 81.07 169.64 80.96 168.70 81.92 C 167.76 82.87 167.99 83.54 169.73 84.97 C 172.41 87.16 171.53 88.20 165.04 90.49 C 159.06 92.60 156.00 92.47 156.00 90.11 C 156.00 89.07 155.25 87.93 154.33 87.57 C 152.64 86.92 151.04 88.46 151.02 90.75 C 151.00 92.35 150.58 92.31 144.16 90.09 Z M 105.33 88.78 C 105.54 87.28 105.33 86.30 104.86 86.59 C 104.38 86.88 104.00 86.67 104.00 86.12 C 104.00 85.57 104.45 84.84 105.01 84.50 C 106.57 83.53 107.19 86.36 106.01 89.07 L 104.96 91.50 L 105.33 88.78 Z M 200.75 90.43 C 200.34 90.01 200.00 88.53 200.00 87.13 C 200.00 85.31 200.31 84.91 201.08 85.68 C 201.68 86.28 202.02 87.76 201.83 88.98 C 201.65 90.20 201.16 90.85 200.75 90.43 Z M 392.16 89.00 C 392.16 87.62 392.38 87.06 392.66 87.75 C 392.94 88.44 392.94 89.56 392.66 90.25 C 392.38 90.94 392.16 90.38 392.16 89.00 Z M 8.08 85.42 C 8.13 84.25 8.36 84.01 8.68 84.81 C 8.97 85.53 8.94 86.40 8.60 86.73 C 8.27 87.06 8.04 86.47 8.08 85.42 Z M 296.08 85.42 C 296.13 84.25 296.36 84.01 296.68 84.81 C 296.97 85.53 296.94 86.40 296.60 86.73 C 296.27 87.06 296.04 86.47 296.08 85.42 Z M 50.62 79.53 C 46.05 77.90 40.70 72.99 38.54 68.44 C 36.50 64.15 36.48 58.00 38.50 58.00 C 40.19 58.00 40.58 54.36 38.94 53.81 C 37.12 53.21 39.71 48.09 42.48 46.83 C 43.87 46.20 45.00 45.09 45.00 44.36 C 45.00 42.04 49.76 39.83 55.96 39.27 C 61.59 38.76 62.00 38.86 62.00 40.80 C 62.00 43.53 63.70 44.50 65.65 42.87 C 66.99 41.77 67.77 42.18 71.03 45.66 C 81.74 57.14 76.96 75.40 62.08 79.86 C 57.27 81.30 55.44 81.25 50.62 79.53 Z M 8.08 78.42 C 8.13 77.25 8.36 77.01 8.68 77.81 C 8.97 78.53 8.94 79.40 8.60 79.73 C 8.27 80.06 8.04 79.47 8.08 78.42 Z M 165.00 77.66 C 165.00 75.15 160.54 66.00 159.32 66.00 C 157.40 66.00 157.70 69.43 160.09 75.00 C 161.52 78.30 162.64 79.69 163.59 79.33 C 164.37 79.03 165.00 78.28 165.00 77.66 Z M 250.00 77.50 C 250.00 75.94 249.43 75.00 248.50 75.00 C 247.68 75.00 247.00 75.45 247.00 76.00 C 247.00 77.88 244.38 77.00 241.74 74.25 C 238.04 70.38 235.74 64.36 235.73 58.48 C 235.69 44.10 249.88 34.16 262.75 39.54 C 267.89 41.69 269.93 43.74 272.63 49.50 C 275.65 55.92 275.81 61.00 273.00 61.00 C 271.67 61.00 271.00 61.67 271.00 63.00 C 271.00 64.11 271.67 65.00 272.50 65.00 C 274.37 65.00 274.37 65.39 272.47 69.05 C 271.64 70.67 270.27 72.00 269.45 72.00 C 268.63 72.00 267.55 73.06 267.06 74.35 C 265.87 77.46 260.28 80.00 254.60 80.00 C 250.36 80.00 250.00 79.80 250.00 77.50 Z M 392.00 79.00 C 390.72 78.17 390.75 78.03 392.25 78.02 C 393.21 78.01 394.00 78.45 394.00 79.00 C 394.00 80.22 393.89 80.22 392.00 79.00 Z M 150.37 74.08 C 152.06 70.54 151.99 67.99 150.19 68.01 C 149.81 68.01 148.44 69.87 147.15 72.13 C 145.24 75.47 145.05 76.42 146.15 77.11 C 148.19 78.40 148.35 78.28 150.37 74.08 Z M 57.32 72.05 C 58.17 67.72 57.20 65.14 55.17 66.39 C 53.90 67.18 52.62 74.58 53.51 76.02 C 54.79 78.08 56.47 76.33 57.32 72.05 Z M 263.45 75.08 C 263.76 74.58 263.52 71.88 262.92 69.08 C 262.11 65.30 261.38 64.00 260.07 64.00 C 258.51 64.00 258.39 64.59 259.09 69.00 C 259.52 71.75 260.16 74.45 260.50 75.00 C 261.27 76.25 262.70 76.29 263.45 75.08 Z M 392.29 71.50 C 392.29 68.75 392.49 67.74 392.72 69.26 C 392.95 70.78 392.94 73.03 392.70 74.26 C 392.47 75.49 392.28 74.25 392.29 71.50 Z M 8.08 73.42 C 8.13 72.25 8.36 72.01 8.68 72.81 C 8.97 73.53 8.94 74.40 8.60 74.73 C 8.27 75.06 8.04 74.47 8.08 73.42 Z M 295.00 74.00 C 295.00 73.45 295.45 73.00 296.00 73.00 C 296.55 73.00 297.00 73.45 297.00 74.00 C 297.00 74.55 296.55 75.00 296.00 75.00 C 295.45 75.00 295.00 74.55 295.00 74.00 Z M 78.70 71.37 C 78.35 71.02 78.45 70.01 78.92 69.12 C 81.27 64.64 81.05 55.50 78.43 48.67 C 77.84 47.14 79.65 47.00 99.81 47.00 L 121.84 47.00 L 120.80 50.75 C 120.21 52.86 120.00 58.33 120.31 63.25 L 120.87 72.00 L 100.10 72.00 C 88.68 72.00 79.05 71.72 78.70 71.37 Z M 188.71 71.38 C 188.51 71.18 188.64 68.78 189.00 66.03 C 189.64 61.03 188.82 51.01 187.51 47.79 C 186.86 46.19 188.48 46.09 210.45 46.29 L 234.09 46.50 L 233.30 49.00 C 232.25 52.35 232.30 65.80 233.38 69.31 L 234.25 72.12 L 211.66 71.93 C 199.23 71.82 188.90 71.57 188.71 71.38 Z M 254.00 65.34 C 254.00 62.93 251.35 62.78 247.10 64.95 C 243.35 66.86 242.09 68.76 243.58 70.25 C 244.58 71.24 254.00 66.80 254.00 65.34 Z M 101.50 67.53 C 101.50 66.25 100.18 65.32 97.00 64.38 C 91.18 62.63 91.00 62.65 91.00 64.92 C 91.00 66.27 92.25 67.27 95.25 68.33 C 100.28 70.11 101.50 69.95 101.50 67.53 Z M 296.64 67.50 C 296.95 66.67 297.39 66.00 297.61 66.00 C 297.82 66.00 298.00 66.67 298.00 67.50 C 298.00 68.33 297.56 69.00 297.03 69.00 C 296.50 69.00 296.32 68.33 296.64 67.50 Z M 47.32 64.09 C 50.71 61.99 50.98 61.55 49.65 60.23 C 48.33 58.91 47.76 58.99 44.58 60.95 C 41.16 63.06 40.20 64.86 41.69 66.35 C 42.48 67.14 42.29 67.22 47.32 64.09 Z M 75.00 63.94 C 75.00 62.42 74.30 62.00 71.75 61.99 C 69.96 61.98 67.49 61.70 66.26 61.37 C 64.71 60.96 63.83 61.28 63.39 62.43 C 62.53 64.68 63.04 65.02 68.65 65.89 C 74.30 66.77 75.00 66.56 75.00 63.94 Z M 207.00 65.00 C 207.00 63.27 206.33 63.00 202.06 63.00 C 199.34 63.00 196.84 63.45 196.50 64.00 C 195.28 65.97 197.20 67.00 202.06 67.00 C 206.33 67.00 207.00 66.73 207.00 65.00 Z M 8.16 64.00 C 8.16 62.62 8.38 62.06 8.66 62.75 C 8.94 63.44 8.94 64.56 8.66 65.25 C 8.38 65.94 8.16 65.38 8.16 64.00 Z M 392.68 64.62 C 392.31 63.64 392.03 62.09 392.06 61.17 C 392.11 60.06 392.45 60.32 393.09 61.91 C 393.62 63.24 393.90 64.79 393.71 65.36 C 393.52 65.93 393.06 65.60 392.68 64.62 Z M 146.76 61.82 C 146.28 60.56 131.02 54.44 129.32 54.82 C 128.87 54.92 128.50 55.71 128.50 56.58 C 128.50 57.65 131.28 59.22 137.00 61.40 C 145.17 64.52 147.84 64.63 146.76 61.82 Z M 225.15 62.00 C 225.23 61.45 225.34 60.49 225.40 59.86 C 225.51 58.62 217.15 55.79 215.82 56.61 C 213.81 57.85 215.34 59.95 219.25 61.34 C 224.50 63.20 224.96 63.25 225.15 62.00 Z M 110.56 60.88 C 113.97 60.02 115.00 59.30 115.00 57.76 C 115.00 56.10 114.52 55.85 112.25 56.30 C 106.70 57.42 104.02 58.88 104.63 60.47 C 105.33 62.30 105.02 62.28 110.56 60.88 Z M 8.08 58.42 C 8.13 57.25 8.36 57.01 8.68 57.81 C 8.97 58.53 8.94 59.40 8.60 59.73 C 8.27 60.06 8.04 59.47 8.08 58.42 Z M 164.00 59.20 C 164.00 58.75 167.15 56.00 171.00 53.07 C 178.37 47.47 178.49 47.32 177.09 45.10 C 176.39 44.01 174.55 45.06 168.60 49.92 C 164.42 53.33 161.00 56.29 161.00 56.48 C 161.00 56.68 161.27 57.55 161.61 58.42 C 162.23 60.05 164.00 60.62 164.00 59.20 Z M 267.44 57.90 C 270.96 55.83 271.95 53.71 269.98 52.49 C 268.66 51.67 262.00 55.78 262.00 57.41 C 262.00 58.55 262.91 60.00 263.61 60.00 C 263.76 60.00 265.49 59.06 267.44 57.90 Z M 249.00 55.97 C 249.00 53.70 248.34 53.38 242.19 52.67 C 238.99 52.30 237.73 52.55 237.31 53.63 C 236.56 55.60 237.02 55.92 242.11 56.92 C 248.69 58.21 249.00 58.17 249.00 55.97 Z M 65.06 53.88 C 70.20 51.67 70.50 51.33 69.16 49.23 C 68.53 48.24 67.23 48.43 63.18 50.11 C 58.38 52.11 57.02 53.68 58.67 55.33 C 59.58 56.25 59.52 56.26 65.06 53.88 Z M 96.00 54.00 C 96.00 52.25 95.33 52.00 90.56 52.00 C 85.74 52.00 85.14 52.23 85.27 54.00 C 85.41 55.73 86.14 56.00 90.71 56.00 C 95.33 56.00 96.00 55.75 96.00 54.00 Z M 53.35 54.25 C 53.60 53.84 53.34 51.11 52.76 48.20 C 51.97 44.19 51.33 42.98 50.11 43.22 C 48.83 43.47 48.57 44.56 48.85 48.52 C 49.05 51.26 49.41 53.84 49.66 54.25 C 50.25 55.22 52.75 55.22 53.35 54.25 Z M 210.73 52.90 C 212.18 52.36 212.76 51.53 212.37 50.53 C 211.68 48.73 210.76 48.66 205.75 50.05 C 202.99 50.82 202.00 51.63 202.00 53.13 C 202.00 54.90 202.42 55.07 205.25 54.45 C 207.04 54.06 209.50 53.37 210.73 52.90 Z M 151.55 46.77 C 150.74 38.62 150.51 38.00 148.31 38.00 C 147.00 38.00 146.84 38.81 147.36 42.64 C 147.71 45.19 148.00 48.79 148.00 50.64 C 148.00 53.40 148.38 54.00 150.13 54.00 C 152.17 54.00 152.23 53.70 151.55 46.77 Z M 258.01 50.75 C 258.02 50.06 258.30 47.81 258.64 45.75 C 259.20 42.40 259.04 42.00 257.13 42.00 C 255.71 42.00 255.00 42.63 255.00 43.88 C 255.00 44.91 254.72 47.16 254.38 48.88 C 253.83 51.59 254.03 52.00 255.88 52.00 C 257.04 52.00 258.00 51.44 258.01 50.75 Z M 7.50 50.00 C 7.84 49.45 8.32 49.00 8.56 49.00 C 8.80 49.00 9.00 49.45 9.00 50.00 C 9.00 50.55 8.52 51.00 7.94 51.00 C 7.36 51.00 7.16 50.55 7.50 50.00 Z M 7.00 44.12 C 7.00 43.57 7.45 42.84 8.00 42.50 C 8.55 42.16 9.00 42.33 9.00 42.88 C 9.00 43.43 8.55 44.16 8.00 44.50 C 7.45 44.84 7.00 44.67 7.00 44.12 Z M 296.08 42.42 C 296.13 41.25 296.36 41.01 296.68 41.81 C 296.97 42.53 296.94 43.40 296.60 43.73 C 296.27 44.06 296.04 43.47 296.08 42.42 Z M 107.97 41.29 C 107.88 36.44 107.85 16.18 107.92 13.86 C 108.00 11.31 108.17 11.24 113.75 11.45 C 116.91 11.56 120.51 11.30 121.75 10.86 C 122.99 10.41 124.00 10.39 124.00 10.81 C 124.00 11.23 140.20 11.48 160.01 11.37 C 194.17 11.17 196.07 11.26 197.01 13.01 C 197.55 14.03 198.00 20.97 198.00 28.43 L 198.00 42.00 L 191.75 42.00 L 185.50 41.99 L 181.40 36.68 C 179.14 33.76 175.25 30.08 172.74 28.49 C 168.50 25.80 168.23 25.38 168.74 22.20 C 169.22 19.25 169.04 18.85 167.40 19.16 C 166.35 19.36 165.36 20.50 165.19 21.70 C 164.89 23.75 164.51 23.84 158.08 23.30 C 149.62 22.59 142.54 24.21 136.48 28.22 L 131.89 31.26 L 129.02 28.52 C 126.37 25.98 124.00 25.78 124.00 28.11 C 124.00 28.65 125.24 30.16 126.74 31.46 L 129.49 33.82 L 126.35 38.16 L 123.21 42.50 L 115.60 42.79 C 108.86 43.05 108.00 42.88 107.97 41.29 Z M 104.28 38.25 C 104.17 35.01 104.26 34.84 104.98 37.00 C 106.09 40.37 106.16 42.00 105.20 42.00 C 104.77 42.00 104.35 40.31 104.28 38.25 Z M 199.45 41.09 C 200.03 40.14 200.24 25.68 199.77 18.25 C 199.62 15.91 199.84 14.00 200.25 14.00 C 201.01 14.00 201.15 15.48 201.26 24.50 C 201.40 36.02 200.95 42.00 199.94 42.00 C 199.36 42.00 199.14 41.59 199.45 41.09 Z M 392.16 37.00 C 392.16 35.62 392.38 35.06 392.66 35.75 C 392.94 36.44 392.94 37.56 392.66 38.25 C 392.38 38.94 392.16 38.38 392.16 37.00 Z M 104.50 33.00 C 104.84 32.45 105.32 32.00 105.56 32.00 C 105.80 32.00 106.00 32.45 106.00 33.00 C 106.00 33.55 105.52 34.00 104.94 34.00 C 104.36 34.00 104.16 33.55 104.50 33.00 Z M 295.00 29.94 C 295.00 28.81 295.43 28.15 295.96 28.47 C 296.48 28.80 296.66 29.72 296.35 30.53 C 295.56 32.60 295.00 32.36 295.00 29.94 Z M 104.02 29.81 C 104.01 28.88 104.45 27.84 105.00 27.50 C 106.27 26.72 106.27 28.04 105.00 30.00 C 104.16 31.29 104.03 31.27 104.02 29.81 Z M 392.00 27.06 C 392.00 26.54 392.45 25.84 393.00 25.50 C 393.55 25.16 394.00 25.58 394.00 26.44 C 394.00 27.30 393.55 28.00 393.00 28.00 C 392.45 28.00 392.00 27.58 392.00 27.06 Z M 104.03 21.75 C 104.01 19.14 104.34 17.00 104.75 17.00 C 105.88 17.00 106.07 23.05 105.00 24.89 C 104.32 26.06 104.05 25.20 104.03 21.75 Z M 296.08 24.42 C 296.13 23.25 296.36 23.01 296.68 23.81 C 296.97 24.53 296.94 25.40 296.60 25.73 C 296.27 26.06 296.04 25.47 296.08 24.42 Z M 392.07 22.05 C 392.02 19.42 392.28 18.88 393.17 19.77 C 394.03 20.63 394.05 21.53 393.24 23.22 C 392.20 25.36 392.13 25.29 392.07 22.05 Z M 296.08 20.42 C 296.13 19.25 296.36 19.01 296.68 19.81 C 296.97 20.53 296.94 21.40 296.60 21.73 C 296.27 22.06 296.04 21.47 296.08 20.42 Z M 392.73 18.40 C 392.33 17.99 392.00 16.98 392.00 16.13 C 392.00 15.01 392.30 14.90 393.11 15.71 C 393.72 16.32 394.05 17.34 393.84 17.98 C 393.63 18.61 393.13 18.80 392.73 18.40 Z M 295.67 16.33 C 295.30 15.97 295.01 14.95 295.03 14.08 C 295.06 12.78 295.25 12.83 296.12 14.33 C 297.20 16.18 296.89 17.55 295.67 16.33 Z M 104.50 14.00 C 104.84 13.45 105.32 13.00 105.56 13.00 C 105.80 13.00 106.00 13.45 106.00 14.00 C 106.00 14.55 105.52 15.00 104.94 15.00 C 104.36 15.00 104.16 14.55 104.50 14.00 Z M 200.02 10.48 C 200.72 9.64 201.49 9.16 201.74 9.41 C 202.44 10.10 201.03 12.00 199.82 12.00 C 199.16 12.00 199.23 11.43 200.02 10.48 Z M 48.00 9.94 C 48.00 9.36 48.45 9.16 49.00 9.50 C 49.55 9.84 50.00 10.32 50.00 10.56 C 50.00 10.80 49.55 11.00 49.00 11.00 C 48.45 11.00 48.00 10.52 48.00 9.94 Z M 67.50 10.00 C 65.59 9.18 65.60 9.14 67.75 9.07 C 68.99 9.03 70.00 9.45 70.00 10.00 C 70.00 10.55 69.89 10.97 69.75 10.93 C 69.61 10.89 68.60 10.47 67.50 10.00 Z M 91.08 9.42 C 91.13 8.25 91.36 8.01 91.68 8.81 C 91.97 9.53 91.94 10.40 91.60 10.73 C 91.27 11.06 91.04 10.47 91.08 9.42 Z M 294.50 10.00 C 294.16 9.45 294.36 9.00 294.94 9.00 C 295.52 9.00 296.00 9.45 296.00 10.00 C 296.00 10.55 295.80 11.00 295.56 11.00 C 295.32 11.00 294.84 10.55 294.50 10.00 Z M 16.00 9.00 C 16.00 8.45 16.45 8.00 17.00 8.00 C 17.55 8.00 18.00 8.45 18.00 9.00 C 18.00 9.55 17.55 10.00 17.00 10.00 C 16.45 10.00 16.00 9.55 16.00 9.00 Z M 23.00 8.93 C 23.00 8.42 24.43 8.00 26.17 8.00 C 29.78 8.00 29.28 9.19 25.50 9.60 C 24.13 9.74 23.00 9.44 23.00 8.93 Z M 31.00 9.00 C 31.00 8.45 31.70 8.00 32.56 8.00 C 33.42 8.00 33.84 8.45 33.50 9.00 C 33.16 9.55 32.46 10.00 31.94 10.00 C 31.42 10.00 31.00 9.55 31.00 9.00 Z M 38.00 9.00 C 38.00 8.45 38.45 8.00 39.00 8.00 C 39.55 8.00 40.00 8.45 40.00 9.00 C 40.00 9.55 39.55 10.00 39.00 10.00 C 38.45 10.00 38.00 9.55 38.00 9.00 Z M 41.50 9.00 C 41.84 8.45 42.32 8.00 42.56 8.00 C 42.80 8.00 43.00 8.45 43.00 9.00 C 43.00 9.55 42.52 10.00 41.94 10.00 C 41.36 10.00 41.16 9.55 41.50 9.00 Z M 50.00 9.00 C 50.00 8.45 50.48 8.00 51.06 8.00 C 51.64 8.00 51.84 8.45 51.50 9.00 C 51.16 9.55 50.68 10.00 50.44 10.00 C 50.20 10.00 50.00 9.55 50.00 9.00 Z M 70.86 8.89 C 69.94 8.31 70.54 8.03 72.75 8.02 C 74.54 8.01 76.00 8.17 76.00 8.38 C 76.00 9.29 72.10 9.68 70.86 8.89 Z M 83.00 8.97 C 83.00 8.44 83.67 8.00 84.50 8.00 C 85.33 8.00 86.00 8.18 86.00 8.39 C 86.00 8.61 85.33 9.05 84.50 9.36 C 83.67 9.68 83.00 9.50 83.00 8.97 Z M 95.00 9.00 C 95.00 8.45 95.48 8.00 96.06 8.00 C 96.64 8.00 96.84 8.45 96.50 9.00 C 96.16 9.55 95.68 10.00 95.44 10.00 C 95.20 10.00 95.00 9.55 95.00 9.00 Z M 99.50 9.00 C 99.16 8.45 99.36 8.00 99.94 8.00 C 100.52 8.00 101.00 8.45 101.00 9.00 C 101.00 9.55 100.80 10.00 100.56 10.00 C 100.32 10.00 99.84 9.55 99.50 9.00 Z M 108.50 9.00 C 108.16 8.45 108.36 8.00 108.94 8.00 C 109.52 8.00 110.00 8.45 110.00 9.00 C 110.00 9.55 109.80 10.00 109.56 10.00 C 109.32 10.00 108.84 9.55 108.50 9.00 Z M 147.00 8.97 C 147.00 8.44 147.68 8.00 148.50 8.00 C 149.32 8.00 150.00 8.18 150.00 8.39 C 150.00 8.61 149.32 9.05 148.50 9.36 C 147.68 9.68 147.00 9.50 147.00 8.97 Z M 153.81 9.32 C 154.53 9.03 155.40 9.06 155.73 9.40 C 156.06 9.73 155.47 9.96 154.42 9.92 C 153.25 9.87 153.01 9.64 153.81 9.32 Z M 159.54 9.07 C 159.23 8.56 159.42 7.86 159.98 7.51 C 160.54 7.16 161.00 7.58 161.00 8.44 C 161.00 10.20 160.40 10.46 159.54 9.07 Z M 186.50 9.00 C 186.16 8.45 186.36 8.00 186.94 8.00 C 187.52 8.00 188.00 8.45 188.00 9.00 C 188.00 9.55 187.80 10.00 187.56 10.00 C 187.32 10.00 186.84 9.55 186.50 9.00 Z M 205.50 9.00 C 203.73 8.24 203.81 8.13 206.25 8.07 C 207.76 8.03 209.00 8.45 209.00 9.00 C 209.00 10.17 208.23 10.17 205.50 9.00 Z M 211.00 9.00 C 211.00 8.45 211.48 8.00 212.06 8.00 C 212.64 8.00 212.84 8.45 212.50 9.00 C 212.16 9.55 211.68 10.00 211.44 10.00 C 211.20 10.00 211.00 9.55 211.00 9.00 Z M 215.00 8.50 C 215.00 7.67 215.44 7.00 215.97 7.00 C 216.50 7.00 216.68 7.67 216.36 8.50 C 216.05 9.32 215.61 10.00 215.39 10.00 C 215.18 10.00 215.00 9.32 215.00 8.50 Z M 228.00 8.50 C 228.00 7.67 228.44 7.00 228.97 7.00 C 229.50 7.00 229.68 7.67 229.36 8.50 C 229.05 9.32 228.61 10.00 228.39 10.00 C 228.18 10.00 228.00 9.32 228.00 8.50 Z M 231.00 9.00 C 231.00 8.45 231.70 8.00 232.56 8.00 C 233.42 8.00 233.84 8.45 233.50 9.00 C 233.16 9.55 232.46 10.00 231.94 10.00 C 231.42 10.00 231.00 9.55 231.00 9.00 Z M 242.64 8.50 C 242.95 7.68 243.60 7.00 244.08 7.00 C 244.55 7.00 244.68 7.67 244.36 8.50 C 244.05 9.32 243.40 10.00 242.92 10.00 C 242.45 10.00 242.32 9.32 242.64 8.50 Z M 310.50 9.00 C 310.84 8.45 311.54 8.00 312.06 8.00 C 312.58 8.00 313.00 8.45 313.00 9.00 C 313.00 9.55 312.30 10.00 311.44 10.00 C 310.58 10.00 310.16 9.55 310.50 9.00 Z M 316.81 9.32 C 317.53 9.03 318.40 9.06 318.73 9.40 C 319.06 9.73 318.47 9.96 317.42 9.92 C 316.25 9.87 316.01 9.64 316.81 9.32 Z M 360.81 9.32 C 361.53 9.03 362.40 9.06 362.73 9.40 C 363.06 9.73 362.47 9.96 361.42 9.92 C 360.25 9.87 360.01 9.64 360.81 9.32 Z M 367.50 9.00 C 367.84 8.45 368.57 8.00 369.12 8.00 C 369.67 8.00 369.84 8.45 369.50 9.00 C 369.16 9.55 368.43 10.00 367.88 10.00 C 367.33 10.00 367.16 9.55 367.50 9.00 Z M 372.81 9.32 C 373.53 9.03 374.40 9.06 374.73 9.40 C 375.06 9.73 374.47 9.96 373.42 9.92 C 372.25 9.87 372.01 9.64 372.81 9.32 Z M 9.81 8.32 C 10.53 8.03 11.40 8.06 11.73 8.40 C 12.06 8.73 11.47 8.96 10.42 8.92 C 9.25 8.87 9.01 8.64 9.81 8.32 Z M 166.00 8.00 C 166.00 7.45 166.48 7.00 167.06 7.00 C 167.64 7.00 167.84 7.45 167.50 8.00 C 167.16 8.55 166.68 9.00 166.44 9.00 C 166.20 9.00 166.00 8.55 166.00 8.00 Z M 219.00 7.94 C 219.00 7.36 219.45 7.16 220.00 7.50 C 220.55 7.84 221.00 8.32 221.00 8.56 C 221.00 8.80 220.55 9.00 220.00 9.00 C 219.45 9.00 219.00 8.52 219.00 7.94 Z M 223.50 8.00 C 223.16 7.45 223.33 7.00 223.88 7.00 C 224.43 7.00 225.16 7.45 225.50 8.00 C 225.84 8.55 225.67 9.00 225.12 9.00 C 224.57 9.00 223.84 8.55 223.50 8.00 Z M 250.50 8.00 C 250.16 7.45 250.33 7.00 250.88 7.00 C 251.43 7.00 252.16 7.45 252.50 8.00 C 252.84 8.55 252.67 9.00 252.12 9.00 C 251.57 9.00 250.84 8.55 250.50 8.00 Z M 257.00 8.00 C 255.71 7.16 255.73 7.03 257.19 7.02 C 258.12 7.01 259.16 7.45 259.50 8.00 C 260.28 9.27 258.96 9.27 257.00 8.00 Z M 265.81 8.32 C 266.53 8.03 267.40 8.06 267.73 8.40 C 268.06 8.73 267.47 8.96 266.42 8.92 C 265.25 8.87 265.01 8.64 265.81 8.32 Z M 276.00 8.00 C 273.63 7.24 273.67 7.19 276.75 7.10 C 278.54 7.04 280.00 7.45 280.00 8.00 C 280.00 9.13 279.53 9.13 276.00 8.00 Z M 281.58 7.88 C 281.87 7.39 283.24 7.00 284.62 7.00 C 285.99 7.00 286.87 7.39 286.58 7.88 C 286.28 8.36 284.91 8.75 283.54 8.75 C 282.16 8.75 281.28 8.36 281.58 7.88 Z M 288.38 7.81 C 288.11 7.36 290.27 7.04 293.19 7.08 C 298.94 7.16 298.74 7.63 292.69 8.23 C 290.59 8.44 288.65 8.25 288.38 7.81 Z M 342.81 8.32 C 343.53 8.03 344.40 8.06 344.73 8.40 C 345.06 8.73 344.47 8.96 343.42 8.92 C 342.25 8.87 342.01 8.64 342.81 8.32 Z M 268.81 7.32 C 269.53 7.03 270.40 7.06 270.73 7.40 C 271.06 7.73 270.47 7.96 269.42 7.92 C 268.25 7.87 268.01 7.64 268.81 7.32 Z" fill="none" stroke="rgba(255,255,255,0.92)" stroke-width="1.5" stroke-linejoin="round" fill-rule="evenodd"/>
</svg>
