<svg xmlns="http://www.w3.org/2000/svg" viewBox="0 0 100 100" width="100" height="100">
  <path d="M 0.00 50.00 L 0.00 0.00 L 50.00 0.00 L 100.00 0.00 L 100.00 50.00 L 100.00 100.00 L 50.00 100.00 L 0.00 100.00 L 0.00 50.00 Z M 95.82 52.25 C 95.72 21.86 95.35 9.00 94.59 8.98 C 93.99 8.98 94.17 8.49 95.00 7.90 C 96.11 7.11 95.41 6.99 92.25 7.43 C 89.66 7.79 88.00 7.63 88.00 7.01 C 88.00 6.46 89.80 6.00 92.00 6.00 C 94.20 6.00 96.00 5.54 96.00 4.98 C 96.00 4.18 34.13 4.15 6.25 4.94 C 3.02 5.03 3.47 6.98 6.75 7.12 L 9.50 7.24 L 6.50 8.00 C 4.85 8.42 4.17 8.90 5.00 9.06 C 5.83 9.23 26.05 9.39 49.95 9.43 L 93.40 9.50 L 93.64 50.04 L 93.88 90.59 L 84.69 90.69 C 79.64 90.74 59.41 90.83 39.75 90.89 L 4.00 91.00 L 4.00 93.52 L 4.00 96.05 L 49.99 95.77 L 95.97 95.50 L 95.82 52.25 Z M 6.00 93.94 C 6.00 93.36 6.45 93.16 7.00 93.50 C 7.55 93.84 8.00 94.32 8.00 94.56 C 8.00 94.80 7.55 95.00 7.00 95.00 C 6.45 95.00 6.00 94.52 6.00 93.94 Z M 39.50 94.00 C 39.84 93.45 40.88 93.01 41.81 93.02 C 43.27 93.03 43.29 93.16 42.00 94.00 C 40.04 95.27 38.72 95.27 39.50 94.00 Z M 52.47 93.96 C 52.15 93.43 52.81 93.00 53.94 93.00 C 56.36 93.00 56.60 93.56 54.53 94.35 C 53.72 94.66 52.80 94.48 52.47 93.96 Z M 28.75 93.34 C 29.44 93.06 30.56 93.06 31.25 93.34 C 31.94 93.62 31.38 93.84 30.00 93.84 C 28.62 93.84 28.06 93.62 28.75 93.34 Z M 59.02 75.25 C 59.03 71.64 59.24 71.42 64.46 69.40 L 69.88 67.31 L 73.03 71.70 C 75.54 75.19 76.47 75.86 77.56 74.95 C 78.70 74.00 78.33 73.01 75.45 69.23 C 71.98 64.68 71.97 64.66 73.92 62.58 C 74.99 61.44 76.32 59.30 76.88 57.84 C 77.80 55.40 78.23 55.22 82.04 55.73 C 85.73 56.23 86.16 56.08 85.84 54.40 C 85.59 53.09 84.48 52.40 82.24 52.19 C 79.47 51.92 79.00 51.48 78.98 49.19 C 78.97 47.71 78.09 44.59 77.02 42.25 L 75.09 37.99 L 78.05 35.81 C 81.36 33.36 81.72 32.21 79.45 31.34 C 78.57 31.00 76.91 31.68 75.60 32.90 L 73.31 35.06 L 67.41 31.93 C 61.19 28.64 60.87 27.87 64.22 24.28 C 66.19 22.17 66.20 22.01 64.49 21.36 C 63.19 20.86 62.02 21.49 60.35 23.58 L 58.01 26.50 L 58.00 23.18 C 58.00 20.55 57.63 19.92 56.25 20.18 C 55.08 20.41 54.39 21.63 54.18 23.87 L 53.86 27.21 L 51.58 25.07 C 49.66 23.27 49.12 23.15 48.14 24.33 C 47.24 25.42 47.32 26.02 48.48 26.98 C 50.27 28.47 49.57 30.00 47.09 30.00 C 46.11 30.00 43.44 31.35 41.16 33.00 C 37.68 35.52 36.10 35.99 31.26 35.96 L 25.50 35.93 L 28.38 33.57 C 31.15 31.31 31.26 29.00 28.60 29.00 C 27.89 29.00 26.46 29.94 25.41 31.10 L 23.52 33.19 L 22.96 30.85 C 22.20 27.60 19.57 27.86 19.19 31.23 L 18.87 33.96 L 16.59 31.31 C 15.00 29.46 13.77 28.87 12.51 29.36 C 10.81 30.01 10.83 30.19 12.85 32.34 C 14.03 33.60 15.00 34.94 15.00 35.31 C 15.00 35.69 12.53 36.00 9.50 36.00 C 5.28 36.00 4.00 36.35 4.00 37.50 C 4.00 39.13 7.05 39.35 24.84 39.01 L 34.19 38.83 L 33.34 41.17 C 32.30 44.07 32.35 55.72 33.43 58.75 L 34.23 61.00 L 19.12 61.00 L 4.00 61.00 L 4.00 64.85 C 4.00 69.45 6.94 72.98 8.85 70.68 C 9.73 69.62 9.54 68.89 8.00 67.50 C 6.90 66.50 6.00 65.31 6.00 64.85 C 6.00 64.38 13.09 64.02 21.75 64.04 C 36.93 64.07 37.61 64.16 40.48 66.51 C 42.84 68.43 43.20 69.20 42.23 70.17 C 40.73 71.67 40.60 75.00 42.05 75.00 C 42.62 75.00 44.09 73.92 45.30 72.60 C 47.10 70.64 48.19 70.30 51.25 70.71 C 54.85 71.20 55.00 71.37 55.00 75.11 C 55.00 78.33 55.34 79.00 57.00 79.00 C 58.64 79.00 59.00 78.33 59.02 75.25 Z M 50.28 65.95 C 49.85 64.30 49.20 64.02 47.01 64.50 C 40.73 65.88 33.67 54.13 35.96 46.14 C 39.01 35.49 51.20 29.44 62.10 33.16 C 69.22 35.59 74.88 42.45 74.96 48.75 C 74.99 51.35 74.60 52.00 73.00 52.00 C 71.89 52.00 71.00 52.67 71.00 53.50 C 71.00 54.33 71.67 55.00 72.50 55.00 C 73.33 55.00 74.00 55.24 74.00 55.54 C 74.00 56.91 70.63 61.00 69.50 61.00 C 68.80 61.00 67.51 62.10 66.62 63.45 C 64.91 66.06 59.64 67.99 54.16 67.99 C 51.62 68.00 50.68 67.50 50.28 65.95 Z M 64.00 63.44 C 64.00 63.14 63.50 60.89 62.88 58.44 C 61.63 53.45 58.99 52.30 59.01 56.75 C 59.04 61.46 60.12 64.00 62.12 64.00 C 63.15 64.00 64.00 63.75 64.00 63.44 Z M 54.00 55.37 C 54.00 53.15 52.31 52.98 47.61 54.72 C 43.41 56.28 42.08 57.75 43.56 59.22 C 44.52 60.18 54.00 56.68 54.00 55.37 Z M 6.82 54.67 C 7.01 53.68 6.50 53.00 5.57 53.00 C 4.65 53.00 4.00 53.85 4.00 55.08 C 4.00 57.52 6.34 57.18 6.82 54.67 Z M 25.14 49.83 C 24.79 49.47 22.36 48.85 19.75 48.47 C 15.82 47.89 15.00 48.04 15.00 49.33 C 15.00 50.33 16.70 51.37 19.75 52.24 C 23.94 53.44 24.58 53.42 25.14 52.05 C 25.49 51.20 25.49 50.20 25.14 49.83 Z M 67.44 48.90 C 73.17 45.52 71.59 42.80 65.57 45.67 C 62.18 47.29 61.20 48.86 62.67 50.33 C 63.57 51.23 63.42 51.28 67.44 48.90 Z M 49.00 47.56 C 49.00 45.58 48.24 45.26 42.52 44.85 C 38.46 44.57 37.48 44.81 37.21 46.19 C 36.95 47.52 37.79 47.96 41.19 48.26 C 43.56 48.48 46.29 48.73 47.25 48.83 C 48.21 48.92 49.00 48.35 49.00 47.56 Z M 12.21 44.16 C 12.60 43.79 12.58 42.94 12.16 42.27 C 11.08 40.50 4.00 42.58 4.00 44.66 C 4.00 45.92 4.72 46.09 7.75 45.53 C 9.81 45.15 11.82 44.54 12.21 44.16 Z M 58.00 43.12 C 58.00 42.64 58.28 40.84 58.62 39.12 C 59.17 36.41 58.97 36.00 57.12 36.00 C 55.77 36.00 55.00 36.64 54.99 37.75 C 54.98 38.71 54.70 40.51 54.37 41.75 C 53.88 43.56 54.18 44.00 55.88 44.00 C 57.05 44.00 58.00 43.61 58.00 43.12 Z M 10.81 7.32 C 11.53 7.03 12.40 7.06 12.73 7.40 C 13.06 7.73 12.47 7.96 11.42 7.92 C 10.25 7.87 10.01 7.64 10.81 7.32 Z M 15.00 7.00 C 15.00 6.45 15.48 6.00 16.06 6.00 C 16.64 6.00 16.84 6.45 16.50 7.00 C 16.16 7.55 15.68 8.00 15.44 8.00 C 15.20 8.00 15.00 7.55 15.00 7.00 Z M 19.00 7.09 C 19.00 6.60 19.90 6.42 21.00 6.71 C 22.10 7.00 23.00 7.41 23.00 7.62 C 23.00 7.83 22.10 8.00 21.00 8.00 C 19.90 8.00 19.00 7.59 19.00 7.09 Z M 28.00 7.00 C 28.00 6.45 28.48 6.00 29.06 6.00 C 29.64 6.00 29.84 6.45 29.50 7.00 C 29.16 7.55 28.68 8.00 28.44 8.00 C 28.20 8.00 28.00 7.55 28.00 7.00 Z M 31.81 7.32 C 32.53 7.03 33.40 7.06 33.73 7.40 C 34.06 7.73 33.47 7.96 32.42 7.92 C 31.25 7.87 31.01 7.64 31.81 7.32 Z M 42.50 7.00 C 42.84 6.45 43.57 6.00 44.12 6.00 C 44.67 6.00 44.84 6.45 44.50 7.00 C 44.16 7.55 43.43 8.00 42.88 8.00 C 42.33 8.00 42.16 7.55 42.50 7.00 Z M 57.00 7.00 C 55.71 6.16 55.73 6.03 57.19 6.02 C 58.12 6.01 59.16 6.45 59.50 7.00 C 60.28 8.27 58.96 8.27 57.00 7.00 Z M 74.50 6.89 C 71.59 6.45 72.79 6.25 78.92 6.14 C 83.55 6.06 87.04 6.30 86.67 6.66 C 85.80 7.53 79.50 7.65 74.50 6.89 Z M 66.75 6.34 C 67.44 6.06 68.56 6.06 69.25 6.34 C 69.94 6.62 69.38 6.84 68.00 6.84 C 66.62 6.84 66.06 6.62 66.75 6.34 Z" fill="none" stroke="rgba(255,255,255,0.92)" stroke-width="1.2" stroke-linejoin="round" fill-rule="evenodd"/>
</svg>
