<svg xmlns="http://www.w3.org/2000/svg" viewBox="0 0 384 400" width="384" height="400">
  <path d="M 0.00 200.00 L 0.00 0.00 L 153.34 0.00 L 306.68 0.00 L 309.39 4.97 C 312.65 10.96 312.99 11.21 315.45 9.41 C 317.29 8.07 317.30 7.85 315.69 4.47 C 314.76 2.52 314.00 0.72 314.00 0.47 C 314.00 0.21 329.75 0.00 349.00 0.00 L 384.00 0.00 L 384.00 200.00 L 384.00 400.00 L 192.00 400.00 L 0.00 400.00 L 0.00 200.00 Z M 29.75 392.88 C 31.02 393.09 34.66 393.09 38.75 392.90 C 40.25 392.82 41.00 392.16 41.00 390.89 C 41.00 389.85 41.60 389.00 42.33 389.00 C 44.37 389.00 45.10 390.17 43.94 391.57 C 42.49 393.32 44.29 394.21 47.17 393.16 C 48.45 392.69 68.97 392.41 92.76 392.53 C 116.55 392.65 137.48 392.40 139.26 391.97 C 141.04 391.55 141.72 391.16 140.78 391.10 C 139.83 391.05 138.35 389.65 137.50 388.00 L 135.95 385.00 L 141.36 385.00 C 145.92 385.00 146.85 385.31 147.29 387.00 C 147.85 389.15 146.62 390.50 145.00 389.50 C 144.45 389.16 144.00 388.23 144.00 387.44 C 144.00 386.56 143.00 386.00 141.42 386.00 C 139.78 386.00 139.00 386.46 139.27 387.25 C 139.52 387.94 140.45 388.44 141.36 388.36 C 142.48 388.27 143.00 389.01 143.00 390.73 C 143.00 392.84 143.35 393.14 145.25 392.63 C 146.49 392.30 148.09 392.02 148.82 392.01 C 149.68 392.00 149.91 391.31 149.50 390.00 C 148.72 387.54 150.77 387.32 153.56 389.55 C 155.45 391.06 155.44 391.09 153.25 390.48 C 152.01 390.14 151.00 390.30 151.00 390.82 C 151.00 391.35 152.01 391.99 153.25 392.24 C 156.78 392.97 210.66 392.33 211.92 391.55 C 212.54 391.17 214.44 391.16 216.14 391.53 C 220.16 392.41 246.55 392.39 247.99 391.51 C 248.59 391.13 249.71 391.34 250.47 391.97 C 251.36 392.72 253.20 392.85 255.67 392.36 C 257.78 391.94 259.95 391.73 260.50 391.89 C 262.72 392.54 287.67 392.62 290.00 391.99 C 291.48 391.59 292.44 390.64 292.36 389.65 C 292.15 387.14 293.82 387.68 294.18 390.25 C 294.50 392.49 294.61 392.50 313.00 392.60 C 323.18 392.65 332.57 392.30 333.87 391.83 C 335.24 391.33 336.72 391.34 337.37 391.85 C 337.99 392.35 347.27 392.69 358.00 392.63 L 377.50 392.50 L 377.21 335.00 C 377.05 303.38 376.82 259.07 376.71 236.54 L 376.50 195.58 L 373.00 194.82 C 368.62 193.87 201.14 194.52 198.75 195.50 C 196.61 196.37 196.83 200.87 196.63 152.29 C 196.52 125.48 196.13 112.73 195.38 111.98 C 194.59 111.19 194.32 115.74 194.39 128.40 C 194.49 144.69 194.36 146.01 192.55 147.34 C 190.90 148.54 190.77 149.15 191.73 151.14 C 192.86 153.48 192.87 153.48 193.03 150.50 C 193.19 147.72 193.25 147.67 193.86 149.87 C 194.61 152.53 194.09 160.42 193.22 159.56 C 192.92 159.25 192.55 157.99 192.42 156.75 C 191.96 152.64 191.87 152.49 191.00 154.50 C 190.40 155.89 190.12 154.39 190.07 149.63 C 190.01 143.63 190.19 142.91 191.50 144.00 C 192.73 145.02 193.00 144.95 193.00 143.62 C 193.00 142.73 192.37 142.00 191.61 142.00 C 190.08 142.00 188.83 134.22 190.22 133.37 C 190.65 133.10 191.00 134.46 191.00 136.38 C 191.00 138.31 191.40 140.13 191.90 140.44 C 192.39 140.74 192.61 139.10 192.39 136.74 C 191.85 131.12 191.93 126.89 192.59 124.75 C 192.89 123.79 192.68 123.00 192.13 123.00 C 191.58 123.00 190.95 124.24 190.73 125.75 C 190.51 127.26 190.32 125.57 190.31 121.99 C 190.30 118.41 189.97 114.48 189.58 113.25 C 188.70 110.49 189.85 108.16 191.11 110.14 C 191.65 110.99 191.98 109.35 191.98 105.75 C 191.99 102.59 192.45 100.00 193.00 100.00 C 193.55 100.00 194.01 101.01 194.02 102.25 C 194.02 103.49 194.41 105.11 194.88 105.85 C 195.39 106.64 195.78 102.46 195.85 95.66 C 195.91 89.32 196.02 83.76 196.10 83.32 C 196.78 79.36 195.55 79.65 194.58 83.67 C 193.89 86.51 193.53 90.26 193.79 92.00 C 194.25 95.12 192.44 100.00 190.83 100.00 C 190.37 100.00 190.00 99.10 190.00 98.00 C 190.00 96.90 190.45 96.00 191.00 96.00 C 191.55 96.00 191.99 95.21 191.98 94.25 C 191.97 92.75 191.83 92.72 191.00 94.00 C 190.23 95.19 190.02 94.99 189.97 93.00 C 189.94 91.62 189.70 84.42 189.43 77.00 C 189.07 66.77 189.22 63.94 190.07 65.33 C 190.69 66.34 190.98 67.98 190.72 68.97 C 190.46 69.97 190.63 71.39 191.11 72.14 C 191.75 73.15 191.97 72.97 191.98 71.42 C 192.01 67.85 193.39 67.73 194.67 71.19 C 195.68 73.91 195.81 70.37 195.42 51.52 C 195.13 37.70 194.52 28.13 193.90 27.52 C 193.19 26.82 193.03 29.32 193.40 35.50 C 194.17 48.71 194.33 65.00 193.69 65.64 C 191.96 67.38 191.33 64.01 191.75 55.28 C 192.15 47.17 192.01 45.72 190.90 46.76 C 190.15 47.48 189.64 49.85 189.73 52.26 C 189.86 55.70 189.69 56.15 188.83 54.64 C 187.47 52.23 188.41 46.44 190.52 44.34 C 191.56 43.30 191.92 41.94 191.50 40.60 C 191.13 39.45 190.74 37.82 190.62 36.98 C 190.50 36.15 190.02 34.83 189.54 34.06 C 188.89 33.01 189.09 32.82 190.34 33.30 C 191.72 33.83 192.00 33.26 192.00 29.97 C 192.00 25.71 190.42 24.53 189.71 28.25 C 189.47 29.49 189.21 28.46 189.14 25.96 C 189.02 22.09 189.29 21.40 191.00 21.27 C 192.14 21.19 193.00 21.74 193.00 22.56 C 193.00 23.35 193.43 24.00 193.96 24.00 C 194.50 24.00 194.91 20.70 194.89 16.56 C 194.85 8.07 193.88 6.61 188.83 7.41 C 187.00 7.70 174.47 8.19 161.00 8.51 C 123.44 9.39 111.62 9.98 110.59 11.01 C 110.00 11.60 109.18 11.57 108.41 10.92 C 107.56 10.22 103.29 10.22 94.83 10.93 C 82.01 12.00 68.97 12.69 46.00 13.51 C 38.58 13.77 29.12 14.27 25.00 14.61 C 20.88 14.95 15.56 15.35 13.19 15.51 C 10.82 15.66 8.58 16.08 8.21 16.45 C 7.61 17.05 7.52 32.30 7.86 74.50 C 7.92 82.20 7.96 89.17 7.95 90.00 C 7.93 90.83 8.14 106.35 8.42 124.50 C 8.69 142.65 9.20 179.32 9.55 206.00 C 10.17 254.17 10.39 266.44 11.47 312.50 C 11.78 325.70 12.22 348.43 12.45 363.00 C 12.68 377.57 12.90 390.26 12.94 391.19 C 13.01 393.08 18.77 394.02 25.00 393.16 C 26.93 392.89 29.06 392.77 29.75 392.88 Z M 16.00 390.11 C 16.00 388.72 20.84 387.85 22.78 388.88 C 23.74 389.40 25.82 389.57 27.41 389.26 C 29.43 388.88 30.08 389.05 29.59 389.86 C 28.76 391.21 16.00 391.44 16.00 390.11 Z M 34.81 390.32 C 35.53 390.03 36.40 390.06 36.73 390.40 C 37.06 390.73 36.47 390.96 35.42 390.92 C 34.25 390.87 34.01 390.64 34.81 390.32 Z M 47.75 390.34 C 48.44 390.06 49.56 390.06 50.25 390.34 C 50.94 390.62 50.38 390.84 49.00 390.84 C 47.62 390.84 47.06 390.62 47.75 390.34 Z M 58.50 390.00 C 58.84 389.45 60.02 389.00 61.12 389.00 C 62.22 389.00 62.84 389.45 62.50 390.00 C 62.16 390.55 60.98 391.00 59.88 391.00 C 58.78 391.00 58.16 390.55 58.50 390.00 Z M 66.44 390.09 C 66.75 389.60 67.90 389.42 69.00 389.71 C 71.75 390.43 71.51 391.00 68.44 391.00 C 67.03 391.00 66.13 390.59 66.44 390.09 Z M 78.00 390.00 C 78.00 389.45 78.90 389.00 80.00 389.00 C 81.10 389.00 82.00 389.45 82.00 390.00 C 82.00 390.55 81.10 391.00 80.00 391.00 C 78.90 391.00 78.00 390.55 78.00 390.00 Z M 117.41 389.62 C 116.56 387.42 117.69 386.29 119.22 387.82 C 120.12 388.72 120.12 389.28 119.23 390.17 C 118.34 391.06 117.91 390.93 117.41 389.62 Z M 120.98 388.96 C 120.17 387.44 120.25 387.00 121.34 387.00 C 122.12 387.00 123.27 387.62 123.90 388.38 C 124.79 389.45 124.70 389.90 123.54 390.35 C 122.64 390.69 121.61 390.14 120.98 388.96 Z M 161.47 389.60 C 159.76 388.35 160.23 388.21 165.85 388.26 C 172.04 388.32 172.09 388.34 168.95 389.66 C 164.94 391.35 163.85 391.34 161.47 389.60 Z M 174.30 389.43 C 172.61 388.15 172.61 388.06 174.25 388.03 C 176.27 388.00 176.60 386.41 174.75 385.66 C 174.06 385.38 175.07 385.15 177.00 385.14 C 179.93 385.12 180.23 385.30 178.83 386.26 C 177.32 387.28 177.31 387.50 178.73 388.54 C 180.11 389.55 180.04 389.76 178.19 390.24 C 177.04 390.54 175.28 390.18 174.30 389.43 Z M 249.64 390.31 C 248.51 389.18 248.95 388.00 250.50 388.00 C 251.32 388.00 252.00 388.42 252.00 388.94 C 252.00 390.20 250.44 391.11 249.64 390.31 Z M 329.54 390.07 C 329.23 389.56 329.42 388.86 329.98 388.51 C 330.54 388.16 331.00 388.58 331.00 389.44 C 331.00 391.20 330.40 391.46 329.54 390.07 Z M 341.55 390.09 C 341.23 389.56 341.39 388.87 341.91 388.55 C 342.44 388.23 343.13 388.39 343.45 388.91 C 343.77 389.44 343.61 390.13 343.09 390.45 C 342.56 390.77 341.87 390.61 341.55 390.09 Z M 347.75 389.92 C 345.37 388.53 345.53 387.07 348.00 387.71 C 349.10 388.00 350.00 388.86 350.00 389.62 C 350.00 391.24 350.01 391.24 347.75 389.92 Z M 84.93 389.75 C 84.19 387.28 84.23 385.00 85.01 385.00 C 85.55 385.00 86.00 385.41 86.00 385.92 C 86.00 386.42 86.27 387.55 86.61 388.42 C 86.94 389.29 86.72 390.00 86.11 390.00 C 85.50 390.00 84.97 389.89 84.93 389.75 Z M 105.00 389.00 C 105.00 387.83 105.77 387.83 108.50 389.00 C 110.27 389.76 110.19 389.87 107.75 389.93 C 106.24 389.97 105.00 389.55 105.00 389.00 Z M 126.22 388.85 C 126.74 387.29 128.97 387.02 129.05 388.50 C 129.08 389.05 128.36 389.66 127.44 389.85 C 126.39 390.06 125.94 389.69 126.22 388.85 Z M 133.07 387.86 C 133.97 386.19 134.40 386.02 135.05 387.09 C 135.56 387.91 135.42 388.75 134.70 389.21 C 132.55 390.57 131.91 390.04 133.07 387.86 Z M 184.50 389.00 C 182.90 388.31 183.24 388.13 186.25 388.07 C 188.31 388.03 190.00 388.45 190.00 389.00 C 190.00 390.19 187.28 390.19 184.50 389.00 Z M 199.50 389.00 C 199.84 388.45 200.32 388.00 200.56 388.00 C 200.80 388.00 201.00 388.45 201.00 389.00 C 201.00 389.55 200.52 390.00 199.94 390.00 C 199.36 390.00 199.16 389.55 199.50 389.00 Z M 212.00 389.00 C 212.00 388.45 212.45 388.00 213.00 388.00 C 213.55 388.00 214.00 388.45 214.00 389.00 C 214.00 389.55 213.55 390.00 213.00 390.00 C 212.45 390.00 212.00 389.55 212.00 389.00 Z M 217.31 388.62 C 217.61 387.86 217.34 386.74 216.72 386.12 C 215.89 385.29 216.17 385.00 217.77 385.00 C 219.29 385.00 219.76 385.45 219.36 386.50 C 219.05 387.32 219.28 388.00 219.89 388.00 C 220.50 388.00 221.00 388.45 221.00 389.00 C 221.00 389.55 220.05 390.00 218.89 390.00 C 217.51 390.00 216.97 389.52 217.31 388.62 Z M 240.00 388.44 C 240.00 387.58 240.45 387.16 241.00 387.50 C 241.55 387.84 242.00 388.54 242.00 389.06 C 242.00 389.58 241.55 390.00 241.00 390.00 C 240.45 390.00 240.00 389.30 240.00 388.44 Z M 262.81 389.32 C 263.53 389.03 264.40 389.06 264.73 389.40 C 265.06 389.73 264.47 389.96 263.42 389.92 C 262.25 389.87 262.01 389.64 262.81 389.32 Z M 283.00 388.94 C 283.00 388.36 283.45 388.16 284.00 388.50 C 284.55 388.84 285.00 389.32 285.00 389.56 C 285.00 389.80 284.55 390.00 284.00 390.00 C 283.45 390.00 283.00 389.52 283.00 388.94 Z M 311.15 389.05 C 311.58 387.76 312.95 387.53 313.07 388.73 C 313.12 389.12 312.61 389.63 311.95 389.85 C 311.29 390.07 310.93 389.71 311.15 389.05 Z M 321.16 388.76 C 319.47 387.07 319.74 385.00 321.67 385.00 C 322.58 385.00 323.04 385.30 322.68 385.66 C 322.31 386.02 322.49 386.88 323.06 387.57 C 324.41 389.20 322.68 390.28 321.16 388.76 Z M 334.65 388.17 C 332.61 385.91 332.56 385.00 334.46 385.00 C 335.74 385.00 338.00 387.83 338.00 389.43 C 338.00 390.60 336.25 389.94 334.65 388.17 Z M 355.00 389.00 C 355.00 388.45 355.45 388.00 356.00 388.00 C 356.55 388.00 357.00 388.45 357.00 389.00 C 357.00 389.55 356.55 390.00 356.00 390.00 C 355.45 390.00 355.00 389.55 355.00 389.00 Z M 35.50 388.00 C 35.16 387.45 35.58 387.00 36.44 387.00 C 37.30 387.00 38.00 387.45 38.00 388.00 C 38.00 388.55 37.58 389.00 37.06 389.00 C 36.54 389.00 35.84 388.55 35.50 388.00 Z M 90.00 388.12 C 90.00 387.57 90.45 386.84 91.00 386.50 C 91.55 386.16 92.00 386.33 92.00 386.88 C 92.00 387.43 91.55 388.16 91.00 388.50 C 90.45 388.84 90.00 388.67 90.00 388.12 Z M 93.68 387.60 C 93.06 385.99 93.78 385.00 95.57 385.00 C 96.32 385.00 96.61 385.79 96.29 387.00 C 95.68 389.33 94.45 389.61 93.68 387.60 Z M 112.53 388.04 C 112.11 387.37 112.27 386.33 112.87 385.73 C 114.41 384.19 115.38 385.50 114.23 387.55 C 113.53 388.80 113.08 388.93 112.53 388.04 Z M 156.92 388.75 C 156.06 385.93 156.41 385.00 158.34 385.02 C 159.96 385.03 160.15 385.25 159.12 385.90 C 158.36 386.38 158.05 387.28 158.43 387.89 C 158.81 388.50 158.64 389.00 158.06 389.00 C 157.48 389.00 156.97 388.89 156.92 388.75 Z M 194.25 387.75 C 194.48 387.06 195.51 386.34 196.55 386.13 C 198.18 385.82 198.26 385.99 197.10 387.38 C 195.51 389.30 193.66 389.53 194.25 387.75 Z M 206.00 388.00 C 206.00 387.45 206.45 387.00 207.00 387.00 C 207.55 387.00 208.00 387.45 208.00 388.00 C 208.00 388.55 207.55 389.00 207.00 389.00 C 206.45 389.00 206.00 388.55 206.00 388.00 Z M 224.81 388.32 C 225.53 388.03 226.40 388.06 226.73 388.40 C 227.06 388.73 226.47 388.96 225.42 388.92 C 224.25 388.87 224.01 388.64 224.81 388.32 Z M 230.00 388.03 C 230.00 387.50 230.68 387.32 231.50 387.64 C 232.32 387.95 233.00 388.39 233.00 388.61 C 233.00 388.82 232.32 389.00 231.50 389.00 C 230.68 389.00 230.00 388.56 230.00 388.03 Z M 235.00 388.00 C 235.00 387.45 235.45 387.00 236.00 387.00 C 236.55 387.00 237.00 387.45 237.00 388.00 C 237.00 388.55 236.55 389.00 236.00 389.00 C 235.45 389.00 235.00 388.55 235.00 388.00 Z M 244.64 387.50 C 244.95 386.68 245.39 386.00 245.61 386.00 C 245.82 386.00 246.00 386.68 246.00 387.50 C 246.00 388.32 245.56 389.00 245.03 389.00 C 244.50 389.00 244.32 388.32 244.64 387.50 Z M 278.50 388.00 C 278.84 387.45 279.32 387.00 279.56 387.00 C 279.80 387.00 280.00 387.45 280.00 388.00 C 280.00 388.55 279.52 389.00 278.94 389.00 C 278.36 389.00 278.16 388.55 278.50 388.00 Z M 304.00 388.00 C 304.00 387.45 304.45 387.00 305.00 387.00 C 305.55 387.00 306.00 387.45 306.00 388.00 C 306.00 388.55 305.55 389.00 305.00 389.00 C 304.45 389.00 304.00 388.55 304.00 388.00 Z M 351.00 387.64 C 351.00 386.87 351.99 385.97 353.21 385.66 C 356.35 384.84 356.46 385.47 353.53 387.39 C 351.48 388.73 351.00 388.78 351.00 387.64 Z M 368.75 388.34 C 369.44 388.06 370.56 388.06 371.25 388.34 C 371.94 388.62 371.38 388.84 370.00 388.84 C 368.62 388.84 368.06 388.62 368.75 388.34 Z M 151.00 386.45 L 148.50 384.97 L 151.42 385.23 C 153.03 385.38 154.53 386.06 154.76 386.75 C 155.29 388.38 154.10 388.28 151.00 386.45 Z M 295.62 387.29 C 295.31 386.98 295.29 386.33 295.59 385.86 C 296.29 384.72 299.00 384.75 299.00 385.89 C 299.00 387.00 296.41 388.07 295.62 387.29 Z M 17.16 385.00 C 17.16 383.62 17.38 383.06 17.66 383.75 C 17.94 384.44 17.94 385.56 17.66 386.25 C 17.38 386.94 17.16 386.38 17.16 385.00 Z M 21.50 386.00 C 21.84 385.45 22.32 385.00 22.56 385.00 C 22.80 385.00 23.00 385.45 23.00 386.00 C 23.00 386.55 22.52 387.00 21.94 387.00 C 21.36 387.00 21.16 386.55 21.50 386.00 Z M 41.81 386.32 C 42.53 386.03 43.40 386.06 43.73 386.40 C 44.06 386.73 43.47 386.96 42.42 386.92 C 41.25 386.87 41.01 386.64 41.81 386.32 Z M 68.08 386.64 C 69.21 385.68 75.00 385.16 75.00 386.02 C 75.00 386.56 73.35 387.00 71.33 387.00 C 69.32 387.00 67.85 386.84 68.08 386.64 Z M 103.50 386.00 C 103.84 385.45 105.02 385.00 106.12 385.00 C 107.22 385.00 107.84 385.45 107.50 386.00 C 107.16 386.55 105.98 387.00 104.88 387.00 C 103.78 387.00 103.16 386.55 103.50 386.00 Z M 168.00 385.97 C 168.00 385.44 168.68 385.00 169.50 385.00 C 170.32 385.00 171.00 385.18 171.00 385.39 C 171.00 385.61 170.32 386.05 169.50 386.36 C 168.68 386.68 168.00 386.50 168.00 385.97 Z M 187.00 386.00 C 187.00 385.45 187.45 385.00 188.00 385.00 C 188.55 385.00 189.00 385.45 189.00 386.00 C 189.00 386.55 188.55 387.00 188.00 387.00 C 187.45 387.00 187.00 386.55 187.00 386.00 Z M 269.50 386.09 C 266.62 385.45 266.60 385.40 268.85 384.78 C 271.44 384.07 274.00 384.73 274.00 386.11 C 274.00 387.08 273.91 387.08 269.50 386.09 Z M 278.00 386.00 C 278.00 385.45 278.48 385.00 279.06 385.00 C 279.64 385.00 279.84 385.45 279.50 386.00 C 279.16 386.55 278.68 387.00 278.44 387.00 C 278.20 387.00 278.00 386.55 278.00 386.00 Z M 285.50 386.00 C 285.16 385.45 285.33 385.00 285.88 385.00 C 286.43 385.00 287.16 385.45 287.50 386.00 C 287.84 386.55 287.67 387.00 287.12 387.00 C 286.57 387.00 285.84 386.55 285.50 386.00 Z M 311.00 385.97 C 311.00 385.44 311.68 385.00 312.50 385.00 C 313.32 385.00 314.00 385.18 314.00 385.39 C 314.00 385.61 313.32 386.05 312.50 386.36 C 311.68 386.68 311.00 386.50 311.00 385.97 Z M 316.00 386.00 C 316.00 385.45 316.45 385.00 317.00 385.00 C 317.55 385.00 318.00 385.45 318.00 386.00 C 318.00 386.55 317.55 387.00 317.00 387.00 C 316.45 387.00 316.00 386.55 316.00 386.00 Z M 325.50 386.00 L 323.50 385.14 L 325.50 385.14 C 326.60 385.14 328.40 385.53 329.50 386.00 L 331.50 386.86 L 329.50 386.86 C 328.40 386.86 326.60 386.47 325.50 386.00 Z M 339.50 386.00 C 339.16 385.45 339.56 385.00 340.38 385.00 C 341.21 385.00 342.16 385.45 342.50 386.00 C 342.84 386.55 342.44 387.00 341.62 387.00 C 340.79 387.00 339.84 386.55 339.50 386.00 Z M 360.50 386.00 C 360.16 385.45 360.36 385.00 360.94 385.00 C 361.52 385.00 362.00 385.45 362.00 386.00 C 362.00 386.55 361.80 387.00 361.56 387.00 C 361.32 387.00 360.84 386.55 360.50 386.00 Z M 129.25 385.31 C 130.21 385.06 131.79 385.06 132.75 385.31 C 133.71 385.56 132.93 385.77 131.00 385.77 C 129.07 385.77 128.29 385.56 129.25 385.31 Z M 162.27 385.31 C 163.24 385.05 164.59 385.07 165.27 385.34 C 165.95 385.62 165.15 385.83 163.50 385.81 C 161.85 385.78 161.30 385.56 162.27 385.31 Z M 255.81 385.32 C 256.53 385.03 257.40 385.06 257.73 385.40 C 258.06 385.73 257.47 385.96 256.42 385.92 C 255.25 385.87 255.01 385.64 255.81 385.32 Z M 289.00 385.61 C 289.00 384.66 291.99 384.18 292.53 385.04 C 292.85 385.57 292.19 386.00 291.06 386.00 C 289.93 386.00 289.00 385.82 289.00 385.61 Z M 302.00 385.00 C 302.00 384.45 302.42 384.00 302.94 384.00 C 303.46 384.00 304.16 384.45 304.50 385.00 C 304.84 385.55 304.42 386.00 303.56 386.00 C 302.70 386.00 302.00 385.55 302.00 385.00 Z M 368.00 385.00 C 368.00 384.45 368.45 384.00 369.00 384.00 C 369.55 384.00 370.00 384.45 370.00 385.00 C 370.00 385.55 369.55 386.00 369.00 386.00 C 368.45 386.00 368.00 385.55 368.00 385.00 Z M 192.50 384.00 C 192.84 383.45 193.32 383.00 193.56 383.00 C 193.80 383.00 194.00 383.45 194.00 384.00 C 194.00 384.55 193.52 385.00 192.94 385.00 C 192.36 385.00 192.16 384.55 192.50 384.00 Z M 20.00 382.00 C 20.00 381.45 19.32 381.00 18.50 381.00 C 17.68 381.00 17.00 380.59 17.00 380.09 C 17.00 378.48 20.49 379.63 20.82 381.34 C 21.00 382.26 20.89 383.00 20.57 383.00 C 20.26 383.00 20.00 382.55 20.00 382.00 Z M 22.07 378.85 C 21.39 376.55 20.52 375.08 20.16 375.59 C 19.80 376.09 18.71 377.12 17.75 377.87 C 16.20 379.09 16.00 379.00 16.00 377.12 C 16.00 375.96 16.56 375.00 17.25 375.00 C 18.61 375.00 18.86 360.55 17.58 355.48 C 17.20 353.95 17.40 352.23 18.04 351.45 C 18.66 350.70 18.87 349.59 18.49 348.99 C 18.12 348.38 17.87 342.45 17.93 335.80 C 18.04 325.07 17.88 323.85 16.53 324.98 C 15.27 326.02 15.00 325.98 15.00 324.75 C 15.00 323.92 14.72 321.84 14.38 320.12 C 13.97 318.11 14.15 317.00 14.88 317.00 C 15.49 317.00 16.01 318.01 16.03 319.25 C 16.06 321.10 16.22 321.22 16.98 319.92 C 17.49 319.06 17.65 317.36 17.33 316.15 C 16.85 314.32 16.51 314.16 15.23 315.22 C 13.92 316.31 13.82 316.15 14.49 313.99 C 14.91 312.62 15.65 311.35 16.13 311.17 C 16.61 310.98 16.96 310.08 16.92 309.17 C 16.87 308.13 16.65 307.97 16.34 308.75 C 14.97 312.15 14.43 308.78 14.33 296.01 C 14.27 288.06 14.60 282.26 15.11 282.57 C 15.60 282.87 16.00 282.39 16.00 281.50 C 16.00 280.61 15.60 280.13 15.12 280.42 C 13.77 281.26 13.23 276.40 13.56 266.52 C 13.73 261.29 14.30 257.40 14.93 257.19 C 16.54 256.65 16.22 253.90 14.31 251.79 C 12.88 250.21 12.78 249.16 13.62 245.02 C 14.31 241.66 14.30 240.18 13.59 240.31 C 12.16 240.57 12.88 227.74 14.35 226.67 C 15.20 226.06 15.18 225.72 14.26 225.34 C 13.48 225.03 13.31 224.21 13.80 223.17 C 14.79 221.08 14.65 212.86 13.60 211.16 C 13.17 210.46 13.06 208.88 13.37 207.65 C 13.87 205.66 14.49 205.43 18.72 205.67 C 21.35 205.82 24.74 206.23 26.25 206.59 C 28.73 207.17 29.00 206.97 29.00 204.56 C 29.00 203.09 29.41 202.13 29.91 202.44 C 30.40 202.75 30.56 203.95 30.26 205.11 C 29.78 206.96 30.01 207.13 32.10 206.48 C 33.42 206.07 34.78 205.30 35.12 204.77 C 36.23 203.03 39.40 204.45 40.11 207.01 C 40.56 208.64 40.83 208.89 40.90 207.72 C 40.96 206.74 41.68 205.68 42.50 205.36 C 43.33 205.05 44.00 204.16 44.00 203.39 C 44.00 202.63 44.60 202.00 45.34 202.00 C 46.20 202.00 46.61 203.07 46.50 205.00 C 46.29 208.45 48.47 209.15 49.32 205.90 C 49.62 204.74 50.30 204.07 50.84 204.40 C 51.38 204.73 52.87 204.58 54.16 204.07 C 55.89 203.37 56.04 203.11 54.75 203.06 C 51.43 202.94 53.01 201.40 56.46 201.40 C 59.05 201.40 59.66 201.70 58.91 202.61 C 58.22 203.44 58.28 204.06 59.09 204.55 C 59.78 204.99 61.03 204.30 62.11 202.89 C 63.63 200.92 63.96 200.81 63.98 202.25 C 64.01 204.62 65.68 204.46 67.01 201.97 C 68.20 199.77 70.47 200.32 69.60 202.60 C 69.29 203.42 69.69 204.00 70.56 204.00 C 71.39 204.00 72.32 203.32 72.64 202.50 C 73.40 200.52 75.00 200.58 75.00 202.58 C 75.00 203.45 75.56 203.96 76.25 203.71 C 76.94 203.46 77.39 202.74 77.25 202.12 C 77.11 201.51 77.67 201.00 78.50 201.00 C 79.32 201.00 80.00 201.72 80.00 202.61 C 80.00 203.68 80.54 204.01 81.63 203.59 C 82.52 203.25 83.88 203.49 84.65 204.13 C 86.53 205.69 87.61 204.44 86.02 202.52 C 84.93 201.21 85.20 201.00 87.94 201.00 C 89.80 201.00 90.86 201.41 90.50 202.00 C 90.16 202.55 90.58 203.00 91.44 203.00 C 92.30 203.00 93.00 203.71 93.00 204.58 C 93.00 206.95 95.34 205.71 96.15 202.93 C 97.66 197.68 96.12 212.92 94.44 219.78 C 92.55 227.52 92.79 228.44 97.05 229.49 C 99.55 230.10 99.64 229.93 101.85 220.31 C 103.09 214.91 104.94 207.57 105.97 204.00 C 107.00 200.43 107.88 195.59 107.92 193.27 C 107.95 190.94 108.40 187.11 108.90 184.77 C 109.68 181.16 111.06 171.41 111.56 166.00 C 111.64 165.18 111.77 164.13 111.85 163.68 C 111.93 163.23 113.30 163.79 114.89 164.92 C 122.71 170.49 132.02 172.61 139.73 170.57 C 155.89 166.31 162.26 154.94 160.48 133.55 C 159.50 121.89 159.24 121.63 150.43 123.47 C 129.86 127.78 116.88 132.27 115.63 135.52 C 114.49 138.50 113.26 136.08 113.14 130.59 C 112.92 121.12 108.22 95.37 105.50 88.75 C 104.58 86.50 105.12 86.55 109.43 89.09 C 114.27 91.94 123.77 92.76 127.94 90.68 C 129.68 89.81 131.69 89.33 132.40 89.60 C 134.69 90.48 143.53 82.53 146.03 77.35 C 147.88 73.51 148.44 70.43 148.73 62.50 C 148.93 57.00 148.71 50.48 148.25 48.00 C 147.40 43.53 147.37 43.50 143.55 43.74 C 137.78 44.09 116.31 49.71 110.43 52.40 C 104.84 54.96 100.93 59.37 99.05 65.25 C 98.39 67.31 97.69 69.00 97.50 69.00 C 97.32 69.00 96.19 67.42 94.99 65.49 C 92.29 61.12 86.17 57.52 79.00 56.08 C 63.65 53.01 49.45 51.15 48.52 52.08 C 47.05 53.55 47.26 76.72 48.79 81.76 C 50.62 87.81 55.18 92.51 62.69 96.09 C 69.52 99.35 69.39 99.35 81.30 96.83 C 85.25 95.99 85.89 95.57 84.92 94.41 C 83.99 93.29 84.13 92.98 85.63 92.88 C 86.66 92.82 88.10 92.84 88.83 92.94 C 89.55 93.04 91.72 91.92 93.64 90.46 C 95.56 89.00 97.30 87.96 97.50 88.16 C 97.70 88.37 98.79 91.98 99.92 96.20 C 102.50 105.84 104.73 119.76 105.61 131.75 C 106.35 141.85 105.71 142.95 101.43 138.93 C 100.22 137.80 95.77 136.00 91.54 134.95 C 81.32 132.39 60.76 128.91 60.06 129.61 C 59.75 129.91 59.50 136.54 59.50 144.33 C 59.50 161.42 60.92 165.57 68.70 171.27 C 77.26 177.53 84.43 178.39 95.50 174.48 C 99.35 173.12 102.67 172.01 102.88 172.00 C 103.36 172.00 102.26 180.89 100.89 188.00 C 100.31 191.03 99.66 194.40 99.46 195.50 C 99.11 197.40 98.30 197.50 82.79 197.50 C 73.83 197.50 56.01 197.80 43.20 198.18 L 19.90 198.85 L 18.75 196.18 L 17.61 193.50 L 17.23 196.40 C 16.76 199.88 14.48 202.58 13.44 200.90 C 13.06 200.28 13.28 199.45 13.93 199.04 C 15.67 197.97 15.16 183.73 13.40 184.40 C 12.40 184.78 12.12 183.03 12.16 176.81 C 12.19 172.36 12.56 169.28 12.98 169.97 C 13.40 170.65 14.00 170.81 14.31 170.31 C 14.62 169.81 14.45 168.75 13.95 167.95 C 12.73 166.02 12.75 163.73 13.98 164.49 C 14.57 164.85 14.87 163.49 14.73 161.05 C 14.45 156.20 13.27 155.72 12.75 160.25 C 12.55 162.04 12.34 156.67 12.29 148.32 C 12.24 139.97 11.97 132.76 11.68 132.30 C 11.40 131.83 11.52 128.99 11.96 125.98 L 12.75 120.50 L 12.98 125.00 L 13.22 129.50 L 14.02 125.50 C 14.46 123.30 14.94 121.05 15.08 120.50 C 15.22 119.95 14.95 117.70 14.49 115.50 C 13.70 111.79 13.58 111.68 12.90 114.00 C 12.50 115.38 12.24 110.76 12.34 103.75 C 12.43 96.74 12.24 91.00 11.92 91.00 C 11.61 91.00 11.55 89.60 11.80 87.90 C 12.12 85.70 12.51 85.19 13.11 86.15 C 13.74 87.14 13.97 86.91 13.98 85.31 C 14.00 82.55 12.31 81.38 11.69 83.74 C 11.44 84.71 11.18 82.33 11.12 78.45 C 11.04 74.03 11.47 70.90 12.25 70.07 C 13.25 69.02 13.25 68.66 12.25 68.29 C 10.63 67.70 10.63 64.32 12.25 63.66 C 13.25 63.25 13.25 62.97 12.24 62.26 C 11.36 61.64 11.00 58.34 11.03 51.43 C 11.06 45.97 11.05 39.81 11.02 37.75 C 10.98 35.69 11.41 34.00 11.98 34.00 C 12.56 34.00 13.00 31.43 13.00 28.00 C 13.00 22.96 13.28 22.00 14.75 21.98 C 16.22 21.97 16.26 21.82 15.03 21.04 C 14.22 20.53 13.94 19.75 14.42 19.30 C 14.89 18.86 15.47 19.06 15.72 19.75 C 16.36 21.55 19.67 21.29 20.40 19.39 C 20.90 18.08 21.31 18.01 22.51 19.01 C 23.32 19.68 25.12 20.02 26.49 19.76 C 27.87 19.49 29.00 19.66 29.00 20.14 C 29.00 20.61 29.68 21.00 30.50 21.00 C 31.32 21.00 32.00 20.32 32.00 19.50 C 32.00 18.67 32.89 18.00 34.00 18.00 C 35.11 18.00 36.00 18.67 36.00 19.50 C 36.00 20.32 36.45 21.00 37.00 21.00 C 37.55 21.00 38.00 20.37 38.00 19.60 C 38.00 17.86 44.27 17.61 48.29 19.18 C 50.64 20.10 51.29 19.98 52.43 18.43 C 53.53 16.92 54.06 16.81 55.28 17.81 C 56.49 18.82 56.88 18.74 57.40 17.41 C 57.89 16.11 58.32 16.02 59.46 16.97 C 60.37 17.72 61.48 17.83 62.49 17.26 C 63.37 16.77 66.31 16.66 69.03 17.00 C 71.99 17.38 74.38 17.22 75.01 16.59 C 75.73 15.87 76.71 15.96 78.20 16.89 C 80.05 18.05 80.52 18.01 81.54 16.62 C 83.08 14.51 85.12 14.52 84.31 16.64 C 83.87 17.77 84.11 18.12 85.09 17.76 C 85.87 17.48 86.39 16.74 86.25 16.13 C 86.11 15.49 87.30 15.00 89.00 15.00 C 90.65 15.00 92.00 15.45 92.00 16.00 C 92.00 16.55 92.90 17.00 94.00 17.00 C 95.10 17.00 96.00 16.50 96.00 15.88 C 96.00 15.26 96.88 15.00 98.00 15.29 C 99.10 15.58 100.00 15.40 100.00 14.91 C 100.00 13.10 101.78 14.05 102.51 16.25 C 103.21 18.38 103.28 18.39 103.66 16.50 C 104.01 14.79 104.88 14.50 109.54 14.50 C 112.54 14.50 115.01 14.95 115.02 15.50 C 115.02 16.08 115.34 16.04 115.77 15.40 C 116.17 14.80 118.15 14.05 120.18 13.73 C 123.21 13.25 124.12 13.53 125.38 15.32 C 126.56 17.03 126.91 17.15 126.95 15.88 C 127.01 13.88 135.06 12.47 136.17 14.28 C 136.56 14.91 138.82 15.51 141.19 15.61 C 144.50 15.76 144.92 15.62 143.00 15.04 C 140.78 14.36 140.70 14.19 142.32 13.50 C 143.37 13.06 144.61 13.21 145.27 13.87 C 146.75 15.35 152.00 15.33 152.00 13.85 C 152.00 13.17 152.77 13.39 153.88 14.39 C 155.65 16.00 155.86 15.99 157.49 14.37 C 159.12 12.74 159.28 12.74 160.17 14.34 C 161.06 15.92 161.31 15.90 163.66 14.05 C 165.87 12.32 166.39 12.24 167.63 13.49 C 168.72 14.58 169.71 14.68 171.69 13.93 C 175.41 12.51 180.87 12.47 182.24 13.84 C 183.12 14.72 183.11 15.00 182.20 15.00 C 180.24 15.00 180.84 16.72 183.00 17.29 C 184.74 17.74 185.01 18.70 185.11 24.66 C 185.16 28.42 185.36 42.98 185.53 57.00 C 186.61 142.09 187.04 172.67 187.17 174.00 C 187.25 174.82 187.24 180.00 187.16 185.50 L 187.00 195.50 L 160.75 195.71 C 107.54 196.13 109.00 196.00 109.00 200.48 C 109.00 202.38 109.52 203.00 111.11 203.00 C 112.57 203.00 113.04 202.54 112.64 201.50 C 112.21 200.39 112.77 200.00 114.78 200.02 C 116.69 200.03 117.09 200.29 116.14 200.89 C 115.20 201.49 115.12 201.96 115.89 202.43 C 117.54 203.45 117.23 205.30 115.53 204.65 C 114.72 204.34 113.80 204.52 113.47 205.04 C 113.15 205.57 113.77 206.00 114.86 206.00 C 115.95 206.00 117.55 206.27 118.42 206.61 C 119.55 207.04 120.00 206.62 120.00 205.11 C 120.00 203.69 120.63 203.00 121.94 203.00 C 125.32 203.00 125.18 201.15 121.77 200.72 C 119.97 200.50 121.49 200.25 125.14 200.16 C 130.90 200.02 131.76 200.23 131.64 201.75 C 131.54 203.03 132.12 203.41 133.81 203.18 C 135.09 203.00 137.21 203.56 138.53 204.43 C 141.61 206.45 144.12 206.49 143.36 204.50 C 142.92 203.34 143.59 203.00 146.29 203.00 C 148.47 203.00 150.00 203.56 150.36 204.50 C 150.68 205.33 151.96 205.96 153.22 205.92 C 154.47 205.88 154.94 205.62 154.25 205.34 C 153.56 205.06 153.00 204.20 153.00 203.42 C 153.00 201.37 156.68 201.67 157.23 203.77 C 157.72 205.64 163.00 206.75 163.00 204.99 C 163.00 204.44 162.30 204.00 161.44 204.00 C 160.56 204.00 160.18 203.52 160.56 202.90 C 161.44 201.47 166.83 202.54 169.10 204.59 C 170.06 205.46 172.07 206.01 173.66 205.82 C 176.11 205.54 176.46 205.12 176.18 202.75 C 175.78 199.32 177.30 199.17 178.82 202.50 C 179.49 203.97 180.79 205.00 181.98 205.00 C 184.58 205.00 185.55 204.66 185.28 203.84 C 185.16 203.48 185.63 202.97 186.32 202.71 C 187.30 202.33 187.60 207.45 187.69 226.36 C 187.92 276.97 188.15 287.27 189.09 289.74 C 189.62 291.13 189.80 292.53 189.50 292.84 C 189.19 293.14 185.02 292.37 180.22 291.12 C 167.01 287.66 166.50 287.71 166.50 292.42 L 166.50 296.34 L 172.00 297.53 C 175.03 298.18 180.20 299.50 183.50 300.46 C 190.58 302.52 210.06 306.46 221.16 308.08 C 226.43 308.85 229.00 309.66 229.00 310.56 C 229.00 311.29 228.54 312.17 227.98 312.51 C 227.42 312.86 225.74 315.47 224.25 318.32 C 221.91 322.77 221.53 324.71 221.51 332.00 C 221.50 339.57 221.83 341.09 224.47 345.86 C 228.15 352.51 233.72 357.38 239.48 358.99 C 244.55 360.41 265.39 360.03 266.89 358.49 C 267.50 357.85 266.80 352.47 264.94 343.50 C 261.23 325.58 258.62 317.04 255.99 314.22 C 253.69 311.75 254.19 309.61 256.86 310.46 C 259.97 311.44 279.36 309.05 289.80 306.39 C 295.47 304.95 300.34 304.01 300.63 304.30 C 300.92 304.59 300.47 305.88 299.63 307.16 C 297.29 310.75 296.06 320.64 297.17 327.00 C 298.46 334.40 304.19 342.71 310.11 345.76 C 316.85 349.22 325.98 350.38 335.25 348.95 C 341.62 347.97 343.00 347.43 343.00 345.94 C 343.00 342.86 337.97 319.13 335.84 312.13 C 333.54 304.60 329.49 299.63 323.75 297.30 C 321.69 296.47 320.00 295.41 320.00 294.95 C 320.00 294.49 321.39 293.30 323.10 292.31 C 328.67 289.06 331.47 281.04 336.57 253.78 C 337.57 248.43 338.04 243.70 337.61 243.28 C 337.18 242.85 331.44 242.34 324.84 242.14 C 306.79 241.60 300.59 244.58 294.88 256.50 C 289.87 266.95 291.47 280.42 298.95 290.93 C 300.23 292.72 300.86 294.51 300.37 294.96 C 296.85 298.24 250.00 305.21 250.00 302.46 C 250.00 302.01 250.95 300.62 252.11 299.38 C 254.40 296.95 256.40 289.28 260.10 268.75 C 261.63 260.27 262.07 255.67 261.40 255.00 C 260.86 254.46 256.38 253.72 251.45 253.38 C 234.47 252.18 225.28 256.19 219.62 267.27 C 215.02 276.25 215.05 285.96 219.71 295.79 C 220.56 297.59 221.01 299.32 220.71 299.62 C 220.40 299.93 217.76 299.69 214.83 299.10 C 211.90 298.51 206.99 297.55 203.91 296.97 L 198.32 295.93 L 198.48 287.21 C 198.56 282.42 198.12 276.96 197.49 275.07 C 195.83 270.09 195.30 273.11 196.01 283.50 C 196.34 288.45 196.45 292.84 196.25 293.25 C 196.05 293.66 195.04 294.00 194.00 294.00 C 191.60 294.00 191.05 293.01 192.05 290.50 C 192.74 288.80 192.87 288.76 192.93 290.25 C 192.97 291.21 193.48 292.00 194.07 292.00 C 195.50 292.00 194.22 287.83 192.32 286.33 C 191.22 285.46 191.10 284.68 191.86 283.27 C 192.51 282.05 192.55 279.96 191.96 277.43 C 191.00 273.31 190.79 268.60 191.66 270.76 C 192.57 273.01 194.00 270.96 194.00 267.41 C 194.00 265.25 193.43 263.72 192.50 263.36 C 191.47 262.97 191.00 261.36 191.00 258.29 C 191.00 254.59 191.28 253.89 192.58 254.39 C 193.45 254.73 194.62 255.00 195.17 255.00 C 195.74 255.00 196.09 257.07 195.96 259.75 C 195.60 267.45 195.94 271.16 196.93 270.54 C 198.08 269.83 197.34 208.16 196.17 206.59 C 195.72 205.99 195.38 203.93 195.43 202.00 C 195.49 199.01 195.86 198.47 198.00 198.32 C 199.44 198.21 199.76 198.35 198.75 198.64 C 196.19 199.38 196.46 202.37 199.02 201.70 C 200.51 201.31 200.98 201.61 200.77 202.84 C 200.60 203.91 201.30 204.61 202.75 204.82 C 204.44 205.06 204.84 204.75 204.39 203.57 C 204.06 202.71 204.30 202.00 204.92 202.00 C 205.55 202.00 206.32 202.68 206.64 203.50 C 207.28 205.18 211.00 205.58 211.00 203.96 C 211.00 203.25 211.60 203.25 212.93 203.96 C 215.41 205.29 223.69 205.31 224.50 204.00 C 225.10 203.03 223.23 202.60 219.84 202.93 C 218.92 203.02 217.89 202.62 217.53 202.05 C 217.13 201.41 218.03 201.00 219.82 201.00 C 221.73 201.00 223.31 200.21 224.33 198.75 C 225.68 196.84 226.06 196.72 226.92 197.99 C 227.68 199.13 227.39 199.69 225.71 200.36 C 224.36 200.89 223.98 201.41 224.75 201.70 C 225.44 201.96 226.00 202.77 226.00 203.50 C 226.00 205.10 227.85 205.84 230.25 205.22 C 231.48 204.90 232.00 203.77 232.00 201.38 C 232.00 199.24 232.49 198.00 233.33 198.00 C 234.23 198.00 234.51 198.95 234.21 201.00 C 233.83 203.59 234.10 204.02 236.14 204.12 C 246.98 204.65 264.01 204.79 266.25 204.37 C 268.61 203.92 269.00 203.36 269.00 200.42 C 269.00 198.54 269.45 197.00 270.00 197.00 C 270.55 197.00 271.00 198.59 271.00 200.53 C 271.00 204.71 272.65 205.67 277.14 204.10 C 279.05 203.43 280.73 203.36 281.40 203.91 C 282.00 204.41 284.65 204.57 287.28 204.28 C 291.48 203.80 291.98 203.50 291.42 201.75 C 290.97 200.34 291.18 199.90 292.15 200.24 C 292.89 200.50 293.44 201.45 293.36 202.36 C 293.27 203.47 294.01 204.00 295.68 204.00 L 298.14 204.00 L 296.07 201.10 C 293.59 197.62 293.51 197.00 295.56 197.00 C 296.42 197.00 296.89 197.37 296.61 197.82 C 295.77 199.18 299.61 201.86 301.08 200.95 C 302.85 199.86 304.00 200.69 304.00 203.06 C 304.00 205.13 307.37 205.83 308.50 204.00 C 308.84 203.45 308.64 203.00 308.06 203.00 C 307.48 203.00 307.00 202.28 307.00 201.39 C 307.00 200.34 307.54 199.99 308.58 200.39 C 309.45 200.73 310.51 201.00 310.93 201.00 C 311.35 201.00 312.73 201.90 314.00 203.00 C 316.57 205.23 317.79 205.43 320.00 204.00 C 321.16 203.25 320.81 203.02 318.50 202.98 C 315.94 202.94 315.73 202.76 317.09 201.72 C 317.96 201.05 318.49 199.94 318.25 199.25 C 317.65 197.44 321.67 197.69 322.36 199.50 C 322.68 200.32 323.67 201.00 324.58 201.00 C 325.58 201.00 326.00 201.55 325.67 202.42 C 324.90 204.42 326.48 204.76 334.88 204.37 C 342.49 204.01 346.29 202.49 343.80 200.79 C 342.92 200.20 343.30 200.01 345.00 200.21 C 346.62 200.40 347.46 201.09 347.37 202.17 C 347.22 204.17 351.79 205.61 353.34 204.06 C 354.09 203.31 353.59 203.00 351.70 203.00 C 350.22 203.00 349.00 202.55 349.00 202.00 C 349.00 201.45 350.12 201.00 351.50 201.00 C 352.88 201.00 354.00 200.55 354.00 200.00 C 354.00 199.45 354.45 199.00 355.00 199.00 C 355.55 199.00 356.00 199.48 356.00 200.07 C 356.00 201.99 358.88 204.08 362.08 204.48 C 363.80 204.70 365.41 205.08 365.66 205.32 C 365.90 205.57 366.28 227.53 366.51 254.13 C 366.73 280.73 367.07 320.36 367.26 342.19 C 367.59 380.92 367.55 381.88 365.64 382.38 C 364.56 382.67 362.83 382.45 361.80 381.89 C 360.77 381.34 358.98 381.19 357.82 381.56 C 356.12 382.10 344.99 382.21 326.50 381.88 C 322.70 381.81 315.49 381.88 313.00 382.00 C 311.62 382.07 309.60 382.11 308.50 382.09 C 307.40 382.07 282.75 381.97 253.71 381.87 C 220.40 381.76 200.70 381.33 200.32 380.71 C 199.98 380.17 199.51 367.30 199.27 352.11 C 198.63 311.57 198.42 307.00 197.15 307.00 C 196.69 307.00 196.41 314.23 196.53 323.06 C 196.71 336.14 196.50 339.02 195.40 338.60 C 194.67 338.32 193.82 338.48 193.53 338.95 C 192.69 340.32 194.09 343.06 195.26 342.34 C 195.93 341.92 196.11 342.48 195.75 343.84 C 195.44 345.03 195.60 346.00 196.09 346.00 C 196.59 346.00 197.00 346.70 197.00 347.56 C 197.00 348.42 196.60 348.87 196.10 348.56 C 194.93 347.84 194.00 350.37 193.98 354.33 C 193.98 356.17 193.65 357.00 193.21 356.30 C 192.31 354.89 192.43 337.23 193.37 331.50 C 193.88 328.42 193.80 327.96 193.00 329.50 C 192.22 331.01 192.08 329.95 192.40 325.19 C 192.78 319.48 191.43 305.11 190.41 304.08 C 188.78 302.44 188.78 302.78 189.41 363.07 L 189.61 381.63 L 169.55 381.71 C 158.52 381.75 121.11 382.07 86.41 382.41 L 23.33 383.04 L 22.07 378.85 Z M 195.13 382.10 C 193.54 381.09 191.96 367.71 192.75 361.86 C 193.47 356.48 194.87 357.99 194.25 363.48 C 193.89 366.68 194.10 368.00 194.98 368.00 C 195.81 368.00 196.00 368.85 195.57 370.58 C 195.15 372.26 195.29 372.94 195.96 372.52 C 196.53 372.17 197.00 372.32 197.00 372.86 C 197.00 373.39 196.47 374.01 195.82 374.23 C 195.04 374.49 194.93 375.28 195.49 376.56 C 196.27 378.33 197.14 383.02 196.69 382.98 C 196.59 382.98 195.88 382.58 195.13 382.10 Z M 374.00 382.07 C 374.00 381.56 373.21 380.94 372.25 380.69 C 370.93 380.35 371.06 380.20 372.75 380.12 C 374.13 380.04 375.00 380.58 375.00 381.50 C 375.00 382.32 374.77 383.00 374.50 383.00 C 374.23 383.00 374.00 382.58 374.00 382.07 Z M 370.00 377.11 C 370.00 376.62 370.69 375.95 371.54 375.62 C 372.78 375.15 372.86 374.61 371.96 372.93 C 370.64 370.46 371.08 369.71 373.36 370.58 C 375.54 371.42 375.44 374.29 373.17 376.35 C 371.14 378.18 370.00 378.46 370.00 377.11 Z M 20.69 363.27 C 20.44 362.30 20.22 362.85 20.19 364.50 C 20.17 366.15 20.38 366.95 20.66 366.27 C 20.93 365.59 20.95 364.24 20.69 363.27 Z M 15.00 364.56 C 15.00 363.70 15.45 363.00 16.00 363.00 C 16.55 363.00 17.00 363.42 17.00 363.94 C 17.00 364.46 16.55 365.16 16.00 365.50 C 15.45 365.84 15.00 365.42 15.00 364.56 Z M 195.50 364.00 C 195.84 363.45 196.32 363.00 196.56 363.00 C 196.80 363.00 197.00 363.45 197.00 364.00 C 197.00 364.55 196.52 365.00 195.94 365.00 C 195.36 365.00 195.16 364.55 195.50 364.00 Z M 373.00 364.00 C 373.00 363.45 373.48 363.00 374.06 363.00 C 374.64 363.00 374.84 363.45 374.50 364.00 C 374.16 364.55 373.68 365.00 373.44 365.00 C 373.20 365.00 373.00 364.55 373.00 364.00 Z M 98.98 360.25 C 98.96 356.11 98.00 355.35 92.00 354.72 C 67.68 352.15 52.38 335.83 50.56 310.50 C 49.94 301.81 51.21 294.07 55.53 280.27 C 56.10 278.44 55.70 277.82 53.36 276.86 C 51.79 276.22 49.67 275.79 48.66 275.92 C 47.17 276.11 46.95 275.71 47.51 273.83 C 49.78 266.23 62.77 251.95 71.00 248.00 C 73.47 246.81 76.24 245.45 77.15 244.97 C 79.97 243.49 90.61 241.00 96.40 240.47 C 103.44 239.82 114.63 242.13 120.89 245.54 C 123.55 246.99 128.00 250.15 130.77 252.58 C 137.16 258.17 142.03 269.00 142.78 279.28 C 143.05 283.00 143.55 286.22 143.89 286.43 C 144.24 286.65 146.19 287.13 148.23 287.52 L 151.94 288.21 L 151.36 281.36 C 150.63 272.89 146.84 261.03 142.89 254.85 C 138.51 247.99 131.38 241.80 123.70 238.17 C 114.13 233.65 108.36 232.65 95.52 233.28 C 73.56 234.37 57.58 243.17 45.74 260.69 C 42.44 265.58 36.00 279.61 36.00 281.92 C 36.00 282.76 42.05 286.00 43.62 286.00 C 43.83 286.00 44.01 284.99 44.03 283.75 C 44.06 281.60 46.10 278.00 47.28 278.00 C 47.59 278.00 46.80 281.38 45.53 285.51 C 43.65 291.61 43.18 295.53 43.07 306.26 C 42.94 318.02 43.21 320.33 45.45 326.90 C 50.05 340.34 57.25 349.24 68.73 355.66 C 77.22 360.41 85.13 362.80 92.75 362.91 C 98.93 363.00 99.00 362.97 98.98 360.25 Z M 21.68 359.81 C 21.36 359.01 21.13 359.25 21.08 360.42 C 21.04 361.47 21.27 362.06 21.60 361.73 C 21.94 361.40 21.97 360.53 21.68 359.81 Z M 196.19 359.50 C 196.22 357.85 196.44 357.30 196.69 358.27 C 196.95 359.24 196.93 360.59 196.66 361.27 C 196.38 361.95 196.17 361.15 196.19 359.50 Z M 374.12 361.33 C 374.05 360.69 373.71 359.34 373.35 358.33 C 372.85 356.91 372.98 356.76 373.95 357.64 C 374.63 358.27 374.97 359.62 374.71 360.64 C 374.45 361.66 374.18 361.97 374.12 361.33 Z M 16.00 357.94 C 16.00 357.36 16.45 357.16 17.00 357.50 C 17.55 357.84 18.00 358.32 18.00 358.56 C 18.00 358.80 17.55 359.00 17.00 359.00 C 16.45 359.00 16.00 358.52 16.00 357.94 Z M 21.05 340.09 C 20.75 335.06 20.77 329.95 21.10 328.72 C 21.43 327.49 21.35 325.59 20.92 324.49 C 20.29 322.89 20.10 323.19 19.93 326.00 C 19.48 333.64 19.51 355.56 19.98 356.50 C 20.97 358.50 21.59 348.99 21.05 340.09 Z M 15.08 352.42 C 15.13 351.25 15.36 351.01 15.68 351.81 C 15.97 352.53 15.94 353.40 15.60 353.73 C 15.27 354.06 15.04 353.47 15.08 352.42 Z M 196.08 352.42 C 196.13 351.25 196.36 351.01 196.68 351.81 C 196.97 352.53 196.94 353.40 196.60 353.73 C 196.27 354.06 196.04 353.47 196.08 352.42 Z M 115.98 350.44 C 133.29 346.36 148.74 331.62 155.48 312.76 C 158.62 303.99 161.96 287.63 160.85 286.52 C 160.58 286.24 158.93 285.74 157.19 285.39 C 153.53 284.66 153.83 284.07 151.57 296.50 C 149.03 310.54 140.88 325.50 131.50 333.34 C 120.63 342.42 106.79 345.79 91.88 342.98 C 88.09 342.26 84.83 341.86 84.64 342.09 C 84.44 342.31 84.03 344.13 83.72 346.13 C 83.18 349.69 83.24 349.77 87.33 350.76 C 93.76 352.30 108.78 352.14 115.98 350.44 Z M 241.12 350.62 C 229.75 346.51 225.78 333.03 232.17 320.31 C 234.93 314.81 235.70 314.00 238.15 314.00 C 246.09 314.00 251.81 319.26 253.93 328.50 C 257.73 345.09 258.79 350.52 258.36 351.22 C 257.62 352.43 244.90 351.99 241.12 350.62 Z M 373.50 350.00 C 373.84 349.45 374.32 349.00 374.56 349.00 C 374.80 349.00 375.00 349.45 375.00 350.00 C 375.00 350.55 374.52 351.00 373.94 351.00 C 373.36 351.00 373.16 350.55 373.50 350.00 Z M 15.19 344.50 C 15.22 342.85 15.44 342.30 15.69 343.27 C 15.95 344.24 15.93 345.59 15.66 346.27 C 15.38 346.95 15.17 346.15 15.19 344.50 Z M 77.03 338.92 C 78.29 335.89 78.20 335.72 72.65 330.26 C 68.10 325.78 66.61 323.48 65.12 318.59 C 60.78 304.40 61.53 294.48 67.81 282.75 C 74.02 271.14 80.95 267.56 95.97 268.16 L 103.43 268.47 L 104.37 265.22 C 104.88 263.43 104.97 261.64 104.57 261.23 C 104.16 260.83 99.48 260.50 94.17 260.50 C 79.93 260.50 74.20 262.54 66.88 270.20 C 49.99 287.90 50.36 321.16 67.62 336.94 C 70.67 339.72 73.75 342.00 74.46 342.00 C 75.17 342.00 76.33 340.61 77.03 338.92 Z M 374.19 339.50 C 374.22 337.85 374.44 337.30 374.69 338.27 C 374.95 339.24 374.93 340.59 374.66 341.27 C 374.38 341.95 374.17 341.15 374.19 339.50 Z M 317.53 340.27 C 314.07 339.39 308.93 334.79 306.73 330.58 C 303.80 325.02 303.89 316.18 306.93 309.80 C 309.99 303.38 311.11 302.64 316.49 303.45 C 322.27 304.31 326.31 307.75 327.94 313.19 C 330.08 320.32 333.91 339.34 333.38 340.20 C 332.85 341.05 320.83 341.11 317.53 340.27 Z M 113.99 336.92 C 125.55 332.71 135.17 320.87 138.49 306.77 C 140.19 299.57 140.49 282.41 138.98 278.46 C 138.12 276.18 137.57 275.89 135.23 276.47 C 133.73 276.84 132.19 277.45 131.82 277.82 C 131.44 278.19 131.48 282.32 131.90 287.00 C 132.52 293.76 132.30 297.09 130.85 303.27 C 128.55 313.04 126.30 317.40 120.83 322.70 C 114.52 328.81 109.08 330.95 99.82 330.98 C 93.02 331.00 91.41 330.61 85.63 327.61 C 79.51 324.41 79.03 324.31 77.56 325.93 C 74.18 329.67 75.51 331.91 83.25 335.47 C 87.24 337.31 91.62 339.04 93.00 339.33 C 97.92 340.34 107.68 339.23 113.99 336.92 Z M 370.00 337.00 C 370.00 335.90 370.45 335.00 371.00 335.00 C 371.55 335.00 372.00 335.90 372.00 337.00 C 372.00 338.10 371.55 339.00 371.00 339.00 C 370.45 339.00 370.00 338.10 370.00 337.00 Z M 15.23 332.00 C 15.23 330.07 15.44 329.29 15.69 330.25 C 15.94 331.21 15.94 332.79 15.69 333.75 C 15.44 334.71 15.23 333.93 15.23 332.00 Z M 107.29 326.11 C 107.80 325.60 107.46 323.87 106.51 322.02 C 104.90 318.91 104.70 318.83 99.93 319.41 C 93.00 320.26 86.74 317.21 82.79 311.08 C 80.18 307.03 79.89 305.85 80.31 300.86 C 80.85 294.57 84.71 286.89 88.64 284.32 C 89.96 283.45 93.42 282.70 96.42 282.63 C 103.13 282.47 107.00 285.39 107.00 290.62 C 107.00 294.28 107.20 294.49 111.75 295.46 L 115.00 296.16 L 115.00 291.79 C 115.00 285.94 111.42 279.10 107.13 276.75 C 102.97 274.48 91.81 274.22 86.88 276.28 C 78.64 279.73 72.75 290.76 72.66 302.95 C 72.61 308.30 73.09 310.33 75.27 314.03 C 81.09 323.93 89.62 328.49 100.46 327.52 C 103.73 327.23 106.81 326.59 107.29 326.11 Z M 370.16 324.00 C 370.16 322.62 370.38 322.06 370.66 322.75 C 370.94 323.44 370.94 324.56 370.66 325.25 C 370.38 325.94 370.16 325.38 370.16 324.00 Z M 370.31 315.50 C 370.32 312.20 370.50 310.97 370.72 312.77 C 370.95 314.57 370.94 317.27 370.71 318.77 C 370.49 320.27 370.30 318.80 370.31 315.50 Z M 21.00 314.06 C 21.00 312.44 20.55 310.84 20.00 310.50 C 19.38 310.12 19.09 311.25 19.25 313.44 C 19.55 317.72 21.00 318.23 21.00 314.06 Z M 115.77 314.45 C 121.00 312.27 123.83 309.33 126.79 303.00 C 129.91 296.34 130.32 285.78 127.69 279.69 C 125.80 275.30 118.96 266.11 117.54 266.04 C 117.01 266.02 115.61 267.21 114.42 268.70 L 112.27 271.40 L 116.10 276.25 C 122.54 284.39 123.59 291.92 119.45 300.11 C 116.57 305.79 112.79 308.00 105.98 308.00 C 96.02 308.00 89.88 299.25 96.99 295.20 C 99.39 293.84 99.99 292.82 99.99 290.12 C 100.00 286.77 99.96 286.74 96.25 287.34 C 89.43 288.42 84.94 296.73 87.16 304.15 C 88.45 308.44 93.15 313.28 97.50 314.80 C 102.03 316.38 111.60 316.19 115.77 314.45 Z M 41.36 312.50 C 41.05 311.68 40.61 311.00 40.39 311.00 C 40.18 311.00 40.00 311.68 40.00 312.50 C 40.00 313.32 40.44 314.00 40.97 314.00 C 41.50 314.00 41.68 313.32 41.36 312.50 Z M 41.04 300.00 L 40.20 296.50 L 40.10 300.95 C 40.04 303.72 40.35 305.04 40.93 304.45 C 41.48 303.89 41.52 302.05 41.04 300.00 Z M 370.00 303.00 C 370.00 301.75 371.06 301.75 373.00 303.00 C 374.21 303.78 374.07 303.97 372.25 303.98 C 371.01 303.99 370.00 303.55 370.00 303.00 Z M 16.69 299.27 C 16.44 298.30 16.22 298.85 16.19 300.50 C 16.17 302.15 16.38 302.95 16.66 302.27 C 16.93 301.59 16.95 300.24 16.69 299.27 Z M 370.67 300.33 C 369.45 299.12 369.98 298.05 371.50 298.64 C 372.32 298.95 373.00 299.62 373.00 300.11 C 373.00 301.16 371.62 301.29 370.67 300.33 Z M 229.29 296.81 C 224.26 289.26 222.62 279.15 225.38 272.72 C 228.47 265.53 236.75 260.98 246.69 261.02 C 253.62 261.04 253.66 261.18 250.65 276.66 C 247.29 293.94 244.46 298.22 235.50 299.53 C 231.81 300.07 231.33 299.87 229.29 296.81 Z M 369.08 296.42 C 369.13 295.25 369.36 295.01 369.68 295.81 C 369.97 296.53 369.94 297.40 369.60 297.73 C 369.27 298.06 369.04 297.47 369.08 296.42 Z M 373.00 294.00 C 373.00 292.90 373.41 292.00 373.91 292.00 C 374.40 292.00 374.58 292.90 374.29 294.00 C 374.00 295.10 373.59 296.00 373.38 296.00 C 373.17 296.00 373.00 295.10 373.00 294.00 Z M 370.09 291.50 C 370.12 288.00 370.24 287.79 371.06 289.84 C 371.65 291.31 371.64 292.79 371.03 293.84 C 370.29 295.11 370.07 294.55 370.09 291.50 Z M 306.24 287.75 C 303.81 284.71 300.78 277.36 300.05 272.73 C 297.92 259.28 306.69 250.00 321.52 250.00 C 325.02 250.00 328.15 250.43 328.48 250.96 C 329.21 252.14 324.33 276.25 322.44 280.78 C 321.43 283.21 319.71 284.69 315.79 286.52 C 309.84 289.29 307.70 289.57 306.24 287.75 Z M 372.00 286.06 C 372.00 284.44 371.55 282.84 371.00 282.50 C 370.43 282.15 370.25 280.07 370.58 277.69 C 371.04 274.39 370.92 273.82 370.00 275.00 C 369.08 276.19 368.95 275.66 369.41 272.50 C 369.72 270.30 369.98 267.91 369.99 267.19 C 370.00 266.47 370.44 266.16 370.99 266.49 C 371.54 266.83 371.73 266.46 371.42 265.65 C 371.11 264.86 371.30 263.93 371.83 263.61 C 373.22 262.75 373.98 266.78 373.45 272.18 C 373.20 274.75 373.42 277.98 373.95 279.36 C 375.00 282.13 374.23 289.00 372.87 289.00 C 372.39 289.00 372.00 287.68 372.00 286.06 Z M 19.66 278.75 C 19.38 278.06 19.16 278.62 19.16 280.00 C 19.16 281.38 19.38 281.94 19.66 281.25 C 19.94 280.56 19.94 279.44 19.66 278.75 Z M 16.68 277.81 C 16.36 277.01 16.13 277.25 16.08 278.42 C 16.04 279.47 16.27 280.06 16.60 279.73 C 16.94 279.40 16.97 278.53 16.68 277.81 Z M 16.09 272.92 C 15.19 270.65 15.12 270.71 15.06 273.95 C 15.02 276.32 15.32 277.08 16.03 276.37 C 16.71 275.69 16.73 274.52 16.09 272.92 Z M 132.85 270.90 C 136.51 269.63 136.69 268.65 134.09 264.37 C 131.32 259.84 125.97 254.76 120.73 251.69 C 106.56 243.38 80.73 244.59 67.00 254.19 C 62.18 257.56 58.09 261.83 58.04 263.56 C 58.00 264.60 63.92 269.50 64.41 268.84 C 68.94 262.71 70.68 261.01 74.40 259.16 C 81.00 255.86 93.18 253.74 101.68 254.40 C 111.64 255.18 118.44 258.39 124.30 265.09 C 126.88 268.05 129.00 270.81 129.00 271.23 C 129.00 272.22 129.10 272.21 132.85 270.90 Z M 19.58 265.25 C 18.43 264.09 17.84 265.90 18.62 268.17 L 19.43 270.50 L 19.79 268.16 C 20.00 266.88 19.90 265.57 19.58 265.25 Z M 191.00 266.44 C 191.00 265.58 191.45 265.16 192.00 265.50 C 192.55 265.84 193.00 266.54 193.00 267.06 C 193.00 267.58 192.55 268.00 192.00 268.00 C 191.45 268.00 191.00 267.30 191.00 266.44 Z M 369.71 259.27 C 370.04 257.20 370.69 255.35 371.16 255.17 C 372.47 254.65 372.15 246.55 370.76 245.16 C 369.77 244.17 369.79 243.75 370.84 243.10 C 371.61 242.62 372.00 241.09 371.77 239.39 L 371.38 236.50 L 370.26 239.00 C 369.35 241.02 369.18 239.59 369.35 231.57 C 369.50 224.83 369.96 221.51 370.78 221.24 C 371.45 221.02 372.06 219.18 372.14 217.17 L 372.28 213.50 L 372.89 217.50 C 373.68 222.70 373.04 233.68 372.04 232.06 C 371.52 231.23 371.11 231.64 370.79 233.32 C 370.44 235.12 370.68 235.67 371.66 235.30 C 372.40 235.02 373.00 234.36 373.00 233.83 C 373.00 233.31 373.41 233.14 373.92 233.45 C 374.46 233.78 374.48 235.35 373.97 237.26 C 373.50 239.04 373.20 244.67 373.30 249.76 C 373.45 256.82 373.20 258.91 372.25 258.54 C 371.52 258.26 371.00 258.86 371.00 259.97 C 371.00 261.02 370.58 262.14 370.06 262.46 C 369.50 262.81 369.36 261.53 369.71 259.27 Z M 193.93 259.25 C 193.87 256.85 193.76 256.75 193.05 258.50 C 192.61 259.60 192.45 260.84 192.68 261.25 C 193.53 262.71 194.00 261.96 193.93 259.25 Z M 19.69 255.25 C 19.44 254.29 19.23 255.07 19.23 257.00 C 19.23 258.93 19.44 259.71 19.69 258.75 C 19.94 257.79 19.94 256.21 19.69 255.25 Z M 191.00 251.20 C 191.00 250.67 191.68 249.68 192.50 249.00 C 194.17 247.62 194.50 244.43 193.08 243.55 C 192.57 243.23 191.94 243.77 191.69 244.74 C 191.39 245.89 191.19 245.59 191.12 243.87 C 191.05 242.43 191.59 240.76 192.31 240.16 C 194.20 238.59 196.22 244.53 195.16 248.51 C 194.43 251.23 191.00 253.45 191.00 251.20 Z M 369.00 249.00 C 369.00 247.13 369.27 246.87 370.20 247.80 C 371.13 248.73 371.13 249.27 370.20 250.20 C 369.27 251.13 369.00 250.87 369.00 249.00 Z M 19.16 242.43 C 18.48 239.39 18.11 238.90 17.52 240.27 C 17.11 241.25 17.36 243.44 18.08 245.19 C 19.72 249.16 20.33 247.62 19.16 242.43 Z M 19.44 232.53 C 19.04 230.39 18.38 229.22 17.86 229.74 C 17.34 230.26 17.45 231.98 18.10 233.86 C 18.72 235.65 19.43 236.90 19.68 236.65 C 19.93 236.41 19.82 234.55 19.44 232.53 Z M 194.45 233.91 C 194.08 233.31 194.28 232.32 194.89 231.71 C 195.70 230.90 196.00 231.18 196.00 232.80 C 196.00 235.21 195.48 235.59 194.45 233.91 Z M 191.02 231.18 C 191.01 229.90 191.68 228.18 192.50 227.36 C 194.56 225.30 194.43 222.00 192.29 222.00 C 190.68 222.00 190.67 221.90 192.26 220.31 C 193.19 219.38 194.23 218.90 194.57 219.24 C 196.03 220.69 195.24 226.92 193.21 230.10 C 191.24 233.18 191.03 233.28 191.02 231.18 Z M 19.12 221.33 C 18.25 219.83 18.06 219.78 18.03 221.08 C 18.00 222.77 19.05 224.28 19.76 223.58 C 19.99 223.34 19.71 222.33 19.12 221.33 Z M 369.29 216.50 C 369.29 213.75 369.49 212.74 369.72 214.26 C 369.95 215.78 369.94 218.03 369.70 219.26 C 369.47 220.49 369.28 219.25 369.29 216.50 Z M 190.10 214.25 C 190.19 210.90 190.29 210.77 191.00 213.00 C 192.14 216.57 192.14 218.00 191.00 218.00 C 190.45 218.00 190.04 216.31 190.10 214.25 Z M 192.81 214.48 C 192.55 212.31 192.80 211.10 193.45 211.32 C 194.59 211.70 195.01 218.00 193.89 218.00 C 193.52 218.00 193.03 216.42 192.81 214.48 Z M 18.68 212.81 C 18.36 212.01 18.13 212.25 18.08 213.42 C 18.04 214.47 18.27 215.06 18.60 214.73 C 18.94 214.40 18.97 213.53 18.68 212.81 Z M 372.08 209.42 C 372.13 208.25 372.36 208.01 372.68 208.81 C 372.97 209.53 372.94 210.40 372.60 210.73 C 372.27 211.06 372.04 210.47 372.08 209.42 Z M 369.02 206.75 C 369.03 204.28 369.26 203.86 370.00 205.00 C 371.27 206.97 371.27 210.00 370.00 210.00 C 369.45 210.00 369.01 208.54 369.02 206.75 Z M 56.20 206.80 C 55.27 205.87 54.73 205.87 53.80 206.80 C 52.87 207.73 53.13 208.00 55.00 208.00 C 56.87 208.00 57.13 207.73 56.20 206.80 Z M 67.00 207.00 C 67.00 206.45 65.54 206.01 63.75 206.02 C 61.28 206.03 60.86 206.26 62.00 207.00 C 63.97 208.27 67.00 208.27 67.00 207.00 Z M 82.50 206.00 C 82.84 205.45 82.64 205.00 82.06 205.00 C 81.48 205.00 81.00 205.45 81.00 206.00 C 81.00 206.55 81.20 207.00 81.44 207.00 C 81.68 207.00 82.16 206.55 82.50 206.00 Z M 111.00 206.00 C 111.00 205.45 110.55 205.00 110.00 205.00 C 109.45 205.00 109.00 205.45 109.00 206.00 C 109.00 206.55 109.45 207.00 110.00 207.00 C 110.55 207.00 111.00 206.55 111.00 206.00 Z M 372.19 203.50 C 372.22 201.85 372.44 201.30 372.69 202.27 C 372.95 203.24 372.93 204.59 372.66 205.27 C 372.38 205.95 372.17 205.15 372.19 203.50 Z M 24.00 203.00 C 22.72 202.17 22.75 202.03 24.25 202.02 C 25.21 202.01 26.00 202.45 26.00 203.00 C 26.00 204.22 25.89 204.22 24.00 203.00 Z M 171.00 202.50 C 171.00 201.68 171.45 201.00 172.00 201.00 C 172.55 201.00 173.00 201.68 173.00 202.50 C 173.00 203.32 172.55 204.00 172.00 204.00 C 171.45 204.00 171.00 203.32 171.00 202.50 Z M 181.52 203.03 C 180.73 201.75 182.36 200.99 183.88 201.93 C 184.89 202.55 184.83 202.85 183.62 203.32 C 182.76 203.64 181.82 203.51 181.52 203.03 Z M 239.49 202.98 C 239.14 202.42 238.49 202.19 238.05 202.47 C 237.60 202.75 237.01 201.85 236.75 200.46 C 236.17 197.46 237.55 196.16 238.29 199.01 C 238.97 201.59 242.03 201.58 242.71 199.00 C 243.07 197.63 244.06 197.01 245.87 197.03 C 248.32 197.06 248.36 197.14 246.54 198.20 C 244.60 199.32 244.60 199.33 246.54 200.03 C 248.21 200.63 247.93 200.97 244.63 202.37 C 240.05 204.30 240.28 204.27 239.49 202.98 Z M 130.00 202.00 C 130.00 201.45 129.55 201.00 129.00 201.00 C 128.45 201.00 128.00 201.45 128.00 202.00 C 128.00 202.55 128.45 203.00 129.00 203.00 C 129.55 203.00 130.00 202.55 130.00 202.00 Z M 251.00 202.00 C 251.00 201.45 251.45 201.00 252.00 201.00 C 252.55 201.00 253.00 201.45 253.00 202.00 C 253.00 202.55 252.55 203.00 252.00 203.00 C 251.45 203.00 251.00 202.55 251.00 202.00 Z M 260.76 200.52 C 260.21 197.63 260.66 196.93 262.60 197.68 C 264.42 198.38 264.44 203.00 262.62 203.00 C 261.86 203.00 261.02 201.89 260.76 200.52 Z M 274.02 201.75 C 274.04 199.47 275.92 197.37 276.76 198.68 C 277.19 199.33 278.20 199.81 279.01 199.76 C 281.54 199.58 287.00 201.20 287.00 202.12 C 287.00 203.39 284.29 203.20 281.99 201.76 C 280.41 200.77 279.59 200.77 278.01 201.76 C 275.48 203.34 274.00 203.34 274.02 201.75 Z M 329.19 201.25 C 329.38 200.29 330.19 199.50 331.00 199.50 C 331.81 199.50 332.62 200.29 332.81 201.25 C 333.05 202.48 332.51 203.00 331.00 203.00 C 329.49 203.00 328.95 202.48 329.19 201.25 Z M 337.50 202.00 C 337.16 201.45 337.33 201.00 337.88 201.00 C 338.43 201.00 339.16 201.45 339.50 202.00 C 339.84 202.55 339.67 203.00 339.12 203.00 C 338.57 203.00 337.84 202.55 337.50 202.00 Z M 360.00 201.05 C 360.00 199.31 360.32 199.22 363.10 200.18 C 365.37 200.98 365.83 201.49 364.85 202.12 C 362.44 203.64 360.00 203.11 360.00 201.05 Z M 256.67 201.33 C 255.71 200.38 255.84 199.00 256.89 199.00 C 257.38 199.00 258.05 199.68 258.36 200.50 C 258.95 202.02 257.88 202.55 256.67 201.33 Z M 91.75 200.34 C 92.44 200.06 93.56 200.06 94.25 200.34 C 94.94 200.62 94.38 200.84 93.00 200.84 C 91.62 200.84 91.06 200.62 91.75 200.34 Z M 139.00 200.00 C 139.00 198.75 140.06 198.75 142.00 200.00 C 143.21 200.78 143.07 200.97 141.25 200.98 C 140.01 200.99 139.00 200.55 139.00 200.00 Z M 187.33 198.50 C 187.33 197.68 187.86 197.00 188.50 197.00 C 189.14 197.00 189.67 197.68 189.67 198.50 C 189.67 199.32 189.14 200.00 188.50 200.00 C 187.86 200.00 187.33 199.32 187.33 198.50 Z M 251.00 199.22 C 251.00 198.79 252.15 198.34 253.55 198.22 C 255.04 198.10 255.85 198.43 255.50 199.01 C 254.77 200.18 251.00 200.36 251.00 199.22 Z M 286.00 199.22 C 286.00 198.10 290.93 196.59 291.78 197.45 C 292.58 198.25 291.85 198.75 288.75 199.53 C 287.12 199.93 286.00 199.81 286.00 199.22 Z M 12.19 195.50 C 12.22 193.85 12.44 193.30 12.69 194.27 C 12.95 195.24 12.93 196.59 12.66 197.27 C 12.38 197.95 12.17 197.15 12.19 195.50 Z M 278.81 197.32 C 279.53 197.03 280.40 197.06 280.73 197.40 C 281.06 197.73 280.47 197.96 279.42 197.92 C 278.25 197.87 278.01 197.64 278.81 197.32 Z M 322.75 197.34 C 323.44 197.06 324.56 197.06 325.25 197.34 C 325.94 197.62 325.38 197.84 324.00 197.84 C 322.62 197.84 322.06 197.62 322.75 197.34 Z M 190.00 195.94 C 190.00 195.36 190.45 195.16 191.00 195.50 C 191.55 195.84 192.00 196.32 192.00 196.56 C 192.00 196.80 191.55 197.00 191.00 197.00 C 190.45 197.00 190.00 196.52 190.00 195.94 Z M 190.09 189.55 C 190.03 186.99 190.34 185.94 190.97 186.57 C 191.58 187.18 191.61 188.68 191.06 190.52 C 190.18 193.47 190.17 193.45 190.09 189.55 Z M 190.12 175.23 C 190.11 171.23 189.88 167.62 189.63 167.21 C 189.37 166.79 189.53 164.89 189.98 162.98 L 190.80 159.50 L 190.90 163.81 C 191.00 168.12 193.00 169.01 193.00 164.74 C 193.00 163.53 193.35 163.01 193.81 163.55 C 194.25 164.07 194.33 167.88 193.97 172.00 C 193.61 176.12 193.23 179.05 193.13 178.50 C 193.02 177.95 192.30 178.62 191.54 180.00 C 190.25 182.32 190.15 181.98 190.12 175.23 Z M 18.15 164.21 C 17.23 161.71 17.15 161.85 17.11 166.00 C 17.07 169.58 17.27 170.14 18.10 168.71 C 18.80 167.51 18.82 166.04 18.15 164.21 Z M 81.60 168.27 C 76.89 167.57 71.21 163.33 68.84 158.75 C 67.28 155.72 66.55 152.29 66.32 146.81 C 66.15 142.58 66.34 138.91 66.75 138.67 C 67.16 138.42 73.71 139.46 81.31 140.99 C 96.30 144.00 98.87 145.38 101.59 151.87 C 103.83 157.22 103.39 160.33 100.07 162.79 C 97.03 165.04 87.24 169.11 85.50 168.85 C 84.95 168.77 83.20 168.51 81.60 168.27 Z M 124.50 160.63 C 117.44 157.31 115.91 155.34 116.93 150.83 C 118.48 143.96 120.35 141.05 124.50 139.11 C 128.32 137.33 141.25 133.84 149.25 132.43 L 153.00 131.78 L 153.00 138.21 C 153.00 150.97 149.18 157.89 140.23 161.35 C 134.42 163.59 130.42 163.41 124.50 160.63 Z M 18.15 152.89 C 17.43 150.36 17.16 150.07 17.09 151.75 C 17.04 152.99 16.44 154.04 15.75 154.08 C 14.75 154.14 14.75 154.26 15.75 154.66 C 16.44 154.94 17.00 155.89 17.00 156.78 C 17.00 157.93 17.31 158.09 18.06 157.34 C 18.79 156.61 18.82 155.19 18.15 152.89 Z M 15.00 150.50 C 15.00 149.68 14.55 149.00 14.00 149.00 C 13.45 149.00 13.00 149.68 13.00 150.50 C 13.00 151.32 13.45 152.00 14.00 152.00 C 14.55 152.00 15.00 151.32 15.00 150.50 Z M 255.25 147.50 C 266.11 147.50 275.00 147.28 275.00 147.00 C 275.00 146.72 274.00 143.72 272.78 140.32 C 270.70 134.51 270.67 134.02 272.25 132.28 C 274.67 129.60 273.48 125.67 270.43 126.26 C 268.42 126.64 267.86 125.96 265.94 120.83 C 264.73 117.60 263.46 114.78 263.11 114.57 C 262.76 114.35 257.76 118.46 251.99 123.69 C 246.22 128.92 238.24 136.17 234.25 139.78 C 225.71 147.53 225.06 149.37 231.25 148.26 C 233.59 147.84 244.39 147.50 255.25 147.50 Z M 18.06 140.66 C 17.08 138.09 15.00 136.96 15.00 139.00 C 15.00 139.55 15.45 140.00 16.00 140.00 C 16.55 140.00 17.00 141.22 17.00 142.70 C 17.00 144.56 17.32 145.08 18.04 144.36 C 18.74 143.66 18.75 142.48 18.06 140.66 Z M 17.69 132.25 C 17.44 131.29 17.23 132.07 17.23 134.00 C 17.23 135.93 17.44 136.71 17.69 135.75 C 17.94 134.79 17.94 133.21 17.69 132.25 Z M 14.66 130.75 C 14.38 130.06 14.16 130.62 14.16 132.00 C 14.16 133.38 14.38 133.94 14.66 133.25 C 14.94 132.56 14.94 131.44 14.66 130.75 Z M 290.05 121.96 C 296.23 117.77 296.83 116.68 294.61 113.75 C 292.85 111.43 292.32 111.52 288.61 114.75 C 286.87 116.26 284.38 118.20 283.07 119.06 C 281.16 120.31 280.82 121.15 281.36 123.31 C 281.73 124.79 282.50 126.00 283.07 126.00 C 283.64 126.00 286.79 124.18 290.05 121.96 Z M 313.99 97.87 C 314.00 96.02 311.53 93.64 310.13 94.16 C 308.34 94.82 301.00 104.48 301.00 106.18 C 301.00 107.13 301.79 108.37 302.75 108.94 C 304.20 109.81 305.31 109.09 309.24 104.74 C 311.85 101.86 313.98 98.77 313.99 97.87 Z M 189.00 105.56 C 189.00 104.77 189.45 103.84 190.00 103.50 C 190.55 103.16 191.00 103.81 191.00 104.94 C 191.00 106.07 190.55 107.00 190.00 107.00 C 189.45 107.00 189.00 106.35 189.00 105.56 Z M 16.66 93.75 C 16.38 93.06 16.16 93.62 16.16 95.00 C 16.16 96.38 16.38 96.94 16.66 96.25 C 16.94 95.56 16.94 94.44 16.66 93.75 Z M 63.76 87.38 C 59.78 85.11 58.70 83.82 57.01 79.30 C 55.00 73.92 54.12 60.00 55.79 60.00 C 59.25 60.00 82.72 65.24 84.51 66.41 C 87.36 68.28 90.56 73.55 91.32 77.62 C 91.74 79.91 91.37 81.30 89.91 82.87 C 87.68 85.26 86.02 85.63 85.97 83.75 C 85.95 83.06 85.49 83.28 84.92 84.25 C 84.26 85.38 82.68 86.00 80.45 86.00 C 78.55 86.00 77.00 86.50 77.00 87.11 C 77.00 87.82 78.00 87.97 79.75 87.54 C 81.82 87.03 82.22 87.14 81.37 88.01 C 80.74 88.65 77.59 89.37 74.37 89.63 C 69.33 90.02 67.83 89.70 63.76 87.38 Z M 321.92 84.46 C 324.72 78.11 325.49 73.30 323.99 71.49 C 321.63 68.64 320.17 70.03 317.65 77.52 L 315.12 85.04 L 317.25 87.02 C 318.42 88.11 319.50 89.00 319.64 89.00 C 319.79 89.00 320.81 86.96 321.92 84.46 Z M 115.33 83.00 C 114.13 82.51 111.26 80.93 108.95 79.47 C 104.83 76.87 104.76 76.74 105.36 72.39 C 106.73 62.37 110.94 59.23 128.67 54.94 C 141.30 51.89 141.39 51.95 140.76 63.09 C 140.30 71.22 139.94 72.50 137.28 75.82 C 131.95 82.45 122.02 85.70 115.33 83.00 Z M 133.81 77.06 C 134.06 76.31 133.69 75.94 132.94 76.19 C 132.22 76.43 131.43 77.22 131.19 77.94 C 130.94 78.69 131.31 79.06 132.06 78.81 C 132.78 78.57 133.57 77.78 133.81 77.06 Z M 195.00 78.12 C 195.00 77.64 194.32 76.68 193.50 76.00 C 192.25 74.96 192.00 75.10 192.00 76.88 C 192.00 78.10 192.64 79.00 193.50 79.00 C 194.32 79.00 195.00 78.61 195.00 78.12 Z M 188.08 62.42 C 188.13 61.25 188.36 61.01 188.68 61.81 C 188.97 62.53 188.94 63.40 188.60 63.73 C 188.27 64.06 188.04 63.47 188.08 62.42 Z M 327.36 58.25 C 328.85 49.22 327.41 44.00 323.43 44.00 C 322.30 44.00 322.00 45.87 322.00 53.00 C 322.00 61.80 322.05 62.00 324.37 62.00 C 326.33 62.00 326.85 61.35 327.36 58.25 Z M 12.66 45.75 C 12.38 45.06 12.16 45.62 12.16 47.00 C 12.16 48.38 12.38 48.94 12.66 48.25 C 12.94 47.56 12.94 46.44 12.66 45.75 Z M 13.69 39.27 C 13.44 38.30 13.22 38.85 13.19 40.50 C 13.17 42.15 13.38 42.95 13.66 42.27 C 13.93 41.59 13.95 40.24 13.69 39.27 Z M 323.96 35.04 C 325.22 34.25 325.24 33.24 324.13 27.83 C 322.62 20.52 321.45 18.00 319.59 18.00 C 316.44 18.00 316.00 20.51 317.94 27.29 C 320.56 36.45 320.95 36.95 323.96 35.04 Z M 10.50 26.00 C 10.84 25.45 11.32 25.00 11.56 25.00 C 11.80 25.00 12.00 25.45 12.00 26.00 C 12.00 26.55 11.52 27.00 10.94 27.00 C 10.36 27.00 10.16 26.55 10.50 26.00 Z M 191.50 18.00 C 191.16 17.45 191.36 17.00 191.94 17.00 C 192.52 17.00 193.00 17.45 193.00 18.00 C 193.00 18.55 192.80 19.00 192.56 19.00 C 192.32 19.00 191.84 18.55 191.50 18.00 Z M 191.62 14.17 C 191.18 12.90 191.08 11.58 191.41 11.26 C 192.45 10.22 193.17 11.75 192.79 14.16 L 192.43 16.50 L 191.62 14.17 Z" fill="none" stroke="rgba(255,255,255,0.92)" stroke-width="1.5" stroke-linejoin="round" fill-rule="evenodd"/>
</svg>
