<svg xmlns="http://www.w3.org/2000/svg" viewBox="0 0 100 100" width="100" height="100">
  <path d="M 0.00 50.00 L 0.00 0.00 L 50.00 0.00 L 100.00 0.00 L 100.00 50.00 L 100.00 100.00 L 50.00 100.00 L 0.00 100.00 L 0.00 50.00 Z M 10.17 95.12 C 9.09 94.44 9.14 94.16 10.42 93.67 C 11.38 93.30 12.00 93.59 12.00 94.42 C 12.00 95.40 13.34 95.75 16.75 95.64 C 19.96 95.55 21.42 95.09 21.25 94.25 C 21.11 93.56 21.45 93.00 22.00 93.00 C 22.55 93.00 23.00 93.67 23.00 94.50 C 23.00 96.42 30.96 96.67 31.08 94.75 C 31.14 93.75 31.26 93.75 31.66 94.75 C 32.05 95.71 39.49 96.00 64.08 96.00 L 96.00 96.00 L 96.00 93.45 L 96.00 90.89 L 54.25 91.08 L 12.50 91.27 L 10.30 86.93 C 9.04 84.46 8.45 82.14 8.92 81.55 C 9.38 80.97 9.39 79.60 8.95 78.50 C 7.66 75.31 7.94 74.34 9.53 76.44 C 10.90 78.25 11.00 78.09 11.00 74.19 C 11.00 71.89 10.55 70.00 10.00 70.00 C 9.45 70.00 9.00 69.33 9.00 68.50 C 9.00 67.67 9.45 67.00 10.00 67.00 C 10.55 67.00 10.97 65.76 10.93 64.25 C 10.87 61.81 10.76 61.73 10.00 63.50 C 9.09 65.62 9.02 65.43 8.37 59.50 C 8.11 57.04 7.07 16.72 7.01 6.75 C 7.01 5.24 6.50 4.00 5.88 4.00 C 5.06 4.00 4.95 12.54 5.47 35.75 C 6.48 80.52 6.82 94.39 6.91 95.25 C 6.96 95.66 8.01 95.99 9.25 95.98 C 10.86 95.97 11.12 95.73 10.17 95.12 Z M 54.50 94.00 C 54.16 93.45 54.33 93.00 54.88 93.00 C 55.43 93.00 56.16 93.45 56.50 94.00 C 56.84 94.55 56.67 95.00 56.12 95.00 C 55.57 95.00 54.84 94.55 54.50 94.00 Z M 58.00 94.00 C 58.00 93.45 58.48 93.00 59.06 93.00 C 59.64 93.00 59.84 93.45 59.50 94.00 C 59.16 94.55 58.68 95.00 58.44 95.00 C 58.20 95.00 58.00 94.55 58.00 94.00 Z M 61.42 94.25 C 62.43 93.24 67.00 93.20 67.00 94.20 C 67.00 94.64 65.58 95.00 63.83 95.00 C 62.09 95.00 61.00 94.66 61.42 94.25 Z M 69.00 93.87 C 69.00 93.52 69.90 93.00 71.00 92.71 C 72.10 92.42 73.00 92.63 73.00 93.16 C 73.00 93.70 73.90 93.85 75.00 93.50 C 76.17 93.13 77.00 93.32 77.00 93.96 C 77.00 94.61 75.39 94.94 73.00 94.77 C 70.80 94.62 69.00 94.21 69.00 93.87 Z M 78.00 94.00 C 78.00 93.45 79.24 93.03 80.75 93.07 C 83.19 93.13 83.27 93.24 81.50 94.00 C 78.77 95.17 78.00 95.17 78.00 94.00 Z M 85.50 94.00 C 88.23 92.83 89.00 92.83 89.00 94.00 C 89.00 94.55 87.76 94.97 86.25 94.93 C 83.81 94.87 83.73 94.76 85.50 94.00 Z M 90.80 93.80 C 91.73 92.87 92.27 92.87 93.20 93.80 C 94.13 94.73 93.87 95.00 92.00 95.00 C 90.13 95.00 89.87 94.73 90.80 93.80 Z M 47.75 93.34 C 48.44 93.06 49.56 93.06 50.25 93.34 C 50.94 93.62 50.38 93.84 49.00 93.84 C 47.62 93.84 47.06 93.62 47.75 93.34 Z M 8.70 89.61 C 8.29 88.57 8.19 87.48 8.48 87.19 C 9.39 86.28 10.19 87.77 9.81 89.67 C 9.46 91.41 9.41 91.41 8.70 89.61 Z M 51.45 81.08 C 52.39 79.56 49.05 77.00 46.12 77.00 C 42.27 77.00 33.76 72.53 31.38 69.26 C 26.15 62.08 24.94 54.58 27.47 45.08 C 28.99 39.36 28.79 38.00 26.44 38.00 C 21.46 38.00 31.27 26.42 39.10 23.05 C 49.02 18.78 57.45 19.31 65.79 24.72 C 70.45 27.74 73.41 32.83 74.50 39.75 C 75.08 43.38 75.53 44.00 77.56 44.00 C 79.71 44.00 79.89 44.33 79.36 47.25 C 79.04 49.04 77.77 52.77 76.54 55.55 C 71.40 67.13 62.58 72.67 50.87 71.69 C 44.89 71.19 44.15 71.33 43.70 73.04 C 43.05 75.53 47.79 76.50 56.63 75.67 C 70.60 74.37 80.59 63.64 83.56 46.75 C 84.19 43.21 84.08 43.00 81.61 43.00 C 79.50 43.00 79.00 42.53 79.00 40.54 C 79.00 36.21 75.11 27.50 71.75 24.31 C 64.71 17.61 56.08 15.17 45.94 17.01 C 34.28 19.13 25.31 25.71 20.92 35.36 C 18.53 40.64 18.54 41.72 21.00 42.50 C 23.00 43.13 23.86 47.35 22.20 48.38 C 21.75 48.65 21.49 50.91 21.60 53.39 C 22.24 67.35 31.34 78.39 44.34 80.96 C 50.16 82.11 50.81 82.12 51.45 81.08 Z M 8.50 73.00 C 8.16 72.45 8.36 72.00 8.94 72.00 C 9.52 72.00 10.00 72.45 10.00 73.00 C 10.00 73.55 9.80 74.00 9.56 74.00 C 9.32 74.00 8.84 73.55 8.50 73.00 Z M 40.31 69.62 C 40.61 68.86 40.32 67.67 39.67 66.97 C 38.74 65.97 38.91 65.87 40.50 66.49 C 50.77 70.50 53.75 70.84 59.13 68.59 C 67.89 64.93 72.10 58.40 72.71 47.50 C 73.12 40.18 72.31 37.56 69.92 38.48 C 68.88 38.88 68.48 40.99 68.44 46.34 C 68.38 54.77 66.42 59.13 61.08 62.72 C 55.96 66.18 51.51 66.61 45.85 64.22 C 41.02 62.18 40.99 62.18 39.61 64.14 C 38.26 66.07 38.19 66.06 36.19 63.52 C 33.68 60.32 31.89 52.45 32.63 47.87 C 33.32 43.61 37.79 36.92 41.04 35.27 C 42.39 34.59 45.81 34.02 48.64 34.01 C 52.12 34.00 53.96 33.55 54.32 32.60 C 55.14 30.46 54.12 30.00 48.58 30.02 C 38.16 30.07 31.09 36.22 28.90 47.16 C 27.41 54.55 29.68 62.88 34.48 67.68 C 38.09 71.29 39.50 71.76 40.31 69.62 Z M 55.50 62.00 C 55.50 60.99 54.11 60.31 51.26 59.93 C 45.47 59.16 42.00 55.78 42.00 50.90 C 42.00 46.20 46.02 41.00 49.65 41.00 C 53.22 41.00 56.00 42.77 56.00 45.04 C 56.00 46.12 56.19 47.00 56.42 47.00 C 56.65 47.00 57.55 47.27 58.42 47.61 C 60.96 48.58 60.39 43.56 57.59 40.31 C 55.51 37.89 54.46 37.51 50.11 37.57 C 46.59 37.62 44.40 38.23 42.92 39.57 C 35.39 46.39 36.72 58.75 45.40 62.60 C 49.43 64.38 55.50 64.03 55.50 62.00 Z M 10.66 55.75 C 10.38 55.06 10.16 55.62 10.16 57.00 C 10.16 58.38 10.38 58.94 10.66 58.25 C 10.94 57.56 10.94 56.44 10.66 55.75 Z M 62.75 55.56 C 68.51 50.71 68.89 41.47 63.58 35.30 C 61.46 32.83 61.12 32.74 59.67 34.18 C 58.23 35.63 58.26 35.92 60.04 37.53 C 63.18 40.38 64.20 45.70 62.32 49.38 C 61.44 51.10 60.22 52.83 59.61 53.23 C 57.99 54.31 53.17 54.16 50.93 52.96 C 48.64 51.74 48.37 48.18 50.50 47.36 C 51.33 47.05 52.00 45.90 52.00 44.83 C 52.00 43.26 51.55 43.00 49.75 43.55 C 46.64 44.48 46.13 45.10 45.40 48.74 C 44.87 51.40 45.26 52.41 47.81 54.96 C 51.83 58.98 58.37 59.25 62.75 55.56 Z M 96.00 48.16 C 96.00 45.68 88.18 43.12 86.88 45.17 C 85.50 47.34 85.82 47.75 89.75 48.80 C 95.27 50.26 96.00 50.19 96.00 48.16 Z M 23.08 41.42 C 23.13 40.25 23.36 40.01 23.68 40.81 C 23.97 41.53 23.94 42.40 23.60 42.73 C 23.27 43.06 23.04 42.47 23.08 41.42 Z M 69.86 35.11 C 71.93 33.79 68.65 29.47 63.11 26.21 C 59.05 23.82 57.49 23.51 50.00 23.55 C 41.05 23.59 35.63 25.44 31.72 29.75 C 30.13 31.52 30.11 31.84 31.50 33.00 C 32.80 34.08 33.43 33.96 35.28 32.27 C 38.87 29.00 41.63 27.96 48.32 27.33 C 55.74 26.64 62.71 29.10 65.53 33.41 C 67.38 36.23 67.82 36.40 69.86 35.11 Z M 9.68 20.81 C 9.36 20.01 9.13 20.25 9.08 21.42 C 9.04 22.47 9.27 23.06 9.60 22.73 C 9.94 22.40 9.97 21.53 9.68 20.81 Z M 9.66 13.75 C 9.38 13.06 9.16 13.62 9.16 15.00 C 9.16 16.38 9.38 16.94 9.66 16.25 C 9.94 15.56 9.94 14.44 9.66 13.75 Z M 52.95 11.25 C 54.45 5.85 54.26 4.00 52.23 4.00 C 50.94 4.00 50.15 5.29 49.34 8.75 C 48.73 11.36 48.43 13.84 48.67 14.25 C 49.82 16.18 52.01 14.64 52.95 11.25 Z" fill="none" stroke="rgba(255,255,255,0.92)" stroke-width="1.2" stroke-linejoin="round" fill-rule="evenodd"/>
</svg>
