<svg xmlns="http://www.w3.org/2000/svg" viewBox="0 0 100 100" width="100" height="100">
  <path d="M 0.00 50.00 L 0.00 0.00 L 50.00 0.00 L 100.00 0.00 L 100.00 50.00 L 100.00 100.00 L 50.00 100.00 L 0.00 100.00 L 0.00 50.00 Z M 74.64 94.50 C 74.32 93.67 74.50 93.00 75.03 93.00 C 75.56 93.00 76.00 93.67 76.00 94.50 C 76.00 95.73 77.78 96.00 86.00 96.00 L 96.00 96.00 L 96.00 50.06 L 96.00 4.12 L 93.75 4.26 C 90.52 4.46 90.25 5.29 90.57 13.83 C 90.84 20.83 91.26 83.48 91.08 88.75 L 91.00 91.00 L 47.50 91.00 L 4.00 91.00 L 4.00 93.50 L 4.00 96.00 L 39.61 96.00 C 70.85 96.00 75.14 95.82 74.64 94.50 Z M 13.00 94.00 C 13.00 93.45 13.45 93.00 14.00 93.00 C 14.55 93.00 15.00 93.45 15.00 94.00 C 15.00 94.55 14.55 95.00 14.00 95.00 C 13.45 95.00 13.00 94.55 13.00 94.00 Z M 66.50 94.00 C 66.16 93.45 66.36 93.00 66.94 93.00 C 67.52 93.00 68.00 93.45 68.00 94.00 C 68.00 94.55 67.80 95.00 67.56 95.00 C 67.32 95.00 66.84 94.55 66.50 94.00 Z M 77.00 93.94 C 77.00 93.36 77.45 93.16 78.00 93.50 C 78.55 93.84 79.00 94.32 79.00 94.56 C 79.00 94.80 78.55 95.00 78.00 95.00 C 77.45 95.00 77.00 94.52 77.00 93.94 Z M 93.64 86.50 C 93.32 85.67 93.50 85.00 94.03 85.00 C 94.56 85.00 95.00 85.67 95.00 86.50 C 95.00 87.33 94.82 88.00 94.61 88.00 C 94.39 88.00 93.95 87.33 93.64 86.50 Z M 38.98 77.75 C 38.96 74.11 35.09 59.79 33.46 57.29 L 31.95 55.00 L 37.73 54.98 C 40.90 54.98 46.20 54.32 49.50 53.52 C 52.80 52.72 55.78 52.06 56.13 52.04 C 56.48 52.02 56.14 53.82 55.37 56.04 C 51.67 66.80 60.60 76.16 73.14 74.67 C 75.96 74.34 78.46 73.87 78.69 73.64 C 79.23 73.10 75.05 55.06 73.85 52.76 C 73.35 51.80 71.56 50.31 69.87 49.43 L 66.80 47.84 L 68.77 45.67 C 69.86 44.48 71.21 42.60 71.77 41.50 C 73.28 38.52 76.22 23.17 75.51 22.01 C 74.62 20.58 61.99 20.78 59.03 22.28 C 57.67 22.97 55.49 25.10 54.19 27.01 C 51.15 31.49 51.49 39.47 54.92 44.11 C 56.16 45.79 57.02 47.28 56.84 47.43 C 55.74 48.32 45.37 50.30 38.72 50.89 C 31.94 51.49 31.03 51.38 31.63 50.04 C 32.87 47.22 36.77 28.10 36.21 27.55 C 35.18 26.51 22.09 27.00 19.52 28.17 C 15.20 30.14 12.75 35.23 13.22 41.27 C 13.45 44.14 14.00 47.32 14.45 48.32 C 15.19 49.96 14.89 50.08 11.38 49.48 C 9.25 49.12 6.71 48.61 5.75 48.35 C 4.52 48.01 4.00 48.44 4.00 49.83 C 4.00 52.21 5.61 52.89 13.17 53.68 C 16.38 54.01 19.00 54.40 19.00 54.53 C 19.00 54.67 18.11 56.74 17.02 59.14 C 14.46 64.78 14.50 68.33 17.16 73.06 C 20.01 78.15 23.95 79.95 32.25 79.98 C 38.59 80.00 39.00 79.86 38.98 77.75 Z M 24.42 74.86 C 22.09 73.73 19.00 69.03 19.00 66.62 C 19.00 65.75 19.72 63.23 20.61 61.02 C 21.87 57.87 22.74 57.00 24.65 57.00 C 28.49 57.00 31.65 61.00 33.02 67.58 C 33.69 70.81 34.46 74.02 34.72 74.72 C 35.33 76.29 27.59 76.39 24.42 74.86 Z M 67.59 70.27 C 59.90 69.13 56.69 62.74 60.02 55.21 C 61.82 51.16 62.22 50.84 64.74 51.43 C 66.26 51.79 68.25 52.97 69.17 54.06 C 70.94 56.14 74.24 68.80 73.38 70.19 C 72.87 71.02 72.65 71.02 67.59 70.27 Z M 93.08 56.42 C 93.13 55.25 93.36 55.01 93.68 55.81 C 93.97 56.53 93.94 57.40 93.60 57.73 C 93.27 58.06 93.04 57.47 93.08 56.42 Z M 93.08 50.42 C 93.13 49.25 93.36 49.01 93.68 49.81 C 93.97 50.53 93.94 51.40 93.60 51.73 C 93.27 52.06 93.04 51.47 93.08 50.42 Z M 19.12 47.82 C 15.42 41.90 16.23 34.55 20.85 32.08 C 22.91 30.98 32.00 30.55 32.00 31.55 C 32.00 31.86 31.29 35.23 30.42 39.04 C 29.26 44.14 28.17 46.51 26.29 47.99 C 22.98 50.59 20.82 50.53 19.12 47.82 Z M 93.67 47.33 C 93.30 46.97 93.00 46.20 93.00 45.63 C 93.00 45.01 93.47 45.07 94.18 45.78 C 94.83 46.43 95.13 47.20 94.85 47.48 C 94.57 47.77 94.03 47.70 93.67 47.33 Z M 58.42 42.24 C 57.48 40.81 56.50 37.77 56.25 35.50 C 55.56 29.42 58.83 25.91 65.81 25.24 C 71.72 24.68 71.68 24.60 69.90 33.20 C 68.50 39.94 66.86 42.50 63.12 43.81 C 60.44 44.74 59.96 44.58 58.42 42.24 Z M 93.27 40.25 C 92.51 38.00 93.17 25.34 93.96 27.00 C 94.31 27.75 94.81 43.00 94.48 43.00 C 94.32 43.00 93.78 41.76 93.27 40.25 Z M 92.76 25.38 C 91.93 23.96 93.53 20.43 94.38 21.81 C 94.78 22.46 94.70 23.72 94.19 24.62 C 93.69 25.52 93.05 25.86 92.76 25.38 Z M 92.00 19.08 C 92.00 18.60 92.67 17.95 93.50 17.64 C 94.33 17.32 95.00 17.45 95.00 17.92 C 95.00 18.40 94.33 19.05 93.50 19.36 C 92.67 19.68 92.00 19.55 92.00 19.08 Z M 92.51 15.02 C 92.16 13.93 92.34 12.24 92.91 11.27 C 93.75 9.83 93.94 10.19 93.97 13.25 C 94.00 17.39 93.47 18.04 92.51 15.02 Z M 92.16 8.00 C 92.16 6.62 92.38 6.06 92.66 6.75 C 92.94 7.44 92.94 8.56 92.66 9.25 C 92.38 9.94 92.16 9.38 92.16 8.00 Z" fill="none" stroke="rgba(255,255,255,0.92)" stroke-width="1.2" stroke-linejoin="round" fill-rule="evenodd"/>
</svg>
