<svg xmlns="http://www.w3.org/2000/svg" viewBox="0 0 388 400" width="388" height="400">
  <path d="M 0.00 200.00 L 0.00 0.00 L 194.00 0.00 L 388.00 0.00 L 388.00 16.38 C 388.00 31.93 387.90 32.79 386.00 33.29 C 383.51 33.94 383.45 36.93 385.71 50.00 C 387.18 58.50 387.39 77.39 387.69 229.75 L 388.03 400.00 L 194.01 400.00 L 0.00 400.00 L 0.00 200.00 Z M 200.56 392.98 C 202.37 392.29 203.64 392.29 204.46 392.97 C 205.13 393.53 205.97 393.70 206.32 393.35 C 206.67 393.00 212.73 392.61 219.78 392.48 C 226.84 392.35 234.00 391.94 235.71 391.56 C 237.57 391.15 239.07 391.31 239.47 391.96 C 239.84 392.55 240.63 392.73 241.23 392.36 C 242.13 391.80 250.84 391.49 281.00 390.93 C 282.38 390.90 287.32 390.85 292.00 390.82 C 325.32 390.60 333.66 390.37 334.81 389.64 C 335.55 389.17 337.39 389.33 339.06 390.03 C 341.39 390.99 342.64 390.98 345.06 389.98 C 346.97 389.18 348.46 389.06 349.06 389.66 C 350.31 390.91 379.18 390.22 380.49 388.90 C 381.58 387.82 381.51 197.18 380.43 196.10 C 379.57 195.24 224.98 195.18 221.92 196.04 C 220.49 196.44 218.67 196.40 217.86 195.94 C 217.06 195.49 214.79 195.48 212.83 195.93 C 210.86 196.37 207.06 196.52 204.38 196.26 L 199.50 195.79 L 199.31 127.65 C 199.20 90.17 199.11 57.92 199.09 56.00 C 199.07 54.08 199.06 51.60 199.06 50.50 C 199.08 38.40 198.18 9.84 197.77 9.43 C 197.33 9.00 83.95 8.67 23.32 8.93 L 8.14 9.00 L 7.47 14.38 C 7.04 17.82 7.22 20.54 7.97 21.94 C 8.86 23.61 8.86 24.46 7.95 25.55 C 7.23 26.42 7.03 28.26 7.43 30.24 C 7.79 32.03 8.09 34.40 8.10 35.50 C 8.11 36.60 8.12 42.00 8.13 47.50 C 8.14 53.00 8.23 91.19 8.33 132.37 L 8.51 207.24 L 28.00 207.11 C 38.73 207.04 48.40 206.99 49.50 207.00 C 50.60 207.01 55.55 206.95 60.50 206.87 C 72.27 206.68 115.07 206.09 117.00 206.09 C 117.83 206.09 127.28 206.10 138.00 206.12 C 148.72 206.14 161.19 206.03 165.71 205.87 C 170.22 205.71 174.15 205.81 174.43 206.10 C 174.71 206.38 178.32 206.50 182.46 206.38 L 189.98 206.15 L 189.97 212.82 C 189.96 216.50 189.97 220.40 190.00 221.50 C 190.02 222.60 190.05 230.25 190.06 238.50 C 190.09 265.83 190.77 390.48 190.88 391.68 C 190.99 392.72 192.85 393.42 196.68 393.86 C 197.34 393.94 199.08 393.54 200.56 392.98 Z M 250.50 388.00 C 250.84 387.45 251.32 387.00 251.56 387.00 C 251.80 387.00 252.00 387.45 252.00 388.00 C 252.00 388.55 251.52 389.00 250.94 389.00 C 250.36 389.00 250.16 388.55 250.50 388.00 Z M 272.50 388.00 C 272.84 387.45 273.54 387.00 274.06 387.00 C 274.58 387.00 275.00 387.45 275.00 388.00 C 275.00 388.55 274.30 389.00 273.44 389.00 C 272.58 389.00 272.16 388.55 272.50 388.00 Z M 372.50 387.00 C 372.16 386.45 372.84 386.00 374.00 386.00 C 375.16 386.00 375.84 386.45 375.50 387.00 C 375.16 387.55 374.49 388.00 374.00 388.00 C 373.51 388.00 372.84 387.55 372.50 387.00 Z M 241.54 386.07 C 241.23 385.56 241.42 384.86 241.98 384.51 C 242.54 384.16 243.00 384.58 243.00 385.44 C 243.00 387.20 242.40 387.46 241.54 386.07 Z M 335.50 386.00 C 335.16 385.45 335.36 385.00 335.94 385.00 C 336.52 385.00 337.00 385.45 337.00 386.00 C 337.00 386.55 336.80 387.00 336.56 387.00 C 336.32 387.00 335.84 386.55 335.50 386.00 Z M 252.50 385.00 C 252.84 384.45 253.32 384.00 253.56 384.00 C 253.80 384.00 254.00 384.45 254.00 385.00 C 254.00 385.55 253.52 386.00 252.94 386.00 C 252.36 386.00 252.16 385.55 252.50 385.00 Z M 263.00 385.00 C 263.00 384.45 263.45 384.00 264.00 384.00 C 264.55 384.00 265.00 384.45 265.00 385.00 C 265.00 385.55 264.55 386.00 264.00 386.00 C 263.45 386.00 263.00 385.55 263.00 385.00 Z M 377.06 382.95 C 377.12 379.71 377.19 379.65 378.09 381.92 C 378.73 383.52 378.71 384.69 378.03 385.37 C 377.32 386.08 377.02 385.32 377.06 382.95 Z M 342.51 383.98 C 342.86 383.42 343.56 383.23 344.07 383.54 C 345.46 384.40 345.20 385.00 343.44 385.00 C 342.58 385.00 342.16 384.54 342.51 383.98 Z M 197.08 381.42 C 197.13 380.25 197.36 380.01 197.68 380.81 C 197.97 381.53 197.94 382.40 197.60 382.73 C 197.27 383.06 197.04 382.47 197.08 381.42 Z M 200.38 379.37 C 200.05 378.05 200.31 376.33 200.97 375.54 C 201.66 374.70 201.87 373.16 201.46 371.87 C 200.95 370.25 200.01 308.66 200.13 285.00 C 200.14 284.18 200.07 271.57 199.98 257.00 C 199.89 242.43 199.88 229.15 199.97 227.50 C 200.05 225.85 200.09 223.49 200.06 222.25 C 199.92 216.85 199.91 214.25 200.05 210.46 L 200.19 206.42 L 221.84 206.35 C 233.75 206.31 247.32 206.21 252.00 206.13 C 256.68 206.06 261.40 206.02 262.50 206.06 C 263.60 206.09 278.68 206.04 296.00 205.95 C 313.32 205.86 331.55 205.82 336.50 205.86 C 341.45 205.91 346.62 205.93 348.00 205.92 C 349.38 205.91 354.10 205.92 358.50 205.95 C 362.90 205.98 367.40 205.89 368.50 205.75 C 370.39 205.51 370.52 206.17 370.82 218.00 C 371.12 229.66 371.15 232.45 371.01 238.25 C 370.98 239.49 371.02 271.46 371.10 309.29 C 371.19 347.13 370.98 378.36 370.64 378.69 C 370.31 379.02 353.94 379.43 334.27 379.59 C 314.60 379.74 286.57 380.17 272.00 380.54 C 257.43 380.91 235.48 381.33 223.24 381.49 L 200.98 381.76 L 200.38 379.37 Z M 374.69 376.35 C 374.31 375.98 374.01 374.95 374.02 374.08 C 374.03 372.70 374.15 372.68 375.02 374.00 C 375.89 375.33 376.12 375.33 377.05 374.00 C 377.93 372.75 378.06 372.81 377.80 374.42 C 377.48 376.46 375.82 377.49 374.69 376.35 Z M 194.00 368.56 C 194.00 367.70 194.45 367.00 195.00 367.00 C 195.55 367.00 196.00 367.42 196.00 367.94 C 196.00 368.46 195.55 369.16 195.00 369.50 C 194.45 369.84 194.00 369.42 194.00 368.56 Z M 375.00 367.47 C 375.00 366.66 375.45 366.00 376.00 366.00 C 377.51 366.00 377.20 359.41 375.50 355.35 C 373.50 350.57 373.58 350.39 376.48 353.15 C 379.04 355.57 379.42 357.81 378.37 364.19 C 377.78 367.76 375.00 370.47 375.00 367.47 Z M 196.68 367.25 C 196.45 366.84 196.61 365.60 197.05 364.50 C 197.76 362.75 197.87 362.85 197.93 365.25 C 198.00 367.96 197.53 368.71 196.68 367.25 Z M 194.02 358.25 C 194.01 357.01 194.45 356.00 195.00 356.00 C 196.25 356.00 196.25 357.06 195.00 359.00 C 194.22 360.21 194.03 360.07 194.02 358.25 Z M 197.29 355.50 C 197.29 352.75 197.49 351.74 197.72 353.26 C 197.95 354.78 197.94 357.03 197.70 358.26 C 197.47 359.49 197.28 358.25 197.29 355.50 Z M 299.00 354.13 C 314.87 349.57 326.96 338.17 336.76 318.50 C 346.10 299.75 353.55 262.25 352.80 237.80 L 352.50 228.10 L 341.00 239.23 C 334.68 245.36 326.09 253.68 321.92 257.74 L 314.33 265.12 L 307.24 255.81 C 303.33 250.69 296.88 242.29 292.90 237.15 L 285.65 227.81 L 283.83 230.15 C 282.83 231.44 276.79 239.81 270.42 248.75 C 264.04 257.69 258.51 265.00 258.13 265.00 C 257.75 265.00 248.70 256.23 238.03 245.50 C 227.35 234.78 218.41 226.00 218.16 226.00 C 217.33 226.00 219.03 253.15 220.56 264.48 C 224.59 294.31 232.65 317.83 244.23 333.54 C 249.03 340.05 257.46 347.71 262.86 350.45 C 273.96 356.11 287.38 357.47 299.00 354.13 Z M 377.19 350.50 C 377.22 348.85 377.44 348.30 377.69 349.27 C 377.95 350.24 377.93 351.59 377.66 352.27 C 377.38 352.95 377.17 352.15 377.19 350.50 Z M 194.03 349.30 C 194.01 348.09 194.61 346.74 195.35 346.30 C 196.10 345.86 196.96 344.82 197.27 344.00 C 197.67 342.96 197.87 343.16 197.92 344.64 C 197.96 345.82 197.11 347.84 196.03 349.14 L 194.07 351.50 L 194.03 349.30 Z M 277.00 346.59 C 253.78 341.36 237.87 316.33 230.12 272.82 C 228.24 262.25 226.14 246.00 226.65 246.00 C 226.78 246.00 234.21 253.26 243.16 262.13 C 257.21 276.05 259.58 278.02 260.47 276.52 C 261.04 275.56 263.98 271.45 267.00 267.38 C 270.02 263.31 274.75 256.82 277.50 252.94 C 280.25 249.07 283.26 244.91 284.19 243.70 C 286.14 241.14 284.74 239.82 296.39 255.13 C 302.95 263.76 309.56 272.16 313.10 276.36 C 313.49 276.83 320.14 271.02 327.85 263.43 C 344.71 246.87 345.22 246.51 344.54 251.69 C 344.27 253.78 343.33 260.90 342.46 267.50 C 339.64 288.82 335.85 302.02 327.65 318.96 C 325.48 323.44 322.03 327.92 316.38 333.59 C 307.63 342.39 302.30 345.22 291.00 347.08 C 284.37 348.17 283.96 348.16 277.00 346.59 Z M 374.14 340.81 C 373.98 337.70 374.98 336.74 377.05 338.05 C 378.27 338.82 378.23 338.97 376.82 338.98 C 375.88 338.99 374.95 339.99 374.71 341.25 C 374.33 343.22 374.26 343.17 374.14 340.81 Z M 197.16 336.00 C 197.16 334.62 197.38 334.06 197.66 334.75 C 197.94 335.44 197.94 336.56 197.66 337.25 C 197.38 337.94 197.16 337.38 197.16 336.00 Z M 193.00 329.00 C 193.00 328.45 193.48 328.00 194.06 328.00 C 194.64 328.00 194.84 328.45 194.50 329.00 C 194.16 329.55 193.68 330.00 193.44 330.00 C 193.20 330.00 193.00 329.55 193.00 329.00 Z M 376.54 329.07 C 376.23 328.56 376.42 327.86 376.98 327.51 C 377.54 327.16 378.00 327.58 378.00 328.44 C 378.00 330.20 377.40 330.46 376.54 329.07 Z M 196.68 328.29 C 196.35 327.76 196.43 326.02 196.86 324.42 C 197.63 321.54 197.64 321.53 198.27 323.93 C 198.94 326.50 197.69 329.93 196.68 328.29 Z M 194.55 319.75 C 194.92 318.51 195.62 317.08 196.10 316.57 C 197.57 314.99 198.11 316.58 197.05 319.36 C 195.82 322.62 193.57 322.96 194.55 319.75 Z M 377.07 317.05 C 377.02 314.42 377.28 313.88 378.17 314.77 C 379.03 315.63 379.05 316.53 378.24 318.22 C 377.20 320.36 377.13 320.29 377.07 317.05 Z M 375.00 313.00 C 375.00 311.13 375.27 310.87 376.20 311.80 C 377.13 312.73 377.13 313.27 376.20 314.20 C 375.27 315.13 375.00 314.87 375.00 313.00 Z M 377.16 308.00 C 377.16 306.62 377.38 306.06 377.66 306.75 C 377.94 307.44 377.94 308.56 377.66 309.25 C 377.38 309.94 377.16 309.38 377.16 308.00 Z M 194.08 305.42 C 194.13 304.25 194.36 304.01 194.68 304.81 C 194.97 305.53 194.94 306.40 194.60 306.73 C 194.27 307.06 194.04 306.47 194.08 305.42 Z M 374.00 306.12 C 374.00 305.57 374.45 304.84 375.00 304.50 C 375.55 304.16 376.00 304.33 376.00 304.88 C 376.00 305.43 375.55 306.16 375.00 306.50 C 374.45 306.84 374.00 306.67 374.00 306.12 Z M 195.39 300.42 C 195.73 299.55 196.00 298.17 196.00 297.36 C 196.00 296.55 196.45 296.16 197.00 296.50 C 198.68 297.54 198.19 302.00 196.39 302.00 C 195.34 302.00 194.99 301.46 195.39 300.42 Z M 377.07 299.75 C 377.11 299.06 377.53 297.60 378.00 296.50 C 378.72 294.82 378.87 295.03 378.93 297.75 C 378.97 299.54 378.55 301.00 378.00 301.00 C 377.45 301.00 377.03 300.44 377.07 299.75 Z M 195.67 293.03 C 194.16 291.50 194.04 290.79 195.00 289.00 C 195.64 287.81 196.45 287.12 196.80 287.47 C 197.36 288.03 198.20 295.10 197.69 294.94 C 197.59 294.91 196.68 294.05 195.67 293.03 Z M 376.94 292.50 C 376.84 291.95 376.84 291.09 376.93 290.59 C 377.03 290.09 376.67 289.41 376.14 289.09 C 375.55 288.72 375.69 287.78 376.50 286.67 C 377.77 284.93 377.85 284.94 378.43 286.79 C 378.77 287.84 378.61 289.79 378.08 291.11 C 377.56 292.42 377.04 293.05 376.94 292.50 Z M 196.57 281.58 C 197.08 279.55 196.85 279.00 195.49 279.00 C 194.06 279.00 193.97 278.74 195.00 277.50 C 195.68 276.68 196.64 276.00 197.12 276.00 C 198.36 276.00 198.22 282.75 196.96 283.52 C 196.29 283.94 196.15 283.26 196.57 281.58 Z M 377.00 282.50 C 377.00 281.68 377.45 281.00 378.00 281.00 C 378.55 281.00 379.00 281.68 379.00 282.50 C 379.00 283.32 378.55 284.00 378.00 284.00 C 377.45 284.00 377.00 283.32 377.00 282.50 Z M 193.00 272.91 C 193.00 272.41 193.40 272.00 193.89 272.00 C 194.38 272.00 195.07 270.88 195.41 269.50 C 195.76 268.12 196.53 267.00 197.14 267.00 C 197.79 267.00 197.99 267.92 197.63 269.25 C 197.30 270.49 197.02 271.79 197.01 272.13 C 196.99 273.14 193.00 273.91 193.00 272.91 Z M 377.00 268.00 C 377.00 267.45 377.45 267.00 378.00 267.00 C 378.55 267.00 379.00 267.45 379.00 268.00 C 379.00 268.55 378.55 269.00 378.00 269.00 C 377.45 269.00 377.00 268.55 377.00 268.00 Z M 195.66 264.39 C 195.27 263.23 195.22 261.59 195.55 260.74 C 195.87 259.90 195.66 258.91 195.07 258.54 C 194.48 258.18 194.00 257.01 194.00 255.94 C 194.00 254.05 194.06 254.06 196.05 256.05 C 197.80 257.80 197.97 258.70 197.23 262.30 C 196.52 265.76 196.24 266.13 195.66 264.39 Z M 193.08 263.42 C 193.13 262.25 193.36 262.01 193.68 262.81 C 193.97 263.53 193.94 264.40 193.60 264.73 C 193.27 265.06 193.04 264.47 193.08 263.42 Z M 376.71 254.01 C 376.99 252.92 377.61 252.26 378.07 252.54 C 379.05 253.15 378.16 256.00 376.99 256.00 C 376.55 256.00 376.42 255.11 376.71 254.01 Z M 374.23 249.00 C 374.23 247.07 374.44 246.29 374.69 247.25 C 374.94 248.21 374.94 249.79 374.69 250.75 C 374.44 251.71 374.23 250.93 374.23 249.00 Z M 196.56 250.09 C 196.25 249.59 196.42 248.13 196.93 246.84 C 197.81 244.65 197.88 244.71 197.94 247.75 C 198.00 251.04 197.58 251.75 196.56 250.09 Z M 194.81 244.32 C 195.53 244.03 196.40 244.06 196.73 244.40 C 197.06 244.73 196.47 244.96 195.42 244.92 C 194.25 244.87 194.01 244.64 194.81 244.32 Z M 374.75 242.42 C 374.34 242.01 374.04 240.73 374.08 239.58 C 374.12 238.42 374.39 238.07 374.68 238.80 C 375.07 239.78 375.55 239.65 376.57 238.30 C 377.85 236.61 377.94 236.61 377.97 238.25 C 377.99 239.21 377.58 240.00 377.07 240.00 C 376.56 240.00 376.00 240.72 375.82 241.59 C 375.65 242.46 375.16 242.84 374.75 242.42 Z M 192.00 238.50 C 192.00 237.68 192.66 237.00 193.47 237.00 C 194.36 237.00 194.71 237.59 194.36 238.50 C 194.05 239.32 193.38 240.00 192.89 240.00 C 192.40 240.00 192.00 239.32 192.00 238.50 Z M 196.50 235.00 C 196.16 234.45 196.36 234.00 196.94 234.00 C 197.52 234.00 198.00 234.45 198.00 235.00 C 198.00 235.55 197.80 236.00 197.56 236.00 C 197.32 236.00 196.84 235.55 196.50 235.00 Z M 377.02 234.81 C 377.02 234.09 377.47 232.82 378.00 232.00 C 378.79 230.78 378.97 230.91 378.98 232.69 C 378.99 233.90 378.55 235.16 378.00 235.50 C 377.45 235.84 377.01 235.53 377.02 234.81 Z M 196.62 224.20 C 196.35 223.76 196.55 222.75 197.05 221.95 C 197.77 220.82 197.97 220.99 197.98 222.75 C 198.00 225.06 197.49 225.61 196.62 224.20 Z M 193.08 217.42 C 193.13 216.25 193.36 216.01 193.68 216.81 C 193.97 217.53 193.94 218.40 193.60 218.73 C 193.27 219.06 193.04 218.47 193.08 217.42 Z M 377.16 215.00 C 377.16 213.62 377.38 213.06 377.66 213.75 C 377.94 214.44 377.94 215.56 377.66 216.25 C 377.38 216.94 377.16 216.38 377.16 215.00 Z M 194.64 213.49 C 194.32 212.67 194.47 212.00 194.97 212.00 C 196.33 212.00 197.17 213.78 196.12 214.43 C 195.62 214.74 194.95 214.32 194.64 213.49 Z M 375.28 209.99 C 375.45 207.64 377.35 207.90 377.82 210.33 C 378.01 211.30 377.51 212.00 376.64 212.00 C 375.74 212.00 375.19 211.18 375.28 209.99 Z M 193.00 208.41 C 193.00 207.08 192.97 205.67 192.93 205.28 C 192.88 204.88 193.38 204.37 194.03 204.16 C 194.81 203.90 194.99 204.46 194.56 205.81 C 194.07 207.36 194.40 207.93 195.95 208.17 C 197.83 208.48 197.79 208.59 195.49 209.66 C 193.21 210.72 193.00 210.61 193.00 208.41 Z M 30.48 203.97 C 30.22 203.55 30.72 202.94 31.59 202.60 C 33.95 201.70 37.19 201.88 36.57 202.88 C 35.84 204.07 31.07 204.92 30.48 203.97 Z M 41.59 204.15 C 41.30 203.68 41.71 202.44 42.50 201.40 C 43.86 199.60 43.94 199.64 43.97 202.25 C 44.00 204.89 42.69 205.93 41.59 204.15 Z M 51.64 203.49 C 51.29 202.59 51.64 202.00 52.53 202.00 C 54.15 202.00 54.52 203.56 53.10 204.44 C 52.61 204.74 51.95 204.32 51.64 203.49 Z M 75.00 204.00 C 75.00 203.45 75.45 203.00 76.00 203.00 C 76.55 203.00 77.00 203.45 77.00 204.00 C 77.00 204.55 76.55 205.00 76.00 205.00 C 75.45 205.00 75.00 204.55 75.00 204.00 Z M 109.50 204.00 C 109.16 203.45 109.36 203.00 109.94 203.00 C 110.52 203.00 111.00 203.45 111.00 204.00 C 111.00 204.55 110.80 205.00 110.56 205.00 C 110.32 205.00 109.84 204.55 109.50 204.00 Z M 197.00 203.56 C 197.00 202.70 197.45 202.00 198.00 202.00 C 198.55 202.00 199.00 202.42 199.00 202.94 C 199.00 203.46 198.55 204.16 198.00 204.50 C 197.45 204.84 197.00 204.42 197.00 203.56 Z M 12.51 202.98 C 12.86 202.42 13.56 202.23 14.07 202.54 C 15.46 203.40 15.20 204.00 13.44 204.00 C 12.58 204.00 12.16 203.54 12.51 202.98 Z M 18.75 203.34 C 19.44 203.06 20.56 203.06 21.25 203.34 C 21.94 203.62 21.38 203.84 20.00 203.84 C 18.62 203.84 18.06 203.62 18.75 203.34 Z M 23.00 203.00 C 23.00 202.45 23.45 202.00 24.00 202.00 C 24.55 202.00 25.00 202.45 25.00 203.00 C 25.00 203.55 24.55 204.00 24.00 204.00 C 23.45 204.00 23.00 203.55 23.00 203.00 Z M 61.81 203.32 C 62.53 203.03 63.40 203.06 63.73 203.40 C 64.06 203.73 63.47 203.96 62.42 203.92 C 61.25 203.87 61.01 203.64 61.81 203.32 Z M 66.00 202.00 C 66.59 200.90 67.25 200.00 67.47 200.00 C 67.69 200.00 67.81 200.90 67.73 202.00 C 67.64 203.10 66.98 204.00 66.25 204.00 C 65.24 204.00 65.18 203.53 66.00 202.00 Z M 79.00 203.00 C 79.83 202.47 81.17 202.03 82.00 202.03 C 83.33 202.03 83.33 202.14 82.00 203.00 C 81.17 203.53 79.83 203.97 79.00 203.97 C 77.67 203.97 77.67 203.86 79.00 203.00 Z M 83.50 201.59 L 80.50 198.85 L 83.50 199.51 C 87.15 200.31 87.26 200.41 86.84 202.59 C 86.55 204.10 86.09 203.96 83.50 201.59 Z M 121.50 203.16 C 122.94 201.73 125.52 201.33 125.81 202.50 C 125.95 203.05 124.81 203.65 123.28 203.83 C 121.44 204.04 120.84 203.82 121.50 203.16 Z M 134.95 202.56 C 135.66 201.70 137.40 201.00 138.82 201.00 C 141.99 201.00 140.63 202.47 136.58 203.43 C 134.00 204.04 133.81 203.94 134.95 202.56 Z M 149.35 202.46 C 148.54 200.35 149.89 199.21 151.04 201.03 C 152.26 202.96 152.24 204.00 150.97 204.00 C 150.40 204.00 149.67 203.31 149.35 202.46 Z M 155.00 203.11 C 155.00 202.62 155.71 201.94 156.58 201.61 C 159.03 200.67 159.35 200.87 158.00 202.50 C 156.62 204.16 155.00 204.49 155.00 203.11 Z M 178.50 203.00 C 178.84 202.45 179.32 202.00 179.56 202.00 C 179.80 202.00 180.00 202.45 180.00 203.00 C 180.00 203.55 179.52 204.00 178.94 204.00 C 178.36 204.00 178.16 203.55 178.50 203.00 Z M 186.50 203.00 C 186.84 202.45 188.10 202.03 189.31 202.07 C 191.42 202.14 191.43 202.17 189.50 203.00 C 186.75 204.18 185.77 204.18 186.50 203.00 Z M 206.00 203.00 C 206.00 202.45 206.93 202.00 208.06 202.00 C 209.19 202.00 209.84 202.45 209.50 203.00 C 209.16 203.55 208.23 204.00 207.44 204.00 C 206.65 204.00 206.00 203.55 206.00 203.00 Z M 216.00 203.14 C 216.00 202.66 217.12 202.49 218.50 202.76 C 219.88 203.02 221.00 203.41 221.00 203.62 C 221.00 203.83 219.88 204.00 218.50 204.00 C 217.12 204.00 216.00 203.61 216.00 203.14 Z M 227.88 203.50 C 227.81 203.22 227.69 202.66 227.61 202.25 C 227.53 201.84 227.13 200.97 226.72 200.32 C 226.31 199.67 226.43 198.85 226.99 198.51 C 227.55 198.16 228.24 198.58 228.51 199.44 C 228.78 200.30 229.21 201.68 229.47 202.50 C 229.73 203.32 229.50 204.00 228.97 204.00 C 228.44 204.00 227.94 203.78 227.88 203.50 Z M 243.00 201.50 C 243.00 198.24 244.46 198.24 244.64 201.50 C 244.72 202.88 244.39 204.00 243.89 204.00 C 243.40 204.00 243.00 202.88 243.00 201.50 Z M 282.00 203.00 C 282.00 202.45 282.45 202.00 283.00 202.00 C 283.55 202.00 284.00 202.45 284.00 203.00 C 284.00 203.55 283.55 204.00 283.00 204.00 C 282.45 204.00 282.00 203.55 282.00 203.00 Z M 300.00 203.00 C 300.00 202.45 300.48 202.00 301.06 202.00 C 301.64 202.00 301.84 202.45 301.50 203.00 C 301.16 203.55 300.68 204.00 300.44 204.00 C 300.20 204.00 300.00 203.55 300.00 203.00 Z M 304.65 202.53 C 304.34 201.72 304.47 200.83 304.93 200.54 C 305.39 200.26 306.01 200.92 306.29 202.01 C 306.89 204.30 305.50 204.74 304.65 202.53 Z M 327.50 203.00 C 327.16 202.45 327.58 202.00 328.44 202.00 C 329.30 202.00 330.00 202.45 330.00 203.00 C 330.00 203.55 329.58 204.00 329.06 204.00 C 328.54 204.00 327.84 203.55 327.50 203.00 Z M 344.00 203.12 C 344.00 202.57 344.45 201.84 345.00 201.50 C 345.55 201.16 346.00 201.33 346.00 201.88 C 346.00 202.43 345.55 203.16 345.00 203.50 C 344.45 203.84 344.00 203.67 344.00 203.12 Z M 362.00 202.94 C 362.00 202.36 362.45 202.16 363.00 202.50 C 363.55 202.84 364.00 203.32 364.00 203.56 C 364.00 203.80 363.55 204.00 363.00 204.00 C 362.45 204.00 362.00 203.52 362.00 202.94 Z M 105.50 201.13 C 107.15 200.11 108.72 199.47 109.00 199.72 C 109.76 200.40 105.83 203.00 104.06 202.99 C 103.16 202.99 103.77 202.20 105.50 201.13 Z M 116.00 202.00 C 116.00 201.45 116.48 201.00 117.06 201.00 C 117.64 201.00 117.84 201.45 117.50 202.00 C 117.16 202.55 116.68 203.00 116.44 203.00 C 116.20 203.00 116.00 202.55 116.00 202.00 Z M 129.00 202.00 C 129.00 201.45 129.45 201.00 130.00 201.00 C 130.55 201.00 131.00 201.45 131.00 202.00 C 131.00 202.55 130.55 203.00 130.00 203.00 C 129.45 203.00 129.00 202.55 129.00 202.00 Z M 212.13 201.66 C 210.99 200.28 211.56 199.00 213.33 199.00 C 213.88 199.00 214.04 199.30 213.68 199.66 C 213.31 200.02 213.52 200.92 214.13 201.66 C 214.81 202.48 214.86 203.00 214.24 203.00 C 213.69 203.00 212.74 202.40 212.13 201.66 Z M 222.74 201.88 C 221.78 201.34 221.00 200.47 221.00 199.95 C 221.00 198.34 223.75 198.90 224.42 200.64 C 225.24 202.79 224.86 203.06 222.74 201.88 Z M 310.00 202.00 C 310.00 201.45 310.70 201.00 311.56 201.00 C 312.42 201.00 312.84 201.45 312.50 202.00 C 312.16 202.55 311.46 203.00 310.94 203.00 C 310.42 203.00 310.00 202.55 310.00 202.00 Z M 317.80 201.80 C 318.73 200.87 319.27 200.87 320.20 201.80 C 321.13 202.73 320.87 203.00 319.00 203.00 C 317.13 203.00 316.87 202.73 317.80 201.80 Z M 332.00 202.11 C 332.00 200.98 334.60 199.93 335.40 200.74 C 336.61 201.94 335.95 203.00 334.00 203.00 C 332.90 203.00 332.00 202.60 332.00 202.11 Z M 76.00 201.03 C 76.00 199.67 77.78 198.83 78.43 199.88 C 78.74 200.38 78.32 201.05 77.49 201.36 C 76.67 201.68 76.00 201.53 76.00 201.03 Z M 94.55 201.09 C 94.23 200.56 94.39 199.87 94.91 199.55 C 95.44 199.23 96.13 199.39 96.45 199.91 C 96.77 200.44 96.61 201.13 96.09 201.45 C 95.56 201.77 94.87 201.61 94.55 201.09 Z M 204.00 201.00 C 204.00 200.45 204.45 200.00 205.00 200.00 C 205.55 200.00 206.00 200.45 206.00 201.00 C 206.00 201.55 205.55 202.00 205.00 202.00 C 204.45 202.00 204.00 201.55 204.00 201.00 Z M 250.00 201.00 C 250.00 200.45 250.68 200.00 251.50 200.00 C 252.32 200.00 253.00 200.45 253.00 201.00 C 253.00 201.55 252.32 202.00 251.50 202.00 C 250.68 202.00 250.00 201.55 250.00 201.00 Z M 295.00 201.00 C 295.00 200.45 295.48 200.00 296.06 200.00 C 296.64 200.00 296.84 200.45 296.50 201.00 C 296.16 201.55 295.68 202.00 295.44 202.00 C 295.20 202.00 295.00 201.55 295.00 201.00 Z M 323.81 201.32 C 324.53 201.03 325.40 201.06 325.73 201.40 C 326.06 201.73 325.47 201.96 324.42 201.92 C 323.25 201.87 323.01 201.64 323.81 201.32 Z M 60.47 199.96 C 60.15 199.43 60.81 199.00 61.94 199.00 C 64.36 199.00 64.60 199.56 62.53 200.35 C 61.72 200.66 60.80 200.48 60.47 199.96 Z M 122.00 199.94 C 122.00 199.36 122.45 199.16 123.00 199.50 C 123.55 199.84 124.00 200.32 124.00 200.56 C 124.00 200.80 123.55 201.00 123.00 201.00 C 122.45 201.00 122.00 200.52 122.00 199.94 Z M 190.00 200.07 C 190.00 198.90 193.92 197.59 194.80 198.46 C 195.55 199.21 193.09 200.96 191.25 200.98 C 190.56 200.99 190.00 200.58 190.00 200.07 Z M 216.00 200.00 C 216.00 199.45 216.48 199.00 217.06 199.00 C 217.64 199.00 217.84 199.45 217.50 200.00 C 217.16 200.55 216.68 201.00 216.44 201.00 C 216.20 201.00 216.00 200.55 216.00 200.00 Z M 232.50 200.00 C 232.84 199.45 233.32 199.00 233.56 199.00 C 233.80 199.00 234.00 199.45 234.00 200.00 C 234.00 200.55 233.52 201.00 232.94 201.00 C 232.36 201.00 232.16 200.55 232.50 200.00 Z M 237.54 200.07 C 236.86 198.96 238.44 197.77 239.36 198.69 C 240.31 199.64 240.13 201.00 239.06 201.00 C 238.54 201.00 237.86 200.58 237.54 200.07 Z M 284.00 200.00 C 284.00 199.45 284.45 199.00 285.00 199.00 C 285.55 199.00 286.00 199.45 286.00 200.00 C 286.00 200.55 285.55 201.00 285.00 201.00 C 284.45 201.00 284.00 200.55 284.00 200.00 Z M 374.00 199.44 C 374.00 198.58 374.45 198.16 375.00 198.50 C 375.55 198.84 376.00 199.54 376.00 200.06 C 376.00 200.58 375.55 201.00 375.00 201.00 C 374.45 201.00 374.00 200.30 374.00 199.44 Z M 182.00 199.00 C 182.00 198.45 182.48 198.00 183.06 198.00 C 183.64 198.00 183.84 198.45 183.50 199.00 C 183.16 199.55 182.68 200.00 182.44 200.00 C 182.20 200.00 182.00 199.55 182.00 199.00 Z M 12.00 196.94 C 12.00 196.36 12.45 196.16 13.00 196.50 C 13.55 196.84 14.00 197.32 14.00 197.56 C 14.00 197.80 13.55 198.00 13.00 198.00 C 12.45 198.00 12.00 197.52 12.00 196.94 Z M 18.84 195.05 C 18.75 194.20 18.75 192.70 18.84 191.72 C 18.92 190.74 18.32 189.67 17.49 189.36 C 15.66 188.66 15.52 187.00 17.30 187.00 C 18.26 187.00 18.55 184.91 18.45 178.75 C 18.37 174.21 17.98 169.76 17.59 168.85 C 17.19 167.94 17.25 166.96 17.72 166.67 C 18.19 166.38 18.44 135.40 18.27 97.82 C 17.93 21.84 17.94 20.73 18.54 20.13 C 18.77 19.89 30.33 19.61 44.23 19.51 C 58.13 19.40 70.51 18.98 71.75 18.59 C 72.99 18.19 74.00 18.23 74.00 18.68 C 74.00 19.70 145.51 19.60 149.14 18.58 C 150.59 18.17 152.02 18.22 152.31 18.69 C 152.79 19.47 178.22 19.70 180.50 18.95 C 182.74 18.21 188.00 20.21 188.07 21.83 C 188.10 22.75 188.22 36.32 188.32 52.00 C 188.42 67.68 188.86 81.04 189.29 81.71 C 189.72 82.37 189.52 83.80 188.84 84.88 C 187.95 86.32 187.89 87.74 188.64 90.18 C 189.29 92.29 189.32 94.53 188.74 96.28 C 188.18 97.95 188.18 100.12 188.73 101.77 C 189.24 103.27 189.32 106.04 188.92 107.92 C 188.51 109.81 188.49 112.28 188.86 113.42 C 189.24 114.57 189.43 119.10 189.30 123.50 C 189.16 127.90 189.04 132.18 189.03 133.00 C 189.01 133.82 189.13 148.37 189.30 165.32 C 189.46 182.27 189.21 196.37 188.75 196.65 C 188.29 196.94 187.37 196.75 186.71 196.24 C 186.00 195.70 174.84 195.48 160.00 195.72 C 145.97 195.94 133.82 196.09 133.00 196.06 C 131.80 196.02 118.18 196.10 111.00 196.18 C 108.08 196.22 70.45 196.22 67.00 196.18 C 58.23 196.09 45.38 196.17 32.75 196.38 C 20.94 196.57 18.98 196.39 18.84 195.05 Z M 194.14 194.09 C 193.14 193.47 193.09 193.06 193.96 192.52 C 195.33 191.68 196.36 192.43 195.85 193.91 C 195.65 194.51 194.94 194.59 194.14 194.09 Z M 14.08 191.42 C 14.13 190.25 14.36 190.01 14.68 190.81 C 14.97 191.53 14.94 192.40 14.60 192.73 C 14.27 193.06 14.04 192.47 14.08 191.42 Z M 193.00 187.94 C 193.00 186.81 193.45 186.16 194.00 186.50 C 194.55 186.84 195.00 187.77 195.00 188.56 C 195.00 189.35 194.55 190.00 194.00 190.00 C 193.45 190.00 193.00 189.07 193.00 187.94 Z M 12.00 186.93 C 12.00 185.08 14.02 182.00 15.24 182.00 C 16.10 182.00 16.09 182.31 15.20 183.20 C 14.54 183.86 14.00 185.21 14.00 186.20 C 14.00 187.19 13.55 188.00 13.00 188.00 C 12.45 188.00 12.00 187.52 12.00 186.93 Z M 193.71 180.99 C 193.37 179.70 193.68 179.00 194.59 179.00 C 196.14 179.00 196.53 181.56 195.11 182.43 C 194.63 182.73 193.99 182.08 193.71 180.99 Z M 13.15 174.56 C 13.34 173.64 13.95 172.92 14.50 172.95 C 15.98 173.03 15.71 175.26 14.15 175.78 C 13.31 176.06 12.94 175.61 13.15 174.56 Z M 196.54 175.07 C 196.23 174.56 196.42 173.86 196.98 173.51 C 197.54 173.16 198.00 173.58 198.00 174.44 C 198.00 176.20 197.40 176.46 196.54 175.07 Z M 122.20 170.51 C 135.48 164.91 145.76 154.40 153.48 138.50 C 159.91 125.28 163.82 113.09 166.59 97.66 C 169.88 79.31 172.26 45.00 170.24 45.00 C 169.82 45.00 161.39 53.10 151.50 63.00 C 141.61 72.90 133.00 81.00 132.36 81.00 C 131.12 81.00 111.93 56.48 106.32 47.72 C 105.34 46.19 103.98 45.07 103.30 45.22 C 102.06 45.50 98.52 50.31 84.86 70.24 C 80.81 76.14 77.02 80.98 76.42 80.99 C 75.83 80.99 66.68 72.23 56.08 61.50 C 45.48 50.78 36.57 42.00 36.27 42.00 C 35.28 42.00 37.15 68.49 39.13 82.46 C 43.74 114.91 51.67 137.32 64.36 153.81 C 69.19 160.09 72.67 163.06 81.11 168.11 C 88.66 172.62 94.83 173.99 106.00 173.63 C 113.72 173.39 116.75 172.80 122.20 170.51 Z M 192.56 173.10 C 192.21 172.53 192.70 170.86 193.66 169.39 C 195.82 166.09 196.58 167.66 194.63 171.41 C 193.83 172.95 192.93 173.69 192.56 173.10 Z M 12.16 164.00 C 12.16 162.62 12.38 162.06 12.66 162.75 C 12.94 163.44 12.94 164.56 12.66 165.25 C 12.38 165.94 12.16 165.38 12.16 164.00 Z M 92.50 163.81 C 84.03 161.35 77.56 156.80 70.90 148.62 C 66.23 142.88 63.75 138.43 57.70 125.00 C 55.05 119.10 50.09 99.87 47.64 86.00 C 46.10 77.24 44.91 63.00 45.73 63.00 C 45.98 63.00 53.03 69.98 61.39 78.50 C 69.75 87.03 77.02 94.00 77.54 94.00 C 78.07 93.99 80.30 91.22 82.50 87.83 C 84.70 84.44 89.75 77.13 93.72 71.59 C 97.68 66.04 101.52 60.67 102.23 59.65 C 103.43 57.95 103.90 58.29 108.27 63.91 C 110.87 67.26 113.00 70.29 113.00 70.64 C 113.00 70.99 113.61 71.78 114.35 72.39 C 115.09 73.00 119.18 78.11 123.45 83.75 C 127.72 89.39 131.42 94.00 131.68 94.00 C 131.93 94.00 138.52 87.70 146.32 80.00 C 154.12 72.31 160.95 65.96 161.50 65.90 C 162.63 65.78 162.50 68.02 160.44 83.50 C 158.12 100.89 157.07 105.71 152.81 118.50 C 143.46 146.52 129.42 161.91 110.32 165.04 C 102.53 166.31 100.69 166.18 92.50 163.81 Z M 193.02 161.31 C 193.01 159.55 193.48 157.82 194.07 157.46 C 196.03 156.25 196.29 157.91 194.66 161.22 L 193.05 164.50 L 193.02 161.31 Z M 13.58 158.13 C 13.15 157.44 13.07 156.60 13.40 156.27 C 14.29 155.37 15.27 156.69 14.79 158.14 C 14.45 159.15 14.21 159.15 13.58 158.13 Z M 193.00 153.50 C 193.00 152.58 193.48 151.99 194.07 152.19 C 194.67 152.39 195.15 152.98 195.15 153.50 C 195.15 154.02 194.67 154.61 194.07 154.81 C 193.48 155.01 193.00 154.42 193.00 153.50 Z M 15.00 151.94 C 15.00 151.36 15.45 151.16 16.00 151.50 C 16.55 151.84 17.00 152.32 17.00 152.56 C 17.00 152.80 16.55 153.00 16.00 153.00 C 15.45 153.00 15.00 152.52 15.00 151.94 Z M 11.51 149.01 C 10.87 147.98 13.93 143.09 15.25 143.03 C 16.33 142.99 16.19 143.73 14.47 147.05 C 12.82 150.26 12.43 150.51 11.51 149.01 Z M 194.45 148.91 C 194.08 148.31 194.28 147.32 194.89 146.71 C 195.70 145.90 196.00 146.18 196.00 147.80 C 196.00 150.21 195.48 150.59 194.45 148.91 Z M 192.00 142.62 C 192.00 140.27 194.53 137.20 195.60 138.26 C 196.17 138.84 193.31 145.00 192.47 145.00 C 192.21 145.00 192.00 143.93 192.00 142.62 Z M 11.00 140.21 C 11.00 139.76 11.56 138.80 12.25 138.07 C 13.25 137.02 13.25 136.66 12.25 136.29 C 11.56 136.04 11.05 134.63 11.12 133.17 C 11.19 131.47 11.40 131.14 11.69 132.25 C 11.94 133.21 12.79 134.00 13.57 134.00 C 15.73 134.00 15.30 138.33 13.00 139.77 C 11.90 140.45 11.00 140.65 11.00 140.21 Z M 192.53 135.05 C 192.17 134.47 192.39 134.00 193.01 134.00 C 193.67 134.00 193.88 133.20 193.52 132.06 C 193.18 131.00 193.49 129.17 194.20 128.01 C 195.32 126.19 195.25 125.75 193.75 124.89 C 192.79 124.35 192.00 122.99 192.00 121.88 C 192.00 120.19 192.22 120.08 193.34 121.20 C 195.82 123.68 196.72 126.47 196.26 130.21 C 195.76 134.18 193.67 136.89 192.53 135.05 Z M 11.45 124.67 C 11.10 123.25 11.04 121.50 11.32 120.79 C 11.61 120.08 11.88 120.60 11.92 121.94 C 12.00 124.30 12.05 124.32 13.47 122.44 C 14.58 120.97 14.94 120.87 14.94 122.00 C 14.94 122.83 14.30 124.34 13.52 125.37 C 12.17 127.16 12.07 127.13 11.45 124.67 Z M 195.00 118.00 C 195.00 116.90 194.45 116.11 193.77 116.25 C 193.10 116.39 192.39 115.48 192.20 114.23 L 191.86 111.96 L 194.43 114.35 C 196.99 116.72 197.90 120.00 196.00 120.00 C 195.45 120.00 195.00 119.10 195.00 118.00 Z M 12.00 117.44 C 12.00 116.58 12.46 116.16 13.02 116.51 C 13.58 116.86 13.77 117.56 13.46 118.07 C 12.60 119.46 12.00 119.20 12.00 117.44 Z M 12.67 113.33 C 11.52 112.18 11.94 111.00 13.50 111.00 C 14.32 111.00 15.00 111.67 15.00 112.50 C 15.00 114.06 13.82 114.48 12.67 113.33 Z M 195.00 108.00 C 195.00 107.45 195.45 107.00 196.00 107.00 C 196.55 107.00 197.00 107.45 197.00 108.00 C 197.00 108.55 196.55 109.00 196.00 109.00 C 195.45 109.00 195.00 108.55 195.00 108.00 Z M 12.00 105.44 C 12.00 104.58 12.46 104.16 13.02 104.51 C 13.58 104.86 13.77 105.56 13.46 106.07 C 12.60 107.46 12.00 107.20 12.00 105.44 Z M 194.64 103.50 C 194.32 102.67 194.50 102.00 195.03 102.00 C 195.56 102.00 196.00 102.67 196.00 103.50 C 196.00 104.33 195.82 105.00 195.61 105.00 C 195.39 105.00 194.95 104.33 194.64 103.50 Z M 11.47 101.95 C 10.55 100.46 11.28 99.94 12.89 100.93 C 13.75 101.46 13.85 101.98 13.18 102.39 C 12.61 102.74 11.84 102.55 11.47 101.95 Z M 191.68 100.29 C 191.27 99.63 191.27 97.83 191.67 96.30 C 192.08 94.76 192.32 92.60 192.21 91.50 C 192.04 89.64 192.10 89.65 193.13 91.67 C 194.38 94.12 192.99 102.40 191.68 100.29 Z M 14.00 99.00 C 14.00 98.45 13.32 98.00 12.50 98.00 C 10.51 98.00 10.53 93.63 12.52 91.98 C 14.37 90.45 15.85 91.55 14.18 93.22 C 12.53 94.87 12.71 97.00 14.50 97.00 C 15.32 97.00 16.00 97.67 16.00 98.50 C 16.00 99.33 15.55 100.00 15.00 100.00 C 14.45 100.00 14.00 99.55 14.00 99.00 Z M 365.93 89.58 C 366.58 88.80 367.00 85.88 366.88 83.09 C 366.75 80.31 366.84 77.86 367.07 77.65 C 368.03 76.82 375.91 76.05 376.30 76.75 C 376.53 77.16 377.03 78.78 377.40 80.34 C 378.06 83.07 377.97 83.15 375.04 82.51 C 369.61 81.32 371.52 84.42 377.47 86.44 C 384.53 88.85 386.01 87.84 385.98 80.63 C 385.96 74.44 384.36 62.95 382.81 57.77 C 381.82 54.44 381.31 54.00 378.53 54.00 C 376.79 54.00 372.77 54.48 369.59 55.07 C 366.41 55.66 363.63 55.97 363.43 55.76 C 362.95 55.28 366.30 46.37 367.36 45.30 C 367.79 44.86 370.92 43.83 374.32 43.00 C 377.72 42.17 380.37 41.05 380.21 40.50 C 379.88 39.36 378.12 39.33 372.75 40.37 L 369.00 41.09 L 369.00 36.55 C 369.00 32.73 368.69 32.00 367.08 32.00 C 363.32 32.00 362.00 33.15 362.00 36.42 C 362.00 40.94 360.16 42.91 355.16 43.76 C 349.75 44.68 349.64 46.40 354.98 46.81 C 359.37 47.14 359.45 47.22 358.03 49.76 C 357.49 50.72 355.92 54.29 354.53 57.70 C 353.15 61.11 350.89 65.92 349.51 68.39 C 346.38 73.99 346.37 75.00 349.45 75.00 C 352.10 75.00 357.00 69.59 357.00 66.66 C 357.00 64.46 358.73 64.53 359.36 66.75 C 359.63 67.71 360.13 71.42 360.46 75.00 C 361.72 88.53 362.19 91.00 363.47 91.00 C 364.18 91.00 365.28 90.36 365.93 89.58 Z M 11.00 89.00 C 11.00 88.45 11.48 88.00 12.06 88.00 C 12.64 88.00 12.84 88.45 12.50 89.00 C 12.16 89.55 11.68 90.00 11.44 90.00 C 11.20 90.00 11.00 89.55 11.00 89.00 Z M 14.50 87.00 C 14.84 86.45 15.32 86.00 15.56 86.00 C 15.80 86.00 16.00 86.45 16.00 87.00 C 16.00 87.55 15.52 88.00 14.94 88.00 C 14.36 88.00 14.16 87.55 14.50 87.00 Z M 193.38 85.84 C 192.91 85.10 192.50 84.28 192.46 84.00 C 192.42 83.72 192.03 81.99 191.59 80.15 C 191.09 78.01 191.20 76.40 191.90 75.70 C 192.70 74.90 193.00 75.41 193.00 77.58 C 193.00 79.22 193.73 81.59 194.62 82.86 C 195.70 84.40 195.90 85.50 195.23 86.17 C 194.56 86.84 193.94 86.73 193.38 85.84 Z M 11.63 83.47 C 10.73 81.12 10.79 81.00 12.97 81.00 C 14.34 81.00 14.76 80.53 14.34 79.44 C 14.01 78.59 13.12 78.12 12.37 78.41 C 11.58 78.72 11.00 78.29 11.00 77.41 C 11.00 76.57 11.42 76.14 11.93 76.46 C 12.44 76.77 13.14 76.58 13.49 76.02 C 14.72 74.02 16.00 75.05 16.00 78.04 C 16.00 79.71 15.16 81.99 14.13 83.09 C 12.46 84.88 12.18 84.92 11.63 83.47 Z M 192.50 73.00 C 192.16 72.45 192.55 72.00 193.36 72.00 C 194.17 72.00 195.06 71.44 195.34 70.75 C 195.62 70.06 195.88 70.51 195.92 71.75 C 196.00 74.04 193.67 74.89 192.50 73.00 Z M 366.00 71.10 C 366.00 67.78 366.66 67.25 371.41 66.79 C 373.88 66.54 374.44 66.94 375.12 69.45 C 375.57 71.07 375.80 72.53 375.64 72.70 C 375.48 72.86 373.24 73.28 370.67 73.63 L 366.00 74.27 L 366.00 71.10 Z M 12.00 71.64 C 12.00 70.80 12.45 69.84 13.00 69.50 C 14.58 68.52 14.16 66.72 12.50 67.36 C 11.38 67.79 11.02 67.24 11.07 65.22 C 11.13 62.80 11.24 62.72 12.00 64.50 C 12.79 66.33 12.87 66.29 12.94 64.00 L 13.01 61.50 L 14.43 64.22 C 15.33 65.93 15.58 67.93 15.12 69.65 C 14.33 72.62 12.00 74.10 12.00 71.64 Z M 192.00 67.00 C 192.00 66.45 192.45 66.00 193.00 66.00 C 193.55 66.00 194.00 66.45 194.00 67.00 C 194.00 67.55 193.55 68.00 193.00 68.00 C 192.45 68.00 192.00 67.55 192.00 67.00 Z M 193.25 65.28 C 192.56 65.03 192.05 63.41 192.12 61.67 C 192.19 59.54 192.39 59.16 192.72 60.50 C 192.99 61.60 193.68 63.07 194.25 63.77 C 195.46 65.26 195.03 65.91 193.25 65.28 Z M 364.68 64.35 C 363.52 63.18 363.93 58.96 365.25 58.56 C 365.94 58.35 367.96 57.92 369.74 57.61 C 372.58 57.12 373.05 57.36 373.61 59.60 C 373.97 61.00 373.86 62.51 373.38 62.95 C 372.13 64.09 365.49 65.16 364.68 64.35 Z M 195.00 61.06 C 195.00 59.93 195.45 59.00 196.00 59.00 C 196.55 59.00 197.00 59.65 197.00 60.44 C 197.00 61.23 196.55 62.16 196.00 62.50 C 195.45 62.84 195.00 62.19 195.00 61.06 Z M 14.62 58.17 C 14.18 56.90 14.08 55.58 14.41 55.26 C 15.45 54.22 16.17 55.75 15.79 58.16 L 15.43 60.50 L 14.62 58.17 Z M 11.00 55.56 C 11.00 52.49 11.57 52.25 12.29 55.00 C 12.58 56.10 12.40 57.25 11.91 57.56 C 11.41 57.87 11.00 56.97 11.00 55.56 Z M 193.04 54.75 C 193.02 53.79 192.55 53.00 192.00 53.00 C 191.45 53.00 191.00 52.50 191.00 51.89 C 191.00 51.28 191.66 51.04 192.47 51.35 C 193.29 51.66 194.37 51.16 194.90 50.22 C 196.74 46.92 196.79 49.55 194.95 53.00 C 193.80 55.17 193.07 55.83 193.04 54.75 Z M 12.00 51.56 C 12.00 50.70 12.45 50.00 13.00 50.00 C 13.55 50.00 14.00 50.42 14.00 50.94 C 14.00 51.46 13.55 52.16 13.00 52.50 C 12.45 52.84 12.00 52.42 12.00 51.56 Z M 11.12 47.78 C 11.05 46.28 11.91 43.44 13.02 41.47 C 15.15 37.68 14.92 35.71 12.47 36.65 C 11.37 37.07 11.00 36.42 11.00 34.07 C 11.00 31.25 11.20 31.04 12.99 31.99 C 14.08 32.58 15.20 34.06 15.47 35.28 C 16.16 38.35 15.65 47.69 14.74 48.59 C 14.33 49.00 14.00 48.81 14.00 48.17 C 14.00 46.34 12.20 46.80 11.69 48.75 C 11.40 49.84 11.19 49.47 11.12 47.78 Z M 192.00 47.14 C 192.00 45.44 193.18 43.00 194.01 43.00 C 195.02 43.00 194.07 46.84 192.88 47.57 C 192.40 47.87 192.00 47.68 192.00 47.14 Z M 191.73 41.39 C 191.10 40.76 192.11 36.00 192.87 36.02 C 193.21 36.02 194.12 36.42 194.87 36.90 C 195.98 37.60 195.85 38.15 194.20 39.80 C 193.08 40.92 191.97 41.64 191.73 41.39 Z M 193.44 34.72 C 192.50 32.26 194.05 30.33 195.24 32.47 C 195.88 33.61 195.85 34.55 195.14 35.26 C 194.38 36.02 193.89 35.87 193.44 34.72 Z M 14.00 29.00 C 14.00 28.45 14.45 28.00 15.00 28.00 C 15.55 28.00 16.00 28.45 16.00 29.00 C 16.00 29.55 15.55 30.00 15.00 30.00 C 14.45 30.00 14.00 29.55 14.00 29.00 Z M 191.54 29.07 C 191.23 28.56 191.42 27.86 191.98 27.51 C 192.54 27.16 193.00 27.58 193.00 28.44 C 193.00 30.20 192.40 30.46 191.54 29.07 Z M 11.60 25.41 C 11.25 24.48 11.25 23.44 11.61 23.11 C 11.98 22.77 12.48 23.08 12.73 23.79 C 13.11 24.83 13.49 24.84 14.71 23.82 C 15.99 22.76 16.17 22.87 15.85 24.52 C 15.37 27.02 12.45 27.63 11.60 25.41 Z M 194.14 22.00 C 194.05 21.18 193.69 19.38 193.35 18.00 C 192.87 16.07 193.00 15.76 193.94 16.63 C 194.61 17.25 194.96 19.05 194.73 20.63 C 194.49 22.21 194.23 22.82 194.14 22.00 Z M 11.08 16.42 C 11.13 15.25 11.36 15.01 11.68 15.81 C 11.97 16.53 11.94 17.40 11.60 17.73 C 11.27 18.06 11.04 17.47 11.08 16.42 Z M 14.00 14.94 C 14.00 13.81 14.45 13.16 15.00 13.50 C 15.55 13.84 16.00 14.77 16.00 15.56 C 16.00 16.35 15.55 17.00 15.00 17.00 C 14.45 17.00 14.00 16.07 14.00 14.94 Z M 52.73 15.06 C 52.45 13.99 52.47 12.86 52.78 12.56 C 53.73 11.60 57.85 11.95 58.52 13.04 C 58.94 13.71 58.26 13.85 56.58 13.43 C 53.34 12.62 53.06 14.69 56.25 15.97 C 58.45 16.85 58.44 16.87 55.87 16.94 C 54.07 16.98 53.07 16.38 52.73 15.06 Z M 67.50 16.00 C 67.84 15.45 68.57 15.00 69.12 15.00 C 69.67 15.00 69.84 15.45 69.50 16.00 C 69.16 16.55 68.43 17.00 67.88 17.00 C 67.33 17.00 67.16 16.55 67.50 16.00 Z M 98.81 16.32 C 99.53 16.03 100.40 16.06 100.73 16.40 C 101.06 16.73 100.47 16.96 99.42 16.92 C 98.25 16.87 98.01 16.64 98.81 16.32 Z M 110.51 15.98 C 110.86 15.42 111.56 15.23 112.07 15.54 C 113.46 16.40 113.20 17.00 111.44 17.00 C 110.58 17.00 110.16 16.54 110.51 15.98 Z M 130.51 15.98 C 130.86 15.42 131.56 15.23 132.07 15.54 C 133.46 16.40 133.20 17.00 131.44 17.00 C 130.58 17.00 130.16 16.54 130.51 15.98 Z M 135.00 15.97 C 135.00 15.44 135.68 15.00 136.50 15.00 C 137.32 15.00 138.00 15.18 138.00 15.39 C 138.00 15.61 137.32 16.05 136.50 16.36 C 135.68 16.68 135.00 16.50 135.00 15.97 Z M 153.00 16.00 C 153.00 15.45 153.45 15.00 154.00 15.00 C 154.55 15.00 155.00 15.45 155.00 16.00 C 155.00 16.55 154.55 17.00 154.00 17.00 C 153.45 17.00 153.00 16.55 153.00 16.00 Z M 164.00 16.00 C 164.00 15.45 164.45 15.00 165.00 15.00 C 165.55 15.00 166.00 15.45 166.00 16.00 C 166.00 16.55 165.55 17.00 165.00 17.00 C 164.45 17.00 164.00 16.55 164.00 16.00 Z M 168.00 16.00 C 168.00 15.45 168.70 15.00 169.56 15.00 C 170.42 15.00 170.84 15.45 170.50 16.00 C 170.16 16.55 169.46 17.00 168.94 17.00 C 168.42 17.00 168.00 16.55 168.00 16.00 Z M 176.00 16.00 C 176.00 15.45 176.68 15.00 177.50 15.00 C 178.32 15.00 179.00 15.45 179.00 16.00 C 179.00 16.55 178.32 17.00 177.50 17.00 C 176.68 17.00 176.00 16.55 176.00 16.00 Z M 184.00 16.06 C 184.00 15.54 184.45 14.84 185.00 14.50 C 185.55 14.16 186.00 14.58 186.00 15.44 C 186.00 16.30 185.55 17.00 185.00 17.00 C 184.45 17.00 184.00 16.58 184.00 16.06 Z M 22.81 15.32 C 23.53 15.03 24.40 15.06 24.73 15.40 C 25.06 15.73 24.47 15.96 23.42 15.92 C 22.25 15.87 22.01 15.64 22.81 15.32 Z M 73.54 15.07 C 73.23 14.56 73.42 13.86 73.98 13.51 C 74.54 13.16 75.00 13.33 75.00 13.87 C 75.00 14.41 75.79 15.06 76.75 15.31 C 78.10 15.66 78.00 15.79 76.31 15.88 C 75.10 15.95 73.86 15.58 73.54 15.07 Z M 80.81 15.32 C 81.53 15.03 82.40 15.06 82.73 15.40 C 83.06 15.73 82.47 15.96 81.42 15.92 C 80.25 15.87 80.01 15.64 80.81 15.32 Z M 96.43 14.89 C 96.05 14.28 96.36 13.38 97.12 12.90 C 99.40 11.46 100.13 11.88 99.00 14.00 C 97.77 16.30 97.38 16.43 96.43 14.89 Z M 102.00 14.00 C 102.00 12.90 102.45 12.00 103.00 12.00 C 103.55 12.00 104.00 12.90 104.00 14.00 C 104.00 15.10 103.55 16.00 103.00 16.00 C 102.45 16.00 102.00 15.10 102.00 14.00 Z M 125.00 15.06 C 125.00 14.54 125.45 13.84 126.00 13.50 C 126.55 13.16 127.00 13.58 127.00 14.44 C 127.00 15.30 126.55 16.00 126.00 16.00 C 125.45 16.00 125.00 15.58 125.00 15.06 Z M 159.50 15.00 C 159.84 14.45 160.32 14.00 160.56 14.00 C 160.80 14.00 161.00 14.45 161.00 15.00 C 161.00 15.55 160.52 16.00 159.94 16.00 C 159.36 16.00 159.16 15.55 159.50 15.00 Z M 63.00 14.00 C 63.00 13.45 63.45 13.00 64.00 13.00 C 64.55 13.00 65.00 13.45 65.00 14.00 C 65.00 14.55 64.55 15.00 64.00 15.00 C 63.45 15.00 63.00 14.55 63.00 14.00 Z M 86.00 14.19 C 86.00 13.65 86.71 12.94 87.58 12.61 C 88.56 12.23 89.01 12.46 88.77 13.19 C 88.27 14.68 86.00 15.50 86.00 14.19 Z M 114.00 14.00 C 114.00 13.45 114.67 13.00 115.50 13.00 C 116.33 13.00 117.00 13.45 117.00 14.00 C 117.00 14.55 116.33 15.00 115.50 15.00 C 114.67 15.00 114.00 14.55 114.00 14.00 Z M 34.50 13.00 C 34.84 12.45 35.57 12.00 36.12 12.00 C 36.67 12.00 36.84 12.45 36.50 13.00 C 36.16 13.55 35.43 14.00 34.88 14.00 C 34.33 14.00 34.16 13.55 34.50 13.00 Z M 48.00 12.97 C 48.00 12.44 48.67 12.00 49.50 12.00 C 50.33 12.00 51.00 12.18 51.00 12.39 C 51.00 12.61 50.33 13.05 49.50 13.36 C 48.67 13.68 48.00 13.50 48.00 12.97 Z M 40.81 12.32 C 41.53 12.03 42.40 12.06 42.73 12.40 C 43.06 12.73 42.47 12.96 41.42 12.92 C 40.25 12.87 40.01 12.64 40.81 12.32 Z M 80.81 12.32 C 81.53 12.03 82.40 12.06 82.73 12.40 C 83.06 12.73 82.47 12.96 81.42 12.92 C 80.25 12.87 80.01 12.64 80.81 12.32 Z" fill="none" stroke="rgba(255,255,255,0.92)" stroke-width="1.5" stroke-linejoin="round" fill-rule="evenodd"/>
</svg>
