<svg xmlns="http://www.w3.org/2000/svg" viewBox="0 0 400 225" width="400" height="225">
  <path d="M 0.00 112.50 L 0.00 0.00 L 200.00 0.00 L 400.00 0.00 L 400.00 112.50 L 400.00 225.00 L 200.00 225.00 L 0.00 225.00 L 0.00 112.50 Z M 91.00 217.46 C 116.58 217.15 155.13 216.80 176.67 216.69 C 198.21 216.59 216.16 216.18 216.55 215.79 C 216.94 215.39 218.13 215.53 219.18 216.10 C 221.40 217.28 228.39 215.44 227.45 213.92 C 227.14 213.41 227.92 213.04 229.19 213.08 C 230.46 213.12 230.94 213.38 230.25 213.66 C 229.56 213.94 229.00 214.53 229.00 214.97 C 229.00 215.42 266.11 215.74 311.46 215.69 L 393.93 215.60 L 394.48 213.05 C 394.78 211.65 394.77 172.03 394.45 125.00 C 393.70 14.56 393.63 9.30 392.81 8.48 C 391.94 7.61 198.23 7.58 117.00 8.44 C 83.17 8.80 44.70 9.18 31.50 9.30 L 7.50 9.50 L 7.50 113.71 C 7.50 217.16 7.51 217.93 9.50 218.22 C 10.60 218.38 18.93 218.41 28.00 218.28 C 37.08 218.15 65.42 217.78 91.00 217.46 Z M 14.00 215.00 C 14.00 214.45 14.48 214.00 15.06 214.00 C 15.64 214.00 15.84 214.45 15.50 215.00 C 15.16 215.55 14.68 216.00 14.44 216.00 C 14.20 216.00 14.00 215.55 14.00 215.00 Z M 41.50 215.00 C 41.84 214.45 42.79 214.00 43.62 214.00 C 44.44 214.00 44.84 214.45 44.50 215.00 C 44.16 215.55 43.21 216.00 42.38 216.00 C 41.56 216.00 41.16 215.55 41.50 215.00 Z M 24.81 214.32 C 25.53 214.03 26.40 214.06 26.73 214.40 C 27.06 214.73 26.47 214.96 25.42 214.92 C 24.25 214.87 24.01 214.64 24.81 214.32 Z M 52.81 214.32 C 53.53 214.03 54.40 214.06 54.73 214.40 C 55.06 214.73 54.47 214.96 53.42 214.92 C 52.25 214.87 52.01 214.64 52.81 214.32 Z M 64.00 214.00 C 64.00 213.45 64.48 213.00 65.06 213.00 C 65.64 213.00 65.84 213.45 65.50 214.00 C 65.16 214.55 64.68 215.00 64.44 215.00 C 64.20 215.00 64.00 214.55 64.00 214.00 Z M 109.81 214.32 C 110.53 214.03 111.40 214.06 111.73 214.40 C 112.06 214.73 111.47 214.96 110.42 214.92 C 109.25 214.87 109.01 214.64 109.81 214.32 Z M 131.64 213.51 C 131.95 212.68 132.61 212.26 133.10 212.56 C 134.52 213.44 134.15 215.00 132.53 215.00 C 131.64 215.00 131.29 214.41 131.64 213.51 Z M 150.81 214.32 C 151.53 214.03 152.40 214.06 152.73 214.40 C 153.06 214.73 152.47 214.96 151.42 214.92 C 150.25 214.87 150.01 214.64 150.81 214.32 Z M 116.50 213.00 C 116.16 212.45 116.36 212.00 116.94 212.00 C 117.52 212.00 118.00 212.45 118.00 213.00 C 118.00 213.55 117.80 214.00 117.56 214.00 C 117.32 214.00 116.84 213.55 116.50 213.00 Z M 126.00 213.00 C 126.00 212.45 126.45 212.00 127.00 212.00 C 127.55 212.00 128.00 212.45 128.00 213.00 C 128.00 213.55 127.55 214.00 127.00 214.00 C 126.45 214.00 126.00 213.55 126.00 213.00 Z M 144.81 213.32 C 145.53 213.03 146.40 213.06 146.73 213.40 C 147.06 213.73 146.47 213.96 145.42 213.92 C 144.25 213.87 144.01 213.64 144.81 213.32 Z M 156.81 213.32 C 157.53 213.03 158.40 213.06 158.73 213.40 C 159.06 213.73 158.47 213.96 157.42 213.92 C 156.25 213.87 156.01 213.64 156.81 213.32 Z M 170.75 213.34 C 171.44 213.06 172.56 213.06 173.25 213.34 C 173.94 213.62 173.38 213.84 172.00 213.84 C 170.62 213.84 170.06 213.62 170.75 213.34 Z M 183.81 213.32 C 184.53 213.03 185.40 213.06 185.73 213.40 C 186.06 213.73 185.47 213.96 184.42 213.92 C 183.25 213.87 183.01 213.64 183.81 213.32 Z M 194.81 213.32 C 195.53 213.03 196.40 213.06 196.73 213.40 C 197.06 213.73 196.47 213.96 195.42 213.92 C 194.25 213.87 194.01 213.64 194.81 213.32 Z M 203.81 213.32 C 204.53 213.03 205.40 213.06 205.73 213.40 C 206.06 213.73 205.47 213.96 204.42 213.92 C 203.25 213.87 203.01 213.64 203.81 213.32 Z M 208.75 213.29 C 209.99 213.06 212.01 213.06 213.25 213.29 C 214.49 213.53 213.47 213.73 211.00 213.73 C 208.53 213.73 207.51 213.53 208.75 213.29 Z M 216.80 212.80 C 217.73 211.87 218.27 211.87 219.20 212.80 C 220.13 213.73 219.87 214.00 218.00 214.00 C 216.13 214.00 215.87 213.73 216.80 212.80 Z M 239.76 211.52 C 239.17 208.45 239.61 208.00 243.17 208.00 C 245.45 208.00 245.99 208.44 245.97 210.25 C 245.94 212.33 245.84 212.37 244.61 210.75 C 242.61 208.12 240.68 208.55 241.24 211.50 C 241.51 212.88 241.39 214.00 240.98 214.00 C 240.57 214.00 240.02 212.89 239.76 211.52 Z M 244.81 213.32 C 245.53 213.03 246.40 213.06 246.73 213.40 C 247.06 213.73 246.47 213.96 245.42 213.92 C 244.25 213.87 244.01 213.64 244.81 213.32 Z M 253.00 212.47 C 253.00 211.63 251.99 210.53 250.75 210.03 C 248.56 209.15 248.57 209.13 251.14 209.06 C 252.68 209.03 254.04 209.66 254.39 210.58 C 255.27 212.87 255.14 214.00 254.00 214.00 C 253.45 214.00 253.00 213.31 253.00 212.47 Z M 281.81 213.32 C 282.53 213.03 283.40 213.06 283.73 213.40 C 284.06 213.73 283.47 213.96 282.42 213.92 C 281.25 213.87 281.01 213.64 281.81 213.32 Z M 291.47 212.95 C 290.52 211.41 291.82 210.42 293.10 211.70 C 293.82 212.42 293.84 212.98 293.16 213.40 C 292.60 213.75 291.84 213.55 291.47 212.95 Z M 309.00 212.50 C 307.96 211.25 308.10 211.00 309.88 211.00 C 311.10 211.00 312.00 211.64 312.00 212.50 C 312.00 213.32 311.61 214.00 311.12 214.00 C 310.64 214.00 309.68 213.32 309.00 212.50 Z M 320.81 213.32 C 321.53 213.03 322.40 213.06 322.73 213.40 C 323.06 213.73 322.47 213.96 321.42 213.92 C 320.25 213.87 320.01 213.64 320.81 213.32 Z M 137.50 212.00 C 137.84 211.45 139.10 211.01 140.31 211.02 C 142.09 211.03 142.22 211.21 141.00 212.00 C 139.03 213.27 136.71 213.27 137.50 212.00 Z M 186.75 212.34 C 187.44 212.06 188.56 212.06 189.25 212.34 C 189.94 212.62 189.38 212.84 188.00 212.84 C 186.62 212.84 186.06 212.62 186.75 212.34 Z M 265.50 212.00 C 265.84 211.45 266.77 211.00 267.56 211.00 C 268.35 211.00 269.00 211.45 269.00 212.00 C 269.00 212.55 268.07 213.00 266.94 213.00 C 265.81 213.00 265.16 212.55 265.50 212.00 Z M 275.00 212.00 C 275.00 211.45 275.45 211.00 276.00 211.00 C 276.55 211.00 277.00 211.45 277.00 212.00 C 277.00 212.55 276.55 213.00 276.00 213.00 C 275.45 213.00 275.00 212.55 275.00 212.00 Z M 316.09 212.27 C 314.42 211.96 314.07 211.58 314.95 211.03 C 316.46 210.10 320.00 210.86 320.00 212.12 C 320.00 212.60 319.66 212.94 319.25 212.86 C 318.84 212.79 317.41 212.52 316.09 212.27 Z M 383.00 211.89 C 383.00 211.06 387.89 210.32 390.25 210.80 C 393.65 211.48 391.94 212.58 387.50 212.57 C 385.02 212.57 383.00 212.26 383.00 211.89 Z M 86.50 211.00 C 86.84 210.45 87.32 210.00 87.56 210.00 C 87.80 210.00 88.00 210.45 88.00 211.00 C 88.00 211.55 87.52 212.00 86.94 212.00 C 86.36 212.00 86.16 211.55 86.50 211.00 Z M 219.00 211.00 C 219.00 210.45 219.45 210.00 220.00 210.00 C 220.55 210.00 221.00 210.45 221.00 211.00 C 221.00 211.55 220.55 212.00 220.00 212.00 C 219.45 212.00 219.00 211.55 219.00 211.00 Z M 223.00 210.74 C 223.00 209.92 223.68 208.68 224.50 208.00 C 225.72 206.99 226.00 207.04 226.00 208.26 C 226.00 209.08 225.32 210.32 224.50 211.00 C 223.28 212.01 223.00 211.96 223.00 210.74 Z M 258.30 211.21 C 256.76 210.23 257.91 208.45 260.62 207.61 C 262.46 207.04 262.67 207.28 262.25 209.48 C 261.76 212.03 260.48 212.59 258.30 211.21 Z M 360.00 210.50 C 358.96 209.25 359.10 209.00 360.88 209.00 C 362.10 209.00 363.00 209.64 363.00 210.50 C 363.00 211.32 362.61 212.00 362.12 212.00 C 361.64 212.00 360.68 211.32 360.00 210.50 Z M 374.81 211.32 C 375.53 211.03 376.40 211.06 376.73 211.40 C 377.06 211.73 376.47 211.96 375.42 211.92 C 374.25 211.87 374.01 211.64 374.81 211.32 Z M 270.00 209.94 C 270.00 209.36 270.45 209.16 271.00 209.50 C 271.55 209.84 272.00 210.32 272.00 210.56 C 272.00 210.80 271.55 211.00 271.00 211.00 C 270.45 211.00 270.00 210.52 270.00 209.94 Z M 186.50 209.00 C 186.84 208.45 188.78 208.04 190.81 208.10 C 194.12 208.19 194.25 208.28 192.00 209.00 C 188.39 210.16 185.79 210.16 186.50 209.00 Z M 216.51 208.98 C 216.86 208.42 217.56 208.23 218.07 208.54 C 219.46 209.40 219.20 210.00 217.44 210.00 C 216.58 210.00 216.16 209.54 216.51 208.98 Z M 278.50 209.00 C 278.16 208.45 278.58 208.00 279.44 208.00 C 280.30 208.00 281.00 208.45 281.00 209.00 C 281.00 209.55 280.58 210.00 280.06 210.00 C 279.54 210.00 278.84 209.55 278.50 209.00 Z M 300.16 209.12 C 299.18 208.50 299.53 208.13 301.45 207.77 C 303.05 207.46 303.94 207.68 303.73 208.32 C 303.24 209.79 301.75 210.12 300.16 209.12 Z M 356.50 209.00 C 356.16 208.45 356.36 208.00 356.94 208.00 C 357.52 208.00 358.00 208.45 358.00 209.00 C 358.00 209.55 357.80 210.00 357.56 210.00 C 357.32 210.00 356.84 209.55 356.50 209.00 Z M 17.73 202.55 C 18.10 197.05 17.92 196.00 16.59 196.00 C 14.54 196.00 14.56 194.14 16.62 191.87 C 17.80 190.57 18.06 189.12 17.57 186.54 C 17.21 184.59 16.48 183.00 15.95 183.00 C 15.43 183.00 15.00 182.55 15.00 182.00 C 15.00 181.45 15.68 181.00 16.50 181.00 C 19.08 181.00 18.25 176.35 15.25 173.97 L 12.50 171.80 L 15.00 172.15 C 16.96 172.42 17.57 172.02 17.82 170.25 C 18.06 168.56 17.75 168.16 16.57 168.61 C 15.57 169.00 15.00 168.66 15.00 167.69 C 15.00 166.85 15.40 166.02 15.88 165.83 C 16.37 165.65 17.08 163.20 17.46 160.40 C 18.01 156.34 17.81 154.95 16.50 153.65 C 14.99 152.14 14.99 151.87 16.46 150.40 C 17.64 149.22 17.88 147.86 17.36 145.15 C 16.99 143.14 16.75 140.82 16.85 140.00 C 17.37 135.57 17.19 113.11 16.62 112.20 C 16.26 111.62 16.38 110.88 16.88 110.57 C 17.96 109.90 17.64 69.34 16.53 66.74 C 16.11 65.77 16.19 64.42 16.69 63.74 C 17.92 62.07 16.81 56.50 15.25 56.50 C 14.56 56.50 14.11 56.05 14.25 55.50 C 14.39 54.95 15.14 54.50 15.92 54.50 C 17.73 54.49 18.36 52.58 17.59 49.49 C 17.18 47.87 16.48 47.26 15.49 47.64 C 14.67 47.96 14.00 47.70 14.00 47.08 C 14.00 46.45 14.68 45.68 15.50 45.36 C 17.60 44.56 17.47 40.83 15.35 41.21 C 14.45 41.37 13.51 40.94 13.27 40.25 C 13.02 39.53 13.66 39.00 14.80 39.00 C 17.18 39.00 18.02 35.04 17.25 27.35 C 16.56 20.42 17.30 20.12 34.22 20.59 C 42.04 20.81 49.08 20.54 50.59 19.97 C 52.06 19.41 53.75 19.33 54.37 19.80 C 54.99 20.26 59.10 20.47 63.50 20.27 C 67.90 20.06 72.29 19.90 73.25 19.92 C 74.21 19.94 75.56 19.96 76.25 19.97 C 91.68 20.22 160.95 19.15 161.75 18.66 C 162.36 18.28 163.11 18.37 163.41 18.86 C 163.72 19.35 167.69 19.55 172.23 19.29 C 176.78 19.04 181.40 18.90 182.50 19.00 C 186.53 19.35 187.57 19.29 191.18 18.56 L 194.86 17.80 L 194.60 25.65 C 194.46 29.97 194.71 34.81 195.15 36.42 C 195.65 38.22 195.55 39.84 194.90 40.62 C 194.31 41.33 194.13 42.84 194.50 43.99 C 194.86 45.13 195.20 58.00 195.24 72.57 C 195.31 92.71 195.64 99.48 196.63 100.78 C 197.73 102.23 197.96 100.69 198.10 91.00 C 198.19 84.67 198.15 77.31 198.03 74.63 C 197.86 71.14 198.13 69.96 198.96 70.47 C 199.67 70.91 199.87 72.32 199.48 74.09 C 198.96 76.47 199.13 76.89 200.42 76.39 C 201.28 76.06 201.76 75.42 201.48 74.96 C 201.20 74.51 201.38 73.88 201.88 73.57 C 202.38 73.26 203.06 73.72 203.39 74.58 C 204.03 76.23 202.62 79.52 200.29 81.85 C 199.53 82.61 199.21 83.52 199.59 83.87 C 199.97 84.22 200.47 83.94 200.72 83.25 C 201.56 80.89 203.00 82.00 203.00 85.00 C 203.00 86.65 202.50 88.00 201.89 88.00 C 201.28 88.00 201.05 88.69 201.38 89.54 C 201.71 90.41 201.33 91.32 200.48 91.64 C 198.53 92.39 198.58 94.00 200.55 94.00 C 201.41 94.00 202.57 95.35 203.15 97.00 C 205.00 102.32 206.00 100.22 206.00 91.00 C 206.00 85.01 205.62 82.00 204.88 82.00 C 204.07 82.00 204.06 81.64 204.84 80.70 C 205.85 79.48 205.89 24.84 204.88 21.08 C 204.64 20.18 205.58 19.45 207.50 19.06 C 211.38 18.26 313.75 18.41 314.55 19.21 C 314.88 19.54 316.35 19.49 317.83 19.09 C 320.25 18.43 347.48 18.55 369.00 19.31 C 373.68 19.48 378.74 19.28 380.25 18.88 C 382.63 18.24 383.00 18.43 383.03 20.32 C 383.13 27.58 383.92 152.26 384.01 175.40 C 384.09 195.10 383.79 203.51 382.99 204.00 C 382.37 204.39 348.03 204.81 306.68 204.95 C 221.03 205.24 210.09 205.40 208.00 206.34 C 206.70 206.93 206.51 204.64 206.55 188.76 C 206.62 162.33 204.60 155.64 203.60 179.00 C 202.96 193.87 202.59 197.12 201.26 199.49 C 200.29 201.23 200.09 201.02 199.45 197.56 C 198.97 195.03 199.15 192.99 199.95 191.71 C 200.91 190.17 200.92 189.57 199.98 188.99 C 199.31 188.57 198.64 185.92 198.49 183.08 C 198.26 178.77 198.44 178.12 199.61 179.09 C 200.70 180.00 201.00 179.89 201.00 178.56 C 201.00 177.64 200.55 177.16 200.00 177.50 C 198.89 178.19 198.67 176.02 199.60 173.59 C 199.94 172.72 200.61 172.26 201.10 172.56 C 201.60 172.87 202.00 172.64 202.00 172.06 C 202.00 171.48 201.56 171.00 201.02 171.00 C 199.63 171.00 201.69 165.98 204.17 163.32 C 205.85 161.53 206.24 159.69 206.36 153.07 C 206.44 148.63 206.80 145.00 207.17 145.00 C 207.53 145.00 209.32 149.14 211.13 154.21 C 212.94 159.28 215.57 164.74 216.96 166.35 C 231.42 183.00 234.69 184.86 251.03 185.72 L 262.28 186.31 L 261.55 182.44 C 260.00 174.14 250.96 162.65 242.79 158.58 C 238.74 156.56 236.12 156.00 230.78 156.00 C 224.26 156.00 223.90 155.87 222.85 153.25 C 216.24 136.73 210.70 120.97 211.28 120.39 C 211.58 120.09 216.70 120.56 222.66 121.44 C 228.62 122.31 236.88 123.51 241.00 124.09 C 253.45 125.86 253.00 125.61 253.00 130.64 C 253.00 133.08 254.21 138.77 255.70 143.28 C 258.00 150.28 259.19 152.28 263.76 156.76 C 269.32 162.23 278.25 167.97 281.20 167.99 C 282.40 168.00 283.09 166.89 283.51 164.25 C 283.84 162.19 284.27 159.71 284.46 158.74 C 284.85 156.82 282.70 145.65 280.89 140.16 C 280.27 138.28 278.19 135.00 276.26 132.87 C 274.25 130.64 273.35 129.00 274.13 129.00 C 278.52 129.02 303.28 133.26 309.80 135.11 C 321.04 138.31 331.00 138.17 337.64 134.74 C 343.53 131.69 355.97 121.15 355.99 119.19 C 356.01 116.91 343.36 111.91 336.03 111.30 C 327.60 110.59 323.28 111.94 315.50 117.71 C 310.11 121.70 309.09 122.10 305.50 121.58 C 303.30 121.26 296.55 120.34 290.50 119.52 C 284.45 118.71 275.23 117.37 270.00 116.55 C 252.58 113.83 223.78 109.86 220.84 109.78 C 216.95 109.67 216.26 108.21 219.14 106.19 C 223.88 102.87 251.51 80.57 251.83 79.80 C 252.54 78.11 254.61 79.14 257.29 82.50 C 260.70 86.77 269.38 93.30 274.48 95.43 C 281.47 98.35 303.38 96.77 304.73 93.25 C 305.61 90.98 298.10 81.25 291.88 76.57 C 284.30 70.87 280.38 69.63 271.86 70.24 C 268.09 70.51 265.03 70.46 265.06 70.12 C 265.09 69.78 267.54 67.59 270.50 65.25 C 273.99 62.49 276.89 61.00 278.75 61.00 C 283.90 61.00 293.74 56.98 298.19 53.06 C 301.86 49.82 309.50 38.25 311.51 32.87 C 313.02 28.84 299.25 27.75 288.54 31.06 C 280.43 33.56 275.79 37.52 270.66 46.28 C 268.59 49.83 265.68 53.85 264.20 55.23 C 258.29 60.72 234.78 79.12 234.30 78.64 C 234.02 78.35 234.57 76.07 235.53 73.57 C 236.83 70.15 237.14 67.15 236.78 61.52 C 236.36 55.00 235.65 52.73 231.37 44.33 C 228.65 39.00 225.99 34.50 225.45 34.32 C 223.92 33.81 217.92 43.69 215.36 50.94 C 212.13 60.09 212.22 68.74 215.65 78.19 C 217.11 82.21 218.68 85.93 219.15 86.45 C 221.10 88.63 219.66 91.10 213.75 95.73 C 203.05 104.13 200.97 105.37 199.72 104.12 C 198.89 103.29 198.98 103.00 200.05 102.98 C 200.85 102.98 202.18 102.53 203.00 101.98 C 204.33 101.11 204.33 100.89 203.00 100.02 C 200.86 98.61 199.98 98.77 200.62 100.46 C 200.99 101.42 200.34 102.13 198.72 102.53 C 196.99 102.97 194.06 102.06 188.88 99.46 C 184.82 97.43 181.38 95.66 181.23 95.53 C 181.08 95.40 181.69 92.19 182.58 88.40 C 184.92 78.40 184.14 68.80 180.47 62.53 C 177.15 56.87 166.35 45.00 164.52 45.00 C 163.83 45.00 162.42 47.14 161.39 49.75 C 158.77 56.34 158.68 75.90 161.23 80.87 C 163.04 84.39 162.72 86.82 160.66 85.16 C 159.00 83.81 150.84 79.48 132.43 70.19 C 123.60 65.73 111.25 59.36 104.98 56.03 C 98.72 52.71 92.89 50.22 92.02 50.49 C 90.98 50.82 89.83 49.84 88.61 47.58 C 85.85 42.45 78.10 34.93 73.46 32.88 C 68.84 30.84 55.85 29.60 49.32 30.58 C 43.50 31.45 43.61 33.70 49.87 42.62 C 58.83 55.38 66.50 59.59 82.39 60.46 C 88.55 60.80 90.68 61.48 98.40 65.59 L 107.30 70.32 L 102.40 71.58 C 94.08 73.73 92.58 74.61 86.95 80.69 C 80.82 87.31 74.26 98.66 75.71 100.11 C 77.76 102.16 89.32 102.19 96.80 100.17 C 107.50 97.29 110.19 95.14 121.20 80.72 L 122.89 78.50 L 135.70 85.03 C 168.68 101.85 187.00 111.51 187.00 112.08 C 187.00 112.42 183.96 113.96 180.25 115.50 C 176.54 117.03 170.50 119.58 166.83 121.15 C 163.17 122.72 159.57 123.99 158.83 123.99 C 158.10 123.98 155.93 121.46 154.00 118.39 C 146.08 105.75 138.08 101.71 121.92 102.21 C 111.24 102.54 111.25 102.53 115.18 110.79 C 119.62 120.13 131.00 131.00 136.34 131.00 C 140.78 131.00 136.91 133.93 127.23 137.90 C 121.33 140.32 109.30 145.33 100.50 149.02 C 90.84 153.08 82.41 155.98 79.23 156.33 C 69.52 157.40 62.98 160.11 58.05 165.09 C 53.19 170.01 43.98 186.31 45.31 187.64 C 46.93 189.27 60.46 188.41 67.52 186.24 C 75.45 183.80 81.24 179.44 86.21 172.16 C 87.96 169.60 90.09 166.96 90.95 166.30 C 93.14 164.62 107.13 158.79 107.67 159.34 C 107.92 159.59 106.87 162.20 105.32 165.15 C 103.20 169.20 102.43 172.24 102.16 177.66 C 101.75 185.54 103.63 199.00 105.13 199.00 C 107.70 199.00 114.21 194.56 118.28 190.03 C 125.47 182.04 128.00 176.05 128.00 167.05 C 128.00 162.89 127.54 157.91 126.98 155.99 C 126.05 152.79 126.20 152.31 128.73 150.25 C 130.25 149.02 131.85 148.01 132.29 148.00 C 132.94 148.00 158.96 137.17 169.50 132.52 C 171.15 131.79 175.43 129.99 179.00 128.53 C 182.57 127.07 187.30 125.06 189.50 124.07 C 197.13 120.62 197.89 120.59 199.04 123.61 C 200.20 126.66 199.58 129.48 197.97 128.48 C 197.39 128.12 197.19 126.97 197.53 125.92 C 197.86 124.86 197.71 124.00 197.18 124.00 C 195.92 124.00 195.06 127.50 195.70 129.98 C 196.13 131.60 196.57 131.76 198.20 130.90 C 201.60 129.07 201.40 130.80 197.88 133.64 C 190.84 139.32 183.59 147.69 181.20 152.89 C 179.19 157.28 178.63 160.38 178.23 169.50 C 177.92 176.57 178.11 180.95 178.75 181.35 C 180.46 182.40 186.18 179.94 192.75 175.30 C 199.03 170.88 200.29 170.72 197.49 174.71 C 196.31 176.39 196.01 179.83 196.10 190.49 C 196.16 197.99 195.98 204.36 195.69 204.64 C 195.22 205.11 154.85 206.28 149.00 206.00 C 147.62 205.93 145.82 205.85 145.00 205.82 C 143.15 205.75 44.28 207.07 30.50 207.35 C 25.00 207.46 19.78 207.90 18.89 208.33 C 17.48 209.01 17.34 208.31 17.73 202.55 Z M 181.81 208.32 C 182.53 208.03 183.40 208.06 183.73 208.40 C 184.06 208.73 183.47 208.96 182.42 208.92 C 181.25 208.87 181.01 208.64 181.81 208.32 Z M 204.08 207.42 C 204.13 206.25 204.36 206.01 204.68 206.81 C 204.97 207.53 204.94 208.40 204.60 208.73 C 204.27 209.06 204.04 208.47 204.08 207.42 Z M 272.50 208.00 C 272.16 207.45 272.56 207.00 273.38 207.00 C 274.21 207.00 275.16 207.45 275.50 208.00 C 275.84 208.55 275.44 209.00 274.62 209.00 C 273.79 209.00 272.84 208.55 272.50 208.00 Z M 369.00 207.94 C 369.00 207.36 369.45 207.16 370.00 207.50 C 370.55 207.84 371.00 208.32 371.00 208.56 C 371.00 208.80 370.55 209.00 370.00 209.00 C 369.45 209.00 369.00 208.52 369.00 207.94 Z M 253.81 207.32 C 254.53 207.03 255.40 207.06 255.73 207.40 C 256.06 207.73 255.47 207.96 254.42 207.92 C 253.25 207.87 253.01 207.64 253.81 207.32 Z M 284.81 207.32 C 285.53 207.03 286.40 207.06 286.73 207.40 C 287.06 207.73 286.47 207.96 285.42 207.92 C 284.25 207.87 284.01 207.64 284.81 207.32 Z M 201.52 204.09 C 199.60 203.34 199.61 203.28 201.77 202.12 C 203.74 201.07 204.00 201.17 204.00 202.96 C 204.00 204.08 203.89 204.97 203.75 204.93 C 203.61 204.89 202.61 204.51 201.52 204.09 Z M 13.00 200.00 C 14.94 198.75 16.00 198.75 16.00 200.00 C 16.00 200.55 14.99 200.99 13.75 200.98 C 11.93 200.97 11.79 200.78 13.00 200.00 Z M 386.00 195.76 C 386.00 194.45 386.63 192.52 387.41 191.46 C 388.73 189.65 388.81 189.71 388.66 192.51 C 388.47 196.34 386.00 199.35 386.00 195.76 Z M 389.54 193.07 C 389.23 192.56 389.42 191.86 389.98 191.51 C 390.54 191.16 391.00 191.58 391.00 192.44 C 391.00 194.20 390.40 194.46 389.54 193.07 Z M 387.16 187.00 C 387.16 185.62 387.38 185.06 387.66 185.75 C 387.94 186.44 387.94 187.56 387.66 188.25 C 387.38 188.94 387.16 188.38 387.16 187.00 Z M 14.00 185.50 C 14.00 184.68 14.45 184.00 15.00 184.00 C 15.55 184.00 16.00 184.68 16.00 185.50 C 16.00 186.32 15.55 187.00 15.00 187.00 C 14.45 187.00 14.00 186.32 14.00 185.50 Z M 388.50 183.00 C 388.84 182.45 389.32 182.00 389.56 182.00 C 389.80 182.00 390.00 182.45 390.00 183.00 C 390.00 183.55 389.52 184.00 388.94 184.00 C 388.36 184.00 388.16 183.55 388.50 183.00 Z M 386.72 177.94 C 386.13 173.53 387.77 167.17 388.77 170.00 C 389.06 170.82 389.79 171.87 390.40 172.33 C 391.18 172.91 391.14 173.30 390.25 173.66 C 389.56 173.94 388.99 175.37 388.98 176.83 C 388.96 181.69 387.33 182.49 386.72 177.94 Z M 390.08 180.42 C 390.13 179.25 390.36 179.01 390.68 179.81 C 390.97 180.53 390.94 181.40 390.60 181.73 C 390.27 182.06 390.04 181.47 390.08 180.42 Z M 12.44 177.58 C 11.35 176.78 10.89 175.80 11.39 175.33 C 11.88 174.87 12.47 175.06 12.72 175.75 C 12.97 176.44 13.80 177.00 14.58 177.00 C 15.36 177.00 16.00 177.45 16.00 178.00 C 16.00 179.40 14.72 179.25 12.44 177.58 Z M 386.46 165.93 C 386.10 165.35 386.04 164.63 386.33 164.33 C 387.05 163.62 389.00 164.88 389.00 166.06 C 389.00 167.34 387.27 167.25 386.46 165.93 Z M 14.00 163.56 C 14.00 162.70 14.45 162.00 15.00 162.00 C 15.55 162.00 16.00 162.42 16.00 162.94 C 16.00 163.46 15.55 164.16 15.00 164.50 C 14.45 164.84 14.00 164.42 14.00 163.56 Z M 390.08 159.42 C 390.13 158.25 390.36 158.01 390.68 158.81 C 390.97 159.53 390.94 160.40 390.60 160.73 C 390.27 161.06 390.04 160.47 390.08 159.42 Z M 387.11 151.19 C 387.22 150.26 386.97 148.24 386.54 146.70 C 385.46 142.84 386.52 142.24 388.38 145.66 C 389.76 148.21 389.92 148.28 389.96 146.33 C 390.01 143.54 388.99 140.89 388.08 141.45 C 386.51 142.42 387.59 133.98 389.25 132.32 C 390.92 130.65 391.00 130.68 391.00 132.79 C 391.00 134.00 390.55 135.00 390.00 135.00 C 388.75 135.00 388.67 139.71 389.91 140.17 C 390.89 140.53 391.29 143.47 391.11 149.04 C 391.02 151.85 390.58 152.61 388.95 152.73 C 387.55 152.83 386.96 152.34 387.11 151.19 Z M 11.00 150.06 C 11.00 149.54 11.45 148.84 12.00 148.50 C 12.55 148.16 13.00 148.58 13.00 149.44 C 13.00 150.30 12.55 151.00 12.00 151.00 C 11.45 151.00 11.00 150.58 11.00 150.06 Z M 10.00 141.00 C 10.00 140.45 10.70 140.00 11.56 140.00 C 12.42 140.00 12.84 140.45 12.50 141.00 C 12.16 141.55 11.46 142.00 10.94 142.00 C 10.42 142.00 10.00 141.55 10.00 141.00 Z M 10.00 135.12 C 10.00 134.57 10.45 133.84 11.00 133.50 C 11.55 133.16 12.00 133.33 12.00 133.88 C 12.00 134.43 11.55 135.16 11.00 135.50 C 10.45 135.84 10.00 135.67 10.00 135.12 Z M 10.81 130.32 C 11.53 130.03 12.40 130.06 12.73 130.40 C 13.06 130.73 12.47 130.96 11.42 130.92 C 10.25 130.87 10.01 130.64 10.81 130.32 Z M 387.62 126.29 C 387.28 125.94 387.63 124.95 388.39 124.08 C 389.16 123.21 389.97 121.60 390.19 120.50 C 390.57 118.54 390.59 118.54 391.15 120.57 C 391.73 122.69 388.79 127.46 387.62 126.29 Z M 386.08 122.42 C 386.13 121.25 386.36 121.01 386.68 121.81 C 386.97 122.53 386.94 123.40 386.60 123.73 C 386.27 124.06 386.04 123.47 386.08 122.42 Z M 10.81 117.32 C 11.53 117.03 12.40 117.06 12.73 117.40 C 13.06 117.73 12.47 117.96 11.42 117.92 C 10.25 117.87 10.01 117.64 10.81 117.32 Z M 387.03 116.90 C 386.99 114.76 390.59 111.53 391.45 112.93 C 391.81 113.51 391.65 114.78 391.08 115.74 C 390.33 117.04 390.05 117.12 390.03 116.06 C 390.01 115.02 389.59 115.16 388.53 116.56 C 387.33 118.15 387.06 118.21 387.03 116.90 Z M 11.53 114.04 C 11.17 113.46 11.60 112.71 12.48 112.37 C 14.68 111.53 15.36 112.45 13.61 113.91 C 12.63 114.72 11.97 114.77 11.53 114.04 Z M 386.07 111.31 C 386.11 110.86 386.53 109.60 387.00 108.50 C 387.83 106.57 387.86 106.58 387.93 108.69 C 387.97 109.90 387.55 111.16 387.00 111.50 C 386.45 111.84 386.03 111.75 386.07 111.31 Z M 10.00 108.00 C 10.00 107.45 10.45 107.00 11.00 107.00 C 11.55 107.00 12.00 107.45 12.00 108.00 C 12.00 108.55 11.55 109.00 11.00 109.00 C 10.45 109.00 10.00 108.55 10.00 108.00 Z M 386.00 104.00 C 386.00 102.13 386.27 101.87 387.20 102.80 C 388.13 103.73 388.13 104.27 387.20 105.20 C 386.27 106.13 386.00 105.87 386.00 104.00 Z M 390.54 105.07 C 390.23 104.56 390.42 103.86 390.98 103.51 C 391.54 103.16 392.00 103.58 392.00 104.44 C 392.00 106.20 391.40 106.46 390.54 105.07 Z M 10.19 102.50 C 10.22 100.85 10.44 100.30 10.69 101.27 C 10.95 102.24 10.93 103.59 10.66 104.27 C 10.38 104.95 10.17 104.15 10.19 102.50 Z M 388.25 99.34 C 387.56 99.06 387.00 98.15 387.00 97.31 C 387.00 96.33 387.57 96.00 388.58 96.39 C 389.45 96.73 390.35 97.00 390.58 97.00 C 390.81 97.00 391.00 97.67 391.00 98.50 C 391.00 100.04 390.43 100.22 388.25 99.34 Z M 386.00 92.06 C 386.00 90.38 386.17 89.00 386.38 89.00 C 387.23 89.00 387.67 94.09 386.87 94.58 C 386.39 94.88 386.00 93.74 386.00 92.06 Z M 390.08 92.42 C 390.13 91.25 390.36 91.01 390.68 91.81 C 390.97 92.53 390.94 93.40 390.60 93.73 C 390.27 94.06 390.04 93.47 390.08 92.42 Z M 10.00 89.56 C 10.00 88.70 10.45 88.00 11.00 88.00 C 11.55 88.00 12.00 88.42 12.00 88.94 C 12.00 89.46 11.55 90.16 11.00 90.50 C 10.45 90.84 10.00 90.42 10.00 89.56 Z M 388.00 88.44 C 388.00 87.58 388.46 87.16 389.02 87.51 C 389.58 87.86 389.77 88.56 389.46 89.07 C 388.60 90.46 388.00 90.20 388.00 88.44 Z M 11.50 82.00 C 11.84 81.45 11.68 81.00 11.15 81.00 C 10.58 81.00 10.66 79.98 11.34 78.51 C 12.93 75.09 14.38 75.35 13.66 78.93 C 13.29 80.78 13.53 82.04 14.29 82.35 C 14.96 82.62 14.46 82.88 13.19 82.92 C 11.89 82.97 11.15 82.56 11.50 82.00 Z M 386.43 77.28 C 386.62 75.20 387.27 73.55 387.88 73.60 C 390.60 73.84 391.00 74.09 391.00 75.50 C 391.00 76.33 390.32 77.00 389.50 77.00 C 388.68 77.00 388.00 77.65 388.00 78.44 C 388.00 79.23 387.57 80.15 387.05 80.47 C 386.48 80.82 386.23 79.51 386.43 77.28 Z M 14.18 72.94 C 13.46 71.76 13.13 70.54 13.45 70.22 C 14.41 69.25 16.21 71.66 15.84 73.43 C 15.56 74.80 15.29 74.72 14.18 72.94 Z M 10.00 72.44 C 10.00 71.58 10.46 71.16 11.02 71.51 C 11.58 71.86 11.77 72.56 11.46 73.07 C 10.60 74.46 10.00 74.20 10.00 72.44 Z M 386.08 70.42 C 386.13 69.25 386.36 69.01 386.68 69.81 C 386.97 70.53 386.94 71.40 386.60 71.73 C 386.27 72.06 386.04 71.47 386.08 70.42 Z M 10.08 68.42 C 10.13 67.25 10.36 67.01 10.68 67.81 C 10.97 68.53 10.94 69.40 10.60 69.73 C 10.27 70.06 10.04 69.47 10.08 68.42 Z M 201.05 67.91 C 202.40 65.38 201.26 63.79 199.86 66.28 C 199.32 67.25 198.45 67.78 197.92 67.45 C 197.40 67.13 197.27 66.37 197.64 65.77 C 198.01 65.17 198.22 62.09 198.11 58.93 C 197.99 55.77 198.34 52.91 198.88 52.57 C 200.46 51.60 201.29 53.95 199.94 55.57 C 199.27 56.38 199.04 57.37 199.44 57.77 C 199.84 58.17 200.76 57.68 201.49 56.69 C 202.22 55.68 203.07 55.31 203.41 55.85 C 204.42 57.48 202.89 60.00 200.89 60.00 C 198.43 60.00 198.44 62.04 200.91 62.69 C 204.19 63.55 204.59 70.00 201.36 70.00 C 200.22 70.00 200.16 69.58 201.05 67.91 Z M 389.55 64.75 C 389.13 63.79 389.13 62.21 389.55 61.25 C 390.27 59.58 390.33 59.58 390.73 61.25 C 390.96 62.21 390.96 63.79 390.73 64.75 C 390.33 66.42 390.27 66.42 389.55 64.75 Z M 386.16 62.00 C 386.16 60.62 386.38 60.06 386.66 60.75 C 386.94 61.44 386.94 62.56 386.66 63.25 C 386.38 63.94 386.16 63.38 386.16 62.00 Z M 12.00 62.31 C 12.00 61.80 12.66 60.51 13.47 59.44 C 14.70 57.81 14.94 57.76 14.97 59.13 C 14.99 60.02 14.32 61.32 13.50 62.00 C 12.68 62.68 12.00 62.83 12.00 62.31 Z M 386.00 56.06 C 386.00 55.54 386.45 54.84 387.00 54.50 C 387.55 54.16 388.00 54.58 388.00 55.44 C 388.00 56.30 387.55 57.00 387.00 57.00 C 386.45 57.00 386.00 56.58 386.00 56.06 Z M 389.00 53.50 C 389.00 52.67 389.45 52.00 390.00 52.00 C 390.55 52.00 391.00 52.67 391.00 53.50 C 391.00 54.33 390.55 55.00 390.00 55.00 C 389.45 55.00 389.00 54.33 389.00 53.50 Z M 10.00 52.83 C 10.00 52.19 10.29 51.96 10.65 52.32 C 11.01 52.68 11.87 52.19 12.57 51.24 C 13.27 50.28 14.15 49.82 14.54 50.20 C 15.36 51.02 12.64 54.00 11.07 54.00 C 10.48 54.00 10.00 53.48 10.00 52.83 Z M 386.08 52.42 C 386.13 51.25 386.36 51.01 386.68 51.81 C 386.97 52.53 386.94 53.40 386.60 53.73 C 386.27 54.06 386.04 53.47 386.08 52.42 Z M 200.24 50.01 C 198.60 47.38 198.67 44.52 200.41 43.07 C 201.49 42.18 202.00 42.19 202.59 43.14 C 203.02 43.84 202.84 44.55 202.18 44.77 C 201.53 44.99 201.04 46.14 201.08 47.33 C 201.12 48.52 201.39 48.93 201.66 48.24 C 202.46 46.26 203.87 47.78 203.29 50.00 C 202.63 52.53 201.81 52.53 200.24 50.01 Z M 10.02 46.46 C 10.04 44.74 11.87 42.54 12.64 43.30 C 13.05 43.71 12.62 44.81 11.69 45.74 C 10.76 46.67 10.01 46.99 10.02 46.46 Z M 389.65 45.18 C 389.18 44.46 388.17 44.11 387.40 44.40 C 386.63 44.70 386.00 44.33 386.00 43.59 C 386.00 42.34 389.93 40.59 390.79 41.45 C 390.99 41.66 391.01 42.88 390.83 44.16 C 390.59 45.86 390.27 46.14 389.65 45.18 Z M 198.00 39.08 C 198.00 38.58 198.56 37.94 199.25 37.66 C 200.25 37.26 200.25 37.14 199.25 37.08 C 196.94 36.93 197.98 35.50 200.50 35.36 C 202.51 35.24 203.00 35.68 203.00 37.61 C 203.00 39.49 202.47 40.00 200.50 40.00 C 199.12 40.00 198.00 39.59 198.00 39.08 Z M 388.71 38.34 C 388.34 37.73 388.78 35.74 389.70 33.91 C 391.75 29.78 392.60 31.56 390.74 36.11 C 389.96 38.00 389.09 38.96 388.71 38.34 Z M 10.00 30.94 C 10.00 30.36 10.45 30.16 11.00 30.50 C 11.55 30.84 12.00 31.32 12.00 31.56 C 12.00 31.80 11.55 32.00 11.00 32.00 C 10.45 32.00 10.00 31.52 10.00 30.94 Z M 199.20 30.45 C 197.84 28.91 198.49 26.57 200.01 27.50 C 200.49 27.80 201.34 27.25 201.91 26.27 C 202.85 24.66 202.94 24.65 202.97 26.19 C 202.99 27.12 202.57 28.15 202.04 28.47 C 201.52 28.80 201.34 29.72 201.65 30.53 C 202.37 32.41 200.89 32.36 199.20 30.45 Z M 13.00 30.00 C 13.00 29.45 13.42 29.00 13.94 29.00 C 14.46 29.00 15.16 29.45 15.50 30.00 C 15.84 30.55 15.42 31.00 14.56 31.00 C 13.70 31.00 13.00 30.55 13.00 30.00 Z M 390.00 24.00 C 390.00 23.45 390.48 23.00 391.06 23.00 C 391.64 23.00 391.84 23.45 391.50 24.00 C 391.16 24.55 390.68 25.00 390.44 25.00 C 390.20 25.00 390.00 24.55 390.00 24.00 Z M 199.46 20.93 C 199.10 20.35 199.04 19.63 199.33 19.33 C 200.05 18.62 202.00 19.88 202.00 21.06 C 202.00 22.34 200.27 22.25 199.46 20.93 Z M 11.00 17.44 C 11.00 16.58 11.45 16.16 12.00 16.50 C 12.55 16.84 13.00 17.54 13.00 18.06 C 13.00 18.58 12.55 19.00 12.00 19.00 C 11.45 19.00 11.00 18.30 11.00 17.44 Z M 196.19 17.94 C 196.43 17.22 197.22 16.43 197.94 16.19 C 198.69 15.94 199.06 16.31 198.81 17.06 C 198.57 17.78 197.78 18.57 197.06 18.81 C 196.31 19.06 195.94 18.69 196.19 17.94 Z M 27.50 17.00 C 27.84 16.45 28.32 16.00 28.56 16.00 C 28.80 16.00 29.00 16.45 29.00 17.00 C 29.00 17.55 28.52 18.00 27.94 18.00 C 27.36 18.00 27.16 17.55 27.50 17.00 Z M 39.81 17.32 C 40.53 17.03 41.40 17.06 41.73 17.40 C 42.06 17.73 41.47 17.96 40.42 17.92 C 39.25 17.87 39.01 17.64 39.81 17.32 Z M 46.75 17.34 C 47.44 17.06 48.56 17.06 49.25 17.34 C 49.94 17.62 49.38 17.84 48.00 17.84 C 46.62 17.84 46.06 17.62 46.75 17.34 Z M 74.63 17.21 C 74.36 16.77 71.35 16.51 67.94 16.64 C 61.83 16.86 60.95 15.86 66.17 14.63 C 67.87 14.23 69.02 14.45 69.34 15.25 C 69.64 16.00 69.87 15.79 69.92 14.75 C 69.96 13.79 70.70 13.00 71.56 13.00 C 72.42 13.00 72.84 13.45 72.50 14.00 C 72.16 14.55 72.77 15.00 73.86 15.00 C 74.94 15.00 75.98 14.61 76.17 14.14 C 76.35 13.67 78.30 12.99 80.50 12.62 C 84.24 12.00 84.37 12.06 82.53 13.50 C 81.44 14.35 80.02 14.84 79.36 14.59 C 78.70 14.33 77.93 14.74 77.64 15.50 C 77.34 16.27 77.86 17.07 78.81 17.32 C 79.81 17.58 79.40 17.82 77.81 17.88 C 76.33 17.95 74.90 17.64 74.63 17.21 Z M 106.19 16.66 C 107.71 15.15 116.00 13.75 116.00 15.01 C 116.00 15.46 113.73 16.32 110.95 16.92 C 104.61 18.28 104.58 18.28 106.19 16.66 Z M 202.81 17.32 C 203.53 17.03 204.40 17.06 204.73 17.40 C 205.06 17.73 204.47 17.96 203.42 17.92 C 202.25 17.87 202.01 17.64 202.81 17.32 Z M 98.50 15.99 C 97.83 14.92 98.86 14.43 103.25 13.72 C 106.70 13.16 106.81 14.31 103.45 15.84 C 100.33 17.26 99.30 17.29 98.50 15.99 Z M 118.00 16.00 C 116.79 15.22 116.93 15.03 118.75 15.02 C 119.99 15.01 121.00 15.45 121.00 16.00 C 121.00 17.25 119.94 17.25 118.00 16.00 Z M 130.00 15.00 C 132.65 12.93 134.12 12.87 134.77 14.81 C 135.01 15.52 134.56 15.77 133.68 15.43 C 132.87 15.12 131.91 15.34 131.54 15.93 C 131.18 16.52 130.12 16.99 129.19 16.98 C 127.87 16.96 128.05 16.53 130.00 15.00 Z M 137.03 16.17 C 137.84 15.91 138.73 15.36 139.00 14.94 C 139.28 14.52 141.50 14.54 143.94 14.99 C 146.37 15.43 149.07 15.55 149.93 15.24 C 150.84 14.92 151.15 15.06 150.67 15.59 C 150.21 16.09 146.62 16.53 142.69 16.57 C 138.76 16.62 136.21 16.44 137.03 16.17 Z M 158.65 14.78 C 157.89 11.85 158.58 11.34 159.92 13.85 C 160.53 14.99 160.62 16.12 160.12 16.43 C 159.63 16.73 158.97 15.99 158.65 14.78 Z M 166.76 15.84 C 168.10 14.50 180.11 14.18 179.67 15.50 C 179.49 16.05 176.28 16.58 172.54 16.68 C 167.92 16.80 166.06 16.54 166.76 15.84 Z M 216.81 16.32 C 217.53 16.03 218.40 16.06 218.73 16.40 C 219.06 16.73 218.47 16.96 217.42 16.92 C 216.25 16.87 216.01 16.64 216.81 16.32 Z M 256.43 16.12 C 257.16 14.93 261.00 13.98 261.00 14.99 C 261.00 15.82 258.56 17.00 256.86 17.00 C 256.32 17.00 256.13 16.60 256.43 16.12 Z M 272.00 16.09 C 267.84 15.52 267.71 15.42 270.25 14.72 C 271.76 14.30 273.00 13.52 273.00 12.98 C 273.00 12.44 273.89 12.00 274.97 12.00 C 276.31 12.00 276.75 12.48 276.36 13.50 C 276.05 14.32 276.28 15.00 276.89 15.00 C 277.50 15.00 278.00 15.45 278.00 16.00 C 278.00 16.55 277.66 16.93 277.25 16.85 C 276.84 16.77 274.48 16.42 272.00 16.09 Z M 294.17 16.12 C 293.10 15.45 293.17 15.15 294.50 14.64 C 296.72 13.79 296.70 13.78 297.36 15.50 C 297.99 17.14 296.29 17.47 294.17 16.12 Z M 349.44 15.47 C 350.51 14.66 352.08 14.02 352.94 14.04 C 353.94 14.06 353.60 14.58 352.00 15.50 C 348.73 17.37 346.96 17.35 349.44 15.47 Z M 365.73 16.40 C 365.40 16.07 363.57 15.80 361.66 15.80 C 358.35 15.80 358.26 15.71 359.82 13.90 C 361.52 11.92 364.61 11.21 363.46 13.07 C 363.10 13.66 363.74 14.38 364.90 14.68 C 366.05 14.99 367.00 15.63 367.00 16.12 C 367.00 17.15 366.58 17.24 365.73 16.40 Z M 47.00 15.43 C 47.00 13.12 49.19 11.31 51.46 11.75 C 54.71 12.37 54.66 13.19 51.29 14.75 C 48.38 16.10 47.00 16.32 47.00 15.43 Z M 55.43 14.00 C 55.43 12.28 56.10 12.00 60.21 12.00 C 62.85 12.00 65.00 12.45 65.00 13.00 C 65.00 13.55 63.20 14.00 61.00 14.00 C 58.80 14.00 57.00 14.45 57.00 15.00 C 57.00 15.55 56.65 16.00 56.21 16.00 C 55.78 16.00 55.43 15.10 55.43 14.00 Z M 84.46 14.93 C 83.54 13.44 84.61 12.63 86.52 13.37 C 87.40 13.71 87.85 14.44 87.50 14.99 C 86.69 16.30 85.29 16.28 84.46 14.93 Z M 190.71 14.00 C 191.00 12.90 191.59 12.00 192.02 12.00 C 192.46 12.00 192.58 12.90 192.29 14.00 C 192.00 15.10 191.41 16.00 190.98 16.00 C 190.54 16.00 190.42 15.10 190.71 14.00 Z M 212.00 15.00 C 212.00 14.45 212.45 14.00 213.00 14.00 C 213.55 14.00 214.00 14.45 214.00 15.00 C 214.00 15.55 213.55 16.00 213.00 16.00 C 212.45 16.00 212.00 15.55 212.00 15.00 Z M 301.47 14.96 C 301.15 14.43 301.36 14.00 301.94 14.00 C 302.52 14.00 303.00 13.55 303.00 13.00 C 303.00 12.45 302.32 12.00 301.50 12.00 C 300.68 12.00 300.00 11.59 300.00 11.09 C 300.00 10.00 304.95 11.16 304.98 12.25 C 304.99 12.66 305.00 13.40 305.00 13.89 C 305.00 15.21 302.16 16.07 301.47 14.96 Z M 369.00 15.11 C 369.00 14.62 369.56 14.01 370.25 13.75 C 372.01 13.11 374.12 13.99 373.45 15.09 C 372.72 16.26 369.00 16.28 369.00 15.11 Z M 382.50 15.00 C 382.84 14.45 383.32 14.00 383.56 14.00 C 383.80 14.00 384.00 14.45 384.00 15.00 C 384.00 15.55 383.52 16.00 382.94 16.00 C 382.36 16.00 382.16 15.55 382.50 15.00 Z M 386.00 15.00 C 386.00 14.45 386.45 14.00 387.00 14.00 C 387.55 14.00 388.00 14.45 388.00 15.00 C 388.00 15.55 387.55 16.00 387.00 16.00 C 386.45 16.00 386.00 15.55 386.00 15.00 Z M 14.00 13.97 C 14.00 13.44 14.68 13.00 15.50 13.00 C 16.32 13.00 17.00 13.18 17.00 13.39 C 17.00 13.61 16.32 14.05 15.50 14.36 C 14.68 14.68 14.00 14.50 14.00 13.97 Z M 30.00 13.67 C 30.00 12.75 30.98 12.49 33.25 12.82 C 36.02 13.23 36.20 13.41 34.50 14.08 C 31.45 15.27 30.00 15.14 30.00 13.67 Z M 39.24 13.75 C 39.47 13.06 40.75 12.37 42.08 12.22 C 44.42 11.95 44.44 11.99 42.56 13.47 C 40.21 15.32 38.68 15.45 39.24 13.75 Z M 89.00 14.11 C 89.00 13.00 92.08 11.74 92.86 12.53 C 93.18 12.85 92.78 13.53 91.97 14.04 C 90.10 15.22 89.00 15.25 89.00 14.11 Z M 122.75 13.78 C 123.99 13.18 125.00 12.31 125.00 11.85 C 125.00 11.38 125.90 11.00 127.00 11.00 C 128.10 11.00 129.00 11.29 129.00 11.64 C 129.00 12.98 125.40 14.93 123.00 14.90 L 120.50 14.86 L 122.75 13.78 Z M 221.81 14.32 C 222.53 14.03 223.40 14.06 223.73 14.40 C 224.06 14.73 223.47 14.96 222.42 14.92 C 221.25 14.87 221.01 14.64 221.81 14.32 Z M 229.67 14.33 C 228.15 12.82 229.15 12.07 231.13 13.24 C 232.83 14.25 233.35 14.25 233.71 13.25 C 233.96 12.56 235.14 11.99 236.33 11.98 C 238.10 11.97 238.22 11.79 237.00 11.00 C 235.77 10.20 235.87 10.03 237.58 10.02 C 241.26 9.99 241.16 11.34 237.35 13.20 C 233.49 15.07 230.80 15.47 229.67 14.33 Z M 320.81 14.32 C 321.53 14.03 322.40 14.06 322.73 14.40 C 323.06 14.73 322.47 14.96 321.42 14.92 C 320.25 14.87 320.01 14.64 320.81 14.32 Z M 330.81 14.32 C 331.53 14.03 332.40 14.06 332.73 14.40 C 333.06 14.73 332.47 14.96 331.42 14.92 C 330.25 14.87 330.01 14.64 330.81 14.32 Z M 340.00 14.61 C 340.00 14.39 340.68 13.95 341.50 13.64 C 342.32 13.32 343.00 13.50 343.00 14.03 C 343.00 14.56 342.32 15.00 341.50 15.00 C 340.68 15.00 340.00 14.82 340.00 14.61 Z M 24.81 13.32 C 25.53 13.03 26.40 13.06 26.73 13.40 C 27.06 13.73 26.47 13.96 25.42 13.92 C 24.25 13.87 24.01 13.64 24.81 13.32 Z M 224.00 13.00 C 224.00 12.45 224.48 12.00 225.06 12.00 C 225.64 12.00 225.84 12.45 225.50 13.00 C 225.16 13.55 224.68 14.00 224.44 14.00 C 224.20 14.00 224.00 13.55 224.00 13.00 Z M 297.00 12.94 C 297.00 12.36 297.45 12.16 298.00 12.50 C 298.55 12.84 299.00 13.32 299.00 13.56 C 299.00 13.80 298.55 14.00 298.00 14.00 C 297.45 14.00 297.00 13.52 297.00 12.94 Z M 308.59 13.15 C 308.27 12.63 308.75 11.93 309.65 11.58 C 311.86 10.73 312.38 11.44 310.61 12.91 C 309.76 13.62 308.94 13.72 308.59 13.15 Z M 316.00 13.00 C 316.00 12.45 316.68 12.00 317.50 12.00 C 318.32 12.00 319.00 12.45 319.00 13.00 C 319.00 13.55 318.32 14.00 317.50 14.00 C 316.68 14.00 316.00 13.55 316.00 13.00 Z M 324.00 13.00 C 324.00 12.45 325.46 12.03 327.25 12.07 C 329.97 12.13 330.18 12.28 328.50 13.00 C 325.74 14.19 324.00 14.19 324.00 13.00 Z M 335.61 12.42 C 335.23 11.44 335.46 10.99 336.19 11.23 C 337.68 11.73 338.50 14.00 337.19 14.00 C 336.65 14.00 335.94 13.29 335.61 12.42 Z M 346.50 13.00 C 346.16 12.45 346.36 12.00 346.94 12.00 C 347.52 12.00 348.00 12.45 348.00 13.00 C 348.00 13.55 347.80 14.00 347.56 14.00 C 347.32 14.00 346.84 13.55 346.50 13.00 Z M 114.00 12.00 C 114.00 11.45 114.45 11.00 115.00 11.00 C 115.55 11.00 116.00 11.45 116.00 12.00 C 116.00 12.55 115.55 13.00 115.00 13.00 C 114.45 13.00 114.00 12.55 114.00 12.00 Z M 135.44 11.91 C 135.13 11.41 136.03 11.00 137.44 11.00 C 140.51 11.00 140.75 11.57 138.00 12.29 C 136.90 12.58 135.75 12.40 135.44 11.91 Z M 141.66 11.77 C 141.02 11.36 142.19 11.02 144.25 11.02 C 146.31 11.01 148.00 11.40 148.00 11.89 C 148.00 12.94 143.36 12.84 141.66 11.77 Z M 214.00 12.00 C 214.00 11.45 214.65 11.00 215.44 11.00 C 216.23 11.00 217.16 11.45 217.50 12.00 C 217.84 12.55 217.19 13.00 216.06 13.00 C 214.93 13.00 214.00 12.55 214.00 12.00 Z M 253.00 12.00 C 253.00 11.45 253.45 11.00 254.00 11.00 C 254.55 11.00 255.00 11.45 255.00 12.00 C 255.00 12.55 254.55 13.00 254.00 13.00 C 253.45 13.00 253.00 12.55 253.00 12.00 Z M 282.00 12.00 C 282.00 11.45 282.45 11.00 283.00 11.00 C 283.55 11.00 284.00 11.45 284.00 12.00 C 284.00 12.55 283.55 13.00 283.00 13.00 C 282.45 13.00 282.00 12.55 282.00 12.00 Z M 290.42 11.87 C 290.12 11.39 291.26 11.00 292.94 11.00 C 294.62 11.00 296.00 11.17 296.00 11.38 C 296.00 12.23 290.91 12.67 290.42 11.87 Z M 259.81 11.32 C 260.53 11.03 261.40 11.06 261.73 11.40 C 262.06 11.73 261.47 11.96 260.42 11.92 C 259.25 11.87 259.01 11.64 259.81 11.32 Z M 269.00 11.00 C 269.00 9.75 270.06 9.75 272.00 11.00 C 273.21 11.78 273.07 11.97 271.25 11.98 C 270.01 11.99 269.00 11.55 269.00 11.00 Z M 330.81 11.32 C 331.53 11.03 332.40 11.06 332.73 11.40 C 333.06 11.73 332.47 11.96 331.42 11.92 C 330.25 11.87 330.01 11.64 330.81 11.32 Z M 226.81 10.32 C 227.53 10.03 228.40 10.06 228.73 10.40 C 229.06 10.73 228.47 10.96 227.42 10.92 C 226.25 10.87 226.01 10.64 226.81 10.32 Z M 246.81 10.32 C 247.53 10.03 248.40 10.06 248.73 10.40 C 249.06 10.73 248.47 10.96 247.42 10.92 C 246.25 10.87 246.01 10.64 246.81 10.32 Z" fill="none" stroke="rgba(255,255,255,0.92)" stroke-width="1.5" stroke-linejoin="round" fill-rule="evenodd"/>
</svg>
