<svg xmlns="http://www.w3.org/2000/svg" viewBox="0 0 100 100" width="100" height="100">
  <path d="M 0.00 50.00 L 0.00 0.00 L 50.00 0.00 L 100.00 0.00 L 100.00 50.00 L 100.00 100.00 L 50.00 100.00 L 0.00 100.00 L 0.00 50.00 Z M 96.00 95.03 C 96.00 94.46 95.21 93.99 94.25 93.97 C 92.66 93.94 92.65 93.85 94.13 92.99 C 95.46 92.21 95.80 90.10 95.93 81.85 C 96.04 74.47 95.73 71.45 94.79 70.85 C 93.79 70.22 93.78 70.03 94.75 70.02 C 95.46 70.01 95.97 68.81 95.93 67.25 C 95.87 64.87 95.76 64.77 95.08 66.50 C 94.33 68.42 94.27 68.41 93.56 66.18 C 93.07 64.66 93.33 63.28 94.29 62.18 C 95.47 60.83 95.79 56.48 95.91 40.25 C 96.05 21.49 95.93 19.99 94.28 19.88 C 92.79 19.79 92.76 19.70 94.12 19.34 C 95.42 18.99 95.75 17.44 95.80 11.45 L 95.87 4.00 L 49.93 4.00 C 4.67 4.00 4.00 4.03 4.00 6.00 C 4.00 7.22 4.68 8.01 5.75 8.04 C 6.71 8.05 26.43 8.17 49.56 8.28 L 91.61 8.49 L 91.87 49.74 L 92.13 90.98 L 48.31 91.24 L 4.50 91.50 L 4.19 93.68 L 3.88 95.85 L 49.94 95.95 C 80.82 96.02 96.00 95.71 96.00 95.03 Z M 9.00 94.02 C 9.00 93.59 9.90 93.00 11.00 92.71 C 12.10 92.42 13.00 92.54 13.00 92.98 C 13.00 93.41 12.10 94.00 11.00 94.29 C 9.90 94.58 9.00 94.46 9.00 94.02 Z M 25.50 94.00 C 25.16 93.45 25.36 93.00 25.94 93.00 C 26.52 93.00 27.00 93.45 27.00 94.00 C 27.00 94.55 26.80 95.00 26.56 95.00 C 26.32 95.00 25.84 94.55 25.50 94.00 Z M 37.81 93.32 C 38.53 93.03 39.40 93.06 39.73 93.40 C 40.06 93.73 39.47 93.96 38.42 93.92 C 37.25 93.87 37.01 93.64 37.81 93.32 Z M 79.81 93.32 C 80.53 93.03 81.40 93.06 81.73 93.40 C 82.06 93.73 81.47 93.96 80.42 93.92 C 79.25 93.87 79.01 93.64 79.81 93.32 Z M 93.64 85.50 C 93.95 84.67 94.39 84.00 94.61 84.00 C 94.82 84.00 95.00 84.67 95.00 85.50 C 95.00 86.33 94.56 87.00 94.03 87.00 C 93.50 87.00 93.32 86.33 93.64 85.50 Z M 31.00 81.95 C 31.00 79.67 27.83 74.97 24.66 72.55 C 22.73 71.08 19.30 69.73 16.55 69.35 C 11.82 68.70 11.76 68.65 8.89 62.26 C 5.53 54.76 5.26 52.66 7.75 53.36 C 8.71 53.63 11.97 54.14 15.00 54.48 C 25.29 55.65 25.81 55.87 26.57 59.31 C 27.87 65.24 30.20 68.66 35.12 71.89 C 37.82 73.65 40.47 74.83 41.02 74.49 C 43.42 73.00 40.86 60.77 37.74 58.84 C 35.21 57.27 37.86 57.25 46.50 58.76 C 51.45 59.63 58.42 60.37 62.00 60.42 C 67.79 60.49 69.02 60.14 73.25 57.20 C 75.86 55.39 78.00 53.53 78.00 53.07 C 78.00 52.01 73.57 50.27 68.74 49.43 C 65.79 48.92 63.79 49.36 59.49 51.46 L 53.99 54.15 L 31.50 51.36 C 19.12 49.82 9.01 48.32 9.02 48.03 C 9.06 46.73 27.26 34.80 27.85 35.69 C 28.21 36.24 30.48 38.10 32.90 39.84 C 36.70 42.57 38.14 43.00 43.40 42.98 C 53.62 42.96 54.40 40.88 46.58 34.55 C 43.54 32.09 41.89 31.51 37.92 31.51 C 35.22 31.50 33.02 31.27 33.03 31.00 C 33.11 29.72 37.88 27.26 41.36 26.71 C 43.48 26.37 46.30 25.38 47.63 24.51 C 50.66 22.52 56.14 15.04 55.42 13.88 C 54.58 12.52 46.31 12.84 42.63 14.38 C 40.82 15.14 37.62 17.85 35.52 20.41 C 32.23 24.43 18.10 35.43 17.28 34.61 C 17.12 34.45 17.50 32.88 18.11 31.11 C 19.35 27.55 17.68 21.73 14.08 17.06 L 12.20 14.62 L 10.09 18.06 C 5.87 24.92 5.41 28.45 7.93 34.55 L 10.20 40.02 L 7.85 41.98 C 6.56 43.05 5.16 43.95 4.75 43.97 C 4.34 43.99 4.00 48.69 4.00 54.42 C 4.00 62.35 4.44 65.87 5.86 69.17 C 8.03 74.23 14.73 80.68 18.72 81.56 C 20.25 81.90 21.95 82.33 22.50 82.51 C 24.89 83.31 31.00 82.91 31.00 81.95 Z M 94.08 80.42 C 94.13 79.25 94.36 79.01 94.68 79.81 C 94.97 80.53 94.94 81.40 94.60 81.73 C 94.27 82.06 94.04 81.47 94.08 80.42 Z M 93.64 76.50 C 93.95 75.67 94.39 75.00 94.61 75.00 C 94.82 75.00 95.00 75.67 95.00 76.50 C 95.00 77.33 94.56 78.00 94.03 78.00 C 93.50 78.00 93.32 77.33 93.64 76.50 Z M 93.08 31.42 C 93.13 30.25 93.36 30.01 93.68 30.81 C 93.97 31.53 93.94 32.40 93.60 32.73 C 93.27 33.06 93.04 32.47 93.08 31.42 Z M 93.50 28.00 C 93.16 27.45 93.36 27.00 93.94 27.00 C 94.52 27.00 95.00 27.45 95.00 28.00 C 95.00 28.55 94.80 29.00 94.56 29.00 C 94.32 29.00 93.84 28.55 93.50 28.00 Z M 93.00 24.56 C 93.00 23.70 93.45 23.00 94.00 23.00 C 94.55 23.00 95.00 23.42 95.00 23.94 C 95.00 24.46 94.55 25.16 94.00 25.50 C 93.45 25.84 93.00 25.42 93.00 24.56 Z M 36.00 6.00 C 36.00 5.45 36.42 5.00 36.94 5.00 C 37.46 5.00 38.16 5.45 38.50 6.00 C 38.84 6.55 38.42 7.00 37.56 7.00 C 36.70 7.00 36.00 6.55 36.00 6.00 Z M 47.50 6.00 C 47.84 5.45 48.32 5.00 48.56 5.00 C 48.80 5.00 49.00 5.45 49.00 6.00 C 49.00 6.55 48.52 7.00 47.94 7.00 C 47.36 7.00 47.16 6.55 47.50 6.00 Z M 50.50 6.00 C 50.16 5.45 50.61 5.00 51.50 5.00 C 52.39 5.00 52.84 5.45 52.50 6.00 C 52.16 6.55 51.71 7.00 51.50 7.00 C 51.29 7.00 50.84 6.55 50.50 6.00 Z M 63.50 6.00 C 61.59 5.18 61.60 5.14 63.75 5.07 C 64.99 5.03 66.00 5.45 66.00 6.00 C 66.00 6.55 65.89 6.97 65.75 6.93 C 65.61 6.89 64.60 6.47 63.50 6.00 Z M 74.00 6.61 C 74.00 6.39 74.67 5.95 75.50 5.64 C 76.33 5.32 77.00 5.50 77.00 6.03 C 77.00 6.56 76.33 7.00 75.50 7.00 C 74.67 7.00 74.00 6.82 74.00 6.61 Z M 78.88 6.10 C 80.31 5.19 86.77 5.44 87.77 6.43 C 88.08 6.75 85.90 6.99 82.92 6.98 C 79.44 6.97 77.99 6.66 78.88 6.10 Z M 17.81 5.32 C 18.53 5.03 19.40 5.06 19.73 5.40 C 20.06 5.73 19.47 5.96 18.42 5.92 C 17.25 5.87 17.01 5.64 17.81 5.32 Z M 39.81 5.32 C 40.53 5.03 41.40 5.06 41.73 5.40 C 42.06 5.73 41.47 5.96 40.42 5.92 C 39.25 5.87 39.01 5.64 39.81 5.32 Z" fill="none" stroke="rgba(255,255,255,0.92)" stroke-width="1.2" stroke-linejoin="round" fill-rule="evenodd"/>
</svg>
