<svg xmlns="http://www.w3.org/2000/svg" viewBox="0 0 100 100" width="100" height="100">
  <path d="M 0.00 50.00 L 0.00 0.00 L 50.00 0.00 L 100.00 0.00 L 100.00 50.00 L 100.00 100.00 L 50.00 100.00 L 0.00 100.00 L 0.00 50.00 Z M 96.00 93.59 L 96.00 91.22 L 53.75 91.66 C 30.51 91.91 10.94 92.29 10.25 92.52 C 9.44 92.79 9.00 91.90 9.00 89.97 C 9.00 88.34 8.49 87.00 7.88 87.00 C 7.15 87.00 7.24 86.42 8.13 85.34 C 9.20 84.03 9.23 83.58 8.24 83.25 C 7.55 83.02 7.28 82.35 7.64 81.77 C 8.92 79.70 8.98 75.00 7.73 74.98 C 6.94 74.97 7.03 74.63 8.00 74.00 C 9.18 73.24 9.21 73.03 8.13 73.02 C 7.17 73.00 7.05 72.62 7.74 71.75 C 9.21 69.89 9.13 25.71 7.65 24.77 C 6.81 24.23 6.84 24.03 7.75 24.02 C 8.44 24.01 9.00 23.32 9.00 22.50 C 9.00 21.68 8.44 20.99 7.75 20.98 C 6.83 20.97 6.86 20.74 7.86 20.11 C 8.85 19.48 8.90 19.06 8.06 18.54 C 7.22 18.02 7.20 17.46 7.99 16.51 C 8.59 15.78 8.79 14.03 8.44 12.60 C 8.00 10.87 8.23 9.85 9.14 9.50 C 9.89 9.21 29.40 8.81 52.50 8.59 C 75.60 8.38 94.74 8.16 95.04 8.10 C 95.33 8.05 95.64 7.10 95.73 6.00 C 95.87 4.03 95.26 4.00 49.94 4.00 L 4.00 4.00 L 4.00 49.98 L 4.00 95.95 L 50.00 95.96 L 96.00 95.96 L 96.00 93.59 Z M 59.78 83.37 C 64.17 78.79 64.22 78.66 63.80 72.87 L 63.37 67.00 L 73.44 63.13 C 78.97 61.00 86.31 58.24 89.75 57.00 L 96.00 54.73 L 96.00 49.84 C 96.00 45.62 95.67 44.81 93.53 43.83 C 91.20 42.77 91.10 42.38 91.67 36.86 C 92.23 31.55 92.02 30.64 89.45 26.93 C 86.78 23.07 83.41 20.00 81.85 20.00 C 81.46 20.00 80.60 22.43 79.94 25.39 C 79.02 29.47 79.01 31.58 79.87 34.06 C 80.50 35.85 80.89 37.41 80.75 37.52 C 80.61 37.63 72.85 34.23 63.50 29.96 C 54.15 25.70 46.36 22.34 46.19 22.50 C 46.02 22.66 44.14 20.93 42.02 18.66 C 38.19 14.55 38.11 14.52 29.96 14.15 L 21.76 13.78 L 23.63 16.99 C 27.36 23.39 33.87 26.98 41.79 26.99 C 43.60 27.00 46.97 27.98 49.29 29.18 L 53.50 31.36 L 50.00 32.10 C 47.65 32.59 45.10 34.38 42.25 37.51 C 36.57 43.77 36.70 45.00 43.03 45.00 C 49.48 45.00 53.76 43.18 58.10 38.58 L 61.57 34.91 L 77.39 42.14 C 94.73 50.07 94.69 50.01 84.86 53.34 L 79.44 55.18 L 74.95 50.69 C 71.02 46.76 69.76 46.11 64.75 45.49 C 61.60 45.09 58.33 45.04 57.48 45.37 C 56.10 45.90 56.09 46.27 57.41 48.83 C 59.28 52.45 65.53 58.00 67.73 58.00 C 71.07 58.00 67.34 59.93 55.43 64.35 C 48.79 66.82 40.74 69.32 37.54 69.91 C 31.02 71.11 29.86 71.85 25.83 77.40 C 21.48 83.39 21.92 84.40 28.59 83.62 C 35.20 82.84 38.44 81.30 42.50 77.01 C 45.16 74.20 50.78 71.00 53.06 71.00 C 53.51 71.00 53.24 72.24 52.45 73.75 C 49.97 78.50 50.87 88.00 53.79 88.00 C 54.64 88.00 57.34 85.92 59.78 83.37 Z M 92.85 79.90 L 96.00 78.80 L 96.00 70.25 L 96.00 61.69 L 93.86 63.60 C 90.85 66.28 89.00 71.17 89.00 76.47 C 89.00 78.96 89.16 81.00 89.35 81.00 C 89.54 81.00 91.12 80.51 92.85 79.90 Z M 5.00 36.06 C 5.00 35.54 5.45 34.84 6.00 34.50 C 6.55 34.16 7.00 34.58 7.00 35.44 C 7.00 36.30 6.55 37.00 6.00 37.00 C 5.45 37.00 5.00 36.58 5.00 36.06 Z M 23.18 6.97 C 23.38 6.35 23.88 5.88 24.27 5.92 C 24.67 5.97 25.98 6.00 27.17 6.00 C 29.89 6.00 29.33 6.52 25.65 7.40 C 23.74 7.86 22.93 7.72 23.18 6.97 Z M 34.00 7.00 C 30.58 6.28 30.61 6.26 35.25 6.13 C 37.86 6.06 40.00 6.45 40.00 7.00 C 40.00 8.10 39.21 8.10 34.00 7.00 Z M 15.81 6.32 C 16.53 6.03 17.40 6.06 17.73 6.40 C 18.06 6.73 17.47 6.96 16.42 6.92 C 15.25 6.87 15.01 6.64 15.81 6.32 Z M 43.27 6.31 C 44.24 6.05 45.59 6.07 46.27 6.34 C 46.95 6.62 46.15 6.83 44.50 6.81 C 42.85 6.78 42.30 6.56 43.27 6.31 Z M 49.75 6.34 C 50.44 6.06 51.56 6.06 52.25 6.34 C 52.94 6.62 52.38 6.84 51.00 6.84 C 49.62 6.84 49.06 6.62 49.75 6.34 Z M 54.75 6.34 C 55.44 6.06 56.56 6.06 57.25 6.34 C 57.94 6.62 57.38 6.84 56.00 6.84 C 54.62 6.84 54.06 6.62 54.75 6.34 Z M 61.00 6.00 C 61.83 5.47 63.17 5.03 64.00 5.03 C 65.33 5.03 65.33 5.14 64.00 6.00 C 63.17 6.53 61.83 6.97 61.00 6.97 C 59.67 6.97 59.67 6.86 61.00 6.00 Z M 65.81 6.32 C 66.53 6.03 67.40 6.06 67.73 6.40 C 68.06 6.73 67.47 6.96 66.42 6.92 C 65.25 6.87 65.01 6.64 65.81 6.32 Z M 79.00 5.94 C 79.00 5.36 79.45 5.16 80.00 5.50 C 80.55 5.84 81.00 6.32 81.00 6.56 C 81.00 6.80 80.55 7.00 80.00 7.00 C 79.45 7.00 79.00 6.52 79.00 5.94 Z M 85.25 6.31 C 86.21 6.06 87.79 6.06 88.75 6.31 C 89.71 6.56 88.92 6.77 87.00 6.77 C 85.08 6.77 84.29 6.56 85.25 6.31 Z" fill="none" stroke="rgba(255,255,255,0.92)" stroke-width="1.2" stroke-linejoin="round" fill-rule="evenodd"/>
</svg>
