<svg xmlns="http://www.w3.org/2000/svg" viewBox="0 0 100 100" width="100" height="100">
  <path d="M 0.00 50.00 L 0.00 0.00 L 50.00 0.00 L 100.00 0.00 L 100.00 50.00 L 100.00 100.00 L 50.00 100.00 L 0.00 100.00 L 0.00 50.00 Z M 50.32 88.75 C 51.25 84.76 52.30 76.89 52.65 71.25 C 53.29 61.19 54.17 58.78 55.57 63.25 C 55.96 64.49 58.19 68.20 60.52 71.50 C 62.85 74.80 66.17 80.31 67.90 83.75 C 69.62 87.19 71.27 90.00 71.58 90.00 C 72.37 90.00 71.09 81.40 69.35 75.00 C 68.52 71.97 66.07 66.24 63.90 62.25 C 61.73 58.26 60.24 55.00 60.59 55.00 C 61.70 55.00 77.17 69.01 84.80 76.93 C 88.95 81.23 91.88 83.64 91.59 82.50 C 91.31 81.40 90.32 77.39 89.38 73.58 C 87.84 67.33 87.00 65.96 80.78 59.40 C 75.77 54.13 72.39 51.52 68.43 49.88 C 65.17 48.53 63.34 47.26 63.88 46.72 C 64.38 46.22 71.81 45.76 80.39 45.70 C 98.06 45.57 99.42 44.86 90.25 40.51 C 82.26 36.71 75.14 36.23 67.13 38.94 C 63.63 40.13 60.58 40.92 60.36 40.70 C 60.14 40.47 67.40 33.03 76.50 24.15 C 85.60 15.27 92.66 8.00 92.18 8.00 C 90.41 8.00 80.27 11.83 74.98 14.50 C 67.00 18.52 62.63 22.31 58.06 29.15 C 53.34 36.22 52.95 34.86 56.51 23.71 C 57.88 19.43 59.00 13.58 59.00 10.71 L 58.99 5.50 L 54.99 10.00 C 49.28 16.41 47.90 19.39 47.15 26.89 L 46.50 33.50 L 42.33 25.00 C 39.61 19.46 36.04 14.23 32.07 10.00 L 25.97 3.50 L 26.62 7.50 C 27.87 15.20 31.06 23.89 34.54 29.06 C 36.47 31.93 37.87 34.46 37.65 34.68 C 36.38 35.96 10.63 17.03 9.17 13.75 C 8.60 12.47 7.00 12.93 7.00 14.37 C 7.00 17.39 14.28 30.02 17.93 33.31 C 20.06 35.24 24.67 37.88 28.16 39.16 L 34.50 41.50 L 21.50 42.19 C 14.35 42.57 7.38 43.31 6.00 43.84 L 3.50 44.81 L 7.21 46.40 C 9.34 47.31 15.76 48.32 22.21 48.75 L 33.50 49.50 L 26.32 52.31 C 22.38 53.86 17.19 56.85 14.79 58.95 C 10.35 62.86 3.98 73.00 5.97 73.00 C 7.31 73.00 15.63 68.79 27.50 62.08 C 32.45 59.29 36.85 57.00 37.28 57.00 C 37.70 57.00 35.67 59.81 32.76 63.25 C 25.47 71.85 23.34 75.67 22.59 81.50 C 22.24 84.25 21.68 88.24 21.36 90.38 C 20.99 92.83 21.15 94.03 21.78 93.64 C 22.32 93.30 27.16 86.03 32.53 77.48 C 37.89 68.94 42.57 61.76 42.93 61.54 C 43.29 61.32 43.57 64.37 43.57 68.32 C 43.55 75.45 46.86 96.00 48.03 96.00 C 48.36 96.00 49.39 92.74 50.32 88.75 Z" fill="none" stroke="rgba(255,255,255,0.92)" stroke-width="1.2" stroke-linejoin="round" fill-rule="evenodd"/>
</svg>
