<svg xmlns="http://www.w3.org/2000/svg" viewBox="0 0 400 118" width="400" height="118">
  <path d="M 0.00 59.00 L 0.00 0.00 L 200.00 0.00 L 400.00 0.00 L 400.00 59.00 L 400.00 118.00 L 200.00 118.00 L 0.00 118.00 L 0.00 59.00 Z M 273.50 112.52 C 306.60 112.00 342.53 111.55 384.23 111.12 L 395.97 111.00 L 395.93 58.25 L 395.89 5.50 L 355.70 5.72 C 333.59 5.84 253.62 6.19 178.00 6.49 C 102.38 6.78 32.62 7.16 23.00 7.32 L 5.50 7.61 L 5.67 37.05 C 5.76 53.25 5.88 76.93 5.92 89.68 C 5.99 110.89 6.15 112.89 7.75 113.25 C 10.26 113.83 228.27 113.23 273.50 112.52 Z M 47.00 111.00 C 48.96 109.73 50.28 109.73 49.50 111.00 C 49.16 111.55 48.12 111.99 47.19 111.98 C 45.73 111.97 45.71 111.84 47.00 111.00 Z M 8.56 110.22 C 7.37 109.04 8.08 105.18 9.58 104.61 C 12.63 103.44 101.83 103.92 102.57 105.11 C 103.88 107.23 100.45 107.97 89.31 107.98 C 82.94 107.99 77.85 108.43 77.50 109.00 C 77.16 109.55 76.12 109.99 75.19 109.98 C 73.79 109.97 73.75 109.81 74.94 109.06 C 76.78 107.90 24.38 107.98 21.19 109.15 C 19.71 109.69 19.11 109.64 19.50 109.00 C 19.86 108.42 18.86 108.00 17.12 108.00 C 15.47 108.00 13.87 108.40 13.57 108.88 C 12.88 110.00 9.29 110.96 8.56 110.22 Z M 282.08 109.42 C 282.13 108.25 282.36 108.01 282.68 108.81 C 282.97 109.53 282.94 110.40 282.60 110.73 C 282.27 111.06 282.04 110.47 282.08 109.42 Z M 292.00 110.00 C 289.52 109.37 289.52 109.37 292.50 108.77 C 295.92 108.09 296.16 108.16 295.20 109.60 C 294.81 110.17 293.38 110.35 292.00 110.00 Z M 101.81 109.32 C 102.53 109.03 103.40 109.06 103.73 109.40 C 104.06 109.73 103.47 109.96 102.42 109.92 C 101.25 109.87 101.01 109.64 101.81 109.32 Z M 296.00 109.61 C 296.00 108.66 298.99 108.18 299.53 109.04 C 299.85 109.57 299.19 110.00 298.06 110.00 C 296.93 110.00 296.00 109.82 296.00 109.61 Z M 303.75 109.34 C 304.44 109.06 305.56 109.06 306.25 109.34 C 306.94 109.62 306.38 109.84 305.00 109.84 C 303.62 109.84 303.06 109.62 303.75 109.34 Z M 309.50 109.00 C 309.84 108.45 310.32 108.00 310.56 108.00 C 310.80 108.00 311.00 108.45 311.00 109.00 C 311.00 109.55 310.52 110.00 309.94 110.00 C 309.36 110.00 309.16 109.55 309.50 109.00 Z M 343.00 109.00 C 343.00 108.45 343.48 108.00 344.06 108.00 C 344.64 108.00 344.84 108.45 344.50 109.00 C 344.16 109.55 343.68 110.00 343.44 110.00 C 343.20 110.00 343.00 109.55 343.00 109.00 Z M 352.50 109.00 C 352.16 108.45 352.36 108.00 352.94 108.00 C 353.52 108.00 354.00 108.45 354.00 109.00 C 354.00 109.55 353.80 110.00 353.56 110.00 C 353.32 110.00 352.84 109.55 352.50 109.00 Z M 105.26 106.50 C 104.38 105.51 104.34 104.91 105.12 104.42 C 105.73 104.05 106.62 104.36 107.10 105.12 C 107.60 105.92 107.98 87.42 107.98 61.25 C 108.00 16.66 107.97 16.00 106.00 16.00 C 104.90 16.00 104.00 15.55 104.00 15.00 C 104.00 14.45 104.64 14.00 105.42 14.00 C 106.20 14.00 106.98 13.56 107.17 13.02 C 107.42 12.28 163.72 11.41 171.50 12.03 C 172.05 12.07 178.21 12.06 185.18 12.00 L 197.86 11.90 L 198.18 21.70 C 198.36 27.09 198.50 48.60 198.50 69.50 L 198.50 107.50 L 152.50 107.70 C 114.21 107.86 106.29 107.66 105.26 106.50 Z M 205.63 107.09 C 205.47 106.76 205.22 87.83 205.07 65.00 C 204.93 42.17 204.71 20.80 204.58 17.50 L 204.35 11.50 L 249.17 11.50 L 294.00 11.50 L 294.16 50.50 C 294.25 71.95 294.36 93.33 294.41 98.00 L 294.50 106.50 L 275.00 106.72 C 264.27 106.85 244.34 107.11 230.71 107.31 C 217.07 107.51 205.79 107.41 205.63 107.09 Z M 297.12 105.36 C 297.02 103.69 297.70 103.12 300.25 102.74 C 302.04 102.47 323.15 102.17 347.17 102.07 C 389.35 101.90 390.82 101.95 390.35 103.76 C 389.90 105.51 388.31 105.64 364.68 105.85 C 350.83 105.98 330.61 106.18 319.75 106.29 C 304.51 106.45 300.00 106.21 300.00 105.25 C 300.00 103.36 298.21 103.75 297.69 105.75 C 297.33 107.13 297.21 107.05 297.12 105.36 Z M 392.00 103.00 C 392.00 102.45 392.45 102.00 393.00 102.00 C 393.55 102.00 394.00 102.45 394.00 103.00 C 394.00 103.55 393.55 104.00 393.00 104.00 C 392.45 104.00 392.00 103.55 392.00 103.00 Z M 19.48 94.02 L 23.41 90.00 L 57.01 90.00 L 90.61 90.00 L 93.80 93.30 C 95.56 95.11 97.00 96.89 97.00 97.26 C 97.00 97.62 78.68 97.95 56.28 97.98 L 15.56 98.04 L 19.48 94.02 Z M 305.66 96.26 C 305.40 95.83 306.57 93.93 308.27 92.03 L 311.36 88.57 L 345.30 88.17 L 379.24 87.77 L 382.12 91.13 C 383.70 92.99 385.00 94.82 385.00 95.21 C 385.00 95.59 367.62 95.94 346.37 95.98 C 325.13 96.01 307.38 96.26 306.94 96.54 C 306.50 96.81 305.92 96.68 305.66 96.26 Z M 201.00 93.33 C 201.00 92.60 201.68 92.00 202.50 92.00 C 203.32 92.00 204.00 92.60 204.00 93.33 C 204.00 94.07 203.32 94.67 202.50 94.67 C 201.68 94.67 201.00 94.07 201.00 93.33 Z M 11.67 89.91 C 10.71 86.32 10.86 30.00 11.83 30.00 C 12.29 30.00 13.87 31.35 15.33 32.99 L 18.00 35.98 L 18.00 60.98 L 18.00 85.97 L 15.16 89.15 L 12.32 92.33 L 11.67 89.91 Z M 98.12 88.48 L 95.03 84.97 L 95.04 59.66 L 95.04 34.35 L 98.52 30.98 L 102.00 27.61 L 102.00 59.80 C 102.00 77.51 101.82 92.00 101.60 92.00 C 101.39 92.00 99.82 90.42 98.12 88.48 Z M 300.03 59.25 L 300.05 27.50 L 303.53 31.24 L 307.00 34.97 L 307.00 59.32 L 307.00 83.68 L 304.25 87.30 C 302.74 89.30 301.16 90.94 300.75 90.96 C 300.34 90.98 300.01 76.71 300.03 59.25 Z M 386.10 86.47 L 383.00 82.93 L 383.00 58.16 L 383.00 33.39 L 386.50 30.00 L 390.00 26.61 L 390.00 58.30 C 390.00 75.74 389.82 90.00 389.60 90.00 C 389.39 90.00 387.81 88.41 386.10 86.47 Z M 24.23 60.75 L 24.50 37.50 L 56.75 37.24 L 89.00 36.97 L 89.00 59.87 L 89.00 82.77 L 86.75 83.37 C 85.51 83.70 70.88 83.98 54.23 83.99 L 23.96 84.00 L 24.23 60.75 Z M 312.74 59.25 C 312.43 46.74 312.25 36.45 312.34 36.38 C 312.43 36.32 327.01 36.02 344.75 35.71 L 377.00 35.15 L 377.00 58.58 L 377.00 82.00 L 345.15 82.00 L 313.30 82.00 L 312.74 59.25 Z M 19.20 27.70 C 17.44 25.89 16.00 24.12 16.00 23.77 C 16.00 23.42 32.31 23.06 52.25 22.96 C 72.19 22.86 90.60 22.68 93.17 22.55 L 97.84 22.31 L 94.87 26.01 C 91.93 29.67 91.80 29.72 82.80 30.35 C 77.79 30.71 62.15 31.00 48.04 31.00 L 22.39 31.00 L 19.20 27.70 Z M 307.52 26.02 L 303.59 22.00 L 328.55 21.94 C 342.27 21.91 360.59 21.65 369.25 21.37 C 377.93 21.09 385.00 21.26 385.00 21.74 C 385.00 22.22 383.54 24.01 381.75 25.73 L 378.50 28.85 L 344.97 29.44 L 311.44 30.03 L 307.52 26.02 Z M 200.08 19.42 C 200.13 18.25 200.36 18.01 200.68 18.81 C 200.97 19.53 200.94 20.40 200.60 20.73 C 200.27 21.06 200.04 20.47 200.08 19.42 Z M 201.50 17.00 C 201.84 16.45 202.32 16.00 202.56 16.00 C 202.80 16.00 203.00 16.45 203.00 17.00 C 203.00 17.55 202.52 18.00 201.94 18.00 C 201.36 18.00 201.16 17.55 201.50 17.00 Z M 7.00 15.44 C 7.00 14.55 7.48 14.18 8.11 14.57 C 8.72 14.95 9.51 14.81 9.86 14.27 C 10.26 13.66 28.08 13.06 56.81 12.70 C 99.98 12.15 103.10 12.23 102.80 13.81 C 102.52 15.27 100.51 15.58 87.99 16.12 C 80.02 16.47 58.54 16.81 40.25 16.87 C 10.75 16.99 7.00 16.82 7.00 15.44 Z M 298.71 14.00 C 298.42 12.90 298.48 11.97 298.84 11.93 C 299.20 11.90 319.83 11.74 344.67 11.59 C 386.31 11.34 389.88 11.45 390.29 13.00 C 390.69 14.54 388.26 14.74 362.20 15.34 C 346.51 15.70 325.93 16.00 316.45 16.00 C 300.07 16.00 299.21 15.90 298.71 14.00 Z M 392.03 11.55 C 392.01 9.40 392.30 8.90 393.10 9.70 C 393.89 10.49 393.90 11.33 393.13 12.65 C 392.19 14.27 392.06 14.14 392.03 11.55 Z M 46.81 10.32 C 47.53 10.03 48.40 10.06 48.73 10.40 C 49.06 10.73 48.47 10.96 47.42 10.92 C 46.25 10.87 46.01 10.64 46.81 10.32 Z M 138.00 10.00 C 138.00 9.45 138.48 9.00 139.06 9.00 C 139.64 9.00 139.84 9.45 139.50 10.00 C 139.16 10.55 138.68 11.00 138.44 11.00 C 138.20 11.00 138.00 10.55 138.00 10.00 Z M 96.50 9.00 C 96.84 8.45 97.57 8.00 98.12 8.00 C 98.67 8.00 98.84 8.45 98.50 9.00 C 98.16 9.55 97.43 10.00 96.88 10.00 C 96.33 10.00 96.16 9.55 96.50 9.00 Z M 111.81 9.32 C 112.53 9.03 113.40 9.06 113.73 9.40 C 114.06 9.73 113.47 9.96 112.42 9.92 C 111.25 9.87 111.01 9.64 111.81 9.32 Z M 129.76 9.29 C 131.01 9.05 132.81 9.06 133.76 9.31 C 134.72 9.56 133.70 9.76 131.50 9.75 C 129.30 9.74 128.52 9.53 129.76 9.29 Z M 300.00 9.00 C 300.00 8.45 300.45 8.00 301.00 8.00 C 301.55 8.00 302.00 8.45 302.00 9.00 C 302.00 9.55 301.55 10.00 301.00 10.00 C 300.45 10.00 300.00 9.55 300.00 9.00 Z M 303.51 8.98 C 303.84 8.44 305.52 8.00 307.23 8.00 C 311.00 8.00 310.62 8.50 306.20 9.34 C 304.14 9.73 303.13 9.60 303.51 8.98 Z M 311.50 9.00 C 311.84 8.45 312.32 8.00 312.56 8.00 C 312.80 8.00 313.00 8.45 313.00 9.00 C 313.00 9.55 312.52 10.00 311.94 10.00 C 311.36 10.00 311.16 9.55 311.50 9.00 Z M 314.50 9.00 C 314.16 8.45 314.56 8.00 315.38 8.00 C 316.21 8.00 317.16 8.45 317.50 9.00 C 317.84 9.55 317.44 10.00 316.62 10.00 C 315.79 10.00 314.84 9.55 314.50 9.00 Z M 324.50 9.00 C 324.84 8.45 325.57 8.00 326.12 8.00 C 326.67 8.00 326.84 8.45 326.50 9.00 C 326.16 9.55 325.43 10.00 324.88 10.00 C 324.33 10.00 324.16 9.55 324.50 9.00 Z M 344.81 9.32 C 345.53 9.03 346.40 9.06 346.73 9.40 C 347.06 9.73 346.47 9.96 345.42 9.92 C 344.25 9.87 344.01 9.64 344.81 9.32 Z M 375.00 9.00 C 375.00 8.45 375.48 8.00 376.06 8.00 C 376.64 8.00 376.84 8.45 376.50 9.00 C 376.16 9.55 375.68 10.00 375.44 10.00 C 375.20 10.00 375.00 9.55 375.00 9.00 Z M 118.81 8.32 C 119.53 8.03 120.40 8.06 120.73 8.40 C 121.06 8.73 120.47 8.96 119.42 8.92 C 118.25 8.87 118.01 8.64 118.81 8.32 Z M 124.75 8.34 C 125.44 8.06 126.56 8.06 127.25 8.34 C 127.94 8.62 127.38 8.84 126.00 8.84 C 124.62 8.84 124.06 8.62 124.75 8.34 Z M 170.81 8.32 C 171.53 8.03 172.40 8.06 172.73 8.40 C 173.06 8.73 172.47 8.96 171.42 8.92 C 170.25 8.87 170.01 8.64 170.81 8.32 Z M 356.81 8.14 C 358.03 7.36 363.00 7.75 363.00 8.62 C 363.00 8.83 361.31 8.99 359.25 8.98 C 356.86 8.97 355.98 8.67 356.81 8.14 Z M 384.75 8.34 C 385.44 8.06 386.56 8.06 387.25 8.34 C 387.94 8.62 387.38 8.84 386.00 8.84 C 384.62 8.84 384.06 8.62 384.75 8.34 Z M 389.81 8.32 C 390.53 8.03 391.40 8.06 391.73 8.40 C 392.06 8.73 391.47 8.96 390.42 8.92 C 389.25 8.87 389.01 8.64 389.81 8.32 Z" fill="none" stroke="rgba(255,255,255,0.92)" stroke-width="1.5" stroke-linejoin="round" fill-rule="evenodd"/>
</svg>
