<svg xmlns="http://www.w3.org/2000/svg" viewBox="0 0 100 100" width="100" height="100">
  <path d="M 0.00 50.00 L 0.00 0.00 L 50.00 0.00 L 100.00 0.00 L 100.00 50.00 L 100.00 100.00 L 50.00 100.00 L 0.00 100.00 L 0.00 50.00 Z M 84.26 94.11 L 96.01 94.00 L 95.76 49.25 C 95.56 14.19 95.23 4.52 94.25 4.60 C 93.56 4.66 72.98 4.77 48.50 4.85 C 19.60 4.95 4.00 5.35 4.00 6.00 C 4.00 6.55 5.46 7.07 7.25 7.16 L 10.50 7.32 L 7.25 7.72 C 5.46 7.95 4.00 8.56 4.00 9.10 C 4.00 9.72 19.57 9.97 47.00 9.78 C 70.65 9.62 90.00 9.57 90.00 9.66 C 90.00 9.76 90.27 10.55 90.61 11.42 C 91.15 12.85 86.96 13.00 47.61 13.00 L 4.00 13.00 L 4.00 15.75 L 4.00 18.50 L 44.75 18.19 L 85.50 17.88 L 82.05 21.44 L 78.61 25.00 L 44.48 25.00 L 10.35 25.00 L 8.00 22.50 C 6.71 21.12 5.28 20.00 4.83 20.00 C 3.38 20.00 3.94 26.71 5.50 28.00 C 7.69 29.82 7.72 69.66 5.53 72.56 C 4.61 73.78 4.05 76.87 4.03 80.91 L 4.00 87.32 L 47.50 86.61 C 89.08 85.93 93.79 86.16 89.75 88.65 C 88.28 89.56 85.38 89.63 39.25 89.90 L 4.00 90.10 L 4.00 92.50 L 4.00 94.90 L 38.25 94.56 C 57.09 94.37 77.79 94.17 84.26 94.11 Z M 10.27 92.31 C 11.24 92.05 12.59 92.07 13.27 92.34 C 13.95 92.62 13.15 92.83 11.50 92.81 C 9.85 92.78 9.30 92.56 10.27 92.31 Z M 51.75 92.34 C 52.44 92.06 53.56 92.06 54.25 92.34 C 54.94 92.62 54.38 92.84 53.00 92.84 C 51.62 92.84 51.06 92.62 51.75 92.34 Z M 92.50 87.00 C 92.84 86.45 93.32 86.00 93.56 86.00 C 93.80 86.00 94.00 86.45 94.00 87.00 C 94.00 87.55 93.52 88.00 92.94 88.00 C 92.36 88.00 92.16 87.55 92.50 87.00 Z M 5.07 81.13 C 5.11 80.78 6.59 79.31 8.35 77.84 L 11.56 75.19 L 45.19 74.88 L 78.83 74.57 L 82.09 77.27 C 83.89 78.76 85.16 80.15 84.93 80.36 C 84.18 81.03 5.00 81.79 5.07 81.13 Z M 86.24 73.18 L 82.98 70.50 L 82.99 49.44 L 83.00 28.37 L 85.99 25.51 C 87.63 23.93 89.22 22.88 89.51 23.17 C 89.80 23.46 89.91 35.44 89.77 49.78 L 89.50 75.86 L 86.24 73.18 Z M 12.75 50.86 C 12.45 40.21 12.41 31.16 12.66 30.75 C 12.91 30.34 27.49 30.00 45.06 30.00 L 77.00 30.00 L 77.00 49.50 L 77.00 69.00 L 60.75 69.03 C 51.81 69.04 37.48 69.32 28.90 69.64 L 13.30 70.22 L 12.75 50.86 Z M 92.03 10.32 C 92.01 9.11 91.23 7.94 90.25 7.69 C 88.90 7.34 89.00 7.21 90.69 7.12 C 93.44 6.97 94.42 8.45 93.08 10.74 C 92.16 12.33 92.06 12.29 92.03 10.32 Z M 14.00 8.00 C 11.78 7.29 11.93 7.19 15.31 7.10 C 17.62 7.04 18.87 7.39 18.50 8.00 C 17.81 9.12 17.51 9.12 14.00 8.00 Z M 24.81 7.32 C 25.53 7.03 26.40 7.06 26.73 7.40 C 27.06 7.73 26.47 7.96 25.42 7.92 C 24.25 7.87 24.01 7.64 24.81 7.32 Z M 42.81 7.32 C 43.53 7.03 44.40 7.06 44.73 7.40 C 45.06 7.73 44.47 7.96 43.42 7.92 C 42.25 7.87 42.01 7.64 42.81 7.32 Z M 56.50 7.00 C 59.25 5.82 60.23 5.82 59.50 7.00 C 59.16 7.55 57.90 7.97 56.69 7.93 C 54.58 7.86 54.57 7.83 56.50 7.00 Z M 75.81 7.32 C 76.53 7.03 77.40 7.06 77.73 7.40 C 78.06 7.73 77.47 7.96 76.42 7.92 C 75.25 7.87 75.01 7.64 75.81 7.32 Z M 79.81 7.32 C 80.53 7.03 81.40 7.06 81.73 7.40 C 82.06 7.73 81.47 7.96 80.42 7.92 C 79.25 7.87 79.01 7.64 79.81 7.32 Z M 85.81 7.32 C 86.53 7.03 87.40 7.06 87.73 7.40 C 88.06 7.73 87.47 7.96 86.42 7.92 C 85.25 7.87 85.01 7.64 85.81 7.32 Z" fill="none" stroke="rgba(255,255,255,0.92)" stroke-width="1.2" stroke-linejoin="round" fill-rule="evenodd"/>
</svg>
