<svg xmlns="http://www.w3.org/2000/svg" viewBox="0 0 386 400" width="386" height="400">
  <path d="M 0.00 200.00 L 0.00 0.00 L 181.89 0.00 C 342.65 0.00 363.85 0.17 364.36 1.50 C 365.11 3.45 369.89 3.45 370.64 1.50 C 371.08 0.35 372.96 0.00 378.61 0.00 L 386.00 0.00 L 386.00 200.00 L 386.00 400.00 L 193.00 400.00 L 0.00 400.00 L 0.00 200.00 Z M 287.00 391.49 C 373.36 391.01 373.20 391.01 374.23 391.64 C 374.70 391.93 375.73 391.64 376.52 390.98 C 377.74 389.97 377.88 382.14 377.44 337.65 C 377.16 308.97 376.78 265.35 376.60 240.72 C 376.42 216.09 376.02 195.68 375.70 195.36 C 375.13 194.80 330.32 194.87 249.00 195.54 C 227.82 195.72 208.19 195.62 205.36 195.33 C 200.26 194.80 200.22 194.77 199.58 190.80 C 198.90 186.54 196.67 183.47 195.01 184.50 C 194.37 184.89 194.05 182.99 194.15 179.31 C 194.23 176.11 194.49 174.74 194.72 176.25 C 194.95 177.76 195.75 179.00 196.51 179.00 C 198.61 179.00 199.12 177.44 197.99 174.48 C 197.28 172.59 196.49 171.98 195.36 172.42 C 193.96 172.95 193.84 172.46 194.47 168.77 C 195.20 164.55 195.48 161.76 196.06 153.00 C 196.22 150.53 195.78 147.44 195.08 146.14 C 194.38 144.84 193.99 142.25 194.20 140.39 C 194.42 138.52 194.24 137.00 193.80 137.00 C 192.65 137.00 192.81 132.22 194.04 129.93 C 194.60 128.87 195.68 128.00 196.43 128.00 C 197.18 128.00 198.05 127.31 198.37 126.48 C 199.14 124.47 196.92 114.93 195.84 115.60 C 195.38 115.89 195.00 115.18 195.00 114.03 C 195.00 112.88 194.32 111.68 193.50 111.36 C 192.63 111.03 192.06 109.67 192.14 108.14 C 192.26 105.68 192.30 105.66 192.72 107.83 C 192.99 109.28 193.67 109.96 194.51 109.63 C 195.26 109.35 196.06 109.65 196.30 110.31 C 197.67 114.13 198.45 104.52 198.11 88.00 C 197.85 75.25 195.95 80.33 195.88 93.97 C 195.84 101.04 195.46 104.79 194.82 104.39 C 194.27 104.05 194.04 102.94 194.31 101.92 C 194.58 100.91 194.16 99.55 193.40 98.91 C 191.96 97.73 191.47 92.86 192.67 91.67 C 193.81 90.52 193.95 85.65 192.87 84.35 C 191.90 83.17 192.30 28.68 193.34 21.75 C 193.57 20.24 193.81 17.83 193.88 16.39 C 193.97 14.51 194.42 13.95 195.50 14.36 C 197.54 15.14 197.91 10.19 195.91 8.95 C 194.81 8.27 110.17 8.63 82.00 9.44 C 70.72 9.76 50.02 10.17 36.00 10.35 L 10.50 10.68 L 10.63 46.59 C 10.70 66.34 11.00 100.50 11.30 122.50 C 11.60 144.50 11.90 171.50 11.96 182.50 C 12.08 205.24 12.48 206.77 17.88 204.89 C 20.34 204.03 21.40 204.09 22.67 205.14 C 24.10 206.33 24.21 206.22 23.58 204.24 C 22.77 201.69 23.23 201.51 26.32 203.18 C 28.71 204.48 31.17 204.89 38.00 205.13 C 45.59 205.40 47.55 205.07 49.58 203.17 C 52.22 200.71 62.31 200.31 66.67 202.49 C 68.41 203.35 71.55 204.01 73.66 203.94 C 75.77 203.87 80.31 204.15 83.75 204.55 C 89.47 205.22 90.00 205.12 90.02 203.39 C 90.03 202.02 90.26 201.85 90.85 202.80 C 92.12 204.79 117.84 205.53 169.50 205.07 C 176.65 205.01 184.03 205.31 185.90 205.75 L 189.30 206.54 L 189.58 221.02 C 189.97 240.83 190.90 302.22 191.54 350.48 C 191.83 372.48 192.39 390.79 192.79 391.19 C 193.68 392.08 207.76 392.77 214.50 392.25 C 217.25 392.04 249.88 391.69 287.00 391.49 Z M 195.71 387.00 C 196.00 385.90 196.41 385.00 196.62 385.00 C 196.83 385.00 197.00 385.90 197.00 387.00 C 197.00 388.10 196.59 389.00 196.09 389.00 C 195.60 389.00 195.42 388.10 195.71 387.00 Z M 211.00 387.90 C 212.13 387.10 211.52 386.97 208.59 387.38 C 203.36 388.11 205.30 386.40 210.69 385.52 C 214.52 384.90 214.87 385.02 214.73 386.92 C 214.62 388.44 213.90 389.00 212.04 388.98 C 209.97 388.97 209.78 388.77 211.00 387.90 Z M 235.75 388.34 C 236.44 388.06 237.56 388.06 238.25 388.34 C 238.94 388.62 238.38 388.84 237.00 388.84 C 235.62 388.84 235.06 388.62 235.75 388.34 Z M 246.75 388.34 C 247.44 388.06 248.56 388.06 249.25 388.34 C 249.94 388.62 249.38 388.84 248.00 388.84 C 246.62 388.84 246.06 388.62 246.75 388.34 Z M 322.81 388.32 C 323.53 388.03 324.40 388.06 324.73 388.40 C 325.06 388.73 324.47 388.96 323.42 388.92 C 322.25 388.87 322.01 388.64 322.81 388.32 Z M 338.81 388.32 C 339.53 388.03 340.40 388.06 340.73 388.40 C 341.06 388.73 340.47 388.96 339.42 388.92 C 338.25 388.87 338.01 388.64 338.81 388.32 Z M 348.61 387.56 C 348.92 386.77 349.80 386.37 350.58 386.67 C 352.27 387.32 351.47 389.00 349.47 389.00 C 348.66 389.00 348.30 388.39 348.61 387.56 Z M 252.50 387.00 C 252.16 386.45 252.58 386.00 253.44 386.00 C 254.30 386.00 255.00 386.45 255.00 387.00 C 255.00 387.55 254.58 388.00 254.06 388.00 C 253.54 388.00 252.84 387.55 252.50 387.00 Z M 301.25 387.34 C 299.01 386.43 299.93 385.00 302.75 385.02 C 306.78 385.04 308.79 386.56 305.83 387.35 C 303.22 388.05 303.01 388.05 301.25 387.34 Z M 318.00 387.00 C 316.78 386.21 316.91 386.03 318.69 386.02 C 319.90 386.01 321.16 386.45 321.50 387.00 C 322.29 388.27 319.97 388.27 318.00 387.00 Z M 361.10 387.06 C 360.38 386.61 360.19 386.00 360.69 385.69 C 361.19 385.38 362.18 385.50 362.90 385.94 C 363.62 386.39 363.81 387.00 363.31 387.31 C 362.81 387.62 361.82 387.50 361.10 387.06 Z M 342.80 385.80 C 343.73 384.87 344.27 384.87 345.20 385.80 C 346.13 386.73 345.87 387.00 344.00 387.00 C 342.13 387.00 341.87 386.73 342.80 385.80 Z M 370.69 386.28 C 372.61 386.04 374.05 385.21 374.32 384.19 C 374.64 382.99 374.80 383.15 374.88 384.75 C 374.99 386.73 374.55 386.98 371.25 386.84 C 367.65 386.69 367.63 386.66 370.69 386.28 Z M 326.81 385.32 C 327.53 385.03 328.40 385.06 328.73 385.40 C 329.06 385.73 328.47 385.96 327.42 385.92 C 326.25 385.87 326.01 385.64 326.81 385.32 Z M 337.81 385.32 C 338.53 385.03 339.40 385.06 339.73 385.40 C 340.06 385.73 339.47 385.96 338.42 385.92 C 337.25 385.87 337.01 385.64 337.81 385.32 Z M 198.64 383.50 C 198.32 382.68 198.50 382.00 199.03 382.00 C 199.56 382.00 200.00 382.68 200.00 383.50 C 200.00 384.32 199.82 385.00 199.61 385.00 C 199.39 385.00 198.95 384.32 198.64 383.50 Z M 370.40 383.41 C 370.73 382.54 371.28 380.07 371.63 377.93 C 371.97 375.79 372.58 374.24 372.99 374.49 C 374.03 375.14 371.94 385.00 370.76 385.00 C 370.22 385.00 370.06 384.29 370.40 383.41 Z M 202.87 381.50 C 201.85 381.50 200.98 343.23 199.54 235.00 C 199.21 210.01 199.21 209.95 197.88 210.25 C 197.26 210.39 196.54 209.94 196.29 209.25 C 196.04 208.56 196.55 208.00 197.42 208.00 C 198.29 208.00 199.01 207.44 199.02 206.75 C 199.04 204.71 200.34 203.32 202.99 202.49 C 205.15 201.82 205.31 201.92 204.22 203.23 C 203.12 204.56 203.75 204.82 209.23 205.23 C 212.68 205.48 215.75 205.32 216.05 204.87 C 216.34 204.42 219.44 204.50 222.93 205.07 C 227.09 205.74 251.44 205.85 293.88 205.41 C 366.09 204.65 364.04 204.64 365.15 205.75 C 365.86 206.46 366.80 269.81 367.33 351.96 L 367.50 379.42 L 364.00 380.15 C 362.07 380.55 346.10 380.93 328.50 380.99 C 310.90 381.06 275.46 381.19 249.75 381.30 C 224.04 381.41 202.94 381.50 202.87 381.50 Z M 198.08 374.42 C 198.13 373.25 198.36 373.01 198.68 373.81 C 198.97 374.53 198.94 375.40 198.60 375.73 C 198.27 376.06 198.04 375.47 198.08 374.42 Z M 195.81 372.48 C 195.45 371.91 195.48 369.89 195.87 367.98 C 196.29 365.93 196.80 365.12 197.11 366.00 C 197.80 368.00 196.64 373.78 195.81 372.48 Z M 371.00 369.19 C 371.00 368.75 371.66 367.51 372.47 366.44 C 373.97 364.46 374.49 365.57 373.39 368.42 C 372.77 370.05 371.00 370.62 371.00 369.19 Z M 195.89 363.50 C 195.06 362.16 195.48 330.19 196.33 329.34 C 196.70 328.97 197.00 331.35 197.00 334.63 C 197.00 338.01 197.53 341.13 198.22 341.82 C 199.16 342.76 199.18 343.48 198.29 344.91 C 197.65 345.94 197.16 348.74 197.20 351.14 C 197.25 354.36 197.48 354.98 198.06 353.50 C 198.78 351.70 198.87 351.76 198.93 354.05 C 198.97 355.45 198.58 357.03 198.08 357.55 C 197.57 358.07 197.01 359.85 196.83 361.50 C 196.65 363.15 196.22 364.05 195.89 363.50 Z M 372.19 361.50 C 372.22 359.85 372.44 359.30 372.69 360.27 C 372.95 361.24 372.93 362.59 372.66 363.27 C 372.38 363.95 372.17 363.15 372.19 361.50 Z M 371.58 357.13 C 371.15 356.44 371.07 355.60 371.40 355.27 C 372.29 354.37 373.27 355.69 372.79 357.14 C 372.45 358.15 372.21 358.15 371.58 357.13 Z M 372.16 337.00 C 372.16 335.62 372.38 335.06 372.66 335.75 C 372.94 336.44 372.94 337.56 372.66 338.25 C 372.38 338.94 372.16 338.38 372.16 337.00 Z M 372.75 329.42 C 372.34 329.01 372.01 327.50 372.03 326.08 C 372.06 323.82 372.19 323.72 373.10 325.28 C 374.24 327.24 373.95 330.63 372.75 329.42 Z M 195.02 322.25 C 195.02 321.29 195.42 319.89 195.89 319.14 C 197.09 317.25 198.32 319.43 197.50 322.01 C 196.72 324.47 194.99 324.63 195.02 322.25 Z M 196.16 313.00 C 196.16 311.62 196.38 311.06 196.66 311.75 C 196.94 312.44 196.94 313.56 196.66 314.25 C 196.38 314.94 196.16 314.38 196.16 313.00 Z M 372.08 310.42 C 372.13 309.25 372.36 309.01 372.68 309.81 C 372.97 310.53 372.94 311.40 372.60 311.73 C 372.27 312.06 372.04 311.47 372.08 310.42 Z M 195.50 308.00 C 195.84 307.45 196.32 307.00 196.56 307.00 C 196.80 307.00 197.00 307.45 197.00 308.00 C 197.00 308.55 196.52 309.00 195.94 309.00 C 195.36 309.00 195.16 308.55 195.50 308.00 Z M 195.00 299.00 C 195.00 298.45 195.48 298.00 196.06 298.00 C 196.64 298.00 196.84 298.45 196.50 299.00 C 196.16 299.55 195.68 300.00 195.44 300.00 C 195.20 300.00 195.00 299.55 195.00 299.00 Z M 371.00 295.94 C 371.00 294.81 371.43 294.15 371.96 294.47 C 372.48 294.80 372.66 295.72 372.35 296.53 C 371.56 298.60 371.00 298.36 371.00 295.94 Z M 195.00 293.94 C 195.00 292.81 195.45 292.16 196.00 292.50 C 196.55 292.84 197.00 293.77 197.00 294.56 C 197.00 295.35 196.55 296.00 196.00 296.00 C 195.45 296.00 195.00 295.07 195.00 293.94 Z M 371.62 292.44 C 370.83 290.38 371.65 289.25 372.98 290.58 C 373.49 291.09 373.55 292.11 373.10 292.84 C 372.45 293.88 372.14 293.80 371.62 292.44 Z M 370.00 285.73 C 370.00 284.35 370.68 282.95 371.50 282.64 C 372.50 282.25 373.00 282.68 373.00 283.91 C 373.00 284.92 372.32 286.32 371.50 287.00 C 370.23 288.05 370.00 287.85 370.00 285.73 Z M 194.00 282.50 C 194.00 281.63 194.60 281.29 195.50 281.64 C 196.32 281.95 197.00 282.34 197.00 282.50 C 197.00 282.66 196.32 283.05 195.50 283.36 C 194.60 283.71 194.00 283.37 194.00 282.50 Z M 194.00 272.57 C 194.00 268.05 195.22 266.52 196.39 269.58 C 197.38 272.15 197.10 274.04 195.50 275.64 C 194.17 276.98 194.00 276.63 194.00 272.57 Z M 370.00 273.89 C 370.00 272.37 370.45 270.84 371.00 270.50 C 372.27 269.72 372.29 264.90 371.04 261.60 C 370.02 258.91 371.29 257.04 372.65 259.23 C 373.64 260.84 373.88 273.00 372.91 273.00 C 372.51 273.00 372.40 273.82 372.67 274.83 C 372.98 276.04 372.61 276.67 371.57 276.67 C 370.52 276.67 370.00 275.75 370.00 273.89 Z M 194.43 264.88 C 193.31 263.08 193.86 217.55 195.00 217.17 C 195.55 216.98 196.00 215.75 196.00 214.42 C 196.00 213.09 196.34 212.00 196.75 212.00 C 197.16 212.00 197.50 217.87 197.50 225.04 C 197.50 235.52 197.20 238.27 196.00 239.06 C 194.68 239.92 194.69 240.15 196.08 240.97 C 197.40 241.75 197.63 243.75 197.43 252.71 C 197.29 258.64 197.14 264.06 197.09 264.75 C 196.98 266.30 195.35 266.38 194.43 264.88 Z M 371.44 251.91 C 371.06 251.29 370.65 247.66 370.54 243.84 C 370.41 239.90 370.68 237.46 371.14 238.20 C 371.65 239.00 371.98 237.87 371.98 235.25 C 371.99 232.91 371.55 231.00 371.00 231.00 C 370.45 231.00 370.04 229.31 370.08 227.25 C 370.12 225.19 370.41 224.18 370.73 225.00 C 371.04 225.82 371.66 226.74 372.10 227.03 C 373.11 227.70 373.83 251.99 372.85 252.59 C 372.46 252.83 371.83 252.53 371.44 251.91 Z M 195.68 227.81 C 195.36 227.01 195.13 227.25 195.08 228.42 C 195.04 229.47 195.27 230.06 195.60 229.73 C 195.94 229.40 195.97 228.53 195.68 227.81 Z M 371.68 224.60 C 371.11 223.13 371.76 222.00 373.17 222.00 C 373.62 222.00 374.00 222.90 374.00 224.00 C 374.00 226.29 372.48 226.68 371.68 224.60 Z M 372.08 219.42 C 372.13 218.25 372.36 218.01 372.68 218.81 C 372.97 219.53 372.94 220.40 372.60 220.73 C 372.27 221.06 372.04 220.47 372.08 219.42 Z M 371.02 216.48 C 371.72 215.64 372.49 215.16 372.74 215.41 C 373.44 216.10 372.03 218.00 370.82 218.00 C 370.16 218.00 370.23 217.43 371.02 216.48 Z M 193.39 206.57 C 192.55 204.39 193.45 203.60 195.49 204.73 C 196.96 205.56 196.97 205.78 195.58 206.94 C 194.29 208.01 193.92 207.94 193.39 206.57 Z M 52.73 205.40 C 52.40 205.06 51.53 205.03 50.81 205.32 C 50.01 205.64 50.25 205.87 51.42 205.92 C 52.47 205.96 53.06 205.73 52.73 205.40 Z M 370.23 204.81 C 370.85 202.96 373.00 202.65 373.00 204.42 C 373.00 205.29 372.29 206.00 371.42 206.00 C 370.55 206.00 370.01 205.47 370.23 204.81 Z M 128.25 203.19 C 125.36 202.98 124.00 202.42 124.00 201.44 C 124.00 199.72 125.67 199.51 126.22 201.17 C 126.52 202.05 127.42 202.05 129.99 201.15 C 131.87 200.50 133.76 200.36 134.23 200.83 C 135.71 202.31 132.67 203.51 128.25 203.19 Z M 146.25 203.29 C 145.01 203.05 144.00 202.41 144.00 201.85 C 144.00 201.24 145.22 201.11 147.07 201.51 C 148.82 201.90 151.40 201.66 153.10 200.96 C 156.09 199.72 158.16 200.30 156.43 201.90 C 155.23 203.01 149.14 203.84 146.25 203.29 Z M 189.00 203.00 C 187.72 202.17 187.75 202.03 189.25 202.02 C 190.21 202.01 191.00 202.45 191.00 203.00 C 191.00 204.22 190.89 204.22 189.00 203.00 Z M 180.00 202.00 C 183.59 200.85 185.21 200.85 184.50 202.00 C 184.16 202.55 182.45 202.96 180.69 202.90 C 177.64 202.81 177.61 202.76 180.00 202.00 Z M 290.71 201.00 C 291.00 199.89 292.07 199.00 293.12 199.00 C 294.92 199.00 294.92 199.08 293.00 201.00 C 291.90 202.10 290.82 203.00 290.59 203.00 C 290.37 203.00 290.42 202.10 290.71 201.00 Z M 302.55 202.07 C 303.07 201.56 304.85 200.83 306.50 200.45 C 309.38 199.79 309.42 199.83 307.50 201.35 C 305.37 203.04 300.89 203.69 302.55 202.07 Z M 315.00 202.11 C 315.00 200.75 317.32 200.15 320.31 200.72 C 324.39 201.50 323.52 203.00 319.00 203.00 C 316.80 203.00 315.00 202.60 315.00 202.11 Z M 330.55 202.07 C 331.11 201.52 332.95 201.48 335.00 201.96 L 338.50 202.80 L 334.05 202.90 C 331.28 202.96 329.96 202.65 330.55 202.07 Z M 197.23 200.81 C 197.45 200.16 198.16 199.45 198.81 199.23 C 199.54 198.99 199.77 199.44 199.39 200.42 C 198.70 202.23 196.63 202.61 197.23 200.81 Z M 17.00 200.00 C 17.00 199.45 17.48 199.00 18.06 199.00 C 18.64 199.00 18.84 199.45 18.50 200.00 C 18.16 200.55 17.68 201.00 17.44 201.00 C 17.20 201.00 17.00 200.55 17.00 200.00 Z M 74.50 200.00 C 73.72 198.73 75.04 198.73 77.00 200.00 C 78.29 200.84 78.27 200.97 76.81 200.98 C 75.88 200.99 74.84 200.55 74.50 200.00 Z M 89.00 199.94 C 89.00 199.36 89.45 199.16 90.00 199.50 C 90.55 199.84 91.00 200.32 91.00 200.56 C 91.00 200.80 90.55 201.00 90.00 201.00 C 89.45 201.00 89.00 200.52 89.00 199.94 Z M 101.50 200.00 C 101.13 199.41 102.24 199.01 104.19 199.02 C 106.70 199.03 107.14 199.27 106.00 200.00 C 104.06 201.26 102.28 201.26 101.50 200.00 Z M 195.21 197.32 C 194.22 196.93 194.19 196.48 195.07 195.41 C 196.40 193.81 198.00 194.44 198.00 196.56 C 198.00 198.05 197.42 198.21 195.21 197.32 Z M 24.75 196.19 C 21.53 195.92 21.00 195.54 21.00 193.44 C 21.00 192.10 20.55 191.00 20.00 191.00 C 19.45 191.00 19.00 191.90 19.00 193.00 C 19.00 194.11 18.33 195.00 17.50 195.00 C 16.30 195.00 15.98 193.37 15.90 186.75 C 15.85 182.21 15.65 171.86 15.46 163.75 C 15.27 155.64 15.30 149.00 15.52 149.00 C 15.74 149.00 16.39 150.72 16.95 152.83 C 17.65 155.41 18.88 157.11 20.74 158.05 C 22.26 158.82 27.32 162.74 32.00 166.77 C 36.67 170.80 42.98 176.24 46.00 178.85 C 49.02 181.46 53.59 185.08 56.15 186.89 L 60.79 190.19 L 85.42 190.05 C 98.97 189.98 110.60 189.69 111.27 189.41 C 111.95 189.12 113.85 187.15 115.50 185.02 C 117.15 182.88 121.65 177.59 125.50 173.25 C 129.35 168.91 134.53 162.95 137.00 160.01 C 139.47 157.08 145.55 150.10 150.50 144.51 C 164.56 128.63 169.77 122.56 174.27 116.82 C 176.57 113.89 178.81 111.24 179.24 110.93 C 181.14 109.56 181.94 102.48 182.52 81.69 L 183.15 59.50 L 179.32 54.83 C 177.22 52.26 171.71 45.51 167.07 39.83 C 162.43 34.15 156.91 27.48 154.81 25.00 C 152.70 22.52 150.32 19.72 149.51 18.77 C 147.80 16.76 148.53 13.88 150.56 14.66 C 151.32 14.95 152.67 14.48 153.55 13.60 C 155.61 11.54 158.00 11.55 158.00 13.62 C 158.00 14.98 158.97 15.16 164.25 14.76 C 167.69 14.50 171.36 13.93 172.41 13.48 C 173.78 12.90 174.12 13.00 173.60 13.84 C 172.37 15.82 175.73 16.28 179.12 14.59 C 183.11 12.60 183.00 12.58 183.00 15.12 C 183.00 16.74 183.47 17.11 185.00 16.71 C 186.10 16.42 187.25 16.59 187.55 17.08 C 188.49 18.60 189.30 195.00 188.37 195.00 C 177.45 195.01 76.82 195.88 56.50 196.14 C 41.10 196.34 26.81 196.36 24.75 196.19 Z M 63.34 177.24 C 61.60 176.28 58.02 173.70 55.37 171.50 C 45.89 163.61 35.47 154.52 33.84 152.73 C 31.41 150.05 30.94 139.57 30.71 82.00 L 30.50 31.50 L 34.00 31.36 C 35.92 31.28 61.35 30.88 90.50 30.46 L 143.50 29.70 L 147.50 34.18 C 153.17 40.54 162.86 52.49 167.90 59.34 L 172.20 65.18 L 171.57 79.84 C 170.63 102.01 170.23 104.66 167.31 107.78 C 165.92 109.28 162.92 112.73 160.64 115.45 C 158.36 118.17 154.63 122.44 152.34 124.95 C 150.05 127.45 146.28 131.75 143.96 134.50 C 137.59 142.06 130.79 149.89 128.00 152.89 C 126.62 154.37 123.25 158.23 120.50 161.46 C 111.43 172.12 106.69 177.49 105.85 178.05 C 105.39 178.36 96.35 178.69 85.76 178.79 C 69.11 178.96 66.07 178.74 63.34 177.24 Z M 110.26 153.33 C 113.98 152.48 117.24 151.42 117.51 150.98 C 117.79 150.53 120.15 149.15 122.76 147.90 C 125.36 146.66 130.47 142.65 134.09 139.00 C 141.63 131.41 146.06 123.08 149.23 110.57 C 156.02 83.72 142.14 53.60 117.72 42.22 C 103.11 35.40 86.88 35.27 71.96 41.86 C 62.75 45.92 61.62 46.64 56.63 51.61 C 47.56 60.63 41.24 71.85 39.06 82.80 C 37.72 89.51 37.70 103.12 39.01 110.07 C 40.77 119.32 47.38 131.46 54.44 138.36 C 70.44 154.02 87.38 158.56 110.26 153.33 Z M 15.16 145.00 C 15.16 143.62 15.38 143.06 15.66 143.75 C 15.94 144.44 15.94 145.56 15.66 146.25 C 15.38 146.94 15.16 146.38 15.16 145.00 Z M 79.50 141.60 C 71.05 137.92 68.67 136.38 63.74 131.35 C 56.91 124.39 53.27 118.50 50.86 110.50 C 49.09 104.63 48.84 101.89 49.31 93.50 C 49.96 81.92 52.10 75.48 57.94 67.59 C 66.68 55.75 76.98 49.40 89.10 48.38 C 99.40 47.51 106.90 49.25 116.26 54.69 C 125.76 60.21 130.09 65.03 135.18 75.75 C 145.60 97.70 138.82 122.54 118.69 136.21 C 110.71 141.63 102.58 144.01 92.50 143.88 C 86.66 143.80 83.15 143.19 79.50 141.60 Z M 16.19 138.50 C 16.22 136.85 16.44 136.30 16.69 137.27 C 16.95 138.24 16.93 139.59 16.66 140.27 C 16.38 140.95 16.17 140.15 16.19 138.50 Z M 18.00 133.44 C 18.00 132.58 18.46 132.16 19.02 132.51 C 19.58 132.86 19.77 133.56 19.46 134.07 C 18.60 135.46 18.00 135.20 18.00 133.44 Z M 14.00 131.00 C 14.00 130.45 14.45 130.00 15.00 130.00 C 15.55 130.00 16.00 130.45 16.00 131.00 C 16.00 131.55 15.55 132.00 15.00 132.00 C 14.45 132.00 14.00 131.55 14.00 131.00 Z M 15.97 120.77 C 15.89 117.87 15.75 112.58 15.66 109.00 C 15.57 105.42 15.09 101.87 14.60 101.10 C 14.00 100.18 14.18 99.32 15.10 98.60 C 16.75 97.30 17.42 83.24 16.01 79.51 C 15.35 77.80 15.51 76.82 16.57 75.94 C 17.85 74.88 18.02 77.91 17.95 99.85 C 17.90 113.67 17.46 125.21 16.99 125.51 C 16.51 125.81 16.05 123.67 15.97 120.77 Z M 192.67 122.33 C 191.45 121.12 191.98 119.00 193.50 119.00 C 194.33 119.00 195.00 119.89 195.00 121.00 C 195.00 122.99 193.93 123.60 192.67 122.33 Z M 77.55 108.16 C 78.07 107.69 81.10 106.29 84.27 105.03 C 88.73 103.27 91.13 102.89 94.80 103.38 C 98.29 103.84 100.13 103.60 101.77 102.45 C 104.36 100.63 104.50 99.02 102.55 93.43 C 101.37 90.03 101.31 86.50 102.22 72.16 C 102.82 62.71 103.09 54.76 102.83 54.50 C 102.57 54.23 100.14 53.90 97.43 53.76 L 92.50 53.50 L 91.75 69.00 C 90.77 89.53 90.51 90.84 87.20 92.19 C 85.71 92.79 83.07 93.90 81.33 94.65 C 79.59 95.40 76.80 96.29 75.13 96.62 C 73.47 96.96 71.40 98.00 70.54 98.95 C 69.13 100.52 69.19 101.05 71.24 104.83 C 73.41 108.82 75.54 109.94 77.55 108.16 Z M 309.14 101.32 C 309.49 101.16 308.61 97.59 307.18 93.40 C 304.76 86.29 304.70 85.69 306.29 84.53 C 308.26 83.09 308.61 78.07 306.75 77.85 C 306.06 77.77 304.64 77.66 303.59 77.60 C 302.18 77.53 301.11 75.83 299.43 71.00 C 296.93 63.79 295.27 62.73 291.85 66.15 C 290.60 67.40 286.41 71.07 282.54 74.31 C 267.46 86.91 254.00 99.57 254.00 101.14 C 254.00 102.02 307.28 102.20 309.14 101.32 Z M 327.75 71.73 C 333.43 68.18 333.94 67.59 333.34 65.16 C 332.57 61.98 331.24 60.95 329.09 61.84 C 326.05 63.10 317.19 70.06 316.57 71.67 C 315.83 73.61 318.80 77.23 320.38 76.30 C 321.00 75.94 324.31 73.88 327.75 71.73 Z M 16.96 63.00 C 16.67 58.33 16.70 52.92 17.02 51.00 L 17.62 47.50 L 18.06 50.50 C 18.30 52.15 18.27 57.55 18.00 62.50 L 17.50 71.50 L 16.96 63.00 Z M 14.16 65.00 C 14.16 63.62 14.38 63.06 14.66 63.75 C 14.94 64.44 14.94 65.56 14.66 66.25 C 14.38 66.94 14.16 66.38 14.16 65.00 Z M 347.12 55.25 C 355.29 46.24 356.18 43.35 351.62 40.57 C 350.22 39.71 349.49 39.99 347.93 42.00 C 346.85 43.38 344.63 46.16 342.99 48.18 C 339.81 52.10 339.24 54.84 341.20 56.80 C 343.02 58.62 344.39 58.27 347.12 55.25 Z M 196.17 50.38 C 196.74 49.22 196.98 47.42 196.71 46.38 C 196.32 44.84 196.21 44.92 196.12 46.81 C 196.05 48.08 195.55 48.84 195.00 48.50 C 194.40 48.13 194.03 49.39 194.08 51.69 C 194.12 53.79 194.38 54.83 194.65 54.00 C 194.92 53.17 195.61 51.55 196.17 50.38 Z M 363.82 29.25 C 364.85 27.19 366.27 23.33 366.99 20.68 C 368.15 16.42 368.11 15.68 366.63 14.20 C 364.10 11.67 362.00 13.65 359.32 21.06 C 356.04 30.17 356.24 33.00 360.15 33.00 C 361.24 33.00 362.70 31.52 363.82 29.25 Z M 161.81 13.32 C 162.53 13.03 163.40 13.06 163.73 13.40 C 164.06 13.73 163.47 13.96 162.42 13.92 C 161.25 13.87 161.01 13.64 161.81 13.32 Z" fill="none" stroke="rgba(255,255,255,0.92)" stroke-width="1.5" stroke-linejoin="round" fill-rule="evenodd"/>
</svg>
