<svg xmlns="http://www.w3.org/2000/svg" viewBox="0 0 100 100" width="100" height="100">
  <path d="M 0.00 50.00 L 0.00 0.00 L 50.00 0.00 L 100.00 0.00 L 100.00 50.00 L 100.00 100.00 L 50.00 100.00 L 0.00 100.00 L 0.00 50.00 Z M 96.00 93.67 C 96.00 91.35 95.96 91.34 84.25 91.61 C 77.79 91.75 58.66 91.94 41.75 92.03 C 24.58 92.11 10.76 92.58 10.44 93.09 C 9.38 94.82 8.00 93.99 8.00 91.62 C 8.00 89.99 8.71 89.04 10.25 88.63 C 11.49 88.30 31.29 88.02 54.25 88.01 L 96.00 88.00 L 96.00 85.51 L 96.00 83.02 L 55.75 82.76 L 15.50 82.50 L 19.42 79.50 L 23.34 76.50 L 56.77 76.19 C 84.44 75.93 90.49 76.12 91.85 77.28 C 92.76 78.06 93.95 78.95 94.50 79.25 C 95.16 79.62 95.50 69.73 95.50 50.46 L 95.50 21.10 L 92.95 23.55 L 90.39 26.00 L 55.88 26.00 L 21.37 26.00 L 18.50 23.00 L 15.63 20.00 L 36.56 19.88 C 48.08 19.81 59.75 19.66 62.50 19.54 C 65.25 19.43 73.91 19.26 81.75 19.17 L 96.00 19.00 L 96.00 16.34 L 96.00 13.68 L 54.49 14.31 C 13.67 14.94 7.00 14.72 7.00 12.77 C 7.00 12.23 7.65 12.03 8.44 12.34 C 9.22 12.64 10.01 12.49 10.19 12.01 C 10.36 11.53 28.50 11.04 50.50 10.93 C 72.50 10.81 91.74 10.50 93.25 10.24 C 96.38 9.68 97.23 6.04 94.25 5.95 C 90.70 5.83 25.16 6.15 15.50 6.32 L 5.50 6.50 L 5.66 31.50 C 5.75 45.25 5.86 65.39 5.91 76.25 L 6.00 96.00 L 51.00 96.00 L 96.00 96.00 L 96.00 93.67 Z M 46.00 94.61 C 46.00 94.39 46.67 93.95 47.50 93.64 C 48.33 93.32 49.00 93.50 49.00 94.03 C 49.00 94.56 48.33 95.00 47.50 95.00 C 46.67 95.00 46.00 94.82 46.00 94.61 Z M 11.65 75.81 C 10.69 72.25 10.89 26.19 11.86 25.59 C 12.33 25.29 13.91 26.39 15.36 28.02 L 18.00 30.98 L 18.00 51.80 L 18.00 72.63 L 15.13 75.37 L 12.26 78.12 L 11.65 75.81 Z M 24.00 51.51 L 24.00 32.00 L 33.75 31.97 C 39.11 31.95 53.75 31.67 66.27 31.36 L 89.04 30.78 L 88.77 50.64 L 88.50 70.50 L 56.25 70.76 L 24.00 71.03 L 24.00 51.51 Z" fill="none" stroke="rgba(255,255,255,0.92)" stroke-width="1.2" stroke-linejoin="round" fill-rule="evenodd"/>
</svg>
