<svg xmlns="http://www.w3.org/2000/svg" viewBox="0 0 100 100" width="100" height="100">
  <path d="M 0.00 50.00 L 0.00 0.00 L 50.00 0.00 L 100.00 0.00 L 100.00 50.00 L 100.00 100.00 L 50.00 100.00 L 0.00 100.00 L 0.00 50.00 Z M 96.00 50.00 L 96.00 4.00 L 85.41 4.00 C 75.71 4.00 74.77 4.17 74.30 5.97 C 73.82 7.80 73.58 7.83 70.94 6.47 C 66.83 4.35 35.45 4.37 30.35 6.50 C 25.89 8.36 26.08 8.39 26.71 6.00 C 27.21 4.09 26.74 4.00 16.12 4.00 L 5.00 4.00 L 5.00 33.34 C 5.00 49.48 5.30 70.18 5.66 79.34 L 6.31 96.00 L 51.16 96.00 L 96.00 96.00 L 96.00 50.00 Z M 27.00 44.67 L 27.00 16.35 L 29.34 14.15 C 32.91 10.80 36.88 10.10 52.60 10.06 L 67.06 10.03 L 70.78 13.43 L 74.50 16.84 L 74.81 44.92 L 75.13 73.00 L 51.06 73.00 L 27.00 73.00 L 27.00 44.67 Z" fill="none" stroke="rgba(255,255,255,0.92)" stroke-width="1.2" stroke-linejoin="round" fill-rule="evenodd"/>
</svg>
