<svg xmlns="http://www.w3.org/2000/svg" viewBox="0 0 100 100" width="100" height="100">
  <path d="M 0.00 50.00 L 0.00 0.00 L 50.00 0.00 L 100.00 0.00 L 100.00 50.00 L 100.00 100.00 L 50.00 100.00 L 0.00 100.00 L 0.00 50.00 Z M 10.08 94.25 C 10.12 93.29 10.08 83.50 9.98 72.50 C 9.89 61.50 9.74 44.06 9.66 33.75 L 9.50 15.00 L 29.75 15.00 L 50.00 15.00 L 50.00 27.00 L 50.00 39.00 L 36.56 39.00 L 23.12 39.00 L 23.33 41.75 L 23.55 44.50 L 37.02 44.62 L 50.50 44.73 L 50.50 56.62 L 50.50 68.50 L 37.50 68.50 C 30.35 68.50 24.23 68.87 23.90 69.31 C 23.57 69.76 23.51 71.23 23.77 72.56 L 24.23 75.00 L 37.62 75.00 L 51.00 75.00 L 51.00 85.50 L 51.00 96.00 L 53.97 96.00 L 56.93 96.00 L 57.22 85.43 L 57.50 74.86 L 70.50 74.68 L 83.50 74.50 L 83.81 71.78 L 84.13 69.06 L 70.41 68.78 L 56.69 68.50 L 56.59 56.50 L 56.50 44.50 L 69.50 44.18 C 82.83 43.84 85.24 43.19 83.46 40.37 C 82.65 39.08 80.10 38.77 69.48 38.65 L 56.50 38.50 L 56.22 26.75 L 55.94 15.00 L 76.02 15.00 L 96.11 15.00 L 95.80 10.32 L 95.50 5.65 L 75.00 5.77 C 63.72 5.84 51.69 6.06 48.25 6.27 C 44.81 6.47 42.00 6.30 42.00 5.89 C 42.00 5.48 40.66 5.53 39.01 6.00 C 37.31 6.49 35.79 6.47 35.48 5.96 C 35.18 5.48 33.93 5.42 32.71 5.84 C 31.50 6.27 24.65 6.48 17.49 6.33 L 4.48 6.05 L 4.65 22.78 C 4.74 31.97 4.89 51.20 4.99 65.50 C 5.10 79.80 5.41 92.51 5.70 93.75 C 6.32 96.45 9.96 96.87 10.08 94.25 Z M 7.00 77.50 C 7.00 76.67 7.44 76.00 7.97 76.00 C 8.50 76.00 8.68 76.67 8.36 77.50 C 8.05 78.33 7.61 79.00 7.39 79.00 C 7.18 79.00 7.00 78.33 7.00 77.50 Z M 7.00 72.50 C 7.00 71.67 7.18 71.00 7.39 71.00 C 7.61 71.00 8.05 71.67 8.36 72.50 C 8.68 73.33 8.50 74.00 7.97 74.00 C 7.44 74.00 7.00 73.33 7.00 72.50 Z M 7.16 61.00 C 7.16 59.62 7.38 59.06 7.66 59.75 C 7.94 60.44 7.94 61.56 7.66 62.25 C 7.38 62.94 7.16 62.38 7.16 61.00 Z M 7.16 54.00 C 7.16 52.62 7.38 52.06 7.66 52.75 C 7.94 53.44 7.94 54.56 7.66 55.25 C 7.38 55.94 7.16 55.38 7.16 54.00 Z M 7.08 49.42 C 7.13 48.25 7.36 48.01 7.68 48.81 C 7.97 49.53 7.94 50.40 7.60 50.73 C 7.27 51.06 7.04 50.47 7.08 49.42 Z M 6.50 46.00 C 6.16 45.45 6.36 45.00 6.94 45.00 C 7.52 45.00 8.00 45.45 8.00 46.00 C 8.00 46.55 7.80 47.00 7.56 47.00 C 7.32 47.00 6.84 46.55 6.50 46.00 Z M 7.30 13.25 C 7.41 10.91 7.84 9.00 8.25 9.00 C 9.25 9.00 9.08 13.00 7.98 15.50 C 7.32 17.00 7.15 16.43 7.30 13.25 Z" fill="none" stroke="rgba(255,255,255,0.92)" stroke-width="1.2" stroke-linejoin="round" fill-rule="evenodd"/>
</svg>
