<svg xmlns="http://www.w3.org/2000/svg" viewBox="0 0 204 400" width="204" height="400">
  <path d="M 0.00 200.00 L 0.00 0.00 L 102.00 0.00 L 204.00 0.00 L 204.00 200.00 L 204.00 400.00 L 102.00 400.00 L 0.00 400.00 L 0.00 200.00 Z M 196.61 392.83 C 197.11 392.02 196.94 241.46 196.42 229.50 C 196.31 226.75 196.19 209.65 196.16 191.50 C 196.14 173.35 196.04 154.00 195.94 148.50 C 195.85 143.00 195.82 137.38 195.89 136.00 C 195.95 134.62 195.98 131.47 195.95 129.00 C 195.89 123.40 195.88 123.19 195.83 102.50 C 195.80 93.15 195.71 68.40 195.62 47.50 L 195.45 9.50 L 192.47 9.65 C 183.51 10.10 50.19 12.12 44.50 11.90 C 40.64 11.75 24.42 11.73 16.21 11.86 L 7.92 12.00 L 8.44 51.75 C 8.72 73.61 9.21 135.82 9.52 190.00 C 9.83 244.18 10.28 289.08 10.52 289.79 C 10.77 290.49 10.99 313.64 11.02 341.23 C 11.05 370.21 11.46 391.85 11.99 392.49 C 13.15 393.88 195.75 394.21 196.61 392.83 Z M 56.04 345.50 C 55.33 344.60 54.62 294.27 54.73 251.93 C 54.77 234.23 55.31 231.78 60.15 227.36 C 61.44 226.19 64.39 224.28 66.70 223.12 C 70.71 221.10 72.37 221.01 103.93 220.97 C 130.96 220.94 137.48 221.20 139.79 222.39 C 143.90 224.52 150.69 232.26 151.37 235.61 C 151.69 237.20 152.18 262.69 152.46 292.25 C 152.85 334.33 152.69 346.03 151.73 346.14 C 151.05 346.21 129.42 346.32 103.67 346.39 C 73.50 346.46 56.55 346.14 56.04 345.50 Z M 54.01 213.25 C 54.03 207.87 55.29 200.00 56.14 200.00 C 56.61 200.00 57.00 201.47 57.00 203.28 L 57.00 206.55 L 79.75 206.44 C 92.26 206.37 103.32 205.96 104.32 205.53 C 105.40 205.06 107.12 205.26 108.57 206.04 C 110.54 207.09 111.45 207.10 113.38 206.06 C 114.69 205.36 116.68 205.08 117.80 205.44 C 121.19 206.51 121.24 204.27 117.86 202.58 C 115.63 201.47 114.33 201.31 113.45 202.04 C 112.56 202.78 112.06 202.71 111.73 201.79 C 111.37 200.81 110.81 200.77 109.38 201.60 C 108.35 202.21 106.63 202.40 105.57 202.03 C 103.79 201.40 103.78 201.30 105.40 200.67 C 108.39 199.53 126.81 199.89 127.57 201.11 C 128.03 201.85 127.56 201.99 126.13 201.54 C 123.29 200.64 122.07 201.56 122.74 204.11 C 123.22 205.95 123.85 206.16 127.58 205.74 C 129.93 205.48 132.30 205.70 132.83 206.23 C 133.46 206.86 135.50 206.84 138.61 206.18 C 141.77 205.51 144.05 205.49 145.25 206.13 C 146.25 206.67 148.07 206.97 149.29 206.81 C 151.27 206.53 151.53 207.00 151.80 211.25 C 151.97 213.86 151.71 216.00 151.23 216.00 C 150.75 216.00 147.69 214.55 144.43 212.78 L 138.50 209.55 L 106.00 209.77 C 88.12 209.88 71.70 210.26 69.50 210.61 C 67.30 210.96 63.28 212.32 60.56 213.62 C 54.34 216.62 54.00 216.60 54.01 213.25 Z M 85.00 204.00 C 85.00 203.45 85.70 203.00 86.56 203.00 C 87.42 203.00 87.84 203.45 87.50 204.00 C 87.16 204.55 86.46 205.00 85.94 205.00 C 85.42 205.00 85.00 204.55 85.00 204.00 Z M 94.25 203.75 C 94.48 203.06 95.27 202.50 96.00 202.50 C 96.73 202.50 97.52 203.06 97.75 203.75 C 98.00 204.49 97.29 205.00 96.00 205.00 C 94.71 205.00 94.00 204.49 94.25 203.75 Z M 63.54 203.07 C 63.23 202.56 63.38 201.88 63.89 201.57 C 65.08 200.84 68.00 201.93 68.00 203.11 C 68.00 204.29 64.28 204.26 63.54 203.07 Z M 71.71 202.00 C 72.00 200.90 72.63 200.00 73.12 200.00 C 73.60 200.00 74.00 200.90 74.00 202.00 C 74.00 203.10 73.37 204.00 72.59 204.00 C 71.68 204.00 71.37 203.30 71.71 202.00 Z M 77.25 203.28 C 75.28 202.57 75.79 201.00 78.00 201.00 C 79.10 201.00 80.00 201.42 80.00 201.94 C 80.00 203.22 78.76 203.82 77.25 203.28 Z M 135.27 202.99 C 136.25 202.38 136.78 201.45 136.46 200.94 C 136.13 200.40 138.26 200.00 141.52 200.00 C 145.59 200.00 147.05 200.35 146.75 201.25 C 146.52 201.94 145.02 202.59 143.42 202.71 C 141.81 202.82 138.93 203.19 137.00 203.51 C 134.17 203.99 133.84 203.89 135.27 202.99 Z M 149.52 202.06 C 148.66 199.37 150.58 196.74 151.55 199.27 C 151.89 200.16 151.73 201.65 151.20 202.60 C 150.33 204.15 150.17 204.10 149.52 202.06 Z M 130.00 201.50 C 128.94 200.22 129.22 200.00 131.95 200.00 C 134.79 200.00 134.98 200.17 133.64 201.50 C 132.82 202.32 131.94 203.00 131.69 203.00 C 131.45 203.00 130.68 202.32 130.00 201.50 Z M 82.50 201.00 C 82.16 200.45 82.84 200.00 84.00 200.00 C 85.16 200.00 85.84 200.45 85.50 201.00 C 85.16 201.55 84.49 202.00 84.00 202.00 C 83.51 202.00 82.84 201.55 82.50 201.00 Z M 95.76 200.29 C 97.01 200.05 98.81 200.06 99.76 200.31 C 100.72 200.56 99.70 200.76 97.50 200.75 C 95.30 200.74 94.52 200.53 95.76 200.29 Z M 36.75 196.23 L 20.00 195.95 L 19.89 191.23 C 19.84 188.63 19.62 163.32 19.42 135.00 C 18.78 45.87 18.38 26.58 17.15 24.27 C 16.52 23.10 16.00 21.76 16.00 21.32 C 16.00 20.87 21.74 20.63 28.75 20.79 C 37.09 20.97 41.01 20.74 40.07 20.12 C 39.28 19.59 38.54 18.45 38.41 17.58 C 38.22 16.28 38.90 16.11 42.34 16.64 C 46.76 17.32 48.43 18.00 45.67 18.00 C 44.75 18.00 44.00 18.68 44.00 19.50 C 44.00 21.39 46.38 21.45 47.91 19.60 C 48.55 18.84 49.95 18.44 51.02 18.72 C 52.09 19.00 53.76 18.90 54.74 18.51 C 57.33 17.45 68.90 17.02 69.48 17.97 C 69.75 18.41 68.97 19.12 67.74 19.54 C 65.76 20.22 65.90 20.35 68.97 20.73 C 70.98 20.98 72.60 20.70 72.81 20.06 C 73.42 18.23 78.52 16.08 81.61 16.35 C 83.93 16.55 84.45 17.03 84.26 18.80 C 84.06 20.62 84.53 21.00 86.98 21.00 C 89.28 21.00 89.80 20.64 89.32 19.40 C 88.79 18.01 89.55 17.88 95.28 18.35 C 100.29 18.77 102.13 18.55 103.04 17.45 C 104.78 15.36 107.00 15.67 107.00 18.00 C 107.00 20.24 110.77 20.83 112.71 18.89 C 113.32 18.28 114.36 18.11 115.02 18.51 C 115.92 19.07 115.88 19.47 114.86 20.15 C 114.02 20.71 116.01 20.81 120.00 20.41 C 123.58 20.05 126.89 19.39 127.38 18.95 C 127.86 18.51 129.43 18.61 130.88 19.18 C 132.32 19.75 138.13 20.32 143.80 20.45 C 152.44 20.64 154.00 20.45 153.53 19.23 C 153.11 18.13 153.41 17.99 154.74 18.64 C 155.71 19.11 162.91 19.49 170.75 19.49 L 185.00 19.48 L 185.11 22.49 C 185.16 24.14 185.35 52.05 185.51 84.50 C 185.68 116.95 185.86 148.22 185.93 154.00 C 186.30 188.26 186.12 195.02 184.81 195.50 C 183.32 196.05 62.25 196.64 36.75 196.23 Z M 13.60 195.26 C 12.39 194.06 13.05 193.00 15.00 193.00 C 16.10 193.00 17.00 193.40 17.00 193.89 C 17.00 195.02 14.40 196.07 13.60 195.26 Z M 190.00 192.92 C 190.00 190.48 192.34 190.82 192.82 193.33 C 193.01 194.32 192.50 195.00 191.57 195.00 C 190.65 195.00 190.00 194.15 190.00 192.92 Z M 14.39 183.00 C 14.33 181.35 14.67 180.00 15.14 180.00 C 15.61 180.00 16.00 181.35 16.00 183.00 C 16.00 186.91 14.53 186.91 14.39 183.00 Z M 192.08 159.42 C 192.13 158.25 192.36 158.01 192.68 158.81 C 192.97 159.53 192.94 160.40 192.60 160.73 C 192.27 161.06 192.04 160.47 192.08 159.42 Z M 190.02 149.75 C 190.03 147.93 190.22 147.79 191.00 149.00 C 192.25 150.94 192.25 152.00 191.00 152.00 C 190.45 152.00 190.01 150.99 190.02 149.75 Z M 191.54 144.07 C 191.23 143.56 191.42 142.86 191.98 142.51 C 192.54 142.16 193.00 142.58 193.00 143.44 C 193.00 145.20 192.40 145.46 191.54 144.07 Z M 191.60 128.40 C 191.24 127.47 191.18 126.49 191.45 126.21 C 191.73 125.94 192.24 126.47 192.60 127.40 C 192.96 128.33 193.02 129.31 192.75 129.59 C 192.47 129.86 191.96 129.33 191.60 128.40 Z M 190.23 123.00 C 190.23 121.08 190.44 120.29 190.69 121.25 C 190.94 122.21 190.94 123.79 190.69 124.75 C 190.44 125.71 190.23 124.92 190.23 123.00 Z M 191.02 116.75 C 191.02 116.06 191.47 114.83 192.00 114.00 C 192.76 112.83 192.97 113.11 192.98 115.25 C 192.99 116.76 192.55 118.00 192.00 118.00 C 191.45 118.00 191.01 117.44 191.02 116.75 Z M 12.50 114.01 C 12.17 113.46 12.35 112.22 12.92 111.26 C 13.79 109.75 13.94 109.89 13.97 112.25 C 14.00 115.13 13.54 115.68 12.50 114.01 Z M 191.02 107.53 C 190.05 106.35 190.12 105.74 191.40 104.46 C 192.87 102.99 193.00 103.11 193.00 105.93 C 193.00 109.40 192.75 109.61 191.02 107.53 Z M 190.75 91.57 C 188.99 90.27 188.35 87.99 189.75 88.02 C 191.48 88.05 193.17 89.85 192.85 91.30 C 192.56 92.61 192.22 92.66 190.75 91.57 Z M 190.19 80.50 C 190.22 78.85 190.44 78.30 190.69 79.27 C 190.95 80.24 190.93 81.59 190.66 82.27 C 190.38 82.95 190.17 82.15 190.19 80.50 Z M 12.67 75.60 C 11.73 73.14 11.83 71.00 12.89 71.00 C 14.23 71.00 14.81 73.25 14.04 75.43 C 13.40 77.21 13.30 77.22 12.67 75.60 Z M 189.07 73.75 C 189.11 73.06 189.53 71.60 190.00 70.50 C 190.72 68.82 190.87 69.03 190.93 71.75 C 190.97 73.54 190.55 75.00 190.00 75.00 C 189.45 75.00 189.03 74.44 189.07 73.75 Z M 192.03 62.45 C 192.06 59.86 192.19 59.73 193.13 61.35 C 193.90 62.67 193.89 63.51 193.10 64.30 C 192.30 65.10 192.01 64.60 192.03 62.45 Z M 13.23 61.81 C 13.85 59.96 16.00 59.65 16.00 61.42 C 16.00 62.29 15.29 63.00 14.42 63.00 C 13.55 63.00 13.01 62.47 13.23 61.81 Z M 189.52 54.07 C 189.53 49.15 189.87 44.80 190.27 44.40 C 190.67 44.00 191.00 45.34 191.00 47.39 C 191.00 49.62 191.40 50.87 192.00 50.50 C 192.55 50.16 193.00 50.40 193.00 51.04 C 193.00 52.21 190.01 63.00 189.68 63.00 C 189.58 63.00 189.51 58.98 189.52 54.07 Z M 13.19 55.50 C 13.22 53.85 13.44 53.30 13.69 54.27 C 13.95 55.24 13.93 56.59 13.66 57.27 C 13.38 57.95 13.17 57.15 13.19 55.50 Z M 12.94 36.81 C 12.33 22.69 12.38 20.93 13.35 22.66 C 14.61 24.90 15.00 36.88 13.84 37.60 C 13.38 37.89 12.97 37.53 12.94 36.81 Z M 190.00 34.85 C 190.00 33.10 190.25 32.96 191.50 34.00 C 192.32 34.68 193.00 35.37 193.00 35.52 C 193.00 35.66 192.32 36.05 191.50 36.36 C 190.46 36.76 190.00 36.29 190.00 34.85 Z M 82.00 20.00 C 82.00 19.45 80.90 19.00 79.56 19.00 C 78.22 19.00 76.84 19.45 76.50 20.00 C 76.14 20.58 77.16 21.00 78.94 21.00 C 80.62 21.00 82.00 20.55 82.00 20.00 Z M 102.73 20.40 C 102.40 20.06 101.53 20.03 100.81 20.32 C 100.01 20.64 100.25 20.87 101.42 20.92 C 102.47 20.96 103.06 20.73 102.73 20.40 Z M 28.51 17.02 C 28.13 16.40 29.14 16.27 31.20 16.66 C 35.62 17.50 36.00 18.00 32.23 18.00 C 30.52 18.00 28.84 17.56 28.51 17.02 Z M 177.47 17.04 C 177.80 16.52 178.72 16.34 179.53 16.65 C 181.60 17.44 181.36 18.00 178.94 18.00 C 177.81 18.00 177.15 17.57 177.47 17.04 Z M 18.27 16.31 C 19.24 16.05 20.59 16.07 21.27 16.34 C 21.95 16.62 21.15 16.83 19.50 16.81 C 17.85 16.78 17.30 16.56 18.27 16.31 Z M 159.50 16.00 C 159.16 15.45 159.33 15.00 159.88 15.00 C 160.43 15.00 161.16 15.45 161.50 16.00 C 161.84 16.55 161.67 17.00 161.12 17.00 C 160.57 17.00 159.84 16.55 159.50 16.00 Z M 165.81 14.32 C 166.53 14.03 167.40 14.06 167.73 14.40 C 168.06 14.73 167.47 14.96 166.42 14.92 C 165.25 14.87 165.01 14.64 165.81 14.32 Z" fill="none" stroke="rgba(255,255,255,0.92)" stroke-width="1.5" stroke-linejoin="round" fill-rule="evenodd"/>
</svg>
