<svg xmlns="http://www.w3.org/2000/svg" viewBox="0 0 100 100" width="100" height="100">
  <path d="M 0.00 50.00 L 0.00 0.00 L 50.00 0.00 L 100.00 0.00 L 100.00 50.00 L 100.00 100.00 L 50.00 100.00 L 0.00 100.00 L 0.00 50.00 Z M 83.50 94.59 C 89.00 94.39 94.06 94.18 94.75 94.11 C 95.52 94.04 96.00 92.47 96.00 90.00 L 96.00 86.00 L 76.97 86.00 L 57.93 86.00 L 58.22 75.42 L 58.50 64.85 L 68.00 64.55 C 73.22 64.38 79.22 64.19 81.32 64.12 C 84.87 64.01 85.11 63.81 84.82 61.25 L 84.50 58.50 L 71.32 58.85 L 58.13 59.19 L 57.81 48.35 C 57.64 42.38 57.72 36.83 58.00 36.00 C 58.41 34.77 60.84 34.50 71.50 34.50 L 84.50 34.50 L 84.81 31.78 L 85.13 29.06 L 71.31 28.78 L 57.50 28.50 L 57.22 16.83 C 56.97 6.34 57.12 5.11 58.72 4.70 C 59.70 4.44 58.42 4.18 55.87 4.12 L 51.24 4.00 L 51.37 16.25 L 51.50 28.50 L 37.64 28.78 C 23.87 29.06 23.79 29.07 24.38 31.28 C 24.70 32.50 24.98 33.84 24.99 34.25 C 24.99 34.66 31.07 35.00 38.50 35.00 L 52.00 35.00 L 52.00 47.00 L 52.00 59.00 L 38.50 59.00 L 25.00 59.00 L 25.00 62.00 L 25.00 65.00 L 38.44 65.00 L 51.87 65.00 L 52.19 75.50 L 52.50 86.00 L 40.00 86.22 C 33.12 86.34 24.80 86.51 21.50 86.60 C 10.90 86.88 11.49 87.63 11.57 73.98 C 11.63 64.20 11.40 62.25 10.32 63.15 C 8.60 64.58 8.62 62.99 10.36 60.47 C 11.11 59.39 11.61 56.70 11.47 54.50 C 11.32 52.30 11.16 49.73 11.10 48.78 C 11.03 47.62 10.43 47.24 9.25 47.61 C 7.67 48.11 7.65 48.03 9.09 46.83 C 10.46 45.69 10.65 42.93 10.46 27.50 C 10.14 2.04 10.37 4.00 7.66 4.00 L 5.32 4.00 L 5.66 21.25 C 5.84 30.74 6.18 50.88 6.41 66.00 C 6.64 81.12 6.87 93.99 6.91 94.58 C 7.00 95.60 55.27 95.60 83.50 94.59 Z M 8.60 92.23 C 9.21 91.83 9.96 90.83 10.27 90.00 C 10.65 89.00 10.87 89.25 10.92 90.75 C 10.97 92.26 10.43 92.99 9.25 92.98 C 8.17 92.98 7.92 92.69 8.60 92.23 Z M 8.08 70.42 C 8.13 69.25 8.36 69.01 8.68 69.81 C 8.97 70.53 8.94 71.40 8.60 71.73 C 8.27 72.06 8.04 71.47 8.08 70.42 Z M 8.50 58.00 C 8.84 57.45 9.32 57.00 9.56 57.00 C 9.80 57.00 10.00 57.45 10.00 58.00 C 10.00 58.55 9.52 59.00 8.94 59.00 C 8.36 59.00 8.16 58.55 8.50 58.00 Z M 8.50 53.00 C 8.16 52.45 8.36 52.00 8.94 52.00 C 9.52 52.00 10.00 52.45 10.00 53.00 C 10.00 53.55 9.80 54.00 9.56 54.00 C 9.32 54.00 8.84 53.55 8.50 53.00 Z M 8.00 36.56 C 8.00 35.70 8.45 35.00 9.00 35.00 C 9.55 35.00 10.00 35.42 10.00 35.94 C 10.00 36.46 9.55 37.16 9.00 37.50 C 8.45 37.84 8.00 37.42 8.00 36.56 Z M 37.28 4.27 C 34.96 4.06 30.91 4.06 28.28 4.26 C 25.65 4.47 27.55 4.64 32.50 4.65 C 37.45 4.65 39.60 4.48 37.28 4.27 Z M 47.75 4.31 C 46.79 4.06 45.21 4.06 44.25 4.31 C 43.29 4.56 44.08 4.77 46.00 4.77 C 47.92 4.77 48.71 4.56 47.75 4.31 Z M 66.25 4.34 C 65.56 4.06 64.44 4.06 63.75 4.34 C 63.06 4.62 63.62 4.84 65.00 4.84 C 66.38 4.84 66.94 4.62 66.25 4.34 Z M 72.25 4.34 C 71.56 4.06 70.44 4.06 69.75 4.34 C 69.06 4.62 69.62 4.84 71.00 4.84 C 72.38 4.84 72.94 4.62 72.25 4.34 Z M 79.27 4.34 C 78.59 4.07 77.24 4.05 76.27 4.31 C 75.30 4.56 75.85 4.78 77.50 4.81 C 79.15 4.83 79.95 4.62 79.27 4.34 Z" fill="none" stroke="rgba(255,255,255,0.92)" stroke-width="1.2" stroke-linejoin="round" fill-rule="evenodd"/>
</svg>
