<svg xmlns="http://www.w3.org/2000/svg" viewBox="0 0 382 400" width="382" height="400">
  <path d="M 0.00 200.00 L 0.00 0.00 L 191.00 0.00 L 382.00 0.00 L 382.00 200.00 L 382.00 400.00 L 191.00 400.00 L 0.00 400.00 L 0.00 200.00 Z M 26.14 390.84 C 28.92 390.01 30.66 389.98 32.34 390.75 C 33.69 391.36 36.13 391.50 38.09 391.08 C 39.97 390.68 42.51 390.79 43.75 391.34 C 45.32 392.02 47.21 391.92 50.01 391.00 C 53.28 389.92 54.46 389.91 56.41 390.95 C 57.80 391.70 59.37 391.89 60.15 391.41 C 60.89 390.95 70.27 390.48 81.00 390.36 C 91.72 390.24 102.03 389.82 103.89 389.44 C 106.49 388.90 107.10 389.03 106.51 389.99 C 105.91 390.96 106.62 391.09 109.61 390.56 C 113.24 389.92 116.79 389.78 122.25 390.07 C 123.49 390.14 126.41 389.86 128.75 389.46 C 131.63 388.97 133.00 389.09 133.00 389.84 C 133.00 390.59 133.76 390.66 135.37 390.05 C 137.21 389.35 167.41 388.67 182.00 389.01 C 184.90 389.08 227.76 389.07 230.00 389.01 C 231.92 388.95 251.55 389.06 255.50 389.15 C 257.15 389.18 261.65 389.18 265.50 389.14 C 269.35 389.10 277.45 389.08 283.50 389.09 C 299.78 389.13 300.20 389.13 304.00 388.95 C 305.93 388.85 308.62 388.84 310.00 388.91 C 311.38 388.98 326.13 389.04 342.78 389.02 C 366.81 389.01 373.17 388.73 373.56 387.69 C 374.13 386.21 374.19 384.18 374.28 360.50 C 374.31 351.15 374.22 341.93 374.06 340.00 C 373.90 338.07 373.83 335.26 373.89 333.75 C 373.95 332.24 374.04 329.76 374.08 328.25 C 374.23 323.30 373.04 169.68 372.47 119.50 C 372.16 92.55 371.81 56.83 371.70 40.13 L 371.50 9.76 L 331.00 9.94 C 272.63 10.20 188.58 11.00 166.50 11.51 C 144.95 12.00 146.69 11.99 137.83 11.71 C 134.17 11.59 130.88 11.21 130.53 10.86 C 130.18 10.51 127.87 10.84 125.39 11.58 C 121.87 12.64 120.46 12.68 118.98 11.75 C 117.53 10.85 116.05 10.84 112.80 11.71 C 109.83 12.50 108.14 12.53 107.27 11.81 C 106.08 10.82 104.21 10.97 97.64 12.58 C 95.72 13.05 94.52 12.84 93.97 11.96 C 93.30 10.87 92.17 10.88 87.50 12.00 C 83.22 13.03 81.66 13.07 81.12 12.19 C 80.57 11.30 79.02 11.31 74.64 12.23 C 70.06 13.19 68.73 13.18 68.11 12.18 C 67.48 11.17 66.41 11.17 62.63 12.18 C 59.19 13.10 57.46 13.14 56.18 12.35 C 54.93 11.57 52.96 11.56 49.22 12.33 C 45.58 13.07 43.68 13.08 42.95 12.35 C 42.22 11.62 40.52 11.62 37.37 12.34 C 34.04 13.10 32.33 13.06 30.95 12.20 C 29.63 11.38 28.29 11.32 26.47 12.01 C 22.98 13.34 19.25 13.26 18.78 11.85 C 18.51 11.04 17.01 10.97 13.54 11.60 L 8.67 12.50 L 8.49 26.00 C 8.39 33.42 8.72 40.61 9.21 41.96 C 9.81 43.59 9.71 45.18 8.92 46.65 C 8.04 48.29 8.00 49.97 8.77 53.01 C 9.43 55.59 9.49 58.31 8.93 60.26 C 8.35 62.26 8.43 64.71 9.15 67.09 C 9.97 69.83 9.97 71.66 9.14 74.02 C 8.53 75.79 8.32 77.70 8.67 78.28 C 9.22 79.16 9.65 107.54 9.83 155.00 C 9.85 160.78 9.88 166.62 9.90 168.00 C 9.92 169.38 10.18 186.70 10.48 206.50 C 10.78 226.30 10.95 243.62 10.87 245.00 C 10.78 246.38 10.74 248.62 10.78 250.00 C 11.08 260.25 12.13 325.49 12.42 352.00 C 12.62 369.88 12.83 385.93 12.89 387.69 C 13.00 391.01 12.80 390.91 20.88 391.84 C 21.65 391.93 24.01 391.48 26.14 390.84 Z M 16.00 385.25 C 16.00 384.56 16.95 384.00 18.12 384.00 C 19.84 384.00 20.14 383.53 19.75 381.48 C 19.49 380.09 19.66 378.71 20.13 378.42 C 20.61 378.12 21.01 378.92 21.01 380.19 C 21.02 381.46 21.28 383.45 21.59 384.61 C 22.08 386.44 21.75 386.71 19.08 386.61 C 17.35 386.55 16.00 385.95 16.00 385.25 Z M 191.75 385.31 C 190.79 385.06 190.00 384.21 190.00 383.43 C 190.00 381.78 191.59 381.52 192.51 383.02 C 192.86 383.58 193.56 383.77 194.07 383.46 C 194.58 383.14 195.50 383.19 196.11 383.57 C 196.88 384.04 196.80 384.51 195.86 385.11 C 195.11 385.58 194.28 385.92 194.00 385.87 C 193.72 385.81 192.71 385.56 191.75 385.31 Z M 202.95 384.56 C 203.66 383.70 205.40 383.00 206.82 383.00 C 209.99 383.00 208.63 384.47 204.58 385.43 C 202.00 386.04 201.81 385.94 202.95 384.56 Z M 235.00 385.00 C 235.00 384.45 235.65 384.00 236.44 384.00 C 237.23 384.00 238.16 384.45 238.50 385.00 C 238.84 385.55 238.19 386.00 237.06 386.00 C 235.93 386.00 235.00 385.55 235.00 385.00 Z M 245.27 385.31 C 246.24 385.05 247.59 385.07 248.27 385.34 C 248.95 385.62 248.15 385.83 246.50 385.81 C 244.85 385.78 244.30 385.56 245.27 385.31 Z M 271.81 385.32 C 272.53 385.03 273.40 385.06 273.73 385.40 C 274.06 385.73 273.47 385.96 272.42 385.92 C 271.25 385.87 271.01 385.64 271.81 385.32 Z M 201.75 379.19 C 198.47 378.92 198.12 378.65 198.96 377.07 C 199.49 376.08 199.65 374.98 199.30 374.64 C 198.96 374.29 198.55 356.35 198.39 334.76 C 197.92 271.10 197.11 219.97 196.46 213.00 L 195.85 206.50 L 243.67 206.60 C 269.98 206.66 292.40 206.38 293.49 205.99 C 294.59 205.60 296.75 205.71 298.28 206.25 C 300.06 206.87 302.44 206.88 304.79 206.29 C 306.83 205.77 309.62 205.61 311.00 205.93 C 312.38 206.26 324.23 206.29 337.35 206.01 C 350.47 205.73 361.62 205.76 362.13 206.08 C 362.69 206.42 363.26 239.88 363.55 288.95 C 363.82 334.22 364.26 371.61 364.53 372.05 C 365.37 373.40 362.77 377.99 361.09 378.14 C 360.22 378.22 328.23 378.44 290.00 378.64 C 251.77 378.84 217.12 379.11 213.00 379.25 C 208.88 379.39 203.81 379.36 201.75 379.19 Z M 190.79 375.00 C 190.49 372.95 190.77 372.00 191.67 372.00 C 192.48 372.00 193.00 373.17 193.00 375.00 C 193.00 376.65 192.60 378.00 192.11 378.00 C 191.63 378.00 191.03 376.65 190.79 375.00 Z M 16.00 373.56 C 16.00 372.70 16.45 372.00 17.00 372.00 C 17.55 372.00 18.00 372.42 18.00 372.94 C 18.00 373.46 17.55 374.16 17.00 374.50 C 16.45 374.84 16.00 374.42 16.00 373.56 Z M 21.88 370.68 C 22.53 368.83 22.63 360.46 22.13 349.82 C 22.05 348.19 21.32 346.97 20.25 346.69 C 18.58 346.25 18.58 346.23 20.25 346.12 C 21.21 346.05 22.04 345.44 22.10 344.75 C 22.36 341.31 21.71 335.33 20.90 333.82 C 20.34 332.76 20.37 331.89 21.00 331.50 C 21.55 331.16 21.98 329.22 21.96 327.19 L 21.93 323.50 L 19.47 326.50 C 18.12 328.15 17.01 329.23 17.00 328.90 C 16.99 327.19 19.52 321.37 20.65 320.50 C 22.05 319.43 22.13 318.23 21.68 304.75 C 21.41 296.44 20.12 292.38 18.55 294.91 C 17.57 296.50 16.00 296.24 16.00 294.50 C 16.00 293.68 16.84 293.00 17.88 293.00 C 20.73 293.00 22.56 290.38 21.01 288.51 C 20.33 287.69 20.06 286.29 20.41 285.39 C 20.75 284.48 20.55 283.16 19.95 282.44 C 19.16 281.49 19.17 280.54 19.99 279.03 C 20.61 277.85 20.78 275.95 20.37 274.71 C 19.96 273.50 19.72 259.68 19.83 244.00 C 19.94 228.32 19.61 214.04 19.09 212.26 C 18.51 210.27 18.50 208.81 19.08 208.45 C 19.59 208.13 19.98 205.77 19.93 203.19 C 19.89 200.61 19.88 197.18 19.90 195.57 C 19.92 193.95 19.48 192.07 18.91 191.39 C 18.18 190.52 18.33 189.26 19.40 187.20 C 20.23 185.58 20.68 184.01 20.38 183.72 C 19.30 182.64 19.04 155.66 20.09 154.39 C 20.81 153.53 20.82 152.52 20.12 151.23 C 19.56 150.18 19.31 147.09 19.56 144.36 C 19.81 141.62 19.62 137.30 19.15 134.75 C 18.56 131.61 18.64 129.74 19.39 128.93 C 20.10 128.18 20.14 127.61 19.50 127.38 C 18.90 127.15 18.58 122.70 18.69 116.32 C 18.85 107.31 18.62 105.43 17.19 104.35 C 15.65 103.18 15.64 103.06 17.14 103.03 C 19.25 102.99 20.27 100.36 19.05 98.10 C 18.54 97.14 18.26 92.18 18.43 87.10 C 18.69 79.55 18.47 77.73 17.24 77.26 C 15.92 76.76 15.91 76.53 17.16 75.59 C 18.03 74.93 18.61 72.73 18.62 70.00 C 18.63 67.53 18.74 64.38 18.87 63.00 C 18.99 61.62 18.92 53.66 18.71 45.31 L 18.32 30.12 L 57.18 30.03 L 96.04 29.95 L 95.77 53.63 L 95.50 77.31 L 70.34 77.24 L 45.18 77.17 L 44.79 82.83 C 44.58 85.95 44.56 88.71 44.76 88.98 C 44.96 89.24 56.68 89.46 70.81 89.48 L 96.50 89.50 L 96.50 113.50 L 96.50 137.50 L 71.00 137.63 L 45.50 137.77 L 45.20 143.38 C 44.98 147.44 45.26 149.03 46.20 149.10 C 46.92 149.15 58.42 149.13 71.76 149.04 C 92.90 148.91 96.10 149.09 96.62 150.45 C 96.95 151.31 97.28 162.24 97.36 174.75 L 97.50 197.50 L 86.50 197.68 C 80.45 197.78 68.91 197.89 60.85 197.93 L 46.20 198.00 L 45.77 202.75 C 45.54 205.36 45.70 207.98 46.14 208.56 C 46.68 209.28 55.20 209.50 72.47 209.25 L 98.00 208.87 L 98.13 222.69 C 98.20 230.28 98.41 240.32 98.60 245.00 C 98.79 249.68 98.72 254.51 98.45 255.75 L 97.96 258.00 L 72.54 258.00 C 58.56 258.00 46.89 258.37 46.62 258.81 C 46.34 259.26 46.43 261.85 46.83 264.56 L 47.54 269.50 L 72.68 269.50 C 86.51 269.50 98.05 269.73 98.34 270.01 C 98.62 270.29 98.98 281.09 99.14 294.01 L 99.43 317.50 L 73.97 317.83 C 59.97 318.00 48.42 318.24 48.31 318.36 C 48.20 318.47 47.97 321.03 47.80 324.03 L 47.50 329.50 L 73.50 329.50 L 99.50 329.50 L 99.50 351.00 L 99.50 372.50 L 60.30 372.68 L 21.11 372.85 L 21.88 370.68 Z M 111.98 371.99 C 111.32 371.58 110.37 335.39 110.88 330.27 C 110.97 329.33 117.23 328.97 136.75 328.77 L 162.50 328.50 L 162.84 326.12 C 163.02 324.81 162.88 322.20 162.53 320.32 L 161.89 316.90 L 136.91 317.08 C 123.17 317.18 111.71 317.05 111.44 316.78 C 111.18 316.51 110.68 305.66 110.34 292.66 L 109.72 269.03 L 135.61 268.77 L 161.50 268.50 L 161.50 263.00 L 161.50 257.50 L 136.19 257.35 C 122.27 257.27 110.57 256.91 110.20 256.54 C 109.83 256.17 109.37 245.31 109.17 232.40 L 108.80 208.94 L 134.65 209.03 L 160.50 209.13 L 160.50 203.32 L 160.50 197.50 L 135.00 197.50 L 109.50 197.50 L 109.00 183.50 C 108.72 175.80 108.49 165.00 108.50 159.50 L 108.50 149.50 L 134.45 149.00 L 160.40 148.50 L 160.40 143.00 L 160.40 137.50 L 134.78 137.50 C 120.70 137.50 108.95 137.28 108.67 137.00 C 108.40 136.72 108.03 125.93 107.84 113.00 L 107.50 89.50 L 132.78 89.23 L 158.06 88.97 L 159.18 86.50 C 159.94 84.85 160.00 82.97 159.36 80.77 L 158.43 77.50 L 133.30 77.23 L 108.18 76.97 L 107.61 72.23 C 106.82 65.68 106.37 31.31 107.07 30.61 C 107.82 29.84 181.61 28.91 183.51 29.64 C 184.33 29.96 185.00 31.11 185.00 32.21 C 185.00 33.58 185.47 34.03 186.50 33.64 C 187.33 33.32 188.00 33.50 188.00 34.03 C 188.00 34.56 187.58 35.00 187.07 35.00 C 185.31 35.00 183.37 46.17 184.73 48.38 C 185.08 48.94 185.30 58.18 185.21 68.92 C 185.08 84.40 185.35 88.88 186.49 90.62 C 187.75 92.56 187.74 92.89 186.33 93.43 C 185.06 93.91 184.88 94.89 185.42 98.27 C 185.80 100.60 186.09 102.95 186.07 103.50 C 185.49 120.96 185.59 124.24 186.72 125.18 C 187.97 126.22 188.97 124.61 190.26 119.50 C 190.73 117.64 190.78 117.66 190.88 119.69 C 190.95 120.90 191.45 122.16 192.00 122.50 C 193.98 123.73 192.94 125.61 189.75 126.54 L 186.50 127.50 L 186.72 141.00 C 186.84 148.43 186.91 155.62 186.88 157.00 C 186.84 158.38 186.79 160.62 186.77 162.00 C 186.53 175.82 187.98 260.13 188.49 262.14 C 188.86 263.59 188.75 265.03 188.25 265.34 C 187.75 265.65 187.65 268.27 188.04 271.20 C 188.42 274.12 188.34 277.54 187.87 278.82 C 186.60 282.21 186.81 285.13 188.45 286.94 C 189.55 288.16 189.68 289.48 189.00 292.52 C 187.84 297.70 187.97 305.00 189.21 305.00 C 189.75 305.00 190.42 304.10 190.71 303.00 C 191.00 301.90 191.63 301.00 192.12 301.00 C 192.60 301.00 193.06 300.21 193.13 299.25 C 193.20 298.29 193.63 300.65 194.08 304.50 C 194.57 308.73 194.51 311.88 193.94 312.45 C 193.35 313.05 193.00 312.12 193.00 309.95 C 193.00 306.98 192.65 306.48 190.50 306.36 C 187.78 306.20 187.70 306.50 188.90 312.69 C 189.38 315.20 189.33 317.27 188.75 317.85 C 188.17 318.43 188.12 320.53 188.62 323.15 C 189.08 325.54 189.32 328.18 189.17 329.00 C 188.92 330.31 188.91 340.28 189.13 361.50 C 189.23 371.25 189.42 370.82 184.75 371.43 C 179.20 372.15 113.06 372.66 111.98 371.99 Z M 193.00 366.00 C 193.00 364.13 193.27 363.87 194.20 364.80 C 195.13 365.73 195.13 366.27 194.20 367.20 C 193.27 368.13 193.00 367.87 193.00 366.00 Z M 16.00 351.50 C 16.00 350.68 16.45 350.00 17.00 350.00 C 17.55 350.00 18.00 350.68 18.00 351.50 C 18.00 352.32 17.55 353.00 17.00 353.00 C 16.45 353.00 16.00 352.32 16.00 351.50 Z M 192.71 351.68 C 192.43 350.95 193.05 349.82 194.10 349.17 C 196.05 347.95 196.46 348.65 195.39 351.42 C 194.65 353.34 193.39 353.47 192.71 351.68 Z M 368.73 351.40 C 368.33 350.99 368.00 349.98 368.00 349.13 C 368.00 348.01 368.30 347.90 369.11 348.71 C 369.72 349.32 370.05 350.34 369.84 350.98 C 369.63 351.61 369.13 351.80 368.73 351.40 Z M 15.68 342.83 C 15.31 341.37 15.39 339.12 15.86 337.85 C 16.67 335.65 16.75 335.63 17.34 337.52 C 17.69 338.61 17.60 340.85 17.16 342.50 L 16.35 345.50 L 15.68 342.83 Z M 368.27 335.00 C 368.27 332.52 368.47 331.51 368.71 332.75 C 368.94 333.99 368.94 336.01 368.71 337.25 C 368.47 338.49 368.27 337.48 368.27 335.00 Z M 16.08 333.42 C 16.13 332.25 16.36 332.01 16.68 332.81 C 16.97 333.53 16.94 334.40 16.60 334.73 C 16.27 335.06 16.04 334.47 16.08 333.42 Z M 370.16 329.00 C 370.16 327.62 370.38 327.06 370.66 327.75 C 370.94 328.44 370.94 329.56 370.66 330.25 C 370.38 330.94 370.16 330.38 370.16 329.00 Z M 192.66 324.82 C 192.01 322.33 192.71 320.70 194.07 321.54 C 195.25 322.27 195.28 325.71 194.11 326.43 C 193.63 326.73 192.97 326.00 192.66 324.82 Z M 368.16 321.00 C 368.16 319.62 368.38 319.06 368.66 319.75 C 368.94 320.44 368.94 321.56 368.66 322.25 C 368.38 322.94 368.16 322.38 368.16 321.00 Z M 15.50 320.00 C 15.84 319.45 16.32 319.00 16.56 319.00 C 16.80 319.00 17.00 319.45 17.00 320.00 C 17.00 320.55 16.52 321.00 15.94 321.00 C 15.36 321.00 15.16 320.55 15.50 320.00 Z M 192.00 317.50 C 192.00 316.68 192.45 316.00 193.00 316.00 C 193.55 316.00 194.00 316.68 194.00 317.50 C 194.00 318.32 193.55 319.00 193.00 319.00 C 192.45 319.00 192.00 318.32 192.00 317.50 Z M 16.19 316.94 C 16.43 316.22 17.22 315.43 17.94 315.19 C 18.69 314.94 19.06 315.31 18.81 316.06 C 18.57 316.78 17.78 317.57 17.06 317.81 C 16.31 318.06 15.94 317.69 16.19 316.94 Z M 368.00 317.08 C 368.00 316.60 368.68 315.95 369.50 315.64 C 370.32 315.32 371.00 315.45 371.00 315.92 C 371.00 316.40 370.32 317.05 369.50 317.36 C 368.68 317.68 368.00 317.55 368.00 317.08 Z M 367.02 313.81 C 367.02 313.09 367.47 311.82 368.00 311.00 C 368.79 309.78 368.97 309.91 368.98 311.69 C 368.99 312.90 368.55 314.16 368.00 314.50 C 367.45 314.84 367.01 314.53 367.02 313.81 Z M 16.01 307.86 C 16.00 305.54 16.54 304.00 17.50 303.64 C 19.43 302.90 19.43 304.95 17.51 308.64 L 16.01 311.50 L 16.01 307.86 Z M 368.00 306.51 C 368.00 305.07 368.41 304.14 368.91 304.45 C 369.42 304.76 370.06 304.45 370.34 303.76 C 370.63 303.02 370.88 303.26 370.92 304.32 C 370.96 305.32 370.32 306.82 369.50 307.64 C 368.17 308.98 368.00 308.85 368.00 306.51 Z M 14.08 300.42 C 14.13 299.25 14.36 299.01 14.68 299.81 C 14.97 300.53 14.94 301.40 14.60 301.73 C 14.27 302.06 14.04 301.47 14.08 300.42 Z M 368.08 299.42 C 368.13 298.25 368.36 298.01 368.68 298.81 C 368.97 299.53 368.94 300.40 368.60 300.73 C 368.27 301.06 368.04 300.47 368.08 299.42 Z M 192.80 288.00 C 192.56 284.98 192.66 282.14 193.04 281.69 C 194.07 280.46 194.96 288.95 194.05 291.37 C 193.44 292.98 193.14 292.16 192.80 288.00 Z M 14.00 287.56 C 14.00 286.22 14.45 284.84 15.00 284.50 C 15.58 284.14 16.00 285.16 16.00 286.94 C 16.00 288.62 15.55 290.00 15.00 290.00 C 14.45 290.00 14.00 288.90 14.00 287.56 Z M 370.08 281.42 C 370.13 280.25 370.36 280.01 370.68 280.81 C 370.97 281.53 370.94 282.40 370.60 282.73 C 370.27 283.06 370.04 282.47 370.08 281.42 Z M 15.60 275.50 C 16.26 269.89 16.43 269.53 17.94 270.46 C 18.69 270.93 18.67 271.75 17.86 273.25 C 17.24 274.42 16.34 276.53 15.87 277.94 C 15.29 279.68 15.21 278.90 15.60 275.50 Z M 192.45 278.91 C 192.08 278.31 192.28 277.32 192.89 276.71 C 193.70 275.90 194.00 276.18 194.00 277.80 C 194.00 280.21 193.48 280.59 192.45 278.91 Z M 192.77 268.00 C 192.46 266.07 192.60 264.09 193.07 263.58 C 194.43 262.14 195.09 265.15 194.16 268.50 L 193.33 271.50 L 192.77 268.00 Z M 15.74 261.40 C 14.83 260.50 16.08 257.93 17.10 258.56 C 17.60 258.87 18.00 259.77 18.00 260.56 C 18.00 262.03 16.81 262.48 15.74 261.40 Z M 192.88 258.95 C 192.82 258.15 192.84 256.94 192.93 256.25 C 193.01 255.56 192.62 255.00 192.04 255.00 C 191.47 255.00 191.00 254.55 191.00 254.00 C 191.00 253.45 191.67 253.00 192.48 253.00 C 194.37 253.00 195.63 257.77 194.13 259.27 C 193.29 260.11 192.97 260.03 192.88 258.95 Z M 192.65 244.75 C 193.27 240.84 193.19 240.61 191.64 241.89 C 190.71 242.66 189.63 242.96 189.23 242.57 C 188.84 242.17 189.33 241.40 190.32 240.84 C 191.70 240.07 191.97 239.13 191.47 236.88 C 191.08 235.10 191.31 233.34 192.04 232.46 C 192.99 231.30 192.92 230.32 191.69 227.77 C 189.87 224.02 190.21 223.07 192.55 225.40 C 193.88 226.74 194.06 228.17 193.49 233.05 C 193.01 237.21 193.17 239.50 194.01 240.51 C 194.78 241.43 194.98 243.28 194.57 245.49 C 193.61 250.59 191.83 249.91 192.65 244.75 Z M 14.00 247.00 C 14.00 246.45 14.48 246.00 15.06 246.00 C 15.64 246.00 15.84 246.45 15.50 247.00 C 15.16 247.55 14.68 248.00 14.44 248.00 C 14.20 248.00 14.00 247.55 14.00 247.00 Z M 15.50 241.00 C 15.84 240.45 16.32 240.00 16.56 240.00 C 16.80 240.00 17.00 240.45 17.00 241.00 C 17.00 241.55 16.52 242.00 15.94 242.00 C 15.36 242.00 15.16 241.55 15.50 241.00 Z M 15.00 229.44 C 15.00 228.58 15.46 228.16 16.02 228.51 C 16.58 228.86 16.77 229.56 16.46 230.07 C 15.60 231.46 15.00 231.20 15.00 229.44 Z M 366.12 220.83 C 365.96 218.57 367.02 216.00 368.11 216.00 C 368.60 216.00 368.99 217.24 368.98 218.75 C 368.97 220.73 368.72 221.11 368.09 220.10 C 367.38 218.98 367.11 219.08 366.72 220.60 C 366.33 222.12 366.21 222.16 366.12 220.83 Z M 14.00 219.56 C 14.00 218.77 14.45 217.84 15.00 217.50 C 15.55 217.16 16.00 217.81 16.00 218.94 C 16.00 220.07 15.55 221.00 15.00 221.00 C 14.45 221.00 14.00 220.35 14.00 219.56 Z M 191.75 218.61 C 189.43 216.85 189.53 216.07 192.00 216.71 C 193.10 217.00 194.00 217.86 194.00 218.62 C 194.00 220.28 193.96 220.28 191.75 218.61 Z M 365.84 209.50 C 365.52 207.30 365.65 205.07 366.13 204.55 C 366.66 203.97 367.00 204.12 367.00 204.94 C 367.00 205.68 367.75 206.83 368.66 207.50 C 369.79 208.32 370.08 209.32 369.56 210.61 C 368.81 212.44 368.76 212.44 368.02 210.50 C 367.31 208.65 367.22 208.69 366.83 211.00 C 366.50 213.00 366.30 212.70 365.84 209.50 Z M 191.08 208.42 C 191.13 207.25 191.36 207.01 191.68 207.81 C 191.97 208.53 191.94 209.40 191.60 209.73 C 191.27 210.06 191.04 209.47 191.08 208.42 Z M 14.50 207.00 C 14.16 206.45 14.58 206.00 15.44 206.00 C 16.30 206.00 17.00 206.45 17.00 207.00 C 17.00 207.55 16.58 208.00 16.06 208.00 C 15.54 208.00 14.84 207.55 14.50 207.00 Z M 192.00 205.56 C 192.00 204.70 192.45 204.00 193.00 204.00 C 193.55 204.00 194.00 204.42 194.00 204.94 C 194.00 205.46 193.55 206.16 193.00 206.50 C 192.45 206.84 192.00 206.42 192.00 205.56 Z M 211.50 203.00 C 211.16 202.45 211.58 202.00 212.44 202.00 C 213.30 202.00 214.00 202.45 214.00 203.00 C 214.00 203.55 213.58 204.00 213.06 204.00 C 212.54 204.00 211.84 203.55 211.50 203.00 Z M 224.00 203.00 C 224.00 202.45 224.42 202.00 224.94 202.00 C 225.46 202.00 226.16 202.45 226.50 203.00 C 226.84 203.55 226.42 204.00 225.56 204.00 C 224.70 204.00 224.00 203.55 224.00 203.00 Z M 273.06 202.58 C 272.38 201.75 272.29 200.94 272.84 200.60 C 273.35 200.28 274.30 200.65 274.94 201.42 C 275.62 202.25 275.71 203.06 275.16 203.40 C 274.65 203.72 273.70 203.35 273.06 202.58 Z M 285.00 203.00 C 283.72 202.17 283.75 202.03 285.25 202.02 C 286.21 202.01 287.00 202.45 287.00 203.00 C 287.00 204.22 286.89 204.22 285.00 203.00 Z M 201.50 202.00 C 201.84 201.45 202.54 201.00 203.06 201.00 C 203.58 201.00 204.00 201.45 204.00 202.00 C 204.00 202.55 203.30 203.00 202.44 203.00 C 201.58 203.00 201.16 202.55 201.50 202.00 Z M 13.00 200.00 C 13.00 199.45 13.45 199.00 14.00 199.00 C 14.55 199.00 15.00 199.45 15.00 200.00 C 15.00 200.55 14.55 201.00 14.00 201.00 C 13.45 201.00 13.00 200.55 13.00 200.00 Z M 196.27 178.25 C 196.15 167.39 196.03 157.38 196.01 156.00 C 195.81 142.23 195.79 128.39 195.98 125.75 C 196.02 125.06 195.84 117.08 195.57 108.00 C 195.30 98.92 195.08 90.71 195.08 89.75 C 195.10 83.69 195.09 80.59 195.06 77.50 C 195.03 75.58 195.03 73.21 195.04 72.25 C 195.23 61.46 194.13 25.10 193.57 23.83 C 192.39 21.10 196.27 19.61 200.53 21.15 C 203.30 22.15 204.69 22.15 207.44 21.16 C 210.17 20.17 211.29 20.17 212.86 21.14 C 214.32 22.05 215.98 22.11 219.22 21.37 C 222.00 20.73 224.63 20.71 226.42 21.31 C 228.33 21.94 230.43 21.85 232.97 21.01 C 235.82 20.07 237.22 20.05 238.87 20.93 C 240.40 21.75 242.08 21.80 244.66 21.08 C 247.18 20.39 249.58 20.43 252.54 21.22 C 256.11 22.18 257.20 22.10 259.27 20.75 C 260.84 19.71 262.08 19.48 262.69 20.09 C 263.76 21.16 263.69 21.15 283.50 20.55 C 291.20 20.31 298.40 20.10 299.50 20.07 C 312.65 19.75 360.08 20.75 360.69 21.36 C 361.60 22.26 361.75 33.39 362.19 128.50 L 362.50 195.50 L 317.00 195.75 C 291.98 195.88 271.05 196.01 270.50 196.04 C 269.95 196.07 259.06 196.03 246.30 195.95 C 233.55 195.88 222.67 196.09 222.14 196.41 C 221.60 196.74 220.09 196.61 218.78 196.11 C 217.46 195.61 214.61 195.52 212.44 195.90 C 210.28 196.29 206.93 196.28 205.00 195.87 C 202.58 195.36 200.82 195.57 199.29 196.56 C 198.07 197.35 196.94 198.00 196.79 198.00 C 196.63 198.00 196.40 189.11 196.27 178.25 Z M 367.54 190.07 C 367.23 189.56 367.42 188.86 367.98 188.51 C 368.54 188.16 369.00 188.58 369.00 189.44 C 369.00 191.20 368.40 191.46 367.54 190.07 Z M 191.67 188.33 C 190.63 187.30 190.88 184.00 192.00 184.00 C 192.55 184.00 193.00 185.12 193.00 186.50 C 193.00 189.12 192.77 189.44 191.67 188.33 Z M 15.00 182.03 C 15.00 180.69 15.48 180.25 16.50 180.64 C 17.32 180.95 18.00 181.84 18.00 182.61 C 18.00 183.37 17.32 184.00 16.50 184.00 C 15.67 184.00 15.00 183.11 15.00 182.03 Z M 366.02 182.37 C 366.01 181.20 366.68 179.68 367.50 179.00 C 368.78 177.93 368.99 178.24 368.92 181.13 C 368.88 182.98 368.60 183.89 368.30 183.14 C 367.84 181.99 367.62 181.99 366.89 183.14 C 366.25 184.15 366.03 183.95 366.02 182.37 Z M 14.00 177.56 C 14.00 176.77 14.45 175.84 15.00 175.50 C 15.55 175.16 16.00 175.81 16.00 176.94 C 16.00 178.07 15.55 179.00 15.00 179.00 C 14.45 179.00 14.00 178.35 14.00 177.56 Z M 367.00 171.89 C 365.87 171.11 365.81 170.72 366.75 170.34 C 367.44 170.06 368.00 168.88 368.00 167.72 C 368.00 166.16 368.30 165.90 369.11 166.71 C 369.83 167.43 369.92 168.73 369.36 170.38 C 368.68 172.39 368.18 172.71 367.00 171.89 Z M 14.67 171.33 C 13.45 170.12 13.98 169.05 15.50 169.64 C 16.32 169.95 17.00 170.62 17.00 171.11 C 17.00 172.16 15.62 172.29 14.67 171.33 Z M 191.00 169.50 C 191.00 168.68 191.45 168.00 192.00 168.00 C 192.55 168.00 193.00 168.68 193.00 169.50 C 193.00 170.32 192.55 171.00 192.00 171.00 C 191.45 171.00 191.00 170.32 191.00 169.50 Z M 189.00 161.38 C 189.00 159.99 189.25 159.95 190.75 161.09 C 191.71 161.83 192.69 162.56 192.92 162.72 C 193.15 162.87 192.36 163.00 191.17 163.00 C 189.83 163.00 189.00 162.37 189.00 161.38 Z M 13.02 155.75 C 13.03 153.10 14.52 150.41 15.28 151.65 C 16.05 152.90 14.93 158.00 13.88 158.00 C 13.40 158.00 13.01 156.99 13.02 155.75 Z M 368.00 155.44 C 368.00 154.58 368.46 154.16 369.02 154.51 C 369.58 154.86 369.77 155.56 369.46 156.07 C 368.60 157.46 368.00 157.20 368.00 155.44 Z M 189.02 150.81 C 189.01 149.88 189.49 148.81 190.09 148.44 C 190.75 148.04 190.93 146.43 190.54 144.39 C 190.15 142.29 190.31 141.00 190.95 141.00 C 191.53 141.00 192.01 142.24 192.01 143.75 C 192.02 145.26 192.32 147.58 192.67 148.91 C 193.15 150.70 192.99 151.11 192.05 150.53 C 191.30 150.07 190.41 150.32 189.90 151.12 C 189.21 152.22 189.03 152.16 189.02 150.81 Z M 14.20 146.80 C 13.54 146.14 13.05 144.23 13.12 142.55 C 13.18 140.87 13.44 140.28 13.69 141.25 C 13.94 142.21 14.51 143.00 14.96 143.00 C 15.40 143.00 15.98 144.12 16.24 145.50 C 16.77 148.23 16.07 148.67 14.20 146.80 Z M 366.08 141.42 C 366.13 140.25 366.36 140.01 366.68 140.81 C 366.97 141.53 366.94 142.40 366.60 142.73 C 366.27 143.06 366.04 142.47 366.08 141.42 Z M 368.16 140.00 C 368.16 138.62 368.38 138.06 368.66 138.75 C 368.94 139.44 368.94 140.56 368.66 141.25 C 368.38 141.94 368.16 141.38 368.16 140.00 Z M 190.60 138.41 C 189.92 136.64 190.62 135.00 192.06 135.00 C 192.58 135.00 193.00 136.12 193.00 137.50 C 193.00 140.30 191.54 140.85 190.60 138.41 Z M 13.73 133.40 C 13.33 132.99 13.01 131.73 13.03 130.58 C 13.06 128.66 13.14 128.64 14.10 130.29 C 15.22 132.21 14.93 134.60 13.73 133.40 Z M 190.00 131.00 C 190.00 130.45 190.48 130.00 191.06 130.00 C 191.64 130.00 191.84 130.45 191.50 131.00 C 191.16 131.55 190.68 132.00 190.44 132.00 C 190.20 132.00 190.00 131.55 190.00 131.00 Z M 13.27 122.75 C 13.30 121.51 12.96 119.60 12.52 118.50 C 11.76 116.59 11.82 116.59 13.97 118.63 C 15.55 120.14 16.01 121.39 15.54 122.88 C 14.65 125.68 13.20 125.59 13.27 122.75 Z M 189.00 115.11 C 189.00 114.62 189.71 113.94 190.58 113.61 C 192.82 112.75 193.00 112.82 193.00 114.50 C 193.00 115.33 192.11 116.00 191.00 116.00 C 189.90 116.00 189.00 115.60 189.00 115.11 Z M 191.53 109.71 C 191.10 108.72 191.03 107.63 191.38 107.29 C 192.39 106.27 193.21 107.70 192.74 109.67 C 192.33 111.42 192.27 111.42 191.53 109.71 Z M 12.43 105.67 C 11.64 103.63 13.88 95.81 15.05 96.53 C 16.38 97.35 16.24 102.00 14.88 102.00 C 14.26 102.00 14.00 102.88 14.29 104.00 C 14.90 106.34 13.25 107.82 12.43 105.67 Z M 24.00 103.00 C 24.00 102.45 23.80 102.00 23.56 102.00 C 23.32 102.00 22.84 102.45 22.50 103.00 C 22.16 103.55 22.36 104.00 22.94 104.00 C 23.52 104.00 24.00 103.55 24.00 103.00 Z M 192.08 97.42 C 192.13 96.25 192.36 96.01 192.68 96.81 C 192.97 97.53 192.94 98.40 192.60 98.73 C 192.27 99.06 192.04 98.47 192.08 97.42 Z M 12.60 93.41 C 11.75 91.20 11.85 90.00 12.88 90.00 C 14.06 90.00 15.03 93.86 14.01 94.49 C 13.57 94.77 12.94 94.28 12.60 93.41 Z M 365.50 92.00 C 365.16 91.45 365.36 91.00 365.94 91.00 C 366.52 91.00 367.00 91.45 367.00 92.00 C 367.00 92.55 366.80 93.00 366.56 93.00 C 366.32 93.00 365.84 92.55 365.50 92.00 Z M 190.00 91.28 C 190.00 90.67 189.71 89.34 189.36 88.33 C 188.75 86.59 188.80 86.58 190.57 88.24 C 192.01 89.60 192.15 90.25 191.21 91.19 C 190.37 92.03 190.00 92.06 190.00 91.28 Z M 13.58 85.13 C 13.15 84.44 13.07 83.60 13.40 83.27 C 14.29 82.37 15.27 83.69 14.79 85.14 C 14.45 86.15 14.21 86.15 13.58 85.13 Z M 190.00 83.94 C 190.00 82.81 190.45 82.16 191.00 82.50 C 191.55 82.84 192.00 83.77 192.00 84.56 C 192.00 85.35 191.55 86.00 191.00 86.00 C 190.45 86.00 190.00 85.07 190.00 83.94 Z M 14.03 80.04 C 13.22 79.53 12.82 78.85 13.14 78.53 C 13.92 77.74 17.00 79.00 17.00 80.11 C 17.00 81.25 15.90 81.22 14.03 80.04 Z M 188.62 76.25 C 189.45 72.79 189.80 72.40 190.98 73.58 C 192.30 74.90 191.08 79.00 189.36 79.00 C 188.34 79.00 188.14 78.26 188.62 76.25 Z M 12.50 74.00 C 12.16 73.45 12.36 73.00 12.94 73.00 C 13.52 73.00 14.00 73.45 14.00 74.00 C 14.00 74.55 13.80 75.00 13.56 75.00 C 13.32 75.00 12.84 74.55 12.50 74.00 Z M 189.25 69.28 C 187.81 68.77 187.53 65.00 188.93 65.00 C 189.85 65.00 191.51 68.87 190.84 69.44 C 190.65 69.60 189.94 69.53 189.25 69.28 Z M 12.71 68.38 C 11.93 67.59 13.00 65.00 14.11 65.00 C 15.25 65.00 15.28 67.71 14.14 68.41 C 13.67 68.71 13.02 68.69 12.71 68.38 Z M 366.69 61.25 C 366.40 59.74 366.57 58.07 367.08 57.55 C 367.65 56.96 368.00 58.02 368.00 60.30 C 368.00 64.68 367.45 65.08 366.69 61.25 Z M 188.64 61.50 C 188.95 60.67 189.39 60.00 189.61 60.00 C 189.82 60.00 190.00 60.67 190.00 61.50 C 190.00 62.33 189.56 63.00 189.03 63.00 C 188.50 63.00 188.32 62.33 188.64 61.50 Z M 190.00 57.56 C 190.00 56.70 190.45 56.00 191.00 56.00 C 191.55 56.00 192.00 56.42 192.00 56.94 C 192.00 57.46 191.55 58.16 191.00 58.50 C 190.45 58.84 190.00 58.42 190.00 57.56 Z M 187.00 53.47 C 187.00 52.66 187.68 52.00 188.50 52.00 C 189.32 52.00 190.00 52.40 190.00 52.89 C 190.00 53.38 189.32 54.05 188.50 54.36 C 187.59 54.71 187.00 54.36 187.00 53.47 Z M 13.00 45.50 C 13.00 44.67 13.45 44.00 14.00 44.00 C 14.55 44.00 15.00 44.67 15.00 45.50 C 15.00 46.33 14.55 47.00 14.00 47.00 C 13.45 47.00 13.00 46.33 13.00 45.50 Z M 189.00 46.00 C 189.00 45.45 189.48 45.00 190.06 45.00 C 190.64 45.00 190.84 45.45 190.50 46.00 C 190.16 46.55 189.68 47.00 189.44 47.00 C 189.20 47.00 189.00 46.55 189.00 46.00 Z M 366.00 43.50 C 366.00 42.01 366.43 41.15 367.00 41.50 C 367.55 41.84 368.00 42.74 368.00 43.50 C 368.00 44.26 367.55 45.16 367.00 45.50 C 366.43 45.85 366.00 44.99 366.00 43.50 Z M 189.00 39.06 C 189.00 36.64 189.56 36.40 190.35 38.47 C 190.66 39.28 190.48 40.20 189.96 40.53 C 189.43 40.85 189.00 40.19 189.00 39.06 Z M 14.00 36.94 C 14.00 36.36 14.45 36.16 15.00 36.50 C 15.55 36.84 16.00 37.32 16.00 37.56 C 16.00 37.80 15.55 38.00 15.00 38.00 C 14.45 38.00 14.00 37.52 14.00 36.94 Z M 366.07 35.25 C 366.03 33.46 366.45 32.00 367.00 32.00 C 368.19 32.00 368.19 33.74 367.00 36.50 C 366.28 38.18 366.13 37.97 366.07 35.25 Z M 14.00 32.44 C 14.00 31.58 14.46 31.16 15.02 31.51 C 15.58 31.86 15.77 32.56 15.46 33.07 C 14.60 34.46 14.00 34.20 14.00 32.44 Z M 189.63 31.75 C 188.71 28.30 188.89 25.00 190.00 25.00 C 190.55 25.00 191.00 27.02 191.00 29.50 C 191.00 34.46 190.55 35.19 189.63 31.75 Z M 12.71 29.38 C 12.33 29.00 12.55 28.04 13.20 27.26 C 13.85 26.48 14.40 24.00 14.44 21.75 C 14.47 19.33 15.03 17.49 15.80 17.23 C 16.80 16.90 17.03 18.28 16.80 23.14 C 16.57 27.91 16.12 29.55 14.95 29.77 C 14.10 29.94 13.09 29.76 12.71 29.38 Z M 366.00 27.12 C 366.00 26.02 366.45 24.84 367.00 24.50 C 367.55 24.16 368.00 24.78 368.00 25.88 C 368.00 26.98 367.55 28.16 367.00 28.50 C 366.45 28.84 366.00 28.22 366.00 27.12 Z M 185.48 26.96 C 184.55 25.46 186.01 17.89 187.09 18.56 C 187.60 18.87 187.90 21.12 187.75 23.56 C 187.51 27.90 186.75 29.03 185.48 26.96 Z M 363.50 20.00 C 363.16 19.45 363.61 19.00 364.50 19.00 C 365.39 19.00 365.84 19.45 365.50 20.00 C 365.16 20.55 364.71 21.00 364.50 21.00 C 364.29 21.00 363.84 20.55 363.50 20.00 Z M 201.18 17.33 C 201.66 14.82 204.00 14.48 204.00 16.92 C 204.00 18.15 203.35 19.00 202.43 19.00 C 201.50 19.00 200.99 18.32 201.18 17.33 Z M 228.00 18.00 C 228.00 17.45 228.48 17.00 229.06 17.00 C 229.64 17.00 229.84 17.45 229.50 18.00 C 229.16 18.55 228.68 19.00 228.44 19.00 C 228.20 19.00 228.00 18.55 228.00 18.00 Z M 260.00 17.00 C 260.00 16.45 260.45 16.00 261.00 16.00 C 261.55 16.00 262.00 16.45 262.00 17.00 C 262.00 17.55 261.55 18.00 261.00 18.00 C 260.45 18.00 260.00 17.55 260.00 17.00 Z M 266.81 17.32 C 267.53 17.03 268.40 17.06 268.73 17.40 C 269.06 17.73 268.47 17.96 267.42 17.92 C 266.25 17.87 266.01 17.64 266.81 17.32 Z M 306.00 17.00 C 307.96 15.73 309.28 15.73 308.50 17.00 C 308.16 17.55 307.12 17.99 306.19 17.98 C 304.73 17.97 304.71 17.84 306.00 17.00 Z M 186.00 15.50 C 186.00 14.68 186.73 14.00 187.62 14.00 C 188.95 14.00 189.02 14.27 188.00 15.50 C 187.32 16.32 186.59 17.00 186.38 17.00 C 186.17 17.00 186.00 16.32 186.00 15.50 Z M 232.81 16.32 C 233.53 16.03 234.40 16.06 234.73 16.40 C 235.06 16.73 234.47 16.96 233.42 16.92 C 232.25 16.87 232.01 16.64 232.81 16.32 Z M 215.50 15.00 C 215.13 14.40 216.37 14.00 218.61 14.00 C 222.76 14.00 222.82 14.40 218.81 15.36 C 217.33 15.72 215.84 15.56 215.50 15.00 Z M 241.00 14.98 C 241.00 13.94 243.22 13.20 244.75 13.73 C 246.90 14.48 246.12 15.75 243.50 15.75 C 242.12 15.75 241.00 15.40 241.00 14.98 Z" fill="none" stroke="rgba(255,255,255,0.92)" stroke-width="1.5" stroke-linejoin="round" fill-rule="evenodd"/>
</svg>
