<svg xmlns="http://www.w3.org/2000/svg" viewBox="0 0 100 100" width="100" height="100">
  <path d="M 0.00 50.00 L 0.00 0.00 L 50.00 0.00 L 100.00 0.00 L 100.00 50.00 L 100.00 100.00 L 50.00 100.00 L 0.00 100.00 L 0.00 50.00 Z M 95.95 50.97 L 95.95 5.94 L 49.98 6.06 L 4.00 6.17 L 4.00 9.08 L 4.00 12.00 L 49.50 12.00 L 95.00 12.00 L 95.00 15.50 L 95.00 19.00 L 86.25 19.17 C 81.44 19.26 74.80 19.43 71.50 19.54 C 68.20 19.65 51.66 19.80 34.75 19.87 C 6.18 19.99 4.00 20.12 4.00 21.75 C 4.00 23.40 6.73 23.48 49.56 23.22 L 95.11 22.94 L 94.81 27.70 L 94.50 32.46 L 60.50 32.75 C 41.80 32.91 21.44 33.03 15.25 33.02 C 5.91 33.00 4.00 33.25 4.00 34.50 C 4.00 35.33 4.56 36.01 5.25 36.03 C 5.94 36.05 26.41 36.03 50.75 36.00 L 95.00 35.94 L 95.00 39.97 L 95.00 44.00 L 88.25 44.10 C 84.54 44.16 64.62 44.34 44.00 44.52 C 23.38 44.69 5.94 44.87 5.25 44.91 C 4.56 44.96 4.00 46.12 4.00 47.50 L 4.00 50.00 L 37.00 50.00 L 70.00 50.00 L 70.00 52.50 L 70.00 55.00 L 37.00 55.00 L 4.00 55.00 L 4.00 58.08 L 4.00 61.17 L 49.50 60.83 L 95.00 60.50 L 95.00 64.25 L 95.00 68.00 L 89.25 68.06 C 86.09 68.09 68.43 68.28 50.00 68.50 C 31.57 68.71 13.69 68.91 10.25 68.94 C 5.39 68.99 4.00 69.33 4.00 70.50 C 4.00 71.81 9.72 72.00 49.50 72.00 L 95.00 72.00 L 95.00 76.50 L 95.00 81.00 L 84.25 81.03 C 13.08 81.21 4.00 81.46 4.00 83.25 C 4.00 84.89 6.83 85.00 49.50 85.00 L 95.00 85.00 L 95.00 89.00 L 95.00 93.00 L 49.50 93.00 C 9.72 93.00 4.00 93.19 4.00 94.50 C 4.00 95.81 9.77 96.00 49.97 96.00 L 95.94 96.00 L 95.95 50.97 Z M 70.00 66.56 C 70.00 66.32 69.55 65.84 69.00 65.50 C 68.45 65.16 68.00 65.36 68.00 65.94 C 68.00 66.52 68.45 67.00 69.00 67.00 C 69.55 67.00 70.00 66.80 70.00 66.56 Z M 81.00 52.50 C 81.00 50.09 81.23 50.00 87.61 50.00 C 93.22 50.00 94.12 50.24 93.61 51.58 C 93.27 52.45 93.00 53.58 93.00 54.08 C 93.00 54.59 90.30 55.00 87.00 55.00 C 81.27 55.00 81.00 54.89 81.00 52.50 Z" fill="none" stroke="rgba(255,255,255,0.92)" stroke-width="1.2" stroke-linejoin="round" fill-rule="evenodd"/>
</svg>
