<svg xmlns="http://www.w3.org/2000/svg" viewBox="0 0 100 100" width="100" height="100">
  <path d="M 0.00 50.00 L 0.00 0.00 L 50.00 0.00 L 100.00 0.00 L 100.00 50.00 L 100.00 100.00 L 50.00 100.00 L 0.00 100.00 L 0.00 50.00 Z M 29.00 94.40 C 29.00 92.96 32.31 92.83 62.50 93.15 L 96.00 93.50 L 96.00 90.91 L 96.00 88.31 L 81.75 87.66 C 73.91 87.30 58.89 87.01 48.36 87.00 C 29.34 87.00 29.21 86.99 28.67 84.75 C 28.37 83.51 28.21 70.58 28.31 56.00 L 28.50 29.50 L 62.25 29.75 L 96.00 30.00 L 96.00 18.00 L 96.00 6.00 L 68.75 5.81 C 40.64 5.61 39.17 5.61 17.75 5.85 L 5.00 6.00 L 5.00 51.00 L 5.00 96.00 L 17.00 96.00 C 27.33 96.00 29.00 95.78 29.00 94.40 Z" fill="none" stroke="rgba(255,255,255,0.92)" stroke-width="1.2" stroke-linejoin="round" fill-rule="evenodd"/>
</svg>
