<svg xmlns="http://www.w3.org/2000/svg" viewBox="0 0 400 285" width="400" height="285">
  <path d="M 0.00 142.50 L 0.00 0.00 L 200.00 0.00 L 400.00 0.00 L 400.00 142.50 L 400.00 285.00 L 200.00 285.00 L 0.00 285.00 L 0.00 142.50 Z M 209.57 276.94 C 210.41 276.24 211.03 276.24 211.45 276.92 C 211.82 277.51 214.83 277.74 218.79 277.48 C 222.48 277.23 239.00 276.76 255.50 276.44 C 272.00 276.11 292.48 275.70 301.00 275.52 C 309.52 275.34 333.49 275.11 354.25 275.00 C 375.01 274.90 392.17 274.52 392.38 274.16 C 393.47 272.30 394.20 219.27 394.53 118.42 L 394.90 6.35 L 372.20 6.66 C 359.71 6.83 340.50 7.29 329.50 7.68 C 318.50 8.07 241.33 8.41 158.00 8.44 L 6.50 8.50 L 6.50 78.50 C 6.50 146.67 6.55 148.50 8.41 148.50 C 10.23 148.50 10.32 149.71 10.54 176.50 C 10.66 191.90 10.92 221.19 11.11 241.59 L 11.46 278.67 L 109.89 278.33 C 175.88 278.09 208.73 277.64 209.57 276.94 Z M 42.00 275.00 C 42.00 274.45 42.65 274.00 43.44 274.00 C 44.23 274.00 45.16 274.45 45.50 275.00 C 45.84 275.55 45.19 276.00 44.06 276.00 C 42.93 276.00 42.00 275.55 42.00 275.00 Z M 63.60 274.39 C 63.00 272.85 64.77 272.57 66.83 273.88 C 67.85 274.52 67.69 274.85 66.15 275.25 C 64.94 275.57 63.91 275.22 63.60 274.39 Z M 73.50 275.00 C 73.84 274.45 74.57 274.00 75.12 274.00 C 75.67 274.00 75.84 274.45 75.50 275.00 C 75.16 275.55 74.43 276.00 73.88 276.00 C 73.33 276.00 73.16 275.55 73.50 275.00 Z M 122.81 275.32 C 123.53 275.03 124.40 275.06 124.73 275.40 C 125.06 275.73 124.47 275.96 123.42 275.92 C 122.25 275.87 122.01 275.64 122.81 275.32 Z M 161.16 274.55 C 161.42 273.07 162.43 272.53 165.28 272.35 C 167.45 272.21 168.80 272.51 168.47 273.06 C 168.14 273.57 166.87 274.00 165.64 274.00 C 164.41 274.00 162.82 274.56 162.10 275.25 C 161.05 276.26 160.87 276.13 161.16 274.55 Z M 82.15 273.75 C 80.66 272.26 79.19 272.17 49.50 271.74 C 36.85 271.55 25.32 271.71 23.88 272.09 C 19.14 273.35 18.63 272.14 18.36 258.96 C 18.22 252.26 17.86 246.53 17.56 246.22 C 17.25 245.92 17.00 247.32 17.00 249.33 C 17.00 251.35 16.55 253.00 16.00 253.00 C 15.10 253.00 14.85 251.81 14.58 246.25 C 14.54 245.29 15.18 244.50 16.00 244.50 C 17.22 244.50 17.54 242.57 17.71 234.00 C 17.97 221.45 17.40 217.00 15.53 217.00 C 14.51 217.00 14.22 215.71 14.40 212.01 C 14.74 205.28 16.00 204.35 16.00 210.83 C 16.00 213.68 16.45 216.00 17.00 216.00 C 17.65 216.00 17.81 204.50 17.47 182.58 C 17.12 160.48 17.28 148.94 17.95 148.53 C 18.51 148.18 34.05 147.84 52.48 147.77 C 70.92 147.70 86.00 147.30 86.00 146.87 C 86.00 146.44 87.43 146.70 89.17 147.43 C 91.35 148.34 93.31 148.49 95.42 147.88 C 97.11 147.39 98.62 147.35 98.76 147.79 C 98.91 148.23 107.12 148.52 117.01 148.43 L 135.00 148.28 L 135.08 165.89 C 135.13 175.58 135.30 191.15 135.46 200.50 C 135.71 215.09 136.12 265.50 136.03 270.03 C 136.01 271.23 134.45 271.62 128.79 271.86 C 124.83 272.02 120.81 272.57 119.86 273.08 C 117.42 274.38 116.97 274.24 117.68 272.38 C 118.19 271.06 117.87 270.91 115.90 271.54 C 113.44 272.33 109.89 272.35 97.25 271.62 C 93.06 271.37 90.00 271.60 90.00 272.14 C 90.00 272.70 88.44 272.80 86.25 272.39 C 82.84 271.75 82.62 271.84 83.87 273.34 C 85.46 275.26 84.01 275.61 82.15 273.75 Z M 125.50 274.00 L 123.50 273.14 L 125.50 273.17 C 126.60 273.19 128.62 273.56 130.00 274.00 L 132.50 274.80 L 130.00 274.83 C 128.62 274.85 126.60 274.47 125.50 274.00 Z M 144.50 273.92 C 141.92 273.33 142.16 273.22 146.25 273.12 C 148.86 273.05 151.00 273.17 151.00 273.38 C 151.00 274.25 147.30 274.55 144.50 273.92 Z M 153.00 273.94 C 153.00 273.36 153.45 273.16 154.00 273.50 C 154.55 273.84 155.00 274.32 155.00 274.56 C 155.00 274.80 154.55 275.00 154.00 275.00 C 153.45 275.00 153.00 274.52 153.00 273.94 Z M 171.00 274.00 C 171.00 273.45 171.65 273.00 172.44 273.00 C 173.23 273.00 174.16 273.45 174.50 274.00 C 174.84 274.55 174.19 275.00 173.06 275.00 C 171.93 275.00 171.00 274.55 171.00 274.00 Z M 177.50 274.00 C 177.16 273.45 177.84 273.00 179.00 273.00 C 180.16 273.00 180.84 273.45 180.50 274.00 C 180.16 274.55 179.49 275.00 179.00 275.00 C 178.51 275.00 177.84 274.55 177.50 274.00 Z M 189.00 274.00 C 189.00 273.45 189.48 273.00 190.06 273.00 C 190.64 273.00 190.84 273.45 190.50 274.00 C 190.16 274.55 189.68 275.00 189.44 275.00 C 189.20 275.00 189.00 274.55 189.00 274.00 Z M 198.81 274.32 C 199.53 274.03 200.40 274.06 200.73 274.40 C 201.06 274.73 200.47 274.96 199.42 274.92 C 198.25 274.87 198.01 274.64 198.81 274.32 Z M 252.61 273.58 C 252.94 272.71 253.65 272.00 254.19 272.00 C 255.50 272.00 254.68 274.27 253.19 274.77 C 252.46 275.01 252.23 274.56 252.61 273.58 Z M 69.81 273.32 C 70.53 273.03 71.40 273.06 71.73 273.40 C 72.06 273.73 71.47 273.96 70.42 273.92 C 69.25 273.87 69.01 273.64 69.81 273.32 Z M 90.81 273.32 C 91.53 273.03 92.40 273.06 92.73 273.40 C 93.06 273.73 92.47 273.96 91.42 273.92 C 90.25 273.87 90.01 273.64 90.81 273.32 Z M 153.47 271.95 C 153.11 271.37 151.62 270.99 150.16 271.10 C 148.70 271.21 146.60 271.23 145.49 271.15 C 143.26 270.98 143.37 274.45 142.73 182.17 L 142.50 148.85 L 152.00 148.87 C 157.22 148.88 175.00 148.85 191.50 148.80 C 208.00 148.75 223.19 148.77 225.25 148.83 C 227.31 148.90 230.10 148.53 231.46 148.01 C 232.82 147.50 234.16 147.45 234.44 147.91 C 234.73 148.36 240.94 148.58 248.26 148.40 L 261.57 148.06 L 261.21 208.27 C 261.01 241.39 260.68 268.65 260.47 268.87 C 260.01 269.32 235.77 269.95 191.53 270.65 C 173.95 270.93 158.79 271.58 157.85 272.08 C 155.60 273.28 154.27 273.24 153.47 271.95 Z M 213.81 272.32 C 214.53 272.03 215.40 272.06 215.73 272.40 C 216.06 272.73 215.47 272.96 214.42 272.92 C 213.25 272.87 213.01 272.64 213.81 272.32 Z M 226.81 272.32 C 227.53 272.03 228.40 272.06 228.73 272.40 C 229.06 272.73 228.47 272.96 227.42 272.92 C 226.25 272.87 226.01 272.64 226.81 272.32 Z M 327.50 272.00 C 327.14 271.42 328.07 271.01 329.69 271.02 C 331.87 271.03 332.16 271.25 331.00 272.00 C 329.08 273.24 328.27 273.24 327.50 272.00 Z M 14.99 268.42 C 14.98 266.26 14.69 263.38 14.35 262.00 C 13.92 260.26 14.05 259.80 14.79 260.50 C 16.01 261.65 16.74 270.59 15.70 271.63 C 15.31 272.02 14.99 270.57 14.99 268.42 Z M 303.00 270.94 C 303.00 270.36 303.45 270.16 304.00 270.50 C 304.55 270.84 305.00 271.32 305.00 271.56 C 305.00 271.80 304.55 272.00 304.00 272.00 C 303.45 272.00 303.00 271.52 303.00 270.94 Z M 316.00 271.00 C 316.00 270.45 316.42 270.00 316.94 270.00 C 317.46 270.00 318.16 270.45 318.50 271.00 C 318.84 271.55 318.42 272.00 317.56 272.00 C 316.70 272.00 316.00 271.55 316.00 271.00 Z M 343.50 271.00 C 343.84 270.45 344.79 270.00 345.62 270.00 C 346.44 270.00 346.84 270.45 346.50 271.00 C 346.16 271.55 345.21 272.00 344.38 272.00 C 343.56 272.00 343.16 271.55 343.50 271.00 Z M 371.50 271.00 C 371.84 270.45 372.54 270.00 373.06 270.00 C 373.58 270.00 374.00 270.45 374.00 271.00 C 374.00 271.55 373.30 272.00 372.44 272.00 C 371.58 272.00 371.16 271.55 371.50 271.00 Z M 322.81 270.32 C 323.53 270.03 324.40 270.06 324.73 270.40 C 325.06 270.73 324.47 270.96 323.42 270.92 C 322.25 270.87 322.01 270.64 322.81 270.32 Z M 336.87 270.00 C 336.32 268.48 328.41 268.35 281.70 269.05 C 275.21 269.15 269.68 269.01 269.41 268.74 C 269.14 268.47 268.82 241.19 268.71 208.12 L 268.50 148.00 L 277.00 147.96 C 281.68 147.93 308.34 147.67 336.25 147.37 L 387.00 146.82 L 387.03 150.16 C 387.35 190.53 386.27 265.92 385.35 266.94 C 384.87 267.47 371.52 267.88 352.32 267.95 C 339.65 267.99 338.11 268.19 337.78 269.75 C 337.47 271.18 337.31 271.23 336.87 270.00 Z M 348.81 270.32 C 349.53 270.03 350.40 270.06 350.73 270.40 C 351.06 270.73 350.47 270.96 349.42 270.92 C 348.25 270.87 348.01 270.64 348.81 270.32 Z M 376.81 270.32 C 377.53 270.03 378.40 270.06 378.73 270.40 C 379.06 270.73 378.47 270.96 377.42 270.92 C 376.25 270.87 376.01 270.64 376.81 270.32 Z M 79.75 267.01 C 80.67 267.00 81.00 264.17 81.00 256.20 L 81.00 245.40 L 77.50 245.81 L 74.00 246.22 L 74.00 257.23 C 74.00 268.15 74.02 268.23 76.25 267.63 C 77.49 267.30 79.06 267.02 79.75 267.01 Z M 55.97 239.00 C 55.95 238.18 54.87 236.72 53.57 235.78 C 51.21 234.06 51.17 234.09 44.60 241.43 C 40.97 245.48 38.00 249.17 38.00 249.61 C 38.00 250.06 39.01 251.44 40.25 252.68 L 42.50 254.93 L 49.25 247.71 C 52.96 243.75 55.98 239.82 55.97 239.00 Z M 264.53 251.71 C 264.10 250.72 264.03 249.63 264.38 249.29 C 265.39 248.27 266.21 249.70 265.74 251.67 C 265.33 253.42 265.27 253.42 264.53 251.71 Z M 118.39 248.91 L 120.22 245.82 L 112.93 239.16 C 108.91 235.50 105.23 232.50 104.75 232.50 C 104.27 232.50 103.11 233.77 102.19 235.32 L 100.50 238.14 L 107.50 244.94 C 111.35 248.68 114.97 251.80 115.53 251.87 C 116.10 251.94 117.39 250.61 118.39 248.91 Z M 14.38 241.56 C 14.08 240.77 14.00 239.30 14.20 238.31 C 14.48 236.98 14.88 237.36 15.74 239.75 C 16.87 242.92 15.57 244.65 14.38 241.56 Z M 389.45 241.91 C 389.08 241.31 389.28 240.32 389.89 239.71 C 390.70 238.90 391.00 239.18 391.00 240.80 C 391.00 243.21 390.48 243.59 389.45 241.91 Z M 139.08 238.42 C 139.13 237.25 139.36 237.01 139.68 237.81 C 139.97 238.53 139.94 239.40 139.60 239.73 C 139.27 240.06 139.04 239.47 139.08 238.42 Z M 86.50 236.90 C 95.39 234.47 104.02 221.52 103.99 210.64 C 103.95 193.95 89.22 179.64 74.02 181.50 C 60.06 183.22 50.07 194.46 50.03 208.50 C 50.00 218.77 53.41 226.37 60.81 232.52 C 67.00 237.68 77.25 239.42 86.50 236.90 Z M 15.00 232.50 C 15.00 231.01 15.43 230.15 16.00 230.50 C 16.55 230.84 17.00 231.74 17.00 232.50 C 17.00 233.26 16.55 234.16 16.00 234.50 C 15.43 234.85 15.00 233.99 15.00 232.50 Z M 390.27 231.00 C 390.27 228.53 390.47 227.51 390.71 228.75 C 390.94 229.99 390.94 232.01 390.71 233.25 C 390.47 234.49 390.27 233.47 390.27 231.00 Z M 70.23 228.75 C 66.02 227.40 60.76 221.55 58.55 215.76 C 57.05 211.85 56.98 210.43 57.99 205.55 C 60.87 191.68 74.85 185.65 86.51 193.25 C 97.22 200.23 99.30 214.89 90.85 223.87 C 85.43 229.62 78.25 231.32 70.23 228.75 Z M 14.69 225.25 C 14.40 223.74 14.57 222.07 15.08 221.55 C 15.65 220.96 16.00 222.02 16.00 224.30 C 16.00 228.68 15.45 229.08 14.69 225.25 Z M 390.16 218.00 C 390.16 216.62 390.38 216.06 390.66 216.75 C 390.94 217.44 390.94 218.56 390.66 219.25 C 390.38 219.94 390.16 219.38 390.16 218.00 Z M 41.79 212.75 C 42.36 212.06 42.59 210.26 42.29 208.75 L 41.77 206.00 L 31.88 206.00 L 22.00 206.00 L 22.00 210.00 L 22.00 214.00 L 31.38 214.00 C 37.66 214.00 41.10 213.59 41.79 212.75 Z M 132.00 210.00 L 132.00 206.00 L 121.50 206.00 L 111.00 206.00 L 111.00 210.00 L 111.00 214.00 L 121.50 214.00 L 132.00 214.00 L 132.00 210.00 Z M 390.08 201.42 C 390.13 200.25 390.36 200.01 390.68 200.81 C 390.97 201.53 390.94 202.40 390.60 202.73 C 390.27 203.06 390.04 202.47 390.08 201.42 Z M 138.00 199.00 C 138.00 198.45 138.45 198.00 139.00 198.00 C 139.55 198.00 140.00 198.45 140.00 199.00 C 140.00 199.55 139.55 200.00 139.00 200.00 C 138.45 200.00 138.00 199.55 138.00 199.00 Z M 53.00 181.97 C 53.01 180.48 38.99 167.79 37.82 168.24 C 37.08 168.52 35.84 169.93 35.07 171.37 C 33.71 173.92 33.85 174.15 41.09 180.95 L 48.50 187.92 L 50.75 185.21 C 51.98 183.72 52.99 182.26 53.00 181.97 Z M 13.45 184.91 C 13.08 184.31 13.28 183.32 13.89 182.71 C 14.70 181.90 15.00 182.18 15.00 183.80 C 15.00 186.21 14.48 186.59 13.45 184.91 Z M 116.00 170.32 C 116.00 169.67 114.83 168.23 113.41 167.11 L 110.82 165.07 L 104.66 172.13 C 101.27 176.02 98.34 179.63 98.14 180.17 C 97.95 180.70 98.85 182.28 100.14 183.67 L 102.50 186.21 L 109.25 178.85 C 112.96 174.81 116.00 170.97 116.00 170.32 Z M 390.50 180.00 C 390.84 179.45 391.32 179.00 391.56 179.00 C 391.80 179.00 392.00 179.45 392.00 180.00 C 392.00 180.55 391.52 181.00 390.94 181.00 C 390.36 181.00 390.16 180.55 390.50 180.00 Z M 79.78 162.75 L 80.07 152.00 L 76.53 152.00 L 73.00 152.00 L 73.00 162.42 C 73.00 173.26 73.33 174.08 77.50 173.69 C 79.34 173.51 79.52 172.66 79.78 162.75 Z M 38.46 140.52 C 37.26 130.96 34.47 131.63 72.27 132.37 C 90.55 132.72 111.62 133.05 119.10 133.10 C 126.57 133.15 133.24 133.53 133.92 133.95 C 134.62 134.38 135.01 136.17 134.82 138.10 C 134.52 141.29 134.29 141.48 131.15 141.23 C 129.30 141.08 126.26 141.39 124.38 141.90 C 122.21 142.50 121.19 142.50 121.57 141.88 C 121.94 141.29 118.39 140.94 112.33 140.98 C 106.93 141.01 98.00 140.87 92.50 140.66 C 87.00 140.45 81.70 140.68 80.73 141.18 C 79.76 141.68 78.41 141.74 77.73 141.31 C 76.04 140.23 41.07 140.08 40.41 141.15 C 40.12 141.62 41.60 142.01 43.69 142.02 C 46.32 142.03 47.06 142.31 46.09 142.92 C 44.95 143.65 45.04 143.90 46.59 144.26 C 47.64 144.50 46.81 144.51 44.75 144.26 C 42.45 143.99 41.00 144.24 41.00 144.91 C 41.00 145.51 40.58 146.00 40.07 146.00 C 39.56 146.00 38.84 143.53 38.46 140.52 Z M 111.50 145.00 C 111.84 144.45 112.32 144.00 112.56 144.00 C 112.80 144.00 113.00 144.45 113.00 145.00 C 113.00 145.55 112.52 146.00 111.94 146.00 C 111.36 146.00 111.16 145.55 111.50 145.00 Z M 55.52 143.61 C 56.56 142.85 57.99 142.44 58.70 142.72 C 60.75 143.50 59.14 145.00 56.25 145.00 C 53.76 145.00 53.72 144.93 55.52 143.61 Z M 66.50 144.00 C 66.84 143.45 67.54 143.00 68.06 143.00 C 68.58 143.00 69.00 143.45 69.00 144.00 C 69.00 144.55 68.30 145.00 67.44 145.00 C 66.58 145.00 66.16 144.55 66.50 144.00 Z M 75.00 144.61 C 75.00 144.39 75.67 143.95 76.50 143.64 C 77.33 143.32 78.00 143.50 78.00 144.03 C 78.00 144.56 77.33 145.00 76.50 145.00 C 75.67 145.00 75.00 144.82 75.00 144.61 Z M 203.50 144.00 C 203.16 143.45 203.61 143.00 204.50 143.00 C 205.39 143.00 205.84 143.45 205.50 144.00 C 205.16 144.55 204.71 145.00 204.50 145.00 C 204.29 145.00 203.84 144.55 203.50 144.00 Z M 51.00 143.00 C 51.00 142.45 51.42 142.00 51.94 142.00 C 52.46 142.00 53.16 142.45 53.50 143.00 C 53.84 143.55 53.42 144.00 52.56 144.00 C 51.70 144.00 51.00 143.55 51.00 143.00 Z M 73.00 143.00 C 73.00 142.45 73.48 142.00 74.06 142.00 C 74.64 142.00 74.84 142.45 74.50 143.00 C 74.16 143.55 73.68 144.00 73.44 144.00 C 73.20 144.00 73.00 143.55 73.00 143.00 Z M 86.50 143.00 C 86.16 142.45 86.61 142.00 87.50 142.00 C 88.39 142.00 88.84 142.45 88.50 143.00 C 88.16 143.55 87.71 144.00 87.50 144.00 C 87.29 144.00 86.84 143.55 86.50 143.00 Z M 109.00 143.00 C 109.00 142.45 109.48 142.00 110.06 142.00 C 110.64 142.00 110.84 142.45 110.50 143.00 C 110.16 143.55 109.68 144.00 109.44 144.00 C 109.20 144.00 109.00 143.55 109.00 143.00 Z M 185.61 142.28 C 185.28 141.95 175.33 141.68 163.51 141.67 L 142.00 141.67 L 142.00 138.39 C 142.00 136.59 142.50 134.81 143.10 134.44 C 143.71 134.06 148.80 133.83 154.42 133.93 C 194.33 134.61 223.51 122.94 237.74 100.58 C 239.12 98.42 241.40 93.47 242.82 89.58 C 245.15 83.18 245.40 81.15 245.34 68.44 C 245.31 60.70 244.96 51.81 244.57 48.69 L 243.86 43.00 L 252.43 43.00 L 261.00 43.00 L 261.01 63.25 C 261.01 74.39 261.12 96.44 261.26 112.25 L 261.50 141.00 L 239.00 141.06 C 195.99 141.17 190.49 141.28 188.35 142.07 C 187.17 142.51 185.94 142.60 185.61 142.28 Z M 268.96 123.59 C 268.93 114.19 268.68 90.97 268.39 72.00 C 268.11 53.02 268.17 32.49 268.53 26.38 L 269.18 15.25 L 272.34 15.92 C 274.08 16.29 278.20 16.50 281.50 16.39 C 284.80 16.28 301.45 15.92 318.50 15.60 C 335.55 15.28 357.38 14.79 367.00 14.52 C 376.62 14.25 385.05 14.37 385.72 14.80 C 386.65 15.39 386.99 30.03 387.19 76.74 C 387.32 110.37 387.13 138.21 386.75 138.58 C 386.37 138.96 371.08 139.44 352.78 139.65 C 334.48 139.85 308.14 140.17 294.25 140.35 L 269.00 140.69 L 268.96 123.59 Z M 138.08 138.42 C 138.13 137.25 138.36 137.01 138.68 137.81 C 138.97 138.53 138.94 139.40 138.60 139.73 C 138.27 140.06 138.04 139.47 138.08 138.42 Z M 121.00 124.89 C 105.32 124.55 80.49 124.21 65.81 124.14 C 51.13 124.06 38.90 123.65 38.63 123.21 C 38.19 122.50 37.55 58.31 37.87 46.59 L 38.00 41.67 L 107.75 42.34 C 146.11 42.70 190.65 43.00 206.73 43.00 L 235.96 43.00 L 236.56 45.37 C 236.88 46.68 237.21 54.89 237.29 63.62 C 237.40 76.40 237.07 80.67 235.61 85.50 C 230.74 101.54 217.37 113.38 195.71 120.79 C 186.00 124.12 184.68 124.31 167.51 124.89 C 157.60 125.23 136.68 125.22 121.00 124.89 Z M 390.50 113.00 C 390.16 112.45 390.36 112.00 390.94 112.00 C 391.52 112.00 392.00 112.45 392.00 113.00 C 392.00 113.55 391.80 114.00 391.56 114.00 C 391.32 114.00 390.84 113.55 390.50 113.00 Z M 390.08 99.42 C 390.13 98.25 390.36 98.01 390.68 98.81 C 390.97 99.53 390.94 100.40 390.60 100.73 C 390.27 101.06 390.04 100.47 390.08 99.42 Z M 264.08 48.42 C 264.13 47.25 264.36 47.01 264.68 47.81 C 264.97 48.53 264.94 49.40 264.60 49.73 C 264.27 50.06 264.04 49.47 264.08 48.42 Z M 269.00 13.00 C 269.00 12.45 269.45 12.00 270.00 12.00 C 270.55 12.00 271.00 12.45 271.00 13.00 C 271.00 13.55 270.55 14.00 270.00 14.00 C 269.45 14.00 269.00 13.55 269.00 13.00 Z" fill="none" stroke="rgba(255,255,255,0.92)" stroke-width="1.5" stroke-linejoin="round" fill-rule="evenodd"/>
</svg>
