<svg xmlns="http://www.w3.org/2000/svg" viewBox="0 0 100 100" width="100" height="100">
  <path d="M 0.00 50.00 L 0.00 0.00 L 50.00 0.00 L 100.00 0.00 L 100.00 50.00 L 100.00 100.00 L 50.00 100.00 L 0.00 100.00 L 0.00 50.00 Z M 95.81 94.08 C 96.00 93.49 95.57 92.99 94.83 92.98 C 93.82 92.97 93.86 92.71 95.00 91.91 C 96.12 91.11 95.43 90.96 92.25 91.33 C 89.91 91.59 88.00 91.52 88.00 91.15 C 87.99 90.79 83.55 90.50 78.12 90.50 C 72.07 90.50 68.34 90.89 68.46 91.50 C 68.58 92.05 68.48 92.16 68.25 91.75 C 68.02 91.34 66.41 91.01 64.67 91.02 C 62.25 91.03 61.86 91.26 63.00 92.00 C 63.83 92.53 64.03 92.98 63.45 92.98 C 62.87 92.99 61.91 92.51 61.31 91.91 C 60.52 91.12 59.60 91.14 57.99 92.01 C 56.50 92.80 55.99 92.83 56.44 92.10 C 57.23 90.82 55.65 90.74 31.25 90.81 L 14.00 90.86 L 13.91 87.18 C 13.87 85.16 13.83 81.03 13.82 78.00 C 13.82 74.97 13.60 73.52 13.33 74.76 C 12.70 77.77 11.00 76.61 11.02 73.19 C 11.03 71.34 11.29 70.91 11.88 71.83 C 12.53 72.86 12.84 72.71 13.24 71.18 C 13.94 68.51 12.99 63.89 11.89 64.57 C 11.40 64.87 11.00 64.11 11.00 62.87 C 11.00 60.82 11.11 60.77 12.26 62.34 C 13.29 63.75 13.48 62.05 13.35 52.78 C 13.25 46.57 13.14 33.06 13.09 22.75 L 13.00 4.00 L 10.50 4.00 C 8.45 4.00 7.99 4.49 7.96 6.75 C 7.85 14.37 8.22 72.37 8.42 78.00 C 8.54 81.58 8.73 87.00 8.82 90.06 L 9.00 95.62 L 52.22 95.39 C 82.05 95.23 95.56 94.82 95.81 94.08 Z M 32.50 93.00 C 32.16 92.45 32.36 92.00 32.94 92.00 C 33.52 92.00 34.00 92.45 34.00 93.00 C 34.00 93.55 33.80 94.00 33.56 94.00 C 33.32 94.00 32.84 93.55 32.50 93.00 Z M 47.75 92.34 C 48.44 92.06 49.56 92.06 50.25 92.34 C 50.94 92.62 50.38 92.84 49.00 92.84 C 47.62 92.84 47.06 92.62 47.75 92.34 Z M 11.08 87.42 C 11.13 86.25 11.36 86.01 11.68 86.81 C 11.97 87.53 11.94 88.40 11.60 88.73 C 11.27 89.06 11.04 88.47 11.08 87.42 Z M 61.00 79.89 C 61.00 72.91 60.78 71.87 59.42 72.39 C 58.55 72.73 57.20 73.00 56.42 73.00 C 55.32 73.00 55.00 74.69 55.00 80.50 L 55.00 88.00 L 58.00 88.00 L 61.00 88.00 L 61.00 79.89 Z M 10.67 84.33 C 10.30 83.97 10.00 83.20 10.00 82.63 C 10.00 82.01 10.47 82.07 11.18 82.78 C 11.83 83.43 12.13 84.20 11.85 84.48 C 11.57 84.77 11.03 84.70 10.67 84.33 Z M 37.85 72.94 C 42.08 68.04 42.15 67.83 40.42 65.91 C 38.66 63.97 38.58 64.00 34.32 68.18 C 29.46 72.94 28.12 75.83 30.14 77.11 C 32.50 78.60 33.39 78.12 37.85 72.94 Z M 90.00 73.04 C 90.00 72.68 87.50 70.22 84.44 67.59 C 78.98 62.87 78.86 62.82 76.85 64.64 C 74.81 66.48 74.83 66.51 80.65 71.67 C 86.07 76.48 86.62 76.74 88.25 75.28 C 89.21 74.40 90.00 73.40 90.00 73.04 Z M 10.64 68.50 C 10.32 67.67 10.50 67.00 11.03 67.00 C 11.56 67.00 12.00 67.67 12.00 68.50 C 12.00 69.33 11.82 70.00 11.61 70.00 C 11.39 70.00 10.95 69.33 10.64 68.50 Z M 65.68 65.94 C 71.89 63.59 77.94 55.01 77.97 48.50 C 78.04 36.01 66.44 25.59 54.65 27.55 C 49.38 28.42 46.18 30.08 42.87 33.66 C 37.95 38.98 36.24 45.45 38.01 52.04 C 39.28 56.77 44.60 63.06 49.26 65.36 C 52.98 67.19 61.56 67.50 65.68 65.94 Z M 52.96 60.49 C 50.87 59.79 48.17 57.59 46.14 54.94 C 43.07 50.94 42.83 50.11 43.36 45.62 C 44.01 40.08 46.66 36.53 51.72 34.37 C 56.16 32.48 59.40 32.65 64.08 35.04 C 71.49 38.82 74.23 47.83 70.05 54.69 C 66.77 60.07 59.29 62.61 52.96 60.49 Z M 11.19 57.50 C 11.22 55.85 11.44 55.30 11.69 56.27 C 11.95 57.24 11.93 58.59 11.66 59.27 C 11.38 59.95 11.17 59.15 11.19 57.50 Z M 10.70 48.25 C 11.51 43.06 12.00 42.90 12.00 47.83 C 12.00 50.12 11.58 52.00 11.06 52.00 C 10.54 52.00 10.38 50.33 10.70 48.25 Z M 31.82 47.25 C 31.50 44.52 31.44 44.50 24.00 44.50 C 16.56 44.50 16.50 44.52 16.18 47.25 L 15.87 50.00 L 24.00 50.00 L 32.13 50.00 L 31.82 47.25 Z M 96.00 47.50 C 96.00 45.09 95.77 45.00 89.50 45.00 C 83.23 45.00 83.00 45.09 83.00 47.50 C 83.00 49.91 83.23 50.00 89.50 50.00 C 95.77 50.00 96.00 49.91 96.00 47.50 Z M 35.00 23.02 C 29.20 17.82 28.29 17.54 26.57 20.39 C 25.67 21.88 26.38 22.95 31.00 27.05 L 36.50 31.94 L 38.50 29.94 L 40.50 27.94 L 35.00 23.02 Z M 82.50 25.00 L 87.43 19.99 L 85.25 17.80 C 84.04 16.60 82.93 15.82 82.78 16.08 C 82.62 16.33 80.25 18.92 77.50 21.83 C 72.70 26.91 72.58 27.18 74.44 28.56 C 75.51 29.35 76.65 30.00 76.98 30.00 C 77.31 30.00 79.79 27.75 82.50 25.00 Z M 60.00 14.62 C 60.00 7.84 59.82 7.19 57.79 6.66 C 56.58 6.34 55.39 6.28 55.14 6.53 C 54.78 6.89 54.61 18.35 54.92 21.25 C 54.96 21.66 56.12 22.00 57.50 22.00 C 59.94 22.00 60.00 21.83 60.00 14.62 Z" fill="none" stroke="rgba(255,255,255,0.92)" stroke-width="1.2" stroke-linejoin="round" fill-rule="evenodd"/>
</svg>
