<svg xmlns="http://www.w3.org/2000/svg" viewBox="0 0 100 100" width="100" height="100">
  <path d="M 0.00 50.00 L 0.00 0.00 L 50.00 0.00 L 100.00 0.00 L 100.00 50.00 L 100.00 100.00 L 50.00 100.00 L 0.00 100.00 L 0.00 50.00 Z M 95.77 50.50 C 95.60 21.07 95.15 4.98 94.50 4.94 C 90.22 4.67 11.75 5.48 6.25 5.85 C 4.57 5.96 4.00 6.62 4.00 8.44 L 4.00 10.89 L 46.19 10.44 C 78.45 10.10 88.57 9.71 89.18 8.75 C 89.61 8.06 89.98 27.11 89.98 51.08 C 89.99 75.05 90.30 94.97 90.67 95.33 C 91.03 95.70 92.39 96.00 93.69 96.00 L 96.04 96.00 L 95.77 50.50 Z M 17.07 92.39 C 28.81 88.90 40.12 81.78 44.07 75.39 L 46.26 71.85 L 48.70 76.18 C 54.64 86.70 61.08 90.00 75.68 90.00 C 85.22 90.00 85.12 90.13 82.39 80.93 C 78.58 68.12 71.19 57.54 64.18 54.88 L 61.59 53.89 L 66.04 51.38 C 77.74 44.78 81.48 37.87 80.82 24.06 C 80.58 19.11 80.12 14.79 79.80 14.47 C 78.81 13.48 63.51 19.87 57.34 23.86 C 51.70 27.50 46.00 33.14 46.00 35.08 C 46.00 37.09 44.29 35.83 42.81 32.72 C 38.13 22.91 31.73 19.26 17.58 18.33 C 5.84 17.56 5.67 17.80 9.48 29.53 C 13.05 40.51 19.18 49.72 24.73 52.45 C 27.03 53.58 28.93 54.78 28.95 55.13 C 28.98 55.47 27.64 56.32 25.97 57.01 C 21.45 58.88 15.85 63.64 12.75 68.23 C 10.17 72.05 10.00 72.97 10.00 83.15 C 10.00 89.12 10.37 94.00 10.82 94.00 C 11.27 94.00 14.08 93.27 17.07 92.39 Z M 15.91 84.74 C 15.44 73.36 17.09 69.47 24.50 64.55 C 28.71 61.75 38.27 58.00 41.18 58.00 C 42.46 58.00 42.06 65.08 40.55 69.32 C 38.28 75.68 34.29 78.89 21.75 84.43 L 16.00 86.97 L 15.91 84.74 Z M 69.50 83.92 C 66.20 83.55 62.69 82.91 61.70 82.50 C 58.75 81.27 53.09 73.05 51.49 67.67 C 49.31 60.30 49.50 58.00 52.32 58.00 C 56.85 58.00 64.62 60.99 67.18 63.73 C 71.46 68.30 77.91 82.66 76.27 83.98 C 75.85 84.32 72.80 84.30 69.50 83.92 Z M 32.13 49.50 C 24.91 47.25 20.67 42.04 15.94 29.61 C 14.87 26.80 14.00 24.39 14.00 24.25 C 14.00 23.50 24.08 24.33 27.48 25.35 C 33.07 27.04 38.20 34.06 40.35 42.97 C 41.26 46.72 42.00 50.06 42.00 50.39 C 42.00 51.42 36.74 50.94 32.13 49.50 Z M 49.34 49.44 C 48.23 46.56 51.04 37.03 53.97 33.69 C 56.61 30.69 71.40 22.00 73.87 22.00 C 75.52 22.00 75.30 33.52 73.59 36.80 C 71.40 40.99 67.02 44.66 61.00 47.33 C 53.06 50.86 50.09 51.40 49.34 49.44 Z M 92.08 36.42 C 92.13 35.25 92.36 35.01 92.68 35.81 C 92.97 36.53 92.94 37.40 92.60 37.73 C 92.27 38.06 92.04 37.47 92.08 36.42 Z M 19.50 8.00 C 19.16 7.45 19.36 7.00 19.94 7.00 C 20.52 7.00 21.00 7.45 21.00 8.00 C 21.00 8.55 20.80 9.00 20.56 9.00 C 20.32 9.00 19.84 8.55 19.50 8.00 Z M 30.00 8.00 C 28.71 7.16 28.73 7.03 30.19 7.02 C 31.12 7.01 32.16 7.45 32.50 8.00 C 33.28 9.27 31.96 9.27 30.00 8.00 Z M 57.00 8.03 C 57.00 7.50 57.67 7.32 58.50 7.64 C 59.33 7.95 60.00 8.39 60.00 8.61 C 60.00 8.82 59.33 9.00 58.50 9.00 C 57.67 9.00 57.00 8.56 57.00 8.03 Z M 49.25 7.31 C 50.21 7.06 51.79 7.06 52.75 7.31 C 53.71 7.56 52.92 7.77 51.00 7.77 C 49.08 7.77 48.29 7.56 49.25 7.31 Z" fill="none" stroke="rgba(255,255,255,0.92)" stroke-width="1.2" stroke-linejoin="round" fill-rule="evenodd"/>
</svg>
