<svg xmlns="http://www.w3.org/2000/svg" viewBox="0 0 400 218" width="400" height="218">
  <path d="M 0.00 109.00 L 0.00 0.00 L 200.00 0.00 L 400.00 0.00 L 400.00 109.00 L 400.00 218.00 L 200.00 218.00 L 0.00 218.00 L 0.00 109.00 Z M 219.00 212.93 C 219.82 212.92 229.50 212.88 240.50 212.86 C 251.50 212.83 269.27 212.73 280.00 212.65 L 299.50 212.50 L 299.15 162.75 C 298.96 135.39 299.18 112.94 299.65 112.87 C 300.12 112.80 307.25 112.63 315.50 112.49 C 323.75 112.36 330.95 112.14 331.50 112.01 C 332.05 111.87 332.95 111.84 333.50 111.94 C 336.79 112.54 394.09 111.07 395.23 110.36 C 395.69 110.07 395.91 86.37 395.73 57.67 L 395.39 5.50 L 372.44 5.64 C 142.72 6.99 74.73 7.75 28.00 9.50 C 21.12 9.76 13.13 9.97 10.23 9.98 L 4.95 10.00 L 5.42 29.75 C 5.68 40.61 5.96 63.23 6.04 80.00 C 6.12 96.78 6.43 111.78 6.74 113.36 L 7.29 116.21 L 40.90 115.53 C 59.38 115.16 80.65 114.69 88.18 114.50 L 101.85 114.14 L 102.02 145.82 C 102.15 171.97 102.71 212.94 102.94 213.69 C 102.98 213.83 198.99 213.20 219.00 212.93 Z M 105.00 211.75 C 105.00 211.34 106.80 211.00 109.00 211.00 C 111.20 211.00 113.00 211.36 113.00 211.80 C 113.00 212.24 111.20 212.58 109.00 212.55 C 106.80 212.52 105.00 212.16 105.00 211.75 Z M 119.50 211.00 C 119.84 210.45 120.32 210.00 120.56 210.00 C 120.80 210.00 121.00 210.45 121.00 211.00 C 121.00 211.55 120.52 212.00 119.94 212.00 C 119.36 212.00 119.16 211.55 119.50 211.00 Z M 154.00 211.00 C 154.00 210.45 154.48 210.00 155.06 210.00 C 155.64 210.00 155.84 210.45 155.50 211.00 C 155.16 211.55 154.68 212.00 154.44 212.00 C 154.20 212.00 154.00 211.55 154.00 211.00 Z M 182.00 211.00 C 182.00 210.45 182.48 210.00 183.06 210.00 C 183.64 210.00 183.84 210.45 183.50 211.00 C 183.16 211.55 182.68 212.00 182.44 212.00 C 182.20 212.00 182.00 211.55 182.00 211.00 Z M 189.00 211.00 C 189.00 210.45 189.48 210.00 190.06 210.00 C 190.64 210.00 190.84 210.45 190.50 211.00 C 190.16 211.55 189.68 212.00 189.44 212.00 C 189.20 212.00 189.00 211.55 189.00 211.00 Z M 158.50 210.00 C 158.84 209.45 159.32 209.00 159.56 209.00 C 159.80 209.00 160.00 209.45 160.00 210.00 C 160.00 210.55 159.52 211.00 158.94 211.00 C 158.36 211.00 158.16 210.55 158.50 210.00 Z M 162.81 210.32 C 163.53 210.03 164.40 210.06 164.73 210.40 C 165.06 210.73 164.47 210.96 163.42 210.92 C 162.25 210.87 162.01 210.64 162.81 210.32 Z M 166.50 210.00 C 166.16 209.45 166.36 209.00 166.94 209.00 C 167.52 209.00 168.00 209.45 168.00 210.00 C 168.00 210.55 167.80 211.00 167.56 211.00 C 167.32 211.00 166.84 210.55 166.50 210.00 Z M 108.55 206.00 C 108.28 204.62 107.79 183.36 107.47 158.75 L 106.88 114.00 L 110.69 113.95 C 141.62 113.56 164.68 112.65 165.50 111.80 C 166.18 111.10 165.75 111.00 164.12 111.49 C 162.74 111.92 161.99 111.83 162.32 111.29 C 162.99 110.21 152.39 110.37 149.74 111.48 C 148.77 111.89 147.40 111.75 146.70 111.17 C 145.90 110.50 144.89 110.46 143.97 111.04 C 142.02 112.27 140.73 112.25 141.50 111.00 C 141.88 110.38 140.16 110.00 137.00 110.00 C 133.84 110.00 132.12 110.38 132.50 111.00 C 132.84 111.55 132.67 112.00 132.12 112.00 C 131.57 112.00 130.84 111.55 130.50 111.00 C 130.16 110.45 129.12 110.01 128.19 110.02 C 126.73 110.03 126.71 110.16 128.00 111.00 C 129.29 111.84 129.27 111.97 127.81 111.98 C 126.88 111.99 125.84 111.55 125.50 111.00 C 124.69 109.70 118.00 109.70 118.00 111.00 C 118.00 111.55 115.72 112.00 112.93 112.00 C 110.15 112.00 107.01 112.46 105.96 113.02 C 104.47 113.82 103.60 113.60 102.04 112.04 L 100.03 110.03 L 102.27 109.53 C 107.20 108.43 156.94 108.32 157.34 109.41 C 157.62 110.16 158.16 110.11 159.07 109.25 C 161.00 107.43 212.44 107.43 211.41 109.25 C 210.85 110.25 210.98 110.25 212.05 109.25 C 213.01 108.36 217.35 108.03 226.95 108.12 C 234.40 108.18 239.60 108.45 238.50 108.72 C 237.40 108.99 236.05 109.56 235.50 109.99 C 234.95 110.41 229.35 110.82 223.05 110.91 C 216.76 110.99 211.40 111.27 211.14 111.52 C 210.89 111.78 210.19 111.59 209.59 111.11 C 208.36 110.12 202.00 110.83 202.00 111.95 C 202.00 112.87 261.60 112.74 262.52 111.82 C 262.89 111.44 262.89 110.63 262.51 110.02 C 262.01 109.21 261.43 109.23 260.38 110.10 C 259.25 111.04 258.40 111.02 256.54 110.02 C 255.21 109.31 253.00 109.02 251.57 109.37 C 245.00 110.98 243.50 111.16 244.92 110.16 C 246.04 109.39 245.70 109.07 243.42 108.73 C 241.82 108.49 246.80 108.28 254.50 108.25 C 262.20 108.22 267.38 108.54 266.00 108.95 L 263.50 109.69 L 266.00 110.21 C 268.33 110.69 268.35 110.74 266.25 110.86 C 265.01 110.94 264.00 111.38 264.00 111.85 C 264.00 112.56 270.77 112.73 275.75 112.15 C 278.02 111.88 277.10 109.00 274.75 109.02 C 272.88 109.03 272.75 109.21 274.00 110.10 C 275.21 110.97 275.08 111.08 273.30 110.69 C 272.09 110.43 270.93 110.72 270.72 111.33 C 270.52 111.95 270.09 111.45 269.77 110.22 C 269.20 108.05 269.39 108.00 278.34 107.92 C 294.37 107.77 300.25 107.91 300.80 108.46 C 301.09 108.76 300.41 109.00 299.29 109.00 C 297.76 109.00 297.25 109.65 297.25 111.57 C 297.25 112.99 296.72 114.68 296.07 115.32 C 295.16 116.23 295.02 115.76 295.45 113.31 C 295.79 111.38 295.54 109.84 294.83 109.40 C 294.05 108.91 293.87 109.21 294.28 110.29 C 294.71 111.42 294.47 111.73 293.45 111.34 C 292.66 111.04 292.26 110.39 292.56 109.90 C 292.87 109.40 291.18 109.05 288.81 109.12 C 286.44 109.18 285.37 109.45 286.44 109.73 C 288.25 110.19 288.21 110.32 285.94 111.66 C 283.56 113.07 283.58 113.09 287.12 112.53 C 293.81 111.47 293.50 110.01 293.50 142.76 C 293.50 159.12 293.73 180.31 294.00 189.85 C 294.27 199.39 294.16 207.40 293.75 207.66 C 293.34 207.91 293.00 207.68 293.00 207.15 C 293.00 206.62 291.31 206.38 289.25 206.62 C 280.85 207.58 204.01 207.47 203.65 206.50 C 203.45 205.95 203.17 194.03 203.04 180.00 C 202.73 147.93 202.31 120.55 202.05 116.00 C 201.89 113.09 201.72 112.84 201.00 114.50 C 200.21 116.34 200.13 116.30 200.05 114.00 C 199.99 112.01 199.77 111.81 199.00 113.00 C 198.14 114.33 198.02 114.33 197.90 113.00 C 197.82 112.17 197.81 111.05 197.86 110.50 C 197.92 109.95 195.94 109.44 193.48 109.38 C 191.02 109.31 189.00 109.63 189.00 110.09 C 189.00 110.56 189.79 110.69 190.75 110.39 C 192.31 109.91 192.30 109.97 190.68 111.01 C 189.22 111.95 188.47 111.83 186.93 110.43 C 185.17 108.84 185.00 108.84 185.00 110.35 C 185.00 111.26 184.50 112.00 183.89 112.00 C 183.28 112.00 183.05 111.33 183.36 110.50 C 183.68 109.68 183.50 109.00 182.97 109.00 C 182.44 109.00 182.00 109.67 182.00 110.50 C 182.00 112.44 180.38 112.44 179.64 110.50 C 179.32 109.68 178.35 109.00 177.47 109.00 C 176.51 109.00 176.17 109.46 176.61 110.17 C 177.09 110.95 176.79 111.13 175.69 110.71 C 174.79 110.37 172.36 110.69 170.28 111.43 L 166.50 112.78 L 173.00 112.75 C 176.57 112.73 183.40 112.78 188.18 112.86 L 196.85 113.00 L 196.93 125.75 C 196.98 132.76 197.26 154.03 197.57 173.00 L 198.13 207.50 L 158.32 207.79 C 136.42 207.94 116.37 208.17 113.77 208.29 C 109.46 208.48 109.00 208.28 108.55 206.00 Z M 200.08 204.42 C 200.13 203.25 200.36 203.01 200.68 203.81 C 200.97 204.53 200.94 205.40 200.60 205.73 C 200.27 206.06 200.04 205.47 200.08 204.42 Z M 200.08 197.42 C 200.13 196.25 200.36 196.01 200.68 196.81 C 200.97 197.53 200.94 198.40 200.60 198.73 C 200.27 199.06 200.04 198.47 200.08 197.42 Z M 200.08 190.42 C 200.13 189.25 200.36 189.01 200.68 189.81 C 200.97 190.53 200.94 191.40 200.60 191.73 C 200.27 192.06 200.04 191.47 200.08 190.42 Z M 199.00 186.06 C 199.00 185.54 199.45 184.84 200.00 184.50 C 200.55 184.16 201.00 184.58 201.00 185.44 C 201.00 186.30 200.55 187.00 200.00 187.00 C 199.45 187.00 199.00 186.58 199.00 186.06 Z M 104.08 176.42 C 104.13 175.25 104.36 175.01 104.68 175.81 C 104.97 176.53 104.94 177.40 104.60 177.73 C 104.27 178.06 104.04 177.47 104.08 176.42 Z M 199.13 161.50 C 199.08 158.13 199.35 157.00 199.95 158.02 C 200.45 158.86 200.48 161.09 200.02 163.02 C 199.23 166.37 199.20 166.32 199.13 161.50 Z M 104.67 158.33 C 104.30 157.97 104.00 157.20 104.00 156.63 C 104.00 156.01 104.47 156.07 105.18 156.78 C 105.83 157.43 106.13 158.20 105.85 158.48 C 105.57 158.77 105.03 158.70 104.67 158.33 Z M 199.00 153.50 C 199.00 152.68 199.45 152.00 200.00 152.00 C 200.55 152.00 201.00 152.68 201.00 153.50 C 201.00 154.32 200.55 155.00 200.00 155.00 C 199.45 155.00 199.00 154.32 199.00 153.50 Z M 104.00 143.94 C 104.00 143.36 104.45 143.16 105.00 143.50 C 105.55 143.84 106.00 144.32 106.00 144.56 C 106.00 144.80 105.55 145.00 105.00 145.00 C 104.45 145.00 104.00 144.52 104.00 143.94 Z M 295.43 141.00 C 295.43 139.90 295.78 139.00 296.21 139.00 C 296.65 139.00 297.00 139.90 297.00 141.00 C 297.00 142.10 296.65 143.00 296.21 143.00 C 295.78 143.00 295.43 142.10 295.43 141.00 Z M 295.64 129.50 C 295.32 128.68 295.50 128.00 296.03 128.00 C 296.56 128.00 297.00 128.68 297.00 129.50 C 297.00 130.32 296.82 131.00 296.61 131.00 C 296.39 131.00 295.95 130.32 295.64 129.50 Z M 199.00 125.06 C 199.00 123.44 199.42 121.86 199.93 121.54 C 200.45 121.22 200.78 122.53 200.68 124.48 C 200.46 128.72 199.00 129.22 199.00 125.06 Z M 104.08 123.42 C 104.13 122.25 104.36 122.01 104.68 122.81 C 104.97 123.53 104.94 124.40 104.60 124.73 C 104.27 125.06 104.04 124.47 104.08 123.42 Z M 295.02 121.25 C 295.02 120.84 295.47 119.83 296.00 119.00 C 296.78 117.79 296.97 117.93 296.98 119.75 C 296.99 120.99 296.55 122.00 296.00 122.00 C 295.45 122.00 295.01 121.66 295.02 121.25 Z M 103.71 117.00 C 104.00 115.90 104.41 115.00 104.62 115.00 C 104.83 115.00 105.00 115.90 105.00 117.00 C 105.00 118.10 104.59 119.00 104.09 119.00 C 103.60 119.00 103.42 118.10 103.71 117.00 Z M 22.81 113.32 C 23.53 113.03 24.40 113.06 24.73 113.40 C 25.06 113.73 24.47 113.96 23.42 113.92 C 22.25 113.87 22.01 113.64 22.81 113.32 Z M 33.50 113.00 C 33.84 112.45 34.32 112.00 34.56 112.00 C 34.80 112.00 35.00 112.45 35.00 113.00 C 35.00 113.55 34.52 114.00 33.94 114.00 C 33.36 114.00 33.16 113.55 33.50 113.00 Z M 281.75 112.37 C 284.58 111.61 284.64 110.34 281.88 109.46 C 280.54 109.04 279.43 109.29 278.89 110.14 C 277.12 112.94 277.76 113.44 281.75 112.37 Z M 120.81 111.32 C 121.53 111.03 122.40 111.06 122.73 111.40 C 123.06 111.73 122.47 111.96 121.42 111.92 C 120.25 111.87 120.01 111.64 120.81 111.32 Z M 169.00 110.56 C 169.00 109.50 167.08 109.06 166.51 109.98 C 166.16 110.54 166.58 111.00 167.44 111.00 C 168.30 111.00 169.00 110.80 169.00 110.56 Z M 238.27 110.31 C 239.24 110.05 240.59 110.07 241.27 110.34 C 241.95 110.62 241.15 110.83 239.50 110.81 C 237.85 110.78 237.30 110.56 238.27 110.31 Z M 251.75 110.34 C 252.44 110.06 253.56 110.06 254.25 110.34 C 254.94 110.62 254.38 110.84 253.00 110.84 C 251.62 110.84 251.06 110.62 251.75 110.34 Z M 304.00 110.00 C 302.71 109.16 302.73 109.03 304.19 109.02 C 305.12 109.01 306.16 109.45 306.50 110.00 C 307.28 111.27 305.96 111.27 304.00 110.00 Z M 11.75 109.36 C 11.47 108.88 11.14 92.53 11.00 73.00 C 10.86 53.48 10.66 32.53 10.55 26.46 L 10.34 15.41 L 15.92 15.34 C 33.50 15.10 89.35 13.78 94.09 13.49 L 99.69 13.15 L 100.34 35.74 C 100.70 48.16 101.00 69.49 101.00 83.14 L 101.00 107.96 L 98.75 108.39 C 97.51 108.63 95.60 108.79 94.50 108.75 C 93.40 108.71 74.44 109.02 52.37 109.44 C 30.26 109.87 12.02 109.83 11.75 109.36 Z M 301.00 84.17 C 301.00 63.05 300.81 60.14 299.39 59.60 C 298.08 59.09 298.01 58.69 299.01 57.49 C 299.90 56.41 299.93 56.00 299.09 56.00 C 298.46 56.00 297.53 57.01 297.03 58.25 C 296.53 59.49 296.06 60.27 295.99 60.00 C 294.87 55.92 295.14 55.12 297.77 54.81 L 300.50 54.50 L 301.00 31.83 C 301.27 19.36 301.90 8.79 302.40 8.33 C 302.92 7.85 303.07 8.41 302.76 9.67 L 302.23 11.84 L 344.68 11.44 C 368.03 11.22 387.56 10.77 388.08 10.45 C 388.61 10.13 388.77 9.44 388.46 8.93 C 388.14 8.42 388.35 8.00 388.92 8.00 C 390.18 8.00 390.94 103.92 389.69 104.69 C 388.58 105.38 373.20 105.87 335.24 106.42 C 317.50 106.68 302.54 107.17 301.99 107.50 C 301.35 107.90 301.00 99.79 301.00 84.17 Z M 30.40 102.30 C 40.72 98.01 48.05 92.57 52.09 86.20 L 54.87 81.81 L 57.35 86.66 C 60.48 92.77 66.59 98.74 71.05 100.01 C 72.94 100.56 78.69 101.00 83.82 101.00 L 93.16 101.00 L 92.48 97.75 C 91.17 91.45 86.74 79.44 83.83 74.27 C 80.92 69.11 74.68 63.00 72.33 63.00 C 69.47 63.00 70.22 60.93 73.74 59.13 C 75.83 58.06 79.63 54.97 82.17 52.25 C 88.20 45.81 89.70 39.81 88.40 27.27 C 87.33 16.89 87.73 17.02 75.26 23.08 C 65.61 27.77 58.38 33.59 55.30 39.15 L 53.10 43.12 L 51.01 39.02 C 48.66 34.41 42.68 27.43 39.73 25.86 C 36.69 24.23 26.51 23.09 20.54 23.71 L 15.10 24.27 L 15.70 27.38 C 16.03 29.10 17.08 32.98 18.04 36.00 C 22.49 50.08 27.82 58.26 34.62 61.49 L 38.23 63.20 L 33.23 66.05 C 27.20 69.50 21.35 76.08 20.00 80.93 C 18.89 84.94 18.67 98.09 19.63 102.90 C 20.34 106.47 20.39 106.47 30.40 102.30 Z M 107.63 102.30 C 107.28 101.95 107.00 99.98 107.00 97.92 L 107.00 94.17 L 119.25 93.75 C 125.99 93.52 168.29 93.25 213.25 93.15 L 295.00 92.97 L 295.00 96.98 L 295.00 101.00 L 264.75 101.04 C 212.43 101.10 116.68 102.00 112.38 102.47 C 110.11 102.72 107.98 102.64 107.63 102.30 Z M 325.55 97.02 C 334.84 92.50 342.01 86.60 344.44 81.49 L 346.13 77.93 L 349.13 83.95 C 354.50 94.69 360.68 98.00 375.37 98.00 C 385.48 98.00 385.34 98.24 381.89 86.61 C 377.97 73.45 372.97 65.21 366.36 61.01 L 362.03 58.27 L 367.76 54.72 C 374.14 50.78 377.40 46.94 379.56 40.84 C 381.04 36.64 381.45 25.37 380.37 18.80 L 379.76 15.11 L 373.63 17.42 C 361.46 22.02 349.97 30.45 346.26 37.50 L 344.68 40.50 L 343.59 37.32 C 342.99 35.56 341.03 32.05 339.22 29.50 C 334.66 23.05 329.25 20.81 316.75 20.21 C 305.55 19.66 305.97 19.18 308.57 29.36 C 311.09 39.27 317.38 51.31 322.16 55.41 C 324.47 57.38 326.95 59.00 327.68 59.00 C 330.22 59.00 328.96 60.52 324.42 62.93 C 319.34 65.63 313.49 71.81 311.38 76.72 C 310.48 78.82 310.00 83.81 310.00 91.08 L 310.00 102.22 L 313.75 101.58 C 315.81 101.22 321.12 99.17 325.55 97.02 Z M 25.00 90.67 C 25.00 87.07 25.40 83.09 25.89 81.82 C 28.10 76.09 40.22 67.69 47.50 66.85 L 50.50 66.50 L 50.17 71.48 C 49.76 77.59 47.75 82.60 44.20 86.34 C 41.14 89.55 31.16 95.67 27.46 96.60 C 25.03 97.21 25.00 97.13 25.00 90.67 Z M 72.04 93.69 C 70.04 93.00 67.26 90.75 65.41 88.33 C 61.94 83.77 58.00 73.32 58.00 68.69 C 58.00 65.78 58.01 65.77 62.74 66.48 C 68.80 67.39 72.07 69.11 75.54 73.21 C 78.77 77.03 83.66 87.04 84.60 91.75 L 85.25 95.00 L 80.38 94.94 C 77.69 94.91 73.94 94.35 72.04 93.69 Z M 315.88 92.33 C 315.49 86.64 316.41 79.15 317.77 76.82 C 320.23 72.63 327.89 67.39 334.92 65.10 C 338.44 63.94 341.54 63.00 341.80 63.00 C 342.99 63.00 340.98 75.41 339.26 78.76 C 337.14 82.87 327.68 90.12 322.00 91.98 C 320.07 92.61 317.94 93.36 317.25 93.65 C 316.53 93.95 315.95 93.38 315.88 92.33 Z M 364.09 90.62 C 357.62 88.28 351.55 78.58 350.40 68.75 C 349.61 62.06 349.94 61.90 358.93 64.57 C 364.44 66.21 367.87 69.10 370.59 74.40 C 372.60 78.29 377.00 89.72 377.00 91.02 C 377.00 92.38 368.21 92.11 364.09 90.62 Z M 107.00 85.28 L 107.00 80.29 L 114.25 79.68 C 118.24 79.34 146.93 79.05 178.00 79.04 C 209.07 79.02 248.00 78.89 264.50 78.75 L 294.50 78.50 L 294.80 83.75 L 295.10 89.00 L 220.30 89.02 C 179.16 89.03 136.84 89.31 126.25 89.66 L 107.00 90.28 L 107.00 85.28 Z M 106.75 72.38 C 106.48 70.24 106.61 68.11 107.04 67.64 C 107.47 67.16 149.94 66.53 201.41 66.24 L 295.00 65.70 L 295.00 69.74 C 295.00 73.51 294.79 73.81 291.75 74.34 C 289.96 74.65 250.93 74.93 205.00 74.96 C 159.07 74.99 118.29 75.30 114.37 75.64 L 107.25 76.25 L 106.75 72.38 Z M 270.00 72.56 C 270.00 72.32 269.55 71.84 269.00 71.50 C 268.45 71.16 268.00 71.36 268.00 71.94 C 268.00 72.52 268.45 73.00 269.00 73.00 C 269.55 73.00 270.00 72.80 270.00 72.56 Z M 8.00 67.94 C 8.00 67.36 8.45 67.16 9.00 67.50 C 9.55 67.84 10.00 68.32 10.00 68.56 C 10.00 68.80 9.55 69.00 9.00 69.00 C 8.45 69.00 8.00 68.52 8.00 67.94 Z M 106.00 58.89 C 106.00 57.43 105.54 56.96 104.50 57.36 C 103.67 57.68 103.00 57.54 103.00 57.05 C 103.00 55.58 117.18 55.29 117.74 56.75 C 118.89 59.77 117.10 61.00 111.53 61.00 C 106.57 61.00 106.00 60.78 106.00 58.89 Z M 129.00 58.14 L 129.00 55.00 L 162.75 55.00 L 196.50 55.00 L 196.50 57.50 L 196.50 60.00 L 167.39 60.00 C 151.38 60.00 136.19 60.29 133.64 60.64 L 129.00 61.27 L 129.00 58.14 Z M 198.00 58.59 C 198.00 57.68 198.70 57.37 200.00 57.71 C 201.20 58.02 202.00 57.74 202.00 57.01 C 202.00 56.33 201.33 56.04 200.50 56.36 C 199.68 56.68 199.00 56.50 199.00 55.97 C 199.00 55.36 212.27 55.00 234.50 55.00 L 270.00 55.00 L 270.00 57.50 L 270.00 60.00 L 234.00 60.00 C 203.73 60.00 198.00 59.78 198.00 58.59 Z M 281.18 57.34 C 281.48 54.88 281.90 54.65 286.58 54.42 C 292.66 54.12 294.12 54.84 293.35 57.79 C 292.83 59.76 292.12 60.00 286.82 60.00 C 280.96 60.00 280.87 59.96 281.18 57.34 Z M 41.57 57.37 C 38.70 56.64 35.41 54.86 33.47 52.98 C 29.94 49.55 24.53 38.68 23.49 32.94 L 22.85 29.38 L 29.40 30.06 C 33.00 30.43 37.02 31.44 38.32 32.29 C 41.90 34.64 46.71 42.79 48.45 49.47 C 51.11 59.67 51.01 59.78 41.57 57.37 Z M 57.76 56.81 C 57.19 55.34 58.35 46.83 59.56 43.50 C 61.17 39.11 70.10 31.82 78.30 28.23 C 82.70 26.30 83.00 26.62 82.98 33.25 C 82.94 43.81 79.25 49.32 68.49 54.88 C 62.94 57.75 58.43 58.56 57.76 56.81 Z M 8.00 51.50 C 8.00 49.02 7.97 46.67 7.92 46.27 C 7.88 45.88 8.22 45.43 8.68 45.28 C 9.13 45.12 9.55 47.48 9.62 50.50 C 9.68 53.53 9.34 56.00 8.87 56.00 C 8.39 56.00 8.00 53.98 8.00 51.50 Z M 335.72 54.91 C 328.11 53.12 324.15 49.96 320.14 42.50 C 317.51 37.60 313.81 26.86 314.51 26.16 C 314.79 25.88 318.21 26.14 322.11 26.75 C 329.95 27.96 332.56 29.73 336.55 36.51 C 338.62 40.02 341.94 51.19 341.99 54.75 C 342.00 56.16 341.12 56.18 335.72 54.91 Z M 349.01 52.25 C 349.02 50.74 349.67 47.02 350.46 44.00 C 351.58 39.73 352.89 37.60 356.31 34.46 C 360.56 30.57 371.60 24.00 373.89 24.00 C 375.50 24.00 375.30 36.35 373.63 40.34 C 371.76 44.82 365.08 50.31 358.38 52.87 C 350.75 55.79 349.00 55.68 349.01 52.25 Z M 106.55 49.22 C 105.45 48.11 106.02 40.93 107.25 40.51 C 107.94 40.27 150.46 39.95 201.75 39.79 L 295.00 39.50 L 295.00 43.75 C 295.00 46.09 294.89 48.03 294.75 48.06 C 294.61 48.09 256.25 48.32 209.50 48.57 C 162.75 48.81 120.59 49.19 115.80 49.40 C 111.02 49.60 106.86 49.52 106.55 49.22 Z M 8.00 41.56 C 8.00 40.70 8.45 40.00 9.00 40.00 C 9.55 40.00 10.00 40.42 10.00 40.94 C 10.00 41.46 9.55 42.16 9.00 42.50 C 8.45 42.84 8.00 42.42 8.00 41.56 Z M 392.08 39.42 C 392.13 38.25 392.36 38.01 392.68 38.81 C 392.97 39.53 392.94 40.40 392.60 40.73 C 392.27 41.06 392.04 40.47 392.08 39.42 Z M 106.47 36.14 C 106.21 35.88 106.00 33.49 106.00 30.83 L 106.00 26.00 L 133.75 25.96 C 149.01 25.93 191.56 25.66 228.31 25.36 L 295.11 24.81 L 294.81 30.14 L 294.50 35.47 L 204.00 35.75 C 154.22 35.90 112.02 36.16 110.22 36.32 C 108.42 36.48 106.73 36.39 106.47 36.14 Z M 7.71 33.99 C 7.35 32.64 7.49 31.11 8.02 30.58 C 9.58 29.02 10.27 30.69 9.28 33.66 L 8.35 36.45 L 7.71 33.99 Z M 7.71 21.00 C 7.42 19.90 7.60 19.00 8.09 19.00 C 8.59 19.00 9.00 19.90 9.00 21.00 C 9.00 22.10 8.83 23.00 8.62 23.00 C 8.41 23.00 8.00 22.10 7.71 21.00 Z M 106.00 18.15 L 106.00 14.14 L 121.25 13.79 C 129.64 13.60 172.16 13.33 215.75 13.19 L 295.00 12.94 L 295.00 16.97 L 295.00 21.00 L 279.25 21.05 C 270.59 21.08 228.06 21.35 184.75 21.63 L 106.00 22.16 L 106.00 18.15 Z M 391.50 20.00 C 391.84 19.45 392.32 19.00 392.56 19.00 C 392.80 19.00 393.00 19.45 393.00 20.00 C 393.00 20.55 392.52 21.00 391.94 21.00 C 391.36 21.00 391.16 20.55 391.50 20.00 Z M 80.25 10.92 C 81.44 10.23 82.56 10.23 83.75 10.92 C 85.18 11.75 84.86 11.94 82.00 11.94 C 79.14 11.94 78.82 11.75 80.25 10.92 Z M 98.00 11.00 C 98.00 10.45 98.48 10.00 99.06 10.00 C 99.64 10.00 99.84 10.45 99.50 11.00 C 99.16 11.55 98.68 12.00 98.44 12.00 C 98.20 12.00 98.00 11.55 98.00 11.00 Z M 319.50 9.00 C 319.16 8.45 319.36 8.00 319.94 8.00 C 320.52 8.00 321.00 8.45 321.00 9.00 C 321.00 9.55 320.80 10.00 320.56 10.00 C 320.32 10.00 319.84 9.55 319.50 9.00 Z M 329.50 9.00 C 327.57 8.17 327.58 8.14 329.69 8.07 C 330.90 8.03 332.16 8.45 332.50 9.00 C 333.23 10.18 332.25 10.18 329.50 9.00 Z M 334.00 8.94 C 334.00 8.36 334.45 8.16 335.00 8.50 C 335.55 8.84 336.00 9.32 336.00 9.56 C 336.00 9.80 335.55 10.00 335.00 10.00 C 334.45 10.00 334.00 9.52 334.00 8.94 Z M 357.00 9.03 C 357.00 8.50 357.68 8.32 358.50 8.64 C 359.32 8.95 360.00 9.39 360.00 9.61 C 360.00 9.82 359.32 10.00 358.50 10.00 C 357.68 10.00 357.00 9.56 357.00 9.03 Z M 351.50 8.00 C 351.16 7.45 351.33 7.00 351.88 7.00 C 352.43 7.00 353.16 7.45 353.50 8.00 C 353.84 8.55 353.67 9.00 353.12 9.00 C 352.57 9.00 351.84 8.55 351.50 8.00 Z M 373.00 7.94 C 373.00 7.36 373.45 7.16 374.00 7.50 C 374.55 7.84 375.00 8.32 375.00 8.56 C 375.00 8.80 374.55 9.00 374.00 9.00 C 373.45 9.00 373.00 8.52 373.00 7.94 Z M 380.00 7.94 C 380.00 7.36 380.45 7.16 381.00 7.50 C 381.55 7.84 382.00 8.32 382.00 8.56 C 382.00 8.80 381.55 9.00 381.00 9.00 C 380.45 9.00 380.00 8.52 380.00 7.94 Z" fill="none" stroke="rgba(255,255,255,0.92)" stroke-width="1.5" stroke-linejoin="round" fill-rule="evenodd"/>
</svg>
