<svg xmlns="http://www.w3.org/2000/svg" viewBox="0 0 100 100" width="100" height="100">
  <path d="M 0.00 50.00 L 0.00 0.00 L 50.00 0.00 L 100.00 0.00 L 100.00 50.00 L 100.00 100.00 L 50.00 100.00 L 0.00 100.00 L 0.00 50.00 Z M 96.00 94.34 C 96.00 92.81 92.55 92.73 51.50 93.33 L 7.00 93.97 L 7.00 89.99 L 7.00 86.00 L 27.75 85.81 C 39.16 85.71 49.62 85.54 51.00 85.45 C 52.38 85.35 63.06 85.21 74.75 85.13 C 93.10 85.02 96.00 84.79 96.00 83.47 C 96.00 82.12 90.90 81.97 51.50 82.22 L 7.00 82.50 L 7.00 77.75 L 7.00 73.00 L 26.25 72.81 C 36.84 72.71 48.20 72.55 51.50 72.46 C 54.80 72.37 66.16 72.23 76.75 72.15 C 93.40 72.02 96.00 71.79 96.00 70.45 C 96.00 69.07 91.14 68.94 51.58 69.20 L 7.16 69.50 L 6.72 66.00 C 6.48 64.08 6.48 62.27 6.72 62.00 C 6.97 61.73 27.15 61.35 51.58 61.18 L 96.00 60.85 L 96.00 57.84 L 96.00 54.84 L 62.50 55.17 L 29.00 55.50 L 29.00 53.25 L 29.00 51.00 L 47.34 51.00 C 57.43 51.00 72.50 50.70 80.84 50.34 C 95.94 49.69 96.00 49.68 96.00 47.32 L 96.00 44.94 L 51.25 45.04 L 6.50 45.13 L 6.18 41.94 C 6.00 40.18 6.22 38.39 6.68 37.96 C 7.13 37.53 25.42 37.03 47.33 36.84 C 93.61 36.45 96.00 36.32 96.00 34.38 C 96.00 33.18 89.25 32.97 51.25 33.03 L 6.50 33.09 L 6.20 28.55 L 5.89 24.00 L 15.70 23.93 C 21.09 23.90 40.35 23.66 58.50 23.41 C 76.65 23.16 92.51 22.96 93.75 22.98 C 95.09 22.99 96.00 22.40 96.00 21.50 C 96.00 20.19 90.33 20.00 51.00 20.00 L 6.00 20.00 L 6.00 16.66 L 6.00 13.32 L 25.66 12.66 C 36.47 12.30 56.75 12.00 70.73 12.00 L 96.13 12.00 L 95.82 9.25 L 95.50 6.50 L 63.50 6.50 C 45.90 6.50 25.31 6.64 17.75 6.80 L 4.00 7.11 L 4.00 29.30 L 4.00 51.50 L 11.08 51.16 C 18.01 50.84 18.15 50.88 17.83 53.16 C 17.53 55.26 16.91 55.53 11.75 55.80 C 6.47 56.08 6.00 55.93 6.00 53.99 C 6.00 52.83 5.55 52.16 5.00 52.50 C 4.38 52.88 4.00 61.34 4.00 74.56 L 4.00 96.00 L 50.00 96.00 C 92.19 96.00 96.00 95.86 96.00 94.34 Z" fill="none" stroke="rgba(255,255,255,0.92)" stroke-width="1.2" stroke-linejoin="round" fill-rule="evenodd"/>
</svg>
