<svg xmlns="http://www.w3.org/2000/svg" viewBox="0 0 100 100" width="100" height="100">
  <path d="M 0.00 50.00 L 0.00 0.00 L 50.00 0.00 L 100.00 0.00 L 100.00 50.00 L 100.00 100.00 L 50.00 100.00 L 0.00 100.00 L 0.00 50.00 Z M 7.00 95.00 C 7.00 94.39 11.70 94.00 19.09 94.00 C 49.26 94.00 72.12 83.65 80.75 66.10 C 83.39 60.73 83.50 59.86 83.50 45.25 L 83.50 30.00 L 89.75 30.00 L 96.00 30.00 L 96.00 18.23 L 96.00 6.45 L 50.00 6.48 L 4.00 6.50 L 4.00 18.25 L 4.00 30.00 L 40.48 30.00 L 76.96 30.00 L 77.58 32.48 C 77.93 33.84 78.03 40.48 77.82 47.23 C 77.49 57.38 77.05 60.21 75.26 63.62 C 70.13 73.38 60.92 80.35 47.57 84.60 C 40.59 86.83 37.10 87.25 21.72 87.72 L 3.93 88.27 L 4.16 92.14 C 4.30 94.53 4.89 96.00 5.70 96.00 C 6.41 96.00 7.00 95.55 7.00 95.00 Z" fill="none" stroke="rgba(255,255,255,0.92)" stroke-width="1.2" stroke-linejoin="round" fill-rule="evenodd"/>
</svg>
