<svg xmlns="http://www.w3.org/2000/svg" viewBox="0 0 100 100" width="100" height="100">
  <path d="M 0.00 50.00 L 0.00 0.00 L 50.00 0.00 L 100.00 0.00 L 100.00 50.00 L 100.00 100.00 L 50.00 100.00 L 0.00 100.00 L 0.00 50.00 Z M 87.19 50.50 C 86.86 17.05 87.04 5.00 87.87 5.00 C 88.49 5.00 89.05 6.24 89.11 7.75 C 89.72 23.58 89.92 36.08 89.97 62.20 C 90.00 79.09 90.29 93.60 90.62 94.45 C 90.95 95.30 92.34 96.00 93.72 96.00 L 96.23 96.00 L 95.65 61.25 C 95.34 42.14 95.06 21.45 95.04 15.29 L 95.00 4.07 L 89.75 4.44 C 86.86 4.64 81.12 5.79 77.00 6.98 C 68.35 9.48 49.00 10.97 49.00 9.13 C 49.00 7.67 37.80 7.60 36.35 9.05 C 35.70 9.70 29.31 10.08 19.65 10.06 L 4.00 10.02 L 4.00 13.01 L 4.00 16.00 L 31.00 16.00 L 58.00 16.00 L 58.01 21.75 C 58.01 24.91 58.30 39.99 58.66 55.25 L 59.32 83.00 L 31.66 83.00 L 4.00 83.00 L 4.00 86.00 L 4.00 89.00 L 20.45 89.00 C 34.88 89.00 37.02 89.21 37.85 90.70 C 39.06 92.86 49.05 92.63 50.30 90.42 C 51.56 88.18 60.78 88.69 71.21 91.57 C 76.32 92.98 81.40 94.52 82.50 95.00 C 87.95 97.36 87.68 99.87 87.19 50.50 Z M 71.90 85.80 L 65.30 83.80 L 64.65 70.24 C 64.29 62.78 64.00 47.57 64.00 36.42 L 64.00 16.17 L 68.75 15.16 C 71.36 14.61 75.19 13.85 77.25 13.47 L 81.00 12.78 L 81.00 39.14 C 81.01 53.64 81.30 70.56 81.66 76.75 C 82.41 89.75 83.04 89.17 71.90 85.80 Z M 92.03 84.08 C 92.01 81.65 92.31 79.98 92.69 80.36 C 93.87 81.54 94.06 85.07 93.04 86.83 C 92.30 88.10 92.05 87.44 92.03 84.08 Z M 92.06 68.75 C 92.03 64.49 92.38 61.00 92.85 61.00 C 94.05 61.00 94.23 71.24 93.08 74.11 C 92.35 75.95 92.11 74.73 92.06 68.75 Z M 92.62 59.19 C 92.35 58.75 92.26 56.50 92.42 54.19 C 92.58 51.89 92.33 50.00 91.86 50.00 C 91.39 50.00 91.00 49.27 91.00 48.38 C 91.00 47.12 91.31 47.01 92.37 47.89 C 93.21 48.59 93.76 51.14 93.79 54.51 C 93.83 59.90 93.61 60.80 92.62 59.19 Z M 92.08 37.42 C 92.13 36.25 92.36 36.01 92.68 36.81 C 92.97 37.53 92.94 38.40 92.60 38.73 C 92.27 39.06 92.04 38.47 92.08 37.42 Z M 91.50 33.00 C 91.84 32.45 92.32 32.00 92.56 32.00 C 92.80 32.00 93.00 32.45 93.00 33.00 C 93.00 33.55 92.52 34.00 91.94 34.00 C 91.36 34.00 91.16 33.55 91.50 33.00 Z M 91.00 27.00 C 91.00 26.45 91.48 26.00 92.06 26.00 C 92.64 26.00 92.84 26.45 92.50 27.00 C 92.16 27.55 91.68 28.00 91.44 28.00 C 91.20 28.00 91.00 27.55 91.00 27.00 Z M 91.00 14.06 C 91.00 12.93 91.45 12.00 92.00 12.00 C 92.55 12.00 93.00 12.65 93.00 13.44 C 93.00 14.23 92.55 15.16 92.00 15.50 C 91.45 15.84 91.00 15.19 91.00 14.06 Z M 91.00 7.00 C 91.00 6.45 91.45 6.00 92.00 6.00 C 92.55 6.00 93.00 6.45 93.00 7.00 C 93.00 7.55 92.55 8.00 92.00 8.00 C 91.45 8.00 91.00 7.55 91.00 7.00 Z M 81.71 4.62 C 82.05 4.28 64.71 4.00 43.17 4.00 C 21.63 4.00 4.00 4.34 4.00 4.75 C 4.00 5.64 80.82 5.51 81.71 4.62 Z" fill="none" stroke="rgba(255,255,255,0.92)" stroke-width="1.2" stroke-linejoin="round" fill-rule="evenodd"/>
</svg>
