<svg xmlns="http://www.w3.org/2000/svg" viewBox="0 0 100 100" width="100" height="100">
  <path d="M 0.00 50.00 L 0.00 0.00 L 50.00 0.00 L 100.00 0.00 L 100.00 50.00 L 100.00 100.00 L 50.00 100.00 L 0.00 100.00 L 0.00 50.00 Z M 5.77 50.74 L 5.50 5.49 L 44.39 5.49 C 65.78 5.50 85.80 5.23 88.89 4.90 C 91.98 4.57 74.14 4.23 49.25 4.15 L 4.00 4.00 L 4.00 50.00 C 4.00 80.69 4.34 96.00 5.02 96.00 C 5.71 96.00 5.96 81.10 5.77 50.74 Z M 95.69 92.27 C 95.44 91.30 95.22 91.85 95.19 93.50 C 95.17 95.15 95.38 95.95 95.66 95.27 C 95.93 94.59 95.95 93.24 95.69 92.27 Z M 37.15 90.76 C 37.75 89.79 44.71 89.50 66.96 89.50 L 96.00 89.50 L 96.00 86.19 L 96.00 82.89 L 56.75 83.06 C 35.16 83.16 16.77 83.19 15.88 83.12 C 14.44 83.01 14.25 79.58 14.07 50.00 C 13.86 13.49 13.23 17.03 20.00 16.55 C 21.38 16.46 39.04 16.29 59.25 16.19 L 96.00 16.00 L 95.84 9.75 C 95.75 6.30 95.50 4.96 95.28 6.75 L 94.87 10.00 L 88.69 10.03 C 56.95 10.21 36.45 9.80 36.17 8.97 C 35.66 7.49 24.03 7.75 23.46 9.25 C 23.15 10.04 20.55 10.58 16.35 10.72 C 12.70 10.85 9.61 11.07 9.47 11.22 C 9.02 11.72 8.71 37.91 8.86 64.03 L 9.00 89.57 L 16.06 89.17 C 22.31 88.81 23.18 88.98 23.61 90.63 C 24.03 92.24 24.97 92.47 30.24 92.26 C 33.85 92.12 36.69 91.50 37.15 90.76 Z" fill="none" stroke="rgba(255,255,255,0.92)" stroke-width="1.2" stroke-linejoin="round" fill-rule="evenodd"/>
</svg>
