<svg xmlns="http://www.w3.org/2000/svg" viewBox="0 0 100 100" width="100" height="100">
  <path d="M 0.00 50.00 L 0.00 0.00 L 50.00 0.00 L 100.00 0.00 L 100.00 50.00 L 100.00 100.00 L 50.00 100.00 L 0.00 100.00 L 0.00 50.00 Z M 55.28 93.39 C 91.13 92.74 94.01 92.81 93.42 94.34 C 93.07 95.26 93.24 96.00 93.79 96.00 C 95.02 96.00 96.00 93.59 96.00 90.54 C 96.00 88.76 95.27 88.10 92.75 87.57 C 89.84 86.95 26.18 87.73 20.00 88.45 C 18.62 88.61 14.46 88.80 10.75 88.87 L 4.00 89.00 L 4.00 92.29 L 4.00 95.57 L 10.25 94.84 C 13.69 94.43 33.95 93.78 55.28 93.39 Z M 88.75 22.37 L 96.00 21.77 L 96.00 13.75 L 96.00 5.72 L 56.75 6.48 C 35.16 6.90 14.58 7.30 11.00 7.37 C 5.07 7.49 4.47 7.70 4.18 9.75 C 3.93 11.52 4.23 11.85 5.60 11.33 C 6.71 10.90 7.09 11.05 6.66 11.74 C 6.24 12.42 6.72 12.62 7.99 12.29 C 9.08 12.01 9.68 11.30 9.32 10.72 C 8.89 10.01 9.30 9.95 10.59 10.53 C 11.64 11.01 22.17 11.42 34.00 11.45 C 50.69 11.49 55.44 11.22 55.25 10.25 C 55.08 9.39 56.33 9.04 59.25 9.13 L 63.50 9.26 L 60.00 9.89 C 55.05 10.77 57.52 11.81 63.50 11.35 C 66.25 11.15 71.76 10.93 75.75 10.87 C 79.88 10.81 83.00 10.33 83.00 9.76 C 83.00 9.19 83.66 9.30 84.51 10.01 C 85.43 10.77 87.39 11.04 89.51 10.69 C 92.81 10.16 93.00 10.28 93.00 12.95 C 93.00 15.35 92.51 15.87 89.75 16.36 C 82.29 17.71 36.25 19.21 20.75 18.62 L 4.00 17.98 L 4.00 21.12 L 4.00 24.27 L 42.75 23.62 C 64.06 23.26 84.76 22.70 88.75 22.37 Z M 39.00 10.00 C 39.00 9.45 39.48 9.00 40.06 9.00 C 40.64 9.00 40.84 9.45 40.50 10.00 C 40.16 10.55 39.68 11.00 39.44 11.00 C 39.20 11.00 39.00 10.55 39.00 10.00 Z M 48.81 9.32 C 49.53 9.03 50.40 9.06 50.73 9.40 C 51.06 9.73 50.47 9.96 49.42 9.92 C 48.25 9.87 48.01 9.64 48.81 9.32 Z" fill="none" stroke="rgba(255,255,255,0.92)" stroke-width="1.2" stroke-linejoin="round" fill-rule="evenodd"/>
</svg>
