<svg xmlns="http://www.w3.org/2000/svg" viewBox="0 0 100 100" width="100" height="100">
  <path d="M 0.00 50.00 L 0.00 0.00 L 50.00 0.00 L 100.00 0.00 L 100.00 50.00 L 100.00 100.00 L 50.00 100.00 L 0.00 100.00 L 0.00 50.00 Z M 49.00 95.08 C 49.00 93.59 84.86 61.00 86.50 61.00 C 87.78 61.00 88.00 63.62 88.00 78.50 L 88.00 96.00 L 90.50 96.00 C 93.27 96.00 93.25 96.17 93.07 70.00 C 93.02 62.82 93.43 59.70 94.74 57.24 C 96.28 54.32 96.31 53.74 94.98 51.74 C 93.81 49.97 93.43 44.83 93.18 27.13 L 92.86 4.77 L 51.18 5.35 C 28.26 5.67 8.27 5.95 6.76 5.97 C 4.48 5.99 4.07 6.39 4.36 8.25 C 4.70 10.49 4.77 10.50 22.50 10.38 C 32.29 10.31 39.67 10.59 38.90 11.00 C 37.74 11.61 9.23 15.00 5.21 15.00 C 4.52 15.00 4.00 16.35 4.00 18.11 C 4.00 21.07 4.15 21.19 7.25 20.64 C 9.04 20.32 15.65 19.55 21.95 18.94 C 28.25 18.32 35.60 17.47 38.29 17.04 L 43.19 16.27 L 42.67 19.88 C 40.38 36.03 39.78 53.12 40.88 71.15 C 41.52 81.68 41.92 90.40 41.77 90.54 C 41.62 90.68 34.08 90.19 25.00 89.44 C 2.43 87.58 4.00 87.47 4.00 90.90 L 4.00 93.81 L 14.75 94.46 C 20.66 94.82 26.18 95.26 27.00 95.44 C 30.56 96.22 49.00 95.92 49.00 95.08 Z M 47.66 86.27 C 45.46 72.54 46.16 25.97 48.65 19.46 C 49.10 18.29 53.40 21.96 65.34 33.69 L 81.42 49.50 L 81.46 54.36 L 81.50 59.22 L 69.00 70.80 C 62.12 77.17 54.65 84.13 52.39 86.26 L 48.28 90.14 L 47.66 86.27 Z M 67.67 30.91 C 57.95 21.51 50.00 13.24 50.00 12.53 C 50.00 10.86 52.48 8.81 53.40 9.73 C 54.05 10.38 71.91 10.33 83.15 9.64 L 87.81 9.36 L 87.83 28.68 C 87.84 43.51 87.55 48.00 86.59 48.00 C 85.90 48.00 77.39 40.31 67.67 30.91 Z" fill="none" stroke="rgba(255,255,255,0.92)" stroke-width="1.2" stroke-linejoin="round" fill-rule="evenodd"/>
</svg>
