<svg xmlns="http://www.w3.org/2000/svg" viewBox="0 0 400 292" width="400" height="292">
  <path d="M 0.00 146.00 L 0.00 0.00 L 200.00 0.00 L 400.00 0.00 L 400.00 146.00 L 400.00 292.00 L 200.00 292.00 L 0.00 292.00 L 0.00 146.00 Z M 50.75 285.99 C 51.44 286.00 52.56 286.07 53.25 286.16 C 53.94 286.25 56.19 286.01 58.25 285.62 C 60.75 285.15 62.00 285.28 62.00 286.01 C 62.00 286.62 62.53 286.79 63.18 286.39 C 63.83 285.99 76.77 285.58 91.94 285.47 C 107.11 285.37 120.53 284.97 121.76 284.58 C 123.18 284.12 124.00 284.28 124.00 285.00 C 124.00 285.73 124.81 285.87 126.25 285.40 C 127.49 285.00 140.88 284.59 156.00 284.49 C 171.12 284.40 184.29 283.97 185.25 283.55 C 186.21 283.13 187.00 283.17 187.00 283.64 C 187.00 284.11 191.84 284.38 197.75 284.23 C 203.66 284.07 217.15 283.83 227.72 283.67 C 238.29 283.52 247.25 283.09 247.63 282.71 C 248.01 282.33 248.89 282.49 249.59 283.07 C 250.46 283.79 252.00 283.82 254.42 283.15 C 256.38 282.61 258.19 282.49 258.43 282.89 C 258.68 283.29 265.09 283.47 272.69 283.30 C 280.28 283.13 293.80 282.85 302.72 282.69 C 311.64 282.53 319.25 282.09 319.63 281.71 C 320.01 281.33 320.89 281.49 321.59 282.07 C 322.46 282.79 324.00 282.82 326.42 282.15 C 328.76 281.50 330.19 281.50 330.59 282.15 C 330.93 282.69 331.94 282.85 332.85 282.49 C 333.76 282.14 345.52 281.63 359.00 281.35 C 372.48 281.07 385.48 280.77 387.91 280.67 L 392.31 280.50 L 392.05 253.50 C 391.78 225.64 391.10 180.26 390.92 178.50 C 390.87 177.95 390.90 176.38 391.00 175.00 C 391.10 173.62 391.14 153.23 391.09 129.67 C 391.01 93.08 391.21 86.54 392.50 84.70 C 394.44 81.92 394.42 76.57 392.45 73.56 C 391.13 71.55 390.89 66.38 390.86 39.10 L 390.82 7.00 L 350.16 7.52 C 327.80 7.80 287.90 8.24 261.50 8.49 C 235.10 8.74 207.43 9.17 200.00 9.44 C 183.72 10.03 156.25 10.80 126.50 11.48 C 99.18 12.11 71.13 12.82 42.50 13.61 C 30.40 13.94 17.21 14.18 13.19 14.15 L 5.88 14.08 L 6.45 101.79 C 6.77 150.03 7.30 208.40 7.64 231.50 C 7.98 254.60 8.20 274.62 8.13 276.00 C 8.07 277.38 8.25 280.33 8.54 282.57 L 9.07 286.64 L 29.28 286.32 C 40.40 286.14 50.06 285.99 50.75 285.99 Z M 34.56 283.42 C 32.94 282.23 32.88 282.00 34.25 282.00 C 35.15 282.00 36.18 282.48 36.54 283.07 C 37.60 284.78 36.65 284.95 34.56 283.42 Z M 63.81 283.32 C 64.53 283.03 65.40 283.06 65.73 283.40 C 66.06 283.73 65.47 283.96 64.42 283.92 C 63.25 283.87 63.01 283.64 63.81 283.32 Z M 48.81 282.32 C 49.53 282.03 50.40 282.06 50.73 282.40 C 51.06 282.73 50.47 282.96 49.42 282.92 C 48.25 282.87 48.01 282.64 48.81 282.32 Z M 57.81 282.32 C 58.53 282.03 59.40 282.06 59.73 282.40 C 60.06 282.73 59.47 282.96 58.42 282.92 C 57.25 282.87 57.01 282.64 57.81 282.32 Z M 119.00 281.00 C 119.00 280.45 119.48 280.00 120.06 280.00 C 120.64 280.00 120.84 280.45 120.50 281.00 C 120.16 281.55 119.68 282.00 119.44 282.00 C 119.20 282.00 119.00 281.55 119.00 281.00 Z M 128.50 281.00 C 128.16 280.45 128.36 280.00 128.94 280.00 C 129.52 280.00 130.00 280.45 130.00 281.00 C 130.00 281.55 129.80 282.00 129.56 282.00 C 129.32 282.00 128.84 281.55 128.50 281.00 Z M 177.00 281.00 C 177.00 280.45 177.45 280.00 178.00 280.00 C 178.55 280.00 179.00 280.45 179.00 281.00 C 179.00 281.55 178.55 282.00 178.00 282.00 C 177.45 282.00 177.00 281.55 177.00 281.00 Z M 182.64 280.50 C 182.95 279.68 183.39 279.00 183.61 279.00 C 183.82 279.00 184.00 279.68 184.00 280.50 C 184.00 281.32 183.56 282.00 183.03 282.00 C 182.50 282.00 182.32 281.32 182.64 280.50 Z M 193.00 281.00 C 193.00 280.45 193.45 280.00 194.00 280.00 C 194.55 280.00 195.00 280.45 195.00 281.00 C 195.00 281.55 194.55 282.00 194.00 282.00 C 193.45 282.00 193.00 281.55 193.00 281.00 Z M 198.81 281.32 C 199.53 281.03 200.40 281.06 200.73 281.40 C 201.06 281.73 200.47 281.96 199.42 281.92 C 198.25 281.87 198.01 281.64 198.81 281.32 Z M 205.44 281.09 C 205.75 280.60 206.90 280.42 208.00 280.71 C 210.75 281.43 210.51 282.00 207.44 282.00 C 206.03 282.00 205.13 281.59 205.44 281.09 Z M 223.00 281.00 C 223.00 280.45 223.70 280.00 224.56 280.00 C 225.42 280.00 225.84 280.45 225.50 281.00 C 225.16 281.55 224.46 282.00 223.94 282.00 C 223.42 282.00 223.00 281.55 223.00 281.00 Z M 233.81 281.32 C 234.53 281.03 235.40 281.06 235.73 281.40 C 236.06 281.73 235.47 281.96 234.42 281.92 C 233.25 281.87 233.01 281.64 233.81 281.32 Z M 218.81 280.32 C 219.53 280.03 220.40 280.06 220.73 280.40 C 221.06 280.73 220.47 280.96 219.42 280.92 C 218.25 280.87 218.01 280.64 218.81 280.32 Z M 296.81 280.32 C 297.53 280.03 298.40 280.06 298.73 280.40 C 299.06 280.73 298.47 280.96 297.42 280.92 C 296.25 280.87 296.01 280.64 296.81 280.32 Z M 303.75 280.34 C 304.44 280.06 305.56 280.06 306.25 280.34 C 306.94 280.62 306.38 280.84 305.00 280.84 C 303.62 280.84 303.06 280.62 303.75 280.34 Z M 321.75 280.34 C 322.44 280.06 323.56 280.06 324.25 280.34 C 324.94 280.62 324.38 280.84 323.00 280.84 C 321.62 280.84 321.06 280.62 321.75 280.34 Z M 331.50 280.00 C 331.84 279.45 332.32 279.00 332.56 279.00 C 332.80 279.00 333.00 279.45 333.00 280.00 C 333.00 280.55 332.52 281.00 331.94 281.00 C 331.36 281.00 331.16 280.55 331.50 280.00 Z M 18.85 279.29 C 14.89 278.86 13.91 277.25 15.01 273.00 C 15.36 271.62 15.39 269.38 15.08 268.00 C 14.76 266.62 14.50 240.53 14.50 210.00 L 14.50 154.50 L 28.00 154.36 C 35.42 154.28 55.90 153.86 73.50 153.42 C 91.10 152.98 107.19 152.69 109.25 152.78 C 111.31 152.88 114.07 152.54 115.39 152.04 C 116.71 151.54 118.10 151.44 118.48 151.81 C 118.86 152.19 122.09 152.50 125.66 152.50 L 132.16 152.50 L 132.57 190.00 C 132.79 210.62 132.96 232.90 132.93 239.50 C 132.90 246.10 132.95 252.62 133.04 254.00 C 133.13 255.38 133.27 261.22 133.35 266.99 L 133.50 277.47 L 120.50 277.62 C 80.26 278.08 27.16 279.03 25.00 279.33 C 23.62 279.52 20.86 279.50 18.85 279.29 Z M 161.81 279.32 C 162.53 279.03 163.40 279.06 163.73 279.40 C 164.06 279.73 163.47 279.96 162.42 279.92 C 161.25 279.87 161.01 279.64 161.81 279.32 Z M 292.50 279.00 C 292.84 278.45 293.32 278.00 293.56 278.00 C 293.80 278.00 294.00 278.45 294.00 279.00 C 294.00 279.55 293.52 280.00 292.94 280.00 C 292.36 280.00 292.16 279.55 292.50 279.00 Z M 299.47 278.96 C 299.15 278.43 299.81 278.00 300.94 278.00 C 303.36 278.00 303.60 278.56 301.53 279.35 C 300.72 279.66 299.80 279.48 299.47 278.96 Z M 308.50 279.00 C 311.23 277.83 312.00 277.83 312.00 279.00 C 312.00 279.55 310.76 279.97 309.25 279.93 C 306.81 279.87 306.73 279.76 308.50 279.00 Z M 337.44 278.53 C 334.96 276.65 336.73 276.63 340.00 278.50 C 341.60 279.42 341.94 279.94 340.94 279.96 C 340.08 279.98 338.51 279.34 337.44 278.53 Z M 343.51 278.98 C 343.86 278.42 344.56 278.23 345.07 278.54 C 346.46 279.40 346.20 280.00 344.44 280.00 C 343.58 280.00 343.16 279.54 343.51 278.98 Z M 367.75 279.34 C 368.44 279.06 369.56 279.06 370.25 279.34 C 370.94 279.62 370.38 279.84 369.00 279.84 C 367.62 279.84 367.06 279.62 367.75 279.34 Z M 250.27 278.31 C 251.24 278.05 252.59 278.07 253.27 278.34 C 253.95 278.62 253.15 278.83 251.50 278.81 C 249.85 278.78 249.30 278.56 250.27 278.31 Z M 259.00 277.99 C 259.00 277.45 260.20 277.00 261.67 277.00 C 264.60 277.00 264.11 278.21 260.97 278.69 C 259.89 278.85 259.00 278.54 259.00 277.99 Z M 266.76 278.29 C 268.01 278.05 269.81 278.06 270.76 278.31 C 271.72 278.56 270.70 278.76 268.50 278.75 C 266.30 278.74 265.52 278.53 266.76 278.29 Z M 284.81 278.32 C 285.53 278.03 286.40 278.06 286.73 278.40 C 287.06 278.73 286.47 278.96 285.42 278.92 C 284.25 278.87 284.01 278.64 284.81 278.32 Z M 140.94 277.50 C 140.90 277.50 140.68 258.38 140.44 235.00 C 140.20 211.62 139.83 183.61 139.61 172.74 C 139.39 161.87 139.61 152.74 140.10 152.44 C 140.59 152.14 151.27 151.76 163.85 151.59 C 176.42 151.43 187.19 151.00 187.79 150.63 C 188.38 150.27 189.16 150.46 189.53 151.05 C 189.90 151.65 190.94 151.83 191.85 151.46 C 192.76 151.09 203.85 150.65 216.50 150.49 C 229.15 150.32 239.95 150.09 240.50 149.97 C 241.05 149.86 241.95 149.87 242.50 149.99 C 243.05 150.12 246.54 150.13 250.25 150.02 C 256.70 149.83 257.00 149.92 257.05 152.16 C 257.41 168.86 258.17 256.15 258.06 268.61 L 258.00 275.72 L 245.25 275.89 C 228.20 276.13 161.86 277.13 150.25 277.34 C 145.16 277.43 140.97 277.50 140.94 277.50 Z M 326.81 277.32 C 327.53 277.03 328.40 277.06 328.73 277.40 C 329.06 277.73 328.47 277.96 327.42 277.92 C 326.25 277.87 326.01 277.64 326.81 277.32 Z M 373.81 277.32 C 374.53 277.03 375.40 277.06 375.73 277.40 C 376.06 277.73 375.47 277.96 374.42 277.92 C 373.25 277.87 373.01 277.64 373.81 277.32 Z M 265.93 274.58 C 265.88 273.99 265.65 257.07 265.41 237.00 C 265.16 216.93 264.84 190.15 264.68 177.50 C 264.52 164.85 264.66 153.42 264.97 152.09 L 265.55 149.68 L 307.07 149.53 C 329.91 149.44 349.16 149.02 349.84 148.60 C 350.53 148.17 351.69 148.33 352.42 148.94 C 353.24 149.61 354.68 149.73 356.13 149.24 C 357.43 148.80 364.35 148.49 371.50 148.56 C 382.14 148.67 384.43 148.94 384.11 150.09 C 383.90 150.87 383.82 154.88 383.94 159.00 C 384.20 167.71 384.19 166.92 384.10 182.50 C 383.93 209.89 384.79 271.84 385.34 272.74 C 385.72 273.35 379.89 273.77 369.72 273.88 C 360.80 273.97 341.12 274.29 326.00 274.59 C 270.75 275.70 266.00 275.70 265.93 274.58 Z M 262.07 270.31 C 262.03 269.10 262.45 267.84 263.00 267.50 C 264.18 266.77 264.18 267.75 263.00 270.50 C 262.17 272.43 262.14 272.42 262.07 270.31 Z M 387.08 270.42 C 387.13 269.25 387.36 269.01 387.68 269.81 C 387.97 270.53 387.94 271.40 387.60 271.73 C 387.27 272.06 387.04 271.47 387.08 270.42 Z M 260.23 264.81 C 260.73 263.32 263.00 262.50 263.00 263.81 C 263.00 264.35 262.29 265.06 261.42 265.39 C 260.44 265.77 259.99 265.54 260.23 264.81 Z M 387.64 262.50 C 387.29 261.60 387.63 261.00 388.50 261.00 C 389.37 261.00 389.71 261.60 389.36 262.50 C 389.05 263.32 388.66 264.00 388.50 264.00 C 388.34 264.00 387.95 263.32 387.64 262.50 Z M 136.00 249.00 C 136.00 248.45 136.45 248.00 137.00 248.00 C 137.55 248.00 138.00 248.45 138.00 249.00 C 138.00 249.55 137.55 250.00 137.00 250.00 C 136.45 250.00 136.00 249.55 136.00 249.00 Z M 388.16 245.00 C 388.16 243.62 388.38 243.06 388.66 243.75 C 388.94 244.44 388.94 245.56 388.66 246.25 C 388.38 246.94 388.16 246.38 388.16 245.00 Z M 135.00 236.00 C 135.00 235.45 135.68 235.00 136.50 235.00 C 137.32 235.00 138.00 235.45 138.00 236.00 C 138.00 236.55 137.32 237.00 136.50 237.00 C 135.68 237.00 135.00 236.55 135.00 236.00 Z M 387.00 234.50 C 387.00 233.68 387.44 233.00 387.97 233.00 C 388.50 233.00 388.68 233.68 388.36 234.50 C 388.05 235.32 387.61 236.00 387.39 236.00 C 387.18 236.00 387.00 235.32 387.00 234.50 Z M 261.54 227.07 C 261.23 226.56 261.42 225.86 261.98 225.51 C 262.54 225.16 263.00 225.58 263.00 226.44 C 263.00 228.20 262.40 228.46 261.54 227.07 Z M 261.00 223.00 C 261.00 222.45 261.45 222.00 262.00 222.00 C 262.55 222.00 263.00 222.45 263.00 223.00 C 263.00 223.55 262.55 224.00 262.00 224.00 C 261.45 224.00 261.00 223.55 261.00 223.00 Z M 260.00 219.41 C 260.00 218.57 260.42 218.14 260.94 218.46 C 261.45 218.78 262.05 217.57 262.28 215.77 L 262.68 212.50 L 262.84 216.14 C 262.95 218.57 262.50 219.98 261.50 220.36 C 260.57 220.72 260.00 220.36 260.00 219.41 Z M 10.08 217.42 C 10.13 216.25 10.36 216.01 10.68 216.81 C 10.97 217.53 10.94 218.40 10.60 218.73 C 10.27 219.06 10.04 218.47 10.08 217.42 Z M 387.00 211.00 C 387.00 210.45 387.45 210.00 388.00 210.00 C 388.55 210.00 389.00 210.45 389.00 211.00 C 389.00 211.55 388.55 212.00 388.00 212.00 C 387.45 212.00 387.00 211.55 387.00 211.00 Z M 135.00 204.44 C 135.00 203.58 135.46 203.16 136.02 203.51 C 136.58 203.86 136.77 204.56 136.46 205.07 C 135.60 206.46 135.00 206.20 135.00 204.44 Z M 260.00 200.00 C 260.00 199.45 260.45 199.00 261.00 199.00 C 261.55 199.00 262.00 199.45 262.00 200.00 C 262.00 200.55 261.55 201.00 261.00 201.00 C 260.45 201.00 260.00 200.55 260.00 200.00 Z M 135.00 196.00 C 135.00 195.45 135.48 195.00 136.06 195.00 C 136.64 195.00 136.84 195.45 136.50 196.00 C 136.16 196.55 135.68 197.00 135.44 197.00 C 135.20 197.00 135.00 196.55 135.00 196.00 Z M 135.00 192.00 C 135.00 191.45 135.45 191.00 136.00 191.00 C 136.55 191.00 137.00 191.45 137.00 192.00 C 137.00 192.55 136.55 193.00 136.00 193.00 C 135.45 193.00 135.00 192.55 135.00 192.00 Z M 388.08 191.42 C 388.13 190.25 388.36 190.01 388.68 190.81 C 388.97 191.53 388.94 192.40 388.60 192.73 C 388.27 193.06 388.04 192.47 388.08 191.42 Z M 135.19 183.50 C 135.22 181.85 135.44 181.30 135.69 182.27 C 135.95 183.24 135.93 184.59 135.66 185.27 C 135.38 185.95 135.17 185.15 135.19 183.50 Z M 134.53 178.04 C 134.11 177.37 134.27 176.33 134.87 175.73 C 136.41 174.19 137.38 175.50 136.23 177.55 C 135.53 178.80 135.08 178.93 134.53 178.04 Z M 260.19 173.50 C 260.22 171.85 260.44 171.30 260.69 172.27 C 260.95 173.24 260.93 174.59 260.66 175.27 C 260.38 175.95 260.17 175.15 260.19 173.50 Z M 135.67 173.33 C 135.30 172.97 135.06 170.60 135.13 168.08 L 135.27 163.50 L 135.99 168.50 C 136.76 173.82 136.72 174.39 135.67 173.33 Z M 388.08 171.42 C 388.13 170.25 388.36 170.01 388.68 170.81 C 388.97 171.53 388.94 172.40 388.60 172.73 C 388.27 173.06 388.04 172.47 388.08 171.42 Z M 260.08 165.42 C 260.13 164.25 260.36 164.01 260.68 164.81 C 260.97 165.53 260.94 166.40 260.60 166.73 C 260.27 167.06 260.04 166.47 260.08 165.42 Z M 10.08 163.42 C 10.13 162.25 10.36 162.01 10.68 162.81 C 10.97 163.53 10.94 164.40 10.60 164.73 C 10.27 165.06 10.04 164.47 10.08 163.42 Z M 135.37 160.75 C 134.84 159.51 134.71 156.93 135.07 155.00 L 135.74 151.50 L 135.87 155.31 C 135.94 157.40 136.37 158.89 136.83 158.61 C 137.71 158.06 137.73 161.60 136.85 162.48 C 136.56 162.77 135.89 161.99 135.37 160.75 Z M 260.08 160.42 C 260.13 159.25 260.36 159.01 260.68 159.81 C 260.97 160.53 260.94 161.40 260.60 161.73 C 260.27 162.06 260.04 161.47 260.08 160.42 Z M 259.00 153.00 C 259.00 152.45 259.45 152.00 260.00 152.00 C 260.55 152.00 261.00 152.45 261.00 153.00 C 261.00 153.55 260.55 154.00 260.00 154.00 C 259.45 154.00 259.00 153.55 259.00 153.00 Z M 67.27 150.91 C 68.25 150.34 68.79 149.47 68.48 148.97 C 68.17 148.47 69.17 147.80 70.71 147.48 C 72.24 147.17 75.08 146.50 77.00 146.01 C 80.76 145.04 110.19 141.58 123.75 140.51 C 128.95 140.10 132.00 140.23 132.00 140.85 C 132.00 141.39 132.26 142.52 132.59 143.36 C 132.98 144.40 132.58 144.86 131.34 144.81 C 125.56 144.58 91.19 146.19 83.57 147.05 C 72.86 148.26 69.85 148.94 70.50 150.00 C 71.01 150.83 68.68 152.02 66.67 151.97 C 66.03 151.95 66.30 151.48 67.27 150.91 Z M 136.00 150.97 C 136.00 150.44 136.68 150.00 137.50 150.00 C 138.32 150.00 139.00 150.18 139.00 150.39 C 139.00 150.61 138.32 151.05 137.50 151.36 C 136.68 151.68 136.00 151.50 136.00 150.97 Z M 62.00 150.00 C 62.00 149.45 62.45 149.00 63.00 149.00 C 63.55 149.00 64.00 149.45 64.00 150.00 C 64.00 150.55 63.55 151.00 63.00 151.00 C 62.45 151.00 62.00 150.55 62.00 150.00 Z M 80.48 150.26 C 83.22 150.04 85.80 149.34 86.22 148.69 C 86.72 147.89 86.97 148.08 86.98 149.25 C 87.00 150.74 86.13 150.97 81.25 150.82 L 75.50 150.64 L 80.48 150.26 Z M 92.50 150.27 C 93.60 149.99 94.81 149.27 95.20 148.66 C 95.58 148.06 96.19 147.85 96.55 148.21 C 97.80 149.46 95.87 151.00 93.19 150.88 C 91.09 150.79 90.94 150.66 92.50 150.27 Z M 101.40 150.17 C 101.88 149.38 108.00 149.79 108.00 150.61 C 108.00 150.83 106.40 151.00 104.44 151.00 C 102.48 151.00 101.11 150.63 101.40 150.17 Z M 110.75 150.34 C 111.44 150.06 112.56 150.06 113.25 150.34 C 113.94 150.62 113.38 150.84 112.00 150.84 C 110.62 150.84 110.06 150.62 110.75 150.34 Z M 132.67 150.33 C 132.30 149.97 132.00 149.20 132.00 148.63 C 132.00 148.01 132.47 148.07 133.18 148.78 C 133.83 149.43 134.13 150.20 133.85 150.48 C 133.57 150.77 133.03 150.70 132.67 150.33 Z M 124.00 148.94 C 124.00 148.36 124.45 148.16 125.00 148.50 C 125.55 148.84 126.00 149.32 126.00 149.56 C 126.00 149.80 125.55 150.00 125.00 150.00 C 124.45 150.00 124.00 149.52 124.00 148.94 Z M 164.75 149.29 C 165.99 149.06 167.00 148.44 167.00 147.93 C 167.00 147.42 167.44 147.00 167.97 147.00 C 168.50 147.00 168.68 147.68 168.36 148.50 C 168.03 149.37 166.67 149.94 165.14 149.86 C 162.79 149.74 162.74 149.68 164.75 149.29 Z M 128.50 148.00 C 128.16 147.45 128.36 147.00 128.94 147.00 C 129.52 147.00 130.00 147.45 130.00 148.00 C 130.00 148.55 129.80 149.00 129.56 149.00 C 129.32 149.00 128.84 148.55 128.50 148.00 Z M 158.00 148.00 C 158.00 147.45 158.48 147.00 159.06 147.00 C 159.64 147.00 159.84 147.45 159.50 148.00 C 159.16 148.55 158.68 149.00 158.44 149.00 C 158.20 149.00 158.00 148.55 158.00 148.00 Z M 184.50 148.00 C 184.84 147.45 185.79 147.00 186.62 147.00 C 187.44 147.00 187.84 147.45 187.50 148.00 C 187.16 148.55 186.21 149.00 185.38 149.00 C 184.56 149.00 184.16 148.55 184.50 148.00 Z M 136.00 146.94 C 136.00 146.36 136.45 146.16 137.00 146.50 C 137.55 146.84 138.00 147.32 138.00 147.56 C 138.00 147.80 137.55 148.00 137.00 148.00 C 136.45 148.00 136.00 147.52 136.00 146.94 Z M 217.53 147.04 C 217.17 146.46 217.60 145.71 218.48 145.37 C 220.68 144.53 221.36 145.45 219.61 146.91 C 218.63 147.72 217.97 147.77 217.53 147.04 Z M 238.00 146.97 C 238.00 146.44 238.68 146.00 239.50 146.00 C 240.32 146.00 241.00 146.18 241.00 146.39 C 241.00 146.61 240.32 147.05 239.50 147.36 C 238.68 147.68 238.00 147.50 238.00 146.97 Z M 317.00 147.00 C 317.00 146.45 318.01 146.01 319.25 146.02 C 321.07 146.03 321.21 146.22 320.00 147.00 C 318.06 148.25 317.00 148.25 317.00 147.00 Z M 14.43 145.68 C 14.14 144.91 13.80 132.78 13.70 118.72 L 13.50 93.16 L 16.79 92.78 C 20.35 92.36 21.94 93.83 51.56 125.00 C 57.57 131.32 63.75 137.74 65.28 139.25 C 67.59 141.53 67.88 142.35 67.00 144.00 C 66.20 145.49 64.86 146.02 61.71 146.07 C 59.40 146.11 47.93 146.36 36.24 146.62 C 18.58 147.01 14.88 146.85 14.43 145.68 Z M 190.75 146.34 C 191.44 146.06 192.56 146.06 193.25 146.34 C 193.94 146.62 193.38 146.84 192.00 146.84 C 190.62 146.84 190.06 146.62 190.75 146.34 Z M 278.00 146.61 C 278.00 146.39 278.68 145.95 279.50 145.64 C 280.32 145.32 281.00 145.50 281.00 146.03 C 281.00 146.56 280.32 147.00 279.50 147.00 C 278.68 147.00 278.00 146.82 278.00 146.61 Z M 310.00 146.00 C 310.00 145.45 310.93 145.00 312.06 145.00 C 313.19 145.00 313.84 145.45 313.50 146.00 C 313.16 146.55 312.23 147.00 311.44 147.00 C 310.65 147.00 310.00 146.55 310.00 146.00 Z M 333.16 146.12 C 332.30 145.58 333.29 145.27 335.91 145.27 C 338.16 145.27 340.00 145.66 340.00 146.14 C 340.00 147.24 334.92 147.23 333.16 146.12 Z M 255.00 145.00 C 256.96 143.73 258.28 143.73 257.50 145.00 C 257.16 145.55 256.12 145.99 255.19 145.98 C 253.73 145.97 253.71 145.84 255.00 145.00 Z M 261.47 144.96 C 261.15 144.43 261.10 144.00 261.36 144.00 C 261.62 144.00 262.55 143.73 263.42 143.39 C 264.29 143.06 265.00 143.24 265.00 143.79 C 265.00 145.19 262.19 146.12 261.47 144.96 Z M 304.81 145.32 C 305.53 145.03 306.40 145.06 306.73 145.40 C 307.06 145.73 306.47 145.96 305.42 145.92 C 304.25 145.87 304.01 145.64 304.81 145.32 Z M 342.00 145.00 C 342.82 144.47 344.18 144.03 345.00 144.03 C 346.33 144.03 346.33 144.14 345.00 145.00 C 344.18 145.53 342.82 145.97 342.00 145.97 C 340.67 145.97 340.67 145.86 342.00 145.00 Z M 138.61 144.28 C 138.30 143.97 138.37 143.22 138.76 142.61 C 139.15 142.00 139.48 141.08 139.48 140.56 C 139.49 140.05 140.85 139.30 142.50 138.91 C 147.65 137.67 191.26 135.95 219.50 135.87 C 244.16 135.79 289.94 137.37 296.00 138.49 C 297.38 138.75 303.23 139.42 309.00 139.97 C 320.32 141.07 328.90 142.80 330.50 144.31 C 331.13 144.90 329.84 145.00 327.00 144.58 C 314.90 142.78 305.80 142.29 286.63 142.43 C 265.79 142.58 265.76 142.57 264.72 140.29 C 263.38 137.34 261.64 137.30 262.58 140.24 C 263.19 142.18 263.08 142.31 261.74 141.20 C 260.48 140.15 260.08 140.16 259.59 141.21 C 259.25 141.92 259.17 141.49 259.40 140.25 C 259.90 137.51 258.02 137.22 257.31 139.93 C 256.67 142.38 252.97 142.94 238.00 142.85 C 227.76 142.78 191.82 143.47 152.83 144.48 C 145.31 144.67 138.91 144.58 138.61 144.28 Z M 134.72 142.67 C 133.76 140.22 133.72 140.31 136.00 139.71 C 137.10 139.42 138.00 139.60 138.00 140.09 C 138.00 140.59 137.58 141.00 137.07 141.00 C 136.56 141.00 135.99 141.79 135.79 142.75 C 135.47 144.38 135.39 144.37 134.72 142.67 Z M 332.00 139.72 C 332.00 138.06 338.77 130.65 356.43 112.97 C 378.42 90.94 385.17 85.34 384.21 89.87 C 384.05 90.63 383.94 102.19 383.96 115.56 C 383.99 131.61 383.65 140.10 382.95 140.53 C 382.37 140.89 370.67 141.37 356.95 141.60 L 332.00 142.01 L 332.00 139.72 Z M 79.01 136.80 C 79.01 136.63 80.57 131.68 82.47 125.78 C 90.49 100.85 92.07 79.79 87.53 58.35 C 85.00 46.39 81.44 34.40 79.82 32.34 C 78.15 30.22 80.80 29.88 90.74 30.93 C 144.67 36.66 217.98 36.29 276.50 29.99 C 293.77 28.13 318.34 25.09 321.31 24.43 L 324.30 23.77 L 323.60 29.64 C 321.51 46.96 321.09 51.81 320.44 66.03 C 319.83 79.31 320.51 100.07 322.44 127.87 L 322.81 133.23 L 319.16 132.60 C 315.44 131.96 286.50 129.54 271.00 128.58 C 236.25 126.43 183.92 127.05 148.00 130.04 C 116.89 132.63 90.29 135.27 82.25 136.57 C 80.46 136.86 79.00 136.96 79.01 136.80 Z M 58.50 125.11 C 53.00 119.26 43.32 109.08 36.99 102.49 L 25.48 90.50 L 25.49 83.33 L 25.50 76.16 L 47.89 53.52 C 60.21 41.07 70.65 31.25 71.10 31.70 C 72.82 33.42 79.89 56.89 80.92 64.32 C 82.26 74.02 82.28 91.21 80.97 100.50 C 79.37 111.78 71.25 136.22 69.22 135.88 C 68.83 135.81 64.00 130.96 58.50 125.11 Z M 330.62 127.93 C 329.16 118.58 327.76 83.17 328.28 68.77 C 329.00 49.08 330.92 28.87 332.20 27.50 C 332.81 26.84 333.58 27.10 334.43 28.25 C 335.14 29.21 338.82 33.29 342.61 37.32 C 346.40 41.34 355.34 50.85 362.48 58.45 L 375.46 72.27 L 375.53 79.55 L 375.60 86.83 L 353.38 109.10 L 331.16 131.36 L 330.62 127.93 Z M 387.67 125.33 C 387.30 124.97 387.00 124.20 387.00 123.63 C 387.00 123.01 387.47 123.07 388.18 123.78 C 388.83 124.43 389.13 125.20 388.85 125.48 C 388.57 125.77 388.03 125.70 387.67 125.33 Z M 10.00 122.50 C 10.00 121.67 10.45 121.00 11.00 121.00 C 11.55 121.00 12.00 121.67 12.00 122.50 C 12.00 123.33 11.55 124.00 11.00 124.00 C 10.45 124.00 10.00 123.33 10.00 122.50 Z M 10.08 116.42 C 10.13 115.25 10.36 115.01 10.68 115.81 C 10.97 116.53 10.94 117.40 10.60 117.73 C 10.27 118.06 10.04 117.47 10.08 116.42 Z M 9.00 93.12 C 9.00 91.96 9.42 91.00 9.94 91.00 C 11.67 91.00 11.99 92.76 10.49 94.01 C 9.25 95.04 9.00 94.89 9.00 93.12 Z M 9.00 74.44 C 9.00 73.58 9.46 73.16 10.02 73.51 C 10.58 73.86 10.77 74.56 10.46 75.07 C 9.60 76.46 9.00 76.20 9.00 74.44 Z M 16.86 74.25 C 13.41 73.78 13.16 71.79 13.00 43.53 C 12.92 29.71 12.48 21.08 11.81 20.28 C 11.06 19.37 11.09 19.00 11.91 19.00 C 12.54 19.00 13.28 19.57 13.55 20.26 C 13.90 21.17 16.08 21.42 21.27 21.16 C 25.24 20.96 29.29 20.83 30.25 20.87 C 31.21 20.92 32.79 20.94 33.75 20.93 C 34.71 20.91 39.45 20.95 44.27 21.01 C 51.17 21.09 53.38 20.76 54.68 19.47 C 56.20 17.94 56.39 17.94 57.25 19.48 C 57.91 20.66 59.23 21.05 61.80 20.83 C 64.87 20.56 65.67 20.93 66.96 23.23 L 68.48 25.95 L 43.99 50.28 C 22.74 71.38 19.15 74.56 16.86 74.25 Z M 362.74 51.25 C 353.10 40.94 342.49 29.58 339.14 26.00 C 335.80 22.42 333.05 18.76 333.03 17.87 C 333.01 16.97 334.12 15.49 335.50 14.59 C 337.81 13.08 338.00 13.08 338.00 14.59 C 338.00 15.88 338.57 16.06 340.75 15.47 C 344.48 14.46 356.08 14.31 356.66 15.27 C 356.93 15.69 357.65 15.72 358.28 15.33 C 358.90 14.94 362.13 14.57 365.46 14.50 C 368.78 14.42 372.57 14.01 373.88 13.58 C 375.63 12.99 376.05 13.10 375.50 14.00 C 374.94 14.91 375.60 15.03 378.12 14.50 C 381.80 13.72 381.89 13.71 383.79 13.88 C 384.67 13.96 384.80 14.55 384.19 15.75 C 383.71 16.71 383.48 27.40 383.68 39.50 C 383.87 51.60 383.98 62.40 383.91 63.50 C 383.85 64.60 383.73 66.51 383.65 67.75 C 383.56 69.10 382.85 70.00 381.88 70.00 C 380.99 70.00 372.38 61.56 362.74 51.25 Z M 10.00 66.00 C 10.00 65.45 10.48 65.00 11.06 65.00 C 11.64 65.00 11.84 65.45 11.50 66.00 C 11.16 66.55 10.68 67.00 10.44 67.00 C 10.20 67.00 10.00 66.55 10.00 66.00 Z M 386.51 47.98 C 386.86 47.42 387.56 47.23 388.07 47.54 C 389.46 48.40 389.20 49.00 387.44 49.00 C 386.58 49.00 386.16 48.54 386.51 47.98 Z M 142.44 26.35 C 139.87 25.97 139.22 25.29 138.34 22.00 C 137.46 18.69 137.55 18.02 138.90 17.66 C 139.92 17.39 139.69 17.19 138.25 17.12 C 137.01 17.05 136.00 16.50 136.00 15.88 C 136.00 15.21 136.90 15.01 138.25 15.37 C 139.49 15.70 141.05 15.98 141.72 15.99 C 142.39 15.99 142.71 16.60 142.43 17.33 C 142.04 18.33 142.73 18.55 145.13 18.19 C 148.11 17.76 148.21 17.63 146.48 16.36 C 144.69 15.06 144.70 15.00 146.74 15.00 C 147.90 15.00 149.56 15.71 150.43 16.57 C 151.43 17.57 152.76 17.89 154.13 17.46 C 157.45 16.40 169.00 16.30 169.00 17.32 C 169.00 17.82 170.08 17.52 171.41 16.65 C 173.49 15.29 173.89 15.27 174.38 16.54 C 175.05 18.30 178.14 18.46 179.78 16.82 C 180.69 15.91 181.54 15.95 183.47 16.98 C 185.44 18.04 186.53 18.08 188.55 17.16 C 190.27 16.37 191.71 16.31 192.93 16.96 C 194.05 17.56 195.94 17.59 197.89 17.03 C 199.62 16.54 202.60 16.39 204.52 16.70 C 206.77 17.06 208.00 16.86 208.00 16.13 C 208.00 15.51 207.03 15.00 205.83 15.00 C 204.64 15.00 203.93 14.74 204.24 14.42 C 205.20 13.47 217.00 13.21 217.00 14.14 C 217.00 14.61 215.17 15.00 212.94 15.00 C 210.71 15.00 209.12 15.38 209.40 15.84 C 209.69 16.31 215.45 16.52 222.21 16.31 C 228.97 16.10 235.30 15.92 236.27 15.91 C 237.25 15.89 237.78 15.46 237.46 14.94 C 237.14 14.42 237.57 14.00 238.41 14.00 C 239.42 14.00 239.72 14.56 239.30 15.66 C 238.77 17.03 239.09 17.19 241.08 16.59 C 242.41 16.19 246.54 15.76 250.25 15.64 L 257.00 15.42 L 257.00 19.54 L 257.00 23.65 L 242.75 24.93 C 229.15 26.15 148.85 27.29 142.44 26.35 Z M 116.00 24.92 C 97.37 23.64 79.76 21.93 76.00 21.04 C 72.65 20.24 72.74 20.19 78.00 19.95 C 81.03 19.80 84.51 19.78 85.75 19.88 C 88.51 20.12 88.96 16.40 86.25 15.69 C 85.17 15.41 85.56 15.19 87.25 15.12 C 89.32 15.03 90.00 15.47 90.00 16.89 C 90.00 18.26 90.97 18.96 93.52 19.44 C 95.45 19.80 97.45 19.84 97.95 19.53 C 98.45 19.22 101.12 18.92 103.89 18.85 C 106.65 18.79 108.88 18.46 108.84 18.12 C 108.50 15.33 109.32 15.01 116.25 15.15 C 120.24 15.23 122.26 15.49 120.75 15.72 C 119.24 15.95 118.00 16.55 118.00 17.07 C 118.00 17.58 117.13 18.00 116.06 18.00 C 114.99 18.00 113.79 18.53 113.39 19.17 C 112.90 19.97 113.23 20.13 114.42 19.67 C 115.39 19.30 117.94 18.71 120.09 18.37 C 122.24 18.03 124.00 17.22 124.00 16.58 C 124.00 15.95 125.46 15.32 127.25 15.20 L 130.50 14.97 L 127.53 16.54 C 123.30 18.78 123.28 18.97 127.36 18.81 C 131.89 18.64 132.17 18.92 131.38 22.84 C 130.96 24.93 130.20 25.95 129.12 25.86 C 128.23 25.78 122.33 25.36 116.00 24.92 Z M 134.67 25.33 C 133.45 24.12 133.98 23.05 135.50 23.64 C 136.32 23.95 137.00 24.62 137.00 25.11 C 137.00 26.16 135.62 26.29 134.67 25.33 Z M 264.02 20.75 C 264.02 19.51 264.36 18.01 264.77 17.40 C 265.81 15.85 273.13 14.86 274.60 16.08 C 275.45 16.79 276.99 16.61 279.61 15.52 C 282.95 14.12 283.48 14.11 284.22 15.43 C 284.82 16.50 285.69 16.69 287.28 16.09 C 288.50 15.64 293.05 15.33 297.40 15.41 C 302.87 15.51 305.72 15.14 306.65 14.21 C 307.39 13.46 308.00 13.29 308.00 13.82 C 308.00 15.35 312.17 15.98 316.25 15.06 C 319.94 14.22 321.52 15.20 318.40 16.40 C 317.52 16.74 309.09 17.90 299.65 18.99 C 290.22 20.07 279.12 21.42 275.00 21.99 C 264.50 23.42 264.00 23.37 264.02 20.75 Z M 69.81 19.32 C 70.53 19.03 71.40 19.06 71.73 19.40 C 72.06 19.73 71.47 19.96 70.42 19.92 C 69.25 19.87 69.01 19.64 69.81 19.32 Z M 132.00 16.18 C 132.00 14.97 133.90 13.56 134.59 14.26 C 134.84 14.51 134.36 15.28 133.52 15.98 C 132.57 16.77 132.00 16.84 132.00 16.18 Z M 166.61 15.18 C 166.26 14.61 166.45 13.84 167.05 13.47 C 168.54 12.55 169.06 13.28 168.07 14.89 C 167.54 15.75 167.02 15.85 166.61 15.18 Z M 197.00 14.00 C 198.98 12.72 202.29 12.72 201.50 14.00 C 201.16 14.55 199.67 14.99 198.19 14.98 C 196.09 14.97 195.83 14.76 197.00 14.00 Z M 220.81 14.32 C 221.53 14.03 222.40 14.06 222.73 14.40 C 223.06 14.73 222.47 14.96 221.42 14.92 C 220.25 14.87 220.01 14.64 220.81 14.32 Z M 230.81 14.32 C 231.53 14.03 232.40 14.06 232.73 14.40 C 233.06 14.73 232.47 14.96 231.42 14.92 C 230.25 14.87 230.01 14.64 230.81 14.32 Z M 260.81 14.32 C 261.53 14.03 262.40 14.06 262.73 14.40 C 263.06 14.73 262.47 14.96 261.42 14.92 C 260.25 14.87 260.01 14.64 260.81 14.32 Z M 267.44 13.55 C 268.51 12.70 270.31 12.01 271.44 12.03 C 273.09 12.05 273.20 12.23 272.00 12.91 C 271.18 13.38 269.38 14.06 268.00 14.43 C 265.60 15.08 265.58 15.04 267.44 13.55 Z M 286.81 13.32 C 287.53 13.03 288.40 13.06 288.73 13.40 C 289.06 13.73 288.47 13.96 287.42 13.92 C 286.25 13.87 286.01 13.64 286.81 13.32 Z M 366.00 13.00 C 367.96 11.73 369.28 11.73 368.50 13.00 C 368.16 13.55 367.12 13.99 366.19 13.98 C 364.73 13.97 364.71 13.84 366.00 13.00 Z M 378.27 12.31 C 379.24 12.05 380.59 12.07 381.27 12.34 C 381.95 12.62 381.15 12.83 379.50 12.81 C 377.85 12.78 377.30 12.56 378.27 12.31 Z M 335.50 11.00 C 335.84 10.45 336.32 10.00 336.56 10.00 C 336.80 10.00 337.00 10.45 337.00 11.00 C 337.00 11.55 336.52 12.00 335.94 12.00 C 335.36 12.00 335.16 11.55 335.50 11.00 Z M 361.81 10.32 C 362.53 10.03 363.40 10.06 363.73 10.40 C 364.06 10.73 363.47 10.96 362.42 10.92 C 361.25 10.87 361.01 10.64 361.81 10.32 Z" fill="none" stroke="rgba(255,255,255,0.92)" stroke-width="1.5" stroke-linejoin="round" fill-rule="evenodd"/>
</svg>
