<svg xmlns="http://www.w3.org/2000/svg" viewBox="0 0 100 100" width="100" height="100">
  <path d="M 0.00 50.00 L 0.00 0.00 L 50.00 0.00 L 100.00 0.00 L 100.00 50.00 L 100.00 100.00 L 50.00 100.00 L 0.00 100.00 L 0.00 50.00 Z M 93.66 72.25 C 93.31 59.19 93.02 38.68 93.02 26.68 L 93.00 4.85 L 75.75 5.44 C 66.26 5.77 49.95 6.30 39.50 6.61 C 19.20 7.22 8.57 7.61 5.75 7.85 C 4.79 7.93 4.00 8.72 4.00 9.61 C 4.00 10.73 4.52 11.01 5.75 10.52 C 7.57 9.81 12.48 9.62 60.02 8.44 C 85.73 7.80 88.67 7.89 89.89 9.37 C 91.05 10.77 91.00 11.00 89.54 11.00 C 87.95 11.00 87.85 13.99 88.12 53.50 L 88.41 96.00 L 91.35 96.00 L 94.29 96.00 L 93.66 72.25 Z M 90.00 83.50 C 90.00 82.67 90.44 82.00 90.97 82.00 C 91.50 82.00 91.68 82.67 91.36 83.50 C 91.05 84.33 90.61 85.00 90.39 85.00 C 90.18 85.00 90.00 84.33 90.00 83.50 Z M 90.23 77.00 C 90.23 75.08 90.44 74.29 90.69 75.25 C 90.94 76.21 90.94 77.79 90.69 78.75 C 90.44 79.71 90.23 78.92 90.23 77.00 Z M 53.25 77.75 C 59.52 75.89 65.52 69.47 67.57 62.41 C 71.62 48.47 64.75 35.31 51.40 31.43 C 41.73 28.62 32.61 31.80 25.32 40.53 C 22.53 43.86 20.87 45.00 18.79 45.00 L 16.00 45.00 L 16.00 55.55 L 16.00 66.09 L 19.40 65.45 C 22.27 64.92 22.91 65.14 23.46 66.87 C 24.37 69.75 32.68 76.84 36.40 77.92 C 40.97 79.25 48.45 79.17 53.25 77.75 Z M 90.31 65.50 C 90.32 62.20 90.50 60.97 90.72 62.77 C 90.95 64.57 90.94 67.27 90.71 68.77 C 90.49 70.27 90.30 68.80 90.31 65.50 Z M 90.23 52.00 C 90.23 50.08 90.44 49.29 90.69 50.25 C 90.94 51.21 90.94 52.79 90.69 53.75 C 90.44 54.71 90.23 53.92 90.23 52.00 Z M 90.08 42.00 C 89.92 41.73 89.62 38.35 89.41 34.50 C 89.15 29.38 89.32 27.97 90.07 29.25 C 90.64 30.21 90.94 33.59 90.74 36.75 C 90.54 39.91 90.24 42.27 90.08 42.00 Z M 89.00 23.56 C 89.00 21.67 89.45 19.84 90.00 19.50 C 90.60 19.13 91.00 20.49 91.00 22.94 C 91.00 25.17 90.55 27.00 90.00 27.00 C 89.45 27.00 89.00 25.45 89.00 23.56 Z" fill="none" stroke="rgba(255,255,255,0.92)" stroke-width="1.2" stroke-linejoin="round" fill-rule="evenodd"/>
</svg>
