<svg xmlns="http://www.w3.org/2000/svg" viewBox="0 0 100 100" width="100" height="100">
  <path d="M 0.00 50.00 L 0.00 0.00 L 50.00 0.00 L 100.00 0.00 L 100.00 50.00 L 100.00 100.00 L 50.00 100.00 L 0.00 100.00 L 0.00 50.00 Z M 32.00 92.44 C 32.00 90.47 31.50 78.89 30.89 66.69 C 30.28 54.48 29.72 40.90 29.64 36.51 L 29.50 28.52 L 35.00 27.82 C 46.73 26.33 86.73 22.00 91.00 21.76 C 95.20 21.52 95.52 21.30 95.80 18.50 L 96.09 15.50 L 91.05 15.85 L 86.00 16.19 L 86.00 11.60 C 86.00 8.18 85.62 7.00 84.50 7.00 C 83.46 7.00 83.00 8.05 83.00 10.42 C 83.00 16.10 82.24 17.00 77.45 17.00 L 73.11 17.00 L 72.81 12.76 C 72.58 9.66 72.03 8.43 70.75 8.19 C 69.27 7.90 69.00 8.64 69.00 12.93 C 69.00 16.31 68.58 18.00 67.75 18.01 C 67.06 18.02 64.81 18.30 62.75 18.64 L 59.00 19.26 L 59.00 14.69 C 59.00 7.05 56.51 7.40 55.18 15.23 C 54.47 19.40 54.36 19.51 50.23 19.81 L 46.00 20.11 L 46.00 16.06 C 46.00 12.67 45.67 12.00 44.00 12.00 C 42.30 12.00 42.00 12.67 42.00 16.38 C 42.00 21.10 40.90 21.96 34.75 21.99 C 32.21 22.00 32.00 21.70 32.00 18.00 C 32.00 14.73 31.65 14.00 30.09 14.00 C 28.44 14.00 28.24 14.57 28.64 18.03 C 29.07 21.80 28.89 22.14 26.05 23.13 C 22.44 24.39 22.60 20.86 24.50 57.50 C 25.29 72.90 25.96 87.53 25.97 90.00 L 26.00 94.51 L 18.50 94.65 L 11.00 94.80 L 10.92 59.65 C 10.88 40.32 10.77 20.74 10.67 16.15 C 10.58 11.56 10.80 7.32 11.17 6.72 C 11.63 5.98 22.06 5.53 43.57 5.33 C 61.02 5.17 75.53 4.81 75.81 4.52 C 76.10 4.23 60.28 4.00 40.67 4.00 L 5.01 4.00 L 5.16 49.25 C 5.24 74.14 5.49 94.84 5.71 95.25 C 5.94 95.66 11.94 96.00 19.06 96.00 L 32.00 96.00 L 32.00 92.44 Z M 95.74 74.30 C 95.56 70.01 95.40 73.25 95.40 81.50 C 95.40 89.75 95.55 93.26 95.74 89.30 C 95.93 85.33 95.93 78.58 95.74 74.30 Z M 8.08 75.42 C 8.13 74.25 8.36 74.01 8.68 74.81 C 8.97 75.53 8.94 76.40 8.60 76.73 C 8.27 77.06 8.04 76.47 8.08 75.42 Z M 72.41 71.73 C 78.60 68.19 80.50 64.88 80.50 57.64 C 80.50 52.50 80.07 50.88 78.00 48.32 C 68.99 37.13 51.91 41.75 49.50 56.03 C 48.08 64.41 56.36 73.99 65.00 73.97 C 66.92 73.97 70.26 72.96 72.41 71.73 Z M 60.76 66.48 C 54.43 62.95 53.64 55.16 59.15 50.53 C 63.38 46.97 68.27 47.12 72.08 50.92 C 79.68 58.53 70.11 71.69 60.76 66.48 Z M 8.16 64.00 C 8.16 62.62 8.38 62.06 8.66 62.75 C 8.94 63.44 8.94 64.56 8.66 65.25 C 8.38 65.94 8.16 65.38 8.16 64.00 Z M 8.08 58.42 C 8.13 57.25 8.36 57.01 8.68 57.81 C 8.97 58.53 8.94 59.40 8.60 59.73 C 8.27 60.06 8.04 59.47 8.08 58.42 Z M 8.08 41.42 C 8.13 40.25 8.36 40.01 8.68 40.81 C 8.97 41.53 8.94 42.40 8.60 42.73 C 8.27 43.06 8.04 42.47 8.08 41.42 Z M 7.60 27.40 C 7.24 26.47 7.18 25.49 7.45 25.21 C 7.73 24.94 8.24 25.47 8.60 26.40 C 8.96 27.33 9.02 28.31 8.75 28.59 C 8.47 28.86 7.96 28.33 7.60 27.40 Z M 91.75 4.26 C 89.14 4.06 84.86 4.06 82.25 4.26 C 79.64 4.47 81.78 4.64 87.00 4.64 C 92.22 4.64 94.36 4.47 91.75 4.26 Z" fill="none" stroke="rgba(255,255,255,0.92)" stroke-width="1.2" stroke-linejoin="round" fill-rule="evenodd"/>
</svg>
