<svg xmlns="http://www.w3.org/2000/svg" viewBox="0 0 100 100" width="100" height="100">
  <path d="M 0.00 50.00 L 0.00 0.00 L 50.00 0.00 L 100.00 0.00 L 100.00 50.00 L 100.00 100.00 L 50.00 100.00 L 0.00 100.00 L 0.00 50.00 Z M 10.00 59.50 L 10.00 23.00 L 49.54 23.00 C 80.60 23.00 89.05 23.27 88.93 24.25 C 88.84 24.94 88.82 41.36 88.88 60.75 L 89.00 96.00 L 92.15 96.00 L 95.31 96.00 L 94.66 62.75 C 94.31 44.46 94.02 23.76 94.01 16.75 L 94.00 4.00 L 90.25 4.12 C 88.19 4.18 87.22 4.43 88.10 4.66 C 89.71 5.09 89.73 5.43 88.50 13.25 L 87.91 17.00 L 45.95 17.00 L 4.00 17.00 L 4.00 56.50 L 4.00 96.00 L 7.00 96.00 L 10.00 96.00 L 10.00 59.50 Z M 20.71 76.42 C 20.82 65.65 21.17 56.05 21.47 55.08 C 22.71 51.19 46.02 48.96 67.75 50.65 L 76.00 51.30 L 76.00 73.65 L 76.00 96.00 L 79.00 96.00 L 82.00 96.00 L 82.00 79.65 C 82.00 70.66 81.72 59.30 81.37 54.40 C 80.79 46.27 80.55 45.49 78.62 45.35 C 77.45 45.26 68.40 44.88 58.50 44.49 C 41.66 43.83 39.74 43.95 28.71 46.27 C 22.22 47.63 16.63 49.04 16.27 49.40 C 15.91 49.76 15.42 60.39 15.18 73.02 L 14.75 96.00 L 17.62 96.00 L 20.50 96.00 L 20.71 76.42 Z M 78.80 33.25 L 78.50 26.50 L 66.75 26.22 L 55.00 25.94 L 55.00 32.97 L 55.00 40.00 L 67.05 40.00 L 79.09 40.00 L 78.80 33.25 Z M 7.68 4.81 C 7.36 4.01 7.13 4.25 7.08 5.42 C 7.04 6.47 7.27 7.06 7.60 6.73 C 7.94 6.40 7.97 5.53 7.68 4.81 Z M 33.18 4.78 C 32.47 4.07 32.00 4.01 32.00 4.63 C 32.00 5.97 33.18 7.15 33.85 6.48 C 34.13 6.20 33.83 5.43 33.18 4.78 Z M 30.45 4.93 C 29.77 3.83 15.32 3.67 14.66 4.75 C 14.40 5.16 17.98 5.58 22.61 5.68 C 27.56 5.78 30.79 5.47 30.45 4.93 Z M 59.00 5.00 C 59.00 4.45 58.55 4.00 58.00 4.00 C 57.45 4.00 57.00 4.45 57.00 5.00 C 57.00 5.55 57.45 6.00 58.00 6.00 C 58.55 6.00 59.00 5.55 59.00 5.00 Z M 68.00 5.00 C 68.00 4.45 66.76 4.01 65.25 4.02 C 63.11 4.03 62.83 4.24 64.00 5.00 C 65.96 6.26 68.00 6.26 68.00 5.00 Z M 82.00 5.00 C 86.31 4.19 86.23 4.17 80.25 4.41 C 76.81 4.55 73.70 4.97 73.33 5.33 C 72.46 6.21 76.39 6.06 82.00 5.00 Z M 41.73 4.40 C 41.40 4.06 40.53 4.03 39.81 4.32 C 39.01 4.64 39.25 4.87 40.42 4.92 C 41.47 4.96 42.06 4.73 41.73 4.40 Z" fill="none" stroke="rgba(255,255,255,0.92)" stroke-width="1.2" stroke-linejoin="round" fill-rule="evenodd"/>
</svg>
