<svg xmlns="http://www.w3.org/2000/svg" viewBox="0 0 100 100" width="100" height="100">
  <path d="M 0.00 50.00 L 0.00 0.00 L 50.00 0.00 L 100.00 0.00 L 100.00 50.00 L 100.00 100.00 L 50.00 100.00 L 0.00 100.00 L 0.00 50.00 Z M 64.80 92.41 L 96.10 91.69 L 95.80 89.10 L 95.50 86.50 L 83.00 86.64 C 76.12 86.72 57.90 87.10 42.50 87.48 L 14.50 88.18 L 14.50 83.34 L 14.50 78.50 L 19.25 77.95 L 24.00 77.41 L 24.00 81.70 C 24.00 85.33 24.31 86.00 26.00 86.00 C 27.70 86.00 28.00 85.33 28.00 81.50 L 28.00 77.00 L 32.94 77.00 L 37.89 77.00 L 38.19 81.25 C 38.41 84.22 38.95 85.50 40.00 85.50 C 41.08 85.50 41.59 84.17 41.80 80.75 L 42.11 76.00 L 46.54 76.00 C 50.33 76.00 51.05 76.33 51.54 78.31 C 51.86 79.59 51.98 81.25 51.81 82.01 C 51.64 82.76 52.29 83.55 53.25 83.76 C 54.69 84.08 55.00 83.44 55.00 80.20 C 55.00 76.58 55.26 76.20 58.12 75.62 C 64.32 74.39 64.86 74.66 65.19 79.25 C 65.41 82.22 65.95 83.50 67.00 83.50 C 68.07 83.50 68.52 82.36 68.56 79.50 C 68.61 76.02 68.94 75.46 71.06 75.23 C 72.40 75.08 75.02 74.71 76.89 74.41 L 80.28 73.86 L 79.64 67.18 C 79.29 63.51 78.32 51.28 77.50 40.00 C 76.68 28.72 75.80 17.25 75.55 14.50 C 75.30 11.75 75.07 8.26 75.04 6.75 C 75.01 4.34 74.61 4.00 71.86 4.00 L 68.72 4.00 L 69.35 11.25 C 69.70 15.24 70.47 25.93 71.07 35.00 C 71.66 44.08 72.51 55.10 72.94 59.50 C 73.38 63.90 73.46 67.80 73.12 68.17 C 72.53 68.79 48.14 70.35 17.82 71.69 L 4.15 72.29 L 4.08 83.19 L 4.01 94.09 L 18.75 93.61 C 26.86 93.34 47.59 92.80 64.80 92.41 Z M 11.81 88.32 C 12.53 88.03 13.40 88.06 13.73 88.40 C 14.06 88.73 13.47 88.96 12.42 88.92 C 11.25 88.87 11.01 88.64 11.81 88.32 Z M 7.45 83.25 C 7.49 79.72 7.88 78.50 9.00 78.50 C 10.08 78.50 10.59 79.83 10.80 83.25 C 11.07 87.32 10.84 88.00 9.26 88.00 C 7.71 88.00 7.41 87.22 7.45 83.25 Z" fill="none" stroke="rgba(255,255,255,0.92)" stroke-width="1.2" stroke-linejoin="round" fill-rule="evenodd"/>
</svg>
