<svg xmlns="http://www.w3.org/2000/svg" viewBox="0 0 100 100" width="100" height="100">
  <path d="M 0.00 50.00 L 0.00 0.00 L 50.00 0.00 L 100.00 0.00 L 100.00 50.00 L 100.00 100.00 L 50.00 100.00 L 0.00 100.00 L 0.00 50.00 Z M 68.00 94.88 C 80.93 94.77 92.49 94.32 93.71 93.88 L 95.92 93.08 L 95.58 65.29 C 95.39 50.01 95.18 29.96 95.12 20.75 L 95.00 4.00 L 91.84 4.00 L 88.68 4.00 L 89.37 34.92 L 90.06 65.83 L 77.78 66.22 C 71.03 66.43 53.24 66.72 38.25 66.84 L 11.00 67.08 L 11.00 41.69 C 11.00 27.72 10.71 13.53 10.36 10.15 C 9.77 4.54 9.51 4.00 7.36 4.00 L 5.00 4.00 L 5.00 33.86 C 5.00 50.28 4.70 65.88 4.34 68.51 L 3.69 73.31 L 46.84 72.58 L 90.00 71.86 L 90.00 80.43 C 90.00 85.14 89.89 89.02 89.75 89.05 C 89.61 89.07 71.28 89.31 49.00 89.58 C 26.73 89.84 7.49 90.28 6.25 90.55 C 4.70 90.89 4.00 91.76 4.00 93.37 L 4.00 95.70 L 24.25 95.39 C 35.39 95.21 55.07 94.98 68.00 94.88 Z M 28.00 92.94 C 28.00 92.36 28.45 92.16 29.00 92.50 C 29.55 92.84 30.00 93.32 30.00 93.56 C 30.00 93.80 29.55 94.00 29.00 94.00 C 28.45 94.00 28.00 93.52 28.00 92.94 Z M 92.00 74.00 C 92.00 73.45 92.48 73.00 93.06 73.00 C 93.64 73.00 93.84 73.45 93.50 74.00 C 93.16 74.55 92.68 75.00 92.44 75.00 C 92.20 75.00 92.00 74.55 92.00 74.00 Z M 62.99 59.51 C 64.86 57.26 63.40 53.14 60.47 52.40 C 56.26 51.35 53.85 54.83 55.61 59.42 C 56.38 61.43 61.34 61.50 62.99 59.51 Z M 76.85 52.25 C 81.47 48.34 79.89 41.88 73.96 40.49 C 70.11 39.58 66.00 43.21 66.00 47.52 C 66.00 53.20 72.41 56.00 76.85 52.25 Z M 63.29 39.11 C 72.52 38.09 80.23 37.09 80.41 36.88 C 80.59 36.67 80.97 29.19 81.24 20.25 L 81.74 4.00 L 78.98 4.00 L 76.22 4.00 L 75.51 17.82 L 74.79 31.65 L 64.15 33.07 C 53.29 34.53 23.72 35.06 22.48 33.81 C 22.10 33.44 21.55 26.58 21.25 18.56 L 20.71 4.00 L 17.85 4.00 C 15.12 4.00 15.00 4.19 15.00 8.75 C 15.01 11.36 15.30 19.21 15.65 26.18 L 16.30 38.87 L 22.40 39.81 C 32.17 41.31 45.28 41.09 63.29 39.11 Z" fill="none" stroke="rgba(255,255,255,0.92)" stroke-width="1.2" stroke-linejoin="round" fill-rule="evenodd"/>
</svg>
