<svg xmlns="http://www.w3.org/2000/svg" viewBox="0 0 100 100" width="100" height="100">
  <path d="M 0.00 50.00 L 0.00 0.00 L 50.00 0.00 L 100.00 0.00 L 100.00 50.00 L 100.00 100.00 L 50.00 100.00 L 0.00 100.00 L 0.00 50.00 Z M 30.50 94.97 C 31.05 94.85 31.95 94.84 32.50 94.94 C 34.06 95.21 54.65 94.92 90.25 94.13 C 95.65 94.01 96.00 93.85 96.00 91.55 L 96.00 89.10 L 53.80 89.30 L 11.59 89.50 L 11.32 48.00 C 11.17 25.17 11.04 5.94 11.02 5.25 C 11.01 4.55 9.75 4.00 8.15 4.00 L 5.31 4.00 L 5.59 19.25 C 5.74 27.64 5.89 48.30 5.93 65.17 L 6.00 95.85 L 17.75 95.51 C 24.21 95.32 29.95 95.08 30.50 94.97 Z M 60.00 83.00 L 60.00 78.00 L 65.00 78.00 L 70.00 78.00 L 70.00 83.07 C 70.00 87.36 70.27 88.10 71.75 87.81 C 73.07 87.56 73.58 86.31 73.80 82.74 L 74.11 78.00 L 79.00 78.00 L 83.89 78.00 L 84.20 82.75 C 84.41 86.12 84.93 87.50 85.97 87.50 C 87.09 87.50 87.36 86.39 87.14 82.75 L 86.85 78.00 L 91.42 78.00 C 95.84 78.00 96.00 77.90 96.00 75.00 L 96.00 72.00 L 72.25 71.85 C 59.19 71.77 44.00 71.66 38.50 71.60 L 28.50 71.50 L 28.19 64.50 C 27.90 57.80 30.41 17.11 31.66 8.25 C 32.25 4.08 32.21 4.00 29.32 4.00 L 26.38 4.00 L 25.18 14.25 C 24.03 24.16 22.77 41.83 21.48 66.25 L 20.86 78.00 L 24.93 78.00 L 29.00 78.00 L 29.00 82.50 C 29.00 86.33 29.30 87.00 31.00 87.00 C 32.70 87.00 33.00 86.33 33.00 82.50 L 33.00 78.00 L 38.00 78.00 L 43.00 78.00 L 43.00 82.57 C 43.00 86.39 43.29 87.09 44.75 86.80 C 46.07 86.54 46.50 85.47 46.50 82.48 L 46.50 78.50 L 51.50 78.50 L 56.50 78.50 L 56.63 82.50 C 56.81 88.00 56.81 88.00 58.50 88.00 C 59.63 88.00 60.00 86.78 60.00 83.00 Z M 75.00 33.75 C 74.99 31.41 74.70 23.76 74.34 16.75 C 73.81 6.40 73.41 4.00 72.20 4.00 C 70.30 4.00 41.83 23.16 42.59 23.93 C 43.21 24.54 73.01 37.68 74.25 37.88 C 74.66 37.95 75.00 36.09 75.00 33.75 Z M 61.30 25.67 C 58.43 24.44 55.82 23.16 55.49 22.83 C 55.16 22.50 57.84 20.17 61.45 17.65 L 68.00 13.07 L 68.01 16.78 C 68.02 18.83 68.30 22.19 68.64 24.25 C 69.38 28.75 68.71 28.88 61.30 25.67 Z" fill="none" stroke="rgba(255,255,255,0.92)" stroke-width="1.2" stroke-linejoin="round" fill-rule="evenodd"/>
</svg>
