<svg xmlns="http://www.w3.org/2000/svg" viewBox="0 0 100 100" width="100" height="100">
  <path d="M 0.00 50.00 L 0.00 0.00 L 50.00 0.00 L 100.00 0.00 L 100.00 50.00 L 100.00 100.00 L 50.00 100.00 L 0.00 100.00 L 0.00 50.00 Z M 30.18 93.25 L 30.50 90.50 L 49.00 90.74 C 59.17 90.88 72.67 90.43 79.00 89.74 L 90.50 88.50 L 90.18 83.50 C 90.01 80.75 88.77 73.00 87.43 66.28 C 84.59 52.01 84.46 47.18 86.52 32.53 C 87.35 26.57 87.92 21.60 87.77 21.47 C 87.62 21.33 83.00 21.65 77.50 22.16 C 64.48 23.38 31.57 23.34 22.02 22.10 C 17.90 21.57 14.46 21.21 14.37 21.31 C 14.28 21.42 14.69 27.23 15.28 34.24 C 15.87 41.24 16.10 47.23 15.78 47.55 C 15.47 47.86 12.69 48.38 9.61 48.70 C 4.20 49.26 4.00 49.38 4.00 52.23 L 4.00 55.18 L 12.25 54.47 C 26.42 53.25 25.53 53.11 25.29 56.50 C 25.17 58.15 24.76 67.07 24.39 76.32 L 23.70 93.14 L 13.85 92.44 C 4.25 91.76 4.00 91.80 4.00 93.87 C 4.00 95.93 4.41 96.00 16.93 96.00 L 29.87 96.00 L 30.18 93.25 Z M 95.76 50.50 L 95.51 5.00 L 49.82 5.00 L 4.12 5.00 L 4.26 7.25 C 4.34 8.49 4.88 9.83 5.45 10.24 C 6.03 10.65 16.85 10.96 29.50 10.93 C 42.15 10.90 61.80 10.90 73.16 10.94 L 93.82 11.00 L 93.86 24.75 C 93.87 32.31 93.91 51.44 93.94 67.25 C 93.98 85.87 94.36 96.00 95.01 96.00 C 95.67 96.00 95.93 80.58 95.76 50.50 Z M 31.75 84.38 C 30.25 83.93 30.00 82.59 30.03 75.18 C 30.05 70.40 30.44 63.58 30.90 60.00 C 31.36 56.42 31.52 52.04 31.25 50.25 C 30.80 47.17 30.55 47.00 26.52 47.00 C 22.38 47.00 22.24 46.90 21.64 43.25 C 21.30 41.19 21.02 37.02 21.01 34.00 L 21.00 28.50 L 51.09 28.50 L 81.18 28.50 L 80.64 32.00 C 78.63 45.09 78.80 52.57 81.39 65.11 C 84.64 80.81 84.67 82.56 81.75 83.44 C 78.99 84.28 34.19 85.11 31.75 84.38 Z M 4.74 33.78 C 4.54 30.88 4.37 33.00 4.37 38.50 C 4.36 44.00 4.53 46.38 4.73 43.78 C 4.94 41.19 4.94 36.69 4.74 33.78 Z M 4.69 23.25 C 4.44 22.29 4.23 23.07 4.23 25.00 C 4.23 26.93 4.44 27.71 4.69 26.75 C 4.94 25.79 4.94 24.21 4.69 23.25 Z M 4.69 16.27 C 4.44 15.30 4.22 15.85 4.19 17.50 C 4.17 19.15 4.38 19.95 4.66 19.27 C 4.93 18.59 4.95 17.24 4.69 16.27 Z M 4.68 11.81 C 4.36 11.01 4.13 11.25 4.08 12.42 C 4.04 13.47 4.27 14.06 4.60 13.73 C 4.94 13.40 4.97 12.53 4.68 11.81 Z M 7.50 8.00 C 7.11 7.36 9.99 7.00 15.50 7.00 C 20.24 7.00 23.90 7.35 23.64 7.78 C 22.91 8.96 8.22 9.16 7.50 8.00 Z M 25.54 7.94 C 26.19 6.88 64.00 7.12 64.00 8.19 C 64.00 8.57 55.22 8.87 44.48 8.87 C 32.75 8.87 25.19 8.49 25.54 7.94 Z M 74.00 7.86 C 74.00 7.39 75.12 7.00 76.50 7.00 C 77.88 7.00 79.00 7.17 79.00 7.38 C 79.00 7.59 77.88 7.98 76.50 8.24 C 75.12 8.51 74.00 8.34 74.00 7.86 Z M 67.81 7.32 C 68.53 7.03 69.40 7.06 69.73 7.40 C 70.06 7.73 69.47 7.96 68.42 7.92 C 67.25 7.87 67.01 7.64 67.81 7.32 Z M 81.75 7.34 C 82.44 7.06 83.56 7.06 84.25 7.34 C 84.94 7.62 84.38 7.84 83.00 7.84 C 81.62 7.84 81.06 7.62 81.75 7.34 Z M 88.75 7.34 C 89.44 7.06 90.56 7.06 91.25 7.34 C 91.94 7.62 91.38 7.84 90.00 7.84 C 88.62 7.84 88.06 7.62 88.75 7.34 Z" fill="none" stroke="rgba(255,255,255,0.92)" stroke-width="1.2" stroke-linejoin="round" fill-rule="evenodd"/>
</svg>
