<svg xmlns="http://www.w3.org/2000/svg" viewBox="0 0 395 400" width="395" height="400">
  <path d="M 0.00 397.00 C 0.00 394.38 0.36 394.00 2.79 394.00 C 5.93 394.00 10.72 389.46 17.95 379.62 L 22.27 373.73 L 32.38 374.42 C 40.07 374.95 42.22 374.84 41.35 373.95 C 40.71 373.31 36.34 372.55 31.63 372.26 L 23.06 371.72 L 25.02 368.98 C 27.79 365.08 31.00 357.27 31.00 354.42 C 31.00 352.42 30.50 352.00 28.14 352.00 C 25.64 352.00 25.04 352.60 23.49 356.75 C 22.51 359.36 20.15 363.86 18.25 366.75 C 14.51 372.45 13.95 372.64 4.64 371.36 L -0.00 370.73 L -0.00 185.36 L 0.00 0.00 L 197.50 0.00 L 395.00 0.00 L 395.00 200.00 L 395.00 400.00 L 197.50 400.00 L 0.00 400.00 L 0.00 397.00 Z M 36.00 396.65 C 36.00 395.17 30.77 382.35 29.77 381.37 C 27.55 379.20 23.10 378.59 22.42 380.35 C 21.76 382.06 26.12 392.37 28.70 395.22 C 30.03 396.69 36.00 397.85 36.00 396.65 Z M 199.67 393.46 C 233.68 393.10 261.83 392.50 262.22 392.13 C 262.62 391.76 263.02 364.66 263.11 331.91 L 263.27 272.37 L 276.88 272.56 C 284.37 272.66 312.66 273.08 339.75 273.49 L 389.00 274.24 L 389.10 266.87 C 389.15 262.82 389.38 232.75 389.59 200.06 C 389.90 153.37 389.72 140.44 388.74 139.82 C 388.06 139.39 378.69 139.02 367.91 139.02 C 357.14 139.01 329.37 138.70 306.21 138.34 C 269.09 137.75 264.01 137.49 263.40 136.09 C 263.03 135.21 262.55 106.16 262.34 71.53 C 262.13 36.89 261.60 8.20 261.17 7.77 C 259.77 6.37 9.30 7.08 7.03 8.48 C 6.65 8.72 6.46 23.44 6.61 41.20 C 6.76 58.97 7.21 114.90 7.61 165.50 C 8.01 216.10 8.44 259.07 8.56 261.00 C 8.68 262.93 8.83 267.34 8.89 270.82 L 9.00 277.13 L 20.25 276.53 C 44.32 275.25 85.11 273.99 110.77 273.73 L 133.04 273.50 L 133.63 317.00 C 133.96 340.93 134.31 362.30 134.41 364.50 C 134.51 366.70 134.69 374.51 134.80 381.86 C 134.97 392.93 135.24 395.12 136.42 394.67 C 137.20 394.37 165.66 393.83 199.67 393.46 Z M 139.30 390.68 C 138.99 390.18 139.30 389.44 139.97 389.02 C 141.86 387.85 141.26 277.84 139.35 274.75 C 137.93 272.46 137.50 275.29 137.50 286.90 C 137.50 294.00 137.76 299.39 138.07 298.89 C 138.94 297.48 138.43 337.25 137.55 339.25 C 137.10 340.29 137.21 341.00 137.83 341.00 C 138.48 341.00 138.77 343.73 138.62 348.25 C 138.48 352.24 138.80 356.50 139.33 357.72 C 140.01 359.30 139.91 360.40 138.99 361.52 C 136.70 364.27 136.29 361.51 136.24 343.18 C 136.21 333.45 136.08 313.99 135.95 299.93 C 135.74 277.14 135.90 274.08 137.44 271.73 C 139.24 268.99 138.84 266.74 136.72 267.56 C 135.78 267.92 135.58 262.75 135.86 244.76 C 136.10 228.56 136.49 222.41 137.13 224.50 C 137.64 226.15 137.84 228.68 137.58 230.13 C 137.31 231.58 137.57 234.49 138.15 236.60 C 138.92 239.36 138.90 240.53 138.11 240.80 C 136.85 241.22 136.62 244.28 137.75 245.42 C 138.94 246.60 138.99 254.18 137.83 257.87 C 136.99 260.51 137.06 261.43 138.13 262.12 C 139.29 262.86 139.28 263.14 138.11 263.89 C 137.00 264.61 137.14 265.01 138.83 265.91 C 140.18 266.63 140.73 267.64 140.37 268.77 C 140.02 269.85 140.13 270.07 140.66 269.36 C 141.23 268.59 149.52 268.08 166.50 267.75 C 180.25 267.49 190.82 267.51 190.00 267.79 C 189.18 268.07 188.25 268.69 187.94 269.16 C 187.42 269.95 184.50 270.16 176.50 269.98 C 174.85 269.95 172.15 269.97 170.50 270.03 C 168.85 270.10 166.04 269.84 164.25 269.46 C 162.32 269.05 161.00 269.17 161.00 269.76 C 161.00 270.30 159.20 270.70 157.00 270.64 C 154.80 270.58 153.00 270.19 153.00 269.77 C 153.00 269.35 150.86 269.04 148.25 269.10 C 144.21 269.18 143.88 269.33 146.00 270.09 C 148.18 270.86 148.06 270.93 145.00 270.62 C 141.09 270.23 139.00 270.73 139.00 272.06 C 139.00 272.57 163.60 272.71 197.50 272.39 L 256.00 271.84 L 256.08 274.17 C 256.12 275.45 256.23 302.25 256.33 333.72 L 256.50 390.94 L 226.00 390.95 C 209.22 390.95 182.98 391.10 167.68 391.27 C 151.91 391.44 139.61 391.18 139.30 390.68 Z M 0.00 382.00 L 0.00 373.00 L 2.75 373.06 C 4.26 373.09 7.21 373.43 9.31 373.81 L 13.11 374.50 L 7.07 382.75 C 3.74 387.29 0.79 391.00 0.51 391.00 C 0.23 391.00 0.00 386.95 0.00 382.00 Z M 177.83 388.97 C 183.75 388.95 185.08 388.70 183.67 387.87 C 182.19 387.02 162.54 387.21 160.00 388.11 C 158.96 388.48 167.56 389.69 168.83 389.35 C 169.56 389.16 173.61 388.99 177.83 388.97 Z M 223.00 388.34 C 237.03 388.03 248.69 387.60 248.92 387.39 C 249.15 387.18 235.20 387.02 217.92 387.05 C 190.12 387.09 186.85 387.25 189.50 388.50 C 191.15 389.27 193.62 389.68 195.00 389.40 C 196.38 389.13 208.97 388.65 223.00 388.34 Z M 154.16 387.94 C 152.69 387.35 151.21 387.36 150.16 387.97 C 148.89 388.71 149.45 388.93 152.50 388.91 C 156.00 388.88 156.21 388.76 154.16 387.94 Z M 137.00 377.21 C 137.00 372.83 136.74 367.94 136.42 366.34 C 135.94 363.93 136.18 363.41 137.86 363.29 C 139.79 363.14 139.88 363.64 139.70 373.73 C 139.56 381.18 139.13 384.46 138.25 384.75 C 137.32 385.06 137.00 383.13 137.00 377.21 Z M 259.08 383.42 C 259.13 382.25 259.36 382.01 259.68 382.81 C 259.97 383.53 259.94 384.40 259.60 384.73 C 259.27 385.06 259.04 384.47 259.08 383.42 Z M 259.00 378.56 C 259.00 377.15 259.45 376.00 260.00 376.00 C 260.55 376.00 261.00 376.87 261.00 377.94 C 261.00 379.01 260.55 380.16 260.00 380.50 C 259.43 380.85 259.00 380.01 259.00 378.56 Z M 258.43 323.50 C 258.47 295.73 258.82 273.00 259.21 273.00 C 260.83 273.00 261.81 281.20 261.46 291.78 C 261.25 297.98 260.81 303.50 260.48 304.03 C 260.15 304.56 260.12 305.39 260.42 305.87 C 260.71 306.34 260.92 315.68 260.89 326.62 C 260.85 337.55 260.85 351.68 260.87 358.00 C 260.89 364.32 260.70 370.51 260.44 371.75 C 258.82 379.39 258.36 368.37 258.43 323.50 Z M 16.00 366.80 C 16.00 364.89 10.80 360.00 8.77 360.00 C 7.18 360.00 7.38 360.59 10.12 364.00 C 13.25 367.90 16.00 369.21 16.00 366.80 Z M 20.00 357.59 C 20.00 357.37 19.02 355.35 17.81 353.09 C 15.93 349.56 15.17 349.00 12.31 349.00 C 10.49 349.00 9.00 349.35 9.00 349.77 C 9.00 350.20 10.38 352.22 12.07 354.27 C 14.08 356.71 15.99 358.00 17.57 358.00 C 18.91 358.00 20.00 357.82 20.00 357.59 Z M 13.42 273.15 C 14.41 272.16 15.92 271.95 18.52 272.44 C 23.25 273.33 22.22 274.36 16.48 274.47 C 12.65 274.54 12.22 274.35 13.42 273.15 Z M 45.00 272.06 C 45.00 270.24 47.03 269.89 48.58 271.44 C 50.00 272.85 49.90 273.00 47.57 273.00 C 46.16 273.00 45.00 272.58 45.00 272.06 Z M 65.00 271.07 C 65.00 269.30 68.70 268.97 71.60 270.47 L 74.50 271.99 L 69.75 271.99 C 67.14 272.00 65.00 271.58 65.00 271.07 Z M 74.44 270.53 C 72.60 269.14 72.67 269.06 75.67 269.03 C 77.41 269.01 79.06 269.56 79.34 270.25 C 79.74 271.25 80.03 271.24 80.74 270.24 C 81.35 269.37 84.81 268.96 91.82 268.92 C 97.42 268.88 102.00 268.49 102.00 268.04 C 102.00 266.77 22.96 268.59 16.50 270.02 C 13.75 270.62 11.00 269.85 11.00 268.48 C 11.00 267.37 11.66 267.13 13.42 267.57 L 15.85 268.18 L 15.37 237.34 C 15.10 220.38 14.80 199.67 14.69 191.33 C 14.59 182.99 14.17 175.84 13.77 175.44 C 13.37 175.04 12.36 175.28 11.52 175.98 C 10.18 177.09 9.99 176.41 9.94 170.37 C 9.51 118.88 9.65 68.00 10.23 68.00 C 10.62 68.00 10.67 66.54 10.33 64.75 C 9.99 62.96 10.06 61.82 10.48 62.21 C 10.91 62.60 11.26 75.12 11.28 90.04 C 11.30 116.23 12.17 125.96 14.78 129.30 C 17.41 132.66 20.29 145.91 18.09 144.56 C 17.59 144.25 16.13 144.42 14.84 144.93 C 12.46 145.89 12.84 146.04 18.37 146.34 C 21.08 146.49 21.38 146.99 24.09 155.78 C 25.66 160.89 27.43 169.85 28.02 175.71 C 29.10 186.27 31.31 198.64 32.29 199.63 C 32.58 199.91 34.94 199.42 37.54 198.54 C 40.14 197.66 42.49 197.16 42.77 197.44 C 43.51 198.18 41.04 206.67 38.24 213.00 C 35.23 219.81 28.84 237.18 29.22 237.52 C 29.37 237.66 37.38 239.60 47.00 241.83 C 65.69 246.17 73.77 248.51 92.00 254.89 C 98.33 257.10 104.27 258.93 105.21 258.96 C 106.36 258.99 107.25 257.77 107.92 255.25 C 109.84 248.07 111.99 232.45 112.02 225.50 C 112.07 212.21 115.87 202.19 124.16 193.43 C 127.52 189.87 128.79 187.90 127.88 187.65 C 127.12 187.44 122.45 186.34 117.50 185.20 C 102.42 181.75 99.81 180.01 107.54 178.56 C 109.50 178.19 111.32 177.32 111.59 176.63 C 111.85 175.94 110.74 172.25 109.12 168.44 C 103.89 156.12 101.74 148.11 101.62 140.45 C 101.55 136.45 101.88 132.80 102.33 132.34 C 103.37 131.29 165.43 131.30 169.39 132.34 L 172.27 133.11 L 171.60 127.16 L 170.92 121.21 L 202.21 120.73 C 220.21 120.46 237.22 119.70 242.25 118.95 C 250.01 117.78 251.00 117.40 251.00 115.57 C 250.99 111.65 247.14 87.32 245.57 81.27 C 243.53 73.38 243.55 57.42 245.62 43.42 C 247.65 29.64 247.72 28.50 246.50 28.52 C 245.95 28.53 236.92 29.17 226.43 29.92 C 205.93 31.41 170.08 30.94 157.60 29.02 C 153.81 28.44 150.62 28.09 150.51 28.23 C 150.41 28.38 150.94 36.32 151.71 45.87 C 152.47 55.42 152.89 63.44 152.65 63.68 C 151.78 64.55 120.82 66.52 120.33 65.73 C 119.61 64.56 120.84 51.11 122.75 39.28 C 123.65 33.66 124.19 28.88 123.95 28.66 C 123.70 28.45 118.33 28.92 112.00 29.73 C 97.51 31.57 49.20 31.89 36.56 30.22 C 31.64 29.58 27.52 29.15 27.40 29.27 C 27.28 29.40 27.82 38.95 28.60 50.50 C 30.29 75.46 30.30 117.53 28.62 118.85 C 26.77 120.29 15.06 123.91 14.61 123.18 C 14.17 122.46 13.58 72.22 13.99 70.50 C 14.13 69.95 14.14 69.05 14.03 68.50 C 13.91 67.95 13.75 55.78 13.66 41.45 L 13.50 15.41 L 29.50 15.20 C 38.30 15.08 64.73 14.88 88.23 14.74 L 130.97 14.50 L 131.23 39.25 C 131.40 55.12 131.86 63.91 132.50 63.75 C 133.13 63.59 133.51 55.13 133.54 41.00 C 133.56 28.62 133.89 17.38 134.28 16.00 C 134.67 14.62 134.72 14.07 134.41 14.76 C 133.69 16.31 132.00 15.40 132.00 13.46 C 132.00 12.02 135.66 12.01 139.12 13.44 C 140.01 13.81 166.34 14.20 197.62 14.31 L 254.50 14.50 L 254.69 20.50 C 255.26 38.29 255.45 134.21 254.92 135.71 C 254.34 137.37 250.90 137.49 199.40 137.64 C 169.21 137.73 143.26 137.59 141.75 137.32 C 139.58 136.94 139.00 136.29 139.00 134.25 C 139.00 131.04 137.52 132.27 137.45 135.53 C 137.42 137.47 138.19 138.13 141.71 139.17 C 146.83 140.68 146.81 142.50 141.68 142.50 C 138.72 142.50 138.13 142.82 138.55 144.17 C 138.84 145.08 138.61 146.12 138.04 146.47 C 137.47 146.83 137.00 146.42 137.00 145.56 C 137.00 144.70 136.56 144.00 136.03 144.00 C 135.50 144.00 135.32 144.68 135.64 145.50 C 136.53 147.82 135.00 147.28 132.82 144.50 C 131.03 142.22 130.39 142.05 125.58 142.62 C 121.17 143.14 120.20 142.96 119.65 141.53 C 119.07 140.02 119.70 139.87 125.42 140.16 C 132.36 140.53 134.03 139.47 133.97 134.76 C 133.94 132.57 133.91 132.56 132.81 134.50 C 131.15 137.43 129.90 138.05 126.00 137.92 C 114.37 137.54 102.63 138.11 104.00 139.00 C 104.83 139.53 106.74 139.98 108.25 139.98 C 109.76 139.99 111.00 140.45 111.00 141.00 C 111.00 141.55 111.79 141.99 112.75 141.98 C 114.25 141.97 114.28 141.83 113.00 141.00 C 111.86 140.26 112.26 140.03 114.69 140.02 C 116.45 140.01 118.13 140.40 118.42 140.88 C 119.13 142.02 113.67 143.28 108.25 143.24 C 105.91 143.22 103.74 143.61 103.44 144.10 C 103.12 144.62 108.84 145.00 116.82 145.00 C 126.79 145.00 131.03 145.36 131.72 146.25 C 132.29 146.99 132.79 164.43 132.96 189.00 C 133.11 211.82 133.30 238.56 133.37 248.41 L 133.50 266.32 L 125.50 266.62 C 121.10 266.78 114.46 266.93 110.75 266.96 C 106.64 266.98 104.00 267.42 104.00 268.07 C 104.00 268.78 105.93 268.93 109.75 268.50 C 113.57 268.08 115.03 268.19 114.10 268.83 C 112.97 269.62 113.06 269.90 114.60 270.37 C 115.65 270.68 114.25 270.73 111.50 270.48 C 107.80 270.13 106.89 270.29 108.00 271.07 C 109.15 271.89 108.92 271.97 107.00 271.45 C 103.74 270.56 103.77 270.56 101.83 271.42 C 100.91 271.82 99.25 271.67 98.14 271.08 C 95.47 269.65 92.69 269.68 93.58 271.13 C 94.28 272.25 93.66 272.20 84.61 270.33 C 82.59 269.91 81.93 270.07 82.42 270.87 C 83.47 272.58 76.77 272.30 74.44 270.53 Z M 259.00 271.00 C 259.00 270.45 259.42 270.00 259.94 270.00 C 260.46 270.00 261.16 270.45 261.50 271.00 C 261.84 271.55 261.42 272.00 260.56 272.00 C 259.70 272.00 259.00 271.55 259.00 271.00 Z M 385.57 271.11 C 385.22 270.55 384.39 270.29 383.72 270.54 C 383.05 270.79 381.15 270.55 379.50 270.01 L 376.50 269.02 L 379.70 269.33 C 381.46 269.50 382.67 269.27 382.39 268.82 C 382.11 268.37 382.58 268.00 383.44 268.00 C 384.30 268.00 385.05 267.21 385.10 266.25 C 385.16 265.29 385.57 266.07 386.03 267.99 C 386.87 271.59 386.68 272.91 385.57 271.11 Z M 51.50 270.00 C 51.84 269.45 53.44 269.00 55.06 269.00 C 56.68 269.00 58.00 269.45 58.00 270.00 C 58.00 270.55 56.40 271.00 54.44 271.00 C 52.32 271.00 51.13 270.60 51.50 270.00 Z M 121.63 269.79 C 122.00 269.18 121.90 268.93 121.40 269.22 C 120.91 269.51 119.60 269.39 118.50 268.95 C 117.26 268.45 120.05 268.11 125.81 268.07 C 131.88 268.02 134.90 268.35 134.49 269.02 C 134.14 269.58 133.47 269.79 133.00 269.50 C 132.53 269.21 131.88 269.38 131.57 269.89 C 131.26 270.39 128.74 270.83 125.98 270.85 C 122.58 270.87 121.17 270.53 121.63 269.79 Z M 217.50 270.00 C 217.16 269.45 217.61 269.00 218.50 269.00 C 219.39 269.00 219.84 269.45 219.50 270.00 C 219.16 270.55 218.71 271.00 218.50 271.00 C 218.29 271.00 217.84 270.55 217.50 270.00 Z M 243.00 270.00 C 241.71 269.16 241.73 269.03 243.19 269.02 C 244.12 269.01 245.16 269.45 245.50 270.00 C 246.28 271.27 244.96 271.27 243.00 270.00 Z M 250.50 270.00 C 249.72 268.73 251.04 268.73 253.00 270.00 C 254.29 270.84 254.27 270.97 252.81 270.98 C 251.88 270.99 250.84 270.55 250.50 270.00 Z M 256.00 269.50 C 256.00 268.68 256.18 268.00 256.39 268.00 C 256.61 268.00 257.05 268.68 257.36 269.50 C 257.68 270.32 257.50 271.00 256.97 271.00 C 256.44 271.00 256.00 270.32 256.00 269.50 Z M 273.81 270.32 C 274.53 270.03 275.40 270.06 275.73 270.40 C 276.06 270.73 275.47 270.96 274.42 270.92 C 273.25 270.87 273.01 270.64 273.81 270.32 Z M 329.00 269.94 C 329.00 269.05 327.30 268.85 322.75 269.21 C 319.31 269.48 313.57 269.40 310.00 269.02 C 305.57 268.56 309.55 268.31 322.50 268.24 C 340.30 268.14 343.32 268.77 333.25 270.46 C 330.16 270.98 329.00 270.84 329.00 269.94 Z M 342.00 269.90 C 342.00 269.41 343.12 269.00 344.50 269.00 C 345.88 269.00 347.00 268.55 347.00 268.00 C 347.00 267.43 343.89 266.98 339.75 266.96 C 317.31 266.85 265.32 265.83 264.27 265.49 C 263.32 265.17 263.04 251.62 263.02 205.07 L 262.99 145.07 L 305.24 145.60 C 328.49 145.89 355.35 146.22 364.94 146.33 L 382.38 146.53 L 382.44 206.77 L 382.50 267.00 L 365.25 267.00 C 353.78 267.00 348.00 267.35 348.00 268.06 C 348.00 268.64 348.38 268.89 348.84 268.60 C 349.30 268.32 350.98 268.48 352.59 268.96 L 355.50 269.83 L 352.50 270.08 C 344.22 270.76 342.00 270.72 342.00 269.90 Z M 357.00 269.50 C 355.65 267.87 356.24 267.69 359.83 268.65 C 361.58 269.12 361.83 269.49 360.83 270.12 C 358.97 271.30 358.42 271.21 357.00 269.50 Z M 363.56 270.23 C 361.91 268.58 363.57 268.00 368.25 268.60 C 376.04 269.58 377.00 270.67 370.15 270.73 C 366.83 270.76 363.87 270.54 363.56 270.23 Z M 196.56 269.10 C 196.26 268.61 196.72 267.94 197.59 267.60 C 200.08 266.65 201.00 266.89 201.00 268.50 C 201.00 270.11 197.48 270.59 196.56 269.10 Z M 207.36 268.50 C 208.36 267.50 210.63 267.05 214.18 267.14 C 217.11 267.21 218.49 267.47 217.25 267.71 C 216.01 267.94 215.00 268.56 215.00 269.07 C 215.00 269.58 214.32 270.00 213.50 270.00 C 212.68 270.00 212.00 269.55 212.00 269.00 C 212.00 268.45 211.32 268.00 210.50 268.00 C 209.68 268.00 209.00 268.45 209.00 269.00 C 209.00 269.55 208.29 270.00 207.43 270.00 C 206.03 270.00 206.02 269.83 207.36 268.50 Z M 221.50 269.00 C 221.13 268.40 222.49 268.00 224.94 268.00 C 227.17 268.00 229.00 268.45 229.00 269.00 C 229.00 269.55 227.45 270.00 225.56 270.00 C 223.67 270.00 221.84 269.55 221.50 269.00 Z M 233.10 269.06 C 232.10 268.44 232.07 268.07 232.98 267.51 C 233.64 267.11 234.62 267.22 235.17 267.77 C 236.48 269.08 234.80 270.11 233.10 269.06 Z M 269.00 268.97 C 269.00 268.44 269.68 268.00 270.50 268.00 C 271.32 268.00 272.00 268.18 272.00 268.39 C 272.00 268.61 271.32 269.05 270.50 269.36 C 269.68 269.68 269.00 269.50 269.00 268.97 Z M 288.44 268.91 C 288.13 268.41 289.03 268.00 290.44 268.00 C 293.51 268.00 293.75 268.57 291.00 269.29 C 289.90 269.58 288.75 269.40 288.44 268.91 Z M 294.95 268.95 C 293.95 268.32 295.04 268.03 298.42 268.02 C 303.81 268.00 304.14 268.40 299.45 269.29 C 297.78 269.61 295.75 269.46 294.95 268.95 Z M 247.81 268.32 C 248.53 268.03 249.40 268.06 249.73 268.40 C 250.06 268.73 249.47 268.96 248.42 268.92 C 247.25 268.87 247.01 268.64 247.81 268.32 Z M 258.77 257.25 C 259.46 241.15 260.75 238.71 260.61 253.75 C 260.55 260.49 260.11 266.00 259.64 266.00 C 259.17 266.00 259.05 266.68 259.36 267.50 C 259.68 268.32 259.56 269.00 259.10 269.00 C 258.64 269.00 258.49 263.71 258.77 257.25 Z M 261.00 267.44 C 261.00 266.58 261.46 266.16 262.02 266.51 C 262.58 266.86 262.77 267.56 262.46 268.07 C 261.60 269.46 261.00 269.20 261.00 267.44 Z M 11.08 254.81 C 11.03 248.00 11.42 242.86 12.00 242.50 C 12.55 242.16 12.97 241.12 12.93 240.19 C 12.87 238.80 12.70 238.86 11.96 240.50 C 11.30 241.98 11.07 241.06 11.07 237.00 C 11.07 233.97 10.93 229.03 10.75 226.00 C 10.55 222.63 10.90 220.02 11.64 219.25 C 13.27 217.58 14.00 217.67 14.00 219.56 C 14.00 220.48 13.53 220.83 12.86 220.41 C 12.03 219.90 11.93 220.52 12.50 222.60 C 13.63 226.78 14.24 266.81 13.14 265.14 C 12.38 263.99 12.16 263.99 11.70 265.14 C 11.40 265.89 11.12 261.24 11.08 254.81 Z M 140.94 263.58 C 140.19 236.54 139.60 146.07 140.16 145.50 C 140.44 145.22 166.26 144.99 197.52 144.98 C 238.88 144.98 254.56 145.28 255.07 146.11 C 255.45 146.74 255.86 162.15 255.97 180.37 C 256.09 198.59 256.25 225.20 256.34 239.50 L 256.50 265.50 L 198.75 265.58 L 141.00 265.65 L 140.94 263.58 Z M 384.16 263.00 C 384.16 261.62 384.38 261.06 384.66 261.75 C 384.94 262.44 384.94 263.56 384.66 264.25 C 384.38 264.94 384.16 264.38 384.16 263.00 Z M 385.73 260.40 C 385.33 259.99 385.01 258.73 385.03 257.58 C 385.06 255.66 385.14 255.64 386.10 257.29 C 387.22 259.21 386.93 261.60 385.73 260.40 Z M 384.86 253.25 C 384.58 249.71 385.20 243.48 385.92 242.72 C 386.32 242.30 386.70 244.88 386.75 248.47 C 386.81 252.06 386.43 255.00 385.93 255.00 C 385.42 255.00 384.94 254.21 384.86 253.25 Z M 89.50 245.86 C 77.51 241.26 64.98 237.60 50.50 234.47 C 38.08 231.78 38.55 232.78 43.64 220.09 C 46.06 214.06 48.90 205.61 49.95 201.31 C 52.59 190.57 55.00 178.50 55.00 176.04 C 55.00 174.73 55.65 174.00 56.82 174.00 C 59.72 174.00 73.88 178.47 84.63 182.78 C 90.06 184.95 98.51 187.91 103.40 189.35 C 108.30 190.79 112.53 192.20 112.81 192.47 C 113.08 192.75 111.92 196.02 110.23 199.74 C 105.93 209.16 104.98 213.46 103.94 227.90 C 102.73 244.93 101.97 248.45 99.49 248.71 C 98.39 248.83 93.90 247.54 89.50 245.86 Z M 385.32 235.75 C 385.38 232.59 385.78 230.00 386.21 230.00 C 387.17 230.00 387.05 234.40 385.99 238.50 C 385.38 240.85 385.23 240.25 385.32 235.75 Z M 259.00 237.94 C 259.00 236.81 259.45 236.16 260.00 236.50 C 260.55 236.84 261.00 237.77 261.00 238.56 C 261.00 239.35 260.55 240.00 260.00 240.00 C 259.45 240.00 259.00 239.07 259.00 237.94 Z M 259.00 230.50 C 259.00 229.68 259.45 229.00 260.00 229.00 C 260.55 229.00 261.00 229.68 261.00 230.50 C 261.00 231.32 260.55 232.00 260.00 232.00 C 259.45 232.00 259.00 231.32 259.00 230.50 Z M 385.08 226.42 C 385.13 225.25 385.36 225.01 385.68 225.81 C 385.97 226.53 385.94 227.40 385.60 227.73 C 385.27 228.06 385.04 227.47 385.08 226.42 Z M 259.00 223.00 C 259.00 220.51 259.40 219.13 260.00 219.50 C 260.55 219.84 261.00 221.41 261.00 223.00 C 261.00 224.59 260.55 226.16 260.00 226.50 C 259.40 226.87 259.00 225.49 259.00 223.00 Z M 385.08 221.42 C 385.13 220.25 385.36 220.01 385.68 220.81 C 385.97 221.53 385.94 222.40 385.60 222.73 C 385.27 223.06 385.04 222.47 385.08 221.42 Z M 135.98 213.00 C 135.08 170.98 135.08 153.00 135.98 153.00 C 136.54 153.00 137.03 153.34 137.07 153.75 C 137.57 159.13 137.37 217.38 136.85 218.70 C 136.46 219.70 136.07 217.15 135.98 213.00 Z M 10.36 213.47 C 10.31 210.49 10.66 208.29 11.14 208.59 C 11.61 208.88 12.00 208.16 12.00 207.00 C 12.00 205.84 11.55 205.16 11.00 205.50 C 10.39 205.88 10.00 204.34 10.00 201.56 C 10.00 198.34 10.41 197.00 11.38 197.00 C 14.35 197.00 14.55 215.47 11.61 217.91 C 10.73 218.64 10.41 217.51 10.36 213.47 Z M 385.65 217.53 C 385.34 216.72 385.52 215.80 386.04 215.47 C 386.57 215.15 387.00 215.81 387.00 216.94 C 387.00 219.36 386.44 219.60 385.65 217.53 Z M 259.08 216.42 C 259.13 215.25 259.36 215.01 259.68 215.81 C 259.97 216.53 259.94 217.40 259.60 217.73 C 259.27 218.06 259.04 217.47 259.08 216.42 Z M 258.76 212.74 C 258.51 212.06 258.44 209.47 258.60 207.00 C 258.76 204.53 258.92 201.86 258.95 201.08 C 258.98 200.30 259.32 199.99 259.71 200.38 C 260.74 201.41 261.02 212.87 260.03 213.48 C 259.58 213.76 259.01 213.43 258.76 212.74 Z M 385.15 209.50 C 385.17 205.18 385.29 204.89 386.02 207.34 C 386.50 208.92 386.49 211.13 386.00 212.34 C 385.33 213.99 385.13 213.32 385.15 209.50 Z M 385.12 190.95 C 385.33 175.86 386.93 174.74 387.12 189.55 C 387.29 202.67 387.19 204.00 385.97 204.00 C 385.30 204.00 385.00 199.39 385.12 190.95 Z M 10.61 192.42 C 9.70 190.06 9.87 188.80 11.00 189.50 C 11.55 189.84 12.00 189.16 12.00 188.00 C 12.00 186.84 11.55 186.16 11.00 186.50 C 10.40 186.87 10.00 185.51 10.00 183.06 C 10.00 180.12 10.41 179.00 11.50 179.00 C 12.32 179.00 13.00 179.70 13.00 180.56 C 13.00 181.42 12.55 181.84 12.00 181.50 C 11.45 181.16 11.00 181.58 11.00 182.44 C 11.00 183.30 11.45 184.00 12.00 184.00 C 12.55 184.00 13.00 186.25 13.00 189.00 C 13.00 193.89 11.82 195.58 10.61 192.42 Z M 258.54 185.15 C 258.74 180.28 258.98 175.90 259.07 175.40 C 259.16 174.91 259.11 174.05 258.96 173.50 C 258.67 172.43 258.09 158.74 258.09 153.05 C 258.09 151.15 258.57 149.01 259.17 148.30 C 259.98 147.32 259.84 147.00 258.62 147.00 C 257.73 147.00 257.00 146.52 257.00 145.93 C 257.00 144.12 254.26 142.00 251.82 141.93 C 250.54 141.89 248.60 141.47 247.50 141.00 C 245.99 140.35 246.64 140.12 250.17 140.07 C 252.73 140.03 255.02 140.34 255.25 140.75 C 255.48 141.16 255.52 140.89 255.32 140.14 C 255.11 139.28 255.53 138.99 256.48 139.35 C 257.30 139.67 257.93 139.61 257.87 139.21 C 257.81 138.82 257.85 138.05 257.96 137.50 C 258.07 136.95 258.09 133.69 258.01 130.25 C 257.93 126.71 258.29 124.00 258.85 124.00 C 260.01 124.00 260.85 137.76 259.75 138.86 C 259.33 139.27 260.67 139.65 262.72 139.71 C 269.05 139.89 279.18 141.15 278.64 141.69 C 277.69 142.65 262.96 142.88 263.55 141.93 C 264.50 140.38 261.33 140.89 260.00 142.50 C 258.98 143.73 259.06 144.00 260.44 144.00 C 261.49 144.00 261.84 144.45 261.38 145.20 C 260.97 145.86 260.70 157.11 260.79 170.20 C 260.92 189.86 260.71 194.00 259.57 194.00 C 258.47 194.00 258.26 192.19 258.54 185.15 Z M 37.53 188.75 C 37.31 188.06 36.44 181.88 35.59 175.00 C 34.10 162.92 30.53 148.95 25.51 135.62 C 23.30 129.76 23.24 129.17 24.80 128.72 C 38.40 124.78 50.28 121.84 58.00 120.50 C 63.23 119.59 72.45 117.48 78.50 115.79 C 95.23 111.14 93.48 109.39 93.61 131.00 L 93.73 149.50 L 97.86 160.36 C 100.12 166.33 101.78 171.55 101.54 171.94 C 101.29 172.34 98.03 173.24 94.30 173.94 C 87.56 175.20 87.40 175.18 77.00 171.55 C 64.87 167.31 50.79 163.81 49.87 164.81 C 49.31 165.43 46.00 183.65 46.00 186.12 C 46.00 186.66 44.44 187.75 42.53 188.55 C 38.31 190.31 38.04 190.33 37.53 188.75 Z M 385.63 175.75 C 385.30 174.51 385.02 167.47 385.01 160.11 C 385.00 149.46 384.70 146.49 383.52 145.61 C 382.48 144.83 382.33 144.05 383.00 143.00 C 383.83 141.72 383.97 141.76 383.98 143.25 C 383.99 144.21 384.50 145.00 385.11 145.00 C 385.72 145.00 385.95 144.32 385.64 143.50 C 385.32 142.68 385.50 142.00 386.03 142.00 C 387.19 142.00 387.21 142.28 386.89 152.50 C 386.76 156.90 386.73 164.44 386.83 169.25 C 387.02 178.14 386.72 179.80 385.63 175.75 Z M 14.57 169.55 C 14.21 167.60 13.48 166.00 12.95 166.00 C 11.71 166.00 11.74 168.19 13.03 171.57 C 14.42 175.22 15.40 173.94 14.57 169.55 Z M 14.27 156.81 C 14.14 152.86 13.66 149.26 13.22 148.82 C 12.78 148.38 12.49 150.82 12.57 154.26 C 12.80 163.10 12.91 164.00 13.76 164.00 C 14.19 164.00 14.41 160.76 14.27 156.81 Z M 135.00 149.50 C 135.00 148.68 135.44 148.00 135.97 148.00 C 136.50 148.00 136.68 148.68 136.36 149.50 C 136.05 150.32 135.61 151.00 135.39 151.00 C 135.18 151.00 135.00 150.32 135.00 149.50 Z M 13.73 143.40 C 13.40 143.06 12.53 143.03 11.81 143.32 C 11.01 143.64 11.25 143.87 12.42 143.92 C 13.47 143.96 14.06 143.73 13.73 143.40 Z M 311.00 143.09 C 311.00 142.59 308.31 142.43 305.00 142.73 C 300.86 143.11 299.00 142.92 299.00 142.14 C 299.00 141.40 301.42 141.00 305.97 141.00 C 311.75 141.00 312.84 141.26 312.36 142.50 C 311.72 144.17 311.00 144.49 311.00 143.09 Z M 327.00 143.18 C 327.00 142.61 326.21 141.94 325.25 141.69 C 324.29 141.44 327.27 141.18 331.87 141.12 C 339.21 141.01 340.09 141.19 339.00 142.50 C 338.32 143.32 337.02 143.99 336.13 143.98 C 334.70 143.97 334.69 143.84 336.00 142.92 C 337.14 142.13 336.65 141.97 334.00 142.28 C 332.07 142.51 329.71 143.04 328.75 143.45 C 327.72 143.90 327.00 143.79 327.00 143.18 Z M 352.00 143.00 C 352.00 142.45 353.01 142.01 354.25 142.02 C 356.07 142.03 356.21 142.22 355.00 143.00 C 353.06 144.25 352.00 144.25 352.00 143.00 Z M 362.00 143.00 C 362.00 142.45 363.24 142.01 364.75 142.02 C 366.89 142.03 367.17 142.24 366.00 143.00 C 364.04 144.26 362.00 144.26 362.00 143.00 Z M 371.34 142.50 C 371.53 141.95 374.00 141.50 376.84 141.50 C 379.70 141.50 381.86 141.93 381.68 142.46 C 381.50 142.99 379.03 143.44 376.18 143.46 C 373.15 143.48 371.14 143.08 371.34 142.50 Z M 147.33 141.25 C 147.33 139.81 150.86 139.86 157.00 141.40 C 158.38 141.74 158.94 141.75 158.25 141.43 C 157.56 141.10 157.00 140.42 157.00 139.92 C 157.00 138.48 160.63 138.85 161.93 140.42 C 163.50 142.31 161.34 142.91 153.42 142.78 C 148.86 142.71 147.33 142.32 147.33 141.25 Z M 165.00 142.05 C 166.28 141.18 166.28 141.03 165.05 141.02 C 164.00 141.00 163.90 140.70 164.70 139.90 C 166.06 138.54 170.25 139.74 169.73 141.33 C 169.52 141.98 168.03 142.63 166.42 142.79 C 164.17 143.01 163.84 142.84 165.00 142.05 Z M 173.00 141.50 C 173.00 139.52 179.40 139.55 183.50 141.55 L 186.50 143.02 L 183.50 142.53 C 181.85 142.27 179.42 141.74 178.09 141.37 C 176.40 140.89 175.90 141.03 176.40 141.84 C 176.86 142.58 176.36 143.00 175.06 143.00 C 173.90 143.00 173.00 142.35 173.00 141.50 Z M 190.00 142.00 C 188.78 141.21 188.91 141.03 190.69 141.02 C 191.90 141.01 193.16 141.45 193.50 142.00 C 194.29 143.27 191.97 143.27 190.00 142.00 Z M 283.66 141.75 C 284.28 140.74 298.00 140.78 298.00 141.79 C 298.00 142.23 294.67 142.56 290.60 142.54 C 286.52 142.52 283.40 142.16 283.66 141.75 Z M 341.00 142.00 C 341.82 141.47 343.62 141.06 345.00 141.09 C 347.29 141.14 347.33 141.21 345.50 142.00 C 344.40 142.47 342.60 142.88 341.50 142.91 C 339.85 142.96 339.76 142.80 341.00 142.00 Z M 16.91 140.58 C 15.83 139.49 11.00 138.88 11.00 139.83 C 11.00 140.40 12.24 141.02 13.75 141.21 C 16.55 141.55 17.66 141.33 16.91 140.58 Z M 213.00 141.00 C 213.00 140.45 213.45 140.00 214.00 140.00 C 214.55 140.00 215.00 140.45 215.00 141.00 C 215.00 141.55 214.55 142.00 214.00 142.00 C 213.45 142.00 213.00 141.55 213.00 141.00 Z M 224.17 141.17 C 222.28 139.91 229.50 138.86 232.31 139.99 C 233.83 140.60 234.00 140.89 232.88 140.94 C 231.98 140.97 229.96 141.24 228.38 141.53 C 226.79 141.82 224.90 141.66 224.17 141.17 Z M 318.25 141.31 C 319.21 141.06 320.79 141.06 321.75 141.31 C 322.71 141.56 321.93 141.77 320.00 141.77 C 318.07 141.77 317.29 141.56 318.25 141.31 Z M 186.81 140.32 C 187.53 140.03 188.40 140.06 188.73 140.40 C 189.06 140.73 188.47 140.96 187.42 140.92 C 186.25 140.87 186.01 140.64 186.81 140.32 Z M 237.81 140.32 C 238.53 140.03 239.40 140.06 239.73 140.40 C 240.06 140.73 239.47 140.96 238.42 140.92 C 237.25 140.87 237.01 140.64 237.81 140.32 Z M 14.00 134.44 C 14.00 132.99 13.57 132.15 13.00 132.50 C 12.45 132.84 12.00 133.99 12.00 135.06 C 12.00 136.13 12.45 137.00 13.00 137.00 C 13.55 137.00 14.00 135.85 14.00 134.44 Z M 105.72 120.50 C 106.03 118.85 106.73 116.63 107.28 115.56 C 108.67 112.85 108.53 97.40 107.01 85.71 C 106.32 80.33 106.05 75.62 106.42 75.25 C 106.79 74.88 115.73 74.27 126.29 73.88 C 136.86 73.50 149.45 72.65 154.28 72.00 C 159.10 71.34 163.70 71.06 164.50 71.36 C 165.90 71.90 165.89 75.87 164.48 82.59 C 164.24 83.74 164.00 93.42 163.96 104.09 L 163.87 123.50 L 134.51 123.50 L 105.15 123.50 L 105.72 120.50 Z M 257.70 120.19 C 257.42 118.72 257.62 116.71 258.15 115.72 C 258.68 114.73 258.79 112.93 258.39 111.71 C 257.34 108.47 257.74 85.28 258.89 83.24 C 259.56 82.05 259.88 86.52 259.91 97.50 C 259.93 106.30 260.23 115.35 260.57 117.61 C 261.04 120.73 260.83 121.85 259.70 122.29 C 258.66 122.68 258.05 122.04 257.70 120.19 Z M 37.61 84.89 C 37.22 68.73 36.55 51.67 36.12 47.00 C 35.69 42.33 35.39 38.42 35.44 38.32 C 35.49 38.22 43.34 38.64 52.89 39.25 C 66.20 40.11 74.69 40.08 89.37 39.11 C 99.89 38.42 109.85 37.78 111.50 37.68 C 114.24 37.52 114.48 37.76 114.31 40.50 C 114.21 42.15 113.81 48.73 113.42 55.12 L 112.71 66.73 L 105.26 67.30 C 101.16 67.61 97.58 68.09 97.30 68.36 C 97.03 68.64 97.49 73.29 98.35 78.68 C 99.20 84.08 100.17 91.76 100.51 95.74 C 101.02 101.86 100.89 102.90 99.65 102.42 C 98.85 102.11 93.59 103.27 87.98 105.01 C 72.65 109.74 57.57 112.95 47.41 113.65 L 38.32 114.28 L 37.61 84.89 Z M 172.10 112.08 C 170.94 111.35 170.84 108.54 171.49 95.85 C 171.92 87.41 172.33 76.45 172.39 71.50 L 172.50 62.50 L 166.79 62.84 C 160.05 63.24 160.43 64.04 159.49 47.73 L 158.86 36.97 L 164.68 37.73 C 172.25 38.73 221.33 38.73 230.89 37.73 L 238.28 36.96 L 237.62 42.73 C 237.26 45.90 236.69 54.12 236.36 61.00 C 235.86 71.54 236.08 74.83 237.80 82.00 C 240.18 91.97 243.34 109.99 242.79 110.54 C 240.74 112.59 175.17 114.02 172.10 112.08 Z M 258.69 79.25 C 257.83 75.83 258.06 68.00 259.02 68.00 C 259.56 68.00 260.00 70.92 260.00 74.50 C 260.00 80.95 259.54 82.61 258.69 79.25 Z M 257.65 62.83 C 256.49 58.51 256.89 50.80 258.25 51.25 C 259.04 51.51 259.53 53.74 259.57 57.32 C 259.65 63.59 258.63 66.50 257.65 62.83 Z M 138.37 49.25 C 138.19 41.14 137.81 32.84 137.52 30.81 C 137.23 28.78 137.33 26.91 137.75 26.66 C 138.16 26.40 138.34 23.63 138.15 20.50 C 137.96 17.36 137.46 15.18 137.03 15.65 C 135.90 16.90 134.93 21.60 135.66 22.33 C 136.01 22.67 136.25 30.50 136.21 39.73 C 136.12 57.02 136.62 64.00 137.93 64.00 C 138.35 64.00 138.54 57.36 138.37 49.25 Z M 9.73 56.40 C 9.33 55.99 9.00 54.98 9.00 54.13 C 9.00 53.01 9.30 52.90 10.11 53.71 C 10.72 54.32 11.05 55.34 10.84 55.98 C 10.63 56.61 10.13 56.80 9.73 56.40 Z M 258.10 48.75 C 256.97 45.75 257.42 22.69 258.63 22.29 C 259.19 22.10 259.59 27.85 259.61 36.49 C 259.63 44.47 259.49 51.00 259.30 51.00 C 259.11 51.00 258.57 49.99 258.10 48.75 Z M 9.00 40.06 C 9.00 38.93 9.45 38.00 10.00 38.00 C 10.55 38.00 11.00 38.65 11.00 39.44 C 11.00 40.23 10.55 41.16 10.00 41.50 C 9.45 41.84 9.00 41.19 9.00 40.06 Z M 10.08 34.42 C 10.13 33.25 10.36 33.01 10.68 33.81 C 10.97 34.53 10.94 35.40 10.60 35.73 C 10.27 36.06 10.04 35.47 10.08 34.42 Z M 9.16 31.00 C 9.16 29.62 9.38 29.06 9.66 29.75 C 9.94 30.44 9.94 31.56 9.66 32.25 C 9.38 32.94 9.16 32.38 9.16 31.00 Z M 9.50 27.00 C 9.16 26.45 9.36 26.00 9.94 26.00 C 10.52 26.00 11.00 26.45 11.00 27.00 C 11.00 27.55 10.80 28.00 10.56 28.00 C 10.32 28.00 9.84 27.55 9.50 27.00 Z M 257.67 20.27 C 256.86 18.96 257.85 16.00 259.11 16.00 C 260.15 16.00 260.15 16.77 259.10 19.43 C 258.63 20.64 258.09 20.96 257.67 20.27 Z M 9.64 14.49 C 9.32 13.67 9.47 13.00 9.97 13.00 C 11.33 13.00 12.17 14.78 11.12 15.43 C 10.62 15.74 9.95 15.32 9.64 14.49 Z M 256.19 13.94 C 256.43 13.22 257.22 12.43 257.94 12.19 C 258.69 11.94 259.06 12.31 258.81 13.06 C 258.57 13.78 257.78 14.57 257.06 14.81 C 256.31 15.06 255.94 14.69 256.19 13.94 Z M 33.50 13.00 C 33.84 12.45 34.32 12.00 34.56 12.00 C 34.80 12.00 35.00 12.45 35.00 13.00 C 35.00 13.55 34.52 14.00 33.94 14.00 C 33.36 14.00 33.16 13.55 33.50 13.00 Z M 76.00 12.00 C 75.17 11.47 72.96 11.02 71.08 11.02 C 69.20 11.01 67.92 10.75 68.22 10.45 C 69.01 9.65 82.90 9.57 83.68 10.35 C 84.04 10.71 82.57 11.03 80.42 11.07 C 77.31 11.13 76.92 11.32 78.50 12.00 C 79.82 12.57 79.99 12.88 79.00 12.91 C 78.17 12.94 76.83 12.53 76.00 12.00 Z M 100.13 12.10 C 99.37 11.62 96.52 11.23 93.79 11.23 C 91.06 11.23 88.31 10.71 87.68 10.08 C 86.81 9.21 88.00 9.08 92.51 9.56 C 99.00 10.25 106.00 11.80 106.00 12.54 C 106.00 13.34 101.56 13.01 100.13 12.10 Z M 122.81 12.32 C 123.53 12.03 124.40 12.06 124.73 12.40 C 125.06 12.73 124.47 12.96 123.42 12.92 C 122.25 12.87 122.01 12.64 122.81 12.32 Z M 149.05 12.05 C 148.25 11.54 146.39 11.37 144.92 11.67 C 143.45 11.96 141.94 11.71 141.56 11.10 C 141.11 10.36 142.36 10.00 145.36 10.00 C 148.00 10.00 150.04 10.51 150.34 11.25 C 150.67 12.06 150.87 11.94 150.92 10.91 C 150.98 9.65 152.24 9.31 156.94 9.27 L 162.88 9.21 L 160.81 11.36 C 159.38 12.84 158.61 13.12 158.29 12.25 C 157.75 10.76 153.38 10.57 152.50 12.00 C 151.74 13.23 150.93 13.24 149.05 12.05 Z M 166.44 11.53 C 164.56 10.11 164.58 10.06 167.00 9.86 C 173.56 9.33 177.61 9.49 178.75 10.33 C 179.57 10.93 180.00 10.82 180.00 10.00 C 180.00 9.01 180.30 9.01 181.50 10.00 C 182.51 10.84 183.41 10.92 184.25 10.26 C 185.71 9.11 193.00 9.81 193.00 11.10 C 193.00 11.59 187.82 11.87 181.50 11.74 C 175.18 11.61 170.00 11.84 170.00 12.25 C 170.00 13.43 168.56 13.14 166.44 11.53 Z M 203.81 12.32 C 204.53 12.03 205.40 12.06 205.73 12.40 C 206.06 12.73 205.47 12.96 204.42 12.92 C 203.25 12.87 203.01 12.64 203.81 12.32 Z M 209.58 12.04 L 205.67 11.50 L 210.38 10.13 C 215.54 8.62 216.63 8.87 214.74 11.12 C 213.87 12.15 212.34 12.43 209.58 12.04 Z M 51.91 10.92 C 50.88 10.27 51.25 10.03 53.25 10.02 C 56.24 10.00 56.77 10.49 54.66 11.30 C 53.92 11.58 52.68 11.41 51.91 10.92 Z M 59.50 11.00 C 56.54 10.25 56.55 10.24 60.31 10.12 C 62.62 10.05 63.87 10.39 63.50 11.00 C 63.16 11.55 62.80 11.95 62.69 11.88 C 62.59 11.82 61.15 11.42 59.50 11.00 Z M 105.50 11.03 C 104.18 10.54 105.89 10.13 110.50 9.83 C 117.69 9.36 122.00 9.75 122.00 10.87 C 121.99 11.78 107.88 11.91 105.50 11.03 Z M 126.75 11.26 C 125.24 11.04 124.00 10.39 124.00 9.81 C 124.00 9.16 125.20 8.99 127.12 9.38 C 128.84 9.72 131.39 10.00 132.79 10.00 C 134.19 10.00 135.15 10.16 134.92 10.36 C 134.04 11.12 129.38 11.63 126.75 11.26 Z M 194.08 10.42 C 194.13 9.25 194.36 9.01 194.68 9.81 C 194.97 10.53 194.94 11.40 194.60 11.73 C 194.27 12.06 194.04 11.47 194.08 10.42 Z M 197.51 10.98 C 197.86 10.42 198.56 10.23 199.07 10.54 C 200.46 11.40 200.20 12.00 198.44 12.00 C 197.58 12.00 197.16 11.54 197.51 10.98 Z M 137.81 10.32 C 138.53 10.03 139.40 10.06 139.73 10.40 C 140.06 10.73 139.47 10.96 138.42 10.92 C 137.25 10.87 137.01 10.64 137.81 10.32 Z M 202.50 10.00 C 202.84 9.45 204.10 9.03 205.31 9.07 C 207.42 9.14 207.43 9.17 205.50 10.00 C 202.75 11.18 201.77 11.18 202.50 10.00 Z M 220.50 10.00 C 220.84 9.45 221.79 9.00 222.62 9.00 C 223.44 9.00 223.84 9.45 223.50 10.00 C 223.16 10.55 222.21 11.00 221.38 11.00 C 220.56 11.00 220.16 10.55 220.50 10.00 Z M 229.81 10.32 C 230.53 10.03 231.40 10.06 231.73 10.40 C 232.06 10.73 231.47 10.96 230.42 10.92 C 229.25 10.87 229.01 10.64 229.81 10.32 Z M 232.50 10.00 C 231.72 8.73 233.04 8.73 235.00 10.00 C 236.29 10.84 236.27 10.97 234.81 10.98 C 233.88 10.99 232.84 10.55 232.50 10.00 Z M 240.75 10.34 C 241.44 10.06 242.56 10.06 243.25 10.34 C 243.94 10.62 243.38 10.84 242.00 10.84 C 240.62 10.84 240.06 10.62 240.75 10.34 Z M 248.76 10.29 C 250.01 10.05 251.81 10.06 252.76 10.31 C 253.72 10.56 252.70 10.76 250.50 10.75 C 248.30 10.74 247.52 10.53 248.76 10.29 Z" fill="none" stroke="rgba(255,255,255,0.92)" stroke-width="1.5" stroke-linejoin="round" fill-rule="evenodd"/>
</svg>
