<svg xmlns="http://www.w3.org/2000/svg" viewBox="0 0 100 100" width="100" height="100">
  <path d="M 0.00 50.00 L 0.00 0.00 L 50.00 0.00 L 100.00 0.00 L 100.00 50.00 L 100.00 100.00 L 50.00 100.00 L 0.00 100.00 L 0.00 50.00 Z M 8.13 92.42 L 8.76 89.50 L 8.88 92.75 C 8.95 94.54 9.34 96.00 9.75 96.00 C 10.32 96.00 10.63 19.54 10.10 9.64 C 10.03 8.42 9.49 7.98 8.50 8.36 C 7.56 8.72 7.00 8.35 7.00 7.35 C 7.00 6.18 7.58 5.94 9.25 6.44 C 13.73 7.77 25.00 7.50 25.00 6.05 C 25.00 5.53 21.93 5.14 18.18 5.17 C 14.43 5.21 9.93 4.92 8.18 4.54 L 4.99 3.84 L 5.21 49.93 C 5.36 81.14 5.77 95.91 6.47 95.68 C 7.03 95.49 7.78 94.02 8.13 92.42 Z M 96.00 88.00 L 96.00 85.00 L 66.53 85.00 L 37.05 85.00 L 36.78 52.00 L 36.50 19.00 L 66.25 19.00 L 96.00 19.00 L 96.00 16.00 L 96.00 13.00 L 63.50 13.00 L 31.00 13.00 L 31.00 52.00 L 31.00 91.00 L 63.50 91.00 L 96.00 91.00 L 96.00 88.00 Z M 7.15 85.46 C 7.06 83.01 7.44 81.00 7.99 81.00 C 9.20 81.00 9.36 88.66 8.16 89.40 C 7.70 89.69 7.25 87.91 7.15 85.46 Z M 55.80 80.88 C 63.57 79.95 67.08 80.05 77.12 81.48 C 83.74 82.42 89.28 83.03 89.44 82.84 C 89.59 82.65 88.90 77.78 87.90 72.00 C 85.68 59.24 85.55 47.63 87.50 35.00 C 88.31 29.77 88.97 25.27 88.98 25.00 C 88.99 24.73 80.56 24.50 70.25 24.50 C 59.94 24.50 48.86 24.12 45.64 23.66 L 39.77 22.83 L 40.59 32.16 C 41.51 42.82 41.31 63.79 40.16 75.35 L 39.39 83.20 L 42.94 82.60 C 44.90 82.27 50.68 81.50 55.80 80.88 Z M 7.00 74.44 C 7.00 73.58 7.45 73.16 8.00 73.50 C 8.55 73.84 9.00 74.54 9.00 75.06 C 9.00 75.58 8.55 76.00 8.00 76.00 C 7.45 76.00 7.00 75.30 7.00 74.44 Z M 46.50 52.97 L 46.50 29.78 L 51.50 30.38 C 54.25 30.71 62.40 30.99 69.62 30.99 L 82.74 31.00 L 81.86 35.75 C 80.59 42.51 80.35 59.15 81.38 68.38 L 82.26 76.26 L 76.38 75.53 C 69.37 74.65 56.52 74.65 50.69 75.52 L 46.50 76.15 L 46.50 52.97 Z M 7.09 59.98 C 6.99 55.18 7.32 52.00 7.93 52.00 C 9.05 52.00 9.06 66.84 7.94 67.53 C 7.57 67.77 7.19 64.37 7.09 59.98 Z M 7.00 47.06 C 7.00 44.89 7.45 42.84 8.00 42.50 C 8.61 42.12 9.00 43.66 9.00 46.44 C 9.00 48.95 8.55 51.00 8.00 51.00 C 7.45 51.00 7.00 49.23 7.00 47.06 Z M 7.00 30.06 C 7.00 23.43 7.39 18.00 7.86 18.00 C 9.12 18.00 9.28 40.71 8.03 41.48 C 7.35 41.90 7.00 38.07 7.00 30.06 Z M 7.00 13.00 C 7.00 11.35 7.45 10.00 8.00 10.00 C 8.55 10.00 9.00 11.35 9.00 13.00 C 9.00 14.65 8.55 16.00 8.00 16.00 C 7.45 16.00 7.00 14.65 7.00 13.00 Z M 34.00 7.00 C 35.25 6.19 35.17 6.01 33.50 5.90 C 32.40 5.82 30.90 5.84 30.18 5.94 C 29.45 6.04 28.21 5.59 27.43 4.94 C 26.30 4.00 26.00 4.08 26.00 5.31 C 26.00 6.24 27.11 7.03 28.75 7.28 C 30.26 7.51 31.73 7.76 32.00 7.83 C 32.27 7.91 33.17 7.53 34.00 7.00 Z M 81.75 7.00 C 89.77 7.00 96.14 6.81 95.90 6.57 C 95.12 5.79 37.00 5.42 37.00 6.19 C 37.00 6.90 62.92 7.86 65.83 7.27 C 66.56 7.12 73.73 7.00 81.75 7.00 Z" fill="none" stroke="rgba(255,255,255,0.92)" stroke-width="1.2" stroke-linejoin="round" fill-rule="evenodd"/>
</svg>
