<svg xmlns="http://www.w3.org/2000/svg" viewBox="0 0 258 400" width="258" height="400">
  <path d="M 0.00 208.06 C 0.00 81.18 0.34 15.91 1.00 15.50 C 1.55 15.16 2.03 15.47 2.08 16.19 C 2.12 16.91 2.32 18.40 2.52 19.50 C 4.14 28.38 3.93 28.00 7.20 28.00 L 10.30 28.00 L 9.65 16.58 C 9.29 10.30 8.75 4.51 8.44 3.70 C 7.07 0.13 11.59 -0.00 136.15 -0.00 L 258.00 0.00 L 258.00 200.00 L 258.00 400.00 L 129.00 400.00 L 0.00 400.00 L 0.00 208.06 Z M 118.50 394.69 L 132.50 394.50 L 132.77 361.75 C 132.95 340.03 132.69 329.00 132.02 329.00 C 130.90 329.00 130.92 328.36 130.93 362.75 C 130.94 376.09 130.56 387.00 130.09 387.00 C 129.20 387.00 128.03 383.59 128.03 381.00 C 128.03 379.80 128.20 379.77 128.87 380.83 C 129.36 381.59 129.67 377.92 129.61 372.18 C 129.55 366.69 129.11 362.44 128.64 362.72 C 127.88 363.20 128.24 360.22 129.64 354.50 C 130.04 352.87 129.94 352.78 129.08 354.00 C 128.20 355.26 128.03 355.18 128.02 353.49 C 128.01 352.39 128.42 350.02 128.94 348.22 C 129.45 346.43 129.56 345.16 129.17 345.40 C 128.78 345.63 128.47 343.21 128.47 340.00 C 128.47 336.79 128.72 334.33 129.02 334.52 C 129.33 334.70 129.40 333.32 129.18 331.43 C 128.84 328.46 129.07 328.00 130.93 328.00 C 133.05 328.00 133.09 327.75 132.90 312.75 C 132.69 295.91 131.17 287.60 131.06 302.75 C 131.02 308.81 130.62 312.00 129.89 312.00 C 129.28 312.00 129.05 311.30 129.38 310.45 C 129.72 309.56 129.56 309.16 128.99 309.51 C 128.44 309.84 128.00 309.16 128.00 308.00 C 128.00 306.84 128.34 306.09 128.75 306.35 C 129.16 306.60 129.56 305.73 129.64 304.41 C 129.72 303.09 129.45 302.22 129.04 302.47 C 127.98 303.13 128.10 273.74 129.17 272.37 C 129.73 271.65 129.49 271.02 128.53 270.65 C 127.69 270.33 127.00 268.89 127.00 267.46 C 127.00 265.30 126.77 265.08 125.68 266.18 C 124.77 267.09 122.24 267.39 117.45 267.15 C 111.23 266.84 110.73 266.67 112.46 265.40 C 113.81 264.42 114.58 264.33 115.06 265.10 C 115.55 265.89 116.31 265.90 117.72 265.15 C 119.14 264.39 120.02 264.42 120.85 265.25 C 121.69 266.09 122.00 266.10 122.00 265.27 C 122.00 264.64 123.22 263.99 124.71 263.82 C 127.78 263.46 129.22 260.01 127.86 256.25 L 127.05 254.00 L 171.52 254.00 L 216.00 254.00 L 216.00 202.00 L 216.00 150.00 L 193.25 150.00 C 180.74 150.00 141.13 150.30 105.24 150.67 L 39.98 151.33 L 40.24 202.91 L 40.50 254.50 L 83.39 254.50 L 126.28 254.50 L 126.67 258.25 L 127.06 262.00 L 93.78 262.06 C 75.48 262.09 50.26 262.17 37.75 262.23 C 25.24 262.29 14.68 262.01 14.28 261.61 C 13.88 261.21 13.51 235.14 13.48 203.67 C 13.44 172.21 13.04 145.88 12.60 145.16 C 12.16 144.45 11.14 144.12 10.33 144.43 C 9.31 144.82 8.97 144.45 9.24 143.25 C 9.45 142.29 10.27 141.68 11.06 141.91 C 15.11 143.05 23.63 143.44 33.50 142.93 C 39.55 142.62 43.69 142.28 42.69 142.18 C 41.70 142.08 41.14 141.59 41.45 141.09 C 41.76 140.58 41.45 139.97 40.76 139.72 C 38.38 138.87 40.50 138.28 44.25 138.75 C 47.09 139.11 48.00 139.68 48.00 141.10 C 48.00 142.83 48.87 142.98 58.59 142.92 C 64.42 142.88 68.89 142.55 68.52 142.19 C 68.16 141.82 67.33 141.50 66.68 141.46 C 66.03 141.42 64.26 141.03 62.74 140.58 C 61.16 140.12 59.44 140.18 58.74 140.72 C 57.48 141.68 48.33 140.33 49.33 139.33 C 49.62 139.05 66.36 138.81 86.54 138.81 C 116.01 138.80 123.49 139.07 124.58 140.15 C 125.71 141.28 122.11 141.50 102.21 141.47 C 89.17 141.46 77.98 141.12 77.35 140.73 C 75.83 139.77 69.88 141.00 70.58 142.12 C 70.87 142.60 83.47 143.00 98.56 143.00 L 126.00 143.00 L 126.00 146.00 C 126.00 147.65 126.49 149.00 127.09 149.00 C 128.29 149.00 127.38 141.25 125.97 139.50 C 125.53 138.95 125.98 137.50 126.97 136.28 C 128.72 134.12 128.82 134.11 130.88 135.90 C 133.36 138.05 141.41 139.39 143.88 138.06 C 144.87 137.54 146.21 137.51 147.01 138.00 C 147.78 138.48 148.78 138.63 149.24 138.35 C 150.71 137.45 222.39 137.25 224.81 138.14 C 226.29 138.69 226.89 138.64 226.50 138.00 C 226.14 137.41 227.24 137.01 229.19 137.02 C 231.70 137.03 232.14 137.27 231.00 138.00 C 230.10 138.58 229.98 138.98 230.69 138.98 C 231.35 138.99 232.16 138.55 232.50 138.00 C 232.84 137.45 233.57 137.00 234.12 137.00 C 234.67 137.00 234.84 137.45 234.50 138.00 C 234.16 138.55 234.58 139.00 235.44 139.00 C 236.30 139.00 237.00 138.55 237.00 138.00 C 237.00 136.52 238.93 136.79 240.64 138.50 C 241.98 139.83 240.94 140.01 231.32 140.11 C 225.37 140.17 217.80 140.56 214.50 140.99 C 210.45 141.51 214.45 141.70 226.82 141.58 C 236.89 141.49 245.34 141.74 245.60 142.16 C 246.21 143.15 246.11 260.22 245.49 260.84 C 245.23 261.10 219.84 261.51 189.06 261.74 L 133.10 262.17 L 132.14 258.83 L 131.18 255.50 L 131.09 259.20 C 131.03 261.74 131.55 263.22 132.75 263.92 C 134.01 264.65 134.10 264.95 133.08 264.97 C 132.30 264.99 131.93 265.27 132.26 265.59 C 132.58 265.91 135.39 265.61 138.50 264.91 C 143.30 263.84 144.30 263.86 145.07 265.07 C 145.70 266.07 145.97 266.12 145.98 265.25 C 145.99 264.56 147.15 264.00 148.56 264.00 C 149.97 264.00 150.86 264.41 150.55 264.91 C 150.24 265.42 150.55 266.06 151.24 266.34 C 151.93 266.61 148.37 266.88 143.33 266.92 C 138.29 266.96 133.45 267.27 132.58 267.61 C 130.76 268.31 130.45 272.54 132.14 273.59 C 132.94 274.08 133.13 273.48 132.78 271.65 L 132.28 269.00 L 162.89 268.90 C 179.72 268.85 206.80 268.73 223.05 268.65 L 252.59 268.50 L 252.74 139.00 C 252.82 67.78 252.66 8.75 252.40 7.83 C 251.99 6.41 250.74 6.20 244.21 6.49 C 239.97 6.68 220.30 7.11 200.50 7.45 C 149.36 8.32 126.76 8.91 126.30 9.36 C 126.08 9.58 125.94 29.05 125.99 52.63 C 126.14 130.63 126.12 135.21 125.72 135.61 C 125.51 135.83 98.70 136.02 66.16 136.03 L 7.00 136.06 L 6.91 138.78 C 6.85 140.28 6.88 154.78 6.97 171.00 C 7.05 187.22 7.18 244.38 7.24 298.00 L 7.37 395.50 L 55.94 395.19 C 82.65 395.03 110.80 394.80 118.50 394.69 Z M 57.44 392.90 C 57.13 392.41 58.26 392.00 59.94 392.00 C 61.62 392.00 63.00 391.63 63.00 391.19 C 63.00 390.74 65.14 390.34 67.75 390.29 C 70.36 390.25 71.38 390.44 70.00 390.71 C 68.62 390.98 67.28 391.54 67.00 391.95 C 66.23 393.11 58.07 393.92 57.44 392.90 Z M 74.47 392.96 C 74.15 392.43 74.81 392.00 75.94 392.00 C 78.36 392.00 78.60 392.56 76.53 393.35 C 75.72 393.66 74.80 393.48 74.47 392.96 Z M 108.52 392.75 C 107.09 391.95 107.02 391.60 108.13 390.90 C 109.95 389.74 112.27 389.76 111.55 390.92 C 111.23 391.43 111.77 392.01 112.74 392.21 C 114.24 392.53 114.19 392.67 112.39 393.16 C 111.23 393.48 109.49 393.29 108.52 392.75 Z M 10.67 392.33 C 9.26 390.92 10.15 390.38 14.25 390.18 C 17.14 390.03 18.05 390.26 17.09 390.89 C 16.32 391.40 15.08 391.58 14.34 391.30 C 13.60 391.02 13.00 391.28 13.00 391.89 C 13.00 393.12 11.70 393.37 10.67 392.33 Z M 20.00 392.00 C 20.00 391.45 20.68 391.00 21.50 391.00 C 22.32 391.00 23.00 391.45 23.00 392.00 C 23.00 392.55 22.32 393.00 21.50 393.00 C 20.68 393.00 20.00 392.55 20.00 392.00 Z M 24.64 391.50 C 24.31 390.64 24.62 390.00 25.36 390.00 C 26.08 390.00 26.67 390.68 26.67 391.50 C 26.67 392.32 26.34 393.00 25.94 393.00 C 25.54 393.00 24.95 392.32 24.64 391.50 Z M 35.50 392.00 C 38.23 390.83 39.00 390.83 39.00 392.00 C 39.00 392.55 37.76 392.97 36.25 392.93 C 33.81 392.87 33.73 392.76 35.50 392.00 Z M 45.91 392.07 C 46.68 391.58 48.00 391.44 48.82 391.76 C 49.80 392.14 50.08 391.93 49.61 391.17 C 49.12 390.39 49.76 390.00 51.50 390.00 C 52.94 390.00 53.86 390.41 53.55 390.91 C 53.24 391.42 53.55 392.02 54.24 392.26 C 54.93 392.50 53.02 392.76 50.00 392.83 C 46.46 392.91 45.00 392.64 45.91 392.07 Z M 80.29 391.90 C 81.49 391.20 82.96 391.18 84.79 391.85 C 87.29 392.77 87.15 392.85 83.00 392.89 C 79.42 392.93 78.86 392.73 80.29 391.90 Z M 88.00 392.06 C 88.00 391.54 88.45 390.84 89.00 390.50 C 89.55 390.16 90.00 390.36 90.00 390.94 C 90.00 391.52 90.70 392.00 91.56 392.00 C 92.42 392.00 92.84 391.55 92.50 391.00 C 92.16 390.45 92.84 390.00 94.00 390.00 C 95.16 390.00 95.84 390.45 95.50 391.00 C 95.16 391.55 95.58 392.00 96.44 392.00 C 97.30 392.00 98.00 391.55 98.00 391.00 C 98.00 390.45 99.69 390.01 101.75 390.02 C 104.31 390.03 105.06 390.31 104.10 390.91 C 102.98 391.62 103.08 391.89 104.60 392.28 C 105.65 392.55 102.34 392.82 97.25 392.88 C 92.05 392.95 88.00 392.59 88.00 392.06 Z M 115.46 392.06 C 115.78 391.55 116.99 391.31 118.16 391.53 C 121.60 392.19 121.58 393.00 118.11 393.00 C 116.33 393.00 115.14 392.58 115.46 392.06 Z M 127.75 392.34 C 128.44 392.06 129.56 392.06 130.25 392.34 C 130.94 392.62 130.38 392.84 129.00 392.84 C 127.62 392.84 127.06 392.62 127.75 392.34 Z M 42.81 391.32 C 43.53 391.03 44.40 391.06 44.73 391.40 C 45.06 391.73 44.47 391.96 43.42 391.92 C 42.25 391.87 42.01 391.64 42.81 391.32 Z M 33.75 390.34 C 34.44 390.06 35.56 390.06 36.25 390.34 C 36.94 390.62 36.38 390.84 35.00 390.84 C 33.62 390.84 33.06 390.62 33.75 390.34 Z M 57.75 390.34 C 58.44 390.06 59.56 390.06 60.25 390.34 C 60.94 390.62 60.38 390.84 59.00 390.84 C 57.62 390.84 57.06 390.62 57.75 390.34 Z M 75.81 390.32 C 76.53 390.03 77.40 390.06 77.73 390.40 C 78.06 390.73 77.47 390.96 76.42 390.92 C 75.25 390.87 75.01 390.64 75.81 390.32 Z M 129.54 390.07 C 129.23 389.56 129.42 388.86 129.98 388.51 C 130.54 388.16 131.00 388.58 131.00 389.44 C 131.00 391.20 130.40 391.46 129.54 390.07 Z M 15.75 388.20 C 13.14 388.03 11.00 387.48 11.00 386.98 C 11.00 386.47 11.68 386.32 12.50 386.64 C 13.76 387.12 14.01 385.80 14.08 378.36 C 14.12 373.49 14.05 366.57 13.91 363.00 C 13.70 357.13 13.72 354.52 14.02 350.75 C 14.16 348.94 14.05 307.67 13.88 300.00 C 13.80 296.43 13.71 288.12 13.67 281.53 L 13.60 269.57 L 69.80 269.28 L 126.00 269.00 L 126.06 290.25 C 126.17 326.02 126.19 385.43 126.09 386.73 C 126.02 387.68 116.34 387.97 83.25 388.00 C 59.74 388.02 36.00 388.14 30.50 388.27 C 25.00 388.40 18.36 388.36 15.75 388.20 Z M 9.68 381.95 C 8.74 378.41 8.85 375.79 9.93 376.46 C 10.45 376.78 10.69 375.71 10.48 374.02 C 10.27 372.36 10.52 371.00 11.05 371.00 C 12.17 371.00 12.20 379.62 11.10 382.45 C 10.39 384.25 10.29 384.21 9.68 381.95 Z M 9.00 367.25 C 9.00 366.24 9.47 366.18 11.00 367.00 C 12.10 367.59 13.00 368.25 13.00 368.47 C 13.00 368.69 12.10 368.81 11.00 368.73 C 9.90 368.64 9.00 367.98 9.00 367.25 Z M 10.00 363.94 C 10.00 363.36 10.45 363.16 11.00 363.50 C 11.55 363.84 12.00 364.32 12.00 364.56 C 12.00 364.80 11.55 365.00 11.00 365.00 C 10.45 365.00 10.00 364.52 10.00 363.94 Z M 9.58 356.25 C 10.55 350.75 11.57 350.37 11.57 355.51 C 11.57 358.58 11.15 360.00 10.24 360.00 C 9.25 360.00 9.08 359.04 9.58 356.25 Z M 11.08 341.42 C 11.13 340.25 11.36 340.01 11.68 340.81 C 11.97 341.53 11.94 342.40 11.60 342.73 C 11.27 343.06 11.04 342.47 11.08 341.42 Z M 10.00 338.56 C 10.00 337.70 10.45 337.00 11.00 337.00 C 11.55 337.00 12.00 337.42 12.00 337.94 C 12.00 338.46 11.55 339.16 11.00 339.50 C 10.45 339.84 10.00 339.42 10.00 338.56 Z M 10.26 332.45 C 9.41 331.54 9.36 330.90 10.08 330.45 C 11.45 329.60 12.26 330.46 11.84 332.32 C 11.56 333.56 11.30 333.58 10.26 332.45 Z M 11.08 327.42 C 11.13 326.25 11.36 326.01 11.68 326.81 C 11.97 327.53 11.94 328.40 11.60 328.73 C 11.27 329.06 11.04 328.47 11.08 327.42 Z M 128.35 325.24 C 129.60 320.66 130.04 315.55 129.05 317.00 C 128.16 318.31 128.03 318.29 128.02 316.87 C 128.01 315.98 128.66 314.70 129.46 314.03 C 130.72 312.98 130.92 313.72 130.88 319.33 C 130.84 324.13 130.44 326.00 129.35 326.42 C 128.31 326.82 128.01 326.47 128.35 325.24 Z M 9.00 323.83 C 9.00 323.38 9.68 323.00 10.50 323.00 C 11.32 323.00 12.00 323.38 12.00 323.83 C 12.00 324.29 11.32 324.67 10.50 324.67 C 9.68 324.67 9.00 324.29 9.00 323.83 Z M 10.08 318.42 C 10.13 317.25 10.36 317.01 10.68 317.81 C 10.97 318.53 10.94 319.40 10.60 319.73 C 10.27 320.06 10.04 319.47 10.08 318.42 Z M 10.58 313.13 C 10.15 312.44 10.07 311.60 10.40 311.27 C 11.29 310.37 12.27 311.69 11.79 313.14 C 11.45 314.15 11.21 314.15 10.58 313.13 Z M 10.07 306.81 C 10.03 304.78 10.45 302.84 11.00 302.50 C 12.21 301.75 12.21 305.69 11.00 308.50 C 10.31 310.11 10.13 309.78 10.07 306.81 Z M 9.66 298.05 C 9.28 296.15 9.41 294.19 9.95 293.65 C 11.46 292.14 12.34 295.49 11.27 298.70 L 10.34 301.47 L 9.66 298.05 Z M 132.89 284.25 C 132.92 279.99 132.51 275.82 131.98 275.00 C 131.34 273.98 131.03 276.25 131.02 282.08 C 131.00 289.45 131.41 292.00 132.59 292.00 C 132.73 292.00 132.86 288.51 132.89 284.25 Z M 11.14 288.83 C 11.06 287.91 10.71 286.34 10.35 285.33 C 9.85 283.92 9.99 283.76 10.94 284.63 C 11.62 285.26 11.97 286.83 11.72 288.13 C 11.47 289.44 11.21 289.75 11.14 288.83 Z M 10.22 279.15 C 9.51 278.71 9.22 277.59 9.57 276.67 C 10.54 274.16 12.00 274.66 12.00 277.50 C 12.00 280.29 12.00 280.29 10.22 279.15 Z M 9.00 270.38 C 9.00 269.05 9.27 268.98 10.50 270.00 C 11.32 270.68 12.00 271.41 12.00 271.62 C 12.00 271.83 11.32 272.00 10.50 272.00 C 9.68 272.00 9.00 271.27 9.00 270.38 Z M 10.54 268.07 C 10.17 267.46 9.99 265.96 10.15 264.73 C 10.31 263.50 10.09 261.94 9.66 261.25 C 9.16 260.45 9.45 260.00 10.44 260.00 C 11.32 260.00 12.00 260.85 12.00 261.95 C 12.00 264.68 14.72 265.94 18.35 264.90 C 20.01 264.42 21.61 264.28 21.90 264.57 C 22.86 265.52 19.59 266.97 16.45 266.98 C 14.77 266.99 12.91 267.49 12.31 268.09 C 11.53 268.87 11.03 268.87 10.54 268.07 Z M 35.50 267.00 C 35.16 266.45 35.12 265.62 35.40 265.16 C 35.98 264.22 51.04 264.42 55.00 265.41 C 56.51 265.79 56.82 265.74 55.79 265.27 C 54.85 264.85 64.43 264.39 77.09 264.26 C 90.24 264.12 99.87 264.40 99.56 264.90 C 99.26 265.39 100.13 265.72 101.51 265.64 C 102.88 265.56 104.00 265.16 104.00 264.75 C 104.00 263.46 107.70 263.93 108.90 265.38 C 109.78 266.44 109.75 266.86 108.78 267.17 C 107.84 267.47 75.65 267.31 62.50 266.95 C 61.95 266.93 57.45 267.10 52.50 267.32 C 47.55 267.54 42.50 267.35 41.29 266.90 C 39.99 266.42 38.82 266.48 38.48 267.04 C 37.71 268.29 36.28 268.27 35.50 267.00 Z M 24.27 265.91 C 25.24 265.34 26.99 265.18 28.15 265.55 C 29.56 265.99 30.03 265.85 29.57 265.11 C 29.18 264.49 29.54 264.00 30.38 264.00 C 32.54 264.00 33.27 265.68 31.41 266.40 C 30.55 266.73 28.19 266.99 26.17 266.97 C 23.16 266.94 22.82 266.75 24.27 265.91 Z M 155.40 266.28 C 156.93 265.89 157.02 265.62 155.90 264.88 C 155.02 264.31 159.53 264.00 168.00 264.04 C 175.43 264.07 181.95 264.03 182.50 263.93 C 183.05 263.84 183.95 263.86 184.50 263.98 C 185.05 264.09 190.68 264.14 197.00 264.08 C 204.93 264.01 208.03 264.29 207.00 264.98 C 205.78 265.78 205.92 265.97 207.75 265.98 C 208.99 265.99 210.00 265.61 210.00 265.13 C 210.00 264.65 212.04 264.21 214.54 264.16 C 217.03 264.11 218.83 264.47 218.52 264.96 C 218.22 265.45 218.77 266.06 219.74 266.31 C 220.71 266.56 206.20 266.77 187.50 266.77 C 168.80 266.77 154.35 266.55 155.40 266.28 Z M 221.75 266.42 C 219.90 264.55 221.45 263.91 227.35 264.10 C 230.84 264.21 234.22 263.99 234.85 263.59 C 235.48 263.20 236.00 263.30 236.00 263.80 C 236.00 264.31 237.24 264.50 238.75 264.24 C 241.06 263.83 241.29 263.97 240.20 265.12 C 238.78 266.63 223.05 267.74 221.75 266.42 Z M 244.00 265.96 C 246.05 265.48 247.89 265.52 248.45 266.07 C 249.04 266.65 247.72 266.96 244.95 266.90 L 240.50 266.80 L 244.00 265.96 Z M 228.27 265.34 C 227.59 265.07 226.24 265.05 225.27 265.31 C 224.30 265.56 224.85 265.78 226.50 265.81 C 228.15 265.83 228.95 265.62 228.27 265.34 Z M 242.75 264.34 C 243.44 264.06 244.56 264.06 245.25 264.34 C 245.94 264.62 245.38 264.84 244.00 264.84 C 242.62 264.84 242.06 264.62 242.75 264.34 Z M 249.08 263.42 C 249.13 262.25 249.36 262.01 249.68 262.81 C 249.97 263.53 249.94 264.40 249.60 264.73 C 249.27 265.06 249.04 264.47 249.08 263.42 Z M 249.00 260.06 C 249.00 259.54 249.44 258.84 249.99 258.51 C 250.56 258.16 250.72 258.56 250.38 259.45 C 249.72 261.18 249.00 261.50 249.00 260.06 Z M 248.59 255.15 C 247.44 253.29 248.35 239.20 249.58 239.67 C 250.35 239.97 250.63 242.62 250.41 247.68 C 250.08 255.34 249.70 256.93 248.59 255.15 Z M 10.09 250.27 C 10.07 249.30 9.77 247.04 9.42 245.25 C 9.00 243.14 9.16 242.00 9.89 242.00 C 10.50 242.00 11.05 242.34 11.10 242.75 C 11.76 247.62 11.72 251.05 11.00 251.50 C 10.52 251.80 10.11 251.25 10.09 250.27 Z M 47.51 245.89 C 47.22 245.13 47.10 225.25 47.24 201.72 L 47.50 158.95 L 87.50 158.51 C 109.50 158.27 145.72 157.95 168.00 157.79 L 208.50 157.50 L 208.76 201.75 L 209.02 246.00 L 192.76 246.01 C 183.82 246.02 147.60 246.31 112.27 246.66 C 57.85 247.19 47.97 247.08 47.51 245.89 Z M 115.43 241.25 C 115.07 239.19 114.12 234.35 113.31 230.50 C 110.80 218.51 110.45 197.06 112.53 182.88 C 114.82 167.30 114.88 165.42 113.11 165.80 C 112.35 165.96 103.57 166.36 93.61 166.69 C 79.00 167.18 73.23 166.95 63.72 165.51 C 57.24 164.53 51.80 163.90 51.62 164.12 C 51.45 164.33 51.66 168.32 52.09 173.00 C 53.73 190.86 53.89 207.15 52.62 225.00 C 51.89 235.18 51.42 243.66 51.58 243.85 C 51.74 244.04 56.51 243.41 62.18 242.44 C 75.53 240.16 91.62 240.29 104.50 242.79 C 110.00 243.85 114.86 244.78 115.30 244.86 C 115.73 244.94 115.79 243.31 115.43 241.25 Z M 157.25 241.02 C 160.65 238.35 170.53 238.39 174.64 241.10 C 183.74 247.10 193.28 237.92 191.49 224.90 C 191.12 222.22 189.95 218.93 188.89 217.58 C 186.96 215.14 186.97 215.13 189.48 212.61 C 195.15 206.94 191.18 198.00 182.99 198.00 C 178.96 198.00 178.91 197.96 180.43 195.79 C 181.29 194.58 182.49 190.99 183.12 187.82 C 183.92 183.72 184.78 181.89 186.10 181.47 C 188.93 180.57 192.00 176.07 192.00 172.82 C 192.00 169.41 188.42 165.39 184.51 164.41 C 182.59 163.93 181.03 164.34 178.99 165.85 L 176.15 167.95 L 171.50 165.90 C 166.35 163.62 161.18 163.82 155.98 166.51 C 153.25 167.92 152.73 167.93 150.75 166.54 C 147.82 164.49 142.73 164.59 140.08 166.75 C 135.37 170.60 136.93 180.19 142.50 181.59 C 144.32 182.05 144.89 183.08 145.39 186.85 C 145.73 189.43 146.91 193.22 148.01 195.27 L 150.00 199.00 L 146.43 199.00 C 143.80 199.00 142.06 199.78 139.92 201.92 C 135.92 205.93 135.99 210.14 140.12 214.27 C 142.72 216.87 143.05 217.69 142.10 219.22 C 140.27 222.14 139.70 229.17 140.92 233.69 C 143.08 241.74 151.52 245.53 157.25 241.02 Z M 10.08 238.42 C 10.13 237.25 10.36 237.01 10.68 237.81 C 10.97 238.53 10.94 239.40 10.60 239.73 C 10.27 240.06 10.04 239.47 10.08 238.42 Z M 147.34 236.43 C 145.02 234.11 144.81 233.28 145.21 227.78 C 145.56 222.98 146.13 221.31 147.94 219.85 C 151.08 217.31 152.67 217.52 156.08 220.92 C 160.04 224.89 160.27 232.34 156.55 236.35 C 153.46 239.69 150.62 239.71 147.34 236.43 Z M 176.31 236.59 C 173.89 234.50 173.51 233.47 173.57 229.06 C 173.66 223.37 176.30 218.71 179.73 218.20 C 180.85 218.03 183.05 219.00 184.63 220.36 C 187.14 222.52 187.50 223.51 187.50 228.33 C 187.50 232.78 187.04 234.33 185.08 236.42 C 182.06 239.63 179.90 239.67 176.31 236.59 Z M 249.02 236.75 C 249.03 234.93 249.22 234.79 250.00 236.00 C 251.25 237.94 251.25 239.00 250.00 239.00 C 249.45 239.00 249.01 237.99 249.02 236.75 Z M 9.00 233.58 C 9.00 232.71 9.71 232.00 10.58 232.00 C 12.35 232.00 12.04 234.15 10.19 234.77 C 9.53 234.99 9.00 234.45 9.00 233.58 Z M 59.58 234.07 C 59.41 233.75 59.63 228.78 60.08 223.00 C 61.07 210.14 61.10 191.17 60.14 180.65 L 59.43 172.80 L 64.47 173.62 C 67.23 174.07 77.83 174.46 88.00 174.48 C 100.40 174.51 106.44 174.87 106.31 175.57 C 103.82 189.55 103.51 214.41 105.64 230.38 L 106.29 235.27 L 102.90 234.64 C 96.15 233.40 75.33 232.86 67.69 233.74 C 63.40 234.23 59.75 234.38 59.58 234.07 Z M 10.08 228.42 C 10.13 227.25 10.36 227.01 10.68 227.81 C 10.97 228.53 10.94 229.40 10.60 229.73 C 10.27 230.06 10.04 229.47 10.08 228.42 Z M 248.82 225.55 C 248.53 223.12 248.80 222.00 249.68 222.00 C 250.57 222.00 250.77 222.96 250.33 225.25 C 249.49 229.65 249.30 229.69 248.82 225.55 Z M 10.19 219.50 C 10.22 217.85 10.44 217.30 10.69 218.27 C 10.95 219.24 10.93 220.59 10.66 221.27 C 10.38 221.95 10.17 221.15 10.19 219.50 Z M 248.93 217.42 C 248.89 215.81 248.71 211.35 248.54 207.50 C 248.36 203.65 248.46 201.85 248.76 203.50 C 249.29 206.49 249.30 206.49 249.98 204.00 C 250.36 202.62 250.57 205.46 250.45 210.31 C 250.32 215.15 249.94 219.39 249.61 219.72 C 249.27 220.06 248.97 219.02 248.93 217.42 Z M 9.33 204.22 C 9.31 196.91 9.68 190.70 10.15 190.41 C 10.62 190.12 11.03 190.70 11.07 191.69 C 11.54 204.00 11.46 213.00 10.87 213.00 C 10.47 213.00 9.97 214.01 9.75 215.25 C 9.54 216.49 9.35 211.52 9.33 204.22 Z M 159.70 200.57 C 157.05 198.56 155.62 192.57 157.12 189.76 C 159.45 185.39 163.35 183.96 162.33 187.86 C 162.02 189.02 162.49 189.97 163.55 190.38 C 165.93 191.29 167.90 189.36 167.27 186.71 L 166.74 184.50 L 168.88 186.54 C 172.10 189.60 173.08 194.13 171.31 197.77 C 169.28 201.96 163.40 203.38 159.70 200.57 Z M 249.23 190.00 C 249.23 188.07 249.44 187.29 249.69 188.25 C 249.94 189.21 249.94 190.79 249.69 191.75 C 249.44 192.71 249.23 191.93 249.23 190.00 Z M 9.73 186.32 C 9.47 185.87 9.25 179.09 9.25 171.25 C 9.24 159.81 9.51 157.00 10.62 157.00 C 12.23 157.00 12.44 160.31 11.00 163.01 C 10.40 164.12 10.37 165.11 10.91 165.44 C 11.41 165.75 11.73 170.48 11.63 175.95 C 11.45 185.19 10.88 188.31 9.73 186.32 Z M 248.02 167.72 C 248.03 160.75 248.34 157.98 249.00 159.00 C 249.58 159.90 249.98 160.02 249.98 159.31 C 249.99 158.65 249.52 157.82 248.92 157.45 C 248.23 157.03 247.99 153.27 248.23 146.89 C 248.44 141.45 248.22 137.00 247.75 137.00 C 247.27 137.00 247.16 136.55 247.50 136.01 C 247.83 135.46 248.10 130.98 248.10 126.04 C 248.08 117.04 249.33 113.18 250.29 119.26 C 250.72 121.98 250.54 134.75 249.85 150.07 C 249.76 152.03 250.00 154.85 250.37 156.34 C 250.74 157.83 250.55 159.97 249.95 161.10 C 249.34 162.23 249.16 163.91 249.55 164.83 C 250.80 167.83 250.59 176.94 249.25 177.46 C 248.30 177.82 248.00 175.49 248.02 167.72 Z M 9.21 150.81 C 9.10 146.77 10.11 145.03 11.10 147.57 C 12.34 150.71 12.11 154.00 10.65 154.00 C 9.82 154.00 9.27 152.77 9.21 150.81 Z M 132.98 146.19 C 132.98 145.26 132.53 143.82 132.00 143.00 C 131.28 141.89 131.03 142.48 131.02 145.31 C 131.01 147.60 131.40 148.87 132.00 148.50 C 132.55 148.16 132.99 147.12 132.98 146.19 Z M 197.50 141.82 C 199.08 141.40 137.76 140.46 135.26 140.86 C 134.03 141.06 133.24 141.58 133.51 142.01 C 133.93 142.70 194.89 142.52 197.50 141.82 Z M 207.71 140.38 C 206.96 139.63 201.04 141.25 201.54 142.06 C 201.82 142.51 203.41 142.41 205.07 141.82 C 206.74 141.24 207.93 140.59 207.71 140.38 Z M 20.00 140.50 C 20.68 139.68 21.82 139.00 22.52 139.00 C 23.21 139.00 24.05 139.68 24.36 140.50 C 24.80 141.63 24.18 142.00 21.85 142.00 C 19.21 142.00 18.94 141.78 20.00 140.50 Z M 32.81 141.32 C 33.53 141.03 34.40 141.06 34.73 141.40 C 35.06 141.73 34.47 141.96 33.42 141.92 C 32.25 141.87 32.01 141.64 32.81 141.32 Z M 37.00 141.00 C 37.00 140.45 37.45 140.00 38.00 140.00 C 38.55 140.00 39.00 140.45 39.00 141.00 C 39.00 141.55 38.55 142.00 38.00 142.00 C 37.45 142.00 37.00 141.55 37.00 141.00 Z M 29.27 139.31 C 30.24 139.05 31.59 139.07 32.27 139.34 C 32.95 139.62 32.15 139.83 30.50 139.81 C 28.85 139.78 28.30 139.56 29.27 139.31 Z M 243.00 139.00 C 243.00 138.45 243.42 138.00 243.94 138.00 C 244.46 138.00 245.16 138.45 245.50 139.00 C 245.84 139.55 245.42 140.00 244.56 140.00 C 243.70 140.00 243.00 139.55 243.00 139.00 Z M 132.98 135.21 C 132.87 131.53 132.14 49.06 132.08 34.25 C 132.01 16.62 131.85 15.00 130.25 14.97 C 128.60 14.94 128.60 14.88 130.27 13.91 C 131.25 13.34 131.74 12.40 131.38 11.81 C 131.00 11.19 131.31 10.94 132.11 11.20 C 132.87 11.46 133.50 12.30 133.50 13.08 C 133.50 14.00 134.73 14.56 137.00 14.67 L 140.50 14.85 L 137.50 14.04 C 134.79 13.32 134.99 13.22 139.50 13.02 C 142.25 12.90 146.25 12.89 148.39 12.99 C 150.53 13.09 152.58 12.67 152.96 12.07 C 153.88 10.57 185.00 9.50 185.00 10.96 C 185.00 11.53 185.68 12.00 186.50 12.00 C 187.32 12.00 188.00 11.53 188.00 10.96 C 188.00 10.28 193.58 10.01 204.29 10.15 C 213.25 10.28 221.16 10.02 221.87 9.58 C 223.06 8.84 233.17 9.48 239.00 10.66 C 240.97 11.05 241.18 10.94 240.00 10.10 C 238.76 9.22 238.90 9.03 240.81 9.02 C 242.10 9.01 242.84 9.44 242.50 10.00 C 242.16 10.55 242.33 11.00 242.88 11.00 C 243.43 11.00 244.10 10.65 244.36 10.22 C 244.63 9.79 246.34 9.37 248.17 9.28 C 250.00 9.19 250.96 9.35 250.31 9.63 C 249.65 9.90 249.24 10.66 249.39 11.31 C 249.55 11.97 249.52 12.26 249.33 11.97 C 248.72 11.05 240.99 12.17 241.56 13.10 C 241.87 13.60 243.10 14.00 244.31 14.00 L 246.50 14.00 L 246.00 74.25 L 245.50 134.50 L 237.00 134.64 C 182.90 135.50 133.00 135.78 132.98 135.21 Z M 129.13 132.65 C 127.78 131.03 127.78 98.25 129.13 97.42 C 129.62 97.12 129.54 96.01 128.95 94.91 C 127.78 92.72 127.92 75.00 129.12 75.00 C 129.53 75.00 130.05 73.54 130.27 71.75 C 130.49 69.96 130.73 83.24 130.80 101.25 C 130.88 119.26 130.79 134.00 130.60 134.00 C 130.40 134.00 129.74 133.39 129.13 132.65 Z M 248.25 107.48 C 248.25 103.90 248.61 100.74 249.05 100.47 C 250.42 99.62 250.98 103.32 250.08 107.24 C 249.57 109.43 249.59 110.76 250.11 110.43 C 250.60 110.13 251.00 110.81 251.00 111.94 C 251.00 113.07 250.38 114.00 249.62 114.00 C 248.60 114.00 248.25 112.35 248.25 107.48 Z M 248.19 76.47 C 248.15 61.89 248.54 51.87 249.17 50.69 C 249.91 49.31 249.89 48.95 249.10 49.44 C 247.63 50.34 247.77 49.05 249.44 46.02 C 250.63 43.87 250.79 47.12 250.58 70.06 C 250.43 86.28 249.93 97.30 249.29 98.45 C 248.53 99.81 248.22 93.71 248.19 76.47 Z M 128.41 53.31 C 128.49 46.05 128.88 39.79 129.28 39.39 C 130.66 38.01 130.64 58.07 129.25 63.00 C 128.49 65.70 128.30 63.48 128.41 53.31 Z M 248.86 42.42 C 248.79 41.36 248.65 35.26 248.55 28.85 C 248.41 19.95 248.66 17.32 249.61 17.68 C 250.54 18.04 250.73 21.30 250.36 30.81 C 249.91 42.21 249.23 47.53 248.86 42.42 Z M 128.35 36.46 C 128.02 35.61 128.03 34.63 128.38 34.29 C 128.72 33.95 129.00 34.22 129.00 34.89 C 129.00 35.57 129.44 35.84 129.99 35.51 C 130.56 35.16 130.72 35.56 130.38 36.45 C 129.63 38.41 129.09 38.41 128.35 36.46 Z M 128.67 28.33 C 127.52 27.18 127.94 26.00 129.50 26.00 C 130.32 26.00 131.00 26.68 131.00 27.50 C 131.00 29.06 129.82 29.48 128.67 28.33 Z M 22.22 22.75 C 23.69 21.60 23.68 21.04 22.13 16.00 C 20.58 10.95 20.18 10.47 17.21 10.19 C 12.98 9.77 12.20 11.86 14.56 17.30 C 16.81 22.49 17.91 24.00 19.43 24.00 C 20.08 24.00 21.34 23.44 22.22 22.75 Z M 170.56 13.47 C 168.40 11.84 164.00 11.48 164.00 12.93 C 164.00 13.45 165.24 14.05 166.75 14.28 C 172.21 15.11 172.61 15.02 170.56 13.47 Z M 183.25 14.34 C 182.56 14.06 181.44 14.06 180.75 14.34 C 180.06 14.62 180.62 14.84 182.00 14.84 C 183.38 14.84 183.94 14.62 183.25 14.34 Z M 202.00 14.00 C 204.11 13.32 203.83 13.18 200.19 13.10 C 197.55 13.04 196.12 13.39 196.50 14.00 C 197.20 15.14 198.44 15.14 202.00 14.00 Z M 161.50 13.00 C 161.16 12.45 159.98 12.00 158.88 12.00 C 157.78 12.00 157.16 12.45 157.50 13.00 C 157.84 13.55 159.02 14.00 160.12 14.00 C 161.22 14.00 161.84 13.55 161.50 13.00 Z M 176.00 13.00 C 176.00 12.45 175.30 12.00 174.44 12.00 C 173.58 12.00 173.16 12.45 173.50 13.00 C 173.84 13.55 174.54 14.00 175.06 14.00 C 175.58 14.00 176.00 13.55 176.00 13.00 Z M 211.00 12.50 C 211.00 11.68 210.62 11.00 210.17 11.00 C 209.71 11.00 209.33 11.68 209.33 12.50 C 209.33 13.32 209.71 14.00 210.17 14.00 C 210.62 14.00 211.00 13.32 211.00 12.50 Z M 218.27 13.34 C 217.59 13.07 216.24 13.05 215.27 13.31 C 214.30 13.56 214.85 13.78 216.50 13.81 C 218.15 13.83 218.95 13.62 218.27 13.34 Z M 192.00 12.00 C 192.00 11.45 191.30 11.00 190.44 11.00 C 189.58 11.00 189.16 11.45 189.50 12.00 C 189.84 12.55 190.54 13.00 191.06 13.00 C 191.58 13.00 192.00 12.55 192.00 12.00 Z M 136.81 11.32 C 137.53 11.03 138.40 11.06 138.73 11.40 C 139.06 11.73 138.47 11.96 137.42 11.92 C 136.25 11.87 136.01 11.64 136.81 11.32 Z M 226.20 10.80 C 225.27 9.87 224.73 9.87 223.80 10.80 C 222.87 11.73 223.13 12.00 225.00 12.00 C 226.87 12.00 227.13 11.73 226.20 10.80 Z" fill="none" stroke="rgba(255,255,255,0.92)" stroke-width="1.5" stroke-linejoin="round" fill-rule="evenodd"/>
</svg>
