<svg xmlns="http://www.w3.org/2000/svg" viewBox="0 0 100 100" width="100" height="100">
  <path d="M 0.00 50.00 L 0.00 0.00 L 50.00 0.00 L 100.00 0.00 L 100.00 50.00 L 100.00 100.00 L 50.00 100.00 L 0.00 100.00 L 0.00 50.00 Z M 92.69 86.44 C 92.75 81.18 93.06 76.60 93.40 76.27 C 93.73 75.94 94.00 80.24 94.00 85.83 C 94.00 91.42 94.40 96.00 94.90 96.00 C 95.41 96.00 95.84 76.40 95.91 50.00 C 95.99 19.46 95.69 4.00 95.02 4.00 C 94.46 4.00 94.00 6.28 94.00 9.06 C 94.00 12.19 93.62 13.88 93.00 13.50 C 92.44 13.16 92.15 10.92 92.35 8.53 L 92.71 4.19 L 89.11 4.52 C 87.12 4.70 80.44 4.93 74.25 5.03 C 68.06 5.13 63.00 5.55 63.00 5.95 C 63.00 6.36 69.28 6.48 76.95 6.23 L 90.91 5.77 L 90.85 49.63 C 90.79 99.02 90.73 96.00 91.80 96.00 C 92.24 96.00 92.64 91.70 92.69 86.44 Z M 49.30 90.03 L 68.10 90.00 L 67.93 51.48 C 67.83 28.61 67.37 12.73 66.81 12.38 C 66.29 12.06 51.95 12.13 34.93 12.53 L 4.00 13.27 L 4.00 15.88 L 4.00 18.50 L 33.00 18.16 L 62.00 17.82 L 62.00 50.91 C 62.00 81.70 61.88 84.01 60.25 84.15 C 59.29 84.24 58.05 84.41 57.50 84.54 C 56.95 84.66 44.69 84.82 30.25 84.88 L 4.00 85.00 L 4.00 88.12 L 4.00 91.24 L 17.25 90.65 C 24.54 90.32 38.96 90.04 49.30 90.03 Z M 21.55 81.06 C 22.98 79.64 33.86 79.46 35.23 80.83 C 36.87 82.47 42.14 82.29 44.70 80.50 C 49.04 77.46 49.92 68.85 46.45 63.36 C 45.27 61.49 45.34 61.00 47.05 59.46 C 51.27 55.64 48.08 48.67 42.11 48.67 C 39.25 48.67 39.25 48.65 40.62 45.37 C 41.38 43.55 42.00 40.94 42.00 39.56 C 42.00 37.79 42.88 36.60 44.99 35.51 C 48.71 33.58 49.79 29.85 47.60 26.51 C 45.44 23.21 41.66 22.34 38.49 24.41 C 36.24 25.89 35.71 25.90 33.05 24.52 C 29.30 22.59 25.70 22.59 21.94 24.53 C 19.77 25.65 18.47 25.79 17.06 25.03 C 12.44 22.56 7.60 24.48 6.45 29.25 C 5.91 31.49 6.35 32.52 8.83 34.85 C 10.51 36.41 12.20 39.00 12.58 40.60 C 12.97 42.19 13.90 44.74 14.67 46.25 C 16.00 48.90 15.95 49.00 13.48 49.00 C 10.38 49.00 6.00 53.10 6.00 56.00 C 6.00 57.15 7.13 59.22 8.51 60.60 C 10.49 62.58 10.80 63.50 10.01 64.99 C 7.66 69.37 9.74 79.93 13.23 81.33 C 15.42 82.21 20.56 82.04 21.55 81.06 Z M 13.40 76.48 C 11.60 73.75 11.96 67.96 14.07 65.41 C 15.71 63.44 19.37 63.65 21.35 65.83 C 23.63 68.35 23.53 75.21 21.17 77.35 C 18.52 79.74 15.30 79.38 13.40 76.48 Z M 36.57 77.43 C 34.13 74.99 33.72 71.62 35.38 67.64 C 36.97 63.84 39.29 63.01 42.93 64.96 C 47.45 67.38 45.54 79.00 40.62 79.00 C 39.26 79.00 37.44 78.29 36.57 77.43 Z M 93.27 70.00 C 93.27 67.53 93.47 66.51 93.71 67.75 C 93.94 68.99 93.94 71.01 93.71 72.25 C 93.47 73.49 93.27 72.47 93.27 70.00 Z M 92.95 62.25 C 92.92 60.74 92.77 57.59 92.63 55.25 C 92.49 52.91 92.74 51.00 93.18 51.00 C 93.63 51.00 94.00 54.15 94.00 58.00 C 94.00 61.85 93.78 65.00 93.50 65.00 C 93.22 65.00 92.98 63.76 92.95 62.25 Z M 22.56 48.78 C 21.70 47.56 21.00 45.86 21.00 45.00 C 21.00 43.17 23.74 39.00 24.95 39.00 C 25.40 39.00 25.72 39.79 25.64 40.75 C 25.55 41.88 26.21 42.50 27.50 42.50 C 28.79 42.50 29.45 41.88 29.36 40.75 C 29.06 36.89 32.39 39.73 33.54 44.30 C 35.01 50.18 26.09 53.82 22.56 48.78 Z M 93.29 40.50 C 93.29 37.75 93.49 36.74 93.72 38.26 C 93.95 39.78 93.94 42.03 93.70 43.26 C 93.47 44.49 93.28 43.25 93.29 40.50 Z M 92.35 28.00 C 92.27 25.25 92.60 23.00 93.10 23.00 C 93.59 23.00 94.00 25.25 94.00 28.00 C 94.00 34.51 92.55 34.51 92.35 28.00 Z M 93.25 18.50 C 93.26 16.30 93.47 15.52 93.71 16.76 C 93.95 18.01 93.94 19.81 93.69 20.76 C 93.44 21.72 93.24 20.70 93.25 18.50 Z M 40.72 6.39 C 39.91 5.58 5.10 5.57 4.29 6.38 C 3.95 6.72 12.14 7.00 22.50 7.00 C 32.86 7.00 41.06 6.72 40.72 6.39 Z M 45.25 6.34 C 44.56 6.06 43.44 6.06 42.75 6.34 C 42.06 6.62 42.62 6.84 44.00 6.84 C 45.38 6.84 45.94 6.62 45.25 6.34 Z M 52.27 6.34 C 51.59 6.07 50.24 6.05 49.27 6.31 C 48.30 6.56 48.85 6.78 50.50 6.81 C 52.15 6.83 52.95 6.62 52.27 6.34 Z M 58.73 6.40 C 58.40 6.06 57.53 6.03 56.81 6.32 C 56.01 6.64 56.25 6.87 57.42 6.92 C 58.47 6.96 59.06 6.73 58.73 6.40 Z" fill="none" stroke="rgba(255,255,255,0.92)" stroke-width="1.2" stroke-linejoin="round" fill-rule="evenodd"/>
</svg>
