<svg xmlns="http://www.w3.org/2000/svg" viewBox="0 0 100 100" width="100" height="100">
  <path d="M 0.00 50.00 L 0.00 0.00 L 50.00 0.00 L 100.00 0.00 L 100.00 50.00 L 100.00 100.00 L 50.00 100.00 L 0.00 100.00 L 0.00 50.00 Z M 9.00 94.44 C 9.00 93.58 8.60 93.13 8.10 93.44 C 7.61 93.74 7.21 92.31 7.23 90.25 C 7.25 88.19 7.47 87.06 7.71 87.75 C 8.77 90.67 10.00 88.63 10.00 83.97 C 10.00 80.42 9.56 78.77 8.50 78.36 C 7.67 78.05 7.00 77.40 7.00 76.92 C 7.00 76.45 7.67 76.32 8.50 76.64 C 9.73 77.11 9.98 76.24 9.87 71.86 C 9.75 66.92 9.68 66.78 9.00 70.00 C 8.20 73.82 7.89 73.82 7.46 70.00 C 7.30 68.60 7.88 66.95 8.78 66.25 C 10.24 65.11 10.23 65.00 8.69 65.00 C 7.76 65.00 7.00 64.55 7.00 64.00 C 7.00 63.45 7.67 63.00 8.50 63.00 C 9.33 63.00 10.00 62.11 10.00 61.00 C 10.00 59.90 9.55 59.00 9.00 59.00 C 8.45 59.00 8.00 59.70 8.00 60.56 C 8.00 61.42 7.55 61.84 7.00 61.50 C 5.56 60.61 5.76 59.38 7.66 57.48 C 9.07 56.08 9.11 55.68 7.91 54.92 C 6.64 54.12 7.33 53.58 9.25 53.88 C 9.66 53.95 10.00 53.55 10.00 53.00 C 10.00 52.45 9.23 52.00 8.30 52.00 C 6.98 52.00 6.87 51.73 7.80 50.80 C 9.25 49.35 9.40 47.63 8.00 48.50 C 7.42 48.86 7.00 47.84 7.00 46.06 C 7.00 44.38 7.45 43.00 8.00 43.00 C 8.55 43.00 9.00 42.52 9.00 41.94 C 9.00 41.36 8.55 41.16 8.00 41.50 C 7.45 41.84 7.00 41.64 7.00 41.06 C 7.00 40.48 7.79 39.99 8.75 39.97 C 10.42 39.94 10.42 39.87 8.75 38.61 C 6.73 37.08 6.45 35.89 8.19 36.25 C 8.85 36.39 9.41 35.60 9.44 34.50 C 9.47 33.40 9.05 32.41 8.50 32.30 C 7.43 32.09 5.83 25.84 6.63 25.04 C 6.89 24.77 7.53 25.22 8.04 26.03 C 8.55 26.84 8.98 27.02 8.98 26.44 C 8.99 25.86 8.39 24.54 7.64 23.52 C 6.21 21.57 6.59 17.63 8.11 18.57 C 8.85 19.02 9.46 16.31 9.16 13.88 C 9.12 13.54 21.10 13.17 35.79 13.06 C 85.72 12.70 96.00 12.50 96.00 11.90 C 96.00 11.57 94.99 10.82 93.75 10.22 L 91.50 9.14 L 93.75 9.07 C 94.99 9.03 96.00 8.56 96.00 8.02 C 96.00 7.04 6.04 7.70 5.00 8.69 C 4.56 9.11 4.55 20.63 4.91 81.75 C 5.00 95.30 5.10 96.00 7.00 96.00 C 8.14 96.00 9.00 95.33 9.00 94.44 Z M 95.41 56.16 C 95.35 34.24 94.99 15.79 94.60 15.16 C 93.73 13.76 86.79 13.61 85.44 14.96 C 84.24 16.16 26.26 16.70 20.18 15.58 C 16.43 14.88 15.55 15.08 13.43 17.06 C 10.63 19.69 10.19 24.54 12.47 27.56 C 14.61 30.38 14.63 85.27 12.50 89.00 C 11.71 90.38 11.05 92.51 11.04 93.75 L 11.00 96.00 L 53.25 96.00 L 95.50 96.00 L 95.41 56.16 Z M 28.18 91.10 C 28.36 90.06 34.33 83.08 41.46 75.58 L 54.42 61.95 L 68.21 75.71 C 75.80 83.28 82.00 90.27 82.00 91.24 C 82.00 92.88 80.12 93.00 54.93 93.00 C 28.91 93.00 27.87 92.93 28.18 91.10 Z M 7.75 86.43 C 7.34 86.01 7.00 84.30 7.00 82.63 C 7.00 80.46 7.31 79.91 8.08 80.68 C 8.67 81.27 9.01 82.98 8.83 84.47 C 8.65 85.97 8.16 86.85 7.75 86.43 Z M 20.67 84.33 C 20.30 83.97 20.00 71.82 20.00 57.33 C 20.00 32.84 20.12 31.00 21.76 31.00 C 22.73 31.00 29.58 37.07 36.99 44.49 L 50.44 57.97 L 37.47 71.34 C 25.45 83.73 22.41 86.08 20.67 84.33 Z M 72.35 71.47 L 58.79 57.97 L 62.25 54.14 C 73.20 42.03 85.62 30.00 87.19 30.00 C 88.89 30.00 89.00 31.60 89.00 56.89 C 89.00 80.27 88.80 83.86 87.45 84.38 C 86.38 84.79 81.70 80.79 72.35 71.47 Z M 40.50 39.44 C 33.35 32.08 27.35 25.37 27.18 24.53 C 26.94 23.40 27.73 23.00 30.18 22.99 C 32.00 22.98 44.41 22.69 57.75 22.33 C 80.81 21.72 82.00 21.78 82.00 23.52 C 82.00 25.15 55.39 53.13 54.04 52.91 C 53.74 52.87 47.65 46.80 40.50 39.44 Z M 6.50 34.00 C 6.16 33.45 6.36 33.00 6.94 33.00 C 7.52 33.00 8.00 33.45 8.00 34.00 C 8.00 34.55 7.80 35.00 7.56 35.00 C 7.32 35.00 6.84 34.55 6.50 34.00 Z M 64.50 10.00 C 64.84 9.45 65.57 9.00 66.12 9.00 C 66.67 9.00 66.84 9.45 66.50 10.00 C 66.16 10.55 65.43 11.00 64.88 11.00 C 64.33 11.00 64.16 10.55 64.50 10.00 Z M 75.44 9.91 C 75.13 9.41 76.03 9.00 77.44 9.00 C 80.51 9.00 80.75 9.57 78.00 10.29 C 76.90 10.58 75.75 10.40 75.44 9.91 Z" fill="none" stroke="rgba(255,255,255,0.92)" stroke-width="1.2" stroke-linejoin="round" fill-rule="evenodd"/>
</svg>
