<svg xmlns="http://www.w3.org/2000/svg" viewBox="0 0 100 100" width="100" height="100">
  <path d="M 0.00 50.00 L 0.00 0.00 L 50.00 0.00 L 100.00 0.00 L 100.00 50.00 L 100.00 100.00 L 50.00 100.00 L 0.00 100.00 L 0.00 50.00 Z M 87.44 92.69 C 88.24 90.42 88.00 89.06 86.21 85.69 C 84.07 81.65 84.00 80.51 84.03 54.00 C 84.06 31.41 84.33 26.15 85.53 24.56 C 87.80 21.57 87.34 17.25 84.45 14.35 C 82.23 12.13 81.34 11.89 77.70 12.46 C 75.39 12.83 60.26 13.61 44.08 14.20 C 22.21 15.00 14.20 14.98 12.85 14.14 C 11.85 13.51 9.45 13.00 7.51 13.00 L 4.00 13.00 L 4.00 54.51 L 4.00 96.02 L 45.23 95.76 L 86.45 95.50 L 87.44 92.69 Z M 93.49 67.23 C 93.33 51.43 93.15 30.93 93.10 21.67 L 93.00 4.84 L 56.25 5.36 C 36.04 5.65 16.07 5.92 11.88 5.95 C 4.42 6.00 4.25 6.06 4.25 8.50 L 4.25 11.00 L 15.07 11.00 C 24.80 11.00 29.18 10.04 25.76 8.66 C 25.07 8.39 25.49 8.12 26.69 8.08 C 29.42 7.98 30.65 9.70 28.26 10.27 C 27.29 10.51 40.27 10.57 57.09 10.43 L 87.68 10.16 L 87.91 13.83 C 88.04 15.85 88.17 18.18 88.21 19.00 C 88.24 19.82 88.72 21.06 89.26 21.75 C 89.93 22.60 89.87 23.00 89.06 23.00 C 88.17 23.00 88.04 30.75 88.52 55.25 C 88.87 72.99 89.15 89.32 89.14 91.54 C 89.12 95.05 89.43 95.60 91.45 95.77 L 93.78 95.96 L 93.49 67.23 Z M 17.00 88.96 C 17.00 87.70 22.00 81.80 30.19 73.42 L 43.38 59.91 L 57.19 73.69 C 64.79 81.27 71.00 88.27 71.00 89.24 C 71.00 90.88 69.13 91.00 44.00 91.00 C 17.50 91.00 17.00 90.96 17.00 88.96 Z M 10.35 82.23 C 9.55 81.72 9.09 73.52 8.82 55.28 C 8.49 33.12 8.65 28.97 9.86 28.50 C 10.79 28.14 16.29 32.90 25.23 41.77 L 39.16 55.60 L 25.97 69.30 C 18.72 76.84 12.50 82.99 12.15 82.98 C 11.79 82.98 10.98 82.64 10.35 82.23 Z M 60.96 68.84 C 53.80 61.60 48.07 55.33 48.22 54.89 C 48.37 54.46 54.49 48.03 61.81 40.61 C 70.38 31.92 75.64 27.31 76.56 27.66 C 77.76 28.12 78.00 32.63 78.00 55.11 C 78.00 81.40 77.95 82.00 75.99 82.00 C 74.73 82.00 69.08 77.06 60.96 68.84 Z M 90.16 59.00 C 90.16 57.62 90.38 57.06 90.66 57.75 C 90.94 58.44 90.94 59.56 90.66 60.25 C 90.38 60.94 90.16 60.38 90.16 59.00 Z M 29.73 37.79 C 22.16 30.48 15.97 23.77 15.98 22.88 C 16.01 20.66 20.74 20.23 47.69 20.06 C 68.55 19.92 70.00 20.02 69.97 21.70 C 69.95 22.69 63.98 29.71 56.72 37.29 L 43.50 51.09 L 29.73 37.79 Z M 89.00 9.00 C 89.00 7.90 89.17 7.00 89.38 7.00 C 89.59 7.00 90.00 7.90 90.29 9.00 C 90.58 10.10 90.40 11.00 89.91 11.00 C 89.41 11.00 89.00 10.10 89.00 9.00 Z M 48.00 8.07 C 46.42 7.62 48.36 7.32 53.26 7.25 C 57.54 7.19 60.81 7.50 60.54 7.94 C 59.92 8.94 51.36 9.02 48.00 8.07 Z M 64.50 8.00 C 64.16 7.45 64.36 7.00 64.94 7.00 C 65.52 7.00 66.00 7.45 66.00 8.00 C 66.00 8.55 65.80 9.00 65.56 9.00 C 65.32 9.00 64.84 8.55 64.50 8.00 Z M 70.81 8.32 C 71.53 8.03 72.40 8.06 72.73 8.40 C 73.06 8.73 72.47 8.96 71.42 8.92 C 70.25 8.87 70.01 8.64 70.81 8.32 Z M 67.81 7.32 C 68.53 7.03 69.40 7.06 69.73 7.40 C 70.06 7.73 69.47 7.96 68.42 7.92 C 67.25 7.87 67.01 7.64 67.81 7.32 Z" fill="none" stroke="rgba(255,255,255,0.92)" stroke-width="1.2" stroke-linejoin="round" fill-rule="evenodd"/>
</svg>
