<svg xmlns="http://www.w3.org/2000/svg" viewBox="0 0 384 400" width="384" height="400">
  <path d="M 0.00 200.00 L 0.00 0.00 L 192.00 0.00 L 384.00 0.00 L 384.00 200.00 L 384.00 400.00 L 192.00 400.00 L 0.00 400.00 L 0.00 200.00 Z M 76.16 393.42 C 112.65 393.11 162.07 392.73 186.00 392.58 C 230.02 392.31 325.37 391.10 352.00 390.48 C 359.98 390.29 369.36 390.11 372.87 390.07 L 379.23 390.00 L 378.69 314.75 C 377.85 199.34 377.79 195.65 376.91 193.29 C 376.45 192.07 376.43 190.85 376.87 190.58 C 377.30 190.31 377.54 186.81 377.39 182.80 C 376.69 164.24 375.07 52.37 375.07 23.00 L 375.07 6.50 L 356.29 6.77 C 305.71 7.50 262.22 8.04 219.00 8.47 C 58.77 10.04 6.92 10.75 6.30 11.37 C 5.79 11.87 5.89 57.73 6.58 143.50 C 6.81 172.10 7.19 234.88 7.43 283.00 C 7.67 331.12 7.90 376.04 7.93 382.81 C 7.97 389.92 8.38 394.88 8.91 394.56 C 9.41 394.25 39.67 393.74 76.16 393.42 Z M 37.00 390.00 C 37.00 389.45 37.48 389.00 38.06 389.00 C 38.64 389.00 38.84 389.45 38.50 390.00 C 38.16 390.55 37.68 391.00 37.44 391.00 C 37.20 391.00 37.00 390.55 37.00 390.00 Z M 68.00 390.00 C 66.79 389.22 66.93 389.03 68.75 389.02 C 69.99 389.01 71.00 389.45 71.00 390.00 C 71.00 391.25 69.94 391.25 68.00 390.00 Z M 81.00 389.75 C 81.00 388.69 84.77 388.81 85.43 389.89 C 85.74 390.39 84.87 390.72 83.49 390.64 C 82.12 390.56 81.00 390.16 81.00 389.75 Z M 172.00 390.00 C 172.00 389.45 172.70 389.00 173.56 389.00 C 174.42 389.00 174.84 389.45 174.50 390.00 C 174.16 390.55 173.46 391.00 172.94 391.00 C 172.42 391.00 172.00 390.55 172.00 390.00 Z M 25.75 389.34 C 26.44 389.06 27.56 389.06 28.25 389.34 C 28.94 389.62 28.38 389.84 27.00 389.84 C 25.62 389.84 25.06 389.62 25.75 389.34 Z M 89.81 389.32 C 90.53 389.03 91.40 389.06 91.73 389.40 C 92.06 389.73 91.47 389.96 90.42 389.92 C 89.25 389.87 89.01 389.64 89.81 389.32 Z M 133.00 389.00 C 133.00 388.45 133.48 388.00 134.06 388.00 C 134.64 388.00 134.84 388.45 134.50 389.00 C 134.16 389.55 133.68 390.00 133.44 390.00 C 133.20 390.00 133.00 389.55 133.00 389.00 Z M 219.50 389.00 C 219.16 388.45 219.36 388.00 219.94 388.00 C 220.52 388.00 221.00 388.45 221.00 389.00 C 221.00 389.55 220.80 390.00 220.56 390.00 C 220.32 390.00 219.84 389.55 219.50 389.00 Z M 269.00 388.44 C 269.00 387.58 269.46 387.16 270.02 387.51 C 270.58 387.86 270.77 388.56 270.46 389.07 C 269.60 390.46 269.00 390.20 269.00 388.44 Z M 197.81 388.32 C 198.53 388.03 199.40 388.06 199.73 388.40 C 200.06 388.73 199.47 388.96 198.42 388.92 C 197.25 388.87 197.01 388.64 197.81 388.32 Z M 209.50 388.00 C 209.16 387.45 209.58 387.00 210.44 387.00 C 211.30 387.00 212.00 387.45 212.00 388.00 C 212.00 388.55 211.58 389.00 211.06 389.00 C 210.54 389.00 209.84 388.55 209.50 388.00 Z M 245.50 388.00 C 244.72 386.73 246.04 386.73 248.00 388.00 C 249.29 388.84 249.27 388.97 247.81 388.98 C 246.88 388.99 245.84 388.55 245.50 388.00 Z M 249.50 388.00 C 249.16 387.45 249.61 387.00 250.50 387.00 C 251.39 387.00 251.84 387.45 251.50 388.00 C 251.16 388.55 250.71 389.00 250.50 389.00 C 250.29 389.00 249.84 388.55 249.50 388.00 Z M 282.50 388.00 C 282.84 387.45 283.32 387.00 283.56 387.00 C 283.80 387.00 284.00 387.45 284.00 388.00 C 284.00 388.55 283.52 389.00 282.94 389.00 C 282.36 389.00 282.16 388.55 282.50 388.00 Z M 37.83 387.00 C 23.71 386.73 11.83 386.16 11.41 385.75 C 11.00 385.34 11.42 385.00 12.33 385.00 C 13.81 385.00 14.00 383.45 14.00 371.70 C 14.00 362.43 13.62 358.00 12.75 357.08 C 11.75 356.01 11.75 355.66 12.75 355.29 C 13.44 355.04 13.96 353.86 13.92 352.67 C 13.88 351.48 13.62 351.06 13.34 351.75 C 13.06 352.44 12.42 353.00 11.92 353.00 C 10.57 353.00 10.80 349.61 12.25 348.08 C 13.25 347.01 13.25 346.66 12.25 346.29 C 11.56 346.04 11.05 344.86 11.12 343.67 C 11.21 341.98 11.33 341.88 11.69 343.25 C 11.94 344.21 12.49 345.00 12.92 345.00 C 13.58 345.00 13.65 332.39 13.00 331.00 C 12.87 330.73 12.82 330.14 12.90 329.70 C 13.82 324.24 14.46 299.13 13.70 298.37 C 13.45 298.11 12.51 298.63 11.62 299.52 C 10.13 301.02 10.00 301.01 10.00 299.48 C 10.00 298.56 10.90 297.58 12.00 297.29 C 14.84 296.55 14.66 292.45 11.75 291.49 L 9.50 290.75 L 11.66 290.32 C 13.63 289.92 13.82 289.26 13.82 282.94 C 13.82 279.01 13.43 276.24 12.91 276.55 C 12.41 276.86 12.00 277.79 12.00 278.62 C 12.00 279.44 11.59 279.87 11.10 279.56 C 10.60 279.25 10.24 277.45 10.30 275.54 C 10.37 273.06 10.72 272.35 11.54 273.03 C 13.00 274.25 14.00 273.25 14.00 270.57 C 14.00 268.52 14.41 268.48 34.75 268.31 C 46.16 268.22 71.92 267.90 92.00 267.60 L 128.50 267.05 L 128.84 326.53 C 129.11 375.62 128.94 386.01 127.84 386.07 C 127.10 386.11 112.78 386.23 96.00 386.32 C 79.22 386.42 65.05 386.73 64.50 387.00 C 63.95 387.28 51.95 387.27 37.83 387.00 Z M 357.50 387.00 C 357.16 386.45 357.36 386.00 357.94 386.00 C 358.52 386.00 359.00 386.45 359.00 387.00 C 359.00 387.55 358.80 388.00 358.56 388.00 C 358.32 388.00 357.84 387.55 357.50 387.00 Z M 135.48 385.96 C 135.25 385.59 135.45 383.93 135.92 382.28 C 136.80 379.21 136.04 376.65 134.41 377.20 C 133.91 377.36 133.39 377.05 133.25 376.50 C 133.11 375.95 133.56 375.50 134.25 375.50 C 135.24 375.50 135.46 364.09 135.29 321.25 L 135.08 267.00 L 139.79 266.95 C 142.38 266.93 168.24 266.79 197.25 266.65 C 253.88 266.37 250.68 266.10 250.15 271.00 C 249.90 273.30 250.00 299.35 250.43 344.25 L 250.81 385.00 L 245.66 385.02 C 242.82 385.04 222.72 385.31 201.00 385.63 C 157.50 386.27 160.66 386.26 153.00 385.78 C 149.97 385.59 144.89 385.71 141.70 386.04 C 138.51 386.37 135.71 386.34 135.48 385.96 Z M 253.00 384.95 C 253.00 383.74 254.22 383.15 255.60 383.68 C 257.66 384.47 257.31 385.57 255.00 385.57 C 253.90 385.57 253.00 385.29 253.00 384.95 Z M 337.81 385.32 C 338.53 385.03 339.40 385.06 339.73 385.40 C 340.06 385.73 339.47 385.96 338.42 385.92 C 337.25 385.87 337.01 385.64 337.81 385.32 Z M 257.90 378.22 C 257.84 374.52 257.66 366.77 257.50 361.00 C 256.95 341.34 256.69 266.98 257.17 266.49 C 257.44 266.23 283.59 265.87 315.29 265.69 C 360.44 265.45 372.71 265.64 371.92 266.59 C 371.37 267.26 371.18 268.86 371.50 270.15 C 371.82 271.44 372.17 297.36 372.29 327.75 L 372.50 383.00 L 361.50 383.09 C 355.45 383.14 343.75 383.34 335.50 383.54 C 327.25 383.73 306.44 384.13 289.25 384.41 L 258.00 384.94 L 257.90 378.22 Z M 11.08 381.42 C 11.13 380.25 11.36 380.01 11.68 380.81 C 11.97 381.53 11.94 382.40 11.60 382.73 C 11.27 383.06 11.04 382.47 11.08 381.42 Z M 253.67 380.33 C 253.30 379.97 253.03 378.73 253.06 377.58 C 253.12 375.67 253.20 375.69 254.08 377.90 C 255.06 380.34 254.86 381.53 253.67 380.33 Z M 11.16 374.00 C 11.16 372.62 11.38 372.06 11.66 372.75 C 11.94 373.44 11.94 374.56 11.66 375.25 C 11.38 375.94 11.16 375.38 11.16 374.00 Z M 132.34 371.74 C 132.50 369.03 133.39 368.21 134.41 369.85 C 134.70 370.32 134.32 371.55 133.56 372.59 C 132.27 374.35 132.19 374.29 132.34 371.74 Z M 253.00 369.94 C 253.00 369.36 253.45 369.16 254.00 369.50 C 254.55 369.84 255.00 370.32 255.00 370.56 C 255.00 370.80 254.55 371.00 254.00 371.00 C 253.45 371.00 253.00 370.52 253.00 369.94 Z M 253.08 363.42 C 253.13 362.25 253.36 362.01 253.68 362.81 C 253.97 363.53 253.94 364.40 253.60 364.73 C 253.27 365.06 253.04 364.47 253.08 363.42 Z M 374.80 360.57 C 374.18 355.42 374.59 353.00 376.11 353.00 C 377.12 353.00 377.10 358.00 376.08 362.50 C 375.45 365.25 375.35 365.10 374.80 360.57 Z M 253.64 358.50 C 252.65 355.93 252.88 353.00 254.07 353.00 C 254.70 353.00 254.86 353.86 254.46 355.13 C 254.01 356.56 254.15 357.03 254.89 356.57 C 256.20 355.76 256.32 356.95 255.12 358.83 C 254.45 359.90 254.15 359.83 253.64 358.50 Z M 375.73 351.40 C 375.33 350.99 375.00 349.98 375.00 349.13 C 375.00 348.01 375.30 347.90 376.11 348.71 C 376.72 349.32 377.05 350.34 376.84 350.98 C 376.63 351.61 376.13 351.80 375.73 351.40 Z M 253.00 348.00 C 253.00 347.45 253.68 347.00 254.50 347.00 C 255.32 347.00 256.00 347.45 256.00 348.00 C 256.00 348.55 255.32 349.00 254.50 349.00 C 253.68 349.00 253.00 348.55 253.00 348.00 Z M 131.00 346.00 C 131.00 345.45 131.45 345.00 132.00 345.00 C 132.55 345.00 133.00 345.45 133.00 346.00 C 133.00 346.55 132.55 347.00 132.00 347.00 C 131.45 347.00 131.00 346.55 131.00 346.00 Z M 374.91 342.00 C 374.73 335.36 374.69 335.93 375.60 333.59 C 376.07 332.37 375.97 331.90 375.31 332.31 C 374.64 332.72 374.32 330.84 374.39 326.97 C 374.45 323.69 374.84 321.00 375.25 321.00 C 376.23 321.00 376.21 320.77 376.52 333.50 C 376.67 339.55 376.40 345.18 375.92 346.00 C 375.35 346.99 375.01 345.64 374.91 342.00 Z M 253.16 339.00 C 253.16 337.62 253.38 337.06 253.66 337.75 C 253.94 338.44 253.94 339.56 253.66 340.25 C 253.38 340.94 253.16 340.38 253.16 339.00 Z M 131.00 327.50 C 131.00 326.68 131.18 326.00 131.39 326.00 C 131.61 326.00 132.05 326.68 132.36 327.50 C 132.68 328.32 132.50 329.00 131.97 329.00 C 131.44 329.00 131.00 328.32 131.00 327.50 Z M 10.50 322.00 C 10.84 321.45 11.32 321.00 11.56 321.00 C 11.80 321.00 12.00 321.45 12.00 322.00 C 12.00 322.55 11.52 323.00 10.94 323.00 C 10.36 323.00 10.16 322.55 10.50 322.00 Z M 131.50 319.00 C 131.16 318.45 131.36 318.00 131.94 318.00 C 132.52 318.00 133.00 318.45 133.00 319.00 C 133.00 319.55 132.80 320.00 132.56 320.00 C 132.32 320.00 131.84 319.55 131.50 319.00 Z M 375.03 317.00 C 375.03 316.18 375.47 314.82 376.00 314.00 C 376.86 312.67 376.97 312.67 376.97 314.00 C 376.97 314.82 376.53 316.18 376.00 317.00 C 375.14 318.33 375.03 318.33 375.03 317.00 Z M 252.00 311.06 C 252.00 310.54 252.45 309.84 253.00 309.50 C 253.55 309.16 254.00 309.58 254.00 310.44 C 254.00 311.30 253.55 312.00 253.00 312.00 C 252.45 312.00 252.00 311.58 252.00 311.06 Z M 375.02 306.69 C 375.01 303.74 375.39 302.12 376.00 302.50 C 377.27 303.29 377.27 308.03 376.00 310.00 C 375.30 311.08 375.03 310.16 375.02 306.69 Z M 10.02 308.31 C 10.02 307.86 10.47 306.82 11.00 306.00 C 11.84 304.71 11.97 304.73 11.98 306.19 C 11.99 307.12 11.55 308.16 11.00 308.50 C 10.45 308.84 10.01 308.75 10.02 308.31 Z M 253.50 305.00 C 253.12 303.82 253.04 302.62 253.32 302.35 C 253.59 302.07 254.12 302.82 254.50 304.00 C 254.88 305.18 254.96 306.38 254.68 306.65 C 254.41 306.93 253.88 306.18 253.50 305.00 Z M 376.08 299.42 C 376.13 298.25 376.36 298.01 376.68 298.81 C 376.97 299.53 376.94 300.40 376.60 300.73 C 376.27 301.06 376.04 300.47 376.08 299.42 Z M 130.50 299.00 C 130.16 298.45 130.36 298.00 130.94 298.00 C 131.52 298.00 132.00 298.45 132.00 299.00 C 132.00 299.55 131.80 300.00 131.56 300.00 C 131.32 300.00 130.84 299.55 130.50 299.00 Z M 374.23 294.81 C 374.85 292.96 377.00 292.65 377.00 294.42 C 377.00 295.29 376.29 296.00 375.42 296.00 C 374.55 296.00 374.01 295.47 374.23 294.81 Z M 252.08 293.42 C 252.13 292.25 252.36 292.01 252.68 292.81 C 252.97 293.53 252.94 294.40 252.60 294.73 C 252.27 295.06 252.04 294.47 252.08 293.42 Z M 131.00 290.94 C 131.00 290.36 131.45 290.16 132.00 290.50 C 132.55 290.84 133.00 291.32 133.00 291.56 C 133.00 291.80 132.55 292.00 132.00 292.00 C 131.45 292.00 131.00 291.52 131.00 290.94 Z M 374.60 289.41 C 373.77 287.24 373.85 286.79 374.91 287.45 C 375.42 287.76 376.06 287.45 376.34 286.76 C 376.61 286.07 376.88 286.49 376.92 287.69 C 377.02 290.39 375.43 291.57 374.60 289.41 Z M 253.00 287.00 C 253.00 286.45 253.48 286.00 254.06 286.00 C 254.64 286.00 254.84 286.45 254.50 287.00 C 254.16 287.55 253.68 288.00 253.44 288.00 C 253.20 288.00 253.00 287.55 253.00 287.00 Z M 10.00 285.56 C 10.00 284.70 10.45 284.00 11.00 284.00 C 11.55 284.00 12.00 284.42 12.00 284.94 C 12.00 285.46 11.55 286.16 11.00 286.50 C 10.45 286.84 10.00 286.42 10.00 285.56 Z M 375.08 284.42 C 375.13 283.25 375.36 283.01 375.68 283.81 C 375.97 284.53 375.94 285.40 375.60 285.73 C 375.27 286.06 375.04 285.47 375.08 284.42 Z M 252.58 282.13 C 252.15 281.44 252.07 280.60 252.40 280.27 C 253.29 279.37 254.27 280.69 253.79 282.14 C 253.45 283.15 253.21 283.15 252.58 282.13 Z M 374.64 281.31 C 373.39 280.05 374.02 273.23 375.50 272.00 C 376.45 271.21 377.00 271.15 377.00 271.82 C 377.00 272.40 376.65 273.10 376.22 273.36 C 375.79 273.63 375.34 275.34 375.21 277.17 C 375.05 279.66 375.24 280.12 375.98 279.00 C 376.83 277.70 376.97 277.73 376.98 279.19 C 377.00 281.07 375.63 282.30 374.64 281.31 Z M 252.02 275.25 C 252.01 274.01 252.45 273.00 253.00 273.00 C 254.25 273.00 254.25 274.06 253.00 276.00 C 252.22 277.21 252.03 277.07 252.02 275.25 Z M 376.08 268.42 C 376.13 267.25 376.36 267.01 376.68 267.81 C 376.97 268.53 376.94 269.40 376.60 269.73 C 376.27 270.06 376.04 269.47 376.08 268.42 Z M 26.00 266.00 C 26.00 265.45 26.93 265.00 28.06 265.00 C 29.19 265.00 29.84 265.45 29.50 266.00 C 29.16 266.55 28.23 267.00 27.44 267.00 C 26.65 267.00 26.00 266.55 26.00 266.00 Z M 54.00 264.94 C 54.00 264.36 54.45 264.16 55.00 264.50 C 55.55 264.84 56.00 265.32 56.00 265.56 C 56.00 265.80 55.55 266.00 55.00 266.00 C 54.45 266.00 54.00 265.52 54.00 264.94 Z M 374.00 265.00 C 374.00 264.45 374.45 264.00 375.00 264.00 C 375.55 264.00 376.00 264.45 376.00 265.00 C 376.00 265.55 375.55 266.00 375.00 266.00 C 374.45 266.00 374.00 265.55 374.00 265.00 Z M 17.49 263.99 C 17.16 263.45 17.47 262.94 18.19 262.87 C 18.91 262.80 17.93 262.46 16.00 262.12 C 12.72 261.54 12.52 261.28 12.84 258.14 C 13.06 255.90 12.81 255.00 12.09 255.45 C 11.45 255.84 11.00 255.32 11.00 254.17 C 11.00 253.09 11.79 251.91 12.75 251.54 C 14.33 250.92 14.35 250.74 12.91 249.68 C 10.51 247.89 10.09 245.70 11.79 243.75 C 13.16 242.17 13.15 242.00 11.65 242.00 C 10.74 242.00 10.00 241.32 10.00 240.50 C 10.00 239.68 10.68 239.00 11.50 239.00 C 12.32 239.00 13.00 238.55 13.00 238.00 C 13.00 237.45 12.21 236.99 11.25 236.97 C 9.58 236.94 9.58 236.89 11.25 235.92 C 13.31 234.72 13.48 232.75 11.75 229.96 C 10.82 228.46 10.79 227.75 11.65 227.22 C 12.28 226.82 12.82 223.92 12.86 220.75 C 12.91 216.34 12.58 215.00 11.46 215.00 C 10.66 215.00 10.00 214.55 10.00 214.00 C 10.00 213.45 10.68 213.00 11.50 213.00 C 12.43 213.00 13.00 212.06 13.00 210.50 C 13.00 209.03 12.43 208.00 11.61 208.00 C 10.84 208.00 9.95 207.31 9.62 206.46 C 9.22 205.40 9.56 205.01 10.73 205.21 C 12.13 205.45 12.44 204.60 12.54 200.25 C 12.63 196.49 12.29 195.00 11.33 195.00 C 10.60 195.00 10.00 194.55 10.00 194.00 C 10.00 193.45 10.45 193.00 11.00 193.00 C 11.55 193.00 11.96 191.99 11.92 190.75 C 11.88 189.51 11.62 189.06 11.34 189.75 C 10.40 192.08 8.87 191.02 9.18 188.25 C 9.36 186.74 10.01 185.60 10.64 185.71 C 11.27 185.83 12.03 185.01 12.32 183.89 C 12.70 182.42 12.46 181.99 11.46 182.38 C 10.69 182.67 9.82 182.52 9.53 182.04 C 9.23 181.56 9.55 180.94 10.24 180.66 C 11.24 180.26 11.24 180.14 10.25 180.08 C 9.56 180.04 9.00 179.27 9.00 178.38 C 9.00 177.04 9.27 176.98 10.52 178.02 C 12.93 180.02 13.40 178.40 11.08 176.08 C 8.54 173.54 8.49 173.01 10.75 172.97 C 12.42 172.94 12.42 172.89 10.75 171.92 C 8.31 170.50 8.57 169.01 11.25 168.97 C 13.48 168.94 13.48 168.92 11.50 167.35 C 10.11 166.26 9.88 165.63 10.75 165.30 C 11.44 165.04 11.99 163.63 11.97 162.17 C 11.94 159.61 11.88 159.58 10.47 161.44 C 9.03 163.34 9.00 163.33 9.00 161.19 C 9.00 159.91 9.62 159.00 10.50 159.00 C 11.32 159.00 12.00 158.55 12.00 158.00 C 12.00 157.45 11.55 157.00 11.00 157.00 C 10.45 157.00 10.00 156.32 10.00 155.50 C 10.00 154.68 10.68 154.00 11.50 154.00 C 13.49 154.00 13.49 149.13 11.50 148.36 C 10.67 148.05 10.00 147.38 10.00 146.89 C 10.00 146.40 10.68 146.00 11.50 146.00 C 12.32 146.00 13.00 145.23 13.00 144.30 C 13.00 142.98 12.73 142.87 11.80 143.80 C 11.14 144.46 10.24 145.00 9.80 145.00 C 8.29 145.00 9.00 143.48 11.13 142.15 C 12.86 141.07 13.42 141.06 14.06 142.09 C 14.69 143.12 15.17 143.10 16.50 142.00 C 17.90 140.83 18.29 140.84 19.06 142.06 C 19.56 142.85 19.98 143.07 19.98 142.55 C 19.99 141.95 20.34 141.95 20.93 142.55 C 21.48 143.11 21.98 167.77 22.16 202.21 L 22.46 260.92 L 20.28 262.95 C 19.02 264.13 17.85 264.57 17.49 263.99 Z M 31.07 262.68 C 29.49 258.53 29.69 249.33 31.38 248.69 C 32.14 248.39 50.47 248.04 72.13 247.90 L 111.50 247.65 L 111.80 253.76 C 112.16 261.35 111.35 261.93 100.40 261.88 C 70.30 261.73 37.87 262.40 37.39 263.18 C 37.06 263.71 36.27 263.64 35.49 262.99 C 34.49 262.16 33.92 262.33 33.15 263.69 C 32.24 265.32 32.04 265.22 31.07 262.68 Z M 225.50 264.00 C 225.16 263.45 225.33 263.00 225.88 263.00 C 226.43 263.00 227.16 263.45 227.50 264.00 C 227.84 264.55 227.67 265.00 227.12 265.00 C 226.57 265.00 225.84 264.55 225.50 264.00 Z M 244.44 263.91 C 244.13 263.41 245.03 263.00 246.44 263.00 C 249.51 263.00 249.75 263.57 247.00 264.29 C 245.90 264.58 244.75 264.40 244.44 263.91 Z M 117.82 263.14 C 119.13 262.30 119.47 222.64 118.69 159.18 C 118.55 146.90 118.67 136.70 118.97 136.52 C 119.28 136.33 120.64 136.80 122.01 137.55 C 124.47 138.91 124.47 138.93 122.25 138.96 C 120.89 138.99 120.00 139.62 120.00 140.56 C 120.00 141.42 120.42 141.86 120.94 141.54 C 121.46 141.22 123.71 141.25 125.95 141.61 C 129.12 142.11 129.79 142.55 128.97 143.54 C 128.21 144.45 128.22 145.02 129.00 145.50 C 129.79 145.99 129.78 146.56 128.95 147.55 C 127.32 149.53 128.71 156.76 130.83 157.33 C 132.32 157.72 132.32 157.78 130.75 157.88 C 129.79 157.95 128.94 158.68 128.88 159.50 C 128.41 165.11 128.63 167.00 129.75 167.00 C 130.44 167.00 131.00 167.50 131.00 168.11 C 131.00 168.72 130.43 168.99 129.73 168.73 C 128.10 168.10 128.31 199.71 129.95 201.35 C 131.47 202.87 131.24 204.00 129.39 204.00 C 128.24 204.00 128.00 204.50 128.54 205.75 C 129.36 207.65 129.24 219.40 128.37 222.30 C 128.08 223.29 128.30 224.65 128.86 225.33 C 129.43 226.01 129.52 227.16 129.07 227.89 C 128.62 228.61 128.62 230.83 129.07 232.82 C 129.59 235.10 129.50 236.90 128.82 237.72 C 128.01 238.69 128.26 239.00 129.88 239.00 C 131.04 239.00 132.00 239.45 132.00 240.00 C 132.00 240.55 131.30 241.00 130.45 241.00 C 129.15 241.00 128.96 242.33 129.27 249.39 C 129.67 258.79 128.78 261.00 124.58 261.00 C 123.10 261.00 122.13 261.40 122.43 261.89 C 122.73 262.37 121.97 263.04 120.74 263.37 C 117.58 264.22 116.27 264.11 117.82 263.14 Z M 252.81 263.32 C 253.53 263.03 254.40 263.06 254.73 263.40 C 255.06 263.73 254.47 263.96 253.42 263.92 C 252.25 263.87 252.01 263.64 252.81 263.32 Z M 275.44 262.53 C 273.81 261.30 273.76 261.06 275.13 261.03 C 276.02 261.01 277.32 261.68 278.00 262.50 C 279.60 264.42 277.97 264.44 275.44 262.53 Z M 296.51 262.98 C 296.86 262.42 297.56 262.23 298.07 262.54 C 299.46 263.40 299.20 264.00 297.44 264.00 C 296.58 264.00 296.16 263.54 296.51 262.98 Z M 9.08 261.42 C 9.13 260.25 9.36 260.01 9.68 260.81 C 9.97 261.53 9.94 262.40 9.60 262.73 C 9.27 263.06 9.04 262.47 9.08 261.42 Z M 214.81 262.32 C 215.53 262.03 216.40 262.06 216.73 262.40 C 217.06 262.73 216.47 262.96 215.42 262.92 C 214.25 262.87 214.01 262.64 214.81 262.32 Z M 336.40 261.83 C 336.11 261.37 339.13 261.00 343.11 261.00 C 347.08 261.00 350.12 261.21 349.87 261.47 C 348.99 262.34 336.91 262.67 336.40 261.83 Z M 358.00 262.00 C 356.71 261.16 356.73 261.03 358.19 261.02 C 359.12 261.01 360.16 261.45 360.50 262.00 C 361.28 263.27 359.96 263.27 358.00 262.00 Z M 293.81 261.32 C 294.53 261.03 295.40 261.06 295.73 261.40 C 296.06 261.73 295.47 261.96 294.42 261.92 C 293.25 261.87 293.01 261.64 293.81 261.32 Z M 317.81 261.32 C 318.53 261.03 319.40 261.06 319.73 261.40 C 320.06 261.73 319.47 261.96 318.42 261.92 C 317.25 261.87 317.01 261.64 317.81 261.32 Z M 364.75 261.34 C 365.44 261.06 366.56 261.06 367.25 261.34 C 367.94 261.62 367.38 261.84 366.00 261.84 C 364.62 261.84 364.06 261.62 364.75 261.34 Z M 131.02 259.52 C 130.23 258.57 130.16 258.00 130.82 258.00 C 132.03 258.00 133.44 259.90 132.74 260.59 C 132.49 260.84 131.72 260.36 131.02 259.52 Z M 134.46 237.96 C 134.42 219.95 134.12 214.69 133.09 214.06 C 132.19 213.50 132.13 213.12 132.90 212.87 C 134.14 212.45 134.64 146.83 133.43 143.68 C 132.92 142.36 133.40 141.98 135.64 141.88 C 141.20 141.66 198.84 140.88 223.47 140.69 L 248.45 140.50 L 248.61 158.50 C 248.69 168.40 248.93 194.80 249.12 217.17 C 249.32 239.55 249.18 258.15 248.81 258.53 C 248.43 258.90 223.69 259.38 193.82 259.59 C 163.94 259.80 138.38 260.22 137.00 260.51 L 134.50 261.05 L 134.46 237.96 Z M 257.40 258.84 C 256.60 257.55 256.25 239.85 255.78 178.00 L 255.50 140.50 L 261.09 140.20 L 266.68 139.91 L 267.34 167.70 C 267.70 182.99 268.00 202.51 268.00 211.07 C 268.00 228.50 269.12 234.11 273.93 240.75 C 280.81 250.25 292.08 254.92 310.09 255.73 C 333.63 256.80 348.74 250.83 356.65 237.33 C 360.09 231.47 360.20 228.94 359.28 176.66 L 358.50 131.82 L 361.67 130.49 C 368.05 127.83 370.26 119.55 366.10 113.92 C 364.08 111.19 363.97 109.57 363.34 73.71 C 362.68 36.39 362.68 36.35 364.86 33.40 C 369.49 27.14 367.04 18.93 359.70 16.14 C 356.47 14.91 355.67 14.97 351.80 16.78 C 347.81 18.65 344.81 18.83 310.50 19.35 C 279.06 19.83 273.21 19.69 271.56 18.46 C 270.49 17.65 267.66 17.00 265.26 17.00 C 261.83 17.00 260.38 17.56 258.45 19.65 C 257.10 21.10 256.00 22.71 256.00 23.23 C 256.00 23.74 255.44 23.98 254.76 23.75 C 253.98 23.49 253.64 21.90 253.84 19.42 C 254.23 14.76 255.37 13.23 257.30 14.83 C 258.06 15.47 258.93 15.73 259.24 15.43 C 259.55 15.12 277.95 14.67 300.15 14.42 C 322.34 14.17 346.64 13.86 354.15 13.73 L 367.80 13.50 L 368.40 17.89 C 368.73 20.30 369.00 23.79 369.00 25.64 C 369.00 27.51 369.51 29.00 370.15 29.00 C 370.90 29.00 370.77 29.63 369.81 30.75 C 368.63 32.11 368.35 34.92 368.52 43.50 C 368.92 64.43 369.14 85.50 368.95 86.50 C 368.85 87.05 368.85 87.93 368.95 88.45 C 369.05 88.97 369.13 95.38 369.13 102.70 C 369.13 110.01 369.53 116.00 370.02 116.00 C 370.90 116.00 370.42 127.97 369.41 131.25 C 369.00 132.57 367.78 133.00 364.43 133.00 C 361.28 133.00 360.00 133.41 360.00 134.42 C 360.00 135.20 360.56 136.10 361.25 136.42 C 362.25 136.88 362.25 137.12 361.25 137.58 C 358.75 138.75 360.02 140.15 362.98 139.50 C 364.62 139.15 366.83 139.13 367.89 139.47 C 369.69 140.04 369.84 141.20 369.97 155.79 C 370.10 170.71 370.62 201.71 371.38 239.78 C 371.57 249.28 371.39 257.26 370.97 257.52 C 370.56 257.77 357.29 258.22 341.49 258.51 C 325.69 258.79 312.37 259.27 311.89 259.57 C 311.41 259.86 310.25 259.68 309.31 259.15 C 308.27 258.57 306.68 258.55 305.22 259.11 C 303.91 259.61 302.37 259.73 301.81 259.38 C 300.57 258.62 262.36 258.75 259.91 259.53 C 258.95 259.83 257.82 259.52 257.40 258.84 Z M 374.07 256.25 C 374.13 253.81 374.24 253.73 375.00 255.50 C 376.17 258.23 376.17 259.00 375.00 259.00 C 374.45 259.00 374.03 257.76 374.07 256.25 Z M 9.54 251.07 C 9.23 250.56 9.42 249.86 9.98 249.51 C 10.54 249.16 11.00 249.58 11.00 250.44 C 11.00 252.20 10.40 252.46 9.54 251.07 Z M 296.00 246.12 C 285.63 242.77 280.49 238.81 277.63 231.96 C 276.04 228.15 275.28 207.43 274.85 156.00 L 274.63 129.50 L 312.82 129.24 L 351.00 128.98 L 351.02 132.74 C 351.03 134.81 351.32 157.43 351.66 183.02 C 352.23 225.12 352.14 229.84 350.64 232.73 C 347.45 238.89 340.73 243.66 331.12 246.58 C 324.24 248.67 303.04 248.39 296.00 246.12 Z M 252.08 245.42 C 252.13 244.25 252.36 244.01 252.68 244.81 C 252.97 245.53 252.94 246.40 252.60 246.73 C 252.27 247.06 252.04 246.47 252.08 245.42 Z M 30.00 231.12 C 30.00 226.17 30.34 221.92 30.75 221.68 C 31.16 221.44 49.27 221.07 71.00 220.87 L 110.50 220.50 L 110.79 229.63 C 111.06 238.43 110.99 238.78 108.79 239.29 C 107.53 239.58 89.29 239.89 68.25 239.97 L 30.00 240.12 L 30.00 231.12 Z M 375.08 234.42 C 375.13 233.25 375.36 233.01 375.68 233.81 C 375.97 234.53 375.94 235.40 375.60 235.73 C 375.27 236.06 375.04 235.47 375.08 234.42 Z M 252.00 233.00 C 252.00 231.90 252.41 231.00 252.91 231.00 C 253.40 231.00 253.58 231.90 253.29 233.00 C 253.00 234.10 252.59 235.00 252.38 235.00 C 252.17 235.00 252.00 234.10 252.00 233.00 Z M 252.00 227.56 C 252.00 226.70 252.45 226.00 253.00 226.00 C 253.55 226.00 254.00 226.42 254.00 226.94 C 254.00 227.46 253.55 228.16 253.00 228.50 C 252.45 228.84 252.00 228.42 252.00 227.56 Z M 131.16 225.00 C 131.16 223.62 131.38 223.06 131.66 223.75 C 131.94 224.44 131.94 225.56 131.66 226.25 C 131.38 226.94 131.16 226.38 131.16 225.00 Z M 252.00 214.23 C 252.00 208.12 252.34 202.90 252.77 202.64 C 253.65 202.10 253.48 223.85 252.59 224.74 C 252.27 225.07 252.00 220.33 252.00 214.23 Z M 374.08 221.42 C 374.13 220.25 374.36 220.01 374.68 220.81 C 374.97 221.53 374.94 222.40 374.60 222.73 C 374.27 223.06 374.04 222.47 374.08 221.42 Z M 30.00 202.63 L 30.00 192.27 L 40.25 191.76 C 45.89 191.48 64.11 191.17 80.75 191.07 L 111.00 190.90 L 111.00 201.30 L 111.00 211.71 L 103.35 212.35 C 99.14 212.71 80.92 213.00 62.85 213.00 L 30.00 213.00 L 30.00 202.63 Z M 373.00 206.62 C 373.00 206.41 373.68 205.68 374.50 205.00 C 375.73 203.98 376.00 204.05 376.00 205.38 C 376.00 206.27 375.32 207.00 374.50 207.00 C 373.68 207.00 373.00 206.83 373.00 206.62 Z M 252.16 199.00 C 252.16 197.62 252.38 197.06 252.66 197.75 C 252.94 198.44 252.94 199.56 252.66 200.25 C 252.38 200.94 252.16 200.38 252.16 199.00 Z M 9.00 198.00 C 9.00 197.45 9.48 197.00 10.06 197.00 C 10.64 197.00 10.84 197.45 10.50 198.00 C 10.16 198.55 9.68 199.00 9.44 199.00 C 9.20 199.00 9.00 198.55 9.00 198.00 Z M 251.62 191.25 C 252.56 187.32 253.00 187.19 253.00 190.83 C 253.00 192.57 252.54 194.00 251.98 194.00 C 251.38 194.00 251.23 192.88 251.62 191.25 Z M 373.23 188.81 C 373.45 188.16 374.16 187.45 374.81 187.23 C 375.54 186.99 375.77 187.44 375.39 188.42 C 374.70 190.23 372.63 190.61 373.23 188.81 Z M 29.81 172.99 C 29.64 166.84 29.86 161.58 30.31 161.31 C 30.75 161.03 49.09 160.56 71.06 160.25 L 111.00 159.69 L 111.00 170.79 C 111.00 176.89 110.66 182.08 110.25 182.31 C 109.84 182.55 91.64 183.07 69.81 183.46 L 30.13 184.17 L 29.81 172.99 Z M 251.08 176.42 C 251.13 175.25 251.36 175.01 251.68 175.81 C 251.97 176.53 251.94 177.40 251.60 177.73 C 251.27 178.06 251.04 177.47 251.08 176.42 Z M 252.08 161.42 C 252.13 160.25 252.36 160.01 252.68 160.81 C 252.97 161.53 252.94 162.40 252.60 162.73 C 252.27 163.06 252.04 162.47 252.08 161.42 Z M 372.00 161.00 C 372.00 160.45 372.48 160.00 373.06 160.00 C 373.64 160.00 373.84 160.45 373.50 161.00 C 373.16 161.55 372.68 162.00 372.44 162.00 C 372.20 162.00 372.00 161.55 372.00 161.00 Z M 251.00 154.94 C 251.00 154.36 251.45 154.16 252.00 154.50 C 252.55 154.84 253.00 155.32 253.00 155.56 C 253.00 155.80 252.55 156.00 252.00 156.00 C 251.45 156.00 251.00 155.52 251.00 154.94 Z M 29.74 152.29 C 29.50 151.86 29.38 147.49 29.48 142.59 C 29.63 134.78 29.89 133.59 31.57 132.98 C 32.63 132.60 50.23 132.04 70.68 131.73 C 99.72 131.30 108.23 131.45 109.58 132.43 C 112.65 134.68 109.51 135.17 90.00 135.50 C 79.61 135.67 70.61 136.12 70.01 136.49 C 69.41 136.87 68.28 136.64 67.50 136.00 C 66.72 135.36 65.71 135.06 65.26 135.34 C 64.80 135.62 57.17 135.96 48.30 136.10 L 32.17 136.34 L 31.67 138.92 C 31.40 140.34 31.25 141.57 31.34 141.65 C 31.43 141.74 33.98 142.11 37.00 142.48 C 41.74 143.06 42.81 142.86 44.70 141.08 L 46.90 139.02 L 48.37 141.12 C 49.18 142.27 50.33 142.92 50.92 142.55 C 52.60 141.51 52.20 140.40 49.75 139.29 C 47.93 138.47 48.58 138.30 53.19 138.36 C 58.88 138.43 58.89 138.44 56.33 140.11 C 54.00 141.64 53.94 141.85 55.63 142.38 C 58.42 143.27 69.06 141.28 70.37 139.63 C 70.99 138.85 72.62 137.90 74.00 137.54 L 76.50 136.87 L 74.01 138.87 C 72.65 139.97 71.84 141.17 72.22 141.55 C 73.15 142.48 81.80 141.13 82.54 139.94 C 82.86 139.42 83.82 139.00 84.68 139.00 C 85.99 139.00 86.03 139.26 84.95 140.56 C 83.80 141.94 84.00 142.04 86.58 141.37 C 88.18 140.95 90.17 140.66 91.00 140.72 C 105.50 141.70 108.00 141.65 108.00 140.36 C 108.00 139.56 106.87 138.97 105.25 138.93 C 102.81 138.87 102.73 138.76 104.50 138.00 C 109.69 135.77 110.48 136.52 110.79 144.02 C 111.01 149.08 110.73 151.14 109.79 151.45 C 107.27 152.26 30.17 153.08 29.74 152.29 Z M 250.76 150.54 C 250.44 148.83 250.72 148.00 251.63 148.00 C 252.42 148.00 252.86 148.83 252.69 149.97 C 252.22 153.06 251.30 153.33 250.76 150.54 Z M 372.00 152.00 C 372.00 151.45 372.45 151.00 373.00 151.00 C 373.55 151.00 374.00 151.45 374.00 152.00 C 374.00 152.55 373.55 153.00 373.00 153.00 C 372.45 153.00 372.00 152.55 372.00 152.00 Z M 130.07 150.25 C 130.11 149.84 130.53 148.60 131.00 147.50 C 131.76 145.73 131.87 145.81 131.93 148.25 C 131.97 149.76 131.55 151.00 131.00 151.00 C 130.45 151.00 130.03 150.66 130.07 150.25 Z M 251.25 143.50 C 251.25 142.12 251.64 141.00 252.12 141.00 C 252.61 141.00 253.00 142.12 253.00 143.50 C 253.00 144.88 252.61 146.00 252.12 146.00 C 251.64 146.00 251.25 144.88 251.25 143.50 Z M 372.00 143.44 C 372.00 142.58 372.45 142.16 373.00 142.50 C 373.55 142.84 374.00 143.54 374.00 144.06 C 374.00 144.58 373.55 145.00 373.00 145.00 C 372.45 145.00 372.00 144.30 372.00 143.44 Z M 99.65 139.53 C 99.34 138.72 99.52 137.80 100.04 137.47 C 100.57 137.15 101.00 137.10 101.00 137.36 C 101.00 137.62 101.27 138.55 101.61 139.42 C 101.94 140.29 101.76 141.00 101.21 141.00 C 100.66 141.00 99.96 140.34 99.65 139.53 Z M 125.51 139.17 C 124.73 137.12 124.83 137.00 127.42 137.00 C 128.75 137.00 129.99 137.48 130.19 138.06 C 130.42 138.77 131.37 138.81 133.02 138.20 C 134.38 137.69 136.39 137.59 137.48 137.98 C 139.07 138.55 138.68 138.85 135.48 139.48 C 129.23 140.71 126.06 140.61 125.51 139.17 Z M 35.81 139.32 C 36.53 139.03 37.40 139.06 37.73 139.40 C 38.06 139.73 37.47 139.96 36.42 139.92 C 35.25 139.87 35.01 139.64 35.81 139.32 Z M 39.00 139.00 C 39.00 137.73 42.03 137.73 44.00 139.00 C 45.14 139.74 44.72 139.97 42.25 139.98 C 40.46 139.99 39.00 139.55 39.00 139.00 Z M 61.20 139.47 C 62.24 138.43 68.00 137.15 68.00 137.96 C 68.00 138.42 67.29 139.06 66.42 139.39 C 64.47 140.14 60.47 140.20 61.20 139.47 Z M 78.00 139.00 C 78.00 138.45 78.70 138.00 79.56 138.00 C 80.42 138.00 80.84 138.45 80.50 139.00 C 80.16 139.55 79.46 140.00 78.94 140.00 C 78.42 140.00 78.00 139.55 78.00 139.00 Z M 142.50 139.00 C 142.84 138.45 143.79 138.00 144.62 138.00 C 145.44 138.00 145.84 138.45 145.50 139.00 C 145.16 139.55 144.21 140.00 143.38 140.00 C 142.56 140.00 142.16 139.55 142.50 139.00 Z M 151.00 138.79 C 151.00 138.36 153.32 138.00 156.17 138.00 C 159.01 138.00 161.06 138.27 160.72 138.61 C 159.80 139.53 151.00 139.70 151.00 138.79 Z M 90.50 138.00 C 88.59 137.18 88.60 137.14 90.75 137.07 C 91.99 137.03 93.00 137.45 93.00 138.00 C 93.00 138.55 92.89 138.97 92.75 138.93 C 92.61 138.89 91.60 138.47 90.50 138.00 Z M 186.81 138.32 C 187.53 138.03 188.40 138.06 188.73 138.40 C 189.06 138.73 188.47 138.96 187.42 138.92 C 186.25 138.87 186.01 138.64 186.81 138.32 Z M 193.81 138.32 C 194.53 138.03 195.40 138.06 195.73 138.40 C 196.06 138.73 195.47 138.96 194.42 138.92 C 193.25 138.87 193.01 138.64 193.81 138.32 Z M 249.14 138.11 C 248.29 137.57 248.17 137.02 248.80 136.62 C 250.06 135.85 253.00 136.89 253.00 138.11 C 253.00 139.23 250.92 139.24 249.14 138.11 Z M 255.00 137.56 C 255.00 136.79 254.44 135.97 253.75 135.73 C 252.82 135.40 252.92 134.81 254.14 133.40 C 256.25 130.96 254.94 127.00 252.03 127.00 C 250.38 127.00 250.00 127.65 250.00 130.50 C 250.00 132.58 249.49 134.04 248.75 134.10 C 248.06 134.15 236.47 134.30 223.00 134.44 C 209.53 134.58 198.05 134.81 197.50 134.96 C 196.95 135.11 196.28 135.15 196.00 135.05 C 195.05 134.69 184.44 134.74 157.00 135.24 C 141.88 135.51 130.32 135.53 131.32 135.28 C 132.45 135.00 132.93 134.26 132.57 133.33 C 132.26 132.51 132.00 131.42 132.00 130.92 C 132.00 130.41 131.10 130.00 130.00 130.00 C 128.70 130.00 128.00 130.67 128.00 131.89 C 128.00 132.93 127.29 134.06 126.42 134.39 C 124.66 135.07 119.00 135.23 119.00 134.60 C 119.00 134.38 120.59 132.61 122.54 130.66 L 126.07 127.13 L 138.79 126.58 C 145.78 126.27 175.01 125.76 203.75 125.44 L 256.01 124.86 L 258.48 127.80 C 259.85 129.42 262.29 131.01 263.91 131.33 C 266.40 131.83 266.86 132.38 266.79 134.84 C 266.72 137.20 266.26 137.75 264.35 137.75 C 263.06 137.75 262.00 137.36 262.00 136.88 C 262.00 136.39 262.68 136.00 263.50 136.00 C 264.32 136.00 265.00 135.61 265.00 135.13 C 265.00 133.78 256.84 132.76 255.64 133.96 C 254.92 134.68 255.26 135.00 256.74 135.00 C 259.90 135.00 260.30 136.54 257.47 137.83 C 255.49 138.74 255.00 138.68 255.00 137.56 Z M 241.00 137.03 C 241.00 136.50 241.68 136.32 242.50 136.64 C 243.32 136.95 244.00 137.39 244.00 137.61 C 244.00 137.82 243.32 138.00 242.50 138.00 C 241.68 138.00 241.00 137.56 241.00 137.03 Z M 371.67 137.33 C 370.52 136.18 370.94 135.00 372.50 135.00 C 373.32 135.00 374.00 135.68 374.00 136.50 C 374.00 138.06 372.82 138.48 371.67 137.33 Z M 11.12 136.05 C 8.96 135.52 8.89 135.34 10.37 134.11 C 12.08 132.69 12.67 130.47 11.07 131.46 C 9.41 132.48 8.94 130.21 10.49 128.65 C 11.32 127.82 11.94 125.65 11.86 123.82 C 11.77 121.47 11.60 121.16 11.29 122.75 C 10.42 127.31 9.43 124.80 9.33 117.75 C 9.27 113.76 9.06 109.88 8.86 109.12 C 8.66 108.37 9.06 107.54 9.75 107.29 C 10.60 106.98 11.00 107.96 11.00 110.36 C 11.00 112.30 11.37 114.11 11.82 114.39 C 12.26 114.66 12.62 109.06 12.60 101.94 C 12.58 94.83 12.22 89.00 11.79 89.00 C 11.35 89.00 11.00 90.83 11.00 93.06 C 11.00 95.62 10.61 96.88 9.96 96.47 C 9.39 96.12 9.18 95.01 9.50 94.00 C 9.82 92.99 9.59 91.87 8.99 91.49 C 8.28 91.06 8.58 90.23 9.86 89.12 C 12.28 87.03 13.23 78.96 11.15 78.23 C 10.15 77.89 9.98 78.35 10.50 80.00 C 11.02 81.64 10.85 82.12 9.85 81.79 C 9.11 81.54 8.45 80.13 8.40 78.67 C 8.32 76.70 8.79 76.00 10.15 76.00 C 11.17 76.00 12.00 75.34 12.00 74.53 C 12.00 73.64 11.41 73.29 10.50 73.64 C 8.79 74.29 8.58 73.20 10.00 71.00 C 10.70 69.91 10.97 69.86 10.98 70.81 C 10.99 71.53 11.46 71.84 12.02 71.49 C 13.56 70.54 12.16 69.00 9.75 69.00 C 7.66 69.00 7.65 68.97 9.56 67.44 C 10.94 66.33 11.14 65.72 10.25 65.35 C 8.38 64.58 8.61 57.00 10.50 57.00 C 11.50 57.00 12.00 56.00 12.00 54.00 C 12.00 52.00 11.50 51.00 10.50 51.00 C 9.68 51.00 9.00 50.34 9.00 49.53 C 9.00 48.64 9.59 48.29 10.50 48.64 C 11.66 49.08 12.00 48.40 12.00 45.61 C 12.00 43.22 11.54 42.00 10.63 42.00 C 8.94 42.00 7.37 33.71 8.95 33.18 C 10.30 32.73 10.32 27.32 8.98 26.49 C 8.42 26.14 8.24 25.42 8.57 24.88 C 8.95 24.27 9.70 24.34 10.59 25.07 C 11.76 26.05 11.99 25.59 11.96 22.37 C 11.93 18.62 11.89 18.57 10.61 20.89 C 9.88 22.20 9.04 22.87 8.73 22.37 C 8.43 21.88 8.76 20.68 9.47 19.71 C 10.66 18.08 13.84 17.89 47.63 17.45 C 128.77 16.38 126.49 16.37 126.60 18.00 C 126.92 22.81 127.04 23.00 129.89 23.00 C 132.54 23.00 132.82 22.66 133.17 19.01 C 133.38 16.81 133.09 14.82 132.53 14.59 C 131.96 14.35 132.46 14.12 133.64 14.08 C 134.82 14.04 136.00 14.56 136.26 15.25 C 136.60 16.13 138.83 16.40 143.88 16.17 C 148.70 15.94 150.80 15.48 150.34 14.75 C 149.89 14.02 150.30 13.92 151.59 14.46 C 155.43 16.06 158.05 16.21 159.61 14.91 C 160.97 13.78 161.41 13.84 162.46 15.27 C 163.14 16.21 163.93 16.73 164.22 16.45 C 164.51 16.16 173.46 15.75 184.12 15.55 C 194.78 15.34 204.36 14.83 205.41 14.41 C 206.85 13.85 207.13 13.99 206.52 14.97 C 205.88 16.00 206.52 16.12 209.61 15.55 C 211.75 15.15 214.10 14.33 214.83 13.72 C 215.79 12.93 216.34 12.94 216.86 13.77 C 217.34 14.55 222.28 14.91 232.26 14.88 C 240.34 14.86 247.44 15.15 248.04 15.53 C 248.64 15.90 248.89 16.83 248.60 17.60 C 247.81 19.66 248.98 22.00 250.81 22.00 C 251.80 22.00 252.04 22.35 251.45 22.92 C 250.90 23.45 223.88 24.10 187.80 24.45 C 125.62 25.05 125.09 25.04 124.02 23.04 C 122.80 20.76 118.02 18.00 115.28 18.00 C 114.29 18.00 111.88 18.85 109.94 19.89 C 106.68 21.64 103.55 21.81 69.45 22.01 C 37.19 22.21 31.95 22.03 28.14 20.59 C 24.05 19.04 23.57 19.04 20.15 20.72 C 18.15 21.70 15.96 23.62 15.27 25.00 C 13.39 28.78 13.72 34.38 16.00 37.27 C 17.92 39.71 18.00 41.33 18.00 77.71 C 18.00 103.49 17.66 115.94 16.92 116.68 C 16.33 117.27 15.42 119.63 14.91 121.91 C 13.82 126.77 15.48 130.96 19.58 133.64 C 21.48 134.89 21.79 135.51 20.81 136.11 C 19.38 137.00 14.83 136.97 11.12 136.05 Z M 251.54 130.07 C 251.23 129.56 251.42 128.86 251.98 128.51 C 252.54 128.16 253.00 128.58 253.00 129.44 C 253.00 131.20 252.40 131.46 251.54 130.07 Z M 128.50 129.00 C 128.84 128.45 128.64 128.00 128.06 128.00 C 127.48 128.00 127.00 128.45 127.00 129.00 C 127.00 129.55 127.20 130.00 127.44 130.00 C 127.68 130.00 128.16 129.55 128.50 129.00 Z M 35.72 122.31 C 35.18 119.50 34.48 120.43 49.00 104.93 C 55.88 97.60 63.33 89.61 65.57 87.17 L 69.65 82.73 L 73.43 86.62 C 94.48 108.18 104.50 119.37 104.50 121.31 L 104.50 123.50 L 70.32 124.00 L 36.14 124.50 L 35.72 122.31 Z M 277.49 118.96 C 276.98 117.35 278.14 115.53 282.77 110.70 C 286.04 107.29 293.83 98.92 300.09 92.10 L 311.47 79.71 L 329.27 98.10 C 341.98 111.25 346.99 117.07 346.78 118.50 C 346.51 120.45 345.64 120.51 312.32 120.76 C 278.55 121.02 278.14 121.00 277.49 118.96 Z M 13.00 116.94 C 13.00 116.42 12.55 116.00 12.00 116.00 C 11.45 116.00 11.00 116.70 11.00 117.56 C 11.00 118.42 11.45 118.84 12.00 118.50 C 12.55 118.16 13.00 117.46 13.00 116.94 Z M 129.33 118.24 C 121.99 117.63 122.08 118.10 121.35 76.12 L 120.70 39.18 L 123.10 36.14 C 125.39 33.25 125.84 33.11 133.24 33.06 L 140.99 33.00 L 140.74 75.62 L 140.50 118.23 L 137.00 118.41 C 135.07 118.50 131.62 118.42 129.33 118.24 Z M 148.89 97.78 C 148.83 86.63 148.72 67.49 148.64 55.25 L 148.50 33.00 L 157.17 33.00 C 161.94 33.00 166.44 32.78 167.17 32.51 C 170.81 31.17 170.95 32.61 171.23 75.54 L 171.50 117.50 L 160.25 117.78 L 149.00 118.07 L 148.89 97.78 Z M 178.77 75.75 C 178.62 52.51 178.65 33.27 178.83 33.00 C 179.01 32.73 184.19 32.50 190.33 32.50 L 201.50 32.50 L 201.76 75.25 L 202.02 118.00 L 190.53 118.00 L 179.04 118.00 L 178.77 75.75 Z M 209.97 114.39 C 209.96 112.25 209.68 92.84 209.35 71.25 L 208.75 32.00 L 221.37 32.00 L 234.00 32.00 L 234.00 74.50 L 234.00 117.00 L 228.75 117.01 C 225.86 117.01 220.46 117.30 216.75 117.65 L 210.00 118.29 L 209.97 114.39 Z M 242.51 117.01 C 242.33 116.73 241.93 97.49 241.60 74.25 L 241.01 32.00 L 248.39 32.00 C 255.02 32.00 255.93 32.24 257.30 34.33 C 258.56 36.26 258.94 42.99 259.50 73.78 C 260.13 108.45 260.06 111.10 258.37 113.95 C 257.36 115.65 255.73 117.00 254.66 117.00 C 253.25 117.00 253.02 116.67 253.79 115.75 C 254.48 114.92 254.67 102.03 254.36 77.00 C 253.77 30.39 254.02 33.78 251.25 33.36 C 249.66 33.11 248.99 33.52 248.95 34.76 C 248.92 35.72 248.73 38.41 248.53 40.75 C 248.22 44.40 248.43 45.00 250.08 45.00 C 251.27 45.00 251.97 45.66 251.92 46.75 C 251.87 47.80 251.64 48.00 251.34 47.25 C 250.45 45.06 249.00 45.91 249.00 48.61 C 249.00 50.51 249.40 51.06 250.50 50.64 C 252.68 49.80 252.34 50.89 249.75 53.07 L 247.50 54.97 L 249.69 55.58 C 251.86 56.20 251.86 56.23 249.98 58.25 C 248.93 59.38 248.31 60.69 248.60 61.16 C 248.89 61.64 249.18 66.48 249.24 71.92 C 249.32 79.70 249.63 81.70 250.67 81.30 C 251.43 81.00 252.00 81.46 252.00 82.36 C 252.00 83.33 251.44 83.72 250.55 83.38 C 249.36 82.92 249.10 84.11 249.12 89.85 C 249.14 96.01 249.35 96.81 250.82 96.27 C 252.35 95.72 252.34 95.84 250.75 97.66 C 248.77 99.92 248.47 103.07 250.09 104.69 C 250.87 105.47 250.87 105.96 250.09 106.45 C 248.35 107.52 248.71 115.00 250.50 115.00 C 251.32 115.00 252.00 115.40 252.00 115.90 C 252.00 116.85 243.05 117.90 242.51 117.01 Z M 131.50 115.36 C 133.12 113.74 132.85 109.19 131.07 108.01 C 130.65 107.73 130.07 106.27 129.79 104.77 C 129.35 102.37 129.55 102.10 131.42 102.57 C 133.47 103.08 133.55 102.81 133.35 95.80 C 133.23 91.79 133.10 86.62 133.07 84.32 C 133.01 80.81 132.64 80.07 130.75 79.70 L 128.50 79.25 L 130.75 78.51 C 131.99 78.10 133.00 77.32 133.00 76.78 C 133.00 76.23 132.37 76.03 131.59 76.33 C 129.45 77.15 128.42 71.90 130.43 70.43 C 132.36 69.01 132.51 66.87 130.62 67.59 C 129.68 67.95 129.25 67.32 129.25 65.53 C 129.25 63.46 129.62 63.06 131.12 63.54 C 132.16 63.87 133.00 63.66 133.00 63.07 C 133.00 62.48 132.32 62.00 131.50 62.00 C 130.68 62.00 130.00 61.54 130.00 60.97 C 130.00 60.40 130.68 59.68 131.50 59.36 C 133.75 58.50 133.31 56.69 131.00 57.29 C 129.33 57.73 129.00 57.32 129.00 54.81 C 129.00 52.65 129.56 51.67 131.00 51.29 C 132.10 51.00 133.00 50.19 133.00 49.48 C 133.00 48.65 132.23 48.39 130.84 48.75 C 129.37 49.14 128.91 48.95 129.40 48.16 C 129.80 47.52 130.77 47.00 131.56 47.00 C 132.35 47.00 133.00 46.37 133.00 45.59 C 133.00 44.68 132.30 44.37 131.00 44.71 C 128.64 45.33 128.38 43.76 130.50 41.64 C 132.37 39.77 132.43 38.90 130.63 39.59 C 129.88 39.88 128.97 39.37 128.62 38.46 C 128.19 37.34 128.63 36.65 130.00 36.29 C 131.10 36.00 132.00 35.37 132.00 34.88 C 132.00 33.63 130.67 33.79 128.60 35.31 C 126.71 36.69 126.76 34.20 127.17 105.00 C 127.24 117.84 127.77 119.09 131.50 115.36 Z M 25.99 112.75 C 25.99 112.61 25.88 96.53 25.74 77.00 C 25.50 41.51 25.50 41.50 27.62 41.20 C 29.23 40.97 33.75 45.08 46.62 58.51 C 55.90 68.19 63.62 76.44 63.76 76.83 C 63.90 77.22 59.98 81.81 55.04 87.02 C 50.11 92.23 42.79 100.18 38.79 104.68 C 33.11 111.05 30.89 112.87 28.75 112.93 C 27.24 112.97 26.00 112.89 25.99 112.75 Z M 101.24 104.25 C 96.78 99.44 89.05 91.45 84.08 86.50 C 79.10 81.55 75.14 77.18 75.26 76.80 C 75.39 76.41 78.89 72.58 83.03 68.30 C 87.17 64.01 94.79 55.87 99.96 50.20 C 114.27 34.53 113.44 33.03 113.76 75.38 C 114.03 110.38 113.80 113.00 110.55 113.00 C 109.89 113.00 105.70 109.06 101.24 104.25 Z M 269.78 110.29 C 267.17 109.64 266.95 106.24 267.24 71.01 C 267.55 32.80 267.23 33.64 277.23 44.16 C 280.54 47.65 288.44 55.78 294.77 62.23 L 306.28 73.96 L 295.39 85.67 C 275.99 106.54 271.61 110.75 269.78 110.29 Z M 334.13 92.05 L 316.84 74.02 L 326.17 63.83 C 331.30 58.23 338.63 50.24 342.46 46.07 C 349.28 38.64 353.20 35.87 354.73 37.40 C 355.15 37.82 355.50 54.22 355.50 73.83 C 355.50 108.98 355.47 109.50 353.46 109.79 C 351.94 110.01 346.97 105.45 334.13 92.05 Z M 9.14 104.09 C 8.14 103.47 8.09 103.06 8.96 102.52 C 10.33 101.68 11.36 102.43 10.85 103.91 C 10.65 104.51 9.94 104.59 9.14 104.09 Z M 251.00 100.44 C 251.00 99.58 251.46 99.16 252.02 99.51 C 252.58 99.86 252.77 100.56 252.46 101.07 C 251.60 102.46 251.00 102.20 251.00 100.44 Z M 372.16 100.00 C 372.16 98.62 372.38 98.06 372.66 98.75 C 372.94 99.44 372.94 100.56 372.66 101.25 C 372.38 101.94 372.16 101.38 372.16 100.00 Z M 129.00 99.12 C 129.00 98.57 129.45 97.84 130.00 97.50 C 130.55 97.16 131.00 97.33 131.00 97.88 C 131.00 98.43 130.55 99.16 130.00 99.50 C 129.45 99.84 129.00 99.67 129.00 99.12 Z M 372.08 93.42 C 372.13 92.25 372.36 92.01 372.68 92.81 C 372.97 93.53 372.94 94.40 372.60 94.73 C 372.27 95.06 372.04 94.47 372.08 93.42 Z M 128.50 92.00 C 128.16 91.45 128.36 91.00 128.94 91.00 C 129.52 91.00 130.00 91.45 130.00 92.00 C 130.00 92.55 129.80 93.00 129.56 93.00 C 129.32 93.00 128.84 92.55 128.50 92.00 Z M 251.00 90.94 C 251.00 90.36 251.45 90.16 252.00 90.50 C 252.55 90.84 253.00 91.32 253.00 91.56 C 253.00 91.80 252.55 92.00 252.00 92.00 C 251.45 92.00 251.00 91.52 251.00 90.94 Z M 9.00 86.06 C 9.00 85.54 9.45 84.84 10.00 84.50 C 10.55 84.16 11.00 84.58 11.00 85.44 C 11.00 86.30 10.55 87.00 10.00 87.00 C 9.45 87.00 9.00 86.58 9.00 86.06 Z M 130.00 85.00 C 130.00 84.45 130.48 84.00 131.06 84.00 C 131.64 84.00 131.84 84.45 131.50 85.00 C 131.16 85.55 130.68 86.00 130.44 86.00 C 130.20 86.00 130.00 85.55 130.00 85.00 Z M 129.00 82.00 C 129.00 81.45 129.48 81.00 130.06 81.00 C 130.64 81.00 130.84 81.45 130.50 82.00 C 130.16 82.55 129.68 83.00 129.44 83.00 C 129.20 83.00 129.00 82.55 129.00 82.00 Z M 371.58 78.13 C 371.15 77.44 371.07 76.60 371.40 76.27 C 372.29 75.37 373.27 76.69 372.79 78.14 C 372.45 79.15 372.21 79.15 371.58 78.13 Z M 133.00 74.06 C 133.00 73.54 132.55 72.84 132.00 72.50 C 131.45 72.16 131.00 72.58 131.00 73.44 C 131.00 74.30 131.45 75.00 132.00 75.00 C 132.55 75.00 133.00 74.58 133.00 74.06 Z M 250.00 73.06 C 250.00 72.54 250.45 71.84 251.00 71.50 C 251.55 71.16 252.00 71.58 252.00 72.44 C 252.00 73.30 251.55 74.00 251.00 74.00 C 250.45 74.00 250.00 73.58 250.00 73.06 Z M 52.50 53.41 C 39.89 40.25 35.42 34.94 35.19 32.84 L 34.87 30.00 L 64.19 29.78 C 80.31 29.67 95.97 29.55 98.99 29.53 C 103.49 29.51 104.54 29.82 104.82 31.29 C 105.15 33.03 97.69 41.63 77.50 62.76 L 69.50 71.14 L 52.50 53.41 Z M 251.64 67.50 C 251.95 66.67 252.39 66.00 252.61 66.00 C 252.82 66.00 253.00 66.67 253.00 67.50 C 253.00 68.33 252.56 69.00 252.03 69.00 C 251.50 69.00 251.32 68.33 251.64 67.50 Z M 293.65 50.07 C 279.50 35.78 275.92 31.62 276.17 29.80 C 276.57 27.01 273.78 27.21 314.00 27.02 C 345.19 26.88 345.50 26.90 345.82 28.96 C 346.12 30.88 336.99 41.41 316.03 63.27 L 311.46 68.05 L 293.65 50.07 Z M 372.00 59.94 C 372.00 59.36 372.45 59.16 373.00 59.50 C 373.55 59.84 374.00 60.32 374.00 60.56 C 374.00 60.80 373.55 61.00 373.00 61.00 C 372.45 61.00 372.00 60.52 372.00 59.94 Z M 9.00 54.00 C 9.00 53.45 9.45 53.00 10.00 53.00 C 10.55 53.00 11.00 53.45 11.00 54.00 C 11.00 54.55 10.55 55.00 10.00 55.00 C 9.45 55.00 9.00 54.55 9.00 54.00 Z M 133.00 54.00 C 133.00 53.45 132.58 53.00 132.06 53.00 C 131.54 53.00 130.84 53.45 130.50 54.00 C 130.16 54.55 130.58 55.00 131.44 55.00 C 132.30 55.00 133.00 54.55 133.00 54.00 Z M 8.47 45.95 C 7.52 44.41 8.82 43.42 10.10 44.70 C 10.82 45.42 10.84 45.98 10.16 46.40 C 9.60 46.75 8.84 46.55 8.47 45.95 Z M 250.64 41.50 C 250.32 40.67 250.50 40.00 251.03 40.00 C 251.56 40.00 252.00 40.67 252.00 41.50 C 252.00 42.33 251.82 43.00 251.61 43.00 C 251.39 43.00 250.95 42.33 250.64 41.50 Z M 12.00 34.80 C 12.00 33.18 11.70 32.90 10.89 33.71 C 10.28 34.32 10.08 35.31 10.45 35.91 C 11.48 37.59 12.00 37.21 12.00 34.80 Z M 371.00 31.94 C 371.00 31.36 371.45 31.16 372.00 31.50 C 372.55 31.84 373.00 32.32 373.00 32.56 C 373.00 32.80 372.55 33.00 372.00 33.00 C 371.45 33.00 371.00 32.52 371.00 31.94 Z M 371.16 26.00 C 371.16 24.62 371.38 24.06 371.66 24.75 C 371.94 25.44 371.94 26.56 371.66 27.25 C 371.38 27.94 371.16 27.38 371.16 26.00 Z M 128.51 19.98 C 128.86 19.42 129.56 19.23 130.07 19.54 C 131.46 20.40 131.20 21.00 129.44 21.00 C 128.58 21.00 128.16 20.54 128.51 19.98 Z M 370.58 18.13 C 370.15 17.44 370.07 16.60 370.40 16.27 C 371.29 15.37 372.27 16.69 371.79 18.14 C 371.45 19.15 371.21 19.15 370.58 18.13 Z M 8.58 15.13 C 8.15 14.44 8.07 13.60 8.40 13.27 C 9.29 12.37 10.27 13.69 9.79 15.14 C 9.45 16.15 9.21 16.15 8.58 15.13 Z M 67.81 15.32 C 68.53 15.03 69.40 15.06 69.73 15.40 C 70.06 15.73 69.47 15.96 68.42 15.92 C 67.25 15.87 67.01 15.64 67.81 15.32 Z M 127.64 14.49 C 127.28 13.57 127.67 12.68 128.56 12.34 C 130.71 11.51 131.05 12.21 129.54 14.28 C 128.39 15.85 128.16 15.87 127.64 14.49 Z M 250.00 15.00 C 250.00 14.45 250.48 14.00 251.06 14.00 C 251.64 14.00 251.84 14.45 251.50 15.00 C 251.16 15.55 250.68 16.00 250.44 16.00 C 250.20 16.00 250.00 15.55 250.00 15.00 Z M 119.46 13.55 C 117.60 12.14 117.67 12.06 120.83 12.03 C 122.97 12.01 124.02 12.43 123.77 13.19 C 123.15 15.04 121.60 15.16 119.46 13.55 Z M 370.72 13.67 C 369.61 10.84 369.79 9.39 371.09 10.69 C 371.70 11.30 372.02 12.62 371.81 13.64 C 371.45 15.43 371.42 15.43 370.72 13.67 Z M 33.25 13.31 C 34.21 13.06 35.79 13.06 36.75 13.31 C 37.71 13.56 36.92 13.77 35.00 13.77 C 33.08 13.77 32.29 13.56 33.25 13.31 Z M 41.81 13.32 C 42.53 13.03 43.40 13.06 43.73 13.40 C 44.06 13.73 43.47 13.96 42.42 13.92 C 41.25 13.87 41.01 13.64 41.81 13.32 Z M 68.50 13.00 C 68.16 12.45 68.33 12.00 68.88 12.00 C 69.43 12.00 70.16 12.45 70.50 13.00 C 70.84 13.55 70.67 14.00 70.12 14.00 C 69.57 14.00 68.84 13.55 68.50 13.00 Z M 95.50 13.00 C 93.73 12.24 93.81 12.13 96.25 12.07 C 97.76 12.03 99.00 12.45 99.00 13.00 C 99.00 14.17 98.23 14.17 95.50 13.00 Z M 100.00 13.00 C 100.00 12.45 100.70 12.00 101.56 12.00 C 102.42 12.00 102.84 12.45 102.50 13.00 C 102.16 13.55 101.46 14.00 100.94 14.00 C 100.42 14.00 100.00 13.55 100.00 13.00 Z M 139.00 13.00 C 139.00 12.45 139.90 12.00 141.00 12.00 C 142.10 12.00 143.00 12.45 143.00 13.00 C 143.00 13.55 142.10 14.00 141.00 14.00 C 139.90 14.00 139.00 13.55 139.00 13.00 Z M 155.00 13.00 C 155.00 12.45 155.45 12.00 156.00 12.00 C 156.55 12.00 157.00 12.45 157.00 13.00 C 157.00 13.55 156.55 14.00 156.00 14.00 C 155.45 14.00 155.00 13.55 155.00 13.00 Z M 173.44 12.42 C 171.66 10.97 171.66 10.89 173.33 11.42 C 174.34 11.74 176.36 12.01 177.83 12.02 C 179.92 12.03 180.17 12.24 179.00 13.00 C 176.89 14.36 175.67 14.24 173.44 12.42 Z M 198.46 12.93 C 197.29 11.04 199.00 10.57 200.74 12.31 C 202.30 13.87 202.30 14.00 200.77 14.00 C 199.86 14.00 198.82 13.52 198.46 12.93 Z M 209.50 13.00 C 209.16 12.45 209.61 12.00 210.50 12.00 C 211.39 12.00 211.84 12.45 211.50 13.00 C 211.16 13.55 210.71 14.00 210.50 14.00 C 210.29 14.00 209.84 13.55 209.50 13.00 Z M 224.00 13.00 C 224.00 12.45 224.93 12.00 226.06 12.00 C 227.19 12.00 227.84 12.45 227.50 13.00 C 227.16 13.55 226.23 14.00 225.44 14.00 C 224.65 14.00 224.00 13.55 224.00 13.00 Z M 167.75 12.34 C 168.44 12.06 169.56 12.06 170.25 12.34 C 170.94 12.62 170.38 12.84 169.00 12.84 C 167.62 12.84 167.06 12.62 167.75 12.34 Z M 193.81 12.32 C 194.53 12.03 195.40 12.06 195.73 12.40 C 196.06 12.73 195.47 12.96 194.42 12.92 C 193.25 12.87 193.01 12.64 193.81 12.32 Z M 202.00 12.00 C 202.00 11.45 202.68 11.00 203.50 11.00 C 204.32 11.00 205.00 11.45 205.00 12.00 C 205.00 12.55 204.32 13.00 203.50 13.00 C 202.68 13.00 202.00 12.55 202.00 12.00 Z M 218.81 12.32 C 219.53 12.03 220.40 12.06 220.73 12.40 C 221.06 12.73 220.47 12.96 219.42 12.92 C 218.25 12.87 218.01 12.64 218.81 12.32 Z M 256.54 12.07 C 256.23 11.56 256.42 10.86 256.98 10.51 C 257.54 10.16 258.00 10.58 258.00 11.44 C 258.00 13.20 257.40 13.46 256.54 12.07 Z M 274.50 12.00 C 274.16 11.45 274.33 11.00 274.88 11.00 C 275.43 11.00 276.16 11.45 276.50 12.00 C 276.84 12.55 276.67 13.00 276.12 13.00 C 275.57 13.00 274.84 12.55 274.50 12.00 Z M 285.50 11.92 C 288.20 10.87 292.20 10.84 293.83 11.87 C 294.63 12.38 292.87 12.71 289.33 12.71 C 285.48 12.71 284.18 12.44 285.50 11.92 Z M 246.81 11.32 C 247.53 11.03 248.40 11.06 248.73 11.40 C 249.06 11.73 248.47 11.96 247.42 11.92 C 246.25 11.87 246.01 11.64 246.81 11.32 Z M 264.00 11.00 C 264.00 10.45 264.70 10.00 265.56 10.00 C 266.42 10.00 266.84 10.45 266.50 11.00 C 266.16 11.55 265.46 12.00 264.94 12.00 C 264.42 12.00 264.00 11.55 264.00 11.00 Z M 270.00 11.00 C 270.00 10.45 270.48 10.00 271.06 10.00 C 271.64 10.00 271.84 10.45 271.50 11.00 C 271.16 11.55 270.68 12.00 270.44 12.00 C 270.20 12.00 270.00 11.55 270.00 11.00 Z M 282.00 11.00 C 283.96 9.73 285.28 9.73 284.50 11.00 C 284.16 11.55 283.12 11.99 282.19 11.98 C 280.73 11.97 280.71 11.84 282.00 11.00 Z M 322.00 11.02 C 325.32 9.93 336.23 9.84 333.50 10.92 C 332.40 11.35 328.80 11.74 325.50 11.77 C 321.08 11.82 320.16 11.62 322.00 11.02 Z M 338.47 11.14 C 337.32 9.98 338.29 9.49 342.01 9.35 C 344.20 9.27 346.00 9.56 346.00 9.99 C 346.00 10.86 339.22 11.89 338.47 11.14 Z M 346.00 11.61 C 346.00 11.39 346.68 10.95 347.50 10.64 C 348.32 10.32 349.00 10.50 349.00 11.03 C 349.00 11.56 348.32 12.00 347.50 12.00 C 346.68 12.00 346.00 11.82 346.00 11.61 Z M 316.27 10.31 C 317.24 10.05 318.59 10.07 319.27 10.34 C 319.95 10.62 319.15 10.83 317.50 10.81 C 315.85 10.78 315.30 10.56 316.27 10.31 Z M 352.50 10.00 C 352.84 9.45 353.32 9.00 353.56 9.00 C 353.80 9.00 354.00 9.45 354.00 10.00 C 354.00 10.55 353.52 11.00 352.94 11.00 C 352.36 11.00 352.16 10.55 352.50 10.00 Z" fill="none" stroke="rgba(255,255,255,0.92)" stroke-width="1.5" stroke-linejoin="round" fill-rule="evenodd"/>
</svg>
