<svg xmlns="http://www.w3.org/2000/svg" viewBox="0 0 400 289" width="400" height="289">
  <path d="M 0.00 144.50 L 0.00 0.00 L 200.00 0.00 L 400.00 0.00 L 400.00 94.87 L 400.00 189.75 L 394.75 190.38 C 391.86 190.73 386.57 191.30 383.00 191.65 C 379.43 192.00 376.21 192.73 375.86 193.28 C 375.05 194.53 375.76 203.79 377.60 215.82 C 378.39 220.95 378.77 225.56 378.46 226.07 C 378.14 226.58 376.11 227.28 373.94 227.63 C 371.77 227.97 370.00 228.65 370.00 229.13 C 370.00 230.50 375.55 230.15 388.00 228.00 C 394.32 226.91 399.61 226.01 399.75 226.01 C 399.89 226.00 400.00 226.68 400.00 227.50 C 400.00 228.32 399.55 229.00 399.00 229.00 C 397.70 229.00 397.70 232.70 399.00 233.50 C 399.63 233.89 400.00 244.34 400.00 261.56 L 400.00 289.00 L 200.00 289.00 L 0.00 289.00 L 0.00 144.50 Z M 10.23 281.76 C 9.90 279.87 12.95 278.55 14.37 279.97 C 15.08 280.68 14.87 281.00 13.70 281.00 C 11.13 281.00 11.66 282.99 14.25 283.07 C 16.92 283.16 36.73 282.94 68.50 282.48 C 81.15 282.30 95.01 282.11 99.31 282.07 C 104.24 282.03 106.89 281.63 106.50 281.00 C 106.16 280.45 104.98 280.00 103.88 280.00 C 102.70 280.00 102.16 279.56 102.55 278.91 C 102.92 278.31 104.07 278.05 105.11 278.32 C 106.15 278.59 107.25 278.40 107.56 277.91 C 107.87 277.41 108.65 277.01 109.31 277.03 C 110.01 277.05 109.84 277.57 108.88 278.29 C 107.45 279.38 107.44 279.69 108.76 280.92 C 109.92 282.00 113.60 282.27 125.34 282.11 C 133.64 282.00 140.65 281.69 140.92 281.42 C 141.44 280.89 141.44 280.79 141.08 259.00 C 140.81 242.69 140.49 240.60 138.33 241.43 C 137.40 241.78 137.00 241.52 137.27 240.75 C 137.51 240.06 138.44 239.63 139.33 239.79 C 140.77 240.05 140.96 238.35 140.96 224.79 C 140.96 216.38 140.68 207.97 140.34 206.09 L 139.72 202.68 L 137.90 206.09 L 136.08 209.50 L 136.04 203.25 C 136.01 198.34 136.32 197.00 137.50 197.00 C 138.38 197.00 139.00 197.91 139.00 199.20 C 139.00 200.43 139.35 200.98 139.80 200.45 C 140.24 199.93 140.34 195.90 140.01 191.50 C 139.46 184.12 139.33 183.72 138.21 186.32 C 136.77 189.67 136.68 191.00 137.91 191.00 C 138.40 191.00 138.55 191.99 138.24 193.20 L 137.66 195.41 L 136.67 193.19 C 135.47 190.50 137.83 179.12 139.15 181.21 C 139.69 182.06 139.97 181.57 139.98 179.78 C 140.00 176.21 137.28 177.08 136.71 180.83 C 136.45 182.55 136.25 181.94 136.15 179.13 C 136.02 175.23 136.21 174.82 138.00 175.29 C 139.89 175.79 139.99 175.36 139.85 167.16 C 139.77 162.40 139.52 159.71 139.29 161.20 C 138.78 164.56 136.00 163.91 136.00 160.42 C 136.00 158.74 136.43 158.23 137.50 158.64 C 138.33 158.95 139.00 158.72 139.00 158.11 C 139.00 157.50 138.63 157.00 138.19 157.00 C 137.74 157.00 136.75 155.40 135.98 153.45 C 134.64 150.03 134.55 149.98 133.71 152.20 C 133.23 153.46 133.10 170.93 133.42 191.00 C 134.36 250.52 134.42 272.51 133.63 273.80 C 133.19 274.50 131.10 274.92 128.69 274.80 C 126.38 274.69 100.14 274.96 70.37 275.39 C 28.50 276.00 16.06 275.91 15.49 274.98 C 15.08 274.32 14.41 270.34 14.01 266.14 C 13.61 261.94 13.22 259.60 13.14 260.95 C 13.04 262.74 12.70 263.10 11.89 262.29 C 11.17 261.57 11.04 259.37 11.50 255.96 C 11.99 252.41 12.50 251.18 13.10 252.12 C 13.75 253.15 13.97 252.94 13.98 251.29 C 13.99 250.07 13.10 248.59 12.00 248.00 C 9.88 246.86 9.24 244.00 11.11 244.00 C 11.78 244.00 11.98 243.05 11.61 241.57 C 11.22 240.05 11.56 238.59 12.50 237.64 C 13.32 236.82 13.96 235.10 13.90 233.82 C 13.80 231.52 13.79 231.52 13.00 234.00 C 12.34 236.07 12.21 235.77 12.26 232.29 C 12.30 229.98 12.70 228.32 13.16 228.60 C 13.62 228.89 13.92 221.33 13.82 211.81 C 13.71 202.29 13.46 196.86 13.26 199.75 C 13.06 202.64 12.47 205.00 11.95 205.00 C 11.43 205.00 11.00 205.68 11.00 206.50 C 11.00 207.32 11.45 208.00 12.00 208.00 C 12.55 208.00 13.00 208.73 13.00 209.62 C 13.00 210.97 12.74 211.03 11.46 209.96 C 10.14 208.87 9.98 206.16 10.35 191.78 C 10.59 182.48 11.06 174.60 11.40 174.27 C 12.49 173.17 12.02 158.71 10.78 155.27 C 9.76 152.45 9.80 151.74 11.03 150.96 C 11.84 150.45 12.07 150.02 11.55 150.02 C 11.03 150.01 11.12 149.48 11.76 148.84 C 12.61 147.99 13.27 147.98 14.26 148.80 C 15.07 149.48 17.92 149.72 21.55 149.42 C 24.82 149.15 30.65 148.82 34.50 148.70 C 38.35 148.58 42.03 148.14 42.68 147.72 C 43.33 147.31 44.12 147.38 44.43 147.89 C 45.08 148.94 60.73 148.15 62.97 146.96 C 63.78 146.52 65.20 146.57 66.13 147.07 C 67.09 147.58 71.35 147.62 76.15 147.14 C 80.74 146.69 85.77 146.67 87.32 147.11 C 89.22 147.64 90.01 147.54 89.77 146.81 C 89.09 144.77 81.50 144.47 43.33 144.95 C 18.12 145.26 14.98 145.13 13.50 143.64 C 12.59 142.73 11.43 142.24 10.92 142.55 C 10.41 142.86 10.03 141.63 10.07 139.81 C 10.13 137.05 10.28 136.83 11.00 138.50 C 11.69 140.10 11.87 139.73 11.93 136.69 C 11.97 134.39 11.60 133.13 11.00 133.50 C 10.45 133.84 10.00 133.45 10.00 132.64 C 10.00 131.83 10.39 131.02 10.86 130.83 C 11.33 130.65 12.03 128.77 12.42 126.65 C 12.94 123.82 12.82 122.99 11.95 123.53 C 11.31 123.93 10.49 123.79 10.14 123.22 C 9.62 122.39 9.63 109.09 10.16 79.50 C 10.18 78.40 10.13 72.14 10.04 65.60 C 9.91 56.75 10.21 53.46 11.19 52.77 C 12.22 52.05 12.23 51.74 11.25 51.34 C 10.56 51.06 10.00 49.94 10.00 48.86 C 10.00 47.77 10.45 47.16 11.00 47.50 C 11.55 47.84 12.00 47.42 12.00 46.56 C 12.00 45.70 11.55 45.00 11.00 45.00 C 10.45 45.00 10.00 44.28 10.00 43.39 C 10.00 42.38 10.55 42.00 11.50 42.36 C 12.76 42.85 13.00 41.55 13.00 34.17 C 13.00 29.09 12.53 24.93 11.89 24.29 C 11.08 23.48 11.41 22.85 13.12 21.94 C 15.37 20.73 15.38 20.66 13.48 19.91 C 11.60 19.18 11.61 19.14 13.69 19.07 C 14.90 19.03 16.16 19.45 16.50 20.00 C 17.42 21.49 28.73 21.27 29.29 19.75 C 29.65 18.78 30.03 18.77 31.02 19.70 C 31.76 20.39 33.53 20.64 35.25 20.30 C 37.11 19.93 38.49 20.17 38.98 20.96 C 39.53 21.85 39.95 21.89 40.43 21.11 C 40.81 20.50 40.53 19.99 39.81 19.98 C 38.84 19.97 38.88 19.73 39.97 19.04 C 40.89 18.46 41.89 18.49 42.65 19.13 C 43.48 19.82 44.57 19.76 46.06 18.97 C 49.10 17.34 104.46 16.44 103.48 18.04 C 103.04 18.75 103.50 18.70 104.76 17.92 C 106.86 16.61 110.00 17.24 110.00 18.97 C 110.00 19.54 108.93 20.00 107.62 20.00 C 106.31 20.00 104.63 20.75 103.87 21.67 C 102.64 23.18 102.76 23.28 105.00 22.69 C 106.38 22.32 109.46 22.02 111.86 22.01 C 115.32 22.00 116.10 21.69 115.64 20.50 C 115.32 19.68 115.50 19.00 116.03 19.00 C 116.56 19.00 117.00 19.61 117.00 20.36 C 117.00 21.29 118.18 21.66 120.75 21.55 C 122.81 21.46 129.22 21.30 135.00 21.18 C 142.21 21.04 145.03 20.67 144.00 20.00 C 142.79 19.22 142.95 19.03 144.81 19.02 C 146.15 19.01 146.85 19.43 146.48 20.04 C 146.05 20.72 148.22 20.98 152.92 20.79 C 158.89 20.55 160.00 20.22 160.00 18.75 C 160.00 17.77 159.25 17.00 158.30 17.00 C 157.19 17.00 156.94 16.66 157.58 16.02 C 158.62 14.98 194.21 14.39 195.82 15.39 C 196.32 15.70 199.16 15.96 202.12 15.96 C 205.08 15.97 208.51 15.97 209.75 15.97 C 210.99 15.98 212.00 15.53 212.00 14.99 C 212.00 13.55 214.76 13.77 215.25 15.25 C 215.59 16.24 216.01 16.23 217.26 15.19 C 219.06 13.71 257.05 12.73 260.51 14.08 C 262.20 14.74 262.24 14.87 260.75 14.93 C 259.79 14.97 259.00 15.42 259.00 15.94 C 259.00 17.10 260.99 18.44 261.03 17.31 C 261.05 16.86 262.28 15.61 263.77 14.52 C 266.13 12.80 268.30 12.52 280.49 12.35 C 303.54 12.04 342.89 11.08 352.25 10.61 C 357.56 10.34 361.00 10.55 361.00 11.14 C 361.00 11.68 361.54 11.79 362.20 11.38 C 364.04 10.24 381.92 9.03 387.25 9.68 L 392.00 10.26 L 392.00 17.19 C 392.00 21.04 391.60 23.87 391.10 23.56 C 390.61 23.26 390.20 21.40 390.20 19.44 C 390.20 15.81 389.49 14.18 388.40 15.27 C 388.07 15.60 387.84 43.57 387.89 77.44 L 387.98 139.00 L 384.24 139.18 C 382.18 139.27 372.62 139.44 363.00 139.54 C 353.38 139.65 327.67 140.04 305.88 140.41 L 266.25 141.08 L 266.04 126.79 C 265.92 118.93 265.88 110.03 265.95 107.00 C 266.22 94.88 265.81 64.47 265.36 64.03 C 264.11 62.78 263.38 66.78 263.55 74.03 C 263.66 78.44 263.40 82.25 262.99 82.50 C 261.70 83.30 261.01 77.19 261.68 70.81 C 262.16 66.24 262.02 64.87 261.14 65.41 C 260.34 65.91 260.01 69.73 260.11 77.49 C 260.23 86.66 260.52 88.74 261.63 88.31 C 262.38 88.02 263.01 86.82 263.03 85.64 C 263.06 83.84 263.21 83.75 263.99 85.09 C 264.58 86.09 264.55 88.05 263.92 90.33 C 263.23 92.81 263.25 94.59 263.96 95.92 C 265.48 98.77 265.24 100.13 263.25 99.79 C 262.03 99.59 261.41 100.25 261.21 102.00 C 260.97 103.98 261.13 104.19 261.94 103.00 C 262.80 101.74 262.97 101.82 263.00 103.50 C 263.01 104.60 263.28 106.62 263.59 108.00 C 264.12 110.36 264.06 110.40 262.64 108.65 C 261.22 106.90 261.10 106.99 260.58 110.15 C 259.71 115.47 260.25 121.00 261.65 121.00 C 262.79 121.00 264.98 126.72 264.99 129.75 C 265.00 131.26 262.80 131.40 261.37 129.97 C 260.66 129.26 260.36 130.20 260.42 132.98 C 260.47 135.78 260.88 136.87 261.75 136.54 C 262.44 136.28 263.00 136.50 263.00 137.03 C 263.00 137.56 262.55 138.00 262.00 138.00 C 261.45 138.00 261.00 138.48 261.00 139.06 C 261.00 139.64 261.45 139.84 262.00 139.50 C 262.55 139.16 263.00 139.29 263.00 139.79 C 263.00 140.29 263.79 141.60 264.75 142.70 C 266.13 144.29 267.66 144.69 272.00 144.61 C 275.91 144.53 277.43 144.86 277.25 145.75 C 276.93 147.36 279.23 147.37 280.84 145.76 C 281.83 144.77 282.28 144.82 283.06 146.01 C 283.92 147.33 284.14 147.32 284.95 145.97 C 285.60 144.87 287.02 144.54 289.92 144.82 C 292.16 145.03 293.78 145.55 293.51 145.98 C 293.25 146.40 294.55 146.99 296.39 147.29 C 300.54 147.96 312.11 146.99 311.51 146.01 C 311.27 145.62 312.07 144.82 313.28 144.23 C 317.07 142.39 321.37 142.13 324.73 143.53 C 326.65 144.34 328.19 144.50 328.54 143.94 C 328.86 143.42 330.69 143.00 332.62 143.00 C 334.70 143.00 335.87 143.41 335.50 144.00 C 335.16 144.55 335.36 145.00 335.94 145.00 C 336.52 145.00 337.00 144.54 337.00 143.98 C 337.00 142.89 351.34 143.30 356.26 144.53 C 358.12 145.00 359.00 144.83 359.00 144.00 C 359.00 143.13 360.08 142.98 362.75 143.48 C 367.28 144.32 367.90 144.82 365.97 146.05 C 365.01 146.66 366.24 146.76 369.50 146.34 C 372.25 145.98 374.82 145.20 375.21 144.60 C 375.61 143.99 378.08 143.56 380.71 143.64 C 384.07 143.75 384.90 143.54 383.50 142.96 C 381.90 142.30 382.20 142.13 385.05 142.07 C 387.00 142.03 389.15 141.45 389.82 140.78 C 390.78 139.82 390.91 140.22 390.42 142.64 C 389.91 145.22 390.15 145.81 391.96 146.28 C 393.18 146.60 394.32 146.33 394.57 145.67 C 394.92 144.76 394.50 27.59 394.09 10.69 L 394.00 6.89 L 373.25 7.44 C 361.84 7.75 343.05 8.24 331.50 8.53 C 306.60 9.15 283.49 9.86 269.00 10.45 C 263.23 10.69 239.82 11.18 217.00 11.56 C 194.18 11.93 171.45 12.35 166.50 12.49 C 161.55 12.64 144.22 13.05 128.00 13.41 C 111.78 13.77 93.33 14.26 87.00 14.50 C 80.67 14.74 62.45 15.19 46.50 15.51 C 30.55 15.82 15.09 16.32 12.15 16.62 L 6.81 17.17 L 7.09 149.83 C 7.25 222.80 7.56 282.86 7.78 283.30 C 8.47 284.67 10.52 283.38 10.23 281.76 Z M 17.24 280.43 C 18.60 278.99 19.25 278.85 20.19 279.79 C 21.03 280.63 21.06 281.00 20.28 281.00 C 19.67 281.00 18.34 281.29 17.33 281.64 C 15.59 282.25 15.58 282.20 17.24 280.43 Z M 28.05 281.05 C 26.92 280.34 27.20 279.99 29.35 279.45 C 32.35 278.70 33.57 279.27 32.54 280.93 C 31.74 282.23 29.99 282.28 28.05 281.05 Z M 35.36 280.50 C 36.18 279.68 37.68 279.01 38.68 279.03 C 40.39 279.06 40.38 279.15 38.56 280.53 C 35.85 282.58 33.30 282.56 35.36 280.50 Z M 41.64 280.50 C 41.95 279.68 42.77 279.00 43.44 279.00 C 44.11 279.00 44.67 279.68 44.67 280.50 C 44.67 281.32 43.86 282.00 42.86 282.00 C 41.67 282.00 41.26 281.49 41.64 280.50 Z M 50.52 281.08 C 48.88 280.44 49.20 280.19 52.37 279.59 C 56.52 278.81 58.34 279.54 55.97 281.04 C 54.25 282.13 53.21 282.14 50.52 281.08 Z M 61.25 281.22 C 60.01 281.02 59.00 280.44 59.00 279.93 C 59.00 278.64 62.73 278.76 63.54 280.07 C 64.40 281.45 63.99 281.66 61.25 281.22 Z M 68.75 280.34 C 69.44 280.06 70.56 280.06 71.25 280.34 C 71.94 280.62 71.38 280.84 70.00 280.84 C 68.62 280.84 68.06 280.62 68.75 280.34 Z M 112.24 280.29 C 110.99 280.05 110.23 279.44 110.54 278.93 C 111.38 277.58 113.34 277.79 115.56 279.47 C 117.60 281.01 116.89 281.19 112.24 280.29 Z M 85.00 279.00 C 83.86 278.27 84.30 278.03 86.81 278.02 C 88.76 278.01 89.87 278.41 89.50 279.00 C 88.72 280.26 86.94 280.26 85.00 279.00 Z M 95.00 279.00 C 96.96 277.73 98.28 277.73 97.50 279.00 C 97.16 279.55 96.12 279.99 95.19 279.98 C 93.73 279.97 93.71 279.84 95.00 279.00 Z M 121.00 279.00 C 121.00 278.45 121.45 278.00 122.00 278.00 C 122.55 278.00 123.00 278.45 123.00 279.00 C 123.00 279.55 122.55 280.00 122.00 280.00 C 121.45 280.00 121.00 279.55 121.00 279.00 Z M 136.00 279.00 C 137.96 277.73 139.28 277.73 138.50 279.00 C 138.16 279.55 137.12 279.99 136.19 279.98 C 134.73 279.97 134.71 279.84 136.00 279.00 Z M 126.81 278.32 C 127.53 278.03 128.40 278.06 128.73 278.40 C 129.06 278.73 128.47 278.96 127.42 278.92 C 126.25 278.87 126.01 278.64 126.81 278.32 Z M 138.00 275.94 C 138.00 275.36 138.45 275.16 139.00 275.50 C 139.55 275.84 140.00 276.32 140.00 276.56 C 140.00 276.80 139.55 277.00 139.00 277.00 C 138.45 277.00 138.00 276.52 138.00 275.94 Z M 12.08 272.42 C 12.13 271.25 12.36 271.01 12.68 271.81 C 12.97 272.53 12.94 273.40 12.60 273.73 C 12.27 274.06 12.04 273.47 12.08 272.42 Z M 138.19 270.50 C 138.22 268.85 138.44 268.30 138.69 269.27 C 138.95 270.24 138.93 271.59 138.66 272.27 C 138.38 272.95 138.17 272.15 138.19 270.50 Z M 137.00 256.12 C 137.00 255.57 137.45 254.84 138.00 254.50 C 138.55 254.16 139.00 254.33 139.00 254.88 C 139.00 255.43 138.55 256.16 138.00 256.50 C 137.45 256.84 137.00 256.67 137.00 256.12 Z M 240.00 254.58 C 240.00 252.03 238.53 251.41 231.00 250.79 C 227.86 250.53 227.47 250.78 227.19 253.19 C 226.91 255.63 227.22 255.91 230.69 256.27 C 239.75 257.21 240.00 257.16 240.00 254.58 Z M 258.75 255.42 C 260.39 255.08 261.00 254.26 261.00 252.37 C 261.00 249.79 260.96 249.77 255.25 250.48 C 248.45 251.33 248.00 251.55 248.00 253.98 C 248.00 256.85 250.17 257.14 258.75 255.42 Z M 219.99 249.69 C 219.99 248.07 218.62 246.78 214.78 244.75 C 210.23 242.34 209.40 242.17 208.13 243.45 C 206.19 245.39 207.82 247.36 213.93 250.47 C 218.99 253.05 220.00 252.92 219.99 249.69 Z M 281.15 246.32 C 280.71 244.05 278.90 242.85 277.53 243.93 C 276.97 244.37 274.82 245.28 272.76 245.94 C 268.29 247.38 267.57 248.33 268.95 250.91 C 269.98 252.83 270.10 252.82 275.75 250.51 C 280.17 248.69 281.42 247.73 281.15 246.32 Z M 13.68 242.81 C 13.36 242.01 13.13 242.25 13.08 243.42 C 13.04 244.47 13.27 245.06 13.60 244.73 C 13.94 244.40 13.97 243.53 13.68 242.81 Z M 343.82 243.72 C 345.31 241.92 346.98 230.81 346.99 222.67 C 347.00 217.65 347.33 215.94 348.25 216.25 C 349.14 216.54 349.65 220.70 350.00 230.58 L 350.50 244.50 L 353.50 244.85 C 357.35 245.29 366.81 243.25 369.85 241.32 C 371.86 240.04 372.10 239.31 371.52 236.16 C 370.66 231.50 369.88 230.74 366.77 231.52 C 364.79 232.02 364.06 233.05 363.38 236.33 C 362.65 239.80 362.06 240.55 359.90 240.80 C 357.33 241.10 357.30 241.02 356.68 232.80 C 356.33 228.24 355.76 222.18 355.40 219.34 C 354.78 214.49 354.88 214.15 357.04 213.84 C 358.31 213.65 359.55 212.87 359.80 212.11 C 360.14 211.09 359.62 210.87 357.88 211.27 C 356.57 211.58 351.11 212.82 345.75 214.04 C 340.39 215.25 336.00 216.64 336.00 217.12 C 336.00 217.61 336.68 218.00 337.50 218.00 C 339.29 218.00 339.37 220.63 337.98 233.84 C 337.44 238.98 337.25 243.59 337.56 244.09 C 338.39 245.44 342.60 245.19 343.82 243.72 Z M 385.48 239.03 C 388.57 232.93 388.61 232.00 385.75 232.02 C 382.73 232.04 381.58 232.92 379.64 236.70 C 377.19 241.48 377.48 244.00 380.48 244.00 C 382.46 244.00 383.48 242.98 385.48 239.03 Z M 328.80 238.85 C 334.46 236.02 336.77 234.37 336.08 233.68 C 335.38 232.98 334.23 233.03 332.48 233.83 C 328.33 235.72 328.00 235.33 328.00 228.45 C 328.00 222.07 328.08 221.87 331.00 220.85 C 335.04 219.44 334.79 218.00 330.50 218.00 C 327.54 218.00 327.00 217.65 326.99 215.75 C 326.98 214.51 326.72 211.93 326.40 210.00 C 325.86 206.76 326.06 206.41 329.09 205.27 C 334.89 203.09 331.31 202.68 322.53 204.52 C 316.78 205.73 314.00 206.77 314.00 207.70 C 314.00 208.46 314.72 208.96 315.59 208.79 C 316.87 208.56 317.27 209.71 317.64 214.63 C 318.07 220.55 318.00 220.78 315.50 221.41 C 314.08 221.77 313.21 222.52 313.56 223.10 C 313.91 223.67 314.44 223.89 314.73 223.60 C 315.02 223.31 316.05 223.49 317.01 224.01 C 318.20 224.64 318.99 226.76 319.47 230.63 C 319.86 233.76 320.42 236.94 320.71 237.70 C 321.05 238.58 320.12 239.51 318.12 240.26 C 316.41 240.91 315.00 241.79 315.00 242.22 C 315.00 244.16 321.20 242.65 328.80 238.85 Z M 203.00 237.84 C 203.00 237.33 201.54 234.92 199.75 232.47 C 197.55 229.45 195.86 228.10 194.51 228.26 C 191.23 228.65 191.74 231.22 196.10 236.28 C 199.39 240.11 200.49 240.84 201.61 239.91 C 202.37 239.28 203.00 238.34 203.00 237.84 Z M 137.73 233.25 C 137.45 232.29 136.87 230.64 136.44 229.59 C 135.92 228.30 136.02 227.89 136.75 228.35 C 137.36 228.72 138.06 228.23 138.31 227.26 C 138.56 226.29 138.82 227.64 138.88 230.25 C 139.00 235.19 138.59 236.25 137.73 233.25 Z M 10.08 225.42 C 10.13 224.25 10.36 224.01 10.68 224.81 C 10.97 225.53 10.94 226.40 10.60 226.73 C 10.27 227.06 10.04 226.47 10.08 225.42 Z M 11.90 223.00 C 11.32 218.50 11.51 217.17 12.56 218.23 C 12.87 218.54 12.98 220.75 12.80 223.15 L 12.48 227.50 L 11.90 223.00 Z M 385.43 222.57 C 384.58 219.18 384.94 218.87 390.45 218.25 C 394.99 217.74 395.00 217.75 395.00 220.87 C 395.00 222.86 394.50 224.00 393.62 224.00 C 392.87 224.00 390.87 224.28 389.17 224.62 C 386.45 225.16 386.02 224.92 385.43 222.57 Z M 189.91 221.61 C 190.81 220.53 190.51 218.95 188.59 214.61 C 185.95 208.63 186.00 208.68 183.58 209.61 C 181.39 210.45 181.59 212.27 184.52 218.03 C 187.18 223.28 188.04 223.86 189.91 221.61 Z M 137.75 219.12 C 136.63 214.06 136.78 210.38 138.06 211.66 C 138.64 212.24 138.98 214.92 138.81 217.61 C 138.51 222.35 138.48 222.40 137.75 219.12 Z M 136.08 219.42 C 136.13 218.25 136.36 218.01 136.68 218.81 C 136.97 219.53 136.94 220.40 136.60 220.73 C 136.27 221.06 136.04 220.47 136.08 219.42 Z M 384.49 213.96 C 384.12 212.25 383.97 210.71 384.15 210.52 C 384.34 210.34 386.64 209.87 389.25 209.48 L 394.00 208.77 L 394.00 211.83 C 394.00 215.33 393.80 215.50 388.84 216.40 C 385.35 217.03 385.14 216.90 384.49 213.96 Z M 383.77 205.56 C 383.18 202.48 383.43 202.27 388.85 201.41 C 392.81 200.77 393.00 200.86 393.00 203.31 C 393.00 206.32 392.66 206.60 387.88 207.50 C 384.55 208.12 384.23 207.97 383.77 205.56 Z M 349.66 202.32 C 355.11 200.60 356.67 199.00 352.90 199.00 C 349.63 199.00 340.00 202.04 340.00 203.07 C 340.00 204.48 343.73 204.19 349.66 202.32 Z M 183.00 200.00 C 183.48 197.95 184.44 197.35 188.36 196.63 C 191.98 195.97 192.99 195.40 192.55 194.26 C 192.23 193.44 188.69 187.53 184.68 181.13 C 180.67 174.73 176.31 167.59 175.01 165.25 C 173.70 162.91 172.33 161.00 171.95 161.00 C 170.56 161.00 165.55 199.97 166.79 201.17 C 167.18 201.55 169.68 201.35 172.35 200.74 C 176.64 199.75 177.32 199.82 178.18 201.37 C 179.54 203.79 182.29 203.00 183.00 200.00 Z M 383.00 197.48 C 383.00 195.69 383.75 194.67 385.57 193.98 C 390.25 192.19 392.00 192.71 392.00 195.88 C 392.00 198.29 391.51 198.85 388.88 199.38 C 383.75 200.40 383.00 200.16 383.00 197.48 Z M 13.69 188.27 C 13.44 187.30 13.22 187.85 13.19 189.50 C 13.17 191.15 13.38 191.95 13.66 191.27 C 13.93 190.59 13.95 189.24 13.69 188.27 Z M 13.68 176.81 C 13.36 176.01 13.13 176.25 13.08 177.42 C 13.04 178.47 13.27 179.06 13.60 178.73 C 13.94 178.40 13.97 177.53 13.68 176.81 Z M 136.00 171.94 C 136.00 171.36 136.45 171.16 137.00 171.50 C 137.55 171.84 138.00 172.32 138.00 172.56 C 138.00 172.80 137.55 173.00 137.00 173.00 C 136.45 173.00 136.00 172.52 136.00 171.94 Z M 138.68 153.81 C 138.36 153.01 138.13 153.25 138.08 154.42 C 138.04 155.47 138.27 156.06 138.60 155.73 C 138.94 155.40 138.97 154.53 138.68 153.81 Z M 113.50 146.15 C 113.50 145.10 111.06 144.76 102.75 144.65 C 96.18 144.56 91.99 144.89 91.97 145.50 C 91.92 146.75 97.43 147.51 106.50 147.51 C 111.72 147.50 113.50 147.16 113.50 146.15 Z M 137.00 147.00 C 137.00 146.45 137.90 146.00 139.00 146.00 C 140.10 146.00 141.00 145.55 141.00 145.00 C 141.00 143.90 138.03 143.67 135.64 144.58 C 134.81 144.90 134.37 145.80 134.67 146.58 C 135.29 148.20 137.00 148.51 137.00 147.00 Z M 218.25 147.34 C 217.56 147.06 216.44 147.06 215.75 147.34 C 215.06 147.62 215.62 147.84 217.00 147.84 C 218.38 147.84 218.94 147.62 218.25 147.34 Z M 234.08 146.91 C 232.48 146.27 231.31 146.29 230.63 146.97 C 229.92 147.68 230.68 147.98 233.05 147.94 C 236.29 147.88 236.35 147.81 234.08 146.91 Z M 129.75 146.06 C 130.99 146.03 132.00 145.58 132.00 145.07 C 132.00 144.56 128.62 144.15 124.50 144.17 C 120.38 144.18 117.00 144.57 117.00 145.02 C 117.00 146.18 119.87 146.75 124.00 146.41 C 125.92 146.25 128.51 146.09 129.75 146.06 Z M 156.00 145.59 C 156.00 144.57 154.28 144.07 149.75 143.79 C 146.31 143.57 143.10 143.60 142.62 143.84 C 140.89 144.70 145.13 146.13 147.79 145.57 C 149.28 145.26 151.18 145.45 152.00 145.99 C 154.16 147.40 156.00 147.22 156.00 145.59 Z M 200.00 145.80 C 200.00 144.31 196.91 143.49 192.55 143.84 C 187.53 144.24 186.43 145.68 190.75 146.19 C 195.37 146.73 199.99 146.54 200.00 145.80 Z M 349.50 146.00 C 349.84 145.45 349.44 145.00 348.62 145.00 C 347.79 145.00 346.84 145.45 346.50 146.00 C 346.16 146.55 346.56 147.00 347.38 147.00 C 348.21 147.00 349.16 146.55 349.50 146.00 Z M 166.00 144.38 C 166.00 144.17 164.85 144.00 163.44 144.00 C 162.03 144.00 161.13 144.41 161.44 144.91 C 161.95 145.74 166.00 145.27 166.00 144.38 Z M 206.64 144.50 C 207.98 143.17 207.94 142.99 206.32 142.88 C 201.81 142.59 199.77 143.61 202.03 145.04 C 204.07 146.33 204.91 146.23 206.64 144.50 Z M 345.73 145.40 C 345.40 145.06 344.53 145.03 343.81 145.32 C 343.01 145.64 343.25 145.87 344.42 145.92 C 345.47 145.96 346.06 145.73 345.73 145.40 Z M 380.27 145.34 C 379.59 145.07 378.24 145.05 377.27 145.31 C 376.30 145.56 376.85 145.78 378.50 145.81 C 380.15 145.83 380.95 145.62 380.27 145.34 Z M 388.00 145.61 C 388.00 145.39 387.32 144.95 386.50 144.64 C 385.68 144.32 385.00 144.50 385.00 145.03 C 385.00 145.56 385.68 146.00 386.50 146.00 C 387.32 146.00 388.00 145.82 388.00 145.61 Z M 178.73 144.40 C 178.40 144.06 177.53 144.03 176.81 144.32 C 176.01 144.64 176.25 144.87 177.42 144.92 C 178.47 144.96 179.06 144.73 178.73 144.40 Z M 215.00 144.00 C 215.00 143.45 213.65 143.00 212.00 143.00 C 210.35 143.00 209.00 143.45 209.00 144.00 C 209.00 144.55 210.35 145.00 212.00 145.00 C 213.65 145.00 215.00 144.55 215.00 144.00 Z M 249.75 144.06 C 250.44 144.03 251.00 143.55 251.00 143.00 C 251.00 141.92 229.30 141.56 226.59 142.60 C 221.87 144.42 230.35 144.95 249.75 144.06 Z M 259.45 143.84 C 262.04 142.66 262.52 141.86 261.35 140.68 C 260.99 140.32 260.10 140.81 259.37 141.77 C 258.38 143.06 257.83 143.19 257.23 142.29 C 256.38 141.01 252.00 141.64 252.00 143.05 C 252.00 143.49 253.01 144.06 254.25 144.29 C 255.49 144.53 256.59 144.79 256.70 144.86 C 256.81 144.94 258.05 144.48 259.45 143.84 Z M 295.00 143.95 C 295.00 143.43 297.55 143.00 300.67 143.00 C 307.51 143.00 307.35 143.51 300.25 144.31 C 297.17 144.66 295.00 144.51 295.00 143.95 Z M 308.50 144.00 C 308.16 143.45 308.84 143.00 310.00 143.00 C 311.16 143.00 311.84 143.45 311.50 144.00 C 311.16 144.55 310.49 145.00 310.00 145.00 C 309.51 145.00 308.84 144.55 308.50 144.00 Z M 222.73 143.40 C 222.40 143.06 221.53 143.03 220.81 143.32 C 220.01 143.64 220.25 143.87 221.42 143.92 C 222.47 143.96 223.06 143.73 222.73 143.40 Z M 290.75 143.34 C 291.44 143.06 292.56 143.06 293.25 143.34 C 293.94 143.62 293.38 143.84 292.00 143.84 C 290.62 143.84 290.06 143.62 290.75 143.34 Z M 374.75 142.34 C 375.44 142.06 376.56 142.06 377.25 142.34 C 377.94 142.62 377.38 142.84 376.00 142.84 C 374.62 142.84 374.06 142.62 374.75 142.34 Z M 13.66 138.75 C 13.38 138.06 13.16 138.62 13.16 140.00 C 13.16 141.38 13.38 141.94 13.66 141.25 C 13.94 140.56 13.94 139.44 13.66 138.75 Z M 390.46 125.83 C 390.49 117.92 390.88 113.54 391.60 113.30 C 392.35 113.05 392.63 115.83 392.49 122.22 C 392.16 136.68 392.05 138.00 391.21 138.00 C 390.78 138.00 390.44 132.53 390.46 125.83 Z M 164.50 135.97 C 225.50 131.49 254.43 112.80 254.23 78.00 C 254.16 66.36 251.85 57.84 246.68 50.18 C 238.15 37.53 219.04 28.70 192.22 25.00 C 170.40 21.99 130.31 22.09 101.00 25.24 C 95.22 25.86 88.40 26.39 85.84 26.43 C 83.28 26.46 81.34 26.74 81.52 27.04 C 81.71 27.34 76.72 28.64 70.43 29.93 C 64.14 31.22 59.00 32.61 59.00 33.01 C 59.00 33.91 54.69 35.64 50.25 36.52 C 48.46 36.87 47.00 37.52 47.00 37.96 C 47.00 38.40 45.66 39.31 44.01 39.99 C 40.29 41.54 31.25 50.36 28.25 55.38 C 23.71 62.97 22.49 68.67 22.58 82.00 C 22.65 92.32 23.04 95.46 24.82 100.00 C 29.46 111.78 39.02 120.49 54.33 126.87 C 61.74 129.95 80.07 134.22 93.21 135.93 C 102.45 137.13 148.30 137.15 164.50 135.97 Z M 130.32 129.24 C 128.83 128.99 127.92 127.91 127.47 125.87 C 126.65 122.11 126.93 121.84 130.84 122.62 C 133.49 123.15 134.00 123.71 134.00 126.07 C 134.00 129.25 133.42 129.75 130.32 129.24 Z M 109.46 126.25 C 110.42 122.37 111.06 121.97 115.27 122.66 C 118.57 123.19 119.00 123.59 119.00 126.13 C 119.00 128.92 118.85 129.00 113.89 129.00 C 108.82 129.00 108.79 128.98 109.46 126.25 Z M 142.00 125.45 L 142.00 121.89 L 146.68 122.20 C 150.81 122.46 151.45 122.82 152.08 125.19 C 153.01 128.69 152.58 129.00 146.83 129.00 L 142.00 129.00 L 142.00 125.45 Z M 261.91 126.39 C 260.45 124.64 259.53 125.32 260.37 127.52 C 260.71 128.40 261.46 128.83 262.04 128.47 C 262.77 128.03 262.72 127.37 261.91 126.39 Z M 92.25 127.29 C 90.56 126.97 90.00 126.17 90.00 124.10 C 90.00 122.58 90.24 121.10 90.53 120.81 C 91.01 120.32 101.13 121.81 101.80 122.47 C 101.96 122.63 101.80 123.94 101.44 125.38 C 100.77 128.07 98.60 128.52 92.25 127.29 Z M 160.67 127.33 C 160.30 126.97 160.00 125.39 160.00 123.83 C 160.00 121.56 160.44 121.00 162.25 121.02 C 165.41 121.04 166.62 122.07 167.21 125.25 C 167.68 127.78 167.47 128.00 164.53 128.00 C 162.77 128.00 161.03 127.70 160.67 127.33 Z M 175.55 124.10 C 173.75 120.62 174.28 120.00 179.05 120.00 C 182.31 120.00 182.83 120.34 183.30 122.75 C 183.59 124.26 183.75 125.55 183.66 125.61 C 183.57 125.66 182.04 125.99 180.26 126.33 C 177.42 126.87 176.84 126.59 175.55 124.10 Z M 73.30 124.21 C 72.37 123.61 72.38 122.89 73.36 120.97 C 74.31 119.11 75.33 118.55 77.47 118.71 C 81.12 118.98 82.37 120.26 81.53 122.90 C 81.04 124.46 80.05 125.00 77.68 124.98 C 75.93 124.98 73.96 124.63 73.30 124.21 Z M 191.25 121.38 C 189.79 118.14 190.80 117.04 195.27 117.02 C 197.36 117.00 198.30 117.66 199.05 119.64 C 200.26 122.81 200.16 122.94 195.87 123.61 C 192.92 124.07 192.34 123.79 191.25 121.38 Z M 11.72 115.26 C 11.49 113.74 11.29 114.75 11.29 117.50 C 11.28 120.25 11.47 121.49 11.70 120.26 C 11.94 119.03 11.95 116.78 11.72 115.26 Z M 58.04 119.89 C 54.78 118.59 54.80 118.63 55.56 115.62 C 56.33 112.56 57.64 112.38 62.47 114.69 C 66.18 116.46 66.79 117.81 64.80 119.80 C 63.39 121.21 61.42 121.24 58.04 119.89 Z M 206.99 117.47 C 205.79 115.23 205.79 114.74 207.05 113.95 C 209.81 112.20 213.00 112.90 214.18 115.50 C 215.52 118.44 215.44 118.57 211.44 119.42 C 208.83 119.98 208.17 119.69 206.99 117.47 Z M 99.00 113.32 C 96.53 113.13 90.22 112.29 85.00 111.44 C 51.53 105.99 40.32 95.26 45.05 73.20 C 47.35 62.48 60.99 54.80 86.39 49.93 C 95.53 48.18 98.40 48.51 104.70 52.08 C 118.29 59.77 128.67 69.70 132.66 78.82 C 134.02 81.95 136.10 86.75 137.29 89.50 C 140.41 96.76 143.21 100.72 150.20 107.75 L 156.41 114.00 L 129.95 113.83 C 115.40 113.73 101.47 113.50 99.00 113.32 Z M 221.59 111.82 C 218.65 107.63 223.97 105.10 227.51 109.01 C 228.50 110.11 229.14 111.12 228.91 111.26 C 226.55 112.66 223.94 114.00 223.57 114.00 C 223.32 114.00 222.43 113.02 221.59 111.82 Z M 12.66 109.75 C 12.38 109.06 12.16 109.62 12.16 111.00 C 12.16 112.38 12.38 112.94 12.66 112.25 C 12.94 111.56 12.94 110.44 12.66 109.75 Z M 42.53 111.04 C 38.86 106.98 43.53 103.27 47.55 107.05 C 49.84 109.20 49.89 109.46 48.34 111.17 C 46.22 113.52 44.75 113.48 42.53 111.04 Z M 178.00 111.06 C 178.00 110.61 178.69 109.67 179.53 108.98 C 180.73 107.98 181.62 107.96 183.66 108.89 C 185.09 109.54 186.09 110.22 185.88 110.40 C 184.93 111.20 178.00 111.78 178.00 111.06 Z M 390.00 105.58 C 390.00 101.44 390.41 99.00 391.11 99.00 C 391.72 99.00 391.95 98.33 391.64 97.50 C 391.32 96.67 391.53 96.00 392.09 96.00 C 392.76 96.00 392.87 97.69 392.40 100.75 C 391.67 105.56 391.66 106.01 392.20 109.39 C 392.36 110.43 391.94 111.48 391.25 111.73 C 390.33 112.05 390.00 110.42 390.00 105.58 Z M 164.25 107.78 C 161.33 106.37 161.41 104.88 164.56 102.13 C 167.27 99.78 169.87 99.93 172.06 102.57 C 173.07 103.79 172.87 104.51 170.97 106.53 C 168.43 109.24 167.60 109.39 164.25 107.78 Z M 192.50 104.32 C 189.20 102.39 182.23 98.56 177.02 95.81 C 171.81 93.06 166.27 89.90 164.72 88.80 C 160.39 85.72 157.39 80.17 154.66 70.19 C 151.97 60.37 148.24 53.99 142.36 49.15 L 138.72 46.14 L 142.11 45.51 C 147.23 44.55 184.20 46.68 195.00 48.55 C 206.57 50.56 213.67 52.95 220.69 57.21 C 228.05 61.67 231.17 66.67 231.76 74.95 C 232.63 87.21 228.71 94.29 217.69 100.40 C 212.95 103.03 199.11 108.47 198.58 107.91 C 198.54 107.86 195.80 106.24 192.50 104.32 Z M 233.75 103.61 C 229.87 100.66 232.90 96.09 237.39 98.13 C 240.50 99.55 240.57 100.03 238.13 102.85 C 235.96 105.35 236.03 105.34 233.75 103.61 Z M 33.61 99.42 C 32.43 96.34 32.98 95.00 35.43 95.00 C 37.03 95.00 38.10 95.73 38.54 97.12 C 39.60 100.45 34.85 102.66 33.61 99.42 Z M 151.45 97.94 C 150.06 96.40 149.84 95.47 150.61 94.26 C 152.63 91.05 154.74 90.45 156.94 92.45 C 159.52 94.78 159.53 96.10 156.99 98.28 C 154.41 100.49 153.71 100.45 151.45 97.94 Z M 390.02 87.75 C 390.03 80.70 391.08 76.70 392.37 78.79 C 393.26 80.23 391.88 95.00 390.85 95.00 C 390.38 95.00 390.01 91.74 390.02 87.75 Z M 240.53 90.64 C 238.06 88.84 239.21 86.00 242.41 86.00 C 245.45 86.00 246.01 86.84 244.91 89.75 C 243.93 92.35 243.10 92.52 240.53 90.64 Z M 30.63 85.47 C 29.51 82.55 29.95 81.86 32.75 82.18 C 34.73 82.41 35.50 83.06 35.50 84.50 C 35.50 87.03 31.53 87.82 30.63 85.47 Z M 143.44 83.52 C 141.60 80.10 141.60 80.01 143.53 78.55 C 147.41 75.62 150.00 77.09 150.00 82.22 C 150.00 84.04 147.55 86.88 145.91 86.97 C 145.58 86.99 144.47 85.43 143.44 83.52 Z M 240.00 76.54 C 240.00 75.08 242.90 73.00 244.93 73.00 C 245.52 73.00 246.00 74.12 246.00 75.50 C 246.00 77.61 245.53 78.00 243.00 78.00 C 241.03 78.00 240.00 77.50 240.00 76.54 Z M 390.02 72.25 C 390.03 69.46 390.28 68.88 391.00 70.00 C 392.27 71.97 392.27 76.00 391.00 76.00 C 390.45 76.00 390.01 74.31 390.02 72.25 Z M 31.00 70.47 C 31.00 69.08 31.68 67.68 32.51 67.36 C 34.47 66.60 37.00 68.72 37.00 71.12 C 37.00 72.54 36.27 73.00 34.00 73.00 C 31.46 73.00 31.00 72.61 31.00 70.47 Z M 137.65 70.17 C 135.34 67.61 135.49 67.29 140.06 65.09 L 144.11 63.13 L 144.98 65.31 C 145.67 67.06 145.31 67.95 143.17 69.75 C 139.94 72.46 139.74 72.48 137.65 70.17 Z M 238.00 64.66 C 238.00 62.89 241.90 59.82 243.16 60.60 C 244.56 61.47 244.10 65.00 242.58 65.00 C 241.80 65.00 240.45 65.27 239.58 65.61 C 238.56 66.00 238.00 65.67 238.00 64.66 Z M 389.93 61.31 C 389.86 58.63 390.06 43.17 390.21 40.00 C 390.24 39.17 390.68 37.98 391.18 37.34 C 391.75 36.62 391.69 35.93 391.05 35.53 C 390.47 35.17 390.01 33.45 390.03 31.69 C 390.06 28.67 390.14 28.60 391.53 30.44 C 392.67 31.94 392.88 34.40 392.47 41.44 C 392.17 46.42 391.97 53.27 392.02 56.66 C 392.06 60.05 391.63 63.11 391.05 63.47 C 390.42 63.86 389.97 63.00 389.93 61.31 Z M 265.61 52.50 C 265.53 44.83 265.16 42.00 264.25 42.00 C 263.56 42.00 263.00 41.52 263.00 40.94 C 263.00 40.36 263.40 40.13 263.90 40.44 C 265.06 41.15 265.59 34.59 265.17 24.75 C 264.86 17.37 263.69 14.95 262.29 18.75 C 261.94 19.71 261.26 20.76 260.79 21.08 C 259.67 21.84 259.17 40.39 260.02 50.00 C 260.38 54.12 260.75 56.29 260.84 54.81 C 260.93 53.33 261.44 51.85 261.97 51.52 C 263.21 50.75 264.40 55.37 263.68 58.13 C 263.26 59.72 264.39 62.55 265.61 62.96 C 265.68 62.98 265.68 58.28 265.61 52.50 Z M 37.77 59.93 C 36.32 59.09 36.24 58.59 37.26 56.96 C 37.93 55.88 39.02 55.00 39.68 55.00 C 41.19 55.00 44.10 59.04 43.40 60.16 C 42.70 61.29 39.90 61.17 37.77 59.93 Z M 128.25 59.33 C 125.81 57.62 125.29 56.00 127.19 56.00 C 127.84 56.00 129.34 55.09 130.53 53.97 C 132.91 51.73 134.92 52.05 136.73 54.94 C 137.77 56.61 137.48 57.11 134.40 58.92 C 132.47 60.07 130.80 60.98 130.69 60.95 C 130.59 60.92 129.49 60.19 128.25 59.33 Z M 11.66 55.75 C 11.38 55.06 11.16 55.62 11.16 57.00 C 11.16 58.38 11.38 58.94 11.66 58.25 C 11.94 57.56 11.94 56.44 11.66 55.75 Z M 231.71 55.37 C 231.36 55.03 231.77 53.41 232.61 51.78 C 234.09 48.93 234.22 48.89 236.08 50.57 C 237.89 52.21 237.91 52.44 236.35 54.16 C 234.66 56.03 232.84 56.51 231.71 55.37 Z M 48.54 51.04 C 46.94 49.28 46.92 48.94 48.31 47.54 C 50.40 45.45 51.72 45.60 53.04 48.08 C 55.36 52.41 51.86 54.71 48.54 51.04 Z M 114.86 49.03 L 112.50 47.07 L 115.50 46.92 C 117.15 46.84 119.73 46.63 121.23 46.45 C 125.19 45.98 125.53 47.59 121.86 49.42 C 117.86 51.41 117.71 51.40 114.86 49.03 Z M 222.10 48.62 C 221.30 47.66 221.25 46.46 221.95 44.62 C 223.09 41.63 224.20 41.33 226.03 43.53 C 227.06 44.78 227.05 45.53 225.98 47.53 C 224.47 50.35 223.71 50.57 222.10 48.62 Z M 61.15 45.43 C 59.65 42.13 60.39 41.00 64.06 41.00 C 66.52 41.00 67.00 41.40 67.00 43.46 C 67.00 44.88 66.17 46.37 65.07 46.96 C 62.47 48.36 62.49 48.36 61.15 45.43 Z M 262.08 43.42 C 262.13 42.25 262.36 42.01 262.68 42.81 C 262.97 43.53 262.94 44.40 262.60 44.73 C 262.27 45.06 262.04 44.47 262.08 43.42 Z M 74.93 41.32 C 73.65 37.95 74.46 37.24 80.00 36.83 C 84.26 36.52 84.52 36.65 84.82 39.26 C 85.15 42.15 84.77 42.43 79.22 43.39 C 76.35 43.89 75.81 43.63 74.93 41.32 Z M 208.25 43.34 C 207.56 43.06 207.00 41.25 207.00 39.31 C 207.00 36.50 207.32 35.91 208.59 36.40 C 209.47 36.73 211.27 37.28 212.59 37.61 C 215.02 38.22 215.51 39.52 214.39 42.42 C 213.81 43.94 210.85 44.39 208.25 43.34 Z M 193.18 39.94 C 191.41 39.23 190.94 38.37 191.18 36.26 C 191.46 33.84 191.88 33.54 194.50 33.82 C 198.44 34.24 199.25 35.16 198.45 38.36 C 197.74 41.17 196.88 41.43 193.18 39.94 Z M 92.97 37.42 C 91.75 34.22 91.58 34.42 96.09 33.73 C 100.57 33.04 102.27 34.04 101.84 37.11 C 101.56 39.08 100.83 39.56 97.75 39.81 C 94.46 40.08 93.87 39.79 92.97 37.42 Z M 110.41 36.51 C 108.20 33.13 109.53 31.76 114.62 32.18 C 118.21 32.48 118.50 32.73 118.46 35.50 C 118.42 38.12 118.02 38.54 115.27 38.81 C 112.79 39.05 111.76 38.56 110.41 36.51 Z M 177.75 38.28 C 175.41 37.93 175.00 37.39 175.00 34.66 C 175.00 31.51 175.08 31.46 179.01 31.83 C 181.21 32.04 183.24 32.58 183.51 33.02 C 184.17 34.09 182.27 39.04 181.27 38.85 C 180.85 38.77 179.26 38.51 177.75 38.28 Z M 127.07 36.13 C 124.96 32.19 125.69 30.85 129.75 31.19 C 133.18 31.47 133.50 31.75 133.50 34.50 C 133.50 37.01 133.06 37.55 130.82 37.81 C 128.95 38.03 127.81 37.51 127.07 36.13 Z M 145.75 37.20 C 142.32 36.91 142.00 36.62 142.00 33.88 C 142.00 30.97 142.13 30.89 146.25 31.19 C 149.85 31.45 150.55 31.86 150.83 33.87 C 151.27 36.95 150.30 37.59 145.75 37.20 Z M 161.75 37.28 C 159.47 36.94 159.00 36.37 159.00 33.93 C 159.00 31.26 159.30 31.00 162.44 31.00 C 164.33 31.00 166.15 31.43 166.47 31.95 C 167.18 33.10 166.06 38.06 165.14 37.85 C 164.79 37.77 163.26 37.51 161.75 37.28 Z M 261.00 33.06 C 261.00 32.54 261.45 31.84 262.00 31.50 C 262.55 31.16 263.00 31.58 263.00 32.44 C 263.00 33.30 262.55 34.00 262.00 34.00 C 261.45 34.00 261.00 33.58 261.00 33.06 Z M 10.19 30.50 C 10.22 28.85 10.44 28.30 10.69 29.27 C 10.95 30.24 10.93 31.59 10.66 32.27 C 10.38 32.95 10.17 32.15 10.19 30.50 Z M 390.08 25.42 C 390.13 24.25 390.36 24.01 390.68 24.81 C 390.97 25.53 390.94 26.40 390.60 26.73 C 390.27 27.06 390.04 26.47 390.08 25.42 Z M 169.50 18.50 C 169.50 17.95 168.38 17.37 167.00 17.21 C 165.15 16.99 164.87 17.16 165.91 17.87 C 167.03 18.62 166.81 18.92 164.91 19.31 C 163.38 19.63 163.78 19.75 166.00 19.65 C 167.93 19.57 169.50 19.05 169.50 18.50 Z M 151.63 17.51 C 149.68 16.69 149.22 16.13 150.18 15.76 C 151.81 15.14 156.72 17.46 155.39 18.22 C 154.90 18.50 153.21 18.18 151.63 17.51 Z M 112.81 16.32 C 113.53 16.03 114.40 16.06 114.73 16.40 C 115.06 16.73 114.47 16.96 113.42 16.92 C 112.25 16.87 112.01 16.64 112.81 16.32 Z M 126.78 16.26 C 129.69 16.06 134.19 16.06 136.78 16.27 C 139.38 16.47 137.00 16.64 131.50 16.63 C 126.00 16.63 123.88 16.46 126.78 16.26 Z M 144.27 16.31 C 145.24 16.05 146.59 16.07 147.27 16.34 C 147.95 16.62 147.15 16.83 145.50 16.81 C 143.85 16.78 143.30 16.56 144.27 16.31 Z" fill="none" stroke="rgba(255,255,255,0.92)" stroke-width="1.5" stroke-linejoin="round" fill-rule="evenodd"/>
</svg>
