<svg xmlns="http://www.w3.org/2000/svg" viewBox="0 0 100 100" width="100" height="100">
  <path d="M 0.00 50.00 L 0.00 0.00 L 50.00 0.00 L 100.00 0.00 L 100.00 50.00 L 100.00 100.00 L 50.00 100.00 L 0.00 100.00 L 0.00 50.00 Z M 24.68 93.99 C 56.30 91.58 77.07 84.16 84.78 72.53 C 89.62 65.21 91.37 58.85 90.65 51.15 C 89.56 39.50 83.24 30.30 72.53 24.78 C 62.38 19.55 43.04 16.08 23.75 16.03 C 16.60 16.01 12.00 15.61 12.00 15.00 C 12.00 14.45 13.80 14.00 16.00 14.00 C 18.20 14.00 20.00 13.60 20.00 13.10 C 20.00 12.61 18.39 12.20 16.43 12.20 C 14.47 12.20 12.66 12.00 12.42 11.75 C 11.19 10.52 43.59 10.01 53.50 11.11 C 54.05 11.17 57.20 10.90 60.50 10.51 C 63.80 10.12 73.14 9.73 81.25 9.65 C 91.94 9.54 96.00 9.17 96.00 8.30 C 96.00 7.13 63.97 7.22 33.50 8.48 C 27.45 8.73 18.37 8.95 13.33 8.97 L 4.16 9.00 L 4.05 27.03 L 3.93 45.06 L 6.47 44.42 C 8.53 43.90 9.00 44.15 9.00 45.73 C 9.00 46.84 7.92 48.17 6.50 48.82 C 4.17 49.88 4.00 50.45 4.00 57.11 C 4.00 65.52 5.62 68.80 12.82 74.98 L 17.50 78.99 L 10.75 78.99 L 4.00 79.00 L 4.00 87.00 L 4.00 95.00 L 7.75 95.00 C 9.81 95.00 17.43 94.54 24.68 93.99 Z M 95.68 90.81 C 95.36 90.01 95.13 90.25 95.08 91.42 C 95.04 92.47 95.27 93.06 95.60 92.73 C 95.94 92.40 95.97 91.53 95.68 90.81 Z M 6.61 87.42 C 5.69 85.02 5.72 85.00 10.00 85.00 C 13.33 85.00 14.00 85.33 14.00 87.00 C 14.00 88.61 13.33 89.00 10.61 89.00 C 8.44 89.00 7.00 88.43 6.61 87.42 Z M 20.64 88.31 C 20.29 87.95 20.00 86.84 20.00 85.83 C 20.00 84.54 20.74 84.00 22.50 84.00 C 24.06 84.00 25.00 84.57 25.00 85.50 C 25.00 86.33 25.11 87.29 25.25 87.65 C 25.59 88.53 21.45 89.11 20.64 88.31 Z M 95.68 86.81 C 95.36 86.01 95.13 86.25 95.08 87.42 C 95.04 88.47 95.27 89.06 95.60 88.73 C 95.94 88.40 95.97 87.53 95.68 86.81 Z M 32.05 86.65 C 30.08 84.68 30.93 83.00 33.89 83.00 C 36.29 83.00 38.00 84.44 38.00 86.47 C 38.00 87.38 32.94 87.54 32.05 86.65 Z M 43.64 84.49 C 42.53 81.61 42.92 81.00 45.89 81.00 C 47.65 81.00 49.03 81.64 49.42 82.64 C 50.18 84.64 50.15 84.67 46.88 85.49 C 44.96 85.98 44.10 85.71 43.64 84.49 Z M 55.01 81.02 C 54.11 79.34 54.32 78.96 56.42 78.43 C 59.23 77.72 61.00 78.51 61.00 80.45 C 61.00 81.70 58.94 83.00 56.95 83.00 C 56.47 83.00 55.59 82.11 55.01 81.02 Z M 95.71 75.76 C 95.47 74.52 95.26 75.30 95.25 77.50 C 95.24 79.70 95.44 80.72 95.69 79.76 C 95.94 78.81 95.95 77.01 95.71 75.76 Z M 65.94 77.42 C 64.85 76.12 64.87 75.69 66.06 74.94 C 68.11 73.64 69.58 73.79 70.94 75.43 C 71.89 76.57 71.73 77.08 70.13 77.93 C 67.56 79.30 67.49 79.29 65.94 77.42 Z M 34.00 76.00 C 34.00 75.45 34.87 75.00 35.94 75.00 C 37.01 75.00 38.16 75.45 38.50 76.00 C 38.85 76.57 38.01 77.00 36.56 77.00 C 35.15 77.00 34.00 76.55 34.00 76.00 Z M 23.75 74.80 C 20.41 73.62 20.36 73.01 23.46 70.76 C 27.45 67.86 30.70 70.47 27.75 74.19 C 26.78 75.42 25.89 75.56 23.75 74.80 Z M 35.92 67.89 C 28.54 64.15 21.56 59.91 20.40 58.47 C 19.25 57.03 17.24 52.44 15.93 48.28 C 14.08 42.37 12.61 39.77 9.23 36.39 C 5.07 32.23 4.99 32.04 7.20 31.49 C 10.89 30.58 42.80 32.76 51.00 34.47 C 66.58 37.74 74.00 43.77 74.00 53.17 C 74.00 61.50 70.83 65.98 62.00 70.13 C 50.66 75.46 50.89 75.48 35.92 67.89 Z M 74.56 71.09 C 73.98 70.16 74.84 67.00 75.67 67.00 C 75.93 67.00 77.03 67.48 78.13 68.07 C 79.73 68.92 79.89 69.43 78.94 70.57 C 77.60 72.19 75.40 72.45 74.56 71.09 Z M 13.67 68.33 C 12.41 67.08 13.00 64.21 14.64 63.58 C 15.57 63.23 17.10 63.68 18.14 64.62 C 19.88 66.20 19.89 66.36 18.24 67.61 C 16.31 69.08 14.67 69.34 13.67 68.33 Z M 80.74 62.87 C 78.22 61.46 78.61 60.00 81.50 60.00 C 84.08 60.00 84.51 60.66 83.22 62.67 C 82.71 63.48 81.93 63.54 80.74 62.87 Z M 95.66 58.75 C 95.38 58.06 95.16 58.62 95.16 60.00 C 95.16 61.38 95.38 61.94 95.66 61.25 C 95.94 60.56 95.94 59.44 95.66 58.75 Z M 8.20 58.80 C 5.89 56.49 7.34 53.00 10.61 53.00 C 11.76 53.00 12.68 57.61 11.76 58.75 C 10.50 60.31 9.72 60.32 8.20 58.80 Z M 95.72 47.75 C 95.50 45.96 95.32 47.42 95.32 51.00 C 95.32 54.58 95.50 56.04 95.72 54.25 C 95.95 52.46 95.95 49.54 95.72 47.75 Z M 80.00 52.62 C 80.00 51.20 83.44 49.77 84.44 50.78 C 85.86 52.20 84.78 54.00 82.50 54.00 C 81.04 54.00 80.00 53.43 80.00 52.62 Z M 78.57 45.23 C 77.75 44.42 80.03 42.00 81.62 42.00 C 83.73 42.00 83.26 44.70 81.06 45.27 C 79.99 45.55 78.87 45.54 78.57 45.23 Z M 74.02 37.75 C 74.02 37.06 74.47 35.83 75.02 35.00 C 75.88 33.69 76.12 33.68 76.94 34.97 C 77.55 35.91 77.50 36.89 76.82 37.72 C 75.46 39.35 74.00 39.37 74.02 37.75 Z M 95.88 24.75 C 95.78 15.15 95.64 14.23 94.93 18.50 C 94.47 21.25 94.26 24.40 94.47 25.50 C 94.68 26.60 94.88 29.41 94.93 31.75 C 94.97 34.09 95.22 36.00 95.50 36.00 C 95.78 36.00 95.95 30.94 95.88 24.75 Z M 66.02 32.75 C 66.02 32.06 66.45 30.83 66.97 30.01 C 68.21 28.06 70.54 30.16 69.66 32.43 C 68.95 34.29 65.99 34.55 66.02 32.75 Z M 55.00 27.50 C 55.00 24.75 55.63 24.53 59.42 25.97 C 62.82 27.26 61.79 30.00 57.89 30.00 C 55.47 30.00 55.00 29.59 55.00 27.50 Z M 43.61 26.42 C 42.51 23.55 42.97 22.86 45.75 23.18 C 47.72 23.41 48.59 24.14 48.82 25.75 C 49.08 27.56 48.66 28.00 46.68 28.00 C 45.32 28.00 43.94 27.29 43.61 26.42 Z M 32.75 26.31 C 31.79 26.06 31.00 24.99 31.00 23.93 C 31.00 22.46 31.70 22.00 33.94 22.00 C 37.24 22.00 38.30 23.05 37.40 25.41 C 36.78 27.01 36.00 27.16 32.75 26.31 Z M 6.61 24.42 C 5.48 21.49 5.99 20.87 9.25 21.19 C 11.74 21.43 12.57 22.03 12.82 23.75 C 13.09 25.65 12.68 26.00 10.18 26.00 C 8.40 26.00 6.97 25.37 6.61 24.42 Z M 19.67 25.33 C 18.44 24.11 18.98 21.00 20.42 21.00 C 23.18 21.00 25.00 22.24 25.00 24.11 C 25.00 25.42 24.29 26.00 22.67 26.00 C 21.38 26.00 20.03 25.70 19.67 25.33 Z M 6.26 15.31 C 7.23 15.06 7.77 14.43 7.45 13.92 C 7.14 13.42 7.58 13.00 8.44 13.00 C 9.30 13.00 10.00 13.68 10.00 14.50 C 10.00 15.50 9.08 15.96 7.25 15.88 C 5.54 15.81 5.16 15.59 6.26 15.31 Z M 27.00 13.00 C 27.00 12.45 26.35 12.00 25.56 12.00 C 24.77 12.00 23.84 12.45 23.50 13.00 C 23.16 13.55 23.81 14.00 24.94 14.00 C 26.07 14.00 27.00 13.55 27.00 13.00 Z M 7.75 11.34 C 8.44 11.06 9.56 11.06 10.25 11.34 C 10.94 11.62 10.38 11.84 9.00 11.84 C 7.62 11.84 7.06 11.62 7.75 11.34 Z" fill="none" stroke="rgba(255,255,255,0.92)" stroke-width="1.2" stroke-linejoin="round" fill-rule="evenodd"/>
</svg>
