<svg xmlns="http://www.w3.org/2000/svg" viewBox="0 0 100 100" width="100" height="100">
  <path d="M 0.00 50.00 L 0.00 0.00 L 50.00 0.00 L 100.00 0.00 L 100.00 50.00 L 100.00 100.00 L 50.00 100.00 L 0.00 100.00 L 0.00 50.00 Z M 95.37 82.72 C 95.21 75.45 94.86 55.10 94.58 37.50 C 94.31 19.90 94.07 5.16 94.04 4.75 C 94.02 4.34 92.31 4.01 90.25 4.02 C 88.19 4.02 87.01 4.36 87.64 4.77 C 89.44 5.93 90.88 91.52 89.13 93.27 C 88.71 93.69 69.38 94.08 46.18 94.13 C 22.98 94.18 4.00 94.60 4.00 95.08 C 4.00 95.55 24.62 95.94 49.83 95.94 L 95.66 95.94 L 95.37 82.72 Z M 92.50 94.00 C 92.16 93.45 92.36 93.00 92.94 93.00 C 93.52 93.00 94.00 93.45 94.00 94.00 C 94.00 94.55 93.80 95.00 93.56 95.00 C 93.32 95.00 92.84 94.55 92.50 94.00 Z M 58.09 90.98 C 67.74 89.15 75.39 83.98 79.09 76.79 C 80.79 73.50 81.00 70.80 81.00 52.79 C 80.99 41.63 80.70 26.09 80.34 18.25 L 79.69 4.00 L 77.02 4.00 L 74.35 4.00 L 74.78 38.25 L 75.21 72.50 L 72.85 76.00 C 71.39 78.18 68.24 80.63 64.50 82.50 C 58.79 85.35 57.89 85.50 46.00 85.50 C 32.11 85.50 26.74 84.33 21.90 80.27 C 15.29 74.70 15.05 73.18 15.02 36.75 L 15.00 4.00 L 9.25 4.15 C 6.09 4.23 4.74 4.49 6.25 4.72 L 9.00 5.13 L 9.00 36.88 C 9.00 74.74 9.28 76.37 17.13 83.43 C 21.81 87.64 25.49 89.31 34.50 91.32 C 38.40 92.19 52.80 91.99 58.09 90.98 Z M 92.08 41.42 C 92.13 40.25 92.36 40.01 92.68 40.81 C 92.97 41.53 92.94 42.40 92.60 42.73 C 92.27 43.06 92.04 42.47 92.08 41.42 Z M 91.08 7.42 C 91.13 6.25 91.36 6.01 91.68 6.81 C 91.97 7.53 91.94 8.40 91.60 8.73 C 91.27 9.06 91.04 8.47 91.08 7.42 Z M 83.73 4.40 C 83.40 4.06 82.53 4.03 81.81 4.32 C 81.01 4.64 81.25 4.87 82.42 4.92 C 83.47 4.96 84.06 4.73 83.73 4.40 Z" fill="none" stroke="rgba(255,255,255,0.92)" stroke-width="1.2" stroke-linejoin="round" fill-rule="evenodd"/>
</svg>
