<svg xmlns="http://www.w3.org/2000/svg" viewBox="0 0 100 100" width="100" height="100">
  <path d="M 0.00 50.00 L 0.00 0.00 L 50.00 0.00 L 100.00 0.00 L 100.00 50.00 L 100.00 100.00 L 50.00 100.00 L 0.00 100.00 L 0.00 50.00 Z M 10.00 93.88 C 10.00 92.84 9.60 92.00 9.12 92.00 C 7.94 92.00 7.04 87.09 8.09 86.44 C 8.54 86.16 8.68 85.32 8.39 84.57 C 8.10 83.82 8.39 82.88 9.04 82.48 C 9.91 81.94 9.86 81.53 8.86 80.88 C 7.73 80.15 7.76 79.83 9.00 79.02 C 10.33 78.14 10.33 78.03 9.00 78.00 C 8.03 77.98 7.89 77.71 8.60 77.23 C 9.86 76.39 10.10 66.82 8.83 67.60 C 8.38 67.89 8.00 67.64 8.00 67.06 C 8.00 66.48 8.45 66.00 9.00 66.00 C 10.86 66.00 10.13 61.01 8.25 60.88 C 6.58 60.77 6.58 60.75 8.25 60.31 C 9.21 60.06 10.00 59.15 10.00 58.29 C 10.00 57.43 9.21 56.12 8.25 55.39 C 6.58 54.13 6.58 54.06 8.25 54.03 C 9.62 54.01 10.00 53.13 10.00 50.00 C 10.00 47.56 9.53 46.00 8.80 46.00 C 7.87 46.00 7.87 45.73 8.80 44.80 C 10.48 43.12 10.30 41.67 8.50 42.36 C 7.48 42.75 7.00 42.31 7.00 40.97 C 7.00 39.89 7.67 39.00 8.50 39.00 C 10.45 39.00 10.45 36.39 8.50 35.64 C 7.67 35.32 7.00 34.61 7.00 34.06 C 7.00 33.51 7.68 33.32 8.50 33.64 C 9.33 33.95 10.00 33.76 10.00 33.21 C 10.00 32.66 9.43 31.99 8.73 31.73 C 8.03 31.46 7.36 30.08 7.24 28.66 C 7.07 26.58 7.37 26.20 8.76 26.72 C 10.19 27.26 10.29 27.11 9.31 25.90 C 8.57 25.00 8.45 23.89 8.99 23.01 C 9.47 22.23 9.60 21.15 9.26 20.61 C 8.93 20.07 8.31 20.50 7.90 21.57 C 7.20 23.34 7.13 23.32 7.07 21.25 C 7.03 20.01 7.44 19.00 7.97 19.00 C 8.50 19.00 8.68 18.32 8.36 17.50 C 8.05 16.68 8.28 16.00 8.89 16.00 C 9.50 16.00 10.00 14.88 10.00 13.50 C 10.00 12.12 9.49 11.00 8.88 11.00 C 8.09 11.00 8.11 10.57 8.96 9.54 C 9.63 8.74 9.83 7.54 9.42 6.87 C 8.89 6.02 9.21 5.87 10.51 6.36 C 11.51 6.75 12.60 6.64 12.93 6.12 C 13.28 5.55 14.17 5.65 15.16 6.38 C 16.64 7.46 16.84 11.90 17.08 49.54 C 17.22 72.62 17.54 92.51 17.78 93.75 C 18.11 95.46 18.91 96.00 21.11 96.00 C 23.91 96.00 24.00 95.85 24.00 91.00 L 24.00 86.00 L 55.50 86.00 L 87.00 86.00 L 87.00 91.00 C 87.00 95.90 87.06 96.00 90.03 96.00 L 93.06 96.00 L 92.96 50.00 L 92.86 4.00 L 89.52 4.00 C 86.22 4.00 86.18 4.05 86.25 8.51 C 86.29 10.99 86.13 13.18 85.91 13.38 C 85.68 13.58 71.44 13.97 54.25 14.27 L 23.00 14.79 L 23.00 10.49 L 23.00 6.19 L 26.94 6.72 C 31.09 7.27 36.00 6.47 36.00 5.23 C 36.00 4.83 29.14 4.50 20.75 4.50 L 5.50 4.50 L 5.50 50.12 L 5.50 95.75 L 7.75 95.75 C 9.28 95.75 10.00 95.15 10.00 93.88 Z M 10.50 88.00 C 10.84 87.45 10.64 87.00 10.06 87.00 C 9.48 87.00 9.00 87.45 9.00 88.00 C 9.00 88.55 9.20 89.00 9.44 89.00 C 9.68 89.00 10.16 88.55 10.50 88.00 Z M 23.80 77.25 C 23.55 75.74 23.38 72.70 23.42 70.50 L 23.50 66.50 L 53.89 65.70 C 70.60 65.25 84.89 65.13 85.64 65.41 C 87.72 66.22 87.53 78.58 85.42 79.39 C 84.55 79.73 70.43 80.00 54.04 80.00 L 24.25 80.00 L 23.80 77.25 Z M 23.42 52.29 L 23.50 44.50 L 34.50 43.88 C 40.55 43.53 54.84 43.20 66.25 43.13 L 87.00 43.00 L 87.00 50.86 L 87.00 58.71 L 79.75 59.26 C 75.76 59.56 61.44 59.87 47.92 59.95 L 23.34 60.08 L 23.42 52.29 Z M 23.00 29.73 L 23.00 21.14 L 28.25 20.52 C 31.14 20.18 45.42 20.03 60.00 20.20 L 86.50 20.50 L 86.58 28.75 L 86.66 37.00 L 82.58 37.01 C 80.34 37.01 66.01 37.31 50.75 37.66 L 23.00 38.31 L 23.00 29.73 Z M 7.00 8.00 C 7.00 7.45 7.48 7.00 8.06 7.00 C 8.64 7.00 8.84 7.45 8.50 8.00 C 8.16 8.55 7.68 9.00 7.44 9.00 C 7.20 9.00 7.00 8.55 7.00 8.00 Z M 41.00 6.00 C 41.00 5.45 40.33 5.00 39.50 5.00 C 38.67 5.00 38.00 5.45 38.00 6.00 C 38.00 6.55 38.67 7.00 39.50 7.00 C 40.33 7.00 41.00 6.55 41.00 6.00 Z M 53.25 6.10 C 53.66 6.05 54.00 5.66 54.00 5.24 C 54.00 3.89 43.70 4.40 43.24 5.77 C 42.87 6.89 46.46 7.01 53.25 6.10 Z M 64.45 5.09 C 64.93 4.31 57.94 3.92 56.74 4.66 C 56.31 4.92 56.17 5.47 56.42 5.88 C 56.97 6.76 63.83 6.08 64.45 5.09 Z M 78.00 4.95 C 78.00 3.73 67.30 3.70 66.55 4.92 C 66.23 5.44 68.60 5.85 71.99 5.87 C 75.30 5.88 78.00 5.47 78.00 4.95 Z M 84.50 5.00 C 84.85 4.44 84.03 4.00 82.62 4.00 C 81.24 4.00 79.84 4.45 79.50 5.00 C 79.15 5.56 79.97 6.00 81.38 6.00 C 82.76 6.00 84.16 5.55 84.50 5.00 Z M 96.00 5.00 C 96.00 4.45 95.55 4.00 95.00 4.00 C 94.45 4.00 94.00 4.45 94.00 5.00 C 94.00 5.55 94.45 6.00 95.00 6.00 C 95.55 6.00 96.00 5.55 96.00 5.00 Z" fill="none" stroke="rgba(255,255,255,0.92)" stroke-width="1.2" stroke-linejoin="round" fill-rule="evenodd"/>
</svg>
