<svg xmlns="http://www.w3.org/2000/svg" viewBox="0 0 386 400" width="386" height="400">
  <path d="M 0.00 200.00 L 0.00 0.00 L 193.00 0.00 L 386.00 0.00 L 386.00 200.00 L 386.00 400.00 L 193.00 400.00 L 0.00 400.00 L 0.00 200.00 Z M 36.67 393.67 C 37.02 393.31 37.91 393.51 38.64 394.11 C 39.60 394.91 40.83 394.91 43.13 394.11 C 44.87 393.50 46.79 393.37 47.40 393.83 C 48.00 394.28 68.52 394.62 93.00 394.58 L 137.50 394.50 L 137.52 386.00 C 137.55 375.71 137.24 374.29 135.46 376.72 C 134.75 377.70 133.87 378.20 133.50 377.83 C 132.68 377.01 134.81 372.88 136.83 371.39 C 138.47 370.18 137.69 366.46 136.01 367.50 C 135.45 367.84 135.00 367.90 135.00 367.64 C 135.00 367.38 134.72 366.45 134.39 365.57 C 133.94 364.40 134.21 364.14 135.39 364.60 C 136.49 365.02 137.05 364.63 137.16 363.36 C 137.48 359.52 136.85 356.47 135.54 355.46 C 133.87 354.17 133.14 351.13 134.50 351.13 C 135.05 351.13 135.38 351.74 135.22 352.49 C 135.07 353.24 135.41 354.13 135.97 354.48 C 136.61 354.88 137.00 353.58 137.00 351.06 C 137.00 348.12 136.59 347.00 135.50 347.00 C 134.68 347.00 134.00 346.56 134.00 346.03 C 134.00 345.50 134.68 345.32 135.50 345.64 C 136.76 346.12 137.00 344.90 137.00 338.05 C 137.00 333.11 136.62 330.12 136.04 330.47 C 135.52 330.80 135.32 331.68 135.61 332.43 C 135.90 333.18 135.66 334.09 135.07 334.46 C 134.40 334.87 134.00 333.97 134.00 332.06 C 134.00 330.01 134.49 329.00 135.50 329.00 C 137.61 329.00 137.38 327.03 135.25 326.88 C 133.74 326.78 133.72 326.71 135.13 326.33 C 137.39 325.73 137.69 312.00 135.45 312.00 C 134.65 312.00 134.00 311.56 134.00 311.03 C 134.00 310.50 134.64 310.31 135.41 310.60 C 137.39 311.37 137.54 309.84 137.20 291.97 C 136.92 276.90 136.82 276.23 134.95 276.72 C 133.76 277.03 133.00 276.73 133.00 275.95 C 133.00 275.24 133.30 274.96 133.66 275.32 C 135.42 277.09 137.00 273.38 137.00 267.46 C 137.00 259.68 135.89 256.00 134.90 260.50 L 134.24 263.50 L 134.12 260.36 C 134.05 258.62 134.58 256.99 135.28 256.72 C 136.90 256.10 137.57 195.47 135.97 194.48 C 135.43 194.15 134.72 194.58 134.39 195.44 C 133.47 197.82 131.82 197.30 132.18 194.75 C 132.39 193.27 133.19 192.50 134.50 192.50 C 136.31 192.50 136.51 191.79 136.61 185.17 C 136.70 179.14 136.40 177.64 134.93 176.73 C 133.33 175.72 133.31 175.50 134.72 174.46 C 135.59 173.83 136.42 172.17 136.57 170.78 C 136.81 168.52 136.49 168.26 133.74 168.40 C 132.04 168.48 130.47 169.10 130.24 169.78 C 129.99 170.54 130.42 170.77 131.42 170.39 C 132.61 169.94 133.00 170.43 133.00 172.39 C 133.00 174.11 132.46 175.00 131.41 175.00 C 130.12 175.00 129.93 175.78 130.40 179.16 C 131.10 184.15 131.60 184.84 132.48 182.08 C 133.38 179.24 135.39 179.40 134.63 182.25 C 134.30 183.49 134.02 185.99 134.01 187.81 C 134.01 189.66 133.58 190.86 133.04 190.53 C 132.52 190.20 132.36 189.21 132.70 188.33 C 133.12 187.24 132.87 186.88 131.91 187.20 C 129.89 187.87 129.89 199.63 131.91 199.20 C 132.68 199.03 133.65 199.44 134.06 200.10 C 135.20 201.95 134.36 213.04 132.99 214.35 C 132.05 215.24 131.92 215.01 132.43 213.33 C 132.79 212.14 132.61 210.88 132.04 210.53 C 130.98 209.87 130.93 210.28 130.81 220.69 C 130.76 225.37 131.09 226.52 132.62 227.12 C 134.01 227.67 134.10 227.88 132.95 227.93 C 131.86 227.98 131.40 229.04 131.40 231.53 C 131.40 233.97 131.79 234.91 132.67 234.57 C 133.37 234.31 134.18 234.49 134.48 234.97 C 134.78 235.46 134.16 236.13 133.11 236.47 C 131.35 237.02 131.19 238.09 131.24 249.06 C 131.27 255.65 131.01 261.33 130.66 261.68 C 130.30 262.03 130.58 263.00 131.26 263.83 C 132.33 265.14 132.15 265.24 130.00 264.59 C 126.60 263.55 121.91 263.83 120.32 265.15 C 119.32 265.98 119.00 265.86 119.00 264.68 C 119.00 263.82 119.44 262.84 119.99 262.51 C 120.63 262.11 120.76 239.78 120.35 198.54 L 119.73 135.17 L 123.62 131.34 C 125.75 129.23 128.00 126.60 128.61 125.50 C 129.69 123.55 131.02 123.49 181.61 123.00 L 233.50 122.50 L 238.47 119.43 C 244.41 115.77 252.03 106.24 254.00 100.00 C 254.78 97.53 255.83 95.21 256.34 94.86 C 257.50 94.06 257.90 76.13 256.99 65.50 C 256.62 61.10 256.61 56.60 256.98 55.50 C 257.90 52.70 257.13 50.01 255.57 50.61 C 254.40 51.06 253.52 49.52 252.47 45.17 C 252.30 44.43 251.52 43.31 250.75 42.67 C 249.98 42.02 247.89 39.60 246.12 37.28 C 243.99 34.51 240.70 32.00 236.48 29.92 L 230.08 26.76 L 184.54 27.39 C 137.62 28.04 128.00 27.70 128.00 25.43 C 128.00 24.72 126.48 22.54 124.63 20.57 C 121.89 17.66 120.54 17.00 117.35 17.00 C 115.20 17.00 112.50 17.66 111.35 18.47 C 109.61 19.69 102.85 19.97 71.38 20.12 C 37.90 20.28 33.15 20.11 30.50 18.66 C 26.75 16.60 24.71 16.58 20.87 18.57 C 17.90 20.10 15.00 25.13 15.00 28.76 C 15.00 29.76 15.90 32.34 17.00 34.50 C 18.90 38.22 19.00 40.40 19.00 76.25 C 19.00 112.48 18.91 114.25 16.94 118.12 C 14.42 123.06 15.01 126.80 19.04 131.39 C 20.97 133.59 21.89 135.73 21.90 138.07 C 21.91 139.95 22.20 168.20 22.54 200.83 C 23.13 256.33 23.06 260.28 21.43 262.08 C 20.47 263.13 18.81 264.00 17.74 264.00 C 16.46 264.00 15.97 264.49 16.33 265.42 C 16.69 266.35 15.86 267.20 13.94 267.87 C 11.13 268.85 11.00 268.77 11.00 266.03 C 11.00 264.46 11.56 262.90 12.25 262.58 C 13.22 262.13 13.19 261.86 12.14 261.38 C 10.99 260.85 10.99 260.62 12.14 259.89 C 12.93 259.39 13.03 259.02 12.38 259.02 C 11.19 259.00 11.30 245.79 12.51 241.97 C 12.89 240.78 12.67 240.00 11.98 240.00 C 10.74 240.00 11.17 223.60 12.53 219.25 C 13.06 217.55 12.83 217.00 11.62 217.00 C 9.52 217.00 9.57 216.05 11.75 214.39 C 12.85 213.56 13.03 213.05 12.23 213.03 C 11.38 213.01 11.17 212.18 11.59 210.50 C 12.00 208.85 11.80 208.00 10.99 208.00 C 10.13 208.00 10.06 207.62 10.77 206.75 C 11.39 205.99 11.49 203.61 11.04 200.66 C 10.63 198.00 10.67 193.79 11.14 191.30 C 11.60 188.81 11.74 186.38 11.44 185.90 C 11.14 185.42 11.33 183.45 11.87 181.52 C 12.50 179.22 12.49 177.80 11.84 177.40 C 11.24 177.03 11.11 174.82 11.51 171.89 C 11.97 168.61 11.83 167.00 11.09 167.00 C 9.78 167.00 9.61 161.36 10.90 160.56 C 11.40 160.26 11.80 158.47 11.80 156.60 C 11.80 154.72 12.06 151.68 12.39 149.84 C 12.71 148.00 12.72 147.06 12.40 147.75 C 11.19 150.40 10.50 148.78 10.58 143.47 C 10.62 140.43 11.19 137.41 11.83 136.77 C 12.47 136.13 13.00 134.96 13.00 134.18 C 13.00 133.05 12.70 133.01 11.56 133.95 C 10.31 134.98 10.12 132.71 10.10 117.19 C 10.09 107.31 10.01 98.84 9.92 98.37 C 9.83 97.89 9.82 90.36 9.88 81.63 C 9.99 67.64 10.18 65.90 11.50 67.00 C 12.77 68.05 13.00 67.83 13.00 65.52 C 13.00 63.50 12.61 62.94 11.50 63.36 C 9.32 64.20 9.66 61.74 12.00 59.73 C 14.15 57.89 14.61 55.50 13.00 54.50 C 12.45 54.16 12.00 54.81 12.00 55.94 C 12.00 57.07 11.55 58.00 11.00 58.00 C 10.45 58.00 10.01 56.31 10.02 54.25 C 10.03 51.55 10.29 50.91 10.96 51.97 C 11.47 52.78 12.17 53.16 12.52 52.82 C 13.37 51.97 14.00 39.05 13.32 36.26 C 12.37 32.28 11.27 34.79 11.76 39.84 C 12.04 42.76 11.80 45.01 11.15 45.40 C 10.41 45.87 10.07 41.35 10.06 30.53 C 10.04 17.20 10.26 15.00 11.58 15.00 C 12.48 15.00 12.82 15.47 12.41 16.14 C 11.24 18.04 10.98 22.87 12.02 23.52 C 12.97 24.10 13.16 23.32 13.39 18.00 C 13.51 15.34 12.92 15.48 25.50 15.07 C 29.77 14.93 31.56 14.94 40.00 15.11 C 63.39 15.59 86.93 15.13 88.62 14.18 C 90.06 13.36 88.51 13.12 82.00 13.15 C 58.07 13.27 49.00 12.72 49.00 11.14 C 49.00 10.62 66.68 10.45 79.50 10.85 C 81.15 10.90 83.85 10.89 85.50 10.83 C 87.15 10.78 90.75 10.80 93.50 10.90 C 96.25 10.99 101.31 10.90 104.75 10.70 C 108.19 10.49 111.00 10.69 111.00 11.13 C 111.00 11.58 111.75 11.65 112.66 11.30 C 113.69 10.91 114.08 11.06 113.68 11.70 C 113.33 12.27 111.65 13.02 109.95 13.36 C 108.26 13.70 107.12 14.38 107.43 14.88 C 107.74 15.39 109.51 15.45 111.44 15.01 C 113.33 14.59 117.88 14.39 121.54 14.59 C 127.36 14.89 128.27 14.70 128.69 13.07 C 129.15 11.32 133.01 9.90 136.88 10.07 C 138.12 10.12 138.03 10.34 136.50 11.00 C 135.40 11.47 135.06 11.89 135.75 11.93 C 137.47 12.03 137.34 14.00 135.61 14.00 C 134.84 14.00 133.93 14.74 133.58 15.64 C 132.65 18.07 133.82 18.63 135.37 16.51 C 136.64 14.78 139.00 14.65 173.11 14.48 C 193.12 14.38 209.95 14.18 210.50 14.03 C 211.05 13.88 211.95 13.86 212.50 13.99 C 214.49 14.43 243.56 14.03 246.00 13.52 C 250.87 12.51 251.36 13.80 251.12 26.79 C 250.94 36.32 251.20 39.06 252.40 40.26 C 253.23 41.09 253.66 42.01 253.35 42.31 C 253.05 42.62 253.17 43.46 253.62 44.18 C 254.07 44.91 254.54 46.10 254.65 46.84 C 254.76 47.58 255.08 48.41 255.36 48.69 C 257.02 50.35 257.51 46.43 257.45 32.05 C 257.40 19.71 257.70 15.67 258.73 14.81 C 260.24 13.55 372.02 12.78 374.02 14.01 C 374.86 14.53 374.89 15.74 374.12 18.52 C 373.55 20.60 373.37 22.78 373.72 23.36 C 374.56 24.72 374.40 44.54 373.54 45.93 C 373.18 46.52 373.19 47.50 373.57 48.11 C 374.41 49.48 374.51 127.82 373.67 128.66 C 373.34 128.99 373.52 130.10 374.07 131.13 C 374.96 132.79 374.65 133.02 371.29 133.15 C 366.21 133.35 323.01 133.79 288.63 133.99 L 260.76 134.15 L 258.33 136.58 C 255.37 139.54 253.15 139.83 255.88 136.90 C 257.69 134.96 257.84 133.29 257.82 115.80 C 257.81 105.35 257.43 97.18 256.97 97.65 C 256.51 98.12 255.99 99.85 255.82 101.50 C 255.64 103.15 254.77 105.05 253.88 105.72 C 252.00 107.13 250.80 117.24 252.10 120.71 C 252.60 122.07 252.52 123.18 251.88 123.57 C 251.24 123.97 251.10 126.07 251.51 129.11 L 252.19 134.00 L 248.84 134.12 C 247.00 134.18 222.03 134.38 193.35 134.55 C 160.32 134.75 139.74 135.26 137.21 135.94 C 134.90 136.57 132.54 138.05 131.61 139.47 C 129.58 142.57 129.55 143.62 131.52 141.98 C 132.36 141.28 133.37 141.05 133.77 141.47 C 134.17 141.88 133.49 142.90 132.25 143.73 C 130.12 145.16 129.13 147.99 130.75 148.00 C 131.16 148.01 131.58 149.58 131.68 151.50 C 131.78 153.43 131.52 155.00 131.10 155.00 C 130.15 155.00 130.31 161.64 131.28 162.61 C 131.66 163.00 131.47 163.93 130.85 164.68 C 128.57 167.42 131.06 167.23 133.62 164.47 C 136.37 161.50 136.74 158.25 135.74 146.00 L 135.37 141.50 L 209.94 141.38 C 250.95 141.31 306.07 141.09 332.43 140.88 L 380.37 140.50 L 380.38 73.50 L 380.39 6.50 L 319.94 6.50 C 286.70 6.50 258.04 6.79 256.24 7.15 C 254.45 7.50 252.72 7.36 252.39 6.83 C 252.07 6.30 251.06 6.17 250.15 6.54 C 248.64 7.15 166.79 7.78 55.50 8.04 C 31.30 8.09 10.45 8.39 9.17 8.70 L 6.83 9.26 L 7.44 106.88 C 7.78 160.57 8.29 229.02 8.58 259.00 C 8.87 288.98 9.02 314.40 8.91 315.50 C 8.81 316.60 8.79 320.43 8.87 324.00 C 8.95 327.57 9.17 344.68 9.36 362.00 C 9.55 379.32 9.77 393.81 9.85 394.19 C 10.04 395.06 35.78 394.55 36.67 393.67 Z M 117.00 391.50 C 117.00 390.68 117.44 390.00 117.97 390.00 C 118.50 390.00 118.68 390.68 118.36 391.50 C 118.05 392.32 117.61 393.00 117.39 393.00 C 117.18 393.00 117.00 392.32 117.00 391.50 Z M 13.39 390.43 C 13.72 389.56 13.51 387.95 12.92 386.85 C 12.02 385.18 12.20 384.76 13.98 384.29 C 15.33 383.94 15.91 383.20 15.56 382.29 C 15.25 381.49 14.99 380.09 14.98 379.17 C 14.97 377.72 14.84 377.70 13.99 379.00 C 13.30 380.07 13.07 379.06 13.19 375.50 C 13.28 372.75 13.02 369.49 12.61 368.25 C 11.99 366.39 12.23 366.00 13.99 366.00 C 15.25 366.00 15.85 365.56 15.46 364.93 C 15.09 364.34 14.17 364.11 13.40 364.40 C 12.59 364.71 12.00 364.32 12.00 363.47 C 12.00 362.66 12.50 362.00 13.11 362.00 C 13.72 362.00 13.97 361.36 13.67 360.58 C 13.37 359.80 13.77 358.92 14.56 358.61 C 16.49 357.87 16.40 356.00 14.43 356.00 C 13.32 356.00 13.05 355.42 13.50 354.00 C 13.86 352.85 13.68 352.00 13.07 352.00 C 12.48 352.00 12.00 351.32 12.00 350.50 C 12.00 349.68 12.45 349.00 13.00 349.00 C 13.55 349.00 14.00 349.53 14.00 350.17 C 14.00 350.81 14.28 351.05 14.63 350.71 C 15.10 350.23 15.37 335.63 15.04 328.75 C 15.02 328.34 14.44 328.11 13.75 328.25 C 12.96 328.41 12.38 327.05 12.18 324.57 C 11.88 320.94 11.99 320.75 13.59 322.07 C 15.20 323.40 15.28 323.19 14.73 319.06 C 14.40 316.61 14.57 313.80 15.10 312.81 C 15.84 311.43 15.71 311.00 14.54 311.00 C 13.69 311.00 13.00 310.59 13.00 310.08 C 13.00 309.58 12.75 308.51 12.44 307.71 C 12.10 306.81 12.66 306.06 13.94 305.73 C 16.09 305.16 16.73 302.57 15.00 301.50 C 14.45 301.16 14.00 301.81 14.00 302.94 C 14.00 304.07 13.55 305.00 13.00 305.00 C 11.41 305.00 11.84 299.37 13.55 297.96 C 14.79 296.93 14.84 296.50 13.80 295.76 C 12.74 295.02 12.74 294.75 13.79 294.33 C 14.78 293.93 14.81 293.48 13.93 292.42 C 13.30 291.65 13.06 290.29 13.41 289.39 C 13.75 288.48 13.52 287.13 12.89 286.37 C 12.01 285.30 12.12 285.00 13.38 285.00 C 15.11 285.00 15.37 284.12 14.40 281.59 C 14.06 280.72 13.39 280.26 12.90 280.56 C 12.40 280.87 11.93 280.19 11.85 279.06 C 11.77 277.93 11.65 276.44 11.60 275.75 C 11.54 275.06 12.12 274.63 12.87 274.79 C 13.85 275.00 14.07 274.40 13.63 272.67 C 13.08 270.47 13.40 270.19 17.26 269.53 C 19.59 269.14 32.98 268.71 47.00 268.58 C 61.02 268.46 73.85 268.02 75.50 267.60 C 77.58 267.07 78.07 267.14 77.09 267.83 C 76.12 268.51 78.44 268.81 84.59 268.82 C 89.49 268.82 100.60 268.88 109.28 268.95 C 117.96 269.02 125.39 268.89 125.78 268.66 C 126.18 268.43 127.44 268.59 128.59 269.03 C 130.68 269.82 130.68 269.90 130.73 328.42 C 130.75 360.65 130.45 387.22 130.06 387.46 C 129.66 387.71 122.40 387.99 113.92 388.10 C 105.44 388.20 97.49 388.66 96.25 389.12 C 95.01 389.58 94.00 389.59 94.00 389.16 C 94.00 388.03 74.09 387.82 70.50 388.91 L 67.50 389.83 L 70.50 389.94 C 73.02 390.04 73.22 390.22 71.76 391.07 C 69.77 392.23 65.56 390.52 66.53 388.95 C 67.19 387.88 64.63 387.72 61.26 388.63 C 60.03 388.96 59.27 389.63 59.57 390.11 C 59.87 390.60 59.42 391.00 58.56 391.00 C 56.81 391.00 56.43 389.36 58.04 388.82 C 59.05 388.48 36.39 388.50 34.63 388.83 C 34.15 388.93 34.37 389.75 35.13 390.67 C 36.36 392.18 36.24 392.28 34.00 391.69 C 32.62 391.32 31.05 391.01 30.50 390.98 C 29.95 390.95 30.62 390.29 32.00 389.50 C 34.32 388.18 34.04 388.10 28.00 388.43 C 18.71 388.93 18.83 388.91 19.44 389.90 C 20.08 390.93 17.74 392.00 14.81 392.00 C 13.38 392.00 12.96 391.54 13.39 390.43 Z M 75.50 391.00 C 73.83 390.28 74.05 390.13 76.81 390.07 C 78.78 390.03 79.87 390.41 79.50 391.00 C 78.78 392.17 78.21 392.17 75.50 391.00 Z M 92.00 391.00 C 90.72 390.17 90.75 390.03 92.25 390.02 C 93.21 390.01 94.00 390.45 94.00 391.00 C 94.00 392.22 93.89 392.22 92.00 391.00 Z M 95.00 391.00 C 95.00 390.45 95.93 390.00 97.06 390.00 C 98.19 390.00 98.84 390.45 98.50 391.00 C 98.16 391.55 97.23 392.00 96.44 392.00 C 95.65 392.00 95.00 391.55 95.00 391.00 Z M 101.50 391.00 C 101.84 390.45 102.32 390.00 102.56 390.00 C 102.80 390.00 103.00 390.45 103.00 391.00 C 103.00 391.55 102.52 392.00 101.94 392.00 C 101.36 392.00 101.16 391.55 101.50 391.00 Z M 84.75 390.34 C 85.44 390.06 86.56 390.06 87.25 390.34 C 87.94 390.62 87.38 390.84 86.00 390.84 C 84.62 390.84 84.06 390.62 84.75 390.34 Z M 134.00 360.56 C 134.00 359.70 134.45 359.00 135.00 359.00 C 135.55 359.00 136.00 359.42 136.00 359.94 C 136.00 360.46 135.55 361.16 135.00 361.50 C 134.45 361.84 134.00 361.42 134.00 360.56 Z M 277.12 353.63 C 277.86 352.01 277.93 347.79 277.35 340.38 L 276.50 329.50 L 272.00 329.26 C 269.52 329.13 264.80 329.58 261.50 330.26 L 255.50 331.50 L 255.73 342.90 C 255.86 349.17 256.22 354.55 256.53 354.86 C 257.66 356.00 260.51 353.22 261.00 350.50 C 261.40 348.25 262.31 347.48 265.70 346.48 C 270.53 345.05 271.00 345.29 271.00 349.17 C 271.00 351.02 270.48 352.00 269.50 352.00 C 267.07 352.00 267.78 353.53 270.75 354.70 C 274.96 356.37 275.95 356.20 277.12 353.63 Z M 243.22 353.25 C 244.55 351.73 249.00 342.54 249.00 341.31 C 249.00 341.06 247.77 341.01 246.26 341.18 C 243.40 341.51 239.94 346.50 238.60 352.25 C 238.08 354.50 238.30 355.00 239.83 355.00 C 240.85 355.00 242.38 354.21 243.22 353.25 Z M 328.64 351.77 C 329.06 351.09 329.27 346.79 329.11 342.20 L 328.83 333.85 L 331.66 334.18 C 334.18 334.46 334.59 335.02 335.35 339.25 C 336.43 345.16 335.71 347.36 333.00 346.50 C 330.65 345.75 330.26 347.50 332.58 348.39 C 333.45 348.73 335.68 349.00 337.53 349.00 C 342.04 349.00 344.00 346.07 344.00 339.35 C 344.00 331.95 342.46 330.68 334.51 331.54 L 328.28 332.20 L 327.74 327.35 C 327.19 322.53 328.07 320.71 330.49 321.63 C 332.00 322.22 337.24 320.22 338.21 318.69 C 339.47 316.71 339.09 311.32 337.61 310.09 C 336.73 309.36 334.68 309.19 332.00 309.62 L 327.78 310.29 L 330.89 306.00 C 334.64 300.82 334.73 300.00 331.57 300.00 C 329.25 300.00 325.00 304.41 325.00 306.82 C 325.00 308.61 318.91 313.00 316.42 313.00 C 315.09 313.00 314.00 313.50 314.00 314.11 C 314.00 314.84 315.21 315.00 317.50 314.57 L 321.00 313.91 L 321.00 317.95 C 321.00 321.57 320.73 322.01 318.50 322.12 C 312.91 322.40 313.10 321.94 314.49 332.25 C 314.99 336.01 315.52 337.00 317.00 337.00 C 318.04 337.00 319.16 336.55 319.50 336.00 C 320.33 334.65 322.00 334.73 322.00 336.11 C 322.00 336.72 319.72 340.36 316.92 344.20 C 314.13 348.04 312.04 351.38 312.28 351.61 C 313.29 352.63 315.93 350.60 319.10 346.37 C 322.32 342.07 322.52 341.96 323.15 344.17 C 323.51 345.45 323.85 347.70 323.90 349.17 C 324.03 352.53 327.12 354.23 328.64 351.77 Z M 304.00 349.50 C 304.90 348.42 305.06 345.46 304.61 338.75 C 304.26 333.66 304.38 326.80 304.87 323.50 C 305.38 320.06 305.38 317.36 304.88 317.17 C 304.40 316.98 304.00 315.35 304.00 313.54 C 304.00 307.70 302.87 304.00 301.08 304.00 C 298.06 304.00 297.00 306.26 297.00 312.70 L 297.00 319.00 L 294.06 319.00 C 292.44 319.00 290.84 319.45 290.50 320.00 C 290.13 320.60 291.32 321.00 293.44 321.00 C 296.86 321.00 297.00 321.14 297.00 324.59 C 297.00 327.96 291.19 340.14 288.92 341.55 C 287.50 342.42 287.83 344.00 289.43 344.00 C 290.21 344.00 292.17 342.40 293.78 340.45 L 296.71 336.89 L 297.26 342.88 C 297.55 346.17 298.10 349.34 298.46 349.93 C 299.42 351.48 302.56 351.24 304.00 349.50 Z M 12.00 346.06 C 12.00 344.93 12.45 344.00 13.00 344.00 C 13.55 344.00 14.00 344.65 14.00 345.44 C 14.00 346.23 13.55 347.16 13.00 347.50 C 12.45 347.84 12.00 347.19 12.00 346.06 Z M 261.00 342.50 C 261.00 340.58 261.52 340.00 263.25 339.99 C 264.49 339.98 266.51 339.70 267.75 339.37 C 269.54 338.89 270.00 339.18 270.00 340.79 C 270.00 342.15 268.98 343.16 266.85 343.90 C 262.13 345.55 261.00 345.28 261.00 342.50 Z M 12.00 337.94 C 12.00 335.71 12.40 334.13 12.90 334.44 C 13.40 334.74 13.80 336.57 13.80 338.50 C 13.80 340.42 13.40 342.00 12.90 342.00 C 12.40 342.00 12.00 340.17 12.00 337.94 Z M 311.80 333.75 C 311.54 329.27 311.21 328.50 309.50 328.50 C 307.90 328.50 307.44 329.27 307.18 332.36 C 306.77 337.37 307.47 339.00 310.02 339.00 C 311.91 339.00 312.08 338.50 311.80 333.75 Z M 260.62 335.25 C 260.98 333.74 261.33 332.43 261.39 332.35 C 261.45 332.27 263.30 332.04 265.50 331.85 C 269.17 331.53 269.52 331.71 269.80 334.11 C 270.07 336.43 269.69 336.79 266.30 337.35 C 260.13 338.37 259.89 338.28 260.62 335.25 Z M 253.00 330.29 C 253.00 328.48 253.11 326.97 253.25 326.94 C 253.39 326.90 257.10 326.48 261.50 325.99 C 265.90 325.51 271.45 324.80 273.84 324.41 C 278.17 323.71 278.18 323.72 277.84 326.59 C 277.58 328.79 277.95 329.55 279.43 329.84 C 281.73 330.29 284.00 327.54 284.00 324.31 C 284.00 322.05 283.62 321.86 278.50 321.60 C 276.73 321.51 276.44 320.62 276.00 314.00 L 275.50 306.50 L 271.00 306.58 C 268.52 306.62 263.42 307.00 259.65 307.42 L 252.80 308.18 L 253.15 316.34 C 253.49 324.16 253.41 324.51 251.25 324.82 C 249.39 325.08 249.00 325.77 248.97 328.82 L 248.95 332.50 L 246.22 329.24 C 241.67 323.79 235.76 325.41 240.18 330.90 C 242.23 333.43 243.12 333.76 247.75 333.68 L 253.00 333.59 L 253.00 330.29 Z M 319.64 330.94 C 318.62 325.84 318.86 322.79 320.25 323.24 C 321.75 323.74 322.52 331.88 321.20 333.20 C 320.63 333.77 320.03 332.89 319.64 330.94 Z M 259.00 320.50 C 259.00 318.06 259.45 317.00 260.50 317.00 C 261.32 317.00 262.00 317.86 262.00 318.92 C 262.00 319.97 262.27 321.55 262.61 322.42 C 263.04 323.55 262.62 324.00 261.11 324.00 C 259.37 324.00 259.00 323.39 259.00 320.50 Z M 133.00 322.00 C 133.00 321.45 133.45 321.00 134.00 321.00 C 134.55 321.00 135.00 321.45 135.00 322.00 C 135.00 322.55 134.55 323.00 134.00 323.00 C 133.45 323.00 133.00 322.55 133.00 322.00 Z M 266.50 319.25 C 266.50 315.54 266.45 315.50 262.19 315.19 C 258.16 314.90 257.90 314.70 258.19 312.19 C 258.48 309.71 258.89 309.48 263.62 309.20 L 268.73 308.90 L 269.42 314.97 C 270.12 321.22 269.74 323.00 267.69 323.00 C 266.98 323.00 266.50 321.49 266.50 319.25 Z M 326.52 318.75 C 325.27 315.05 325.58 313.49 327.62 313.20 C 329.12 312.98 329.91 313.56 330.33 315.15 C 331.22 318.54 327.60 321.96 326.52 318.75 Z M 247.39 318.17 C 248.10 317.02 242.97 310.00 241.42 310.00 C 239.25 310.00 237.00 311.17 237.00 312.30 C 237.00 315.88 245.75 320.82 247.39 318.17 Z M 133.64 307.50 C 133.32 306.68 133.50 306.00 134.03 306.00 C 134.56 306.00 135.00 306.68 135.00 307.50 C 135.00 308.32 134.82 309.00 134.61 309.00 C 134.39 309.00 133.95 308.32 133.64 307.50 Z M 323.00 307.33 C 323.00 307.07 321.82 305.32 320.38 303.43 C 317.67 299.88 314.00 298.81 314.00 301.58 C 314.00 303.99 319.57 309.10 321.42 308.39 C 322.29 308.06 323.00 307.58 323.00 307.33 Z M 133.00 298.00 C 133.00 297.45 133.45 297.00 134.00 297.00 C 134.55 297.00 135.00 297.45 135.00 298.00 C 135.00 298.55 134.55 299.00 134.00 299.00 C 133.45 299.00 133.00 298.55 133.00 298.00 Z M 133.00 288.94 C 133.00 288.36 133.45 288.16 134.00 288.50 C 134.55 288.84 135.00 289.32 135.00 289.56 C 135.00 289.80 134.55 290.00 134.00 290.00 C 133.45 290.00 133.00 289.52 133.00 288.94 Z M 134.08 285.42 C 134.13 284.25 134.36 284.01 134.68 284.81 C 134.97 285.53 134.94 286.40 134.60 286.73 C 134.27 287.06 134.04 286.47 134.08 285.42 Z M 278.00 279.50 C 278.00 273.79 277.77 273.00 276.11 273.00 C 273.72 273.00 273.00 274.88 273.00 281.08 C 273.00 285.66 273.17 286.00 275.50 286.00 C 277.91 286.00 278.00 285.77 278.00 279.50 Z M 133.00 270.94 C 133.00 270.36 133.45 270.16 134.00 270.50 C 134.55 270.84 135.00 271.32 135.00 271.56 C 135.00 271.80 134.55 272.00 134.00 272.00 C 133.45 272.00 133.00 271.52 133.00 270.94 Z M 30.50 266.90 C 28.85 266.54 27.89 266.18 28.37 266.12 C 28.85 266.05 28.73 265.38 28.10 264.62 C 27.20 263.54 27.38 263.13 28.93 262.73 C 30.64 262.28 30.95 261.20 31.20 254.86 L 31.50 247.50 L 72.25 247.24 L 113.00 246.98 L 113.00 253.87 C 113.00 259.93 112.72 260.95 110.75 262.23 C 107.52 264.32 103.24 265.22 102.80 263.89 C 102.24 262.21 44.80 262.09 42.77 263.77 C 41.94 264.47 40.63 264.84 39.88 264.60 C 36.21 263.46 32.00 263.15 32.00 264.02 C 32.00 264.56 33.10 265.00 34.44 265.00 C 35.78 265.00 37.13 265.40 37.43 265.89 C 38.19 267.11 34.12 267.71 30.50 266.90 Z M 46.00 266.02 C 46.00 265.45 48.44 265.00 51.50 265.00 C 54.52 265.00 57.00 265.35 57.00 265.79 C 57.00 266.22 54.52 266.67 51.50 266.80 C 48.29 266.93 46.00 266.61 46.00 266.02 Z M 70.26 265.31 C 71.19 264.38 72.23 263.90 72.58 264.24 C 73.56 265.23 72.05 267.00 70.23 267.00 C 68.70 267.00 68.70 266.87 70.26 265.31 Z M 109.00 266.06 C 109.00 265.54 109.45 264.84 110.00 264.50 C 110.55 264.16 111.00 264.58 111.00 265.44 C 111.00 266.30 110.55 267.00 110.00 267.00 C 109.45 267.00 109.00 266.58 109.00 266.06 Z M 112.68 266.34 C 111.88 265.55 113.84 263.00 115.24 263.00 C 115.86 263.00 115.81 263.52 115.13 264.34 C 114.52 265.08 114.31 265.98 114.68 266.34 C 115.04 266.70 114.88 267.00 114.33 267.00 C 113.78 267.00 113.04 266.70 112.68 266.34 Z M 62.81 265.32 C 63.53 265.03 64.40 265.06 64.73 265.40 C 65.06 265.73 64.47 265.96 63.42 265.92 C 62.25 265.87 62.01 265.64 62.81 265.32 Z M 275.42 265.39 C 277.25 264.69 277.44 261.14 275.95 255.75 C 274.82 251.69 274.23 251.34 271.78 253.25 C 270.40 254.32 270.33 255.31 271.25 260.25 C 272.35 266.11 272.64 266.46 275.42 265.39 Z M 133.00 252.44 C 133.00 251.58 133.46 251.16 134.02 251.51 C 134.58 251.86 134.77 252.56 134.46 253.07 C 133.60 254.46 133.00 254.20 133.00 252.44 Z M 271.62 244.54 C 272.18 243.08 268.34 234.33 266.69 233.31 C 266.21 233.01 265.09 233.49 264.20 234.37 C 262.73 235.85 262.79 236.38 265.05 240.97 C 267.51 245.99 270.45 247.59 271.62 244.54 Z M 31.00 229.51 L 31.00 220.00 L 47.75 219.97 C 56.96 219.96 75.43 219.85 88.78 219.72 L 113.07 219.50 L 112.78 229.00 L 112.50 238.50 L 71.75 238.76 L 31.00 239.02 L 31.00 229.51 Z M 261.04 227.45 C 262.13 226.14 261.66 225.32 257.91 221.98 C 253.01 217.62 251.55 217.19 250.15 219.70 C 249.39 221.05 250.06 222.19 253.35 225.16 C 257.98 229.35 259.17 229.70 261.04 227.45 Z M 203.19 220.47 C 203.48 220.18 203.37 218.05 202.94 215.72 C 202.29 212.24 202.49 211.14 204.08 209.44 C 206.70 206.62 206.49 205.00 203.50 205.00 C 201.14 205.00 201.00 204.70 201.00 199.56 C 201.00 196.57 200.66 193.91 200.25 193.65 C 199.34 193.09 165.09 211.18 165.04 212.25 C 165.02 212.66 166.01 213.02 167.25 213.05 C 168.49 213.08 176.25 214.83 184.50 216.95 C 200.02 220.94 202.30 221.37 203.19 220.47 Z M 243.80 215.80 C 245.98 213.62 245.06 212.29 239.86 210.13 C 235.96 208.51 234.39 208.27 233.36 209.12 C 230.98 211.09 231.88 212.58 236.75 214.72 C 242.62 217.29 242.35 217.25 243.80 215.80 Z M 30.94 210.75 C 30.91 210.06 30.67 205.37 30.40 200.33 C 30.14 195.29 30.32 190.92 30.79 190.63 C 31.27 190.34 49.84 190.02 72.08 189.94 C 101.23 189.82 112.47 190.09 112.40 190.89 C 112.34 191.50 112.23 196.50 112.15 202.00 L 112.00 212.00 L 71.50 212.00 C 39.80 212.00 30.99 211.73 30.94 210.75 Z M 225.81 208.31 C 226.07 206.52 225.51 206.00 222.74 205.48 C 220.89 205.13 217.82 204.99 215.93 205.17 C 213.28 205.43 212.50 205.95 212.50 207.50 C 212.50 209.11 213.37 209.62 217.00 210.12 C 223.93 211.07 225.46 210.75 225.81 208.31 Z M 132.01 204.98 C 132.61 203.87 132.77 202.44 132.37 201.80 C 131.89 201.01 131.41 201.26 130.90 202.57 C 129.28 206.71 130.11 208.52 132.01 204.98 Z M 30.00 170.61 C 30.00 161.71 30.31 159.10 31.41 158.67 C 32.19 158.37 50.64 158.09 72.41 158.03 L 112.00 157.94 L 112.00 169.97 L 112.00 182.00 L 71.00 182.00 L 30.00 182.00 L 30.00 170.61 Z M 30.55 149.90 C 30.28 149.13 30.15 145.14 30.28 141.03 C 30.48 134.17 30.71 133.45 33.00 132.29 C 34.92 131.31 44.36 131.07 73.50 131.26 L 111.50 131.50 L 111.78 140.75 L 112.06 150.00 L 82.78 150.00 C 66.68 150.01 48.45 150.30 42.28 150.66 C 33.13 151.18 30.96 151.04 30.55 149.90 Z M 20.00 135.66 C 20.00 135.07 14.64 136.49 12.94 137.53 C 12.23 137.97 12.68 138.66 14.16 139.41 C 16.17 140.42 16.74 140.28 18.25 138.38 C 19.21 137.17 20.00 135.95 20.00 135.66 Z M 55.50 139.54 L 52.50 138.16 L 56.50 137.90 C 58.70 137.75 68.91 137.60 79.20 137.57 C 90.99 137.52 98.29 137.11 98.96 136.44 C 99.72 135.68 90.42 135.43 67.26 135.56 C 30.20 135.77 31.71 135.71 32.40 136.83 C 32.68 137.29 34.35 137.45 36.12 137.20 C 38.72 136.81 39.21 137.02 38.72 138.30 C 37.87 140.50 39.27 140.84 49.50 140.88 C 57.91 140.91 58.30 140.82 55.50 139.54 Z M 193.50 140.00 C 193.84 139.45 194.32 139.00 194.56 139.00 C 194.80 139.00 195.00 139.45 195.00 140.00 C 195.00 140.55 194.52 141.00 193.94 141.00 C 193.36 141.00 193.16 140.55 193.50 140.00 Z M 46.61 138.56 C 46.92 137.77 47.84 137.39 48.67 137.70 C 49.89 138.17 49.92 138.44 48.83 139.12 C 46.84 140.39 46.00 140.17 46.61 138.56 Z M 70.73 139.40 C 70.40 139.06 69.53 139.03 68.81 139.32 C 68.01 139.64 68.25 139.87 69.42 139.92 C 70.47 139.96 71.06 139.73 70.73 139.40 Z M 82.73 139.40 C 82.40 139.06 81.53 139.03 80.81 139.32 C 80.01 139.64 80.25 139.87 81.42 139.92 C 82.47 139.96 83.06 139.73 82.73 139.40 Z M 134.00 138.94 C 134.00 138.36 134.45 138.16 135.00 138.50 C 135.55 138.84 136.00 139.32 136.00 139.56 C 136.00 139.80 135.55 140.00 135.00 140.00 C 134.45 140.00 134.00 139.52 134.00 138.94 Z M 283.00 139.12 C 283.00 138.57 283.45 137.84 284.00 137.50 C 284.55 137.16 285.00 137.33 285.00 137.88 C 285.00 138.43 284.55 139.16 284.00 139.50 C 283.45 139.84 283.00 139.67 283.00 139.12 Z M 41.27 138.31 C 42.24 138.05 43.59 138.07 44.27 138.34 C 44.95 138.62 44.15 138.83 42.50 138.81 C 40.85 138.78 40.30 138.56 41.27 138.31 Z M 109.21 137.19 C 110.93 135.47 105.45 134.57 101.98 136.01 C 100.34 136.69 99.00 137.56 99.00 137.95 C 99.00 139.07 108.00 138.40 109.21 137.19 Z M 129.58 136.91 C 130.62 135.76 131.52 134.30 131.58 133.66 C 131.65 133.02 131.76 131.69 131.85 130.69 C 131.93 129.70 132.46 129.17 133.03 129.52 C 133.59 129.87 133.93 130.86 133.78 131.72 C 133.62 132.59 134.06 133.49 134.75 133.73 C 135.60 134.03 136.00 133.00 136.00 130.52 C 136.00 127.19 135.80 126.93 133.75 127.58 C 130.84 128.50 129.15 130.87 129.75 133.17 C 130.23 135.00 129.96 135.11 124.27 135.39 C 123.05 135.45 122.13 135.95 122.24 136.50 C 122.35 137.05 123.02 137.37 123.72 137.21 C 124.42 137.04 125.00 137.38 125.00 137.96 C 125.00 139.71 127.58 139.12 129.58 136.91 Z M 156.50 138.00 C 156.16 137.45 156.36 137.00 156.94 137.00 C 157.52 137.00 158.00 137.45 158.00 138.00 C 158.00 138.55 157.80 139.00 157.56 139.00 C 157.32 139.00 156.84 138.55 156.50 138.00 Z M 160.75 138.34 C 161.44 138.06 162.56 138.06 163.25 138.34 C 163.94 138.62 163.38 138.84 162.00 138.84 C 160.62 138.84 160.06 138.62 160.75 138.34 Z M 169.75 138.34 C 170.44 138.06 171.56 138.06 172.25 138.34 C 172.94 138.62 172.38 138.84 171.00 138.84 C 169.62 138.84 169.06 138.62 169.75 138.34 Z M 178.27 138.31 C 179.24 138.05 180.59 138.07 181.27 138.34 C 181.95 138.62 181.15 138.83 179.50 138.81 C 177.85 138.78 177.30 138.56 178.27 138.31 Z M 187.50 138.00 C 187.84 137.45 188.77 137.00 189.56 137.00 C 190.35 137.00 191.00 137.45 191.00 138.00 C 191.00 138.55 190.07 139.00 188.94 139.00 C 187.81 139.00 187.16 138.55 187.50 138.00 Z M 239.81 138.32 C 240.53 138.03 241.40 138.06 241.73 138.40 C 242.06 138.73 241.47 138.96 240.42 138.92 C 239.25 138.87 239.01 138.64 239.81 138.32 Z M 317.81 138.32 C 318.53 138.03 319.40 138.06 319.73 138.40 C 320.06 138.73 319.47 138.96 318.42 138.92 C 317.25 138.87 317.01 138.64 317.81 138.32 Z M 357.64 137.50 C 357.95 136.68 358.87 136.00 359.68 136.00 C 360.95 136.00 360.94 136.20 359.64 137.50 C 358.82 138.32 357.90 139.00 357.60 139.00 C 357.31 139.00 357.32 138.32 357.64 137.50 Z M 236.81 137.32 C 237.53 137.03 238.40 137.06 238.73 137.40 C 239.06 137.73 238.47 137.96 237.42 137.92 C 236.25 137.87 236.01 137.64 236.81 137.32 Z M 246.81 137.32 C 247.53 137.03 248.40 137.06 248.73 137.40 C 249.06 137.73 248.47 137.96 247.42 137.92 C 246.25 137.87 246.01 137.64 246.81 137.32 Z M 277.81 137.32 C 278.53 137.03 279.40 137.06 279.73 137.40 C 280.06 137.73 279.47 137.96 278.42 137.92 C 277.25 137.87 277.01 137.64 277.81 137.32 Z M 311.81 137.32 C 312.53 137.03 313.40 137.06 313.73 137.40 C 314.06 137.73 313.47 137.96 312.42 137.92 C 311.25 137.87 311.01 137.64 311.81 137.32 Z M 336.75 137.34 C 337.44 137.06 338.56 137.06 339.25 137.34 C 339.94 137.62 339.38 137.84 338.00 137.84 C 336.62 137.84 336.06 137.62 336.75 137.34 Z M 347.00 137.00 C 347.82 136.47 349.40 136.03 350.50 136.03 C 352.16 136.03 352.24 136.20 351.00 137.00 C 350.18 137.53 348.60 137.97 347.50 137.97 C 345.84 137.97 345.76 137.80 347.00 137.00 Z M 254.08 133.42 C 254.13 132.25 254.36 132.01 254.68 132.81 C 254.97 133.53 254.94 134.40 254.60 134.73 C 254.27 135.06 254.04 134.47 254.08 133.42 Z M 376.58 130.13 C 376.15 129.44 376.07 128.60 376.40 128.27 C 377.29 127.37 378.27 128.69 377.79 130.14 C 377.45 131.15 377.21 131.15 376.58 130.13 Z M 37.01 121.31 C 37.01 119.16 39.18 116.14 46.26 108.46 C 51.34 102.94 59.00 94.61 63.28 89.96 L 71.06 81.50 L 77.78 88.65 C 81.48 92.58 89.56 101.04 95.75 107.44 C 106.51 118.58 108.51 121.59 105.75 122.46 C 105.06 122.67 89.31 123.14 70.75 123.49 L 37.00 124.12 L 37.01 121.31 Z M 136.75 115.19 L 133.00 114.88 L 133.00 75.55 C 133.00 44.99 133.28 36.11 134.25 35.76 C 134.94 35.50 156.27 35.20 181.66 35.08 C 227.22 34.87 227.90 34.90 232.93 37.07 C 242.09 41.01 247.75 52.64 248.71 69.48 C 249.90 90.65 245.40 105.23 235.64 111.75 L 230.77 115.00 L 208.14 115.08 C 195.69 115.12 175.38 115.23 163.00 115.33 C 150.62 115.42 138.81 115.36 136.75 115.19 Z M 13.13 110.35 C 12.19 108.73 12.06 108.86 12.03 111.45 C 12.01 113.60 12.30 114.10 13.10 113.30 C 13.89 112.51 13.90 111.67 13.13 110.35 Z M 123.71 113.25 C 123.48 112.84 123.34 95.44 123.40 74.59 C 123.48 45.22 123.78 36.58 124.75 36.25 C 125.74 35.92 126.00 44.09 126.00 74.92 C 126.00 110.05 125.60 116.70 123.71 113.25 Z M 254.50 113.00 C 254.84 112.45 255.32 112.00 255.56 112.00 C 255.80 112.00 256.00 112.45 256.00 113.00 C 256.00 113.55 255.52 114.00 254.94 114.00 C 254.36 114.00 254.16 113.55 254.50 113.00 Z M 27.00 75.97 C 27.00 43.75 27.17 39.87 28.61 39.32 C 29.75 38.88 32.63 41.19 38.36 47.12 C 54.13 63.45 65.00 75.30 65.00 76.18 C 65.00 76.66 59.90 82.56 53.67 89.28 C 47.43 96.00 40.16 103.86 37.52 106.75 C 33.87 110.73 32.01 112.00 29.85 112.00 L 27.00 112.00 L 27.00 75.97 Z M 109.16 110.31 C 108.63 109.31 105.11 105.32 101.34 101.43 C 97.58 97.54 90.50 90.23 85.60 85.17 L 76.71 75.98 L 78.60 73.76 C 83.24 68.33 110.47 39.42 111.59 38.75 C 112.27 38.34 113.55 38.27 114.43 38.61 C 115.86 39.16 116.00 43.02 115.76 75.36 L 115.50 111.50 L 112.82 111.81 C 111.03 112.02 109.81 111.52 109.16 110.31 Z M 254.00 109.00 C 254.00 108.45 254.45 108.00 255.00 108.00 C 255.55 108.00 256.00 108.45 256.00 109.00 C 256.00 109.55 255.55 110.00 255.00 110.00 C 254.45 110.00 254.00 109.55 254.00 109.00 Z M 12.68 102.81 C 12.36 102.01 12.13 102.25 12.08 103.42 C 12.04 104.47 12.27 105.06 12.60 104.73 C 12.94 104.40 12.97 103.53 12.68 102.81 Z M 377.08 85.42 C 377.13 84.25 377.36 84.01 377.68 84.81 C 377.97 85.53 377.94 86.40 377.60 86.73 C 377.27 87.06 377.04 86.47 377.08 85.42 Z M 377.50 79.00 C 377.16 78.45 377.36 78.00 377.94 78.00 C 378.52 78.00 379.00 78.45 379.00 79.00 C 379.00 79.55 378.80 80.00 378.56 80.00 C 378.32 80.00 377.84 79.55 377.50 79.00 Z M 65.44 63.75 C 62.78 60.86 55.18 52.71 48.55 45.63 C 41.92 38.56 36.34 32.08 36.15 31.25 C 35.96 30.42 36.41 29.36 37.15 28.89 C 37.89 28.42 53.70 28.02 72.28 28.02 C 100.76 28.00 106.15 28.23 106.62 29.44 C 106.92 30.23 106.79 31.53 106.33 32.32 C 104.70 35.16 72.48 68.95 71.39 68.98 C 70.77 68.99 68.10 66.64 65.44 63.75 Z M 135.45 25.07 C 136.12 23.99 134.03 19.00 132.91 19.00 C 132.49 19.00 132.00 18.08 131.82 16.96 C 131.27 13.46 129.51 14.78 129.27 18.88 C 129.10 21.64 129.49 22.97 130.57 23.39 C 131.45 23.72 131.84 23.55 131.49 22.99 C 131.16 22.44 131.41 22.00 132.06 22.00 C 132.74 22.00 133.01 22.84 132.71 24.00 C 132.17 26.05 134.33 26.89 135.45 25.07 Z M 254.08 18.42 C 254.13 17.25 254.36 17.01 254.68 17.81 C 254.97 18.53 254.94 19.40 254.60 19.73 C 254.27 20.06 254.04 19.47 254.08 18.42 Z M 105.90 14.08 C 106.79 13.52 104.57 13.19 99.85 13.17 C 95.75 13.15 91.74 13.55 90.95 14.05 C 90.00 14.66 92.08 14.97 97.00 14.97 C 101.12 14.97 105.13 14.57 105.90 14.08 Z M 253.03 14.25 C 253.05 13.84 253.71 12.64 254.51 11.59 C 255.70 10.01 256.36 9.87 258.23 10.77 C 259.84 11.55 260.03 11.88 258.87 11.93 C 257.98 11.97 256.68 12.68 256.00 13.50 C 254.69 15.08 252.98 15.52 253.03 14.25 Z M 133.50 13.00 C 133.84 12.45 133.39 12.00 132.50 12.00 C 131.61 12.00 131.16 12.45 131.50 13.00 C 131.84 13.55 132.29 14.00 132.50 14.00 C 132.71 14.00 133.16 13.55 133.50 13.00 Z M 10.00 11.89 C 10.00 11.40 11.12 11.00 12.50 11.00 C 15.76 11.00 15.76 12.46 12.50 12.64 C 11.12 12.72 10.00 12.39 10.00 11.89 Z M 18.50 12.00 C 18.84 11.45 19.57 11.00 20.12 11.00 C 20.67 11.00 20.84 11.45 20.50 12.00 C 20.16 12.55 19.43 13.00 18.88 13.00 C 18.33 13.00 18.16 12.55 18.50 12.00 Z M 115.00 12.12 C 115.00 11.63 115.90 11.00 117.00 10.71 C 119.36 10.09 119.71 11.51 117.42 12.39 C 115.32 13.20 115.00 13.16 115.00 12.12 Z M 154.00 11.98 C 154.00 11.52 153.21 10.94 152.25 10.69 C 151.29 10.44 151.94 10.18 153.69 10.12 C 157.35 9.98 158.96 11.51 155.99 12.29 C 154.89 12.58 154.00 12.44 154.00 11.98 Z M 27.81 11.32 C 28.53 11.03 29.40 11.06 29.73 11.40 C 30.06 11.73 29.47 11.96 28.42 11.92 C 27.25 11.87 27.01 11.64 27.81 11.32 Z M 34.81 11.32 C 35.53 11.03 36.40 11.06 36.73 11.40 C 37.06 11.73 36.47 11.96 35.42 11.92 C 34.25 11.87 34.01 11.64 34.81 11.32 Z M 44.81 11.32 C 45.53 11.03 46.40 11.06 46.73 11.40 C 47.06 11.73 46.47 11.96 45.42 11.92 C 44.25 11.87 44.01 11.64 44.81 11.32 Z M 139.27 11.31 C 140.24 11.05 141.59 11.07 142.27 11.34 C 142.95 11.62 142.15 11.83 140.50 11.81 C 138.85 11.78 138.30 11.56 139.27 11.31 Z M 144.00 11.00 C 142.67 10.14 142.67 10.04 144.00 10.11 C 144.82 10.16 146.62 10.56 148.00 11.00 L 150.50 11.80 L 148.00 11.89 C 146.62 11.93 144.82 11.53 144.00 11.00 Z M 160.50 11.01 C 159.06 10.39 159.82 10.19 163.25 10.29 C 165.86 10.37 168.00 10.79 168.00 11.22 C 168.00 12.24 163.06 12.10 160.50 11.01 Z M 182.25 11.31 C 183.21 11.06 184.79 11.06 185.75 11.31 C 186.71 11.56 185.93 11.77 184.00 11.77 C 182.07 11.77 181.29 11.56 182.25 11.31 Z M 188.81 11.32 C 189.53 11.03 190.40 11.06 190.73 11.40 C 191.06 11.73 190.47 11.96 189.42 11.92 C 188.25 11.87 188.01 11.64 188.81 11.32 Z M 275.81 11.32 C 276.53 11.03 277.40 11.06 277.73 11.40 C 278.06 11.73 277.47 11.96 276.42 11.92 C 275.25 11.87 275.01 11.64 275.81 11.32 Z M 309.00 10.50 C 309.00 9.68 309.44 9.00 309.97 9.00 C 310.50 9.00 310.68 9.68 310.36 10.50 C 310.05 11.32 309.61 12.00 309.39 12.00 C 309.18 12.00 309.00 11.32 309.00 10.50 Z M 335.50 11.00 C 335.16 10.45 335.33 10.00 335.88 10.00 C 336.43 10.00 337.16 10.45 337.50 11.00 C 337.84 11.55 337.67 12.00 337.12 12.00 C 336.57 12.00 335.84 11.55 335.50 11.00 Z M 229.75 10.34 C 230.44 10.06 231.56 10.06 232.25 10.34 C 232.94 10.62 232.38 10.84 231.00 10.84 C 229.62 10.84 229.06 10.62 229.75 10.34 Z M 236.81 10.32 C 237.53 10.03 238.40 10.06 238.73 10.40 C 239.06 10.73 238.47 10.96 237.42 10.92 C 236.25 10.87 236.01 10.64 236.81 10.32 Z M 260.00 10.62 C 260.00 9.71 263.90 9.32 265.14 10.11 C 266.06 10.69 265.46 10.97 263.25 10.98 C 261.46 10.99 260.00 10.83 260.00 10.62 Z M 270.81 10.32 C 271.53 10.03 272.40 10.06 272.73 10.40 C 273.06 10.73 272.47 10.96 271.42 10.92 C 270.25 10.87 270.01 10.64 270.81 10.32 Z M 313.51 9.98 C 313.86 9.42 314.56 9.23 315.07 9.54 C 316.46 10.40 316.20 11.00 314.44 11.00 C 313.58 11.00 313.16 10.54 313.51 9.98 Z M 339.75 10.34 C 340.44 10.06 341.56 10.06 342.25 10.34 C 342.94 10.62 342.38 10.84 341.00 10.84 C 339.62 10.84 339.06 10.62 339.75 10.34 Z M 357.81 10.32 C 358.53 10.03 359.40 10.06 359.73 10.40 C 360.06 10.73 359.47 10.96 358.42 10.92 C 357.25 10.87 357.01 10.64 357.81 10.32 Z M 375.00 10.00 C 375.00 9.45 375.68 9.00 376.50 9.00 C 377.32 9.00 378.00 9.45 378.00 10.00 C 378.00 10.55 377.32 11.00 376.50 11.00 C 375.68 11.00 375.00 10.55 375.00 10.00 Z" fill="none" stroke="rgba(255,255,255,0.92)" stroke-width="1.5" stroke-linejoin="round" fill-rule="evenodd"/>
</svg>
