<svg xmlns="http://www.w3.org/2000/svg" viewBox="0 0 100 100" width="100" height="100">
  <path d="M 0.00 50.00 L 0.00 0.00 L 50.00 0.00 L 100.00 0.00 L 100.00 50.00 L 100.00 100.00 L 50.00 100.00 L 0.00 100.00 L 0.00 50.00 Z M 95.68 93.81 C 95.36 93.01 95.13 93.25 95.08 94.42 C 95.04 95.47 95.27 96.06 95.60 95.73 C 95.94 95.40 95.97 94.53 95.68 93.81 Z M 82.45 91.02 C 86.55 89.46 90.76 85.96 93.48 81.85 C 95.98 78.07 96.00 77.90 96.00 55.60 L 96.00 33.16 L 92.25 28.98 C 90.19 26.68 86.70 23.84 84.50 22.68 C 80.00 20.31 80.45 20.32 32.25 20.75 L 4.00 21.00 L 4.00 23.84 L 4.00 26.68 L 40.75 26.28 L 77.50 25.87 L 81.97 28.19 C 90.55 32.62 94.86 46.67 92.91 63.83 C 91.91 72.64 91.27 74.47 87.32 79.75 C 82.66 86.01 82.63 86.01 42.25 86.51 C 22.04 86.76 5.16 86.97 4.75 86.98 C 4.34 86.99 4.00 88.34 4.00 89.98 L 4.00 92.97 L 41.94 92.48 C 62.95 92.21 81.03 91.56 82.45 91.02 Z M 95.68 87.81 C 95.36 87.01 95.13 87.25 95.08 88.42 C 95.04 89.47 95.27 90.06 95.60 89.73 C 95.94 89.40 95.97 88.53 95.68 87.81 Z M 95.73 15.72 C 95.52 13.40 95.35 15.55 95.35 20.50 C 95.36 25.45 95.53 27.35 95.74 24.72 C 95.94 22.09 95.94 18.04 95.73 15.72 Z M 4.68 16.81 C 4.36 16.01 4.13 16.25 4.08 17.42 C 4.04 18.47 4.27 19.06 4.60 18.73 C 4.94 18.40 4.97 17.53 4.68 16.81 Z M 5.36 12.50 C 5.68 11.68 5.50 11.00 4.97 11.00 C 4.44 11.00 4.00 11.68 4.00 12.50 C 4.00 13.32 4.18 14.00 4.39 14.00 C 4.61 14.00 5.05 13.32 5.36 12.50 Z M 96.00 7.93 L 96.00 5.36 L 57.25 5.61 C 35.94 5.75 15.24 5.90 11.25 5.93 C 6.86 5.97 4.00 6.42 4.00 7.06 C 4.00 7.64 4.38 7.89 4.84 7.60 C 5.30 7.32 6.98 7.52 8.59 8.04 C 11.44 8.98 11.43 8.99 8.00 8.57 C 6.08 8.33 5.07 8.37 5.76 8.65 C 6.45 8.94 6.77 9.56 6.48 10.03 C 6.18 10.51 25.91 10.81 50.97 10.70 L 96.00 10.50 L 96.00 7.93 Z M 19.00 8.50 C 19.00 7.68 19.75 7.38 21.00 7.71 C 22.10 8.00 23.00 8.35 23.00 8.50 C 23.00 8.65 22.10 9.00 21.00 9.29 C 19.75 9.62 19.00 9.32 19.00 8.50 Z M 13.27 8.31 C 14.24 8.05 15.59 8.07 16.27 8.34 C 16.95 8.62 16.15 8.83 14.50 8.81 C 12.85 8.78 12.30 8.56 13.27 8.31 Z M 26.25 8.31 C 27.21 8.06 28.79 8.06 29.75 8.31 C 30.71 8.56 29.93 8.77 28.00 8.77 C 26.07 8.77 25.29 8.56 26.25 8.31 Z M 42.76 8.29 C 44.01 8.05 45.81 8.06 46.76 8.31 C 47.72 8.56 46.70 8.76 44.50 8.75 C 42.30 8.74 41.52 8.53 42.76 8.29 Z" fill="none" stroke="rgba(255,255,255,0.92)" stroke-width="1.2" stroke-linejoin="round" fill-rule="evenodd"/>
</svg>
