<svg xmlns="http://www.w3.org/2000/svg" viewBox="0 0 400 220" width="400" height="220">
  <path d="M 0.00 110.00 L 0.00 0.00 L 200.00 0.00 L 400.00 0.00 L 400.00 110.00 L 400.00 220.00 L 200.00 220.00 L 0.00 220.00 L 0.00 110.00 Z M 9.39 213.82 C 10.27 215.25 14.00 215.40 14.00 214.00 C 14.00 213.45 14.48 213.00 15.06 213.00 C 15.64 213.00 15.82 213.48 15.46 214.06 C 15.02 214.78 16.05 214.92 18.65 214.49 C 21.70 213.98 22.19 214.09 21.00 215.02 C 19.75 216.00 19.82 216.08 21.48 215.54 C 22.57 215.18 30.67 214.85 39.48 214.81 C 48.29 214.77 54.71 214.54 53.75 214.30 C 50.71 213.53 51.85 212.19 55.46 212.30 C 58.03 212.37 58.66 212.70 57.92 213.60 C 57.17 214.50 57.82 214.80 60.46 214.80 C 62.40 214.80 63.77 214.44 63.50 214.00 C 63.23 213.57 63.72 212.94 64.59 212.60 C 67.19 211.61 68.25 211.91 67.64 213.49 C 67.23 214.57 67.71 214.92 69.43 214.78 C 70.89 214.66 71.59 214.09 71.28 213.29 C 71.01 212.58 71.24 212.00 71.79 212.00 C 72.34 212.00 73.06 212.71 73.39 213.57 C 73.78 214.59 74.67 214.92 75.92 214.53 C 79.38 213.43 90.00 212.99 90.00 213.95 C 90.00 214.46 94.66 214.83 100.54 214.77 C 107.04 214.70 110.58 214.32 109.79 213.77 C 108.58 212.94 112.96 213.44 117.18 214.62 C 118.11 214.88 119.28 214.32 119.83 213.33 C 120.64 211.88 122.61 211.51 131.13 211.16 C 140.57 210.78 141.34 210.89 140.10 212.37 C 138.89 213.84 139.28 214.00 144.07 214.00 C 148.96 214.00 149.23 213.88 147.44 212.53 C 145.77 211.27 145.73 211.06 147.17 211.03 C 148.08 211.01 149.00 211.51 149.21 212.13 C 149.48 212.95 150.91 212.97 154.51 212.20 C 157.22 211.62 159.90 211.45 160.47 211.82 C 161.04 212.20 159.70 212.77 157.50 213.11 C 155.30 213.44 159.99 213.78 167.92 213.86 C 175.85 213.94 182.14 213.81 181.91 213.58 C 181.68 213.35 177.28 212.92 172.14 212.64 C 166.99 212.35 162.53 211.87 162.23 211.56 C 161.65 210.99 169.10 210.64 174.50 210.98 C 176.72 211.12 177.21 210.87 176.40 210.03 C 175.61 209.22 165.56 208.98 140.65 209.20 L 106.00 209.50 L 106.00 204.63 C 106.00 200.41 105.80 199.92 104.50 201.00 C 102.87 202.35 102.67 202.03 103.60 199.59 C 103.94 198.72 104.61 198.26 105.10 198.56 C 105.61 198.88 105.95 194.86 105.88 189.31 C 105.81 183.33 105.50 180.67 105.09 182.50 C 104.56 184.84 104.26 183.84 103.73 177.90 C 103.36 173.73 103.46 168.89 103.96 167.15 C 104.49 165.28 104.49 164.00 103.96 164.00 C 103.46 164.00 103.06 157.68 103.06 149.96 C 103.07 142.24 102.80 135.49 102.47 134.96 C 102.15 134.43 102.19 131.93 102.57 129.40 C 103.27 124.72 104.95 124.99 104.98 129.79 C 105.01 133.00 111.21 150.49 115.04 158.13 C 119.34 166.70 126.44 176.11 134.69 184.14 C 170.73 219.25 226.36 219.78 262.92 185.36 C 282.02 167.38 292.51 145.70 295.34 118.34 C 296.45 107.62 296.40 105.01 294.90 96.34 C 290.74 72.35 280.83 52.87 264.86 37.30 C 254.09 26.81 237.18 16.87 226.00 14.45 C 224.07 14.04 223.08 13.50 223.79 13.25 C 224.78 12.91 224.81 12.48 223.92 11.40 C 222.99 10.29 223.14 9.99 224.63 9.94 C 225.66 9.91 241.80 9.80 260.50 9.70 L 294.50 9.52 L 294.18 12.01 C 293.46 17.54 293.91 79.31 294.68 80.08 C 295.13 80.53 295.44 67.99 295.36 52.20 C 295.24 27.40 295.40 23.91 296.56 26.50 C 297.88 29.43 297.91 29.36 297.95 23.49 C 297.98 20.19 297.56 15.94 297.01 14.04 C 296.34 11.69 296.36 10.40 297.08 9.95 C 297.66 9.59 304.40 9.26 312.07 9.21 C 319.73 9.16 326.42 8.86 326.93 8.54 C 327.44 8.23 328.16 8.45 328.53 9.04 C 328.93 9.70 330.43 9.84 332.35 9.42 C 337.84 8.20 394.00 7.04 394.00 8.14 C 394.00 8.58 393.32 8.68 392.50 8.36 C 390.80 7.71 390.69 12.21 390.99 71.64 C 391.08 90.66 390.77 105.03 390.24 105.35 C 389.09 106.06 358.52 106.91 328.00 107.08 C 315.07 107.16 303.44 107.45 302.15 107.74 C 296.73 108.95 303.01 109.50 321.84 109.44 C 332.86 109.41 341.65 109.75 341.38 110.19 C 340.80 111.13 342.38 111.29 343.28 110.38 C 343.62 110.04 350.56 109.57 358.70 109.34 C 366.84 109.10 377.55 108.77 382.50 108.61 C 387.45 108.45 392.04 108.73 392.71 109.24 C 394.51 110.63 396.00 109.23 395.97 106.19 C 395.94 103.74 395.82 103.66 394.61 105.25 C 392.99 107.38 392.00 107.49 392.00 105.56 C 392.00 104.76 392.88 103.50 393.95 102.75 C 395.83 101.43 395.90 100.14 395.68 71.21 C 395.49 47.39 395.16 40.78 394.09 39.77 C 392.97 38.72 392.85 38.97 393.39 41.25 C 393.77 42.87 393.62 44.00 393.02 44.00 C 391.75 44.00 391.66 34.33 392.93 33.54 C 393.44 33.23 394.05 33.99 394.29 35.24 C 394.53 36.48 394.83 32.55 394.95 26.50 C 395.07 20.45 395.36 13.07 395.58 10.11 L 395.99 4.71 L 380.75 5.40 C 363.03 6.20 325.65 6.75 240.50 7.47 C 174.50 8.03 101.66 9.06 101.24 9.45 C 100.69 9.95 101.00 95.66 101.56 99.00 C 101.88 100.92 102.00 107.67 101.82 114.00 C 101.64 120.33 101.50 144.45 101.50 167.61 L 101.50 209.72 L 57.51 209.90 C 33.31 210.00 12.52 210.33 11.31 210.64 C 9.38 211.12 9.16 210.86 9.57 208.60 C 9.83 207.17 9.58 206.00 9.02 206.00 C 8.46 206.00 8.00 205.10 8.00 204.00 C 8.00 202.90 8.45 202.00 9.00 202.00 C 9.55 202.00 10.00 200.85 10.00 199.44 C 10.00 197.99 9.57 197.15 9.00 197.50 C 7.91 198.17 7.94 199.33 7.67 146.64 L 7.50 112.78 L 35.50 112.38 C 50.90 112.17 64.17 111.98 65.00 111.97 C 79.88 111.72 90.32 111.64 93.67 111.76 C 96.36 111.85 98.30 111.35 99.13 110.34 C 100.29 108.94 96.74 108.85 62.96 109.35 C 42.36 109.66 20.84 109.93 15.14 109.96 L 4.79 110.00 L 5.38 162.07 C 5.70 190.70 6.28 214.64 6.65 215.25 C 7.10 215.97 7.58 215.70 8.00 214.50 C 8.45 213.21 8.88 213.00 9.39 213.82 Z M 43.00 213.00 C 43.00 212.45 43.45 212.00 44.00 212.00 C 44.55 212.00 45.00 212.45 45.00 213.00 C 45.00 213.55 44.55 214.00 44.00 214.00 C 43.45 214.00 43.00 213.55 43.00 213.00 Z M 130.00 213.00 C 130.00 212.45 128.99 212.01 127.75 212.02 C 125.93 212.03 125.79 212.22 127.00 213.00 C 128.94 214.25 130.00 214.25 130.00 213.00 Z M 231.00 213.00 C 231.00 212.45 230.32 212.00 229.50 212.00 C 228.68 212.00 228.00 212.45 228.00 213.00 C 228.00 213.55 228.68 214.00 229.50 214.00 C 230.32 214.00 231.00 213.55 231.00 213.00 Z M 248.41 212.69 C 246.67 211.71 246.67 211.64 248.54 210.91 C 251.40 209.79 254.21 209.84 253.50 211.00 C 252.78 212.16 254.31 212.36 255.42 211.25 C 256.40 210.27 284.96 210.26 284.35 211.24 C 284.09 211.66 283.23 212.00 282.44 212.00 C 281.65 212.00 281.00 212.36 281.00 212.80 C 281.00 213.88 294.41 212.99 294.83 211.88 C 295.02 211.40 295.57 211.00 296.05 211.00 C 296.54 211.00 296.68 211.68 296.36 212.50 C 296.00 213.45 296.38 214.00 297.39 214.00 C 298.80 214.00 299.00 212.05 299.00 198.30 C 299.00 188.46 298.65 182.95 298.06 183.55 C 297.54 184.07 296.95 186.97 296.74 190.00 L 296.37 195.50 L 296.18 188.82 C 296.05 184.02 296.42 181.72 297.50 180.64 C 299.45 178.69 299.41 177.23 297.38 176.82 C 295.58 176.47 294.71 170.07 296.14 167.80 C 296.66 166.98 296.98 167.91 296.98 170.31 C 296.99 172.40 297.40 173.87 297.90 173.56 C 298.66 173.09 298.76 162.46 298.02 161.00 C 297.88 160.72 297.42 161.85 297.00 163.50 L 296.24 166.50 L 296.10 163.00 C 296.03 161.07 295.70 158.49 295.37 157.25 C 295.03 155.97 295.22 155.00 295.81 155.00 C 296.38 155.00 297.06 155.79 297.31 156.75 C 297.69 158.18 297.79 158.13 297.88 156.44 C 297.95 155.31 297.34 153.51 296.53 152.44 C 295.72 151.37 295.06 149.82 295.06 149.00 C 295.06 147.79 295.32 147.84 296.39 149.25 C 297.57 150.80 297.79 150.39 298.34 145.78 C 298.69 142.81 298.54 140.14 297.98 139.58 C 297.34 138.94 296.97 139.97 296.91 142.55 L 296.82 146.50 L 295.85 143.14 C 295.32 141.29 294.65 140.01 294.37 140.29 C 294.09 140.58 293.87 155.93 293.88 174.40 L 293.91 208.00 L 269.70 208.15 C 243.04 208.31 234.74 208.46 228.00 208.91 L 223.50 209.20 L 227.00 210.08 C 228.93 210.56 231.72 210.70 233.21 210.40 C 234.70 210.10 236.73 210.33 237.71 210.90 C 239.22 211.77 238.99 211.94 236.25 211.97 C 234.46 211.99 233.00 212.37 233.00 212.83 C 233.00 213.28 236.88 213.67 241.62 213.68 C 247.99 213.70 249.76 213.45 248.41 212.69 Z M 260.00 212.02 C 260.00 211.61 258.88 211.49 257.51 211.75 C 256.14 212.01 255.24 212.58 255.51 213.02 C 256.10 213.96 260.00 213.09 260.00 212.02 Z M 277.50 213.00 C 277.84 212.45 277.44 212.00 276.62 212.00 C 275.79 212.00 274.84 212.45 274.50 213.00 C 274.16 213.55 274.56 214.00 275.38 214.00 C 276.21 214.00 277.16 213.55 277.50 213.00 Z M 48.81 212.32 C 49.53 212.03 50.40 212.06 50.73 212.40 C 51.06 212.73 50.47 212.96 49.42 212.92 C 48.25 212.87 48.01 212.64 48.81 212.32 Z M 60.81 212.32 C 61.53 212.03 62.40 212.06 62.73 212.40 C 63.06 212.73 62.47 212.96 61.42 212.92 C 60.25 212.87 60.01 212.64 60.81 212.32 Z M 226.27 212.34 C 225.59 212.07 224.24 212.05 223.27 212.31 C 222.30 212.56 222.85 212.78 224.50 212.81 C 226.15 212.83 226.95 212.62 226.27 212.34 Z M 252.73 212.40 C 252.40 212.06 251.53 212.03 250.81 212.32 C 250.01 212.64 250.25 212.87 251.42 212.92 C 252.47 212.96 253.06 212.73 252.73 212.40 Z M 242.75 211.34 C 243.44 211.06 244.56 211.06 245.25 211.34 C 245.94 211.62 245.38 211.84 244.00 211.84 C 242.62 211.84 242.06 211.62 242.75 211.34 Z M 179.50 202.04 C 168.28 199.23 157.77 194.25 146.73 186.50 C 137.80 180.24 138.69 180.08 156.84 184.60 C 166.99 187.13 175.78 191.54 185.90 199.17 C 191.80 203.62 192.07 203.99 189.40 203.90 C 187.80 203.84 183.35 203.00 179.50 202.04 Z M 211.00 203.64 C 211.00 202.60 227.77 192.55 233.18 190.35 C 239.48 187.79 251.58 184.69 253.19 185.23 C 254.42 185.64 245.11 192.06 238.49 195.36 C 230.59 199.31 211.00 205.21 211.00 203.64 Z M 196.50 198.85 C 187.74 192.00 175.70 184.44 169.14 181.66 C 165.65 180.18 156.81 177.75 149.51 176.27 L 136.24 173.57 L 135.05 166.53 C 131.58 146.08 126.12 131.70 116.56 117.74 L 111.92 110.97 L 115.21 106.37 C 129.13 86.86 132.88 78.82 136.37 61.00 C 137.83 53.58 139.01 46.74 139.01 45.81 C 139.00 43.52 139.59 43.26 147.58 42.01 C 161.34 39.86 177.16 33.65 187.00 26.53 C 195.35 20.48 195.15 20.50 202.47 24.98 C 213.22 31.56 226.14 37.67 232.00 38.94 C 239.62 40.59 255.74 43.00 259.16 43.00 C 261.64 43.00 262.00 43.38 262.00 45.94 C 262.00 49.20 263.91 57.86 266.98 68.49 C 269.23 76.28 275.75 89.47 282.72 100.33 C 285.25 104.27 287.32 107.97 287.33 108.55 C 287.33 109.12 285.07 112.95 282.31 117.05 C 272.19 132.04 266.72 146.63 262.92 168.79 C 262.23 172.81 261.30 176.31 260.86 176.59 C 260.41 176.86 256.55 177.75 252.28 178.56 C 242.69 180.37 231.81 183.62 226.50 186.26 C 222.49 188.25 208.70 197.18 204.00 200.82 L 201.50 202.76 L 196.50 198.85 Z M 296.23 199.00 C 296.23 197.07 296.44 196.29 296.69 197.25 C 296.94 198.21 296.94 199.79 296.69 200.75 C 296.44 201.71 296.23 200.93 296.23 199.00 Z M 104.08 188.42 C 104.13 187.25 104.36 187.01 104.68 187.81 C 104.97 188.53 104.94 189.40 104.60 189.73 C 104.27 190.06 104.04 189.47 104.08 188.42 Z M 269.60 166.50 C 270.65 160.06 274.76 144.67 276.71 139.90 C 278.72 134.98 287.88 119.00 288.70 119.00 C 289.54 119.00 288.07 127.82 285.88 135.98 C 283.59 144.54 277.89 156.98 272.58 165.00 L 268.95 170.50 L 269.60 166.50 Z M 124.59 162.02 C 119.61 154.34 115.18 143.90 112.54 133.64 C 111.14 128.22 110.01 122.82 110.02 121.64 C 110.04 119.55 110.08 119.55 111.89 121.91 C 118.66 130.70 128.61 156.97 127.80 163.88 C 127.51 166.39 127.37 166.31 124.59 162.02 Z M 104.68 143.81 C 104.36 143.01 104.13 143.25 104.08 144.42 C 104.04 145.47 104.27 146.06 104.60 145.73 C 104.94 145.40 104.97 144.53 104.68 143.81 Z M 299.00 135.44 C 299.00 134.58 298.54 134.16 297.98 134.51 C 297.42 134.86 297.23 135.56 297.54 136.07 C 298.40 137.46 299.00 137.20 299.00 135.44 Z M 307.73 112.40 C 307.40 112.06 306.53 112.03 305.81 112.32 C 305.01 112.64 305.25 112.87 306.42 112.92 C 307.47 112.96 308.06 112.73 307.73 112.40 Z M 111.00 97.66 C 111.00 92.17 114.68 79.49 118.85 70.59 C 122.63 62.52 130.70 50.36 131.64 51.31 C 132.56 52.23 128.77 69.64 126.26 76.00 C 124.11 81.48 112.47 101.00 111.35 101.00 C 111.16 101.00 111.00 99.50 111.00 97.66 Z M 284.63 91.73 C 276.26 76.49 271.47 64.78 269.58 55.00 L 268.91 51.50 L 271.33 54.36 C 278.04 62.29 288.50 87.48 287.81 94.04 C 287.51 96.88 287.41 96.81 284.63 91.73 Z M 102.50 95.00 C 102.16 94.45 102.36 94.00 102.94 94.00 C 103.52 94.00 104.00 94.45 104.00 95.00 C 104.00 95.55 103.80 96.00 103.56 96.00 C 103.32 96.00 102.84 95.55 102.50 95.00 Z M 298.05 79.00 C 298.37 56.50 297.72 49.84 297.02 68.50 C 296.49 82.54 296.76 95.59 297.55 94.77 C 297.70 94.62 297.92 87.53 298.05 79.00 Z M 102.67 52.78 C 102.86 31.18 103.24 12.91 103.50 12.18 C 103.84 11.27 105.89 10.91 110.24 10.99 C 113.68 11.06 128.96 10.81 144.20 10.43 C 171.40 9.76 177.10 10.06 173.97 12.04 C 172.75 12.81 172.80 12.97 174.31 12.98 C 177.43 13.01 175.12 14.89 170.15 16.36 C 159.95 19.39 144.98 28.41 135.11 37.47 C 124.38 47.32 112.03 67.31 108.41 80.71 C 106.68 87.08 105.56 88.43 104.64 85.25 C 104.36 84.29 104.21 85.26 104.31 87.42 C 104.40 89.58 103.99 91.50 103.40 91.70 C 102.64 91.95 102.42 80.58 102.67 52.78 Z M 393.23 82.00 C 393.23 80.08 393.44 79.29 393.69 80.25 C 393.94 81.21 393.94 82.79 393.69 83.75 C 393.44 84.71 393.23 83.92 393.23 82.00 Z M 72.40 69.75 C 66.94 63.30 52.89 49.95 52.08 50.45 C 51.57 50.76 50.86 52.37 50.50 54.01 C 50.04 56.08 49.24 57.00 47.89 57.00 C 45.61 57.00 44.27 59.67 45.78 61.18 C 46.51 61.91 46.41 63.41 45.46 66.12 C 44.71 68.25 44.18 70.04 44.29 70.08 C 44.41 70.12 49.65 70.36 55.94 70.60 C 62.23 70.85 67.59 71.26 67.86 71.52 C 68.12 71.79 69.68 72.00 71.32 72.00 L 74.31 72.00 L 72.40 69.75 Z M 392.55 66.75 C 392.13 65.79 392.13 64.21 392.55 63.25 C 393.27 61.58 393.33 61.58 393.73 63.25 C 393.96 64.21 393.96 65.79 393.73 66.75 C 393.33 68.42 393.27 68.42 392.55 66.75 Z M 392.02 54.25 C 392.01 50.81 392.39 48.00 392.87 48.00 C 394.07 48.00 394.16 57.15 392.99 59.00 C 392.32 60.05 392.03 58.61 392.02 54.25 Z M 41.00 54.69 C 41.00 52.54 35.30 47.67 33.56 48.34 C 31.10 49.28 31.75 51.31 35.26 53.69 C 39.00 56.21 41.00 56.56 41.00 54.69 Z M 26.99 39.49 C 24.48 35.43 22.00 34.89 22.00 38.41 C 22.00 41.50 28.31 47.26 28.83 44.64 C 29.00 43.73 28.18 41.41 26.99 39.49 Z M 148.50 35.01 C 149.82 32.86 160.77 26.31 167.58 23.58 C 174.93 20.64 187.00 17.81 187.00 19.03 C 187.00 19.46 183.54 21.87 179.32 24.39 C 171.88 28.81 167.95 30.31 150.12 35.52 C 148.40 36.02 147.95 35.88 148.50 35.01 Z M 240.50 34.40 C 228.85 32.32 214.10 25.85 204.50 18.60 C 202.59 17.16 202.66 17.09 206.00 17.06 C 217.76 16.96 241.79 25.67 250.00 33.00 C 253.25 35.90 253.28 36.00 250.93 35.91 C 249.59 35.86 244.90 35.18 240.50 34.40 Z M 20.58 27.80 C 19.91 23.57 18.50 21.00 16.88 21.00 C 15.47 21.00 15.86 25.83 17.53 29.05 C 19.81 33.46 21.39 32.82 20.58 27.80 Z M 296.16 22.00 C 296.16 20.62 296.38 20.06 296.66 20.75 C 296.94 21.44 296.94 22.56 296.66 23.25 C 296.38 23.94 296.16 23.38 296.16 22.00 Z M 18.81 9.89 C 18.59 6.79 18.06 5.50 17.00 5.50 C 15.07 5.50 14.37 12.54 16.09 14.61 C 17.97 16.88 19.17 14.80 18.81 9.89 Z" fill="none" stroke="rgba(255,255,255,0.92)" stroke-width="1.5" stroke-linejoin="round" fill-rule="evenodd"/>
</svg>
