<svg xmlns="http://www.w3.org/2000/svg" viewBox="0 0 100 100" width="100" height="100">
  <path d="M 0.00 50.00 L 0.00 0.00 L 50.00 0.00 L 100.00 0.00 L 100.00 50.00 L 100.00 100.00 L 50.00 100.00 L 0.00 100.00 L 0.00 50.00 Z M 7.82 78.25 C 7.73 52.72 7.86 49.79 9.00 50.50 C 9.55 50.84 10.00 50.16 10.00 49.00 C 10.00 47.84 9.55 47.16 9.00 47.50 C 8.45 47.84 8.00 47.45 8.00 46.64 C 8.00 45.83 8.50 45.00 9.10 44.80 C 10.36 44.38 10.96 28.53 9.78 26.68 C 9.37 26.03 9.02 27.49 9.02 29.92 C 8.99 36.91 8.13 34.18 7.92 26.47 C 7.69 17.70 7.79 16.75 8.90 17.44 C 10.05 18.15 11.21 15.15 10.33 13.73 C 9.91 13.04 9.37 13.36 8.90 14.57 C 8.25 16.23 8.13 16.13 8.07 13.89 L 8.00 11.27 L 17.25 11.16 C 22.34 11.09 27.40 11.05 28.50 11.06 C 36.14 11.11 86.51 11.12 90.75 11.07 C 95.67 11.00 96.00 10.84 96.00 8.50 L 96.00 6.00 L 51.75 6.02 C 27.41 6.02 7.03 6.36 6.46 6.77 C 5.77 7.25 5.49 20.35 5.61 46.00 C 5.85 96.22 5.84 96.00 6.94 96.00 C 7.49 96.00 7.86 88.71 7.82 78.25 Z M 95.76 54.75 L 95.50 13.50 L 90.50 13.84 C 80.52 14.52 24.40 14.28 20.81 13.55 C 17.63 12.90 16.76 13.15 14.56 15.35 C 11.60 18.31 11.14 23.33 13.53 26.74 C 14.83 28.60 15.02 33.16 14.77 57.71 C 14.54 79.75 14.15 87.23 13.07 89.60 C 10.07 96.25 8.44 96.00 54.48 96.00 L 96.02 96.00 L 95.76 54.75 Z M 28.75 92.43 C 28.34 92.01 28.00 91.27 28.00 90.79 C 28.00 90.31 34.11 83.41 41.58 75.47 L 55.17 61.02 L 69.08 75.26 C 80.70 87.15 84.46 91.76 82.75 92.04 C 79.32 92.60 29.27 92.96 28.75 92.43 Z M 21.00 57.06 C 21.00 38.14 21.34 29.91 22.13 29.42 C 22.80 29.01 28.97 34.47 37.26 42.80 L 51.26 56.88 L 38.39 70.44 C 29.26 80.06 24.87 84.00 23.26 84.00 L 21.00 84.00 L 21.00 57.06 Z M 73.02 70.52 L 59.55 57.06 L 63.00 53.28 C 74.19 41.05 86.71 29.00 88.23 29.00 C 89.88 29.00 90.00 30.87 90.00 56.50 C 90.00 82.03 89.87 84.00 88.25 83.98 C 87.29 83.98 80.44 77.92 73.02 70.52 Z M 41.93 38.51 C 34.54 31.02 28.50 24.14 28.50 23.20 C 28.50 21.65 30.87 21.48 55.75 21.23 C 81.31 20.98 83.00 21.08 83.00 22.75 C 83.00 23.73 76.78 30.73 69.18 38.32 L 55.36 52.11 L 41.93 38.51 Z M 8.19 41.50 C 8.22 39.85 8.44 39.30 8.69 40.27 C 8.95 41.24 8.93 42.59 8.66 43.27 C 8.38 43.95 8.17 43.15 8.19 41.50 Z M 8.00 8.97 C 8.00 8.44 8.68 8.00 9.50 8.00 C 10.32 8.00 11.00 8.18 11.00 8.39 C 11.00 8.61 10.32 9.05 9.50 9.36 C 8.68 9.68 8.00 9.50 8.00 8.97 Z M 25.00 9.00 C 26.96 7.73 28.28 7.73 27.50 9.00 C 27.16 9.55 26.12 9.99 25.19 9.98 C 23.73 9.97 23.71 9.84 25.00 9.00 Z M 39.50 8.97 C 38.37 8.50 47.45 8.15 60.50 8.16 C 73.15 8.17 84.36 7.84 85.41 7.42 C 86.75 6.89 87.11 7.01 86.61 7.82 C 86.13 8.60 86.46 8.76 87.61 8.32 C 88.74 7.89 89.09 8.04 88.64 8.78 C 87.81 10.11 42.69 10.28 39.50 8.97 Z M 90.00 8.97 C 90.00 8.44 90.67 8.00 91.50 8.00 C 92.33 8.00 93.00 8.18 93.00 8.39 C 93.00 8.61 92.33 9.05 91.50 9.36 C 90.67 9.68 90.00 9.50 90.00 8.97 Z" fill="none" stroke="rgba(255,255,255,0.92)" stroke-width="1.2" stroke-linejoin="round" fill-rule="evenodd"/>
</svg>
