<svg xmlns="http://www.w3.org/2000/svg" viewBox="0 0 100 100" width="100" height="100">
  <path d="M 0.00 50.00 L 0.00 0.00 L 50.00 0.00 L 100.00 0.00 L 100.00 50.00 L 100.00 100.00 L 50.00 100.00 L 0.00 100.00 L 0.00 50.00 Z M 20.36 93.51 C 20.83 92.29 22.99 92.01 31.72 92.06 C 39.19 92.11 41.81 92.40 40.25 93.03 C 36.68 94.47 37.61 95.06 42.75 94.61 C 48.88 94.08 48.75 94.13 47.00 93.00 C 45.79 92.22 45.95 92.03 47.81 92.02 C 49.29 92.01 49.86 92.41 49.41 93.15 C 48.91 93.96 49.50 94.09 51.45 93.60 C 53.03 93.20 54.76 93.38 55.53 94.03 C 56.49 94.83 58.10 94.85 61.19 94.11 L 65.50 93.08 L 61.75 93.34 C 59.69 93.48 58.00 93.24 58.00 92.80 C 58.00 91.99 59.31 91.88 70.74 91.68 C 74.17 91.62 76.60 91.20 76.15 90.75 C 75.70 90.30 59.73 90.05 40.66 90.21 L 6.00 90.50 L 6.00 86.25 C 6.00 79.45 4.27 81.35 4.12 88.31 L 3.98 94.63 L 11.88 94.82 C 18.13 94.98 19.90 94.70 20.36 93.51 Z M 75.50 94.00 C 75.89 93.38 74.12 93.04 70.81 93.10 C 66.65 93.18 66.04 93.37 68.00 94.00 C 71.60 95.15 74.79 95.15 75.50 94.00 Z M 29.25 93.34 C 28.56 93.06 27.44 93.06 26.75 93.34 C 26.06 93.62 26.62 93.84 28.00 93.84 C 29.38 93.84 29.94 93.62 29.25 93.34 Z M 96.00 86.41 C 96.00 79.91 95.61 79.46 84.00 72.57 C 70.85 64.77 62.26 61.88 45.62 59.66 L 36.50 58.44 L 34.40 48.47 C 30.67 30.83 28.16 24.32 20.69 13.00 C 14.69 3.90 14.81 4.00 9.00 4.00 L 3.71 4.00 L 4.29 11.75 C 5.30 25.49 13.40 43.92 24.08 56.80 C 38.72 74.46 62.25 87.46 85.82 90.92 C 96.54 92.49 96.00 92.73 96.00 86.41 Z M 82.00 84.04 C 68.18 81.14 57.62 76.75 46.16 69.15 C 42.87 66.96 41.28 65.38 42.20 65.20 C 45.59 64.54 63.97 69.25 71.00 72.57 C 77.68 75.73 92.00 84.63 92.00 85.62 C 92.00 86.13 91.78 86.09 82.00 84.04 Z M 6.00 71.83 C 6.00 66.79 5.75 62.92 5.44 63.23 C 4.69 63.97 3.96 79.13 4.61 80.18 C 5.76 82.03 6.00 80.56 6.00 71.83 Z M 25.24 48.30 C 19.34 40.83 12.30 24.29 10.54 13.75 C 10.19 11.69 10.27 10.00 10.71 10.00 C 11.49 10.00 19.32 22.51 22.39 28.66 C 24.12 32.15 29.25 51.08 28.63 51.70 C 28.42 51.92 26.89 50.38 25.24 48.30 Z M 4.68 30.81 C 4.36 30.01 4.13 30.25 4.08 31.42 C 4.04 32.47 4.27 33.06 4.60 32.73 C 4.94 32.40 4.97 31.53 4.68 30.81 Z" fill="none" stroke="rgba(255,255,255,0.92)" stroke-width="1.2" stroke-linejoin="round" fill-rule="evenodd"/>
</svg>
