<svg xmlns="http://www.w3.org/2000/svg" viewBox="0 0 100 100" width="100" height="100">
  <path d="M 0.00 50.00 L 0.00 0.00 L 50.00 0.00 L 100.00 0.00 L 100.00 50.00 L 100.00 100.00 L 50.00 100.00 L 0.00 100.00 L 0.00 50.00 Z M 96.00 94.05 C 96.00 90.65 93.92 81.75 91.31 74.00 C 83.68 51.36 70.57 35.59 47.80 21.67 C 43.92 19.30 30.97 14.27 26.66 13.46 C 24.63 13.08 22.68 12.30 22.32 11.72 C 21.91 11.04 22.32 10.91 23.48 11.35 C 25.00 11.94 25.09 11.81 24.02 10.52 C 22.90 9.17 24.80 8.97 41.13 8.76 C 60.95 8.51 94.17 8.84 94.63 9.29 C 94.78 9.45 94.53 12.26 94.07 15.54 C 93.61 18.82 93.41 32.30 93.62 45.50 C 93.83 58.70 94.01 70.29 94.00 71.25 C 94.00 72.21 94.34 73.00 94.75 73.00 C 95.16 73.00 95.55 57.91 95.61 39.46 L 95.71 5.92 L 74.11 6.39 C 62.22 6.65 41.59 6.89 28.25 6.93 L 4.00 7.00 L 4.00 11.50 L 4.00 16.00 L 8.94 16.00 C 21.06 16.00 46.84 25.28 52.01 31.51 C 53.57 33.39 53.45 33.39 40.37 31.08 C 28.35 28.96 25.50 27.97 12.75 21.40 L 4.00 16.90 L 4.00 20.28 C 4.00 23.60 4.20 23.75 14.75 28.71 C 29.75 35.75 31.38 36.16 55.42 38.84 L 61.33 39.50 L 62.64 46.00 C 65.86 61.99 69.78 71.37 79.79 87.00 C 85.33 95.67 85.76 96.00 91.15 96.00 C 95.29 96.00 96.00 95.72 96.00 94.05 Z M 83.02 80.74 C 80.56 76.76 77.72 71.92 76.72 70.00 C 74.30 65.38 68.83 49.01 69.26 47.71 C 69.69 46.43 75.75 54.74 79.70 62.03 C 83.37 68.81 88.26 83.22 87.82 85.96 C 87.58 87.46 86.36 86.13 83.02 80.74 Z" fill="none" stroke="rgba(255,255,255,0.92)" stroke-width="1.2" stroke-linejoin="round" fill-rule="evenodd"/>
</svg>
