<svg xmlns="http://www.w3.org/2000/svg" viewBox="0 0 100 100" width="100" height="100">
  <path d="M 0.00 50.00 L 0.00 0.00 L 50.00 0.00 L 100.00 0.00 L 100.00 50.00 L 100.00 100.00 L 50.00 100.00 L 0.00 100.00 L 0.00 50.00 Z M 9.50 88.00 C 9.50 83.60 9.24 80.00 8.93 80.00 C 8.22 80.00 8.68 68.75 9.56 64.74 C 10.01 62.67 9.87 61.96 9.11 62.43 C 8.50 62.81 8.00 62.64 8.00 62.06 C 8.00 61.48 8.42 61.00 8.93 61.00 C 9.47 61.00 9.53 59.84 9.08 58.25 C 8.18 55.11 8.47 38.25 9.47 35.10 C 9.84 33.92 9.70 33.00 9.14 33.00 C 8.49 33.00 8.46 31.87 9.06 29.80 C 9.69 27.61 9.62 26.39 8.86 25.91 C 7.80 25.26 8.00 21.65 9.60 12.50 C 10.01 10.14 9.88 9.82 9.02 11.00 C 8.08 12.27 7.94 12.19 8.07 10.50 C 8.39 6.45 7.97 4.00 6.96 4.00 C 6.24 4.00 6.05 18.37 6.35 49.75 C 6.60 74.91 6.84 95.61 6.90 95.75 C 6.95 95.89 7.56 96.00 8.25 96.00 C 9.15 96.00 9.50 93.73 9.50 88.00 Z M 24.20 90.75 L 24.50 85.50 L 56.25 85.21 L 88.00 84.93 L 88.00 90.46 L 88.00 96.00 L 91.16 96.00 L 94.31 96.00 L 93.66 60.25 C 93.31 40.59 93.01 19.89 93.01 14.25 L 93.00 4.00 L 90.00 4.00 C 87.11 4.00 87.00 4.17 87.00 8.50 L 87.00 13.00 L 55.57 13.00 C 25.48 13.00 24.11 12.92 23.53 11.09 C 23.19 10.03 23.21 8.01 23.57 6.59 C 24.20 4.07 24.09 4.00 19.36 4.02 C 16.28 4.03 14.99 4.34 15.85 4.88 C 17.25 5.77 17.75 22.28 17.92 73.75 L 18.00 96.00 L 20.95 96.00 C 23.80 96.00 23.91 95.83 24.20 90.75 Z M 24.00 72.00 L 24.00 65.00 L 56.00 65.00 L 88.00 65.00 L 88.00 72.00 L 88.00 79.00 L 56.00 79.00 L 24.00 79.00 L 24.00 72.00 Z M 24.00 50.50 L 24.00 42.00 L 56.11 42.00 C 84.97 42.00 88.15 42.16 87.61 43.58 C 87.27 44.45 87.00 48.28 87.00 52.08 L 87.00 59.00 L 55.50 59.00 L 24.00 59.00 L 24.00 50.50 Z M 23.71 36.18 C 23.53 35.81 23.41 31.90 23.44 27.50 L 23.50 19.50 L 55.25 19.00 L 87.00 18.50 L 87.00 27.25 L 87.00 36.00 L 61.75 36.15 C 47.86 36.24 33.70 36.43 30.27 36.59 C 26.84 36.74 23.89 36.56 23.71 36.18 Z M 13.00 5.00 C 13.00 4.45 12.52 4.00 11.94 4.00 C 11.36 4.00 11.16 4.45 11.50 5.00 C 11.84 5.55 12.32 6.00 12.56 6.00 C 12.80 6.00 13.00 5.55 13.00 5.00 Z M 35.40 5.17 C 35.68 4.71 34.60 4.33 33.00 4.33 C 31.40 4.33 30.32 4.71 30.60 5.17 C 31.27 6.25 34.73 6.25 35.40 5.17 Z M 38.73 5.40 C 38.40 5.06 37.53 5.03 36.81 5.32 C 36.01 5.64 36.25 5.87 37.42 5.92 C 38.47 5.96 39.06 5.73 38.73 5.40 Z M 41.73 4.40 C 41.40 4.06 40.53 4.03 39.81 4.32 C 39.01 4.64 39.25 4.87 40.42 4.92 C 41.47 4.96 42.06 4.73 41.73 4.40 Z" fill="none" stroke="rgba(255,255,255,0.92)" stroke-width="1.2" stroke-linejoin="round" fill-rule="evenodd"/>
</svg>
