<svg xmlns="http://www.w3.org/2000/svg" viewBox="0 0 100 100" width="100" height="100">
  <path d="M 0.00 50.00 L 0.00 0.00 L 50.00 0.00 L 100.00 0.00 L 100.00 50.00 L 100.00 100.00 L 50.00 100.00 L 0.00 100.00 L 0.00 50.00 Z M 17.67 93.75 C 20.80 90.26 30.45 74.96 32.33 70.50 C 33.26 68.30 35.29 60.42 36.84 53.00 L 39.65 39.50 L 48.58 37.92 C 66.58 34.74 73.86 32.05 88.75 23.12 L 96.00 18.77 L 96.00 12.87 L 96.00 6.98 L 50.25 7.61 C 25.09 7.96 4.31 8.42 4.08 8.62 C 2.30 10.23 8.95 10.36 45.10 9.43 C 66.27 8.89 73.88 9.00 74.41 9.85 C 74.80 10.49 74.53 11.03 73.81 11.07 C 73.09 11.11 73.36 11.48 74.40 11.89 C 75.86 12.46 74.46 13.29 68.40 15.43 C 54.39 20.40 45.41 25.59 33.73 35.47 C 23.65 44.00 12.85 59.85 8.87 71.97 C 6.38 79.57 6.17 79.90 5.04 78.07 C 4.53 77.24 4.15 80.59 4.09 86.34 L 3.99 96.00 L 9.82 96.00 C 14.60 96.00 16.01 95.60 17.67 93.75 Z M 11.01 89.42 C 11.04 84.26 13.89 74.18 17.42 66.73 C 20.56 60.13 30.25 46.00 31.64 46.00 C 33.50 46.00 28.16 65.83 24.48 72.64 C 21.86 77.48 13.60 89.66 11.41 91.92 C 11.18 92.15 11.01 91.02 11.01 89.42 Z M 49.48 31.09 C 53.86 26.10 79.85 16.22 86.05 17.18 C 89.64 17.74 71.41 26.60 61.00 29.36 C 55.77 30.74 50.60 32.20 49.50 32.60 C 47.51 33.34 47.51 33.33 49.48 31.09 Z" fill="none" stroke="rgba(255,255,255,0.92)" stroke-width="1.2" stroke-linejoin="round" fill-rule="evenodd"/>
</svg>
