<svg xmlns="http://www.w3.org/2000/svg" viewBox="0 0 100 100" width="100" height="100">
  <path d="M 0.00 50.00 L 0.00 0.00 L 50.00 0.00 L 100.00 0.00 L 100.00 50.00 L 100.00 100.00 L 50.00 100.00 L 0.00 100.00 L 0.00 50.00 Z M 72.57 93.82 L 95.65 93.67 L 95.26 49.11 C 95.05 24.59 94.62 4.31 94.30 4.02 C 93.98 3.73 93.53 4.06 93.28 4.75 C 93.03 5.44 92.39 6.00 91.86 6.00 C 91.32 6.00 91.20 5.49 91.58 4.87 C 92.00 4.19 91.74 3.92 90.94 4.19 C 89.91 4.53 89.62 7.32 89.70 16.07 C 90.11 60.85 90.08 87.05 89.62 87.81 C 89.32 88.29 83.85 88.75 77.47 88.83 C 66.95 88.95 65.89 88.80 66.19 87.23 C 66.47 85.77 67.90 85.45 75.26 85.21 C 83.80 84.93 84.00 84.87 84.00 82.46 C 84.00 80.03 83.90 80.00 75.00 80.00 C 66.20 80.00 66.00 79.95 66.00 77.63 C 66.00 75.36 66.40 75.23 75.00 74.55 C 83.67 73.88 84.00 73.76 84.00 71.42 C 84.00 69.04 83.86 69.00 75.00 69.00 C 66.10 69.00 66.00 68.97 66.00 66.54 C 66.00 64.13 66.20 64.07 74.75 63.79 C 83.34 63.51 83.50 63.45 83.50 61.00 C 83.50 58.54 83.36 58.50 75.00 58.37 C 66.77 58.24 66.50 58.16 66.50 55.87 C 66.50 53.60 66.87 53.48 75.00 53.00 C 82.88 52.54 83.52 52.33 83.82 50.25 C 84.13 48.06 83.90 48.00 75.07 48.00 C 66.06 48.00 66.00 47.98 66.00 45.50 C 66.00 43.03 66.10 43.00 74.50 43.00 L 83.00 43.00 L 83.00 40.00 L 83.00 37.00 L 74.50 37.00 C 66.10 37.00 66.00 36.97 66.00 34.50 C 66.00 32.03 66.10 32.00 74.50 32.00 L 83.00 32.00 L 83.00 29.01 L 83.00 26.01 L 74.50 26.65 L 66.00 27.28 L 66.00 24.14 L 66.00 21.00 L 74.50 21.00 C 82.90 21.00 83.00 20.97 83.00 18.50 C 83.00 16.03 82.89 16.00 74.61 16.00 C 67.86 16.00 66.09 15.69 65.60 14.41 C 64.51 11.56 65.99 11.00 74.56 11.00 L 83.00 11.00 L 83.00 8.11 L 83.00 5.22 L 74.64 5.74 C 68.98 6.10 66.06 5.90 65.58 5.13 C 65.20 4.51 63.79 4.00 62.45 4.00 L 60.02 4.00 L 59.76 46.25 L 59.50 88.50 L 31.75 88.77 L 4.00 89.03 L 4.00 92.14 L 4.00 95.24 L 26.75 94.61 C 39.26 94.26 59.88 93.91 72.57 93.82 Z M 76.50 92.00 C 76.84 91.45 77.57 91.00 78.12 91.00 C 78.67 91.00 78.84 91.45 78.50 92.00 C 78.16 92.55 77.43 93.00 76.88 93.00 C 76.33 93.00 76.16 92.55 76.50 92.00 Z M 92.00 74.50 C 92.00 73.67 92.45 73.00 93.00 73.00 C 93.55 73.00 94.00 73.67 94.00 74.50 C 94.00 75.33 93.55 76.00 93.00 76.00 C 92.45 76.00 92.00 75.33 92.00 74.50 Z M 26.03 63.48 C 31.30 60.76 33.68 52.84 30.56 48.39 C 29.31 46.60 29.31 45.79 30.57 42.13 C 32.42 36.75 31.63 33.76 27.36 30.01 C 22.26 25.54 17.28 25.80 11.73 30.84 C 9.40 32.94 6.71 34.96 5.75 35.30 C 4.24 35.85 4.00 37.32 4.00 45.90 C 4.00 54.94 4.18 55.92 5.97 56.49 C 7.06 56.84 8.75 58.12 9.72 59.35 C 14.20 64.95 20.23 66.48 26.03 63.48 Z M 92.08 62.42 C 92.13 61.25 92.36 61.01 92.68 61.81 C 92.97 62.53 92.94 63.40 92.60 63.73 C 92.27 64.06 92.04 63.47 92.08 62.42 Z M 91.64 50.50 C 91.95 49.67 92.39 49.00 92.61 49.00 C 92.82 49.00 93.00 49.67 93.00 50.50 C 93.00 51.33 92.56 52.00 92.03 52.00 C 91.50 52.00 91.32 51.33 91.64 50.50 Z M 91.69 46.27 C 91.45 45.84 91.57 44.62 91.96 43.55 C 92.63 41.70 92.69 41.71 93.24 43.80 C 93.79 45.92 92.60 47.83 91.69 46.27 Z M 91.71 36.00 C 91.42 34.90 91.60 34.00 92.09 34.00 C 92.59 34.00 93.00 34.90 93.00 36.00 C 93.00 37.10 92.83 38.00 92.62 38.00 C 92.41 38.00 92.00 37.10 91.71 36.00 Z M 91.68 27.35 C 92.15 20.79 92.94 18.98 93.12 24.08 C 93.28 28.87 92.95 31.37 92.05 32.31 C 91.62 32.76 91.46 30.53 91.68 27.35 Z M 92.12 12.00 C 92.17 7.85 92.24 7.72 93.04 10.41 C 93.56 12.13 93.53 13.98 92.99 14.91 C 92.32 16.05 92.08 15.22 92.12 12.00 Z" fill="none" stroke="rgba(255,255,255,0.92)" stroke-width="1.2" stroke-linejoin="round" fill-rule="evenodd"/>
</svg>
