<svg xmlns="http://www.w3.org/2000/svg" viewBox="0 0 100 100" width="100" height="100">
  <path d="M 0.00 50.00 L 0.00 0.00 L 50.00 0.00 L 100.00 0.00 L 100.00 50.00 L 100.00 100.00 L 50.00 100.00 L 0.00 100.00 L 0.00 50.00 Z M 7.19 92.25 C 7.44 90.19 7.39 85.24 7.06 81.25 L 6.48 74.00 L 9.79 73.38 C 11.61 73.04 13.41 73.08 13.80 73.46 C 14.18 73.85 14.53 77.62 14.56 81.83 L 14.62 89.50 L 43.56 89.81 C 59.48 89.98 76.67 89.82 81.77 89.46 L 91.03 88.81 L 90.37 80.91 L 89.71 73.00 L 92.86 73.00 C 95.67 73.00 96.00 72.69 96.00 70.07 C 96.00 67.61 95.55 67.08 93.25 66.82 L 90.50 66.50 L 90.22 53.25 L 89.94 40.00 L 92.97 40.00 C 95.67 40.00 96.00 39.67 96.00 37.00 C 96.00 34.33 95.67 34.00 93.00 34.00 L 90.00 34.00 L 90.00 26.00 L 90.00 18.00 L 52.00 18.00 L 14.00 18.00 L 14.00 26.64 L 14.00 35.28 L 9.00 34.69 L 4.00 34.09 L 4.00 37.05 C 4.00 39.92 4.13 40.00 9.00 40.00 L 14.00 40.00 L 14.00 54.00 L 14.00 68.00 L 9.00 68.00 C 4.13 68.00 4.00 68.08 4.00 70.95 C 4.00 72.58 4.54 75.09 5.19 76.53 C 6.12 78.56 6.12 79.58 5.19 81.06 C 3.69 83.47 3.63 86.35 5.10 85.44 C 5.87 84.96 5.86 85.39 5.06 86.88 C 4.18 88.53 4.22 89.00 5.21 89.02 C 6.12 89.03 6.06 89.32 5.00 90.02 C 3.67 90.89 3.67 91.11 5.00 91.98 C 6.00 92.64 6.09 92.97 5.25 92.98 C 4.56 92.99 4.00 93.67 4.00 94.50 C 4.00 97.80 6.75 95.86 7.19 92.25 Z M 20.00 54.03 L 20.00 24.06 L 51.75 23.78 C 69.21 23.62 83.58 23.50 83.67 23.50 C 83.76 23.50 83.99 37.00 84.17 53.50 L 84.50 83.50 L 80.25 83.81 L 76.00 84.11 L 76.00 74.19 C 76.00 59.72 74.74 54.34 70.29 49.78 C 65.05 44.42 59.87 42.70 50.23 43.14 C 43.48 43.45 41.72 43.92 38.16 46.39 C 30.65 51.59 29.55 54.52 29.15 70.25 L 28.81 84.00 L 24.40 84.00 L 20.00 84.00 L 20.00 54.03 Z M 35.17 70.58 L 35.50 57.11 L 38.88 53.62 C 46.83 45.43 63.53 47.38 68.55 57.09 C 69.71 59.33 70.00 62.79 69.78 71.76 L 69.50 83.50 L 52.17 83.77 L 34.84 84.05 L 35.17 70.58 Z M 6.81 21.59 L 6.50 10.19 L 16.50 10.13 C 22.00 10.10 42.14 10.06 61.25 10.04 L 96.00 10.00 L 96.00 7.50 L 96.00 5.00 L 50.02 5.00 L 4.03 5.00 L 4.18 12.25 C 4.27 16.24 4.76 19.78 5.27 20.12 C 5.83 20.49 5.70 21.68 4.96 23.08 C 4.01 24.85 3.99 25.50 4.90 25.80 C 5.80 26.10 5.81 26.53 4.92 27.60 C 4.02 28.68 4.06 29.00 5.13 29.02 C 5.95 29.02 6.10 29.32 5.50 29.77 C 3.85 30.98 3.89 33.00 5.56 33.00 C 6.90 33.00 7.08 31.40 6.81 21.59 Z M 27.81 7.32 C 28.53 7.03 29.40 7.06 29.73 7.40 C 30.06 7.73 29.47 7.96 28.42 7.92 C 27.25 7.87 27.01 7.64 27.81 7.32 Z M 54.81 7.32 C 55.53 7.03 56.40 7.06 56.73 7.40 C 57.06 7.73 56.47 7.96 55.42 7.92 C 54.25 7.87 54.01 7.64 54.81 7.32 Z" fill="none" stroke="rgba(255,255,255,0.92)" stroke-width="1.2" stroke-linejoin="round" fill-rule="evenodd"/>
</svg>
