<svg xmlns="http://www.w3.org/2000/svg" viewBox="0 0 100 100" width="100" height="100">
  <path d="M 0.00 50.00 L 0.00 0.00 L 50.00 0.00 L 100.00 0.00 L 100.00 50.00 L 100.00 100.00 L 50.00 100.00 L 0.00 100.00 L 0.00 50.00 Z M 91.41 95.36 L 96.10 94.71 L 95.80 90.21 L 95.50 85.70 L 78.00 79.56 L 60.50 73.41 L 60.19 68.67 C 59.90 64.18 60.01 63.96 62.19 64.43 C 70.80 66.27 92.42 69.95 94.82 69.98 C 95.66 69.99 96.02 69.03 95.82 67.31 C 95.50 64.64 95.37 64.60 78.00 61.56 L 60.50 58.50 L 60.19 54.25 L 59.89 50.00 L 77.94 50.00 L 96.00 50.00 L 96.00 46.96 L 96.00 43.91 L 77.94 44.61 L 59.88 45.31 L 60.19 40.46 L 60.50 35.62 L 78.00 32.00 L 95.50 28.39 L 95.80 25.36 L 96.10 22.33 L 78.32 26.09 C 68.53 28.17 60.45 29.78 60.36 29.68 C 60.26 29.58 60.04 27.75 59.86 25.60 C 59.63 22.92 59.99 21.44 61.01 20.87 C 61.83 20.41 69.92 17.14 79.00 13.60 C 99.01 5.80 100.64 3.94 87.32 4.12 C 82.15 4.19 79.72 4.50 81.44 4.87 C 84.02 5.42 82.91 6.06 72.19 10.14 C 61.61 14.17 60.00 14.55 60.00 13.02 C 60.00 12.05 59.72 9.86 59.38 8.16 L 58.77 5.08 L 68.63 4.74 C 74.06 4.56 62.37 4.43 42.65 4.45 L 6.80 4.50 L 6.94 29.00 C 7.02 42.48 7.30 60.70 7.56 69.50 C 7.82 78.30 8.02 87.86 8.02 90.75 L 8.00 96.00 L 47.36 96.00 C 69.01 96.00 88.83 95.71 91.41 95.36 Z M 28.11 90.55 C 28.95 89.71 51.84 81.00 53.21 81.00 C 54.11 81.00 54.63 82.44 54.75 85.35 L 54.94 89.71 L 46.72 90.35 C 37.17 91.09 27.47 91.20 28.11 90.55 Z M 60.91 89.25 C 60.32 84.56 60.34 80.00 60.94 80.00 C 61.35 80.00 67.94 82.23 75.59 84.95 L 89.50 89.90 L 75.25 89.95 C 67.41 89.98 60.96 89.66 60.91 89.25 Z M 13.64 85.25 C 12.89 80.70 12.81 73.00 13.51 73.00 C 13.79 73.00 21.55 71.41 30.76 69.46 C 53.29 64.70 52.84 64.78 53.80 65.38 C 54.27 65.66 54.39 67.76 54.07 70.04 L 53.50 74.18 L 34.10 81.59 C 23.44 85.67 14.61 89.00 14.48 89.00 C 14.36 89.00 13.98 87.31 13.64 85.25 Z M 13.68 66.34 C 13.30 65.97 13.00 62.37 13.00 58.33 L 13.00 51.00 L 33.50 51.00 L 54.00 51.00 L 54.00 55.00 C 54.00 57.20 53.73 59.00 53.41 59.00 C 52.50 59.00 17.71 66.00 15.93 66.54 C 15.06 66.81 14.05 66.72 13.68 66.34 Z M 13.00 37.50 C 13.00 28.30 12.98 28.44 14.17 28.77 C 14.70 28.92 23.07 30.38 32.76 32.02 C 42.45 33.65 51.20 35.24 52.19 35.56 C 53.58 36.00 54.00 37.17 54.00 40.57 L 54.00 45.00 L 33.50 45.00 L 13.00 45.00 L 13.00 37.50 Z M 32.50 26.25 C 22.05 24.30 13.32 22.55 13.09 22.36 C 12.59 21.94 11.82 7.00 12.30 7.00 C 12.74 7.00 39.42 16.37 47.50 19.36 C 53.43 21.56 53.50 21.64 53.81 25.79 C 54.03 28.78 53.74 29.97 52.81 29.90 C 52.09 29.85 42.95 28.21 32.50 26.25 Z M 39.72 10.59 C 33.24 8.28 28.25 6.08 28.64 5.70 C 29.58 4.75 52.96 4.80 53.14 5.75 C 53.78 9.34 53.43 14.98 52.56 14.89 C 51.98 14.84 46.20 12.90 39.72 10.59 Z" fill="none" stroke="rgba(255,255,255,0.92)" stroke-width="1.2" stroke-linejoin="round" fill-rule="evenodd"/>
</svg>
