<svg xmlns="http://www.w3.org/2000/svg" viewBox="0 0 100 100" width="100" height="100">
  <path d="M 0.00 50.00 L 0.00 0.00 L 50.00 0.00 L 100.00 0.00 L 100.00 50.00 L 100.00 100.00 L 50.00 100.00 L 0.00 100.00 L 0.00 50.00 Z M 9.44 94.90 C 8.23 92.95 8.03 84.67 9.16 83.31 C 9.85 82.47 9.90 81.55 9.30 80.75 C 8.22 79.32 8.17 69.50 9.24 68.43 C 9.63 68.04 9.65 67.24 9.28 66.64 C 8.33 65.11 8.34 58.00 9.29 58.00 C 9.72 58.00 9.60 57.13 9.04 56.07 C 7.57 53.32 7.75 51.97 9.50 52.64 C 10.33 52.95 11.00 52.72 11.00 52.11 C 11.00 51.50 10.60 51.00 10.11 51.00 C 8.66 51.00 7.83 47.72 9.07 46.95 C 9.90 46.44 9.91 46.06 9.11 45.57 C 8.50 45.19 8.01 43.90 8.02 42.69 C 8.03 41.11 8.27 40.87 8.88 41.83 C 9.43 42.71 9.68 42.12 9.61 40.09 C 9.55 38.39 9.24 37.00 8.92 37.00 C 8.60 37.00 8.33 35.65 8.33 34.00 C 8.33 30.72 9.55 29.97 10.36 32.75 C 10.65 33.73 10.78 33.40 10.66 32.00 C 10.55 30.62 9.90 29.61 9.23 29.75 C 7.70 30.06 7.49 18.43 9.00 17.50 C 9.55 17.16 10.00 16.43 10.00 15.88 C 10.00 15.33 9.55 15.16 9.00 15.50 C 8.44 15.85 8.03 15.11 8.08 13.81 C 8.12 12.54 8.38 12.06 8.66 12.75 C 8.94 13.44 9.58 14.00 10.08 14.00 C 10.59 14.00 11.00 13.44 11.00 12.75 C 11.00 11.82 14.39 11.46 24.25 11.36 C 31.54 11.29 50.66 11.09 66.75 10.92 L 96.00 10.62 L 96.00 7.99 L 96.00 5.36 L 51.75 5.74 C 27.41 5.95 7.04 6.27 6.48 6.44 C 5.84 6.64 5.53 11.73 5.65 20.13 C 5.76 27.48 5.89 47.27 5.94 64.10 C 5.99 80.92 6.32 94.99 6.68 95.35 C 7.79 96.45 10.16 96.07 9.44 94.90 Z M 10.66 91.75 C 10.38 91.06 10.16 91.62 10.16 93.00 C 10.16 94.38 10.38 94.94 10.66 94.25 C 10.94 93.56 10.94 92.44 10.66 91.75 Z M 94.60 89.74 C 95.21 89.12 95.31 23.84 94.70 20.63 C 94.36 18.85 92.73 18.78 56.99 18.94 C 36.44 19.03 19.27 19.34 18.82 19.61 C 17.84 20.22 17.74 56.70 18.67 76.89 L 19.32 91.27 L 56.67 90.79 C 77.21 90.53 94.28 90.05 94.60 89.74 Z M 24.04 55.00 L 23.92 25.00 L 49.71 24.92 C 63.90 24.87 78.28 24.63 81.67 24.39 C 86.97 24.01 87.91 24.20 88.28 25.73 C 89.02 28.72 89.21 78.75 88.51 81.97 C 87.91 84.70 87.46 85.00 84.02 85.00 L 80.19 85.00 L 79.85 71.16 C 79.51 57.83 79.40 57.17 76.64 53.20 C 68.84 41.95 48.63 40.57 38.61 50.61 C 33.86 55.36 33.00 58.71 33.00 72.47 L 33.00 85.00 L 28.58 85.00 L 24.16 85.00 L 24.04 55.00 Z M 39.00 73.25 C 39.00 60.22 40.19 56.34 45.32 52.57 C 49.15 49.76 63.16 49.57 67.28 52.26 C 72.62 55.76 73.47 58.34 73.85 72.20 L 74.20 85.00 L 56.60 85.00 L 39.00 85.00 L 39.00 73.25 Z M 71.81 8.32 C 72.53 8.03 73.40 8.06 73.73 8.40 C 74.06 8.73 73.47 8.96 72.42 8.92 C 71.25 8.87 71.01 8.64 71.81 8.32 Z" fill="none" stroke="rgba(255,255,255,0.92)" stroke-width="1.2" stroke-linejoin="round" fill-rule="evenodd"/>
</svg>
