<svg xmlns="http://www.w3.org/2000/svg" viewBox="0 0 100 100" width="100" height="100">
  <path d="M 0.00 50.00 L 0.00 0.00 L 50.00 0.00 L 100.00 0.00 L 100.00 50.00 L 100.00 100.00 L 50.00 100.00 L 0.00 100.00 L 0.00 50.00 Z M 96.00 49.89 L 96.00 3.77 L 80.75 4.35 C 72.36 4.67 51.66 4.95 34.75 4.97 L 4.00 5.00 L 4.00 7.50 L 4.00 10.00 L 16.75 10.02 C 23.76 10.03 43.67 10.14 61.00 10.27 L 92.50 10.50 L 92.76 53.25 C 92.99 90.33 93.22 96.00 94.51 96.00 C 95.81 96.00 96.00 90.06 96.00 49.89 Z M 41.14 85.41 C 46.79 82.53 51.49 82.15 57.11 84.13 C 64.68 86.80 68.79 86.57 72.20 83.31 C 75.53 80.12 75.72 77.32 72.96 71.92 C 68.59 63.36 59.57 55.89 51.91 54.49 C 43.15 52.89 33.70 59.40 27.46 71.33 C 24.62 76.75 24.57 77.04 26.02 81.18 C 28.34 87.86 33.51 89.31 41.14 85.41 Z M 29.25 64.81 C 34.70 58.49 27.42 44.92 17.74 43.34 C 14.74 42.86 14.01 43.18 12.14 45.80 C 9.43 49.60 9.42 54.17 12.10 59.71 C 15.78 67.31 24.79 69.99 29.25 64.81 Z M 80.15 64.88 C 83.15 63.35 86.31 55.31 85.70 50.77 C 84.86 44.54 82.07 41.47 77.39 41.63 C 72.57 41.80 68.66 46.10 66.98 53.07 C 65.58 58.92 66.19 61.14 70.13 64.46 C 73.17 67.01 75.77 67.12 80.15 64.88 Z M 62.65 48.82 C 65.45 47.45 68.11 41.47 68.18 36.35 C 68.31 26.82 61.26 20.54 55.24 24.83 C 51.40 27.56 48.58 35.68 49.45 41.48 C 49.93 44.72 50.94 46.61 53.17 48.49 C 56.27 51.10 57.89 51.15 62.65 48.82 Z M 41.61 49.23 C 44.14 47.56 46.18 41.77 45.52 38.13 C 44.49 32.38 41.30 26.61 38.12 24.73 C 34.34 22.49 32.84 22.55 29.67 25.04 C 21.91 31.15 27.56 50.03 37.13 49.98 C 38.99 49.98 41.00 49.64 41.61 49.23 Z" fill="none" stroke="rgba(255,255,255,0.92)" stroke-width="1.2" stroke-linejoin="round" fill-rule="evenodd"/>
</svg>
