<svg xmlns="http://www.w3.org/2000/svg" viewBox="0 0 100 100" width="100" height="100">
  <path d="M 0.00 50.00 L 0.00 0.00 L 50.00 0.00 L 100.00 0.00 L 100.00 50.00 L 100.00 100.00 L 50.00 100.00 L 0.00 100.00 L 0.00 50.00 Z M 96.00 91.92 L 96.00 88.85 L 52.52 89.17 L 9.05 89.50 L 8.55 87.00 C 8.27 85.62 8.11 83.83 8.18 83.00 C 8.25 82.17 8.24 64.06 8.16 42.75 C 8.00 4.72 7.96 4.00 6.00 4.00 C 4.03 4.00 4.00 4.67 4.00 49.50 L 4.00 95.00 L 50.00 95.00 L 96.00 95.00 L 96.00 91.92 Z M 55.95 63.53 C 57.51 62.72 59.70 60.81 60.81 59.28 L 62.84 56.50 L 79.42 56.18 L 96.00 55.87 L 96.00 45.93 L 96.00 36.00 L 79.50 36.00 L 63.01 36.00 L 59.25 32.64 C 53.99 27.94 51.47 26.82 47.74 27.53 C 39.81 29.03 35.81 36.86 39.41 43.82 C 40.61 46.15 40.61 46.81 39.41 48.46 C 36.36 52.63 38.69 61.56 43.42 63.86 C 46.52 65.36 52.72 65.20 55.95 63.53 Z" fill="none" stroke="rgba(255,255,255,0.92)" stroke-width="1.2" stroke-linejoin="round" fill-rule="evenodd"/>
</svg>
