<svg xmlns="http://www.w3.org/2000/svg" viewBox="0 0 400 216" width="400" height="216">
  <path d="M 0.00 108.00 L 0.00 0.00 L 200.00 0.00 L 400.00 0.00 L 400.00 108.00 L 400.00 216.00 L 200.00 216.00 L 0.00 216.00 L 0.00 108.00 Z M 107.88 210.45 C 108.17 210.16 108.31 203.07 108.18 194.71 C 108.05 186.34 107.78 164.35 107.58 145.83 L 107.22 112.16 L 109.36 111.69 C 112.39 111.02 129.77 110.91 270.19 110.67 C 338.77 110.55 395.15 110.18 395.49 109.85 C 396.17 109.16 396.24 5.91 395.56 5.23 C 394.60 4.26 100.69 5.28 41.00 6.45 C 29.72 6.67 17.09 6.89 12.92 6.93 L 5.34 7.00 L 5.60 25.75 C 5.75 36.06 6.13 81.79 6.45 127.37 C 6.77 172.95 7.27 210.64 7.57 211.11 C 8.14 212.03 106.95 211.38 107.88 210.45 Z M 11.04 205.00 C 9.33 201.64 9.03 198.11 10.33 196.81 C 12.16 194.98 12.01 192.02 10.08 191.92 C 9.19 191.88 9.01 191.64 9.66 191.37 C 10.48 191.03 10.56 189.95 9.91 187.70 C 8.80 183.81 8.80 184.00 9.93 184.00 C 10.44 184.00 11.05 184.79 11.29 185.75 C 11.54 186.71 11.74 185.25 11.75 182.50 C 11.76 179.75 11.26 176.86 10.64 176.09 C 9.78 175.02 9.81 174.57 10.75 174.25 C 12.37 173.71 12.37 169.30 10.75 168.71 C 9.75 168.34 9.75 167.99 10.75 166.93 C 11.44 166.20 12.00 163.68 12.00 161.33 C 12.00 157.95 11.69 157.18 10.50 157.64 C 9.56 158.00 9.00 157.63 9.00 156.64 C 9.00 155.74 9.57 155.28 10.33 155.57 C 11.28 155.94 11.63 155.11 11.58 152.64 C 11.53 150.75 11.11 149.44 10.64 149.72 C 9.87 150.20 10.28 148.20 11.82 144.00 C 12.31 142.67 12.17 142.67 10.50 144.00 C 8.77 145.38 8.69 145.34 9.44 143.50 C 9.89 142.40 10.46 140.38 10.71 139.00 C 11.06 137.02 10.93 136.81 10.09 138.00 C 9.21 139.24 9.03 139.11 9.02 137.25 C 9.01 135.78 9.61 134.99 10.75 134.97 C 12.42 134.94 12.42 134.87 10.75 133.61 C 8.83 132.15 8.40 130.00 10.04 130.00 C 10.71 130.00 10.75 129.38 10.15 128.25 C 9.64 127.29 9.23 125.30 9.24 123.83 C 9.25 121.83 9.66 121.28 10.88 121.66 C 12.33 122.11 12.34 122.02 10.96 120.83 C 10.11 120.10 9.35 118.48 9.27 117.23 C 8.97 112.69 11.41 112.31 42.00 112.10 C 57.68 112.00 77.13 111.79 85.24 111.64 C 93.34 111.49 100.38 111.62 100.88 111.93 C 101.39 112.25 102.04 133.06 102.37 159.18 L 102.96 205.86 L 82.23 206.03 C 14.17 206.60 11.84 206.57 11.04 205.00 Z M 296.33 199.07 C 297.02 198.38 297.48 194.29 297.49 188.71 L 297.50 179.50 L 291.12 179.20 C 287.61 179.03 283.50 179.33 281.99 179.85 C 279.89 180.59 278.88 180.45 277.70 179.27 C 276.80 178.37 275.43 178.00 274.43 178.39 C 272.91 178.97 272.78 180.20 273.27 189.16 C 273.59 194.98 274.30 199.57 274.95 199.97 C 276.79 201.10 295.06 200.34 296.33 199.07 Z M 269.54 197.87 C 270.29 195.50 269.31 181.30 267.98 175.42 C 267.28 172.31 267.49 171.12 269.17 168.76 C 271.43 165.58 270.97 163.95 268.42 166.07 C 267.02 167.22 266.60 167.17 265.53 165.71 C 264.84 164.77 263.48 164.00 262.51 164.00 C 260.96 164.00 260.83 164.63 261.41 169.06 C 262.02 173.67 261.81 174.49 259.01 178.30 C 255.49 183.09 256.87 184.91 260.58 180.37 C 262.68 177.80 262.94 177.71 263.08 179.50 C 263.35 182.96 262.96 184.02 259.37 189.63 C 254.93 196.58 255.53 199.13 260.09 192.66 L 263.50 187.82 L 264.38 190.86 C 265.35 194.22 264.57 197.47 263.01 196.50 C 261.60 195.64 261.75 197.35 263.20 198.80 C 265.17 200.77 268.79 200.24 269.54 197.87 Z M 279.67 198.33 C 278.31 196.97 279.06 193.04 280.87 192.07 C 283.29 190.77 284.00 191.58 284.00 195.67 C 284.00 198.23 283.58 199.00 282.17 199.00 C 281.16 199.00 280.03 198.70 279.67 198.33 Z M 215.00 196.00 C 215.00 194.90 214.44 193.98 213.75 193.96 C 213.06 193.94 210.81 193.68 208.75 193.38 C 205.48 192.91 205.00 193.09 205.00 194.86 C 205.00 196.38 205.79 196.97 208.25 197.28 C 214.79 198.09 215.00 198.05 215.00 196.00 Z M 287.88 196.75 C 287.44 192.16 287.65 190.62 288.75 190.25 C 289.61 189.96 290.00 191.09 290.00 193.92 C 290.00 196.16 289.55 198.00 289.00 198.00 C 288.45 198.00 287.95 197.44 287.88 196.75 Z M 324.00 197.62 C 324.00 197.41 323.33 195.64 322.51 193.68 C 321.69 191.71 320.32 185.48 319.47 179.82 C 317.84 168.92 317.15 167.35 314.45 168.38 C 313.03 168.93 312.88 169.89 313.49 174.75 C 314.42 182.23 317.69 194.92 319.12 196.64 C 320.11 197.84 324.00 198.62 324.00 197.62 Z M 230.81 194.75 C 231.08 193.35 230.44 193.00 227.66 193.00 C 223.14 193.00 221.00 193.86 221.00 195.66 C 221.00 197.95 230.37 197.08 230.81 194.75 Z M 304.38 195.46 C 304.70 194.61 305.26 188.87 305.61 182.71 C 306.18 172.75 306.59 170.86 309.33 165.79 C 312.23 160.43 312.51 157.95 310.05 159.47 C 309.46 159.84 308.09 161.86 307.02 163.96 C 305.94 166.07 304.33 168.53 303.43 169.42 C 302.26 170.60 301.51 174.28 300.79 182.52 C 300.23 188.82 300.04 194.66 300.36 195.49 C 301.11 197.45 303.62 197.43 304.38 195.46 Z M 358.92 191.96 C 363.67 187.62 364.96 187.91 364.98 193.32 C 365.00 195.80 365.33 196.10 367.75 195.82 C 370.41 195.51 370.51 195.29 370.80 188.75 L 371.09 182.00 L 375.49 182.00 C 377.90 182.00 380.16 181.55 380.50 181.00 C 380.88 180.38 379.03 180.00 375.63 180.00 C 370.38 180.00 370.12 179.88 369.82 177.25 C 369.57 175.13 368.90 174.43 366.88 174.20 L 364.26 173.89 L 365.77 167.02 C 367.68 158.32 367.19 157.00 362.10 157.00 C 358.53 157.00 358.10 156.72 357.76 154.25 C 357.42 151.79 357.30 151.71 356.59 153.50 C 356.16 154.60 355.64 156.06 355.44 156.75 C 355.23 157.44 353.73 158.00 352.09 158.00 C 350.46 158.00 348.80 158.51 348.42 159.13 C 347.93 159.92 348.68 160.13 350.86 159.81 C 354.85 159.22 354.88 160.32 351.01 167.98 C 349.37 171.23 348.42 174.14 348.90 174.44 C 349.99 175.11 351.88 172.24 355.28 164.75 C 358.32 158.06 360.59 157.02 359.64 162.75 C 359.30 164.81 359.02 167.51 359.01 168.75 C 359.00 170.41 358.41 171.01 356.75 171.02 L 354.50 171.04 L 357.00 173.03 C 358.54 174.25 360.36 174.81 361.75 174.49 C 363.76 174.02 364.00 174.34 364.00 177.48 L 364.00 181.00 L 359.00 181.00 C 356.25 181.00 354.00 181.45 354.00 182.00 C 354.00 182.55 356.02 183.00 358.50 183.00 C 360.98 183.00 363.00 183.38 363.00 183.85 C 363.00 184.31 360.33 187.24 357.07 190.35 C 350.21 196.90 351.90 198.38 358.92 191.96 Z M 199.74 193.29 C 200.20 191.89 193.23 188.70 191.30 189.44 C 189.05 190.30 189.88 192.04 193.25 193.52 C 196.93 195.14 199.15 195.06 199.74 193.29 Z M 382.45 191.75 C 381.40 188.32 378.94 186.00 376.35 186.00 C 373.46 186.00 373.38 187.33 376.07 191.10 C 378.72 194.82 383.53 195.31 382.45 191.75 Z M 312.40 187.48 C 312.16 175.19 311.99 173.93 310.46 173.35 C 309.61 173.02 308.65 173.01 308.33 173.33 C 308.02 173.65 308.08 178.23 308.48 183.51 C 309.09 191.68 309.44 193.06 310.85 192.79 C 312.14 192.54 312.48 191.37 312.40 187.48 Z M 334.50 189.15 C 337.80 188.76 341.06 188.09 341.75 187.66 C 343.50 186.57 343.31 181.50 341.46 179.96 C 339.51 178.35 338.25 179.57 337.83 183.50 C 337.52 186.29 337.15 186.54 332.50 187.11 C 329.75 187.44 327.16 187.53 326.75 187.30 C 326.34 187.07 326.00 184.30 326.00 181.15 L 326.00 175.41 L 331.72 175.46 C 336.84 175.50 337.57 175.24 338.70 173.00 C 340.36 169.74 340.39 162.33 338.75 161.84 C 338.06 161.63 333.73 161.62 329.11 161.81 L 320.73 162.16 L 321.38 175.78 C 322.05 189.95 322.62 191.57 326.50 190.45 C 327.60 190.13 331.20 189.55 334.50 189.15 Z M 279.19 186.26 C 279.41 183.64 280.03 182.42 281.25 182.18 C 282.68 181.91 283.00 182.59 283.00 185.93 C 283.00 189.37 282.68 190.00 280.94 190.00 C 279.17 190.00 278.92 189.47 279.19 186.26 Z M 287.00 185.00 C 287.00 182.11 287.42 181.00 288.50 181.00 C 289.58 181.00 290.00 182.11 290.00 185.00 C 290.00 187.89 289.58 189.00 288.50 189.00 C 287.42 189.00 287.00 187.89 287.00 185.00 Z M 185.55 186.92 C 186.32 185.67 181.25 180.00 179.37 180.00 C 176.58 180.00 176.81 182.44 179.86 185.16 C 183.29 188.23 184.51 188.60 185.55 186.92 Z M 175.27 175.40 C 176.03 174.64 171.89 166.00 170.77 166.00 C 169.00 166.00 168.79 169.33 170.34 172.59 C 171.84 175.74 173.81 176.86 175.27 175.40 Z M 282.12 175.00 C 282.19 174.45 282.36 173.55 282.50 173.00 C 282.64 172.45 282.81 171.55 282.88 171.00 C 282.94 170.45 283.90 170.00 285.00 170.00 C 286.48 170.00 287.00 170.67 287.00 172.57 C 287.00 174.66 287.42 175.08 289.25 174.82 C 290.70 174.61 291.61 173.70 291.82 172.25 C 292.02 170.80 292.83 170.00 294.07 170.00 C 295.13 170.00 296.00 169.55 296.00 169.00 C 296.00 168.45 295.13 168.00 294.06 168.00 C 292.49 168.00 292.06 167.19 291.81 163.75 C 291.56 160.27 291.14 159.50 289.50 159.50 C 287.86 159.50 287.44 160.27 287.19 163.75 C 286.94 167.21 286.52 168.00 284.92 168.00 C 283.52 168.00 282.77 167.11 282.34 164.95 C 281.82 162.36 281.33 161.94 279.11 162.20 C 276.87 162.46 276.52 162.95 276.64 165.66 C 276.74 168.07 276.27 169.00 274.64 169.54 L 272.50 170.25 L 274.75 170.70 C 276.07 170.96 277.00 171.87 277.00 172.90 C 277.00 173.87 277.30 174.97 277.67 175.33 C 278.70 176.37 281.99 176.12 282.12 175.00 Z M 325.40 172.61 C 324.55 170.38 325.40 163.48 326.50 163.74 C 327.90 164.07 328.40 174.00 327.02 174.00 C 326.42 174.00 325.70 173.37 325.40 172.61 Z M 331.00 168.58 C 331.00 164.20 331.33 163.00 332.55 163.00 C 333.79 163.00 334.04 164.03 333.80 168.17 C 333.37 175.58 331.00 175.93 331.00 168.58 Z M 383.39 167.23 C 384.83 158.78 383.79 157.54 375.15 157.44 C 367.08 157.35 367.45 156.81 368.64 166.70 L 369.27 171.90 L 373.38 172.29 C 382.20 173.14 382.41 173.04 383.39 167.23 Z M 373.00 164.50 C 373.00 160.48 373.37 159.00 374.39 159.00 C 375.87 159.00 376.70 162.78 376.18 167.25 C 376.00 168.82 375.25 170.00 374.43 170.00 C 373.36 170.00 373.00 168.61 373.00 164.50 Z M 9.00 160.00 C 9.00 159.45 9.45 159.00 10.00 159.00 C 10.55 159.00 11.00 159.45 11.00 160.00 C 11.00 160.55 10.55 161.00 10.00 161.00 C 9.45 161.00 9.00 160.55 9.00 160.00 Z M 168.99 159.75 C 168.93 153.27 166.42 148.90 164.51 151.98 C 163.49 153.63 165.96 161.00 167.54 161.00 C 168.34 161.00 169.00 160.44 168.99 159.75 Z M 104.50 147.00 C 104.16 146.45 104.36 146.00 104.94 146.00 C 105.52 146.00 106.00 146.45 106.00 147.00 C 106.00 147.55 105.80 148.00 105.56 148.00 C 105.32 148.00 104.84 147.55 104.50 147.00 Z M 167.00 143.50 C 167.00 142.41 168.12 142.00 171.11 142.00 C 173.98 142.00 175.07 141.62 174.75 140.75 C 174.49 140.06 172.32 133.54 169.92 126.25 C 167.52 118.96 165.26 113.00 164.90 113.00 C 164.53 113.00 164.00 113.79 163.72 114.75 C 163.17 116.60 155.69 137.28 154.49 140.25 C 153.88 141.77 154.40 142.00 158.39 142.00 C 161.82 142.00 163.00 142.38 163.00 143.50 C 163.00 144.33 163.89 145.00 165.00 145.00 C 166.11 145.00 167.00 144.33 167.00 143.50 Z M 104.00 137.50 C 104.00 136.68 104.18 136.00 104.39 136.00 C 104.61 136.00 105.05 136.68 105.36 137.50 C 105.68 138.32 105.50 139.00 104.97 139.00 C 104.44 139.00 104.00 138.32 104.00 137.50 Z M 104.00 132.94 C 104.00 132.36 104.45 132.16 105.00 132.50 C 105.55 132.84 106.00 133.32 106.00 133.56 C 106.00 133.80 105.55 134.00 105.00 134.00 C 104.45 134.00 104.00 133.52 104.00 132.94 Z M 104.50 115.00 C 104.84 114.45 105.32 114.00 105.56 114.00 C 105.80 114.00 106.00 114.45 106.00 115.00 C 106.00 115.55 105.52 116.00 104.94 116.00 C 104.36 116.00 104.16 115.55 104.50 115.00 Z M 25.27 110.31 C 26.24 110.05 27.59 110.07 28.27 110.34 C 28.95 110.62 28.15 110.83 26.50 110.81 C 24.85 110.78 24.30 110.56 25.27 110.31 Z M 105.50 110.00 C 105.84 109.45 106.79 109.00 107.62 109.00 C 108.44 109.00 108.84 109.45 108.50 110.00 C 108.16 110.55 107.21 111.00 106.38 111.00 C 105.56 111.00 105.16 110.55 105.50 110.00 Z M 76.00 108.94 C 76.00 108.36 76.45 108.16 77.00 108.50 C 77.55 108.84 78.00 109.32 78.00 109.56 C 78.00 109.80 77.55 110.00 77.00 110.00 C 76.45 110.00 76.00 109.52 76.00 108.94 Z M 152.00 107.97 C 152.00 107.44 152.68 107.00 153.50 107.00 C 154.32 107.00 155.00 107.18 155.00 107.39 C 155.00 107.61 154.32 108.05 153.50 108.36 C 152.68 108.68 152.00 108.50 152.00 107.97 Z M 174.00 108.00 C 172.67 107.14 172.67 107.03 174.00 107.03 C 174.82 107.03 176.18 107.47 177.00 108.00 C 178.33 108.86 178.33 108.97 177.00 108.97 C 176.18 108.97 174.82 108.53 174.00 108.00 Z M 189.00 108.61 C 189.00 107.66 191.99 107.18 192.53 108.04 C 192.85 108.57 192.19 109.00 191.06 109.00 C 189.93 109.00 189.00 108.82 189.00 108.61 Z M 363.08 107.42 C 363.13 106.25 363.36 106.01 363.68 106.81 C 363.97 107.53 363.94 108.40 363.60 108.73 C 363.27 109.06 363.04 108.47 363.08 107.42 Z M 10.67 105.83 C 10.36 104.64 10.50 102.94 10.98 102.03 C 11.49 101.08 11.48 99.79 10.95 98.95 C 10.24 97.84 10.03 98.07 10.02 99.92 C 9.99 104.34 8.57 100.98 8.35 95.96 C 8.20 92.78 8.63 90.51 9.54 89.61 C 10.73 88.41 10.74 88.11 9.57 87.66 C 8.54 87.27 8.27 85.49 8.50 80.82 C 8.68 77.34 8.91 74.05 9.03 73.50 C 9.14 72.95 9.13 72.05 9.01 71.50 C 8.38 68.79 8.60 63.43 9.35 62.88 C 9.82 62.53 9.71 61.33 9.10 60.19 C 7.57 57.33 7.73 55.96 9.50 56.64 C 10.32 56.95 11.00 56.72 11.00 56.11 C 11.00 55.50 10.60 55.00 10.11 55.00 C 8.59 55.00 7.90 51.82 9.11 50.37 C 9.94 49.37 9.94 49.00 9.12 49.00 C 8.51 49.00 8.00 48.07 8.00 46.94 C 8.00 45.81 8.34 45.09 8.75 45.35 C 9.16 45.60 9.50 44.50 9.50 42.90 C 9.50 41.31 9.22 40.00 8.87 40.00 C 8.00 40.00 8.35 34.79 9.33 33.25 C 9.78 32.54 9.66 32.00 9.06 32.00 C 8.42 32.00 8.00 29.41 8.00 25.50 C 8.00 21.38 8.41 19.00 9.12 19.00 C 9.74 19.00 10.00 18.12 9.71 17.00 C 9.42 15.90 9.60 15.00 10.09 15.00 C 10.59 15.00 11.00 14.43 11.00 13.72 C 11.00 12.73 16.29 12.39 34.75 12.19 C 81.14 11.68 99.77 11.26 100.71 10.68 C 101.29 10.32 101.63 15.49 101.58 24.05 L 101.50 38.00 L 98.25 38.00 L 95.00 38.00 L 95.00 28.84 L 95.00 19.68 L 67.25 20.34 C 51.99 20.70 34.66 21.00 28.75 21.00 L 18.00 21.00 L 18.00 43.75 C 18.01 56.26 18.30 73.59 18.66 82.25 L 19.31 98.00 L 55.57 98.00 C 75.52 98.00 92.55 97.73 93.42 97.39 C 94.68 96.91 95.00 95.13 95.00 88.51 C 95.00 80.53 95.09 80.22 97.44 79.77 C 101.66 78.96 102.12 80.06 102.00 90.59 C 101.94 96.04 101.92 101.74 101.96 103.25 L 102.03 106.00 L 86.77 106.06 C 53.24 106.20 12.89 106.95 12.08 107.45 C 11.61 107.74 10.97 107.01 10.67 105.83 Z M 121.81 107.32 C 122.53 107.03 123.40 107.06 123.73 107.40 C 124.06 107.73 123.47 107.96 122.42 107.92 C 121.25 107.87 121.01 107.64 121.81 107.32 Z M 146.81 107.32 C 147.53 107.03 148.40 107.06 148.73 107.40 C 149.06 107.73 148.47 107.96 147.42 107.92 C 146.25 107.87 146.01 107.64 146.81 107.32 Z M 160.81 107.32 C 161.53 107.03 162.40 107.06 162.73 107.40 C 163.06 107.73 162.47 107.96 161.42 107.92 C 160.25 107.87 160.01 107.64 160.81 107.32 Z M 179.81 107.32 C 180.53 107.03 181.40 107.06 181.73 107.40 C 182.06 107.73 181.47 107.96 180.42 107.92 C 179.25 107.87 179.01 107.64 179.81 107.32 Z M 105.41 105.86 C 105.18 105.48 105.49 105.00 106.11 104.80 C 107.27 104.41 107.62 82.81 106.50 81.00 C 105.83 79.92 112.79 78.46 113.80 79.46 C 114.18 79.85 114.53 83.84 114.58 88.33 L 114.65 96.50 L 152.58 96.50 L 190.50 96.50 L 190.14 87.75 L 189.78 79.00 L 193.39 79.00 L 197.00 79.00 L 197.20 87.25 C 197.31 91.79 197.48 97.45 197.56 99.83 C 197.65 102.26 197.24 104.33 196.61 104.54 C 196.00 104.75 177.05 105.14 154.50 105.40 C 131.95 105.67 111.78 106.03 109.67 106.21 C 107.56 106.39 105.64 106.23 105.41 105.86 Z M 203.58 104.24 C 203.26 103.93 203.00 82.81 203.00 57.32 L 203.00 10.98 L 247.75 11.24 L 292.50 11.50 L 292.50 58.00 L 292.50 104.50 L 248.33 104.66 C 224.03 104.75 203.90 104.56 203.58 104.24 Z M 299.00 57.72 L 299.00 10.49 L 344.76 10.42 L 390.52 10.35 L 390.44 55.43 C 390.39 80.22 390.28 101.50 390.18 102.71 L 390.00 104.93 L 344.50 104.94 L 299.00 104.95 L 299.00 57.72 Z M 104.00 100.00 C 104.00 99.45 104.45 99.00 105.00 99.00 C 105.55 99.00 106.00 99.45 106.00 100.00 C 106.00 100.55 105.55 101.00 105.00 101.00 C 104.45 101.00 104.00 100.55 104.00 100.00 Z M 104.00 97.00 C 104.00 96.45 104.48 96.00 105.06 96.00 C 105.64 96.00 105.84 96.45 105.50 97.00 C 105.16 97.55 104.68 98.00 104.44 98.00 C 104.20 98.00 104.00 97.55 104.00 97.00 Z M 103.50 94.00 C 103.16 93.45 103.36 93.00 103.94 93.00 C 104.52 93.00 105.00 93.45 105.00 94.00 C 105.00 94.55 104.80 95.00 104.56 95.00 C 104.32 95.00 103.84 94.55 103.50 94.00 Z M 240.31 92.63 C 248.47 88.91 251.05 88.65 257.11 90.95 C 265.06 93.97 269.24 93.69 272.41 89.92 C 275.76 85.95 275.66 82.75 271.98 76.09 C 268.94 70.57 268.75 68.72 271.46 70.97 C 272.44 71.78 274.24 71.99 276.51 71.56 C 283.05 70.34 287.69 59.64 285.09 51.76 C 283.43 46.75 279.90 43.73 276.64 44.55 C 270.03 46.21 263.98 59.61 267.06 65.75 C 269.46 70.55 269.33 70.58 264.87 66.36 C 258.43 60.26 254.76 58.70 247.94 59.20 C 243.61 59.51 241.29 60.30 238.55 62.40 C 234.20 65.71 226.29 77.26 225.46 81.50 C 224.62 85.79 227.00 92.19 230.00 93.71 C 233.43 95.44 234.37 95.34 240.31 92.63 Z M 24.72 91.39 C 24.38 91.05 24.07 76.42 24.03 58.89 L 23.95 27.00 L 46.23 26.97 C 58.48 26.96 72.72 26.68 77.87 26.36 C 83.81 25.99 87.47 26.15 87.87 26.79 C 88.74 28.20 89.31 84.30 88.50 88.02 C 87.91 90.69 87.45 91.00 84.01 91.00 L 80.19 91.00 L 79.84 76.75 C 79.52 63.42 79.33 62.21 76.82 57.95 C 75.00 54.84 72.62 52.58 69.32 50.80 C 56.42 43.86 41.45 47.69 35.50 59.45 C 33.19 64.01 33.00 65.46 33.00 78.20 L 33.00 92.00 L 29.17 92.00 C 27.06 92.00 25.06 91.72 24.72 91.39 Z M 39.38 90.54 C 39.06 89.71 38.96 83.29 39.15 76.27 C 39.52 62.63 40.00 61.15 45.35 56.94 C 51.82 51.85 66.57 53.78 71.24 60.33 C 73.33 63.26 73.50 64.56 73.50 77.50 L 73.50 91.50 L 56.73 91.77 C 42.53 92.01 39.87 91.82 39.38 90.54 Z M 120.67 90.33 C 120.30 89.97 120.00 75.34 120.00 57.83 L 120.00 26.00 L 143.25 25.89 C 156.04 25.84 170.44 25.68 175.25 25.54 L 184.00 25.29 L 184.15 41.89 C 184.24 51.03 184.41 65.59 184.54 74.25 C 184.70 85.43 184.44 90.03 183.64 90.10 C 183.01 90.16 181.15 90.27 179.50 90.35 L 176.50 90.50 L 175.90 76.50 C 175.50 67.34 174.76 61.29 173.77 59.00 C 166.58 42.54 140.15 41.48 131.76 57.31 C 129.82 60.97 129.49 63.36 129.18 76.25 L 128.82 91.00 L 125.07 91.00 C 123.02 91.00 121.03 90.70 120.67 90.33 Z M 135.00 77.97 C 135.00 70.91 135.48 63.86 136.06 62.32 C 140.17 51.45 156.73 48.80 165.54 57.61 C 169.65 61.72 170.18 64.36 169.80 78.87 L 169.50 90.25 L 152.25 90.53 L 135.00 90.81 L 135.00 77.97 Z M 104.16 85.35 C 104.10 81.93 104.35 80.94 105.02 82.00 C 106.20 83.86 106.25 87.07 105.11 88.85 C 104.57 89.71 104.22 88.45 104.16 85.35 Z M 95.00 58.50 L 95.00 44.00 L 101.75 43.87 C 105.46 43.80 109.74 43.67 111.25 43.57 L 114.00 43.41 L 114.00 58.20 L 114.00 73.00 L 104.50 73.00 L 95.00 73.00 L 95.00 58.50 Z M 190.70 72.31 C 190.42 71.86 190.14 65.09 190.05 57.25 L 189.91 43.00 L 193.48 43.00 L 197.05 43.00 L 196.78 57.75 L 196.50 72.50 L 193.84 72.81 C 192.38 72.98 190.97 72.75 190.70 72.31 Z M 229.25 69.92 C 231.46 67.21 231.52 60.89 229.37 56.37 C 227.42 52.27 221.78 47.38 218.21 46.70 C 214.21 45.94 210.00 50.68 210.00 55.93 C 210.00 61.38 213.60 68.77 217.41 71.16 C 221.24 73.56 226.75 72.98 229.25 69.92 Z M 244.58 48.44 C 246.11 44.43 246.12 43.51 244.76 38.08 C 242.28 28.26 236.95 23.34 231.47 25.83 C 223.05 29.67 225.11 49.62 234.33 53.50 C 239.06 55.49 242.54 53.77 244.58 48.44 Z M 263.39 52.12 C 267.34 48.73 268.96 41.06 267.39 33.19 C 266.63 29.39 263.77 26.23 260.30 25.36 C 258.12 24.81 257.10 25.32 254.40 28.26 C 252.60 30.22 250.59 33.62 249.94 35.81 C 247.18 45.01 252.32 55.91 258.70 54.40 C 260.24 54.03 262.35 53.00 263.39 52.12 Z M 10.66 33.75 C 10.38 33.06 10.16 33.62 10.16 35.00 C 10.16 36.38 10.38 36.94 10.66 36.25 C 10.94 35.56 10.94 34.44 10.66 33.75 Z M 104.81 36.29 C 107.09 35.85 107.11 35.71 106.81 23.42 L 106.50 11.00 L 127.75 10.98 C 139.44 10.97 159.69 10.95 172.75 10.94 L 196.50 10.92 L 196.78 23.96 L 197.06 37.00 L 193.53 37.00 L 190.00 37.00 L 190.00 28.00 L 190.00 19.00 L 162.66 19.00 C 147.62 19.00 130.52 19.29 124.66 19.65 L 114.00 20.30 L 114.00 28.65 L 114.00 37.00 L 108.25 36.86 C 105.09 36.79 103.54 36.53 104.81 36.29 Z M 103.81 31.32 C 104.53 31.03 105.40 31.06 105.73 31.40 C 106.06 31.73 105.47 31.96 104.42 31.92 C 103.25 31.87 103.01 31.64 103.81 31.32 Z M 103.50 29.00 C 103.84 28.45 104.57 28.00 105.12 28.00 C 105.67 28.00 105.84 28.45 105.50 29.00 C 105.16 29.55 104.43 30.00 103.88 30.00 C 103.33 30.00 103.16 29.55 103.50 29.00 Z M 103.00 22.61 C 103.00 22.39 103.67 21.95 104.50 21.64 C 105.33 21.32 106.00 21.50 106.00 22.03 C 106.00 22.56 105.33 23.00 104.50 23.00 C 103.67 23.00 103.00 22.82 103.00 22.61 Z M 96.81 9.32 C 97.53 9.03 98.40 9.06 98.73 9.40 C 99.06 9.73 98.47 9.96 97.42 9.92 C 96.25 9.87 96.01 9.64 96.81 9.32 Z M 185.00 8.50 C 185.00 7.67 185.44 7.00 185.97 7.00 C 186.50 7.00 186.68 7.67 186.36 8.50 C 186.05 9.32 185.61 10.00 185.39 10.00 C 185.18 10.00 185.00 9.32 185.00 8.50 Z M 127.51 7.98 C 127.86 7.42 128.56 7.23 129.07 7.54 C 130.46 8.40 130.20 9.00 128.44 9.00 C 127.58 9.00 127.16 8.54 127.51 7.98 Z M 154.50 8.00 C 154.84 7.45 155.32 7.00 155.56 7.00 C 155.80 7.00 156.00 7.45 156.00 8.00 C 156.00 8.55 155.52 9.00 154.94 9.00 C 154.36 9.00 154.16 8.55 154.50 8.00 Z M 173.00 8.00 C 173.00 7.45 173.48 7.00 174.06 7.00 C 174.64 7.00 174.84 7.45 174.50 8.00 C 174.16 8.55 173.68 9.00 173.44 9.00 C 173.20 9.00 173.00 8.55 173.00 8.00 Z M 357.81 8.32 C 358.53 8.03 359.40 8.06 359.73 8.40 C 360.06 8.73 359.47 8.96 358.42 8.92 C 357.25 8.87 357.01 8.64 357.81 8.32 Z M 392.50 7.00 C 392.84 6.45 393.32 6.00 393.56 6.00 C 393.80 6.00 394.00 6.45 394.00 7.00 C 394.00 7.55 393.52 8.00 392.94 8.00 C 392.36 8.00 392.16 7.55 392.50 7.00 Z" fill="none" stroke="rgba(255,255,255,0.92)" stroke-width="1.5" stroke-linejoin="round" fill-rule="evenodd"/>
</svg>
