<svg xmlns="http://www.w3.org/2000/svg" viewBox="0 0 100 100" width="100" height="100">
  <path d="M 0.00 50.00 L 0.00 0.00 L 50.00 0.00 L 100.00 0.00 L 100.00 50.00 L 100.00 100.00 L 50.00 100.00 L 0.00 100.00 L 0.00 50.00 Z M 96.00 50.00 L 96.00 4.00 L 93.00 4.00 L 90.00 4.00 L 90.00 47.25 L 90.00 90.50 L 47.00 90.20 L 4.00 89.90 L 4.00 92.95 L 4.00 96.00 L 50.00 96.00 L 96.00 96.00 L 96.00 50.00 Z M 82.71 34.10 C 87.45 27.06 84.67 18.89 76.04 14.52 C 71.26 12.10 71.00 11.76 71.00 7.98 L 71.00 4.00 L 44.50 4.00 L 18.00 4.00 L 18.00 7.75 C 18.00 11.19 17.62 11.71 13.41 13.94 C 4.45 18.69 1.60 26.37 6.08 33.63 C 9.17 38.63 11.84 38.13 17.84 31.39 L 22.84 25.78 L 26.45 29.38 C 31.96 34.89 36.89 37.00 44.21 36.98 C 51.70 36.95 56.92 34.79 62.22 29.52 L 65.94 25.83 L 71.62 31.96 C 74.82 35.41 77.98 37.96 78.86 37.79 C 79.73 37.62 81.46 35.96 82.71 34.10 Z" fill="none" stroke="rgba(255,255,255,0.92)" stroke-width="1.2" stroke-linejoin="round" fill-rule="evenodd"/>
</svg>
