<svg xmlns="http://www.w3.org/2000/svg" viewBox="0 0 100 100" width="100" height="100">
  <path d="M 0.00 50.00 L 0.00 0.00 L 50.00 0.00 L 100.00 0.00 L 100.00 50.00 L 100.00 100.00 L 50.00 100.00 L 0.00 100.00 L 0.00 50.00 Z M 96.00 50.50 L 96.00 5.00 L 50.00 5.00 L 4.00 5.00 L 4.00 8.00 L 4.00 11.00 L 48.50 11.00 L 93.00 11.00 L 93.15 41.25 C 93.24 57.89 93.43 75.55 93.57 80.50 C 93.71 85.45 93.87 90.96 93.92 92.75 C 93.96 94.54 94.45 96.00 95.00 96.00 C 95.65 96.00 96.00 80.17 96.00 50.50 Z" fill="none" stroke="rgba(255,255,255,0.92)" stroke-width="1.2" stroke-linejoin="round" fill-rule="evenodd"/>
</svg>
