<svg xmlns="http://www.w3.org/2000/svg" viewBox="0 0 100 100" width="100" height="100">
  <path d="M 0.00 50.00 L 0.00 0.00 L 50.00 0.00 L 100.00 0.00 L 100.00 50.00 L 100.00 100.00 L 50.00 100.00 L 0.00 100.00 L 0.00 50.00 Z M 68.56 95.10 C 67.71 93.72 70.60 93.00 76.96 93.00 C 80.90 93.00 83.16 92.52 84.00 91.50 C 85.97 89.13 84.37 83.87 80.73 80.76 C 76.14 76.84 71.88 76.30 64.79 78.76 C 59.33 80.64 58.66 80.68 55.70 79.24 C 53.94 78.39 52.33 77.56 52.12 77.39 C 51.92 77.22 52.48 75.26 53.37 73.02 C 57.21 63.43 53.07 56.00 43.89 56.00 C 34.88 56.00 30.40 64.48 34.68 73.45 C 35.60 75.39 36.17 77.09 35.93 77.24 C 30.74 80.41 29.59 80.55 24.07 78.69 C 16.40 76.10 11.08 77.00 7.06 81.59 C 4.95 83.99 4.00 86.11 4.00 88.42 C 4.00 92.36 5.38 92.97 14.36 92.99 C 19.15 93.00 20.11 93.27 19.64 94.50 C 19.14 95.81 22.25 96.00 44.09 96.00 C 58.57 96.00 68.88 95.62 68.56 95.10 Z M 96.00 50.50 L 96.00 5.00 L 50.00 5.00 L 4.00 5.00 L 4.00 7.50 C 4.00 8.88 4.11 10.08 4.25 10.18 C 4.39 10.28 23.62 10.62 47.00 10.93 L 89.50 11.50 L 89.66 14.50 C 89.75 16.15 89.86 35.16 89.91 56.75 L 90.00 96.00 L 93.00 96.00 L 96.00 96.00 L 96.00 50.50 Z" fill="none" stroke="rgba(255,255,255,0.92)" stroke-width="1.2" stroke-linejoin="round" fill-rule="evenodd"/>
</svg>
