<svg xmlns="http://www.w3.org/2000/svg" viewBox="0 0 100 100" width="100" height="100">
  <path d="M 0.00 50.00 L 0.00 0.00 L 50.00 0.00 L 100.00 0.00 L 100.00 50.00 L 100.00 100.00 L 50.00 100.00 L 0.00 100.00 L 0.00 50.00 Z M 75.77 72.41 C 82.87 70.84 88.28 68.31 92.87 64.46 C 95.85 61.95 96.00 61.48 96.00 54.49 C 96.00 47.61 95.81 46.96 92.88 44.04 C 82.62 33.77 63.99 31.39 45.00 37.93 C 39.77 39.73 31.61 43.26 26.85 45.78 C 17.11 50.94 18.86 51.17 8.75 43.44 L 4.00 39.81 L 4.03 43.65 C 4.06 47.03 4.61 47.92 8.59 50.91 L 13.12 54.33 L 8.56 57.17 C 4.51 59.69 4.00 60.41 4.00 63.62 L 4.00 67.23 L 6.75 65.45 C 8.26 64.48 11.07 62.63 12.98 61.34 C 14.90 60.05 17.04 59.00 17.74 59.00 C 18.45 59.00 22.73 61.33 27.26 64.18 C 43.97 74.68 56.22 76.76 75.77 72.41 Z M 50.00 68.00 C 47.52 67.58 43.92 66.58 42.00 65.77 C 38.26 64.21 24.00 55.32 24.00 54.56 C 24.00 53.47 37.24 46.91 45.50 43.90 C 53.45 41.01 55.73 40.62 65.00 40.56 C 74.57 40.51 76.01 40.75 81.26 43.33 C 87.28 46.29 92.00 51.28 92.00 54.70 C 92.00 63.49 68.07 71.07 50.00 68.00 Z M 78.80 56.80 C 80.96 54.64 80.24 51.10 77.50 50.41 C 73.98 49.53 72.00 50.55 72.00 53.27 C 72.00 55.98 73.71 58.00 76.00 58.00 C 76.88 58.00 78.14 57.46 78.80 56.80 Z M 96.00 7.96 L 96.00 5.00 L 58.75 4.87 C 38.26 4.80 17.68 4.69 13.00 4.62 L 4.50 4.50 L 4.19 7.23 L 3.87 9.97 L 33.19 10.23 C 49.31 10.38 70.04 10.59 79.25 10.71 L 96.00 10.91 L 96.00 7.96 Z" fill="none" stroke="rgba(255,255,255,0.92)" stroke-width="1.2" stroke-linejoin="round" fill-rule="evenodd"/>
</svg>
