<svg xmlns="http://www.w3.org/2000/svg" viewBox="0 0 400 212" width="400" height="212">
  <path d="M 0.00 106.00 L 0.00 0.00 L 179.43 0.00 C 357.99 0.00 358.87 0.01 359.50 2.00 C 360.32 4.57 362.04 4.57 362.71 2.00 C 363.21 0.09 364.07 0.00 381.62 0.00 L 400.00 0.00 L 400.00 106.00 L 400.00 212.00 L 200.00 212.00 L 0.00 212.00 L 0.00 106.00 Z M 338.75 206.92 C 369.69 206.84 395.02 206.49 395.05 206.14 C 395.08 205.79 395.35 183.11 395.64 155.75 C 396.07 114.75 395.93 105.99 394.83 105.95 C 374.56 105.21 354.09 104.80 329.74 104.67 L 299.50 104.50 L 299.24 54.75 L 298.98 5.00 L 151.83 5.00 L 4.68 5.00 L 5.40 75.25 C 5.80 113.89 6.21 159.27 6.31 176.10 L 6.50 206.70 L 53.39 206.83 C 79.18 206.89 100.41 207.07 100.56 207.23 C 100.71 207.38 141.71 207.40 191.67 207.28 C 241.62 207.15 307.81 206.99 338.75 206.92 Z M 190.50 205.00 C 190.84 204.45 191.32 204.00 191.56 204.00 C 191.80 204.00 192.00 204.45 192.00 205.00 C 192.00 205.55 191.52 206.00 190.94 206.00 C 190.36 206.00 190.16 205.55 190.50 205.00 Z M 205.00 205.00 C 205.00 204.45 205.45 204.00 206.00 204.00 C 206.55 204.00 207.00 204.45 207.00 205.00 C 207.00 205.55 206.55 206.00 206.00 206.00 C 205.45 206.00 205.00 205.55 205.00 205.00 Z M 211.64 204.51 C 211.95 203.68 212.62 203.26 213.12 203.57 C 214.17 204.22 213.33 206.00 211.97 206.00 C 211.47 206.00 211.32 205.33 211.64 204.51 Z M 125.81 204.32 C 126.53 204.03 127.40 204.06 127.73 204.40 C 128.06 204.73 127.47 204.96 126.42 204.92 C 125.25 204.87 125.01 204.64 125.81 204.32 Z M 151.00 204.00 C 149.72 203.17 149.75 203.03 151.25 203.02 C 152.21 203.01 153.00 203.45 153.00 204.00 C 153.00 205.22 152.89 205.22 151.00 204.00 Z M 338.50 204.00 C 338.84 203.45 339.32 203.00 339.56 203.00 C 339.80 203.00 340.00 203.45 340.00 204.00 C 340.00 204.55 339.52 205.00 338.94 205.00 C 338.36 205.00 338.16 204.55 338.50 204.00 Z M 10.19 202.79 C 9.54 202.14 9.01 200.45 9.02 199.05 C 9.03 197.04 9.23 196.82 10.00 198.00 C 11.30 200.01 11.27 198.37 9.96 195.93 C 9.19 194.49 9.25 194.00 10.21 193.98 C 11.09 193.97 11.15 193.74 10.40 193.23 C 8.61 192.03 7.87 184.99 9.47 184.37 C 10.62 183.93 10.60 183.30 9.40 180.42 C 8.59 178.49 8.40 177.00 8.96 177.00 C 9.50 177.00 9.69 176.36 9.39 175.58 C 9.09 174.80 9.35 173.22 9.96 172.08 C 10.61 170.85 10.68 170.00 10.11 170.00 C 9.58 170.00 8.92 170.79 8.64 171.75 C 8.36 172.71 8.22 171.93 8.32 170.00 C 8.42 168.07 8.95 166.16 9.50 165.75 C 10.14 165.27 10.01 164.68 9.14 164.12 C 8.15 163.49 8.10 163.06 8.94 162.54 C 9.81 162.00 9.81 161.48 8.93 160.41 C 7.99 159.28 8.13 158.99 9.63 158.93 C 11.33 158.87 11.34 158.80 9.77 158.17 C 8.21 157.56 8.18 157.21 9.46 154.74 C 10.49 152.75 10.56 152.00 9.69 151.98 C 8.96 151.98 9.07 151.61 9.97 151.04 C 11.23 150.24 11.20 150.01 9.72 149.45 C 7.85 148.73 7.38 145.50 9.00 144.50 C 9.67 144.08 9.67 143.26 9.00 142.01 C 7.61 139.40 7.74 138.98 9.75 139.63 C 11.25 140.11 11.29 140.02 10.00 139.02 C 8.87 138.13 8.81 137.72 9.75 137.34 C 11.77 136.52 11.28 133.96 9.25 134.72 C 7.72 135.29 7.67 135.16 8.87 133.69 C 9.90 132.43 9.93 132.00 9.02 132.00 C 8.30 132.00 8.04 131.33 8.40 130.41 C 9.93 126.40 10.27 123.72 9.15 124.41 C 7.56 125.39 7.64 120.76 9.24 119.16 C 10.05 118.35 10.13 117.67 9.48 117.21 C 7.75 115.99 8.05 111.34 9.87 111.23 C 13.75 110.99 101.40 111.06 101.64 111.31 C 101.80 111.46 102.05 131.82 102.21 156.54 L 102.50 201.50 L 57.71 201.50 C 23.07 201.50 12.75 201.78 12.16 202.74 C 11.56 203.71 11.12 203.72 10.19 202.79 Z M 105.41 201.85 C 105.19 201.50 105.63 200.97 106.40 200.68 C 108.31 199.94 108.17 165.89 106.25 165.25 C 105.56 165.02 105.00 164.39 105.00 163.86 C 105.00 163.32 105.40 163.13 105.90 163.44 C 106.98 164.10 108.24 161.20 107.43 159.89 C 107.12 159.38 106.44 159.23 105.93 159.54 C 105.42 159.86 105.00 159.39 105.00 158.50 C 105.00 157.61 105.45 157.16 106.00 157.50 C 106.55 157.84 107.05 157.53 107.12 156.81 C 107.42 153.45 107.04 131.88 106.67 131.23 C 106.44 130.83 106.53 129.73 106.88 128.79 C 107.76 126.37 106.99 117.00 105.90 117.00 C 105.41 117.00 105.00 117.75 105.00 118.67 C 105.00 122.08 103.75 118.94 103.57 115.05 L 103.37 111.00 L 150.68 111.00 L 198.00 111.00 L 198.06 131.75 C 198.09 143.16 198.23 162.18 198.37 174.00 C 198.51 185.82 198.44 196.92 198.20 198.65 L 197.77 201.80 L 166.14 201.98 C 148.74 202.08 128.04 202.24 120.16 202.33 C 112.27 202.42 105.63 202.21 105.41 201.85 Z M 200.39 189.94 C 200.33 183.30 200.60 178.24 201.01 178.69 C 202.14 179.94 202.73 186.16 202.03 189.50 C 201.68 191.15 201.73 194.02 202.12 195.87 C 202.84 199.21 202.39 202.00 201.14 202.00 C 200.79 202.00 200.45 196.57 200.39 189.94 Z M 203.91 171.60 C 203.86 155.05 203.73 134.63 203.61 126.24 L 203.40 110.98 L 248.45 111.24 L 293.50 111.50 L 294.00 135.00 C 294.27 147.93 294.27 168.18 294.00 180.00 L 293.50 201.50 L 248.75 201.60 L 204.00 201.71 L 203.91 171.60 Z M 300.90 201.22 C 299.62 200.97 299.45 194.99 299.59 156.72 C 299.79 105.28 299.66 108.95 301.25 109.48 C 301.94 109.71 322.30 110.13 346.50 110.41 C 370.70 110.68 390.53 110.93 390.56 110.96 C 390.80 111.12 389.92 191.61 389.64 196.00 L 389.28 201.50 L 345.83 201.50 C 321.93 201.50 301.71 201.37 300.90 201.22 Z M 105.67 197.33 C 105.30 196.97 105.00 196.20 105.00 195.63 C 105.00 195.01 105.47 195.07 106.18 195.78 C 106.83 196.43 107.13 197.20 106.85 197.48 C 106.57 197.77 106.03 197.70 105.67 197.33 Z M 296.17 190.00 C 296.26 187.80 296.69 186.00 297.14 186.00 C 297.59 186.00 297.85 187.80 297.73 189.99 C 297.43 195.21 295.97 195.22 296.17 190.00 Z M 105.00 190.50 C 105.00 189.68 105.44 189.00 105.97 189.00 C 106.50 189.00 106.68 189.68 106.36 190.50 C 106.05 191.32 105.61 192.00 105.39 192.00 C 105.18 192.00 105.00 191.32 105.00 190.50 Z M 392.16 188.00 C 392.16 186.62 392.38 186.06 392.66 186.75 C 392.94 187.44 392.94 188.56 392.66 189.25 C 392.38 189.94 392.16 189.38 392.16 188.00 Z M 105.00 184.00 C 105.00 182.90 105.41 182.00 105.91 182.00 C 106.40 182.00 106.58 182.90 106.29 184.00 C 106.00 185.10 105.59 186.00 105.38 186.00 C 105.17 186.00 105.00 185.10 105.00 184.00 Z M 296.00 179.73 C 296.00 177.19 296.35 174.90 296.78 174.64 C 297.77 174.02 297.75 182.59 296.75 183.58 C 296.34 184.00 296.00 182.26 296.00 179.73 Z M 104.36 178.50 C 104.44 177.13 105.00 176.00 105.61 176.00 C 106.26 176.00 106.52 177.05 106.24 178.50 C 105.62 181.75 104.17 181.75 104.36 178.50 Z M 200.94 177.75 C 200.20 174.52 200.17 162.78 200.89 160.97 C 201.64 159.08 201.89 160.80 201.94 168.25 C 201.97 173.61 201.78 178.00 201.50 178.00 C 201.22 178.00 200.97 177.89 200.94 177.75 Z M 392.23 174.00 C 392.23 172.07 392.44 171.29 392.69 172.25 C 392.94 173.21 392.94 174.79 392.69 175.75 C 392.44 176.71 392.23 175.93 392.23 174.00 Z M 296.58 160.13 C 296.15 159.44 296.07 158.60 296.40 158.27 C 297.29 157.37 298.27 158.69 297.79 160.14 C 297.45 161.15 297.21 161.15 296.58 160.13 Z M 200.00 153.50 C 200.00 151.34 200.40 150.13 201.00 150.50 C 201.55 150.84 202.00 152.19 202.00 153.50 C 202.00 154.81 201.55 156.16 201.00 156.50 C 200.40 156.87 200.00 155.66 200.00 153.50 Z M 296.38 152.00 C 296.38 149.25 296.75 147.00 297.19 147.00 C 297.64 147.00 298.00 149.25 298.00 152.00 C 298.00 154.75 297.64 157.00 297.19 157.00 C 296.75 157.00 296.38 154.75 296.38 152.00 Z M 104.00 152.00 C 104.00 151.45 104.45 151.00 105.00 151.00 C 105.55 151.00 106.00 151.45 106.00 152.00 C 106.00 152.55 105.55 153.00 105.00 153.00 C 104.45 153.00 104.00 152.55 104.00 152.00 Z M 200.61 147.42 C 199.69 145.03 199.88 137.00 200.85 137.00 C 201.32 137.00 201.78 139.70 201.88 143.00 C 202.06 149.07 201.71 150.29 200.61 147.42 Z M 11.00 147.56 C 11.00 147.32 10.55 146.84 10.00 146.50 C 9.45 146.16 9.00 146.36 9.00 146.94 C 9.00 147.52 9.45 148.00 10.00 148.00 C 10.55 148.00 11.00 147.80 11.00 147.56 Z M 104.50 145.00 C 104.84 144.45 105.32 144.00 105.56 144.00 C 105.80 144.00 106.00 144.45 106.00 145.00 C 106.00 145.55 105.52 146.00 104.94 146.00 C 104.36 146.00 104.16 145.55 104.50 145.00 Z M 296.02 143.25 C 296.03 141.11 296.24 140.83 297.00 142.00 C 298.26 143.96 298.26 146.00 297.00 146.00 C 296.45 146.00 296.01 144.76 296.02 143.25 Z M 200.00 133.00 C 200.00 131.90 200.35 131.00 200.79 131.00 C 201.22 131.00 201.57 131.90 201.57 133.00 C 201.57 134.10 201.22 135.00 200.79 135.00 C 200.35 135.00 200.00 134.10 200.00 133.00 Z M 296.08 129.42 C 296.13 128.25 296.36 128.01 296.68 128.81 C 296.97 129.53 296.94 130.40 296.60 130.73 C 296.27 131.06 296.04 130.47 296.08 129.42 Z M 104.00 127.44 C 104.00 126.58 104.46 126.16 105.02 126.51 C 105.58 126.86 105.77 127.56 105.46 128.07 C 104.60 129.46 104.00 129.20 104.00 127.44 Z M 200.00 127.12 C 200.00 126.02 200.45 124.84 201.00 124.50 C 201.55 124.16 202.00 124.78 202.00 125.88 C 202.00 126.98 201.55 128.16 201.00 128.50 C 200.45 128.84 200.00 128.22 200.00 127.12 Z M 296.08 124.42 C 296.13 123.25 296.36 123.01 296.68 123.81 C 296.97 124.53 296.94 125.40 296.60 125.73 C 296.27 126.06 296.04 125.47 296.08 124.42 Z M 200.00 121.56 C 200.00 120.15 200.45 119.00 201.00 119.00 C 201.55 119.00 202.00 119.87 202.00 120.94 C 202.00 122.01 201.55 123.16 201.00 123.50 C 200.43 123.85 200.00 123.01 200.00 121.56 Z M 104.00 122.00 C 104.00 121.45 104.45 121.00 105.00 121.00 C 105.55 121.00 106.00 121.45 106.00 122.00 C 106.00 122.55 105.55 123.00 105.00 123.00 C 104.45 123.00 104.00 122.55 104.00 122.00 Z M 296.00 115.56 C 296.00 114.22 296.38 112.88 296.85 112.59 C 297.33 112.30 297.66 113.40 297.60 115.03 C 297.48 118.58 296.00 119.07 296.00 115.56 Z M 107.00 113.44 C 107.00 112.65 106.55 112.00 106.00 112.00 C 105.45 112.00 105.00 112.93 105.00 114.06 C 105.00 115.19 105.45 115.84 106.00 115.50 C 106.55 115.16 107.00 114.23 107.00 113.44 Z M 199.39 114.42 C 199.73 113.55 200.00 112.65 200.00 112.42 C 200.00 112.19 200.45 112.00 201.00 112.00 C 201.55 112.00 202.00 112.90 202.00 114.00 C 202.00 115.17 201.33 116.00 200.39 116.00 C 199.34 116.00 198.99 115.46 199.39 114.42 Z M 24.75 104.22 L 11.00 103.94 L 11.00 57.47 L 11.00 11.00 L 151.53 11.00 C 263.08 11.00 292.14 11.26 292.46 12.25 C 292.68 12.94 293.07 34.12 293.32 59.32 L 293.78 105.15 L 166.14 104.82 C 95.94 104.65 32.31 104.37 24.75 104.22 Z M 173.69 77.42 C 182.50 75.38 191.23 70.69 194.73 66.12 C 200.38 58.74 197.11 48.20 187.23 41.93 C 181.43 38.25 177.53 37.12 168.00 36.36 C 156.34 35.43 140.56 40.30 125.20 49.56 C 122.06 51.45 118.96 53.00 118.31 53.00 C 117.66 53.00 112.26 48.90 106.31 43.88 L 95.50 34.77 L 95.22 45.38 C 95.06 51.22 95.06 60.72 95.22 66.50 L 95.50 77.00 L 106.68 69.37 L 117.86 61.73 L 125.18 66.72 C 134.44 73.02 139.63 75.67 146.25 77.45 C 153.32 79.36 165.39 79.35 173.69 77.42 Z M 149.77 72.05 C 143.24 70.78 134.13 65.91 124.07 58.30 C 122.74 57.30 139.42 48.46 148.00 45.62 C 155.54 43.13 164.66 41.89 170.22 42.59 C 180.40 43.88 190.00 50.15 191.61 56.58 C 194.07 66.39 168.77 75.74 149.77 72.05 Z M 329.00 64.39 C 335.88 62.88 341.84 61.37 342.25 61.02 C 342.67 60.68 341.89 58.88 340.52 57.03 C 338.69 54.54 338.32 53.32 339.10 52.37 C 340.48 50.72 339.41 49.00 337.00 49.00 C 335.96 49.00 334.32 47.65 333.34 46.00 C 332.37 44.35 331.33 43.03 331.03 43.06 C 330.46 43.13 313.74 65.75 313.13 67.28 C 312.93 67.79 313.60 67.97 314.63 67.67 C 315.66 67.38 322.12 65.90 329.00 64.39 Z M 101.00 56.88 L 101.00 47.86 L 103.75 49.91 C 105.26 51.03 107.99 53.21 109.81 54.75 L 113.11 57.54 L 107.06 61.72 L 101.00 65.90 L 101.00 56.88 Z M 178.80 59.80 C 181.81 56.79 178.82 52.33 174.51 53.41 C 172.57 53.89 172.00 54.68 172.00 56.85 C 172.00 58.40 172.30 59.97 172.67 60.33 C 173.75 61.42 177.51 61.09 178.80 59.80 Z M 349.04 43.46 C 351.89 40.52 352.22 39.75 350.99 38.97 C 348.94 37.67 348.86 37.71 345.67 41.55 C 343.15 44.58 342.79 47.00 344.86 47.00 C 345.27 47.00 347.15 45.41 349.04 43.46 Z M 358.39 30.81 C 359.76 28.51 360.66 26.26 360.38 25.81 C 359.20 23.89 356.89 25.30 354.93 29.14 C 353.22 32.49 353.08 33.43 354.16 34.12 C 354.90 34.59 355.59 34.98 355.69 34.98 C 355.80 34.99 357.01 33.11 358.39 30.81 Z M 363.56 15.42 C 364.26 10.76 362.94 7.58 361.13 9.55 C 359.98 10.80 358.84 18.51 359.68 19.35 C 361.45 21.12 362.93 19.63 363.56 15.42 Z" fill="none" stroke="rgba(255,255,255,0.92)" stroke-width="1.5" stroke-linejoin="round" fill-rule="evenodd"/>
</svg>
