<svg xmlns="http://www.w3.org/2000/svg" viewBox="0 0 100 100" width="100" height="100">
  <path d="M 0.00 50.00 L 0.00 0.00 L 50.00 0.00 L 100.00 0.00 L 100.00 50.00 L 100.00 100.00 L 50.00 100.00 L 0.00 100.00 L 0.00 50.00 Z M 11.03 56.81 L 10.96 18.13 L 15.23 17.61 C 17.58 17.33 24.68 16.84 31.00 16.52 C 37.33 16.21 49.25 15.53 57.50 15.00 C 65.75 14.48 77.08 14.04 82.67 14.03 C 94.56 14.00 96.00 13.60 96.00 10.39 C 96.00 8.17 95.62 8.00 90.75 8.01 C 79.26 8.02 41.41 10.23 12.25 12.58 L 5.00 13.17 L 5.00 36.43 C 5.00 49.21 5.30 67.87 5.66 77.89 L 6.32 96.10 L 8.71 95.80 L 11.10 95.50 L 11.03 56.81 Z M 96.00 90.12 C 96.00 84.83 95.68 83.92 92.83 81.14 C 87.65 76.07 80.74 74.71 68.25 76.30 L 62.00 77.10 L 62.00 74.17 C 62.00 72.56 62.75 70.63 63.66 69.87 C 66.67 67.38 68.96 60.76 68.98 54.45 C 69.00 48.85 68.67 47.94 64.51 42.23 C 62.04 38.84 58.85 35.29 57.42 34.36 C 55.17 32.88 54.87 32.08 55.17 28.33 C 55.50 24.15 54.83 22.86 53.46 25.07 C 53.03 25.76 52.14 25.54 50.90 24.41 C 49.06 22.74 49.00 22.85 49.00 28.16 C 49.00 32.97 48.63 33.98 45.91 36.56 C 44.21 38.18 42.18 40.72 41.40 42.22 C 40.62 43.72 39.11 45.75 38.05 46.74 C 36.35 48.33 36.19 49.47 36.71 56.40 C 37.22 63.03 37.81 65.00 40.52 69.03 C 42.80 72.42 43.88 75.36 44.24 79.15 C 44.51 82.09 45.07 85.29 45.48 86.25 C 46.12 87.78 45.59 88.00 41.14 88.00 C 35.29 88.00 26.09 91.14 23.48 94.02 C 21.70 95.99 21.88 96.00 58.85 96.00 L 96.00 96.00 L 96.00 90.12 Z" fill="none" stroke="rgba(255,255,255,0.92)" stroke-width="1.2" stroke-linejoin="round" fill-rule="evenodd"/>
</svg>
