<svg xmlns="http://www.w3.org/2000/svg" viewBox="0 0 100 100" width="100" height="100">
  <path d="M 0.00 50.00 L 0.00 0.00 L 50.00 0.00 L 100.00 0.00 L 100.00 50.00 L 100.00 100.00 L 50.00 100.00 L 0.00 100.00 L 0.00 50.00 Z M 4.72 86.75 C 4.50 84.96 4.32 86.42 4.32 90.00 C 4.32 93.58 4.50 95.04 4.72 93.25 C 4.95 91.46 4.95 88.54 4.72 86.75 Z M 96.00 87.33 C 96.00 82.57 95.66 79.00 95.25 79.42 C 94.84 79.83 94.50 83.73 94.50 88.08 C 94.50 92.44 94.84 96.00 95.25 96.00 C 95.66 96.00 96.00 92.10 96.00 87.33 Z M 96.00 75.00 L 96.00 72.00 L 50.00 72.00 L 4.00 72.00 L 4.00 75.00 L 4.00 78.00 L 50.00 78.00 L 96.00 78.00 L 96.00 75.00 Z M 96.00 20.96 L 96.00 4.91 L 50.00 5.21 L 4.00 5.50 L 4.00 8.25 L 4.00 11.01 L 42.60 10.64 C 74.20 10.35 81.37 10.03 82.09 8.89 C 82.81 7.74 82.97 7.77 82.98 9.06 C 83.00 10.31 84.09 10.58 88.50 10.40 L 94.00 10.19 L 94.00 20.59 L 94.00 31.00 L 49.75 31.12 C 25.41 31.18 5.16 31.18 4.75 31.12 C 4.34 31.05 4.00 32.35 4.00 34.00 L 4.00 37.00 L 50.00 37.00 L 96.00 37.00 L 96.00 20.96 Z M 4.68 18.81 C 4.36 18.01 4.13 18.25 4.08 19.42 C 4.04 20.47 4.27 21.06 4.60 20.73 C 4.94 20.40 4.97 19.53 4.68 18.81 Z" fill="none" stroke="rgba(255,255,255,0.92)" stroke-width="1.2" stroke-linejoin="round" fill-rule="evenodd"/>
</svg>
