<svg xmlns="http://www.w3.org/2000/svg" viewBox="0 0 100 100" width="100" height="100">
  <path d="M 0.00 50.00 L 0.00 0.00 L 50.00 0.00 L 100.00 0.00 L 100.00 50.00 L 100.00 100.00 L 50.00 100.00 L 0.00 100.00 L 0.00 50.00 Z M 96.00 50.31 L 95.99 4.50 L 50.00 4.33 L 4.00 4.16 L 4.00 6.58 L 4.00 9.00 L 15.75 9.01 C 33.35 9.03 32.00 7.88 32.00 22.91 L 32.00 35.59 L 18.00 35.29 L 4.00 34.99 L 4.00 48.97 L 4.00 62.95 L 18.25 63.22 L 32.50 63.50 L 32.50 76.50 L 32.50 89.50 L 29.00 89.55 C 2.86 89.93 4.00 89.79 4.00 92.49 L 4.00 94.98 L 44.46 95.24 C 66.71 95.38 87.41 95.64 90.46 95.81 L 96.00 96.11 L 96.00 50.31 Z M 64.61 89.18 C 64.34 88.73 64.03 82.77 63.94 75.93 L 63.76 63.50 L 76.63 63.21 C 95.52 62.79 94.00 61.58 94.00 77.02 L 94.00 90.00 L 79.56 90.00 C 71.62 90.00 64.89 89.63 64.61 89.18 Z M 38.75 62.20 L 33.00 61.90 L 33.00 48.90 L 33.00 35.90 L 42.75 36.07 C 48.11 36.17 54.86 36.47 57.75 36.75 L 63.00 37.25 L 63.00 50.18 L 63.00 63.10 L 53.75 62.80 C 48.66 62.63 41.91 62.37 38.75 62.20 Z M 63.00 23.00 L 63.00 10.00 L 78.00 10.00 L 93.00 10.00 L 93.00 23.00 L 93.00 36.00 L 78.00 36.00 L 63.00 36.00 L 63.00 23.00 Z" fill="none" stroke="rgba(255,255,255,0.92)" stroke-width="1.2" stroke-linejoin="round" fill-rule="evenodd"/>
</svg>
