<svg xmlns="http://www.w3.org/2000/svg" viewBox="0 0 400 285" width="400" height="285">
  <path d="M 0.00 142.50 L 0.00 0.00 L 200.00 0.00 L 400.00 0.00 L 400.00 142.50 L 400.00 285.01 L 301.25 284.75 L 202.50 284.50 L 200.85 279.50 C 199.60 275.72 198.65 274.42 196.96 274.16 C 194.87 273.85 194.76 274.10 195.36 277.82 C 195.71 280.02 196.27 282.54 196.60 283.41 C 197.16 284.86 188.26 285.00 98.61 285.00 L 0.00 285.00 L 0.00 142.50 Z M 140.92 260.60 C 140.86 250.65 140.40 241.75 139.90 240.81 C 139.36 239.81 139.36 238.89 139.90 238.56 C 140.42 238.24 140.69 218.96 140.55 193.00 L 140.30 148.00 L 142.90 147.93 C 144.33 147.89 170.56 147.71 201.18 147.53 C 231.80 147.35 257.34 146.91 257.93 146.54 C 258.52 146.18 259.06 146.25 259.13 146.69 C 259.30 147.69 259.78 201.65 260.01 244.64 L 260.19 276.77 L 297.84 276.38 C 338.50 275.96 337.41 275.97 339.25 276.06 C 339.94 276.10 350.40 276.08 362.50 276.03 C 374.60 275.98 386.64 276.09 389.25 276.29 L 394.00 276.65 L 394.09 265.08 C 394.23 246.13 394.19 132.48 394.03 119.50 C 393.95 112.90 393.96 107.05 394.05 106.50 C 394.47 103.84 394.05 89.74 393.50 87.99 C 393.12 86.80 393.32 86.00 394.00 86.00 C 394.66 86.00 394.88 85.20 394.53 84.09 C 393.82 81.85 393.59 29.08 394.29 28.38 C 394.55 28.12 394.40 26.26 393.94 24.25 C 393.49 22.25 393.48 19.96 393.93 19.17 C 394.37 18.38 394.40 16.25 393.99 14.44 C 393.56 12.55 393.66 10.74 394.24 10.16 C 394.78 9.62 394.96 8.75 394.64 8.23 C 394.28 7.64 349.64 7.37 276.78 7.52 C 212.28 7.65 125.53 7.82 84.00 7.89 C 42.47 7.97 7.96 8.37 7.31 8.79 C 6.39 9.37 6.16 40.75 6.31 143.73 L 6.50 277.91 L 9.00 278.21 C 10.38 278.37 40.65 278.54 76.27 278.60 L 141.04 278.70 L 140.92 260.60 Z M 357.81 273.32 C 358.53 273.03 359.40 273.06 359.73 273.40 C 360.06 273.73 359.47 273.96 358.42 273.92 C 357.25 273.87 357.01 273.64 357.81 273.32 Z M 11.00 272.00 C 11.00 271.45 11.48 271.00 12.06 271.00 C 12.64 271.00 12.84 271.45 12.50 272.00 C 12.16 272.55 11.68 273.00 11.44 273.00 C 11.20 273.00 11.00 272.55 11.00 272.00 Z M 136.50 272.00 C 136.84 271.45 137.57 271.00 138.12 271.00 C 138.67 271.00 138.84 271.45 138.50 272.00 C 138.16 272.55 137.43 273.00 136.88 273.00 C 136.33 273.00 136.16 272.55 136.50 272.00 Z M 14.22 269.75 C 13.97 268.79 13.37 268.00 12.88 268.00 C 12.40 268.00 12.00 267.52 12.00 266.94 C 12.00 266.36 12.35 266.10 12.78 266.37 C 13.21 266.63 13.58 262.50 13.61 257.18 C 13.63 250.67 13.53 249.71 13.28 254.25 C 13.01 259.27 12.55 261.00 11.48 261.00 C 10.44 261.00 10.26 260.39 10.82 258.75 C 11.67 256.26 11.46 249.07 10.41 244.64 C 9.96 242.78 10.16 241.52 10.99 241.01 C 12.43 240.12 12.80 234.59 11.64 231.25 C 11.05 229.54 11.24 229.00 12.43 229.00 C 14.77 229.00 14.33 227.07 11.75 226.03 C 10.03 225.34 9.91 225.11 11.25 225.06 C 13.16 224.99 13.60 223.49 12.00 222.50 C 11.45 222.16 11.00 221.40 11.00 220.82 C 11.00 220.15 11.55 220.21 12.50 221.00 C 13.75 222.04 14.00 221.89 14.00 220.09 C 14.00 218.91 13.33 217.68 12.50 217.36 C 10.60 216.63 10.54 215.00 12.41 215.00 C 13.49 215.00 13.78 213.49 13.66 208.50 C 13.54 203.74 13.13 202.01 12.13 202.00 C 11.01 202.00 10.99 201.72 12.02 200.47 C 13.35 198.88 14.25 185.25 13.30 181.22 C 12.80 179.06 12.69 179.03 11.30 180.72 C 9.90 182.42 9.86 182.42 10.42 180.67 C 10.74 179.66 11.00 178.21 11.00 177.45 C 11.00 176.68 11.62 176.30 12.38 176.59 C 13.51 177.02 13.76 175.17 13.73 166.65 C 13.70 158.28 13.43 156.28 12.35 156.70 C 11.61 156.98 11.00 156.72 11.00 156.11 C 11.00 155.50 11.63 155.00 12.40 155.00 C 13.35 155.00 13.77 153.89 13.70 151.53 C 13.65 149.62 13.84 147.82 14.14 147.53 C 14.60 147.07 47.82 146.96 114.67 147.22 L 132.84 147.28 L 133.00 164.39 C 133.74 244.90 133.67 270.09 132.70 270.68 C 132.13 271.04 105.33 271.37 73.17 271.42 C 18.27 271.49 14.65 271.39 14.22 269.75 Z M 269.23 268.91 C 267.66 268.35 267.49 266.02 267.35 243.40 C 267.27 229.70 267.04 202.53 266.85 183.00 L 266.50 147.50 L 321.08 147.50 C 384.05 147.50 385.62 147.56 386.49 149.84 C 386.84 150.75 387.06 163.20 386.98 177.50 C 386.90 191.80 386.91 204.85 387.01 206.50 C 387.12 208.15 387.19 209.95 387.17 210.50 C 386.83 222.00 387.04 256.26 387.46 256.94 C 387.77 257.44 387.56 258.15 386.99 258.51 C 386.37 258.89 386.20 260.57 386.58 262.59 C 387.81 269.15 389.67 268.90 339.16 269.01 C 314.05 269.06 288.43 269.20 282.23 269.31 C 276.03 269.42 270.18 269.24 269.23 268.91 Z M 389.54 268.07 C 389.23 267.56 389.42 266.86 389.98 266.51 C 390.54 266.16 391.00 266.58 391.00 267.44 C 391.00 269.20 390.40 269.46 389.54 268.07 Z M 198.00 259.50 C 198.00 254.14 197.72 253.16 196.06 252.73 C 193.63 252.09 193.00 253.68 193.00 260.42 C 193.00 266.36 193.33 266.99 196.06 266.27 C 197.72 265.84 198.00 264.86 198.00 259.50 Z M 136.50 256.00 C 136.16 255.45 136.36 255.00 136.94 255.00 C 137.52 255.00 138.00 255.45 138.00 256.00 C 138.00 256.55 137.80 257.00 137.56 257.00 C 137.32 257.00 136.84 256.55 136.50 256.00 Z M 389.50 254.00 C 389.16 253.45 389.36 253.00 389.94 253.00 C 390.52 253.00 391.00 253.45 391.00 254.00 C 391.00 254.55 390.80 255.00 390.56 255.00 C 390.32 255.00 389.84 254.55 389.50 254.00 Z M 263.19 248.50 C 263.22 246.85 263.44 246.30 263.69 247.27 C 263.95 248.24 263.93 249.59 263.66 250.27 C 263.38 250.95 263.17 250.15 263.19 248.50 Z M 13.91 241.00 C 13.86 238.71 13.79 238.67 13.00 240.50 C 12.53 241.60 12.12 243.40 12.09 244.50 C 12.04 246.15 12.20 246.24 13.00 245.00 C 13.53 244.18 13.94 242.38 13.91 241.00 Z M 390.08 244.42 C 390.13 243.25 390.36 243.01 390.68 243.81 C 390.97 244.53 390.94 245.40 390.60 245.73 C 390.27 246.06 390.04 245.47 390.08 244.42 Z M 201.38 240.06 C 203.57 233.39 203.46 232.00 200.75 232.00 C 198.88 232.00 198.22 232.96 196.82 237.71 C 194.99 243.91 195.16 245.00 197.94 245.00 C 199.25 245.00 200.23 243.59 201.38 240.06 Z M 262.00 238.00 C 262.00 237.45 262.70 237.00 263.56 237.00 C 264.42 237.00 264.84 237.45 264.50 238.00 C 264.16 238.55 263.46 239.00 262.94 239.00 C 262.42 239.00 262.00 238.55 262.00 238.00 Z M 218.78 223.25 C 220.48 216.25 225.14 188.92 224.80 187.96 C 224.63 187.50 222.65 188.79 220.40 190.81 C 218.14 192.84 211.28 198.74 205.15 203.91 C 199.02 209.09 194.00 213.59 194.00 213.91 C 194.00 214.24 196.19 215.73 198.87 217.23 C 203.05 219.58 203.66 220.32 203.25 222.48 C 202.87 224.46 203.17 225.00 204.68 225.00 C 205.74 225.00 207.10 224.50 207.70 223.90 C 208.51 223.09 209.84 223.50 212.63 225.40 C 214.74 226.83 216.72 228.00 217.04 228.00 C 217.36 228.00 218.14 225.86 218.78 223.25 Z M 136.23 202.00 C 136.23 200.07 136.44 199.29 136.69 200.25 C 136.94 201.21 136.94 202.79 136.69 203.75 C 136.44 204.71 136.23 203.93 136.23 202.00 Z M 262.00 202.44 C 262.00 201.58 262.46 201.16 263.02 201.51 C 263.58 201.86 263.77 202.56 263.46 203.07 C 262.60 204.46 262.00 204.20 262.00 202.44 Z M 10.00 196.00 C 10.00 194.13 10.27 193.87 11.20 194.80 C 12.13 195.73 12.13 196.27 11.20 197.20 C 10.27 198.13 10.00 197.87 10.00 196.00 Z M 10.08 189.42 C 10.13 188.25 10.36 188.01 10.68 188.81 C 10.97 189.53 10.94 190.40 10.60 190.73 C 10.27 191.06 10.04 190.47 10.08 189.42 Z M 136.16 182.00 C 136.16 180.62 136.38 180.06 136.66 180.75 C 136.94 181.44 136.94 182.56 136.66 183.25 C 136.38 183.94 136.16 183.38 136.16 182.00 Z M 262.50 179.00 C 262.84 178.45 263.32 178.00 263.56 178.00 C 263.80 178.00 264.00 178.45 264.00 179.00 C 264.00 179.55 263.52 180.00 262.94 180.00 C 262.36 180.00 262.16 179.55 262.50 179.00 Z M 10.00 167.44 C 10.00 165.48 10.37 164.11 10.83 164.40 C 11.62 164.88 11.21 171.00 10.39 171.00 C 10.17 171.00 10.00 169.40 10.00 167.44 Z M 10.16 160.00 C 10.16 158.62 10.38 158.06 10.66 158.75 C 10.94 159.44 10.94 160.56 10.66 161.25 C 10.38 161.94 10.16 161.38 10.16 160.00 Z M 390.16 155.00 C 390.16 153.62 390.38 153.06 390.66 153.75 C 390.94 154.44 390.94 155.56 390.66 156.25 C 390.38 156.94 390.16 156.38 390.16 155.00 Z M 9.00 152.08 C 9.00 151.60 9.68 150.95 10.50 150.64 C 11.32 150.32 12.00 150.45 12.00 150.92 C 12.00 151.40 11.32 152.05 10.50 152.36 C 9.68 152.68 9.00 152.55 9.00 152.08 Z M 386.50 146.00 C 386.16 145.45 386.58 145.00 387.44 145.00 C 388.30 145.00 389.00 145.45 389.00 146.00 C 389.00 146.55 388.58 147.00 388.06 147.00 C 387.54 147.00 386.84 146.55 386.50 146.00 Z M 97.81 145.32 C 98.53 145.03 99.40 145.06 99.73 145.40 C 100.06 145.73 99.47 145.96 98.42 145.92 C 97.25 145.87 97.01 145.64 97.81 145.32 Z M 291.08 144.42 C 291.13 143.25 291.36 143.01 291.68 143.81 C 291.97 144.53 291.94 145.40 291.60 145.73 C 291.27 146.06 291.04 145.47 291.08 144.42 Z M 325.53 145.04 C 325.17 144.46 325.60 143.71 326.48 143.37 C 328.68 142.53 329.36 143.45 327.61 144.91 C 326.63 145.72 325.97 145.77 325.53 145.04 Z M 137.00 144.00 C 137.00 143.45 137.42 143.00 137.94 143.00 C 138.46 143.00 139.16 143.45 139.50 144.00 C 139.84 144.55 139.42 145.00 138.56 145.00 C 137.70 145.00 137.00 144.55 137.00 144.00 Z M 302.00 144.00 C 302.00 143.45 302.48 143.00 303.06 143.00 C 303.64 143.00 303.84 143.45 303.50 144.00 C 303.16 144.55 302.68 145.00 302.44 145.00 C 302.20 145.00 302.00 144.55 302.00 144.00 Z M 43.00 143.00 C 43.00 142.45 43.45 142.00 44.00 142.00 C 44.55 142.00 45.00 142.45 45.00 143.00 C 45.00 143.55 44.55 144.00 44.00 144.00 C 43.45 144.00 43.00 143.55 43.00 143.00 Z M 201.81 143.32 C 202.53 143.03 203.40 143.06 203.73 143.40 C 204.06 143.73 203.47 143.96 202.42 143.92 C 201.25 143.87 201.01 143.64 201.81 143.32 Z M 244.00 142.94 C 244.00 142.36 244.45 142.16 245.00 142.50 C 245.55 142.84 246.00 143.32 246.00 143.56 C 246.00 143.80 245.55 144.00 245.00 144.00 C 244.45 144.00 244.00 143.52 244.00 142.94 Z M 262.00 143.00 C 260.72 142.17 260.75 142.03 262.25 142.02 C 263.21 142.01 264.00 142.45 264.00 143.00 C 264.00 144.22 263.89 144.22 262.00 143.00 Z M 266.40 128.17 C 266.37 121.20 266.01 114.49 265.60 113.25 L 264.87 111.00 L 314.37 111.00 C 341.60 111.00 364.08 110.66 364.33 110.25 C 364.58 109.84 364.49 94.89 364.14 77.04 L 363.50 44.58 L 315.26 44.47 C 288.73 44.40 266.75 44.08 266.41 43.75 C 265.28 42.62 265.31 15.09 266.44 14.76 C 267.02 14.59 293.99 14.51 326.36 14.59 C 371.98 14.70 385.39 15.02 385.99 15.98 C 386.41 16.66 386.81 30.78 386.87 47.36 C 387.01 82.21 387.01 76.91 386.86 98.63 C 386.79 108.05 387.06 116.29 387.45 116.93 C 387.85 117.56 387.69 118.67 387.11 119.37 C 386.44 120.18 386.35 121.75 386.88 123.58 C 387.33 125.19 387.37 127.40 386.97 128.50 C 386.56 129.60 386.45 131.72 386.73 133.21 C 387.01 134.71 386.97 136.99 386.64 138.29 L 386.05 140.64 L 369.28 140.40 C 327.59 139.79 268.31 139.69 267.43 140.23 C 266.83 140.61 266.44 136.06 266.40 128.17 Z M 17.75 139.19 C 14.34 138.91 14.00 138.61 14.00 135.94 C 14.00 133.99 13.49 133.00 12.50 133.00 C 10.63 133.00 10.53 131.40 12.35 130.70 C 13.44 130.28 13.65 125.20 13.43 103.84 C 13.29 89.35 13.09 76.15 13.00 74.50 C 12.83 71.58 12.81 71.57 12.12 74.00 C 11.73 75.38 11.46 81.11 11.53 86.75 C 11.65 96.89 10.84 99.93 9.62 93.88 C 8.75 89.49 8.84 88.78 10.15 89.60 C 10.86 90.03 11.04 89.87 10.60 89.17 C 9.60 87.54 8.91 71.00 9.85 71.00 C 10.28 71.00 10.44 66.05 10.21 60.00 C 9.91 52.06 10.11 49.00 10.95 49.00 C 11.59 49.00 11.92 49.34 11.68 49.75 C 11.45 50.16 11.61 51.40 12.05 52.50 C 12.68 54.06 12.87 53.67 12.93 50.75 C 12.97 48.46 12.56 47.10 11.87 47.25 C 9.86 47.70 9.73 44.88 11.74 44.36 C 13.19 43.98 13.57 43.22 13.23 41.42 C 12.98 40.09 12.14 39.00 11.38 39.00 C 10.62 39.00 10.00 38.55 10.00 38.00 C 10.00 37.45 10.68 37.00 11.50 37.00 C 12.55 37.00 12.96 36.03 12.86 33.75 C 12.77 31.40 12.61 31.12 12.29 32.75 C 12.06 33.99 11.55 35.00 11.18 35.00 C 10.27 35.00 10.36 24.30 11.28 23.39 C 11.68 22.99 12.00 23.44 12.00 24.39 C 12.00 25.34 12.47 25.83 13.04 25.47 C 14.37 24.66 13.19 20.77 11.28 19.65 C 10.05 18.93 10.11 18.55 11.67 17.15 C 13.33 15.65 18.94 15.51 72.26 15.59 C 104.58 15.64 131.30 15.96 131.64 16.30 C 131.98 16.64 132.20 22.23 132.13 28.71 C 132.07 35.19 132.35 40.96 132.76 41.51 C 133.16 42.07 134.74 42.58 136.25 42.66 C 139.43 42.81 139.33 43.40 139.10 26.50 L 138.96 15.50 L 166.23 15.24 C 194.57 14.98 238.16 14.32 241.31 14.12 C 242.30 14.05 242.84 13.55 242.50 13.00 C 242.16 12.45 242.36 12.00 242.94 12.00 C 243.52 12.00 244.00 12.62 244.00 13.38 C 244.00 14.46 245.65 14.71 251.38 14.54 L 258.75 14.31 L 258.63 29.15 L 258.50 44.00 L 240.00 44.05 C 229.82 44.08 197.11 44.34 167.30 44.62 L 113.10 45.13 L 107.30 39.54 C 75.02 8.41 23.00 32.02 23.00 77.82 C 23.00 107.31 45.07 130.00 73.75 130.00 C 87.44 130.00 98.76 125.29 108.51 115.54 L 112.99 111.06 L 183.03 111.02 C 221.54 111.00 253.38 110.93 253.78 110.87 C 254.18 110.81 256.22 110.82 258.32 110.88 C 261.71 110.99 261.97 111.17 260.65 112.49 C 259.45 113.69 259.20 116.57 259.37 126.93 L 259.59 139.87 L 199.79 139.96 C 151.97 140.03 139.99 139.80 139.95 138.78 C 139.92 138.07 139.81 132.12 139.70 125.54 L 139.50 113.58 L 136.25 112.92 C 132.53 112.16 132.86 110.67 132.62 129.50 L 132.50 139.50 L 77.00 139.50 C 46.47 139.50 19.81 139.36 17.75 139.19 Z M 390.00 139.00 C 390.00 138.45 390.45 138.00 391.00 138.00 C 391.55 138.00 392.00 138.45 392.00 139.00 C 392.00 139.55 391.55 140.00 391.00 140.00 C 390.45 140.00 390.00 139.55 390.00 139.00 Z M 9.00 135.00 C 9.00 134.45 9.70 134.00 10.56 134.00 C 11.42 134.00 11.84 134.45 11.50 135.00 C 11.16 135.55 10.46 136.00 9.94 136.00 C 9.42 136.00 9.00 135.55 9.00 135.00 Z M 135.58 134.13 C 135.27 133.63 135.69 132.67 136.51 131.99 C 137.72 130.99 138.00 131.05 138.00 132.32 C 138.00 134.19 136.37 135.41 135.58 134.13 Z M 136.16 127.00 C 136.16 125.62 136.38 125.06 136.66 125.75 C 136.94 126.44 136.94 127.56 136.66 128.25 C 136.38 128.94 136.16 128.38 136.16 127.00 Z M 10.00 125.50 C 10.00 124.12 10.45 123.00 11.00 123.00 C 11.55 123.00 12.00 124.12 12.00 125.50 C 12.00 126.88 11.55 128.00 11.00 128.00 C 10.45 128.00 10.00 126.88 10.00 125.50 Z M 61.43 120.13 C 46.98 115.20 36.45 104.47 32.47 90.61 C 29.95 81.84 30.74 67.32 34.14 60.00 C 38.00 51.66 41.43 47.17 47.55 42.42 C 64.91 28.94 86.90 30.61 102.67 46.60 L 108.84 52.86 L 231.94 52.78 C 299.64 52.74 355.31 52.98 355.66 53.32 C 356.00 53.66 356.33 64.87 356.39 78.22 L 356.50 102.50 L 232.96 102.55 L 109.42 102.59 L 104.96 107.45 C 99.33 113.59 91.16 118.87 84.59 120.62 C 77.72 122.45 67.60 122.23 61.43 120.13 Z M 9.44 119.90 C 9.06 119.28 9.36 118.40 10.11 117.93 C 11.20 117.26 11.23 116.83 10.24 115.84 C 8.54 114.14 8.68 112.94 10.50 113.64 C 11.35 113.96 12.00 115.45 12.00 117.05 C 12.00 120.12 10.56 121.72 9.44 119.90 Z M 136.50 115.00 C 136.84 114.45 137.32 114.00 137.56 114.00 C 137.80 114.00 138.00 114.45 138.00 115.00 C 138.00 115.55 137.52 116.00 136.94 116.00 C 136.36 116.00 136.16 115.55 136.50 115.00 Z M 10.07 111.25 C 10.11 110.84 10.53 109.60 11.00 108.50 C 11.76 106.73 11.87 106.81 11.93 109.25 C 11.97 110.76 11.55 112.00 11.00 112.00 C 10.45 112.00 10.03 111.66 10.07 111.25 Z M 10.02 104.25 C 10.03 102.25 10.27 101.88 10.92 102.91 C 11.41 103.68 11.58 104.92 11.30 105.66 C 10.49 107.77 10.00 107.24 10.02 104.25 Z M 11.00 100.06 C 11.00 99.54 11.45 98.84 12.00 98.50 C 12.55 98.16 13.00 98.58 13.00 99.44 C 13.00 100.30 12.55 101.00 12.00 101.00 C 11.45 101.00 11.00 100.58 11.00 100.06 Z M 78.17 82.35 C 80.80 79.97 80.58 74.52 77.78 72.56 C 73.37 69.47 68.93 71.40 67.53 77.01 C 66.21 82.32 73.92 86.19 78.17 82.35 Z M 12.71 58.75 C 12.47 57.51 12.27 58.52 12.27 61.00 C 12.27 63.48 12.47 64.49 12.71 63.25 C 12.94 62.01 12.94 59.99 12.71 58.75 Z M 10.00 41.50 C 10.00 40.67 10.45 40.00 11.00 40.00 C 11.55 40.00 12.00 40.67 12.00 41.50 C 12.00 42.33 11.55 43.00 11.00 43.00 C 10.45 43.00 10.00 42.33 10.00 41.50 Z M 389.50 40.00 C 389.16 39.45 389.36 39.00 389.94 39.00 C 390.52 39.00 391.00 39.45 391.00 40.00 C 391.00 40.55 390.80 41.00 390.56 41.00 C 390.32 41.00 389.84 40.55 389.50 40.00 Z M 135.08 34.42 C 135.13 33.25 135.36 33.01 135.68 33.81 C 135.97 34.53 135.94 35.40 135.60 35.73 C 135.27 36.06 135.04 35.47 135.08 34.42 Z M 261.00 34.00 C 261.00 33.45 261.45 33.00 262.00 33.00 C 262.55 33.00 263.00 33.45 263.00 34.00 C 263.00 34.55 262.55 35.00 262.00 35.00 C 261.45 35.00 261.00 34.55 261.00 34.00 Z M 134.00 26.00 C 134.00 25.45 134.42 25.00 134.94 25.00 C 135.46 25.00 136.16 25.45 136.50 26.00 C 136.84 26.55 136.42 27.00 135.56 27.00 C 134.70 27.00 134.00 26.55 134.00 26.00 Z M 135.00 23.00 C 135.00 22.45 135.45 22.00 136.00 22.00 C 136.55 22.00 137.00 22.45 137.00 23.00 C 137.00 23.55 136.55 24.00 136.00 24.00 C 135.45 24.00 135.00 23.55 135.00 23.00 Z M 135.08 19.42 C 135.13 18.25 135.36 18.01 135.68 18.81 C 135.97 19.53 135.94 20.40 135.60 20.73 C 135.27 21.06 135.04 20.47 135.08 19.42 Z M 133.60 13.39 C 133.14 12.21 133.40 11.94 134.57 12.39 C 135.45 12.72 136.91 13.03 137.83 13.07 C 139.16 13.13 139.10 13.31 137.50 14.00 C 134.63 15.24 134.28 15.18 133.60 13.39 Z M 28.81 13.32 C 29.53 13.03 30.40 13.06 30.73 13.40 C 31.06 13.73 30.47 13.96 29.42 13.92 C 28.25 13.87 28.01 13.64 28.81 13.32 Z M 63.75 13.34 C 64.44 13.06 65.56 13.06 66.25 13.34 C 66.94 13.62 66.38 13.84 65.00 13.84 C 63.62 13.84 63.06 13.62 63.75 13.34 Z M 91.00 13.00 C 91.00 11.75 92.06 11.75 94.00 13.00 C 95.21 13.78 95.07 13.97 93.25 13.98 C 92.01 13.99 91.00 13.55 91.00 13.00 Z M 101.00 12.50 C 101.00 11.68 101.44 11.00 101.97 11.00 C 102.50 11.00 102.68 11.68 102.36 12.50 C 102.05 13.32 101.61 14.00 101.39 14.00 C 101.18 14.00 101.00 13.32 101.00 12.50 Z M 118.81 13.32 C 119.53 13.03 120.40 13.06 120.73 13.40 C 121.06 13.73 120.47 13.96 119.42 13.92 C 118.25 13.87 118.01 13.64 118.81 13.32 Z M 123.50 13.00 C 122.76 11.81 124.72 11.81 127.50 13.00 C 129.29 13.77 129.21 13.87 126.81 13.93 C 125.33 13.97 123.84 13.55 123.50 13.00 Z M 144.00 12.94 C 144.00 12.36 144.45 12.16 145.00 12.50 C 145.55 12.84 146.00 13.32 146.00 13.56 C 146.00 13.80 145.55 14.00 145.00 14.00 C 144.45 14.00 144.00 13.52 144.00 12.94 Z M 154.81 13.32 C 155.53 13.03 156.40 13.06 156.73 13.40 C 157.06 13.73 156.47 13.96 155.42 13.92 C 154.25 13.87 154.01 13.64 154.81 13.32 Z M 361.50 12.00 C 361.16 11.45 361.33 11.00 361.88 11.00 C 362.43 11.00 363.16 11.45 363.50 12.00 C 363.84 12.55 363.67 13.00 363.12 13.00 C 362.57 13.00 361.84 12.55 361.50 12.00 Z M 106.81 11.32 C 107.53 11.03 108.40 11.06 108.73 11.40 C 109.06 11.73 108.47 11.96 107.42 11.92 C 106.25 11.87 106.01 11.64 106.81 11.32 Z M 299.50 11.00 C 299.16 10.45 299.61 10.00 300.50 10.00 C 301.39 10.00 301.84 10.45 301.50 11.00 C 301.16 11.55 300.71 12.00 300.50 12.00 C 300.29 12.00 299.84 11.55 299.50 11.00 Z M 344.00 10.94 C 344.00 10.36 344.45 10.16 345.00 10.50 C 345.55 10.84 346.00 11.32 346.00 11.56 C 346.00 11.80 345.55 12.00 345.00 12.00 C 344.45 12.00 344.00 11.52 344.00 10.94 Z" fill="none" stroke="rgba(255,255,255,0.92)" stroke-width="1.5" stroke-linejoin="round" fill-rule="evenodd"/>
</svg>
