<svg xmlns="http://www.w3.org/2000/svg" viewBox="0 0 100 100" width="100" height="100">
  <path d="M 0.00 50.00 L 0.00 0.00 L 50.00 0.00 L 100.00 0.00 L 100.00 50.00 L 100.00 100.00 L 50.00 100.00 L 0.00 100.00 L 0.00 50.00 Z M 15.00 94.89 C 15.00 94.23 15.71 94.07 16.75 94.50 C 18.98 95.41 29.23 95.76 27.80 94.88 C 27.19 94.50 27.67 93.92 28.94 93.52 C 30.16 93.13 31.42 93.08 31.74 93.41 C 32.07 93.73 31.70 94.03 30.92 94.06 C 30.14 94.10 30.57 94.56 31.88 95.08 C 33.19 95.60 34.76 95.65 35.38 95.19 C 36.00 94.72 40.44 94.44 45.25 94.56 C 50.06 94.67 54.00 94.40 54.00 93.95 C 54.00 93.51 55.26 93.50 56.80 93.94 C 61.40 95.26 92.00 95.91 92.00 94.69 C 92.00 94.24 92.86 94.14 93.91 94.47 C 95.77 95.06 95.82 93.87 95.94 49.47 L 96.07 3.86 L 52.79 4.05 C 10.08 4.24 4.00 4.49 4.00 6.04 C 4.00 6.47 20.54 6.61 40.75 6.34 C 60.96 6.07 80.65 6.14 84.50 6.49 L 91.50 7.13 L 91.50 48.81 L 91.50 90.50 L 48.27 90.56 C 24.50 90.59 4.73 90.94 4.34 91.33 C 2.74 92.93 6.64 94.72 14.25 95.89 C 14.66 95.95 15.00 95.50 15.00 94.89 Z M 55.94 74.95 C 64.45 72.74 72.46 64.58 74.99 55.54 C 77.74 45.72 72.58 33.96 63.01 28.24 C 56.15 24.14 52.13 23.01 44.38 23.01 C 39.36 23.00 36.99 23.64 31.12 26.57 C 22.35 30.96 17.65 36.57 15.98 44.62 C 14.49 51.77 15.46 56.98 19.34 62.70 C 27.39 74.57 40.52 78.96 55.94 74.95 Z M 36.39 69.38 C 19.11 63.26 15.91 43.04 30.60 32.93 C 42.57 24.70 59.69 27.78 66.50 39.40 C 70.04 45.45 70.57 49.75 68.54 55.88 C 64.57 67.84 49.67 74.09 36.39 69.38 Z" fill="none" stroke="rgba(255,255,255,0.92)" stroke-width="1.2" stroke-linejoin="round" fill-rule="evenodd"/>
</svg>
