<svg xmlns="http://www.w3.org/2000/svg" viewBox="0 0 400 94" width="400" height="94">
  <path d="M 0.00 47.00 L 0.00 0.00 L 200.00 0.00 L 400.00 0.00 L 400.00 47.00 L 400.00 94.00 L 200.00 94.00 L 0.00 94.00 L 0.00 47.00 Z M 10.94 88.51 C 12.90 88.43 14.80 88.82 15.17 89.37 C 15.62 90.04 16.29 90.03 17.17 89.34 C 18.00 88.69 28.54 88.23 45.00 88.12 C 59.58 88.02 75.24 87.82 79.81 87.66 C 84.38 87.51 88.32 87.70 88.56 88.09 C 88.79 88.48 90.45 88.47 92.24 88.08 C 94.04 87.69 100.67 87.51 107.00 87.69 C 136.42 88.53 147.00 88.49 147.02 87.51 C 147.02 86.96 147.46 87.17 147.98 88.00 C 148.77 89.24 149.29 89.28 150.96 88.25 C 153.51 86.67 156.71 86.64 157.23 88.19 C 157.53 89.08 168.01 89.40 199.19 89.45 C 232.21 89.50 240.65 89.26 240.27 88.26 C 240.00 87.57 240.28 87.00 240.89 87.00 C 241.50 87.00 242.04 87.56 242.08 88.25 C 242.14 89.17 242.29 89.18 242.64 88.32 C 243.00 87.43 244.17 87.50 247.30 88.61 C 250.04 89.57 251.59 89.72 251.82 89.03 C 252.01 88.46 252.69 88.31 253.32 88.70 C 254.97 89.72 263.03 89.85 262.40 88.85 C 261.63 87.59 263.72 87.82 266.14 89.25 C 267.52 90.06 268.39 90.14 268.64 89.47 C 268.86 88.87 271.93 88.54 276.01 88.66 C 280.87 88.82 283.00 88.52 283.02 87.69 C 283.03 86.81 283.23 86.82 283.82 87.74 C 284.88 89.42 314.00 90.51 314.00 88.87 C 314.00 88.09 314.38 88.07 315.25 88.80 C 316.68 89.98 323.82 89.85 325.84 88.60 C 326.59 88.13 327.63 88.23 328.21 88.81 C 328.88 89.48 330.11 89.53 331.63 88.95 C 333.12 88.38 334.00 88.41 334.00 89.02 C 334.00 89.56 334.68 90.00 335.50 90.00 C 336.32 90.00 337.00 89.64 337.00 89.19 C 337.00 88.75 338.46 88.55 340.25 88.74 C 342.04 88.94 355.58 89.31 370.35 89.56 L 397.20 90.03 L 396.60 64.80 C 396.27 50.92 395.98 32.12 395.95 23.01 C 395.92 13.90 395.53 5.85 395.08 5.13 C 394.41 4.05 359.76 3.91 199.38 4.35 C 92.20 4.64 4.39 4.91 4.25 4.94 C 4.11 4.97 4.07 8.26 4.15 12.25 L 4.29 19.50 L 4.90 13.83 C 5.24 10.71 5.73 7.94 6.01 7.68 C 6.73 6.99 74.28 6.00 76.75 6.65 C 77.91 6.95 79.23 7.94 79.68 8.85 C 80.13 9.76 80.72 27.24 81.00 47.71 C 81.49 84.31 81.47 84.92 79.50 85.33 C 78.40 85.57 62.26 85.85 43.64 85.95 C 11.06 86.14 9.72 86.07 7.94 84.17 C 6.93 83.08 6.16 81.13 6.23 79.84 C 6.65 72.61 5.88 48.95 5.25 49.35 C 4.67 49.70 4.52 69.38 4.96 88.31 C 4.98 89.45 5.44 89.85 6.19 89.38 C 6.84 88.98 8.98 88.58 10.94 88.51 Z M 310.50 88.00 C 310.16 87.45 310.36 87.00 310.94 87.00 C 311.52 87.00 312.00 87.45 312.00 88.00 C 312.00 88.55 311.80 89.00 311.56 89.00 C 311.32 89.00 310.84 88.55 310.50 88.00 Z M 86.70 85.18 C 85.76 85.00 85.00 84.41 85.00 83.87 C 85.00 83.33 84.61 83.12 84.13 83.42 C 83.66 83.71 83.23 80.02 83.19 75.23 C 82.87 42.59 82.98 24.84 83.51 23.99 C 83.84 23.45 83.75 23.00 83.31 23.00 C 82.86 23.00 82.50 19.29 82.50 14.75 L 82.50 6.50 L 119.75 6.21 L 157.00 5.92 L 157.01 24.71 C 157.02 35.04 157.31 52.84 157.66 64.25 L 158.29 85.00 L 142.89 85.07 C 134.43 85.11 118.70 85.22 107.95 85.32 C 97.19 85.42 87.63 85.35 86.70 85.18 Z M 272.08 85.24 L 240.30 84.97 L 239.58 46.36 C 239.18 24.94 239.24 7.36 239.72 6.88 C 240.20 6.40 255.86 6.05 274.54 6.09 C 293.22 6.13 309.51 6.13 310.75 6.09 C 313.00 6.02 313.00 6.03 313.05 23.76 C 313.08 33.52 313.23 51.25 313.38 63.16 L 313.66 84.83 L 308.76 85.16 C 306.06 85.35 289.55 85.38 272.08 85.24 Z M 319.74 85.18 C 318.14 84.88 317.99 82.73 317.91 58.68 C 317.78 22.78 317.44 8.52 316.69 7.31 C 316.27 6.63 319.95 6.25 327.53 6.20 C 333.84 6.15 339.42 5.86 339.92 5.55 C 340.42 5.24 341.09 5.55 341.41 6.24 C 341.88 7.25 342.12 7.25 342.59 6.24 C 342.91 5.55 343.62 5.26 344.17 5.60 C 344.71 5.94 356.16 6.27 369.60 6.34 C 383.04 6.40 393.25 6.77 392.27 7.16 C 391.30 7.54 391.05 7.89 391.73 7.93 C 392.55 7.98 392.70 8.74 392.19 10.25 C 391.77 11.49 391.50 15.42 391.59 19.00 C 391.73 25.07 392.10 77.38 392.03 83.08 L 392.00 85.66 L 356.74 85.58 C 337.35 85.54 320.70 85.35 319.74 85.18 Z M 162.50 82.84 C 162.18 81.55 162.05 75.78 162.21 70.00 L 162.50 59.50 L 174.00 59.50 L 185.50 59.50 L 185.78 71.75 L 186.06 84.00 L 176.11 84.00 C 170.64 84.00 165.47 84.27 164.62 84.59 C 163.58 84.99 162.90 84.43 162.50 82.84 Z M 218.00 84.00 L 211.50 83.50 L 211.22 71.10 L 210.94 58.70 L 220.12 59.35 C 225.17 59.71 230.59 60.00 232.15 60.00 L 235.00 60.00 L 235.00 72.55 L 235.00 85.09 L 229.75 84.80 C 226.86 84.63 221.57 84.28 218.00 84.00 Z M 130.44 70.03 C 142.48 64.87 148.41 49.15 142.92 37.00 C 133.84 16.92 107.97 17.08 99.53 37.27 C 97.69 41.69 97.61 51.15 99.37 56.09 C 103.95 68.91 118.17 75.28 130.44 70.03 Z M 288.82 68.31 C 294.39 64.86 297.51 60.50 299.64 53.18 C 302.57 43.09 298.37 32.02 289.18 25.56 C 285.54 23.00 283.74 22.48 277.60 22.16 C 269.24 21.74 264.70 23.49 259.36 29.16 C 254.24 34.61 252.63 38.72 252.58 46.50 C 252.53 54.66 254.47 59.47 260.09 65.09 C 267.53 72.53 279.78 73.90 288.82 68.31 Z M 113.00 64.76 C 106.49 61.27 102.50 54.48 102.61 47.10 C 102.71 39.94 105.72 33.94 111.18 29.99 C 114.54 27.55 116.29 27.00 120.70 27.00 C 127.18 27.00 130.46 28.55 135.27 33.88 C 141.19 40.43 141.66 50.78 136.36 58.27 C 132.24 64.09 129.12 66.03 122.94 66.64 C 118.45 67.08 116.72 66.75 113.00 64.76 Z M 271.00 65.83 C 265.72 64.32 261.52 60.64 259.02 55.31 C 251.72 39.80 265.79 22.78 281.94 27.58 C 289.54 29.83 296.00 38.65 296.00 46.76 C 296.00 54.88 289.71 63.57 282.20 65.82 C 277.64 67.19 275.80 67.19 271.00 65.83 Z M 186.67 58.33 C 186.30 57.97 186.00 52.34 186.00 45.83 L 186.00 34.00 L 197.44 34.00 C 203.73 34.00 209.15 34.43 209.48 34.96 C 209.80 35.49 210.35 41.11 210.69 47.46 L 211.31 59.00 L 199.32 59.00 C 192.73 59.00 187.03 58.70 186.67 58.33 Z M 6.00 46.44 C 6.00 45.58 5.54 45.16 4.98 45.51 C 4.42 45.86 4.23 46.56 4.54 47.07 C 5.40 48.46 6.00 48.20 6.00 46.44 Z M 5.58 39.25 C 4.43 38.09 3.84 39.90 4.62 42.17 L 5.43 44.50 L 5.79 42.16 C 6.00 40.88 5.90 39.57 5.58 39.25 Z M 5.24 33.50 C 4.98 32.12 4.59 31.00 4.38 31.00 C 4.17 31.00 4.00 32.12 4.00 33.50 C 4.00 34.88 4.39 36.00 4.86 36.00 C 5.34 36.00 5.51 34.88 5.24 33.50 Z M 173.25 33.25 L 162.00 32.93 L 162.00 21.47 C 162.00 15.16 162.00 9.66 162.00 9.25 C 161.99 8.30 168.37 8.17 178.00 8.92 L 185.50 9.50 L 185.84 21.75 C 186.02 28.49 185.80 33.90 185.34 33.79 C 184.88 33.67 179.44 33.43 173.25 33.25 Z M 210.70 33.36 C 210.31 32.98 210.00 27.33 210.00 20.80 L 210.00 8.94 L 222.25 9.22 L 234.50 9.50 L 234.50 21.50 L 234.50 33.50 L 222.95 33.78 C 216.59 33.93 211.08 33.75 210.70 33.36 Z M 4.66 20.75 C 4.38 20.06 4.16 20.62 4.16 22.00 C 4.16 23.38 4.38 23.94 4.66 23.25 C 4.94 22.56 4.94 21.44 4.66 20.75 Z" fill="none" stroke="rgba(255,255,255,0.92)" stroke-width="1.5" stroke-linejoin="round" fill-rule="evenodd"/>
</svg>
