<svg xmlns="http://www.w3.org/2000/svg" viewBox="0 0 100 100" width="100" height="100">
  <path d="M 0.00 50.00 L 0.00 0.00 L 50.00 0.00 L 100.00 0.00 L 100.00 50.00 L 100.00 100.00 L 50.00 100.00 L 0.00 100.00 L 0.00 50.00 Z M 83.92 93.55 C 84.51 93.18 85.00 93.36 85.00 93.94 C 85.00 95.29 88.68 95.33 89.50 94.00 C 89.84 93.45 90.79 93.00 91.62 93.00 C 92.44 93.00 92.84 93.45 92.50 94.00 C 92.16 94.55 92.53 95.00 93.32 95.00 C 94.12 95.00 95.00 94.10 95.29 93.00 C 95.71 91.38 95.31 90.99 93.16 90.94 C 91.70 90.90 72.27 90.93 49.98 90.99 C 27.69 91.06 8.75 90.84 7.88 90.51 C 6.85 90.11 6.41 88.95 6.61 87.20 C 6.82 85.40 6.73 85.16 6.33 86.50 L 5.73 88.50 L 4.97 86.50 C 4.42 85.08 4.21 85.73 4.22 88.75 L 4.24 93.00 L 15.37 93.12 C 21.49 93.19 32.00 93.21 38.72 93.17 C 45.45 93.13 51.14 93.42 51.38 93.80 C 51.92 94.69 82.46 94.45 83.92 93.55 Z M 64.50 74.04 C 85.01 65.15 86.80 38.68 67.64 27.55 C 65.37 26.23 60.66 24.57 57.18 23.86 C 51.66 22.73 50.03 22.79 44.34 24.28 C 28.68 28.39 19.85 40.73 22.74 54.49 C 26.42 72.06 46.93 81.66 64.50 74.04 Z M 43.87 70.03 C 39.61 68.74 34.00 64.47 31.17 60.34 C 29.00 57.17 28.53 55.37 28.52 50.00 C 28.50 44.41 28.92 42.88 31.50 39.08 C 33.15 36.64 36.64 33.34 39.26 31.74 C 43.28 29.27 45.05 28.82 50.83 28.82 C 63.67 28.82 72.48 35.38 75.08 46.87 C 76.50 53.14 72.24 61.75 64.83 67.57 C 60.88 70.68 50.16 71.94 43.87 70.03 Z M 92.75 6.01 C 94.54 6.01 96.00 5.49 96.00 4.88 C 96.00 4.05 86.15 3.91 59.25 4.35 C 39.04 4.67 18.34 4.96 13.25 4.97 C 7.51 4.99 4.00 5.40 4.00 6.04 C 4.00 6.76 17.37 6.92 46.75 6.56 C 70.26 6.27 90.96 6.02 92.75 6.01 Z" fill="none" stroke="rgba(255,255,255,0.92)" stroke-width="1.2" stroke-linejoin="round" fill-rule="evenodd"/>
</svg>
