<svg xmlns="http://www.w3.org/2000/svg" viewBox="0 0 100 100" width="100" height="100">
  <path d="M 0.00 50.00 L 0.00 0.00 L 50.00 0.00 L 100.00 0.00 L 100.00 50.00 L 100.00 100.00 L 50.00 100.00 L 0.00 100.00 L 0.00 50.00 Z M 95.50 50.23 L 95.50 4.95 L 49.75 5.13 L 4.00 5.31 L 4.00 7.91 L 4.00 10.50 L 46.42 10.50 C 69.75 10.50 89.11 10.78 89.45 11.12 C 89.79 11.45 90.10 30.35 90.14 53.12 C 90.18 75.88 90.43 94.86 90.70 95.31 C 90.97 95.75 92.16 95.98 93.34 95.81 L 95.50 95.50 L 95.50 50.23 Z M 73.08 77.59 C 73.31 77.36 73.37 66.78 73.21 54.09 L 72.93 31.00 L 38.46 31.00 L 4.00 31.00 L 4.00 34.00 L 4.00 37.00 L 35.46 37.00 L 66.91 37.00 L 67.21 54.50 L 67.50 72.00 L 35.75 72.00 L 4.00 72.00 L 4.00 75.00 L 4.00 78.00 L 38.33 78.00 C 57.22 78.00 72.85 77.81 73.08 77.59 Z" fill="none" stroke="rgba(255,255,255,0.92)" stroke-width="1.2" stroke-linejoin="round" fill-rule="evenodd"/>
</svg>
