<svg xmlns="http://www.w3.org/2000/svg" viewBox="0 0 100 100" width="100" height="100">
  <path d="M 0.00 50.00 L 0.00 0.00 L 50.00 0.00 L 100.00 0.00 L 100.00 50.00 L 100.00 100.00 L 50.00 100.00 L 0.00 100.00 L 0.00 50.00 Z M 76.00 90.05 L 76.00 84.10 L 82.25 83.80 C 88.24 83.51 88.51 83.39 88.82 80.75 L 89.13 78.00 L 79.57 78.00 L 70.00 78.00 L 70.00 87.00 L 70.00 96.00 L 73.00 96.00 C 76.00 96.00 76.00 95.99 76.00 90.05 Z M 96.00 50.00 L 96.00 4.00 L 50.00 4.00 L 4.00 4.00 L 4.00 7.00 L 4.00 10.00 L 37.35 10.00 L 70.70 10.00 L 70.60 18.75 L 70.50 27.50 L 79.82 27.79 L 89.13 28.08 L 88.82 24.79 L 88.50 21.50 L 82.75 21.85 C 77.03 22.19 77.00 22.18 76.92 19.35 C 76.88 17.78 76.77 15.04 76.67 13.25 L 76.50 10.00 L 83.60 10.00 L 90.71 10.00 L 90.21 53.00 L 89.72 96.00 L 92.86 96.00 L 96.00 96.00 L 96.00 50.00 Z M 56.18 49.03 C 54.45 43.79 51.66 35.23 49.98 30.00 C 48.31 24.77 46.72 19.89 46.45 19.14 C 46.08 18.08 45.66 18.04 44.57 18.94 C 43.79 19.59 40.31 20.89 36.83 21.84 C 29.95 23.71 29.72 24.13 31.46 31.57 C 32.15 34.51 32.01 34.68 27.84 35.87 C 25.45 36.55 19.11 38.49 13.75 40.19 L 4.00 43.28 L 4.00 52.14 C 4.00 57.01 4.29 61.00 4.64 61.00 C 5.52 61.00 30.99 53.09 33.80 51.94 C 37.51 50.42 37.86 50.72 39.57 56.75 C 40.47 59.91 42.57 66.69 44.25 71.80 L 47.29 81.11 L 53.31 69.84 L 59.32 58.57 L 56.18 49.03 Z" fill="none" stroke="rgba(255,255,255,0.92)" stroke-width="1.2" stroke-linejoin="round" fill-rule="evenodd"/>
</svg>
