<svg xmlns="http://www.w3.org/2000/svg" viewBox="0 0 100 100" width="100" height="100">
  <path d="M 0.00 50.00 L 0.00 0.00 L 50.00 0.00 L 100.00 0.00 L 100.00 50.00 L 100.00 100.00 L 50.00 100.00 L 0.00 100.00 L 0.00 50.00 Z M 10.97 51.39 C 10.92 26.86 11.13 6.54 11.43 6.23 C 11.74 5.93 19.53 5.37 28.74 5.00 L 45.50 4.32 L 25.25 4.16 L 5.00 4.00 L 5.00 50.00 L 5.00 96.00 L 8.03 96.00 L 11.06 96.00 L 10.97 51.39 Z M 86.23 93.22 C 88.25 91.20 88.29 90.35 88.10 51.35 C 87.92 15.47 87.73 11.36 86.20 9.64 C 84.61 7.86 83.34 7.77 66.50 8.29 C 47.40 8.89 45.55 9.19 44.46 11.83 C 43.19 14.91 43.96 93.25 45.28 94.83 C 46.26 96.02 49.73 96.18 65.32 95.77 C 82.66 95.32 84.33 95.11 86.23 93.22 Z M 49.89 90.89 C 49.83 90.67 49.60 73.76 49.39 53.31 C 49.12 27.69 49.34 15.91 50.07 15.46 C 50.65 15.10 51.32 14.99 51.55 15.21 C 51.77 15.44 52.12 27.39 52.32 41.76 C 52.59 61.65 52.99 68.29 54.01 69.51 C 58.12 74.46 68.54 75.07 76.17 70.79 L 80.27 68.50 L 79.64 41.30 C 79.24 23.61 79.37 13.89 80.02 13.49 C 80.57 13.15 81.21 13.46 81.45 14.19 C 81.70 14.91 82.10 31.59 82.36 51.26 C 82.76 82.01 82.62 87.24 81.34 88.51 C 80.22 89.64 77.34 90.00 69.57 90.00 C 63.91 90.00 57.19 90.29 54.64 90.64 C 52.09 90.99 49.95 91.10 49.89 90.89 Z M 60.23 66.77 L 57.97 65.68 L 58.23 40.09 L 58.50 14.50 L 66.09 14.21 L 73.68 13.92 L 73.91 39.78 L 74.13 65.65 L 70.20 66.82 C 65.48 68.24 63.25 68.22 60.23 66.77 Z" fill="none" stroke="rgba(255,255,255,0.92)" stroke-width="1.2" stroke-linejoin="round" fill-rule="evenodd"/>
</svg>
