<svg xmlns="http://www.w3.org/2000/svg" viewBox="0 0 400 293" width="400" height="293">
  <path d="M 0.00 146.50 L 0.00 0.00 L 200.00 0.00 L 400.00 0.00 L 400.00 146.50 L 400.00 293.00 L 200.00 293.00 L 0.00 293.00 L 0.00 146.50 Z M 16.81 284.34 C 18.40 282.75 20.14 283.47 19.40 285.40 C 19.02 286.38 19.59 286.61 21.46 286.25 C 22.87 285.98 24.27 285.36 24.57 284.88 C 24.87 284.40 26.10 284.04 27.31 284.08 C 28.51 284.12 28.94 284.38 28.25 284.66 C 25.38 285.82 27.37 286.61 32.64 286.40 C 36.03 286.26 38.62 285.64 39.14 284.84 C 39.86 283.72 40.15 283.73 40.88 284.86 C 41.55 285.91 43.55 286.07 49.63 285.58 C 60.40 284.71 60.00 284.79 60.00 283.64 C 60.00 283.08 60.66 283.49 61.47 284.56 C 62.54 285.97 62.95 286.10 62.97 285.05 C 62.99 284.10 63.34 283.94 63.98 284.58 C 65.54 286.14 107.14 285.38 108.17 283.78 C 108.82 282.77 109.17 282.76 109.80 283.74 C 110.40 284.66 115.15 284.88 128.94 284.61 C 145.11 284.29 147.40 284.04 148.26 282.50 C 149.03 281.12 149.40 281.04 150.05 282.09 C 150.85 283.38 164.93 284.29 164.81 283.04 C 164.64 281.19 165.16 280.70 165.96 281.97 C 167.09 283.76 178.20 283.91 178.79 282.14 C 179.00 281.51 179.57 281.00 180.05 281.00 C 180.54 281.00 180.65 281.74 180.30 282.65 C 179.78 284.01 180.13 284.18 182.28 283.65 C 183.71 283.29 194.63 282.97 206.53 282.94 C 218.44 282.90 229.27 282.47 230.59 281.96 C 232.04 281.41 233.00 281.41 233.00 281.96 C 233.00 282.75 352.59 282.60 383.50 281.77 L 393.50 281.50 L 393.58 271.00 C 393.62 265.23 394.03 203.16 394.47 133.08 L 395.29 5.67 L 300.89 6.36 C 248.98 6.74 185.41 7.48 159.64 8.01 C 133.87 8.53 94.49 9.26 72.14 9.62 C 35.27 10.22 25.39 10.42 10.78 10.86 L 6.06 11.00 L 6.58 117.25 C 6.86 175.69 7.25 232.05 7.43 242.50 C 7.62 252.95 7.82 267.26 7.88 274.30 L 8.00 287.09 L 11.72 286.39 C 13.77 286.01 16.06 285.08 16.81 284.34 Z M 43.50 284.00 C 43.16 283.45 43.84 283.00 45.00 283.00 C 46.16 283.00 46.84 283.45 46.50 284.00 C 46.16 284.55 45.49 285.00 45.00 285.00 C 44.51 285.00 43.84 284.55 43.50 284.00 Z M 100.16 282.00 C 100.16 280.62 100.38 280.06 100.66 280.75 C 100.94 281.44 100.94 282.56 100.66 283.25 C 100.38 283.94 100.16 283.38 100.16 282.00 Z M 118.75 282.34 C 119.44 282.06 120.56 282.06 121.25 282.34 C 121.94 282.62 121.38 282.84 120.00 282.84 C 118.62 282.84 118.06 282.62 118.75 282.34 Z M 127.50 282.00 C 127.84 281.45 129.10 281.01 130.31 281.02 C 132.09 281.03 132.22 281.21 131.00 282.00 C 129.03 283.27 126.71 283.27 127.50 282.00 Z M 134.27 282.31 C 135.24 282.05 136.59 282.07 137.27 282.34 C 137.95 282.62 137.15 282.83 135.50 282.81 C 133.85 282.78 133.30 282.56 134.27 282.31 Z M 182.81 281.32 C 183.53 281.03 184.40 281.06 184.73 281.40 C 185.06 281.73 184.47 281.96 183.42 281.92 C 182.25 281.87 182.01 281.64 182.81 281.32 Z M 188.00 281.00 C 188.00 280.45 188.42 280.00 188.94 280.00 C 189.46 280.00 190.16 280.45 190.50 281.00 C 190.84 281.55 190.42 282.00 189.56 282.00 C 188.70 282.00 188.00 281.55 188.00 281.00 Z M 287.57 280.43 C 286.51 279.65 285.96 278.71 286.35 278.32 C 286.73 277.93 287.80 278.37 288.71 279.29 C 290.87 281.44 290.07 282.25 287.57 280.43 Z M 125.81 280.32 C 126.53 280.03 127.40 280.06 127.73 280.40 C 128.06 280.73 127.47 280.96 126.42 280.92 C 125.25 280.87 125.01 280.64 125.81 280.32 Z M 193.50 280.00 C 193.16 279.45 193.84 279.00 195.00 279.00 C 196.16 279.00 196.84 279.45 196.50 280.00 C 196.16 280.55 195.49 281.00 195.00 281.00 C 194.51 281.00 193.84 280.55 193.50 280.00 Z M 203.50 280.00 C 203.84 279.45 204.32 279.00 204.56 279.00 C 204.80 279.00 205.00 279.45 205.00 280.00 C 205.00 280.55 204.52 281.00 203.94 281.00 C 203.36 281.00 203.16 280.55 203.50 280.00 Z M 211.50 280.00 C 211.16 279.45 211.58 279.00 212.44 279.00 C 213.30 279.00 214.00 279.45 214.00 280.00 C 214.00 280.55 213.58 281.00 213.06 281.00 C 212.54 281.00 211.84 280.55 211.50 280.00 Z M 257.50 280.00 C 257.16 279.45 257.36 279.00 257.94 279.00 C 258.52 279.00 259.00 279.45 259.00 280.00 C 259.00 280.55 258.80 281.00 258.56 281.00 C 258.32 281.00 257.84 280.55 257.50 280.00 Z M 264.08 279.42 C 264.13 278.25 264.36 278.01 264.68 278.81 C 264.97 279.53 264.94 280.40 264.60 280.73 C 264.27 281.06 264.04 280.47 264.08 279.42 Z M 272.99 279.49 C 271.64 277.86 272.70 277.52 274.86 278.89 C 275.68 279.41 275.82 279.99 275.22 280.36 C 274.67 280.70 273.67 280.31 272.99 279.49 Z M 316.50 280.00 C 316.84 279.45 317.54 279.00 318.06 279.00 C 318.58 279.00 319.00 279.45 319.00 280.00 C 319.00 280.55 318.30 281.00 317.44 281.00 C 316.58 281.00 316.16 280.55 316.50 280.00 Z M 331.75 280.31 C 329.11 279.62 329.65 278.19 332.50 278.36 C 333.87 278.44 335.00 279.06 335.00 279.75 C 335.00 281.04 334.72 281.09 331.75 280.31 Z M 245.50 279.00 C 245.16 278.45 245.36 278.00 245.94 278.00 C 246.52 278.00 247.00 278.45 247.00 279.00 C 247.00 279.55 246.80 280.00 246.56 280.00 C 246.32 280.00 245.84 279.55 245.50 279.00 Z M 306.00 278.94 C 306.00 278.36 306.45 278.16 307.00 278.50 C 307.55 278.84 308.00 279.32 308.00 279.56 C 308.00 279.80 307.55 280.00 307.00 280.00 C 306.45 280.00 306.00 279.52 306.00 278.94 Z M 11.62 277.50 C 10.31 274.43 9.70 247.70 10.96 248.48 C 11.53 248.83 12.00 248.67 12.00 248.12 C 12.00 247.57 11.55 246.84 10.99 246.50 C 10.37 246.11 9.98 238.13 9.97 225.69 C 9.96 214.58 9.76 194.47 9.52 181.00 C 9.29 167.53 9.34 154.64 9.64 152.36 L 10.19 148.22 L 14.95 148.27 C 17.56 148.29 20.11 148.05 20.61 147.74 C 22.06 146.84 30.98 147.22 30.40 148.16 C 30.12 148.62 31.01 149.00 32.38 149.00 C 33.76 149.00 35.17 148.53 35.53 147.95 C 35.98 147.23 36.58 147.24 37.49 147.99 C 38.46 148.79 38.96 148.74 39.40 147.79 C 39.87 146.77 40.12 146.76 40.58 147.75 C 41.33 149.36 43.71 149.37 44.24 147.77 C 44.56 146.81 45.86 146.78 50.04 147.64 C 53.00 148.24 56.56 148.43 57.96 148.06 C 59.36 147.69 62.75 147.56 65.50 147.77 C 75.14 148.52 88.00 148.51 88.00 147.76 C 88.00 147.34 88.50 147.00 89.11 147.00 C 89.72 147.00 89.95 147.68 89.64 148.50 C 89.32 149.32 89.54 150.00 90.13 150.00 C 90.71 150.00 91.42 149.10 91.71 148.00 C 92.34 145.60 92.69 145.54 94.65 147.51 C 95.65 148.50 96.68 148.72 97.72 148.14 C 98.58 147.66 100.19 147.50 101.30 147.79 C 102.66 148.14 103.08 147.94 102.60 147.16 C 102.16 146.46 102.54 146.00 103.55 146.00 C 104.60 146.00 105.01 146.54 104.65 147.47 C 104.34 148.28 104.55 149.22 105.11 149.57 C 105.67 149.92 106.38 149.26 106.68 148.10 C 107.26 145.89 108.60 145.30 109.17 147.02 C 109.40 147.69 111.19 147.72 114.50 147.10 C 117.61 146.52 119.92 146.52 120.63 147.10 C 121.34 147.69 122.80 147.65 124.55 146.98 C 126.09 146.40 128.02 146.18 128.84 146.49 C 129.67 146.81 130.69 146.50 131.12 145.81 C 131.54 145.12 132.24 144.90 132.66 145.32 C 133.08 145.75 132.87 146.98 132.19 148.07 C 131.20 149.65 131.21 150.14 132.23 150.53 C 133.21 150.91 133.54 158.14 133.69 182.78 C 133.80 200.24 134.12 228.59 134.40 245.77 L 134.90 277.00 L 130.20 277.05 C 127.62 277.07 120.33 277.26 114.00 277.47 C 107.67 277.67 82.81 278.15 58.74 278.52 L 14.99 279.19 L 14.27 275.85 L 13.56 272.50 L 13.02 276.00 C 12.55 279.01 12.35 279.22 11.62 277.50 Z M 370.00 277.79 C 370.00 276.68 372.76 276.80 373.46 277.94 C 373.78 278.46 373.13 278.81 372.02 278.73 C 370.91 278.64 370.00 278.22 370.00 277.79 Z M 141.81 275.72 C 141.60 275.05 141.52 267.30 141.62 258.50 C 141.84 240.82 141.37 235.59 139.83 238.34 C 139.31 239.26 139.17 240.46 139.50 241.01 C 139.84 241.55 139.69 242.00 139.17 242.00 C 137.56 242.00 136.64 233.67 137.41 226.06 C 137.76 222.59 139.77 222.34 140.28 225.69 C 140.63 228.02 140.73 227.86 140.85 224.75 C 140.97 221.65 140.66 221.00 139.05 221.00 C 137.30 221.00 137.11 220.28 137.16 213.75 C 137.22 206.36 138.52 202.64 140.15 205.20 C 140.70 206.07 140.97 205.61 140.98 203.81 C 141.00 200.89 139.48 199.21 138.66 201.24 C 138.39 201.93 138.12 200.59 138.08 198.25 C 138.00 194.02 139.44 192.41 140.31 195.75 C 140.69 197.20 140.77 197.15 140.81 195.50 C 140.83 194.40 140.24 191.93 139.50 190.00 L 138.15 186.50 L 138.08 190.25 C 137.97 195.45 136.50 194.99 136.50 189.75 C 136.50 187.19 137.09 185.01 138.00 184.27 C 139.22 183.27 139.25 182.88 138.18 182.17 C 137.38 181.64 136.74 178.74 136.54 174.73 C 136.36 171.11 135.87 167.60 135.44 166.91 C 134.90 166.02 135.17 165.85 136.40 166.32 C 137.72 166.83 138.01 166.57 137.61 165.24 C 137.32 164.28 136.56 161.33 135.91 158.67 C 133.84 150.23 129.44 150.81 198.91 150.26 L 260.00 149.77 L 259.99 152.13 C 259.99 153.44 260.11 181.72 260.26 215.00 L 260.54 275.50 L 216.02 275.76 C 191.53 275.91 164.91 276.23 156.85 276.48 C 145.86 276.83 142.10 276.63 141.81 275.72 Z M 265.16 275.00 C 265.16 273.62 265.38 273.06 265.66 273.75 C 265.94 274.44 265.94 275.56 265.66 276.25 C 265.38 276.94 265.16 276.38 265.16 275.00 Z M 137.58 274.24 C 137.27 273.28 137.42 270.47 137.90 267.99 L 138.77 263.50 L 138.71 269.75 C 138.64 276.38 138.47 277.05 137.58 274.24 Z M 267.92 273.04 C 267.77 268.32 267.02 176.58 267.04 165.83 C 267.05 158.88 266.66 154.91 265.92 154.45 C 265.29 154.06 264.44 154.29 264.03 154.96 C 263.52 155.77 263.08 155.41 262.68 153.87 C 262.33 152.54 262.59 151.25 263.29 150.80 C 263.95 150.38 269.68 149.99 276.00 149.94 C 282.32 149.89 289.30 149.73 291.50 149.57 C 293.70 149.42 316.43 149.26 342.00 149.23 C 367.57 149.19 389.54 149.13 390.82 149.09 C 392.55 149.03 393.01 149.45 392.64 150.76 C 390.65 157.90 390.90 157.66 389.36 154.02 C 388.60 152.19 387.74 150.93 387.46 151.21 C 387.17 151.49 386.84 179.32 386.72 213.05 L 386.50 274.38 L 374.50 274.70 C 367.90 274.87 341.24 275.14 315.25 275.29 L 268.00 275.57 L 267.92 273.04 Z M 14.19 257.00 C 13.70 255.13 13.39 256.02 12.97 260.50 C 12.18 268.90 13.21 273.32 14.14 265.50 C 14.53 262.20 14.55 258.38 14.19 257.00 Z M 263.00 267.00 C 263.00 265.35 263.17 264.00 263.39 264.00 C 263.60 264.00 263.97 265.35 264.21 267.00 C 264.46 268.65 264.28 270.00 263.83 270.00 C 263.37 270.00 263.00 268.65 263.00 267.00 Z M 137.08 261.42 C 137.13 260.25 137.36 260.01 137.68 260.81 C 137.97 261.53 137.94 262.40 137.60 262.73 C 137.27 263.06 137.04 262.47 137.08 261.42 Z M 263.50 261.75 C 263.26 261.06 262.93 252.36 262.78 242.41 C 262.54 226.68 262.70 224.37 264.01 224.71 C 265.24 225.03 265.52 227.19 265.54 236.47 C 265.55 242.81 265.16 247.60 264.67 247.30 C 264.18 247.00 264.03 247.59 264.32 248.62 C 265.68 253.41 266.08 257.00 265.25 257.00 C 264.75 257.00 264.54 258.35 264.79 260.00 C 265.22 262.97 264.34 264.16 263.50 261.75 Z M 389.50 260.00 C 389.84 259.45 390.32 259.00 390.56 259.00 C 390.80 259.00 391.00 259.45 391.00 260.00 C 391.00 260.55 390.52 261.00 389.94 261.00 C 389.36 261.00 389.16 260.55 389.50 260.00 Z M 137.71 256.50 C 137.33 254.30 137.02 251.62 137.01 250.54 C 137.00 248.74 137.14 248.71 138.58 250.16 C 139.85 251.43 139.99 252.61 139.28 256.12 L 138.39 260.50 L 137.71 256.50 Z M 13.54 235.21 C 12.56 234.22 12.48 235.42 12.99 244.50 L 13.49 253.50 L 13.79 244.62 C 13.95 239.74 13.84 235.50 13.54 235.21 Z M 137.60 247.41 C 136.54 244.64 136.92 243.03 138.50 243.64 C 140.13 244.27 140.55 247.54 139.10 248.44 C 138.61 248.74 137.94 248.28 137.60 247.41 Z M 390.16 236.00 C 390.16 234.62 390.38 234.06 390.66 234.75 C 390.94 235.44 390.94 236.56 390.66 237.25 C 390.38 237.94 390.16 237.38 390.16 236.00 Z M 141.25 231.52 C 140.98 230.14 140.37 229.00 139.88 229.00 C 138.87 229.00 138.67 233.34 139.64 234.31 C 140.86 235.53 141.73 234.03 141.25 231.52 Z M 13.68 229.81 C 13.36 229.01 13.13 229.25 13.08 230.42 C 13.04 231.47 13.27 232.06 13.60 231.73 C 13.94 231.40 13.97 230.53 13.68 229.81 Z M 390.00 226.33 C 390.00 222.05 390.46 222.19 391.33 226.75 C 391.69 228.62 391.54 230.00 390.98 230.00 C 390.44 230.00 390.00 228.35 390.00 226.33 Z M 13.97 220.75 C 13.95 217.83 13.67 216.97 13.06 218.00 C 12.26 219.37 12.71 225.00 13.62 225.00 C 13.83 225.00 13.99 223.09 13.97 220.75 Z M 262.86 220.21 C 262.57 218.39 262.67 216.71 263.07 216.46 C 263.48 216.20 263.58 214.27 263.30 212.17 C 262.88 209.06 263.10 208.33 264.43 208.33 C 265.54 208.33 265.88 208.86 265.45 209.92 C 264.51 212.26 264.35 217.90 265.24 217.35 C 265.66 217.09 266.00 217.58 266.00 218.44 C 266.00 219.30 265.58 220.00 265.07 220.00 C 264.56 220.00 263.98 220.79 263.77 221.75 C 263.54 222.77 263.17 222.12 262.86 220.21 Z M 389.57 216.33 C 389.22 215.42 389.40 214.20 389.97 213.63 C 390.68 212.92 391.00 213.44 391.00 215.30 C 391.00 218.38 390.50 218.75 389.57 216.33 Z M 140.08 210.68 C 138.79 209.39 138.57 212.78 139.75 215.67 C 140.37 217.17 140.56 216.99 140.83 214.63 C 141.01 213.05 140.67 211.27 140.08 210.68 Z M 14.00 212.00 C 14.00 210.90 13.59 210.00 13.09 210.00 C 12.60 210.00 12.42 210.90 12.71 212.00 C 13.00 213.10 13.41 214.00 13.62 214.00 C 13.83 214.00 14.00 213.10 14.00 212.00 Z M 389.74 211.25 C 389.53 210.84 389.67 209.15 390.06 207.50 C 390.75 204.55 390.77 204.56 390.88 208.25 C 390.99 211.81 390.58 212.90 389.74 211.25 Z M 263.67 205.33 C 263.30 204.97 263.01 201.25 263.03 197.08 C 263.05 191.28 263.31 189.93 264.11 191.31 C 264.69 192.31 264.92 193.75 264.63 194.53 C 264.33 195.30 264.52 196.20 265.04 196.53 C 266.37 197.35 266.25 201.00 264.89 201.00 C 264.21 201.00 264.02 201.96 264.41 203.50 C 265.05 206.05 264.86 206.52 263.67 205.33 Z M 13.68 201.81 C 13.36 201.01 13.13 201.25 13.08 202.42 C 13.04 203.47 13.27 204.06 13.60 203.73 C 13.94 203.40 13.97 202.53 13.68 201.81 Z M 389.00 201.00 C 387.72 200.17 387.75 200.03 389.25 200.02 C 390.21 200.01 391.00 200.45 391.00 201.00 C 391.00 202.22 390.89 202.22 389.00 201.00 Z M 390.00 196.00 C 390.00 194.35 390.37 193.00 390.83 193.00 C 391.28 193.00 391.46 194.35 391.21 196.00 C 390.97 197.65 390.60 199.00 390.39 199.00 C 390.17 199.00 390.00 197.65 390.00 196.00 Z M 263.00 185.62 C 263.00 184.79 263.45 183.84 264.00 183.50 C 264.55 183.16 265.00 183.56 265.00 184.38 C 265.00 185.21 264.55 186.16 264.00 186.50 C 263.45 186.84 263.00 186.44 263.00 185.62 Z M 390.50 182.00 C 390.84 181.45 390.61 181.00 390.00 181.00 C 389.39 181.00 389.16 180.54 389.51 179.98 C 389.86 179.42 390.56 179.23 391.07 179.54 C 392.35 180.33 392.25 183.00 390.94 183.00 C 390.36 183.00 390.16 182.55 390.50 182.00 Z M 264.21 178.97 C 262.88 176.84 262.50 161.00 263.78 161.00 C 264.21 161.00 264.38 164.19 264.16 168.09 C 263.90 172.69 264.22 176.04 265.05 177.59 C 266.62 180.52 265.91 181.68 264.21 178.97 Z M 139.12 170.33 C 138.25 168.83 138.06 168.78 138.03 170.08 C 138.00 171.77 139.05 173.28 139.76 172.58 C 139.99 172.34 139.71 171.33 139.12 170.33 Z M 390.03 169.45 C 390.06 166.86 390.19 166.73 391.13 168.35 C 391.90 169.67 391.89 170.51 391.10 171.30 C 390.30 172.10 390.01 171.60 390.03 169.45 Z M 390.00 162.00 C 390.00 161.45 390.45 161.00 391.00 161.00 C 391.55 161.00 392.00 161.45 392.00 162.00 C 392.00 162.55 391.55 163.00 391.00 163.00 C 390.45 163.00 390.00 162.55 390.00 162.00 Z M 264.67 160.33 C 264.30 159.97 264.00 159.20 264.00 158.63 C 264.00 158.01 264.47 158.07 265.18 158.78 C 265.83 159.43 266.13 160.20 265.85 160.48 C 265.57 160.77 265.03 160.70 264.67 160.33 Z M 140.00 155.00 C 140.00 154.45 139.52 154.00 138.94 154.00 C 138.36 154.00 138.16 154.45 138.50 155.00 C 138.84 155.55 139.32 156.00 139.56 156.00 C 139.80 156.00 140.00 155.55 140.00 155.00 Z M 13.45 142.85 C 12.79 140.76 11.04 140.35 10.91 142.25 C 10.87 142.94 10.43 142.15 9.93 140.50 C 9.44 138.85 9.00 121.75 8.96 102.50 C 8.92 83.25 8.80 56.07 8.69 42.10 C 8.56 24.44 8.85 16.22 9.64 15.15 C 10.62 13.80 18.10 12.76 25.75 12.91 C 28.17 12.96 33.56 12.97 39.00 12.94 C 42.02 12.93 45.40 12.94 46.50 12.96 C 49.37 13.02 92.35 12.13 106.24 11.72 C 113.31 11.51 118.38 11.78 118.99 12.39 C 119.67 13.07 120.00 13.01 120.00 12.20 C 120.00 11.47 121.48 11.01 123.75 11.04 C 126.87 11.07 127.96 11.68 130.25 14.70 L 133.00 18.32 L 133.00 80.91 L 133.00 143.50 L 95.25 143.83 C 74.49 144.01 47.72 144.28 35.77 144.43 C 15.39 144.67 14.00 144.58 13.45 142.85 Z M 149.75 142.26 C 141.53 141.94 140.99 141.79 140.88 139.71 C 140.81 138.49 140.69 110.16 140.60 76.75 L 140.45 16.00 L 149.73 16.00 L 159.00 16.00 L 159.00 25.10 L 159.00 34.21 L 150.46 33.85 L 141.91 33.50 L 142.21 37.83 L 142.50 42.15 L 154.50 42.15 L 166.50 42.15 L 166.78 30.33 C 167.03 20.10 166.84 18.35 165.34 17.26 C 163.89 16.20 164.72 16.00 170.56 15.97 C 174.38 15.96 192.80 15.74 211.50 15.50 C 291.03 14.45 357.67 14.21 360.00 14.98 C 361.38 15.43 362.05 15.85 361.50 15.90 C 360.89 15.96 360.51 20.80 360.53 28.25 L 360.55 40.50 L 373.03 40.50 L 385.50 40.50 L 385.83 37.04 C 386.29 32.14 384.47 31.16 375.99 31.77 L 369.00 32.27 L 369.00 24.13 C 369.00 19.66 369.00 15.66 369.00 15.25 C 369.00 14.84 373.14 14.50 378.19 14.50 L 387.38 14.50 L 387.12 76.50 C 386.98 110.60 386.56 138.80 386.18 139.16 C 385.81 139.52 381.55 139.97 376.72 140.16 L 367.93 140.50 L 368.22 131.50 L 368.50 122.50 L 376.64 122.21 L 384.78 121.92 L 385.28 118.71 C 385.56 116.95 385.46 115.15 385.06 114.72 C 384.66 114.29 378.97 114.06 372.42 114.22 L 360.50 114.50 L 360.22 127.75 L 359.94 141.00 L 342.22 141.00 C 332.47 141.00 289.04 141.30 245.70 141.66 C 198.38 142.06 166.96 141.96 167.06 141.41 C 167.16 140.91 167.18 135.26 167.12 128.86 C 167.03 119.75 166.69 117.09 165.57 116.66 C 164.78 116.36 159.26 116.03 153.32 115.93 L 142.50 115.74 L 142.50 120.12 L 142.50 124.50 L 150.18 124.51 C 154.40 124.52 158.07 124.74 158.32 125.01 C 158.97 125.68 159.63 143.05 159.00 142.79 C 158.72 142.68 154.56 142.44 149.75 142.26 Z M 196.50 115.01 C 205.56 111.85 209.17 110.66 224.00 105.94 C 229.78 104.11 235.40 102.05 236.50 101.38 C 237.60 100.70 240.30 99.83 242.50 99.44 C 244.70 99.05 249.20 97.74 252.50 96.52 C 260.70 93.50 262.02 93.05 290.90 83.39 C 304.87 78.72 316.64 75.26 317.07 75.70 C 317.50 76.14 318.58 79.42 319.48 83.00 C 322.28 94.18 329.43 118.00 329.98 117.99 C 330.27 117.98 331.38 116.07 332.46 113.74 C 333.53 111.41 336.80 104.62 339.71 98.65 C 342.62 92.68 345.00 86.74 345.00 85.44 C 345.00 84.15 343.63 78.91 341.96 73.80 C 340.29 68.68 338.06 60.90 337.01 56.50 C 335.95 52.10 333.95 45.16 332.55 41.07 C 331.15 36.99 330.00 32.66 330.00 31.45 C 330.00 28.74 327.20 26.07 326.14 27.77 C 325.75 28.40 321.19 30.30 316.01 32.00 C 310.83 33.69 306.42 35.25 306.21 35.45 C 306.00 35.66 306.85 39.01 308.11 42.89 C 309.36 46.78 310.15 50.18 309.88 50.45 C 309.60 50.73 305.36 52.11 300.44 53.52 C 295.52 54.93 289.69 56.92 287.47 57.94 C 285.25 58.97 281.42 60.34 278.97 61.00 C 272.43 62.75 259.81 66.86 257.50 67.99 C 256.40 68.52 250.55 70.56 244.50 72.51 C 238.45 74.46 230.57 77.11 227.00 78.41 C 218.41 81.53 194.38 89.34 185.15 92.02 C 179.25 93.72 177.90 94.47 178.30 95.82 C 178.57 96.74 180.02 102.00 181.51 107.50 C 184.70 119.28 184.72 119.33 186.85 118.47 C 187.76 118.10 192.10 116.54 196.50 115.01 Z" fill="none" stroke="rgba(255,255,255,0.92)" stroke-width="1.5" stroke-linejoin="round" fill-rule="evenodd"/>
</svg>
