<svg xmlns="http://www.w3.org/2000/svg" viewBox="0 0 100 100" width="100" height="100">
  <path d="M 0.00 50.00 L 0.00 0.00 L 50.00 0.00 L 100.00 0.00 L 100.00 50.00 L 100.00 100.00 L 50.00 100.00 L 0.00 100.00 L 0.00 50.00 Z M 5.29 89.90 C 5.14 86.55 5.45 83.06 5.98 82.15 C 6.80 80.74 6.94 80.83 6.97 82.75 C 7.00 84.83 7.45 85.00 13.00 85.00 L 19.00 85.00 L 19.00 90.50 L 19.00 96.00 L 22.25 96.00 L 25.50 96.00 L 25.00 87.75 L 24.50 79.50 L 15.50 79.50 C 6.77 79.50 6.48 79.43 5.75 77.00 C 5.34 75.62 5.06 63.02 5.13 49.00 C 5.20 34.98 5.56 24.62 5.92 26.00 C 6.56 28.41 6.92 28.51 15.79 28.79 L 25.00 29.08 L 25.00 20.62 C 25.00 14.75 24.62 12.04 23.75 11.75 C 22.29 11.26 65.59 10.00 83.66 10.00 L 96.00 10.00 L 96.00 7.50 L 96.00 5.00 L 55.25 5.01 C 32.84 5.01 12.14 5.30 9.25 5.65 L 4.00 6.28 L 4.00 51.14 C 4.00 75.81 4.35 96.00 4.79 96.00 C 5.22 96.00 5.45 93.26 5.29 89.90 Z M 52.98 76.93 C 60.42 74.69 69.65 71.81 73.50 70.53 C 77.35 69.26 83.99 67.20 88.25 65.96 L 96.00 63.71 L 96.00 54.47 L 96.00 45.23 L 90.75 47.07 C 83.07 49.75 44.87 61.35 38.25 63.01 C 35.91 63.60 34.00 64.52 34.00 65.06 C 34.00 66.82 38.39 81.00 38.93 81.00 C 39.22 81.00 45.54 79.17 52.98 76.93 Z M 5.93 22.59 C 5.90 22.54 5.65 19.91 5.38 16.75 L 4.89 11.00 L 11.95 11.00 L 19.00 11.00 L 19.00 17.05 L 19.00 23.11 L 12.50 22.90 C 8.92 22.78 5.97 22.64 5.93 22.59 Z" fill="none" stroke="rgba(255,255,255,0.92)" stroke-width="1.2" stroke-linejoin="round" fill-rule="evenodd"/>
</svg>
