<svg xmlns="http://www.w3.org/2000/svg" viewBox="0 0 100 100" width="100" height="100">
  <path d="M 0.00 50.00 L 0.00 0.00 L 50.00 0.00 L 100.00 0.00 L 100.00 50.00 L 100.00 100.00 L 50.00 100.00 L 0.00 100.00 L 0.00 50.00 Z M 63.50 93.97 C 78.90 93.45 92.51 93.02 93.75 93.01 C 95.60 93.00 96.00 92.44 96.00 89.90 L 96.00 86.80 L 83.75 87.44 C 61.92 88.59 11.59 89.92 11.04 89.38 C 10.75 89.08 10.56 69.75 10.62 46.42 L 10.72 4.00 L 7.86 4.00 L 5.00 4.00 L 5.00 50.11 L 5.00 96.21 L 20.25 95.56 C 28.64 95.21 48.10 94.49 63.50 93.97 Z M 72.75 77.85 L 96.00 74.64 L 96.00 71.68 L 96.00 68.72 L 90.75 69.30 C 84.61 69.98 58.74 73.78 54.79 74.59 C 52.41 75.07 51.90 74.69 50.54 71.45 C 48.94 67.61 48.63 63.99 49.59 60.40 C 50.22 58.05 51.70 57.72 78.50 53.91 C 86.75 52.74 94.06 51.62 94.75 51.42 C 95.44 51.22 96.00 49.80 96.00 48.26 L 96.00 45.45 L 80.25 47.74 C 71.59 49.00 61.80 50.42 58.50 50.90 C 55.20 51.38 52.44 51.71 52.36 51.63 C 52.28 51.56 52.56 49.29 52.97 46.59 C 53.73 41.66 52.53 34.73 50.14 30.27 C 47.63 25.57 48.39 25.00 57.21 25.00 C 64.55 25.00 87.93 22.73 93.75 21.46 C 95.47 21.08 96.00 20.26 96.00 17.96 C 96.00 15.36 95.70 15.03 93.75 15.49 C 86.91 17.08 75.41 18.12 58.50 18.66 C 48.05 18.99 39.37 19.37 39.22 19.50 C 39.06 19.62 40.26 22.60 41.87 26.11 C 48.21 39.89 48.41 42.30 44.50 56.95 C 42.49 64.49 42.98 70.24 46.18 76.64 C 47.37 79.04 48.61 81.01 48.93 81.03 C 49.24 81.05 59.96 79.62 72.75 77.85 Z" fill="none" stroke="rgba(255,255,255,0.92)" stroke-width="1.2" stroke-linejoin="round" fill-rule="evenodd"/>
</svg>
