<svg xmlns="http://www.w3.org/2000/svg" viewBox="0 0 100 100" width="100" height="100">
  <path d="M 0.00 50.00 L 0.00 0.00 L 50.00 0.00 L 100.00 0.00 L 100.00 50.00 L 100.00 100.00 L 50.00 100.00 L 0.00 100.00 L 0.00 50.00 Z M 95.19 50.77 C 95.02 25.90 94.68 5.35 94.43 5.10 C 93.89 4.56 97.25 4.57 45.75 5.00 C 22.79 5.20 4.00 5.72 4.00 6.18 C 4.00 6.63 4.34 7.01 4.75 7.02 C 5.16 7.04 7.18 7.44 9.24 7.92 C 11.70 8.49 12.77 8.44 12.37 7.79 C 11.97 7.14 12.60 7.08 14.12 7.60 C 15.43 8.04 18.04 8.31 19.93 8.19 C 21.83 8.07 23.72 8.54 24.17 9.24 C 24.80 10.24 24.97 10.24 24.98 9.25 C 24.99 8.56 25.51 8.00 26.12 8.00 C 26.89 8.00 26.85 8.48 25.98 9.52 C 24.92 10.80 24.99 10.94 26.36 10.42 C 27.26 10.07 28.00 9.38 28.00 8.89 C 28.00 8.40 28.93 8.00 30.06 8.00 C 31.19 8.00 31.84 8.45 31.50 9.00 C 31.16 9.55 31.58 10.00 32.44 10.00 C 33.30 10.00 34.00 9.36 34.00 8.59 C 34.00 7.78 34.75 7.32 35.75 7.51 C 36.71 7.70 37.86 7.88 38.31 7.92 C 38.75 7.97 38.88 8.39 38.58 8.87 C 37.67 10.34 46.70 10.02 50.43 8.46 C 54.92 6.59 57.11 6.60 54.62 8.49 C 52.91 9.78 53.14 9.89 57.12 9.63 C 59.53 9.48 62.31 8.99 63.29 8.55 C 64.28 8.11 66.76 8.02 68.79 8.35 C 71.34 8.76 72.03 8.64 71.00 7.99 C 69.95 7.32 71.14 7.05 75.00 7.09 C 79.24 7.13 80.04 7.36 78.50 8.09 C 76.84 8.88 76.93 8.93 79.00 8.36 C 80.38 7.99 83.19 7.71 85.25 7.74 C 87.31 7.78 89.00 7.40 89.00 6.90 C 89.00 6.41 89.42 6.00 89.93 6.00 C 90.44 6.00 90.59 7.46 90.28 9.25 C 89.96 11.04 89.76 22.17 89.82 34.00 C 89.89 45.83 89.96 64.61 89.97 75.75 L 90.00 96.00 L 92.75 96.00 L 95.50 96.00 L 95.19 50.77 Z M 92.16 77.00 C 92.16 75.62 92.38 75.06 92.66 75.75 C 92.94 76.44 92.94 77.56 92.66 78.25 C 92.38 78.94 92.16 78.38 92.16 77.00 Z M 31.33 74.64 C 34.81 73.18 37.50 69.83 38.56 65.63 L 39.21 63.04 L 57.85 62.77 L 76.50 62.50 L 76.78 51.66 L 77.07 40.83 L 58.28 41.53 L 39.50 42.24 L 37.50 37.88 C 34.90 32.21 30.54 29.70 23.13 29.60 C 15.92 29.50 11.14 32.10 9.52 37.00 C 8.88 38.93 7.38 40.94 6.18 41.49 C 3.57 42.67 2.96 49.00 5.47 49.00 C 7.54 49.00 13.77 43.30 14.57 40.69 C 15.85 36.48 18.06 35.00 23.04 35.00 C 26.21 35.00 28.56 35.63 30.14 36.91 C 32.37 38.71 32.52 39.55 32.83 52.01 C 33.14 64.39 33.03 65.34 31.00 67.50 C 28.58 70.08 23.65 71.17 20.24 69.89 C 18.99 69.42 16.81 67.12 15.39 64.77 C 12.61 60.19 9.85 57.72 6.25 56.58 C 4.21 55.93 4.00 56.19 4.00 59.32 C 4.00 61.89 4.49 62.90 5.94 63.27 C 7.01 63.55 9.26 66.01 10.93 68.73 C 12.61 71.46 14.99 74.17 16.24 74.77 C 19.44 76.32 27.48 76.25 31.33 74.64 Z M 92.08 66.42 C 92.13 65.25 92.36 65.01 92.68 65.81 C 92.97 66.53 92.94 67.40 92.60 67.73 C 92.27 68.06 92.04 67.47 92.08 66.42 Z M 91.57 59.35 C 92.49 54.24 93.00 53.86 93.00 58.27 C 93.00 60.26 92.52 62.18 91.94 62.54 C 91.21 62.99 91.09 61.97 91.57 59.35 Z M 91.00 54.00 C 91.00 53.45 91.48 53.00 92.06 53.00 C 92.64 53.00 92.84 53.45 92.50 54.00 C 92.16 54.55 91.68 55.00 91.44 55.00 C 91.20 55.00 91.00 54.55 91.00 54.00 Z M 91.58 47.13 C 91.15 46.44 91.07 45.60 91.40 45.27 C 92.29 44.37 93.27 45.69 92.79 47.14 C 92.45 48.15 92.21 48.15 91.58 47.13 Z M 91.53 42.71 C 91.10 41.72 91.03 40.63 91.38 40.29 C 92.39 39.27 93.21 40.70 92.74 42.67 C 92.33 44.42 92.27 44.42 91.53 42.71 Z M 91.67 36.33 C 91.30 35.97 91.00 35.20 91.00 34.63 C 91.00 34.01 91.47 34.07 92.18 34.78 C 92.83 35.43 93.13 36.20 92.85 36.48 C 92.57 36.77 92.03 36.70 91.67 36.33 Z M 91.00 28.50 C 91.00 27.68 91.44 27.00 91.97 27.00 C 92.50 27.00 92.68 27.68 92.36 28.50 C 92.05 29.32 91.61 30.00 91.39 30.00 C 91.18 30.00 91.00 29.32 91.00 28.50 Z M 91.68 24.62 C 91.31 23.64 91.03 22.09 91.06 21.17 C 91.11 20.06 91.45 20.32 92.09 21.91 C 92.62 23.24 92.90 24.79 92.71 25.36 C 92.52 25.93 92.06 25.60 91.68 24.62 Z M 91.00 15.94 C 91.00 15.36 91.45 15.16 92.00 15.50 C 92.55 15.84 93.00 16.32 93.00 16.56 C 93.00 16.80 92.55 17.00 92.00 17.00 C 91.45 17.00 91.00 16.52 91.00 15.94 Z M 91.00 12.00 C 91.00 11.45 91.45 11.00 92.00 11.00 C 92.55 11.00 93.00 11.45 93.00 12.00 C 93.00 12.55 92.55 13.00 92.00 13.00 C 91.45 13.00 91.00 12.55 91.00 12.00 Z M 6.00 10.00 C 6.00 9.45 5.80 9.00 5.56 9.00 C 5.32 9.00 4.84 9.45 4.50 10.00 C 4.16 10.55 4.36 11.00 4.94 11.00 C 5.52 11.00 6.00 10.55 6.00 10.00 Z M 11.25 9.34 C 10.56 9.06 9.44 9.06 8.75 9.34 C 8.06 9.62 8.62 9.84 10.00 9.84 C 11.38 9.84 11.94 9.62 11.25 9.34 Z M 69.25 9.34 C 68.56 9.06 67.44 9.06 66.75 9.34 C 66.06 9.62 66.62 9.84 68.00 9.84 C 69.38 9.84 69.94 9.62 69.25 9.34 Z" fill="none" stroke="rgba(255,255,255,0.92)" stroke-width="1.2" stroke-linejoin="round" fill-rule="evenodd"/>
</svg>
