<svg xmlns="http://www.w3.org/2000/svg" viewBox="0 0 400 218" width="400" height="218">
  <path d="M 0.00 109.00 L 0.00 0.00 L 200.00 0.00 L 400.00 0.00 L 400.00 109.00 L 400.00 218.00 L 200.00 218.00 L 0.00 218.00 L 0.00 109.00 Z M 216.00 212.57 C 296.47 212.09 335.30 211.59 374.00 210.52 C 383.07 210.27 391.79 210.05 393.36 210.04 L 396.21 210.00 L 395.65 140.75 C 395.34 102.66 395.06 56.52 395.04 38.22 L 395.00 4.93 L 358.75 5.45 C 338.81 5.74 285.60 6.20 240.50 6.49 C 143.61 7.10 44.14 8.07 35.00 8.50 C 31.42 8.67 23.16 8.85 16.64 8.90 L 4.77 9.00 L 5.35 96.25 C 5.67 144.24 5.94 190.42 5.96 198.88 L 6.00 214.26 L 68.25 213.67 C 102.49 213.35 168.97 212.85 216.00 212.57 Z M 71.50 211.00 C 71.16 210.45 71.56 210.00 72.38 210.00 C 73.21 210.00 74.16 210.45 74.50 211.00 C 74.84 211.55 74.44 212.00 73.62 212.00 C 72.79 212.00 71.84 211.55 71.50 211.00 Z M 78.75 211.34 C 79.44 211.06 80.56 211.06 81.25 211.34 C 81.94 211.62 81.38 211.84 80.00 211.84 C 78.62 211.84 78.06 211.62 78.75 211.34 Z M 126.50 211.00 C 126.16 210.45 126.58 210.00 127.44 210.00 C 128.30 210.00 129.00 210.45 129.00 211.00 C 129.00 211.55 128.58 212.00 128.06 212.00 C 127.54 212.00 126.84 211.55 126.50 211.00 Z M 214.75 211.25 C 212.14 210.66 212.64 209.50 215.50 209.50 C 216.88 209.50 218.00 209.81 218.00 210.19 C 218.00 211.26 216.68 211.69 214.75 211.25 Z M 232.00 211.00 C 226.80 210.19 226.91 209.83 232.50 209.44 C 237.72 209.07 240.81 209.87 238.88 211.09 C 238.12 211.58 237.28 211.91 237.00 211.83 C 236.72 211.76 234.47 211.38 232.00 211.00 Z M 31.75 210.34 C 32.44 210.06 33.56 210.06 34.25 210.34 C 34.94 210.62 34.38 210.84 33.00 210.84 C 31.62 210.84 31.06 210.62 31.75 210.34 Z M 62.81 210.32 C 63.53 210.03 64.40 210.06 64.73 210.40 C 65.06 210.73 64.47 210.96 63.42 210.92 C 62.25 210.87 62.01 210.64 62.81 210.32 Z M 88.75 210.34 C 89.44 210.06 90.56 210.06 91.25 210.34 C 91.94 210.62 91.38 210.84 90.00 210.84 C 88.62 210.84 88.06 210.62 88.75 210.34 Z M 173.00 210.61 C 173.00 209.66 175.99 209.18 176.53 210.04 C 176.85 210.57 176.19 211.00 175.06 211.00 C 173.93 211.00 173.00 210.82 173.00 210.61 Z M 185.50 210.00 C 185.16 209.45 185.84 209.00 187.00 209.00 C 188.16 209.00 188.84 209.45 188.50 210.00 C 188.16 210.55 187.49 211.00 187.00 211.00 C 186.51 211.00 185.84 210.55 185.50 210.00 Z M 189.81 210.32 C 190.53 210.03 191.40 210.06 191.73 210.40 C 192.06 210.73 191.47 210.96 190.42 210.92 C 189.25 210.87 189.01 210.64 189.81 210.32 Z M 197.75 210.34 C 198.44 210.06 199.56 210.06 200.25 210.34 C 200.94 210.62 200.38 210.84 199.00 210.84 C 197.62 210.84 197.06 210.62 197.75 210.34 Z M 203.50 210.00 C 203.84 209.45 204.54 209.00 205.06 209.00 C 205.58 209.00 206.00 209.45 206.00 210.00 C 206.00 210.55 205.30 211.00 204.44 211.00 C 203.58 211.00 203.16 210.55 203.50 210.00 Z M 207.80 209.80 C 208.73 208.87 209.27 208.87 210.20 209.80 C 211.13 210.73 210.87 211.00 209.00 211.00 C 207.13 211.00 206.87 210.73 207.80 209.80 Z M 219.36 210.31 C 220.50 209.16 224.00 208.94 224.00 210.01 C 224.00 210.55 222.80 211.00 221.33 211.00 C 219.87 211.00 218.98 210.69 219.36 210.31 Z M 244.50 210.00 C 247.28 208.81 250.76 208.81 251.50 210.00 C 251.88 210.62 250.28 210.97 247.31 210.93 C 243.70 210.88 243.00 210.64 244.50 210.00 Z M 253.27 210.39 C 254.26 209.41 269.00 209.15 269.00 210.12 C 269.00 210.60 265.32 211.00 260.83 211.00 C 256.34 211.00 252.94 210.73 253.27 210.39 Z M 279.51 209.98 C 279.86 209.42 280.56 209.23 281.07 209.54 C 282.46 210.40 282.20 211.00 280.44 211.00 C 279.58 211.00 279.16 210.54 279.51 209.98 Z M 285.47 210.04 C 285.80 209.52 286.72 209.34 287.53 209.65 C 289.60 210.44 289.36 211.00 286.94 211.00 C 285.81 211.00 285.15 210.57 285.47 210.04 Z M 199.51 207.98 C 199.86 207.42 200.56 207.23 201.07 207.54 C 202.46 208.40 202.20 209.00 200.44 209.00 C 199.58 209.00 199.16 208.54 199.51 207.98 Z M 336.75 208.34 C 337.44 208.06 338.56 208.06 339.25 208.34 C 339.94 208.62 339.38 208.84 338.00 208.84 C 336.62 208.84 336.06 208.62 336.75 208.34 Z M 342.81 208.32 C 343.53 208.03 344.40 208.06 344.73 208.40 C 345.06 208.73 344.47 208.96 343.42 208.92 C 342.25 208.87 342.01 208.64 342.81 208.32 Z M 11.84 207.27 C 11.75 206.84 11.59 203.35 11.49 199.50 C 10.91 177.19 10.82 167.85 11.18 167.49 C 11.40 167.27 11.29 164.25 10.94 160.79 C 10.58 157.33 10.50 153.09 10.76 151.38 C 11.03 149.54 10.72 147.95 10.00 147.50 C 9.13 146.96 8.98 147.35 9.46 148.87 C 9.83 150.04 9.70 151.00 9.17 151.00 C 8.64 151.00 8.04 149.20 7.83 147.00 C 7.42 142.75 8.24 141.87 9.92 144.75 C 10.84 146.33 10.94 146.29 10.97 144.33 C 10.99 143.14 10.71 141.41 10.36 140.50 C 9.85 139.17 9.55 139.10 8.88 140.17 C 8.31 141.06 8.04 140.52 8.05 138.50 C 8.06 135.65 8.14 135.59 9.53 137.44 C 10.88 139.22 11.00 138.92 11.00 133.75 C 11.00 130.57 10.50 127.81 9.84 127.40 C 9.02 126.90 8.86 127.55 9.28 129.64 C 9.60 131.27 9.46 133.25 8.95 134.05 C 8.20 135.22 8.00 135.12 7.86 133.50 C 7.56 130.02 7.49 66.00 7.78 66.00 C 7.94 66.00 8.47 67.01 8.97 68.25 C 9.87 70.50 9.87 70.50 9.94 68.33 C 9.97 67.14 9.44 65.98 8.75 65.75 C 7.81 65.44 7.45 59.85 7.29 43.13 C 7.17 30.39 7.46 21.17 7.97 21.48 C 8.46 21.79 9.15 21.57 9.50 21.01 C 10.38 19.58 9.06 15.84 7.93 16.54 C 6.18 17.62 7.00 15.31 9.00 13.50 C 10.13 12.47 11.00 12.19 11.00 12.85 C 11.00 13.48 12.24 13.96 13.75 13.90 L 16.50 13.80 L 14.01 13.11 C 9.02 11.72 13.93 11.23 34.50 11.07 C 46.05 10.98 59.66 10.79 64.75 10.67 C 72.50 10.47 74.00 10.68 74.02 11.97 C 74.03 13.27 74.17 13.29 74.94 12.07 C 75.64 10.95 78.80 10.59 88.97 10.46 C 100.72 10.31 102.02 10.46 101.30 11.90 C 100.41 13.68 100.22 63.87 101.00 90.75 L 101.50 108.00 L 98.86 108.00 C 96.66 108.00 96.24 108.43 96.36 110.50 C 96.46 112.38 97.06 113.00 98.75 113.00 C 99.99 113.00 100.89 112.66 100.75 112.25 C 100.61 111.84 100.84 111.39 101.25 111.25 C 103.20 110.60 104.00 111.18 103.98 113.25 C 103.97 114.86 103.73 115.12 103.12 114.17 C 101.19 111.12 100.96 118.16 101.56 161.31 C 102.08 198.36 101.95 206.41 100.84 207.10 C 99.15 208.14 12.06 208.31 11.84 207.27 Z M 107.77 203.51 C 107.55 201.30 107.26 182.66 107.11 162.07 C 106.97 141.48 106.67 121.79 106.45 118.32 C 106.10 112.78 106.91 110.42 108.35 112.75 C 108.60 113.16 112.56 113.41 117.15 113.30 C 121.74 113.20 141.47 113.06 161.00 113.01 L 196.50 112.90 L 196.65 116.70 C 197.21 131.09 197.37 205.96 196.84 206.49 C 196.48 206.85 176.38 207.23 152.18 207.33 L 108.16 207.51 L 107.77 203.51 Z M 378.81 207.32 C 379.53 207.03 380.40 207.06 380.73 207.40 C 381.06 207.73 380.47 207.96 379.42 207.92 C 378.25 207.87 378.01 207.64 378.81 207.32 Z M 202.95 184.31 C 202.87 146.39 201.94 113.52 200.94 113.17 C 200.42 112.98 200.00 112.41 200.00 111.88 C 200.00 111.29 200.67 111.28 201.75 111.84 C 202.71 112.34 210.70 112.62 219.50 112.45 C 235.12 112.15 280.28 111.82 288.75 111.94 L 293.00 112.00 L 293.00 158.89 C 293.00 195.49 292.73 205.89 291.75 206.26 C 291.06 206.52 270.81 206.82 246.75 206.93 L 203.00 207.12 L 202.95 184.31 Z M 295.00 205.06 C 295.00 202.64 295.56 202.40 296.35 204.47 C 296.66 205.28 296.48 206.20 295.96 206.53 C 295.43 206.85 295.00 206.19 295.00 205.06 Z M 199.82 203.50 C 199.18 200.50 199.49 199.16 200.58 200.24 C 200.89 200.56 201.00 202.10 200.81 203.66 L 200.47 206.50 L 199.82 203.50 Z M 298.50 159.12 L 298.50 112.00 L 305.00 111.98 C 309.91 111.97 311.13 111.71 310.00 110.89 C 308.82 110.04 308.93 109.99 310.50 110.65 C 313.30 111.82 368.41 111.17 368.83 109.96 C 369.02 109.43 369.61 109.00 370.14 109.00 C 370.68 109.00 370.86 109.41 370.55 109.91 C 370.23 110.44 374.15 110.71 380.00 110.54 L 390.00 110.26 L 390.05 128.88 C 390.08 139.12 390.17 160.21 390.23 175.74 C 390.30 191.27 390.17 204.16 389.93 204.39 C 389.69 204.62 369.02 205.13 344.00 205.53 L 298.50 206.24 L 298.50 159.12 Z M 296.08 199.42 C 296.13 198.25 296.36 198.01 296.68 198.81 C 296.97 199.53 296.94 200.40 296.60 200.73 C 296.27 201.06 296.04 200.47 296.08 199.42 Z M 199.66 195.63 C 199.24 194.05 199.14 192.53 199.43 192.24 C 200.23 191.43 201.22 194.65 200.79 196.69 C 200.51 198.02 200.21 197.75 199.66 195.63 Z M 392.67 194.33 C 391.67 193.33 391.86 188.00 392.90 188.00 C 393.40 188.00 393.76 189.57 393.70 191.50 C 393.59 195.34 393.62 195.28 392.67 194.33 Z M 8.00 189.67 C 8.00 187.65 8.44 186.00 8.97 186.00 C 9.54 186.00 9.69 187.38 9.33 189.25 C 8.46 193.81 8.00 193.95 8.00 189.67 Z M 200.19 189.50 C 200.22 187.85 200.44 187.30 200.69 188.27 C 200.95 189.24 200.93 190.59 200.66 191.27 C 200.38 191.95 200.17 191.15 200.19 189.50 Z M 72.60 189.00 L 95.70 189.00 L 95.34 145.25 C 95.14 121.19 94.70 84.29 94.37 63.25 L 93.77 25.00 L 86.29 25.00 C 79.65 25.00 78.75 24.78 78.29 23.00 C 77.79 21.07 76.93 21.00 53.88 21.00 L 30.00 21.00 L 30.00 23.45 C 30.00 25.79 29.67 25.92 23.31 26.20 L 16.62 26.50 L 16.89 69.75 L 17.16 113.00 L 14.83 113.14 L 12.50 113.27 L 14.75 113.71 L 17.00 114.14 L 17.00 151.40 C 17.00 171.90 17.34 189.02 17.75 189.46 C 18.16 189.89 25.47 189.97 34.00 189.63 C 42.53 189.29 59.90 189.01 72.60 189.00 Z M 104.00 187.56 C 104.00 186.70 104.45 186.00 105.00 186.00 C 105.55 186.00 106.00 186.42 106.00 186.94 C 106.00 187.46 105.55 188.16 105.00 188.50 C 104.45 188.84 104.00 188.42 104.00 187.56 Z M 295.50 187.00 C 295.84 186.45 296.32 186.00 296.56 186.00 C 296.80 186.00 297.00 186.45 297.00 187.00 C 297.00 187.55 296.52 188.00 295.94 188.00 C 295.36 188.00 295.16 187.55 295.50 187.00 Z M 199.00 184.06 C 199.00 183.54 199.45 182.84 200.00 182.50 C 200.55 182.16 201.00 182.58 201.00 183.44 C 201.00 184.30 200.55 185.00 200.00 185.00 C 199.45 185.00 199.00 184.58 199.00 184.06 Z M 8.09 180.50 C 8.12 177.00 8.24 176.79 9.06 178.84 C 9.65 180.31 9.64 181.79 9.03 182.84 C 8.29 184.11 8.07 183.55 8.09 180.50 Z M 23.58 182.90 C 23.32 182.13 22.92 147.86 22.70 106.75 L 22.29 32.00 L 26.08 32.00 C 29.47 32.00 29.90 32.29 30.18 34.75 C 30.41 36.74 31.14 37.59 32.80 37.83 C 34.93 38.13 34.77 38.45 30.58 42.13 C 27.71 44.66 25.69 47.46 25.04 49.81 C 24.47 51.84 24.01 61.94 24.01 72.25 L 24.00 91.00 L 27.14 91.00 L 30.28 91.00 L 29.58 75.25 C 28.77 57.28 29.69 50.99 33.72 46.78 C 37.62 42.70 44.96 40.67 56.00 40.60 C 66.79 40.53 71.60 41.84 76.55 46.18 C 81.11 50.19 81.54 52.71 81.85 77.63 C 82.00 89.73 82.01 89.77 84.50 90.24 L 87.00 90.72 L 87.06 81.11 C 87.23 55.69 86.96 51.62 84.86 47.25 C 83.02 43.40 79.88 40.07 76.70 38.57 C 75.78 38.13 75.79 37.86 76.75 37.42 C 77.44 37.10 78.00 35.50 78.00 33.86 C 78.00 30.91 78.03 30.90 83.22 31.20 L 88.44 31.50 L 88.67 51.50 C 88.79 62.50 89.13 96.59 89.43 127.25 L 89.96 183.00 L 69.14 183.00 C 57.68 183.00 42.86 183.29 36.18 183.65 C 26.25 184.19 23.97 184.05 23.58 182.90 Z M 105.16 182.00 C 105.16 180.62 105.38 180.06 105.66 180.75 C 105.94 181.44 105.94 182.56 105.66 183.25 C 105.38 183.94 105.16 183.38 105.16 182.00 Z M 77.22 177.22 C 79.22 175.22 79.49 174.00 79.40 167.22 C 79.35 162.97 79.22 137.05 79.12 109.60 C 78.94 61.20 78.87 59.62 76.90 56.85 L 74.86 54.00 L 56.49 54.00 C 38.71 54.00 38.02 54.08 35.41 56.32 C 32.96 58.43 32.72 59.26 32.75 65.57 C 32.77 69.38 32.83 95.58 32.89 123.80 L 33.00 175.10 L 35.71 177.61 L 38.42 180.12 L 56.69 179.81 C 74.15 179.51 75.05 179.40 77.22 177.22 Z M 8.00 175.00 C 8.00 174.45 8.48 174.00 9.06 174.00 C 9.64 174.00 9.84 174.45 9.50 175.00 C 9.16 175.55 8.68 176.00 8.44 176.00 C 8.20 176.00 8.00 175.55 8.00 175.00 Z M 104.00 174.44 C 104.00 173.58 104.46 173.16 105.02 173.51 C 105.58 173.86 105.77 174.56 105.46 175.07 C 104.60 176.46 104.00 176.20 104.00 174.44 Z M 392.00 173.73 C 392.00 172.29 392.47 170.83 393.04 170.48 C 393.72 170.05 393.85 170.81 393.40 172.67 C 392.48 176.50 392.00 176.86 392.00 173.73 Z M 200.08 173.42 C 200.13 172.25 200.36 172.01 200.68 172.81 C 200.97 173.53 200.94 174.40 200.60 174.73 C 200.27 175.06 200.04 174.47 200.08 173.42 Z M 295.00 171.94 C 295.00 171.36 295.45 171.16 296.00 171.50 C 296.55 171.84 297.00 172.32 297.00 172.56 C 297.00 172.80 296.55 173.00 296.00 173.00 C 295.45 173.00 295.00 172.52 295.00 171.94 Z M 8.00 166.62 C 8.00 165.24 8.45 163.84 9.00 163.50 C 9.56 163.15 10.00 163.97 10.00 165.38 C 10.00 166.76 9.55 168.16 9.00 168.50 C 8.44 168.85 8.00 168.03 8.00 166.62 Z M 392.02 166.31 C 392.02 165.86 392.47 164.82 393.00 164.00 C 393.84 162.71 393.97 162.73 393.98 164.19 C 393.99 165.12 393.55 166.16 393.00 166.50 C 392.45 166.84 392.01 166.75 392.02 166.31 Z M 295.00 164.56 C 295.00 163.70 295.45 163.00 296.00 163.00 C 296.55 163.00 297.00 163.42 297.00 163.94 C 297.00 164.46 296.55 165.16 296.00 165.50 C 295.45 165.84 295.00 165.42 295.00 164.56 Z M 8.08 161.42 C 8.13 160.25 8.36 160.01 8.68 160.81 C 8.97 161.53 8.94 162.40 8.60 162.73 C 8.27 163.06 8.04 162.47 8.08 161.42 Z M 392.30 155.13 C 392.35 152.19 392.72 150.53 393.18 151.25 C 394.23 152.91 394.19 157.16 393.10 158.88 C 392.54 159.75 392.26 158.40 392.30 155.13 Z M 8.08 157.42 C 8.13 156.25 8.36 156.01 8.68 156.81 C 8.97 157.53 8.94 158.40 8.60 158.73 C 8.27 159.06 8.04 158.47 8.08 157.42 Z M 295.00 156.56 C 295.00 153.49 295.57 153.25 296.29 156.00 C 296.58 157.10 296.40 158.25 295.91 158.56 C 295.41 158.87 295.00 157.97 295.00 156.56 Z M 199.00 156.50 C 199.00 155.68 199.45 155.00 200.00 155.00 C 200.55 155.00 201.00 155.68 201.00 156.50 C 201.00 157.32 200.55 158.00 200.00 158.00 C 199.45 158.00 199.00 157.32 199.00 156.50 Z M 295.00 151.62 C 295.00 150.79 295.45 149.84 296.00 149.50 C 296.55 149.16 297.00 149.56 297.00 150.38 C 297.00 151.21 296.55 152.16 296.00 152.50 C 295.45 152.84 295.00 152.44 295.00 151.62 Z M 392.00 146.00 C 392.00 144.90 392.45 144.00 393.00 144.00 C 393.55 144.00 394.00 144.90 394.00 146.00 C 394.00 147.10 393.55 148.00 393.00 148.00 C 392.45 148.00 392.00 147.10 392.00 146.00 Z M 103.00 145.00 C 103.00 144.45 103.45 144.00 104.00 144.00 C 104.55 144.00 105.00 144.45 105.00 145.00 C 105.00 145.55 104.55 146.00 104.00 146.00 C 103.45 146.00 103.00 145.55 103.00 145.00 Z M 199.13 137.76 C 198.97 133.22 199.15 129.82 199.52 130.19 C 200.46 131.13 201.06 146.00 200.15 146.00 C 199.74 146.00 199.28 142.29 199.13 137.76 Z M 295.00 141.94 C 295.00 140.16 295.42 139.14 296.00 139.50 C 296.55 139.84 297.00 141.22 297.00 142.56 C 297.00 143.90 296.55 145.00 296.00 145.00 C 295.45 145.00 295.00 143.62 295.00 141.94 Z M 103.08 140.42 C 103.13 139.25 103.36 139.01 103.68 139.81 C 103.97 140.53 103.94 141.40 103.60 141.73 C 103.27 142.06 103.04 141.47 103.08 140.42 Z M 392.54 139.07 C 392.23 138.56 392.42 137.86 392.98 137.51 C 393.54 137.16 394.00 137.58 394.00 138.44 C 394.00 140.20 393.40 140.46 392.54 139.07 Z M 295.02 134.75 C 295.03 132.93 295.22 132.79 296.00 134.00 C 297.25 135.94 297.25 137.00 296.00 137.00 C 295.45 137.00 295.01 135.99 295.02 134.75 Z M 392.50 133.00 C 392.12 131.27 392.03 129.63 392.31 129.36 C 392.58 129.08 393.12 130.27 393.50 132.00 C 393.88 133.73 393.97 135.37 393.69 135.64 C 393.42 135.92 392.88 134.73 392.50 133.00 Z M 295.00 128.50 C 295.00 123.95 296.42 123.95 296.75 128.50 C 296.89 130.43 296.55 132.00 296.00 132.00 C 295.45 132.00 295.00 130.43 295.00 128.50 Z M 103.67 127.33 C 103.30 126.97 103.03 125.73 103.06 124.58 C 103.12 122.67 103.20 122.69 104.08 124.90 C 105.06 127.34 104.86 128.53 103.67 127.33 Z M 199.23 125.00 C 199.23 123.08 199.44 122.29 199.69 123.25 C 199.94 124.21 199.94 125.79 199.69 126.75 C 199.44 127.71 199.23 126.92 199.23 125.00 Z M 392.00 125.00 C 392.00 124.45 392.48 124.00 393.06 124.00 C 393.64 124.00 393.84 124.45 393.50 125.00 C 393.16 125.55 392.68 126.00 392.44 126.00 C 392.20 126.00 392.00 125.55 392.00 125.00 Z M 10.98 120.19 C 10.97 118.73 10.84 118.71 10.00 120.00 C 8.73 121.96 8.73 123.28 10.00 122.50 C 10.55 122.16 10.99 121.12 10.98 120.19 Z M 295.58 122.13 C 295.15 121.44 295.07 120.60 295.40 120.27 C 296.29 119.37 297.27 120.69 296.79 122.14 C 296.45 123.15 296.21 123.15 295.58 122.13 Z M 103.00 119.00 C 103.00 117.90 103.41 117.00 103.91 117.00 C 104.40 117.00 104.58 117.90 104.29 119.00 C 104.00 120.10 103.59 121.00 103.38 121.00 C 103.17 121.00 103.00 120.10 103.00 119.00 Z M 199.00 117.44 C 199.00 115.48 199.37 114.11 199.83 114.40 C 200.62 114.88 200.21 121.00 199.39 121.00 C 199.17 121.00 199.00 119.40 199.00 117.44 Z M 392.08 114.42 C 392.13 113.25 392.36 113.01 392.68 113.81 C 392.97 114.53 392.94 115.40 392.60 115.73 C 392.27 116.06 392.04 115.47 392.08 114.42 Z M 295.23 111.43 C 294.19 110.29 294.41 109.93 296.53 109.40 C 297.94 109.05 299.37 109.04 299.71 109.38 C 300.05 109.72 299.62 110.00 298.74 110.00 C 297.86 110.00 297.00 110.63 296.82 111.40 C 296.55 112.59 296.31 112.60 295.23 111.43 Z M 156.81 111.32 C 157.53 111.03 158.40 111.06 158.73 111.40 C 159.06 111.73 158.47 111.96 157.42 111.92 C 156.25 111.87 156.01 111.64 156.81 111.32 Z M 170.50 111.00 C 170.16 110.45 170.36 110.00 170.94 110.00 C 171.52 110.00 172.00 110.45 172.00 111.00 C 172.00 111.55 171.80 112.00 171.56 112.00 C 171.32 112.00 170.84 111.55 170.50 111.00 Z M 225.00 110.56 C 225.00 109.70 225.45 109.00 226.00 109.00 C 226.55 109.00 227.00 109.42 227.00 109.94 C 227.00 110.46 226.55 111.16 226.00 111.50 C 225.45 111.84 225.00 111.42 225.00 110.56 Z M 392.00 111.00 C 392.00 110.45 392.48 110.00 393.06 110.00 C 393.64 110.00 393.84 110.45 393.50 111.00 C 393.16 111.55 392.68 112.00 392.44 112.00 C 392.20 112.00 392.00 111.55 392.00 111.00 Z M 16.00 110.00 C 16.00 109.45 15.11 109.00 14.03 109.00 C 12.91 109.00 11.42 107.81 10.57 106.25 L 9.08 103.50 L 9.04 106.05 C 9.02 107.45 9.54 109.14 10.20 109.80 C 11.65 111.25 16.00 111.40 16.00 110.00 Z M 192.00 110.00 C 190.79 109.22 190.93 109.03 192.75 109.02 C 193.99 109.01 195.00 109.45 195.00 110.00 C 195.00 111.25 193.94 111.25 192.00 110.00 Z M 203.00 109.93 C 203.00 109.48 205.25 109.13 208.00 109.15 C 210.75 109.17 213.00 109.59 213.00 110.08 C 213.00 110.57 210.75 110.91 208.00 110.85 C 205.25 110.79 203.00 110.37 203.00 109.93 Z M 215.50 110.00 C 215.84 109.45 216.88 109.01 217.81 109.02 C 219.27 109.03 219.29 109.16 218.00 110.00 C 216.04 111.27 214.72 111.27 215.50 110.00 Z M 230.50 110.00 C 230.84 109.45 231.32 109.00 231.56 109.00 C 231.80 109.00 232.00 109.45 232.00 110.00 C 232.00 110.55 231.52 111.00 230.94 111.00 C 230.36 111.00 230.16 110.55 230.50 110.00 Z M 184.81 109.32 C 185.53 109.03 186.40 109.06 186.73 109.40 C 187.06 109.73 186.47 109.96 185.42 109.92 C 184.25 109.87 184.01 109.64 184.81 109.32 Z M 274.00 109.00 C 272.67 108.14 272.67 108.03 274.00 108.03 C 274.82 108.03 276.18 108.47 277.00 109.00 C 278.33 109.86 278.33 109.97 277.00 109.97 C 276.18 109.97 274.82 109.53 274.00 109.00 Z M 286.00 109.00 C 287.96 107.73 289.28 107.73 288.50 109.00 C 288.16 109.55 287.12 109.99 286.19 109.98 C 284.73 109.97 284.71 109.84 286.00 109.00 Z M 304.81 109.32 C 305.53 109.03 306.40 109.06 306.73 109.40 C 307.06 109.73 306.47 109.96 305.42 109.92 C 304.25 109.87 304.01 109.64 304.81 109.32 Z M 331.81 109.32 C 332.53 109.03 333.40 109.06 333.73 109.40 C 334.06 109.73 333.47 109.96 332.42 109.92 C 331.25 109.87 331.01 109.64 331.81 109.32 Z M 335.81 109.32 C 336.53 109.03 337.40 109.06 337.73 109.40 C 338.06 109.73 337.47 109.96 336.42 109.92 C 335.25 109.87 335.01 109.64 335.81 109.32 Z M 350.81 109.32 C 351.53 109.03 352.40 109.06 352.73 109.40 C 353.06 109.73 352.47 109.96 351.42 109.92 C 350.25 109.87 350.01 109.64 350.81 109.32 Z M 102.98 99.75 C 102.70 85.00 102.84 77.83 103.44 77.22 C 103.75 76.92 104.01 77.53 104.02 78.58 C 104.04 79.64 104.16 86.91 104.30 94.75 C 104.44 102.59 104.24 109.00 103.86 109.00 C 103.48 109.00 103.08 104.84 102.98 99.75 Z M 308.81 108.32 C 309.53 108.03 310.40 108.06 310.73 108.40 C 311.06 108.73 310.47 108.96 309.42 108.92 C 308.25 108.87 308.01 108.64 308.81 108.32 Z M 106.16 71.72 C 106.00 50.97 105.47 35.09 104.94 34.55 C 104.35 33.96 103.97 40.95 103.93 53.05 C 103.89 63.75 103.55 73.27 103.18 74.21 C 102.81 75.15 102.50 65.40 102.50 52.54 C 102.50 39.69 102.84 28.83 103.25 28.42 C 103.66 28.00 104.00 28.84 104.00 30.27 C 104.00 31.71 104.45 33.16 105.00 33.50 C 105.64 33.90 106.00 30.70 106.00 24.62 C 106.00 19.36 105.55 14.84 105.00 14.50 C 104.38 14.12 104.00 15.97 104.00 19.38 C 104.00 22.41 103.59 25.14 103.09 25.44 C 101.53 26.41 102.35 13.67 103.97 11.75 C 105.65 9.76 108.00 9.42 108.00 11.17 C 108.00 11.81 108.28 12.05 108.63 11.70 C 108.98 11.35 110.09 11.51 111.11 12.06 C 112.63 12.87 112.84 12.75 112.31 11.36 C 111.87 10.22 112.04 9.91 112.83 10.39 C 115.24 11.89 117.90 11.91 117.34 10.43 C 116.61 8.55 118.42 8.59 120.00 10.50 C 121.38 12.16 123.48 12.58 122.50 11.00 C 121.96 10.12 124.04 9.52 126.30 9.90 C 126.74 9.97 132.93 10.08 140.05 10.14 C 147.17 10.19 153.00 10.63 153.00 11.12 C 153.00 11.60 153.79 11.99 154.75 11.98 C 156.25 11.97 156.28 11.83 155.00 11.00 C 153.68 10.15 153.68 10.03 155.05 10.02 C 155.90 10.01 157.07 10.47 157.64 11.04 C 158.37 11.77 159.08 11.61 159.96 10.54 C 161.69 8.47 163.07 8.59 162.37 10.75 C 161.93 12.13 162.02 12.20 162.81 11.10 C 164.21 9.13 173.83 8.76 176.42 10.58 C 178.71 12.18 180.40 12.46 179.56 11.09 C 179.25 10.59 181.47 10.03 184.50 9.84 C 187.53 9.65 190.00 9.89 190.00 10.37 C 190.00 10.84 191.16 11.01 192.58 10.74 C 194.02 10.47 195.33 10.75 195.56 11.37 C 196.21 13.21 196.72 104.84 196.08 105.86 C 195.74 106.40 176.84 107.03 150.97 107.37 L 106.45 107.94 L 106.16 71.72 Z M 294.91 107.50 C 294.86 107.22 294.82 105.65 294.82 104.00 C 294.82 97.47 295.03 95.70 295.73 96.40 C 296.70 97.36 296.71 108.00 295.75 108.00 C 295.34 108.00 294.96 107.78 294.91 107.50 Z M 201.95 79.82 C 201.92 64.80 201.87 43.19 201.85 31.81 C 201.83 20.43 202.10 10.64 202.46 10.06 C 203.27 8.75 206.68 8.67 207.46 9.93 C 207.77 10.44 206.79 11.01 205.27 11.18 C 203.75 11.36 210.60 11.58 220.50 11.68 C 233.31 11.81 237.56 11.58 235.25 10.90 C 230.88 9.61 231.11 8.61 235.58 9.45 C 237.57 9.82 239.69 9.68 240.36 9.12 C 241.12 8.49 242.12 8.46 243.03 9.04 C 244.26 9.82 244.21 9.97 242.75 9.98 C 241.79 9.99 241.00 10.38 241.00 10.85 C 241.00 12.15 258.74 12.23 259.55 10.93 C 259.98 10.23 259.36 9.90 257.86 10.02 C 256.56 10.13 254.15 10.12 252.50 9.99 C 249.98 9.79 250.22 9.62 254.00 8.97 C 258.73 8.16 263.00 8.66 263.00 10.03 C 263.00 10.47 262.44 11.06 261.75 11.34 C 261.06 11.62 261.54 11.88 262.81 11.92 C 264.08 11.96 264.86 11.58 264.54 11.07 C 263.64 9.61 267.71 8.77 269.94 9.97 C 271.49 10.80 271.84 10.75 271.47 9.77 C 270.85 8.17 281.12 7.87 282.23 9.45 C 282.72 10.14 282.97 10.07 282.98 9.25 C 282.99 8.56 283.96 8.00 285.12 8.00 C 286.90 8.00 287.04 8.25 286.00 9.50 C 284.96 10.76 285.11 11.00 286.94 11.00 C 288.15 11.00 288.84 10.55 288.50 9.99 C 287.61 8.56 290.54 7.67 293.61 8.44 C 296.05 9.05 296.11 9.22 294.61 10.88 C 293.26 12.36 293.00 15.40 293.00 29.33 L 293.00 46.00 L 285.62 46.00 L 278.25 46.00 L 277.62 42.88 C 277.28 41.16 277.00 38.01 277.00 35.88 C 277.00 32.43 276.73 32.00 274.55 32.00 C 272.21 32.00 272.08 32.33 271.80 38.75 L 271.50 45.50 L 254.78 45.77 L 238.06 46.05 L 237.78 32.77 L 237.50 19.50 L 235.00 19.50 L 232.50 19.50 L 232.22 32.71 L 231.94 45.92 L 223.72 46.21 L 215.50 46.50 L 215.39 57.75 L 215.28 69.00 L 223.64 69.00 L 232.00 69.00 L 232.00 84.00 L 232.00 99.00 L 235.00 99.00 L 238.00 99.00 L 238.00 84.00 L 238.00 69.00 L 262.00 69.00 L 286.00 69.00 L 286.00 75.50 L 286.00 82.00 L 289.00 82.00 L 292.00 82.00 L 292.00 75.50 L 292.00 69.00 L 299.84 69.00 L 307.68 69.00 L 310.30 73.81 C 313.65 79.96 315.89 81.95 320.32 82.66 C 328.67 84.02 336.02 80.00 338.14 72.93 L 339.32 69.00 L 350.41 68.89 C 356.51 68.84 362.18 68.69 363.00 68.56 C 363.82 68.44 367.31 68.27 370.75 68.17 L 377.00 68.00 L 377.00 56.38 L 377.00 44.76 L 357.99 45.19 L 338.98 45.63 L 338.00 42.00 C 336.31 35.71 330.42 32.00 322.16 32.00 C 316.06 32.00 311.99 34.78 309.35 40.73 L 306.97 46.11 L 302.74 45.81 L 298.50 45.50 L 298.50 28.50 C 298.50 15.94 298.16 11.14 297.20 10.13 C 296.49 9.38 296.19 8.48 296.53 8.13 C 296.88 7.79 297.86 8.40 298.72 9.50 C 299.82 10.92 300.11 11.02 299.70 9.85 C 299.20 8.37 300.37 8.22 311.05 8.41 C 317.60 8.53 323.23 8.90 323.57 9.24 C 323.92 9.58 324.90 9.59 325.76 9.26 C 326.80 8.86 327.08 9.06 326.61 9.83 C 326.21 10.47 326.32 11.00 326.86 11.00 C 327.39 11.00 327.98 10.61 328.17 10.13 C 328.35 9.65 329.62 8.91 330.99 8.49 C 333.22 7.79 333.34 7.88 332.12 9.36 C 330.95 10.77 330.99 11.00 332.38 11.00 C 333.27 11.00 334.00 10.29 334.00 9.43 C 334.00 8.37 334.73 7.97 336.25 8.20 C 337.49 8.39 338.39 9.08 338.26 9.73 C 337.95 11.28 347.63 10.86 350.68 9.19 C 353.81 7.49 355.58 7.60 354.07 9.41 C 353.10 10.59 353.65 10.81 357.45 10.75 C 359.95 10.71 362.00 10.34 362.00 9.92 C 362.00 8.59 368.13 7.73 369.30 8.90 C 369.90 9.50 370.87 9.99 371.45 9.98 C 372.03 9.98 371.82 9.49 371.00 8.91 C 369.83 8.08 370.10 7.94 372.25 8.28 C 373.76 8.52 375.00 8.37 375.00 7.93 C 375.00 7.50 376.24 7.50 377.76 7.93 C 379.28 8.37 381.63 8.31 382.99 7.81 C 384.62 7.21 385.58 7.25 385.82 7.95 C 386.26 9.29 389.00 9.33 389.00 8.00 C 389.00 7.45 389.90 7.00 391.00 7.00 C 392.24 7.00 392.99 7.66 392.98 8.75 C 392.97 10.16 392.80 10.23 392.08 9.09 C 389.87 5.60 389.36 16.68 389.76 59.75 C 390.11 97.16 389.95 105.00 388.84 105.02 C 371.52 105.23 314.07 106.17 307.37 106.35 L 298.23 106.59 L 298.47 93.05 C 298.60 85.60 298.38 77.47 297.98 75.00 C 297.33 71.01 297.22 71.47 296.96 79.00 C 296.81 83.67 296.71 89.19 296.76 91.25 C 296.83 94.89 295.10 96.76 294.90 93.25 C 294.77 90.83 294.90 81.39 295.09 80.35 C 295.17 79.88 295.12 77.92 294.97 76.00 C 294.51 69.93 293.23 83.33 293.11 95.50 L 292.99 106.50 L 247.50 106.82 L 202.00 107.15 L 201.95 79.82 Z M 10.09 98.69 C 8.79 97.39 8.61 98.84 9.72 101.67 C 10.42 103.43 10.45 103.43 10.81 101.64 C 11.02 100.62 10.70 99.30 10.09 98.69 Z M 199.16 101.00 C 199.16 99.62 199.38 99.06 199.66 99.75 C 199.94 100.44 199.94 101.56 199.66 102.25 C 199.38 102.94 199.16 102.38 199.16 101.00 Z M 10.08 91.90 C 9.20 89.69 9.12 89.67 9.06 91.58 C 9.03 92.73 9.30 93.97 9.67 94.33 C 10.86 95.53 11.06 94.34 10.08 91.90 Z M 199.23 92.00 C 199.23 90.08 199.44 89.29 199.69 90.25 C 199.94 91.21 199.94 92.79 199.69 93.75 C 199.44 94.71 199.23 93.92 199.23 92.00 Z M 199.08 84.42 C 199.13 83.25 199.36 83.01 199.68 83.81 C 199.97 84.53 199.94 85.40 199.60 85.73 C 199.27 86.06 199.04 85.47 199.08 84.42 Z M 392.16 84.00 C 392.16 82.62 392.38 82.06 392.66 82.75 C 392.94 83.44 392.94 84.56 392.66 85.25 C 392.38 85.94 392.16 85.38 392.16 84.00 Z M 198.66 79.63 C 198.24 78.05 198.14 76.53 198.43 76.24 C 199.23 75.43 200.22 78.65 199.79 80.69 C 199.51 82.02 199.21 81.75 198.66 79.63 Z M 391.50 80.00 C 391.84 79.45 392.32 79.00 392.56 79.00 C 392.80 79.00 393.00 79.45 393.00 80.00 C 393.00 80.55 392.52 81.00 391.94 81.00 C 391.36 81.00 391.16 80.55 391.50 80.00 Z M 318.17 74.14 C 316.70 72.57 314.60 69.77 313.50 67.92 C 310.40 62.72 304.76 60.04 296.87 60.02 C 289.93 60.00 287.34 58.68 289.00 56.00 C 289.60 55.03 292.69 54.34 298.53 53.89 C 306.50 53.27 307.44 52.96 310.51 49.99 C 312.34 48.21 314.14 45.58 314.50 44.13 C 315.54 39.97 317.93 38.00 321.90 38.01 C 331.79 38.05 333.01 40.27 332.97 58.20 C 332.93 72.97 332.43 74.44 326.87 76.04 C 321.92 77.46 321.11 77.28 318.17 74.14 Z M 392.16 72.00 C 392.16 70.62 392.38 70.06 392.66 70.75 C 392.94 71.44 392.94 72.56 392.66 73.25 C 392.38 73.94 392.16 73.38 392.16 72.00 Z M 198.07 68.81 C 198.03 67.33 198.45 65.84 199.00 65.50 C 200.19 64.76 200.19 66.72 199.00 69.50 C 198.23 71.29 198.13 71.21 198.07 68.81 Z M 391.70 64.25 C 392.51 59.06 393.00 58.90 393.00 63.83 C 393.00 66.12 392.58 68.00 392.06 68.00 C 391.54 68.00 391.38 66.33 391.70 64.25 Z M 198.00 51.06 C 198.00 45.04 198.43 39.85 198.95 39.53 C 199.53 39.17 199.83 43.41 199.73 50.47 C 199.64 56.81 199.21 62.00 198.78 62.00 C 198.35 62.00 198.00 57.08 198.00 51.06 Z M 391.00 59.12 C 391.00 58.57 391.45 57.84 392.00 57.50 C 392.55 57.16 393.00 57.33 393.00 57.88 C 393.00 58.43 392.55 59.16 392.00 59.50 C 391.45 59.84 391.00 59.67 391.00 59.12 Z M 9.74 42.78 C 9.54 39.88 9.37 42.00 9.37 47.50 C 9.36 53.00 9.53 55.38 9.73 52.78 C 9.94 50.19 9.94 45.69 9.74 42.78 Z M 391.54 51.07 C 391.23 50.56 391.42 49.86 391.98 49.51 C 392.54 49.16 393.00 49.58 393.00 50.44 C 393.00 52.20 392.40 52.46 391.54 51.07 Z M 391.34 46.43 C 391.01 45.57 391.24 44.36 391.87 43.73 C 392.71 42.89 393.00 43.29 393.00 45.30 C 393.00 48.31 392.25 48.82 391.34 46.43 Z M 294.81 44.32 C 295.53 44.03 296.40 44.06 296.73 44.40 C 297.06 44.73 296.47 44.96 295.42 44.92 C 294.25 44.87 294.01 44.64 294.81 44.32 Z M 295.08 41.42 C 295.13 40.25 295.36 40.01 295.68 40.81 C 295.97 41.53 295.94 42.40 295.60 42.73 C 295.27 43.06 295.04 42.47 295.08 41.42 Z M 391.60 39.40 C 391.24 38.47 391.18 37.49 391.45 37.21 C 391.73 36.94 392.24 37.47 392.60 38.40 C 392.96 39.33 393.02 40.31 392.75 40.59 C 392.47 40.86 391.96 40.33 391.60 39.40 Z M 198.08 37.42 C 198.13 36.25 198.36 36.01 198.68 36.81 C 198.97 37.53 198.94 38.40 198.60 38.73 C 198.27 39.06 198.04 38.47 198.08 37.42 Z M 199.08 34.42 C 199.13 33.25 199.36 33.01 199.68 33.81 C 199.97 34.53 199.94 35.40 199.60 35.73 C 199.27 36.06 199.04 35.47 199.08 34.42 Z M 391.00 31.50 C 391.00 30.68 391.44 30.00 391.97 30.00 C 392.50 30.00 392.68 30.68 392.36 31.50 C 392.05 32.33 391.61 33.00 391.39 33.00 C 391.18 33.00 391.00 32.33 391.00 31.50 Z M 198.07 27.75 C 198.03 25.14 198.45 23.00 199.00 23.00 C 200.20 23.00 200.20 27.70 199.00 30.50 C 198.35 32.00 198.12 31.32 198.07 27.75 Z M 10.00 27.50 C 10.00 26.12 9.83 25.00 9.62 25.00 C 9.41 25.00 9.02 26.12 8.76 27.50 C 8.49 28.88 8.66 30.00 9.14 30.00 C 9.61 30.00 10.00 28.88 10.00 27.50 Z M 296.08 28.42 C 296.13 27.25 296.36 27.01 296.68 27.81 C 296.97 28.53 296.94 29.40 296.60 29.73 C 296.27 30.06 296.04 29.47 296.08 28.42 Z M 391.63 26.75 C 390.81 23.69 390.85 22.00 391.75 22.00 C 392.16 22.00 392.61 23.58 392.75 25.50 C 393.03 29.49 392.52 30.06 391.63 26.75 Z M 198.02 20.31 C 198.02 19.86 198.47 18.82 199.00 18.00 C 199.84 16.71 199.97 16.73 199.98 18.19 C 199.99 19.12 199.55 20.16 199.00 20.50 C 198.45 20.84 198.01 20.75 198.02 20.31 Z M 198.00 13.94 C 198.00 13.36 198.45 13.16 199.00 13.50 C 199.55 13.84 200.00 14.32 200.00 14.56 C 200.00 14.80 199.55 15.00 199.00 15.00 C 198.45 15.00 198.00 14.52 198.00 13.94 Z M 391.00 13.00 C 391.00 12.45 391.45 12.00 392.00 12.00 C 392.55 12.00 393.00 12.45 393.00 13.00 C 393.00 13.55 392.55 14.00 392.00 14.00 C 391.45 14.00 391.00 13.55 391.00 13.00 Z M 126.73 12.40 C 126.40 12.06 125.53 12.03 124.81 12.32 C 124.01 12.64 124.25 12.87 125.42 12.92 C 126.47 12.96 127.06 12.73 126.73 12.40 Z M 199.00 12.00 C 199.00 11.45 199.48 11.00 200.06 11.00 C 200.64 11.00 200.84 11.45 200.50 12.00 C 200.16 12.55 199.68 13.00 199.44 13.00 C 199.20 13.00 199.00 12.55 199.00 12.00 Z M 168.50 11.00 C 169.28 9.73 167.96 9.73 166.00 11.00 C 164.71 11.84 164.73 11.97 166.19 11.98 C 167.12 11.99 168.16 11.55 168.50 11.00 Z M 222.00 10.00 C 222.82 9.47 224.40 9.06 225.50 9.09 L 227.50 9.14 L 225.50 10.00 C 224.40 10.47 222.82 10.88 222.00 10.91 C 220.67 10.96 220.67 10.86 222.00 10.00 Z M 312.27 10.34 C 311.59 10.07 310.24 10.05 309.27 10.31 C 308.30 10.56 308.85 10.78 310.50 10.81 C 312.15 10.83 312.95 10.62 312.27 10.34 Z M 369.25 10.34 C 368.56 10.06 367.44 10.06 366.75 10.34 C 366.06 10.62 366.62 10.84 368.00 10.84 C 369.38 10.84 369.94 10.62 369.25 10.34 Z" fill="none" stroke="rgba(255,255,255,0.92)" stroke-width="1.5" stroke-linejoin="round" fill-rule="evenodd"/>
</svg>
