<svg xmlns="http://www.w3.org/2000/svg" viewBox="0 0 100 100" width="100" height="100">
  <path d="M 0.00 50.00 L 0.00 0.00 L 50.00 0.00 L 100.00 0.00 L 100.00 50.00 L 100.00 100.00 L 50.00 100.00 L 0.00 100.00 L 0.00 50.00 Z M 94.65 94.53 C 94.34 93.72 94.53 92.79 95.06 92.46 C 95.59 92.13 95.73 91.37 95.36 90.77 C 94.99 90.18 94.69 84.02 94.69 77.09 C 94.69 66.15 94.59 65.42 93.97 71.50 C 92.79 83.01 92.86 96.00 94.11 96.00 C 94.72 96.00 94.96 95.34 94.65 94.53 Z M 38.00 77.61 C 38.00 66.32 38.25 64.12 39.58 63.61 C 40.45 63.27 51.25 63.00 63.58 63.00 L 86.00 63.00 L 86.00 69.00 L 86.00 75.00 L 89.00 75.00 L 92.00 75.00 L 92.00 69.00 C 92.00 63.67 92.22 63.00 94.00 63.00 C 95.67 63.00 96.00 62.33 96.00 59.00 C 96.00 55.12 95.90 55.00 92.61 55.00 C 86.84 55.00 87.17 50.65 93.00 49.85 C 95.17 49.55 95.54 48.93 95.81 45.15 C 96.02 42.27 95.77 41.03 95.06 41.46 C 94.48 41.82 94.00 41.64 94.00 41.06 C 94.00 40.48 94.41 40.00 94.91 40.00 C 96.34 40.00 96.09 6.24 94.66 5.73 C 94.02 5.50 86.75 5.44 78.50 5.59 C 70.25 5.75 50.11 5.90 33.75 5.94 C 6.39 5.99 0.18 6.57 6.25 8.47 L 8.50 9.18 L 6.11 9.86 C 4.80 10.23 11.22 10.66 20.39 10.81 C 34.33 11.04 37.31 10.83 38.60 9.54 C 39.45 8.69 41.10 8.00 42.26 8.00 C 44.29 8.00 44.30 8.06 42.54 9.35 C 40.94 10.52 41.89 10.72 49.78 10.86 C 54.78 10.95 59.12 10.61 59.44 10.10 C 59.76 9.58 58.00 9.17 55.42 9.17 C 52.90 9.17 50.57 8.90 50.25 8.58 C 49.93 8.26 52.64 8.00 56.27 8.00 C 62.57 8.00 66.02 9.33 62.26 10.31 C 60.92 10.66 61.04 10.80 62.75 10.88 C 64.13 10.96 65.00 10.42 65.00 9.50 C 65.00 7.85 67.71 7.53 69.91 8.92 C 70.78 9.47 72.03 9.38 73.16 8.67 C 74.56 7.79 75.47 7.82 76.99 8.76 C 78.08 9.44 79.32 9.99 79.74 9.98 C 80.16 9.98 79.83 9.53 79.00 9.00 C 77.86 8.26 78.25 8.03 80.67 8.02 C 82.41 8.01 84.55 7.72 85.43 7.39 C 86.60 6.94 86.86 7.21 86.40 8.39 C 85.97 9.52 86.34 10.00 87.64 9.98 C 89.05 9.97 89.18 9.76 88.15 9.12 C 87.17 8.49 87.52 8.09 89.50 7.59 C 92.64 6.80 95.72 8.68 94.04 10.36 C 93.41 10.99 93.00 17.42 93.00 26.70 L 93.00 42.00 L 85.62 42.00 C 77.31 42.00 77.04 41.73 77.01 33.25 C 77.00 29.41 76.76 29.00 74.55 29.00 C 72.24 29.00 72.08 29.36 71.80 35.25 L 71.50 41.50 L 54.75 41.77 L 38.00 42.05 L 38.00 30.02 L 38.00 18.00 L 35.00 18.00 L 32.00 18.00 L 32.00 29.96 L 32.00 41.92 L 23.75 42.21 L 15.50 42.50 L 15.50 53.00 L 15.50 63.50 L 23.75 63.50 L 32.00 63.50 L 32.00 76.58 C 32.00 83.78 32.30 89.97 32.67 90.33 C 33.03 90.70 34.38 91.00 35.67 91.00 C 37.99 91.00 38.00 90.97 38.00 77.61 Z M 85.73 10.40 C 85.40 10.06 84.53 10.03 83.81 10.32 C 83.01 10.64 83.25 10.87 84.42 10.92 C 85.47 10.96 86.06 10.73 85.73 10.40 Z M 21.65 8.75 C 21.91 8.34 25.47 8.00 29.56 8.00 C 33.65 8.00 37.00 8.34 37.00 8.75 C 37.00 9.16 33.44 9.50 29.10 9.50 C 24.75 9.50 21.40 9.16 21.65 8.75 Z" fill="none" stroke="rgba(255,255,255,0.92)" stroke-width="1.2" stroke-linejoin="round" fill-rule="evenodd"/>
</svg>
