<svg xmlns="http://www.w3.org/2000/svg" viewBox="0 0 100 100" width="100" height="100">
  <path d="M 0.00 50.00 L 0.00 0.00 L 50.00 0.00 L 100.00 0.00 L 100.00 50.00 L 100.00 100.00 L 50.00 100.00 L 0.00 100.00 L 0.00 50.00 Z M 5.83 51.25 L 5.55 6.50 L 22.03 6.27 C 31.09 6.15 51.10 5.92 66.50 5.77 L 94.50 5.50 L 94.50 19.63 L 94.50 33.76 L 88.00 34.37 C 84.42 34.71 76.49 34.99 70.37 34.99 C 61.49 35.00 58.98 34.68 57.95 33.43 C 55.82 30.87 51.35 29.00 47.37 29.00 C 43.54 29.00 35.00 32.49 35.00 34.05 C 35.00 34.52 31.51 35.05 27.25 35.21 C 22.99 35.37 19.61 35.84 19.75 36.25 C 19.89 36.66 20.00 44.88 20.00 54.50 L 20.00 72.00 L 26.96 72.00 C 32.66 72.00 34.55 72.43 37.47 74.41 C 44.05 78.88 52.55 78.93 57.77 74.54 C 60.35 72.37 61.48 72.22 78.25 71.87 L 95.99 71.50 L 96.00 37.74 L 96.00 3.97 L 50.00 4.06 L 4.00 4.15 L 4.00 50.07 C 4.00 81.55 4.33 96.00 5.05 96.00 C 5.78 96.00 6.02 82.08 5.83 51.25 Z M 95.74 78.79 C 95.55 75.33 95.38 77.90 95.38 84.50 C 95.38 91.10 95.54 93.93 95.74 90.79 C 95.94 87.65 95.94 82.25 95.74 78.79 Z M 43.44 71.32 C 39.24 70.49 38.00 66.20 38.00 52.55 C 38.00 40.46 38.11 39.80 40.45 37.45 C 42.21 35.70 43.99 35.00 46.70 35.02 C 51.56 35.03 52.18 35.48 55.67 41.44 C 59.66 48.23 65.00 51.00 74.16 51.00 C 80.26 51.00 81.00 51.21 81.00 52.94 C 81.00 55.60 80.42 55.83 71.04 56.88 C 64.07 57.66 62.37 58.23 59.88 60.61 C 58.27 62.16 56.59 64.79 56.16 66.46 C 54.98 71.01 50.51 72.72 43.44 71.32 Z" fill="none" stroke="rgba(255,255,255,0.92)" stroke-width="1.2" stroke-linejoin="round" fill-rule="evenodd"/>
</svg>
