<svg xmlns="http://www.w3.org/2000/svg" viewBox="0 0 100 100" width="100" height="100">
  <path d="M 0.00 50.00 L 0.00 0.00 L 50.00 0.00 L 100.00 0.00 L 100.00 50.00 L 100.00 100.00 L 50.00 100.00 L 0.00 100.00 L 0.00 50.00 Z M 96.00 93.25 L 96.00 90.50 L 53.76 90.50 L 11.53 90.50 L 11.26 74.00 C 11.12 64.92 10.82 56.71 10.59 55.75 C 10.37 54.79 10.63 54.00 11.16 54.00 C 11.70 54.00 11.85 53.12 11.51 52.04 C 11.17 50.96 10.86 46.91 10.82 43.03 C 10.79 39.14 10.29 35.68 9.71 35.32 C 9.10 34.94 8.88 35.26 9.19 36.09 C 9.48 36.86 9.39 38.40 8.99 39.50 C 8.48 40.90 8.15 39.93 7.88 36.25 C 7.49 30.83 8.15 29.70 9.92 32.75 C 10.80 34.25 10.94 34.12 10.97 31.81 C 11.00 28.89 9.49 27.21 8.66 29.24 C 8.39 29.93 8.12 29.26 8.08 27.75 C 7.99 24.71 9.59 23.99 10.31 26.75 C 10.56 27.71 10.81 26.70 10.85 24.50 C 10.93 20.90 10.80 20.68 9.56 22.31 C 8.28 24.00 8.15 23.94 7.63 21.31 C 7.32 19.77 7.22 16.48 7.41 14.00 C 7.79 8.92 7.11 4.00 6.03 4.00 C 5.63 4.00 5.46 17.84 5.65 34.75 C 5.83 51.66 5.99 72.36 5.99 80.75 L 6.00 96.00 L 51.00 96.00 L 96.00 96.00 L 96.00 93.25 Z M 72.50 94.00 C 72.16 93.45 72.36 93.00 72.94 93.00 C 73.52 93.00 74.00 93.45 74.00 94.00 C 74.00 94.55 73.80 95.00 73.56 95.00 C 73.32 95.00 72.84 94.55 72.50 94.00 Z M 41.81 93.32 C 42.53 93.03 43.40 93.06 43.73 93.40 C 44.06 93.73 43.47 93.96 42.42 93.92 C 41.25 93.87 41.01 93.64 41.81 93.32 Z M 62.81 93.32 C 63.53 93.03 64.40 93.06 64.73 93.40 C 65.06 93.73 64.47 93.96 63.42 93.92 C 62.25 93.87 62.01 93.64 62.81 93.32 Z M 88.00 93.14 C 88.00 92.66 89.12 92.49 90.50 92.76 C 91.88 93.02 93.00 93.41 93.00 93.62 C 93.00 93.83 91.88 94.00 90.50 94.00 C 89.12 94.00 88.00 93.61 88.00 93.14 Z M 8.00 74.23 C 8.00 72.52 8.44 70.84 8.98 70.51 C 9.60 70.13 9.73 71.14 9.34 73.20 C 8.50 77.62 8.00 78.00 8.00 74.23 Z M 95.37 72.93 C 95.59 72.69 95.54 57.09 95.24 38.25 L 94.71 4.00 L 91.76 4.00 L 88.80 4.00 L 89.52 36.00 L 90.24 68.00 L 56.62 68.00 L 23.00 68.00 L 23.00 36.00 L 23.00 4.00 L 17.75 4.14 C 14.86 4.21 13.51 4.47 14.75 4.71 L 17.00 5.14 L 17.00 38.90 C 17.00 57.47 17.34 73.02 17.75 73.45 C 18.51 74.24 94.63 73.73 95.37 72.93 Z M 8.06 66.00 C 8.06 63.14 8.25 62.82 9.08 64.25 C 9.77 65.44 9.77 66.56 9.08 67.75 C 8.25 69.18 8.06 68.86 8.06 66.00 Z M 76.80 62.97 C 79.51 60.44 80.20 57.75 79.59 52.00 C 79.33 49.52 79.09 37.71 79.06 25.75 L 79.00 4.00 L 56.00 4.00 L 33.00 4.00 L 33.00 32.43 L 33.00 60.85 L 35.63 62.93 C 38.08 64.85 39.57 65.00 56.45 65.00 C 73.32 65.00 74.78 64.86 76.80 62.97 Z M 8.00 48.89 C 8.00 45.47 8.22 42.89 8.50 43.17 C 9.54 44.21 9.98 53.90 9.01 54.50 C 8.37 54.89 8.00 52.82 8.00 48.89 Z M 10.98 19.25 C 10.98 18.84 10.53 17.82 10.00 17.00 C 9.22 15.79 9.03 15.93 9.02 17.75 C 9.01 18.99 9.45 20.00 10.00 20.00 C 10.55 20.00 10.99 19.66 10.98 19.25 Z M 10.98 10.19 C 10.97 8.73 10.84 8.71 10.00 10.00 C 8.73 11.96 8.73 13.28 10.00 12.50 C 10.55 12.16 10.99 11.12 10.98 10.19 Z" fill="none" stroke="rgba(255,255,255,0.92)" stroke-width="1.2" stroke-linejoin="round" fill-rule="evenodd"/>
</svg>
