<svg xmlns="http://www.w3.org/2000/svg" viewBox="0 0 100 100" width="100" height="100">
  <path d="M 0.00 50.00 L 0.00 0.00 L 50.00 0.00 L 100.00 0.00 L 100.00 50.00 L 100.00 100.00 L 50.00 100.00 L 0.00 100.00 L 0.00 50.00 Z M 96.00 51.25 L 96.00 6.50 L 53.25 6.73 C 29.74 6.86 9.04 7.22 7.25 7.53 C 4.56 7.99 4.00 8.54 4.00 10.68 L 4.00 13.28 L 47.75 12.89 L 91.50 12.50 L 91.50 32.00 L 91.50 51.50 L 48.00 52.07 C 24.08 52.38 4.39 52.72 4.25 52.82 C 4.11 52.92 4.00 54.12 4.00 55.50 L 4.00 58.00 L 48.00 58.00 L 92.00 58.00 L 92.00 77.00 C 92.00 95.33 92.07 96.00 94.00 96.00 C 95.97 96.00 96.00 95.33 96.00 51.25 Z M 42.84 87.44 C 44.99 82.73 40.39 78.49 36.06 81.19 C 33.77 82.62 33.29 86.89 35.20 88.80 C 37.38 90.98 41.57 90.24 42.84 87.44 Z M 84.89 86.35 C 86.35 83.13 86.11 82.90 78.25 80.03 C 74.81 78.78 72.00 77.16 72.00 76.43 C 72.00 70.91 64.19 65.00 56.90 65.00 C 52.78 65.00 51.83 65.43 49.10 68.53 C 47.20 70.70 46.00 73.16 46.00 74.89 C 46.00 78.55 49.78 84.11 53.54 85.97 C 57.47 87.92 64.24 87.73 67.51 85.58 C 70.02 83.94 70.42 83.94 75.33 85.63 C 78.17 86.60 80.93 87.76 81.45 88.20 C 82.98 89.49 83.61 89.16 84.89 86.35 Z M 55.08 79.41 C 51.36 76.29 51.15 73.60 54.45 71.44 C 58.55 68.75 66.00 72.75 66.00 77.64 C 66.00 82.33 59.75 83.35 55.08 79.41 Z" fill="none" stroke="rgba(255,255,255,0.92)" stroke-width="1.2" stroke-linejoin="round" fill-rule="evenodd"/>
</svg>
