<svg xmlns="http://www.w3.org/2000/svg" viewBox="0 0 400 222" width="400" height="222">
  <path d="M 0.00 111.00 L 0.00 0.00 L 200.00 0.00 L 400.00 0.00 L 400.00 111.00 L 400.00 222.00 L 200.00 222.00 L 0.00 222.00 L 0.00 111.00 Z M 113.00 216.48 C 133.62 216.17 179.07 215.70 214.00 215.44 C 308.70 214.73 376.37 213.51 378.02 212.49 C 378.48 212.20 379.15 212.43 379.50 213.00 C 379.85 213.57 380.52 213.80 380.98 213.51 C 381.44 213.23 384.94 212.95 388.76 212.89 L 395.71 212.78 L 395.35 185.14 C 394.49 117.67 394.13 76.91 394.07 42.25 L 394.00 5.00 L 383.25 5.46 C 369.56 6.04 323.95 6.82 261.50 7.55 C 234.55 7.86 188.65 8.53 159.50 9.05 C 130.35 9.56 83.66 9.98 55.75 9.99 L 5.00 10.00 L 4.92 12.25 C 4.70 18.12 5.54 98.42 6.48 161.50 C 6.65 173.05 6.84 190.48 6.90 200.24 L 7.00 217.98 L 41.25 217.52 C 60.09 217.26 92.38 216.79 113.00 216.48 Z M 87.81 214.32 C 88.53 214.03 89.40 214.06 89.73 214.40 C 90.06 214.73 89.47 214.96 88.42 214.92 C 87.25 214.87 87.01 214.64 87.81 214.32 Z M 108.81 213.32 C 109.53 213.03 110.40 213.06 110.73 213.40 C 111.06 213.73 110.47 213.96 109.42 213.92 C 108.25 213.87 108.01 213.64 108.81 213.32 Z M 12.56 211.20 C 12.27 210.26 11.98 209.05 11.93 208.50 C 11.87 207.95 11.36 206.94 10.79 206.25 C 10.16 205.48 10.13 205.00 10.73 205.00 C 12.04 205.00 12.32 187.31 11.01 186.51 C 10.46 186.16 10.00 184.98 10.00 183.88 C 10.00 182.78 10.45 182.16 11.00 182.50 C 11.66 182.91 11.65 182.22 10.99 180.47 C 10.44 179.02 10.31 177.31 10.70 176.67 C 11.57 175.27 11.74 167.00 10.91 167.00 C 10.58 167.00 10.45 163.31 10.61 158.79 C 10.77 154.22 10.45 150.04 9.88 149.36 C 9.23 148.58 9.20 147.47 9.79 146.31 C 11.24 143.49 11.20 136.00 9.74 135.98 C 8.81 135.97 8.83 135.76 9.82 135.13 C 10.81 134.50 11.02 132.10 10.65 125.40 L 10.17 116.50 L 30.83 116.42 C 42.20 116.38 62.50 116.28 75.94 116.20 C 89.39 116.12 100.61 116.28 100.89 116.56 C 101.17 116.83 101.54 138.20 101.72 164.03 L 102.04 211.00 L 89.77 211.02 C 69.29 211.05 15.58 212.12 14.30 212.52 C 13.64 212.73 12.86 212.13 12.56 211.20 Z M 107.49 207.03 C 107.89 204.67 107.72 202.95 107.05 202.53 C 106.46 202.16 106.28 201.36 106.66 200.74 C 107.04 200.13 107.25 192.62 107.12 184.06 C 107.00 175.50 106.80 158.15 106.70 145.50 C 106.54 127.72 106.22 122.56 105.25 122.75 C 103.48 123.10 103.69 121.33 105.50 120.64 C 107.79 119.76 107.32 117.76 105.00 118.50 C 103.90 118.85 103.00 118.68 103.00 118.13 C 103.00 116.46 109.68 116.11 154.00 115.50 L 196.50 114.91 L 196.66 140.21 C 197.02 195.69 197.04 209.29 196.78 209.52 C 196.63 209.65 176.33 210.00 151.67 210.31 L 106.85 210.86 L 107.49 207.03 Z M 202.84 207.85 C 202.75 206.56 202.59 202.35 202.49 198.50 C 202.38 194.65 202.17 191.05 202.03 190.50 C 201.88 189.95 201.82 189.28 201.90 189.00 C 202.05 188.46 202.12 159.62 202.05 133.25 C 202.00 117.19 201.97 117.00 199.80 117.00 C 198.49 117.00 197.98 116.65 198.55 116.13 C 199.07 115.65 220.43 114.99 246.00 114.68 L 292.50 114.10 L 292.70 161.02 C 292.80 186.83 292.56 208.15 292.16 208.40 C 291.75 208.65 271.53 209.16 247.21 209.53 L 203.00 210.20 L 202.84 207.85 Z M 298.57 208.12 C 298.28 207.65 298.08 197.87 298.13 186.38 C 298.17 174.90 298.12 154.10 298.02 140.17 C 297.91 126.24 298.09 114.57 298.42 114.25 C 298.94 113.73 338.34 112.90 376.83 112.60 L 389.16 112.50 L 389.56 148.00 C 389.77 167.53 390.00 188.60 390.07 194.83 C 390.13 201.06 389.98 206.36 389.73 206.60 C 389.49 206.85 377.86 207.26 363.89 207.52 C 349.93 207.78 329.64 208.22 318.80 208.49 C 307.97 208.75 298.86 208.59 298.57 208.12 Z M 10.08 191.42 C 10.13 190.25 10.36 190.01 10.68 190.81 C 10.97 191.53 10.94 192.40 10.60 192.73 C 10.27 193.06 10.04 192.47 10.08 191.42 Z M 198.50 142.00 C 198.16 141.45 198.36 141.00 198.94 141.00 C 199.52 141.00 200.00 141.45 200.00 142.00 C 200.00 142.55 199.80 143.00 199.56 143.00 C 199.32 143.00 198.84 142.55 198.50 142.00 Z M 199.16 136.00 C 199.16 134.62 199.38 134.06 199.66 134.75 C 199.94 135.44 199.94 136.56 199.66 137.25 C 199.38 137.94 199.16 137.38 199.16 136.00 Z M 198.71 120.00 C 198.42 118.90 198.60 118.00 199.09 118.00 C 199.59 118.00 200.00 118.90 200.00 120.00 C 200.00 121.10 199.83 122.00 199.62 122.00 C 199.41 122.00 199.00 121.10 198.71 120.00 Z M 13.00 111.31 C 11.44 110.93 9.00 106.61 9.00 104.24 C 9.00 103.47 9.50 103.19 10.16 103.60 C 10.97 104.10 11.12 103.59 10.67 101.91 C 10.32 100.58 10.02 98.91 10.01 98.19 C 10.01 97.47 9.55 97.16 9.00 97.50 C 8.45 97.84 8.00 97.64 8.00 97.06 C 8.00 96.48 8.68 96.00 9.50 96.00 C 11.33 96.00 11.41 94.66 9.75 91.86 C 8.75 90.16 8.75 89.65 9.75 89.29 C 10.44 89.04 11.00 88.21 11.00 87.45 C 11.00 86.63 10.39 86.30 9.50 86.64 C 7.58 87.37 7.59 86.04 9.50 83.30 C 10.73 81.55 10.79 80.62 9.83 78.33 C 8.35 74.79 7.81 67.24 8.98 66.52 C 9.48 66.21 9.47 64.63 8.96 62.85 C 7.98 59.45 8.40 30.78 9.45 29.08 C 9.80 28.51 9.68 27.24 9.18 26.27 C 8.68 25.30 8.46 23.96 8.70 23.31 C 8.93 22.65 8.69 20.55 8.16 18.63 C 7.36 15.73 7.48 15.03 8.85 14.50 C 9.76 14.15 18.82 13.95 29.00 14.05 C 39.17 14.15 56.05 14.23 66.50 14.22 C 78.72 14.21 84.79 14.53 83.50 15.12 C 82.03 15.79 82.30 15.85 84.50 15.34 C 89.23 14.26 97.53 14.09 99.08 15.05 C 100.27 15.78 100.56 23.79 100.85 63.46 L 101.20 111.00 L 62.85 111.08 C 41.76 111.12 22.25 111.28 19.50 111.42 C 16.75 111.56 13.82 111.51 13.00 111.31 Z M 107.72 109.35 C 107.40 108.84 107.04 98.99 106.92 87.46 L 106.69 66.50 L 129.60 65.88 C 142.19 65.54 162.06 65.20 173.75 65.13 L 195.00 65.00 L 195.00 87.00 L 195.00 109.00 L 176.25 109.01 C 165.94 109.01 146.43 109.30 132.90 109.66 C 117.93 110.04 108.07 109.92 107.72 109.35 Z M 201.00 87.27 L 201.00 65.23 L 211.25 64.75 C 216.89 64.49 237.36 64.20 256.75 64.10 L 292.00 63.93 L 292.00 85.97 L 292.00 108.00 L 260.16 108.00 C 242.65 108.00 222.17 108.29 214.66 108.66 L 201.00 109.31 L 201.00 87.27 Z M 298.00 59.89 L 298.00 11.50 L 301.25 11.28 C 303.65 11.11 304.11 11.31 303.00 12.01 C 301.73 12.83 301.77 12.97 303.28 12.98 C 304.26 12.99 305.32 12.32 305.64 11.50 C 306.33 9.69 308.10 9.48 307.75 11.25 C 307.56 12.20 309.63 12.39 316.50 12.02 C 321.45 11.76 330.00 11.55 335.50 11.55 C 341.00 11.54 345.80 11.11 346.17 10.58 C 346.59 10.00 347.43 10.11 348.34 10.87 C 349.73 12.02 356.88 12.12 358.00 11.00 C 358.27 10.72 365.25 10.63 373.50 10.80 L 388.50 11.10 L 388.72 59.05 L 388.94 107.00 L 375.72 107.02 C 368.45 107.03 347.99 107.32 330.25 107.66 L 298.00 108.29 L 298.00 59.89 Z M 242.67 97.38 C 244.20 95.04 244.23 94.50 242.91 92.14 C 241.07 88.88 238.45 88.29 235.93 90.57 C 233.77 92.52 233.37 96.97 235.20 98.80 C 237.25 100.85 240.84 100.17 242.67 97.38 Z M 285.05 95.36 C 285.60 93.91 285.81 92.48 285.52 92.18 C 285.22 91.89 282.23 90.49 278.88 89.07 C 273.57 86.83 272.62 86.01 271.49 82.68 C 269.12 75.73 264.04 72.00 256.95 72.00 C 251.28 72.00 246.00 77.03 246.00 82.45 C 246.00 93.48 258.12 100.67 267.44 95.17 L 270.96 93.09 L 276.23 95.49 C 282.99 98.56 283.84 98.55 285.05 95.36 Z M 254.92 88.08 C 251.53 84.68 251.22 82.02 253.93 79.56 C 256.49 77.25 261.28 78.28 263.99 81.71 C 266.41 84.79 266.55 87.31 264.43 89.43 C 261.99 91.87 258.17 91.32 254.92 88.08 Z M 8.08 79.42 C 8.13 78.25 8.36 78.01 8.68 78.81 C 8.97 79.53 8.94 80.40 8.60 80.73 C 8.27 81.06 8.04 80.47 8.08 79.42 Z M 106.66 52.49 C 105.66 40.65 105.86 17.20 106.97 16.52 C 107.51 16.19 127.53 15.64 151.47 15.30 L 195.00 14.68 L 195.00 36.78 L 195.00 58.88 L 161.25 58.94 C 142.69 58.98 122.96 59.29 117.41 59.64 L 107.32 60.27 L 106.66 52.49 Z M 201.42 58.08 C 201.19 57.85 201.00 47.85 201.00 35.85 L 201.00 14.04 L 245.04 13.77 C 269.26 13.62 289.71 13.72 290.47 14.00 C 292.35 14.67 292.54 56.88 290.68 57.53 C 289.11 58.08 201.95 58.62 201.42 58.08 Z M 146.39 50.04 C 147.77 49.52 149.60 47.74 150.45 46.09 C 156.43 34.53 142.59 21.32 131.40 27.92 L 127.72 30.10 L 121.24 27.51 C 117.67 26.08 114.59 25.08 114.39 25.28 C 114.19 25.48 113.75 26.99 113.42 28.64 C 112.85 31.52 113.06 31.72 119.27 34.36 C 125.07 36.83 125.83 37.49 126.88 41.00 C 128.55 46.57 134.21 51.00 139.66 51.00 C 141.98 51.00 145.00 50.57 146.39 50.04 Z M 134.54 41.86 C 131.39 38.12 131.57 35.09 135.06 33.14 C 137.25 31.91 138.02 31.90 140.52 33.10 C 147.51 36.46 147.57 45.00 140.61 45.00 C 137.99 45.00 136.55 44.26 134.54 41.86 Z" fill="none" stroke="rgba(255,255,255,0.92)" stroke-width="1.5" stroke-linejoin="round" fill-rule="evenodd"/>
</svg>
