<svg xmlns="http://www.w3.org/2000/svg" viewBox="0 0 400 220" width="400" height="220">
  <path d="M 0.00 110.00 L 0.00 0.00 L 200.00 0.00 L 400.00 0.00 L 400.00 110.00 L 400.00 220.00 L 200.00 220.00 L 0.00 220.00 L 0.00 110.00 Z M 93.50 214.47 C 103.95 214.21 141.75 213.76 177.50 213.46 C 252.79 212.83 333.02 211.77 387.31 210.68 L 396.13 210.50 L 395.97 184.50 C 395.89 170.20 395.68 151.75 395.51 143.50 C 395.34 135.25 394.88 100.83 394.48 67.00 C 394.09 33.17 393.59 5.31 393.38 5.07 C 392.82 4.47 335.72 5.26 291.50 6.49 C 266.48 7.18 218.43 7.92 159.50 8.51 C 132.00 8.79 102.53 9.23 94.00 9.50 C 85.47 9.76 62.08 10.25 42.00 10.58 C 21.92 10.92 5.30 11.38 5.05 11.62 C 4.49 12.18 4.54 21.13 5.40 76.50 C 5.79 101.25 6.29 133.82 6.51 148.87 C 6.73 163.92 7.15 176.48 7.45 176.78 C 7.74 177.07 7.65 177.81 7.24 178.41 C 6.83 179.01 6.63 187.74 6.79 197.81 L 7.09 216.12 L 40.79 215.53 C 59.33 215.20 83.05 214.73 93.50 214.47 Z M 11.34 207.58 C 10.47 205.62 10.46 204.24 11.33 201.95 C 12.26 199.46 12.20 198.72 10.99 197.88 C 9.87 197.10 9.81 196.72 10.75 196.34 C 12.16 195.77 12.48 192.00 11.11 192.00 C 9.99 192.00 10.20 188.72 11.38 187.86 C 11.86 187.51 11.90 186.65 11.47 185.95 C 10.35 184.13 10.06 178.92 11.12 179.57 C 11.60 179.87 12.00 179.64 12.00 179.06 C 12.00 178.48 11.52 178.00 10.94 178.00 C 10.36 178.00 10.16 177.55 10.50 177.00 C 10.84 176.45 10.67 176.00 10.12 176.00 C 9.57 176.00 9.19 175.10 9.27 174.00 C 9.36 172.90 9.68 172.00 9.99 172.00 C 10.77 172.00 10.41 163.99 9.50 161.24 C 8.88 159.34 9.05 159.08 10.53 159.65 C 12.19 160.29 12.18 160.11 10.40 157.10 C 8.62 154.07 8.61 153.80 10.21 152.90 C 11.65 152.10 11.74 151.53 10.77 149.40 C 9.84 147.35 9.89 146.68 11.06 145.94 C 11.85 145.44 11.99 145.02 11.37 145.02 C 9.94 145.00 8.88 141.19 10.09 140.44 C 11.54 139.55 11.14 134.28 9.50 132.64 C 7.58 130.73 7.58 129.90 9.50 130.64 C 10.73 131.11 11.00 130.17 11.00 125.50 C 11.00 120.83 10.73 119.89 9.50 120.36 C 7.69 121.06 7.62 120.08 9.33 117.84 C 10.42 116.41 13.15 116.14 28.55 115.95 C 38.42 115.82 52.72 115.64 60.33 115.55 C 71.11 115.41 74.35 115.06 75.06 113.94 C 75.69 112.94 75.97 112.88 75.98 113.75 C 76.00 114.68 79.06 115.00 87.94 115.00 C 94.51 115.00 100.10 115.36 100.37 115.80 C 100.64 116.23 101.16 137.16 101.52 162.30 L 102.18 208.00 L 100.09 208.18 C 94.52 208.64 89.78 208.77 52.50 209.44 L 12.50 210.17 L 11.34 207.58 Z M 107.93 208.61 C 107.55 208.04 106.70 178.40 107.01 176.50 C 107.10 175.95 107.11 173.25 107.04 170.50 C 106.97 167.75 106.75 154.14 106.55 140.25 L 106.19 115.00 L 111.84 114.84 C 143.97 113.92 194.92 113.59 195.62 114.29 C 196.27 114.93 197.73 200.73 197.17 205.01 L 196.84 207.53 L 158.17 207.85 C 136.90 208.03 116.91 208.29 113.75 208.45 C 110.59 208.60 107.97 208.67 107.93 208.61 Z M 203.00 204.74 C 203.00 202.55 202.62 201.93 201.53 202.35 C 200.72 202.66 199.83 202.53 199.53 202.05 C 199.24 201.58 214.64 201.00 233.75 200.76 C 264.82 200.36 269.60 200.08 278.93 198.10 C 284.67 196.87 290.16 195.45 291.12 194.94 C 293.77 193.52 293.79 193.57 293.73 200.02 C 293.68 205.29 293.42 206.10 291.59 206.49 C 290.44 206.74 270.04 207.11 246.25 207.32 L 203.00 207.70 L 203.00 204.74 Z M 298.80 198.59 C 298.52 192.04 298.78 190.12 300.18 188.49 C 303.62 184.47 305.92 177.24 307.49 165.49 C 311.35 136.55 316.12 126.71 330.31 118.40 C 337.72 114.05 353.43 110.87 369.00 110.56 C 374.77 110.44 380.36 109.97 381.41 109.51 C 382.82 108.89 383.13 108.99 382.57 109.88 C 382.01 110.79 382.82 111.03 385.62 110.80 L 389.42 110.50 L 389.67 118.50 C 390.35 139.74 390.62 204.12 390.03 204.48 C 389.66 204.71 373.86 205.18 354.93 205.53 C 335.99 205.87 315.69 206.27 309.82 206.42 L 299.14 206.68 L 298.80 198.59 Z M 199.00 205.00 C 199.00 204.45 199.45 204.00 200.00 204.00 C 200.55 204.00 201.00 204.45 201.00 205.00 C 201.00 205.55 200.55 206.00 200.00 206.00 C 199.45 206.00 199.00 205.55 199.00 205.00 Z M 296.08 204.42 C 296.13 203.25 296.36 203.01 296.68 203.81 C 296.97 204.53 296.94 205.40 296.60 205.73 C 296.27 206.06 296.04 205.47 296.08 204.42 Z M 353.00 194.00 L 353.00 187.00 L 350.00 187.00 L 347.00 187.00 L 347.00 194.00 L 347.00 201.00 L 350.00 201.00 L 353.00 201.00 L 353.00 194.00 Z M 295.79 196.00 C 295.51 194.15 295.79 193.00 296.50 193.00 C 297.21 193.00 297.49 194.15 297.21 196.00 C 296.97 197.65 296.65 199.00 296.50 199.00 C 296.35 199.00 296.03 197.65 295.79 196.00 Z M 203.46 193.93 C 202.39 192.21 203.17 192.04 212.82 191.91 L 222.00 191.79 L 222.00 188.39 L 222.00 185.00 L 212.50 185.00 L 203.00 185.00 L 203.00 182.04 L 203.00 179.08 L 212.20 178.79 L 221.40 178.50 L 221.40 175.50 L 221.40 172.50 L 212.20 172.21 L 203.00 171.92 L 203.00 168.96 L 203.00 166.00 L 211.83 166.00 C 216.69 166.00 220.90 165.76 221.19 165.48 C 221.48 165.19 221.50 163.84 221.24 162.48 C 220.78 160.06 220.54 160.00 211.88 160.00 C 203.72 160.00 202.99 159.84 202.85 158.00 C 202.77 156.90 202.66 155.44 202.60 154.75 C 202.53 153.87 205.15 153.35 211.50 153.00 C 220.43 152.50 220.50 152.48 220.82 149.75 L 221.13 147.00 L 212.18 147.00 C 203.75 147.00 203.20 146.87 202.63 144.75 C 201.41 140.20 201.61 140.09 211.25 139.79 L 220.50 139.50 L 220.82 136.75 L 221.13 134.00 L 211.57 134.00 L 202.00 134.00 L 202.00 130.54 L 202.00 127.08 L 211.25 126.79 L 220.50 126.50 L 220.82 123.75 L 221.13 121.00 L 211.57 121.00 L 202.00 121.00 L 202.00 117.50 L 202.00 114.00 L 211.50 114.00 L 221.00 114.00 L 221.00 111.00 L 221.00 108.00 L 211.50 108.00 L 202.00 108.00 L 202.00 104.50 L 202.00 101.00 L 211.46 101.00 L 220.92 101.00 L 220.71 98.00 L 220.50 95.00 L 211.25 95.00 L 202.00 95.00 L 202.00 91.50 L 202.00 88.00 L 211.00 88.00 L 220.00 88.00 L 220.00 85.00 L 220.00 82.00 L 211.00 82.00 L 202.00 82.00 L 202.00 78.50 L 202.00 75.00 L 211.00 75.00 L 220.00 75.00 L 220.00 72.00 L 220.00 69.00 L 211.00 69.00 L 202.00 69.00 L 202.00 65.50 L 202.00 62.00 L 211.00 62.00 L 220.00 62.00 L 220.00 59.00 L 220.00 56.00 L 211.00 56.00 L 202.00 56.00 L 202.00 52.50 L 202.00 49.00 L 211.00 49.00 L 220.00 49.00 L 220.00 46.00 L 220.00 43.00 L 211.06 43.00 C 206.14 43.00 201.85 42.57 201.53 42.05 C 201.20 41.52 201.23 39.95 201.58 38.55 C 202.20 36.06 202.42 36.00 211.11 36.00 L 220.00 36.00 L 220.00 33.04 L 220.00 30.08 L 210.75 29.79 C 202.26 29.52 201.50 29.34 201.50 27.50 C 201.50 25.65 202.26 25.48 211.75 25.22 L 222.00 24.93 L 222.01 47.22 C 222.01 59.47 222.24 82.78 222.52 99.00 C 223.89 179.45 223.86 193.84 222.31 194.43 C 219.65 195.45 204.14 195.04 203.46 193.93 Z M 229.83 189.75 C 229.74 186.86 229.60 182.93 229.52 181.00 C 229.44 179.07 229.01 143.19 228.57 101.25 L 227.75 25.00 L 234.13 24.97 C 237.63 24.95 258.05 24.52 279.50 24.00 C 300.95 23.48 327.64 23.01 338.82 22.96 C 357.74 22.88 359.43 23.02 363.32 25.02 C 377.69 32.41 385.45 50.00 385.35 75.01 C 385.30 89.01 384.34 92.12 378.75 96.37 C 373.90 100.07 366.12 102.63 349.65 105.97 C 332.42 109.46 325.68 112.54 317.60 120.62 C 309.06 129.16 304.28 141.35 302.53 159.00 C 300.84 176.16 297.89 183.84 291.63 187.41 C 283.50 192.05 264.52 194.92 241.75 194.97 L 230.00 195.00 L 229.83 189.75 Z M 331.85 187.94 C 336.07 183.04 336.15 182.83 334.43 180.92 C 333.45 179.84 332.37 179.07 332.03 179.23 C 331.70 179.38 329.50 181.60 327.16 184.17 C 323.32 188.37 323.02 189.06 324.18 190.92 C 324.90 192.07 325.94 193.00 326.49 193.00 C 327.05 193.00 329.46 190.72 331.85 187.94 Z M 378.36 188.15 C 379.95 186.40 379.78 186.06 375.06 181.65 C 372.32 179.09 369.72 177.00 369.28 177.00 C 368.84 177.00 367.86 177.99 367.10 179.20 C 365.82 181.26 366.05 181.69 370.61 185.68 C 373.30 188.04 375.77 189.97 376.10 189.98 C 376.42 189.99 377.44 189.17 378.36 188.15 Z M 393.08 184.42 C 393.13 183.25 393.36 183.01 393.68 183.81 C 393.97 184.53 393.94 185.40 393.60 185.73 C 393.27 186.06 393.04 185.47 393.08 184.42 Z M 356.15 180.97 C 358.27 180.39 361.29 178.31 363.35 176.04 C 376.91 161.03 362.96 138.20 344.06 144.48 C 328.35 149.70 326.55 172.27 341.26 179.80 C 345.90 182.18 350.52 182.54 356.15 180.97 Z M 346.34 175.34 C 342.88 174.61 338.17 169.42 337.44 165.55 C 336.52 160.62 337.53 157.49 341.40 153.26 C 344.41 149.98 345.25 149.62 349.85 149.62 C 353.89 149.62 355.51 150.13 357.58 152.06 C 363.18 157.30 364.41 163.18 361.04 168.70 C 357.83 173.97 352.11 176.56 346.34 175.34 Z M 392.71 169.25 C 392.42 167.74 392.58 165.82 393.06 165.00 C 393.67 163.97 393.95 164.83 393.97 167.75 C 394.00 172.62 393.47 173.25 392.71 169.25 Z M 326.00 162.95 L 326.00 159.91 L 319.25 160.20 C 312.71 160.49 312.49 160.59 312.18 163.25 L 311.87 166.00 L 318.93 166.00 L 326.00 166.00 L 326.00 162.95 Z M 387.63 162.75 C 387.30 161.51 387.02 160.16 387.01 159.75 C 387.01 159.34 384.06 159.00 380.47 159.00 C 373.73 159.00 372.04 160.07 373.36 163.50 C 373.80 164.64 375.65 165.00 381.09 165.00 C 388.01 165.00 388.21 164.93 387.63 162.75 Z M 392.00 153.00 C 392.00 152.45 392.48 152.00 393.06 152.00 C 393.64 152.00 393.84 152.45 393.50 153.00 C 393.16 153.55 392.68 154.00 392.44 154.00 C 392.20 154.00 392.00 153.55 392.00 153.00 Z M 333.05 145.91 C 333.66 144.77 334.01 143.72 333.83 143.58 C 333.65 143.45 331.36 141.41 328.75 139.05 C 324.80 135.47 323.75 134.96 322.50 136.00 C 320.12 137.97 320.70 139.64 325.25 143.94 C 330.09 148.51 331.47 148.86 333.05 145.91 Z M 372.94 140.60 L 377.15 135.71 L 375.07 133.63 L 373.00 131.56 L 368.54 136.53 C 363.51 142.14 363.30 142.75 365.75 144.61 C 368.02 146.33 368.00 146.34 372.94 140.60 Z M 8.50 137.00 C 8.84 136.45 9.32 136.00 9.56 136.00 C 9.80 136.00 10.00 136.45 10.00 137.00 C 10.00 137.55 9.52 138.00 8.94 138.00 C 8.36 138.00 8.16 137.55 8.50 137.00 Z M 352.25 136.15 C 352.52 135.13 352.51 131.98 352.24 129.15 C 351.80 124.54 351.50 124.00 349.37 124.00 C 347.10 124.00 347.00 124.30 347.00 131.00 C 347.00 137.71 347.10 138.00 349.38 138.00 C 350.86 138.00 351.95 137.30 352.25 136.15 Z M 195.08 111.42 C 195.13 110.25 195.36 110.01 195.68 110.81 C 195.97 111.53 195.94 112.40 195.60 112.73 C 195.27 113.06 195.04 112.47 195.08 111.42 Z M 188.50 111.00 C 188.15 110.43 188.99 110.00 190.44 110.00 C 191.85 110.00 193.00 110.45 193.00 111.00 C 193.00 111.55 192.13 112.00 191.06 112.00 C 189.99 112.00 188.84 111.55 188.50 111.00 Z M 12.25 110.35 C 11.56 110.07 11.00 109.18 11.00 108.39 C 11.00 107.59 10.38 106.70 9.63 106.41 C 8.61 106.02 8.21 103.37 8.07 96.28 C 7.91 87.69 8.06 86.80 9.45 87.96 C 11.41 89.58 11.44 88.60 9.51 85.66 C 8.41 83.98 8.00 80.19 7.93 71.23 C 7.88 64.54 8.13 58.60 8.48 58.03 C 8.83 57.47 8.80 56.49 8.41 55.86 C 7.29 54.04 6.93 21.84 8.04 22.52 C 8.57 22.85 9.00 22.39 9.00 21.50 C 9.00 20.61 8.52 20.18 7.93 20.54 C 7.23 20.98 6.98 19.89 7.18 17.35 C 7.47 13.92 7.77 13.53 10.00 13.73 C 11.38 13.86 18.12 14.09 25.00 14.23 C 31.88 14.38 38.11 14.90 38.86 15.38 C 39.64 15.88 40.50 15.88 40.86 15.38 C 41.21 14.90 47.58 14.48 55.00 14.45 C 62.42 14.42 69.58 14.01 70.91 13.54 C 72.64 12.92 73.11 13.01 72.60 13.84 C 72.13 14.60 72.68 14.97 74.19 14.92 C 75.46 14.88 75.93 14.61 75.24 14.34 C 72.66 13.29 74.99 12.48 79.54 12.85 C 82.64 13.09 83.79 13.51 82.89 14.07 C 81.94 14.66 82.28 14.87 84.01 14.78 C 85.38 14.71 87.02 14.26 87.65 13.78 C 88.29 13.30 89.98 13.21 91.40 13.57 C 93.00 13.96 94.00 13.80 94.00 13.14 C 94.00 12.55 94.71 12.34 95.58 12.67 C 96.86 13.16 96.91 13.44 95.83 14.12 C 94.92 14.70 95.36 14.97 97.25 14.98 L 100.00 15.00 L 100.01 28.25 C 100.02 35.54 100.13 56.75 100.26 75.40 L 100.50 109.30 L 82.50 109.60 C 72.60 109.77 53.02 110.12 39.00 110.39 C 24.98 110.66 12.94 110.64 12.25 110.35 Z M 368.00 109.12 C 368.00 108.12 370.16 107.60 373.75 107.73 C 374.44 107.76 375.00 107.38 375.00 106.89 C 375.00 106.40 375.48 106.00 376.06 106.00 C 376.64 106.00 376.86 106.41 376.55 106.91 C 376.24 107.42 376.55 108.06 377.24 108.34 C 377.93 108.61 377.15 108.88 375.50 108.93 C 373.85 108.99 371.49 109.30 370.25 109.63 C 368.90 109.99 368.00 109.79 368.00 109.12 Z M 105.89 93.37 C 105.83 84.64 105.87 76.44 105.97 75.15 C 106.08 73.84 105.22 71.92 104.02 70.80 C 102.84 69.70 102.16 68.51 102.52 68.15 C 102.87 67.79 103.80 68.38 104.58 69.44 C 105.92 71.27 106.00 71.20 106.00 68.26 C 106.00 66.55 105.44 64.55 104.75 63.82 C 104.06 63.09 103.41 60.25 103.29 57.50 C 103.17 54.75 103.32 53.06 103.62 53.75 C 104.83 56.53 105.67 54.70 105.46 49.75 C 105.17 43.12 105.24 43.29 103.70 45.40 C 102.54 46.98 102.40 46.78 102.40 43.63 C 102.40 40.92 102.85 40.02 104.30 39.79 C 106.13 39.51 106.12 39.40 104.10 36.84 C 101.67 33.77 101.46 32.85 103.33 33.57 C 104.26 33.93 104.67 33.18 104.67 31.09 C 104.67 29.44 104.29 28.32 103.83 28.60 C 103.38 28.89 103.00 28.42 103.00 27.56 C 103.00 26.70 103.44 26.00 103.98 26.00 C 104.52 26.00 104.91 23.75 104.85 21.00 C 104.79 18.06 104.28 15.99 103.62 15.98 C 102.96 15.98 103.05 15.62 103.84 15.12 C 104.57 14.66 105.13 13.99 105.09 13.64 C 104.85 11.87 105.11 11.63 105.91 12.89 C 106.59 13.96 107.45 14.04 109.78 13.23 C 111.92 12.48 113.10 12.50 113.89 13.29 C 114.70 14.10 115.32 14.08 116.20 13.20 C 117.65 11.75 120.37 11.59 119.50 13.00 C 119.16 13.55 119.58 14.00 120.44 14.00 C 121.30 14.00 122.00 13.55 122.00 13.00 C 122.00 12.45 122.67 12.00 123.50 12.00 C 124.33 12.00 125.00 12.45 125.00 13.00 C 125.00 13.55 126.24 13.99 127.75 13.98 C 129.90 13.97 130.17 13.76 129.00 12.99 C 127.96 12.32 129.66 12.09 134.50 12.26 C 138.35 12.39 141.83 12.95 142.23 13.50 C 142.69 14.12 142.98 14.02 142.98 13.25 C 142.99 12.56 143.70 12.00 144.56 12.00 C 145.42 12.00 145.84 12.45 145.50 13.00 C 145.16 13.55 145.77 14.00 146.86 14.00 C 147.94 14.00 148.98 13.55 149.17 13.00 C 149.39 12.33 150.66 12.33 152.99 13.00 C 157.34 14.25 161.90 14.25 158.00 13.00 C 155.63 12.24 155.67 12.19 158.75 12.10 C 160.54 12.04 162.00 12.45 162.00 13.00 C 162.00 13.55 163.24 13.97 164.75 13.93 C 167.21 13.87 167.29 13.76 165.50 12.97 C 163.54 12.09 171.60 12.53 176.75 13.58 C 177.99 13.83 179.00 13.55 179.00 12.96 C 179.00 12.37 179.45 12.16 179.99 12.50 C 180.54 12.83 184.25 13.23 188.24 13.39 L 195.50 13.66 L 195.81 60.83 L 196.13 108.00 L 178.81 108.03 C 169.29 108.05 149.01 108.33 133.75 108.65 L 106.00 109.25 L 105.89 93.37 Z M 382.00 108.00 C 380.72 107.17 380.75 107.03 382.25 107.02 C 383.21 107.01 384.00 107.45 384.00 108.00 C 384.00 109.22 383.89 109.22 382.00 108.00 Z M 103.60 104.40 C 103.24 103.47 103.18 102.49 103.45 102.21 C 103.73 101.94 104.24 102.47 104.60 103.40 C 104.96 104.33 105.02 105.31 104.75 105.59 C 104.47 105.86 103.96 105.33 103.60 104.40 Z M 379.00 104.35 C 380.38 103.38 383.40 100.66 385.72 98.31 L 389.94 94.02 L 389.72 99.50 L 389.50 104.98 L 385.50 105.01 C 383.30 105.02 380.38 105.27 379.00 105.56 L 376.50 106.10 L 379.00 104.35 Z M 10.93 96.25 C 10.88 91.55 10.60 90.11 10.00 91.50 C 8.56 94.86 8.99 103.00 10.61 103.00 C 10.82 103.00 10.97 99.96 10.93 96.25 Z M 103.08 99.42 C 103.13 98.25 103.36 98.01 103.68 98.81 C 103.97 99.53 103.94 100.40 103.60 100.73 C 103.27 101.06 103.04 100.47 103.08 99.42 Z M 391.00 89.00 C 391.00 87.90 391.41 87.00 391.91 87.00 C 392.40 87.00 392.58 87.90 392.29 89.00 C 392.00 90.10 391.59 91.00 391.38 91.00 C 391.17 91.00 391.00 90.10 391.00 89.00 Z M 103.23 83.00 C 103.23 81.08 103.44 80.29 103.69 81.25 C 103.94 82.21 103.94 83.79 103.69 84.75 C 103.44 85.71 103.23 84.92 103.23 83.00 Z M 11.00 80.88 C 11.00 80.33 10.55 80.16 10.00 80.50 C 9.45 80.84 9.00 81.57 9.00 82.12 C 9.00 82.67 9.45 82.84 10.00 82.50 C 10.55 82.16 11.00 81.43 11.00 80.88 Z M 392.30 77.00 C 392.30 73.97 392.49 72.74 392.72 74.25 C 392.95 75.76 392.95 78.24 392.72 79.75 C 392.49 81.26 392.30 80.03 392.30 77.00 Z M 103.08 74.42 C 103.13 73.25 103.36 73.01 103.68 73.81 C 103.97 74.53 103.94 75.40 103.60 75.73 C 103.27 76.06 103.04 75.47 103.08 74.42 Z M 391.08 64.42 C 391.13 63.25 391.36 63.01 391.68 63.81 C 391.97 64.53 391.94 65.40 391.60 65.73 C 391.27 66.06 391.04 65.47 391.08 64.42 Z M 391.23 57.00 C 391.23 55.08 391.44 54.29 391.69 55.25 C 391.94 56.21 391.94 57.79 391.69 58.75 C 391.44 59.71 391.23 58.92 391.23 57.00 Z M 386.94 45.25 C 383.09 33.37 375.24 23.73 366.04 19.60 C 359.03 16.45 356.93 16.32 321.04 16.86 L 297.59 17.21 L 297.54 14.37 L 297.50 11.53 L 314.50 11.32 C 348.61 10.89 354.00 10.68 354.00 9.85 C 354.00 9.38 354.70 9.00 355.56 9.00 C 356.42 9.00 356.84 9.45 356.50 10.00 C 355.63 11.41 358.63 11.24 361.04 9.75 C 362.67 8.74 363.22 8.75 363.86 9.79 C 364.47 10.76 365.34 10.82 367.40 10.04 C 370.71 8.78 372.30 8.71 371.59 9.85 C 371.03 10.76 381.44 10.47 382.95 9.53 C 383.45 9.22 384.12 9.38 384.43 9.89 C 384.75 10.40 385.79 10.61 386.75 10.36 C 388.37 9.93 388.50 11.35 388.57 29.45 C 388.60 40.20 388.52 49.00 388.39 49.00 C 388.26 49.00 387.61 47.31 386.94 45.25 Z M 102.08 37.42 C 102.13 36.25 102.36 36.01 102.68 36.81 C 102.97 37.53 102.94 38.40 102.60 38.73 C 102.27 39.06 102.04 38.47 102.08 37.42 Z M 10.00 36.44 C 10.00 35.58 9.54 35.16 8.98 35.51 C 8.42 35.86 8.23 36.56 8.54 37.07 C 9.40 38.46 10.00 38.20 10.00 36.44 Z M 197.00 17.94 C 197.00 17.36 197.45 17.16 198.00 17.50 C 198.55 17.84 199.00 18.32 199.00 18.56 C 199.00 18.80 198.55 19.00 198.00 19.00 C 197.45 19.00 197.00 18.52 197.00 17.94 Z M 200.66 16.83 C 199.84 13.66 200.79 12.80 204.35 13.50 C 206.70 13.97 207.12 13.86 206.00 13.08 C 205.18 12.50 204.95 12.02 205.50 12.00 C 206.05 11.98 205.82 11.53 205.00 11.00 C 203.92 10.30 204.91 10.03 208.50 10.03 C 212.28 10.03 213.13 10.29 212.00 11.08 C 210.87 11.87 211.11 11.95 213.00 11.37 C 216.15 10.42 240.50 10.99 240.50 12.02 C 240.50 12.14 243.52 12.33 247.21 12.46 C 250.91 12.59 253.73 12.37 253.48 11.97 C 253.24 11.58 255.84 11.42 259.27 11.63 C 268.83 12.20 269.36 12.22 271.50 12.04 C 272.60 11.94 277.22 11.92 281.77 11.98 C 286.33 12.04 290.44 11.84 290.92 11.55 C 291.41 11.25 291.80 12.51 291.80 14.34 L 291.80 17.68 L 265.65 18.34 C 251.27 18.70 230.89 19.00 220.37 19.00 C 201.56 19.00 201.22 18.96 200.66 16.83 Z M 390.00 14.94 C 390.00 14.36 390.45 14.16 391.00 14.50 C 391.55 14.84 392.00 15.32 392.00 15.56 C 392.00 15.80 391.55 16.00 391.00 16.00 C 390.45 16.00 390.00 15.52 390.00 14.94 Z M 47.51 12.98 C 47.86 12.42 48.56 12.23 49.07 12.54 C 50.46 13.40 50.20 14.00 48.44 14.00 C 47.58 14.00 47.16 13.54 47.51 12.98 Z M 60.50 13.00 C 63.23 11.83 64.00 11.83 64.00 13.00 C 64.00 13.55 62.76 13.97 61.25 13.93 C 58.81 13.87 58.73 13.76 60.50 13.00 Z M 198.00 12.97 C 198.00 12.44 198.68 12.00 199.50 12.00 C 200.32 12.00 201.00 12.18 201.00 12.39 C 201.00 12.61 200.32 13.05 199.50 13.36 C 198.68 13.68 198.00 13.50 198.00 12.97 Z M 199.75 10.34 C 200.44 10.06 201.56 10.06 202.25 10.34 C 202.94 10.62 202.38 10.84 201.00 10.84 C 199.62 10.84 199.06 10.62 199.75 10.34 Z" fill="none" stroke="rgba(255,255,255,0.92)" stroke-width="1.5" stroke-linejoin="round" fill-rule="evenodd"/>
</svg>
