<svg xmlns="http://www.w3.org/2000/svg" viewBox="0 0 100 100" width="100" height="100">
  <path d="M 0.00 50.00 L 0.00 0.00 L 50.00 0.00 L 100.00 0.00 L 100.00 50.00 L 100.00 100.00 L 50.00 100.00 L 0.00 100.00 L 0.00 50.00 Z M 48.00 95.00 C 48.00 94.45 47.80 94.00 47.56 94.00 C 47.32 94.00 46.84 94.45 46.50 95.00 C 46.16 95.55 46.36 96.00 46.94 96.00 C 47.52 96.00 48.00 95.55 48.00 95.00 Z M 57.23 93.04 C 77.43 92.95 94.14 92.57 94.37 92.19 C 94.59 91.81 95.07 71.81 95.42 47.75 L 96.07 4.00 L 93.03 4.00 L 90.00 4.00 L 89.98 44.25 C 89.98 66.39 89.58 85.11 89.11 85.86 C 88.20 87.29 68.73 87.93 24.25 87.98 L 4.00 88.00 L 4.00 90.79 L 4.00 93.57 L 12.25 93.38 C 16.79 93.27 37.03 93.12 57.23 93.04 Z M 60.81 76.37 C 68.15 74.23 76.84 65.89 79.32 58.57 C 81.39 52.50 81.42 42.84 79.40 37.50 C 78.56 35.30 77.41 31.95 76.84 30.07 C 75.50 25.62 73.48 22.40 69.07 17.67 C 63.89 12.10 58.71 9.76 50.38 9.22 C 41.06 8.61 34.63 10.73 28.17 16.54 C 17.92 25.76 15.70 39.11 21.84 54.59 C 23.61 59.04 26.06 64.04 27.28 65.70 C 35.03 76.21 47.60 80.21 60.81 76.37 Z M 43.03 70.69 C 41.12 70.08 37.45 67.54 34.87 65.04 C 24.29 54.80 24.85 39.28 36.15 29.60 C 42.83 23.89 51.84 22.41 60.23 25.65 C 65.52 27.69 69.40 31.17 72.77 36.90 C 77.38 44.72 75.97 56.15 69.44 63.89 C 63.65 70.76 52.36 73.66 43.03 70.69 Z M 12.39 60.12 C 14.00 58.34 13.93 58.12 11.05 55.70 L 8.02 53.15 L 10.64 48.10 C 15.76 38.22 15.55 27.62 10.04 18.76 L 7.05 13.94 L 9.52 11.79 C 12.34 9.34 12.70 6.82 10.49 4.99 C 9.23 3.95 8.55 4.19 6.49 6.42 C 3.16 10.01 3.00 18.19 6.15 23.52 C 9.00 28.37 8.95 38.40 6.03 44.43 C 3.29 50.11 3.35 56.68 6.17 59.69 C 8.81 62.49 10.16 62.59 12.39 60.12 Z M 58.25 53.89 C 61.76 50.16 61.82 46.13 58.41 42.08 C 56.26 39.51 55.10 39.00 51.50 39.00 C 47.90 39.00 46.74 39.51 44.59 42.08 C 40.35 47.11 41.63 54.09 47.24 56.48 C 51.48 58.29 54.85 57.50 58.25 53.89 Z M 48.36 49.50 C 47.41 47.02 48.78 45.00 51.41 45.00 C 54.36 45.00 55.36 46.30 54.50 49.01 C 53.74 51.39 49.23 51.75 48.36 49.50 Z M 25.00 31.85 C 25.00 30.95 26.46 28.04 28.25 25.37 C 34.69 15.73 47.39 12.24 58.56 17.03 C 63.90 19.31 64.12 20.47 58.94 18.98 C 47.87 15.81 33.64 20.75 27.39 29.94 C 25.97 32.03 25.00 32.81 25.00 31.85 Z" fill="none" stroke="rgba(255,255,255,0.92)" stroke-width="1.2" stroke-linejoin="round" fill-rule="evenodd"/>
</svg>
