<svg xmlns="http://www.w3.org/2000/svg" viewBox="0 0 100 100" width="100" height="100">
  <path d="M 0.00 50.00 L 0.00 0.00 L 50.00 0.00 L 100.00 0.00 L 100.00 50.00 L 100.00 100.00 L 50.00 100.00 L 0.00 100.00 L 0.00 50.00 Z M 89.25 95.18 C 95.66 94.75 96.00 94.61 96.00 92.23 L 96.00 89.74 L 54.75 90.36 C 32.06 90.70 12.38 91.24 11.00 91.56 C 9.07 92.01 8.85 91.91 10.07 91.12 C 11.33 90.30 11.57 88.51 11.28 81.80 C 11.08 77.24 10.97 72.83 11.03 72.00 C 11.18 69.87 11.24 23.25 11.11 12.75 C 11.00 4.11 10.97 4.00 8.50 4.00 L 6.00 4.00 L 6.10 50.06 L 6.20 96.13 L 44.35 95.87 C 65.33 95.73 85.54 95.42 89.25 95.18 Z M 96.00 77.79 C 96.00 74.79 95.89 74.68 94.34 76.24 C 92.96 77.61 92.90 78.17 93.96 79.45 C 95.76 81.62 96.00 81.43 96.00 77.79 Z M 66.79 77.14 C 72.27 74.30 78.19 68.21 80.22 63.32 C 86.13 49.09 86.32 48.40 86.35 41.00 C 86.37 35.09 85.87 32.45 83.98 28.54 C 76.92 13.93 60.62 7.36 45.54 13.05 C 38.12 15.85 30.92 22.89 28.48 29.72 C 27.55 32.35 25.90 36.67 24.83 39.32 C 22.30 45.59 22.21 54.32 24.60 61.14 C 26.93 67.75 34.95 76.09 41.19 78.38 C 47.56 80.71 61.15 80.06 66.79 77.14 Z M 48.50 74.36 C 46.06 73.79 39.06 70.34 37.00 68.70 C 28.57 61.97 26.16 46.54 32.15 37.73 C 36.86 30.82 45.49 26.00 53.17 26.00 C 61.58 26.00 70.98 32.19 74.92 40.33 C 77.37 45.39 77.70 54.38 75.63 59.35 C 73.71 63.94 68.36 69.78 64.09 71.94 C 60.33 73.85 51.91 75.16 48.50 74.36 Z M 95.92 53.25 L 95.83 37.50 L 93.70 42.00 C 90.95 47.82 90.79 57.65 93.33 64.25 C 94.34 66.86 95.35 69.00 95.58 69.00 C 95.81 69.00 95.96 61.91 95.92 53.25 Z M 9.23 60.00 C 9.23 58.08 9.44 57.29 9.69 58.25 C 9.94 59.21 9.94 60.79 9.69 61.75 C 9.44 62.71 9.23 61.92 9.23 60.00 Z M 58.80 57.51 C 65.76 51.66 62.01 41.00 53.00 41.00 C 46.26 41.00 41.87 47.05 43.98 53.44 C 46.21 60.20 53.30 62.14 58.80 57.51 Z M 49.97 51.94 C 49.14 50.39 49.17 49.50 50.09 48.39 C 51.95 46.15 55.44 47.07 55.84 49.89 C 56.41 53.93 51.88 55.51 49.97 51.94 Z M 74.54 29.04 C 67.80 22.14 56.31 18.72 47.03 20.86 C 40.92 22.26 40.72 21.46 46.52 18.89 C 57.50 14.03 72.25 18.98 77.66 29.34 C 79.86 33.55 78.84 33.45 74.54 29.04 Z M 95.60 26.27 C 95.30 25.96 94.35 26.29 93.50 27.00 C 92.11 28.16 92.13 28.49 93.72 30.26 C 95.48 32.21 95.50 32.20 95.83 29.53 C 96.00 28.04 95.90 26.57 95.60 26.27 Z" fill="none" stroke="rgba(255,255,255,0.92)" stroke-width="1.2" stroke-linejoin="round" fill-rule="evenodd"/>
</svg>
