<svg xmlns="http://www.w3.org/2000/svg" viewBox="0 0 100 100" width="100" height="100">
  <path d="M 0.00 50.00 L 0.00 0.00 L 50.00 0.00 L 100.00 0.00 L 100.00 50.00 L 100.00 100.00 L 50.00 100.00 L 0.00 100.00 L 0.00 50.00 Z M 80.35 93.84 C 82.08 92.65 84.96 90.32 86.74 88.65 L 89.99 85.62 L 89.55 90.81 C 89.12 95.98 89.13 96.00 92.03 96.00 L 94.95 96.00 L 94.49 71.25 C 94.23 57.64 94.02 36.93 94.01 25.23 L 94.00 3.95 L 60.25 4.56 C 30.46 5.11 11.25 5.58 5.75 5.90 C 4.70 5.96 4.00 6.80 4.00 8.00 C 4.00 10.36 3.33 10.30 24.00 9.98 C 32.53 9.85 42.76 9.78 46.75 9.82 C 50.74 9.86 54.00 9.46 54.00 8.94 C 54.00 8.42 54.70 8.00 55.56 8.00 C 56.42 8.00 56.84 8.45 56.50 9.00 C 56.16 9.55 56.78 10.00 57.88 10.00 C 58.98 10.00 60.16 9.55 60.50 9.00 C 60.84 8.45 62.02 8.00 63.12 8.00 C 64.33 8.00 64.85 8.44 64.43 9.11 C 63.98 9.84 64.46 10.01 65.87 9.61 C 67.04 9.27 68.96 8.73 70.13 8.39 C 71.37 8.04 72.00 8.18 71.66 8.74 C 71.04 9.75 81.30 9.55 82.95 8.53 C 83.45 8.22 84.12 8.38 84.43 8.89 C 84.75 9.40 85.79 9.61 86.75 9.36 C 88.37 8.93 88.51 10.29 88.58 27.14 C 88.63 39.94 88.36 44.66 87.68 42.95 C 82.88 30.91 75.09 21.63 66.59 17.83 C 62.16 15.85 59.48 15.50 46.00 15.17 C 37.47 14.97 24.54 15.11 17.25 15.50 C 4.08 16.20 4.00 16.22 4.00 18.63 L 4.00 21.06 L 31.58 20.95 L 59.16 20.84 L 64.49 23.45 C 78.02 30.07 85.29 45.62 85.31 68.00 C 85.33 83.91 83.94 86.28 71.78 91.10 C 68.88 92.25 63.58 93.78 60.00 94.50 L 53.50 95.81 L 65.35 95.91 C 75.93 95.99 77.53 95.77 80.35 93.84 Z M 85.25 95.34 C 84.56 95.06 83.44 95.06 82.75 95.34 C 82.06 95.62 82.62 95.84 84.00 95.84 C 85.38 95.84 85.94 95.62 85.25 95.34 Z M 91.50 92.00 C 91.84 91.45 92.32 91.00 92.56 91.00 C 92.80 91.00 93.00 91.45 93.00 92.00 C 93.00 92.55 92.52 93.00 91.94 93.00 C 91.36 93.00 91.16 92.55 91.50 92.00 Z M 91.16 81.00 C 91.16 79.62 91.38 79.06 91.66 79.75 C 91.94 80.44 91.94 81.56 91.66 82.25 C 91.38 82.94 91.16 82.38 91.16 81.00 Z M 92.30 70.00 C 92.30 66.97 92.49 65.74 92.72 67.25 C 92.95 68.76 92.95 71.24 92.72 72.75 C 92.49 74.26 92.30 73.03 92.30 70.00 Z M 91.08 58.42 C 91.13 57.25 91.36 57.01 91.68 57.81 C 91.97 58.53 91.94 59.40 91.60 59.73 C 91.27 60.06 91.04 59.47 91.08 58.42 Z M 91.23 52.00 C 91.23 50.08 91.44 49.29 91.69 50.25 C 91.94 51.21 91.94 52.79 91.69 53.75 C 91.44 54.71 91.23 53.92 91.23 52.00 Z M 50.50 8.00 C 50.84 7.45 51.32 7.00 51.56 7.00 C 51.80 7.00 52.00 7.45 52.00 8.00 C 52.00 8.55 51.52 9.00 50.94 9.00 C 50.36 9.00 50.16 8.55 50.50 8.00 Z M 34.75 7.34 C 35.44 7.06 36.56 7.06 37.25 7.34 C 37.94 7.62 37.38 7.84 36.00 7.84 C 34.62 7.84 34.06 7.62 34.75 7.34 Z" fill="none" stroke="rgba(255,255,255,0.92)" stroke-width="1.2" stroke-linejoin="round" fill-rule="evenodd"/>
</svg>
