<svg xmlns="http://www.w3.org/2000/svg" viewBox="0 0 382 400" width="382" height="400">
  <path d="M 0.00 200.00 L 0.00 0.00 L 191.00 0.00 L 382.00 0.00 L 382.00 200.01 L 382.00 400.03 L 349.25 399.76 L 316.50 399.50 L 316.19 395.75 C 316.02 393.69 315.53 392.00 315.10 392.00 C 314.67 392.00 313.46 393.79 312.41 395.99 L 310.50 399.98 L 155.25 399.99 L 0.00 400.00 L 0.00 200.00 Z M 126.50 393.50 C 150.15 393.26 181.20 392.85 195.50 392.60 C 209.80 392.34 237.93 391.84 258.00 391.48 C 278.07 391.12 310.25 390.69 329.50 390.52 C 348.75 390.35 366.84 390.16 369.70 390.11 C 374.76 390.00 374.93 389.91 375.50 386.75 C 376.10 383.43 376.74 57.28 376.21 24.23 L 375.91 5.97 L 294.71 6.50 C 250.04 6.80 181.10 7.24 141.50 7.48 C 64.79 7.96 11.90 8.77 8.30 9.54 L 6.10 10.01 L 6.42 45.26 C 6.59 64.64 6.85 80.95 6.99 81.50 C 7.12 82.05 7.16 82.95 7.08 83.50 C 6.84 84.97 7.01 151.08 7.44 228.50 C 7.65 265.90 7.87 318.66 7.91 345.74 L 8.00 394.98 L 45.75 394.46 C 66.51 394.18 102.85 393.75 126.50 393.50 Z M 11.00 388.98 C 11.00 388.57 11.87 388.01 12.93 387.73 C 14.71 387.26 14.84 386.36 14.60 375.79 C 14.45 369.50 14.03 363.86 13.65 363.25 C 13.28 362.64 13.39 361.88 13.91 361.56 C 15.12 360.81 15.02 302.91 13.80 301.34 C 13.31 300.70 13.29 299.94 13.76 299.65 C 14.76 299.03 14.61 275.80 13.59 274.15 C 13.22 273.54 13.39 272.13 13.99 271.02 C 15.01 269.11 16.07 269.00 32.79 268.93 C 42.53 268.88 67.94 268.71 89.25 268.53 C 124.61 268.25 128.01 268.36 128.07 269.86 C 128.11 270.76 128.32 278.64 128.54 287.36 C 128.79 297.27 129.38 303.75 130.10 304.61 C 132.38 307.37 128.67 306.07 125.51 303.01 C 122.61 300.20 122.29 300.11 120.21 301.56 C 117.14 303.71 117.45 306.36 121.13 309.45 L 124.26 312.09 L 121.15 318.29 C 117.00 326.59 115.69 333.03 116.48 341.31 C 117.25 349.33 118.94 354.54 122.44 359.69 L 124.98 363.44 L 121.28 367.23 L 117.57 371.02 L 120.27 373.72 L 122.97 376.42 L 126.47 373.03 C 129.70 369.90 132.57 369.30 130.30 372.23 C 129.75 372.93 129.20 376.20 129.07 379.50 C 128.94 382.80 128.66 385.68 128.44 385.89 C 128.23 386.11 114.43 386.43 97.77 386.61 C 46.53 387.17 22.95 387.72 22.30 388.37 C 21.96 388.70 21.11 388.51 20.41 387.92 C 19.49 387.17 18.46 387.23 16.81 388.16 C 14.18 389.64 11.00 390.09 11.00 388.98 Z M 45.81 389.32 C 46.53 389.03 47.40 389.06 47.73 389.40 C 48.06 389.73 47.47 389.96 46.42 389.92 C 45.25 389.87 45.01 389.64 45.81 389.32 Z M 56.81 389.32 C 57.53 389.03 58.40 389.06 58.73 389.40 C 59.06 389.73 58.47 389.96 57.42 389.92 C 56.25 389.87 56.01 389.64 56.81 389.32 Z M 79.27 389.31 C 80.24 389.05 81.59 389.07 82.27 389.34 C 82.95 389.62 82.15 389.83 80.50 389.81 C 78.85 389.78 78.30 389.56 79.27 389.31 Z M 96.81 389.32 C 97.53 389.03 98.40 389.06 98.73 389.40 C 99.06 389.73 98.47 389.96 97.42 389.92 C 96.25 389.87 96.01 389.64 96.81 389.32 Z M 135.96 386.55 C 135.94 386.52 135.80 383.66 135.65 380.18 C 135.40 374.22 135.50 373.90 137.44 374.46 C 148.25 377.58 151.97 378.18 157.16 377.64 C 164.04 376.92 171.94 374.05 176.42 370.63 L 179.72 368.11 L 183.06 371.56 C 187.06 375.69 188.23 375.82 190.48 372.39 C 192.17 369.81 192.14 369.73 188.46 365.96 L 184.74 362.15 L 186.87 359.44 C 190.09 355.35 193.00 344.72 193.00 337.08 C 193.00 328.91 191.09 322.10 186.97 315.61 L 183.87 310.72 L 187.66 306.83 C 191.66 302.74 191.64 301.01 187.60 298.57 C 186.15 297.69 185.25 298.18 182.43 301.40 L 179.02 305.31 L 172.31 301.90 C 161.55 296.44 149.97 296.69 135.00 302.72 C 133.73 303.23 133.70 303.08 134.83 301.71 C 135.81 300.52 135.99 298.19 135.52 292.80 C 134.86 285.34 134.84 284.11 135.39 278.00 C 135.57 276.07 135.78 273.10 135.85 271.38 L 136.00 268.26 L 143.75 267.75 C 148.01 267.47 151.62 267.34 151.77 267.47 C 151.92 267.60 149.89 269.37 147.27 271.42 C 141.87 275.62 137.00 282.26 137.00 285.43 C 137.00 286.60 137.70 288.56 138.56 289.78 C 143.01 296.14 157.83 287.65 162.85 275.87 C 164.95 270.94 171.11 265.33 173.08 266.55 C 174.16 267.22 185.77 267.22 232.74 266.55 L 249.97 266.31 L 249.36 270.15 C 248.91 272.95 249.10 274.00 250.04 274.00 C 250.75 274.00 251.08 274.25 250.78 274.56 C 250.47 274.86 247.36 274.37 243.86 273.46 C 233.53 270.77 220.88 273.27 212.51 279.65 L 209.51 281.93 L 205.69 278.22 L 201.86 274.50 L 199.31 277.45 L 196.76 280.39 L 200.48 283.80 L 204.19 287.21 L 201.11 293.35 C 194.51 306.51 194.32 319.38 200.53 331.62 L 204.31 339.08 L 201.06 342.43 C 197.88 345.72 197.85 345.84 199.52 348.39 C 201.80 351.87 203.26 351.68 206.65 347.47 L 209.50 343.95 L 213.41 346.62 C 215.57 348.09 219.39 349.93 221.91 350.70 C 227.85 352.52 240.39 352.52 245.50 350.70 L 249.50 349.27 L 249.50 367.05 L 249.50 384.83 L 245.00 384.68 C 241.14 384.55 160.38 385.92 142.25 386.42 C 138.81 386.52 135.98 386.57 135.96 386.55 Z M 256.70 364.42 C 256.82 352.24 257.30 344.30 257.95 343.65 C 258.69 342.91 260.20 343.77 262.99 346.49 L 266.97 350.38 L 269.49 348.01 C 270.87 346.71 272.00 345.29 272.00 344.84 C 272.00 344.39 270.41 342.56 268.46 340.76 L 264.92 337.50 L 268.65 330.00 C 271.86 323.53 272.43 321.34 272.79 314.00 C 273.25 304.58 271.29 297.06 266.49 289.80 C 263.69 285.57 263.94 284.25 268.35 280.13 C 270.74 277.90 270.79 277.62 269.33 275.38 C 267.24 272.20 266.24 272.36 261.88 276.61 C 259.85 278.60 257.77 279.97 257.26 279.66 C 256.76 279.35 256.30 276.15 256.25 272.55 C 256.14 265.63 256.49 265.23 262.00 265.86 C 263.74 266.05 279.15 266.03 330.70 265.76 C 351.15 265.65 368.17 265.84 368.51 266.18 C 369.08 266.75 369.16 279.39 369.02 353.00 C 368.99 368.12 368.61 381.07 368.17 381.76 C 367.55 382.74 354.97 383.15 311.93 383.58 L 256.50 384.14 L 256.70 364.42 Z M 132.50 374.00 C 132.16 373.45 132.61 373.00 133.50 373.00 C 134.39 373.00 134.84 373.45 134.50 374.00 C 134.16 374.55 133.71 375.00 133.50 375.00 C 133.29 375.00 132.84 374.55 132.50 374.00 Z M 11.00 372.94 C 11.00 372.36 11.45 372.16 12.00 372.50 C 12.55 372.84 13.00 373.32 13.00 373.56 C 13.00 373.80 12.55 374.00 12.00 374.00 C 11.45 374.00 11.00 373.52 11.00 372.94 Z M 83.62 370.01 C 95.11 364.36 99.82 358.25 106.15 340.78 C 115.20 315.79 107.66 294.06 86.59 284.41 C 65.93 274.95 41.14 287.50 34.44 310.81 C 33.70 313.39 32.13 318.20 30.95 321.49 C 29.26 326.24 28.89 329.14 29.20 335.49 C 29.77 347.34 32.95 355.07 40.20 362.22 C 49.37 371.28 56.62 374.13 69.19 373.64 C 75.50 373.39 78.08 372.74 83.62 370.01 Z M 327.14 369.56 C 330.80 368.78 335.53 367.26 337.65 366.18 C 342.18 363.87 350.98 354.87 353.53 349.94 C 357.96 341.38 359.21 328.78 356.54 319.50 C 354.34 311.84 350.40 300.61 348.97 297.95 C 346.61 293.54 337.55 284.81 332.89 282.44 C 327.15 279.53 316.31 277.58 310.65 278.43 C 298.91 280.19 287.07 289.40 281.62 301.00 C 277.41 309.98 276.74 322.60 279.99 331.50 C 281.19 334.80 282.58 339.12 283.06 341.10 C 286.39 354.68 298.63 366.77 311.97 369.64 C 319.21 371.20 319.39 371.20 327.14 369.56 Z M 147.50 369.06 C 139.29 367.05 131.15 360.32 126.85 352.00 C 123.82 346.14 123.17 335.38 125.37 327.79 C 130.78 309.19 153.25 299.97 169.77 309.59 C 177.71 314.21 182.07 320.21 184.57 329.98 C 190.45 352.92 169.93 374.55 147.50 369.06 Z M 252.03 362.08 C 252.01 358.55 252.22 355.89 252.49 356.15 C 253.55 357.22 253.98 365.22 253.05 366.81 C 252.32 368.05 252.05 366.80 252.03 362.08 Z M 59.60 365.28 C 54.41 363.95 42.00 355.11 42.00 352.75 C 42.00 352.23 41.14 350.72 40.09 349.38 C 37.11 345.60 35.42 334.18 36.87 327.68 C 40.00 313.71 49.30 304.60 63.11 301.98 C 77.97 299.16 93.73 310.16 97.40 325.92 C 99.28 333.97 98.42 340.29 94.29 348.77 C 88.64 360.35 79.85 366.07 68.00 365.87 C 64.42 365.82 60.65 365.55 59.60 365.28 Z M 311.52 361.39 C 299.92 357.69 292.83 349.23 290.04 335.72 C 288.11 326.36 290.91 316.43 297.57 309.06 C 306.67 298.98 320.66 295.93 333.07 301.31 C 337.81 303.37 344.65 310.40 347.78 316.44 C 349.99 320.70 350.41 322.84 350.45 330.00 C 350.49 337.17 350.08 339.39 347.85 344.15 C 341.04 358.68 325.75 365.93 311.52 361.39 Z M 252.00 353.94 C 252.00 353.36 252.45 353.16 253.00 353.50 C 253.55 353.84 254.00 354.32 254.00 354.56 C 254.00 354.80 253.55 355.00 253.00 355.00 C 252.45 355.00 252.00 354.52 252.00 353.94 Z M 252.50 349.00 C 252.16 348.45 252.61 348.00 253.50 348.00 C 254.39 348.00 254.84 348.45 254.50 349.00 C 254.16 349.55 253.71 350.00 253.50 350.00 C 253.29 350.00 252.84 349.55 252.50 349.00 Z M 11.61 347.42 C 10.74 345.16 10.86 343.00 11.85 343.00 C 12.31 343.00 12.73 344.35 12.78 346.00 C 12.88 349.34 12.51 349.78 11.61 347.42 Z M 71.80 345.60 C 80.71 340.99 82.21 329.31 74.62 323.53 C 65.86 316.84 53.33 325.26 55.42 336.43 C 56.96 344.63 64.99 349.13 71.80 345.60 Z M 229.00 344.07 C 217.47 342.24 207.85 333.71 205.22 323.00 C 203.14 314.54 203.05 313.35 204.07 307.07 C 206.03 294.88 215.41 284.39 227.01 281.42 C 246.98 276.30 265.31 290.57 265.12 311.09 C 265.03 320.33 263.80 324.51 259.26 331.02 C 252.05 341.33 241.19 346.02 229.00 344.07 Z M 328.73 339.73 C 332.41 336.04 333.04 328.41 330.05 323.58 C 325.63 316.43 315.20 316.61 310.27 323.93 C 306.44 329.61 307.90 337.71 313.38 341.15 C 317.77 343.91 325.23 343.22 328.73 339.73 Z M 64.52 337.37 C 62.00 334.86 62.97 330.72 66.35 329.54 C 68.71 328.71 69.43 328.87 70.60 330.46 C 72.50 333.07 72.36 334.64 70.00 337.00 C 67.58 339.42 66.63 339.49 64.52 337.37 Z M 317.24 333.84 C 315.55 332.15 315.68 328.51 317.49 327.01 C 318.36 326.29 320.04 326.05 321.55 326.42 C 323.81 326.99 324.08 327.51 323.81 330.78 C 323.55 333.91 323.10 334.55 320.99 334.79 C 319.61 334.95 317.93 334.53 317.24 333.84 Z M 11.00 331.00 C 11.00 330.45 11.45 330.00 12.00 330.00 C 12.55 330.00 13.00 330.45 13.00 331.00 C 13.00 331.55 12.55 332.00 12.00 332.00 C 11.45 332.00 11.00 331.55 11.00 331.00 Z M 101.08 313.18 C 100.93 310.61 89.95 300.30 84.35 297.47 C 79.76 295.15 77.04 294.52 70.07 294.19 C 65.34 293.96 59.70 294.27 57.54 294.86 C 51.82 296.44 52.05 295.52 58.15 292.37 C 62.64 290.05 64.79 289.60 71.50 289.55 C 80.78 289.49 86.82 291.90 93.19 298.22 C 97.26 302.26 102.40 311.45 101.64 313.33 C 101.31 314.13 101.13 314.08 101.08 313.18 Z M 286.54 308.25 C 291.11 297.29 296.74 291.37 305.79 287.98 C 312.16 285.59 318.34 285.46 324.56 287.57 C 329.89 289.38 337.32 293.71 333.00 292.49 C 322.44 289.51 312.25 290.37 302.98 295.02 C 297.25 297.90 288.75 306.06 287.56 309.83 C 287.18 311.02 286.44 312.00 285.92 312.00 C 285.40 312.00 285.68 310.31 286.54 308.25 Z M 132.00 302.94 C 132.00 302.36 132.45 302.16 133.00 302.50 C 133.55 302.84 134.00 303.32 134.00 303.56 C 134.00 303.80 133.55 304.00 133.00 304.00 C 132.45 304.00 132.00 303.52 132.00 302.94 Z M 131.08 298.38 C 130.95 294.78 132.20 290.00 133.12 290.58 C 133.60 290.87 134.00 292.92 134.00 295.12 C 134.00 297.32 133.59 298.86 133.09 298.55 C 132.58 298.24 131.94 298.55 131.66 299.24 C 131.39 299.93 131.12 299.54 131.08 298.38 Z M 132.00 272.62 C 132.00 271.79 132.45 270.84 133.00 270.50 C 133.55 270.16 134.00 270.56 134.00 271.38 C 134.00 272.21 133.55 273.16 133.00 273.50 C 132.45 273.84 132.00 273.44 132.00 272.62 Z M 152.27 265.70 C 152.65 264.55 160.04 262.78 160.93 263.62 C 161.84 264.48 159.35 265.76 155.68 266.32 C 152.97 266.73 151.98 266.55 152.27 265.70 Z M 119.00 265.00 C 119.00 264.45 120.24 264.03 121.75 264.07 C 124.19 264.13 124.27 264.24 122.50 265.00 C 119.77 266.17 119.00 266.17 119.00 265.00 Z M 130.75 265.28 C 129.24 265.05 128.00 264.44 128.00 263.92 C 128.00 262.81 136.04 263.83 137.45 265.13 C 138.42 266.02 135.96 266.07 130.75 265.28 Z M 141.15 265.58 C 141.95 264.70 152.27 261.93 152.79 262.46 C 153.00 262.67 152.29 263.31 151.21 263.89 C 148.88 265.13 140.21 266.59 141.15 265.58 Z M 98.81 263.32 C 99.53 263.03 100.40 263.06 100.73 263.40 C 101.06 263.73 100.47 263.96 99.42 263.92 C 98.25 263.87 98.01 263.64 98.81 263.32 Z M 176.61 263.18 C 175.85 261.95 180.74 257.09 183.28 256.55 C 184.50 256.29 190.38 255.84 196.35 255.54 C 202.31 255.24 207.51 254.80 207.90 254.56 C 208.29 254.32 208.43 252.54 208.20 250.62 L 207.79 247.11 L 199.15 247.70 L 190.50 248.28 L 195.32 244.00 C 197.97 241.64 201.08 238.94 202.24 238.01 L 204.35 236.30 L 202.09 233.12 L 199.83 229.95 L 191.86 237.22 C 177.92 249.97 179.38 249.23 166.72 249.92 C 157.04 250.44 154.99 250.27 151.80 248.69 C 148.87 247.23 146.31 246.92 139.55 247.18 C 131.32 247.49 128.78 246.84 133.00 245.50 C 135.40 244.74 135.29 250.16 134.66 164.33 C 134.57 152.69 134.80 142.87 135.17 142.50 C 136.42 141.24 143.00 140.19 143.59 141.14 C 143.91 141.66 145.14 141.77 146.33 141.38 C 148.81 140.59 159.82 140.49 160.59 141.26 C 160.87 141.54 162.54 141.48 164.30 141.13 C 166.06 140.79 185.64 140.50 207.82 140.50 L 248.13 140.50 L 248.67 199.75 L 249.21 259.00 L 234.36 259.11 C 190.67 259.42 179.00 260.15 179.00 262.57 C 179.00 264.11 177.44 264.51 176.61 263.18 Z M 14.61 262.18 C 14.16 261.45 13.98 243.09 14.13 213.50 C 14.15 209.10 14.13 196.72 14.09 186.00 C 13.95 153.67 14.07 143.59 14.60 143.06 C 14.88 142.79 19.70 142.44 25.30 142.30 C 30.91 142.15 36.48 141.80 37.69 141.51 C 38.89 141.23 40.17 141.46 40.52 142.04 C 40.88 142.61 42.02 142.81 43.05 142.48 C 44.09 142.15 63.40 141.70 85.97 141.48 C 124.12 141.11 127.01 141.20 127.15 142.79 C 127.44 146.00 127.84 181.44 127.97 214.22 C 128.05 234.28 128.48 247.18 129.08 247.55 C 129.62 247.89 128.94 249.47 127.53 251.15 C 124.78 254.42 124.33 256.93 126.18 258.78 C 126.83 259.43 127.17 260.15 126.93 260.38 C 126.69 260.60 101.87 261.03 71.76 261.33 C 41.66 261.62 16.60 262.13 16.08 262.45 C 15.56 262.77 14.90 262.65 14.61 262.18 Z M 194.75 262.34 C 195.44 262.06 196.56 262.06 197.25 262.34 C 197.94 262.62 197.38 262.84 196.00 262.84 C 194.62 262.84 194.06 262.62 194.75 262.34 Z M 153.00 260.87 C 153.00 259.22 156.06 258.16 161.75 257.85 C 168.26 257.49 169.07 257.87 166.42 260.07 C 164.85 261.37 153.00 262.09 153.00 260.87 Z M 256.68 258.30 C 256.03 257.23 255.40 141.26 256.05 140.62 C 256.32 140.34 281.85 139.98 312.78 139.81 C 368.41 139.50 369.00 139.52 369.08 141.50 C 369.38 148.79 369.19 257.14 368.88 257.45 C 368.11 258.23 257.16 259.06 256.68 258.30 Z M 217.27 222.61 C 227.35 219.61 232.73 216.53 236.47 211.63 C 239.86 207.19 240.52 202.79 239.05 194.38 C 234.63 168.96 213.75 151.82 188.94 153.24 C 177.38 153.90 167.55 158.45 158.83 167.17 C 147.44 178.56 140.54 200.48 145.41 209.80 C 148.58 215.88 156.11 220.70 166.56 223.36 C 175.80 225.71 177.51 225.85 193.50 225.52 C 206.18 225.26 209.86 224.81 217.27 222.61 Z M 172.05 216.43 C 157.88 213.84 150.57 207.86 151.53 199.64 C 152.39 192.35 153.18 189.63 156.20 183.62 C 160.55 174.97 166.98 168.63 175.60 164.48 C 181.97 161.42 183.98 160.94 190.72 160.86 C 200.54 160.74 205.15 162.00 212.66 166.86 C 224.05 174.22 231.08 185.64 231.79 197.96 L 232.24 205.66 L 228.37 208.85 C 226.24 210.60 222.13 212.93 219.24 214.01 C 208.92 217.87 186.33 219.03 172.05 216.43 Z M 130.00 216.00 C 130.00 215.45 130.45 215.00 131.00 215.00 C 131.55 215.00 132.00 215.45 132.00 216.00 C 132.00 216.55 131.55 217.00 131.00 217.00 C 130.45 217.00 130.00 216.55 130.00 216.00 Z M 252.08 207.42 C 252.13 206.25 252.36 206.01 252.68 206.81 C 252.97 207.53 252.94 208.40 252.60 208.73 C 252.27 209.06 252.04 208.47 252.08 207.42 Z M 11.00 202.00 C 11.00 201.45 11.48 201.00 12.06 201.00 C 12.64 201.00 12.84 201.45 12.50 202.00 C 12.16 202.55 11.68 203.00 11.44 203.00 C 11.20 203.00 11.00 202.55 11.00 202.00 Z M 252.16 197.00 C 252.16 195.62 252.38 195.06 252.66 195.75 C 252.94 196.44 252.94 197.56 252.66 198.25 C 252.38 198.94 252.16 198.38 252.16 197.00 Z M 131.50 197.00 C 131.84 196.45 132.32 196.00 132.56 196.00 C 132.80 196.00 133.00 196.45 133.00 197.00 C 133.00 197.55 132.52 198.00 131.94 198.00 C 131.36 198.00 131.16 197.55 131.50 197.00 Z M 131.00 193.00 C 131.00 192.45 131.48 192.00 132.06 192.00 C 132.64 192.00 132.84 192.45 132.50 193.00 C 132.16 193.55 131.68 194.00 131.44 194.00 C 131.20 194.00 131.00 193.55 131.00 193.00 Z M 131.50 189.00 C 131.84 188.45 132.32 188.00 132.56 188.00 C 132.80 188.00 133.00 188.45 133.00 189.00 C 133.00 189.55 132.52 190.00 131.94 190.00 C 131.36 190.00 131.16 189.55 131.50 189.00 Z M 252.19 185.50 C 252.22 183.85 252.44 183.30 252.69 184.27 C 252.95 185.24 252.93 186.59 252.66 187.27 C 252.38 187.95 252.17 187.15 252.19 185.50 Z M 131.00 185.44 C 131.00 184.58 131.46 184.16 132.02 184.51 C 132.58 184.86 132.77 185.56 132.46 186.07 C 131.60 187.46 131.00 187.20 131.00 185.44 Z M 251.71 180.00 C 252.00 178.90 252.41 178.00 252.62 178.00 C 252.83 178.00 253.00 178.90 253.00 180.00 C 253.00 181.10 252.59 182.00 252.09 182.00 C 251.60 182.00 251.42 181.10 251.71 180.00 Z M 251.71 174.00 C 251.42 172.90 251.60 171.75 252.09 171.44 C 252.59 171.13 253.00 172.03 253.00 173.44 C 253.00 176.51 252.43 176.75 251.71 174.00 Z M 252.16 166.00 C 252.16 164.62 252.38 164.06 252.66 164.75 C 252.94 165.44 252.94 166.56 252.66 167.25 C 252.38 167.94 252.16 167.38 252.16 166.00 Z M 250.73 146.27 C 250.51 145.84 250.92 144.38 251.65 143.00 L 252.97 140.50 L 252.99 143.19 C 253.00 145.82 251.55 147.80 250.73 146.27 Z M 136.75 138.34 C 137.44 138.06 138.56 138.06 139.25 138.34 C 139.94 138.62 139.38 138.84 138.00 138.84 C 136.62 138.84 136.06 138.62 136.75 138.34 Z M 114.81 137.32 C 115.53 137.03 116.40 137.06 116.73 137.40 C 117.06 137.73 116.47 137.96 115.42 137.92 C 114.25 137.87 114.01 137.64 114.81 137.32 Z M 264.75 137.34 C 265.44 137.06 266.56 137.06 267.25 137.34 C 267.94 137.62 267.38 137.84 266.00 137.84 C 264.62 137.84 264.06 137.62 264.75 137.34 Z M 363.75 136.34 C 364.44 136.06 365.56 136.06 366.25 136.34 C 366.94 136.62 366.38 136.84 365.00 136.84 C 363.62 136.84 363.06 136.62 363.75 136.34 Z M 14.00 127.12 C 14.00 119.38 13.89 119.00 11.75 118.94 C 9.52 118.87 9.52 118.87 11.61 118.02 C 13.67 117.19 15.35 113.68 14.22 112.56 C 13.92 112.25 12.73 111.97 11.58 111.94 C 9.58 111.88 9.59 111.84 11.75 110.97 C 13.78 110.15 14.01 109.34 14.12 102.78 C 14.18 98.78 14.17 95.13 14.09 94.68 C 14.02 94.23 13.89 85.55 13.82 75.39 C 13.75 65.23 13.31 56.69 12.84 56.40 C 12.38 56.11 12.38 55.12 12.86 54.19 C 13.64 52.67 13.67 40.00 12.91 37.50 C 12.74 36.95 12.96 35.47 13.38 34.20 C 13.84 32.86 13.72 31.37 13.10 30.62 C 12.43 29.81 12.35 28.25 12.90 26.34 C 13.41 24.56 13.38 22.64 12.82 21.65 C 12.30 20.72 12.13 19.17 12.43 18.21 C 12.92 16.69 14.55 16.42 24.75 16.22 C 31.21 16.09 45.05 15.82 55.50 15.61 C 65.95 15.40 75.29 14.91 76.25 14.51 C 77.33 14.06 78.00 14.23 78.00 14.96 C 78.00 15.70 78.78 15.89 80.12 15.46 C 81.29 15.09 92.21 14.72 104.40 14.64 L 126.56 14.50 L 126.75 28.50 C 126.85 36.20 126.94 44.30 126.94 46.50 C 126.94 48.70 126.95 51.17 126.96 52.00 C 127.48 103.87 127.57 129.95 127.24 131.66 C 126.83 133.81 126.62 133.83 102.16 133.92 C 88.60 133.97 63.21 134.29 45.75 134.63 L 14.00 135.24 L 14.00 127.12 Z M 134.02 87.57 C 133.73 38.27 133.70 23.55 133.88 18.00 L 134.00 14.50 L 190.75 14.39 L 247.50 14.29 L 247.83 73.64 L 248.16 133.00 L 229.83 133.08 C 219.75 133.12 194.13 133.26 172.89 133.40 L 134.29 133.65 L 134.02 87.57 Z M 255.02 130.96 C 255.61 129.86 255.88 128.61 255.61 128.18 C 255.35 127.76 254.90 102.65 254.61 72.40 C 254.32 42.14 253.78 16.60 253.41 15.63 C 252.79 14.02 253.58 13.88 262.62 13.96 C 268.05 14.01 273.29 14.03 274.25 14.02 C 275.21 14.01 276.56 14.01 277.25 14.02 C 277.94 14.02 298.86 13.88 323.75 13.71 L 369.00 13.38 L 369.07 41.94 C 369.11 57.65 369.21 84.09 369.28 100.70 C 369.36 117.32 369.20 131.13 368.92 131.41 C 368.65 131.68 342.67 132.14 311.19 132.43 C 254.18 132.96 253.96 132.95 255.02 130.96 Z M 250.00 128.94 C 250.00 128.36 250.45 128.16 251.00 128.50 C 251.55 128.84 252.00 129.32 252.00 129.56 C 252.00 129.80 251.55 130.00 251.00 130.00 C 250.45 130.00 250.00 129.52 250.00 128.94 Z M 251.00 125.50 C 251.00 124.67 251.18 124.00 251.39 124.00 C 251.61 124.00 252.05 124.67 252.36 125.50 C 252.68 126.33 252.50 127.00 251.97 127.00 C 251.44 127.00 251.00 126.33 251.00 125.50 Z M 250.81 120.32 C 251.53 120.03 252.40 120.06 252.73 120.40 C 253.06 120.73 252.47 120.96 251.42 120.92 C 250.25 120.87 250.01 120.64 250.81 120.32 Z M 250.00 96.94 C 250.00 96.36 250.45 96.16 251.00 96.50 C 251.55 96.84 252.00 97.32 252.00 97.56 C 252.00 97.80 251.55 98.00 251.00 98.00 C 250.45 98.00 250.00 97.52 250.00 96.94 Z M 251.00 91.56 C 251.00 90.70 251.45 90.00 252.00 90.00 C 252.55 90.00 253.00 90.42 253.00 90.94 C 253.00 91.46 252.55 92.16 252.00 92.50 C 251.45 92.84 251.00 92.42 251.00 91.56 Z M 10.00 64.50 C 10.00 63.67 10.18 63.00 10.39 63.00 C 10.61 63.00 11.05 63.67 11.36 64.50 C 11.68 65.33 11.50 66.00 10.97 66.00 C 10.44 66.00 10.00 65.33 10.00 64.50 Z M 251.08 59.42 C 251.13 58.25 251.36 58.01 251.68 58.81 C 251.97 59.53 251.94 60.40 251.60 60.73 C 251.27 61.06 251.04 60.47 251.08 59.42 Z M 9.00 32.97 C 9.00 32.44 9.68 32.00 10.50 32.00 C 11.32 32.00 12.00 32.18 12.00 32.39 C 12.00 32.61 11.32 33.05 10.50 33.36 C 9.68 33.68 9.00 33.50 9.00 32.97 Z M 269.00 11.97 C 269.00 11.44 269.68 11.00 270.50 11.00 C 271.32 11.00 272.00 11.18 272.00 11.39 C 272.00 11.61 271.32 12.05 270.50 12.36 C 269.68 12.68 269.00 12.50 269.00 11.97 Z M 286.81 11.32 C 287.53 11.03 288.40 11.06 288.73 11.40 C 289.06 11.73 288.47 11.96 287.42 11.92 C 286.25 11.87 286.01 11.64 286.81 11.32 Z" fill="none" stroke="rgba(255,255,255,0.92)" stroke-width="1.5" stroke-linejoin="round" fill-rule="evenodd"/>
</svg>
