<svg xmlns="http://www.w3.org/2000/svg" viewBox="0 0 100 100" width="100" height="100">
  <path d="M 0.00 50.00 L 0.00 0.00 L 50.00 0.00 L 100.00 0.00 L 100.00 50.00 L 100.00 100.00 L 50.00 100.00 L 0.00 100.00 L 0.00 50.00 Z M 20.63 94.97 C 22.10 93.50 32.00 92.46 32.00 93.78 C 32.00 94.36 31.44 95.06 30.75 95.34 C 30.06 95.62 31.45 95.88 33.84 95.92 C 36.76 95.97 39.02 95.35 40.73 94.00 C 42.60 92.53 44.78 92.00 49.00 92.00 C 52.14 92.00 56.83 91.71 59.41 91.36 C 63.75 90.76 64.08 90.51 63.80 88.11 C 63.50 85.54 63.40 85.51 56.56 85.87 L 49.61 86.23 L 54.56 81.99 C 57.28 79.66 59.64 77.62 59.82 77.47 C 60.28 77.07 57.63 73.00 56.91 73.00 C 56.57 73.00 52.72 76.10 48.35 79.88 L 40.40 86.76 L 31.45 87.46 C 24.24 88.02 21.92 87.85 19.50 86.59 C 17.71 85.65 13.99 85.01 10.25 85.01 L 4.00 85.00 L 4.00 90.50 L 4.00 96.00 L 11.80 96.00 C 16.09 96.00 20.06 95.54 20.63 94.97 Z M 96.00 94.92 C 96.00 94.15 88.49 94.03 70.25 94.51 C 56.09 94.89 44.31 95.37 44.08 95.60 C 43.85 95.82 55.44 96.00 69.83 96.00 C 87.95 96.00 96.00 95.67 96.00 94.92 Z M 95.68 82.81 C 95.36 82.01 95.13 82.25 95.08 83.42 C 95.04 84.47 95.27 85.06 95.60 84.73 C 95.94 84.40 95.97 83.53 95.68 82.81 Z M 5.87 45.52 C 5.74 24.35 5.92 6.74 6.28 6.39 C 6.63 6.04 26.73 5.57 50.94 5.36 L 94.96 4.98 L 95.25 29.24 L 95.54 53.50 L 95.77 28.75 L 96.00 4.00 L 50.00 4.00 L 4.00 4.00 L 4.05 44.00 C 4.08 70.27 4.44 84.00 5.11 84.00 C 5.77 84.00 6.04 70.96 5.87 45.52 Z M 95.68 76.81 C 95.36 76.01 95.13 76.25 95.08 77.42 C 95.04 78.47 95.27 79.06 95.60 78.73 C 95.94 78.40 95.97 77.53 95.68 76.81 Z M 95.66 69.75 C 95.38 69.06 95.16 69.62 95.16 71.00 C 95.16 72.38 95.38 72.94 95.66 72.25 C 95.94 71.56 95.94 70.44 95.66 69.75 Z M 66.10 67.97 C 74.45 66.36 81.75 63.05 84.94 59.42 C 87.52 56.48 88.00 55.12 87.99 50.72 C 87.97 40.55 83.56 31.35 75.00 23.62 C 67.90 17.21 63.05 15.57 51.00 15.53 C 41.48 15.50 39.97 15.76 34.78 18.31 C 23.26 23.97 14.85 35.73 13.40 48.22 C 12.56 55.42 13.97 59.01 18.99 62.50 C 28.22 68.89 48.88 71.29 66.10 67.97 Z M 95.66 62.75 C 95.38 62.06 95.16 62.62 95.16 64.00 C 95.16 65.38 95.38 65.94 95.66 65.25 C 95.94 64.56 95.94 63.44 95.66 62.75 Z M 31.40 61.64 C 25.49 60.15 20.40 56.84 19.46 53.88 C 17.52 47.77 22.16 36.06 29.17 29.35 C 35.69 23.10 41.95 20.60 51.00 20.64 C 59.32 20.68 65.75 23.21 72.42 29.06 C 77.53 33.55 82.00 43.09 82.00 49.50 C 82.00 55.63 80.75 57.11 72.86 60.24 C 68.36 62.02 65.02 62.41 52.00 62.65 C 41.76 62.84 34.77 62.49 31.40 61.64 Z M 95.66 54.75 C 95.38 54.06 95.16 54.62 95.16 56.00 C 95.16 57.38 95.38 57.94 95.66 57.25 C 95.94 56.56 95.94 55.44 95.66 54.75 Z" fill="none" stroke="rgba(255,255,255,0.92)" stroke-width="1.2" stroke-linejoin="round" fill-rule="evenodd"/>
</svg>
