<svg xmlns="http://www.w3.org/2000/svg" viewBox="0 0 100 100" width="100" height="100">
  <path d="M 0.00 50.00 L 0.00 0.00 L 50.00 0.00 L 100.00 0.00 L 100.00 50.00 L 100.00 100.00 L 50.00 100.00 L 0.00 100.00 L 0.00 50.00 Z M 86.75 93.09 L 95.99 93.00 L 95.93 80.46 L 95.87 67.92 L 92.65 69.91 C 86.23 73.87 72.07 76.15 50.25 76.74 L 30.00 77.29 L 29.81 72.39 C 29.71 69.70 29.54 66.38 29.45 65.00 C 29.35 63.62 29.21 49.34 29.13 33.25 L 29.00 4.00 L 25.89 4.00 L 22.78 4.00 L 23.14 40.25 L 23.50 76.50 L 13.75 76.79 L 4.00 77.07 L 4.00 79.98 L 4.00 82.88 L 35.25 82.61 C 65.88 82.34 80.40 81.08 88.58 77.97 C 93.29 76.18 93.85 76.62 93.66 81.93 C 93.56 84.63 93.24 87.10 92.94 87.40 C 92.48 87.85 77.54 88.13 9.25 88.94 C 4.38 89.00 4.00 89.17 4.00 91.42 L 4.00 93.84 L 40.75 93.51 C 60.96 93.32 81.66 93.13 86.75 93.09 Z M 16.81 91.32 C 17.53 91.03 18.40 91.06 18.73 91.40 C 19.06 91.73 18.47 91.96 17.42 91.92 C 16.25 91.87 16.01 91.64 16.81 91.32 Z M 22.00 71.20 L 22.00 68.40 L 13.25 68.45 L 4.50 68.50 L 4.18 71.25 L 3.87 74.00 L 12.93 74.00 L 22.00 74.00 L 22.00 71.20 Z M 21.50 59.50 C 21.50 57.02 21.42 57.00 12.75 57.00 C 4.08 57.00 4.00 57.02 4.00 59.50 C 4.00 61.98 4.08 62.00 12.75 62.00 C 21.42 62.00 21.50 61.98 21.50 59.50 Z M 21.19 50.48 C 21.48 50.19 21.50 48.84 21.24 47.48 C 20.78 45.08 20.51 45.00 12.38 45.00 L 4.00 45.00 L 4.00 48.00 L 4.00 51.00 L 12.33 51.00 C 16.92 51.00 20.90 50.76 21.19 50.48 Z M 20.50 36.00 C 20.50 33.56 20.31 33.49 12.25 33.21 L 4.00 32.92 L 4.00 36.00 L 4.00 39.08 L 12.25 38.79 C 20.31 38.51 20.50 38.44 20.50 36.00 Z M 20.82 24.28 C 20.52 21.70 20.21 21.55 15.00 21.46 C 6.08 21.30 4.00 21.90 4.00 24.62 C 4.00 26.94 4.22 27.00 12.57 27.00 L 21.13 27.00 L 20.82 24.28 Z M 21.00 12.50 C 21.00 10.03 20.90 10.00 12.50 10.00 C 4.10 10.00 4.00 10.03 4.00 12.50 C 4.00 14.97 4.10 15.00 12.50 15.00 C 20.90 15.00 21.00 14.97 21.00 12.50 Z" fill="none" stroke="rgba(255,255,255,0.92)" stroke-width="1.2" stroke-linejoin="round" fill-rule="evenodd"/>
</svg>
