<svg xmlns="http://www.w3.org/2000/svg" viewBox="0 0 100 100" width="100" height="100">
  <path d="M 0.00 50.00 L 0.00 0.00 L 50.00 0.00 L 100.00 0.00 L 100.00 50.00 L 100.00 100.00 L 50.00 100.00 L 0.00 100.00 L 0.00 50.00 Z M 81.25 94.08 L 96.00 94.00 L 96.00 91.61 C 96.00 90.29 95.33 88.96 94.52 88.65 C 93.71 88.33 87.30 88.27 80.27 88.50 C 73.25 88.74 53.77 89.18 37.00 89.49 L 6.50 90.04 L 6.32 85.02 C 6.22 82.26 6.22 80.01 6.32 80.02 C 6.42 80.02 8.30 80.68 10.50 81.47 C 12.70 82.26 17.73 82.93 21.68 82.96 C 27.94 82.99 29.69 82.57 35.35 79.61 L 41.85 76.23 L 44.60 79.11 L 47.36 81.99 L 49.30 79.91 C 51.22 77.85 51.21 77.81 48.17 74.67 C 45.11 71.50 45.11 71.50 46.99 69.00 C 48.03 67.63 49.64 64.09 50.57 61.14 C 53.19 52.82 51.73 44.07 46.34 35.78 C 44.59 33.09 44.61 33.02 47.46 30.05 C 50.28 27.10 50.30 26.99 48.49 24.99 L 46.65 22.95 L 43.49 26.01 L 40.33 29.07 L 35.33 26.48 C 27.41 22.37 17.32 22.33 8.00 26.37 C 6.79 26.90 6.47 26.02 6.33 21.76 C 6.23 18.87 6.09 15.38 6.01 14.00 C 5.94 12.62 6.09 9.79 6.36 7.69 C 6.69 5.06 6.48 4.01 5.67 4.28 C 4.86 4.55 4.46 9.35 4.36 20.24 L 4.22 35.82 L 8.67 32.99 C 21.53 24.84 38.66 30.46 43.94 44.57 C 46.40 51.16 46.49 53.97 44.46 60.83 C 41.64 70.33 32.20 77.20 21.96 77.20 C 16.30 77.20 8.02 74.46 6.57 72.11 C 4.75 69.17 4.11 71.98 4.07 83.04 L 4.03 95.08 L 35.27 94.62 C 52.44 94.37 73.14 94.13 81.25 94.08 Z M 92.85 62.90 C 95.43 62.00 96.00 61.27 96.00 58.83 C 96.00 56.21 95.74 55.95 93.75 56.59 C 86.01 59.07 78.21 58.71 72.20 55.60 C 68.07 53.47 62.20 46.37 61.00 42.07 C 58.33 32.44 60.41 24.46 67.42 17.45 C 71.87 13.00 73.53 12.03 78.48 11.00 C 83.87 9.89 88.05 10.05 93.75 11.62 C 95.73 12.16 96.00 11.86 96.00 9.16 C 96.00 6.38 95.58 5.96 91.75 4.93 C 85.16 3.14 77.08 4.31 70.05 8.05 L 63.94 11.31 L 61.14 8.64 L 58.35 5.96 L 56.50 8.00 C 54.70 9.99 54.72 10.10 57.36 12.86 L 60.07 15.68 L 57.38 20.86 C 55.41 24.66 54.57 28.02 54.22 33.53 C 53.77 40.45 53.98 41.52 56.97 47.59 L 60.20 54.16 L 57.97 56.53 C 55.62 59.03 55.84 61.62 58.49 62.64 C 59.45 63.00 60.82 62.22 62.11 60.59 L 64.18 57.95 L 67.61 60.07 C 69.49 61.23 72.26 62.55 73.76 63.00 C 77.81 64.22 89.24 64.16 92.85 62.90 Z M 17.28 17.62 C 21.18 15.95 26.50 10.51 27.91 6.75 L 28.95 4.00 L 21.58 4.00 C 14.39 4.00 14.13 4.09 11.10 7.53 C 7.86 11.23 7.04 15.64 9.20 17.80 C 10.77 19.37 13.33 19.32 17.28 17.62 Z" fill="none" stroke="rgba(255,255,255,0.92)" stroke-width="1.2" stroke-linejoin="round" fill-rule="evenodd"/>
</svg>
