<svg xmlns="http://www.w3.org/2000/svg" viewBox="0 0 100 100" width="100" height="100">
  <path d="M 0.00 50.00 L 0.00 0.00 L 50.00 0.00 L 100.00 0.00 L 100.00 50.00 L 100.00 100.00 L 50.00 100.00 L 0.00 100.00 L 0.00 50.00 Z M 71.38 91.82 L 96.26 91.51 L 95.66 48.01 C 95.33 24.08 95.05 4.42 95.03 4.32 C 95.01 4.22 93.69 4.17 92.09 4.22 C 89.42 4.29 89.21 4.57 89.57 7.40 C 89.79 9.10 90.14 27.44 90.34 48.15 L 90.72 85.81 L 88.11 86.25 C 86.67 86.49 72.45 86.81 56.50 86.95 C 32.81 87.16 8.64 87.62 4.75 87.94 C 4.34 87.97 4.00 89.08 4.00 90.40 L 4.00 92.81 L 25.25 92.47 C 36.94 92.28 57.70 91.99 71.38 91.82 Z M 53.00 76.50 L 53.00 70.00 L 50.00 70.00 L 47.00 70.00 L 47.00 76.50 L 47.00 83.00 L 50.00 83.00 L 53.00 83.00 L 53.00 76.50 Z M 36.00 65.82 C 36.00 65.41 35.04 64.56 33.87 63.93 C 31.99 62.92 31.20 63.33 27.17 67.35 C 22.66 71.86 22.63 71.94 24.49 73.99 L 26.37 76.06 L 31.18 71.32 C 33.83 68.71 36.00 66.24 36.00 65.82 Z M 78.39 71.13 C 80.00 69.34 79.85 69.06 74.94 64.95 C 70.86 61.53 69.45 60.85 68.15 61.68 C 65.28 63.49 65.95 65.40 70.79 69.18 C 73.38 71.21 75.77 72.89 76.10 72.93 C 76.42 72.97 77.45 72.16 78.39 71.13 Z M 93.08 67.42 C 93.13 66.25 93.36 66.01 93.68 66.81 C 93.97 67.53 93.94 68.40 93.60 68.73 C 93.27 69.06 93.04 68.47 93.08 67.42 Z M 60.70 62.39 C 70.21 55.35 71.41 43.38 63.40 35.60 C 55.25 27.68 40.61 29.06 34.25 38.34 C 28.38 46.91 30.95 57.22 40.46 63.19 C 44.71 65.87 56.65 65.39 60.70 62.39 Z M 8.37 45.26 C 11.51 23.79 17.43 13.94 31.38 6.97 L 37.32 4.00 L 31.00 4.00 C 25.20 4.00 24.25 4.32 19.50 7.91 C 13.33 12.57 8.49 19.75 5.89 28.09 C 4.36 33.02 4.02 37.07 4.10 49.34 C 4.19 63.10 4.31 64.13 5.47 60.49 C 6.16 58.29 7.47 51.43 8.37 45.26 Z M 45.03 58.73 C 40.79 57.22 37.00 51.88 37.00 47.39 C 37.00 44.92 37.97 43.06 40.85 40.04 C 44.34 36.37 45.15 36.00 49.71 36.00 C 55.33 36.00 59.02 38.20 61.52 43.04 C 63.49 46.85 63.38 49.91 61.14 53.31 C 57.47 58.86 51.30 60.94 45.03 58.73 Z M 92.79 54.02 C 92.55 52.39 92.72 50.47 93.16 49.77 C 93.65 49.01 93.98 50.20 93.98 52.75 C 94.00 57.69 93.42 58.31 92.79 54.02 Z M 26.00 47.89 C 26.00 45.47 25.65 44.92 24.42 45.39 C 23.55 45.73 20.40 46.00 17.42 46.00 C 12.31 46.00 12.00 46.14 12.00 48.50 C 12.00 50.93 12.20 51.00 19.00 51.00 L 26.00 51.00 L 26.00 47.89 Z M 87.57 47.25 C 87.41 45.74 86.76 44.55 86.14 44.60 C 85.51 44.66 82.30 44.77 79.00 44.85 C 73.90 44.98 73.00 45.28 73.00 46.83 C 73.00 49.67 73.84 50.00 81.10 50.00 L 87.86 50.00 L 87.57 47.25 Z M 92.00 39.00 C 92.00 38.45 92.45 38.00 93.00 38.00 C 93.55 38.00 94.00 38.45 94.00 39.00 C 94.00 39.55 93.55 40.00 93.00 40.00 C 92.45 40.00 92.00 39.55 92.00 39.00 Z M 32.55 32.95 C 34.37 30.93 34.35 30.85 31.45 28.42 C 24.75 22.79 24.16 22.55 21.95 24.54 C 19.98 26.33 20.01 26.40 24.73 30.63 C 27.35 32.98 29.77 34.93 30.10 34.96 C 30.42 34.98 31.53 34.08 32.55 32.95 Z M 77.00 23.03 C 77.00 22.73 76.04 21.88 74.88 21.15 C 72.94 19.95 72.36 20.21 68.38 24.12 C 63.51 28.90 63.22 29.70 65.75 31.58 C 67.28 32.72 68.10 32.30 72.25 28.23 C 74.86 25.67 77.00 23.33 77.00 23.03 Z M 52.18 23.75 C 52.40 22.51 52.42 19.43 52.21 16.91 C 51.85 12.66 51.64 12.35 49.41 12.77 C 47.16 13.20 47.00 13.66 47.00 19.62 C 47.00 25.68 47.12 26.00 49.38 26.00 C 51.07 26.00 51.89 25.34 52.18 23.75 Z M 91.50 22.00 C 91.84 21.45 92.32 21.00 92.56 21.00 C 92.80 21.00 93.00 21.45 93.00 22.00 C 93.00 22.55 92.52 23.00 91.94 23.00 C 91.36 23.00 91.16 22.55 91.50 22.00 Z" fill="none" stroke="rgba(255,255,255,0.92)" stroke-width="1.2" stroke-linejoin="round" fill-rule="evenodd"/>
</svg>
