<svg xmlns="http://www.w3.org/2000/svg" viewBox="0 0 100 100" width="100" height="100">
  <path d="M 0.00 50.00 L 0.00 0.00 L 50.00 0.00 L 100.00 0.00 L 100.00 50.00 L 100.00 100.00 L 50.00 100.00 L 0.00 100.00 L 0.00 50.00 Z M 5.50 95.00 C 5.84 94.45 5.64 94.00 5.06 94.00 C 4.48 94.00 4.00 94.45 4.00 95.00 C 4.00 95.55 4.20 96.00 4.44 96.00 C 4.68 96.00 5.16 95.55 5.50 95.00 Z M 95.98 51.00 C 95.94 16.53 95.64 5.97 94.71 5.88 C 94.05 5.81 73.36 5.70 48.75 5.63 L 4.00 5.50 L 4.12 10.00 C 4.18 12.48 4.44 13.71 4.69 12.75 C 4.94 11.79 5.90 10.98 6.82 10.95 C 7.75 10.92 14.46 10.94 21.75 11.00 C 31.99 11.07 35.00 10.80 35.02 9.80 C 35.03 8.86 35.24 8.82 35.77 9.66 C 36.30 10.49 44.53 10.80 65.29 10.76 L 94.07 10.70 L 94.29 29.85 L 94.50 49.00 L 83.00 49.14 C 76.67 49.22 70.06 49.41 68.31 49.55 C 65.51 49.79 65.08 49.49 64.81 47.16 C 64.57 45.12 63.88 44.43 61.82 44.19 C 59.54 43.93 59.10 44.30 58.82 46.69 C 58.34 50.86 54.84 50.98 51.96 46.94 C 48.61 42.24 44.59 41.00 32.68 41.00 C 15.81 41.00 13.00 42.99 13.00 54.95 C 13.00 61.29 13.28 62.28 15.92 65.23 L 18.83 68.50 L 33.03 68.50 L 47.23 68.50 L 50.89 64.25 C 55.43 58.99 59.00 58.44 59.00 63.00 C 59.00 65.67 59.33 66.00 62.00 66.00 C 64.67 66.00 65.00 65.67 65.00 63.00 L 65.00 60.00 L 80.09 60.00 L 95.17 60.00 L 94.95 63.75 C 94.54 70.54 94.99 96.00 95.52 96.00 C 95.80 96.00 96.01 75.75 95.98 51.00 Z M 5.41 71.97 C 5.34 60.40 4.99 50.65 4.64 50.30 C 4.29 49.95 4.00 59.42 4.00 71.33 C 4.00 83.25 4.35 93.00 4.78 93.00 C 5.20 93.00 5.49 83.54 5.41 71.97 Z M 20.70 61.75 C 18.88 60.40 18.15 53.23 19.42 49.25 C 20.11 47.08 20.56 47.00 32.37 47.00 C 40.55 47.00 45.00 47.40 45.80 48.20 C 46.46 48.86 47.00 51.99 47.00 55.16 C 47.00 59.84 46.63 61.13 45.07 61.96 C 42.26 63.47 22.78 63.30 20.70 61.75 Z M 4.74 33.75 C 4.54 30.86 4.37 33.22 4.37 39.00 C 4.37 44.78 4.54 47.14 4.74 44.25 C 4.94 41.36 4.94 36.64 4.74 33.75 Z M 4.73 18.27 C 4.51 16.20 4.33 17.65 4.33 21.50 C 4.32 25.35 4.50 27.05 4.72 25.27 C 4.94 23.50 4.95 20.35 4.73 18.27 Z" fill="none" stroke="rgba(255,255,255,0.92)" stroke-width="1.2" stroke-linejoin="round" fill-rule="evenodd"/>
</svg>
