<svg xmlns="http://www.w3.org/2000/svg" viewBox="0 0 100 100" width="100" height="100">
  <path d="M 0.00 50.00 L 0.00 0.00 L 50.00 0.00 L 100.00 0.00 L 100.00 50.00 L 100.00 100.00 L 50.00 100.00 L 0.00 100.00 L 0.00 50.00 Z M 55.00 94.25 C 55.00 93.16 55.35 93.21 56.64 94.50 C 58.36 96.22 62.88 95.82 64.10 93.84 C 64.48 93.23 64.92 93.36 65.23 94.17 C 65.63 95.20 68.94 95.46 80.12 95.33 C 88.03 95.24 94.84 95.12 95.25 95.08 C 95.66 95.04 96.00 93.98 96.00 92.73 L 96.00 90.46 L 54.63 90.83 L 13.27 91.20 L 12.47 88.35 C 12.03 86.78 11.79 85.05 11.92 84.50 C 12.67 81.53 11.84 54.56 10.95 53.15 C 10.20 51.96 10.10 52.98 10.57 56.88 C 10.99 60.30 10.87 62.04 10.24 61.65 C 9.13 60.96 9.27 50.55 10.43 47.50 C 11.00 46.00 10.93 45.86 10.18 46.93 C 9.45 47.95 9.15 46.56 9.13 41.97 C 9.12 38.46 9.58 35.00 10.17 34.29 C 10.85 33.48 10.88 33.00 10.24 33.00 C 9.68 33.00 9.13 29.41 8.97 24.75 C 8.70 16.41 8.37 8.96 8.13 5.75 C 8.06 4.79 7.57 4.00 7.04 4.00 C 6.43 4.00 6.23 13.60 6.49 29.75 C 6.73 43.91 6.99 64.62 7.07 75.76 L 7.23 96.01 L 31.11 95.83 C 50.81 95.68 55.00 95.41 55.00 94.25 Z M 73.50 93.00 C 73.16 92.45 73.33 92.00 73.88 92.00 C 74.43 92.00 75.16 92.45 75.50 93.00 C 75.84 93.55 75.67 94.00 75.12 94.00 C 74.57 94.00 73.84 93.55 73.50 93.00 Z M 80.81 93.32 C 81.53 93.03 82.40 93.06 82.73 93.40 C 83.06 93.73 82.47 93.96 81.42 93.92 C 80.25 93.87 80.01 93.64 80.81 93.32 Z M 76.38 88.58 C 81.81 86.95 88.93 81.47 93.10 75.70 C 95.67 72.16 96.00 70.86 96.00 64.43 C 96.00 58.03 95.68 56.78 93.37 54.03 C 90.45 50.55 86.11 48.13 78.17 45.53 C 73.46 43.99 72.62 43.29 71.02 39.54 C 67.70 31.79 61.53 28.84 54.11 31.46 C 51.73 32.30 49.35 32.72 48.82 32.39 C 45.49 30.33 34.53 17.48 34.74 15.88 C 34.90 14.57 34.35 14.00 32.93 14.00 C 31.76 14.00 31.16 13.55 31.53 12.95 C 31.89 12.38 31.12 10.88 29.84 9.64 C 26.71 6.61 18.64 7.04 16.57 10.35 C 14.48 13.71 13.66 21.00 15.37 21.00 C 16.14 21.00 17.02 21.97 17.33 23.16 C 17.83 25.07 18.10 25.16 19.59 23.92 C 21.13 22.65 21.22 22.74 20.53 24.90 C 19.88 26.96 20.05 27.22 21.78 26.77 C 23.30 26.37 25.72 28.19 31.84 34.37 C 39.63 42.24 39.84 42.58 38.48 45.00 C 36.54 48.44 36.67 53.94 38.76 57.32 C 39.71 58.87 42.71 61.35 45.42 62.82 C 49.98 65.31 50.45 65.93 51.98 71.50 C 56.29 87.16 63.75 92.39 76.38 88.58 Z M 61.52 82.72 C 59.38 80.58 57.65 77.37 56.53 73.47 C 53.91 64.34 52.84 62.72 47.47 59.81 C 40.96 56.28 38.79 50.88 41.76 45.64 C 42.38 44.55 55.00 57.81 55.00 59.55 C 55.00 61.60 59.99 65.00 63.00 65.00 C 66.12 65.00 70.59 61.86 71.48 59.05 C 72.34 56.34 69.59 50.38 66.83 48.97 C 64.22 47.63 53.00 36.97 53.00 35.83 C 53.00 34.46 60.12 33.73 62.58 34.85 C 63.96 35.49 66.12 38.25 67.63 41.31 C 70.24 46.64 70.30 46.69 78.54 49.37 C 85.18 51.53 87.54 52.86 90.41 56.04 C 92.39 58.22 94.00 60.71 94.00 61.56 C 94.00 73.12 81.06 86.00 69.44 86.00 C 65.53 86.00 64.28 85.48 61.52 82.72 Z M 10.16 83.00 C 10.16 81.62 10.38 81.06 10.66 81.75 C 10.94 82.44 10.94 83.56 10.66 84.25 C 10.38 84.94 10.16 84.38 10.16 83.00 Z M 9.02 78.25 C 9.02 77.84 9.47 76.83 10.00 76.00 C 10.78 74.79 10.97 74.93 10.98 76.75 C 10.99 77.99 10.55 79.00 10.00 79.00 C 9.45 79.00 9.01 78.66 9.02 78.25 Z M 79.30 72.49 C 84.63 67.44 85.75 64.97 82.69 65.02 C 81.28 65.04 70.00 75.76 70.00 77.08 C 70.00 79.47 74.04 77.47 79.30 72.49 Z M 75.35 68.87 C 80.75 63.97 82.03 61.75 80.13 60.58 C 78.96 59.86 67.00 70.82 67.00 72.60 C 67.00 75.21 69.69 74.01 75.35 68.87 Z M 10.16 71.00 C 10.16 69.62 10.38 69.06 10.66 69.75 C 10.94 70.44 10.94 71.56 10.66 72.25 C 10.38 72.94 10.16 72.38 10.16 71.00 Z M 9.08 64.42 C 9.13 63.25 9.36 63.01 9.68 63.81 C 9.97 64.53 9.94 65.40 9.60 65.73 C 9.27 66.06 9.04 65.47 9.08 64.42 Z M 59.57 59.43 C 57.73 57.59 57.63 56.56 59.04 53.93 C 60.81 50.62 68.00 52.39 68.00 56.14 C 68.00 60.47 62.68 62.54 59.57 59.43 Z M 42.57 39.90 C 36.15 33.24 31.06 27.31 31.26 26.72 C 31.46 26.13 32.35 25.18 33.23 24.62 C 34.55 23.79 37.10 25.87 47.03 35.86 C 58.84 47.75 59.15 48.18 57.45 50.06 C 56.48 51.13 55.36 52.00 54.96 52.00 C 54.56 52.00 48.98 46.55 42.57 39.90 Z M 22.87 19.11 C 19.13 15.36 18.43 12.00 21.40 12.00 C 23.63 12.00 30.11 19.54 29.43 21.33 C 28.47 23.84 27.16 23.39 22.87 19.11 Z M 15.25 4.34 C 14.56 4.06 13.44 4.06 12.75 4.34 C 12.06 4.62 12.62 4.84 14.00 4.84 C 15.38 4.84 15.94 4.62 15.25 4.34 Z" fill="none" stroke="rgba(255,255,255,0.92)" stroke-width="1.2" stroke-linejoin="round" fill-rule="evenodd"/>
</svg>
