<svg xmlns="http://www.w3.org/2000/svg" viewBox="0 0 100 100" width="100" height="100">
  <path d="M 0.00 50.00 L 0.00 0.00 L 50.00 0.00 L 100.00 0.00 L 100.00 50.00 L 100.00 100.00 L 50.00 100.00 L 0.00 100.00 L 0.00 50.00 Z M 95.28 75.75 C 95.15 64.61 95.02 43.97 94.99 29.87 L 94.92 4.24 L 76.71 4.56 C 66.70 4.73 46.24 4.95 31.25 5.05 L 4.00 5.22 L 4.00 7.92 L 4.00 10.61 L 26.25 10.34 C 38.49 10.19 57.37 9.96 68.22 9.83 C 79.06 9.70 88.27 9.94 88.69 10.36 C 89.11 10.78 89.54 26.05 89.65 44.31 C 89.75 62.56 89.88 81.66 89.92 86.75 L 90.00 96.00 L 92.76 96.00 L 95.51 96.00 L 95.28 75.75 Z M 76.24 77.04 C 81.73 74.33 82.23 72.37 82.09 53.62 C 81.95 34.19 81.42 32.57 74.40 30.15 C 69.65 28.51 48.94 29.14 44.76 31.05 C 40.79 32.87 38.86 36.46 38.25 43.13 L 37.72 49.00 L 20.86 49.00 L 4.00 49.00 L 4.00 54.50 L 4.00 60.00 L 21.50 60.00 L 39.00 60.00 L 39.01 65.25 C 39.03 71.79 40.52 74.75 45.00 77.20 C 48.04 78.86 50.14 79.07 61.00 78.75 C 68.74 78.52 74.54 77.87 76.24 77.04 Z M 47.03 71.23 C 45.02 69.60 44.80 68.32 44.29 54.81 L 43.74 40.17 L 46.33 37.58 C 48.81 35.10 49.35 35.00 60.76 35.00 C 69.10 35.00 73.16 35.40 74.45 36.34 C 76.06 37.52 76.34 39.60 76.71 53.22 L 77.13 68.75 L 74.43 70.88 C 72.04 72.76 70.43 73.00 60.48 73.00 C 51.20 73.00 48.84 72.69 47.03 71.23 Z M 69.00 44.00 C 69.00 43.45 68.55 43.00 68.00 43.00 C 67.45 43.00 67.00 43.45 67.00 44.00 C 67.00 44.55 67.45 45.00 68.00 45.00 C 68.55 45.00 69.00 44.55 69.00 44.00 Z M 8.81 8.32 C 9.53 8.03 10.40 8.06 10.73 8.40 C 11.06 8.73 10.47 8.96 9.42 8.92 C 8.25 8.87 8.01 8.64 8.81 8.32 Z" fill="none" stroke="rgba(255,255,255,0.92)" stroke-width="1.2" stroke-linejoin="round" fill-rule="evenodd"/>
</svg>
