<svg xmlns="http://www.w3.org/2000/svg" viewBox="0 0 100 100" width="100" height="100">
  <path d="M 0.00 50.00 L 0.00 0.00 L 50.00 0.00 L 100.00 0.00 L 100.00 50.00 L 100.00 100.00 L 50.00 100.00 L 0.00 100.00 L 0.00 50.00 Z M 95.77 28.33 L 95.50 5.66 L 77.00 5.85 C 46.94 6.15 4.53 7.17 4.08 7.60 C 2.79 8.84 6.12 9.49 13.33 9.39 C 17.82 9.34 35.33 9.10 52.24 8.86 C 69.15 8.63 83.11 8.83 83.27 9.30 C 83.42 9.77 84.68 9.65 86.06 9.02 C 87.79 8.23 89.36 8.19 91.19 8.88 L 93.82 9.88 L 94.03 39.69 C 94.31 78.93 94.60 94.28 95.07 95.50 C 95.64 96.96 96.08 54.63 95.77 28.33 Z M 4.69 89.27 C 4.44 88.30 4.22 88.85 4.19 90.50 C 4.17 92.15 4.38 92.95 4.66 92.27 C 4.93 91.59 4.95 90.24 4.69 89.27 Z M 68.62 86.71 C 77.06 82.41 82.93 73.63 82.98 65.25 C 83.01 59.12 80.46 59.51 79.63 65.77 C 78.11 77.17 67.47 86.21 55.33 86.40 C 51.85 86.46 49.00 86.84 49.00 87.25 C 49.00 87.66 49.00 88.51 49.00 89.13 C 49.00 91.31 62.97 89.58 68.62 86.71 Z M 4.69 83.27 C 4.44 82.30 4.22 82.85 4.19 84.50 C 4.17 86.15 4.38 86.95 4.66 86.27 C 4.93 85.59 4.95 84.24 4.69 83.27 Z M 64.69 80.91 C 70.29 78.20 74.67 72.80 75.88 67.11 C 76.92 62.25 76.65 61.00 74.57 61.00 C 73.83 61.00 72.99 62.63 72.65 64.75 C 71.86 69.64 67.77 75.55 63.72 77.65 C 61.95 78.57 58.36 79.40 55.75 79.49 C 50.66 79.67 49.42 80.25 50.46 81.93 C 51.58 83.75 60.09 83.13 64.69 80.91 Z M 4.68 76.81 C 4.36 76.01 4.13 76.25 4.08 77.42 C 4.04 78.47 4.27 79.06 4.60 78.73 C 4.94 78.40 4.97 77.53 4.68 76.81 Z M 43.43 73.25 C 45.71 71.19 52.87 65.04 59.32 59.59 C 65.78 54.15 70.94 49.37 70.78 48.98 C 70.63 48.59 64.69 41.72 57.59 33.71 L 44.69 19.14 L 35.08 27.32 C 29.80 31.82 22.48 37.98 18.81 41.00 C 15.14 44.02 12.22 46.80 12.32 47.16 C 12.53 47.92 38.31 76.80 38.89 76.92 C 39.10 76.96 41.15 75.31 43.43 73.25 Z M 65.69 71.64 C 67.91 69.22 69.00 67.03 69.00 65.01 C 69.00 60.84 66.70 61.17 65.11 65.57 C 63.65 69.61 58.93 72.99 54.75 73.00 C 52.88 73.00 52.00 73.52 52.00 74.63 C 52.00 75.99 52.86 76.17 57.19 75.76 C 61.55 75.34 62.90 74.68 65.69 71.64 Z M 30.43 58.94 C 25.52 53.40 21.37 48.29 21.21 47.59 C 21.05 46.89 23.07 44.58 25.71 42.46 C 28.34 40.34 33.50 35.98 37.17 32.77 L 43.84 26.93 L 53.54 37.67 L 63.23 48.40 L 60.81 50.45 C 59.48 51.58 55.97 54.52 53.03 57.00 C 46.80 62.23 46.38 62.60 42.38 66.26 L 39.36 69.03 L 30.43 58.94 Z M 4.68 64.81 C 4.36 64.01 4.13 64.25 4.08 65.42 C 4.04 66.47 4.27 67.06 4.60 66.73 C 4.94 66.40 4.97 65.53 4.68 64.81 Z M 4.68 57.81 C 4.36 57.01 4.13 57.25 4.08 58.42 C 4.04 59.47 4.27 60.06 4.60 59.73 C 4.94 59.40 4.97 58.53 4.68 57.81 Z" fill="none" stroke="rgba(255,255,255,0.92)" stroke-width="1.2" stroke-linejoin="round" fill-rule="evenodd"/>
</svg>
