<svg xmlns="http://www.w3.org/2000/svg" viewBox="0 0 100 100" width="100" height="100">
  <path d="M 0.00 50.00 L 0.00 0.00 L 50.00 0.00 L 100.00 0.00 L 100.00 50.00 L 100.00 100.00 L 50.00 100.00 L 0.00 100.00 L 0.00 50.00 Z M 10.42 93.45 C 10.77 92.05 10.75 90.41 10.37 89.80 C 9.42 88.26 9.32 54.00 10.27 54.00 C 10.69 54.00 10.78 52.98 10.47 51.72 C 9.59 48.24 9.31 24.85 10.11 21.84 C 10.56 20.12 10.30 18.44 9.37 17.11 C 8.09 15.30 8.12 14.75 9.58 12.52 C 11.30 9.89 12.16 9.49 13.42 10.75 C 14.29 11.62 19.98 11.78 19.45 10.92 C 19.25 10.60 22.22 10.38 26.05 10.42 C 29.87 10.46 33.12 10.13 33.27 9.69 C 33.42 9.24 34.84 9.37 36.44 9.98 C 38.40 10.72 39.54 10.75 39.97 10.05 C 40.37 9.40 41.70 9.34 43.60 9.88 C 45.25 10.36 48.62 10.44 51.10 10.06 C 53.58 9.68 57.83 9.52 60.55 9.70 C 66.53 10.09 65.35 10.07 82.25 10.04 C 95.35 10.02 96.00 9.92 96.00 8.01 C 96.00 6.11 95.32 5.99 83.25 5.89 C 71.12 5.79 48.87 5.80 18.84 5.94 L 5.19 6.00 L 5.24 51.00 L 5.29 96.00 L 7.54 96.00 C 9.11 96.00 9.97 95.24 10.42 93.45 Z M 51.89 94.62 C 49.90 93.91 46.91 92.36 45.25 91.18 C 42.61 89.30 42.07 89.21 40.99 90.51 C 38.82 93.13 43.48 95.94 50.00 95.92 L 55.50 95.91 L 51.89 94.62 Z M 75.30 92.09 C 79.55 87.39 81.31 84.30 80.49 82.98 C 79.31 81.08 77.17 82.04 75.21 85.36 C 72.90 89.28 67.34 93.77 63.32 94.98 C 60.97 95.69 61.44 95.84 66.13 95.91 C 71.46 96.00 71.96 95.79 75.30 92.09 Z M 86.88 92.00 C 89.09 88.07 89.02 85.94 86.69 86.06 C 86.04 86.09 84.07 88.34 82.33 91.06 L 79.15 96.00 L 81.89 96.00 C 84.05 96.00 85.11 95.15 86.88 92.00 Z M 64.96 88.02 C 68.70 86.11 73.00 81.34 73.00 79.10 C 73.00 77.18 69.11 77.92 67.97 80.05 C 66.51 82.78 61.12 85.99 57.99 86.00 C 56.60 86.00 53.90 85.17 51.99 84.15 C 45.58 80.75 43.48 84.15 49.75 87.78 C 54.44 90.50 59.93 90.59 64.96 88.02 Z M 35.00 79.60 C 48.68 77.09 65.48 74.22 80.36 71.86 L 94.23 69.66 L 93.64 65.08 C 93.31 62.56 92.10 53.75 90.94 45.50 C 89.77 37.25 88.62 29.04 88.37 27.25 C 87.96 24.35 87.56 24.00 84.70 24.01 C 81.75 24.02 36.82 31.31 22.13 34.16 L 15.76 35.40 L 16.42 42.63 C 16.78 46.61 17.69 53.16 18.45 57.19 C 19.21 61.21 20.15 67.65 20.54 71.50 C 21.37 79.69 22.32 81.94 24.74 81.49 C 25.71 81.31 30.32 80.46 35.00 79.60 Z M 27.44 70.28 C 27.11 68.75 26.60 66.83 26.32 66.00 C 25.06 62.31 23.16 41.52 24.03 40.98 C 24.88 40.46 31.32 39.30 68.70 32.91 C 74.86 31.86 80.34 31.00 80.88 31.00 C 82.39 31.00 83.76 36.60 85.01 48.00 C 85.64 53.78 86.40 59.71 86.69 61.18 C 87.29 64.21 89.01 63.68 69.50 66.54 C 63.45 67.42 54.00 68.97 48.50 69.98 C 43.00 70.98 36.15 72.09 33.28 72.43 C 28.18 73.05 28.04 73.00 27.44 70.28 Z" fill="none" stroke="rgba(255,255,255,0.92)" stroke-width="1.2" stroke-linejoin="round" fill-rule="evenodd"/>
</svg>
