<svg xmlns="http://www.w3.org/2000/svg" viewBox="0 0 400 218" width="400" height="218">
  <path d="M 0.00 109.00 L 0.00 0.00 L 200.00 0.00 L 400.00 0.00 L 400.00 109.00 L 400.00 218.00 L 386.53 218.00 L 373.07 218.00 L 375.14 214.49 C 377.12 211.14 377.11 208.00 375.13 208.00 C 373.96 208.00 370.00 214.61 370.00 216.56 C 370.00 217.81 345.52 218.00 185.00 218.00 L 0.00 218.00 L 0.00 109.00 Z M 300.47 163.50 L 300.53 113.50 L 347.85 113.00 L 395.16 112.50 L 394.96 66.50 C 394.84 41.20 394.76 17.06 394.76 12.86 L 394.76 5.22 L 200.35 5.47 C 93.43 5.61 5.76 5.91 5.53 6.14 C 4.98 6.69 4.91 15.65 5.03 68.56 L 5.13 112.61 L 52.70 112.78 C 78.87 112.87 100.55 113.21 100.88 113.55 C 101.49 114.16 101.85 137.53 101.99 186.20 L 102.07 212.90 L 107.29 213.20 C 110.15 213.36 154.78 213.50 206.45 213.50 L 300.40 213.50 L 300.47 163.50 Z M 204.12 161.02 L 204.13 113.11 L 249.57 113.18 L 295.00 113.24 L 295.00 160.12 L 295.00 207.00 L 291.25 207.03 C 259.63 207.27 208.87 208.15 206.81 208.49 L 204.11 208.93 L 204.12 161.02 Z M 107.59 207.00 C 107.47 206.72 107.40 185.57 107.44 160.00 L 107.50 113.50 L 153.00 113.24 L 198.50 112.98 L 198.50 160.58 L 198.50 208.17 L 153.16 207.84 C 128.22 207.65 107.72 207.28 107.59 207.00 Z M 380.12 200.93 C 381.49 196.02 381.12 193.00 379.14 193.00 C 377.68 193.00 377.13 194.00 376.64 197.60 C 376.29 200.14 376.27 202.63 376.60 203.16 C 377.55 204.70 379.39 203.53 380.12 200.93 Z M 380.60 186.60 C 381.45 184.39 379.08 177.00 377.52 177.00 C 375.33 177.00 375.07 178.20 376.16 183.28 C 377.15 187.94 379.43 189.65 380.60 186.60 Z M 376.00 170.56 C 376.00 167.85 371.94 162.09 370.43 162.66 C 368.49 163.41 368.63 164.66 371.08 168.63 C 373.20 172.07 376.00 173.16 376.00 170.56 Z M 361.47 160.03 C 362.45 158.95 364.21 158.16 365.37 158.28 C 367.00 158.45 367.51 157.94 367.52 156.14 C 367.54 154.84 368.77 152.74 370.27 151.44 C 371.77 150.15 373.00 148.74 373.00 148.30 C 373.00 147.86 370.64 146.20 367.75 144.61 C 364.86 143.02 359.22 139.70 355.21 137.23 C 351.20 134.76 347.70 132.97 347.42 133.25 C 347.15 133.52 349.19 139.98 351.96 147.59 C 354.73 155.20 357.00 161.56 357.00 161.72 C 357.00 162.78 360.00 161.65 361.47 160.03 Z M 200.00 117.94 C 200.00 117.36 200.45 117.16 201.00 117.50 C 201.55 117.84 202.00 118.32 202.00 118.56 C 202.00 118.80 201.55 119.00 201.00 119.00 C 200.45 119.00 200.00 118.52 200.00 117.94 Z M 221.25 107.23 L 204.00 106.95 L 204.00 59.98 C 204.00 34.14 204.00 12.66 204.00 12.25 C 204.00 11.84 224.36 11.50 249.25 11.50 L 294.50 11.50 L 294.80 59.25 L 295.11 107.00 L 280.30 107.06 C 272.16 107.10 259.43 107.21 252.00 107.31 C 244.57 107.42 230.74 107.38 221.25 107.23 Z M 323.75 107.24 C 306.56 107.03 301.00 106.66 300.99 105.73 C 300.99 105.05 300.77 83.55 300.50 57.95 L 300.01 11.41 L 344.51 11.14 L 389.00 10.88 L 389.11 35.19 C 389.18 48.56 389.34 70.19 389.48 83.25 L 389.73 107.00 L 369.45 107.00 C 358.29 107.00 348.56 107.12 347.83 107.26 C 347.10 107.40 336.26 107.39 323.75 107.24 Z M 10.76 103.85 C 10.51 102.11 10.45 97.83 10.62 94.34 C 10.90 88.89 10.71 88.00 9.22 87.98 C 7.82 87.97 7.77 87.80 8.91 87.08 C 10.43 86.11 11.39 73.00 9.93 73.00 C 9.50 73.00 9.53 71.65 10.00 70.00 C 10.71 67.52 10.57 67.00 9.18 66.98 C 7.86 66.97 7.79 66.78 8.85 66.11 C 10.22 65.24 10.37 62.49 10.10 42.17 C 10.03 37.04 10.23 32.44 10.54 31.94 C 10.84 31.45 10.60 30.12 10.00 29.00 C 9.40 27.88 9.22 26.45 9.61 25.82 C 9.99 25.20 10.21 21.68 10.09 18.01 L 9.88 11.33 L 55.69 11.36 L 101.50 11.39 L 101.47 58.94 L 101.43 106.50 L 56.33 106.75 L 11.23 107.00 L 10.76 103.85 Z M 106.94 65.50 C 106.91 42.67 106.86 21.19 106.82 17.75 L 106.76 11.50 L 152.63 11.46 L 198.50 11.42 L 198.50 59.21 L 198.50 107.00 L 152.75 107.00 L 107.00 107.00 L 106.94 65.50 Z M 354.74 100.47 C 359.94 98.31 366.00 93.99 366.00 92.45 C 366.00 90.20 363.59 90.24 360.50 92.54 C 354.32 97.12 350.70 98.37 343.50 98.40 C 332.22 98.46 325.08 94.30 316.50 82.69 C 315.06 80.73 314.11 80.24 313.09 80.90 C 311.93 81.65 312.27 82.74 314.94 86.91 C 319.74 94.38 327.28 99.85 335.72 101.97 C 340.61 103.19 349.96 102.46 354.74 100.47 Z M 67.75 100.48 C 74.12 98.59 81.67 92.72 85.85 86.41 C 88.74 82.05 88.88 81.51 87.32 80.64 C 86.03 79.92 85.34 80.14 84.55 81.55 C 83.97 82.57 81.31 85.78 78.63 88.68 C 68.56 99.57 52.47 101.13 39.91 92.43 C 36.66 90.19 33.00 89.92 33.00 91.92 C 33.00 93.52 42.76 99.47 47.99 101.07 C 52.28 102.37 62.40 102.07 67.75 100.48 Z M 68.66 90.17 C 73.08 87.92 81.28 79.34 80.69 77.58 C 79.91 75.22 77.14 76.04 75.18 79.21 C 71.48 85.19 64.36 89.00 56.90 89.00 C 52.79 89.00 49.13 87.71 44.66 84.67 C 42.14 82.96 41.66 82.91 40.33 84.24 C 39.00 85.58 39.19 86.00 42.05 88.04 C 49.65 93.45 60.53 94.32 68.66 90.17 Z M 351.00 91.97 C 352.93 91.41 355.84 89.85 357.48 88.51 C 359.87 86.54 360.21 85.81 359.20 84.80 C 358.20 83.80 357.60 83.79 356.22 84.79 C 345.48 92.58 332.98 90.17 324.50 78.69 C 323.11 76.81 322.09 76.25 321.16 76.86 C 318.22 78.77 326.31 88.48 333.42 91.58 C 337.11 93.19 346.14 93.38 351.00 91.97 Z M 61.94 83.02 C 65.58 81.97 72.00 76.45 72.00 74.36 C 72.00 71.77 70.14 72.16 66.72 75.48 C 64.78 77.37 62.02 79.21 60.59 79.57 C 57.16 80.43 51.51 79.32 50.00 77.49 C 49.10 76.42 48.30 76.31 46.89 77.06 C 44.00 78.60 44.57 79.56 49.75 81.84 C 55.14 84.22 57.09 84.41 61.94 83.02 Z M 350.75 82.01 C 352.54 80.92 354.00 79.56 354.00 78.98 C 354.00 77.05 351.19 76.83 348.56 78.55 C 344.25 81.38 337.23 80.04 333.45 75.66 C 331.23 73.09 330.01 72.38 328.95 73.03 C 327.70 73.81 327.72 74.31 329.15 76.72 C 333.10 83.35 344.12 86.06 350.75 82.01 Z M 43.24 72.60 C 54.38 70.73 68.45 68.44 74.50 67.52 C 94.02 64.55 93.52 64.69 93.31 61.94 C 93.21 60.60 92.42 54.78 91.56 49.00 C 90.69 43.22 89.46 34.67 88.82 30.00 C 88.18 25.32 87.57 21.38 87.47 21.23 C 87.17 20.79 18.79 31.56 16.39 32.43 C 15.62 32.71 15.53 34.48 16.09 38.17 C 20.75 68.87 21.97 76.00 22.57 76.00 C 22.80 76.00 32.10 74.47 43.24 72.60 Z M 380.24 55.52 C 381.75 44.26 383.10 34.49 383.24 33.81 C 383.40 33.03 381.26 32.12 377.50 31.36 C 367.35 29.31 312.93 20.74 312.57 21.13 C 312.30 21.43 309.61 41.45 307.28 60.50 L 306.80 64.50 L 339.65 70.14 C 357.72 73.25 373.63 75.83 375.00 75.89 L 377.50 76.00 L 380.24 55.52 Z M 26.98 68.77 C 26.98 68.62 25.87 61.75 24.53 53.50 C 23.19 45.25 22.41 38.24 22.80 37.92 C 23.18 37.60 31.38 36.11 41.00 34.60 C 50.62 33.10 62.10 31.25 66.50 30.50 C 70.90 29.74 76.30 28.98 78.50 28.81 L 82.50 28.50 L 83.65 37.00 C 84.28 41.67 85.31 48.37 85.94 51.87 C 86.57 55.38 86.85 58.49 86.55 58.78 C 86.26 59.07 73.76 61.26 58.76 63.64 C 43.77 66.02 30.49 68.21 29.25 68.50 C 28.01 68.80 26.99 68.92 26.98 68.77 Z M 342.83 64.16 C 327.61 61.60 314.85 59.19 314.47 58.81 C 313.70 58.03 316.90 29.89 317.89 28.78 C 318.25 28.39 329.55 29.86 343.02 32.05 C 356.48 34.25 369.41 36.32 371.75 36.66 C 376.82 37.39 376.76 36.98 374.38 54.50 C 372.51 68.24 372.34 69.03 371.28 68.91 C 370.85 68.86 358.05 66.72 342.83 64.16 Z M 104.00 41.00 C 104.00 40.45 104.48 40.00 105.06 40.00 C 105.64 40.00 105.84 40.45 105.50 41.00 C 105.16 41.55 104.68 42.00 104.44 42.00 C 104.20 42.00 104.00 41.55 104.00 41.00 Z M 193.81 9.32 C 194.53 9.03 195.40 9.06 195.73 9.40 C 196.06 9.73 195.47 9.96 194.42 9.92 C 193.25 9.87 193.01 9.64 193.81 9.32 Z" fill="none" stroke="rgba(255,255,255,0.92)" stroke-width="1.5" stroke-linejoin="round" fill-rule="evenodd"/>
</svg>
