<svg xmlns="http://www.w3.org/2000/svg" viewBox="0 0 100 100" width="100" height="100">
  <path d="M 0.00 50.00 L 0.00 0.00 L 50.00 0.00 L 100.00 0.00 L 100.00 50.00 L 100.00 100.00 L 50.00 100.00 L 0.00 100.00 L 0.00 50.00 Z M 34.41 92.92 L 37.00 89.85 L 37.00 64.42 L 37.00 39.00 L 52.88 39.00 C 67.20 39.00 68.80 39.17 69.14 40.75 C 69.82 43.95 69.42 75.00 68.69 75.06 C 68.30 75.09 65.99 74.82 63.57 74.46 C 51.81 72.70 41.34 82.73 46.56 90.75 C 49.60 95.42 50.97 95.93 60.56 95.97 C 69.25 96.00 69.74 95.88 72.36 93.14 L 75.10 90.28 L 75.16 61.39 L 75.21 32.50 L 53.11 32.48 L 31.00 32.45 L 31.00 54.01 L 31.00 75.57 L 24.05 75.17 C 18.19 74.84 16.53 75.13 13.52 76.99 C 6.86 81.10 5.23 87.74 9.59 92.92 C 12.16 95.97 12.26 96.00 22.00 96.00 C 31.74 96.00 31.84 95.97 34.41 92.92 Z M 96.00 50.35 L 96.00 4.69 L 83.84 5.35 C 77.16 5.71 56.46 6.00 37.84 6.00 L 4.00 6.00 L 4.00 9.63 L 4.00 13.26 L 48.65 12.88 L 93.30 12.50 L 93.43 17.50 C 93.50 20.25 93.66 39.04 93.78 59.25 C 93.92 82.94 94.36 96.00 95.00 96.00 C 95.65 96.00 96.00 80.12 96.00 50.35 Z" fill="none" stroke="rgba(255,255,255,0.92)" stroke-width="1.2" stroke-linejoin="round" fill-rule="evenodd"/>
</svg>
