<svg xmlns="http://www.w3.org/2000/svg" viewBox="0 0 400 281" width="400" height="281">
  <path d="M 0.00 140.51 L 0.00 0.00 L 200.00 0.00 L 400.00 0.00 L 400.00 140.51 L 400.00 281.02 L 349.75 280.76 L 299.50 280.50 L 299.49 251.32 C 299.48 235.27 299.17 221.84 298.80 221.47 C 298.43 221.10 298.52 219.76 299.00 218.50 C 299.48 217.25 299.64 215.33 299.35 214.24 C 298.85 212.30 299.53 212.28 347.29 212.47 L 395.73 212.67 L 395.39 139.58 C 395.20 99.39 394.92 52.56 394.77 35.53 L 394.50 4.56 L 358.00 4.81 C 337.93 4.95 253.33 5.23 170.00 5.43 C 86.67 5.64 15.52 5.85 11.87 5.90 L 5.24 6.00 L 5.37 109.25 L 5.50 212.50 L 54.00 212.50 L 102.50 212.50 L 102.50 246.50 L 102.50 280.50 L 51.25 280.76 L 0.00 281.02 L 0.00 140.51 Z M 107.88 276.75 C 107.82 274.41 107.87 272.05 108.01 271.50 C 108.14 270.95 108.24 270.05 108.23 269.50 C 108.21 268.95 108.09 255.90 107.96 240.50 C 107.79 220.10 108.04 212.53 108.86 212.60 C 109.49 212.66 129.99 212.77 154.43 212.85 L 198.86 213.00 L 198.91 247.00 L 198.96 281.00 L 153.48 281.00 L 108.00 281.00 L 107.88 276.75 Z M 204.07 250.74 C 204.12 234.10 204.07 220.04 203.96 219.49 C 203.85 218.95 203.82 217.29 203.88 215.80 L 204.00 213.11 L 227.75 213.02 C 240.81 212.98 261.18 212.82 273.00 212.68 L 294.50 212.42 L 294.22 245.46 C 294.07 263.63 293.75 279.06 293.50 279.75 C 293.16 280.72 283.25 281.00 248.52 281.00 L 203.98 281.00 L 204.07 250.74 Z M 139.00 207.24 L 107.50 206.97 L 107.51 163.24 C 107.51 139.18 107.34 118.26 107.14 116.75 C 106.87 114.69 106.22 114.00 104.56 114.00 L 102.35 114.00 L 102.53 159.36 C 102.63 184.31 103.01 205.21 103.39 205.82 C 103.87 206.61 90.97 206.85 57.28 206.71 L 10.50 206.50 L 10.46 159.00 L 10.41 111.50 L 47.96 111.70 C 68.61 111.80 102.60 112.42 123.50 113.08 C 144.40 113.73 169.60 114.03 179.50 113.76 C 189.40 113.48 198.62 113.60 200.00 114.03 C 202.36 114.76 202.38 114.81 200.28 114.90 L 198.05 115.00 L 198.41 151.25 C 198.60 171.19 198.87 187.72 199.00 188.00 C 199.13 188.28 199.11 188.95 198.95 189.50 C 198.79 190.05 198.63 194.32 198.58 198.99 L 198.50 207.49 L 184.50 207.49 C 176.80 207.50 156.32 207.38 139.00 207.24 Z M 203.91 206.03 C 203.87 205.19 203.75 183.97 203.66 158.88 L 203.50 113.26 L 232.50 112.67 C 280.55 111.69 388.82 111.91 389.49 112.99 C 390.30 114.29 390.35 204.63 389.54 205.93 C 389.13 206.60 373.72 206.90 344.12 206.81 L 299.32 206.67 L 299.22 161.08 C 299.16 136.01 299.09 115.16 299.06 114.75 C 299.02 114.34 297.86 114.00 296.48 114.00 C 294.20 114.00 293.96 114.38 294.07 117.75 C 294.13 119.81 294.16 132.07 294.12 145.00 C 294.09 157.93 294.16 177.14 294.28 187.70 L 294.50 206.90 L 271.00 206.99 C 258.07 207.04 237.71 207.18 225.75 207.31 C 206.84 207.52 203.99 207.35 203.91 206.03 Z M 11.83 105.93 C 10.45 105.15 10.23 103.39 10.44 94.75 C 10.58 89.11 10.46 84.07 10.16 83.55 C 9.72 82.76 9.58 51.05 10.01 50.25 C 10.20 49.89 10.17 41.14 9.98 40.25 C 9.44 37.84 9.59 22.15 10.17 20.37 C 10.59 19.07 10.26 17.39 9.33 16.06 C 7.95 14.08 7.96 13.70 9.51 11.99 C 10.90 10.46 12.21 10.19 16.36 10.56 C 19.19 10.82 20.98 10.68 20.35 10.26 C 19.71 9.84 36.70 9.43 58.10 9.33 C 81.44 9.24 96.79 9.54 96.45 10.08 C 96.14 10.59 97.03 11.00 98.44 11.00 C 100.98 11.00 101.00 11.06 100.97 19.25 C 100.95 23.79 101.19 45.16 101.50 66.75 L 102.06 106.00 L 79.74 106.00 C 67.47 106.00 47.53 106.19 35.45 106.42 C 23.07 106.66 12.76 106.44 11.83 105.93 Z M 110.25 106.37 C 108.00 105.86 108.00 105.86 107.99 83.68 C 107.98 71.48 107.86 50.48 107.74 37.00 L 107.50 12.50 L 122.00 12.47 C 129.97 12.45 171.82 12.23 215.00 11.97 L 293.50 11.50 L 293.50 58.16 C 293.50 83.83 293.26 105.07 292.97 105.36 C 292.28 106.05 113.20 107.04 110.25 106.37 Z M 301.69 106.18 C 300.13 105.88 300.00 102.09 300.02 56.68 C 300.02 27.03 300.39 8.07 300.93 8.93 C 301.68 10.11 305.94 10.32 325.58 10.14 C 338.64 10.02 349.70 9.69 350.16 9.40 C 350.62 9.12 351.00 9.25 351.00 9.69 C 351.00 10.14 353.14 10.40 355.75 10.28 C 358.36 10.16 365.68 10.07 372.00 10.08 C 378.32 10.10 384.93 10.09 386.68 10.06 L 389.86 10.01 L 389.94 58.01 C 390.01 95.93 389.76 106.03 388.76 106.15 C 386.11 106.46 303.30 106.48 301.69 106.18 Z M 71.26 99.74 C 77.93 96.69 83.73 91.60 86.83 86.10 C 88.96 82.30 89.00 81.94 87.39 81.32 C 86.18 80.86 85.16 81.39 84.07 83.05 C 78.44 91.66 72.01 96.30 63.22 98.12 C 55.66 99.68 48.39 98.27 41.50 93.90 C 37.08 91.10 34.00 90.67 34.00 92.86 C 34.00 94.40 43.67 100.11 48.75 101.57 C 55.47 103.51 64.66 102.76 71.26 99.74 Z M 355.97 100.03 C 361.41 97.24 366.00 93.92 366.00 92.78 C 366.00 90.73 362.82 91.04 359.73 93.39 C 346.85 103.22 328.37 99.87 318.33 85.90 C 315.00 81.26 312.78 79.93 311.58 81.86 C 310.59 83.48 318.52 93.48 323.39 96.75 C 326.06 98.54 330.32 100.68 332.87 101.49 C 339.49 103.62 350.30 102.93 355.97 100.03 Z M 64.61 92.52 C 70.15 90.88 77.25 85.35 79.56 80.88 C 80.91 78.26 80.91 77.90 79.51 77.37 C 78.48 76.97 76.59 78.32 73.86 81.42 C 68.54 87.47 64.80 89.32 57.94 89.33 C 53.75 89.33 51.13 88.65 47.28 86.55 C 42.63 84.03 40.00 83.80 40.00 85.93 C 40.00 87.45 47.68 91.82 52.09 92.80 C 58.32 94.19 59.05 94.18 64.61 92.52 Z M 353.64 91.18 C 358.84 88.53 360.90 86.17 359.03 85.02 C 358.17 84.48 356.28 85.11 353.82 86.74 C 344.12 93.16 331.64 89.79 323.67 78.61 C 322.67 77.21 321.88 76.97 320.63 77.67 C 319.10 78.52 319.23 79.01 321.88 82.68 C 329.51 93.21 342.73 96.75 353.64 91.18 Z M 141.02 90.38 C 147.70 87.70 148.00 86.38 148.00 59.52 L 148.00 35.95 L 163.75 36.22 L 179.50 36.50 L 180.00 53.75 L 180.50 71.00 L 177.00 70.33 C 168.48 68.68 160.63 70.98 157.67 75.98 C 154.34 81.63 156.21 86.54 163.03 90.01 C 170.11 93.63 179.46 92.04 183.83 86.49 C 185.93 83.81 186.00 82.91 186.00 56.87 L 186.00 30.00 L 164.00 30.00 L 142.00 30.00 L 142.00 50.61 C 142.00 69.82 141.88 71.17 140.25 70.54 C 139.29 70.16 136.47 69.63 134.00 69.36 C 125.44 68.41 115.60 76.20 117.86 82.13 C 120.96 90.25 131.74 94.09 141.02 90.38 Z M 229.36 90.62 C 231.18 89.86 233.64 88.00 234.83 86.49 C 236.91 83.84 237.00 82.82 237.00 60.51 L 237.00 37.30 L 246.15 36.65 C 260.84 35.61 268.99 35.82 269.08 37.25 C 269.13 37.94 269.21 45.70 269.25 54.50 C 269.32 67.84 269.10 70.44 267.92 70.15 C 267.14 69.96 264.02 69.78 261.00 69.75 C 250.31 69.63 242.96 76.66 246.03 84.06 C 249.77 93.09 268.63 94.23 273.92 85.76 C 274.85 84.27 275.17 76.76 275.17 57.12 L 275.16 30.50 L 253.08 30.39 L 231.00 30.28 L 231.00 50.52 L 231.00 70.77 L 224.70 70.26 C 217.16 69.66 210.97 72.22 208.52 76.96 C 206.45 80.96 206.61 83.23 209.17 86.48 C 213.25 91.68 222.36 93.55 229.36 90.62 Z M 348.28 83.57 C 353.74 81.14 354.53 80.35 353.17 78.71 C 352.14 77.46 351.43 77.53 347.98 79.24 C 342.64 81.88 338.05 80.98 333.47 76.40 C 328.41 71.35 325.75 73.68 330.29 79.20 C 334.56 84.40 342.23 86.26 348.28 83.57 Z M 64.93 82.54 C 68.37 80.76 73.23 75.18 72.45 73.92 C 71.43 72.27 69.08 72.95 67.51 75.35 C 64.50 79.93 55.71 81.58 51.18 78.41 C 48.77 76.73 45.57 77.21 46.22 79.16 C 47.57 83.21 59.47 85.36 64.93 82.54 Z M 379.65 61.00 C 380.86 52.47 382.27 42.90 382.78 39.72 C 383.29 36.54 383.39 33.74 383.00 33.50 C 382.23 33.03 325.73 23.50 317.25 22.41 C 314.36 22.04 312.00 22.00 312.00 22.32 C 312.00 22.64 310.63 32.43 308.97 44.08 C 307.30 55.73 306.06 65.35 306.22 65.46 C 306.37 65.57 313.25 66.68 321.50 67.93 C 329.75 69.18 344.82 71.69 355.00 73.50 C 365.18 75.32 374.39 76.74 375.48 76.65 C 377.26 76.52 377.68 74.91 379.65 61.00 Z M 35.73 74.54 C 47.31 72.35 65.81 69.40 80.84 67.33 L 94.19 65.50 L 93.58 60.50 C 93.24 57.75 92.03 49.42 90.88 42.00 C 89.73 34.58 88.58 26.98 88.33 25.12 C 87.79 21.25 90.79 21.26 65.50 25.05 C 57.80 26.20 48.58 27.57 45.00 28.08 C 41.42 28.60 33.44 29.98 27.25 31.15 C 14.44 33.58 15.10 32.71 17.01 44.50 C 17.54 47.80 18.86 56.12 19.94 63.00 C 21.02 69.88 21.93 75.61 21.95 75.75 C 22.08 76.43 28.79 75.84 35.73 74.54 Z M 26.69 62.70 C 25.82 59.29 24.84 53.80 24.50 50.50 C 24.17 47.20 23.66 43.12 23.37 41.44 L 22.85 38.37 L 29.38 37.17 C 36.67 35.83 79.86 29.00 81.07 29.00 C 82.35 29.00 83.82 34.96 84.96 44.69 C 85.55 49.75 86.30 55.26 86.64 56.94 C 87.05 59.00 86.86 60.00 86.05 60.00 C 84.06 60.00 58.33 63.83 45.50 66.03 C 38.90 67.17 32.32 68.28 30.88 68.50 C 28.43 68.87 28.17 68.51 26.69 62.70 Z M 364.00 68.35 C 362.62 68.15 359.02 67.54 356.00 66.99 C 352.98 66.45 343.52 64.85 335.00 63.44 C 326.48 62.03 317.99 60.61 316.15 60.29 C 312.84 59.71 312.80 59.64 313.45 55.60 C 313.81 53.35 314.76 46.59 315.55 40.59 C 316.34 34.58 317.21 29.46 317.47 29.20 C 317.73 28.93 331.12 30.96 347.22 33.69 C 374.00 38.23 376.48 38.82 376.30 40.58 C 375.68 46.37 372.84 65.75 372.39 67.25 C 371.87 68.98 369.91 69.24 364.00 68.35 Z" fill="none" stroke="rgba(255,255,255,0.92)" stroke-width="1.5" stroke-linejoin="round" fill-rule="evenodd"/>
</svg>
