<svg xmlns="http://www.w3.org/2000/svg" viewBox="0 0 100 100" width="100" height="100">
  <path d="M 0.00 50.00 L 0.00 0.00 L 50.00 0.00 L 100.00 0.00 L 100.00 50.00 L 100.00 100.00 L 50.00 100.00 L 0.00 100.00 L 0.00 50.00 Z M 7.84 54.75 L 7.50 13.50 L 51.75 13.24 L 96.00 12.98 L 96.00 9.42 L 96.00 5.87 L 50.00 6.18 L 4.01 6.50 L 4.00 51.25 C 4.00 96.00 4.00 96.00 6.09 96.00 L 8.19 96.00 L 7.84 54.75 Z M 43.56 95.23 C 44.14 94.83 45.38 93.39 46.31 92.03 C 47.79 89.87 48.00 86.38 48.00 64.28 L 48.00 39.00 L 64.00 39.00 L 80.00 39.00 L 80.00 55.92 C 80.00 65.22 80.30 73.62 80.66 74.57 C 81.24 76.08 80.95 76.18 78.41 75.41 C 73.57 73.93 65.69 74.48 62.22 76.53 C 55.89 80.27 54.41 88.62 59.19 93.70 C 61.16 95.79 62.22 96.00 71.09 96.00 C 80.73 96.00 80.85 95.97 83.41 92.92 L 86.00 89.85 L 86.00 60.92 L 86.00 32.00 L 64.00 32.00 L 42.00 32.00 L 42.00 54.11 C 42.00 74.77 41.89 76.17 40.25 75.49 C 39.29 75.09 36.44 74.54 33.93 74.27 C 28.21 73.66 21.79 76.66 18.99 81.25 C 16.58 85.21 17.23 88.42 21.32 92.75 C 24.35 95.95 24.52 96.00 33.45 95.98 C 38.43 95.98 42.98 95.64 43.56 95.23 Z" fill="none" stroke="rgba(255,255,255,0.92)" stroke-width="1.2" stroke-linejoin="round" fill-rule="evenodd"/>
</svg>
