<svg xmlns="http://www.w3.org/2000/svg" viewBox="0 0 100 100" width="100" height="100">
  <path d="M 0.00 50.00 L 0.00 0.00 L 50.00 0.00 L 100.00 0.00 L 100.00 50.00 L 100.00 100.00 L 50.00 100.00 L 0.00 100.00 L 0.00 50.00 Z M 94.90 50.50 L 94.78 5.00 L 49.39 5.00 L 4.00 5.00 L 4.00 7.77 L 4.00 10.53 L 46.50 10.20 L 89.00 9.86 L 89.11 32.18 C 89.23 53.99 89.73 93.76 89.91 95.25 C 89.96 95.66 91.13 96.00 92.51 96.00 L 95.02 96.00 L 94.90 50.50 Z M 58.27 90.57 C 64.81 87.26 66.80 85.40 65.35 83.95 C 64.73 83.33 61.80 84.31 57.15 86.70 C 50.87 89.92 49.02 90.41 43.21 90.37 C 33.12 90.31 23.77 85.61 18.44 77.92 C 16.93 75.73 14.90 74.00 13.86 74.00 C 11.51 74.00 11.53 74.50 14.06 78.60 C 17.16 83.61 24.57 89.68 30.36 91.97 C 38.27 95.08 50.59 94.47 58.27 90.57 Z M 53.32 83.54 C 58.41 81.25 60.58 79.18 59.27 77.87 C 58.44 77.04 56.77 77.43 52.88 79.37 C 47.15 82.23 41.99 82.68 35.90 80.85 C 32.01 79.69 26.21 75.06 24.30 71.60 C 23.18 69.56 20.00 69.97 20.00 72.15 C 20.00 74.65 29.87 82.90 34.70 84.44 C 40.14 86.18 48.34 85.78 53.32 83.54 Z M 50.75 75.01 C 52.54 73.92 54.00 72.61 54.00 72.10 C 54.00 70.52 51.60 70.25 49.50 71.59 C 44.78 74.61 37.80 73.73 33.67 69.61 C 31.35 67.28 29.85 66.48 28.91 67.06 C 27.79 67.75 27.91 68.40 29.55 70.60 C 34.18 76.80 44.34 78.92 50.75 75.01 Z M 79.44 56.25 C 80.49 48.69 81.87 39.65 82.53 36.16 C 83.39 31.56 83.42 29.73 82.61 29.47 C 82.00 29.27 67.33 27.04 50.00 24.51 C 32.67 21.98 17.10 19.67 15.39 19.37 L 12.28 18.83 L 11.13 28.17 C 10.50 33.30 9.24 42.15 8.33 47.84 C 7.08 55.64 6.96 58.36 7.85 58.90 C 8.49 59.30 18.80 61.10 30.76 62.91 C 42.72 64.71 57.45 67.00 63.50 68.00 C 69.55 69.00 75.19 69.86 76.02 69.91 C 77.23 69.98 77.94 67.17 79.44 56.25 Z M 60.00 61.51 C 55.33 60.80 46.78 59.47 41.00 58.56 C 35.22 57.65 26.79 56.40 22.25 55.77 C 15.92 54.90 14.00 54.27 13.99 53.07 C 13.98 52.21 14.75 45.76 15.70 38.75 C 17.19 27.66 17.65 26.00 19.25 26.00 C 20.83 26.00 39.94 28.79 68.25 33.16 C 76.00 34.36 76.00 34.36 75.94 37.43 C 75.90 39.12 75.10 45.45 74.16 51.50 C 72.18 64.21 73.14 63.53 60.00 61.51 Z" fill="none" stroke="rgba(255,255,255,0.92)" stroke-width="1.2" stroke-linejoin="round" fill-rule="evenodd"/>
</svg>
