<svg xmlns="http://www.w3.org/2000/svg" viewBox="0 0 100 100" width="100" height="100">
  <path d="M 0.00 50.00 L 0.00 0.00 L 50.00 0.00 L 100.00 0.00 L 100.00 50.00 L 100.00 100.00 L 50.00 100.00 L 0.00 100.00 L 0.00 50.00 Z M 18.21 91.53 C 15.76 87.49 12.83 85.79 11.68 87.75 C 11.43 88.16 12.31 90.19 13.63 92.25 C 15.33 94.91 16.74 96.00 18.48 96.00 L 20.92 96.00 L 18.21 91.53 Z M 34.46 94.12 C 30.60 92.37 27.40 89.30 23.89 83.97 C 22.49 81.86 22.05 81.71 20.65 82.88 C 19.16 84.11 19.21 84.49 21.17 87.36 C 26.21 94.72 28.04 96.00 33.44 95.98 L 38.50 95.96 L 34.46 94.12 Z M 58.44 94.06 C 60.27 92.04 59.83 90.00 57.56 90.00 C 56.84 90.00 55.63 90.74 54.87 91.65 C 54.12 92.56 52.15 93.89 50.50 94.61 L 47.50 95.92 L 52.10 95.96 C 55.41 95.99 57.18 95.46 58.44 94.06 Z M 95.16 92.75 C 95.24 90.96 95.25 88.83 95.18 88.00 C 95.10 87.17 95.03 68.16 95.03 45.75 L 95.02 5.00 L 49.51 5.00 L 4.00 5.00 L 4.00 8.00 L 4.00 11.01 L 47.06 10.75 L 90.12 10.50 L 89.96 26.50 C 89.87 35.30 89.85 54.54 89.90 69.25 L 90.00 96.00 L 92.50 96.00 C 94.62 96.00 95.02 95.51 95.16 92.75 Z M 48.63 89.08 C 53.36 86.93 54.71 85.31 53.10 83.70 C 52.27 82.87 51.23 83.03 49.09 84.29 C 47.49 85.23 44.35 86.00 42.10 86.00 C 38.63 86.00 37.37 85.37 33.90 81.90 C 30.84 78.84 29.51 78.09 28.66 78.94 C 26.12 81.48 32.75 88.49 39.12 90.00 C 44.00 91.15 44.10 91.14 48.63 89.08 Z M 78.94 70.75 C 79.64 64.56 81.03 54.33 82.02 48.00 C 83.01 41.67 83.52 36.20 83.16 35.84 C 82.80 35.48 75.97 34.05 68.00 32.66 C 60.02 31.27 44.34 28.50 33.15 26.50 C 21.96 24.50 12.66 23.01 12.49 23.18 C 12.32 23.36 11.22 30.70 10.05 39.50 C 8.87 48.30 7.47 58.60 6.93 62.39 C 6.38 66.17 6.07 69.38 6.22 69.50 C 6.75 69.95 72.51 81.77 75.08 81.88 C 77.63 82.00 77.67 81.89 78.94 70.75 Z M 57.50 71.90 C 52.00 70.87 42.10 69.11 35.50 67.99 C 28.90 66.87 21.15 65.44 18.28 64.82 L 13.05 63.69 L 13.52 60.10 C 13.78 58.12 14.44 52.67 14.99 48.00 C 16.99 30.95 16.97 31.00 19.05 31.00 C 20.12 31.00 26.73 32.09 33.74 33.42 C 40.76 34.75 53.25 37.04 61.50 38.51 C 69.75 39.98 76.55 41.25 76.62 41.34 C 76.78 41.55 73.28 66.55 72.51 70.75 C 71.80 74.58 71.83 74.58 57.50 71.90 Z" fill="none" stroke="rgba(255,255,255,0.92)" stroke-width="1.2" stroke-linejoin="round" fill-rule="evenodd"/>
</svg>
