<svg xmlns="http://www.w3.org/2000/svg" viewBox="0 0 400 293" width="400" height="293">
  <path d="M 0.00 146.50 L 0.00 0.00 L 200.00 0.00 L 400.00 0.00 L 400.00 29.11 C 400.00 54.57 399.81 58.14 398.50 57.64 C 396.54 56.89 396.54 59.37 398.50 61.00 C 399.81 62.08 400.00 71.12 400.00 131.12 C 400.00 177.48 399.66 200.00 398.98 200.00 C 398.41 200.00 397.53 201.12 397.01 202.48 C 395.77 205.73 390.36 230.08 389.45 236.50 C 388.53 243.04 388.25 243.39 385.44 241.55 C 382.82 239.84 381.00 239.55 381.00 240.84 C 381.00 242.29 390.92 247.15 393.20 246.82 C 395.48 246.48 396.94 242.57 398.89 231.50 C 399.48 228.10 399.80 237.14 399.88 259.75 L 400.00 293.00 L 200.00 293.00 L 0.00 293.00 L 0.00 146.50 Z M 220.50 286.45 C 244.15 286.08 264.51 285.79 265.75 285.79 C 267.88 285.79 268.00 285.39 268.05 278.14 C 268.07 273.94 268.06 244.06 268.03 211.75 L 267.97 153.00 L 270.74 152.85 C 272.26 152.76 284.07 152.57 297.00 152.42 C 309.93 152.27 333.32 151.85 349.00 151.48 C 364.68 151.11 381.32 150.74 386.00 150.66 L 394.50 150.50 L 394.44 78.50 L 394.38 6.50 L 361.94 6.69 C 337.42 6.83 200.07 7.43 71.25 7.95 C 70.56 7.95 69.21 7.91 68.25 7.86 C 63.75 7.62 12.12 9.11 9.26 9.57 L 6.02 10.09 L 6.40 81.29 C 6.61 120.46 6.83 152.61 6.89 152.74 C 6.95 152.87 35.46 152.80 70.25 152.60 L 133.50 152.23 L 133.50 203.36 C 133.50 231.49 133.63 261.79 133.80 270.69 L 134.09 286.88 L 137.80 287.19 C 141.98 287.54 158.61 287.39 220.50 286.45 Z M 137.79 283.65 C 136.02 281.88 136.05 268.28 137.83 264.00 C 138.76 261.76 138.88 262.00 138.94 266.25 C 138.97 268.86 139.42 271.00 139.94 271.00 C 141.06 271.00 140.66 156.62 139.53 153.25 C 138.81 151.13 138.96 151.05 142.13 151.75 C 143.99 152.16 171.15 152.50 202.50 152.49 C 238.22 152.49 259.76 152.85 260.19 153.45 C 261.20 154.87 261.15 277.79 260.15 278.41 C 259.68 278.70 252.91 279.03 245.10 279.15 C 234.88 279.31 231.41 279.66 232.71 280.39 C 233.69 280.95 236.86 281.38 239.75 281.34 C 243.54 281.29 245.00 281.65 245.00 282.64 C 245.00 283.64 243.22 284.03 238.25 284.12 C 234.54 284.18 231.05 284.14 230.50 284.02 C 229.95 283.91 223.43 283.82 216.00 283.82 C 208.57 283.83 197.55 283.84 191.50 283.84 C 177.33 283.85 178.53 283.82 157.41 284.55 C 141.95 285.08 139.10 284.95 137.79 283.65 Z M 139.67 281.50 C 139.67 280.68 139.29 280.00 138.83 280.00 C 138.38 280.00 138.00 280.68 138.00 281.50 C 138.00 282.32 138.38 283.00 138.83 283.00 C 139.29 283.00 139.67 282.32 139.67 281.50 Z M 150.00 281.55 L 154.50 280.13 L 150.36 280.07 C 147.55 280.02 146.03 280.48 145.64 281.50 C 145.32 282.32 145.16 282.99 145.28 282.98 C 145.40 282.98 147.53 282.33 150.00 281.55 Z M 157.50 282.00 C 157.84 281.45 157.42 281.00 156.56 281.00 C 155.70 281.00 155.00 281.45 155.00 282.00 C 155.00 282.55 155.42 283.00 155.94 283.00 C 156.46 283.00 157.16 282.55 157.50 282.00 Z M 248.00 282.00 C 248.00 281.45 248.68 281.00 249.50 281.00 C 250.32 281.00 251.00 281.45 251.00 282.00 C 251.00 282.55 250.32 283.00 249.50 283.00 C 248.68 283.00 248.00 282.55 248.00 282.00 Z M 170.00 281.00 C 170.00 280.45 169.52 280.00 168.94 280.00 C 168.36 280.00 168.16 280.45 168.50 281.00 C 168.84 281.55 169.32 282.00 169.56 282.00 C 169.80 282.00 170.00 281.55 170.00 281.00 Z M 194.00 281.00 C 194.00 280.45 191.86 280.05 189.25 280.12 C 185.01 280.22 184.82 280.32 187.50 281.00 C 191.92 282.13 194.00 282.13 194.00 281.00 Z M 224.81 281.05 C 226.92 281.02 227.88 280.61 227.45 279.92 C 227.08 279.32 225.69 279.11 224.36 279.44 C 223.04 279.78 217.55 280.07 212.19 280.09 C 206.82 280.10 201.82 280.49 201.09 280.95 C 200.35 281.40 204.65 281.62 210.63 281.44 C 216.61 281.26 222.99 281.08 224.81 281.05 Z M 180.27 280.34 C 179.59 280.07 178.24 280.05 177.27 280.31 C 176.30 280.56 176.85 280.78 178.50 280.81 C 180.15 280.83 180.95 280.62 180.27 280.34 Z M 197.73 280.40 C 197.40 280.06 196.53 280.03 195.81 280.32 C 195.01 280.64 195.25 280.87 196.42 280.92 C 197.47 280.96 198.06 280.73 197.73 280.40 Z M 140.53 274.22 C 139.92 272.63 139.79 272.64 138.82 274.37 C 138.03 275.76 138.11 276.45 139.13 277.09 C 140.77 278.10 141.47 276.66 140.53 274.22 Z M 264.15 263.50 C 263.94 256.46 264.20 253.00 264.92 253.00 C 265.62 253.00 266.00 256.65 266.00 263.50 C 266.00 269.27 265.65 274.00 265.23 274.00 C 264.80 274.00 264.32 269.27 264.15 263.50 Z M 137.03 258.56 C 136.16 256.92 135.96 254.68 136.43 251.81 C 136.82 249.44 137.10 246.29 137.06 244.82 C 137.01 243.34 137.43 241.85 137.99 241.51 C 138.64 241.10 139.00 244.42 139.00 250.94 C 139.00 256.47 138.85 261.00 138.67 261.00 C 138.49 261.00 137.75 259.90 137.03 258.56 Z M 263.46 247.93 C 263.08 247.32 263.22 246.38 263.75 245.85 C 264.39 245.21 264.94 245.40 265.32 246.40 C 266.02 248.22 264.44 249.52 263.46 247.93 Z M 265.08 238.42 C 265.13 237.25 265.36 237.01 265.68 237.81 C 265.97 238.53 265.94 239.40 265.60 239.73 C 265.27 240.06 265.04 239.47 265.08 238.42 Z M 136.00 235.75 C 136.00 234.97 136.69 234.33 137.53 234.33 C 139.26 234.33 139.00 236.17 137.19 236.77 C 136.53 236.99 136.00 236.53 136.00 235.75 Z M 263.69 233.36 C 263.31 232.98 263.01 231.95 263.02 231.08 C 263.03 229.70 263.15 229.69 264.00 231.00 C 264.80 232.24 264.97 232.25 264.98 231.08 C 264.99 230.30 265.27 229.93 265.59 230.26 C 265.92 230.58 265.78 231.57 265.29 232.45 C 264.79 233.33 264.08 233.74 263.69 233.36 Z M 378.39 229.70 C 380.32 227.34 382.60 224.08 383.45 222.45 C 384.86 219.75 384.85 219.39 383.30 218.25 C 382.38 217.56 380.88 217.00 379.98 217.00 C 378.06 217.00 368.56 231.48 369.49 232.99 C 370.97 235.38 374.93 233.92 378.39 229.70 Z M 136.67 230.33 C 136.30 229.97 136.00 223.67 136.00 216.33 C 136.00 205.15 136.24 203.00 137.50 203.00 C 139.32 203.00 139.48 204.61 137.75 205.42 C 136.75 205.88 136.75 206.12 137.75 206.58 C 139.25 207.28 139.43 211.00 137.96 211.00 C 137.30 211.00 137.25 211.62 137.84 212.75 C 138.81 214.61 138.86 229.48 137.90 230.43 C 137.59 230.74 137.03 230.70 136.67 230.33 Z M 264.00 227.44 C 264.00 226.58 264.46 226.16 265.02 226.51 C 265.58 226.86 265.77 227.56 265.46 228.07 C 264.60 229.46 264.00 229.20 264.00 227.44 Z M 263.29 210.00 C 263.18 202.85 263.47 197.00 263.93 197.00 C 265.03 197.00 265.77 202.19 265.56 208.50 C 265.16 220.71 264.95 223.00 264.25 223.00 C 263.84 223.00 263.41 217.15 263.29 210.00 Z M 137.66 215.75 C 137.38 215.06 137.16 215.62 137.16 217.00 C 137.16 218.38 137.38 218.94 137.66 218.25 C 137.94 217.56 137.94 216.44 137.66 215.75 Z M 136.11 180.33 C 136.09 168.01 136.46 160.00 137.04 160.00 C 137.57 160.00 138.00 159.56 138.00 159.03 C 138.00 158.50 137.27 158.34 136.38 158.68 C 135.00 159.21 134.94 158.99 135.93 157.13 C 136.57 155.94 136.82 154.52 136.49 153.98 C 136.15 153.44 136.33 153.00 136.87 153.00 C 138.49 153.00 138.84 155.82 138.92 169.25 C 138.96 177.06 138.60 182.00 137.99 182.00 C 137.45 182.00 137.00 182.48 137.00 183.06 C 137.00 183.64 137.45 183.84 138.00 183.50 C 138.64 183.11 139.00 186.10 139.00 191.77 C 139.00 198.83 138.70 200.67 137.57 200.67 C 136.37 200.67 136.13 197.30 136.11 180.33 Z M 263.34 186.78 C 263.35 182.23 263.54 179.35 263.78 180.40 C 264.12 181.91 264.38 182.01 265.08 180.90 C 265.62 180.04 265.87 182.37 265.73 186.92 C 265.40 197.52 263.33 197.39 263.34 186.78 Z M 263.54 176.14 C 262.87 174.01 263.78 171.00 265.11 171.00 C 265.60 171.00 266.00 172.57 266.00 174.50 C 266.00 178.23 264.52 179.22 263.54 176.14 Z M 263.90 165.81 C 263.49 160.67 263.92 154.68 264.77 153.83 C 265.45 153.15 265.81 154.96 265.88 159.36 C 265.93 162.96 265.53 166.17 264.99 166.51 C 264.44 166.84 263.95 166.53 263.90 165.81 Z M 15.75 150.34 C 16.44 150.06 17.56 150.06 18.25 150.34 C 18.94 150.62 18.38 150.84 17.00 150.84 C 15.62 150.84 15.06 150.62 15.75 150.34 Z M 67.23 150.28 C 65.43 150.05 64.22 149.45 64.54 148.94 C 65.22 147.83 64.83 147.83 59.30 148.90 C 56.11 149.52 54.98 149.39 54.58 148.36 C 54.19 147.33 55.22 147.00 58.78 146.98 C 61.38 146.98 64.17 146.54 65.00 146.00 C 66.85 144.81 54.09 144.83 49.93 146.02 C 48.40 146.46 46.88 146.55 46.56 146.23 C 46.24 145.90 39.22 145.56 30.97 145.47 C 19.88 145.34 15.52 145.64 14.24 146.62 C 11.92 148.37 11.00 148.32 11.00 146.44 C 11.00 145.58 11.39 145.12 11.86 145.42 C 13.10 146.18 14.17 135.77 12.98 134.58 C 12.11 133.71 11.43 138.81 11.91 142.67 C 12.15 144.64 10.18 145.15 9.64 143.26 C 9.37 142.29 9.15 135.46 9.17 128.07 C 9.20 116.66 9.49 114.25 11.05 112.07 C 12.84 109.57 13.30 106.20 13.10 97.08 C 12.99 92.05 12.14 92.00 11.73 97.00 C 11.58 98.84 11.02 100.49 10.48 100.67 C 9.26 101.07 8.70 82.30 9.91 81.56 C 11.00 80.88 12.05 86.08 11.36 88.74 C 11.07 89.86 11.27 91.05 11.81 91.38 C 12.84 92.02 14.08 68.34 13.11 66.51 C 12.16 64.72 11.09 72.40 11.72 76.49 C 12.29 80.21 12.22 80.36 10.67 78.81 C 9.48 77.63 9.00 75.41 9.00 71.19 C 9.00 66.16 9.30 65.16 10.92 64.73 C 12.56 64.30 12.88 63.12 13.17 56.37 C 13.35 52.04 13.35 43.44 13.16 37.25 C 12.90 28.38 12.53 26.00 11.41 26.00 C 10.64 26.00 10.00 25.33 10.00 24.50 C 10.00 23.68 10.51 23.11 11.13 23.25 C 11.74 23.39 12.46 22.94 12.71 22.25 C 13.31 20.62 10.32 20.62 9.66 22.25 C 9.38 22.94 9.12 22.04 9.08 20.25 C 9.00 17.07 10.42 15.77 11.25 18.25 C 11.58 19.21 12.09 19.16 13.45 18.03 C 14.83 16.89 19.12 16.51 32.86 16.32 C 42.56 16.18 63.32 15.82 79.00 15.52 C 120.42 14.71 119.92 14.71 127.00 15.07 L 133.50 15.39 L 133.50 80.20 L 133.50 145.01 L 111.00 145.02 C 98.62 145.03 87.83 145.03 87.00 145.03 C 86.17 145.03 84.60 144.94 83.50 144.83 C 78.72 144.38 68.00 145.07 68.00 145.84 C 68.00 146.30 75.52 146.75 84.72 146.85 C 95.25 146.96 101.81 147.43 102.47 148.12 C 103.21 148.90 102.60 149.02 100.31 148.54 C 98.51 148.16 96.21 148.35 95.04 148.98 C 93.89 149.59 92.48 149.80 91.90 149.44 C 91.31 149.07 85.58 148.65 79.17 148.48 C 72.75 148.32 68.74 148.40 70.25 148.66 C 72.89 149.11 74.31 151.17 71.75 150.84 C 71.06 150.75 69.03 150.50 67.23 150.28 Z M 124.50 150.00 C 124.84 149.45 125.32 149.00 125.56 149.00 C 125.80 149.00 126.00 149.45 126.00 150.00 C 126.00 150.55 125.52 151.00 124.94 151.00 C 124.36 151.00 124.16 150.55 124.50 150.00 Z M 154.00 150.00 C 154.00 149.45 154.48 149.00 155.06 149.00 C 155.64 149.00 155.84 149.45 155.50 150.00 C 155.16 150.55 154.68 151.00 154.44 151.00 C 154.20 151.00 154.00 150.55 154.00 150.00 Z M 210.02 149.83 C 210.01 148.92 209.44 147.94 208.75 147.66 C 208.06 147.38 208.51 147.12 209.75 147.08 C 212.20 146.99 212.49 147.69 211.00 150.00 C 210.16 151.30 210.03 151.27 210.02 149.83 Z M 266.49 149.98 C 266.29 149.67 266.55 148.75 267.05 147.95 C 267.68 146.96 267.97 146.89 267.98 147.75 C 267.99 148.44 268.68 149.00 269.50 149.00 C 270.32 149.00 271.00 149.42 271.00 149.94 C 271.00 150.93 267.10 150.97 266.49 149.98 Z M 106.81 149.32 C 107.53 149.03 108.40 149.06 108.73 149.40 C 109.06 149.73 108.47 149.96 107.42 149.92 C 106.25 149.87 106.01 149.64 106.81 149.32 Z M 182.00 149.01 C 182.00 148.43 178.98 148.14 174.57 148.31 C 170.48 148.46 167.36 148.23 167.63 147.80 C 167.90 147.36 173.74 147.00 180.62 147.00 C 188.94 147.00 192.91 147.34 192.48 148.03 C 192.12 148.62 190.42 148.79 188.54 148.44 C 186.57 148.07 184.96 148.26 184.56 148.91 C 183.72 150.27 182.00 150.34 182.00 149.01 Z M 199.57 148.33 C 199.22 147.40 199.92 147.12 202.04 147.35 C 206.17 147.80 206.66 148.68 203.08 149.20 C 201.18 149.48 199.89 149.16 199.57 148.33 Z M 216.33 148.50 C 216.33 147.68 216.66 147.00 217.06 147.00 C 217.46 147.00 218.05 147.68 218.36 148.50 C 218.69 149.36 218.38 150.00 217.64 150.00 C 216.92 150.00 216.33 149.32 216.33 148.50 Z M 262.69 147.91 C 262.37 146.70 262.70 146.00 263.59 146.00 C 264.37 146.00 265.00 145.46 265.00 144.80 C 265.00 143.93 265.30 143.90 266.10 144.70 C 266.90 145.50 266.65 146.35 265.19 147.81 C 263.24 149.76 263.17 149.76 262.69 147.91 Z M 285.45 148.54 C 283.70 147.22 284.91 147.07 297.00 147.17 C 305.63 147.24 309.42 147.56 307.50 148.06 C 305.85 148.49 303.49 149.16 302.25 149.54 C 300.85 149.97 300.00 149.81 300.00 149.12 C 300.00 147.71 289.79 147.61 288.40 149.00 C 287.72 149.68 286.75 149.52 285.45 148.54 Z M 307.27 149.31 C 308.24 149.05 309.59 149.07 310.27 149.34 C 310.95 149.62 310.15 149.83 308.50 149.81 C 306.85 149.78 306.30 149.56 307.27 149.31 Z M 316.00 149.07 C 316.00 148.55 314.76 147.93 313.25 147.69 C 311.48 147.40 311.94 147.27 314.55 147.31 C 316.78 147.34 319.10 147.06 319.71 146.68 C 320.32 146.30 321.87 146.42 323.16 146.93 C 325.46 147.86 325.45 147.87 322.69 147.94 C 321.09 147.97 320.15 148.43 320.50 149.00 C 320.85 149.57 320.01 150.00 318.56 150.00 C 317.15 150.00 316.00 149.58 316.00 149.07 Z M 335.30 149.21 C 332.80 147.62 335.58 145.83 339.43 146.55 C 342.13 147.06 342.85 147.55 342.05 148.35 C 341.25 149.15 340.37 149.09 338.83 148.13 C 336.98 146.97 336.79 147.01 337.32 148.40 C 337.98 150.12 337.22 150.43 335.30 149.21 Z M 35.50 148.00 C 35.16 147.45 35.36 147.00 35.94 147.00 C 36.52 147.00 37.00 147.45 37.00 148.00 C 37.00 148.55 36.80 149.00 36.56 149.00 C 36.32 149.00 35.84 148.55 35.50 148.00 Z M 149.00 148.00 C 149.00 147.45 150.24 147.01 151.75 147.02 C 153.89 147.03 154.17 147.24 153.00 148.00 C 151.04 149.26 149.00 149.26 149.00 148.00 Z M 194.00 148.00 C 194.00 147.45 194.70 147.00 195.56 147.00 C 196.42 147.00 196.84 147.45 196.50 148.00 C 196.16 148.55 195.46 149.00 194.94 149.00 C 194.42 149.00 194.00 148.55 194.00 148.00 Z M 254.00 148.00 C 251.65 147.25 251.70 147.19 254.81 147.10 C 256.78 147.04 257.87 147.40 257.50 148.00 C 257.16 148.55 256.80 148.96 256.69 148.90 C 256.59 148.85 255.38 148.44 254.00 148.00 Z M 272.00 148.00 C 269.20 147.41 269.90 147.25 275.50 147.20 C 280.24 147.16 281.85 147.42 280.50 148.00 C 278.17 149.00 276.76 149.00 272.00 148.00 Z M 381.00 148.61 C 381.00 148.39 381.68 147.95 382.50 147.64 C 383.32 147.32 384.00 147.50 384.00 148.03 C 384.00 148.56 383.32 149.00 382.50 149.00 C 381.68 149.00 381.00 148.82 381.00 148.61 Z M 17.81 147.32 C 18.53 147.03 19.40 147.06 19.73 147.40 C 20.06 147.73 19.47 147.96 18.42 147.92 C 17.25 147.87 17.01 147.64 17.81 147.32 Z M 26.75 147.34 C 27.44 147.06 28.56 147.06 29.25 147.34 C 29.94 147.62 29.38 147.84 28.00 147.84 C 26.62 147.84 26.06 147.62 26.75 147.34 Z M 137.75 146.61 C 136.04 145.31 135.22 143.40 136.80 144.38 C 137.24 144.65 138.21 144.49 138.97 144.02 C 140.10 143.32 140.35 132.25 140.42 79.34 L 140.50 15.50 L 151.28 15.39 C 157.20 15.33 162.33 15.01 162.66 14.68 C 162.99 14.34 163.99 14.45 164.88 14.91 C 165.77 15.37 170.00 15.46 174.27 15.10 C 178.63 14.73 182.45 14.85 182.96 15.36 C 183.51 15.91 185.46 15.87 187.89 15.26 C 190.10 14.70 192.16 14.49 192.47 14.80 C 192.78 15.12 207.85 15.41 225.95 15.45 C 244.05 15.50 259.13 15.80 259.46 16.13 C 260.26 16.93 260.87 142.59 260.08 143.87 C 259.39 144.99 250.86 145.13 186.04 145.06 C 155.16 145.03 142.28 145.34 141.54 146.14 C 140.78 146.96 141.24 147.08 143.25 146.61 C 144.87 146.23 146.00 146.38 146.00 146.98 C 146.00 148.45 139.81 148.17 137.75 146.61 Z M 246.81 147.32 C 247.53 147.03 248.40 147.06 248.73 147.40 C 249.06 147.73 248.47 147.96 247.42 147.92 C 246.25 147.87 246.01 147.64 246.81 147.32 Z M 359.50 147.00 C 359.15 146.43 360.01 146.00 361.50 146.00 C 362.99 146.00 363.85 146.43 363.50 147.00 C 363.16 147.55 362.26 148.00 361.50 148.00 C 360.74 148.00 359.84 147.55 359.50 147.00 Z M 365.47 146.96 C 365.15 146.43 365.81 146.00 366.94 146.00 C 369.36 146.00 369.60 146.56 367.53 147.35 C 366.72 147.66 365.80 147.48 365.47 146.96 Z M 344.81 146.32 C 345.53 146.03 346.40 146.06 346.73 146.40 C 347.06 146.73 346.47 146.96 345.42 146.92 C 344.25 146.87 344.01 146.64 344.81 146.32 Z M 267.92 108.12 C 267.87 87.98 267.71 59.35 267.57 44.50 C 267.42 29.65 267.49 16.98 267.72 16.35 C 268.01 15.56 272.77 15.16 282.82 15.07 C 290.89 15.00 315.95 14.68 338.50 14.37 C 380.01 13.80 386.13 13.79 386.65 14.32 C 386.81 14.48 387.20 43.61 387.51 79.06 L 388.07 143.50 L 370.79 143.61 C 361.28 143.67 334.26 143.95 310.75 144.23 L 268.00 144.74 L 267.92 108.12 Z M 136.00 139.11 C 136.00 137.46 136.64 135.97 137.50 135.64 C 138.66 135.19 139.00 135.86 139.00 138.53 C 139.00 140.95 138.55 142.00 137.50 142.00 C 136.51 142.00 136.00 141.01 136.00 139.11 Z M 263.79 137.00 C 263.54 135.35 263.72 134.00 264.17 134.00 C 264.63 134.00 265.00 135.35 265.00 137.00 C 265.00 138.65 264.83 140.00 264.61 140.00 C 264.40 140.00 264.03 138.65 263.79 137.00 Z M 77.95 133.44 C 82.77 132.35 86.34 130.73 90.05 127.97 C 95.87 123.62 103.00 114.81 103.00 111.96 C 103.00 108.69 100.73 108.48 98.56 111.54 C 97.42 113.13 94.31 116.80 91.63 119.69 C 82.81 129.21 69.09 132.01 57.50 126.66 C 54.20 125.13 50.57 123.00 49.42 121.93 C 47.40 120.03 47.29 120.03 45.68 121.80 C 44.11 123.53 44.18 123.79 46.76 126.21 C 50.14 129.37 55.09 131.93 61.00 133.57 C 67.15 135.28 69.98 135.26 77.95 133.44 Z M 136.67 133.28 C 136.38 132.81 136.21 127.27 136.29 120.97 C 136.36 114.66 136.59 110.75 136.78 112.27 C 136.98 113.79 137.52 114.80 137.99 114.51 C 138.46 114.22 138.74 118.24 138.62 123.46 C 138.41 132.45 137.86 135.20 136.67 133.28 Z M 344.43 130.11 C 347.81 128.45 351.65 125.93 352.98 124.52 C 355.23 122.13 355.28 121.85 353.71 120.29 C 352.15 118.72 351.89 118.75 349.77 120.73 C 348.52 121.90 345.02 124.12 342.00 125.67 C 334.89 129.32 324.14 129.58 316.82 126.28 C 311.18 123.74 304.05 117.37 301.45 112.54 C 299.43 108.78 297.94 108.16 296.14 110.33 C 293.71 113.26 304.53 126.14 312.76 130.12 C 319.42 133.35 322.70 133.97 330.89 133.53 C 336.56 133.22 339.72 132.43 344.43 130.11 Z M 12.73 117.78 C 12.52 115.42 12.35 117.10 12.34 121.50 C 12.34 125.90 12.51 127.82 12.73 125.78 C 12.94 123.73 12.94 120.13 12.73 117.78 Z M 390.19 125.50 C 390.22 123.85 390.44 123.30 390.69 124.27 C 390.95 125.24 390.93 126.59 390.66 127.27 C 390.38 127.95 390.17 127.15 390.19 125.50 Z M 81.82 121.18 C 87.49 118.44 95.32 109.92 94.78 107.08 C 94.20 104.07 91.34 104.88 88.75 108.81 C 87.33 110.95 84.03 114.12 81.41 115.85 C 77.44 118.48 75.70 119.00 70.80 119.00 C 64.80 119.00 58.96 117.18 55.81 114.32 C 54.37 113.02 53.76 112.96 52.52 113.98 C 50.11 115.99 50.70 117.31 55.32 120.23 C 63.69 125.51 72.23 125.82 81.82 121.18 Z M 342.51 119.90 C 348.04 116.55 349.49 113.79 346.36 112.58 C 345.45 112.24 343.98 112.61 343.09 113.42 C 340.50 115.76 332.76 118.95 329.62 118.98 C 324.08 119.02 318.55 116.58 313.89 112.02 C 311.35 109.53 309.07 106.88 308.84 106.12 C 308.30 104.36 304.00 105.55 304.00 107.46 C 304.00 109.43 312.80 118.84 316.37 120.69 C 321.68 123.44 324.28 123.96 330.76 123.59 C 335.70 123.30 338.19 122.52 342.51 119.90 Z M 263.92 122.75 C 263.15 120.42 263.18 117.00 263.98 116.52 C 264.60 116.13 265.00 117.27 265.00 119.44 C 265.00 121.40 264.77 123.00 264.50 123.00 C 264.23 123.00 263.96 122.89 263.92 122.75 Z M 391.08 121.42 C 391.13 120.25 391.36 120.01 391.68 120.81 C 391.97 121.53 391.94 122.40 391.60 122.73 C 391.27 123.06 391.04 122.47 391.08 121.42 Z M 390.41 111.33 C 390.46 106.29 390.80 101.87 391.16 101.51 C 392.12 100.55 392.09 114.02 391.13 117.53 C 390.57 119.59 390.34 117.68 390.41 111.33 Z M 263.02 113.81 C 263.01 112.33 263.45 110.84 264.00 110.50 C 265.28 109.71 265.28 113.02 264.00 115.00 C 263.24 116.17 263.03 115.91 263.02 113.81 Z M 80.05 110.77 C 83.76 107.94 87.35 102.69 86.31 101.64 C 84.86 100.19 81.94 101.17 80.32 103.64 C 78.42 106.53 73.47 109.00 69.57 109.00 C 68.19 109.00 65.50 108.25 63.58 107.34 C 60.72 105.97 59.82 105.90 58.55 106.96 C 56.14 108.96 56.66 109.94 61.25 112.08 C 67.26 114.89 75.40 114.32 80.05 110.77 Z M 338.22 111.19 C 341.62 109.21 342.31 107.51 340.37 105.90 C 339.16 104.88 338.33 104.97 336.03 106.32 C 334.45 107.25 331.09 108.00 328.48 108.00 C 324.32 108.00 323.30 107.53 319.82 104.06 C 314.38 98.62 310.57 100.37 314.57 106.47 C 319.10 113.38 330.54 115.66 338.22 111.19 Z M 138.16 108.00 C 138.16 106.62 138.38 106.06 138.66 106.75 C 138.94 107.44 138.94 108.56 138.66 109.25 C 138.38 109.94 138.16 109.38 138.16 108.00 Z M 9.00 105.49 C 9.00 103.01 9.40 101.97 10.25 102.25 C 12.16 102.88 12.33 105.81 10.57 107.57 C 9.14 109.00 9.00 108.81 9.00 105.49 Z M 263.05 102.75 C 263.07 99.86 263.05 96.83 263.02 96.00 C 262.72 88.83 263.55 73.00 264.23 73.00 C 264.70 73.00 265.01 80.88 264.93 90.50 C 264.84 100.12 264.38 108.00 263.90 108.00 C 263.42 108.00 263.04 105.64 263.05 102.75 Z M 136.10 101.95 L 136.20 97.50 L 137.04 101.00 C 137.52 103.05 137.48 104.89 136.93 105.45 C 136.35 106.04 136.04 104.72 136.10 101.95 Z M 65.00 95.11 C 92.95 90.08 98.28 89.06 98.68 88.65 C 99.08 88.25 91.06 30.73 90.53 30.20 C 90.37 30.04 84.67 31.00 77.87 32.34 C 71.07 33.68 58.59 36.05 50.14 37.60 C 39.66 39.53 34.60 40.89 34.22 41.87 C 33.70 43.22 34.91 54.11 37.01 67.00 C 37.51 70.03 38.64 77.90 39.53 84.50 C 41.61 99.98 41.37 99.38 45.27 98.67 C 47.05 98.34 55.92 96.74 65.00 95.11 Z M 390.16 85.61 C 390.04 78.12 390.31 72.00 390.76 72.00 C 391.77 72.00 392.05 94.68 391.08 97.32 C 390.69 98.36 390.28 93.09 390.16 85.61 Z M 136.67 96.33 C 136.30 95.97 136.00 94.54 136.00 93.17 C 136.00 90.06 137.23 91.09 137.60 94.50 C 137.88 97.14 137.74 97.41 136.67 96.33 Z M 361.27 68.31 C 363.34 52.54 364.69 39.33 364.27 38.97 C 363.65 38.44 336.14 33.89 312.27 30.37 C 309.13 29.91 307.93 30.10 307.63 31.12 C 307.41 31.88 306.48 38.58 305.56 46.00 C 304.64 53.42 302.96 65.96 301.82 73.86 C 299.54 89.67 299.60 89.90 305.50 90.04 C 307.15 90.08 317.50 91.60 328.50 93.43 C 339.50 95.26 350.52 96.81 353.00 96.88 L 357.50 97.00 L 361.27 68.31 Z M 136.40 88.60 C 136.04 87.67 135.98 85.47 136.25 83.71 C 136.52 81.94 136.41 78.03 136.00 75.00 C 135.14 68.73 136.27 64.84 137.74 69.00 C 138.64 71.53 138.47 88.86 137.55 89.78 C 137.27 90.06 136.76 89.53 136.40 88.60 Z M 47.98 88.75 C 47.97 88.61 46.66 79.50 45.07 68.50 C 43.49 57.50 42.37 48.20 42.60 47.84 C 42.82 47.48 46.27 46.63 50.25 45.97 C 54.24 45.30 62.96 43.68 69.63 42.37 C 85.48 39.27 85.00 39.23 85.00 43.64 C 85.00 45.64 85.86 52.50 86.91 58.89 C 87.97 65.28 89.03 72.90 89.28 75.83 C 89.67 80.54 89.48 81.27 87.61 82.04 C 83.33 83.82 48.07 89.78 47.98 88.75 Z M 334.50 85.90 C 327.90 84.86 319.45 83.52 315.73 82.91 L 308.96 81.81 L 309.55 76.66 C 311.42 60.29 314.29 40.41 314.85 39.86 C 316.02 38.71 355.30 45.40 355.78 46.83 C 356.02 47.55 354.97 57.11 353.44 68.07 C 350.84 86.80 350.54 87.99 348.58 87.89 C 347.44 87.84 341.10 86.94 334.50 85.90 Z M 264.12 69.45 C 264.05 68.32 263.46 66.86 262.79 66.19 C 261.85 65.25 261.93 64.64 263.16 63.42 C 264.58 61.99 264.77 62.01 265.16 63.67 C 265.40 64.68 265.29 66.85 264.92 68.50 C 264.46 70.50 264.20 70.82 264.12 69.45 Z M 390.19 60.50 C 390.22 55.55 390.58 50.15 391.00 48.50 C 391.50 46.53 391.77 48.94 391.77 55.50 C 391.77 61.00 391.41 66.40 390.96 67.50 C 390.45 68.74 390.16 66.08 390.19 60.50 Z M 135.38 62.81 C 134.98 62.15 135.11 61.46 135.69 61.27 C 136.33 61.06 136.58 58.27 136.34 54.04 C 136.12 50.10 136.37 46.89 136.94 46.53 C 138.43 45.62 139.41 50.81 138.23 53.39 C 137.56 54.87 137.55 56.22 138.20 57.39 C 140.09 60.77 137.36 66.01 135.38 62.81 Z M 8.88 60.22 C 8.82 58.72 8.86 57.05 8.97 56.50 C 9.08 55.95 9.17 51.25 9.16 46.05 C 9.15 40.86 9.62 35.70 10.21 34.60 C 10.99 33.14 10.97 32.49 10.14 32.21 C 9.51 32.00 9.00 30.76 9.00 29.45 C 9.00 27.73 9.42 27.23 10.51 27.64 C 12.63 28.45 12.48 61.60 10.36 62.42 C 9.43 62.77 8.96 62.07 8.88 60.22 Z M 263.03 57.81 C 263.01 55.23 263.45 52.84 264.00 52.50 C 265.60 51.51 265.54 58.22 263.93 61.00 C 263.35 62.01 263.05 60.97 263.03 57.81 Z M 263.00 47.00 C 263.00 45.35 263.45 44.00 264.00 44.00 C 264.55 44.00 265.00 45.35 265.00 47.00 C 265.00 48.65 264.55 50.00 264.00 50.00 C 263.45 50.00 263.00 48.65 263.00 47.00 Z M 137.00 43.44 C 137.00 42.58 137.46 42.16 138.02 42.51 C 138.58 42.86 138.77 43.56 138.46 44.07 C 137.60 45.46 137.00 45.20 137.00 43.44 Z M 389.74 40.25 C 389.52 39.84 389.47 37.02 389.62 34.00 C 389.77 30.98 389.92 27.64 389.95 26.58 C 389.98 25.53 390.29 24.96 390.64 25.31 C 391.59 26.26 391.84 41.00 390.91 41.00 C 390.47 41.00 389.95 40.66 389.74 40.25 Z M 136.00 38.44 C 136.00 37.58 136.45 37.16 137.00 37.50 C 137.55 37.84 138.00 38.54 138.00 39.06 C 138.00 39.58 137.55 40.00 137.00 40.00 C 136.45 40.00 136.00 39.30 136.00 38.44 Z M 262.81 35.32 C 263.53 35.03 264.40 35.06 264.73 35.40 C 265.06 35.73 264.47 35.96 263.42 35.92 C 262.25 35.87 262.01 35.64 262.81 35.32 Z M 135.47 30.96 C 135.12 30.38 135.40 29.23 136.09 28.39 C 137.21 27.04 137.44 27.04 138.23 28.44 C 139.68 31.05 137.03 33.47 135.47 30.96 Z M 264.06 29.00 C 263.90 27.62 263.83 26.13 263.91 25.68 C 263.99 25.22 263.59 25.14 263.02 25.48 C 261.75 26.27 261.72 24.99 262.96 23.03 C 264.43 20.71 265.16 22.41 264.74 27.15 C 264.51 29.68 264.23 30.45 264.06 29.00 Z M 136.00 23.50 C 136.00 22.68 136.45 22.00 137.00 22.00 C 137.55 22.00 138.00 22.68 138.00 23.50 C 138.00 24.32 137.55 25.00 137.00 25.00 C 136.45 25.00 136.00 24.32 136.00 23.50 Z M 390.16 22.00 C 390.16 20.62 390.38 20.06 390.66 20.75 C 390.94 21.44 390.94 22.56 390.66 23.25 C 390.38 23.94 390.16 23.38 390.16 22.00 Z M 137.50 20.00 C 137.84 19.45 138.32 19.00 138.56 19.00 C 138.80 19.00 139.00 19.45 139.00 20.00 C 139.00 20.55 138.52 21.00 137.94 21.00 C 137.36 21.00 137.16 20.55 137.50 20.00 Z M 263.00 18.50 C 261.98 17.27 262.05 17.00 263.38 17.00 C 264.27 17.00 265.00 17.68 265.00 18.50 C 265.00 19.32 264.83 20.00 264.62 20.00 C 264.41 20.00 263.68 19.32 263.00 18.50 Z M 57.81 13.32 C 58.53 13.03 59.40 13.06 59.73 13.40 C 60.06 13.73 59.47 13.96 58.42 13.92 C 57.25 13.87 57.01 13.64 57.81 13.32 Z M 75.00 13.00 C 75.00 12.45 75.70 12.00 76.56 12.00 C 77.42 12.00 77.84 12.45 77.50 13.00 C 77.16 13.55 76.46 14.00 75.94 14.00 C 75.42 14.00 75.00 13.55 75.00 13.00 Z M 18.50 12.00 C 18.84 11.45 19.57 11.00 20.12 11.00 C 20.67 11.00 20.84 11.45 20.50 12.00 C 20.16 12.55 19.43 13.00 18.88 13.00 C 18.33 13.00 18.16 12.55 18.50 12.00 Z M 43.00 11.97 C 43.00 11.44 43.67 11.00 44.50 11.00 C 45.33 11.00 46.00 11.18 46.00 11.39 C 46.00 11.61 45.33 12.05 44.50 12.36 C 43.67 12.68 43.00 12.50 43.00 11.97 Z M 60.50 12.00 C 60.84 11.45 61.79 11.00 62.62 11.00 C 63.44 11.00 63.84 11.45 63.50 12.00 C 63.16 12.55 62.21 13.00 61.38 13.00 C 60.56 13.00 60.16 12.55 60.50 12.00 Z M 92.51 11.98 C 92.86 11.42 93.56 11.23 94.07 11.54 C 95.46 12.40 95.20 13.00 93.44 13.00 C 92.58 13.00 92.16 12.54 92.51 11.98 Z M 96.75 12.34 C 97.44 12.06 98.56 12.06 99.25 12.34 C 99.94 12.62 99.38 12.84 98.00 12.84 C 96.62 12.84 96.06 12.62 96.75 12.34 Z M 111.81 12.32 C 112.53 12.03 113.40 12.06 113.73 12.40 C 114.06 12.73 113.47 12.96 112.42 12.92 C 111.25 12.87 111.01 12.64 111.81 12.32 Z M 127.81 12.32 C 128.53 12.03 129.40 12.06 129.73 12.40 C 130.06 12.73 129.47 12.96 128.42 12.92 C 127.25 12.87 127.01 12.64 127.81 12.32 Z M 144.81 12.32 C 145.53 12.03 146.40 12.06 146.73 12.40 C 147.06 12.73 146.47 12.96 145.42 12.92 C 144.25 12.87 144.01 12.64 144.81 12.32 Z M 166.81 12.32 C 167.53 12.03 168.40 12.06 168.73 12.40 C 169.06 12.73 168.47 12.96 167.42 12.92 C 166.25 12.87 166.01 12.64 166.81 12.32 Z M 28.81 11.32 C 29.53 11.03 30.40 11.06 30.73 11.40 C 31.06 11.73 30.47 11.96 29.42 11.92 C 28.25 11.87 28.01 11.64 28.81 11.32 Z M 36.81 11.32 C 37.53 11.03 38.40 11.06 38.73 11.40 C 39.06 11.73 38.47 11.96 37.42 11.92 C 36.25 11.87 36.01 11.64 36.81 11.32 Z M 181.00 11.00 C 181.00 10.45 181.45 10.00 182.00 10.00 C 182.55 10.00 183.00 10.45 183.00 11.00 C 183.00 11.55 182.55 12.00 182.00 12.00 C 181.45 12.00 181.00 11.55 181.00 11.00 Z M 251.50 11.00 C 251.15 10.43 252.01 10.00 253.50 10.00 C 254.99 10.00 255.85 10.43 255.50 11.00 C 255.16 11.55 254.26 12.00 253.50 12.00 C 252.74 12.00 251.84 11.55 251.50 11.00 Z M 326.50 11.00 C 326.16 10.45 326.61 10.00 327.50 10.00 C 328.39 10.00 328.84 10.45 328.50 11.00 C 328.16 11.55 327.71 12.00 327.50 12.00 C 327.29 12.00 326.84 11.55 326.50 11.00 Z M 66.81 10.32 C 67.53 10.03 68.40 10.06 68.73 10.40 C 69.06 10.73 68.47 10.96 67.42 10.92 C 66.25 10.87 66.01 10.64 66.81 10.32 Z M 74.75 10.34 C 75.44 10.06 76.56 10.06 77.25 10.34 C 77.94 10.62 77.38 10.84 76.00 10.84 C 74.62 10.84 74.06 10.62 74.75 10.34 Z M 112.00 10.61 C 112.00 10.39 112.67 9.95 113.50 9.64 C 114.33 9.32 115.00 9.50 115.00 10.03 C 115.00 10.56 114.33 11.00 113.50 11.00 C 112.67 11.00 112.00 10.82 112.00 10.61 Z M 126.76 10.29 C 128.01 10.05 129.81 10.06 130.76 10.31 C 131.72 10.56 130.70 10.76 128.50 10.75 C 126.30 10.74 125.52 10.53 126.76 10.29 Z M 135.08 10.64 C 136.28 9.61 141.00 9.08 141.00 9.98 C 141.00 10.54 139.57 11.00 137.83 11.00 C 136.09 11.00 134.85 10.84 135.08 10.64 Z M 146.81 10.32 C 147.53 10.03 148.40 10.06 148.73 10.40 C 149.06 10.73 148.47 10.96 147.42 10.92 C 146.25 10.87 146.01 10.64 146.81 10.32 Z M 162.75 10.34 C 163.44 10.06 164.56 10.06 165.25 10.34 C 165.94 10.62 165.38 10.84 164.00 10.84 C 162.62 10.84 162.06 10.62 162.75 10.34 Z M 169.75 10.34 C 170.44 10.06 171.56 10.06 172.25 10.34 C 172.94 10.62 172.38 10.84 171.00 10.84 C 169.62 10.84 169.06 10.62 169.75 10.34 Z M 175.81 10.32 C 176.53 10.03 177.40 10.06 177.73 10.40 C 178.06 10.73 177.47 10.96 176.42 10.92 C 175.25 10.87 175.01 10.64 175.81 10.32 Z M 198.75 10.34 C 199.44 10.06 200.56 10.06 201.25 10.34 C 201.94 10.62 201.38 10.84 200.00 10.84 C 198.62 10.84 198.06 10.62 198.75 10.34 Z M 241.25 10.28 C 242.76 10.05 245.24 10.05 246.75 10.28 C 248.26 10.51 247.03 10.70 244.00 10.70 C 240.97 10.70 239.74 10.51 241.25 10.28 Z M 264.75 10.34 C 265.44 10.06 266.56 10.06 267.25 10.34 C 267.94 10.62 267.38 10.84 266.00 10.84 C 264.62 10.84 264.06 10.62 264.75 10.34 Z M 270.25 10.31 C 271.21 10.06 272.79 10.06 273.75 10.31 C 274.71 10.56 273.93 10.77 272.00 10.77 C 270.07 10.77 269.29 10.56 270.25 10.31 Z M 313.00 10.00 C 313.00 9.45 313.42 9.00 313.94 9.00 C 314.46 9.00 315.16 9.45 315.50 10.00 C 315.84 10.55 315.42 11.00 314.56 11.00 C 313.70 11.00 313.00 10.55 313.00 10.00 Z M 322.00 10.00 C 322.00 9.45 322.42 9.00 322.94 9.00 C 323.46 9.00 324.16 9.45 324.50 10.00 C 324.84 10.55 324.42 11.00 323.56 11.00 C 322.70 11.00 322.00 10.55 322.00 10.00 Z M 336.50 10.00 C 337.60 9.53 339.40 9.14 340.50 9.14 L 342.50 9.14 L 340.50 10.00 C 339.40 10.47 337.60 10.86 336.50 10.86 L 334.50 10.86 L 336.50 10.00 Z M 354.50 10.00 C 354.13 9.40 355.37 9.00 357.61 9.00 C 361.76 9.00 361.82 9.40 357.81 10.36 C 356.33 10.72 354.84 10.56 354.50 10.00 Z M 374.00 10.00 C 372.86 9.26 373.28 9.03 375.75 9.02 C 377.54 9.01 379.00 9.45 379.00 10.00 C 379.00 11.27 375.97 11.27 374.00 10.00 Z M 331.75 9.34 C 332.44 9.06 333.56 9.06 334.25 9.34 C 334.94 9.62 334.38 9.84 333.00 9.84 C 331.62 9.84 331.06 9.62 331.75 9.34 Z M 347.00 9.61 C 347.00 8.66 349.99 8.18 350.53 9.04 C 350.85 9.57 350.19 10.00 349.06 10.00 C 347.93 10.00 347.00 9.82 347.00 9.61 Z M 365.00 9.62 C 365.00 8.73 369.05 8.26 369.56 9.09 C 369.87 9.59 368.97 10.00 367.56 10.00 C 366.15 10.00 365.00 9.83 365.00 9.62 Z" fill="none" stroke="rgba(255,255,255,0.92)" stroke-width="1.5" stroke-linejoin="round" fill-rule="evenodd"/>
</svg>
