<svg xmlns="http://www.w3.org/2000/svg" viewBox="0 0 400 221" width="400" height="221">
  <path d="M 0.00 110.50 L 0.00 0.00 L 200.00 0.00 L 400.00 0.00 L 400.00 110.50 L 400.00 221.00 L 200.00 221.00 L 0.00 221.00 L 0.00 110.50 Z M 101.03 215.50 C 143.58 215.07 270.86 214.30 370.00 213.87 C 379.62 213.82 388.29 213.37 389.25 212.86 C 390.42 212.24 391.00 212.29 391.00 213.03 C 391.00 213.64 392.01 214.00 393.25 213.82 C 395.84 213.45 395.72 221.17 394.52 134.00 C 394.15 107.33 393.69 69.53 393.49 50.00 C 393.29 30.48 393.10 12.31 393.07 9.64 L 393.00 4.78 L 373.25 5.38 C 338.52 6.43 146.40 8.10 66.37 8.05 C 9.95 8.01 6.20 8.11 5.78 9.75 C 5.53 10.71 5.49 42.77 5.68 81.00 C 5.88 119.23 6.03 165.35 6.02 183.50 L 6.00 216.50 L 27.25 216.27 C 38.94 216.14 72.14 215.79 101.03 215.50 Z M 60.50 214.00 C 60.84 213.45 61.88 213.01 62.81 213.02 C 64.27 213.03 64.29 213.16 63.00 214.00 C 61.04 215.27 59.72 215.27 60.50 214.00 Z M 49.81 213.32 C 50.53 213.03 51.40 213.06 51.73 213.40 C 52.06 213.73 51.47 213.96 50.42 213.92 C 49.25 213.87 49.01 213.64 49.81 213.32 Z M 79.81 212.32 C 80.53 212.03 81.40 212.06 81.73 212.40 C 82.06 212.73 81.47 212.96 80.42 212.92 C 79.25 212.87 79.01 212.64 79.81 212.32 Z M 201.00 211.50 C 201.00 210.68 201.44 210.00 201.97 210.00 C 202.50 210.00 202.68 210.68 202.36 211.50 C 202.05 212.32 201.61 213.00 201.39 213.00 C 201.18 213.00 201.00 212.32 201.00 211.50 Z M 209.81 212.32 C 210.53 212.03 211.40 212.06 211.73 212.40 C 212.06 212.73 211.47 212.96 210.42 212.92 C 209.25 212.87 209.01 212.64 209.81 212.32 Z M 213.00 212.61 C 213.00 212.39 213.68 211.95 214.50 211.64 C 215.32 211.32 216.00 211.50 216.00 212.03 C 216.00 212.56 215.32 213.00 214.50 213.00 C 213.68 213.00 213.00 212.82 213.00 212.61 Z M 240.75 212.34 C 241.44 212.06 242.56 212.06 243.25 212.34 C 243.94 212.62 243.38 212.84 242.00 212.84 C 240.62 212.84 240.06 212.62 240.75 212.34 Z M 274.81 212.32 C 275.53 212.03 276.40 212.06 276.73 212.40 C 277.06 212.73 276.47 212.96 275.42 212.92 C 274.25 212.87 274.01 212.64 274.81 212.32 Z M 292.50 212.00 C 292.84 211.45 293.32 211.00 293.56 211.00 C 293.80 211.00 294.00 211.45 294.00 212.00 C 294.00 212.55 293.52 213.00 292.94 213.00 C 292.36 213.00 292.16 212.55 292.50 212.00 Z M 198.50 211.00 C 198.84 210.45 199.32 210.00 199.56 210.00 C 199.80 210.00 200.00 210.45 200.00 211.00 C 200.00 211.55 199.52 212.00 198.94 212.00 C 198.36 212.00 198.16 211.55 198.50 211.00 Z M 11.10 188.09 C 11.04 175.67 11.01 158.22 11.03 149.33 C 11.07 134.62 10.91 133.12 9.29 132.70 C 7.62 132.26 7.62 132.22 9.25 132.12 C 10.39 132.04 10.98 131.21 10.93 129.75 C 10.87 127.69 10.80 127.66 10.10 129.43 C 9.36 131.32 9.34 131.32 8.62 129.45 C 8.21 128.38 8.33 127.39 8.89 127.20 C 9.44 127.02 9.64 126.22 9.34 125.44 C 9.03 124.65 9.28 124.00 9.89 124.00 C 10.50 124.00 11.00 123.10 11.00 122.00 C 11.00 120.82 10.33 120.00 9.38 120.00 C 7.98 120.00 7.94 119.77 9.13 118.31 C 10.06 117.16 10.10 116.86 9.25 117.37 C 8.56 117.78 8.00 117.64 8.00 117.06 C 8.00 116.48 8.68 116.00 9.50 116.00 C 10.32 116.00 11.00 115.66 11.00 115.25 C 11.00 114.84 25.06 114.38 42.25 114.22 C 59.44 114.07 74.17 113.89 75.00 113.82 C 75.83 113.74 103.72 113.76 137.00 113.84 L 197.50 114.00 L 197.65 138.25 C 197.74 151.59 197.91 172.75 198.03 185.28 C 198.16 197.81 198.08 208.26 197.84 208.49 C 197.61 208.72 177.23 209.04 152.56 209.21 L 107.69 209.50 L 107.40 170.00 C 107.24 148.28 107.07 126.90 107.04 122.50 C 106.99 117.29 106.65 115.00 106.06 115.94 C 105.29 117.15 104.90 117.16 103.51 116.01 C 101.99 114.75 101.89 118.19 102.09 161.83 C 102.22 187.79 102.13 209.21 101.90 209.44 C 101.67 209.66 81.17 210.04 56.35 210.27 L 11.21 210.68 L 11.10 188.09 Z M 386.81 210.32 C 387.53 210.03 388.40 210.06 388.73 210.40 C 389.06 210.73 388.47 210.96 387.42 210.92 C 386.25 210.87 386.01 210.64 386.81 210.32 Z M 206.75 209.18 C 204.74 208.95 203.96 208.28 203.86 206.68 C 203.64 203.17 203.29 178.75 203.01 146.85 C 202.86 130.55 202.46 116.78 202.12 116.25 C 201.78 115.73 200.82 115.04 200.00 114.73 C 199.18 114.41 216.50 114.08 238.50 113.99 C 260.50 113.91 281.76 113.70 285.75 113.53 L 293.00 113.23 L 293.06 137.87 C 293.09 151.41 293.26 172.96 293.43 185.75 L 293.75 209.00 L 276.13 209.01 C 266.43 209.01 247.47 209.12 234.00 209.26 C 220.53 209.39 208.26 209.36 206.75 209.18 Z M 298.89 190.63 C 298.42 116.97 298.46 113.00 299.64 113.00 C 300.30 113.00 301.62 112.70 302.58 112.33 C 303.55 111.96 304.08 112.07 303.76 112.58 C 303.42 113.12 306.57 113.40 311.34 113.25 C 315.83 113.12 335.14 112.82 354.25 112.60 L 389.00 112.18 L 389.05 119.34 C 389.08 123.28 389.33 144.84 389.60 167.25 L 390.10 208.00 L 378.80 208.00 C 372.59 208.00 352.09 208.17 333.25 208.38 L 299.00 208.76 L 298.89 190.63 Z M 392.00 202.94 C 392.00 202.36 392.45 202.16 393.00 202.50 C 393.55 202.84 394.00 203.32 394.00 203.56 C 394.00 203.80 393.55 204.00 393.00 204.00 C 392.45 204.00 392.00 203.52 392.00 202.94 Z M 295.80 197.25 C 295.56 196.29 295.69 194.38 296.08 193.00 C 296.67 190.96 296.82 191.29 296.90 194.75 C 297.00 199.19 296.54 200.24 295.80 197.25 Z M 392.08 195.42 C 392.13 194.25 392.36 194.01 392.68 194.81 C 392.97 195.53 392.94 196.40 392.60 196.73 C 392.27 197.06 392.04 196.47 392.08 195.42 Z M 104.00 190.00 C 104.00 189.45 104.48 189.00 105.06 189.00 C 105.64 189.00 105.84 189.45 105.50 190.00 C 105.16 190.55 104.68 191.00 104.44 191.00 C 104.20 191.00 104.00 190.55 104.00 190.00 Z M 392.16 187.00 C 392.16 185.62 392.38 185.06 392.66 185.75 C 392.94 186.44 392.94 187.56 392.66 188.25 C 392.38 188.94 392.16 188.38 392.16 187.00 Z M 295.00 186.94 C 295.00 186.36 295.45 186.16 296.00 186.50 C 296.55 186.84 297.00 187.32 297.00 187.56 C 297.00 187.80 296.55 188.00 296.00 188.00 C 295.45 188.00 295.00 187.52 295.00 186.94 Z M 8.00 180.00 C 8.00 179.45 8.45 179.00 9.00 179.00 C 9.55 179.00 10.00 179.45 10.00 180.00 C 10.00 180.55 9.55 181.00 9.00 181.00 C 8.45 181.00 8.00 180.55 8.00 180.00 Z M 392.00 175.56 C 392.00 174.70 392.45 174.00 393.00 174.00 C 393.55 174.00 394.00 174.42 394.00 174.94 C 394.00 175.46 393.55 176.16 393.00 176.50 C 392.45 176.84 392.00 176.42 392.00 175.56 Z M 8.02 164.75 C 8.03 162.93 8.22 162.79 9.00 164.00 C 10.25 165.94 10.25 167.00 9.00 167.00 C 8.45 167.00 8.01 165.99 8.02 164.75 Z M 8.00 153.56 C 8.00 152.70 8.45 152.00 9.00 152.00 C 9.55 152.00 10.00 152.42 10.00 152.94 C 10.00 153.46 9.55 154.16 9.00 154.50 C 8.45 154.84 8.00 154.42 8.00 153.56 Z M 8.71 149.00 C 9.00 147.90 9.41 147.00 9.62 147.00 C 9.83 147.00 10.00 147.90 10.00 149.00 C 10.00 150.10 9.59 151.00 9.09 151.00 C 8.60 151.00 8.42 150.10 8.71 149.00 Z M 8.92 142.25 C 8.88 141.29 8.68 139.62 8.48 138.55 C 8.28 137.48 8.53 135.91 9.03 135.05 C 9.66 133.98 9.95 135.11 9.97 138.75 C 9.99 141.64 9.78 144.00 9.50 144.00 C 9.22 144.00 8.97 143.21 8.92 142.25 Z M 295.00 138.44 C 295.00 137.58 295.46 137.16 296.02 137.51 C 296.58 137.86 296.77 138.56 296.46 139.07 C 295.60 140.46 295.00 140.20 295.00 138.44 Z M 103.81 121.50 C 104.03 119.58 104.39 118.00 104.61 118.00 C 104.82 118.00 105.00 119.58 105.00 121.50 C 105.00 123.42 104.64 125.00 104.20 125.00 C 103.76 125.00 103.59 123.42 103.81 121.50 Z M 199.50 117.00 C 199.84 116.45 200.32 116.00 200.56 116.00 C 200.80 116.00 201.00 116.45 201.00 117.00 C 201.00 117.55 200.52 118.00 199.94 118.00 C 199.36 118.00 199.16 117.55 199.50 117.00 Z M 295.00 115.00 C 293.72 114.17 293.75 114.03 295.25 114.02 C 296.21 114.01 297.00 114.45 297.00 115.00 C 297.00 116.22 296.89 116.22 295.00 115.00 Z M 10.08 112.42 C 10.13 111.25 10.36 111.01 10.68 111.81 C 10.97 112.53 10.94 113.40 10.60 113.73 C 10.27 114.06 10.04 113.47 10.08 112.42 Z M 13.50 112.00 C 13.16 111.45 13.36 111.00 13.94 111.00 C 14.52 111.00 15.00 111.45 15.00 112.00 C 15.00 112.55 14.80 113.00 14.56 113.00 C 14.32 113.00 13.84 112.55 13.50 112.00 Z M 22.81 112.32 C 23.53 112.03 24.40 112.06 24.73 112.40 C 25.06 112.73 24.47 112.96 23.42 112.92 C 22.25 112.87 22.01 112.64 22.81 112.32 Z M 28.81 112.32 C 29.53 112.03 30.40 112.06 30.73 112.40 C 31.06 112.73 30.47 112.96 29.42 112.92 C 28.25 112.87 28.01 112.64 28.81 112.32 Z M 55.00 112.00 C 55.00 111.45 55.65 111.00 56.44 111.00 C 57.23 111.00 58.16 111.45 58.50 112.00 C 58.84 112.55 58.19 113.00 57.06 113.00 C 55.93 113.00 55.00 112.55 55.00 112.00 Z M 70.81 112.32 C 71.53 112.03 72.40 112.06 72.73 112.40 C 73.06 112.73 72.47 112.96 71.42 112.92 C 70.25 112.87 70.01 112.64 70.81 112.32 Z M 99.00 112.00 C 99.00 111.45 99.48 111.00 100.06 111.00 C 100.64 111.00 100.84 111.45 100.50 112.00 C 100.16 112.55 99.68 113.00 99.44 113.00 C 99.20 113.00 99.00 112.55 99.00 112.00 Z M 33.81 111.32 C 34.53 111.03 35.40 111.06 35.73 111.40 C 36.06 111.73 35.47 111.96 34.42 111.92 C 33.25 111.87 33.01 111.64 33.81 111.32 Z M 87.81 111.32 C 88.53 111.03 89.40 111.06 89.73 111.40 C 90.06 111.73 89.47 111.96 88.42 111.92 C 87.25 111.87 87.01 111.64 87.81 111.32 Z M 299.08 110.42 C 299.13 109.25 299.36 109.01 299.68 109.81 C 299.97 110.53 299.94 111.40 299.60 111.73 C 299.27 112.06 299.04 111.47 299.08 110.42 Z M 318.00 110.14 C 318.00 109.66 319.12 109.49 320.50 109.76 C 321.88 110.02 323.00 110.41 323.00 110.62 C 323.00 110.83 321.88 111.00 320.50 111.00 C 319.12 111.00 318.00 110.61 318.00 110.14 Z M 334.47 109.96 C 334.15 109.43 334.81 109.00 335.94 109.00 C 338.36 109.00 338.60 109.56 336.53 110.35 C 335.72 110.66 334.80 110.48 334.47 109.96 Z M 379.51 108.98 C 379.86 108.42 380.56 108.23 381.07 108.54 C 382.46 109.40 382.20 110.00 380.44 110.00 C 379.58 110.00 379.16 109.54 379.51 108.98 Z M 11.00 107.56 C 11.00 106.70 10.21 105.99 9.25 105.98 C 7.74 105.97 7.71 105.82 9.00 104.91 C 10.13 104.11 10.19 103.72 9.25 103.34 C 7.51 102.63 7.68 101.00 9.50 101.00 C 11.55 101.00 11.40 99.37 9.28 98.55 C 7.89 98.02 7.82 97.73 8.92 97.05 C 9.68 96.58 10.01 95.48 9.68 94.60 C 9.34 93.72 9.39 93.00 9.78 93.00 C 10.18 93.00 10.58 89.40 10.68 85.00 C 10.80 79.94 10.48 77.00 9.81 77.00 C 9.15 77.00 9.23 76.43 10.00 75.50 C 10.86 74.46 10.90 74.00 10.12 74.00 C 9.51 74.00 8.96 74.56 8.90 75.25 C 8.85 75.94 8.47 75.38 8.07 74.00 C 7.66 72.62 7.60 70.75 7.92 69.82 C 8.24 68.90 8.25 63.72 7.95 58.32 C 7.65 52.92 7.71 48.12 8.09 47.66 C 8.47 47.20 8.56 44.38 8.29 41.38 C 7.99 38.06 8.25 35.40 8.95 34.56 C 9.74 33.61 9.77 32.97 9.05 32.53 C 7.60 31.63 7.73 28.29 9.25 27.58 C 10.25 27.12 10.25 26.88 9.25 26.42 C 7.42 25.56 7.73 22.25 9.75 21.12 C 11.42 20.18 11.42 20.10 9.75 19.46 C 7.75 18.69 7.42 14.98 9.20 13.20 C 10.54 11.86 12.39 11.55 11.62 12.80 C 10.83 14.09 24.19 13.08 25.86 11.73 C 27.13 10.70 27.26 10.79 26.70 12.30 C 26.32 13.32 26.43 13.85 26.95 13.53 C 28.45 12.61 41.87 11.98 42.39 12.81 C 42.98 13.78 57.71 13.57 60.88 12.55 C 62.18 12.13 63.01 12.17 62.72 12.64 C 62.43 13.11 68.57 13.57 76.35 13.66 C 85.71 13.77 89.65 13.52 88.00 12.92 C 86.04 12.22 86.26 12.17 89.00 12.68 C 90.92 13.04 94.30 13.42 96.50 13.53 L 100.50 13.73 L 100.76 60.75 L 101.02 107.78 L 98.76 108.29 C 97.52 108.57 77.26 108.87 53.75 108.95 C 15.66 109.10 11.00 108.94 11.00 107.56 Z M 106.77 61.91 C 106.62 36.38 106.72 15.19 107.00 14.81 C 107.28 14.43 149.01 13.80 199.75 13.40 L 292.00 12.69 L 292.01 37.59 C 292.02 51.29 292.31 72.51 292.66 84.75 L 293.29 107.00 L 226.40 107.00 C 189.60 107.00 147.70 107.30 133.27 107.66 L 107.04 108.32 L 106.77 61.91 Z M 298.64 98.72 C 297.62 84.32 297.87 8.00 298.94 8.00 C 299.46 8.00 300.18 8.48 300.54 9.07 C 300.91 9.66 301.82 9.90 302.57 9.61 C 303.32 9.32 304.20 9.52 304.53 10.04 C 304.85 10.57 303.75 11.00 302.06 11.00 C 300.38 11.00 299.00 11.35 299.00 11.78 C 299.00 12.22 303.84 12.46 309.75 12.34 C 315.66 12.21 334.45 11.86 351.50 11.55 C 368.55 11.25 383.69 10.75 385.15 10.44 L 387.81 9.88 L 387.94 35.69 C 388.02 49.89 388.22 71.47 388.39 83.65 L 388.71 105.81 L 386.11 106.25 C 384.67 106.50 371.57 106.80 357.00 106.93 C 342.43 107.06 323.48 107.29 314.89 107.45 L 299.28 107.74 L 298.64 98.72 Z M 69.94 99.52 C 75.59 97.53 79.60 94.54 83.09 89.72 C 88.53 82.21 85.70 80.17 80.00 87.48 C 71.48 98.39 58.00 100.13 45.27 91.98 C 43.52 90.85 42.79 90.81 41.83 91.77 C 40.31 93.29 42.29 95.03 49.50 98.54 C 55.38 101.41 63.50 101.79 69.94 99.52 Z M 350.40 98.48 C 355.88 97.06 363.93 92.45 363.98 90.72 C 364.03 88.68 360.82 89.16 356.64 91.81 C 347.26 97.76 335.54 96.50 327.72 88.70 C 325.40 86.39 322.98 83.60 322.35 82.50 C 321.44 80.91 320.95 80.75 319.92 81.73 C 318.88 82.73 318.89 83.42 319.97 85.44 C 323.38 91.82 331.35 97.38 339.34 98.96 C 341.63 99.41 343.74 99.83 344.04 99.89 C 344.34 99.95 347.20 99.32 350.40 98.48 Z M 390.50 99.00 C 390.16 98.45 390.36 98.00 390.94 98.00 C 391.52 98.00 392.00 98.45 392.00 99.00 C 392.00 99.55 391.80 100.00 391.56 100.00 C 391.32 100.00 390.84 99.55 390.50 99.00 Z M 71.83 90.24 C 77.17 86.86 81.01 81.33 78.64 80.42 C 77.65 80.03 75.96 81.12 73.90 83.46 C 67.96 90.23 60.46 91.68 52.72 87.56 C 48.96 85.57 47.94 85.37 47.03 86.47 C 46.17 87.50 46.56 88.26 48.75 89.82 C 55.51 94.63 64.61 94.80 71.83 90.24 Z M 351.75 90.46 C 357.03 88.25 359.27 86.03 357.88 84.36 C 356.97 83.26 356.26 83.39 353.88 85.08 C 352.25 86.24 348.67 87.39 345.69 87.69 C 339.26 88.36 332.77 85.52 330.17 80.92 C 328.57 78.10 326.04 77.37 325.33 79.52 C 324.72 81.35 331.27 88.22 335.43 90.11 C 340.41 92.37 346.84 92.51 351.75 90.46 Z M 8.08 89.42 C 8.13 88.25 8.36 88.01 8.68 88.81 C 8.97 89.53 8.94 90.40 8.60 90.73 C 8.27 91.06 8.04 90.47 8.08 89.42 Z M 181.92 86.42 C 188.65 83.72 189.00 82.49 189.00 61.54 L 189.00 43.00 L 201.50 43.00 L 214.00 43.00 L 214.00 55.79 L 214.00 68.57 L 208.16 68.54 C 201.31 68.49 197.66 70.15 195.71 74.19 C 193.90 77.92 194.56 81.24 197.68 84.17 C 199.78 86.14 201.21 86.50 207.06 86.50 C 213.23 86.50 214.24 86.21 216.68 83.78 L 219.40 81.06 L 219.14 59.30 C 219.00 47.34 218.74 37.41 218.57 37.24 C 218.40 37.07 210.33 36.83 200.63 36.71 L 183.00 36.50 L 183.00 52.59 L 183.00 68.68 L 177.24 68.60 C 167.61 68.47 162.13 74.07 165.02 81.06 C 166.36 84.27 168.65 85.90 173.50 87.07 C 177.85 88.12 177.61 88.14 181.92 86.42 Z M 390.71 86.00 C 391.00 84.90 391.41 84.00 391.62 84.00 C 391.83 84.00 392.00 84.90 392.00 86.00 C 392.00 87.10 391.59 88.00 391.09 88.00 C 390.60 88.00 390.42 87.10 390.71 86.00 Z M 68.01 83.75 C 72.27 80.85 73.83 78.43 72.37 76.97 C 71.58 76.18 70.42 76.73 68.22 78.94 C 64.85 82.30 60.24 82.98 55.48 80.81 C 53.35 79.84 52.69 79.88 51.99 81.02 C 50.69 83.12 55.66 85.99 60.60 85.99 C 63.22 86.00 65.90 85.19 68.01 83.75 Z M 351.37 82.27 C 353.93 80.98 354.08 80.65 352.75 79.32 C 351.42 77.99 350.89 78.00 348.05 79.47 C 344.10 81.52 340.08 80.78 336.95 77.45 C 334.41 74.75 332.00 74.23 332.00 76.39 C 332.00 78.84 335.38 82.03 339.50 83.47 C 343.72 84.94 346.66 84.65 351.37 82.27 Z M 8.08 82.42 C 8.13 81.25 8.36 81.01 8.68 81.81 C 8.97 82.53 8.94 83.40 8.60 83.73 C 8.27 84.06 8.04 83.47 8.08 82.42 Z M 63.50 70.92 C 73.95 69.23 82.58 67.76 82.67 67.66 C 83.02 67.32 76.23 25.89 75.75 25.42 C 75.33 25.00 34.02 30.97 33.18 31.57 C 32.68 31.93 38.56 71.29 39.48 73.77 C 39.76 74.53 40.89 74.84 42.23 74.53 C 43.48 74.24 53.05 72.62 63.50 70.92 Z M 10.98 70.25 C 10.97 68.25 10.73 67.88 10.08 68.91 C 9.59 69.68 9.42 70.92 9.70 71.66 C 10.51 73.77 11.00 73.24 10.98 70.25 Z M 368.33 51.13 C 369.92 39.45 371.06 29.74 370.86 29.55 C 370.21 28.91 328.63 23.04 328.16 23.51 C 327.22 24.45 322.00 65.40 322.73 66.09 C 323.53 66.84 362.75 72.91 364.47 72.56 C 365.00 72.45 366.74 62.80 368.33 51.13 Z M 44.49 66.61 C 43.98 64.95 41.22 48.24 40.48 42.34 C 39.73 36.29 38.92 36.78 53.50 34.47 C 73.00 31.38 72.00 31.39 72.00 34.35 C 72.00 35.78 72.92 42.64 74.05 49.59 C 75.18 56.54 75.96 62.38 75.77 62.56 C 75.59 62.74 70.96 63.58 65.47 64.42 C 59.99 65.27 53.10 66.36 50.17 66.84 C 46.42 67.46 44.73 67.40 44.49 66.61 Z M 344.27 63.56 C 336.45 62.36 329.77 61.11 329.44 60.78 C 328.78 60.12 332.08 32.49 333.00 31.00 C 333.34 30.45 339.80 30.96 349.04 32.29 L 364.50 34.50 L 364.13 37.50 C 361.72 57.00 360.33 65.37 359.50 65.54 C 358.95 65.65 352.10 64.76 344.27 63.56 Z M 10.60 62.27 C 9.59 61.25 8.75 62.78 9.58 64.13 C 10.21 65.15 10.45 65.15 10.79 64.14 C 11.02 63.44 10.94 62.60 10.60 62.27 Z M 390.00 58.94 C 390.00 58.36 390.45 58.16 391.00 58.50 C 391.55 58.84 392.00 59.32 392.00 59.56 C 392.00 59.80 391.55 60.00 391.00 60.00 C 390.45 60.00 390.00 59.52 390.00 58.94 Z M 10.66 55.75 C 10.38 55.06 10.16 55.62 10.16 57.00 C 10.16 58.38 10.38 58.94 10.66 58.25 C 10.94 57.56 10.94 56.44 10.66 55.75 Z M 390.50 45.00 C 390.16 44.45 390.36 44.00 390.94 44.00 C 391.52 44.00 392.00 44.45 392.00 45.00 C 392.00 45.55 391.80 46.00 391.56 46.00 C 391.32 46.00 390.84 45.55 390.50 45.00 Z M 389.76 34.50 C 390.02 33.12 390.41 32.00 390.62 32.00 C 390.83 32.00 391.00 33.12 391.00 34.50 C 391.00 35.88 390.61 37.00 390.14 37.00 C 389.66 37.00 389.49 35.88 389.76 34.50 Z M 390.67 16.33 C 390.30 15.97 390.03 14.73 390.06 13.58 C 390.12 11.67 390.20 11.69 391.08 13.90 C 392.06 16.34 391.86 17.53 390.67 16.33 Z M 75.00 11.00 C 73.78 10.21 73.91 10.03 75.69 10.02 C 76.90 10.01 78.16 10.45 78.50 11.00 C 79.29 12.27 76.97 12.27 75.00 11.00 Z M 84.00 10.94 C 84.00 10.36 84.45 10.16 85.00 10.50 C 85.55 10.84 86.00 11.32 86.00 11.56 C 86.00 11.80 85.55 12.00 85.00 12.00 C 84.45 12.00 84.00 11.52 84.00 10.94 Z M 97.00 11.61 C 97.00 11.39 97.67 10.95 98.50 10.64 C 99.33 10.32 100.00 10.50 100.00 11.03 C 100.00 11.56 99.33 12.00 98.50 12.00 C 97.67 12.00 97.00 11.82 97.00 11.61 Z M 66.81 10.32 C 67.53 10.03 68.40 10.06 68.73 10.40 C 69.06 10.73 68.47 10.96 67.42 10.92 C 66.25 10.87 66.01 10.64 66.81 10.32 Z M 92.81 10.32 C 93.53 10.03 94.40 10.06 94.73 10.40 C 95.06 10.73 94.47 10.96 93.42 10.92 C 92.25 10.87 92.01 10.64 92.81 10.32 Z M 306.00 10.00 C 306.00 9.45 306.45 9.00 307.00 9.00 C 307.55 9.00 308.00 9.45 308.00 10.00 C 308.00 10.55 307.55 11.00 307.00 11.00 C 306.45 11.00 306.00 10.55 306.00 10.00 Z M 316.00 9.50 C 316.68 8.68 317.69 8.00 318.24 8.00 C 318.80 8.00 318.69 8.66 318.00 9.50 C 317.32 10.32 316.31 11.00 315.76 11.00 C 315.20 11.00 315.31 10.34 316.00 9.50 Z M 319.55 9.59 C 320.61 8.81 321.87 8.42 322.35 8.71 C 323.39 9.36 321.07 10.96 319.06 10.98 C 318.04 11.00 318.18 10.59 319.55 9.59 Z M 310.27 9.31 C 311.24 9.05 312.59 9.07 313.27 9.34 C 313.95 9.62 313.15 9.83 311.50 9.81 C 309.85 9.78 309.30 9.56 310.27 9.31 Z M 365.50 9.00 C 365.84 8.45 366.32 8.00 366.56 8.00 C 366.80 8.00 367.00 8.45 367.00 9.00 C 367.00 9.55 366.52 10.00 365.94 10.00 C 365.36 10.00 365.16 9.55 365.50 9.00 Z M 370.50 9.00 C 368.59 8.18 368.60 8.14 370.75 8.07 C 371.99 8.03 373.00 8.45 373.00 9.00 C 373.00 9.55 372.89 9.97 372.75 9.93 C 372.61 9.89 371.60 9.47 370.50 9.00 Z M 374.64 8.50 C 374.29 7.60 374.63 7.00 375.50 7.00 C 376.37 7.00 376.71 7.60 376.36 8.50 C 376.05 9.32 375.66 10.00 375.50 10.00 C 375.34 10.00 374.95 9.32 374.64 8.50 Z M 382.00 9.00 C 382.00 8.45 383.24 8.03 384.75 8.07 C 387.19 8.13 387.27 8.24 385.50 9.00 C 382.77 10.17 382.00 10.17 382.00 9.00 Z M 379.81 7.32 C 380.53 7.03 381.40 7.06 381.73 7.40 C 382.06 7.73 381.47 7.96 380.42 7.92 C 379.25 7.87 379.01 7.64 379.81 7.32 Z" fill="none" stroke="rgba(255,255,255,0.92)" stroke-width="1.5" stroke-linejoin="round" fill-rule="evenodd"/>
</svg>
