<svg xmlns="http://www.w3.org/2000/svg" viewBox="0 0 100 100" width="100" height="100">
  <path d="M 0.00 50.00 L 0.00 0.00 L 50.00 0.00 L 100.00 0.00 L 100.00 50.00 L 100.00 100.00 L 50.00 100.00 L 0.00 100.00 L 0.00 50.00 Z M 96.00 51.00 L 96.00 6.00 L 84.66 6.00 C 78.43 6.00 57.73 6.30 38.66 6.66 L 4.00 7.32 L 4.00 9.66 L 4.00 12.00 L 48.00 12.00 L 92.00 12.00 L 92.14 39.25 C 92.22 54.24 92.37 67.40 92.47 68.50 C 92.57 69.60 92.73 76.24 92.83 83.25 C 92.97 93.84 93.25 96.00 94.50 96.00 C 95.81 96.00 96.00 90.33 96.00 51.00 Z M 16.65 75.81 C 19.42 73.03 19.36 73.66 19.14 49.25 L 19.00 33.00 L 11.50 33.00 L 4.00 33.00 L 4.00 36.08 C 4.00 39.12 4.05 39.15 8.75 38.86 L 13.50 38.57 L 13.50 50.50 L 13.50 62.43 L 8.75 62.14 L 4.00 61.85 L 4.00 70.55 L 4.00 79.25 L 9.09 78.77 C 12.73 78.42 14.88 77.58 16.65 75.81 Z" fill="none" stroke="rgba(255,255,255,0.92)" stroke-width="1.2" stroke-linejoin="round" fill-rule="evenodd"/>
</svg>
