<svg xmlns="http://www.w3.org/2000/svg" viewBox="0 0 100 100" width="100" height="100">
  <path d="M 0.00 50.00 L 0.00 0.00 L 50.00 0.00 L 100.00 0.00 L 100.00 50.00 L 100.00 100.00 L 50.00 100.00 L 0.00 100.00 L 0.00 50.00 Z M 6.78 54.65 L 6.50 13.31 L 31.91 12.65 C 45.89 12.29 66.03 12.00 76.66 12.00 L 96.00 12.00 L 96.00 9.50 L 96.00 7.00 L 50.00 7.00 L 4.00 7.00 L 4.00 51.50 C 4.00 90.80 4.18 96.00 5.53 96.00 C 6.89 96.00 7.03 91.24 6.78 54.65 Z M 84.02 77.49 C 85.63 76.66 87.40 75.11 87.97 74.06 C 88.56 72.96 89.00 65.02 89.00 55.57 L 89.00 39.00 L 92.50 39.00 C 95.72 39.00 96.00 38.76 96.00 36.00 L 96.00 33.00 L 89.50 33.00 L 83.00 33.00 L 83.00 47.75 L 83.00 62.50 L 78.17 62.17 C 68.85 61.52 62.64 66.35 64.69 72.65 C 66.49 78.18 77.40 80.91 84.02 77.49 Z M 95.93 70.25 C 95.88 67.39 95.67 66.97 95.08 68.48 C 94.37 70.31 94.73 74.00 95.62 74.00 C 95.83 74.00 95.97 72.31 95.93 70.25 Z" fill="none" stroke="rgba(255,255,255,0.92)" stroke-width="1.2" stroke-linejoin="round" fill-rule="evenodd"/>
</svg>
