<svg xmlns="http://www.w3.org/2000/svg" viewBox="0 0 100 100" width="100" height="100">
  <path d="M 0.00 50.00 L 0.00 0.00 L 50.00 0.00 L 100.00 0.00 L 100.00 50.00 L 100.00 100.00 L 50.00 100.00 L 0.00 100.00 L 0.00 50.00 Z M 8.86 95.11 C 9.82 94.50 9.89 94.05 9.09 93.56 C 8.47 93.17 8.23 92.44 8.55 91.91 C 8.87 91.39 9.56 91.23 10.07 91.54 C 10.58 91.86 11.00 91.42 11.00 90.56 C 11.00 89.70 10.21 88.99 9.25 88.98 C 7.90 88.97 7.80 88.78 8.85 88.12 C 10.41 87.12 10.75 83.53 9.59 80.12 C 9.07 78.58 9.14 77.97 9.80 78.38 C 10.44 78.77 10.79 77.32 10.75 74.50 C 10.71 72.03 10.32 70.00 9.87 70.00 C 9.43 70.00 9.32 69.21 9.63 68.25 C 10.05 66.93 9.95 66.83 9.23 67.84 C 8.50 68.87 8.15 68.59 7.79 66.66 C 7.52 65.27 7.57 63.70 7.90 63.16 C 8.23 62.63 8.25 57.99 7.95 52.85 C 7.64 47.71 7.63 43.05 7.92 42.50 C 8.22 41.95 8.33 39.14 8.18 36.25 C 7.98 32.56 8.26 31.00 9.15 31.00 C 10.12 31.00 10.13 30.73 9.20 29.80 C 7.63 28.23 7.66 25.02 9.25 24.92 C 10.25 24.86 10.25 24.74 9.25 24.34 C 7.41 23.60 7.73 20.25 9.75 19.12 C 11.42 18.18 11.42 18.10 9.75 17.46 C 7.73 16.68 7.41 13.48 9.25 12.34 C 9.94 11.91 13.60 11.70 17.38 11.88 C 22.33 12.10 24.51 11.81 25.13 10.85 C 25.73 9.92 26.23 9.84 26.75 10.58 C 27.25 11.30 35.18 11.63 50.75 11.58 C 63.54 11.53 74.00 11.72 74.00 12.00 C 74.00 12.28 77.36 12.53 81.45 12.57 C 85.77 12.61 88.65 12.25 88.32 11.71 C 88.00 11.19 88.68 11.05 89.87 11.39 C 91.04 11.73 92.90 12.26 94.00 12.57 C 95.66 13.04 96.00 12.66 96.00 10.32 L 96.00 7.50 L 51.11 7.25 L 6.22 6.99 L 5.71 9.25 C 5.43 10.49 5.36 28.15 5.56 48.50 C 5.76 68.85 5.94 87.86 5.96 90.75 C 6.00 96.06 6.40 96.66 8.86 95.11 Z M 73.72 88.37 C 80.92 84.94 89.19 75.00 84.85 75.00 C 84.21 75.00 82.10 76.86 80.15 79.14 C 75.46 84.62 68.13 87.99 61.00 87.95 C 54.88 87.91 48.88 86.11 45.90 83.41 C 44.15 81.83 43.77 81.80 42.43 83.14 C 41.09 84.48 41.47 84.94 45.83 87.31 C 55.44 92.54 64.26 92.87 73.72 88.37 Z M 66.55 83.88 C 70.79 82.81 80.00 75.97 80.00 73.88 C 80.00 71.40 76.83 72.04 74.32 75.04 C 69.16 81.16 58.76 82.98 52.11 78.92 C 49.11 77.10 48.54 77.03 47.23 78.34 C 45.92 79.65 46.14 80.02 49.12 81.56 C 55.98 85.11 59.71 85.61 66.55 83.88 Z M 66.80 76.60 C 71.03 74.41 73.59 71.19 72.19 69.79 C 71.31 68.91 70.48 69.13 68.76 70.75 C 64.46 74.78 58.88 75.58 55.20 72.69 C 54.28 71.97 53.45 72.12 52.39 73.18 C 51.04 74.53 51.24 74.87 54.19 76.32 C 58.28 78.34 63.23 78.45 66.80 76.60 Z M 8.08 74.42 C 8.13 73.25 8.36 73.01 8.68 73.81 C 8.97 74.53 8.94 75.40 8.60 75.73 C 8.27 76.06 8.04 75.47 8.08 74.42 Z M 62.00 64.49 C 72.72 62.97 81.78 61.45 82.13 61.11 C 82.86 60.40 76.74 24.41 75.72 23.38 C 75.34 23.01 65.56 24.00 53.97 25.60 L 32.91 28.50 L 33.51 32.50 C 35.22 44.02 39.22 66.55 39.68 67.29 C 39.97 67.75 40.72 67.94 41.35 67.70 C 41.98 67.45 51.27 66.01 62.00 64.49 Z M 11.00 63.80 C 11.00 62.18 10.70 61.90 9.89 62.71 C 9.28 63.32 9.08 64.31 9.45 64.91 C 10.48 66.59 11.00 66.21 11.00 63.80 Z M 43.71 57.25 C 43.41 55.19 42.39 49.09 41.46 43.71 C 40.52 38.32 39.97 33.69 40.24 33.42 C 40.66 33.00 49.71 31.63 67.00 29.37 L 71.50 28.79 L 73.34 40.64 C 74.36 47.16 75.41 53.48 75.68 54.68 C 76.12 56.59 75.67 56.92 71.84 57.42 C 69.45 57.74 62.72 58.67 56.87 59.50 C 51.03 60.32 45.80 61.00 45.25 61.00 C 44.71 61.00 44.02 59.31 43.71 57.25 Z M 11.00 57.44 C 11.00 56.58 10.54 56.16 9.98 56.51 C 9.42 56.86 9.23 57.56 9.54 58.07 C 10.40 59.46 11.00 59.20 11.00 57.44 Z M 10.66 49.75 C 10.38 49.06 10.16 49.62 10.16 51.00 C 10.16 52.38 10.38 52.94 10.66 52.25 C 10.94 51.56 10.94 50.44 10.66 49.75 Z M 74.50 10.00 C 73.71 8.73 76.03 8.73 78.00 10.00 C 79.22 10.79 79.09 10.97 77.31 10.98 C 76.10 10.99 74.84 10.55 74.50 10.00 Z" fill="none" stroke="rgba(255,255,255,0.92)" stroke-width="1.2" stroke-linejoin="round" fill-rule="evenodd"/>
</svg>
