<svg xmlns="http://www.w3.org/2000/svg" viewBox="0 0 100 100" width="100" height="100">
  <path d="M 0.00 50.00 L 0.00 0.00 L 50.00 0.00 L 100.00 0.00 L 100.00 50.00 L 100.00 100.00 L 50.00 100.00 L 0.00 100.00 L 0.00 50.00 Z M 7.00 86.50 C 7.00 76.17 8.69 73.34 9.23 82.75 C 9.42 85.91 9.61 82.88 9.65 76.00 C 9.70 69.07 9.41 64.61 9.00 66.00 C 8.59 67.38 8.45 69.46 8.71 70.64 C 8.96 71.82 8.68 73.08 8.08 73.45 C 7.33 73.91 7.02 71.10 7.06 64.31 C 7.11 57.41 7.40 55.17 8.03 56.75 C 8.53 57.99 8.68 59.68 8.36 60.50 C 8.04 61.33 8.28 62.00 8.89 62.00 C 9.55 62.00 9.99 60.07 9.98 57.25 C 9.98 54.27 9.65 53.00 9.12 53.83 C 7.95 55.68 7.00 53.03 7.00 47.92 C 7.00 45.10 7.42 44.00 8.50 44.00 C 9.76 44.00 10.00 41.89 10.00 31.00 C 10.00 20.11 9.76 18.00 8.50 18.00 C 7.43 18.00 7.00 16.92 7.02 14.25 C 7.03 11.61 7.30 10.93 7.94 11.94 C 8.61 13.00 9.19 13.09 10.17 12.27 C 11.07 11.53 24.74 10.99 52.00 10.63 C 74.28 10.34 93.29 10.08 94.25 10.05 C 95.46 10.02 96.00 9.19 96.00 7.40 L 96.00 4.79 L 61.25 5.35 C 42.14 5.66 22.23 5.94 17.00 5.97 C 11.78 6.00 6.89 6.42 6.14 6.89 C 4.60 7.87 3.84 18.52 5.13 21.12 C 5.57 22.01 5.64 23.03 5.28 23.39 C 4.92 23.74 4.71 35.16 4.80 48.77 C 4.90 62.37 4.98 78.56 4.99 84.75 C 4.99 91.57 5.39 96.00 6.00 96.00 C 6.60 96.00 7.00 92.17 7.00 86.50 Z M 9.66 92.75 C 9.38 92.06 9.16 92.62 9.16 94.00 C 9.16 95.38 9.38 95.94 9.66 95.25 C 9.94 94.56 9.94 93.44 9.66 92.75 Z M 64.01 89.54 C 68.33 87.36 74.68 81.42 76.61 77.75 C 79.00 73.19 75.72 74.26 70.77 79.65 C 65.19 85.73 60.20 87.95 52.08 87.98 C 46.79 88.00 44.74 87.48 40.42 85.04 C 36.16 82.64 34.97 82.33 34.08 83.41 C 33.27 84.38 33.31 85.00 34.24 85.74 C 35.99 87.14 41.98 90.14 44.99 91.13 C 48.93 92.42 60.16 91.48 64.01 89.54 Z M 60.77 83.02 C 65.21 81.00 71.00 75.49 71.00 73.28 C 71.00 71.03 68.80 71.90 65.24 75.57 C 63.33 77.53 60.67 79.56 59.32 80.07 C 55.06 81.69 47.01 81.17 43.59 79.05 C 41.40 77.70 39.99 77.40 38.97 78.06 C 37.74 78.86 37.91 79.34 40.00 81.01 C 45.30 85.23 54.04 86.07 60.77 83.02 Z M 58.63 76.37 C 61.83 74.85 65.00 71.57 65.00 69.78 C 65.00 68.07 61.36 69.19 59.06 71.60 C 56.63 74.16 53.92 74.42 45.61 72.86 C 42.57 72.28 42.62 74.73 45.69 76.40 C 49.38 78.40 54.38 78.39 58.63 76.37 Z M 54.50 63.95 C 64.95 62.22 73.66 60.65 73.86 60.46 C 74.38 59.96 68.63 23.03 67.83 21.73 C 67.36 20.97 61.02 21.66 46.83 24.01 C 35.65 25.86 26.13 27.68 25.68 28.06 C 25.22 28.44 25.76 33.87 26.86 40.12 C 27.96 46.38 29.18 54.20 29.56 57.50 C 30.53 65.70 31.58 68.26 33.75 67.61 C 34.71 67.33 44.05 65.68 54.50 63.95 Z M 34.69 52.25 C 33.83 47.44 32.83 40.95 32.46 37.83 L 31.79 32.15 L 36.64 31.52 C 39.31 31.16 46.20 30.02 51.94 28.96 C 57.68 27.91 62.58 27.24 62.81 27.48 C 63.42 28.09 66.95 49.92 66.98 53.23 C 66.99 55.27 66.43 56.08 64.75 56.44 C 61.83 57.05 37.69 61.01 36.88 61.00 C 36.53 61.00 35.55 57.06 34.69 52.25 Z M 10.00 47.27 C 10.00 44.14 9.52 44.50 8.60 48.33 C 8.15 50.19 8.28 50.95 8.96 50.52 C 9.53 50.17 10.00 48.71 10.00 47.27 Z M 7.30 41.66 C 7.65 40.75 7.58 40.00 7.14 40.00 C 6.70 40.00 6.48 37.86 6.65 35.25 C 6.82 32.64 7.05 27.91 7.16 24.75 C 7.27 21.59 7.73 19.00 8.19 19.00 C 9.39 19.00 8.88 41.96 7.67 42.71 C 7.07 43.08 6.92 42.66 7.30 41.66 Z M 10.00 15.00 C 10.00 14.45 9.55 14.00 9.00 14.00 C 8.45 14.00 8.00 14.45 8.00 15.00 C 8.00 15.55 8.45 16.00 9.00 16.00 C 9.55 16.00 10.00 15.55 10.00 15.00 Z M 45.00 8.00 C 45.00 7.45 45.70 7.00 46.56 7.00 C 47.42 7.00 47.84 7.45 47.50 8.00 C 47.16 8.55 46.46 9.00 45.94 9.00 C 45.42 9.00 45.00 8.55 45.00 8.00 Z M 55.50 8.00 C 55.16 7.45 55.84 7.00 57.00 7.00 C 58.16 7.00 58.84 7.45 58.50 8.00 C 58.16 8.55 57.49 9.00 57.00 9.00 C 56.51 9.00 55.84 8.55 55.50 8.00 Z M 69.00 8.00 C 69.00 7.45 69.45 7.00 70.00 7.00 C 70.55 7.00 71.00 7.45 71.00 8.00 C 71.00 8.55 70.55 9.00 70.00 9.00 C 69.45 9.00 69.00 8.55 69.00 8.00 Z" fill="none" stroke="rgba(255,255,255,0.92)" stroke-width="1.2" stroke-linejoin="round" fill-rule="evenodd"/>
</svg>
