<svg xmlns="http://www.w3.org/2000/svg" viewBox="0 0 387 400" width="387" height="400">
  <path d="M 0.00 200.00 L 0.00 0.00 L 193.50 0.00 L 387.00 0.00 L 387.00 200.00 L 387.00 400.00 L 193.50 400.00 L 0.00 400.00 L 0.00 200.00 Z M 199.00 391.44 C 296.62 391.16 377.13 390.71 377.90 390.44 C 379.09 390.02 379.20 375.12 378.64 290.23 C 378.28 235.38 377.81 177.90 377.59 162.50 C 377.37 147.10 377.12 106.27 377.05 71.78 L 376.92 9.05 L 373.21 9.04 C 371.17 9.03 368.15 8.98 366.50 8.92 C 364.85 8.86 361.93 8.84 360.00 8.88 C 358.07 8.91 355.38 8.92 354.00 8.90 C 352.62 8.87 346.77 8.88 341.00 8.91 C 335.23 8.94 329.82 8.94 329.00 8.92 C 328.18 8.90 325.25 8.90 322.50 8.92 C 319.75 8.94 316.60 8.92 315.50 8.89 C 314.40 8.86 306.07 8.86 297.00 8.89 C 287.93 8.93 266.95 8.90 250.38 8.84 C 233.82 8.77 219.73 9.05 219.07 9.46 C 218.42 9.86 216.64 9.68 215.12 9.05 C 213.28 8.29 211.05 8.20 208.41 8.80 C 205.82 9.38 203.87 9.32 202.77 8.63 C 201.58 7.87 199.87 7.89 196.90 8.68 C 194.10 9.43 191.80 9.48 189.94 8.83 C 188.13 8.20 185.90 8.21 183.54 8.86 C 181.07 9.54 178.95 9.53 176.91 8.82 C 174.83 8.09 172.66 8.10 169.75 8.84 C 167.46 9.42 165.11 9.55 164.54 9.13 C 163.97 8.71 153.38 8.54 141.00 8.74 C 128.62 8.95 117.38 9.09 116.00 9.05 C 114.62 9.00 112.15 9.02 110.50 9.08 C 106.11 9.24 100.85 9.25 98.00 9.10 C 95.33 8.96 40.17 9.57 21.00 9.96 L 9.50 10.19 L 9.78 200.34 C 9.93 304.93 10.22 390.97 10.42 391.55 C 10.64 392.18 12.99 392.48 16.14 392.28 C 19.09 392.10 101.38 391.73 199.00 391.44 Z M 21.63 371.50 C 20.60 356.88 20.91 208.17 21.97 207.52 C 23.25 206.73 243.48 206.30 311.77 206.97 L 367.03 207.50 L 367.27 293.00 L 367.50 378.50 L 357.00 379.21 C 351.23 379.60 273.55 380.05 184.38 380.21 L 22.26 380.50 L 21.63 371.50 Z M 205.03 343.01 C 225.50 340.66 241.66 331.77 250.62 317.92 C 254.89 311.33 255.26 311.02 258.80 311.16 C 260.83 311.24 282.64 311.24 307.25 311.15 L 352.00 311.00 L 352.00 293.49 L 352.00 275.97 L 195.04 276.02 C 108.71 276.04 37.88 276.39 37.62 276.80 C 37.37 277.21 37.04 285.19 36.90 294.52 L 36.64 311.50 L 84.52 311.50 L 132.39 311.50 L 135.21 316.90 C 136.76 319.87 139.04 323.18 140.27 324.27 C 153.22 335.72 165.75 341.20 183.00 342.96 C 194.00 344.08 195.66 344.08 205.03 343.01 Z M 178.00 331.03 C 176.62 330.59 172.43 329.26 168.67 328.09 C 161.39 325.82 152.36 320.57 148.41 316.31 C 143.29 310.78 141.92 310.94 193.50 311.03 C 230.55 311.09 241.00 311.38 241.00 312.35 C 241.00 314.61 232.59 321.76 226.15 324.97 C 217.01 329.52 204.77 331.97 191.50 331.90 C 185.45 331.87 179.38 331.48 178.00 331.03 Z M 113.64 264.17 L 116.78 260.50 L 107.39 250.50 C 102.23 245.00 94.97 237.04 91.25 232.82 C 87.54 228.59 84.18 225.11 83.78 225.07 C 82.53 224.95 76.00 231.16 76.00 232.46 C 76.00 233.16 77.91 235.76 80.25 238.24 C 82.59 240.73 89.45 248.11 95.50 254.63 C 101.55 261.16 106.95 266.83 107.50 267.23 C 109.24 268.51 110.42 267.93 113.64 264.17 Z M 286.26 261.19 C 293.37 252.92 300.54 245.10 307.18 238.34 L 312.25 233.19 L 309.50 229.59 C 308.00 227.62 305.98 226.00 305.03 226.00 C 303.28 226.00 272.00 259.01 272.00 260.85 C 272.00 262.67 277.15 268.00 278.84 267.94 C 279.75 267.90 283.09 264.87 286.26 261.19 Z M 163.30 255.05 C 164.21 254.20 162.97 245.92 159.41 229.00 C 158.08 222.68 156.99 216.49 157.00 215.25 C 157.00 212.63 156.90 212.61 151.00 214.37 C 148.53 215.11 146.37 216.38 146.21 217.19 C 146.05 218.00 147.51 226.05 149.46 235.08 C 151.40 244.11 153.00 252.44 153.00 253.58 C 153.00 254.73 153.32 255.99 153.72 256.38 C 154.55 257.21 162.11 256.16 163.30 255.05 Z M 234.01 256.75 C 234.02 256.32 238.75 229.81 240.08 222.76 C 240.77 219.05 241.15 215.82 240.91 215.58 C 240.68 215.34 238.27 215.00 235.56 214.83 L 230.63 214.50 L 229.46 220.50 C 222.78 254.80 222.76 255.12 227.50 256.13 C 230.82 256.83 234.00 257.14 234.01 256.75 Z M 18.25 195.30 C 13.50 194.84 12.40 193.00 16.86 193.00 C 19.59 193.00 19.76 192.74 20.38 187.43 C 20.74 184.37 20.74 181.40 20.39 180.82 C 20.04 180.25 19.75 144.43 19.74 101.22 C 19.74 28.99 19.87 22.57 21.41 21.44 C 22.55 20.61 26.63 20.31 34.29 20.51 C 40.46 20.67 47.37 20.35 49.66 19.80 C 52.27 19.18 54.45 19.15 55.50 19.74 C 56.47 20.28 59.31 20.34 62.31 19.86 C 65.14 19.42 67.82 19.42 68.28 19.88 C 68.74 20.34 70.77 20.41 72.81 20.04 C 74.84 19.67 81.67 19.51 88.00 19.68 C 95.31 19.88 100.31 19.58 101.72 18.85 C 103.31 18.02 104.30 18.00 105.24 18.78 C 106.70 20.00 126.83 19.84 128.84 18.60 C 129.53 18.17 130.74 18.37 131.53 19.02 C 132.43 19.77 134.39 19.98 136.74 19.59 C 138.81 19.24 141.40 18.99 142.50 19.03 C 143.60 19.07 153.80 19.19 165.17 19.30 C 176.53 19.41 186.13 19.80 186.50 20.17 C 186.87 20.54 187.37 55.41 187.61 97.67 C 187.85 139.93 188.21 179.11 188.40 184.75 L 188.76 195.00 L 108.50 195.00 C 64.36 195.00 26.96 195.16 25.38 195.36 C 23.79 195.56 20.59 195.53 18.25 195.30 Z M 315.62 195.28 C 315.49 195.16 287.58 195.02 253.59 194.97 L 191.80 194.88 L 192.36 192.74 C 192.66 191.57 192.54 190.13 192.07 189.55 C 191.60 188.97 191.60 184.15 192.06 178.82 C 192.51 173.50 192.71 165.08 192.49 160.10 C 192.28 155.13 192.48 150.82 192.95 150.53 C 194.11 149.81 195.26 172.39 194.63 183.75 C 194.17 192.22 194.28 193.00 195.95 193.00 C 196.95 193.00 197.95 192.21 198.17 191.25 C 198.40 190.29 198.45 176.90 198.29 161.50 C 198.13 146.10 197.90 108.11 197.77 77.07 L 197.54 20.63 L 200.52 19.83 C 202.16 19.38 205.61 19.29 208.19 19.63 C 210.81 19.97 214.30 19.74 216.12 19.11 C 218.32 18.34 219.70 18.30 220.39 18.99 C 221.90 20.50 228.34 20.21 230.56 18.53 C 233.10 16.61 234.00 16.64 234.00 18.63 C 234.00 20.00 234.69 20.15 238.25 19.54 C 242.91 18.74 242.60 18.74 255.50 19.35 C 265.40 19.81 271.49 18.78 272.37 16.49 C 272.68 15.66 274.17 15.01 275.72 15.01 L 278.50 15.03 L 276.11 16.26 C 274.80 16.94 273.67 17.94 273.61 18.47 C 273.47 19.67 287.94 20.07 293.75 19.02 C 296.09 18.60 298.00 18.55 298.00 18.90 C 298.00 19.26 313.07 19.57 331.48 19.59 C 349.90 19.62 365.28 19.95 365.67 20.33 C 366.35 21.02 366.69 52.83 367.02 148.00 L 367.19 195.50 L 341.52 195.50 C 327.40 195.50 315.74 195.40 315.62 195.28 Z M 369.50 194.00 C 369.84 193.45 370.77 193.00 371.56 193.00 C 372.35 193.00 373.00 192.32 373.00 191.50 C 373.00 190.68 372.55 190.00 372.00 190.00 C 370.53 190.00 370.71 172.69 372.20 171.20 C 373.13 170.27 373.13 169.73 372.20 168.80 C 370.68 167.28 370.62 161.00 372.12 161.00 C 372.91 161.00 372.89 160.57 372.04 159.54 C 370.87 158.14 370.97 153.46 372.41 141.00 C 372.79 137.71 372.70 137.17 372.07 139.00 C 371.28 141.28 371.19 141.17 371.10 137.75 C 371.00 133.82 373.18 132.42 374.41 135.62 C 375.25 137.82 373.94 150.00 372.86 150.00 C 372.39 150.00 372.00 151.15 372.00 152.56 C 372.00 153.97 372.40 154.87 372.88 154.57 C 373.76 154.03 374.67 162.83 374.97 174.75 C 375.12 181.03 373.52 183.53 372.72 178.25 C 372.41 176.21 372.26 176.55 372.15 179.55 C 372.07 181.78 372.53 184.13 373.18 184.78 C 373.83 185.43 374.45 188.00 374.56 190.48 C 374.74 194.86 374.65 195.00 371.81 195.00 C 370.11 195.00 369.14 194.58 369.50 194.00 Z M 15.00 187.08 C 15.00 183.57 15.89 181.00 17.11 181.00 C 18.33 181.00 18.24 184.73 17.00 185.50 C 16.33 185.91 16.34 186.77 17.03 188.06 C 17.85 189.59 17.74 190.00 16.54 190.00 C 15.51 190.00 15.00 189.04 15.00 187.08 Z M 14.62 176.46 C 13.99 174.82 15.90 171.00 17.35 171.00 C 17.82 171.00 17.94 171.71 17.61 172.58 C 17.27 173.45 17.00 175.03 17.00 176.08 C 17.00 178.38 15.45 178.63 14.62 176.46 Z M 15.50 168.00 C 14.77 166.82 15.72 165.00 17.06 165.00 C 17.58 165.00 18.00 165.90 18.00 167.00 C 18.00 169.11 16.55 169.69 15.50 168.00 Z M 17.14 158.25 C 17.06 157.56 16.34 157.00 15.54 157.00 C 14.38 157.00 14.12 155.58 14.28 150.09 C 14.40 146.29 14.80 143.38 15.19 143.61 C 15.57 143.85 16.34 143.25 16.91 142.27 C 17.84 140.67 17.94 140.71 17.97 142.69 C 17.99 143.90 17.55 145.16 17.00 145.50 C 15.66 146.33 15.72 152.32 17.08 153.68 C 17.68 154.28 17.97 155.83 17.72 157.13 C 17.47 158.44 17.21 158.94 17.14 158.25 Z M 191.00 145.68 C 191.00 144.82 191.46 143.84 192.02 143.49 C 192.58 143.14 192.78 142.45 192.46 141.94 C 192.15 141.43 192.35 140.22 192.92 139.26 C 193.75 137.82 193.94 138.17 193.97 141.13 C 193.99 143.17 193.34 145.30 192.50 146.00 C 191.28 147.02 191.00 146.96 191.00 145.68 Z M 192.63 133.72 C 191.45 132.48 191.15 131.53 191.81 131.12 C 192.39 130.76 192.82 129.80 192.77 128.99 C 192.46 123.65 193.41 123.66 194.02 129.00 C 194.44 132.57 194.71 135.54 194.64 135.58 C 194.56 135.63 193.66 134.79 192.63 133.72 Z M 372.07 128.25 C 372.11 127.29 372.53 125.60 373.00 124.50 C 373.69 122.90 373.87 123.24 373.93 126.25 C 373.97 128.31 373.55 130.00 373.00 130.00 C 372.45 130.00 372.03 129.21 372.07 128.25 Z M 15.05 126.60 C 14.34 125.27 14.11 123.64 14.52 122.96 C 15.06 122.09 15.67 122.43 16.61 124.11 C 17.33 125.43 17.95 127.06 17.96 127.75 C 18.02 129.80 16.43 129.17 15.05 126.60 Z M 193.02 117.75 C 193.03 115.93 193.22 115.79 194.00 117.00 C 195.25 118.94 195.25 120.00 194.00 120.00 C 193.45 120.00 193.01 118.99 193.02 117.75 Z M 372.00 116.12 C 372.00 114.96 372.42 114.00 372.94 114.00 C 374.67 114.00 374.99 115.76 373.49 117.01 C 372.25 118.04 372.00 117.89 372.00 116.12 Z M 14.00 110.50 C 14.00 109.12 14.45 108.00 15.00 108.00 C 15.55 108.00 16.00 109.12 16.00 110.50 C 16.00 111.88 15.55 113.00 15.00 113.00 C 14.45 113.00 14.00 111.88 14.00 110.50 Z M 192.93 107.75 C 192.86 105.60 192.82 105.59 192.00 107.50 C 191.23 109.29 191.13 109.22 191.07 106.84 C 191.02 104.85 191.45 104.24 192.75 104.43 C 194.65 104.70 195.90 110.00 194.07 110.00 C 193.48 110.00 192.97 108.99 192.93 107.75 Z M 14.22 102.85 C 14.74 101.29 16.97 101.02 17.05 102.50 C 17.08 103.05 16.36 103.66 15.44 103.85 C 14.39 104.06 13.94 103.69 14.22 102.85 Z M 191.16 97.00 C 191.16 95.62 191.38 95.06 191.66 95.75 C 191.94 96.44 191.94 97.56 191.66 98.25 C 191.38 98.94 191.16 98.38 191.16 97.00 Z M 193.03 94.69 C 193.01 93.70 192.55 93.16 192.00 93.50 C 191.45 93.84 191.00 93.46 191.00 92.65 C 191.00 91.84 191.66 91.27 192.47 91.39 C 194.78 91.73 195.27 92.70 194.12 94.67 C 193.10 96.43 193.06 96.43 193.03 94.69 Z M 371.00 93.94 C 371.00 93.36 371.45 93.16 372.00 93.50 C 372.55 93.84 373.00 94.32 373.00 94.56 C 373.00 94.80 372.55 95.00 372.00 95.00 C 371.45 95.00 371.00 94.52 371.00 93.94 Z M 14.02 90.25 C 14.01 89.01 14.45 88.00 15.00 88.00 C 16.25 88.00 16.25 89.06 15.00 91.00 C 14.22 92.21 14.03 92.07 14.02 90.25 Z M 371.00 88.09 C 371.00 86.34 371.42 86.21 374.87 86.92 C 375.59 87.07 372.74 90.00 371.88 90.00 C 371.39 90.00 371.00 89.14 371.00 88.09 Z M 193.16 85.00 C 193.16 83.62 193.38 83.06 193.66 83.75 C 193.94 84.44 193.94 85.56 193.66 86.25 C 193.38 86.94 193.16 86.38 193.16 85.00 Z M 191.17 77.21 C 191.03 72.14 191.39 70.50 193.00 68.77 L 195.00 66.62 L 195.00 69.24 C 195.00 70.68 194.35 72.50 193.56 73.29 C 192.77 74.08 191.95 76.70 191.74 79.11 C 191.42 82.72 191.32 82.38 191.17 77.21 Z M 371.08 80.42 C 371.13 79.25 371.36 79.01 371.68 79.81 C 371.97 80.53 371.94 81.40 371.60 81.73 C 371.27 82.06 371.04 81.47 371.08 80.42 Z M 14.12 75.22 C 12.78 72.73 14.51 69.75 15.98 72.00 C 17.24 73.91 17.27 75.72 16.05 76.47 C 15.53 76.79 14.66 76.23 14.12 75.22 Z M 370.02 73.75 C 370.02 72.51 370.47 70.83 371.00 70.00 C 371.72 68.88 371.97 69.46 371.98 72.25 C 371.99 74.31 371.55 76.00 371.00 76.00 C 370.45 76.00 370.01 74.99 370.02 73.75 Z M 191.14 58.78 C 191.02 51.41 191.23 50.15 192.50 50.64 C 194.32 51.34 194.44 53.16 192.78 54.82 C 191.81 55.79 191.81 56.46 192.78 58.01 C 194.22 60.33 194.38 63.00 193.07 63.00 C 192.56 63.00 191.94 64.01 191.71 65.25 C 191.47 66.49 191.21 63.58 191.14 58.78 Z M 14.68 62.35 C 13.64 61.30 13.87 51.00 14.94 51.00 C 16.32 51.00 17.18 52.77 16.12 53.43 C 15.59 53.76 15.56 55.55 16.05 57.74 C 16.86 61.33 16.13 63.80 14.68 62.35 Z M 371.31 62.21 C 369.66 61.16 370.05 48.20 371.74 47.54 C 372.66 47.19 373.00 48.61 373.01 52.78 C 373.02 55.93 373.30 59.51 373.63 60.75 C 374.25 63.05 373.43 63.56 371.31 62.21 Z M 14.88 45.50 C 14.54 44.95 13.96 42.81 13.59 40.75 C 12.83 36.58 14.56 35.40 15.56 39.40 C 16.28 42.26 15.76 46.92 14.88 45.50 Z M 192.35 45.23 C 190.96 44.34 190.73 42.53 190.90 33.50 C 190.99 28.58 191.32 26.95 192.00 28.00 C 192.75 29.16 192.97 28.82 192.98 26.55 C 193.00 24.51 193.32 23.92 194.04 24.64 C 194.75 25.35 194.75 26.52 194.04 28.40 C 193.47 29.91 193.29 32.97 193.65 35.22 C 194.12 38.18 193.99 39.11 193.15 38.59 C 192.39 38.13 192.00 38.78 192.00 40.50 C 192.00 41.99 192.43 42.85 193.00 42.50 C 193.55 42.16 194.00 42.81 194.00 43.94 C 194.00 46.24 193.96 46.27 192.35 45.23 Z M 370.75 41.25 C 370.55 40.84 370.27 39.07 370.13 37.33 C 369.93 34.95 370.25 34.21 371.40 34.38 C 373.82 34.74 374.24 35.63 373.52 38.93 C 372.88 41.82 371.57 42.92 370.75 41.25 Z M 15.23 31.00 C 15.23 29.07 15.44 28.29 15.69 29.25 C 15.94 30.21 15.94 31.79 15.69 32.75 C 15.44 33.71 15.23 32.92 15.23 31.00 Z M 370.25 28.51 C 370.56 26.87 370.35 24.65 369.78 23.59 C 369.00 22.13 369.12 21.39 370.26 20.55 C 371.13 19.91 371.65 18.30 371.48 16.73 C 370.97 12.15 372.69 12.75 373.33 17.38 C 374.09 22.95 373.16 28.63 371.21 30.23 C 369.88 31.33 369.75 31.11 370.25 28.51 Z M 13.77 26.81 C 13.22 25.20 13.99 22.00 14.91 22.00 C 15.77 22.00 15.72 26.61 14.85 27.48 C 14.50 27.83 14.01 27.53 13.77 26.81 Z M 191.02 24.25 C 191.01 23.01 191.45 22.00 192.00 22.00 C 193.25 22.00 193.25 23.06 192.00 25.00 C 191.22 26.21 191.03 26.07 191.02 24.25 Z M 191.00 19.11 C 191.00 18.06 193.45 17.00 195.83 17.01 C 196.86 17.01 196.40 17.58 194.64 18.51 C 191.29 20.25 191.00 20.30 191.00 19.11 Z M 18.96 16.54 C 19.57 15.81 20.97 15.44 22.08 15.73 C 24.57 16.38 23.82 17.24 20.43 17.60 C 18.38 17.82 18.08 17.61 18.96 16.54 Z M 43.50 17.00 C 42.77 15.82 43.75 15.82 46.50 17.00 C 48.43 17.83 48.42 17.86 46.31 17.93 C 45.10 17.97 43.84 17.55 43.50 17.00 Z M 95.50 17.00 C 95.16 16.45 95.84 16.00 97.00 16.00 C 98.16 16.00 98.84 16.45 98.50 17.00 C 98.16 17.55 97.49 18.00 97.00 18.00 C 96.51 18.00 95.84 17.55 95.50 17.00 Z M 25.69 16.36 C 24.89 15.56 25.80 14.00 27.06 14.00 C 27.58 14.00 28.00 14.68 28.00 15.50 C 28.00 17.05 26.82 17.49 25.69 16.36 Z M 30.50 16.00 C 30.84 15.45 31.57 15.00 32.12 15.00 C 32.67 15.00 32.84 15.45 32.50 16.00 C 32.16 16.55 31.43 17.00 30.88 17.00 C 30.33 17.00 30.16 16.55 30.50 16.00 Z M 56.00 16.03 C 56.00 15.50 56.67 15.32 57.50 15.64 C 58.33 15.95 59.00 16.39 59.00 16.61 C 59.00 16.82 58.33 17.00 57.50 17.00 C 56.67 17.00 56.00 16.56 56.00 16.03 Z M 71.50 16.00 C 71.84 15.45 72.54 15.00 73.06 15.00 C 73.58 15.00 74.00 15.45 74.00 16.00 C 74.00 16.55 73.30 17.00 72.44 17.00 C 71.58 17.00 71.16 16.55 71.50 16.00 Z M 110.31 15.58 C 110.71 14.38 116.00 13.87 116.00 15.04 C 116.00 15.44 114.64 15.97 112.97 16.22 C 111.08 16.50 110.08 16.26 110.31 15.58 Z M 286.50 16.00 C 286.84 15.45 287.57 15.00 288.12 15.00 C 288.67 15.00 288.84 15.45 288.50 16.00 C 288.16 16.55 287.43 17.00 286.88 17.00 C 286.33 17.00 286.16 16.55 286.50 16.00 Z M 65.50 15.00 C 65.16 14.45 65.58 14.00 66.44 14.00 C 67.30 14.00 68.00 14.45 68.00 15.00 C 68.00 15.55 67.58 16.00 67.06 16.00 C 66.54 16.00 65.84 15.55 65.50 15.00 Z M 76.00 15.00 C 76.00 14.45 76.70 14.00 77.56 14.00 C 78.42 14.00 78.84 14.45 78.50 15.00 C 78.16 15.55 77.46 16.00 76.94 16.00 C 76.42 16.00 76.00 15.55 76.00 15.00 Z M 87.81 15.32 C 88.53 15.03 89.40 15.06 89.73 15.40 C 90.06 15.73 89.47 15.96 88.42 15.92 C 87.25 15.87 87.01 15.64 87.81 15.32 Z M 101.64 14.50 C 101.95 13.68 102.62 13.00 103.11 13.00 C 103.60 13.00 104.00 13.68 104.00 14.50 C 104.00 15.32 103.34 16.00 102.53 16.00 C 101.64 16.00 101.29 15.41 101.64 14.50 Z M 123.08 15.72 C 123.31 15.56 124.29 14.83 125.25 14.09 C 126.75 12.95 127.00 12.99 127.00 14.38 C 127.00 15.37 126.17 16.00 124.83 16.00 C 123.64 16.00 122.85 15.87 123.08 15.72 Z M 160.75 15.29 C 161.99 15.06 163.00 14.44 163.00 13.93 C 163.00 13.42 163.45 13.00 164.00 13.00 C 164.55 13.00 165.00 13.68 165.00 14.50 C 165.00 15.55 164.03 15.96 161.75 15.86 C 159.40 15.77 159.12 15.61 160.75 15.29 Z M 168.59 15.15 C 167.83 13.91 172.59 11.63 174.06 12.53 C 174.99 13.11 174.84 13.64 173.46 14.65 C 171.36 16.19 169.36 16.39 168.59 15.15 Z M 184.81 15.29 C 186.68 14.93 186.89 14.57 185.94 13.42 C 185.00 12.29 185.09 12.00 186.38 12.00 C 187.33 12.00 188.00 12.82 188.00 14.00 C 188.00 15.55 187.38 15.97 185.25 15.86 C 182.81 15.74 182.76 15.68 184.81 15.29 Z M 199.75 15.34 C 200.44 15.06 201.56 15.06 202.25 15.34 C 202.94 15.62 202.38 15.84 201.00 15.84 C 199.62 15.84 199.06 15.62 199.75 15.34 Z M 213.00 15.62 C 213.00 15.41 214.12 15.02 215.50 14.76 C 216.88 14.49 218.00 14.66 218.00 15.14 C 218.00 15.61 216.88 16.00 215.50 16.00 C 214.12 16.00 213.00 15.83 213.00 15.62 Z M 226.86 14.33 C 226.13 13.45 226.11 13.00 226.80 13.00 C 228.49 13.00 231.00 14.16 231.00 14.94 C 231.00 16.18 228.03 15.74 226.86 14.33 Z M 250.75 15.34 C 251.44 15.06 252.56 15.06 253.25 15.34 C 253.94 15.62 253.38 15.84 252.00 15.84 C 250.62 15.84 250.06 15.62 250.75 15.34 Z M 261.81 15.32 C 262.53 15.03 263.40 15.06 263.73 15.40 C 264.06 15.73 263.47 15.96 262.42 15.92 C 261.25 15.87 261.01 15.64 261.81 15.32 Z M 316.03 13.94 C 316.92 12.28 317.43 12.11 318.57 13.06 C 320.73 14.85 320.29 16.00 317.46 16.00 C 315.21 16.00 315.05 15.77 316.03 13.94 Z M 51.81 14.32 C 52.53 14.03 53.40 14.06 53.73 14.40 C 54.06 14.73 53.47 14.96 52.42 14.92 C 51.25 14.87 51.01 14.64 51.81 14.32 Z M 44.50 13.00 C 44.84 12.45 45.88 12.01 46.81 12.02 C 48.27 12.03 48.29 12.16 47.00 13.00 C 45.04 14.27 43.72 14.27 44.50 13.00 Z M 58.00 13.00 C 58.00 12.45 58.70 12.00 59.56 12.00 C 60.42 12.00 60.84 12.45 60.50 13.00 C 60.16 13.55 59.46 14.00 58.94 14.00 C 58.42 14.00 58.00 13.55 58.00 13.00 Z M 81.00 13.03 C 81.00 12.50 81.67 12.32 82.50 12.64 C 83.33 12.95 84.00 13.39 84.00 13.61 C 84.00 13.82 83.33 14.00 82.50 14.00 C 81.67 14.00 81.00 13.56 81.00 13.03 Z M 136.50 13.00 C 136.84 12.45 137.32 12.00 137.56 12.00 C 137.80 12.00 138.00 12.45 138.00 13.00 C 138.00 13.55 137.52 14.00 136.94 14.00 C 136.36 14.00 136.16 13.55 136.50 13.00 Z M 143.81 13.32 C 144.53 13.03 145.40 13.06 145.73 13.40 C 146.06 13.73 145.47 13.96 144.42 13.92 C 143.25 13.87 143.01 13.64 143.81 13.32 Z M 151.25 13.31 C 152.21 13.06 153.79 13.06 154.75 13.31 C 155.71 13.56 154.93 13.77 153.00 13.77 C 151.07 13.77 150.29 13.56 151.25 13.31 Z M 194.27 13.31 C 195.24 13.05 196.59 13.07 197.27 13.34 C 197.95 13.62 197.15 13.83 195.50 13.81 C 193.85 13.78 193.30 13.56 194.27 13.31 Z M 221.00 13.00 C 221.82 12.47 223.40 12.03 224.50 12.03 C 226.16 12.03 226.24 12.20 225.00 13.00 C 224.18 13.53 222.60 13.97 221.50 13.97 C 219.84 13.97 219.76 13.80 221.00 13.00 Z M 231.63 12.97 C 232.31 12.29 233.48 12.27 235.08 12.91 C 237.35 13.81 237.29 13.88 234.05 13.94 C 231.68 13.98 230.92 13.68 231.63 12.97 Z M 274.00 13.00 C 274.00 12.45 274.70 12.00 275.56 12.00 C 276.42 12.00 276.84 12.45 276.50 13.00 C 276.16 13.55 275.46 14.00 274.94 14.00 C 274.42 14.00 274.00 13.55 274.00 13.00 Z M 322.50 13.00 C 322.84 12.45 324.55 12.03 326.31 12.07 C 329.00 12.13 329.19 12.28 327.50 13.00 C 324.71 14.20 321.76 14.20 322.50 13.00 Z M 336.50 13.00 C 336.84 12.45 338.33 12.01 339.81 12.02 C 341.91 12.03 342.17 12.24 341.00 13.00 C 339.02 14.28 335.71 14.28 336.50 13.00 Z M 348.00 13.00 C 348.00 12.45 348.48 12.00 349.06 12.00 C 349.64 12.00 349.84 12.45 349.50 13.00 C 349.16 13.55 348.68 14.00 348.44 14.00 C 348.20 14.00 348.00 13.55 348.00 13.00 Z" fill="none" stroke="rgba(255,255,255,0.92)" stroke-width="1.5" stroke-linejoin="round" fill-rule="evenodd"/>
</svg>
