<svg xmlns="http://www.w3.org/2000/svg" viewBox="0 0 100 100" width="100" height="100">
  <path d="M 0.00 50.00 L 0.00 0.00 L 50.00 0.00 L 100.00 0.00 L 100.00 50.00 L 100.00 100.00 L 50.00 100.00 L 0.00 100.00 L 0.00 50.00 Z M 96.00 92.96 L 96.00 89.93 L 53.75 90.04 L 11.50 90.15 L 11.24 47.08 L 10.98 4.00 L 7.99 4.00 L 5.00 4.00 L 5.00 50.00 L 5.00 96.00 L 50.50 96.00 L 96.00 96.00 L 96.00 92.96 Z M 96.00 69.16 C 96.00 66.53 95.59 66.23 90.51 65.09 C 84.90 63.83 75.45 58.31 75.82 56.50 C 75.95 55.89 79.96 55.60 86.01 55.75 L 96.00 56.00 L 96.00 46.99 L 96.00 37.98 L 57.75 38.24 L 19.50 38.50 L 19.21 47.36 L 18.92 56.22 L 43.41 55.57 L 67.90 54.91 L 69.42 57.85 C 72.46 63.72 81.85 69.45 91.00 71.00 C 93.47 71.42 95.61 71.82 95.75 71.88 C 95.89 71.95 96.00 70.72 96.00 69.16 Z M 58.54 31.95 C 60.37 29.93 60.28 29.80 51.74 21.26 C 43.26 12.77 43.05 12.64 41.08 14.42 C 39.10 16.22 39.17 16.34 47.29 25.11 C 51.80 29.98 55.77 33.98 56.10 33.99 C 56.42 33.99 57.52 33.08 58.54 31.95 Z M 85.00 27.49 C 85.00 27.34 84.10 22.85 83.00 17.50 C 81.90 12.15 81.00 7.60 81.00 7.39 C 81.00 6.70 77.54 7.00 76.28 7.80 C 75.35 8.40 75.53 10.64 77.10 17.54 C 78.22 22.47 79.30 27.01 79.49 27.63 C 79.78 28.55 85.00 28.42 85.00 27.49 Z" fill="none" stroke="rgba(255,255,255,0.92)" stroke-width="1.2" stroke-linejoin="round" fill-rule="evenodd"/>
</svg>
