<svg xmlns="http://www.w3.org/2000/svg" viewBox="0 0 384 400" width="384" height="400">
  <path d="M 0.00 200.00 L 0.00 0.00 L 192.00 0.00 L 384.00 0.00 L 384.00 141.88 C 384.00 266.77 383.82 283.90 382.50 285.00 C 381.68 285.68 381.00 286.64 381.00 287.12 C 381.00 287.61 381.68 288.00 382.50 288.00 C 383.82 288.00 384.00 294.89 384.00 344.00 L 384.00 400.00 L 192.00 400.00 L 0.00 400.00 L 0.00 200.00 Z M 112.00 391.50 C 124.93 391.24 149.22 390.77 166.00 390.44 C 182.78 390.12 197.29 389.63 198.25 389.36 C 199.30 389.06 200.00 387.89 200.00 386.43 C 200.00 385.09 200.45 384.00 201.00 384.00 C 201.55 384.00 202.00 384.68 202.00 385.50 C 202.00 386.32 202.50 387.00 203.11 387.00 C 203.78 387.00 204.05 385.80 203.79 384.00 C 203.31 380.73 204.88 379.82 205.69 382.91 C 206.38 385.58 210.17 386.41 211.78 384.25 C 212.98 382.65 213.10 382.66 213.58 384.52 C 214.08 386.41 218.11 389.00 220.56 389.00 C 221.20 389.00 222.93 387.79 224.41 386.32 C 227.08 383.65 227.10 383.65 227.66 385.82 C 228.24 388.01 232.23 389.05 231.75 386.88 C 231.61 386.26 232.06 385.54 232.75 385.29 C 233.44 385.04 234.00 385.55 234.00 386.42 C 234.00 387.36 234.85 388.00 236.12 388.00 C 237.95 388.00 238.17 387.58 237.65 385.00 C 237.04 381.93 238.58 380.73 239.62 383.46 C 239.93 384.27 241.10 385.22 242.22 385.57 C 243.84 386.08 243.98 386.40 242.88 387.09 C 241.86 387.74 242.10 387.97 243.81 387.98 C 245.10 387.99 245.84 387.56 245.50 387.00 C 244.42 385.26 246.02 383.77 247.58 385.06 C 248.35 385.70 248.68 386.70 248.32 387.28 C 247.90 387.97 248.34 388.08 249.59 387.58 C 252.88 386.28 255.00 386.08 255.00 387.06 C 255.00 388.31 260.19 388.26 263.56 386.98 C 265.69 386.17 266.49 386.28 267.40 387.53 C 268.13 388.53 269.22 388.85 270.36 388.42 C 271.77 387.87 271.88 387.54 270.84 386.90 C 269.79 386.25 269.77 385.83 270.76 384.84 C 272.69 382.91 272.24 382.01 269.25 381.88 L 266.50 381.76 L 269.50 381.10 C 271.92 380.57 272.67 380.83 273.41 382.47 C 273.90 383.59 274.23 385.01 274.14 385.63 C 273.91 387.12 280.05 387.87 293.16 387.95 C 302.85 388.01 303.78 387.86 303.37 386.26 C 302.99 384.79 303.67 384.47 307.55 384.29 C 311.50 384.11 312.00 384.29 310.97 385.54 C 310.30 386.34 309.14 387.00 308.38 387.00 C 307.62 387.00 307.00 387.41 307.00 387.90 C 307.00 389.29 315.39 387.89 316.30 386.35 C 317.21 384.81 324.00 384.49 324.00 385.99 C 324.00 386.53 323.04 386.87 321.86 386.74 C 320.68 386.61 319.50 387.12 319.23 387.89 C 318.84 388.99 319.54 389.12 322.62 388.55 C 326.90 387.75 328.16 386.96 326.25 386.28 C 325.56 386.03 325.00 385.20 325.00 384.42 C 325.00 383.58 324.00 383.00 322.56 383.00 C 321.22 383.00 319.84 382.55 319.50 382.00 C 318.68 380.67 324.57 380.70 327.07 382.04 C 328.17 382.63 329.00 384.12 329.00 385.52 C 329.00 388.53 331.84 389.44 337.50 388.23 C 339.92 387.71 342.81 387.77 344.83 388.38 C 347.15 389.08 349.06 389.04 351.15 388.25 C 353.31 387.43 354.82 387.42 356.50 388.18 C 357.79 388.77 360.45 388.95 362.41 388.58 C 365.62 387.98 365.85 387.73 364.76 385.98 C 363.81 384.47 363.82 383.78 364.78 382.82 C 365.74 381.86 366.00 381.95 366.00 383.25 C 366.00 384.16 367.09 386.00 368.42 387.33 C 371.45 390.35 375.95 389.94 376.09 386.63 C 376.15 385.46 376.09 367.85 375.97 347.50 C 375.86 327.15 375.81 308.70 375.88 306.50 C 375.94 304.30 375.73 300.08 375.41 297.12 C 374.90 292.42 374.64 291.93 373.37 293.20 C 372.29 294.28 372.16 295.30 372.87 297.16 C 373.87 299.79 373.83 307.50 372.81 308.52 C 372.48 308.85 372.70 310.40 373.30 311.97 C 374.05 313.96 374.07 316.18 373.36 319.27 C 372.80 321.71 372.71 324.67 373.15 325.86 C 374.09 328.42 373.67 360.11 372.67 361.73 C 372.29 362.35 372.52 364.04 373.18 365.50 C 374.13 367.58 374.12 368.31 373.14 368.91 C 372.46 369.33 371.73 371.75 371.53 374.28 C 371.23 377.94 371.44 378.77 372.58 378.33 C 373.36 378.03 374.00 378.30 374.00 378.92 C 374.00 379.54 372.83 380.49 371.40 381.04 C 369.69 381.69 368.99 382.54 369.37 383.51 C 369.68 384.33 369.55 385.00 369.08 385.00 C 367.32 385.00 367.16 382.01 368.69 378.11 C 369.92 374.98 370.04 373.22 369.26 370.13 C 368.49 367.10 368.57 365.86 369.58 364.84 C 370.55 363.86 370.68 362.48 370.05 359.71 C 368.87 354.49 369.51 333.09 370.89 331.71 C 372.27 330.33 372.35 327.00 371.00 327.00 C 370.45 327.00 370.00 328.21 370.00 329.70 C 370.00 331.82 369.74 332.14 368.79 331.19 C 367.87 330.27 367.84 329.25 368.67 327.07 C 369.32 325.35 369.46 322.52 369.02 320.11 C 368.16 315.42 368.72 314.30 370.68 316.77 C 371.94 318.35 372.03 318.28 371.76 316.00 C 371.59 314.62 370.90 313.61 370.23 313.75 C 369.38 313.92 369.00 312.33 369.00 308.58 C 369.00 305.60 368.75 302.51 368.44 301.71 C 368.14 300.91 368.56 299.59 369.38 298.76 C 370.28 297.87 370.51 296.91 369.96 296.36 C 368.94 295.34 368.76 291.67 368.90 274.50 C 368.95 267.90 368.98 261.60 368.96 260.50 C 368.89 256.87 370.27 251.59 371.65 250.21 C 373.23 248.63 373.38 247.35 372.06 246.54 C 371.55 246.22 370.74 246.65 370.26 247.50 C 369.73 248.45 369.40 245.81 369.40 240.53 C 369.40 235.86 369.74 232.57 370.15 233.24 C 370.56 233.90 371.25 234.06 371.70 233.58 C 372.14 233.11 371.94 232.53 371.25 232.28 C 369.73 231.74 369.63 228.10 371.03 224.43 C 372.17 221.42 371.42 219.73 369.96 222.03 C 369.25 223.15 369.03 222.86 369.02 220.81 C 369.01 219.33 369.45 217.84 370.00 217.50 C 370.64 217.10 370.67 216.24 370.07 215.14 C 369.24 213.58 370.32 209.81 371.25 211.03 C 372.40 212.54 373.64 224.59 373.30 231.00 C 373.08 235.12 372.95 239.40 373.01 240.50 C 373.30 245.71 373.76 257.05 373.89 262.00 C 373.97 265.30 374.36 266.98 374.85 266.21 C 375.30 265.49 375.71 248.51 375.76 228.46 L 375.84 192.00 L 371.67 191.86 C 358.56 191.43 339.46 191.08 325.00 191.00 C 315.93 190.95 307.82 190.89 307.00 190.86 C 302.91 190.74 232.09 190.95 229.50 191.09 C 227.85 191.18 224.93 191.23 223.00 191.19 C 221.07 191.16 218.04 191.11 216.25 191.09 C 214.46 191.08 212.21 191.04 211.25 191.01 C 210.29 190.98 206.75 191.24 203.39 191.59 L 197.29 192.22 L 196.48 186.86 C 196.04 183.91 195.79 179.25 195.91 176.50 C 196.04 173.75 195.68 170.28 195.11 168.79 C 194.45 167.06 194.43 165.85 195.04 165.48 C 197.12 164.19 195.27 152.56 192.71 150.86 C 192.18 150.51 191.75 149.06 191.75 147.63 C 191.75 146.20 191.36 145.28 190.88 145.58 C 190.39 145.87 190.00 145.24 190.00 144.17 C 190.00 143.09 190.67 141.95 191.50 141.64 C 192.63 141.20 193.02 141.85 193.07 144.28 C 193.17 148.72 194.41 151.76 195.44 150.09 C 196.34 148.65 194.18 137.23 192.86 136.41 C 192.39 136.12 192.01 134.90 192.03 133.69 C 192.06 131.72 192.16 131.68 193.08 133.25 C 193.64 134.21 194.42 135.00 194.81 135.00 C 195.20 135.00 195.62 115.54 195.74 91.75 C 195.87 67.96 196.13 39.84 196.34 29.25 C 196.63 14.09 196.43 9.77 195.38 8.90 C 194.52 8.18 191.65 8.01 187.27 8.42 C 183.55 8.77 171.05 9.28 159.50 9.57 C 132.76 10.23 121.24 10.74 120.27 11.30 C 119.85 11.55 118.60 11.42 117.50 11.01 C 116.40 10.60 114.53 10.63 113.34 11.07 C 111.15 11.89 84.01 13.06 60.58 13.34 C 52.16 13.45 47.54 13.89 47.30 14.61 C 46.76 16.23 55.07 16.95 66.03 16.23 C 71.24 15.88 83.71 15.58 93.75 15.55 C 103.79 15.52 112.00 15.10 112.00 14.62 C 112.00 14.14 113.97 13.96 116.37 14.23 C 118.77 14.50 121.44 14.33 122.30 13.85 C 123.25 13.32 124.11 13.38 124.49 13.99 C 124.92 14.67 125.75 14.67 127.06 13.97 C 128.35 13.28 129.62 13.26 130.85 13.92 C 132.11 14.60 133.05 14.55 133.83 13.77 C 134.53 13.07 140.16 12.53 148.73 12.35 C 156.30 12.20 167.28 11.82 173.11 11.52 C 181.83 11.06 183.95 11.23 184.98 12.47 C 185.66 13.30 186.59 13.75 187.04 13.47 C 187.49 13.19 188.14 13.42 188.49 13.98 C 189.62 15.80 191.15 15.05 190.50 13.00 C 190.01 11.47 190.32 11.00 191.80 11.00 C 193.38 11.00 193.87 11.95 194.41 16.03 C 194.78 18.80 194.81 21.50 194.48 22.04 C 194.15 22.57 193.68 33.24 193.44 45.75 C 192.92 72.76 192.93 72.59 191.94 67.50 C 191.23 63.84 191.20 63.93 191.60 68.50 C 193.57 91.01 193.77 112.97 191.95 108.50 C 191.43 107.21 191.12 109.25 191.07 114.25 C 191.03 118.51 190.60 122.00 190.11 122.00 C 189.61 122.00 189.33 118.29 189.48 113.75 C 189.83 102.88 189.84 102.78 191.00 103.50 C 191.63 103.89 191.94 102.13 191.83 98.81 C 191.69 94.46 191.59 94.18 191.27 97.27 C 191.05 99.34 190.52 100.82 190.08 100.55 C 189.23 100.02 189.57 35.60 190.49 25.37 C 191.07 18.75 190.50 16.00 188.54 16.00 C 186.37 16.00 186.03 28.64 186.00 110.87 C 185.98 154.53 185.76 190.58 185.51 190.98 C 185.26 191.39 174.81 192.02 162.28 192.40 C 149.75 192.77 129.82 193.49 118.00 194.00 C 93.06 195.07 74.44 195.71 42.85 196.60 C 20.70 197.22 20.17 197.19 19.10 195.18 C 18.49 194.06 18.00 192.20 18.00 191.07 C 18.00 189.93 17.61 189.00 17.12 189.00 C 16.64 189.00 16.41 186.86 16.60 184.25 C 16.84 181.07 16.71 180.30 16.20 181.93 C 14.86 186.24 13.08 185.58 14.08 181.14 C 14.58 178.91 14.60 175.19 14.13 172.66 C 13.67 170.18 13.67 167.56 14.13 166.83 C 14.59 166.10 14.96 164.60 14.95 163.50 C 14.93 161.73 14.77 161.78 13.50 164.00 L 12.07 166.50 L 12.04 163.31 C 12.02 161.55 12.49 159.82 13.08 159.45 C 13.73 159.05 13.87 157.73 13.44 156.14 C 13.04 154.69 12.63 149.31 12.53 144.19 C 12.37 135.95 12.49 135.20 13.61 137.69 C 14.75 140.22 14.82 139.91 14.31 134.50 C 14.00 131.20 13.35 128.07 12.87 127.55 C 11.49 126.05 11.77 118.74 13.17 119.61 C 14.01 120.13 14.09 119.79 13.43 118.41 C 12.34 116.11 12.15 44.98 13.24 45.65 C 13.66 45.91 13.96 44.40 13.90 42.31 C 13.81 38.96 13.71 38.80 13.02 41.00 C 12.57 42.47 12.30 38.64 12.37 31.77 L 12.50 20.04 L 15.28 18.88 C 16.81 18.25 18.33 18.00 18.66 18.33 C 18.99 18.65 20.52 18.27 22.06 17.47 C 23.61 16.67 25.53 16.27 26.34 16.58 C 28.46 17.39 29.25 15.45 27.41 13.92 C 26.16 12.89 25.44 12.87 23.88 13.84 C 22.80 14.52 21.47 14.79 20.92 14.45 C 20.36 14.11 19.29 14.35 18.52 14.98 C 17.46 15.87 16.55 15.75 14.62 14.48 C 13.23 13.58 11.30 12.99 10.32 13.18 C 8.70 13.49 8.54 15.31 8.41 35.51 C 8.33 47.60 8.70 58.98 9.23 60.79 C 9.79 62.75 9.82 64.57 9.28 65.29 C 8.23 66.70 8.38 126.48 9.45 129.83 C 9.84 131.08 9.70 132.65 9.14 133.33 C 8.46 134.14 8.43 135.99 9.05 138.73 C 9.61 141.23 9.63 143.85 9.09 145.26 C 8.53 146.73 8.60 149.43 9.28 152.40 C 10.01 155.59 10.05 157.72 9.38 158.83 C 8.29 160.67 8.35 171.80 9.50 179.26 C 9.99 182.48 9.84 184.49 9.03 185.47 C 8.37 186.26 8.14 187.41 8.51 188.02 C 8.89 188.63 9.38 217.11 9.61 251.32 C 10.30 355.65 10.77 389.42 11.55 391.37 C 12.35 393.35 19.43 393.36 112.00 391.50 Z M 257.00 386.19 C 257.00 385.65 257.71 384.94 258.58 384.61 C 259.56 384.23 260.01 384.46 259.77 385.19 C 259.27 386.68 257.00 387.50 257.00 386.19 Z M 281.50 386.00 C 281.16 385.45 281.58 385.00 282.44 385.00 C 283.30 385.00 284.00 385.45 284.00 386.00 C 284.00 386.55 283.58 387.00 283.06 387.00 C 282.54 387.00 281.84 386.55 281.50 386.00 Z M 292.00 385.88 C 292.00 385.27 292.87 384.99 293.94 385.27 C 295.01 385.56 296.09 385.20 296.37 384.47 C 296.97 382.93 294.63 381.82 292.50 382.64 C 291.68 382.95 291.00 382.72 291.00 382.11 C 291.00 380.72 296.66 380.64 297.51 382.02 C 297.86 382.58 298.56 382.77 299.07 382.46 C 299.58 382.14 300.00 383.03 300.00 384.44 C 300.00 386.76 299.62 387.00 296.00 387.00 C 293.72 387.00 292.00 386.52 292.00 385.88 Z M 330.37 384.75 C 330.70 383.51 330.98 382.16 330.99 381.75 C 331.01 380.37 336.06 380.98 336.61 382.44 C 336.92 383.24 337.84 383.61 338.70 383.28 C 339.90 382.83 339.83 383.18 338.40 384.85 C 337.18 386.27 335.40 387.00 333.16 387.00 C 330.13 387.00 329.83 386.76 330.37 384.75 Z M 342.79 385.87 C 340.42 384.99 340.22 384.61 341.28 382.93 C 342.16 381.52 343.62 381.00 346.68 381.00 C 348.99 381.00 351.15 381.43 351.48 381.96 C 351.86 382.58 352.98 382.58 354.60 381.96 C 357.90 380.71 362.00 380.73 362.00 382.00 C 362.00 382.55 361.46 383.00 360.80 383.00 C 359.87 383.00 359.87 383.27 360.80 384.20 C 362.55 385.95 362.27 387.00 360.05 387.00 C 358.98 387.00 357.67 386.23 357.15 385.30 C 356.43 384.02 355.86 383.87 354.85 384.68 C 352.81 386.33 345.85 387.02 342.79 385.87 Z M 370.51 386.02 C 370.16 385.46 370.33 385.00 370.87 385.00 C 371.41 385.00 372.06 384.21 372.31 383.25 C 372.66 381.90 372.79 382.00 372.88 383.69 C 373.01 386.12 371.49 387.61 370.51 386.02 Z M 219.00 384.50 C 219.00 383.68 218.32 383.00 217.50 383.00 C 216.68 383.00 216.00 382.55 216.00 382.00 C 216.00 380.84 218.02 380.70 219.57 381.77 C 221.46 383.06 222.08 386.00 220.47 386.00 C 219.66 386.00 219.00 385.32 219.00 384.50 Z M 286.50 385.00 C 286.16 384.45 286.61 384.00 287.50 384.00 C 288.39 384.00 288.84 384.45 288.50 385.00 C 288.16 385.55 287.71 386.00 287.50 386.00 C 287.29 386.00 286.84 385.55 286.50 385.00 Z M 263.00 383.50 C 263.00 382.68 263.45 382.00 264.00 382.00 C 264.55 382.00 265.00 382.68 265.00 383.50 C 265.00 384.32 264.55 385.00 264.00 385.00 C 263.45 385.00 263.00 384.32 263.00 383.50 Z M 314.50 384.00 C 314.16 383.45 314.36 383.00 314.94 383.00 C 315.52 383.00 316.00 383.45 316.00 384.00 C 316.00 384.55 315.80 385.00 315.56 385.00 C 315.32 385.00 314.84 384.55 314.50 384.00 Z M 347.15 383.50 C 347.15 382.98 346.67 382.39 346.07 382.19 C 345.48 381.99 345.00 382.58 345.00 383.50 C 345.00 384.42 345.48 385.01 346.07 384.81 C 346.67 384.61 347.15 384.02 347.15 383.50 Z M 275.00 383.00 C 275.00 382.45 275.45 382.00 276.00 382.00 C 276.55 382.00 277.00 382.45 277.00 383.00 C 277.00 383.55 276.55 384.00 276.00 384.00 C 275.45 384.00 275.00 383.55 275.00 383.00 Z M 229.50 382.00 C 229.16 381.45 229.61 381.00 230.50 381.00 C 231.39 381.00 231.84 381.45 231.50 382.00 C 231.16 382.55 230.71 383.00 230.50 383.00 C 230.29 383.00 229.84 382.55 229.50 382.00 Z M 241.50 382.00 C 241.84 381.45 242.32 381.00 242.56 381.00 C 242.80 381.00 243.00 381.45 243.00 382.00 C 243.00 382.55 242.52 383.00 241.94 383.00 C 241.36 383.00 241.16 382.55 241.50 382.00 Z M 251.48 382.04 C 251.83 381.47 253.29 381.00 254.73 381.00 C 257.86 381.00 257.50 381.48 253.67 382.40 C 251.81 382.85 251.05 382.72 251.48 382.04 Z M 307.00 382.00 C 307.00 381.45 307.70 381.00 308.56 381.00 C 309.42 381.00 309.84 381.45 309.50 382.00 C 309.16 382.55 308.46 383.00 307.94 383.00 C 307.42 383.00 307.00 382.55 307.00 382.00 Z M 24.13 380.85 C 22.25 380.16 21.99 379.25 21.93 373.28 C 21.90 369.55 21.72 361.10 21.54 354.50 C 21.08 337.29 20.73 208.92 21.15 208.57 C 21.34 208.40 40.62 207.73 64.00 207.08 C 87.38 206.42 114.15 205.49 123.50 205.00 C 132.85 204.51 150.73 203.80 163.23 203.41 C 182.24 202.82 186.02 202.94 186.39 204.10 C 186.64 204.87 187.07 244.27 187.36 291.66 L 187.89 377.83 L 182.99 378.50 C 180.30 378.87 177.73 378.97 177.30 378.71 C 176.86 378.46 164.57 378.60 150.00 379.04 C 135.43 379.47 105.05 380.13 82.50 380.51 C 59.95 380.88 38.07 381.29 33.88 381.41 C 29.68 381.54 25.30 381.28 24.13 380.85 Z M 198.63 354.81 C 197.67 316.34 197.40 195.27 198.27 194.40 C 198.69 193.98 199.47 194.07 200.00 194.60 C 200.63 195.23 203.49 195.22 208.06 194.59 C 213.22 193.88 215.33 193.92 215.85 194.75 C 216.31 195.50 217.06 195.57 218.03 194.96 C 218.84 194.45 220.40 194.06 221.50 194.09 C 222.60 194.13 222.94 194.38 222.25 194.66 C 221.56 194.94 221.00 195.56 221.00 196.04 C 221.00 196.52 222.70 196.31 224.78 195.58 C 226.87 194.84 233.40 194.17 239.45 194.07 C 245.45 193.98 250.75 193.66 251.22 193.36 C 251.70 193.07 252.72 193.35 253.50 194.00 C 254.31 194.68 255.85 194.86 257.16 194.45 C 259.99 193.55 303.88 193.59 307.99 194.50 C 309.66 194.86 310.76 195.58 310.45 196.08 C 310.14 196.59 310.58 197.00 311.44 197.00 C 312.30 197.00 312.89 196.44 312.75 195.75 C 312.59 194.97 313.90 194.38 316.25 194.19 C 319.11 193.95 320.00 194.25 320.00 195.44 C 320.00 197.43 321.61 197.47 322.36 195.50 C 322.97 193.93 326.00 193.38 326.00 194.85 C 326.00 195.32 328.14 195.39 330.75 195.00 C 333.36 194.61 340.90 194.45 347.50 194.62 C 354.10 194.80 360.06 194.93 360.75 194.92 C 363.13 194.86 368.51 194.92 370.34 195.01 C 371.49 195.07 371.97 195.64 371.63 196.53 C 371.33 197.31 371.73 200.10 372.53 202.73 C 373.33 205.35 373.98 208.29 373.99 209.25 C 374.01 212.00 372.11 211.29 371.33 208.25 L 370.62 205.50 L 369.99 208.00 C 369.49 209.99 369.22 209.42 368.64 205.22 C 368.25 202.31 368.22 199.45 368.59 198.86 C 369.17 197.91 367.46 196.06 365.97 196.02 C 365.68 196.01 365.51 197.91 365.59 200.25 C 365.67 202.59 365.86 243.62 366.02 291.43 L 366.29 378.36 L 351.90 378.19 C 331.55 377.96 314.18 377.92 307.00 378.10 C 305.07 378.15 302.15 378.15 300.50 378.10 C 298.85 378.06 295.93 378.08 294.00 378.15 C 292.07 378.21 289.38 378.24 288.00 378.21 C 286.62 378.17 281.00 378.14 275.50 378.13 C 270.00 378.12 258.52 378.10 250.00 378.07 C 241.47 378.05 233.82 378.04 233.00 378.05 C 214.24 378.33 202.17 378.84 200.88 379.40 C 199.43 380.04 199.20 377.60 198.63 354.81 Z M 371.68 366.81 C 371.36 366.01 371.13 366.25 371.08 367.42 C 371.04 368.47 371.27 369.06 371.60 368.73 C 371.94 368.40 371.97 367.53 371.68 366.81 Z M 300.12 357.39 C 305.28 353.48 312.43 348.05 316.00 345.31 C 319.57 342.58 328.66 335.77 336.20 330.16 C 343.73 324.56 350.19 319.50 350.55 318.92 C 350.91 318.34 347.11 311.93 342.12 304.68 C 329.82 286.81 311.06 259.23 308.55 255.29 C 306.11 251.48 305.85 251.42 302.83 254.00 C 301.55 255.10 295.77 259.50 290.00 263.77 C 268.65 279.57 243.26 299.05 241.54 300.96 C 239.83 302.85 239.87 303.05 242.70 306.71 C 244.31 308.79 252.31 320.18 260.49 332.00 C 276.03 354.49 283.18 364.63 285.04 366.78 C 285.92 367.81 286.59 367.72 288.44 366.28 C 289.71 365.30 294.96 361.30 300.12 357.39 Z M 286.27 349.19 C 285.33 347.71 282.08 343.12 279.04 339.00 C 276.00 334.88 271.24 328.12 268.48 324.00 C 265.72 319.88 261.47 313.82 259.05 310.55 L 254.64 304.60 L 257.57 302.32 C 260.36 300.14 281.97 283.74 296.17 273.03 C 299.84 270.26 303.07 268.00 303.35 268.00 C 303.63 268.00 306.93 272.54 310.68 278.08 C 320.00 291.86 324.56 298.52 330.89 307.60 C 335.38 314.04 336.03 315.51 334.82 316.41 C 334.03 317.01 331.34 319.19 328.84 321.25 C 326.34 323.31 323.83 325.00 323.27 325.00 C 322.71 325.00 321.63 325.75 320.87 326.66 C 320.12 327.58 312.40 333.62 303.73 340.10 L 287.97 351.88 L 286.27 349.19 Z M 118.33 347.89 C 128.96 344.31 134.25 339.19 140.95 326.00 C 141.57 324.79 144.54 324.45 156.36 324.22 L 171.00 323.95 L 171.00 309.60 C 171.00 293.69 170.58 292.53 165.16 293.62 C 162.72 294.11 161.88 293.85 161.35 292.48 C 160.76 290.94 160.54 290.91 159.58 292.22 C 158.36 293.89 143.86 294.47 75.69 295.57 C 55.79 295.89 38.93 296.33 38.23 296.55 C 37.28 296.85 36.98 300.37 37.06 310.61 C 37.12 318.13 37.40 324.88 37.69 325.63 C 38.11 326.72 40.92 326.87 52.01 326.41 L 65.81 325.83 L 69.92 331.88 C 75.71 340.41 80.39 344.61 86.88 347.14 C 97.87 351.41 107.22 351.63 118.33 347.89 Z M 95.61 338.28 C 93.00 337.61 83.89 331.68 81.65 329.18 C 80.64 328.05 80.08 326.67 80.42 326.12 C 81.25 324.79 127.63 324.60 128.45 325.92 C 129.10 326.96 123.68 333.00 122.11 333.00 C 121.58 333.00 120.50 333.64 119.72 334.43 C 115.93 338.21 103.25 340.24 95.61 338.28 Z M 370.68 299.81 C 370.36 299.01 370.13 299.25 370.08 300.42 C 370.04 301.47 370.27 302.06 370.60 301.73 C 370.94 301.40 370.97 300.53 370.68 299.81 Z M 375.74 285.37 C 375.45 282.82 375.59 279.43 376.05 277.84 C 376.60 275.92 376.40 273.69 375.48 271.22 L 374.08 267.50 L 374.21 273.25 C 374.36 279.97 373.48 281.62 372.25 276.89 C 371.78 275.06 371.14 274.00 370.83 274.53 C 370.08 275.83 374.23 290.00 375.37 290.00 C 375.86 290.00 376.03 287.92 375.74 285.37 Z M 68.88 284.30 C 71.77 279.85 71.52 279.35 62.90 272.16 C 59.38 269.22 53.62 264.40 50.09 261.45 C 46.57 258.49 43.29 256.32 42.80 256.63 C 42.30 256.93 42.47 257.86 43.16 258.70 C 44.20 259.94 44.12 260.44 42.72 261.47 C 41.78 262.15 40.76 264.02 40.46 265.61 C 39.95 268.25 40.56 269.02 47.54 274.50 C 51.74 277.80 57.28 282.18 59.84 284.24 C 62.40 286.29 64.95 287.97 65.50 287.97 C 66.05 287.97 67.57 286.32 68.88 284.30 Z M 150.26 280.50 C 153.27 277.75 159.17 272.65 163.37 269.16 C 168.04 265.28 171.00 262.08 171.00 260.90 C 171.00 258.70 166.95 252.03 165.61 252.01 C 165.12 252.01 164.22 252.61 163.61 253.35 C 163.00 254.09 157.00 259.51 150.28 265.40 C 143.55 271.29 137.79 276.54 137.46 277.07 C 136.78 278.17 142.83 286.24 144.01 285.79 C 144.43 285.63 147.24 283.25 150.26 280.50 Z M 109.07 259.48 C 108.88 240.07 108.53 238.41 104.88 239.55 C 103.99 239.82 102.13 239.62 100.74 239.09 L 98.22 238.13 L 98.55 253.82 C 98.73 262.44 98.90 271.39 98.94 273.69 L 99.00 277.89 L 103.25 278.26 C 105.59 278.46 107.89 278.58 108.37 278.52 C 108.86 278.47 109.17 269.90 109.07 259.48 Z M 226.01 272.13 C 226.03 262.90 233.67 247.92 242.50 239.78 C 245.95 236.61 255.65 231.66 261.50 230.09 C 266.86 228.65 277.91 228.72 283.54 230.22 C 288.56 231.56 290.28 230.54 289.76 226.54 C 289.12 221.65 266.70 220.50 254.87 224.74 C 247.64 227.34 238.35 233.66 233.25 239.45 C 227.84 245.60 221.46 259.00 220.11 267.08 C 218.64 275.78 218.65 275.80 221.25 276.23 C 224.31 276.73 226.00 275.27 226.01 272.13 Z M 237.60 276.23 C 238.20 275.83 238.97 273.71 239.32 271.52 C 239.66 269.34 241.33 264.74 243.02 261.32 C 249.54 248.06 264.58 240.20 277.77 243.15 C 283.50 244.43 284.95 243.76 284.98 239.83 C 285.03 234.87 265.49 234.71 255.50 239.57 C 247.99 243.23 240.30 250.82 236.84 258.00 C 234.15 263.58 231.57 274.50 232.57 276.12 C 233.23 277.18 236.08 277.25 237.60 276.23 Z M 253.48 270.66 C 257.58 260.54 262.73 257.00 273.34 257.00 C 279.56 257.00 279.78 256.91 280.30 254.25 C 280.59 252.74 280.61 251.29 280.36 251.03 C 280.10 250.77 276.83 250.39 273.10 250.18 C 267.24 249.84 265.52 250.17 260.64 252.56 C 252.63 256.49 246.07 266.01 246.02 273.82 C 246.00 276.79 246.26 277.10 248.56 276.82 C 250.64 276.56 251.56 275.41 253.48 270.66 Z M 372.15 261.86 L 371.18 258.50 L 371.09 261.58 C 371.04 263.28 371.30 264.97 371.67 265.33 C 372.92 266.59 373.11 265.22 372.15 261.86 Z M 189.69 178.75 C 188.89 168.00 189.15 161.00 190.37 160.98 C 191.09 160.97 191.14 160.70 190.50 160.23 C 189.29 159.34 188.94 148.85 190.15 149.59 C 190.62 149.88 191.00 150.95 191.00 151.98 C 191.00 153.00 191.44 153.98 191.97 154.17 C 193.15 154.57 193.44 159.92 193.06 174.25 C 192.84 182.29 192.44 185.00 191.47 185.00 C 190.58 185.00 190.01 182.99 189.69 178.75 Z M 12.08 175.42 C 12.13 174.25 12.36 174.01 12.68 174.81 C 12.97 175.53 12.94 176.40 12.60 176.73 C 12.27 177.06 12.04 176.47 12.08 175.42 Z M 17.09 168.69 C 16.30 167.90 16.00 168.16 16.00 169.63 C 16.00 172.28 17.40 173.68 17.84 171.48 C 18.03 170.55 17.70 169.30 17.09 168.69 Z M 17.98 146.25 C 17.98 145.29 17.53 143.82 17.00 143.00 C 16.26 141.86 16.03 142.28 16.02 144.75 C 16.01 146.54 16.45 148.00 17.00 148.00 C 17.55 148.00 17.99 147.21 17.98 146.25 Z M 190.00 139.00 C 190.00 137.13 190.27 136.87 191.20 137.80 C 192.13 138.73 192.13 139.27 191.20 140.20 C 190.27 141.13 190.00 140.87 190.00 139.00 Z M 189.34 132.03 C 189.70 130.23 190.00 127.65 190.00 126.32 C 190.00 124.95 190.44 124.15 191.00 124.50 C 191.61 124.88 192.04 123.07 192.10 119.81 L 192.20 114.50 L 193.13 118.47 C 193.72 120.97 193.70 123.38 193.09 124.97 C 192.56 126.36 191.84 128.96 191.49 130.74 C 191.13 132.52 190.36 134.28 189.77 134.64 C 189.03 135.10 188.90 134.26 189.34 132.03 Z M 17.00 116.28 C 16.02 114.74 15.94 114.84 16.42 117.00 C 16.72 118.38 17.05 120.40 17.14 121.50 C 17.24 122.80 17.44 122.55 17.71 120.78 C 17.94 119.28 17.62 117.25 17.00 116.28 Z M 18.43 100.79 C 18.38 96.18 17.88 91.60 17.32 90.61 C 16.60 89.32 16.38 91.61 16.54 98.65 C 16.82 110.42 16.80 110.24 17.77 109.64 C 18.19 109.38 18.49 105.40 18.43 100.79 Z M 191.69 80.25 C 191.44 79.29 191.23 80.08 191.23 82.00 C 191.23 83.92 191.44 84.71 191.69 83.75 C 191.94 82.79 191.94 81.21 191.69 80.25 Z M 17.11 65.71 C 16.30 64.90 16.00 65.01 16.00 66.13 C 16.00 68.12 17.34 69.47 17.84 67.97 C 18.05 67.34 17.72 66.32 17.11 65.71 Z M 371.44 63.00 C 373.35 63.00 374.21 61.76 376.76 55.25 C 381.67 42.76 382.18 40.17 380.00 39.00 C 377.89 37.87 372.48 38.70 371.13 40.37 C 369.63 42.23 364.83 61.11 365.45 62.72 C 365.78 63.58 366.68 63.95 367.59 63.60 C 368.46 63.27 370.19 63.00 371.44 63.00 Z M 368.50 61.00 C 368.16 60.45 368.84 60.00 370.00 60.00 C 371.16 60.00 371.84 60.45 371.50 61.00 C 371.16 61.55 370.49 62.00 370.00 62.00 C 369.51 62.00 368.84 61.55 368.50 61.00 Z M 42.97 16.04 C 44.25 15.23 44.23 15.03 42.84 14.49 C 40.20 13.48 31.69 14.40 31.24 15.75 C 30.75 17.26 40.66 17.50 42.97 16.04 Z" fill="none" stroke="rgba(255,255,255,0.92)" stroke-width="1.5" stroke-linejoin="round" fill-rule="evenodd"/>
</svg>
