<svg xmlns="http://www.w3.org/2000/svg" viewBox="0 0 100 100" width="100" height="100">
  <path d="M 0.00 50.00 L 0.00 0.00 L 50.00 0.00 L 100.00 0.00 L 100.00 50.00 L 100.00 100.00 L 50.00 100.00 L 0.00 100.00 L 0.00 50.00 Z M 75.75 95.34 L 96.00 94.68 L 96.00 91.86 L 96.00 89.03 L 73.25 89.53 C 60.74 89.80 41.84 90.23 31.25 90.48 C 12.66 90.91 12.00 90.86 11.88 88.96 C 11.81 87.88 11.64 86.55 11.50 86.00 C 11.36 85.45 11.19 66.78 11.12 44.50 L 11.00 4.00 L 7.92 4.00 L 4.84 4.00 L 5.08 48.75 C 5.22 73.36 5.52 94.06 5.77 94.75 C 6.28 96.18 40.83 96.47 75.75 95.34 Z M 62.77 73.45 C 67.16 71.62 70.65 68.53 72.62 64.75 C 73.99 62.12 74.39 62.00 81.53 62.00 L 89.00 62.00 L 89.00 54.50 L 89.00 47.00 L 86.25 46.94 C 81.40 46.84 60.59 47.26 58.00 47.50 C 56.62 47.63 47.26 47.80 37.18 47.87 L 18.87 48.00 L 19.19 55.25 L 19.51 62.50 L 27.19 63.00 C 34.65 63.49 34.94 63.60 37.20 67.00 C 41.90 74.09 53.95 77.14 62.77 73.45 Z M 47.03 67.62 C 44.58 66.32 42.44 64.81 42.26 64.28 C 41.90 63.21 64.54 61.60 66.13 62.58 C 68.64 64.13 59.11 69.93 53.98 69.98 C 52.60 69.99 49.47 68.93 47.03 67.62 Z M 35.96 42.07 C 36.53 41.00 37.00 39.96 37.00 39.75 C 37.00 39.53 34.04 36.99 30.43 34.09 C 24.22 29.12 23.77 28.93 22.44 30.66 C 21.67 31.67 21.14 33.01 21.27 33.64 C 21.50 34.81 32.91 43.91 34.21 43.97 C 34.61 43.98 35.40 43.13 35.96 42.07 Z M 81.78 37.32 C 85.48 34.20 88.63 31.15 88.78 30.55 C 88.93 29.95 88.42 28.59 87.64 27.53 C 86.29 25.68 85.90 25.88 79.11 31.90 C 75.20 35.37 72.00 38.41 72.00 38.67 C 72.00 39.52 74.06 43.00 74.57 43.00 C 74.84 43.00 78.08 40.44 81.78 37.32 Z M 57.00 29.61 L 57.00 20.23 L 54.00 19.79 L 51.00 19.35 L 51.00 28.51 C 51.00 33.54 51.30 37.97 51.67 38.33 C 52.03 38.70 53.38 39.00 54.67 39.00 C 56.95 39.00 57.00 38.78 57.00 29.61 Z" fill="none" stroke="rgba(255,255,255,0.92)" stroke-width="1.2" stroke-linejoin="round" fill-rule="evenodd"/>
</svg>
