<svg xmlns="http://www.w3.org/2000/svg" viewBox="0 0 100 100" width="100" height="100">
  <path d="M 0.00 50.00 L 0.00 0.00 L 50.00 0.00 L 100.00 0.00 L 100.00 50.00 L 100.00 100.00 L 50.00 100.00 L 0.00 100.00 L 0.00 50.00 Z M 26.00 95.28 C 26.00 94.88 23.46 90.86 20.36 86.34 C 14.81 78.25 14.70 78.15 12.36 79.68 C 9.48 81.57 9.48 81.41 12.31 85.32 C 20.06 96.00 20.06 96.00 23.05 96.00 C 24.67 96.00 26.00 95.68 26.00 95.28 Z M 75.99 82.93 L 88.30 69.86 L 81.77 63.65 L 75.24 57.43 L 64.97 68.46 C 59.32 74.53 51.95 82.42 48.59 86.00 C 38.28 96.96 37.98 96.00 51.72 96.00 L 63.68 96.00 L 75.99 82.93 Z M 95.66 77.25 C 95.30 66.94 95.00 46.24 95.00 31.25 L 95.00 4.00 L 75.75 4.00 C 65.16 4.00 44.69 4.30 30.25 4.66 L 4.00 5.32 L 4.00 7.66 L 4.00 10.00 L 46.34 10.00 L 88.68 10.00 L 89.34 28.75 C 89.70 39.06 90.00 58.41 90.00 71.75 L 90.00 96.00 L 93.16 96.00 L 96.32 96.00 L 95.66 77.25 Z M 46.44 75.25 C 45.24 57.68 45.09 57.00 42.43 57.00 C 40.12 57.00 40.00 57.30 40.01 63.25 C 40.01 66.69 40.30 72.54 40.65 76.25 C 41.28 82.85 41.35 83.00 44.13 83.00 L 46.97 83.00 L 46.44 75.25 Z" fill="none" stroke="rgba(255,255,255,0.92)" stroke-width="1.2" stroke-linejoin="round" fill-rule="evenodd"/>
</svg>
