<svg xmlns="http://www.w3.org/2000/svg" viewBox="0 0 100 100" width="100" height="100">
  <path d="M 0.00 50.00 L 0.00 0.00 L 50.00 0.00 L 100.00 0.00 L 100.00 50.00 L 100.00 100.00 L 50.00 100.00 L 0.00 100.00 L 0.00 50.00 Z M 96.00 92.92 L 96.00 89.84 L 54.52 90.10 C 31.70 90.25 12.83 90.17 12.59 89.92 C 12.34 89.68 12.04 70.25 11.91 46.74 L 11.68 4.00 L 8.84 4.00 L 6.00 4.00 L 6.00 50.00 L 6.00 96.00 L 51.00 96.00 L 96.00 96.00 L 96.00 92.92 Z M 86.25 77.44 L 96.00 67.38 L 96.00 54.62 L 96.00 41.85 L 80.25 58.04 C 71.59 66.95 64.33 74.69 64.13 75.24 C 63.78 76.17 74.90 87.72 76.00 87.57 C 76.28 87.53 80.89 82.97 86.25 77.44 Z M 86.50 44.00 L 86.50 41.50 L 73.90 41.22 L 61.31 40.94 L 61.22 44.00 L 61.13 47.06 L 73.82 46.78 L 86.50 46.50 L 86.50 44.00 Z M 96.00 20.75 C 96.00 17.85 95.33 17.08 89.92 13.69 C 85.08 10.67 83.55 10.13 82.42 11.07 C 79.83 13.22 80.93 14.80 88.25 19.41 C 92.24 21.92 95.61 23.98 95.75 23.99 C 95.89 23.99 96.00 22.54 96.00 20.75 Z" fill="none" stroke="rgba(255,255,255,0.92)" stroke-width="1.2" stroke-linejoin="round" fill-rule="evenodd"/>
</svg>
