<svg xmlns="http://www.w3.org/2000/svg" viewBox="0 0 393 400" width="393" height="400">
  <path d="M 0.00 200.00 L 0.00 0.00 L 196.50 0.00 L 393.00 0.00 L 393.00 200.00 L 393.00 400.00 L 196.50 400.00 L 0.00 400.00 L 0.00 200.00 Z M 242.70 391.59 L 384.50 391.50 L 384.24 242.00 C 384.10 159.78 383.65 73.62 383.24 50.55 L 382.50 8.61 L 287.00 8.89 C 226.15 9.07 191.07 9.53 190.31 10.16 C 189.65 10.70 188.93 12.35 188.71 13.82 C 188.33 16.32 188.29 16.29 188.15 13.38 C 188.03 10.80 187.52 10.16 185.25 9.76 C 182.20 9.22 163.87 9.80 163.21 10.46 C 162.98 10.69 161.83 10.51 160.65 10.06 C 159.47 9.61 153.10 9.55 146.50 9.94 C 139.90 10.32 134.08 10.42 133.56 10.14 C 133.04 9.87 128.09 9.79 122.56 9.96 C 117.03 10.13 111.26 10.22 109.75 10.17 C 108.24 10.11 105.99 10.03 104.75 9.98 C 103.51 9.94 81.58 10.04 56.00 10.20 L 9.50 10.50 L 9.74 38.00 C 9.87 53.12 10.05 74.95 10.13 86.50 C 10.21 98.05 10.68 108.59 11.18 109.92 C 11.79 111.57 11.70 112.57 10.89 113.07 C 10.09 113.57 9.94 115.18 10.43 118.15 C 10.83 120.54 11.09 123.40 11.02 124.50 C 10.94 125.60 10.93 131.90 11.00 138.50 C 11.06 145.10 11.10 151.62 11.09 153.00 C 11.07 154.38 11.12 157.07 11.18 159.00 C 11.30 162.65 11.30 164.48 11.13 169.50 C 11.08 171.15 11.14 185.32 11.27 201.00 C 11.40 216.68 11.61 266.31 11.75 311.30 L 12.00 393.10 L 56.45 392.39 C 80.90 392.01 164.71 391.65 242.70 391.59 Z M 23.68 374.38 C 23.35 370.60 23.01 336.45 22.93 298.50 C 22.84 260.55 22.72 224.78 22.64 219.00 L 22.50 208.50 L 72.50 208.28 C 165.22 207.88 181.39 207.74 192.31 207.22 L 203.18 206.71 L 202.60 147.10 C 202.28 114.32 201.73 72.77 201.38 54.77 C 200.84 27.38 200.96 21.96 202.12 21.58 C 203.54 21.11 293.63 20.07 343.50 19.94 L 371.50 19.87 L 372.11 49.19 C 372.45 65.31 373.09 146.31 373.53 229.19 L 374.33 379.88 L 361.91 380.27 C 355.09 380.49 320.02 380.53 284.00 380.37 C 173.66 379.88 118.51 379.94 70.39 380.61 L 24.28 381.26 L 23.68 374.38 Z M 157.52 367.27 C 161.36 363.02 169.96 353.91 176.63 347.02 C 183.31 340.13 192.08 330.92 196.13 326.55 C 216.12 304.97 216.48 304.65 218.88 305.94 C 222.90 308.09 233.94 308.39 240.50 306.52 C 255.85 302.15 258.50 300.92 268.50 293.52 C 282.99 282.80 295.50 266.49 301.48 250.50 C 305.11 240.80 306.06 225.39 303.48 218.20 L 301.67 213.19 L 308.18 206.35 C 315.90 198.22 338.00 174.35 350.15 161.00 C 354.91 155.78 361.32 148.85 364.40 145.61 L 370.00 139.73 L 357.26 127.36 C 350.26 120.56 344.23 115.00 343.88 115.00 C 343.52 115.00 342.51 116.10 341.63 117.44 C 340.76 118.77 339.02 120.93 337.77 122.23 C 334.95 125.16 320.44 140.92 303.00 160.00 C 295.71 167.97 284.26 180.35 277.55 187.50 C 270.84 194.65 259.65 206.71 252.68 214.30 C 245.71 221.88 237.41 230.85 234.25 234.21 C 228.55 240.28 224.76 244.37 218.00 251.72 C 216.07 253.81 208.60 261.82 201.38 269.51 C 194.16 277.21 186.29 285.66 183.88 288.31 C 181.47 290.95 176.66 296.13 173.19 299.81 C 169.71 303.49 162.06 311.66 156.19 317.98 C 150.31 324.29 141.00 334.08 135.50 339.74 C 130.00 345.40 125.37 350.42 125.20 350.91 C 125.04 351.40 127.47 354.20 130.61 357.15 C 133.74 360.09 139.05 365.28 142.41 368.69 C 145.76 372.09 148.96 374.90 149.52 374.94 C 150.08 374.97 153.68 371.52 157.52 367.27 Z M 226.00 295.63 C 226.00 295.28 226.79 294.17 227.75 293.16 C 228.71 292.15 232.65 287.78 236.50 283.45 C 242.53 276.67 259.55 258.43 285.20 231.25 C 288.97 227.26 292.48 224.00 293.02 224.00 C 293.56 224.00 294.00 226.52 294.00 229.61 C 294.00 246.61 282.57 267.42 265.64 281.23 C 258.79 286.82 256.67 288.06 245.50 293.07 C 240.78 295.18 226.00 297.12 226.00 295.63 Z M 153.75 293.15 L 170.00 293.00 L 170.00 288.06 C 170.00 285.34 169.55 282.84 169.01 282.50 C 168.46 282.16 157.55 281.88 144.76 281.86 L 121.50 281.83 L 121.20 287.82 L 120.91 293.80 L 129.20 293.55 C 133.77 293.41 144.81 293.23 153.75 293.15 Z M 194.79 248.25 C 199.03 242.20 199.23 241.23 196.55 239.81 C 191.62 237.19 170.89 223.78 167.96 221.32 C 164.50 218.40 163.60 218.80 160.21 224.83 L 158.00 228.78 L 169.25 235.99 C 175.44 239.96 182.97 244.94 186.00 247.05 C 189.03 249.16 191.81 250.92 192.18 250.95 C 192.56 250.98 193.73 249.76 194.79 248.25 Z M 247.98 190.51 C 248.00 189.59 241.26 179.12 239.93 178.00 C 239.31 177.48 230.26 164.05 228.46 160.99 C 225.62 156.14 225.12 155.98 221.19 158.65 C 219.16 160.02 217.19 161.69 216.82 162.36 C 216.11 163.62 216.44 164.16 229.39 183.01 C 240.72 199.49 239.50 198.52 244.10 194.71 C 246.22 192.94 247.97 191.05 247.98 190.51 Z M 22.58 196.14 C 22.00 195.19 20.84 170.74 21.05 163.75 C 21.08 162.79 21.10 160.09 21.09 157.75 C 21.08 155.41 21.10 152.38 21.14 151.00 C 21.18 149.62 21.16 147.04 21.11 145.25 C 20.87 137.92 20.84 135.36 20.95 132.50 C 21.22 125.31 20.85 116.51 20.09 112.46 C 19.59 109.77 19.65 107.95 20.24 107.75 C 20.86 107.55 20.86 105.18 20.26 101.18 C 19.74 97.74 19.69 94.69 20.16 94.40 C 21.75 93.42 21.05 90.00 19.25 89.98 C 18.13 89.97 17.91 89.70 18.64 89.23 C 19.93 88.41 20.50 80.00 20.20 66.16 C 20.02 57.74 19.80 56.76 18.00 56.29 C 16.90 56.00 16.00 55.14 16.00 54.38 C 16.00 52.69 17.20 52.60 18.78 54.18 C 19.68 55.08 19.85 52.56 19.51 43.43 C 19.27 36.87 19.11 30.60 19.16 29.50 C 19.34 24.89 19.18 22.27 18.48 18.25 C 17.78 14.25 17.88 14.00 20.07 14.00 C 21.79 14.00 22.11 14.29 21.28 15.12 C 20.46 15.94 20.45 16.89 21.25 18.65 C 22.26 20.87 22.87 21.04 29.42 20.94 C 33.31 20.88 37.62 20.86 39.00 20.90 C 40.38 20.94 44.65 20.77 48.50 20.54 C 58.36 19.94 58.96 19.94 64.14 20.60 C 66.96 20.95 69.67 20.71 71.02 19.99 C 72.77 19.05 73.42 19.06 74.02 20.04 C 74.58 20.94 76.47 21.09 80.81 20.60 C 84.21 20.22 87.08 20.32 87.40 20.84 C 87.74 21.39 90.41 21.25 94.00 20.50 C 97.37 19.80 100.27 19.63 100.57 20.12 C 101.88 22.23 111.16 20.59 110.32 18.40 C 109.48 16.20 111.80 16.76 113.03 19.06 C 114.67 22.12 120.21 21.40 121.00 18.03 L 121.58 15.56 L 123.27 17.98 C 124.92 20.33 125.34 20.40 139.23 20.52 C 147.08 20.58 155.68 20.27 158.33 19.83 C 161.23 19.34 163.90 19.41 164.99 20.00 C 166.08 20.58 168.58 20.65 171.16 20.16 C 173.55 19.72 176.69 19.67 178.14 20.06 C 179.60 20.45 182.67 20.43 184.97 20.01 C 187.81 19.49 189.28 19.60 189.54 20.37 C 190.31 22.63 191.93 194.47 191.19 195.21 C 190.77 195.63 152.83 196.27 106.87 196.64 C 43.51 197.15 23.13 197.02 22.58 196.14 Z M 17.51 194.98 C 17.86 194.42 18.56 194.23 19.07 194.54 C 20.46 195.40 20.20 196.00 18.44 196.00 C 17.58 196.00 17.16 195.54 17.51 194.98 Z M 17.16 186.25 C 17.32 185.29 17.10 183.94 16.67 183.25 C 16.17 182.47 16.42 182.00 17.32 182.00 C 18.81 182.00 20.30 185.71 19.39 187.17 C 18.46 188.68 16.87 188.03 17.16 186.25 Z M 14.00 172.50 C 14.00 171.12 14.45 170.00 15.00 170.00 C 15.55 170.00 16.00 171.12 16.00 172.50 C 16.00 173.88 15.55 175.00 15.00 175.00 C 14.45 175.00 14.00 173.88 14.00 172.50 Z M 18.50 172.00 C 18.16 171.45 18.36 171.00 18.94 171.00 C 19.52 171.00 20.00 171.45 20.00 172.00 C 20.00 172.55 19.80 173.00 19.56 173.00 C 19.32 173.00 18.84 172.55 18.50 172.00 Z M 15.00 163.00 C 13.71 159.08 14.18 156.70 15.89 158.57 C 17.04 159.83 18.07 167.00 17.10 167.00 C 16.67 167.00 15.73 165.20 15.00 163.00 Z M 287.86 165.01 C 288.90 165.00 289.05 164.10 288.49 161.25 C 288.09 159.19 287.62 153.45 287.45 148.50 C 287.28 143.55 286.84 134.04 286.47 127.37 L 285.81 115.24 L 281.16 114.71 C 278.60 114.43 276.16 114.40 275.75 114.65 C 274.69 115.31 274.80 123.58 276.15 145.70 L 277.33 164.90 L 279.91 165.32 C 281.34 165.55 283.40 165.58 284.50 165.38 C 285.60 165.19 287.11 165.02 287.86 165.01 Z M 14.00 147.16 C 14.00 146.73 14.66 145.51 15.47 144.44 C 16.91 142.54 16.94 142.54 16.97 144.64 C 16.99 145.82 16.32 147.05 15.50 147.36 C 14.68 147.68 14.00 147.59 14.00 147.16 Z M 15.00 137.00 C 15.00 136.45 15.48 136.00 16.06 136.00 C 16.64 136.00 16.84 136.45 16.50 137.00 C 16.16 137.55 15.68 138.00 15.44 138.00 C 15.20 138.00 15.00 137.55 15.00 137.00 Z M 14.60 127.41 C 13.75 125.18 13.82 125.00 15.50 125.00 C 16.32 125.00 17.00 125.65 17.00 126.44 C 17.00 128.56 15.31 129.24 14.60 127.41 Z M 15.50 119.00 C 15.16 118.45 15.36 118.00 15.94 118.00 C 16.52 118.00 17.00 118.45 17.00 119.00 C 17.00 119.55 16.80 120.00 16.56 120.00 C 16.32 120.00 15.84 119.55 15.50 119.00 Z M 14.50 110.00 C 14.84 109.45 15.32 109.00 15.56 109.00 C 15.80 109.00 16.00 109.45 16.00 110.00 C 16.00 110.55 15.52 111.00 14.94 111.00 C 14.36 111.00 14.16 110.55 14.50 110.00 Z M 13.50 106.00 C 13.16 105.45 13.36 105.00 13.94 105.00 C 14.52 105.00 15.00 105.45 15.00 106.00 C 15.00 106.55 14.80 107.00 14.56 107.00 C 14.32 107.00 13.84 106.55 13.50 106.00 Z M 16.48 102.80 C 15.63 100.59 16.87 98.47 18.22 99.82 C 18.87 100.47 18.86 101.43 18.17 102.65 C 17.22 104.36 17.08 104.37 16.48 102.80 Z M 15.81 94.32 C 16.53 94.03 17.40 94.06 17.73 94.40 C 18.06 94.73 17.47 94.96 16.42 94.92 C 15.25 94.87 15.01 94.64 15.81 94.32 Z M 14.50 92.00 C 14.16 91.45 14.36 91.00 14.94 91.00 C 15.52 91.00 16.00 91.45 16.00 92.00 C 16.00 92.55 15.80 93.00 15.56 93.00 C 15.32 93.00 14.84 92.55 14.50 92.00 Z M 14.09 85.50 C 14.06 84.40 14.47 82.83 15.00 82.00 C 15.86 80.67 15.96 80.67 15.91 82.00 C 15.88 82.83 15.47 84.40 15.00 85.50 L 14.14 87.50 L 14.09 85.50 Z M 13.46 78.93 C 12.38 77.19 13.61 76.82 14.98 78.48 C 15.77 79.43 15.84 80.00 15.18 80.00 C 14.60 80.00 13.82 79.52 13.46 78.93 Z M 14.53 69.71 C 14.10 68.72 14.03 67.63 14.38 67.29 C 15.39 66.27 16.21 67.70 15.74 69.67 C 15.33 71.42 15.27 71.42 14.53 69.71 Z M 14.00 59.50 C 14.00 58.12 14.45 57.00 15.00 57.00 C 15.55 57.00 16.00 58.12 16.00 59.50 C 16.00 60.88 15.55 62.00 15.00 62.00 C 14.45 62.00 14.00 60.88 14.00 59.50 Z M 12.67 52.33 C 11.52 51.18 11.94 50.00 13.50 50.00 C 14.32 50.00 15.00 50.67 15.00 51.50 C 15.00 53.06 13.82 53.48 12.67 52.33 Z M 14.41 45.64 C 13.63 43.60 14.29 39.50 15.40 39.50 C 16.50 39.50 16.81 46.00 15.74 46.66 C 15.33 46.92 14.73 46.46 14.41 45.64 Z M 15.38 36.25 C 15.07 35.29 14.36 33.54 13.81 32.38 C 13.11 30.91 13.14 29.61 13.90 28.19 C 15.29 25.59 15.37 18.65 14.00 19.50 C 13.45 19.84 13.00 19.42 13.00 18.56 C 13.00 17.68 13.85 17.00 14.96 17.00 C 16.74 17.00 16.88 17.55 16.48 22.75 C 16.24 25.91 15.97 28.95 15.89 29.50 C 15.81 30.05 16.07 32.19 16.48 34.25 C 17.23 38.03 16.42 39.50 15.38 36.25 Z M 42.99 16.49 C 41.99 15.28 42.05 15.00 43.32 15.00 C 45.19 15.00 46.41 16.63 45.13 17.42 C 44.63 17.73 43.67 17.31 42.99 16.49 Z M 50.50 17.00 C 50.84 16.45 51.32 16.00 51.56 16.00 C 51.80 16.00 52.00 16.45 52.00 17.00 C 52.00 17.55 51.52 18.00 50.94 18.00 C 50.36 18.00 50.16 17.55 50.50 17.00 Z M 66.76 15.50 C 67.28 12.76 68.02 12.42 69.72 14.12 C 71.23 15.63 70.20 18.00 68.03 18.00 C 66.70 18.00 66.39 17.40 66.76 15.50 Z M 77.25 16.92 C 78.44 16.23 79.56 16.23 80.75 16.92 C 82.18 17.75 81.86 17.94 79.00 17.94 C 76.14 17.94 75.82 17.75 77.25 16.92 Z M 100.00 15.85 C 100.00 13.72 100.03 13.71 102.25 15.58 C 103.49 16.63 104.69 17.60 104.92 17.74 C 105.15 17.88 104.13 18.00 102.67 18.00 C 100.60 18.00 100.00 17.51 100.00 15.85 Z M 113.67 17.33 C 113.30 16.97 113.00 16.06 113.00 15.32 C 113.00 14.23 113.37 14.22 115.00 15.23 C 116.10 15.92 117.00 16.82 117.00 17.24 C 117.00 18.18 114.58 18.24 113.67 17.33 Z M 25.00 15.44 C 25.00 14.58 25.45 14.16 26.00 14.50 C 26.55 14.84 27.00 15.54 27.00 16.06 C 27.00 16.58 26.55 17.00 26.00 17.00 C 25.45 17.00 25.00 16.30 25.00 15.44 Z M 33.00 15.50 C 33.00 14.54 33.97 14.00 35.69 14.00 C 38.27 14.00 38.30 14.06 36.44 15.47 C 33.94 17.36 33.00 17.37 33.00 15.50 Z M 146.22 15.85 C 146.46 15.11 147.47 14.34 148.45 14.15 C 149.59 13.93 150.07 14.29 149.78 15.15 C 149.54 15.89 148.53 16.66 147.55 16.85 C 146.41 17.07 145.93 16.71 146.22 15.85 Z M 181.00 16.00 C 181.00 15.45 181.45 15.00 182.00 15.00 C 182.55 15.00 183.00 15.45 183.00 16.00 C 183.00 16.55 182.55 17.00 182.00 17.00 C 181.45 17.00 181.00 16.55 181.00 16.00 Z M 139.00 14.00 C 139.00 13.45 139.45 13.00 140.00 13.00 C 140.55 13.00 141.00 13.45 141.00 14.00 C 141.00 14.55 140.55 15.00 140.00 15.00 C 139.45 15.00 139.00 14.55 139.00 14.00 Z M 103.81 13.32 C 104.53 13.03 105.40 13.06 105.73 13.40 C 106.06 13.73 105.47 13.96 104.42 13.92 C 103.25 13.87 103.01 13.64 103.81 13.32 Z M 168.00 13.00 C 168.00 12.45 168.42 12.00 168.94 12.00 C 169.46 12.00 170.16 12.45 170.50 13.00 C 170.84 13.55 170.42 14.00 169.56 14.00 C 168.70 14.00 168.00 13.55 168.00 13.00 Z" fill="none" stroke="rgba(255,255,255,0.92)" stroke-width="1.5" stroke-linejoin="round" fill-rule="evenodd"/>
</svg>
