<svg xmlns="http://www.w3.org/2000/svg" viewBox="0 0 100 100" width="100" height="100">
  <path d="M 0.00 50.00 L 0.00 0.00 L 50.00 0.00 L 100.00 0.00 L 100.00 50.00 L 100.00 100.00 L 50.00 100.00 L 0.00 100.00 L 0.00 50.00 Z M 96.00 50.00 L 96.00 4.00 L 92.98 4.00 L 89.95 4.00 L 90.00 37.25 C 90.03 55.54 90.04 74.89 90.03 80.25 L 90.00 90.00 L 47.00 90.00 L 4.00 90.00 L 4.00 93.00 L 4.00 96.00 L 50.00 96.00 L 96.00 96.00 L 96.00 50.00 Z M 12.01 53.02 C 16.29 55.73 28.95 52.41 37.07 46.45 C 43.44 41.77 47.94 36.44 51.57 29.28 C 54.10 24.28 54.51 22.34 54.57 14.94 C 54.61 10.24 54.97 5.85 55.38 5.19 C 55.94 4.29 53.06 4.00 43.69 4.00 L 31.25 4.00 L 26.94 8.75 C 24.56 11.36 18.43 17.93 13.31 23.34 L 4.00 33.18 L 4.00 45.79 L 4.00 58.39 L 7.26 55.24 C 9.66 52.91 10.90 52.33 12.01 53.02 Z M 18.44 43.91 C 28.51 32.67 48.53 12.00 49.35 12.00 C 49.87 12.00 49.99 14.03 49.63 16.67 C 47.61 31.41 33.07 46.18 19.00 47.79 L 14.50 48.31 L 18.44 43.91 Z" fill="none" stroke="rgba(255,255,255,0.92)" stroke-width="1.2" stroke-linejoin="round" fill-rule="evenodd"/>
</svg>
