<svg xmlns="http://www.w3.org/2000/svg" viewBox="0 0 100 100" width="100" height="100">
  <path d="M 0.00 50.00 L 0.00 0.00 L 50.00 0.00 L 100.00 0.00 L 100.00 50.00 L 100.00 100.00 L 50.00 100.00 L 0.00 100.00 L 0.00 50.00 Z M 96.00 93.84 L 96.00 91.68 L 62.84 92.34 C 44.60 92.70 23.90 93.00 16.84 93.00 C 6.09 93.00 4.00 93.24 4.00 94.50 C 4.00 95.81 9.78 96.00 50.00 96.00 L 96.00 96.00 L 96.00 93.84 Z M 73.25 4.25 C 60.46 4.09 39.54 4.09 26.75 4.25 C 13.96 4.41 24.42 4.54 50.00 4.54 C 75.58 4.54 86.04 4.41 73.25 4.25 Z" fill="none" stroke="rgba(255,255,255,0.92)" stroke-width="1.2" stroke-linejoin="round" fill-rule="evenodd"/>
</svg>
