<svg xmlns="http://www.w3.org/2000/svg" viewBox="0 0 400 259" width="400" height="259">
  <path d="M 0.00 129.50 L 0.00 0.00 L 26.30 0.00 C 43.91 0.00 52.96 0.36 53.69 1.09 C 54.47 1.87 54.96 1.87 55.45 1.09 C 55.93 0.31 105.32 0.00 228.06 0.00 L 400.00 0.00 L 400.00 129.50 L 400.00 259.00 L 200.00 259.00 L 0.00 259.00 L 0.00 129.50 Z M 144.50 254.49 C 236.29 253.90 297.57 252.71 350.50 250.48 C 369.75 249.68 387.36 249.01 389.64 249.01 C 393.52 249.00 393.81 248.80 394.34 245.75 C 394.84 242.83 396.12 198.22 396.39 174.00 L 396.50 164.50 L 370.50 164.78 C 356.20 164.94 338.99 165.30 332.25 165.59 L 320.00 166.12 L 319.99 120.31 C 319.99 95.11 319.87 58.75 319.74 39.50 L 319.50 4.50 L 217.00 4.69 C 160.62 4.79 107.08 4.90 98.00 4.94 L 81.50 5.00 L 81.74 45.50 L 81.98 86.00 L 42.99 86.00 L 4.00 86.00 L 4.03 170.47 L 4.07 254.94 L 15.29 255.26 C 21.45 255.44 34.38 255.46 44.00 255.30 C 53.62 255.15 98.85 254.78 144.50 254.49 Z M 6.00 240.00 C 6.00 239.45 6.76 239.00 7.69 239.00 C 9.17 239.00 9.14 238.81 7.44 237.42 C 6.21 236.42 6.05 236.00 7.00 236.29 C 8.31 236.69 8.50 232.96 8.50 206.87 C 8.50 179.72 8.17 174.52 6.66 178.25 C 6.33 179.08 6.13 178.98 6.08 177.95 C 6.04 177.10 6.54 175.86 7.20 175.20 C 8.13 174.27 8.08 173.99 6.95 173.94 C 6.08 173.90 6.30 173.55 7.50 173.06 C 8.61 172.61 25.71 172.22 45.50 172.19 L 81.50 172.13 L 81.64 206.57 L 81.77 241.00 L 43.89 241.00 C 19.30 241.00 6.00 240.65 6.00 240.00 Z M 83.82 238.25 L 84.37 235.50 L 85.08 238.00 C 86.12 241.62 86.12 241.60 86.01 205.25 L 85.92 172.00 L 123.21 172.00 L 160.50 172.00 L 160.28 204.75 C 160.16 222.76 160.05 238.29 160.03 239.25 C 160.00 240.89 157.49 241.00 121.64 241.00 L 83.28 241.00 L 83.82 238.25 Z M 165.26 239.25 C 165.00 238.56 164.72 223.18 164.64 205.07 L 164.50 172.15 L 167.38 171.58 C 168.96 171.26 185.51 171.00 204.16 171.00 L 238.06 171.00 L 237.95 205.48 L 237.84 239.95 L 201.79 240.23 C 173.65 240.44 165.64 240.23 165.26 239.25 Z M 242.27 205.25 L 242.43 171.00 L 279.32 171.00 C 311.90 171.00 316.15 171.18 315.63 172.52 C 315.31 173.35 315.01 188.39 314.97 205.93 L 314.90 237.82 L 305.70 238.41 C 300.64 238.73 284.26 239.11 269.30 239.25 L 242.10 239.50 L 242.27 205.25 Z M 319.46 204.45 C 319.79 185.84 320.16 170.52 320.28 170.42 C 320.40 170.32 336.64 169.98 356.37 169.66 L 392.23 169.08 L 391.46 197.29 C 391.04 212.81 390.71 227.80 390.72 230.61 L 390.75 235.72 L 371.62 236.37 C 361.11 236.73 344.93 237.31 335.68 237.66 L 318.86 238.30 L 319.46 204.45 Z M 83.00 231.44 C 83.00 230.58 83.45 230.16 84.00 230.50 C 84.55 230.84 85.00 231.54 85.00 232.06 C 85.00 232.58 84.55 233.00 84.00 233.00 C 83.45 233.00 83.00 232.30 83.00 231.44 Z M 6.16 229.00 C 6.16 227.62 6.38 227.06 6.66 227.75 C 6.94 228.44 6.94 229.56 6.66 230.25 C 6.38 230.94 6.16 230.38 6.16 229.00 Z M 83.64 221.50 C 83.32 220.68 83.50 220.00 84.03 220.00 C 84.56 220.00 85.00 220.68 85.00 221.50 C 85.00 222.32 84.82 223.00 84.61 223.00 C 84.39 223.00 83.95 222.32 83.64 221.50 Z M 6.16 205.00 C 6.16 203.62 6.38 203.06 6.66 203.75 C 6.94 204.44 6.94 205.56 6.66 206.25 C 6.38 206.94 6.16 206.38 6.16 205.00 Z M 6.08 200.42 C 6.13 199.25 6.36 199.01 6.68 199.81 C 6.97 200.53 6.94 201.40 6.60 201.73 C 6.27 202.06 6.04 201.47 6.08 200.42 Z M 6.19 189.50 C 6.22 187.85 6.44 187.30 6.69 188.27 C 6.95 189.24 6.93 190.59 6.66 191.27 C 6.38 191.95 6.17 191.15 6.19 189.50 Z M 6.16 182.00 C 6.16 180.62 6.38 180.06 6.66 180.75 C 6.94 181.44 6.94 182.56 6.66 183.25 C 6.38 183.94 6.16 183.38 6.16 182.00 Z M 9.00 129.06 L 9.00 91.00 L 60.75 90.78 C 89.21 90.66 158.06 90.55 213.75 90.53 L 315.00 90.50 L 315.00 127.65 L 315.00 164.80 L 302.75 165.37 C 296.01 165.69 227.16 166.21 149.75 166.53 L 9.00 167.12 L 9.00 129.06 Z M 86.05 48.17 L 85.99 10.04 L 88.25 9.57 C 89.49 9.31 105.98 9.19 124.90 9.30 L 159.29 9.50 L 159.69 47.25 L 160.10 85.00 L 134.30 85.00 C 120.11 85.01 103.46 85.30 97.30 85.65 L 86.11 86.30 L 86.05 48.17 Z M 199.43 85.00 L 164.37 84.50 L 164.29 75.00 C 164.24 69.78 164.13 52.90 164.04 37.50 L 163.88 9.50 L 199.97 9.26 C 228.05 9.07 236.16 9.29 236.49 10.26 C 236.72 10.94 237.05 28.01 237.21 48.20 C 237.46 80.18 237.31 84.94 236.00 85.20 C 235.18 85.36 218.72 85.28 199.43 85.00 Z M 242.66 85.26 C 241.95 84.11 241.32 10.35 242.01 9.65 C 242.29 9.37 258.85 9.01 278.80 8.84 L 315.07 8.55 L 315.29 46.77 L 315.50 85.00 L 281.50 85.01 C 262.80 85.02 246.54 85.29 245.36 85.60 C 244.19 85.92 242.97 85.76 242.66 85.26 Z M 47.94 56.75 C 48.58 51.11 49.33 45.43 49.60 44.13 C 50.07 41.91 49.88 41.80 46.63 42.41 C 44.60 42.79 42.89 42.63 42.52 42.03 C 41.57 40.50 40.00 40.78 40.00 42.48 C 40.00 43.30 38.76 44.26 37.25 44.62 C 32.16 45.84 31.85 44.77 41.70 60.25 C 44.06 63.96 46.16 67.00 46.38 67.00 C 46.60 67.00 47.30 62.39 47.94 56.75 Z M 42.00 32.50 C 42.00 29.17 41.61 28.00 40.50 28.00 C 39.43 28.00 39.00 29.09 39.00 31.83 C 39.00 33.94 39.30 35.97 39.67 36.33 C 41.26 37.92 42.00 36.70 42.00 32.50 Z M 161.16 23.00 C 161.16 21.62 161.38 21.06 161.66 21.75 C 161.94 22.44 161.94 23.56 161.66 24.25 C 161.38 24.94 161.16 24.38 161.16 23.00 Z M 43.57 19.45 C 43.94 17.50 43.92 15.59 43.54 15.20 C 42.50 14.16 40.00 18.03 40.00 20.69 C 40.00 24.44 42.82 23.46 43.57 19.45 Z M 317.08 17.42 C 317.13 16.25 317.36 16.01 317.68 16.81 C 317.97 17.53 317.94 18.40 317.60 18.73 C 317.27 19.06 317.04 18.47 317.08 17.42 Z M 317.16 12.00 C 317.16 10.62 317.38 10.06 317.66 10.75 C 317.94 11.44 317.94 12.56 317.66 13.25 C 317.38 13.94 317.16 13.38 317.16 12.00 Z M 48.93 8.10 C 51.38 4.66 51.48 4.00 49.57 4.00 C 47.82 4.00 43.82 8.90 44.57 10.12 C 45.53 11.67 46.81 11.08 48.93 8.10 Z M 152.00 6.94 C 152.00 6.36 152.45 6.16 153.00 6.50 C 153.55 6.84 154.00 7.32 154.00 7.56 C 154.00 7.80 153.55 8.00 153.00 8.00 C 152.45 8.00 152.00 7.52 152.00 6.94 Z M 164.50 7.00 C 164.84 6.45 165.54 6.00 166.06 6.00 C 166.58 6.00 167.00 6.45 167.00 7.00 C 167.00 7.55 166.30 8.00 165.44 8.00 C 164.58 8.00 164.16 7.55 164.50 7.00 Z M 169.00 6.94 C 169.00 6.36 169.45 6.16 170.00 6.50 C 170.55 6.84 171.00 7.32 171.00 7.56 C 171.00 7.80 170.55 8.00 170.00 8.00 C 169.45 8.00 169.00 7.52 169.00 6.94 Z M 305.81 6.32 C 306.53 6.03 307.40 6.06 307.73 6.40 C 308.06 6.73 307.47 6.96 306.42 6.92 C 305.25 6.87 305.01 6.64 305.81 6.32 Z" fill="none" stroke="rgba(255,255,255,0.92)" stroke-width="1.5" stroke-linejoin="round" fill-rule="evenodd"/>
</svg>
