<svg xmlns="http://www.w3.org/2000/svg" viewBox="0 0 400 318" width="400" height="318">
  <path d="M 0.00 159.01 L 0.00 0.02 L 200.00 0.00 L 400.00 -0.01 L 400.00 159.00 L 400.00 318.00 L 200.00 318.00 L 0.00 318.00 L 0.00 159.01 Z M 353.32 312.35 L 396.14 311.70 L 395.50 222.10 C 395.14 172.82 394.67 131.93 394.45 131.23 C 394.23 130.53 394.01 102.40 393.97 68.70 C 393.93 35.01 393.52 6.84 393.06 6.10 C 392.52 5.22 390.19 4.75 386.36 4.74 C 380.31 4.73 301.51 6.02 278.50 6.51 C 271.35 6.66 240.07 7.09 209.00 7.48 C 177.93 7.86 152.16 8.50 151.74 8.89 C 151.32 9.29 160.68 9.59 172.53 9.56 C 190.63 9.51 194.22 9.74 195.02 11.00 C 195.58 11.89 195.98 31.27 195.98 58.62 L 196.00 104.75 L 192.87 105.37 C 191.16 105.72 170.91 106.00 147.87 106.00 L 106.00 106.00 L 106.00 102.56 C 106.00 100.67 105.52 98.82 104.93 98.46 C 104.34 98.09 104.17 97.06 104.55 96.15 C 105.67 93.48 105.01 85.68 103.46 83.30 C 102.44 81.75 102.30 80.43 102.95 78.80 L 103.87 76.50 L 103.94 78.75 C 103.97 79.99 104.42 81.00 104.93 81.00 C 105.50 81.00 105.50 79.76 104.93 77.76 C 103.78 73.74 103.78 73.75 105.00 74.50 C 106.15 75.21 106.23 74.45 105.35 71.17 C 104.87 69.36 104.50 69.14 103.77 70.17 C 103.10 71.10 103.03 70.90 103.53 69.50 C 103.93 68.40 104.43 66.38 104.64 65.00 C 104.99 62.76 104.93 62.71 104.06 64.50 C 103.36 65.95 103.19 64.80 103.43 60.25 C 103.62 56.81 103.41 54.00 102.98 54.00 C 102.54 54.00 102.44 53.02 102.76 51.82 L 103.33 49.65 L 104.18 51.97 C 105.42 55.32 105.65 54.28 105.17 47.50 C 104.85 42.94 104.53 41.98 103.86 43.50 C 103.17 45.05 103.10 44.85 103.53 42.63 C 105.01 35.14 105.15 33.53 104.22 34.83 C 102.81 36.83 102.18 34.40 102.84 29.50 C 103.37 25.52 103.38 25.52 104.07 28.50 C 104.50 30.38 104.75 28.32 104.74 23.00 C 104.72 16.47 104.55 15.43 104.00 18.50 C 103.20 22.96 102.74 21.81 102.54 14.83 L 102.40 10.16 L 110.45 10.03 C 121.22 9.85 126.66 9.84 138.28 9.96 C 143.66 10.02 148.84 9.62 149.78 9.07 C 150.96 8.39 143.39 8.08 125.90 8.11 L 100.30 8.16 L 100.41 57.08 L 100.52 106.00 L 52.73 106.00 L 4.93 106.00 L 5.05 210.15 L 5.17 314.31 L 157.84 313.65 C 241.80 313.29 329.77 312.70 353.32 312.35 Z M 11.82 288.41 C 11.60 283.51 11.29 241.81 11.13 195.75 L 10.85 112.00 L 113.18 111.81 C 169.45 111.71 217.30 111.57 219.50 111.51 C 221.70 111.44 260.18 111.03 305.00 110.59 C 349.82 110.15 386.93 109.73 387.46 109.65 C 388.07 109.56 388.57 127.01 388.81 156.13 L 389.20 202.76 L 309.35 203.38 C 265.43 203.72 203.40 204.22 171.50 204.48 C 139.60 204.74 110.58 204.96 107.00 204.97 L 100.50 205.00 L 100.75 211.75 C 100.89 215.46 101.12 235.94 101.25 257.25 L 101.50 296.00 L 89.00 296.00 C 82.12 296.00 62.04 296.30 44.36 296.66 L 12.22 297.32 L 11.82 288.41 Z M 107.65 285.34 C 107.29 279.48 107.00 260.36 107.00 242.84 L 107.00 211.00 L 153.75 211.00 L 200.50 211.00 L 200.03 218.75 L 199.56 226.50 L 199.03 219.58 C 198.18 208.51 196.46 210.52 196.75 222.25 C 196.89 227.89 197.12 246.79 197.25 264.25 L 197.50 296.00 L 152.90 296.00 L 108.30 296.00 L 107.65 285.34 Z M 199.00 295.00 C 199.00 294.45 199.45 294.00 200.00 294.00 C 200.55 294.00 201.00 294.45 201.00 295.00 C 201.00 295.55 200.55 296.00 200.00 296.00 C 199.45 296.00 199.00 295.55 199.00 295.00 Z M 202.97 284.76 C 202.95 278.57 202.72 259.51 202.46 242.41 L 201.98 211.31 L 216.24 210.66 C 224.08 210.30 245.19 210.01 263.13 210.00 C 299.30 210.00 297.48 209.64 295.92 216.50 C 295.43 218.64 295.17 218.92 295.01 217.50 C 294.88 216.40 294.86 214.49 294.96 213.25 C 295.06 212.01 294.63 211.00 294.00 211.00 C 293.15 211.00 292.94 222.01 293.18 253.25 L 293.50 295.50 L 248.25 295.76 L 203.00 296.02 L 202.97 284.76 Z M 299.44 294.50 C 299.28 293.95 298.90 274.78 298.59 251.91 L 298.04 210.32 L 325.77 209.66 C 341.02 209.30 361.69 209.00 371.70 209.00 L 389.90 209.00 L 390.02 235.25 C 390.08 249.69 390.27 268.81 390.43 277.75 C 390.59 286.69 390.67 294.10 390.61 294.22 C 390.55 294.34 370.08 294.68 345.12 294.97 C 315.28 295.32 299.64 295.16 299.44 294.50 Z M 392.58 291.25 C 392.26 289.74 392.40 287.15 392.89 285.50 C 393.67 282.91 393.79 283.29 393.79 288.25 C 393.79 294.59 393.46 295.42 392.58 291.25 Z M 392.40 277.44 C 392.35 275.04 392.69 273.31 393.15 273.60 C 394.20 274.24 394.28 280.71 393.25 281.35 C 392.84 281.60 392.46 279.84 392.40 277.44 Z M 199.16 278.00 C 199.16 276.62 199.38 276.06 199.66 276.75 C 199.94 277.44 199.94 278.56 199.66 279.25 C 199.38 279.94 199.16 279.38 199.16 278.00 Z M 199.08 271.42 C 199.13 270.25 199.36 270.01 199.68 270.81 C 199.97 271.53 199.94 272.40 199.60 272.73 C 199.27 273.06 199.04 272.47 199.08 271.42 Z M 392.07 267.31 C 392.11 266.86 392.53 265.60 393.00 264.50 C 393.83 262.57 393.86 262.58 393.93 264.69 C 393.97 265.90 393.55 267.16 393.00 267.50 C 392.45 267.84 392.03 267.75 392.07 267.31 Z M 199.16 264.00 C 199.16 262.62 199.38 262.06 199.66 262.75 C 199.94 263.44 199.94 264.56 199.66 265.25 C 199.38 265.94 199.16 265.38 199.16 264.00 Z M 392.09 261.50 C 392.06 260.40 392.47 258.82 393.00 258.00 C 393.86 256.67 393.96 256.67 393.91 258.00 C 393.88 258.82 393.47 260.40 393.00 261.50 L 392.14 263.50 L 392.09 261.50 Z M 392.23 252.50 C 392.34 251.12 392.79 250.00 393.22 250.00 C 393.65 250.00 394.00 251.12 394.00 252.50 C 394.00 253.88 393.56 255.00 393.01 255.00 C 392.47 255.00 392.12 253.88 392.23 252.50 Z M 199.27 249.00 C 199.27 246.53 199.47 245.51 199.71 246.75 C 199.94 247.99 199.94 250.01 199.71 251.25 C 199.47 252.49 199.27 251.47 199.27 249.00 Z M 393.08 246.42 C 393.13 245.25 393.36 245.01 393.68 245.81 C 393.97 246.53 393.94 247.40 393.60 247.73 C 393.27 248.06 393.04 247.47 393.08 246.42 Z M 199.16 229.00 C 199.16 227.62 199.38 227.06 199.66 227.75 C 199.94 228.44 199.94 229.56 199.66 230.25 C 199.38 230.94 199.16 230.38 199.16 229.00 Z M 295.16 224.00 C 295.16 222.62 295.38 222.06 295.66 222.75 C 295.94 223.44 295.94 224.56 295.66 225.25 C 295.38 225.94 295.16 225.38 295.16 224.00 Z M 391.79 212.05 C 391.48 209.94 391.76 209.00 392.69 209.00 C 393.65 209.00 393.85 209.79 393.38 211.75 C 392.47 215.52 392.31 215.55 391.79 212.05 Z M 202.01 104.00 C 201.57 103.17 201.14 87.88 201.04 70.00 C 200.90 42.72 200.62 26.33 200.07 13.25 C 200.02 12.01 199.42 10.99 198.74 10.97 C 198.04 10.95 198.24 10.50 199.20 9.95 C 200.13 9.40 205.76 9.05 211.70 9.16 C 217.64 9.27 237.35 9.25 255.50 9.11 C 273.65 8.98 289.18 8.89 290.01 8.93 C 291.32 8.99 291.55 15.03 291.83 56.43 L 292.14 103.86 L 287.82 104.45 C 285.44 104.77 265.34 105.14 243.15 105.27 C 208.15 105.47 202.70 105.30 202.01 104.00 Z M 297.91 101.50 C 297.18 77.69 296.64 9.03 297.18 8.49 C 298.01 7.65 354.00 7.54 354.00 8.37 C 354.00 8.85 354.57 8.77 355.26 8.20 C 356.99 6.76 373.67 6.07 374.97 7.37 C 375.57 7.97 376.00 8.00 376.00 7.45 C 376.01 6.93 377.58 6.42 379.50 6.32 C 381.43 6.22 383.00 6.53 383.00 7.00 C 383.00 7.48 384.32 7.48 385.96 7.01 C 388.50 6.28 389.01 6.47 389.61 8.33 C 390.28 10.45 390.31 10.46 391.08 8.50 C 391.76 6.77 391.87 6.87 391.93 9.25 C 392.01 12.34 389.43 13.14 388.72 10.25 C 388.48 9.29 388.40 29.20 388.53 54.50 C 388.67 80.84 388.39 101.24 387.86 102.23 C 387.02 103.82 383.45 103.98 342.48 104.23 L 298.00 104.50 L 297.91 101.50 Z M 198.44 94.50 C 198.41 91.47 198.75 89.00 199.19 89.00 C 199.64 89.00 200.00 91.47 200.00 94.50 C 200.00 97.53 199.66 100.00 199.25 100.00 C 198.83 100.00 198.47 97.53 198.44 94.50 Z M 294.00 99.00 C 294.00 98.45 294.48 98.00 295.06 98.00 C 295.64 98.00 295.84 98.45 295.50 99.00 C 295.16 99.55 294.68 100.00 294.44 100.00 C 294.20 100.00 294.00 99.55 294.00 99.00 Z M 294.02 95.25 C 294.02 94.84 294.47 93.83 295.00 93.00 C 295.78 91.79 295.97 91.93 295.98 93.75 C 295.99 94.99 295.55 96.00 295.00 96.00 C 294.45 96.00 294.01 95.66 294.02 95.25 Z M 103.16 93.00 C 103.16 91.62 103.38 91.06 103.66 91.75 C 103.94 92.44 103.94 93.56 103.66 94.25 C 103.38 94.94 103.16 94.38 103.16 93.00 Z M 294.12 87.50 C 294.08 83.69 294.30 82.91 295.07 84.22 C 295.72 85.34 295.74 87.10 295.13 89.22 C 294.21 92.38 294.18 92.32 294.12 87.50 Z M 199.19 83.50 C 199.22 81.85 199.44 81.30 199.69 82.27 C 199.95 83.24 199.93 84.59 199.66 85.27 C 199.38 85.95 199.17 85.15 199.19 83.50 Z M 50.00 84.44 C 50.00 82.74 36.32 58.03 35.37 58.02 C 34.74 58.01 33.50 59.12 32.60 60.49 C 31.55 62.09 30.18 62.89 28.74 62.74 C 26.93 62.54 26.50 63.00 26.50 65.14 C 26.50 66.59 25.67 68.70 24.65 69.83 C 23.63 70.96 22.96 72.39 23.17 73.00 C 23.37 73.61 29.15 76.51 36.02 79.44 C 49.08 85.02 50.00 85.35 50.00 84.44 Z M 390.64 82.50 C 390.32 81.67 390.50 81.00 391.03 81.00 C 391.56 81.00 392.00 81.67 392.00 82.50 C 392.00 83.33 391.82 84.00 391.61 84.00 C 391.39 84.00 390.95 83.33 390.64 82.50 Z M 294.02 74.92 C 294.02 70.91 294.36 69.01 294.90 69.87 C 295.82 71.33 295.60 79.74 294.60 80.73 C 294.27 81.06 294.01 78.45 294.02 74.92 Z M 198.00 78.00 C 198.00 77.45 198.45 77.00 199.00 77.00 C 199.55 77.00 200.00 77.45 200.00 78.00 C 200.00 78.55 199.55 79.00 199.00 79.00 C 198.45 79.00 198.00 78.55 198.00 78.00 Z M 293.84 62.75 C 293.65 59.86 293.76 54.80 294.08 51.50 C 294.55 46.68 294.70 47.71 294.83 56.75 C 295.01 68.44 294.44 71.88 293.84 62.75 Z M 199.19 64.50 C 199.22 62.85 199.44 62.30 199.69 63.27 C 199.95 64.24 199.93 65.59 199.66 66.27 C 199.38 66.95 199.17 66.15 199.19 64.50 Z M 198.02 58.75 C 198.01 57.24 198.45 56.00 199.00 56.00 C 200.26 56.00 200.26 58.04 199.00 60.00 C 198.24 61.17 198.03 60.89 198.02 58.75 Z M 24.00 57.87 C 24.00 55.82 19.87 50.00 18.42 50.00 C 16.38 50.00 16.67 52.73 19.07 56.10 C 21.13 58.99 24.00 60.02 24.00 57.87 Z M 198.02 48.25 C 198.03 46.11 198.24 45.83 199.00 47.00 C 200.26 48.96 200.26 51.00 199.00 51.00 C 198.45 51.00 198.01 49.76 198.02 48.25 Z M 16.00 44.15 C 16.00 42.32 13.61 36.46 12.59 35.77 C 9.67 33.80 9.49 35.89 11.98 42.46 C 12.87 44.80 16.00 46.11 16.00 44.15 Z M 390.19 42.50 C 390.22 40.85 390.44 40.30 390.69 41.27 C 390.95 42.24 390.93 43.59 390.66 44.27 C 390.38 44.95 390.17 44.15 390.19 42.50 Z M 198.75 43.42 C 198.34 43.01 198.01 41.50 198.03 40.08 C 198.06 37.82 198.19 37.72 199.10 39.28 C 200.24 41.24 199.95 44.63 198.75 43.42 Z M 293.91 40.25 C 293.45 30.81 293.65 17.00 294.25 17.00 C 294.66 17.00 295.00 22.62 295.00 29.50 C 295.00 36.38 294.77 42.00 294.50 42.00 C 294.23 42.00 293.96 41.21 293.91 40.25 Z M 102.16 39.00 C 102.16 37.62 102.38 37.06 102.66 37.75 C 102.94 38.44 102.94 39.56 102.66 40.25 C 102.38 40.94 102.16 40.38 102.16 39.00 Z M 390.61 38.25 C 389.65 35.06 390.13 13.96 391.14 14.59 C 391.92 15.07 392.12 40.00 391.35 40.00 C 391.23 40.00 390.90 39.21 390.61 38.25 Z M 13.00 25.54 C 13.00 22.09 12.54 20.83 11.00 20.00 C 9.11 18.99 9.00 19.24 9.00 24.46 C 9.00 29.33 9.24 30.00 11.00 30.00 C 12.70 30.00 13.00 29.33 13.00 25.54 Z M 17.00 6.43 C 17.00 5.76 16.31 4.95 15.47 4.63 C 13.06 3.70 10.62 12.28 12.70 14.36 C 13.43 15.10 17.00 8.51 17.00 6.43 Z" fill="none" stroke="rgba(255,255,255,0.92)" stroke-width="1.5" stroke-linejoin="round" fill-rule="evenodd"/>
</svg>
