<svg xmlns="http://www.w3.org/2000/svg" viewBox="0 0 100 100" width="100" height="100">
  <path d="M 0.00 50.00 L 0.00 0.00 L 50.00 0.00 L 100.00 0.00 L 100.00 50.00 L 100.00 100.00 L 50.00 100.00 L 0.00 100.00 L 0.00 50.00 Z M 96.00 94.50 C 96.00 93.19 90.40 93.00 51.58 93.00 C 27.15 93.00 6.45 93.27 5.58 93.61 C 0.43 95.59 8.13 96.00 50.00 96.00 C 90.22 96.00 96.00 95.81 96.00 94.50 Z M 63.18 4.25 C 52.01 4.09 34.01 4.09 23.18 4.25 C 12.36 4.41 21.50 4.54 43.50 4.54 C 65.50 4.54 74.36 4.41 63.18 4.25 Z M 93.77 4.29 C 92.27 4.06 89.57 4.05 87.77 4.28 C 85.97 4.50 87.20 4.68 90.50 4.69 C 93.80 4.70 95.27 4.51 93.77 4.29 Z" fill="none" stroke="rgba(255,255,255,0.92)" stroke-width="1.2" stroke-linejoin="round" fill-rule="evenodd"/>
</svg>
