<svg xmlns="http://www.w3.org/2000/svg" viewBox="0 0 100 100" width="100" height="100">
  <path d="M 0.00 50.00 L 0.00 0.00 L 50.00 0.00 L 100.00 0.00 L 100.00 50.00 L 100.00 100.00 L 50.00 100.00 L 0.00 100.00 L 0.00 50.00 Z M 96.00 94.50 C 96.00 93.19 90.22 93.00 50.00 93.00 C 9.78 93.00 4.00 93.19 4.00 94.50 C 4.00 95.81 9.78 96.00 50.00 96.00 C 90.22 96.00 96.00 95.81 96.00 94.50 Z M 89.00 4.95 C 93.12 4.61 75.69 4.25 50.25 4.16 C 18.04 4.05 4.00 4.32 4.00 5.07 C 4.00 6.22 75.05 6.13 89.00 4.95 Z" fill="none" stroke="rgba(255,255,255,0.92)" stroke-width="1.2" stroke-linejoin="round" fill-rule="evenodd"/>
</svg>
