<svg xmlns="http://www.w3.org/2000/svg" viewBox="0 0 100 100" width="100" height="100">
  <path d="M 0.00 50.00 L 0.00 0.00 L 50.00 0.00 L 100.00 0.00 L 100.00 50.00 L 100.00 100.00 L 50.00 100.00 L 0.00 100.00 L 0.00 50.00 Z M 95.00 65.16 C 95.00 48.20 94.70 27.47 94.34 19.11 L 93.68 3.90 L 91.10 4.20 L 88.53 4.50 L 88.86 47.59 L 89.20 90.68 L 67.35 91.34 C 55.33 91.70 36.16 92.00 24.75 92.00 C 4.67 92.00 4.00 92.06 4.00 94.00 C 4.00 95.97 4.67 96.00 49.50 96.00 L 95.00 96.00 L 95.00 65.16 Z" fill="none" stroke="rgba(255,255,255,0.92)" stroke-width="1.2" stroke-linejoin="round" fill-rule="evenodd"/>
</svg>
