<svg xmlns="http://www.w3.org/2000/svg" viewBox="0 0 100 100" width="100" height="100">
  <path d="M 0.00 50.00 L 0.00 0.00 L 50.00 0.00 L 100.00 0.00 L 100.00 50.00 L 100.00 100.00 L 50.00 100.00 L 0.00 100.00 L 0.00 50.00 Z M 96.00 95.00 C 96.00 94.35 81.17 94.00 53.50 94.00 L 11.00 94.00 L 11.00 50.00 L 11.00 6.00 L 14.75 5.98 C 33.79 5.89 95.59 4.67 95.92 4.38 C 96.15 4.17 75.78 4.00 50.67 4.00 L 5.00 4.00 L 5.00 50.00 L 5.00 96.00 L 50.50 96.00 C 80.17 96.00 96.00 95.65 96.00 95.00 Z" fill="none" stroke="rgba(255,255,255,0.92)" stroke-width="1.2" stroke-linejoin="round" fill-rule="evenodd"/>
</svg>
