<svg xmlns="http://www.w3.org/2000/svg" viewBox="0 0 100 100" width="100" height="100">
  <path d="M 0.00 50.00 L 0.00 0.00 L 50.00 0.00 L 100.00 0.00 L 100.00 50.00 L 100.00 100.00 L 50.00 100.00 L 0.00 100.00 L 0.00 50.00 Z M 96.00 93.84 L 96.00 91.69 L 51.75 92.34 C 27.41 92.69 6.71 92.99 5.75 92.99 C 4.79 93.00 4.00 93.67 4.00 94.50 C 4.00 95.81 9.78 96.00 50.00 96.00 L 96.00 96.00 L 96.00 93.84 Z M 61.25 4.25 C 50.66 4.09 33.34 4.09 22.75 4.25 C 12.16 4.41 20.82 4.55 42.00 4.55 C 63.18 4.55 71.84 4.41 61.25 4.25 Z" fill="none" stroke="rgba(255,255,255,0.92)" stroke-width="1.2" stroke-linejoin="round" fill-rule="evenodd"/>
</svg>
