<svg xmlns="http://www.w3.org/2000/svg" viewBox="0 0 100 100" width="100" height="100">
  <path d="M 0.00 50.00 L 0.00 0.00 L 50.00 0.00 L 100.00 0.00 L 100.00 50.00 L 100.00 100.00 L 50.00 100.00 L 0.00 100.00 L 0.00 50.00 Z M 12.28 59.06 L 11.71 22.11 L 14.25 21.47 C 15.64 21.12 17.62 20.93 18.64 21.03 C 19.66 21.14 37.49 21.18 58.25 21.12 L 96.00 21.00 L 96.00 13.00 L 96.00 5.00 L 50.57 5.00 L 5.15 5.00 L 5.60 35.25 C 5.85 51.89 6.31 72.36 6.63 80.75 L 7.21 96.00 L 10.03 96.00 L 12.86 96.00 L 12.28 59.06 Z" fill="none" stroke="rgba(255,255,255,0.92)" stroke-width="1.2" stroke-linejoin="round" fill-rule="evenodd"/>
</svg>
