<svg xmlns="http://www.w3.org/2000/svg" viewBox="0 0 400 258" width="400" height="258">
  <path d="M 0.00 129.00 L 0.00 0.00 L 200.00 0.00 L 400.00 0.00 L 400.00 129.00 L 400.00 258.00 L 384.96 258.00 C 370.40 258.00 369.96 257.94 370.97 256.06 C 372.67 252.87 370.00 252.28 367.77 255.35 L 365.83 258.00 L 182.92 258.00 L 0.00 258.00 L 0.00 129.00 Z M 277.78 254.01 C 298.83 253.96 316.67 253.68 317.41 253.39 C 318.53 252.96 318.68 246.01 318.27 213.30 L 317.77 173.72 L 357.52 174.46 L 397.28 175.20 L 396.78 91.07 C 396.51 44.81 396.01 6.68 395.68 6.35 C 394.84 5.50 148.72 3.90 70.00 4.23 L 4.50 4.50 L 4.52 14.50 C 4.53 20.00 4.93 58.43 5.42 99.90 L 6.31 175.30 L 44.65 174.75 L 83.00 174.20 L 83.08 178.35 C 83.13 180.63 83.33 196.68 83.52 214.00 C 83.72 231.32 83.91 247.40 83.94 249.72 L 84.00 253.94 L 107.66 253.96 C 120.67 253.97 131.43 254.10 131.58 254.24 C 131.72 254.38 156.06 254.41 185.67 254.31 C 215.27 254.20 256.73 254.07 277.78 254.01 Z M 88.00 220.50 C 87.79 192.94 87.76 179.64 87.93 175.75 C 88.00 174.12 90.42 174.00 124.30 174.00 L 160.61 174.00 L 160.55 211.75 L 160.50 249.50 L 124.36 249.50 L 88.22 249.50 L 88.00 220.50 Z M 167.75 249.20 C 166.43 248.94 165.98 247.83 165.94 244.68 C 165.90 242.38 165.65 225.43 165.37 207.00 L 164.86 173.50 L 200.68 173.50 C 231.61 173.50 236.58 173.70 237.06 175.00 C 237.36 175.82 237.59 192.92 237.56 213.00 L 237.50 249.50 L 203.50 249.52 C 184.80 249.53 168.71 249.39 167.75 249.20 Z M 243.73 248.87 C 242.65 248.27 242.34 240.84 242.13 211.06 L 241.87 174.00 L 278.19 174.00 L 314.50 174.00 L 314.23 211.50 L 313.95 249.00 L 300.23 249.11 C 292.68 249.17 277.18 249.31 265.79 249.42 C 254.39 249.53 244.47 249.28 243.73 248.87 Z M 375.00 248.12 C 375.00 247.64 375.28 245.84 375.62 244.12 C 376.10 241.77 375.89 241.00 374.79 241.00 C 373.33 241.00 370.74 247.40 371.78 248.44 C 372.66 249.32 375.00 249.09 375.00 248.12 Z M 376.54 235.94 C 377.59 234.24 376.04 227.82 374.69 228.27 C 373.57 228.65 372.84 234.62 373.71 236.25 C 374.30 237.34 375.78 237.17 376.54 235.94 Z M 374.61 220.78 C 373.93 217.40 372.43 215.23 371.45 216.21 C 370.28 217.39 372.21 224.00 373.74 224.00 C 374.91 224.00 375.10 223.27 374.61 220.78 Z M 367.45 211.49 C 369.07 211.39 370.57 210.78 370.79 210.13 C 371.00 209.49 372.55 208.25 374.22 207.38 L 377.27 205.81 L 368.44 196.94 C 363.58 192.06 359.46 188.21 359.28 188.38 C 359.10 188.56 359.50 194.19 360.15 200.89 C 361.18 211.38 361.57 212.98 362.92 212.37 C 363.79 211.98 365.83 211.58 367.45 211.49 Z M 316.16 206.00 C 316.16 204.62 316.38 204.06 316.66 204.75 C 316.94 205.44 316.94 206.56 316.66 207.25 C 316.38 207.94 316.16 207.38 316.16 206.00 Z M 85.08 200.42 C 85.13 199.25 85.36 199.01 85.68 199.81 C 85.97 200.53 85.94 201.40 85.60 201.73 C 85.27 202.06 85.04 201.47 85.08 200.42 Z M 315.67 179.33 C 315.30 178.97 315.03 177.73 315.06 176.58 C 315.12 174.67 315.20 174.69 316.08 176.90 C 317.06 179.34 316.86 180.53 315.67 179.33 Z M 10.96 147.40 C 10.93 134.81 10.52 100.88 10.05 72.00 C 9.41 32.66 9.48 19.32 10.35 18.77 C 10.98 18.36 27.36 18.02 46.74 18.02 L 81.98 18.00 L 82.24 56.05 L 82.50 94.09 L 120.63 94.02 C 150.62 93.97 158.87 94.23 159.26 95.23 C 159.52 95.93 159.82 112.81 159.92 132.75 L 160.10 169.00 L 116.30 169.01 C 92.21 169.01 58.66 169.30 41.75 169.66 L 11.00 170.31 L 10.96 147.40 Z M 167.75 169.18 L 165.00 168.87 L 164.92 149.68 C 164.87 139.13 164.64 121.61 164.40 110.75 C 164.15 98.93 164.35 91.00 164.90 91.00 C 165.41 91.00 166.02 91.55 166.24 92.22 C 166.54 93.13 173.74 93.48 195.07 93.62 C 210.71 93.72 226.54 93.85 230.25 93.90 L 237.00 94.00 L 237.00 131.50 L 237.00 169.00 L 231.75 169.06 C 205.86 169.37 169.97 169.44 167.75 169.18 Z M 310.25 169.25 L 242.00 168.99 L 241.92 140.74 C 241.88 125.21 241.77 108.45 241.67 103.50 L 241.50 94.50 L 279.64 94.24 C 315.22 93.99 317.80 93.86 318.24 92.20 C 318.49 91.22 318.54 74.35 318.33 54.71 L 317.96 19.00 L 333.82 19.00 C 342.54 19.00 359.11 19.29 370.63 19.65 L 391.59 20.31 L 391.88 95.15 L 392.17 170.00 L 385.34 169.76 C 381.58 169.62 347.79 169.40 310.25 169.25 Z M 180.50 91.00 C 180.16 90.45 180.33 90.00 180.88 90.00 C 181.43 90.00 182.16 90.45 182.50 91.00 C 182.84 91.55 182.67 92.00 182.12 92.00 C 181.57 92.00 180.84 91.55 180.50 91.00 Z M 192.25 89.23 L 164.00 88.97 L 163.93 75.23 C 163.89 67.68 163.75 51.65 163.63 39.62 L 163.41 17.73 L 199.20 18.20 C 218.89 18.46 235.19 18.86 235.41 19.09 C 235.63 19.31 236.02 35.14 236.28 54.25 C 236.63 79.61 236.45 89.02 235.63 89.07 C 230.09 89.40 216.08 89.46 192.25 89.23 Z M 87.00 53.50 L 87.00 18.00 L 123.25 18.00 L 159.50 18.00 L 159.59 53.50 L 159.69 89.00 L 123.34 89.00 L 87.00 89.00 L 87.00 53.50 Z M 240.92 70.75 C 240.87 60.71 240.70 44.96 240.54 35.75 L 240.24 19.00 L 276.62 19.00 L 313.00 19.00 L 313.10 40.25 C 313.15 51.94 313.33 67.69 313.48 75.25 L 313.77 89.00 L 277.38 89.00 L 241.00 89.00 L 240.92 70.75 Z M 161.00 80.56 C 161.00 79.70 161.45 79.00 162.00 79.00 C 162.55 79.00 163.00 79.42 163.00 79.94 C 163.00 80.46 162.55 81.16 162.00 81.50 C 161.45 81.84 161.00 81.42 161.00 80.56 Z M 161.16 49.00 C 161.16 47.62 161.38 47.06 161.66 47.75 C 161.94 48.44 161.94 49.56 161.66 50.25 C 161.38 50.94 161.16 50.38 161.16 49.00 Z M 238.08 47.42 C 238.13 46.25 238.36 46.01 238.68 46.81 C 238.97 47.53 238.94 48.40 238.60 48.73 C 238.27 49.06 238.04 48.47 238.08 47.42 Z M 238.08 41.42 C 238.13 40.25 238.36 40.01 238.68 40.81 C 238.97 41.53 238.94 42.40 238.60 42.73 C 238.27 43.06 238.04 42.47 238.08 41.42 Z M 238.08 29.42 C 238.13 28.25 238.36 28.01 238.68 28.81 C 238.97 29.53 238.94 30.40 238.60 30.73 C 238.27 31.06 238.04 30.47 238.08 29.42 Z M 161.08 26.42 C 161.13 25.25 161.36 25.01 161.68 25.81 C 161.97 26.53 161.94 27.40 161.60 27.73 C 161.27 28.06 161.04 27.47 161.08 26.42 Z M 237.00 20.00 C 237.00 19.45 237.45 19.00 238.00 19.00 C 238.55 19.00 239.00 19.45 239.00 20.00 C 239.00 20.55 238.55 21.00 238.00 21.00 C 237.45 21.00 237.00 20.55 237.00 20.00 Z" fill="none" stroke="rgba(255,255,255,0.92)" stroke-width="1.5" stroke-linejoin="round" fill-rule="evenodd"/>
</svg>
