<svg xmlns="http://www.w3.org/2000/svg" viewBox="0 0 100 100" width="100" height="100">
  <path d="M 0.00 50.00 L 0.00 0.00 L 50.00 0.00 L 100.00 0.00 L 100.00 50.00 L 100.00 100.00 L 50.00 100.00 L 0.00 100.00 L 0.00 50.00 Z M 95.95 51.50 L 95.84 7.00 L 92.67 7.00 C 90.93 6.99 70.26 6.70 46.75 6.34 L 4.00 5.68 L 4.00 13.68 L 4.00 21.68 L 31.16 22.34 C 46.10 22.70 65.23 23.00 73.66 23.00 L 89.00 23.00 L 89.22 41.25 C 89.35 51.29 89.52 66.03 89.61 74.00 C 89.88 98.11 89.55 96.00 93.02 96.00 L 96.05 96.00 L 95.95 51.50 Z" fill="none" stroke="rgba(255,255,255,0.92)" stroke-width="1.2" stroke-linejoin="round" fill-rule="evenodd"/>
</svg>
