<svg xmlns="http://www.w3.org/2000/svg" viewBox="0 0 100 100" width="100" height="100">
  <path d="M 0.00 50.00 L 0.00 0.00 L 50.00 0.00 L 100.00 0.00 L 100.00 50.00 L 100.00 100.00 L 50.00 100.00 L 0.00 100.00 L 0.00 50.00 Z M 94.50 95.23 C 95.93 94.18 96.28 91.79 95.10 91.06 C 94.47 90.67 93.83 74.35 93.39 47.22 L 92.68 4.00 L 90.09 4.00 L 87.50 4.00 L 87.76 46.90 L 88.03 89.80 L 85.26 89.70 C 83.74 89.65 64.84 89.69 43.25 89.80 L 4.00 90.00 L 4.00 93.00 L 4.00 96.00 L 48.75 95.98 C 73.36 95.98 93.95 95.64 94.50 95.23 Z" fill="none" stroke="rgba(255,255,255,0.92)" stroke-width="1.2" stroke-linejoin="round" fill-rule="evenodd"/>
</svg>
