<svg xmlns="http://www.w3.org/2000/svg" viewBox="0 0 400 321" width="400" height="321">
  <path d="M 0.00 306.55 L 0.00 292.09 L 3.75 291.05 C 8.93 289.61 9.69 289.72 10.27 291.94 C 10.65 293.38 11.35 293.72 13.03 293.28 C 15.24 292.70 15.27 292.51 14.73 280.60 C 14.03 264.88 13.31 263.00 8.02 263.00 C 4.67 263.00 4.00 262.67 4.00 261.00 C 4.00 259.89 4.67 259.00 5.50 259.00 C 6.33 259.00 7.00 258.53 7.00 257.95 C 7.00 257.30 5.69 257.16 3.50 257.57 L 0.00 258.22 L 0.00 129.11 L 0.00 0.00 L 200.00 0.00 L 400.00 0.00 L 400.00 160.50 L 400.00 321.00 L 214.25 320.99 L 28.50 320.98 L 26.82 316.99 C 25.81 314.57 24.48 313.00 23.46 313.00 C 21.74 313.00 21.75 315.14 23.48 319.25 C 24.16 320.86 23.25 321.00 12.11 321.00 L 0.00 321.00 L 0.00 306.55 Z M 299.00 315.58 C 301.48 315.41 304.62 314.94 306.00 314.55 C 307.80 314.03 308.10 314.11 307.08 314.83 C 306.11 315.51 314.06 315.82 331.81 315.79 C 352.68 315.77 358.19 315.48 359.09 314.39 C 360.29 312.95 362.42 313.51 361.49 315.02 C 360.84 316.07 368.98 315.75 370.74 314.66 C 371.41 314.25 372.76 314.30 373.73 314.77 C 374.70 315.24 376.96 315.55 378.75 315.44 C 380.54 315.34 385.21 315.19 389.14 315.12 L 396.28 315.00 L 395.64 255.25 C 395.29 222.39 394.71 152.63 394.36 100.23 C 393.77 13.34 393.58 5.00 392.11 5.42 C 391.22 5.68 353.60 6.14 308.50 6.46 C 263.40 6.77 219.97 7.25 212.00 7.52 C 204.03 7.79 182.43 8.46 164.00 9.00 C 145.57 9.55 128.25 10.22 125.50 10.49 C 122.75 10.76 115.66 11.07 109.75 11.17 C 100.27 11.33 99.00 11.56 99.00 13.10 C 99.00 15.91 97.89 18.00 96.39 18.00 C 95.63 18.00 95.00 18.50 95.00 19.11 C 95.00 19.72 95.63 19.97 96.40 19.68 C 97.34 19.32 97.91 20.02 98.15 21.82 C 98.34 23.29 98.37 44.58 98.22 69.12 L 97.94 113.75 L 88.22 114.38 C 82.87 114.72 74.22 115.25 69.00 115.55 C 63.77 115.85 56.80 116.29 53.50 116.52 C 50.20 116.76 40.75 117.24 32.50 117.59 C 13.98 118.36 12.67 118.49 12.30 119.61 C 12.13 120.10 15.15 120.50 19.00 120.50 C 22.85 120.50 26.00 120.23 26.00 119.91 C 26.00 119.58 30.57 119.23 36.16 119.12 C 41.75 119.01 46.59 118.75 46.91 118.55 C 47.24 118.35 54.48 117.90 63.00 117.54 C 83.11 116.70 92.08 116.07 93.15 115.41 C 93.63 115.11 94.92 115.16 96.02 115.51 C 97.99 116.13 98.02 116.90 97.76 164.08 L 97.50 212.01 L 82.00 212.49 C 73.47 212.76 62.90 213.20 58.50 213.46 C 54.10 213.73 41.39 214.22 30.25 214.55 C 10.05 215.15 10.00 215.15 10.00 213.02 C 10.00 211.84 9.55 211.16 9.00 211.50 C 8.45 211.84 8.00 213.26 8.00 214.65 C 8.00 217.10 8.19 217.17 13.50 216.84 C 16.53 216.65 19.00 216.86 19.00 217.31 C 19.00 217.75 19.48 217.82 20.07 217.46 C 21.67 216.47 34.94 216.10 35.52 217.03 C 35.79 217.47 37.47 217.45 39.26 216.98 C 41.04 216.51 44.08 216.25 46.00 216.39 C 47.92 216.54 50.46 216.31 51.62 215.90 C 52.89 215.45 54.22 215.62 54.91 216.31 C 55.77 217.17 56.27 217.18 56.79 216.36 C 57.24 215.66 61.42 215.21 68.00 215.16 C 73.78 215.11 78.50 215.03 78.50 214.98 C 78.50 214.93 82.20 214.71 86.73 214.49 C 93.15 214.18 95.29 214.43 96.48 215.62 C 97.78 216.92 98.00 222.05 98.00 251.41 C 98.00 270.26 98.30 292.50 98.66 300.83 L 99.31 315.97 L 133.41 316.33 C 168.14 316.69 290.82 316.13 299.00 315.58 Z M 297.50 314.00 C 297.16 313.45 297.36 313.00 297.94 313.00 C 298.52 313.00 299.00 313.45 299.00 314.00 C 299.00 314.55 298.80 315.00 298.56 315.00 C 298.32 315.00 297.84 314.55 297.50 314.00 Z M 145.38 310.24 L 105.27 309.98 L 104.63 305.35 C 104.29 302.80 104.00 239.45 104.00 164.56 L 104.00 28.40 L 119.25 27.19 C 127.64 26.53 143.50 25.76 154.50 25.48 C 165.50 25.19 178.44 24.73 183.25 24.45 L 192.00 23.93 L 192.00 119.97 L 192.00 216.00 L 227.25 216.21 C 246.64 216.33 265.88 216.30 270.00 216.15 C 274.12 216.00 279.76 216.15 282.53 216.48 L 287.56 217.09 L 287.78 263.54 L 288.01 310.00 L 260.25 310.12 C 244.99 310.18 221.93 310.29 209.00 310.37 C 196.07 310.44 167.45 310.38 145.38 310.24 Z M 293.66 283.63 C 292.85 250.36 292.81 219.20 293.58 215.37 C 294.10 212.76 294.55 212.48 298.59 212.32 C 301.54 212.21 302.80 212.51 302.36 213.23 C 301.94 213.91 302.16 214.02 302.96 213.53 C 303.68 213.08 304.56 213.28 305.00 214.00 C 305.46 214.74 306.31 214.93 307.09 214.45 C 307.81 214.00 309.32 213.54 310.45 213.42 C 311.58 213.30 313.62 212.90 315.00 212.52 C 317.03 211.96 317.22 212.05 316.00 212.99 C 314.79 213.94 315.05 214.04 317.33 213.54 C 319.18 213.14 319.94 213.28 319.52 213.96 C 319.17 214.53 319.36 215.00 319.94 215.00 C 320.52 215.00 321.00 214.60 321.00 214.11 C 321.00 212.75 327.40 212.10 328.25 213.38 C 328.77 214.16 329.23 214.18 329.75 213.44 C 330.67 212.14 342.04 212.12 341.24 213.42 C 340.91 213.96 341.46 214.01 342.59 213.53 C 343.64 213.08 345.62 212.62 347.00 212.49 C 348.38 212.37 348.71 212.46 347.75 212.70 C 346.79 212.94 346.00 213.61 346.00 214.19 C 346.00 214.78 346.97 214.97 348.25 214.63 C 349.49 214.30 351.40 214.01 352.50 214.00 C 354.16 213.97 354.24 213.80 353.00 213.00 C 351.60 212.09 352.48 211.91 359.00 211.75 C 359.27 211.74 361.07 212.02 363.00 212.37 C 365.22 212.77 365.99 212.67 365.10 212.10 C 364.13 211.48 364.82 211.20 367.35 211.20 C 369.54 211.20 370.75 211.60 370.37 212.21 C 369.98 212.84 370.63 212.96 372.12 212.53 C 373.43 212.15 375.23 211.64 376.12 211.39 C 377.29 211.07 377.92 211.83 378.37 214.10 C 378.72 215.83 379.00 238.12 379.00 263.62 L 379.00 310.00 L 366.75 310.09 C 360.01 310.14 340.96 310.27 324.41 310.38 L 294.31 310.58 L 293.66 283.63 Z M -0.00 286.66 C -0.00 283.74 0.43 283.15 3.25 282.25 L 6.50 281.20 L 3.40 281.10 L 0.30 281.00 L 0.18 273.75 C 0.09 268.78 0.35 266.97 1.01 268.00 C 1.54 268.82 1.98 270.65 1.98 272.06 C 2.00 275.22 3.85 277.72 6.50 278.17 C 8.06 278.44 8.57 279.43 8.80 282.69 C 9.13 287.16 8.33 288.05 2.75 289.38 C 0.16 290.00 -0.00 289.84 -0.00 286.66 Z M 55.03 286.49 C 57.88 285.74 60.42 284.91 60.68 284.65 C 60.94 284.40 60.84 282.09 60.45 279.54 C 59.81 275.25 59.55 274.91 57.13 275.20 C 54.73 275.47 54.50 275.89 54.50 279.99 L 54.50 284.49 L 48.64 285.31 C 41.00 286.37 40.00 285.91 40.00 281.27 C 40.00 279.19 39.58 276.03 39.07 274.24 C 38.23 271.30 38.34 270.99 40.32 270.92 C 48.16 270.62 53.85 268.50 54.53 265.62 C 54.80 264.46 55.13 261.27 55.26 258.54 C 55.55 252.44 55.08 252.27 42.68 254.05 L 33.78 255.32 L 34.22 260.64 C 34.54 264.54 34.36 265.71 33.53 265.02 C 32.90 264.50 28.65 264.16 24.08 264.26 L 15.76 264.43 L 16.26 271.39 C 16.89 280.19 18.20 281.41 26.00 280.48 C 29.02 280.12 31.84 279.50 32.26 279.10 C 32.68 278.70 33.41 275.70 33.89 272.44 C 34.71 266.79 34.76 267.03 34.88 277.17 C 34.96 284.64 35.37 288.00 36.25 288.38 C 38.06 289.18 49.01 288.08 55.03 286.49 Z M 82.99 286.10 C 87.13 285.29 88.97 282.32 88.97 276.50 C 88.97 269.12 89.97 269.36 68.64 271.64 L 62.78 272.27 L 63.20 278.10 C 63.80 286.35 65.33 287.74 73.24 287.21 C 76.68 286.98 81.07 286.48 82.99 286.10 Z M 69.51 282.36 C 69.17 280.24 68.69 277.53 68.45 276.35 C 68.06 274.43 68.63 274.09 73.76 273.20 C 76.92 272.65 79.84 272.41 80.25 272.66 C 80.66 272.91 81.00 275.79 81.00 279.06 C 81.00 284.65 80.86 285.00 78.62 285.00 C 77.32 285.00 74.87 285.28 73.19 285.61 C 70.27 286.20 70.10 286.05 69.51 282.36 Z M 21.63 276.75 C 21.30 275.51 21.02 272.59 21.01 270.25 C 21.00 266.19 21.14 266.00 24.00 266.00 L 27.00 266.00 L 27.00 272.50 C 27.00 278.68 26.88 279.00 24.62 279.00 C 22.99 279.00 22.04 278.29 21.63 276.75 Z M 5.63 272.09 C 5.29 269.94 4.73 267.46 4.40 266.59 C 3.99 265.54 4.34 265.00 5.39 265.00 C 6.28 265.00 7.00 265.79 7.01 266.75 C 7.02 267.71 7.30 270.19 7.64 272.25 C 8.01 274.50 7.86 276.00 7.26 276.00 C 6.71 276.00 5.97 274.24 5.63 272.09 Z M 38.63 266.75 C 37.68 263.20 37.90 257.00 38.98 257.00 C 40.05 257.00 40.71 259.41 41.25 265.25 C 41.64 269.42 39.65 270.55 38.63 266.75 Z M 44.36 262.50 L 43.39 256.00 L 46.19 256.00 C 48.95 256.00 49.00 256.10 49.00 261.89 C 49.00 267.28 48.17 269.00 45.58 269.00 C 45.44 269.00 44.89 266.07 44.36 262.50 Z M 90.51 265.98 C 90.86 265.42 90.40 262.72 89.49 259.98 C 87.93 255.27 87.65 255.00 84.35 255.00 C 81.16 255.00 80.88 255.23 81.18 257.64 C 81.48 260.12 81.08 260.40 75.01 262.07 C 71.44 263.05 68.38 263.72 68.22 263.55 C 67.77 263.11 71.93 252.82 73.60 250.23 C 74.90 248.23 74.89 247.90 73.53 247.38 C 72.69 247.05 71.35 247.03 70.56 247.34 C 68.96 247.95 62.00 261.79 62.00 264.35 C 62.00 266.51 65.45 266.51 74.78 264.32 C 82.03 262.63 82.07 262.63 84.25 264.81 C 86.58 267.13 89.47 267.67 90.51 265.98 Z M 0.19 262.50 C 0.22 260.85 0.44 260.30 0.69 261.27 C 0.95 262.24 0.93 263.59 0.66 264.27 C 0.38 264.95 0.17 264.15 0.19 262.50 Z M 6.64 122.29 C 6.76 42.17 7.02 25.61 8.14 24.89 C 8.89 24.42 12.61 24.02 16.42 24.02 C 20.22 24.01 23.04 23.71 22.69 23.36 C 22.34 23.01 18.21 22.67 13.52 22.61 L 5.00 22.50 L 5.01 68.00 C 5.02 93.03 4.98 135.55 4.92 162.50 C 4.81 220.96 4.80 220.53 5.75 219.58 C 6.16 219.17 6.56 175.39 6.64 122.29 Z M 293.48 209.96 C 293.29 209.66 293.11 187.61 293.08 160.96 L 293.01 112.50 L 334.75 112.34 C 365.39 112.23 376.69 112.50 377.23 113.34 C 377.88 114.36 378.39 208.95 377.75 209.03 C 376.84 209.14 320.74 210.21 308.65 210.34 C 300.49 210.43 293.66 210.26 293.48 209.96 Z M 198.00 116.00 L 198.00 22.00 L 212.75 21.88 C 231.08 21.73 251.54 21.94 264.00 22.40 C 270.89 22.65 271.99 22.55 268.00 22.04 C 263.50 21.46 264.62 21.31 274.21 21.17 C 284.87 21.02 286.02 21.18 286.96 22.93 C 287.63 24.18 288.00 40.16 288.00 67.95 L 288.00 111.02 L 255.05 110.79 C 236.93 110.66 221.78 110.88 221.39 111.28 C 220.55 112.12 218.02 112.05 257.82 112.30 L 289.15 112.50 L 288.57 115.37 C 288.26 116.96 288.00 138.89 288.00 164.12 L 288.00 210.00 L 243.00 210.00 L 198.00 210.00 L 198.00 116.00 Z M 290.08 204.42 C 290.13 203.25 290.36 203.01 290.68 203.81 C 290.97 204.53 290.94 205.40 290.60 205.73 C 290.27 206.06 290.04 205.47 290.08 204.42 Z M 290.07 179.75 C 290.12 176.74 290.36 176.06 290.90 177.43 C 291.60 179.24 291.23 184.00 290.38 184.00 C 290.17 184.00 290.03 182.09 290.07 179.75 Z M 290.08 168.42 C 290.13 167.25 290.36 167.01 290.68 167.81 C 290.97 168.53 290.94 169.40 290.60 169.73 C 290.27 170.06 290.04 169.47 290.08 168.42 Z M 291.12 160.33 C 291.05 159.69 290.71 158.34 290.35 157.33 C 289.85 155.91 289.98 155.76 290.95 156.64 C 291.63 157.27 291.97 158.62 291.71 159.64 C 291.45 160.66 291.18 160.97 291.12 160.33 Z M 290.00 139.11 C 290.00 130.18 290.34 123.09 290.75 123.35 C 291.59 123.86 291.37 153.97 290.52 154.81 C 290.24 155.10 290.00 148.03 290.00 139.11 Z M 10.00 117.44 C 10.00 116.65 9.55 116.00 9.00 116.00 C 8.45 116.00 8.00 116.93 8.00 118.06 C 8.00 119.19 8.45 119.84 9.00 119.50 C 9.55 119.16 10.00 118.23 10.00 117.44 Z M 290.08 118.42 C 290.13 117.25 290.36 117.01 290.68 117.81 C 290.97 118.53 290.94 119.40 290.60 119.73 C 290.27 120.06 290.04 119.47 290.08 118.42 Z M 290.50 114.00 C 290.84 113.45 291.32 113.00 291.56 113.00 C 291.80 113.00 292.00 113.45 292.00 114.00 C 292.00 114.55 291.52 115.00 290.94 115.00 C 290.36 115.00 290.16 114.55 290.50 114.00 Z M 220.00 111.91 C 220.00 110.68 217.67 110.37 210.00 110.59 C 200.07 110.87 200.00 110.88 200.00 111.75 C 200.00 112.16 204.50 112.53 210.00 112.56 C 215.50 112.59 220.00 112.30 220.00 111.91 Z M 290.00 110.94 C 290.00 110.36 290.45 110.16 291.00 110.50 C 291.55 110.84 292.00 111.32 292.00 111.56 C 292.00 111.80 291.55 112.00 291.00 112.00 C 290.45 112.00 290.00 111.52 290.00 110.94 Z M 293.64 111.31 C 293.29 110.95 293.00 90.76 293.00 66.44 C 293.00 27.03 293.17 22.15 294.58 21.61 C 296.71 20.79 364.06 20.83 371.91 21.65 L 378.11 22.30 L 377.98 61.40 C 377.90 82.90 377.61 102.76 377.33 105.53 L 376.83 110.55 L 336.18 110.86 C 313.83 111.03 295.25 111.34 294.91 111.56 C 294.56 111.77 293.99 111.66 293.64 111.31 Z M 289.79 105.00 C 290.03 103.35 290.40 102.00 290.61 102.00 C 290.83 102.00 291.00 103.35 291.00 105.00 C 291.00 106.65 290.63 108.00 290.17 108.00 C 289.72 108.00 289.54 106.65 289.79 105.00 Z M 289.64 99.50 C 289.95 98.67 290.39 98.00 290.61 98.00 C 290.82 98.00 291.00 98.67 291.00 99.50 C 291.00 100.33 290.56 101.00 290.03 101.00 C 289.50 101.00 289.32 100.33 289.64 99.50 Z M 290.00 94.44 C 290.00 93.58 290.46 93.16 291.02 93.51 C 291.58 93.86 291.77 94.56 291.46 95.07 C 290.60 96.46 290.00 96.20 290.00 94.44 Z M 290.08 90.42 C 290.13 89.25 290.36 89.01 290.68 89.81 C 290.97 90.53 290.94 91.40 290.60 91.73 C 290.27 92.06 290.04 91.47 290.08 90.42 Z M 290.19 85.50 C 290.22 83.85 290.44 83.30 290.69 84.27 C 290.95 85.24 290.93 86.59 290.66 87.27 C 290.38 87.95 290.17 87.15 290.19 85.50 Z M 290.23 79.00 C 290.23 77.08 290.44 76.29 290.69 77.25 C 290.94 78.21 290.94 79.79 290.69 80.75 C 290.44 81.71 290.23 80.92 290.23 79.00 Z M 289.71 65.00 C 290.00 63.90 290.41 63.00 290.62 63.00 C 290.83 63.00 291.00 63.90 291.00 65.00 C 291.00 66.10 290.59 67.00 290.09 67.00 C 289.60 67.00 289.42 66.10 289.71 65.00 Z M 290.25 47.50 C 290.26 45.30 290.47 44.52 290.71 45.76 C 290.95 47.01 290.94 48.81 290.69 49.76 C 290.44 50.72 290.24 49.70 290.25 47.50 Z M 289.65 35.77 C 288.65 27.45 288.84 23.78 290.23 24.24 C 291.11 24.54 291.37 26.95 291.14 32.58 C 290.96 36.93 290.69 40.62 290.55 40.77 C 290.40 40.93 290.00 38.68 289.65 35.77 Z M 170.27 23.31 C 171.24 23.05 172.59 23.07 173.27 23.34 C 173.95 23.62 173.15 23.83 171.50 23.81 C 169.85 23.78 169.30 23.56 170.27 23.31 Z M 25.73 22.40 C 25.40 22.06 24.53 22.03 23.81 22.32 C 23.01 22.64 23.25 22.87 24.42 22.92 C 25.47 22.96 26.06 22.73 25.73 22.40 Z M 46.00 22.00 C 47.06 21.31 45.83 21.03 41.75 21.02 C 38.57 21.01 36.00 21.45 36.00 22.00 C 36.00 23.28 44.02 23.28 46.00 22.00 Z M 330.76 22.31 C 329.81 22.06 328.01 22.05 326.76 22.29 C 325.52 22.53 326.30 22.74 328.50 22.75 C 330.70 22.76 331.72 22.56 330.76 22.31 Z M 59.00 21.02 C 59.00 19.94 49.45 20.21 48.35 21.32 C 47.97 21.69 50.22 22.00 53.33 22.00 C 56.45 22.00 59.00 21.56 59.00 21.02 Z M 69.64 21.00 C 72.91 21.00 74.88 20.61 74.52 20.03 C 74.19 19.50 71.80 19.26 69.21 19.49 C 66.62 19.72 63.71 19.93 62.75 19.95 C 61.79 19.98 61.00 20.50 61.00 21.11 C 61.00 21.72 61.71 21.94 62.58 21.61 C 63.45 21.27 66.63 21.00 69.64 21.00 Z M 91.91 18.99 C 92.68 18.58 91.10 18.36 88.41 18.50 C 85.71 18.64 81.56 18.81 79.19 18.88 C 76.78 18.95 75.14 19.42 75.46 19.94 C 76.10 20.98 89.63 20.19 91.91 18.99 Z" fill="none" stroke="rgba(255,255,255,0.92)" stroke-width="1.5" stroke-linejoin="round" fill-rule="evenodd"/>
</svg>
