<svg xmlns="http://www.w3.org/2000/svg" viewBox="0 0 100 100" width="100" height="100">
  <path d="M 0.00 50.00 L 0.00 0.00 L 50.00 0.00 L 100.00 0.00 L 100.00 50.00 L 100.00 100.00 L 50.00 100.00 L 0.00 100.00 L 0.00 50.00 Z M 96.00 51.40 L 96.00 6.80 L 89.25 7.38 C 85.54 7.70 71.47 8.23 58.00 8.56 C 44.52 8.88 27.43 9.56 20.00 10.07 C 12.57 10.57 5.94 10.99 5.25 10.99 C 4.36 11.00 4.00 13.19 4.00 18.57 L 4.00 26.15 L 12.75 25.68 C 17.56 25.43 36.35 24.70 54.50 24.06 C 72.65 23.42 88.40 22.81 89.50 22.70 C 91.46 22.50 91.50 23.18 91.76 59.25 C 92.02 95.17 92.07 96.00 94.01 96.00 C 95.97 96.00 96.00 95.24 96.00 51.40 Z" fill="none" stroke="rgba(255,255,255,0.92)" stroke-width="1.2" stroke-linejoin="round" fill-rule="evenodd"/>
</svg>
