<svg xmlns="http://www.w3.org/2000/svg" viewBox="0 0 100 100" width="100" height="100">
  <path d="M 0.00 50.00 L 0.00 0.00 L 50.00 0.00 L 100.00 0.00 L 100.00 50.00 L 100.00 100.00 L 50.00 100.00 L 0.00 100.00 L 0.00 50.00 Z M 21.97 82.25 C 21.84 74.69 21.79 68.23 21.86 67.91 C 21.94 67.59 28.54 73.77 36.54 81.66 C 50.60 95.52 51.23 96.00 55.28 96.00 L 59.48 96.00 L 43.52 80.02 L 27.55 64.03 L 31.95 59.55 L 36.34 55.08 L 40.17 58.54 C 44.32 62.28 45.40 62.56 49.68 60.94 C 55.71 58.66 61.77 50.35 60.35 46.31 C 60.00 45.31 58.20 42.91 56.36 40.96 L 53.00 37.42 L 57.98 32.52 C 60.72 29.83 63.17 27.82 63.44 28.06 C 63.71 28.30 71.14 35.69 79.96 44.48 L 96.00 60.46 L 96.00 56.17 C 96.00 51.96 95.72 51.61 81.00 37.24 C 72.75 29.18 66.00 22.23 66.00 21.80 C 66.00 21.36 72.75 21.00 81.00 21.00 L 96.00 21.00 L 96.00 13.00 L 96.00 5.00 L 63.25 5.00 C 45.24 5.01 24.76 5.30 17.75 5.66 L 5.00 6.31 L 5.00 51.15 L 5.00 96.00 L 13.61 96.00 L 22.22 96.00 L 21.97 82.25 Z M 85.73 85.77 C 95.70 75.83 96.00 75.41 96.00 71.06 L 96.00 66.58 L 90.21 72.54 C 87.03 75.82 80.65 82.44 76.04 87.25 L 67.65 96.00 L 71.56 96.00 C 75.18 96.00 76.22 95.25 85.73 85.77 Z M 76.76 83.01 C 81.66 80.01 83.99 75.48 84.00 68.90 C 84.00 64.84 83.48 62.71 82.11 61.12 C 81.06 59.92 79.92 57.38 79.56 55.47 C 78.98 52.37 77.00 50.47 77.00 53.00 C 77.00 55.53 75.00 53.57 73.45 49.52 C 71.49 44.38 70.52 44.43 69.52 49.72 C 69.14 51.78 68.39 54.27 67.86 55.25 C 66.99 56.88 66.67 56.76 64.33 53.98 C 62.91 52.29 61.52 51.14 61.25 51.42 C 60.97 51.70 60.58 53.81 60.39 56.11 C 59.98 60.91 59.27 62.06 58.00 60.00 C 56.31 57.27 55.50 60.19 55.50 68.98 C 55.50 76.38 55.82 78.15 57.50 80.03 C 62.01 85.09 71.06 86.48 76.76 83.01 Z M 63.50 79.85 C 60.41 78.15 59.00 75.90 59.00 72.62 C 59.00 69.77 59.07 69.71 60.47 71.56 C 61.85 73.39 61.94 73.30 61.98 70.00 C 62.01 68.08 62.31 65.46 62.65 64.19 C 63.21 62.08 63.44 62.26 65.28 66.19 L 67.30 70.50 L 68.10 66.26 C 69.48 58.88 70.72 57.89 71.49 63.54 C 72.44 70.58 72.65 70.89 74.00 67.25 C 75.56 63.01 77.00 63.10 77.00 67.44 C 77.00 71.19 78.70 73.08 80.10 70.88 C 80.77 69.81 80.97 69.79 80.98 70.80 C 81.01 73.01 78.13 77.80 75.78 79.44 C 73.22 81.23 66.44 81.46 63.50 79.85 Z M 21.00 51.00 C 21.00 45.50 21.34 41.01 21.75 41.03 C 22.57 41.06 28.67 46.60 30.91 49.36 C 32.18 50.92 31.82 51.61 27.45 56.05 C 24.77 58.77 22.22 61.00 21.79 61.00 C 21.35 61.00 21.00 56.50 21.00 51.00 Z M 32.23 42.09 C 24.40 34.43 18.00 27.77 18.00 27.29 C 18.00 26.80 19.78 24.67 21.96 22.54 L 25.91 18.68 L 40.46 33.02 C 48.46 40.91 55.00 47.78 55.00 48.28 C 55.00 49.45 48.49 56.00 47.33 56.00 C 46.85 56.00 40.06 49.74 32.23 42.09 Z M 43.00 27.50 L 37.57 22.00 L 45.03 21.84 C 49.14 21.75 54.21 21.57 56.30 21.44 C 58.39 21.31 59.97 21.54 59.80 21.96 C 59.19 23.49 50.16 33.00 49.31 33.00 C 48.83 33.00 45.99 30.52 43.00 27.50 Z" fill="none" stroke="rgba(255,255,255,0.92)" stroke-width="1.2" stroke-linejoin="round" fill-rule="evenodd"/>
</svg>
