<svg xmlns="http://www.w3.org/2000/svg" viewBox="0 0 400 290" width="400" height="290">
  <path d="M 0.00 145.00 L 0.00 0.00 L 200.00 0.00 L 400.00 0.00 L 400.00 145.00 L 400.00 290.00 L 200.00 290.00 L 0.00 290.00 L 0.00 145.00 Z M 255.50 283.50 C 320.40 283.26 378.11 283.08 383.75 283.08 L 394.00 283.10 L 394.08 279.30 C 394.27 269.91 393.17 69.24 392.71 31.30 C 392.56 18.54 392.15 7.82 391.80 7.47 C 391.09 6.76 339.68 6.78 307.50 7.50 C 205.03 9.79 102.54 11.84 50.22 12.65 L 6.94 13.32 L 7.22 24.41 L 7.50 35.50 L 10.89 35.34 C 12.75 35.25 14.57 34.70 14.93 34.11 C 15.29 33.53 19.08 32.87 23.34 32.64 C 29.39 32.33 31.44 32.58 32.64 33.78 C 33.74 34.88 34.38 35.00 34.88 34.19 C 35.70 32.87 37.92 32.56 43.50 33.00 L 47.50 33.31 L 42.50 34.06 C 39.16 34.55 40.99 34.67 48.00 34.41 C 53.78 34.20 75.22 33.75 95.66 33.42 L 132.81 32.81 L 132.94 66.65 C 133.02 85.27 133.23 110.67 133.41 123.10 L 133.75 145.70 L 115.12 146.29 C 98.26 146.82 81.76 147.04 32.00 147.38 C 15.73 147.50 15.50 147.47 15.19 145.31 C 14.99 143.95 14.36 143.31 13.53 143.63 C 12.44 144.04 12.17 141.62 12.14 131.18 C 12.11 124.06 11.80 117.04 11.44 115.60 C 11.07 114.16 11.25 112.40 11.83 111.70 C 12.50 110.90 12.54 109.89 11.96 108.97 C 10.55 106.74 10.81 106.00 13.00 106.00 C 15.52 106.00 15.55 104.80 13.07 102.57 C 11.28 100.94 11.13 99.09 10.96 75.16 C 10.85 61.05 10.67 48.15 10.56 46.50 C 10.44 44.85 10.27 42.26 10.17 40.75 C 10.08 39.24 9.51 38.00 8.90 38.00 C 7.96 38.00 8.05 77.66 9.19 165.50 C 9.20 166.05 9.13 172.12 9.05 179.00 C 8.97 185.88 9.20 205.90 9.56 223.50 C 9.93 241.10 10.34 262.02 10.48 270.00 C 10.62 277.98 10.79 284.59 10.86 284.71 C 10.94 284.82 39.46 284.69 74.25 284.42 C 109.04 284.14 190.60 283.73 255.50 283.50 Z M 135.00 282.00 C 135.00 281.45 135.48 281.00 136.06 281.00 C 136.64 281.00 136.84 281.45 136.50 282.00 C 136.16 282.55 135.68 283.00 135.44 283.00 C 135.20 283.00 135.00 282.55 135.00 282.00 Z M 222.62 281.46 C 221.75 279.19 221.81 279.00 223.41 279.00 C 224.19 279.00 224.73 279.66 224.61 280.47 C 224.27 282.77 223.31 283.25 222.62 281.46 Z M 126.64 280.50 C 126.95 279.68 127.60 279.00 128.08 279.00 C 128.55 279.00 128.68 279.68 128.36 280.50 C 128.05 281.32 127.40 282.00 126.92 282.00 C 126.45 282.00 126.32 281.32 126.64 280.50 Z M 216.00 281.00 C 217.96 279.74 220.00 279.74 220.00 281.00 C 220.00 281.55 218.76 281.99 217.25 281.98 C 215.11 281.97 214.83 281.76 216.00 281.00 Z M 232.51 280.98 C 232.86 280.42 233.56 280.23 234.07 280.54 C 235.46 281.40 235.20 282.00 233.44 282.00 C 232.58 282.00 232.16 281.54 232.51 280.98 Z M 109.00 280.00 C 107.79 279.22 107.95 279.03 109.81 279.02 C 111.10 279.01 111.84 279.44 111.50 280.00 C 110.76 281.20 110.86 281.20 109.00 280.00 Z M 112.81 280.32 C 113.53 280.03 114.40 280.06 114.73 280.40 C 115.06 280.73 114.47 280.96 113.42 280.92 C 112.25 280.87 112.01 280.64 112.81 280.32 Z M 202.84 279.76 C 204.04 278.56 210.90 278.50 212.08 279.68 C 212.59 280.19 210.62 280.60 207.42 280.65 C 203.87 280.70 202.22 280.38 202.84 279.76 Z M 256.50 280.00 C 256.16 279.45 256.56 279.00 257.38 279.00 C 258.21 279.00 259.16 279.45 259.50 280.00 C 259.84 280.55 259.44 281.00 258.62 281.00 C 257.79 281.00 256.84 280.55 256.50 280.00 Z M 179.81 279.32 C 180.53 279.03 181.40 279.06 181.73 279.40 C 182.06 279.73 181.47 279.96 180.42 279.92 C 179.25 279.87 179.01 279.64 179.81 279.32 Z M 185.75 279.34 C 186.44 279.06 187.56 279.06 188.25 279.34 C 188.94 279.62 188.38 279.84 187.00 279.84 C 185.62 279.84 185.06 279.62 185.75 279.34 Z M 195.25 279.31 C 196.21 279.06 197.79 279.06 198.75 279.31 C 199.71 279.56 198.93 279.77 197.00 279.77 C 195.07 279.77 194.29 279.56 195.25 279.31 Z M 234.75 279.34 C 235.44 279.06 236.56 279.06 237.25 279.34 C 237.94 279.62 237.38 279.84 236.00 279.84 C 234.62 279.84 234.06 279.62 234.75 279.34 Z M 306.27 279.31 C 307.24 279.05 308.59 279.07 309.27 279.34 C 309.95 279.62 309.15 279.83 307.50 279.81 C 305.85 279.78 305.30 279.56 306.27 279.31 Z M 17.25 277.40 C 16.46 277.04 16.24 275.90 16.65 274.27 C 17.09 272.49 16.94 271.92 16.16 272.40 C 15.36 272.89 15.22 272.15 15.67 269.89 C 16.13 267.60 15.98 266.89 15.16 267.40 C 14.41 267.87 14.01 267.30 14.02 265.81 C 14.03 263.99 14.23 263.82 14.96 264.97 C 16.56 267.50 17.30 263.67 16.21 258.54 C 15.68 256.04 15.53 254.00 15.87 254.00 C 16.37 254.00 16.43 223.88 15.96 214.50 C 15.86 212.55 15.84 212.55 15.10 214.43 C 13.84 217.66 13.01 214.71 12.98 206.86 C 12.91 192.75 13.06 190.58 14.13 189.92 C 14.89 189.45 14.86 189.03 14.03 188.52 C 13.34 188.09 13.09 186.77 13.44 185.39 C 13.77 184.08 13.67 183.00 13.23 183.00 C 12.78 183.00 12.48 180.64 12.56 177.75 C 12.76 170.38 12.87 169.80 14.00 170.50 C 15.40 171.37 15.19 169.83 13.61 167.76 C 11.99 165.62 11.51 153.42 13.01 152.49 C 13.60 152.13 15.18 152.54 16.51 153.41 C 17.84 154.29 19.67 155.00 20.58 155.00 C 21.87 155.00 21.71 154.57 19.86 152.98 L 17.50 150.97 L 20.50 151.63 C 22.15 152.00 24.47 152.65 25.66 153.09 C 27.23 153.66 28.00 153.45 28.43 152.33 C 28.88 151.15 29.90 150.93 32.76 151.41 C 37.07 152.14 36.75 152.13 50.25 152.22 C 65.67 152.32 74.12 152.09 78.00 151.44 C 81.31 150.89 81.39 150.94 79.50 152.40 C 77.66 153.81 78.30 153.93 87.50 153.85 C 93.00 153.80 98.85 153.42 100.50 153.00 L 103.50 152.24 L 100.50 152.05 C 97.77 151.89 97.69 151.80 99.65 151.00 C 102.37 149.91 106.81 150.87 104.83 152.12 C 103.90 152.71 104.33 153.02 106.25 153.13 C 107.76 153.23 109.56 153.34 110.25 153.40 C 110.94 153.46 111.39 152.94 111.25 152.25 C 110.95 150.76 115.59 150.54 116.50 152.00 C 116.84 152.55 120.71 153.00 125.09 153.00 C 130.58 153.00 133.19 153.39 133.48 154.25 C 133.92 155.60 135.46 268.32 135.12 274.71 L 135.00 276.93 L 91.75 276.97 C 67.96 276.99 41.75 277.23 33.50 277.49 C 25.25 277.76 17.94 277.72 17.25 277.40 Z M 145.75 276.18 C 143.90 275.97 142.84 275.16 142.48 273.68 C 142.20 272.48 141.75 254.85 141.50 234.50 C 141.24 214.15 140.91 194.80 140.76 191.50 C 140.62 188.20 140.84 184.99 141.27 184.37 C 142.38 182.76 140.33 177.94 138.78 178.53 C 137.89 178.87 137.50 177.97 137.51 175.58 C 137.52 173.69 137.79 171.88 138.11 171.55 C 138.44 171.23 138.49 168.72 138.22 165.98 C 137.91 162.67 138.12 161.00 138.87 161.00 C 139.50 161.00 140.00 159.41 140.00 157.44 C 140.00 155.17 139.61 154.12 138.93 154.54 C 138.34 154.91 138.11 155.83 138.40 156.60 C 138.70 157.37 138.53 158.00 138.03 158.00 C 136.32 158.00 135.93 156.08 137.22 154.01 C 138.33 152.20 139.15 152.01 143.50 152.54 C 146.25 152.87 149.62 152.69 151.00 152.14 C 153.15 151.27 152.74 151.12 148.08 151.06 C 135.35 150.91 149.74 149.29 166.50 148.99 C 170.80 148.91 174.18 149.90 173.48 151.03 C 173.15 151.56 173.36 152.00 173.94 152.00 C 174.52 152.00 175.00 151.60 175.00 151.12 C 175.00 150.63 175.79 149.96 176.75 149.62 C 177.71 149.28 179.18 148.72 180.00 148.37 C 181.21 147.87 181.26 148.00 180.25 149.08 C 177.97 151.49 178.94 151.95 186.16 151.88 C 190.10 151.85 192.76 151.47 192.08 151.05 C 190.36 149.99 195.71 149.01 199.36 149.72 C 200.93 150.02 202.50 149.83 202.86 149.28 C 203.94 147.62 212.47 147.14 215.11 148.60 L 217.50 149.93 L 215.19 149.96 C 213.90 149.98 213.16 150.45 213.50 151.01 C 213.87 151.60 219.35 151.98 226.96 151.93 C 238.88 151.86 239.84 151.71 240.32 149.88 C 240.80 148.05 241.40 147.95 248.40 148.59 C 252.78 148.98 256.50 148.87 257.23 148.33 C 257.93 147.80 259.96 147.40 261.75 147.44 C 263.54 147.47 265.00 147.14 265.00 146.69 C 265.00 146.25 265.47 146.17 266.04 146.53 C 266.61 146.88 266.82 147.98 266.51 148.97 C 266.05 150.43 266.60 150.85 269.42 151.18 C 272.18 151.50 272.68 151.32 271.83 150.29 C 271.00 149.30 271.30 149.00 273.13 149.02 C 275.03 149.03 275.20 149.22 274.00 150.00 C 272.98 150.66 275.73 150.92 282.50 150.81 C 292.49 150.65 292.49 150.65 285.50 150.00 L 278.50 149.35 L 287.05 149.18 C 292.74 149.06 296.04 149.42 296.93 150.25 C 297.99 151.25 298.34 151.25 298.71 150.25 C 298.96 149.56 299.83 149.00 300.64 149.00 C 301.45 149.00 301.84 149.45 301.50 150.00 C 301.09 150.66 310.09 151.03 327.69 151.08 C 363.22 151.18 368.33 151.04 369.45 149.93 C 370.71 148.70 372.28 148.73 371.52 149.98 C 371.14 150.58 373.60 150.93 377.91 150.88 C 381.75 150.85 385.26 151.04 385.70 151.31 C 386.14 151.59 386.50 179.64 386.50 213.65 L 386.50 275.50 L 373.00 275.66 C 356.90 275.85 276.00 276.17 271.00 276.07 L 267.50 276.00 L 267.38 239.75 C 267.11 158.08 266.73 149.40 263.47 150.65 C 261.69 151.33 261.48 149.39 263.25 148.62 C 263.94 148.32 263.15 148.35 261.50 148.68 C 257.45 149.49 256.55 150.10 258.05 151.03 C 259.01 151.62 259.39 160.20 259.64 187.65 C 259.83 207.37 260.15 235.31 260.35 249.75 L 260.72 276.00 L 255.11 276.01 C 252.03 276.01 226.78 276.12 199.00 276.26 C 171.22 276.39 147.26 276.36 145.75 276.18 Z M 263.00 275.06 C 263.00 274.54 263.45 273.84 264.00 273.50 C 264.55 273.16 265.00 273.58 265.00 274.44 C 265.00 275.30 264.55 276.00 264.00 276.00 C 263.45 276.00 263.00 275.58 263.00 275.06 Z M 390.67 274.33 C 390.30 273.97 390.00 273.20 390.00 272.63 C 390.00 272.01 390.47 272.07 391.18 272.78 C 391.83 273.43 392.13 274.20 391.85 274.48 C 391.57 274.77 391.03 274.70 390.67 274.33 Z M 138.73 262.40 C 138.33 261.99 138.00 260.98 138.00 260.13 C 138.00 259.01 138.30 258.90 139.11 259.71 C 139.72 260.32 140.05 261.34 139.84 261.98 C 139.63 262.61 139.13 262.80 138.73 262.40 Z M 263.00 261.44 C 263.00 260.58 263.45 260.16 264.00 260.50 C 264.55 260.84 265.00 261.54 265.00 262.06 C 265.00 262.58 264.55 263.00 264.00 263.00 C 263.45 263.00 263.00 262.30 263.00 261.44 Z M 390.19 260.50 C 390.22 258.85 390.44 258.30 390.69 259.27 C 390.95 260.24 390.93 261.59 390.66 262.27 C 390.38 262.95 390.17 262.15 390.19 260.50 Z M 390.67 255.33 C 390.30 254.97 390.00 254.20 390.00 253.63 C 390.00 253.01 390.47 253.07 391.18 253.78 C 391.83 254.43 392.13 255.20 391.85 255.48 C 391.57 255.77 391.03 255.70 390.67 255.33 Z M 263.64 252.50 C 263.95 251.68 264.39 251.00 264.61 251.00 C 264.82 251.00 265.00 251.68 265.00 252.50 C 265.00 253.32 264.56 254.00 264.03 254.00 C 263.50 254.00 263.32 253.32 263.64 252.50 Z M 138.08 251.42 C 138.13 250.25 138.36 250.01 138.68 250.81 C 138.97 251.53 138.94 252.40 138.60 252.73 C 138.27 253.06 138.04 252.47 138.08 251.42 Z M 13.03 248.55 C 13.01 246.40 13.30 245.90 14.10 246.70 C 14.89 247.49 14.90 248.33 14.13 249.65 C 13.19 251.27 13.06 251.14 13.03 248.55 Z M 138.00 242.73 C 138.00 240.74 138.42 238.86 138.94 238.54 C 139.50 238.19 139.65 239.48 139.30 241.73 C 138.52 246.75 138.00 247.15 138.00 242.73 Z M 13.61 243.42 C 12.67 240.98 12.89 238.00 14.00 238.00 C 14.55 238.00 15.00 239.57 15.00 241.50 C 15.00 245.29 14.56 245.90 13.61 243.42 Z M 390.19 241.50 C 390.22 239.85 390.44 239.30 390.69 240.27 C 390.95 241.24 390.93 242.59 390.66 243.27 C 390.38 243.95 390.17 243.15 390.19 241.50 Z M 263.60 239.40 C 263.24 238.47 263.18 237.49 263.45 237.21 C 263.73 236.94 264.24 237.47 264.60 238.40 C 264.96 239.33 265.02 240.31 264.75 240.59 C 264.47 240.86 263.96 240.33 263.60 239.40 Z M 138.02 234.25 C 138.01 232.46 138.45 231.00 139.00 231.00 C 140.27 231.00 140.27 234.03 139.00 236.00 C 138.26 237.14 138.03 236.72 138.02 234.25 Z M 390.50 235.00 C 390.84 234.45 391.32 234.00 391.56 234.00 C 391.80 234.00 392.00 234.45 392.00 235.00 C 392.00 235.55 391.52 236.00 390.94 236.00 C 390.36 236.00 390.16 235.55 390.50 235.00 Z M 12.73 234.40 C 11.94 233.60 12.90 220.00 13.88 218.26 C 14.29 217.51 14.68 220.97 14.74 225.95 C 14.83 234.23 14.40 236.06 12.73 234.40 Z M 138.21 221.00 C 138.21 214.18 138.30 213.84 139.20 217.25 C 139.86 219.74 139.86 222.26 139.20 224.75 C 138.30 228.16 138.21 227.82 138.21 221.00 Z M 390.08 223.42 C 390.13 222.25 390.36 222.01 390.68 222.81 C 390.97 223.53 390.94 224.40 390.60 224.73 C 390.27 225.06 390.04 224.47 390.08 223.42 Z M 262.62 216.46 C 262.28 215.57 262.05 213.64 262.10 212.17 C 262.18 210.02 262.38 210.26 263.12 213.40 C 264.05 217.40 263.74 219.37 262.62 216.46 Z M 390.16 212.00 C 390.16 210.62 390.38 210.06 390.66 210.75 C 390.94 211.44 390.94 212.56 390.66 213.25 C 390.38 213.94 390.16 213.38 390.16 212.00 Z M 138.00 212.00 C 138.00 211.45 138.45 211.00 139.00 211.00 C 139.55 211.00 140.00 211.45 140.00 212.00 C 140.00 212.55 139.55 213.00 139.00 213.00 C 138.45 213.00 138.00 212.55 138.00 212.00 Z M 16.10 206.70 C 15.30 205.90 15.01 206.40 15.03 208.55 C 15.06 211.14 15.19 211.27 16.13 209.65 C 16.90 208.33 16.89 207.49 16.10 206.70 Z M 138.16 207.00 C 138.16 205.62 138.38 205.06 138.66 205.75 C 138.94 206.44 138.94 207.56 138.66 208.25 C 138.38 208.94 138.16 208.38 138.16 207.00 Z M 264.08 204.42 C 264.13 203.25 264.36 203.01 264.68 203.81 C 264.97 204.53 264.94 205.40 264.60 205.73 C 264.27 206.06 264.04 205.47 264.08 204.42 Z M 262.08 203.42 C 262.13 202.25 262.36 202.01 262.68 202.81 C 262.97 203.53 262.94 204.40 262.60 204.73 C 262.27 205.06 262.04 204.47 262.08 203.42 Z M 16.00 198.30 C 16.00 196.29 15.71 195.89 14.87 196.73 C 14.24 197.36 14.01 198.57 14.34 199.43 C 15.25 201.82 16.00 201.31 16.00 198.30 Z M 263.08 199.42 C 263.13 198.25 263.36 198.01 263.68 198.81 C 263.97 199.53 263.94 200.40 263.60 200.73 C 263.27 201.06 263.04 200.47 263.08 199.42 Z M 262.08 195.42 C 262.13 194.25 262.36 194.01 262.68 194.81 C 262.97 195.53 262.94 196.40 262.60 196.73 C 262.27 197.06 262.04 196.47 262.08 195.42 Z M 264.08 194.42 C 264.13 193.25 264.36 193.01 264.68 193.81 C 264.97 194.53 264.94 195.40 264.60 195.73 C 264.27 196.06 264.04 195.47 264.08 194.42 Z M 390.02 189.25 C 390.01 186.91 390.17 185.00 390.39 185.00 C 391.22 185.00 391.60 191.03 390.84 192.23 C 390.35 192.99 390.02 191.80 390.02 189.25 Z M 263.00 189.12 C 263.00 188.57 263.45 187.84 264.00 187.50 C 264.55 187.16 265.00 187.33 265.00 187.88 C 265.00 188.43 264.55 189.16 264.00 189.50 C 263.45 189.84 263.00 189.67 263.00 189.12 Z M 264.08 184.42 C 264.13 183.25 264.36 183.01 264.68 183.81 C 264.97 184.53 264.94 185.40 264.60 185.73 C 264.27 186.06 264.04 185.47 264.08 184.42 Z M 137.00 182.00 C 137.00 181.45 137.45 181.00 138.00 181.00 C 138.55 181.00 139.00 181.45 139.00 182.00 C 139.00 182.55 138.55 183.00 138.00 183.00 C 137.45 183.00 137.00 182.55 137.00 182.00 Z M 390.08 177.42 C 390.13 176.25 390.36 176.01 390.68 176.81 C 390.97 177.53 390.94 178.40 390.60 178.73 C 390.27 179.06 390.04 178.47 390.08 177.42 Z M 262.00 173.50 C 262.00 172.01 262.43 171.15 263.00 171.50 C 263.55 171.84 264.00 172.74 264.00 173.50 C 264.00 174.26 263.55 175.16 263.00 175.50 C 262.43 175.85 262.00 174.99 262.00 173.50 Z M 263.77 170.75 C 263.53 170.06 263.67 168.38 264.07 167.00 C 264.71 164.82 264.81 164.99 264.90 168.25 C 265.00 172.06 264.57 173.01 263.77 170.75 Z M 390.08 167.42 C 390.13 166.25 390.36 166.01 390.68 166.81 C 390.97 167.53 390.94 168.40 390.60 168.73 C 390.27 169.06 390.04 168.47 390.08 167.42 Z M 140.68 161.81 C 140.36 161.01 140.13 161.25 140.08 162.42 C 140.04 163.47 140.27 164.06 140.60 163.73 C 140.94 163.40 140.97 162.53 140.68 161.81 Z M 88.94 151.96 C 88.28 151.55 88.78 151.02 90.17 150.65 C 93.51 149.76 96.00 149.86 96.00 150.89 C 96.00 152.02 90.41 152.87 88.94 151.96 Z M 130.00 151.00 C 130.00 150.45 130.45 150.00 131.00 150.00 C 131.55 150.00 132.00 150.45 132.00 151.00 C 132.00 151.55 131.55 152.00 131.00 152.00 C 130.45 152.00 130.00 151.55 130.00 151.00 Z M 206.27 151.34 C 205.59 151.07 204.24 151.05 203.27 151.31 C 202.30 151.56 202.85 151.78 204.50 151.81 C 206.15 151.83 206.95 151.62 206.27 151.34 Z M 211.73 151.40 C 211.40 151.06 210.53 151.03 209.81 151.32 C 209.01 151.64 209.25 151.87 210.42 151.92 C 211.47 151.96 212.06 151.73 211.73 151.40 Z M 247.00 151.62 C 247.00 150.73 242.95 150.26 242.44 151.09 C 242.13 151.59 243.03 152.00 244.44 152.00 C 245.85 152.00 247.00 151.83 247.00 151.62 Z M 182.25 150.31 C 183.21 150.06 184.79 150.06 185.75 150.31 C 186.71 150.56 185.93 150.77 184.00 150.77 C 182.07 150.77 181.29 150.56 182.25 150.31 Z M 219.44 149.47 C 221.61 147.83 226.46 147.44 225.51 148.99 C 225.16 149.56 225.56 149.72 226.45 149.38 C 227.30 149.05 228.00 149.28 228.00 149.89 C 228.00 150.57 225.94 150.99 222.75 150.97 C 217.92 150.94 217.65 150.82 219.44 149.47 Z M 232.00 149.40 L 229.50 147.88 L 232.88 148.44 C 234.73 148.75 236.64 149.00 237.12 149.00 C 237.61 149.00 238.00 149.45 238.00 150.00 C 238.00 151.47 234.87 151.16 232.00 149.40 Z M 316.75 149.34 C 317.44 149.06 318.56 149.06 319.25 149.34 C 319.94 149.62 319.38 149.84 318.00 149.84 C 316.62 149.84 316.06 149.62 316.75 149.34 Z M 324.81 149.32 C 325.53 149.03 326.40 149.06 326.73 149.40 C 327.06 149.73 326.47 149.96 325.42 149.92 C 324.25 149.87 324.01 149.64 324.81 149.32 Z M 353.27 149.31 C 354.24 149.05 355.59 149.07 356.27 149.34 C 356.95 149.62 356.15 149.83 354.50 149.81 C 352.85 149.78 352.30 149.56 353.27 149.31 Z M 252.27 147.31 C 253.24 147.05 254.59 147.07 255.27 147.34 C 255.95 147.62 255.15 147.83 253.50 147.81 C 251.85 147.78 251.30 147.56 252.27 147.31 Z M 12.00 146.00 C 12.00 145.45 12.45 145.00 13.00 145.00 C 13.55 145.00 14.00 145.45 14.00 146.00 C 14.00 146.55 13.55 147.00 13.00 147.00 C 12.45 147.00 12.00 146.55 12.00 146.00 Z M 140.28 142.92 C 139.62 141.19 138.64 140.10 138.05 140.47 C 137.47 140.83 136.97 140.53 136.94 139.81 C 136.53 131.42 136.65 128.93 137.50 128.58 C 138.12 128.31 138.06 127.84 137.34 127.32 C 136.32 126.60 135.92 123.59 136.07 117.75 C 136.30 108.50 134.85 35.51 134.42 35.09 C 133.71 34.38 139.34 31.01 141.25 31.01 C 142.21 31.00 143.00 31.49 143.00 32.09 C 143.00 32.86 148.82 33.00 162.75 32.58 C 173.61 32.25 200.28 31.75 222.00 31.47 C 243.72 31.19 267.80 30.72 275.50 30.43 C 283.20 30.13 311.10 29.80 337.50 29.69 L 385.50 29.50 L 385.68 53.00 C 385.78 65.93 385.98 91.22 386.14 109.21 C 386.29 127.20 386.06 142.27 385.63 142.71 C 384.78 143.55 369.05 143.82 306.00 144.07 L 266.50 144.22 L 266.32 138.86 C 266.22 135.91 265.94 112.89 265.68 87.70 C 265.43 62.50 264.95 41.62 264.61 41.28 C 263.88 40.54 263.92 39.89 263.87 53.50 C 263.85 59.55 263.28 66.94 262.60 69.93 C 261.46 75.02 261.37 74.35 261.23 58.93 C 261.06 40.77 260.33 33.00 258.80 33.00 C 258.11 33.00 257.98 51.23 258.40 88.77 L 259.02 144.53 L 243.26 144.61 C 234.59 144.66 208.14 144.99 184.47 145.36 L 141.45 146.03 L 140.28 142.92 Z M 137.00 143.94 C 137.00 143.36 137.45 143.16 138.00 143.50 C 138.55 143.84 139.00 144.32 139.00 144.56 C 139.00 144.80 138.55 145.00 138.00 145.00 C 137.45 145.00 137.00 144.52 137.00 143.94 Z M 262.00 139.00 C 262.00 136.14 262.14 136.00 263.57 137.43 C 265.00 138.86 265.00 139.14 263.57 140.57 C 262.14 142.00 262.00 141.86 262.00 139.00 Z M 216.25 139.01 L 250.00 139.00 L 249.86 107.75 C 249.78 90.56 249.45 67.05 249.11 55.50 L 248.50 34.50 L 245.50 34.61 C 243.85 34.67 221.44 35.07 195.70 35.50 L 148.91 36.28 L 149.53 86.89 C 149.87 114.73 150.35 138.13 150.60 138.90 C 150.97 140.05 153.80 140.18 166.77 139.66 C 175.42 139.31 197.69 139.02 216.25 139.01 Z M 389.16 134.00 C 389.16 132.62 389.38 132.06 389.66 132.75 C 389.94 133.44 389.94 134.56 389.66 135.25 C 389.38 135.94 389.16 135.38 389.16 134.00 Z M 158.17 130.32 C 157.51 129.08 157.05 113.08 156.92 86.01 L 156.71 43.63 L 162.60 43.26 C 165.85 43.06 184.93 42.81 205.00 42.70 L 241.50 42.50 L 241.76 86.65 L 242.02 130.80 L 210.26 130.91 C 192.79 130.97 174.16 131.30 168.86 131.64 C 159.97 132.22 159.13 132.12 158.17 130.32 Z M 261.00 128.00 C 261.00 127.45 261.48 127.00 262.06 127.00 C 262.64 127.00 262.84 127.45 262.50 128.00 C 262.16 128.55 261.68 129.00 261.44 129.00 C 261.20 129.00 261.00 128.55 261.00 128.00 Z M 210.16 124.39 C 215.54 121.70 221.03 115.44 224.09 108.52 C 226.58 102.91 226.88 92.52 224.80 84.50 C 223.32 78.81 222.15 78.39 220.00 82.81 L 218.50 85.89 L 218.43 79.51 C 218.36 73.34 215.40 61.00 213.99 61.00 C 213.61 61.00 212.51 63.90 211.55 67.44 C 210.60 70.98 209.17 74.69 208.38 75.69 C 207.10 77.30 207.01 76.87 207.58 71.83 C 208.24 65.89 206.74 59.50 202.84 51.75 C 200.72 47.52 199.26 46.91 199.23 50.25 C 199.19 56.17 193.15 73.00 191.06 73.00 C 190.75 73.00 189.90 71.68 189.19 70.07 C 188.48 68.46 186.19 65.21 184.10 62.87 L 180.31 58.60 L 179.70 66.55 C 179.36 70.92 178.46 76.51 177.69 78.96 L 176.30 83.43 L 173.90 79.73 C 172.58 77.69 171.19 76.02 170.81 76.01 C 168.46 75.97 167.77 103.75 169.96 110.39 C 174.72 124.79 195.13 131.90 210.16 124.39 Z M 140.00 124.94 C 140.00 124.42 139.55 124.00 139.00 124.00 C 138.45 124.00 138.00 124.70 138.00 125.56 C 138.00 126.42 138.45 126.84 139.00 126.50 C 139.55 126.16 140.00 125.46 140.00 124.94 Z M 389.00 124.44 C 389.00 123.58 389.46 123.16 390.02 123.51 C 390.58 123.86 390.77 124.56 390.46 125.07 C 389.60 126.46 389.00 126.20 389.00 124.44 Z M 261.61 123.42 C 260.73 121.13 260.86 118.00 261.84 118.00 C 262.30 118.00 262.74 119.58 262.81 121.50 C 262.95 125.29 262.56 125.91 261.61 123.42 Z M 184.99 119.71 C 178.23 116.14 175.23 111.70 174.05 103.50 C 172.79 94.74 172.73 90.00 173.90 90.00 C 174.40 90.00 175.25 91.24 175.80 92.75 C 176.35 94.26 177.51 96.40 178.37 97.50 C 179.85 99.39 179.94 99.24 179.97 94.60 C 180.00 88.95 184.00 71.88 185.13 72.58 C 185.54 72.84 186.19 75.17 186.57 77.77 C 187.48 84.03 190.91 93.17 192.08 92.45 C 192.58 92.14 193.01 90.22 193.02 88.19 C 193.06 82.86 194.80 76.10 196.90 73.10 C 197.91 71.67 199.33 68.81 200.07 66.75 C 202.33 60.39 203.31 62.39 202.56 71.87 C 201.85 81.01 202.68 93.00 204.02 93.00 C 204.44 93.00 205.09 91.78 205.46 90.28 C 206.24 87.21 212.12 77.00 213.12 77.00 C 213.48 77.00 213.71 81.39 213.64 86.75 C 213.56 92.50 213.97 97.29 214.64 98.43 C 215.68 100.20 215.95 100.01 217.93 96.14 C 220.81 90.49 222.40 91.67 221.51 98.81 C 221.12 101.87 220.38 105.52 219.85 106.93 C 218.48 110.57 210.13 118.88 206.13 120.57 C 200.73 122.86 190.12 122.43 184.99 119.71 Z M 140.00 114.50 C 140.00 111.24 138.54 111.24 138.36 114.50 C 138.28 115.88 138.61 117.00 139.11 117.00 C 139.60 117.00 140.00 115.88 140.00 114.50 Z M 261.69 115.31 C 261.38 114.81 261.50 113.82 261.94 113.10 C 262.39 112.38 263.00 112.19 263.31 112.69 C 263.62 113.19 263.50 114.18 263.06 114.90 C 262.61 115.62 262.00 115.81 261.69 115.31 Z M 389.92 112.75 C 389.63 107.91 389.88 101.79 390.39 101.28 C 390.73 100.94 391.00 103.67 391.00 107.33 C 391.00 111.00 390.77 114.00 390.50 114.00 C 390.23 114.00 389.97 113.44 389.92 112.75 Z M 139.81 103.28 C 139.79 99.58 139.41 95.65 138.96 94.53 C 138.46 93.28 138.19 95.88 138.27 101.25 C 138.34 106.06 138.72 110.00 139.12 110.00 C 139.52 110.00 139.83 106.98 139.81 103.28 Z M 261.93 107.42 C 261.90 106.91 261.67 105.04 261.44 103.25 C 261.13 100.90 261.41 100.00 262.45 100.00 C 263.53 100.00 263.74 100.90 263.30 103.75 C 262.73 107.44 262.07 109.22 261.93 107.42 Z M 15.00 97.00 C 15.00 96.45 14.52 96.00 13.94 96.00 C 13.36 96.00 13.16 96.45 13.50 97.00 C 13.84 97.55 14.32 98.00 14.56 98.00 C 14.80 98.00 15.00 97.55 15.00 97.00 Z M 261.73 95.40 C 260.78 94.44 260.92 80.07 261.91 77.54 C 263.19 74.25 264.06 82.53 262.81 86.13 C 261.99 88.48 262.03 89.40 262.99 89.99 C 263.87 90.54 263.98 91.56 263.35 93.45 C 262.86 94.92 262.13 95.80 261.73 95.40 Z M 390.25 89.50 C 390.26 87.30 390.47 86.52 390.71 87.76 C 390.95 89.01 390.94 90.81 390.69 91.76 C 390.44 92.72 390.24 91.70 390.25 89.50 Z M 138.71 85.76 C 138.47 84.52 138.26 85.30 138.25 87.50 C 138.24 89.70 138.44 90.72 138.69 89.76 C 138.94 88.81 138.95 87.01 138.71 85.76 Z M 140.00 78.00 C 140.00 77.45 139.80 77.00 139.56 77.00 C 139.32 77.00 138.84 77.45 138.50 78.00 C 138.16 78.55 138.36 79.00 138.94 79.00 C 139.52 79.00 140.00 78.55 140.00 78.00 Z M 390.08 76.42 C 390.13 75.25 390.36 75.01 390.68 75.81 C 390.97 76.53 390.94 77.40 390.60 77.73 C 390.27 78.06 390.04 77.47 390.08 76.42 Z M 263.16 74.00 C 263.16 72.62 263.38 72.06 263.66 72.75 C 263.94 73.44 263.94 74.56 263.66 75.25 C 263.38 75.94 263.16 75.38 263.16 74.00 Z M 139.07 65.67 C 137.80 64.40 137.56 68.76 138.75 71.67 C 139.33 73.09 139.57 72.74 139.82 70.12 C 140.00 68.27 139.66 66.26 139.07 65.67 Z M 389.67 64.33 C 389.30 63.97 389.00 63.20 389.00 62.63 C 389.00 62.01 389.47 62.07 390.18 62.78 C 390.83 63.43 391.13 64.20 390.85 64.48 C 390.57 64.77 390.03 64.70 389.67 64.33 Z M 139.08 56.68 C 138.31 55.91 138.00 56.31 138.00 58.13 C 138.00 61.43 139.40 62.84 139.83 59.98 C 140.02 58.76 139.68 57.28 139.08 56.68 Z M 139.08 48.68 C 137.79 47.39 137.58 49.80 138.74 52.67 C 139.39 54.28 139.52 54.22 139.83 52.13 C 140.01 50.83 139.68 49.28 139.08 48.68 Z M 389.00 41.12 C 389.00 40.57 389.45 39.84 390.00 39.50 C 390.55 39.16 391.00 39.33 391.00 39.88 C 391.00 40.43 390.55 41.16 390.00 41.50 C 389.45 41.84 389.00 41.67 389.00 41.12 Z M 264.71 34.76 C 264.47 33.52 264.26 34.30 264.25 36.50 C 264.24 38.70 264.44 39.72 264.69 38.76 C 264.94 37.81 264.95 36.01 264.71 34.76 Z M 26.73 34.27 C 24.65 34.05 21.50 34.06 19.73 34.28 C 17.95 34.50 19.65 34.68 23.50 34.67 C 27.35 34.67 28.80 34.49 26.73 34.27 Z M 48.75 32.34 C 49.44 32.06 50.56 32.06 51.25 32.34 C 51.94 32.62 51.38 32.84 50.00 32.84 C 48.62 32.84 48.06 32.62 48.75 32.34 Z M 73.26 32.28 C 74.78 32.05 77.03 32.06 78.26 32.30 C 79.49 32.53 78.25 32.72 75.50 32.71 C 72.75 32.71 71.74 32.51 73.26 32.28 Z M 83.27 32.31 C 84.24 32.05 85.59 32.07 86.27 32.34 C 86.95 32.62 86.15 32.83 84.50 32.81 C 82.85 32.78 82.30 32.56 83.27 32.31 Z M 387.65 31.54 C 387.24 30.46 387.68 30.00 389.11 30.00 C 390.25 30.00 390.99 30.53 390.77 31.19 C 390.15 33.04 388.31 33.25 387.65 31.54 Z M 144.00 31.00 C 144.00 30.45 144.70 30.00 145.56 30.00 C 146.42 30.00 146.84 30.45 146.50 31.00 C 146.16 31.55 145.46 32.00 144.94 32.00 C 144.42 32.00 144.00 31.55 144.00 31.00 Z M 271.27 28.31 C 272.24 28.05 273.59 28.07 274.27 28.34 C 274.95 28.62 274.15 28.83 272.50 28.81 C 270.85 28.78 270.30 28.56 271.27 28.31 Z" fill="none" stroke="rgba(255,255,255,0.92)" stroke-width="1.5" stroke-linejoin="round" fill-rule="evenodd"/>
</svg>
