<svg xmlns="http://www.w3.org/2000/svg" viewBox="0 0 400 282" width="400" height="282">
  <path d="M 0.00 141.00 L 0.00 0.00 L 200.00 0.00 L 400.00 0.00 L 400.00 141.00 L 400.00 282.00 L 200.00 282.00 L 0.00 282.00 L 0.00 141.00 Z M 322.50 275.77 C 365.15 275.21 361.74 275.42 362.32 273.25 C 362.73 271.71 362.87 271.74 363.46 273.56 C 364.10 275.51 364.88 275.61 378.82 275.61 C 386.89 275.61 393.76 275.24 394.07 274.78 C 394.68 273.91 394.54 224.69 393.56 88.52 L 392.98 6.55 L 382.24 6.66 C 330.70 7.22 215.57 7.99 126.00 8.38 C 66.32 8.65 15.14 8.89 12.25 8.93 L 7.00 9.00 L 7.00 143.06 L 7.00 277.12 L 146.75 276.68 C 223.61 276.44 302.70 276.03 322.50 275.77 Z M 282.50 274.00 C 282.16 273.45 282.61 273.00 283.50 273.00 C 284.39 273.00 284.84 273.45 284.50 274.00 C 284.16 274.55 283.71 275.00 283.50 275.00 C 283.29 275.00 282.84 274.55 282.50 274.00 Z M 307.63 273.52 C 304.95 272.38 304.90 272.26 306.88 271.74 C 308.13 271.41 309.01 271.66 309.02 272.34 C 309.03 273.08 309.30 273.13 309.77 272.50 C 310.69 271.24 317.00 270.89 317.00 272.10 C 317.00 272.60 315.96 273.00 314.70 273.00 C 313.44 273.00 311.97 273.39 311.45 273.87 C 310.91 274.37 309.27 274.22 307.63 273.52 Z M 267.62 265.75 C 267.31 261.21 267.07 236.35 267.10 210.50 C 267.18 140.54 267.34 145.76 265.08 146.47 C 264.03 146.81 262.88 146.61 262.53 146.04 C 262.17 145.47 262.61 145.00 263.50 145.00 C 264.39 145.00 264.87 144.60 264.56 144.10 C 264.26 143.61 264.72 142.94 265.59 142.60 C 267.79 141.76 268.21 141.85 267.50 143.00 C 266.79 144.15 266.69 144.12 274.00 144.55 C 277.02 144.73 281.30 144.48 283.50 143.98 C 285.70 143.49 287.62 143.43 287.77 143.84 C 288.14 144.89 295.00 143.99 295.00 142.89 C 295.00 142.40 295.44 142.00 295.97 142.00 C 296.50 142.00 296.72 142.56 296.46 143.25 C 296.11 144.16 297.63 144.53 301.99 144.61 C 305.30 144.67 308.00 144.33 308.00 143.86 C 308.00 143.12 304.09 142.51 301.75 142.88 C 301.34 142.95 301.00 142.60 301.00 142.11 C 301.00 140.76 304.41 139.72 304.81 140.94 C 305.01 141.52 306.28 142.00 307.64 142.00 C 309.04 142.00 309.85 142.44 309.50 143.00 C 309.16 143.55 309.64 144.00 310.56 144.00 C 311.74 144.00 312.08 143.41 311.71 142.00 C 311.09 139.65 313.48 139.20 314.36 141.50 C 314.68 142.33 314.50 143.00 313.97 143.00 C 313.44 143.00 313.00 143.45 313.00 144.00 C 313.00 145.57 315.81 145.17 316.76 143.46 C 317.63 141.92 321.00 142.38 321.00 144.04 C 321.00 144.50 324.26 144.73 328.25 144.55 C 338.26 144.12 338.00 144.17 337.36 142.50 C 337.05 141.67 337.25 141.00 337.82 141.00 C 338.39 141.00 339.01 141.79 339.19 142.75 C 339.50 144.36 341.45 144.50 362.73 144.55 C 375.49 144.57 386.15 144.81 386.42 145.08 C 387.17 145.84 387.48 266.85 386.73 267.60 C 386.37 267.97 360.74 268.39 329.78 268.54 C 298.83 268.69 272.48 268.85 271.23 268.90 C 269.32 268.98 269.06 269.40 269.59 271.50 C 269.95 272.94 269.79 274.00 269.20 274.00 C 268.63 274.00 267.93 270.31 267.62 265.75 Z M 274.00 272.50 C 274.00 271.67 274.89 271.00 276.00 271.00 C 277.11 271.00 278.00 271.67 278.00 272.50 C 278.00 273.33 277.11 274.00 276.00 274.00 C 274.89 274.00 274.00 273.33 274.00 272.50 Z M 292.50 273.00 C 292.84 272.45 293.32 272.00 293.56 272.00 C 293.80 272.00 294.00 272.45 294.00 273.00 C 294.00 273.55 293.52 274.00 292.94 274.00 C 292.36 274.00 292.16 273.55 292.50 273.00 Z M 327.47 272.96 C 327.12 272.39 325.91 272.21 324.79 272.57 C 323.43 273.00 322.98 272.85 323.43 272.11 C 324.43 270.50 328.55 270.75 330.00 272.50 C 331.02 273.72 330.96 274.00 329.68 274.00 C 328.82 274.00 327.83 273.53 327.47 272.96 Z M 345.50 273.00 C 345.16 272.45 345.33 272.00 345.88 272.00 C 346.43 272.00 347.16 272.45 347.50 273.00 C 347.84 273.55 347.67 274.00 347.12 274.00 C 346.57 274.00 345.84 273.55 345.50 273.00 Z M 349.50 273.00 C 349.16 272.45 349.36 272.00 349.94 272.00 C 350.52 272.00 351.00 272.45 351.00 273.00 C 351.00 273.55 350.80 274.00 350.56 274.00 C 350.32 274.00 349.84 273.55 349.50 273.00 Z M 284.50 272.00 C 284.16 271.45 284.33 271.00 284.88 271.00 C 285.43 271.00 286.16 271.45 286.50 272.00 C 286.84 272.55 286.67 273.00 286.12 273.00 C 285.57 273.00 284.84 272.55 284.50 272.00 Z M 333.00 272.00 C 333.00 271.45 333.45 271.00 334.00 271.00 C 334.55 271.00 335.00 271.45 335.00 272.00 C 335.00 272.55 334.55 273.00 334.00 273.00 C 333.45 273.00 333.00 272.55 333.00 272.00 Z M 368.50 272.00 C 368.16 271.45 368.33 271.00 368.88 271.00 C 369.43 271.00 370.16 271.45 370.50 272.00 C 370.84 272.55 370.67 273.00 370.12 273.00 C 369.57 273.00 368.84 272.55 368.50 272.00 Z M 387.50 270.00 C 387.84 269.45 388.88 269.01 389.81 269.02 C 391.27 269.03 391.29 269.16 390.00 270.00 C 388.04 271.27 386.72 271.27 387.50 270.00 Z M 29.67 253.33 C 28.58 252.25 28.91 142.69 30.00 141.00 C 30.76 139.83 30.97 139.80 30.98 140.87 C 30.99 141.78 31.82 142.08 33.50 141.76 C 34.88 141.49 36.00 141.55 36.00 141.89 C 36.01 143.24 42.86 142.81 43.39 141.42 C 43.95 139.97 46.10 139.39 45.88 140.75 C 45.52 143.02 46.13 145.04 47.02 144.49 C 47.58 144.14 47.81 143.49 47.53 143.04 C 47.25 142.59 47.65 141.71 48.41 141.07 C 49.29 140.34 49.93 140.29 50.15 140.92 C 50.34 141.47 53.65 142.00 57.50 142.11 C 61.35 142.21 65.50 142.90 66.71 143.65 C 69.60 145.41 71.00 145.36 71.00 143.50 C 71.00 141.85 73.63 141.41 74.17 142.98 C 74.35 143.51 76.08 144.23 78.00 144.56 C 80.78 145.04 81.19 144.93 80.00 144.01 C 78.86 143.13 78.80 142.73 79.76 142.34 C 80.45 142.06 80.76 141.42 80.45 140.91 C 80.14 140.41 80.36 140.00 80.94 140.00 C 81.52 140.00 82.00 140.67 82.00 141.48 C 82.00 142.30 83.24 143.30 84.75 143.71 C 87.74 144.53 127.92 144.54 132.00 143.72 L 134.50 143.22 L 134.30 197.25 C 134.19 226.97 133.87 251.89 133.58 252.64 C 133.15 253.76 124.08 254.00 81.70 254.00 C 53.45 254.00 30.03 253.70 29.67 253.33 Z M 141.55 252.75 C 140.48 249.28 140.10 246.23 140.67 245.67 C 141.60 244.73 141.73 195.99 140.81 192.54 C 140.38 190.91 140.40 189.20 140.87 188.73 C 141.33 188.27 141.39 186.13 140.99 183.97 C 140.60 181.82 140.53 179.80 140.84 179.50 C 141.66 178.67 141.16 146.06 140.30 144.68 C 139.10 142.77 138.93 140.00 140.01 140.00 C 140.55 140.00 141.01 140.56 141.02 141.25 C 141.03 142.17 141.22 142.20 141.77 141.34 C 142.32 140.47 143.01 140.53 144.45 141.59 C 146.29 142.93 146.25 143.00 143.63 143.00 C 142.12 143.00 141.13 143.40 141.43 143.88 C 141.72 144.36 145.01 144.60 148.73 144.41 C 155.52 144.06 160.39 142.44 159.41 140.85 C 159.12 140.38 159.41 140.00 160.06 140.00 C 160.74 140.00 161.01 140.84 160.71 142.00 C 160.25 143.74 160.68 144.00 164.01 144.00 C 166.13 144.00 168.06 143.44 168.34 142.75 C 168.63 142.03 168.88 142.28 168.92 143.33 C 168.97 144.36 169.55 144.96 170.25 144.71 C 170.94 144.46 171.39 143.74 171.25 143.13 C 171.11 142.51 171.45 142.00 172.00 142.00 C 172.55 142.00 173.00 142.40 173.00 142.89 C 173.00 144.28 179.76 145.20 181.83 144.09 C 183.10 143.41 184.04 143.44 184.77 144.17 C 185.43 144.83 186.95 144.95 188.68 144.48 C 190.23 144.06 192.93 143.81 194.68 143.93 C 196.43 144.04 198.85 143.61 200.06 142.97 C 201.77 142.05 202.43 142.07 203.03 143.04 C 203.53 143.86 205.04 144.09 207.38 143.71 C 209.36 143.39 212.25 143.50 213.82 143.95 C 215.42 144.41 217.39 144.36 218.32 143.84 C 219.39 143.24 220.75 143.33 222.16 144.08 C 223.95 145.04 224.56 144.95 225.57 143.57 C 226.37 142.48 226.93 142.30 227.19 143.06 C 227.45 143.86 232.41 144.29 243.30 144.46 C 251.95 144.59 259.24 144.91 259.50 145.17 C 260.05 145.71 260.38 214.44 259.85 215.69 C 259.66 216.13 259.72 224.50 260.00 234.27 C 260.27 244.04 260.35 252.48 260.17 253.02 C 259.63 254.60 142.04 254.34 141.55 252.75 Z M 263.00 252.44 C 263.00 251.58 263.46 251.16 264.02 251.51 C 264.58 251.86 264.77 252.56 264.46 253.07 C 263.60 254.46 263.00 254.20 263.00 252.44 Z M 136.55 252.09 C 136.24 251.58 136.55 250.98 137.24 250.75 C 138.16 250.44 138.21 249.94 137.43 248.91 C 136.16 247.23 135.65 241.67 136.84 242.40 C 137.30 242.68 137.12 240.80 136.45 238.21 C 135.79 235.62 135.52 233.05 135.85 232.50 C 136.71 231.11 136.72 229.92 135.90 226.85 C 135.51 225.39 135.62 223.78 136.14 223.26 C 136.73 222.67 136.73 220.75 136.15 218.15 C 135.60 215.71 135.58 213.76 136.10 213.44 C 136.60 213.13 137.01 213.70 137.02 214.69 C 137.03 215.94 137.27 216.12 137.81 215.27 C 138.24 214.60 138.60 222.81 138.63 233.52 C 138.66 251.17 138.25 254.83 136.55 252.09 Z M 389.50 249.00 C 389.84 248.45 390.32 248.00 390.56 248.00 C 390.80 248.00 391.00 248.45 391.00 249.00 C 391.00 249.55 390.52 250.00 389.94 250.00 C 389.36 250.00 389.16 249.55 389.50 249.00 Z M 262.16 247.00 C 262.16 245.62 262.38 245.06 262.66 245.75 C 262.94 246.44 262.94 247.56 262.66 248.25 C 262.38 248.94 262.16 248.38 262.16 247.00 Z M 115.59 247.02 L 128.68 247.00 L 128.59 198.25 C 128.52 159.91 128.23 149.52 127.25 149.60 C 126.56 149.66 105.24 149.77 79.87 149.85 L 33.74 150.00 L 34.35 177.75 C 34.69 193.01 34.97 215.13 34.98 226.89 L 35.00 248.28 L 68.75 247.66 C 87.31 247.32 108.39 247.03 115.59 247.02 Z M 263.00 243.44 C 263.00 242.58 263.46 242.16 264.02 242.51 C 264.58 242.86 264.77 243.56 264.46 244.07 C 263.60 245.46 263.00 245.20 263.00 243.44 Z M 42.69 234.89 C 42.34 231.93 42.05 213.41 42.03 193.75 L 42.00 158.00 L 55.75 157.83 C 63.31 157.73 80.97 157.62 95.00 157.58 L 120.50 157.50 L 120.75 198.25 L 121.00 239.00 L 91.75 239.01 C 75.66 239.01 58.18 239.30 52.90 239.65 L 43.31 240.28 L 42.69 234.89 Z M 264.08 238.42 C 264.13 237.25 264.36 237.01 264.68 237.81 C 264.97 238.53 264.94 239.40 264.60 239.73 C 264.27 240.06 264.04 239.47 264.08 238.42 Z M 390.23 236.00 C 390.23 234.07 390.44 233.29 390.69 234.25 C 390.94 235.21 390.94 236.79 390.69 237.75 C 390.44 238.71 390.23 237.93 390.23 236.00 Z M 90.77 233.76 C 98.73 229.78 105.35 220.35 106.56 211.27 C 107.28 205.85 105.44 192.39 103.84 191.40 C 103.31 191.07 102.24 191.63 101.47 192.65 C 100.15 194.39 100.06 194.35 100.03 191.93 C 99.99 188.53 96.42 175.02 95.25 173.85 C 94.69 173.29 93.86 175.06 93.12 178.33 C 92.46 181.30 91.36 184.50 90.67 185.43 C 89.63 186.86 89.43 186.20 89.43 181.32 C 89.43 175.16 84.49 160.67 82.60 161.30 C 82.07 161.48 81.02 164.74 80.26 168.56 C 78.82 175.81 75.46 184.00 73.93 184.00 C 73.44 184.00 72.17 182.31 71.11 180.25 C 69.08 176.31 63.08 169.96 62.89 171.56 C 62.83 172.08 62.87 175.71 62.98 179.64 C 63.09 183.89 62.73 187.05 62.08 187.45 C 61.49 187.82 61.00 189.44 61.00 191.06 C 61.00 194.97 59.73 194.77 57.43 190.50 C 56.39 188.57 55.22 187.00 54.82 187.00 C 53.53 187.00 52.65 194.24 52.57 205.50 C 52.46 222.01 56.06 228.94 67.43 234.11 C 73.47 236.85 84.92 236.68 90.77 233.76 Z M 263.00 234.58 C 263.00 233.80 262.71 232.34 262.35 231.33 C 261.83 229.84 261.95 229.73 263.04 230.74 C 264.68 232.26 265.36 236.00 263.99 236.00 C 263.45 236.00 263.00 235.36 263.00 234.58 Z M 69.00 229.41 C 60.71 225.82 56.67 218.08 57.20 206.84 L 57.50 200.50 L 59.93 205.25 C 61.26 207.86 62.72 210.00 63.18 210.00 C 63.63 210.00 63.99 207.64 63.99 204.75 C 63.97 199.10 67.02 185.00 68.25 185.00 C 68.66 185.00 69.02 186.24 69.05 187.75 C 69.13 191.99 73.36 204.29 74.93 204.81 C 75.90 205.13 76.12 204.75 75.66 203.56 C 74.61 200.83 77.62 188.57 80.43 184.12 C 81.84 181.87 83.00 179.10 83.00 177.96 C 83.00 176.82 83.42 176.14 83.94 176.46 C 84.49 176.80 84.66 181.33 84.36 187.27 C 83.81 197.80 85.04 207.45 86.43 203.50 C 87.83 199.50 90.14 195.36 92.59 192.46 L 95.09 189.50 L 94.38 194.00 C 93.48 199.75 93.69 202.81 95.33 207.53 L 96.64 211.32 L 99.07 207.41 L 101.50 203.50 L 101.81 207.86 C 102.38 215.83 95.52 226.21 87.44 229.59 C 83.05 231.42 73.44 231.33 69.00 229.41 Z M 390.06 228.00 C 390.06 225.14 390.25 224.82 391.08 226.25 C 391.77 227.44 391.77 228.56 391.08 229.75 C 390.25 231.18 390.06 230.86 390.06 228.00 Z M 263.53 227.08 C 263.19 226.03 262.79 221.19 262.63 216.33 C 262.47 211.48 262.51 208.26 262.73 209.19 C 262.98 210.28 263.70 210.67 264.73 210.27 C 265.89 209.83 266.10 210.03 265.50 211.00 C 265.04 211.74 264.72 216.10 264.78 220.67 C 264.90 229.12 264.62 230.54 263.53 227.08 Z M 389.02 222.75 C 389.02 222.06 389.47 220.82 390.00 220.00 C 390.76 218.83 390.97 219.11 390.98 221.25 C 390.99 222.76 390.55 224.00 390.00 224.00 C 389.45 224.00 389.01 223.44 389.02 222.75 Z M 389.68 214.90 C 389.38 213.75 389.53 211.84 390.00 210.65 C 390.70 208.92 390.89 209.33 390.94 212.75 C 391.01 217.38 390.54 218.18 389.68 214.90 Z M 136.35 209.00 C 135.19 205.13 135.55 203.76 137.14 206.03 C 137.87 207.08 137.95 206.35 137.42 203.50 C 135.72 194.28 137.37 179.66 139.29 187.00 C 139.58 188.10 139.45 189.00 139.01 189.00 C 138.17 189.00 138.72 204.73 139.61 206.17 C 139.89 206.63 139.67 207.00 139.13 207.00 C 138.58 207.00 137.97 208.24 137.77 209.75 C 137.41 212.46 137.39 212.45 136.35 209.00 Z M 263.55 206.75 C 262.37 202.98 262.14 198.14 263.01 195.50 C 263.97 192.60 263.99 192.62 263.56 196.27 C 263.32 198.35 263.43 199.86 263.81 199.63 C 264.19 199.40 264.56 201.19 264.62 203.60 C 264.75 207.93 264.31 209.20 263.55 206.75 Z M 389.90 198.92 C 389.74 191.95 390.10 187.57 390.91 186.73 C 391.32 186.30 391.60 189.54 391.55 193.92 C 391.45 202.32 390.07 206.48 389.90 198.92 Z M 263.00 186.06 C 263.00 183.64 263.56 183.40 264.35 185.47 C 264.66 186.28 264.48 187.20 263.96 187.53 C 263.43 187.85 263.00 187.19 263.00 186.06 Z M 390.73 184.40 C 390.33 183.99 390.03 182.50 390.06 181.08 L 390.13 178.50 L 391.09 180.91 C 392.13 183.52 391.92 185.58 390.73 184.40 Z M 137.10 181.83 C 137.04 180.91 136.70 179.38 136.33 178.42 C 135.89 177.28 136.04 176.91 136.75 177.35 C 137.36 177.72 138.06 177.23 138.31 176.26 C 138.69 174.80 138.77 174.84 138.78 176.50 C 138.81 179.10 137.23 184.08 137.10 181.83 Z M 262.16 181.00 C 262.16 179.62 262.38 179.06 262.66 179.75 C 262.94 180.44 262.94 181.56 262.66 182.25 C 262.38 182.94 262.16 182.38 262.16 181.00 Z M 262.86 176.25 C 262.66 174.74 262.75 171.47 263.06 169.00 C 263.53 165.15 263.71 164.86 264.31 167.00 C 265.13 169.92 264.79 178.98 263.86 178.99 C 263.51 179.00 263.06 177.76 262.86 176.25 Z M 390.75 176.43 C 390.34 176.01 390.03 174.05 390.06 172.08 C 390.12 168.72 390.19 168.65 391.11 170.95 C 392.19 173.67 391.93 177.63 390.75 176.43 Z M 136.63 171.75 C 135.66 168.11 135.91 166.33 137.39 166.33 C 138.36 166.33 138.74 167.49 138.64 170.16 C 138.48 174.43 137.55 175.17 136.63 171.75 Z M 389.00 165.06 C 389.00 163.99 389.45 162.84 390.00 162.50 C 390.55 162.16 391.00 162.32 391.00 162.86 C 391.00 163.40 391.27 164.55 391.61 165.42 C 392.01 166.46 391.66 167.00 390.61 167.00 C 389.68 167.00 389.00 166.18 389.00 165.06 Z M 136.88 162.50 C 136.32 155.79 136.67 147.00 137.50 147.00 C 138.05 147.00 138.50 149.47 138.50 152.50 C 138.50 155.52 138.24 158.00 137.92 158.00 C 137.61 158.00 137.54 159.35 137.79 161.00 C 138.03 162.65 137.95 164.00 137.61 164.00 C 137.28 164.00 136.94 163.32 136.88 162.50 Z M 263.00 159.82 C 263.00 158.96 262.70 156.73 262.33 154.88 C 261.75 151.94 261.86 151.66 263.17 152.74 C 264.00 153.42 265.03 153.65 265.46 153.24 C 266.53 152.21 265.00 159.28 263.89 160.45 C 263.35 161.03 263.00 160.79 263.00 159.82 Z M 389.64 159.23 C 389.32 158.71 389.41 156.31 389.83 153.89 L 390.61 149.50 L 391.25 154.00 C 391.85 158.25 390.92 161.29 389.64 159.23 Z M 263.00 149.00 C 263.00 148.45 263.45 148.00 264.00 148.00 C 264.55 148.00 265.00 148.45 265.00 149.00 C 265.00 149.55 264.55 150.00 264.00 150.00 C 263.45 150.00 263.00 149.55 263.00 149.00 Z M 43.73 144.40 C 43.40 144.06 42.53 144.03 41.81 144.32 C 41.01 144.64 41.25 144.87 42.42 144.92 C 43.47 144.96 44.06 144.73 43.73 144.40 Z M 55.00 144.00 C 56.17 143.24 55.91 143.03 53.81 143.02 C 52.33 143.01 50.84 143.45 50.50 144.00 C 49.71 145.28 53.02 145.28 55.00 144.00 Z M 61.25 144.34 C 60.56 144.06 59.44 144.06 58.75 144.34 C 58.06 144.62 58.62 144.84 60.00 144.84 C 61.38 144.84 61.94 144.62 61.25 144.34 Z M 135.70 141.96 C 133.81 139.75 133.47 138.55 135.00 139.50 C 135.55 139.84 136.04 139.53 136.09 138.81 C 136.13 138.09 136.57 138.83 137.05 140.45 C 138.15 144.14 137.85 144.47 135.70 141.96 Z M 390.08 142.42 C 390.13 141.25 390.36 141.01 390.68 141.81 C 390.97 142.53 390.94 143.40 390.60 143.73 C 390.27 144.06 390.04 143.47 390.08 142.42 Z M 89.55 141.59 C 90.99 140.53 91.68 140.47 92.23 141.34 C 92.78 142.20 92.97 142.17 92.98 141.25 C 93.00 140.39 94.65 140.04 98.25 140.14 C 101.14 140.21 102.48 140.47 101.24 140.71 C 99.99 140.95 99.23 141.56 99.54 142.07 C 99.86 142.58 99.39 143.00 98.50 143.00 C 97.61 143.00 97.16 142.55 97.50 142.00 C 97.84 141.45 97.39 141.00 96.50 141.00 C 95.61 141.00 95.16 141.45 95.50 142.00 C 95.87 142.61 94.45 143.00 91.87 143.00 C 87.96 143.00 87.77 142.89 89.55 141.59 Z M 105.64 141.50 C 106.05 140.43 107.72 140.00 111.44 140.00 C 115.42 140.00 116.67 140.36 116.67 141.50 C 116.67 142.46 115.74 142.97 114.08 142.93 C 111.74 142.87 111.69 142.78 113.50 142.00 C 115.13 141.30 114.86 141.13 112.00 141.09 C 109.39 141.04 108.88 141.28 110.00 142.00 C 111.14 142.74 110.73 142.97 108.28 142.98 C 105.83 143.00 105.20 142.64 105.64 141.50 Z M 119.12 141.36 C 117.92 140.01 117.98 139.85 119.54 140.15 C 120.52 140.34 121.52 141.06 121.75 141.75 C 122.33 143.48 120.79 143.25 119.12 141.36 Z M 125.02 140.75 C 125.03 138.93 125.22 138.79 126.00 140.00 C 127.25 141.94 127.25 143.00 126.00 143.00 C 125.45 143.00 125.01 141.99 125.02 140.75 Z M 129.00 141.50 C 129.00 140.68 129.45 140.00 130.00 140.00 C 130.55 140.00 131.00 140.68 131.00 141.50 C 131.00 142.32 130.55 143.00 130.00 143.00 C 129.45 143.00 129.00 142.32 129.00 141.50 Z M 149.08 142.64 C 150.26 141.62 155.11 141.02 154.52 141.96 C 154.17 142.53 152.71 143.00 151.27 143.00 C 149.84 143.00 148.85 142.84 149.08 142.64 Z M 186.75 142.34 C 187.44 142.06 188.56 142.06 189.25 142.34 C 189.94 142.62 189.38 142.84 188.00 142.84 C 186.62 142.84 186.06 142.62 186.75 142.34 Z M 194.51 141.98 C 194.86 141.42 195.56 141.23 196.07 141.54 C 197.46 142.40 197.20 143.00 195.44 143.00 C 194.58 143.00 194.16 142.54 194.51 141.98 Z M 241.51 141.98 C 241.86 141.42 242.56 141.23 243.07 141.54 C 244.46 142.40 244.20 143.00 242.44 143.00 C 241.58 143.00 241.16 142.54 241.51 141.98 Z M 251.00 142.00 C 252.97 140.73 255.29 140.73 254.50 142.00 C 254.16 142.55 252.90 142.99 251.69 142.98 C 249.91 142.97 249.78 142.79 251.00 142.00 Z M 270.00 142.18 C 270.00 140.97 271.90 139.56 272.59 140.26 C 272.84 140.51 272.36 141.28 271.52 141.98 C 270.57 142.77 270.00 142.84 270.00 142.18 Z M 275.08 142.64 C 276.14 141.73 283.00 141.23 283.00 142.06 C 283.00 142.58 281.12 143.00 278.83 143.00 C 276.54 143.00 274.85 142.84 275.08 142.64 Z M 371.81 142.32 C 372.53 142.03 373.40 142.06 373.73 142.40 C 374.06 142.73 373.47 142.96 372.42 142.92 C 371.25 142.87 371.01 142.64 371.81 142.32 Z M 246.00 141.00 C 246.00 140.45 246.48 140.00 247.06 140.00 C 247.64 140.00 247.84 140.45 247.50 141.00 C 247.16 141.55 246.68 142.00 246.44 142.00 C 246.20 142.00 246.00 141.55 246.00 141.00 Z M 366.00 141.00 C 366.00 140.45 366.48 140.00 367.06 140.00 C 367.64 140.00 367.84 140.45 367.50 141.00 C 367.16 141.55 366.68 142.00 366.44 142.00 C 366.20 142.00 366.00 141.55 366.00 141.00 Z M 85.75 140.34 C 86.44 140.06 87.56 140.06 88.25 140.34 C 88.94 140.62 88.38 140.84 87.00 140.84 C 85.62 140.84 85.06 140.62 85.75 140.34 Z M 146.81 140.32 C 147.53 140.03 148.40 140.06 148.73 140.40 C 149.06 140.73 148.47 140.96 147.42 140.92 C 146.25 140.87 146.01 140.64 146.81 140.32 Z M 249.81 140.32 C 250.53 140.03 251.40 140.06 251.73 140.40 C 252.06 140.73 251.47 140.96 250.42 140.92 C 249.25 140.87 249.01 140.64 249.81 140.32 Z M 387.50 139.00 C 387.84 138.45 388.32 138.00 388.56 138.00 C 388.80 138.00 389.00 138.45 389.00 139.00 C 389.00 139.55 388.52 140.00 387.94 140.00 C 387.36 140.00 387.16 139.55 387.50 139.00 Z M 28.90 135.82 C 28.85 133.99 28.87 105.51 28.93 72.52 C 29.05 15.09 29.41 7.80 31.87 11.80 C 32.48 12.78 33.34 12.82 35.50 12.00 C 37.06 11.41 38.60 11.28 38.92 11.72 C 39.63 12.69 55.55 12.78 56.52 11.81 C 56.90 11.44 58.23 11.52 59.48 11.99 C 62.33 13.08 71.00 12.80 71.00 11.63 C 71.00 11.15 71.63 11.28 72.40 11.92 C 73.20 12.58 74.93 12.81 76.40 12.43 C 78.14 12.00 79.00 12.19 79.00 13.01 C 79.00 13.86 79.75 13.74 81.50 12.59 C 82.88 11.69 84.00 11.34 84.00 11.81 C 84.00 12.29 85.59 12.74 87.54 12.81 C 89.49 12.88 90.84 12.56 90.55 12.09 C 89.90 11.03 95.18 11.38 97.03 12.52 C 97.85 13.03 98.53 12.90 98.77 12.18 C 99.34 10.48 103.68 10.73 104.36 12.50 C 104.68 13.32 105.45 14.00 106.08 14.00 C 106.70 14.00 106.97 13.36 106.67 12.58 C 106.22 11.41 108.15 11.17 117.92 11.21 C 129.33 11.24 129.77 11.32 131.60 13.76 C 132.65 15.15 133.58 17.23 133.68 18.39 C 134.03 22.42 134.07 136.26 133.72 136.61 C 133.53 136.80 110.68 137.21 82.94 137.51 C 55.20 137.82 31.71 138.31 30.75 138.60 C 29.34 139.03 28.98 138.49 28.90 135.82 Z M 148.25 137.21 L 141.00 136.91 L 140.95 131.21 C 140.92 128.07 140.92 100.92 140.96 70.89 C 141.03 23.40 140.84 16.11 139.53 15.02 C 138.70 14.34 138.27 13.37 138.57 12.89 C 138.87 12.40 138.37 12.00 137.45 12.00 C 136.34 12.00 135.99 12.53 136.39 13.58 C 136.73 14.45 137.00 16.05 137.00 17.14 C 137.00 18.38 137.43 18.85 138.16 18.40 C 138.97 17.90 139.12 18.41 138.67 20.09 C 138.32 21.42 138.02 23.31 138.01 24.31 C 138.01 25.30 137.55 25.84 137.00 25.50 C 136.45 25.16 136.00 22.91 136.00 20.51 C 136.00 18.10 135.58 15.02 135.06 13.67 C 134.27 11.58 134.45 11.11 136.24 10.65 C 137.40 10.34 138.77 10.36 139.29 10.68 C 139.80 11.00 147.71 11.41 156.86 11.60 C 166.01 11.78 175.62 12.09 178.20 12.29 C 180.95 12.50 182.66 12.26 182.33 11.72 C 181.99 11.18 182.64 11.07 183.87 11.46 C 188.06 12.79 191.00 13.02 191.00 12.02 C 191.00 11.46 191.48 11.00 192.06 11.00 C 192.64 11.00 192.91 11.34 192.65 11.75 C 192.40 12.16 194.58 12.50 197.50 12.50 C 200.42 12.50 202.57 12.11 202.28 11.64 C 201.99 11.17 202.82 11.13 204.12 11.55 C 207.26 12.57 215.07 12.70 215.65 11.75 C 215.91 11.34 216.79 11.00 217.62 11.00 C 218.46 11.00 218.82 11.49 218.43 12.11 C 217.98 12.84 218.41 13.00 219.68 12.60 C 220.74 12.27 222.48 12.65 223.55 13.46 C 224.62 14.27 226.40 14.94 227.50 14.95 C 228.99 14.97 229.15 14.75 228.15 14.12 C 227.17 13.49 227.69 12.95 230.09 12.12 C 232.60 11.24 233.54 11.26 234.11 12.18 C 234.69 13.12 235.45 13.12 237.53 12.17 C 239.39 11.32 243.29 11.14 250.35 11.57 C 259.83 12.15 262.88 12.77 260.50 13.64 C 259.84 13.87 259.60 35.14 259.80 75.50 C 260.04 125.33 259.85 137.02 258.80 137.11 C 255.53 137.38 154.68 137.47 148.25 137.21 Z M 265.08 136.42 C 265.13 135.25 265.36 135.01 265.68 135.81 C 265.97 136.53 265.94 137.40 265.60 137.73 C 265.27 138.06 265.04 137.47 265.08 136.42 Z M 270.78 137.19 C 268.60 136.94 267.96 136.24 267.52 133.69 C 266.67 128.71 266.41 12.13 267.25 12.65 C 267.66 12.91 268.00 12.40 268.00 11.52 C 268.00 9.68 270.78 9.82 272.82 11.75 C 273.55 12.44 274.65 13.00 275.26 13.00 C 275.88 13.00 275.51 12.29 274.44 11.42 C 272.66 9.97 272.66 9.89 274.33 10.42 C 275.34 10.74 277.05 11.00 278.14 11.00 C 279.23 11.00 279.87 11.40 279.57 11.89 C 279.25 12.41 280.56 12.44 282.70 11.96 C 284.72 11.50 287.64 11.38 289.19 11.69 C 290.73 12.00 292.56 11.82 293.25 11.30 C 293.94 10.77 296.52 10.47 299.00 10.63 C 301.48 10.79 307.91 11.12 313.29 11.37 C 319.36 11.65 323.69 12.33 324.68 13.15 C 326.10 14.33 326.20 14.21 325.56 12.18 C 324.88 10.05 324.98 9.97 326.89 11.16 C 328.50 12.17 329.21 12.19 330.16 11.24 C 331.11 10.29 331.78 10.39 333.24 11.72 C 334.85 13.17 335.41 13.22 337.26 12.07 C 338.80 11.11 339.52 11.05 339.79 11.86 C 340.00 12.49 340.61 13.00 341.14 13.00 C 341.68 13.00 341.87 12.60 341.56 12.10 C 340.57 10.49 344.11 9.97 345.65 11.50 C 347.44 13.30 349.10 13.46 348.75 11.81 C 348.61 11.15 349.24 10.46 350.15 10.26 C 351.23 10.02 351.74 10.50 351.65 11.66 C 351.56 12.73 352.29 13.53 353.50 13.69 C 354.60 13.84 354.94 13.71 354.25 13.40 C 352.46 12.59 352.70 10.67 354.50 11.36 C 355.32 11.68 356.00 11.61 356.00 11.22 C 356.00 10.82 357.54 10.47 359.41 10.43 C 362.19 10.37 362.75 10.69 362.47 12.18 C 361.99 14.65 363.71 14.50 364.50 12.00 C 364.95 10.59 366.01 10.00 368.13 10.00 C 369.87 10.00 370.86 10.42 370.50 11.00 C 369.80 12.13 372.28 12.38 373.37 11.30 C 374.56 10.11 378.81 9.89 379.48 10.98 C 380.46 12.55 382.00 12.19 382.00 10.38 C 382.00 9.07 382.28 8.99 383.46 9.96 C 384.26 10.63 385.33 10.91 385.84 10.60 C 386.35 10.28 387.01 10.92 387.29 12.01 C 387.58 13.11 387.46 14.00 387.03 14.00 C 386.60 14.00 386.37 41.45 386.52 75.00 C 386.73 120.16 386.50 136.20 385.65 136.74 C 384.56 137.44 276.58 137.85 270.78 137.19 Z M 390.23 134.00 C 390.23 132.07 390.44 131.29 390.69 132.25 C 390.94 133.21 390.94 134.79 390.69 135.75 C 390.44 136.71 390.23 135.93 390.23 134.00 Z M 262.50 127.66 C 262.50 124.27 262.95 121.38 263.50 121.24 C 264.95 120.87 265.12 131.66 263.68 132.85 C 262.79 133.58 262.50 132.29 262.50 127.66 Z M 137.50 130.00 C 137.84 129.45 138.32 129.00 138.56 129.00 C 138.80 129.00 139.00 129.45 139.00 130.00 C 139.00 130.55 138.52 131.00 137.94 131.00 C 137.36 131.00 137.16 130.55 137.50 130.00 Z M 390.23 125.00 C 390.23 123.08 390.44 122.29 390.69 123.25 C 390.94 124.21 390.94 125.79 390.69 126.75 C 390.44 127.71 390.23 126.92 390.23 125.00 Z M 390.23 117.00 C 390.23 115.08 390.44 114.29 390.69 115.25 C 390.94 116.21 390.94 117.79 390.69 118.75 C 390.44 119.71 390.23 118.92 390.23 117.00 Z M 262.07 113.25 C 262.11 112.84 262.53 111.60 263.00 110.50 C 263.76 108.73 263.87 108.81 263.93 111.25 C 263.97 112.76 263.55 114.00 263.00 114.00 C 262.45 114.00 262.03 113.66 262.07 113.25 Z M 390.08 104.42 C 390.13 103.25 390.36 103.01 390.68 103.81 C 390.97 104.53 390.94 105.40 390.60 105.73 C 390.27 106.06 390.04 105.47 390.08 104.42 Z M 263.00 101.50 C 263.00 100.67 263.18 100.00 263.39 100.00 C 263.61 100.00 264.05 100.67 264.36 101.50 C 264.68 102.33 264.50 103.00 263.97 103.00 C 263.44 103.00 263.00 102.33 263.00 101.50 Z M 390.19 97.50 C 390.22 95.85 390.44 95.30 390.69 96.27 C 390.95 97.24 390.93 98.59 390.66 99.27 C 390.38 99.95 390.17 99.15 390.19 97.50 Z M 263.23 93.00 C 263.23 91.08 263.44 90.29 263.69 91.25 C 263.94 92.21 263.94 93.79 263.69 94.75 C 263.44 95.71 263.23 94.92 263.23 93.00 Z M 262.02 86.22 C 262.04 82.21 263.56 80.22 264.35 83.17 C 265.30 86.72 265.14 87.73 263.50 88.36 C 262.39 88.79 262.00 88.23 262.02 86.22 Z M 262.16 79.00 C 262.16 77.62 262.38 77.06 262.66 77.75 C 262.94 78.44 262.94 79.56 262.66 80.25 C 262.38 80.94 262.16 80.38 262.16 79.00 Z M 136.60 74.33 C 137.52 70.50 138.00 70.14 138.00 73.27 C 138.00 74.71 137.53 76.17 136.96 76.52 C 136.28 76.95 136.15 76.19 136.60 74.33 Z M 390.50 74.00 C 390.16 73.45 390.36 73.00 390.94 73.00 C 391.52 73.00 392.00 73.45 392.00 74.00 C 392.00 74.55 391.80 75.00 391.56 75.00 C 391.32 75.00 390.84 74.55 390.50 74.00 Z M 262.00 69.53 C 262.00 68.64 262.59 68.29 263.49 68.64 C 264.32 68.95 264.74 69.61 264.44 70.10 C 263.56 71.52 262.00 71.15 262.00 69.53 Z M 136.02 66.25 C 136.03 64.11 136.24 63.83 137.00 65.00 C 138.26 66.96 138.26 69.00 137.00 69.00 C 136.45 69.00 136.01 67.76 136.02 66.25 Z M 262.64 65.50 C 261.77 63.24 261.99 30.87 262.86 31.42 C 263.28 31.67 263.52 33.36 263.39 35.17 C 263.27 36.98 263.46 38.92 263.82 39.48 C 264.93 41.22 264.93 53.48 263.82 51.89 C 263.15 50.94 263.08 51.45 263.61 53.50 C 264.04 55.15 264.41 58.86 264.44 61.75 C 264.50 66.92 263.77 68.44 262.64 65.50 Z M 389.08 58.42 C 389.13 57.25 389.36 57.01 389.68 57.81 C 389.97 58.53 389.94 59.40 389.60 59.73 C 389.27 60.06 389.04 59.47 389.08 58.42 Z M 137.00 58.12 C 137.00 57.57 137.45 56.84 138.00 56.50 C 138.55 56.16 139.00 56.33 139.00 56.88 C 139.00 57.43 138.55 58.16 138.00 58.50 C 137.45 58.84 137.00 58.67 137.00 58.12 Z M 137.02 52.50 C 136.30 45.72 136.33 35.59 137.08 37.50 C 137.52 38.63 137.89 38.89 137.93 38.08 C 137.97 37.30 138.12 36.85 138.28 37.08 C 138.43 37.31 138.28 41.55 137.95 46.50 C 137.62 51.45 137.20 54.15 137.02 52.50 Z M 389.00 40.00 C 389.00 38.90 389.41 38.00 389.91 38.00 C 390.40 38.00 390.58 38.90 390.29 40.00 C 390.00 41.10 389.59 42.00 389.38 42.00 C 389.17 42.00 389.00 41.10 389.00 40.00 Z M 390.16 35.00 C 390.16 33.62 390.38 33.06 390.66 33.75 C 390.94 34.44 390.94 35.56 390.66 36.25 C 390.38 36.94 390.16 36.38 390.16 35.00 Z M 136.54 33.07 C 136.23 32.56 136.42 31.86 136.98 31.51 C 137.54 31.16 138.00 31.58 138.00 32.44 C 138.00 34.20 137.40 34.46 136.54 33.07 Z M 263.16 29.46 C 261.57 25.96 261.71 22.49 263.50 21.00 C 264.75 19.96 265.00 20.10 265.00 21.82 C 265.00 22.95 264.58 24.14 264.06 24.46 C 263.48 24.82 263.53 26.21 264.18 28.07 C 265.49 31.86 264.73 32.90 263.16 29.46 Z M 389.50 24.00 C 389.12 21.73 389.03 19.64 389.30 19.37 C 389.58 19.09 390.12 20.73 390.50 23.00 C 390.88 25.27 390.97 27.36 390.70 27.63 C 390.42 27.91 389.88 26.27 389.50 24.00 Z M 263.14 15.09 C 262.14 14.47 262.09 14.06 262.96 13.52 C 264.33 12.68 265.36 13.43 264.85 14.91 C 264.65 15.51 263.94 15.59 263.14 15.09 Z M 224.50 12.00 C 224.16 11.45 224.36 11.00 224.94 11.00 C 225.52 11.00 226.00 11.45 226.00 12.00 C 226.00 12.55 225.80 13.00 225.56 13.00 C 225.32 13.00 224.84 12.55 224.50 12.00 Z M 263.00 10.97 C 263.00 10.44 263.68 10.00 264.50 10.00 C 265.32 10.00 266.00 10.18 266.00 10.39 C 266.00 10.61 265.32 11.05 264.50 11.36 C 263.68 11.68 263.00 11.50 263.00 10.97 Z M 388.50 10.00 C 388.16 9.45 388.58 9.00 389.44 9.00 C 390.30 9.00 391.00 9.45 391.00 10.00 C 391.00 10.55 390.58 11.00 390.06 11.00 C 389.54 11.00 388.84 10.55 388.50 10.00 Z" fill="none" stroke="rgba(255,255,255,0.92)" stroke-width="1.5" stroke-linejoin="round" fill-rule="evenodd"/>
</svg>
