<svg xmlns="http://www.w3.org/2000/svg" viewBox="0 0 100 100" width="100" height="100">
  <path d="M 0.00 50.00 L 0.00 0.00 L 50.00 0.00 L 100.00 0.00 L 100.00 50.00 L 100.00 100.00 L 50.00 100.00 L 0.00 100.00 L 0.00 50.00 Z M 96.00 88.00 L 96.00 80.00 L 59.00 80.00 L 22.00 80.00 L 21.88 43.50 C 21.81 23.42 21.69 6.44 21.62 5.75 C 21.54 4.89 18.93 4.41 13.16 4.21 L 4.83 3.92 L 5.11 49.96 L 5.39 96.00 L 50.70 96.00 L 96.00 96.00 L 96.00 88.00 Z M 88.75 75.00 L 96.00 75.00 L 96.00 40.41 L 96.00 5.82 L 61.00 6.12 L 26.00 6.42 L 26.00 41.37 L 26.00 76.31 L 53.75 75.66 C 69.01 75.30 84.76 75.01 88.75 75.00 Z M 31.84 47.75 C 31.75 35.51 31.64 22.58 31.59 19.00 L 31.50 12.50 L 61.06 12.24 L 90.62 11.97 L 90.79 38.24 C 90.88 52.68 90.70 65.74 90.40 67.25 L 89.84 70.00 L 60.92 70.00 L 32.00 70.00 L 31.84 47.75 Z M 65.28 66.94 C 73.38 64.69 79.94 55.79 79.97 47.00 C 80.00 40.53 78.21 34.58 76.63 35.89 C 75.69 36.67 75.09 35.53 74.11 31.13 C 72.49 23.81 71.36 21.78 70.46 24.53 C 70.10 25.61 69.20 28.07 68.45 30.00 L 67.10 33.50 L 67.05 29.29 C 67.00 25.01 63.46 14.00 62.13 14.00 C 61.74 14.00 60.83 16.64 60.11 19.87 C 59.39 23.10 58.00 26.98 57.00 28.49 L 55.20 31.24 L 53.98 28.87 C 52.46 25.94 48.94 22.00 47.83 22.00 C 47.37 22.00 47.00 24.22 47.00 26.93 C 47.00 29.65 46.52 33.13 45.93 34.67 L 44.87 37.48 L 43.00 35.00 C 41.98 33.64 40.88 32.78 40.57 33.09 C 40.26 33.40 39.73 37.35 39.38 41.85 C 38.30 55.92 42.15 63.44 51.98 66.47 C 57.56 68.19 60.42 68.29 65.28 66.94 Z M 50.43 61.98 C 45.36 59.48 42.98 54.85 43.06 47.72 L 43.13 42.50 L 44.75 45.75 C 46.85 49.98 48.00 49.87 48.00 45.44 C 48.00 41.29 49.89 32.92 51.14 31.55 C 51.64 30.99 52.00 31.64 52.00 33.12 C 52.00 36.22 54.91 45.00 55.93 45.00 C 56.34 45.00 56.74 43.34 56.81 41.31 C 56.89 39.28 58.09 35.29 59.48 32.46 C 60.86 29.62 62.00 26.76 62.00 26.09 C 62.00 25.43 62.39 25.12 62.86 25.41 C 63.34 25.71 63.50 30.23 63.23 35.47 C 62.89 41.88 63.08 45.00 63.80 45.00 C 64.38 45.00 65.18 44.00 65.57 42.77 C 66.41 40.13 70.06 35.00 71.11 35.00 C 71.51 35.00 71.41 36.57 70.88 38.48 C 70.22 40.85 70.28 43.33 71.05 46.19 L 72.19 50.40 L 73.82 47.70 C 76.16 43.85 76.78 44.35 76.01 49.43 C 74.21 61.29 61.56 67.49 50.43 61.98 Z" fill="none" stroke="rgba(255,255,255,0.92)" stroke-width="1.2" stroke-linejoin="round" fill-rule="evenodd"/>
</svg>
