<svg xmlns="http://www.w3.org/2000/svg" viewBox="0 0 388 400" width="388" height="400">
  <path d="M 0.00 200.00 L 0.00 0.00 L 187.56 0.00 C 290.74 0.00 374.88 0.38 374.59 0.85 C 373.76 2.20 376.25 4.70 379.08 5.36 C 381.15 5.83 382.09 5.36 383.86 2.98 C 385.07 1.34 386.51 0.00 387.06 0.00 C 388.46 -0.00 388.09 41.27 386.69 42.17 C 385.38 43.01 382.79 52.86 383.56 54.09 C 383.87 54.59 384.99 55.00 386.06 55.00 C 387.97 55.00 388.00 57.41 388.00 227.50 L 388.00 400.00 L 194.00 400.00 L 0.00 400.00 L 0.00 200.00 Z M 138.13 393.93 C 139.57 393.16 140.51 393.18 141.52 394.01 C 142.28 394.65 143.77 394.89 144.84 394.55 C 145.90 394.21 157.91 393.90 171.53 393.86 C 185.15 393.81 197.57 393.41 199.13 392.96 C 200.69 392.51 202.18 392.49 202.44 392.90 C 202.70 393.32 209.34 393.51 217.20 393.33 C 225.07 393.15 237.35 392.97 244.50 392.94 C 251.65 392.91 258.68 392.66 260.13 392.39 L 262.76 391.89 L 262.53 334.20 C 262.41 302.46 262.51 274.70 262.76 272.50 L 263.20 268.50 L 288.35 268.15 C 302.18 267.96 329.02 267.73 348.00 267.65 L 382.50 267.50 L 382.55 202.19 C 382.59 160.72 382.25 136.66 381.63 136.27 C 381.09 135.94 354.22 135.63 321.91 135.58 C 289.60 135.54 262.79 135.13 262.33 134.67 C 261.87 134.21 261.39 122.28 261.26 108.17 C 261.00 80.98 260.31 22.86 260.11 12.09 L 260.00 5.68 L 155.25 6.34 C 97.64 6.71 40.50 7.30 28.28 7.66 L 6.06 8.31 L 6.45 58.40 C 6.66 85.96 6.87 144.86 6.92 189.30 L 7.00 270.11 L 18.25 270.00 C 24.44 269.94 29.95 269.94 30.50 270.01 C 32.05 270.21 67.21 270.04 102.25 269.68 C 124.43 269.45 134.00 269.67 134.01 270.42 C 134.46 322.21 134.91 377.87 134.95 385.25 C 134.98 390.61 135.25 395.00 135.57 395.00 C 135.88 395.00 137.03 394.52 138.13 393.93 Z M 243.65 387.48 C 244.16 386.14 242.13 386.02 226.86 386.49 C 217.31 386.78 208.94 386.99 208.25 386.96 C 206.20 386.89 201.88 386.90 195.42 387.01 C 192.08 387.07 188.93 387.04 188.42 386.94 C 187.91 386.84 187.28 386.85 187.00 386.95 C 184.97 387.71 180.93 387.69 180.45 386.91 C 180.13 386.39 179.35 386.29 178.72 386.68 C 178.09 387.06 169.46 387.45 159.54 387.53 L 141.50 387.68 L 141.83 380.80 C 142.02 377.02 141.67 372.48 141.05 370.72 C 140.44 368.96 140.30 367.40 140.74 367.25 C 141.44 367.02 141.53 335.11 140.96 287.50 C 140.71 266.49 140.53 267.83 143.42 269.15 C 145.16 269.94 146.71 269.95 148.90 269.18 C 150.58 268.60 152.16 268.45 152.40 268.85 C 152.96 269.75 183.37 269.51 184.85 268.59 C 185.44 268.23 186.84 268.51 187.96 269.21 C 189.48 270.15 190.45 270.20 191.76 269.38 C 192.87 268.69 194.40 268.60 195.85 269.14 C 197.14 269.62 198.66 269.71 199.25 269.35 C 199.83 268.99 212.50 268.69 227.41 268.70 L 254.50 268.70 L 255.00 272.10 C 255.27 273.97 255.50 300.25 255.50 330.50 L 255.50 385.50 L 251.50 385.67 C 249.30 385.76 246.94 385.87 246.25 385.92 C 244.38 386.04 244.74 387.79 246.75 388.31 C 247.84 388.60 247.47 388.81 245.78 388.88 C 243.73 388.97 243.21 388.62 243.65 387.48 Z M 258.08 369.42 C 258.13 368.25 258.36 368.01 258.68 368.81 C 258.97 369.53 258.94 370.40 258.60 370.73 C 258.27 371.06 258.04 370.47 258.08 369.42 Z M 137.79 358.00 C 137.54 356.35 137.72 355.00 138.17 355.00 C 138.63 355.00 139.00 356.35 139.00 358.00 C 139.00 359.65 138.83 361.00 138.61 361.00 C 138.40 361.00 138.03 359.65 137.79 358.00 Z M 258.08 350.42 C 258.13 349.25 258.36 349.01 258.68 349.81 C 258.97 350.53 258.94 351.40 258.60 351.73 C 258.27 352.06 258.04 351.47 258.08 350.42 Z M 258.00 344.50 C 258.00 342.57 258.18 341.00 258.39 341.00 C 258.61 341.00 258.97 342.57 259.19 344.50 C 259.41 346.43 259.24 348.00 258.80 348.00 C 258.36 348.00 258.00 346.43 258.00 344.50 Z M 138.08 343.42 C 138.13 342.25 138.36 342.01 138.68 342.81 C 138.97 343.53 138.94 344.40 138.60 344.73 C 138.27 345.06 138.04 344.47 138.08 343.42 Z M 258.08 335.42 C 258.13 334.25 258.36 334.01 258.68 334.81 C 258.97 335.53 258.94 336.40 258.60 336.73 C 258.27 337.06 258.04 336.47 258.08 335.42 Z M 138.08 334.42 C 138.13 333.25 138.36 333.01 138.68 333.81 C 138.97 334.53 138.94 335.40 138.60 335.73 C 138.27 336.06 138.04 335.47 138.08 334.42 Z M 258.50 329.00 C 258.12 327.82 258.04 326.62 258.32 326.35 C 258.59 326.07 259.12 326.82 259.50 328.00 C 259.88 329.18 259.96 330.38 259.68 330.65 C 259.41 330.93 258.88 330.18 258.50 329.00 Z M 138.08 326.42 C 138.13 325.25 138.36 325.01 138.68 325.81 C 138.97 326.53 138.94 327.40 138.60 327.73 C 138.27 328.06 138.04 327.47 138.08 326.42 Z M 258.02 310.75 C 258.03 308.93 258.22 308.79 259.00 310.00 C 260.25 311.94 260.25 313.00 259.00 313.00 C 258.45 313.00 258.01 311.99 258.02 310.75 Z M 258.60 302.40 C 258.24 301.47 258.18 300.49 258.45 300.21 C 258.73 299.94 259.24 300.47 259.60 301.40 C 259.96 302.33 260.02 303.31 259.75 303.59 C 259.47 303.86 258.96 303.33 258.60 302.40 Z M 258.08 292.42 C 258.13 291.25 258.36 291.01 258.68 291.81 C 258.97 292.53 258.94 293.40 258.60 293.73 C 258.27 294.06 258.04 293.47 258.08 292.42 Z M 258.08 283.42 C 258.13 282.25 258.36 282.01 258.68 282.81 C 258.97 283.53 258.94 284.40 258.60 284.73 C 258.27 285.06 258.04 284.47 258.08 283.42 Z M 259.81 265.32 C 260.53 265.03 261.40 265.06 261.73 265.40 C 262.06 265.73 261.47 265.96 260.42 265.92 C 259.25 265.87 259.01 265.64 259.81 265.32 Z M 294.00 264.50 C 294.00 263.68 294.44 263.00 294.97 263.00 C 295.50 263.00 295.68 263.68 295.36 264.50 C 295.05 265.32 294.61 266.00 294.39 266.00 C 294.18 266.00 294.00 265.32 294.00 264.50 Z M 340.50 264.00 C 340.84 263.45 341.32 263.00 341.56 263.00 C 341.80 263.00 342.00 263.45 342.00 264.00 C 342.00 264.55 341.52 265.00 340.94 265.00 C 340.36 265.00 340.16 264.55 340.50 264.00 Z M 27.95 209.50 C 27.92 179.80 27.69 153.70 27.43 151.50 C 27.17 149.30 27.35 146.91 27.83 146.19 C 28.50 145.17 34.86 144.77 55.60 144.45 C 70.39 144.21 83.40 144.02 84.50 144.03 C 85.60 144.03 88.97 144.06 92.00 144.10 C 95.03 144.13 105.29 144.07 114.80 143.96 C 124.32 143.86 132.34 144.00 132.62 144.29 C 132.91 144.58 133.32 171.29 133.53 203.66 L 133.91 262.50 L 91.20 262.80 C 67.72 262.96 43.89 263.19 38.25 263.30 L 28.00 263.50 L 27.95 209.50 Z M 163.25 262.23 C 141.02 261.96 141.00 261.96 140.88 259.73 C 140.81 258.50 140.66 231.96 140.55 200.75 C 140.40 160.61 140.65 143.97 141.42 143.89 C 142.01 143.84 156.45 143.71 173.50 143.61 C 190.55 143.52 205.03 143.11 205.68 142.70 C 206.33 142.30 207.16 142.45 207.53 143.04 C 207.92 143.68 209.42 143.85 211.19 143.46 C 215.36 142.54 252.84 142.51 253.76 143.42 C 254.16 143.83 254.59 156.84 254.71 172.33 C 254.94 203.30 255.15 256.29 255.06 259.59 C 255.00 261.66 254.74 261.68 220.82 261.89 C 202.02 262.01 186.38 262.19 186.07 262.30 C 185.76 262.41 175.49 262.38 163.25 262.23 Z M 262.45 261.12 C 262.25 260.91 262.04 248.31 262.00 233.12 C 261.96 217.93 261.84 191.69 261.74 174.81 C 261.63 157.93 261.87 143.80 262.26 143.40 C 262.86 142.81 297.43 142.66 366.09 142.96 L 375.67 143.00 L 375.71 201.75 L 375.75 260.50 L 330.63 260.66 C 305.81 260.75 280.40 260.97 274.17 261.16 C 267.93 261.35 262.66 261.33 262.45 261.12 Z M 258.08 257.42 C 258.13 256.25 258.36 256.01 258.68 256.81 C 258.97 257.53 258.94 258.40 258.60 258.73 C 258.27 259.06 258.04 258.47 258.08 257.42 Z M 258.08 250.42 C 258.13 249.25 258.36 249.01 258.68 249.81 C 258.97 250.53 258.94 251.40 258.60 251.73 C 258.27 252.06 258.04 251.47 258.08 250.42 Z M 379.16 233.00 C 379.16 231.62 379.38 231.06 379.66 231.75 C 379.94 232.44 379.94 233.56 379.66 234.25 C 379.38 234.94 379.16 234.38 379.16 233.00 Z M 136.00 232.00 C 136.00 231.45 136.48 231.00 137.06 231.00 C 137.64 231.00 137.84 231.45 137.50 232.00 C 137.16 232.55 136.68 233.00 136.44 233.00 C 136.20 233.00 136.00 232.55 136.00 232.00 Z M 378.00 213.00 C 378.00 212.45 378.45 212.00 379.00 212.00 C 379.55 212.00 380.00 212.45 380.00 213.00 C 380.00 213.55 379.55 214.00 379.00 214.00 C 378.45 214.00 378.00 213.55 378.00 213.00 Z M 379.00 196.56 C 379.00 195.70 379.45 195.00 380.00 195.00 C 380.55 195.00 381.00 195.42 381.00 195.94 C 381.00 196.46 380.55 197.16 380.00 197.50 C 379.45 197.84 379.00 197.42 379.00 196.56 Z M 380.08 184.42 C 380.13 183.25 380.36 183.01 380.68 183.81 C 380.97 184.53 380.94 185.40 380.60 185.73 C 380.27 186.06 380.04 185.47 380.08 184.42 Z M 257.08 181.42 C 257.13 180.25 257.36 180.01 257.68 180.81 C 257.97 181.53 257.94 182.40 257.60 182.73 C 257.27 183.06 257.04 182.47 257.08 181.42 Z M 258.16 177.00 C 258.16 175.62 258.38 175.06 258.66 175.75 C 258.94 176.44 258.94 177.56 258.66 178.25 C 258.38 178.94 258.16 178.38 258.16 177.00 Z M 137.08 175.42 C 137.13 174.25 137.36 174.01 137.68 174.81 C 137.97 175.53 137.94 176.40 137.60 176.73 C 137.27 177.06 137.04 176.47 137.08 175.42 Z M 257.08 164.42 C 257.13 163.25 257.36 163.01 257.68 163.81 C 257.97 164.53 257.94 165.40 257.60 165.73 C 257.27 166.06 257.04 165.47 257.08 164.42 Z M 257.00 157.44 C 257.00 156.58 257.45 156.16 258.00 156.50 C 258.55 156.84 259.00 157.54 259.00 158.06 C 259.00 158.58 258.55 159.00 258.00 159.00 C 257.45 159.00 257.00 158.30 257.00 157.44 Z M 380.08 157.42 C 380.13 156.25 380.36 156.01 380.68 156.81 C 380.97 157.53 380.94 158.40 380.60 158.73 C 380.27 159.06 380.04 158.47 380.08 157.42 Z M 257.64 150.50 C 257.95 149.68 258.39 149.00 258.61 149.00 C 258.82 149.00 259.00 149.68 259.00 150.50 C 259.00 151.32 258.56 152.00 258.03 152.00 C 257.50 152.00 257.32 151.32 257.64 150.50 Z M 378.08 147.42 C 378.13 146.25 378.36 146.01 378.68 146.81 C 378.97 147.53 378.94 148.40 378.60 148.73 C 378.27 149.06 378.04 148.47 378.08 147.42 Z M 92.00 141.00 C 90.79 140.22 90.95 140.03 92.81 140.02 C 94.10 140.01 94.84 140.44 94.50 141.00 C 93.76 142.20 93.86 142.20 92.00 141.00 Z M 231.00 140.00 C 231.00 139.45 231.45 139.00 232.00 139.00 C 232.55 139.00 233.00 139.45 233.00 140.00 C 233.00 140.55 232.55 141.00 232.00 141.00 C 231.45 141.00 231.00 140.55 231.00 140.00 Z M 88.00 139.00 C 88.00 138.06 92.30 133.29 110.04 114.50 C 127.85 95.64 132.37 91.00 132.92 91.00 C 133.24 91.00 133.40 100.98 133.28 113.17 C 133.03 137.16 133.04 137.13 127.50 136.92 C 125.85 136.85 117.22 136.84 108.32 136.90 C 95.37 136.98 91.84 137.30 90.64 138.50 C 88.90 140.24 88.00 140.41 88.00 139.00 Z M 214.50 139.00 C 214.84 138.45 215.32 138.00 215.56 138.00 C 215.80 138.00 216.00 138.45 216.00 139.00 C 216.00 139.55 215.52 140.00 214.94 140.00 C 214.36 140.00 214.16 139.55 214.50 139.00 Z M 238.00 138.44 C 238.00 137.58 238.45 137.16 239.00 137.50 C 239.55 137.84 240.00 138.54 240.00 139.06 C 240.00 139.58 239.55 140.00 239.00 140.00 C 238.45 140.00 238.00 139.30 238.00 138.44 Z M 27.62 134.13 C 26.69 128.51 26.89 90.00 27.85 90.00 C 28.63 90.00 74.00 136.35 74.00 137.15 C 74.00 137.34 63.70 137.56 51.11 137.63 L 28.22 137.76 L 27.62 134.13 Z M 141.78 136.24 C 140.28 135.91 140.06 134.39 140.03 124.18 C 140.01 117.76 139.87 93.49 139.73 70.25 L 139.48 28.00 L 180.24 27.76 C 202.66 27.63 228.30 27.52 237.23 27.51 L 253.45 27.50 L 253.68 55.00 C 253.80 70.12 254.00 94.09 254.12 108.25 C 254.23 122.42 254.01 134.33 253.62 134.71 C 253.23 135.10 238.64 135.54 221.21 135.69 C 203.77 135.84 179.15 136.11 166.50 136.29 C 153.85 136.47 142.73 136.45 141.78 136.24 Z M 58.34 109.40 L 35.22 85.59 L 41.10 79.65 L 46.99 73.71 L 52.03 78.43 C 57.30 83.36 58.72 83.63 65.50 80.96 C 67.53 80.16 73.82 74.16 76.48 70.50 C 77.88 68.58 77.94 68.62 77.96 71.50 C 77.97 73.15 77.70 76.21 77.35 78.29 L 76.72 82.09 L 74.36 79.87 C 72.63 78.24 71.97 78.03 71.87 79.08 C 71.80 79.86 71.60 81.62 71.42 83.00 C 70.37 91.22 70.77 100.70 72.29 103.63 C 74.62 108.09 79.45 111.82 83.78 112.52 C 85.83 112.84 88.31 113.27 89.30 113.48 C 90.30 113.68 93.14 113.15 95.62 112.30 C 101.25 110.39 107.49 102.98 108.50 97.03 C 109.56 90.71 107.77 81.00 105.54 81.00 C 104.81 81.00 103.92 79.76 103.55 78.25 C 101.62 70.24 100.83 68.00 99.96 68.00 C 99.43 68.00 99.00 68.90 99.00 70.00 C 99.00 71.10 98.61 72.00 98.12 72.00 C 97.22 72.00 93.00 62.98 93.00 61.06 C 93.00 59.33 91.18 59.85 90.62 61.75 C 90.34 62.71 89.81 65.30 89.44 67.50 C 89.08 69.70 88.11 72.56 87.29 73.86 L 85.81 76.22 L 83.99 73.23 C 82.99 71.58 81.30 69.62 80.24 68.87 C 79.04 68.02 78.09 65.80 77.72 63.00 C 77.33 60.10 76.30 57.77 74.81 56.45 C 68.28 50.63 68.27 50.97 75.20 43.52 L 81.47 36.79 L 104.70 60.55 L 127.94 84.31 L 115.72 97.37 C 109.00 104.55 98.54 115.55 92.48 121.82 L 81.47 133.21 L 58.34 109.40 Z M 258.08 125.42 C 258.13 124.25 258.36 124.01 258.68 124.81 C 258.97 125.53 258.94 126.40 258.60 126.73 C 258.27 127.06 258.04 126.47 258.08 125.42 Z M 135.00 124.00 C 135.00 123.45 135.45 123.00 136.00 123.00 C 136.55 123.00 137.00 123.45 137.00 124.00 C 137.00 124.55 136.55 125.00 136.00 125.00 C 135.45 125.00 135.00 124.55 135.00 124.00 Z M 256.70 116.94 C 256.35 115.63 256.58 115.03 257.33 115.28 C 258.77 115.75 259.52 119.00 258.19 119.00 C 257.66 119.00 256.99 118.07 256.70 116.94 Z M 135.03 115.50 C 135.03 114.40 135.47 112.83 136.00 112.00 C 136.80 110.76 136.97 110.84 136.97 112.50 C 136.97 113.60 136.53 115.17 136.00 116.00 C 135.20 117.24 135.03 117.16 135.03 115.50 Z M 310.68 106.92 C 311.66 99.35 312.17 98.00 314.05 98.00 C 316.47 98.00 316.71 94.50 314.39 93.20 C 313.03 92.44 312.93 91.57 313.77 87.63 C 314.32 85.07 314.48 82.80 314.13 82.59 C 313.78 82.39 306.75 83.31 298.50 84.64 C 290.25 85.98 282.04 87.30 280.25 87.58 C 278.46 87.86 277.02 88.41 277.04 88.80 C 277.10 89.88 308.36 108.98 309.50 108.64 C 310.05 108.47 310.58 107.70 310.68 106.92 Z M 83.28 107.30 C 80.69 106.80 76.01 101.59 75.99 99.17 C 75.98 98.25 75.70 96.49 75.37 95.25 C 75.04 94.01 75.22 93.00 75.77 93.00 C 76.32 93.00 77.00 93.90 77.29 95.00 C 78.27 98.75 80.00 97.06 80.10 92.25 C 80.15 89.64 80.54 86.38 80.96 85.00 C 81.81 82.23 81.44 81.71 84.42 89.82 C 86.23 94.76 87.43 94.16 88.09 87.98 C 88.42 84.94 89.32 81.34 90.09 79.98 C 91.41 77.67 91.52 78.02 91.79 85.25 C 92.11 93.69 93.27 95.00 95.56 89.50 C 97.25 85.48 99.00 84.90 99.00 88.38 C 99.00 92.02 100.16 97.00 101.01 97.00 C 101.43 97.00 102.09 95.99 102.49 94.75 C 103.11 92.83 103.28 92.76 103.68 94.26 C 104.42 97.02 100.85 103.24 97.10 105.74 C 93.82 107.92 89.20 108.44 83.28 107.30 Z M 135.00 107.00 C 135.00 106.45 135.45 106.00 136.00 106.00 C 136.55 106.00 137.00 106.45 137.00 107.00 C 137.00 107.55 136.55 108.00 136.00 108.00 C 135.45 108.00 135.00 107.55 135.00 107.00 Z M 136.00 98.00 C 136.00 97.45 136.48 97.00 137.06 97.00 C 137.64 97.00 137.84 97.45 137.50 98.00 C 137.16 98.55 136.68 99.00 136.44 99.00 C 136.20 99.00 136.00 98.55 136.00 98.00 Z M 336.00 96.50 C 336.00 94.09 335.77 94.00 329.50 94.00 C 323.86 94.00 323.00 94.24 323.00 95.83 C 323.00 98.62 323.85 99.00 330.17 99.00 C 335.72 99.00 336.00 98.88 336.00 96.50 Z M 257.19 94.50 C 257.22 92.85 257.44 92.30 257.69 93.27 C 257.95 94.24 257.93 95.59 257.66 96.27 C 257.38 96.95 257.17 96.15 257.19 94.50 Z M 350.32 95.41 C 353.63 94.28 355.00 93.27 355.00 91.97 C 355.00 89.06 353.42 88.77 348.02 90.69 C 344.00 92.12 343.00 92.92 343.00 94.73 C 343.00 97.42 344.11 97.52 350.32 95.41 Z M 135.00 94.03 C 135.00 92.67 136.78 91.83 137.43 92.88 C 137.74 93.38 137.32 94.05 136.49 94.36 C 135.67 94.68 135.00 94.53 135.00 94.03 Z M 135.50 88.00 C 136.50 86.90 137.47 86.00 137.65 86.00 C 137.84 86.00 138.00 86.90 138.00 88.00 C 138.00 89.38 137.33 90.00 135.85 90.00 C 133.75 90.00 133.74 89.94 135.50 88.00 Z M 368.12 85.08 C 372.22 81.41 372.39 81.04 370.84 79.45 C 369.28 77.85 368.90 77.98 364.64 81.54 C 360.90 84.67 360.28 85.65 361.09 87.17 C 362.46 89.73 363.16 89.52 368.12 85.08 Z M 256.60 84.40 C 256.24 83.47 256.18 82.49 256.45 82.21 C 256.73 81.94 257.24 82.47 257.60 83.40 C 257.96 84.33 258.02 85.31 257.75 85.59 C 257.47 85.86 256.96 85.33 256.60 84.40 Z M 27.68 81.34 C 26.78 80.45 26.80 55.53 27.69 54.64 C 28.66 53.68 41.01 66.08 40.97 67.97 C 40.93 69.87 28.61 82.27 27.68 81.34 Z M 136.67 81.33 C 136.30 80.97 136.00 80.20 136.00 79.63 C 136.00 79.01 136.47 79.07 137.18 79.78 C 137.83 80.43 138.13 81.20 137.85 81.48 C 137.57 81.77 137.03 81.70 136.67 81.33 Z M 109.25 54.41 C 95.91 40.87 85.00 29.48 85.00 29.10 C 85.00 28.20 133.96 27.65 136.20 28.52 C 137.59 29.05 137.69 29.53 136.75 31.02 C 136.12 32.04 135.23 32.64 134.78 32.37 C 134.33 32.09 134.21 31.47 134.50 31.00 C 134.79 30.53 134.62 29.88 134.11 29.57 C 133.55 29.22 133.16 38.28 133.11 52.19 C 133.05 72.33 133.25 75.62 134.67 77.19 C 135.98 78.64 136.03 79.00 134.90 79.02 C 134.13 79.02 122.59 67.95 109.25 54.41 Z M 257.07 76.25 C 257.13 73.81 257.24 73.73 258.00 75.50 C 259.17 78.23 259.17 79.00 258.00 79.00 C 257.45 79.00 257.03 77.76 257.07 76.25 Z M 382.16 67.62 C 384.04 63.99 384.06 63.64 382.49 62.12 C 380.93 60.62 380.72 60.64 379.65 62.37 C 379.02 63.40 377.47 65.82 376.20 67.74 C 374.00 71.09 373.97 71.31 375.67 73.18 C 377.36 75.06 377.48 75.06 378.79 73.32 C 379.54 72.32 381.06 69.75 382.16 67.62 Z M 40.95 55.89 C 31.35 45.92 23.35 37.38 23.17 36.90 C 22.74 35.76 32.14 26.01 33.67 26.01 C 34.31 26.00 34.98 26.43 35.17 26.96 C 35.35 27.49 43.26 35.77 52.75 45.37 C 62.24 54.97 70.00 63.59 70.00 64.53 C 70.00 66.85 62.69 74.00 60.32 74.00 C 59.14 74.00 51.66 67.00 40.95 55.89 Z M 135.70 72.61 C 135.29 71.57 135.19 70.48 135.48 70.19 C 136.39 69.28 137.19 70.77 136.81 72.67 C 136.46 74.41 136.41 74.41 135.70 72.61 Z M 256.81 61.32 C 257.53 61.03 258.40 61.06 258.73 61.40 C 259.06 61.73 258.47 61.96 257.42 61.92 C 256.25 61.87 256.01 61.64 256.81 61.32 Z M 136.71 51.00 C 137.00 49.90 137.41 49.00 137.62 49.00 C 137.83 49.00 138.00 49.90 138.00 51.00 C 138.00 52.10 137.59 53.00 137.09 53.00 C 136.60 53.00 136.42 52.10 136.71 51.00 Z M 55.53 37.03 C 51.72 33.19 48.86 29.81 49.17 29.50 C 49.47 29.19 56.18 29.07 64.08 29.22 L 78.44 29.50 L 71.60 36.75 C 67.84 40.74 64.24 44.00 63.60 44.00 C 62.97 44.00 59.33 40.86 55.53 37.03 Z M 136.50 34.00 C 136.84 33.45 137.32 33.00 137.56 33.00 C 137.80 33.00 138.00 33.45 138.00 34.00 C 138.00 34.55 137.52 35.00 136.94 35.00 C 136.36 35.00 136.16 34.55 136.50 34.00 Z M 256.50 29.00 C 256.16 28.45 256.33 28.00 256.88 28.00 C 257.43 28.00 258.16 28.45 258.50 29.00 C 258.84 29.55 258.67 30.00 258.12 30.00 C 257.57 30.00 256.84 29.55 256.50 29.00 Z" fill="none" stroke="rgba(255,255,255,0.92)" stroke-width="1.5" stroke-linejoin="round" fill-rule="evenodd"/>
</svg>
