<svg xmlns="http://www.w3.org/2000/svg" viewBox="0 0 100 100" width="100" height="100">
  <path d="M 0.00 50.00 L 0.00 0.00 L 50.00 0.00 L 100.00 0.00 L 100.00 50.00 L 100.00 100.00 L 50.00 100.00 L 0.00 100.00 L 0.00 50.00 Z M 4.73 84.78 C 4.52 82.42 4.35 84.10 4.34 88.50 C 4.34 92.90 4.51 94.82 4.73 92.78 C 4.94 90.73 4.94 87.13 4.73 84.78 Z M 95.98 50.51 L 95.99 5.03 L 76.34 5.46 C 65.53 5.69 44.84 5.99 30.35 6.11 L 4.00 6.34 L 4.00 9.12 L 4.00 11.90 L 17.75 11.49 C 25.31 11.27 44.04 10.99 59.36 10.88 C 79.36 10.73 87.54 10.34 88.33 9.49 C 89.57 8.16 91.14 9.24 92.26 12.20 C 92.61 13.14 92.97 31.50 93.06 53.01 C 93.14 74.51 93.44 92.98 93.72 94.05 C 95.47 100.71 95.97 90.94 95.98 50.51 Z M 61.71 81.42 C 68.10 78.32 74.45 71.32 76.75 64.84 C 78.23 60.67 78.84 60.00 81.17 60.00 C 87.15 60.00 91.79 56.23 90.38 52.54 C 89.51 50.28 84.71 48.00 80.80 48.00 C 77.85 47.99 77.31 47.53 75.72 43.66 C 73.48 38.21 67.13 31.74 61.12 28.78 C 57.41 26.95 54.82 26.50 48.00 26.50 C 40.19 26.50 39.03 26.77 33.74 29.83 C 27.39 33.50 24.12 37.21 20.98 44.31 C 19.20 48.34 18.50 49.00 16.02 49.00 C 9.86 49.00 5.18 52.71 6.62 56.46 C 7.46 58.64 12.24 61.00 15.81 61.00 C 18.34 61.00 18.95 61.59 20.42 65.42 C 21.34 67.85 23.93 71.92 26.17 74.46 C 35.22 84.74 49.23 87.48 61.71 81.42 Z M 4.69 76.27 C 4.44 75.30 4.22 75.85 4.19 77.50 C 4.17 79.15 4.38 79.95 4.66 79.27 C 4.93 78.59 4.95 77.24 4.69 76.27 Z M 40.63 77.53 C 34.84 75.47 29.80 70.99 27.02 65.45 C 21.12 53.70 26.31 39.44 38.50 33.87 C 43.78 31.46 53.22 31.46 58.54 33.88 C 64.55 36.61 70.64 44.05 72.07 50.41 C 75.96 67.83 57.67 83.61 40.63 77.53 Z M 4.66 68.75 C 4.38 68.06 4.16 68.62 4.16 70.00 C 4.16 71.38 4.38 71.94 4.66 71.25 C 4.94 70.56 4.94 69.44 4.66 68.75 Z M 56.63 70.08 C 62.09 67.60 66.60 59.09 65.54 53.26 C 62.79 38.15 42.71 33.41 34.30 45.88 C 29.63 52.81 30.59 61.41 36.67 67.19 C 42.04 72.30 49.40 73.36 56.63 70.08 Z M 4.66 62.75 C 4.38 62.06 4.16 62.62 4.16 64.00 C 4.16 65.38 4.38 65.94 4.66 65.25 C 4.94 64.56 4.94 63.44 4.66 62.75 Z" fill="none" stroke="rgba(255,255,255,0.92)" stroke-width="1.2" stroke-linejoin="round" fill-rule="evenodd"/>
</svg>
