<svg xmlns="http://www.w3.org/2000/svg" viewBox="0 0 400 283" width="400" height="283">
  <path d="M 0.00 141.50 L 0.00 0.00 L 96.30 0.00 C 169.87 0.00 192.88 0.28 193.80 1.20 C 194.73 2.13 195.00 2.13 195.00 1.20 C 195.00 0.27 218.44 0.00 297.50 0.00 L 400.00 0.00 L 400.00 141.50 L 400.00 283.00 L 200.00 283.00 L 0.00 283.00 L 0.00 141.50 Z M 197.50 276.53 C 210.70 276.31 233.31 276.07 247.74 275.99 C 263.52 275.91 274.21 275.46 274.58 274.88 C 274.97 274.25 275.60 274.25 276.37 274.89 C 277.11 275.51 289.73 275.72 310.53 275.47 C 328.66 275.25 353.62 275.03 366.00 274.98 C 378.38 274.94 389.92 274.65 391.65 274.36 L 394.81 273.81 L 394.45 210.66 C 394.26 175.92 393.83 122.53 393.50 92.00 C 393.17 61.47 392.85 30.65 392.79 23.50 C 392.73 16.35 392.30 9.45 391.84 8.18 L 390.99 5.85 L 342.75 6.43 C 316.21 6.75 274.48 7.23 250.00 7.51 C 225.52 7.78 193.35 8.22 178.50 8.48 C 55.18 10.66 50.00 10.74 26.75 10.88 L 6.00 11.00 L 6.49 38.75 C 7.18 78.22 8.00 131.12 8.52 169.50 C 9.76 259.66 10.08 276.33 10.65 277.24 C 11.20 278.13 126.36 277.69 197.50 276.53 Z M 16.91 261.25 C 16.68 239.41 16.04 197.23 15.59 173.50 L 15.09 147.50 L 74.05 147.17 L 133.00 146.84 L 133.10 171.17 C 133.16 184.55 133.35 205.40 133.53 217.50 C 133.70 229.60 133.93 245.87 134.04 253.65 C 134.15 261.44 133.93 268.30 133.56 268.90 C 133.08 269.68 115.85 270.00 74.94 270.00 L 17.00 270.00 L 16.91 261.25 Z M 144.75 269.19 C 143.03 268.99 141.95 268.24 141.88 267.18 C 141.59 263.26 141.13 236.51 140.61 193.00 L 140.06 146.50 L 187.78 146.18 C 214.03 146.01 240.56 145.70 246.75 145.50 L 258.00 145.13 L 258.14 152.32 C 258.47 168.36 258.81 188.51 259.41 227.14 C 259.91 259.85 259.79 267.87 258.75 268.27 C 258.04 268.54 235.64 268.84 208.98 268.94 C 182.32 269.04 157.57 269.21 154.00 269.31 C 150.43 269.42 146.26 269.36 144.75 269.19 Z M 266.92 240.37 C 266.87 225.04 266.62 203.50 266.36 192.50 C 265.85 171.35 265.80 167.67 265.92 153.81 L 266.00 145.11 L 297.75 145.04 C 315.21 145.00 342.43 144.74 358.23 144.45 L 386.95 143.93 L 387.23 201.71 C 387.38 233.50 387.27 261.26 387.00 263.41 L 386.50 267.32 L 326.75 267.78 L 267.00 268.23 L 266.92 240.37 Z M 263.00 260.94 C 263.00 260.36 263.45 260.16 264.00 260.50 C 264.55 260.84 265.00 261.32 265.00 261.56 C 265.00 261.80 264.55 262.00 264.00 262.00 C 263.45 262.00 263.00 261.52 263.00 260.94 Z M 264.08 251.42 C 264.13 250.25 264.36 250.01 264.68 250.81 C 264.97 251.53 264.94 252.40 264.60 252.73 C 264.27 253.06 264.04 252.47 264.08 251.42 Z M 263.08 235.42 C 263.13 234.25 263.36 234.01 263.68 234.81 C 263.97 235.53 263.94 236.40 263.60 236.73 C 263.27 237.06 263.04 236.47 263.08 235.42 Z M 262.54 213.07 C 262.23 212.56 262.42 211.86 262.98 211.51 C 263.54 211.16 264.00 211.58 264.00 212.44 C 264.00 214.20 263.40 214.46 262.54 213.07 Z M 12.60 199.40 C 12.24 198.47 12.18 197.49 12.45 197.21 C 12.73 196.94 13.24 197.47 13.60 198.40 C 13.96 199.33 14.02 200.31 13.75 200.59 C 13.47 200.86 12.96 200.33 12.60 199.40 Z M 390.50 181.00 C 390.16 180.45 390.36 180.00 390.94 180.00 C 391.52 180.00 392.00 180.45 392.00 181.00 C 392.00 181.55 391.80 182.00 391.56 182.00 C 391.32 182.00 390.84 181.55 390.50 181.00 Z M 13.00 146.00 C 13.00 145.45 13.45 145.00 14.00 145.00 C 14.55 145.00 15.00 145.45 15.00 146.00 C 15.00 146.55 14.55 147.00 14.00 147.00 C 13.45 147.00 13.00 146.55 13.00 146.00 Z M 95.50 144.00 C 95.84 143.45 96.32 143.00 96.56 143.00 C 96.80 143.00 97.00 143.45 97.00 144.00 C 97.00 144.55 96.52 145.00 95.94 145.00 C 95.36 145.00 95.16 144.55 95.50 144.00 Z M 152.00 144.62 C 152.00 144.41 153.12 144.02 154.50 143.76 C 155.88 143.49 157.00 143.66 157.00 144.14 C 157.00 144.61 155.88 145.00 154.50 145.00 C 153.12 145.00 152.00 144.83 152.00 144.62 Z M 14.84 126.50 C 14.61 106.26 14.27 91.65 14.00 90.50 C 13.87 89.95 13.87 89.05 14.00 88.50 C 14.59 85.97 13.71 74.46 12.91 74.17 C 12.41 73.98 12.01 73.08 12.02 72.17 C 12.03 70.73 12.16 70.70 12.98 72.00 C 13.59 72.96 13.79 64.02 13.54 47.10 C 13.23 26.96 12.83 20.52 11.85 19.91 C 11.14 19.47 10.86 18.80 11.23 18.43 C 11.61 18.06 23.07 17.56 36.71 17.31 C 50.34 17.07 62.74 16.85 64.25 16.82 C 65.76 16.79 70.93 16.85 75.73 16.94 C 81.09 17.04 84.60 16.69 84.82 16.05 C 85.27 14.68 88.00 14.68 88.00 16.06 C 88.00 16.77 94.80 17.05 109.03 16.92 C 120.59 16.81 130.28 16.95 130.56 17.23 C 131.23 17.89 131.82 47.73 132.17 98.45 L 132.46 139.39 L 99.48 139.71 C 81.34 139.89 54.91 140.14 40.75 140.27 L 15.00 140.51 L 14.84 126.50 Z M 140.49 138.99 C 140.29 138.65 139.86 122.21 139.56 102.44 C 139.25 82.67 138.74 55.23 138.43 41.45 L 137.86 16.40 L 147.18 16.24 C 152.31 16.15 177.65 15.80 203.50 15.47 C 241.03 15.00 250.71 14.61 251.54 13.54 C 252.37 12.46 253.01 12.69 254.79 14.69 C 256.94 17.11 257.00 17.82 257.06 42.33 C 257.09 56.18 257.34 83.36 257.61 102.75 L 258.09 138.00 L 244.80 138.03 C 231.77 138.06 177.53 138.84 153.19 139.35 C 146.41 139.49 140.70 139.33 140.49 138.99 Z M 265.77 137.38 C 265.26 136.49 265.07 121.27 264.70 53.00 L 264.50 15.50 L 272.00 14.81 C 276.12 14.43 291.54 14.09 306.25 14.06 C 323.31 14.02 333.00 13.63 333.00 13.00 C 333.00 12.45 333.70 12.00 334.56 12.00 C 335.42 12.00 335.83 12.47 335.47 13.05 C 335.02 13.78 339.68 13.92 350.66 13.50 C 367.89 12.85 384.12 12.79 384.71 13.38 C 385.04 13.71 385.31 29.70 386.38 113.75 L 386.68 137.00 L 378.59 137.02 C 374.14 137.04 347.05 137.32 318.39 137.65 C 288.71 138.00 266.06 137.88 265.77 137.38 Z M 208.07 118.41 C 221.59 114.46 232.93 102.76 236.43 89.17 L 237.54 84.84 L 242.86 84.55 C 251.39 84.09 256.12 78.84 253.10 73.18 C 251.66 70.49 245.94 68.00 241.21 68.00 C 237.23 68.00 237.22 67.99 233.65 60.48 C 226.88 46.22 215.10 38.01 200.24 37.20 C 190.21 36.65 184.87 37.99 177.10 43.01 C 169.75 47.76 164.50 54.21 161.04 62.73 C 158.65 68.61 157.98 69.46 155.99 69.16 C 152.19 68.60 144.96 71.13 143.35 73.59 C 139.57 79.36 145.09 86.00 153.68 86.00 C 156.96 86.00 158.21 86.44 158.65 87.75 C 162.44 99.12 171.52 111.18 179.24 115.12 C 188.49 119.84 199.06 121.05 208.07 118.41 Z M 191.30 110.96 C 186.07 109.92 183.67 108.68 178.12 104.19 C 160.07 89.60 163.08 58.45 183.51 48.45 C 199.48 40.64 217.59 46.81 226.45 63.09 C 233.63 76.28 229.46 95.22 217.27 104.75 C 210.48 110.06 199.69 112.64 191.30 110.96 Z M 135.08 108.42 C 135.13 107.25 135.36 107.01 135.68 107.81 C 135.97 108.53 135.94 109.40 135.60 109.73 C 135.27 110.06 135.04 109.47 135.08 108.42 Z M 208.60 99.32 C 213.59 96.87 214.38 96.01 217.67 89.34 C 220.98 82.66 221.22 81.57 220.61 76.34 C 218.96 62.27 205.67 52.03 192.83 54.93 C 179.31 57.97 171.49 73.92 176.93 87.33 C 182.26 100.45 195.81 105.58 208.60 99.32 Z M 135.08 86.42 C 135.13 85.25 135.36 85.01 135.68 85.81 C 135.97 86.53 135.94 87.40 135.60 87.73 C 135.27 88.06 135.04 87.47 135.08 86.42 Z M 267.00 10.94 C 267.00 10.36 267.45 10.16 268.00 10.50 C 268.55 10.84 269.00 11.32 269.00 11.56 C 269.00 11.80 268.55 12.00 268.00 12.00 C 267.45 12.00 267.00 11.52 267.00 10.94 Z M 356.50 11.00 C 356.84 10.45 357.32 10.00 357.56 10.00 C 357.80 10.00 358.00 10.45 358.00 11.00 C 358.00 11.55 357.52 12.00 356.94 12.00 C 356.36 12.00 356.16 11.55 356.50 11.00 Z" fill="none" stroke="rgba(255,255,255,0.92)" stroke-width="1.5" stroke-linejoin="round" fill-rule="evenodd"/>
</svg>
