<svg xmlns="http://www.w3.org/2000/svg" viewBox="0 0 100 100" width="100" height="100">
  <path d="M 0.00 50.00 L 0.00 0.00 L 50.00 0.00 L 100.00 0.00 L 100.00 50.00 L 100.00 100.00 L 50.00 100.00 L 0.00 100.00 L 0.00 50.00 Z M 5.59 73.99 C 5.44 61.89 5.02 51.69 4.66 51.33 C 4.30 50.96 4.00 60.87 4.00 73.33 C 4.00 86.58 4.39 96.00 4.93 96.00 C 5.48 96.00 5.74 87.02 5.59 73.99 Z M 96.00 75.33 C 96.00 63.97 95.76 54.90 95.48 55.19 C 94.58 56.08 94.61 96.00 95.50 96.00 C 95.78 96.00 96.00 86.70 96.00 75.33 Z M 30.74 76.00 C 34.54 70.22 38.36 64.92 39.22 64.22 C 40.34 63.30 43.17 63.08 49.14 63.44 C 53.74 63.72 58.17 63.96 59.00 63.98 C 59.86 64.00 63.06 68.70 66.50 75.00 C 72.31 85.63 73.77 87.06 76.83 85.13 C 77.86 84.47 77.02 82.23 73.08 75.14 C 70.28 70.11 67.88 65.50 67.75 64.90 C 67.58 64.17 71.05 63.86 78.50 63.95 L 89.50 64.08 L 92.75 57.75 L 96.00 51.42 L 96.00 28.71 L 96.00 6.00 L 81.25 5.99 C 73.14 5.99 52.42 5.87 35.21 5.74 L 3.93 5.50 L 4.26 27.50 C 4.58 49.22 4.62 49.59 7.48 56.25 L 10.38 63.00 L 20.69 63.00 C 27.15 63.00 31.00 63.39 31.00 64.04 C 31.00 64.61 28.30 69.09 25.00 74.00 C 21.70 78.91 19.00 83.37 19.00 83.91 C 19.00 84.99 22.09 87.07 23.16 86.72 C 23.52 86.60 26.93 81.78 30.74 76.00 Z M 33.44 57.23 L 14.39 56.96 L 13.10 53.40 C 12.39 51.45 12.01 49.66 12.25 49.42 C 12.48 49.18 30.00 49.29 51.17 49.66 L 89.66 50.32 L 87.58 54.14 L 85.50 57.96 L 69.00 57.73 C 59.92 57.60 43.92 57.38 33.44 57.23 Z M 5.87 43.75 C 5.43 42.88 5.16 16.91 5.57 14.31 L 6.07 11.12 L 50.03 11.15 L 94.00 11.17 L 94.00 27.59 L 94.00 44.00 L 75.03 44.00 L 56.05 44.00 L 54.53 41.05 C 53.55 39.17 53.00 35.36 53.00 30.55 L 53.00 23.00 L 50.00 23.00 L 47.00 23.00 L 47.00 32.30 C 47.00 38.20 46.56 42.04 45.80 42.80 C 44.95 43.65 38.98 44.00 25.30 44.00 C 14.68 44.00 5.94 43.89 5.87 43.75 Z M 57.50 9.00 C 57.84 8.45 58.88 8.01 59.81 8.02 C 61.27 8.03 61.29 8.16 60.00 9.00 C 58.04 10.27 56.72 10.27 57.50 9.00 Z" fill="none" stroke="rgba(255,255,255,0.92)" stroke-width="1.2" stroke-linejoin="round" fill-rule="evenodd"/>
</svg>
