<svg xmlns="http://www.w3.org/2000/svg" viewBox="0 0 400 157" width="400" height="157">
  <path d="M 0.00 78.50 L 0.00 0.00 L 200.00 0.00 L 400.00 0.00 L 400.00 78.50 L 400.00 157.00 L 305.20 157.00 C 232.80 157.00 210.12 156.72 209.20 155.80 C 208.27 154.87 208.00 154.87 208.00 155.80 C 208.00 156.73 184.22 157.00 104.00 157.00 L 0.00 157.00 L 0.00 78.50 Z M 240.36 150.50 C 269.43 150.26 294.03 149.81 295.03 149.49 C 296.02 149.18 297.13 149.39 297.48 149.98 C 297.84 150.56 298.62 150.73 299.21 150.37 C 299.80 150.01 320.80 149.72 345.89 149.73 C 373.30 149.75 392.23 149.38 393.34 148.80 C 395.11 147.87 395.15 145.82 394.49 99.67 C 394.11 73.17 393.85 41.52 393.91 29.31 C 393.98 15.39 393.64 6.90 393.01 6.51 C 392.22 6.02 71.19 7.58 19.50 8.33 L 7.50 8.50 L 7.41 80.29 L 7.33 152.09 L 97.41 151.51 C 146.96 151.19 211.29 150.74 240.36 150.50 Z M 226.50 147.00 C 226.84 146.45 227.79 146.00 228.62 146.00 C 229.44 146.00 229.84 146.45 229.50 147.00 C 229.16 147.55 228.21 148.00 227.38 148.00 C 226.56 148.00 226.16 147.55 226.50 147.00 Z M 237.00 147.00 C 237.00 146.45 237.48 146.00 238.06 146.00 C 238.64 146.00 238.84 146.45 238.50 147.00 C 238.16 147.55 237.68 148.00 237.44 148.00 C 237.20 148.00 237.00 147.55 237.00 147.00 Z M 248.00 147.00 C 248.00 146.45 248.45 146.00 249.00 146.00 C 249.55 146.00 250.00 146.45 250.00 147.00 C 250.00 147.55 249.55 148.00 249.00 148.00 C 248.45 148.00 248.00 147.55 248.00 147.00 Z M 264.00 147.00 C 264.00 146.45 264.48 146.00 265.06 146.00 C 265.64 146.00 265.84 146.45 265.50 147.00 C 265.16 147.55 264.68 148.00 264.44 148.00 C 264.20 148.00 264.00 147.55 264.00 147.00 Z M 272.00 146.00 C 272.00 145.45 272.48 145.00 273.06 145.00 C 273.64 145.00 273.84 145.45 273.50 146.00 C 273.16 146.55 272.68 147.00 272.44 147.00 C 272.20 147.00 272.00 146.55 272.00 146.00 Z M 224.81 145.32 C 225.53 145.03 226.40 145.06 226.73 145.40 C 227.06 145.73 226.47 145.96 225.42 145.92 C 224.25 145.87 224.01 145.64 224.81 145.32 Z M 18.75 144.19 L 15.00 143.88 L 14.91 136.69 C 14.59 111.57 15.10 32.57 15.58 32.08 C 15.90 31.76 42.68 31.36 75.08 31.20 C 131.29 30.91 134.00 30.98 134.05 32.70 C 134.08 33.69 134.16 59.02 134.24 89.00 L 134.37 143.50 L 107.94 143.76 C 47.96 144.36 22.30 144.48 18.75 144.19 Z M 141.90 138.07 C 141.84 135.01 141.85 124.40 141.91 114.50 C 141.97 104.60 141.57 94.95 141.03 93.07 C 140.48 91.18 140.23 89.43 140.47 89.19 C 140.72 88.95 142.32 89.93 144.03 91.38 C 145.75 92.82 147.57 94.00 148.08 94.00 C 148.61 94.00 149.00 103.02 149.00 115.50 L 149.00 137.00 L 200.41 137.00 L 251.81 137.00 L 252.33 127.25 C 252.99 114.65 254.21 108.12 257.50 99.50 C 258.97 95.65 260.36 92.31 260.58 92.08 C 260.81 91.85 261.00 103.17 261.00 117.23 L 261.00 142.80 L 241.75 142.94 C 231.16 143.02 204.39 143.21 182.25 143.36 L 142.00 143.64 L 141.90 138.07 Z M 272.36 142.19 C 269.48 141.91 269.17 141.53 268.68 137.69 C 268.39 135.39 268.07 115.50 267.97 93.50 C 267.87 71.50 267.69 48.28 267.57 41.91 L 267.36 30.32 L 297.93 29.66 C 349.30 28.56 385.99 28.80 386.09 30.25 C 386.22 32.14 386.89 83.96 387.18 114.20 C 387.31 128.89 387.21 141.13 386.94 141.39 C 386.41 141.92 277.41 142.69 272.36 142.19 Z M 390.00 134.00 C 390.00 133.45 390.45 133.00 391.00 133.00 C 391.55 133.00 392.00 133.45 392.00 134.00 C 392.00 134.55 391.55 135.00 391.00 135.00 C 390.45 135.00 390.00 134.55 390.00 134.00 Z M 265.08 131.42 C 265.13 130.25 265.36 130.01 265.68 130.81 C 265.97 131.53 265.94 132.40 265.60 132.73 C 265.27 133.06 265.04 132.47 265.08 131.42 Z M 157.50 127.86 C 157.19 127.06 157.07 119.90 157.22 111.95 L 157.50 97.50 L 162.00 97.81 C 168.45 98.26 169.73 98.79 170.36 101.29 C 171.93 107.50 184.75 121.24 193.00 125.55 C 198.33 128.33 205.78 127.90 211.67 124.47 C 217.72 120.96 228.01 110.61 230.33 105.71 C 231.30 103.67 232.30 102.00 232.56 102.00 C 232.82 102.00 232.78 104.36 232.49 107.25 C 232.19 110.14 232.23 114.21 232.57 116.30 C 233.28 120.64 237.35 125.00 240.68 125.00 C 242.80 125.00 244.70 126.63 243.73 127.60 C 243.47 127.86 224.09 128.35 200.66 128.69 C 163.94 129.23 157.98 129.11 157.50 127.86 Z M 138.08 120.42 C 138.13 119.25 138.36 119.01 138.68 119.81 C 138.97 120.53 138.94 121.40 138.60 121.73 C 138.27 122.06 138.04 121.47 138.08 120.42 Z M 197.15 116.24 C 195.44 111.93 193.69 103.98 194.31 103.36 C 195.25 102.41 197.00 104.02 197.00 105.84 C 197.00 106.79 197.61 109.92 198.36 112.81 C 199.81 118.40 198.96 120.81 197.15 116.24 Z M 206.68 114.75 C 205.35 109.16 204.84 103.00 205.71 103.00 C 206.67 103.00 209.00 111.56 209.00 115.08 C 209.00 117.73 207.34 117.50 206.68 114.75 Z M 241.67 116.33 C 240.64 115.30 240.88 112.19 242.04 111.47 C 243.93 110.31 246.08 112.99 244.94 115.11 C 243.89 117.07 242.81 117.48 241.67 116.33 Z M 137.67 113.33 C 136.45 112.12 136.97 109.22 138.51 108.63 C 139.72 108.17 139.89 108.60 139.37 110.78 C 138.58 114.07 138.51 114.18 137.67 113.33 Z M 184.24 108.01 C 182.66 105.48 182.68 105.00 184.39 105.00 C 185.70 105.00 187.00 107.03 187.00 109.08 C 187.00 110.66 185.54 110.09 184.24 108.01 Z M 216.00 107.06 C 216.00 104.65 217.81 103.41 219.24 104.84 C 220.01 105.61 219.94 106.36 219.04 107.46 C 217.29 109.56 216.00 109.39 216.00 107.06 Z M 240.71 101.00 C 240.08 98.58 240.54 98.26 245.85 97.41 C 250.42 96.68 250.51 96.78 248.84 100.45 C 247.33 103.77 241.54 104.16 240.71 101.00 Z M 177.11 96.63 C 175.40 94.57 174.18 86.47 174.96 82.26 C 179.08 59.96 204.15 51.52 219.90 67.13 C 226.21 73.37 229.29 84.49 227.04 92.85 L 225.88 97.16 L 222.01 96.50 C 207.46 94.04 193.66 94.37 180.36 97.48 C 179.19 97.76 177.73 97.37 177.11 96.63 Z M 263.00 93.61 C 263.00 92.84 263.68 91.95 264.50 91.64 C 266.18 90.99 266.26 91.16 265.39 93.42 C 264.64 95.37 263.00 95.50 263.00 93.61 Z M 137.00 91.44 C 137.00 90.58 137.45 90.16 138.00 90.50 C 138.55 90.84 139.00 91.54 139.00 92.06 C 139.00 92.58 138.55 93.00 138.00 93.00 C 137.45 93.00 137.00 92.30 137.00 91.44 Z M 261.06 91.00 C 261.06 90.17 261.71 88.38 262.50 87.00 C 263.29 85.62 263.99 82.70 264.07 80.50 L 264.20 76.50 L 264.97 79.72 C 265.39 81.49 265.54 83.97 265.29 85.24 C 264.74 88.12 261.04 93.15 261.06 91.00 Z M 160.50 88.92 C 153.55 87.94 150.39 86.52 148.40 83.49 C 146.78 81.01 146.79 80.76 148.69 78.19 C 151.04 75.03 156.26 73.04 164.18 72.28 L 169.86 71.74 L 168.47 75.62 C 167.71 77.75 167.07 81.61 167.04 84.19 C 167.02 86.77 166.66 89.05 166.25 89.26 C 165.84 89.46 163.25 89.31 160.50 88.92 Z M 236.00 85.80 C 236.00 83.36 235.29 78.99 234.43 76.08 C 233.57 73.18 233.01 70.68 233.18 70.53 C 233.94 69.88 247.13 72.03 250.16 73.30 C 257.56 76.39 257.34 83.65 249.75 86.97 C 247.41 88.00 243.36 89.15 240.75 89.53 L 236.00 90.23 L 236.00 85.80 Z M 136.00 81.00 C 136.00 80.45 136.42 80.00 136.94 80.00 C 137.46 80.00 138.16 80.45 138.50 81.00 C 138.84 81.55 138.42 82.00 137.56 82.00 C 136.70 82.00 136.00 81.55 136.00 81.00 Z M 137.64 77.50 C 137.95 76.67 138.39 76.00 138.61 76.00 C 138.82 76.00 139.00 76.67 139.00 77.50 C 139.00 78.33 138.56 79.00 138.03 79.00 C 137.50 79.00 137.32 78.33 137.64 77.50 Z M 260.62 71.30 C 259.59 69.91 257.29 67.92 255.51 66.88 L 252.29 64.97 L 251.57 49.24 C 251.17 40.59 250.77 33.51 250.67 33.51 C 250.58 33.50 227.66 33.64 199.75 33.82 L 149.00 34.13 L 148.99 50.82 L 148.98 67.50 L 145.24 70.00 C 140.49 73.17 139.20 73.71 140.60 71.91 C 141.33 70.98 141.65 63.87 141.55 50.81 L 141.40 31.13 L 150.95 30.77 C 156.20 30.57 183.61 30.30 211.85 30.17 C 259.29 29.95 263.08 30.06 261.58 31.56 C 260.16 32.98 260.01 35.53 260.37 51.11 C 260.65 63.03 261.19 69.52 261.99 70.49 C 262.65 71.28 263.03 72.36 262.84 72.87 C 262.66 73.39 261.65 72.68 260.62 71.30 Z M 137.02 70.25 C 137.01 69.01 137.45 68.00 138.00 68.00 C 139.25 68.00 139.25 69.06 138.00 71.00 C 137.22 72.21 137.03 72.07 137.02 70.25 Z M 264.08 70.42 C 264.13 69.25 264.36 69.01 264.68 69.81 C 264.97 70.53 264.94 71.40 264.60 71.73 C 264.27 72.06 264.04 71.47 264.08 70.42 Z M 157.00 53.61 L 157.00 42.00 L 195.75 41.89 C 217.06 41.83 236.53 41.77 239.00 41.76 L 243.50 41.74 L 243.78 52.38 L 244.07 63.02 L 235.28 62.39 C 230.45 62.04 226.05 61.24 225.50 60.61 C 223.70 58.53 214.59 53.26 210.62 51.99 C 208.28 51.25 203.70 50.94 199.12 51.22 C 190.77 51.72 184.16 54.42 178.23 59.76 C 175.45 62.27 173.87 62.80 167.63 63.33 C 163.60 63.67 159.55 64.23 158.65 64.58 C 157.18 65.15 157.00 63.98 157.00 53.61 Z M 263.16 62.00 C 263.16 60.62 263.38 60.06 263.66 60.75 C 263.94 61.44 263.94 62.56 263.66 63.25 C 263.38 63.94 263.16 63.38 263.16 62.00 Z M 137.67 60.33 C 136.67 59.34 136.86 55.80 137.88 56.43 C 139.03 57.13 140.03 61.00 139.07 61.00 C 138.67 61.00 138.03 60.70 137.67 60.33 Z M 262.67 51.50 C 263.11 49.85 263.40 47.04 263.31 45.25 C 263.22 43.46 263.62 42.00 264.21 42.00 C 265.58 42.00 264.49 51.92 262.96 53.42 C 262.16 54.20 262.08 53.67 262.67 51.50 Z M 137.50 50.00 C 137.16 49.45 137.36 49.00 137.94 49.00 C 138.52 49.00 139.00 49.45 139.00 50.00 C 139.00 50.55 138.80 51.00 138.56 51.00 C 138.32 51.00 137.84 50.55 137.50 50.00 Z M 11.16 42.00 C 11.16 40.62 11.38 40.06 11.66 40.75 C 11.94 41.44 11.94 42.56 11.66 43.25 C 11.38 43.94 11.16 43.38 11.16 42.00 Z M 137.16 34.46 C 135.63 31.10 135.66 31.00 138.02 31.00 C 139.71 31.00 139.93 31.44 139.38 33.75 C 138.50 37.40 138.50 37.40 137.16 34.46 Z M 11.00 32.94 C 11.00 32.36 11.45 32.16 12.00 32.50 C 12.55 32.84 13.00 33.32 13.00 33.56 C 13.00 33.80 12.55 34.00 12.00 34.00 C 11.45 34.00 11.00 33.52 11.00 32.94 Z M 263.45 32.91 C 263.08 32.31 263.28 31.32 263.89 30.71 C 264.70 29.90 265.00 30.18 265.00 31.80 C 265.00 34.21 264.48 34.59 263.45 32.91 Z M 388.81 30.32 C 389.53 30.03 390.40 30.06 390.73 30.40 C 391.06 30.73 390.47 30.96 389.42 30.92 C 388.25 30.87 388.01 30.64 388.81 30.32 Z" fill="none" stroke="rgba(255,255,255,0.92)" stroke-width="1.5" stroke-linejoin="round" fill-rule="evenodd"/>
</svg>
