<svg xmlns="http://www.w3.org/2000/svg" viewBox="0 0 392 400" width="392" height="400">
  <path d="M 0.00 200.00 L 0.00 0.00 L 196.00 0.00 L 392.00 0.00 L 392.00 200.00 L 392.00 400.00 L 328.00 400.00 C 292.80 400.00 263.96 399.89 263.91 399.75 C 263.86 399.61 263.61 371.38 263.35 337.00 C 263.04 296.53 263.23 273.62 263.87 272.00 C 264.57 270.25 264.89 270.03 264.94 271.25 C 265.01 273.33 264.52 273.25 278.84 273.49 C 287.56 273.65 290.30 273.38 290.70 272.35 C 291.31 270.76 293.68 270.55 294.18 272.04 C 294.39 272.68 298.91 273.05 306.01 273.02 C 312.33 272.99 332.91 272.87 351.75 272.76 L 385.99 272.57 L 386.53 269.53 C 386.98 267.05 386.84 228.87 386.08 145.15 L 386.00 135.80 L 324.00 136.15 L 262.00 136.50 L 261.86 80.50 C 261.78 49.70 261.74 20.54 261.77 15.70 L 261.83 6.90 L 229.66 7.56 C 211.97 7.92 182.20 8.27 163.50 8.35 L 129.50 8.50 L 129.46 38.00 C 129.44 54.23 129.67 82.35 129.96 100.50 C 130.26 118.65 130.36 134.40 130.18 135.50 C 129.87 137.46 129.04 137.50 89.68 137.62 C 67.58 137.69 39.71 137.80 27.74 137.87 L 5.99 138.00 L 6.44 178.25 C 6.68 200.39 6.95 231.00 7.02 246.27 L 7.16 274.05 L 68.03 273.77 L 128.91 273.50 L 129.62 271.00 C 131.16 265.63 131.70 278.28 131.93 325.46 C 132.06 351.88 132.32 379.46 132.50 386.75 L 132.84 400.00 L 66.42 400.00 L 0.00 400.00 L 0.00 200.00 Z M 153.37 395.22 L 140.24 394.94 L 139.79 392.22 C 139.54 390.72 139.25 365.43 139.13 336.00 C 138.93 283.03 138.72 277.68 136.76 275.25 C 135.96 274.25 148.16 274.00 197.13 274.02 C 235.02 274.02 259.07 274.40 260.00 275.00 C 261.16 275.75 260.87 275.97 258.69 275.98 L 255.89 276.00 L 256.08 335.75 L 256.27 395.50 L 211.39 395.50 C 186.70 395.50 160.59 395.37 153.37 395.22 Z M 259.16 362.00 C 259.16 360.62 259.38 360.06 259.66 360.75 C 259.94 361.44 259.94 362.56 259.66 363.25 C 259.38 363.94 259.16 363.38 259.16 362.00 Z M 134.23 282.00 C 134.23 280.07 134.44 279.29 134.69 280.25 C 134.94 281.21 134.94 282.79 134.69 283.75 C 134.44 284.71 134.23 283.93 134.23 282.00 Z M 134.08 275.42 C 134.13 274.25 134.36 274.01 134.68 274.81 C 134.97 275.53 134.94 276.40 134.60 276.73 C 134.27 277.06 134.04 276.47 134.08 275.42 Z M 115.51 270.98 C 115.86 270.42 116.56 270.23 117.07 270.54 C 118.46 271.40 118.20 272.00 116.44 272.00 C 115.58 272.00 115.16 271.54 115.51 270.98 Z M 278.81 271.32 C 279.53 271.03 280.40 271.06 280.73 271.40 C 281.06 271.73 280.47 271.96 279.42 271.92 C 278.25 271.87 278.01 271.64 278.81 271.32 Z M 14.58 262.65 C 14.30 260.37 13.84 234.20 13.56 204.50 C 13.28 174.80 12.77 148.70 12.43 146.50 C 11.83 142.70 11.93 142.50 14.40 142.50 C 15.83 142.50 17.00 142.83 17.00 143.24 C 17.00 143.64 19.59 143.91 22.75 143.84 C 25.91 143.76 32.33 143.98 37.00 144.32 C 41.98 144.67 44.47 144.58 43.00 144.10 C 41.53 143.61 47.46 143.39 57.35 143.56 C 66.61 143.72 74.45 144.11 74.76 144.43 C 75.84 145.51 77.00 145.00 77.00 143.44 C 77.00 142.58 77.46 142.16 78.02 142.51 C 78.58 142.86 78.75 143.59 78.41 144.15 C 78.02 144.77 78.87 144.97 80.64 144.67 C 84.58 144.01 87.00 142.95 87.00 141.89 C 87.00 140.39 90.02 140.90 90.64 142.50 C 91.07 143.62 92.86 144.00 97.71 144.00 C 103.08 144.00 104.11 143.74 103.64 142.50 C 103.00 140.84 104.53 140.42 105.50 141.99 C 106.14 143.03 123.07 142.69 124.83 141.61 C 125.36 141.28 126.05 141.68 126.36 142.51 C 127.23 144.76 128.98 144.30 129.18 141.75 C 129.75 134.55 130.77 182.12 130.87 221.00 L 131.00 266.50 L 73.05 266.65 L 15.09 266.81 L 14.58 262.65 Z M 262.81 206.24 C 262.56 172.83 262.68 144.15 263.08 142.50 C 263.47 140.85 263.84 140.06 263.90 140.75 C 264.03 142.37 266.71 142.38 267.25 140.75 C 267.56 139.83 268.63 140.02 271.34 141.49 C 274.51 143.19 275.32 143.28 277.15 142.14 C 278.39 141.36 279.52 141.20 279.88 141.75 C 280.68 142.95 318.18 143.10 317.43 141.89 C 317.13 141.40 317.56 141.00 318.38 141.00 C 319.21 141.00 320.11 141.37 320.39 141.83 C 321.13 143.02 375.22 143.06 376.65 141.87 C 377.35 141.29 378.05 141.27 378.39 141.82 C 379.22 143.16 379.53 263.81 378.71 264.63 C 378.33 265.01 354.50 265.46 325.76 265.64 C 297.02 265.81 271.20 266.19 268.38 266.47 L 263.26 266.99 L 262.81 206.24 Z M 138.99 255.25 C 138.99 249.34 138.69 222.13 138.34 194.79 L 137.69 145.09 L 196.34 145.08 L 255.00 145.08 L 255.00 205.54 L 255.00 266.00 L 197.00 266.00 L 139.00 266.00 L 138.99 255.25 Z M 184.58 259.32 C 199.80 257.80 202.48 257.77 209.08 259.06 C 223.95 261.95 234.53 260.40 240.47 254.47 C 249.63 245.30 246.15 231.14 233.35 225.48 C 230.27 224.11 226.74 223.00 225.50 223.00 C 222.06 223.00 214.65 220.15 213.25 218.28 C 211.61 216.10 211.66 212.84 213.37 210.51 C 214.68 208.71 215.12 208.70 223.41 210.18 C 233.88 212.04 239.01 211.32 243.07 207.43 C 245.58 205.03 246.00 203.87 246.00 199.40 C 246.00 194.84 245.51 193.55 242.10 189.25 C 239.96 186.54 235.88 182.61 233.03 180.52 C 227.10 176.17 224.61 172.51 220.52 162.18 C 215.90 150.50 211.46 147.72 197.49 147.80 C 186.07 147.86 178.24 150.51 174.34 155.62 C 172.11 158.55 171.60 160.46 171.10 167.80 L 170.50 176.50 L 160.50 177.12 C 147.34 177.94 145.01 178.76 142.20 183.57 C 140.30 186.81 139.98 188.52 140.36 193.32 C 140.86 199.55 141.82 201.28 151.06 212.50 C 158.29 221.27 158.46 221.98 155.32 229.30 C 153.30 234.01 152.56 237.66 152.23 244.50 C 151.84 252.67 152.00 253.76 154.04 256.33 C 158.19 261.59 160.07 261.77 184.58 259.32 Z M 161.00 252.06 C 158.52 250.42 159.19 240.60 162.32 232.92 C 166.97 221.50 166.08 217.92 155.43 205.38 C 149.49 198.38 148.00 195.50 148.00 191.06 C 148.00 186.53 150.11 185.66 162.56 185.06 C 177.32 184.34 177.84 183.89 178.65 171.44 C 178.97 166.52 179.83 161.55 180.55 160.39 C 182.27 157.62 188.92 156.00 198.54 156.00 C 205.89 156.00 206.33 156.13 209.54 159.34 C 211.38 161.18 213.20 163.99 213.58 165.59 C 214.42 169.04 218.47 177.39 221.19 181.23 C 222.25 182.74 225.45 185.53 228.31 187.45 C 233.96 191.23 238.00 196.38 238.00 199.79 C 238.00 202.92 234.50 203.46 223.61 202.01 C 215.41 200.93 213.95 200.98 211.17 202.41 C 206.48 204.84 204.56 208.44 204.65 214.62 C 204.78 223.79 209.14 227.81 221.99 230.61 C 232.08 232.80 235.68 235.08 237.04 240.15 C 237.92 243.42 237.83 244.61 236.56 246.55 C 233.16 251.74 225.58 253.42 214.50 251.46 C 205.27 249.82 194.11 249.62 185.50 250.93 C 174.98 252.53 162.58 253.10 161.00 252.06 Z M 382.08 248.42 C 382.13 247.25 382.36 247.01 382.68 247.81 C 382.97 248.53 382.94 249.40 382.60 249.73 C 382.27 250.06 382.04 249.47 382.08 248.42 Z M 382.25 234.50 C 382.26 232.30 382.47 231.52 382.71 232.76 C 382.95 234.01 382.94 235.81 382.69 236.76 C 382.44 237.72 382.24 236.70 382.25 234.50 Z M 10.00 211.06 C 10.00 210.54 10.45 209.84 11.00 209.50 C 11.55 209.16 12.00 209.58 12.00 210.44 C 12.00 211.30 11.55 212.00 11.00 212.00 C 10.45 212.00 10.00 211.58 10.00 211.06 Z M 382.07 199.05 C 382.02 196.42 382.28 195.88 383.17 196.77 C 384.03 197.63 384.05 198.53 383.24 200.22 C 382.20 202.36 382.13 202.29 382.07 199.05 Z M 9.00 154.00 C 9.00 153.45 9.45 153.00 10.00 153.00 C 10.55 153.00 11.00 153.45 11.00 154.00 C 11.00 154.55 10.55 155.00 10.00 155.00 C 9.45 155.00 9.00 154.55 9.00 154.00 Z M 98.75 141.34 C 99.44 141.06 100.56 141.06 101.25 141.34 C 101.94 141.62 101.38 141.84 100.00 141.84 C 98.62 141.84 98.06 141.62 98.75 141.34 Z M 137.74 134.75 C 137.48 133.51 137.18 119.68 137.08 104.00 C 136.97 88.32 136.68 70.33 136.43 64.00 C 136.18 57.67 135.95 45.39 135.93 36.70 C 135.89 23.99 135.60 20.79 134.46 20.35 C 133.51 19.98 133.18 18.75 133.45 16.65 C 133.68 14.92 133.90 12.92 133.93 12.20 C 133.98 11.24 135.63 11.01 140.36 11.31 C 143.86 11.53 147.21 12.01 147.79 12.37 C 148.38 12.74 149.13 12.59 149.46 12.06 C 149.80 11.52 152.26 11.18 154.94 11.29 C 157.62 11.41 159.58 11.87 159.30 12.33 C 159.02 12.78 160.97 12.81 163.64 12.40 C 169.53 11.48 183.59 11.59 186.91 12.59 C 188.57 13.09 189.10 12.97 188.62 12.19 C 188.14 11.42 189.62 11.09 193.47 11.14 C 196.52 11.18 199.26 11.62 199.57 12.12 C 199.88 12.62 200.57 12.77 201.09 12.44 C 201.62 12.12 206.65 11.67 212.27 11.45 C 217.90 11.23 226.78 10.85 232.00 10.61 C 242.92 10.09 253.21 10.85 252.43 12.12 C 252.14 12.59 252.57 12.72 253.40 12.40 C 254.73 11.89 254.91 19.16 254.97 74.41 L 255.04 137.00 L 196.63 137.00 L 138.22 137.00 L 137.74 134.75 Z M 133.08 124.42 C 133.13 123.25 133.36 123.01 133.68 123.81 C 133.97 124.53 133.94 125.40 133.60 125.73 C 133.27 126.06 133.04 125.47 133.08 124.42 Z M 134.19 119.50 C 134.22 117.85 134.44 117.30 134.69 118.27 C 134.95 119.24 134.93 120.59 134.66 121.27 C 134.38 121.95 134.17 121.15 134.19 119.50 Z M 110.00 108.24 C 110.00 107.18 82.17 79.49 81.66 80.05 C 81.44 80.30 80.31 82.67 79.15 85.32 C 77.78 88.46 76.64 89.89 75.87 89.42 C 75.21 89.01 74.11 89.50 73.36 90.53 C 72.22 92.08 72.26 92.63 73.58 94.09 C 75.00 95.66 75.00 96.10 73.57 98.86 C 72.71 100.53 72.00 102.82 72.00 103.95 C 72.00 105.71 72.68 106.02 76.75 106.17 C 91.19 106.67 97.05 107.07 102.00 107.86 C 109.57 109.08 110.00 109.10 110.00 108.24 Z M 133.38 101.56 C 133.08 100.77 133.31 99.31 133.89 98.31 C 134.78 96.77 134.94 96.99 134.97 99.75 C 135.00 103.18 134.31 103.97 133.38 101.56 Z M 133.07 94.31 C 133.11 93.86 133.53 92.60 134.00 91.50 C 134.83 89.57 134.86 89.58 134.93 91.69 C 134.97 92.90 134.55 94.16 134.00 94.50 C 133.45 94.84 133.03 94.75 133.07 94.31 Z M 66.52 86.95 C 67.29 84.52 66.28 83.16 60.96 79.47 C 56.66 76.49 56.19 76.51 55.77 79.70 C 55.58 81.14 56.87 82.86 60.00 85.33 C 65.31 89.54 65.67 89.63 66.52 86.95 Z M 134.08 83.42 C 134.13 82.25 134.36 82.01 134.68 82.81 C 134.97 83.53 134.94 84.40 134.60 84.73 C 134.27 85.06 134.04 84.47 134.08 83.42 Z M 258.00 76.44 C 258.00 75.03 258.41 74.13 258.91 74.44 C 259.40 74.75 259.58 75.90 259.29 77.00 C 258.57 79.75 258.00 79.51 258.00 76.44 Z M 50.84 73.69 C 51.67 72.70 51.07 71.10 48.44 67.19 C 44.88 61.90 42.69 60.75 41.60 63.59 C 40.91 65.40 41.23 66.07 45.25 71.25 C 48.43 75.34 49.20 75.67 50.84 73.69 Z M 258.08 62.42 C 258.13 61.25 258.36 61.01 258.68 61.81 C 258.97 62.53 258.94 63.40 258.60 63.73 C 258.27 64.06 258.04 63.47 258.08 62.42 Z M 134.08 61.42 C 134.13 60.25 134.36 60.01 134.68 60.81 C 134.97 61.53 134.94 62.40 134.60 62.73 C 134.27 63.06 134.04 62.47 134.08 61.42 Z M 39.94 53.75 C 39.85 48.32 37.76 43.50 35.50 43.50 C 33.88 43.50 33.54 44.09 33.73 46.58 C 34.33 54.51 40.07 61.14 39.94 53.75 Z M 36.79 29.36 C 37.03 24.45 36.77 23.13 35.45 22.62 C 32.72 21.57 32.00 22.87 32.00 28.89 C 32.00 35.06 32.50 36.24 34.95 35.77 C 36.11 35.55 36.57 33.93 36.79 29.36 Z M 132.71 26.00 C 132.42 24.90 132.60 23.75 133.09 23.44 C 133.59 23.13 134.00 24.03 134.00 25.44 C 134.00 28.51 133.43 28.75 132.71 26.00 Z M 40.97 9.78 C 43.43 0.66 39.31 -1.29 36.49 7.66 C 34.78 13.12 34.78 13.36 36.55 14.66 C 38.83 16.33 39.38 15.72 40.97 9.78 Z" fill="none" stroke="rgba(255,255,255,0.92)" stroke-width="1.5" stroke-linejoin="round" fill-rule="evenodd"/>
</svg>
