<svg xmlns="http://www.w3.org/2000/svg" viewBox="0 0 100 100" width="100" height="100">
  <path d="M 0.00 50.00 L 0.00 0.00 L 50.00 0.00 L 100.00 0.00 L 100.00 50.00 L 100.00 100.00 L 50.00 100.00 L 0.00 100.00 L 0.00 50.00 Z M 6.00 52.50 L 6.00 9.00 L 42.25 8.77 C 62.19 8.64 82.10 8.53 86.50 8.52 L 94.50 8.50 L 95.02 52.50 L 95.53 96.50 L 95.77 50.25 L 96.00 4.00 L 50.00 4.00 L 4.00 4.00 L 4.00 50.00 C 4.00 80.00 4.35 96.00 5.00 96.00 C 5.65 96.00 6.00 80.83 6.00 52.50 Z M 58.50 94.52 C 80.60 94.48 82.57 94.05 86.02 88.46 C 88.53 84.40 88.54 79.40 86.04 75.30 C 83.46 71.07 80.80 69.48 73.00 67.50 C 65.29 65.55 62.00 63.63 62.00 61.10 C 62.00 57.40 64.58 56.52 71.83 57.74 C 79.90 59.10 83.12 58.56 86.12 55.37 C 90.93 50.25 87.87 42.72 77.91 35.16 C 74.47 32.55 72.59 29.88 69.34 22.98 C 64.31 12.27 62.44 11.00 51.73 11.00 C 42.74 11.00 35.53 13.26 33.20 16.81 C 32.24 18.28 31.28 22.25 31.00 25.95 L 30.50 32.50 L 21.31 33.08 C 16.25 33.40 11.43 34.23 10.61 34.91 C 8.28 36.84 6.73 42.73 7.48 46.74 C 7.90 48.97 10.35 53.05 13.90 57.42 C 17.06 61.32 19.97 65.06 20.37 65.74 C 20.77 66.42 20.14 69.12 18.95 71.74 C 15.96 78.37 15.20 88.14 17.42 91.52 C 19.92 95.34 22.60 96.08 31.00 95.27 C 35.12 94.88 47.50 94.54 58.50 94.52 Z M 23.75 88.96 C 21.30 87.48 21.53 82.71 24.45 74.34 C 25.89 70.22 26.65 66.33 26.30 64.91 C 25.98 63.59 23.36 59.58 20.49 56.00 C 14.50 48.55 13.00 45.95 13.00 43.10 C 13.00 40.09 16.01 39.00 24.32 39.00 C 34.60 39.00 36.07 37.73 36.75 28.23 C 37.42 18.84 38.55 17.81 48.85 17.21 C 53.78 16.93 57.50 17.20 58.88 17.93 C 60.14 18.61 62.69 22.62 64.93 27.48 C 68.28 34.71 69.63 36.49 74.93 40.60 C 80.85 45.20 82.98 48.61 81.46 51.06 C 80.94 51.91 78.25 52.04 71.93 51.55 C 61.72 50.75 59.52 51.52 57.39 56.62 C 56.25 59.33 56.17 60.93 57.02 64.08 C 58.32 68.89 61.96 71.44 69.92 73.09 C 77.30 74.62 79.58 75.77 80.89 78.66 C 82.53 82.26 82.25 84.46 79.89 86.60 C 77.96 88.35 75.97 88.50 55.14 88.55 C 42.69 88.58 30.93 88.92 29.00 89.31 C 26.99 89.71 24.76 89.56 23.75 88.96 Z" fill="none" stroke="rgba(255,255,255,0.92)" stroke-width="1.2" stroke-linejoin="round" fill-rule="evenodd"/>
</svg>
