<svg xmlns="http://www.w3.org/2000/svg" viewBox="0 0 100 100" width="100" height="100">
  <path d="M 0.00 50.00 L 0.00 0.00 L 50.00 0.00 L 100.00 0.00 L 100.00 50.00 L 100.00 100.00 L 50.00 100.00 L 0.00 100.00 L 0.00 50.00 Z M 95.75 93.41 L 95.75 90.88 L 51.01 91.19 L 6.28 91.51 L 6.17 75.08 C 6.11 66.05 5.66 58.26 5.17 57.77 C 4.66 57.26 4.23 65.09 4.15 76.45 L 4.01 96.01 L 49.88 95.98 L 95.75 95.95 L 95.75 93.41 Z M 89.36 78.54 C 89.85 72.09 90.73 68.56 93.05 63.70 C 95.64 58.29 96.06 56.35 95.80 50.99 C 95.51 44.99 95.34 44.59 92.27 43.09 L 89.05 41.50 L 89.01 32.50 C 88.99 27.55 88.57 22.87 88.08 22.10 C 87.33 20.92 82.24 20.80 56.35 21.34 C 39.38 21.69 22.46 21.99 18.75 21.99 L 12.00 22.00 L 12.00 32.47 L 12.00 42.95 L 8.97 44.52 L 5.94 46.08 L 6.22 32.79 L 6.50 19.50 L 51.25 19.24 L 96.00 18.98 L 96.00 11.34 L 96.00 3.69 L 83.25 4.34 C 76.24 4.70 55.55 4.99 37.29 5.00 L 4.08 5.00 L 4.07 29.99 C 4.07 54.25 4.13 55.04 6.21 56.98 C 7.39 58.08 9.17 59.24 10.18 59.56 C 11.82 60.08 12.00 61.45 12.00 73.57 L 12.00 87.00 L 50.35 87.00 L 88.70 87.00 L 89.36 78.54 Z M 18.00 72.00 L 18.00 62.00 L 21.95 62.00 C 25.49 62.00 26.22 62.46 28.89 66.34 C 33.76 73.41 40.88 78.90 47.99 81.07 C 49.40 81.49 43.38 81.87 34.25 81.91 L 18.00 82.00 L 18.00 72.00 Z M 54.93 80.83 C 59.64 79.48 66.01 74.93 70.77 69.53 L 74.75 65.00 L 74.34 69.25 C 73.80 74.72 75.67 78.25 79.76 79.46 C 86.13 81.34 82.76 82.00 67.25 81.91 C 55.14 81.84 52.29 81.59 54.93 80.83 Z M 47.56 73.75 C 47.35 73.06 46.70 71.00 46.11 69.18 C 45.33 66.74 45.35 65.95 46.18 66.23 C 47.59 66.70 50.13 75.00 48.86 75.00 C 48.35 75.00 47.77 74.44 47.56 73.75 Z M 55.71 74.32 C 54.51 72.34 53.24 66.00 54.04 66.00 C 55.01 66.00 57.41 73.92 56.67 74.67 C 56.41 74.92 55.98 74.77 55.71 74.32 Z M 81.12 73.65 C 79.91 72.18 80.60 71.00 82.67 71.00 C 84.16 71.00 84.49 73.58 83.11 74.43 C 82.63 74.73 81.73 74.38 81.12 73.65 Z M 38.00 68.50 C 36.98 67.27 37.05 67.00 38.38 67.00 C 39.27 67.00 40.00 67.67 40.00 68.50 C 40.00 69.33 39.83 70.00 39.62 70.00 C 39.41 70.00 38.68 69.33 38.00 68.50 Z M 62.00 68.68 C 62.00 66.81 63.63 65.59 64.42 66.87 C 64.73 67.37 64.31 68.33 63.49 69.01 C 62.28 70.01 62.00 69.95 62.00 68.68 Z M 81.69 65.30 C 78.69 64.52 80.41 62.52 84.38 62.19 C 87.91 61.89 88.03 61.98 86.81 63.94 C 85.51 66.02 84.99 66.15 81.69 65.30 Z M 32.02 59.56 C 28.04 49.07 37.95 37.67 51.04 37.67 C 61.36 37.67 69.57 44.40 70.63 53.71 C 71.48 61.32 70.32 62.10 60.00 60.87 C 52.16 59.94 46.40 60.13 36.77 61.66 C 33.40 62.19 32.95 61.99 32.02 59.56 Z M 15.50 55.65 C 12.35 54.70 11.44 53.91 11.20 51.91 C 10.83 48.76 14.05 47.06 21.92 46.25 C 26.95 45.73 27.28 45.82 26.57 47.59 C 26.15 48.64 25.56 51.19 25.27 53.25 C 24.80 56.52 24.40 56.99 22.12 56.92 C 20.68 56.88 17.70 56.31 15.50 55.65 Z M 76.99 53.75 C 76.99 51.96 76.34 49.26 75.55 47.75 C 74.15 45.05 74.17 45.00 77.01 45.00 C 81.80 45.00 89.79 47.04 91.08 48.60 C 94.06 52.19 87.51 57.00 79.63 57.00 C 77.33 57.00 77.00 56.59 76.99 53.75 Z M 95.66 38.75 C 95.38 38.06 95.16 38.62 95.16 40.00 C 95.16 41.38 95.38 41.94 95.66 41.25 C 95.94 40.56 95.94 39.44 95.66 38.75 Z M 18.00 34.03 L 18.00 27.00 L 42.75 26.88 C 56.36 26.82 70.99 26.69 75.25 26.59 L 83.00 26.43 L 83.00 33.21 L 83.00 40.00 L 77.03 40.00 C 72.14 40.00 70.23 39.47 66.41 37.04 C 56.71 30.89 46.26 30.66 36.75 36.39 C 32.67 38.85 29.56 39.87 24.63 40.38 L 18.00 41.06 L 18.00 34.03 Z M 95.66 32.75 C 95.38 32.06 95.16 32.62 95.16 34.00 C 95.16 35.38 95.38 35.94 95.66 35.25 C 95.94 34.56 95.94 33.44 95.66 32.75 Z M 95.72 23.25 C 95.49 21.74 95.30 22.98 95.30 26.00 C 95.30 29.02 95.49 30.26 95.72 28.75 C 95.95 27.24 95.95 24.76 95.72 23.25 Z" fill="none" stroke="rgba(255,255,255,0.92)" stroke-width="1.2" stroke-linejoin="round" fill-rule="evenodd"/>
</svg>
