<svg xmlns="http://www.w3.org/2000/svg" viewBox="0 0 100 100" width="100" height="100">
  <path d="M 0.00 50.00 L 0.00 0.00 L 50.00 0.00 L 100.00 0.00 L 100.00 50.00 L 100.00 100.00 L 50.00 100.00 L 0.00 100.00 L 0.00 50.00 Z M 94.13 95.09 C 95.50 95.01 95.78 93.47 95.92 85.16 L 96.09 75.32 L 78.80 74.66 C 69.28 74.30 53.08 74.00 42.79 74.00 L 24.07 74.00 L 24.70 38.96 L 25.32 3.93 L 14.92 4.21 C 5.66 4.47 4.48 4.71 4.16 6.38 C 3.97 7.41 4.41 8.64 5.15 9.11 C 6.25 9.81 6.22 9.98 5.00 10.00 C 3.67 10.03 3.67 10.14 5.00 11.02 C 5.97 11.65 6.14 12.26 5.47 12.75 C 4.26 13.63 4.21 15.00 5.32 16.75 C 5.76 17.44 5.73 18.00 5.25 18.00 C 4.77 18.00 4.37 27.45 4.36 39.00 C 4.34 50.55 4.71 60.00 5.17 60.00 C 5.63 60.00 6.00 60.48 6.00 61.06 C 6.00 61.64 5.55 61.84 5.00 61.50 C 4.38 61.12 4.00 62.80 4.00 65.86 C 4.00 68.86 4.50 71.06 5.25 71.42 C 6.25 71.88 6.25 72.12 5.25 72.58 C 4.36 73.00 4.00 76.42 4.00 84.56 L 4.00 95.95 L 48.25 95.57 C 72.59 95.36 93.23 95.15 94.13 95.09 Z M 8.69 90.19 C 8.50 89.81 8.27 87.14 8.17 84.25 L 8.00 79.00 L 11.35 79.00 C 13.20 79.00 17.47 79.29 20.85 79.64 L 27.00 80.28 L 27.00 85.07 C 27.00 88.82 27.38 89.93 28.75 90.22 C 29.71 90.43 25.67 90.66 19.77 90.74 C 13.87 90.81 8.89 90.57 8.69 90.19 Z M 30.49 90.16 C 30.22 89.89 30.00 87.49 30.00 84.83 L 30.00 80.00 L 34.91 80.00 L 39.81 80.00 L 40.16 85.25 L 40.50 90.50 L 35.74 90.57 C 33.12 90.61 30.76 90.43 30.49 90.16 Z M 45.03 90.02 C 44.47 89.67 43.73 87.28 43.37 84.70 L 42.73 80.00 L 47.86 80.00 L 53.00 80.00 L 53.00 85.25 L 52.99 90.50 L 49.52 90.57 C 47.61 90.61 45.59 90.37 45.03 90.02 Z M 58.25 90.29 C 57.48 90.01 57.00 87.94 57.00 84.92 L 57.00 80.00 L 61.50 80.00 L 66.00 80.00 L 66.00 85.25 C 65.99 90.48 65.98 90.50 62.75 90.62 C 60.96 90.69 58.94 90.54 58.25 90.29 Z M 71.75 90.31 C 70.38 89.95 70.00 88.78 70.00 84.87 L 70.00 79.89 L 74.75 80.20 L 79.50 80.50 L 79.80 85.25 C 80.07 89.41 79.87 90.00 78.14 90.00 C 77.05 90.00 75.56 90.17 74.83 90.38 C 74.10 90.59 72.71 90.56 71.75 90.31 Z M 85.11 89.84 C 83.38 89.21 83.00 88.23 83.00 84.48 L 83.00 79.89 L 87.75 80.20 L 92.50 80.50 L 92.80 85.13 C 93.09 89.57 92.98 89.78 90.16 90.19 C 88.54 90.43 86.26 90.27 85.11 89.84 Z M 8.00 73.08 C 8.00 71.48 7.73 69.45 7.39 68.58 C 6.88 67.24 7.75 67.00 13.02 67.00 L 19.25 67.00 L 18.62 70.12 C 18.28 71.84 18.00 73.87 18.00 74.62 C 18.00 75.61 16.58 76.00 13.00 76.00 C 8.14 76.00 8.00 75.92 8.00 73.08 Z M 7.89 62.30 C 7.83 61.86 7.87 60.43 7.98 59.11 C 8.09 57.80 7.58 56.35 6.84 55.88 C 5.41 54.98 6.01 54.88 14.25 54.65 L 18.50 54.54 L 18.50 58.52 L 18.50 62.50 L 13.25 62.80 C 10.36 62.97 7.95 62.74 7.89 62.30 Z M 7.90 50.25 C 7.84 49.84 7.69 47.81 7.56 45.75 L 7.32 42.00 L 13.16 42.00 L 19.00 42.00 L 19.00 46.50 L 19.00 51.00 L 13.50 51.00 C 10.47 51.00 7.95 50.66 7.90 50.25 Z M 7.62 36.80 C 6.43 30.65 6.98 30.00 13.27 30.00 L 19.11 30.00 L 18.81 34.25 L 18.50 38.50 L 13.28 38.80 C 8.52 39.08 8.03 38.90 7.62 36.80 Z M 7.15 22.00 L 6.92 18.00 L 12.96 18.00 L 19.00 18.00 L 19.00 22.00 L 19.00 26.00 L 13.20 26.00 L 7.39 26.00 L 7.15 22.00 Z M 7.21 10.85 C 7.17 9.11 6.61 7.38 5.98 6.99 C 4.38 6.00 8.43 5.03 14.19 5.01 C 19.65 5.00 20.33 5.71 19.44 10.48 L 18.78 14.00 L 13.04 14.00 L 7.30 14.00 L 7.21 10.85 Z" fill="none" stroke="rgba(255,255,255,0.92)" stroke-width="1.2" stroke-linejoin="round" fill-rule="evenodd"/>
</svg>
