<svg xmlns="http://www.w3.org/2000/svg" viewBox="0 0 100 100" width="100" height="100">
  <path d="M 0.00 50.00 L 0.00 0.00 L 50.00 0.00 L 100.00 0.00 L 100.00 50.00 L 100.00 100.00 L 50.00 100.00 L 0.00 100.00 L 0.00 50.00 Z M 5.67 53.50 L 5.43 11.00 L 7.96 10.92 C 9.36 10.88 29.40 10.73 52.50 10.60 C 81.54 10.43 94.73 10.69 95.23 11.43 C 95.64 12.02 95.98 10.80 95.98 8.71 L 96.00 4.93 L 52.75 5.05 C 28.96 5.12 8.29 5.39 6.81 5.65 L 4.12 6.13 L 4.03 51.07 C 3.98 79.90 4.30 96.00 4.93 96.00 C 5.56 96.00 5.82 80.84 5.67 53.50 Z M 96.00 88.14 L 96.00 85.27 L 67.50 84.80 C 51.82 84.54 38.68 84.01 38.28 83.62 C 37.89 83.22 37.55 69.53 37.53 53.20 L 37.50 23.50 L 66.75 23.23 L 96.00 22.97 L 96.00 19.83 L 96.00 16.69 L 64.31 17.34 C 45.24 17.73 32.21 18.39 31.61 18.99 C 31.05 19.55 27.76 20.00 24.30 20.00 C 18.86 20.00 18.00 20.25 18.00 21.83 C 18.00 23.43 18.85 23.65 24.75 23.58 L 31.50 23.50 L 31.82 27.40 C 32.22 32.24 31.17 32.96 23.75 32.98 C 19.31 33.00 18.00 33.34 18.00 34.50 C 18.00 35.69 19.45 36.00 25.06 36.00 L 32.11 36.00 L 31.81 40.25 L 31.50 44.50 L 24.25 44.79 C 17.82 45.05 17.00 45.31 17.00 47.04 C 17.00 48.81 17.72 49.00 24.56 49.00 L 32.11 49.00 L 31.81 53.25 L 31.50 57.50 L 24.19 57.80 C 17.92 58.05 16.92 58.33 17.20 59.80 C 17.47 61.19 18.79 61.52 24.52 61.62 L 31.50 61.73 L 31.50 66.12 L 31.50 70.50 L 24.25 70.79 C 18.70 71.02 17.00 71.43 17.00 72.54 C 17.00 73.69 18.60 74.00 24.50 74.00 L 32.00 74.00 L 32.00 78.46 L 32.00 82.92 L 24.26 83.21 C 17.82 83.45 16.47 83.79 16.19 85.25 C 15.89 86.79 16.76 87.00 23.49 87.00 C 27.69 87.00 32.11 87.55 33.32 88.23 C 35.60 89.52 53.68 90.50 80.75 90.82 L 96.00 91.00 L 96.00 88.14 Z" fill="none" stroke="rgba(255,255,255,0.92)" stroke-width="1.2" stroke-linejoin="round" fill-rule="evenodd"/>
</svg>
