<svg xmlns="http://www.w3.org/2000/svg" viewBox="0 0 100 100" width="100" height="100">
  <path d="M 0.00 50.00 L 0.00 0.00 L 50.00 0.00 L 100.00 0.00 L 100.00 50.00 L 100.00 100.00 L 50.00 100.00 L 0.00 100.00 L 0.00 50.00 Z M 95.73 50.25 L 95.50 4.50 L 52.50 4.38 C 28.85 4.32 8.27 4.47 6.77 4.71 C 4.63 5.06 4.11 5.62 4.37 7.33 L 4.70 9.50 L 47.60 9.50 L 90.50 9.50 L 90.23 52.75 L 89.96 96.00 L 92.95 96.00 L 95.95 96.00 L 95.73 50.25 Z M 48.26 89.00 C 53.78 89.00 55.33 88.63 56.73 87.00 C 58.13 85.37 59.68 85.00 65.22 85.00 C 70.58 85.00 72.00 84.69 72.00 83.50 C 72.00 82.31 70.55 82.00 64.95 82.00 L 57.90 82.00 L 58.29 77.75 L 58.68 73.50 L 65.84 73.21 C 72.18 72.95 73.00 72.69 73.00 70.96 C 73.00 69.20 72.28 69.00 66.00 69.00 L 59.00 69.00 L 59.00 64.50 L 59.00 60.00 L 66.00 60.00 C 72.33 60.00 73.00 59.81 73.00 58.00 C 73.00 56.19 72.33 56.00 66.00 56.00 L 59.00 56.00 L 59.00 51.54 L 59.00 47.09 L 66.25 46.79 C 70.24 46.63 73.50 46.05 73.50 45.50 C 73.50 44.95 70.24 44.37 66.25 44.21 L 59.00 43.91 L 59.00 39.46 L 59.00 35.00 L 66.50 35.00 C 73.33 35.00 74.00 34.82 74.00 33.00 C 74.00 31.18 73.33 31.00 66.50 31.00 L 59.00 31.00 L 59.00 26.50 L 59.00 22.00 L 66.50 22.00 C 73.13 22.00 74.00 21.78 74.00 20.15 C 74.00 18.50 72.76 18.24 61.84 17.65 C 55.16 17.29 39.41 17.00 26.84 17.00 L 4.00 17.00 L 4.00 20.00 L 4.00 23.00 L 28.58 23.00 L 53.16 23.00 L 52.83 52.42 C 52.65 68.60 52.13 82.21 51.67 82.67 C 51.21 83.13 40.30 83.66 27.42 83.86 L 4.00 84.21 L 4.00 87.26 L 4.00 90.32 L 22.75 89.66 C 33.06 89.30 44.54 89.00 48.26 89.00 Z" fill="none" stroke="rgba(255,255,255,0.92)" stroke-width="1.2" stroke-linejoin="round" fill-rule="evenodd"/>
</svg>
