<svg xmlns="http://www.w3.org/2000/svg" viewBox="0 0 100 100" width="100" height="100">
  <path d="M 0.00 50.00 L 0.00 0.00 L 50.00 0.00 L 100.00 0.00 L 100.00 50.00 L 100.00 100.00 L 50.00 100.00 L 0.00 100.00 L 0.00 50.00 Z M 15.00 94.00 C 15.00 92.64 15.67 92.00 17.09 92.00 C 18.35 92.00 19.40 92.80 19.71 94.00 C 20.05 95.29 21.07 96.00 22.62 96.00 C 24.72 96.00 25.00 95.54 25.00 92.06 C 25.00 89.89 24.52 87.82 23.94 87.46 C 23.35 87.10 19.30 86.56 14.94 86.26 C 8.58 85.82 6.99 85.39 6.93 84.11 C 6.89 83.22 6.78 71.96 6.68 59.08 C 6.55 42.07 6.18 35.56 5.32 35.27 C 4.42 34.97 4.13 41.89 4.11 63.44 L 4.09 92.00 L 7.54 92.00 C 10.33 92.00 11.00 92.39 11.00 94.00 C 11.00 95.33 11.67 96.00 13.00 96.00 C 14.33 96.00 15.00 95.33 15.00 94.00 Z M 5.08 79.42 C 5.13 78.25 5.36 78.01 5.68 78.81 C 5.97 79.53 5.94 80.40 5.60 80.73 C 5.27 81.06 5.04 80.47 5.08 79.42 Z M 6.51 32.99 C 6.85 32.44 6.81 30.97 6.42 29.74 C 5.73 27.57 5.68 27.56 4.92 29.50 C 4.49 30.60 4.11 32.06 4.07 32.75 C 3.99 34.25 5.63 34.41 6.51 32.99 Z M 51.75 24.08 L 96.00 24.00 L 96.00 14.49 L 96.00 4.97 L 55.75 5.40 C 33.61 5.63 12.91 5.86 9.75 5.91 C 6.59 5.96 4.00 6.45 4.00 7.01 C 4.00 7.56 5.82 8.75 8.05 9.64 C 11.85 11.16 12.09 11.49 11.80 14.87 C 11.58 17.47 10.97 18.58 9.62 18.84 C 7.20 19.30 5.83 17.17 6.52 14.00 C 6.95 11.99 6.84 11.80 5.94 13.00 C 5.03 14.23 4.92 14.09 5.32 12.25 C 5.59 11.01 5.44 9.77 4.98 9.49 C 4.53 9.21 4.13 12.54 4.10 16.90 C 4.06 23.87 4.26 24.78 5.78 24.48 C 6.72 24.30 27.41 24.12 51.75 24.08 Z M 15.85 16.82 C 15.76 15.55 15.71 13.60 15.73 12.50 C 15.80 7.99 15.93 7.78 17.57 9.43 C 19.42 11.28 19.21 11.25 22.36 10.05 C 25.58 8.83 27.25 10.72 26.82 15.12 C 26.51 18.28 26.35 18.38 21.25 18.76 C 16.34 19.12 15.99 19.00 15.85 16.82 Z M 31.00 14.06 C 31.00 11.89 31.45 9.84 32.00 9.50 C 32.55 9.16 33.01 9.47 33.02 10.19 C 33.03 11.20 33.24 11.17 33.92 10.09 C 34.66 8.92 35.33 8.90 37.83 9.93 C 40.41 11.00 40.82 11.67 40.67 14.58 C 40.50 17.96 40.45 17.99 35.75 18.00 L 31.00 18.00 L 31.00 14.06 Z M 44.00 14.06 C 44.00 11.89 44.36 9.90 44.80 9.63 C 45.23 9.36 47.48 9.39 49.80 9.70 C 53.91 10.25 54.00 10.34 54.00 14.13 L 54.00 18.00 L 49.00 18.00 L 44.00 18.00 L 44.00 14.06 Z M 57.75 17.25 C 57.55 16.84 57.42 15.15 57.47 13.50 C 57.56 10.65 57.80 10.48 62.28 10.20 L 67.00 9.89 L 67.00 13.95 L 67.00 18.00 L 62.56 18.00 C 60.12 18.00 57.95 17.66 57.75 17.25 Z M 71.12 12.25 C 71.18 9.09 71.45 7.33 71.71 8.35 C 72.09 9.83 72.95 10.12 76.09 9.82 L 80.00 9.45 L 80.00 13.72 L 80.00 18.00 L 75.50 18.00 L 71.00 18.00 L 71.12 12.25 Z M 84.00 13.39 C 84.00 9.50 84.26 8.89 85.67 9.43 C 86.59 9.78 87.71 9.49 88.15 8.78 C 88.79 7.78 88.97 7.78 88.98 8.75 C 88.99 9.44 89.70 10.00 90.56 10.00 C 91.42 10.00 91.84 9.55 91.50 9.00 C 91.16 8.45 91.34 8.00 91.90 8.00 C 93.13 8.00 94.45 14.40 93.64 16.49 C 93.24 17.53 91.65 18.00 88.53 18.00 L 84.00 18.00 L 84.00 13.39 Z" fill="none" stroke="rgba(255,255,255,0.92)" stroke-width="1.2" stroke-linejoin="round" fill-rule="evenodd"/>
</svg>
