<svg xmlns="http://www.w3.org/2000/svg" viewBox="0 0 100 100" width="100" height="100">
  <path d="M 0.00 50.00 L 0.00 0.00 L 50.00 0.00 L 100.00 0.00 L 100.00 50.00 L 100.00 100.00 L 50.00 100.00 L 0.00 100.00 L 0.00 50.00 Z M 91.25 95.03 C 95.64 95.00 96.00 94.81 96.00 92.50 L 96.00 90.00 L 63.75 89.95 C 46.01 89.92 26.04 89.94 19.37 90.00 L 7.24 90.10 L 6.79 87.05 L 6.35 84.00 L 37.52 84.00 C 54.66 84.00 74.83 83.71 82.34 83.34 C 95.82 82.70 96.00 82.66 96.00 80.34 L 96.00 78.00 L 51.25 78.00 L 6.50 78.00 L 6.26 47.50 L 6.02 17.00 L 48.26 16.80 C 71.49 16.69 91.74 16.64 93.25 16.70 C 95.64 16.78 96.00 16.42 96.00 13.90 L 96.00 11.00 L 50.70 11.00 L 5.40 11.00 L 5.81 7.50 C 6.06 5.36 5.79 4.00 5.11 4.00 C 4.32 4.00 4.01 16.88 4.02 49.46 L 4.04 94.93 L 13.77 95.21 C 19.12 95.37 37.67 95.40 55.00 95.28 C 72.33 95.16 88.64 95.04 91.25 95.03 Z M 12.00 93.00 C 12.00 92.45 12.48 92.00 13.06 92.00 C 13.64 92.00 13.84 92.45 13.50 93.00 C 13.16 93.55 12.68 94.00 12.44 94.00 C 12.20 94.00 12.00 93.55 12.00 93.00 Z" fill="none" stroke="rgba(255,255,255,0.92)" stroke-width="1.2" stroke-linejoin="round" fill-rule="evenodd"/>
</svg>
