<svg xmlns="http://www.w3.org/2000/svg" viewBox="0 0 100 100" width="100" height="100">
  <path d="M 0.00 50.00 L 0.00 0.00 L 50.00 0.00 L 100.00 0.00 L 100.00 50.00 L 100.00 100.00 L 50.00 100.00 L 0.00 100.00 L 0.00 50.00 Z M 95.90 71.85 C 95.96 55.38 95.64 47.27 94.87 46.35 C 94.20 45.54 94.15 45.00 94.75 45.00 C 95.37 45.00 95.79 37.44 95.86 24.73 L 95.97 4.46 L 57.23 4.67 C 35.93 4.79 15.24 4.91 11.25 4.94 C 4.20 5.00 4.00 5.07 4.00 7.50 C 4.00 9.89 4.27 10.00 10.25 10.06 C 31.17 10.26 41.53 9.91 41.83 9.01 C 42.02 8.45 42.61 8.00 43.14 8.00 C 43.68 8.00 43.82 8.48 43.46 9.07 C 43.01 9.80 45.00 10.09 49.65 9.99 C 53.42 9.91 56.95 9.94 57.50 10.04 C 58.05 10.15 58.81 10.19 59.19 10.14 C 60.99 9.88 72.52 9.74 82.05 9.86 L 92.60 10.00 L 92.19 13.50 L 91.78 17.00 L 47.89 17.00 L 4.00 17.00 L 4.00 19.99 L 4.00 22.98 L 48.00 23.24 L 92.01 23.50 L 92.25 53.74 C 92.45 78.17 92.24 84.08 91.17 84.49 C 90.44 84.77 70.52 85.00 46.92 85.00 L 4.00 85.00 L 4.00 88.15 L 4.00 91.31 L 48.43 90.75 C 86.29 90.28 92.78 90.40 92.32 91.60 C 91.56 93.59 92.68 96.00 94.37 96.00 C 95.57 96.00 95.81 92.08 95.90 71.85 Z" fill="none" stroke="rgba(255,255,255,0.92)" stroke-width="1.2" stroke-linejoin="round" fill-rule="evenodd"/>
</svg>
