<svg xmlns="http://www.w3.org/2000/svg" viewBox="0 0 100 100" width="100" height="100">
  <path d="M 0.00 50.00 L 0.00 0.00 L 50.00 0.00 L 100.00 0.00 L 100.00 50.00 L 100.00 100.00 L 50.00 100.00 L 0.00 100.00 L 0.00 50.00 Z M 92.72 95.16 C 95.40 94.85 96.00 94.35 96.00 92.40 L 96.00 90.01 L 53.51 90.40 L 11.02 90.79 L 11.08 87.65 C 11.40 72.24 10.76 58.03 9.77 58.64 C 9.00 59.12 8.92 58.74 9.53 57.41 C 10.63 54.97 10.87 19.04 9.78 18.37 C 9.33 18.09 9.22 17.46 9.52 16.97 C 10.41 15.53 10.64 4.00 9.78 4.00 C 9.35 4.00 8.99 4.56 8.98 5.25 C 8.97 6.16 8.73 6.13 8.10 5.13 C 7.62 4.37 6.68 3.94 6.01 4.16 C 5.12 4.46 4.83 8.57 4.93 19.53 C 5.06 34.19 5.80 89.25 5.93 93.81 L 6.00 96.11 L 47.72 95.83 C 70.67 95.67 90.92 95.37 92.72 95.16 Z M 96.00 81.00 L 96.00 78.00 L 71.00 77.88 C 57.25 77.81 45.44 77.69 44.75 77.62 C 43.78 77.53 43.50 70.77 43.50 47.50 L 43.50 17.50 L 69.75 17.23 L 96.00 16.97 L 96.00 13.87 L 96.00 10.78 L 66.75 11.51 C 50.66 11.91 37.35 12.64 37.17 13.12 C 36.98 13.60 33.72 14.00 29.92 14.00 C 23.69 14.00 23.00 14.20 23.00 15.98 C 23.00 17.80 23.60 17.94 30.05 17.72 L 37.09 17.47 L 36.80 21.98 L 36.50 26.50 L 30.08 27.00 C 26.21 27.30 23.49 28.00 23.24 28.75 C 22.94 29.67 24.66 30.00 29.75 30.00 C 33.55 30.00 36.87 30.20 37.11 30.45 C 37.36 30.69 37.39 32.72 37.18 34.95 L 36.79 39.00 L 29.89 39.00 C 23.67 39.00 23.00 39.19 23.00 41.00 C 23.00 42.81 23.67 43.00 30.00 43.00 L 37.00 43.00 L 37.00 47.50 L 37.00 52.00 L 30.00 52.00 C 24.44 52.00 23.00 52.31 23.00 53.50 C 23.00 54.69 24.44 55.00 30.00 55.00 L 37.00 55.00 L 37.00 59.50 L 37.00 64.00 L 30.00 64.00 C 23.72 64.00 23.00 64.20 23.00 65.96 C 23.00 67.69 23.82 67.95 30.25 68.21 L 37.50 68.50 L 37.50 72.50 L 37.50 76.50 L 29.75 76.79 C 23.16 77.04 22.00 77.35 22.00 78.82 C 22.00 80.35 22.86 80.52 28.87 80.18 C 33.42 79.92 36.54 80.24 38.12 81.13 C 41.37 82.96 50.77 83.65 75.25 83.84 L 96.00 84.00 L 96.00 81.00 Z" fill="none" stroke="rgba(255,255,255,0.92)" stroke-width="1.2" stroke-linejoin="round" fill-rule="evenodd"/>
</svg>
