<svg xmlns="http://www.w3.org/2000/svg" viewBox="0 0 100 100" width="100" height="100">
  <path d="M 0.00 50.00 L 0.00 0.00 L 50.00 0.00 L 100.00 0.00 L 100.00 50.00 L 100.00 100.00 L 50.00 100.00 L 0.00 100.00 L 0.00 50.00 Z M 9.00 92.00 L 9.00 88.00 L 13.89 88.00 C 18.23 88.00 18.85 88.27 19.39 90.42 C 19.72 91.75 19.73 93.55 19.39 94.42 C 18.96 95.54 19.38 96.00 20.83 96.00 C 22.48 96.00 22.94 95.26 23.19 92.25 L 23.50 88.50 L 28.50 88.50 L 33.50 88.50 L 33.81 92.25 C 34.22 97.18 36.76 97.35 37.19 92.48 C 37.36 90.54 37.84 88.97 38.25 88.98 C 38.66 88.99 41.02 89.00 43.50 89.00 C 47.98 89.00 48.00 89.02 48.00 92.50 C 48.00 94.94 48.45 96.00 49.50 96.00 C 50.55 96.00 51.00 94.94 51.00 92.50 L 51.00 89.00 L 56.50 89.00 L 62.00 89.00 L 62.00 92.50 C 62.00 94.94 62.45 96.00 63.50 96.00 C 64.55 96.00 65.00 94.94 65.00 92.50 L 65.00 89.00 L 70.50 89.00 L 76.00 89.00 L 76.00 92.50 C 76.00 95.38 76.37 96.00 78.09 96.00 C 79.92 96.00 80.15 95.47 79.96 91.75 C 79.60 84.96 79.57 85.00 85.00 85.00 C 90.13 85.00 90.61 85.47 90.17 90.00 C 89.81 93.79 91.06 96.00 93.58 96.00 L 96.12 96.00 L 95.43 53.25 C 95.06 29.74 94.81 9.29 94.88 7.82 C 95.00 5.59 94.55 5.08 92.26 4.82 C 90.74 4.64 70.26 4.62 46.75 4.77 L 4.00 5.04 L 4.07 8.27 C 4.13 10.98 4.28 11.18 5.00 9.50 C 5.77 7.71 5.87 7.69 5.93 9.31 C 5.97 10.32 6.47 10.83 7.06 10.46 C 7.65 10.10 9.68 10.09 11.56 10.45 C 14.71 11.04 15.00 11.39 15.00 14.64 L 15.00 18.19 L 9.50 17.84 L 4.00 17.50 L 4.00 20.81 L 4.00 24.12 L 39.50 23.46 L 75.00 22.80 L 75.16 42.15 C 75.36 65.83 75.15 77.78 74.47 80.75 L 73.96 83.00 L 38.85 83.00 L 3.74 83.00 L 4.36 86.75 C 4.70 88.81 4.98 91.74 4.99 93.25 C 5.00 95.33 5.49 96.00 7.00 96.00 C 8.67 96.00 9.00 95.33 9.00 92.00 Z M 89.50 82.00 C 89.16 81.45 87.11 81.00 84.94 81.00 C 81.03 81.00 81.00 80.97 81.00 77.12 C 81.00 73.93 81.41 73.12 83.25 72.63 C 86.94 71.64 89.99 71.92 90.10 73.25 C 90.42 77.29 90.57 83.00 90.36 83.00 C 90.23 83.00 89.84 82.55 89.50 82.00 Z M 81.67 68.33 C 81.30 67.97 81.00 65.94 81.00 63.83 L 81.00 60.00 L 85.76 60.00 L 90.51 60.00 L 90.16 64.50 C 89.80 68.97 89.77 69.00 86.07 69.00 C 84.01 69.00 82.03 68.70 81.67 68.33 Z M 92.00 59.00 C 92.00 58.45 92.45 58.00 93.00 58.00 C 93.55 58.00 94.00 58.45 94.00 59.00 C 94.00 59.55 93.55 60.00 93.00 60.00 C 92.45 60.00 92.00 59.55 92.00 59.00 Z M 81.19 51.75 C 81.50 47.51 81.51 47.50 85.50 47.50 C 89.49 47.50 89.50 47.51 89.81 51.75 L 90.11 56.00 L 85.50 56.00 L 80.89 56.00 L 81.19 51.75 Z M 81.67 43.33 C 81.30 42.97 81.00 40.94 81.00 38.83 L 81.00 35.00 L 85.34 35.00 L 89.68 35.00 L 89.75 39.50 L 89.82 44.00 L 86.08 44.00 C 84.02 44.00 82.03 43.70 81.67 43.33 Z M 92.02 33.75 C 92.03 31.54 92.31 30.94 92.89 31.86 C 93.68 33.10 93.29 37.00 92.38 37.00 C 92.17 37.00 92.01 35.54 92.02 33.75 Z M 80.67 27.34 C 80.34 25.33 80.31 23.31 80.60 22.84 C 80.88 22.38 83.36 22.00 86.09 22.00 C 90.74 22.00 91.00 22.13 90.01 23.98 C 89.43 25.07 89.24 27.09 89.58 28.48 C 90.19 30.89 90.03 31.00 85.74 31.00 C 81.36 31.00 81.25 30.92 80.67 27.34 Z M 79.00 18.03 C 74.54 17.50 74.50 17.47 74.85 14.00 C 75.04 12.07 75.36 10.32 75.57 10.11 C 76.17 9.49 87.96 9.35 88.77 9.95 C 90.03 10.90 89.95 17.99 88.68 18.13 C 85.05 18.52 83.06 18.50 79.00 18.03 Z M 19.00 13.75 L 19.00 9.50 L 24.00 9.85 L 29.00 10.19 L 29.00 14.10 L 29.00 18.00 L 24.00 18.00 L 19.00 18.00 L 19.00 13.75 Z M 33.00 14.11 C 33.00 10.75 33.36 10.13 35.60 9.57 C 37.07 9.19 38.80 9.42 39.60 10.08 C 40.70 11.00 41.00 10.91 41.00 9.68 C 41.00 8.82 41.45 7.84 42.00 7.50 C 42.62 7.12 43.00 8.99 43.00 12.44 L 43.00 18.00 L 38.00 18.00 L 33.00 18.00 L 33.00 14.11 Z M 47.00 14.24 C 47.00 10.73 47.26 10.41 51.06 9.22 C 53.29 8.52 55.54 8.22 56.06 8.54 C 56.58 8.86 57.00 11.12 57.00 13.56 L 57.00 18.00 L 52.00 18.00 L 47.00 18.00 L 47.00 14.24 Z M 61.00 14.05 C 61.00 10.32 61.22 9.99 63.75 9.92 C 65.26 9.87 67.53 9.72 68.80 9.58 C 70.91 9.35 71.07 9.67 70.80 13.41 L 70.50 17.50 L 65.75 17.80 L 61.00 18.11 L 61.00 14.05 Z" fill="none" stroke="rgba(255,255,255,0.92)" stroke-width="1.2" stroke-linejoin="round" fill-rule="evenodd"/>
</svg>
