<svg xmlns="http://www.w3.org/2000/svg" viewBox="0 0 100 100" width="100" height="100">
  <path d="M 0.00 50.00 L 0.00 0.00 L 50.00 0.00 L 100.00 0.00 L 100.00 50.00 L 100.00 100.00 L 50.00 100.00 L 0.00 100.00 L 0.00 50.00 Z M 78.00 92.50 C 78.00 89.06 78.08 89.00 82.25 88.92 C 84.59 88.87 87.51 88.72 88.75 88.58 C 90.74 88.36 91.00 88.79 91.00 92.17 C 91.00 95.56 91.28 96.00 93.43 96.00 L 95.86 96.00 L 95.73 50.53 L 95.61 5.05 L 49.80 5.02 L 4.00 4.99 L 4.00 7.49 C 4.00 9.05 4.57 10.00 5.50 10.00 C 6.58 10.00 7.00 11.11 7.00 14.00 C 7.00 16.89 6.58 18.00 5.50 18.00 C 4.50 18.00 4.00 19.00 4.00 21.00 L 4.00 24.00 L 12.25 24.19 C 16.79 24.30 21.62 24.29 23.00 24.19 C 24.38 24.08 27.30 24.03 29.50 24.08 C 31.70 24.13 34.40 24.17 35.50 24.16 C 67.19 24.04 92.45 24.12 92.68 24.34 C 92.84 24.50 93.11 37.77 93.29 53.82 L 93.62 83.00 L 86.56 83.06 C 82.68 83.09 77.92 83.65 76.00 84.31 C 72.66 85.45 72.49 85.74 72.20 90.75 L 71.90 96.00 L 74.95 96.00 C 77.77 96.00 78.00 95.74 78.00 92.50 Z M 10.74 16.75 C 10.48 16.06 10.47 14.08 10.73 12.35 C 11.17 9.38 11.37 9.25 14.16 10.04 C 15.78 10.51 17.76 10.64 18.56 10.34 C 19.67 9.91 20.00 10.73 20.00 13.89 L 20.00 18.00 L 15.61 18.00 C 13.01 18.00 11.02 17.49 10.74 16.75 Z M 24.00 13.99 L 24.00 9.98 L 28.51 10.27 C 31.00 10.43 33.02 10.89 33.01 11.28 C 33.01 11.68 33.00 13.35 33.00 15.00 C 33.00 17.89 32.83 18.00 28.50 18.00 L 24.00 18.00 L 24.00 13.99 Z M 37.00 13.87 L 37.00 9.74 L 41.00 10.27 C 43.27 10.58 45.00 10.39 45.00 9.85 C 45.00 9.32 45.45 9.16 46.00 9.50 C 46.55 9.84 47.00 11.89 47.00 14.06 L 47.00 18.00 L 42.00 18.00 L 37.00 18.00 L 37.00 13.87 Z M 50.39 16.57 C 49.11 13.25 50.46 10.58 53.75 9.91 C 55.54 9.55 57.00 9.63 57.00 10.09 C 57.00 10.56 57.67 10.68 58.50 10.36 C 59.68 9.91 60.00 10.65 60.00 13.89 L 60.00 18.00 L 55.47 18.00 C 52.47 18.00 50.75 17.52 50.39 16.57 Z M 64.14 13.49 C 64.34 9.67 64.65 9.06 66.19 9.49 C 67.18 9.77 68.90 10.26 70.00 10.57 C 71.57 11.01 72.02 10.64 72.09 8.82 C 72.16 6.82 72.30 6.91 73.09 9.50 C 73.59 11.15 73.74 13.74 73.42 15.25 C 72.89 17.75 72.44 18.00 68.37 18.00 L 63.91 18.00 L 64.14 13.49 Z M 77.00 13.56 C 77.00 11.12 77.45 8.84 78.00 8.50 C 78.55 8.16 79.00 8.31 79.00 8.83 C 79.00 9.35 80.35 9.97 82.00 10.21 C 84.50 10.58 85.01 10.31 85.07 8.58 C 85.14 6.53 85.15 6.53 86.00 8.50 C 86.47 9.60 86.89 12.19 86.93 14.25 L 87.00 18.00 L 82.00 18.00 L 77.00 18.00 L 77.00 13.56 Z M 90.67 17.33 C 90.30 16.97 90.00 15.17 90.00 13.33 C 90.00 11.04 90.47 10.00 91.50 10.00 C 92.58 10.00 93.00 11.11 93.00 14.00 C 93.00 17.75 92.21 18.88 90.67 17.33 Z M 26.00 7.94 C 26.00 7.36 26.45 7.16 27.00 7.50 C 27.55 7.84 28.00 8.32 28.00 8.56 C 28.00 8.80 27.55 9.00 27.00 9.00 C 26.45 9.00 26.00 8.52 26.00 7.94 Z M 32.50 8.00 C 32.16 7.45 32.36 7.00 32.94 7.00 C 33.52 7.00 34.00 7.45 34.00 8.00 C 34.00 8.55 33.80 9.00 33.56 9.00 C 33.32 9.00 32.84 8.55 32.50 8.00 Z" fill="none" stroke="rgba(255,255,255,0.92)" stroke-width="1.2" stroke-linejoin="round" fill-rule="evenodd"/>
</svg>
