<svg xmlns="http://www.w3.org/2000/svg" viewBox="0 0 100 100" width="100" height="100">
  <path d="M 0.00 50.00 L 0.00 0.00 L 50.00 0.00 L 100.00 0.00 L 100.00 50.00 L 100.00 100.00 L 50.00 100.00 L 0.00 100.00 L 0.00 50.00 Z M 10.40 95.23 C 9.22 94.44 8.90 91.00 10.01 91.00 C 11.15 91.00 10.89 81.66 9.69 79.52 C 8.26 76.98 7.81 72.76 9.05 73.53 C 9.56 73.85 9.71 73.41 9.38 72.55 C 9.02 71.62 9.33 70.99 10.14 70.98 C 11.27 70.97 11.27 70.82 10.17 70.12 C 9.34 69.60 8.77 67.05 8.67 63.39 C 8.57 60.15 8.05 57.17 7.50 56.77 C 6.94 56.35 7.26 56.02 8.25 56.02 C 9.21 56.01 10.00 55.33 10.00 54.50 C 10.00 53.67 9.50 53.00 8.88 53.00 C 7.81 53.00 7.94 51.87 9.48 47.50 C 9.93 46.24 9.86 45.95 9.30 46.72 C 8.76 47.47 8.43 44.44 8.46 38.97 C 8.48 33.70 8.91 29.99 9.50 29.98 C 10.05 29.98 9.95 29.62 9.27 29.19 C 7.59 28.12 7.14 23.43 8.75 23.75 C 9.44 23.89 10.00 23.33 10.00 22.50 C 10.00 21.68 9.63 21.00 9.18 21.00 C 8.73 21.00 8.36 19.65 8.36 18.00 C 8.36 16.35 8.79 15.00 9.30 15.00 C 9.82 15.00 9.68 14.31 8.98 13.48 C 7.30 11.45 8.40 10.54 12.84 10.31 C 20.99 9.90 25.00 10.21 25.00 11.25 C 25.00 11.66 25.56 11.89 26.25 11.75 C 27.06 11.59 27.61 13.01 27.81 15.75 L 28.11 20.00 L 20.98 20.00 C 14.73 20.00 13.89 20.22 14.19 21.75 C 14.44 23.07 15.69 23.58 19.26 23.80 L 24.00 24.11 L 24.00 28.55 L 24.00 33.00 L 19.00 33.00 C 15.31 33.00 14.00 33.38 14.00 34.45 C 14.00 35.46 15.42 35.98 18.75 36.20 L 23.50 36.50 L 23.81 40.75 L 24.11 45.00 L 18.56 45.00 C 13.72 45.00 13.00 45.25 13.00 46.95 C 13.00 48.59 13.82 48.94 18.25 49.20 L 23.50 49.50 L 23.81 53.75 L 24.11 58.00 L 18.48 58.00 C 13.66 58.00 12.90 58.25 13.19 59.75 C 13.44 61.10 14.71 61.57 18.76 61.80 L 24.00 62.10 L 24.00 66.55 L 24.00 71.00 L 18.50 71.00 C 14.28 71.00 13.00 71.35 13.00 72.50 C 13.00 74.13 13.48 74.27 19.50 74.41 L 23.50 74.50 L 23.80 79.25 L 24.11 84.00 L 18.05 84.00 C 13.34 84.00 12.00 84.33 12.00 85.50 C 12.00 86.66 13.32 87.00 17.88 87.00 C 23.04 87.00 23.97 87.31 25.38 89.46 C 26.27 90.82 27.00 92.85 27.00 93.96 C 27.00 95.33 27.66 96.00 29.00 96.00 C 30.33 96.00 31.00 95.33 31.00 94.00 C 31.00 92.39 31.67 92.00 34.42 92.00 C 38.82 92.00 41.00 92.86 41.00 94.61 C 41.00 96.77 44.70 96.25 45.29 94.00 C 45.63 92.71 46.65 92.00 48.16 92.01 C 52.06 92.04 55.00 93.15 55.00 94.62 C 55.00 95.38 55.90 96.00 57.00 96.00 C 58.33 96.00 59.00 95.33 59.00 94.00 C 59.00 92.27 59.67 92.00 64.00 92.00 C 68.33 92.00 69.00 92.27 69.00 94.00 C 69.00 95.33 69.67 96.00 71.00 96.00 C 72.33 96.00 73.00 95.33 73.00 94.00 C 73.00 92.27 73.67 92.00 78.00 92.00 C 82.33 92.00 83.00 92.27 83.00 94.00 C 83.00 95.33 83.67 96.00 85.00 96.00 C 86.33 96.00 87.00 95.33 87.00 94.00 C 87.00 92.30 87.67 92.00 91.50 92.00 C 95.80 92.00 96.00 91.87 96.00 89.11 L 96.00 86.21 L 63.59 86.36 C 45.77 86.44 30.94 86.26 30.64 85.96 C 30.33 85.66 29.95 71.82 29.79 55.21 L 29.50 25.00 L 61.17 25.00 C 78.59 25.00 93.55 24.73 94.42 24.39 C 95.29 24.06 96.00 22.74 96.00 21.45 C 96.00 19.42 95.45 19.08 91.75 18.81 C 88.16 18.55 87.45 18.14 87.17 16.15 C 86.98 14.85 87.11 12.71 87.44 11.38 C 87.95 9.35 88.36 9.12 89.96 9.98 C 92.38 11.27 93.29 11.28 92.50 10.00 C 92.16 9.45 92.81 9.00 93.94 9.00 C 95.14 9.00 96.00 8.35 96.00 7.44 C 96.00 6.04 91.31 5.93 50.75 6.36 C 25.86 6.62 5.39 6.87 5.25 6.92 C 5.11 6.96 5.11 27.02 5.25 51.50 L 5.50 96.00 L 8.50 95.98 C 10.15 95.98 11.01 95.64 10.40 95.23 Z M 10.68 75.81 C 10.36 75.01 10.13 75.25 10.08 76.42 C 10.04 77.47 10.27 78.06 10.60 77.73 C 10.94 77.40 10.97 76.53 10.68 75.81 Z M 32.28 18.80 C 31.01 17.23 30.12 9.00 31.22 9.00 C 31.65 9.00 32.00 9.42 32.00 9.94 C 32.00 10.83 32.93 10.96 39.31 10.96 C 42.00 10.96 42.10 11.14 41.81 15.23 C 41.50 19.45 41.46 19.50 37.41 19.80 C 34.94 19.98 32.91 19.59 32.28 18.80 Z M 45.45 15.56 C 44.58 10.95 45.36 9.96 49.03 11.01 C 50.87 11.54 51.81 11.51 51.46 10.94 C 50.70 9.71 51.66 9.75 54.07 11.04 C 55.41 11.75 56.00 13.13 56.00 15.54 L 56.00 19.00 L 51.05 19.00 C 46.19 19.00 46.08 18.93 45.45 15.56 Z M 59.56 15.49 C 59.20 13.57 59.36 11.20 59.92 10.24 C 60.48 9.28 60.95 9.04 60.97 9.69 C 60.99 10.37 62.82 11.02 65.25 11.19 C 69.38 11.49 69.51 11.61 69.81 15.25 L 70.12 19.00 L 65.17 19.00 C 60.31 19.00 60.21 18.94 59.56 15.49 Z M 73.67 18.33 C 72.84 17.51 72.79 12.70 73.59 10.64 C 74.04 9.46 74.74 9.33 76.65 10.06 C 78.01 10.58 80.23 11.00 81.57 11.00 C 83.74 11.00 84.00 11.43 84.00 15.00 L 84.00 19.00 L 79.17 19.00 C 76.51 19.00 74.03 18.70 73.67 18.33 Z M 79.50 9.00 C 79.16 8.45 79.33 8.00 79.88 8.00 C 80.43 8.00 81.16 8.45 81.50 9.00 C 81.84 9.55 81.67 10.00 81.12 10.00 C 80.57 10.00 79.84 9.55 79.50 9.00 Z" fill="none" stroke="rgba(255,255,255,0.92)" stroke-width="1.2" stroke-linejoin="round" fill-rule="evenodd"/>
</svg>
