<svg xmlns="http://www.w3.org/2000/svg" viewBox="0 0 400 215" width="400" height="215">
  <path d="M 0.00 107.50 L 0.00 0.00 L 200.00 0.00 L 400.00 0.00 L 400.00 107.50 L 400.00 215.00 L 389.13 215.00 L 378.26 215.00 L 377.59 210.85 C 376.76 205.67 376.32 204.94 374.43 205.67 C 373.25 206.12 373.06 207.21 373.57 210.62 L 374.23 215.00 L 187.11 215.00 L 0.00 215.00 L 0.00 107.50 Z M 174.00 209.61 C 222.68 209.41 270.49 209.19 280.25 209.12 L 298.00 209.00 L 298.00 160.00 C 298.00 121.56 298.27 110.96 299.25 110.83 C 301.78 110.49 327.39 110.19 361.21 110.09 L 395.91 110.00 L 395.88 57.50 L 395.84 5.00 L 390.67 4.98 C 302.81 4.66 101.05 5.62 100.30 6.37 C 100.03 6.63 99.89 14.42 99.97 23.67 C 100.63 93.50 100.53 104.96 99.32 105.43 C 98.03 105.93 90.25 106.03 37.25 106.25 L 5.00 106.38 L 4.95 109.94 C 4.83 119.48 5.58 195.98 5.92 208.24 L 6.00 210.99 L 45.75 210.48 C 67.61 210.20 125.32 209.81 174.00 209.61 Z M 11.51 204.73 C 11.27 204.05 11.10 202.38 11.12 201.00 C 11.33 183.23 10.75 170.04 9.78 170.64 C 9.00 171.12 8.92 170.74 9.51 169.41 C 10.64 166.86 10.95 128.08 9.84 127.40 C 9.36 127.10 9.27 126.38 9.63 125.78 C 10.00 125.19 10.23 122.41 10.15 119.60 C 10.08 116.80 10.37 113.94 10.81 113.26 C 11.42 112.31 21.75 111.94 54.55 111.70 C 78.17 111.52 98.23 111.55 99.11 111.77 C 100.26 112.05 100.73 113.30 100.73 116.08 L 100.73 120.00 L 69.49 120.00 C 42.94 120.00 38.06 120.23 37.00 121.50 C 36.13 122.55 33.83 123.00 29.38 123.00 C 24.38 123.00 23.00 123.32 23.00 124.50 C 23.00 125.69 24.44 126.00 30.00 126.00 L 37.00 126.00 L 37.00 130.95 L 37.00 135.91 L 30.26 136.20 C 24.78 136.44 23.46 136.83 23.19 138.25 C 22.89 139.78 23.73 140.00 29.98 140.00 L 37.11 140.00 L 36.80 144.75 L 36.50 149.50 L 32.50 149.67 C 30.30 149.76 27.26 149.87 25.75 149.92 C 24.01 149.97 23.00 150.55 23.00 151.50 C 23.00 152.69 24.44 153.00 30.00 153.00 L 37.00 153.00 L 37.00 158.00 L 37.00 163.00 L 30.00 163.00 C 23.67 163.00 23.00 163.19 23.00 165.00 C 23.00 166.81 23.67 167.00 30.05 167.00 L 37.11 167.00 L 36.80 171.75 L 36.50 176.50 L 30.00 176.53 C 24.26 176.56 23.50 176.79 23.50 178.49 C 23.50 180.21 24.27 180.42 30.50 180.46 L 37.50 180.50 L 37.50 185.00 L 37.50 189.50 L 29.75 189.79 C 22.82 190.05 22.00 190.29 22.00 192.04 C 22.00 193.82 22.72 194.00 29.80 194.00 C 34.71 194.00 38.06 194.46 38.85 195.25 C 39.78 196.18 47.92 196.58 70.85 196.80 L 101.60 197.10 L 101.60 200.55 C 101.60 202.45 101.35 204.02 101.05 204.04 C 100.75 204.07 81.15 204.31 57.50 204.60 C 33.85 204.88 13.92 205.30 13.21 205.54 C 12.50 205.77 11.74 205.41 11.51 204.73 Z M 137.86 204.24 L 107.22 203.97 L 106.79 201.02 C 106.51 199.10 106.84 197.89 107.76 197.54 C 108.53 197.24 128.93 197.00 153.08 197.00 L 197.00 197.00 L 197.00 200.45 L 197.00 203.89 L 182.75 204.20 C 174.91 204.36 154.71 204.38 137.86 204.24 Z M 202.41 203.64 C 202.10 202.82 201.99 201.10 202.17 199.82 L 202.50 197.50 L 231.37 196.42 C 256.56 195.47 260.35 195.12 261.17 193.67 C 261.90 192.36 263.60 192.00 269.05 192.00 C 275.33 192.00 276.00 191.81 276.00 190.00 C 276.00 188.21 275.33 188.00 269.50 188.00 L 263.00 188.00 L 263.00 183.00 L 263.00 178.00 L 270.00 178.00 C 276.36 178.00 277.00 177.81 277.00 175.98 C 277.00 174.12 276.45 173.98 270.25 174.23 L 263.50 174.50 L 263.20 169.79 L 262.89 165.09 L 270.20 164.79 C 275.89 164.56 277.50 164.17 277.50 163.00 C 277.50 161.83 275.89 161.44 270.20 161.21 L 262.89 160.91 L 263.20 156.21 L 263.50 151.50 L 270.81 151.20 C 276.87 150.96 278.08 150.64 277.81 149.32 C 277.57 148.06 276.04 147.71 270.50 147.62 L 263.50 147.50 L 263.20 142.75 L 262.89 138.00 L 270.34 138.00 C 275.81 138.00 277.93 137.63 278.32 136.60 C 279.19 134.35 278.10 134.00 270.33 134.00 L 263.00 134.00 L 263.00 129.00 L 263.00 124.00 L 270.50 124.00 C 277.42 124.00 278.00 123.84 278.00 121.93 C 278.00 120.04 277.40 119.86 270.75 119.81 C 266.76 119.78 249.66 119.58 232.75 119.35 L 202.00 118.94 L 202.00 114.97 C 202.00 112.50 202.47 110.97 203.25 110.92 C 212.95 110.33 291.34 110.74 291.74 111.38 C 292.04 111.87 292.33 132.79 292.39 157.88 L 292.50 203.50 L 248.59 203.79 C 224.45 203.95 204.31 204.31 203.84 204.60 C 203.37 204.89 202.73 204.46 202.41 203.64 Z M 372.51 195.03 C 370.77 191.16 368.78 189.93 367.52 191.96 C 367.20 192.49 368.11 194.79 369.55 197.08 C 371.43 200.05 372.48 200.92 373.25 200.15 C 374.03 199.37 373.82 197.93 372.51 195.03 Z M 54.88 191.22 L 44.25 190.93 L 43.64 187.22 C 43.30 185.17 43.02 170.56 43.01 154.75 L 43.00 126.00 L 72.25 126.00 L 101.50 126.00 L 101.50 158.50 L 101.50 191.00 L 94.50 191.07 C 90.65 191.10 82.55 191.22 76.50 191.32 C 70.45 191.42 60.72 191.37 54.88 191.22 Z M 119.50 191.00 L 106.50 190.50 L 106.25 158.36 L 105.99 126.22 L 124.25 125.54 C 134.29 125.17 154.65 125.01 169.50 125.19 L 196.50 125.50 L 196.50 157.67 C 196.50 175.36 196.28 190.05 196.00 190.31 C 195.25 191.02 134.37 191.57 119.50 191.00 Z M 202.28 158.41 L 202.50 125.50 L 229.75 125.23 L 257.00 124.97 L 257.00 155.91 C 257.00 182.71 256.79 187.07 255.43 188.43 C 254.29 189.56 251.87 190.00 246.68 190.00 C 242.73 190.00 231.08 190.30 220.78 190.66 L 202.07 191.31 L 202.28 158.41 Z M 362.62 182.29 C 358.64 178.65 357.49 178.29 356.65 180.46 C 356.31 181.37 357.49 183.08 359.73 184.93 C 362.63 187.32 363.66 187.69 364.79 186.76 C 365.98 185.77 365.62 185.04 362.62 182.29 Z M 333.93 175.37 C 333.97 174.11 334.82 173.02 336.00 172.71 C 338.35 172.09 338.72 169.00 336.43 169.00 C 335.41 169.00 335.05 168.39 335.39 167.25 C 336.80 162.47 337.14 160.00 336.36 159.98 C 333.13 159.89 307.04 164.61 307.25 165.25 C 307.39 165.68 313.13 169.40 320.00 173.50 C 333.20 181.39 333.73 181.46 333.93 175.37 Z M 9.08 177.42 C 9.13 176.25 9.36 176.01 9.68 176.81 C 9.97 177.53 9.94 178.40 9.60 178.73 C 9.27 179.06 9.04 178.47 9.08 177.42 Z M 352.69 176.44 C 353.05 175.34 346.94 172.00 344.57 172.00 C 341.58 172.00 342.06 175.02 345.28 176.45 C 348.88 178.04 352.17 178.04 352.69 176.44 Z M 105.89 119.10 C 105.53 117.03 106.36 112.40 107.20 111.88 C 108.92 110.81 194.65 110.32 195.70 111.37 C 196.40 112.07 196.58 117.78 195.92 118.38 C 195.21 119.02 106.01 119.73 105.89 119.10 Z M 8.08 112.42 C 8.13 111.25 8.36 111.01 8.68 111.81 C 8.97 112.53 8.94 113.40 8.60 113.73 C 8.27 114.06 8.04 113.47 8.08 112.42 Z M 148.50 108.00 C 148.16 107.45 148.36 107.00 148.94 107.00 C 149.52 107.00 150.00 107.45 150.00 108.00 C 150.00 108.55 149.80 109.00 149.56 109.00 C 149.32 109.00 148.84 108.55 148.50 108.00 Z M 172.00 108.00 C 172.00 107.45 172.48 107.00 173.06 107.00 C 173.64 107.00 173.84 107.45 173.50 108.00 C 173.16 108.55 172.68 109.00 172.44 109.00 C 172.20 109.00 172.00 108.55 172.00 108.00 Z M 196.00 108.12 C 196.00 107.57 196.45 106.84 197.00 106.50 C 197.55 106.16 198.00 106.33 198.00 106.88 C 198.00 107.43 197.55 108.16 197.00 108.50 C 196.45 108.84 196.00 108.67 196.00 108.12 Z M 209.50 108.00 C 209.84 107.45 210.32 107.00 210.56 107.00 C 210.80 107.00 211.00 107.45 211.00 108.00 C 211.00 108.55 210.52 109.00 209.94 109.00 C 209.36 109.00 209.16 108.55 209.50 108.00 Z M 105.96 102.08 C 105.95 100.11 105.81 78.92 105.67 55.00 L 105.42 11.50 L 142.35 11.33 C 169.20 11.21 179.48 10.84 180.00 10.00 C 180.53 9.15 180.86 9.20 181.25 10.20 C 181.65 11.24 183.32 11.43 188.38 11.01 L 194.99 10.46 L 195.60 13.66 C 195.93 15.43 195.90 17.35 195.54 17.94 C 195.10 18.65 184.60 19.00 163.44 19.00 C 143.15 19.00 132.00 19.35 132.00 20.00 C 132.00 20.57 129.02 21.00 125.06 21.00 C 121.24 21.00 117.90 21.36 117.62 21.80 C 116.43 23.73 119.02 24.91 125.03 25.20 L 131.50 25.50 L 131.80 30.25 L 132.11 35.00 L 125.05 35.00 C 118.67 35.00 118.00 35.19 118.00 37.00 C 118.00 38.81 118.67 39.00 125.05 39.00 L 132.11 39.00 L 131.80 43.75 L 131.50 48.50 L 124.19 48.80 C 117.92 49.05 116.92 49.33 117.20 50.80 C 117.48 52.21 118.73 52.50 124.52 52.50 L 131.50 52.50 L 131.50 57.00 L 131.50 61.50 L 124.51 62.00 C 118.89 62.40 117.45 62.84 117.19 64.25 C 116.89 65.79 117.76 66.00 124.48 66.00 L 132.11 66.00 L 131.80 70.75 L 131.50 75.50 L 124.25 75.79 C 117.82 76.05 117.00 76.31 117.00 78.04 C 117.00 79.81 117.72 80.00 124.55 80.00 L 132.11 80.00 L 131.80 84.75 L 131.50 89.50 L 123.75 89.79 C 117.02 90.05 116.00 90.32 116.00 91.91 C 116.00 93.55 116.71 93.68 122.97 93.23 C 128.13 92.86 130.54 93.12 132.22 94.22 C 135.71 96.50 141.39 96.95 168.82 97.12 C 194.74 97.28 197.03 97.62 196.98 101.32 C 196.94 104.78 195.93 104.87 150.73 105.27 L 106.00 105.66 L 105.96 102.08 Z M 202.19 101.55 L 202.50 98.10 L 247.50 97.45 L 292.50 96.81 L 292.51 100.16 C 292.52 102.00 292.07 103.83 291.51 104.23 C 290.96 104.64 270.56 104.98 246.19 104.98 L 201.88 105.00 L 202.19 101.55 Z M 299.56 104.23 C 299.25 103.92 299.00 102.17 299.00 100.33 L 299.00 97.00 L 305.75 96.89 C 309.46 96.84 322.10 96.50 333.83 96.14 C 352.28 95.59 355.33 95.27 356.41 93.80 C 357.32 92.54 359.46 92.02 364.56 91.80 C 370.21 91.55 371.54 91.18 371.81 89.75 C 372.11 88.22 371.27 88.00 365.07 88.00 C 357.31 88.00 357.26 87.95 358.62 81.13 L 359.25 78.00 L 366.12 78.00 C 372.33 78.00 373.00 77.81 373.00 76.00 C 373.00 74.19 372.33 74.00 365.95 74.00 L 358.89 74.00 L 359.20 69.25 C 359.53 64.07 359.14 64.30 367.75 64.12 C 372.04 64.02 373.00 63.68 373.00 62.25 C 373.00 60.76 372.01 60.50 366.25 60.50 L 359.50 60.50 L 359.20 55.75 L 358.89 51.00 L 365.78 51.00 C 373.10 51.00 374.18 50.63 373.32 48.40 C 372.93 47.39 370.88 47.00 365.89 47.00 L 359.00 47.00 L 359.00 42.00 L 359.00 37.00 L 366.50 37.00 C 373.33 37.00 374.00 36.82 374.00 35.00 C 374.00 33.18 373.33 33.00 366.50 33.00 L 359.00 33.00 L 359.00 28.50 C 359.00 23.50 358.36 23.81 368.75 23.80 C 373.11 23.79 374.00 23.49 374.00 22.02 C 374.00 19.78 366.90 19.23 327.50 18.39 C 312.10 18.06 299.20 17.50 298.83 17.15 C 298.46 16.79 298.40 15.26 298.69 13.75 C 299.07 11.83 299.87 10.97 301.37 10.90 C 302.54 10.85 323.07 10.72 347.00 10.61 L 390.50 10.42 L 390.22 56.91 C 390.07 82.47 389.84 103.49 389.72 103.60 C 389.19 104.12 300.07 104.73 299.56 104.23 Z M 199.08 100.42 C 199.13 99.25 199.36 99.01 199.68 99.81 C 199.97 100.53 199.94 101.40 199.60 101.73 C 199.27 102.06 199.04 101.47 199.08 100.42 Z M 296.50 98.00 C 296.16 97.45 296.36 97.00 296.94 97.00 C 297.52 97.00 298.00 97.45 298.00 98.00 C 298.00 98.55 297.80 99.00 297.56 99.00 C 297.32 99.00 296.84 98.55 296.50 98.00 Z M 208.75 91.20 C 204.34 91.01 201.99 90.49 201.96 89.70 C 201.94 89.04 201.74 74.21 201.51 56.75 L 201.08 25.00 L 246.79 25.00 L 292.50 25.00 L 292.34 57.75 L 292.18 90.50 L 281.84 90.74 C 262.19 91.20 215.48 91.50 208.75 91.20 Z M 140.39 90.31 C 138.52 89.95 138.22 88.98 137.65 81.70 C 137.30 77.19 137.01 62.59 137.01 49.25 L 137.00 25.00 L 166.36 25.00 L 195.72 25.00 L 195.71 29.75 C 195.70 32.36 195.78 46.42 195.89 61.00 C 196.00 75.58 196.07 88.29 196.05 89.25 C 196.00 90.88 194.10 90.99 169.25 90.86 C 154.54 90.79 141.55 90.54 140.39 90.31 Z M 299.58 90.14 C 299.01 89.22 298.56 26.10 299.12 25.55 C 299.78 24.90 316.87 24.53 335.33 24.77 L 353.15 25.00 L 352.83 56.45 C 352.63 75.70 352.11 88.26 351.50 88.82 C 350.27 89.96 300.26 91.23 299.58 90.14 Z M 295.81 89.32 C 296.53 89.03 297.40 89.06 297.73 89.40 C 298.06 89.73 297.47 89.96 296.42 89.92 C 295.25 89.87 295.01 89.64 295.81 89.32 Z M 393.08 73.42 C 393.13 72.25 393.36 72.01 393.68 72.81 C 393.97 73.53 393.94 74.40 393.60 74.73 C 393.27 75.06 393.04 74.47 393.08 73.42 Z M 102.00 70.00 C 102.00 69.45 102.48 69.00 103.06 69.00 C 103.64 69.00 103.84 69.45 103.50 70.00 C 103.16 70.55 102.68 71.00 102.44 71.00 C 102.20 71.00 102.00 70.55 102.00 70.00 Z M 295.00 69.94 C 295.00 69.36 295.45 69.16 296.00 69.50 C 296.55 69.84 297.00 70.32 297.00 70.56 C 297.00 70.80 296.55 71.00 296.00 71.00 C 295.45 71.00 295.00 70.52 295.00 69.94 Z M 296.08 46.42 C 296.13 45.25 296.36 45.01 296.68 45.81 C 296.97 46.53 296.94 47.40 296.60 47.73 C 296.27 48.06 296.04 47.47 296.08 46.42 Z M 198.00 27.00 C 198.00 26.45 198.48 26.00 199.06 26.00 C 199.64 26.00 199.84 26.45 199.50 27.00 C 199.16 27.55 198.68 28.00 198.44 28.00 C 198.20 28.00 198.00 27.55 198.00 27.00 Z M 102.08 19.42 C 102.13 18.25 102.36 18.01 102.68 18.81 C 102.97 19.53 102.94 20.40 102.60 20.73 C 102.27 21.06 102.04 20.47 102.08 19.42 Z M 201.75 18.43 C 201.34 18.01 201.00 16.17 201.00 14.33 L 201.00 11.00 L 207.75 10.95 C 211.46 10.92 220.42 10.94 227.66 11.00 C 235.86 11.06 241.07 10.70 241.47 10.05 C 241.83 9.47 242.57 9.00 243.12 9.00 C 243.67 9.00 243.87 9.40 243.56 9.90 C 243.24 10.42 253.29 10.74 267.50 10.66 C 280.98 10.59 292.00 10.86 292.00 11.26 C 292.00 11.67 292.00 13.46 292.00 15.25 L 292.00 18.50 L 247.25 18.85 C 222.64 19.04 202.16 18.86 201.75 18.43 Z M 108.00 8.94 C 108.00 8.36 108.45 8.16 109.00 8.50 C 109.55 8.84 110.00 9.32 110.00 9.56 C 110.00 9.80 109.55 10.00 109.00 10.00 C 108.45 10.00 108.00 9.52 108.00 8.94 Z M 168.75 9.34 C 169.44 9.06 170.56 9.06 171.25 9.34 C 171.94 9.62 171.38 9.84 170.00 9.84 C 168.62 9.84 168.06 9.62 168.75 9.34 Z M 307.81 8.32 C 308.53 8.03 309.40 8.06 309.73 8.40 C 310.06 8.73 309.47 8.96 308.42 8.92 C 307.25 8.87 307.01 8.64 307.81 8.32 Z" fill="none" stroke="rgba(255,255,255,0.92)" stroke-width="1.5" stroke-linejoin="round" fill-rule="evenodd"/>
</svg>
