<svg xmlns="http://www.w3.org/2000/svg" viewBox="0 0 100 100" width="100" height="100">
  <path d="M 0.00 50.00 L 0.00 0.00 L 50.00 0.00 L 100.00 0.00 L 100.00 50.00 L 100.00 100.00 L 50.00 100.00 L 0.00 100.00 L 0.00 50.00 Z M 42.00 95.00 C 42.00 94.45 42.48 94.00 43.06 94.00 C 43.64 94.00 43.86 94.41 43.55 94.92 C 42.93 95.92 91.90 96.36 94.48 95.37 C 96.56 94.57 96.40 91.33 94.25 90.82 C 93.29 90.59 74.39 90.50 52.25 90.63 C 26.23 90.78 12.00 90.51 12.00 89.87 C 12.00 89.33 11.55 89.16 11.00 89.50 C 10.45 89.84 10.00 89.67 10.00 89.11 C 10.00 88.48 16.36 88.10 27.25 88.10 C 36.74 88.09 56.09 87.78 70.25 87.40 L 96.00 86.70 L 96.00 83.79 L 96.00 80.87 L 80.75 81.42 C 72.36 81.73 57.34 82.23 47.37 82.55 L 29.24 83.12 L 28.53 79.33 C 28.14 77.24 27.96 59.56 28.13 40.02 L 28.43 4.50 L 25.72 4.18 C 23.54 3.93 23.00 4.27 23.00 5.93 C 23.00 7.79 22.40 8.00 17.07 8.00 C 12.01 8.00 11.04 7.70 10.50 6.00 C 10.15 4.90 9.42 4.00 8.87 4.00 C 8.33 4.00 8.20 4.56 8.59 5.25 C 9.15 6.25 9.02 6.25 7.95 5.25 C 7.21 4.56 6.29 4.00 5.92 4.00 C 5.21 4.00 6.16 93.96 6.90 95.75 C 7.24 96.59 42.00 95.85 42.00 95.00 Z M 72.00 92.94 C 72.00 92.36 72.45 92.16 73.00 92.50 C 73.55 92.84 74.00 93.32 74.00 93.56 C 74.00 93.80 73.55 94.00 73.00 94.00 C 72.45 94.00 72.00 93.52 72.00 92.94 Z M 11.35 80.02 C 10.77 77.83 10.52 75.81 10.81 75.52 C 11.10 75.23 13.96 75.00 17.17 75.00 L 23.00 75.00 L 23.00 79.50 L 23.00 84.00 L 17.71 84.00 L 12.41 84.00 L 11.35 80.02 Z M 11.76 71.30 C 11.54 70.86 11.26 69.01 11.15 67.19 C 11.05 65.37 10.86 63.34 10.73 62.69 C 10.57 61.88 12.40 61.50 16.50 61.50 L 22.50 61.50 L 22.50 66.50 L 22.50 71.50 L 17.34 71.80 C 14.50 71.96 11.99 71.74 11.76 71.30 Z M 8.00 65.00 C 8.00 64.45 8.45 64.00 9.00 64.00 C 9.55 64.00 10.00 64.45 10.00 65.00 C 10.00 65.55 9.55 66.00 9.00 66.00 C 8.45 66.00 8.00 65.55 8.00 65.00 Z M 11.91 57.80 C 11.86 57.64 11.60 55.93 11.33 54.01 C 11.05 52.09 10.31 50.18 9.67 49.77 C 9.03 49.36 11.72 49.02 15.64 49.02 L 22.79 49.00 L 22.64 53.25 L 22.50 57.50 L 17.25 57.80 C 14.36 57.97 11.96 57.97 11.91 57.80 Z M 11.29 44.37 C 11.64 44.03 11.26 42.17 10.46 40.25 C 9.66 38.33 9.00 36.59 9.00 36.38 C 9.00 36.17 12.15 36.00 16.00 36.00 L 23.00 36.00 L 23.00 40.50 L 23.00 45.00 L 16.83 45.00 C 13.44 45.00 10.95 44.72 11.29 44.37 Z M 9.16 42.00 C 9.16 40.62 9.38 40.06 9.66 40.75 C 9.94 41.44 9.94 42.56 9.66 43.25 C 9.38 43.94 9.16 43.38 9.16 42.00 Z M 10.88 29.30 C 10.76 25.54 10.75 25.53 10.00 28.50 C 9.25 31.45 9.10 31.18 8.63 26.00 C 8.44 23.87 10.06 23.45 17.00 23.84 L 23.11 24.18 L 22.80 28.34 L 22.50 32.50 L 16.75 32.80 L 11.00 33.10 L 10.88 29.30 Z M 11.00 16.94 C 11.00 15.26 10.60 14.13 10.10 14.44 C 9.20 15.00 7.99 12.81 8.02 10.67 C 8.02 9.93 8.30 9.87 8.77 10.50 C 9.17 11.05 12.42 11.50 16.00 11.50 L 22.50 11.50 L 22.81 15.75 L 23.11 20.00 L 17.06 20.00 L 11.00 20.00 L 11.00 16.94 Z" fill="none" stroke="rgba(255,255,255,0.92)" stroke-width="1.2" stroke-linejoin="round" fill-rule="evenodd"/>
</svg>
