<svg xmlns="http://www.w3.org/2000/svg" viewBox="0 0 100 100" width="100" height="100">
  <path d="M 0.00 50.00 L 0.00 0.00 L 50.00 0.00 L 100.00 0.00 L 100.00 50.00 L 100.00 100.00 L 50.00 100.00 L 0.00 100.00 L 0.00 50.00 Z M 48.00 94.44 C 66.43 94.05 84.65 93.68 88.50 93.62 L 95.50 93.50 L 95.50 51.50 C 95.50 28.40 95.35 8.37 95.17 6.98 L 94.84 4.46 L 83.34 4.46 L 71.84 4.46 L 72.38 8.48 C 73.46 16.51 74.24 58.95 73.52 70.44 L 72.79 82.22 L 44.14 81.58 C 28.39 81.23 12.91 80.68 9.75 80.37 L 4.00 79.80 L 4.00 82.79 L 4.00 85.78 L 25.75 86.48 C 37.71 86.86 54.47 87.52 63.00 87.94 L 78.50 88.70 L 65.00 88.99 C 57.58 89.14 47.00 89.40 41.50 89.55 C 36.00 89.71 25.31 89.91 17.75 90.00 L 4.00 90.17 L 4.00 92.94 C 4.00 95.64 4.11 95.70 9.25 95.42 C 12.14 95.27 29.57 94.82 48.00 94.44 Z M 34.00 91.94 C 34.00 91.36 34.45 91.16 35.00 91.50 C 35.55 91.84 36.00 92.32 36.00 92.56 C 36.00 92.80 35.55 93.00 35.00 93.00 C 34.45 93.00 34.00 92.52 34.00 91.94 Z M 79.32 87.53 C 79.78 86.14 90.00 85.58 90.00 86.95 C 90.00 87.53 88.76 88.07 87.25 88.16 C 79.96 88.57 79.00 88.50 79.32 87.53 Z M 79.00 78.00 L 79.00 73.00 L 84.78 73.00 L 90.55 73.00 L 90.44 76.83 C 90.28 82.26 89.51 83.00 83.94 83.00 L 79.00 83.00 L 79.00 78.00 Z M 79.20 64.25 L 79.50 59.50 L 85.00 59.21 L 90.50 58.91 L 90.15 63.96 L 89.81 69.00 L 84.35 69.00 L 78.89 69.00 L 79.20 64.25 Z M 79.90 55.62 C 79.84 55.28 79.80 53.88 79.80 52.50 C 79.80 45.81 79.65 46.00 85.00 46.00 L 90.00 46.00 L 90.00 50.50 C 90.00 54.74 89.84 55.00 87.25 55.01 C 85.74 55.02 83.49 55.30 82.25 55.63 C 81.01 55.96 79.95 55.96 79.90 55.62 Z M 79.63 41.47 C 79.28 40.57 79.00 38.52 79.00 36.92 C 79.00 34.04 79.08 34.00 84.56 34.00 L 90.11 34.00 L 89.81 38.25 L 89.50 42.50 L 84.88 42.80 C 81.34 43.03 80.11 42.72 79.63 41.47 Z M 79.00 25.50 L 79.00 21.00 L 84.50 21.00 L 90.00 21.00 L 90.00 25.50 L 90.00 30.00 L 84.50 30.00 L 79.00 30.00 L 79.00 25.50 Z M 93.08 18.42 C 93.13 17.25 93.36 17.01 93.68 17.81 C 93.97 18.53 93.94 19.40 93.60 19.73 C 93.27 20.06 93.04 19.47 93.08 18.42 Z M 78.71 13.90 C 78.40 11.53 78.36 9.23 78.63 8.80 C 78.90 8.36 81.57 8.00 84.56 8.00 L 90.00 8.00 L 90.00 12.50 C 90.00 16.11 89.66 17.00 88.25 17.01 C 87.29 17.02 84.88 17.29 82.90 17.62 L 79.29 18.21 L 78.71 13.90 Z" fill="none" stroke="rgba(255,255,255,0.92)" stroke-width="1.2" stroke-linejoin="round" fill-rule="evenodd"/>
</svg>
