<svg xmlns="http://www.w3.org/2000/svg" viewBox="0 0 100 100" width="100" height="100">
  <path d="M 0.00 50.00 L 0.00 0.00 L 50.00 0.00 L 100.00 0.00 L 100.00 50.00 L 100.00 100.00 L 50.00 100.00 L 0.00 100.00 L 0.00 50.00 Z M 11.00 89.06 C 11.00 85.24 10.55 81.84 10.00 81.50 C 9.45 81.16 9.00 80.43 9.00 79.88 C 9.00 79.33 9.38 79.12 9.84 79.40 C 10.30 79.69 10.69 71.61 10.71 61.46 C 10.73 49.91 10.37 43.00 9.75 43.00 C 9.14 43.00 9.18 42.48 9.85 41.68 C 10.57 40.82 10.87 34.61 10.72 23.68 C 10.53 9.44 10.72 6.99 12.00 6.94 C 21.90 6.54 49.56 6.01 69.80 5.85 C 83.72 5.73 95.33 5.27 95.61 4.82 C 95.88 4.38 75.66 4.02 50.66 4.02 L 5.22 4.03 L 5.49 49.26 C 5.65 74.14 5.82 94.84 5.88 95.25 C 5.95 95.66 7.12 96.00 8.50 96.00 C 10.93 96.00 11.00 95.80 11.00 89.06 Z M 75.75 94.00 L 96.00 94.00 L 96.00 90.84 L 96.00 87.68 L 65.50 88.31 L 35.00 88.94 L 35.00 51.63 L 35.00 14.32 L 54.66 13.66 C 65.47 13.30 79.20 13.00 85.16 13.00 L 96.00 13.00 L 96.00 10.21 L 96.00 7.43 L 72.25 7.69 C 38.38 8.06 14.94 8.73 14.33 9.34 C 12.75 10.91 15.91 12.00 22.06 12.00 L 29.00 12.00 L 29.00 17.00 L 29.00 22.00 L 22.00 22.00 C 15.67 22.00 15.00 22.19 15.00 24.00 C 15.00 25.81 15.67 26.00 22.00 26.00 L 29.00 26.00 L 29.00 31.00 L 29.00 36.00 L 22.00 36.00 C 15.54 36.00 15.00 36.16 15.00 38.11 C 15.00 40.10 15.42 40.20 22.04 39.83 L 29.09 39.43 L 28.79 44.46 C 28.47 50.05 29.52 49.48 18.75 49.87 C 16.14 49.96 15.00 50.46 15.00 51.50 C 15.00 52.69 16.44 53.00 22.00 53.00 L 29.00 53.00 L 29.00 58.00 L 29.00 63.00 L 22.00 63.00 C 15.67 63.00 15.00 63.19 15.00 65.00 C 15.00 66.81 15.67 67.00 22.00 67.00 L 29.00 67.00 L 29.00 72.00 L 29.00 77.00 L 22.00 77.00 C 15.67 77.00 15.00 77.19 15.00 79.00 C 15.00 80.81 15.67 81.00 22.00 81.00 L 29.00 81.00 L 29.00 86.00 L 29.00 91.00 L 22.00 91.00 C 15.50 91.00 15.00 91.15 15.00 93.16 L 15.00 95.32 L 35.25 94.66 C 46.39 94.30 64.61 94.00 75.75 94.00 Z" fill="none" stroke="rgba(255,255,255,0.92)" stroke-width="1.2" stroke-linejoin="round" fill-rule="evenodd"/>
</svg>
