<svg xmlns="http://www.w3.org/2000/svg" viewBox="0 0 100 100" width="100" height="100">
  <path d="M 0.00 50.00 L 0.00 0.00 L 50.00 0.00 L 100.00 0.00 L 100.00 50.00 L 100.00 100.00 L 50.00 100.00 L 0.00 100.00 L 0.00 50.00 Z M 76.50 95.13 C 84.44 94.63 86.50 94.19 86.50 93.00 C 86.50 91.83 85.17 91.50 80.50 91.50 L 74.50 91.50 L 74.50 86.50 L 74.50 81.50 L 80.25 81.20 C 84.47 80.98 86.00 80.51 86.00 79.45 C 86.00 78.34 84.57 78.00 80.00 78.00 L 74.00 78.00 L 74.00 73.00 L 74.00 68.00 L 80.00 68.00 C 85.33 68.00 86.00 67.78 86.00 66.00 C 86.00 64.22 85.33 64.00 80.00 64.00 L 74.00 64.00 L 74.00 59.00 L 74.00 54.00 L 80.00 54.00 C 85.33 54.00 86.00 53.78 86.00 52.00 C 86.00 50.22 85.33 50.00 80.00 50.00 L 74.00 50.00 L 74.00 45.00 L 74.00 40.00 L 80.00 40.00 C 85.33 40.00 86.00 39.78 86.00 38.00 C 86.00 36.22 85.33 36.00 80.02 36.00 C 74.54 36.00 73.99 35.80 73.44 33.60 C 73.11 32.28 72.98 30.15 73.17 28.85 C 73.46 26.75 74.13 26.45 79.50 26.00 C 83.94 25.63 85.50 25.11 85.50 24.00 C 85.50 22.86 84.01 22.43 79.25 22.20 L 73.00 21.90 L 73.00 16.95 L 73.00 12.00 L 79.00 12.00 C 84.32 12.00 85.00 11.78 85.00 10.01 C 85.00 8.06 84.34 8.03 44.50 8.26 L 4.00 8.50 L 4.00 11.25 L 4.00 14.00 L 35.35 14.00 L 66.70 14.00 L 67.34 23.75 C 67.70 29.11 67.99 46.21 67.99 61.75 L 68.00 90.00 L 36.00 90.00 L 4.00 90.00 L 4.00 93.00 L 4.00 96.00 L 35.25 95.88 C 52.44 95.82 71.00 95.48 76.50 95.13 Z M 95.65 54.25 C 95.34 31.29 95.07 10.59 95.04 8.26 L 95.00 4.03 L 49.50 4.04 C 8.52 4.06 -0.50 4.54 5.75 6.38 C 6.71 6.67 25.96 6.79 48.51 6.65 L 89.53 6.41 L 89.84 23.95 C 90.02 33.60 90.30 53.65 90.48 68.50 C 90.65 83.35 90.84 95.61 90.90 95.75 C 90.95 95.89 92.17 96.00 93.61 96.00 L 96.22 96.00 L 95.65 54.25 Z" fill="none" stroke="rgba(255,255,255,0.92)" stroke-width="1.2" stroke-linejoin="round" fill-rule="evenodd"/>
</svg>
