<svg xmlns="http://www.w3.org/2000/svg" viewBox="0 0 100 100" width="100" height="100">
  <path d="M 0.00 50.00 L 0.00 0.00 L 50.00 0.00 L 100.00 0.00 L 100.00 50.00 L 100.00 100.00 L 50.00 100.00 L 0.00 100.00 L 0.00 50.00 Z M 5.22 81.23 C 4.99 74.23 4.62 68.31 4.40 68.08 C 4.18 67.85 4.01 74.15 4.02 82.08 C 4.02 90.01 4.39 95.93 4.83 95.23 C 5.28 94.54 5.45 88.24 5.22 81.23 Z M 96.00 58.50 C 96.00 37.88 95.63 21.00 95.17 21.00 C 94.57 21.00 94.31 94.13 94.91 95.75 C 95.76 98.06 96.00 89.84 96.00 58.50 Z M 5.93 66.25 C 5.89 65.84 5.47 64.60 5.00 63.50 C 4.24 61.73 4.13 61.81 4.07 64.25 C 4.03 65.76 4.45 67.00 5.00 67.00 C 5.55 67.00 5.97 66.66 5.93 66.25 Z M 4.74 41.25 C 4.55 37.54 4.39 40.58 4.39 48.00 C 4.39 55.42 4.55 58.46 4.74 54.75 C 4.93 51.04 4.93 44.96 4.74 41.25 Z M 4.69 30.27 C 4.44 29.30 4.22 29.85 4.19 31.50 C 4.17 33.15 4.38 33.95 4.66 33.27 C 4.93 32.59 4.95 31.24 4.69 30.27 Z M 14.81 22.02 C 20.14 22.03 40.59 21.49 60.25 20.82 L 96.00 19.60 L 96.00 12.96 L 96.00 6.32 L 50.00 6.39 C 12.40 6.46 4.00 6.71 4.00 7.80 C 4.00 8.78 5.78 9.13 10.75 9.11 C 26.37 9.06 29.95 9.28 29.36 10.22 C 29.03 10.76 29.69 10.70 30.82 10.10 C 32.18 9.37 33.09 9.34 33.50 10.00 C 34.38 11.42 36.05 11.24 35.75 9.75 C 35.61 9.06 36.16 8.65 36.97 8.82 C 38.57 9.18 51.08 9.86 57.50 9.95 C 59.70 9.98 62.96 9.73 64.75 9.39 C 67.13 8.94 68.00 9.14 68.02 10.14 C 68.03 11.18 68.21 11.21 68.82 10.26 C 69.38 9.37 70.50 9.28 72.79 9.94 C 74.64 10.47 76.20 10.48 76.52 9.96 C 76.82 9.48 79.42 9.25 82.29 9.47 C 94.58 10.39 96.16 10.90 94.15 13.32 C 93.26 14.39 87.25 14.84 67.25 15.34 C 53.09 15.70 33.32 16.28 23.33 16.64 L 5.16 17.30 L 4.73 14.40 C 4.49 12.80 4.30 15.32 4.31 20.00 C 4.32 24.68 4.50 27.04 4.72 25.25 L 5.13 22.00 L 14.81 22.02 Z" fill="none" stroke="rgba(255,255,255,0.92)" stroke-width="1.2" stroke-linejoin="round" fill-rule="evenodd"/>
</svg>
