<svg xmlns="http://www.w3.org/2000/svg" viewBox="0 0 389 400" width="389" height="400">
  <path d="M 0.00 200.00 L 0.00 0.00 L 194.50 -0.00 L 388.99 -0.00 L 388.99 167.50 C 388.99 334.15 388.98 335.00 386.99 335.00 C 385.90 335.00 385.00 335.45 385.00 336.00 C 385.00 336.55 385.90 337.00 387.00 337.00 C 388.79 337.00 389.00 337.66 388.97 343.25 L 388.94 349.50 L 382.90 353.88 C 378.54 357.05 377.17 358.57 377.96 359.36 C 378.75 360.15 379.60 360.11 381.02 359.22 C 383.43 357.72 383.43 357.76 381.36 366.63 C 379.48 374.68 379.94 377.30 383.16 376.82 C 384.76 376.58 385.80 375.18 387.09 371.50 L 388.84 366.50 L 388.92 383.25 L 389.00 400.00 L 194.50 400.00 L 0.00 400.00 L 0.00 200.00 Z M 261.58 333.39 C 261.39 299.75 261.62 271.61 262.08 270.87 C 262.70 269.87 263.21 269.81 264.04 270.64 C 264.74 271.34 266.39 271.48 268.48 271.01 C 270.30 270.59 272.25 270.54 272.80 270.88 C 273.88 271.55 340.30 271.35 361.00 270.62 C 367.88 270.38 375.91 270.14 378.86 270.09 L 384.22 270.00 L 383.55 217.75 C 382.61 143.13 382.46 136.56 381.72 135.35 C 381.25 134.59 370.66 134.36 346.77 134.58 C 327.92 134.76 307.55 134.89 301.50 134.87 C 289.20 134.83 287.57 134.84 284.00 134.96 C 282.62 135.01 277.11 135.07 271.75 135.09 C 262.46 135.13 261.96 135.03 261.13 132.82 C 260.22 130.40 259.99 118.75 259.50 49.82 C 259.34 26.90 258.95 7.73 258.63 7.21 C 258.29 6.65 232.70 6.33 194.29 6.40 L 130.53 6.52 L 130.78 18.51 C 130.92 25.10 131.04 31.18 131.03 32.00 C 131.03 32.83 131.06 36.88 131.09 41.00 C 131.69 112.35 131.45 133.00 130.00 133.12 C 129.18 133.18 116.58 133.36 102.00 133.52 C 87.42 133.69 61.33 134.14 44.00 134.54 C 26.67 134.93 11.26 135.22 9.75 135.17 L 7.00 135.08 L 6.84 158.79 C 6.76 171.83 6.76 183.18 6.86 184.00 C 6.95 184.82 7.07 204.27 7.12 227.21 C 7.19 260.99 7.46 269.14 8.56 270.05 C 9.30 270.67 10.42 270.86 11.05 270.47 C 11.68 270.08 38.65 269.65 70.99 269.51 C 103.32 269.37 130.17 269.01 130.64 268.72 C 131.11 268.43 131.64 296.25 131.81 330.79 C 131.99 365.23 132.34 393.74 132.59 394.15 C 132.85 394.56 162.05 394.83 197.48 394.73 L 261.91 394.56 L 261.58 333.39 Z M 148.81 390.32 C 149.53 390.03 150.40 390.06 150.73 390.40 C 151.06 390.73 150.47 390.96 149.42 390.92 C 148.25 390.87 148.01 390.64 148.81 390.32 Z M 138.50 328.99 C 138.50 275.57 138.86 264.32 140.40 269.11 C 140.74 270.14 141.69 338.69 141.98 382.82 C 142.00 384.65 142.47 385.07 144.25 384.82 C 146.36 384.52 146.51 383.99 146.63 376.50 C 146.71 372.10 146.82 367.69 146.88 366.70 C 146.98 365.14 147.82 364.94 153.20 365.20 L 159.41 365.50 L 159.53 371.00 C 159.84 384.76 159.88 385.00 161.96 385.00 C 163.76 385.00 163.95 384.18 164.21 375.25 L 164.50 365.50 L 170.75 365.20 L 177.00 364.90 L 177.00 374.39 C 177.00 383.98 177.52 385.50 180.41 384.40 C 181.73 383.89 181.89 382.66 181.36 377.00 C 181.02 373.26 181.03 369.01 181.40 367.56 C 182.04 365.00 182.29 364.92 188.28 365.20 L 194.50 365.50 L 194.54 374.50 C 194.58 382.95 194.72 383.52 196.76 383.81 C 198.83 384.12 198.94 383.73 199.21 374.81 L 199.50 365.50 L 205.50 365.50 L 211.50 365.50 L 211.79 374.75 C 212.07 383.83 212.12 384.00 214.54 384.00 C 216.98 384.00 217.00 383.93 217.00 374.45 L 217.00 364.90 L 223.25 365.20 L 229.50 365.50 L 229.61 374.50 C 229.72 382.88 229.88 383.52 231.86 383.82 C 233.91 384.13 234.00 383.76 234.00 375.09 C 234.00 364.93 233.94 365.01 242.50 365.34 L 246.50 365.50 L 247.00 374.50 C 247.47 382.90 247.65 383.52 249.75 383.82 L 252.00 384.14 L 252.00 327.07 C 252.00 295.13 252.39 270.00 252.88 270.00 C 254.48 270.00 254.62 275.15 254.56 331.50 L 254.50 387.50 L 247.15 388.00 C 243.11 388.27 239.59 388.16 239.33 387.73 C 239.07 387.31 238.44 387.23 237.92 387.55 C 237.40 387.87 217.52 388.09 193.74 388.04 C 145.01 387.94 139.85 387.98 139.06 388.46 C 138.75 388.65 138.50 361.89 138.50 328.99 Z M 259.08 387.42 C 259.13 386.25 259.36 386.01 259.68 386.81 C 259.97 387.53 259.94 388.40 259.60 388.73 C 259.27 389.06 259.04 388.47 259.08 387.42 Z M 135.00 383.56 C 135.00 382.70 135.45 382.00 136.00 382.00 C 136.55 382.00 137.00 382.42 137.00 382.94 C 137.00 383.46 136.55 384.16 136.00 384.50 C 135.45 384.84 135.00 384.42 135.00 383.56 Z M 135.16 379.00 C 135.16 377.62 135.38 377.06 135.66 377.75 C 135.94 378.44 135.94 379.56 135.66 380.25 C 135.38 380.94 135.16 380.38 135.16 379.00 Z M 135.71 374.00 C 136.00 372.90 136.41 372.00 136.62 372.00 C 136.83 372.00 137.00 372.90 137.00 374.00 C 137.00 375.10 136.59 376.00 136.09 376.00 C 135.60 376.00 135.42 375.10 135.71 374.00 Z M 360.14 368.29 C 361.06 364.89 362.07 361.69 362.39 361.19 C 362.72 360.64 364.71 360.60 367.23 361.09 C 372.89 362.18 374.00 362.18 374.00 361.07 C 374.00 360.56 371.52 359.83 368.50 359.46 C 363.32 358.81 362.55 358.23 362.91 355.30 C 363.00 354.64 362.12 353.60 360.97 352.98 C 358.66 351.75 356.00 353.13 356.00 355.56 C 356.00 356.35 354.49 357.03 352.25 357.26 L 348.50 357.63 L 351.75 358.44 C 355.37 359.34 355.64 360.50 353.95 367.86 C 353.21 371.05 353.26 372.61 354.13 373.65 C 356.43 376.43 358.43 374.65 360.14 368.29 Z M 259.08 368.42 C 259.13 367.25 259.36 367.01 259.68 367.81 C 259.97 368.53 259.94 369.40 259.60 369.73 C 259.27 370.06 259.04 369.47 259.08 368.42 Z M 135.08 367.42 C 135.13 366.25 135.36 366.01 135.68 366.81 C 135.97 367.53 135.94 368.40 135.60 368.73 C 135.27 369.06 135.04 368.47 135.08 367.42 Z M 344.91 355.68 C 346.06 353.31 347.00 350.20 347.00 348.76 C 347.00 346.63 346.41 346.03 343.75 345.46 C 338.70 344.38 338.65 344.10 342.84 339.56 C 347.29 334.73 349.37 331.33 348.25 330.69 C 346.34 329.60 333.00 328.94 333.00 329.94 C 333.00 330.52 333.86 331.00 334.92 331.00 C 340.45 331.00 339.99 332.09 329.43 343.84 C 320.01 354.31 319.13 355.62 320.67 356.75 C 322.50 358.09 326.02 357.48 327.22 355.62 C 327.70 354.88 328.45 355.22 329.44 356.62 C 330.47 358.09 331.67 358.60 333.35 358.27 C 334.68 358.02 336.07 358.30 336.44 358.91 C 336.81 359.51 338.40 360.00 339.97 360.00 C 342.34 360.00 343.17 359.27 344.91 355.68 Z M 148.85 319.75 C 148.66 270.43 148.84 265.62 150.80 268.62 C 151.26 269.31 157.31 269.65 168.00 269.58 C 177.07 269.53 184.99 269.81 185.58 270.22 C 186.17 270.63 188.04 270.56 189.73 270.08 C 191.68 269.52 193.17 269.57 193.82 270.22 C 194.52 270.92 195.82 270.91 197.90 270.18 C 199.58 269.60 201.16 269.45 201.41 269.86 C 201.66 270.27 211.35 270.58 222.93 270.55 L 244.00 270.50 L 244.00 314.25 L 244.00 358.00 L 196.50 358.00 L 149.00 358.00 L 148.85 319.75 Z M 333.69 356.25 C 333.46 355.84 333.77 353.48 334.39 351.01 C 335.14 347.97 336.10 346.40 337.35 346.17 C 338.96 345.86 339.11 346.25 338.47 349.16 C 337.00 355.95 335.11 358.75 333.69 356.25 Z M 369.97 350.54 C 371.03 349.26 371.48 349.27 373.59 350.65 C 376.51 352.56 376.79 351.03 373.99 348.49 C 372.15 346.83 372.11 346.48 373.49 344.37 C 375.89 340.71 375.41 339.00 371.99 339.00 C 369.33 339.00 368.66 339.65 366.26 344.55 C 363.93 349.29 363.75 350.23 365.02 351.03 C 367.12 352.36 368.57 352.22 369.97 350.54 Z M 363.00 347.07 C 363.00 346.56 361.92 345.30 360.60 344.26 C 358.80 342.84 358.33 341.71 358.72 339.69 C 359.54 335.38 355.82 336.17 352.63 340.98 C 351.18 343.17 350.00 345.42 350.00 345.98 C 350.00 347.58 353.15 347.18 355.21 345.31 C 356.96 343.72 357.20 343.75 359.26 345.81 C 361.57 348.13 363.00 348.61 363.00 347.07 Z M 375.50 334.00 C 374.40 333.53 372.11 333.11 370.42 333.07 C 366.30 332.98 365.81 332.27 367.54 328.92 C 369.45 325.23 369.39 323.36 367.32 322.57 C 365.14 321.73 363.37 323.64 362.25 328.00 C 361.37 331.47 361.33 331.50 356.43 331.16 C 349.25 330.66 351.95 332.68 360.00 333.83 C 368.62 335.06 378.21 335.16 375.50 334.00 Z M 134.23 295.00 C 134.23 293.07 134.44 292.29 134.69 293.25 C 134.94 294.21 134.94 295.79 134.69 296.75 C 134.44 297.71 134.23 296.93 134.23 295.00 Z M 134.50 287.00 C 134.84 286.45 135.32 286.00 135.56 286.00 C 135.80 286.00 136.00 286.45 136.00 287.00 C 136.00 287.55 135.52 288.00 134.94 288.00 C 134.36 288.00 134.16 287.55 134.50 287.00 Z M 135.25 284.34 C 133.51 283.64 133.68 282.00 135.50 282.00 C 136.32 282.00 137.00 282.68 137.00 283.50 C 137.00 284.32 136.89 284.96 136.75 284.92 C 136.61 284.88 135.94 284.62 135.25 284.34 Z M 134.08 278.42 C 134.13 277.25 134.36 277.01 134.68 277.81 C 134.97 278.53 134.94 279.40 134.60 279.73 C 134.27 280.06 134.04 279.47 134.08 278.42 Z M 134.50 273.00 C 134.84 272.45 135.32 272.00 135.56 272.00 C 135.80 272.00 136.00 272.45 136.00 273.00 C 136.00 273.55 135.52 274.00 134.94 274.00 C 134.36 274.00 134.16 273.55 134.50 273.00 Z M 258.00 270.00 C 258.00 269.45 258.48 269.00 259.06 269.00 C 259.64 269.00 259.84 269.45 259.50 270.00 C 259.16 270.55 258.68 271.00 258.44 271.00 C 258.20 271.00 258.00 270.55 258.00 270.00 Z M 131.67 267.33 C 130.71 266.38 130.84 265.00 131.89 265.00 C 132.38 265.00 133.05 265.68 133.36 266.50 C 133.95 268.02 132.88 268.55 131.67 267.33 Z M 242.10 265.88 C 242.00 263.39 241.81 263.30 238.06 263.99 C 235.78 264.41 233.70 264.30 233.13 263.73 C 232.49 263.09 231.11 263.11 229.16 263.79 C 227.52 264.37 225.90 264.57 225.57 264.23 C 224.98 263.65 209.97 263.24 168.50 262.70 C 151.71 262.47 148.50 262.20 148.50 260.97 C 148.50 259.75 150.69 259.52 161.50 259.61 C 247.05 260.33 244.00 260.25 243.90 261.91 C 243.85 262.79 243.44 264.62 243.00 266.00 L 242.20 268.50 L 242.10 265.88 Z M 92.00 266.00 C 92.00 265.45 92.48 265.00 93.06 265.00 C 93.64 265.00 93.84 265.45 93.50 266.00 C 93.16 266.55 92.68 267.00 92.44 267.00 C 92.20 267.00 92.00 266.55 92.00 266.00 Z M 156.50 266.00 C 156.84 265.45 157.57 265.00 158.12 265.00 C 158.67 265.00 158.84 265.45 158.50 266.00 C 158.16 266.55 157.43 267.00 156.88 267.00 C 156.33 267.00 156.16 266.55 156.50 266.00 Z M 252.07 264.25 C 252.03 262.46 252.45 261.00 253.00 261.00 C 254.19 261.00 254.19 262.74 253.00 265.50 C 252.28 267.18 252.13 266.97 252.07 264.25 Z M 261.00 264.17 C 260.45 263.98 260.00 263.20 260.00 262.42 C 260.00 261.22 267.07 260.98 306.25 260.89 C 331.69 260.83 356.77 260.49 362.00 260.14 C 370.62 259.56 371.50 259.31 371.50 257.50 C 371.50 255.70 370.74 255.47 363.75 255.21 C 356.56 254.94 355.99 254.76 355.87 252.71 C 355.73 250.45 355.75 245.49 355.91 243.25 C 355.97 242.37 358.21 242.00 363.50 242.00 C 370.80 242.00 371.00 241.93 371.00 239.54 C 371.00 237.17 370.74 237.07 363.25 236.79 L 355.50 236.50 L 355.17 230.25 L 354.84 224.00 L 360.67 223.99 C 368.36 223.97 371.00 223.19 371.00 220.93 C 371.00 219.32 370.00 219.05 363.25 218.79 L 355.50 218.50 L 355.20 211.75 L 354.91 205.00 L 362.95 205.00 C 370.87 205.00 371.00 204.96 371.00 202.50 C 371.00 200.04 370.87 200.00 363.00 200.00 L 355.00 200.00 L 355.00 193.54 L 355.00 187.08 L 362.74 186.79 C 369.39 186.54 370.53 186.24 370.84 184.62 C 371.37 181.83 369.60 181.25 362.09 181.76 L 355.31 182.22 L 354.66 176.01 C 354.30 172.59 354.26 169.39 354.56 168.90 C 354.87 168.40 358.47 168.00 362.56 168.00 C 369.80 168.00 370.00 167.93 370.00 165.54 C 370.00 163.17 369.74 163.07 362.25 162.79 L 354.50 162.50 L 354.50 156.00 L 354.50 149.50 L 362.31 149.21 C 369.58 148.93 370.11 148.77 369.81 146.84 C 369.50 144.77 369.41 144.77 315.00 144.89 C 282.84 144.97 259.91 144.64 259.07 144.09 C 256.48 142.40 263.57 142.03 293.00 142.30 C 308.68 142.45 322.81 142.22 324.42 141.80 C 326.11 141.36 327.86 141.46 328.55 142.04 C 329.35 142.71 330.63 142.71 332.38 142.05 C 334.01 141.43 335.91 141.39 337.40 141.96 C 338.72 142.46 340.00 142.67 340.25 142.42 C 340.64 142.03 367.83 141.60 373.50 141.90 C 375.41 142.00 375.51 142.78 375.71 159.25 C 376.21 199.04 377.06 252.87 377.27 257.75 L 377.50 263.00 L 373.50 263.10 C 371.30 263.15 365.45 263.36 360.50 263.57 C 348.36 264.07 262.27 264.59 261.00 264.17 Z M 13.81 252.30 C 13.64 245.98 13.72 240.67 14.00 240.50 C 14.28 240.33 14.38 236.89 14.23 232.85 C 14.09 228.81 13.94 217.74 13.91 208.25 C 13.88 197.91 13.47 191.00 12.89 191.00 C 12.31 191.00 12.35 190.21 13.00 189.00 C 13.62 187.85 14.06 181.00 14.04 172.75 C 14.03 164.91 14.05 157.60 14.07 156.50 C 14.10 155.40 13.98 151.91 13.81 148.75 C 13.50 143.03 13.52 142.99 16.50 142.59 C 18.15 142.37 20.74 142.18 22.25 142.16 C 23.76 142.14 26.12 142.11 27.50 142.08 C 28.88 142.06 30.56 142.04 31.25 142.03 C 31.94 142.02 43.75 141.79 57.50 141.51 C 108.94 140.47 128.95 140.55 130.21 141.81 C 131.13 142.73 128.94 143.01 120.45 143.02 C 104.09 143.06 57.98 143.95 37.25 144.62 C 20.36 145.17 19.00 145.35 19.00 147.07 C 19.00 148.72 20.01 148.96 28.25 149.21 L 37.50 149.50 L 37.50 156.00 L 37.50 162.50 L 28.25 162.79 C 19.17 163.07 19.00 163.12 19.00 165.54 C 19.00 167.98 19.07 168.00 28.50 168.00 L 38.00 168.00 L 38.00 174.50 L 38.00 181.00 L 28.50 181.00 C 19.03 181.00 19.00 181.01 19.00 183.50 C 19.00 185.99 19.03 186.00 28.50 186.00 L 38.00 186.00 L 38.00 192.46 L 38.00 198.92 L 28.75 199.21 C 19.72 199.49 19.49 199.56 19.21 202.00 L 18.91 204.50 L 28.50 204.15 L 38.10 203.80 L 37.80 210.65 L 37.50 217.50 L 28.19 217.79 C 19.22 218.07 18.88 218.16 19.19 220.29 C 19.48 222.38 19.97 222.50 28.50 222.50 L 37.50 222.50 L 37.50 229.00 L 37.50 235.50 L 28.50 236.00 C 20.10 236.47 19.48 236.65 19.18 238.75 C 18.87 240.95 19.08 241.00 28.43 241.00 L 38.00 241.00 L 38.00 247.46 L 38.00 253.92 L 28.75 254.21 C 19.87 254.49 19.50 254.59 19.50 256.78 L 19.50 259.07 L 74.75 259.02 C 123.48 258.97 130.00 259.15 130.00 260.48 C 130.00 261.51 128.96 262.02 126.75 262.07 C 124.96 262.10 101.37 262.22 74.31 262.33 C 47.26 262.45 24.80 262.86 24.41 263.26 C 24.01 263.66 23.11 263.51 22.41 262.93 C 21.55 262.21 20.00 262.18 17.63 262.84 L 14.12 263.81 L 13.81 252.30 Z M 137.00 261.50 C 137.00 260.68 137.19 260.00 137.42 260.00 C 137.65 260.00 138.55 259.73 139.42 259.39 C 140.55 258.96 141.00 259.38 141.00 260.89 C 141.00 262.33 140.37 263.00 139.00 263.00 C 137.89 263.00 137.00 262.33 137.00 261.50 Z M 132.15 261.05 C 132.58 259.76 133.95 259.53 134.07 260.73 C 134.12 261.12 133.61 261.63 132.95 261.85 C 132.29 262.07 131.93 261.71 132.15 261.05 Z M 187.50 252.02 L 149.50 251.50 L 148.81 233.50 C 148.43 223.60 148.20 201.10 148.31 183.50 L 148.50 151.50 L 195.50 151.89 C 228.34 152.17 242.72 152.62 243.23 153.39 C 243.64 154.00 243.98 176.66 243.98 203.75 L 244.00 253.00 L 234.75 252.77 C 229.66 252.64 208.40 252.30 187.50 252.02 Z M 251.72 246.28 C 251.41 242.55 251.11 219.87 251.05 195.88 L 250.94 152.27 L 253.47 152.75 C 255.00 153.04 255.97 153.88 255.92 154.87 C 255.87 155.90 255.66 156.04 255.34 155.25 C 255.06 154.56 254.28 154.00 253.61 154.00 C 252.69 154.00 252.46 158.73 252.66 173.75 C 253.58 241.32 253.27 265.07 251.72 246.28 Z M 260.00 252.75 C 260.00 252.61 259.89 230.04 259.75 202.58 L 259.50 152.67 L 302.81 152.72 C 326.62 152.75 346.26 152.94 346.44 153.14 C 346.63 153.34 347.11 175.89 347.51 203.25 L 348.23 253.00 L 304.12 253.00 C 279.85 253.00 260.00 252.89 260.00 252.75 Z M 45.55 250.26 C 45.29 249.58 45.05 227.27 45.02 200.67 L 44.97 152.32 L 64.64 151.66 C 75.47 151.30 94.71 151.00 107.41 151.00 L 130.50 151.00 L 130.41 200.51 C 130.35 227.74 130.13 250.21 129.90 250.43 C 129.68 250.65 110.72 250.98 87.76 251.16 C 55.28 251.43 45.92 251.23 45.55 250.26 Z M 136.50 250.06 C 138.46 249.26 138.50 248.35 138.42 200.12 C 138.35 159.80 138.57 151.00 139.67 151.00 C 140.76 151.00 141.00 159.98 141.00 201.00 L 141.00 251.00 L 137.75 250.94 C 135.08 250.88 134.86 250.73 136.50 250.06 Z M 10.00 248.44 C 10.00 247.58 10.46 247.16 11.02 247.51 C 11.58 247.86 11.77 248.56 11.46 249.07 C 10.60 250.46 10.00 250.20 10.00 248.44 Z M 135.08 241.42 C 135.13 240.25 135.36 240.01 135.68 240.81 C 135.97 241.53 135.94 242.40 135.60 242.73 C 135.27 243.06 135.04 242.47 135.08 241.42 Z M 11.00 239.94 C 11.00 239.36 11.45 239.16 12.00 239.50 C 12.55 239.84 13.00 240.32 13.00 240.56 C 13.00 240.80 12.55 241.00 12.00 241.00 C 11.45 241.00 11.00 240.52 11.00 239.94 Z M 133.16 237.00 C 133.16 235.62 133.38 235.06 133.66 235.75 C 133.94 236.44 133.94 237.56 133.66 238.25 C 133.38 238.94 133.16 238.38 133.16 237.00 Z M 133.00 229.00 C 133.00 228.45 133.45 228.00 134.00 228.00 C 134.55 228.00 135.00 228.45 135.00 229.00 C 135.00 229.55 134.55 230.00 134.00 230.00 C 133.45 230.00 133.00 229.55 133.00 229.00 Z M 133.08 221.42 C 133.13 220.25 133.36 220.01 133.68 220.81 C 133.97 221.53 133.94 222.40 133.60 222.73 C 133.27 223.06 133.04 222.47 133.08 221.42 Z M 11.00 221.00 C 11.00 220.45 11.48 220.00 12.06 220.00 C 12.64 220.00 12.84 220.45 12.50 221.00 C 12.16 221.55 11.68 222.00 11.44 222.00 C 11.20 222.00 11.00 221.55 11.00 221.00 Z M 255.50 217.00 C 255.84 216.45 256.32 216.00 256.56 216.00 C 256.80 216.00 257.00 216.45 257.00 217.00 C 257.00 217.55 256.52 218.00 255.94 218.00 C 255.36 218.00 255.16 217.55 255.50 217.00 Z M 11.00 212.44 C 11.00 211.58 11.45 211.16 12.00 211.50 C 12.55 211.84 13.00 212.54 13.00 213.06 C 13.00 213.58 12.55 214.00 12.00 214.00 C 11.45 214.00 11.00 213.30 11.00 212.44 Z M 133.08 209.42 C 133.13 208.25 133.36 208.01 133.68 208.81 C 133.97 209.53 133.94 210.40 133.60 210.73 C 133.27 211.06 133.04 210.47 133.08 209.42 Z M 133.54 207.07 C 133.23 206.56 133.42 205.86 133.98 205.51 C 134.54 205.16 135.00 205.58 135.00 206.44 C 135.00 208.20 134.40 208.46 133.54 207.07 Z M 133.00 201.44 C 133.00 200.58 133.45 200.16 134.00 200.50 C 134.55 200.84 135.00 201.54 135.00 202.06 C 135.00 202.58 134.55 203.00 134.00 203.00 C 133.45 203.00 133.00 202.30 133.00 201.44 Z M 10.50 201.00 C 10.84 200.45 11.32 200.00 11.56 200.00 C 11.80 200.00 12.00 200.45 12.00 201.00 C 12.00 201.55 11.52 202.00 10.94 202.00 C 10.36 202.00 10.16 201.55 10.50 201.00 Z M 134.50 197.00 C 134.16 196.45 134.36 196.00 134.94 196.00 C 135.52 196.00 136.00 196.45 136.00 197.00 C 136.00 197.55 135.80 198.00 135.56 198.00 C 135.32 198.00 134.84 197.55 134.50 197.00 Z M 255.00 194.00 C 255.00 193.45 255.45 193.00 256.00 193.00 C 256.55 193.00 257.00 193.45 257.00 194.00 C 257.00 194.55 256.55 195.00 256.00 195.00 C 255.45 195.00 255.00 194.55 255.00 194.00 Z M 133.00 192.00 C 133.00 191.45 133.48 191.00 134.06 191.00 C 134.64 191.00 134.84 191.45 134.50 192.00 C 134.16 192.55 133.68 193.00 133.44 193.00 C 133.20 193.00 133.00 192.55 133.00 192.00 Z M 11.00 184.00 C 11.00 183.45 11.48 183.00 12.06 183.00 C 12.64 183.00 12.84 183.45 12.50 184.00 C 12.16 184.55 11.68 185.00 11.44 185.00 C 11.20 185.00 11.00 184.55 11.00 184.00 Z M 133.69 174.30 C 133.43 173.86 133.81 172.94 134.55 172.26 C 135.29 171.58 136.14 171.41 136.44 171.90 C 136.73 172.38 136.35 173.30 135.58 173.94 C 134.81 174.57 133.96 174.74 133.69 174.30 Z M 10.54 171.07 C 10.23 170.56 10.42 169.86 10.98 169.51 C 11.54 169.16 12.00 169.58 12.00 170.44 C 12.00 172.20 11.40 172.46 10.54 171.07 Z M 133.00 169.00 C 133.00 168.45 133.68 168.00 134.50 168.00 C 135.32 168.00 136.00 168.45 136.00 169.00 C 136.00 169.55 135.32 170.00 134.50 170.00 C 133.68 170.00 133.00 169.55 133.00 169.00 Z M 134.00 164.00 C 134.00 163.45 134.45 163.00 135.00 163.00 C 135.55 163.00 136.00 163.45 136.00 164.00 C 136.00 164.55 135.55 165.00 135.00 165.00 C 134.45 165.00 134.00 164.55 134.00 164.00 Z M 133.00 161.63 C 133.00 159.99 134.80 158.46 135.69 159.35 C 135.99 159.66 135.51 160.63 134.62 161.52 C 133.22 162.92 133.00 162.94 133.00 161.63 Z M 379.50 158.00 C 379.16 157.45 379.36 157.00 379.94 157.00 C 380.52 157.00 381.00 157.45 381.00 158.00 C 381.00 158.55 380.80 159.00 380.56 159.00 C 380.32 159.00 379.84 158.55 379.50 158.00 Z M 135.00 155.50 C 135.00 154.68 135.45 154.00 136.00 154.00 C 136.55 154.00 137.00 154.68 137.00 155.50 C 137.00 156.32 136.55 157.00 136.00 157.00 C 135.45 157.00 135.00 156.32 135.00 155.50 Z M 9.00 149.00 C 9.00 148.45 9.48 148.00 10.06 148.00 C 10.64 148.00 10.84 148.45 10.50 149.00 C 10.16 149.55 9.68 150.00 9.44 150.00 C 9.20 150.00 9.00 149.55 9.00 149.00 Z M 238.50 144.29 C 236.85 144.15 216.07 143.92 192.33 143.77 C 168.59 143.62 148.80 143.14 148.36 142.70 C 147.03 141.37 150.29 140.00 153.50 140.53 C 159.05 141.46 191.47 141.77 193.71 140.92 C 194.93 140.46 196.15 140.44 196.43 140.89 C 196.70 141.33 207.08 141.70 219.48 141.70 C 231.88 141.70 242.33 142.00 242.70 142.37 C 243.86 143.52 241.62 144.55 238.50 144.29 Z M 251.00 143.00 C 251.00 142.45 251.45 142.00 252.00 142.00 C 252.55 142.00 253.00 142.45 253.00 143.00 C 253.00 143.55 252.55 144.00 252.00 144.00 C 251.45 144.00 251.00 143.55 251.00 143.00 Z M 138.19 141.93 C 138.39 141.33 138.98 140.85 139.50 140.85 C 140.02 140.85 140.61 141.33 140.81 141.93 C 141.01 142.52 140.42 143.00 139.50 143.00 C 138.58 143.00 137.99 142.52 138.19 141.93 Z M 132.00 139.94 C 132.00 139.36 132.45 139.16 133.00 139.50 C 133.55 139.84 134.00 140.32 134.00 140.56 C 134.00 140.80 133.55 141.00 133.00 141.00 C 132.45 141.00 132.00 140.52 132.00 139.94 Z M 208.64 138.50 C 208.95 137.68 209.39 137.00 209.61 137.00 C 209.82 137.00 210.00 137.68 210.00 138.50 C 210.00 139.32 209.56 140.00 209.03 140.00 C 208.50 140.00 208.32 139.32 208.64 138.50 Z M 262.50 139.00 C 262.84 138.45 263.32 138.00 263.56 138.00 C 263.80 138.00 264.00 138.45 264.00 139.00 C 264.00 139.55 263.52 140.00 262.94 140.00 C 262.36 140.00 262.16 139.55 262.50 139.00 Z M 35.50 138.00 C 35.16 137.45 35.36 137.00 35.94 137.00 C 36.52 137.00 37.00 137.45 37.00 138.00 C 37.00 138.55 36.80 139.00 36.56 139.00 C 36.32 139.00 35.84 138.55 35.50 138.00 Z M 55.00 138.00 C 55.00 137.45 55.48 137.00 56.06 137.00 C 56.64 137.00 56.84 137.45 56.50 138.00 C 56.16 138.55 55.68 139.00 55.44 139.00 C 55.20 139.00 55.00 138.55 55.00 138.00 Z M 62.00 138.00 C 62.00 137.45 62.45 137.00 63.00 137.00 C 63.55 137.00 64.00 137.45 64.00 138.00 C 64.00 138.55 63.55 139.00 63.00 139.00 C 62.45 139.00 62.00 138.55 62.00 138.00 Z M 70.00 138.00 C 70.00 137.45 70.70 137.00 71.56 137.00 C 72.42 137.00 72.84 137.45 72.50 138.00 C 72.16 138.55 71.46 139.00 70.94 139.00 C 70.42 139.00 70.00 138.55 70.00 138.00 Z M 87.50 138.00 C 87.16 137.45 87.36 137.00 87.94 137.00 C 88.52 137.00 89.00 137.45 89.00 138.00 C 89.00 138.55 88.80 139.00 88.56 139.00 C 88.32 139.00 87.84 138.55 87.50 138.00 Z M 241.00 138.00 C 241.00 137.45 241.45 137.00 242.00 137.00 C 242.55 137.00 243.00 137.45 243.00 138.00 C 243.00 138.55 242.55 139.00 242.00 139.00 C 241.45 139.00 241.00 138.55 241.00 138.00 Z M 22.81 137.32 C 23.53 137.03 24.40 137.06 24.73 137.40 C 25.06 137.73 24.47 137.96 23.42 137.92 C 22.25 137.87 22.01 137.64 22.81 137.32 Z M 148.64 134.31 C 148.29 133.95 148.00 113.49 148.00 88.83 L 148.00 44.00 L 194.91 44.00 L 241.83 44.00 L 242.47 51.25 C 242.82 55.24 242.97 75.60 242.80 96.50 L 242.50 134.50 L 213.50 134.30 C 197.55 134.18 177.03 134.00 167.91 133.89 C 158.78 133.78 150.85 133.97 150.29 134.32 C 149.74 134.66 148.99 134.66 148.64 134.31 Z M 250.81 123.25 C 250.64 116.79 250.34 92.83 250.15 70.00 C 249.68 13.96 249.94 18.56 247.25 18.18 C 245.06 17.87 245.00 18.10 245.00 26.93 L 245.00 36.00 L 238.54 36.00 L 232.08 36.00 L 231.79 27.25 C 231.53 19.26 231.33 18.50 229.50 18.50 C 227.66 18.50 227.50 19.17 227.50 27.00 L 227.50 35.50 L 221.29 35.80 L 215.08 36.09 L 214.79 27.80 C 214.52 20.06 214.35 19.48 212.25 19.18 C 210.07 18.87 210.00 19.11 210.00 27.48 L 210.00 36.10 L 203.75 35.80 L 197.50 35.50 L 197.21 27.25 C 196.95 19.82 196.72 19.00 194.96 19.00 C 193.17 19.00 193.00 19.73 193.00 27.50 L 193.00 36.00 L 186.50 36.00 L 180.00 36.00 L 180.00 27.43 C 180.00 19.14 179.93 18.87 177.77 19.18 C 175.64 19.49 175.55 19.87 175.86 27.75 L 176.17 36.00 L 169.63 36.00 L 163.08 36.00 L 162.79 27.75 C 162.53 20.26 162.31 19.50 160.50 19.50 C 158.69 19.50 158.47 20.27 158.20 27.50 C 158.04 31.89 157.55 35.85 157.12 36.28 C 156.69 36.71 153.79 36.76 150.67 36.39 L 145.00 35.72 L 145.00 27.83 C 145.00 21.64 144.67 19.81 143.46 19.35 C 142.61 19.02 141.66 19.01 141.34 19.32 C 141.03 19.63 140.84 45.61 140.91 77.04 C 141.02 122.94 140.80 134.10 139.77 133.76 C 138.78 133.43 138.44 124.77 138.23 93.92 C 138.08 72.24 137.86 45.28 137.73 34.00 L 137.50 13.50 L 194.75 13.47 C 245.51 13.44 252.01 13.61 252.08 14.97 C 252.16 16.43 253.05 98.16 253.02 100.75 C 252.98 103.63 253.01 105.02 253.33 116.00 C 253.70 128.45 253.21 135.00 251.93 135.00 C 251.49 135.00 250.98 129.71 250.81 123.25 Z M 134.67 124.33 C 134.30 123.97 134.00 122.50 134.01 121.08 L 134.01 118.50 L 135.51 121.36 C 136.33 122.94 137.00 124.40 137.00 124.61 C 137.00 125.25 135.39 125.05 134.67 124.33 Z M 134.76 114.50 C 134.49 113.12 134.66 112.00 135.14 112.00 C 135.61 112.00 136.00 112.41 136.00 112.92 C 136.00 113.42 136.27 114.55 136.61 115.42 C 136.94 116.29 136.77 117.00 136.22 117.00 C 135.68 117.00 135.02 115.88 134.76 114.50 Z M 134.08 60.42 C 134.13 59.25 134.36 59.01 134.68 59.81 C 134.97 60.53 134.94 61.40 134.60 61.73 C 134.27 62.06 134.04 61.47 134.08 60.42 Z M 255.50 56.00 C 255.12 54.82 255.04 53.62 255.32 53.35 C 255.59 53.07 256.12 53.82 256.50 55.00 C 256.88 56.18 256.96 57.38 256.68 57.65 C 256.41 57.93 255.88 57.18 255.50 56.00 Z M 133.00 53.94 C 133.00 53.36 133.45 53.16 134.00 53.50 C 134.55 53.84 135.00 54.32 135.00 54.56 C 135.00 54.80 134.55 55.00 134.00 55.00 C 133.45 55.00 133.00 54.52 133.00 53.94 Z M 134.00 33.94 C 134.00 33.36 134.45 33.16 135.00 33.50 C 135.55 33.84 136.00 34.32 136.00 34.56 C 136.00 34.80 135.55 35.00 135.00 35.00 C 134.45 35.00 134.00 34.52 134.00 33.94 Z M 134.00 21.62 C 134.00 20.79 134.45 19.84 135.00 19.50 C 135.55 19.16 136.00 19.56 136.00 20.38 C 136.00 21.21 135.55 22.16 135.00 22.50 C 134.45 22.84 134.00 22.44 134.00 21.62 Z M 134.00 17.00 C 132.72 16.17 132.75 16.03 134.25 16.02 C 135.21 16.01 136.00 16.45 136.00 17.00 C 136.00 18.22 135.89 18.22 134.00 17.00 Z M 135.00 11.50 C 135.00 10.68 135.44 10.00 135.97 10.00 C 136.50 10.00 136.68 10.68 136.36 11.50 C 136.05 12.32 135.61 13.00 135.39 13.00 C 135.18 13.00 135.00 12.32 135.00 11.50 Z M 168.00 10.94 C 168.00 10.36 168.45 10.16 169.00 10.50 C 169.55 10.84 170.00 11.32 170.00 11.56 C 170.00 11.80 169.55 12.00 169.00 12.00 C 168.45 12.00 168.00 11.52 168.00 10.94 Z M 183.00 11.03 C 183.00 10.50 183.68 10.32 184.50 10.64 C 185.32 10.95 186.00 11.39 186.00 11.61 C 186.00 11.82 185.32 12.00 184.50 12.00 C 183.68 12.00 183.00 11.56 183.00 11.03 Z M 189.50 11.00 C 189.16 10.45 189.33 10.00 189.88 10.00 C 190.43 10.00 191.16 10.45 191.50 11.00 C 191.84 11.55 191.67 12.00 191.12 12.00 C 190.57 12.00 189.84 11.55 189.50 11.00 Z M 244.51 10.98 C 244.86 10.42 245.56 10.23 246.07 10.54 C 247.46 11.40 247.20 12.00 245.44 12.00 C 244.58 12.00 244.16 11.54 244.51 10.98 Z" fill="none" stroke="rgba(255,255,255,0.92)" stroke-width="1.5" stroke-linejoin="round" fill-rule="evenodd"/>
</svg>
