<svg xmlns="http://www.w3.org/2000/svg" viewBox="0 0 100 100" width="100" height="100">
  <path d="M 0.00 50.00 L 0.00 0.00 L 50.00 0.00 L 100.00 0.00 L 100.00 50.00 L 100.00 100.00 L 50.00 100.00 L 0.00 100.00 L 0.00 50.00 Z M 95.25 95.11 C 96.78 94.88 95.94 91.12 94.25 90.68 C 93.29 90.43 73.26 90.31 49.75 90.42 C 26.24 90.53 7.00 90.29 7.00 89.89 C 7.00 89.49 6.73 88.45 6.39 87.58 C 5.85 86.15 10.17 86.00 50.89 86.00 L 96.00 86.00 L 95.98 81.75 C 95.98 79.41 95.64 77.99 95.23 78.60 C 94.73 79.35 80.67 79.91 50.48 80.36 L 6.46 81.02 L 6.33 71.76 C 6.25 66.67 6.12 49.34 6.04 33.25 C 5.95 14.78 5.53 4.00 4.91 4.00 C 4.27 4.00 3.97 20.31 4.05 49.92 L 4.17 95.83 L 49.34 95.53 C 74.18 95.36 94.84 95.18 95.25 95.11 Z M 95.69 72.27 C 95.44 71.30 95.22 71.85 95.19 73.50 C 95.17 75.15 95.38 75.95 95.66 75.27 C 95.93 74.59 95.95 73.24 95.69 72.27 Z M 95.69 65.27 C 95.44 64.30 95.22 64.85 95.19 66.50 C 95.17 68.15 95.38 68.95 95.66 68.27 C 95.93 67.59 95.95 66.24 95.69 65.27 Z M 95.72 53.75 C 95.50 51.96 95.32 53.42 95.32 57.00 C 95.32 60.58 95.50 62.04 95.72 60.25 C 95.95 58.46 95.95 55.54 95.72 53.75 Z M 96.00 26.83 C 96.00 14.09 95.72 3.94 95.38 4.28 C 95.05 4.62 94.79 8.41 94.81 12.70 C 94.84 16.99 94.89 27.14 94.93 35.25 C 94.97 43.36 95.22 50.00 95.50 50.00 C 95.78 50.00 96.00 39.57 96.00 26.83 Z" fill="none" stroke="rgba(255,255,255,0.92)" stroke-width="1.2" stroke-linejoin="round" fill-rule="evenodd"/>
</svg>
