<svg xmlns="http://www.w3.org/2000/svg" viewBox="0 0 100 100" width="100" height="100">
  <path d="M 0.00 50.00 L 0.00 0.00 L 50.00 0.00 L 100.00 0.00 L 100.00 50.00 L 100.00 100.00 L 50.00 100.00 L 0.00 100.00 L 0.00 50.00 Z M 6.55 94.91 C 7.04 94.13 7.53 94.13 8.31 94.91 C 9.55 96.15 13.30 96.37 14.41 95.26 C 15.25 94.41 77.70 94.73 88.75 95.64 L 96.00 96.23 L 96.00 92.70 C 96.00 90.76 95.59 89.02 95.08 88.83 C 94.25 88.53 93.32 16.95 94.12 14.50 C 94.30 13.95 94.69 24.07 95.00 37.00 L 95.56 60.50 L 95.78 32.26 L 96.00 4.02 L 49.95 4.08 L 3.90 4.14 L 4.11 10.07 C 4.23 13.33 4.76 16.00 5.29 16.00 C 5.89 16.00 5.90 16.46 5.30 17.25 C 4.76 17.97 4.28 33.08 4.17 52.75 C 4.02 81.45 4.22 87.00 5.39 87.00 C 6.55 87.00 6.78 81.35 6.79 52.75 C 6.81 11.27 6.76 12.74 8.00 13.50 C 8.64 13.89 9.00 27.51 9.00 51.06 L 9.00 88.00 L 6.50 88.00 C 4.25 88.00 4.00 88.40 4.00 92.00 C 4.00 95.86 5.16 97.17 6.55 94.91 Z M 45.75 89.24 L 15.00 88.97 L 14.81 64.74 C 14.71 51.41 14.60 34.42 14.56 27.00 L 14.50 13.50 L 23.50 13.62 C 28.45 13.69 44.99 13.80 60.25 13.87 L 88.00 14.00 L 88.00 51.43 C 88.00 93.38 88.66 90.03 80.50 89.67 C 78.30 89.58 62.66 89.38 45.75 89.24 Z M 95.66 83.75 C 95.38 83.06 95.16 83.62 95.16 85.00 C 95.16 86.38 95.38 86.94 95.66 86.25 C 95.94 85.56 95.94 84.44 95.66 83.75 Z M 95.72 72.25 C 95.49 70.74 95.30 71.97 95.30 75.00 C 95.30 78.03 95.49 79.26 95.72 77.75 C 95.95 76.24 95.95 73.76 95.72 72.25 Z M 95.69 63.25 C 95.44 62.29 95.23 63.08 95.23 65.00 C 95.23 66.92 95.44 67.71 95.69 66.75 C 95.94 65.79 95.94 64.21 95.69 63.25 Z M 6.55 7.09 C 6.23 6.56 6.39 5.87 6.91 5.55 C 7.44 5.23 8.13 5.39 8.45 5.91 C 8.77 6.44 8.61 7.13 8.09 7.45 C 7.56 7.77 6.87 7.61 6.55 7.09 Z M 14.54 7.07 C 13.64 5.61 15.07 5.28 21.00 5.60 C 24.02 5.76 40.14 6.00 56.80 6.13 C 73.47 6.26 87.33 6.73 87.61 7.18 C 87.89 7.63 71.69 8.00 51.62 8.00 C 30.17 8.00 14.88 7.62 14.54 7.07 Z M 93.50 7.00 C 93.84 6.45 94.32 6.00 94.56 6.00 C 94.80 6.00 95.00 6.45 95.00 7.00 C 95.00 7.55 94.52 8.00 93.94 8.00 C 93.36 8.00 93.16 7.55 93.50 7.00 Z" fill="none" stroke="rgba(255,255,255,0.92)" stroke-width="1.2" stroke-linejoin="round" fill-rule="evenodd"/>
</svg>
