<svg xmlns="http://www.w3.org/2000/svg" viewBox="0 0 100 100" width="100" height="100">
  <path d="M 0.00 50.00 L 0.00 0.00 L 50.00 0.00 L 100.00 0.00 L 100.00 50.00 L 100.00 100.00 L 50.00 100.00 L 0.00 100.00 L 0.00 50.00 Z M 29.46 85.07 C 29.81 79.26 29.64 63.25 29.07 49.50 C 28.49 35.75 28.02 23.81 28.01 22.96 C 28.00 21.60 31.87 21.47 62.00 21.83 L 96.00 22.24 L 96.00 19.77 L 96.00 17.30 L 59.28 16.57 C 33.29 16.06 22.45 16.16 22.19 16.92 C 21.99 17.52 19.40 18.00 16.40 18.00 C 11.57 18.00 10.83 17.72 9.82 15.50 C 9.19 14.12 8.27 13.00 7.77 13.00 C 7.27 13.00 7.45 12.41 8.18 11.69 C 9.63 10.26 13.78 10.05 15.75 11.32 C 16.44 11.76 17.41 11.86 17.92 11.55 C 19.52 10.56 31.00 10.12 31.00 11.05 C 31.00 12.15 34.22 11.04 35.27 9.57 C 35.77 8.87 36.42 9.15 37.14 10.37 C 38.01 11.86 38.40 11.96 39.07 10.89 C 40.03 9.33 52.00 8.92 52.00 10.45 C 52.00 11.01 52.42 10.98 53.02 10.38 C 53.62 9.78 56.07 9.62 59.00 10.00 C 62.15 10.40 64.12 10.25 64.40 9.57 C 64.68 8.91 65.26 9.08 65.91 10.00 C 66.49 10.82 66.98 11.05 66.99 10.50 C 67.01 9.01 84.27 8.83 85.21 10.31 C 85.70 11.07 85.97 11.11 85.98 10.41 C 85.99 9.82 87.84 9.26 90.09 9.17 C 94.33 9.00 96.00 8.42 96.00 7.12 C 96.00 6.38 90.15 6.42 51.00 7.42 C 40.83 7.68 26.31 7.92 18.75 7.95 L 5.00 8.00 L 5.00 51.75 L 5.00 95.50 L 16.90 95.57 L 28.80 95.65 L 29.46 85.07 Z M 10.52 89.10 C 10.07 87.06 9.41 86.29 8.43 86.66 C 7.64 86.97 7.00 86.72 7.00 86.11 C 7.00 85.50 7.48 85.00 8.06 85.00 C 8.64 85.00 8.84 84.55 8.50 84.00 C 8.11 83.36 10.84 83.00 16.00 83.00 L 24.11 83.00 L 23.81 87.25 L 23.50 91.50 L 17.34 91.80 C 11.22 92.09 11.17 92.07 10.52 89.10 Z M 9.69 74.41 C 7.60 68.11 7.58 67.41 9.60 69.09 C 10.54 69.86 13.77 70.43 17.35 70.46 L 23.50 70.50 L 23.80 74.66 L 24.11 78.82 L 17.74 79.16 L 11.38 79.50 L 9.69 74.41 Z M 10.51 64.06 C 10.02 61.83 9.46 61.27 8.18 61.74 C 6.72 62.29 6.68 62.16 7.87 60.69 C 8.77 59.59 8.85 59.00 8.12 59.00 C 7.51 59.00 7.00 58.10 7.00 57.00 C 7.00 54.66 8.80 54.32 9.64 56.50 C 10.07 57.63 11.90 58.00 17.11 58.00 L 24.00 58.00 L 24.00 62.50 L 24.00 67.00 L 17.58 67.00 C 11.29 67.00 11.15 66.94 10.51 64.06 Z M 10.52 54.19 C 10.24 53.90 10.00 52.44 10.00 50.94 C 10.00 49.44 9.33 47.96 8.50 47.64 C 7.67 47.32 7.05 46.04 7.12 44.78 C 7.18 43.53 7.42 43.17 7.64 44.00 C 7.96 45.16 9.70 45.50 15.27 45.50 L 22.50 45.50 L 23.42 49.24 C 23.93 51.30 24.16 53.17 23.92 53.39 C 23.24 54.03 11.10 54.76 10.52 54.19 Z M 7.50 50.00 C 7.16 49.45 7.36 49.00 7.94 49.00 C 8.52 49.00 9.00 49.45 9.00 50.00 C 9.00 50.55 8.80 51.00 8.56 51.00 C 8.32 51.00 7.84 50.55 7.50 50.00 Z M 9.68 40.60 C 9.38 39.82 9.37 38.14 9.66 36.85 C 10.02 35.19 9.89 34.89 9.23 35.83 C 8.46 36.92 8.17 36.87 7.67 35.59 C 6.89 33.55 9.90 32.78 17.05 33.19 L 22.50 33.50 L 22.81 37.75 L 23.11 42.00 L 16.66 42.00 C 12.05 42.00 10.06 41.60 9.68 40.60 Z M 9.84 28.25 C 9.75 27.29 9.75 25.71 9.83 24.75 C 9.91 23.79 9.31 23.00 8.49 23.00 C 7.67 23.00 7.00 22.55 7.00 22.00 C 7.00 21.42 10.17 21.00 14.50 21.00 L 22.00 21.00 L 22.00 25.50 L 22.00 30.00 L 16.00 30.00 C 11.01 30.00 9.97 29.70 9.84 28.25 Z" fill="none" stroke="rgba(255,255,255,0.92)" stroke-width="1.2" stroke-linejoin="round" fill-rule="evenodd"/>
</svg>
