<svg xmlns="http://www.w3.org/2000/svg" viewBox="0 0 100 100" width="100" height="100">
  <path d="M 0.00 50.00 L 0.00 0.00 L 50.00 0.00 L 100.00 0.00 L 100.00 50.00 L 100.00 100.00 L 50.00 100.00 L 0.00 100.00 L 0.00 50.00 Z M 77.00 94.59 C 77.00 93.54 78.73 93.08 83.55 92.84 C 89.39 92.54 90.06 92.69 89.65 94.25 C 89.29 95.62 89.82 96.00 92.13 96.00 L 95.07 96.00 L 94.62 50.75 C 94.37 25.86 94.13 5.34 94.08 5.15 C 94.04 4.95 82.64 5.06 68.75 5.38 C 54.86 5.70 34.61 6.01 23.75 6.06 C 5.78 6.14 4.00 6.30 4.00 7.86 C 4.00 9.33 4.96 9.56 10.48 9.42 C 14.05 9.33 16.76 9.57 16.52 9.97 C 16.27 10.37 18.38 10.33 21.19 9.88 C 24.00 9.44 26.69 9.31 27.15 9.59 C 27.62 9.88 28.00 9.74 28.00 9.28 C 28.00 8.44 32.60 8.27 33.41 9.08 C 34.11 9.77 52.56 9.39 53.76 8.65 C 54.36 8.27 55.08 8.31 55.34 8.73 C 56.04 9.88 67.08 9.32 68.32 8.08 C 69.77 6.63 71.30 6.70 70.39 8.17 C 69.91 8.95 70.21 9.13 71.30 8.71 C 72.20 8.37 73.22 8.54 73.56 9.09 C 73.93 9.70 74.63 9.74 75.34 9.19 C 76.64 8.18 86.15 8.36 87.88 9.43 C 88.50 9.81 89.00 11.16 89.00 12.43 L 89.00 14.75 L 46.50 14.23 L 4.00 13.71 L 4.00 16.85 L 4.00 20.00 L 38.62 20.00 L 73.24 20.00 L 72.64 33.25 C 71.36 61.20 70.80 89.79 71.46 92.83 C 72.01 95.33 72.67 96.00 74.58 96.00 C 76.00 96.00 77.00 95.42 77.00 94.59 Z M 77.59 89.26 C 77.03 88.70 76.72 81.05 77.25 80.95 C 77.39 80.93 80.24 80.65 83.58 80.35 L 89.66 79.79 L 89.82 83.84 C 89.91 86.07 89.54 88.17 88.99 88.51 C 87.61 89.36 78.31 89.97 77.59 89.26 Z M 77.00 72.50 L 77.00 68.00 L 83.41 68.00 L 89.83 68.00 L 89.56 71.25 C 89.41 73.04 89.22 75.06 89.14 75.75 C 89.05 76.60 87.06 77.00 83.00 77.00 L 77.00 77.00 L 77.00 72.50 Z M 77.61 64.27 C 77.27 63.94 77.00 61.97 77.00 59.91 L 77.00 56.14 L 82.55 55.45 C 85.60 55.07 88.39 55.05 88.75 55.41 C 89.48 56.15 89.65 62.72 88.95 63.33 C 88.11 64.06 78.22 64.88 77.61 64.27 Z M 78.00 47.50 L 78.00 43.00 L 83.39 43.00 C 89.39 43.00 90.35 43.98 89.35 49.01 C 88.77 51.88 88.54 52.00 83.38 52.00 L 78.00 52.00 L 78.00 47.50 Z M 78.00 35.72 C 78.00 30.68 78.82 30.00 84.97 30.00 C 89.23 30.00 89.96 30.98 89.25 35.75 C 88.83 38.62 88.41 39.00 85.64 39.01 C 83.91 39.02 81.49 39.30 80.25 39.63 C 78.16 40.19 78.00 39.91 78.00 35.72 Z M 78.00 23.00 L 78.00 19.00 L 84.11 19.00 C 89.26 19.00 90.12 19.25 89.61 20.58 C 89.27 21.45 89.00 23.25 89.00 24.58 C 89.00 26.85 88.65 27.00 83.50 27.00 L 78.00 27.00 L 78.00 23.00 Z" fill="none" stroke="rgba(255,255,255,0.92)" stroke-width="1.2" stroke-linejoin="round" fill-rule="evenodd"/>
</svg>
