<svg xmlns="http://www.w3.org/2000/svg" viewBox="0 0 400 287" width="400" height="287">
  <path d="M 0.00 143.50 L 0.00 0.00 L 200.00 0.00 L 400.00 0.00 L 400.00 143.50 L 400.00 287.00 L 200.00 287.00 L 0.00 287.00 L 0.00 143.50 Z M 56.61 279.18 C 57.28 278.26 58.20 277.86 58.64 278.31 C 59.08 278.75 58.78 279.52 57.97 280.02 C 57.07 280.59 70.28 280.91 92.30 280.85 C 111.99 280.80 128.32 280.99 128.60 281.27 C 128.87 281.54 130.76 281.39 132.80 280.93 C 134.83 280.47 136.87 280.47 137.33 280.93 C 137.78 281.38 139.67 281.41 141.53 280.99 C 143.38 280.58 145.12 280.46 145.40 280.73 C 145.67 281.00 151.21 281.14 157.70 281.04 C 164.19 280.93 186.60 280.78 207.50 280.69 C 232.06 280.60 245.76 280.18 246.23 279.52 C 246.73 278.84 246.97 278.85 246.98 279.57 C 247.00 280.74 267.90 280.80 269.79 279.63 C 270.38 279.27 271.11 279.37 271.41 279.86 C 271.71 280.35 275.68 280.58 280.23 280.37 C 284.78 280.16 300.20 279.77 314.50 279.50 C 328.80 279.23 350.62 278.72 363.00 278.36 C 375.38 278.00 387.17 277.76 389.21 277.83 C 391.25 277.89 393.23 277.43 393.62 276.81 C 394.01 276.18 394.22 271.13 394.09 265.58 C 393.86 255.47 393.86 253.07 394.07 250.75 C 394.13 250.06 393.93 212.60 393.64 167.50 C 393.34 122.40 393.02 69.97 392.93 51.00 C 392.84 32.02 392.53 14.35 392.24 11.72 L 391.72 6.95 L 373.61 7.45 C 347.79 8.17 261.66 9.02 159.50 9.57 C 111.10 9.84 68.58 10.22 65.00 10.43 C 61.42 10.64 47.09 11.09 33.14 11.42 C 19.19 11.75 7.43 12.23 7.02 12.49 C 6.26 12.95 6.52 100.57 7.51 182.00 C 7.81 206.48 8.17 238.43 8.32 253.01 C 8.46 267.59 8.86 279.96 9.19 280.51 C 9.58 281.13 18.26 281.38 32.59 281.18 C 52.54 280.90 55.54 280.65 56.61 279.18 Z M 139.08 277.42 C 139.13 276.25 139.36 276.01 139.68 276.81 C 139.97 277.53 139.94 278.40 139.60 278.73 C 139.27 279.06 139.04 278.47 139.08 277.42 Z M 96.00 277.00 C 96.00 276.45 96.45 276.00 97.00 276.00 C 97.55 276.00 98.00 276.45 98.00 277.00 C 98.00 277.55 97.55 278.00 97.00 278.00 C 96.45 278.00 96.00 277.55 96.00 277.00 Z M 197.50 277.00 C 197.84 276.45 198.57 276.00 199.12 276.00 C 199.67 276.00 199.84 276.45 199.50 277.00 C 199.16 277.55 198.43 278.00 197.88 278.00 C 197.33 278.00 197.16 277.55 197.50 277.00 Z M 87.81 276.32 C 88.53 276.03 89.40 276.06 89.73 276.40 C 90.06 276.73 89.47 276.96 88.42 276.92 C 87.25 276.87 87.01 276.64 87.81 276.32 Z M 307.00 276.00 C 307.00 275.45 307.45 275.00 308.00 275.00 C 308.55 275.00 309.00 275.45 309.00 276.00 C 309.00 276.55 308.55 277.00 308.00 277.00 C 307.45 277.00 307.00 276.55 307.00 276.00 Z M 311.50 276.00 C 311.16 275.45 311.81 275.00 312.94 275.00 C 314.07 275.00 315.00 275.45 315.00 276.00 C 315.00 276.55 314.35 277.00 313.56 277.00 C 312.77 277.00 311.84 276.55 311.50 276.00 Z M 371.75 275.34 C 372.44 275.06 373.56 275.06 374.25 275.34 C 374.94 275.62 374.38 275.84 373.00 275.84 C 371.62 275.84 371.06 275.62 371.75 275.34 Z M 362.50 274.00 C 362.84 273.45 363.54 273.00 364.06 273.00 C 364.58 273.00 365.00 273.45 365.00 274.00 C 365.00 274.55 364.30 275.00 363.44 275.00 C 362.58 275.00 362.16 274.55 362.50 274.00 Z M 14.71 271.96 C 12.99 270.33 13.02 270.23 15.21 269.64 C 18.65 268.72 29.81 268.88 30.41 269.85 C 30.95 270.73 32.94 270.70 85.50 268.96 C 102.55 268.40 146.88 267.55 184.00 267.07 C 245.22 266.28 254.07 266.25 259.00 266.83 C 259.93 266.94 260.59 268.23 260.73 270.25 L 260.96 273.50 L 201.73 273.48 L 142.50 273.46 L 142.17 271.14 C 141.90 269.29 141.39 268.93 139.67 269.39 C 138.48 269.71 136.97 269.98 136.32 269.99 C 135.68 269.99 135.00 270.77 134.82 271.71 C 134.51 273.30 130.34 273.43 75.49 273.54 C 21.23 273.65 16.36 273.52 14.71 271.96 Z M 268.71 273.24 C 267.41 272.95 267.10 272.27 267.57 270.79 C 267.96 269.55 267.69 268.42 266.86 267.89 C 265.07 266.76 283.00 266.79 315.00 267.98 C 357.35 269.55 370.00 270.22 370.00 270.92 C 370.00 271.28 362.46 271.56 353.25 271.53 C 344.04 271.50 335.50 271.81 334.29 272.20 C 333.07 272.60 331.80 272.48 331.47 271.95 C 331.13 271.41 330.48 271.20 330.02 271.49 C 329.56 271.77 316.29 272.22 300.53 272.48 C 284.78 272.74 271.57 273.11 271.19 273.30 C 270.81 273.49 269.69 273.47 268.71 273.24 Z M 372.24 269.00 C 372.66 266.76 387.00 266.23 387.00 268.46 C 387.00 270.02 385.51 270.30 376.23 270.44 C 372.94 270.49 372.02 270.15 372.24 269.00 Z M 264.50 269.00 C 264.16 268.45 264.36 268.00 264.94 268.00 C 265.52 268.00 266.00 268.45 266.00 269.00 C 266.00 269.55 265.80 270.00 265.56 270.00 C 265.32 270.00 264.84 269.55 264.50 269.00 Z M 14.50 263.00 C 12.79 262.27 12.75 262.13 14.25 262.07 C 16.30 261.99 16.33 261.73 14.91 256.61 C 13.53 251.64 14.42 251.04 23.16 251.02 L 29.82 251.00 L 30.16 257.09 C 30.35 260.43 30.31 263.36 30.08 263.59 C 29.31 264.35 16.52 263.87 14.50 263.00 Z M 38.00 205.16 C 38.00 170.11 38.36 148.00 38.94 148.00 C 39.46 148.00 40.17 148.47 40.53 149.04 C 40.88 149.61 42.12 149.78 43.27 149.41 C 46.20 148.48 131.80 148.47 132.73 149.39 C 133.59 150.25 133.80 159.73 134.31 218.10 L 134.66 259.70 L 113.08 260.33 C 101.21 260.69 79.46 261.27 64.75 261.64 L 38.00 262.31 L 38.00 205.16 Z M 352.92 261.59 C 352.69 261.37 333.60 260.63 310.50 259.96 C 286.91 259.27 268.24 258.33 267.90 257.80 C 267.57 257.28 267.36 244.40 267.44 229.18 C 267.53 213.96 267.27 200.27 266.87 198.76 C 266.47 197.26 266.45 195.84 266.82 195.61 C 267.47 195.21 267.50 187.44 266.93 161.25 C 266.78 154.51 266.94 148.73 267.27 148.40 C 267.60 148.06 282.87 147.61 301.19 147.40 C 335.40 146.99 352.74 146.54 354.50 145.99 C 355.05 145.82 356.35 146.05 357.38 146.50 C 358.48 146.98 359.99 146.86 361.01 146.23 C 362.59 145.24 362.80 145.85 363.38 152.82 C 364.34 164.51 365.38 254.18 364.60 258.34 L 363.91 262.00 L 358.62 262.00 C 355.71 262.00 353.15 261.82 352.92 261.59 Z M 372.20 255.29 L 372.50 248.50 L 380.34 248.21 C 386.02 247.99 387.98 248.23 387.47 249.06 C 387.08 249.68 386.70 252.74 386.63 255.85 L 386.50 261.50 L 379.20 261.79 L 371.91 262.09 L 372.20 255.29 Z M 141.94 251.00 C 141.90 246.32 141.69 221.03 141.47 194.79 C 141.16 159.72 141.36 146.90 142.20 146.38 C 142.91 145.94 143.14 146.20 142.80 147.09 C 142.35 148.24 144.11 148.53 152.37 148.66 C 157.93 148.74 163.24 148.40 164.18 147.90 C 165.11 147.40 166.11 147.36 166.39 147.82 C 167.00 148.81 236.08 148.68 237.70 147.69 C 238.32 147.30 239.01 147.54 239.24 148.22 C 239.56 149.18 240.48 149.19 243.57 148.24 C 245.73 147.57 247.63 147.42 247.79 147.90 C 247.96 148.38 249.72 148.40 251.76 147.94 C 254.10 147.41 255.90 147.50 256.72 148.18 C 257.64 148.94 258.00 148.91 258.00 148.06 C 258.00 147.41 258.35 147.10 258.77 147.36 C 259.49 147.81 259.84 166.62 260.31 230.90 C 260.43 246.61 260.12 256.79 259.50 257.59 C 258.71 258.61 246.35 258.95 200.25 259.19 L 142.00 259.50 L 141.94 251.00 Z M 262.75 257.34 C 263.44 257.06 264.56 257.06 265.25 257.34 C 265.94 257.62 265.38 257.84 264.00 257.84 C 262.62 257.84 262.06 257.62 262.75 257.34 Z M 11.08 254.42 C 11.13 253.25 11.36 253.01 11.68 253.81 C 11.97 254.53 11.94 255.40 11.60 255.73 C 11.27 256.06 11.04 255.47 11.08 254.42 Z M 137.16 249.00 C 137.16 247.62 137.38 247.06 137.66 247.75 C 137.94 248.44 137.94 249.56 137.66 250.25 C 137.38 250.94 137.16 250.38 137.16 249.00 Z M 15.00 241.50 C 15.00 236.89 14.31 236.09 12.20 238.20 C 11.27 239.13 11.00 238.91 11.00 237.20 C 11.00 235.93 11.62 235.00 12.47 235.00 C 13.32 235.00 13.71 234.41 13.40 233.59 C 12.70 231.76 14.59 231.42 23.11 231.83 L 30.00 232.16 L 30.00 239.08 L 30.00 246.00 L 22.50 246.00 L 15.00 246.00 L 15.00 241.50 Z M 372.43 241.68 C 372.14 240.91 372.03 237.63 372.20 234.39 L 372.50 228.50 L 381.50 228.30 C 386.81 228.18 389.68 228.42 388.50 228.90 C 386.80 229.58 386.50 230.64 386.50 236.10 L 386.50 242.50 L 379.74 242.80 C 374.64 243.02 372.84 242.75 372.43 241.68 Z M 137.00 240.00 C 137.00 239.45 137.48 239.00 138.06 239.00 C 138.64 239.00 138.84 239.45 138.50 240.00 C 138.16 240.55 137.68 241.00 137.44 241.00 C 137.20 241.00 137.00 240.55 137.00 240.00 Z M 136.00 235.06 C 136.00 234.54 136.45 233.84 137.00 233.50 C 137.55 233.16 138.00 233.58 138.00 234.44 C 138.00 235.30 137.55 236.00 137.00 236.00 C 136.45 236.00 136.00 235.58 136.00 235.06 Z M 263.34 228.43 C 263.01 227.57 263.24 226.36 263.87 225.73 C 264.71 224.89 265.00 225.29 265.00 227.30 C 265.00 230.31 264.25 230.82 263.34 228.43 Z M 21.75 226.20 L 15.00 225.91 L 14.84 222.70 C 14.76 220.94 14.72 218.85 14.76 218.05 C 14.81 217.26 14.09 216.06 13.17 215.38 C 11.67 214.29 11.76 214.10 14.03 213.53 C 15.42 213.18 19.47 213.03 23.03 213.20 L 29.50 213.50 L 29.80 219.40 C 29.97 222.64 29.75 225.56 29.30 225.90 C 28.86 226.23 25.46 226.37 21.75 226.20 Z M 136.02 225.81 C 136.01 224.88 136.45 223.84 137.00 223.50 C 138.27 222.72 138.27 224.04 137.00 226.00 C 136.16 227.29 136.03 227.27 136.02 225.81 Z M 373.00 216.50 L 373.00 210.00 L 379.39 210.00 L 385.78 210.00 L 386.45 213.58 C 386.82 215.55 386.83 218.48 386.48 220.08 C 385.86 222.94 385.70 223.00 379.42 223.00 L 373.00 223.00 L 373.00 216.50 Z M 388.50 221.00 C 388.84 220.45 389.32 220.00 389.56 220.00 C 389.80 220.00 390.00 220.45 390.00 221.00 C 390.00 221.55 389.52 222.00 388.94 222.00 C 388.36 222.00 388.16 221.55 388.50 221.00 Z M 11.08 219.42 C 11.13 218.25 11.36 218.01 11.68 218.81 C 11.97 219.53 11.94 220.40 11.60 220.73 C 11.27 221.06 11.04 220.47 11.08 219.42 Z M 264.08 218.42 C 264.13 217.25 264.36 217.01 264.68 217.81 C 264.97 218.53 264.94 219.40 264.60 219.73 C 264.27 220.06 264.04 219.47 264.08 218.42 Z M 10.08 214.42 C 10.13 213.25 10.36 213.01 10.68 213.81 C 10.97 214.53 10.94 215.40 10.60 215.73 C 10.27 216.06 10.04 215.47 10.08 214.42 Z M 137.16 210.00 C 137.16 208.62 137.38 208.06 137.66 208.75 C 137.94 209.44 137.94 210.56 137.66 211.25 C 137.38 211.94 137.16 211.38 137.16 210.00 Z M 15.25 206.75 C 15.51 206.06 15.37 204.60 14.93 203.50 C 14.29 201.89 14.13 201.83 14.07 203.19 C 13.96 205.92 12.25 206.21 12.25 203.50 C 12.25 202.04 12.68 201.30 13.29 201.68 C 13.95 202.08 14.09 201.70 13.67 200.66 C 13.30 199.75 12.75 198.39 12.45 197.64 C 11.76 195.94 15.94 195.00 24.12 195.00 L 30.00 195.00 L 30.00 201.50 L 30.00 208.00 L 22.39 208.00 C 16.72 208.00 14.91 207.68 15.25 206.75 Z M 372.64 200.36 C 371.44 191.62 371.14 192.00 379.25 192.00 L 386.50 192.00 L 386.72 195.25 C 386.83 197.04 386.70 199.96 386.42 201.75 L 385.91 205.00 L 379.59 205.00 L 373.27 205.00 L 372.64 200.36 Z M 264.08 192.42 C 264.13 191.25 264.36 191.01 264.68 191.81 C 264.97 192.53 264.94 193.40 264.60 193.73 C 264.27 194.06 264.04 193.47 264.08 192.42 Z M 14.11 188.95 C 12.79 187.85 12.03 186.64 12.41 186.25 C 12.80 185.87 13.53 186.22 14.04 187.03 C 14.73 188.13 14.97 187.74 14.97 185.50 C 14.97 182.02 14.19 180.61 11.75 179.71 C 10.79 179.35 10.01 178.26 10.02 177.28 C 10.02 176.28 10.35 175.94 10.77 176.50 C 11.17 177.05 15.55 177.50 20.50 177.50 L 29.50 177.50 L 29.80 183.75 L 30.10 190.00 L 24.63 190.00 C 21.62 190.00 18.56 190.21 17.83 190.47 C 17.10 190.73 15.42 190.04 14.11 188.95 Z M 137.00 185.50 C 137.00 184.68 137.45 184.00 138.00 184.00 C 138.55 184.00 139.00 184.68 139.00 185.50 C 139.00 186.32 138.55 187.00 138.00 187.00 C 137.45 187.00 137.00 186.32 137.00 185.50 Z M 372.67 186.33 C 372.30 185.97 372.00 183.10 372.00 179.96 C 372.00 174.37 372.06 174.24 375.12 173.62 C 376.84 173.28 379.94 173.00 382.00 173.00 C 385.39 173.00 385.81 173.29 386.37 176.10 C 386.71 177.81 386.71 180.96 386.37 183.10 L 385.74 187.00 L 379.54 187.00 C 376.13 187.00 373.03 186.70 372.67 186.33 Z M 11.65 183.53 C 11.34 182.72 11.52 181.80 12.04 181.47 C 12.57 181.15 13.00 181.81 13.00 182.94 C 13.00 185.36 12.44 185.60 11.65 183.53 Z M 263.08 178.42 C 263.13 177.25 263.36 177.01 263.68 177.81 C 263.97 178.53 263.94 179.40 263.60 179.73 C 263.27 180.06 263.04 179.47 263.08 178.42 Z M 21.65 172.21 L 13.79 171.91 L 14.32 168.71 C 14.62 166.94 14.47 164.60 14.00 163.50 C 13.26 161.79 13.13 161.75 13.07 163.25 C 13.03 164.21 12.56 165.00 12.03 165.00 C 11.50 165.00 11.30 164.37 11.60 163.60 C 11.89 162.83 11.66 161.91 11.07 161.54 C 9.72 160.71 9.67 158.00 11.00 158.00 C 11.55 158.00 12.00 158.56 12.00 159.25 C 12.00 160.16 14.51 160.50 21.22 160.50 L 30.45 160.50 L 30.31 166.33 C 30.24 169.54 30.02 172.24 29.84 172.33 C 29.65 172.42 25.97 172.37 21.65 172.21 Z M 391.08 170.42 C 391.13 169.25 391.36 169.01 391.68 169.81 C 391.97 170.53 391.94 171.40 391.60 171.73 C 391.27 172.06 391.04 171.47 391.08 170.42 Z M 138.16 168.00 C 138.16 166.62 138.38 166.06 138.66 166.75 C 138.94 167.44 138.94 168.56 138.66 169.25 C 138.38 169.94 138.16 169.38 138.16 168.00 Z M 371.58 162.96 C 371.19 159.57 371.02 156.65 371.19 156.48 C 371.36 156.31 374.70 155.85 378.61 155.47 L 385.72 154.77 L 386.25 157.52 C 387.10 161.98 385.95 167.78 384.13 168.23 C 383.23 168.45 380.20 168.75 377.39 168.88 L 372.27 169.13 L 371.58 162.96 Z M 262.58 159.13 C 262.15 158.44 262.07 157.60 262.40 157.27 C 263.29 156.37 264.27 157.69 263.79 159.14 C 263.45 160.15 263.21 160.15 262.58 159.13 Z M 264.08 154.42 C 264.13 153.25 264.36 153.01 264.68 153.81 C 264.97 154.53 264.94 155.40 264.60 155.73 C 264.27 156.06 264.04 155.47 264.08 154.42 Z M 13.99 152.48 C 13.45 151.04 13.07 148.21 13.16 146.18 L 13.32 142.50 L 13.73 145.78 C 14.11 148.86 14.35 149.04 17.82 148.86 C 19.84 148.75 22.10 148.20 22.83 147.64 C 23.73 146.95 24.37 146.97 24.83 147.71 C 25.20 148.31 26.62 148.96 28.00 149.15 C 29.91 149.42 30.50 150.09 30.50 152.00 C 30.50 154.43 30.27 154.51 22.74 154.79 C 15.19 155.08 14.96 155.02 13.99 152.48 Z M 10.16 150.00 C 10.16 148.62 10.38 148.06 10.66 148.75 C 10.94 149.44 10.94 150.56 10.66 151.25 C 10.38 151.94 10.16 151.38 10.16 150.00 Z M 370.73 142.86 C 370.41 138.27 370.24 134.42 370.35 134.32 C 370.46 134.21 374.23 133.74 378.74 133.26 L 386.94 132.40 L 386.32 134.95 C 385.49 138.31 384.14 139.16 380.46 138.63 C 378.79 138.39 376.18 138.43 374.66 138.72 C 372.25 139.19 371.93 139.66 372.20 142.38 C 372.49 145.44 372.60 145.50 378.00 145.61 C 385.90 145.77 386.00 145.80 386.00 148.00 C 386.00 149.64 385.33 150.00 382.25 150.01 C 380.19 150.02 376.88 150.29 374.90 150.62 L 371.30 151.21 L 370.73 142.86 Z M 43.50 147.00 C 43.16 146.45 43.61 146.00 44.50 146.00 C 45.39 146.00 45.84 146.45 45.50 147.00 C 45.16 147.55 44.71 148.00 44.50 148.00 C 44.29 148.00 43.84 147.55 43.50 147.00 Z M 124.00 147.00 C 124.00 146.45 124.48 146.00 125.06 146.00 C 125.64 146.00 125.84 146.45 125.50 147.00 C 125.16 147.55 124.68 148.00 124.44 148.00 C 124.20 148.00 124.00 147.55 124.00 147.00 Z M 187.00 146.97 C 187.00 146.44 187.68 146.00 188.50 146.00 C 189.32 146.00 190.00 146.18 190.00 146.39 C 190.00 146.61 189.32 147.05 188.50 147.36 C 187.68 147.68 187.00 147.50 187.00 146.97 Z M 158.00 146.09 C 158.00 145.60 158.90 145.42 160.00 145.71 C 161.10 146.00 162.00 146.41 162.00 146.62 C 162.00 146.83 161.10 147.00 160.00 147.00 C 158.90 147.00 158.00 146.59 158.00 146.09 Z M 221.81 146.32 C 222.53 146.03 223.40 146.06 223.73 146.40 C 224.06 146.73 223.47 146.96 222.42 146.92 C 221.25 146.87 221.01 146.64 221.81 146.32 Z M 54.00 144.94 C 54.00 144.36 54.45 144.16 55.00 144.50 C 55.55 144.84 56.00 145.32 56.00 145.56 C 56.00 145.80 55.55 146.00 55.00 146.00 C 54.45 146.00 54.00 145.52 54.00 144.94 Z M 10.19 142.50 C 10.22 140.85 10.44 140.30 10.69 141.27 C 10.95 142.24 10.93 143.59 10.66 144.27 C 10.38 144.95 10.17 144.15 10.19 142.50 Z M 320.08 143.42 C 320.13 142.25 320.36 142.01 320.68 142.81 C 320.97 143.53 320.94 144.40 320.60 144.73 C 320.27 145.06 320.04 144.47 320.08 143.42 Z M 343.00 143.94 C 343.00 143.36 343.45 143.16 344.00 143.50 C 344.55 143.84 345.00 144.32 345.00 144.56 C 345.00 144.80 344.55 145.00 344.00 145.00 C 343.45 145.00 343.00 144.52 343.00 143.94 Z M 360.71 143.00 C 360.42 141.90 360.60 141.00 361.09 141.00 C 361.59 141.00 362.00 141.90 362.00 143.00 C 362.00 144.10 361.83 145.00 361.62 145.00 C 361.41 145.00 361.00 144.10 360.71 143.00 Z M 387.00 144.00 C 387.00 143.45 387.48 143.00 388.06 143.00 C 388.64 143.00 388.84 143.45 388.50 144.00 C 388.16 144.55 387.68 145.00 387.44 145.00 C 387.20 145.00 387.00 144.55 387.00 144.00 Z M 39.36 124.91 C 39.98 108.02 38.97 63.46 37.42 39.70 L 36.78 29.91 L 39.14 30.43 C 41.01 30.85 126.64 32.30 135.80 32.07 C 137.09 32.04 137.84 32.45 137.50 33.01 C 137.16 33.55 135.89 34.00 134.68 34.00 C 132.52 34.00 132.48 34.23 132.73 45.66 C 133.34 73.10 133.35 139.98 132.75 140.58 C 132.39 140.94 111.66 141.35 86.68 141.48 C 61.69 141.61 40.68 142.08 39.97 142.52 C 38.93 143.16 38.81 139.78 39.36 124.91 Z M 356.50 142.00 C 356.16 141.45 356.36 141.00 356.94 141.00 C 357.52 141.00 358.00 141.45 358.00 142.00 C 358.00 142.55 357.80 143.00 357.56 143.00 C 357.32 143.00 356.84 142.55 356.50 142.00 Z M 375.00 142.00 C 373.79 141.22 373.93 141.03 375.75 141.02 C 376.99 141.01 378.00 141.45 378.00 142.00 C 378.00 143.25 376.94 143.25 375.00 142.00 Z M 15.00 140.50 C 15.00 139.68 14.55 139.00 14.00 139.00 C 13.45 139.00 13.00 138.55 13.00 138.00 C 13.00 137.41 16.67 137.00 22.00 137.00 C 30.93 137.00 31.00 137.02 31.00 139.50 C 31.00 141.96 30.87 142.00 23.00 142.00 C 16.56 142.00 15.00 141.71 15.00 140.50 Z M 144.42 141.15 C 141.11 140.56 140.78 139.46 140.53 128.23 C 140.40 122.21 139.97 116.77 139.59 116.14 C 139.20 115.51 139.28 115.00 139.78 115.00 C 140.91 115.00 140.08 98.83 138.89 97.55 C 137.45 96.02 137.87 95.01 139.65 95.70 C 141.03 96.23 141.18 95.87 140.59 93.51 C 140.20 91.96 139.89 81.53 139.89 70.34 C 139.90 58.16 139.52 50.00 138.95 50.00 C 138.43 50.00 138.01 49.21 138.02 48.25 C 138.03 46.76 138.17 46.72 138.98 48.00 C 139.61 49.00 139.83 46.56 139.64 40.75 L 139.34 32.00 L 143.42 31.97 C 155.74 31.89 191.61 30.76 221.00 29.54 C 239.43 28.77 255.62 28.30 257.00 28.49 C 258.38 28.68 260.85 28.88 262.50 28.93 C 264.59 29.00 265.09 29.29 264.14 29.89 C 263.39 30.37 261.94 30.54 260.92 30.27 C 259.12 29.80 259.07 31.58 259.33 85.00 C 259.52 123.28 259.28 140.34 258.55 140.62 C 257.24 141.12 147.10 141.64 144.42 141.15 Z M 269.88 140.20 C 267.55 139.93 267.22 139.39 266.84 135.20 C 266.61 132.61 266.43 107.55 266.46 79.50 L 266.50 28.50 L 310.50 28.40 C 334.70 28.34 356.70 28.50 359.38 28.76 L 364.26 29.22 L 363.64 35.16 C 363.30 38.43 362.72 63.13 362.35 90.05 L 361.67 139.00 L 354.59 139.11 C 350.69 139.16 341.65 139.39 334.50 139.60 C 315.83 140.16 272.97 140.56 269.88 140.20 Z M 10.58 135.13 C 10.15 134.44 10.07 133.60 10.40 133.27 C 11.29 132.37 12.27 133.69 11.79 135.14 C 11.45 136.15 11.21 136.15 10.58 135.13 Z M 136.00 134.69 C 136.00 133.88 136.71 132.94 137.57 132.61 C 138.67 132.19 139.05 132.51 138.82 133.67 C 138.41 135.79 136.00 136.66 136.00 134.69 Z M 14.56 130.71 C 15.44 128.42 13.16 123.72 11.49 124.37 C 9.68 125.06 9.44 122.39 11.25 121.66 C 12.19 121.28 12.13 120.89 11.00 120.09 C 9.91 119.32 12.55 119.03 20.80 119.02 L 32.10 119.00 L 31.80 125.25 L 31.50 131.50 L 22.77 131.79 C 15.71 132.02 14.13 131.81 14.56 130.71 Z M 369.57 128.23 C 368.67 127.33 368.91 117.17 369.85 116.60 C 370.31 116.31 374.28 115.77 378.67 115.41 L 386.65 114.74 L 386.20 121.12 C 385.96 124.63 385.66 127.61 385.54 127.75 C 385.07 128.31 370.09 128.76 369.57 128.23 Z M 10.00 127.00 C 10.00 126.45 10.48 126.00 11.06 126.00 C 11.64 126.00 11.84 126.45 11.50 127.00 C 11.16 127.55 10.68 128.00 10.44 128.00 C 10.20 128.00 10.00 127.55 10.00 127.00 Z M 10.50 117.00 C 10.16 116.45 10.36 116.00 10.94 116.00 C 11.52 116.00 12.00 116.45 12.00 117.00 C 12.00 117.55 11.80 118.00 11.56 118.00 C 11.32 118.00 10.84 117.55 10.50 117.00 Z M 389.67 116.33 C 389.30 115.97 389.00 115.20 389.00 114.63 C 389.00 114.01 389.47 114.07 390.18 114.78 C 390.83 115.43 391.13 116.20 390.85 116.48 C 390.57 116.77 390.03 116.70 389.67 116.33 Z M 13.25 107.56 C 10.79 100.53 10.46 98.00 12.00 98.00 C 12.55 98.00 13.00 98.67 13.00 99.50 C 13.00 100.73 14.72 101.00 22.50 101.00 L 32.00 101.00 L 32.00 107.50 L 32.00 114.00 L 23.75 114.00 L 15.49 114.00 L 13.25 107.56 Z M 369.74 110.41 C 369.33 110.00 369.00 107.25 369.00 104.30 C 369.00 97.93 369.58 97.54 379.00 97.51 L 385.50 97.50 L 385.80 103.75 L 386.10 110.00 L 381.17 110.00 C 378.47 110.00 374.95 110.26 373.37 110.58 C 371.78 110.89 370.15 110.82 369.74 110.41 Z M 13.52 91.29 C 12.90 87.17 12.67 86.82 11.69 88.54 C 10.69 90.29 10.50 90.09 9.92 86.60 C 9.10 81.70 9.76 78.97 11.60 79.68 C 12.37 79.97 13.00 80.82 13.00 81.57 C 13.00 82.59 15.27 83.00 22.25 83.21 L 31.50 83.50 L 31.80 89.75 L 32.10 96.00 L 23.16 96.00 L 14.23 96.00 L 13.52 91.29 Z M 370.60 92.27 C 370.27 91.94 370.00 89.04 370.00 85.83 L 370.00 80.00 L 378.03 80.00 L 386.06 80.00 L 385.88 86.00 C 385.78 89.30 385.43 92.01 385.10 92.03 C 384.77 92.04 381.51 92.24 377.85 92.46 C 374.20 92.69 370.93 92.60 370.60 92.27 Z M 136.00 81.00 C 136.00 80.45 136.45 80.00 137.00 80.00 C 137.55 80.00 138.00 80.45 138.00 81.00 C 138.00 81.55 137.55 82.00 137.00 82.00 C 136.45 82.00 136.00 81.55 136.00 81.00 Z M 13.88 76.54 C 13.81 75.69 13.64 74.55 13.50 74.00 C 13.36 73.45 13.19 71.88 13.12 70.50 C 13.05 69.00 12.40 68.00 11.50 68.00 C 10.68 68.00 10.00 67.41 10.00 66.68 C 10.00 65.69 12.51 65.30 20.01 65.11 C 31.19 64.84 30.76 64.55 31.22 72.50 L 31.50 77.50 L 22.75 77.79 C 15.46 78.03 13.98 77.82 13.88 76.54 Z M 138.16 76.00 C 138.16 74.62 138.38 74.06 138.66 74.75 C 138.94 75.44 138.94 76.56 138.66 77.25 C 138.38 77.94 138.16 77.38 138.16 76.00 Z M 371.00 68.46 L 371.00 61.91 L 378.25 62.21 L 385.50 62.50 L 385.59 68.14 L 385.67 73.77 L 381.20 74.39 C 378.73 74.72 375.43 75.00 373.86 75.00 C 371.00 75.00 371.00 74.99 371.00 68.46 Z M 10.58 72.13 C 10.15 71.44 10.07 70.60 10.40 70.27 C 11.29 69.37 12.27 70.69 11.79 72.14 C 11.45 73.15 11.21 73.15 10.58 72.13 Z M 9.08 63.42 C 9.13 62.25 9.36 62.01 9.68 62.81 C 9.97 63.53 9.94 64.40 9.60 64.73 C 9.27 65.06 9.04 64.47 9.08 63.42 Z M 12.50 57.01 C 12.14 55.37 11.43 53.77 10.92 53.45 C 10.42 53.14 10.00 51.85 10.00 50.58 C 10.00 48.50 10.59 48.22 16.15 47.64 C 29.79 46.22 31.00 46.85 31.00 55.43 L 31.00 60.00 L 22.08 60.00 L 13.16 60.00 L 12.50 57.01 Z M 371.00 50.67 L 371.00 44.17 L 377.60 43.84 C 381.23 43.65 384.61 43.75 385.11 44.07 C 385.61 44.38 385.90 47.29 385.76 50.54 L 385.49 56.45 L 378.25 56.81 L 371.00 57.18 L 371.00 50.67 Z M 12.66 50.75 C 12.38 50.06 12.16 50.62 12.16 52.00 C 12.16 53.38 12.38 53.94 12.66 53.25 C 12.94 52.56 12.94 51.44 12.66 50.75 Z M 135.19 46.50 C 135.22 44.85 135.44 44.30 135.69 45.27 C 135.95 46.24 135.93 47.59 135.66 48.27 C 135.38 48.95 135.17 48.15 135.19 46.50 Z M 13.40 41.84 C 13.01 41.21 12.72 38.62 12.76 36.10 C 12.82 31.91 12.70 31.68 11.41 33.45 C 10.07 35.29 10.00 35.25 10.00 32.65 L 10.00 29.93 L 19.75 30.21 L 29.50 30.50 L 29.80 36.75 L 30.10 43.00 L 22.11 43.00 C 17.14 43.00 13.85 42.56 13.40 41.84 Z M 136.08 41.42 C 136.13 40.25 136.36 40.01 136.68 40.81 C 136.97 41.53 136.94 42.40 136.60 42.73 C 136.27 43.06 136.04 42.47 136.08 41.42 Z M 135.08 38.42 C 135.13 37.25 135.36 37.01 135.68 37.81 C 135.97 38.53 135.94 39.40 135.60 39.73 C 135.27 40.06 135.04 39.47 135.08 38.42 Z M 371.71 38.37 C 371.32 37.99 371.00 35.27 371.00 32.33 L 371.00 27.00 L 378.46 27.00 L 385.93 27.00 L 385.62 32.75 L 385.31 38.50 L 378.86 38.79 C 375.32 38.95 372.10 38.76 371.71 38.37 Z M 261.00 32.97 C 261.00 32.44 261.68 32.00 262.50 32.00 C 263.32 32.00 264.00 32.18 264.00 32.39 C 264.00 32.61 263.32 33.05 262.50 33.36 C 261.68 33.68 261.00 33.50 261.00 32.97 Z M 21.21 25.21 C 14.31 24.93 13.86 24.76 12.91 22.21 C 12.36 20.72 11.17 18.94 10.26 18.25 C 8.74 17.09 8.74 17.00 10.31 17.00 C 11.24 17.00 12.00 16.49 12.00 15.88 C 12.00 15.15 13.10 14.97 15.05 15.36 C 17.13 15.78 17.88 15.62 17.42 14.88 C 16.59 13.53 21.21 14.81 22.08 16.17 C 22.43 16.71 23.72 16.68 25.23 16.10 C 26.64 15.57 28.07 15.40 28.40 15.73 C 28.73 16.06 29.00 15.72 29.00 14.97 C 29.00 13.90 29.27 13.87 30.20 14.80 C 31.77 16.37 34.68 16.34 35.42 14.75 C 35.87 13.78 36.14 13.81 36.62 14.86 C 37.15 16.01 37.38 16.01 38.14 14.86 C 38.88 13.74 39.27 13.80 40.34 15.20 C 41.85 17.17 46.00 16.57 46.00 14.38 C 46.00 12.25 48.78 12.74 49.50 15.00 C 49.85 16.10 50.60 17.00 51.17 17.00 C 51.75 17.00 51.93 16.27 51.59 15.38 C 51.11 14.13 51.44 13.88 52.99 14.29 C 54.09 14.58 55.00 14.50 55.00 14.11 C 55.00 13.73 58.15 13.44 62.00 13.46 C 67.32 13.49 69.00 13.84 69.00 14.90 C 69.00 15.98 69.46 15.89 70.98 14.52 C 72.44 13.20 73.30 13.01 74.26 13.80 C 75.96 15.22 84.11 15.10 85.91 13.64 C 86.99 12.77 87.43 12.81 87.76 13.80 C 88.09 14.76 88.56 14.63 89.57 13.30 C 90.38 12.23 90.95 12.00 90.97 12.75 C 91.01 14.30 98.59 14.47 99.53 12.95 C 99.97 12.25 100.99 12.42 102.59 13.47 C 104.72 14.87 105.00 14.87 105.00 13.52 C 105.00 12.69 105.45 12.00 106.00 12.00 C 106.55 12.00 107.00 12.45 107.00 13.00 C 107.00 13.55 107.48 14.00 108.06 14.00 C 108.64 14.00 108.84 13.55 108.50 13.00 C 108.14 12.41 108.78 12.13 110.02 12.32 C 111.20 12.50 112.57 13.29 113.07 14.07 C 113.80 15.24 113.97 15.18 113.98 13.75 C 114.00 11.69 115.08 11.51 116.92 13.25 C 117.99 14.25 118.34 14.25 118.71 13.25 C 118.96 12.56 119.83 12.00 120.64 12.00 C 121.45 12.00 121.84 12.45 121.50 13.00 C 121.16 13.55 121.36 14.00 121.94 14.00 C 122.52 14.00 123.00 13.55 123.00 13.00 C 123.00 12.45 124.24 12.01 125.75 12.03 C 129.08 12.07 131.56 15.16 132.57 20.50 L 133.28 24.32 L 81.20 23.74 C 41.93 23.31 29.04 23.45 28.81 24.33 C 28.60 25.12 26.14 25.40 21.21 25.21 Z M 139.92 22.25 C 139.83 20.08 139.40 17.83 138.59 15.29 C 138.01 13.46 138.47 13.34 145.48 13.42 C 150.45 13.47 153.13 13.10 153.44 12.30 C 153.79 11.39 154.56 11.42 156.70 12.44 C 161.64 14.78 165.00 15.22 165.00 13.52 C 165.00 11.86 165.91 11.64 168.60 12.67 C 170.23 13.30 170.21 13.40 168.43 14.10 C 166.82 14.73 166.78 14.87 168.19 14.93 C 169.12 14.97 170.16 14.55 170.50 14.00 C 170.84 13.45 171.57 13.00 172.12 13.00 C 172.67 13.00 172.88 13.38 172.59 13.86 C 172.30 14.33 173.12 14.51 174.42 14.26 C 175.71 14.01 177.75 14.33 178.95 14.97 C 180.80 15.96 181.07 15.88 180.81 14.42 C 180.64 13.48 181.13 12.49 181.89 12.22 C 182.65 11.96 183.00 12.18 182.67 12.73 C 182.31 13.31 183.06 13.52 184.54 13.24 C 185.90 12.98 187.64 13.29 188.42 13.93 C 189.34 14.69 190.04 14.75 190.45 14.09 C 190.82 13.48 193.56 13.30 197.28 13.64 C 200.70 13.95 205.64 14.14 208.25 14.07 C 211.51 13.98 213.00 14.34 213.02 15.22 C 213.03 16.21 213.21 16.23 213.81 15.27 C 214.24 14.60 215.69 13.93 217.04 13.77 C 218.39 13.62 219.86 13.05 220.29 12.50 C 220.78 11.88 221.69 12.36 222.67 13.75 C 224.46 16.31 226.52 16.79 225.61 14.43 C 225.18 13.30 225.49 13.00 226.76 13.36 C 232.53 14.99 234.83 15.03 236.31 13.54 C 237.29 12.57 238.11 12.37 238.50 13.01 C 238.85 13.57 241.69 14.00 244.82 13.96 C 257.63 13.80 260.41 14.73 259.34 18.83 C 258.78 20.94 258.34 21.00 243.13 21.01 C 234.54 21.02 215.80 21.69 201.50 22.50 C 187.20 23.30 167.51 23.97 157.75 23.98 C 141.53 24.00 139.99 23.85 139.92 22.25 Z M 357.00 21.01 C 350.68 20.68 327.73 20.35 306.00 20.29 L 266.50 20.18 L 266.19 17.65 C 265.92 15.45 266.35 15.02 269.43 14.45 C 271.39 14.08 274.09 14.06 275.43 14.39 C 276.78 14.73 278.16 14.56 278.50 14.00 C 279.34 12.64 283.72 12.73 284.58 14.13 C 285.05 14.89 285.58 14.72 286.22 13.57 C 286.96 12.25 287.47 12.14 288.58 13.06 C 289.35 13.71 290.87 14.01 291.95 13.72 C 293.02 13.44 294.04 13.63 294.21 14.14 C 294.39 14.67 295.97 14.56 297.96 13.87 C 300.56 12.96 301.48 12.95 301.78 13.83 C 301.99 14.48 302.63 15.00 303.19 15.00 C 303.75 15.00 303.94 14.29 303.61 13.42 C 303.11 12.12 303.53 11.96 306.00 12.50 C 307.89 12.91 309.00 12.76 309.00 12.08 C 309.00 11.49 309.48 11.00 310.06 11.00 C 310.64 11.00 310.87 11.40 310.56 11.90 C 310.26 12.39 310.72 13.06 311.59 13.40 C 313.85 14.26 314.21 14.15 313.39 12.83 C 312.89 12.00 313.24 11.89 314.59 12.45 C 315.64 12.88 320.64 13.20 325.71 13.15 C 330.98 13.10 335.19 13.50 335.55 14.08 C 335.92 14.68 336.92 14.25 337.99 13.01 C 339.04 11.80 339.96 11.39 340.18 12.03 C 340.60 13.31 351.83 14.09 352.57 12.89 C 352.84 12.45 353.71 12.34 354.51 12.64 C 355.30 12.95 356.67 12.48 357.55 11.60 C 359.61 9.54 361.11 9.55 360.32 11.62 C 359.82 12.91 360.14 13.09 361.90 12.53 C 363.16 12.13 364.71 12.34 365.55 13.04 C 366.56 13.88 367.00 13.91 367.00 13.13 C 367.00 11.76 382.59 12.16 383.91 13.57 C 384.39 14.08 385.08 15.90 385.44 17.60 L 386.09 20.71 L 379.90 21.35 C 376.49 21.71 372.54 21.92 371.10 21.81 C 369.67 21.71 363.32 21.35 357.00 21.01 Z M 134.67 17.33 C 134.30 16.97 134.00 16.20 134.00 15.63 C 134.00 15.01 134.47 15.07 135.18 15.78 C 135.83 16.43 136.13 17.20 135.85 17.48 C 135.57 17.77 135.03 17.70 134.67 17.33 Z M 296.00 12.00 C 296.00 11.45 296.48 11.00 297.06 11.00 C 297.64 11.00 297.84 11.45 297.50 12.00 C 297.16 12.55 296.68 13.00 296.44 13.00 C 296.20 13.00 296.00 12.55 296.00 12.00 Z" fill="none" stroke="rgba(255,255,255,0.92)" stroke-width="1.5" stroke-linejoin="round" fill-rule="evenodd"/>
</svg>
