<svg xmlns="http://www.w3.org/2000/svg" viewBox="0 0 100 100" width="100" height="100">
  <path d="M 0.00 50.00 L 0.00 0.00 L 50.00 0.00 L 100.00 0.00 L 100.00 50.00 L 100.00 100.00 L 50.00 100.00 L 0.00 100.00 L 0.00 50.00 Z M 6.51 53.17 L 6.31 10.33 L 48.40 10.16 C 71.56 10.06 91.39 9.87 92.49 9.74 C 94.43 9.51 94.48 10.24 94.74 41.92 C 94.89 59.76 95.24 74.57 95.51 74.84 C 95.78 75.11 96.00 59.56 96.00 40.28 L 96.00 5.23 L 93.75 4.83 C 90.07 4.16 4.74 4.92 4.09 5.63 C 3.77 5.98 4.06 6.47 4.74 6.72 C 5.56 7.01 5.69 7.73 5.12 8.83 C 4.64 9.75 4.24 29.74 4.22 53.25 C 4.19 87.02 4.45 96.00 5.45 96.00 C 6.45 96.00 6.67 87.09 6.51 53.17 Z M 14.00 64.50 L 14.00 33.00 L 50.50 33.00 L 87.00 33.00 L 87.12 56.75 C 87.18 69.81 87.34 80.95 87.46 81.50 C 87.59 82.05 87.76 85.54 87.85 89.25 C 87.99 95.77 88.09 96.00 90.54 96.00 L 93.09 96.00 L 92.93 58.25 C 92.76 17.83 92.54 14.00 90.39 14.00 C 89.35 14.00 89.00 15.63 89.00 20.50 L 89.00 27.00 L 84.00 27.00 L 79.00 27.00 L 79.00 20.50 C 79.00 14.67 78.79 14.00 77.00 14.00 C 75.21 14.00 75.00 14.67 75.00 20.50 L 75.00 27.00 L 70.55 27.00 L 66.10 27.00 L 65.80 20.76 C 65.56 15.75 65.15 14.45 63.75 14.19 C 62.23 13.90 62.00 14.71 62.00 20.43 L 62.00 27.00 L 57.00 27.00 L 52.00 27.00 L 52.00 20.50 C 52.00 15.39 51.68 14.00 50.50 14.00 C 49.32 14.00 49.00 15.39 49.00 20.50 L 49.00 27.00 L 44.05 27.00 L 39.10 27.00 L 38.80 20.75 C 38.57 15.99 38.14 14.50 37.00 14.50 C 35.86 14.50 35.43 16.00 35.20 20.80 L 34.90 27.11 L 30.20 26.80 L 25.50 26.50 L 25.00 20.73 C 24.35 13.17 22.58 13.34 22.20 20.99 L 21.90 27.00 L 16.95 27.00 L 12.00 27.00 L 12.00 21.00 C 12.00 16.56 11.64 15.00 10.62 15.00 C 8.39 15.00 8.19 17.63 8.50 42.71 C 8.66 55.79 8.84 73.14 8.90 81.25 L 9.00 96.00 L 11.50 96.00 L 14.00 96.00 L 14.00 64.50 Z M 95.66 90.75 C 95.38 90.06 95.16 90.62 95.16 92.00 C 95.16 93.38 95.38 93.94 95.66 93.25 C 95.94 92.56 95.94 91.44 95.66 90.75 Z M 95.66 83.75 C 95.38 83.06 95.16 83.62 95.16 85.00 C 95.16 86.38 95.38 86.94 95.66 86.25 C 95.94 85.56 95.94 84.44 95.66 83.75 Z M 95.69 77.27 C 95.44 76.30 95.22 76.85 95.19 78.50 C 95.17 80.15 95.38 80.95 95.66 80.27 C 95.93 79.59 95.95 78.24 95.69 77.27 Z" fill="none" stroke="rgba(255,255,255,0.92)" stroke-width="1.2" stroke-linejoin="round" fill-rule="evenodd"/>
</svg>
