<svg xmlns="http://www.w3.org/2000/svg" viewBox="0 0 100.00 51.45" data-cad-width="619.8" data-cad-height="318.9">
  <path d="M 48.35 17.87 A 41.53 41.53 0 0 1 51.42 38.17" stroke="rgba(255,255,255,0.92)" stroke-width="1.0" fill="none"/>
  <path d="M 42.72 24.41 A 17.09 17.09 0 0 1 48.35 33.97" stroke="rgba(255,255,255,0.92)" stroke-width="1.0" fill="none"/>
  <path d="M 40.84 18.68 A 36.66 36.66 0 0 1 42.72 23.29" stroke="rgba(255,255,255,0.92)" stroke-width="1.0" fill="none"/>
  <path d="M 20.81 10.85 L 21.27 10.68 L 21.74 10.51 L 22.20 10.34 L 22.67 10.18 L 23.15 10.03 L 23.62 9.87 L 24.10 9.73 L 24.57 9.58 L 25.06 9.44 L 25.54 9.31 L 26.02 9.17 L 26.51 9.05 L 27.00 8.92 L 27.49 8.81 L 27.98 8.69 L 28.48 8.58 L 28.98 8.48 L 29.47 8.37 L 29.97 8.28 L 30.48 8.18 L 30.98 8.10 L 31.48 8.01 L 31.99 7.93 L 32.50 7.86 L 33.01 7.79 L 33.52 7.72 L 34.03 7.66 L 34.54 7.60 L 35.06 7.54 L 35.57 7.50 L 36.09 7.45 L 36.61 7.41 L 37.13 7.38 L 37.65 7.34 L 38.17 7.32 L 38.69 7.29 L 39.21 7.28 L 39.73 7.26 L 40.25 7.25 L 40.78 7.25 L 41.30 7.25 L 41.83 7.25 L 42.35 7.26 L 42.88 7.27 L 43.40 7.29 L 43.93 7.31 L 44.45 7.34 L 44.98 7.37" stroke="rgba(255,255,255,0.92)" stroke-width="1.0" fill="none"/>
  <path d="M 2.90 34.87 L 3.07 34.51 L 3.25 34.15 L 3.45 33.79 L 3.65 33.43 L 3.86 33.08 L 4.08 32.73 L 4.31 32.39 L 4.55 32.04 L 4.80 31.71 L 5.06 31.37 L 5.32 31.04 L 5.59 30.71 L 5.88 30.39 L 6.17 30.07 L 6.46 29.75 L 6.77 29.44 L 7.08 29.13 L 7.40 28.83 L 7.73 28.54 L 8.07 28.25 L 8.41 27.96 L 8.76 27.68 L 9.11 27.40 L 9.47 27.13 L 9.84 26.87 L 10.22 26.61 L 10.60 26.36 L 10.99 26.12 L 11.38 25.88 L 11.78 25.64 L 12.18 25.42 L 12.59 25.20 L 13.00 24.99 L 13.42 24.78 L 13.84 24.58 L 14.27 24.39 L 14.70 24.20 L 15.13 24.03 L 15.57 23.86 L 16.01 23.69 L 16.46 23.54 L 16.90 23.39 L 17.35 23.25 L 17.81 23.11 L 18.26 22.99 L 18.72 22.87 L 19.18 22.76 L 19.64 22.66" stroke="rgba(255,255,255,0.92)" stroke-width="1.0" fill="none"/>
  <path d="M 49.89 61.43 L 49.50 61.30 L 49.12 61.16 L 48.74 61.01 L 48.37 60.86 L 48.00 60.70 L 47.64 60.53 L 47.29 60.35 L 46.94 60.17 L 46.60 59.97 L 46.27 59.78 L 45.95 59.57 L 45.63 59.36 L 45.31 59.14 L 45.01 58.92 L 44.71 58.69 L 44.42 58.45 L 44.14 58.21 L 43.87 57.96 L 43.60 57.70 L 43.34 57.44 L 43.10 57.18 L 42.85 56.91 L 42.62 56.63 L 42.40 56.35 L 42.19 56.06 L 41.98 55.76 L 41.78 55.47 L 41.60 55.16 L 41.42 54.86 L 41.25 54.55 L 41.09 54.23 L 40.94 53.91 L 40.80 53.59 L 40.67 53.26 L 40.55 52.93 L 40.44 52.60 L 40.34 52.26 L 40.25 51.92 L 40.16 51.57 L 40.09 51.23 L 40.03 50.88 L 39.98 50.53 L 39.94 50.17 L 39.91 49.82 L 39.88 49.46 L 39.87 49.10 L 39.87 48.74 L 39.88 48.38" stroke="rgba(255,255,255,0.92)" stroke-width="1.0" fill="none"/>
  <path d="M 42.44 51.30 L 29.03 48.05 L 4.32 29.90 L 0.00 27.46" stroke="rgba(255,255,255,0.92)" stroke-width="1.0" fill="none"/>
  <path d="M -0.70 28.99 L -0.33 28.41 L 0.04 27.83 L 0.43 27.26 L 0.84 26.70 L 1.25 26.14 L 1.68 25.59 L 2.12 25.04 L 2.57 24.50 L 3.03 23.97 L 3.50 23.45 L 3.99 22.93 L 4.49 22.43 L 4.99 21.93 L 5.51 21.43 L 6.04 20.95 L 6.58 20.47 L 7.13 20.01 L 7.69 19.55 L 8.26 19.10 L 8.84 18.66 L 9.43 18.23 L 10.03 17.81 L 10.64 17.39 L 11.26 16.99 L 11.89 16.60 L 12.52 16.22 L 13.16 15.84 L 13.82 15.48 L 14.47 15.13 L 15.14 14.79 L 15.82 14.45 L 16.50 14.13 L 17.18 13.82 L 17.88 13.52 L 18.58 13.24 L 19.29 12.96 L 20.00 12.69 L 20.72 12.44 L 21.44 12.20 L 22.17 11.96 L 22.91 11.74 L 23.65 11.54 L 24.39 11.34 L 25.14 11.15 L 25.89 10.98 L 26.64 10.82 L 27.40 10.67 L 28.16 10.53" stroke="rgba(255,255,255,0.92)" stroke-width="1.0" fill="none"/>
  <path d="M 76.47 44.74 L 75.86 45.00 L 75.24 45.25 L 74.62 45.49 L 74.00 45.73 L 73.37 45.97 L 72.73 46.20 L 72.09 46.43 L 71.45 46.65 L 70.80 46.86 L 70.15 47.08 L 69.50 47.28 L 68.84 47.49 L 68.18 47.68 L 67.51 47.87 L 66.84 48.06 L 66.17 48.24 L 65.49 48.42 L 64.81 48.59 L 64.13 48.76 L 63.44 48.92 L 62.75 49.08 L 62.06 49.23 L 61.36 49.38 L 60.66 49.52 L 59.96 49.65 L 59.26 49.79 L 58.55 49.91 L 57.85 50.03 L 57.14 50.15 L 56.42 50.25 L 55.71 50.36 L 54.99 50.46 L 54.28 50.55 L 53.56 50.64 L 52.83 50.72 L 52.11 50.80 L 51.39 50.87 L 50.66 50.94 L 49.94 51.00 L 49.21 51.05 L 48.48 51.10 L 47.75 51.15 L 47.02 51.19 L 46.29 51.22 L 45.56 51.25 L 44.83 51.27 L 44.10 51.29 L 43.37 51.30" stroke="rgba(255,255,255,0.92)" stroke-width="1.0" fill="none"/>
  <path d="M 84.04 5.39 L 83.83 5.64 L 83.62 5.88 L 83.41 6.12 L 83.19 6.35 L 82.97 6.59 L 82.75 6.82 L 82.52 7.04 L 82.28 7.26 L 82.04 7.48 L 81.80 7.69 L 81.56 7.90 L 81.31 8.10 L 81.05 8.30 L 80.80 8.50 L 80.54 8.69 L 80.27 8.88 L 80.01 9.06 L 79.74 9.24 L 79.47 9.41 L 79.19 9.58 L 78.92 9.74 L 78.64 9.90 L 78.35 10.06 L 78.07 10.20 L 77.78 10.35 L 77.49 10.48 L 77.20 10.62 L 76.91 10.74 L 76.62 10.87 L 76.32 10.98 L 76.02 11.09 L 75.73 11.20 L 75.43 11.30 L 75.13 11.39 L 74.82 11.48 L 74.52 11.57 L 74.22 11.64 L 73.92 11.71 L 73.61 11.78 L 73.31 11.84 L 73.00 11.89 L 72.70 11.94 L 72.39 11.98 L 72.09 12.02 L 71.79 12.05 L 71.48 12.08 L 71.18 12.10 L 70.88 12.11" stroke="rgba(255,255,255,0.92)" stroke-width="1.0" fill="none"/>
  <path d="M 78.51 -85.62 L 78.71 -85.02 L 78.90 -84.42 L 79.08 -83.82 L 79.26 -83.21 L 79.43 -82.60 L 79.59 -81.99 L 79.75 -81.37 L 79.90 -80.75 L 80.04 -80.13 L 80.18 -79.51 L 80.31 -78.88 L 80.43 -78.26 L 80.54 -77.63 L 80.65 -76.99 L 80.75 -76.36 L 80.85 -75.72 L 80.93 -75.08 L 81.01 -74.44 L 81.09 -73.80 L 81.15 -73.16 L 81.21 -72.51 L 81.26 -71.86 L 81.31 -71.21 L 81.35 -70.56 L 81.38 -69.91 L 81.40 -69.26 L 81.42 -68.60 L 81.43 -67.95 L 81.43 -67.29 L 81.43 -66.63 L 81.41 -65.97 L 81.39 -65.31 L 81.37 -64.65 L 81.34 -63.98 L 81.30 -63.32 L 81.25 -62.66 L 81.19 -61.99 L 81.13 -61.33 L 81.07 -60.66 L 80.99 -59.99 L 80.91 -59.33 L 80.82 -58.66 L 80.72 -57.99 L 80.62 -57.32 L 80.51 -56.66 L 80.39 -55.99 L 80.27 -55.32 L 80.14 -54.65" stroke="rgba(255,255,255,0.92)" stroke-width="1.0" fill="none"/>
  <path d="M 59.85 67.32 L 59.66 66.93 L 59.47 66.54 L 59.29 66.15 L 59.12 65.75 L 58.96 65.35 L 58.80 64.95 L 58.65 64.54 L 58.51 64.13 L 58.38 63.71 L 58.26 63.29 L 58.14 62.87 L 58.03 62.44 L 57.93 62.02 L 57.84 61.59 L 57.75 61.15 L 57.67 60.72 L 57.61 60.28 L 57.55 59.84 L 57.49 59.39 L 57.45 58.95 L 57.41 58.50 L 57.38 58.05 L 57.36 57.60 L 57.35 57.15 L 57.35 56.69 L 57.35 56.24 L 57.36 55.78 L 57.38 55.32 L 57.41 54.87 L 57.45 54.41 L 57.49 53.95 L 57.55 53.49 L 57.61 53.02 L 57.68 52.56 L 57.76 52.10 L 57.84 51.64 L 57.93 51.18 L 58.03 50.72 L 58.14 50.26 L 58.26 49.80 L 58.39 49.34 L 58.52 48.88 L 58.66 48.42 L 58.81 47.96 L 58.96 47.50 L 59.13 47.05 L 59.30 46.60 L 59.48 46.14" stroke="rgba(255,255,255,0.92)" stroke-width="1.0" fill="none"/>
  <path d="M 44.65 67.63 L 44.41 66.88 L 44.19 66.13 L 43.99 65.37 L 43.81 64.60 L 43.66 63.82 L 43.53 63.04 L 43.41 62.24 L 43.32 61.45 L 43.26 60.64 L 43.21 59.84 L 43.19 59.03 L 43.19 58.21 L 43.21 57.39 L 43.25 56.57 L 43.32 55.74 L 43.40 54.92 L 43.51 54.09 L 43.64 53.26 L 43.80 52.43 L 43.97 51.60 L 44.17 50.78 L 44.39 49.95 L 44.63 49.13 L 44.89 48.30 L 45.17 47.49 L 45.47 46.67 L 45.79 45.86 L 46.14 45.05 L 46.50 44.25 L 46.89 43.46 L 47.29 42.67 L 47.71 41.88 L 48.16 41.11 L 48.62 40.34 L 49.10 39.58 L 49.60 38.83 L 50.11 38.08 L 50.65 37.35 L 51.20 36.63 L 51.77 35.92 L 52.35 35.22 L 52.95 34.53 L 53.57 33.85 L 54.20 33.18 L 54.85 32.53 L 55.51 31.89 L 56.19 31.26 L 56.88 30.65" stroke="rgba(255,255,255,0.92)" stroke-width="1.0" fill="none"/>
  <path d="M 144.15 44.78 L 144.56 45.19 L 144.97 45.61 L 145.38 46.03 L 145.78 46.46 L 146.18 46.89 L 146.57 47.33 L 146.96 47.77 L 147.34 48.22 L 147.72 48.67 L 148.09 49.13 L 148.45 49.59 L 148.81 50.05 L 149.16 50.52 L 149.51 51.00 L 149.85 51.47 L 150.19 51.96 L 150.52 52.44 L 150.84 52.93 L 151.16 53.42 L 151.47 53.92 L 151.78 54.42 L 152.08 54.93 L 152.37 55.44 L 152.66 55.95 L 152.94 56.46 L 153.22 56.98 L 153.48 57.50 L 153.75 58.03 L 154.00 58.56 L 154.25 59.09 L 154.50 59.62 L 154.73 60.16 L 154.96 60.70 L 155.19 61.24 L 155.40 61.79 L 155.61 62.34 L 155.82 62.89 L 156.01 63.44 L 156.20 64.00 L 156.39 64.56 L 156.56 65.12 L 156.73 65.68 L 156.90 66.24 L 157.05 66.81 L 157.20 67.38 L 157.34 67.95 L 157.48 68.52 L 157.61 69.09" stroke="rgba(255,255,255,0.92)" stroke-width="1.0" fill="none"/>
  <path d="M -58.60 40.77 L -58.05 40.21 L -57.51 39.65 L -56.96 39.09 L -56.41 38.53 L -55.85 37.98 L -55.29 37.43 L -54.73 36.89 L -54.16 36.34 L -53.60 35.80 L -53.03 35.26 L -52.45 34.72 L -51.88 34.19 L -51.30 33.66 L -50.72 33.13 L -50.13 32.61 L -49.55 32.08 L -48.96 31.56 L -48.36 31.05 L -47.77 30.54 L -47.17 30.02 L -46.57 29.52 L -45.97 29.01 L -45.36 28.51 L -44.75 28.01 L -44.14 27.52 L -43.53 27.02 L -42.91 26.53 L -42.29 26.05 L -41.67 25.57 L -41.05 25.09 L -40.42 24.61 L -39.79 24.13 L -39.16 23.66 L -38.53 23.20 L -37.89 22.73 L -37.25 22.27 L -36.61 21.81 L -35.97 21.36 L -35.33 20.91 L -34.68 20.46 L -34.03 20.02 L -33.38 19.57 L -32.73 19.14 L -32.07 18.70 L -31.41 18.27 L -30.76 17.84 L -30.09 17.42 L -29.43 17.00" stroke="rgba(255,255,255,0.92)" stroke-width="1.0" fill="none"/>
</svg>
