<svg xmlns="http://www.w3.org/2000/svg" viewBox="0 0 100.00 67.06" data-cad-width="2952.4" data-cad-height="1980.0">
  <path d="M 24.13 47.08 L 76.96 47.08 L 77.64 46.40 L 77.64 20.66 L 76.96 19.98 L 24.13 19.98 L 23.45 20.66 L 23.45 46.40 Z" stroke="rgba(255,255,255,0.92)" stroke-width="1.0" fill="none"/>
  <path d="M 29.83 19.98 L 46.77 19.98 L 46.77 3.05 L 29.83 3.05 Z" stroke="rgba(255,255,255,0.92)" stroke-width="1.0" fill="none"/>
  <path d="M 29.83 1.69 L 29.83 0.00 L 31.53 0.00 L 31.53 1.69" stroke="rgba(255,255,255,0.92)" stroke-width="1.0" fill="none"/>
  <path d="M 29.83 3.05 L 29.83 1.69" stroke="rgba(255,255,255,0.92)" stroke-width="1.0" fill="none"/>
  <path d="M 29.83 1.69 L 46.77 1.69" stroke="rgba(255,255,255,0.92)" stroke-width="1.0" fill="none"/>
  <path d="M 46.77 1.69 L 46.77 3.05" stroke="rgba(255,255,255,0.92)" stroke-width="1.0" fill="none"/>
  <path d="M 41.69 3.05 L 41.69 1.69" stroke="rgba(255,255,255,0.92)" stroke-width="1.0" fill="none"/>
  <path d="M 34.91 3.05 L 34.91 1.69" stroke="rgba(255,255,255,0.92)" stroke-width="1.0" fill="none"/>
  <path d="M 45.07 1.69 L 45.07 0.00 L 46.77 0.00 L 46.77 1.69" stroke="rgba(255,255,255,0.92)" stroke-width="1.0" fill="none"/>
  <path d="M 29.83 -102.12 A 53.26 53.26 0 0 1 46.77 -102.12" stroke="rgba(255,255,255,0.92)" stroke-width="1.0" fill="none"/>
  <path d="M 34.91 3.05 L 35.59 3.66" stroke="rgba(255,255,255,0.92)" stroke-width="1.0" fill="none"/>
  <path d="M 41.01 3.66 L 41.69 3.05" stroke="rgba(255,255,255,0.92)" stroke-width="1.0" fill="none"/>
  <path d="M 35.59 3.66 L 35.59 3.05" stroke="rgba(255,255,255,0.92)" stroke-width="1.0" fill="none"/>
  <path d="M 41.01 3.66 L 41.01 3.05" stroke="rgba(255,255,255,0.92)" stroke-width="1.0" fill="none"/>
  <path d="M 54.50 19.98 L 71.44 19.98 L 71.44 3.05 L 54.50 3.05 Z" stroke="rgba(255,255,255,0.92)" stroke-width="1.0" fill="none"/>
  <path d="M 54.50 1.69 L 54.50 0.00 L 56.20 0.00 L 56.20 1.69" stroke="rgba(255,255,255,0.92)" stroke-width="1.0" fill="none"/>
  <path d="M 54.50 3.05 L 54.50 1.69" stroke="rgba(255,255,255,0.92)" stroke-width="1.0" fill="none"/>
  <path d="M 54.50 1.69 L 71.44 1.69" stroke="rgba(255,255,255,0.92)" stroke-width="1.0" fill="none"/>
  <path d="M 71.44 1.69 L 71.44 3.05" stroke="rgba(255,255,255,0.92)" stroke-width="1.0" fill="none"/>
  <path d="M 66.36 3.05 L 66.36 1.69" stroke="rgba(255,255,255,0.92)" stroke-width="1.0" fill="none"/>
  <path d="M 59.58 3.05 L 59.58 1.69" stroke="rgba(255,255,255,0.92)" stroke-width="1.0" fill="none"/>
  <path d="M 69.75 1.69 L 69.75 0.00 L 71.44 0.00 L 71.44 1.69" stroke="rgba(255,255,255,0.92)" stroke-width="1.0" fill="none"/>
  <path d="M 54.50 -102.12 A 53.26 53.26 0 0 1 71.44 -102.12" stroke="rgba(255,255,255,0.92)" stroke-width="1.0" fill="none"/>
  <path d="M 59.58 3.05 L 60.26 3.66" stroke="rgba(255,255,255,0.92)" stroke-width="1.0" fill="none"/>
  <path d="M 65.68 3.66 L 66.36 3.05" stroke="rgba(255,255,255,0.92)" stroke-width="1.0" fill="none"/>
  <path d="M 60.26 3.66 L 60.26 3.05" stroke="rgba(255,255,255,0.92)" stroke-width="1.0" fill="none"/>
  <path d="M 65.68 3.66 L 65.68 3.05" stroke="rgba(255,255,255,0.92)" stroke-width="1.0" fill="none"/>
  <path d="M 29.83 47.08 L 46.77 47.08 L 46.77 64.02 L 29.83 64.02 Z" stroke="rgba(255,255,255,0.92)" stroke-width="1.0" fill="none"/>
  <path d="M 29.83 65.37 L 29.83 67.06 L 31.53 67.06 L 31.53 65.37" stroke="rgba(255,255,255,0.92)" stroke-width="1.0" fill="none"/>
  <path d="M 29.83 64.02 L 29.83 65.37" stroke="rgba(255,255,255,0.92)" stroke-width="1.0" fill="none"/>
  <path d="M 29.83 65.37 L 46.77 65.37" stroke="rgba(255,255,255,0.92)" stroke-width="1.0" fill="none"/>
  <path d="M 46.77 65.37 L 46.77 64.02" stroke="rgba(255,255,255,0.92)" stroke-width="1.0" fill="none"/>
  <path d="M 41.69 64.02 L 41.69 65.37" stroke="rgba(255,255,255,0.92)" stroke-width="1.0" fill="none"/>
  <path d="M 34.91 64.02 L 34.91 65.37" stroke="rgba(255,255,255,0.92)" stroke-width="1.0" fill="none"/>
  <path d="M 45.07 65.37 L 45.07 67.06 L 46.77 67.06 L 46.77 65.37" stroke="rgba(255,255,255,0.92)" stroke-width="1.0" fill="none"/>
  <path d="M 46.77 169.18 A 53.26 53.26 0 0 1 29.83 169.18" stroke="rgba(255,255,255,0.92)" stroke-width="1.0" fill="none"/>
  <path d="M 34.91 64.02 L 35.59 63.41" stroke="rgba(255,255,255,0.92)" stroke-width="1.0" fill="none"/>
  <path d="M 41.01 63.41 L 41.69 64.02" stroke="rgba(255,255,255,0.92)" stroke-width="1.0" fill="none"/>
  <path d="M 35.59 63.41 L 35.59 64.02" stroke="rgba(255,255,255,0.92)" stroke-width="1.0" fill="none"/>
  <path d="M 41.01 63.41 L 41.01 64.02" stroke="rgba(255,255,255,0.92)" stroke-width="1.0" fill="none"/>
  <path d="M 54.50 47.08 L 71.44 47.08 L 71.44 64.02 L 54.50 64.02 Z" stroke="rgba(255,255,255,0.92)" stroke-width="1.0" fill="none"/>
  <path d="M 54.50 65.37 L 54.50 67.06 L 56.20 67.06 L 56.20 65.37" stroke="rgba(255,255,255,0.92)" stroke-width="1.0" fill="none"/>
  <path d="M 54.50 64.02 L 54.50 65.37" stroke="rgba(255,255,255,0.92)" stroke-width="1.0" fill="none"/>
  <path d="M 54.50 65.37 L 71.44 65.37" stroke="rgba(255,255,255,0.92)" stroke-width="1.0" fill="none"/>
  <path d="M 71.44 65.37 L 71.44 64.02" stroke="rgba(255,255,255,0.92)" stroke-width="1.0" fill="none"/>
  <path d="M 66.36 64.02 L 66.36 65.37" stroke="rgba(255,255,255,0.92)" stroke-width="1.0" fill="none"/>
  <path d="M 59.58 64.02 L 59.58 65.37" stroke="rgba(255,255,255,0.92)" stroke-width="1.0" fill="none"/>
  <path d="M 69.75 65.37 L 69.75 67.06 L 71.44 67.06 L 71.44 65.37" stroke="rgba(255,255,255,0.92)" stroke-width="1.0" fill="none"/>
  <path d="M 71.44 169.18 A 53.26 53.26 0 0 1 54.50 169.18" stroke="rgba(255,255,255,0.92)" stroke-width="1.0" fill="none"/>
  <path d="M 59.58 64.02 L 60.26 63.41" stroke="rgba(255,255,255,0.92)" stroke-width="1.0" fill="none"/>
  <path d="M 65.68 63.41 L 66.36 64.02" stroke="rgba(255,255,255,0.92)" stroke-width="1.0" fill="none"/>
  <path d="M 60.26 63.41 L 60.26 64.02" stroke="rgba(255,255,255,0.92)" stroke-width="1.0" fill="none"/>
  <path d="M 65.68 63.41 L 65.68 64.02" stroke="rgba(255,255,255,0.92)" stroke-width="1.0" fill="none"/>
  <path d="M 77.64 25.06 L 77.64 42.00 L 94.58 42.00 L 94.58 25.06 Z" stroke="rgba(255,255,255,0.92)" stroke-width="1.0" fill="none"/>
  <path d="M 95.93 25.06 L 97.62 25.06 L 97.62 26.76 L 95.93 26.76" stroke="rgba(255,255,255,0.92)" stroke-width="1.0" fill="none"/>
  <path d="M 94.58 25.06 L 95.93 25.06" stroke="rgba(255,255,255,0.92)" stroke-width="1.0" fill="none"/>
  <path d="M 95.93 25.06 L 95.93 42.00" stroke="rgba(255,255,255,0.92)" stroke-width="1.0" fill="none"/>
  <path d="M 95.93 42.00 L 94.58 42.00" stroke="rgba(255,255,255,0.92)" stroke-width="1.0" fill="none"/>
  <path d="M 94.58 36.92 L 95.93 36.92" stroke="rgba(255,255,255,0.92)" stroke-width="1.0" fill="none"/>
  <path d="M 94.58 30.14 L 95.93 30.14" stroke="rgba(255,255,255,0.92)" stroke-width="1.0" fill="none"/>
  <path d="M 95.93 40.31 L 97.62 40.31 L 97.62 42.00 L 95.93 42.00" stroke="rgba(255,255,255,0.92)" stroke-width="1.0" fill="none"/>
  <path d="M 94.58 42.00 A 53.26 53.26 0 0 1 94.58 25.06" stroke="rgba(255,255,255,0.92)" stroke-width="1.0" fill="none"/>
  <path d="M 94.58 30.14 L 93.97 30.82" stroke="rgba(255,255,255,0.92)" stroke-width="1.0" fill="none"/>
  <path d="M 93.97 36.24 L 94.58 36.92" stroke="rgba(255,255,255,0.92)" stroke-width="1.0" fill="none"/>
  <path d="M 93.97 30.82 L 94.58 30.82" stroke="rgba(255,255,255,0.92)" stroke-width="1.0" fill="none"/>
  <path d="M 93.97 36.24 L 94.58 36.24" stroke="rgba(255,255,255,0.92)" stroke-width="1.0" fill="none"/>
  <path d="M 23.45 25.06 L 23.45 42.00 L 6.51 42.00 L 6.51 25.06 Z" stroke="rgba(255,255,255,0.92)" stroke-width="1.0" fill="none"/>
  <path d="M 5.16 25.06 L 3.46 25.06 L 3.46 26.76 L 5.16 26.76" stroke="rgba(255,255,255,0.92)" stroke-width="1.0" fill="none"/>
  <path d="M 6.51 25.06 L 5.16 25.06" stroke="rgba(255,255,255,0.92)" stroke-width="1.0" fill="none"/>
  <path d="M 5.16 25.06 L 5.16 42.00" stroke="rgba(255,255,255,0.92)" stroke-width="1.0" fill="none"/>
  <path d="M 5.16 42.00 L 6.51 42.00" stroke="rgba(255,255,255,0.92)" stroke-width="1.0" fill="none"/>
  <path d="M 6.51 36.92 L 5.16 36.92" stroke="rgba(255,255,255,0.92)" stroke-width="1.0" fill="none"/>
  <path d="M 6.51 30.14 L 5.16 30.14" stroke="rgba(255,255,255,0.92)" stroke-width="1.0" fill="none"/>
  <path d="M 5.16 40.31 L 3.46 40.31 L 3.46 42.00 L 5.16 42.00" stroke="rgba(255,255,255,0.92)" stroke-width="1.0" fill="none"/>
  <path d="M 6.51 25.06 A 53.26 53.26 0 0 1 6.51 42.00" stroke="rgba(255,255,255,0.92)" stroke-width="1.0" fill="none"/>
  <path d="M 6.51 30.14 L 7.12 30.82" stroke="rgba(255,255,255,0.92)" stroke-width="1.0" fill="none"/>
  <path d="M 7.12 36.24 L 6.51 36.92" stroke="rgba(255,255,255,0.92)" stroke-width="1.0" fill="none"/>
  <path d="M 7.12 30.82 L 6.51 30.82" stroke="rgba(255,255,255,0.92)" stroke-width="1.0" fill="none"/>
  <path d="M 7.12 36.24 L 6.51 36.24" stroke="rgba(255,255,255,0.92)" stroke-width="1.0" fill="none"/>
  <path d="M 23.35 38.61 L 77.74 38.61" stroke="rgba(255,255,255,0.92)" stroke-width="1.0" fill="none"/>
  <path d="M 23.35 28.45 L 33.31 28.45" stroke="rgba(255,255,255,0.92)" stroke-width="1.0" fill="none"/>
  <path d="M 42.56 28.45 L 77.74 28.45" stroke="rgba(255,255,255,0.92)" stroke-width="1.0" fill="none"/>
  <path d="M 23.45 28.45 L 23.45 38.61" stroke="rgba(255,255,255,0.92)" stroke-width="1.0" fill="none"/>
  <path d="M 23.35 28.45 L 23.35 38.61" stroke="rgba(255,255,255,0.92)" stroke-width="1.0" fill="none"/>
  <path d="M 77.64 28.45 L 77.64 38.61" stroke="rgba(255,255,255,0.92)" stroke-width="1.0" fill="none"/>
  <path d="M 77.74 28.45 L 77.74 38.61" stroke="rgba(255,255,255,0.92)" stroke-width="1.0" fill="none"/>
  <circle cx="67.73" cy="33.52" r="3.89" stroke="rgba(255,255,255,0.92)" stroke-width="1.0" fill="none"/>
  <circle cx="67.73" cy="33.52" r="2.32" stroke="rgba(255,255,255,0.92)" stroke-width="1.0" fill="none"/>
  <circle cx="63.26" cy="41.08" r="1.69" stroke="rgba(255,255,255,0.92)" stroke-width="1.0" fill="none"/>
  <circle cx="37.93" cy="30.27" r="4.97" stroke="rgba(255,255,255,0.92)" stroke-width="1.0" fill="none"/>
  <circle cx="35.92" cy="32.50" r="1.24" stroke="rgba(255,255,255,0.92)" stroke-width="1.0" fill="none"/>
  <circle cx="39.36" cy="32.23" r="1.72" stroke="rgba(255,255,255,0.92)" stroke-width="1.0" fill="none"/>
  <circle cx="39.41" cy="32.28" r="0.21" stroke="rgba(255,255,255,0.92)" stroke-width="1.0" fill="none"/>
  <circle cx="36.70" cy="27.50" r="1.01" stroke="rgba(255,255,255,0.92)" stroke-width="1.0" fill="none"/>
  <circle cx="34.31" cy="29.15" r="1.11" stroke="rgba(255,255,255,0.92)" stroke-width="1.0" fill="none"/>
  <circle cx="36.60" cy="29.86" r="1.21" stroke="rgba(255,255,255,0.92)" stroke-width="1.0" fill="none"/>
  <circle cx="39.76" cy="27.77" r="1.65" stroke="rgba(255,255,255,0.92)" stroke-width="1.0" fill="none"/>
  <path d="M 50.00 19.14 L 23.18 19.14" stroke="rgba(255,255,255,0.92)" stroke-width="1.0" fill="none"/>
  <path d="M 50.00 44.88 L 36.45 44.88" stroke="rgba(255,255,255,0.92)" stroke-width="1.0" fill="none"/>
  <path d="M 50.00 44.20 L 36.62 44.20" stroke="rgba(255,255,255,0.92)" stroke-width="1.0" fill="none"/>
  <path d="M 23.58 20.49 L 50.00 20.49" stroke="rgba(255,255,255,0.92)" stroke-width="1.0" fill="none"/>
  <path d="M 24.26 20.49 L 24.26 22.19" stroke="rgba(255,255,255,0.92)" stroke-width="1.0" fill="none"/>
  <path d="M 24.26 22.19 L 50.00 22.19" stroke="rgba(255,255,255,0.92)" stroke-width="1.0" fill="none"/>
  <path d="M 39.84 22.19 L 39.84 44.20" stroke="rgba(255,255,255,0.92)" stroke-width="1.0" fill="none"/>
  <path d="M 36.45 44.37 L 36.45 44.88" stroke="rgba(255,255,255,0.92)" stroke-width="1.0" fill="none"/>
  <path d="M 36.62 44.54 A 0.17 0.17 0 0 1 36.45 44.37" stroke="rgba(255,255,255,0.92)" stroke-width="1.0" fill="none"/>
  <path d="M 23.03 19.38 L 23.58 20.49" stroke="rgba(255,255,255,0.92)" stroke-width="1.0" fill="none"/>
  <path d="M 23.18 19.48 A 0.17 0.17 0 0 1 23.03 19.23" stroke="rgba(255,255,255,0.92)" stroke-width="1.0" fill="none"/>
  <path d="M 21.00 29.64 L 3.39 29.64" stroke="rgba(255,255,255,0.92)" stroke-width="1.0" fill="none"/>
  <path d="M 22.02 31.33 L 3.39 31.33" stroke="rgba(255,255,255,0.92)" stroke-width="1.0" fill="none"/>
  <path d="M 22.02 32.35 L 3.39 32.35" stroke="rgba(255,255,255,0.92)" stroke-width="1.0" fill="none"/>
  <path d="M 22.02 44.88 L 22.02 30.65" stroke="rgba(255,255,255,0.92)" stroke-width="1.0" fill="none"/>
  <path d="M 22.02 30.65 A 1.02 1.02 0 0 1 21.00 31.67" stroke="rgba(255,255,255,0.92)" stroke-width="1.0" fill="none"/>
  <path d="M 20.32 32.35 L 21.34 44.88" stroke="rgba(255,255,255,0.92)" stroke-width="1.0" fill="none"/>
  <path d="M 3.39 29.64 L 4.40 29.64" stroke="rgba(255,255,255,0.92)" stroke-width="1.0" fill="none"/>
  <path d="M 0.00 44.88 L 0.68 44.88" stroke="rgba(255,255,255,0.92)" stroke-width="1.0" fill="none"/>
  <path d="M 3.39 29.64 L 2.03 29.64" stroke="rgba(255,255,255,0.92)" stroke-width="1.0" fill="none"/>
  <path d="M 0.00 14.26 A 58.67 58.67 0 0 1 2.03 29.50" stroke="rgba(255,255,255,0.92)" stroke-width="1.0" fill="none"/>
  <path d="M 0.68 9.75 A 57.33 57.33 0 0 1 3.39 24.99" stroke="rgba(255,255,255,0.92)" stroke-width="1.0" fill="none"/>
  <path d="M 2.37 12.70 L 1.35 12.70" stroke="rgba(255,255,255,0.92)" stroke-width="1.0" fill="none"/>
  <path d="M 2.03 16.80 A 51.92 51.92 0 0 1 1.35 33.73" stroke="rgba(255,255,255,0.92)" stroke-width="1.0" fill="none"/>
  <path d="M 3.39 19.14 A 54.42 54.42 0 0 1 2.37 36.08" stroke="rgba(255,255,255,0.92)" stroke-width="1.0" fill="none"/>
  <path d="M 3.39 29.64 L 5.08 29.64" stroke="rgba(255,255,255,0.92)" stroke-width="1.0" fill="none"/>
  <path d="M 2.78 14.75 L 3.06 14.75" stroke="rgba(255,255,255,0.92)" stroke-width="1.0" fill="none"/>
  <path d="M 5.08 19.99 A 31.37 31.37 0 0 1 4.03 34.16" stroke="rgba(255,255,255,0.92)" stroke-width="1.0" fill="none"/>
  <path d="M 4.03 16.07 A 1.02 1.02 0 0 1 3.06 16.78" stroke="rgba(255,255,255,0.92)" stroke-width="1.0" fill="none"/>
  <path d="M 50.00 19.14 L 76.82 19.14" stroke="rgba(255,255,255,0.92)" stroke-width="1.0" fill="none"/>
  <path d="M 50.00 44.88 L 63.55 44.88" stroke="rgba(255,255,255,0.92)" stroke-width="1.0" fill="none"/>
  <path d="M 50.00 44.20 L 63.38 44.20" stroke="rgba(255,255,255,0.92)" stroke-width="1.0" fill="none"/>
  <path d="M 76.42 20.49 L 50.00 20.49" stroke="rgba(255,255,255,0.92)" stroke-width="1.0" fill="none"/>
  <path d="M 75.74 20.49 L 75.74 22.19" stroke="rgba(255,255,255,0.92)" stroke-width="1.0" fill="none"/>
  <path d="M 75.74 22.19 L 50.00 22.19" stroke="rgba(255,255,255,0.92)" stroke-width="1.0" fill="none"/>
  <path d="M 60.16 22.19 L 60.16 44.20" stroke="rgba(255,255,255,0.92)" stroke-width="1.0" fill="none"/>
  <path d="M 63.55 44.37 L 63.55 44.88" stroke="rgba(255,255,255,0.92)" stroke-width="1.0" fill="none"/>
  <path d="M 63.55 44.37 A 0.17 0.17 0 0 1 63.38 44.54" stroke="rgba(255,255,255,0.92)" stroke-width="1.0" fill="none"/>
  <path d="M 76.97 19.38 L 76.42 20.49" stroke="rgba(255,255,255,0.92)" stroke-width="1.0" fill="none"/>
  <path d="M 76.97 19.23 A 0.17 0.17 0 0 1 76.82 19.48" stroke="rgba(255,255,255,0.92)" stroke-width="1.0" fill="none"/>
  <path d="M 22.02 44.88 L 21.34 44.88" stroke="rgba(255,255,255,0.92)" stroke-width="1.0" fill="none"/>
  <path d="M 79.00 29.64 L 96.61 29.64" stroke="rgba(255,255,255,0.92)" stroke-width="1.0" fill="none"/>
  <path d="M 77.98 31.33 L 96.61 31.33" stroke="rgba(255,255,255,0.92)" stroke-width="1.0" fill="none"/>
  <path d="M 77.98 32.35 L 96.61 32.35" stroke="rgba(255,255,255,0.92)" stroke-width="1.0" fill="none"/>
  <path d="M 77.98 44.88 L 77.98 30.65" stroke="rgba(255,255,255,0.92)" stroke-width="1.0" fill="none"/>
  <path d="M 79.00 31.67 A 1.02 1.02 0 0 1 77.98 30.65" stroke="rgba(255,255,255,0.92)" stroke-width="1.0" fill="none"/>
  <path d="M 79.68 32.35 L 78.66 44.88" stroke="rgba(255,255,255,0.92)" stroke-width="1.0" fill="none"/>
  <path d="M 96.61 29.64 L 95.60 29.64" stroke="rgba(255,255,255,0.92)" stroke-width="1.0" fill="none"/>
  <path d="M 100.00 44.88 L 99.32 44.88" stroke="rgba(255,255,255,0.92)" stroke-width="1.0" fill="none"/>
  <path d="M 96.61 29.64 L 97.97 29.64" stroke="rgba(255,255,255,0.92)" stroke-width="1.0" fill="none"/>
  <path d="M 97.97 29.50 A 58.67 58.67 0 0 1 100.00 14.26" stroke="rgba(255,255,255,0.92)" stroke-width="1.0" fill="none"/>
  <path d="M 96.61 24.99 A 57.33 57.33 0 0 1 99.32 9.75" stroke="rgba(255,255,255,0.92)" stroke-width="1.0" fill="none"/>
  <path d="M 97.63 12.70 L 98.65 12.70" stroke="rgba(255,255,255,0.92)" stroke-width="1.0" fill="none"/>
  <path d="M 98.65 33.73 A 51.92 51.92 0 0 1 97.97 16.80" stroke="rgba(255,255,255,0.92)" stroke-width="1.0" fill="none"/>
  <path d="M 97.63 36.08 A 54.42 54.42 0 0 1 96.61 19.14" stroke="rgba(255,255,255,0.92)" stroke-width="1.0" fill="none"/>
  <path d="M 96.61 29.64 L 94.92 29.64" stroke="rgba(255,255,255,0.92)" stroke-width="1.0" fill="none"/>
  <path d="M 97.22 14.75 L 96.94 14.75" stroke="rgba(255,255,255,0.92)" stroke-width="1.0" fill="none"/>
  <path d="M 95.97 34.16 A 31.37 31.37 0 0 1 94.92 19.99" stroke="rgba(255,255,255,0.92)" stroke-width="1.0" fill="none"/>
  <path d="M 96.94 16.78 A 1.02 1.02 0 0 1 95.97 16.07" stroke="rgba(255,255,255,0.92)" stroke-width="1.0" fill="none"/>
  <path d="M 77.98 44.88 L 78.66 44.88" stroke="rgba(255,255,255,0.92)" stroke-width="1.0" fill="none"/>
  <path d="M 43.90 22.19 L 43.90 44.20" stroke="rgba(255,255,255,0.92)" stroke-width="1.0" fill="none"/>
  <path d="M 41.87 22.19 L 41.87 44.20" stroke="rgba(255,255,255,0.92)" stroke-width="1.0" fill="none"/>
  <path d="M 45.94 22.19 L 45.94 44.20" stroke="rgba(255,255,255,0.92)" stroke-width="1.0" fill="none"/>
  <path d="M 47.97 22.19 L 47.97 44.20" stroke="rgba(255,255,255,0.92)" stroke-width="1.0" fill="none"/>
  <path d="M 50.00 22.19 L 50.00 44.20" stroke="rgba(255,255,255,0.92)" stroke-width="1.0" fill="none"/>
  <path d="M 52.03 22.19 L 52.03 44.20" stroke="rgba(255,255,255,0.92)" stroke-width="1.0" fill="none"/>
  <path d="M 54.06 22.19 L 54.06 44.20" stroke="rgba(255,255,255,0.92)" stroke-width="1.0" fill="none"/>
  <path d="M 56.10 22.19 L 56.10 44.20" stroke="rgba(255,255,255,0.92)" stroke-width="1.0" fill="none"/>
  <path d="M 58.13 22.19 L 58.13 44.20" stroke="rgba(255,255,255,0.92)" stroke-width="1.0" fill="none"/>
  <path d="M 35.93 18.95 L 61.39 18.95" stroke="rgba(255,255,255,0.92)" stroke-width="1.0" fill="none"/>
  <path d="M 36.47 20.30 L 60.85 20.30" stroke="rgba(255,255,255,0.92)" stroke-width="1.0" fill="none"/>
  <path d="M 36.47 21.99 L 60.85 21.99" stroke="rgba(255,255,255,0.92)" stroke-width="1.0" fill="none"/>
  <path d="M 38.50 44.69 L 58.82 44.69" stroke="rgba(255,255,255,0.92)" stroke-width="1.0" fill="none"/>
  <path d="M 38.50 44.01 L 58.82 44.01" stroke="rgba(255,255,255,0.92)" stroke-width="1.0" fill="none"/>
  <path d="M 36.47 20.30 L 36.47 21.99" stroke="rgba(255,255,255,0.92)" stroke-width="1.0" fill="none"/>
  <path d="M 60.85 20.30 L 60.85 21.99" stroke="rgba(255,255,255,0.92)" stroke-width="1.0" fill="none"/>
  <path d="M 57.13 21.99 L 57.13 44.01" stroke="rgba(255,255,255,0.92)" stroke-width="1.0" fill="none"/>
  <path d="M 40.19 21.99 L 40.19 44.01" stroke="rgba(255,255,255,0.92)" stroke-width="1.0" fill="none"/>
  <path d="M 58.82 44.01 L 58.82 44.69" stroke="rgba(255,255,255,0.92)" stroke-width="1.0" fill="none"/>
  <path d="M 38.50 44.01 L 38.50 44.69" stroke="rgba(255,255,255,0.92)" stroke-width="1.0" fill="none"/>
  <path d="M 35.69 19.52 L 36.47 20.30" stroke="rgba(255,255,255,0.92)" stroke-width="1.0" fill="none"/>
  <path d="M 35.93 19.62 A 0.34 0.34 0 0 1 35.69 19.05" stroke="rgba(255,255,255,0.92)" stroke-width="1.0" fill="none"/>
  <path d="M 61.63 19.52 L 60.85 20.30" stroke="rgba(255,255,255,0.92)" stroke-width="1.0" fill="none"/>
  <path d="M 61.63 19.05 A 0.34 0.34 0 0 1 61.39 19.62" stroke="rgba(255,255,255,0.92)" stroke-width="1.0" fill="none"/>
  <path d="M 31.45 29.45 L 13.84 29.45" stroke="rgba(255,255,255,0.92)" stroke-width="1.0" fill="none"/>
  <path d="M 32.47 31.14 L 13.84 31.14" stroke="rgba(255,255,255,0.92)" stroke-width="1.0" fill="none"/>
  <path d="M 32.47 32.16 L 13.84 32.16" stroke="rgba(255,255,255,0.92)" stroke-width="1.0" fill="none"/>
  <path d="M 32.47 44.69 L 32.47 30.46" stroke="rgba(255,255,255,0.92)" stroke-width="1.0" fill="none"/>
  <path d="M 32.47 30.46 A 1.02 1.02 0 0 1 31.45 31.48" stroke="rgba(255,255,255,0.92)" stroke-width="1.0" fill="none"/>
  <path d="M 30.77 32.16 L 31.79 44.69" stroke="rgba(255,255,255,0.92)" stroke-width="1.0" fill="none"/>
  <path d="M 13.84 29.45 L 14.85 29.45" stroke="rgba(255,255,255,0.92)" stroke-width="1.0" fill="none"/>
  <path d="M 10.45 44.69 L 11.13 44.69" stroke="rgba(255,255,255,0.92)" stroke-width="1.0" fill="none"/>
  <path d="M 13.84 29.45 L 12.48 29.45" stroke="rgba(255,255,255,0.92)" stroke-width="1.0" fill="none"/>
  <path d="M 10.45 14.07 A 58.67 58.67 0 0 1 12.48 29.31" stroke="rgba(255,255,255,0.92)" stroke-width="1.0" fill="none"/>
  <path d="M 11.13 9.56 A 57.33 57.33 0 0 1 13.84 24.80" stroke="rgba(255,255,255,0.92)" stroke-width="1.0" fill="none"/>
  <path d="M 12.82 12.51 L 11.81 12.51" stroke="rgba(255,255,255,0.92)" stroke-width="1.0" fill="none"/>
  <path d="M 12.48 16.61 A 51.92 51.92 0 0 1 11.81 33.54" stroke="rgba(255,255,255,0.92)" stroke-width="1.0" fill="none"/>
  <path d="M 13.84 18.95 A 54.42 54.42 0 0 1 12.82 35.89" stroke="rgba(255,255,255,0.92)" stroke-width="1.0" fill="none"/>
  <path d="M 13.84 29.45 L 15.53 29.45" stroke="rgba(255,255,255,0.92)" stroke-width="1.0" fill="none"/>
  <path d="M 13.23 14.56 L 13.51 14.56" stroke="rgba(255,255,255,0.92)" stroke-width="1.0" fill="none"/>
  <path d="M 15.53 19.80 A 31.37 31.37 0 0 1 14.48 33.97" stroke="rgba(255,255,255,0.92)" stroke-width="1.0" fill="none"/>
  <path d="M 14.48 15.88 A 1.02 1.02 0 0 1 13.51 16.59" stroke="rgba(255,255,255,0.92)" stroke-width="1.0" fill="none"/>
  <path d="M 32.47 44.69 L 31.79 44.69" stroke="rgba(255,255,255,0.92)" stroke-width="1.0" fill="none"/>
  <path d="M 65.77 29.45 L 83.39 29.45" stroke="rgba(255,255,255,0.92)" stroke-width="1.0" fill="none"/>
  <path d="M 64.76 31.14 L 83.39 31.14" stroke="rgba(255,255,255,0.92)" stroke-width="1.0" fill="none"/>
  <path d="M 64.76 32.16 L 83.39 32.16" stroke="rgba(255,255,255,0.92)" stroke-width="1.0" fill="none"/>
  <path d="M 64.76 44.69 L 64.76 30.46" stroke="rgba(255,255,255,0.92)" stroke-width="1.0" fill="none"/>
  <path d="M 65.77 31.48 A 1.02 1.02 0 0 1 64.76 30.46" stroke="rgba(255,255,255,0.92)" stroke-width="1.0" fill="none"/>
  <path d="M 66.45 32.16 L 65.44 44.69" stroke="rgba(255,255,255,0.92)" stroke-width="1.0" fill="none"/>
  <path d="M 83.39 29.45 L 82.37 29.45" stroke="rgba(255,255,255,0.92)" stroke-width="1.0" fill="none"/>
  <path d="M 86.77 44.69 L 86.10 44.69" stroke="rgba(255,255,255,0.92)" stroke-width="1.0" fill="none"/>
  <path d="M 83.39 29.45 L 84.74 29.45" stroke="rgba(255,255,255,0.92)" stroke-width="1.0" fill="none"/>
  <path d="M 84.74 29.31 A 58.67 58.67 0 0 1 86.77 14.07" stroke="rgba(255,255,255,0.92)" stroke-width="1.0" fill="none"/>
  <path d="M 83.39 24.80 A 57.33 57.33 0 0 1 86.10 9.56" stroke="rgba(255,255,255,0.92)" stroke-width="1.0" fill="none"/>
  <path d="M 84.40 12.51 L 85.42 12.51" stroke="rgba(255,255,255,0.92)" stroke-width="1.0" fill="none"/>
  <path d="M 85.42 33.54 A 51.92 51.92 0 0 1 84.74 16.61" stroke="rgba(255,255,255,0.92)" stroke-width="1.0" fill="none"/>
  <path d="M 84.40 35.89 A 54.42 54.42 0 0 1 83.39 18.95" stroke="rgba(255,255,255,0.92)" stroke-width="1.0" fill="none"/>
  <path d="M 83.39 29.45 L 81.69 29.45" stroke="rgba(255,255,255,0.92)" stroke-width="1.0" fill="none"/>
  <path d="M 83.99 14.56 L 83.72 14.56" stroke="rgba(255,255,255,0.92)" stroke-width="1.0" fill="none"/>
  <path d="M 82.75 33.97 A 31.37 31.37 0 0 1 81.69 19.80" stroke="rgba(255,255,255,0.92)" stroke-width="1.0" fill="none"/>
  <path d="M 83.72 16.59 A 1.02 1.02 0 0 1 82.75 15.88" stroke="rgba(255,255,255,0.92)" stroke-width="1.0" fill="none"/>
  <path d="M 64.76 44.69 L 65.44 44.69" stroke="rgba(255,255,255,0.92)" stroke-width="1.0" fill="none"/>
</svg>
