<svg xmlns="http://www.w3.org/2000/svg" viewBox="0 0 100 100" width="100" height="100">
  <path d="M 84.39 56.75 L 84.39 56.10" stroke="rgba(255,255,255,0.92)" stroke-width="1.0" fill="none"/>
  <path d="M 79.87 62.08 L 79.87 58.04" stroke="rgba(255,255,255,0.92)" stroke-width="1.0" fill="none"/>
  <path d="M 79.22 62.08 L 79.22 58.04" stroke="rgba(255,255,255,0.92)" stroke-width="1.0" fill="none"/>
  <path d="M 22.97 56.75 L 22.97 39.45" stroke="rgba(255,255,255,0.92)" stroke-width="1.0" fill="none"/>
  <path d="M 23.62 40.10 A 0.65 0.65 0 0 1 22.97 39.45" stroke="rgba(255,255,255,0.92)" stroke-width="1.0" fill="none"/>
  <path d="M 28.14 58.04 L 28.14 62.08" stroke="rgba(255,255,255,0.92)" stroke-width="1.0" fill="none"/>
  <path d="M 27.50 58.04 L 27.50 62.08" stroke="rgba(255,255,255,0.92)" stroke-width="1.0" fill="none"/>
  <path d="M 24.26 54.81 L 83.10 54.81" stroke="rgba(255,255,255,0.92)" stroke-width="1.0" fill="none"/>
  <path d="M 49.80 38.81 L 23.62 38.81" stroke="rgba(255,255,255,0.92)" stroke-width="1.0" fill="none"/>
  <path d="M 50.77 62.08 L 50.77 58.04" stroke="rgba(255,255,255,0.92)" stroke-width="1.0" fill="none"/>
  <path d="M 50.13 62.08 L 50.13 58.04" stroke="rgba(255,255,255,0.92)" stroke-width="1.0" fill="none"/>
  <path d="M 50.45 54.81 L 50.45 39.45" stroke="rgba(255,255,255,0.92)" stroke-width="1.0" fill="none"/>
  <path d="M 50.45 39.45 A 0.65 0.65 0 0 1 49.80 40.10" stroke="rgba(255,255,255,0.92)" stroke-width="1.0" fill="none"/>
  <path d="M 24.26 58.04 L 54.00 58.04" stroke="rgba(255,255,255,0.92)" stroke-width="1.0" fill="none"/>
  <path d="M 22.97 56.75 L 22.97 56.10" stroke="rgba(255,255,255,0.92)" stroke-width="1.0" fill="none"/>
  <path d="M 22.97 56.75 A 1.29 1.29 0 0 1 24.26 55.46" stroke="rgba(255,255,255,0.92)" stroke-width="1.0" fill="none"/>
  <path d="M 55.30 56.75 L 55.30 56.10" stroke="rgba(255,255,255,0.92)" stroke-width="1.0" fill="none"/>
  <path d="M 54.00 55.46 A 1.29 1.29 0 0 1 55.30 56.75" stroke="rgba(255,255,255,0.92)" stroke-width="1.0" fill="none"/>
  <path d="M 83.10 55.46 A 1.29 1.29 0 0 1 84.39 56.75" stroke="rgba(255,255,255,0.92)" stroke-width="1.0" fill="none"/>
  <path d="M 84.39 56.10 A 1.29 1.29 0 0 1 83.10 57.40" stroke="rgba(255,255,255,0.92)" stroke-width="1.0" fill="none"/>
  <path d="M 56.59 54.81 L 82.78 54.81" stroke="rgba(255,255,255,0.92)" stroke-width="1.0" fill="none"/>
  <path d="M 82.78 51.58 A 1.62 1.62 0 0 1 84.39 53.19" stroke="rgba(255,255,255,0.92)" stroke-width="1.0" fill="none"/>
  <path d="M 54.00 54.81 L 22.97 54.81" stroke="rgba(255,255,255,0.92)" stroke-width="1.0" fill="none"/>
  <path d="M 55.30 56.10 A 1.29 1.29 0 0 1 54.00 57.40" stroke="rgba(255,255,255,0.92)" stroke-width="1.0" fill="none"/>
  <path d="M 61.72 47.30 L 61.72 48.02" stroke="rgba(255,255,255,0.92)" stroke-width="1.0" fill="none"/>
  <path d="M 83.10 58.04 L 24.26 58.04" stroke="rgba(255,255,255,0.92)" stroke-width="1.0" fill="none"/>
  <path d="M 27.50 62.08 L 28.14 62.08" stroke="rgba(255,255,255,0.92)" stroke-width="1.0" fill="none"/>
  <path d="M 28.14 62.08 L 27.50 62.08" stroke="rgba(255,255,255,0.92)" stroke-width="1.0" fill="none"/>
  <path d="M 50.13 62.08 L 50.77 62.08" stroke="rgba(255,255,255,0.92)" stroke-width="1.0" fill="none"/>
  <path d="M 79.22 62.08 L 79.87 62.08" stroke="rgba(255,255,255,0.92)" stroke-width="1.0" fill="none"/>
  <path d="M 50.45 48.02 L 82.78 48.02" stroke="rgba(255,255,255,0.92)" stroke-width="1.0" fill="none"/>
  <path d="M 84.39 53.19 L 84.39 49.64" stroke="rgba(255,255,255,0.92)" stroke-width="1.0" fill="none"/>
  <path d="M 84.39 49.64 A 1.62 1.62 0 0 1 82.78 51.25" stroke="rgba(255,255,255,0.92)" stroke-width="1.0" fill="none"/>
  <path d="M 48.05 37.09 L 48.60 38.81" stroke="rgba(255,255,255,0.92)" stroke-width="1.0" fill="none"/>
  <path d="M 50.45 47.73 L 51.46 47.49 L 56.44 47.30 L 61.78 47.30 L 65.43 48.02" stroke="rgba(255,255,255,0.92)" stroke-width="1.0" fill="none"/>
  <path d="M 66.47 48.02 L 65.62 45.79 L 65.40 45.23" stroke="rgba(255,255,255,0.92)" stroke-width="1.0" fill="none"/>
  <path d="M 62.88 37.52 L 60.46 37.94 L 53.73 37.94 L 50.78 37.94 L 48.05 37.09" stroke="rgba(255,255,255,0.92)" stroke-width="1.0" fill="none"/>
  <path d="M 63.02 33.80 L 63.11 36.75 L 61.73 41.44 L 59.65 44.57 L 63.40 44.73 L 68.23 45.94 L 73.37 47.42 L 74.52 48.02" stroke="rgba(255,255,255,0.92)" stroke-width="1.0" fill="none"/>
  <path d="M 77.55 48.02 L 77.47 47.04 L 77.26 44.55 L 78.27 41.12 L 81.18 39.22 L 78.70 38.50 L 74.70 38.06 L 68.24 36.19 L 65.40 35.37 L 63.02 33.80" stroke="rgba(255,255,255,0.92)" stroke-width="1.0" fill="none"/>
  <path d="M 24.24 35.31 L 25.36 38.82" stroke="rgba(255,255,255,0.92)" stroke-width="1.0" fill="none"/>
  <path d="M 45.09 38.81 L 45.09 38.80 L 47.92 35.50 L 44.70 35.50 L 39.75 36.37 L 31.34 36.37 L 27.64 36.37 L 24.24 35.31" stroke="rgba(255,255,255,0.92)" stroke-width="1.0" fill="none"/>
  <path d="M 100.00 60.14 L 100.00 59.49" stroke="rgba(255,255,255,0.92)" stroke-width="1.0" fill="none"/>
  <path d="M 94.50 61.43 L 94.50 65.47" stroke="rgba(255,255,255,0.92)" stroke-width="1.0" fill="none"/>
  <path d="M 93.86 61.43 L 93.86 65.47" stroke="rgba(255,255,255,0.92)" stroke-width="1.0" fill="none"/>
  <path d="M 3.02 60.14 A 1.29 1.29 0 0 1 4.31 58.84" stroke="rgba(255,255,255,0.92)" stroke-width="1.0" fill="none"/>
  <path d="M 61.53 61.43 L 61.53 65.47" stroke="rgba(255,255,255,0.92)" stroke-width="1.0" fill="none"/>
  <path d="M 67.67 52.70 A 1.29 1.29 0 0 1 66.38 53.99" stroke="rgba(255,255,255,0.92)" stroke-width="1.0" fill="none"/>
  <path d="M 73.17 61.43 L 73.17 65.47" stroke="rgba(255,255,255,0.92)" stroke-width="1.0" fill="none"/>
  <path d="M 67.67 56.58 L 67.67 52.70" stroke="rgba(255,255,255,0.92)" stroke-width="1.0" fill="none"/>
  <path d="M 73.81 61.43 L 73.81 65.47" stroke="rgba(255,255,255,0.92)" stroke-width="1.0" fill="none"/>
  <path d="M 62.18 61.43 L 62.18 65.47" stroke="rgba(255,255,255,0.92)" stroke-width="1.0" fill="none"/>
  <path d="M 3.02 60.14 L 3.02 43.49" stroke="rgba(255,255,255,0.92)" stroke-width="1.0" fill="none"/>
  <path d="M 9.16 61.43 L 9.16 65.47" stroke="rgba(255,255,255,0.92)" stroke-width="1.0" fill="none"/>
  <path d="M 8.51 61.43 L 8.51 65.47" stroke="rgba(255,255,255,0.92)" stroke-width="1.0" fill="none"/>
  <path d="M 4.31 61.43 L 29.19 61.43" stroke="rgba(255,255,255,0.92)" stroke-width="1.0" fill="none"/>
  <path d="M 29.19 61.43 L 66.38 61.43" stroke="rgba(255,255,255,0.92)" stroke-width="1.0" fill="none"/>
  <path d="M 68.96 61.43 L 98.71 61.43" stroke="rgba(255,255,255,0.92)" stroke-width="1.0" fill="none"/>
  <path d="M 3.02 51.41 L 29.19 51.41" stroke="rgba(255,255,255,0.92)" stroke-width="1.0" fill="none"/>
  <path d="M 29.19 51.41 L 66.38 51.41" stroke="rgba(255,255,255,0.92)" stroke-width="1.0" fill="none"/>
  <path d="M 4.31 58.20 L 29.19 58.20" stroke="rgba(255,255,255,0.92)" stroke-width="1.0" fill="none"/>
  <path d="M 29.19 58.20 L 66.38 58.20" stroke="rgba(255,255,255,0.92)" stroke-width="1.0" fill="none"/>
  <path d="M 68.96 58.20 L 98.71 58.20" stroke="rgba(255,255,255,0.92)" stroke-width="1.0" fill="none"/>
  <path d="M 4.31 57.87 L 29.19 57.87" stroke="rgba(255,255,255,0.92)" stroke-width="1.0" fill="none"/>
  <path d="M 29.19 57.87 L 66.38 57.87" stroke="rgba(255,255,255,0.92)" stroke-width="1.0" fill="none"/>
  <path d="M 3.02 56.58 A 1.29 1.29 0 0 1 4.31 55.29" stroke="rgba(255,255,255,0.92)" stroke-width="1.0" fill="none"/>
  <path d="M 3.02 59.49 L 3.02 60.14" stroke="rgba(255,255,255,0.92)" stroke-width="1.0" fill="none"/>
  <path d="M 4.31 60.78 A 1.29 1.29 0 0 1 3.02 59.49" stroke="rgba(255,255,255,0.92)" stroke-width="1.0" fill="none"/>
  <path d="M 3.02 52.70 L 3.02 56.58" stroke="rgba(255,255,255,0.92)" stroke-width="1.0" fill="none"/>
  <path d="M 66.38 58.84 A 1.29 1.29 0 0 1 67.67 60.14" stroke="rgba(255,255,255,0.92)" stroke-width="1.0" fill="none"/>
  <path d="M 67.67 60.14 L 67.67 59.49" stroke="rgba(255,255,255,0.92)" stroke-width="1.0" fill="none"/>
  <path d="M 67.67 59.49 A 1.29 1.29 0 0 1 66.38 60.78" stroke="rgba(255,255,255,0.92)" stroke-width="1.0" fill="none"/>
  <path d="M 68.96 58.20 L 98.71 58.20" stroke="rgba(255,255,255,0.92)" stroke-width="1.0" fill="none"/>
  <path d="M 68.96 61.43 L 98.71 61.43" stroke="rgba(255,255,255,0.92)" stroke-width="1.0" fill="none"/>
  <path d="M 68.96 60.78 A 1.29 1.29 0 0 1 67.67 59.49" stroke="rgba(255,255,255,0.92)" stroke-width="1.0" fill="none"/>
  <path d="M 67.67 60.14 A 1.29 1.29 0 0 1 68.96 58.84" stroke="rgba(255,255,255,0.92)" stroke-width="1.0" fill="none"/>
  <path d="M 100.00 60.14 L 100.00 59.49" stroke="rgba(255,255,255,0.92)" stroke-width="1.0" fill="none"/>
  <path d="M 98.71 58.84 A 1.29 1.29 0 0 1 100.00 60.14" stroke="rgba(255,255,255,0.92)" stroke-width="1.0" fill="none"/>
  <path d="M 100.00 59.49 A 1.29 1.29 0 0 1 98.71 60.78" stroke="rgba(255,255,255,0.92)" stroke-width="1.0" fill="none"/>
  <path d="M 100.00 56.58 L 100.00 43.49" stroke="rgba(255,255,255,0.92)" stroke-width="1.0" fill="none"/>
  <path d="M 98.71 55.29 A 1.29 1.29 0 0 1 100.00 56.58" stroke="rgba(255,255,255,0.92)" stroke-width="1.0" fill="none"/>
  <path d="M 8.51 65.47 L 9.16 65.47" stroke="rgba(255,255,255,0.92)" stroke-width="1.0" fill="none"/>
  <path d="M 8.51 65.47 L 9.16 65.47" stroke="rgba(255,255,255,0.92)" stroke-width="1.0" fill="none"/>
  <path d="M 61.53 65.47 L 62.18 65.47" stroke="rgba(255,255,255,0.92)" stroke-width="1.0" fill="none"/>
  <path d="M 73.17 65.47 L 73.81 65.47" stroke="rgba(255,255,255,0.92)" stroke-width="1.0" fill="none"/>
  <path d="M 93.86 65.47 L 94.50 65.47" stroke="rgba(255,255,255,0.92)" stroke-width="1.0" fill="none"/>
  <path d="M 4.31 42.19 L 10.62 42.19" stroke="rgba(255,255,255,0.92)" stroke-width="1.0" fill="none"/>
  <path d="M 94.34 42.19 L 98.71 42.19" stroke="rgba(255,255,255,0.92)" stroke-width="1.0" fill="none"/>
  <path d="M 4.31 42.19 L 5.50 42.19" stroke="rgba(255,255,255,0.92)" stroke-width="1.0" fill="none"/>
  <path d="M 6.78 43.32 L 7.86 51.41" stroke="rgba(255,255,255,0.92)" stroke-width="1.0" fill="none"/>
  <path d="M 4.31 44.78 A 1.29 1.29 0 0 1 3.02 43.49" stroke="rgba(255,255,255,0.92)" stroke-width="1.0" fill="none"/>
  <path d="M 6.78 43.66 A 1.29 1.29 0 0 1 5.50 44.78" stroke="rgba(255,255,255,0.92)" stroke-width="1.0" fill="none"/>
  <path d="M 97.50 42.19 L 98.71 42.19" stroke="rgba(255,255,255,0.92)" stroke-width="1.0" fill="none"/>
  <path d="M 96.21 43.32 L 95.15 51.41" stroke="rgba(255,255,255,0.92)" stroke-width="1.0" fill="none"/>
  <path d="M 97.50 44.78 A 1.29 1.29 0 0 1 96.21 43.66" stroke="rgba(255,255,255,0.92)" stroke-width="1.0" fill="none"/>
  <path d="M 100.00 43.49 A 1.29 1.29 0 0 1 98.71 44.78" stroke="rgba(255,255,255,0.92)" stroke-width="1.0" fill="none"/>
  <path d="M 68.96 51.41 L 100.00 51.41" stroke="rgba(255,255,255,0.92)" stroke-width="1.0" fill="none"/>
  <path d="M 66.38 55.29 A 1.29 1.29 0 0 1 67.67 56.58" stroke="rgba(255,255,255,0.92)" stroke-width="1.0" fill="none"/>
  <path d="M 68.96 57.87 L 98.71 57.87" stroke="rgba(255,255,255,0.92)" stroke-width="1.0" fill="none"/>
  <path d="M 67.67 56.58 A 1.29 1.29 0 0 1 68.96 55.29" stroke="rgba(255,255,255,0.92)" stroke-width="1.0" fill="none"/>
  <path d="M 68.96 53.99 A 1.29 1.29 0 0 1 67.67 52.70" stroke="rgba(255,255,255,0.92)" stroke-width="1.0" fill="none"/>
  <path d="M 9.51 34.51 L 9.64 38.48 L 10.62 44.13 L 8.94 49.89 L 13.98 49.06 L 19.79 48.43 L 24.99 47.55" stroke="rgba(255,255,255,0.92)" stroke-width="1.0" fill="none"/>
  <path d="M 30.36 38.28 L 30.36 38.00 L 33.19 34.70 L 29.97 34.70 L 25.02 35.57 L 16.61 35.57 L 12.91 35.57 L 9.51 34.51" stroke="rgba(255,255,255,0.92)" stroke-width="1.0" fill="none"/>
  <path d="M 24.11 37.22 L 25.23 40.74 L 25.22 46.85 L 23.80 51.32 L 28.36 50.22 L 34.59 49.99 L 41.27 49.99 L 47.24 51.17 L 46.06 48.10 L 44.94 45.19 L 44.96 40.72 L 47.79 37.42 L 44.57 37.42 L 39.62 38.28 L 31.21 38.28 L 27.51 38.28 L 24.11 37.22" stroke="rgba(255,255,255,0.92)" stroke-width="1.0" fill="none"/>
  <path d="M 41.19 33.83 L 42.32 37.35 L 42.32 37.81" stroke="rgba(255,255,255,0.92)" stroke-width="1.0" fill="none"/>
  <path d="M 45.45 46.83 L 51.67 46.60 L 56.78 46.60" stroke="rgba(255,255,255,0.92)" stroke-width="1.0" fill="none"/>
  <path d="M 62.04 38.80 L 62.04 37.33 L 64.87 34.03 L 61.65 34.03 L 56.70 34.89 L 48.29 34.89 L 44.60 34.89 L 41.19 33.83" stroke="rgba(255,255,255,0.92)" stroke-width="1.0" fill="none"/>
  <path d="M 55.67 37.75 L 56.80 41.26 L 56.78 47.37 L 55.37 51.84 L 59.93 50.74 L 66.15 50.51 L 72.83 50.51 L 77.39 51.41" stroke="rgba(255,255,255,0.92)" stroke-width="1.0" fill="none"/>
  <path d="M 78.70 51.41 L 77.62 48.62 L 77.35 47.92" stroke="rgba(255,255,255,0.92)" stroke-width="1.0" fill="none"/>
  <path d="M 74.21 38.28 L 71.18 38.80 L 62.77 38.80 L 59.08 38.80 L 55.67 37.75" stroke="rgba(255,255,255,0.92)" stroke-width="1.0" fill="none"/>
  <path d="M 74.38 33.63 L 74.49 37.32 L 72.77 43.18 L 70.17 47.09 L 74.85 47.30 L 80.90 48.80 L 87.31 50.66 L 88.76 51.41" stroke="rgba(255,255,255,0.92)" stroke-width="1.0" fill="none"/>
  <path d="M 92.55 51.41 L 92.44 50.18 L 92.18 47.07 L 93.44 42.79 L 97.07 40.40 L 93.98 39.51 L 88.98 38.96 L 80.91 36.62 L 77.36 35.59 L 74.38 33.63" stroke="rgba(255,255,255,0.92)" stroke-width="1.0" fill="none"/>
  <path d="M 0.00 19.29 L 26.17 19.29" stroke="rgba(255,255,255,0.92)" stroke-width="1.0" fill="none"/>
  <path d="M 26.17 19.29 L 96.66 19.29" stroke="rgba(255,255,255,0.92)" stroke-width="1.0" fill="none"/>
  <path d="M 4.85 24.14 L 17.78 24.14" stroke="rgba(255,255,255,0.92)" stroke-width="1.0" fill="none"/>
  <path d="M 39.19 24.14 L 43.10 24.14" stroke="rgba(255,255,255,0.92)" stroke-width="1.0" fill="none"/>
  <path d="M 64.66 24.14 L 92.14 24.14" stroke="rgba(255,255,255,0.92)" stroke-width="1.0" fill="none"/>
  <path d="M 3.23 51.62 L 26.17 51.62" stroke="rgba(255,255,255,0.92)" stroke-width="1.0" fill="none"/>
  <path d="M 26.17 51.62 L 64.66 51.62" stroke="rgba(255,255,255,0.92)" stroke-width="1.0" fill="none"/>
  <path d="M 0.00 48.38 A 3.23 3.23 0 0 1 3.23 45.15" stroke="rgba(255,255,255,0.92)" stroke-width="1.0" fill="none"/>
  <path d="M 0.00 19.29 L 0.00 48.38" stroke="rgba(255,255,255,0.92)" stroke-width="1.0" fill="none"/>
  <path d="M 4.85 19.29 L 4.85 46.77" stroke="rgba(255,255,255,0.92)" stroke-width="1.0" fill="none"/>
  <path d="M 64.66 19.29 L 64.66 77.48" stroke="rgba(255,255,255,0.92)" stroke-width="1.0" fill="none"/>
  <path d="M 96.98 19.61 L 96.98 77.48" stroke="rgba(255,255,255,0.92)" stroke-width="1.0" fill="none"/>
  <path d="M 92.14 19.61 L 92.14 56.75" stroke="rgba(255,255,255,0.92)" stroke-width="1.0" fill="none"/>
  <path d="M 92.14 56.75 A 1.29 1.29 0 0 1 93.43 55.46" stroke="rgba(255,255,255,0.92)" stroke-width="1.0" fill="none"/>
  <path d="M 96.98 19.61 A 0.32 0.32 0 0 1 96.66 19.93" stroke="rgba(255,255,255,0.92)" stroke-width="1.0" fill="none"/>
  <path d="M 93.75 80.71 L 67.89 80.71" stroke="rgba(255,255,255,0.92)" stroke-width="1.0" fill="none"/>
  <path d="M 93.75 74.25 A 3.23 3.23 0 0 1 96.98 77.48" stroke="rgba(255,255,255,0.92)" stroke-width="1.0" fill="none"/>
  <path d="M 64.66 77.48 A 3.23 3.23 0 0 1 67.89 74.25" stroke="rgba(255,255,255,0.92)" stroke-width="1.0" fill="none"/>
  <path d="M 11.16 29.98 L 5.98 28.14 L 8.31 34.26 L 8.31 40.07 L 7.02 44.19 L 12.14 42.97 L 24.24 41.52 L 29.30 43.54" stroke="rgba(255,255,255,0.92)" stroke-width="1.0" fill="none"/>
  <path d="M 28.45 30.72 L 21.75 30.38 L 11.16 29.98" stroke="rgba(255,255,255,0.92)" stroke-width="1.0" fill="none"/>
  <path d="M 21.98 23.40 L 16.80 21.56 L 19.12 27.68 L 19.12 30.28" stroke="rgba(255,255,255,0.92)" stroke-width="1.0" fill="none"/>
  <path d="M 42.51 31.20 L 43.41 28.47 L 44.08 27.63" stroke="rgba(255,255,255,0.92)" stroke-width="1.0" fill="none"/>
  <path d="M 43.08 24.08 L 41.00 24.23 L 32.57 23.80 L 21.98 23.40" stroke="rgba(255,255,255,0.92)" stroke-width="1.0" fill="none"/>
  <path d="M 32.98 30.84 L 27.79 29.00 L 30.12 35.12 L 30.12 40.93 L 28.83 45.05 L 33.95 43.83 L 46.05 42.38 L 53.07 45.18 L 52.95 40.35 L 54.41 35.91 L 58.16 31.23 L 52.00 31.67 L 43.57 31.24 L 32.98 30.84" stroke="rgba(255,255,255,0.92)" stroke-width="1.0" fill="none"/>
  <path d="M 46.94 22.42 L 41.75 20.59 L 44.08 26.71 L 44.08 31.26" stroke="rgba(255,255,255,0.92)" stroke-width="1.0" fill="none"/>
  <path d="M 55.53 34.50 L 60.01 33.97 L 67.03 36.77 L 66.91 31.93" stroke="rgba(255,255,255,0.92)" stroke-width="1.0" fill="none"/>
  <path d="M 67.85 29.06 L 68.37 27.50 L 72.12 22.82 L 65.96 23.26 L 57.53 22.83 L 46.94 22.42" stroke="rgba(255,255,255,0.92)" stroke-width="1.0" fill="none"/>
  <path d="M 80.22 30.73 L 81.28 25.33 L 75.56 28.53 L 69.81 29.37 L 65.56 28.70 L 67.51 33.59 L 70.71 45.35 L 68.96 52.70 L 73.73 51.87 L 78.34 52.67 L 83.51 55.69 L 82.18 49.66 L 81.37 41.26 L 80.22 30.73" stroke="rgba(255,255,255,0.92)" stroke-width="1.0" fill="none"/>
  <path d="M 90.58 43.31 L 91.64 37.91 L 85.92 41.11 L 81.42 41.77" stroke="rgba(255,255,255,0.92)" stroke-width="1.0" fill="none"/>
  <path d="M 79.89 53.57 L 81.07 57.93 L 79.33 65.28 L 84.09 64.45 L 88.70 65.25 L 93.88 68.27 L 92.54 62.24 L 91.73 53.84 L 90.58 43.31" stroke="rgba(255,255,255,0.92)" stroke-width="1.0" fill="none"/>
  <path d="M 4.85 46.77 L 0.00 46.77" stroke="rgba(255,255,255,0.92)" stroke-width="1.0" fill="none"/>
  <path d="M 93.43 58.04 L 96.98 58.04" stroke="rgba(255,255,255,0.92)" stroke-width="1.0" fill="none"/>
</svg>
