<svg xmlns="http://www.w3.org/2000/svg" viewBox="0 0 100.00 61.42" data-cad-width="3093.3" data-cad-height="1900.0">
  <path d="M 84.39 37.46 L 84.39 36.82" stroke="rgba(255,255,255,0.92)" stroke-width="1.0" fill="none"/>
  <path d="M 79.87 42.80 L 79.87 38.75" stroke="rgba(255,255,255,0.92)" stroke-width="1.0" fill="none"/>
  <path d="M 79.22 42.80 L 79.22 38.75" stroke="rgba(255,255,255,0.92)" stroke-width="1.0" fill="none"/>
  <path d="M 22.97 37.46 L 22.97 20.17" stroke="rgba(255,255,255,0.92)" stroke-width="1.0" fill="none"/>
  <path d="M 23.62 20.81 A 0.65 0.65 0 0 1 22.97 20.17" stroke="rgba(255,255,255,0.92)" stroke-width="1.0" fill="none"/>
  <path d="M 28.14 38.75 L 28.14 42.80" stroke="rgba(255,255,255,0.92)" stroke-width="1.0" fill="none"/>
  <path d="M 27.50 38.75 L 27.50 42.80" stroke="rgba(255,255,255,0.92)" stroke-width="1.0" fill="none"/>
  <path d="M 24.26 35.52 L 83.10 35.52" stroke="rgba(255,255,255,0.92)" stroke-width="1.0" fill="none"/>
  <path d="M 49.80 19.52 L 23.62 19.52" stroke="rgba(255,255,255,0.92)" stroke-width="1.0" fill="none"/>
  <path d="M 50.77 42.80 L 50.77 38.75" stroke="rgba(255,255,255,0.92)" stroke-width="1.0" fill="none"/>
  <path d="M 50.13 42.80 L 50.13 38.75" stroke="rgba(255,255,255,0.92)" stroke-width="1.0" fill="none"/>
  <path d="M 50.45 35.52 L 50.45 20.17" stroke="rgba(255,255,255,0.92)" stroke-width="1.0" fill="none"/>
  <path d="M 50.45 20.17 A 0.65 0.65 0 0 1 49.80 20.81" stroke="rgba(255,255,255,0.92)" stroke-width="1.0" fill="none"/>
  <path d="M 24.26 38.75 L 54.00 38.75" stroke="rgba(255,255,255,0.92)" stroke-width="1.0" fill="none"/>
  <path d="M 22.97 37.46 L 22.97 36.82" stroke="rgba(255,255,255,0.92)" stroke-width="1.0" fill="none"/>
  <path d="M 22.97 37.46 A 1.29 1.29 0 0 1 24.26 36.17" stroke="rgba(255,255,255,0.92)" stroke-width="1.0" fill="none"/>
  <path d="M 55.30 37.46 L 55.30 36.82" stroke="rgba(255,255,255,0.92)" stroke-width="1.0" fill="none"/>
  <path d="M 54.00 36.17 A 1.29 1.29 0 0 1 55.30 37.46" stroke="rgba(255,255,255,0.92)" stroke-width="1.0" fill="none"/>
  <path d="M 83.10 36.17 A 1.29 1.29 0 0 1 84.39 37.46" stroke="rgba(255,255,255,0.92)" stroke-width="1.0" fill="none"/>
  <path d="M 84.39 36.82 A 1.29 1.29 0 0 1 83.10 38.11" stroke="rgba(255,255,255,0.92)" stroke-width="1.0" fill="none"/>
  <path d="M 56.59 35.52 L 82.78 35.52" stroke="rgba(255,255,255,0.92)" stroke-width="1.0" fill="none"/>
  <path d="M 82.78 32.29 A 1.62 1.62 0 0 1 84.39 33.91" stroke="rgba(255,255,255,0.92)" stroke-width="1.0" fill="none"/>
  <path d="M 54.00 35.52 L 22.97 35.52" stroke="rgba(255,255,255,0.92)" stroke-width="1.0" fill="none"/>
  <path d="M 55.30 36.82 A 1.29 1.29 0 0 1 54.00 38.11" stroke="rgba(255,255,255,0.92)" stroke-width="1.0" fill="none"/>
  <path d="M 61.72 28.01 L 61.72 28.73" stroke="rgba(255,255,255,0.92)" stroke-width="1.0" fill="none"/>
  <path d="M 83.10 38.75 L 24.26 38.75" stroke="rgba(255,255,255,0.92)" stroke-width="1.0" fill="none"/>
  <path d="M 27.50 42.80 L 28.14 42.80" stroke="rgba(255,255,255,0.92)" stroke-width="1.0" fill="none"/>
  <path d="M 28.14 42.80 L 27.50 42.80" stroke="rgba(255,255,255,0.92)" stroke-width="1.0" fill="none"/>
  <path d="M 50.13 42.80 L 50.77 42.80" stroke="rgba(255,255,255,0.92)" stroke-width="1.0" fill="none"/>
  <path d="M 79.22 42.80 L 79.87 42.80" stroke="rgba(255,255,255,0.92)" stroke-width="1.0" fill="none"/>
  <path d="M 50.45 28.73 L 82.78 28.73" stroke="rgba(255,255,255,0.92)" stroke-width="1.0" fill="none"/>
  <path d="M 84.39 33.91 L 84.39 30.35" stroke="rgba(255,255,255,0.92)" stroke-width="1.0" fill="none"/>
  <path d="M 84.39 30.35 A 1.62 1.62 0 0 1 82.78 31.97" stroke="rgba(255,255,255,0.92)" stroke-width="1.0" fill="none"/>
  <path d="M 48.05 17.80 L 48.60 19.52" stroke="rgba(255,255,255,0.92)" stroke-width="1.0" fill="none"/>
  <path d="M 50.45 28.45 L 51.46 28.20 L 56.44 28.01 L 61.78 28.01 L 65.43 28.73" stroke="rgba(255,255,255,0.92)" stroke-width="1.0" fill="none"/>
  <path d="M 66.47 28.73 L 65.62 26.51 L 65.40 25.94" stroke="rgba(255,255,255,0.92)" stroke-width="1.0" fill="none"/>
  <path d="M 62.88 18.23 L 60.46 18.65 L 53.73 18.65 L 50.78 18.65 L 48.05 17.80" stroke="rgba(255,255,255,0.92)" stroke-width="1.0" fill="none"/>
  <path d="M 63.02 14.51 L 63.11 17.46 L 61.73 22.15 L 59.65 25.28 L 63.40 25.45 L 68.23 26.65 L 73.37 28.14 L 74.52 28.73" stroke="rgba(255,255,255,0.92)" stroke-width="1.0" fill="none"/>
  <path d="M 77.55 28.73 L 77.47 27.75 L 77.26 25.26 L 78.27 21.84 L 81.18 19.93 L 78.70 19.21 L 74.70 18.78 L 68.24 16.90 L 65.40 16.08 L 63.02 14.51" stroke="rgba(255,255,255,0.92)" stroke-width="1.0" fill="none"/>
  <path d="M 24.24 16.02 L 25.36 19.53" stroke="rgba(255,255,255,0.92)" stroke-width="1.0" fill="none"/>
  <path d="M 45.09 19.52 L 45.09 19.51 L 47.92 16.21 L 44.70 16.21 L 39.75 17.08 L 31.34 17.08 L 27.64 17.08 L 24.24 16.02" stroke="rgba(255,255,255,0.92)" stroke-width="1.0" fill="none"/>
  <path d="M 100.00 40.85 L 100.00 40.20" stroke="rgba(255,255,255,0.92)" stroke-width="1.0" fill="none"/>
  <path d="M 94.50 42.14 L 94.50 46.18" stroke="rgba(255,255,255,0.92)" stroke-width="1.0" fill="none"/>
  <path d="M 93.86 42.14 L 93.86 46.18" stroke="rgba(255,255,255,0.92)" stroke-width="1.0" fill="none"/>
  <path d="M 3.02 40.85 A 1.29 1.29 0 0 1 4.31 39.56" stroke="rgba(255,255,255,0.92)" stroke-width="1.0" fill="none"/>
  <path d="M 61.53 42.14 L 61.53 46.18" stroke="rgba(255,255,255,0.92)" stroke-width="1.0" fill="none"/>
  <path d="M 67.67 33.41 A 1.29 1.29 0 0 1 66.38 34.71" stroke="rgba(255,255,255,0.92)" stroke-width="1.0" fill="none"/>
  <path d="M 73.17 42.14 L 73.17 46.18" stroke="rgba(255,255,255,0.92)" stroke-width="1.0" fill="none"/>
  <path d="M 67.67 37.29 L 67.67 33.41" stroke="rgba(255,255,255,0.92)" stroke-width="1.0" fill="none"/>
  <path d="M 73.81 42.14 L 73.81 46.18" stroke="rgba(255,255,255,0.92)" stroke-width="1.0" fill="none"/>
  <path d="M 62.18 42.14 L 62.18 46.18" stroke="rgba(255,255,255,0.92)" stroke-width="1.0" fill="none"/>
  <path d="M 3.02 40.85 L 3.02 24.20" stroke="rgba(255,255,255,0.92)" stroke-width="1.0" fill="none"/>
  <path d="M 9.16 42.14 L 9.16 46.18" stroke="rgba(255,255,255,0.92)" stroke-width="1.0" fill="none"/>
  <path d="M 8.51 42.14 L 8.51 46.18" stroke="rgba(255,255,255,0.92)" stroke-width="1.0" fill="none"/>
  <path d="M 4.31 42.14 L 29.19 42.14" stroke="rgba(255,255,255,0.92)" stroke-width="1.0" fill="none"/>
  <path d="M 29.19 42.14 L 66.38 42.14" stroke="rgba(255,255,255,0.92)" stroke-width="1.0" fill="none"/>
  <path d="M 68.96 42.14 L 98.71 42.14" stroke="rgba(255,255,255,0.92)" stroke-width="1.0" fill="none"/>
  <path d="M 3.02 32.12 L 29.19 32.12" stroke="rgba(255,255,255,0.92)" stroke-width="1.0" fill="none"/>
  <path d="M 29.19 32.12 L 66.38 32.12" stroke="rgba(255,255,255,0.92)" stroke-width="1.0" fill="none"/>
  <path d="M 4.31 38.91 L 29.19 38.91" stroke="rgba(255,255,255,0.92)" stroke-width="1.0" fill="none"/>
  <path d="M 29.19 38.91 L 66.38 38.91" stroke="rgba(255,255,255,0.92)" stroke-width="1.0" fill="none"/>
  <path d="M 68.96 38.91 L 98.71 38.91" stroke="rgba(255,255,255,0.92)" stroke-width="1.0" fill="none"/>
  <path d="M 4.31 38.59 L 29.19 38.59" stroke="rgba(255,255,255,0.92)" stroke-width="1.0" fill="none"/>
  <path d="M 29.19 38.59 L 66.38 38.59" stroke="rgba(255,255,255,0.92)" stroke-width="1.0" fill="none"/>
  <path d="M 3.02 37.29 A 1.29 1.29 0 0 1 4.31 36.00" stroke="rgba(255,255,255,0.92)" stroke-width="1.0" fill="none"/>
  <path d="M 3.02 40.20 L 3.02 40.85" stroke="rgba(255,255,255,0.92)" stroke-width="1.0" fill="none"/>
  <path d="M 4.31 41.49 A 1.29 1.29 0 0 1 3.02 40.20" stroke="rgba(255,255,255,0.92)" stroke-width="1.0" fill="none"/>
  <path d="M 3.02 33.41 L 3.02 37.29" stroke="rgba(255,255,255,0.92)" stroke-width="1.0" fill="none"/>
  <path d="M 66.38 39.56 A 1.29 1.29 0 0 1 67.67 40.85" stroke="rgba(255,255,255,0.92)" stroke-width="1.0" fill="none"/>
  <path d="M 67.67 40.85 L 67.67 40.20" stroke="rgba(255,255,255,0.92)" stroke-width="1.0" fill="none"/>
  <path d="M 67.67 40.20 A 1.29 1.29 0 0 1 66.38 41.49" stroke="rgba(255,255,255,0.92)" stroke-width="1.0" fill="none"/>
  <path d="M 68.96 38.91 L 98.71 38.91" stroke="rgba(255,255,255,0.92)" stroke-width="1.0" fill="none"/>
  <path d="M 68.96 42.14 L 98.71 42.14" stroke="rgba(255,255,255,0.92)" stroke-width="1.0" fill="none"/>
  <path d="M 68.96 41.49 A 1.29 1.29 0 0 1 67.67 40.20" stroke="rgba(255,255,255,0.92)" stroke-width="1.0" fill="none"/>
  <path d="M 67.67 40.85 A 1.29 1.29 0 0 1 68.96 39.56" stroke="rgba(255,255,255,0.92)" stroke-width="1.0" fill="none"/>
  <path d="M 100.00 40.85 L 100.00 40.20" stroke="rgba(255,255,255,0.92)" stroke-width="1.0" fill="none"/>
  <path d="M 98.71 39.56 A 1.29 1.29 0 0 1 100.00 40.85" stroke="rgba(255,255,255,0.92)" stroke-width="1.0" fill="none"/>
  <path d="M 100.00 40.20 A 1.29 1.29 0 0 1 98.71 41.49" stroke="rgba(255,255,255,0.92)" stroke-width="1.0" fill="none"/>
  <path d="M 100.00 37.29 L 100.00 24.20" stroke="rgba(255,255,255,0.92)" stroke-width="1.0" fill="none"/>
  <path d="M 98.71 36.00 A 1.29 1.29 0 0 1 100.00 37.29" stroke="rgba(255,255,255,0.92)" stroke-width="1.0" fill="none"/>
  <path d="M 8.51 46.18 L 9.16 46.18" stroke="rgba(255,255,255,0.92)" stroke-width="1.0" fill="none"/>
  <path d="M 8.51 46.18 L 9.16 46.18" stroke="rgba(255,255,255,0.92)" stroke-width="1.0" fill="none"/>
  <path d="M 61.53 46.18 L 62.18 46.18" stroke="rgba(255,255,255,0.92)" stroke-width="1.0" fill="none"/>
  <path d="M 73.17 46.18 L 73.81 46.18" stroke="rgba(255,255,255,0.92)" stroke-width="1.0" fill="none"/>
  <path d="M 93.86 46.18 L 94.50 46.18" stroke="rgba(255,255,255,0.92)" stroke-width="1.0" fill="none"/>
  <path d="M 4.31 22.91 L 10.62 22.91" stroke="rgba(255,255,255,0.92)" stroke-width="1.0" fill="none"/>
  <path d="M 94.34 22.91 L 98.71 22.91" stroke="rgba(255,255,255,0.92)" stroke-width="1.0" fill="none"/>
  <path d="M 4.31 22.91 L 5.50 22.91" stroke="rgba(255,255,255,0.92)" stroke-width="1.0" fill="none"/>
  <path d="M 6.78 24.03 L 7.86 32.12" stroke="rgba(255,255,255,0.92)" stroke-width="1.0" fill="none"/>
  <path d="M 4.31 25.49 A 1.29 1.29 0 0 1 3.02 24.20" stroke="rgba(255,255,255,0.92)" stroke-width="1.0" fill="none"/>
  <path d="M 6.78 24.37 A 1.29 1.29 0 0 1 5.50 25.49" stroke="rgba(255,255,255,0.92)" stroke-width="1.0" fill="none"/>
  <path d="M 97.50 22.91 L 98.71 22.91" stroke="rgba(255,255,255,0.92)" stroke-width="1.0" fill="none"/>
  <path d="M 96.21 24.03 L 95.15 32.12" stroke="rgba(255,255,255,0.92)" stroke-width="1.0" fill="none"/>
  <path d="M 97.50 25.49 A 1.29 1.29 0 0 1 96.21 24.37" stroke="rgba(255,255,255,0.92)" stroke-width="1.0" fill="none"/>
  <path d="M 100.00 24.20 A 1.29 1.29 0 0 1 98.71 25.49" stroke="rgba(255,255,255,0.92)" stroke-width="1.0" fill="none"/>
  <path d="M 68.96 32.12 L 100.00 32.12" stroke="rgba(255,255,255,0.92)" stroke-width="1.0" fill="none"/>
  <path d="M 66.38 36.00 A 1.29 1.29 0 0 1 67.67 37.29" stroke="rgba(255,255,255,0.92)" stroke-width="1.0" fill="none"/>
  <path d="M 68.96 38.59 L 98.71 38.59" stroke="rgba(255,255,255,0.92)" stroke-width="1.0" fill="none"/>
  <path d="M 67.67 37.29 A 1.29 1.29 0 0 1 68.96 36.00" stroke="rgba(255,255,255,0.92)" stroke-width="1.0" fill="none"/>
  <path d="M 68.96 34.71 A 1.29 1.29 0 0 1 67.67 33.41" stroke="rgba(255,255,255,0.92)" stroke-width="1.0" fill="none"/>
  <path d="M 9.51 15.22 L 9.64 19.19 L 10.62 24.84 L 8.94 30.60 L 13.98 29.77 L 19.79 29.14 L 24.99 28.26" stroke="rgba(255,255,255,0.92)" stroke-width="1.0" fill="none"/>
  <path d="M 30.36 18.99 L 30.36 18.71 L 33.19 15.42 L 29.97 15.42 L 25.02 16.28 L 16.61 16.28 L 12.91 16.28 L 9.51 15.22" stroke="rgba(255,255,255,0.92)" stroke-width="1.0" fill="none"/>
  <path d="M 24.11 17.94 L 25.23 21.45 L 25.22 27.56 L 23.80 32.03 L 28.36 30.93 L 34.59 30.70 L 41.27 30.70 L 47.24 31.88 L 46.06 28.81 L 44.94 25.90 L 44.96 21.43 L 47.79 18.13 L 44.57 18.13 L 39.62 18.99 L 31.21 18.99 L 27.51 18.99 L 24.11 17.94" stroke="rgba(255,255,255,0.92)" stroke-width="1.0" fill="none"/>
  <path d="M 41.19 14.55 L 42.32 18.06 L 42.32 18.52" stroke="rgba(255,255,255,0.92)" stroke-width="1.0" fill="none"/>
  <path d="M 45.45 27.54 L 51.67 27.31 L 56.78 27.31" stroke="rgba(255,255,255,0.92)" stroke-width="1.0" fill="none"/>
  <path d="M 62.04 19.52 L 62.04 18.04 L 64.87 14.74 L 61.65 14.74 L 56.70 15.60 L 48.29 15.60 L 44.60 15.60 L 41.19 14.55" stroke="rgba(255,255,255,0.92)" stroke-width="1.0" fill="none"/>
  <path d="M 55.67 18.46 L 56.80 21.97 L 56.78 28.08 L 55.37 32.56 L 59.93 31.46 L 66.15 31.22 L 72.83 31.22 L 77.39 32.12" stroke="rgba(255,255,255,0.92)" stroke-width="1.0" fill="none"/>
  <path d="M 78.70 32.12 L 77.62 29.34 L 77.35 28.63" stroke="rgba(255,255,255,0.92)" stroke-width="1.0" fill="none"/>
  <path d="M 74.21 18.99 L 71.18 19.52 L 62.77 19.52 L 59.08 19.52 L 55.67 18.46" stroke="rgba(255,255,255,0.92)" stroke-width="1.0" fill="none"/>
  <path d="M 74.38 14.34 L 74.49 18.03 L 72.77 23.89 L 70.17 27.80 L 74.85 28.01 L 80.90 29.52 L 87.31 31.37 L 88.76 32.12" stroke="rgba(255,255,255,0.92)" stroke-width="1.0" fill="none"/>
  <path d="M 92.55 32.12 L 92.44 30.90 L 92.18 27.78 L 93.44 23.50 L 97.07 21.12 L 93.98 20.22 L 88.98 19.67 L 80.91 17.33 L 77.36 16.31 L 74.38 14.34" stroke="rgba(255,255,255,0.92)" stroke-width="1.0" fill="none"/>
  <path d="M 0.00 0.00 L 26.17 0.00" stroke="rgba(255,255,255,0.92)" stroke-width="1.0" fill="none"/>
  <path d="M 26.17 0.00 L 96.66 0.00" stroke="rgba(255,255,255,0.92)" stroke-width="1.0" fill="none"/>
  <path d="M 4.85 4.85 L 17.78 4.85" stroke="rgba(255,255,255,0.92)" stroke-width="1.0" fill="none"/>
  <path d="M 39.19 4.85 L 43.10 4.85" stroke="rgba(255,255,255,0.92)" stroke-width="1.0" fill="none"/>
  <path d="M 64.66 4.85 L 92.14 4.85" stroke="rgba(255,255,255,0.92)" stroke-width="1.0" fill="none"/>
  <path d="M 3.23 32.33 L 26.17 32.33" stroke="rgba(255,255,255,0.92)" stroke-width="1.0" fill="none"/>
  <path d="M 26.17 32.33 L 64.66 32.33" stroke="rgba(255,255,255,0.92)" stroke-width="1.0" fill="none"/>
  <path d="M 0.00 29.10 A 3.23 3.23 0 0 1 3.23 25.86" stroke="rgba(255,255,255,0.92)" stroke-width="1.0" fill="none"/>
  <path d="M 0.00 0.00 L 0.00 29.10" stroke="rgba(255,255,255,0.92)" stroke-width="1.0" fill="none"/>
  <path d="M 4.85 0.00 L 4.85 27.48" stroke="rgba(255,255,255,0.92)" stroke-width="1.0" fill="none"/>
  <path d="M 64.66 0.00 L 64.66 58.19" stroke="rgba(255,255,255,0.92)" stroke-width="1.0" fill="none"/>
  <path d="M 96.98 0.32 L 96.98 58.19" stroke="rgba(255,255,255,0.92)" stroke-width="1.0" fill="none"/>
  <path d="M 92.14 0.32 L 92.14 37.46" stroke="rgba(255,255,255,0.92)" stroke-width="1.0" fill="none"/>
  <path d="M 92.14 37.46 A 1.29 1.29 0 0 1 93.43 36.17" stroke="rgba(255,255,255,0.92)" stroke-width="1.0" fill="none"/>
  <path d="M 96.98 0.32 A 0.32 0.32 0 0 1 96.66 0.65" stroke="rgba(255,255,255,0.92)" stroke-width="1.0" fill="none"/>
  <path d="M 93.75 61.42 L 67.89 61.42" stroke="rgba(255,255,255,0.92)" stroke-width="1.0" fill="none"/>
  <path d="M 93.75 54.96 A 3.23 3.23 0 0 1 96.98 58.19" stroke="rgba(255,255,255,0.92)" stroke-width="1.0" fill="none"/>
  <path d="M 64.66 58.19 A 3.23 3.23 0 0 1 67.89 54.96" stroke="rgba(255,255,255,0.92)" stroke-width="1.0" fill="none"/>
  <path d="M 11.16 10.69 L 5.98 8.85 L 8.31 14.98 L 8.31 20.79 L 7.02 24.90 L 12.14 23.68 L 24.24 22.23 L 29.30 24.25" stroke="rgba(255,255,255,0.92)" stroke-width="1.0" fill="none"/>
  <path d="M 28.45 11.43 L 21.75 11.09 L 11.16 10.69" stroke="rgba(255,255,255,0.92)" stroke-width="1.0" fill="none"/>
  <path d="M 21.98 4.11 L 16.80 2.27 L 19.12 8.40 L 19.12 10.99" stroke="rgba(255,255,255,0.92)" stroke-width="1.0" fill="none"/>
  <path d="M 42.51 11.91 L 43.41 9.18 L 44.08 8.34" stroke="rgba(255,255,255,0.92)" stroke-width="1.0" fill="none"/>
  <path d="M 43.08 4.79 L 41.00 4.94 L 32.57 4.51 L 21.98 4.11" stroke="rgba(255,255,255,0.92)" stroke-width="1.0" fill="none"/>
  <path d="M 32.98 11.55 L 27.79 9.71 L 30.12 15.84 L 30.12 21.65 L 28.83 25.76 L 33.95 24.54 L 46.05 23.09 L 53.07 25.90 L 52.95 21.06 L 54.41 16.62 L 58.16 11.94 L 52.00 12.38 L 43.57 11.95 L 32.98 11.55" stroke="rgba(255,255,255,0.92)" stroke-width="1.0" fill="none"/>
  <path d="M 46.94 3.14 L 41.75 1.30 L 44.08 7.42 L 44.08 11.98" stroke="rgba(255,255,255,0.92)" stroke-width="1.0" fill="none"/>
  <path d="M 55.53 15.22 L 60.01 14.68 L 67.03 17.48 L 66.91 12.65" stroke="rgba(255,255,255,0.92)" stroke-width="1.0" fill="none"/>
  <path d="M 67.85 9.77 L 68.37 8.21 L 72.12 3.53 L 65.96 3.97 L 57.53 3.54 L 46.94 3.14" stroke="rgba(255,255,255,0.92)" stroke-width="1.0" fill="none"/>
  <path d="M 80.22 11.44 L 81.28 6.04 L 75.56 9.24 L 69.81 10.09 L 65.56 9.41 L 67.51 14.30 L 70.71 26.06 L 68.96 33.41 L 73.73 32.58 L 78.34 33.38 L 83.51 36.41 L 82.18 30.38 L 81.37 21.97 L 80.22 11.44" stroke="rgba(255,255,255,0.92)" stroke-width="1.0" fill="none"/>
  <path d="M 90.58 24.02 L 91.64 18.62 L 85.92 21.82 L 81.42 22.48" stroke="rgba(255,255,255,0.92)" stroke-width="1.0" fill="none"/>
  <path d="M 79.89 34.29 L 81.07 38.64 L 79.33 45.99 L 84.09 45.16 L 88.70 45.96 L 93.88 48.99 L 92.54 42.96 L 91.73 34.55 L 90.58 24.02" stroke="rgba(255,255,255,0.92)" stroke-width="1.0" fill="none"/>
  <path d="M 4.85 27.48 L 0.00 27.48" stroke="rgba(255,255,255,0.92)" stroke-width="1.0" fill="none"/>
  <path d="M 93.43 38.75 L 96.98 38.75" stroke="rgba(255,255,255,0.92)" stroke-width="1.0" fill="none"/>
</svg>
