<svg xmlns="http://www.w3.org/2000/svg" viewBox="0 0 100.00 88.79" data-cad-width="1081.8" data-cad-height="960.5">
  <path d="M 49.95 21.49 L 49.95 22.42" stroke="rgba(255,255,255,0.92)" stroke-width="1.0" fill="none"/>
  <path d="M 50.88 21.03 L 50.88 22.88" stroke="rgba(255,255,255,0.92)" stroke-width="1.0" fill="none"/>
  <path d="M 51.80 21.03 L 51.80 22.88" stroke="rgba(255,255,255,0.92)" stroke-width="1.0" fill="none"/>
  <path d="M 54.57 22.88 L 54.57 21.03" stroke="rgba(255,255,255,0.92)" stroke-width="1.0" fill="none"/>
  <path d="M 93.40 21.03 L 93.40 22.88" stroke="rgba(255,255,255,0.92)" stroke-width="1.0" fill="none"/>
  <path d="M 96.17 21.03 L 96.17 22.88" stroke="rgba(255,255,255,0.92)" stroke-width="1.0" fill="none"/>
  <path d="M 97.10 21.03 L 97.10 22.88" stroke="rgba(255,255,255,0.92)" stroke-width="1.0" fill="none"/>
  <path d="M 98.02 21.49 L 98.02 22.42" stroke="rgba(255,255,255,0.92)" stroke-width="1.0" fill="none"/>
  <path d="M 50.88 21.03 L 51.80 21.03" stroke="rgba(255,255,255,0.92)" stroke-width="1.0" fill="none"/>
  <path d="M 96.17 21.03 L 97.10 21.03" stroke="rgba(255,255,255,0.92)" stroke-width="1.0" fill="none"/>
  <path d="M 50.88 22.88 L 51.80 22.88" stroke="rgba(255,255,255,0.92)" stroke-width="1.0" fill="none"/>
  <path d="M 96.17 22.88 L 97.10 22.88" stroke="rgba(255,255,255,0.92)" stroke-width="1.0" fill="none"/>
  <path d="M 27.30 21.95 L 46.72 21.95" stroke="rgba(255,255,255,0.92)" stroke-width="1.0" fill="none"/>
  <path d="M 26.83 21.03 L 47.18 21.03" stroke="rgba(255,255,255,0.92)" stroke-width="1.0" fill="none"/>
  <path d="M 26.01 20.11 L 48.01 20.11" stroke="rgba(255,255,255,0.92)" stroke-width="1.0" fill="none"/>
  <path d="M 46.72 21.95 L 47.18 21.03 L 48.01 20.11 L 48.36 19.18 L 37.00 19.18" stroke="rgba(255,255,255,0.92)" stroke-width="1.0" fill="none"/>
  <path d="M 27.29 21.95 L 26.83 21.03 L 26.00 20.11 L 25.64 19.18 L 37.00 19.18" stroke="rgba(255,255,255,0.92)" stroke-width="1.0" fill="none"/>
  <path d="M 50.88 22.42 L 49.95 22.42" stroke="rgba(255,255,255,0.92)" stroke-width="1.0" fill="none"/>
  <path d="M 51.80 22.42 L 54.57 22.42" stroke="rgba(255,255,255,0.92)" stroke-width="1.0" fill="none"/>
  <path d="M 93.40 22.42 L 96.17 22.42" stroke="rgba(255,255,255,0.92)" stroke-width="1.0" fill="none"/>
  <path d="M 97.10 22.42 L 98.02 22.42" stroke="rgba(255,255,255,0.92)" stroke-width="1.0" fill="none"/>
  <path d="M 50.88 21.49 L 49.95 21.49" stroke="rgba(255,255,255,0.92)" stroke-width="1.0" fill="none"/>
  <path d="M 51.80 21.49 L 54.57 21.49" stroke="rgba(255,255,255,0.92)" stroke-width="1.0" fill="none"/>
  <path d="M 93.40 21.49 L 96.17 21.49" stroke="rgba(255,255,255,0.92)" stroke-width="1.0" fill="none"/>
  <path d="M 97.10 21.49 L 98.02 21.49" stroke="rgba(255,255,255,0.92)" stroke-width="1.0" fill="none"/>
  <path d="M 54.57 21.03 L 93.40 21.03" stroke="rgba(255,255,255,0.92)" stroke-width="1.0" fill="none"/>
  <path d="M 93.40 22.88 L 54.57 22.88" stroke="rgba(255,255,255,0.92)" stroke-width="1.0" fill="none"/>
  <path d="M 83.23 22.88 L 83.23 21.03" stroke="rgba(255,255,255,0.92)" stroke-width="1.0" fill="none"/>
  <path d="M 64.74 21.03 L 64.74 22.88" stroke="rgba(255,255,255,0.92)" stroke-width="1.0" fill="none"/>
  <path d="M 59.66 21.03 L 59.66 22.88" stroke="rgba(255,255,255,0.92)" stroke-width="1.0" fill="none"/>
  <path d="M 60.67 21.03 L 60.67 22.88" stroke="rgba(255,255,255,0.92)" stroke-width="1.0" fill="none"/>
  <path d="M 61.69 21.03 L 61.69 22.88" stroke="rgba(255,255,255,0.92)" stroke-width="1.0" fill="none"/>
  <path d="M 62.71 21.03 L 62.71 22.88" stroke="rgba(255,255,255,0.92)" stroke-width="1.0" fill="none"/>
  <path d="M 63.73 21.03 L 63.73 22.88" stroke="rgba(255,255,255,0.92)" stroke-width="1.0" fill="none"/>
  <path d="M 58.64 21.03 L 58.64 22.88" stroke="rgba(255,255,255,0.92)" stroke-width="1.0" fill="none"/>
  <path d="M 57.62 21.03 L 57.62 22.88" stroke="rgba(255,255,255,0.92)" stroke-width="1.0" fill="none"/>
  <path d="M 56.61 21.03 L 56.61 22.88" stroke="rgba(255,255,255,0.92)" stroke-width="1.0" fill="none"/>
  <path d="M 55.59 21.03 L 55.59 22.88" stroke="rgba(255,255,255,0.92)" stroke-width="1.0" fill="none"/>
  <path d="M 55.08 21.03 L 55.08 22.88" stroke="rgba(255,255,255,0.92)" stroke-width="1.0" fill="none"/>
  <path d="M 56.10 21.03 L 56.10 22.88" stroke="rgba(255,255,255,0.92)" stroke-width="1.0" fill="none"/>
  <path d="M 57.12 21.03 L 57.12 22.88" stroke="rgba(255,255,255,0.92)" stroke-width="1.0" fill="none"/>
  <path d="M 88.31 21.03 L 88.31 22.88" stroke="rgba(255,255,255,0.92)" stroke-width="1.0" fill="none"/>
  <path d="M 87.30 21.03 L 87.30 22.88" stroke="rgba(255,255,255,0.92)" stroke-width="1.0" fill="none"/>
  <path d="M 86.28 21.03 L 86.28 22.88" stroke="rgba(255,255,255,0.92)" stroke-width="1.0" fill="none"/>
  <path d="M 85.26 21.03 L 85.26 22.88" stroke="rgba(255,255,255,0.92)" stroke-width="1.0" fill="none"/>
  <path d="M 84.25 21.03 L 84.25 22.88" stroke="rgba(255,255,255,0.92)" stroke-width="1.0" fill="none"/>
  <path d="M 89.33 21.03 L 89.33 22.88" stroke="rgba(255,255,255,0.92)" stroke-width="1.0" fill="none"/>
  <path d="M 90.35 21.03 L 90.35 22.88" stroke="rgba(255,255,255,0.92)" stroke-width="1.0" fill="none"/>
  <path d="M 91.36 21.03 L 91.36 22.88" stroke="rgba(255,255,255,0.92)" stroke-width="1.0" fill="none"/>
  <path d="M 92.38 21.03 L 92.38 22.88" stroke="rgba(255,255,255,0.92)" stroke-width="1.0" fill="none"/>
  <path d="M 92.89 21.03 L 92.89 22.88" stroke="rgba(255,255,255,0.92)" stroke-width="1.0" fill="none"/>
  <path d="M 91.87 21.03 L 91.87 22.88" stroke="rgba(255,255,255,0.92)" stroke-width="1.0" fill="none"/>
  <path d="M 90.86 21.03 L 90.86 22.88" stroke="rgba(255,255,255,0.92)" stroke-width="1.0" fill="none"/>
  <path d="M 35.16 22.88 L 35.18 22.76 L 35.24 22.64 L 35.34 22.53 L 35.47 22.42 L 35.64 22.32 L 35.84 22.23 L 36.07 22.15 L 36.32 22.08 L 36.59 22.03 L 36.87 21.99 L 37.17 21.96 L 37.47 21.95 L 37.77 21.96 L 38.07 21.99 L 38.36 22.03 L 38.63 22.08 L 38.88 22.15 L 39.11 22.23 L 39.31 22.32 L 39.47 22.42 L 39.61 22.53 L 39.70 22.64 L 39.76 22.76 L 39.78 22.88 L 39.76 23.00 L 39.70 23.12 L 39.61 23.23 L 39.47 23.34 L 39.31 23.44 L 39.11 23.53 L 38.88 23.61 L 38.63 23.68 L 38.36 23.73 L 38.07 23.77 L 37.77 23.80 L 37.47 23.80 L 37.17 23.80 L 36.87 23.77 L 36.59 23.73 L 36.32 23.68 L 36.07 23.61 L 35.84 23.53 L 35.64 23.44 L 35.47 23.34 L 35.34 23.23 L 35.24 23.12 L 35.18 23.00 L 35.16 22.88" stroke="rgba(255,255,255,0.92)" stroke-width="1.0" fill="none"/>
  <path d="M 97.56 22.88 L 37.51 23.80" stroke="rgba(255,255,255,0.92)" stroke-width="1.0" fill="none"/>
  <path d="M 97.47 21.03 L 97.10 21.04" stroke="rgba(255,255,255,0.92)" stroke-width="1.0" fill="none"/>
  <path d="M 96.17 21.05 L 93.40 21.09" stroke="rgba(255,255,255,0.92)" stroke-width="1.0" fill="none"/>
  <path d="M 49.95 21.76 L 46.95 21.81" stroke="rgba(255,255,255,0.92)" stroke-width="1.0" fill="none"/>
  <path d="M 37.45 21.95 L 37.43 21.96" stroke="rgba(255,255,255,0.92)" stroke-width="1.0" fill="none"/>
  <path d="M 96.17 22.69 L 96.16 22.69 L 96.14 22.68 L 96.13 22.68 L 96.11 22.68 L 96.10 22.67 L 96.08 22.67 L 96.07 22.66 L 96.05 22.66 L 96.04 22.65 L 96.02 22.65 L 96.01 22.64 L 95.99 22.63 L 95.98 22.63 L 95.96 22.62 L 95.95 22.62 L 95.94 22.61 L 95.92 22.61 L 95.91 22.60 L 95.90 22.60 L 95.88 22.59 L 95.87 22.59 L 95.86 22.58 L 95.84 22.57 L 95.83 22.57 L 95.82 22.56 L 95.80 22.56 L 95.79 22.55 L 95.78 22.54 L 95.77 22.54 L 95.75 22.53 L 95.74 22.53 L 95.73 22.52 L 95.72 22.51 L 95.71 22.51 L 95.70 22.50 L 95.68 22.50 L 95.67 22.49 L 95.66 22.48 L 95.65 22.48 L 95.64 22.47 L 95.63 22.46 L 95.62 22.46 L 95.61 22.45 L 95.60 22.44 L 95.59 22.44 L 95.58 22.43 L 95.57 22.42 L 95.56 22.42" stroke="rgba(255,255,255,0.92)" stroke-width="1.0" fill="none"/>
  <path d="M 95.56 21.49 L 95.57 21.49 L 95.58 21.48 L 95.59 21.47 L 95.60 21.47 L 95.61 21.46 L 95.62 21.45 L 95.63 21.45 L 95.64 21.44 L 95.65 21.43 L 95.66 21.43 L 95.67 21.42 L 95.68 21.41 L 95.70 21.41 L 95.71 21.40 L 95.72 21.40 L 95.73 21.39 L 95.74 21.38 L 95.75 21.38 L 95.77 21.37 L 95.78 21.36 L 95.79 21.36 L 95.80 21.35 L 95.82 21.35 L 95.83 21.34 L 95.84 21.34 L 95.86 21.33 L 95.87 21.32 L 95.88 21.32 L 95.90 21.31 L 95.91 21.31 L 95.92 21.30 L 95.94 21.30 L 95.95 21.29 L 95.96 21.29 L 95.98 21.28 L 95.99 21.27 L 96.01 21.27 L 96.02 21.26 L 96.04 21.26 L 96.05 21.25 L 96.07 21.25 L 96.08 21.24 L 96.10 21.24 L 96.11 21.23 L 96.13 21.23 L 96.14 21.22 L 96.16 21.22 L 96.17 21.22" stroke="rgba(255,255,255,0.92)" stroke-width="1.0" fill="none"/>
  <path d="M 97.10 21.05 L 97.26 21.04 L 97.43 21.03 L 97.61 21.03 L 97.78 21.03 L 97.94 21.04 L 98.11 21.06 L 98.28 21.08 L 98.44 21.10 L 98.59 21.13 L 98.74 21.16 L 98.88 21.20 L 99.02 21.24 L 99.15 21.28 L 99.27 21.33 L 99.38 21.38 L 99.48 21.44 L 99.57 21.50 L 99.65 21.56 L 99.71 21.62 L 99.77 21.69 L 99.81 21.75 L 99.84 21.82 L 99.86 21.89 L 99.87 21.95 L 99.86 22.02 L 99.84 22.09 L 99.81 22.16 L 99.77 22.22 L 99.71 22.29 L 99.65 22.35 L 99.57 22.41 L 99.48 22.47 L 99.38 22.52 L 99.27 22.58 L 99.15 22.63 L 99.02 22.67 L 98.88 22.71 L 98.74 22.75 L 98.59 22.78 L 98.44 22.81 L 98.28 22.83 L 98.11 22.85 L 97.94 22.87 L 97.78 22.88 L 97.61 22.88 L 97.43 22.88 L 97.26 22.87 L 97.10 22.86" stroke="rgba(255,255,255,0.92)" stroke-width="1.0" fill="none"/>
  <path d="M 25.64 19.18 L 27.49 19.18" stroke="rgba(255,255,255,0.92)" stroke-width="1.0" fill="none"/>
  <path d="M 26.11 60.78 L 27.03 60.78" stroke="rgba(255,255,255,0.92)" stroke-width="1.0" fill="none"/>
  <path d="M 24.26 73.72 L 24.26 64.48" stroke="rgba(255,255,255,0.92)" stroke-width="1.0" fill="none"/>
  <path d="M 28.88 73.72 L 28.88 64.48" stroke="rgba(255,255,255,0.92)" stroke-width="1.0" fill="none"/>
  <path d="M 24.26 50.45 A 11.87 11.87 0 0 1 28.88 50.45" stroke="rgba(255,255,255,0.92)" stroke-width="1.0" fill="none"/>
  <path d="M 24.26 45.82 A 11.87 11.87 0 0 1 28.88 45.82" stroke="rgba(255,255,255,0.92)" stroke-width="1.0" fill="none"/>
  <path d="M 24.26 46.39 A 11.87 11.87 0 0 1 28.88 46.39" stroke="rgba(255,255,255,0.92)" stroke-width="1.0" fill="none"/>
  <path d="M 24.26 64.48 L 24.28 64.43 L 24.33 64.38 L 24.43 64.34 L 24.57 64.29 L 24.73 64.25 L 24.93 64.22 L 25.16 64.19 L 25.41 64.16 L 25.68 64.14 L 25.97 64.12 L 26.27 64.11 L 26.57 64.11 L 26.87 64.11 L 27.17 64.12 L 27.45 64.14 L 27.72 64.16 L 27.97 64.19 L 28.20 64.22 L 28.40 64.25 L 28.57 64.29 L 28.70 64.34 L 28.80 64.38 L 28.86 64.43 L 28.88 64.48 L 28.86 64.53 L 28.80 64.57 L 28.70 64.62 L 28.57 64.66 L 28.40 64.70 L 28.20 64.74 L 27.97 64.77 L 27.72 64.80 L 27.45 64.82 L 27.17 64.83 L 26.87 64.84 L 26.57 64.85 L 26.27 64.84 L 25.97 64.83 L 25.68 64.82 L 25.41 64.80 L 25.16 64.77 L 24.93 64.74 L 24.73 64.70 L 24.57 64.66 L 24.43 64.62 L 24.33 64.57 L 24.28 64.53 L 24.26 64.48" stroke="rgba(255,255,255,0.92)" stroke-width="1.0" fill="none"/>
  <path d="M 26.11 60.78 L 24.26 64.48" stroke="rgba(255,255,255,0.92)" stroke-width="1.0" fill="none"/>
  <path d="M 27.03 60.78 L 28.88 64.48" stroke="rgba(255,255,255,0.92)" stroke-width="1.0" fill="none"/>
  <path d="M 26.57 60.78 L 27.00 64.12" stroke="rgba(255,255,255,0.92)" stroke-width="1.0" fill="none"/>
  <path d="M 26.27 60.78 L 25.14 64.19" stroke="rgba(255,255,255,0.92)" stroke-width="1.0" fill="none"/>
  <path d="M 27.49 19.18 L 27.49 60.78" stroke="rgba(255,255,255,0.92)" stroke-width="1.0" fill="none"/>
  <path d="M 25.64 19.18 L 25.64 60.78" stroke="rgba(255,255,255,0.92)" stroke-width="1.0" fill="none"/>
  <path d="M 25.64 60.78 L 27.49 60.78" stroke="rgba(255,255,255,0.92)" stroke-width="1.0" fill="none"/>
  <path d="M 26.57 40.44 L 26.51 40.44 L 26.45 40.42 L 26.39 40.39 L 26.34 40.35 L 26.29 40.30 L 26.24 40.24 L 26.20 40.17 L 26.17 40.10 L 26.14 40.01 L 26.12 39.93 L 26.11 39.84 L 26.11 39.75 L 26.11 39.66 L 26.12 39.57 L 26.14 39.48 L 26.17 39.40 L 26.20 39.33 L 26.24 39.26 L 26.29 39.20 L 26.34 39.15 L 26.39 39.11 L 26.45 39.08 L 26.51 39.06 L 26.57 39.06 L 26.63 39.06 L 26.69 39.08 L 26.74 39.11 L 26.80 39.15 L 26.85 39.20 L 26.89 39.26 L 26.93 39.33 L 26.97 39.40 L 26.99 39.48 L 27.01 39.57 L 27.03 39.66 L 27.03 39.75 L 27.03 39.84 L 27.01 39.93 L 26.99 40.01 L 26.97 40.10 L 26.93 40.17 L 26.89 40.24 L 26.85 40.30 L 26.80 40.35 L 26.74 40.39 L 26.69 40.42 L 26.63 40.44 L 26.57 40.44" stroke="rgba(255,255,255,0.92)" stroke-width="1.0" fill="none"/>
  <path d="M 26.57 41.14 L 26.45 41.12 L 26.33 41.09 L 26.21 41.03 L 26.11 40.95 L 26.00 40.85 L 25.91 40.73 L 25.83 40.59 L 25.77 40.44 L 25.71 40.28 L 25.67 40.11 L 25.65 39.93 L 25.64 39.75 L 25.65 39.57 L 25.67 39.39 L 25.71 39.22 L 25.77 39.06 L 25.83 38.91 L 25.91 38.77 L 26.00 38.65 L 26.11 38.55 L 26.21 38.47 L 26.33 38.41 L 26.45 38.37 L 26.57 38.36 L 26.69 38.37 L 26.81 38.41 L 26.92 38.47 L 27.03 38.55 L 27.13 38.65 L 27.22 38.77 L 27.30 38.91 L 27.37 39.06 L 27.42 39.22 L 27.46 39.39 L 27.48 39.57 L 27.49 39.75 L 27.48 39.93 L 27.46 40.11 L 27.42 40.28 L 27.37 40.44 L 27.30 40.59 L 27.22 40.73 L 27.13 40.85 L 27.03 40.95 L 26.92 41.03 L 26.81 41.09 L 26.69 41.12 L 26.57 41.14" stroke="rgba(255,255,255,0.92)" stroke-width="1.0" fill="none"/>
  <path d="M 25.64 38.59 L 26.06 38.59" stroke="rgba(255,255,255,0.92)" stroke-width="1.0" fill="none"/>
  <path d="M 27.08 38.59 L 27.49 38.59" stroke="rgba(255,255,255,0.92)" stroke-width="1.0" fill="none"/>
  <path d="M 25.64 50.61 L 27.49 50.61" stroke="rgba(255,255,255,0.92)" stroke-width="1.0" fill="none"/>
  <path d="M 25.64 55.70 L 27.49 55.70" stroke="rgba(255,255,255,0.92)" stroke-width="1.0" fill="none"/>
  <path d="M 25.64 54.68 L 27.49 54.68" stroke="rgba(255,255,255,0.92)" stroke-width="1.0" fill="none"/>
  <path d="M 25.64 53.66 L 27.49 53.66" stroke="rgba(255,255,255,0.92)" stroke-width="1.0" fill="none"/>
  <path d="M 25.64 52.65 L 27.49 52.65" stroke="rgba(255,255,255,0.92)" stroke-width="1.0" fill="none"/>
  <path d="M 25.64 51.63 L 27.49 51.63" stroke="rgba(255,255,255,0.92)" stroke-width="1.0" fill="none"/>
  <path d="M 25.64 56.71 L 27.49 56.71" stroke="rgba(255,255,255,0.92)" stroke-width="1.0" fill="none"/>
  <path d="M 25.64 57.73 L 27.49 57.73" stroke="rgba(255,255,255,0.92)" stroke-width="1.0" fill="none"/>
  <path d="M 25.64 58.75 L 27.49 58.75" stroke="rgba(255,255,255,0.92)" stroke-width="1.0" fill="none"/>
  <path d="M 25.64 59.76 L 27.49 59.76" stroke="rgba(255,255,255,0.92)" stroke-width="1.0" fill="none"/>
  <path d="M 25.64 60.27 L 27.49 60.27" stroke="rgba(255,255,255,0.92)" stroke-width="1.0" fill="none"/>
  <path d="M 25.64 59.25 L 27.49 59.25" stroke="rgba(255,255,255,0.92)" stroke-width="1.0" fill="none"/>
  <path d="M 25.64 58.24 L 27.49 58.24" stroke="rgba(255,255,255,0.92)" stroke-width="1.0" fill="none"/>
  <path d="M 25.64 29.35 L 27.49 29.35" stroke="rgba(255,255,255,0.92)" stroke-width="1.0" fill="none"/>
  <path d="M 25.64 24.27 L 27.49 24.27" stroke="rgba(255,255,255,0.92)" stroke-width="1.0" fill="none"/>
  <path d="M 25.64 25.28 L 27.49 25.28" stroke="rgba(255,255,255,0.92)" stroke-width="1.0" fill="none"/>
  <path d="M 25.64 26.30 L 27.49 26.30" stroke="rgba(255,255,255,0.92)" stroke-width="1.0" fill="none"/>
  <path d="M 25.64 27.32 L 27.49 27.32" stroke="rgba(255,255,255,0.92)" stroke-width="1.0" fill="none"/>
  <path d="M 25.64 28.33 L 27.49 28.33" stroke="rgba(255,255,255,0.92)" stroke-width="1.0" fill="none"/>
  <path d="M 25.64 23.25 L 27.49 23.25" stroke="rgba(255,255,255,0.92)" stroke-width="1.0" fill="none"/>
  <path d="M 25.64 22.23 L 27.49 22.23" stroke="rgba(255,255,255,0.92)" stroke-width="1.0" fill="none"/>
  <path d="M 25.64 21.22 L 27.49 21.22" stroke="rgba(255,255,255,0.92)" stroke-width="1.0" fill="none"/>
  <path d="M 25.64 20.20 L 27.49 20.20" stroke="rgba(255,255,255,0.92)" stroke-width="1.0" fill="none"/>
  <path d="M 25.64 19.69 L 27.49 19.69" stroke="rgba(255,255,255,0.92)" stroke-width="1.0" fill="none"/>
  <path d="M 25.64 20.71 L 27.49 20.71" stroke="rgba(255,255,255,0.92)" stroke-width="1.0" fill="none"/>
  <path d="M 25.64 21.72 L 27.49 21.72" stroke="rgba(255,255,255,0.92)" stroke-width="1.0" fill="none"/>
  <path d="M 26.57 73.95 L 26.57 87.11" stroke="rgba(255,255,255,0.92)" stroke-width="1.0" fill="none"/>
  <path d="M 27.49 73.91 L 27.49 87.57" stroke="rgba(255,255,255,0.92)" stroke-width="1.0" fill="none"/>
  <path d="M 28.42 73.80 L 28.42 88.40" stroke="rgba(255,255,255,0.92)" stroke-width="1.0" fill="none"/>
  <path d="M 26.57 87.11 L 27.49 87.57 L 28.42 88.40 L 29.34 88.75 L 29.34 77.39" stroke="rgba(255,255,255,0.92)" stroke-width="1.0" fill="none"/>
  <path d="M 28.88 66.08 L 29.34 66.03 L 29.34 77.39" stroke="rgba(255,255,255,0.92)" stroke-width="1.0" fill="none"/>
  <path d="M 26.57 77.84 L 26.57 77.82" stroke="rgba(255,255,255,0.92)" stroke-width="1.0" fill="none"/>
  <path d="M 21.95 81.88 L 21.95 70.78" stroke="rgba(255,255,255,0.92)" stroke-width="1.0" fill="none"/>
  <path d="M 26.57 81.88 L 26.57 73.95" stroke="rgba(255,255,255,0.92)" stroke-width="1.0" fill="none"/>
  <path d="M 24.26 71.07 L 24.41 71.07 L 24.56 71.06 L 24.71 71.06 L 24.85 71.06 L 25.00 71.05 L 25.14 71.04 L 25.28 71.04 L 25.41 71.03 L 25.54 71.02 L 25.66 71.01 L 25.78 71.00 L 25.89 70.98 L 25.99 70.97 L 26.09 70.96 L 26.18 70.94 L 26.26 70.92 L 26.33 70.91 L 26.39 70.89 L 26.44 70.87 L 26.49 70.86 L 26.52 70.84 L 26.55 70.82 L 26.56 70.80 L 26.57 70.78 L 26.56 70.76 L 26.55 70.75 L 26.52 70.73 L 26.49 70.71 L 26.44 70.69 L 26.39 70.68 L 26.33 70.66 L 26.26 70.64 L 26.18 70.63 L 26.09 70.61 L 25.99 70.60 L 25.89 70.58 L 25.78 70.57 L 25.66 70.56 L 25.54 70.55 L 25.41 70.54 L 25.28 70.53 L 25.14 70.52 L 25.00 70.52 L 24.85 70.51 L 24.71 70.51 L 24.56 70.50 L 24.41 70.50 L 24.26 70.50" stroke="rgba(255,255,255,0.92)" stroke-width="1.0" fill="none"/>
  <path d="M 21.95 58.60 A 11.87 11.87 0 0 1 26.57 58.60" stroke="rgba(255,255,255,0.92)" stroke-width="1.0" fill="none"/>
  <path d="M 21.95 53.05 A 11.87 11.87 0 0 1 24.72 52.84" stroke="rgba(255,255,255,0.92)" stroke-width="1.0" fill="none"/>
  <path d="M 21.95 53.62 A 11.87 11.87 0 0 1 24.72 53.40" stroke="rgba(255,255,255,0.92)" stroke-width="1.0" fill="none"/>
  <path d="M 24.72 73.80 L 24.72 77.12" stroke="rgba(255,255,255,0.92)" stroke-width="1.0" fill="none"/>
  <path d="M 24.72 77.12 A 0.92 0.92 0 0 1 26.57 77.12" stroke="rgba(255,255,255,0.92)" stroke-width="1.0" fill="none"/>
  <circle cx="48.75" cy="19.41" r="19.41" stroke="rgba(255,255,255,0.92)" stroke-width="1.0" fill="none"/>
  <path d="M 27.49 19.41 A 21.26 21.26 0 0 1 70.01 19.41" stroke="rgba(255,255,255,0.92)" stroke-width="1.0" fill="none"/>
  <path d="M 26.57 19.41 A 22.19 22.19 0 0 1 70.94 19.41" stroke="rgba(255,255,255,0.92)" stroke-width="1.0" fill="none"/>
  <circle cx="48.75" cy="19.41" r="18.49" stroke="rgba(255,255,255,0.92)" stroke-width="1.0" fill="none"/>
  <path d="M 27.49 19.41 L 26.57 19.41" stroke="rgba(255,255,255,0.92)" stroke-width="1.0" fill="none"/>
  <path d="M 70.01 19.41 L 70.94 19.41" stroke="rgba(255,255,255,0.92)" stroke-width="1.0" fill="none"/>
  <path d="M 51.06 50.84 L 51.06 45.30" stroke="rgba(255,255,255,0.92)" stroke-width="1.0" fill="none"/>
  <path d="M 70.01 54.54 L 70.01 45.30" stroke="rgba(255,255,255,0.92)" stroke-width="1.0" fill="none"/>
  <path d="M 74.64 54.54 L 74.64 45.30" stroke="rgba(255,255,255,0.92)" stroke-width="1.0" fill="none"/>
  <path d="M 46.44 50.84 L 46.44 45.30" stroke="rgba(255,255,255,0.92)" stroke-width="1.0" fill="none"/>
  <path d="M 48.29 41.60 L 46.44 45.30" stroke="rgba(255,255,255,0.92)" stroke-width="1.0" fill="none"/>
  <path d="M 49.22 41.60 L 51.06 45.30" stroke="rgba(255,255,255,0.92)" stroke-width="1.0" fill="none"/>
  <path d="M 46.44 22.02 A 11.87 11.87 0 0 1 51.06 22.02" stroke="rgba(255,255,255,0.92)" stroke-width="1.0" fill="none"/>
  <path d="M 46.44 27.57 A 11.87 11.87 0 0 1 51.06 27.57" stroke="rgba(255,255,255,0.92)" stroke-width="1.0" fill="none"/>
  <path d="M 46.44 27.14 A 11.87 11.87 0 0 1 51.06 27.14" stroke="rgba(255,255,255,0.92)" stroke-width="1.0" fill="none"/>
  <path d="M 46.44 22.44 A 11.87 11.87 0 0 1 51.06 22.44" stroke="rgba(255,255,255,0.92)" stroke-width="1.0" fill="none"/>
  <path d="M 51.06 48.99 L 70.01 48.99" stroke="rgba(255,255,255,0.92)" stroke-width="1.0" fill="none"/>
  <path d="M 51.06 47.14 L 70.01 47.14" stroke="rgba(255,255,255,0.92)" stroke-width="1.0" fill="none"/>
  <path d="M 14.55 56.39 L 70.01 50.84" stroke="rgba(255,255,255,0.92)" stroke-width="1.0" fill="none"/>
  <path d="M 14.55 58.24 L 70.01 52.69" stroke="rgba(255,255,255,0.92)" stroke-width="1.0" fill="none"/>
  <path d="M 70.01 31.26 A 11.87 11.87 0 0 1 74.64 31.26" stroke="rgba(255,255,255,0.92)" stroke-width="1.0" fill="none"/>
  <path d="M 70.01 26.64 A 11.87 11.87 0 0 1 74.64 26.64" stroke="rgba(255,255,255,0.92)" stroke-width="1.0" fill="none"/>
  <path d="M 70.01 27.21 A 11.87 11.87 0 0 1 74.64 27.21" stroke="rgba(255,255,255,0.92)" stroke-width="1.0" fill="none"/>
  <path d="M 26.57 21.95 L 26.57 19.18" stroke="rgba(255,255,255,0.92)" stroke-width="1.0" fill="none"/>
  <path d="M 25.64 21.95 L 25.64 19.18" stroke="rgba(255,255,255,0.92)" stroke-width="1.0" fill="none"/>
  <path d="M 24.72 21.26 L 24.72 19.87" stroke="rgba(255,255,255,0.92)" stroke-width="1.0" fill="none"/>
  <path d="M 25.64 19.87 L 24.72 19.87" stroke="rgba(255,255,255,0.92)" stroke-width="1.0" fill="none"/>
  <path d="M 26.57 19.87 L 26.57 19.87" stroke="rgba(255,255,255,0.92)" stroke-width="1.0" fill="none"/>
  <path d="M 27.50 19.87 L 29.34 19.87" stroke="rgba(255,255,255,0.92)" stroke-width="1.0" fill="none"/>
  <path d="M 26.57 19.18 L 25.64 19.18" stroke="rgba(255,255,255,0.92)" stroke-width="1.0" fill="none"/>
  <path d="M 25.64 21.95 L 26.57 21.95" stroke="rgba(255,255,255,0.92)" stroke-width="1.0" fill="none"/>
  <path d="M 25.64 21.26 L 24.72 21.26" stroke="rgba(255,255,255,0.92)" stroke-width="1.0" fill="none"/>
  <path d="M 27.57 21.26 L 29.39 21.26" stroke="rgba(255,255,255,0.92)" stroke-width="1.0" fill="none"/>
  <path d="M 70.94 21.95 L 70.94 19.18" stroke="rgba(255,255,255,0.92)" stroke-width="1.0" fill="none"/>
  <path d="M 71.86 21.95 L 71.86 19.18" stroke="rgba(255,255,255,0.92)" stroke-width="1.0" fill="none"/>
  <path d="M 72.79 21.26 L 72.79 19.87" stroke="rgba(255,255,255,0.92)" stroke-width="1.0" fill="none"/>
  <path d="M 71.86 19.87 L 72.79 19.87" stroke="rgba(255,255,255,0.92)" stroke-width="1.0" fill="none"/>
  <path d="M 70.94 19.87 L 70.93 19.87" stroke="rgba(255,255,255,0.92)" stroke-width="1.0" fill="none"/>
  <path d="M 70.01 19.87 L 68.17 19.87" stroke="rgba(255,255,255,0.92)" stroke-width="1.0" fill="none"/>
  <path d="M 70.94 19.18 L 71.86 19.18" stroke="rgba(255,255,255,0.92)" stroke-width="1.0" fill="none"/>
  <path d="M 71.86 21.95 L 70.94 21.95" stroke="rgba(255,255,255,0.92)" stroke-width="1.0" fill="none"/>
  <path d="M 71.86 21.26 L 72.79 21.26" stroke="rgba(255,255,255,0.92)" stroke-width="1.0" fill="none"/>
  <path d="M 69.93 21.26 L 68.12 21.26" stroke="rgba(255,255,255,0.92)" stroke-width="1.0" fill="none"/>
  <path d="M 9.93 62.69 L 9.93 51.60" stroke="rgba(255,255,255,0.92)" stroke-width="1.0" fill="none"/>
  <path d="M 14.55 62.69 L 14.55 51.60" stroke="rgba(255,255,255,0.92)" stroke-width="1.0" fill="none"/>
  <path d="M 9.93 39.42 A 11.87 11.87 0 0 1 14.55 39.42" stroke="rgba(255,255,255,0.92)" stroke-width="1.0" fill="none"/>
  <path d="M 9.93 33.87 A 11.87 11.87 0 0 1 14.55 33.87" stroke="rgba(255,255,255,0.92)" stroke-width="1.0" fill="none"/>
  <path d="M 9.93 34.44 A 11.87 11.87 0 0 1 14.55 34.44" stroke="rgba(255,255,255,0.92)" stroke-width="1.0" fill="none"/>
  <path d="M 22.62 60.30 A 11.09 11.09 0 1 1 22.86 58.48" stroke="rgba(255,255,255,0.92)" stroke-width="1.0" fill="none"/>
  <path d="M 21.69 60.21 A 10.17 10.17 0 1 1 21.94 58.39" stroke="rgba(255,255,255,0.92)" stroke-width="1.0" fill="none"/>
  <path d="M 21.24 60.11 A 9.71 9.71 0 1 1 21.47 58.37" stroke="rgba(255,255,255,0.92)" stroke-width="1.0" fill="none"/>
  <path d="M 9.93 51.60 L 9.95 51.57 L 10.01 51.53 L 10.10 51.49 L 10.24 51.46 L 10.41 51.43 L 10.60 51.40 L 10.83 51.38 L 11.08 51.36 L 11.35 51.34 L 11.64 51.33 L 11.94 51.32 L 12.24 51.32 L 12.54 51.32 L 12.84 51.33 L 13.12 51.34 L 13.39 51.36 L 13.65 51.38 L 13.87 51.40 L 14.07 51.43 L 14.24 51.46 L 14.37 51.49 L 14.47 51.53 L 14.53 51.57 L 14.55 51.60 L 14.53 51.64 L 14.47 51.67 L 14.37 51.71 L 14.24 51.74 L 14.07 51.77 L 13.87 51.80 L 13.65 51.83 L 13.39 51.85 L 13.12 51.86 L 12.84 51.87 L 12.54 51.88 L 12.24 51.88 L 11.94 51.88 L 11.64 51.87 L 11.35 51.86 L 11.08 51.85 L 10.83 51.83 L 10.60 51.80 L 10.41 51.77 L 10.24 51.74 L 10.10 51.71 L 10.01 51.67 L 9.95 51.64 L 9.93 51.60" stroke="rgba(255,255,255,0.92)" stroke-width="1.0" fill="none"/>
  <circle cx="12.24" cy="49.55" r="0.91" stroke="rgba(255,255,255,0.92)" stroke-width="1.0" fill="none"/>
  <circle cx="12.24" cy="64.75" r="0.91" stroke="rgba(255,255,255,0.92)" stroke-width="1.0" fill="none"/>
  <path d="M 70.01 45.30 L 70.03 45.25 L 70.09 45.20 L 70.19 45.16 L 70.32 45.11 L 70.49 45.07 L 70.69 45.04 L 70.92 45.00 L 71.17 44.98 L 71.44 44.96 L 71.73 44.94 L 72.02 44.93 L 72.33 44.93 L 72.63 44.93 L 72.92 44.94 L 73.21 44.96 L 73.48 44.98 L 73.73 45.00 L 73.96 45.04 L 74.16 45.07 L 74.33 45.11 L 74.46 45.16 L 74.56 45.20 L 74.62 45.25 L 74.64 45.30 L 74.62 45.34 L 74.56 45.39 L 74.46 45.44 L 74.33 45.48 L 74.16 45.52 L 73.96 45.56 L 73.73 45.59 L 73.48 45.61 L 73.21 45.64 L 72.92 45.65 L 72.63 45.66 L 72.33 45.66 L 72.02 45.66 L 71.73 45.65 L 71.44 45.64 L 71.17 45.61 L 70.92 45.59 L 70.69 45.56 L 70.49 45.52 L 70.32 45.48 L 70.19 45.44 L 70.09 45.39 L 70.03 45.34 L 70.01 45.30" stroke="rgba(255,255,255,0.92)" stroke-width="1.0" fill="none"/>
  <path d="M 61.28 5.81 L 41.66 25.20" stroke="rgba(255,255,255,0.92)" stroke-width="1.0" fill="none"/>
  <path d="M 62.57 7.13 L 49.48 20.06" stroke="rgba(255,255,255,0.92)" stroke-width="1.0" fill="none"/>
  <path d="M 62.34 15.15 L 45.35 31.95" stroke="rgba(255,255,255,0.92)" stroke-width="1.0" fill="none"/>
  <path d="M 39.51 9.89 L 30.27 18.86" stroke="rgba(255,255,255,0.92)" stroke-width="1.0" fill="none"/>
  <path d="M 48.75 41.60 L 49.26 45.51" stroke="rgba(255,255,255,0.92)" stroke-width="1.0" fill="none"/>
  <path d="M 48.45 41.60 L 47.19 45.42" stroke="rgba(255,255,255,0.92)" stroke-width="1.0" fill="none"/>
</svg>
