<svg xmlns="http://www.w3.org/2000/svg" viewBox="0 0 100 100" width="100" height="100">
  <path d="M 49.95 27.10 L 49.95 28.02" stroke="rgba(255,255,255,0.92)" stroke-width="1.0" fill="none"/>
  <path d="M 50.88 26.64 L 50.88 28.49" stroke="rgba(255,255,255,0.92)" stroke-width="1.0" fill="none"/>
  <path d="M 51.80 26.64 L 51.80 28.49" stroke="rgba(255,255,255,0.92)" stroke-width="1.0" fill="none"/>
  <path d="M 54.57 28.49 L 54.57 26.64" stroke="rgba(255,255,255,0.92)" stroke-width="1.0" fill="none"/>
  <path d="M 93.40 26.64 L 93.40 28.49" stroke="rgba(255,255,255,0.92)" stroke-width="1.0" fill="none"/>
  <path d="M 96.17 26.64 L 96.17 28.49" stroke="rgba(255,255,255,0.92)" stroke-width="1.0" fill="none"/>
  <path d="M 97.10 26.64 L 97.10 28.49" stroke="rgba(255,255,255,0.92)" stroke-width="1.0" fill="none"/>
  <path d="M 98.02 27.10 L 98.02 28.02" stroke="rgba(255,255,255,0.92)" stroke-width="1.0" fill="none"/>
  <path d="M 50.88 26.64 L 51.80 26.64" stroke="rgba(255,255,255,0.92)" stroke-width="1.0" fill="none"/>
  <path d="M 96.17 26.64 L 97.10 26.64" stroke="rgba(255,255,255,0.92)" stroke-width="1.0" fill="none"/>
  <path d="M 50.88 28.49 L 51.80 28.49" stroke="rgba(255,255,255,0.92)" stroke-width="1.0" fill="none"/>
  <path d="M 96.17 28.49 L 97.10 28.49" stroke="rgba(255,255,255,0.92)" stroke-width="1.0" fill="none"/>
  <path d="M 27.30 27.56 L 46.72 27.56" stroke="rgba(255,255,255,0.92)" stroke-width="1.0" fill="none"/>
  <path d="M 26.83 26.64 L 47.18 26.64" stroke="rgba(255,255,255,0.92)" stroke-width="1.0" fill="none"/>
  <path d="M 26.01 25.71 L 48.01 25.71" stroke="rgba(255,255,255,0.92)" stroke-width="1.0" fill="none"/>
  <path d="M 46.72 27.56 L 47.18 26.64 L 48.01 25.71 L 48.36 24.79 L 37.00 24.79" stroke="rgba(255,255,255,0.92)" stroke-width="1.0" fill="none"/>
  <path d="M 27.29 27.56 L 26.83 26.64 L 26.00 25.71 L 25.64 24.79 L 37.00 24.79" stroke="rgba(255,255,255,0.92)" stroke-width="1.0" fill="none"/>
  <path d="M 50.88 28.02 L 49.95 28.02" stroke="rgba(255,255,255,0.92)" stroke-width="1.0" fill="none"/>
  <path d="M 51.80 28.02 L 54.57 28.02" stroke="rgba(255,255,255,0.92)" stroke-width="1.0" fill="none"/>
  <path d="M 93.40 28.02 L 96.17 28.02" stroke="rgba(255,255,255,0.92)" stroke-width="1.0" fill="none"/>
  <path d="M 97.10 28.02 L 98.02 28.02" stroke="rgba(255,255,255,0.92)" stroke-width="1.0" fill="none"/>
  <path d="M 50.88 27.10 L 49.95 27.10" stroke="rgba(255,255,255,0.92)" stroke-width="1.0" fill="none"/>
  <path d="M 51.80 27.10 L 54.57 27.10" stroke="rgba(255,255,255,0.92)" stroke-width="1.0" fill="none"/>
  <path d="M 93.40 27.10 L 96.17 27.10" stroke="rgba(255,255,255,0.92)" stroke-width="1.0" fill="none"/>
  <path d="M 97.10 27.10 L 98.02 27.10" stroke="rgba(255,255,255,0.92)" stroke-width="1.0" fill="none"/>
  <path d="M 54.57 26.64 L 93.40 26.64" stroke="rgba(255,255,255,0.92)" stroke-width="1.0" fill="none"/>
  <path d="M 93.40 28.49 L 54.57 28.49" stroke="rgba(255,255,255,0.92)" stroke-width="1.0" fill="none"/>
  <path d="M 83.23 28.49 L 83.23 26.64" stroke="rgba(255,255,255,0.92)" stroke-width="1.0" fill="none"/>
  <path d="M 64.74 26.64 L 64.74 28.49" stroke="rgba(255,255,255,0.92)" stroke-width="1.0" fill="none"/>
  <path d="M 59.66 26.64 L 59.66 28.49" stroke="rgba(255,255,255,0.92)" stroke-width="1.0" fill="none"/>
  <path d="M 60.67 26.64 L 60.67 28.49" stroke="rgba(255,255,255,0.92)" stroke-width="1.0" fill="none"/>
  <path d="M 61.69 26.64 L 61.69 28.49" stroke="rgba(255,255,255,0.92)" stroke-width="1.0" fill="none"/>
  <path d="M 62.71 26.64 L 62.71 28.49" stroke="rgba(255,255,255,0.92)" stroke-width="1.0" fill="none"/>
  <path d="M 63.73 26.64 L 63.73 28.49" stroke="rgba(255,255,255,0.92)" stroke-width="1.0" fill="none"/>
  <path d="M 58.64 26.64 L 58.64 28.49" stroke="rgba(255,255,255,0.92)" stroke-width="1.0" fill="none"/>
  <path d="M 57.62 26.64 L 57.62 28.49" stroke="rgba(255,255,255,0.92)" stroke-width="1.0" fill="none"/>
  <path d="M 56.61 26.64 L 56.61 28.49" stroke="rgba(255,255,255,0.92)" stroke-width="1.0" fill="none"/>
  <path d="M 55.59 26.64 L 55.59 28.49" stroke="rgba(255,255,255,0.92)" stroke-width="1.0" fill="none"/>
  <path d="M 55.08 26.64 L 55.08 28.49" stroke="rgba(255,255,255,0.92)" stroke-width="1.0" fill="none"/>
  <path d="M 56.10 26.64 L 56.10 28.49" stroke="rgba(255,255,255,0.92)" stroke-width="1.0" fill="none"/>
  <path d="M 57.12 26.64 L 57.12 28.49" stroke="rgba(255,255,255,0.92)" stroke-width="1.0" fill="none"/>
  <path d="M 88.31 26.64 L 88.31 28.49" stroke="rgba(255,255,255,0.92)" stroke-width="1.0" fill="none"/>
  <path d="M 87.30 26.64 L 87.30 28.49" stroke="rgba(255,255,255,0.92)" stroke-width="1.0" fill="none"/>
  <path d="M 86.28 26.64 L 86.28 28.49" stroke="rgba(255,255,255,0.92)" stroke-width="1.0" fill="none"/>
  <path d="M 85.26 26.64 L 85.26 28.49" stroke="rgba(255,255,255,0.92)" stroke-width="1.0" fill="none"/>
  <path d="M 84.25 26.64 L 84.25 28.49" stroke="rgba(255,255,255,0.92)" stroke-width="1.0" fill="none"/>
  <path d="M 89.33 26.64 L 89.33 28.49" stroke="rgba(255,255,255,0.92)" stroke-width="1.0" fill="none"/>
  <path d="M 90.35 26.64 L 90.35 28.49" stroke="rgba(255,255,255,0.92)" stroke-width="1.0" fill="none"/>
  <path d="M 91.36 26.64 L 91.36 28.49" stroke="rgba(255,255,255,0.92)" stroke-width="1.0" fill="none"/>
  <path d="M 92.38 26.64 L 92.38 28.49" stroke="rgba(255,255,255,0.92)" stroke-width="1.0" fill="none"/>
  <path d="M 92.89 26.64 L 92.89 28.49" stroke="rgba(255,255,255,0.92)" stroke-width="1.0" fill="none"/>
  <path d="M 91.87 26.64 L 91.87 28.49" stroke="rgba(255,255,255,0.92)" stroke-width="1.0" fill="none"/>
  <path d="M 90.86 26.64 L 90.86 28.49" stroke="rgba(255,255,255,0.92)" stroke-width="1.0" fill="none"/>
  <path d="M 35.16 28.49 L 35.18 28.37 L 35.24 28.25 L 35.34 28.13 L 35.47 28.02 L 35.64 27.92 L 35.84 27.83 L 36.07 27.75 L 36.32 27.69 L 36.59 27.63 L 36.87 27.59 L 37.17 27.57 L 37.47 27.56 L 37.77 27.57 L 38.07 27.59 L 38.36 27.63 L 38.63 27.69 L 38.88 27.75 L 39.11 27.83 L 39.31 27.92 L 39.47 28.02 L 39.61 28.13 L 39.70 28.25 L 39.76 28.37 L 39.78 28.49 L 39.76 28.61 L 39.70 28.73 L 39.61 28.84 L 39.47 28.95 L 39.31 29.05 L 39.11 29.14 L 38.88 29.22 L 38.63 29.29 L 38.36 29.34 L 38.07 29.38 L 37.77 29.40 L 37.47 29.41 L 37.17 29.40 L 36.87 29.38 L 36.59 29.34 L 36.32 29.29 L 36.07 29.22 L 35.84 29.14 L 35.64 29.05 L 35.47 28.95 L 35.34 28.84 L 35.24 28.73 L 35.18 28.61 L 35.16 28.49" stroke="rgba(255,255,255,0.92)" stroke-width="1.0" fill="none"/>
  <path d="M 97.56 28.49 L 37.51 29.41" stroke="rgba(255,255,255,0.92)" stroke-width="1.0" fill="none"/>
  <path d="M 97.47 26.64 L 97.10 26.64" stroke="rgba(255,255,255,0.92)" stroke-width="1.0" fill="none"/>
  <path d="M 96.17 26.66 L 93.40 26.70" stroke="rgba(255,255,255,0.92)" stroke-width="1.0" fill="none"/>
  <path d="M 49.95 27.37 L 46.95 27.42" stroke="rgba(255,255,255,0.92)" stroke-width="1.0" fill="none"/>
  <path d="M 37.45 27.56 L 37.43 27.56" stroke="rgba(255,255,255,0.92)" stroke-width="1.0" fill="none"/>
  <path d="M 96.17 28.30 L 96.16 28.30 L 96.14 28.29 L 96.13 28.29 L 96.11 28.28 L 96.10 28.28 L 96.08 28.27 L 96.07 28.27 L 96.05 28.26 L 96.04 28.26 L 96.02 28.25 L 96.01 28.25 L 95.99 28.24 L 95.98 28.24 L 95.96 28.23 L 95.95 28.23 L 95.94 28.22 L 95.92 28.21 L 95.91 28.21 L 95.90 28.20 L 95.88 28.20 L 95.87 28.19 L 95.86 28.19 L 95.84 28.18 L 95.83 28.18 L 95.82 28.17 L 95.80 28.16 L 95.79 28.16 L 95.78 28.15 L 95.77 28.15 L 95.75 28.14 L 95.74 28.13 L 95.73 28.13 L 95.72 28.12 L 95.71 28.11 L 95.70 28.11 L 95.68 28.10 L 95.67 28.10 L 95.66 28.09 L 95.65 28.08 L 95.64 28.08 L 95.63 28.07 L 95.62 28.06 L 95.61 28.06 L 95.60 28.05 L 95.59 28.04 L 95.58 28.04 L 95.57 28.03 L 95.56 28.02" stroke="rgba(255,255,255,0.92)" stroke-width="1.0" fill="none"/>
  <path d="M 95.56 27.10 L 95.57 27.09 L 95.58 27.09 L 95.59 27.08 L 95.60 27.07 L 95.61 27.07 L 95.62 27.06 L 95.63 27.05 L 95.64 27.05 L 95.65 27.04 L 95.66 27.03 L 95.67 27.03 L 95.68 27.02 L 95.70 27.02 L 95.71 27.01 L 95.72 27.00 L 95.73 27.00 L 95.74 26.99 L 95.75 26.98 L 95.77 26.98 L 95.78 26.97 L 95.79 26.97 L 95.80 26.96 L 95.82 26.95 L 95.83 26.95 L 95.84 26.94 L 95.86 26.94 L 95.87 26.93 L 95.88 26.93 L 95.90 26.92 L 95.91 26.91 L 95.92 26.91 L 95.94 26.90 L 95.95 26.90 L 95.96 26.89 L 95.98 26.89 L 95.99 26.88 L 96.01 26.88 L 96.02 26.87 L 96.04 26.87 L 96.05 26.86 L 96.07 26.86 L 96.08 26.85 L 96.10 26.85 L 96.11 26.84 L 96.13 26.84 L 96.14 26.83 L 96.16 26.83 L 96.17 26.82" stroke="rgba(255,255,255,0.92)" stroke-width="1.0" fill="none"/>
  <path d="M 97.10 26.66 L 97.26 26.65 L 97.43 26.64 L 97.61 26.64 L 97.78 26.64 L 97.94 26.65 L 98.11 26.66 L 98.28 26.68 L 98.44 26.71 L 98.59 26.73 L 98.74 26.77 L 98.88 26.80 L 99.02 26.85 L 99.15 26.89 L 99.27 26.94 L 99.38 26.99 L 99.48 27.05 L 99.57 27.11 L 99.65 27.17 L 99.71 27.23 L 99.77 27.29 L 99.81 27.36 L 99.84 27.43 L 99.86 27.49 L 99.87 27.56 L 99.86 27.63 L 99.84 27.70 L 99.81 27.77 L 99.77 27.83 L 99.71 27.90 L 99.65 27.96 L 99.57 28.02 L 99.48 28.08 L 99.38 28.13 L 99.27 28.18 L 99.15 28.23 L 99.02 28.28 L 98.88 28.32 L 98.74 28.36 L 98.59 28.39 L 98.44 28.42 L 98.28 28.44 L 98.11 28.46 L 97.94 28.47 L 97.78 28.48 L 97.61 28.49 L 97.43 28.48 L 97.26 28.48 L 97.10 28.47" stroke="rgba(255,255,255,0.92)" stroke-width="1.0" fill="none"/>
  <path d="M 25.64 24.79 L 27.49 24.79" stroke="rgba(255,255,255,0.92)" stroke-width="1.0" fill="none"/>
  <path d="M 26.11 66.39 L 27.03 66.39" stroke="rgba(255,255,255,0.92)" stroke-width="1.0" fill="none"/>
  <path d="M 24.26 79.33 L 24.26 70.08" stroke="rgba(255,255,255,0.92)" stroke-width="1.0" fill="none"/>
  <path d="M 28.88 79.33 L 28.88 70.08" stroke="rgba(255,255,255,0.92)" stroke-width="1.0" fill="none"/>
  <path d="M 24.26 56.05 A 11.87 11.87 0 0 1 28.88 56.05" stroke="rgba(255,255,255,0.92)" stroke-width="1.0" fill="none"/>
  <path d="M 24.26 51.43 A 11.87 11.87 0 0 1 28.88 51.43" stroke="rgba(255,255,255,0.92)" stroke-width="1.0" fill="none"/>
  <path d="M 24.26 52.00 A 11.87 11.87 0 0 1 28.88 52.00" stroke="rgba(255,255,255,0.92)" stroke-width="1.0" fill="none"/>
  <path d="M 24.26 70.08 L 24.28 70.04 L 24.33 69.99 L 24.43 69.94 L 24.57 69.90 L 24.73 69.86 L 24.93 69.82 L 25.16 69.79 L 25.41 69.77 L 25.68 69.75 L 25.97 69.73 L 26.27 69.72 L 26.57 69.72 L 26.87 69.72 L 27.17 69.73 L 27.45 69.75 L 27.72 69.77 L 27.97 69.79 L 28.20 69.82 L 28.40 69.86 L 28.57 69.90 L 28.70 69.94 L 28.80 69.99 L 28.86 70.04 L 28.88 70.08 L 28.86 70.13 L 28.80 70.18 L 28.70 70.23 L 28.57 70.27 L 28.40 70.31 L 28.20 70.34 L 27.97 70.38 L 27.72 70.40 L 27.45 70.42 L 27.17 70.44 L 26.87 70.45 L 26.57 70.45 L 26.27 70.45 L 25.97 70.44 L 25.68 70.42 L 25.41 70.40 L 25.16 70.38 L 24.93 70.34 L 24.73 70.31 L 24.57 70.27 L 24.43 70.23 L 24.33 70.18 L 24.28 70.13 L 24.26 70.08" stroke="rgba(255,255,255,0.92)" stroke-width="1.0" fill="none"/>
  <path d="M 26.11 66.39 L 24.26 70.08" stroke="rgba(255,255,255,0.92)" stroke-width="1.0" fill="none"/>
  <path d="M 27.03 66.39 L 28.88 70.08" stroke="rgba(255,255,255,0.92)" stroke-width="1.0" fill="none"/>
  <path d="M 26.57 66.39 L 27.00 69.72" stroke="rgba(255,255,255,0.92)" stroke-width="1.0" fill="none"/>
  <path d="M 26.27 66.39 L 25.14 69.80" stroke="rgba(255,255,255,0.92)" stroke-width="1.0" fill="none"/>
  <path d="M 27.49 24.79 L 27.49 66.39" stroke="rgba(255,255,255,0.92)" stroke-width="1.0" fill="none"/>
  <path d="M 25.64 24.79 L 25.64 66.39" stroke="rgba(255,255,255,0.92)" stroke-width="1.0" fill="none"/>
  <path d="M 25.64 66.39 L 27.49 66.39" stroke="rgba(255,255,255,0.92)" stroke-width="1.0" fill="none"/>
  <path d="M 26.57 46.05 L 26.51 46.04 L 26.45 46.03 L 26.39 46.00 L 26.34 45.96 L 26.29 45.91 L 26.24 45.85 L 26.20 45.78 L 26.17 45.70 L 26.14 45.62 L 26.12 45.54 L 26.11 45.45 L 26.11 45.36 L 26.11 45.27 L 26.12 45.18 L 26.14 45.09 L 26.17 45.01 L 26.20 44.93 L 26.24 44.87 L 26.29 44.81 L 26.34 44.76 L 26.39 44.72 L 26.45 44.69 L 26.51 44.67 L 26.57 44.66 L 26.63 44.67 L 26.69 44.69 L 26.74 44.72 L 26.80 44.76 L 26.85 44.81 L 26.89 44.87 L 26.93 44.93 L 26.97 45.01 L 26.99 45.09 L 27.01 45.18 L 27.03 45.27 L 27.03 45.36 L 27.03 45.45 L 27.01 45.54 L 26.99 45.62 L 26.97 45.70 L 26.93 45.78 L 26.89 45.85 L 26.85 45.91 L 26.80 45.96 L 26.74 46.00 L 26.69 46.03 L 26.63 46.04 L 26.57 46.05" stroke="rgba(255,255,255,0.92)" stroke-width="1.0" fill="none"/>
  <path d="M 26.57 46.74 L 26.45 46.73 L 26.33 46.70 L 26.21 46.64 L 26.11 46.56 L 26.00 46.46 L 25.91 46.34 L 25.83 46.20 L 25.77 46.05 L 25.71 45.89 L 25.67 45.72 L 25.65 45.54 L 25.64 45.36 L 25.65 45.18 L 25.67 45.00 L 25.71 44.83 L 25.77 44.66 L 25.83 44.51 L 25.91 44.38 L 26.00 44.26 L 26.11 44.16 L 26.21 44.08 L 26.33 44.02 L 26.45 43.98 L 26.57 43.97 L 26.69 43.98 L 26.81 44.02 L 26.92 44.08 L 27.03 44.16 L 27.13 44.26 L 27.22 44.38 L 27.30 44.51 L 27.37 44.66 L 27.42 44.83 L 27.46 45.00 L 27.48 45.18 L 27.49 45.36 L 27.48 45.54 L 27.46 45.72 L 27.42 45.89 L 27.37 46.05 L 27.30 46.20 L 27.22 46.34 L 27.13 46.46 L 27.03 46.56 L 26.92 46.64 L 26.81 46.70 L 26.69 46.73 L 26.57 46.74" stroke="rgba(255,255,255,0.92)" stroke-width="1.0" fill="none"/>
  <path d="M 25.64 44.20 L 26.06 44.20" stroke="rgba(255,255,255,0.92)" stroke-width="1.0" fill="none"/>
  <path d="M 27.08 44.20 L 27.49 44.20" stroke="rgba(255,255,255,0.92)" stroke-width="1.0" fill="none"/>
  <path d="M 25.64 56.22 L 27.49 56.22" stroke="rgba(255,255,255,0.92)" stroke-width="1.0" fill="none"/>
  <path d="M 25.64 61.30 L 27.49 61.30" stroke="rgba(255,255,255,0.92)" stroke-width="1.0" fill="none"/>
  <path d="M 25.64 60.29 L 27.49 60.29" stroke="rgba(255,255,255,0.92)" stroke-width="1.0" fill="none"/>
  <path d="M 25.64 59.27 L 27.49 59.27" stroke="rgba(255,255,255,0.92)" stroke-width="1.0" fill="none"/>
  <path d="M 25.64 58.25 L 27.49 58.25" stroke="rgba(255,255,255,0.92)" stroke-width="1.0" fill="none"/>
  <path d="M 25.64 57.24 L 27.49 57.24" stroke="rgba(255,255,255,0.92)" stroke-width="1.0" fill="none"/>
  <path d="M 25.64 62.32 L 27.49 62.32" stroke="rgba(255,255,255,0.92)" stroke-width="1.0" fill="none"/>
  <path d="M 25.64 63.34 L 27.49 63.34" stroke="rgba(255,255,255,0.92)" stroke-width="1.0" fill="none"/>
  <path d="M 25.64 64.35 L 27.49 64.35" stroke="rgba(255,255,255,0.92)" stroke-width="1.0" fill="none"/>
  <path d="M 25.64 65.37 L 27.49 65.37" stroke="rgba(255,255,255,0.92)" stroke-width="1.0" fill="none"/>
  <path d="M 25.64 65.88 L 27.49 65.88" stroke="rgba(255,255,255,0.92)" stroke-width="1.0" fill="none"/>
  <path d="M 25.64 64.86 L 27.49 64.86" stroke="rgba(255,255,255,0.92)" stroke-width="1.0" fill="none"/>
  <path d="M 25.64 63.84 L 27.49 63.84" stroke="rgba(255,255,255,0.92)" stroke-width="1.0" fill="none"/>
  <path d="M 25.64 34.96 L 27.49 34.96" stroke="rgba(255,255,255,0.92)" stroke-width="1.0" fill="none"/>
  <path d="M 25.64 29.87 L 27.49 29.87" stroke="rgba(255,255,255,0.92)" stroke-width="1.0" fill="none"/>
  <path d="M 25.64 30.89 L 27.49 30.89" stroke="rgba(255,255,255,0.92)" stroke-width="1.0" fill="none"/>
  <path d="M 25.64 31.91 L 27.49 31.91" stroke="rgba(255,255,255,0.92)" stroke-width="1.0" fill="none"/>
  <path d="M 25.64 32.92 L 27.49 32.92" stroke="rgba(255,255,255,0.92)" stroke-width="1.0" fill="none"/>
  <path d="M 25.64 33.94 L 27.49 33.94" stroke="rgba(255,255,255,0.92)" stroke-width="1.0" fill="none"/>
  <path d="M 25.64 28.86 L 27.49 28.86" stroke="rgba(255,255,255,0.92)" stroke-width="1.0" fill="none"/>
  <path d="M 25.64 27.84 L 27.49 27.84" stroke="rgba(255,255,255,0.92)" stroke-width="1.0" fill="none"/>
  <path d="M 25.64 26.82 L 27.49 26.82" stroke="rgba(255,255,255,0.92)" stroke-width="1.0" fill="none"/>
  <path d="M 25.64 25.81 L 27.49 25.81" stroke="rgba(255,255,255,0.92)" stroke-width="1.0" fill="none"/>
  <path d="M 25.64 25.30 L 27.49 25.30" stroke="rgba(255,255,255,0.92)" stroke-width="1.0" fill="none"/>
  <path d="M 25.64 26.31 L 27.49 26.31" stroke="rgba(255,255,255,0.92)" stroke-width="1.0" fill="none"/>
  <path d="M 25.64 27.33 L 27.49 27.33" stroke="rgba(255,255,255,0.92)" stroke-width="1.0" fill="none"/>
  <path d="M 26.57 79.56 L 26.57 92.71" stroke="rgba(255,255,255,0.92)" stroke-width="1.0" fill="none"/>
  <path d="M 27.49 79.52 L 27.49 93.17" stroke="rgba(255,255,255,0.92)" stroke-width="1.0" fill="none"/>
  <path d="M 28.42 79.41 L 28.42 94.00" stroke="rgba(255,255,255,0.92)" stroke-width="1.0" fill="none"/>
  <path d="M 26.57 92.71 L 27.49 93.17 L 28.42 94.00 L 29.34 94.36 L 29.34 83.00" stroke="rgba(255,255,255,0.92)" stroke-width="1.0" fill="none"/>
  <path d="M 28.88 71.69 L 29.34 71.64 L 29.34 83.00" stroke="rgba(255,255,255,0.92)" stroke-width="1.0" fill="none"/>
  <path d="M 26.57 83.45 L 26.57 83.43" stroke="rgba(255,255,255,0.92)" stroke-width="1.0" fill="none"/>
  <path d="M 21.95 87.48 L 21.95 76.39" stroke="rgba(255,255,255,0.92)" stroke-width="1.0" fill="none"/>
  <path d="M 26.57 87.48 L 26.57 79.56" stroke="rgba(255,255,255,0.92)" stroke-width="1.0" fill="none"/>
  <path d="M 24.26 76.67 L 24.41 76.67 L 24.56 76.67 L 24.71 76.67 L 24.85 76.66 L 25.00 76.66 L 25.14 76.65 L 25.28 76.64 L 25.41 76.64 L 25.54 76.63 L 25.66 76.61 L 25.78 76.60 L 25.89 76.59 L 25.99 76.58 L 26.09 76.56 L 26.18 76.55 L 26.26 76.53 L 26.33 76.52 L 26.39 76.50 L 26.44 76.48 L 26.49 76.46 L 26.52 76.45 L 26.55 76.43 L 26.56 76.41 L 26.57 76.39 L 26.56 76.37 L 26.55 76.35 L 26.52 76.34 L 26.49 76.32 L 26.44 76.30 L 26.39 76.28 L 26.33 76.27 L 26.26 76.25 L 26.18 76.23 L 26.09 76.22 L 25.99 76.20 L 25.89 76.19 L 25.78 76.18 L 25.66 76.17 L 25.54 76.16 L 25.41 76.15 L 25.28 76.14 L 25.14 76.13 L 25.00 76.12 L 24.85 76.12 L 24.71 76.11 L 24.56 76.11 L 24.41 76.11 L 24.26 76.11" stroke="rgba(255,255,255,0.92)" stroke-width="1.0" fill="none"/>
  <path d="M 21.95 64.21 A 11.87 11.87 0 0 1 26.57 64.21" stroke="rgba(255,255,255,0.92)" stroke-width="1.0" fill="none"/>
  <path d="M 21.95 58.66 A 11.87 11.87 0 0 1 24.72 58.44" stroke="rgba(255,255,255,0.92)" stroke-width="1.0" fill="none"/>
  <path d="M 21.95 59.23 A 11.87 11.87 0 0 1 24.72 59.01" stroke="rgba(255,255,255,0.92)" stroke-width="1.0" fill="none"/>
  <path d="M 24.72 79.41 L 24.72 82.72" stroke="rgba(255,255,255,0.92)" stroke-width="1.0" fill="none"/>
  <path d="M 24.72 82.72 A 0.92 0.92 0 0 1 26.57 82.72" stroke="rgba(255,255,255,0.92)" stroke-width="1.0" fill="none"/>
  <circle cx="48.75" cy="25.02" r="19.41" stroke="rgba(255,255,255,0.92)" stroke-width="1.0" fill="none"/>
  <path d="M 27.49 25.02 A 21.26 21.26 0 0 1 70.01 25.02" stroke="rgba(255,255,255,0.92)" stroke-width="1.0" fill="none"/>
  <path d="M 26.57 25.02 A 22.19 22.19 0 0 1 70.94 25.02" stroke="rgba(255,255,255,0.92)" stroke-width="1.0" fill="none"/>
  <circle cx="48.75" cy="25.02" r="18.49" stroke="rgba(255,255,255,0.92)" stroke-width="1.0" fill="none"/>
  <path d="M 27.49 25.02 L 26.57 25.02" stroke="rgba(255,255,255,0.92)" stroke-width="1.0" fill="none"/>
  <path d="M 70.01 25.02 L 70.94 25.02" stroke="rgba(255,255,255,0.92)" stroke-width="1.0" fill="none"/>
  <path d="M 51.06 56.45 L 51.06 50.90" stroke="rgba(255,255,255,0.92)" stroke-width="1.0" fill="none"/>
  <path d="M 70.01 60.15 L 70.01 50.90" stroke="rgba(255,255,255,0.92)" stroke-width="1.0" fill="none"/>
  <path d="M 74.64 60.15 L 74.64 50.90" stroke="rgba(255,255,255,0.92)" stroke-width="1.0" fill="none"/>
  <path d="M 46.44 56.45 L 46.44 50.90" stroke="rgba(255,255,255,0.92)" stroke-width="1.0" fill="none"/>
  <path d="M 48.29 47.21 L 46.44 50.90" stroke="rgba(255,255,255,0.92)" stroke-width="1.0" fill="none"/>
  <path d="M 49.22 47.21 L 51.06 50.90" stroke="rgba(255,255,255,0.92)" stroke-width="1.0" fill="none"/>
  <path d="M 46.44 27.63 A 11.87 11.87 0 0 1 51.06 27.63" stroke="rgba(255,255,255,0.92)" stroke-width="1.0" fill="none"/>
  <path d="M 46.44 33.17 A 11.87 11.87 0 0 1 51.06 33.17" stroke="rgba(255,255,255,0.92)" stroke-width="1.0" fill="none"/>
  <path d="M 46.44 32.75 A 11.87 11.87 0 0 1 51.06 32.75" stroke="rgba(255,255,255,0.92)" stroke-width="1.0" fill="none"/>
  <path d="M 46.44 28.05 A 11.87 11.87 0 0 1 51.06 28.05" stroke="rgba(255,255,255,0.92)" stroke-width="1.0" fill="none"/>
  <path d="M 51.06 54.60 L 70.01 54.60" stroke="rgba(255,255,255,0.92)" stroke-width="1.0" fill="none"/>
  <path d="M 51.06 52.75 L 70.01 52.75" stroke="rgba(255,255,255,0.92)" stroke-width="1.0" fill="none"/>
  <path d="M 14.55 62.00 L 70.01 56.45" stroke="rgba(255,255,255,0.92)" stroke-width="1.0" fill="none"/>
  <path d="M 14.55 63.84 L 70.01 58.30" stroke="rgba(255,255,255,0.92)" stroke-width="1.0" fill="none"/>
  <path d="M 70.01 36.87 A 11.87 11.87 0 0 1 74.64 36.87" stroke="rgba(255,255,255,0.92)" stroke-width="1.0" fill="none"/>
  <path d="M 70.01 32.25 A 11.87 11.87 0 0 1 74.64 32.25" stroke="rgba(255,255,255,0.92)" stroke-width="1.0" fill="none"/>
  <path d="M 70.01 32.82 A 11.87 11.87 0 0 1 74.64 32.82" stroke="rgba(255,255,255,0.92)" stroke-width="1.0" fill="none"/>
  <path d="M 26.57 27.56 L 26.57 24.79" stroke="rgba(255,255,255,0.92)" stroke-width="1.0" fill="none"/>
  <path d="M 25.64 27.56 L 25.64 24.79" stroke="rgba(255,255,255,0.92)" stroke-width="1.0" fill="none"/>
  <path d="M 24.72 26.87 L 24.72 25.48" stroke="rgba(255,255,255,0.92)" stroke-width="1.0" fill="none"/>
  <path d="M 25.64 25.48 L 24.72 25.48" stroke="rgba(255,255,255,0.92)" stroke-width="1.0" fill="none"/>
  <path d="M 26.57 25.48 L 26.57 25.48" stroke="rgba(255,255,255,0.92)" stroke-width="1.0" fill="none"/>
  <path d="M 27.50 25.48 L 29.34 25.48" stroke="rgba(255,255,255,0.92)" stroke-width="1.0" fill="none"/>
  <path d="M 26.57 24.79 L 25.64 24.79" stroke="rgba(255,255,255,0.92)" stroke-width="1.0" fill="none"/>
  <path d="M 25.64 27.56 L 26.57 27.56" stroke="rgba(255,255,255,0.92)" stroke-width="1.0" fill="none"/>
  <path d="M 25.64 26.87 L 24.72 26.87" stroke="rgba(255,255,255,0.92)" stroke-width="1.0" fill="none"/>
  <path d="M 27.57 26.87 L 29.39 26.87" stroke="rgba(255,255,255,0.92)" stroke-width="1.0" fill="none"/>
  <path d="M 70.94 27.56 L 70.94 24.79" stroke="rgba(255,255,255,0.92)" stroke-width="1.0" fill="none"/>
  <path d="M 71.86 27.56 L 71.86 24.79" stroke="rgba(255,255,255,0.92)" stroke-width="1.0" fill="none"/>
  <path d="M 72.79 26.87 L 72.79 25.48" stroke="rgba(255,255,255,0.92)" stroke-width="1.0" fill="none"/>
  <path d="M 71.86 25.48 L 72.79 25.48" stroke="rgba(255,255,255,0.92)" stroke-width="1.0" fill="none"/>
  <path d="M 70.94 25.48 L 70.93 25.48" stroke="rgba(255,255,255,0.92)" stroke-width="1.0" fill="none"/>
  <path d="M 70.01 25.48 L 68.17 25.48" stroke="rgba(255,255,255,0.92)" stroke-width="1.0" fill="none"/>
  <path d="M 70.94 24.79 L 71.86 24.79" stroke="rgba(255,255,255,0.92)" stroke-width="1.0" fill="none"/>
  <path d="M 71.86 27.56 L 70.94 27.56" stroke="rgba(255,255,255,0.92)" stroke-width="1.0" fill="none"/>
  <path d="M 71.86 26.87 L 72.79 26.87" stroke="rgba(255,255,255,0.92)" stroke-width="1.0" fill="none"/>
  <path d="M 69.93 26.87 L 68.12 26.87" stroke="rgba(255,255,255,0.92)" stroke-width="1.0" fill="none"/>
  <path d="M 9.93 68.30 L 9.93 57.21" stroke="rgba(255,255,255,0.92)" stroke-width="1.0" fill="none"/>
  <path d="M 14.55 68.30 L 14.55 57.21" stroke="rgba(255,255,255,0.92)" stroke-width="1.0" fill="none"/>
  <path d="M 9.93 45.03 A 11.87 11.87 0 0 1 14.55 45.03" stroke="rgba(255,255,255,0.92)" stroke-width="1.0" fill="none"/>
  <path d="M 9.93 39.48 A 11.87 11.87 0 0 1 14.55 39.48" stroke="rgba(255,255,255,0.92)" stroke-width="1.0" fill="none"/>
  <path d="M 9.93 40.05 A 11.87 11.87 0 0 1 14.55 40.05" stroke="rgba(255,255,255,0.92)" stroke-width="1.0" fill="none"/>
  <path d="M 22.62 65.91 A 11.09 11.09 0 1 1 22.86 64.09" stroke="rgba(255,255,255,0.92)" stroke-width="1.0" fill="none"/>
  <path d="M 21.69 65.82 A 10.17 10.17 0 1 1 21.94 64.00" stroke="rgba(255,255,255,0.92)" stroke-width="1.0" fill="none"/>
  <path d="M 21.24 65.72 A 9.71 9.71 0 1 1 21.47 63.97" stroke="rgba(255,255,255,0.92)" stroke-width="1.0" fill="none"/>
  <path d="M 9.93 57.21 L 9.95 57.17 L 10.01 57.14 L 10.10 57.10 L 10.24 57.07 L 10.41 57.04 L 10.60 57.01 L 10.83 56.99 L 11.08 56.96 L 11.35 56.95 L 11.64 56.94 L 11.94 56.93 L 12.24 56.93 L 12.54 56.93 L 12.84 56.94 L 13.12 56.95 L 13.39 56.96 L 13.65 56.99 L 13.87 57.01 L 14.07 57.04 L 14.24 57.07 L 14.37 57.10 L 14.47 57.14 L 14.53 57.17 L 14.55 57.21 L 14.53 57.25 L 14.47 57.28 L 14.37 57.32 L 14.24 57.35 L 14.07 57.38 L 13.87 57.41 L 13.65 57.43 L 13.39 57.45 L 13.12 57.47 L 12.84 57.48 L 12.54 57.49 L 12.24 57.49 L 11.94 57.49 L 11.64 57.48 L 11.35 57.47 L 11.08 57.45 L 10.83 57.43 L 10.60 57.41 L 10.41 57.38 L 10.24 57.35 L 10.10 57.32 L 10.01 57.28 L 9.95 57.25 L 9.93 57.21" stroke="rgba(255,255,255,0.92)" stroke-width="1.0" fill="none"/>
  <circle cx="12.24" cy="55.16" r="0.91" stroke="rgba(255,255,255,0.92)" stroke-width="1.0" fill="none"/>
  <circle cx="12.24" cy="70.36" r="0.91" stroke="rgba(255,255,255,0.92)" stroke-width="1.0" fill="none"/>
  <path d="M 70.01 50.90 L 70.03 50.86 L 70.09 50.81 L 70.19 50.76 L 70.32 50.72 L 70.49 50.68 L 70.69 50.64 L 70.92 50.61 L 71.17 50.58 L 71.44 50.56 L 71.73 50.55 L 72.02 50.54 L 72.33 50.54 L 72.63 50.54 L 72.92 50.55 L 73.21 50.56 L 73.48 50.58 L 73.73 50.61 L 73.96 50.64 L 74.16 50.68 L 74.33 50.72 L 74.46 50.76 L 74.56 50.81 L 74.62 50.86 L 74.64 50.90 L 74.62 50.95 L 74.56 51.00 L 74.46 51.04 L 74.33 51.09 L 74.16 51.13 L 73.96 51.16 L 73.73 51.19 L 73.48 51.22 L 73.21 51.24 L 72.92 51.26 L 72.63 51.27 L 72.33 51.27 L 72.02 51.27 L 71.73 51.26 L 71.44 51.24 L 71.17 51.22 L 70.92 51.19 L 70.69 51.16 L 70.49 51.13 L 70.32 51.09 L 70.19 51.04 L 70.09 51.00 L 70.03 50.95 L 70.01 50.90" stroke="rgba(255,255,255,0.92)" stroke-width="1.0" fill="none"/>
  <path d="M 61.28 11.42 L 41.66 30.80" stroke="rgba(255,255,255,0.92)" stroke-width="1.0" fill="none"/>
  <path d="M 62.57 12.74 L 49.48 25.67" stroke="rgba(255,255,255,0.92)" stroke-width="1.0" fill="none"/>
  <path d="M 62.34 20.76 L 45.35 37.56" stroke="rgba(255,255,255,0.92)" stroke-width="1.0" fill="none"/>
  <path d="M 39.51 15.50 L 30.27 24.47" stroke="rgba(255,255,255,0.92)" stroke-width="1.0" fill="none"/>
  <path d="M 48.75 47.21 L 49.26 51.12" stroke="rgba(255,255,255,0.92)" stroke-width="1.0" fill="none"/>
  <path d="M 48.45 47.21 L 47.19 51.03" stroke="rgba(255,255,255,0.92)" stroke-width="1.0" fill="none"/>
</svg>
