<svg xmlns="http://www.w3.org/2000/svg" viewBox="0 0 60.55 100.00" data-cad-width="60.0" data-cad-height="99.1">
  <path d="M 19.95 52.03 L 19.95 25.41" stroke="rgba(255,255,255,0.92)" stroke-width="1.0" fill="none"/>
  <path d="M 40.60 52.03 L 40.60 25.41" stroke="rgba(255,255,255,0.92)" stroke-width="1.0" fill="none"/>
  <path d="M 19.95 52.03 L 19.98 51.36 L 20.04 50.69 L 20.15 50.02 L 20.31 49.36 L 20.50 48.72 L 20.74 48.08 L 21.02 47.47 L 21.34 46.87 L 21.69 46.30 L 22.09 45.75 L 22.52 45.23 L 22.98 44.74 L 23.47 44.27 L 23.99 43.85 L 24.54 43.45 L 25.11 43.10 L 25.71 42.78 L 26.33 42.50 L 26.96 42.26 L 27.60 42.06 L 28.26 41.91 L 28.93 41.80 L 29.60 41.74 L 30.28 41.71 L 30.95 41.74 L 31.62 41.80 L 32.29 41.91 L 32.95 42.06 L 33.59 42.26 L 34.22 42.50 L 34.84 42.78 L 35.44 43.10 L 36.01 43.45 L 36.56 43.85 L 37.08 44.27 L 37.57 44.74 L 38.04 45.23 L 38.46 45.75 L 38.86 46.30 L 39.21 46.87 L 39.53 47.47 L 39.81 48.08 L 40.05 48.72 L 40.24 49.36 L 40.40 50.02 L 40.51 50.69 L 40.57 51.36 L 40.60 52.03" stroke="rgba(255,255,255,0.92)" stroke-width="1.0" fill="none"/>
  <path d="M 40.60 25.41 L 40.57 26.08 L 40.51 26.76 L 40.40 27.42 L 40.24 28.08 L 40.05 28.73 L 39.81 29.36 L 39.53 29.97 L 39.21 30.57 L 38.86 31.14 L 38.46 31.69 L 38.04 32.21 L 37.57 32.71 L 37.08 33.17 L 36.56 33.60 L 36.01 33.99 L 35.44 34.35 L 34.84 34.67 L 34.22 34.94 L 33.59 35.18 L 32.95 35.38 L 32.29 35.53 L 31.62 35.64 L 30.95 35.71 L 30.28 35.73 L 29.60 35.71 L 28.93 35.64 L 28.26 35.53 L 27.60 35.38 L 26.96 35.18 L 26.33 34.94 L 25.71 34.67 L 25.11 34.35 L 24.54 33.99 L 23.99 33.60 L 23.47 33.17 L 22.98 32.71 L 22.52 32.21 L 22.09 31.69 L 21.69 31.14 L 21.34 30.57 L 21.02 29.97 L 20.74 29.36 L 20.50 28.73 L 20.31 28.08 L 20.15 27.42 L 20.04 26.76 L 19.98 26.08 L 19.95 25.41" stroke="rgba(255,255,255,0.92)" stroke-width="1.0" fill="none"/>
  <path d="M 30.28 29.29 L 31.51 29.37 L 32.72 29.61 L 33.88 30.01 L 34.99 30.56 L 36.02 31.24 L 36.94 32.05 L 37.76 32.98 L 38.44 34.01 L 38.99 35.11 L 39.38 36.28 L 39.62 37.49 L 39.70 38.72 L 39.62 39.95 L 39.38 41.16 L 38.99 42.33 L 38.44 43.44 L 37.76 44.46 L 36.94 45.39 L 36.02 46.20 L 34.99 46.89 L 33.88 47.43 L 32.72 47.83 L 31.51 48.07 L 30.28 48.15 L 29.04 48.07 L 27.83 47.83 L 26.67 47.43 L 25.56 46.89 L 24.54 46.20 L 23.61 45.39 L 22.80 44.46 L 22.11 43.44 L 21.56 42.33 L 21.17 41.16 L 20.93 39.95 L 20.85 38.72 L 20.93 37.49 L 21.17 36.28 L 21.56 35.11 L 22.11 34.01 L 22.80 32.98 L 23.61 32.05 L 24.54 31.24 L 25.56 30.56 L 26.67 30.01 L 27.83 29.61 L 29.04 29.37 L 30.28 29.29" stroke="rgba(255,255,255,0.92)" stroke-width="1.0" fill="none"/>
  <path d="M 30.28 52.03 L 30.28 25.41" stroke="rgba(255,255,255,0.92)" stroke-width="1.0" fill="none"/>
  <path d="M 16.96 38.72 L 43.59 38.72" stroke="rgba(255,255,255,0.92)" stroke-width="1.0" fill="none"/>
  <path d="M 30.28 100.00 L 30.28 0.00" stroke="rgba(255,255,255,0.92)" stroke-width="1.0" fill="none"/>
  <path d="M 9.09 70.85 L 30.28 100.00" stroke="rgba(255,255,255,0.92)" stroke-width="1.0" fill="none"/>
  <path d="M 51.33 70.85 L 30.15 100.00" stroke="rgba(255,255,255,0.92)" stroke-width="1.0" fill="none"/>
  <path d="M 30.28 8.45 L 34.23 8.70 L 38.11 9.48 L 41.86 10.75 L 45.41 12.50 L 48.71 14.70 L 51.68 17.31 L 54.29 20.29 L 56.49 23.58 L 58.25 27.14 L 59.52 30.89 L 60.29 34.77 L 60.55 38.72 L 60.29 42.67 L 59.52 46.56 L 58.25 50.31 L 56.49 53.86 L 54.29 57.15 L 51.68 60.13 L 48.71 62.74 L 45.41 64.94 L 41.86 66.69 L 38.11 67.96 L 34.23 68.74 L 30.28 69.00 L 26.32 68.74 L 22.44 67.96 L 18.69 66.69 L 15.14 64.94 L 11.84 62.74 L 8.87 60.13 L 6.26 57.15 L 4.06 53.86 L 2.30 50.31 L 1.03 46.56 L 0.26 42.67 L 0.00 38.72 L 0.26 34.77 L 1.03 30.89 L 2.30 27.14 L 4.06 23.58 L 6.26 20.29 L 8.87 17.31 L 11.84 14.70 L 15.14 12.50 L 18.69 10.75 L 22.44 9.48 L 26.32 8.70 L 30.28 8.45" stroke="rgba(255,255,255,0.92)" stroke-width="1.0" fill="none"/>
  <path d="M 30.28 12.85 L 33.65 13.07 L 36.97 13.73 L 40.18 14.82 L 43.21 16.32 L 46.02 18.20 L 48.57 20.43 L 50.80 22.97 L 52.68 25.79 L 54.18 28.82 L 55.27 32.03 L 55.93 35.34 L 56.15 38.72 L 55.93 42.10 L 55.27 45.42 L 54.18 48.62 L 52.68 51.66 L 50.80 54.47 L 48.57 57.02 L 46.02 59.25 L 43.21 61.13 L 40.18 62.62 L 36.97 63.71 L 33.65 64.37 L 30.28 64.59 L 26.90 64.37 L 23.58 63.71 L 20.37 62.62 L 17.34 61.13 L 14.53 59.25 L 11.98 57.02 L 9.75 54.47 L 7.87 51.66 L 6.37 48.62 L 5.29 45.42 L 4.63 42.10 L 4.40 38.72 L 4.63 35.34 L 5.29 32.03 L 6.37 28.82 L 7.87 25.79 L 9.75 22.97 L 11.98 20.43 L 14.53 18.20 L 17.34 16.32 L 20.37 14.82 L 23.58 13.73 L 26.90 13.07 L 30.28 12.85" stroke="rgba(255,255,255,0.92)" stroke-width="1.0" fill="none"/>
</svg>
