<svg xmlns="http://www.w3.org/2000/svg" viewBox="0 0 100 100" width="100" height="100">
  <path d="M 39.68 52.03 L 39.68 25.41" stroke="rgba(255,255,255,0.92)" stroke-width="1.0" fill="none"/>
  <path d="M 60.32 52.03 L 60.32 25.41" stroke="rgba(255,255,255,0.92)" stroke-width="1.0" fill="none"/>
  <path d="M 39.68 52.03 L 39.70 51.36 L 39.77 50.69 L 39.88 50.02 L 40.03 49.36 L 40.23 48.72 L 40.46 48.08 L 40.74 47.47 L 41.06 46.87 L 41.42 46.30 L 41.81 45.75 L 42.24 45.23 L 42.70 44.74 L 43.19 44.27 L 43.72 43.85 L 44.27 43.45 L 44.84 43.10 L 45.44 42.78 L 46.05 42.50 L 46.68 42.26 L 47.33 42.06 L 47.99 41.91 L 48.65 41.80 L 49.32 41.74 L 50.00 41.71 L 50.68 41.74 L 51.35 41.80 L 52.01 41.91 L 52.67 42.06 L 53.32 42.26 L 53.95 42.50 L 54.56 42.78 L 55.16 43.10 L 55.73 43.45 L 56.28 43.85 L 56.81 44.27 L 57.30 44.74 L 57.76 45.23 L 58.19 45.75 L 58.58 46.30 L 58.94 46.87 L 59.26 47.47 L 59.54 48.08 L 59.77 48.72 L 59.97 49.36 L 60.12 50.02 L 60.23 50.69 L 60.30 51.36 L 60.32 52.03" stroke="rgba(255,255,255,0.92)" stroke-width="1.0" fill="none"/>
  <path d="M 60.32 25.41 L 60.30 26.08 L 60.23 26.76 L 60.12 27.42 L 59.97 28.08 L 59.77 28.73 L 59.54 29.36 L 59.26 29.97 L 58.94 30.57 L 58.58 31.14 L 58.19 31.69 L 57.76 32.21 L 57.30 32.71 L 56.81 33.17 L 56.28 33.60 L 55.73 33.99 L 55.16 34.35 L 54.56 34.67 L 53.95 34.94 L 53.32 35.18 L 52.67 35.38 L 52.01 35.53 L 51.35 35.64 L 50.68 35.71 L 50.00 35.73 L 49.32 35.71 L 48.65 35.64 L 47.99 35.53 L 47.33 35.38 L 46.68 35.18 L 46.05 34.94 L 45.44 34.67 L 44.84 34.35 L 44.27 33.99 L 43.72 33.60 L 43.19 33.17 L 42.70 32.71 L 42.24 32.21 L 41.81 31.69 L 41.42 31.14 L 41.06 30.57 L 40.74 29.97 L 40.46 29.36 L 40.23 28.73 L 40.03 28.08 L 39.88 27.42 L 39.77 26.76 L 39.70 26.08 L 39.68 25.41" stroke="rgba(255,255,255,0.92)" stroke-width="1.0" fill="none"/>
  <path d="M 50.00 29.29 L 51.23 29.37 L 52.44 29.61 L 53.61 30.01 L 54.71 30.56 L 55.74 31.24 L 56.67 32.05 L 57.48 32.98 L 58.17 34.01 L 58.71 35.11 L 59.11 36.28 L 59.35 37.49 L 59.43 38.72 L 59.35 39.95 L 59.11 41.16 L 58.71 42.33 L 58.17 43.44 L 57.48 44.46 L 56.67 45.39 L 55.74 46.20 L 54.71 46.89 L 53.61 47.43 L 52.44 47.83 L 51.23 48.07 L 50.00 48.15 L 48.77 48.07 L 47.56 47.83 L 46.39 47.43 L 45.29 46.89 L 44.26 46.20 L 43.33 45.39 L 42.52 44.46 L 41.83 43.44 L 41.29 42.33 L 40.89 41.16 L 40.65 39.95 L 40.57 38.72 L 40.65 37.49 L 40.89 36.28 L 41.29 35.11 L 41.83 34.01 L 42.52 32.98 L 43.33 32.05 L 44.26 31.24 L 45.29 30.56 L 46.39 30.01 L 47.56 29.61 L 48.77 29.37 L 50.00 29.29" stroke="rgba(255,255,255,0.92)" stroke-width="1.0" fill="none"/>
  <path d="M 50.00 52.03 L 50.00 25.41" stroke="rgba(255,255,255,0.92)" stroke-width="1.0" fill="none"/>
  <path d="M 36.69 38.72 L 63.31 38.72" stroke="rgba(255,255,255,0.92)" stroke-width="1.0" fill="none"/>
  <path d="M 50.00 100.00 L 50.00 0.00" stroke="rgba(255,255,255,0.92)" stroke-width="1.0" fill="none"/>
  <path d="M 28.82 70.85 L 50.00 100.00" stroke="rgba(255,255,255,0.92)" stroke-width="1.0" fill="none"/>
  <path d="M 71.05 70.85 L 49.87 100.00" stroke="rgba(255,255,255,0.92)" stroke-width="1.0" fill="none"/>
  <path d="M 50.00 8.45 L 53.95 8.70 L 57.84 9.48 L 61.59 10.75 L 65.14 12.50 L 68.43 14.70 L 71.41 17.31 L 74.02 20.29 L 76.22 23.58 L 77.97 27.14 L 79.24 30.89 L 80.02 34.77 L 80.28 38.72 L 80.02 42.67 L 79.24 46.56 L 77.97 50.31 L 76.22 53.86 L 74.02 57.15 L 71.41 60.13 L 68.43 62.74 L 65.14 64.94 L 61.59 66.69 L 57.84 67.96 L 53.95 68.74 L 50.00 69.00 L 46.05 68.74 L 42.16 67.96 L 38.41 66.69 L 34.86 64.94 L 31.57 62.74 L 28.59 60.13 L 25.98 57.15 L 23.78 53.86 L 22.03 50.31 L 20.76 46.56 L 19.98 42.67 L 19.72 38.72 L 19.98 34.77 L 20.76 30.89 L 22.03 27.14 L 23.78 23.58 L 25.98 20.29 L 28.59 17.31 L 31.57 14.70 L 34.86 12.50 L 38.41 10.75 L 42.16 9.48 L 46.05 8.70 L 50.00 8.45" stroke="rgba(255,255,255,0.92)" stroke-width="1.0" fill="none"/>
  <path d="M 50.00 12.85 L 53.38 13.07 L 56.70 13.73 L 59.90 14.82 L 62.94 16.32 L 65.75 18.20 L 68.29 20.43 L 70.53 22.97 L 72.41 25.79 L 73.90 28.82 L 74.99 32.03 L 75.65 35.34 L 75.87 38.72 L 75.65 42.10 L 74.99 45.42 L 73.90 48.62 L 72.41 51.66 L 70.53 54.47 L 68.29 57.02 L 65.75 59.25 L 62.94 61.13 L 59.90 62.62 L 56.70 63.71 L 53.38 64.37 L 50.00 64.59 L 46.62 64.37 L 43.30 63.71 L 40.10 62.62 L 37.06 61.13 L 34.25 59.25 L 31.71 57.02 L 29.47 54.47 L 27.59 51.66 L 26.10 48.62 L 25.01 45.42 L 24.35 42.10 L 24.13 38.72 L 24.35 35.34 L 25.01 32.03 L 26.10 28.82 L 27.59 25.79 L 29.47 22.97 L 31.71 20.43 L 34.25 18.20 L 37.06 16.32 L 40.10 14.82 L 43.30 13.73 L 46.62 13.07 L 50.00 12.85" stroke="rgba(255,255,255,0.92)" stroke-width="1.0" fill="none"/>
</svg>
