<svg xmlns="http://www.w3.org/2000/svg" viewBox="0 0 99.98 100.00" data-cad-width="600.0" data-cad-height="600.1">
  <path d="M 0.00 100.00 L 0.00 0.02 L 99.98 0.02 L 99.98 100.00 Z" stroke="rgba(255,255,255,0.92)" stroke-width="1.0" fill="none"/>
  <path d="M 5.00 95.00 L 5.00 5.02 L 94.98 5.02 L 94.98 95.00 Z" stroke="rgba(255,255,255,0.92)" stroke-width="1.0" fill="none"/>
  <path d="M 64.98 5.02 L 64.98 95.00" stroke="rgba(255,255,255,0.92)" stroke-width="1.0" fill="none"/>
  <path d="M 34.99 5.02 L 34.99 95.00" stroke="rgba(255,255,255,0.92)" stroke-width="1.0" fill="none"/>
  <path d="M 5.00 23.02 L 94.98 23.02" stroke="rgba(255,255,255,0.92)" stroke-width="1.0" fill="none"/>
  <path d="M 5.00 41.01 L 94.98 41.01" stroke="rgba(255,255,255,0.92)" stroke-width="1.0" fill="none"/>
  <path d="M 5.00 77.01 L 94.98 77.01" stroke="rgba(255,255,255,0.92)" stroke-width="1.0" fill="none"/>
  <path d="M 5.00 59.01 L 94.98 59.01" stroke="rgba(255,255,255,0.92)" stroke-width="1.0" fill="none"/>
  <path d="M 94.98 95.00 L 99.98 100.00" stroke="rgba(255,255,255,0.92)" stroke-width="1.0" fill="none"/>
  <path d="M 5.00 95.00 L 0.00 100.00" stroke="rgba(255,255,255,0.92)" stroke-width="1.0" fill="none"/>
  <path d="M 99.98 0.02 L 94.98 5.02" stroke="rgba(255,255,255,0.92)" stroke-width="1.0" fill="none"/>
  <path d="M 0.00 0.02 L 5.00 5.02" stroke="rgba(255,255,255,0.92)" stroke-width="1.0" fill="none"/>
  <path d="M 19.30 15.42 L 19.30 83.86" stroke="rgba(255,255,255,0.92)" stroke-width="1.0" fill="none"/>
  <path d="M 14.72 83.86 L 23.88 83.86" stroke="rgba(255,255,255,0.92)" stroke-width="1.0" fill="none"/>
  <path d="M 14.72 15.42 L 23.88 15.42" stroke="rgba(255,255,255,0.92)" stroke-width="1.0" fill="none"/>
  <path d="M 49.30 15.42 L 49.30 83.86" stroke="rgba(255,255,255,0.92)" stroke-width="1.0" fill="none"/>
  <path d="M 44.71 83.86 L 53.88 83.86" stroke="rgba(255,255,255,0.92)" stroke-width="1.0" fill="none"/>
  <path d="M 44.71 15.42 L 53.88 15.42" stroke="rgba(255,255,255,0.92)" stroke-width="1.0" fill="none"/>
  <path d="M 79.29 15.42 L 79.29 83.86" stroke="rgba(255,255,255,0.92)" stroke-width="1.0" fill="none"/>
  <path d="M 74.71 83.86 L 83.87 83.86" stroke="rgba(255,255,255,0.92)" stroke-width="1.0" fill="none"/>
  <path d="M 74.71 15.42 L 83.87 15.42" stroke="rgba(255,255,255,0.92)" stroke-width="1.0" fill="none"/>
</svg>
