<svg xmlns="http://www.w3.org/2000/svg" viewBox="0 0 49.67 100.00" data-cad-width="750.0" data-cad-height="1510.0">
  <path d="M 1.66 2.98 L 1.66 48.34" stroke="rgba(255,255,255,0.92)" stroke-width="1.0" fill="none"/>
  <path d="M 1.66 51.66 L 1.66 97.02" stroke="rgba(255,255,255,0.92)" stroke-width="1.0" fill="none"/>
  <path d="M 2.98 52.98 A 1.32 1.32 0 0 1 1.66 51.66" stroke="rgba(255,255,255,0.92)" stroke-width="1.0" fill="none"/>
  <path d="M 2.98 4.30 A 1.32 1.32 0 0 1 1.66 2.98" stroke="rgba(255,255,255,0.92)" stroke-width="1.0" fill="none"/>
  <path d="M 1.32 1.32 L 1.32 98.68" stroke="rgba(255,255,255,0.92)" stroke-width="1.0" fill="none"/>
  <path d="M 0.00 0.00 L 0.00 100.00" stroke="rgba(255,255,255,0.92)" stroke-width="1.0" fill="none"/>
  <path d="M 14.90 1.66 L 14.90 48.34" stroke="rgba(255,255,255,0.92)" stroke-width="1.0" fill="none"/>
  <path d="M 14.90 51.66 L 14.90 98.34" stroke="rgba(255,255,255,0.92)" stroke-width="1.0" fill="none"/>
  <path d="M 16.23 52.98 A 1.32 1.32 0 0 1 14.90 51.66" stroke="rgba(255,255,255,0.92)" stroke-width="1.0" fill="none"/>
  <path d="M 14.57 1.66 L 14.57 48.34" stroke="rgba(255,255,255,0.92)" stroke-width="1.0" fill="none"/>
  <path d="M 14.57 51.66 L 14.57 98.34" stroke="rgba(255,255,255,0.92)" stroke-width="1.0" fill="none"/>
  <path d="M 14.57 51.66 A 1.32 1.32 0 0 1 13.25 52.98" stroke="rgba(255,255,255,0.92)" stroke-width="1.0" fill="none"/>
  <path d="M 49.67 3.64 L 49.67 47.68" stroke="rgba(255,255,255,0.92)" stroke-width="1.0" fill="none"/>
  <path d="M 46.36 0.00 L 46.36 1.66" stroke="rgba(255,255,255,0.92)" stroke-width="1.0" fill="none"/>
  <path d="M 49.67 52.32 L 49.67 96.36" stroke="rgba(255,255,255,0.92)" stroke-width="1.0" fill="none"/>
  <path d="M 46.36 98.34 L 46.36 100.00" stroke="rgba(255,255,255,0.92)" stroke-width="1.0" fill="none"/>
  <path d="M 49.67 52.32 A 1.99 1.99 0 0 1 47.68 54.30" stroke="rgba(255,255,255,0.92)" stroke-width="1.0" fill="none"/>
  <path d="M 49.67 3.64 A 1.99 1.99 0 0 1 47.68 5.63" stroke="rgba(255,255,255,0.92)" stroke-width="1.0" fill="none"/>
  <path d="M 2.98 1.66 L 47.68 1.66" stroke="rgba(255,255,255,0.92)" stroke-width="1.0" fill="none"/>
  <path d="M 1.32 1.32 L 46.36 1.32" stroke="rgba(255,255,255,0.92)" stroke-width="1.0" fill="none"/>
  <path d="M 0.00 0.00 L 46.36 0.00" stroke="rgba(255,255,255,0.92)" stroke-width="1.0" fill="none"/>
  <path d="M 2.98 98.34 L 47.68 98.34" stroke="rgba(255,255,255,0.92)" stroke-width="1.0" fill="none"/>
  <path d="M 47.68 94.37 A 1.99 1.99 0 0 1 49.67 96.36" stroke="rgba(255,255,255,0.92)" stroke-width="1.0" fill="none"/>
  <path d="M 1.66 97.02 A 1.32 1.32 0 0 1 2.98 95.70" stroke="rgba(255,255,255,0.92)" stroke-width="1.0" fill="none"/>
  <path d="M 1.32 98.68 L 46.36 98.68" stroke="rgba(255,255,255,0.92)" stroke-width="1.0" fill="none"/>
  <path d="M 0.00 100.00 L 46.36 100.00" stroke="rgba(255,255,255,0.92)" stroke-width="1.0" fill="none"/>
  <path d="M 2.98 50.33 L 13.25 50.33" stroke="rgba(255,255,255,0.92)" stroke-width="1.0" fill="none"/>
  <path d="M 2.98 49.67 L 13.25 49.67" stroke="rgba(255,255,255,0.92)" stroke-width="1.0" fill="none"/>
  <path d="M 13.25 47.02 A 1.32 1.32 0 0 1 14.57 48.34" stroke="rgba(255,255,255,0.92)" stroke-width="1.0" fill="none"/>
  <path d="M 1.66 48.34 A 1.32 1.32 0 0 1 2.98 47.02" stroke="rgba(255,255,255,0.92)" stroke-width="1.0" fill="none"/>
  <path d="M 16.23 50.33 L 47.68 50.33" stroke="rgba(255,255,255,0.92)" stroke-width="1.0" fill="none"/>
  <path d="M 16.23 49.67 L 47.68 49.67" stroke="rgba(255,255,255,0.92)" stroke-width="1.0" fill="none"/>
  <path d="M 47.68 45.70 A 1.99 1.99 0 0 1 49.67 47.68" stroke="rgba(255,255,255,0.92)" stroke-width="1.0" fill="none"/>
  <path d="M 14.90 48.34 A 1.32 1.32 0 0 1 16.23 47.02" stroke="rgba(255,255,255,0.92)" stroke-width="1.0" fill="none"/>
</svg>
