<svg xmlns="http://www.w3.org/2000/svg" viewBox="0 0 87.88 100.00" data-cad-width="747.0" data-cad-height="850.0">
  <path d="M 0.00 35.29 L 0.00 9.41" stroke="rgba(255,255,255,0.92)" stroke-width="1.0" fill="none"/>
  <path d="M 9.41 18.82 A 9.41 9.41 0 0 1 -0.00 9.41" stroke="rgba(255,255,255,0.92)" stroke-width="1.0" fill="none"/>
  <path d="M 11.76 100.00 L 11.76 92.94" stroke="rgba(255,255,255,0.92)" stroke-width="1.0" fill="none"/>
  <path d="M 9.41 0.00 L 16.47 0.00" stroke="rgba(255,255,255,0.92)" stroke-width="1.0" fill="none"/>
  <path d="M 0.00 100.00 L 11.76 100.00" stroke="rgba(255,255,255,0.92)" stroke-width="1.0" fill="none"/>
  <path d="M 70.59 100.00 L 82.35 100.00" stroke="rgba(255,255,255,0.92)" stroke-width="1.0" fill="none"/>
  <path d="M 0.00 23.53 L 82.35 23.53" stroke="rgba(255,255,255,0.92)" stroke-width="1.0" fill="none"/>
  <path d="M 0.00 35.29 L 70.59 35.29" stroke="rgba(255,255,255,0.92)" stroke-width="1.0" fill="none"/>
  <path d="M 0.00 92.94 L 82.35 92.94" stroke="rgba(255,255,255,0.92)" stroke-width="1.0" fill="none"/>
  <path d="M 0.00 90.59 L 82.35 90.59" stroke="rgba(255,255,255,0.92)" stroke-width="1.0" fill="none"/>
  <path d="M 25.88 35.29 L 25.88 35.29" stroke="rgba(255,255,255,0.92)" stroke-width="1.0" fill="none"/>
  <path d="M 25.88 23.53 L 25.88 9.41" stroke="rgba(255,255,255,0.92)" stroke-width="1.0" fill="none"/>
  <path d="M 25.88 9.41 A 9.41 9.41 0 0 1 16.47 18.82" stroke="rgba(255,255,255,0.92)" stroke-width="1.0" fill="none"/>
  <path d="M 5.88 41.18 L 70.59 41.18" stroke="rgba(255,255,255,0.92)" stroke-width="1.0" fill="none"/>
  <path d="M 20.00 29.41 A 5.88 5.88 0 0 1 25.88 35.29" stroke="rgba(255,255,255,0.92)" stroke-width="1.0" fill="none"/>
  <path d="M -0.00 35.29 A 5.88 5.88 0 0 1 5.88 29.41" stroke="rgba(255,255,255,0.92)" stroke-width="1.0" fill="none"/>
  <path d="M 82.35 41.18 L 84.26 41.18" stroke="rgba(255,255,255,0.92)" stroke-width="1.0" fill="none"/>
  <path d="M 82.35 35.29 L 82.35 100.00" stroke="rgba(255,255,255,0.92)" stroke-width="1.0" fill="none"/>
  <path d="M 82.35 23.53 L 82.35 100.00" stroke="rgba(255,255,255,0.92)" stroke-width="1.0" fill="none"/>
  <path d="M 70.59 35.29 L 70.59 100.00" stroke="rgba(255,255,255,0.92)" stroke-width="1.0" fill="none"/>
  <path d="M 87.77 45.12 L 82.35 90.59" stroke="rgba(255,255,255,0.92)" stroke-width="1.0" fill="none"/>
  <path d="M 87.77 44.29 A 3.53 3.53 0 0 1 84.26 48.24" stroke="rgba(255,255,255,0.92)" stroke-width="1.0" fill="none"/>
  <path d="M 70.59 35.29 L 82.35 23.53" stroke="rgba(255,255,255,0.92)" stroke-width="1.0" fill="none"/>
  <path d="M 0.00 100.00 L 0.00 47.06" stroke="rgba(255,255,255,0.92)" stroke-width="1.0" fill="none"/>
  <path d="M 5.88 52.94 A 5.88 5.88 0 0 1 -0.00 47.06" stroke="rgba(255,255,255,0.92)" stroke-width="1.0" fill="none"/>
</svg>
