<svg xmlns="http://www.w3.org/2000/svg" viewBox="0 0 100.00 62.89" data-cad-width="230.0" data-cad-height="144.6">
  <path d="M 13.04 13.04 L 86.96 13.04" stroke="rgba(255,255,255,0.92)" stroke-width="1.0" fill="none"/>
  <path d="M 76.09 10.87 L 76.09 0.00" stroke="rgba(255,255,255,0.92)" stroke-width="1.0" fill="none"/>
  <path d="M 63.04 10.87 L 63.04 0.00" stroke="rgba(255,255,255,0.92)" stroke-width="1.0" fill="none"/>
  <path d="M 50.00 10.87 L 50.00 0.00" stroke="rgba(255,255,255,0.92)" stroke-width="1.0" fill="none"/>
  <path d="M 36.96 10.87 L 36.96 0.00" stroke="rgba(255,255,255,0.92)" stroke-width="1.0" fill="none"/>
  <path d="M 23.91 10.87 L 23.91 0.00" stroke="rgba(255,255,255,0.92)" stroke-width="1.0" fill="none"/>
  <path d="M 13.04 0.00 L 86.96 0.00" stroke="rgba(255,255,255,0.92)" stroke-width="1.0" fill="none"/>
  <path d="M 13.04 10.87 L 86.96 10.87" stroke="rgba(255,255,255,0.92)" stroke-width="1.0" fill="none"/>
  <path d="M 10.87 0.00 L 13.04 0.00" stroke="rgba(255,255,255,0.92)" stroke-width="1.0" fill="none"/>
  <path d="M 0.00 13.04 L 0.00 10.87" stroke="rgba(255,255,255,0.92)" stroke-width="1.0" fill="none"/>
  <path d="M 0.00 10.87 L 10.87 10.87" stroke="rgba(255,255,255,0.92)" stroke-width="1.0" fill="none"/>
  <path d="M 0.00 13.04 L 13.04 13.04" stroke="rgba(255,255,255,0.92)" stroke-width="1.0" fill="none"/>
  <path d="M 10.87 10.87 L 10.87 0.00" stroke="rgba(255,255,255,0.92)" stroke-width="1.0" fill="none"/>
  <path d="M 13.04 13.04 L 13.04 0.00" stroke="rgba(255,255,255,0.92)" stroke-width="1.0" fill="none"/>
  <path d="M 89.13 0.00 L 86.96 0.00" stroke="rgba(255,255,255,0.92)" stroke-width="1.0" fill="none"/>
  <path d="M 100.00 13.04 L 100.00 10.87" stroke="rgba(255,255,255,0.92)" stroke-width="1.0" fill="none"/>
  <path d="M 100.00 10.87 L 89.13 10.87" stroke="rgba(255,255,255,0.92)" stroke-width="1.0" fill="none"/>
  <path d="M 100.00 13.04 L 86.96 13.04" stroke="rgba(255,255,255,0.92)" stroke-width="1.0" fill="none"/>
  <path d="M 89.13 10.87 L 89.13 0.00" stroke="rgba(255,255,255,0.92)" stroke-width="1.0" fill="none"/>
  <path d="M 86.96 13.04 L 86.96 0.00" stroke="rgba(255,255,255,0.92)" stroke-width="1.0" fill="none"/>
  <path d="M 62.06 62.89 L 62.06 43.07" stroke="rgba(255,255,255,0.92)" stroke-width="1.0" fill="none"/>
  <path d="M 62.06 43.07 L 68.37 43.07" stroke="rgba(255,255,255,0.92)" stroke-width="1.0" fill="none"/>
  <path d="M 70.94 40.50 L 70.93 40.33 L 70.92 40.16 L 70.89 40.00 L 70.85 39.83 L 70.80 39.67 L 70.74 39.52 L 70.67 39.36 L 70.59 39.21 L 70.51 39.07 L 70.41 38.94 L 70.30 38.81 L 70.19 38.68 L 70.06 38.57 L 69.93 38.46 L 69.80 38.36 L 69.65 38.27 L 69.51 38.19 L 69.35 38.13 L 69.20 38.07 L 69.03 38.02 L 68.87 37.98 L 68.71 37.95 L 68.54 37.94 L 68.37 37.93 L 68.20 37.94 L 68.03 37.95 L 67.87 37.98 L 67.71 38.02 L 67.54 38.07 L 67.39 38.13 L 67.23 38.19 L 67.09 38.27 L 66.94 38.36 L 66.81 38.46 L 66.68 38.57 L 66.55 38.68 L 66.44 38.81 L 66.33 38.94 L 66.23 39.07 L 66.15 39.21 L 66.07 39.36 L 66.00 39.52 L 65.94 39.67 L 65.89 39.83 L 65.85 40.00 L 65.82 40.16 L 65.81 40.33 L 65.80 40.50" stroke="rgba(255,255,255,0.92)" stroke-width="1.0" fill="none"/>
  <path d="M 68.37 37.93 L 55.75 37.93" stroke="rgba(255,255,255,0.92)" stroke-width="1.0" fill="none"/>
  <path d="M 53.18 35.36 L 53.18 35.19 L 53.20 35.03 L 53.23 34.86 L 53.27 34.70 L 53.32 34.54 L 53.37 34.38 L 53.44 34.23 L 53.52 34.08 L 53.61 33.93 L 53.71 33.80 L 53.82 33.67 L 53.93 33.54 L 54.05 33.43 L 54.18 33.32 L 54.32 33.23 L 54.46 33.14 L 54.61 33.06 L 54.76 32.99 L 54.92 32.93 L 55.08 32.88 L 55.25 32.84 L 55.41 32.81 L 55.58 32.80 L 55.75 32.79 L 55.92 32.80 L 56.08 32.81 L 56.25 32.84 L 56.41 32.88 L 56.57 32.93 L 56.73 32.99 L 56.88 33.06 L 57.03 33.14 L 57.17 33.23 L 57.31 33.32 L 57.44 33.43 L 57.56 33.54 L 57.68 33.67 L 57.79 33.80 L 57.88 33.93 L 57.97 34.08 L 58.05 34.23 L 58.12 34.38 L 58.18 34.54 L 58.23 34.70 L 58.27 34.86 L 58.29 35.03 L 58.31 35.19 L 58.32 35.36" stroke="rgba(255,255,255,0.92)" stroke-width="1.0" fill="none"/>
  <path d="M 55.75 32.79 L 62.06 32.79" stroke="rgba(255,255,255,0.92)" stroke-width="1.0" fill="none"/>
  <path d="M 62.06 32.79 L 62.06 16.29" stroke="rgba(255,255,255,0.92)" stroke-width="1.0" fill="none"/>
  <path d="M 53.38 22.67 L 62.06 16.29" stroke="rgba(255,255,255,0.92)" stroke-width="1.0" fill="none"/>
  <path d="M 62.06 16.29 L 70.74 22.67" stroke="rgba(255,255,255,0.92)" stroke-width="1.0" fill="none"/>
  <path d="M 34.24 62.89 L 34.24 43.07" stroke="rgba(255,255,255,0.92)" stroke-width="1.0" fill="none"/>
  <path d="M 34.24 43.07 L 27.93 43.07" stroke="rgba(255,255,255,0.92)" stroke-width="1.0" fill="none"/>
  <path d="M 27.93 43.07 L 28.09 43.06 L 28.26 43.05 L 28.43 43.02 L 28.59 42.98 L 28.75 42.93 L 28.91 42.87 L 29.06 42.80 L 29.21 42.72 L 29.35 42.63 L 29.49 42.54 L 29.62 42.43 L 29.74 42.32 L 29.86 42.19 L 29.96 42.06 L 30.06 41.93 L 30.15 41.78 L 30.23 41.64 L 30.30 41.48 L 30.36 41.32 L 30.41 41.16 L 30.45 41.00 L 30.47 40.83 L 30.49 40.67 L 30.50 40.50 L 30.49 40.33 L 30.47 40.16 L 30.45 40.00 L 30.41 39.83 L 30.36 39.67 L 30.30 39.52 L 30.23 39.36 L 30.15 39.21 L 30.06 39.07 L 29.96 38.94 L 29.86 38.81 L 29.74 38.68 L 29.62 38.57 L 29.49 38.46 L 29.35 38.36 L 29.21 38.27 L 29.06 38.19 L 28.91 38.13 L 28.75 38.07 L 28.59 38.02 L 28.43 37.98 L 28.26 37.95 L 28.09 37.94 L 27.93 37.93" stroke="rgba(255,255,255,0.92)" stroke-width="1.0" fill="none"/>
  <path d="M 27.93 37.93 L 40.55 37.93" stroke="rgba(255,255,255,0.92)" stroke-width="1.0" fill="none"/>
  <path d="M 40.55 32.79 L 40.72 32.80 L 40.88 32.81 L 41.05 32.84 L 41.21 32.88 L 41.37 32.93 L 41.53 32.99 L 41.68 33.06 L 41.83 33.14 L 41.98 33.23 L 42.11 33.32 L 42.24 33.43 L 42.37 33.54 L 42.48 33.67 L 42.59 33.80 L 42.68 33.93 L 42.77 34.08 L 42.85 34.23 L 42.92 34.38 L 42.98 34.54 L 43.03 34.70 L 43.07 34.86 L 43.10 35.03 L 43.11 35.19 L 43.12 35.36 L 43.11 35.53 L 43.10 35.70 L 43.07 35.86 L 43.03 36.03 L 42.98 36.19 L 42.92 36.34 L 42.85 36.50 L 42.77 36.65 L 42.68 36.79 L 42.59 36.93 L 42.48 37.05 L 42.37 37.18 L 42.24 37.29 L 42.11 37.40 L 41.98 37.50 L 41.83 37.59 L 41.68 37.67 L 41.53 37.73 L 41.37 37.79 L 41.21 37.84 L 41.05 37.88 L 40.88 37.91 L 40.72 37.92 L 40.55 37.93" stroke="rgba(255,255,255,0.92)" stroke-width="1.0" fill="none"/>
  <path d="M 40.55 32.79 L 34.24 32.79" stroke="rgba(255,255,255,0.92)" stroke-width="1.0" fill="none"/>
  <path d="M 34.24 32.79 L 34.24 16.29" stroke="rgba(255,255,255,0.92)" stroke-width="1.0" fill="none"/>
  <path d="M 42.92 22.67 L 34.24 16.29" stroke="rgba(255,255,255,0.92)" stroke-width="1.0" fill="none"/>
  <path d="M 34.24 16.29 L 25.55 22.67" stroke="rgba(255,255,255,0.92)" stroke-width="1.0" fill="none"/>
</svg>
