<svg xmlns="http://www.w3.org/2000/svg" viewBox="0 0 38.12 100.00" data-cad-width="40.8" data-cad-height="107.2">
  <path d="M 19.06 100.00 L 19.06 57.47" stroke="rgba(255,255,255,0.92)" stroke-width="1.0" fill="none"/>
  <path d="M 19.06 57.47 L 5.51 57.47" stroke="rgba(255,255,255,0.92)" stroke-width="1.0" fill="none"/>
  <path d="M 5.51 57.47 L 5.15 57.45 L 4.79 57.42 L 4.44 57.36 L 4.09 57.28 L 3.74 57.17 L 3.40 57.05 L 3.07 56.90 L 2.76 56.73 L 2.45 56.54 L 2.16 56.33 L 1.88 56.10 L 1.61 55.85 L 1.37 55.59 L 1.14 55.31 L 0.93 55.01 L 0.74 54.71 L 0.57 54.39 L 0.42 54.06 L 0.29 53.72 L 0.19 53.38 L 0.11 53.03 L 0.05 52.67 L 0.01 52.31 L -0.00 51.95 L 0.01 51.59 L 0.05 51.23 L 0.11 50.88 L 0.19 50.52 L 0.29 50.18 L 0.42 49.84 L 0.57 49.51 L 0.74 49.19 L 0.93 48.89 L 1.14 48.60 L 1.37 48.32 L 1.61 48.05 L 1.88 47.81 L 2.16 47.58 L 2.45 47.37 L 2.76 47.18 L 3.07 47.01 L 3.40 46.86 L 3.74 46.73 L 4.09 46.63 L 4.44 46.54 L 4.79 46.49 L 5.15 46.45 L 5.51 46.44" stroke="rgba(255,255,255,0.92)" stroke-width="1.0" fill="none"/>
  <path d="M 5.51 46.44 L 32.60 46.44" stroke="rgba(255,255,255,0.92)" stroke-width="1.0" fill="none"/>
  <path d="M 32.60 35.41 L 32.97 35.42 L 33.32 35.46 L 33.68 35.52 L 34.03 35.60 L 34.38 35.70 L 34.71 35.83 L 35.04 35.98 L 35.36 36.15 L 35.67 36.34 L 35.96 36.55 L 36.24 36.78 L 36.50 37.03 L 36.75 37.29 L 36.98 37.57 L 37.19 37.86 L 37.38 38.17 L 37.55 38.49 L 37.70 38.81 L 37.83 39.15 L 37.93 39.50 L 38.01 39.85 L 38.07 40.20 L 38.11 40.56 L 38.12 40.92 L 38.11 41.29 L 38.07 41.64 L 38.01 42.00 L 37.93 42.35 L 37.83 42.70 L 37.70 43.03 L 37.55 43.36 L 37.38 43.68 L 37.19 43.99 L 36.98 44.28 L 36.75 44.56 L 36.50 44.82 L 36.24 45.07 L 35.96 45.30 L 35.67 45.51 L 35.36 45.70 L 35.04 45.87 L 34.71 46.02 L 34.38 46.15 L 34.03 46.25 L 33.68 46.33 L 33.32 46.39 L 32.97 46.43 L 32.60 46.44" stroke="rgba(255,255,255,0.92)" stroke-width="1.0" fill="none"/>
  <path d="M 32.60 35.41 L 19.06 35.41" stroke="rgba(255,255,255,0.92)" stroke-width="1.0" fill="none"/>
  <path d="M 19.06 35.41 L 19.06 0.00" stroke="rgba(255,255,255,0.92)" stroke-width="1.0" fill="none"/>
  <path d="M 37.70 13.68 L 19.06 0.00" stroke="rgba(255,255,255,0.92)" stroke-width="1.0" fill="none"/>
  <path d="M 19.06 0.00 L 0.42 13.68" stroke="rgba(255,255,255,0.92)" stroke-width="1.0" fill="none"/>
</svg>
