<svg xmlns="http://www.w3.org/2000/svg" viewBox="0 0 91.56 100.00" data-cad-width="15.0" data-cad-height="16.4">
  <path d="M 76.24 69.54 L 15.32 69.54" stroke="rgba(255,255,255,0.92)" stroke-width="1.0" fill="none"/>
  <path d="M 15.32 69.54 A 30.46 30.46 0 0 1 76.24 69.54" stroke="rgba(255,255,255,0.92)" stroke-width="1.0" fill="none"/>
  <path d="M 76.24 69.54 L 91.56 69.54" stroke="rgba(255,255,255,0.92)" stroke-width="1.0" fill="none"/>
  <path d="M 45.78 39.08 L 45.78 23.76" stroke="rgba(255,255,255,0.92)" stroke-width="1.0" fill="none"/>
  <path d="M 66.32 47.05 L 45.78 23.76" stroke="rgba(255,255,255,0.92)" stroke-width="1.0" fill="none"/>
  <path d="M 68.27 49.00 L 91.56 69.54" stroke="rgba(255,255,255,0.92)" stroke-width="1.0" fill="none"/>
  <path d="M 76.24 69.54 L 91.56 69.54" stroke="rgba(255,255,255,0.92)" stroke-width="1.0" fill="none"/>
  <path d="M 76.24 69.54 A 30.46 30.46 0 0 1 15.32 69.54" stroke="rgba(255,255,255,0.92)" stroke-width="1.0" fill="none"/>
  <path d="M 45.78 39.08 L 45.78 23.76" stroke="rgba(255,255,255,0.92)" stroke-width="1.0" fill="none"/>
  <path d="M 25.24 47.05 L 45.78 23.76" stroke="rgba(255,255,255,0.92)" stroke-width="1.0" fill="none"/>
  <path d="M 15.32 69.54 L 0.00 69.54" stroke="rgba(255,255,255,0.92)" stroke-width="1.0" fill="none"/>
  <path d="M 23.29 49.00 L 0.00 69.54" stroke="rgba(255,255,255,0.92)" stroke-width="1.0" fill="none"/>
  <path d="M 15.32 69.54 L 0.00 69.54" stroke="rgba(255,255,255,0.92)" stroke-width="1.0" fill="none"/>
</svg>
