<svg xmlns="http://www.w3.org/2000/svg" viewBox="0 0 100.00 95.08" data-cad-width="15.8" data-cad-height="15.0">
  <path d="M 100.00 47.54 L 36.74 47.54" stroke="rgba(255,255,255,0.92)" stroke-width="1.0" fill="none"/>
  <path d="M 68.37 79.17 A 31.63 31.63 0 0 1 68.37 15.91" stroke="rgba(255,255,255,0.92)" stroke-width="1.0" fill="none"/>
  <path d="M 68.37 79.17 L 68.37 95.08" stroke="rgba(255,255,255,0.92)" stroke-width="1.0" fill="none"/>
  <path d="M 36.74 47.54 L 20.83 47.54" stroke="rgba(255,255,255,0.92)" stroke-width="1.0" fill="none"/>
  <path d="M 45.02 68.87 L 20.83 47.54" stroke="rgba(255,255,255,0.92)" stroke-width="1.0" fill="none"/>
  <path d="M 47.04 70.89 L 68.37 95.08" stroke="rgba(255,255,255,0.92)" stroke-width="1.0" fill="none"/>
  <path d="M 68.37 79.17 L 68.37 95.08" stroke="rgba(255,255,255,0.92)" stroke-width="1.0" fill="none"/>
  <path d="M 68.37 15.91 A 31.63 31.63 0 0 1 68.37 79.17" stroke="rgba(255,255,255,0.92)" stroke-width="1.0" fill="none"/>
  <path d="M 36.74 47.54 L 20.83 47.54" stroke="rgba(255,255,255,0.92)" stroke-width="1.0" fill="none"/>
  <path d="M 45.02 26.21 L 20.83 47.54" stroke="rgba(255,255,255,0.92)" stroke-width="1.0" fill="none"/>
  <path d="M 68.37 15.91 L 68.37 0.00" stroke="rgba(255,255,255,0.92)" stroke-width="1.0" fill="none"/>
  <path d="M 47.04 24.19 L 68.37 0.00" stroke="rgba(255,255,255,0.92)" stroke-width="1.0" fill="none"/>
  <path d="M 68.37 15.91 L 68.37 0.00" stroke="rgba(255,255,255,0.92)" stroke-width="1.0" fill="none"/>
</svg>
