<svg xmlns="http://www.w3.org/2000/svg" viewBox="0 0 95.58 100.00" data-cad-width="14.4" data-cad-height="15.1">
  <path d="M 79.58 31.79 L 15.99 31.79" stroke="rgba(255,255,255,0.92)" stroke-width="1.0" fill="none"/>
  <path d="M 15.99 31.79 A 31.79 31.79 0 0 1 79.58 31.79" stroke="rgba(255,255,255,0.92)" stroke-width="1.0" fill="none"/>
  <path d="M 79.58 31.79 L 95.58 31.79" stroke="rgba(255,255,255,0.92)" stroke-width="1.0" fill="none"/>
  <path d="M 47.79 63.59 L 47.79 79.58" stroke="rgba(255,255,255,0.92)" stroke-width="1.0" fill="none"/>
  <path d="M 69.23 55.27 L 47.79 79.58" stroke="rgba(255,255,255,0.92)" stroke-width="1.0" fill="none"/>
  <path d="M 71.26 53.24 L 95.58 31.79" stroke="rgba(255,255,255,0.92)" stroke-width="1.0" fill="none"/>
  <path d="M 79.58 31.79 L 95.58 31.79" stroke="rgba(255,255,255,0.92)" stroke-width="1.0" fill="none"/>
  <path d="M 79.58 31.79 A 31.79 31.79 0 0 1 15.99 31.79" stroke="rgba(255,255,255,0.92)" stroke-width="1.0" fill="none"/>
  <path d="M 47.79 63.59 L 47.79 79.58" stroke="rgba(255,255,255,0.92)" stroke-width="1.0" fill="none"/>
  <path d="M 26.35 55.27 L 47.79 79.58" stroke="rgba(255,255,255,0.92)" stroke-width="1.0" fill="none"/>
  <path d="M 15.99 31.79 L 0.00 31.79" stroke="rgba(255,255,255,0.92)" stroke-width="1.0" fill="none"/>
  <path d="M 24.31 53.24 L 0.00 31.79" stroke="rgba(255,255,255,0.92)" stroke-width="1.0" fill="none"/>
  <path d="M 15.99 31.79 L 0.00 31.79" stroke="rgba(255,255,255,0.92)" stroke-width="1.0" fill="none"/>
</svg>
