<svg xmlns="http://www.w3.org/2000/svg" viewBox="0 0 100.00 96.99" data-cad-width="15.5" data-cad-height="15.0">
  <path d="M 64.53 48.50 L 0.00 48.50" stroke="rgba(255,255,255,0.92)" stroke-width="1.0" fill="none"/>
  <path d="M 32.26 16.23 A 32.26 32.26 0 0 1 32.26 80.76" stroke="rgba(255,255,255,0.92)" stroke-width="1.0" fill="none"/>
  <path d="M 32.26 16.23 L 32.26 0.00" stroke="rgba(255,255,255,0.92)" stroke-width="1.0" fill="none"/>
  <path d="M 64.53 48.50 L 80.76 48.50" stroke="rgba(255,255,255,0.92)" stroke-width="1.0" fill="none"/>
  <path d="M 56.09 26.73 L 80.76 48.50" stroke="rgba(255,255,255,0.92)" stroke-width="1.0" fill="none"/>
  <path d="M 54.02 24.67 L 32.26 0.00" stroke="rgba(255,255,255,0.92)" stroke-width="1.0" fill="none"/>
  <path d="M 32.26 16.23 L 32.26 0.00" stroke="rgba(255,255,255,0.92)" stroke-width="1.0" fill="none"/>
  <path d="M 32.26 80.76 A 32.26 32.26 0 0 1 32.26 16.23" stroke="rgba(255,255,255,0.92)" stroke-width="1.0" fill="none"/>
  <path d="M 64.53 48.50 L 80.76 48.50" stroke="rgba(255,255,255,0.92)" stroke-width="1.0" fill="none"/>
  <path d="M 56.09 70.26 L 80.76 48.50" stroke="rgba(255,255,255,0.92)" stroke-width="1.0" fill="none"/>
  <path d="M 32.26 80.76 L 32.26 96.99" stroke="rgba(255,255,255,0.92)" stroke-width="1.0" fill="none"/>
  <path d="M 54.02 72.32 L 32.26 96.99" stroke="rgba(255,255,255,0.92)" stroke-width="1.0" fill="none"/>
  <path d="M 32.26 80.76 L 32.26 96.99" stroke="rgba(255,255,255,0.92)" stroke-width="1.0" fill="none"/>
</svg>
