<svg xmlns="http://www.w3.org/2000/svg" viewBox="0 0 100 100" width="100" height="100">
  <path d="M 36.62 65.76 L 56.44 65.76" stroke="rgba(255,255,255,0.92)" stroke-width="1.0" fill="none"/>
  <path d="M 56.44 65.76 L 56.44 72.07" stroke="rgba(255,255,255,0.92)" stroke-width="1.0" fill="none"/>
  <path d="M 59.01 69.50 L 58.84 69.51 L 58.67 69.53 L 58.51 69.55 L 58.34 69.59 L 58.18 69.64 L 58.03 69.70 L 57.87 69.77 L 57.72 69.85 L 57.58 69.94 L 57.45 70.04 L 57.32 70.14 L 57.19 70.26 L 57.08 70.38 L 56.97 70.51 L 56.87 70.65 L 56.78 70.79 L 56.71 70.94 L 56.64 71.09 L 56.58 71.25 L 56.53 71.41 L 56.49 71.57 L 56.46 71.74 L 56.45 71.91 L 56.44 72.07 L 56.45 72.24 L 56.46 72.41 L 56.49 72.57 L 56.53 72.74 L 56.58 72.90 L 56.64 73.06 L 56.71 73.21 L 56.78 73.36 L 56.87 73.50 L 56.97 73.64 L 57.08 73.77 L 57.19 73.89 L 57.32 74.00 L 57.45 74.11 L 57.58 74.21 L 57.72 74.30 L 57.87 74.38 L 58.03 74.45 L 58.18 74.51 L 58.34 74.55 L 58.51 74.59 L 58.67 74.62 L 58.84 74.64 L 59.01 74.64" stroke="rgba(255,255,255,0.92)" stroke-width="1.0" fill="none"/>
  <path d="M 61.58 72.07 L 61.58 59.45" stroke="rgba(255,255,255,0.92)" stroke-width="1.0" fill="none"/>
  <path d="M 64.15 62.02 L 63.98 62.01 L 63.81 62.00 L 63.65 61.97 L 63.48 61.93 L 63.32 61.88 L 63.16 61.82 L 63.01 61.76 L 62.86 61.68 L 62.72 61.59 L 62.58 61.49 L 62.45 61.38 L 62.33 61.27 L 62.22 61.15 L 62.11 61.02 L 62.01 60.88 L 61.92 60.74 L 61.84 60.59 L 61.77 60.43 L 61.71 60.28 L 61.67 60.12 L 61.63 59.95 L 61.60 59.79 L 61.58 59.62 L 61.58 59.45 L 61.58 59.28 L 61.60 59.12 L 61.63 58.95 L 61.67 58.79 L 61.71 58.63 L 61.77 58.47 L 61.84 58.32 L 61.92 58.17 L 62.01 58.02 L 62.11 57.89 L 62.22 57.76 L 62.33 57.63 L 62.45 57.52 L 62.58 57.41 L 62.72 57.32 L 62.86 57.23 L 63.01 57.15 L 63.16 57.08 L 63.32 57.02 L 63.48 56.97 L 63.65 56.93 L 63.81 56.90 L 63.98 56.89 L 64.15 56.88" stroke="rgba(255,255,255,0.92)" stroke-width="1.0" fill="none"/>
  <path d="M 66.72 59.45 L 66.72 65.76" stroke="rgba(255,255,255,0.92)" stroke-width="1.0" fill="none"/>
  <path d="M 66.72 65.76 L 83.21 65.76" stroke="rgba(255,255,255,0.92)" stroke-width="1.0" fill="none"/>
  <path d="M 76.84 57.08 L 83.21 65.76" stroke="rgba(255,255,255,0.92)" stroke-width="1.0" fill="none"/>
  <path d="M 83.21 65.76 L 76.84 74.45" stroke="rgba(255,255,255,0.92)" stroke-width="1.0" fill="none"/>
  <path d="M 36.62 37.94 L 56.44 37.94" stroke="rgba(255,255,255,0.92)" stroke-width="1.0" fill="none"/>
  <path d="M 56.44 37.94 L 56.44 31.63" stroke="rgba(255,255,255,0.92)" stroke-width="1.0" fill="none"/>
  <path d="M 61.58 31.63 L 61.57 31.46 L 61.56 31.29 L 61.53 31.13 L 61.49 30.97 L 61.44 30.80 L 61.38 30.65 L 61.31 30.49 L 61.23 30.35 L 61.15 30.20 L 61.05 30.07 L 60.94 29.94 L 60.83 29.81 L 60.70 29.70 L 60.57 29.59 L 60.44 29.49 L 60.29 29.41 L 60.15 29.33 L 59.99 29.26 L 59.84 29.20 L 59.67 29.15 L 59.51 29.11 L 59.34 29.08 L 59.18 29.07 L 59.01 29.06 L 58.84 29.07 L 58.67 29.08 L 58.51 29.11 L 58.34 29.15 L 58.18 29.20 L 58.03 29.26 L 57.87 29.33 L 57.72 29.41 L 57.58 29.49 L 57.45 29.59 L 57.32 29.70 L 57.19 29.81 L 57.08 29.94 L 56.97 30.07 L 56.87 30.20 L 56.78 30.35 L 56.71 30.49 L 56.64 30.65 L 56.58 30.80 L 56.53 30.97 L 56.49 31.13 L 56.46 31.29 L 56.45 31.46 L 56.44 31.63" stroke="rgba(255,255,255,0.92)" stroke-width="1.0" fill="none"/>
  <path d="M 61.58 31.63 L 61.58 44.25" stroke="rgba(255,255,255,0.92)" stroke-width="1.0" fill="none"/>
  <path d="M 61.58 44.25 L 61.58 44.08 L 61.60 43.92 L 61.63 43.75 L 61.67 43.59 L 61.71 43.43 L 61.77 43.27 L 61.84 43.12 L 61.92 42.97 L 62.01 42.83 L 62.11 42.69 L 62.22 42.56 L 62.33 42.44 L 62.45 42.32 L 62.58 42.21 L 62.72 42.12 L 62.86 42.03 L 63.01 41.95 L 63.16 41.88 L 63.32 41.82 L 63.48 41.77 L 63.65 41.73 L 63.81 41.71 L 63.98 41.69 L 64.15 41.68 L 64.31 41.69 L 64.48 41.71 L 64.65 41.73 L 64.81 41.77 L 64.97 41.82 L 65.13 41.88 L 65.28 41.95 L 65.43 42.03 L 65.57 42.12 L 65.71 42.21 L 65.84 42.32 L 65.96 42.44 L 66.08 42.56 L 66.18 42.69 L 66.28 42.83 L 66.37 42.97 L 66.45 43.12 L 66.52 43.27 L 66.58 43.43 L 66.63 43.59 L 66.67 43.75 L 66.69 43.92 L 66.71 44.08 L 66.72 44.25" stroke="rgba(255,255,255,0.92)" stroke-width="1.0" fill="none"/>
  <path d="M 66.72 44.25 L 66.72 37.94" stroke="rgba(255,255,255,0.92)" stroke-width="1.0" fill="none"/>
  <path d="M 66.72 37.94 L 83.21 37.94" stroke="rgba(255,255,255,0.92)" stroke-width="1.0" fill="none"/>
  <path d="M 76.84 46.62 L 83.21 37.94" stroke="rgba(255,255,255,0.92)" stroke-width="1.0" fill="none"/>
  <path d="M 83.21 37.94 L 76.84 29.26" stroke="rgba(255,255,255,0.92)" stroke-width="1.0" fill="none"/>
  <path d="M 29.83 13.04 L 16.79 13.04" stroke="rgba(255,255,255,0.92)" stroke-width="1.0" fill="none"/>
  <path d="M 27.66 10.87 L 16.79 10.87" stroke="rgba(255,255,255,0.92)" stroke-width="1.0" fill="none"/>
  <path d="M 29.83 0.00 L 29.83 13.04" stroke="rgba(255,255,255,0.92)" stroke-width="1.0" fill="none"/>
  <path d="M 27.66 0.00 L 27.66 10.87" stroke="rgba(255,255,255,0.92)" stroke-width="1.0" fill="none"/>
  <path d="M 29.83 0.00 L 27.66 0.00" stroke="rgba(255,255,255,0.92)" stroke-width="1.0" fill="none"/>
  <path d="M 16.79 10.87 L 16.79 13.04" stroke="rgba(255,255,255,0.92)" stroke-width="1.0" fill="none"/>
  <path d="M 29.83 86.96 L 16.79 86.96" stroke="rgba(255,255,255,0.92)" stroke-width="1.0" fill="none"/>
  <path d="M 27.66 89.13 L 16.79 89.13" stroke="rgba(255,255,255,0.92)" stroke-width="1.0" fill="none"/>
  <path d="M 29.83 100.00 L 29.83 86.96" stroke="rgba(255,255,255,0.92)" stroke-width="1.0" fill="none"/>
  <path d="M 27.66 100.00 L 27.66 89.13" stroke="rgba(255,255,255,0.92)" stroke-width="1.0" fill="none"/>
  <path d="M 29.83 100.00 L 27.66 100.00" stroke="rgba(255,255,255,0.92)" stroke-width="1.0" fill="none"/>
  <path d="M 16.79 89.13 L 16.79 86.96" stroke="rgba(255,255,255,0.92)" stroke-width="1.0" fill="none"/>
  <path d="M 27.66 86.96 L 27.66 13.04" stroke="rgba(255,255,255,0.92)" stroke-width="1.0" fill="none"/>
  <path d="M 16.79 86.96 L 16.79 13.04" stroke="rgba(255,255,255,0.92)" stroke-width="1.0" fill="none"/>
  <path d="M 27.66 76.09 L 16.79 76.09" stroke="rgba(255,255,255,0.92)" stroke-width="1.0" fill="none"/>
  <path d="M 27.66 63.04 L 16.79 63.04" stroke="rgba(255,255,255,0.92)" stroke-width="1.0" fill="none"/>
  <path d="M 27.66 50.00 L 16.79 50.00" stroke="rgba(255,255,255,0.92)" stroke-width="1.0" fill="none"/>
  <path d="M 27.66 36.96 L 16.79 36.96" stroke="rgba(255,255,255,0.92)" stroke-width="1.0" fill="none"/>
  <path d="M 27.66 23.91 L 16.79 23.91" stroke="rgba(255,255,255,0.92)" stroke-width="1.0" fill="none"/>
  <path d="M 29.83 86.96 L 29.83 13.04" stroke="rgba(255,255,255,0.92)" stroke-width="1.0" fill="none"/>
</svg>
