<svg xmlns="http://www.w3.org/2000/svg" viewBox="0 0 100.00 17.22" data-cad-width="3349.6" data-cad-height="576.9">
  <path d="M 21.20 1.60 L 18.56 2.97 L 15.99 4.30 L 10.04 4.52 L 4.07 4.28 L 0.00 2.40 L 2.36 7.12 L 0.57 15.17 L 4.81 13.32 L 9.89 12.92 L 15.29 13.05 L 17.84 14.31 L 20.02 15.83 L 20.17 12.46 L 19.70 9.56 L 20.43 5.82 L 21.20 1.60" stroke="rgba(255,255,255,0.92)" stroke-width="1.0" fill="none"/>
  <path d="M 0.00 2.40 L 4.06 2.58 L 9.53 2.82 L 14.07 2.82 L 21.20 1.60" stroke="rgba(255,255,255,0.92)" stroke-width="1.0" fill="none"/>
  <path d="M 0.00 2.40 L 5.50 0.82 L 11.94 0.00 L 16.15 0.87 L 21.20 1.60" stroke="rgba(255,255,255,0.92)" stroke-width="1.0" fill="none"/>
  <path d="M 45.52 2.19 L 42.89 3.56 L 40.32 4.89 L 34.21 5.94 L 28.40 4.86 L 24.33 2.99 L 26.69 7.71 L 24.90 15.76 L 29.14 13.90 L 34.21 13.51 L 39.61 13.64 L 42.17 14.89 L 44.35 16.41 L 44.50 13.05 L 44.02 10.15 L 44.76 6.41 L 45.52 2.19" stroke="rgba(255,255,255,0.92)" stroke-width="1.0" fill="none"/>
  <path d="M 24.33 2.99 L 28.38 3.17 L 33.85 3.41 L 38.40 3.41 L 45.52 2.19" stroke="rgba(255,255,255,0.92)" stroke-width="1.0" fill="none"/>
  <path d="M 24.33 2.99 L 29.83 1.41 L 36.26 0.59 L 40.47 1.46 L 45.52 2.19" stroke="rgba(255,255,255,0.92)" stroke-width="1.0" fill="none"/>
  <path d="M 73.77 2.71 L 71.13 4.07 L 68.56 5.41 L 62.45 6.45 L 56.64 5.38 L 52.57 3.51 L 54.93 8.22 L 53.14 16.28 L 57.38 14.42 L 62.45 14.03 L 67.86 14.16 L 70.41 15.41 L 72.59 16.93 L 72.74 13.56 L 72.27 10.66 L 73.00 6.92 L 73.77 2.71" stroke="rgba(255,255,255,0.92)" stroke-width="1.0" fill="none"/>
  <path d="M 52.57 3.51 L 56.63 3.68 L 62.09 3.92 L 66.64 3.92 L 73.77 2.71" stroke="rgba(255,255,255,0.92)" stroke-width="1.0" fill="none"/>
  <path d="M 52.57 3.51 L 58.07 1.93 L 64.50 1.10 L 68.71 1.97 L 73.77 2.71" stroke="rgba(255,255,255,0.92)" stroke-width="1.0" fill="none"/>
  <path d="M 100.00 3.00 L 97.36 4.37 L 94.80 5.70 L 88.68 6.74 L 82.88 5.67 L 78.80 3.80 L 81.16 8.52 L 79.37 16.57 L 83.62 14.71 L 88.69 14.32 L 94.09 14.45 L 96.64 15.70 L 98.83 17.22 L 98.97 13.86 L 98.50 10.96 L 99.23 7.22 L 100.00 3.00" stroke="rgba(255,255,255,0.92)" stroke-width="1.0" fill="none"/>
  <path d="M 78.80 3.80 L 82.86 3.98 L 88.33 4.22 L 92.87 4.22 L 100.00 3.00" stroke="rgba(255,255,255,0.92)" stroke-width="1.0" fill="none"/>
  <path d="M 78.80 3.80 L 84.30 2.22 L 90.74 1.40 L 94.95 2.27 L 100.00 3.00" stroke="rgba(255,255,255,0.92)" stroke-width="1.0" fill="none"/>
</svg>
