<svg xmlns="http://www.w3.org/2000/svg" viewBox="0 0 100.00 16.49" data-cad-width="762.6" data-cad-height="125.8">
  <path d="M 39.15 9.23 L 88.20 9.23 L 88.20 7.26 L 39.15 7.26" stroke="rgba(255,255,255,0.92)" stroke-width="1.0" fill="none"/>
  <path d="M 76.51 7.26 L 76.80 6.38 L 77.27 5.52 L 77.91 4.71 L 78.71 3.95 L 79.67 3.26 L 80.75 2.65 L 81.95 2.13 L 83.25 1.70 L 84.63 1.37 L 86.06 1.15 L 87.53 1.05 L 89.00 1.05 L 90.47 1.17 L 91.90 1.40 L 93.27 1.73 L 94.56 2.17 L 95.75 2.70 L 96.82 3.32 L 97.76 4.02 L 98.55 4.78 L 99.18 5.60 L 99.63 6.46 L 99.91 7.35 L 100.00 8.25 L 99.91 9.15 L 99.63 10.03 L 99.18 10.89 L 98.55 11.71 L 97.76 12.47 L 96.82 13.17 L 95.75 13.79 L 94.56 14.32 L 93.27 14.76 L 91.90 15.10 L 90.47 15.32 L 89.00 15.44 L 87.53 15.45 L 86.06 15.34 L 84.63 15.12 L 83.25 14.80 L 81.95 14.37 L 80.75 13.84 L 79.67 13.23 L 78.71 12.54 L 77.91 11.78 L 77.27 10.97 L 76.80 10.11 L 76.51 9.23" stroke="rgba(255,255,255,0.92)" stroke-width="1.0" fill="none"/>
  <path d="M 83.82 7.26 L 84.01 6.90 L 84.26 6.56 L 84.57 6.24 L 84.93 5.95 L 85.33 5.69 L 85.77 5.46 L 86.25 5.28 L 86.75 5.14 L 87.28 5.04 L 87.81 4.98 L 88.35 4.97 L 88.89 5.01 L 89.42 5.09 L 89.94 5.21 L 90.43 5.38 L 90.88 5.59 L 91.30 5.83 L 91.68 6.11 L 92.01 6.42 L 92.28 6.75 L 92.50 7.11 L 92.66 7.48 L 92.76 7.86 L 92.79 8.25 L 92.76 8.63 L 92.66 9.01 L 92.50 9.39 L 92.28 9.74 L 92.01 10.07 L 91.68 10.38 L 91.30 10.66 L 90.88 10.91 L 90.43 11.11 L 89.94 11.28 L 89.42 11.41 L 88.89 11.49 L 88.35 11.52 L 87.81 11.51 L 87.28 11.46 L 86.75 11.36 L 86.25 11.21 L 85.77 11.03 L 85.33 10.81 L 84.93 10.55 L 84.57 10.26 L 84.26 9.94 L 84.01 9.59 L 83.82 9.23" stroke="rgba(255,255,255,0.92)" stroke-width="1.0" fill="none"/>
  <circle cx="36.72" cy="8.25" r="2.62" stroke="rgba(255,255,255,0.92)" stroke-width="1.0" fill="none"/>
  <path d="M 34.29 7.26 L 7.87 7.26 L 7.87 9.23 L 34.29 9.23" stroke="rgba(255,255,255,0.92)" stroke-width="1.0" fill="none"/>
  <path d="M 34.67 6.61 L 7.87 6.61 L 7.87 9.89 L 34.67 9.89" stroke="rgba(255,255,255,0.92)" stroke-width="1.0" fill="none"/>
  <path d="M 15.56 9.89 A 7.87 7.87 0 1 1 15.56 6.61" stroke="rgba(255,255,255,0.92)" stroke-width="1.0" fill="none"/>
  <path d="M 10.71 9.89 A 3.28 3.28 0 1 1 10.71 6.61" stroke="rgba(255,255,255,0.92)" stroke-width="1.0" fill="none"/>
</svg>
