<svg xmlns="http://www.w3.org/2000/svg" viewBox="0 0 100 100" width="100" height="100">
  <path d="M 39.15 50.98 L 88.20 50.98 L 88.20 49.02 L 39.15 49.02" stroke="rgba(255,255,255,0.92)" stroke-width="1.0" fill="none"/>
  <path d="M 76.51 49.02 L 76.80 48.13 L 77.27 47.28 L 77.91 46.46 L 78.71 45.71 L 79.67 45.02 L 80.75 44.40 L 81.95 43.88 L 83.25 43.45 L 84.63 43.13 L 86.06 42.91 L 87.53 42.80 L 89.00 42.80 L 90.47 42.92 L 91.90 43.15 L 93.27 43.49 L 94.56 43.92 L 95.75 44.46 L 96.82 45.08 L 97.76 45.77 L 98.55 46.54 L 99.18 47.35 L 99.63 48.21 L 99.91 49.10 L 100.00 50.00 L 99.91 50.90 L 99.63 51.79 L 99.18 52.65 L 98.55 53.46 L 97.76 54.23 L 96.82 54.92 L 95.75 55.54 L 94.56 56.08 L 93.27 56.51 L 91.90 56.85 L 90.47 57.08 L 89.00 57.20 L 87.53 57.20 L 86.06 57.09 L 84.63 56.87 L 83.25 56.55 L 81.95 56.12 L 80.75 55.60 L 79.67 54.98 L 78.71 54.29 L 77.91 53.54 L 77.27 52.72 L 76.80 51.87 L 76.51 50.98" stroke="rgba(255,255,255,0.92)" stroke-width="1.0" fill="none"/>
  <path d="M 83.82 49.02 L 84.01 48.65 L 84.26 48.31 L 84.57 47.99 L 84.93 47.70 L 85.33 47.44 L 85.77 47.22 L 86.25 47.03 L 86.75 46.89 L 87.28 46.79 L 87.81 46.73 L 88.35 46.72 L 88.89 46.76 L 89.42 46.84 L 89.94 46.97 L 90.43 47.13 L 90.88 47.34 L 91.30 47.59 L 91.68 47.86 L 92.01 48.17 L 92.28 48.51 L 92.50 48.86 L 92.66 49.23 L 92.76 49.61 L 92.79 50.00 L 92.76 50.39 L 92.66 50.77 L 92.50 51.14 L 92.28 51.49 L 92.01 51.83 L 91.68 52.14 L 91.30 52.41 L 90.88 52.66 L 90.43 52.87 L 89.94 53.03 L 89.42 53.16 L 88.89 53.24 L 88.35 53.28 L 87.81 53.27 L 87.28 53.21 L 86.75 53.11 L 86.25 52.97 L 85.77 52.78 L 85.33 52.56 L 84.93 52.30 L 84.57 52.01 L 84.26 51.69 L 84.01 51.35 L 83.82 50.98" stroke="rgba(255,255,255,0.92)" stroke-width="1.0" fill="none"/>
  <circle cx="36.72" cy="50.00" r="2.62" stroke="rgba(255,255,255,0.92)" stroke-width="1.0" fill="none"/>
  <path d="M 34.29 49.02 L 7.87 49.02 L 7.87 50.98 L 34.29 50.98" stroke="rgba(255,255,255,0.92)" stroke-width="1.0" fill="none"/>
  <path d="M 34.67 48.36 L 7.87 48.36 L 7.87 51.64 L 34.67 51.64" stroke="rgba(255,255,255,0.92)" stroke-width="1.0" fill="none"/>
  <path d="M 15.56 51.64 A 7.87 7.87 0 1 1 15.56 48.36" stroke="rgba(255,255,255,0.92)" stroke-width="1.0" fill="none"/>
  <path d="M 10.71 51.64 A 3.28 3.28 0 1 1 10.71 48.36" stroke="rgba(255,255,255,0.92)" stroke-width="1.0" fill="none"/>
</svg>
