<svg xmlns="http://www.w3.org/2000/svg" viewBox="0 0 100 100" width="100" height="100">
  <circle cx="50.00" cy="50.00" r="25.33" stroke="rgba(255,255,255,0.92)" stroke-width="1.0" fill="none"/>
  <circle cx="50.00" cy="50.00" r="23.26" stroke="rgba(255,255,255,0.92)" stroke-width="1.0" fill="none"/>
  <path d="M 97.66 59.46 A 56.60 56.60 0 0 1 97.55 42.75" stroke="rgba(255,255,255,0.92)" stroke-width="1.0" fill="none"/>
  <path d="M 77.67 40.52 A 88.19 88.19 0 0 1 77.83 56.31" stroke="rgba(255,255,255,0.92)" stroke-width="1.0" fill="none"/>
  <path d="M 77.88 40.50 A 88.40 88.40 0 0 1 78.05 56.23" stroke="rgba(255,255,255,0.92)" stroke-width="1.0" fill="none"/>
  <path d="M 78.55 40.80 A 89.04 89.04 0 0 1 78.70 56.00" stroke="rgba(255,255,255,0.92)" stroke-width="1.0" fill="none"/>
  <path d="M 77.83 42.27 L 77.83 42.27 L 81.77 40.19 L 97.66 42.02 L 97.91 41.61 L 97.93 41.61 L 97.96 41.61 L 98.98 42.57 L 98.87 58.17 L 97.82 59.12 L 97.55 58.73 L 81.64 60.34 L 77.67 58.06 L 77.67 58.06" stroke="rgba(255,255,255,0.92)" stroke-width="1.0" fill="none"/>
  <path d="M 78.05 42.34 L 81.79 40.40 L 97.60 42.22 L 97.63 42.23" stroke="rgba(255,255,255,0.92)" stroke-width="1.0" fill="none"/>
  <path d="M 97.52 58.52 L 97.49 58.52 L 81.66 60.14 L 77.83 57.92" stroke="rgba(255,255,255,0.92)" stroke-width="1.0" fill="none"/>
  <path d="M 78.70 42.58 L 81.85 41.03 L 97.42 42.83 L 98.14 42.71 L 98.04 58.04 L 97.32 57.91 L 81.74 59.51 L 78.55 57.78" stroke="rgba(255,255,255,0.92)" stroke-width="1.0" fill="none"/>
  <path d="M 57.47 210.04 A 56.60 56.60 0 0 1 40.76 210.15" stroke="rgba(255,255,255,0.92)" stroke-width="1.0" fill="none"/>
  <path d="M 41.43 -97.30 A 88.19 88.19 0 0 1 57.22 -97.46" stroke="rgba(255,255,255,0.92)" stroke-width="1.0" fill="none"/>
  <path d="M 41.41 -97.52 A 88.40 88.40 0 0 1 57.15 -97.68" stroke="rgba(255,255,255,0.92)" stroke-width="1.0" fill="none"/>
  <path d="M 41.71 -98.18 A 89.04 89.04 0 0 1 56.91 -98.33" stroke="rgba(255,255,255,0.92)" stroke-width="1.0" fill="none"/>
  <path d="M 57.22 78.36 L 57.22 78.36 L 59.30 82.30 L 57.47 98.19 L 57.88 98.45 L 57.88 98.46 L 57.88 98.49 L 56.92 99.51 L 41.32 99.41 L 40.37 98.35 L 40.76 98.08 L 39.14 82.17 L 41.43 78.20 L 41.43 78.20" stroke="rgba(255,255,255,0.92)" stroke-width="1.0" fill="none"/>
  <path d="M 57.15 78.58 L 59.09 82.32 L 57.27 98.13 L 57.26 98.16" stroke="rgba(255,255,255,0.92)" stroke-width="1.0" fill="none"/>
  <path d="M 40.97 98.05 L 40.96 98.03 L 39.35 82.19 L 41.57 78.37" stroke="rgba(255,255,255,0.92)" stroke-width="1.0" fill="none"/>
  <path d="M 56.91 79.23 L 58.46 82.38 L 56.66 97.95 L 56.78 98.67 L 41.45 98.57 L 41.57 97.86 L 39.98 82.27 L 41.71 79.08" stroke="rgba(255,255,255,0.92)" stroke-width="1.0" fill="none"/>
  <path d="M 2.45 42.75 A 56.60 56.60 0 0 1 2.34 59.46" stroke="rgba(255,255,255,0.92)" stroke-width="1.0" fill="none"/>
  <path d="M 22.17 56.31 A 88.19 88.19 0 0 1 22.33 40.52" stroke="rgba(255,255,255,0.92)" stroke-width="1.0" fill="none"/>
  <path d="M 21.95 56.23 A 88.40 88.40 0 0 1 22.12 40.50" stroke="rgba(255,255,255,0.92)" stroke-width="1.0" fill="none"/>
  <path d="M 21.30 56.00 A 89.04 89.04 0 0 1 21.45 40.80" stroke="rgba(255,255,255,0.92)" stroke-width="1.0" fill="none"/>
  <path d="M 22.17 42.27 L 22.17 42.27 L 18.23 40.19 L 2.34 42.02 L 2.09 41.61 L 2.07 41.61 L 2.04 41.61 L 1.02 42.57 L 1.13 58.17 L 2.18 59.12 L 2.45 58.73 L 18.36 60.34 L 22.33 58.06 L 22.33 58.06" stroke="rgba(255,255,255,0.92)" stroke-width="1.0" fill="none"/>
  <path d="M 21.95 42.34 L 18.21 40.40 L 2.40 42.22 L 2.37 42.23" stroke="rgba(255,255,255,0.92)" stroke-width="1.0" fill="none"/>
  <path d="M 2.48 58.52 L 2.51 58.52 L 18.34 60.14 L 22.17 57.92" stroke="rgba(255,255,255,0.92)" stroke-width="1.0" fill="none"/>
  <path d="M 21.30 42.58 L 18.15 41.03 L 2.58 42.83 L 1.86 42.71 L 1.96 58.04 L 2.68 57.91 L 18.26 59.51 L 21.45 57.78" stroke="rgba(255,255,255,0.92)" stroke-width="1.0" fill="none"/>
  <path d="M 40.76 -110.15 A 56.60 56.60 0 0 1 57.47 -110.04" stroke="rgba(255,255,255,0.92)" stroke-width="1.0" fill="none"/>
  <path d="M 57.22 197.46 A 88.19 88.19 0 0 1 41.43 197.30" stroke="rgba(255,255,255,0.92)" stroke-width="1.0" fill="none"/>
  <path d="M 57.15 197.68 A 88.40 88.40 0 0 1 41.41 197.52" stroke="rgba(255,255,255,0.92)" stroke-width="1.0" fill="none"/>
  <path d="M 56.91 198.33 A 89.04 89.04 0 0 1 41.71 198.18" stroke="rgba(255,255,255,0.92)" stroke-width="1.0" fill="none"/>
  <path d="M 57.22 21.64 L 57.22 21.64 L 59.30 17.70 L 57.47 1.81 L 57.88 1.55 L 57.88 1.54 L 57.88 1.51 L 56.92 0.49 L 41.32 0.59 L 40.37 1.65 L 40.76 1.92 L 39.14 17.83 L 41.43 21.80 L 41.43 21.80" stroke="rgba(255,255,255,0.92)" stroke-width="1.0" fill="none"/>
  <path d="M 57.15 21.42 L 59.09 17.68 L 57.27 1.87 L 57.26 1.84" stroke="rgba(255,255,255,0.92)" stroke-width="1.0" fill="none"/>
  <path d="M 40.97 1.95 L 40.96 1.97 L 39.35 17.81 L 41.57 21.63" stroke="rgba(255,255,255,0.92)" stroke-width="1.0" fill="none"/>
  <path d="M 56.91 20.77 L 58.46 17.62 L 56.66 2.05 L 56.78 1.33 L 41.45 1.43 L 41.57 2.14 L 39.98 17.73 L 41.71 20.92" stroke="rgba(255,255,255,0.92)" stroke-width="1.0" fill="none"/>
  <path d="M 58.94 8.74 L 58.22 4.73 L 57.97 3.67 L 57.65 2.46 L 57.47 1.81 L 57.61 1.80 L 57.72 1.75 L 57.77 1.71 L 57.86 1.58 L 57.88 1.42 L 57.82 1.19 L 57.71 0.96 L 57.59 0.81 L 57.41 0.66 L 57.11 0.52 L 56.69 0.47 L 55.98 0.41 L 55.05 0.34 L 54.34 0.15 L 53.08 0.22 L 51.55 0.17 L 49.96 0.15 L 48.53 0.15 L 46.70 0.20 L 45.84 0.24 L 44.55 0.31 L 43.88 0.36 L 43.25 0.41 L 42.78 0.45 L 42.19 0.51 L 41.32 0.59 L 40.97 0.69 L 40.78 0.81 L 40.64 0.94 L 40.52 1.10 L 40.46 1.23 L 40.41 1.36 L 40.39 1.47 L 40.38 1.55 L 40.37 1.63 L 40.39 1.70 L 40.43 1.78 L 40.45 1.80 L 40.52 1.86 L 40.59 1.90 L 40.68 1.92 L 40.76 1.92 L 40.60 2.52 L 40.39 3.36 L 40.19 4.18 L 39.73 6.48 L 39.56 7.56 L 39.25 10.04 L 39.10 12.18 L 39.03 14.59 L 39.07 16.57 L 39.14 17.83 L 39.31 18.57 L 39.52 19.18 L 39.90 19.96 L 40.36 20.68 L 40.82 21.22 L 41.43 21.80 L 57.22 21.64 L 57.56 21.32 L 58.02 20.78 L 58.44 20.17 L 59.08 18.74 L 59.28 17.85 L 59.33 17.06 L 59.37 15.67 L 59.29 12.31 L 59.13 10.36 Z" stroke="rgba(255,255,255,0.92)" stroke-width="1.0" fill="none"/>
  <path d="M 9.27 40.55 L 5.26 41.27 L 4.20 41.52 L 2.99 41.83 L 2.34 42.02 L 2.33 41.88 L 2.29 41.77 L 2.24 41.71 L 2.11 41.63 L 1.95 41.61 L 1.72 41.67 L 1.50 41.78 L 1.35 41.89 L 1.20 42.08 L 1.06 42.38 L 1.00 42.80 L 0.94 43.51 L 0.87 44.44 L 0.68 45.15 L 0.76 46.41 L 0.70 47.94 L 0.68 49.53 L 0.69 50.96 L 0.73 52.79 L 0.77 53.65 L 0.85 54.93 L 0.89 55.61 L 0.94 56.24 L 0.98 56.71 L 1.04 57.30 L 1.13 58.17 L 1.22 58.52 L 1.34 58.71 L 1.47 58.85 L 1.64 58.97 L 1.76 59.03 L 1.89 59.08 L 2.00 59.10 L 2.09 59.11 L 2.17 59.12 L 2.23 59.10 L 2.31 59.06 L 2.33 59.04 L 2.39 58.97 L 2.43 58.90 L 2.45 58.80 L 2.45 58.73 L 3.05 58.89 L 3.89 59.10 L 4.71 59.30 L 7.01 59.76 L 8.10 59.93 L 10.57 60.24 L 12.71 60.39 L 15.13 60.46 L 17.10 60.41 L 18.36 60.34 L 19.10 60.18 L 19.72 59.96 L 20.49 59.59 L 21.21 59.12 L 21.75 58.67 L 22.33 58.06 L 22.17 42.27 L 21.85 41.93 L 21.31 41.47 L 20.70 41.05 L 19.27 40.41 L 18.38 40.21 L 17.59 40.16 L 16.20 40.12 L 12.84 40.20 L 10.89 40.35 Z" stroke="rgba(255,255,255,0.92)" stroke-width="1.0" fill="none"/>
  <path d="M 58.94 91.26 L 58.22 95.27 L 57.97 96.33 L 57.65 97.54 L 57.47 98.19 L 57.61 98.20 L 57.72 98.25 L 57.77 98.29 L 57.86 98.42 L 57.88 98.58 L 57.82 98.81 L 57.71 99.04 L 57.59 99.19 L 57.41 99.34 L 57.11 99.48 L 56.69 99.53 L 55.98 99.59 L 55.05 99.66 L 54.34 99.85 L 53.08 99.78 L 51.55 99.83 L 49.96 99.85 L 48.53 99.85 L 46.70 99.80 L 45.84 99.76 L 44.55 99.69 L 43.88 99.64 L 43.25 99.59 L 42.78 99.55 L 42.19 99.49 L 41.32 99.41 L 40.97 99.31 L 40.78 99.19 L 40.64 99.06 L 40.52 98.90 L 40.46 98.77 L 40.41 98.64 L 40.39 98.53 L 40.38 98.45 L 40.37 98.37 L 40.39 98.30 L 40.43 98.22 L 40.45 98.20 L 40.52 98.14 L 40.59 98.10 L 40.68 98.08 L 40.76 98.08 L 40.60 97.48 L 40.39 96.64 L 40.19 95.82 L 39.73 93.52 L 39.56 92.44 L 39.25 89.96 L 39.10 87.82 L 39.03 85.41 L 39.07 83.43 L 39.14 82.17 L 39.31 81.43 L 39.52 80.82 L 39.90 80.04 L 40.36 79.32 L 40.82 78.78 L 41.43 78.20 L 57.22 78.36 L 57.56 78.68 L 58.02 79.22 L 58.44 79.83 L 59.08 81.26 L 59.28 82.15 L 59.33 82.94 L 59.37 84.33 L 59.29 87.69 L 59.13 89.64 Z" stroke="rgba(255,255,255,0.92)" stroke-width="1.0" fill="none"/>
  <path d="M 90.73 40.55 L 94.74 41.27 L 95.80 41.52 L 97.01 41.83 L 97.66 42.02 L 97.67 41.88 L 97.71 41.77 L 97.76 41.71 L 97.89 41.63 L 98.05 41.61 L 98.28 41.67 L 98.50 41.78 L 98.65 41.89 L 98.80 42.08 L 98.94 42.38 L 99.00 42.80 L 99.06 43.51 L 99.13 44.44 L 99.32 45.15 L 99.24 46.41 L 99.30 47.94 L 99.32 49.53 L 99.31 50.96 L 99.27 52.79 L 99.23 53.65 L 99.15 54.93 L 99.11 55.61 L 99.06 56.24 L 99.02 56.71 L 98.96 57.30 L 98.87 58.17 L 98.78 58.52 L 98.66 58.71 L 98.53 58.85 L 98.36 58.97 L 98.24 59.03 L 98.11 59.08 L 98.00 59.10 L 97.91 59.11 L 97.83 59.12 L 97.77 59.10 L 97.69 59.06 L 97.67 59.04 L 97.61 58.97 L 97.57 58.90 L 97.55 58.80 L 97.55 58.73 L 96.95 58.89 L 96.11 59.10 L 95.29 59.30 L 92.99 59.76 L 91.90 59.93 L 89.43 60.24 L 87.29 60.39 L 84.87 60.46 L 82.90 60.41 L 81.64 60.34 L 80.90 60.18 L 80.28 59.96 L 79.51 59.59 L 78.79 59.12 L 78.25 58.67 L 77.67 58.06 L 77.83 42.27 L 78.15 41.93 L 78.69 41.47 L 79.30 41.05 L 80.73 40.41 L 81.62 40.21 L 82.41 40.16 L 83.80 40.12 L 87.16 40.20 L 89.11 40.35 Z" stroke="rgba(255,255,255,0.92)" stroke-width="1.0" fill="none"/>
  <path d="M 75.33 49.99 L 75.09 46.52 L 74.43 43.29 L 72.86 39.07 L 71.57 36.71 L 69.82 34.21 L 67.50 31.67 L 66.20 30.51 L 64.13 28.96 L 61.39 27.36 L 59.10 26.35 L 57.42 25.77 L 55.21 25.20 L 52.57 24.79 L 50.58 24.66 L 47.78 24.75 L 45.30 25.10 L 42.51 25.79 L 39.92 26.75 L 37.33 28.05 L 34.87 29.67 L 32.21 31.96 L 30.29 34.07 L 29.02 35.80 L 27.74 37.90 L 26.53 40.44 L 25.33 44.24 L 24.78 47.64 L 24.81 52.67 L 24.96 53.82 L 26.67 59.87 L 28.46 63.32 L 31.65 67.45 L 35.64 70.86 L 38.40 72.51 L 43.53 74.48 L 47.16 75.16 L 54.97 74.83 L 57.65 74.14 L 61.54 72.54 L 64.15 71.00 L 67.66 68.15 L 70.65 64.66 L 72.22 62.15 L 72.61 61.41 L 74.47 56.55 Z" stroke="rgba(255,255,255,0.92)" stroke-width="1.0" fill="none"/>
</svg>
