<svg xmlns="http://www.w3.org/2000/svg" viewBox="0 0 100 100" width="100" height="100">
  <path d="M 27.35 11.05 L 19.55 11.05 L 18.70 11.90 L 18.70 29.19" stroke="rgba(255,255,255,0.92)" stroke-width="1.0" fill="none"/>
  <path d="M 18.70 49.81 L 18.70 92.77 L 19.55 93.62 L 91.90 93.62 L 92.75 92.77 L 92.75 79.59" stroke="rgba(255,255,255,0.92)" stroke-width="1.0" fill="none"/>
  <path d="M 92.75 62.96 L 92.75 46.32" stroke="rgba(255,255,255,0.92)" stroke-width="1.0" fill="none"/>
  <path d="M 92.75 26.76 L 92.75 11.90 L 91.90 11.05 L 88.58 11.05" stroke="rgba(255,255,255,0.92)" stroke-width="1.0" fill="none"/>
  <path d="M 62.36 11.05 L 53.56 11.05" stroke="rgba(255,255,255,0.92)" stroke-width="1.0" fill="none"/>
  <path d="M 1.68 94.89 L 74.88 94.89" stroke="rgba(255,255,255,0.92)" stroke-width="1.0" fill="none"/>
  <path d="M 74.88 94.89 L 92.75 94.89" stroke="rgba(255,255,255,0.92)" stroke-width="1.0" fill="none"/>
  <path d="M 74.88 97.45 A 1.28 1.28 0 0 1 73.60 96.17" stroke="rgba(255,255,255,0.92)" stroke-width="1.0" fill="none"/>
  <path d="M 74.88 100.00 L 97.86 100.00" stroke="rgba(255,255,255,0.92)" stroke-width="1.0" fill="none"/>
  <path d="M 73.60 98.72 A 1.28 1.28 0 0 1 74.88 97.45" stroke="rgba(255,255,255,0.92)" stroke-width="1.0" fill="none"/>
  <path d="M 97.86 97.45 A 1.28 1.28 0 0 1 99.14 98.72" stroke="rgba(255,255,255,0.92)" stroke-width="1.0" fill="none"/>
  <path d="M 17.43 93.62 A 1.28 1.28 0 0 1 18.70 92.34" stroke="rgba(255,255,255,0.92)" stroke-width="1.0" fill="none"/>
  <path d="M 94.03 93.62 L 94.03 79.54" stroke="rgba(255,255,255,0.92)" stroke-width="1.0" fill="none"/>
  <path d="M 94.03 62.76 L 94.03 11.05" stroke="rgba(255,255,255,0.92)" stroke-width="1.0" fill="none"/>
  <path d="M 99.14 98.72 L 99.14 5.95" stroke="rgba(255,255,255,0.92)" stroke-width="1.0" fill="none"/>
  <path d="M 73.60 98.72 L 73.60 96.17" stroke="rgba(255,255,255,0.92)" stroke-width="1.0" fill="none"/>
  <path d="M 99.14 5.95 A 1.28 1.28 0 0 1 97.86 7.22" stroke="rgba(255,255,255,0.92)" stroke-width="1.0" fill="none"/>
  <path d="M 92.75 92.34 A 1.28 1.28 0 0 1 94.03 93.62" stroke="rgba(255,255,255,0.92)" stroke-width="1.0" fill="none"/>
  <path d="M 94.03 11.05 A 1.28 1.28 0 0 1 92.75 12.33" stroke="rgba(255,255,255,0.92)" stroke-width="1.0" fill="none"/>
  <path d="M 17.43 93.62 L 17.43 50.05" stroke="rgba(255,255,255,0.92)" stroke-width="1.0" fill="none"/>
  <path d="M 17.43 29.81 L 17.43 28.93" stroke="rgba(255,255,255,0.92)" stroke-width="1.0" fill="none"/>
  <path d="M 0.40 93.62 L 0.40 5.95" stroke="rgba(255,255,255,0.92)" stroke-width="1.0" fill="none"/>
  <path d="M 17.43 28.93 L 17.43 11.05" stroke="rgba(255,255,255,0.92)" stroke-width="1.0" fill="none"/>
  <path d="M 16.15 27.65 A 1.28 1.28 0 0 1 17.43 28.93" stroke="rgba(255,255,255,0.92)" stroke-width="1.0" fill="none"/>
  <path d="M 12.32 28.93 L 12.32 5.95" stroke="rgba(255,255,255,0.92)" stroke-width="1.0" fill="none"/>
  <path d="M 18.70 12.33 A 1.28 1.28 0 0 1 17.43 11.05" stroke="rgba(255,255,255,0.92)" stroke-width="1.0" fill="none"/>
  <path d="M 30.06 -271.13 A 143.86 143.86 0 0 1 53.49 -270.52" stroke="rgba(255,255,255,0.92)" stroke-width="1.0" fill="none"/>
  <path d="M 33.72 32.41 A 10.43 10.43 0 0 1 26.51 36.05" stroke="rgba(255,255,255,0.92)" stroke-width="1.0" fill="none"/>
  <path d="M 26.51 -7.93 A 12.55 12.55 0 0 1 30.06 -8.82" stroke="rgba(255,255,255,0.92)" stroke-width="1.0" fill="none"/>
  <path d="M 27.08 14.01 A 100.52 100.52 0 0 1 27.17 16.64" stroke="rgba(255,255,255,0.92)" stroke-width="1.0" fill="none"/>
  <path d="M 27.08 20.46 A 1.90 1.90 0 0 1 27.16 23.09" stroke="rgba(255,255,255,0.92)" stroke-width="1.0" fill="none"/>
  <path d="M 26.51 17.40 A 13.13 13.13 0 0 1 27.16 12.12" stroke="rgba(255,255,255,0.92)" stroke-width="1.0" fill="none"/>
  <path d="M 27.16 32.21 A 69.64 69.64 0 0 1 26.51 37.50" stroke="rgba(255,255,255,0.92)" stroke-width="1.0" fill="none"/>
  <path d="M 27.32 182.70 A 76.04 76.04 0 0 1 26.51 182.59" stroke="rgba(255,255,255,0.92)" stroke-width="1.0" fill="none"/>
  <path d="M 26.51 11.36 A 10.43 10.43 0 0 1 27.29 11.45" stroke="rgba(255,255,255,0.92)" stroke-width="1.0" fill="none"/>
  <path d="M 29.81 37.96 A 8.27 8.27 0 0 1 26.51 30.47" stroke="rgba(255,255,255,0.92)" stroke-width="1.0" fill="none"/>
  <path d="M 26.51 20.55 A 21.09 21.09 0 0 1 27.08 29.55" stroke="rgba(255,255,255,0.92)" stroke-width="1.0" fill="none"/>
  <path d="M 70.17 32.41 A 10.43 10.43 0 0 1 62.96 36.05" stroke="rgba(255,255,255,0.92)" stroke-width="1.0" fill="none"/>
  <path d="M 84.50 3.13 A 6.65 6.65 0 0 1 88.69 3.89" stroke="rgba(255,255,255,0.92)" stroke-width="1.0" fill="none"/>
  <path d="M 88.69 36.34 A 10.43 10.43 0 0 1 81.48 32.70" stroke="rgba(255,255,255,0.92)" stroke-width="1.0" fill="none"/>
  <path d="M 62.96 -55.96 A 36.44 36.44 0 0 1 73.00 -56.71" stroke="rgba(255,255,255,0.92)" stroke-width="1.0" fill="none"/>
  <path d="M 53.49 22.65 A 7.52 7.52 0 0 1 53.13 16.31" stroke="rgba(255,255,255,0.92)" stroke-width="1.0" fill="none"/>
  <path d="M 63.75 18.72 A 16.10 16.10 0 0 1 62.96 25.84" stroke="rgba(255,255,255,0.92)" stroke-width="1.0" fill="none"/>
  <path d="M 62.96 16.95 A 8.27 8.27 0 0 1 66.26 9.46" stroke="rgba(255,255,255,0.92)" stroke-width="1.0" fill="none"/>
  <path d="M 50.19 9.74 A 8.27 8.27 0 0 1 53.49 17.23" stroke="rgba(255,255,255,0.92)" stroke-width="1.0" fill="none"/>
  <path d="M 52.62 26.91 A 7.80 7.80 0 0 1 52.91 24.08" stroke="rgba(255,255,255,0.92)" stroke-width="1.0" fill="none"/>
  <path d="M 52.62 20.02 A 7.15 7.15 0 0 1 53.13 23.75" stroke="rgba(255,255,255,0.92)" stroke-width="1.0" fill="none"/>
  <path d="M 63.75 25.23 A 2.33 2.33 0 0 1 63.83 22.27" stroke="rgba(255,255,255,0.92)" stroke-width="1.0" fill="none"/>
  <path d="M 84.50 46.94 A 16.50 16.50 0 0 1 73.00 47.22" stroke="rgba(255,255,255,0.92)" stroke-width="1.0" fill="none"/>
  <path d="M 86.88 11.17 A 8.27 8.27 0 0 1 87.88 12.73" stroke="rgba(255,255,255,0.92)" stroke-width="1.0" fill="none"/>
  <path d="M 87.86 21.03 A 1.95 1.95 0 0 1 88.33 19.20" stroke="rgba(255,255,255,0.92)" stroke-width="1.0" fill="none"/>
  <path d="M 87.88 12.73 A 8.27 8.27 0 0 1 88.69 17.23" stroke="rgba(255,255,255,0.92)" stroke-width="1.0" fill="none"/>
  <path d="M 88.69 27.96 A 22.00 22.00 0 0 1 87.99 24.69" stroke="rgba(255,255,255,0.92)" stroke-width="1.0" fill="none"/>
  <path d="M 87.82 20.02 A 7.15 7.15 0 0 1 88.33 23.75" stroke="rgba(255,255,255,0.92)" stroke-width="1.0" fill="none"/>
  <path d="M 53.49 36.34 A 10.43 10.43 0 0 1 46.28 32.70" stroke="rgba(255,255,255,0.92)" stroke-width="1.0" fill="none"/>
  <path d="M 88.69 30.75 A 8.27 8.27 0 0 1 85.39 38.24" stroke="rgba(255,255,255,0.92)" stroke-width="1.0" fill="none"/>
  <path d="M 81.48 15.29 A 10.43 10.43 0 0 1 88.69 11.65" stroke="rgba(255,255,255,0.92)" stroke-width="1.0" fill="none"/>
  <path d="M 53.51 32.22 A 8.27 8.27 0 0 1 50.19 38.24" stroke="rgba(255,255,255,0.92)" stroke-width="1.0" fill="none"/>
  <path d="M 66.26 37.96 A 8.27 8.27 0 0 1 62.99 32.41" stroke="rgba(255,255,255,0.92)" stroke-width="1.0" fill="none"/>
  <path d="M 63.30 22.28 A 14.04 14.04 0 0 1 63.83 27.07" stroke="rgba(255,255,255,0.92)" stroke-width="1.0" fill="none"/>
  <path d="M 87.82 27.65 A 19.37 19.37 0 0 1 88.69 20.81" stroke="rgba(255,255,255,0.92)" stroke-width="1.0" fill="none"/>
  <path d="M 35.57 -60.76 A 66.02 66.02 0 0 1 54.67 -63.88" stroke="rgba(255,255,255,0.92)" stroke-width="1.0" fill="none"/>
  <path d="M 54.67 170.93 A 51.41 51.41 0 0 1 25.97 162.92" stroke="rgba(255,255,255,0.92)" stroke-width="1.0" fill="none"/>
  <path d="M 54.67 166.47 A 49.25 49.25 0 0 1 27.60 156.42" stroke="rgba(255,255,255,0.92)" stroke-width="1.0" fill="none"/>
  <path d="M 39.59 -94.44 A 82.28 82.28 0 0 1 65.32 -96.06" stroke="rgba(255,255,255,0.92)" stroke-width="1.0" fill="none"/>
  <path d="M 90.30 136.31 A 27.40 27.40 0 0 1 72.90 142.36" stroke="rgba(255,255,255,0.92)" stroke-width="1.0" fill="none"/>
  <path d="M 78.95 41.02 A 30.93 30.93 0 0 1 92.42 32.47" stroke="rgba(255,255,255,0.92)" stroke-width="1.0" fill="none"/>
  <path d="M 18.70 9.78 L 27.27 9.78" stroke="rgba(255,255,255,0.92)" stroke-width="1.0" fill="none"/>
  <path d="M 53.46 9.78 L 62.31 9.78" stroke="rgba(255,255,255,0.92)" stroke-width="1.0" fill="none"/>
  <path d="M 88.48 9.78 L 92.75 9.78" stroke="rgba(255,255,255,0.92)" stroke-width="1.0" fill="none"/>
  <path d="M 1.68 4.67 L 34.63 4.67" stroke="rgba(255,255,255,0.92)" stroke-width="1.0" fill="none"/>
  <path d="M 46.68 4.67 L 70.61 4.67" stroke="rgba(255,255,255,0.92)" stroke-width="1.0" fill="none"/>
  <path d="M 80.52 4.67 L 97.86 4.67" stroke="rgba(255,255,255,0.92)" stroke-width="1.0" fill="none"/>
  <path d="M 1.68 7.22 A 1.28 1.28 0 0 1 0.40 5.95" stroke="rgba(255,255,255,0.92)" stroke-width="1.0" fill="none"/>
  <path d="M 13.60 30.20 L 16.15 30.20" stroke="rgba(255,255,255,0.92)" stroke-width="1.0" fill="none"/>
  <path d="M 12.32 28.93 A 1.28 1.28 0 0 1 13.60 27.65" stroke="rgba(255,255,255,0.92)" stroke-width="1.0" fill="none"/>
  <path d="M 13.60 7.22 A 1.28 1.28 0 0 1 12.32 5.95" stroke="rgba(255,255,255,0.92)" stroke-width="1.0" fill="none"/>
  <path d="M 26.51 11.34 A 10.43 10.43 0 0 1 33.72 14.98" stroke="rgba(255,255,255,0.92)" stroke-width="1.0" fill="none"/>
  <path d="M 27.16 23.25 A 1.90 1.90 0 0 1 27.08 25.88" stroke="rgba(255,255,255,0.92)" stroke-width="1.0" fill="none"/>
  <path d="M 53.49 30.16 A 8.27 8.27 0 0 1 50.19 37.65" stroke="rgba(255,255,255,0.92)" stroke-width="1.0" fill="none"/>
  <path d="M 46.28 14.69 A 10.43 10.43 0 0 1 53.49 11.05" stroke="rgba(255,255,255,0.92)" stroke-width="1.0" fill="none"/>
  <path d="M 12.98 4.83 L 18.70 9.78" stroke="rgba(255,255,255,0.92)" stroke-width="1.0" fill="none"/>
  <path d="M 17.43 11.05 L 12.52 5.26" stroke="rgba(255,255,255,0.92)" stroke-width="1.0" fill="none"/>
  <path d="M 98.47 4.83 L 92.75 9.78" stroke="rgba(255,255,255,0.92)" stroke-width="1.0" fill="none"/>
  <path d="M 94.03 11.05 L 98.93 5.26" stroke="rgba(255,255,255,0.92)" stroke-width="1.0" fill="none"/>
  <path d="M 98.47 99.84 L 92.75 94.89" stroke="rgba(255,255,255,0.92)" stroke-width="1.0" fill="none"/>
  <path d="M 94.03 93.62 L 98.93 99.41" stroke="rgba(255,255,255,0.92)" stroke-width="1.0" fill="none"/>
  <path d="M 0.40 93.62 A 1.28 1.28 0 0 1 1.68 92.34" stroke="rgba(255,255,255,0.92)" stroke-width="1.0" fill="none"/>
  <path d="M 0.86 29.25 L 0.86 24.15" stroke="rgba(255,255,255,0.92)" stroke-width="1.0" fill="none"/>
  <path d="M 0.86 29.25 A 1.28 1.28 0 0 1 2.14 27.97" stroke="rgba(255,255,255,0.92)" stroke-width="1.0" fill="none"/>
  <path d="M 99.60 29.25 L 99.60 24.15" stroke="rgba(255,255,255,0.92)" stroke-width="1.0" fill="none"/>
  <path d="M 99.60 21.60 L 99.60 6.28" stroke="rgba(255,255,255,0.92)" stroke-width="1.0" fill="none"/>
  <path d="M 99.60 24.15 A 1.28 1.28 0 0 1 98.32 25.43" stroke="rgba(255,255,255,0.92)" stroke-width="1.0" fill="none"/>
  <path d="M 99.60 6.28 A 1.28 1.28 0 0 1 98.32 7.55" stroke="rgba(255,255,255,0.92)" stroke-width="1.0" fill="none"/>
  <path d="M 98.32 27.97 A 1.28 1.28 0 0 1 99.60 29.25" stroke="rgba(255,255,255,0.92)" stroke-width="1.0" fill="none"/>
  <path d="M 98.32 20.32 A 1.28 1.28 0 0 1 99.60 21.60" stroke="rgba(255,255,255,0.92)" stroke-width="1.0" fill="none"/>
  <path d="M 74.06 21.60 L 74.06 6.28" stroke="rgba(255,255,255,0.92)" stroke-width="1.0" fill="none"/>
  <path d="M 17.89 21.60 L 17.89 6.28" stroke="rgba(255,255,255,0.92)" stroke-width="1.0" fill="none"/>
  <path d="M 16.61 20.32 A 1.28 1.28 0 0 1 17.89 21.60" stroke="rgba(255,255,255,0.92)" stroke-width="1.0" fill="none"/>
  <path d="M 74.06 17.77 L 19.16 17.77" stroke="rgba(255,255,255,0.92)" stroke-width="1.0" fill="none"/>
  <path d="M 19.16 20.32 A 1.28 1.28 0 0 1 17.89 19.05" stroke="rgba(255,255,255,0.92)" stroke-width="1.0" fill="none"/>
  <path d="M 98.32 22.87 L 2.14 22.87" stroke="rgba(255,255,255,0.92)" stroke-width="1.0" fill="none"/>
  <path d="M 12.78 21.60 A 1.28 1.28 0 0 1 14.06 20.32" stroke="rgba(255,255,255,0.92)" stroke-width="1.0" fill="none"/>
  <path d="M 2.14 25.43 A 1.28 1.28 0 0 1 0.86 24.15" stroke="rgba(255,255,255,0.92)" stroke-width="1.0" fill="none"/>
  <path d="M 74.06 21.60 A 1.28 1.28 0 0 1 75.34 20.32" stroke="rgba(255,255,255,0.92)" stroke-width="1.0" fill="none"/>
  <path d="M 98.32 5.00 L 75.34 5.00" stroke="rgba(255,255,255,0.92)" stroke-width="1.0" fill="none"/>
  <path d="M 60.71 5.00 L 50.29 5.00" stroke="rgba(255,255,255,0.92)" stroke-width="1.0" fill="none"/>
  <path d="M 25.69 5.00 L 14.06 5.00" stroke="rgba(255,255,255,0.92)" stroke-width="1.0" fill="none"/>
  <path d="M 75.34 7.55 A 1.28 1.28 0 0 1 74.06 6.28" stroke="rgba(255,255,255,0.92)" stroke-width="1.0" fill="none"/>
  <path d="M 17.89 6.28 A 1.28 1.28 0 0 1 16.61 7.55" stroke="rgba(255,255,255,0.92)" stroke-width="1.0" fill="none"/>
  <path d="M 14.06 7.55 A 1.28 1.28 0 0 1 12.78 6.28" stroke="rgba(255,255,255,0.92)" stroke-width="1.0" fill="none"/>
  <path d="M 98.32 30.53 L 2.14 30.53" stroke="rgba(255,255,255,0.92)" stroke-width="1.0" fill="none"/>
  <path d="M 17.54 32.14 L 17.54 32.25 L 17.54 32.35 Z" stroke="rgba(255,255,255,0.92)" stroke-width="1.0" fill="none"/>
  <path d="M 17.54 32.14 L 17.54 32.25 L 17.54 32.35 Z" stroke="rgba(255,255,255,0.92)" stroke-width="1.0" fill="none"/>
  <path d="M 19.52 32.14 L 19.52 30.53" stroke="rgba(255,255,255,0.92)" stroke-width="1.0" fill="none"/>
  <path d="M 17.82 32.14 L 17.82 30.53" stroke="rgba(255,255,255,0.92)" stroke-width="1.0" fill="none"/>
  <path d="M 19.52 31.93 L 19.49 31.92 L 19.47 31.92 L 19.44 31.91 L 19.41 31.90 L 19.38 31.89 L 19.34 31.89 L 19.31 31.88 L 19.28 31.87 L 19.24 31.87 L 19.21 31.86 L 19.17 31.86 L 19.14 31.85 L 19.10 31.85 L 19.06 31.84 L 19.03 31.84 L 18.99 31.84 L 18.95 31.83 L 18.91 31.83 L 18.87 31.83 L 18.83 31.83 L 18.79 31.83 L 18.75 31.83 L 18.71 31.83 L 18.67 31.83 L 18.63 31.83 L 18.59 31.83 L 18.55 31.83 L 18.51 31.83 L 18.47 31.83 L 18.43 31.83 L 18.39 31.83 L 18.35 31.84 L 18.32 31.84 L 18.28 31.84 L 18.24 31.85 L 18.20 31.85 L 18.17 31.86 L 18.13 31.86 L 18.10 31.87 L 18.06 31.87 L 18.03 31.88 L 18.00 31.89 L 17.96 31.89 L 17.93 31.90 L 17.90 31.91 L 17.87 31.92 L 17.85 31.92 L 17.82 31.93" stroke="rgba(255,255,255,0.92)" stroke-width="1.0" fill="none"/>
  <path d="M 17.82 27.00 A 2.71 2.71 0 0 1 19.52 27.00" stroke="rgba(255,255,255,0.92)" stroke-width="1.0" fill="none"/>
  <path d="M 19.80 32.14 L 19.80 32.35" stroke="rgba(255,255,255,0.92)" stroke-width="1.0" fill="none"/>
  <path d="M 17.54 32.14 L 17.54 32.35" stroke="rgba(255,255,255,0.92)" stroke-width="1.0" fill="none"/>
  <path d="M 19.80 32.35 L 19.80 32.33 L 19.79 32.31 L 19.78 32.29 L 19.76 32.27 L 19.74 32.25 L 19.72 32.23 L 19.68 32.21 L 19.65 32.19 L 19.61 32.18 L 19.57 32.16 L 19.52 32.14 L 19.47 32.13 L 19.42 32.12 L 19.36 32.10 L 19.30 32.09 L 19.24 32.08 L 19.17 32.07 L 19.10 32.06 L 19.03 32.05 L 18.96 32.05 L 18.89 32.04 L 18.82 32.04 L 18.74 32.04 L 18.67 32.04 L 18.60 32.04 L 18.52 32.04 L 18.45 32.04 L 18.38 32.05 L 18.31 32.05 L 18.24 32.06 L 18.17 32.07 L 18.10 32.08 L 18.04 32.09 L 17.98 32.10 L 17.92 32.12 L 17.87 32.13 L 17.82 32.14 L 17.77 32.16 L 17.73 32.18 L 17.69 32.19 L 17.66 32.21 L 17.63 32.23 L 17.60 32.25 L 17.58 32.27 L 17.56 32.29 L 17.55 32.31 L 17.54 32.33 L 17.54 32.35" stroke="rgba(255,255,255,0.92)" stroke-width="1.0" fill="none"/>
  <path d="M 87.08 32.14 L 87.08 32.25 L 87.08 32.35 Z" stroke="rgba(255,255,255,0.92)" stroke-width="1.0" fill="none"/>
  <path d="M 87.08 32.14 L 87.08 32.25 L 87.08 32.35 Z" stroke="rgba(255,255,255,0.92)" stroke-width="1.0" fill="none"/>
  <path d="M 85.10 32.14 L 85.10 30.53" stroke="rgba(255,255,255,0.92)" stroke-width="1.0" fill="none"/>
  <path d="M 86.80 32.14 L 86.80 30.53" stroke="rgba(255,255,255,0.92)" stroke-width="1.0" fill="none"/>
  <path d="M 85.10 32.35 L 85.12 32.35 L 85.15 32.36 L 85.18 32.37 L 85.21 32.38 L 85.24 32.38 L 85.27 32.39 L 85.30 32.40 L 85.34 32.40 L 85.37 32.41 L 85.41 32.41 L 85.44 32.42 L 85.48 32.42 L 85.52 32.43 L 85.55 32.43 L 85.59 32.44 L 85.63 32.44 L 85.67 32.44 L 85.71 32.45 L 85.75 32.45 L 85.79 32.45 L 85.83 32.45 L 85.87 32.45 L 85.91 32.45 L 85.95 32.45 L 85.99 32.45 L 86.03 32.45 L 86.07 32.45 L 86.11 32.45 L 86.15 32.45 L 86.19 32.45 L 86.22 32.44 L 86.26 32.44 L 86.30 32.44 L 86.34 32.43 L 86.38 32.43 L 86.41 32.42 L 86.45 32.42 L 86.49 32.41 L 86.52 32.41 L 86.55 32.40 L 86.59 32.40 L 86.62 32.39 L 86.65 32.38 L 86.68 32.38 L 86.71 32.37 L 86.74 32.36 L 86.77 32.35 L 86.80 32.35" stroke="rgba(255,255,255,0.92)" stroke-width="1.0" fill="none"/>
  <path d="M 85.10 27.00 A 2.71 2.71 0 0 1 86.80 27.00" stroke="rgba(255,255,255,0.92)" stroke-width="1.0" fill="none"/>
  <path d="M 84.82 32.14 L 84.82 32.35" stroke="rgba(255,255,255,0.92)" stroke-width="1.0" fill="none"/>
  <path d="M 87.08 32.14 L 87.08 32.35" stroke="rgba(255,255,255,0.92)" stroke-width="1.0" fill="none"/>
  <path d="M 84.82 32.35 L 84.82 32.37 L 84.83 32.39 L 84.84 32.41 L 84.85 32.43 L 84.88 32.45 L 84.90 32.47 L 84.93 32.49 L 84.97 32.51 L 85.01 32.53 L 85.05 32.54 L 85.10 32.56 L 85.15 32.57 L 85.20 32.59 L 85.26 32.60 L 85.32 32.61 L 85.38 32.62 L 85.45 32.63 L 85.51 32.64 L 85.58 32.65 L 85.65 32.65 L 85.73 32.66 L 85.80 32.66 L 85.87 32.66 L 85.95 32.67 L 86.02 32.66 L 86.09 32.66 L 86.17 32.66 L 86.24 32.65 L 86.31 32.65 L 86.38 32.64 L 86.45 32.63 L 86.51 32.62 L 86.57 32.61 L 86.64 32.60 L 86.69 32.59 L 86.75 32.57 L 86.80 32.56 L 86.84 32.54 L 86.89 32.53 L 86.93 32.51 L 86.96 32.49 L 86.99 32.47 L 87.02 32.45 L 87.04 32.43 L 87.06 32.41 L 87.07 32.39 L 87.08 32.37 L 87.08 32.35" stroke="rgba(255,255,255,0.92)" stroke-width="1.0" fill="none"/>
  <path d="M 12.78 6.28 L 12.78 21.60" stroke="rgba(255,255,255,0.92)" stroke-width="1.0" fill="none"/>
  <path d="M 94.24 0.05 A 10.40 10.40 0 0 1 94.32 4.67" stroke="rgba(255,255,255,0.92)" stroke-width="1.0" fill="none"/>
  <path d="M 91.57 33.01 A 20.58 20.58 0 0 1 89.47 30.76" stroke="rgba(255,255,255,0.92)" stroke-width="1.0" fill="none"/>
  <path d="M 93.84 11.05 A 5.41 5.41 0 0 1 90.42 8.10" stroke="rgba(255,255,255,0.92)" stroke-width="1.0" fill="none"/>
  <path d="M 94.26 0.42 A 0.05 0.05 0 1 1 94.16 0.45" stroke="rgba(255,255,255,0.92)" stroke-width="1.0" fill="none"/>
  <path d="M 93.78 -1.45 A 1.25 1.25 0 0 1 94.16 -1.14" stroke="rgba(255,255,255,0.92)" stroke-width="1.0" fill="none"/>
  <path d="M 92.67 -12.64 A 20.34 20.34 0 0 1 94.18 -8.29" stroke="rgba(255,255,255,0.92)" stroke-width="1.0" fill="none"/>
  <path d="M 92.43 -12.64 A 20.12 20.12 0 0 1 93.97 -8.24" stroke="rgba(255,255,255,0.92)" stroke-width="1.0" fill="none"/>
  <path d="M 99.17 24.15 L 98.32 23.30 L 2.14 23.30 L 1.29 24.15 L 1.29 29.25 L 2.14 30.10 L 98.32 30.10 L 99.17 29.25 Z" stroke="rgba(255,255,255,0.92)" stroke-width="1.0" fill="none"/>
  <path d="M 18.98 22.30 L 74.27 22.30" stroke="rgba(255,255,255,0.92)" stroke-width="1.0" fill="none"/>
  <path d="M 18.67 20.73 A 4.28 4.28 0 0 1 17.89 24.24" stroke="rgba(255,255,255,0.92)" stroke-width="1.0" fill="none"/>
  <path d="M 1.77 4.63 L 50.54 4.63" stroke="rgba(255,255,255,0.92)" stroke-width="1.0" fill="none"/>
  <path d="M 75.12 4.63 L 94.54 4.63" stroke="rgba(255,255,255,0.92)" stroke-width="1.0" fill="none"/>
  <path d="M 91.99 7.18 A 1.28 1.28 0 0 1 90.71 5.90" stroke="rgba(255,255,255,0.92)" stroke-width="1.0" fill="none"/>
  <path d="M 1.77 30.15 L 94.54 30.15" stroke="rgba(255,255,255,0.92)" stroke-width="1.0" fill="none"/>
  <path d="M 0.49 28.88 A 1.28 1.28 0 0 1 1.77 27.60" stroke="rgba(255,255,255,0.92)" stroke-width="1.0" fill="none"/>
  <path d="M 1.77 22.50 L 94.54 22.50" stroke="rgba(255,255,255,0.92)" stroke-width="1.0" fill="none"/>
  <path d="M 1.77 25.05 A 1.28 1.28 0 0 1 0.49 23.78" stroke="rgba(255,255,255,0.92)" stroke-width="1.0" fill="none"/>
  <path d="M 90.71 21.22 A 1.28 1.28 0 0 1 91.99 19.95" stroke="rgba(255,255,255,0.92)" stroke-width="1.0" fill="none"/>
  <path d="M 0.49 21.22 L 0.49 5.90" stroke="rgba(255,255,255,0.92)" stroke-width="1.0" fill="none"/>
  <path d="M 0.49 21.22 A 1.28 1.28 0 0 1 1.77 19.95" stroke="rgba(255,255,255,0.92)" stroke-width="1.0" fill="none"/>
  <path d="M 26.02 21.22 L 26.02 5.90" stroke="rgba(255,255,255,0.92)" stroke-width="1.0" fill="none"/>
  <path d="M 24.75 19.95 A 1.28 1.28 0 0 1 26.02 21.22" stroke="rgba(255,255,255,0.92)" stroke-width="1.0" fill="none"/>
  <path d="M 26.02 5.90 A 1.28 1.28 0 0 1 24.75 7.18" stroke="rgba(255,255,255,0.92)" stroke-width="1.0" fill="none"/>
  <path d="M 95.82 21.22 L 95.82 5.90" stroke="rgba(255,255,255,0.92)" stroke-width="1.0" fill="none"/>
  <path d="M 94.54 19.95 A 1.28 1.28 0 0 1 95.82 21.22" stroke="rgba(255,255,255,0.92)" stroke-width="1.0" fill="none"/>
  <path d="M 94.54 27.60 A 1.28 1.28 0 0 1 95.82 28.88" stroke="rgba(255,255,255,0.92)" stroke-width="1.0" fill="none"/>
  <path d="M 95.82 23.78 A 1.28 1.28 0 0 1 94.54 25.05" stroke="rgba(255,255,255,0.92)" stroke-width="1.0" fill="none"/>
  <path d="M 95.82 5.90 A 1.28 1.28 0 0 1 94.54 7.18" stroke="rgba(255,255,255,0.92)" stroke-width="1.0" fill="none"/>
  <path d="M 26.02 17.56 L 89.25 17.56" stroke="rgba(255,255,255,0.92)" stroke-width="1.0" fill="none"/>
  <path d="M 90.71 5.90 L 90.71 21.22" stroke="rgba(255,255,255,0.92)" stroke-width="1.0" fill="none"/>
  <path d="M 90.71 20.13 A 3.05 3.05 0 0 1 89.25 22.77" stroke="rgba(255,255,255,0.92)" stroke-width="1.0" fill="none"/>
  <path d="M 89.25 18.30 A 7.88 7.88 0 0 1 89.80 15.01" stroke="rgba(255,255,255,0.92)" stroke-width="1.0" fill="none"/>
  <path d="M 89.25 22.66 A 7.03 7.03 0 0 1 89.19 17.73" stroke="rgba(255,255,255,0.92)" stroke-width="1.0" fill="none"/>
  <path d="M 1.77 7.18 A 1.28 1.28 0 0 1 0.49 5.90" stroke="rgba(255,255,255,0.92)" stroke-width="1.0" fill="none"/>
  <path d="M 95.82 23.78 L 95.82 28.88" stroke="rgba(255,255,255,0.92)" stroke-width="1.0" fill="none"/>
  <path d="M 0.49 28.88 L 0.49 23.78" stroke="rgba(255,255,255,0.92)" stroke-width="1.0" fill="none"/>
  <path d="M 5.78 4.29 A 10.40 10.40 0 0 1 5.86 -0.33" stroke="rgba(255,255,255,0.92)" stroke-width="1.0" fill="none"/>
  <path d="M 10.62 30.39 A 20.58 20.58 0 0 1 8.53 32.63" stroke="rgba(255,255,255,0.92)" stroke-width="1.0" fill="none"/>
  <path d="M 9.67 7.73 A 5.41 5.41 0 0 1 6.26 10.68" stroke="rgba(255,255,255,0.92)" stroke-width="1.0" fill="none"/>
  <path d="M 5.94 0.08 A 0.05 0.05 0 1 1 5.84 0.04" stroke="rgba(255,255,255,0.92)" stroke-width="1.0" fill="none"/>
  <path d="M 5.94 -1.51 A 1.25 1.25 0 0 1 6.32 -1.83" stroke="rgba(255,255,255,0.92)" stroke-width="1.0" fill="none"/>
  <path d="M 5.91 -8.66 A 20.34 20.34 0 0 1 7.43 -13.01" stroke="rgba(255,255,255,0.92)" stroke-width="1.0" fill="none"/>
  <path d="M 6.13 -8.61 A 20.12 20.12 0 0 1 7.67 -13.01" stroke="rgba(255,255,255,0.92)" stroke-width="1.0" fill="none"/>
  <path d="M 13.76 31.76 L 13.76 31.87 L 13.76 31.98 Z" stroke="rgba(255,255,255,0.92)" stroke-width="1.0" fill="none"/>
  <path d="M 13.76 31.76 L 13.76 31.87 L 13.76 31.98 Z" stroke="rgba(255,255,255,0.92)" stroke-width="1.0" fill="none"/>
  <path d="M 15.74 31.76 L 15.74 30.16" stroke="rgba(255,255,255,0.92)" stroke-width="1.0" fill="none"/>
  <path d="M 14.04 31.76 L 14.04 30.16" stroke="rgba(255,255,255,0.92)" stroke-width="1.0" fill="none"/>
  <path d="M 15.74 31.56 L 15.72 31.55 L 15.69 31.54 L 15.66 31.53 L 15.63 31.53 L 15.60 31.52 L 15.57 31.51 L 15.53 31.51 L 15.50 31.50 L 15.47 31.49 L 15.43 31.49 L 15.40 31.48 L 15.36 31.48 L 15.32 31.47 L 15.28 31.47 L 15.25 31.47 L 15.21 31.46 L 15.17 31.46 L 15.13 31.46 L 15.09 31.46 L 15.05 31.45 L 15.01 31.45 L 14.97 31.45 L 14.93 31.45 L 14.89 31.45 L 14.85 31.45 L 14.81 31.45 L 14.77 31.45 L 14.73 31.45 L 14.69 31.46 L 14.65 31.46 L 14.61 31.46 L 14.57 31.46 L 14.54 31.47 L 14.50 31.47 L 14.46 31.47 L 14.42 31.48 L 14.39 31.48 L 14.35 31.49 L 14.32 31.49 L 14.28 31.50 L 14.25 31.51 L 14.22 31.51 L 14.19 31.52 L 14.15 31.53 L 14.12 31.53 L 14.10 31.54 L 14.07 31.55 L 14.04 31.56" stroke="rgba(255,255,255,0.92)" stroke-width="1.0" fill="none"/>
  <path d="M 14.04 26.62 A 2.71 2.71 0 0 1 15.74 26.62" stroke="rgba(255,255,255,0.92)" stroke-width="1.0" fill="none"/>
  <path d="M 16.02 31.76 L 16.02 31.98" stroke="rgba(255,255,255,0.92)" stroke-width="1.0" fill="none"/>
  <path d="M 13.76 31.76 L 13.76 31.98" stroke="rgba(255,255,255,0.92)" stroke-width="1.0" fill="none"/>
  <path d="M 16.02 31.98 L 16.02 31.96 L 16.01 31.94 L 16.00 31.92 L 15.98 31.90 L 15.96 31.88 L 15.94 31.86 L 15.91 31.84 L 15.87 31.82 L 15.83 31.80 L 15.79 31.79 L 15.74 31.77 L 15.69 31.76 L 15.64 31.74 L 15.58 31.73 L 15.52 31.72 L 15.46 31.71 L 15.39 31.70 L 15.32 31.69 L 15.26 31.68 L 15.18 31.67 L 15.11 31.67 L 15.04 31.67 L 14.97 31.66 L 14.89 31.66 L 14.82 31.66 L 14.74 31.67 L 14.67 31.67 L 14.60 31.67 L 14.53 31.68 L 14.46 31.69 L 14.39 31.70 L 14.33 31.71 L 14.26 31.72 L 14.20 31.73 L 14.15 31.74 L 14.09 31.76 L 14.04 31.77 L 13.99 31.79 L 13.95 31.80 L 13.91 31.82 L 13.88 31.84 L 13.85 31.86 L 13.82 31.88 L 13.80 31.90 L 13.78 31.92 L 13.77 31.94 L 13.76 31.96 L 13.76 31.98" stroke="rgba(255,255,255,0.92)" stroke-width="1.0" fill="none"/>
  <path d="M 83.30 31.76 L 83.30 31.87 L 83.30 31.98 Z" stroke="rgba(255,255,255,0.92)" stroke-width="1.0" fill="none"/>
  <path d="M 83.30 31.76 L 83.30 31.87 L 83.30 31.98 Z" stroke="rgba(255,255,255,0.92)" stroke-width="1.0" fill="none"/>
  <path d="M 81.32 31.76 L 81.32 30.16" stroke="rgba(255,255,255,0.92)" stroke-width="1.0" fill="none"/>
  <path d="M 83.02 31.76 L 83.02 30.16" stroke="rgba(255,255,255,0.92)" stroke-width="1.0" fill="none"/>
  <path d="M 81.32 31.97 L 81.34 31.98 L 81.37 31.99 L 81.40 32.00 L 81.43 32.00 L 81.46 32.01 L 81.49 32.02 L 81.53 32.02 L 81.56 32.03 L 81.59 32.04 L 81.63 32.04 L 81.66 32.05 L 81.70 32.05 L 81.74 32.05 L 81.77 32.06 L 81.81 32.06 L 81.85 32.07 L 81.89 32.07 L 81.93 32.07 L 81.97 32.07 L 82.01 32.08 L 82.05 32.08 L 82.09 32.08 L 82.13 32.08 L 82.17 32.08 L 82.21 32.08 L 82.25 32.08 L 82.29 32.08 L 82.33 32.08 L 82.37 32.07 L 82.41 32.07 L 82.45 32.07 L 82.48 32.07 L 82.52 32.06 L 82.56 32.06 L 82.60 32.05 L 82.64 32.05 L 82.67 32.05 L 82.71 32.04 L 82.74 32.04 L 82.78 32.03 L 82.81 32.02 L 82.84 32.02 L 82.87 32.01 L 82.91 32.00 L 82.94 32.00 L 82.96 31.99 L 82.99 31.98 L 83.02 31.97" stroke="rgba(255,255,255,0.92)" stroke-width="1.0" fill="none"/>
  <path d="M 81.32 26.62 A 2.71 2.71 0 0 1 83.02 26.62" stroke="rgba(255,255,255,0.92)" stroke-width="1.0" fill="none"/>
  <path d="M 81.04 31.76 L 81.04 31.98" stroke="rgba(255,255,255,0.92)" stroke-width="1.0" fill="none"/>
  <path d="M 83.30 31.76 L 83.30 31.98" stroke="rgba(255,255,255,0.92)" stroke-width="1.0" fill="none"/>
  <path d="M 81.04 31.98 L 81.04 32.00 L 81.05 32.02 L 81.06 32.04 L 81.08 32.06 L 81.10 32.08 L 81.12 32.10 L 81.15 32.12 L 81.19 32.13 L 81.23 32.15 L 81.27 32.17 L 81.32 32.18 L 81.37 32.20 L 81.42 32.21 L 81.48 32.23 L 81.54 32.24 L 81.60 32.25 L 81.67 32.26 L 81.74 32.27 L 81.80 32.27 L 81.88 32.28 L 81.95 32.29 L 82.02 32.29 L 82.09 32.29 L 82.17 32.29 L 82.24 32.29 L 82.32 32.29 L 82.39 32.29 L 82.46 32.28 L 82.53 32.27 L 82.60 32.27 L 82.67 32.26 L 82.73 32.25 L 82.80 32.24 L 82.86 32.23 L 82.91 32.21 L 82.97 32.20 L 83.02 32.18 L 83.07 32.17 L 83.11 32.15 L 83.15 32.13 L 83.18 32.12 L 83.21 32.10 L 83.24 32.08 L 83.26 32.06 L 83.28 32.04 L 83.29 32.02 L 83.30 32.00 L 83.30 31.98" stroke="rgba(255,255,255,0.92)" stroke-width="1.0" fill="none"/>
  <path d="M 95.39 23.78 L 94.54 22.93 L 1.77 22.93 L 0.91 23.78 L 0.91 28.88 L 1.77 29.73 L 94.54 29.73 L 95.39 28.88 Z" stroke="rgba(255,255,255,0.92)" stroke-width="1.0" fill="none"/>
</svg>
