<svg xmlns="http://www.w3.org/2000/svg" viewBox="0 0 100.00 93.64" data-cad-width="2533.4" data-cad-height="2372.3">
  <path d="M 2.67 2.76 L 4.35 2.76" stroke="rgba(255,255,255,0.92)" stroke-width="1.0" fill="none"/>
  <path d="M 96.91 5.92 A 1.58 1.58 0 0 1 95.34 4.53" stroke="rgba(255,255,255,0.92)" stroke-width="1.0" fill="none"/>
  <path d="M 27.19 18.55 L 55.69 18.55" stroke="rgba(255,255,255,0.92)" stroke-width="1.0" fill="none"/>
  <path d="M 56.59 18.55 L 88.20 18.55" stroke="rgba(255,255,255,0.92)" stroke-width="1.0" fill="none"/>
  <path d="M 13.06 20.99 A 1.22 1.22 0 0 1 11.88 19.76" stroke="rgba(255,255,255,0.92)" stroke-width="1.0" fill="none"/>
  <path d="M 94.12 22.49 L 89.38 22.49" stroke="rgba(255,255,255,0.92)" stroke-width="1.0" fill="none"/>
  <path d="M 6.87 34.33 L 90.57 34.33" stroke="rgba(255,255,255,0.92)" stroke-width="1.0" fill="none"/>
  <path d="M 11.88 27.23 A 1.18 1.18 0 0 1 13.06 26.04" stroke="rgba(255,255,255,0.92)" stroke-width="1.0" fill="none"/>
  <path d="M 29.39 20.52 L 39.25 20.52" stroke="rgba(255,255,255,0.92)" stroke-width="1.0" fill="none"/>
  <path d="M 60.82 11.17 A 5.03 5.03 0 0 1 62.01 11.61" stroke="rgba(255,255,255,0.92)" stroke-width="1.0" fill="none"/>
  <path d="M 78.33 20.52 L 88.20 20.52" stroke="rgba(255,255,255,0.92)" stroke-width="1.0" fill="none"/>
  <path d="M 13.06 22.89 A 1.18 1.18 0 0 1 11.88 21.71" stroke="rgba(255,255,255,0.92)" stroke-width="1.0" fill="none"/>
  <path d="M 27.70 21.71 L 27.70 27.23" stroke="rgba(255,255,255,0.92)" stroke-width="1.0" fill="none"/>
  <path d="M 73.56 22.73 A 1.70 1.70 0 0 1 71.88 23.92" stroke="rgba(255,255,255,0.92)" stroke-width="1.0" fill="none"/>
  <path d="M 40.44 27.23 L 40.44 20.96" stroke="rgba(255,255,255,0.92)" stroke-width="1.0" fill="none"/>
  <path d="M 59.64 11.61 A 5.03 5.03 0 0 1 60.82 11.17" stroke="rgba(255,255,255,0.92)" stroke-width="1.0" fill="none"/>
  <path d="M 52.67 27.23 L 52.67 20.96" stroke="rgba(255,255,255,0.92)" stroke-width="1.0" fill="none"/>
  <path d="M 47.40 11.61 A 5.03 5.03 0 0 1 48.59 11.17" stroke="rgba(255,255,255,0.92)" stroke-width="1.0" fill="none"/>
  <path d="M 64.91 27.23 L 64.91 20.96" stroke="rgba(255,255,255,0.92)" stroke-width="1.0" fill="none"/>
  <path d="M 35.17 11.61 A 5.03 5.03 0 0 1 36.35 11.17" stroke="rgba(255,255,255,0.92)" stroke-width="1.0" fill="none"/>
  <path d="M 77.15 27.23 L 77.15 20.96" stroke="rgba(255,255,255,0.92)" stroke-width="1.0" fill="none"/>
  <path d="M 24.11 53.71 A 17.72 17.72 0 0 1 22.93 54.15" stroke="rgba(255,255,255,0.92)" stroke-width="1.0" fill="none"/>
  <path d="M 94.12 33.54 L 94.12 21.31" stroke="rgba(255,255,255,0.92)" stroke-width="1.0" fill="none"/>
  <path d="M 89.38 21.31 L 89.38 27.23" stroke="rgba(255,255,255,0.92)" stroke-width="1.0" fill="none"/>
  <path d="M 11.09 32.75 A 0.79 0.79 0 0 1 11.88 33.54" stroke="rgba(255,255,255,0.92)" stroke-width="1.0" fill="none"/>
  <path d="M 11.88 21.31 A 0.79 0.79 0 0 1 11.09 22.10" stroke="rgba(255,255,255,0.92)" stroke-width="1.0" fill="none"/>
  <path d="M 93.33 20.52 L 90.17 20.52" stroke="rgba(255,255,255,0.92)" stroke-width="1.0" fill="none"/>
  <path d="M 7.93 22.10 A 0.79 0.79 0 0 1 7.14 21.31" stroke="rgba(255,255,255,0.92)" stroke-width="1.0" fill="none"/>
  <path d="M 92.61 18.55 L 74.07 18.55 L 73.28 19.44 L 74.28 27.72 L 75.06 28.41 L 91.61 28.41 L 92.39 27.72 L 93.39 19.44 Z" stroke="rgba(255,255,255,0.92)" stroke-width="1.0" fill="none"/>
  <path d="M 91.72 19.34 L 74.96 19.34 L 74.17 20.23 L 74.98 26.93 L 75.76 27.62 L 90.91 27.62 L 91.69 26.93 L 92.50 20.23 Z" stroke="rgba(255,255,255,0.92)" stroke-width="1.0" fill="none"/>
  <path d="M 8.83 28.41 L 5.92 4.15" stroke="rgba(255,255,255,0.92)" stroke-width="1.0" fill="none"/>
  <path d="M 5.44 33.29 L 1.88 3.65" stroke="rgba(255,255,255,0.92)" stroke-width="1.0" fill="none"/>
  <path d="M 99.38 3.46 A 0.79 0.79 0 0 1 98.60 4.34" stroke="rgba(255,255,255,0.92)" stroke-width="1.0" fill="none"/>
  <path d="M 5.44 33.29 L 4.55 25.89" stroke="rgba(255,255,255,0.92)" stroke-width="1.0" fill="none"/>
  <path d="M 94.64 31.97 A 1.18 1.18 0 0 1 95.82 33.01" stroke="rgba(255,255,255,0.92)" stroke-width="1.0" fill="none"/>
  <path d="M 5.69 33.15 L 5.69 29.60" stroke="rgba(255,255,255,0.92)" stroke-width="1.0" fill="none"/>
  <path d="M 94.39 31.97 A 1.18 1.18 0 0 1 95.58 33.15" stroke="rgba(255,255,255,0.92)" stroke-width="1.0" fill="none"/>
  <path d="M 95.58 29.60 A 1.18 1.18 0 0 1 94.39 30.78" stroke="rgba(255,255,255,0.92)" stroke-width="1.0" fill="none"/>
  <path d="M 6.87 34.33 L 6.62 34.33" stroke="rgba(255,255,255,0.92)" stroke-width="1.0" fill="none"/>
  <path d="M 90.17 34.33 L 93.33 34.33" stroke="rgba(255,255,255,0.92)" stroke-width="1.0" fill="none"/>
  <path d="M 7.14 33.54 A 0.79 0.79 0 0 1 7.93 32.75" stroke="rgba(255,255,255,0.92)" stroke-width="1.0" fill="none"/>
  <path d="M 25.05 10.66 L 9.48 10.66" stroke="rgba(255,255,255,0.92)" stroke-width="1.0" fill="none"/>
  <path d="M 24.47 11.05 L 9.53 11.05" stroke="rgba(255,255,255,0.92)" stroke-width="1.0" fill="none"/>
  <path d="M 75.96 20.52 L 66.10 20.52" stroke="rgba(255,255,255,0.92)" stroke-width="1.0" fill="none"/>
  <path d="M 25.30 54.15 A 17.72 17.72 0 0 1 24.11 53.71" stroke="rgba(255,255,255,0.92)" stroke-width="1.0" fill="none"/>
  <path d="M 63.73 20.52 L 53.86 20.52" stroke="rgba(255,255,255,0.92)" stroke-width="1.0" fill="none"/>
  <path d="M 36.35 11.17 A 5.03 5.03 0 0 1 37.53 11.61" stroke="rgba(255,255,255,0.92)" stroke-width="1.0" fill="none"/>
  <path d="M 51.49 20.52 L 41.62 20.52" stroke="rgba(255,255,255,0.92)" stroke-width="1.0" fill="none"/>
  <path d="M 48.59 11.17 A 5.03 5.03 0 0 1 49.77 11.61" stroke="rgba(255,255,255,0.92)" stroke-width="1.0" fill="none"/>
  <path d="M 89.38 27.23 L 89.38 33.54" stroke="rgba(255,255,255,0.92)" stroke-width="1.0" fill="none"/>
  <path d="M 6.87 28.41 L 89.38 28.41" stroke="rgba(255,255,255,0.92)" stroke-width="1.0" fill="none"/>
  <path d="M 71.88 25.02 A 1.70 1.70 0 0 1 73.56 26.20" stroke="rgba(255,255,255,0.92)" stroke-width="1.0" fill="none"/>
  <path d="M 60.82 27.23 A 1.18 1.18 0 0 1 62.01 26.04" stroke="rgba(255,255,255,0.92)" stroke-width="1.0" fill="none"/>
  <path d="M 59.64 26.04 A 1.18 1.18 0 0 1 60.82 27.23" stroke="rgba(255,255,255,0.92)" stroke-width="1.0" fill="none"/>
  <path d="M 47.40 26.04 A 1.18 1.18 0 0 1 48.59 27.23" stroke="rgba(255,255,255,0.92)" stroke-width="1.0" fill="none"/>
  <path d="M 35.17 26.04 A 1.18 1.18 0 0 1 36.35 27.23" stroke="rgba(255,255,255,0.92)" stroke-width="1.0" fill="none"/>
  <path d="M 22.93 26.04 A 1.18 1.18 0 0 1 24.11 27.23" stroke="rgba(255,255,255,0.92)" stroke-width="1.0" fill="none"/>
  <path d="M 24.11 27.23 A 1.18 1.18 0 0 1 25.30 26.04" stroke="rgba(255,255,255,0.92)" stroke-width="1.0" fill="none"/>
  <path d="M 36.35 27.23 A 1.18 1.18 0 0 1 37.53 26.04" stroke="rgba(255,255,255,0.92)" stroke-width="1.0" fill="none"/>
  <path d="M 48.59 27.23 A 1.18 1.18 0 0 1 49.77 26.04" stroke="rgba(255,255,255,0.92)" stroke-width="1.0" fill="none"/>
  <path d="M 76.56 20.78 L 76.56 20.79 L 76.56 20.80 L 76.57 20.81 L 76.58 20.82 L 76.59 20.83 L 76.60 20.84 L 76.62 20.85 L 76.63 20.86 L 76.66 20.87 L 76.68 20.88 L 76.70 20.89 L 76.73 20.89 L 76.76 20.90 L 76.79 20.91 L 76.82 20.91 L 76.85 20.92 L 76.89 20.92 L 76.92 20.93 L 76.96 20.93 L 76.99 20.94 L 77.03 20.94 L 77.07 20.94 L 77.11 20.94 L 77.15 20.94 L 77.19 20.94 L 77.22 20.94 L 77.26 20.94 L 77.30 20.94 L 77.34 20.93 L 77.37 20.93 L 77.41 20.92 L 77.44 20.92 L 77.48 20.91 L 77.51 20.91 L 77.54 20.90 L 77.57 20.89 L 77.59 20.89 L 77.62 20.88 L 77.64 20.87 L 77.66 20.86 L 77.68 20.85 L 77.69 20.84 L 77.71 20.83 L 77.72 20.82 L 77.73 20.81 L 77.73 20.80 L 77.74 20.79 L 77.74 20.78" stroke="rgba(255,255,255,0.92)" stroke-width="1.0" fill="none"/>
  <path d="M 64.34 20.79 L 64.35 20.78 L 64.36 20.78 L 64.37 20.77 L 64.38 20.76 L 64.40 20.75 L 64.42 20.75 L 64.44 20.74 L 64.46 20.73 L 64.48 20.72 L 64.50 20.72 L 64.52 20.71 L 64.55 20.71 L 64.58 20.70 L 64.60 20.70 L 64.63 20.69 L 64.66 20.69 L 64.69 20.69 L 64.72 20.68 L 64.75 20.68 L 64.78 20.68 L 64.81 20.68 L 64.85 20.68 L 64.88 20.67 L 64.91 20.67 L 64.94 20.67 L 64.98 20.68 L 65.01 20.68 L 65.04 20.68 L 65.07 20.68 L 65.10 20.68 L 65.13 20.69 L 65.16 20.69 L 65.19 20.69 L 65.22 20.70 L 65.25 20.70 L 65.27 20.71 L 65.30 20.71 L 65.32 20.72 L 65.35 20.73 L 65.37 20.73 L 65.39 20.74 L 65.41 20.75 L 65.42 20.75 L 65.44 20.76 L 65.45 20.77 L 65.46 20.78 L 65.47 20.79 L 65.48 20.79" stroke="rgba(255,255,255,0.92)" stroke-width="1.0" fill="none"/>
  <path d="M 53.25 20.87 L 53.24 20.88 L 53.23 20.89 L 53.22 20.90 L 53.20 20.91 L 53.19 20.91 L 53.17 20.92 L 53.15 20.93 L 53.13 20.93 L 53.11 20.94 L 53.09 20.95 L 53.06 20.95 L 53.04 20.96 L 53.01 20.96 L 52.98 20.97 L 52.95 20.97 L 52.93 20.98 L 52.90 20.98 L 52.87 20.98 L 52.83 20.99 L 52.80 20.99 L 52.77 20.99 L 52.74 20.99 L 52.71 20.99 L 52.67 20.99 L 52.64 20.99 L 52.61 20.99 L 52.58 20.99 L 52.55 20.99 L 52.51 20.99 L 52.48 20.98 L 52.45 20.98 L 52.42 20.98 L 52.39 20.97 L 52.37 20.97 L 52.34 20.96 L 52.31 20.96 L 52.29 20.95 L 52.26 20.95 L 52.24 20.94 L 52.22 20.93 L 52.20 20.93 L 52.18 20.92 L 52.16 20.91 L 52.15 20.90 L 52.13 20.90 L 52.12 20.89 L 52.11 20.88 L 52.10 20.87" stroke="rgba(255,255,255,0.92)" stroke-width="1.0" fill="none"/>
  <path d="M 39.86 20.79 L 39.87 20.78 L 39.88 20.78 L 39.90 20.77 L 39.91 20.76 L 39.93 20.75 L 39.94 20.75 L 39.96 20.74 L 39.98 20.73 L 40.00 20.72 L 40.03 20.72 L 40.05 20.71 L 40.08 20.71 L 40.10 20.70 L 40.13 20.70 L 40.16 20.69 L 40.19 20.69 L 40.22 20.69 L 40.25 20.68 L 40.28 20.68 L 40.31 20.68 L 40.34 20.68 L 40.37 20.68 L 40.41 20.67 L 40.44 20.67 L 40.47 20.67 L 40.50 20.68 L 40.54 20.68 L 40.57 20.68 L 40.60 20.68 L 40.63 20.68 L 40.66 20.69 L 40.69 20.69 L 40.72 20.69 L 40.75 20.70 L 40.77 20.70 L 40.80 20.71 L 40.83 20.71 L 40.85 20.72 L 40.87 20.73 L 40.89 20.73 L 40.91 20.74 L 40.93 20.75 L 40.95 20.75 L 40.96 20.76 L 40.98 20.77 L 40.99 20.78 L 41.00 20.79 L 41.01 20.79" stroke="rgba(255,255,255,0.92)" stroke-width="1.0" fill="none"/>
  <path d="M 94.03 20.95 L 89.47 20.95" stroke="rgba(255,255,255,0.92)" stroke-width="1.0" fill="none"/>
  <path d="M 93.87 20.73 L 89.64 20.73" stroke="rgba(255,255,255,0.92)" stroke-width="1.0" fill="none"/>
  <path d="M 94.12 21.69 L 89.38 21.69" stroke="rgba(255,255,255,0.92)" stroke-width="1.0" fill="none"/>
  <path d="M 89.38 21.31 L 89.38 19.78" stroke="rgba(255,255,255,0.92)" stroke-width="1.0" fill="none"/>
  <path d="M 13.88 19.97 A 1.67 1.67 0 0 1 13.06 21.43" stroke="rgba(255,255,255,0.92)" stroke-width="1.0" fill="none"/>
  <path d="M 99.68 0.06 L 96.91 0.00 L 92.60 3.82" stroke="rgba(255,255,255,0.92)" stroke-width="1.0" fill="none"/>
  <path d="M 84.53 -0.55 A 9.65 9.65 0 0 1 91.75 10.82" stroke="rgba(255,255,255,0.92)" stroke-width="1.0" fill="none"/>
  <path d="M 89.20 37.11 A 19.08 19.08 0 0 1 85.28 32.04" stroke="rgba(255,255,255,0.92)" stroke-width="1.0" fill="none"/>
  <path d="M 91.30 16.75 A 5.02 5.02 0 0 1 88.14 14.01" stroke="rgba(255,255,255,0.92)" stroke-width="1.0" fill="none"/>
  <path d="M 91.69 6.88 A 0.05 0.05 0 1 1 91.60 6.91" stroke="rgba(255,255,255,0.92)" stroke-width="1.0" fill="none"/>
  <path d="M 91.25 5.15 A 1.16 1.16 0 0 1 91.60 5.44" stroke="rgba(255,255,255,0.92)" stroke-width="1.0" fill="none"/>
  <path d="M 85.28 25.45 A 12.12 12.12 0 0 1 84.13 22.21" stroke="rgba(255,255,255,0.92)" stroke-width="1.0" fill="none"/>
  <path d="M 84.02 18.41 A 0.17 0.17 0 0 1 84.05 18.27" stroke="rgba(255,255,255,0.92)" stroke-width="1.0" fill="none"/>
  <path d="M 84.14 16.53 A 1.18 1.18 0 0 1 84.53 16.88" stroke="rgba(255,255,255,0.92)" stroke-width="1.0" fill="none"/>
  <path d="M 84.02 16.91 A 2.22 2.22 0 0 1 84.13 17.88" stroke="rgba(255,255,255,0.92)" stroke-width="1.0" fill="none"/>
  <path d="M 84.25 -12.35 A 18.86 18.86 0 0 1 91.62 -1.19" stroke="rgba(255,255,255,0.92)" stroke-width="1.0" fill="none"/>
  <path d="M 84.13 -12.18 A 18.66 18.66 0 0 1 91.43 -1.14" stroke="rgba(255,255,255,0.92)" stroke-width="1.0" fill="none"/>
  <path d="M 81.57 7.09 A 6.03 6.03 0 0 1 84.98 14.79" stroke="rgba(255,255,255,0.92)" stroke-width="1.0" fill="none"/>
  <path d="M 83.60 27.14 A 11.93 11.93 0 0 1 81.65 23.64" stroke="rgba(255,255,255,0.92)" stroke-width="1.0" fill="none"/>
  <path d="M 84.73 16.49 A 3.14 3.14 0 0 1 83.02 14.51" stroke="rgba(255,255,255,0.92)" stroke-width="1.0" fill="none"/>
  <path d="M 84.95 10.62 A 0.03 0.03 0 1 1 84.89 10.63" stroke="rgba(255,255,255,0.92)" stroke-width="1.0" fill="none"/>
  <path d="M 84.70 9.68 A 0.72 0.72 0 0 1 84.89 9.90" stroke="rgba(255,255,255,0.92)" stroke-width="1.0" fill="none"/>
  <path d="M 81.65 20.71 A 7.58 7.58 0 0 1 81.24 18.60" stroke="rgba(255,255,255,0.92)" stroke-width="1.0" fill="none"/>
  <path d="M 81.26 18.42 A 0.10 0.10 0 0 1 81.29 18.33" stroke="rgba(255,255,255,0.92)" stroke-width="1.0" fill="none"/>
  <path d="M 81.36 17.38 A 0.73 0.73 0 0 1 81.57 17.63" stroke="rgba(255,255,255,0.92)" stroke-width="1.0" fill="none"/>
  <path d="M 81.26 17.90 A 1.39 1.39 0 0 1 81.24 18.51" stroke="rgba(255,255,255,0.92)" stroke-width="1.0" fill="none"/>
  <path d="M 81.39 1.45 A 11.79 11.79 0 0 1 84.92 9.03" stroke="rgba(255,255,255,0.92)" stroke-width="1.0" fill="none"/>
  <path d="M 81.31 1.54 A 11.66 11.66 0 0 1 84.80 9.04" stroke="rgba(255,255,255,0.92)" stroke-width="1.0" fill="none"/>
  <path d="M 20.03 35.83 L 20.03 35.93 L 20.03 36.02 Z" stroke="rgba(255,255,255,0.92)" stroke-width="1.0" fill="none"/>
  <path d="M 20.03 35.83 L 20.03 35.93 L 20.03 36.02 Z" stroke="rgba(255,255,255,0.92)" stroke-width="1.0" fill="none"/>
  <path d="M 83.07 35.83 L 83.07 34.33" stroke="rgba(255,255,255,0.92)" stroke-width="1.0" fill="none"/>
  <path d="M 81.49 35.83 L 81.49 34.33" stroke="rgba(255,255,255,0.92)" stroke-width="1.0" fill="none"/>
  <path d="M 83.07 35.63 L 83.04 35.63 L 83.02 35.62 L 82.99 35.61 L 82.96 35.61 L 82.93 35.60 L 82.90 35.59 L 82.87 35.59 L 82.84 35.58 L 82.81 35.58 L 82.78 35.57 L 82.75 35.57 L 82.71 35.56 L 82.68 35.56 L 82.64 35.55 L 82.61 35.55 L 82.57 35.55 L 82.54 35.54 L 82.50 35.54 L 82.46 35.54 L 82.43 35.54 L 82.39 35.54 L 82.35 35.54 L 82.32 35.54 L 82.28 35.54 L 82.24 35.54 L 82.20 35.54 L 82.17 35.54 L 82.13 35.54 L 82.09 35.54 L 82.06 35.54 L 82.02 35.54 L 81.98 35.55 L 81.95 35.55 L 81.91 35.55 L 81.88 35.56 L 81.84 35.56 L 81.81 35.57 L 81.78 35.57 L 81.75 35.58 L 81.71 35.58 L 81.68 35.59 L 81.65 35.59 L 81.62 35.60 L 81.59 35.61 L 81.57 35.61 L 81.54 35.62 L 81.51 35.63 L 81.49 35.63" stroke="rgba(255,255,255,0.92)" stroke-width="1.0" fill="none"/>
  <path d="M 18.19 31.06 A 2.51 2.51 0 0 1 19.77 31.06" stroke="rgba(255,255,255,0.92)" stroke-width="1.0" fill="none"/>
  <path d="M 83.33 35.83 L 83.33 36.02" stroke="rgba(255,255,255,0.92)" stroke-width="1.0" fill="none"/>
  <path d="M 81.23 35.83 L 81.23 36.02" stroke="rgba(255,255,255,0.92)" stroke-width="1.0" fill="none"/>
  <path d="M 83.33 36.02 L 83.32 36.00 L 83.32 35.99 L 83.31 35.97 L 83.29 35.95 L 83.27 35.93 L 83.25 35.91 L 83.22 35.90 L 83.19 35.88 L 83.15 35.86 L 83.11 35.85 L 83.07 35.83 L 83.02 35.82 L 82.97 35.81 L 82.92 35.79 L 82.86 35.78 L 82.80 35.77 L 82.74 35.76 L 82.68 35.76 L 82.62 35.75 L 82.55 35.74 L 82.48 35.74 L 82.41 35.74 L 82.35 35.73 L 82.28 35.73 L 82.21 35.73 L 82.14 35.74 L 82.07 35.74 L 82.01 35.74 L 81.94 35.75 L 81.88 35.76 L 81.81 35.76 L 81.75 35.77 L 81.70 35.78 L 81.64 35.79 L 81.59 35.81 L 81.54 35.82 L 81.49 35.83 L 81.45 35.85 L 81.41 35.86 L 81.37 35.88 L 81.34 35.90 L 81.31 35.91 L 81.28 35.93 L 81.26 35.95 L 81.25 35.97 L 81.24 35.99 L 81.23 36.00 L 81.23 36.02" stroke="rgba(255,255,255,0.92)" stroke-width="1.0" fill="none"/>
  <path d="M 85.05 35.83 L 85.05 35.93 L 85.05 36.02 Z" stroke="rgba(255,255,255,0.92)" stroke-width="1.0" fill="none"/>
  <path d="M 85.05 35.83 L 85.05 35.93 L 85.05 36.02 Z" stroke="rgba(255,255,255,0.92)" stroke-width="1.0" fill="none"/>
  <path d="M 14.37 35.83 L 14.37 34.33" stroke="rgba(255,255,255,0.92)" stroke-width="1.0" fill="none"/>
  <path d="M 15.95 35.83 L 15.95 34.33" stroke="rgba(255,255,255,0.92)" stroke-width="1.0" fill="none"/>
  <path d="M 14.37 36.02 L 14.39 36.03 L 14.42 36.03 L 14.45 36.04 L 14.48 36.05 L 14.50 36.05 L 14.53 36.06 L 14.56 36.07 L 14.59 36.07 L 14.63 36.08 L 14.66 36.08 L 14.69 36.09 L 14.73 36.09 L 14.76 36.10 L 14.79 36.10 L 14.83 36.10 L 14.87 36.11 L 14.90 36.11 L 14.94 36.11 L 14.97 36.11 L 15.01 36.11 L 15.05 36.12 L 15.08 36.12 L 15.12 36.12 L 15.16 36.12 L 15.20 36.12 L 15.23 36.12 L 15.27 36.12 L 15.31 36.11 L 15.34 36.11 L 15.38 36.11 L 15.42 36.11 L 15.45 36.11 L 15.49 36.10 L 15.52 36.10 L 15.56 36.10 L 15.59 36.09 L 15.63 36.09 L 15.66 36.08 L 15.69 36.08 L 15.72 36.07 L 15.75 36.07 L 15.78 36.06 L 15.81 36.05 L 15.84 36.05 L 15.87 36.04 L 15.90 36.03 L 15.92 36.03 L 15.95 36.02" stroke="rgba(255,255,255,0.92)" stroke-width="1.0" fill="none"/>
  <path d="M 85.31 31.06 A 2.51 2.51 0 0 1 86.89 31.06" stroke="rgba(255,255,255,0.92)" stroke-width="1.0" fill="none"/>
  <path d="M 14.11 35.83 L 14.11 36.02" stroke="rgba(255,255,255,0.92)" stroke-width="1.0" fill="none"/>
  <path d="M 16.21 35.83 L 16.21 36.02" stroke="rgba(255,255,255,0.92)" stroke-width="1.0" fill="none"/>
  <path d="M 14.11 36.02 L 14.11 36.04 L 14.12 36.06 L 14.13 36.08 L 14.15 36.10 L 14.17 36.12 L 14.19 36.14 L 14.22 36.15 L 14.25 36.17 L 14.29 36.19 L 14.33 36.20 L 14.37 36.22 L 14.42 36.23 L 14.47 36.24 L 14.52 36.25 L 14.58 36.27 L 14.63 36.28 L 14.70 36.28 L 14.76 36.29 L 14.82 36.30 L 14.89 36.30 L 14.95 36.31 L 15.02 36.31 L 15.09 36.31 L 15.16 36.31 L 15.23 36.31 L 15.30 36.31 L 15.36 36.31 L 15.43 36.30 L 15.50 36.30 L 15.56 36.29 L 15.62 36.28 L 15.68 36.28 L 15.74 36.27 L 15.80 36.25 L 15.85 36.24 L 15.90 36.23 L 15.95 36.22 L 15.99 36.20 L 16.03 36.19 L 16.07 36.17 L 16.10 36.15 L 16.13 36.14 L 16.15 36.12 L 16.17 36.10 L 16.19 36.08 L 16.20 36.06 L 16.21 36.04 L 16.21 36.02" stroke="rgba(255,255,255,0.92)" stroke-width="1.0" fill="none"/>
  <path d="M 95.18 29.60 L 94.39 28.81 L 72.01 28.81 L 71.87 28.81 L 12.27 28.81 L 12.27 33.54 L 12.20 33.94 L 94.39 33.94 L 95.18 33.15 Z" stroke="rgba(255,255,255,0.92)" stroke-width="1.0" fill="none"/>
  <path d="M 94.54 28.41 A 0.92 0.92 0 0 1 94.65 27.99" stroke="rgba(255,255,255,0.92)" stroke-width="1.0" fill="none"/>
  <path d="M 94.73 28.98 A 0.63 0.63 0 0 1 94.69 28.58" stroke="rgba(255,255,255,0.92)" stroke-width="1.0" fill="none"/>
  <path d="M 95.00 29.88 A 0.76 0.76 0 0 1 94.72 29.58" stroke="rgba(255,255,255,0.92)" stroke-width="1.0" fill="none"/>
  <path d="M 95.26 29.60 A 0.42 0.42 0 0 1 94.97 29.33" stroke="rgba(255,255,255,0.92)" stroke-width="1.0" fill="none"/>
  <path d="M 95.03 21.58 A 3.78 3.78 0 0 1 95.37 21.61" stroke="rgba(255,255,255,0.92)" stroke-width="1.0" fill="none"/>
  <path d="M 95.48 34.28 A 0.56 0.56 0 0 1 95.18 34.29" stroke="rgba(255,255,255,0.92)" stroke-width="1.0" fill="none"/>
  <path d="M 95.53 34.25 A 0.64 0.64 0 0 1 95.17 34.49" stroke="rgba(255,255,255,0.92)" stroke-width="1.0" fill="none"/>
  <path d="M 95.40 36.99 A 2.12 2.12 0 0 1 95.08 37.22" stroke="rgba(255,255,255,0.92)" stroke-width="1.0" fill="none"/>
  <path d="M 95.00 31.81 A 1.64 1.64 0 0 1 95.26 31.51" stroke="rgba(255,255,255,0.92)" stroke-width="1.0" fill="none"/>
  <path d="M 94.81 34.01 A 0.41 0.41 0 0 1 94.87 33.68" stroke="rgba(255,255,255,0.92)" stroke-width="1.0" fill="none"/>
  <path d="M 94.72 34.41 A 0.67 0.67 0 0 1 94.69 33.98" stroke="rgba(255,255,255,0.92)" stroke-width="1.0" fill="none"/>
  <path d="M 82.74 24.27 L 83.93 24.27 L 83.93 22.69 L 82.74 22.69 Z" stroke="rgba(255,255,255,0.92)" stroke-width="1.0" fill="none"/>
  <path d="M 82.94 23.09 L 82.94 24.07 L 83.73 24.07 L 83.73 23.09" stroke="rgba(255,255,255,0.92)" stroke-width="1.0" fill="none"/>
  <path d="M 17.33 23.09 L 18.52 23.09" stroke="rgba(255,255,255,0.92)" stroke-width="1.0" fill="none"/>
  <path d="M 17.33 23.01 L 18.52 23.01" stroke="rgba(255,255,255,0.92)" stroke-width="1.0" fill="none"/>
  <path d="M 17.33 23.05 L 18.52 23.05" stroke="rgba(255,255,255,0.92)" stroke-width="1.0" fill="none"/>
  <path d="M 7.53 33.54 L 7.53 21.31 L 7.93 20.92 L 11.09 20.92 L 11.48 21.31 L 11.48 33.54 L 11.09 33.94 L 7.93 33.94 Z" stroke="rgba(255,255,255,0.92)" stroke-width="1.0" fill="none"/>
  <path d="M 7.80 11.93 L 7.80 86.93 L 8.59 87.72 L 75.70 87.72 L 76.48 86.93 L 76.48 11.93 L 75.70 11.14 L 8.59 11.14 Z" stroke="rgba(255,255,255,0.92)" stroke-width="1.0" fill="none"/>
  <path d="M 3.07 93.64 L 98.19 93.64" stroke="rgba(255,255,255,0.92)" stroke-width="1.0" fill="none"/>
  <path d="M 6.62 88.90 L 98.19 88.90" stroke="rgba(255,255,255,0.92)" stroke-width="1.0" fill="none"/>
  <path d="M 6.62 9.96 L 6.62 88.90" stroke="rgba(255,255,255,0.92)" stroke-width="1.0" fill="none"/>
  <path d="M 77.67 87.53 L 77.67 9.96" stroke="rgba(255,255,255,0.92)" stroke-width="1.0" fill="none"/>
  <path d="M 77.67 11.14 A 1.18 1.18 0 0 1 76.48 12.33" stroke="rgba(255,255,255,0.92)" stroke-width="1.0" fill="none"/>
  <path d="M 18.33 -250.58 A 133.43 133.43 0 0 1 40.07 -250.02" stroke="rgba(255,255,255,0.92)" stroke-width="1.0" fill="none"/>
  <path d="M 7.50 -345.35 A 188.08 188.08 0 0 1 38.06 -343.79" stroke="rgba(255,255,255,0.92)" stroke-width="1.0" fill="none"/>
  <path d="M 21.73 30.95 A 9.67 9.67 0 0 1 15.05 34.33" stroke="rgba(255,255,255,0.92)" stroke-width="1.0" fill="none"/>
  <path d="M 15.05 -6.46 A 11.64 11.64 0 0 1 18.33 -7.29" stroke="rgba(255,255,255,0.92)" stroke-width="1.0" fill="none"/>
  <path d="M 15.58 13.89 A 93.23 93.23 0 0 1 15.65 16.32" stroke="rgba(255,255,255,0.92)" stroke-width="1.0" fill="none"/>
  <path d="M 15.58 19.86 A 1.76 1.76 0 0 1 15.65 22.30" stroke="rgba(255,255,255,0.92)" stroke-width="1.0" fill="none"/>
  <path d="M 15.05 17.03 A 12.18 12.18 0 0 1 15.65 12.13" stroke="rgba(255,255,255,0.92)" stroke-width="1.0" fill="none"/>
  <path d="M 15.65 30.77 A 64.59 64.59 0 0 1 15.05 35.67" stroke="rgba(255,255,255,0.92)" stroke-width="1.0" fill="none"/>
  <path d="M 15.80 170.35 A 70.53 70.53 0 0 1 15.05 170.24" stroke="rgba(255,255,255,0.92)" stroke-width="1.0" fill="none"/>
  <path d="M 15.05 11.43 A 9.67 9.67 0 0 1 15.77 11.51" stroke="rgba(255,255,255,0.92)" stroke-width="1.0" fill="none"/>
  <path d="M 18.11 36.10 A 7.67 7.67 0 0 1 15.05 29.15" stroke="rgba(255,255,255,0.92)" stroke-width="1.0" fill="none"/>
  <path d="M 15.05 19.96 A 19.56 19.56 0 0 1 15.58 28.30" stroke="rgba(255,255,255,0.92)" stroke-width="1.0" fill="none"/>
  <path d="M 55.54 30.95 A 9.67 9.67 0 0 1 48.85 34.33" stroke="rgba(255,255,255,0.92)" stroke-width="1.0" fill="none"/>
  <path d="M 68.83 3.80 A 6.17 6.17 0 0 1 72.71 4.50" stroke="rgba(255,255,255,0.92)" stroke-width="1.0" fill="none"/>
  <path d="M 72.71 34.59 A 9.67 9.67 0 0 1 66.03 31.22" stroke="rgba(255,255,255,0.92)" stroke-width="1.0" fill="none"/>
  <path d="M 48.85 -51.01 A 33.79 33.79 0 0 1 58.17 -51.71" stroke="rgba(255,255,255,0.92)" stroke-width="1.0" fill="none"/>
  <path d="M 40.07 21.90 A 6.98 6.98 0 0 1 39.73 16.02" stroke="rgba(255,255,255,0.92)" stroke-width="1.0" fill="none"/>
  <path d="M 49.59 18.26 A 14.93 14.93 0 0 1 48.85 24.85" stroke="rgba(255,255,255,0.92)" stroke-width="1.0" fill="none"/>
  <path d="M 48.85 16.61 A 7.67 7.67 0 0 1 51.91 9.67" stroke="rgba(255,255,255,0.92)" stroke-width="1.0" fill="none"/>
  <path d="M 37.01 9.93 A 7.67 7.67 0 0 1 40.07 16.88" stroke="rgba(255,255,255,0.92)" stroke-width="1.0" fill="none"/>
  <path d="M 39.26 25.85 A 7.24 7.24 0 0 1 39.53 23.22" stroke="rgba(255,255,255,0.92)" stroke-width="1.0" fill="none"/>
  <path d="M 39.26 19.46 A 6.64 6.64 0 0 1 39.73 22.92" stroke="rgba(255,255,255,0.92)" stroke-width="1.0" fill="none"/>
  <path d="M 49.59 24.29 A 2.16 2.16 0 0 1 49.66 21.55" stroke="rgba(255,255,255,0.92)" stroke-width="1.0" fill="none"/>
  <path d="M 68.83 44.43 A 15.31 15.31 0 0 1 58.17 44.69" stroke="rgba(255,255,255,0.92)" stroke-width="1.0" fill="none"/>
  <path d="M 71.04 11.26 A 7.67 7.67 0 0 1 71.96 12.69" stroke="rgba(255,255,255,0.92)" stroke-width="1.0" fill="none"/>
  <path d="M 71.94 20.40 A 1.81 1.81 0 0 1 72.38 18.70" stroke="rgba(255,255,255,0.92)" stroke-width="1.0" fill="none"/>
  <path d="M 71.96 12.69 A 7.67 7.67 0 0 1 72.71 16.88" stroke="rgba(255,255,255,0.92)" stroke-width="1.0" fill="none"/>
  <path d="M 72.71 26.82 A 20.41 20.41 0 0 1 72.07 23.79" stroke="rgba(255,255,255,0.92)" stroke-width="1.0" fill="none"/>
  <path d="M 71.91 19.46 A 6.64 6.64 0 0 1 72.38 22.92" stroke="rgba(255,255,255,0.92)" stroke-width="1.0" fill="none"/>
  <path d="M 40.07 34.59 A 9.67 9.67 0 0 1 33.38 31.22" stroke="rgba(255,255,255,0.92)" stroke-width="1.0" fill="none"/>
  <path d="M 38.06 -27.93 A 29.05 29.05 0 0 1 47.68 -28.18" stroke="rgba(255,255,255,0.92)" stroke-width="1.0" fill="none"/>
  <path d="M 72.71 147.30 A 58.93 58.93 0 0 1 69.87 147.69" stroke="rgba(255,255,255,0.92)" stroke-width="1.0" fill="none"/>
  <path d="M 72.71 29.41 A 7.67 7.67 0 0 1 69.65 36.36" stroke="rgba(255,255,255,0.92)" stroke-width="1.0" fill="none"/>
  <path d="M 66.03 15.07 A 9.67 9.67 0 0 1 72.71 11.69" stroke="rgba(255,255,255,0.92)" stroke-width="1.0" fill="none"/>
  <path d="M 76.18 63.52 A 23.07 23.07 0 0 1 47.68 71.32" stroke="rgba(255,255,255,0.92)" stroke-width="1.0" fill="none"/>
  <path d="M 40.09 30.78 A 7.67 7.67 0 0 1 37.01 36.36" stroke="rgba(255,255,255,0.92)" stroke-width="1.0" fill="none"/>
  <path d="M 51.91 36.10 A 7.67 7.67 0 0 1 48.88 30.96" stroke="rgba(255,255,255,0.92)" stroke-width="1.0" fill="none"/>
  <path d="M 49.17 21.55 A 13.02 13.02 0 0 1 49.66 25.99" stroke="rgba(255,255,255,0.92)" stroke-width="1.0" fill="none"/>
  <path d="M 71.91 26.53 A 17.97 17.97 0 0 1 72.71 20.19" stroke="rgba(255,255,255,0.92)" stroke-width="1.0" fill="none"/>
  <path d="M 7.80 1.28 L 23.20 1.28" stroke="rgba(255,255,255,0.92)" stroke-width="1.0" fill="none"/>
  <path d="M 61.09 1.28 L 76.48 1.28" stroke="rgba(255,255,255,0.92)" stroke-width="1.0" fill="none"/>
  <path d="M 61.09 3.65 A 1.18 1.18 0 0 1 59.91 2.46" stroke="rgba(255,255,255,0.92)" stroke-width="1.0" fill="none"/>
  <path d="M 77.67 2.46 L 96.22 2.46" stroke="rgba(255,255,255,0.92)" stroke-width="1.0" fill="none"/>
  <path d="M 6.62 2.46 L 3.07 2.46" stroke="rgba(255,255,255,0.92)" stroke-width="1.0" fill="none"/>
  <path d="M 6.62 93.64 L 6.62 2.46" stroke="rgba(255,255,255,0.92)" stroke-width="1.0" fill="none"/>
  <path d="M 1.88 92.46 L 1.88 3.65" stroke="rgba(255,255,255,0.92)" stroke-width="1.0" fill="none"/>
  <path d="M 1.88 92.46 A 1.18 1.18 0 0 1 3.07 91.27" stroke="rgba(255,255,255,0.92)" stroke-width="1.0" fill="none"/>
  <path d="M 7.80 3.65 A 1.18 1.18 0 0 1 6.62 2.46" stroke="rgba(255,255,255,0.92)" stroke-width="1.0" fill="none"/>
  <path d="M 97.41 27.83 L 97.41 3.65" stroke="rgba(255,255,255,0.92)" stroke-width="1.0" fill="none"/>
  <path d="M 99.38 90.09 L 99.38 92.46" stroke="rgba(255,255,255,0.92)" stroke-width="1.0" fill="none"/>
  <path d="M 77.67 2.46 A 1.18 1.18 0 0 1 76.48 3.65" stroke="rgba(255,255,255,0.92)" stroke-width="1.0" fill="none"/>
  <path d="M 6.62 9.96 L 76.48 9.96" stroke="rgba(255,255,255,0.92)" stroke-width="1.0" fill="none"/>
  <path d="M 6.62 8.77 A 1.18 1.18 0 0 1 7.80 7.59" stroke="rgba(255,255,255,0.92)" stroke-width="1.0" fill="none"/>
  <path d="M 59.91 8.77 A 1.18 1.18 0 0 1 61.09 7.59" stroke="rgba(255,255,255,0.92)" stroke-width="1.0" fill="none"/>
  <path d="M 77.67 27.72 L 97.41 27.72" stroke="rgba(255,255,255,0.92)" stroke-width="1.0" fill="none"/>
  <path d="M 99.38 90.09 A 1.18 1.18 0 0 1 98.19 91.27" stroke="rgba(255,255,255,0.92)" stroke-width="1.0" fill="none"/>
  <path d="M 98.19 91.27 A 1.18 1.18 0 0 1 99.38 92.46" stroke="rgba(255,255,255,0.92)" stroke-width="1.0" fill="none"/>
  <path d="M 99.38 76.67 L 99.38 87.53" stroke="rgba(255,255,255,0.92)" stroke-width="1.0" fill="none"/>
  <path d="M 77.67 87.23 L 77.67 87.23" stroke="rgba(255,255,255,0.92)" stroke-width="1.0" fill="none"/>
  <path d="M 76.48 86.54 A 1.18 1.18 0 0 1 77.67 87.72" stroke="rgba(255,255,255,0.92)" stroke-width="1.0" fill="none"/>
  <path d="M 97.41 3.65 A 1.18 1.18 0 0 1 96.22 4.83" stroke="rgba(255,255,255,0.92)" stroke-width="1.0" fill="none"/>
  <path d="M 3.07 4.83 A 1.18 1.18 0 0 1 1.88 3.65" stroke="rgba(255,255,255,0.92)" stroke-width="1.0" fill="none"/>
  <path d="M 77.67 8.77 L 77.67 2.46" stroke="rgba(255,255,255,0.92)" stroke-width="1.0" fill="none"/>
  <path d="M 76.48 7.59 A 1.18 1.18 0 0 1 77.67 8.77" stroke="rgba(255,255,255,0.92)" stroke-width="1.0" fill="none"/>
  <path d="M 23.45 -55.46 A 61.23 61.23 0 0 1 41.16 -58.36" stroke="rgba(255,255,255,0.92)" stroke-width="1.0" fill="none"/>
  <path d="M 41.16 159.43 A 47.68 47.68 0 0 1 14.54 152.00" stroke="rgba(255,255,255,0.92)" stroke-width="1.0" fill="none"/>
  <path d="M 41.16 155.29 A 45.68 45.68 0 0 1 16.05 145.97" stroke="rgba(255,255,255,0.92)" stroke-width="1.0" fill="none"/>
  <path d="M 27.18 -86.70 A 76.32 76.32 0 0 1 51.04 -88.20" stroke="rgba(255,255,255,0.92)" stroke-width="1.0" fill="none"/>
  <path d="M 74.21 127.32 A 25.41 25.41 0 0 1 58.08 132.93" stroke="rgba(255,255,255,0.92)" stroke-width="1.0" fill="none"/>
  <path d="M 63.68 38.93 A 28.68 28.68 0 0 1 76.18 31.01" stroke="rgba(255,255,255,0.92)" stroke-width="1.0" fill="none"/>
  <path d="M 22.47 19.59 A 17.85 17.85 0 0 1 31.97 13.85" stroke="rgba(255,255,255,0.92)" stroke-width="1.0" fill="none"/>
  <path d="M 6.31 43.99 L 22.47 42.89 L 63.65 42.72 L 77.53 41.86" stroke="rgba(255,255,255,0.92)" stroke-width="1.0" fill="none"/>
  <path d="M 15.09 -5.41 A 29.02 29.02 0 0 1 26.76 -9.13" stroke="rgba(255,255,255,0.92)" stroke-width="1.0" fill="none"/>
  <path d="M 71.14 104.35 A 30.76 30.76 0 0 1 54.18 98.29" stroke="rgba(255,255,255,0.92)" stroke-width="1.0" fill="none"/>
  <path d="M 68.43 204.49 A 80.88 80.88 0 0 1 40.83 197.99" stroke="rgba(255,255,255,0.92)" stroke-width="1.0" fill="none"/>
  <path d="M 68.43 313.82 A 136.41 136.41 0 0 1 53.12 311.08" stroke="rgba(255,255,255,0.92)" stroke-width="1.0" fill="none"/>
  <path d="M 88.52 88.41 L 88.52 77.26" stroke="rgba(255,255,255,0.92)" stroke-width="1.0" fill="none"/>
  <path d="M 88.52 76.08 L 88.52 65.02" stroke="rgba(255,255,255,0.92)" stroke-width="1.0" fill="none"/>
  <path d="M 88.52 63.84 L 88.52 52.79" stroke="rgba(255,255,255,0.92)" stroke-width="1.0" fill="none"/>
  <path d="M 88.52 51.60 L 88.52 40.55" stroke="rgba(255,255,255,0.92)" stroke-width="1.0" fill="none"/>
  <path d="M 88.52 39.37 L 88.52 28.22" stroke="rgba(255,255,255,0.92)" stroke-width="1.0" fill="none"/>
  <path d="M 87.97 40.18 L 87.83 40.20 L 87.68 40.22 L 87.51 40.25 L 87.32 40.27 L 87.13 40.29 L 86.92 40.31 L 86.69 40.33 L 86.46 40.35 L 86.22 40.36 L 85.96 40.38 L 85.70 40.39 L 85.43 40.40 L 85.15 40.42 L 84.87 40.43 L 84.58 40.43 L 84.28 40.44 L 83.99 40.45 L 83.69 40.45 L 83.38 40.45 L 83.08 40.45 L 82.78 40.45 L 82.47 40.45 L 82.17 40.45 L 81.87 40.44 L 81.58 40.43 L 81.29 40.42 L 81.01 40.41 L 80.73 40.40 L 80.46 40.39 L 80.20 40.38 L 79.95 40.36 L 79.70 40.34 L 79.47 40.33 L 79.25 40.31 L 79.04 40.29 L 78.85 40.27 L 78.67 40.24 L 78.50 40.22 L 78.34 40.20 L 78.20 40.17 L 78.08 40.15 L 77.97 40.12 L 77.88 40.09 L 77.80 40.07 L 77.75 40.04 L 77.70 40.01 L 77.68 39.99 L 77.67 39.96" stroke="rgba(255,255,255,0.92)" stroke-width="1.0" fill="none"/>
  <path d="M 89.08 39.74 L 89.22 39.72 L 89.37 39.69 L 89.54 39.67 L 89.73 39.65 L 89.92 39.63 L 90.13 39.61 L 90.35 39.59 L 90.59 39.57 L 90.83 39.55 L 91.08 39.54 L 91.35 39.52 L 91.62 39.51 L 91.90 39.50 L 92.18 39.49 L 92.47 39.48 L 92.76 39.48 L 93.06 39.47 L 93.36 39.47 L 93.67 39.46 L 93.97 39.46 L 94.27 39.47 L 94.58 39.47 L 94.88 39.47 L 95.17 39.48 L 95.47 39.48 L 95.76 39.49 L 96.04 39.50 L 96.32 39.51 L 96.59 39.53 L 96.85 39.54 L 97.10 39.56 L 97.34 39.57 L 97.58 39.59 L 97.80 39.61 L 98.00 39.63 L 98.20 39.65 L 98.38 39.67 L 98.55 39.70 L 98.70 39.72 L 98.84 39.74 L 98.97 39.77 L 99.08 39.80 L 99.17 39.82 L 99.24 39.85 L 99.30 39.88 L 99.35 39.90 L 99.37 39.93 L 99.38 39.96" stroke="rgba(255,255,255,0.92)" stroke-width="1.0" fill="none"/>
  <path d="M 87.97 52.41 L 87.83 52.44 L 87.68 52.46 L 87.51 52.48 L 87.32 52.50 L 87.13 52.53 L 86.92 52.55 L 86.69 52.56 L 86.46 52.58 L 86.22 52.60 L 85.96 52.61 L 85.70 52.63 L 85.43 52.64 L 85.15 52.65 L 84.87 52.66 L 84.58 52.67 L 84.28 52.68 L 83.99 52.68 L 83.69 52.69 L 83.38 52.69 L 83.08 52.69 L 82.78 52.69 L 82.47 52.69 L 82.17 52.68 L 81.87 52.68 L 81.58 52.67 L 81.29 52.66 L 81.01 52.65 L 80.73 52.64 L 80.46 52.63 L 80.20 52.61 L 79.95 52.60 L 79.70 52.58 L 79.47 52.56 L 79.25 52.54 L 79.04 52.52 L 78.85 52.50 L 78.67 52.48 L 78.50 52.46 L 78.34 52.43 L 78.20 52.41 L 78.08 52.38 L 77.97 52.36 L 77.88 52.33 L 77.80 52.30 L 77.75 52.28 L 77.70 52.25 L 77.68 52.22 L 77.67 52.19" stroke="rgba(255,255,255,0.92)" stroke-width="1.0" fill="none"/>
  <path d="M 89.08 51.98 L 89.22 51.95 L 89.37 51.93 L 89.54 51.91 L 89.73 51.88 L 89.92 51.86 L 90.13 51.84 L 90.35 51.82 L 90.59 51.81 L 90.83 51.79 L 91.08 51.78 L 91.35 51.76 L 91.62 51.75 L 91.90 51.74 L 92.18 51.73 L 92.47 51.72 L 92.76 51.71 L 93.06 51.71 L 93.36 51.70 L 93.67 51.70 L 93.97 51.70 L 94.27 51.70 L 94.58 51.70 L 94.88 51.71 L 95.17 51.71 L 95.47 51.72 L 95.76 51.73 L 96.04 51.74 L 96.32 51.75 L 96.59 51.76 L 96.85 51.78 L 97.10 51.79 L 97.34 51.81 L 97.58 51.83 L 97.80 51.85 L 98.00 51.87 L 98.20 51.89 L 98.38 51.91 L 98.55 51.93 L 98.70 51.96 L 98.84 51.98 L 98.97 52.01 L 99.08 52.03 L 99.17 52.06 L 99.24 52.09 L 99.30 52.11 L 99.35 52.14 L 99.37 52.17 L 99.38 52.19" stroke="rgba(255,255,255,0.92)" stroke-width="1.0" fill="none"/>
  <path d="M 87.97 64.65 L 87.83 64.67 L 87.68 64.70 L 87.51 64.72 L 87.32 64.74 L 87.13 64.76 L 86.92 64.78 L 86.69 64.80 L 86.46 64.82 L 86.22 64.84 L 85.96 64.85 L 85.70 64.86 L 85.43 64.88 L 85.15 64.89 L 84.87 64.90 L 84.58 64.91 L 84.28 64.91 L 83.99 64.92 L 83.69 64.92 L 83.38 64.92 L 83.08 64.93 L 82.78 64.92 L 82.47 64.92 L 82.17 64.92 L 81.87 64.91 L 81.58 64.91 L 81.29 64.90 L 81.01 64.89 L 80.73 64.88 L 80.46 64.86 L 80.20 64.85 L 79.95 64.83 L 79.70 64.82 L 79.47 64.80 L 79.25 64.78 L 79.04 64.76 L 78.85 64.74 L 78.67 64.72 L 78.50 64.69 L 78.34 64.67 L 78.20 64.65 L 78.08 64.62 L 77.97 64.59 L 77.88 64.57 L 77.80 64.54 L 77.75 64.51 L 77.70 64.49 L 77.68 64.46 L 77.67 64.43" stroke="rgba(255,255,255,0.92)" stroke-width="1.0" fill="none"/>
  <path d="M 89.08 64.21 L 89.22 64.19 L 89.37 64.17 L 89.54 64.14 L 89.73 64.12 L 89.92 64.10 L 90.13 64.08 L 90.35 64.06 L 90.59 64.04 L 90.83 64.03 L 91.08 64.01 L 91.35 64.00 L 91.62 63.99 L 91.90 63.97 L 92.18 63.96 L 92.47 63.96 L 92.76 63.95 L 93.06 63.94 L 93.36 63.94 L 93.67 63.94 L 93.97 63.94 L 94.27 63.94 L 94.58 63.94 L 94.88 63.94 L 95.17 63.95 L 95.47 63.96 L 95.76 63.97 L 96.04 63.98 L 96.32 63.99 L 96.59 64.00 L 96.85 64.01 L 97.10 64.03 L 97.34 64.05 L 97.58 64.06 L 97.80 64.08 L 98.00 64.10 L 98.20 64.12 L 98.38 64.15 L 98.55 64.17 L 98.70 64.19 L 98.84 64.22 L 98.97 64.24 L 99.08 64.27 L 99.17 64.29 L 99.24 64.32 L 99.30 64.35 L 99.35 64.38 L 99.37 64.40 L 99.38 64.43" stroke="rgba(255,255,255,0.92)" stroke-width="1.0" fill="none"/>
  <path d="M 87.97 76.88 L 87.83 76.91 L 87.68 76.93 L 87.51 76.96 L 87.32 76.98 L 87.13 77.00 L 86.92 77.02 L 86.69 77.04 L 86.46 77.06 L 86.22 77.07 L 85.96 77.09 L 85.70 77.10 L 85.43 77.11 L 85.15 77.13 L 84.87 77.13 L 84.58 77.14 L 84.28 77.15 L 83.99 77.16 L 83.69 77.16 L 83.38 77.16 L 83.08 77.16 L 82.78 77.16 L 82.47 77.16 L 82.17 77.15 L 81.87 77.15 L 81.58 77.14 L 81.29 77.13 L 81.01 77.12 L 80.73 77.11 L 80.46 77.10 L 80.20 77.09 L 79.95 77.07 L 79.70 77.05 L 79.47 77.04 L 79.25 77.02 L 79.04 77.00 L 78.85 76.98 L 78.67 76.95 L 78.50 76.93 L 78.34 76.91 L 78.20 76.88 L 78.08 76.86 L 77.97 76.83 L 77.88 76.80 L 77.80 76.78 L 77.75 76.75 L 77.70 76.72 L 77.68 76.70 L 77.67 76.67" stroke="rgba(255,255,255,0.92)" stroke-width="1.0" fill="none"/>
  <path d="M 89.08 76.45 L 89.22 76.43 L 89.37 76.40 L 89.54 76.38 L 89.73 76.36 L 89.92 76.34 L 90.13 76.32 L 90.35 76.30 L 90.59 76.28 L 90.83 76.26 L 91.08 76.25 L 91.35 76.23 L 91.62 76.22 L 91.90 76.21 L 92.18 76.20 L 92.47 76.19 L 92.76 76.19 L 93.06 76.18 L 93.36 76.18 L 93.67 76.17 L 93.97 76.17 L 94.27 76.17 L 94.58 76.18 L 94.88 76.18 L 95.17 76.19 L 95.47 76.19 L 95.76 76.20 L 96.04 76.21 L 96.32 76.22 L 96.59 76.24 L 96.85 76.25 L 97.10 76.27 L 97.34 76.28 L 97.58 76.30 L 97.80 76.32 L 98.00 76.34 L 98.20 76.36 L 98.38 76.38 L 98.55 76.41 L 98.70 76.43 L 98.84 76.45 L 98.97 76.48 L 99.08 76.50 L 99.17 76.53 L 99.24 76.56 L 99.30 76.59 L 99.35 76.61 L 99.37 76.64 L 99.38 76.67" stroke="rgba(255,255,255,0.92)" stroke-width="1.0" fill="none"/>
  <path d="M 88.52 28.22 L 88.51 28.25 L 88.48 28.28 L 88.42 28.31 L 88.34 28.34 L 88.24 28.37 L 88.11 28.41 L 87.96 28.43 L 87.80 28.46 L 87.61 28.49 L 87.40 28.52 L 87.18 28.54 L 86.93 28.57 L 86.68 28.59 L 86.40 28.61 L 86.11 28.63 L 85.81 28.64 L 85.50 28.66 L 85.17 28.67 L 84.84 28.68 L 84.50 28.69 L 84.16 28.70 L 83.81 28.71 L 83.45 28.71 L 83.10 28.71 L 82.74 28.71 L 82.39 28.71 L 82.04 28.70 L 81.69 28.69 L 81.35 28.68 L 81.02 28.67 L 80.70 28.66 L 80.38 28.64 L 80.08 28.63 L 79.79 28.61 L 79.52 28.59 L 79.26 28.57 L 79.02 28.54 L 78.79 28.52 L 78.58 28.49 L 78.40 28.46 L 78.23 28.43 L 78.08 28.41 L 77.96 28.37 L 77.85 28.34 L 77.77 28.31 L 77.72 28.28 L 77.68 28.25 L 77.67 28.22" stroke="rgba(255,255,255,0.92)" stroke-width="1.0" fill="none"/>
  <path d="M 88.52 28.22 L 88.53 28.19 L 88.55 28.17 L 88.58 28.15 L 88.62 28.12 L 88.67 28.10 L 88.74 28.08 L 88.82 28.06 L 88.90 28.03 L 89.00 28.01 L 89.11 27.99 L 89.24 27.97 L 89.37 27.95 L 89.51 27.93 L 89.66 27.91 L 89.82 27.90 L 89.99 27.88 L 90.17 27.86 L 90.36 27.85 L 90.56 27.83 L 90.76 27.82 L 90.97 27.80 L 91.19 27.79 L 91.41 27.78 L 91.64 27.77 L 91.87 27.76 L 92.11 27.75 L 92.35 27.74 L 92.60 27.74 L 92.85 27.73 L 93.10 27.73 L 93.35 27.72 L 93.61 27.72 L 93.86 27.72 L 94.12 27.72 L 94.37 27.72 L 94.63 27.73 L 94.88 27.73 L 95.13 27.73 L 95.38 27.74 L 95.62 27.75 L 95.86 27.75 L 96.10 27.76 L 96.33 27.77 L 96.56 27.78 L 96.78 27.79 L 97.00 27.81 L 97.20 27.82 L 97.41 27.83" stroke="rgba(255,255,255,0.92)" stroke-width="1.0" fill="none"/>
  <path d="M 99.38 29.10 A 1.18 1.18 0 0 1 98.34 30.28" stroke="rgba(255,255,255,0.92)" stroke-width="1.0" fill="none"/>
  <path d="M 97.41 27.83 L 97.43 27.84 L 97.45 27.84 L 97.47 27.84 L 97.49 27.84 L 97.51 27.84 L 97.54 27.84 L 97.56 27.85 L 97.58 27.85 L 97.60 27.85 L 97.62 27.85 L 97.64 27.85 L 97.66 27.86 L 97.68 27.86 L 97.70 27.86 L 97.72 27.86 L 97.75 27.86 L 97.77 27.86 L 97.79 27.87 L 97.81 27.87 L 97.83 27.87 L 97.85 27.87 L 97.87 27.87 L 97.89 27.88 L 97.91 27.88 L 97.92 27.88 L 97.94 27.88 L 97.96 27.88 L 97.98 27.89 L 98.00 27.89 L 98.02 27.89 L 98.04 27.89 L 98.06 27.89 L 98.08 27.89 L 98.10 27.90 L 98.11 27.90 L 98.13 27.90 L 98.15 27.90 L 98.17 27.90 L 98.19 27.91 L 98.20 27.91 L 98.22 27.91 L 98.24 27.91 L 98.26 27.92 L 98.27 27.92 L 98.29 27.92 L 98.31 27.92 L 98.33 27.92 L 98.34 27.93" stroke="rgba(255,255,255,0.92)" stroke-width="1.0" fill="none"/>
  <path d="M 88.52 88.41 L 88.52 88.44 L 88.49 88.46 L 88.46 88.49 L 88.41 88.52 L 88.34 88.54 L 88.26 88.57 L 88.16 88.59 L 88.05 88.61 L 87.93 88.64 L 87.80 88.66 L 87.65 88.68 L 87.49 88.70 L 87.31 88.72 L 87.13 88.74 L 86.93 88.76 L 86.73 88.78 L 86.51 88.80 L 86.29 88.81 L 86.05 88.83 L 85.81 88.84 L 85.56 88.85 L 85.30 88.86 L 85.04 88.87 L 84.77 88.88 L 84.50 88.89 L 84.23 88.90 L 83.95 88.90 L 83.66 88.90 L 83.38 88.91 L 83.10 88.91 L 82.81 88.91 L 82.53 88.90 L 82.25 88.90 L 81.97 88.90 L 81.69 88.89 L 81.42 88.88 L 81.15 88.87 L 80.89 88.86 L 80.63 88.85 L 80.38 88.84 L 80.14 88.83 L 79.91 88.81 L 79.68 88.80 L 79.47 88.78 L 79.26 88.76 L 79.06 88.74 L 78.88 88.72 L 78.71 88.70" stroke="rgba(255,255,255,0.92)" stroke-width="1.0" fill="none"/>
  <path d="M 88.52 88.41 L 88.53 88.39 L 88.55 88.36 L 88.59 88.34 L 88.64 88.31 L 88.70 88.29 L 88.78 88.26 L 88.87 88.24 L 88.98 88.22 L 89.10 88.19 L 89.23 88.17 L 89.37 88.15 L 89.53 88.13 L 89.69 88.11 L 89.87 88.09 L 90.06 88.07 L 90.26 88.05 L 90.47 88.03 L 90.69 88.02 L 90.92 88.00 L 91.15 87.99 L 91.39 87.98 L 91.64 87.97 L 91.90 87.96 L 92.16 87.95 L 92.42 87.94 L 92.69 87.93 L 92.97 87.93 L 93.24 87.92 L 93.52 87.92 L 93.80 87.92 L 94.08 87.92 L 94.36 87.92 L 94.63 87.92 L 94.91 87.93 L 95.18 87.93 L 95.45 87.94 L 95.72 87.95 L 95.98 87.95 L 96.24 87.96 L 96.49 87.98 L 96.73 87.99 L 96.97 88.00 L 97.19 88.02 L 97.41 88.03 L 97.62 88.05 L 97.83 88.07 L 98.02 88.09 L 98.19 88.10" stroke="rgba(255,255,255,0.92)" stroke-width="1.0" fill="none"/>
  <path d="M 77.67 87.53 A 1.18 1.18 0 0 1 78.71 86.35" stroke="rgba(255,255,255,0.92)" stroke-width="1.0" fill="none"/>
  <path d="M 98.34 86.35 A 1.18 1.18 0 0 1 99.38 87.53" stroke="rgba(255,255,255,0.92)" stroke-width="1.0" fill="none"/>
  <path d="M 98.19 88.90 L 98.19 88.72" stroke="rgba(255,255,255,0.92)" stroke-width="1.0" fill="none"/>
  <path d="M 98.19 88.10 L 98.20 88.11 L 98.20 88.11 L 98.20 88.11 L 98.21 88.11 L 98.21 88.11 L 98.21 88.11 L 98.22 88.11 L 98.22 88.11 L 98.22 88.11 L 98.23 88.11 L 98.23 88.11 L 98.23 88.11 L 98.24 88.11 L 98.24 88.11 L 98.24 88.11 L 98.24 88.11 L 98.25 88.11 L 98.25 88.11 L 98.25 88.11 L 98.26 88.11 L 98.26 88.11 L 98.26 88.11 L 98.27 88.11 L 98.27 88.11 L 98.27 88.11 L 98.28 88.11 L 98.28 88.11 L 98.28 88.11 L 98.28 88.12 L 98.29 88.12 L 98.29 88.12 L 98.29 88.12 L 98.30 88.12 L 98.30 88.12 L 98.30 88.12 L 98.31 88.12 L 98.31 88.12 L 98.31 88.12 L 98.32 88.12 L 98.32 88.12 L 98.32 88.12 L 98.32 88.12 L 98.33 88.12 L 98.33 88.12 L 98.33 88.12 L 98.34 88.12 L 98.34 88.12 L 98.34 88.12" stroke="rgba(255,255,255,0.92)" stroke-width="1.0" fill="none"/>
  <path d="M 77.67 88.90 L 77.67 93.64" stroke="rgba(255,255,255,0.92)" stroke-width="1.0" fill="none"/>
  <path d="M 78.57 88.90 L 78.57 93.64" stroke="rgba(255,255,255,0.92)" stroke-width="1.0" fill="none"/>
  <path d="M 82.73 88.90 L 82.73 93.64" stroke="rgba(255,255,255,0.92)" stroke-width="1.0" fill="none"/>
  <path d="M 85.95 88.90 L 85.95 93.64" stroke="rgba(255,255,255,0.92)" stroke-width="1.0" fill="none"/>
  <path d="M 80.01 88.90 L 80.01 93.64" stroke="rgba(255,255,255,0.92)" stroke-width="1.0" fill="none"/>
  <path d="M 77.67 2.89 L 97.13 2.89" stroke="rgba(255,255,255,0.92)" stroke-width="1.0" fill="none"/>
  <path d="M 77.67 3.23 L 97.33 3.23" stroke="rgba(255,255,255,0.92)" stroke-width="1.0" fill="none"/>
  <path d="M 97.41 3.65 L 77.67 3.65" stroke="rgba(255,255,255,0.92)" stroke-width="1.0" fill="none"/>
  <path d="M 24.38 2.46 L 24.38 8.77" stroke="rgba(255,255,255,0.92)" stroke-width="1.0" fill="none"/>
  <path d="M 24.38 2.46 A 1.18 1.18 0 0 1 23.20 3.65" stroke="rgba(255,255,255,0.92)" stroke-width="1.0" fill="none"/>
  <path d="M 42.14 2.46 L 42.14 8.77" stroke="rgba(255,255,255,0.92)" stroke-width="1.0" fill="none"/>
  <path d="M 40.96 7.59 A 1.18 1.18 0 0 1 42.14 8.77" stroke="rgba(255,255,255,0.92)" stroke-width="1.0" fill="none"/>
  <path d="M 42.14 2.46 A 1.18 1.18 0 0 1 40.96 3.65" stroke="rgba(255,255,255,0.92)" stroke-width="1.0" fill="none"/>
  <path d="M 59.91 2.46 L 59.91 8.77" stroke="rgba(255,255,255,0.92)" stroke-width="1.0" fill="none"/>
  <path d="M 58.72 7.59 A 1.18 1.18 0 0 1 59.91 8.77" stroke="rgba(255,255,255,0.92)" stroke-width="1.0" fill="none"/>
  <path d="M 59.91 2.46 A 1.18 1.18 0 0 1 58.72 3.65" stroke="rgba(255,255,255,0.92)" stroke-width="1.0" fill="none"/>
  <path d="M 77.67 9.96 L 97.41 9.96" stroke="rgba(255,255,255,0.92)" stroke-width="1.0" fill="none"/>
  <path d="M 58.72 1.28 L 43.33 1.28" stroke="rgba(255,255,255,0.92)" stroke-width="1.0" fill="none"/>
  <path d="M 6.62 3.54 L 77.67 3.54" stroke="rgba(255,255,255,0.92)" stroke-width="1.0" fill="none"/>
  <path d="M 40.96 1.28 L 25.57 1.28" stroke="rgba(255,255,255,0.92)" stroke-width="1.0" fill="none"/>
  <path d="M 25.57 3.65 A 1.18 1.18 0 0 1 24.38 2.46" stroke="rgba(255,255,255,0.92)" stroke-width="1.0" fill="none"/>
  <path d="M 43.33 3.65 A 1.18 1.18 0 0 1 42.14 2.46" stroke="rgba(255,255,255,0.92)" stroke-width="1.0" fill="none"/>
  <path d="M 42.14 8.77 A 1.18 1.18 0 0 1 43.33 7.59" stroke="rgba(255,255,255,0.92)" stroke-width="1.0" fill="none"/>
  <path d="M 23.20 7.59 A 1.18 1.18 0 0 1 24.38 8.77" stroke="rgba(255,255,255,0.92)" stroke-width="1.0" fill="none"/>
  <path d="M 24.38 8.77 A 1.18 1.18 0 0 1 25.57 7.59" stroke="rgba(255,255,255,0.92)" stroke-width="1.0" fill="none"/>
  <path d="M 6.62 2.46 L 77.67 2.46" stroke="rgba(255,255,255,0.92)" stroke-width="1.0" fill="none"/>
  <path d="M 6.66 2.14 L 24.34 2.14" stroke="rgba(255,255,255,0.92)" stroke-width="1.0" fill="none"/>
  <path d="M 24.43 2.14 L 42.10 2.14" stroke="rgba(255,255,255,0.92)" stroke-width="1.0" fill="none"/>
  <path d="M 42.19 2.14 L 59.86 2.14" stroke="rgba(255,255,255,0.92)" stroke-width="1.0" fill="none"/>
  <path d="M 59.95 2.14 L 77.63 2.14" stroke="rgba(255,255,255,0.92)" stroke-width="1.0" fill="none"/>
  <path d="M 60.10 1.81 L 77.47 1.81" stroke="rgba(255,255,255,0.92)" stroke-width="1.0" fill="none"/>
  <path d="M 6.81 1.81 L 24.19 1.81" stroke="rgba(255,255,255,0.92)" stroke-width="1.0" fill="none"/>
  <path d="M 24.58 1.81 L 41.95 1.81" stroke="rgba(255,255,255,0.92)" stroke-width="1.0" fill="none"/>
  <path d="M 42.34 1.81 L 59.71 1.81" stroke="rgba(255,255,255,0.92)" stroke-width="1.0" fill="none"/>
  <path d="M 25.49 6.68 A 1.82 1.82 0 0 1 24.45 6.31" stroke="rgba(255,255,255,0.92)" stroke-width="1.0" fill="none"/>
  <path d="M 24.27 5.14 A 0.97 0.97 0 0 1 23.50 5.33" stroke="rgba(255,255,255,0.92)" stroke-width="1.0" fill="none"/>
  <path d="M 24.35 8.02 A 1.40 1.40 0 0 1 23.60 8.64" stroke="rgba(255,255,255,0.92)" stroke-width="1.0" fill="none"/>
  <path d="M 25.32 21.45 A 7.17 7.17 0 0 1 24.45 21.37" stroke="rgba(255,255,255,0.92)" stroke-width="1.0" fill="none"/>
  <path d="M 25.61 10.05 A 1.83 1.83 0 0 1 24.45 9.29" stroke="rgba(255,255,255,0.92)" stroke-width="1.0" fill="none"/>
  <path d="M 24.38 6.89 A 0.50 0.50 0 0 1 23.57 7.23" stroke="rgba(255,255,255,0.92)" stroke-width="1.0" fill="none"/>
  <path d="M 24.31 4.64 A 1.15 1.15 0 0 1 23.59 5.22" stroke="rgba(255,255,255,0.92)" stroke-width="1.0" fill="none"/>
  <path d="M 24.43 7.45 A 1.09 1.09 0 0 1 23.84 7.80" stroke="rgba(255,255,255,0.92)" stroke-width="1.0" fill="none"/>
  <path d="M 7.68 6.68 A 1.82 1.82 0 0 1 6.64 6.31" stroke="rgba(255,255,255,0.92)" stroke-width="1.0" fill="none"/>
  <path d="M 7.50 21.45 A 7.17 7.17 0 0 1 6.63 21.37" stroke="rgba(255,255,255,0.92)" stroke-width="1.0" fill="none"/>
  <path d="M 7.79 10.05 A 1.83 1.83 0 0 1 6.63 9.29" stroke="rgba(255,255,255,0.92)" stroke-width="1.0" fill="none"/>
  <path d="M 43.26 6.68 A 1.82 1.82 0 0 1 42.22 6.31" stroke="rgba(255,255,255,0.92)" stroke-width="1.0" fill="none"/>
  <path d="M 42.03 5.14 A 0.97 0.97 0 0 1 41.27 5.33" stroke="rgba(255,255,255,0.92)" stroke-width="1.0" fill="none"/>
  <path d="M 42.11 8.02 A 1.40 1.40 0 0 1 41.37 8.64" stroke="rgba(255,255,255,0.92)" stroke-width="1.0" fill="none"/>
  <path d="M 43.08 21.45 A 7.17 7.17 0 0 1 42.21 21.37" stroke="rgba(255,255,255,0.92)" stroke-width="1.0" fill="none"/>
  <path d="M 43.37 10.05 A 1.83 1.83 0 0 1 42.21 9.29" stroke="rgba(255,255,255,0.92)" stroke-width="1.0" fill="none"/>
  <path d="M 42.14 6.89 A 0.50 0.50 0 0 1 41.34 7.23" stroke="rgba(255,255,255,0.92)" stroke-width="1.0" fill="none"/>
  <path d="M 42.08 4.64 A 1.15 1.15 0 0 1 41.36 5.22" stroke="rgba(255,255,255,0.92)" stroke-width="1.0" fill="none"/>
  <path d="M 42.20 7.45 A 1.09 1.09 0 0 1 41.60 7.80" stroke="rgba(255,255,255,0.92)" stroke-width="1.0" fill="none"/>
  <path d="M 61.02 6.68 A 1.82 1.82 0 0 1 59.98 6.31" stroke="rgba(255,255,255,0.92)" stroke-width="1.0" fill="none"/>
  <path d="M 59.79 5.14 A 0.97 0.97 0 0 1 59.03 5.33" stroke="rgba(255,255,255,0.92)" stroke-width="1.0" fill="none"/>
  <path d="M 59.87 8.02 A 1.40 1.40 0 0 1 59.13 8.64" stroke="rgba(255,255,255,0.92)" stroke-width="1.0" fill="none"/>
  <path d="M 60.84 21.45 A 7.17 7.17 0 0 1 59.97 21.37" stroke="rgba(255,255,255,0.92)" stroke-width="1.0" fill="none"/>
  <path d="M 61.13 10.05 A 1.83 1.83 0 0 1 59.97 9.29" stroke="rgba(255,255,255,0.92)" stroke-width="1.0" fill="none"/>
  <path d="M 59.91 6.89 A 0.50 0.50 0 0 1 59.10 7.23" stroke="rgba(255,255,255,0.92)" stroke-width="1.0" fill="none"/>
  <path d="M 59.84 4.64 A 1.15 1.15 0 0 1 59.12 5.22" stroke="rgba(255,255,255,0.92)" stroke-width="1.0" fill="none"/>
  <path d="M 59.96 7.45 A 1.09 1.09 0 0 1 59.36 7.80" stroke="rgba(255,255,255,0.92)" stroke-width="1.0" fill="none"/>
  <path d="M 77.56 5.14 A 0.97 0.97 0 0 1 76.79 5.33" stroke="rgba(255,255,255,0.92)" stroke-width="1.0" fill="none"/>
  <path d="M 77.64 8.02 A 1.40 1.40 0 0 1 76.89 8.64" stroke="rgba(255,255,255,0.92)" stroke-width="1.0" fill="none"/>
  <path d="M 77.67 6.89 A 0.50 0.50 0 0 1 76.86 7.23" stroke="rgba(255,255,255,0.92)" stroke-width="1.0" fill="none"/>
  <path d="M 77.60 4.64 A 1.15 1.15 0 0 1 76.88 5.22" stroke="rgba(255,255,255,0.92)" stroke-width="1.0" fill="none"/>
  <path d="M 77.72 7.45 A 1.09 1.09 0 0 1 77.13 7.80" stroke="rgba(255,255,255,0.92)" stroke-width="1.0" fill="none"/>
  <path d="M 94.30 26.43 L 100.00 11.71 L 88.96 6.48 L 83.26 22.16 Z" stroke="rgba(255,255,255,0.92)" stroke-width="1.0" fill="none"/>
  <circle cx="81.68" cy="14.51" r="3.95" stroke="rgba(255,255,255,0.92)" stroke-width="1.0" fill="none"/>
  <circle cx="81.68" cy="14.51" r="0.99" stroke="rgba(255,255,255,0.92)" stroke-width="1.0" fill="none"/>
  <path d="M 85.18 18.13 A 2.77 2.77 0 0 1 82.40 16.97" stroke="rgba(255,255,255,0.92)" stroke-width="1.0" fill="none"/>
  <path d="M 85.56 21.44 A 4.03 4.03 0 0 1 82.53 21.21" stroke="rgba(255,255,255,0.92)" stroke-width="1.0" fill="none"/>
  <path d="M 81.82 18.76 A 3.45 3.45 0 0 1 81.68 15.79" stroke="rgba(255,255,255,0.92)" stroke-width="1.0" fill="none"/>
  <circle cx="81.68" cy="14.51" r="2.80" stroke="rgba(255,255,255,0.92)" stroke-width="1.0" fill="none"/>
  <circle cx="88.52" cy="64.43" r="0.59" stroke="rgba(255,255,255,0.92)" stroke-width="1.0" fill="none"/>
  <circle cx="88.52" cy="52.19" r="0.59" stroke="rgba(255,255,255,0.92)" stroke-width="1.0" fill="none"/>
  <circle cx="88.52" cy="39.96" r="0.59" stroke="rgba(255,255,255,0.92)" stroke-width="1.0" fill="none"/>
  <circle cx="88.52" cy="76.67" r="0.59" stroke="rgba(255,255,255,0.92)" stroke-width="1.0" fill="none"/>
  <path d="M 99.38 64.43 L 99.38 76.67" stroke="rgba(255,255,255,0.92)" stroke-width="1.0" fill="none"/>
  <path d="M 99.38 64.43 L 99.38 52.19" stroke="rgba(255,255,255,0.92)" stroke-width="1.0" fill="none"/>
  <path d="M 99.38 52.08 L 99.38 39.96" stroke="rgba(255,255,255,0.92)" stroke-width="1.0" fill="none"/>
  <path d="M 99.38 39.96 L 99.38 29.10" stroke="rgba(255,255,255,0.92)" stroke-width="1.0" fill="none"/>
  <path d="M 99.38 52.08 L 99.38 52.19" stroke="rgba(255,255,255,0.92)" stroke-width="1.0" fill="none"/>
  <path d="M 1.88 20.62 L 6.62 20.62" stroke="rgba(255,255,255,0.92)" stroke-width="1.0" fill="none"/>
  <path d="M 1.88 19.71 L 6.62 19.71" stroke="rgba(255,255,255,0.92)" stroke-width="1.0" fill="none"/>
  <path d="M 1.88 15.56 L 6.62 15.56" stroke="rgba(255,255,255,0.92)" stroke-width="1.0" fill="none"/>
  <path d="M 1.88 12.33 L 6.62 12.33" stroke="rgba(255,255,255,0.92)" stroke-width="1.0" fill="none"/>
  <path d="M 1.88 18.28 L 6.62 18.28" stroke="rgba(255,255,255,0.92)" stroke-width="1.0" fill="none"/>
  <path d="M 1.88 35.61 L 1.88 10.75" stroke="rgba(255,255,255,0.92)" stroke-width="1.0" fill="none"/>
  <path d="M 6.62 23.38 L 6.62 4.83" stroke="rgba(255,255,255,0.92)" stroke-width="1.0" fill="none"/>
  <path d="M 77.67 5.62 L 96.22 5.62" stroke="rgba(255,255,255,0.92)" stroke-width="1.0" fill="none"/>
  <path d="M 7.80 3.65 L 23.20 3.65" stroke="rgba(255,255,255,0.92)" stroke-width="1.0" fill="none"/>
  <path d="M 25.57 3.65 L 40.96 3.65" stroke="rgba(255,255,255,0.92)" stroke-width="1.0" fill="none"/>
  <path d="M 43.33 3.65 L 58.72 3.65" stroke="rgba(255,255,255,0.92)" stroke-width="1.0" fill="none"/>
  <path d="M 61.09 3.65 L 76.48 3.65" stroke="rgba(255,255,255,0.92)" stroke-width="1.0" fill="none"/>
  <path d="M 7.80 6.02 A 1.18 1.18 0 0 1 6.62 4.83" stroke="rgba(255,255,255,0.92)" stroke-width="1.0" fill="none"/>
  <path d="M 6.62 9.57 L 3.07 9.57" stroke="rgba(255,255,255,0.92)" stroke-width="1.0" fill="none"/>
  <path d="M 3.07 11.94 A 1.18 1.18 0 0 1 1.88 10.75" stroke="rgba(255,255,255,0.92)" stroke-width="1.0" fill="none"/>
  <path d="M 1.88 23.38 L 24.38 23.38" stroke="rgba(255,255,255,0.92)" stroke-width="1.0" fill="none"/>
  <path d="M 3.46 37.19 L 99.38 37.19" stroke="rgba(255,255,255,0.92)" stroke-width="1.0" fill="none"/>
  <path d="M 1.88 35.61 A 1.58 1.58 0 0 1 3.46 34.03" stroke="rgba(255,255,255,0.92)" stroke-width="1.0" fill="none"/>
  <path d="M 9.89 38.68 L 9.89 38.78 L 9.89 38.88 Z" stroke="rgba(255,255,255,0.92)" stroke-width="1.0" fill="none"/>
  <path d="M 9.89 38.68 L 9.89 38.78 L 9.89 38.88 Z" stroke="rgba(255,255,255,0.92)" stroke-width="1.0" fill="none"/>
  <path d="M 11.73 38.68 L 11.73 37.19" stroke="rgba(255,255,255,0.92)" stroke-width="1.0" fill="none"/>
  <path d="M 10.15 38.68 L 10.15 37.19" stroke="rgba(255,255,255,0.92)" stroke-width="1.0" fill="none"/>
  <path d="M 11.73 38.49 L 11.71 38.48 L 11.68 38.48 L 11.65 38.47 L 11.63 38.46 L 11.60 38.46 L 11.57 38.45 L 11.54 38.44 L 11.51 38.44 L 11.47 38.43 L 11.44 38.43 L 11.41 38.42 L 11.38 38.42 L 11.34 38.41 L 11.31 38.41 L 11.27 38.41 L 11.24 38.40 L 11.20 38.40 L 11.16 38.40 L 11.13 38.40 L 11.09 38.40 L 11.05 38.39 L 11.02 38.39 L 10.98 38.39 L 10.94 38.39 L 10.90 38.39 L 10.87 38.39 L 10.83 38.39 L 10.79 38.40 L 10.76 38.40 L 10.72 38.40 L 10.68 38.40 L 10.65 38.40 L 10.61 38.41 L 10.58 38.41 L 10.54 38.41 L 10.51 38.42 L 10.47 38.42 L 10.44 38.43 L 10.41 38.43 L 10.38 38.44 L 10.35 38.44 L 10.32 38.45 L 10.29 38.46 L 10.26 38.46 L 10.23 38.47 L 10.20 38.48 L 10.18 38.48 L 10.15 38.49" stroke="rgba(255,255,255,0.92)" stroke-width="1.0" fill="none"/>
  <path d="M 10.15 33.92 A 2.51 2.51 0 0 1 11.73 33.92" stroke="rgba(255,255,255,0.92)" stroke-width="1.0" fill="none"/>
  <path d="M 11.99 38.68 L 11.99 38.88" stroke="rgba(255,255,255,0.92)" stroke-width="1.0" fill="none"/>
  <path d="M 9.89 38.68 L 9.89 38.88" stroke="rgba(255,255,255,0.92)" stroke-width="1.0" fill="none"/>
  <path d="M 11.99 38.88 L 11.99 38.86 L 11.98 38.84 L 11.97 38.82 L 11.96 38.81 L 11.94 38.79 L 11.91 38.77 L 11.88 38.75 L 11.85 38.74 L 11.81 38.72 L 11.77 38.70 L 11.73 38.69 L 11.68 38.68 L 11.63 38.66 L 11.58 38.65 L 11.52 38.64 L 11.47 38.63 L 11.41 38.62 L 11.34 38.61 L 11.28 38.61 L 11.21 38.60 L 11.15 38.60 L 11.08 38.59 L 11.01 38.59 L 10.94 38.59 L 10.87 38.59 L 10.81 38.59 L 10.74 38.60 L 10.67 38.60 L 10.60 38.61 L 10.54 38.61 L 10.48 38.62 L 10.42 38.63 L 10.36 38.64 L 10.30 38.65 L 10.25 38.66 L 10.20 38.68 L 10.15 38.69 L 10.11 38.70 L 10.07 38.72 L 10.03 38.74 L 10.00 38.75 L 9.97 38.77 L 9.95 38.79 L 9.93 38.81 L 9.91 38.82 L 9.90 38.84 L 9.90 38.86 L 9.89 38.88" stroke="rgba(255,255,255,0.92)" stroke-width="1.0" fill="none"/>
  <path d="M 99.38 37.19 L 99.38 26.44" stroke="rgba(255,255,255,0.92)" stroke-width="1.0" fill="none"/>
  <path d="M 97.41 25.32 L 97.41 6.80" stroke="rgba(255,255,255,0.92)" stroke-width="1.0" fill="none"/>
  <path d="M 97.41 21.80 A 0.39 0.39 0 0 1 97.01 22.20" stroke="rgba(255,255,255,0.92)" stroke-width="1.0" fill="none"/>
  <path d="M 97.41 6.80 A 1.18 1.18 0 0 1 96.22 7.99" stroke="rgba(255,255,255,0.92)" stroke-width="1.0" fill="none"/>
  <path d="M 24.38 21.41 L 24.38 4.83" stroke="rgba(255,255,255,0.92)" stroke-width="1.0" fill="none"/>
  <path d="M 42.14 21.41 L 42.14 4.83" stroke="rgba(255,255,255,0.92)" stroke-width="1.0" fill="none"/>
  <path d="M 59.91 21.41 L 59.91 4.83" stroke="rgba(255,255,255,0.92)" stroke-width="1.0" fill="none"/>
  <path d="M 77.67 21.80 L 77.67 4.83" stroke="rgba(255,255,255,0.92)" stroke-width="1.0" fill="none"/>
  <path d="M 77.67 4.83 A 1.18 1.18 0 0 1 76.48 6.02" stroke="rgba(255,255,255,0.92)" stroke-width="1.0" fill="none"/>
  <path d="M 17.61 10.76 L 24.14 10.76" stroke="rgba(255,255,255,0.92)" stroke-width="1.0" fill="none"/>
  <path d="M 17.61 10.95 L 24.14 10.95" stroke="rgba(255,255,255,0.92)" stroke-width="1.0" fill="none"/>
  <path d="M 31.06 10.76 L 24.54 10.76" stroke="rgba(255,255,255,0.92)" stroke-width="1.0" fill="none"/>
  <path d="M 31.06 10.95 L 24.54 10.95" stroke="rgba(255,255,255,0.92)" stroke-width="1.0" fill="none"/>
  <path d="M 10.20 28.44 A 3.56 3.56 0 0 1 6.81 27.12" stroke="rgba(255,255,255,0.92)" stroke-width="1.0" fill="none"/>
  <path d="M 66.59 10.76 L 60.06 10.76" stroke="rgba(255,255,255,0.92)" stroke-width="1.0" fill="none"/>
  <path d="M 66.59 10.95 L 60.06 10.95" stroke="rgba(255,255,255,0.92)" stroke-width="1.0" fill="none"/>
  <path d="M 53.14 10.76 L 59.67 10.76" stroke="rgba(255,255,255,0.92)" stroke-width="1.0" fill="none"/>
  <path d="M 53.14 10.95 L 59.67 10.95" stroke="rgba(255,255,255,0.92)" stroke-width="1.0" fill="none"/>
  <path d="M 74.09 21.41 L 10.20 21.41" stroke="rgba(255,255,255,0.92)" stroke-width="1.0" fill="none"/>
  <path d="M 77.48 27.12 A 3.56 3.56 0 0 1 74.09 28.44" stroke="rgba(255,255,255,0.92)" stroke-width="1.0" fill="none"/>
  <path d="M 77.67 24.39 A 7.28 7.28 0 0 1 77.48 26.04" stroke="rgba(255,255,255,0.92)" stroke-width="1.0" fill="none"/>
  <path d="M 77.48 27.55 A 3.97 3.97 0 0 1 76.74 25.93" stroke="rgba(255,255,255,0.92)" stroke-width="1.0" fill="none"/>
  <path d="M 98.75 2815.10 A 1396.87 1396.87 0 0 1 24.38 2817.11" stroke="rgba(255,255,255,0.92)" stroke-width="1.0" fill="none"/>
  <path d="M 99.38 26.44 A 1.18 1.18 0 0 1 98.75 27.49" stroke="rgba(255,255,255,0.92)" stroke-width="1.0" fill="none"/>
  <path d="M 6.81 26.04 A 7.28 7.28 0 0 1 6.69 25.39" stroke="rgba(255,255,255,0.92)" stroke-width="1.0" fill="none"/>
  <path d="M 7.21 26.90 A 3.97 3.97 0 0 1 6.81 27.55" stroke="rgba(255,255,255,0.92)" stroke-width="1.0" fill="none"/>
  <path d="M 1.88 22.16 L 6.62 22.16" stroke="rgba(255,255,255,0.92)" stroke-width="1.0" fill="none"/>
  <path d="M 1.88 16.45 L 6.62 16.45" stroke="rgba(255,255,255,0.92)" stroke-width="1.0" fill="none"/>
  <path d="M 1.88 13.01 L 6.62 13.01" stroke="rgba(255,255,255,0.92)" stroke-width="1.0" fill="none"/>
  <path d="M 1.88 11.29 L 6.62 11.29" stroke="rgba(255,255,255,0.92)" stroke-width="1.0" fill="none"/>
  <path d="M 6.62 10.43 L 1.93 10.43" stroke="rgba(255,255,255,0.92)" stroke-width="1.0" fill="none"/>
  <path d="M 98.98 26.44 L 98.23 25.65 L 24.38 23.74 L 2.28 23.74 L 2.28 35.61 L 3.46 36.80 L 98.98 36.80 Z" stroke="rgba(255,255,255,0.92)" stroke-width="1.0" fill="none"/>
  <path d="M 78.06 21.41 L 97.01 21.41" stroke="rgba(255,255,255,0.92)" stroke-width="1.0" fill="none"/>
  <path d="M 78.06 22.20 A 0.39 0.39 0 0 1 77.67 21.80" stroke="rgba(255,255,255,0.92)" stroke-width="1.0" fill="none"/>
  <path d="M 77.72 21.61 L 97.35 21.61" stroke="rgba(255,255,255,0.92)" stroke-width="1.0" fill="none"/>
  <path d="M 77.67 21.80 L 97.41 21.80" stroke="rgba(255,255,255,0.92)" stroke-width="1.0" fill="none"/>
  <path d="M 61.09 6.02 A 1.18 1.18 0 0 1 59.91 4.83" stroke="rgba(255,255,255,0.92)" stroke-width="1.0" fill="none"/>
  <path d="M 24.38 4.83 A 1.18 1.18 0 0 1 23.20 6.02" stroke="rgba(255,255,255,0.92)" stroke-width="1.0" fill="none"/>
  <path d="M 42.14 4.83 A 1.18 1.18 0 0 1 40.96 6.02" stroke="rgba(255,255,255,0.92)" stroke-width="1.0" fill="none"/>
  <path d="M 59.91 4.83 A 1.18 1.18 0 0 1 58.72 6.02" stroke="rgba(255,255,255,0.92)" stroke-width="1.0" fill="none"/>
  <path d="M 43.33 6.02 A 1.18 1.18 0 0 1 42.14 4.83" stroke="rgba(255,255,255,0.92)" stroke-width="1.0" fill="none"/>
  <path d="M 25.57 6.02 A 1.18 1.18 0 0 1 24.38 4.83" stroke="rgba(255,255,255,0.92)" stroke-width="1.0" fill="none"/>
  <path d="M 6.62 14.70 A 1.18 1.18 0 0 1 7.80 13.51" stroke="rgba(255,255,255,0.92)" stroke-width="1.0" fill="none"/>
  <path d="M 25.49 14.34 A 1.82 1.82 0 0 1 24.45 13.97" stroke="rgba(255,255,255,0.92)" stroke-width="1.0" fill="none"/>
  <path d="M 24.27 12.80 A 0.97 0.97 0 0 1 23.50 12.99" stroke="rgba(255,255,255,0.92)" stroke-width="1.0" fill="none"/>
  <path d="M 24.35 14.89 A 1.40 1.40 0 0 1 23.60 15.52" stroke="rgba(255,255,255,0.92)" stroke-width="1.0" fill="none"/>
  <path d="M 25.32 28.33 A 7.17 7.17 0 0 1 24.45 28.24" stroke="rgba(255,255,255,0.92)" stroke-width="1.0" fill="none"/>
  <path d="M 25.61 16.93 A 1.83 1.83 0 0 1 24.45 16.17" stroke="rgba(255,255,255,0.92)" stroke-width="1.0" fill="none"/>
  <path d="M 24.38 13.77 A 0.50 0.50 0 0 1 23.57 14.10" stroke="rgba(255,255,255,0.92)" stroke-width="1.0" fill="none"/>
  <path d="M 24.31 12.31 A 1.15 1.15 0 0 1 23.59 12.89" stroke="rgba(255,255,255,0.92)" stroke-width="1.0" fill="none"/>
  <path d="M 25.15 21.42 A 6.37 6.37 0 0 1 24.38 21.22" stroke="rgba(255,255,255,0.92)" stroke-width="1.0" fill="none"/>
  <path d="M 24.99 10.86 A 1.09 1.09 0 0 1 24.39 10.50" stroke="rgba(255,255,255,0.92)" stroke-width="1.0" fill="none"/>
  <path d="M 24.43 9.03 A 1.09 1.09 0 0 1 23.84 9.38" stroke="rgba(255,255,255,0.92)" stroke-width="1.0" fill="none"/>
  <path d="M 7.68 14.34 A 1.82 1.82 0 0 1 6.64 13.97" stroke="rgba(255,255,255,0.92)" stroke-width="1.0" fill="none"/>
  <path d="M 7.50 28.33 A 7.17 7.17 0 0 1 6.63 28.24" stroke="rgba(255,255,255,0.92)" stroke-width="1.0" fill="none"/>
  <path d="M 7.79 16.93 A 1.83 1.83 0 0 1 6.63 16.17" stroke="rgba(255,255,255,0.92)" stroke-width="1.0" fill="none"/>
  <path d="M 7.33 21.42 A 6.37 6.37 0 0 1 6.57 21.22" stroke="rgba(255,255,255,0.92)" stroke-width="1.0" fill="none"/>
  <path d="M 7.17 10.86 A 1.09 1.09 0 0 1 6.58 10.50" stroke="rgba(255,255,255,0.92)" stroke-width="1.0" fill="none"/>
  <path d="M 43.26 14.34 A 1.82 1.82 0 0 1 42.22 13.97" stroke="rgba(255,255,255,0.92)" stroke-width="1.0" fill="none"/>
  <path d="M 42.03 12.80 A 0.97 0.97 0 0 1 41.27 12.99" stroke="rgba(255,255,255,0.92)" stroke-width="1.0" fill="none"/>
  <path d="M 42.11 14.89 A 1.40 1.40 0 0 1 41.37 15.52" stroke="rgba(255,255,255,0.92)" stroke-width="1.0" fill="none"/>
  <path d="M 43.08 28.33 A 7.17 7.17 0 0 1 42.21 28.24" stroke="rgba(255,255,255,0.92)" stroke-width="1.0" fill="none"/>
  <path d="M 43.37 16.93 A 1.83 1.83 0 0 1 42.21 16.17" stroke="rgba(255,255,255,0.92)" stroke-width="1.0" fill="none"/>
  <path d="M 42.14 13.77 A 0.50 0.50 0 0 1 41.34 14.10" stroke="rgba(255,255,255,0.92)" stroke-width="1.0" fill="none"/>
  <path d="M 42.08 12.31 A 1.15 1.15 0 0 1 41.36 12.89" stroke="rgba(255,255,255,0.92)" stroke-width="1.0" fill="none"/>
  <path d="M 42.91 21.42 A 6.37 6.37 0 0 1 42.14 21.22" stroke="rgba(255,255,255,0.92)" stroke-width="1.0" fill="none"/>
  <path d="M 42.75 10.86 A 1.09 1.09 0 0 1 42.16 10.50" stroke="rgba(255,255,255,0.92)" stroke-width="1.0" fill="none"/>
  <path d="M 42.20 9.03 A 1.09 1.09 0 0 1 41.60 9.38" stroke="rgba(255,255,255,0.92)" stroke-width="1.0" fill="none"/>
  <path d="M 61.02 14.34 A 1.82 1.82 0 0 1 59.98 13.97" stroke="rgba(255,255,255,0.92)" stroke-width="1.0" fill="none"/>
  <path d="M 59.79 12.80 A 0.97 0.97 0 0 1 59.03 12.99" stroke="rgba(255,255,255,0.92)" stroke-width="1.0" fill="none"/>
  <path d="M 59.87 14.89 A 1.40 1.40 0 0 1 59.13 15.52" stroke="rgba(255,255,255,0.92)" stroke-width="1.0" fill="none"/>
  <path d="M 60.84 28.33 A 7.17 7.17 0 0 1 59.97 28.24" stroke="rgba(255,255,255,0.92)" stroke-width="1.0" fill="none"/>
  <path d="M 61.13 16.93 A 1.83 1.83 0 0 1 59.97 16.17" stroke="rgba(255,255,255,0.92)" stroke-width="1.0" fill="none"/>
  <path d="M 59.91 13.77 A 0.50 0.50 0 0 1 59.10 14.10" stroke="rgba(255,255,255,0.92)" stroke-width="1.0" fill="none"/>
  <path d="M 59.84 12.31 A 1.15 1.15 0 0 1 59.12 12.89" stroke="rgba(255,255,255,0.92)" stroke-width="1.0" fill="none"/>
  <path d="M 60.67 21.42 A 6.37 6.37 0 0 1 59.91 21.22" stroke="rgba(255,255,255,0.92)" stroke-width="1.0" fill="none"/>
  <path d="M 60.51 10.86 A 1.09 1.09 0 0 1 59.92 10.50" stroke="rgba(255,255,255,0.92)" stroke-width="1.0" fill="none"/>
  <path d="M 59.96 9.03 A 1.09 1.09 0 0 1 59.36 9.38" stroke="rgba(255,255,255,0.92)" stroke-width="1.0" fill="none"/>
  <path d="M 77.56 12.80 A 0.97 0.97 0 0 1 76.79 12.99" stroke="rgba(255,255,255,0.92)" stroke-width="1.0" fill="none"/>
  <path d="M 77.64 14.89 A 1.40 1.40 0 0 1 76.89 15.52" stroke="rgba(255,255,255,0.92)" stroke-width="1.0" fill="none"/>
  <path d="M 77.67 13.77 A 0.50 0.50 0 0 1 76.86 14.10" stroke="rgba(255,255,255,0.92)" stroke-width="1.0" fill="none"/>
  <path d="M 77.60 12.31 A 1.15 1.15 0 0 1 76.88 12.89" stroke="rgba(255,255,255,0.92)" stroke-width="1.0" fill="none"/>
  <path d="M 77.72 9.03 A 1.09 1.09 0 0 1 77.13 9.38" stroke="rgba(255,255,255,0.92)" stroke-width="1.0" fill="none"/>
  <path d="M 6.64 14.63 A 1.82 1.82 0 0 1 7.68 14.26" stroke="rgba(255,255,255,0.92)" stroke-width="1.0" fill="none"/>
  <path d="M 6.57 7.38 A 6.37 6.37 0 0 1 7.33 7.18" stroke="rgba(255,255,255,0.92)" stroke-width="1.0" fill="none"/>
  <path d="M 6.58 18.10 A 1.09 1.09 0 0 1 7.17 17.74" stroke="rgba(255,255,255,0.92)" stroke-width="1.0" fill="none"/>
  <path d="M 24.38 14.70 A 1.18 1.18 0 0 1 25.57 13.51" stroke="rgba(255,255,255,0.92)" stroke-width="1.0" fill="none"/>
  <path d="M 24.40 14.63 A 1.82 1.82 0 0 1 25.44 14.26" stroke="rgba(255,255,255,0.92)" stroke-width="1.0" fill="none"/>
  <path d="M 24.33 7.38 A 6.37 6.37 0 0 1 25.10 7.18" stroke="rgba(255,255,255,0.92)" stroke-width="1.0" fill="none"/>
  <path d="M 24.34 18.10 A 1.09 1.09 0 0 1 24.93 17.74" stroke="rgba(255,255,255,0.92)" stroke-width="1.0" fill="none"/>
  <path d="M 42.14 14.70 A 1.18 1.18 0 0 1 43.33 13.51" stroke="rgba(255,255,255,0.92)" stroke-width="1.0" fill="none"/>
  <path d="M 42.17 14.63 A 1.82 1.82 0 0 1 43.20 14.26" stroke="rgba(255,255,255,0.92)" stroke-width="1.0" fill="none"/>
  <path d="M 42.09 7.38 A 6.37 6.37 0 0 1 42.86 7.18" stroke="rgba(255,255,255,0.92)" stroke-width="1.0" fill="none"/>
  <path d="M 42.10 18.10 A 1.09 1.09 0 0 1 42.70 17.74" stroke="rgba(255,255,255,0.92)" stroke-width="1.0" fill="none"/>
  <path d="M 59.91 14.67 A 1.18 1.18 0 0 1 61.09 13.49" stroke="rgba(255,255,255,0.92)" stroke-width="1.0" fill="none"/>
  <path d="M 59.93 14.60 A 1.82 1.82 0 0 1 60.97 14.23" stroke="rgba(255,255,255,0.92)" stroke-width="1.0" fill="none"/>
  <path d="M 59.85 7.35 A 6.37 6.37 0 0 1 60.62 7.15" stroke="rgba(255,255,255,0.92)" stroke-width="1.0" fill="none"/>
  <path d="M 59.87 18.07 A 1.09 1.09 0 0 1 60.46 17.71" stroke="rgba(255,255,255,0.92)" stroke-width="1.0" fill="none"/>
  <path d="M 23.50 13.69 A 0.97 0.97 0 0 1 24.27 13.88" stroke="rgba(255,255,255,0.92)" stroke-width="1.0" fill="none"/>
  <path d="M 23.59 13.79 A 1.15 1.15 0 0 1 24.31 14.37" stroke="rgba(255,255,255,0.92)" stroke-width="1.0" fill="none"/>
  <path d="M 23.84 17.30 A 1.09 1.09 0 0 1 24.43 17.65" stroke="rgba(255,255,255,0.92)" stroke-width="1.0" fill="none"/>
  <path d="M 41.27 13.69 A 0.97 0.97 0 0 1 42.03 13.88" stroke="rgba(255,255,255,0.92)" stroke-width="1.0" fill="none"/>
  <path d="M 41.36 13.79 A 1.15 1.15 0 0 1 42.08 14.37" stroke="rgba(255,255,255,0.92)" stroke-width="1.0" fill="none"/>
  <path d="M 41.60 17.30 A 1.09 1.09 0 0 1 42.20 17.65" stroke="rgba(255,255,255,0.92)" stroke-width="1.0" fill="none"/>
  <path d="M 59.03 13.69 A 0.97 0.97 0 0 1 59.79 13.88" stroke="rgba(255,255,255,0.92)" stroke-width="1.0" fill="none"/>
  <path d="M 59.12 13.79 A 1.15 1.15 0 0 1 59.84 14.37" stroke="rgba(255,255,255,0.92)" stroke-width="1.0" fill="none"/>
  <path d="M 59.36 17.30 A 1.09 1.09 0 0 1 59.96 17.65" stroke="rgba(255,255,255,0.92)" stroke-width="1.0" fill="none"/>
  <path d="M 76.79 13.69 A 0.97 0.97 0 0 1 77.56 13.88" stroke="rgba(255,255,255,0.92)" stroke-width="1.0" fill="none"/>
  <path d="M 76.88 13.79 A 1.15 1.15 0 0 1 77.60 14.37" stroke="rgba(255,255,255,0.92)" stroke-width="1.0" fill="none"/>
  <path d="M 77.13 17.30 A 1.09 1.09 0 0 1 77.72 17.65" stroke="rgba(255,255,255,0.92)" stroke-width="1.0" fill="none"/>
  <path d="M 77.67 5.90 L 96.98 5.90" stroke="rgba(255,255,255,0.92)" stroke-width="1.0" fill="none"/>
  <path d="M 77.67 6.24 L 97.26 6.24" stroke="rgba(255,255,255,0.92)" stroke-width="1.0" fill="none"/>
  <path d="M 97.40 6.65 L 77.67 6.65" stroke="rgba(255,255,255,0.92)" stroke-width="1.0" fill="none"/>
  <path d="M 6.62 5.91 L 77.67 5.91" stroke="rgba(255,255,255,0.92)" stroke-width="1.0" fill="none"/>
  <path d="M 6.62 4.83 L 77.67 4.83" stroke="rgba(255,255,255,0.92)" stroke-width="1.0" fill="none"/>
  <path d="M 6.66 4.51 L 24.34 4.51" stroke="rgba(255,255,255,0.92)" stroke-width="1.0" fill="none"/>
  <path d="M 24.43 4.51 L 42.10 4.51" stroke="rgba(255,255,255,0.92)" stroke-width="1.0" fill="none"/>
  <path d="M 42.19 4.51 L 59.86 4.51" stroke="rgba(255,255,255,0.92)" stroke-width="1.0" fill="none"/>
  <path d="M 59.95 4.51 L 77.63 4.51" stroke="rgba(255,255,255,0.92)" stroke-width="1.0" fill="none"/>
  <path d="M 60.10 4.18 L 77.47 4.18" stroke="rgba(255,255,255,0.92)" stroke-width="1.0" fill="none"/>
  <path d="M 6.81 4.18 L 24.19 4.18" stroke="rgba(255,255,255,0.92)" stroke-width="1.0" fill="none"/>
  <path d="M 24.58 4.18 L 41.95 4.18" stroke="rgba(255,255,255,0.92)" stroke-width="1.0" fill="none"/>
  <path d="M 42.34 4.18 L 59.71 4.18" stroke="rgba(255,255,255,0.92)" stroke-width="1.0" fill="none"/>
  <path d="M 77.67 21.80 L 77.67 24.36" stroke="rgba(255,255,255,0.92)" stroke-width="1.0" fill="none"/>
  <path d="M 92.55 38.68 L 92.55 38.78 L 92.55 38.88 Z" stroke="rgba(255,255,255,0.92)" stroke-width="1.0" fill="none"/>
  <path d="M 92.55 38.68 L 92.55 38.78 L 92.55 38.88 Z" stroke="rgba(255,255,255,0.92)" stroke-width="1.0" fill="none"/>
  <path d="M 90.71 38.68 L 90.71 37.19" stroke="rgba(255,255,255,0.92)" stroke-width="1.0" fill="none"/>
  <path d="M 92.29 38.68 L 92.29 37.19" stroke="rgba(255,255,255,0.92)" stroke-width="1.0" fill="none"/>
  <path d="M 90.71 38.88 L 90.74 38.88 L 90.76 38.89 L 90.79 38.90 L 90.82 38.90 L 90.85 38.91 L 90.88 38.92 L 90.91 38.92 L 90.94 38.93 L 90.97 38.93 L 91.00 38.94 L 91.04 38.94 L 91.07 38.95 L 91.10 38.95 L 91.14 38.96 L 91.17 38.96 L 91.21 38.96 L 91.25 38.97 L 91.28 38.97 L 91.32 38.97 L 91.35 38.97 L 91.39 38.97 L 91.43 38.97 L 91.47 38.97 L 91.50 38.97 L 91.54 38.97 L 91.58 38.97 L 91.61 38.97 L 91.65 38.97 L 91.69 38.97 L 91.72 38.97 L 91.76 38.97 L 91.80 38.96 L 91.83 38.96 L 91.87 38.96 L 91.90 38.95 L 91.94 38.95 L 91.97 38.94 L 92.00 38.94 L 92.04 38.93 L 92.07 38.93 L 92.10 38.92 L 92.13 38.92 L 92.16 38.91 L 92.19 38.90 L 92.21 38.90 L 92.24 38.89 L 92.27 38.88 L 92.29 38.88" stroke="rgba(255,255,255,0.92)" stroke-width="1.0" fill="none"/>
  <path d="M 90.71 33.92 A 2.51 2.51 0 0 1 92.29 33.92" stroke="rgba(255,255,255,0.92)" stroke-width="1.0" fill="none"/>
  <path d="M 90.45 38.68 L 90.45 38.88" stroke="rgba(255,255,255,0.92)" stroke-width="1.0" fill="none"/>
  <path d="M 92.55 38.68 L 92.55 38.88" stroke="rgba(255,255,255,0.92)" stroke-width="1.0" fill="none"/>
  <path d="M 90.45 38.88 L 90.46 38.90 L 90.46 38.92 L 90.47 38.94 L 90.49 38.96 L 90.51 38.97 L 90.53 38.99 L 90.56 39.01 L 90.59 39.03 L 90.63 39.04 L 90.67 39.06 L 90.71 39.07 L 90.76 39.09 L 90.81 39.10 L 90.86 39.11 L 90.92 39.12 L 90.98 39.13 L 91.04 39.14 L 91.10 39.15 L 91.17 39.16 L 91.23 39.16 L 91.30 39.17 L 91.37 39.17 L 91.43 39.17 L 91.50 39.17 L 91.57 39.17 L 91.64 39.17 L 91.71 39.17 L 91.77 39.16 L 91.84 39.16 L 91.90 39.15 L 91.97 39.14 L 92.03 39.13 L 92.09 39.12 L 92.14 39.11 L 92.19 39.10 L 92.24 39.09 L 92.29 39.07 L 92.34 39.06 L 92.38 39.04 L 92.41 39.03 L 92.44 39.01 L 92.47 38.99 L 92.50 38.97 L 92.52 38.96 L 92.53 38.94 L 92.54 38.92 L 92.55 38.90 L 92.55 38.88" stroke="rgba(255,255,255,0.92)" stroke-width="1.0" fill="none"/>
</svg>
