<svg xmlns="http://www.w3.org/2000/svg" viewBox="0 0 99.20 100.00" data-cad-width="2330.8" data-cad-height="2349.7">
  <path d="M 26.95 11.05 L 19.15 11.05 L 18.30 11.90 L 18.30 29.19" stroke="rgba(255,255,255,0.92)" stroke-width="1.0" fill="none"/>
  <path d="M 18.30 49.81 L 18.30 92.77 L 19.15 93.62 L 91.50 93.62 L 92.35 92.77 L 92.35 79.59" stroke="rgba(255,255,255,0.92)" stroke-width="1.0" fill="none"/>
  <path d="M 92.35 62.96 L 92.35 46.32" stroke="rgba(255,255,255,0.92)" stroke-width="1.0" fill="none"/>
  <path d="M 92.35 26.76 L 92.35 11.90 L 91.50 11.05 L 88.18 11.05" stroke="rgba(255,255,255,0.92)" stroke-width="1.0" fill="none"/>
  <path d="M 61.96 11.05 L 53.16 11.05" stroke="rgba(255,255,255,0.92)" stroke-width="1.0" fill="none"/>
  <path d="M 1.28 94.89 L 74.48 94.89" stroke="rgba(255,255,255,0.92)" stroke-width="1.0" fill="none"/>
  <path d="M 74.48 94.89 L 92.35 94.89" stroke="rgba(255,255,255,0.92)" stroke-width="1.0" fill="none"/>
  <path d="M 74.48 97.45 A 1.28 1.28 0 0 1 73.20 96.17" stroke="rgba(255,255,255,0.92)" stroke-width="1.0" fill="none"/>
  <path d="M 74.48 100.00 L 97.46 100.00" stroke="rgba(255,255,255,0.92)" stroke-width="1.0" fill="none"/>
  <path d="M 73.20 98.72 A 1.28 1.28 0 0 1 74.48 97.45" stroke="rgba(255,255,255,0.92)" stroke-width="1.0" fill="none"/>
  <path d="M 97.46 97.45 A 1.28 1.28 0 0 1 98.74 98.72" stroke="rgba(255,255,255,0.92)" stroke-width="1.0" fill="none"/>
  <path d="M 17.02 93.62 A 1.28 1.28 0 0 1 18.30 92.34" stroke="rgba(255,255,255,0.92)" stroke-width="1.0" fill="none"/>
  <path d="M 93.63 93.62 L 93.63 79.54" stroke="rgba(255,255,255,0.92)" stroke-width="1.0" fill="none"/>
  <path d="M 93.63 62.76 L 93.63 11.05" stroke="rgba(255,255,255,0.92)" stroke-width="1.0" fill="none"/>
  <path d="M 98.74 98.72 L 98.74 5.95" stroke="rgba(255,255,255,0.92)" stroke-width="1.0" fill="none"/>
  <path d="M 73.20 98.72 L 73.20 96.17" stroke="rgba(255,255,255,0.92)" stroke-width="1.0" fill="none"/>
  <path d="M 98.74 5.95 A 1.28 1.28 0 0 1 97.46 7.22" stroke="rgba(255,255,255,0.92)" stroke-width="1.0" fill="none"/>
  <path d="M 92.35 92.34 A 1.28 1.28 0 0 1 93.63 93.62" stroke="rgba(255,255,255,0.92)" stroke-width="1.0" fill="none"/>
  <path d="M 93.63 11.05 A 1.28 1.28 0 0 1 92.35 12.33" stroke="rgba(255,255,255,0.92)" stroke-width="1.0" fill="none"/>
  <path d="M 17.02 93.62 L 17.02 50.05" stroke="rgba(255,255,255,0.92)" stroke-width="1.0" fill="none"/>
  <path d="M 17.02 29.81 L 17.02 28.93" stroke="rgba(255,255,255,0.92)" stroke-width="1.0" fill="none"/>
  <path d="M 0.00 93.62 L 0.00 5.95" stroke="rgba(255,255,255,0.92)" stroke-width="1.0" fill="none"/>
  <path d="M 17.02 28.93 L 17.02 11.05" stroke="rgba(255,255,255,0.92)" stroke-width="1.0" fill="none"/>
  <path d="M 15.75 27.65 A 1.28 1.28 0 0 1 17.02 28.93" stroke="rgba(255,255,255,0.92)" stroke-width="1.0" fill="none"/>
  <path d="M 11.92 28.93 L 11.92 5.95" stroke="rgba(255,255,255,0.92)" stroke-width="1.0" fill="none"/>
  <path d="M 18.30 12.33 A 1.28 1.28 0 0 1 17.02 11.05" stroke="rgba(255,255,255,0.92)" stroke-width="1.0" fill="none"/>
  <path d="M 29.65 -271.13 A 143.86 143.86 0 0 1 53.09 -270.52" stroke="rgba(255,255,255,0.92)" stroke-width="1.0" fill="none"/>
  <path d="M 33.32 32.41 A 10.43 10.43 0 0 1 26.11 36.05" stroke="rgba(255,255,255,0.92)" stroke-width="1.0" fill="none"/>
  <path d="M 26.11 -7.93 A 12.55 12.55 0 0 1 29.65 -8.82" stroke="rgba(255,255,255,0.92)" stroke-width="1.0" fill="none"/>
  <path d="M 26.68 14.01 A 100.52 100.52 0 0 1 26.77 16.64" stroke="rgba(255,255,255,0.92)" stroke-width="1.0" fill="none"/>
  <path d="M 26.68 20.46 A 1.90 1.90 0 0 1 26.76 23.09" stroke="rgba(255,255,255,0.92)" stroke-width="1.0" fill="none"/>
  <path d="M 26.11 17.40 A 13.13 13.13 0 0 1 26.76 12.12" stroke="rgba(255,255,255,0.92)" stroke-width="1.0" fill="none"/>
  <path d="M 26.76 32.21 A 69.64 69.64 0 0 1 26.11 37.50" stroke="rgba(255,255,255,0.92)" stroke-width="1.0" fill="none"/>
  <path d="M 26.92 182.70 A 76.04 76.04 0 0 1 26.11 182.59" stroke="rgba(255,255,255,0.92)" stroke-width="1.0" fill="none"/>
  <path d="M 26.11 11.36 A 10.43 10.43 0 0 1 26.89 11.45" stroke="rgba(255,255,255,0.92)" stroke-width="1.0" fill="none"/>
  <path d="M 29.41 37.96 A 8.27 8.27 0 0 1 26.11 30.47" stroke="rgba(255,255,255,0.92)" stroke-width="1.0" fill="none"/>
  <path d="M 26.11 20.55 A 21.09 21.09 0 0 1 26.68 29.55" stroke="rgba(255,255,255,0.92)" stroke-width="1.0" fill="none"/>
  <path d="M 69.77 32.41 A 10.43 10.43 0 0 1 62.56 36.05" stroke="rgba(255,255,255,0.92)" stroke-width="1.0" fill="none"/>
  <path d="M 84.10 3.13 A 6.65 6.65 0 0 1 88.28 3.89" stroke="rgba(255,255,255,0.92)" stroke-width="1.0" fill="none"/>
  <path d="M 88.28 36.34 A 10.43 10.43 0 0 1 81.08 32.70" stroke="rgba(255,255,255,0.92)" stroke-width="1.0" fill="none"/>
  <path d="M 62.56 -55.96 A 36.44 36.44 0 0 1 72.60 -56.71" stroke="rgba(255,255,255,0.92)" stroke-width="1.0" fill="none"/>
  <path d="M 53.09 22.65 A 7.52 7.52 0 0 1 52.73 16.31" stroke="rgba(255,255,255,0.92)" stroke-width="1.0" fill="none"/>
  <path d="M 63.35 18.72 A 16.10 16.10 0 0 1 62.56 25.84" stroke="rgba(255,255,255,0.92)" stroke-width="1.0" fill="none"/>
  <path d="M 62.56 16.95 A 8.27 8.27 0 0 1 65.86 9.46" stroke="rgba(255,255,255,0.92)" stroke-width="1.0" fill="none"/>
  <path d="M 49.79 9.74 A 8.27 8.27 0 0 1 53.09 17.23" stroke="rgba(255,255,255,0.92)" stroke-width="1.0" fill="none"/>
  <path d="M 52.22 26.91 A 7.80 7.80 0 0 1 52.50 24.08" stroke="rgba(255,255,255,0.92)" stroke-width="1.0" fill="none"/>
  <path d="M 52.22 20.02 A 7.15 7.15 0 0 1 52.73 23.75" stroke="rgba(255,255,255,0.92)" stroke-width="1.0" fill="none"/>
  <path d="M 63.35 25.23 A 2.33 2.33 0 0 1 63.43 22.27" stroke="rgba(255,255,255,0.92)" stroke-width="1.0" fill="none"/>
  <path d="M 84.10 46.94 A 16.50 16.50 0 0 1 72.60 47.22" stroke="rgba(255,255,255,0.92)" stroke-width="1.0" fill="none"/>
  <path d="M 86.48 11.17 A 8.27 8.27 0 0 1 87.47 12.73" stroke="rgba(255,255,255,0.92)" stroke-width="1.0" fill="none"/>
  <path d="M 87.46 21.03 A 1.95 1.95 0 0 1 87.92 19.20" stroke="rgba(255,255,255,0.92)" stroke-width="1.0" fill="none"/>
  <path d="M 87.47 12.73 A 8.27 8.27 0 0 1 88.28 17.23" stroke="rgba(255,255,255,0.92)" stroke-width="1.0" fill="none"/>
  <path d="M 88.28 27.96 A 22.00 22.00 0 0 1 87.59 24.69" stroke="rgba(255,255,255,0.92)" stroke-width="1.0" fill="none"/>
  <path d="M 87.42 20.02 A 7.15 7.15 0 0 1 87.92 23.75" stroke="rgba(255,255,255,0.92)" stroke-width="1.0" fill="none"/>
  <path d="M 53.09 36.34 A 10.43 10.43 0 0 1 45.88 32.70" stroke="rgba(255,255,255,0.92)" stroke-width="1.0" fill="none"/>
  <path d="M 88.28 30.75 A 8.27 8.27 0 0 1 84.99 38.24" stroke="rgba(255,255,255,0.92)" stroke-width="1.0" fill="none"/>
  <path d="M 81.08 15.29 A 10.43 10.43 0 0 1 88.28 11.65" stroke="rgba(255,255,255,0.92)" stroke-width="1.0" fill="none"/>
  <path d="M 53.11 32.22 A 8.27 8.27 0 0 1 49.79 38.24" stroke="rgba(255,255,255,0.92)" stroke-width="1.0" fill="none"/>
  <path d="M 65.86 37.96 A 8.27 8.27 0 0 1 62.59 32.41" stroke="rgba(255,255,255,0.92)" stroke-width="1.0" fill="none"/>
  <path d="M 62.90 22.28 A 14.04 14.04 0 0 1 63.43 27.07" stroke="rgba(255,255,255,0.92)" stroke-width="1.0" fill="none"/>
  <path d="M 87.42 27.65 A 19.37 19.37 0 0 1 88.28 20.81" stroke="rgba(255,255,255,0.92)" stroke-width="1.0" fill="none"/>
  <path d="M 35.17 -60.76 A 66.02 66.02 0 0 1 54.27 -63.88" stroke="rgba(255,255,255,0.92)" stroke-width="1.0" fill="none"/>
  <path d="M 54.27 170.93 A 51.41 51.41 0 0 1 25.57 162.92" stroke="rgba(255,255,255,0.92)" stroke-width="1.0" fill="none"/>
  <path d="M 54.27 166.47 A 49.25 49.25 0 0 1 27.20 156.42" stroke="rgba(255,255,255,0.92)" stroke-width="1.0" fill="none"/>
  <path d="M 39.19 -94.44 A 82.28 82.28 0 0 1 64.92 -96.06" stroke="rgba(255,255,255,0.92)" stroke-width="1.0" fill="none"/>
  <path d="M 89.90 136.31 A 27.40 27.40 0 0 1 72.50 142.36" stroke="rgba(255,255,255,0.92)" stroke-width="1.0" fill="none"/>
  <path d="M 78.55 41.02 A 30.93 30.93 0 0 1 92.02 32.47" stroke="rgba(255,255,255,0.92)" stroke-width="1.0" fill="none"/>
  <path d="M 18.30 9.78 L 26.87 9.78" stroke="rgba(255,255,255,0.92)" stroke-width="1.0" fill="none"/>
  <path d="M 53.06 9.78 L 61.90 9.78" stroke="rgba(255,255,255,0.92)" stroke-width="1.0" fill="none"/>
  <path d="M 88.08 9.78 L 92.35 9.78" stroke="rgba(255,255,255,0.92)" stroke-width="1.0" fill="none"/>
  <path d="M 1.28 4.67 L 34.23 4.67" stroke="rgba(255,255,255,0.92)" stroke-width="1.0" fill="none"/>
  <path d="M 46.28 4.67 L 70.21 4.67" stroke="rgba(255,255,255,0.92)" stroke-width="1.0" fill="none"/>
  <path d="M 80.12 4.67 L 97.46 4.67" stroke="rgba(255,255,255,0.92)" stroke-width="1.0" fill="none"/>
  <path d="M 1.28 7.22 A 1.28 1.28 0 0 1 0.00 5.95" stroke="rgba(255,255,255,0.92)" stroke-width="1.0" fill="none"/>
  <path d="M 13.19 30.20 L 15.75 30.20" stroke="rgba(255,255,255,0.92)" stroke-width="1.0" fill="none"/>
  <path d="M 11.92 28.93 A 1.28 1.28 0 0 1 13.19 27.65" stroke="rgba(255,255,255,0.92)" stroke-width="1.0" fill="none"/>
  <path d="M 13.19 7.22 A 1.28 1.28 0 0 1 11.92 5.95" stroke="rgba(255,255,255,0.92)" stroke-width="1.0" fill="none"/>
  <path d="M 26.11 11.34 A 10.43 10.43 0 0 1 33.32 14.98" stroke="rgba(255,255,255,0.92)" stroke-width="1.0" fill="none"/>
  <path d="M 26.76 23.25 A 1.90 1.90 0 0 1 26.68 25.88" stroke="rgba(255,255,255,0.92)" stroke-width="1.0" fill="none"/>
  <path d="M 53.09 30.16 A 8.27 8.27 0 0 1 49.79 37.65" stroke="rgba(255,255,255,0.92)" stroke-width="1.0" fill="none"/>
  <path d="M 45.88 14.69 A 10.43 10.43 0 0 1 53.09 11.05" stroke="rgba(255,255,255,0.92)" stroke-width="1.0" fill="none"/>
  <path d="M 12.58 4.83 L 18.30 9.78" stroke="rgba(255,255,255,0.92)" stroke-width="1.0" fill="none"/>
  <path d="M 17.02 11.05 L 12.12 5.26" stroke="rgba(255,255,255,0.92)" stroke-width="1.0" fill="none"/>
  <path d="M 98.07 4.83 L 92.35 9.78" stroke="rgba(255,255,255,0.92)" stroke-width="1.0" fill="none"/>
  <path d="M 93.63 11.05 L 98.53 5.26" stroke="rgba(255,255,255,0.92)" stroke-width="1.0" fill="none"/>
  <path d="M 98.07 99.84 L 92.35 94.89" stroke="rgba(255,255,255,0.92)" stroke-width="1.0" fill="none"/>
  <path d="M 93.63 93.62 L 98.53 99.41" stroke="rgba(255,255,255,0.92)" stroke-width="1.0" fill="none"/>
  <path d="M 0.00 93.62 A 1.28 1.28 0 0 1 1.28 92.34" stroke="rgba(255,255,255,0.92)" stroke-width="1.0" fill="none"/>
  <path d="M 0.46 29.25 L 0.46 24.15" stroke="rgba(255,255,255,0.92)" stroke-width="1.0" fill="none"/>
  <path d="M 0.46 29.25 A 1.28 1.28 0 0 1 1.74 27.97" stroke="rgba(255,255,255,0.92)" stroke-width="1.0" fill="none"/>
  <path d="M 99.20 29.25 L 99.20 24.15" stroke="rgba(255,255,255,0.92)" stroke-width="1.0" fill="none"/>
  <path d="M 99.20 21.60 L 99.20 6.28" stroke="rgba(255,255,255,0.92)" stroke-width="1.0" fill="none"/>
  <path d="M 99.20 24.15 A 1.28 1.28 0 0 1 97.92 25.43" stroke="rgba(255,255,255,0.92)" stroke-width="1.0" fill="none"/>
  <path d="M 99.20 6.28 A 1.28 1.28 0 0 1 97.92 7.55" stroke="rgba(255,255,255,0.92)" stroke-width="1.0" fill="none"/>
  <path d="M 97.92 27.97 A 1.28 1.28 0 0 1 99.20 29.25" stroke="rgba(255,255,255,0.92)" stroke-width="1.0" fill="none"/>
  <path d="M 97.92 20.32 A 1.28 1.28 0 0 1 99.20 21.60" stroke="rgba(255,255,255,0.92)" stroke-width="1.0" fill="none"/>
  <path d="M 73.66 21.60 L 73.66 6.28" stroke="rgba(255,255,255,0.92)" stroke-width="1.0" fill="none"/>
  <path d="M 17.48 21.60 L 17.48 6.28" stroke="rgba(255,255,255,0.92)" stroke-width="1.0" fill="none"/>
  <path d="M 16.21 20.32 A 1.28 1.28 0 0 1 17.48 21.60" stroke="rgba(255,255,255,0.92)" stroke-width="1.0" fill="none"/>
  <path d="M 73.66 17.77 L 18.76 17.77" stroke="rgba(255,255,255,0.92)" stroke-width="1.0" fill="none"/>
  <path d="M 18.76 20.32 A 1.28 1.28 0 0 1 17.48 19.05" stroke="rgba(255,255,255,0.92)" stroke-width="1.0" fill="none"/>
  <path d="M 97.92 22.87 L 1.74 22.87" stroke="rgba(255,255,255,0.92)" stroke-width="1.0" fill="none"/>
  <path d="M 12.38 21.60 A 1.28 1.28 0 0 1 13.65 20.32" stroke="rgba(255,255,255,0.92)" stroke-width="1.0" fill="none"/>
  <path d="M 1.74 25.43 A 1.28 1.28 0 0 1 0.46 24.15" stroke="rgba(255,255,255,0.92)" stroke-width="1.0" fill="none"/>
  <path d="M 73.66 21.60 A 1.28 1.28 0 0 1 74.94 20.32" stroke="rgba(255,255,255,0.92)" stroke-width="1.0" fill="none"/>
  <path d="M 97.92 5.00 L 74.94 5.00" stroke="rgba(255,255,255,0.92)" stroke-width="1.0" fill="none"/>
  <path d="M 60.31 5.00 L 49.89 5.00" stroke="rgba(255,255,255,0.92)" stroke-width="1.0" fill="none"/>
  <path d="M 25.28 5.00 L 13.65 5.00" stroke="rgba(255,255,255,0.92)" stroke-width="1.0" fill="none"/>
  <path d="M 74.94 7.55 A 1.28 1.28 0 0 1 73.66 6.28" stroke="rgba(255,255,255,0.92)" stroke-width="1.0" fill="none"/>
  <path d="M 17.48 6.28 A 1.28 1.28 0 0 1 16.21 7.55" stroke="rgba(255,255,255,0.92)" stroke-width="1.0" fill="none"/>
  <path d="M 13.65 7.55 A 1.28 1.28 0 0 1 12.38 6.28" stroke="rgba(255,255,255,0.92)" stroke-width="1.0" fill="none"/>
  <path d="M 97.92 30.53 L 1.74 30.53" stroke="rgba(255,255,255,0.92)" stroke-width="1.0" fill="none"/>
  <path d="M 17.14 32.14 L 17.14 32.25 L 17.14 32.35 Z" stroke="rgba(255,255,255,0.92)" stroke-width="1.0" fill="none"/>
  <path d="M 17.14 32.14 L 17.14 32.25 L 17.14 32.35 Z" stroke="rgba(255,255,255,0.92)" stroke-width="1.0" fill="none"/>
  <path d="M 19.12 32.14 L 19.12 30.53" stroke="rgba(255,255,255,0.92)" stroke-width="1.0" fill="none"/>
  <path d="M 17.42 32.14 L 17.42 30.53" stroke="rgba(255,255,255,0.92)" stroke-width="1.0" fill="none"/>
  <path d="M 19.12 31.93 L 19.09 31.92 L 19.06 31.92 L 19.04 31.91 L 19.01 31.90 L 18.97 31.89 L 18.94 31.89 L 18.91 31.88 L 18.88 31.87 L 18.84 31.87 L 18.81 31.86 L 18.77 31.86 L 18.74 31.85 L 18.70 31.85 L 18.66 31.84 L 18.62 31.84 L 18.59 31.84 L 18.55 31.83 L 18.51 31.83 L 18.47 31.83 L 18.43 31.83 L 18.39 31.83 L 18.35 31.83 L 18.31 31.83 L 18.27 31.83 L 18.23 31.83 L 18.19 31.83 L 18.15 31.83 L 18.11 31.83 L 18.07 31.83 L 18.03 31.83 L 17.99 31.83 L 17.95 31.84 L 17.91 31.84 L 17.88 31.84 L 17.84 31.85 L 17.80 31.85 L 17.76 31.86 L 17.73 31.86 L 17.69 31.87 L 17.66 31.87 L 17.63 31.88 L 17.59 31.89 L 17.56 31.89 L 17.53 31.90 L 17.50 31.91 L 17.47 31.92 L 17.44 31.92 L 17.42 31.93" stroke="rgba(255,255,255,0.92)" stroke-width="1.0" fill="none"/>
  <path d="M 17.42 27.00 A 2.71 2.71 0 0 1 19.12 27.00" stroke="rgba(255,255,255,0.92)" stroke-width="1.0" fill="none"/>
  <path d="M 19.40 32.14 L 19.40 32.35" stroke="rgba(255,255,255,0.92)" stroke-width="1.0" fill="none"/>
  <path d="M 17.14 32.14 L 17.14 32.35" stroke="rgba(255,255,255,0.92)" stroke-width="1.0" fill="none"/>
  <path d="M 19.40 32.35 L 19.40 32.33 L 19.39 32.31 L 19.38 32.29 L 19.36 32.27 L 19.34 32.25 L 19.31 32.23 L 19.28 32.21 L 19.25 32.19 L 19.21 32.18 L 19.17 32.16 L 19.12 32.14 L 19.07 32.13 L 19.01 32.12 L 18.96 32.10 L 18.90 32.09 L 18.83 32.08 L 18.77 32.07 L 18.70 32.06 L 18.63 32.05 L 18.56 32.05 L 18.49 32.04 L 18.42 32.04 L 18.34 32.04 L 18.27 32.04 L 18.19 32.04 L 18.12 32.04 L 18.05 32.04 L 17.98 32.05 L 17.90 32.05 L 17.84 32.06 L 17.77 32.07 L 17.70 32.08 L 17.64 32.09 L 17.58 32.10 L 17.52 32.12 L 17.47 32.13 L 17.42 32.14 L 17.37 32.16 L 17.33 32.18 L 17.29 32.19 L 17.25 32.21 L 17.22 32.23 L 17.20 32.25 L 17.18 32.27 L 17.16 32.29 L 17.15 32.31 L 17.14 32.33 L 17.14 32.35" stroke="rgba(255,255,255,0.92)" stroke-width="1.0" fill="none"/>
  <path d="M 86.68 32.14 L 86.68 32.25 L 86.68 32.35 Z" stroke="rgba(255,255,255,0.92)" stroke-width="1.0" fill="none"/>
  <path d="M 86.68 32.14 L 86.68 32.25 L 86.68 32.35 Z" stroke="rgba(255,255,255,0.92)" stroke-width="1.0" fill="none"/>
  <path d="M 84.69 32.14 L 84.69 30.53" stroke="rgba(255,255,255,0.92)" stroke-width="1.0" fill="none"/>
  <path d="M 86.40 32.14 L 86.40 30.53" stroke="rgba(255,255,255,0.92)" stroke-width="1.0" fill="none"/>
  <path d="M 84.69 32.35 L 84.72 32.35 L 84.75 32.36 L 84.78 32.37 L 84.81 32.38 L 84.84 32.38 L 84.87 32.39 L 84.90 32.40 L 84.94 32.40 L 84.97 32.41 L 85.01 32.41 L 85.04 32.42 L 85.08 32.42 L 85.11 32.43 L 85.15 32.43 L 85.19 32.44 L 85.23 32.44 L 85.27 32.44 L 85.31 32.45 L 85.34 32.45 L 85.38 32.45 L 85.42 32.45 L 85.46 32.45 L 85.50 32.45 L 85.54 32.45 L 85.58 32.45 L 85.62 32.45 L 85.66 32.45 L 85.70 32.45 L 85.74 32.45 L 85.78 32.45 L 85.82 32.44 L 85.86 32.44 L 85.90 32.44 L 85.94 32.43 L 85.98 32.43 L 86.01 32.42 L 86.05 32.42 L 86.08 32.41 L 86.12 32.41 L 86.15 32.40 L 86.19 32.40 L 86.22 32.39 L 86.25 32.38 L 86.28 32.38 L 86.31 32.37 L 86.34 32.36 L 86.37 32.35 L 86.40 32.35" stroke="rgba(255,255,255,0.92)" stroke-width="1.0" fill="none"/>
  <path d="M 84.69 27.00 A 2.71 2.71 0 0 1 86.40 27.00" stroke="rgba(255,255,255,0.92)" stroke-width="1.0" fill="none"/>
  <path d="M 84.41 32.14 L 84.41 32.35" stroke="rgba(255,255,255,0.92)" stroke-width="1.0" fill="none"/>
  <path d="M 86.68 32.14 L 86.68 32.35" stroke="rgba(255,255,255,0.92)" stroke-width="1.0" fill="none"/>
  <path d="M 84.41 32.35 L 84.42 32.37 L 84.42 32.39 L 84.44 32.41 L 84.45 32.43 L 84.47 32.45 L 84.50 32.47 L 84.53 32.49 L 84.57 32.51 L 84.60 32.53 L 84.65 32.54 L 84.69 32.56 L 84.74 32.57 L 84.80 32.59 L 84.86 32.60 L 84.92 32.61 L 84.98 32.62 L 85.04 32.63 L 85.11 32.64 L 85.18 32.65 L 85.25 32.65 L 85.32 32.66 L 85.40 32.66 L 85.47 32.66 L 85.54 32.67 L 85.62 32.66 L 85.69 32.66 L 85.77 32.66 L 85.84 32.65 L 85.91 32.65 L 85.98 32.64 L 86.04 32.63 L 86.11 32.62 L 86.17 32.61 L 86.23 32.60 L 86.29 32.59 L 86.34 32.57 L 86.39 32.56 L 86.44 32.54 L 86.48 32.53 L 86.52 32.51 L 86.56 32.49 L 86.59 32.47 L 86.62 32.45 L 86.64 32.43 L 86.65 32.41 L 86.67 32.39 L 86.67 32.37 L 86.68 32.35" stroke="rgba(255,255,255,0.92)" stroke-width="1.0" fill="none"/>
  <path d="M 12.38 6.28 L 12.38 21.60" stroke="rgba(255,255,255,0.92)" stroke-width="1.0" fill="none"/>
  <path d="M 93.84 0.05 A 10.40 10.40 0 0 1 93.91 4.67" stroke="rgba(255,255,255,0.92)" stroke-width="1.0" fill="none"/>
  <path d="M 91.17 33.01 A 20.58 20.58 0 0 1 89.07 30.76" stroke="rgba(255,255,255,0.92)" stroke-width="1.0" fill="none"/>
  <path d="M 93.44 11.05 A 5.41 5.41 0 0 1 90.02 8.10" stroke="rgba(255,255,255,0.92)" stroke-width="1.0" fill="none"/>
  <path d="M 93.85 0.42 A 0.05 0.05 0 1 1 93.76 0.45" stroke="rgba(255,255,255,0.92)" stroke-width="1.0" fill="none"/>
  <path d="M 93.38 -1.45 A 1.25 1.25 0 0 1 93.76 -1.14" stroke="rgba(255,255,255,0.92)" stroke-width="1.0" fill="none"/>
  <path d="M 92.27 -12.64 A 20.34 20.34 0 0 1 93.78 -8.29" stroke="rgba(255,255,255,0.92)" stroke-width="1.0" fill="none"/>
  <path d="M 92.02 -12.64 A 20.12 20.12 0 0 1 93.57 -8.24" stroke="rgba(255,255,255,0.92)" stroke-width="1.0" fill="none"/>
  <path d="M 98.77 24.15 L 97.92 23.30 L 1.74 23.30 L 0.89 24.15 L 0.89 29.25 L 1.74 30.10 L 97.92 30.10 L 98.77 29.25 Z" stroke="rgba(255,255,255,0.92)" stroke-width="1.0" fill="none"/>
  <path d="M 18.58 22.30 L 73.87 22.30" stroke="rgba(255,255,255,0.92)" stroke-width="1.0" fill="none"/>
  <path d="M 18.26 20.73 A 4.28 4.28 0 0 1 17.48 24.24" stroke="rgba(255,255,255,0.92)" stroke-width="1.0" fill="none"/>
  <path d="M 1.36 4.63 L 50.14 4.63" stroke="rgba(255,255,255,0.92)" stroke-width="1.0" fill="none"/>
  <path d="M 74.72 4.63 L 94.14 4.63" stroke="rgba(255,255,255,0.92)" stroke-width="1.0" fill="none"/>
  <path d="M 91.59 7.18 A 1.28 1.28 0 0 1 90.31 5.90" stroke="rgba(255,255,255,0.92)" stroke-width="1.0" fill="none"/>
  <path d="M 1.36 30.15 L 94.14 30.15" stroke="rgba(255,255,255,0.92)" stroke-width="1.0" fill="none"/>
  <path d="M 0.09 28.88 A 1.28 1.28 0 0 1 1.36 27.60" stroke="rgba(255,255,255,0.92)" stroke-width="1.0" fill="none"/>
  <path d="M 1.36 22.50 L 94.14 22.50" stroke="rgba(255,255,255,0.92)" stroke-width="1.0" fill="none"/>
  <path d="M 1.36 25.05 A 1.28 1.28 0 0 1 0.09 23.78" stroke="rgba(255,255,255,0.92)" stroke-width="1.0" fill="none"/>
  <path d="M 90.31 21.22 A 1.28 1.28 0 0 1 91.59 19.95" stroke="rgba(255,255,255,0.92)" stroke-width="1.0" fill="none"/>
  <path d="M 0.09 21.22 L 0.09 5.90" stroke="rgba(255,255,255,0.92)" stroke-width="1.0" fill="none"/>
  <path d="M 0.09 21.22 A 1.28 1.28 0 0 1 1.36 19.95" stroke="rgba(255,255,255,0.92)" stroke-width="1.0" fill="none"/>
  <path d="M 25.62 21.22 L 25.62 5.90" stroke="rgba(255,255,255,0.92)" stroke-width="1.0" fill="none"/>
  <path d="M 24.35 19.95 A 1.28 1.28 0 0 1 25.62 21.22" stroke="rgba(255,255,255,0.92)" stroke-width="1.0" fill="none"/>
  <path d="M 25.62 5.90 A 1.28 1.28 0 0 1 24.35 7.18" stroke="rgba(255,255,255,0.92)" stroke-width="1.0" fill="none"/>
  <path d="M 95.42 21.22 L 95.42 5.90" stroke="rgba(255,255,255,0.92)" stroke-width="1.0" fill="none"/>
  <path d="M 94.14 19.95 A 1.28 1.28 0 0 1 95.42 21.22" stroke="rgba(255,255,255,0.92)" stroke-width="1.0" fill="none"/>
  <path d="M 94.14 27.60 A 1.28 1.28 0 0 1 95.42 28.88" stroke="rgba(255,255,255,0.92)" stroke-width="1.0" fill="none"/>
  <path d="M 95.42 23.78 A 1.28 1.28 0 0 1 94.14 25.05" stroke="rgba(255,255,255,0.92)" stroke-width="1.0" fill="none"/>
  <path d="M 95.42 5.90 A 1.28 1.28 0 0 1 94.14 7.18" stroke="rgba(255,255,255,0.92)" stroke-width="1.0" fill="none"/>
  <path d="M 25.62 17.56 L 88.85 17.56" stroke="rgba(255,255,255,0.92)" stroke-width="1.0" fill="none"/>
  <path d="M 90.31 5.90 L 90.31 21.22" stroke="rgba(255,255,255,0.92)" stroke-width="1.0" fill="none"/>
  <path d="M 90.31 20.13 A 3.05 3.05 0 0 1 88.85 22.77" stroke="rgba(255,255,255,0.92)" stroke-width="1.0" fill="none"/>
  <path d="M 88.85 18.30 A 7.88 7.88 0 0 1 89.40 15.01" stroke="rgba(255,255,255,0.92)" stroke-width="1.0" fill="none"/>
  <path d="M 88.85 22.66 A 7.03 7.03 0 0 1 88.79 17.73" stroke="rgba(255,255,255,0.92)" stroke-width="1.0" fill="none"/>
  <path d="M 1.36 7.18 A 1.28 1.28 0 0 1 0.09 5.90" stroke="rgba(255,255,255,0.92)" stroke-width="1.0" fill="none"/>
  <path d="M 95.42 23.78 L 95.42 28.88" stroke="rgba(255,255,255,0.92)" stroke-width="1.0" fill="none"/>
  <path d="M 0.09 28.88 L 0.09 23.78" stroke="rgba(255,255,255,0.92)" stroke-width="1.0" fill="none"/>
  <path d="M 5.38 4.29 A 10.40 10.40 0 0 1 5.46 -0.33" stroke="rgba(255,255,255,0.92)" stroke-width="1.0" fill="none"/>
  <path d="M 10.22 30.39 A 20.58 20.58 0 0 1 8.13 32.63" stroke="rgba(255,255,255,0.92)" stroke-width="1.0" fill="none"/>
  <path d="M 9.27 7.73 A 5.41 5.41 0 0 1 5.86 10.68" stroke="rgba(255,255,255,0.92)" stroke-width="1.0" fill="none"/>
  <path d="M 5.53 0.08 A 0.05 0.05 0 1 1 5.44 0.04" stroke="rgba(255,255,255,0.92)" stroke-width="1.0" fill="none"/>
  <path d="M 5.53 -1.51 A 1.25 1.25 0 0 1 5.92 -1.83" stroke="rgba(255,255,255,0.92)" stroke-width="1.0" fill="none"/>
  <path d="M 5.51 -8.66 A 20.34 20.34 0 0 1 7.03 -13.01" stroke="rgba(255,255,255,0.92)" stroke-width="1.0" fill="none"/>
  <path d="M 5.72 -8.61 A 20.12 20.12 0 0 1 7.27 -13.01" stroke="rgba(255,255,255,0.92)" stroke-width="1.0" fill="none"/>
  <path d="M 13.36 31.76 L 13.36 31.87 L 13.36 31.98 Z" stroke="rgba(255,255,255,0.92)" stroke-width="1.0" fill="none"/>
  <path d="M 13.36 31.76 L 13.36 31.87 L 13.36 31.98 Z" stroke="rgba(255,255,255,0.92)" stroke-width="1.0" fill="none"/>
  <path d="M 15.34 31.76 L 15.34 30.16" stroke="rgba(255,255,255,0.92)" stroke-width="1.0" fill="none"/>
  <path d="M 13.64 31.76 L 13.64 30.16" stroke="rgba(255,255,255,0.92)" stroke-width="1.0" fill="none"/>
  <path d="M 15.34 31.56 L 15.31 31.55 L 15.29 31.54 L 15.26 31.53 L 15.23 31.53 L 15.20 31.52 L 15.16 31.51 L 15.13 31.51 L 15.10 31.50 L 15.06 31.49 L 15.03 31.49 L 14.99 31.48 L 14.96 31.48 L 14.92 31.47 L 14.88 31.47 L 14.84 31.47 L 14.81 31.46 L 14.77 31.46 L 14.73 31.46 L 14.69 31.46 L 14.65 31.45 L 14.61 31.45 L 14.57 31.45 L 14.53 31.45 L 14.49 31.45 L 14.45 31.45 L 14.41 31.45 L 14.37 31.45 L 14.33 31.45 L 14.29 31.46 L 14.25 31.46 L 14.21 31.46 L 14.17 31.46 L 14.13 31.47 L 14.10 31.47 L 14.06 31.47 L 14.02 31.48 L 13.99 31.48 L 13.95 31.49 L 13.92 31.49 L 13.88 31.50 L 13.85 31.51 L 13.82 31.51 L 13.78 31.52 L 13.75 31.53 L 13.72 31.53 L 13.69 31.54 L 13.67 31.55 L 13.64 31.56" stroke="rgba(255,255,255,0.92)" stroke-width="1.0" fill="none"/>
  <path d="M 13.64 26.62 A 2.71 2.71 0 0 1 15.34 26.62" stroke="rgba(255,255,255,0.92)" stroke-width="1.0" fill="none"/>
  <path d="M 15.62 31.76 L 15.62 31.98" stroke="rgba(255,255,255,0.92)" stroke-width="1.0" fill="none"/>
  <path d="M 13.36 31.76 L 13.36 31.98" stroke="rgba(255,255,255,0.92)" stroke-width="1.0" fill="none"/>
  <path d="M 15.62 31.98 L 15.62 31.96 L 15.61 31.94 L 15.60 31.92 L 15.58 31.90 L 15.56 31.88 L 15.53 31.86 L 15.50 31.84 L 15.47 31.82 L 15.43 31.80 L 15.39 31.79 L 15.34 31.77 L 15.29 31.76 L 15.24 31.74 L 15.18 31.73 L 15.12 31.72 L 15.06 31.71 L 14.99 31.70 L 14.92 31.69 L 14.85 31.68 L 14.78 31.67 L 14.71 31.67 L 14.64 31.67 L 14.56 31.66 L 14.49 31.66 L 14.42 31.66 L 14.34 31.67 L 14.27 31.67 L 14.20 31.67 L 14.13 31.68 L 14.06 31.69 L 13.99 31.70 L 13.92 31.71 L 13.86 31.72 L 13.80 31.73 L 13.74 31.74 L 13.69 31.76 L 13.64 31.77 L 13.59 31.79 L 13.55 31.80 L 13.51 31.82 L 13.48 31.84 L 13.44 31.86 L 13.42 31.88 L 13.40 31.90 L 13.38 31.92 L 13.37 31.94 L 13.36 31.96 L 13.36 31.98" stroke="rgba(255,255,255,0.92)" stroke-width="1.0" fill="none"/>
  <path d="M 82.90 31.76 L 82.90 31.87 L 82.90 31.98 Z" stroke="rgba(255,255,255,0.92)" stroke-width="1.0" fill="none"/>
  <path d="M 82.90 31.76 L 82.90 31.87 L 82.90 31.98 Z" stroke="rgba(255,255,255,0.92)" stroke-width="1.0" fill="none"/>
  <path d="M 80.91 31.76 L 80.91 30.16" stroke="rgba(255,255,255,0.92)" stroke-width="1.0" fill="none"/>
  <path d="M 82.62 31.76 L 82.62 30.16" stroke="rgba(255,255,255,0.92)" stroke-width="1.0" fill="none"/>
  <path d="M 80.91 31.97 L 80.94 31.98 L 80.97 31.99 L 81.00 32.00 L 81.03 32.00 L 81.06 32.01 L 81.09 32.02 L 81.12 32.02 L 81.16 32.03 L 81.19 32.04 L 81.23 32.04 L 81.26 32.05 L 81.30 32.05 L 81.34 32.05 L 81.37 32.06 L 81.41 32.06 L 81.45 32.07 L 81.49 32.07 L 81.53 32.07 L 81.57 32.07 L 81.61 32.08 L 81.65 32.08 L 81.69 32.08 L 81.73 32.08 L 81.77 32.08 L 81.81 32.08 L 81.85 32.08 L 81.89 32.08 L 81.93 32.08 L 81.97 32.07 L 82.01 32.07 L 82.04 32.07 L 82.08 32.07 L 82.12 32.06 L 82.16 32.06 L 82.20 32.05 L 82.23 32.05 L 82.27 32.05 L 82.31 32.04 L 82.34 32.04 L 82.37 32.03 L 82.41 32.02 L 82.44 32.02 L 82.47 32.01 L 82.50 32.00 L 82.53 32.00 L 82.56 31.99 L 82.59 31.98 L 82.62 31.97" stroke="rgba(255,255,255,0.92)" stroke-width="1.0" fill="none"/>
  <path d="M 80.91 26.62 A 2.71 2.71 0 0 1 82.62 26.62" stroke="rgba(255,255,255,0.92)" stroke-width="1.0" fill="none"/>
  <path d="M 80.63 31.76 L 80.63 31.98" stroke="rgba(255,255,255,0.92)" stroke-width="1.0" fill="none"/>
  <path d="M 82.90 31.76 L 82.90 31.98" stroke="rgba(255,255,255,0.92)" stroke-width="1.0" fill="none"/>
  <path d="M 80.63 31.98 L 80.64 32.00 L 80.64 32.02 L 80.66 32.04 L 80.67 32.06 L 80.70 32.08 L 80.72 32.10 L 80.75 32.12 L 80.79 32.13 L 80.83 32.15 L 80.87 32.17 L 80.92 32.18 L 80.97 32.20 L 81.02 32.21 L 81.08 32.23 L 81.14 32.24 L 81.20 32.25 L 81.27 32.26 L 81.33 32.27 L 81.40 32.27 L 81.47 32.28 L 81.55 32.29 L 81.62 32.29 L 81.69 32.29 L 81.77 32.29 L 81.84 32.29 L 81.91 32.29 L 81.99 32.29 L 82.06 32.28 L 82.13 32.27 L 82.20 32.27 L 82.27 32.26 L 82.33 32.25 L 82.39 32.24 L 82.45 32.23 L 82.51 32.21 L 82.57 32.20 L 82.62 32.18 L 82.66 32.17 L 82.71 32.15 L 82.75 32.13 L 82.78 32.12 L 82.81 32.10 L 82.84 32.08 L 82.86 32.06 L 82.88 32.04 L 82.89 32.02 L 82.89 32.00 L 82.90 31.98" stroke="rgba(255,255,255,0.92)" stroke-width="1.0" fill="none"/>
  <path d="M 94.99 23.78 L 94.14 22.93 L 1.36 22.93 L 0.51 23.78 L 0.51 28.88 L 1.36 29.73 L 94.14 29.73 L 94.99 28.88 Z" stroke="rgba(255,255,255,0.92)" stroke-width="1.0" fill="none"/>
</svg>
