<svg xmlns="http://www.w3.org/2000/svg" viewBox="0 0 100 100" width="100" height="100">
  <path d="M 5.07 12.77 L 78.09 12.77" stroke="rgba(255,255,255,0.92)" stroke-width="1.0" fill="none"/>
  <path d="M 78.09 93.91 L 5.07 93.91" stroke="rgba(255,255,255,0.92)" stroke-width="1.0" fill="none"/>
  <path d="M 5.07 11.99 L 5.07 96.41" stroke="rgba(255,255,255,0.92)" stroke-width="1.0" fill="none"/>
  <path d="M 78.09 92.89 L 78.09 11.90" stroke="rgba(255,255,255,0.92)" stroke-width="1.0" fill="none"/>
  <path d="M 5.07 93.91 L 77.20 93.91" stroke="rgba(255,255,255,0.92)" stroke-width="1.0" fill="none"/>
  <path d="M 6.29 0.20 L 76.88 0.20" stroke="rgba(255,255,255,0.92)" stroke-width="1.0" fill="none"/>
  <path d="M 82.96 2.63 L 82.96 100.00" stroke="rgba(255,255,255,0.92)" stroke-width="1.0" fill="none"/>
  <path d="M 82.96 100.00 L 0.20 100.00" stroke="rgba(255,255,255,0.92)" stroke-width="1.0" fill="none"/>
  <path d="M 0.20 100.00 L 0.20 2.63" stroke="rgba(255,255,255,0.92)" stroke-width="1.0" fill="none"/>
  <path d="M 78.09 1.42 A 1.22 1.22 0 0 1 76.88 2.63" stroke="rgba(255,255,255,0.92)" stroke-width="1.0" fill="none"/>
  <path d="M 78.09 1.42 L 78.09 100.00" stroke="rgba(255,255,255,0.92)" stroke-width="1.0" fill="none"/>
  <path d="M 6.29 2.63 A 1.22 1.22 0 0 1 5.07 1.42" stroke="rgba(255,255,255,0.92)" stroke-width="1.0" fill="none"/>
  <path d="M 5.07 1.42 L 5.07 100.00" stroke="rgba(255,255,255,0.92)" stroke-width="1.0" fill="none"/>
  <path d="M 41.38 12.77 L 41.38 0.20" stroke="rgba(255,255,255,0.92)" stroke-width="1.0" fill="none"/>
  <path d="M 41.79 12.77 L 41.79 0.20" stroke="rgba(255,255,255,0.92)" stroke-width="1.0" fill="none"/>
  <path d="M 5.07 1.61 L 7.28 3.87 L 8.27 6.69 L 9.58 7.70 L 37.08 7.70 L 38.39 6.69 L 39.37 3.87 L 41.58 1.61" stroke="rgba(255,255,255,0.92)" stroke-width="1.0" fill="none"/>
  <path d="M 5.07 2.02 L 6.88 3.95 L 7.90 6.87 L 9.54 8.11 L 37.11 8.11 L 38.75 6.87 L 39.77 3.95 L 41.58 2.02" stroke="rgba(255,255,255,0.92)" stroke-width="1.0" fill="none"/>
  <path d="M 23.12 8.11 L 23.12 12.77" stroke="rgba(255,255,255,0.92)" stroke-width="1.0" fill="none"/>
  <path d="M 23.53 8.11 L 23.53 12.77" stroke="rgba(255,255,255,0.92)" stroke-width="1.0" fill="none"/>
  <path d="M 78.09 2.02 L 76.28 3.95 L 75.26 6.87 L 73.62 8.11 L 46.05 8.11 L 44.41 6.87 L 43.40 3.95 L 41.58 2.02" stroke="rgba(255,255,255,0.92)" stroke-width="1.0" fill="none"/>
  <path d="M 78.09 1.61 L 75.88 3.87 L 74.90 6.69 L 73.59 7.70 L 46.09 7.70 L 44.78 6.69 L 43.79 3.87 L 41.58 1.61" stroke="rgba(255,255,255,0.92)" stroke-width="1.0" fill="none"/>
  <path d="M 60.04 8.11 L 60.04 12.77" stroke="rgba(255,255,255,0.92)" stroke-width="1.0" fill="none"/>
  <path d="M 59.64 8.11 L 59.64 12.77" stroke="rgba(255,255,255,0.92)" stroke-width="1.0" fill="none"/>
  <path d="M 42.86 12.42 A 1.87 1.87 0 0 1 41.79 12.04" stroke="rgba(255,255,255,0.92)" stroke-width="1.0" fill="none"/>
  <path d="M 41.26 10.84 A 1.00 1.00 0 0 1 40.48 11.03" stroke="rgba(255,255,255,0.92)" stroke-width="1.0" fill="none"/>
  <path d="M 41.35 12.98 A 1.44 1.44 0 0 1 40.58 13.63" stroke="rgba(255,255,255,0.92)" stroke-width="1.0" fill="none"/>
  <path d="M 42.68 26.79 A 7.36 7.36 0 0 1 41.79 26.70" stroke="rgba(255,255,255,0.92)" stroke-width="1.0" fill="none"/>
  <path d="M 42.98 15.08 A 1.88 1.88 0 0 1 41.79 14.30" stroke="rgba(255,255,255,0.92)" stroke-width="1.0" fill="none"/>
  <path d="M 41.38 11.83 A 0.52 0.52 0 0 1 40.55 12.17" stroke="rgba(255,255,255,0.92)" stroke-width="1.0" fill="none"/>
  <path d="M 41.31 10.33 A 1.18 1.18 0 0 1 40.57 10.92" stroke="rgba(255,255,255,0.92)" stroke-width="1.0" fill="none"/>
  <path d="M 42.51 19.70 A 6.55 6.55 0 0 1 41.72 19.49" stroke="rgba(255,255,255,0.92)" stroke-width="1.0" fill="none"/>
  <path d="M 42.34 8.84 A 1.12 1.12 0 0 1 41.73 8.47" stroke="rgba(255,255,255,0.92)" stroke-width="1.0" fill="none"/>
  <path d="M 41.43 6.96 A 1.12 1.12 0 0 1 40.82 7.32" stroke="rgba(255,255,255,0.92)" stroke-width="1.0" fill="none"/>
  <path d="M 1.42 1.42 L 5.07 1.42" stroke="rgba(255,255,255,0.92)" stroke-width="1.0" fill="none"/>
  <path d="M 1.42 3.85 A 1.22 1.22 0 0 1 0.20 2.63" stroke="rgba(255,255,255,0.92)" stroke-width="1.0" fill="none"/>
  <path d="M 81.74 1.42 L 78.09 1.42" stroke="rgba(255,255,255,0.92)" stroke-width="1.0" fill="none"/>
  <path d="M 82.96 2.63 A 1.22 1.22 0 0 1 81.74 3.85" stroke="rgba(255,255,255,0.92)" stroke-width="1.0" fill="none"/>
  <path d="M 76.88 13.99 L 76.88 90.66 L 74.85 92.69 L 8.32 92.69 L 6.29 90.66 L 6.29 13.99" stroke="rgba(255,255,255,0.92)" stroke-width="1.0" fill="none"/>
  <path d="M 5.07 12.77 L 78.09 12.77 L 78.09 93.91 L 5.07 93.91 Z" stroke="rgba(255,255,255,0.92)" stroke-width="1.0" fill="none"/>
  <path d="M 22.37 -54.46 A 62.93 62.93 0 0 1 40.57 -57.44" stroke="rgba(255,255,255,0.92)" stroke-width="1.0" fill="none"/>
  <path d="M 40.57 166.39 A 49.00 49.00 0 0 1 13.22 158.75" stroke="rgba(255,255,255,0.92)" stroke-width="1.0" fill="none"/>
  <path d="M 40.57 162.14 A 46.94 46.94 0 0 1 14.77 152.56" stroke="rgba(255,255,255,0.92)" stroke-width="1.0" fill="none"/>
  <path d="M 26.20 -86.57 A 78.43 78.43 0 0 1 50.72 -88.11" stroke="rgba(255,255,255,0.92)" stroke-width="1.0" fill="none"/>
  <path d="M 74.53 133.39 A 26.11 26.11 0 0 1 57.96 139.15" stroke="rgba(255,255,255,0.92)" stroke-width="1.0" fill="none"/>
  <path d="M 63.72 42.55 A 29.48 29.48 0 0 1 76.56 34.41" stroke="rgba(255,255,255,0.92)" stroke-width="1.0" fill="none"/>
  <path d="M 17.11 -254.99 A 137.13 137.13 0 0 1 39.45 -254.41" stroke="rgba(255,255,255,0.92)" stroke-width="1.0" fill="none"/>
  <path d="M 21.36 22.67 A 18.35 18.35 0 0 1 31.13 16.77" stroke="rgba(255,255,255,0.92)" stroke-width="1.0" fill="none"/>
  <path d="M 4.76 47.75 L 21.36 46.62 L 63.69 46.44 L 77.95 45.56" stroke="rgba(255,255,255,0.92)" stroke-width="1.0" fill="none"/>
  <path d="M 5.98 -352.39 A 193.30 193.30 0 0 1 37.38 -350.79" stroke="rgba(255,255,255,0.92)" stroke-width="1.0" fill="none"/>
  <path d="M 20.60 34.35 A 9.94 9.94 0 0 1 13.73 37.82" stroke="rgba(255,255,255,0.92)" stroke-width="1.0" fill="none"/>
  <path d="M 13.73 -4.10 A 11.96 11.96 0 0 1 17.11 -4.95" stroke="rgba(255,255,255,0.92)" stroke-width="1.0" fill="none"/>
  <path d="M 14.28 16.81 A 95.81 95.81 0 0 1 14.36 19.32" stroke="rgba(255,255,255,0.92)" stroke-width="1.0" fill="none"/>
  <path d="M 14.28 22.96 A 1.81 1.81 0 0 1 14.35 25.46" stroke="rgba(255,255,255,0.92)" stroke-width="1.0" fill="none"/>
  <path d="M 13.73 20.05 A 12.51 12.51 0 0 1 14.35 15.01" stroke="rgba(255,255,255,0.92)" stroke-width="1.0" fill="none"/>
  <path d="M 14.35 34.16 A 66.38 66.38 0 0 1 13.73 39.20" stroke="rgba(255,255,255,0.92)" stroke-width="1.0" fill="none"/>
  <path d="M 14.51 177.61 A 72.49 72.49 0 0 1 13.73 177.50" stroke="rgba(255,255,255,0.92)" stroke-width="1.0" fill="none"/>
  <path d="M 13.73 14.29 A 9.94 9.94 0 0 1 14.48 14.37" stroke="rgba(255,255,255,0.92)" stroke-width="1.0" fill="none"/>
  <path d="M 13.78 -3.02 A 29.82 29.82 0 0 1 25.78 -6.85" stroke="rgba(255,255,255,0.92)" stroke-width="1.0" fill="none"/>
  <path d="M 16.88 39.64 A 7.88 7.88 0 0 1 13.73 32.50" stroke="rgba(255,255,255,0.92)" stroke-width="1.0" fill="none"/>
  <path d="M 13.73 23.05 A 20.10 20.10 0 0 1 14.28 31.63" stroke="rgba(255,255,255,0.92)" stroke-width="1.0" fill="none"/>
  <path d="M 55.35 34.35 A 9.94 9.94 0 0 1 48.48 37.82" stroke="rgba(255,255,255,0.92)" stroke-width="1.0" fill="none"/>
  <path d="M 69.01 6.44 A 6.34 6.34 0 0 1 73.00 7.17" stroke="rgba(255,255,255,0.92)" stroke-width="1.0" fill="none"/>
  <path d="M 73.00 38.09 A 9.94 9.94 0 0 1 66.13 34.62" stroke="rgba(255,255,255,0.92)" stroke-width="1.0" fill="none"/>
  <path d="M 48.48 -49.88 A 34.73 34.73 0 0 1 58.05 -50.60" stroke="rgba(255,255,255,0.92)" stroke-width="1.0" fill="none"/>
  <path d="M 39.45 25.05 A 7.17 7.17 0 0 1 39.11 19.01" stroke="rgba(255,255,255,0.92)" stroke-width="1.0" fill="none"/>
  <path d="M 49.23 21.30 A 15.35 15.35 0 0 1 48.48 28.08" stroke="rgba(255,255,255,0.92)" stroke-width="1.0" fill="none"/>
  <path d="M 48.48 19.61 A 7.88 7.88 0 0 1 51.62 12.47" stroke="rgba(255,255,255,0.92)" stroke-width="1.0" fill="none"/>
  <path d="M 36.31 12.74 A 7.88 7.88 0 0 1 39.45 19.88" stroke="rgba(255,255,255,0.92)" stroke-width="1.0" fill="none"/>
  <path d="M 38.62 29.10 A 7.44 7.44 0 0 1 38.89 26.41" stroke="rgba(255,255,255,0.92)" stroke-width="1.0" fill="none"/>
  <path d="M 38.62 22.54 A 6.82 6.82 0 0 1 39.11 26.10" stroke="rgba(255,255,255,0.92)" stroke-width="1.0" fill="none"/>
  <path d="M 49.23 27.51 A 2.22 2.22 0 0 1 49.31 24.69" stroke="rgba(255,255,255,0.92)" stroke-width="1.0" fill="none"/>
  <path d="M 69.01 48.20 A 15.73 15.73 0 0 1 58.05 48.47" stroke="rgba(255,255,255,0.92)" stroke-width="1.0" fill="none"/>
  <path d="M 71.28 14.11 A 7.88 7.88 0 0 1 72.23 15.59" stroke="rgba(255,255,255,0.92)" stroke-width="1.0" fill="none"/>
  <path d="M 72.21 23.50 A 1.86 1.86 0 0 1 72.66 21.76" stroke="rgba(255,255,255,0.92)" stroke-width="1.0" fill="none"/>
  <path d="M 72.23 15.59 A 7.88 7.88 0 0 1 73.00 19.88" stroke="rgba(255,255,255,0.92)" stroke-width="1.0" fill="none"/>
  <path d="M 73.00 30.11 A 20.98 20.98 0 0 1 72.33 26.99" stroke="rgba(255,255,255,0.92)" stroke-width="1.0" fill="none"/>
  <path d="M 72.17 22.54 A 6.82 6.82 0 0 1 72.66 26.10" stroke="rgba(255,255,255,0.92)" stroke-width="1.0" fill="none"/>
  <path d="M 39.45 38.09 A 9.94 9.94 0 0 1 32.58 34.62" stroke="rgba(255,255,255,0.92)" stroke-width="1.0" fill="none"/>
  <path d="M 71.39 109.78 A 31.62 31.62 0 0 1 53.95 103.56" stroke="rgba(255,255,255,0.92)" stroke-width="1.0" fill="none"/>
  <path d="M 37.38 -26.17 A 29.85 29.85 0 0 1 47.27 -26.43" stroke="rgba(255,255,255,0.92)" stroke-width="1.0" fill="none"/>
  <path d="M 68.60 212.70 A 83.13 83.13 0 0 1 40.23 206.02" stroke="rgba(255,255,255,0.92)" stroke-width="1.0" fill="none"/>
  <path d="M 68.60 325.07 A 140.19 140.19 0 0 1 52.87 322.25" stroke="rgba(255,255,255,0.92)" stroke-width="1.0" fill="none"/>
  <path d="M 73.00 153.92 A 60.56 60.56 0 0 1 70.08 154.33" stroke="rgba(255,255,255,0.92)" stroke-width="1.0" fill="none"/>
  <path d="M 73.00 32.77 A 7.88 7.88 0 0 1 69.86 39.91" stroke="rgba(255,255,255,0.92)" stroke-width="1.0" fill="none"/>
  <path d="M 66.13 18.03 A 9.94 9.94 0 0 1 73.00 14.56" stroke="rgba(255,255,255,0.92)" stroke-width="1.0" fill="none"/>
  <path d="M 76.56 67.82 A 23.71 23.71 0 0 1 47.27 75.84" stroke="rgba(255,255,255,0.92)" stroke-width="1.0" fill="none"/>
  <path d="M 39.47 34.17 A 7.88 7.88 0 0 1 36.31 39.91" stroke="rgba(255,255,255,0.92)" stroke-width="1.0" fill="none"/>
  <path d="M 51.62 39.64 A 7.88 7.88 0 0 1 48.51 34.35" stroke="rgba(255,255,255,0.92)" stroke-width="1.0" fill="none"/>
  <path d="M 48.80 24.69 A 13.38 13.38 0 0 1 49.31 29.26" stroke="rgba(255,255,255,0.92)" stroke-width="1.0" fill="none"/>
  <path d="M 72.17 29.81 A 18.47 18.47 0 0 1 73.00 23.29" stroke="rgba(255,255,255,0.92)" stroke-width="1.0" fill="none"/>
  <path d="M 76.88 13.99 L 6.29 13.99" stroke="rgba(255,255,255,0.92)" stroke-width="1.0" fill="none"/>
  <path d="M 1.68 25.95 A 3.05 3.05 0 0 1 0.51 23.77" stroke="rgba(255,255,255,0.92)" stroke-width="1.0" fill="none"/>
  <path d="M 0.51 29.39 A 14.67 14.67 0 0 1 0.79 22.20" stroke="rgba(255,255,255,0.92)" stroke-width="1.0" fill="none"/>
  <path d="M 0.79 28.35 A 3.64 3.64 0 0 1 2.56 26.20" stroke="rgba(255,255,255,0.92)" stroke-width="1.0" fill="none"/>
  <path d="M 2.56 32.65 L 6.89 32.65" stroke="rgba(255,255,255,0.92)" stroke-width="1.0" fill="none"/>
  <path d="M 6.28 30.45 A 11.51 11.51 0 0 1 5.56 25.32" stroke="rgba(255,255,255,0.92)" stroke-width="1.0" fill="none"/>
  <path d="M 5.56 26.96 A 12.05 12.05 0 0 1 6.89 21.63" stroke="rgba(255,255,255,0.92)" stroke-width="1.0" fill="none"/>
  <path d="M 8.34 20.89 L 74.84 20.89" stroke="rgba(255,255,255,0.92)" stroke-width="1.0" fill="none"/>
  <path d="M 6.89 32.65 L 76.28 32.65" stroke="rgba(255,255,255,0.92)" stroke-width="1.0" fill="none"/>
  <path d="M 7.08 32.65 L 7.03 32.63 L 6.98 32.60 L 6.93 32.53 L 6.88 32.45 L 6.84 32.34 L 6.79 32.21 L 6.74 32.05 L 6.70 31.87 L 6.66 31.67 L 6.62 31.46 L 6.58 31.22 L 6.54 30.96 L 6.51 30.68 L 6.48 30.39 L 6.45 30.09 L 6.42 29.77 L 6.40 29.43 L 6.38 29.09 L 6.36 28.74 L 6.34 28.38 L 6.33 28.01 L 6.32 27.64 L 6.32 27.26 L 6.32 26.89 L 6.32 26.51 L 6.32 26.14 L 6.33 25.76 L 6.34 25.40 L 6.36 25.04 L 6.38 24.68 L 6.40 24.34 L 6.42 24.01 L 6.45 23.69 L 6.48 23.38 L 6.51 23.09 L 6.54 22.82 L 6.58 22.56 L 6.62 22.32 L 6.66 22.10 L 6.70 21.90 L 6.74 21.72 L 6.79 21.57 L 6.84 21.44 L 6.88 21.33 L 6.93 21.24 L 6.98 21.18 L 7.03 21.14 L 7.08 21.13" stroke="rgba(255,255,255,0.92)" stroke-width="1.0" fill="none"/>
  <path d="M 81.49 21.13 L 1.68 21.13" stroke="rgba(255,255,255,0.92)" stroke-width="1.0" fill="none"/>
  <path d="M 6.24 2.63 A 1.22 1.22 0 0 1 5.03 1.44" stroke="rgba(255,255,255,0.92)" stroke-width="1.0" fill="none"/>
  <path d="M 6.24 0.20 L 40.41 0.20" stroke="rgba(255,255,255,0.92)" stroke-width="1.0" fill="none"/>
  <path d="M 29.47 32.65 L 29.42 32.63 L 29.37 32.60 L 29.32 32.53 L 29.27 32.45 L 29.22 32.34 L 29.17 32.21 L 29.13 32.05 L 29.09 31.87 L 29.04 31.67 L 29.00 31.46 L 28.96 31.22 L 28.93 30.96 L 28.89 30.68 L 28.86 30.39 L 28.83 30.09 L 28.81 29.77 L 28.78 29.43 L 28.76 29.09 L 28.74 28.74 L 28.73 28.38 L 28.72 28.01 L 28.71 27.64 L 28.70 27.26 L 28.70 26.89 L 28.70 26.51 L 28.71 26.14 L 28.72 25.76 L 28.73 25.40 L 28.74 25.04 L 28.76 24.68 L 28.78 24.34 L 28.81 24.01 L 28.83 23.69 L 28.86 23.38 L 28.89 23.09 L 28.93 22.82 L 28.96 22.56 L 29.00 22.32 L 29.04 22.10 L 29.09 21.90 L 29.13 21.72 L 29.17 21.57 L 29.22 21.44 L 29.27 21.33 L 29.32 21.24 L 29.37 21.18 L 29.42 21.14 L 29.47 21.13" stroke="rgba(255,255,255,0.92)" stroke-width="1.0" fill="none"/>
  <path d="M 8.44 34.18 L 8.44 34.28 L 8.44 34.38 Z" stroke="rgba(255,255,255,0.92)" stroke-width="1.0" fill="none"/>
  <path d="M 8.44 34.18 L 8.44 34.28 L 8.44 34.38 Z" stroke="rgba(255,255,255,0.92)" stroke-width="1.0" fill="none"/>
  <path d="M 10.33 34.18 L 10.33 32.65" stroke="rgba(255,255,255,0.92)" stroke-width="1.0" fill="none"/>
  <path d="M 8.71 34.18 L 8.71 32.65" stroke="rgba(255,255,255,0.92)" stroke-width="1.0" fill="none"/>
  <path d="M 10.33 33.98 L 10.39 34.01 L 10.45 34.03 L 10.50 34.05 L 10.54 34.08 L 10.56 34.11 L 10.58 34.14 L 10.59 34.16 L 10.59 34.19 L 10.59 34.22 L 10.57 34.25 L 10.54 34.28 L 10.50 34.30 L 10.45 34.33 L 10.40 34.35 L 10.33 34.38 L 10.26 34.40 L 10.19 34.41 L 10.10 34.43 L 10.01 34.45 L 9.92 34.46 L 9.82 34.47 L 9.72 34.47 L 9.62 34.48 L 9.52 34.48 L 9.42 34.48 L 9.31 34.47 L 9.21 34.47 L 9.12 34.46 L 9.02 34.45 L 8.93 34.43 L 8.85 34.41 L 8.77 34.40 L 8.70 34.38 L 8.64 34.35 L 8.58 34.33 L 8.54 34.30 L 8.50 34.28 L 8.47 34.25 L 8.45 34.22 L 8.44 34.19 L 8.44 34.16 L 8.45 34.14 L 8.47 34.11 L 8.50 34.08 L 8.54 34.05 L 8.59 34.03 L 8.64 34.01 L 8.71 33.98" stroke="rgba(255,255,255,0.92)" stroke-width="1.0" fill="none"/>
  <path d="M 8.71 29.28 A 2.58 2.58 0 0 1 10.33 29.28" stroke="rgba(255,255,255,0.92)" stroke-width="1.0" fill="none"/>
  <path d="M 10.60 34.18 L 10.60 34.38" stroke="rgba(255,255,255,0.92)" stroke-width="1.0" fill="none"/>
  <path d="M 8.44 34.18 L 8.44 34.38" stroke="rgba(255,255,255,0.92)" stroke-width="1.0" fill="none"/>
  <path d="M 10.60 34.38 L 10.59 34.40 L 10.59 34.42 L 10.58 34.44 L 10.56 34.46 L 10.54 34.48 L 10.51 34.50 L 10.48 34.51 L 10.45 34.53 L 10.41 34.55 L 10.37 34.56 L 10.33 34.58 L 10.28 34.59 L 10.23 34.61 L 10.17 34.62 L 10.12 34.63 L 10.06 34.64 L 9.99 34.65 L 9.93 34.66 L 9.86 34.67 L 9.80 34.67 L 9.73 34.68 L 9.66 34.68 L 9.59 34.68 L 9.52 34.68 L 9.45 34.68 L 9.38 34.68 L 9.31 34.68 L 9.24 34.67 L 9.17 34.67 L 9.11 34.66 L 9.04 34.65 L 8.98 34.64 L 8.92 34.63 L 8.86 34.62 L 8.81 34.61 L 8.76 34.59 L 8.71 34.58 L 8.66 34.56 L 8.62 34.55 L 8.58 34.53 L 8.55 34.51 L 8.52 34.50 L 8.50 34.48 L 8.48 34.46 L 8.46 34.44 L 8.45 34.42 L 8.44 34.40 L 8.44 34.38" stroke="rgba(255,255,255,0.92)" stroke-width="1.0" fill="none"/>
  <path d="M 23.12 0.20 L 23.12 16.36" stroke="rgba(255,255,255,0.92)" stroke-width="1.0" fill="none"/>
  <path d="M 23.53 0.20 L 23.53 16.36" stroke="rgba(255,255,255,0.92)" stroke-width="1.0" fill="none"/>
  <path d="M 8.71 6.80 A 18.08 18.08 0 0 1 5.62 22.16" stroke="rgba(255,255,255,0.92)" stroke-width="1.0" fill="none"/>
  <path d="M 10.30 11.76 A 6.96 6.96 0 0 1 6.62 13.83" stroke="rgba(255,255,255,0.92)" stroke-width="1.0" fill="none"/>
  <path d="M 10.79 10.82 A 6.76 6.76 0 0 1 5.80 13.75" stroke="rgba(255,255,255,0.92)" stroke-width="1.0" fill="none"/>
  <path d="M 10.30 -6.18 A 7.43 7.43 0 0 1 16.42 -9.39" stroke="rgba(255,255,255,0.92)" stroke-width="1.0" fill="none"/>
  <path d="M 10.79 -7.12 A 7.64 7.64 0 0 1 16.42 -9.59" stroke="rgba(255,255,255,0.92)" stroke-width="1.0" fill="none"/>
  <path d="M 16.42 5.48 L 23.12 5.48" stroke="rgba(255,255,255,0.92)" stroke-width="1.0" fill="none"/>
  <path d="M 16.42 5.68 L 23.12 5.68" stroke="rgba(255,255,255,0.92)" stroke-width="1.0" fill="none"/>
  <path d="M 41.58 16.36 L 41.58 1.08" stroke="rgba(255,255,255,0.92)" stroke-width="1.0" fill="none"/>
  <path d="M 41.58 1.75 A 1.22 1.22 0 0 1 40.41 2.63" stroke="rgba(255,255,255,0.92)" stroke-width="1.0" fill="none"/>
  <path d="M 23.53 0.20 L 23.53 16.36" stroke="rgba(255,255,255,0.92)" stroke-width="1.0" fill="none"/>
  <path d="M 23.12 0.20 L 23.12 16.36" stroke="rgba(255,255,255,0.92)" stroke-width="1.0" fill="none"/>
  <path d="M 41.03 21.94 A 17.77 17.77 0 0 1 38.16 5.95" stroke="rgba(255,255,255,0.92)" stroke-width="1.0" fill="none"/>
  <path d="M 40.04 13.83 A 6.96 6.96 0 0 1 36.35 11.76" stroke="rgba(255,255,255,0.92)" stroke-width="1.0" fill="none"/>
  <path d="M 40.86 13.75 A 6.76 6.76 0 0 1 35.86 10.82" stroke="rgba(255,255,255,0.92)" stroke-width="1.0" fill="none"/>
  <path d="M 30.24 -9.39 A 7.43 7.43 0 0 1 36.35 -6.18" stroke="rgba(255,255,255,0.92)" stroke-width="1.0" fill="none"/>
  <path d="M 30.24 -9.59 A 7.64 7.64 0 0 1 35.86 -7.12" stroke="rgba(255,255,255,0.92)" stroke-width="1.0" fill="none"/>
  <path d="M 30.24 5.48 L 23.53 5.48" stroke="rgba(255,255,255,0.92)" stroke-width="1.0" fill="none"/>
  <path d="M 30.24 5.68 L 23.53 5.68" stroke="rgba(255,255,255,0.92)" stroke-width="1.0" fill="none"/>
  <path d="M 10.78 16.43 L 41.58 16.43" stroke="rgba(255,255,255,0.92)" stroke-width="1.0" fill="none"/>
  <path d="M 10.78 23.65 A 3.66 3.66 0 0 1 7.29 22.30" stroke="rgba(255,255,255,0.92)" stroke-width="1.0" fill="none"/>
  <path d="M 7.29 21.18 A 7.48 7.48 0 0 1 7.28 17.84" stroke="rgba(255,255,255,0.92)" stroke-width="1.0" fill="none"/>
  <path d="M 8.04 19.39 A 4.08 4.08 0 0 1 7.29 22.73" stroke="rgba(255,255,255,0.92)" stroke-width="1.0" fill="none"/>
  <path d="M 0.20 34.47 L 12.78 34.47" stroke="rgba(255,255,255,0.92)" stroke-width="1.0" fill="none"/>
  <path d="M 8.35 23.32 L 26.60 23.32 L 26.60 30.62 L 8.35 30.62 Z" stroke="rgba(255,255,255,0.92)" stroke-width="1.0" fill="none"/>
  <path d="M 8.55 23.53 L 26.40 23.53 L 26.40 30.42 L 8.55 30.42 Z" stroke="rgba(255,255,255,0.92)" stroke-width="1.0" fill="none"/>
  <path d="M 16.46 25.96 L 18.49 25.96 L 18.49 27.99 L 16.46 27.99 Z" stroke="rgba(255,255,255,0.92)" stroke-width="1.0" fill="none"/>
  <path d="M 18.49 26.37 L 16.46 26.37" stroke="rgba(255,255,255,0.92)" stroke-width="1.0" fill="none"/>
  <path d="M 17.24 29.43 A 1.84 1.84 0 0 1 16.46 28.27" stroke="rgba(255,255,255,0.92)" stroke-width="1.0" fill="none"/>
  <path d="M 18.49 28.27 A 1.84 1.84 0 0 1 17.70 29.43" stroke="rgba(255,255,255,0.92)" stroke-width="1.0" fill="none"/>
  <path d="M 18.49 27.83 L 16.46 27.83" stroke="rgba(255,255,255,0.92)" stroke-width="1.0" fill="none"/>
  <path d="M 7.08 23.70 A 1.42 1.42 0 0 1 6.28 22.65" stroke="rgba(255,255,255,0.92)" stroke-width="1.0" fill="none"/>
  <path d="M 7.28 21.13 L 7.08 21.13" stroke="rgba(255,255,255,0.92)" stroke-width="1.0" fill="none"/>
  <path d="M 2.19 4.26 L 5.03 4.26" stroke="rgba(255,255,255,0.92)" stroke-width="1.0" fill="none"/>
  <path d="M 5.03 1.39 L 5.03 21.13" stroke="rgba(255,255,255,0.92)" stroke-width="1.0" fill="none"/>
  <path d="M 0.97 5.47 L 0.97 21.91" stroke="rgba(255,255,255,0.92)" stroke-width="1.0" fill="none"/>
  <path d="M 2.19 6.69 A 1.22 1.22 0 0 1 0.97 5.47" stroke="rgba(255,255,255,0.92)" stroke-width="1.0" fill="none"/>
  <path d="M 32.45 23.32 L 50.70 23.32 L 50.70 30.62 L 32.45 30.62 Z" stroke="rgba(255,255,255,0.92)" stroke-width="1.0" fill="none"/>
  <path d="M 32.65 23.53 L 50.50 23.53 L 50.50 30.42 L 32.65 30.42 Z" stroke="rgba(255,255,255,0.92)" stroke-width="1.0" fill="none"/>
  <path d="M 40.56 25.96 L 42.59 25.96 L 42.59 27.99 L 40.56 27.99 Z" stroke="rgba(255,255,255,0.92)" stroke-width="1.0" fill="none"/>
  <path d="M 42.59 26.37 L 40.56 26.37" stroke="rgba(255,255,255,0.92)" stroke-width="1.0" fill="none"/>
  <path d="M 41.35 29.43 A 1.84 1.84 0 0 1 40.56 28.27" stroke="rgba(255,255,255,0.92)" stroke-width="1.0" fill="none"/>
  <path d="M 42.59 28.27 A 1.84 1.84 0 0 1 41.80 29.43" stroke="rgba(255,255,255,0.92)" stroke-width="1.0" fill="none"/>
  <path d="M 42.59 27.83 L 40.56 27.83" stroke="rgba(255,255,255,0.92)" stroke-width="1.0" fill="none"/>
  <path d="M 82.66 23.77 A 3.05 3.05 0 0 1 81.49 25.95" stroke="rgba(255,255,255,0.92)" stroke-width="1.0" fill="none"/>
  <path d="M 82.38 22.20 A 14.67 14.67 0 0 1 82.66 29.39" stroke="rgba(255,255,255,0.92)" stroke-width="1.0" fill="none"/>
  <path d="M 80.60 26.20 A 3.64 3.64 0 0 1 82.38 28.35" stroke="rgba(255,255,255,0.92)" stroke-width="1.0" fill="none"/>
  <path d="M 80.60 32.65 L 76.28 32.65" stroke="rgba(255,255,255,0.92)" stroke-width="1.0" fill="none"/>
  <path d="M 77.61 25.32 A 11.51 11.51 0 0 1 76.88 30.45" stroke="rgba(255,255,255,0.92)" stroke-width="1.0" fill="none"/>
  <path d="M 76.28 21.63 A 12.05 12.05 0 0 1 77.61 26.96" stroke="rgba(255,255,255,0.92)" stroke-width="1.0" fill="none"/>
  <path d="M 76.08 32.65 L 76.03 32.63 L 75.98 32.60 L 75.93 32.53 L 75.88 32.45 L 75.84 32.34 L 75.79 32.21 L 75.74 32.05 L 75.70 31.87 L 75.66 31.67 L 75.62 31.46 L 75.58 31.22 L 75.54 30.96 L 75.51 30.68 L 75.48 30.39 L 75.45 30.09 L 75.42 29.77 L 75.40 29.43 L 75.38 29.09 L 75.36 28.74 L 75.34 28.38 L 75.33 28.01 L 75.32 27.64 L 75.32 27.26 L 75.32 26.89 L 75.32 26.51 L 75.32 26.14 L 75.33 25.76 L 75.34 25.40 L 75.36 25.04 L 75.38 24.68 L 75.40 24.34 L 75.42 24.01 L 75.45 23.69 L 75.48 23.38 L 75.51 23.09 L 75.54 22.82 L 75.58 22.56 L 75.62 22.32 L 75.66 22.10 L 75.70 21.90 L 75.74 21.72 L 75.79 21.57 L 75.84 21.44 L 75.88 21.33 L 75.93 21.24 L 75.98 21.18 L 76.03 21.14 L 76.08 21.13" stroke="rgba(255,255,255,0.92)" stroke-width="1.0" fill="none"/>
  <path d="M 78.14 1.44 A 1.22 1.22 0 0 1 76.92 2.63" stroke="rgba(255,255,255,0.92)" stroke-width="1.0" fill="none"/>
  <path d="M 76.92 0.20 L 42.75 0.20" stroke="rgba(255,255,255,0.92)" stroke-width="1.0" fill="none"/>
  <path d="M 53.70 32.65 L 53.65 32.63 L 53.60 32.60 L 53.55 32.53 L 53.50 32.45 L 53.45 32.34 L 53.40 32.21 L 53.36 32.05 L 53.31 31.87 L 53.27 31.67 L 53.23 31.46 L 53.19 31.22 L 53.16 30.96 L 53.12 30.68 L 53.09 30.39 L 53.06 30.09 L 53.03 29.77 L 53.01 29.43 L 52.99 29.09 L 52.97 28.74 L 52.96 28.38 L 52.95 28.01 L 52.94 27.64 L 52.93 27.26 L 52.93 26.89 L 52.93 26.51 L 52.94 26.14 L 52.95 25.76 L 52.96 25.40 L 52.97 25.04 L 52.99 24.68 L 53.01 24.34 L 53.03 24.01 L 53.06 23.69 L 53.09 23.38 L 53.12 23.09 L 53.16 22.82 L 53.19 22.56 L 53.23 22.32 L 53.27 22.10 L 53.31 21.90 L 53.36 21.72 L 53.40 21.57 L 53.45 21.44 L 53.50 21.33 L 53.55 21.24 L 53.60 21.18 L 53.65 21.14 L 53.70 21.13" stroke="rgba(255,255,255,0.92)" stroke-width="1.0" fill="none"/>
  <path d="M 74.73 34.18 L 74.73 34.28 L 74.73 34.38 Z" stroke="rgba(255,255,255,0.92)" stroke-width="1.0" fill="none"/>
  <path d="M 74.73 34.18 L 74.73 34.28 L 74.73 34.38 Z" stroke="rgba(255,255,255,0.92)" stroke-width="1.0" fill="none"/>
  <path d="M 72.84 34.18 L 72.84 32.65" stroke="rgba(255,255,255,0.92)" stroke-width="1.0" fill="none"/>
  <path d="M 74.46 34.18 L 74.46 32.65" stroke="rgba(255,255,255,0.92)" stroke-width="1.0" fill="none"/>
  <path d="M 72.84 34.38 L 72.77 34.35 L 72.72 34.33 L 72.67 34.30 L 72.63 34.28 L 72.60 34.25 L 72.58 34.22 L 72.57 34.19 L 72.57 34.17 L 72.58 34.14 L 72.60 34.11 L 72.63 34.08 L 72.67 34.06 L 72.71 34.03 L 72.77 34.01 L 72.83 33.98 L 72.90 33.96 L 72.98 33.94 L 73.06 33.93 L 73.15 33.91 L 73.25 33.90 L 73.34 33.89 L 73.44 33.89 L 73.54 33.88 L 73.65 33.88 L 73.75 33.88 L 73.85 33.89 L 73.95 33.89 L 74.05 33.90 L 74.14 33.91 L 74.23 33.93 L 74.31 33.94 L 74.39 33.96 L 74.46 33.98 L 74.53 34.01 L 74.58 34.03 L 74.63 34.06 L 74.67 34.08 L 74.70 34.11 L 74.71 34.14 L 74.72 34.17 L 74.72 34.19 L 74.71 34.22 L 74.69 34.25 L 74.66 34.28 L 74.63 34.30 L 74.58 34.33 L 74.52 34.35 L 74.46 34.38" stroke="rgba(255,255,255,0.92)" stroke-width="1.0" fill="none"/>
  <path d="M 72.84 29.28 A 2.58 2.58 0 0 1 74.46 29.28" stroke="rgba(255,255,255,0.92)" stroke-width="1.0" fill="none"/>
  <path d="M 72.57 34.18 L 72.57 34.38" stroke="rgba(255,255,255,0.92)" stroke-width="1.0" fill="none"/>
  <path d="M 74.73 34.18 L 74.73 34.38" stroke="rgba(255,255,255,0.92)" stroke-width="1.0" fill="none"/>
  <path d="M 72.57 34.38 L 72.57 34.36 L 72.58 34.34 L 72.59 34.32 L 72.61 34.31 L 72.63 34.29 L 72.65 34.27 L 72.68 34.25 L 72.71 34.23 L 72.75 34.22 L 72.79 34.20 L 72.84 34.19 L 72.89 34.17 L 72.94 34.16 L 72.99 34.15 L 73.05 34.13 L 73.11 34.12 L 73.17 34.11 L 73.23 34.11 L 73.30 34.10 L 73.37 34.09 L 73.44 34.09 L 73.51 34.09 L 73.58 34.08 L 73.65 34.08 L 73.72 34.08 L 73.79 34.09 L 73.86 34.09 L 73.93 34.09 L 73.99 34.10 L 74.06 34.11 L 74.12 34.11 L 74.19 34.12 L 74.25 34.13 L 74.30 34.15 L 74.36 34.16 L 74.41 34.17 L 74.46 34.19 L 74.50 34.20 L 74.54 34.22 L 74.58 34.23 L 74.61 34.25 L 74.64 34.27 L 74.67 34.29 L 74.69 34.31 L 74.70 34.32 L 74.72 34.34 L 74.72 34.36 L 74.73 34.38" stroke="rgba(255,255,255,0.92)" stroke-width="1.0" fill="none"/>
  <path d="M 60.04 0.20 L 60.04 16.36" stroke="rgba(255,255,255,0.92)" stroke-width="1.0" fill="none"/>
  <path d="M 59.64 0.20 L 59.64 16.36" stroke="rgba(255,255,255,0.92)" stroke-width="1.0" fill="none"/>
  <path d="M 77.54 22.16 A 18.08 18.08 0 0 1 74.45 6.80" stroke="rgba(255,255,255,0.92)" stroke-width="1.0" fill="none"/>
  <path d="M 76.55 13.83 A 6.96 6.96 0 0 1 72.86 11.76" stroke="rgba(255,255,255,0.92)" stroke-width="1.0" fill="none"/>
  <path d="M 77.37 13.75 A 6.76 6.76 0 0 1 72.37 10.82" stroke="rgba(255,255,255,0.92)" stroke-width="1.0" fill="none"/>
  <path d="M 66.75 -9.39 A 7.43 7.43 0 0 1 72.86 -6.18" stroke="rgba(255,255,255,0.92)" stroke-width="1.0" fill="none"/>
  <path d="M 66.75 -9.59 A 7.64 7.64 0 0 1 72.37 -7.12" stroke="rgba(255,255,255,0.92)" stroke-width="1.0" fill="none"/>
  <path d="M 66.75 5.48 L 60.04 5.48" stroke="rgba(255,255,255,0.92)" stroke-width="1.0" fill="none"/>
  <path d="M 66.75 5.68 L 60.04 5.68" stroke="rgba(255,255,255,0.92)" stroke-width="1.0" fill="none"/>
  <path d="M 41.58 16.36 L 41.58 1.08" stroke="rgba(255,255,255,0.92)" stroke-width="1.0" fill="none"/>
  <path d="M 42.75 2.63 A 1.22 1.22 0 0 1 41.58 1.75" stroke="rgba(255,255,255,0.92)" stroke-width="1.0" fill="none"/>
  <path d="M 59.64 0.20 L 59.64 16.36" stroke="rgba(255,255,255,0.92)" stroke-width="1.0" fill="none"/>
  <path d="M 60.04 0.20 L 60.04 16.36" stroke="rgba(255,255,255,0.92)" stroke-width="1.0" fill="none"/>
  <path d="M 45.00 5.95 A 17.77 17.77 0 0 1 42.13 21.94" stroke="rgba(255,255,255,0.92)" stroke-width="1.0" fill="none"/>
  <path d="M 46.81 11.76 A 6.96 6.96 0 0 1 43.13 13.83" stroke="rgba(255,255,255,0.92)" stroke-width="1.0" fill="none"/>
  <path d="M 47.30 10.82 A 6.76 6.76 0 0 1 42.31 13.75" stroke="rgba(255,255,255,0.92)" stroke-width="1.0" fill="none"/>
  <path d="M 46.81 -6.18 A 7.43 7.43 0 0 1 52.93 -9.39" stroke="rgba(255,255,255,0.92)" stroke-width="1.0" fill="none"/>
  <path d="M 47.30 -7.12 A 7.64 7.64 0 0 1 52.93 -9.59" stroke="rgba(255,255,255,0.92)" stroke-width="1.0" fill="none"/>
  <path d="M 52.93 5.48 L 59.64 5.48" stroke="rgba(255,255,255,0.92)" stroke-width="1.0" fill="none"/>
  <path d="M 52.93 5.68 L 59.64 5.68" stroke="rgba(255,255,255,0.92)" stroke-width="1.0" fill="none"/>
  <path d="M 72.39 16.43 L 41.58 16.43" stroke="rgba(255,255,255,0.92)" stroke-width="1.0" fill="none"/>
  <path d="M 75.87 22.30 A 3.66 3.66 0 0 1 72.39 23.65" stroke="rgba(255,255,255,0.92)" stroke-width="1.0" fill="none"/>
  <path d="M 75.88 17.84 A 7.48 7.48 0 0 1 75.87 21.18" stroke="rgba(255,255,255,0.92)" stroke-width="1.0" fill="none"/>
  <path d="M 75.87 22.73 A 4.08 4.08 0 0 1 75.13 19.39" stroke="rgba(255,255,255,0.92)" stroke-width="1.0" fill="none"/>
  <path d="M 74.82 23.32 L 56.56 23.32 L 56.56 30.62 L 74.82 30.62 Z" stroke="rgba(255,255,255,0.92)" stroke-width="1.0" fill="none"/>
  <path d="M 74.62 23.53 L 56.77 23.53 L 56.77 30.42 L 74.62 30.42 Z" stroke="rgba(255,255,255,0.92)" stroke-width="1.0" fill="none"/>
  <path d="M 66.71 25.96 L 64.68 25.96 L 64.68 27.99 L 66.71 27.99 Z" stroke="rgba(255,255,255,0.92)" stroke-width="1.0" fill="none"/>
  <path d="M 64.68 26.37 L 66.71 26.37" stroke="rgba(255,255,255,0.92)" stroke-width="1.0" fill="none"/>
  <path d="M 66.71 28.27 A 1.84 1.84 0 0 1 65.92 29.43" stroke="rgba(255,255,255,0.92)" stroke-width="1.0" fill="none"/>
  <path d="M 65.46 29.43 A 1.84 1.84 0 0 1 64.68 28.27" stroke="rgba(255,255,255,0.92)" stroke-width="1.0" fill="none"/>
  <path d="M 64.68 27.83 L 66.71 27.83" stroke="rgba(255,255,255,0.92)" stroke-width="1.0" fill="none"/>
  <path d="M 76.88 22.65 A 1.42 1.42 0 0 1 76.08 23.70" stroke="rgba(255,255,255,0.92)" stroke-width="1.0" fill="none"/>
  <path d="M 75.88 21.13 L 76.08 21.13" stroke="rgba(255,255,255,0.92)" stroke-width="1.0" fill="none"/>
  <path d="M 80.98 4.26 L 78.14 4.26" stroke="rgba(255,255,255,0.92)" stroke-width="1.0" fill="none"/>
  <path d="M 78.14 1.39 L 78.14 21.13" stroke="rgba(255,255,255,0.92)" stroke-width="1.0" fill="none"/>
  <path d="M 82.20 5.47 L 82.20 21.91" stroke="rgba(255,255,255,0.92)" stroke-width="1.0" fill="none"/>
  <path d="M 82.20 5.47 A 1.22 1.22 0 0 1 80.98 6.69" stroke="rgba(255,255,255,0.92)" stroke-width="1.0" fill="none"/>
  <path d="M 1.42 7.49 L 1.42 28.38" stroke="rgba(255,255,255,0.92)" stroke-width="1.0" fill="none"/>
  <path d="M 2.43 7.49 L 2.43 28.38" stroke="rgba(255,255,255,0.92)" stroke-width="1.0" fill="none"/>
  <path d="M 100.00 24.98 L 100.00 28.38" stroke="rgba(255,255,255,0.92)" stroke-width="1.0" fill="none"/>
  <path d="M 98.99 24.98 L 98.99 28.38" stroke="rgba(255,255,255,0.92)" stroke-width="1.0" fill="none"/>
  <path d="M 95.94 20.92 L 11.39 20.92" stroke="rgba(255,255,255,0.92)" stroke-width="1.0" fill="none"/>
  <path d="M 95.94 21.93 L 11.26 21.93" stroke="rgba(255,255,255,0.92)" stroke-width="1.0" fill="none"/>
  <path d="M 95.94 32.43 L 5.48 32.43" stroke="rgba(255,255,255,0.92)" stroke-width="1.0" fill="none"/>
  <path d="M 95.94 31.42 L 5.48 31.42" stroke="rgba(255,255,255,0.92)" stroke-width="1.0" fill="none"/>
  <path d="M 0.20 34.47 L 0.20 2.43" stroke="rgba(255,255,255,0.92)" stroke-width="1.0" fill="none"/>
  <path d="M 100.00 24.98 A 4.06 4.06 0 0 1 95.94 29.03" stroke="rgba(255,255,255,0.92)" stroke-width="1.0" fill="none"/>
  <path d="M 98.99 24.98 A 3.04 3.04 0 0 1 95.94 28.02" stroke="rgba(255,255,255,0.92)" stroke-width="1.0" fill="none"/>
  <path d="M 95.94 24.32 A 4.06 4.06 0 0 1 100.00 28.38" stroke="rgba(255,255,255,0.92)" stroke-width="1.0" fill="none"/>
  <path d="M 95.94 25.34 A 3.04 3.04 0 0 1 98.99 28.38" stroke="rgba(255,255,255,0.92)" stroke-width="1.0" fill="none"/>
  <path d="M 1.42 28.38 A 4.06 4.06 0 0 1 5.48 24.32" stroke="rgba(255,255,255,0.92)" stroke-width="1.0" fill="none"/>
  <path d="M 2.43 28.38 A 3.04 3.04 0 0 1 5.48 25.34" stroke="rgba(255,255,255,0.92)" stroke-width="1.0" fill="none"/>
  <path d="M 14.18 16.22 L 92.52 16.22" stroke="rgba(255,255,255,0.92)" stroke-width="1.0" fill="none"/>
  <path d="M 1.42 7.13 A 0.47 0.47 0 0 1 1.76 6.85" stroke="rgba(255,255,255,0.92)" stroke-width="1.0" fill="none"/>
  <path d="M 1.42 6.83 A 0.44 0.44 0 0 1 1.88 6.76" stroke="rgba(255,255,255,0.92)" stroke-width="1.0" fill="none"/>
  <path d="M 1.55 5.54 A 1.01 1.01 0 0 1 2.49 4.78" stroke="rgba(255,255,255,0.92)" stroke-width="1.0" fill="none"/>
  <path d="M 1.58 4.26 A 1.09 1.09 0 0 1 2.38 3.97" stroke="rgba(255,255,255,0.92)" stroke-width="1.0" fill="none"/>
  <path d="M 1.75 5.06 A 0.74 0.74 0 0 1 2.62 4.36" stroke="rgba(255,255,255,0.92)" stroke-width="1.0" fill="none"/>
  <path d="M 2.42 7.93 A 1.82 1.82 0 0 1 1.80 8.35" stroke="rgba(255,255,255,0.92)" stroke-width="1.0" fill="none"/>
  <path d="M 3.20 4.53 A 2.33 2.33 0 0 1 3.07 5.54" stroke="rgba(255,255,255,0.92)" stroke-width="1.0" fill="none"/>
  <path d="M 2.99 4.74 A 1.17 1.17 0 0 1 3.02 3.90" stroke="rgba(255,255,255,0.92)" stroke-width="1.0" fill="none"/>
  <path d="M 4.48 6.11 A 1.03 1.03 0 0 1 3.92 5.25" stroke="rgba(255,255,255,0.92)" stroke-width="1.0" fill="none"/>
  <path d="M 4.32 4.07 A 0.68 0.68 0 0 1 4.84 4.47" stroke="rgba(255,255,255,0.92)" stroke-width="1.0" fill="none"/>
  <path d="M 4.35 3.68 A 0.97 0.97 0 0 1 5.42 3.86" stroke="rgba(255,255,255,0.92)" stroke-width="1.0" fill="none"/>
  <path d="M 4.72 5.06 A 0.68 0.68 0 0 1 5.51 5.36" stroke="rgba(255,255,255,0.92)" stroke-width="1.0" fill="none"/>
  <path d="M 4.81 5.18 A 0.85 0.85 0 0 1 5.67 6.09" stroke="rgba(255,255,255,0.92)" stroke-width="1.0" fill="none"/>
  <path d="M 6.79 17.10 A 1.01 1.01 0 0 1 7.95 16.83" stroke="rgba(255,255,255,0.92)" stroke-width="1.0" fill="none"/>
  <path d="M 6.87 17.70 A 0.82 0.82 0 0 1 7.62 17.37" stroke="rgba(255,255,255,0.92)" stroke-width="1.0" fill="none"/>
  <path d="M 7.29 17.78 A 0.78 0.78 0 0 1 8.13 17.90" stroke="rgba(255,255,255,0.92)" stroke-width="1.0" fill="none"/>
  <path d="M 7.58 17.54 A 1.04 1.04 0 0 1 8.13 17.97" stroke="rgba(255,255,255,0.92)" stroke-width="1.0" fill="none"/>
  <path d="M 7.74 16.62 A 1.84 1.84 0 0 1 8.91 16.94" stroke="rgba(255,255,255,0.92)" stroke-width="1.0" fill="none"/>
  <path d="M 7.97 15.95 A 2.51 2.51 0 0 1 10.05 15.94" stroke="rgba(255,255,255,0.92)" stroke-width="1.0" fill="none"/>
  <path d="M 9.30 17.51 A 2.09 2.09 0 0 1 10.19 18.26" stroke="rgba(255,255,255,0.92)" stroke-width="1.0" fill="none"/>
  <path d="M 11.39 23.60 A 1.38 1.38 0 0 1 9.97 23.06" stroke="rgba(255,255,255,0.92)" stroke-width="1.0" fill="none"/>
  <path d="M 11.13 19.69 A 2.44 2.44 0 0 1 11.39 20.67" stroke="rgba(255,255,255,0.92)" stroke-width="1.0" fill="none"/>
  <path d="M 93.91 18.66 L 93.91 20.92" stroke="rgba(255,255,255,0.92)" stroke-width="1.0" fill="none"/>
  <path d="M 93.91 18.66 A 2.90 2.90 0 0 1 92.52 21.18" stroke="rgba(255,255,255,0.92)" stroke-width="1.0" fill="none"/>
  <path d="M 92.52 16.91 A 7.52 7.52 0 0 1 93.05 13.78" stroke="rgba(255,255,255,0.92)" stroke-width="1.0" fill="none"/>
  <path d="M 92.52 21.08 A 6.71 6.71 0 0 1 92.46 16.37" stroke="rgba(255,255,255,0.92)" stroke-width="1.0" fill="none"/>
  <path d="M 15.24 19.37 A 4.50 4.50 0 0 1 14.18 22.02" stroke="rgba(255,255,255,0.92)" stroke-width="1.0" fill="none"/>
  <path d="M 7.86 6.55 A 3.85 3.85 0 0 1 4.35 7.83" stroke="rgba(255,255,255,0.92)" stroke-width="1.0" fill="none"/>
  <path d="M 12.91 10.36 A 17.85 17.85 0 0 1 7.86 27.27" stroke="rgba(255,255,255,0.92)" stroke-width="1.0" fill="none"/>
  <path d="M 23.10 33.97 L 23.10 34.07 L 23.10 34.17 Z" stroke="rgba(255,255,255,0.92)" stroke-width="1.0" fill="none"/>
  <path d="M 23.10 33.97 L 23.10 34.07 L 23.10 34.17 Z" stroke="rgba(255,255,255,0.92)" stroke-width="1.0" fill="none"/>
  <path d="M 21.21 33.97 L 21.21 32.43" stroke="rgba(255,255,255,0.92)" stroke-width="1.0" fill="none"/>
  <path d="M 22.84 33.97 L 22.84 32.43" stroke="rgba(255,255,255,0.92)" stroke-width="1.0" fill="none"/>
  <path d="M 21.21 34.17 L 21.15 34.14 L 21.09 34.12 L 21.05 34.09 L 21.01 34.07 L 20.98 34.04 L 20.96 34.01 L 20.95 33.98 L 20.95 33.96 L 20.96 33.93 L 20.98 33.90 L 21.01 33.87 L 21.04 33.85 L 21.09 33.82 L 21.15 33.80 L 21.21 33.77 L 21.28 33.75 L 21.36 33.73 L 21.44 33.72 L 21.53 33.70 L 21.62 33.69 L 21.72 33.68 L 21.82 33.68 L 21.92 33.67 L 22.03 33.67 L 22.13 33.67 L 22.23 33.68 L 22.33 33.68 L 22.43 33.69 L 22.52 33.70 L 22.61 33.72 L 22.69 33.73 L 22.77 33.75 L 22.84 33.77 L 22.91 33.80 L 22.96 33.82 L 23.01 33.85 L 23.05 33.87 L 23.07 33.90 L 23.09 33.93 L 23.10 33.96 L 23.10 33.98 L 23.09 34.01 L 23.07 34.04 L 23.04 34.07 L 23.00 34.09 L 22.96 34.12 L 22.90 34.14 L 22.84 34.17" stroke="rgba(255,255,255,0.92)" stroke-width="1.0" fill="none"/>
  <path d="M 21.21 29.07 A 2.58 2.58 0 0 1 22.84 29.07" stroke="rgba(255,255,255,0.92)" stroke-width="1.0" fill="none"/>
  <path d="M 20.95 33.97 L 20.95 34.17" stroke="rgba(255,255,255,0.92)" stroke-width="1.0" fill="none"/>
  <path d="M 23.10 33.97 L 23.10 34.17" stroke="rgba(255,255,255,0.92)" stroke-width="1.0" fill="none"/>
  <path d="M 20.95 34.17 L 20.95 34.15 L 20.96 34.13 L 20.97 34.11 L 20.98 34.09 L 21.01 34.08 L 21.03 34.06 L 21.06 34.04 L 21.09 34.02 L 21.13 34.01 L 21.17 33.99 L 21.22 33.97 L 21.26 33.96 L 21.32 33.95 L 21.37 33.93 L 21.43 33.92 L 21.49 33.91 L 21.55 33.90 L 21.61 33.90 L 21.68 33.89 L 21.75 33.88 L 21.82 33.88 L 21.89 33.88 L 21.96 33.87 L 22.03 33.87 L 22.10 33.87 L 22.17 33.88 L 22.24 33.88 L 22.31 33.88 L 22.37 33.89 L 22.44 33.90 L 22.50 33.90 L 22.57 33.91 L 22.62 33.92 L 22.68 33.93 L 22.74 33.95 L 22.79 33.96 L 22.84 33.97 L 22.88 33.99 L 22.92 34.01 L 22.96 34.02 L 22.99 34.04 L 23.02 34.06 L 23.05 34.08 L 23.07 34.09 L 23.08 34.11 L 23.09 34.13 L 23.10 34.15 L 23.10 34.17" stroke="rgba(255,255,255,0.92)" stroke-width="1.0" fill="none"/>
  <path d="M 3.20 14.12 A 7.02 7.02 0 0 1 0.98 13.43" stroke="rgba(255,255,255,0.92)" stroke-width="1.0" fill="none"/>
  <path d="M 0.98 4.64 A 2.60 2.60 0 0 1 0.20 3.10" stroke="rgba(255,255,255,0.92)" stroke-width="1.0" fill="none"/>
  <path d="M 12.78 34.47 L 12.78 32.43" stroke="rgba(255,255,255,0.92)" stroke-width="1.0" fill="none"/>
  <path d="M 83.60 33.97 L 83.60 34.07 L 83.60 34.17 Z" stroke="rgba(255,255,255,0.92)" stroke-width="1.0" fill="none"/>
  <path d="M 83.60 33.97 L 83.60 34.07 L 83.60 34.17 Z" stroke="rgba(255,255,255,0.92)" stroke-width="1.0" fill="none"/>
  <path d="M 85.49 33.97 L 85.49 32.43" stroke="rgba(255,255,255,0.92)" stroke-width="1.0" fill="none"/>
  <path d="M 83.86 33.97 L 83.86 32.43" stroke="rgba(255,255,255,0.92)" stroke-width="1.0" fill="none"/>
  <path d="M 85.49 33.77 L 85.55 33.79 L 85.61 33.82 L 85.65 33.84 L 85.69 33.87 L 85.72 33.90 L 85.74 33.93 L 85.75 33.95 L 85.75 33.98 L 85.74 34.01 L 85.72 34.04 L 85.70 34.07 L 85.66 34.09 L 85.61 34.12 L 85.55 34.14 L 85.49 34.16 L 85.42 34.18 L 85.34 34.20 L 85.26 34.22 L 85.17 34.23 L 85.08 34.25 L 84.98 34.26 L 84.88 34.26 L 84.78 34.27 L 84.68 34.27 L 84.57 34.27 L 84.47 34.26 L 84.37 34.26 L 84.27 34.25 L 84.18 34.23 L 84.09 34.22 L 84.01 34.20 L 83.93 34.18 L 83.86 34.16 L 83.80 34.14 L 83.74 34.12 L 83.69 34.09 L 83.66 34.07 L 83.63 34.04 L 83.61 34.01 L 83.60 33.98 L 83.60 33.95 L 83.61 33.93 L 83.63 33.90 L 83.66 33.87 L 83.70 33.84 L 83.74 33.82 L 83.80 33.79 L 83.86 33.77" stroke="rgba(255,255,255,0.92)" stroke-width="1.0" fill="none"/>
  <path d="M 83.86 29.07 A 2.58 2.58 0 0 1 85.49 29.07" stroke="rgba(255,255,255,0.92)" stroke-width="1.0" fill="none"/>
  <path d="M 85.75 33.97 L 85.75 34.17" stroke="rgba(255,255,255,0.92)" stroke-width="1.0" fill="none"/>
  <path d="M 83.60 33.97 L 83.60 34.17" stroke="rgba(255,255,255,0.92)" stroke-width="1.0" fill="none"/>
  <path d="M 85.75 34.17 L 85.75 34.19 L 85.74 34.21 L 85.73 34.23 L 85.72 34.25 L 85.70 34.27 L 85.67 34.29 L 85.64 34.30 L 85.61 34.32 L 85.57 34.34 L 85.53 34.35 L 85.49 34.37 L 85.44 34.38 L 85.39 34.40 L 85.33 34.41 L 85.27 34.42 L 85.21 34.43 L 85.15 34.44 L 85.09 34.45 L 85.02 34.45 L 84.95 34.46 L 84.89 34.47 L 84.82 34.47 L 84.75 34.47 L 84.68 34.47 L 84.61 34.47 L 84.53 34.47 L 84.47 34.47 L 84.40 34.46 L 84.33 34.45 L 84.26 34.45 L 84.20 34.44 L 84.14 34.43 L 84.08 34.42 L 84.02 34.41 L 83.96 34.40 L 83.91 34.38 L 83.86 34.37 L 83.82 34.35 L 83.78 34.34 L 83.74 34.32 L 83.71 34.30 L 83.68 34.29 L 83.65 34.27 L 83.63 34.25 L 83.62 34.23 L 83.61 34.21 L 83.60 34.19 L 83.60 34.17" stroke="rgba(255,255,255,0.92)" stroke-width="1.0" fill="none"/>
  <path d="M 12.49 8.24 A 9.91 9.91 0 0 1 19.90 -3.45" stroke="rgba(255,255,255,0.92)" stroke-width="1.0" fill="none"/>
  <path d="M 19.13 30.03 A 19.61 19.61 0 0 1 15.11 35.25" stroke="rgba(255,255,255,0.92)" stroke-width="1.0" fill="none"/>
  <path d="M 16.19 11.51 A 5.16 5.16 0 0 1 12.94 14.32" stroke="rgba(255,255,255,0.92)" stroke-width="1.0" fill="none"/>
  <path d="M 12.63 4.22 A 0.05 0.05 0 1 1 12.54 4.19" stroke="rgba(255,255,255,0.92)" stroke-width="1.0" fill="none"/>
  <path d="M 12.63 2.70 A 1.19 1.19 0 0 1 13.00 2.40" stroke="rgba(255,255,255,0.92)" stroke-width="1.0" fill="none"/>
  <path d="M 20.32 19.94 A 12.46 12.46 0 0 1 19.13 23.27" stroke="rgba(255,255,255,0.92)" stroke-width="1.0" fill="none"/>
  <path d="M 20.39 15.89 A 0.17 0.17 0 0 1 20.43 16.03" stroke="rgba(255,255,255,0.92)" stroke-width="1.0" fill="none"/>
  <path d="M 19.90 14.46 A 1.21 1.21 0 0 1 20.30 14.10" stroke="rgba(255,255,255,0.92)" stroke-width="1.0" fill="none"/>
  <path d="M 20.32 15.48 A 2.28 2.28 0 0 1 20.43 14.48" stroke="rgba(255,255,255,0.92)" stroke-width="1.0" fill="none"/>
  <path d="M 12.61 -4.11 A 19.39 19.39 0 0 1 20.19 -15.58" stroke="rgba(255,255,255,0.92)" stroke-width="1.0" fill="none"/>
  <path d="M 12.81 -4.06 A 19.18 19.18 0 0 1 20.31 -15.41" stroke="rgba(255,255,255,0.92)" stroke-width="1.0" fill="none"/>
  <path d="M 19.45 12.31 A 6.20 6.20 0 0 1 22.95 4.40" stroke="rgba(255,255,255,0.92)" stroke-width="1.0" fill="none"/>
  <path d="M 22.86 21.41 A 12.26 12.26 0 0 1 20.86 25.00" stroke="rgba(255,255,255,0.92)" stroke-width="1.0" fill="none"/>
  <path d="M 21.45 12.02 A 3.22 3.22 0 0 1 19.70 14.06" stroke="rgba(255,255,255,0.92)" stroke-width="1.0" fill="none"/>
  <path d="M 19.53 8.04 A 0.03 0.03 0 1 1 19.47 8.03" stroke="rgba(255,255,255,0.92)" stroke-width="1.0" fill="none"/>
  <path d="M 19.53 7.28 A 0.74 0.74 0 0 1 19.73 7.06" stroke="rgba(255,255,255,0.92)" stroke-width="1.0" fill="none"/>
  <path d="M 23.29 16.22 A 7.79 7.79 0 0 1 22.86 18.39" stroke="rgba(255,255,255,0.92)" stroke-width="1.0" fill="none"/>
  <path d="M 23.23 15.95 A 0.11 0.11 0 0 1 23.26 16.04" stroke="rgba(255,255,255,0.92)" stroke-width="1.0" fill="none"/>
  <path d="M 22.95 15.23 A 0.76 0.76 0 0 1 23.16 14.97" stroke="rgba(255,255,255,0.92)" stroke-width="1.0" fill="none"/>
  <path d="M 23.29 16.14 A 1.42 1.42 0 0 1 23.26 15.51" stroke="rgba(255,255,255,0.92)" stroke-width="1.0" fill="none"/>
  <path d="M 19.50 6.39 A 12.12 12.12 0 0 1 23.13 -1.40" stroke="rgba(255,255,255,0.92)" stroke-width="1.0" fill="none"/>
  <path d="M 19.63 6.40 A 11.99 11.99 0 0 1 23.22 -1.31" stroke="rgba(255,255,255,0.92)" stroke-width="1.0" fill="none"/>
</svg>
