<svg xmlns="http://www.w3.org/2000/svg" viewBox="0 0 100.00 96.14" data-cad-width="2548.4" data-cad-height="2450.0">
  <path d="M 1.08 13.73 L 71.71 13.73" stroke="rgba(255,255,255,0.92)" stroke-width="1.0" fill="none"/>
  <path d="M 71.71 92.21 L 1.08 92.21" stroke="rgba(255,255,255,0.92)" stroke-width="1.0" fill="none"/>
  <path d="M 1.08 92.21 L 70.85 92.21" stroke="rgba(255,255,255,0.92)" stroke-width="1.0" fill="none"/>
  <path d="M 71.71 13.73 L 71.71 92.21" stroke="rgba(255,255,255,0.92)" stroke-width="1.0" fill="none"/>
  <path d="M 1.08 13.73 L 1.08 92.21" stroke="rgba(255,255,255,0.92)" stroke-width="1.0" fill="none"/>
  <path d="M 70.53 14.91 L 70.53 89.07" stroke="rgba(255,255,255,0.92)" stroke-width="1.0" fill="none"/>
  <path d="M 68.57 87.11 A 1.96 1.96 0 0 1 70.53 89.07" stroke="rgba(255,255,255,0.92)" stroke-width="1.0" fill="none"/>
  <path d="M 68.57 91.03 L 4.22 91.03" stroke="rgba(255,255,255,0.92)" stroke-width="1.0" fill="none"/>
  <path d="M 2.26 89.07 A 1.96 1.96 0 0 1 4.22 87.11" stroke="rgba(255,255,255,0.92)" stroke-width="1.0" fill="none"/>
  <path d="M 2.26 89.07 L 2.26 14.91" stroke="rgba(255,255,255,0.92)" stroke-width="1.0" fill="none"/>
  <path d="M 1.08 13.73 L 71.71 13.73" stroke="rgba(255,255,255,0.92)" stroke-width="1.0" fill="none"/>
  <path d="M 71.71 13.73 L 71.71 92.21" stroke="rgba(255,255,255,0.92)" stroke-width="1.0" fill="none"/>
  <path d="M 71.71 92.21 L 1.08 92.21" stroke="rgba(255,255,255,0.92)" stroke-width="1.0" fill="none"/>
  <path d="M 1.08 92.21 L 1.08 13.73" stroke="rgba(255,255,255,0.92)" stroke-width="1.0" fill="none"/>
  <path d="M 17.81 -51.30 A 60.87 60.87 0 0 1 35.42 -54.19" stroke="rgba(255,255,255,0.92)" stroke-width="1.0" fill="none"/>
  <path d="M 35.42 162.32 A 47.40 47.40 0 0 1 8.96 154.93" stroke="rgba(255,255,255,0.92)" stroke-width="1.0" fill="none"/>
  <path d="M 35.42 158.21 A 45.41 45.41 0 0 1 10.46 148.94" stroke="rgba(255,255,255,0.92)" stroke-width="1.0" fill="none"/>
  <path d="M 21.52 -82.36 A 75.87 75.87 0 0 1 45.24 -83.85" stroke="rgba(255,255,255,0.92)" stroke-width="1.0" fill="none"/>
  <path d="M 68.27 130.40 A 25.26 25.26 0 0 1 52.23 135.97" stroke="rgba(255,255,255,0.92)" stroke-width="1.0" fill="none"/>
  <path d="M 57.81 42.53 A 28.51 28.51 0 0 1 70.23 34.66" stroke="rgba(255,255,255,0.92)" stroke-width="1.0" fill="none"/>
  <path d="M 12.73 -245.27 A 132.64 132.64 0 0 1 34.33 -244.71" stroke="rgba(255,255,255,0.92)" stroke-width="1.0" fill="none"/>
  <path d="M 16.84 23.31 A 17.75 17.75 0 0 1 26.28 17.60" stroke="rgba(255,255,255,0.92)" stroke-width="1.0" fill="none"/>
  <path d="M 1.08 -54.87 A 51.41 51.41 0 0 1 16.84 -53.74" stroke="rgba(255,255,255,0.92)" stroke-width="1.0" fill="none"/>
  <path d="M 57.78 374.93 A 165.50 165.50 0 0 1 16.84 374.76" stroke="rgba(255,255,255,0.92)" stroke-width="1.0" fill="none"/>
  <path d="M 57.78 -34.69 A 40.74 40.74 0 0 1 71.57 -33.84" stroke="rgba(255,255,255,0.92)" stroke-width="1.0" fill="none"/>
  <path d="M 1.95 -339.48 A 186.97 186.97 0 0 1 32.34 -337.93" stroke="rgba(255,255,255,0.92)" stroke-width="1.0" fill="none"/>
  <path d="M 16.10 34.60 A 9.61 9.61 0 0 1 9.46 37.96" stroke="rgba(255,255,255,0.92)" stroke-width="1.0" fill="none"/>
  <path d="M 9.46 -2.60 A 11.57 11.57 0 0 1 12.73 -3.42" stroke="rgba(255,255,255,0.92)" stroke-width="1.0" fill="none"/>
  <path d="M 9.98 17.64 A 92.68 92.68 0 0 1 10.06 20.06" stroke="rgba(255,255,255,0.92)" stroke-width="1.0" fill="none"/>
  <path d="M 9.98 23.58 A 1.75 1.75 0 0 1 10.06 26.00" stroke="rgba(255,255,255,0.92)" stroke-width="1.0" fill="none"/>
  <path d="M 9.46 20.76 A 12.10 12.10 0 0 1 10.06 15.89" stroke="rgba(255,255,255,0.92)" stroke-width="1.0" fill="none"/>
  <path d="M 10.06 34.42 A 64.21 64.21 0 0 1 9.46 39.29" stroke="rgba(255,255,255,0.92)" stroke-width="1.0" fill="none"/>
  <path d="M 10.21 173.17 A 70.11 70.11 0 0 1 9.46 173.07" stroke="rgba(255,255,255,0.92)" stroke-width="1.0" fill="none"/>
  <path d="M 9.46 15.19 A 9.61 9.61 0 0 1 10.18 15.27" stroke="rgba(255,255,255,0.92)" stroke-width="1.0" fill="none"/>
  <path d="M 9.50 -1.55 A 28.84 28.84 0 0 1 21.11 -5.25" stroke="rgba(255,255,255,0.92)" stroke-width="1.0" fill="none"/>
  <path d="M 12.50 39.71 A 7.63 7.63 0 0 1 9.46 32.81" stroke="rgba(255,255,255,0.92)" stroke-width="1.0" fill="none"/>
  <path d="M 9.46 23.67 A 19.45 19.45 0 0 1 9.98 31.96" stroke="rgba(255,255,255,0.92)" stroke-width="1.0" fill="none"/>
  <path d="M 49.71 34.60 A 9.61 9.61 0 0 1 43.07 37.96" stroke="rgba(255,255,255,0.92)" stroke-width="1.0" fill="none"/>
  <path d="M 62.92 7.61 A 6.13 6.13 0 0 1 66.79 8.30" stroke="rgba(255,255,255,0.92)" stroke-width="1.0" fill="none"/>
  <path d="M 66.79 38.22 A 9.61 9.61 0 0 1 60.14 34.86" stroke="rgba(255,255,255,0.92)" stroke-width="1.0" fill="none"/>
  <path d="M 43.07 -46.88 A 33.59 33.59 0 0 1 52.32 -47.58" stroke="rgba(255,255,255,0.92)" stroke-width="1.0" fill="none"/>
  <path d="M 34.33 25.60 A 6.94 6.94 0 0 1 34.00 19.76" stroke="rgba(255,255,255,0.92)" stroke-width="1.0" fill="none"/>
  <path d="M 43.80 21.98 A 14.84 14.84 0 0 1 43.07 28.54" stroke="rgba(255,255,255,0.92)" stroke-width="1.0" fill="none"/>
  <path d="M 43.07 20.35 A 7.63 7.63 0 0 1 46.11 13.44" stroke="rgba(255,255,255,0.92)" stroke-width="1.0" fill="none"/>
  <path d="M 31.29 13.70 A 7.63 7.63 0 0 1 34.33 20.61" stroke="rgba(255,255,255,0.92)" stroke-width="1.0" fill="none"/>
  <path d="M 33.53 29.52 A 7.20 7.20 0 0 1 33.80 26.91" stroke="rgba(255,255,255,0.92)" stroke-width="1.0" fill="none"/>
  <path d="M 33.53 23.17 A 6.60 6.60 0 0 1 34.00 26.62" stroke="rgba(255,255,255,0.92)" stroke-width="1.0" fill="none"/>
  <path d="M 43.80 27.98 A 2.15 2.15 0 0 1 43.87 25.25" stroke="rgba(255,255,255,0.92)" stroke-width="1.0" fill="none"/>
  <path d="M 62.92 48.00 A 15.22 15.22 0 0 1 52.32 48.26" stroke="rgba(255,255,255,0.92)" stroke-width="1.0" fill="none"/>
  <path d="M 65.12 15.02 A 7.63 7.63 0 0 1 66.04 16.45" stroke="rgba(255,255,255,0.92)" stroke-width="1.0" fill="none"/>
  <path d="M 66.02 24.11 A 1.80 1.80 0 0 1 66.45 22.42" stroke="rgba(255,255,255,0.92)" stroke-width="1.0" fill="none"/>
  <path d="M 66.04 16.45 A 7.63 7.63 0 0 1 66.79 20.61" stroke="rgba(255,255,255,0.92)" stroke-width="1.0" fill="none"/>
  <path d="M 66.79 30.49 A 20.29 20.29 0 0 1 66.14 27.48" stroke="rgba(255,255,255,0.92)" stroke-width="1.0" fill="none"/>
  <path d="M 65.99 23.17 A 6.60 6.60 0 0 1 66.45 26.62" stroke="rgba(255,255,255,0.92)" stroke-width="1.0" fill="none"/>
  <path d="M 34.33 38.22 A 9.61 9.61 0 0 1 27.69 34.86" stroke="rgba(255,255,255,0.92)" stroke-width="1.0" fill="none"/>
  <path d="M 65.22 107.56 A 30.58 30.58 0 0 1 48.36 101.54" stroke="rgba(255,255,255,0.92)" stroke-width="1.0" fill="none"/>
  <path d="M 32.34 -23.94 A 28.87 28.87 0 0 1 41.90 -24.19" stroke="rgba(255,255,255,0.92)" stroke-width="1.0" fill="none"/>
  <path d="M 62.53 207.11 A 80.41 80.41 0 0 1 35.09 200.65" stroke="rgba(255,255,255,0.92)" stroke-width="1.0" fill="none"/>
  <path d="M 62.53 315.80 A 135.61 135.61 0 0 1 47.31 313.08" stroke="rgba(255,255,255,0.92)" stroke-width="1.0" fill="none"/>
  <path d="M 66.79 150.26 A 58.58 58.58 0 0 1 63.96 150.65" stroke="rgba(255,255,255,0.92)" stroke-width="1.0" fill="none"/>
  <path d="M 66.79 33.07 A 7.63 7.63 0 0 1 63.74 39.97" stroke="rgba(255,255,255,0.92)" stroke-width="1.0" fill="none"/>
  <path d="M 60.14 18.81 A 9.61 9.61 0 0 1 66.79 15.45" stroke="rgba(255,255,255,0.92)" stroke-width="1.0" fill="none"/>
  <path d="M 70.23 66.97 A 22.93 22.93 0 0 1 41.90 74.73" stroke="rgba(255,255,255,0.92)" stroke-width="1.0" fill="none"/>
  <path d="M 34.35 34.42 A 7.63 7.63 0 0 1 31.29 39.97" stroke="rgba(255,255,255,0.92)" stroke-width="1.0" fill="none"/>
  <path d="M 46.11 39.71 A 7.63 7.63 0 0 1 43.09 34.60" stroke="rgba(255,255,255,0.92)" stroke-width="1.0" fill="none"/>
  <path d="M 43.38 25.26 A 12.95 12.95 0 0 1 43.87 29.67" stroke="rgba(255,255,255,0.92)" stroke-width="1.0" fill="none"/>
  <path d="M 65.99 30.21 A 17.86 17.86 0 0 1 66.79 23.90" stroke="rgba(255,255,255,0.92)" stroke-width="1.0" fill="none"/>
  <path d="M 70.53 14.91 L 2.26 14.91" stroke="rgba(255,255,255,0.92)" stroke-width="1.0" fill="none"/>
  <path d="M 71.71 92.21 L 1.08 92.21" stroke="rgba(255,255,255,0.92)" stroke-width="1.0" fill="none"/>
  <path d="M 1.08 13.73 L 1.08 88.74" stroke="rgba(255,255,255,0.92)" stroke-width="1.0" fill="none"/>
  <path d="M 71.71 91.22 L 71.71 13.73" stroke="rgba(255,255,255,0.92)" stroke-width="1.0" fill="none"/>
  <path d="M 1.08 92.21 L 70.85 92.21" stroke="rgba(255,255,255,0.92)" stroke-width="1.0" fill="none"/>
  <path d="M 71.71 13.73 L 71.71 92.21" stroke="rgba(255,255,255,0.92)" stroke-width="1.0" fill="none"/>
  <path d="M 1.08 13.73 L 1.08 92.21" stroke="rgba(255,255,255,0.92)" stroke-width="1.0" fill="none"/>
  <path d="M 70.53 14.91 L 70.53 89.07" stroke="rgba(255,255,255,0.92)" stroke-width="1.0" fill="none"/>
  <path d="M 68.57 87.11 A 1.96 1.96 0 0 1 70.53 89.07" stroke="rgba(255,255,255,0.92)" stroke-width="1.0" fill="none"/>
  <path d="M 68.57 91.03 L 4.22 91.03" stroke="rgba(255,255,255,0.92)" stroke-width="1.0" fill="none"/>
  <path d="M 2.26 89.07 A 1.96 1.96 0 0 1 4.22 87.11" stroke="rgba(255,255,255,0.92)" stroke-width="1.0" fill="none"/>
  <path d="M 2.26 89.07 L 2.26 14.91" stroke="rgba(255,255,255,0.92)" stroke-width="1.0" fill="none"/>
  <path d="M 1.08 13.73 L 71.71 13.73" stroke="rgba(255,255,255,0.92)" stroke-width="1.0" fill="none"/>
  <path d="M 1.08 11.38 L 71.71 11.38" stroke="rgba(255,255,255,0.92)" stroke-width="1.0" fill="none"/>
  <path d="M 71.71 13.73 L 71.71 92.21" stroke="rgba(255,255,255,0.92)" stroke-width="1.0" fill="none"/>
  <path d="M 71.71 92.21 L 1.08 92.21" stroke="rgba(255,255,255,0.92)" stroke-width="1.0" fill="none"/>
  <path d="M 1.08 92.21 L 1.08 13.73" stroke="rgba(255,255,255,0.92)" stroke-width="1.0" fill="none"/>
  <path d="M 17.81 -51.30 A 60.87 60.87 0 0 1 35.42 -54.19" stroke="rgba(255,255,255,0.92)" stroke-width="1.0" fill="none"/>
  <path d="M 35.42 162.32 A 47.40 47.40 0 0 1 8.96 154.93" stroke="rgba(255,255,255,0.92)" stroke-width="1.0" fill="none"/>
  <path d="M 35.42 158.21 A 45.41 45.41 0 0 1 10.46 148.94" stroke="rgba(255,255,255,0.92)" stroke-width="1.0" fill="none"/>
  <path d="M 21.52 -82.36 A 75.87 75.87 0 0 1 45.24 -83.85" stroke="rgba(255,255,255,0.92)" stroke-width="1.0" fill="none"/>
  <path d="M 68.27 130.40 A 25.26 25.26 0 0 1 52.23 135.97" stroke="rgba(255,255,255,0.92)" stroke-width="1.0" fill="none"/>
  <path d="M 57.81 42.53 A 28.51 28.51 0 0 1 70.23 34.66" stroke="rgba(255,255,255,0.92)" stroke-width="1.0" fill="none"/>
  <path d="M 16.84 23.31 A 17.75 17.75 0 0 1 26.28 17.60" stroke="rgba(255,255,255,0.92)" stroke-width="1.0" fill="none"/>
  <path d="M 57.78 374.93 A 165.50 165.50 0 0 1 16.84 374.76" stroke="rgba(255,255,255,0.92)" stroke-width="1.0" fill="none"/>
  <path d="M 57.78 -34.69 A 40.74 40.74 0 0 1 71.57 -33.84" stroke="rgba(255,255,255,0.92)" stroke-width="1.0" fill="none"/>
  <path d="M 9.50 -1.55 A 28.84 28.84 0 0 1 21.11 -5.25" stroke="rgba(255,255,255,0.92)" stroke-width="1.0" fill="none"/>
  <path d="M 65.22 107.56 A 30.58 30.58 0 0 1 48.36 101.54" stroke="rgba(255,255,255,0.92)" stroke-width="1.0" fill="none"/>
  <path d="M 62.53 207.11 A 80.41 80.41 0 0 1 35.09 200.65" stroke="rgba(255,255,255,0.92)" stroke-width="1.0" fill="none"/>
  <path d="M 62.53 315.80 A 135.61 135.61 0 0 1 47.31 313.08" stroke="rgba(255,255,255,0.92)" stroke-width="1.0" fill="none"/>
  <path d="M 90.55 0.00 L 2.65 0.00" stroke="rgba(255,255,255,0.92)" stroke-width="1.0" fill="none"/>
  <path d="M 1.08 1.57 L 1.08 94.18" stroke="rgba(255,255,255,0.92)" stroke-width="1.0" fill="none"/>
  <path d="M 2.65 3.14 A 1.57 1.57 0 0 1 1.08 1.57" stroke="rgba(255,255,255,0.92)" stroke-width="1.0" fill="none"/>
  <path d="M 90.94 92.21 L 71.91 92.21" stroke="rgba(255,255,255,0.92)" stroke-width="1.0" fill="none"/>
  <path d="M 89.96 91.62 L 72.89 91.62" stroke="rgba(255,255,255,0.92)" stroke-width="1.0" fill="none"/>
  <path d="M 72.50 92.21 L 72.50 92.21" stroke="rgba(255,255,255,0.92)" stroke-width="1.0" fill="none"/>
  <path d="M 72.50 91.23 L 72.50 61.80" stroke="rgba(255,255,255,0.92)" stroke-width="1.0" fill="none"/>
  <path d="M 72.89 62.19 A 0.39 0.39 0 0 1 72.50 61.80" stroke="rgba(255,255,255,0.92)" stroke-width="1.0" fill="none"/>
  <path d="M 72.50 91.23 A 0.39 0.39 0 0 1 72.89 90.84" stroke="rgba(255,255,255,0.92)" stroke-width="1.0" fill="none"/>
  <path d="M 90.94 92.21 L 90.94 60.82" stroke="rgba(255,255,255,0.92)" stroke-width="1.0" fill="none"/>
  <path d="M 90.35 91.23 L 90.35 61.80" stroke="rgba(255,255,255,0.92)" stroke-width="1.0" fill="none"/>
  <path d="M 89.96 90.84 A 0.39 0.39 0 0 1 90.35 91.23" stroke="rgba(255,255,255,0.92)" stroke-width="1.0" fill="none"/>
  <path d="M 90.35 60.82 L 90.35 60.82" stroke="rgba(255,255,255,0.92)" stroke-width="1.0" fill="none"/>
  <path d="M 71.91 60.82 L 90.94 60.82" stroke="rgba(255,255,255,0.92)" stroke-width="1.0" fill="none"/>
  <path d="M 72.89 61.41 L 89.96 61.41" stroke="rgba(255,255,255,0.92)" stroke-width="1.0" fill="none"/>
  <path d="M 90.35 61.80 A 0.39 0.39 0 0 1 89.96 62.19" stroke="rgba(255,255,255,0.92)" stroke-width="1.0" fill="none"/>
  <path d="M 71.91 60.42 L 90.94 60.42" stroke="rgba(255,255,255,0.92)" stroke-width="1.0" fill="none"/>
  <path d="M 73.09 59.25 L 89.76 59.25" stroke="rgba(255,255,255,0.92)" stroke-width="1.0" fill="none"/>
  <path d="M 73.09 59.25 L 73.09 38.06" stroke="rgba(255,255,255,0.92)" stroke-width="1.0" fill="none"/>
  <path d="M 90.94 60.42 L 90.94 36.88" stroke="rgba(255,255,255,0.92)" stroke-width="1.0" fill="none"/>
  <path d="M 89.76 59.25 L 89.76 38.06" stroke="rgba(255,255,255,0.92)" stroke-width="1.0" fill="none"/>
  <path d="M 90.94 36.88 L 71.91 36.88" stroke="rgba(255,255,255,0.92)" stroke-width="1.0" fill="none"/>
  <path d="M 90.94 36.10 L 71.91 36.10" stroke="rgba(255,255,255,0.92)" stroke-width="1.0" fill="none"/>
  <path d="M 90.15 35.31 L 72.69 35.31" stroke="rgba(255,255,255,0.92)" stroke-width="1.0" fill="none"/>
  <path d="M 89.76 38.06 L 73.09 38.06" stroke="rgba(255,255,255,0.92)" stroke-width="1.0" fill="none"/>
  <path d="M 72.69 35.31 L 72.69 14.51" stroke="rgba(255,255,255,0.92)" stroke-width="1.0" fill="none"/>
  <path d="M 71.91 13.73 L 90.94 13.73" stroke="rgba(255,255,255,0.92)" stroke-width="1.0" fill="none"/>
  <path d="M 72.69 14.51 L 90.15 14.51" stroke="rgba(255,255,255,0.92)" stroke-width="1.0" fill="none"/>
  <path d="M 90.94 13.73 L 90.94 36.10" stroke="rgba(255,255,255,0.92)" stroke-width="1.0" fill="none"/>
  <path d="M 90.15 14.51 L 90.15 35.31" stroke="rgba(255,255,255,0.92)" stroke-width="1.0" fill="none"/>
  <path d="M 90.35 84.07 L 72.50 84.07" stroke="rgba(255,255,255,0.92)" stroke-width="1.0" fill="none"/>
  <path d="M 90.35 84.26 L 72.50 84.26" stroke="rgba(255,255,255,0.92)" stroke-width="1.0" fill="none"/>
  <path d="M 90.35 76.51 L 72.50 76.51" stroke="rgba(255,255,255,0.92)" stroke-width="1.0" fill="none"/>
  <path d="M 90.35 76.71 L 72.50 76.71" stroke="rgba(255,255,255,0.92)" stroke-width="1.0" fill="none"/>
  <path d="M 90.35 68.96 L 72.50 68.96" stroke="rgba(255,255,255,0.92)" stroke-width="1.0" fill="none"/>
  <path d="M 90.35 69.16 L 72.50 69.16" stroke="rgba(255,255,255,0.92)" stroke-width="1.0" fill="none"/>
  <path d="M 71.71 13.73 L 71.71 0.00" stroke="rgba(255,255,255,0.92)" stroke-width="1.0" fill="none"/>
  <path d="M 72.69 13.73 L 72.69 0.78" stroke="rgba(255,255,255,0.92)" stroke-width="1.0" fill="none"/>
  <path d="M 90.55 0.78 L 90.55 13.73" stroke="rgba(255,255,255,0.92)" stroke-width="1.0" fill="none"/>
  <path d="M 90.55 0.78 L 72.69 0.78" stroke="rgba(255,255,255,0.92)" stroke-width="1.0" fill="none"/>
  <path d="M 72.69 12.55 L 90.55 12.55" stroke="rgba(255,255,255,0.92)" stroke-width="1.0" fill="none"/>
  <path d="M 72.69 10.36 L 71.91 10.36" stroke="rgba(255,255,255,0.92)" stroke-width="1.0" fill="none"/>
  <path d="M 72.69 8.02 L 71.91 8.02" stroke="rgba(255,255,255,0.92)" stroke-width="1.0" fill="none"/>
  <path d="M 72.69 6.61 L 71.91 6.61" stroke="rgba(255,255,255,0.92)" stroke-width="1.0" fill="none"/>
  <path d="M 72.69 11.20 L 71.91 11.20" stroke="rgba(255,255,255,0.92)" stroke-width="1.0" fill="none"/>
  <path d="M 72.69 11.78 L 71.91 11.78" stroke="rgba(255,255,255,0.92)" stroke-width="1.0" fill="none"/>
  <path d="M 72.69 12.10 L 71.91 12.10" stroke="rgba(255,255,255,0.92)" stroke-width="1.0" fill="none"/>
  <path d="M 91.33 10.36 L 90.55 10.36" stroke="rgba(255,255,255,0.92)" stroke-width="1.0" fill="none"/>
  <path d="M 91.33 8.02 L 90.55 8.02" stroke="rgba(255,255,255,0.92)" stroke-width="1.0" fill="none"/>
  <path d="M 91.33 6.61 L 90.55 6.61" stroke="rgba(255,255,255,0.92)" stroke-width="1.0" fill="none"/>
  <path d="M 91.33 11.20 L 90.55 11.20" stroke="rgba(255,255,255,0.92)" stroke-width="1.0" fill="none"/>
  <path d="M 91.33 11.78 L 90.55 11.78" stroke="rgba(255,255,255,0.92)" stroke-width="1.0" fill="none"/>
  <path d="M 91.33 12.10 L 90.55 12.10" stroke="rgba(255,255,255,0.92)" stroke-width="1.0" fill="none"/>
  <path d="M 71.91 36.88 L 71.71 36.88" stroke="rgba(255,255,255,0.92)" stroke-width="1.0" fill="none"/>
  <path d="M 71.91 36.10 L 71.71 36.10" stroke="rgba(255,255,255,0.92)" stroke-width="1.0" fill="none"/>
  <path d="M 71.91 60.42 L 71.71 60.42" stroke="rgba(255,255,255,0.92)" stroke-width="1.0" fill="none"/>
  <path d="M 71.91 60.82 L 71.71 60.82" stroke="rgba(255,255,255,0.92)" stroke-width="1.0" fill="none"/>
  <path d="M 71.91 92.21 L 71.71 92.21" stroke="rgba(255,255,255,0.92)" stroke-width="1.0" fill="none"/>
  <path d="M 71.91 13.73 L 71.71 13.73" stroke="rgba(255,255,255,0.92)" stroke-width="1.0" fill="none"/>
  <path d="M 71.91 12.10 L 71.71 12.10" stroke="rgba(255,255,255,0.92)" stroke-width="1.0" fill="none"/>
  <path d="M 71.91 11.78 L 71.71 11.78" stroke="rgba(255,255,255,0.92)" stroke-width="1.0" fill="none"/>
  <path d="M 71.91 11.20 L 71.71 11.20" stroke="rgba(255,255,255,0.92)" stroke-width="1.0" fill="none"/>
  <path d="M 71.91 10.36 L 71.71 10.36" stroke="rgba(255,255,255,0.92)" stroke-width="1.0" fill="none"/>
  <path d="M 71.91 8.02 L 71.71 8.02" stroke="rgba(255,255,255,0.92)" stroke-width="1.0" fill="none"/>
  <path d="M 71.91 6.61 L 71.71 6.61" stroke="rgba(255,255,255,0.92)" stroke-width="1.0" fill="none"/>
  <path d="M 91.33 0.78 L 91.33 94.30" stroke="rgba(255,255,255,0.92)" stroke-width="1.0" fill="none"/>
  <path d="M 91.33 0.78 A 0.78 0.78 0 0 1 90.55 1.57" stroke="rgba(255,255,255,0.92)" stroke-width="1.0" fill="none"/>
  <path d="M 1.08 94.18 L 1.08 96.14" stroke="rgba(255,255,255,0.92)" stroke-width="1.0" fill="none"/>
  <path d="M 1.08 96.14 L 91.33 96.14" stroke="rgba(255,255,255,0.92)" stroke-width="1.0" fill="none"/>
  <path d="M 91.33 96.14 L 91.33 94.30" stroke="rgba(255,255,255,0.92)" stroke-width="1.0" fill="none"/>
  <path d="M 18.71 13.73 L 18.71 1.57" stroke="rgba(255,255,255,0.92)" stroke-width="1.0" fill="none"/>
  <path d="M 19.10 13.73 L 19.10 1.57" stroke="rgba(255,255,255,0.92)" stroke-width="1.0" fill="none"/>
  <path d="M 20.14 13.38 A 1.81 1.81 0 0 1 19.11 13.02" stroke="rgba(255,255,255,0.92)" stroke-width="1.0" fill="none"/>
  <path d="M 18.60 11.85 A 0.97 0.97 0 0 1 17.84 12.05" stroke="rgba(255,255,255,0.92)" stroke-width="1.0" fill="none"/>
  <path d="M 18.68 13.93 A 1.39 1.39 0 0 1 17.94 14.55" stroke="rgba(255,255,255,0.92)" stroke-width="1.0" fill="none"/>
  <path d="M 19.97 27.29 A 7.12 7.12 0 0 1 19.10 27.20" stroke="rgba(255,255,255,0.92)" stroke-width="1.0" fill="none"/>
  <path d="M 20.26 15.96 A 1.82 1.82 0 0 1 19.10 15.20" stroke="rgba(255,255,255,0.92)" stroke-width="1.0" fill="none"/>
  <path d="M 18.71 12.81 A 0.50 0.50 0 0 1 17.91 13.15" stroke="rgba(255,255,255,0.92)" stroke-width="1.0" fill="none"/>
  <path d="M 18.64 11.36 A 1.14 1.14 0 0 1 17.93 11.94" stroke="rgba(255,255,255,0.92)" stroke-width="1.0" fill="none"/>
  <path d="M 19.80 20.42 A 6.33 6.33 0 0 1 19.04 20.22" stroke="rgba(255,255,255,0.92)" stroke-width="1.0" fill="none"/>
  <path d="M 19.64 9.93 A 1.09 1.09 0 0 1 19.05 9.57" stroke="rgba(255,255,255,0.92)" stroke-width="1.0" fill="none"/>
  <path d="M 18.76 8.10 A 1.09 1.09 0 0 1 18.17 8.45" stroke="rgba(255,255,255,0.92)" stroke-width="1.0" fill="none"/>
  <path d="M 36.37 13.73 L 36.37 1.57" stroke="rgba(255,255,255,0.92)" stroke-width="1.0" fill="none"/>
  <path d="M 36.76 13.73 L 36.76 1.57" stroke="rgba(255,255,255,0.92)" stroke-width="1.0" fill="none"/>
  <path d="M 37.80 13.38 A 1.81 1.81 0 0 1 36.77 13.02" stroke="rgba(255,255,255,0.92)" stroke-width="1.0" fill="none"/>
  <path d="M 36.26 11.85 A 0.97 0.97 0 0 1 35.50 12.05" stroke="rgba(255,255,255,0.92)" stroke-width="1.0" fill="none"/>
  <path d="M 36.33 13.93 A 1.39 1.39 0 0 1 35.59 14.55" stroke="rgba(255,255,255,0.92)" stroke-width="1.0" fill="none"/>
  <path d="M 37.62 27.29 A 7.12 7.12 0 0 1 36.76 27.20" stroke="rgba(255,255,255,0.92)" stroke-width="1.0" fill="none"/>
  <path d="M 37.91 15.96 A 1.82 1.82 0 0 1 36.76 15.20" stroke="rgba(255,255,255,0.92)" stroke-width="1.0" fill="none"/>
  <path d="M 36.37 12.81 A 0.50 0.50 0 0 1 35.57 13.15" stroke="rgba(255,255,255,0.92)" stroke-width="1.0" fill="none"/>
  <path d="M 36.30 11.36 A 1.14 1.14 0 0 1 35.58 11.94" stroke="rgba(255,255,255,0.92)" stroke-width="1.0" fill="none"/>
  <path d="M 37.46 20.42 A 6.33 6.33 0 0 1 36.70 20.22" stroke="rgba(255,255,255,0.92)" stroke-width="1.0" fill="none"/>
  <path d="M 37.30 9.93 A 1.09 1.09 0 0 1 36.71 9.57" stroke="rgba(255,255,255,0.92)" stroke-width="1.0" fill="none"/>
  <path d="M 36.42 8.10 A 1.09 1.09 0 0 1 35.83 8.45" stroke="rgba(255,255,255,0.92)" stroke-width="1.0" fill="none"/>
  <path d="M 54.03 13.73 L 54.03 1.57" stroke="rgba(255,255,255,0.92)" stroke-width="1.0" fill="none"/>
  <path d="M 54.42 13.73 L 54.42 1.57" stroke="rgba(255,255,255,0.92)" stroke-width="1.0" fill="none"/>
  <path d="M 55.46 13.38 A 1.81 1.81 0 0 1 54.43 13.02" stroke="rgba(255,255,255,0.92)" stroke-width="1.0" fill="none"/>
  <path d="M 53.91 11.85 A 0.97 0.97 0 0 1 53.15 12.05" stroke="rgba(255,255,255,0.92)" stroke-width="1.0" fill="none"/>
  <path d="M 53.99 13.93 A 1.39 1.39 0 0 1 53.25 14.55" stroke="rgba(255,255,255,0.92)" stroke-width="1.0" fill="none"/>
  <path d="M 55.28 27.29 A 7.12 7.12 0 0 1 54.42 27.20" stroke="rgba(255,255,255,0.92)" stroke-width="1.0" fill="none"/>
  <path d="M 55.57 15.96 A 1.82 1.82 0 0 1 54.42 15.20" stroke="rgba(255,255,255,0.92)" stroke-width="1.0" fill="none"/>
  <path d="M 54.03 12.81 A 0.50 0.50 0 0 1 53.22 13.15" stroke="rgba(255,255,255,0.92)" stroke-width="1.0" fill="none"/>
  <path d="M 53.96 11.36 A 1.14 1.14 0 0 1 53.24 11.94" stroke="rgba(255,255,255,0.92)" stroke-width="1.0" fill="none"/>
  <path d="M 55.11 20.42 A 6.33 6.33 0 0 1 54.35 20.22" stroke="rgba(255,255,255,0.92)" stroke-width="1.0" fill="none"/>
  <path d="M 54.95 9.93 A 1.09 1.09 0 0 1 54.37 9.57" stroke="rgba(255,255,255,0.92)" stroke-width="1.0" fill="none"/>
  <path d="M 54.08 8.10 A 1.09 1.09 0 0 1 53.49 8.45" stroke="rgba(255,255,255,0.92)" stroke-width="1.0" fill="none"/>
  <path d="M 18.74 92.21 L 18.74 96.14" stroke="rgba(255,255,255,0.92)" stroke-width="1.0" fill="none"/>
  <path d="M 18.54 92.21 L 18.54 96.14" stroke="rgba(255,255,255,0.92)" stroke-width="1.0" fill="none"/>
  <path d="M 36.40 92.21 L 36.40 96.14" stroke="rgba(255,255,255,0.92)" stroke-width="1.0" fill="none"/>
  <path d="M 36.20 92.21 L 36.20 96.14" stroke="rgba(255,255,255,0.92)" stroke-width="1.0" fill="none"/>
  <path d="M 54.05 92.21 L 54.05 96.14" stroke="rgba(255,255,255,0.92)" stroke-width="1.0" fill="none"/>
  <path d="M 53.86 92.21 L 53.86 96.14" stroke="rgba(255,255,255,0.92)" stroke-width="1.0" fill="none"/>
  <path d="M 71.71 96.14 L 71.71 0.00" stroke="rgba(255,255,255,0.92)" stroke-width="1.0" fill="none"/>
  <path d="M 71.71 92.21 L 71.71 96.14" stroke="rgba(255,255,255,0.92)" stroke-width="1.0" fill="none"/>
  <path d="M 71.52 92.21 L 71.52 96.14" stroke="rgba(255,255,255,0.92)" stroke-width="1.0" fill="none"/>
  <path d="M 18.71 1.57 L 18.71 0.00" stroke="rgba(255,255,255,0.92)" stroke-width="1.0" fill="none"/>
  <path d="M 19.10 1.57 L 19.10 0.00" stroke="rgba(255,255,255,0.92)" stroke-width="1.0" fill="none"/>
  <path d="M 36.37 1.57 L 36.37 0.00" stroke="rgba(255,255,255,0.92)" stroke-width="1.0" fill="none"/>
  <path d="M 36.76 1.57 L 36.76 0.00" stroke="rgba(255,255,255,0.92)" stroke-width="1.0" fill="none"/>
  <path d="M 54.03 1.57 L 54.03 0.00" stroke="rgba(255,255,255,0.92)" stroke-width="1.0" fill="none"/>
  <path d="M 54.42 1.57 L 54.42 0.00" stroke="rgba(255,255,255,0.92)" stroke-width="1.0" fill="none"/>
  <path d="M 54.42 0.00 L 54.42 0.00" stroke="rgba(255,255,255,0.92)" stroke-width="1.0" fill="none"/>
  <path d="M 54.42 0.00 L 54.42 0.00" stroke="rgba(255,255,255,0.92)" stroke-width="1.0" fill="none"/>
  <path d="M 74.92 20.92 L 88.31 20.92" stroke="rgba(255,255,255,0.92)" stroke-width="1.0" fill="none"/>
  <path d="M 74.92 20.72 L 88.31 20.72" stroke="rgba(255,255,255,0.92)" stroke-width="1.0" fill="none"/>
  <path d="M 88.31 20.92 L 88.31 30.49" stroke="rgba(255,255,255,0.92)" stroke-width="1.0" fill="none"/>
  <path d="M 88.31 30.49 L 74.92 30.49" stroke="rgba(255,255,255,0.92)" stroke-width="1.0" fill="none"/>
  <path d="M 74.92 30.49 L 74.92 20.92" stroke="rgba(255,255,255,0.92)" stroke-width="1.0" fill="none"/>
  <circle cx="81.62" cy="25.70" r="1.96" stroke="rgba(255,255,255,0.92)" stroke-width="1.0" fill="none"/>
  <circle cx="81.62" cy="25.70" r="1.18" stroke="rgba(255,255,255,0.92)" stroke-width="1.0" fill="none"/>
  <circle cx="81.62" cy="25.70" r="1.29" stroke="rgba(255,255,255,0.92)" stroke-width="1.0" fill="none"/>
  <path d="M 74.92 20.72 L 74.92 20.92" stroke="rgba(255,255,255,0.92)" stroke-width="1.0" fill="none"/>
  <path d="M 88.31 20.92 L 88.31 20.72" stroke="rgba(255,255,255,0.92)" stroke-width="1.0" fill="none"/>
  <path d="M 1.04 33.92 L 91.29 33.92" stroke="rgba(255,255,255,0.92)" stroke-width="1.0" fill="none"/>
  <path d="M 2.61 2.53 L 89.72 2.53" stroke="rgba(255,255,255,0.92)" stroke-width="1.0" fill="none"/>
  <path d="M 1.04 24.11 L 91.29 24.11" stroke="rgba(255,255,255,0.92)" stroke-width="1.0" fill="none"/>
  <path d="M 3.00 23.91 L 70.18 23.91" stroke="rgba(255,255,255,0.92)" stroke-width="1.0" fill="none"/>
  <path d="M 2.61 16.26 L 69.60 16.26" stroke="rgba(255,255,255,0.92)" stroke-width="1.0" fill="none"/>
  <path d="M 1.04 24.11 L 1.04 33.92" stroke="rgba(255,255,255,0.92)" stroke-width="1.0" fill="none"/>
  <path d="M 91.29 24.11 L 91.29 33.92" stroke="rgba(255,255,255,0.92)" stroke-width="1.0" fill="none"/>
  <path d="M 18.70 33.92 L 18.70 24.11" stroke="rgba(255,255,255,0.92)" stroke-width="1.0" fill="none"/>
  <path d="M 18.90 33.92 L 18.90 24.11" stroke="rgba(255,255,255,0.92)" stroke-width="1.0" fill="none"/>
  <path d="M 36.36 33.92 L 36.36 24.11" stroke="rgba(255,255,255,0.92)" stroke-width="1.0" fill="none"/>
  <path d="M 36.55 33.92 L 36.55 24.11" stroke="rgba(255,255,255,0.92)" stroke-width="1.0" fill="none"/>
  <path d="M 54.02 33.92 L 54.02 24.11" stroke="rgba(255,255,255,0.92)" stroke-width="1.0" fill="none"/>
  <path d="M 54.21 33.92 L 54.21 24.11" stroke="rgba(255,255,255,0.92)" stroke-width="1.0" fill="none"/>
  <path d="M 71.67 33.92 L 71.67 24.11" stroke="rgba(255,255,255,0.92)" stroke-width="1.0" fill="none"/>
  <path d="M 71.87 33.92 L 71.87 24.11" stroke="rgba(255,255,255,0.92)" stroke-width="1.0" fill="none"/>
  <path d="M 2.61 26.58 A 7.46 7.46 0 0 1 1.04 18.73" stroke="rgba(255,255,255,0.92)" stroke-width="1.0" fill="none"/>
  <path d="M 71.17 18.73 A 7.46 7.46 0 0 1 69.60 26.58" stroke="rgba(255,255,255,0.92)" stroke-width="1.0" fill="none"/>
  <path d="M 2.99 22.58 A 10.93 10.93 0 0 1 1.49 28.91" stroke="rgba(255,255,255,0.92)" stroke-width="1.0" fill="none"/>
  <path d="M 70.86 28.28 A 10.93 10.93 0 0 1 69.62 22.41" stroke="rgba(255,255,255,0.92)" stroke-width="1.0" fill="none"/>
  <path d="M 91.29 17.10 A 10.93 10.93 0 0 1 91.30 17.09" stroke="rgba(255,255,255,0.92)" stroke-width="1.0" fill="none"/>
  <path d="M 71.67 18.22 L 91.29 18.22" stroke="rgba(255,255,255,0.92)" stroke-width="1.0" fill="none"/>
  <path d="M 71.67 17.44 L 91.29 17.44" stroke="rgba(255,255,255,0.92)" stroke-width="1.0" fill="none"/>
  <path d="M 71.67 16.26 L 91.29 16.26" stroke="rgba(255,255,255,0.92)" stroke-width="1.0" fill="none"/>
  <path d="M 72.46 8.41 L 90.51 8.41" stroke="rgba(255,255,255,0.92)" stroke-width="1.0" fill="none"/>
  <path d="M 72.46 9.20 L 90.51 9.20" stroke="rgba(255,255,255,0.92)" stroke-width="1.0" fill="none"/>
  <path d="M 71.67 17.44 L 71.67 24.11" stroke="rgba(255,255,255,0.92)" stroke-width="1.0" fill="none"/>
  <path d="M 91.29 17.44 L 91.29 24.11" stroke="rgba(255,255,255,0.92)" stroke-width="1.0" fill="none"/>
  <path d="M 1.04 4.10 L 1.05 18.70" stroke="rgba(255,255,255,0.92)" stroke-width="1.0" fill="none"/>
  <path d="M 2.61 5.67 A 1.57 1.57 0 0 1 1.04 4.10" stroke="rgba(255,255,255,0.92)" stroke-width="1.0" fill="none"/>
  <path d="M 91.29 4.10 L 91.29 17.44" stroke="rgba(255,255,255,0.92)" stroke-width="1.0" fill="none"/>
  <path d="M 91.29 4.10 A 1.57 1.57 0 0 1 89.72 5.67" stroke="rgba(255,255,255,0.92)" stroke-width="1.0" fill="none"/>
  <path d="M 90.51 2.74 L 90.51 16.26" stroke="rgba(255,255,255,0.92)" stroke-width="1.0" fill="none"/>
  <path d="M 19.08 16.26 L 19.08 15.96" stroke="rgba(255,255,255,0.92)" stroke-width="1.0" fill="none"/>
  <path d="M 19.08 7.69 L 19.08 2.53" stroke="rgba(255,255,255,0.92)" stroke-width="1.0" fill="none"/>
  <path d="M 18.74 16.26 L 18.74 15.95" stroke="rgba(255,255,255,0.92)" stroke-width="1.0" fill="none"/>
  <path d="M 18.74 7.66 L 18.74 2.53" stroke="rgba(255,255,255,0.92)" stroke-width="1.0" fill="none"/>
  <path d="M 37.77 15.92 A 1.81 1.81 0 0 1 36.74 15.55" stroke="rgba(255,255,255,0.92)" stroke-width="1.0" fill="none"/>
  <path d="M 36.23 14.39 A 0.97 0.97 0 0 1 35.47 14.58" stroke="rgba(255,255,255,0.92)" stroke-width="1.0" fill="none"/>
  <path d="M 36.30 16.46 A 1.39 1.39 0 0 1 35.56 17.09" stroke="rgba(255,255,255,0.92)" stroke-width="1.0" fill="none"/>
  <path d="M 37.59 29.82 A 7.12 7.12 0 0 1 36.73 29.73" stroke="rgba(255,255,255,0.92)" stroke-width="1.0" fill="none"/>
  <path d="M 37.88 18.49 A 1.82 1.82 0 0 1 36.73 17.73" stroke="rgba(255,255,255,0.92)" stroke-width="1.0" fill="none"/>
  <path d="M 36.34 15.35 A 0.50 0.50 0 0 1 35.53 15.68" stroke="rgba(255,255,255,0.92)" stroke-width="1.0" fill="none"/>
  <path d="M 36.27 13.90 A 1.14 1.14 0 0 1 35.55 14.47" stroke="rgba(255,255,255,0.92)" stroke-width="1.0" fill="none"/>
  <path d="M 37.43 22.96 A 6.33 6.33 0 0 1 36.66 22.76" stroke="rgba(255,255,255,0.92)" stroke-width="1.0" fill="none"/>
  <path d="M 37.26 12.46 A 1.09 1.09 0 0 1 36.68 12.10" stroke="rgba(255,255,255,0.92)" stroke-width="1.0" fill="none"/>
  <path d="M 36.39 10.64 A 1.09 1.09 0 0 1 35.80 10.99" stroke="rgba(255,255,255,0.92)" stroke-width="1.0" fill="none"/>
  <path d="M 36.72 16.26 L 36.72 2.53" stroke="rgba(255,255,255,0.92)" stroke-width="1.0" fill="none"/>
  <path d="M 36.38 16.26 L 36.38 2.53" stroke="rgba(255,255,255,0.92)" stroke-width="1.0" fill="none"/>
  <path d="M 54.36 16.26 L 54.36 15.89" stroke="rgba(255,255,255,0.92)" stroke-width="1.0" fill="none"/>
  <path d="M 54.36 7.24 L 54.36 2.53" stroke="rgba(255,255,255,0.92)" stroke-width="1.0" fill="none"/>
  <path d="M 54.02 16.26 L 54.02 15.89" stroke="rgba(255,255,255,0.92)" stroke-width="1.0" fill="none"/>
  <path d="M 54.02 7.25 L 54.02 2.53" stroke="rgba(255,255,255,0.92)" stroke-width="1.0" fill="none"/>
  <path d="M 71.67 16.26 L 71.67 17.44" stroke="rgba(255,255,255,0.92)" stroke-width="1.0" fill="none"/>
  <path d="M 71.67 16.26 L 71.67 2.53" stroke="rgba(255,255,255,0.92)" stroke-width="1.0" fill="none"/>
  <path d="M 72.46 16.26 L 72.46 2.53" stroke="rgba(255,255,255,0.92)" stroke-width="1.0" fill="none"/>
  <path d="M 75.61 16.23 L 84.81 16.23 L 84.79 15.23 L 75.59 15.23 Z" stroke="rgba(255,255,255,0.92)" stroke-width="1.0" fill="none"/>
  <path d="M 76.84 15.23 L 85.91 15.23 L 85.91 14.04 L 76.84 14.04 Z" stroke="rgba(255,255,255,0.92)" stroke-width="1.0" fill="none"/>
  <path d="M 87.54 35.40 L 87.54 35.50 L 87.54 35.60 Z" stroke="rgba(255,255,255,0.92)" stroke-width="1.0" fill="none"/>
  <path d="M 87.54 35.40 L 87.54 35.50 L 87.54 35.60 Z" stroke="rgba(255,255,255,0.92)" stroke-width="1.0" fill="none"/>
  <path d="M 89.37 35.40 L 89.37 33.92" stroke="rgba(255,255,255,0.92)" stroke-width="1.0" fill="none"/>
  <path d="M 87.80 35.40 L 87.80 33.92" stroke="rgba(255,255,255,0.92)" stroke-width="1.0" fill="none"/>
  <path d="M 89.37 35.21 L 89.34 35.21 L 89.32 35.20 L 89.29 35.19 L 89.26 35.19 L 89.23 35.18 L 89.20 35.17 L 89.17 35.17 L 89.14 35.16 L 89.11 35.16 L 89.08 35.15 L 89.05 35.15 L 89.01 35.14 L 88.98 35.14 L 88.95 35.13 L 88.91 35.13 L 88.88 35.13 L 88.84 35.12 L 88.80 35.12 L 88.77 35.12 L 88.73 35.12 L 88.69 35.12 L 88.66 35.12 L 88.62 35.12 L 88.58 35.12 L 88.55 35.12 L 88.51 35.12 L 88.47 35.12 L 88.44 35.12 L 88.40 35.12 L 88.36 35.12 L 88.33 35.12 L 88.29 35.13 L 88.26 35.13 L 88.22 35.13 L 88.19 35.14 L 88.15 35.14 L 88.12 35.15 L 88.09 35.15 L 88.05 35.16 L 88.02 35.16 L 87.99 35.17 L 87.96 35.17 L 87.93 35.18 L 87.90 35.19 L 87.88 35.19 L 87.85 35.20 L 87.82 35.21 L 87.80 35.21" stroke="rgba(255,255,255,0.92)" stroke-width="1.0" fill="none"/>
  <path d="M 87.80 30.67 A 2.50 2.50 0 0 1 89.37 30.67" stroke="rgba(255,255,255,0.92)" stroke-width="1.0" fill="none"/>
  <path d="M 89.63 35.40 L 89.63 35.60" stroke="rgba(255,255,255,0.92)" stroke-width="1.0" fill="none"/>
  <path d="M 87.54 35.40 L 87.54 35.60" stroke="rgba(255,255,255,0.92)" stroke-width="1.0" fill="none"/>
  <path d="M 89.63 35.60 L 89.62 35.58 L 89.62 35.56 L 89.61 35.54 L 89.59 35.53 L 89.57 35.51 L 89.55 35.49 L 89.52 35.47 L 89.49 35.46 L 89.45 35.44 L 89.41 35.42 L 89.37 35.41 L 89.32 35.40 L 89.27 35.38 L 89.22 35.37 L 89.16 35.36 L 89.10 35.35 L 89.04 35.34 L 88.98 35.33 L 88.92 35.33 L 88.85 35.32 L 88.79 35.32 L 88.72 35.31 L 88.65 35.31 L 88.58 35.31 L 88.51 35.31 L 88.45 35.31 L 88.38 35.32 L 88.31 35.32 L 88.25 35.33 L 88.18 35.33 L 88.12 35.34 L 88.06 35.35 L 88.00 35.36 L 87.95 35.37 L 87.90 35.38 L 87.85 35.40 L 87.80 35.41 L 87.76 35.42 L 87.72 35.44 L 87.68 35.46 L 87.65 35.47 L 87.62 35.49 L 87.60 35.51 L 87.58 35.53 L 87.56 35.54 L 87.55 35.56 L 87.54 35.58 L 87.54 35.60" stroke="rgba(255,255,255,0.92)" stroke-width="1.0" fill="none"/>
  <path d="M 2.75 35.40 L 2.75 35.50 L 2.75 35.60 Z" stroke="rgba(255,255,255,0.92)" stroke-width="1.0" fill="none"/>
  <path d="M 2.75 35.40 L 2.75 35.50 L 2.75 35.60 Z" stroke="rgba(255,255,255,0.92)" stroke-width="1.0" fill="none"/>
  <path d="M 4.58 35.40 L 4.58 33.92" stroke="rgba(255,255,255,0.92)" stroke-width="1.0" fill="none"/>
  <path d="M 3.01 35.40 L 3.01 33.92" stroke="rgba(255,255,255,0.92)" stroke-width="1.0" fill="none"/>
  <path d="M 4.58 35.21 L 4.55 35.21 L 4.53 35.20 L 4.50 35.19 L 4.47 35.19 L 4.44 35.18 L 4.41 35.17 L 4.38 35.17 L 4.35 35.16 L 4.32 35.16 L 4.29 35.15 L 4.26 35.15 L 4.22 35.14 L 4.19 35.14 L 4.15 35.13 L 4.12 35.13 L 4.08 35.13 L 4.05 35.12 L 4.01 35.12 L 3.98 35.12 L 3.94 35.12 L 3.90 35.12 L 3.87 35.12 L 3.83 35.12 L 3.79 35.12 L 3.75 35.12 L 3.72 35.12 L 3.68 35.12 L 3.64 35.12 L 3.61 35.12 L 3.57 35.12 L 3.53 35.12 L 3.50 35.13 L 3.46 35.13 L 3.43 35.13 L 3.39 35.14 L 3.36 35.14 L 3.33 35.15 L 3.29 35.15 L 3.26 35.16 L 3.23 35.16 L 3.20 35.17 L 3.17 35.17 L 3.14 35.18 L 3.11 35.19 L 3.08 35.19 L 3.06 35.20 L 3.03 35.21 L 3.01 35.21" stroke="rgba(255,255,255,0.92)" stroke-width="1.0" fill="none"/>
  <path d="M 3.01 30.67 A 2.50 2.50 0 0 1 4.58 30.67" stroke="rgba(255,255,255,0.92)" stroke-width="1.0" fill="none"/>
  <path d="M 4.83 35.40 L 4.83 35.60" stroke="rgba(255,255,255,0.92)" stroke-width="1.0" fill="none"/>
  <path d="M 2.75 35.40 L 2.75 35.60" stroke="rgba(255,255,255,0.92)" stroke-width="1.0" fill="none"/>
  <path d="M 4.83 35.60 L 4.83 35.58 L 4.83 35.56 L 4.81 35.54 L 4.80 35.53 L 4.78 35.51 L 4.75 35.49 L 4.73 35.47 L 4.69 35.46 L 4.66 35.44 L 4.62 35.42 L 4.58 35.41 L 4.53 35.40 L 4.48 35.38 L 4.43 35.37 L 4.37 35.36 L 4.31 35.35 L 4.25 35.34 L 4.19 35.33 L 4.13 35.33 L 4.06 35.32 L 3.99 35.32 L 3.93 35.31 L 3.86 35.31 L 3.79 35.31 L 3.72 35.31 L 3.66 35.31 L 3.59 35.32 L 3.52 35.32 L 3.46 35.33 L 3.39 35.33 L 3.33 35.34 L 3.27 35.35 L 3.21 35.36 L 3.16 35.37 L 3.10 35.38 L 3.05 35.40 L 3.01 35.41 L 2.96 35.42 L 2.92 35.44 L 2.89 35.46 L 2.86 35.47 L 2.83 35.49 L 2.80 35.51 L 2.78 35.53 L 2.77 35.54 L 2.76 35.56 L 2.75 35.58 L 2.75 35.60" stroke="rgba(255,255,255,0.92)" stroke-width="1.0" fill="none"/>
  <path d="M 3.86 58.57 L 100.00 58.57" stroke="rgba(255,255,255,0.92)" stroke-width="1.0" fill="none"/>
  <path d="M 3.86 48.76 L 37.61 48.76" stroke="rgba(255,255,255,0.92)" stroke-width="1.0" fill="none"/>
  <path d="M 37.61 45.62 A 1.57 1.57 0 0 1 39.18 47.19" stroke="rgba(255,255,255,0.92)" stroke-width="1.0" fill="none"/>
  <path d="M 100.00 58.57 L 100.00 27.18" stroke="rgba(255,255,255,0.92)" stroke-width="1.0" fill="none"/>
  <path d="M 100.00 27.18 L 100.00 27.18" stroke="rgba(255,255,255,0.92)" stroke-width="1.0" fill="none"/>
  <path d="M 7.79 49.42 A 4.02 4.02 0 0 1 7.07 43.53" stroke="rgba(255,255,255,0.92)" stroke-width="1.0" fill="none"/>
  <path d="M 8.09 43.33 A 4.76 4.76 0 0 1 7.79 48.52" stroke="rgba(255,255,255,0.92)" stroke-width="1.0" fill="none"/>
  <path d="M 3.86 58.57 A 5.65 5.65 0 0 1 3.86 48.76" stroke="rgba(255,255,255,0.92)" stroke-width="1.0" fill="none"/>
  <path d="M 7.79 42.87 L 39.18 42.87" stroke="rgba(255,255,255,0.92)" stroke-width="1.0" fill="none"/>
  <path d="M 39.18 42.87 L 39.18 47.19" stroke="rgba(255,255,255,0.92)" stroke-width="1.0" fill="none"/>
  <path d="M 39.18 42.87 L 39.18 42.87" stroke="rgba(255,255,255,0.92)" stroke-width="1.0" fill="none"/>
  <path d="M 39.96 43.66 A 0.78 0.78 0 0 1 39.18 42.87" stroke="rgba(255,255,255,0.92)" stroke-width="1.0" fill="none"/>
  <path d="M 39.96 42.09 L 62.72 42.09" stroke="rgba(255,255,255,0.92)" stroke-width="1.0" fill="none"/>
  <path d="M 62.72 42.09 L 62.72 41.70" stroke="rgba(255,255,255,0.92)" stroke-width="1.0" fill="none"/>
  <path d="M 63.51 42.48 A 0.78 0.78 0 0 1 62.72 41.70" stroke="rgba(255,255,255,0.92)" stroke-width="1.0" fill="none"/>
  <path d="M 63.51 40.91 L 86.27 40.91" stroke="rgba(255,255,255,0.92)" stroke-width="1.0" fill="none"/>
  <path d="M 39.18 48.52 A 4.76 4.76 0 0 1 38.88 43.33" stroke="rgba(255,255,255,0.92)" stroke-width="1.0" fill="none"/>
  <path d="M 62.72 42.09 L 86.27 42.09" stroke="rgba(255,255,255,0.92)" stroke-width="1.0" fill="none"/>
  <path d="M 100.00 36.93 A 5.03 5.03 0 0 1 93.92 33.45" stroke="rgba(255,255,255,0.92)" stroke-width="1.0" fill="none"/>
  <path d="M 99.90 36.55 A 4.64 4.64 0 0 1 94.29 33.34" stroke="rgba(255,255,255,0.92)" stroke-width="1.0" fill="none"/>
  <path d="M 93.92 30.66 L 91.46 39.21" stroke="rgba(255,255,255,0.92)" stroke-width="1.0" fill="none"/>
  <path d="M 94.29 30.77 L 91.53 40.38" stroke="rgba(255,255,255,0.92)" stroke-width="1.0" fill="none"/>
  <path d="M 86.27 40.91 L 89.20 40.91" stroke="rgba(255,255,255,0.92)" stroke-width="1.0" fill="none"/>
  <path d="M 89.20 36.20 A 2.35 2.35 0 0 1 91.46 37.90" stroke="rgba(255,255,255,0.92)" stroke-width="1.0" fill="none"/>
  <path d="M 86.27 42.09 L 89.27 42.09" stroke="rgba(255,255,255,0.92)" stroke-width="1.0" fill="none"/>
  <path d="M 89.27 37.38 A 2.35 2.35 0 0 1 91.53 39.08" stroke="rgba(255,255,255,0.92)" stroke-width="1.0" fill="none"/>
  <path d="M 85.91 21.94 A 9.59 9.59 0 0 1 93.09 33.24" stroke="rgba(255,255,255,0.92)" stroke-width="1.0" fill="none"/>
  <path d="M 90.55 59.37 A 18.97 18.97 0 0 1 86.66 54.33" stroke="rgba(255,255,255,0.92)" stroke-width="1.0" fill="none"/>
  <path d="M 92.65 39.13 A 4.99 4.99 0 0 1 89.50 36.41" stroke="rgba(255,255,255,0.92)" stroke-width="1.0" fill="none"/>
  <path d="M 93.03 29.32 A 0.05 0.05 0 1 1 92.94 29.35" stroke="rgba(255,255,255,0.92)" stroke-width="1.0" fill="none"/>
  <path d="M 92.59 27.60 A 1.15 1.15 0 0 1 92.94 27.89" stroke="rgba(255,255,255,0.92)" stroke-width="1.0" fill="none"/>
  <path d="M 86.66 47.78 A 12.05 12.05 0 0 1 85.51 44.56" stroke="rgba(255,255,255,0.92)" stroke-width="1.0" fill="none"/>
  <path d="M 85.41 40.78 A 0.16 0.16 0 0 1 85.44 40.64" stroke="rgba(255,255,255,0.92)" stroke-width="1.0" fill="none"/>
  <path d="M 85.53 38.91 A 1.17 1.17 0 0 1 85.91 39.26" stroke="rgba(255,255,255,0.92)" stroke-width="1.0" fill="none"/>
  <path d="M 85.41 39.29 A 2.20 2.20 0 0 1 85.51 40.25" stroke="rgba(255,255,255,0.92)" stroke-width="1.0" fill="none"/>
  <path d="M 85.63 10.20 A 18.75 18.75 0 0 1 92.96 21.30" stroke="rgba(255,255,255,0.92)" stroke-width="1.0" fill="none"/>
  <path d="M 85.51 10.37 A 18.55 18.55 0 0 1 92.77 21.34" stroke="rgba(255,255,255,0.92)" stroke-width="1.0" fill="none"/>
  <path d="M 71.28 40.31 L 80.11 40.31 L 80.11 40.87 L 71.28 40.87 Z" stroke="rgba(255,255,255,0.92)" stroke-width="1.0" fill="none"/>
  <path d="M 67.21 44.61 L 94.68 44.61 L 94.68 58.34 L 67.21 58.34 Z" stroke="rgba(255,255,255,0.92)" stroke-width="1.0" fill="none"/>
  <path d="M 67.61 45.00 L 94.29 45.00 L 94.29 57.95 L 67.61 57.95 Z" stroke="rgba(255,255,255,0.92)" stroke-width="1.0" fill="none"/>
  <path d="M 80.75 57.95 L 80.75 45.00" stroke="rgba(255,255,255,0.92)" stroke-width="1.0" fill="none"/>
  <path d="M 81.14 57.95 L 81.14 45.00" stroke="rgba(255,255,255,0.92)" stroke-width="1.0" fill="none"/>
  <path d="M 67.61 50.97 L 80.75 50.97" stroke="rgba(255,255,255,0.92)" stroke-width="1.0" fill="none"/>
  <path d="M 67.61 50.57 L 80.75 50.57" stroke="rgba(255,255,255,0.92)" stroke-width="1.0" fill="none"/>
  <path d="M 6.60 60.05 L 6.60 60.15 L 6.60 60.25 Z" stroke="rgba(255,255,255,0.92)" stroke-width="1.0" fill="none"/>
  <path d="M 6.60 60.05 L 6.60 60.15 L 6.60 60.25 Z" stroke="rgba(255,255,255,0.92)" stroke-width="1.0" fill="none"/>
  <path d="M 4.77 60.05 L 4.77 58.57" stroke="rgba(255,255,255,0.92)" stroke-width="1.0" fill="none"/>
  <path d="M 6.34 60.05 L 6.34 58.57" stroke="rgba(255,255,255,0.92)" stroke-width="1.0" fill="none"/>
  <path d="M 4.77 60.24 L 4.79 60.25 L 4.82 60.26 L 4.85 60.27 L 4.87 60.27 L 4.90 60.28 L 4.93 60.28 L 4.96 60.29 L 4.99 60.30 L 5.02 60.30 L 5.06 60.31 L 5.09 60.31 L 5.12 60.32 L 5.16 60.32 L 5.19 60.32 L 5.23 60.33 L 5.26 60.33 L 5.30 60.33 L 5.33 60.34 L 5.37 60.34 L 5.41 60.34 L 5.44 60.34 L 5.48 60.34 L 5.52 60.34 L 5.55 60.34 L 5.59 60.34 L 5.63 60.34 L 5.67 60.34 L 5.70 60.34 L 5.74 60.34 L 5.77 60.34 L 5.81 60.33 L 5.85 60.33 L 5.88 60.33 L 5.92 60.32 L 5.95 60.32 L 5.99 60.32 L 6.02 60.31 L 6.05 60.31 L 6.08 60.30 L 6.12 60.30 L 6.15 60.29 L 6.18 60.28 L 6.21 60.28 L 6.23 60.27 L 6.26 60.27 L 6.29 60.26 L 6.31 60.25 L 6.34 60.24" stroke="rgba(255,255,255,0.92)" stroke-width="1.0" fill="none"/>
  <path d="M 4.77 55.31 A 2.50 2.50 0 0 1 6.34 55.31" stroke="rgba(255,255,255,0.92)" stroke-width="1.0" fill="none"/>
  <path d="M 4.51 60.05 L 4.51 60.25" stroke="rgba(255,255,255,0.92)" stroke-width="1.0" fill="none"/>
  <path d="M 6.60 60.05 L 6.60 60.25" stroke="rgba(255,255,255,0.92)" stroke-width="1.0" fill="none"/>
  <path d="M 4.51 60.25 L 4.51 60.23 L 4.52 60.21 L 4.53 60.19 L 4.55 60.17 L 4.57 60.16 L 4.59 60.14 L 4.62 60.12 L 4.65 60.10 L 4.69 60.09 L 4.73 60.07 L 4.77 60.06 L 4.82 60.04 L 4.87 60.03 L 4.92 60.02 L 4.97 60.01 L 5.03 60.00 L 5.09 59.99 L 5.16 59.98 L 5.22 59.97 L 5.28 59.97 L 5.35 59.97 L 5.42 59.96 L 5.49 59.96 L 5.55 59.96 L 5.62 59.96 L 5.69 59.96 L 5.76 59.97 L 5.82 59.97 L 5.89 59.97 L 5.95 59.98 L 6.02 59.99 L 6.08 60.00 L 6.13 60.01 L 6.19 60.02 L 6.24 60.03 L 6.29 60.04 L 6.34 60.06 L 6.38 60.07 L 6.42 60.09 L 6.46 60.10 L 6.49 60.12 L 6.52 60.14 L 6.54 60.16 L 6.56 60.17 L 6.58 60.19 L 6.59 60.21 L 6.59 60.23 L 6.60 60.25" stroke="rgba(255,255,255,0.92)" stroke-width="1.0" fill="none"/>
  <path d="M 61.07 60.05 L 61.07 60.15 L 61.07 60.25 Z" stroke="rgba(255,255,255,0.92)" stroke-width="1.0" fill="none"/>
  <path d="M 61.07 60.05 L 61.07 60.15 L 61.07 60.25 Z" stroke="rgba(255,255,255,0.92)" stroke-width="1.0" fill="none"/>
  <path d="M 59.24 60.05 L 59.24 58.57" stroke="rgba(255,255,255,0.92)" stroke-width="1.0" fill="none"/>
  <path d="M 60.81 60.05 L 60.81 58.57" stroke="rgba(255,255,255,0.92)" stroke-width="1.0" fill="none"/>
  <path d="M 59.24 60.24 L 59.27 60.25 L 59.29 60.26 L 59.32 60.27 L 59.35 60.27 L 59.37 60.28 L 59.40 60.28 L 59.43 60.29 L 59.46 60.30 L 59.50 60.30 L 59.53 60.31 L 59.56 60.31 L 59.59 60.32 L 59.63 60.32 L 59.66 60.32 L 59.70 60.33 L 59.73 60.33 L 59.77 60.33 L 59.80 60.34 L 59.84 60.34 L 59.88 60.34 L 59.91 60.34 L 59.95 60.34 L 59.99 60.34 L 60.03 60.34 L 60.06 60.34 L 60.10 60.34 L 60.14 60.34 L 60.17 60.34 L 60.21 60.34 L 60.25 60.34 L 60.28 60.33 L 60.32 60.33 L 60.35 60.33 L 60.39 60.32 L 60.42 60.32 L 60.46 60.32 L 60.49 60.31 L 60.52 60.31 L 60.55 60.30 L 60.59 60.30 L 60.62 60.29 L 60.65 60.28 L 60.68 60.28 L 60.71 60.27 L 60.73 60.27 L 60.76 60.26 L 60.79 60.25 L 60.81 60.24" stroke="rgba(255,255,255,0.92)" stroke-width="1.0" fill="none"/>
  <path d="M 59.24 55.31 A 2.50 2.50 0 0 1 60.81 55.31" stroke="rgba(255,255,255,0.92)" stroke-width="1.0" fill="none"/>
  <path d="M 58.98 60.05 L 58.98 60.25" stroke="rgba(255,255,255,0.92)" stroke-width="1.0" fill="none"/>
  <path d="M 61.07 60.05 L 61.07 60.25" stroke="rgba(255,255,255,0.92)" stroke-width="1.0" fill="none"/>
  <path d="M 58.98 60.25 L 58.98 60.23 L 58.99 60.21 L 59.00 60.19 L 59.02 60.17 L 59.04 60.16 L 59.06 60.14 L 59.09 60.12 L 59.12 60.10 L 59.16 60.09 L 59.20 60.07 L 59.24 60.06 L 59.29 60.04 L 59.34 60.03 L 59.39 60.02 L 59.45 60.01 L 59.50 60.00 L 59.56 59.99 L 59.63 59.98 L 59.69 59.97 L 59.76 59.97 L 59.82 59.97 L 59.89 59.96 L 59.96 59.96 L 60.03 59.96 L 60.09 59.96 L 60.16 59.96 L 60.23 59.97 L 60.30 59.97 L 60.36 59.97 L 60.42 59.98 L 60.49 59.99 L 60.55 60.00 L 60.60 60.01 L 60.66 60.02 L 60.71 60.03 L 60.76 60.04 L 60.81 60.06 L 60.85 60.07 L 60.89 60.09 L 60.93 60.10 L 60.96 60.12 L 60.99 60.14 L 61.01 60.16 L 61.03 60.17 L 61.05 60.19 L 61.06 60.21 L 61.07 60.23 L 61.07 60.25" stroke="rgba(255,255,255,0.92)" stroke-width="1.0" fill="none"/>
  <path d="M 65.12 60.05 L 65.12 60.15 L 65.12 60.25 Z" stroke="rgba(255,255,255,0.92)" stroke-width="1.0" fill="none"/>
  <path d="M 65.12 60.05 L 65.12 60.15 L 65.12 60.25 Z" stroke="rgba(255,255,255,0.92)" stroke-width="1.0" fill="none"/>
  <path d="M 63.29 60.05 L 63.29 58.57" stroke="rgba(255,255,255,0.92)" stroke-width="1.0" fill="none"/>
  <path d="M 64.86 60.05 L 64.86 58.57" stroke="rgba(255,255,255,0.92)" stroke-width="1.0" fill="none"/>
  <path d="M 63.29 60.24 L 63.32 60.25 L 63.34 60.26 L 63.37 60.27 L 63.40 60.27 L 63.43 60.28 L 63.46 60.28 L 63.49 60.29 L 63.52 60.30 L 63.55 60.30 L 63.58 60.31 L 63.61 60.31 L 63.65 60.32 L 63.68 60.32 L 63.72 60.32 L 63.75 60.33 L 63.79 60.33 L 63.82 60.33 L 63.86 60.34 L 63.89 60.34 L 63.93 60.34 L 63.97 60.34 L 64.00 60.34 L 64.04 60.34 L 64.08 60.34 L 64.11 60.34 L 64.15 60.34 L 64.19 60.34 L 64.23 60.34 L 64.26 60.34 L 64.30 60.34 L 64.33 60.33 L 64.37 60.33 L 64.41 60.33 L 64.44 60.32 L 64.47 60.32 L 64.51 60.32 L 64.54 60.31 L 64.57 60.31 L 64.61 60.30 L 64.64 60.30 L 64.67 60.29 L 64.70 60.28 L 64.73 60.28 L 64.76 60.27 L 64.79 60.27 L 64.81 60.26 L 64.84 60.25 L 64.86 60.24" stroke="rgba(255,255,255,0.92)" stroke-width="1.0" fill="none"/>
  <path d="M 63.29 55.31 A 2.50 2.50 0 0 1 64.86 55.31" stroke="rgba(255,255,255,0.92)" stroke-width="1.0" fill="none"/>
  <path d="M 63.03 60.05 L 63.03 60.25" stroke="rgba(255,255,255,0.92)" stroke-width="1.0" fill="none"/>
  <path d="M 65.12 60.05 L 65.12 60.25" stroke="rgba(255,255,255,0.92)" stroke-width="1.0" fill="none"/>
  <path d="M 63.03 60.25 L 63.04 60.23 L 63.04 60.21 L 63.05 60.19 L 63.07 60.17 L 63.09 60.16 L 63.11 60.14 L 63.14 60.12 L 63.17 60.10 L 63.21 60.09 L 63.25 60.07 L 63.29 60.06 L 63.34 60.04 L 63.39 60.03 L 63.44 60.02 L 63.50 60.01 L 63.56 60.00 L 63.62 59.99 L 63.68 59.98 L 63.74 59.97 L 63.81 59.97 L 63.87 59.97 L 63.94 59.96 L 64.01 59.96 L 64.08 59.96 L 64.15 59.96 L 64.21 59.96 L 64.28 59.97 L 64.35 59.97 L 64.41 59.97 L 64.48 59.98 L 64.54 59.99 L 64.60 60.00 L 64.66 60.01 L 64.71 60.02 L 64.77 60.03 L 64.82 60.04 L 64.86 60.06 L 64.90 60.07 L 64.94 60.09 L 64.98 60.10 L 65.01 60.12 L 65.04 60.14 L 65.07 60.16 L 65.08 60.17 L 65.10 60.19 L 65.11 60.21 L 65.12 60.23 L 65.12 60.25" stroke="rgba(255,255,255,0.92)" stroke-width="1.0" fill="none"/>
  <path d="M 96.51 60.05 L 96.51 60.15 L 96.51 60.25 Z" stroke="rgba(255,255,255,0.92)" stroke-width="1.0" fill="none"/>
  <path d="M 96.51 60.05 L 96.51 60.15 L 96.51 60.25 Z" stroke="rgba(255,255,255,0.92)" stroke-width="1.0" fill="none"/>
  <path d="M 94.68 60.05 L 94.68 58.57" stroke="rgba(255,255,255,0.92)" stroke-width="1.0" fill="none"/>
  <path d="M 96.25 60.05 L 96.25 58.57" stroke="rgba(255,255,255,0.92)" stroke-width="1.0" fill="none"/>
  <path d="M 94.68 60.24 L 94.71 60.25 L 94.73 60.26 L 94.76 60.27 L 94.79 60.27 L 94.81 60.28 L 94.84 60.28 L 94.87 60.29 L 94.90 60.30 L 94.94 60.30 L 94.97 60.31 L 95.00 60.31 L 95.03 60.32 L 95.07 60.32 L 95.10 60.32 L 95.14 60.33 L 95.17 60.33 L 95.21 60.33 L 95.24 60.34 L 95.28 60.34 L 95.32 60.34 L 95.35 60.34 L 95.39 60.34 L 95.43 60.34 L 95.47 60.34 L 95.50 60.34 L 95.54 60.34 L 95.58 60.34 L 95.61 60.34 L 95.65 60.34 L 95.69 60.34 L 95.72 60.33 L 95.76 60.33 L 95.79 60.33 L 95.83 60.32 L 95.86 60.32 L 95.90 60.32 L 95.93 60.31 L 95.96 60.31 L 95.99 60.30 L 96.03 60.30 L 96.06 60.29 L 96.09 60.28 L 96.12 60.28 L 96.15 60.27 L 96.17 60.27 L 96.20 60.26 L 96.23 60.25 L 96.25 60.24" stroke="rgba(255,255,255,0.92)" stroke-width="1.0" fill="none"/>
  <path d="M 94.68 55.31 A 2.50 2.50 0 0 1 96.25 55.31" stroke="rgba(255,255,255,0.92)" stroke-width="1.0" fill="none"/>
  <path d="M 94.42 60.05 L 94.42 60.25" stroke="rgba(255,255,255,0.92)" stroke-width="1.0" fill="none"/>
  <path d="M 96.51 60.05 L 96.51 60.25" stroke="rgba(255,255,255,0.92)" stroke-width="1.0" fill="none"/>
  <path d="M 94.42 60.25 L 94.42 60.23 L 94.43 60.21 L 94.44 60.19 L 94.46 60.17 L 94.48 60.16 L 94.50 60.14 L 94.53 60.12 L 94.56 60.10 L 94.60 60.09 L 94.64 60.07 L 94.68 60.06 L 94.73 60.04 L 94.78 60.03 L 94.83 60.02 L 94.89 60.01 L 94.94 60.00 L 95.00 59.99 L 95.07 59.98 L 95.13 59.97 L 95.20 59.97 L 95.26 59.97 L 95.33 59.96 L 95.40 59.96 L 95.47 59.96 L 95.53 59.96 L 95.60 59.96 L 95.67 59.97 L 95.74 59.97 L 95.80 59.97 L 95.86 59.98 L 95.93 59.99 L 95.99 60.00 L 96.04 60.01 L 96.10 60.02 L 96.15 60.03 L 96.20 60.04 L 96.25 60.06 L 96.29 60.07 L 96.33 60.09 L 96.37 60.10 L 96.40 60.12 L 96.43 60.14 L 96.45 60.16 L 96.47 60.17 L 96.49 60.19 L 96.50 60.21 L 96.51 60.23 L 96.51 60.25" stroke="rgba(255,255,255,0.92)" stroke-width="1.0" fill="none"/>
  <path d="M 69.01 55.62 L 79.22 55.62 L 79.24 57.91 L 69.02 57.91 Z" stroke="rgba(255,255,255,0.92)" stroke-width="1.0" fill="none"/>
  <path d="M 68.26 53.88 L 78.86 53.88 L 78.86 55.62 L 68.26 55.62 Z" stroke="rgba(255,255,255,0.92)" stroke-width="1.0" fill="none"/>
  <path d="M 69.31 48.95 L 79.80 48.95 L 79.80 50.57 L 69.31 50.57 Z" stroke="rgba(255,255,255,0.92)" stroke-width="1.0" fill="none"/>
  <path d="M 70.43 47.85 L 80.25 47.85 L 80.25 48.95 L 70.43 48.95 Z" stroke="rgba(255,255,255,0.92)" stroke-width="1.0" fill="none"/>
  <path d="M 82.48 49.11 L 92.98 49.11 L 92.98 50.15 L 82.48 50.15 Z" stroke="rgba(255,255,255,0.92)" stroke-width="1.0" fill="none"/>
  <path d="M 82.93 50.15 L 82.93 57.95" stroke="rgba(255,255,255,0.92)" stroke-width="1.0" fill="none"/>
  <path d="M 83.06 57.91 L 92.15 57.91" stroke="rgba(255,255,255,0.92)" stroke-width="1.0" fill="none"/>
  <path d="M 92.49 57.95 L 92.49 50.15" stroke="rgba(255,255,255,0.92)" stroke-width="1.0" fill="none"/>
  <path d="M 39.18 42.87 L 62.72 42.87" stroke="rgba(255,255,255,0.92)" stroke-width="1.0" fill="none"/>
  <path d="M 62.72 42.87 L 62.72 42.09" stroke="rgba(255,255,255,0.92)" stroke-width="1.0" fill="none"/>
</svg>
