<svg xmlns="http://www.w3.org/2000/svg" viewBox="0 0 100 100" width="100" height="100">
  <path d="M 2.67 5.94 L 4.35 5.94" stroke="rgba(255,255,255,0.92)" stroke-width="1.0" fill="none"/>
  <path d="M 96.91 9.10 A 1.58 1.58 0 0 1 95.34 7.71" stroke="rgba(255,255,255,0.92)" stroke-width="1.0" fill="none"/>
  <path d="M 27.19 21.73 L 55.69 21.73" stroke="rgba(255,255,255,0.92)" stroke-width="1.0" fill="none"/>
  <path d="M 56.59 21.73 L 88.20 21.73" stroke="rgba(255,255,255,0.92)" stroke-width="1.0" fill="none"/>
  <path d="M 13.06 24.17 A 1.22 1.22 0 0 1 11.88 22.94" stroke="rgba(255,255,255,0.92)" stroke-width="1.0" fill="none"/>
  <path d="M 94.12 25.67 L 89.38 25.67" stroke="rgba(255,255,255,0.92)" stroke-width="1.0" fill="none"/>
  <path d="M 6.87 37.51 L 90.57 37.51" stroke="rgba(255,255,255,0.92)" stroke-width="1.0" fill="none"/>
  <path d="M 11.88 30.41 A 1.18 1.18 0 0 1 13.06 29.22" stroke="rgba(255,255,255,0.92)" stroke-width="1.0" fill="none"/>
  <path d="M 29.39 23.70 L 39.25 23.70" stroke="rgba(255,255,255,0.92)" stroke-width="1.0" fill="none"/>
  <path d="M 60.82 14.35 A 5.03 5.03 0 0 1 62.01 14.79" stroke="rgba(255,255,255,0.92)" stroke-width="1.0" fill="none"/>
  <path d="M 78.33 23.70 L 88.20 23.70" stroke="rgba(255,255,255,0.92)" stroke-width="1.0" fill="none"/>
  <path d="M 13.06 26.07 A 1.18 1.18 0 0 1 11.88 24.89" stroke="rgba(255,255,255,0.92)" stroke-width="1.0" fill="none"/>
  <path d="M 27.70 24.89 L 27.70 30.41" stroke="rgba(255,255,255,0.92)" stroke-width="1.0" fill="none"/>
  <path d="M 73.56 25.91 A 1.70 1.70 0 0 1 71.88 27.10" stroke="rgba(255,255,255,0.92)" stroke-width="1.0" fill="none"/>
  <path d="M 40.44 30.41 L 40.44 24.14" stroke="rgba(255,255,255,0.92)" stroke-width="1.0" fill="none"/>
  <path d="M 59.64 14.79 A 5.03 5.03 0 0 1 60.82 14.35" stroke="rgba(255,255,255,0.92)" stroke-width="1.0" fill="none"/>
  <path d="M 52.67 30.41 L 52.67 24.14" stroke="rgba(255,255,255,0.92)" stroke-width="1.0" fill="none"/>
  <path d="M 47.40 14.79 A 5.03 5.03 0 0 1 48.59 14.35" stroke="rgba(255,255,255,0.92)" stroke-width="1.0" fill="none"/>
  <path d="M 64.91 30.41 L 64.91 24.14" stroke="rgba(255,255,255,0.92)" stroke-width="1.0" fill="none"/>
  <path d="M 35.17 14.79 A 5.03 5.03 0 0 1 36.35 14.35" stroke="rgba(255,255,255,0.92)" stroke-width="1.0" fill="none"/>
  <path d="M 77.15 30.41 L 77.15 24.14" stroke="rgba(255,255,255,0.92)" stroke-width="1.0" fill="none"/>
  <path d="M 24.11 56.89 A 17.72 17.72 0 0 1 22.93 57.33" stroke="rgba(255,255,255,0.92)" stroke-width="1.0" fill="none"/>
  <path d="M 94.12 36.72 L 94.12 24.49" stroke="rgba(255,255,255,0.92)" stroke-width="1.0" fill="none"/>
  <path d="M 89.38 24.49 L 89.38 30.41" stroke="rgba(255,255,255,0.92)" stroke-width="1.0" fill="none"/>
  <path d="M 11.09 35.93 A 0.79 0.79 0 0 1 11.88 36.72" stroke="rgba(255,255,255,0.92)" stroke-width="1.0" fill="none"/>
  <path d="M 11.88 24.49 A 0.79 0.79 0 0 1 11.09 25.28" stroke="rgba(255,255,255,0.92)" stroke-width="1.0" fill="none"/>
  <path d="M 93.33 23.70 L 90.17 23.70" stroke="rgba(255,255,255,0.92)" stroke-width="1.0" fill="none"/>
  <path d="M 7.93 25.28 A 0.79 0.79 0 0 1 7.14 24.49" stroke="rgba(255,255,255,0.92)" stroke-width="1.0" fill="none"/>
  <path d="M 92.61 21.73 L 74.07 21.73 L 73.28 22.62 L 74.28 30.90 L 75.06 31.59 L 91.61 31.59 L 92.39 30.90 L 93.39 22.62 Z" stroke="rgba(255,255,255,0.92)" stroke-width="1.0" fill="none"/>
  <path d="M 91.72 22.52 L 74.96 22.52 L 74.17 23.40 L 74.98 30.11 L 75.76 30.80 L 90.91 30.80 L 91.69 30.11 L 92.50 23.40 Z" stroke="rgba(255,255,255,0.92)" stroke-width="1.0" fill="none"/>
  <path d="M 8.83 31.59 L 5.92 7.33" stroke="rgba(255,255,255,0.92)" stroke-width="1.0" fill="none"/>
  <path d="M 5.44 36.47 L 1.88 6.83" stroke="rgba(255,255,255,0.92)" stroke-width="1.0" fill="none"/>
  <path d="M 99.38 6.64 A 0.79 0.79 0 0 1 98.60 7.52" stroke="rgba(255,255,255,0.92)" stroke-width="1.0" fill="none"/>
  <path d="M 5.44 36.47 L 4.55 29.07" stroke="rgba(255,255,255,0.92)" stroke-width="1.0" fill="none"/>
  <path d="M 94.64 35.14 A 1.18 1.18 0 0 1 95.82 36.19" stroke="rgba(255,255,255,0.92)" stroke-width="1.0" fill="none"/>
  <path d="M 5.69 36.33 L 5.69 32.78" stroke="rgba(255,255,255,0.92)" stroke-width="1.0" fill="none"/>
  <path d="M 94.39 35.14 A 1.18 1.18 0 0 1 95.58 36.33" stroke="rgba(255,255,255,0.92)" stroke-width="1.0" fill="none"/>
  <path d="M 95.58 32.78 A 1.18 1.18 0 0 1 94.39 33.96" stroke="rgba(255,255,255,0.92)" stroke-width="1.0" fill="none"/>
  <path d="M 6.87 37.51 L 6.62 37.51" stroke="rgba(255,255,255,0.92)" stroke-width="1.0" fill="none"/>
  <path d="M 90.17 37.51 L 93.33 37.51" stroke="rgba(255,255,255,0.92)" stroke-width="1.0" fill="none"/>
  <path d="M 7.14 36.72 A 0.79 0.79 0 0 1 7.93 35.93" stroke="rgba(255,255,255,0.92)" stroke-width="1.0" fill="none"/>
  <path d="M 25.05 13.84 L 9.48 13.84" stroke="rgba(255,255,255,0.92)" stroke-width="1.0" fill="none"/>
  <path d="M 24.47 14.23 L 9.53 14.23" stroke="rgba(255,255,255,0.92)" stroke-width="1.0" fill="none"/>
  <path d="M 75.96 23.70 L 66.10 23.70" stroke="rgba(255,255,255,0.92)" stroke-width="1.0" fill="none"/>
  <path d="M 25.30 57.33 A 17.72 17.72 0 0 1 24.11 56.89" stroke="rgba(255,255,255,0.92)" stroke-width="1.0" fill="none"/>
  <path d="M 63.73 23.70 L 53.86 23.70" stroke="rgba(255,255,255,0.92)" stroke-width="1.0" fill="none"/>
  <path d="M 36.35 14.35 A 5.03 5.03 0 0 1 37.53 14.79" stroke="rgba(255,255,255,0.92)" stroke-width="1.0" fill="none"/>
  <path d="M 51.49 23.70 L 41.62 23.70" stroke="rgba(255,255,255,0.92)" stroke-width="1.0" fill="none"/>
  <path d="M 48.59 14.35 A 5.03 5.03 0 0 1 49.77 14.79" stroke="rgba(255,255,255,0.92)" stroke-width="1.0" fill="none"/>
  <path d="M 89.38 30.41 L 89.38 36.72" stroke="rgba(255,255,255,0.92)" stroke-width="1.0" fill="none"/>
  <path d="M 6.87 31.59 L 89.38 31.59" stroke="rgba(255,255,255,0.92)" stroke-width="1.0" fill="none"/>
  <path d="M 71.88 28.20 A 1.70 1.70 0 0 1 73.56 29.38" stroke="rgba(255,255,255,0.92)" stroke-width="1.0" fill="none"/>
  <path d="M 60.82 30.41 A 1.18 1.18 0 0 1 62.01 29.22" stroke="rgba(255,255,255,0.92)" stroke-width="1.0" fill="none"/>
  <path d="M 59.64 29.22 A 1.18 1.18 0 0 1 60.82 30.41" stroke="rgba(255,255,255,0.92)" stroke-width="1.0" fill="none"/>
  <path d="M 47.40 29.22 A 1.18 1.18 0 0 1 48.59 30.41" stroke="rgba(255,255,255,0.92)" stroke-width="1.0" fill="none"/>
  <path d="M 35.17 29.22 A 1.18 1.18 0 0 1 36.35 30.41" stroke="rgba(255,255,255,0.92)" stroke-width="1.0" fill="none"/>
  <path d="M 22.93 29.22 A 1.18 1.18 0 0 1 24.11 30.41" stroke="rgba(255,255,255,0.92)" stroke-width="1.0" fill="none"/>
  <path d="M 24.11 30.41 A 1.18 1.18 0 0 1 25.30 29.22" stroke="rgba(255,255,255,0.92)" stroke-width="1.0" fill="none"/>
  <path d="M 36.35 30.41 A 1.18 1.18 0 0 1 37.53 29.22" stroke="rgba(255,255,255,0.92)" stroke-width="1.0" fill="none"/>
  <path d="M 48.59 30.41 A 1.18 1.18 0 0 1 49.77 29.22" stroke="rgba(255,255,255,0.92)" stroke-width="1.0" fill="none"/>
  <path d="M 76.56 23.96 L 76.56 23.97 L 76.56 23.98 L 76.57 23.99 L 76.58 24.00 L 76.59 24.01 L 76.60 24.02 L 76.62 24.03 L 76.63 24.04 L 76.66 24.05 L 76.68 24.06 L 76.70 24.07 L 76.73 24.07 L 76.76 24.08 L 76.79 24.09 L 76.82 24.09 L 76.85 24.10 L 76.89 24.10 L 76.92 24.11 L 76.96 24.11 L 76.99 24.11 L 77.03 24.12 L 77.07 24.12 L 77.11 24.12 L 77.15 24.12 L 77.19 24.12 L 77.22 24.12 L 77.26 24.12 L 77.30 24.11 L 77.34 24.11 L 77.37 24.11 L 77.41 24.10 L 77.44 24.10 L 77.48 24.09 L 77.51 24.09 L 77.54 24.08 L 77.57 24.07 L 77.59 24.07 L 77.62 24.06 L 77.64 24.05 L 77.66 24.04 L 77.68 24.03 L 77.69 24.02 L 77.71 24.01 L 77.72 24.00 L 77.73 23.99 L 77.73 23.98 L 77.74 23.97 L 77.74 23.96" stroke="rgba(255,255,255,0.92)" stroke-width="1.0" fill="none"/>
  <path d="M 64.34 23.97 L 64.35 23.96 L 64.36 23.96 L 64.37 23.95 L 64.38 23.94 L 64.40 23.93 L 64.42 23.92 L 64.44 23.92 L 64.46 23.91 L 64.48 23.90 L 64.50 23.90 L 64.52 23.89 L 64.55 23.89 L 64.58 23.88 L 64.60 23.88 L 64.63 23.87 L 64.66 23.87 L 64.69 23.87 L 64.72 23.86 L 64.75 23.86 L 64.78 23.86 L 64.81 23.86 L 64.85 23.85 L 64.88 23.85 L 64.91 23.85 L 64.94 23.85 L 64.98 23.85 L 65.01 23.86 L 65.04 23.86 L 65.07 23.86 L 65.10 23.86 L 65.13 23.87 L 65.16 23.87 L 65.19 23.87 L 65.22 23.88 L 65.25 23.88 L 65.27 23.89 L 65.30 23.89 L 65.32 23.90 L 65.35 23.90 L 65.37 23.91 L 65.39 23.92 L 65.41 23.93 L 65.42 23.93 L 65.44 23.94 L 65.45 23.95 L 65.46 23.96 L 65.47 23.96 L 65.48 23.97" stroke="rgba(255,255,255,0.92)" stroke-width="1.0" fill="none"/>
  <path d="M 53.25 24.05 L 53.24 24.06 L 53.23 24.07 L 53.22 24.08 L 53.20 24.09 L 53.19 24.09 L 53.17 24.10 L 53.15 24.11 L 53.13 24.11 L 53.11 24.12 L 53.09 24.13 L 53.06 24.13 L 53.04 24.14 L 53.01 24.14 L 52.98 24.15 L 52.95 24.15 L 52.93 24.16 L 52.90 24.16 L 52.87 24.16 L 52.83 24.17 L 52.80 24.17 L 52.77 24.17 L 52.74 24.17 L 52.71 24.17 L 52.67 24.17 L 52.64 24.17 L 52.61 24.17 L 52.58 24.17 L 52.55 24.17 L 52.51 24.16 L 52.48 24.16 L 52.45 24.16 L 52.42 24.16 L 52.39 24.15 L 52.37 24.15 L 52.34 24.14 L 52.31 24.14 L 52.29 24.13 L 52.26 24.13 L 52.24 24.12 L 52.22 24.11 L 52.20 24.11 L 52.18 24.10 L 52.16 24.09 L 52.15 24.08 L 52.13 24.08 L 52.12 24.07 L 52.11 24.06 L 52.10 24.05" stroke="rgba(255,255,255,0.92)" stroke-width="1.0" fill="none"/>
  <path d="M 39.86 23.97 L 39.87 23.96 L 39.88 23.96 L 39.90 23.95 L 39.91 23.94 L 39.93 23.93 L 39.94 23.92 L 39.96 23.92 L 39.98 23.91 L 40.00 23.90 L 40.03 23.90 L 40.05 23.89 L 40.08 23.89 L 40.10 23.88 L 40.13 23.88 L 40.16 23.87 L 40.19 23.87 L 40.22 23.87 L 40.25 23.86 L 40.28 23.86 L 40.31 23.86 L 40.34 23.86 L 40.37 23.85 L 40.41 23.85 L 40.44 23.85 L 40.47 23.85 L 40.50 23.85 L 40.54 23.86 L 40.57 23.86 L 40.60 23.86 L 40.63 23.86 L 40.66 23.87 L 40.69 23.87 L 40.72 23.87 L 40.75 23.88 L 40.77 23.88 L 40.80 23.89 L 40.83 23.89 L 40.85 23.90 L 40.87 23.90 L 40.89 23.91 L 40.91 23.92 L 40.93 23.93 L 40.95 23.93 L 40.96 23.94 L 40.98 23.95 L 40.99 23.96 L 41.00 23.96 L 41.01 23.97" stroke="rgba(255,255,255,0.92)" stroke-width="1.0" fill="none"/>
  <path d="M 94.03 24.13 L 89.47 24.13" stroke="rgba(255,255,255,0.92)" stroke-width="1.0" fill="none"/>
  <path d="M 93.87 23.91 L 89.64 23.91" stroke="rgba(255,255,255,0.92)" stroke-width="1.0" fill="none"/>
  <path d="M 94.12 24.87 L 89.38 24.87" stroke="rgba(255,255,255,0.92)" stroke-width="1.0" fill="none"/>
  <path d="M 89.38 24.49 L 89.38 22.96" stroke="rgba(255,255,255,0.92)" stroke-width="1.0" fill="none"/>
  <path d="M 13.88 23.15 A 1.67 1.67 0 0 1 13.06 24.61" stroke="rgba(255,255,255,0.92)" stroke-width="1.0" fill="none"/>
  <path d="M 99.68 3.24 L 96.91 3.18 L 92.60 7.00" stroke="rgba(255,255,255,0.92)" stroke-width="1.0" fill="none"/>
  <path d="M 84.53 2.63 A 9.65 9.65 0 0 1 91.75 14.00" stroke="rgba(255,255,255,0.92)" stroke-width="1.0" fill="none"/>
  <path d="M 89.20 40.29 A 19.08 19.08 0 0 1 85.28 35.22" stroke="rgba(255,255,255,0.92)" stroke-width="1.0" fill="none"/>
  <path d="M 91.30 19.93 A 5.02 5.02 0 0 1 88.14 17.19" stroke="rgba(255,255,255,0.92)" stroke-width="1.0" fill="none"/>
  <path d="M 91.69 10.06 A 0.05 0.05 0 1 1 91.60 10.09" stroke="rgba(255,255,255,0.92)" stroke-width="1.0" fill="none"/>
  <path d="M 91.25 8.33 A 1.16 1.16 0 0 1 91.60 8.62" stroke="rgba(255,255,255,0.92)" stroke-width="1.0" fill="none"/>
  <path d="M 85.28 28.63 A 12.12 12.12 0 0 1 84.13 25.39" stroke="rgba(255,255,255,0.92)" stroke-width="1.0" fill="none"/>
  <path d="M 84.02 21.59 A 0.17 0.17 0 0 1 84.05 21.45" stroke="rgba(255,255,255,0.92)" stroke-width="1.0" fill="none"/>
  <path d="M 84.14 19.71 A 1.18 1.18 0 0 1 84.53 20.06" stroke="rgba(255,255,255,0.92)" stroke-width="1.0" fill="none"/>
  <path d="M 84.02 20.08 A 2.22 2.22 0 0 1 84.13 21.06" stroke="rgba(255,255,255,0.92)" stroke-width="1.0" fill="none"/>
  <path d="M 84.25 -9.17 A 18.86 18.86 0 0 1 91.62 1.99" stroke="rgba(255,255,255,0.92)" stroke-width="1.0" fill="none"/>
  <path d="M 84.13 -9.00 A 18.66 18.66 0 0 1 91.43 2.04" stroke="rgba(255,255,255,0.92)" stroke-width="1.0" fill="none"/>
  <path d="M 81.57 10.27 A 6.03 6.03 0 0 1 84.98 17.97" stroke="rgba(255,255,255,0.92)" stroke-width="1.0" fill="none"/>
  <path d="M 83.60 30.32 A 11.93 11.93 0 0 1 81.65 26.82" stroke="rgba(255,255,255,0.92)" stroke-width="1.0" fill="none"/>
  <path d="M 84.73 19.67 A 3.14 3.14 0 0 1 83.02 17.68" stroke="rgba(255,255,255,0.92)" stroke-width="1.0" fill="none"/>
  <path d="M 84.95 13.80 A 0.03 0.03 0 1 1 84.89 13.81" stroke="rgba(255,255,255,0.92)" stroke-width="1.0" fill="none"/>
  <path d="M 84.70 12.86 A 0.72 0.72 0 0 1 84.89 13.07" stroke="rgba(255,255,255,0.92)" stroke-width="1.0" fill="none"/>
  <path d="M 81.65 23.88 A 7.58 7.58 0 0 1 81.24 21.78" stroke="rgba(255,255,255,0.92)" stroke-width="1.0" fill="none"/>
  <path d="M 81.26 21.60 A 0.10 0.10 0 0 1 81.29 21.51" stroke="rgba(255,255,255,0.92)" stroke-width="1.0" fill="none"/>
  <path d="M 81.36 20.56 A 0.73 0.73 0 0 1 81.57 20.81" stroke="rgba(255,255,255,0.92)" stroke-width="1.0" fill="none"/>
  <path d="M 81.26 21.08 A 1.39 1.39 0 0 1 81.24 21.69" stroke="rgba(255,255,255,0.92)" stroke-width="1.0" fill="none"/>
  <path d="M 81.39 4.63 A 11.79 11.79 0 0 1 84.92 12.21" stroke="rgba(255,255,255,0.92)" stroke-width="1.0" fill="none"/>
  <path d="M 81.31 4.72 A 11.66 11.66 0 0 1 84.80 12.22" stroke="rgba(255,255,255,0.92)" stroke-width="1.0" fill="none"/>
  <path d="M 20.03 39.01 L 20.03 39.10 L 20.03 39.20 Z" stroke="rgba(255,255,255,0.92)" stroke-width="1.0" fill="none"/>
  <path d="M 20.03 39.01 L 20.03 39.10 L 20.03 39.20 Z" stroke="rgba(255,255,255,0.92)" stroke-width="1.0" fill="none"/>
  <path d="M 83.07 39.01 L 83.07 37.51" stroke="rgba(255,255,255,0.92)" stroke-width="1.0" fill="none"/>
  <path d="M 81.49 39.01 L 81.49 37.51" stroke="rgba(255,255,255,0.92)" stroke-width="1.0" fill="none"/>
  <path d="M 83.07 38.81 L 83.04 38.81 L 83.02 38.80 L 82.99 38.79 L 82.96 38.79 L 82.93 38.78 L 82.90 38.77 L 82.87 38.77 L 82.84 38.76 L 82.81 38.76 L 82.78 38.75 L 82.75 38.75 L 82.71 38.74 L 82.68 38.74 L 82.64 38.73 L 82.61 38.73 L 82.57 38.73 L 82.54 38.72 L 82.50 38.72 L 82.46 38.72 L 82.43 38.72 L 82.39 38.72 L 82.35 38.72 L 82.32 38.72 L 82.28 38.72 L 82.24 38.72 L 82.20 38.72 L 82.17 38.72 L 82.13 38.72 L 82.09 38.72 L 82.06 38.72 L 82.02 38.72 L 81.98 38.73 L 81.95 38.73 L 81.91 38.73 L 81.88 38.74 L 81.84 38.74 L 81.81 38.75 L 81.78 38.75 L 81.75 38.76 L 81.71 38.76 L 81.68 38.77 L 81.65 38.77 L 81.62 38.78 L 81.59 38.79 L 81.57 38.79 L 81.54 38.80 L 81.51 38.81 L 81.49 38.81" stroke="rgba(255,255,255,0.92)" stroke-width="1.0" fill="none"/>
  <path d="M 18.19 34.24 A 2.51 2.51 0 0 1 19.77 34.24" stroke="rgba(255,255,255,0.92)" stroke-width="1.0" fill="none"/>
  <path d="M 83.33 39.01 L 83.33 39.20" stroke="rgba(255,255,255,0.92)" stroke-width="1.0" fill="none"/>
  <path d="M 81.23 39.01 L 81.23 39.20" stroke="rgba(255,255,255,0.92)" stroke-width="1.0" fill="none"/>
  <path d="M 83.33 39.20 L 83.32 39.18 L 83.32 39.17 L 83.31 39.15 L 83.29 39.13 L 83.27 39.11 L 83.25 39.09 L 83.22 39.07 L 83.19 39.06 L 83.15 39.04 L 83.11 39.03 L 83.07 39.01 L 83.02 39.00 L 82.97 38.98 L 82.92 38.97 L 82.86 38.96 L 82.80 38.95 L 82.74 38.94 L 82.68 38.93 L 82.62 38.93 L 82.55 38.92 L 82.48 38.92 L 82.41 38.91 L 82.35 38.91 L 82.28 38.91 L 82.21 38.91 L 82.14 38.91 L 82.07 38.92 L 82.01 38.92 L 81.94 38.93 L 81.88 38.93 L 81.81 38.94 L 81.75 38.95 L 81.70 38.96 L 81.64 38.97 L 81.59 38.98 L 81.54 39.00 L 81.49 39.01 L 81.45 39.03 L 81.41 39.04 L 81.37 39.06 L 81.34 39.07 L 81.31 39.09 L 81.28 39.11 L 81.26 39.13 L 81.25 39.15 L 81.24 39.17 L 81.23 39.18 L 81.23 39.20" stroke="rgba(255,255,255,0.92)" stroke-width="1.0" fill="none"/>
  <path d="M 85.05 39.01 L 85.05 39.10 L 85.05 39.20 Z" stroke="rgba(255,255,255,0.92)" stroke-width="1.0" fill="none"/>
  <path d="M 85.05 39.01 L 85.05 39.10 L 85.05 39.20 Z" stroke="rgba(255,255,255,0.92)" stroke-width="1.0" fill="none"/>
  <path d="M 14.37 39.01 L 14.37 37.51" stroke="rgba(255,255,255,0.92)" stroke-width="1.0" fill="none"/>
  <path d="M 15.95 39.01 L 15.95 37.51" stroke="rgba(255,255,255,0.92)" stroke-width="1.0" fill="none"/>
  <path d="M 14.37 39.20 L 14.39 39.21 L 14.42 39.21 L 14.45 39.22 L 14.48 39.23 L 14.50 39.23 L 14.53 39.24 L 14.56 39.25 L 14.59 39.25 L 14.63 39.26 L 14.66 39.26 L 14.69 39.27 L 14.73 39.27 L 14.76 39.27 L 14.79 39.28 L 14.83 39.28 L 14.87 39.29 L 14.90 39.29 L 14.94 39.29 L 14.97 39.29 L 15.01 39.29 L 15.05 39.30 L 15.08 39.30 L 15.12 39.30 L 15.16 39.30 L 15.20 39.30 L 15.23 39.30 L 15.27 39.30 L 15.31 39.29 L 15.34 39.29 L 15.38 39.29 L 15.42 39.29 L 15.45 39.29 L 15.49 39.28 L 15.52 39.28 L 15.56 39.27 L 15.59 39.27 L 15.63 39.27 L 15.66 39.26 L 15.69 39.26 L 15.72 39.25 L 15.75 39.25 L 15.78 39.24 L 15.81 39.23 L 15.84 39.23 L 15.87 39.22 L 15.90 39.21 L 15.92 39.21 L 15.95 39.20" stroke="rgba(255,255,255,0.92)" stroke-width="1.0" fill="none"/>
  <path d="M 85.31 34.24 A 2.51 2.51 0 0 1 86.89 34.24" stroke="rgba(255,255,255,0.92)" stroke-width="1.0" fill="none"/>
  <path d="M 14.11 39.01 L 14.11 39.20" stroke="rgba(255,255,255,0.92)" stroke-width="1.0" fill="none"/>
  <path d="M 16.21 39.01 L 16.21 39.20" stroke="rgba(255,255,255,0.92)" stroke-width="1.0" fill="none"/>
  <path d="M 14.11 39.20 L 14.11 39.22 L 14.12 39.24 L 14.13 39.26 L 14.15 39.28 L 14.17 39.30 L 14.19 39.31 L 14.22 39.33 L 14.25 39.35 L 14.29 39.36 L 14.33 39.38 L 14.37 39.40 L 14.42 39.41 L 14.47 39.42 L 14.52 39.43 L 14.58 39.45 L 14.63 39.46 L 14.70 39.46 L 14.76 39.47 L 14.82 39.48 L 14.89 39.48 L 14.95 39.49 L 15.02 39.49 L 15.09 39.49 L 15.16 39.49 L 15.23 39.49 L 15.30 39.49 L 15.36 39.49 L 15.43 39.48 L 15.50 39.48 L 15.56 39.47 L 15.62 39.46 L 15.68 39.46 L 15.74 39.45 L 15.80 39.43 L 15.85 39.42 L 15.90 39.41 L 15.95 39.40 L 15.99 39.38 L 16.03 39.36 L 16.07 39.35 L 16.10 39.33 L 16.13 39.31 L 16.15 39.30 L 16.17 39.28 L 16.19 39.26 L 16.20 39.24 L 16.21 39.22 L 16.21 39.20" stroke="rgba(255,255,255,0.92)" stroke-width="1.0" fill="none"/>
  <path d="M 95.18 32.78 L 94.39 31.99 L 72.01 31.99 L 71.87 31.99 L 12.27 31.99 L 12.27 36.72 L 12.20 37.12 L 94.39 37.12 L 95.18 36.33 Z" stroke="rgba(255,255,255,0.92)" stroke-width="1.0" fill="none"/>
  <path d="M 94.54 31.59 A 0.92 0.92 0 0 1 94.65 31.16" stroke="rgba(255,255,255,0.92)" stroke-width="1.0" fill="none"/>
  <path d="M 94.73 32.16 A 0.63 0.63 0 0 1 94.69 31.76" stroke="rgba(255,255,255,0.92)" stroke-width="1.0" fill="none"/>
  <path d="M 95.00 33.06 A 0.76 0.76 0 0 1 94.72 32.76" stroke="rgba(255,255,255,0.92)" stroke-width="1.0" fill="none"/>
  <path d="M 95.26 32.78 A 0.42 0.42 0 0 1 94.97 32.51" stroke="rgba(255,255,255,0.92)" stroke-width="1.0" fill="none"/>
  <path d="M 95.03 24.76 A 3.78 3.78 0 0 1 95.37 24.79" stroke="rgba(255,255,255,0.92)" stroke-width="1.0" fill="none"/>
  <path d="M 95.48 37.46 A 0.56 0.56 0 0 1 95.18 37.47" stroke="rgba(255,255,255,0.92)" stroke-width="1.0" fill="none"/>
  <path d="M 95.53 37.43 A 0.64 0.64 0 0 1 95.17 37.67" stroke="rgba(255,255,255,0.92)" stroke-width="1.0" fill="none"/>
  <path d="M 95.40 40.17 A 2.12 2.12 0 0 1 95.08 40.40" stroke="rgba(255,255,255,0.92)" stroke-width="1.0" fill="none"/>
  <path d="M 95.00 34.99 A 1.64 1.64 0 0 1 95.26 34.69" stroke="rgba(255,255,255,0.92)" stroke-width="1.0" fill="none"/>
  <path d="M 94.81 37.19 A 0.41 0.41 0 0 1 94.87 36.86" stroke="rgba(255,255,255,0.92)" stroke-width="1.0" fill="none"/>
  <path d="M 94.72 37.59 A 0.67 0.67 0 0 1 94.69 37.16" stroke="rgba(255,255,255,0.92)" stroke-width="1.0" fill="none"/>
  <path d="M 82.74 27.45 L 83.93 27.45 L 83.93 25.87 L 82.74 25.87 Z" stroke="rgba(255,255,255,0.92)" stroke-width="1.0" fill="none"/>
  <path d="M 82.94 26.27 L 82.94 27.25 L 83.73 27.25 L 83.73 26.27" stroke="rgba(255,255,255,0.92)" stroke-width="1.0" fill="none"/>
  <path d="M 17.33 26.27 L 18.52 26.27" stroke="rgba(255,255,255,0.92)" stroke-width="1.0" fill="none"/>
  <path d="M 17.33 26.19 L 18.52 26.19" stroke="rgba(255,255,255,0.92)" stroke-width="1.0" fill="none"/>
  <path d="M 17.33 26.23 L 18.52 26.23" stroke="rgba(255,255,255,0.92)" stroke-width="1.0" fill="none"/>
  <path d="M 7.53 36.72 L 7.53 24.49 L 7.93 24.10 L 11.09 24.10 L 11.48 24.49 L 11.48 36.72 L 11.09 37.12 L 7.93 37.12 Z" stroke="rgba(255,255,255,0.92)" stroke-width="1.0" fill="none"/>
  <path d="M 7.80 15.11 L 7.80 90.11 L 8.59 90.90 L 75.70 90.90 L 76.48 90.11 L 76.48 15.11 L 75.70 14.32 L 8.59 14.32 Z" stroke="rgba(255,255,255,0.92)" stroke-width="1.0" fill="none"/>
  <path d="M 3.07 96.82 L 98.19 96.82" stroke="rgba(255,255,255,0.92)" stroke-width="1.0" fill="none"/>
  <path d="M 6.62 92.08 L 98.19 92.08" stroke="rgba(255,255,255,0.92)" stroke-width="1.0" fill="none"/>
  <path d="M 6.62 13.14 L 6.62 92.08" stroke="rgba(255,255,255,0.92)" stroke-width="1.0" fill="none"/>
  <path d="M 77.67 90.71 L 77.67 13.14" stroke="rgba(255,255,255,0.92)" stroke-width="1.0" fill="none"/>
  <path d="M 77.67 14.32 A 1.18 1.18 0 0 1 76.48 15.51" stroke="rgba(255,255,255,0.92)" stroke-width="1.0" fill="none"/>
  <path d="M 18.33 -247.40 A 133.43 133.43 0 0 1 40.07 -246.84" stroke="rgba(255,255,255,0.92)" stroke-width="1.0" fill="none"/>
  <path d="M 7.50 -342.17 A 188.08 188.08 0 0 1 38.06 -340.61" stroke="rgba(255,255,255,0.92)" stroke-width="1.0" fill="none"/>
  <path d="M 21.73 34.13 A 9.67 9.67 0 0 1 15.05 37.51" stroke="rgba(255,255,255,0.92)" stroke-width="1.0" fill="none"/>
  <path d="M 15.05 -3.29 A 11.64 11.64 0 0 1 18.33 -4.11" stroke="rgba(255,255,255,0.92)" stroke-width="1.0" fill="none"/>
  <path d="M 15.58 17.07 A 93.23 93.23 0 0 1 15.65 19.50" stroke="rgba(255,255,255,0.92)" stroke-width="1.0" fill="none"/>
  <path d="M 15.58 23.04 A 1.76 1.76 0 0 1 15.65 25.48" stroke="rgba(255,255,255,0.92)" stroke-width="1.0" fill="none"/>
  <path d="M 15.05 20.21 A 12.18 12.18 0 0 1 15.65 15.31" stroke="rgba(255,255,255,0.92)" stroke-width="1.0" fill="none"/>
  <path d="M 15.65 33.95 A 64.59 64.59 0 0 1 15.05 38.85" stroke="rgba(255,255,255,0.92)" stroke-width="1.0" fill="none"/>
  <path d="M 15.80 173.53 A 70.53 70.53 0 0 1 15.05 173.42" stroke="rgba(255,255,255,0.92)" stroke-width="1.0" fill="none"/>
  <path d="M 15.05 14.61 A 9.67 9.67 0 0 1 15.77 14.69" stroke="rgba(255,255,255,0.92)" stroke-width="1.0" fill="none"/>
  <path d="M 18.11 39.28 A 7.67 7.67 0 0 1 15.05 32.33" stroke="rgba(255,255,255,0.92)" stroke-width="1.0" fill="none"/>
  <path d="M 15.05 23.13 A 19.56 19.56 0 0 1 15.58 31.48" stroke="rgba(255,255,255,0.92)" stroke-width="1.0" fill="none"/>
  <path d="M 55.54 34.13 A 9.67 9.67 0 0 1 48.85 37.51" stroke="rgba(255,255,255,0.92)" stroke-width="1.0" fill="none"/>
  <path d="M 68.83 6.98 A 6.17 6.17 0 0 1 72.71 7.68" stroke="rgba(255,255,255,0.92)" stroke-width="1.0" fill="none"/>
  <path d="M 72.71 37.77 A 9.67 9.67 0 0 1 66.03 34.40" stroke="rgba(255,255,255,0.92)" stroke-width="1.0" fill="none"/>
  <path d="M 48.85 -47.83 A 33.79 33.79 0 0 1 58.17 -48.53" stroke="rgba(255,255,255,0.92)" stroke-width="1.0" fill="none"/>
  <path d="M 40.07 25.08 A 6.98 6.98 0 0 1 39.73 19.20" stroke="rgba(255,255,255,0.92)" stroke-width="1.0" fill="none"/>
  <path d="M 49.59 21.43 A 14.93 14.93 0 0 1 48.85 28.03" stroke="rgba(255,255,255,0.92)" stroke-width="1.0" fill="none"/>
  <path d="M 48.85 19.79 A 7.67 7.67 0 0 1 51.91 12.85" stroke="rgba(255,255,255,0.92)" stroke-width="1.0" fill="none"/>
  <path d="M 37.01 13.11 A 7.67 7.67 0 0 1 40.07 20.06" stroke="rgba(255,255,255,0.92)" stroke-width="1.0" fill="none"/>
  <path d="M 39.26 29.03 A 7.24 7.24 0 0 1 39.53 26.40" stroke="rgba(255,255,255,0.92)" stroke-width="1.0" fill="none"/>
  <path d="M 39.26 22.64 A 6.64 6.64 0 0 1 39.73 26.10" stroke="rgba(255,255,255,0.92)" stroke-width="1.0" fill="none"/>
  <path d="M 49.59 27.47 A 2.16 2.16 0 0 1 49.66 24.73" stroke="rgba(255,255,255,0.92)" stroke-width="1.0" fill="none"/>
  <path d="M 68.83 47.61 A 15.31 15.31 0 0 1 58.17 47.87" stroke="rgba(255,255,255,0.92)" stroke-width="1.0" fill="none"/>
  <path d="M 71.04 14.44 A 7.67 7.67 0 0 1 71.96 15.87" stroke="rgba(255,255,255,0.92)" stroke-width="1.0" fill="none"/>
  <path d="M 71.94 23.58 A 1.81 1.81 0 0 1 72.38 21.88" stroke="rgba(255,255,255,0.92)" stroke-width="1.0" fill="none"/>
  <path d="M 71.96 15.87 A 7.67 7.67 0 0 1 72.71 20.06" stroke="rgba(255,255,255,0.92)" stroke-width="1.0" fill="none"/>
  <path d="M 72.71 30.00 A 20.41 20.41 0 0 1 72.07 26.97" stroke="rgba(255,255,255,0.92)" stroke-width="1.0" fill="none"/>
  <path d="M 71.91 22.64 A 6.64 6.64 0 0 1 72.38 26.10" stroke="rgba(255,255,255,0.92)" stroke-width="1.0" fill="none"/>
  <path d="M 40.07 37.77 A 9.67 9.67 0 0 1 33.38 34.40" stroke="rgba(255,255,255,0.92)" stroke-width="1.0" fill="none"/>
  <path d="M 38.06 -24.75 A 29.05 29.05 0 0 1 47.68 -25.00" stroke="rgba(255,255,255,0.92)" stroke-width="1.0" fill="none"/>
  <path d="M 72.71 150.47 A 58.93 58.93 0 0 1 69.87 150.87" stroke="rgba(255,255,255,0.92)" stroke-width="1.0" fill="none"/>
  <path d="M 72.71 32.59 A 7.67 7.67 0 0 1 69.65 39.54" stroke="rgba(255,255,255,0.92)" stroke-width="1.0" fill="none"/>
  <path d="M 66.03 18.25 A 9.67 9.67 0 0 1 72.71 14.87" stroke="rgba(255,255,255,0.92)" stroke-width="1.0" fill="none"/>
  <path d="M 76.18 66.69 A 23.07 23.07 0 0 1 47.68 74.50" stroke="rgba(255,255,255,0.92)" stroke-width="1.0" fill="none"/>
  <path d="M 40.09 33.96 A 7.67 7.67 0 0 1 37.01 39.54" stroke="rgba(255,255,255,0.92)" stroke-width="1.0" fill="none"/>
  <path d="M 51.91 39.28 A 7.67 7.67 0 0 1 48.88 34.13" stroke="rgba(255,255,255,0.92)" stroke-width="1.0" fill="none"/>
  <path d="M 49.17 24.73 A 13.02 13.02 0 0 1 49.66 29.17" stroke="rgba(255,255,255,0.92)" stroke-width="1.0" fill="none"/>
  <path d="M 71.91 29.71 A 17.97 17.97 0 0 1 72.71 23.37" stroke="rgba(255,255,255,0.92)" stroke-width="1.0" fill="none"/>
  <path d="M 7.80 4.46 L 23.20 4.46" stroke="rgba(255,255,255,0.92)" stroke-width="1.0" fill="none"/>
  <path d="M 61.09 4.46 L 76.48 4.46" stroke="rgba(255,255,255,0.92)" stroke-width="1.0" fill="none"/>
  <path d="M 61.09 6.83 A 1.18 1.18 0 0 1 59.91 5.64" stroke="rgba(255,255,255,0.92)" stroke-width="1.0" fill="none"/>
  <path d="M 77.67 5.64 L 96.22 5.64" stroke="rgba(255,255,255,0.92)" stroke-width="1.0" fill="none"/>
  <path d="M 6.62 5.64 L 3.07 5.64" stroke="rgba(255,255,255,0.92)" stroke-width="1.0" fill="none"/>
  <path d="M 6.62 96.82 L 6.62 5.64" stroke="rgba(255,255,255,0.92)" stroke-width="1.0" fill="none"/>
  <path d="M 1.88 95.64 L 1.88 6.83" stroke="rgba(255,255,255,0.92)" stroke-width="1.0" fill="none"/>
  <path d="M 1.88 95.64 A 1.18 1.18 0 0 1 3.07 94.45" stroke="rgba(255,255,255,0.92)" stroke-width="1.0" fill="none"/>
  <path d="M 7.80 6.83 A 1.18 1.18 0 0 1 6.62 5.64" stroke="rgba(255,255,255,0.92)" stroke-width="1.0" fill="none"/>
  <path d="M 97.41 31.01 L 97.41 6.83" stroke="rgba(255,255,255,0.92)" stroke-width="1.0" fill="none"/>
  <path d="M 99.38 93.27 L 99.38 95.64" stroke="rgba(255,255,255,0.92)" stroke-width="1.0" fill="none"/>
  <path d="M 77.67 5.64 A 1.18 1.18 0 0 1 76.48 6.83" stroke="rgba(255,255,255,0.92)" stroke-width="1.0" fill="none"/>
  <path d="M 6.62 13.14 L 76.48 13.14" stroke="rgba(255,255,255,0.92)" stroke-width="1.0" fill="none"/>
  <path d="M 6.62 11.95 A 1.18 1.18 0 0 1 7.80 10.77" stroke="rgba(255,255,255,0.92)" stroke-width="1.0" fill="none"/>
  <path d="M 59.91 11.95 A 1.18 1.18 0 0 1 61.09 10.77" stroke="rgba(255,255,255,0.92)" stroke-width="1.0" fill="none"/>
  <path d="M 77.67 30.90 L 97.41 30.90" stroke="rgba(255,255,255,0.92)" stroke-width="1.0" fill="none"/>
  <path d="M 99.38 93.27 A 1.18 1.18 0 0 1 98.19 94.45" stroke="rgba(255,255,255,0.92)" stroke-width="1.0" fill="none"/>
  <path d="M 98.19 94.45 A 1.18 1.18 0 0 1 99.38 95.64" stroke="rgba(255,255,255,0.92)" stroke-width="1.0" fill="none"/>
  <path d="M 99.38 79.85 L 99.38 90.71" stroke="rgba(255,255,255,0.92)" stroke-width="1.0" fill="none"/>
  <path d="M 77.67 90.41 L 77.67 90.41" stroke="rgba(255,255,255,0.92)" stroke-width="1.0" fill="none"/>
  <path d="M 76.48 89.72 A 1.18 1.18 0 0 1 77.67 90.90" stroke="rgba(255,255,255,0.92)" stroke-width="1.0" fill="none"/>
  <path d="M 97.41 6.83 A 1.18 1.18 0 0 1 96.22 8.01" stroke="rgba(255,255,255,0.92)" stroke-width="1.0" fill="none"/>
  <path d="M 3.07 8.01 A 1.18 1.18 0 0 1 1.88 6.83" stroke="rgba(255,255,255,0.92)" stroke-width="1.0" fill="none"/>
  <path d="M 77.67 11.95 L 77.67 5.64" stroke="rgba(255,255,255,0.92)" stroke-width="1.0" fill="none"/>
  <path d="M 76.48 10.77 A 1.18 1.18 0 0 1 77.67 11.95" stroke="rgba(255,255,255,0.92)" stroke-width="1.0" fill="none"/>
  <path d="M 23.45 -52.28 A 61.23 61.23 0 0 1 41.16 -55.18" stroke="rgba(255,255,255,0.92)" stroke-width="1.0" fill="none"/>
  <path d="M 41.16 162.61 A 47.68 47.68 0 0 1 14.54 155.18" stroke="rgba(255,255,255,0.92)" stroke-width="1.0" fill="none"/>
  <path d="M 41.16 158.47 A 45.68 45.68 0 0 1 16.05 149.15" stroke="rgba(255,255,255,0.92)" stroke-width="1.0" fill="none"/>
  <path d="M 27.18 -83.52 A 76.32 76.32 0 0 1 51.04 -85.02" stroke="rgba(255,255,255,0.92)" stroke-width="1.0" fill="none"/>
  <path d="M 74.21 130.50 A 25.41 25.41 0 0 1 58.08 136.11" stroke="rgba(255,255,255,0.92)" stroke-width="1.0" fill="none"/>
  <path d="M 63.68 42.11 A 28.68 28.68 0 0 1 76.18 34.19" stroke="rgba(255,255,255,0.92)" stroke-width="1.0" fill="none"/>
  <path d="M 22.47 22.77 A 17.85 17.85 0 0 1 31.97 17.03" stroke="rgba(255,255,255,0.92)" stroke-width="1.0" fill="none"/>
  <path d="M 6.31 47.17 L 22.47 46.07 L 63.65 45.90 L 77.53 45.04" stroke="rgba(255,255,255,0.92)" stroke-width="1.0" fill="none"/>
  <path d="M 15.09 -2.23 A 29.02 29.02 0 0 1 26.76 -5.95" stroke="rgba(255,255,255,0.92)" stroke-width="1.0" fill="none"/>
  <path d="M 71.14 107.53 A 30.76 30.76 0 0 1 54.18 101.47" stroke="rgba(255,255,255,0.92)" stroke-width="1.0" fill="none"/>
  <path d="M 68.43 207.67 A 80.88 80.88 0 0 1 40.83 201.17" stroke="rgba(255,255,255,0.92)" stroke-width="1.0" fill="none"/>
  <path d="M 68.43 317.00 A 136.41 136.41 0 0 1 53.12 314.26" stroke="rgba(255,255,255,0.92)" stroke-width="1.0" fill="none"/>
  <path d="M 88.52 91.59 L 88.52 80.44" stroke="rgba(255,255,255,0.92)" stroke-width="1.0" fill="none"/>
  <path d="M 88.52 79.26 L 88.52 68.20" stroke="rgba(255,255,255,0.92)" stroke-width="1.0" fill="none"/>
  <path d="M 88.52 67.02 L 88.52 55.97" stroke="rgba(255,255,255,0.92)" stroke-width="1.0" fill="none"/>
  <path d="M 88.52 54.78 L 88.52 43.73" stroke="rgba(255,255,255,0.92)" stroke-width="1.0" fill="none"/>
  <path d="M 88.52 42.55 L 88.52 31.40" stroke="rgba(255,255,255,0.92)" stroke-width="1.0" fill="none"/>
  <path d="M 87.97 43.35 L 87.83 43.38 L 87.68 43.40 L 87.51 43.43 L 87.32 43.45 L 87.13 43.47 L 86.92 43.49 L 86.69 43.51 L 86.46 43.53 L 86.22 43.54 L 85.96 43.56 L 85.70 43.57 L 85.43 43.58 L 85.15 43.60 L 84.87 43.60 L 84.58 43.61 L 84.28 43.62 L 83.99 43.63 L 83.69 43.63 L 83.38 43.63 L 83.08 43.63 L 82.78 43.63 L 82.47 43.63 L 82.17 43.62 L 81.87 43.62 L 81.58 43.61 L 81.29 43.60 L 81.01 43.59 L 80.73 43.58 L 80.46 43.57 L 80.20 43.56 L 79.95 43.54 L 79.70 43.52 L 79.47 43.51 L 79.25 43.49 L 79.04 43.47 L 78.85 43.45 L 78.67 43.42 L 78.50 43.40 L 78.34 43.38 L 78.20 43.35 L 78.08 43.33 L 77.97 43.30 L 77.88 43.27 L 77.80 43.25 L 77.75 43.22 L 77.70 43.19 L 77.68 43.17 L 77.67 43.14" stroke="rgba(255,255,255,0.92)" stroke-width="1.0" fill="none"/>
  <path d="M 89.08 42.92 L 89.22 42.90 L 89.37 42.87 L 89.54 42.85 L 89.73 42.83 L 89.92 42.81 L 90.13 42.79 L 90.35 42.77 L 90.59 42.75 L 90.83 42.73 L 91.08 42.72 L 91.35 42.70 L 91.62 42.69 L 91.90 42.68 L 92.18 42.67 L 92.47 42.66 L 92.76 42.66 L 93.06 42.65 L 93.36 42.65 L 93.67 42.64 L 93.97 42.64 L 94.27 42.64 L 94.58 42.65 L 94.88 42.65 L 95.17 42.66 L 95.47 42.66 L 95.76 42.67 L 96.04 42.68 L 96.32 42.69 L 96.59 42.71 L 96.85 42.72 L 97.10 42.74 L 97.34 42.75 L 97.58 42.77 L 97.80 42.79 L 98.00 42.81 L 98.20 42.83 L 98.38 42.85 L 98.55 42.88 L 98.70 42.90 L 98.84 42.92 L 98.97 42.95 L 99.08 42.97 L 99.17 43.00 L 99.24 43.03 L 99.30 43.06 L 99.35 43.08 L 99.37 43.11 L 99.38 43.14" stroke="rgba(255,255,255,0.92)" stroke-width="1.0" fill="none"/>
  <path d="M 87.97 55.59 L 87.83 55.62 L 87.68 55.64 L 87.51 55.66 L 87.32 55.68 L 87.13 55.71 L 86.92 55.73 L 86.69 55.74 L 86.46 55.76 L 86.22 55.78 L 85.96 55.79 L 85.70 55.81 L 85.43 55.82 L 85.15 55.83 L 84.87 55.84 L 84.58 55.85 L 84.28 55.86 L 83.99 55.86 L 83.69 55.87 L 83.38 55.87 L 83.08 55.87 L 82.78 55.87 L 82.47 55.87 L 82.17 55.86 L 81.87 55.86 L 81.58 55.85 L 81.29 55.84 L 81.01 55.83 L 80.73 55.82 L 80.46 55.81 L 80.20 55.79 L 79.95 55.78 L 79.70 55.76 L 79.47 55.74 L 79.25 55.72 L 79.04 55.70 L 78.85 55.68 L 78.67 55.66 L 78.50 55.64 L 78.34 55.61 L 78.20 55.59 L 78.08 55.56 L 77.97 55.54 L 77.88 55.51 L 77.80 55.48 L 77.75 55.46 L 77.70 55.43 L 77.68 55.40 L 77.67 55.37" stroke="rgba(255,255,255,0.92)" stroke-width="1.0" fill="none"/>
  <path d="M 89.08 55.16 L 89.22 55.13 L 89.37 55.11 L 89.54 55.09 L 89.73 55.06 L 89.92 55.04 L 90.13 55.02 L 90.35 55.00 L 90.59 54.99 L 90.83 54.97 L 91.08 54.95 L 91.35 54.94 L 91.62 54.93 L 91.90 54.92 L 92.18 54.91 L 92.47 54.90 L 92.76 54.89 L 93.06 54.89 L 93.36 54.88 L 93.67 54.88 L 93.97 54.88 L 94.27 54.88 L 94.58 54.88 L 94.88 54.89 L 95.17 54.89 L 95.47 54.90 L 95.76 54.91 L 96.04 54.92 L 96.32 54.93 L 96.59 54.94 L 96.85 54.96 L 97.10 54.97 L 97.34 54.99 L 97.58 55.01 L 97.80 55.03 L 98.00 55.05 L 98.20 55.07 L 98.38 55.09 L 98.55 55.11 L 98.70 55.14 L 98.84 55.16 L 98.97 55.19 L 99.08 55.21 L 99.17 55.24 L 99.24 55.26 L 99.30 55.29 L 99.35 55.32 L 99.37 55.35 L 99.38 55.37" stroke="rgba(255,255,255,0.92)" stroke-width="1.0" fill="none"/>
  <path d="M 87.97 67.83 L 87.83 67.85 L 87.68 67.88 L 87.51 67.90 L 87.32 67.92 L 87.13 67.94 L 86.92 67.96 L 86.69 67.98 L 86.46 68.00 L 86.22 68.02 L 85.96 68.03 L 85.70 68.04 L 85.43 68.06 L 85.15 68.07 L 84.87 68.08 L 84.58 68.09 L 84.28 68.09 L 83.99 68.10 L 83.69 68.10 L 83.38 68.10 L 83.08 68.10 L 82.78 68.10 L 82.47 68.10 L 82.17 68.10 L 81.87 68.09 L 81.58 68.09 L 81.29 68.08 L 81.01 68.07 L 80.73 68.06 L 80.46 68.04 L 80.20 68.03 L 79.95 68.01 L 79.70 68.00 L 79.47 67.98 L 79.25 67.96 L 79.04 67.94 L 78.85 67.92 L 78.67 67.90 L 78.50 67.87 L 78.34 67.85 L 78.20 67.82 L 78.08 67.80 L 77.97 67.77 L 77.88 67.75 L 77.80 67.72 L 77.75 67.69 L 77.70 67.67 L 77.68 67.64 L 77.67 67.61" stroke="rgba(255,255,255,0.92)" stroke-width="1.0" fill="none"/>
  <path d="M 89.08 67.39 L 89.22 67.37 L 89.37 67.35 L 89.54 67.32 L 89.73 67.30 L 89.92 67.28 L 90.13 67.26 L 90.35 67.24 L 90.59 67.22 L 90.83 67.21 L 91.08 67.19 L 91.35 67.18 L 91.62 67.16 L 91.90 67.15 L 92.18 67.14 L 92.47 67.14 L 92.76 67.13 L 93.06 67.12 L 93.36 67.12 L 93.67 67.12 L 93.97 67.12 L 94.27 67.12 L 94.58 67.12 L 94.88 67.12 L 95.17 67.13 L 95.47 67.14 L 95.76 67.14 L 96.04 67.15 L 96.32 67.17 L 96.59 67.18 L 96.85 67.19 L 97.10 67.21 L 97.34 67.23 L 97.58 67.24 L 97.80 67.26 L 98.00 67.28 L 98.20 67.30 L 98.38 67.33 L 98.55 67.35 L 98.70 67.37 L 98.84 67.40 L 98.97 67.42 L 99.08 67.45 L 99.17 67.47 L 99.24 67.50 L 99.30 67.53 L 99.35 67.56 L 99.37 67.58 L 99.38 67.61" stroke="rgba(255,255,255,0.92)" stroke-width="1.0" fill="none"/>
  <path d="M 87.97 80.06 L 87.83 80.09 L 87.68 80.11 L 87.51 80.14 L 87.32 80.16 L 87.13 80.18 L 86.92 80.20 L 86.69 80.22 L 86.46 80.24 L 86.22 80.25 L 85.96 80.27 L 85.70 80.28 L 85.43 80.29 L 85.15 80.30 L 84.87 80.31 L 84.58 80.32 L 84.28 80.33 L 83.99 80.33 L 83.69 80.34 L 83.38 80.34 L 83.08 80.34 L 82.78 80.34 L 82.47 80.34 L 82.17 80.33 L 81.87 80.33 L 81.58 80.32 L 81.29 80.31 L 81.01 80.30 L 80.73 80.29 L 80.46 80.28 L 80.20 80.27 L 79.95 80.25 L 79.70 80.23 L 79.47 80.22 L 79.25 80.20 L 79.04 80.18 L 78.85 80.15 L 78.67 80.13 L 78.50 80.11 L 78.34 80.09 L 78.20 80.06 L 78.08 80.04 L 77.97 80.01 L 77.88 79.98 L 77.80 79.96 L 77.75 79.93 L 77.70 79.90 L 77.68 79.87 L 77.67 79.85" stroke="rgba(255,255,255,0.92)" stroke-width="1.0" fill="none"/>
  <path d="M 89.08 79.63 L 89.22 79.61 L 89.37 79.58 L 89.54 79.56 L 89.73 79.54 L 89.92 79.52 L 90.13 79.50 L 90.35 79.48 L 90.59 79.46 L 90.83 79.44 L 91.08 79.43 L 91.35 79.41 L 91.62 79.40 L 91.90 79.39 L 92.18 79.38 L 92.47 79.37 L 92.76 79.37 L 93.06 79.36 L 93.36 79.36 L 93.67 79.35 L 93.97 79.35 L 94.27 79.35 L 94.58 79.36 L 94.88 79.36 L 95.17 79.37 L 95.47 79.37 L 95.76 79.38 L 96.04 79.39 L 96.32 79.40 L 96.59 79.42 L 96.85 79.43 L 97.10 79.44 L 97.34 79.46 L 97.58 79.48 L 97.80 79.50 L 98.00 79.52 L 98.20 79.54 L 98.38 79.56 L 98.55 79.58 L 98.70 79.61 L 98.84 79.63 L 98.97 79.66 L 99.08 79.68 L 99.17 79.71 L 99.24 79.74 L 99.30 79.76 L 99.35 79.79 L 99.37 79.82 L 99.38 79.85" stroke="rgba(255,255,255,0.92)" stroke-width="1.0" fill="none"/>
  <path d="M 88.52 31.40 L 88.51 31.43 L 88.48 31.46 L 88.42 31.49 L 88.34 31.52 L 88.24 31.55 L 88.11 31.58 L 87.96 31.61 L 87.80 31.64 L 87.61 31.67 L 87.40 31.70 L 87.18 31.72 L 86.93 31.74 L 86.68 31.77 L 86.40 31.79 L 86.11 31.81 L 85.81 31.82 L 85.50 31.84 L 85.17 31.85 L 84.84 31.86 L 84.50 31.87 L 84.16 31.88 L 83.81 31.89 L 83.45 31.89 L 83.10 31.89 L 82.74 31.89 L 82.39 31.89 L 82.04 31.88 L 81.69 31.87 L 81.35 31.86 L 81.02 31.85 L 80.70 31.84 L 80.38 31.82 L 80.08 31.81 L 79.79 31.79 L 79.52 31.77 L 79.26 31.74 L 79.02 31.72 L 78.79 31.70 L 78.58 31.67 L 78.40 31.64 L 78.23 31.61 L 78.08 31.58 L 77.96 31.55 L 77.85 31.52 L 77.77 31.49 L 77.72 31.46 L 77.68 31.43 L 77.67 31.40" stroke="rgba(255,255,255,0.92)" stroke-width="1.0" fill="none"/>
  <path d="M 88.52 31.40 L 88.53 31.37 L 88.55 31.35 L 88.58 31.33 L 88.62 31.30 L 88.67 31.28 L 88.74 31.26 L 88.82 31.24 L 88.90 31.21 L 89.00 31.19 L 89.11 31.17 L 89.24 31.15 L 89.37 31.13 L 89.51 31.11 L 89.66 31.09 L 89.82 31.07 L 89.99 31.06 L 90.17 31.04 L 90.36 31.02 L 90.56 31.01 L 90.76 31.00 L 90.97 30.98 L 91.19 30.97 L 91.41 30.96 L 91.64 30.95 L 91.87 30.94 L 92.11 30.93 L 92.35 30.92 L 92.60 30.92 L 92.85 30.91 L 93.10 30.91 L 93.35 30.90 L 93.61 30.90 L 93.86 30.90 L 94.12 30.90 L 94.37 30.90 L 94.63 30.91 L 94.88 30.91 L 95.13 30.91 L 95.38 30.92 L 95.62 30.93 L 95.86 30.93 L 96.10 30.94 L 96.33 30.95 L 96.56 30.96 L 96.78 30.97 L 97.00 30.99 L 97.20 31.00 L 97.41 31.01" stroke="rgba(255,255,255,0.92)" stroke-width="1.0" fill="none"/>
  <path d="M 99.38 32.28 A 1.18 1.18 0 0 1 98.34 33.45" stroke="rgba(255,255,255,0.92)" stroke-width="1.0" fill="none"/>
  <path d="M 97.41 31.01 L 97.43 31.02 L 97.45 31.02 L 97.47 31.02 L 97.49 31.02 L 97.51 31.02 L 97.54 31.02 L 97.56 31.03 L 97.58 31.03 L 97.60 31.03 L 97.62 31.03 L 97.64 31.03 L 97.66 31.03 L 97.68 31.04 L 97.70 31.04 L 97.72 31.04 L 97.75 31.04 L 97.77 31.04 L 97.79 31.05 L 97.81 31.05 L 97.83 31.05 L 97.85 31.05 L 97.87 31.05 L 97.89 31.06 L 97.91 31.06 L 97.92 31.06 L 97.94 31.06 L 97.96 31.06 L 97.98 31.06 L 98.00 31.07 L 98.02 31.07 L 98.04 31.07 L 98.06 31.07 L 98.08 31.07 L 98.10 31.08 L 98.11 31.08 L 98.13 31.08 L 98.15 31.08 L 98.17 31.08 L 98.19 31.09 L 98.20 31.09 L 98.22 31.09 L 98.24 31.09 L 98.26 31.09 L 98.27 31.10 L 98.29 31.10 L 98.31 31.10 L 98.33 31.10 L 98.34 31.10" stroke="rgba(255,255,255,0.92)" stroke-width="1.0" fill="none"/>
  <path d="M 88.52 91.59 L 88.52 91.62 L 88.49 91.64 L 88.46 91.67 L 88.41 91.69 L 88.34 91.72 L 88.26 91.74 L 88.16 91.77 L 88.05 91.79 L 87.93 91.82 L 87.80 91.84 L 87.65 91.86 L 87.49 91.88 L 87.31 91.90 L 87.13 91.92 L 86.93 91.94 L 86.73 91.96 L 86.51 91.98 L 86.29 91.99 L 86.05 92.01 L 85.81 92.02 L 85.56 92.03 L 85.30 92.04 L 85.04 92.05 L 84.77 92.06 L 84.50 92.07 L 84.23 92.08 L 83.95 92.08 L 83.66 92.08 L 83.38 92.09 L 83.10 92.09 L 82.81 92.09 L 82.53 92.08 L 82.25 92.08 L 81.97 92.08 L 81.69 92.07 L 81.42 92.06 L 81.15 92.05 L 80.89 92.04 L 80.63 92.03 L 80.38 92.02 L 80.14 92.01 L 79.91 91.99 L 79.68 91.98 L 79.47 91.96 L 79.26 91.94 L 79.06 91.92 L 78.88 91.90 L 78.71 91.88" stroke="rgba(255,255,255,0.92)" stroke-width="1.0" fill="none"/>
  <path d="M 88.52 91.59 L 88.53 91.57 L 88.55 91.54 L 88.59 91.52 L 88.64 91.49 L 88.70 91.47 L 88.78 91.44 L 88.87 91.42 L 88.98 91.39 L 89.10 91.37 L 89.23 91.35 L 89.37 91.33 L 89.53 91.31 L 89.69 91.29 L 89.87 91.27 L 90.06 91.25 L 90.26 91.23 L 90.47 91.21 L 90.69 91.20 L 90.92 91.18 L 91.15 91.17 L 91.39 91.16 L 91.64 91.15 L 91.90 91.13 L 92.16 91.13 L 92.42 91.12 L 92.69 91.11 L 92.97 91.11 L 93.24 91.10 L 93.52 91.10 L 93.80 91.10 L 94.08 91.10 L 94.36 91.10 L 94.63 91.10 L 94.91 91.11 L 95.18 91.11 L 95.45 91.12 L 95.72 91.13 L 95.98 91.13 L 96.24 91.14 L 96.49 91.16 L 96.73 91.17 L 96.97 91.18 L 97.19 91.20 L 97.41 91.21 L 97.62 91.23 L 97.83 91.25 L 98.02 91.26 L 98.19 91.28" stroke="rgba(255,255,255,0.92)" stroke-width="1.0" fill="none"/>
  <path d="M 77.67 90.71 A 1.18 1.18 0 0 1 78.71 89.53" stroke="rgba(255,255,255,0.92)" stroke-width="1.0" fill="none"/>
  <path d="M 98.34 89.53 A 1.18 1.18 0 0 1 99.38 90.71" stroke="rgba(255,255,255,0.92)" stroke-width="1.0" fill="none"/>
  <path d="M 98.19 92.08 L 98.19 91.90" stroke="rgba(255,255,255,0.92)" stroke-width="1.0" fill="none"/>
  <path d="M 98.19 91.28 L 98.20 91.28 L 98.20 91.28 L 98.20 91.29 L 98.21 91.29 L 98.21 91.29 L 98.21 91.29 L 98.22 91.29 L 98.22 91.29 L 98.22 91.29 L 98.23 91.29 L 98.23 91.29 L 98.23 91.29 L 98.24 91.29 L 98.24 91.29 L 98.24 91.29 L 98.24 91.29 L 98.25 91.29 L 98.25 91.29 L 98.25 91.29 L 98.26 91.29 L 98.26 91.29 L 98.26 91.29 L 98.27 91.29 L 98.27 91.29 L 98.27 91.29 L 98.28 91.29 L 98.28 91.29 L 98.28 91.29 L 98.28 91.29 L 98.29 91.30 L 98.29 91.30 L 98.29 91.30 L 98.30 91.30 L 98.30 91.30 L 98.30 91.30 L 98.31 91.30 L 98.31 91.30 L 98.31 91.30 L 98.32 91.30 L 98.32 91.30 L 98.32 91.30 L 98.32 91.30 L 98.33 91.30 L 98.33 91.30 L 98.33 91.30 L 98.34 91.30 L 98.34 91.30 L 98.34 91.30" stroke="rgba(255,255,255,0.92)" stroke-width="1.0" fill="none"/>
  <path d="M 77.67 92.08 L 77.67 96.82" stroke="rgba(255,255,255,0.92)" stroke-width="1.0" fill="none"/>
  <path d="M 78.57 92.08 L 78.57 96.82" stroke="rgba(255,255,255,0.92)" stroke-width="1.0" fill="none"/>
  <path d="M 82.73 92.08 L 82.73 96.82" stroke="rgba(255,255,255,0.92)" stroke-width="1.0" fill="none"/>
  <path d="M 85.95 92.08 L 85.95 96.82" stroke="rgba(255,255,255,0.92)" stroke-width="1.0" fill="none"/>
  <path d="M 80.01 92.08 L 80.01 96.82" stroke="rgba(255,255,255,0.92)" stroke-width="1.0" fill="none"/>
  <path d="M 77.67 6.07 L 97.13 6.07" stroke="rgba(255,255,255,0.92)" stroke-width="1.0" fill="none"/>
  <path d="M 77.67 6.41 L 97.33 6.41" stroke="rgba(255,255,255,0.92)" stroke-width="1.0" fill="none"/>
  <path d="M 97.41 6.83 L 77.67 6.83" stroke="rgba(255,255,255,0.92)" stroke-width="1.0" fill="none"/>
  <path d="M 24.38 5.64 L 24.38 11.95" stroke="rgba(255,255,255,0.92)" stroke-width="1.0" fill="none"/>
  <path d="M 24.38 5.64 A 1.18 1.18 0 0 1 23.20 6.83" stroke="rgba(255,255,255,0.92)" stroke-width="1.0" fill="none"/>
  <path d="M 42.14 5.64 L 42.14 11.95" stroke="rgba(255,255,255,0.92)" stroke-width="1.0" fill="none"/>
  <path d="M 40.96 10.77 A 1.18 1.18 0 0 1 42.14 11.95" stroke="rgba(255,255,255,0.92)" stroke-width="1.0" fill="none"/>
  <path d="M 42.14 5.64 A 1.18 1.18 0 0 1 40.96 6.83" stroke="rgba(255,255,255,0.92)" stroke-width="1.0" fill="none"/>
  <path d="M 59.91 5.64 L 59.91 11.95" stroke="rgba(255,255,255,0.92)" stroke-width="1.0" fill="none"/>
  <path d="M 58.72 10.77 A 1.18 1.18 0 0 1 59.91 11.95" stroke="rgba(255,255,255,0.92)" stroke-width="1.0" fill="none"/>
  <path d="M 59.91 5.64 A 1.18 1.18 0 0 1 58.72 6.83" stroke="rgba(255,255,255,0.92)" stroke-width="1.0" fill="none"/>
  <path d="M 77.67 13.14 L 97.41 13.14" stroke="rgba(255,255,255,0.92)" stroke-width="1.0" fill="none"/>
  <path d="M 58.72 4.46 L 43.33 4.46" stroke="rgba(255,255,255,0.92)" stroke-width="1.0" fill="none"/>
  <path d="M 6.62 6.72 L 77.67 6.72" stroke="rgba(255,255,255,0.92)" stroke-width="1.0" fill="none"/>
  <path d="M 40.96 4.46 L 25.57 4.46" stroke="rgba(255,255,255,0.92)" stroke-width="1.0" fill="none"/>
  <path d="M 25.57 6.83 A 1.18 1.18 0 0 1 24.38 5.64" stroke="rgba(255,255,255,0.92)" stroke-width="1.0" fill="none"/>
  <path d="M 43.33 6.83 A 1.18 1.18 0 0 1 42.14 5.64" stroke="rgba(255,255,255,0.92)" stroke-width="1.0" fill="none"/>
  <path d="M 42.14 11.95 A 1.18 1.18 0 0 1 43.33 10.77" stroke="rgba(255,255,255,0.92)" stroke-width="1.0" fill="none"/>
  <path d="M 23.20 10.77 A 1.18 1.18 0 0 1 24.38 11.95" stroke="rgba(255,255,255,0.92)" stroke-width="1.0" fill="none"/>
  <path d="M 24.38 11.95 A 1.18 1.18 0 0 1 25.57 10.77" stroke="rgba(255,255,255,0.92)" stroke-width="1.0" fill="none"/>
  <path d="M 6.62 5.64 L 77.67 5.64" stroke="rgba(255,255,255,0.92)" stroke-width="1.0" fill="none"/>
  <path d="M 6.66 5.32 L 24.34 5.32" stroke="rgba(255,255,255,0.92)" stroke-width="1.0" fill="none"/>
  <path d="M 24.43 5.32 L 42.10 5.32" stroke="rgba(255,255,255,0.92)" stroke-width="1.0" fill="none"/>
  <path d="M 42.19 5.32 L 59.86 5.32" stroke="rgba(255,255,255,0.92)" stroke-width="1.0" fill="none"/>
  <path d="M 59.95 5.32 L 77.63 5.32" stroke="rgba(255,255,255,0.92)" stroke-width="1.0" fill="none"/>
  <path d="M 60.10 4.99 L 77.47 4.99" stroke="rgba(255,255,255,0.92)" stroke-width="1.0" fill="none"/>
  <path d="M 6.81 4.99 L 24.19 4.99" stroke="rgba(255,255,255,0.92)" stroke-width="1.0" fill="none"/>
  <path d="M 24.58 4.99 L 41.95 4.99" stroke="rgba(255,255,255,0.92)" stroke-width="1.0" fill="none"/>
  <path d="M 42.34 4.99 L 59.71 4.99" stroke="rgba(255,255,255,0.92)" stroke-width="1.0" fill="none"/>
  <path d="M 25.49 9.86 A 1.82 1.82 0 0 1 24.45 9.49" stroke="rgba(255,255,255,0.92)" stroke-width="1.0" fill="none"/>
  <path d="M 24.27 8.32 A 0.97 0.97 0 0 1 23.50 8.51" stroke="rgba(255,255,255,0.92)" stroke-width="1.0" fill="none"/>
  <path d="M 24.35 11.20 A 1.40 1.40 0 0 1 23.60 11.82" stroke="rgba(255,255,255,0.92)" stroke-width="1.0" fill="none"/>
  <path d="M 25.32 24.63 A 7.17 7.17 0 0 1 24.45 24.55" stroke="rgba(255,255,255,0.92)" stroke-width="1.0" fill="none"/>
  <path d="M 25.61 13.23 A 1.83 1.83 0 0 1 24.45 12.47" stroke="rgba(255,255,255,0.92)" stroke-width="1.0" fill="none"/>
  <path d="M 24.38 10.07 A 0.50 0.50 0 0 1 23.57 10.41" stroke="rgba(255,255,255,0.92)" stroke-width="1.0" fill="none"/>
  <path d="M 24.31 7.82 A 1.15 1.15 0 0 1 23.59 8.40" stroke="rgba(255,255,255,0.92)" stroke-width="1.0" fill="none"/>
  <path d="M 24.43 10.63 A 1.09 1.09 0 0 1 23.84 10.98" stroke="rgba(255,255,255,0.92)" stroke-width="1.0" fill="none"/>
  <path d="M 7.68 9.86 A 1.82 1.82 0 0 1 6.64 9.49" stroke="rgba(255,255,255,0.92)" stroke-width="1.0" fill="none"/>
  <path d="M 7.50 24.63 A 7.17 7.17 0 0 1 6.63 24.55" stroke="rgba(255,255,255,0.92)" stroke-width="1.0" fill="none"/>
  <path d="M 7.79 13.23 A 1.83 1.83 0 0 1 6.63 12.47" stroke="rgba(255,255,255,0.92)" stroke-width="1.0" fill="none"/>
  <path d="M 43.26 9.86 A 1.82 1.82 0 0 1 42.22 9.49" stroke="rgba(255,255,255,0.92)" stroke-width="1.0" fill="none"/>
  <path d="M 42.03 8.32 A 0.97 0.97 0 0 1 41.27 8.51" stroke="rgba(255,255,255,0.92)" stroke-width="1.0" fill="none"/>
  <path d="M 42.11 11.20 A 1.40 1.40 0 0 1 41.37 11.82" stroke="rgba(255,255,255,0.92)" stroke-width="1.0" fill="none"/>
  <path d="M 43.08 24.63 A 7.17 7.17 0 0 1 42.21 24.55" stroke="rgba(255,255,255,0.92)" stroke-width="1.0" fill="none"/>
  <path d="M 43.37 13.23 A 1.83 1.83 0 0 1 42.21 12.47" stroke="rgba(255,255,255,0.92)" stroke-width="1.0" fill="none"/>
  <path d="M 42.14 10.07 A 0.50 0.50 0 0 1 41.34 10.41" stroke="rgba(255,255,255,0.92)" stroke-width="1.0" fill="none"/>
  <path d="M 42.08 7.82 A 1.15 1.15 0 0 1 41.36 8.40" stroke="rgba(255,255,255,0.92)" stroke-width="1.0" fill="none"/>
  <path d="M 42.20 10.63 A 1.09 1.09 0 0 1 41.60 10.98" stroke="rgba(255,255,255,0.92)" stroke-width="1.0" fill="none"/>
  <path d="M 61.02 9.86 A 1.82 1.82 0 0 1 59.98 9.49" stroke="rgba(255,255,255,0.92)" stroke-width="1.0" fill="none"/>
  <path d="M 59.79 8.32 A 0.97 0.97 0 0 1 59.03 8.51" stroke="rgba(255,255,255,0.92)" stroke-width="1.0" fill="none"/>
  <path d="M 59.87 11.20 A 1.40 1.40 0 0 1 59.13 11.82" stroke="rgba(255,255,255,0.92)" stroke-width="1.0" fill="none"/>
  <path d="M 60.84 24.63 A 7.17 7.17 0 0 1 59.97 24.55" stroke="rgba(255,255,255,0.92)" stroke-width="1.0" fill="none"/>
  <path d="M 61.13 13.23 A 1.83 1.83 0 0 1 59.97 12.47" stroke="rgba(255,255,255,0.92)" stroke-width="1.0" fill="none"/>
  <path d="M 59.91 10.07 A 0.50 0.50 0 0 1 59.10 10.41" stroke="rgba(255,255,255,0.92)" stroke-width="1.0" fill="none"/>
  <path d="M 59.84 7.82 A 1.15 1.15 0 0 1 59.12 8.40" stroke="rgba(255,255,255,0.92)" stroke-width="1.0" fill="none"/>
  <path d="M 59.96 10.63 A 1.09 1.09 0 0 1 59.36 10.98" stroke="rgba(255,255,255,0.92)" stroke-width="1.0" fill="none"/>
  <path d="M 77.56 8.32 A 0.97 0.97 0 0 1 76.79 8.51" stroke="rgba(255,255,255,0.92)" stroke-width="1.0" fill="none"/>
  <path d="M 77.64 11.20 A 1.40 1.40 0 0 1 76.89 11.82" stroke="rgba(255,255,255,0.92)" stroke-width="1.0" fill="none"/>
  <path d="M 77.67 10.07 A 0.50 0.50 0 0 1 76.86 10.41" stroke="rgba(255,255,255,0.92)" stroke-width="1.0" fill="none"/>
  <path d="M 77.60 7.82 A 1.15 1.15 0 0 1 76.88 8.40" stroke="rgba(255,255,255,0.92)" stroke-width="1.0" fill="none"/>
  <path d="M 77.72 10.63 A 1.09 1.09 0 0 1 77.13 10.98" stroke="rgba(255,255,255,0.92)" stroke-width="1.0" fill="none"/>
  <path d="M 94.30 29.61 L 100.00 14.89 L 88.96 9.66 L 83.26 25.34 Z" stroke="rgba(255,255,255,0.92)" stroke-width="1.0" fill="none"/>
  <circle cx="81.68" cy="17.69" r="3.95" stroke="rgba(255,255,255,0.92)" stroke-width="1.0" fill="none"/>
  <circle cx="81.68" cy="17.69" r="0.99" stroke="rgba(255,255,255,0.92)" stroke-width="1.0" fill="none"/>
  <path d="M 85.18 21.30 A 2.77 2.77 0 0 1 82.40 20.15" stroke="rgba(255,255,255,0.92)" stroke-width="1.0" fill="none"/>
  <path d="M 85.56 24.62 A 4.03 4.03 0 0 1 82.53 24.39" stroke="rgba(255,255,255,0.92)" stroke-width="1.0" fill="none"/>
  <path d="M 81.82 21.94 A 3.45 3.45 0 0 1 81.68 18.97" stroke="rgba(255,255,255,0.92)" stroke-width="1.0" fill="none"/>
  <circle cx="81.68" cy="17.69" r="2.80" stroke="rgba(255,255,255,0.92)" stroke-width="1.0" fill="none"/>
  <circle cx="88.52" cy="67.61" r="0.59" stroke="rgba(255,255,255,0.92)" stroke-width="1.0" fill="none"/>
  <circle cx="88.52" cy="55.37" r="0.59" stroke="rgba(255,255,255,0.92)" stroke-width="1.0" fill="none"/>
  <circle cx="88.52" cy="43.14" r="0.59" stroke="rgba(255,255,255,0.92)" stroke-width="1.0" fill="none"/>
  <circle cx="88.52" cy="79.85" r="0.59" stroke="rgba(255,255,255,0.92)" stroke-width="1.0" fill="none"/>
  <path d="M 99.38 67.61 L 99.38 79.85" stroke="rgba(255,255,255,0.92)" stroke-width="1.0" fill="none"/>
  <path d="M 99.38 67.61 L 99.38 55.37" stroke="rgba(255,255,255,0.92)" stroke-width="1.0" fill="none"/>
  <path d="M 99.38 55.26 L 99.38 43.14" stroke="rgba(255,255,255,0.92)" stroke-width="1.0" fill="none"/>
  <path d="M 99.38 43.14 L 99.38 32.28" stroke="rgba(255,255,255,0.92)" stroke-width="1.0" fill="none"/>
  <path d="M 99.38 55.26 L 99.38 55.37" stroke="rgba(255,255,255,0.92)" stroke-width="1.0" fill="none"/>
  <path d="M 1.88 23.80 L 6.62 23.80" stroke="rgba(255,255,255,0.92)" stroke-width="1.0" fill="none"/>
  <path d="M 1.88 22.89 L 6.62 22.89" stroke="rgba(255,255,255,0.92)" stroke-width="1.0" fill="none"/>
  <path d="M 1.88 18.74 L 6.62 18.74" stroke="rgba(255,255,255,0.92)" stroke-width="1.0" fill="none"/>
  <path d="M 1.88 15.51 L 6.62 15.51" stroke="rgba(255,255,255,0.92)" stroke-width="1.0" fill="none"/>
  <path d="M 1.88 21.46 L 6.62 21.46" stroke="rgba(255,255,255,0.92)" stroke-width="1.0" fill="none"/>
  <path d="M 1.88 38.79 L 1.88 13.93" stroke="rgba(255,255,255,0.92)" stroke-width="1.0" fill="none"/>
  <path d="M 6.62 26.56 L 6.62 8.01" stroke="rgba(255,255,255,0.92)" stroke-width="1.0" fill="none"/>
  <path d="M 77.67 8.80 L 96.22 8.80" stroke="rgba(255,255,255,0.92)" stroke-width="1.0" fill="none"/>
  <path d="M 7.80 6.83 L 23.20 6.83" stroke="rgba(255,255,255,0.92)" stroke-width="1.0" fill="none"/>
  <path d="M 25.57 6.83 L 40.96 6.83" stroke="rgba(255,255,255,0.92)" stroke-width="1.0" fill="none"/>
  <path d="M 43.33 6.83 L 58.72 6.83" stroke="rgba(255,255,255,0.92)" stroke-width="1.0" fill="none"/>
  <path d="M 61.09 6.83 L 76.48 6.83" stroke="rgba(255,255,255,0.92)" stroke-width="1.0" fill="none"/>
  <path d="M 7.80 9.19 A 1.18 1.18 0 0 1 6.62 8.01" stroke="rgba(255,255,255,0.92)" stroke-width="1.0" fill="none"/>
  <path d="M 6.62 12.75 L 3.07 12.75" stroke="rgba(255,255,255,0.92)" stroke-width="1.0" fill="none"/>
  <path d="M 3.07 15.12 A 1.18 1.18 0 0 1 1.88 13.93" stroke="rgba(255,255,255,0.92)" stroke-width="1.0" fill="none"/>
  <path d="M 1.88 26.56 L 24.38 26.56" stroke="rgba(255,255,255,0.92)" stroke-width="1.0" fill="none"/>
  <path d="M 3.46 40.37 L 99.38 40.37" stroke="rgba(255,255,255,0.92)" stroke-width="1.0" fill="none"/>
  <path d="M 1.88 38.79 A 1.58 1.58 0 0 1 3.46 37.21" stroke="rgba(255,255,255,0.92)" stroke-width="1.0" fill="none"/>
  <path d="M 9.89 41.86 L 9.89 41.96 L 9.89 42.06 Z" stroke="rgba(255,255,255,0.92)" stroke-width="1.0" fill="none"/>
  <path d="M 9.89 41.86 L 9.89 41.96 L 9.89 42.06 Z" stroke="rgba(255,255,255,0.92)" stroke-width="1.0" fill="none"/>
  <path d="M 11.73 41.86 L 11.73 40.37" stroke="rgba(255,255,255,0.92)" stroke-width="1.0" fill="none"/>
  <path d="M 10.15 41.86 L 10.15 40.37" stroke="rgba(255,255,255,0.92)" stroke-width="1.0" fill="none"/>
  <path d="M 11.73 41.67 L 11.71 41.66 L 11.68 41.66 L 11.65 41.65 L 11.63 41.64 L 11.60 41.64 L 11.57 41.63 L 11.54 41.62 L 11.51 41.62 L 11.47 41.61 L 11.44 41.61 L 11.41 41.60 L 11.38 41.60 L 11.34 41.59 L 11.31 41.59 L 11.27 41.59 L 11.24 41.58 L 11.20 41.58 L 11.16 41.58 L 11.13 41.58 L 11.09 41.58 L 11.05 41.57 L 11.02 41.57 L 10.98 41.57 L 10.94 41.57 L 10.90 41.57 L 10.87 41.57 L 10.83 41.57 L 10.79 41.58 L 10.76 41.58 L 10.72 41.58 L 10.68 41.58 L 10.65 41.58 L 10.61 41.59 L 10.58 41.59 L 10.54 41.59 L 10.51 41.60 L 10.47 41.60 L 10.44 41.61 L 10.41 41.61 L 10.38 41.62 L 10.35 41.62 L 10.32 41.63 L 10.29 41.64 L 10.26 41.64 L 10.23 41.65 L 10.20 41.66 L 10.18 41.66 L 10.15 41.67" stroke="rgba(255,255,255,0.92)" stroke-width="1.0" fill="none"/>
  <path d="M 10.15 37.10 A 2.51 2.51 0 0 1 11.73 37.10" stroke="rgba(255,255,255,0.92)" stroke-width="1.0" fill="none"/>
  <path d="M 11.99 41.86 L 11.99 42.06" stroke="rgba(255,255,255,0.92)" stroke-width="1.0" fill="none"/>
  <path d="M 9.89 41.86 L 9.89 42.06" stroke="rgba(255,255,255,0.92)" stroke-width="1.0" fill="none"/>
  <path d="M 11.99 42.06 L 11.99 42.04 L 11.98 42.02 L 11.97 42.00 L 11.96 41.99 L 11.94 41.97 L 11.91 41.95 L 11.88 41.93 L 11.85 41.92 L 11.81 41.90 L 11.77 41.88 L 11.73 41.87 L 11.68 41.85 L 11.63 41.84 L 11.58 41.83 L 11.52 41.82 L 11.47 41.81 L 11.41 41.80 L 11.34 41.79 L 11.28 41.79 L 11.21 41.78 L 11.15 41.78 L 11.08 41.77 L 11.01 41.77 L 10.94 41.77 L 10.87 41.77 L 10.81 41.77 L 10.74 41.78 L 10.67 41.78 L 10.60 41.79 L 10.54 41.79 L 10.48 41.80 L 10.42 41.81 L 10.36 41.82 L 10.30 41.83 L 10.25 41.84 L 10.20 41.85 L 10.15 41.87 L 10.11 41.88 L 10.07 41.90 L 10.03 41.92 L 10.00 41.93 L 9.97 41.95 L 9.95 41.97 L 9.93 41.99 L 9.91 42.00 L 9.90 42.02 L 9.90 42.04 L 9.89 42.06" stroke="rgba(255,255,255,0.92)" stroke-width="1.0" fill="none"/>
  <path d="M 99.38 40.37 L 99.38 29.62" stroke="rgba(255,255,255,0.92)" stroke-width="1.0" fill="none"/>
  <path d="M 97.41 28.50 L 97.41 9.98" stroke="rgba(255,255,255,0.92)" stroke-width="1.0" fill="none"/>
  <path d="M 97.41 24.98 A 0.39 0.39 0 0 1 97.01 25.38" stroke="rgba(255,255,255,0.92)" stroke-width="1.0" fill="none"/>
  <path d="M 97.41 9.98 A 1.18 1.18 0 0 1 96.22 11.17" stroke="rgba(255,255,255,0.92)" stroke-width="1.0" fill="none"/>
  <path d="M 24.38 24.59 L 24.38 8.01" stroke="rgba(255,255,255,0.92)" stroke-width="1.0" fill="none"/>
  <path d="M 42.14 24.59 L 42.14 8.01" stroke="rgba(255,255,255,0.92)" stroke-width="1.0" fill="none"/>
  <path d="M 59.91 24.59 L 59.91 8.01" stroke="rgba(255,255,255,0.92)" stroke-width="1.0" fill="none"/>
  <path d="M 77.67 24.98 L 77.67 8.01" stroke="rgba(255,255,255,0.92)" stroke-width="1.0" fill="none"/>
  <path d="M 77.67 8.01 A 1.18 1.18 0 0 1 76.48 9.19" stroke="rgba(255,255,255,0.92)" stroke-width="1.0" fill="none"/>
  <path d="M 17.61 13.94 L 24.14 13.94" stroke="rgba(255,255,255,0.92)" stroke-width="1.0" fill="none"/>
  <path d="M 17.61 14.13 L 24.14 14.13" stroke="rgba(255,255,255,0.92)" stroke-width="1.0" fill="none"/>
  <path d="M 31.06 13.94 L 24.54 13.94" stroke="rgba(255,255,255,0.92)" stroke-width="1.0" fill="none"/>
  <path d="M 31.06 14.13 L 24.54 14.13" stroke="rgba(255,255,255,0.92)" stroke-width="1.0" fill="none"/>
  <path d="M 10.20 31.62 A 3.56 3.56 0 0 1 6.81 30.30" stroke="rgba(255,255,255,0.92)" stroke-width="1.0" fill="none"/>
  <path d="M 66.59 13.94 L 60.06 13.94" stroke="rgba(255,255,255,0.92)" stroke-width="1.0" fill="none"/>
  <path d="M 66.59 14.13 L 60.06 14.13" stroke="rgba(255,255,255,0.92)" stroke-width="1.0" fill="none"/>
  <path d="M 53.14 13.94 L 59.67 13.94" stroke="rgba(255,255,255,0.92)" stroke-width="1.0" fill="none"/>
  <path d="M 53.14 14.13 L 59.67 14.13" stroke="rgba(255,255,255,0.92)" stroke-width="1.0" fill="none"/>
  <path d="M 74.09 24.59 L 10.20 24.59" stroke="rgba(255,255,255,0.92)" stroke-width="1.0" fill="none"/>
  <path d="M 77.48 30.30 A 3.56 3.56 0 0 1 74.09 31.62" stroke="rgba(255,255,255,0.92)" stroke-width="1.0" fill="none"/>
  <path d="M 77.67 27.57 A 7.28 7.28 0 0 1 77.48 29.22" stroke="rgba(255,255,255,0.92)" stroke-width="1.0" fill="none"/>
  <path d="M 77.48 30.73 A 3.97 3.97 0 0 1 76.74 29.11" stroke="rgba(255,255,255,0.92)" stroke-width="1.0" fill="none"/>
  <path d="M 98.75 2818.28 A 1396.87 1396.87 0 0 1 24.38 2820.29" stroke="rgba(255,255,255,0.92)" stroke-width="1.0" fill="none"/>
  <path d="M 99.38 29.62 A 1.18 1.18 0 0 1 98.75 30.67" stroke="rgba(255,255,255,0.92)" stroke-width="1.0" fill="none"/>
  <path d="M 6.81 29.22 A 7.28 7.28 0 0 1 6.69 28.57" stroke="rgba(255,255,255,0.92)" stroke-width="1.0" fill="none"/>
  <path d="M 7.21 30.08 A 3.97 3.97 0 0 1 6.81 30.73" stroke="rgba(255,255,255,0.92)" stroke-width="1.0" fill="none"/>
  <path d="M 1.88 25.34 L 6.62 25.34" stroke="rgba(255,255,255,0.92)" stroke-width="1.0" fill="none"/>
  <path d="M 1.88 19.63 L 6.62 19.63" stroke="rgba(255,255,255,0.92)" stroke-width="1.0" fill="none"/>
  <path d="M 1.88 16.19 L 6.62 16.19" stroke="rgba(255,255,255,0.92)" stroke-width="1.0" fill="none"/>
  <path d="M 1.88 14.47 L 6.62 14.47" stroke="rgba(255,255,255,0.92)" stroke-width="1.0" fill="none"/>
  <path d="M 6.62 13.61 L 1.93 13.61" stroke="rgba(255,255,255,0.92)" stroke-width="1.0" fill="none"/>
  <path d="M 98.98 29.62 L 98.23 28.83 L 24.38 26.91 L 2.28 26.91 L 2.28 38.79 L 3.46 39.98 L 98.98 39.98 Z" stroke="rgba(255,255,255,0.92)" stroke-width="1.0" fill="none"/>
  <path d="M 78.06 24.59 L 97.01 24.59" stroke="rgba(255,255,255,0.92)" stroke-width="1.0" fill="none"/>
  <path d="M 78.06 25.38 A 0.39 0.39 0 0 1 77.67 24.98" stroke="rgba(255,255,255,0.92)" stroke-width="1.0" fill="none"/>
  <path d="M 77.72 24.79 L 97.35 24.79" stroke="rgba(255,255,255,0.92)" stroke-width="1.0" fill="none"/>
  <path d="M 77.67 24.98 L 97.41 24.98" stroke="rgba(255,255,255,0.92)" stroke-width="1.0" fill="none"/>
  <path d="M 61.09 9.19 A 1.18 1.18 0 0 1 59.91 8.01" stroke="rgba(255,255,255,0.92)" stroke-width="1.0" fill="none"/>
  <path d="M 24.38 8.01 A 1.18 1.18 0 0 1 23.20 9.19" stroke="rgba(255,255,255,0.92)" stroke-width="1.0" fill="none"/>
  <path d="M 42.14 8.01 A 1.18 1.18 0 0 1 40.96 9.19" stroke="rgba(255,255,255,0.92)" stroke-width="1.0" fill="none"/>
  <path d="M 59.91 8.01 A 1.18 1.18 0 0 1 58.72 9.19" stroke="rgba(255,255,255,0.92)" stroke-width="1.0" fill="none"/>
  <path d="M 43.33 9.19 A 1.18 1.18 0 0 1 42.14 8.01" stroke="rgba(255,255,255,0.92)" stroke-width="1.0" fill="none"/>
  <path d="M 25.57 9.19 A 1.18 1.18 0 0 1 24.38 8.01" stroke="rgba(255,255,255,0.92)" stroke-width="1.0" fill="none"/>
  <path d="M 6.62 17.88 A 1.18 1.18 0 0 1 7.80 16.69" stroke="rgba(255,255,255,0.92)" stroke-width="1.0" fill="none"/>
  <path d="M 25.49 17.52 A 1.82 1.82 0 0 1 24.45 17.15" stroke="rgba(255,255,255,0.92)" stroke-width="1.0" fill="none"/>
  <path d="M 24.27 15.98 A 0.97 0.97 0 0 1 23.50 16.17" stroke="rgba(255,255,255,0.92)" stroke-width="1.0" fill="none"/>
  <path d="M 24.35 18.07 A 1.40 1.40 0 0 1 23.60 18.70" stroke="rgba(255,255,255,0.92)" stroke-width="1.0" fill="none"/>
  <path d="M 25.32 31.51 A 7.17 7.17 0 0 1 24.45 31.42" stroke="rgba(255,255,255,0.92)" stroke-width="1.0" fill="none"/>
  <path d="M 25.61 20.11 A 1.83 1.83 0 0 1 24.45 19.35" stroke="rgba(255,255,255,0.92)" stroke-width="1.0" fill="none"/>
  <path d="M 24.38 16.95 A 0.50 0.50 0 0 1 23.57 17.28" stroke="rgba(255,255,255,0.92)" stroke-width="1.0" fill="none"/>
  <path d="M 24.31 15.49 A 1.15 1.15 0 0 1 23.59 16.07" stroke="rgba(255,255,255,0.92)" stroke-width="1.0" fill="none"/>
  <path d="M 25.15 24.60 A 6.37 6.37 0 0 1 24.38 24.40" stroke="rgba(255,255,255,0.92)" stroke-width="1.0" fill="none"/>
  <path d="M 24.99 14.04 A 1.09 1.09 0 0 1 24.39 13.68" stroke="rgba(255,255,255,0.92)" stroke-width="1.0" fill="none"/>
  <path d="M 24.43 12.21 A 1.09 1.09 0 0 1 23.84 12.56" stroke="rgba(255,255,255,0.92)" stroke-width="1.0" fill="none"/>
  <path d="M 7.68 17.52 A 1.82 1.82 0 0 1 6.64 17.15" stroke="rgba(255,255,255,0.92)" stroke-width="1.0" fill="none"/>
  <path d="M 7.50 31.51 A 7.17 7.17 0 0 1 6.63 31.42" stroke="rgba(255,255,255,0.92)" stroke-width="1.0" fill="none"/>
  <path d="M 7.79 20.11 A 1.83 1.83 0 0 1 6.63 19.35" stroke="rgba(255,255,255,0.92)" stroke-width="1.0" fill="none"/>
  <path d="M 7.33 24.60 A 6.37 6.37 0 0 1 6.57 24.40" stroke="rgba(255,255,255,0.92)" stroke-width="1.0" fill="none"/>
  <path d="M 7.17 14.04 A 1.09 1.09 0 0 1 6.58 13.68" stroke="rgba(255,255,255,0.92)" stroke-width="1.0" fill="none"/>
  <path d="M 43.26 17.52 A 1.82 1.82 0 0 1 42.22 17.15" stroke="rgba(255,255,255,0.92)" stroke-width="1.0" fill="none"/>
  <path d="M 42.03 15.98 A 0.97 0.97 0 0 1 41.27 16.17" stroke="rgba(255,255,255,0.92)" stroke-width="1.0" fill="none"/>
  <path d="M 42.11 18.07 A 1.40 1.40 0 0 1 41.37 18.70" stroke="rgba(255,255,255,0.92)" stroke-width="1.0" fill="none"/>
  <path d="M 43.08 31.51 A 7.17 7.17 0 0 1 42.21 31.42" stroke="rgba(255,255,255,0.92)" stroke-width="1.0" fill="none"/>
  <path d="M 43.37 20.11 A 1.83 1.83 0 0 1 42.21 19.35" stroke="rgba(255,255,255,0.92)" stroke-width="1.0" fill="none"/>
  <path d="M 42.14 16.95 A 0.50 0.50 0 0 1 41.34 17.28" stroke="rgba(255,255,255,0.92)" stroke-width="1.0" fill="none"/>
  <path d="M 42.08 15.49 A 1.15 1.15 0 0 1 41.36 16.07" stroke="rgba(255,255,255,0.92)" stroke-width="1.0" fill="none"/>
  <path d="M 42.91 24.60 A 6.37 6.37 0 0 1 42.14 24.40" stroke="rgba(255,255,255,0.92)" stroke-width="1.0" fill="none"/>
  <path d="M 42.75 14.04 A 1.09 1.09 0 0 1 42.16 13.68" stroke="rgba(255,255,255,0.92)" stroke-width="1.0" fill="none"/>
  <path d="M 42.20 12.21 A 1.09 1.09 0 0 1 41.60 12.56" stroke="rgba(255,255,255,0.92)" stroke-width="1.0" fill="none"/>
  <path d="M 61.02 17.52 A 1.82 1.82 0 0 1 59.98 17.15" stroke="rgba(255,255,255,0.92)" stroke-width="1.0" fill="none"/>
  <path d="M 59.79 15.98 A 0.97 0.97 0 0 1 59.03 16.17" stroke="rgba(255,255,255,0.92)" stroke-width="1.0" fill="none"/>
  <path d="M 59.87 18.07 A 1.40 1.40 0 0 1 59.13 18.70" stroke="rgba(255,255,255,0.92)" stroke-width="1.0" fill="none"/>
  <path d="M 60.84 31.51 A 7.17 7.17 0 0 1 59.97 31.42" stroke="rgba(255,255,255,0.92)" stroke-width="1.0" fill="none"/>
  <path d="M 61.13 20.11 A 1.83 1.83 0 0 1 59.97 19.35" stroke="rgba(255,255,255,0.92)" stroke-width="1.0" fill="none"/>
  <path d="M 59.91 16.95 A 0.50 0.50 0 0 1 59.10 17.28" stroke="rgba(255,255,255,0.92)" stroke-width="1.0" fill="none"/>
  <path d="M 59.84 15.49 A 1.15 1.15 0 0 1 59.12 16.07" stroke="rgba(255,255,255,0.92)" stroke-width="1.0" fill="none"/>
  <path d="M 60.67 24.60 A 6.37 6.37 0 0 1 59.91 24.40" stroke="rgba(255,255,255,0.92)" stroke-width="1.0" fill="none"/>
  <path d="M 60.51 14.04 A 1.09 1.09 0 0 1 59.92 13.68" stroke="rgba(255,255,255,0.92)" stroke-width="1.0" fill="none"/>
  <path d="M 59.96 12.21 A 1.09 1.09 0 0 1 59.36 12.56" stroke="rgba(255,255,255,0.92)" stroke-width="1.0" fill="none"/>
  <path d="M 77.56 15.98 A 0.97 0.97 0 0 1 76.79 16.17" stroke="rgba(255,255,255,0.92)" stroke-width="1.0" fill="none"/>
  <path d="M 77.64 18.07 A 1.40 1.40 0 0 1 76.89 18.70" stroke="rgba(255,255,255,0.92)" stroke-width="1.0" fill="none"/>
  <path d="M 77.67 16.95 A 0.50 0.50 0 0 1 76.86 17.28" stroke="rgba(255,255,255,0.92)" stroke-width="1.0" fill="none"/>
  <path d="M 77.60 15.49 A 1.15 1.15 0 0 1 76.88 16.07" stroke="rgba(255,255,255,0.92)" stroke-width="1.0" fill="none"/>
  <path d="M 77.72 12.21 A 1.09 1.09 0 0 1 77.13 12.56" stroke="rgba(255,255,255,0.92)" stroke-width="1.0" fill="none"/>
  <path d="M 6.64 17.81 A 1.82 1.82 0 0 1 7.68 17.44" stroke="rgba(255,255,255,0.92)" stroke-width="1.0" fill="none"/>
  <path d="M 6.57 10.56 A 6.37 6.37 0 0 1 7.33 10.36" stroke="rgba(255,255,255,0.92)" stroke-width="1.0" fill="none"/>
  <path d="M 6.58 21.28 A 1.09 1.09 0 0 1 7.17 20.92" stroke="rgba(255,255,255,0.92)" stroke-width="1.0" fill="none"/>
  <path d="M 24.38 17.88 A 1.18 1.18 0 0 1 25.57 16.69" stroke="rgba(255,255,255,0.92)" stroke-width="1.0" fill="none"/>
  <path d="M 24.40 17.81 A 1.82 1.82 0 0 1 25.44 17.44" stroke="rgba(255,255,255,0.92)" stroke-width="1.0" fill="none"/>
  <path d="M 24.33 10.56 A 6.37 6.37 0 0 1 25.10 10.36" stroke="rgba(255,255,255,0.92)" stroke-width="1.0" fill="none"/>
  <path d="M 24.34 21.28 A 1.09 1.09 0 0 1 24.93 20.92" stroke="rgba(255,255,255,0.92)" stroke-width="1.0" fill="none"/>
  <path d="M 42.14 17.88 A 1.18 1.18 0 0 1 43.33 16.69" stroke="rgba(255,255,255,0.92)" stroke-width="1.0" fill="none"/>
  <path d="M 42.17 17.81 A 1.82 1.82 0 0 1 43.20 17.44" stroke="rgba(255,255,255,0.92)" stroke-width="1.0" fill="none"/>
  <path d="M 42.09 10.56 A 6.37 6.37 0 0 1 42.86 10.36" stroke="rgba(255,255,255,0.92)" stroke-width="1.0" fill="none"/>
  <path d="M 42.10 21.28 A 1.09 1.09 0 0 1 42.70 20.92" stroke="rgba(255,255,255,0.92)" stroke-width="1.0" fill="none"/>
  <path d="M 59.91 17.85 A 1.18 1.18 0 0 1 61.09 16.67" stroke="rgba(255,255,255,0.92)" stroke-width="1.0" fill="none"/>
  <path d="M 59.93 17.78 A 1.82 1.82 0 0 1 60.97 17.41" stroke="rgba(255,255,255,0.92)" stroke-width="1.0" fill="none"/>
  <path d="M 59.85 10.53 A 6.37 6.37 0 0 1 60.62 10.33" stroke="rgba(255,255,255,0.92)" stroke-width="1.0" fill="none"/>
  <path d="M 59.87 21.25 A 1.09 1.09 0 0 1 60.46 20.89" stroke="rgba(255,255,255,0.92)" stroke-width="1.0" fill="none"/>
  <path d="M 23.50 16.87 A 0.97 0.97 0 0 1 24.27 17.06" stroke="rgba(255,255,255,0.92)" stroke-width="1.0" fill="none"/>
  <path d="M 23.59 16.97 A 1.15 1.15 0 0 1 24.31 17.55" stroke="rgba(255,255,255,0.92)" stroke-width="1.0" fill="none"/>
  <path d="M 23.84 20.48 A 1.09 1.09 0 0 1 24.43 20.83" stroke="rgba(255,255,255,0.92)" stroke-width="1.0" fill="none"/>
  <path d="M 41.27 16.87 A 0.97 0.97 0 0 1 42.03 17.06" stroke="rgba(255,255,255,0.92)" stroke-width="1.0" fill="none"/>
  <path d="M 41.36 16.97 A 1.15 1.15 0 0 1 42.08 17.55" stroke="rgba(255,255,255,0.92)" stroke-width="1.0" fill="none"/>
  <path d="M 41.60 20.48 A 1.09 1.09 0 0 1 42.20 20.83" stroke="rgba(255,255,255,0.92)" stroke-width="1.0" fill="none"/>
  <path d="M 59.03 16.87 A 0.97 0.97 0 0 1 59.79 17.06" stroke="rgba(255,255,255,0.92)" stroke-width="1.0" fill="none"/>
  <path d="M 59.12 16.97 A 1.15 1.15 0 0 1 59.84 17.55" stroke="rgba(255,255,255,0.92)" stroke-width="1.0" fill="none"/>
  <path d="M 59.36 20.48 A 1.09 1.09 0 0 1 59.96 20.83" stroke="rgba(255,255,255,0.92)" stroke-width="1.0" fill="none"/>
  <path d="M 76.79 16.87 A 0.97 0.97 0 0 1 77.56 17.06" stroke="rgba(255,255,255,0.92)" stroke-width="1.0" fill="none"/>
  <path d="M 76.88 16.97 A 1.15 1.15 0 0 1 77.60 17.55" stroke="rgba(255,255,255,0.92)" stroke-width="1.0" fill="none"/>
  <path d="M 77.13 20.48 A 1.09 1.09 0 0 1 77.72 20.83" stroke="rgba(255,255,255,0.92)" stroke-width="1.0" fill="none"/>
  <path d="M 77.67 9.08 L 96.98 9.08" stroke="rgba(255,255,255,0.92)" stroke-width="1.0" fill="none"/>
  <path d="M 77.67 9.42 L 97.26 9.42" stroke="rgba(255,255,255,0.92)" stroke-width="1.0" fill="none"/>
  <path d="M 97.40 9.83 L 77.67 9.83" stroke="rgba(255,255,255,0.92)" stroke-width="1.0" fill="none"/>
  <path d="M 6.62 9.09 L 77.67 9.09" stroke="rgba(255,255,255,0.92)" stroke-width="1.0" fill="none"/>
  <path d="M 6.62 8.01 L 77.67 8.01" stroke="rgba(255,255,255,0.92)" stroke-width="1.0" fill="none"/>
  <path d="M 6.66 7.69 L 24.34 7.69" stroke="rgba(255,255,255,0.92)" stroke-width="1.0" fill="none"/>
  <path d="M 24.43 7.69 L 42.10 7.69" stroke="rgba(255,255,255,0.92)" stroke-width="1.0" fill="none"/>
  <path d="M 42.19 7.69 L 59.86 7.69" stroke="rgba(255,255,255,0.92)" stroke-width="1.0" fill="none"/>
  <path d="M 59.95 7.69 L 77.63 7.69" stroke="rgba(255,255,255,0.92)" stroke-width="1.0" fill="none"/>
  <path d="M 60.10 7.36 L 77.47 7.36" stroke="rgba(255,255,255,0.92)" stroke-width="1.0" fill="none"/>
  <path d="M 6.81 7.36 L 24.19 7.36" stroke="rgba(255,255,255,0.92)" stroke-width="1.0" fill="none"/>
  <path d="M 24.58 7.36 L 41.95 7.36" stroke="rgba(255,255,255,0.92)" stroke-width="1.0" fill="none"/>
  <path d="M 42.34 7.36 L 59.71 7.36" stroke="rgba(255,255,255,0.92)" stroke-width="1.0" fill="none"/>
  <path d="M 77.67 24.98 L 77.67 27.54" stroke="rgba(255,255,255,0.92)" stroke-width="1.0" fill="none"/>
  <path d="M 92.55 41.86 L 92.55 41.96 L 92.55 42.06 Z" stroke="rgba(255,255,255,0.92)" stroke-width="1.0" fill="none"/>
  <path d="M 92.55 41.86 L 92.55 41.96 L 92.55 42.06 Z" stroke="rgba(255,255,255,0.92)" stroke-width="1.0" fill="none"/>
  <path d="M 90.71 41.86 L 90.71 40.37" stroke="rgba(255,255,255,0.92)" stroke-width="1.0" fill="none"/>
  <path d="M 92.29 41.86 L 92.29 40.37" stroke="rgba(255,255,255,0.92)" stroke-width="1.0" fill="none"/>
  <path d="M 90.71 42.05 L 90.74 42.06 L 90.76 42.07 L 90.79 42.08 L 90.82 42.08 L 90.85 42.09 L 90.88 42.10 L 90.91 42.10 L 90.94 42.11 L 90.97 42.11 L 91.00 42.12 L 91.04 42.12 L 91.07 42.13 L 91.10 42.13 L 91.14 42.14 L 91.17 42.14 L 91.21 42.14 L 91.25 42.15 L 91.28 42.15 L 91.32 42.15 L 91.35 42.15 L 91.39 42.15 L 91.43 42.15 L 91.47 42.15 L 91.50 42.15 L 91.54 42.15 L 91.58 42.15 L 91.61 42.15 L 91.65 42.15 L 91.69 42.15 L 91.72 42.15 L 91.76 42.15 L 91.80 42.14 L 91.83 42.14 L 91.87 42.14 L 91.90 42.13 L 91.94 42.13 L 91.97 42.12 L 92.00 42.12 L 92.04 42.11 L 92.07 42.11 L 92.10 42.10 L 92.13 42.10 L 92.16 42.09 L 92.19 42.08 L 92.21 42.08 L 92.24 42.07 L 92.27 42.06 L 92.29 42.05" stroke="rgba(255,255,255,0.92)" stroke-width="1.0" fill="none"/>
  <path d="M 90.71 37.10 A 2.51 2.51 0 0 1 92.29 37.10" stroke="rgba(255,255,255,0.92)" stroke-width="1.0" fill="none"/>
  <path d="M 90.45 41.86 L 90.45 42.06" stroke="rgba(255,255,255,0.92)" stroke-width="1.0" fill="none"/>
  <path d="M 92.55 41.86 L 92.55 42.06" stroke="rgba(255,255,255,0.92)" stroke-width="1.0" fill="none"/>
  <path d="M 90.45 42.06 L 90.46 42.08 L 90.46 42.10 L 90.47 42.12 L 90.49 42.14 L 90.51 42.15 L 90.53 42.17 L 90.56 42.19 L 90.59 42.21 L 90.63 42.22 L 90.67 42.24 L 90.71 42.25 L 90.76 42.27 L 90.81 42.28 L 90.86 42.29 L 90.92 42.30 L 90.98 42.31 L 91.04 42.32 L 91.10 42.33 L 91.17 42.34 L 91.23 42.34 L 91.30 42.35 L 91.37 42.35 L 91.43 42.35 L 91.50 42.35 L 91.57 42.35 L 91.64 42.35 L 91.71 42.35 L 91.77 42.34 L 91.84 42.34 L 91.90 42.33 L 91.97 42.32 L 92.03 42.31 L 92.09 42.30 L 92.14 42.29 L 92.19 42.28 L 92.24 42.27 L 92.29 42.25 L 92.34 42.24 L 92.38 42.22 L 92.41 42.21 L 92.44 42.19 L 92.47 42.17 L 92.50 42.15 L 92.52 42.14 L 92.53 42.12 L 92.54 42.10 L 92.55 42.08 L 92.55 42.06" stroke="rgba(255,255,255,0.92)" stroke-width="1.0" fill="none"/>
</svg>
