<svg xmlns="http://www.w3.org/2000/svg" viewBox="0 0 100.00 85.57" data-cad-width="2692.5" data-cad-height="2303.9">
  <path d="M 72.06 6.83 L 72.25 6.83 L 72.25 81.11 L 5.40 81.11 L 5.40 6.83 L 5.58 6.83" stroke="rgba(255,255,255,0.92)" stroke-width="1.0" fill="none"/>
  <path d="M 2.80 2.37 L 71.50 2.37" stroke="rgba(255,255,255,0.92)" stroke-width="1.0" fill="none"/>
  <path d="M 2.80 6.09 A 1.86 1.86 0 0 1 0.94 4.23" stroke="rgba(255,255,255,0.92)" stroke-width="1.0" fill="none"/>
  <path d="M 72.25 3.12 L 72.25 6.83" stroke="rgba(255,255,255,0.92)" stroke-width="1.0" fill="none"/>
  <path d="M 72.99 3.86 A 0.74 0.74 0 0 1 72.25 3.12" stroke="rgba(255,255,255,0.92)" stroke-width="1.0" fill="none"/>
  <path d="M 72.25 3.12 A 0.74 0.74 0 0 1 71.50 3.86" stroke="rgba(255,255,255,0.92)" stroke-width="1.0" fill="none"/>
  <path d="M 72.25 81.11 L 72.25 84.82" stroke="rgba(255,255,255,0.92)" stroke-width="1.0" fill="none"/>
  <path d="M 71.50 84.08 A 0.74 0.74 0 0 1 72.25 84.82" stroke="rgba(255,255,255,0.92)" stroke-width="1.0" fill="none"/>
  <path d="M 71.50 85.57 L 2.80 85.57" stroke="rgba(255,255,255,0.92)" stroke-width="1.0" fill="none"/>
  <path d="M 0.94 83.71 A 1.86 1.86 0 0 1 2.80 81.85" stroke="rgba(255,255,255,0.92)" stroke-width="1.0" fill="none"/>
  <path d="M 0.94 83.71 L 0.94 4.23" stroke="rgba(255,255,255,0.92)" stroke-width="1.0" fill="none"/>
  <path d="M 0.94 43.97 L 5.40 43.97" stroke="rgba(255,255,255,0.92)" stroke-width="1.0" fill="none"/>
  <path d="M 5.40 31.15 L 0.94 31.15" stroke="rgba(255,255,255,0.92)" stroke-width="1.0" fill="none"/>
  <path d="M 5.40 19.23 L 0.94 19.23" stroke="rgba(255,255,255,0.92)" stroke-width="1.0" fill="none"/>
  <path d="M 5.40 10.53 L 0.94 10.53" stroke="rgba(255,255,255,0.92)" stroke-width="1.0" fill="none"/>
  <path d="M 37.52 85.57 L 37.52 81.11" stroke="rgba(255,255,255,0.92)" stroke-width="1.0" fill="none"/>
  <path d="M 28.28 85.57 L 28.28 81.11" stroke="rgba(255,255,255,0.92)" stroke-width="1.0" fill="none"/>
  <path d="M 5.40 10.93 L 0.94 10.93" stroke="rgba(255,255,255,0.92)" stroke-width="1.0" fill="none"/>
  <path d="M 5.40 11.49 L 0.94 11.49" stroke="rgba(255,255,255,0.92)" stroke-width="1.0" fill="none"/>
  <path d="M 5.40 12.48 L 0.94 12.48" stroke="rgba(255,255,255,0.92)" stroke-width="1.0" fill="none"/>
  <path d="M 5.40 13.91 L 0.94 13.91" stroke="rgba(255,255,255,0.92)" stroke-width="1.0" fill="none"/>
  <path d="M 5.40 31.59 L 0.94 31.59" stroke="rgba(255,255,255,0.92)" stroke-width="1.0" fill="none"/>
  <path d="M 5.40 32.09 L 0.94 32.09" stroke="rgba(255,255,255,0.92)" stroke-width="1.0" fill="none"/>
  <path d="M 5.40 33.07 L 0.94 33.07" stroke="rgba(255,255,255,0.92)" stroke-width="1.0" fill="none"/>
  <path d="M 5.40 34.50 L 0.94 34.50" stroke="rgba(255,255,255,0.92)" stroke-width="1.0" fill="none"/>
  <path d="M 5.40 19.60 L 0.94 19.60" stroke="rgba(255,255,255,0.92)" stroke-width="1.0" fill="none"/>
  <path d="M 5.40 20.19 L 0.94 20.19" stroke="rgba(255,255,255,0.92)" stroke-width="1.0" fill="none"/>
  <path d="M 37.98 85.57 L 37.98 81.11" stroke="rgba(255,255,255,0.92)" stroke-width="1.0" fill="none"/>
  <path d="M 38.74 85.57 L 38.74 81.11" stroke="rgba(255,255,255,0.92)" stroke-width="1.0" fill="none"/>
  <path d="M 40.12 85.57 L 40.12 81.11" stroke="rgba(255,255,255,0.92)" stroke-width="1.0" fill="none"/>
  <path d="M 42.56 85.57 L 42.56 81.11" stroke="rgba(255,255,255,0.92)" stroke-width="1.0" fill="none"/>
  <path d="M 28.74 85.57 L 28.74 81.11" stroke="rgba(255,255,255,0.92)" stroke-width="1.0" fill="none"/>
  <path d="M 29.35 85.57 L 29.35 81.11" stroke="rgba(255,255,255,0.92)" stroke-width="1.0" fill="none"/>
  <path d="M 30.89 85.57 L 30.89 81.11" stroke="rgba(255,255,255,0.92)" stroke-width="1.0" fill="none"/>
  <path d="M 72.25 6.83 L 72.62 6.83" stroke="rgba(255,255,255,0.92)" stroke-width="1.0" fill="none"/>
  <path d="M 86.73 6.83 L 87.10 6.83" stroke="rgba(255,255,255,0.92)" stroke-width="1.0" fill="none"/>
  <path d="M 72.25 25.40 L 87.10 25.40" stroke="rgba(255,255,255,0.92)" stroke-width="1.0" fill="none"/>
  <path d="M 87.10 6.83 L 87.10 25.40" stroke="rgba(255,255,255,0.92)" stroke-width="1.0" fill="none"/>
  <path d="M 86.73 6.83 L 86.73 25.40" stroke="rgba(255,255,255,0.92)" stroke-width="1.0" fill="none"/>
  <path d="M 72.62 25.40 L 72.62 6.83" stroke="rgba(255,255,255,0.92)" stroke-width="1.0" fill="none"/>
  <path d="M 72.25 8.69 L 72.62 8.69" stroke="rgba(255,255,255,0.92)" stroke-width="1.0" fill="none"/>
  <path d="M 72.25 8.76 L 72.62 8.76" stroke="rgba(255,255,255,0.92)" stroke-width="1.0" fill="none"/>
  <path d="M 72.25 8.82 L 72.62 8.82" stroke="rgba(255,255,255,0.92)" stroke-width="1.0" fill="none"/>
  <path d="M 72.25 8.90 L 72.62 8.90" stroke="rgba(255,255,255,0.92)" stroke-width="1.0" fill="none"/>
  <path d="M 72.25 9.02 L 72.62 9.02" stroke="rgba(255,255,255,0.92)" stroke-width="1.0" fill="none"/>
  <path d="M 72.25 9.16 L 72.62 9.16" stroke="rgba(255,255,255,0.92)" stroke-width="1.0" fill="none"/>
  <path d="M 72.25 9.36 L 72.62 9.36" stroke="rgba(255,255,255,0.92)" stroke-width="1.0" fill="none"/>
  <path d="M 72.25 9.65 L 72.62 9.65" stroke="rgba(255,255,255,0.92)" stroke-width="1.0" fill="none"/>
  <path d="M 72.25 11.53 L 72.62 11.53" stroke="rgba(255,255,255,0.92)" stroke-width="1.0" fill="none"/>
  <path d="M 72.25 11.59 L 72.62 11.59" stroke="rgba(255,255,255,0.92)" stroke-width="1.0" fill="none"/>
  <path d="M 72.25 11.62 L 72.62 11.62" stroke="rgba(255,255,255,0.92)" stroke-width="1.0" fill="none"/>
  <path d="M 72.25 11.67 L 72.62 11.67" stroke="rgba(255,255,255,0.92)" stroke-width="1.0" fill="none"/>
  <path d="M 72.25 11.74 L 72.62 11.74" stroke="rgba(255,255,255,0.92)" stroke-width="1.0" fill="none"/>
  <path d="M 72.25 11.86 L 72.62 11.86" stroke="rgba(255,255,255,0.92)" stroke-width="1.0" fill="none"/>
  <path d="M 72.25 12.08 L 72.62 12.08" stroke="rgba(255,255,255,0.92)" stroke-width="1.0" fill="none"/>
  <path d="M 72.25 12.37 L 72.62 12.37" stroke="rgba(255,255,255,0.92)" stroke-width="1.0" fill="none"/>
  <path d="M 72.25 23.20 L 72.62 23.20" stroke="rgba(255,255,255,0.92)" stroke-width="1.0" fill="none"/>
  <path d="M 72.25 23.26 L 72.62 23.26" stroke="rgba(255,255,255,0.92)" stroke-width="1.0" fill="none"/>
  <path d="M 72.25 23.30 L 72.62 23.30" stroke="rgba(255,255,255,0.92)" stroke-width="1.0" fill="none"/>
  <path d="M 72.25 23.34 L 72.62 23.34" stroke="rgba(255,255,255,0.92)" stroke-width="1.0" fill="none"/>
  <path d="M 72.25 23.41 L 72.62 23.41" stroke="rgba(255,255,255,0.92)" stroke-width="1.0" fill="none"/>
  <path d="M 72.25 23.53 L 72.62 23.53" stroke="rgba(255,255,255,0.92)" stroke-width="1.0" fill="none"/>
  <path d="M 72.25 23.75 L 72.62 23.75" stroke="rgba(255,255,255,0.92)" stroke-width="1.0" fill="none"/>
  <path d="M 72.25 24.04 L 72.62 24.04" stroke="rgba(255,255,255,0.92)" stroke-width="1.0" fill="none"/>
  <path d="M 86.73 8.69 L 91.56 8.69" stroke="rgba(255,255,255,0.92)" stroke-width="1.0" fill="none"/>
  <path d="M 86.73 8.76 L 91.56 8.76" stroke="rgba(255,255,255,0.92)" stroke-width="1.0" fill="none"/>
  <path d="M 86.73 8.82 L 91.56 8.82" stroke="rgba(255,255,255,0.92)" stroke-width="1.0" fill="none"/>
  <path d="M 86.73 8.90 L 91.56 8.90" stroke="rgba(255,255,255,0.92)" stroke-width="1.0" fill="none"/>
  <path d="M 86.73 9.02 L 91.56 9.02" stroke="rgba(255,255,255,0.92)" stroke-width="1.0" fill="none"/>
  <path d="M 86.73 9.16 L 91.56 9.16" stroke="rgba(255,255,255,0.92)" stroke-width="1.0" fill="none"/>
  <path d="M 86.73 9.36 L 91.56 9.36" stroke="rgba(255,255,255,0.92)" stroke-width="1.0" fill="none"/>
  <path d="M 86.73 9.65 L 91.56 9.65" stroke="rgba(255,255,255,0.92)" stroke-width="1.0" fill="none"/>
  <path d="M 86.73 11.53 L 91.56 11.53" stroke="rgba(255,255,255,0.92)" stroke-width="1.0" fill="none"/>
  <path d="M 86.73 11.59 L 91.56 11.59" stroke="rgba(255,255,255,0.92)" stroke-width="1.0" fill="none"/>
  <path d="M 86.73 11.62 L 91.56 11.62" stroke="rgba(255,255,255,0.92)" stroke-width="1.0" fill="none"/>
  <path d="M 86.73 11.67 L 91.56 11.67" stroke="rgba(255,255,255,0.92)" stroke-width="1.0" fill="none"/>
  <path d="M 86.73 11.74 L 91.56 11.74" stroke="rgba(255,255,255,0.92)" stroke-width="1.0" fill="none"/>
  <path d="M 86.73 11.86 L 91.56 11.86" stroke="rgba(255,255,255,0.92)" stroke-width="1.0" fill="none"/>
  <path d="M 86.73 12.08 L 91.56 12.08" stroke="rgba(255,255,255,0.92)" stroke-width="1.0" fill="none"/>
  <path d="M 86.73 12.37 L 91.56 12.37" stroke="rgba(255,255,255,0.92)" stroke-width="1.0" fill="none"/>
  <path d="M 86.73 23.20 L 91.56 23.20" stroke="rgba(255,255,255,0.92)" stroke-width="1.0" fill="none"/>
  <path d="M 86.73 23.26 L 91.56 23.26" stroke="rgba(255,255,255,0.92)" stroke-width="1.0" fill="none"/>
  <path d="M 86.73 23.30 L 91.56 23.30" stroke="rgba(255,255,255,0.92)" stroke-width="1.0" fill="none"/>
  <path d="M 86.73 23.34 L 91.56 23.34" stroke="rgba(255,255,255,0.92)" stroke-width="1.0" fill="none"/>
  <path d="M 86.73 23.41 L 91.56 23.41" stroke="rgba(255,255,255,0.92)" stroke-width="1.0" fill="none"/>
  <path d="M 86.73 23.53 L 91.56 23.53" stroke="rgba(255,255,255,0.92)" stroke-width="1.0" fill="none"/>
  <path d="M 86.73 23.75 L 91.56 23.75" stroke="rgba(255,255,255,0.92)" stroke-width="1.0" fill="none"/>
  <path d="M 86.73 24.04 L 91.56 24.04" stroke="rgba(255,255,255,0.92)" stroke-width="1.0" fill="none"/>
  <path d="M 72.62 6.83 L 86.73 6.83" stroke="rgba(255,255,255,0.92)" stroke-width="1.0" fill="none"/>
  <path d="M 72.62 7.20 L 86.73 7.20" stroke="rgba(255,255,255,0.92)" stroke-width="1.0" fill="none"/>
  <path d="M 72.99 2.37 L 89.70 2.37" stroke="rgba(255,255,255,0.92)" stroke-width="1.0" fill="none"/>
  <path d="M 91.56 39.05 L 91.56 4.23" stroke="rgba(255,255,255,0.92)" stroke-width="1.0" fill="none"/>
  <path d="M 87.10 39.05 L 87.10 2.37" stroke="rgba(255,255,255,0.92)" stroke-width="1.0" fill="none"/>
  <path d="M 91.56 4.23 A 1.86 1.86 0 0 1 89.70 6.09" stroke="rgba(255,255,255,0.92)" stroke-width="1.0" fill="none"/>
  <path d="M 86.73 13.03 L 91.56 13.03" stroke="rgba(255,255,255,0.92)" stroke-width="1.0" fill="none"/>
  <path d="M 86.73 10.42 L 91.56 10.42" stroke="rgba(255,255,255,0.92)" stroke-width="1.0" fill="none"/>
  <path d="M 86.73 24.64 L 91.56 24.64" stroke="rgba(255,255,255,0.92)" stroke-width="1.0" fill="none"/>
  <path d="M 86.73 25.40 L 91.56 25.40" stroke="rgba(255,255,255,0.92)" stroke-width="1.0" fill="none"/>
  <path d="M 84.28 85.57 L 72.99 85.57" stroke="rgba(255,255,255,0.92)" stroke-width="1.0" fill="none"/>
  <path d="M 72.25 84.82 A 0.74 0.74 0 0 1 72.99 84.08" stroke="rgba(255,255,255,0.92)" stroke-width="1.0" fill="none"/>
  <path d="M 83.05 81.11 L 71.50 81.11" stroke="rgba(255,255,255,0.92)" stroke-width="1.0" fill="none"/>
  <path d="M 83.05 77.40 A 1.86 1.86 0 0 1 84.01 77.67" stroke="rgba(255,255,255,0.92)" stroke-width="1.0" fill="none"/>
  <path d="M 84.28 81.85 A 1.86 1.86 0 0 1 85.22 82.11" stroke="rgba(255,255,255,0.92)" stroke-width="1.0" fill="none"/>
  <path d="M 72.25 27.20 L 87.10 27.20" stroke="rgba(255,255,255,0.92)" stroke-width="1.0" fill="none"/>
  <path d="M 72.25 27.38 L 87.10 27.38" stroke="rgba(255,255,255,0.92)" stroke-width="1.0" fill="none"/>
  <path d="M 72.25 36.48 L 87.10 36.48" stroke="rgba(255,255,255,0.92)" stroke-width="1.0" fill="none"/>
  <path d="M 72.25 36.67 L 87.10 36.67" stroke="rgba(255,255,255,0.92)" stroke-width="1.0" fill="none"/>
  <path d="M 72.25 45.77 L 80.53 45.77" stroke="rgba(255,255,255,0.92)" stroke-width="1.0" fill="none"/>
  <path d="M 72.25 45.95 L 80.53 45.95" stroke="rgba(255,255,255,0.92)" stroke-width="1.0" fill="none"/>
  <path d="M 72.25 55.05 L 77.83 55.05" stroke="rgba(255,255,255,0.92)" stroke-width="1.0" fill="none"/>
  <path d="M 72.25 55.24 L 77.83 55.24" stroke="rgba(255,255,255,0.92)" stroke-width="1.0" fill="none"/>
  <path d="M 72.25 64.34 L 83.49 64.34" stroke="rgba(255,255,255,0.92)" stroke-width="1.0" fill="none"/>
  <path d="M 72.25 64.52 L 83.49 64.52" stroke="rgba(255,255,255,0.92)" stroke-width="1.0" fill="none"/>
  <path d="M 72.25 73.62 L 88.89 73.62" stroke="rgba(255,255,255,0.92)" stroke-width="1.0" fill="none"/>
  <path d="M 72.25 73.81 L 88.89 73.81" stroke="rgba(255,255,255,0.92)" stroke-width="1.0" fill="none"/>
  <path d="M 73.87 7.20 L 74.36 7.20 L 74.36 13.79 L 73.87 13.79 Z" stroke="rgba(255,255,255,0.92)" stroke-width="1.0" fill="none"/>
  <path d="M 74.63 7.26 L 75.11 7.26 L 75.11 13.85 L 74.63 13.85 Z" stroke="rgba(255,255,255,0.92)" stroke-width="1.0" fill="none"/>
  <path d="M 75.48 7.32 L 75.96 7.32 L 75.96 13.91 L 75.48 13.91 Z" stroke="rgba(255,255,255,0.92)" stroke-width="1.0" fill="none"/>
  <path d="M 76.11 7.66 L 76.60 7.66 L 76.47 14.24 L 75.98 14.24 Z" stroke="rgba(255,255,255,0.92)" stroke-width="1.0" fill="none"/>
  <path d="M 76.72 7.23 L 77.60 7.30 L 77.48 14.04 L 76.61 13.98 Z" stroke="rgba(255,255,255,0.92)" stroke-width="1.0" fill="none"/>
  <path d="M 78.21 7.32 L 79.19 7.22 L 79.19 13.80 L 78.21 13.91 Z" stroke="rgba(255,255,255,0.92)" stroke-width="1.0" fill="none"/>
  <path d="M 79.42 7.23 L 79.91 7.23 L 79.91 13.82 L 79.42 13.82 Z" stroke="rgba(255,255,255,0.92)" stroke-width="1.0" fill="none"/>
  <path d="M 80.19 7.40 L 81.21 7.42 L 81.21 14.00 L 80.19 13.99 Z" stroke="rgba(255,255,255,0.92)" stroke-width="1.0" fill="none"/>
  <path d="M 81.73 7.40 L 82.82 7.29 L 83.26 13.67 L 82.27 13.87 Z" stroke="rgba(255,255,255,0.92)" stroke-width="1.0" fill="none"/>
  <path d="M 83.58 7.28 L 84.34 7.32 L 84.34 13.91 L 83.58 13.87 Z" stroke="rgba(255,255,255,0.92)" stroke-width="1.0" fill="none"/>
  <path d="M 84.61 7.26 L 85.10 7.26 L 85.10 13.85 L 84.61 13.85 Z" stroke="rgba(255,255,255,0.92)" stroke-width="1.0" fill="none"/>
  <path d="M 85.28 7.20 L 86.28 7.16 L 86.28 13.75 L 85.28 13.79 Z" stroke="rgba(255,255,255,0.92)" stroke-width="1.0" fill="none"/>
  <path d="M 7.07 3.33 L 37.34 3.33" stroke="rgba(255,255,255,0.92)" stroke-width="1.0" fill="none"/>
  <path d="M 38.82 4.81 L 38.82 17.53" stroke="rgba(255,255,255,0.92)" stroke-width="1.0" fill="none"/>
  <path d="M 38.82 4.81 A 1.49 1.49 0 0 1 37.34 6.30" stroke="rgba(255,255,255,0.92)" stroke-width="1.0" fill="none"/>
  <path d="M 37.34 16.05 A 1.49 1.49 0 0 1 38.82 17.53" stroke="rgba(255,255,255,0.92)" stroke-width="1.0" fill="none"/>
  <path d="M 8.05 19.02 L 7.07 19.02" stroke="rgba(255,255,255,0.92)" stroke-width="1.0" fill="none"/>
  <path d="M 5.58 17.53 A 1.49 1.49 0 0 1 7.07 16.05" stroke="rgba(255,255,255,0.92)" stroke-width="1.0" fill="none"/>
  <path d="M 5.58 17.53 L 5.58 4.81" stroke="rgba(255,255,255,0.92)" stroke-width="1.0" fill="none"/>
  <path d="M 7.07 6.30 A 1.49 1.49 0 0 1 5.58 4.81" stroke="rgba(255,255,255,0.92)" stroke-width="1.0" fill="none"/>
  <path d="M 40.31 3.33 L 70.58 3.33" stroke="rgba(255,255,255,0.92)" stroke-width="1.0" fill="none"/>
  <path d="M 72.06 4.81 L 72.06 17.53" stroke="rgba(255,255,255,0.92)" stroke-width="1.0" fill="none"/>
  <path d="M 72.06 4.81 A 1.49 1.49 0 0 1 70.58 6.30" stroke="rgba(255,255,255,0.92)" stroke-width="1.0" fill="none"/>
  <path d="M 70.58 16.05 A 1.49 1.49 0 0 1 72.06 17.53" stroke="rgba(255,255,255,0.92)" stroke-width="1.0" fill="none"/>
  <path d="M 41.03 19.02 L 40.31 19.02" stroke="rgba(255,255,255,0.92)" stroke-width="1.0" fill="none"/>
  <path d="M 38.82 17.53 A 1.49 1.49 0 0 1 40.31 16.05" stroke="rgba(255,255,255,0.92)" stroke-width="1.0" fill="none"/>
  <path d="M 38.82 17.53 L 38.82 4.81" stroke="rgba(255,255,255,0.92)" stroke-width="1.0" fill="none"/>
  <path d="M 40.31 6.30 A 1.49 1.49 0 0 1 38.82 4.81" stroke="rgba(255,255,255,0.92)" stroke-width="1.0" fill="none"/>
  <path d="M 5.58 9.55 L 72.06 9.55" stroke="rgba(255,255,255,0.92)" stroke-width="1.0" fill="none"/>
  <path d="M 5.58 10.47 L 72.06 10.47" stroke="rgba(255,255,255,0.92)" stroke-width="1.0" fill="none"/>
  <path d="M 22.52 9.55 L 22.52 3.33" stroke="rgba(255,255,255,0.92)" stroke-width="1.0" fill="none"/>
  <path d="M 23.45 9.55 L 23.45 3.33" stroke="rgba(255,255,255,0.92)" stroke-width="1.0" fill="none"/>
  <path d="M 54.48 9.55 L 54.48 3.33" stroke="rgba(255,255,255,0.92)" stroke-width="1.0" fill="none"/>
  <path d="M 55.41 9.55 L 55.41 3.33" stroke="rgba(255,255,255,0.92)" stroke-width="1.0" fill="none"/>
  <path d="M 35.71 84.25 A 36.51 36.51 0 0 1 10.30 84.41" stroke="rgba(255,255,255,0.92)" stroke-width="1.0" fill="none"/>
  <path d="M 10.10 -35.79 A 33.33 33.33 0 0 1 34.82 -35.28" stroke="rgba(255,255,255,0.92)" stroke-width="1.0" fill="none"/>
  <path d="M 9.23 28.77 A 22.85 22.85 0 0 1 9.14 13.92" stroke="rgba(255,255,255,0.92)" stroke-width="1.0" fill="none"/>
  <path d="M 36.41 13.04 A 39.83 39.83 0 0 1 36.50 28.68" stroke="rgba(255,255,255,0.92)" stroke-width="1.0" fill="none"/>
  <path d="M 16.25 31.61 A 10.64 10.64 0 0 1 9.23 34.86" stroke="rgba(255,255,255,0.92)" stroke-width="1.0" fill="none"/>
  <path d="M 9.14 21.05 A 3.82 3.82 0 0 1 12.62 21.99" stroke="rgba(255,255,255,0.92)" stroke-width="1.0" fill="none"/>
  <path d="M 29.36 -1.76 A 15.96 15.96 0 0 1 36.43 -2.82" stroke="rgba(255,255,255,0.92)" stroke-width="1.0" fill="none"/>
  <path d="M 36.62 46.73 A 16.87 16.87 0 0 1 28.29 46.41" stroke="rgba(255,255,255,0.92)" stroke-width="1.0" fill="none"/>
  <path d="M 26.34 -10.91 A 16.19 16.19 0 0 1 36.39 -7.49" stroke="rgba(255,255,255,0.92)" stroke-width="1.0" fill="none"/>
  <path d="M 36.89 25.10 A 2.76 2.76 0 0 1 34.68 25.31" stroke="rgba(255,255,255,0.92)" stroke-width="1.0" fill="none"/>
  <path d="M 27.08 98.58 A 39.79 39.79 0 0 1 15.03 97.62" stroke="rgba(255,255,255,0.92)" stroke-width="1.0" fill="none"/>
  <path d="M 29.17 35.01 A 8.06 8.06 0 0 1 23.22 34.85" stroke="rgba(255,255,255,0.92)" stroke-width="1.0" fill="none"/>
  <path d="M 68.73 83.82 A 36.51 36.51 0 0 1 43.32 83.98" stroke="rgba(255,255,255,0.92)" stroke-width="1.0" fill="none"/>
  <path d="M 43.12 -36.21 A 33.33 33.33 0 0 1 67.84 -35.71" stroke="rgba(255,255,255,0.92)" stroke-width="1.0" fill="none"/>
  <path d="M 42.25 28.34 A 22.85 22.85 0 0 1 42.15 13.49" stroke="rgba(255,255,255,0.92)" stroke-width="1.0" fill="none"/>
  <path d="M 69.42 12.61 A 39.83 39.83 0 0 1 69.52 28.25" stroke="rgba(255,255,255,0.92)" stroke-width="1.0" fill="none"/>
  <path d="M 49.27 31.18 A 10.64 10.64 0 0 1 42.25 34.43" stroke="rgba(255,255,255,0.92)" stroke-width="1.0" fill="none"/>
  <path d="M 42.15 20.62 A 3.82 3.82 0 0 1 45.64 21.56" stroke="rgba(255,255,255,0.92)" stroke-width="1.0" fill="none"/>
  <path d="M 62.37 -2.18 A 15.96 15.96 0 0 1 69.45 -3.25" stroke="rgba(255,255,255,0.92)" stroke-width="1.0" fill="none"/>
  <path d="M 69.63 46.30 A 16.87 16.87 0 0 1 61.31 45.98" stroke="rgba(255,255,255,0.92)" stroke-width="1.0" fill="none"/>
  <path d="M 59.35 -11.33 A 16.19 16.19 0 0 1 69.40 -7.92" stroke="rgba(255,255,255,0.92)" stroke-width="1.0" fill="none"/>
  <path d="M 69.90 24.68 A 2.76 2.76 0 0 1 67.69 24.88" stroke="rgba(255,255,255,0.92)" stroke-width="1.0" fill="none"/>
  <path d="M 60.09 98.15 A 39.79 39.79 0 0 1 48.05 97.19" stroke="rgba(255,255,255,0.92)" stroke-width="1.0" fill="none"/>
  <path d="M 62.18 34.58 A 8.06 8.06 0 0 1 56.24 34.42" stroke="rgba(255,255,255,0.92)" stroke-width="1.0" fill="none"/>
  <path d="M 5.34 29.92 L 72.25 29.92" stroke="rgba(255,255,255,0.92)" stroke-width="1.0" fill="none"/>
  <path d="M 5.77 43.41 L 72.68 43.41" stroke="rgba(255,255,255,0.92)" stroke-width="1.0" fill="none"/>
  <path d="M 61.71 196.08 A 73.85 73.85 0 0 1 5.40 176.56" stroke="rgba(255,255,255,0.92)" stroke-width="1.0" fill="none"/>
  <path d="M 62.78 120.67 A 35.30 35.30 0 0 1 29.27 109.94" stroke="rgba(255,255,255,0.92)" stroke-width="1.0" fill="none"/>
  <path d="M 72.25 182.34 A 61.70 61.70 0 0 1 52.90 185.13" stroke="rgba(255,255,255,0.92)" stroke-width="1.0" fill="none"/>
  <path d="M 59.78 175.72 A 55.67 55.67 0 0 1 36.79 172.72" stroke="rgba(255,255,255,0.92)" stroke-width="1.0" fill="none"/>
  <path d="M 38.76 5.69 L 38.15 5.03 L 36.98 5.03 L 38.20 5.58" stroke="rgba(255,255,255,0.92)" stroke-width="1.0" fill="none"/>
  <path d="M 38.81 7.52 L 38.03 7.02" stroke="rgba(255,255,255,0.92)" stroke-width="1.0" fill="none"/>
  <path d="M 38.76 7.13 L 38.03 6.74 L 37.09 6.69" stroke="rgba(255,255,255,0.92)" stroke-width="1.0" fill="none"/>
  <path d="M 38.87 8.63 L 38.31 8.18 L 37.81 8.24" stroke="rgba(255,255,255,0.92)" stroke-width="1.0" fill="none"/>
  <path d="M 38.81 9.35 L 39.64 8.90 L 39.92 8.90" stroke="rgba(255,255,255,0.92)" stroke-width="1.0" fill="none"/>
  <path d="M 38.87 5.08 L 39.37 4.80 L 39.97 4.80" stroke="rgba(255,255,255,0.92)" stroke-width="1.0" fill="none"/>
  <path d="M 38.87 5.52 L 39.31 5.19" stroke="rgba(255,255,255,0.92)" stroke-width="1.0" fill="none"/>
  <path d="M 38.98 6.41 L 39.86 6.30 L 40.53 6.36" stroke="rgba(255,255,255,0.92)" stroke-width="1.0" fill="none"/>
  <path d="M 38.76 7.96 L 39.37 7.57 L 39.75 7.57" stroke="rgba(255,255,255,0.92)" stroke-width="1.0" fill="none"/>
  <path d="M 38.92 8.35 L 39.37 7.91 L 39.97 7.68" stroke="rgba(255,255,255,0.92)" stroke-width="1.0" fill="none"/>
  <circle cx="91.44" cy="53.45" r="8.54" stroke="rgba(255,255,255,0.92)" stroke-width="1.0" fill="none"/>
  <path d="M 0.30 55.08 L 90.92 55.08" stroke="rgba(255,255,255,0.92)" stroke-width="1.0" fill="none"/>
  <path d="M 90.92 55.08 L 90.92 42.08" stroke="rgba(255,255,255,0.92)" stroke-width="1.0" fill="none"/>
  <path d="M 90.92 42.08 L 36.81 42.08" stroke="rgba(255,255,255,0.92)" stroke-width="1.0" fill="none"/>
  <path d="M 0.30 39.11 L 0.30 55.08" stroke="rgba(255,255,255,0.92)" stroke-width="1.0" fill="none"/>
  <path d="M 1.05 39.85 A 0.74 0.74 0 0 1 0.30 39.11" stroke="rgba(255,255,255,0.92)" stroke-width="1.0" fill="none"/>
  <path d="M 1.61 55.08 L 3.10 55.08 L 3.10 56.01 L 1.61 56.01 Z" stroke="rgba(255,255,255,0.92)" stroke-width="1.0" fill="none"/>
  <path d="M 87.28 55.08 L 88.76 55.08 L 88.76 56.01 L 87.28 56.01 Z" stroke="rgba(255,255,255,0.92)" stroke-width="1.0" fill="none"/>
  <path d="M 71.61 55.08 L 71.61 42.08" stroke="rgba(255,255,255,0.92)" stroke-width="1.0" fill="none"/>
  <path d="M 71.80 55.08 L 71.80 42.08" stroke="rgba(255,255,255,0.92)" stroke-width="1.0" fill="none"/>
  <path d="M 27.34 38.37 L 1.05 38.37" stroke="rgba(255,255,255,0.92)" stroke-width="1.0" fill="none"/>
  <path d="M 27.92 38.48 L 36.24 41.97" stroke="rgba(255,255,255,0.92)" stroke-width="1.0" fill="none"/>
  <path d="M 36.24 39.22 A 1.49 1.49 0 0 1 36.81 39.11" stroke="rgba(255,255,255,0.92)" stroke-width="1.0" fill="none"/>
  <path d="M 27.92 41.22 A 1.49 1.49 0 0 1 27.34 41.34" stroke="rgba(255,255,255,0.92)" stroke-width="1.0" fill="none"/>
  <path d="M 4.76 38.37 L 4.76 22.40" stroke="rgba(255,255,255,0.92)" stroke-width="1.0" fill="none"/>
  <path d="M 71.61 42.08 L 71.61 36.88" stroke="rgba(255,255,255,0.92)" stroke-width="1.0" fill="none"/>
  <path d="M 71.61 36.88 A 1.49 1.49 0 0 1 70.12 38.37" stroke="rgba(255,255,255,0.92)" stroke-width="1.0" fill="none"/>
  <path d="M 70.12 35.40 L 6.24 35.40" stroke="rgba(255,255,255,0.92)" stroke-width="1.0" fill="none"/>
  <path d="M 4.76 38.37 L 4.76 38.37" stroke="rgba(255,255,255,0.92)" stroke-width="1.0" fill="none"/>
  <path d="M 6.24 38.37 A 1.49 1.49 0 0 1 4.76 36.88" stroke="rgba(255,255,255,0.92)" stroke-width="1.0" fill="none"/>
  <path d="M 90.92 42.08 L 98.60 42.08" stroke="rgba(255,255,255,0.92)" stroke-width="1.0" fill="none"/>
  <path d="M 99.35 42.82 L 99.35 54.34" stroke="rgba(255,255,255,0.92)" stroke-width="1.0" fill="none"/>
  <path d="M 98.60 53.59 A 0.74 0.74 0 0 1 99.35 54.34" stroke="rgba(255,255,255,0.92)" stroke-width="1.0" fill="none"/>
  <path d="M 99.35 42.82 A 0.74 0.74 0 0 1 98.60 43.57" stroke="rgba(255,255,255,0.92)" stroke-width="1.0" fill="none"/>
  <path d="M 98.60 55.08 L 90.92 55.08" stroke="rgba(255,255,255,0.92)" stroke-width="1.0" fill="none"/>
  <path d="M 90.92 55.08 L 90.92 42.08" stroke="rgba(255,255,255,0.92)" stroke-width="1.0" fill="none"/>
  <path d="M 99.13 42.30 L 90.92 42.30" stroke="rgba(255,255,255,0.92)" stroke-width="1.0" fill="none"/>
  <path d="M 97.17 42.30 L 97.17 55.08" stroke="rgba(255,255,255,0.92)" stroke-width="1.0" fill="none"/>
  <path d="M 97.54 42.30 L 97.54 55.08" stroke="rgba(255,255,255,0.92)" stroke-width="1.0" fill="none"/>
  <path d="M 0.30 39.11 L 0.30 22.40" stroke="rgba(255,255,255,0.92)" stroke-width="1.0" fill="none"/>
  <path d="M 0.30 29.08 L 4.76 29.08" stroke="rgba(255,255,255,0.92)" stroke-width="1.0" fill="none"/>
  <path d="M 1.05 21.65 L 4.02 21.65" stroke="rgba(255,255,255,0.92)" stroke-width="1.0" fill="none"/>
  <path d="M 4.76 22.40 A 0.74 0.74 0 0 1 4.02 23.14" stroke="rgba(255,255,255,0.92)" stroke-width="1.0" fill="none"/>
  <path d="M 1.05 23.14 A 0.74 0.74 0 0 1 0.30 22.40" stroke="rgba(255,255,255,0.92)" stroke-width="1.0" fill="none"/>
  <path d="M 0.39 22.04 L 4.67 22.04" stroke="rgba(255,255,255,0.92)" stroke-width="1.0" fill="none"/>
  <path d="M 0.30 22.38 L 4.76 22.38" stroke="rgba(255,255,255,0.92)" stroke-width="1.0" fill="none"/>
  <path d="M 0.30 22.67 L 4.76 22.67" stroke="rgba(255,255,255,0.92)" stroke-width="1.0" fill="none"/>
  <path d="M 0.30 23.26 L 4.76 23.26" stroke="rgba(255,255,255,0.92)" stroke-width="1.0" fill="none"/>
  <path d="M 0.30 24.33 L 4.76 24.33" stroke="rgba(255,255,255,0.92)" stroke-width="1.0" fill="none"/>
  <path d="M 0.30 29.22 L 4.76 29.22" stroke="rgba(255,255,255,0.92)" stroke-width="1.0" fill="none"/>
  <path d="M 0.30 29.47 L 4.76 29.47" stroke="rgba(255,255,255,0.92)" stroke-width="1.0" fill="none"/>
  <path d="M 0.30 30.05 L 4.76 30.05" stroke="rgba(255,255,255,0.92)" stroke-width="1.0" fill="none"/>
  <path d="M 0.30 30.87 L 4.76 30.87" stroke="rgba(255,255,255,0.92)" stroke-width="1.0" fill="none"/>
  <path d="M 4.02 21.65 L 5.13 21.65" stroke="rgba(255,255,255,0.92)" stroke-width="1.0" fill="none"/>
  <path d="M 71.21 21.65 L 90.18 21.65" stroke="rgba(255,255,255,0.92)" stroke-width="1.0" fill="none"/>
  <path d="M 71.61 36.88 L 71.61 21.65" stroke="rgba(255,255,255,0.92)" stroke-width="1.0" fill="none"/>
  <path d="M 71.98 42.08 L 71.98 21.65" stroke="rgba(255,255,255,0.92)" stroke-width="1.0" fill="none"/>
  <path d="M 86.09 21.65 L 86.09 42.08" stroke="rgba(255,255,255,0.92)" stroke-width="1.0" fill="none"/>
  <path d="M 85.72 21.65 L 85.72 42.08" stroke="rgba(255,255,255,0.92)" stroke-width="1.0" fill="none"/>
  <path d="M 71.61 34.74 L 71.98 34.74" stroke="rgba(255,255,255,0.92)" stroke-width="1.0" fill="none"/>
  <path d="M 71.61 34.80 L 71.98 34.80" stroke="rgba(255,255,255,0.92)" stroke-width="1.0" fill="none"/>
  <path d="M 71.61 34.94 L 71.98 34.94" stroke="rgba(255,255,255,0.92)" stroke-width="1.0" fill="none"/>
  <path d="M 71.61 35.23 L 71.98 35.23" stroke="rgba(255,255,255,0.92)" stroke-width="1.0" fill="none"/>
  <path d="M 71.61 35.86 L 71.98 35.86" stroke="rgba(255,255,255,0.92)" stroke-width="1.0" fill="none"/>
  <path d="M 71.61 21.75 L 71.98 21.75" stroke="rgba(255,255,255,0.92)" stroke-width="1.0" fill="none"/>
  <path d="M 71.61 21.82 L 71.98 21.82" stroke="rgba(255,255,255,0.92)" stroke-width="1.0" fill="none"/>
  <path d="M 71.61 21.95 L 71.98 21.95" stroke="rgba(255,255,255,0.92)" stroke-width="1.0" fill="none"/>
  <path d="M 71.61 22.25 L 71.98 22.25" stroke="rgba(255,255,255,0.92)" stroke-width="1.0" fill="none"/>
  <path d="M 71.61 22.88 L 71.98 22.88" stroke="rgba(255,255,255,0.92)" stroke-width="1.0" fill="none"/>
  <path d="M 71.61 29.24 L 71.98 29.24" stroke="rgba(255,255,255,0.92)" stroke-width="1.0" fill="none"/>
  <path d="M 71.61 29.63 L 71.98 29.63" stroke="rgba(255,255,255,0.92)" stroke-width="1.0" fill="none"/>
  <path d="M 71.61 29.94 L 71.98 29.94" stroke="rgba(255,255,255,0.92)" stroke-width="1.0" fill="none"/>
  <path d="M 71.61 30.06 L 71.98 30.06" stroke="rgba(255,255,255,0.92)" stroke-width="1.0" fill="none"/>
  <path d="M 71.61 30.49 L 71.98 30.49" stroke="rgba(255,255,255,0.92)" stroke-width="1.0" fill="none"/>
  <path d="M 71.61 31.10 L 71.98 31.10" stroke="rgba(255,255,255,0.92)" stroke-width="1.0" fill="none"/>
  <path d="M 71.98 35.40 L 85.72 35.40" stroke="rgba(255,255,255,0.92)" stroke-width="1.0" fill="none"/>
  <path d="M 71.98 35.84 L 85.72 35.84" stroke="rgba(255,255,255,0.92)" stroke-width="1.0" fill="none"/>
  <path d="M 85.72 34.74 L 90.92 34.74" stroke="rgba(255,255,255,0.92)" stroke-width="1.0" fill="none"/>
  <path d="M 85.72 34.80 L 90.92 34.80" stroke="rgba(255,255,255,0.92)" stroke-width="1.0" fill="none"/>
  <path d="M 85.72 34.94 L 90.92 34.94" stroke="rgba(255,255,255,0.92)" stroke-width="1.0" fill="none"/>
  <path d="M 85.72 35.23 L 90.92 35.23" stroke="rgba(255,255,255,0.92)" stroke-width="1.0" fill="none"/>
  <path d="M 85.72 35.86 L 90.92 35.86" stroke="rgba(255,255,255,0.92)" stroke-width="1.0" fill="none"/>
  <path d="M 85.72 21.75 L 90.55 21.75" stroke="rgba(255,255,255,0.92)" stroke-width="1.0" fill="none"/>
  <path d="M 85.72 21.82 L 90.65 21.82" stroke="rgba(255,255,255,0.92)" stroke-width="1.0" fill="none"/>
  <path d="M 85.72 21.95 L 90.78 21.95" stroke="rgba(255,255,255,0.92)" stroke-width="1.0" fill="none"/>
  <path d="M 85.72 22.25 L 90.91 22.25" stroke="rgba(255,255,255,0.92)" stroke-width="1.0" fill="none"/>
  <path d="M 85.72 22.88 L 90.92 22.88" stroke="rgba(255,255,255,0.92)" stroke-width="1.0" fill="none"/>
  <path d="M 85.72 29.24 L 90.92 29.24" stroke="rgba(255,255,255,0.92)" stroke-width="1.0" fill="none"/>
  <path d="M 85.72 29.63 L 90.92 29.63" stroke="rgba(255,255,255,0.92)" stroke-width="1.0" fill="none"/>
  <path d="M 85.72 29.94 L 90.92 29.94" stroke="rgba(255,255,255,0.92)" stroke-width="1.0" fill="none"/>
  <path d="M 85.72 30.06 L 90.92 30.06" stroke="rgba(255,255,255,0.92)" stroke-width="1.0" fill="none"/>
  <path d="M 85.72 30.49 L 90.92 30.49" stroke="rgba(255,255,255,0.92)" stroke-width="1.0" fill="none"/>
  <path d="M 85.72 31.10 L 90.92 31.10" stroke="rgba(255,255,255,0.92)" stroke-width="1.0" fill="none"/>
  <path d="M 71.98 41.63 L 85.72 41.63" stroke="rgba(255,255,255,0.92)" stroke-width="1.0" fill="none"/>
  <circle cx="78.60" cy="38.55" r="0.11" stroke="rgba(255,255,255,0.92)" stroke-width="1.0" fill="none"/>
  <path d="M 78.50 39.60 A 0.56 0.56 0 1 1 78.71 39.60" stroke="rgba(255,255,255,0.92)" stroke-width="1.0" fill="none"/>
  <path d="M 78.52 39.49 A 0.45 0.45 0 1 1 78.69 39.49" stroke="rgba(255,255,255,0.92)" stroke-width="1.0" fill="none"/>
  <path d="M 73.03 26.80 L 73.84 26.80 L 73.84 35.36 L 73.03 35.36 Z" stroke="rgba(255,255,255,0.92)" stroke-width="1.0" fill="none"/>
  <path d="M 74.02 26.80 L 74.84 26.80 L 74.84 35.36 L 74.02 35.36 Z" stroke="rgba(255,255,255,0.92)" stroke-width="1.0" fill="none"/>
  <path d="M 75.16 26.80 L 75.97 26.80 L 75.97 35.36 L 75.16 35.36 Z" stroke="rgba(255,255,255,0.92)" stroke-width="1.0" fill="none"/>
  <path d="M 76.38 26.77 L 77.19 26.70 L 77.94 35.23 L 77.13 35.30 Z" stroke="rgba(255,255,255,0.92)" stroke-width="1.0" fill="none"/>
  <path d="M 79.94 26.86 L 81.07 26.97 L 80.01 35.47 L 78.88 35.35 Z" stroke="rgba(255,255,255,0.92)" stroke-width="1.0" fill="none"/>
  <path d="M 81.18 26.75 L 81.99 26.75 L 81.99 35.32 L 81.18 35.32 Z" stroke="rgba(255,255,255,0.92)" stroke-width="1.0" fill="none"/>
  <path d="M 82.36 25.67 L 83.62 25.63 L 83.58 35.27 L 82.31 35.32 Z" stroke="rgba(255,255,255,0.92)" stroke-width="1.0" fill="none"/>
  <path d="M 83.69 26.72 L 84.50 26.72 L 84.50 35.29 L 83.69 35.29 Z" stroke="rgba(255,255,255,0.92)" stroke-width="1.0" fill="none"/>
  <path d="M 84.63 26.75 L 85.44 26.75 L 85.44 35.32 L 84.63 35.32 Z" stroke="rgba(255,255,255,0.92)" stroke-width="1.0" fill="none"/>
  <path d="M 90.92 42.08 L 90.92 22.40" stroke="rgba(255,255,255,0.92)" stroke-width="1.0" fill="none"/>
  <path d="M 90.92 22.40 A 0.74 0.74 0 0 1 90.18 23.14" stroke="rgba(255,255,255,0.92)" stroke-width="1.0" fill="none"/>
  <path d="M 6.62 35.40 L 36.51 35.40" stroke="rgba(255,255,255,0.92)" stroke-width="1.0" fill="none"/>
  <path d="M 6.62 34.84 L 8.33 34.84" stroke="rgba(255,255,255,0.92)" stroke-width="1.0" fill="none"/>
  <path d="M 28.36 34.84 L 28.73 34.84" stroke="rgba(255,255,255,0.92)" stroke-width="1.0" fill="none"/>
  <path d="M 36.00 34.84 L 36.51 34.84" stroke="rgba(255,255,255,0.92)" stroke-width="1.0" fill="none"/>
  <path d="M 38.35 33.91 L 38.35 19.71" stroke="rgba(255,255,255,0.92)" stroke-width="1.0" fill="none"/>
  <path d="M 36.51 32.42 A 1.49 1.49 0 0 1 38.00 33.91" stroke="rgba(255,255,255,0.92)" stroke-width="1.0" fill="none"/>
  <path d="M 36.51 32.98 A 0.93 0.93 0 0 1 37.44 33.91" stroke="rgba(255,255,255,0.92)" stroke-width="1.0" fill="none"/>
  <path d="M 38.00 19.71 A 1.49 1.49 0 0 1 36.51 21.20" stroke="rgba(255,255,255,0.92)" stroke-width="1.0" fill="none"/>
  <path d="M 36.51 18.23 L 6.62 18.23" stroke="rgba(255,255,255,0.92)" stroke-width="1.0" fill="none"/>
  <path d="M 6.62 21.20 A 1.49 1.49 0 0 1 5.13 19.71" stroke="rgba(255,255,255,0.92)" stroke-width="1.0" fill="none"/>
  <path d="M 5.13 19.71 L 5.13 33.91" stroke="rgba(255,255,255,0.92)" stroke-width="1.0" fill="none"/>
  <path d="M 5.13 33.91 A 1.49 1.49 0 0 1 6.62 32.42" stroke="rgba(255,255,255,0.92)" stroke-width="1.0" fill="none"/>
  <path d="M 5.69 33.91 A 0.93 0.93 0 0 1 6.62 32.98" stroke="rgba(255,255,255,0.92)" stroke-width="1.0" fill="none"/>
  <path d="M 5.81 24.33 L 7.62 24.33" stroke="rgba(255,255,255,0.92)" stroke-width="1.0" fill="none"/>
  <path d="M 36.43 24.33 L 37.32 24.33" stroke="rgba(255,255,255,0.92)" stroke-width="1.0" fill="none"/>
  <path d="M 5.95 25.26 L 7.48 25.26" stroke="rgba(255,255,255,0.92)" stroke-width="1.0" fill="none"/>
  <path d="M 35.33 25.26 L 37.18 25.26" stroke="rgba(255,255,255,0.92)" stroke-width="1.0" fill="none"/>
  <path d="M 38.00 26.84 A 1.05 1.05 0 0 1 36.99 27.35" stroke="rgba(255,255,255,0.92)" stroke-width="1.0" fill="none"/>
  <path d="M 38.01 25.89 A 1.05 1.05 0 0 1 37.00 26.41" stroke="rgba(255,255,255,0.92)" stroke-width="1.0" fill="none"/>
  <path d="M 6.14 27.35 A 1.05 1.05 0 0 1 5.13 26.84" stroke="rgba(255,255,255,0.92)" stroke-width="1.0" fill="none"/>
  <path d="M 6.13 26.41 A 1.05 1.05 0 0 1 5.12 25.89" stroke="rgba(255,255,255,0.92)" stroke-width="1.0" fill="none"/>
  <path d="M 21.56 20.48 L 21.56 18.23" stroke="rgba(255,255,255,0.92)" stroke-width="1.0" fill="none"/>
  <path d="M 22.49 20.47 L 22.49 18.23" stroke="rgba(255,255,255,0.92)" stroke-width="1.0" fill="none"/>
  <path d="M 39.83 35.40 L 69.73 35.40" stroke="rgba(255,255,255,0.92)" stroke-width="1.0" fill="none"/>
  <path d="M 39.83 34.84 L 40.99 34.84" stroke="rgba(255,255,255,0.92)" stroke-width="1.0" fill="none"/>
  <path d="M 44.11 34.84 L 46.68 34.84" stroke="rgba(255,255,255,0.92)" stroke-width="1.0" fill="none"/>
  <path d="M 61.02 34.84 L 61.38 34.84" stroke="rgba(255,255,255,0.92)" stroke-width="1.0" fill="none"/>
  <path d="M 68.66 34.84 L 69.73 34.84" stroke="rgba(255,255,255,0.92)" stroke-width="1.0" fill="none"/>
  <path d="M 71.21 33.91 L 71.21 19.71" stroke="rgba(255,255,255,0.92)" stroke-width="1.0" fill="none"/>
  <path d="M 69.73 32.42 A 1.49 1.49 0 0 1 71.21 33.91" stroke="rgba(255,255,255,0.92)" stroke-width="1.0" fill="none"/>
  <path d="M 69.73 32.98 A 0.93 0.93 0 0 1 70.66 33.91" stroke="rgba(255,255,255,0.92)" stroke-width="1.0" fill="none"/>
  <path d="M 71.21 19.71 A 1.49 1.49 0 0 1 69.73 21.20" stroke="rgba(255,255,255,0.92)" stroke-width="1.0" fill="none"/>
  <path d="M 69.73 18.23 L 39.83 18.23" stroke="rgba(255,255,255,0.92)" stroke-width="1.0" fill="none"/>
  <path d="M 39.83 21.20 A 1.49 1.49 0 0 1 38.35 19.71" stroke="rgba(255,255,255,0.92)" stroke-width="1.0" fill="none"/>
  <path d="M 38.00 19.71 L 38.00 33.91" stroke="rgba(255,255,255,0.92)" stroke-width="1.0" fill="none"/>
  <path d="M 38.35 33.91 A 1.49 1.49 0 0 1 39.83 32.42" stroke="rgba(255,255,255,0.92)" stroke-width="1.0" fill="none"/>
  <path d="M 38.90 33.91 A 0.93 0.93 0 0 1 39.83 32.98" stroke="rgba(255,255,255,0.92)" stroke-width="1.0" fill="none"/>
  <path d="M 39.03 24.33 L 40.27 24.33" stroke="rgba(255,255,255,0.92)" stroke-width="1.0" fill="none"/>
  <path d="M 69.08 24.33 L 70.53 24.33" stroke="rgba(255,255,255,0.92)" stroke-width="1.0" fill="none"/>
  <path d="M 39.17 25.26 L 40.14 25.26" stroke="rgba(255,255,255,0.92)" stroke-width="1.0" fill="none"/>
  <path d="M 67.99 25.26 L 70.39 25.26" stroke="rgba(255,255,255,0.92)" stroke-width="1.0" fill="none"/>
  <path d="M 71.21 26.84 A 1.05 1.05 0 0 1 70.20 27.35" stroke="rgba(255,255,255,0.92)" stroke-width="1.0" fill="none"/>
  <path d="M 71.23 25.89 A 1.05 1.05 0 0 1 70.21 26.41" stroke="rgba(255,255,255,0.92)" stroke-width="1.0" fill="none"/>
  <path d="M 39.36 27.35 A 1.05 1.05 0 0 1 38.35 26.84" stroke="rgba(255,255,255,0.92)" stroke-width="1.0" fill="none"/>
  <path d="M 39.35 26.41 A 1.05 1.05 0 0 1 38.33 25.89" stroke="rgba(255,255,255,0.92)" stroke-width="1.0" fill="none"/>
  <path d="M 54.78 20.47 L 54.78 18.23" stroke="rgba(255,255,255,0.92)" stroke-width="1.0" fill="none"/>
  <path d="M 55.71 20.48 L 55.71 18.23" stroke="rgba(255,255,255,0.92)" stroke-width="1.0" fill="none"/>
  <path d="M 35.07 91.13 A 36.51 36.51 0 0 1 9.67 91.29" stroke="rgba(255,255,255,0.92)" stroke-width="1.0" fill="none"/>
  <path d="M 9.46 -28.90 A 33.33 33.33 0 0 1 34.19 -28.40" stroke="rgba(255,255,255,0.92)" stroke-width="1.0" fill="none"/>
  <path d="M 8.60 35.65 A 22.85 22.85 0 0 1 8.50 20.80" stroke="rgba(255,255,255,0.92)" stroke-width="1.0" fill="none"/>
  <path d="M 35.77 19.92 A 39.83 39.83 0 0 1 35.87 35.56" stroke="rgba(255,255,255,0.92)" stroke-width="1.0" fill="none"/>
  <path d="M 15.62 38.49 A 10.64 10.64 0 0 1 8.60 41.74" stroke="rgba(255,255,255,0.92)" stroke-width="1.0" fill="none"/>
  <path d="M 8.50 27.93 A 3.82 3.82 0 0 1 11.99 28.87" stroke="rgba(255,255,255,0.92)" stroke-width="1.0" fill="none"/>
  <path d="M 28.72 5.13 A 15.96 15.96 0 0 1 35.80 4.06" stroke="rgba(255,255,255,0.92)" stroke-width="1.0" fill="none"/>
  <path d="M 35.98 53.61 A 16.87 16.87 0 0 1 27.65 53.30" stroke="rgba(255,255,255,0.92)" stroke-width="1.0" fill="none"/>
  <path d="M 25.70 -4.02 A 16.19 16.19 0 0 1 35.75 -0.61" stroke="rgba(255,255,255,0.92)" stroke-width="1.0" fill="none"/>
  <path d="M 36.25 31.99 A 2.76 2.76 0 0 1 34.04 32.19" stroke="rgba(255,255,255,0.92)" stroke-width="1.0" fill="none"/>
  <path d="M 26.44 105.46 A 39.79 39.79 0 0 1 14.40 104.50" stroke="rgba(255,255,255,0.92)" stroke-width="1.0" fill="none"/>
  <path d="M 28.53 41.89 A 8.06 8.06 0 0 1 22.59 41.73" stroke="rgba(255,255,255,0.92)" stroke-width="1.0" fill="none"/>
  <path d="M 67.73 91.13 A 36.51 36.51 0 0 1 42.32 91.29" stroke="rgba(255,255,255,0.92)" stroke-width="1.0" fill="none"/>
  <path d="M 42.12 -28.90 A 33.33 33.33 0 0 1 66.84 -28.40" stroke="rgba(255,255,255,0.92)" stroke-width="1.0" fill="none"/>
  <path d="M 41.25 35.65 A 22.85 22.85 0 0 1 41.16 20.80" stroke="rgba(255,255,255,0.92)" stroke-width="1.0" fill="none"/>
  <path d="M 68.42 19.92 A 39.83 39.83 0 0 1 68.52 35.56" stroke="rgba(255,255,255,0.92)" stroke-width="1.0" fill="none"/>
  <path d="M 48.27 38.49 A 10.64 10.64 0 0 1 41.25 41.74" stroke="rgba(255,255,255,0.92)" stroke-width="1.0" fill="none"/>
  <path d="M 41.16 27.93 A 3.82 3.82 0 0 1 44.64 28.87" stroke="rgba(255,255,255,0.92)" stroke-width="1.0" fill="none"/>
  <path d="M 61.38 5.13 A 15.96 15.96 0 0 1 68.45 4.06" stroke="rgba(255,255,255,0.92)" stroke-width="1.0" fill="none"/>
  <path d="M 68.64 53.61 A 16.87 16.87 0 0 1 60.31 53.30" stroke="rgba(255,255,255,0.92)" stroke-width="1.0" fill="none"/>
  <path d="M 58.36 -4.02 A 16.19 16.19 0 0 1 68.41 -0.61" stroke="rgba(255,255,255,0.92)" stroke-width="1.0" fill="none"/>
  <path d="M 68.91 31.99 A 2.76 2.76 0 0 1 66.70 32.19" stroke="rgba(255,255,255,0.92)" stroke-width="1.0" fill="none"/>
  <path d="M 59.10 105.46 A 39.79 39.79 0 0 1 47.05 104.50" stroke="rgba(255,255,255,0.92)" stroke-width="1.0" fill="none"/>
  <path d="M 61.19 41.89 A 8.06 8.06 0 0 1 55.24 41.73" stroke="rgba(255,255,255,0.92)" stroke-width="1.0" fill="none"/>
  <path d="M 90.63 42.30 L 90.63 55.08" stroke="rgba(255,255,255,0.92)" stroke-width="1.0" fill="none"/>
  <path d="M 90.15 42.30 L 90.15 55.08" stroke="rgba(255,255,255,0.92)" stroke-width="1.0" fill="none"/>
  <path d="M 89.47 42.30 L 89.47 55.08" stroke="rgba(255,255,255,0.92)" stroke-width="1.0" fill="none"/>
  <path d="M 88.51 42.30 L 88.51 55.08" stroke="rgba(255,255,255,0.92)" stroke-width="1.0" fill="none"/>
  <path d="M 86.62 42.30 L 86.62 55.08" stroke="rgba(255,255,255,0.92)" stroke-width="1.0" fill="none"/>
  <path d="M 0.00 41.75 L 90.62 41.75 L 90.62 28.75 L 0.00 28.75 Z" stroke="rgba(255,255,255,0.92)" stroke-width="1.0" fill="none"/>
  <path d="M 1.31 41.75 L 2.79 41.75 L 2.79 42.68 L 1.31 42.68 Z" stroke="rgba(255,255,255,0.92)" stroke-width="1.0" fill="none"/>
  <path d="M 86.98 41.75 L 88.46 41.75 L 88.46 42.68 L 86.98 42.68 Z" stroke="rgba(255,255,255,0.92)" stroke-width="1.0" fill="none"/>
  <path d="M 0.00 28.75 L 4.46 28.75 L 4.46 25.04 L 0.00 25.04 Z" stroke="rgba(255,255,255,0.92)" stroke-width="1.0" fill="none"/>
  <path d="M 0.00 25.19 L 4.46 25.19" stroke="rgba(255,255,255,0.92)" stroke-width="1.0" fill="none"/>
  <path d="M 0.00 25.34 L 4.46 25.34" stroke="rgba(255,255,255,0.92)" stroke-width="1.0" fill="none"/>
  <path d="M 0.00 25.67 L 4.46 25.67" stroke="rgba(255,255,255,0.92)" stroke-width="1.0" fill="none"/>
  <path d="M 0.00 26.12 L 4.46 26.12" stroke="rgba(255,255,255,0.92)" stroke-width="1.0" fill="none"/>
  <path d="M 67.59 22.07 L 5.94 22.07" stroke="rgba(255,255,255,0.92)" stroke-width="1.0" fill="none"/>
  <path d="M 5.94 25.04 A 1.49 1.49 0 0 1 4.46 23.55" stroke="rgba(255,255,255,0.92)" stroke-width="1.0" fill="none"/>
  <path d="M 4.46 23.55 L 4.46 28.75" stroke="rgba(255,255,255,0.92)" stroke-width="1.0" fill="none"/>
  <path d="M 85.42 8.33 L 90.62 8.33" stroke="rgba(255,255,255,0.92)" stroke-width="1.0" fill="none"/>
  <path d="M 85.42 12.78 A 2.23 2.23 0 0 1 83.19 10.56" stroke="rgba(255,255,255,0.92)" stroke-width="1.0" fill="none"/>
  <path d="M 90.62 8.33 L 90.62 28.75" stroke="rgba(255,255,255,0.92)" stroke-width="1.0" fill="none"/>
  <path d="M 83.19 10.56 L 83.19 16.17" stroke="rgba(255,255,255,0.92)" stroke-width="1.0" fill="none"/>
  <path d="M 80.96 13.94 A 2.23 2.23 0 0 1 83.19 16.17" stroke="rgba(255,255,255,0.92)" stroke-width="1.0" fill="none"/>
  <path d="M 67.59 20.62 L 67.59 28.75" stroke="rgba(255,255,255,0.92)" stroke-width="1.0" fill="none"/>
  <path d="M 69.82 22.85 A 2.23 2.23 0 0 1 67.59 20.62" stroke="rgba(255,255,255,0.92)" stroke-width="1.0" fill="none"/>
  <path d="M 80.96 18.39 L 69.82 18.39" stroke="rgba(255,255,255,0.92)" stroke-width="1.0" fill="none"/>
  <path d="M 80.08 18.39 L 80.08 13.09 L 83.19 13.09" stroke="rgba(255,255,255,0.92)" stroke-width="1.0" fill="none"/>
  <path d="M 90.62 8.33 L 91.87 1.54 L 90.87 0.34 L 89.38 0.20 L 86.68 0.79 L 85.71 2.05" stroke="rgba(255,255,255,0.92)" stroke-width="1.0" fill="none"/>
  <path d="M 85.71 158.23 A 209.87 209.87 0 0 1 81.64 147.19" stroke="rgba(255,255,255,0.92)" stroke-width="1.0" fill="none"/>
  <path d="M 83.08 26.36 A 10.12 10.12 0 0 1 74.74 14.35" stroke="rgba(255,255,255,0.92)" stroke-width="1.0" fill="none"/>
  <path d="M 84.63 8.84 A 1.98 1.98 0 0 1 82.63 7.31" stroke="rgba(255,255,255,0.92)" stroke-width="1.0" fill="none"/>
  <path d="M 81.20 -6.49 A 19.15 19.15 0 0 1 83.20 -1.84" stroke="rgba(255,255,255,0.92)" stroke-width="1.0" fill="none"/>
  <path d="M 77.99 3.94 A 11.43 11.43 0 0 1 79.77 6.98" stroke="rgba(255,255,255,0.92)" stroke-width="1.0" fill="none"/>
  <path d="M 81.47 39.25 A 21.72 21.72 0 0 1 76.89 31.74" stroke="rgba(255,255,255,0.92)" stroke-width="1.0" fill="none"/>
  <path d="M 80.81 54.80 A 34.97 34.97 0 0 1 76.63 48.20" stroke="rgba(255,255,255,0.92)" stroke-width="1.0" fill="none"/>
  <path d="M 84.12 30.87 A 20.92 20.92 0 0 1 81.11 25.42" stroke="rgba(255,255,255,0.92)" stroke-width="1.0" fill="none"/>
  <path d="M 75.43 26.20 A 7.28 7.28 0 0 1 69.07 19.47" stroke="rgba(255,255,255,0.92)" stroke-width="1.0" fill="none"/>
  <path d="M 73.38 13.61 A 3.02 3.02 0 0 1 74.49 15.36" stroke="rgba(255,255,255,0.92)" stroke-width="1.0" fill="none"/>
  <path d="M 75.16 40.22 A 16.91 16.91 0 0 1 70.47 34.92" stroke="rgba(255,255,255,0.92)" stroke-width="1.0" fill="none"/>
  <path d="M 74.78 84.86 A 49.26 49.26 0 0 1 70.72 80.51" stroke="rgba(255,255,255,0.92)" stroke-width="1.0" fill="none"/>
  <path d="M 0.26 41.75 L 0.26 28.75" stroke="rgba(255,255,255,0.92)" stroke-width="1.0" fill="none"/>
  <path d="M 0.70 41.75 L 0.70 28.75" stroke="rgba(255,255,255,0.92)" stroke-width="1.0" fill="none"/>
  <path d="M 1.59 41.75 L 1.59 28.75" stroke="rgba(255,255,255,0.92)" stroke-width="1.0" fill="none"/>
  <path d="M 3.46 41.75 L 3.46 28.75" stroke="rgba(255,255,255,0.92)" stroke-width="1.0" fill="none"/>
  <path d="M 50.77 41.75 L 50.77 28.75" stroke="rgba(255,255,255,0.92)" stroke-width="1.0" fill="none"/>
  <path d="M 52.27 41.75 L 52.27 28.75" stroke="rgba(255,255,255,0.92)" stroke-width="1.0" fill="none"/>
  <path d="M 53.29 41.75 L 53.29 28.75" stroke="rgba(255,255,255,0.92)" stroke-width="1.0" fill="none"/>
  <path d="M 49.00 41.75 L 49.00 28.75" stroke="rgba(255,255,255,0.92)" stroke-width="1.0" fill="none"/>
  <path d="M 46.27 41.75 L 46.27 28.75" stroke="rgba(255,255,255,0.92)" stroke-width="1.0" fill="none"/>
  <path d="M 17.03 41.75 L 17.03 28.75" stroke="rgba(255,255,255,0.92)" stroke-width="1.0" fill="none"/>
  <path d="M 20.26 41.75 L 20.26 28.75" stroke="rgba(255,255,255,0.92)" stroke-width="1.0" fill="none"/>
  <path d="M 22.11 41.75 L 22.11 28.75" stroke="rgba(255,255,255,0.92)" stroke-width="1.0" fill="none"/>
  <path d="M 23.55 41.75 L 23.55 28.75" stroke="rgba(255,255,255,0.92)" stroke-width="1.0" fill="none"/>
  <path d="M 24.46 41.75 L 24.46 28.75" stroke="rgba(255,255,255,0.92)" stroke-width="1.0" fill="none"/>
  <path d="M 38.39 41.75 L 38.39 28.75" stroke="rgba(255,255,255,0.92)" stroke-width="1.0" fill="none"/>
  <path d="M 38.83 41.75 L 38.83 28.75" stroke="rgba(255,255,255,0.92)" stroke-width="1.0" fill="none"/>
  <path d="M 39.71 41.75 L 39.71 28.75" stroke="rgba(255,255,255,0.92)" stroke-width="1.0" fill="none"/>
  <path d="M 42.19 41.75 L 42.19 28.75" stroke="rgba(255,255,255,0.92)" stroke-width="1.0" fill="none"/>
</svg>
