<svg xmlns="http://www.w3.org/2000/svg" viewBox="0 0 100.00 71.93" data-cad-width="516.8" data-cad-height="371.7">
  <path d="M 58.19 54.15 A 12.37 12.37 0 0 1 60.33 61.04" stroke="rgba(255,255,255,0.92)" stroke-width="1.0" fill="none"/>
  <path d="M 51.30 27.92 L 51.61 27.03 L 51.94 26.15 L 52.29 25.27 L 52.68 24.41 L 53.09 23.55 L 53.52 22.70 L 53.99 21.86 L 54.47 21.03 L 54.99 20.21 L 55.52 19.41 L 56.09 18.61 L 56.67 17.83 L 57.28 17.06 L 57.92 16.30 L 58.57 15.55 L 59.25 14.82 L 59.95 14.11 L 60.67 13.41 L 61.42 12.72 L 62.18 12.05 L 62.96 11.40 L 63.77 10.77 L 64.59 10.15 L 65.43 9.55 L 66.29 8.96 L 67.17 8.40 L 68.06 7.85 L 68.97 7.33 L 69.90 6.82 L 70.84 6.33 L 71.80 5.87 L 72.77 5.42 L 73.75 4.99 L 74.75 4.59 L 75.75 4.21 L 76.77 3.84 L 77.80 3.50 L 78.84 3.18 L 79.89 2.89 L 80.95 2.61 L 82.02 2.36 L 83.09 2.13 L 84.17 1.93 L 85.26 1.74 L 86.35 1.58 L 87.44 1.45 L 88.54 1.33 L 89.65 1.24" stroke="rgba(255,255,255,0.92)" stroke-width="1.0" fill="none"/>
  <path d="M 64.67 25.82 L 64.76 25.31 L 64.86 24.80 L 64.98 24.29 L 65.10 23.79 L 65.23 23.29 L 65.37 22.79 L 65.52 22.29 L 65.69 21.79 L 65.86 21.30 L 66.04 20.81 L 66.23 20.32 L 66.43 19.83 L 66.65 19.35 L 66.87 18.87 L 67.10 18.39 L 67.34 17.92 L 67.59 17.45 L 67.85 16.98 L 68.12 16.52 L 68.39 16.06 L 68.68 15.60 L 68.98 15.15 L 69.28 14.70 L 69.60 14.26 L 69.92 13.82 L 70.25 13.39 L 70.59 12.96 L 70.94 12.53 L 71.30 12.12 L 71.66 11.70 L 72.04 11.29 L 72.42 10.89 L 72.81 10.49 L 73.21 10.10 L 73.62 9.71 L 74.03 9.33 L 74.45 8.95 L 74.88 8.58 L 75.32 8.22 L 75.76 7.86 L 76.21 7.51 L 76.67 7.16 L 77.13 6.83 L 77.61 6.49 L 78.08 6.17 L 78.57 5.85 L 79.06 5.54 L 79.56 5.23" stroke="rgba(255,255,255,0.92)" stroke-width="1.0" fill="none"/>
  <path d="M 15.00 45.24 L 15.43 45.02 L 15.86 44.81 L 16.30 44.61 L 16.75 44.41 L 17.21 44.23 L 17.67 44.05 L 18.14 43.89 L 18.62 43.73 L 19.10 43.58 L 19.59 43.44 L 20.08 43.32 L 20.58 43.20 L 21.08 43.09 L 21.59 42.99 L 22.10 42.90 L 22.62 42.82 L 23.14 42.76 L 23.67 42.70 L 24.19 42.65 L 24.72 42.61 L 25.26 42.58 L 25.80 42.57 L 26.33 42.56 L 26.88 42.56 L 27.42 42.57 L 27.96 42.60 L 28.51 42.63 L 29.06 42.67 L 29.61 42.72 L 30.16 42.79 L 30.71 42.86 L 31.26 42.94 L 31.81 43.04 L 32.35 43.14 L 32.90 43.25 L 33.45 43.37 L 34.00 43.51 L 34.54 43.65 L 35.08 43.80 L 35.63 43.96 L 36.16 44.13 L 36.70 44.31 L 37.23 44.50 L 37.76 44.70 L 38.29 44.91 L 38.81 45.13 L 39.33 45.35 L 39.85 45.59" stroke="rgba(255,255,255,0.92)" stroke-width="1.0" fill="none"/>
  <path d="M 83.13 72.00 L 82.57 72.26 L 82.01 72.51 L 81.44 72.75 L 80.87 72.98 L 80.30 73.20 L 79.72 73.41 L 79.14 73.61 L 78.56 73.79 L 77.97 73.97 L 77.39 74.13 L 76.80 74.28 L 76.21 74.42 L 75.62 74.54 L 75.03 74.66 L 74.43 74.76 L 73.84 74.85 L 73.25 74.93 L 72.66 75.00 L 72.06 75.06 L 71.47 75.10 L 70.88 75.13 L 70.30 75.15 L 69.71 75.16 L 69.13 75.15 L 68.54 75.14 L 67.96 75.11 L 67.39 75.07 L 66.82 75.01 L 66.25 74.95 L 65.68 74.87 L 65.12 74.78 L 64.56 74.68 L 64.01 74.57 L 63.46 74.44 L 62.92 74.31 L 62.38 74.16 L 61.85 74.00 L 61.32 73.83 L 60.80 73.64 L 60.29 73.45 L 59.78 73.24 L 59.28 73.03 L 58.79 72.80 L 58.31 72.56 L 57.83 72.31 L 57.36 72.05 L 56.90 71.78 L 56.45 71.50" stroke="rgba(255,255,255,0.92)" stroke-width="1.0" fill="none"/>
  <path d="M 65.14 1.85 L 65.71 2.01 L 66.28 2.19 L 66.85 2.36 L 67.41 2.55 L 67.98 2.74 L 68.54 2.93 L 69.11 3.13 L 69.67 3.34 L 70.23 3.55 L 70.79 3.77 L 71.35 3.99 L 71.91 4.22 L 72.47 4.45 L 73.03 4.69 L 73.58 4.94 L 74.14 5.19 L 74.69 5.44 L 75.24 5.71 L 75.79 5.97 L 76.34 6.24 L 76.89 6.52 L 77.43 6.80 L 77.97 7.09 L 78.52 7.39 L 79.06 7.68 L 79.59 7.99 L 80.13 8.30 L 80.66 8.61 L 81.19 8.93 L 81.72 9.25 L 82.25 9.58 L 82.78 9.92 L 83.30 10.25 L 83.82 10.60 L 84.34 10.95 L 84.86 11.30 L 85.37 11.66 L 85.88 12.02 L 86.39 12.39 L 86.89 12.76 L 87.40 13.14 L 87.90 13.52 L 88.40 13.91 L 88.89 14.30 L 89.38 14.69 L 89.87 15.09 L 90.36 15.50 L 90.84 15.90" stroke="rgba(255,255,255,0.92)" stroke-width="1.0" fill="none"/>
  <path d="M 54.90 3.04 L 55.83 2.89 L 56.76 2.74 L 57.69 2.60 L 58.62 2.47 L 59.55 2.34 L 60.48 2.21 L 61.41 2.09 L 62.34 1.98 L 63.28 1.87 L 64.21 1.76 L 65.15 1.66 L 66.09 1.56 L 67.02 1.47 L 67.96 1.38 L 68.90 1.30 L 69.84 1.22 L 70.78 1.14 L 71.72 1.08 L 72.66 1.01 L 73.60 0.95 L 74.54 0.90 L 75.49 0.85 L 76.43 0.80 L 77.37 0.76 L 78.31 0.73 L 79.26 0.70 L 80.20 0.67 L 81.14 0.65 L 82.09 0.63 L 83.03 0.62 L 83.98 0.61 L 84.92 0.61 L 85.86 0.61 L 86.81 0.62 L 87.75 0.63 L 88.70 0.65 L 89.64 0.67 L 90.58 0.70 L 91.53 0.73 L 92.47 0.76 L 93.41 0.80 L 94.35 0.85 L 95.30 0.90 L 96.24 0.95 L 97.18 1.01 L 98.12 1.08 L 99.06 1.15 L 100.00 1.22" stroke="rgba(255,255,255,0.92)" stroke-width="1.0" fill="none"/>
  <path d="M 60.88 76.78 L 60.09 77.19 L 59.29 77.59 L 58.48 77.98 L 57.65 78.35 L 56.82 78.71 L 55.98 79.05 L 55.12 79.37 L 54.26 79.68 L 53.39 79.97 L 52.51 80.24 L 51.62 80.50 L 50.72 80.74 L 49.82 80.97 L 48.90 81.17 L 47.98 81.37 L 47.06 81.54 L 46.12 81.70 L 45.18 81.84 L 44.24 81.97 L 43.29 82.07 L 42.33 82.16 L 41.37 82.24 L 40.41 82.29 L 39.44 82.33 L 38.47 82.35 L 37.49 82.36 L 36.51 82.34 L 35.53 82.31 L 34.55 82.27 L 33.56 82.20 L 32.57 82.12 L 31.59 82.02 L 30.60 81.91 L 29.61 81.78 L 28.62 81.63 L 27.63 81.46 L 26.64 81.28 L 25.65 81.08 L 24.66 80.86 L 23.68 80.63 L 22.69 80.38 L 21.71 80.11 L 20.74 79.83 L 19.76 79.53 L 18.79 79.22 L 17.82 78.89 L 16.86 78.54 L 15.90 78.18" stroke="rgba(255,255,255,0.92)" stroke-width="1.0" fill="none"/>
  <path d="M 81.09 29.38 L 81.17 28.69 L 81.27 28.00 L 81.39 27.32 L 81.51 26.64 L 81.66 25.95 L 81.81 25.27 L 81.98 24.60 L 82.17 23.92 L 82.36 23.25 L 82.58 22.58 L 82.80 21.91 L 83.04 21.25 L 83.30 20.59 L 83.57 19.94 L 83.85 19.29 L 84.14 18.64 L 84.45 18.00 L 84.77 17.36 L 85.11 16.73 L 85.45 16.10 L 85.81 15.47 L 86.19 14.86 L 86.57 14.24 L 86.97 13.64 L 87.39 13.03 L 87.81 12.44 L 88.25 11.85 L 88.70 11.27 L 89.16 10.69 L 89.63 10.12 L 90.11 9.56 L 90.61 9.01 L 91.12 8.46 L 91.64 7.92 L 92.17 7.39 L 92.71 6.86 L 93.26 6.34 L 93.82 5.83 L 94.40 5.33 L 94.98 4.84 L 95.57 4.36 L 96.18 3.88 L 96.79 3.42 L 97.41 2.96 L 98.05 2.51 L 98.69 2.07 L 99.34 1.64 L 100.00 1.22" stroke="rgba(255,255,255,0.92)" stroke-width="1.0" fill="none"/>
  <path d="M 37.44 0.01 L 37.20 0.73 L 36.95 1.44 L 36.69 2.15 L 36.43 2.86 L 36.15 3.57 L 35.87 4.28 L 35.58 4.98 L 35.27 5.68 L 34.96 6.38 L 34.65 7.08 L 34.32 7.77 L 33.98 8.46 L 33.64 9.15 L 33.29 9.83 L 32.93 10.51 L 32.56 11.19 L 32.19 11.87 L 31.80 12.54 L 31.41 13.21 L 31.01 13.87 L 30.60 14.54 L 30.19 15.19 L 29.76 15.85 L 29.33 16.50 L 28.89 17.15 L 28.44 17.79 L 27.99 18.43 L 27.52 19.07 L 27.05 19.70 L 26.57 20.33 L 26.09 20.96 L 25.59 21.58 L 25.09 22.19 L 24.58 22.80 L 24.07 23.41 L 23.54 24.02 L 23.01 24.61 L 22.48 25.21 L 21.93 25.80 L 21.38 26.38 L 20.82 26.97 L 20.25 27.54 L 19.68 28.11 L 19.10 28.68 L 18.51 29.24 L 17.92 29.80 L 17.32 30.35 L 16.71 30.89" stroke="rgba(255,255,255,0.92)" stroke-width="1.0" fill="none"/>
  <path d="M 59.27 68.74 L 43.38 67.60 L 6.61 67.97 L 0.71 68.74" stroke="rgba(255,255,255,0.92)" stroke-width="1.0" fill="none"/>
  <path d="M 24.06 17.61 L 24.83 17.31 L 25.60 17.03 L 26.39 16.76 L 27.18 16.51 L 27.98 16.27 L 28.78 16.05 L 29.60 15.84 L 30.42 15.65 L 31.24 15.48 L 32.07 15.32 L 32.91 15.17 L 33.75 15.04 L 34.60 14.93 L 35.45 14.83 L 36.31 14.74 L 37.17 14.68 L 38.04 14.62 L 38.90 14.59 L 39.77 14.57 L 40.65 14.56 L 41.52 14.58 L 42.40 14.60 L 43.28 14.64 L 44.17 14.70 L 45.05 14.78 L 45.93 14.87 L 46.82 14.97 L 47.71 15.09 L 48.59 15.23 L 49.48 15.38 L 50.36 15.55 L 51.25 15.73 L 52.13 15.93 L 53.01 16.14 L 53.89 16.37 L 54.77 16.61 L 55.65 16.87 L 56.52 17.14 L 57.39 17.43 L 58.26 17.73 L 59.12 18.05 L 59.98 18.38 L 60.83 18.73 L 61.68 19.09 L 62.53 19.46 L 63.37 19.85 L 64.21 20.26 L 65.03 20.67" stroke="rgba(255,255,255,0.92)" stroke-width="1.0" fill="none"/>
  <path d="M 54.90 3.04 L 54.53 3.13 L 54.16 3.21 L 53.78 3.28 L 53.40 3.35 L 53.02 3.42 L 52.64 3.47 L 52.26 3.52 L 51.87 3.57 L 51.49 3.60 L 51.10 3.63 L 50.72 3.66 L 50.33 3.67 L 49.95 3.68 L 49.56 3.69 L 49.17 3.68 L 48.78 3.67 L 48.40 3.66 L 48.01 3.63 L 47.63 3.61 L 47.24 3.57 L 46.86 3.53 L 46.48 3.48 L 46.09 3.42 L 45.71 3.36 L 45.34 3.29 L 44.96 3.21 L 44.59 3.13 L 44.21 3.04 L 43.84 2.95 L 43.48 2.85 L 43.11 2.74 L 42.75 2.63 L 42.39 2.51 L 42.03 2.38 L 41.68 2.25 L 41.33 2.11 L 40.98 1.97 L 40.64 1.82 L 40.30 1.66 L 39.97 1.50 L 39.64 1.33 L 39.31 1.16 L 38.99 0.98 L 38.67 0.80 L 38.36 0.61 L 38.05 0.41 L 37.74 0.21 L 37.44 0.01" stroke="rgba(255,255,255,0.92)" stroke-width="1.0" fill="none"/>
</svg>
