<svg xmlns="http://www.w3.org/2000/svg" viewBox="0 0 100 100" width="100" height="100">
  <path d="M 62.94 74.12 L 62.94 39.52" stroke="rgba(255,255,255,0.92)" stroke-width="1.0" fill="none"/>
  <path d="M 25.68 74.33 L 24.48 74.33 L 23.75 62.97 L 23.75 55.62 L 25.68 55.62 Z" stroke="rgba(255,255,255,0.92)" stroke-width="1.0" fill="none"/>
  <path d="M 21.51 39.52 L 77.57 39.52" stroke="rgba(255,255,255,0.92)" stroke-width="1.0" fill="none"/>
  <path d="M 21.51 37.84 L 77.57 37.84" stroke="rgba(255,255,255,0.92)" stroke-width="1.0" fill="none"/>
  <path d="M 21.51 39.52 A 0.84 0.84 0 0 1 21.51 37.84" stroke="rgba(255,255,255,0.92)" stroke-width="1.0" fill="none"/>
  <path d="M 49.40 72.48 L 51.01 72.48" stroke="rgba(255,255,255,0.92)" stroke-width="1.0" fill="none"/>
  <path d="M 62.94 74.12 L 51.01 73.11" stroke="rgba(255,255,255,0.92)" stroke-width="1.0" fill="none"/>
  <path d="M 62.94 74.40 L 62.94 74.12" stroke="rgba(255,255,255,0.92)" stroke-width="1.0" fill="none"/>
  <path d="M 49.40 73.11 L 51.01 73.11" stroke="rgba(255,255,255,0.92)" stroke-width="1.0" fill="none"/>
  <path d="M 49.40 72.48 L 49.40 73.11" stroke="rgba(255,255,255,0.92)" stroke-width="1.0" fill="none"/>
  <path d="M 51.01 72.48 L 51.01 73.11" stroke="rgba(255,255,255,0.92)" stroke-width="1.0" fill="none"/>
  <path d="M 49.40 72.48 L 51.01 72.48" stroke="rgba(255,255,255,0.92)" stroke-width="1.0" fill="none"/>
  <path d="M 62.94 74.12 L 51.01 73.11" stroke="rgba(255,255,255,0.92)" stroke-width="1.0" fill="none"/>
  <path d="M 62.94 74.40 L 62.94 74.12" stroke="rgba(255,255,255,0.92)" stroke-width="1.0" fill="none"/>
  <path d="M 49.40 73.11 L 51.01 73.11" stroke="rgba(255,255,255,0.92)" stroke-width="1.0" fill="none"/>
  <path d="M 49.40 72.48 L 49.40 73.11" stroke="rgba(255,255,255,0.92)" stroke-width="1.0" fill="none"/>
  <path d="M 51.01 72.48 L 51.01 73.11" stroke="rgba(255,255,255,0.92)" stroke-width="1.0" fill="none"/>
  <path d="M 37.47 74.40 L 37.47 74.12" stroke="rgba(255,255,255,0.92)" stroke-width="1.0" fill="none"/>
  <path d="M 40.20 73.89 L 49.40 73.11" stroke="rgba(255,255,255,0.92)" stroke-width="1.0" fill="none"/>
  <path d="M 40.20 74.40 L 62.94 74.40" stroke="rgba(255,255,255,0.92)" stroke-width="1.0" fill="none"/>
  <path d="M 37.47 74.12 L 49.40 73.11" stroke="rgba(255,255,255,0.92)" stroke-width="1.0" fill="none"/>
  <path d="M 37.47 74.40 L 62.94 74.40" stroke="rgba(255,255,255,0.92)" stroke-width="1.0" fill="none"/>
  <path d="M 50.93 40.20 L 50.93 72.48" stroke="rgba(255,255,255,0.92)" stroke-width="1.0" fill="none"/>
  <path d="M 49.48 40.20 L 49.48 72.48" stroke="rgba(255,255,255,0.92)" stroke-width="1.0" fill="none"/>
  <path d="M 50.93 40.20 L 50.93 72.48" stroke="rgba(255,255,255,0.92)" stroke-width="1.0" fill="none"/>
  <path d="M 49.48 40.20 L 49.48 72.48" stroke="rgba(255,255,255,0.92)" stroke-width="1.0" fill="none"/>
  <path d="M 77.57 37.84 A 0.84 0.84 0 0 1 77.57 39.52" stroke="rgba(255,255,255,0.92)" stroke-width="1.0" fill="none"/>
  <path d="M 51.69 40.20 L 51.69 40.04" stroke="rgba(255,255,255,0.92)" stroke-width="1.0" fill="none"/>
  <path d="M 57.13 39.52 L 57.13 40.04" stroke="rgba(255,255,255,0.92)" stroke-width="1.0" fill="none"/>
  <path d="M 48.72 40.20 L 48.72 40.04" stroke="rgba(255,255,255,0.92)" stroke-width="1.0" fill="none"/>
  <path d="M 48.72 40.20 L 51.69 40.20" stroke="rgba(255,255,255,0.92)" stroke-width="1.0" fill="none"/>
  <path d="M 43.28 40.04 L 57.13 40.04" stroke="rgba(255,255,255,0.92)" stroke-width="1.0" fill="none"/>
  <path d="M 77.57 37.84 A 0.84 0.84 0 0 1 77.57 39.52" stroke="rgba(255,255,255,0.92)" stroke-width="1.0" fill="none"/>
  <path d="M 51.69 40.20 L 51.69 40.04" stroke="rgba(255,255,255,0.92)" stroke-width="1.0" fill="none"/>
  <path d="M 57.13 39.52 L 57.13 40.04" stroke="rgba(255,255,255,0.92)" stroke-width="1.0" fill="none"/>
  <path d="M 48.72 40.20 L 48.72 40.04" stroke="rgba(255,255,255,0.92)" stroke-width="1.0" fill="none"/>
  <path d="M 48.72 40.20 L 51.69 40.20" stroke="rgba(255,255,255,0.92)" stroke-width="1.0" fill="none"/>
  <path d="M 43.28 40.04 L 57.13 40.04" stroke="rgba(255,255,255,0.92)" stroke-width="1.0" fill="none"/>
  <path d="M 40.20 39.52 L 77.57 39.52" stroke="rgba(255,255,255,0.92)" stroke-width="1.0" fill="none"/>
  <path d="M 40.20 37.84 L 77.57 37.84" stroke="rgba(255,255,255,0.92)" stroke-width="1.0" fill="none"/>
  <path d="M 43.28 39.52 L 43.28 40.04" stroke="rgba(255,255,255,0.92)" stroke-width="1.0" fill="none"/>
  <path d="M 43.28 39.52 L 43.28 40.04" stroke="rgba(255,255,255,0.92)" stroke-width="1.0" fill="none"/>
  <path d="M 37.47 74.26 L 37.47 39.52" stroke="rgba(255,255,255,0.92)" stroke-width="1.0" fill="none"/>
  <path d="M 98.90 74.33 L 99.61 74.33" stroke="rgba(255,255,255,0.92)" stroke-width="1.0" fill="none"/>
  <path d="M 100.00 25.60 L 99.52 26.84 L 99.14 27.97 L 98.83 29.00 L 98.59 29.93 L 98.41 30.78 L 98.27 31.55 L 98.16 32.26 L 98.07 32.91 L 97.99 33.51 L 97.92 34.07 L 97.85 34.61 L 97.79 35.14 L 97.73 35.67 L 97.68 36.20 L 97.63 36.76 L 97.59 37.35 L 97.55 37.99 L 97.51 38.66 L 97.47 39.37 L 97.44 40.09 L 97.40 40.84 L 97.37 41.59 L 97.34 42.34 L 97.31 43.09 L 97.28 43.83 L 97.26 44.55 L 97.23 45.27 L 97.21 45.99 L 97.20 46.72 L 97.20 47.45 L 97.20 48.19 L 97.22 48.95 L 97.24 49.73 L 97.28 50.53 L 97.32 51.32 L 97.37 52.12 L 97.42 52.91 L 97.47 53.67 L 97.51 54.42 L 97.56 55.13 L 97.59 55.80 L 97.62 56.47 L 97.66 57.15 L 97.70 57.87 L 97.75 58.66 L 97.81 59.56 L 97.89 60.58 L 97.99 61.75 L 98.11 63.10 L 98.26 64.59 L 98.43 66.18 L 98.63 67.84 L 98.85 69.52 L 99.08 71.19 L 99.34 72.80 L 99.61 74.33 L 100.00 25.60 L 98.60 29.07 L 97.99 33.42 L 97.56 36.87 L 97.30 43.23 L 97.09 48.73 L 97.63 55.56 L 97.72 59.80 L 98.86 70.43 L 99.61 74.33" stroke="rgba(255,255,255,0.92)" stroke-width="1.0" fill="none"/>
  <path d="M 97.28 29.19 L 96.50 31.88 L 95.91 35.35 L 95.54 39.62 L 95.41 44.73 L 95.56 50.72 L 96.01 57.63 L 96.80 65.48 L 97.95 74.33 L 97.28 29.19 L 94.99 35.38 L 94.36 49.39 L 97.95 74.33" stroke="rgba(255,255,255,0.92)" stroke-width="1.0" fill="none"/>
  <path d="M 97.95 74.33 L 99.61 74.33" stroke="rgba(255,255,255,0.92)" stroke-width="1.0" fill="none"/>
  <path d="M 76.65 58.02 L 96.05 58.02" stroke="rgba(255,255,255,0.92)" stroke-width="1.0" fill="none"/>
  <path d="M 74.57 55.55 L 74.47 55.59 L 74.40 55.57 L 74.35 55.48 L 74.33 55.35 L 74.32 55.18 L 74.32 54.98 L 74.33 54.78 L 74.34 54.59 L 74.35 54.40 L 74.36 54.24 L 74.36 54.08 L 74.37 53.94 L 74.37 53.82 L 74.37 53.70 L 74.38 53.60 L 74.38 53.50 L 74.39 53.42 L 74.41 53.34 L 74.42 53.27 L 74.43 53.20 L 74.44 53.14 L 74.46 53.08 L 74.47 53.02 L 74.48 52.96 L 74.48 52.90 L 74.49 52.84 L 74.50 52.77 L 74.52 52.70 L 74.55 52.64 L 74.60 52.57 L 74.67 52.50 L 74.76 52.42 L 74.88 52.35 L 75.02 52.28 L 75.20 52.21 L 75.40 52.14 L 75.63 52.06 L 75.89 51.99 L 76.17 51.92 L 76.48 51.85 L 76.82 51.77 L 77.18 51.70 L 77.55 51.63 L 77.92 51.56 L 78.30 51.49 L 78.68 51.43 L 79.04 51.37 L 79.38 51.31 L 79.70 51.26 L 79.99 51.21 L 80.27 51.17 L 80.54 51.13 L 80.80 51.10 L 81.06 51.07 L 81.32 51.04 L 81.59 51.02 L 81.88 51.00 L 82.17 50.98 L 82.46 50.96 L 82.76 50.95 L 83.06 50.94 L 83.36 50.93 L 83.65 50.93 L 83.94 50.92 L 84.21 50.92 L 84.47 50.93 L 84.73 50.93 L 84.98 50.94 L 85.22 50.96 L 85.46 50.97 L 85.71 50.99 L 85.95 51.02 L 86.20 51.04 L 86.45 51.07 L 86.70 51.11 L 86.96 51.14 L 87.22 51.18 L 87.49 51.21 L 87.76 51.25 L 88.04 51.29 L 88.32 51.33 L 88.61 51.36 L 88.89 51.40 L 89.18 51.43 L 89.47 51.47 L 89.75 51.51 L 90.02 51.55 L 90.28 51.59 L 90.54 51.63 L 90.78 51.67 L 91.02 51.72 L 91.24 51.76 L 91.46 51.81 L 91.66 51.86 L 91.86 51.90 L 92.04 51.95 L 92.22 52.00 L 92.39 52.04 L 92.55 52.08 L 92.71 52.12 L 92.86 52.17 L 93.01 52.21 L 93.16 52.25 L 93.31 52.29 L 93.46 52.33 L 93.61 52.37 L 93.77 52.41 L 93.92 52.45 L 94.07 52.49 L 94.22 52.53 L 94.36 52.57 L 94.50 52.62 L 94.63 52.66 L 94.76 52.71 L 94.88 52.76 L 95.00 52.81 L 95.11 52.86 L 95.21 52.91 L 95.30 52.96 L 95.39 53.00 L 95.47 53.04 L 95.53 53.08 L 95.59 53.13 L 95.64 53.17 L 95.69 53.22 L 95.72 53.28 L 95.75 53.34 L 95.78 53.42 L 95.80 53.51 L 95.81 53.61 L 95.82 53.72 L 95.83 53.84 L 95.83 53.97 L 95.83 54.10 L 95.83 54.24 L 95.83 54.38 L 95.82 54.52 L 95.82 54.66 L 95.81 54.80 L 95.80 54.93 L 95.79 55.05 L 95.78 55.16 L 95.76 55.26 L 95.74 55.34 L 95.71 55.40 L 95.66 55.45 L 95.57 55.48 L 95.44 55.51 L 95.23 55.52 L 94.93 55.52 L 94.54 55.52 L 94.03 55.52 L 93.37 55.52 L 92.45 55.51 L 91.15 55.51 L 89.34 55.51 L 86.91 55.51 L 83.71 55.52 L 79.64 55.53 L 74.57 55.55 L 74.57 55.55 L 74.25 55.78 L 74.38 54.42 L 74.35 53.40 L 74.51 52.99 L 74.46 52.43 L 76.19 51.85 L 79.65 51.26 L 81.46 50.99 L 84.06 50.90 L 85.92 50.97 L 87.98 51.30 L 90.40 51.57 L 92.14 51.96 L 93.29 52.29 L 94.55 52.59 L 95.49 53.03 L 95.84 53.28 L 95.83 54.36 L 95.79 55.54 L 95.45 55.53 L 89.55 55.49 L 74.57 55.55" stroke="rgba(255,255,255,0.92)" stroke-width="1.0" fill="none"/>
  <path d="M 74.73 74.33 L 75.92 74.33 L 76.65 62.97 L 76.65 55.62 L 74.73 55.62 Z" stroke="rgba(255,255,255,0.92)" stroke-width="1.0" fill="none"/>
  <path d="M 97.28 29.19 L 97.42 28.88 L 97.54 28.60 L 97.65 28.34 L 97.73 28.10 L 97.81 27.89 L 97.88 27.69 L 97.94 27.51 L 98.00 27.35 L 98.06 27.21 L 98.11 27.08 L 98.17 26.97 L 98.23 26.86 L 98.28 26.77 L 98.34 26.68 L 98.40 26.59 L 98.46 26.50 L 98.52 26.42 L 98.58 26.34 L 98.64 26.26 L 98.71 26.18 L 98.77 26.10 L 98.83 26.03 L 98.89 25.96 L 98.95 25.90 L 99.01 25.85 L 99.07 25.81 L 99.13 25.77 L 99.19 25.73 L 99.26 25.70 L 99.33 25.68 L 99.40 25.66 L 99.48 25.64 L 99.57 25.63 L 99.65 25.62 L 99.74 25.61 L 99.82 25.60 L 99.89 25.60 L 99.95 25.60 L 99.99 25.60 L 100.00 25.60 L 97.28 29.19 L 97.69 28.34 L 98.01 27.17 L 98.44 26.51 L 98.97 25.83 L 99.40 25.61 L 100.00 25.60 L 100.00 25.60" stroke="rgba(255,255,255,0.92)" stroke-width="1.0" fill="none"/>
  <path d="M 1.51 74.33 L 0.79 74.33" stroke="rgba(255,255,255,0.92)" stroke-width="1.0" fill="none"/>
  <path d="M 0.41 25.60 L 0.88 26.84 L 1.27 27.97 L 1.58 29.00 L 1.82 29.93 L 2.00 30.78 L 2.14 31.55 L 2.25 32.26 L 2.34 32.91 L 2.42 33.51 L 2.49 34.07 L 2.56 34.61 L 2.62 35.14 L 2.68 35.67 L 2.73 36.20 L 2.78 36.76 L 2.82 37.35 L 2.86 37.99 L 2.90 38.66 L 2.94 39.37 L 2.97 40.09 L 3.00 40.84 L 3.04 41.59 L 3.07 42.34 L 3.10 43.09 L 3.13 43.83 L 3.15 44.55 L 3.18 45.27 L 3.19 45.99 L 3.21 46.72 L 3.21 47.45 L 3.21 48.19 L 3.19 48.95 L 3.17 49.73 L 3.13 50.53 L 3.09 51.32 L 3.04 52.12 L 2.99 52.91 L 2.94 53.67 L 2.90 54.42 L 2.85 55.13 L 2.82 55.80 L 2.78 56.47 L 2.75 57.15 L 2.71 57.87 L 2.66 58.66 L 2.60 59.56 L 2.52 60.58 L 2.42 61.75 L 2.30 63.10 L 2.15 64.59 L 1.97 66.18 L 1.78 67.84 L 1.56 69.52 L 1.33 71.19 L 1.07 72.80 L 0.79 74.33 L 0.41 25.60 L 1.81 29.07 L 2.42 33.42 L 2.85 36.87 L 3.10 43.23 L 3.32 48.73 L 2.78 55.56 L 2.69 59.80 L 1.55 70.43 L 0.79 74.33" stroke="rgba(255,255,255,0.92)" stroke-width="1.0" fill="none"/>
  <path d="M 3.13 29.19 L 3.90 31.88 L 4.49 35.35 L 4.87 39.62 L 5.00 44.73 L 4.85 50.72 L 4.40 57.63 L 3.61 65.48 L 2.45 74.33 L 3.13 29.19 L 5.42 35.38 L 6.05 49.39 L 2.45 74.33" stroke="rgba(255,255,255,0.92)" stroke-width="1.0" fill="none"/>
  <path d="M 2.45 74.33 L 0.79 74.33" stroke="rgba(255,255,255,0.92)" stroke-width="1.0" fill="none"/>
  <path d="M 23.75 58.02 L 4.36 58.02" stroke="rgba(255,255,255,0.92)" stroke-width="1.0" fill="none"/>
  <path d="M 25.84 55.55 L 25.94 55.59 L 26.01 55.57 L 26.06 55.48 L 26.08 55.35 L 26.09 55.18 L 26.09 54.98 L 26.08 54.78 L 26.06 54.59 L 26.06 54.40 L 26.05 54.24 L 26.04 54.08 L 26.04 53.94 L 26.04 53.82 L 26.04 53.70 L 26.03 53.60 L 26.02 53.50 L 26.01 53.42 L 26.00 53.34 L 25.99 53.27 L 25.98 53.20 L 25.96 53.14 L 25.95 53.08 L 25.94 53.02 L 25.93 52.96 L 25.93 52.90 L 25.92 52.84 L 25.91 52.77 L 25.89 52.70 L 25.86 52.64 L 25.81 52.57 L 25.74 52.50 L 25.65 52.42 L 25.53 52.35 L 25.39 52.28 L 25.21 52.21 L 25.01 52.14 L 24.78 52.06 L 24.52 51.99 L 24.24 51.92 L 23.93 51.85 L 23.59 51.77 L 23.23 51.70 L 22.86 51.63 L 22.48 51.56 L 22.10 51.49 L 21.73 51.43 L 21.37 51.37 L 21.03 51.31 L 20.71 51.26 L 20.42 51.21 L 20.14 51.17 L 19.87 51.13 L 19.61 51.10 L 19.35 51.07 L 19.08 51.04 L 18.81 51.02 L 18.53 51.00 L 18.24 50.98 L 17.95 50.96 L 17.65 50.95 L 17.35 50.94 L 17.05 50.93 L 16.76 50.93 L 16.47 50.92 L 16.20 50.92 L 15.94 50.93 L 15.68 50.93 L 15.43 50.94 L 15.19 50.96 L 14.94 50.97 L 14.70 50.99 L 14.46 51.02 L 14.21 51.04 L 13.96 51.07 L 13.71 51.11 L 13.45 51.14 L 13.19 51.18 L 12.92 51.21 L 12.65 51.25 L 12.37 51.29 L 12.09 51.33 L 11.80 51.36 L 11.51 51.40 L 11.23 51.43 L 10.94 51.47 L 10.66 51.51 L 10.39 51.55 L 10.12 51.59 L 9.87 51.63 L 9.62 51.67 L 9.39 51.72 L 9.17 51.76 L 8.95 51.81 L 8.75 51.86 L 8.55 51.90 L 8.37 51.95 L 8.19 52.00 L 8.02 52.04 L 7.86 52.08 L 7.70 52.12 L 7.55 52.17 L 7.40 52.21 L 7.25 52.25 L 7.10 52.29 L 6.95 52.33 L 6.79 52.37 L 6.64 52.41 L 6.49 52.45 L 6.34 52.49 L 6.19 52.53 L 6.05 52.57 L 5.91 52.62 L 5.77 52.66 L 5.65 52.71 L 5.52 52.76 L 5.41 52.81 L 5.30 52.86 L 5.20 52.91 L 5.10 52.96 L 5.02 53.00 L 4.94 53.04 L 4.88 53.08 L 4.82 53.13 L 4.77 53.17 L 4.72 53.22 L 4.69 53.28 L 4.65 53.34 L 4.63 53.42 L 4.61 53.51 L 4.60 53.61 L 4.59 53.72 L 4.58 53.84 L 4.58 53.97 L 4.58 54.10 L 4.58 54.24 L 4.58 54.38 L 4.59 54.52 L 4.59 54.66 L 4.60 54.80 L 4.61 54.93 L 4.62 55.05 L 4.63 55.16 L 4.65 55.26 L 4.67 55.34 L 4.70 55.40 L 4.75 55.45 L 4.83 55.48 L 4.97 55.51 L 5.18 55.52 L 5.47 55.52 L 5.87 55.52 L 6.38 55.52 L 7.04 55.52 L 7.96 55.51 L 9.26 55.51 L 11.07 55.51 L 13.50 55.51 L 16.70 55.52 L 20.77 55.53 L 25.84 55.55 L 25.84 55.55 L 26.16 55.78 L 26.03 54.42 L 26.05 53.40 L 25.90 52.99 L 25.95 52.43 L 24.22 51.85 L 20.76 51.26 L 18.94 50.99 L 16.35 50.90 L 14.49 50.97 L 12.43 51.30 L 10.01 51.57 L 8.27 51.96 L 7.12 52.29 L 5.85 52.59 L 4.92 53.03 L 4.57 53.28 L 4.58 54.36 L 4.62 55.54 L 4.96 55.53 L 10.86 55.49 L 25.84 55.55" stroke="rgba(255,255,255,0.92)" stroke-width="1.0" fill="none"/>
  <path d="M 3.13 29.19 L 2.99 28.88 L 2.87 28.60 L 2.76 28.34 L 2.67 28.10 L 2.60 27.89 L 2.53 27.69 L 2.47 27.51 L 2.41 27.35 L 2.35 27.21 L 2.30 27.08 L 2.24 26.97 L 2.18 26.86 L 2.13 26.77 L 2.07 26.68 L 2.01 26.59 L 1.95 26.50 L 1.89 26.42 L 1.83 26.34 L 1.76 26.26 L 1.70 26.18 L 1.64 26.10 L 1.58 26.03 L 1.51 25.96 L 1.45 25.90 L 1.39 25.85 L 1.33 25.81 L 1.28 25.77 L 1.21 25.73 L 1.15 25.70 L 1.08 25.68 L 1.01 25.66 L 0.93 25.64 L 0.84 25.63 L 0.75 25.62 L 0.67 25.61 L 0.59 25.60 L 0.51 25.60 L 0.46 25.60 L 0.42 25.60 L 0.41 25.60 L 3.13 29.19 L 2.72 28.34 L 2.40 27.17 L 1.97 26.51 L 1.44 25.83 L 1.01 25.61 L 0.41 25.60 L 0.41 25.60" stroke="rgba(255,255,255,0.92)" stroke-width="1.0" fill="none"/>
  <path d="M 25.61 55.55 L 25.65 55.48 L 25.68 55.08 L 25.63 54.01 L 25.62 53.60 L 25.58 53.27 L 25.54 53.08 L 25.51 52.80 L 25.45 52.64 L 25.33 52.50 L 24.98 52.28 L 24.24 52.03 L 23.67 51.88 L 22.82 51.70 L 22.08 51.56 L 21.14 51.40 L 20.16 51.24 L 18.54 51.03 L 16.79 50.94 L 15.02 50.94 L 14.05 51.02 L 13.17 51.12 L 11.54 51.34 L 10.12 51.53 L 9.34 51.65 L 7.45 52.08 L 5.64 52.57 L 5.12 52.76 L 4.57 53.02 L 4.34 53.20 L 4.26 53.31 L 4.38 51.61 L 4.51 48.15 L 4.59 44.73 L 4.49 40.60 L 4.19 36.49 L 3.79 33.61 L 3.25 31.02 L 2.72 29.19 L 2.31 28.22 L 2.12 27.69 L 1.69 26.72 L 1.20 26.07 L 0.84 25.75 L 0.60 25.66 L 0.39 25.62 L 0.20 25.61 L 0.00 25.60 L 0.67 27.40 L 1.29 29.46 L 1.84 32.26 L 2.15 34.61 L 2.49 38.66 L 2.72 43.83 L 2.78 48.95 L 2.34 57.15 L 1.95 62.42 L 1.26 68.68 L 0.39 74.33 L 2.05 74.33 L 3.95 58.02 L 23.35 58.02 L 23.35 62.97 L 23.92 71.95 L 23.92 74.33 L 25.27 74.33 L 25.27 55.55 Z" stroke="rgba(255,255,255,0.92)" stroke-width="1.0" fill="none"/>
  <path d="M 74.39 55.55 L 74.35 55.48 L 74.32 55.08 L 74.37 54.01 L 74.38 53.60 L 74.42 53.27 L 74.46 53.08 L 74.49 52.80 L 74.55 52.64 L 74.67 52.50 L 75.02 52.28 L 75.76 52.03 L 76.33 51.88 L 77.18 51.70 L 77.92 51.56 L 78.86 51.40 L 79.84 51.24 L 81.46 51.03 L 83.21 50.94 L 84.98 50.94 L 85.95 51.02 L 86.83 51.12 L 88.46 51.34 L 89.88 51.53 L 90.66 51.65 L 92.55 52.08 L 94.36 52.57 L 94.88 52.76 L 95.43 53.02 L 95.66 53.20 L 95.74 53.31 L 95.62 51.61 L 95.49 48.15 L 95.41 44.73 L 95.51 40.60 L 95.81 36.49 L 96.21 33.61 L 96.75 31.02 L 97.28 29.19 L 97.69 28.22 L 97.88 27.69 L 98.31 26.72 L 98.80 26.07 L 99.16 25.75 L 99.40 25.66 L 99.61 25.62 L 99.80 25.61 L 100.00 25.60 L 99.33 27.40 L 98.71 29.46 L 98.16 32.26 L 97.85 34.61 L 97.51 38.66 L 97.28 43.83 L 97.22 48.95 L 97.66 57.15 L 98.05 62.42 L 98.74 68.68 L 99.61 74.33 L 97.95 74.33 L 96.05 58.02 L 76.65 58.02 L 76.65 62.97 L 76.08 71.95 L 76.08 74.33 L 74.73 74.33 L 74.73 55.55 Z" stroke="rgba(255,255,255,0.92)" stroke-width="1.0" fill="none"/>
  <path d="M 62.94 39.52 L 77.57 39.52 L 77.72 39.50 L 77.92 39.44 L 78.18 39.25 L 78.23 39.20 L 78.38 38.91 L 78.41 38.68 L 78.40 38.52 L 78.37 38.42 L 78.27 38.22 L 78.21 38.13 L 78.09 38.02 L 77.99 37.95 L 77.87 37.89 L 77.79 37.87 L 77.57 37.84 L 21.51 37.84 L 21.29 37.87 L 21.14 37.93 L 21.06 37.97 L 20.94 38.06 L 20.87 38.14 L 20.81 38.22 L 20.75 38.33 L 20.70 38.45 L 20.68 38.59 L 20.67 38.68 L 20.69 38.85 L 20.73 38.97 L 20.83 39.17 L 20.91 39.27 L 21.08 39.40 L 21.29 39.49 L 37.47 39.52 L 37.47 74.40 L 62.94 74.40 L 62.94 74.26 Z" stroke="rgba(255,255,255,0.92)" stroke-width="1.0" fill="none"/>
</svg>
