<svg xmlns="http://www.w3.org/2000/svg" viewBox="0 0 100.00 48.81" data-cad-width="2078.4" data-cad-height="1014.4">
  <path d="M 62.94 48.53 L 62.94 13.92" stroke="rgba(255,255,255,0.92)" stroke-width="1.0" fill="none"/>
  <path d="M 25.68 48.73 L 24.48 48.73 L 23.75 37.38 L 23.75 30.02 L 25.68 30.02 Z" stroke="rgba(255,255,255,0.92)" stroke-width="1.0" fill="none"/>
  <path d="M 21.51 13.92 L 77.57 13.92" stroke="rgba(255,255,255,0.92)" stroke-width="1.0" fill="none"/>
  <path d="M 21.51 12.24 L 77.57 12.24" stroke="rgba(255,255,255,0.92)" stroke-width="1.0" fill="none"/>
  <path d="M 21.51 13.92 A 0.84 0.84 0 0 1 21.51 12.24" stroke="rgba(255,255,255,0.92)" stroke-width="1.0" fill="none"/>
  <path d="M 49.40 46.89 L 51.01 46.89" stroke="rgba(255,255,255,0.92)" stroke-width="1.0" fill="none"/>
  <path d="M 62.94 48.53 L 51.01 47.52" stroke="rgba(255,255,255,0.92)" stroke-width="1.0" fill="none"/>
  <path d="M 62.94 48.81 L 62.94 48.53" stroke="rgba(255,255,255,0.92)" stroke-width="1.0" fill="none"/>
  <path d="M 49.40 47.52 L 51.01 47.52" stroke="rgba(255,255,255,0.92)" stroke-width="1.0" fill="none"/>
  <path d="M 49.40 46.89 L 49.40 47.52" stroke="rgba(255,255,255,0.92)" stroke-width="1.0" fill="none"/>
  <path d="M 51.01 46.89 L 51.01 47.52" stroke="rgba(255,255,255,0.92)" stroke-width="1.0" fill="none"/>
  <path d="M 49.40 46.89 L 51.01 46.89" stroke="rgba(255,255,255,0.92)" stroke-width="1.0" fill="none"/>
  <path d="M 62.94 48.53 L 51.01 47.52" stroke="rgba(255,255,255,0.92)" stroke-width="1.0" fill="none"/>
  <path d="M 62.94 48.81 L 62.94 48.53" stroke="rgba(255,255,255,0.92)" stroke-width="1.0" fill="none"/>
  <path d="M 49.40 47.52 L 51.01 47.52" stroke="rgba(255,255,255,0.92)" stroke-width="1.0" fill="none"/>
  <path d="M 49.40 46.89 L 49.40 47.52" stroke="rgba(255,255,255,0.92)" stroke-width="1.0" fill="none"/>
  <path d="M 51.01 46.89 L 51.01 47.52" stroke="rgba(255,255,255,0.92)" stroke-width="1.0" fill="none"/>
  <path d="M 37.47 48.81 L 37.47 48.53" stroke="rgba(255,255,255,0.92)" stroke-width="1.0" fill="none"/>
  <path d="M 40.20 48.30 L 49.40 47.52" stroke="rgba(255,255,255,0.92)" stroke-width="1.0" fill="none"/>
  <path d="M 40.20 48.81 L 62.94 48.81" stroke="rgba(255,255,255,0.92)" stroke-width="1.0" fill="none"/>
  <path d="M 37.47 48.53 L 49.40 47.52" stroke="rgba(255,255,255,0.92)" stroke-width="1.0" fill="none"/>
  <path d="M 37.47 48.81 L 62.94 48.81" stroke="rgba(255,255,255,0.92)" stroke-width="1.0" fill="none"/>
  <path d="M 50.93 14.60 L 50.93 46.89" stroke="rgba(255,255,255,0.92)" stroke-width="1.0" fill="none"/>
  <path d="M 49.48 14.60 L 49.48 46.89" stroke="rgba(255,255,255,0.92)" stroke-width="1.0" fill="none"/>
  <path d="M 50.93 14.60 L 50.93 46.89" stroke="rgba(255,255,255,0.92)" stroke-width="1.0" fill="none"/>
  <path d="M 49.48 14.60 L 49.48 46.89" stroke="rgba(255,255,255,0.92)" stroke-width="1.0" fill="none"/>
  <path d="M 77.57 12.24 A 0.84 0.84 0 0 1 77.57 13.92" stroke="rgba(255,255,255,0.92)" stroke-width="1.0" fill="none"/>
  <path d="M 51.69 14.60 L 51.69 14.45" stroke="rgba(255,255,255,0.92)" stroke-width="1.0" fill="none"/>
  <path d="M 57.13 13.92 L 57.13 14.45" stroke="rgba(255,255,255,0.92)" stroke-width="1.0" fill="none"/>
  <path d="M 48.72 14.60 L 48.72 14.45" stroke="rgba(255,255,255,0.92)" stroke-width="1.0" fill="none"/>
  <path d="M 48.72 14.60 L 51.69 14.60" stroke="rgba(255,255,255,0.92)" stroke-width="1.0" fill="none"/>
  <path d="M 43.28 14.45 L 57.13 14.45" stroke="rgba(255,255,255,0.92)" stroke-width="1.0" fill="none"/>
  <path d="M 77.57 12.24 A 0.84 0.84 0 0 1 77.57 13.92" stroke="rgba(255,255,255,0.92)" stroke-width="1.0" fill="none"/>
  <path d="M 51.69 14.60 L 51.69 14.45" stroke="rgba(255,255,255,0.92)" stroke-width="1.0" fill="none"/>
  <path d="M 57.13 13.92 L 57.13 14.45" stroke="rgba(255,255,255,0.92)" stroke-width="1.0" fill="none"/>
  <path d="M 48.72 14.60 L 48.72 14.45" stroke="rgba(255,255,255,0.92)" stroke-width="1.0" fill="none"/>
  <path d="M 48.72 14.60 L 51.69 14.60" stroke="rgba(255,255,255,0.92)" stroke-width="1.0" fill="none"/>
  <path d="M 43.28 14.45 L 57.13 14.45" stroke="rgba(255,255,255,0.92)" stroke-width="1.0" fill="none"/>
  <path d="M 40.20 13.92 L 77.57 13.92" stroke="rgba(255,255,255,0.92)" stroke-width="1.0" fill="none"/>
  <path d="M 40.20 12.24 L 77.57 12.24" stroke="rgba(255,255,255,0.92)" stroke-width="1.0" fill="none"/>
  <path d="M 43.28 13.92 L 43.28 14.45" stroke="rgba(255,255,255,0.92)" stroke-width="1.0" fill="none"/>
  <path d="M 43.28 13.92 L 43.28 14.45" stroke="rgba(255,255,255,0.92)" stroke-width="1.0" fill="none"/>
  <path d="M 37.47 48.67 L 37.47 13.92" stroke="rgba(255,255,255,0.92)" stroke-width="1.0" fill="none"/>
  <path d="M 98.90 48.73 L 99.61 48.73" stroke="rgba(255,255,255,0.92)" stroke-width="1.0" fill="none"/>
  <path d="M 100.00 0.00 L 99.52 1.24 L 99.14 2.37 L 98.83 3.40 L 98.59 4.33 L 98.41 5.18 L 98.27 5.96 L 98.16 6.66 L 98.07 7.31 L 97.99 7.91 L 97.92 8.48 L 97.85 9.02 L 97.79 9.54 L 97.73 10.07 L 97.68 10.61 L 97.63 11.17 L 97.59 11.76 L 97.55 12.39 L 97.51 13.07 L 97.47 13.77 L 97.44 14.50 L 97.40 15.24 L 97.37 15.99 L 97.34 16.75 L 97.31 17.49 L 97.28 18.23 L 97.26 18.96 L 97.23 19.68 L 97.21 20.40 L 97.20 21.12 L 97.20 21.85 L 97.20 22.60 L 97.22 23.36 L 97.24 24.14 L 97.28 24.93 L 97.32 25.73 L 97.37 26.52 L 97.42 27.31 L 97.47 28.08 L 97.51 28.82 L 97.56 29.53 L 97.59 30.21 L 97.62 30.87 L 97.66 31.55 L 97.70 32.27 L 97.75 33.07 L 97.81 33.96 L 97.89 34.98 L 97.99 36.15 L 98.11 37.50 L 98.26 38.99 L 98.43 40.58 L 98.63 42.24 L 98.85 43.93 L 99.08 45.59 L 99.34 47.21 L 99.61 48.73 L 100.00 0.00 L 98.60 3.47 L 97.99 7.82 L 97.56 11.27 L 97.30 17.64 L 97.09 23.14 L 97.63 29.96 L 97.72 34.21 L 98.86 44.83 L 99.61 48.73" stroke="rgba(255,255,255,0.92)" stroke-width="1.0" fill="none"/>
  <path d="M 97.28 3.59 L 96.50 6.29 L 95.91 9.75 L 95.54 14.02 L 95.41 19.13 L 95.56 25.12 L 96.01 32.03 L 96.80 39.89 L 97.95 48.73 L 97.28 3.59 L 94.99 9.78 L 94.36 23.80 L 97.95 48.73" stroke="rgba(255,255,255,0.92)" stroke-width="1.0" fill="none"/>
  <path d="M 97.95 48.73 L 99.61 48.73" stroke="rgba(255,255,255,0.92)" stroke-width="1.0" fill="none"/>
  <path d="M 76.65 32.43 L 96.05 32.43" stroke="rgba(255,255,255,0.92)" stroke-width="1.0" fill="none"/>
  <path d="M 74.57 29.95 L 74.47 30.00 L 74.40 29.97 L 74.35 29.88 L 74.33 29.75 L 74.32 29.58 L 74.32 29.39 L 74.33 29.19 L 74.34 28.99 L 74.35 28.81 L 74.36 28.64 L 74.36 28.49 L 74.37 28.35 L 74.37 28.22 L 74.37 28.10 L 74.38 28.00 L 74.38 27.91 L 74.39 27.82 L 74.41 27.74 L 74.42 27.67 L 74.43 27.61 L 74.44 27.55 L 74.46 27.49 L 74.47 27.43 L 74.48 27.37 L 74.48 27.31 L 74.49 27.24 L 74.50 27.18 L 74.52 27.11 L 74.55 27.04 L 74.60 26.97 L 74.67 26.90 L 74.76 26.83 L 74.88 26.76 L 75.02 26.69 L 75.20 26.61 L 75.40 26.54 L 75.63 26.47 L 75.89 26.40 L 76.17 26.32 L 76.48 26.25 L 76.82 26.18 L 77.18 26.10 L 77.55 26.03 L 77.92 25.96 L 78.30 25.90 L 78.68 25.83 L 79.04 25.77 L 79.38 25.72 L 79.70 25.66 L 79.99 25.62 L 80.27 25.58 L 80.54 25.54 L 80.80 25.50 L 81.06 25.47 L 81.32 25.45 L 81.59 25.42 L 81.88 25.40 L 82.17 25.38 L 82.46 25.37 L 82.76 25.35 L 83.06 25.34 L 83.36 25.34 L 83.65 25.33 L 83.94 25.33 L 84.21 25.33 L 84.47 25.33 L 84.73 25.34 L 84.98 25.35 L 85.22 25.36 L 85.46 25.38 L 85.71 25.40 L 85.95 25.42 L 86.20 25.45 L 86.45 25.48 L 86.70 25.51 L 86.96 25.54 L 87.22 25.58 L 87.49 25.62 L 87.76 25.66 L 88.04 25.69 L 88.32 25.73 L 88.61 25.77 L 88.89 25.80 L 89.18 25.84 L 89.47 25.87 L 89.75 25.91 L 90.02 25.95 L 90.28 25.99 L 90.54 26.03 L 90.78 26.08 L 91.02 26.12 L 91.24 26.17 L 91.46 26.22 L 91.66 26.26 L 91.86 26.31 L 92.04 26.35 L 92.22 26.40 L 92.39 26.44 L 92.55 26.49 L 92.71 26.53 L 92.86 26.57 L 93.01 26.61 L 93.16 26.65 L 93.31 26.69 L 93.46 26.73 L 93.61 26.77 L 93.77 26.81 L 93.92 26.85 L 94.07 26.89 L 94.22 26.93 L 94.36 26.98 L 94.50 27.02 L 94.63 27.07 L 94.76 27.12 L 94.88 27.17 L 95.00 27.22 L 95.11 27.27 L 95.21 27.31 L 95.30 27.36 L 95.39 27.41 L 95.47 27.45 L 95.53 27.49 L 95.59 27.53 L 95.64 27.58 L 95.69 27.63 L 95.72 27.68 L 95.75 27.75 L 95.78 27.83 L 95.80 27.92 L 95.81 28.02 L 95.82 28.13 L 95.83 28.25 L 95.83 28.37 L 95.83 28.51 L 95.83 28.64 L 95.83 28.78 L 95.82 28.92 L 95.82 29.06 L 95.81 29.20 L 95.80 29.33 L 95.79 29.45 L 95.78 29.56 L 95.76 29.66 L 95.74 29.74 L 95.71 29.81 L 95.66 29.86 L 95.57 29.89 L 95.44 29.91 L 95.23 29.92 L 94.93 29.93 L 94.54 29.93 L 94.03 29.92 L 93.37 29.92 L 92.45 29.92 L 91.15 29.91 L 89.34 29.91 L 86.91 29.92 L 83.71 29.92 L 79.64 29.94 L 74.57 29.95 L 74.57 29.95 L 74.25 30.18 L 74.38 28.82 L 74.35 27.81 L 74.51 27.39 L 74.46 26.83 L 76.19 26.25 L 79.65 25.66 L 81.46 25.40 L 84.06 25.30 L 85.92 25.38 L 87.98 25.70 L 90.40 25.97 L 92.14 26.36 L 93.29 26.70 L 94.55 27.00 L 95.49 27.44 L 95.84 27.69 L 95.83 28.77 L 95.79 29.94 L 95.45 29.93 L 89.55 29.90 L 74.57 29.95" stroke="rgba(255,255,255,0.92)" stroke-width="1.0" fill="none"/>
  <path d="M 74.73 48.73 L 75.92 48.73 L 76.65 37.38 L 76.65 30.02 L 74.73 30.02 Z" stroke="rgba(255,255,255,0.92)" stroke-width="1.0" fill="none"/>
  <path d="M 97.28 3.59 L 97.42 3.28 L 97.54 3.00 L 97.65 2.74 L 97.73 2.51 L 97.81 2.29 L 97.88 2.09 L 97.94 1.92 L 98.00 1.76 L 98.06 1.61 L 98.11 1.49 L 98.17 1.37 L 98.23 1.27 L 98.28 1.17 L 98.34 1.08 L 98.40 0.99 L 98.46 0.91 L 98.52 0.82 L 98.58 0.74 L 98.64 0.66 L 98.71 0.58 L 98.77 0.51 L 98.83 0.43 L 98.89 0.37 L 98.95 0.31 L 99.01 0.26 L 99.07 0.21 L 99.13 0.17 L 99.19 0.14 L 99.26 0.11 L 99.33 0.08 L 99.40 0.06 L 99.48 0.05 L 99.57 0.03 L 99.65 0.02 L 99.74 0.01 L 99.82 0.01 L 99.89 0.00 L 99.95 0.00 L 99.99 0.00 L 100.00 0.00 L 97.28 3.59 L 97.69 2.74 L 98.01 1.58 L 98.44 0.91 L 98.97 0.23 L 99.40 0.01 L 100.00 0.00 L 100.00 0.00" stroke="rgba(255,255,255,0.92)" stroke-width="1.0" fill="none"/>
  <path d="M 1.51 48.73 L 0.79 48.73" stroke="rgba(255,255,255,0.92)" stroke-width="1.0" fill="none"/>
  <path d="M 0.41 0.00 L 0.88 1.24 L 1.27 2.37 L 1.58 3.40 L 1.82 4.33 L 2.00 5.18 L 2.14 5.96 L 2.25 6.66 L 2.34 7.31 L 2.42 7.91 L 2.49 8.48 L 2.56 9.02 L 2.62 9.54 L 2.68 10.07 L 2.73 10.61 L 2.78 11.17 L 2.82 11.76 L 2.86 12.39 L 2.90 13.07 L 2.94 13.77 L 2.97 14.50 L 3.00 15.24 L 3.04 15.99 L 3.07 16.75 L 3.10 17.49 L 3.13 18.23 L 3.15 18.96 L 3.18 19.68 L 3.19 20.40 L 3.21 21.12 L 3.21 21.85 L 3.21 22.60 L 3.19 23.36 L 3.17 24.14 L 3.13 24.93 L 3.09 25.73 L 3.04 26.52 L 2.99 27.31 L 2.94 28.08 L 2.90 28.82 L 2.85 29.53 L 2.82 30.21 L 2.78 30.87 L 2.75 31.55 L 2.71 32.27 L 2.66 33.07 L 2.60 33.96 L 2.52 34.98 L 2.42 36.15 L 2.30 37.50 L 2.15 38.99 L 1.97 40.58 L 1.78 42.24 L 1.56 43.93 L 1.33 45.59 L 1.07 47.21 L 0.79 48.73 L 0.41 0.00 L 1.81 3.47 L 2.42 7.82 L 2.85 11.27 L 3.10 17.64 L 3.32 23.14 L 2.78 29.96 L 2.69 34.21 L 1.55 44.83 L 0.79 48.73" stroke="rgba(255,255,255,0.92)" stroke-width="1.0" fill="none"/>
  <path d="M 3.13 3.59 L 3.90 6.29 L 4.49 9.75 L 4.87 14.02 L 5.00 19.13 L 4.85 25.12 L 4.40 32.03 L 3.61 39.89 L 2.45 48.73 L 3.13 3.59 L 5.42 9.78 L 6.05 23.80 L 2.45 48.73" stroke="rgba(255,255,255,0.92)" stroke-width="1.0" fill="none"/>
  <path d="M 2.45 48.73 L 0.79 48.73" stroke="rgba(255,255,255,0.92)" stroke-width="1.0" fill="none"/>
  <path d="M 23.75 32.43 L 4.36 32.43" stroke="rgba(255,255,255,0.92)" stroke-width="1.0" fill="none"/>
  <path d="M 25.84 29.95 L 25.94 30.00 L 26.01 29.97 L 26.06 29.88 L 26.08 29.75 L 26.09 29.58 L 26.09 29.39 L 26.08 29.19 L 26.06 28.99 L 26.06 28.81 L 26.05 28.64 L 26.04 28.49 L 26.04 28.35 L 26.04 28.22 L 26.04 28.10 L 26.03 28.00 L 26.02 27.91 L 26.01 27.82 L 26.00 27.74 L 25.99 27.67 L 25.98 27.61 L 25.96 27.55 L 25.95 27.49 L 25.94 27.43 L 25.93 27.37 L 25.93 27.31 L 25.92 27.24 L 25.91 27.18 L 25.89 27.11 L 25.86 27.04 L 25.81 26.97 L 25.74 26.90 L 25.65 26.83 L 25.53 26.76 L 25.39 26.69 L 25.21 26.61 L 25.01 26.54 L 24.78 26.47 L 24.52 26.40 L 24.24 26.32 L 23.93 26.25 L 23.59 26.18 L 23.23 26.10 L 22.86 26.03 L 22.48 25.96 L 22.10 25.90 L 21.73 25.83 L 21.37 25.77 L 21.03 25.72 L 20.71 25.66 L 20.42 25.62 L 20.14 25.58 L 19.87 25.54 L 19.61 25.50 L 19.35 25.47 L 19.08 25.45 L 18.81 25.42 L 18.53 25.40 L 18.24 25.38 L 17.95 25.37 L 17.65 25.35 L 17.35 25.34 L 17.05 25.34 L 16.76 25.33 L 16.47 25.33 L 16.20 25.33 L 15.94 25.33 L 15.68 25.34 L 15.43 25.35 L 15.19 25.36 L 14.94 25.38 L 14.70 25.40 L 14.46 25.42 L 14.21 25.45 L 13.96 25.48 L 13.71 25.51 L 13.45 25.54 L 13.19 25.58 L 12.92 25.62 L 12.65 25.66 L 12.37 25.69 L 12.09 25.73 L 11.80 25.77 L 11.51 25.80 L 11.23 25.84 L 10.94 25.87 L 10.66 25.91 L 10.39 25.95 L 10.12 25.99 L 9.87 26.03 L 9.62 26.08 L 9.39 26.12 L 9.17 26.17 L 8.95 26.22 L 8.75 26.26 L 8.55 26.31 L 8.37 26.35 L 8.19 26.40 L 8.02 26.44 L 7.86 26.49 L 7.70 26.53 L 7.55 26.57 L 7.40 26.61 L 7.25 26.65 L 7.10 26.69 L 6.95 26.73 L 6.79 26.77 L 6.64 26.81 L 6.49 26.85 L 6.34 26.89 L 6.19 26.93 L 6.05 26.98 L 5.91 27.02 L 5.77 27.07 L 5.65 27.12 L 5.52 27.17 L 5.41 27.22 L 5.30 27.27 L 5.20 27.31 L 5.10 27.36 L 5.02 27.41 L 4.94 27.45 L 4.88 27.49 L 4.82 27.53 L 4.77 27.58 L 4.72 27.63 L 4.69 27.68 L 4.65 27.75 L 4.63 27.83 L 4.61 27.92 L 4.60 28.02 L 4.59 28.13 L 4.58 28.25 L 4.58 28.37 L 4.58 28.51 L 4.58 28.64 L 4.58 28.78 L 4.59 28.92 L 4.59 29.06 L 4.60 29.20 L 4.61 29.33 L 4.62 29.45 L 4.63 29.56 L 4.65 29.66 L 4.67 29.74 L 4.70 29.81 L 4.75 29.86 L 4.83 29.89 L 4.97 29.91 L 5.18 29.92 L 5.47 29.93 L 5.87 29.93 L 6.38 29.92 L 7.04 29.92 L 7.96 29.92 L 9.26 29.91 L 11.07 29.91 L 13.50 29.92 L 16.70 29.92 L 20.77 29.94 L 25.84 29.95 L 25.84 29.95 L 26.16 30.18 L 26.03 28.82 L 26.05 27.81 L 25.90 27.39 L 25.95 26.83 L 24.22 26.25 L 20.76 25.66 L 18.94 25.40 L 16.35 25.30 L 14.49 25.38 L 12.43 25.70 L 10.01 25.97 L 8.27 26.36 L 7.12 26.70 L 5.85 27.00 L 4.92 27.44 L 4.57 27.69 L 4.58 28.77 L 4.62 29.94 L 4.96 29.93 L 10.86 29.90 L 25.84 29.95" stroke="rgba(255,255,255,0.92)" stroke-width="1.0" fill="none"/>
  <path d="M 3.13 3.59 L 2.99 3.28 L 2.87 3.00 L 2.76 2.74 L 2.67 2.51 L 2.60 2.29 L 2.53 2.09 L 2.47 1.92 L 2.41 1.76 L 2.35 1.61 L 2.30 1.49 L 2.24 1.37 L 2.18 1.27 L 2.13 1.17 L 2.07 1.08 L 2.01 0.99 L 1.95 0.91 L 1.89 0.82 L 1.83 0.74 L 1.76 0.66 L 1.70 0.58 L 1.64 0.51 L 1.58 0.43 L 1.51 0.37 L 1.45 0.31 L 1.39 0.26 L 1.33 0.21 L 1.28 0.17 L 1.21 0.14 L 1.15 0.11 L 1.08 0.08 L 1.01 0.06 L 0.93 0.05 L 0.84 0.03 L 0.75 0.02 L 0.67 0.01 L 0.59 0.01 L 0.51 0.00 L 0.46 0.00 L 0.42 0.00 L 0.41 0.00 L 3.13 3.59 L 2.72 2.74 L 2.40 1.58 L 1.97 0.91 L 1.44 0.23 L 1.01 0.01 L 0.41 0.00 L 0.41 0.00" stroke="rgba(255,255,255,0.92)" stroke-width="1.0" fill="none"/>
  <path d="M 25.61 29.95 L 25.65 29.88 L 25.68 29.48 L 25.63 28.42 L 25.62 28.00 L 25.58 27.67 L 25.54 27.49 L 25.51 27.21 L 25.45 27.04 L 25.33 26.90 L 24.98 26.69 L 24.24 26.43 L 23.67 26.29 L 22.82 26.10 L 22.08 25.96 L 21.14 25.80 L 20.16 25.64 L 18.54 25.44 L 16.79 25.34 L 15.02 25.35 L 14.05 25.42 L 13.17 25.53 L 11.54 25.75 L 10.12 25.93 L 9.34 26.06 L 7.45 26.49 L 5.64 26.98 L 5.12 27.17 L 4.57 27.43 L 4.34 27.60 L 4.26 27.72 L 4.38 26.01 L 4.51 22.56 L 4.59 19.13 L 4.49 15.01 L 4.19 10.90 L 3.79 8.02 L 3.25 5.42 L 2.72 3.59 L 2.31 2.62 L 2.12 2.09 L 1.69 1.12 L 1.20 0.47 L 0.84 0.15 L 0.60 0.06 L 0.39 0.03 L 0.20 0.01 L 0.00 0.00 L 0.67 1.81 L 1.29 3.87 L 1.84 6.66 L 2.15 9.02 L 2.49 13.07 L 2.72 18.23 L 2.78 23.36 L 2.34 31.55 L 1.95 36.83 L 1.26 43.08 L 0.39 48.73 L 2.05 48.73 L 3.95 32.43 L 23.35 32.43 L 23.35 37.38 L 23.92 46.35 L 23.92 48.73 L 25.27 48.73 L 25.27 29.95 Z" stroke="rgba(255,255,255,0.92)" stroke-width="1.0" fill="none"/>
  <path d="M 74.39 29.95 L 74.35 29.88 L 74.32 29.48 L 74.37 28.42 L 74.38 28.00 L 74.42 27.67 L 74.46 27.49 L 74.49 27.21 L 74.55 27.04 L 74.67 26.90 L 75.02 26.69 L 75.76 26.43 L 76.33 26.29 L 77.18 26.10 L 77.92 25.96 L 78.86 25.80 L 79.84 25.64 L 81.46 25.44 L 83.21 25.34 L 84.98 25.35 L 85.95 25.42 L 86.83 25.53 L 88.46 25.75 L 89.88 25.93 L 90.66 26.06 L 92.55 26.49 L 94.36 26.98 L 94.88 27.17 L 95.43 27.43 L 95.66 27.60 L 95.74 27.72 L 95.62 26.01 L 95.49 22.56 L 95.41 19.13 L 95.51 15.01 L 95.81 10.90 L 96.21 8.02 L 96.75 5.42 L 97.28 3.59 L 97.69 2.62 L 97.88 2.09 L 98.31 1.12 L 98.80 0.47 L 99.16 0.15 L 99.40 0.06 L 99.61 0.03 L 99.80 0.01 L 100.00 0.00 L 99.33 1.81 L 98.71 3.87 L 98.16 6.66 L 97.85 9.02 L 97.51 13.07 L 97.28 18.23 L 97.22 23.36 L 97.66 31.55 L 98.05 36.83 L 98.74 43.08 L 99.61 48.73 L 97.95 48.73 L 96.05 32.43 L 76.65 32.43 L 76.65 37.38 L 76.08 46.35 L 76.08 48.73 L 74.73 48.73 L 74.73 29.95 Z" stroke="rgba(255,255,255,0.92)" stroke-width="1.0" fill="none"/>
  <path d="M 62.94 13.92 L 77.57 13.92 L 77.72 13.91 L 77.92 13.85 L 78.18 13.66 L 78.23 13.60 L 78.38 13.31 L 78.41 13.08 L 78.40 12.92 L 78.37 12.83 L 78.27 12.62 L 78.21 12.53 L 78.09 12.42 L 77.99 12.36 L 77.87 12.30 L 77.79 12.27 L 77.57 12.24 L 21.51 12.24 L 21.29 12.27 L 21.14 12.33 L 21.06 12.37 L 20.94 12.47 L 20.87 12.54 L 20.81 12.62 L 20.75 12.73 L 20.70 12.86 L 20.68 13.00 L 20.67 13.08 L 20.69 13.26 L 20.73 13.38 L 20.83 13.57 L 20.91 13.67 L 21.08 13.80 L 21.29 13.89 L 37.47 13.92 L 37.47 48.81 L 62.94 48.81 L 62.94 48.67 Z" stroke="rgba(255,255,255,0.92)" stroke-width="1.0" fill="none"/>
</svg>
