<svg xmlns="http://www.w3.org/2000/svg" viewBox="0 0 62.61 100.00" data-cad-width="231.1" data-cad-height="369.0">
  <path d="M 8.43 43.09 A 2.71 2.71 0 0 1 3.01 43.09" stroke="rgba(255,255,255,0.92)" stroke-width="1.0" fill="none"/>
  <path d="M 8.43 43.09 L 8.43 97.29" stroke="rgba(255,255,255,0.92)" stroke-width="1.0" fill="none"/>
  <path d="M 3.01 43.09 L 3.01 97.29" stroke="rgba(255,255,255,0.92)" stroke-width="1.0" fill="none"/>
  <path d="M 7.61 49.10 A 3.79 3.79 0 0 1 3.74 49.04" stroke="rgba(255,255,255,0.92)" stroke-width="1.0" fill="none"/>
  <path d="M 3.94 46.37 A 3.79 3.79 0 0 1 7.81 46.31" stroke="rgba(255,255,255,0.92)" stroke-width="1.0" fill="none"/>
  <path d="M 3.01 97.29 A 2.71 2.71 0 0 1 8.43 97.29" stroke="rgba(255,255,255,0.92)" stroke-width="1.0" fill="none"/>
  <path d="M 7.61 92.36 A 3.79 3.79 0 0 1 3.74 92.30" stroke="rgba(255,255,255,0.92)" stroke-width="1.0" fill="none"/>
  <path d="M 3.94 89.61 A 3.79 3.79 0 0 1 7.81 89.55" stroke="rgba(255,255,255,0.92)" stroke-width="1.0" fill="none"/>
  <path d="M 5.72 38.22 L 12.76 38.22" stroke="rgba(255,255,255,0.92)" stroke-width="1.0" fill="none"/>
  <path d="M 13.84 38.22 L 18.72 38.22" stroke="rgba(255,255,255,0.92)" stroke-width="1.0" fill="none"/>
  <path d="M 13.84 38.76 A 0.27 0.27 0 0 1 13.57 38.49" stroke="rgba(255,255,255,0.92)" stroke-width="1.0" fill="none"/>
  <path d="M 8.43 47.97 L 12.76 47.97" stroke="rgba(255,255,255,0.92)" stroke-width="1.0" fill="none"/>
  <path d="M 13.84 47.97 L 18.72 47.97" stroke="rgba(255,255,255,0.92)" stroke-width="1.0" fill="none"/>
  <path d="M 13.57 47.70 A 0.27 0.27 0 0 1 13.84 47.43" stroke="rgba(255,255,255,0.92)" stroke-width="1.0" fill="none"/>
  <path d="M 13.03 38.49 L 13.03 47.70" stroke="rgba(255,255,255,0.92)" stroke-width="1.0" fill="none"/>
  <path d="M 12.76 47.43 A 0.27 0.27 0 0 1 13.03 47.70" stroke="rgba(255,255,255,0.92)" stroke-width="1.0" fill="none"/>
  <path d="M 13.03 38.49 A 0.27 0.27 0 0 1 12.76 38.76" stroke="rgba(255,255,255,0.92)" stroke-width="1.0" fill="none"/>
  <path d="M 13.57 38.49 L 13.57 47.70" stroke="rgba(255,255,255,0.92)" stroke-width="1.0" fill="none"/>
  <path d="M 18.99 38.49 L 18.99 47.70" stroke="rgba(255,255,255,0.92)" stroke-width="1.0" fill="none"/>
  <path d="M 18.72 47.43 A 0.27 0.27 0 0 1 18.99 47.70" stroke="rgba(255,255,255,0.92)" stroke-width="1.0" fill="none"/>
  <path d="M 18.99 38.49 A 0.27 0.27 0 0 1 18.72 38.76" stroke="rgba(255,255,255,0.92)" stroke-width="1.0" fill="none"/>
  <path d="M 13.57 47.70 L 13.03 47.70" stroke="rgba(255,255,255,0.92)" stroke-width="1.0" fill="none"/>
  <path d="M 13.57 38.49 L 13.03 38.49" stroke="rgba(255,255,255,0.92)" stroke-width="1.0" fill="none"/>
  <circle cx="16.28" cy="43.09" r="1.63" stroke="rgba(255,255,255,0.92)" stroke-width="1.0" fill="none"/>
  <circle cx="5.72" cy="43.09" r="4.88" stroke="rgba(255,255,255,0.92)" stroke-width="1.0" fill="none"/>
  <path d="M 8.65 47.97 A 5.69 5.69 0 1 1 3.01 38.09" stroke="rgba(255,255,255,0.92)" stroke-width="1.0" fill="none"/>
  <path d="M 0.83 98.65 L 0.83 72.90 L 10.58 72.90 L 10.58 98.65" stroke="rgba(255,255,255,0.92)" stroke-width="1.0" fill="none"/>
  <path d="M 10.58 100.00 L 0.83 100.00" stroke="rgba(255,255,255,0.92)" stroke-width="1.0" fill="none"/>
  <path d="M 0.02 100.00 L 11.40 100.00 L 11.40 98.65 L 0.02 98.65 Z" stroke="rgba(255,255,255,0.92)" stroke-width="1.0" fill="none"/>
  <path d="M 8.42 72.90 L 8.42 2.71" stroke="rgba(255,255,255,0.92)" stroke-width="1.0" fill="none"/>
  <path d="M 3.00 72.90 L 3.00 2.71" stroke="rgba(255,255,255,0.92)" stroke-width="1.0" fill="none"/>
  <path d="M 5.49 0.01 L 5.93 0.01" stroke="rgba(255,255,255,0.92)" stroke-width="1.0" fill="none"/>
  <path d="M 8.42 2.71 A 2.71 2.71 0 0 1 3.00 2.71" stroke="rgba(255,255,255,0.92)" stroke-width="1.0" fill="none"/>
  <path d="M 3.00 20.06 L 8.42 20.06" stroke="rgba(255,255,255,0.92)" stroke-width="1.0" fill="none"/>
  <path d="M 7.41 28.39 A 8.25 8.25 0 0 1 3.87 28.41" stroke="rgba(255,255,255,0.92)" stroke-width="1.0" fill="none"/>
  <path d="M 7.41 5.42 A 2.26 2.26 0 0 1 3.87 5.44" stroke="rgba(255,255,255,0.92)" stroke-width="1.0" fill="none"/>
  <path d="M 13.29 90.38 L 13.29 81.17" stroke="rgba(255,255,255,0.92)" stroke-width="1.0" fill="none"/>
  <path d="M 13.29 81.17 A 0.27 0.27 0 0 1 13.02 81.44" stroke="rgba(255,255,255,0.92)" stroke-width="1.0" fill="none"/>
  <path d="M 13.02 90.11 A 0.27 0.27 0 0 1 13.29 90.38" stroke="rgba(255,255,255,0.92)" stroke-width="1.0" fill="none"/>
  <path d="M 13.56 90.38 L 13.56 81.17" stroke="rgba(255,255,255,0.92)" stroke-width="1.0" fill="none"/>
  <path d="M 13.56 90.38 A 0.27 0.27 0 0 1 13.84 90.11" stroke="rgba(255,255,255,0.92)" stroke-width="1.0" fill="none"/>
  <path d="M 18.98 90.65 L 18.98 80.90" stroke="rgba(255,255,255,0.92)" stroke-width="1.0" fill="none"/>
  <path d="M 18.98 90.65 L 13.84 90.65" stroke="rgba(255,255,255,0.92)" stroke-width="1.0" fill="none"/>
  <path d="M 13.02 90.65 L 10.58 90.65" stroke="rgba(255,255,255,0.92)" stroke-width="1.0" fill="none"/>
  <path d="M 18.98 80.90 L 13.84 80.90" stroke="rgba(255,255,255,0.92)" stroke-width="1.0" fill="none"/>
  <path d="M 13.84 81.44 A 0.27 0.27 0 0 1 13.56 81.17" stroke="rgba(255,255,255,0.92)" stroke-width="1.0" fill="none"/>
  <path d="M 13.02 80.90 L 10.58 80.90" stroke="rgba(255,255,255,0.92)" stroke-width="1.0" fill="none"/>
  <path d="M 10.58 94.55 A 7.31 7.31 0 0 1 6.21 89.83" stroke="rgba(255,255,255,0.92)" stroke-width="1.0" fill="none"/>
  <path d="M 6.21 84.02 A 6.05 6.05 0 0 1 10.58 78.99" stroke="rgba(255,255,255,0.92)" stroke-width="1.0" fill="none"/>
  <path d="M 13.56 81.17 L 13.29 81.17" stroke="rgba(255,255,255,0.92)" stroke-width="1.0" fill="none"/>
  <path d="M 13.29 90.38 L 13.56 90.38" stroke="rgba(255,255,255,0.92)" stroke-width="1.0" fill="none"/>
  <path d="M 16.95 74.98 L 16.95 80.90 L 15.87 80.90 L 15.86 74.97" stroke="rgba(255,255,255,0.92)" stroke-width="1.0" fill="none"/>
  <path d="M 15.33 74.98 L 15.33 65.94 L 17.49 65.94 L 17.49 74.98" stroke="rgba(255,255,255,0.92)" stroke-width="1.0" fill="none"/>
  <path d="M 15.33 74.98 L 17.49 74.98" stroke="rgba(255,255,255,0.92)" stroke-width="1.0" fill="none"/>
  <path d="M 0.83 98.65 L 0.83 72.90 L 4.63 72.90" stroke="rgba(255,255,255,0.92)" stroke-width="1.0" fill="none"/>
  <path d="M 6.80 72.90 L 10.58 72.90 L 10.58 98.65" stroke="rgba(255,255,255,0.92)" stroke-width="1.0" fill="none"/>
  <path d="M 10.58 100.00 L 0.83 100.00" stroke="rgba(255,255,255,0.92)" stroke-width="1.0" fill="none"/>
  <path d="M 0.02 100.00 L 11.40 100.00 L 11.40 98.65 L 0.02 98.65 Z" stroke="rgba(255,255,255,0.92)" stroke-width="1.0" fill="none"/>
  <path d="M 8.42 72.90 L 8.42 10.85" stroke="rgba(255,255,255,0.92)" stroke-width="1.0" fill="none"/>
  <path d="M 3.00 72.90 L 3.00 10.85" stroke="rgba(255,255,255,0.92)" stroke-width="1.0" fill="none"/>
  <path d="M 62.61 19.79 L 62.61 10.85" stroke="rgba(255,255,255,0.92)" stroke-width="1.0" fill="none"/>
  <path d="M 57.19 19.79 L 57.19 10.85" stroke="rgba(255,255,255,0.92)" stroke-width="1.0" fill="none"/>
  <path d="M 57.19 19.79 A 0.27 0.27 0 0 1 57.46 19.52" stroke="rgba(255,255,255,0.92)" stroke-width="1.0" fill="none"/>
  <path d="M 62.34 19.52 A 0.27 0.27 0 0 1 62.61 19.79" stroke="rgba(255,255,255,0.92)" stroke-width="1.0" fill="none"/>
  <path d="M 62.61 10.85 A 10.84 10.84 0 0 1 51.77 21.69" stroke="rgba(255,255,255,0.92)" stroke-width="1.0" fill="none"/>
  <path d="M 57.19 10.85 A 5.42 5.42 0 0 1 51.77 16.27" stroke="rgba(255,255,255,0.92)" stroke-width="1.0" fill="none"/>
  <path d="M 57.46 20.06 L 62.34 20.06" stroke="rgba(255,255,255,0.92)" stroke-width="1.0" fill="none"/>
  <circle cx="5.72" cy="85.43" r="4.88" stroke="rgba(255,255,255,0.92)" stroke-width="1.0" fill="none"/>
  <path d="M 13.84 0.01 L 51.77 0.01" stroke="rgba(255,255,255,0.92)" stroke-width="1.0" fill="none"/>
  <path d="M 13.84 21.69 A 10.84 10.84 0 0 1 3.00 10.85" stroke="rgba(255,255,255,0.92)" stroke-width="1.0" fill="none"/>
  <path d="M 13.84 16.27 A 5.42 5.42 0 0 1 8.42 10.85" stroke="rgba(255,255,255,0.92)" stroke-width="1.0" fill="none"/>
  <path d="M 13.84 5.43 L 51.77 5.43" stroke="rgba(255,255,255,0.92)" stroke-width="1.0" fill="none"/>
  <path d="M 6.26 74.63 L 6.26 80.58" stroke="rgba(255,255,255,0.92)" stroke-width="1.0" fill="none"/>
  <path d="M 5.17 80.58 L 5.17 74.62" stroke="rgba(255,255,255,0.92)" stroke-width="1.0" fill="none"/>
  <path d="M 4.63 74.63 L 4.63 65.60 L 6.80 65.60 L 6.80 74.63" stroke="rgba(255,255,255,0.92)" stroke-width="1.0" fill="none"/>
  <path d="M 4.63 74.63 L 6.80 74.63" stroke="rgba(255,255,255,0.92)" stroke-width="1.0" fill="none"/>
</svg>
