<svg xmlns="http://www.w3.org/2000/svg" viewBox="0 0 54.04 100.00" data-cad-width="200.3" data-cad-height="370.6">
  <path d="M 0.00 98.65 L 0.89 70.44" stroke="rgba(255,255,255,0.92)" stroke-width="1.0" fill="none"/>
  <path d="M 10.44 70.44 L 10.84 83.05" stroke="rgba(255,255,255,0.92)" stroke-width="1.0" fill="none"/>
  <path d="M 11.12 91.78 L 11.33 98.65" stroke="rgba(255,255,255,0.92)" stroke-width="1.0" fill="none"/>
  <path d="M 10.52 100.00 L 0.81 100.00" stroke="rgba(255,255,255,0.92)" stroke-width="1.0" fill="none"/>
  <path d="M 0.00 100.00 L 11.33 100.00 L 11.33 98.65 L 0.00 98.65 Z" stroke="rgba(255,255,255,0.92)" stroke-width="1.0" fill="none"/>
  <path d="M 2.97 70.44 L 2.97 22.02" stroke="rgba(255,255,255,0.92)" stroke-width="1.0" fill="none"/>
  <path d="M 7.34 92.25 A 4.86 4.86 0 1 1 7.34 82.83" stroke="rgba(255,255,255,0.92)" stroke-width="1.0" fill="none"/>
  <path d="M 8.36 22.09 L 8.36 70.44" stroke="rgba(255,255,255,0.92)" stroke-width="1.0" fill="none"/>
  <path d="M 48.22 26.13 A 20.24 20.24 0 0 1 8.36 31.85" stroke="rgba(255,255,255,0.92)" stroke-width="1.0" fill="none"/>
  <path d="M 8.36 22.35 A 0.54 0.54 0 0 1 8.35 22.22" stroke="rgba(255,255,255,0.92)" stroke-width="1.0" fill="none"/>
  <path d="M 48.22 27.86 A 0.54 0.54 0 0 1 48.85 27.31" stroke="rgba(255,255,255,0.92)" stroke-width="1.0" fill="none"/>
  <path d="M 53.96 26.71 A 25.72 25.72 0 0 1 2.95 31.60" stroke="rgba(255,255,255,0.92)" stroke-width="1.0" fill="none"/>
  <path d="M 53.51 26.50 A 0.54 0.54 0 0 1 53.96 27.03" stroke="rgba(255,255,255,0.92)" stroke-width="1.0" fill="none"/>
  <path d="M 48.85 28.37 L 53.51 27.56" stroke="rgba(255,255,255,0.92)" stroke-width="1.0" fill="none"/>
  <path d="M 48.67 27.31 L 53.33 26.50" stroke="rgba(255,255,255,0.92)" stroke-width="1.0" fill="none"/>
  <path d="M 7.34 82.83 L 25.15 83.94" stroke="rgba(255,255,255,0.92)" stroke-width="1.0" fill="none"/>
  <path d="M 7.34 92.25 L 25.15 90.04" stroke="rgba(255,255,255,0.92)" stroke-width="1.0" fill="none"/>
  <path d="M 25.15 83.94 A 6.10 6.10 0 0 1 25.15 90.04" stroke="rgba(255,255,255,0.92)" stroke-width="1.0" fill="none"/>
  <path d="M 8.97 92.15 A 5.40 5.40 0 1 1 9.16 83.06" stroke="rgba(255,255,255,0.92)" stroke-width="1.0" fill="none"/>
  <path d="M 0.89 70.44 L 0.00 98.65" stroke="rgba(255,255,255,0.92)" stroke-width="1.0" fill="none"/>
  <path d="M 0.89 70.44 L 2.97 70.44" stroke="rgba(255,255,255,0.92)" stroke-width="1.0" fill="none"/>
  <path d="M 2.97 70.44 L 10.44 70.44" stroke="rgba(255,255,255,0.92)" stroke-width="1.0" fill="none"/>
  <path d="M 0.87 71.20 L 10.47 71.20" stroke="rgba(255,255,255,0.92)" stroke-width="1.0" fill="none"/>
  <path d="M 1.19 98.65 L 1.19 96.39" stroke="rgba(255,255,255,0.92)" stroke-width="1.0" fill="none"/>
  <path d="M 2.54 98.65 L 2.54 94.05" stroke="rgba(255,255,255,0.92)" stroke-width="1.0" fill="none"/>
  <path d="M 10.23 96.39 L 10.23 98.65" stroke="rgba(255,255,255,0.92)" stroke-width="1.0" fill="none"/>
  <path d="M 8.88 94.05 L 8.88 98.65" stroke="rgba(255,255,255,0.92)" stroke-width="1.0" fill="none"/>
  <path d="M 8.33 110.74 A 8.86 8.86 0 0 1 3.10 110.74" stroke="rgba(255,255,255,0.92)" stroke-width="1.0" fill="none"/>
  <path d="M 10.23 96.39 A 2.70 2.70 0 0 1 8.33 98.96" stroke="rgba(255,255,255,0.92)" stroke-width="1.0" fill="none"/>
  <path d="M 3.10 98.96 A 2.70 2.70 0 0 1 1.19 96.39" stroke="rgba(255,255,255,0.92)" stroke-width="1.0" fill="none"/>
  <path d="M 3.07 71.20 L 2.79 77.92" stroke="rgba(255,255,255,0.92)" stroke-width="1.0" fill="none"/>
  <path d="M 8.36 71.20 L 8.64 77.88" stroke="rgba(255,255,255,0.92)" stroke-width="1.0" fill="none"/>
  <path d="M 2.79 77.91 A 2.93 2.93 0 1 1 8.64 77.96" stroke="rgba(255,255,255,0.92)" stroke-width="1.0" fill="none"/>
  <path d="M 48.67 28.14 A 0.87 0.87 0 0 1 48.85 27.07" stroke="rgba(255,255,255,0.92)" stroke-width="1.0" fill="none"/>
  <path d="M 53.51 26.65 A 0.70 0.70 0 0 1 53.33 27.71" stroke="rgba(255,255,255,0.92)" stroke-width="1.0" fill="none"/>
  <path d="M 3.16 98.42 L 3.97 72.79 L 13.68 72.79 L 13.93 80.72 L 16.63 83.34 L 16.75 83.34" stroke="rgba(255,255,255,0.92)" stroke-width="1.0" fill="none"/>
  <path d="M 13.68 99.77 L 3.97 99.77" stroke="rgba(255,255,255,0.92)" stroke-width="1.0" fill="none"/>
  <path d="M 3.16 99.77 L 14.49 99.77 L 14.49 98.42 L 3.16 98.42 Z" stroke="rgba(255,255,255,0.92)" stroke-width="1.0" fill="none"/>
  <path d="M 6.13 72.79 L 6.13 3.54" stroke="rgba(255,255,255,0.92)" stroke-width="1.0" fill="none"/>
  <path d="M 8.61 0.85 L 9.05 0.85" stroke="rgba(255,255,255,0.92)" stroke-width="1.0" fill="none"/>
  <path d="M 11.52 3.54 A 2.70 2.70 0 0 1 6.13 3.54" stroke="rgba(255,255,255,0.92)" stroke-width="1.0" fill="none"/>
  <path d="M 6.13 20.82 L 11.52 20.82" stroke="rgba(255,255,255,0.92)" stroke-width="1.0" fill="none"/>
  <path d="M 10.52 29.11 A 8.22 8.22 0 0 1 7.00 29.13" stroke="rgba(255,255,255,0.92)" stroke-width="1.0" fill="none"/>
  <path d="M 10.52 6.24 A 2.26 2.26 0 0 1 7.00 6.26" stroke="rgba(255,255,255,0.92)" stroke-width="1.0" fill="none"/>
  <path d="M 17.02 92.78 L 17.02 83.61" stroke="rgba(255,255,255,0.92)" stroke-width="1.0" fill="none"/>
  <path d="M 17.02 83.61 A 0.27 0.27 0 0 1 16.75 83.88" stroke="rgba(255,255,255,0.92)" stroke-width="1.0" fill="none"/>
  <path d="M 16.75 92.51 A 0.27 0.27 0 0 1 17.02 92.78" stroke="rgba(255,255,255,0.92)" stroke-width="1.0" fill="none"/>
  <path d="M 16.75 93.05 L 15.72 93.05" stroke="rgba(255,255,255,0.92)" stroke-width="1.0" fill="none"/>
  <path d="M 11.52 3.54 L 11.52 72.79" stroke="rgba(255,255,255,0.92)" stroke-width="1.0" fill="none"/>
  <path d="M 17.02 92.78 L 19.05 93.41" stroke="rgba(255,255,255,0.92)" stroke-width="1.0" fill="none"/>
  <path d="M 19.05 90.84 A 1.35 1.35 0 0 1 20.71 91.65" stroke="rgba(255,255,255,0.92)" stroke-width="1.0" fill="none"/>
  <path d="M 20.71 92.60 L 28.44 71.91" stroke="rgba(255,255,255,0.92)" stroke-width="1.0" fill="none"/>
  <path d="M 28.13 71.22 L 27.88 71.12" stroke="rgba(255,255,255,0.92)" stroke-width="1.0" fill="none"/>
  <path d="M 28.44 71.53 A 0.54 0.54 0 0 1 28.13 72.23" stroke="rgba(255,255,255,0.92)" stroke-width="1.0" fill="none"/>
  <path d="M 27.88 72.13 A 0.54 0.54 0 0 1 27.18 71.81" stroke="rgba(255,255,255,0.92)" stroke-width="1.0" fill="none"/>
  <path d="M 27.18 71.44 L 22.21 84.57" stroke="rgba(255,255,255,0.92)" stroke-width="1.0" fill="none"/>
  <path d="M 20.48 85.36 L 18.80 84.73" stroke="rgba(255,255,255,0.92)" stroke-width="1.0" fill="none"/>
  <path d="M 20.48 82.83 A 1.35 1.35 0 0 1 22.21 83.62" stroke="rgba(255,255,255,0.92)" stroke-width="1.0" fill="none"/>
  <path d="M 17.71 85.41 L 17.02 92.78" stroke="rgba(255,255,255,0.92)" stroke-width="1.0" fill="none"/>
  <path d="M 18.80 86.25 A 0.81 0.81 0 0 1 17.71 85.56" stroke="rgba(255,255,255,0.92)" stroke-width="1.0" fill="none"/>
  <path d="M 17.76 84.92 L 17.02 84.64" stroke="rgba(255,255,255,0.92)" stroke-width="1.0" fill="none"/>
  <path d="M 14.37 94.44 L 14.49 98.42" stroke="rgba(255,255,255,0.92)" stroke-width="1.0" fill="none"/>
  <path d="M 15.72 95.75 A 1.35 1.35 0 0 1 14.37 94.36" stroke="rgba(255,255,255,0.92)" stroke-width="1.0" fill="none"/>
  <path d="M 3.95 73.43 L 13.70 73.43" stroke="rgba(255,255,255,0.92)" stroke-width="1.0" fill="none"/>
  <path d="M 6.13 73.43 L 5.85 80.15" stroke="rgba(255,255,255,0.92)" stroke-width="1.0" fill="none"/>
  <path d="M 11.42 73.43 L 11.70 80.11" stroke="rgba(255,255,255,0.92)" stroke-width="1.0" fill="none"/>
  <path d="M 5.85 80.14 A 2.93 2.93 0 1 1 11.70 80.18" stroke="rgba(255,255,255,0.92)" stroke-width="1.0" fill="none"/>
  <path d="M 11.09 35.37 A 2.70 2.70 0 0 1 5.69 35.37" stroke="rgba(255,255,255,0.92)" stroke-width="1.0" fill="none"/>
  <path d="M 11.09 35.37 L 11.09 77.88" stroke="rgba(255,255,255,0.92)" stroke-width="1.0" fill="none"/>
  <path d="M 10.28 45.33 A 3.78 3.78 0 0 1 6.42 45.27" stroke="rgba(255,255,255,0.92)" stroke-width="1.0" fill="none"/>
  <path d="M 6.62 39.55 A 3.78 3.78 0 0 1 10.47 39.49" stroke="rgba(255,255,255,0.92)" stroke-width="1.0" fill="none"/>
  <path d="M 5.69 77.88 A 2.70 2.70 0 0 1 11.09 77.88" stroke="rgba(255,255,255,0.92)" stroke-width="1.0" fill="none"/>
  <path d="M 10.28 76.75 A 3.78 3.78 0 0 1 6.42 76.69" stroke="rgba(255,255,255,0.92)" stroke-width="1.0" fill="none"/>
  <path d="M 6.62 70.23 A 3.78 3.78 0 0 1 10.47 70.18" stroke="rgba(255,255,255,0.92)" stroke-width="1.0" fill="none"/>
  <path d="M 8.39 30.51 L 15.41 30.51" stroke="rgba(255,255,255,0.92)" stroke-width="1.0" fill="none"/>
  <path d="M 16.48 30.51 L 21.34 30.51" stroke="rgba(255,255,255,0.92)" stroke-width="1.0" fill="none"/>
  <path d="M 16.48 31.05 A 0.27 0.27 0 0 1 16.21 30.78" stroke="rgba(255,255,255,0.92)" stroke-width="1.0" fill="none"/>
  <path d="M 11.09 40.22 L 15.41 40.22" stroke="rgba(255,255,255,0.92)" stroke-width="1.0" fill="none"/>
  <path d="M 16.48 40.22 L 21.34 40.22" stroke="rgba(255,255,255,0.92)" stroke-width="1.0" fill="none"/>
  <path d="M 16.21 39.95 A 0.27 0.27 0 0 1 16.48 39.68" stroke="rgba(255,255,255,0.92)" stroke-width="1.0" fill="none"/>
  <path d="M 15.68 30.78 L 15.68 39.95" stroke="rgba(255,255,255,0.92)" stroke-width="1.0" fill="none"/>
  <path d="M 15.41 39.68 A 0.27 0.27 0 0 1 15.68 39.95" stroke="rgba(255,255,255,0.92)" stroke-width="1.0" fill="none"/>
  <path d="M 15.68 30.78 A 0.27 0.27 0 0 1 15.41 31.05" stroke="rgba(255,255,255,0.92)" stroke-width="1.0" fill="none"/>
  <path d="M 16.21 30.78 L 16.21 39.95" stroke="rgba(255,255,255,0.92)" stroke-width="1.0" fill="none"/>
  <path d="M 21.61 30.78 L 21.61 39.95" stroke="rgba(255,255,255,0.92)" stroke-width="1.0" fill="none"/>
  <path d="M 21.34 39.68 A 0.27 0.27 0 0 1 21.61 39.95" stroke="rgba(255,255,255,0.92)" stroke-width="1.0" fill="none"/>
  <path d="M 21.61 30.78 A 0.27 0.27 0 0 1 21.34 31.05" stroke="rgba(255,255,255,0.92)" stroke-width="1.0" fill="none"/>
  <path d="M 16.21 39.95 L 15.68 39.95" stroke="rgba(255,255,255,0.92)" stroke-width="1.0" fill="none"/>
  <path d="M 16.21 30.78 L 15.68 30.78" stroke="rgba(255,255,255,0.92)" stroke-width="1.0" fill="none"/>
  <circle cx="18.91" cy="35.37" r="1.62" stroke="rgba(255,255,255,0.92)" stroke-width="1.0" fill="none"/>
  <path d="M 11.09 31.33 A 4.86 4.86 0 1 1 5.69 31.33" stroke="rgba(255,255,255,0.92)" stroke-width="1.0" fill="none"/>
  <path d="M 11.31 40.22 A 5.67 5.67 0 1 1 5.69 30.39" stroke="rgba(255,255,255,0.92)" stroke-width="1.0" fill="none"/>
  <path d="M 5.69 35.37 L 5.69 77.88" stroke="rgba(255,255,255,0.92)" stroke-width="1.0" fill="none"/>
  <path d="M 21.61 39.95 L 21.61 56.80" stroke="rgba(255,255,255,0.92)" stroke-width="1.0" fill="none"/>
  <path d="M 20.26 40.22 L 20.26 56.80" stroke="rgba(255,255,255,0.92)" stroke-width="1.0" fill="none"/>
  <path d="M 20.26 55.86 A 0.82 0.82 0 0 1 21.61 55.86" stroke="rgba(255,255,255,0.92)" stroke-width="1.0" fill="none"/>
</svg>
