<svg xmlns="http://www.w3.org/2000/svg" viewBox="0 0 100 100" width="100" height="100">
  <path d="M 2.94 51.43 L 100.00 51.43" stroke="rgba(255,255,255,0.92)" stroke-width="1.0" fill="none"/>
  <path d="M 2.94 48.73 L 27.20 48.73" stroke="rgba(255,255,255,0.92)" stroke-width="1.0" fill="none"/>
  <path d="M 27.20 43.34 L 100.00 43.34" stroke="rgba(255,255,255,0.92)" stroke-width="1.0" fill="none"/>
  <path d="M 27.20 40.64 L 42.57 40.64" stroke="rgba(255,255,255,0.92)" stroke-width="1.0" fill="none"/>
  <path d="M 11.58 39.29 L 27.08 39.29" stroke="rgba(255,255,255,0.92)" stroke-width="1.0" fill="none"/>
  <path d="M 27.20 39.56 A 0.27 0.27 0 0 1 26.93 39.83" stroke="rgba(255,255,255,0.92)" stroke-width="1.0" fill="none"/>
  <path d="M 12.14 37.94 L 27.07 37.94" stroke="rgba(255,255,255,0.92)" stroke-width="1.0" fill="none"/>
  <path d="M 11.19 35.64 A 1.35 1.35 0 0 1 12.14 35.25" stroke="rgba(255,255,255,0.92)" stroke-width="1.0" fill="none"/>
  <path d="M 89.22 39.29 L 100.00 39.29" stroke="rgba(255,255,255,0.92)" stroke-width="1.0" fill="none"/>
  <path d="M 89.75 39.29 L 99.46 39.29" stroke="rgba(255,255,255,0.92)" stroke-width="1.0" fill="none"/>
  <path d="M 2.94 35.25 L 6.42 35.25" stroke="rgba(255,255,255,0.92)" stroke-width="1.0" fill="none"/>
  <path d="M 2.94 33.90 L 6.98 33.90" stroke="rgba(255,255,255,0.92)" stroke-width="1.0" fill="none"/>
  <path d="M 2.94 31.20 L 6.98 31.20" stroke="rgba(255,255,255,0.92)" stroke-width="1.0" fill="none"/>
  <path d="M 7.93 36.20 A 1.35 1.35 0 0 1 6.98 36.60" stroke="rgba(255,255,255,0.92)" stroke-width="1.0" fill="none"/>
  <path d="M 89.75 35.25 L 99.46 35.25" stroke="rgba(255,255,255,0.92)" stroke-width="1.0" fill="none"/>
  <path d="M 99.46 34.17 A 0.54 0.54 0 0 1 100.00 34.71" stroke="rgba(255,255,255,0.92)" stroke-width="1.0" fill="none"/>
  <path d="M 89.75 33.90 L 99.46 33.90" stroke="rgba(255,255,255,0.92)" stroke-width="1.0" fill="none"/>
  <path d="M 89.75 34.98 A 0.54 0.54 0 0 1 89.22 34.44" stroke="rgba(255,255,255,0.92)" stroke-width="1.0" fill="none"/>
  <path d="M 89.22 34.71 A 0.54 0.54 0 0 1 89.75 34.17" stroke="rgba(255,255,255,0.92)" stroke-width="1.0" fill="none"/>
  <path d="M 44.46 25.00 L 58.48 25.00" stroke="rgba(255,255,255,0.92)" stroke-width="1.0" fill="none"/>
  <path d="M 68.72 25.00 L 88.14 25.00" stroke="rgba(255,255,255,0.92)" stroke-width="1.0" fill="none"/>
  <path d="M 68.72 27.16 A 1.08 1.08 0 0 1 67.65 26.08" stroke="rgba(255,255,255,0.92)" stroke-width="1.0" fill="none"/>
  <path d="M 2.94 31.13 L 2.94 51.43" stroke="rgba(255,255,255,0.92)" stroke-width="1.0" fill="none"/>
  <path d="M 27.20 39.56 L 27.20 51.43" stroke="rgba(255,255,255,0.92)" stroke-width="1.0" fill="none"/>
  <path d="M 43.38 41.45 L 43.38 43.34" stroke="rgba(255,255,255,0.92)" stroke-width="1.0" fill="none"/>
  <path d="M 44.19 42.26 A 0.81 0.81 0 0 1 43.38 41.45" stroke="rgba(255,255,255,0.92)" stroke-width="1.0" fill="none"/>
  <path d="M 43.38 41.45 A 0.81 0.81 0 0 1 42.57 42.26" stroke="rgba(255,255,255,0.92)" stroke-width="1.0" fill="none"/>
  <path d="M 59.56 41.45 L 59.56 43.34" stroke="rgba(255,255,255,0.92)" stroke-width="1.0" fill="none"/>
  <path d="M 100.00 39.83 L 100.00 40.10" stroke="rgba(255,255,255,0.92)" stroke-width="1.0" fill="none"/>
  <path d="M 99.46 39.56 A 0.54 0.54 0 0 1 100.00 40.10" stroke="rgba(255,255,255,0.92)" stroke-width="1.0" fill="none"/>
  <path d="M 100.00 39.83 A 0.54 0.54 0 0 1 99.46 40.37" stroke="rgba(255,255,255,0.92)" stroke-width="1.0" fill="none"/>
  <path d="M 75.73 43.34 L 75.73 51.43" stroke="rgba(255,255,255,0.92)" stroke-width="1.0" fill="none"/>
  <path d="M 89.22 39.83 L 89.22 40.10" stroke="rgba(255,255,255,0.92)" stroke-width="1.0" fill="none"/>
  <path d="M 89.75 40.37 A 0.54 0.54 0 0 1 89.22 39.83" stroke="rgba(255,255,255,0.92)" stroke-width="1.0" fill="none"/>
  <path d="M 27.20 31.20 L 27.20 37.98" stroke="rgba(255,255,255,0.92)" stroke-width="1.0" fill="none"/>
  <path d="M 21.81 31.20 L 21.81 37.98" stroke="rgba(255,255,255,0.92)" stroke-width="1.0" fill="none"/>
  <path d="M 16.42 31.20 L 16.42 37.98" stroke="rgba(255,255,255,0.92)" stroke-width="1.0" fill="none"/>
  <path d="M 11.03 31.20 L 11.03 37.39" stroke="rgba(255,255,255,0.92)" stroke-width="1.0" fill="none"/>
  <path d="M 32.60 31.20 L 32.60 40.64" stroke="rgba(255,255,255,0.92)" stroke-width="1.0" fill="none"/>
  <path d="M 37.99 31.20 L 37.99 40.64" stroke="rgba(255,255,255,0.92)" stroke-width="1.0" fill="none"/>
  <path d="M 43.38 31.20 L 43.38 40.64" stroke="rgba(255,255,255,0.92)" stroke-width="1.0" fill="none"/>
  <path d="M 48.77 31.20 L 48.77 40.64" stroke="rgba(255,255,255,0.92)" stroke-width="1.0" fill="none"/>
  <path d="M 54.16 31.20 L 54.16 40.64" stroke="rgba(255,255,255,0.92)" stroke-width="1.0" fill="none"/>
  <path d="M 59.56 31.20 L 59.56 40.64" stroke="rgba(255,255,255,0.92)" stroke-width="1.0" fill="none"/>
  <path d="M 64.95 31.20 L 64.95 40.64" stroke="rgba(255,255,255,0.92)" stroke-width="1.0" fill="none"/>
  <path d="M 70.34 31.20 L 70.34 40.64" stroke="rgba(255,255,255,0.92)" stroke-width="1.0" fill="none"/>
  <path d="M 75.73 31.20 L 75.73 40.64" stroke="rgba(255,255,255,0.92)" stroke-width="1.0" fill="none"/>
  <path d="M 82.47 31.20 L 82.47 40.64" stroke="rgba(255,255,255,0.92)" stroke-width="1.0" fill="none"/>
  <path d="M 7.38 35.64 L 10.63 38.90" stroke="rgba(255,255,255,0.92)" stroke-width="1.0" fill="none"/>
  <path d="M 7.38 37.55 A 1.35 1.35 0 0 1 6.42 37.94" stroke="rgba(255,255,255,0.92)" stroke-width="1.0" fill="none"/>
  <path d="M 10.63 36.99 A 1.35 1.35 0 0 1 11.58 36.60" stroke="rgba(255,255,255,0.92)" stroke-width="1.0" fill="none"/>
  <path d="M 7.93 34.29 L 11.19 37.55" stroke="rgba(255,255,255,0.92)" stroke-width="1.0" fill="none"/>
  <path d="M 27.30 38.06 A 0.96 0.96 0 0 1 27.29 39.19" stroke="rgba(255,255,255,0.92)" stroke-width="1.0" fill="none"/>
  <path d="M 27.08 38.75 A 0.27 0.27 0 0 1 27.30 38.87" stroke="rgba(255,255,255,0.92)" stroke-width="1.0" fill="none"/>
  <path d="M 27.29 38.37 A 0.27 0.27 0 0 1 27.07 38.48" stroke="rgba(255,255,255,0.92)" stroke-width="1.0" fill="none"/>
  <path d="M 44.19 40.64 L 58.75 40.64" stroke="rgba(255,255,255,0.92)" stroke-width="1.0" fill="none"/>
  <path d="M 59.56 41.45 A 0.81 0.81 0 0 1 58.75 42.26" stroke="rgba(255,255,255,0.92)" stroke-width="1.0" fill="none"/>
  <path d="M 60.37 40.64 L 89.75 40.64" stroke="rgba(255,255,255,0.92)" stroke-width="1.0" fill="none"/>
  <path d="M 60.37 42.26 A 0.81 0.81 0 0 1 59.56 41.45" stroke="rgba(255,255,255,0.92)" stroke-width="1.0" fill="none"/>
  <path d="M 89.75 40.64 L 99.46 40.64" stroke="rgba(255,255,255,0.92)" stroke-width="1.0" fill="none"/>
  <path d="M 89.22 40.10 A 0.54 0.54 0 0 1 89.75 39.56" stroke="rgba(255,255,255,0.92)" stroke-width="1.0" fill="none"/>
  <path d="M 0.24 28.60 L 0.24 29.76 L 7.32 29.76 L 7.32 28.60 Z" stroke="rgba(255,255,255,0.92)" stroke-width="1.0" fill="none"/>
  <path d="M 6.98 31.20 L 6.98 33.90" stroke="rgba(255,255,255,0.92)" stroke-width="1.0" fill="none"/>
  <path d="M 44.46 31.20 L 58.48 31.20" stroke="rgba(255,255,255,0.92)" stroke-width="1.0" fill="none"/>
  <path d="M 58.48 29.05 A 1.08 1.08 0 0 1 59.56 30.13" stroke="rgba(255,255,255,0.92)" stroke-width="1.0" fill="none"/>
  <path d="M 43.38 30.13 A 1.08 1.08 0 0 1 44.46 29.05" stroke="rgba(255,255,255,0.92)" stroke-width="1.0" fill="none"/>
  <path d="M 9.56 35.92 L 89.22 35.92" stroke="rgba(255,255,255,0.92)" stroke-width="1.0" fill="none"/>
  <path d="M 43.38 30.13 L 43.38 26.08" stroke="rgba(255,255,255,0.92)" stroke-width="1.0" fill="none"/>
  <path d="M 44.46 27.16 A 1.08 1.08 0 0 1 43.38 26.08" stroke="rgba(255,255,255,0.92)" stroke-width="1.0" fill="none"/>
  <path d="M 59.56 30.13 L 59.56 26.08" stroke="rgba(255,255,255,0.92)" stroke-width="1.0" fill="none"/>
  <path d="M 59.56 26.08 A 1.08 1.08 0 0 1 58.48 27.16" stroke="rgba(255,255,255,0.92)" stroke-width="1.0" fill="none"/>
  <path d="M 67.65 30.13 L 67.65 26.08" stroke="rgba(255,255,255,0.92)" stroke-width="1.0" fill="none"/>
  <path d="M 3.97 51.43 L 3.97 52.23 L 6.66 52.23 L 6.66 51.43" stroke="rgba(255,255,255,0.92)" stroke-width="1.0" fill="none"/>
  <path d="M 23.41 51.43 L 23.41 52.23 L 26.11 52.23 L 26.11 51.43" stroke="rgba(255,255,255,0.92)" stroke-width="1.0" fill="none"/>
  <path d="M 57.90 51.43 L 57.90 52.23 L 60.60 52.23 L 60.60 51.43" stroke="rgba(255,255,255,0.92)" stroke-width="1.0" fill="none"/>
  <path d="M 77.39 51.43 L 77.39 52.23 L 80.08 52.23 L 80.08 51.43" stroke="rgba(255,255,255,0.92)" stroke-width="1.0" fill="none"/>
  <path d="M 96.02 51.43 L 96.02 52.23 L 98.72 52.23 L 98.72 51.43" stroke="rgba(255,255,255,0.92)" stroke-width="1.0" fill="none"/>
  <path d="M 100.00 51.43 L 100.00 43.34" stroke="rgba(255,255,255,0.92)" stroke-width="1.0" fill="none"/>
  <path d="M 100.00 43.34 L 99.99 40.18" stroke="rgba(255,255,255,0.92)" stroke-width="1.0" fill="none"/>
  <path d="M 100.00 39.29 L 100.00 35.79" stroke="rgba(255,255,255,0.92)" stroke-width="1.0" fill="none"/>
  <path d="M 100.00 35.79 A 0.54 0.54 0 0 1 99.46 36.33" stroke="rgba(255,255,255,0.92)" stroke-width="1.0" fill="none"/>
  <path d="M 89.22 39.29 L 89.22 35.79" stroke="rgba(255,255,255,0.92)" stroke-width="1.0" fill="none"/>
  <path d="M 89.75 36.33 A 0.54 0.54 0 0 1 89.22 35.79" stroke="rgba(255,255,255,0.92)" stroke-width="1.0" fill="none"/>
  <path d="M 89.22 34.71 L 89.22 34.44" stroke="rgba(255,255,255,0.92)" stroke-width="1.0" fill="none"/>
  <path d="M 89.22 32.28 A 1.08 1.08 0 0 1 88.14 33.36" stroke="rgba(255,255,255,0.92)" stroke-width="1.0" fill="none"/>
  <path d="M 89.22 30.13 L 89.22 26.08" stroke="rgba(255,255,255,0.92)" stroke-width="1.0" fill="none"/>
  <path d="M 88.14 29.05 A 1.08 1.08 0 0 1 89.22 30.13" stroke="rgba(255,255,255,0.92)" stroke-width="1.0" fill="none"/>
  <path d="M 89.22 26.08 A 1.08 1.08 0 0 1 88.14 27.16" stroke="rgba(255,255,255,0.92)" stroke-width="1.0" fill="none"/>
  <path d="M 68.72 31.20 L 88.14 31.20" stroke="rgba(255,255,255,0.92)" stroke-width="1.0" fill="none"/>
  <path d="M 67.65 30.13 A 1.08 1.08 0 0 1 68.72 29.05" stroke="rgba(255,255,255,0.92)" stroke-width="1.0" fill="none"/>
  <path d="M 68.72 31.20 L 57.74 31.20" stroke="rgba(255,255,255,0.92)" stroke-width="1.0" fill="none"/>
  <path d="M 44.46 31.20 L 6.98 31.20" stroke="rgba(255,255,255,0.92)" stroke-width="1.0" fill="none"/>
  <path d="M 100.00 34.71 L 100.00 34.44" stroke="rgba(255,255,255,0.92)" stroke-width="1.0" fill="none"/>
  <path d="M 100.00 34.44 A 0.54 0.54 0 0 1 99.46 34.98" stroke="rgba(255,255,255,0.92)" stroke-width="1.0" fill="none"/>
  <path d="M 89.22 32.28 L 89.22 34.44" stroke="rgba(255,255,255,0.92)" stroke-width="1.0" fill="none"/>
  <path d="M 16.11 32.45 A 6.94 6.94 0 0 1 16.62 35.84" stroke="rgba(255,255,255,0.92)" stroke-width="1.0" fill="none"/>
  <path d="M 15.17 33.54 A 2.86 2.86 0 0 1 16.11 35.14" stroke="rgba(255,255,255,0.92)" stroke-width="1.0" fill="none"/>
  <path d="M 14.85 32.58 A 6.13 6.13 0 0 1 15.17 33.35" stroke="rgba(255,255,255,0.92)" stroke-width="1.0" fill="none"/>
  <path d="M 11.51 31.27 L 11.58 31.24 L 11.66 31.22 L 11.74 31.19 L 11.82 31.16 L 11.90 31.14 L 11.98 31.11 L 12.06 31.09 L 12.14 31.06 L 12.22 31.04 L 12.30 31.02 L 12.38 30.99 L 12.46 30.97 L 12.54 30.95 L 12.62 30.93 L 12.71 30.91 L 12.79 30.89 L 12.87 30.88 L 12.96 30.86 L 13.04 30.84 L 13.12 30.83 L 13.21 30.81 L 13.29 30.80 L 13.38 30.79 L 13.46 30.77 L 13.55 30.76 L 13.63 30.75 L 13.72 30.74 L 13.80 30.73 L 13.89 30.72 L 13.97 30.71 L 14.06 30.71 L 14.15 30.70 L 14.23 30.69 L 14.32 30.69 L 14.41 30.68 L 14.50 30.68 L 14.58 30.68 L 14.67 30.67 L 14.76 30.67 L 14.84 30.67 L 14.93 30.67 L 15.02 30.67 L 15.11 30.67 L 15.20 30.68 L 15.28 30.68 L 15.37 30.68 L 15.46 30.69 L 15.55 30.69" stroke="rgba(255,255,255,0.92)" stroke-width="1.0" fill="none"/>
  <path d="M 8.51 35.29 L 8.54 35.23 L 8.57 35.17 L 8.61 35.11 L 8.64 35.05 L 8.68 34.99 L 8.71 34.93 L 8.75 34.87 L 8.79 34.81 L 8.83 34.76 L 8.87 34.70 L 8.92 34.65 L 8.96 34.59 L 9.01 34.54 L 9.06 34.48 L 9.11 34.43 L 9.16 34.38 L 9.21 34.33 L 9.27 34.28 L 9.32 34.23 L 9.38 34.18 L 9.43 34.13 L 9.49 34.09 L 9.55 34.04 L 9.61 33.99 L 9.67 33.95 L 9.74 33.91 L 9.80 33.87 L 9.87 33.82 L 9.93 33.78 L 10.00 33.75 L 10.07 33.71 L 10.13 33.67 L 10.20 33.64 L 10.27 33.60 L 10.34 33.57 L 10.41 33.54 L 10.49 33.50 L 10.56 33.47 L 10.63 33.45 L 10.71 33.42 L 10.78 33.39 L 10.85 33.37 L 10.93 33.34 L 11.01 33.32 L 11.08 33.30 L 11.16 33.28 L 11.24 33.26 L 11.31 33.25" stroke="rgba(255,255,255,0.92)" stroke-width="1.0" fill="none"/>
  <path d="M 16.37 39.73 L 16.70 39.82 L 17.04 39.87 L 17.40 39.90 L 17.77 39.89 L 18.14 39.85 L 18.51 39.78 L 18.87 39.68 L 19.23 39.55 L 19.57 39.39 L 19.90 39.20 L 20.20 38.99 L 20.49 38.75 L 20.74 38.50 L 20.96 38.23 L 21.15 37.95 L 21.30 37.66 L 21.41 37.36 L 21.49 37.06 L 21.52 36.76 L 21.52 36.47 L 21.47 36.18 L 21.39 35.91 L 21.26 35.65 L 21.10 35.40 L 20.91 35.18 L 20.68 34.98 L 20.42 34.81 L 20.13 34.66 L 19.82 34.54 L 19.49 34.46 L 19.14 34.40 L 18.78 34.38 L 18.42 34.39 L 18.04 34.43 L 17.67 34.51 L 17.31 34.61 L 16.95 34.75 L 16.61 34.91 L 16.29 35.10 L 15.99 35.31 L 15.71 35.55 L 15.46 35.80 L 15.24 36.07 L 15.06 36.36 L 14.91 36.65 L 14.80 36.95 L 14.73 37.25 L 14.69 37.54" stroke="rgba(255,255,255,0.92)" stroke-width="1.0" fill="none"/>
  <path d="M 15.12 38.03 L 12.88 37.49 L 8.75 34.46 L 8.03 34.05" stroke="rgba(255,255,255,0.92)" stroke-width="1.0" fill="none"/>
  <path d="M 7.91 34.30 L 7.97 34.21 L 8.04 34.11 L 8.10 34.02 L 8.17 33.92 L 8.24 33.83 L 8.31 33.74 L 8.38 33.64 L 8.46 33.55 L 8.54 33.47 L 8.62 33.38 L 8.70 33.29 L 8.78 33.21 L 8.86 33.12 L 8.95 33.04 L 9.04 32.96 L 9.13 32.88 L 9.22 32.80 L 9.32 32.73 L 9.41 32.65 L 9.51 32.58 L 9.61 32.51 L 9.71 32.44 L 9.81 32.37 L 9.91 32.30 L 10.02 32.23 L 10.12 32.17 L 10.23 32.11 L 10.34 32.05 L 10.45 31.99 L 10.56 31.93 L 10.67 31.88 L 10.79 31.82 L 10.90 31.77 L 11.02 31.72 L 11.13 31.67 L 11.25 31.63 L 11.37 31.58 L 11.49 31.54 L 11.61 31.50 L 11.74 31.46 L 11.86 31.42 L 11.98 31.39 L 12.11 31.35 L 12.23 31.32 L 12.36 31.29 L 12.48 31.27 L 12.61 31.24 L 12.74 31.22" stroke="rgba(255,255,255,0.92)" stroke-width="1.0" fill="none"/>
  <path d="M 20.81 36.94 L 20.71 36.98 L 20.60 37.02 L 20.50 37.06 L 20.40 37.10 L 20.29 37.14 L 20.18 37.18 L 20.08 37.22 L 19.97 37.26 L 19.86 37.29 L 19.75 37.33 L 19.64 37.36 L 19.53 37.40 L 19.42 37.43 L 19.31 37.46 L 19.20 37.49 L 19.09 37.52 L 18.97 37.55 L 18.86 37.58 L 18.75 37.61 L 18.63 37.64 L 18.52 37.66 L 18.40 37.69 L 18.28 37.71 L 18.17 37.74 L 18.05 37.76 L 17.93 37.78 L 17.82 37.80 L 17.70 37.82 L 17.58 37.84 L 17.46 37.86 L 17.34 37.88 L 17.22 37.89 L 17.10 37.91 L 16.98 37.92 L 16.86 37.94 L 16.74 37.95 L 16.62 37.96 L 16.50 37.97 L 16.38 37.98 L 16.25 37.99 L 16.13 38.00 L 16.01 38.01 L 15.89 38.01 L 15.77 38.02 L 15.64 38.02 L 15.52 38.03 L 15.40 38.03 L 15.28 38.03" stroke="rgba(255,255,255,0.92)" stroke-width="1.0" fill="none"/>
  <path d="M 22.07 30.36 L 22.04 30.40 L 22.00 30.44 L 21.97 30.48 L 21.93 30.52 L 21.90 30.56 L 21.86 30.60 L 21.82 30.64 L 21.78 30.67 L 21.74 30.71 L 21.70 30.74 L 21.66 30.78 L 21.62 30.81 L 21.58 30.85 L 21.53 30.88 L 21.49 30.91 L 21.45 30.94 L 21.40 30.97 L 21.36 31.00 L 21.31 31.03 L 21.26 31.06 L 21.22 31.09 L 21.17 31.11 L 21.12 31.14 L 21.08 31.17 L 21.03 31.19 L 20.98 31.21 L 20.93 31.23 L 20.88 31.26 L 20.83 31.28 L 20.78 31.30 L 20.73 31.31 L 20.68 31.33 L 20.63 31.35 L 20.58 31.36 L 20.53 31.38 L 20.48 31.39 L 20.43 31.41 L 20.38 31.42 L 20.33 31.43 L 20.28 31.44 L 20.23 31.45 L 20.18 31.46 L 20.13 31.46 L 20.08 31.47 L 20.03 31.47 L 19.98 31.48 L 19.93 31.48 L 19.87 31.48" stroke="rgba(255,255,255,0.92)" stroke-width="1.0" fill="none"/>
  <path d="M 21.15 15.15 L 21.18 15.25 L 21.22 15.35 L 21.25 15.45 L 21.28 15.55 L 21.30 15.66 L 21.33 15.76 L 21.36 15.86 L 21.38 15.96 L 21.41 16.07 L 21.43 16.17 L 21.45 16.28 L 21.47 16.38 L 21.49 16.49 L 21.51 16.59 L 21.53 16.70 L 21.54 16.81 L 21.56 16.91 L 21.57 17.02 L 21.58 17.13 L 21.59 17.23 L 21.60 17.34 L 21.61 17.45 L 21.62 17.56 L 21.62 17.67 L 21.63 17.78 L 21.63 17.89 L 21.64 18.00 L 21.64 18.10 L 21.64 18.21 L 21.64 18.32 L 21.64 18.44 L 21.63 18.55 L 21.63 18.66 L 21.62 18.77 L 21.62 18.88 L 21.61 18.99 L 21.60 19.10 L 21.59 19.21 L 21.58 19.32 L 21.56 19.43 L 21.55 19.55 L 21.54 19.66 L 21.52 19.77 L 21.50 19.88 L 21.48 19.99 L 21.46 20.10 L 21.44 20.21 L 21.42 20.33" stroke="rgba(255,255,255,0.92)" stroke-width="1.0" fill="none"/>
  <path d="M 32.19 35.59 A 1.72 1.72 0 0 1 32.49 36.55" stroke="rgba(255,255,255,0.92)" stroke-width="1.0" fill="none"/>
  <path d="M 31.23 31.94 L 31.27 31.81 L 31.32 31.69 L 31.37 31.57 L 31.42 31.45 L 31.48 31.33 L 31.54 31.21 L 31.61 31.09 L 31.67 30.98 L 31.75 30.86 L 31.82 30.75 L 31.90 30.64 L 31.98 30.53 L 32.07 30.42 L 32.15 30.32 L 32.25 30.21 L 32.34 30.11 L 32.44 30.01 L 32.54 29.91 L 32.64 29.82 L 32.75 29.73 L 32.86 29.64 L 32.97 29.55 L 33.08 29.46 L 33.20 29.38 L 33.32 29.30 L 33.44 29.22 L 33.57 29.14 L 33.69 29.07 L 33.82 29.00 L 33.95 28.93 L 34.09 28.86 L 34.22 28.80 L 34.36 28.74 L 34.50 28.69 L 34.64 28.63 L 34.78 28.58 L 34.92 28.53 L 35.07 28.49 L 35.22 28.45 L 35.36 28.41 L 35.51 28.38 L 35.66 28.34 L 35.81 28.32 L 35.96 28.29 L 36.12 28.27 L 36.27 28.25 L 36.42 28.23 L 36.58 28.22" stroke="rgba(255,255,255,0.92)" stroke-width="1.0" fill="none"/>
  <path d="M 33.10 31.64 L 33.11 31.57 L 33.12 31.50 L 33.14 31.43 L 33.15 31.36 L 33.17 31.29 L 33.19 31.22 L 33.21 31.15 L 33.24 31.08 L 33.26 31.01 L 33.29 30.95 L 33.31 30.88 L 33.34 30.81 L 33.37 30.74 L 33.40 30.68 L 33.43 30.61 L 33.47 30.54 L 33.50 30.48 L 33.54 30.41 L 33.58 30.35 L 33.61 30.28 L 33.65 30.22 L 33.70 30.16 L 33.74 30.10 L 33.78 30.03 L 33.83 29.97 L 33.87 29.91 L 33.92 29.85 L 33.97 29.79 L 34.02 29.73 L 34.07 29.68 L 34.12 29.62 L 34.17 29.56 L 34.23 29.51 L 34.28 29.45 L 34.34 29.40 L 34.40 29.35 L 34.46 29.29 L 34.52 29.24 L 34.58 29.19 L 34.64 29.14 L 34.70 29.09 L 34.77 29.05 L 34.83 29.00 L 34.90 28.95 L 34.96 28.91 L 35.03 28.86 L 35.10 28.82 L 35.17 28.78" stroke="rgba(255,255,255,0.92)" stroke-width="1.0" fill="none"/>
  <path d="M 26.17 34.35 L 26.23 34.32 L 26.29 34.29 L 26.36 34.26 L 26.42 34.23 L 26.48 34.21 L 26.55 34.18 L 26.61 34.16 L 26.68 34.14 L 26.75 34.12 L 26.81 34.10 L 26.88 34.08 L 26.95 34.07 L 27.02 34.05 L 27.09 34.04 L 27.16 34.02 L 27.24 34.01 L 27.31 34.00 L 27.38 34.00 L 27.46 33.99 L 27.53 33.98 L 27.60 33.98 L 27.68 33.98 L 27.75 33.98 L 27.83 33.98 L 27.90 33.98 L 27.98 33.98 L 28.06 33.99 L 28.13 33.99 L 28.21 34.00 L 28.29 34.01 L 28.36 34.02 L 28.44 34.03 L 28.52 34.04 L 28.59 34.06 L 28.67 34.07 L 28.75 34.09 L 28.82 34.11 L 28.90 34.13 L 28.97 34.15 L 29.05 34.17 L 29.12 34.20 L 29.20 34.22 L 29.27 34.25 L 29.35 34.28 L 29.42 34.30 L 29.49 34.33 L 29.56 34.37 L 29.64 34.40" stroke="rgba(255,255,255,0.92)" stroke-width="1.0" fill="none"/>
  <path d="M 35.67 38.08 L 35.59 38.12 L 35.51 38.15 L 35.43 38.18 L 35.35 38.22 L 35.27 38.25 L 35.19 38.28 L 35.11 38.30 L 35.03 38.33 L 34.95 38.35 L 34.87 38.37 L 34.78 38.40 L 34.70 38.42 L 34.62 38.43 L 34.54 38.45 L 34.46 38.46 L 34.37 38.48 L 34.29 38.49 L 34.21 38.50 L 34.13 38.50 L 34.04 38.51 L 33.96 38.51 L 33.88 38.52 L 33.80 38.52 L 33.72 38.52 L 33.63 38.52 L 33.55 38.51 L 33.47 38.51 L 33.39 38.50 L 33.31 38.49 L 33.24 38.48 L 33.16 38.47 L 33.08 38.45 L 33.00 38.44 L 32.93 38.42 L 32.85 38.40 L 32.78 38.38 L 32.70 38.36 L 32.63 38.33 L 32.56 38.31 L 32.48 38.28 L 32.41 38.25 L 32.34 38.22 L 32.28 38.19 L 32.21 38.16 L 32.14 38.12 L 32.08 38.09 L 32.01 38.05 L 31.95 38.01" stroke="rgba(255,255,255,0.92)" stroke-width="1.0" fill="none"/>
  <path d="M 33.16 28.30 L 33.24 28.33 L 33.32 28.35 L 33.40 28.38 L 33.48 28.40 L 33.56 28.43 L 33.63 28.46 L 33.71 28.48 L 33.79 28.51 L 33.87 28.54 L 33.95 28.57 L 34.03 28.60 L 34.10 28.63 L 34.18 28.67 L 34.26 28.70 L 34.34 28.73 L 34.41 28.77 L 34.49 28.81 L 34.57 28.84 L 34.64 28.88 L 34.72 28.92 L 34.80 28.96 L 34.87 28.99 L 34.95 29.04 L 35.02 29.08 L 35.10 29.12 L 35.17 29.16 L 35.25 29.20 L 35.32 29.25 L 35.40 29.29 L 35.47 29.34 L 35.54 29.38 L 35.62 29.43 L 35.69 29.48 L 35.76 29.52 L 35.84 29.57 L 35.91 29.62 L 35.98 29.67 L 36.05 29.72 L 36.12 29.77 L 36.19 29.82 L 36.26 29.88 L 36.33 29.93 L 36.40 29.98 L 36.47 30.04 L 36.54 30.09 L 36.61 30.15 L 36.67 30.21 L 36.74 30.26" stroke="rgba(255,255,255,0.92)" stroke-width="1.0" fill="none"/>
  <path d="M 31.73 28.47 L 31.86 28.45 L 31.99 28.43 L 32.12 28.41 L 32.25 28.39 L 32.38 28.37 L 32.51 28.36 L 32.64 28.34 L 32.77 28.32 L 32.90 28.31 L 33.03 28.29 L 33.16 28.28 L 33.29 28.26 L 33.42 28.25 L 33.55 28.24 L 33.68 28.23 L 33.82 28.22 L 33.95 28.21 L 34.08 28.20 L 34.21 28.19 L 34.34 28.18 L 34.47 28.17 L 34.60 28.16 L 34.73 28.16 L 34.86 28.15 L 35.00 28.15 L 35.13 28.14 L 35.26 28.14 L 35.39 28.14 L 35.52 28.13 L 35.65 28.13 L 35.78 28.13 L 35.92 28.13 L 36.05 28.13 L 36.18 28.13 L 36.31 28.13 L 36.44 28.14 L 36.57 28.14 L 36.71 28.14 L 36.84 28.15 L 36.97 28.15 L 37.10 28.16 L 37.23 28.17 L 37.36 28.17 L 37.49 28.18 L 37.62 28.19 L 37.76 28.20 L 37.89 28.21 L 38.02 28.22" stroke="rgba(255,255,255,0.92)" stroke-width="1.0" fill="none"/>
  <path d="M 32.57 38.74 L 32.46 38.80 L 32.35 38.86 L 32.23 38.91 L 32.12 38.96 L 32.00 39.01 L 31.88 39.06 L 31.76 39.11 L 31.64 39.15 L 31.52 39.19 L 31.40 39.23 L 31.28 39.26 L 31.15 39.30 L 31.03 39.33 L 30.90 39.36 L 30.77 39.38 L 30.64 39.41 L 30.51 39.43 L 30.38 39.45 L 30.25 39.47 L 30.12 39.48 L 29.98 39.49 L 29.85 39.50 L 29.71 39.51 L 29.58 39.52 L 29.44 39.52 L 29.31 39.52 L 29.17 39.52 L 29.04 39.52 L 28.90 39.51 L 28.76 39.50 L 28.62 39.49 L 28.49 39.48 L 28.35 39.46 L 28.21 39.44 L 28.07 39.42 L 27.93 39.40 L 27.80 39.37 L 27.66 39.34 L 27.52 39.31 L 27.38 39.28 L 27.25 39.25 L 27.11 39.21 L 26.97 39.17 L 26.84 39.13 L 26.70 39.08 L 26.57 39.04 L 26.43 38.99 L 26.30 38.94" stroke="rgba(255,255,255,0.92)" stroke-width="1.0" fill="none"/>
  <path d="M 35.38 32.14 L 35.39 32.04 L 35.41 31.95 L 35.42 31.85 L 35.44 31.76 L 35.46 31.66 L 35.48 31.57 L 35.51 31.47 L 35.53 31.38 L 35.56 31.29 L 35.59 31.19 L 35.62 31.10 L 35.66 31.01 L 35.69 30.92 L 35.73 30.82 L 35.77 30.73 L 35.81 30.64 L 35.85 30.55 L 35.90 30.47 L 35.94 30.38 L 35.99 30.29 L 36.04 30.20 L 36.09 30.12 L 36.15 30.03 L 36.20 29.95 L 36.26 29.86 L 36.32 29.78 L 36.38 29.70 L 36.44 29.62 L 36.51 29.54 L 36.57 29.46 L 36.64 29.38 L 36.71 29.30 L 36.78 29.23 L 36.85 29.15 L 36.93 29.08 L 37.00 29.00 L 37.08 28.93 L 37.16 28.86 L 37.24 28.79 L 37.32 28.72 L 37.40 28.65 L 37.49 28.59 L 37.57 28.52 L 37.66 28.46 L 37.75 28.40 L 37.83 28.34 L 37.93 28.28 L 38.02 28.22" stroke="rgba(255,255,255,0.92)" stroke-width="1.0" fill="none"/>
  <path d="M 29.30 28.05 L 29.27 28.15 L 29.23 28.25 L 29.20 28.35 L 29.16 28.45 L 29.12 28.54 L 29.08 28.64 L 29.04 28.74 L 29.00 28.84 L 28.96 28.94 L 28.91 29.03 L 28.87 29.13 L 28.82 29.23 L 28.77 29.32 L 28.72 29.42 L 28.67 29.51 L 28.62 29.61 L 28.57 29.70 L 28.52 29.79 L 28.46 29.89 L 28.41 29.98 L 28.35 30.07 L 28.29 30.16 L 28.23 30.26 L 28.17 30.35 L 28.11 30.44 L 28.05 30.53 L 27.98 30.62 L 27.92 30.70 L 27.85 30.79 L 27.79 30.88 L 27.72 30.97 L 27.65 31.05 L 27.58 31.14 L 27.51 31.22 L 27.44 31.31 L 27.36 31.39 L 27.29 31.48 L 27.22 31.56 L 27.14 31.64 L 27.06 31.72 L 26.99 31.80 L 26.91 31.88 L 26.83 31.96 L 26.75 32.04 L 26.66 32.12 L 26.58 32.20 L 26.50 32.28 L 26.41 32.35" stroke="rgba(255,255,255,0.92)" stroke-width="1.0" fill="none"/>
  <path d="M 32.34 37.62 L 30.13 37.47 L 25.01 37.52 L 24.18 37.62" stroke="rgba(255,255,255,0.92)" stroke-width="1.0" fill="none"/>
  <path d="M 27.44 30.50 L 27.54 30.46 L 27.65 30.42 L 27.76 30.38 L 27.87 30.35 L 27.98 30.31 L 28.10 30.28 L 28.21 30.25 L 28.32 30.23 L 28.44 30.20 L 28.55 30.18 L 28.67 30.16 L 28.79 30.14 L 28.91 30.13 L 29.02 30.11 L 29.14 30.10 L 29.26 30.09 L 29.38 30.08 L 29.50 30.08 L 29.63 30.08 L 29.75 30.08 L 29.87 30.08 L 29.99 30.08 L 30.12 30.09 L 30.24 30.10 L 30.36 30.11 L 30.48 30.12 L 30.61 30.13 L 30.73 30.15 L 30.85 30.17 L 30.98 30.19 L 31.10 30.21 L 31.22 30.24 L 31.35 30.27 L 31.47 30.30 L 31.59 30.33 L 31.72 30.36 L 31.84 30.40 L 31.96 30.44 L 32.08 30.48 L 32.20 30.52 L 32.32 30.56 L 32.44 30.61 L 32.56 30.66 L 32.68 30.71 L 32.80 30.76 L 32.91 30.81 L 33.03 30.87 L 33.15 30.93" stroke="rgba(255,255,255,0.92)" stroke-width="1.0" fill="none"/>
  <path d="M 31.73 28.47 L 31.68 28.48 L 31.63 28.49 L 31.58 28.50 L 31.52 28.51 L 31.47 28.52 L 31.42 28.53 L 31.37 28.54 L 31.31 28.54 L 31.26 28.55 L 31.20 28.55 L 31.15 28.56 L 31.10 28.56 L 31.04 28.56 L 30.99 28.56 L 30.94 28.56 L 30.88 28.56 L 30.83 28.56 L 30.77 28.55 L 30.72 28.55 L 30.67 28.54 L 30.61 28.54 L 30.56 28.53 L 30.51 28.52 L 30.45 28.51 L 30.40 28.51 L 30.35 28.49 L 30.30 28.48 L 30.24 28.47 L 30.19 28.46 L 30.14 28.44 L 30.09 28.43 L 30.04 28.41 L 29.99 28.40 L 29.94 28.38 L 29.89 28.36 L 29.84 28.34 L 29.79 28.32 L 29.75 28.30 L 29.70 28.28 L 29.65 28.26 L 29.61 28.23 L 29.56 28.21 L 29.52 28.18 L 29.47 28.16 L 29.43 28.13 L 29.39 28.10 L 29.34 28.08 L 29.30 28.05" stroke="rgba(255,255,255,0.92)" stroke-width="1.0" fill="none"/>
  <path d="M 18.03 40.71 L 18.00 40.65 L 17.97 40.58 L 17.94 40.51 L 17.91 40.45 L 17.88 40.38 L 17.86 40.31 L 17.83 40.25 L 17.81 40.18 L 17.79 40.11 L 17.77 40.04 L 17.75 39.97 L 17.73 39.90 L 17.71 39.82 L 17.70 39.75 L 17.68 39.68 L 17.67 39.61 L 17.66 39.53 L 17.65 39.46 L 17.64 39.39 L 17.63 39.31 L 17.62 39.24 L 17.62 39.16 L 17.62 39.09 L 17.61 39.01 L 17.61 38.93 L 17.61 38.86 L 17.62 38.78 L 17.62 38.71 L 17.62 38.63 L 17.63 38.55 L 17.64 38.48 L 17.65 38.40 L 17.66 38.32 L 17.67 38.24 L 17.68 38.17 L 17.70 38.09 L 17.71 38.01 L 17.73 37.94 L 17.75 37.86 L 17.77 37.78 L 17.79 37.70 L 17.81 37.63 L 17.83 37.55 L 17.86 37.47 L 17.88 37.40 L 17.91 37.32 L 17.94 37.25 L 17.97 37.17" stroke="rgba(255,255,255,0.92)" stroke-width="1.0" fill="none"/>
  <path d="M 15.49 40.76 L 15.45 40.64 L 15.41 40.51 L 15.38 40.38 L 15.35 40.26 L 15.33 40.13 L 15.30 39.99 L 15.28 39.86 L 15.27 39.73 L 15.26 39.59 L 15.25 39.46 L 15.25 39.32 L 15.25 39.19 L 15.25 39.05 L 15.26 38.91 L 15.27 38.78 L 15.28 38.64 L 15.30 38.50 L 15.32 38.36 L 15.35 38.22 L 15.38 38.08 L 15.41 37.95 L 15.45 37.81 L 15.49 37.67 L 15.53 37.53 L 15.58 37.40 L 15.63 37.26 L 15.68 37.12 L 15.74 36.99 L 15.80 36.86 L 15.87 36.72 L 15.93 36.59 L 16.00 36.46 L 16.08 36.33 L 16.15 36.20 L 16.24 36.07 L 16.32 35.95 L 16.40 35.82 L 16.49 35.70 L 16.59 35.58 L 16.68 35.46 L 16.78 35.35 L 16.88 35.23 L 16.98 35.12 L 17.09 35.01 L 17.20 34.90 L 17.31 34.79 L 17.42 34.68 L 17.54 34.58" stroke="rgba(255,255,255,0.92)" stroke-width="1.0" fill="none"/>
  <path d="M 32.12 36.94 L 32.19 37.01 L 32.26 37.08 L 32.33 37.15 L 32.39 37.22 L 32.46 37.30 L 32.52 37.37 L 32.59 37.44 L 32.65 37.52 L 32.72 37.59 L 32.78 37.67 L 32.84 37.75 L 32.90 37.82 L 32.96 37.90 L 33.02 37.98 L 33.07 38.06 L 33.13 38.14 L 33.18 38.22 L 33.24 38.31 L 33.29 38.39 L 33.34 38.47 L 33.39 38.55 L 33.44 38.64 L 33.49 38.72 L 33.54 38.81 L 33.59 38.90 L 33.63 38.98 L 33.68 39.07 L 33.72 39.16 L 33.77 39.25 L 33.81 39.33 L 33.85 39.42 L 33.89 39.51 L 33.93 39.60 L 33.96 39.69 L 34.00 39.79 L 34.04 39.88 L 34.07 39.97 L 34.10 40.06 L 34.13 40.16 L 34.16 40.25 L 34.19 40.34 L 34.22 40.44 L 34.25 40.53 L 34.28 40.62 L 34.30 40.72 L 34.32 40.81 L 34.35 40.91 L 34.37 41.01" stroke="rgba(255,255,255,0.92)" stroke-width="1.0" fill="none"/>
  <path d="M -1.76 36.27 L -1.67 36.18 L -1.58 36.09 L -1.49 35.99 L -1.40 35.90 L -1.30 35.81 L -1.21 35.72 L -1.12 35.62 L -1.02 35.53 L -0.93 35.44 L -0.83 35.35 L -0.74 35.26 L -0.64 35.17 L -0.54 35.08 L -0.45 35.00 L -0.35 34.91 L -0.25 34.82 L -0.15 34.73 L -0.05 34.65 L 0.05 34.56 L 0.15 34.48 L 0.25 34.39 L 0.35 34.31 L 0.45 34.22 L 0.55 34.14 L 0.65 34.06 L 0.76 33.98 L 0.86 33.89 L 0.96 33.81 L 1.07 33.73 L 1.17 33.65 L 1.27 33.57 L 1.38 33.49 L 1.49 33.41 L 1.59 33.34 L 1.70 33.26 L 1.80 33.18 L 1.91 33.11 L 2.02 33.03 L 2.13 32.95 L 2.23 32.88 L 2.34 32.80 L 2.45 32.73 L 2.56 32.66 L 2.67 32.59 L 2.78 32.51 L 2.89 32.44 L 3.00 32.37 L 3.11 32.30" stroke="rgba(255,255,255,0.92)" stroke-width="1.0" fill="none"/>
  <path d="M 0.34 50.52 L 65.05 50.52" stroke="rgba(255,255,255,0.92)" stroke-width="1.0" fill="none"/>
  <path d="M 40.78 47.82 L 65.05 47.82" stroke="rgba(255,255,255,0.92)" stroke-width="1.0" fill="none"/>
  <path d="M 8.43 42.43 L 40.78 42.43" stroke="rgba(255,255,255,0.92)" stroke-width="1.0" fill="none"/>
  <path d="M 41.59 39.73 L 57.23 39.73" stroke="rgba(255,255,255,0.92)" stroke-width="1.0" fill="none"/>
  <path d="M 57.23 38.11 A 0.81 0.81 0 0 1 57.88 38.44" stroke="rgba(255,255,255,0.92)" stroke-width="1.0" fill="none"/>
  <path d="M 41.59 38.38 L 56.56 38.38" stroke="rgba(255,255,255,0.92)" stroke-width="1.0" fill="none"/>
  <path d="M 56.56 36.76 A 0.81 0.81 0 0 1 57.20 37.09" stroke="rgba(255,255,255,0.92)" stroke-width="1.0" fill="none"/>
  <path d="M 61.41 32.99 L 65.05 32.99" stroke="rgba(255,255,255,0.92)" stroke-width="1.0" fill="none"/>
  <path d="M 62.08 34.34 L 65.05 34.34" stroke="rgba(255,255,255,0.92)" stroke-width="1.0" fill="none"/>
  <path d="M 0.34 47.82 L 8.43 47.82" stroke="rgba(255,255,255,0.92)" stroke-width="1.0" fill="none"/>
  <path d="M 0.34 38.38 L 8.43 38.38" stroke="rgba(255,255,255,0.92)" stroke-width="1.0" fill="none"/>
  <path d="M 9.51 30.29 L 10.22 30.29" stroke="rgba(255,255,255,0.92)" stroke-width="1.0" fill="none"/>
  <path d="M 19.02 30.29 L 39.71 30.29" stroke="rgba(255,255,255,0.92)" stroke-width="1.0" fill="none"/>
  <path d="M 8.43 35.04 L 11.84 35.04" stroke="rgba(255,255,255,0.92)" stroke-width="1.0" fill="none"/>
  <path d="M 22.85 35.07 L 42.45 35.12" stroke="rgba(255,255,255,0.92)" stroke-width="1.0" fill="none"/>
  <path d="M 58.20 35.17 L 59.37 35.17" stroke="rgba(255,255,255,0.92)" stroke-width="1.0" fill="none"/>
  <path d="M 9.51 32.45 A 1.08 1.08 0 0 1 8.43 31.37" stroke="rgba(255,255,255,0.92)" stroke-width="1.0" fill="none"/>
  <path d="M 8.43 29.22 A 1.08 1.08 0 0 1 9.51 28.14" stroke="rgba(255,255,255,0.92)" stroke-width="1.0" fill="none"/>
  <path d="M 39.71 28.14 A 1.08 1.08 0 0 1 40.78 29.22" stroke="rgba(255,255,255,0.92)" stroke-width="1.0" fill="none"/>
  <path d="M 65.05 50.52 L 65.05 40.54" stroke="rgba(255,255,255,0.92)" stroke-width="1.0" fill="none"/>
  <path d="M 40.78 50.52 L 40.78 40.54" stroke="rgba(255,255,255,0.92)" stroke-width="1.0" fill="none"/>
  <path d="M 40.78 40.54 A 0.81 0.81 0 0 1 39.98 41.35" stroke="rgba(255,255,255,0.92)" stroke-width="1.0" fill="none"/>
  <path d="M 41.59 41.35 A 0.81 0.81 0 0 1 40.78 40.54" stroke="rgba(255,255,255,0.92)" stroke-width="1.0" fill="none"/>
  <path d="M 0.34 34.07 L 0.34 50.52" stroke="rgba(255,255,255,0.92)" stroke-width="1.0" fill="none"/>
  <path d="M 1.42 35.15 A 1.08 1.08 0 0 1 0.34 34.07" stroke="rgba(255,255,255,0.92)" stroke-width="1.0" fill="none"/>
  <path d="M 8.43 40.54 L 8.43 50.52" stroke="rgba(255,255,255,0.92)" stroke-width="1.0" fill="none"/>
  <path d="M 9.24 41.35 A 0.81 0.81 0 0 1 8.43 40.54" stroke="rgba(255,255,255,0.92)" stroke-width="1.0" fill="none"/>
  <path d="M 8.43 34.07 A 1.08 1.08 0 0 1 7.35 35.15" stroke="rgba(255,255,255,0.92)" stroke-width="1.0" fill="none"/>
  <path d="M 9.51 28.41 A 1.08 1.08 0 0 1 8.43 27.33" stroke="rgba(255,255,255,0.92)" stroke-width="1.0" fill="none"/>
  <path d="M 40.78 27.33 L 40.78 29.22" stroke="rgba(255,255,255,0.92)" stroke-width="1.0" fill="none"/>
  <path d="M 40.78 27.33 A 1.08 1.08 0 0 1 39.71 28.41" stroke="rgba(255,255,255,0.92)" stroke-width="1.0" fill="none"/>
  <path d="M 60.06 27.69 L 60.06 28.85 L 67.14 28.85 L 67.14 27.69 Z" stroke="rgba(255,255,255,0.92)" stroke-width="1.0" fill="none"/>
  <path d="M 67.02 27.58 L 66.96 24.41 L 65.91 23.92 L 63.23 26.26" stroke="rgba(255,255,255,0.92)" stroke-width="1.0" fill="none"/>
  <path d="M 63.60 26.25 L 63.24 26.25" stroke="rgba(255,255,255,0.92)" stroke-width="1.0" fill="none"/>
  <path d="M 39.71 26.25 L 9.51 26.25" stroke="rgba(255,255,255,0.92)" stroke-width="1.0" fill="none"/>
  <path d="M 0.34 37.07 L 8.43 37.07" stroke="rgba(255,255,255,0.92)" stroke-width="1.0" fill="none"/>
  <path d="M 1.42 32.99 L 7.35 32.99" stroke="rgba(255,255,255,0.92)" stroke-width="1.0" fill="none"/>
  <path d="M 8.43 27.33 L 8.43 29.22" stroke="rgba(255,255,255,0.92)" stroke-width="1.0" fill="none"/>
  <path d="M 8.43 31.37 L 8.43 34.07" stroke="rgba(255,255,255,0.92)" stroke-width="1.0" fill="none"/>
  <path d="M 39.71 30.29 L 63.97 30.29" stroke="rgba(255,255,255,0.92)" stroke-width="1.0" fill="none"/>
  <path d="M 9.24 39.73 L 39.98 39.73" stroke="rgba(255,255,255,0.92)" stroke-width="1.0" fill="none"/>
  <path d="M 8.43 40.54 L 8.43 38.38" stroke="rgba(255,255,255,0.92)" stroke-width="1.0" fill="none"/>
  <path d="M 8.43 38.38 L 8.43 37.07" stroke="rgba(255,255,255,0.92)" stroke-width="1.0" fill="none"/>
  <path d="M 8.43 37.07 L 8.43 34.07" stroke="rgba(255,255,255,0.92)" stroke-width="1.0" fill="none"/>
  <path d="M 65.05 40.54 L 65.05 31.37" stroke="rgba(255,255,255,0.92)" stroke-width="1.0" fill="none"/>
  <path d="M 65.05 31.37 A 1.08 1.08 0 0 1 63.97 32.45" stroke="rgba(255,255,255,0.92)" stroke-width="1.0" fill="none"/>
  <path d="M 60.76 33.31 L 57.20 38.06" stroke="rgba(255,255,255,0.92)" stroke-width="1.0" fill="none"/>
  <path d="M 61.41 34.61 A 0.81 0.81 0 0 1 60.76 34.28" stroke="rgba(255,255,255,0.92)" stroke-width="1.0" fill="none"/>
  <path d="M 61.44 34.66 L 57.88 39.41" stroke="rgba(255,255,255,0.92)" stroke-width="1.0" fill="none"/>
  <path d="M 62.08 35.96 A 0.81 0.81 0 0 1 61.44 35.63" stroke="rgba(255,255,255,0.92)" stroke-width="1.0" fill="none"/>
  <path d="M 41.59 39.73 A 0.98 0.98 0 0 1 41.59 38.38" stroke="rgba(255,255,255,0.92)" stroke-width="1.0" fill="none"/>
  <path d="M 13.82 38.40 L 13.82 39.73" stroke="rgba(255,255,255,0.92)" stroke-width="1.0" fill="none"/>
  <path d="M 19.21 30.29 L 19.21 30.64" stroke="rgba(255,255,255,0.92)" stroke-width="1.0" fill="none"/>
  <path d="M 19.21 39.66 L 19.21 39.73" stroke="rgba(255,255,255,0.92)" stroke-width="1.0" fill="none"/>
  <path d="M 24.61 30.29 L 24.61 39.73" stroke="rgba(255,255,255,0.92)" stroke-width="1.0" fill="none"/>
  <path d="M 30.00 30.29 L 30.00 39.73" stroke="rgba(255,255,255,0.92)" stroke-width="1.0" fill="none"/>
  <path d="M 35.39 30.29 L 35.39 39.73" stroke="rgba(255,255,255,0.92)" stroke-width="1.0" fill="none"/>
  <path d="M 40.78 30.29 L 40.78 39.78" stroke="rgba(255,255,255,0.92)" stroke-width="1.0" fill="none"/>
  <path d="M 46.18 30.29 L 46.18 31.56" stroke="rgba(255,255,255,0.92)" stroke-width="1.0" fill="none"/>
  <path d="M 46.18 37.78 L 46.18 38.38" stroke="rgba(255,255,255,0.92)" stroke-width="1.0" fill="none"/>
  <path d="M 46.18 39.73 L 46.18 39.78" stroke="rgba(255,255,255,0.92)" stroke-width="1.0" fill="none"/>
  <path d="M 51.57 38.14 L 51.57 38.38" stroke="rgba(255,255,255,0.92)" stroke-width="1.0" fill="none"/>
  <path d="M 51.57 39.73 L 51.57 39.78" stroke="rgba(255,255,255,0.92)" stroke-width="1.0" fill="none"/>
  <path d="M 56.96 30.29 L 56.96 38.27" stroke="rgba(255,255,255,0.92)" stroke-width="1.0" fill="none"/>
  <path d="M 56.96 39.73 L 56.96 39.78" stroke="rgba(255,255,255,0.92)" stroke-width="1.0" fill="none"/>
  <path d="M 1.28 50.52 L 1.28 51.32 L 3.98 51.32 L 3.98 50.52" stroke="rgba(255,255,255,0.92)" stroke-width="1.0" fill="none"/>
  <path d="M 41.73 50.52 L 41.73 51.32 L 44.43 51.32 L 44.43 50.52" stroke="rgba(255,255,255,0.92)" stroke-width="1.0" fill="none"/>
  <path d="M 61.14 50.52 L 61.14 51.32 L 63.84 51.32 L 63.84 50.52" stroke="rgba(255,255,255,0.92)" stroke-width="1.0" fill="none"/>
  <path d="M 0.04 18.99 L 0.04 81.01" stroke="rgba(255,255,255,0.92)" stroke-width="1.0" fill="none"/>
  <path d="M 0.04 81.01 L 0.04 18.99" stroke="rgba(255,255,255,0.92)" stroke-width="1.0" fill="none"/>
  <path d="M 22.97 82.35 L 23.47 82.25" stroke="rgba(255,255,255,0.92)" stroke-width="1.0" fill="none"/>
  <path d="M 23.47 82.25 L 23.91 81.96" stroke="rgba(255,255,255,0.92)" stroke-width="1.0" fill="none"/>
  <path d="M 23.91 81.96 L 24.14 81.67" stroke="rgba(255,255,255,0.92)" stroke-width="1.0" fill="none"/>
  <path d="M 24.14 81.67 L 24.31 81.01" stroke="rgba(255,255,255,0.92)" stroke-width="1.0" fill="none"/>
  <path d="M 24.31 81.01 L 24.31 43.26" stroke="rgba(255,255,255,0.92)" stroke-width="1.0" fill="none"/>
  <path d="M 24.31 43.26 L 24.41 42.74" stroke="rgba(255,255,255,0.92)" stroke-width="1.0" fill="none"/>
  <path d="M 24.41 42.74 L 24.70 42.31" stroke="rgba(255,255,255,0.92)" stroke-width="1.0" fill="none"/>
  <path d="M 24.70 42.31 L 25.12 42.02" stroke="rgba(255,255,255,0.92)" stroke-width="1.0" fill="none"/>
  <path d="M 25.12 42.02 L 25.66 41.91" stroke="rgba(255,255,255,0.92)" stroke-width="1.0" fill="none"/>
  <path d="M 25.66 41.91 L 74.19 41.91" stroke="rgba(255,255,255,0.92)" stroke-width="1.0" fill="none"/>
  <path d="M 74.19 41.91 L 73.69 42.01" stroke="rgba(255,255,255,0.92)" stroke-width="1.0" fill="none"/>
  <path d="M 73.69 42.01 L 73.23 42.31" stroke="rgba(255,255,255,0.92)" stroke-width="1.0" fill="none"/>
  <path d="M 73.23 42.31 L 72.94 42.76" stroke="rgba(255,255,255,0.92)" stroke-width="1.0" fill="none"/>
  <path d="M 72.94 42.76 L 72.84 43.26" stroke="rgba(255,255,255,0.92)" stroke-width="1.0" fill="none"/>
  <path d="M 72.84 43.26 L 72.84 64.83" stroke="rgba(255,255,255,0.92)" stroke-width="1.0" fill="none"/>
  <path d="M 72.84 64.83 L 72.91 65.28" stroke="rgba(255,255,255,0.92)" stroke-width="1.0" fill="none"/>
  <path d="M 72.91 65.28 L 73.23 65.78" stroke="rgba(255,255,255,0.92)" stroke-width="1.0" fill="none"/>
  <path d="M 73.23 65.78 L 73.73 66.10" stroke="rgba(255,255,255,0.92)" stroke-width="1.0" fill="none"/>
  <path d="M 73.73 66.10 L 74.19 66.18" stroke="rgba(255,255,255,0.92)" stroke-width="1.0" fill="none"/>
  <path d="M 74.19 66.18 L 95.76 66.18" stroke="rgba(255,255,255,0.92)" stroke-width="1.0" fill="none"/>
  <path d="M 95.76 66.18 L 96.31 66.06" stroke="rgba(255,255,255,0.92)" stroke-width="1.0" fill="none"/>
  <path d="M 96.31 66.06 L 96.75 65.74" stroke="rgba(255,255,255,0.92)" stroke-width="1.0" fill="none"/>
  <path d="M 96.75 65.74 L 96.99 65.38" stroke="rgba(255,255,255,0.92)" stroke-width="1.0" fill="none"/>
  <path d="M 96.99 65.38 L 97.10 64.83" stroke="rgba(255,255,255,0.92)" stroke-width="1.0" fill="none"/>
  <path d="M 97.10 64.83 L 97.10 43.26" stroke="rgba(255,255,255,0.92)" stroke-width="1.0" fill="none"/>
  <path d="M 97.10 43.26 L 97.03 42.82" stroke="rgba(255,255,255,0.92)" stroke-width="1.0" fill="none"/>
  <path d="M 97.03 42.82 L 96.71 42.31" stroke="rgba(255,255,255,0.92)" stroke-width="1.0" fill="none"/>
  <path d="M 96.71 42.31 L 96.33 42.04" stroke="rgba(255,255,255,0.92)" stroke-width="1.0" fill="none"/>
  <path d="M 96.33 42.04 L 95.76 41.91" stroke="rgba(255,255,255,0.92)" stroke-width="1.0" fill="none"/>
  <path d="M 97.10 40.56 L 97.10 18.99" stroke="rgba(255,255,255,0.92)" stroke-width="1.0" fill="none"/>
  <path d="M 97.10 18.99 L 97.02 18.53" stroke="rgba(255,255,255,0.92)" stroke-width="1.0" fill="none"/>
  <path d="M 97.02 18.53 L 96.83 18.18" stroke="rgba(255,255,255,0.92)" stroke-width="1.0" fill="none"/>
  <path d="M 96.83 18.18 L 96.71 18.04" stroke="rgba(255,255,255,0.92)" stroke-width="1.0" fill="none"/>
  <path d="M 96.71 18.04 L 96.41 17.81" stroke="rgba(255,255,255,0.92)" stroke-width="1.0" fill="none"/>
  <path d="M 96.41 17.81 L 96.06 17.68" stroke="rgba(255,255,255,0.92)" stroke-width="1.0" fill="none"/>
  <path d="M 96.06 17.68 L 95.76 17.65" stroke="rgba(255,255,255,0.92)" stroke-width="1.0" fill="none"/>
  <path d="M 95.76 17.65 L 90.36 17.65" stroke="rgba(255,255,255,0.92)" stroke-width="1.0" fill="none"/>
  <path d="M 89.02 18.99 L 88.91 18.47" stroke="rgba(255,255,255,0.92)" stroke-width="1.0" fill="none"/>
  <path d="M 88.91 18.47 L 88.81 18.28" stroke="rgba(255,255,255,0.92)" stroke-width="1.0" fill="none"/>
  <path d="M 88.81 18.28 L 88.62 18.04" stroke="rgba(255,255,255,0.92)" stroke-width="1.0" fill="none"/>
  <path d="M 88.62 18.04 L 88.35 17.83" stroke="rgba(255,255,255,0.92)" stroke-width="1.0" fill="none"/>
  <path d="M 88.35 17.83 L 88.15 17.73" stroke="rgba(255,255,255,0.92)" stroke-width="1.0" fill="none"/>
  <path d="M 88.15 17.73 L 87.68 17.65" stroke="rgba(255,255,255,0.92)" stroke-width="1.0" fill="none"/>
  <path d="M 87.68 17.65 L 1.39 17.65" stroke="rgba(255,255,255,0.92)" stroke-width="1.0" fill="none"/>
  <path d="M 1.39 17.65 L 0.91 17.73" stroke="rgba(255,255,255,0.92)" stroke-width="1.0" fill="none"/>
  <path d="M 0.91 17.73 L 0.44 18.04" stroke="rgba(255,255,255,0.92)" stroke-width="1.0" fill="none"/>
  <path d="M 0.44 18.04 L 0.15 18.45" stroke="rgba(255,255,255,0.92)" stroke-width="1.0" fill="none"/>
  <path d="M 0.15 18.45 L 0.04 18.99" stroke="rgba(255,255,255,0.92)" stroke-width="1.0" fill="none"/>
  <path d="M 0.04 81.01 L 0.16 81.55" stroke="rgba(255,255,255,0.92)" stroke-width="1.0" fill="none"/>
  <path d="M 0.16 81.55 L 0.44 81.96" stroke="rgba(255,255,255,0.92)" stroke-width="1.0" fill="none"/>
  <path d="M 0.44 81.96 L 0.88 82.25" stroke="rgba(255,255,255,0.92)" stroke-width="1.0" fill="none"/>
  <path d="M 0.88 82.25 L 1.39 82.35" stroke="rgba(255,255,255,0.92)" stroke-width="1.0" fill="none"/>
  <path d="M 1.39 82.35 L 10.18 82.35" stroke="rgba(255,255,255,0.92)" stroke-width="1.0" fill="none"/>
  <path d="M 10.18 82.35 L 20.03 82.35" stroke="rgba(255,255,255,0.92)" stroke-width="1.0" fill="none"/>
  <path d="M 20.03 82.35 L 22.97 82.35" stroke="rgba(255,255,255,0.92)" stroke-width="1.0" fill="none"/>
  <path d="M 3.55 82.35 L 3.55 22.50" stroke="rgba(255,255,255,0.92)" stroke-width="1.0" fill="none"/>
  <path d="M 10.18 82.35 L 10.18 74.27" stroke="rgba(255,255,255,0.92)" stroke-width="1.0" fill="none"/>
  <path d="M 24.31 81.01 L 24.31 75.61" stroke="rgba(255,255,255,0.92)" stroke-width="1.0" fill="none"/>
  <path d="M 24.31 75.61 A 1.35 1.35 0 0 1 22.96 76.96" stroke="rgba(255,255,255,0.92)" stroke-width="1.0" fill="none"/>
  <path d="M 24.31 43.26 A 1.35 1.35 0 0 1 22.96 44.61" stroke="rgba(255,255,255,0.92)" stroke-width="1.0" fill="none"/>
  <path d="M 90.36 17.65 L 95.76 17.65" stroke="rgba(255,255,255,0.92)" stroke-width="1.0" fill="none"/>
  <path d="M 90.36 20.34 A 1.35 1.35 0 0 1 89.02 18.99" stroke="rgba(255,255,255,0.92)" stroke-width="1.0" fill="none"/>
  <path d="M 4.89 21.15 L 97.10 21.15" stroke="rgba(255,255,255,0.92)" stroke-width="1.0" fill="none"/>
  <path d="M 89.02 27.89 L 97.10 27.89" stroke="rgba(255,255,255,0.92)" stroke-width="1.0" fill="none"/>
  <path d="M 4.89 23.85 A 1.35 1.35 0 0 1 3.55 22.50" stroke="rgba(255,255,255,0.92)" stroke-width="1.0" fill="none"/>
  <path d="M 25.66 41.91 L 95.76 41.91" stroke="rgba(255,255,255,0.92)" stroke-width="1.0" fill="none"/>
  <path d="M 25.66 44.61 A 1.35 1.35 0 0 1 24.31 43.26" stroke="rgba(255,255,255,0.92)" stroke-width="1.0" fill="none"/>
  <path d="M 97.10 18.99 L 97.10 40.56" stroke="rgba(255,255,255,0.92)" stroke-width="1.0" fill="none"/>
  <path d="M 95.76 39.22 A 1.35 1.35 0 0 1 97.10 40.56" stroke="rgba(255,255,255,0.92)" stroke-width="1.0" fill="none"/>
  <path d="M 97.10 43.26 L 97.10 64.83" stroke="rgba(255,255,255,0.92)" stroke-width="1.0" fill="none"/>
  <path d="M 89.02 18.99 L 89.02 41.91" stroke="rgba(255,255,255,0.92)" stroke-width="1.0" fill="none"/>
  <path d="M 56.66 21.15 L 56.66 41.91" stroke="rgba(255,255,255,0.92)" stroke-width="1.0" fill="none"/>
  <path d="M 40.48 21.15 L 40.48 41.91" stroke="rgba(255,255,255,0.92)" stroke-width="1.0" fill="none"/>
  <path d="M 24.31 21.15 L 24.31 75.61" stroke="rgba(255,255,255,0.92)" stroke-width="1.0" fill="none"/>
  <path d="M 72.84 43.26 L 72.84 64.83" stroke="rgba(255,255,255,0.92)" stroke-width="1.0" fill="none"/>
  <path d="M 1.39 82.35 L 22.96 82.35" stroke="rgba(255,255,255,0.92)" stroke-width="1.0" fill="none"/>
  <path d="M 0.04 74.27 L 22.96 74.27" stroke="rgba(255,255,255,0.92)" stroke-width="1.0" fill="none"/>
  <path d="M 3.55 41.91 L 22.96 41.91" stroke="rgba(255,255,255,0.92)" stroke-width="1.0" fill="none"/>
  <path d="M 74.19 66.18 L 95.76 66.18" stroke="rgba(255,255,255,0.92)" stroke-width="1.0" fill="none"/>
  <path d="M 95.76 41.91 L 74.19 41.91" stroke="rgba(255,255,255,0.92)" stroke-width="1.0" fill="none"/>
  <path d="M 74.19 44.61 A 1.35 1.35 0 0 1 72.84 43.26" stroke="rgba(255,255,255,0.92)" stroke-width="1.0" fill="none"/>
  <path d="M 3.55 41.91 L 0.04 41.91" stroke="rgba(255,255,255,0.92)" stroke-width="1.0" fill="none"/>
  <path d="M 0.04 41.91 L 0.04 74.27" stroke="rgba(255,255,255,0.92)" stroke-width="1.0" fill="none"/>
  <path d="M 0.31 41.91 L 0.31 74.27" stroke="rgba(255,255,255,0.92)" stroke-width="1.0" fill="none"/>
  <path d="M 0.85 41.91 L 0.85 74.27" stroke="rgba(255,255,255,0.92)" stroke-width="1.0" fill="none"/>
  <path d="M 1.66 41.91 L 1.66 74.27" stroke="rgba(255,255,255,0.92)" stroke-width="1.0" fill="none"/>
  <path d="M 0.04 74.27 L 3.55 74.27" stroke="rgba(255,255,255,0.92)" stroke-width="1.0" fill="none"/>
  <path d="M 3.55 74.27 L 3.55 41.91" stroke="rgba(255,255,255,0.92)" stroke-width="1.0" fill="none"/>
  <path d="M 3.28 74.27 L 3.28 41.91" stroke="rgba(255,255,255,0.92)" stroke-width="1.0" fill="none"/>
  <path d="M 2.74 74.27 L 2.74 41.91" stroke="rgba(255,255,255,0.92)" stroke-width="1.0" fill="none"/>
  <path d="M 56.66 21.15 L 56.66 17.65" stroke="rgba(255,255,255,0.92)" stroke-width="1.0" fill="none"/>
  <path d="M 56.66 17.65 L 24.31 17.65" stroke="rgba(255,255,255,0.92)" stroke-width="1.0" fill="none"/>
  <path d="M 56.66 17.92 L 24.31 17.92" stroke="rgba(255,255,255,0.92)" stroke-width="1.0" fill="none"/>
  <path d="M 56.66 18.45 L 24.31 18.45" stroke="rgba(255,255,255,0.92)" stroke-width="1.0" fill="none"/>
  <path d="M 56.66 19.26 L 24.31 19.26" stroke="rgba(255,255,255,0.92)" stroke-width="1.0" fill="none"/>
  <path d="M 24.31 17.65 L 24.31 21.15" stroke="rgba(255,255,255,0.92)" stroke-width="1.0" fill="none"/>
  <path d="M 24.31 21.15 L 56.66 21.15" stroke="rgba(255,255,255,0.92)" stroke-width="1.0" fill="none"/>
  <path d="M 24.31 20.88 L 56.66 20.88" stroke="rgba(255,255,255,0.92)" stroke-width="1.0" fill="none"/>
  <path d="M 24.31 20.34 L 56.66 20.34" stroke="rgba(255,255,255,0.92)" stroke-width="1.0" fill="none"/>
  <path d="M 1.39 17.65 L 87.67 17.65" stroke="rgba(255,255,255,0.92)" stroke-width="1.0" fill="none"/>
  <path d="M 89.02 41.91 L 89.02 18.99" stroke="rgba(255,255,255,0.92)" stroke-width="1.0" fill="none"/>
  <path d="M 40.39 37.38 A 9.34 9.34 0 0 1 32.55 34.80" stroke="rgba(255,255,255,0.92)" stroke-width="1.0" fill="none"/>
  <path d="M 40.64 35.26 A 7.28 7.28 0 0 1 33.93 35.53" stroke="rgba(255,255,255,0.92)" stroke-width="1.0" fill="none"/>
  <path d="M 27.36 21.70 A 9.57 9.57 0 0 1 31.23 13.99" stroke="rgba(255,255,255,0.92)" stroke-width="1.0" fill="none"/>
  <path d="M 33.95 24.37 A 9.57 9.57 0 0 1 36.99 16.31" stroke="rgba(255,255,255,0.92)" stroke-width="1.0" fill="none"/>
  <path d="M 36.99 13.13 A 9.74 9.74 0 0 1 47.34 13.98" stroke="rgba(255,255,255,0.92)" stroke-width="1.0" fill="none"/>
  <path d="M 47.28 21.14 A 12.13 12.13 0 0 1 47.20 29.81" stroke="rgba(255,255,255,0.92)" stroke-width="1.0" fill="none"/>
  <path d="M 41.35 27.58 A 12.13 12.13 0 0 1 40.39 30.07" stroke="rgba(255,255,255,0.92)" stroke-width="1.0" fill="none"/>
  <path d="M 47.20 39.05 A 9.34 9.34 0 0 1 39.13 37.31" stroke="rgba(255,255,255,0.92)" stroke-width="1.0" fill="none"/>
  <path d="M 31.23 11.25 A 9.74 9.74 0 0 1 36.48 10.72" stroke="rgba(255,255,255,0.92)" stroke-width="1.0" fill="none"/>
  <path d="M 34.04 34.57 A 7.28 7.28 0 0 1 27.34 34.14" stroke="rgba(255,255,255,0.92)" stroke-width="1.0" fill="none"/>
  <path d="M 56.66 20.88 L 56.66 20.88 L 89.02 21.15 L 89.02 21.15" stroke="rgba(255,255,255,0.92)" stroke-width="1.0" fill="none"/>
  <path d="M 56.66 21.15 L 89.02 21.15" stroke="rgba(255,255,255,0.92)" stroke-width="1.0" fill="none"/>
  <path d="M 72.84 21.15 L 72.84 41.91" stroke="rgba(255,255,255,0.92)" stroke-width="1.0" fill="none"/>
  <path d="M 24.31 21.15 L 24.31 21.15 L 56.66 21.15 L 56.66 21.15" stroke="rgba(255,255,255,0.92)" stroke-width="1.0" fill="none"/>
  <path d="M 4.89 21.15 L 4.89 21.15 L 24.31 21.15 L 24.31 21.15" stroke="rgba(255,255,255,0.92)" stroke-width="1.0" fill="none"/>
  <path d="M 1.52 56.53 A 9.34 9.34 0 0 1 5.35 49.22" stroke="rgba(255,255,255,0.92)" stroke-width="1.0" fill="none"/>
  <path d="M 5.17 61.19 A 7.28 7.28 0 0 1 6.00 54.53" stroke="rgba(255,255,255,0.92)" stroke-width="1.0" fill="none"/>
  <path d="M 6.41 50.51 A 9.57 9.57 0 0 1 13.38 55.60" stroke="rgba(255,255,255,0.92)" stroke-width="1.0" fill="none"/>
  <path d="M 5.99 43.68 A 9.57 9.57 0 0 1 13.45 48.01" stroke="rgba(255,255,255,0.92)" stroke-width="1.0" fill="none"/>
  <path d="M 13.45 52.42 A 9.74 9.74 0 0 1 10.90 62.49" stroke="rgba(255,255,255,0.92)" stroke-width="1.0" fill="none"/>
  <path d="M 10.96 72.27 A 12.13 12.13 0 0 1 2.42 70.76" stroke="rgba(255,255,255,0.92)" stroke-width="1.0" fill="none"/>
  <path d="M 3.81 77.76 A 12.13 12.13 0 0 1 1.52 76.40" stroke="rgba(255,255,255,0.92)" stroke-width="1.0" fill="none"/>
  <path d="M 2.42 51.43 A 9.34 9.34 0 0 1 5.47 43.76" stroke="rgba(255,255,255,0.92)" stroke-width="1.0" fill="none"/>
  <path d="M 13.38 60.25 A 9.74 9.74 0 0 1 13.03 65.52" stroke="rgba(255,255,255,0.92)" stroke-width="1.0" fill="none"/>
  <path d="M 4.90 66.46 A 7.28 7.28 0 0 1 6.42 59.93" stroke="rgba(255,255,255,0.92)" stroke-width="1.0" fill="none"/>
  <path d="M 13.44 42.37 A 9.34 9.34 0 0 1 5.92 38.98" stroke="rgba(255,255,255,0.92)" stroke-width="1.0" fill="none"/>
  <path d="M 13.03 39.19 A 7.28 7.28 0 0 1 8.27 34.46" stroke="rgba(255,255,255,0.92)" stroke-width="1.0" fill="none"/>
  <path d="M 19.76 25.01 A 9.57 9.57 0 0 1 17.41 33.31" stroke="rgba(255,255,255,0.92)" stroke-width="1.0" fill="none"/>
  <path d="M 16.21 31.65 A 9.57 9.57 0 0 1 13.01 39.66" stroke="rgba(255,255,255,0.92)" stroke-width="1.0" fill="none"/>
  <path d="M 8.01 20.28 A 9.74 9.74 0 0 1 16.21 26.65" stroke="rgba(255,255,255,0.92)" stroke-width="1.0" fill="none"/>
  <path d="M 2.29 24.50 A 12.13 12.13 0 0 1 8.09 18.06" stroke="rgba(255,255,255,0.92)" stroke-width="1.0" fill="none"/>
  <path d="M 5.92 20.81 A 12.13 12.13 0 0 1 6.89 18.32" stroke="rgba(255,255,255,0.92)" stroke-width="1.0" fill="none"/>
  <path d="M 9.41 47.68 A 9.34 9.34 0 0 1 2.29 43.52" stroke="rgba(255,255,255,0.92)" stroke-width="1.0" fill="none"/>
  <path d="M 16.25 16.17 A 9.74 9.74 0 0 1 19.76 20.11" stroke="rgba(255,255,255,0.92)" stroke-width="1.0" fill="none"/>
  <path d="M 17.43 34.62 A 7.28 7.28 0 0 1 12.20 30.42" stroke="rgba(255,255,255,0.92)" stroke-width="1.0" fill="none"/>
</svg>
