<svg xmlns="http://www.w3.org/2000/svg" viewBox="0 0 100.00 64.71" data-cad-width="3708.9" data-cad-height="2400.0">
  <path d="M 2.94 33.78 L 100.00 33.78" stroke="rgba(255,255,255,0.92)" stroke-width="1.0" fill="none"/>
  <path d="M 2.94 31.08 L 27.20 31.08" stroke="rgba(255,255,255,0.92)" stroke-width="1.0" fill="none"/>
  <path d="M 27.20 25.69 L 100.00 25.69" stroke="rgba(255,255,255,0.92)" stroke-width="1.0" fill="none"/>
  <path d="M 27.20 22.99 L 42.57 22.99" stroke="rgba(255,255,255,0.92)" stroke-width="1.0" fill="none"/>
  <path d="M 11.58 21.65 L 27.08 21.65" stroke="rgba(255,255,255,0.92)" stroke-width="1.0" fill="none"/>
  <path d="M 27.20 21.92 A 0.27 0.27 0 0 1 26.93 22.19" stroke="rgba(255,255,255,0.92)" stroke-width="1.0" fill="none"/>
  <path d="M 12.14 20.30 L 27.07 20.30" stroke="rgba(255,255,255,0.92)" stroke-width="1.0" fill="none"/>
  <path d="M 11.19 18.00 A 1.35 1.35 0 0 1 12.14 17.60" stroke="rgba(255,255,255,0.92)" stroke-width="1.0" fill="none"/>
  <path d="M 89.22 21.65 L 100.00 21.65" stroke="rgba(255,255,255,0.92)" stroke-width="1.0" fill="none"/>
  <path d="M 89.75 21.65 L 99.46 21.65" stroke="rgba(255,255,255,0.92)" stroke-width="1.0" fill="none"/>
  <path d="M 2.94 17.60 L 6.42 17.60" stroke="rgba(255,255,255,0.92)" stroke-width="1.0" fill="none"/>
  <path d="M 2.94 16.25 L 6.98 16.25" stroke="rgba(255,255,255,0.92)" stroke-width="1.0" fill="none"/>
  <path d="M 2.94 13.56 L 6.98 13.56" stroke="rgba(255,255,255,0.92)" stroke-width="1.0" fill="none"/>
  <path d="M 7.93 18.56 A 1.35 1.35 0 0 1 6.98 18.95" stroke="rgba(255,255,255,0.92)" stroke-width="1.0" fill="none"/>
  <path d="M 89.75 17.60 L 99.46 17.60" stroke="rgba(255,255,255,0.92)" stroke-width="1.0" fill="none"/>
  <path d="M 99.46 16.52 A 0.54 0.54 0 0 1 100.00 17.06" stroke="rgba(255,255,255,0.92)" stroke-width="1.0" fill="none"/>
  <path d="M 89.75 16.25 L 99.46 16.25" stroke="rgba(255,255,255,0.92)" stroke-width="1.0" fill="none"/>
  <path d="M 89.75 17.33 A 0.54 0.54 0 0 1 89.22 16.79" stroke="rgba(255,255,255,0.92)" stroke-width="1.0" fill="none"/>
  <path d="M 89.22 17.06 A 0.54 0.54 0 0 1 89.75 16.52" stroke="rgba(255,255,255,0.92)" stroke-width="1.0" fill="none"/>
  <path d="M 44.46 7.36 L 58.48 7.36" stroke="rgba(255,255,255,0.92)" stroke-width="1.0" fill="none"/>
  <path d="M 68.72 7.36 L 88.14 7.36" stroke="rgba(255,255,255,0.92)" stroke-width="1.0" fill="none"/>
  <path d="M 68.72 9.51 A 1.08 1.08 0 0 1 67.65 8.44" stroke="rgba(255,255,255,0.92)" stroke-width="1.0" fill="none"/>
  <path d="M 2.94 13.49 L 2.94 33.78" stroke="rgba(255,255,255,0.92)" stroke-width="1.0" fill="none"/>
  <path d="M 27.20 21.92 L 27.20 33.78" stroke="rgba(255,255,255,0.92)" stroke-width="1.0" fill="none"/>
  <path d="M 43.38 23.80 L 43.38 25.69" stroke="rgba(255,255,255,0.92)" stroke-width="1.0" fill="none"/>
  <path d="M 44.19 24.61 A 0.81 0.81 0 0 1 43.38 23.80" stroke="rgba(255,255,255,0.92)" stroke-width="1.0" fill="none"/>
  <path d="M 43.38 23.80 A 0.81 0.81 0 0 1 42.57 24.61" stroke="rgba(255,255,255,0.92)" stroke-width="1.0" fill="none"/>
  <path d="M 59.56 23.80 L 59.56 25.69" stroke="rgba(255,255,255,0.92)" stroke-width="1.0" fill="none"/>
  <path d="M 100.00 22.19 L 100.00 22.46" stroke="rgba(255,255,255,0.92)" stroke-width="1.0" fill="none"/>
  <path d="M 99.46 21.92 A 0.54 0.54 0 0 1 100.00 22.46" stroke="rgba(255,255,255,0.92)" stroke-width="1.0" fill="none"/>
  <path d="M 100.00 22.19 A 0.54 0.54 0 0 1 99.46 22.73" stroke="rgba(255,255,255,0.92)" stroke-width="1.0" fill="none"/>
  <path d="M 75.73 25.69 L 75.73 33.78" stroke="rgba(255,255,255,0.92)" stroke-width="1.0" fill="none"/>
  <path d="M 89.22 22.19 L 89.22 22.46" stroke="rgba(255,255,255,0.92)" stroke-width="1.0" fill="none"/>
  <path d="M 89.75 22.73 A 0.54 0.54 0 0 1 89.22 22.19" stroke="rgba(255,255,255,0.92)" stroke-width="1.0" fill="none"/>
  <path d="M 27.20 13.56 L 27.20 20.33" stroke="rgba(255,255,255,0.92)" stroke-width="1.0" fill="none"/>
  <path d="M 21.81 13.56 L 21.81 20.33" stroke="rgba(255,255,255,0.92)" stroke-width="1.0" fill="none"/>
  <path d="M 16.42 13.56 L 16.42 20.33" stroke="rgba(255,255,255,0.92)" stroke-width="1.0" fill="none"/>
  <path d="M 11.03 13.56 L 11.03 19.74" stroke="rgba(255,255,255,0.92)" stroke-width="1.0" fill="none"/>
  <path d="M 32.60 13.56 L 32.60 22.99" stroke="rgba(255,255,255,0.92)" stroke-width="1.0" fill="none"/>
  <path d="M 37.99 13.56 L 37.99 22.99" stroke="rgba(255,255,255,0.92)" stroke-width="1.0" fill="none"/>
  <path d="M 43.38 13.56 L 43.38 22.99" stroke="rgba(255,255,255,0.92)" stroke-width="1.0" fill="none"/>
  <path d="M 48.77 13.56 L 48.77 22.99" stroke="rgba(255,255,255,0.92)" stroke-width="1.0" fill="none"/>
  <path d="M 54.16 13.56 L 54.16 22.99" stroke="rgba(255,255,255,0.92)" stroke-width="1.0" fill="none"/>
  <path d="M 59.56 13.56 L 59.56 22.99" stroke="rgba(255,255,255,0.92)" stroke-width="1.0" fill="none"/>
  <path d="M 64.95 13.56 L 64.95 22.99" stroke="rgba(255,255,255,0.92)" stroke-width="1.0" fill="none"/>
  <path d="M 70.34 13.56 L 70.34 22.99" stroke="rgba(255,255,255,0.92)" stroke-width="1.0" fill="none"/>
  <path d="M 75.73 13.56 L 75.73 22.99" stroke="rgba(255,255,255,0.92)" stroke-width="1.0" fill="none"/>
  <path d="M 82.47 13.56 L 82.47 22.99" stroke="rgba(255,255,255,0.92)" stroke-width="1.0" fill="none"/>
  <path d="M 7.38 18.00 L 10.63 21.25" stroke="rgba(255,255,255,0.92)" stroke-width="1.0" fill="none"/>
  <path d="M 7.38 19.90 A 1.35 1.35 0 0 1 6.42 20.30" stroke="rgba(255,255,255,0.92)" stroke-width="1.0" fill="none"/>
  <path d="M 10.63 19.35 A 1.35 1.35 0 0 1 11.58 18.95" stroke="rgba(255,255,255,0.92)" stroke-width="1.0" fill="none"/>
  <path d="M 7.93 16.65 L 11.19 19.90" stroke="rgba(255,255,255,0.92)" stroke-width="1.0" fill="none"/>
  <path d="M 27.30 20.42 A 0.96 0.96 0 0 1 27.29 21.54" stroke="rgba(255,255,255,0.92)" stroke-width="1.0" fill="none"/>
  <path d="M 27.08 21.11 A 0.27 0.27 0 0 1 27.30 21.22" stroke="rgba(255,255,255,0.92)" stroke-width="1.0" fill="none"/>
  <path d="M 27.29 20.73 A 0.27 0.27 0 0 1 27.07 20.84" stroke="rgba(255,255,255,0.92)" stroke-width="1.0" fill="none"/>
  <path d="M 44.19 22.99 L 58.75 22.99" stroke="rgba(255,255,255,0.92)" stroke-width="1.0" fill="none"/>
  <path d="M 59.56 23.80 A 0.81 0.81 0 0 1 58.75 24.61" stroke="rgba(255,255,255,0.92)" stroke-width="1.0" fill="none"/>
  <path d="M 60.37 22.99 L 89.75 22.99" stroke="rgba(255,255,255,0.92)" stroke-width="1.0" fill="none"/>
  <path d="M 60.37 24.61 A 0.81 0.81 0 0 1 59.56 23.80" stroke="rgba(255,255,255,0.92)" stroke-width="1.0" fill="none"/>
  <path d="M 89.75 22.99 L 99.46 22.99" stroke="rgba(255,255,255,0.92)" stroke-width="1.0" fill="none"/>
  <path d="M 89.22 22.46 A 0.54 0.54 0 0 1 89.75 21.92" stroke="rgba(255,255,255,0.92)" stroke-width="1.0" fill="none"/>
  <path d="M 0.24 10.96 L 0.24 12.11 L 7.32 12.11 L 7.32 10.96 Z" stroke="rgba(255,255,255,0.92)" stroke-width="1.0" fill="none"/>
  <path d="M 6.98 13.56 L 6.98 16.25" stroke="rgba(255,255,255,0.92)" stroke-width="1.0" fill="none"/>
  <path d="M 44.46 13.56 L 58.48 13.56" stroke="rgba(255,255,255,0.92)" stroke-width="1.0" fill="none"/>
  <path d="M 58.48 11.40 A 1.08 1.08 0 0 1 59.56 12.48" stroke="rgba(255,255,255,0.92)" stroke-width="1.0" fill="none"/>
  <path d="M 43.38 12.48 A 1.08 1.08 0 0 1 44.46 11.40" stroke="rgba(255,255,255,0.92)" stroke-width="1.0" fill="none"/>
  <path d="M 9.56 18.28 L 89.22 18.28" stroke="rgba(255,255,255,0.92)" stroke-width="1.0" fill="none"/>
  <path d="M 43.38 12.48 L 43.38 8.44" stroke="rgba(255,255,255,0.92)" stroke-width="1.0" fill="none"/>
  <path d="M 44.46 9.51 A 1.08 1.08 0 0 1 43.38 8.44" stroke="rgba(255,255,255,0.92)" stroke-width="1.0" fill="none"/>
  <path d="M 59.56 12.48 L 59.56 8.44" stroke="rgba(255,255,255,0.92)" stroke-width="1.0" fill="none"/>
  <path d="M 59.56 8.44 A 1.08 1.08 0 0 1 58.48 9.51" stroke="rgba(255,255,255,0.92)" stroke-width="1.0" fill="none"/>
  <path d="M 67.65 12.48 L 67.65 8.44" stroke="rgba(255,255,255,0.92)" stroke-width="1.0" fill="none"/>
  <path d="M 3.97 33.78 L 3.97 34.59 L 6.66 34.59 L 6.66 33.78" stroke="rgba(255,255,255,0.92)" stroke-width="1.0" fill="none"/>
  <path d="M 23.41 33.78 L 23.41 34.59 L 26.11 34.59 L 26.11 33.78" stroke="rgba(255,255,255,0.92)" stroke-width="1.0" fill="none"/>
  <path d="M 57.90 33.78 L 57.90 34.59 L 60.60 34.59 L 60.60 33.78" stroke="rgba(255,255,255,0.92)" stroke-width="1.0" fill="none"/>
  <path d="M 77.39 33.78 L 77.39 34.59 L 80.08 34.59 L 80.08 33.78" stroke="rgba(255,255,255,0.92)" stroke-width="1.0" fill="none"/>
  <path d="M 96.02 33.78 L 96.02 34.59 L 98.72 34.59 L 98.72 33.78" stroke="rgba(255,255,255,0.92)" stroke-width="1.0" fill="none"/>
  <path d="M 100.00 33.78 L 100.00 25.69" stroke="rgba(255,255,255,0.92)" stroke-width="1.0" fill="none"/>
  <path d="M 100.00 25.69 L 99.99 22.54" stroke="rgba(255,255,255,0.92)" stroke-width="1.0" fill="none"/>
  <path d="M 100.00 21.65 L 100.00 18.14" stroke="rgba(255,255,255,0.92)" stroke-width="1.0" fill="none"/>
  <path d="M 100.00 18.14 A 0.54 0.54 0 0 1 99.46 18.68" stroke="rgba(255,255,255,0.92)" stroke-width="1.0" fill="none"/>
  <path d="M 89.22 21.65 L 89.22 18.14" stroke="rgba(255,255,255,0.92)" stroke-width="1.0" fill="none"/>
  <path d="M 89.75 18.68 A 0.54 0.54 0 0 1 89.22 18.14" stroke="rgba(255,255,255,0.92)" stroke-width="1.0" fill="none"/>
  <path d="M 89.22 17.06 L 89.22 16.79" stroke="rgba(255,255,255,0.92)" stroke-width="1.0" fill="none"/>
  <path d="M 89.22 14.64 A 1.08 1.08 0 0 1 88.14 15.71" stroke="rgba(255,255,255,0.92)" stroke-width="1.0" fill="none"/>
  <path d="M 89.22 12.48 L 89.22 8.44" stroke="rgba(255,255,255,0.92)" stroke-width="1.0" fill="none"/>
  <path d="M 88.14 11.40 A 1.08 1.08 0 0 1 89.22 12.48" stroke="rgba(255,255,255,0.92)" stroke-width="1.0" fill="none"/>
  <path d="M 89.22 8.44 A 1.08 1.08 0 0 1 88.14 9.51" stroke="rgba(255,255,255,0.92)" stroke-width="1.0" fill="none"/>
  <path d="M 68.72 13.56 L 88.14 13.56" stroke="rgba(255,255,255,0.92)" stroke-width="1.0" fill="none"/>
  <path d="M 67.65 12.48 A 1.08 1.08 0 0 1 68.72 11.40" stroke="rgba(255,255,255,0.92)" stroke-width="1.0" fill="none"/>
  <path d="M 68.72 13.56 L 57.74 13.56" stroke="rgba(255,255,255,0.92)" stroke-width="1.0" fill="none"/>
  <path d="M 44.46 13.56 L 6.98 13.56" stroke="rgba(255,255,255,0.92)" stroke-width="1.0" fill="none"/>
  <path d="M 100.00 17.06 L 100.00 16.79" stroke="rgba(255,255,255,0.92)" stroke-width="1.0" fill="none"/>
  <path d="M 100.00 16.79 A 0.54 0.54 0 0 1 99.46 17.33" stroke="rgba(255,255,255,0.92)" stroke-width="1.0" fill="none"/>
  <path d="M 89.22 14.64 L 89.22 16.79" stroke="rgba(255,255,255,0.92)" stroke-width="1.0" fill="none"/>
  <path d="M 16.11 14.80 A 6.94 6.94 0 0 1 16.62 18.19" stroke="rgba(255,255,255,0.92)" stroke-width="1.0" fill="none"/>
  <path d="M 15.17 15.89 A 2.86 2.86 0 0 1 16.11 17.49" stroke="rgba(255,255,255,0.92)" stroke-width="1.0" fill="none"/>
  <path d="M 14.85 14.94 A 6.13 6.13 0 0 1 15.17 15.71" stroke="rgba(255,255,255,0.92)" stroke-width="1.0" fill="none"/>
  <path d="M 11.51 13.63 L 11.58 13.60 L 11.66 13.57 L 11.74 13.54 L 11.82 13.52 L 11.90 13.49 L 11.98 13.46 L 12.06 13.44 L 12.14 13.42 L 12.22 13.39 L 12.30 13.37 L 12.38 13.35 L 12.46 13.33 L 12.54 13.31 L 12.62 13.29 L 12.71 13.27 L 12.79 13.25 L 12.87 13.23 L 12.96 13.21 L 13.04 13.20 L 13.12 13.18 L 13.21 13.17 L 13.29 13.15 L 13.38 13.14 L 13.46 13.13 L 13.55 13.12 L 13.63 13.10 L 13.72 13.09 L 13.80 13.08 L 13.89 13.08 L 13.97 13.07 L 14.06 13.06 L 14.15 13.05 L 14.23 13.05 L 14.32 13.04 L 14.41 13.04 L 14.50 13.03 L 14.58 13.03 L 14.67 13.03 L 14.76 13.03 L 14.84 13.03 L 14.93 13.03 L 15.02 13.03 L 15.11 13.03 L 15.20 13.03 L 15.28 13.03 L 15.37 13.04 L 15.46 13.04 L 15.55 13.05" stroke="rgba(255,255,255,0.92)" stroke-width="1.0" fill="none"/>
  <path d="M 8.51 17.64 L 8.54 17.58 L 8.57 17.52 L 8.61 17.46 L 8.64 17.40 L 8.68 17.34 L 8.71 17.28 L 8.75 17.23 L 8.79 17.17 L 8.83 17.11 L 8.87 17.06 L 8.92 17.00 L 8.96 16.95 L 9.01 16.89 L 9.06 16.84 L 9.11 16.79 L 9.16 16.73 L 9.21 16.68 L 9.27 16.63 L 9.32 16.58 L 9.38 16.53 L 9.43 16.49 L 9.49 16.44 L 9.55 16.39 L 9.61 16.35 L 9.67 16.30 L 9.74 16.26 L 9.80 16.22 L 9.87 16.18 L 9.93 16.14 L 10.00 16.10 L 10.07 16.06 L 10.13 16.03 L 10.20 15.99 L 10.27 15.96 L 10.34 15.92 L 10.41 15.89 L 10.49 15.86 L 10.56 15.83 L 10.63 15.80 L 10.71 15.77 L 10.78 15.75 L 10.85 15.72 L 10.93 15.70 L 11.01 15.68 L 11.08 15.66 L 11.16 15.64 L 11.24 15.62 L 11.31 15.60" stroke="rgba(255,255,255,0.92)" stroke-width="1.0" fill="none"/>
  <path d="M 16.37 22.08 L 16.70 22.17 L 17.04 22.23 L 17.40 22.25 L 17.77 22.25 L 18.14 22.21 L 18.51 22.14 L 18.87 22.03 L 19.23 21.90 L 19.57 21.74 L 19.90 21.55 L 20.20 21.34 L 20.49 21.11 L 20.74 20.86 L 20.96 20.59 L 21.15 20.31 L 21.30 20.01 L 21.41 19.72 L 21.49 19.42 L 21.52 19.12 L 21.52 18.82 L 21.47 18.54 L 21.39 18.26 L 21.26 18.00 L 21.10 17.76 L 20.91 17.54 L 20.68 17.34 L 20.42 17.16 L 20.13 17.02 L 19.82 16.90 L 19.49 16.81 L 19.14 16.76 L 18.78 16.73 L 18.42 16.74 L 18.04 16.79 L 17.67 16.86 L 17.31 16.97 L 16.95 17.10 L 16.61 17.27 L 16.29 17.46 L 15.99 17.67 L 15.71 17.90 L 15.46 18.16 L 15.24 18.43 L 15.06 18.71 L 14.91 19.00 L 14.80 19.30 L 14.73 19.60 L 14.69 19.90" stroke="rgba(255,255,255,0.92)" stroke-width="1.0" fill="none"/>
  <path d="M 15.12 20.39 L 12.88 19.84 L 8.75 16.81 L 8.03 16.40" stroke="rgba(255,255,255,0.92)" stroke-width="1.0" fill="none"/>
  <path d="M 7.91 16.66 L 7.97 16.56 L 8.04 16.47 L 8.10 16.37 L 8.17 16.28 L 8.24 16.18 L 8.31 16.09 L 8.38 16.00 L 8.46 15.91 L 8.54 15.82 L 8.62 15.73 L 8.70 15.65 L 8.78 15.56 L 8.86 15.48 L 8.95 15.40 L 9.04 15.32 L 9.13 15.24 L 9.22 15.16 L 9.32 15.08 L 9.41 15.01 L 9.51 14.93 L 9.61 14.86 L 9.71 14.79 L 9.81 14.72 L 9.91 14.65 L 10.02 14.59 L 10.12 14.52 L 10.23 14.46 L 10.34 14.40 L 10.45 14.34 L 10.56 14.29 L 10.67 14.23 L 10.79 14.18 L 10.90 14.12 L 11.02 14.07 L 11.13 14.03 L 11.25 13.98 L 11.37 13.94 L 11.49 13.89 L 11.61 13.85 L 11.74 13.81 L 11.86 13.78 L 11.98 13.74 L 12.11 13.71 L 12.23 13.68 L 12.36 13.65 L 12.48 13.62 L 12.61 13.60 L 12.74 13.57" stroke="rgba(255,255,255,0.92)" stroke-width="1.0" fill="none"/>
  <path d="M 20.81 19.29 L 20.71 19.33 L 20.60 19.38 L 20.50 19.42 L 20.40 19.46 L 20.29 19.50 L 20.18 19.53 L 20.08 19.57 L 19.97 19.61 L 19.86 19.65 L 19.75 19.68 L 19.64 19.72 L 19.53 19.75 L 19.42 19.78 L 19.31 19.81 L 19.20 19.85 L 19.09 19.88 L 18.97 19.91 L 18.86 19.94 L 18.75 19.96 L 18.63 19.99 L 18.52 20.02 L 18.40 20.04 L 18.28 20.07 L 18.17 20.09 L 18.05 20.11 L 17.93 20.13 L 17.82 20.16 L 17.70 20.18 L 17.58 20.19 L 17.46 20.21 L 17.34 20.23 L 17.22 20.25 L 17.10 20.26 L 16.98 20.28 L 16.86 20.29 L 16.74 20.30 L 16.62 20.32 L 16.50 20.33 L 16.38 20.34 L 16.25 20.35 L 16.13 20.35 L 16.01 20.36 L 15.89 20.37 L 15.77 20.37 L 15.64 20.38 L 15.52 20.38 L 15.40 20.39 L 15.28 20.39" stroke="rgba(255,255,255,0.92)" stroke-width="1.0" fill="none"/>
  <path d="M 22.07 12.72 L 22.04 12.76 L 22.00 12.80 L 21.97 12.84 L 21.93 12.88 L 21.90 12.91 L 21.86 12.95 L 21.82 12.99 L 21.78 13.03 L 21.74 13.06 L 21.70 13.10 L 21.66 13.13 L 21.62 13.17 L 21.58 13.20 L 21.53 13.23 L 21.49 13.27 L 21.45 13.30 L 21.40 13.33 L 21.36 13.36 L 21.31 13.39 L 21.26 13.42 L 21.22 13.44 L 21.17 13.47 L 21.12 13.49 L 21.08 13.52 L 21.03 13.54 L 20.98 13.57 L 20.93 13.59 L 20.88 13.61 L 20.83 13.63 L 20.78 13.65 L 20.73 13.67 L 20.68 13.69 L 20.63 13.70 L 20.58 13.72 L 20.53 13.73 L 20.48 13.75 L 20.43 13.76 L 20.38 13.77 L 20.33 13.78 L 20.28 13.79 L 20.23 13.80 L 20.18 13.81 L 20.13 13.82 L 20.08 13.82 L 20.03 13.83 L 19.98 13.83 L 19.93 13.84 L 19.87 13.84" stroke="rgba(255,255,255,0.92)" stroke-width="1.0" fill="none"/>
  <path d="M 21.15 -2.49 L 21.18 -2.39 L 21.22 -2.29 L 21.25 -2.19 L 21.28 -2.09 L 21.30 -1.99 L 21.33 -1.89 L 21.36 -1.78 L 21.38 -1.68 L 21.41 -1.58 L 21.43 -1.47 L 21.45 -1.37 L 21.47 -1.26 L 21.49 -1.16 L 21.51 -1.05 L 21.53 -0.95 L 21.54 -0.84 L 21.56 -0.73 L 21.57 -0.63 L 21.58 -0.52 L 21.59 -0.41 L 21.60 -0.30 L 21.61 -0.20 L 21.62 -0.09 L 21.62 0.02 L 21.63 0.13 L 21.63 0.24 L 21.64 0.35 L 21.64 0.46 L 21.64 0.57 L 21.64 0.68 L 21.64 0.79 L 21.63 0.90 L 21.63 1.01 L 21.62 1.12 L 21.62 1.23 L 21.61 1.34 L 21.60 1.45 L 21.59 1.57 L 21.58 1.68 L 21.56 1.79 L 21.55 1.90 L 21.54 2.01 L 21.52 2.12 L 21.50 2.23 L 21.48 2.35 L 21.46 2.46 L 21.44 2.57 L 21.42 2.68" stroke="rgba(255,255,255,0.92)" stroke-width="1.0" fill="none"/>
  <path d="M 32.19 17.95 A 1.72 1.72 0 0 1 32.49 18.91" stroke="rgba(255,255,255,0.92)" stroke-width="1.0" fill="none"/>
  <path d="M 31.23 14.29 L 31.27 14.17 L 31.32 14.04 L 31.37 13.92 L 31.42 13.80 L 31.48 13.68 L 31.54 13.56 L 31.61 13.45 L 31.67 13.33 L 31.75 13.22 L 31.82 13.10 L 31.90 12.99 L 31.98 12.88 L 32.07 12.78 L 32.15 12.67 L 32.25 12.57 L 32.34 12.47 L 32.44 12.37 L 32.54 12.27 L 32.64 12.17 L 32.75 12.08 L 32.86 11.99 L 32.97 11.90 L 33.08 11.81 L 33.20 11.73 L 33.32 11.65 L 33.44 11.57 L 33.57 11.50 L 33.69 11.42 L 33.82 11.35 L 33.95 11.28 L 34.09 11.22 L 34.22 11.16 L 34.36 11.10 L 34.50 11.04 L 34.64 10.99 L 34.78 10.94 L 34.92 10.89 L 35.07 10.84 L 35.22 10.80 L 35.36 10.77 L 35.51 10.73 L 35.66 10.70 L 35.81 10.67 L 35.96 10.64 L 36.12 10.62 L 36.27 10.60 L 36.42 10.59 L 36.58 10.57" stroke="rgba(255,255,255,0.92)" stroke-width="1.0" fill="none"/>
  <path d="M 33.10 14.00 L 33.11 13.93 L 33.12 13.86 L 33.14 13.79 L 33.15 13.72 L 33.17 13.65 L 33.19 13.58 L 33.21 13.51 L 33.24 13.44 L 33.26 13.37 L 33.29 13.30 L 33.31 13.23 L 33.34 13.16 L 33.37 13.10 L 33.40 13.03 L 33.43 12.96 L 33.47 12.90 L 33.50 12.83 L 33.54 12.77 L 33.58 12.70 L 33.61 12.64 L 33.65 12.57 L 33.70 12.51 L 33.74 12.45 L 33.78 12.39 L 33.83 12.33 L 33.87 12.27 L 33.92 12.21 L 33.97 12.15 L 34.02 12.09 L 34.07 12.03 L 34.12 11.97 L 34.17 11.92 L 34.23 11.86 L 34.28 11.81 L 34.34 11.75 L 34.40 11.70 L 34.46 11.65 L 34.52 11.60 L 34.58 11.55 L 34.64 11.50 L 34.70 11.45 L 34.77 11.40 L 34.83 11.35 L 34.90 11.31 L 34.96 11.26 L 35.03 11.22 L 35.10 11.17 L 35.17 11.13" stroke="rgba(255,255,255,0.92)" stroke-width="1.0" fill="none"/>
  <path d="M 26.17 16.71 L 26.23 16.67 L 26.29 16.64 L 26.36 16.62 L 26.42 16.59 L 26.48 16.56 L 26.55 16.54 L 26.61 16.52 L 26.68 16.49 L 26.75 16.47 L 26.81 16.45 L 26.88 16.44 L 26.95 16.42 L 27.02 16.40 L 27.09 16.39 L 27.16 16.38 L 27.24 16.37 L 27.31 16.36 L 27.38 16.35 L 27.46 16.34 L 27.53 16.34 L 27.60 16.33 L 27.68 16.33 L 27.75 16.33 L 27.83 16.33 L 27.90 16.33 L 27.98 16.34 L 28.06 16.34 L 28.13 16.35 L 28.21 16.35 L 28.29 16.36 L 28.36 16.37 L 28.44 16.38 L 28.52 16.40 L 28.59 16.41 L 28.67 16.43 L 28.75 16.44 L 28.82 16.46 L 28.90 16.48 L 28.97 16.50 L 29.05 16.53 L 29.12 16.55 L 29.20 16.58 L 29.27 16.60 L 29.35 16.63 L 29.42 16.66 L 29.49 16.69 L 29.56 16.72 L 29.64 16.75" stroke="rgba(255,255,255,0.92)" stroke-width="1.0" fill="none"/>
  <path d="M 35.67 20.43 L 35.59 20.47 L 35.51 20.50 L 35.43 20.54 L 35.35 20.57 L 35.27 20.60 L 35.19 20.63 L 35.11 20.66 L 35.03 20.68 L 34.95 20.71 L 34.87 20.73 L 34.78 20.75 L 34.70 20.77 L 34.62 20.79 L 34.54 20.80 L 34.46 20.82 L 34.37 20.83 L 34.29 20.84 L 34.21 20.85 L 34.13 20.86 L 34.04 20.86 L 33.96 20.87 L 33.88 20.87 L 33.80 20.87 L 33.72 20.87 L 33.63 20.87 L 33.55 20.87 L 33.47 20.86 L 33.39 20.85 L 33.31 20.84 L 33.24 20.83 L 33.16 20.82 L 33.08 20.81 L 33.00 20.79 L 32.93 20.77 L 32.85 20.75 L 32.78 20.73 L 32.70 20.71 L 32.63 20.69 L 32.56 20.66 L 32.48 20.63 L 32.41 20.61 L 32.34 20.58 L 32.28 20.54 L 32.21 20.51 L 32.14 20.48 L 32.08 20.44 L 32.01 20.40 L 31.95 20.36" stroke="rgba(255,255,255,0.92)" stroke-width="1.0" fill="none"/>
  <path d="M 33.16 10.66 L 33.24 10.68 L 33.32 10.71 L 33.40 10.73 L 33.48 10.76 L 33.56 10.78 L 33.63 10.81 L 33.71 10.84 L 33.79 10.87 L 33.87 10.90 L 33.95 10.93 L 34.03 10.96 L 34.10 10.99 L 34.18 11.02 L 34.26 11.05 L 34.34 11.09 L 34.41 11.12 L 34.49 11.16 L 34.57 11.20 L 34.64 11.23 L 34.72 11.27 L 34.80 11.31 L 34.87 11.35 L 34.95 11.39 L 35.02 11.43 L 35.10 11.47 L 35.17 11.51 L 35.25 11.56 L 35.32 11.60 L 35.40 11.65 L 35.47 11.69 L 35.54 11.74 L 35.62 11.78 L 35.69 11.83 L 35.76 11.88 L 35.84 11.93 L 35.91 11.98 L 35.98 12.03 L 36.05 12.08 L 36.12 12.13 L 36.19 12.18 L 36.26 12.23 L 36.33 12.28 L 36.40 12.34 L 36.47 12.39 L 36.54 12.45 L 36.61 12.50 L 36.67 12.56 L 36.74 12.62" stroke="rgba(255,255,255,0.92)" stroke-width="1.0" fill="none"/>
  <path d="M 31.73 10.82 L 31.86 10.80 L 31.99 10.78 L 32.12 10.76 L 32.25 10.75 L 32.38 10.73 L 32.51 10.71 L 32.64 10.69 L 32.77 10.68 L 32.90 10.66 L 33.03 10.65 L 33.16 10.63 L 33.29 10.62 L 33.42 10.61 L 33.55 10.59 L 33.68 10.58 L 33.82 10.57 L 33.95 10.56 L 34.08 10.55 L 34.21 10.54 L 34.34 10.53 L 34.47 10.53 L 34.60 10.52 L 34.73 10.51 L 34.86 10.51 L 35.00 10.50 L 35.13 10.50 L 35.26 10.49 L 35.39 10.49 L 35.52 10.49 L 35.65 10.49 L 35.78 10.49 L 35.92 10.49 L 36.05 10.49 L 36.18 10.49 L 36.31 10.49 L 36.44 10.49 L 36.57 10.49 L 36.71 10.50 L 36.84 10.50 L 36.97 10.51 L 37.10 10.51 L 37.23 10.52 L 37.36 10.53 L 37.49 10.53 L 37.62 10.54 L 37.76 10.55 L 37.89 10.56 L 38.02 10.57" stroke="rgba(255,255,255,0.92)" stroke-width="1.0" fill="none"/>
  <path d="M 32.57 21.10 L 32.46 21.16 L 32.35 21.21 L 32.23 21.27 L 32.12 21.32 L 32.00 21.37 L 31.88 21.41 L 31.76 21.46 L 31.64 21.50 L 31.52 21.54 L 31.40 21.58 L 31.28 21.62 L 31.15 21.65 L 31.03 21.68 L 30.90 21.71 L 30.77 21.74 L 30.64 21.76 L 30.51 21.78 L 30.38 21.80 L 30.25 21.82 L 30.12 21.84 L 29.98 21.85 L 29.85 21.86 L 29.71 21.87 L 29.58 21.87 L 29.44 21.88 L 29.31 21.88 L 29.17 21.87 L 29.04 21.87 L 28.90 21.86 L 28.76 21.85 L 28.62 21.84 L 28.49 21.83 L 28.35 21.81 L 28.21 21.80 L 28.07 21.77 L 27.93 21.75 L 27.80 21.73 L 27.66 21.70 L 27.52 21.67 L 27.38 21.64 L 27.25 21.60 L 27.11 21.56 L 26.97 21.52 L 26.84 21.48 L 26.70 21.44 L 26.57 21.39 L 26.43 21.34 L 26.30 21.29" stroke="rgba(255,255,255,0.92)" stroke-width="1.0" fill="none"/>
  <path d="M 35.38 14.49 L 35.39 14.40 L 35.41 14.30 L 35.42 14.21 L 35.44 14.11 L 35.46 14.02 L 35.48 13.92 L 35.51 13.83 L 35.53 13.73 L 35.56 13.64 L 35.59 13.55 L 35.62 13.45 L 35.66 13.36 L 35.69 13.27 L 35.73 13.18 L 35.77 13.09 L 35.81 13.00 L 35.85 12.91 L 35.90 12.82 L 35.94 12.73 L 35.99 12.64 L 36.04 12.56 L 36.09 12.47 L 36.15 12.39 L 36.20 12.30 L 36.26 12.22 L 36.32 12.13 L 36.38 12.05 L 36.44 11.97 L 36.51 11.89 L 36.57 11.81 L 36.64 11.73 L 36.71 11.66 L 36.78 11.58 L 36.85 11.50 L 36.93 11.43 L 37.00 11.36 L 37.08 11.28 L 37.16 11.21 L 37.24 11.14 L 37.32 11.08 L 37.40 11.01 L 37.49 10.94 L 37.57 10.88 L 37.66 10.81 L 37.75 10.75 L 37.83 10.69 L 37.93 10.63 L 38.02 10.57" stroke="rgba(255,255,255,0.92)" stroke-width="1.0" fill="none"/>
  <path d="M 29.30 10.40 L 29.27 10.50 L 29.23 10.60 L 29.20 10.70 L 29.16 10.80 L 29.12 10.90 L 29.08 11.00 L 29.04 11.10 L 29.00 11.19 L 28.96 11.29 L 28.91 11.39 L 28.87 11.48 L 28.82 11.58 L 28.77 11.68 L 28.72 11.77 L 28.67 11.87 L 28.62 11.96 L 28.57 12.05 L 28.52 12.15 L 28.46 12.24 L 28.41 12.33 L 28.35 12.43 L 28.29 12.52 L 28.23 12.61 L 28.17 12.70 L 28.11 12.79 L 28.05 12.88 L 27.98 12.97 L 27.92 13.06 L 27.85 13.15 L 27.79 13.23 L 27.72 13.32 L 27.65 13.41 L 27.58 13.49 L 27.51 13.58 L 27.44 13.66 L 27.36 13.75 L 27.29 13.83 L 27.22 13.91 L 27.14 14.00 L 27.06 14.08 L 26.99 14.16 L 26.91 14.24 L 26.83 14.32 L 26.75 14.40 L 26.66 14.48 L 26.58 14.55 L 26.50 14.63 L 26.41 14.71" stroke="rgba(255,255,255,0.92)" stroke-width="1.0" fill="none"/>
  <path d="M 32.34 19.98 L 30.13 19.82 L 25.01 19.87 L 24.18 19.98" stroke="rgba(255,255,255,0.92)" stroke-width="1.0" fill="none"/>
  <path d="M 27.44 12.85 L 27.54 12.81 L 27.65 12.77 L 27.76 12.74 L 27.87 12.70 L 27.98 12.67 L 28.10 12.64 L 28.21 12.61 L 28.32 12.58 L 28.44 12.56 L 28.55 12.53 L 28.67 12.51 L 28.79 12.50 L 28.91 12.48 L 29.02 12.47 L 29.14 12.46 L 29.26 12.45 L 29.38 12.44 L 29.50 12.43 L 29.63 12.43 L 29.75 12.43 L 29.87 12.43 L 29.99 12.44 L 30.12 12.44 L 30.24 12.45 L 30.36 12.46 L 30.48 12.47 L 30.61 12.49 L 30.73 12.50 L 30.85 12.52 L 30.98 12.54 L 31.10 12.57 L 31.22 12.59 L 31.35 12.62 L 31.47 12.65 L 31.59 12.68 L 31.72 12.72 L 31.84 12.75 L 31.96 12.79 L 32.08 12.83 L 32.20 12.87 L 32.32 12.92 L 32.44 12.96 L 32.56 13.01 L 32.68 13.06 L 32.80 13.11 L 32.91 13.17 L 33.03 13.22 L 33.15 13.28" stroke="rgba(255,255,255,0.92)" stroke-width="1.0" fill="none"/>
  <path d="M 31.73 10.82 L 31.68 10.84 L 31.63 10.85 L 31.58 10.86 L 31.52 10.87 L 31.47 10.88 L 31.42 10.88 L 31.37 10.89 L 31.31 10.90 L 31.26 10.90 L 31.20 10.91 L 31.15 10.91 L 31.10 10.91 L 31.04 10.91 L 30.99 10.91 L 30.94 10.91 L 30.88 10.91 L 30.83 10.91 L 30.77 10.91 L 30.72 10.90 L 30.67 10.90 L 30.61 10.89 L 30.56 10.89 L 30.51 10.88 L 30.45 10.87 L 30.40 10.86 L 30.35 10.85 L 30.30 10.84 L 30.24 10.83 L 30.19 10.81 L 30.14 10.80 L 30.09 10.78 L 30.04 10.77 L 29.99 10.75 L 29.94 10.73 L 29.89 10.71 L 29.84 10.70 L 29.79 10.68 L 29.75 10.65 L 29.70 10.63 L 29.65 10.61 L 29.61 10.59 L 29.56 10.56 L 29.52 10.54 L 29.47 10.51 L 29.43 10.49 L 29.39 10.46 L 29.34 10.43 L 29.30 10.40" stroke="rgba(255,255,255,0.92)" stroke-width="1.0" fill="none"/>
  <path d="M 18.03 23.06 L 18.00 23.00 L 17.97 22.93 L 17.94 22.87 L 17.91 22.80 L 17.88 22.74 L 17.86 22.67 L 17.83 22.60 L 17.81 22.53 L 17.79 22.46 L 17.77 22.39 L 17.75 22.32 L 17.73 22.25 L 17.71 22.18 L 17.70 22.11 L 17.68 22.03 L 17.67 21.96 L 17.66 21.89 L 17.65 21.81 L 17.64 21.74 L 17.63 21.67 L 17.62 21.59 L 17.62 21.52 L 17.62 21.44 L 17.61 21.36 L 17.61 21.29 L 17.61 21.21 L 17.62 21.14 L 17.62 21.06 L 17.62 20.98 L 17.63 20.91 L 17.64 20.83 L 17.65 20.75 L 17.66 20.68 L 17.67 20.60 L 17.68 20.52 L 17.70 20.44 L 17.71 20.37 L 17.73 20.29 L 17.75 20.21 L 17.77 20.14 L 17.79 20.06 L 17.81 19.98 L 17.83 19.91 L 17.86 19.83 L 17.88 19.75 L 17.91 19.68 L 17.94 19.60 L 17.97 19.53" stroke="rgba(255,255,255,0.92)" stroke-width="1.0" fill="none"/>
  <path d="M 15.49 23.12 L 15.45 22.99 L 15.41 22.87 L 15.38 22.74 L 15.35 22.61 L 15.33 22.48 L 15.30 22.35 L 15.28 22.22 L 15.27 22.08 L 15.26 21.95 L 15.25 21.81 L 15.25 21.68 L 15.25 21.54 L 15.25 21.41 L 15.26 21.27 L 15.27 21.13 L 15.28 20.99 L 15.30 20.85 L 15.32 20.72 L 15.35 20.58 L 15.38 20.44 L 15.41 20.30 L 15.45 20.16 L 15.49 20.02 L 15.53 19.89 L 15.58 19.75 L 15.63 19.61 L 15.68 19.48 L 15.74 19.34 L 15.80 19.21 L 15.87 19.08 L 15.93 18.94 L 16.00 18.81 L 16.08 18.68 L 16.15 18.56 L 16.24 18.43 L 16.32 18.30 L 16.40 18.18 L 16.49 18.06 L 16.59 17.94 L 16.68 17.82 L 16.78 17.70 L 16.88 17.58 L 16.98 17.47 L 17.09 17.36 L 17.20 17.25 L 17.31 17.14 L 17.42 17.04 L 17.54 16.94" stroke="rgba(255,255,255,0.92)" stroke-width="1.0" fill="none"/>
  <path d="M 32.12 19.30 L 32.19 19.37 L 32.26 19.44 L 32.33 19.51 L 32.39 19.58 L 32.46 19.65 L 32.52 19.72 L 32.59 19.80 L 32.65 19.87 L 32.72 19.95 L 32.78 20.02 L 32.84 20.10 L 32.90 20.18 L 32.96 20.26 L 33.02 20.34 L 33.07 20.42 L 33.13 20.50 L 33.18 20.58 L 33.24 20.66 L 33.29 20.74 L 33.34 20.83 L 33.39 20.91 L 33.44 20.99 L 33.49 21.08 L 33.54 21.16 L 33.59 21.25 L 33.63 21.34 L 33.68 21.42 L 33.72 21.51 L 33.77 21.60 L 33.81 21.69 L 33.85 21.78 L 33.89 21.87 L 33.93 21.96 L 33.96 22.05 L 34.00 22.14 L 34.04 22.23 L 34.07 22.32 L 34.10 22.42 L 34.13 22.51 L 34.16 22.60 L 34.19 22.70 L 34.22 22.79 L 34.25 22.88 L 34.28 22.98 L 34.30 23.07 L 34.32 23.17 L 34.35 23.26 L 34.37 23.36" stroke="rgba(255,255,255,0.92)" stroke-width="1.0" fill="none"/>
  <path d="M -1.76 18.63 L -1.67 18.53 L -1.58 18.44 L -1.49 18.35 L -1.40 18.25 L -1.30 18.16 L -1.21 18.07 L -1.12 17.98 L -1.02 17.89 L -0.93 17.80 L -0.83 17.71 L -0.74 17.62 L -0.64 17.53 L -0.54 17.44 L -0.45 17.35 L -0.35 17.26 L -0.25 17.18 L -0.15 17.09 L -0.05 17.00 L 0.05 16.92 L 0.15 16.83 L 0.25 16.75 L 0.35 16.66 L 0.45 16.58 L 0.55 16.50 L 0.65 16.41 L 0.76 16.33 L 0.86 16.25 L 0.96 16.17 L 1.07 16.09 L 1.17 16.01 L 1.27 15.93 L 1.38 15.85 L 1.49 15.77 L 1.59 15.69 L 1.70 15.61 L 1.80 15.54 L 1.91 15.46 L 2.02 15.38 L 2.13 15.31 L 2.23 15.23 L 2.34 15.16 L 2.45 15.09 L 2.56 15.01 L 2.67 14.94 L 2.78 14.87 L 2.89 14.80 L 3.00 14.73 L 3.11 14.65" stroke="rgba(255,255,255,0.92)" stroke-width="1.0" fill="none"/>
  <path d="M 0.34 32.87 L 65.05 32.87" stroke="rgba(255,255,255,0.92)" stroke-width="1.0" fill="none"/>
  <path d="M 40.78 30.17 L 65.05 30.17" stroke="rgba(255,255,255,0.92)" stroke-width="1.0" fill="none"/>
  <path d="M 8.43 24.78 L 40.78 24.78" stroke="rgba(255,255,255,0.92)" stroke-width="1.0" fill="none"/>
  <path d="M 41.59 22.09 L 57.23 22.09" stroke="rgba(255,255,255,0.92)" stroke-width="1.0" fill="none"/>
  <path d="M 57.23 20.47 A 0.81 0.81 0 0 1 57.88 20.79" stroke="rgba(255,255,255,0.92)" stroke-width="1.0" fill="none"/>
  <path d="M 41.59 20.74 L 56.56 20.74" stroke="rgba(255,255,255,0.92)" stroke-width="1.0" fill="none"/>
  <path d="M 56.56 19.12 A 0.81 0.81 0 0 1 57.20 19.44" stroke="rgba(255,255,255,0.92)" stroke-width="1.0" fill="none"/>
  <path d="M 61.41 15.34 L 65.05 15.34" stroke="rgba(255,255,255,0.92)" stroke-width="1.0" fill="none"/>
  <path d="M 62.08 16.69 L 65.05 16.69" stroke="rgba(255,255,255,0.92)" stroke-width="1.0" fill="none"/>
  <path d="M 0.34 30.17 L 8.43 30.17" stroke="rgba(255,255,255,0.92)" stroke-width="1.0" fill="none"/>
  <path d="M 0.34 20.74 L 8.43 20.74" stroke="rgba(255,255,255,0.92)" stroke-width="1.0" fill="none"/>
  <path d="M 9.51 12.65 L 10.22 12.65" stroke="rgba(255,255,255,0.92)" stroke-width="1.0" fill="none"/>
  <path d="M 19.02 12.65 L 39.71 12.65" stroke="rgba(255,255,255,0.92)" stroke-width="1.0" fill="none"/>
  <path d="M 8.43 17.39 L 11.84 17.40" stroke="rgba(255,255,255,0.92)" stroke-width="1.0" fill="none"/>
  <path d="M 22.85 17.43 L 42.45 17.48" stroke="rgba(255,255,255,0.92)" stroke-width="1.0" fill="none"/>
  <path d="M 58.20 17.52 L 59.37 17.52" stroke="rgba(255,255,255,0.92)" stroke-width="1.0" fill="none"/>
  <path d="M 9.51 14.81 A 1.08 1.08 0 0 1 8.43 13.73" stroke="rgba(255,255,255,0.92)" stroke-width="1.0" fill="none"/>
  <path d="M 8.43 11.57 A 1.08 1.08 0 0 1 9.51 10.49" stroke="rgba(255,255,255,0.92)" stroke-width="1.0" fill="none"/>
  <path d="M 39.71 10.49 A 1.08 1.08 0 0 1 40.78 11.57" stroke="rgba(255,255,255,0.92)" stroke-width="1.0" fill="none"/>
  <path d="M 65.05 32.87 L 65.05 22.89" stroke="rgba(255,255,255,0.92)" stroke-width="1.0" fill="none"/>
  <path d="M 40.78 32.87 L 40.78 22.89" stroke="rgba(255,255,255,0.92)" stroke-width="1.0" fill="none"/>
  <path d="M 40.78 22.89 A 0.81 0.81 0 0 1 39.98 23.70" stroke="rgba(255,255,255,0.92)" stroke-width="1.0" fill="none"/>
  <path d="M 41.59 23.70 A 0.81 0.81 0 0 1 40.78 22.89" stroke="rgba(255,255,255,0.92)" stroke-width="1.0" fill="none"/>
  <path d="M 0.34 16.42 L 0.34 32.87" stroke="rgba(255,255,255,0.92)" stroke-width="1.0" fill="none"/>
  <path d="M 1.42 17.50 A 1.08 1.08 0 0 1 0.34 16.42" stroke="rgba(255,255,255,0.92)" stroke-width="1.0" fill="none"/>
  <path d="M 8.43 22.89 L 8.43 32.87" stroke="rgba(255,255,255,0.92)" stroke-width="1.0" fill="none"/>
  <path d="M 9.24 23.70 A 0.81 0.81 0 0 1 8.43 22.89" stroke="rgba(255,255,255,0.92)" stroke-width="1.0" fill="none"/>
  <path d="M 8.43 16.42 A 1.08 1.08 0 0 1 7.35 17.50" stroke="rgba(255,255,255,0.92)" stroke-width="1.0" fill="none"/>
  <path d="M 9.51 10.76 A 1.08 1.08 0 0 1 8.43 9.68" stroke="rgba(255,255,255,0.92)" stroke-width="1.0" fill="none"/>
  <path d="M 40.78 9.68 L 40.78 11.57" stroke="rgba(255,255,255,0.92)" stroke-width="1.0" fill="none"/>
  <path d="M 40.78 9.68 A 1.08 1.08 0 0 1 39.71 10.76" stroke="rgba(255,255,255,0.92)" stroke-width="1.0" fill="none"/>
  <path d="M 60.06 10.05 L 60.06 11.20 L 67.14 11.20 L 67.14 10.05 Z" stroke="rgba(255,255,255,0.92)" stroke-width="1.0" fill="none"/>
  <path d="M 67.02 9.94 L 66.96 6.76 L 65.91 6.28 L 63.23 8.62" stroke="rgba(255,255,255,0.92)" stroke-width="1.0" fill="none"/>
  <path d="M 63.60 8.60 L 63.24 8.60" stroke="rgba(255,255,255,0.92)" stroke-width="1.0" fill="none"/>
  <path d="M 39.71 8.60 L 9.51 8.60" stroke="rgba(255,255,255,0.92)" stroke-width="1.0" fill="none"/>
  <path d="M 0.34 19.42 L 8.43 19.42" stroke="rgba(255,255,255,0.92)" stroke-width="1.0" fill="none"/>
  <path d="M 1.42 15.34 L 7.35 15.34" stroke="rgba(255,255,255,0.92)" stroke-width="1.0" fill="none"/>
  <path d="M 8.43 9.68 L 8.43 11.57" stroke="rgba(255,255,255,0.92)" stroke-width="1.0" fill="none"/>
  <path d="M 8.43 13.73 L 8.43 16.42" stroke="rgba(255,255,255,0.92)" stroke-width="1.0" fill="none"/>
  <path d="M 39.71 12.65 L 63.97 12.65" stroke="rgba(255,255,255,0.92)" stroke-width="1.0" fill="none"/>
  <path d="M 9.24 22.09 L 39.98 22.09" stroke="rgba(255,255,255,0.92)" stroke-width="1.0" fill="none"/>
  <path d="M 8.43 22.89 L 8.43 20.74" stroke="rgba(255,255,255,0.92)" stroke-width="1.0" fill="none"/>
  <path d="M 8.43 20.74 L 8.43 19.42" stroke="rgba(255,255,255,0.92)" stroke-width="1.0" fill="none"/>
  <path d="M 8.43 19.42 L 8.43 16.42" stroke="rgba(255,255,255,0.92)" stroke-width="1.0" fill="none"/>
  <path d="M 65.05 22.89 L 65.05 13.73" stroke="rgba(255,255,255,0.92)" stroke-width="1.0" fill="none"/>
  <path d="M 65.05 13.73 A 1.08 1.08 0 0 1 63.97 14.81" stroke="rgba(255,255,255,0.92)" stroke-width="1.0" fill="none"/>
  <path d="M 60.76 15.67 L 57.20 20.41" stroke="rgba(255,255,255,0.92)" stroke-width="1.0" fill="none"/>
  <path d="M 61.41 16.96 A 0.81 0.81 0 0 1 60.76 16.64" stroke="rgba(255,255,255,0.92)" stroke-width="1.0" fill="none"/>
  <path d="M 61.44 17.02 L 57.88 21.76" stroke="rgba(255,255,255,0.92)" stroke-width="1.0" fill="none"/>
  <path d="M 62.08 18.31 A 0.81 0.81 0 0 1 61.44 17.99" stroke="rgba(255,255,255,0.92)" stroke-width="1.0" fill="none"/>
  <path d="M 41.59 22.09 A 0.98 0.98 0 0 1 41.59 20.74" stroke="rgba(255,255,255,0.92)" stroke-width="1.0" fill="none"/>
  <path d="M 13.82 20.75 L 13.82 22.09" stroke="rgba(255,255,255,0.92)" stroke-width="1.0" fill="none"/>
  <path d="M 19.21 12.65 L 19.21 12.99" stroke="rgba(255,255,255,0.92)" stroke-width="1.0" fill="none"/>
  <path d="M 19.21 22.01 L 19.21 22.09" stroke="rgba(255,255,255,0.92)" stroke-width="1.0" fill="none"/>
  <path d="M 24.61 12.65 L 24.61 22.09" stroke="rgba(255,255,255,0.92)" stroke-width="1.0" fill="none"/>
  <path d="M 30.00 12.65 L 30.00 22.09" stroke="rgba(255,255,255,0.92)" stroke-width="1.0" fill="none"/>
  <path d="M 35.39 12.65 L 35.39 22.09" stroke="rgba(255,255,255,0.92)" stroke-width="1.0" fill="none"/>
  <path d="M 40.78 12.65 L 40.78 22.13" stroke="rgba(255,255,255,0.92)" stroke-width="1.0" fill="none"/>
  <path d="M 46.18 12.65 L 46.18 13.91" stroke="rgba(255,255,255,0.92)" stroke-width="1.0" fill="none"/>
  <path d="M 46.18 20.14 L 46.18 20.74" stroke="rgba(255,255,255,0.92)" stroke-width="1.0" fill="none"/>
  <path d="M 46.18 22.09 L 46.18 22.13" stroke="rgba(255,255,255,0.92)" stroke-width="1.0" fill="none"/>
  <path d="M 51.57 20.50 L 51.57 20.74" stroke="rgba(255,255,255,0.92)" stroke-width="1.0" fill="none"/>
  <path d="M 51.57 22.09 L 51.57 22.13" stroke="rgba(255,255,255,0.92)" stroke-width="1.0" fill="none"/>
  <path d="M 56.96 12.65 L 56.96 20.63" stroke="rgba(255,255,255,0.92)" stroke-width="1.0" fill="none"/>
  <path d="M 56.96 22.09 L 56.96 22.13" stroke="rgba(255,255,255,0.92)" stroke-width="1.0" fill="none"/>
  <path d="M 1.28 32.87 L 1.28 33.68 L 3.98 33.68 L 3.98 32.87" stroke="rgba(255,255,255,0.92)" stroke-width="1.0" fill="none"/>
  <path d="M 41.73 32.87 L 41.73 33.68 L 44.43 33.68 L 44.43 32.87" stroke="rgba(255,255,255,0.92)" stroke-width="1.0" fill="none"/>
  <path d="M 61.14 32.87 L 61.14 33.68 L 63.84 33.68 L 63.84 32.87" stroke="rgba(255,255,255,0.92)" stroke-width="1.0" fill="none"/>
  <path d="M 0.04 1.35 L 0.04 63.36" stroke="rgba(255,255,255,0.92)" stroke-width="1.0" fill="none"/>
  <path d="M 0.04 63.36 L 0.04 1.35" stroke="rgba(255,255,255,0.92)" stroke-width="1.0" fill="none"/>
  <path d="M 22.97 64.71 L 23.47 64.61" stroke="rgba(255,255,255,0.92)" stroke-width="1.0" fill="none"/>
  <path d="M 23.47 64.61 L 23.91 64.31" stroke="rgba(255,255,255,0.92)" stroke-width="1.0" fill="none"/>
  <path d="M 23.91 64.31 L 24.14 64.02" stroke="rgba(255,255,255,0.92)" stroke-width="1.0" fill="none"/>
  <path d="M 24.14 64.02 L 24.31 63.36" stroke="rgba(255,255,255,0.92)" stroke-width="1.0" fill="none"/>
  <path d="M 24.31 63.36 L 24.31 25.61" stroke="rgba(255,255,255,0.92)" stroke-width="1.0" fill="none"/>
  <path d="M 24.31 25.61 L 24.41 25.09" stroke="rgba(255,255,255,0.92)" stroke-width="1.0" fill="none"/>
  <path d="M 24.41 25.09 L 24.70 24.66" stroke="rgba(255,255,255,0.92)" stroke-width="1.0" fill="none"/>
  <path d="M 24.70 24.66 L 25.12 24.38" stroke="rgba(255,255,255,0.92)" stroke-width="1.0" fill="none"/>
  <path d="M 25.12 24.38 L 25.66 24.27" stroke="rgba(255,255,255,0.92)" stroke-width="1.0" fill="none"/>
  <path d="M 25.66 24.27 L 74.19 24.27" stroke="rgba(255,255,255,0.92)" stroke-width="1.0" fill="none"/>
  <path d="M 74.19 24.27 L 73.69 24.36" stroke="rgba(255,255,255,0.92)" stroke-width="1.0" fill="none"/>
  <path d="M 73.69 24.36 L 73.23 24.66" stroke="rgba(255,255,255,0.92)" stroke-width="1.0" fill="none"/>
  <path d="M 73.23 24.66 L 72.94 25.11" stroke="rgba(255,255,255,0.92)" stroke-width="1.0" fill="none"/>
  <path d="M 72.94 25.11 L 72.84 25.61" stroke="rgba(255,255,255,0.92)" stroke-width="1.0" fill="none"/>
  <path d="M 72.84 25.61 L 72.84 47.18" stroke="rgba(255,255,255,0.92)" stroke-width="1.0" fill="none"/>
  <path d="M 72.84 47.18 L 72.91 47.63" stroke="rgba(255,255,255,0.92)" stroke-width="1.0" fill="none"/>
  <path d="M 72.91 47.63 L 73.23 48.14" stroke="rgba(255,255,255,0.92)" stroke-width="1.0" fill="none"/>
  <path d="M 73.23 48.14 L 73.73 48.45" stroke="rgba(255,255,255,0.92)" stroke-width="1.0" fill="none"/>
  <path d="M 73.73 48.45 L 74.19 48.53" stroke="rgba(255,255,255,0.92)" stroke-width="1.0" fill="none"/>
  <path d="M 74.19 48.53 L 95.76 48.53" stroke="rgba(255,255,255,0.92)" stroke-width="1.0" fill="none"/>
  <path d="M 95.76 48.53 L 96.31 48.41" stroke="rgba(255,255,255,0.92)" stroke-width="1.0" fill="none"/>
  <path d="M 96.31 48.41 L 96.75 48.09" stroke="rgba(255,255,255,0.92)" stroke-width="1.0" fill="none"/>
  <path d="M 96.75 48.09 L 96.99 47.73" stroke="rgba(255,255,255,0.92)" stroke-width="1.0" fill="none"/>
  <path d="M 96.99 47.73 L 97.10 47.18" stroke="rgba(255,255,255,0.92)" stroke-width="1.0" fill="none"/>
  <path d="M 97.10 47.18 L 97.10 25.61" stroke="rgba(255,255,255,0.92)" stroke-width="1.0" fill="none"/>
  <path d="M 97.10 25.61 L 97.03 25.17" stroke="rgba(255,255,255,0.92)" stroke-width="1.0" fill="none"/>
  <path d="M 97.03 25.17 L 96.71 24.66" stroke="rgba(255,255,255,0.92)" stroke-width="1.0" fill="none"/>
  <path d="M 96.71 24.66 L 96.33 24.39" stroke="rgba(255,255,255,0.92)" stroke-width="1.0" fill="none"/>
  <path d="M 96.33 24.39 L 95.76 24.27" stroke="rgba(255,255,255,0.92)" stroke-width="1.0" fill="none"/>
  <path d="M 97.10 22.92 L 97.10 1.35" stroke="rgba(255,255,255,0.92)" stroke-width="1.0" fill="none"/>
  <path d="M 97.10 1.35 L 97.02 0.88" stroke="rgba(255,255,255,0.92)" stroke-width="1.0" fill="none"/>
  <path d="M 97.02 0.88 L 96.83 0.54" stroke="rgba(255,255,255,0.92)" stroke-width="1.0" fill="none"/>
  <path d="M 96.83 0.54 L 96.71 0.39" stroke="rgba(255,255,255,0.92)" stroke-width="1.0" fill="none"/>
  <path d="M 96.71 0.39 L 96.41 0.17" stroke="rgba(255,255,255,0.92)" stroke-width="1.0" fill="none"/>
  <path d="M 96.41 0.17 L 96.06 0.03" stroke="rgba(255,255,255,0.92)" stroke-width="1.0" fill="none"/>
  <path d="M 96.06 0.03 L 95.76 0.00" stroke="rgba(255,255,255,0.92)" stroke-width="1.0" fill="none"/>
  <path d="M 95.76 0.00 L 90.36 0.00" stroke="rgba(255,255,255,0.92)" stroke-width="1.0" fill="none"/>
  <path d="M 89.02 1.35 L 88.91 0.82" stroke="rgba(255,255,255,0.92)" stroke-width="1.0" fill="none"/>
  <path d="M 88.91 0.82 L 88.81 0.63" stroke="rgba(255,255,255,0.92)" stroke-width="1.0" fill="none"/>
  <path d="M 88.81 0.63 L 88.62 0.39" stroke="rgba(255,255,255,0.92)" stroke-width="1.0" fill="none"/>
  <path d="M 88.62 0.39 L 88.35 0.19" stroke="rgba(255,255,255,0.92)" stroke-width="1.0" fill="none"/>
  <path d="M 88.35 0.19 L 88.15 0.09" stroke="rgba(255,255,255,0.92)" stroke-width="1.0" fill="none"/>
  <path d="M 88.15 0.09 L 87.68 0.00" stroke="rgba(255,255,255,0.92)" stroke-width="1.0" fill="none"/>
  <path d="M 87.68 0.00 L 1.39 0.00" stroke="rgba(255,255,255,0.92)" stroke-width="1.0" fill="none"/>
  <path d="M 1.39 0.00 L 0.91 0.09" stroke="rgba(255,255,255,0.92)" stroke-width="1.0" fill="none"/>
  <path d="M 0.91 0.09 L 0.44 0.39" stroke="rgba(255,255,255,0.92)" stroke-width="1.0" fill="none"/>
  <path d="M 0.44 0.39 L 0.15 0.81" stroke="rgba(255,255,255,0.92)" stroke-width="1.0" fill="none"/>
  <path d="M 0.15 0.81 L 0.04 1.35" stroke="rgba(255,255,255,0.92)" stroke-width="1.0" fill="none"/>
  <path d="M 0.04 63.36 L 0.16 63.91" stroke="rgba(255,255,255,0.92)" stroke-width="1.0" fill="none"/>
  <path d="M 0.16 63.91 L 0.44 64.31" stroke="rgba(255,255,255,0.92)" stroke-width="1.0" fill="none"/>
  <path d="M 0.44 64.31 L 0.88 64.61" stroke="rgba(255,255,255,0.92)" stroke-width="1.0" fill="none"/>
  <path d="M 0.88 64.61 L 1.39 64.71" stroke="rgba(255,255,255,0.92)" stroke-width="1.0" fill="none"/>
  <path d="M 1.39 64.71 L 10.18 64.71" stroke="rgba(255,255,255,0.92)" stroke-width="1.0" fill="none"/>
  <path d="M 10.18 64.71 L 20.03 64.71" stroke="rgba(255,255,255,0.92)" stroke-width="1.0" fill="none"/>
  <path d="M 20.03 64.71 L 22.97 64.71" stroke="rgba(255,255,255,0.92)" stroke-width="1.0" fill="none"/>
  <path d="M 3.55 64.71 L 3.55 4.85" stroke="rgba(255,255,255,0.92)" stroke-width="1.0" fill="none"/>
  <path d="M 10.18 64.71 L 10.18 56.62" stroke="rgba(255,255,255,0.92)" stroke-width="1.0" fill="none"/>
  <path d="M 24.31 63.36 L 24.31 57.97" stroke="rgba(255,255,255,0.92)" stroke-width="1.0" fill="none"/>
  <path d="M 24.31 57.97 A 1.35 1.35 0 0 1 22.96 59.32" stroke="rgba(255,255,255,0.92)" stroke-width="1.0" fill="none"/>
  <path d="M 24.31 25.61 A 1.35 1.35 0 0 1 22.96 26.96" stroke="rgba(255,255,255,0.92)" stroke-width="1.0" fill="none"/>
  <path d="M 90.36 0.00 L 95.76 0.00" stroke="rgba(255,255,255,0.92)" stroke-width="1.0" fill="none"/>
  <path d="M 90.36 2.70 A 1.35 1.35 0 0 1 89.02 1.35" stroke="rgba(255,255,255,0.92)" stroke-width="1.0" fill="none"/>
  <path d="M 4.89 3.51 L 97.10 3.51" stroke="rgba(255,255,255,0.92)" stroke-width="1.0" fill="none"/>
  <path d="M 89.02 10.25 L 97.10 10.25" stroke="rgba(255,255,255,0.92)" stroke-width="1.0" fill="none"/>
  <path d="M 4.89 6.20 A 1.35 1.35 0 0 1 3.55 4.85" stroke="rgba(255,255,255,0.92)" stroke-width="1.0" fill="none"/>
  <path d="M 25.66 24.27 L 95.76 24.27" stroke="rgba(255,255,255,0.92)" stroke-width="1.0" fill="none"/>
  <path d="M 25.66 26.96 A 1.35 1.35 0 0 1 24.31 25.61" stroke="rgba(255,255,255,0.92)" stroke-width="1.0" fill="none"/>
  <path d="M 97.10 1.35 L 97.10 22.92" stroke="rgba(255,255,255,0.92)" stroke-width="1.0" fill="none"/>
  <path d="M 95.76 21.57 A 1.35 1.35 0 0 1 97.10 22.92" stroke="rgba(255,255,255,0.92)" stroke-width="1.0" fill="none"/>
  <path d="M 97.10 25.61 L 97.10 47.18" stroke="rgba(255,255,255,0.92)" stroke-width="1.0" fill="none"/>
  <path d="M 89.02 1.35 L 89.02 24.27" stroke="rgba(255,255,255,0.92)" stroke-width="1.0" fill="none"/>
  <path d="M 56.66 3.51 L 56.66 24.27" stroke="rgba(255,255,255,0.92)" stroke-width="1.0" fill="none"/>
  <path d="M 40.48 3.51 L 40.48 24.27" stroke="rgba(255,255,255,0.92)" stroke-width="1.0" fill="none"/>
  <path d="M 24.31 3.51 L 24.31 57.97" stroke="rgba(255,255,255,0.92)" stroke-width="1.0" fill="none"/>
  <path d="M 72.84 25.61 L 72.84 47.18" stroke="rgba(255,255,255,0.92)" stroke-width="1.0" fill="none"/>
  <path d="M 1.39 64.71 L 22.96 64.71" stroke="rgba(255,255,255,0.92)" stroke-width="1.0" fill="none"/>
  <path d="M 0.04 56.62 L 22.96 56.62" stroke="rgba(255,255,255,0.92)" stroke-width="1.0" fill="none"/>
  <path d="M 3.55 24.27 L 22.96 24.27" stroke="rgba(255,255,255,0.92)" stroke-width="1.0" fill="none"/>
  <path d="M 74.19 48.53 L 95.76 48.53" stroke="rgba(255,255,255,0.92)" stroke-width="1.0" fill="none"/>
  <path d="M 95.76 24.27 L 74.19 24.27" stroke="rgba(255,255,255,0.92)" stroke-width="1.0" fill="none"/>
  <path d="M 74.19 26.96 A 1.35 1.35 0 0 1 72.84 25.61" stroke="rgba(255,255,255,0.92)" stroke-width="1.0" fill="none"/>
  <path d="M 3.55 24.27 L 0.04 24.27" stroke="rgba(255,255,255,0.92)" stroke-width="1.0" fill="none"/>
  <path d="M 0.04 24.27 L 0.04 56.62" stroke="rgba(255,255,255,0.92)" stroke-width="1.0" fill="none"/>
  <path d="M 0.31 24.27 L 0.31 56.62" stroke="rgba(255,255,255,0.92)" stroke-width="1.0" fill="none"/>
  <path d="M 0.85 24.27 L 0.85 56.62" stroke="rgba(255,255,255,0.92)" stroke-width="1.0" fill="none"/>
  <path d="M 1.66 24.27 L 1.66 56.62" stroke="rgba(255,255,255,0.92)" stroke-width="1.0" fill="none"/>
  <path d="M 0.04 56.62 L 3.55 56.62" stroke="rgba(255,255,255,0.92)" stroke-width="1.0" fill="none"/>
  <path d="M 3.55 56.62 L 3.55 24.27" stroke="rgba(255,255,255,0.92)" stroke-width="1.0" fill="none"/>
  <path d="M 3.28 56.62 L 3.28 24.27" stroke="rgba(255,255,255,0.92)" stroke-width="1.0" fill="none"/>
  <path d="M 2.74 56.62 L 2.74 24.27" stroke="rgba(255,255,255,0.92)" stroke-width="1.0" fill="none"/>
  <path d="M 56.66 3.51 L 56.66 0.00" stroke="rgba(255,255,255,0.92)" stroke-width="1.0" fill="none"/>
  <path d="M 56.66 0.00 L 24.31 0.00" stroke="rgba(255,255,255,0.92)" stroke-width="1.0" fill="none"/>
  <path d="M 56.66 0.27 L 24.31 0.27" stroke="rgba(255,255,255,0.92)" stroke-width="1.0" fill="none"/>
  <path d="M 56.66 0.81 L 24.31 0.81" stroke="rgba(255,255,255,0.92)" stroke-width="1.0" fill="none"/>
  <path d="M 56.66 1.62 L 24.31 1.62" stroke="rgba(255,255,255,0.92)" stroke-width="1.0" fill="none"/>
  <path d="M 24.31 0.00 L 24.31 3.51" stroke="rgba(255,255,255,0.92)" stroke-width="1.0" fill="none"/>
  <path d="M 24.31 3.51 L 56.66 3.51" stroke="rgba(255,255,255,0.92)" stroke-width="1.0" fill="none"/>
  <path d="M 24.31 3.24 L 56.66 3.24" stroke="rgba(255,255,255,0.92)" stroke-width="1.0" fill="none"/>
  <path d="M 24.31 2.70 L 56.66 2.70" stroke="rgba(255,255,255,0.92)" stroke-width="1.0" fill="none"/>
  <path d="M 1.39 0.00 L 87.67 0.00" stroke="rgba(255,255,255,0.92)" stroke-width="1.0" fill="none"/>
  <path d="M 89.02 24.27 L 89.02 1.35" stroke="rgba(255,255,255,0.92)" stroke-width="1.0" fill="none"/>
  <path d="M 40.39 19.73 A 9.34 9.34 0 0 1 32.55 17.16" stroke="rgba(255,255,255,0.92)" stroke-width="1.0" fill="none"/>
  <path d="M 40.64 17.61 A 7.28 7.28 0 0 1 33.93 17.88" stroke="rgba(255,255,255,0.92)" stroke-width="1.0" fill="none"/>
  <path d="M 27.36 4.05 A 9.57 9.57 0 0 1 31.23 -3.65" stroke="rgba(255,255,255,0.92)" stroke-width="1.0" fill="none"/>
  <path d="M 33.95 6.73 A 9.57 9.57 0 0 1 36.99 -1.34" stroke="rgba(255,255,255,0.92)" stroke-width="1.0" fill="none"/>
  <path d="M 36.99 -4.51 A 9.74 9.74 0 0 1 47.34 -3.66" stroke="rgba(255,255,255,0.92)" stroke-width="1.0" fill="none"/>
  <path d="M 47.28 3.49 A 12.13 12.13 0 0 1 47.20 12.16" stroke="rgba(255,255,255,0.92)" stroke-width="1.0" fill="none"/>
  <path d="M 41.35 9.94 A 12.13 12.13 0 0 1 40.39 12.42" stroke="rgba(255,255,255,0.92)" stroke-width="1.0" fill="none"/>
  <path d="M 47.20 21.41 A 9.34 9.34 0 0 1 39.13 19.67" stroke="rgba(255,255,255,0.92)" stroke-width="1.0" fill="none"/>
  <path d="M 31.23 -6.40 A 9.74 9.74 0 0 1 36.48 -6.93" stroke="rgba(255,255,255,0.92)" stroke-width="1.0" fill="none"/>
  <path d="M 34.04 16.92 A 7.28 7.28 0 0 1 27.34 16.49" stroke="rgba(255,255,255,0.92)" stroke-width="1.0" fill="none"/>
  <path d="M 56.66 3.24 L 56.66 3.24 L 89.02 3.51 L 89.02 3.51" stroke="rgba(255,255,255,0.92)" stroke-width="1.0" fill="none"/>
  <path d="M 56.66 3.51 L 89.02 3.51" stroke="rgba(255,255,255,0.92)" stroke-width="1.0" fill="none"/>
  <path d="M 72.84 3.51 L 72.84 24.27" stroke="rgba(255,255,255,0.92)" stroke-width="1.0" fill="none"/>
  <path d="M 24.31 3.51 L 24.31 3.51 L 56.66 3.51 L 56.66 3.51" stroke="rgba(255,255,255,0.92)" stroke-width="1.0" fill="none"/>
  <path d="M 4.89 3.51 L 4.89 3.51 L 24.31 3.51 L 24.31 3.51" stroke="rgba(255,255,255,0.92)" stroke-width="1.0" fill="none"/>
  <path d="M 1.52 38.88 A 9.34 9.34 0 0 1 5.35 31.58" stroke="rgba(255,255,255,0.92)" stroke-width="1.0" fill="none"/>
  <path d="M 5.17 43.54 A 7.28 7.28 0 0 1 6.00 36.88" stroke="rgba(255,255,255,0.92)" stroke-width="1.0" fill="none"/>
  <path d="M 6.41 32.86 A 9.57 9.57 0 0 1 13.38 37.95" stroke="rgba(255,255,255,0.92)" stroke-width="1.0" fill="none"/>
  <path d="M 5.99 26.03 A 9.57 9.57 0 0 1 13.45 30.36" stroke="rgba(255,255,255,0.92)" stroke-width="1.0" fill="none"/>
  <path d="M 13.45 34.78 A 9.74 9.74 0 0 1 10.90 44.85" stroke="rgba(255,255,255,0.92)" stroke-width="1.0" fill="none"/>
  <path d="M 10.96 54.62 A 12.13 12.13 0 0 1 2.42 53.12" stroke="rgba(255,255,255,0.92)" stroke-width="1.0" fill="none"/>
  <path d="M 3.81 60.11 A 12.13 12.13 0 0 1 1.52 58.75" stroke="rgba(255,255,255,0.92)" stroke-width="1.0" fill="none"/>
  <path d="M 2.42 33.79 A 9.34 9.34 0 0 1 5.47 26.12" stroke="rgba(255,255,255,0.92)" stroke-width="1.0" fill="none"/>
  <path d="M 13.38 42.60 A 9.74 9.74 0 0 1 13.03 47.87" stroke="rgba(255,255,255,0.92)" stroke-width="1.0" fill="none"/>
  <path d="M 4.90 48.82 A 7.28 7.28 0 0 1 6.42 42.29" stroke="rgba(255,255,255,0.92)" stroke-width="1.0" fill="none"/>
  <path d="M 13.44 24.73 A 9.34 9.34 0 0 1 5.92 21.33" stroke="rgba(255,255,255,0.92)" stroke-width="1.0" fill="none"/>
  <path d="M 13.03 21.55 A 7.28 7.28 0 0 1 8.27 16.82" stroke="rgba(255,255,255,0.92)" stroke-width="1.0" fill="none"/>
  <path d="M 19.76 7.37 A 9.57 9.57 0 0 1 17.41 15.66" stroke="rgba(255,255,255,0.92)" stroke-width="1.0" fill="none"/>
  <path d="M 16.21 14.01 A 9.57 9.57 0 0 1 13.01 22.01" stroke="rgba(255,255,255,0.92)" stroke-width="1.0" fill="none"/>
  <path d="M 8.01 2.64 A 9.74 9.74 0 0 1 16.21 9.00" stroke="rgba(255,255,255,0.92)" stroke-width="1.0" fill="none"/>
  <path d="M 2.29 6.86 A 12.13 12.13 0 0 1 8.09 0.41" stroke="rgba(255,255,255,0.92)" stroke-width="1.0" fill="none"/>
  <path d="M 5.92 3.16 A 12.13 12.13 0 0 1 6.89 0.68" stroke="rgba(255,255,255,0.92)" stroke-width="1.0" fill="none"/>
  <path d="M 9.41 30.04 A 9.34 9.34 0 0 1 2.29 25.87" stroke="rgba(255,255,255,0.92)" stroke-width="1.0" fill="none"/>
  <path d="M 16.25 -1.47 A 9.74 9.74 0 0 1 19.76 2.47" stroke="rgba(255,255,255,0.92)" stroke-width="1.0" fill="none"/>
  <path d="M 17.43 16.98 A 7.28 7.28 0 0 1 12.20 12.77" stroke="rgba(255,255,255,0.92)" stroke-width="1.0" fill="none"/>
</svg>
