<svg xmlns="http://www.w3.org/2000/svg" viewBox="0 0 100.00 42.14" data-cad-width="1758.5" data-cad-height="741.0">
  <path d="M 64.63 4.84 L 30.95 4.84" stroke="rgba(255,255,255,0.92)" stroke-width="1.0" fill="none"/>
  <path d="M 61.02 41.23 L 34.55 41.23" stroke="rgba(255,255,255,0.92)" stroke-width="1.0" fill="none"/>
  <path d="M 58.16 38.39 L 37.41 38.39" stroke="rgba(255,255,255,0.92)" stroke-width="1.0" fill="none"/>
  <path d="M 25.28 -1.29 A 79.54 79.54 0 0 1 33.54 -30.93" stroke="rgba(255,255,255,0.92)" stroke-width="1.0" fill="none"/>
  <path d="M 28.42 -4.25 A 76.70 76.70 0 0 1 34.83 -27.05" stroke="rgba(255,255,255,0.92)" stroke-width="1.0" fill="none"/>
  <path d="M 31.25 16.43 A 2.84 2.84 0 0 1 28.42 13.25" stroke="rgba(255,255,255,0.92)" stroke-width="1.0" fill="none"/>
  <path d="M 34.83 34.36 A 2.84 2.84 0 0 1 37.41 32.70" stroke="rgba(255,255,255,0.92)" stroke-width="1.0" fill="none"/>
  <path d="M 33.54 39.58 A 1.14 1.14 0 0 1 34.55 38.96" stroke="rgba(255,255,255,0.92)" stroke-width="1.0" fill="none"/>
  <path d="M 30.95 16.21 A 5.69 5.69 0 0 1 25.28 10.09" stroke="rgba(255,255,255,0.92)" stroke-width="1.0" fill="none"/>
  <path d="M 62.04 -30.93 A 79.54 79.54 0 0 1 70.30 -1.29" stroke="rgba(255,255,255,0.92)" stroke-width="1.0" fill="none"/>
  <path d="M 60.75 -27.05 A 76.70 76.70 0 0 1 67.15 -4.25" stroke="rgba(255,255,255,0.92)" stroke-width="1.0" fill="none"/>
  <path d="M 67.15 13.25 A 2.84 2.84 0 0 1 64.33 16.43" stroke="rgba(255,255,255,0.92)" stroke-width="1.0" fill="none"/>
  <path d="M 58.16 32.70 A 2.84 2.84 0 0 1 60.75 34.36" stroke="rgba(255,255,255,0.92)" stroke-width="1.0" fill="none"/>
  <path d="M 61.02 38.96 A 1.14 1.14 0 0 1 62.04 39.58" stroke="rgba(255,255,255,0.92)" stroke-width="1.0" fill="none"/>
  <path d="M 61.37 40.10 A 0.57 0.57 0 0 1 61.88 40.41" stroke="rgba(255,255,255,0.92)" stroke-width="1.0" fill="none"/>
  <path d="M 70.30 10.09 A 5.69 5.69 0 0 1 64.63 16.21" stroke="rgba(255,255,255,0.92)" stroke-width="1.0" fill="none"/>
  <path d="M 31.25 10.74 L 64.33 10.74" stroke="rgba(255,255,255,0.92)" stroke-width="1.0" fill="none"/>
  <path d="M 5.95 4.84 L 89.63 4.84" stroke="rgba(255,255,255,0.92)" stroke-width="1.0" fill="none"/>
  <path d="M 22.45 41.23 L 73.12 41.23" stroke="rgba(255,255,255,0.92)" stroke-width="1.0" fill="none"/>
  <path d="M 23.28 38.39 L 72.30 38.39" stroke="rgba(255,255,255,0.92)" stroke-width="1.0" fill="none"/>
  <path d="M 0.44 -12.61 A 48.76 48.76 0 0 1 21.85 -41.71" stroke="rgba(255,255,255,0.92)" stroke-width="1.0" fill="none"/>
  <path d="M 21.85 39.13 A 1.14 1.14 0 0 1 22.45 38.96" stroke="rgba(255,255,255,0.92)" stroke-width="1.0" fill="none"/>
  <path d="M 22.66 36.30 A 1.14 1.14 0 0 1 23.28 36.12" stroke="rgba(255,255,255,0.92)" stroke-width="1.0" fill="none"/>
  <path d="M 5.95 16.21 A 5.69 5.69 0 0 1 0.44 9.09" stroke="rgba(255,255,255,0.92)" stroke-width="1.0" fill="none"/>
  <path d="M 73.72 -41.71 A 48.76 48.76 0 0 1 95.13 -12.61" stroke="rgba(255,255,255,0.92)" stroke-width="1.0" fill="none"/>
  <path d="M 73.12 38.96 A 1.14 1.14 0 0 1 73.72 39.13" stroke="rgba(255,255,255,0.92)" stroke-width="1.0" fill="none"/>
  <path d="M 72.30 36.12 A 1.14 1.14 0 0 1 72.91 36.30" stroke="rgba(255,255,255,0.92)" stroke-width="1.0" fill="none"/>
  <path d="M 95.13 9.09 A 5.69 5.69 0 0 1 89.63 16.21" stroke="rgba(255,255,255,0.92)" stroke-width="1.0" fill="none"/>
  <path d="M 0.44 11.96 L 8.97 11.96" stroke="rgba(255,255,255,0.92)" stroke-width="1.0" fill="none"/>
  <path d="M 8.97 18.39 A 26.05 26.05 0 0 1 22.66 -7.86" stroke="rgba(255,255,255,0.92)" stroke-width="1.0" fill="none"/>
  <path d="M 95.13 11.96 L 86.60 11.96" stroke="rgba(255,255,255,0.92)" stroke-width="1.0" fill="none"/>
  <path d="M 72.91 -7.86 A 26.05 26.05 0 0 1 86.60 18.39" stroke="rgba(255,255,255,0.92)" stroke-width="1.0" fill="none"/>
  <path d="M 8.97 11.96 L 86.60 11.96" stroke="rgba(255,255,255,0.92)" stroke-width="1.0" fill="none"/>
  <path d="M 48.95 0.00 L 40.28 0.07 L 28.57 0.71 L 23.91 0.97 L 19.22 1.99 L 14.57 3.73 L 11.14 5.34 L 6.76 8.29 L 4.39 10.92 L 2.67 13.33 L 1.39 16.50 L 0.84 19.66 L 0.84 23.23 L 2.27 26.92 L 3.87 29.59 L 6.32 32.69 L 9.87 35.55 L 13.70 37.60 L 17.79 39.31 L 23.71 40.30 L 26.90 40.74 L 30.45 41.16 L 34.65 41.45 L 39.85 41.80 L 45.39 42.04 L 50.14 42.14 L 55.11 42.14 L 59.53 41.93 L 65.44 41.66 L 71.20 41.11 L 74.00 40.84 L 76.72 40.39 L 79.91 39.86 L 83.15 38.92 L 85.55 38.04 L 87.77 36.94 L 90.05 35.75 L 91.69 34.65 L 93.33 33.56 L 94.84 32.10 L 96.52 30.15 L 98.10 27.83 L 99.15 25.41 L 99.87 22.22 L 100.00 19.63 L 99.71 17.48 L 98.92 15.38 L 97.51 12.64 L 95.35 9.79 L 92.77 7.40 L 90.41 5.81 L 87.43 4.37 L 84.48 3.15 L 82.44 2.62 L 80.30 2.07 L 77.15 1.51 L 75.25 1.18 L 72.22 0.80 L 68.95 0.55 L 66.15 0.34 L 63.32 0.22 L 60.26 0.09 L 56.43 0.09 L 51.42 0.04 L 49.67 0.04 Z" stroke="rgba(255,255,255,0.92)" stroke-width="1.0" fill="none"/>
  <path d="M 48.93 0.85 L 40.31 0.92 L 28.62 1.56 L 24.02 1.82 L 19.46 2.81 L 14.90 4.52 L 11.56 6.08 L 7.32 8.94 L 5.05 11.45 L 3.42 13.74 L 2.22 16.73 L 1.70 19.73 L 1.70 23.07 L 3.04 26.54 L 4.58 29.11 L 6.93 32.09 L 10.34 34.84 L 14.06 36.82 L 18.02 38.48 L 23.84 39.46 L 27.01 39.89 L 30.53 40.31 L 34.71 40.59 L 39.90 40.95 L 45.42 41.18 L 50.15 41.28 L 55.09 41.28 L 59.50 41.08 L 65.38 40.81 L 71.12 40.26 L 73.89 40.00 L 76.57 39.55 L 79.72 39.02 L 82.88 38.11 L 85.21 37.25 L 87.38 36.18 L 89.61 35.01 L 91.22 33.94 L 92.79 32.89 L 94.22 31.51 L 95.84 29.63 L 97.35 27.41 L 98.33 25.14 L 99.02 22.10 L 99.14 19.67 L 98.88 17.69 L 98.14 15.73 L 96.78 13.10 L 94.72 10.36 L 92.24 8.07 L 89.98 6.55 L 87.09 5.15 L 84.21 3.96 L 82.23 3.45 L 80.12 2.91 L 77.00 2.35 L 75.12 2.02 L 72.13 1.65 L 68.89 1.40 L 66.10 1.19 L 63.28 1.07 L 60.25 0.94 L 56.43 0.94 L 51.42 0.90 L 49.65 0.90 Z" stroke="rgba(255,255,255,0.92)" stroke-width="1.0" fill="none"/>
  <path d="M 49.48 8.15 L 38.13 8.33 L 32.07 9.05 L 28.46 10.07 L 26.32 11.75 L 24.63 13.94 L 23.80 16.56 L 23.80 19.55 L 23.85 20.68" stroke="rgba(255,255,255,0.92)" stroke-width="1.0" fill="none"/>
  <path d="M 49.48 33.21 L 38.13 33.04 L 32.07 32.31 L 28.46 31.30 L 26.32 29.61 L 24.63 27.42 L 23.80 24.80 L 23.80 21.81 L 23.85 20.68" stroke="rgba(255,255,255,0.92)" stroke-width="1.0" fill="none"/>
  <path d="M 49.48 8.15 L 60.84 8.33 L 66.89 9.05 L 70.51 10.07 L 72.65 11.75 L 74.34 13.94 L 75.17 16.56 L 75.17 19.55 L 75.12 20.68" stroke="rgba(255,255,255,0.92)" stroke-width="1.0" fill="none"/>
  <path d="M 49.48 33.21 L 60.84 33.04 L 66.89 32.31 L 70.51 31.30 L 72.65 29.61 L 74.34 27.42 L 75.17 24.80 L 75.17 21.81 L 75.12 20.68" stroke="rgba(255,255,255,0.92)" stroke-width="1.0" fill="none"/>
  <circle cx="48.04" cy="11.94" r="1.85" stroke="rgba(255,255,255,0.92)" stroke-width="1.0" fill="none"/>
  <path d="M 45.92 3.22 L 50.21 3.22 L 50.21 2.65 L 45.92 2.65 Z" stroke="rgba(255,255,255,0.92)" stroke-width="1.0" fill="none"/>
  <path d="M 99.93 20.92 L 99.93 19.15" stroke="rgba(255,255,255,0.92)" stroke-width="1.0" fill="none"/>
  <path d="M 0.84 23.23 L 0.84 19.66" stroke="rgba(255,255,255,0.92)" stroke-width="1.0" fill="none"/>
</svg>
