<svg xmlns="http://www.w3.org/2000/svg" viewBox="0 0 100.00 23.44" data-cad-width="6696.6" data-cad-height="1570.0">
  <circle cx="11.72" cy="11.72" r="11.57" stroke="rgba(255,255,255,0.92)" stroke-width="1.0" fill="none"/>
  <circle cx="11.72" cy="11.72" r="11.72" stroke="rgba(255,255,255,0.92)" stroke-width="1.0" fill="none"/>
  <circle cx="11.72" cy="11.72" r="10.38" stroke="rgba(255,255,255,0.92)" stroke-width="1.0" fill="none"/>
  <circle cx="11.72" cy="11.72" r="8.44" stroke="rgba(255,255,255,0.92)" stroke-width="1.0" fill="none"/>
  <circle cx="17.11" cy="11.72" r="0.45" stroke="rgba(255,255,255,0.92)" stroke-width="1.0" fill="none"/>
  <circle cx="17.11" cy="11.72" r="0.34" stroke="rgba(255,255,255,0.92)" stroke-width="1.0" fill="none"/>
  <path d="M 5.86 5.03 L 5.88 5.05 L 5.90 5.08 L 5.91 5.12 L 5.92 5.15 L 5.92 5.18 L 5.92 5.22 L 5.91 5.25 L 5.90 5.29 L 5.89 5.32 L 5.87 5.35 L 5.84 5.37 L 5.82 5.40 L 5.79 5.42 L 5.76 5.43 L 5.73 5.45 L 5.69 5.45 L 5.66 5.46 L 5.62 5.46 L 5.59 5.45 L 5.56 5.44 L 5.53 5.43 L 5.50 5.41 L 5.47 5.39 L 5.45 5.36 L 5.43 5.34 L 5.41 5.31 L 5.40 5.27 L 5.39 5.24 L 5.39 5.21 L 5.39 5.17 L 5.40 5.14 L 5.41 5.11 L 5.42 5.07 L 5.44 5.04 L 5.47 5.02 L 5.49 4.99 L 5.52 4.97 L 5.55 4.96 L 5.58 4.94 L 5.62 4.94 L 5.65 4.93 L 5.69 4.93 L 5.72 4.94 L 5.75 4.95 L 5.78 4.96 L 5.81 4.98 L 5.84 5.00 L 5.86 5.03" stroke="rgba(255,255,255,0.92)" stroke-width="1.0" fill="none"/>
  <path d="M 5.91 5.36 L 5.87 5.39 L 5.84 5.42 L 5.79 5.44 L 5.75 5.46 L 5.70 5.47 L 5.66 5.47 L 5.61 5.47 L 5.56 5.46 L 5.51 5.44 L 5.47 5.42 L 5.43 5.40 L 5.39 5.36 L 5.35 5.33 L 5.32 5.29 L 5.30 5.25 L 5.28 5.20 L 5.26 5.15 L 5.26 5.11 L 5.26 5.06 L 5.26 5.01 L 5.27 4.97 L 5.29 4.92 L 5.31 4.88 L 5.34 4.85 L 5.38 4.81 L 5.41 4.79 L 5.46 4.77 L 5.50 4.75 L 5.55 4.74 L 5.59 4.74 L 5.64 4.74 L 5.69 4.75 L 5.74 4.76 L 5.78 4.78 L 5.82 4.81 L 5.86 4.84 L 5.90 4.88 L 5.93 4.92 L 5.95 4.96 L 5.97 5.01 L 5.99 5.05 L 5.99 5.10 L 5.99 5.15 L 5.99 5.20 L 5.98 5.24 L 5.96 5.28 L 5.94 5.32 L 5.91 5.36" stroke="rgba(255,255,255,0.92)" stroke-width="1.0" fill="none"/>
  <path d="M 5.86 18.42 L 5.84 18.44 L 5.81 18.46 L 5.78 18.48 L 5.75 18.50 L 5.72 18.51 L 5.69 18.51 L 5.65 18.51 L 5.62 18.51 L 5.58 18.50 L 5.55 18.49 L 5.52 18.47 L 5.49 18.45 L 5.47 18.43 L 5.44 18.40 L 5.42 18.37 L 5.41 18.34 L 5.40 18.31 L 5.39 18.27 L 5.39 18.24 L 5.39 18.20 L 5.40 18.17 L 5.41 18.14 L 5.43 18.11 L 5.45 18.08 L 5.47 18.06 L 5.50 18.03 L 5.53 18.02 L 5.56 18.00 L 5.59 17.99 L 5.62 17.99 L 5.66 17.99 L 5.69 17.99 L 5.73 18.00 L 5.76 18.01 L 5.79 18.03 L 5.82 18.05 L 5.84 18.07 L 5.87 18.10 L 5.89 18.13 L 5.90 18.16 L 5.91 18.19 L 5.92 18.23 L 5.92 18.26 L 5.92 18.29 L 5.91 18.33 L 5.90 18.36 L 5.88 18.39 L 5.86 18.42" stroke="rgba(255,255,255,0.92)" stroke-width="1.0" fill="none"/>
  <path d="M 5.91 18.08 L 5.94 18.12 L 5.96 18.16 L 5.98 18.20 L 5.99 18.25 L 5.99 18.30 L 5.99 18.34 L 5.99 18.39 L 5.97 18.44 L 5.95 18.48 L 5.93 18.53 L 5.90 18.57 L 5.86 18.60 L 5.82 18.63 L 5.78 18.66 L 5.74 18.68 L 5.69 18.70 L 5.64 18.70 L 5.59 18.71 L 5.55 18.70 L 5.50 18.69 L 5.46 18.68 L 5.41 18.66 L 5.38 18.63 L 5.34 18.60 L 5.31 18.56 L 5.29 18.52 L 5.27 18.48 L 5.26 18.43 L 5.26 18.39 L 5.26 18.34 L 5.26 18.29 L 5.28 18.24 L 5.30 18.20 L 5.32 18.16 L 5.35 18.12 L 5.39 18.08 L 5.43 18.05 L 5.47 18.02 L 5.51 18.00 L 5.56 17.99 L 5.61 17.98 L 5.66 17.97 L 5.70 17.98 L 5.75 17.99 L 5.79 18.00 L 5.84 18.03 L 5.87 18.05 L 5.91 18.08" stroke="rgba(255,255,255,0.92)" stroke-width="1.0" fill="none"/>
  <path d="M 17.54 5.36 L 17.51 5.32 L 17.49 5.28 L 17.47 5.24 L 17.46 5.20 L 17.45 5.15 L 17.45 5.10 L 17.46 5.05 L 17.47 5.01 L 17.49 4.96 L 17.52 4.92 L 17.55 4.88 L 17.58 4.84 L 17.62 4.81 L 17.66 4.78 L 17.71 4.76 L 17.75 4.75 L 17.80 4.74 L 17.85 4.74 L 17.90 4.74 L 17.94 4.75 L 17.99 4.77 L 18.03 4.79 L 18.07 4.81 L 18.10 4.85 L 18.13 4.88 L 18.15 4.92 L 18.17 4.97 L 18.18 5.01 L 18.19 5.06 L 18.19 5.11 L 18.18 5.15 L 18.17 5.20 L 18.15 5.25 L 18.12 5.29 L 18.09 5.33 L 18.06 5.36 L 18.02 5.40 L 17.98 5.42 L 17.93 5.44 L 17.88 5.46 L 17.84 5.47 L 17.79 5.47 L 17.74 5.47 L 17.69 5.46 L 17.65 5.44 L 17.61 5.42 L 17.57 5.39 L 17.54 5.36" stroke="rgba(255,255,255,0.92)" stroke-width="1.0" fill="none"/>
  <path d="M 17.54 18.08 L 17.57 18.05 L 17.61 18.03 L 17.65 18.00 L 17.69 17.99 L 17.74 17.98 L 17.79 17.97 L 17.84 17.98 L 17.88 17.99 L 17.93 18.00 L 17.98 18.02 L 18.02 18.05 L 18.06 18.08 L 18.09 18.12 L 18.12 18.16 L 18.15 18.20 L 18.17 18.24 L 18.18 18.29 L 18.19 18.34 L 18.19 18.39 L 18.18 18.43 L 18.17 18.48 L 18.15 18.52 L 18.13 18.56 L 18.10 18.60 L 18.07 18.63 L 18.03 18.66 L 17.99 18.68 L 17.94 18.69 L 17.90 18.70 L 17.85 18.71 L 17.80 18.70 L 17.75 18.70 L 17.71 18.68 L 17.66 18.66 L 17.62 18.63 L 17.58 18.60 L 17.55 18.57 L 17.52 18.53 L 17.49 18.48 L 17.47 18.44 L 17.46 18.39 L 17.45 18.34 L 17.45 18.30 L 17.46 18.25 L 17.47 18.20 L 17.49 18.16 L 17.51 18.12 L 17.54 18.08" stroke="rgba(255,255,255,0.92)" stroke-width="1.0" fill="none"/>
  <circle cx="7.97" cy="15.78" r="0.15" stroke="rgba(255,255,255,0.92)" stroke-width="1.0" fill="none"/>
  <circle cx="7.97" cy="13.75" r="0.15" stroke="rgba(255,255,255,0.92)" stroke-width="1.0" fill="none"/>
  <circle cx="7.97" cy="11.72" r="0.15" stroke="rgba(255,255,255,0.92)" stroke-width="1.0" fill="none"/>
  <circle cx="7.97" cy="9.69" r="0.15" stroke="rgba(255,255,255,0.92)" stroke-width="1.0" fill="none"/>
  <circle cx="7.97" cy="7.67" r="0.15" stroke="rgba(255,255,255,0.92)" stroke-width="1.0" fill="none"/>
  <circle cx="15.47" cy="15.78" r="0.15" stroke="rgba(255,255,255,0.92)" stroke-width="1.0" fill="none"/>
  <circle cx="15.47" cy="13.75" r="0.15" stroke="rgba(255,255,255,0.92)" stroke-width="1.0" fill="none"/>
  <circle cx="15.47" cy="11.72" r="0.15" stroke="rgba(255,255,255,0.92)" stroke-width="1.0" fill="none"/>
  <circle cx="15.47" cy="9.69" r="0.15" stroke="rgba(255,255,255,0.92)" stroke-width="1.0" fill="none"/>
  <circle cx="15.47" cy="7.67" r="0.15" stroke="rgba(255,255,255,0.92)" stroke-width="1.0" fill="none"/>
  <circle cx="11.72" cy="15.78" r="0.15" stroke="rgba(255,255,255,0.92)" stroke-width="1.0" fill="none"/>
  <circle cx="11.72" cy="13.75" r="0.15" stroke="rgba(255,255,255,0.92)" stroke-width="1.0" fill="none"/>
  <circle cx="11.72" cy="11.72" r="0.15" stroke="rgba(255,255,255,0.92)" stroke-width="1.0" fill="none"/>
  <circle cx="11.72" cy="9.69" r="0.15" stroke="rgba(255,255,255,0.92)" stroke-width="1.0" fill="none"/>
  <circle cx="11.72" cy="7.67" r="0.15" stroke="rgba(255,255,255,0.92)" stroke-width="1.0" fill="none"/>
  <path d="M 4.28 18.31 A 6.00 6.00 0 0 1 1.51 23.70" stroke="rgba(255,255,255,0.92)" stroke-width="1.0" fill="none"/>
  <circle cx="3.53" cy="17.06" r="0.19" stroke="rgba(255,255,255,0.92)" stroke-width="1.0" fill="none"/>
  <circle cx="3.55" cy="17.03" r="0.15" stroke="rgba(255,255,255,0.92)" stroke-width="1.0" fill="none"/>
  <circle cx="3.23" cy="16.46" r="0.19" stroke="rgba(255,255,255,0.92)" stroke-width="1.0" fill="none"/>
  <circle cx="3.25" cy="16.43" r="0.15" stroke="rgba(255,255,255,0.92)" stroke-width="1.0" fill="none"/>
  <circle cx="2.90" cy="15.88" r="0.19" stroke="rgba(255,255,255,0.92)" stroke-width="1.0" fill="none"/>
  <circle cx="2.92" cy="15.85" r="0.15" stroke="rgba(255,255,255,0.92)" stroke-width="1.0" fill="none"/>
  <path d="M 2.92 15.05 A 0.64 0.64 0 0 1 2.56 15.80" stroke="rgba(255,255,255,0.92)" stroke-width="1.0" fill="none"/>
  <path d="M 2.56 14.99 A 0.20 0.20 0 0 1 2.29 14.75" stroke="rgba(255,255,255,0.92)" stroke-width="1.0" fill="none"/>
  <path d="M 2.56 15.21 A 0.20 0.20 0 0 1 2.92 15.27" stroke="rgba(255,255,255,0.92)" stroke-width="1.0" fill="none"/>
  <path d="M 2.34 13.96 A 1.92 1.92 0 0 1 2.74 13.09" stroke="rgba(255,255,255,0.92)" stroke-width="1.0" fill="none"/>
  <path d="M 2.29 13.81 A 1.92 1.92 0 0 1 2.56 13.23" stroke="rgba(255,255,255,0.92)" stroke-width="1.0" fill="none"/>
  <path d="M 2.17 13.57 A 1.92 1.92 0 0 1 2.17 13.56" stroke="rgba(255,255,255,0.92)" stroke-width="1.0" fill="none"/>
  <path d="M 2.16 15.24 A 0.13 0.13 0 0 1 2.17 15.17" stroke="rgba(255,255,255,0.92)" stroke-width="1.0" fill="none"/>
  <path d="M 2.16 14.17 A 1.13 1.13 0 0 1 2.28 14.62" stroke="rgba(255,255,255,0.92)" stroke-width="1.0" fill="none"/>
  <path d="M 2.61 16.78 A 0.77 0.77 0 0 1 2.26 16.89" stroke="rgba(255,255,255,0.92)" stroke-width="1.0" fill="none"/>
  <path d="M 2.17 15.17 A 0.13 0.13 0 0 1 2.26 15.10" stroke="rgba(255,255,255,0.92)" stroke-width="1.0" fill="none"/>
  <path d="M 1.51 -0.25 A 6.00 6.00 0 0 1 3.61 2.04" stroke="rgba(255,255,255,0.92)" stroke-width="1.0" fill="none"/>
  <path d="M 3.76 2.33 A 6.00 6.00 0 0 1 4.28 5.13" stroke="rgba(255,255,255,0.92)" stroke-width="1.0" fill="none"/>
  <circle cx="2.79" cy="7.72" r="0.19" stroke="rgba(255,255,255,0.92)" stroke-width="1.0" fill="none"/>
  <circle cx="2.81" cy="7.75" r="0.15" stroke="rgba(255,255,255,0.92)" stroke-width="1.0" fill="none"/>
  <circle cx="2.46" cy="8.29" r="0.19" stroke="rgba(255,255,255,0.92)" stroke-width="1.0" fill="none"/>
  <circle cx="2.49" cy="8.32" r="0.15" stroke="rgba(255,255,255,0.92)" stroke-width="1.0" fill="none"/>
  <path d="M 3.41 6.92 A 0.19 0.19 0 1 1 3.18 6.72" stroke="rgba(255,255,255,0.92)" stroke-width="1.0" fill="none"/>
  <path d="M 3.36 7.04 A 0.15 0.15 0 1 1 3.13 6.83" stroke="rgba(255,255,255,0.92)" stroke-width="1.0" fill="none"/>
  <path d="M 3.13 7.04 L 3.70 7.68 L 3.81 7.68 L 3.92 7.58 L 3.93 7.48 L 3.36 6.84" stroke="rgba(255,255,255,0.92)" stroke-width="1.0" fill="none"/>
  <path d="M 1.35 13.51 L 1.35 12.61" stroke="rgba(255,255,255,0.92)" stroke-width="1.0" fill="none"/>
  <path d="M 24.50 13.51 L 24.50 12.61" stroke="rgba(255,255,255,0.92)" stroke-width="1.0" fill="none"/>
  <path d="M 24.20 12.31 L 23.30 12.31" stroke="rgba(255,255,255,0.92)" stroke-width="1.0" fill="none"/>
  <path d="M 23.30 13.51 L 2.55 13.51" stroke="rgba(255,255,255,0.92)" stroke-width="1.0" fill="none"/>
  <path d="M 2.55 12.31 L 1.65 12.31" stroke="rgba(255,255,255,0.92)" stroke-width="1.0" fill="none"/>
  <path d="M 24.50 12.61 A 0.30 0.30 0 0 1 24.20 12.91" stroke="rgba(255,255,255,0.92)" stroke-width="1.0" fill="none"/>
  <path d="M 24.65 13.51 L 24.50 13.51" stroke="rgba(255,255,255,0.92)" stroke-width="1.0" fill="none"/>
  <path d="M 1.65 12.91 A 0.30 0.30 0 0 1 1.35 12.61" stroke="rgba(255,255,255,0.92)" stroke-width="1.0" fill="none"/>
  <path d="M 24.50 13.51 L 1.20 13.51" stroke="rgba(255,255,255,0.92)" stroke-width="1.0" fill="none"/>
  <path d="M 2.55 12.31 L 23.30 12.31" stroke="rgba(255,255,255,0.92)" stroke-width="1.0" fill="none"/>
  <path d="M 1.20 14.63 A 11.65 11.65 0 0 1 3.20 7.52" stroke="rgba(255,255,255,0.92)" stroke-width="1.0" fill="none"/>
  <path d="M 3.20 18.94 A 1.49 1.49 0 0 1 4.44 18.29" stroke="rgba(255,255,255,0.92)" stroke-width="1.0" fill="none"/>
  <path d="M 12.92 13.51 L 12.92 21.27" stroke="rgba(255,255,255,0.92)" stroke-width="1.0" fill="none"/>
  <path d="M 10.29 16.45 A 24.20 24.20 0 0 1 11.07 8.68" stroke="rgba(255,255,255,0.92)" stroke-width="1.0" fill="none"/>
  <path d="M 8.14 16.68 A 16.79 16.79 0 0 1 9.24 8.91" stroke="rgba(255,255,255,0.92)" stroke-width="1.0" fill="none"/>
  <path d="M 6.49 16.82 A 15.36 15.36 0 0 1 7.67 9.05" stroke="rgba(255,255,255,0.92)" stroke-width="1.0" fill="none"/>
  <path d="M 4.88 16.80 A 14.89 14.89 0 0 1 6.10 9.04" stroke="rgba(255,255,255,0.92)" stroke-width="1.0" fill="none"/>
  <path d="M 3.96 17.07 A 14.09 14.09 0 0 1 5.18 9.31" stroke="rgba(255,255,255,0.92)" stroke-width="1.0" fill="none"/>
  <path d="M 2.93 16.45 A 15.36 15.36 0 0 1 4.19 8.70" stroke="rgba(255,255,255,0.92)" stroke-width="1.0" fill="none"/>
  <path d="M 2.15 16.45 A 11.99 11.99 0 0 1 3.74 8.86" stroke="rgba(255,255,255,0.92)" stroke-width="1.0" fill="none"/>
  <path d="M 1.65 16.45 A 10.51 10.51 0 0 1 2.93 9.77" stroke="rgba(255,255,255,0.92)" stroke-width="1.0" fill="none"/>
  <path d="M 14.78 8.68 A 24.20 24.20 0 0 1 15.56 16.45" stroke="rgba(255,255,255,0.92)" stroke-width="1.0" fill="none"/>
  <path d="M 16.61 8.91 A 16.79 16.79 0 0 1 17.71 16.68" stroke="rgba(255,255,255,0.92)" stroke-width="1.0" fill="none"/>
  <path d="M 18.18 9.05 A 15.36 15.36 0 0 1 19.36 16.82" stroke="rgba(255,255,255,0.92)" stroke-width="1.0" fill="none"/>
  <path d="M 19.75 9.04 A 14.89 14.89 0 0 1 20.97 16.80" stroke="rgba(255,255,255,0.92)" stroke-width="1.0" fill="none"/>
  <path d="M 20.67 9.31 A 14.09 14.09 0 0 1 21.89 17.07" stroke="rgba(255,255,255,0.92)" stroke-width="1.0" fill="none"/>
  <path d="M 21.66 8.70 A 15.36 15.36 0 0 1 22.92 16.45" stroke="rgba(255,255,255,0.92)" stroke-width="1.0" fill="none"/>
  <path d="M 22.11 8.86 A 11.99 11.99 0 0 1 23.70 16.45" stroke="rgba(255,255,255,0.92)" stroke-width="1.0" fill="none"/>
  <path d="M 22.92 9.77 A 10.51 10.51 0 0 1 24.20 16.45" stroke="rgba(255,255,255,0.92)" stroke-width="1.0" fill="none"/>
  <path d="M 22.65 7.52 A 11.65 11.65 0 0 1 24.65 14.63" stroke="rgba(255,255,255,0.92)" stroke-width="1.0" fill="none"/>
  <path d="M 21.41 18.29 A 1.49 1.49 0 0 1 22.65 18.94" stroke="rgba(255,255,255,0.92)" stroke-width="1.0" fill="none"/>
  <path d="M 4.44 21.27 L 21.41 21.27" stroke="rgba(255,255,255,0.92)" stroke-width="1.0" fill="none"/>
  <path d="M 1.65 13.51 L 1.65 12.31" stroke="rgba(255,255,255,0.92)" stroke-width="1.0" fill="none"/>
  <path d="M 2.15 13.51 L 2.15 12.31" stroke="rgba(255,255,255,0.92)" stroke-width="1.0" fill="none"/>
  <path d="M 2.93 13.51 L 2.93 12.31" stroke="rgba(255,255,255,0.92)" stroke-width="1.0" fill="none"/>
  <path d="M 3.96 13.51 L 3.96 12.31" stroke="rgba(255,255,255,0.92)" stroke-width="1.0" fill="none"/>
  <path d="M 4.88 13.51 L 4.88 12.31" stroke="rgba(255,255,255,0.92)" stroke-width="1.0" fill="none"/>
  <path d="M 6.49 13.51 L 6.49 12.31" stroke="rgba(255,255,255,0.92)" stroke-width="1.0" fill="none"/>
  <path d="M 8.14 13.51 L 8.14 12.31" stroke="rgba(255,255,255,0.92)" stroke-width="1.0" fill="none"/>
  <path d="M 10.29 13.51 L 10.29 12.31" stroke="rgba(255,255,255,0.92)" stroke-width="1.0" fill="none"/>
  <path d="M 12.92 13.51 L 12.92 12.31" stroke="rgba(255,255,255,0.92)" stroke-width="1.0" fill="none"/>
  <path d="M 15.56 13.51 L 15.56 12.31" stroke="rgba(255,255,255,0.92)" stroke-width="1.0" fill="none"/>
  <path d="M 17.71 13.51 L 17.71 12.31" stroke="rgba(255,255,255,0.92)" stroke-width="1.0" fill="none"/>
  <path d="M 19.36 13.51 L 19.36 12.31" stroke="rgba(255,255,255,0.92)" stroke-width="1.0" fill="none"/>
  <path d="M 20.97 13.51 L 20.97 12.31" stroke="rgba(255,255,255,0.92)" stroke-width="1.0" fill="none"/>
  <path d="M 21.89 13.51 L 21.89 12.31" stroke="rgba(255,255,255,0.92)" stroke-width="1.0" fill="none"/>
  <path d="M 22.92 13.51 L 22.92 12.31" stroke="rgba(255,255,255,0.92)" stroke-width="1.0" fill="none"/>
  <path d="M 23.70 13.51 L 23.70 12.31" stroke="rgba(255,255,255,0.92)" stroke-width="1.0" fill="none"/>
  <path d="M 24.20 13.51 L 24.20 12.31" stroke="rgba(255,255,255,0.92)" stroke-width="1.0" fill="none"/>
  <path d="M 76.58 13.51 L 76.58 12.61" stroke="rgba(255,255,255,0.92)" stroke-width="1.0" fill="none"/>
  <path d="M 99.73 13.51 L 99.73 12.61" stroke="rgba(255,255,255,0.92)" stroke-width="1.0" fill="none"/>
  <path d="M 99.43 12.31 L 98.53 12.31" stroke="rgba(255,255,255,0.92)" stroke-width="1.0" fill="none"/>
  <path d="M 98.53 13.51 L 77.78 13.51" stroke="rgba(255,255,255,0.92)" stroke-width="1.0" fill="none"/>
  <path d="M 77.78 12.31 L 76.88 12.31" stroke="rgba(255,255,255,0.92)" stroke-width="1.0" fill="none"/>
  <path d="M 99.73 12.61 A 0.30 0.30 0 0 1 99.43 12.91" stroke="rgba(255,255,255,0.92)" stroke-width="1.0" fill="none"/>
  <path d="M 99.88 13.51 L 99.73 13.51" stroke="rgba(255,255,255,0.92)" stroke-width="1.0" fill="none"/>
  <path d="M 76.88 12.91 A 0.30 0.30 0 0 1 76.58 12.61" stroke="rgba(255,255,255,0.92)" stroke-width="1.0" fill="none"/>
  <path d="M 99.73 13.51 L 76.43 13.51" stroke="rgba(255,255,255,0.92)" stroke-width="1.0" fill="none"/>
  <path d="M 77.78 12.31 L 98.53 12.31" stroke="rgba(255,255,255,0.92)" stroke-width="1.0" fill="none"/>
  <path d="M 76.43 14.63 A 11.65 11.65 0 0 1 78.44 7.52" stroke="rgba(255,255,255,0.92)" stroke-width="1.0" fill="none"/>
  <path d="M 78.44 18.94 A 1.49 1.49 0 0 1 79.67 18.29" stroke="rgba(255,255,255,0.92)" stroke-width="1.0" fill="none"/>
  <path d="M 88.16 13.51 L 88.16 21.27" stroke="rgba(255,255,255,0.92)" stroke-width="1.0" fill="none"/>
  <path d="M 85.52 16.45 A 24.20 24.20 0 0 1 86.31 8.68" stroke="rgba(255,255,255,0.92)" stroke-width="1.0" fill="none"/>
  <path d="M 83.37 16.68 A 16.79 16.79 0 0 1 84.47 8.91" stroke="rgba(255,255,255,0.92)" stroke-width="1.0" fill="none"/>
  <path d="M 81.72 16.82 A 15.36 15.36 0 0 1 82.90 9.05" stroke="rgba(255,255,255,0.92)" stroke-width="1.0" fill="none"/>
  <path d="M 80.11 16.80 A 14.89 14.89 0 0 1 81.34 9.04" stroke="rgba(255,255,255,0.92)" stroke-width="1.0" fill="none"/>
  <path d="M 79.19 17.07 A 14.09 14.09 0 0 1 80.41 9.31" stroke="rgba(255,255,255,0.92)" stroke-width="1.0" fill="none"/>
  <path d="M 78.16 16.45 A 15.36 15.36 0 0 1 79.43 8.70" stroke="rgba(255,255,255,0.92)" stroke-width="1.0" fill="none"/>
  <path d="M 77.38 16.45 A 11.99 11.99 0 0 1 78.97 8.86" stroke="rgba(255,255,255,0.92)" stroke-width="1.0" fill="none"/>
  <path d="M 76.88 16.45 A 10.51 10.51 0 0 1 78.16 9.77" stroke="rgba(255,255,255,0.92)" stroke-width="1.0" fill="none"/>
  <path d="M 90.01 8.68 A 24.20 24.20 0 0 1 90.79 16.45" stroke="rgba(255,255,255,0.92)" stroke-width="1.0" fill="none"/>
  <path d="M 91.84 8.91 A 16.79 16.79 0 0 1 92.94 16.68" stroke="rgba(255,255,255,0.92)" stroke-width="1.0" fill="none"/>
  <path d="M 93.41 9.05 A 15.36 15.36 0 0 1 94.59 16.82" stroke="rgba(255,255,255,0.92)" stroke-width="1.0" fill="none"/>
  <path d="M 94.98 9.04 A 14.89 14.89 0 0 1 96.20 16.80" stroke="rgba(255,255,255,0.92)" stroke-width="1.0" fill="none"/>
  <path d="M 95.90 9.31 A 14.09 14.09 0 0 1 97.12 17.07" stroke="rgba(255,255,255,0.92)" stroke-width="1.0" fill="none"/>
  <path d="M 96.89 8.70 A 15.36 15.36 0 0 1 98.16 16.45" stroke="rgba(255,255,255,0.92)" stroke-width="1.0" fill="none"/>
  <path d="M 97.34 8.86 A 11.99 11.99 0 0 1 98.93 16.45" stroke="rgba(255,255,255,0.92)" stroke-width="1.0" fill="none"/>
  <path d="M 98.16 9.77 A 10.51 10.51 0 0 1 99.43 16.45" stroke="rgba(255,255,255,0.92)" stroke-width="1.0" fill="none"/>
  <path d="M 97.88 7.52 A 11.65 11.65 0 0 1 99.88 14.63" stroke="rgba(255,255,255,0.92)" stroke-width="1.0" fill="none"/>
  <path d="M 96.64 18.29 A 1.49 1.49 0 0 1 97.88 18.94" stroke="rgba(255,255,255,0.92)" stroke-width="1.0" fill="none"/>
  <path d="M 79.67 21.27 L 96.64 21.27" stroke="rgba(255,255,255,0.92)" stroke-width="1.0" fill="none"/>
  <path d="M 76.88 13.51 L 76.88 12.31" stroke="rgba(255,255,255,0.92)" stroke-width="1.0" fill="none"/>
  <path d="M 77.38 13.51 L 77.38 12.31" stroke="rgba(255,255,255,0.92)" stroke-width="1.0" fill="none"/>
  <path d="M 78.16 13.51 L 78.16 12.31" stroke="rgba(255,255,255,0.92)" stroke-width="1.0" fill="none"/>
  <path d="M 79.19 13.51 L 79.19 12.31" stroke="rgba(255,255,255,0.92)" stroke-width="1.0" fill="none"/>
  <path d="M 80.11 13.51 L 80.11 12.31" stroke="rgba(255,255,255,0.92)" stroke-width="1.0" fill="none"/>
  <path d="M 81.72 13.51 L 81.72 12.31" stroke="rgba(255,255,255,0.92)" stroke-width="1.0" fill="none"/>
  <path d="M 83.37 13.51 L 83.37 12.31" stroke="rgba(255,255,255,0.92)" stroke-width="1.0" fill="none"/>
  <path d="M 85.52 13.51 L 85.52 12.31" stroke="rgba(255,255,255,0.92)" stroke-width="1.0" fill="none"/>
  <path d="M 88.16 13.51 L 88.16 12.31" stroke="rgba(255,255,255,0.92)" stroke-width="1.0" fill="none"/>
  <path d="M 90.79 13.51 L 90.79 12.31" stroke="rgba(255,255,255,0.92)" stroke-width="1.0" fill="none"/>
  <path d="M 92.94 13.51 L 92.94 12.31" stroke="rgba(255,255,255,0.92)" stroke-width="1.0" fill="none"/>
  <path d="M 94.59 13.51 L 94.59 12.31" stroke="rgba(255,255,255,0.92)" stroke-width="1.0" fill="none"/>
  <path d="M 96.20 13.51 L 96.20 12.31" stroke="rgba(255,255,255,0.92)" stroke-width="1.0" fill="none"/>
  <path d="M 97.12 13.51 L 97.12 12.31" stroke="rgba(255,255,255,0.92)" stroke-width="1.0" fill="none"/>
  <path d="M 98.16 13.51 L 98.16 12.31" stroke="rgba(255,255,255,0.92)" stroke-width="1.0" fill="none"/>
  <path d="M 98.93 13.51 L 98.93 12.31" stroke="rgba(255,255,255,0.92)" stroke-width="1.0" fill="none"/>
  <path d="M 99.43 13.51 L 99.43 12.31" stroke="rgba(255,255,255,0.92)" stroke-width="1.0" fill="none"/>
</svg>
