<svg xmlns="http://www.w3.org/2000/svg" viewBox="0 0 100.00 52.38" data-cad-width="1413.5" data-cad-height="740.4">
  <path d="M 20.00 50.71 L 90.95 50.71" stroke="rgba(255,255,255,0.92)" stroke-width="1.0" fill="none"/>
  <path d="M 12.18 40.81 L 21.17 40.81" stroke="rgba(255,255,255,0.92)" stroke-width="1.0" fill="none"/>
  <path d="M 91.98 40.81 L 96.23 40.81" stroke="rgba(255,255,255,0.92)" stroke-width="1.0" fill="none"/>
  <path d="M 0.07 -11.04 A 89.16 89.16 0 0 1 18.31 -58.83" stroke="rgba(255,255,255,0.92)" stroke-width="1.0" fill="none"/>
  <path d="M 18.31 47.30 A 2.12 2.12 0 0 1 20.00 46.47" stroke="rgba(255,255,255,0.92)" stroke-width="1.0" fill="none"/>
  <path d="M 0.90 -899.93 A 457.87 457.87 0 0 1 98.31 -906.87" stroke="rgba(255,255,255,0.92)" stroke-width="1.0" fill="none"/>
  <path d="M 0.90 2.75 A 0.71 0.71 0 0 1 0.07 2.00" stroke="rgba(255,255,255,0.92)" stroke-width="1.0" fill="none"/>
  <path d="M 99.04 8.99 A 0.71 0.71 0 0 1 98.31 9.71" stroke="rgba(255,255,255,0.92)" stroke-width="1.0" fill="none"/>
  <path d="M 0.17 -901.96 A 460.00 460.00 0 0 1 99.01 -908.97" stroke="rgba(255,255,255,0.92)" stroke-width="1.0" fill="none"/>
  <path d="M 95.12 -38.93 A 236.10 236.10 0 0 1 99.04 -0.68" stroke="rgba(255,255,255,0.92)" stroke-width="1.0" fill="none"/>
  <path d="M 90.95 42.22 A 4.24 4.24 0 0 1 95.13 45.70" stroke="rgba(255,255,255,0.92)" stroke-width="1.0" fill="none"/>
  <path d="M 1.34 -31.44 A 83.28 83.28 0 0 1 21.23 -70.89" stroke="rgba(255,255,255,0.92)" stroke-width="1.0" fill="none"/>
  <path d="M 91.98 -38.10 A 131.72 131.72 0 0 1 97.84 -5.60" stroke="rgba(255,255,255,0.92)" stroke-width="1.0" fill="none"/>
  <path d="M 21.23 40.88 L 91.98 40.81" stroke="rgba(255,255,255,0.92)" stroke-width="1.0" fill="none"/>
  <path d="M 51.93 5.03 L 44.00 48.97" stroke="rgba(255,255,255,0.92)" stroke-width="1.0" fill="none"/>
  <path d="M 50.27 2.82 L 42.37 38.53" stroke="rgba(255,255,255,0.92)" stroke-width="1.0" fill="none"/>
  <path d="M 0.07 5.03 L 8.00 48.97" stroke="rgba(255,255,255,0.92)" stroke-width="1.0" fill="none"/>
  <path d="M 1.91 2.79 L 9.63 38.53" stroke="rgba(255,255,255,0.92)" stroke-width="1.0" fill="none"/>
  <path d="M 50.09 363.95 A 182.18 182.18 0 0 1 1.91 363.95" stroke="rgba(255,255,255,0.92)" stroke-width="1.0" fill="none"/>
  <path d="M 51.93 4.76 A 2.12 2.12 0 0 1 50.09 7.00" stroke="rgba(255,255,255,0.92)" stroke-width="1.0" fill="none"/>
  <path d="M 1.91 7.00 A 2.12 2.12 0 0 1 0.07 4.76" stroke="rgba(255,255,255,0.92)" stroke-width="1.0" fill="none"/>
  <path d="M 41.91 50.71 L 10.09 50.71" stroke="rgba(255,255,255,0.92)" stroke-width="1.0" fill="none"/>
  <path d="M 39.59 40.81 L 12.41 40.81" stroke="rgba(255,255,255,0.92)" stroke-width="1.0" fill="none"/>
  <path d="M 39.59 35.15 A 2.83 2.83 0 0 1 42.37 37.43" stroke="rgba(255,255,255,0.92)" stroke-width="1.0" fill="none"/>
  <path d="M 9.63 37.43 A 2.83 2.83 0 0 1 12.41 35.15" stroke="rgba(255,255,255,0.92)" stroke-width="1.0" fill="none"/>
  <path d="M 41.91 46.47 A 2.12 2.12 0 0 1 44.00 48.22" stroke="rgba(255,255,255,0.92)" stroke-width="1.0" fill="none"/>
  <path d="M 8.00 48.22 A 2.12 2.12 0 0 1 10.09 46.47" stroke="rgba(255,255,255,0.92)" stroke-width="1.0" fill="none"/>
  <path d="M 1.91 2.79 L 10.09 50.71" stroke="rgba(255,255,255,0.92)" stroke-width="1.0" fill="none"/>
  <path d="M 50.09 2.79 L 41.91 50.71" stroke="rgba(255,255,255,0.92)" stroke-width="1.0" fill="none"/>
  <path d="M 25.17 0.23 L 78.61 3.20" stroke="rgba(255,255,255,0.92)" stroke-width="1.0" fill="none"/>
  <path d="M 35.39 9.30 L 82.24 11.91" stroke="rgba(255,255,255,0.92)" stroke-width="1.0" fill="none"/>
  <path d="M 25.78 2.39 L 76.90 5.23" stroke="rgba(255,255,255,0.92)" stroke-width="1.0" fill="none"/>
  <path d="M 25.17 52.15 L 78.61 49.18" stroke="rgba(255,255,255,0.92)" stroke-width="1.0" fill="none"/>
  <path d="M 35.39 43.08 L 82.24 40.48" stroke="rgba(255,255,255,0.92)" stroke-width="1.0" fill="none"/>
  <path d="M 25.78 49.99 L 76.90 47.15" stroke="rgba(255,255,255,0.92)" stroke-width="1.0" fill="none"/>
  <path d="M 13.24 49.26 A 26.75 26.75 0 0 1 13.24 3.12" stroke="rgba(255,255,255,0.92)" stroke-width="1.0" fill="none"/>
  <path d="M 13.24 12.66 A 21.22 21.22 0 0 1 25.17 9.77" stroke="rgba(255,255,255,0.92)" stroke-width="1.0" fill="none"/>
  <path d="M 25.17 42.62 A 21.22 21.22 0 0 1 13.24 39.72" stroke="rgba(255,255,255,0.92)" stroke-width="1.0" fill="none"/>
  <path d="M 10.94 45.05 A 24.63 24.63 0 0 1 10.94 7.34" stroke="rgba(255,255,255,0.92)" stroke-width="1.0" fill="none"/>
  <path d="M 10.94 12.55 A 21.22 21.22 0 0 1 25.78 7.61" stroke="rgba(255,255,255,0.92)" stroke-width="1.0" fill="none"/>
  <path d="M 25.78 44.77 A 21.22 21.22 0 0 1 10.94 39.83" stroke="rgba(255,255,255,0.92)" stroke-width="1.0" fill="none"/>
  <path d="M 96.34 14.75 A 25.19 25.19 0 0 1 96.34 37.63" stroke="rgba(255,255,255,0.92)" stroke-width="1.0" fill="none"/>
  <path d="M 78.61 -0.36 A 25.02 25.02 0 0 1 96.34 11.19" stroke="rgba(255,255,255,0.92)" stroke-width="1.0" fill="none"/>
  <path d="M 96.34 41.09 A 24.97 24.97 0 0 1 78.61 52.65" stroke="rgba(255,255,255,0.92)" stroke-width="1.0" fill="none"/>
  <path d="M 76.90 4.77 A 21.22 21.22 0 0 1 96.95 25.96" stroke="rgba(255,255,255,0.92)" stroke-width="1.0" fill="none"/>
  <path d="M 96.95 26.65 A 21.22 21.22 0 0 1 76.90 47.61" stroke="rgba(255,255,255,0.92)" stroke-width="1.0" fill="none"/>
  <path d="M 35.39 43.08 A 17.16 17.16 0 0 1 35.39 9.30" stroke="rgba(255,255,255,0.92)" stroke-width="1.0" fill="none"/>
  <path d="M 86.73 13.85 A 17.06 17.06 0 0 1 86.73 38.53" stroke="rgba(255,255,255,0.92)" stroke-width="1.0" fill="none"/>
  <path d="M 82.24 26.35 A 7.07 7.07 0 0 1 86.73 28.30" stroke="rgba(255,255,255,0.92)" stroke-width="1.0" fill="none"/>
  <path d="M 86.73 24.08 A 7.07 7.07 0 0 1 82.24 26.03" stroke="rgba(255,255,255,0.92)" stroke-width="1.0" fill="none"/>
  <circle cx="87.12" cy="26.19" r="1.77" stroke="rgba(255,255,255,0.92)" stroke-width="1.0" fill="none"/>
  <circle cx="87.12" cy="26.19" r="1.41" stroke="rgba(255,255,255,0.92)" stroke-width="1.0" fill="none"/>
</svg>
