<svg xmlns="http://www.w3.org/2000/svg" viewBox="0 0 100 100" width="100" height="100">
  <path d="M 64.63 33.77 L 30.95 33.77" stroke="rgba(255,255,255,0.92)" stroke-width="1.0" fill="none"/>
  <path d="M 61.02 70.16 L 34.55 70.16" stroke="rgba(255,255,255,0.92)" stroke-width="1.0" fill="none"/>
  <path d="M 58.16 67.32 L 37.41 67.32" stroke="rgba(255,255,255,0.92)" stroke-width="1.0" fill="none"/>
  <path d="M 25.28 27.65 A 79.54 79.54 0 0 1 33.54 -2.00" stroke="rgba(255,255,255,0.92)" stroke-width="1.0" fill="none"/>
  <path d="M 28.42 24.69 A 76.70 76.70 0 0 1 34.83 1.88" stroke="rgba(255,255,255,0.92)" stroke-width="1.0" fill="none"/>
  <path d="M 31.25 45.36 A 2.84 2.84 0 0 1 28.42 42.18" stroke="rgba(255,255,255,0.92)" stroke-width="1.0" fill="none"/>
  <path d="M 34.83 63.30 A 2.84 2.84 0 0 1 37.41 61.64" stroke="rgba(255,255,255,0.92)" stroke-width="1.0" fill="none"/>
  <path d="M 33.54 68.52 A 1.14 1.14 0 0 1 34.55 67.89" stroke="rgba(255,255,255,0.92)" stroke-width="1.0" fill="none"/>
  <path d="M 30.95 45.14 A 5.69 5.69 0 0 1 25.28 39.02" stroke="rgba(255,255,255,0.92)" stroke-width="1.0" fill="none"/>
  <path d="M 62.04 -2.00 A 79.54 79.54 0 0 1 70.30 27.65" stroke="rgba(255,255,255,0.92)" stroke-width="1.0" fill="none"/>
  <path d="M 60.75 1.88 A 76.70 76.70 0 0 1 67.15 24.69" stroke="rgba(255,255,255,0.92)" stroke-width="1.0" fill="none"/>
  <path d="M 67.15 42.18 A 2.84 2.84 0 0 1 64.33 45.36" stroke="rgba(255,255,255,0.92)" stroke-width="1.0" fill="none"/>
  <path d="M 58.16 61.64 A 2.84 2.84 0 0 1 60.75 63.30" stroke="rgba(255,255,255,0.92)" stroke-width="1.0" fill="none"/>
  <path d="M 61.02 67.89 A 1.14 1.14 0 0 1 62.04 68.52" stroke="rgba(255,255,255,0.92)" stroke-width="1.0" fill="none"/>
  <path d="M 61.37 69.03 A 0.57 0.57 0 0 1 61.88 69.34" stroke="rgba(255,255,255,0.92)" stroke-width="1.0" fill="none"/>
  <path d="M 70.30 39.02 A 5.69 5.69 0 0 1 64.63 45.14" stroke="rgba(255,255,255,0.92)" stroke-width="1.0" fill="none"/>
  <path d="M 31.25 39.68 L 64.33 39.68" stroke="rgba(255,255,255,0.92)" stroke-width="1.0" fill="none"/>
  <path d="M 5.95 33.77 L 89.63 33.77" stroke="rgba(255,255,255,0.92)" stroke-width="1.0" fill="none"/>
  <path d="M 22.45 70.16 L 73.12 70.16" stroke="rgba(255,255,255,0.92)" stroke-width="1.0" fill="none"/>
  <path d="M 23.28 67.32 L 72.30 67.32" stroke="rgba(255,255,255,0.92)" stroke-width="1.0" fill="none"/>
  <path d="M 0.44 16.32 A 48.76 48.76 0 0 1 21.85 -12.78" stroke="rgba(255,255,255,0.92)" stroke-width="1.0" fill="none"/>
  <path d="M 21.85 68.06 A 1.14 1.14 0 0 1 22.45 67.89" stroke="rgba(255,255,255,0.92)" stroke-width="1.0" fill="none"/>
  <path d="M 22.66 65.23 A 1.14 1.14 0 0 1 23.28 65.05" stroke="rgba(255,255,255,0.92)" stroke-width="1.0" fill="none"/>
  <path d="M 5.95 45.14 A 5.69 5.69 0 0 1 0.44 38.03" stroke="rgba(255,255,255,0.92)" stroke-width="1.0" fill="none"/>
  <path d="M 73.72 -12.78 A 48.76 48.76 0 0 1 95.13 16.32" stroke="rgba(255,255,255,0.92)" stroke-width="1.0" fill="none"/>
  <path d="M 73.12 67.89 A 1.14 1.14 0 0 1 73.72 68.06" stroke="rgba(255,255,255,0.92)" stroke-width="1.0" fill="none"/>
  <path d="M 72.30 65.05 A 1.14 1.14 0 0 1 72.91 65.23" stroke="rgba(255,255,255,0.92)" stroke-width="1.0" fill="none"/>
  <path d="M 95.13 38.03 A 5.69 5.69 0 0 1 89.63 45.14" stroke="rgba(255,255,255,0.92)" stroke-width="1.0" fill="none"/>
  <path d="M 0.44 40.89 L 8.97 40.89" stroke="rgba(255,255,255,0.92)" stroke-width="1.0" fill="none"/>
  <path d="M 8.97 47.32 A 26.05 26.05 0 0 1 22.66 21.07" stroke="rgba(255,255,255,0.92)" stroke-width="1.0" fill="none"/>
  <path d="M 95.13 40.89 L 86.60 40.89" stroke="rgba(255,255,255,0.92)" stroke-width="1.0" fill="none"/>
  <path d="M 72.91 21.07 A 26.05 26.05 0 0 1 86.60 47.32" stroke="rgba(255,255,255,0.92)" stroke-width="1.0" fill="none"/>
  <path d="M 8.97 40.89 L 86.60 40.89" stroke="rgba(255,255,255,0.92)" stroke-width="1.0" fill="none"/>
  <path d="M 48.95 28.93 L 40.28 29.00 L 28.57 29.64 L 23.91 29.90 L 19.22 30.92 L 14.57 32.66 L 11.14 34.27 L 6.76 37.22 L 4.39 39.85 L 2.67 42.26 L 1.39 45.43 L 0.84 48.59 L 0.84 52.16 L 2.27 55.85 L 3.87 58.52 L 6.32 61.62 L 9.87 64.48 L 13.70 66.53 L 17.79 68.24 L 23.71 69.23 L 26.90 69.67 L 30.45 70.09 L 34.65 70.38 L 39.85 70.73 L 45.39 70.97 L 50.14 71.07 L 55.11 71.07 L 59.53 70.87 L 65.44 70.60 L 71.20 70.04 L 74.00 69.78 L 76.72 69.32 L 79.91 68.79 L 83.15 67.85 L 85.55 66.97 L 87.77 65.87 L 90.05 64.68 L 91.69 63.58 L 93.33 62.49 L 94.84 61.03 L 96.52 59.09 L 98.10 56.76 L 99.15 54.34 L 99.87 51.15 L 100.00 48.56 L 99.71 46.41 L 98.92 44.31 L 97.51 41.57 L 95.35 38.72 L 92.77 36.33 L 90.41 34.74 L 87.43 33.30 L 84.48 32.08 L 82.44 31.55 L 80.30 31.00 L 77.15 30.45 L 75.25 30.11 L 72.22 29.73 L 68.95 29.48 L 66.15 29.27 L 63.32 29.15 L 60.26 29.02 L 56.43 29.02 L 51.42 28.97 L 49.67 28.97 Z" stroke="rgba(255,255,255,0.92)" stroke-width="1.0" fill="none"/>
  <path d="M 48.93 29.78 L 40.31 29.85 L 28.62 30.50 L 24.02 30.75 L 19.46 31.74 L 14.90 33.45 L 11.56 35.01 L 7.32 37.87 L 5.05 40.39 L 3.42 42.67 L 2.22 45.67 L 1.70 48.66 L 1.70 52.01 L 3.04 55.47 L 4.58 58.04 L 6.93 61.02 L 10.34 63.77 L 14.06 65.76 L 18.02 67.42 L 23.84 68.39 L 27.01 68.82 L 30.53 69.24 L 34.71 69.53 L 39.90 69.88 L 45.42 70.11 L 50.15 70.22 L 55.09 70.22 L 59.50 70.01 L 65.38 69.74 L 71.12 69.19 L 73.89 68.93 L 76.57 68.48 L 79.72 67.96 L 82.88 67.04 L 85.21 66.19 L 87.38 65.11 L 89.61 63.94 L 91.22 62.87 L 92.79 61.82 L 94.22 60.44 L 95.84 58.57 L 97.35 56.35 L 98.33 54.07 L 99.02 51.03 L 99.14 48.60 L 98.88 46.62 L 98.14 44.66 L 96.78 42.03 L 94.72 39.29 L 92.24 37.01 L 89.98 35.49 L 87.09 34.08 L 84.21 32.89 L 82.23 32.38 L 80.12 31.84 L 77.00 31.29 L 75.12 30.95 L 72.13 30.58 L 68.89 30.34 L 66.10 30.12 L 63.28 30.00 L 60.25 29.87 L 56.43 29.87 L 51.42 29.83 L 49.65 29.83 Z" stroke="rgba(255,255,255,0.92)" stroke-width="1.0" fill="none"/>
  <path d="M 49.48 37.08 L 38.13 37.26 L 32.07 37.98 L 28.46 39.00 L 26.32 40.68 L 24.63 42.88 L 23.80 45.49 L 23.80 48.48 L 23.85 49.61" stroke="rgba(255,255,255,0.92)" stroke-width="1.0" fill="none"/>
  <path d="M 49.48 62.14 L 38.13 61.97 L 32.07 61.25 L 28.46 60.23 L 26.32 58.54 L 24.63 56.35 L 23.80 53.73 L 23.80 50.74 L 23.85 49.61" stroke="rgba(255,255,255,0.92)" stroke-width="1.0" fill="none"/>
  <path d="M 49.48 37.08 L 60.84 37.26 L 66.89 37.98 L 70.51 39.00 L 72.65 40.68 L 74.34 42.88 L 75.17 45.49 L 75.17 48.48 L 75.12 49.61" stroke="rgba(255,255,255,0.92)" stroke-width="1.0" fill="none"/>
  <path d="M 49.48 62.14 L 60.84 61.97 L 66.89 61.25 L 70.51 60.23 L 72.65 58.54 L 74.34 56.35 L 75.17 53.73 L 75.17 50.74 L 75.12 49.61" stroke="rgba(255,255,255,0.92)" stroke-width="1.0" fill="none"/>
  <circle cx="48.04" cy="40.87" r="1.85" stroke="rgba(255,255,255,0.92)" stroke-width="1.0" fill="none"/>
  <path d="M 45.92 32.15 L 50.21 32.15 L 50.21 31.59 L 45.92 31.59 Z" stroke="rgba(255,255,255,0.92)" stroke-width="1.0" fill="none"/>
  <path d="M 99.93 49.86 L 99.93 48.08" stroke="rgba(255,255,255,0.92)" stroke-width="1.0" fill="none"/>
  <path d="M 0.84 52.16 L 0.84 48.59" stroke="rgba(255,255,255,0.92)" stroke-width="1.0" fill="none"/>
</svg>
