<svg xmlns="http://www.w3.org/2000/svg" viewBox="0 0 100 100" width="100" height="100">
  <path d="M 20.00 74.52 L 90.95 74.52" stroke="rgba(255,255,255,0.92)" stroke-width="1.0" fill="none"/>
  <path d="M 12.18 64.62 L 21.17 64.62" stroke="rgba(255,255,255,0.92)" stroke-width="1.0" fill="none"/>
  <path d="M 91.98 64.62 L 96.23 64.62" stroke="rgba(255,255,255,0.92)" stroke-width="1.0" fill="none"/>
  <path d="M 0.07 12.77 A 89.16 89.16 0 0 1 18.31 -35.02" stroke="rgba(255,255,255,0.92)" stroke-width="1.0" fill="none"/>
  <path d="M 18.31 71.11 A 2.12 2.12 0 0 1 20.00 70.28" stroke="rgba(255,255,255,0.92)" stroke-width="1.0" fill="none"/>
  <path d="M 0.90 -876.12 A 457.87 457.87 0 0 1 98.31 -883.06" stroke="rgba(255,255,255,0.92)" stroke-width="1.0" fill="none"/>
  <path d="M 0.90 26.55 A 0.71 0.71 0 0 1 0.07 25.81" stroke="rgba(255,255,255,0.92)" stroke-width="1.0" fill="none"/>
  <path d="M 99.04 32.79 A 0.71 0.71 0 0 1 98.31 33.52" stroke="rgba(255,255,255,0.92)" stroke-width="1.0" fill="none"/>
  <path d="M 0.17 -878.15 A 460.00 460.00 0 0 1 99.01 -885.16" stroke="rgba(255,255,255,0.92)" stroke-width="1.0" fill="none"/>
  <path d="M 95.12 -15.12 A 236.10 236.10 0 0 1 99.04 23.12" stroke="rgba(255,255,255,0.92)" stroke-width="1.0" fill="none"/>
  <path d="M 90.95 66.03 A 4.24 4.24 0 0 1 95.13 69.50" stroke="rgba(255,255,255,0.92)" stroke-width="1.0" fill="none"/>
  <path d="M 1.34 -7.63 A 83.28 83.28 0 0 1 21.23 -47.08" stroke="rgba(255,255,255,0.92)" stroke-width="1.0" fill="none"/>
  <path d="M 91.98 -14.29 A 131.72 131.72 0 0 1 97.84 18.21" stroke="rgba(255,255,255,0.92)" stroke-width="1.0" fill="none"/>
  <path d="M 21.23 64.69 L 91.98 64.62" stroke="rgba(255,255,255,0.92)" stroke-width="1.0" fill="none"/>
  <path d="M 51.93 28.84 L 44.00 72.78" stroke="rgba(255,255,255,0.92)" stroke-width="1.0" fill="none"/>
  <path d="M 50.27 26.63 L 42.37 62.34" stroke="rgba(255,255,255,0.92)" stroke-width="1.0" fill="none"/>
  <path d="M 0.07 28.84 L 8.00 72.78" stroke="rgba(255,255,255,0.92)" stroke-width="1.0" fill="none"/>
  <path d="M 1.91 26.60 L 9.63 62.34" stroke="rgba(255,255,255,0.92)" stroke-width="1.0" fill="none"/>
  <path d="M 50.09 387.76 A 182.18 182.18 0 0 1 1.91 387.76" stroke="rgba(255,255,255,0.92)" stroke-width="1.0" fill="none"/>
  <path d="M 51.93 28.57 A 2.12 2.12 0 0 1 50.09 30.81" stroke="rgba(255,255,255,0.92)" stroke-width="1.0" fill="none"/>
  <path d="M 1.91 30.81 A 2.12 2.12 0 0 1 0.07 28.57" stroke="rgba(255,255,255,0.92)" stroke-width="1.0" fill="none"/>
  <path d="M 41.91 74.52 L 10.09 74.52" stroke="rgba(255,255,255,0.92)" stroke-width="1.0" fill="none"/>
  <path d="M 39.59 64.62 L 12.41 64.62" stroke="rgba(255,255,255,0.92)" stroke-width="1.0" fill="none"/>
  <path d="M 39.59 58.96 A 2.83 2.83 0 0 1 42.37 61.24" stroke="rgba(255,255,255,0.92)" stroke-width="1.0" fill="none"/>
  <path d="M 9.63 61.24 A 2.83 2.83 0 0 1 12.41 58.96" stroke="rgba(255,255,255,0.92)" stroke-width="1.0" fill="none"/>
  <path d="M 41.91 70.28 A 2.12 2.12 0 0 1 44.00 72.02" stroke="rgba(255,255,255,0.92)" stroke-width="1.0" fill="none"/>
  <path d="M 8.00 72.02 A 2.12 2.12 0 0 1 10.09 70.28" stroke="rgba(255,255,255,0.92)" stroke-width="1.0" fill="none"/>
  <path d="M 1.91 26.60 L 10.09 74.52" stroke="rgba(255,255,255,0.92)" stroke-width="1.0" fill="none"/>
  <path d="M 50.09 26.60 L 41.91 74.52" stroke="rgba(255,255,255,0.92)" stroke-width="1.0" fill="none"/>
  <path d="M 25.17 24.04 L 78.61 27.01" stroke="rgba(255,255,255,0.92)" stroke-width="1.0" fill="none"/>
  <path d="M 35.39 33.11 L 82.24 35.71" stroke="rgba(255,255,255,0.92)" stroke-width="1.0" fill="none"/>
  <path d="M 25.78 26.20 L 76.90 29.04" stroke="rgba(255,255,255,0.92)" stroke-width="1.0" fill="none"/>
  <path d="M 25.17 75.96 L 78.61 72.99" stroke="rgba(255,255,255,0.92)" stroke-width="1.0" fill="none"/>
  <path d="M 35.39 66.89 L 82.24 64.29" stroke="rgba(255,255,255,0.92)" stroke-width="1.0" fill="none"/>
  <path d="M 25.78 73.80 L 76.90 70.96" stroke="rgba(255,255,255,0.92)" stroke-width="1.0" fill="none"/>
  <path d="M 13.24 73.07 A 26.75 26.75 0 0 1 13.24 26.93" stroke="rgba(255,255,255,0.92)" stroke-width="1.0" fill="none"/>
  <path d="M 13.24 36.47 A 21.22 21.22 0 0 1 25.17 33.58" stroke="rgba(255,255,255,0.92)" stroke-width="1.0" fill="none"/>
  <path d="M 25.17 66.42 A 21.22 21.22 0 0 1 13.24 63.53" stroke="rgba(255,255,255,0.92)" stroke-width="1.0" fill="none"/>
  <path d="M 10.94 68.86 A 24.63 24.63 0 0 1 10.94 31.14" stroke="rgba(255,255,255,0.92)" stroke-width="1.0" fill="none"/>
  <path d="M 10.94 36.36 A 21.22 21.22 0 0 1 25.78 31.42" stroke="rgba(255,255,255,0.92)" stroke-width="1.0" fill="none"/>
  <path d="M 25.78 68.58 A 21.22 21.22 0 0 1 10.94 63.64" stroke="rgba(255,255,255,0.92)" stroke-width="1.0" fill="none"/>
  <path d="M 96.34 38.56 A 25.19 25.19 0 0 1 96.34 61.44" stroke="rgba(255,255,255,0.92)" stroke-width="1.0" fill="none"/>
  <path d="M 78.61 23.45 A 25.02 25.02 0 0 1 96.34 35.00" stroke="rgba(255,255,255,0.92)" stroke-width="1.0" fill="none"/>
  <path d="M 96.34 64.90 A 24.97 24.97 0 0 1 78.61 76.45" stroke="rgba(255,255,255,0.92)" stroke-width="1.0" fill="none"/>
  <path d="M 76.90 28.58 A 21.22 21.22 0 0 1 96.95 49.77" stroke="rgba(255,255,255,0.92)" stroke-width="1.0" fill="none"/>
  <path d="M 96.95 50.46 A 21.22 21.22 0 0 1 76.90 71.42" stroke="rgba(255,255,255,0.92)" stroke-width="1.0" fill="none"/>
  <path d="M 35.39 66.89 A 17.16 17.16 0 0 1 35.39 33.11" stroke="rgba(255,255,255,0.92)" stroke-width="1.0" fill="none"/>
  <path d="M 86.73 37.66 A 17.06 17.06 0 0 1 86.73 62.34" stroke="rgba(255,255,255,0.92)" stroke-width="1.0" fill="none"/>
  <path d="M 82.24 50.16 A 7.07 7.07 0 0 1 86.73 52.11" stroke="rgba(255,255,255,0.92)" stroke-width="1.0" fill="none"/>
  <path d="M 86.73 47.89 A 7.07 7.07 0 0 1 82.24 49.84" stroke="rgba(255,255,255,0.92)" stroke-width="1.0" fill="none"/>
  <circle cx="87.12" cy="50.00" r="1.77" stroke="rgba(255,255,255,0.92)" stroke-width="1.0" fill="none"/>
  <circle cx="87.12" cy="50.00" r="1.41" stroke="rgba(255,255,255,0.92)" stroke-width="1.0" fill="none"/>
</svg>
