<svg xmlns="http://www.w3.org/2000/svg" viewBox="0 0 100 100" width="100" height="100">
  <path d="M 100.00 78.41 L 100.00 24.82" stroke="rgba(255,255,255,0.92)" stroke-width="1.0" fill="none"/>
  <path d="M 100.00 24.82 A 3.61 3.61 0 0 1 96.39 28.43" stroke="rgba(255,255,255,0.92)" stroke-width="1.0" fill="none"/>
  <path d="M 96.91 30.80 A 2.50 2.50 0 0 1 96.71 33.54" stroke="rgba(255,255,255,0.92)" stroke-width="1.0" fill="none"/>
  <path d="M 96.99 75.40 A 3.01 3.01 0 0 1 100.00 78.41" stroke="rgba(255,255,255,0.92)" stroke-width="1.0" fill="none"/>
  <path d="M 96.39 21.21 L 12.68 21.21" stroke="rgba(255,255,255,0.92)" stroke-width="1.0" fill="none"/>
  <path d="M 12.68 27.23 A 3.01 3.01 0 0 1 9.67 24.22" stroke="rgba(255,255,255,0.92)" stroke-width="1.0" fill="none"/>
  <path d="M 96.99 81.42 L 67.76 81.42" stroke="rgba(255,255,255,0.92)" stroke-width="1.0" fill="none"/>
  <path d="M 80.99 79.02 L 67.76 79.02" stroke="rgba(255,255,255,0.92)" stroke-width="1.0" fill="none"/>
  <path d="M 9.67 20.28 A 59.19 59.19 0 0 1 69.89 -36.93" stroke="rgba(255,255,255,0.92)" stroke-width="1.0" fill="none"/>
  <path d="M 33.09 -21.87 A 56.78 56.78 0 0 1 67.79 -34.52" stroke="rgba(255,255,255,0.92)" stroke-width="1.0" fill="none"/>
  <path d="M 95.15 56.77 L 95.15 42.02" stroke="rgba(255,255,255,0.92)" stroke-width="1.0" fill="none"/>
  <path d="M 94.85 56.77 L 94.85 42.02" stroke="rgba(255,255,255,0.92)" stroke-width="1.0" fill="none"/>
  <path d="M 95.27 40.40 L 95.43 40.12" stroke="rgba(255,255,255,0.92)" stroke-width="1.0" fill="none"/>
  <path d="M 95.26 42.82 A 3.01 3.01 0 0 1 95.15 42.02" stroke="rgba(255,255,255,0.92)" stroke-width="1.0" fill="none"/>
  <path d="M 95.27 43.64 A 3.31 3.31 0 0 1 94.85 42.02" stroke="rgba(255,255,255,0.92)" stroke-width="1.0" fill="none"/>
  <path d="M 92.20 61.82 A 46.22 46.22 0 0 1 92.18 62.54" stroke="rgba(255,255,255,0.92)" stroke-width="1.0" fill="none"/>
  <path d="M 42.83 -28.23 A 56.78 56.78 0 0 1 49.64 -31.19" stroke="rgba(255,255,255,0.92)" stroke-width="1.0" fill="none"/>
  <path d="M 67.35 77.49 L 79.39 77.49" stroke="rgba(255,255,255,0.92)" stroke-width="1.0" fill="none"/>
  <path d="M 19.88 52.66 A 16.25 16.25 0 0 1 17.64 51.05" stroke="rgba(255,255,255,0.92)" stroke-width="1.0" fill="none"/>
  <path d="M 17.64 45.07 A 14.07 14.07 0 0 1 16.18 43.11" stroke="rgba(255,255,255,0.92)" stroke-width="1.0" fill="none"/>
  <path d="M 21.73 31.44 A 3.61 3.61 0 0 1 19.88 30.94" stroke="rgba(255,255,255,0.92)" stroke-width="1.0" fill="none"/>
  <path d="M 64.32 29.99 L 64.46 32.73" stroke="rgba(255,255,255,0.92)" stroke-width="1.0" fill="none"/>
  <path d="M 63.55 119.02 A 48.52 48.52 0 0 1 47.01 123.93" stroke="rgba(255,255,255,0.92)" stroke-width="1.0" fill="none"/>
  <path d="M 63.55 23.77 A 4.82 4.82 0 0 1 67.81 23.74" stroke="rgba(255,255,255,0.92)" stroke-width="1.0" fill="none"/>
  <path d="M 66.92 32.74 L 67.07 29.75" stroke="rgba(255,255,255,0.92)" stroke-width="1.0" fill="none"/>
  <path d="M 63.61 29.82 L 63.74 32.48" stroke="rgba(255,255,255,0.92)" stroke-width="1.0" fill="none"/>
  <path d="M 67.76 32.44 L 67.91 29.47" stroke="rgba(255,255,255,0.92)" stroke-width="1.0" fill="none"/>
  <path d="M 65.74 30.12 L 65.71 30.93" stroke="rgba(255,255,255,0.92)" stroke-width="1.0" fill="none"/>
  <path d="M 65.66 32.46 L 65.64 32.90" stroke="rgba(255,255,255,0.92)" stroke-width="1.0" fill="none"/>
  <path d="M 92.24 32.15 A 4.52 4.52 0 0 1 89.68 32.95" stroke="rgba(255,255,255,0.92)" stroke-width="1.0" fill="none"/>
  <path d="M 81.54 113.48 A 43.49 43.49 0 0 1 67.81 108.75" stroke="rgba(255,255,255,0.92)" stroke-width="1.0" fill="none"/>
  <path d="M 48.43 -31.05 A 58.09 58.09 0 0 1 58.89 -35.18" stroke="rgba(255,255,255,0.92)" stroke-width="1.0" fill="none"/>
  <path d="M 64.33 34.61 A 1.81 1.81 0 0 1 66.96 34.61" stroke="rgba(255,255,255,0.92)" stroke-width="1.0" fill="none"/>
  <path d="M 81.54 121.73 A 51.11 51.11 0 0 1 66.96 112.32" stroke="rgba(255,255,255,0.92)" stroke-width="1.0" fill="none"/>
  <path d="M 64.33 200.50 A 99.45 99.45 0 0 1 47.01 210.11" stroke="rgba(255,255,255,0.92)" stroke-width="1.0" fill="none"/>
  <path d="M 62.05 153.39 A 68.24 68.24 0 0 1 48.49 157.89" stroke="rgba(255,255,255,0.92)" stroke-width="1.0" fill="none"/>
  <path d="M 64.21 152.02 A 67.94 67.94 0 0 1 47.59 157.77" stroke="rgba(255,255,255,0.92)" stroke-width="1.0" fill="none"/>
  <path d="M 64.21 24.52 A 3.31 3.31 0 0 1 67.16 24.52" stroke="rgba(255,255,255,0.92)" stroke-width="1.0" fill="none"/>
  <path d="M 79.05 81.11 A 29.20 29.20 0 0 1 69.04 76.68" stroke="rgba(255,255,255,0.92)" stroke-width="1.0" fill="none"/>
  <path d="M 79.43 80.88 A 28.90 28.90 0 0 1 67.16 74.87" stroke="rgba(255,255,255,0.92)" stroke-width="1.0" fill="none"/>
  <path d="M 79.05 24.21 L 78.73 28.24" stroke="rgba(255,255,255,0.92)" stroke-width="1.0" fill="none"/>
  <path d="M 81.73 25.28 L 81.54 27.68" stroke="rgba(255,255,255,0.92)" stroke-width="1.0" fill="none"/>
  <path d="M 58.89 76.51 L 67.35 77.49" stroke="rgba(255,255,255,0.92)" stroke-width="1.0" fill="none"/>
  <path d="M 82.58 28.93 A 3.02 3.02 0 0 1 81.73 27.86" stroke="rgba(255,255,255,0.92)" stroke-width="1.0" fill="none"/>
  <path d="M 17.67 -9.25 A 72.64 72.64 0 0 1 33.09 -33.84" stroke="rgba(255,255,255,0.92)" stroke-width="1.0" fill="none"/>
  <path d="M 16.18 35.79 A 28.01 28.01 0 0 1 17.80 21.97" stroke="rgba(255,255,255,0.92)" stroke-width="1.0" fill="none"/>
  <circle cx="56.34" cy="44.25" r="1.81" stroke="rgba(255,255,255,0.92)" stroke-width="1.0" fill="none"/>
  <circle cx="61.58" cy="46.76" r="1.81" stroke="rgba(255,255,255,0.92)" stroke-width="1.0" fill="none"/>
  <circle cx="37.93" cy="44.25" r="1.81" stroke="rgba(255,255,255,0.92)" stroke-width="1.0" fill="none"/>
  <circle cx="65.68" cy="31.69" r="0.76" stroke="rgba(255,255,255,0.92)" stroke-width="1.0" fill="none"/>
  <circle cx="65.68" cy="31.84" r="0.61" stroke="rgba(255,255,255,0.92)" stroke-width="1.0" fill="none"/>
  <path d="M 58.63 116.53 A 45.33 45.33 0 0 1 40.98 122.64" stroke="rgba(255,255,255,0.92)" stroke-width="1.0" fill="none"/>
  <path d="M 21.21 37.69 A 1.20 1.20 0 0 1 23.18 38.63" stroke="rgba(255,255,255,0.92)" stroke-width="1.0" fill="none"/>
  <path d="M 24.02 30.98 A 0.60 0.60 0 0 1 24.03 31.17" stroke="rgba(255,255,255,0.92)" stroke-width="1.0" fill="none"/>
  <path d="M 96.91 32.73 L 96.91 32.73" stroke="rgba(255,255,255,0.92)" stroke-width="1.0" fill="none"/>
  <path d="M 50.67 25.09 L 76.01 25.09" stroke="rgba(255,255,255,0.92)" stroke-width="1.0" fill="none"/>
  <path d="M 47.48 24.68 L 47.59 24.70" stroke="rgba(255,255,255,0.92)" stroke-width="1.0" fill="none"/>
  <path d="M 23.69 24.72 L 24.24 24.58" stroke="rgba(255,255,255,0.92)" stroke-width="1.0" fill="none"/>
  <path d="M 62.48 36.14 L 65.73 42.06" stroke="rgba(255,255,255,0.92)" stroke-width="1.0" fill="none"/>
  <path d="M 68.96 35.34 L 67.03 42.17" stroke="rgba(255,255,255,0.92)" stroke-width="1.0" fill="none"/>
  <path d="M 64.86 37.48 L 65.97 42.10" stroke="rgba(255,255,255,0.92)" stroke-width="1.0" fill="none"/>
  <path d="M 66.96 37.09 L 66.36 42.14" stroke="rgba(255,255,255,0.92)" stroke-width="1.0" fill="none"/>
  <path d="M 81.54 27.68 L 73.13 39.38" stroke="rgba(255,255,255,0.92)" stroke-width="1.0" fill="none"/>
  <path d="M 48.36 29.33 L 54.89 36.79" stroke="rgba(255,255,255,0.92)" stroke-width="1.0" fill="none"/>
  <path d="M 95.43 27.90 A 15.88 15.88 0 0 1 96.61 35.15" stroke="rgba(255,255,255,0.92)" stroke-width="1.0" fill="none"/>
  <path d="M 95.26 26.81 A 16.18 16.18 0 0 1 96.91 35.17" stroke="rgba(255,255,255,0.92)" stroke-width="1.0" fill="none"/>
  <circle cx="61.58" cy="46.76" r="1.37" stroke="rgba(255,255,255,0.92)" stroke-width="1.0" fill="none"/>
  <circle cx="56.34" cy="44.25" r="1.37" stroke="rgba(255,255,255,0.92)" stroke-width="1.0" fill="none"/>
  <circle cx="37.93" cy="44.25" r="1.37" stroke="rgba(255,255,255,0.92)" stroke-width="1.0" fill="none"/>
  <path d="M 85.13 35.05 L 85.19 35.01 L 85.26 34.97 L 85.33 34.95 L 85.41 34.93 L 85.48 34.93 L 85.56 34.93 L 85.64 34.94 L 85.71 34.97 L 85.78 35.00 L 85.85 35.04 L 85.91 35.09 L 85.96 35.15 L 86.01 35.22 L 86.04 35.29 L 86.07 35.36 L 86.09 35.43 L 86.10 35.51 L 86.10 35.59 L 86.09 35.67 L 86.06 35.74 L 86.03 35.81 L 85.99 35.87 L 85.94 35.93 L 85.89 35.99 L 85.83 36.03 L 85.76 36.06 L 85.69 36.09 L 85.61 36.11 L 85.54 36.11 L 85.46 36.11 L 85.38 36.09 L 85.31 36.07 L 85.24 36.04 L 85.17 36.00 L 85.11 35.94 L 85.06 35.89 L 85.01 35.82 L 84.98 35.75 L 84.95 35.68 L 84.93 35.60 L 84.92 35.53 L 84.92 35.45 L 84.93 35.37 L 84.96 35.30 L 84.99 35.23 L 85.03 35.16 L 85.08 35.11 L 85.13 35.05" stroke="rgba(255,255,255,0.92)" stroke-width="1.0" fill="none"/>
  <path d="M 86.29 34.82 L 86.36 34.90 L 86.42 34.98 L 86.47 35.07 L 86.51 35.17 L 86.53 35.28 L 86.54 35.38 L 86.53 35.49 L 86.51 35.60 L 86.48 35.70 L 86.43 35.80 L 86.37 35.90 L 86.30 35.99 L 86.22 36.06 L 86.13 36.13 L 86.04 36.19 L 85.94 36.23 L 85.83 36.26 L 85.72 36.28 L 85.62 36.28 L 85.51 36.27 L 85.41 36.24 L 85.31 36.20 L 85.22 36.15 L 85.14 36.08 L 85.07 36.01 L 85.01 35.93 L 84.96 35.83 L 84.93 35.73 L 84.90 35.63 L 84.90 35.52 L 84.90 35.41 L 84.92 35.31 L 84.96 35.20 L 85.00 35.10 L 85.06 35.01 L 85.13 34.92 L 85.21 34.84 L 85.30 34.77 L 85.40 34.72 L 85.50 34.68 L 85.60 34.65 L 85.71 34.63 L 85.82 34.63 L 85.92 34.64 L 86.02 34.66 L 86.12 34.70 L 86.21 34.76 L 86.29 34.82" stroke="rgba(255,255,255,0.92)" stroke-width="1.0" fill="none"/>
  <path d="M 2.20 69.42 L 92.52 69.42" stroke="rgba(255,255,255,0.92)" stroke-width="1.0" fill="none"/>
  <path d="M 2.20 68.21 L 92.52 68.21" stroke="rgba(255,255,255,0.92)" stroke-width="1.0" fill="none"/>
  <path d="M 2.20 33.29 L 92.52 33.29" stroke="rgba(255,255,255,0.92)" stroke-width="1.0" fill="none"/>
  <path d="M 2.20 33.29 L 2.20 42.63" stroke="rgba(255,255,255,0.92)" stroke-width="1.0" fill="none"/>
  <path d="M 2.20 68.21 L 2.20 69.42" stroke="rgba(255,255,255,0.92)" stroke-width="1.0" fill="none"/>
  <path d="M 0.99 44.95 L 0.99 47.86" stroke="rgba(255,255,255,0.92)" stroke-width="1.0" fill="none"/>
  <path d="M 0.39 42.42 L 0.39 44.72" stroke="rgba(255,255,255,0.92)" stroke-width="1.0" fill="none"/>
  <path d="M 92.52 33.29 L 92.52 44.43" stroke="rgba(255,255,255,0.92)" stroke-width="1.0" fill="none"/>
  <path d="M 92.52 68.21 L 92.52 69.42" stroke="rgba(255,255,255,0.92)" stroke-width="1.0" fill="none"/>
  <path d="M 93.73 48.80 L 93.73 65.21" stroke="rgba(255,255,255,0.92)" stroke-width="1.0" fill="none"/>
  <path d="M 94.33 44.29 L 94.33 48.63" stroke="rgba(255,255,255,0.92)" stroke-width="1.0" fill="none"/>
  <path d="M 1.59 48.11 L 1.59 68.21" stroke="rgba(255,255,255,0.92)" stroke-width="1.0" fill="none"/>
  <path d="M 93.13 65.25 L 93.13 68.21" stroke="rgba(255,255,255,0.92)" stroke-width="1.0" fill="none"/>
  <path d="M 2.20 68.21 L 1.59 68.21" stroke="rgba(255,255,255,0.92)" stroke-width="1.0" fill="none"/>
  <path d="M 92.52 68.21 L 93.13 68.21" stroke="rgba(255,255,255,0.92)" stroke-width="1.0" fill="none"/>
  <path d="M 3.13 33.29 L 3.13 69.42" stroke="rgba(255,255,255,0.92)" stroke-width="1.0" fill="none"/>
  <path d="M 40.28 33.29 L 40.28 69.42" stroke="rgba(255,255,255,0.92)" stroke-width="1.0" fill="none"/>
  <path d="M 4.98 33.29 L 4.98 69.42" stroke="rgba(255,255,255,0.92)" stroke-width="1.0" fill="none"/>
  <path d="M 6.82 33.29 L 6.82 69.42" stroke="rgba(255,255,255,0.92)" stroke-width="1.0" fill="none"/>
  <path d="M 8.81 33.29 L 8.81 69.42" stroke="rgba(255,255,255,0.92)" stroke-width="1.0" fill="none"/>
  <path d="M 13.01 33.29 L 13.01 69.42" stroke="rgba(255,255,255,0.92)" stroke-width="1.0" fill="none"/>
  <path d="M 15.69 33.29 L 15.69 69.42" stroke="rgba(255,255,255,0.92)" stroke-width="1.0" fill="none"/>
  <path d="M 19.38 33.29 L 19.38 69.42" stroke="rgba(255,255,255,0.92)" stroke-width="1.0" fill="none"/>
  <path d="M 24.46 33.29 L 24.46 69.42" stroke="rgba(255,255,255,0.92)" stroke-width="1.0" fill="none"/>
  <path d="M 31.94 33.29 L 31.94 69.42" stroke="rgba(255,255,255,0.92)" stroke-width="1.0" fill="none"/>
  <path d="M 51.28 33.29 L 51.28 69.42" stroke="rgba(255,255,255,0.92)" stroke-width="1.0" fill="none"/>
  <path d="M 80.11 29.38 L 79.51 30.33" stroke="rgba(255,255,255,0.92)" stroke-width="1.0" fill="none"/>
  <path d="M 16.37 -79.60 A 63.82 63.82 0 0 1 38.97 -90.41" stroke="rgba(255,255,255,0.92)" stroke-width="1.0" fill="none"/>
  <path d="M 1.81 65.99 L 92.13 65.99" stroke="rgba(255,255,255,0.92)" stroke-width="1.0" fill="none"/>
  <path d="M 1.81 64.79 L 92.13 64.79" stroke="rgba(255,255,255,0.92)" stroke-width="1.0" fill="none"/>
  <path d="M 1.81 29.86 L 92.13 29.86" stroke="rgba(255,255,255,0.92)" stroke-width="1.0" fill="none"/>
  <path d="M 1.81 29.86 L 1.81 39.20" stroke="rgba(255,255,255,0.92)" stroke-width="1.0" fill="none"/>
  <path d="M 1.81 64.79 L 1.81 65.99" stroke="rgba(255,255,255,0.92)" stroke-width="1.0" fill="none"/>
  <path d="M 0.60 41.52 L 0.60 44.44" stroke="rgba(255,255,255,0.92)" stroke-width="1.0" fill="none"/>
  <path d="M 0.00 39.00 L 0.00 41.30" stroke="rgba(255,255,255,0.92)" stroke-width="1.0" fill="none"/>
  <path d="M 92.13 29.86 L 92.13 41.01" stroke="rgba(255,255,255,0.92)" stroke-width="1.0" fill="none"/>
  <path d="M 92.13 64.79 L 92.13 65.99" stroke="rgba(255,255,255,0.92)" stroke-width="1.0" fill="none"/>
  <path d="M 93.34 45.38 L 93.34 61.79" stroke="rgba(255,255,255,0.92)" stroke-width="1.0" fill="none"/>
  <path d="M 93.94 40.86 L 93.94 45.21" stroke="rgba(255,255,255,0.92)" stroke-width="1.0" fill="none"/>
  <path d="M 14.81 -390.56 A 215.04 215.04 0 0 1 56.79 -398.54" stroke="rgba(255,255,255,0.92)" stroke-width="1.0" fill="none"/>
  <path d="M 1.20 44.69 L 1.20 64.79" stroke="rgba(255,255,255,0.92)" stroke-width="1.0" fill="none"/>
  <path d="M 92.74 61.82 L 92.74 64.79" stroke="rgba(255,255,255,0.92)" stroke-width="1.0" fill="none"/>
  <path d="M 1.81 64.79 L 1.20 64.79" stroke="rgba(255,255,255,0.92)" stroke-width="1.0" fill="none"/>
  <path d="M 92.13 64.79 L 92.74 64.79" stroke="rgba(255,255,255,0.92)" stroke-width="1.0" fill="none"/>
  <path d="M 83.06 26.16 A 1.20 1.20 0 0 1 82.36 26.28" stroke="rgba(255,255,255,0.92)" stroke-width="1.0" fill="none"/>
  <path d="M 86.58 26.39 L 88.34 29.86" stroke="rgba(255,255,255,0.92)" stroke-width="1.0" fill="none"/>
  <path d="M 59.90 29.86 L 59.90 65.99" stroke="rgba(255,255,255,0.92)" stroke-width="1.0" fill="none"/>
  <path d="M 22.75 29.86 L 22.75 65.99" stroke="rgba(255,255,255,0.92)" stroke-width="1.0" fill="none"/>
  <path d="M 58.05 29.86 L 58.05 65.99" stroke="rgba(255,255,255,0.92)" stroke-width="1.0" fill="none"/>
  <path d="M 56.21 29.86 L 56.21 65.99" stroke="rgba(255,255,255,0.92)" stroke-width="1.0" fill="none"/>
  <path d="M 54.23 29.86 L 54.23 65.99" stroke="rgba(255,255,255,0.92)" stroke-width="1.0" fill="none"/>
  <path d="M 52.34 29.86 L 52.34 65.99" stroke="rgba(255,255,255,0.92)" stroke-width="1.0" fill="none"/>
  <path d="M 50.02 29.86 L 50.02 65.99" stroke="rgba(255,255,255,0.92)" stroke-width="1.0" fill="none"/>
  <path d="M 47.34 29.86 L 47.34 65.99" stroke="rgba(255,255,255,0.92)" stroke-width="1.0" fill="none"/>
  <path d="M 43.65 29.86 L 43.65 65.99" stroke="rgba(255,255,255,0.92)" stroke-width="1.0" fill="none"/>
  <path d="M 38.58 29.86 L 38.58 65.99" stroke="rgba(255,255,255,0.92)" stroke-width="1.0" fill="none"/>
  <path d="M 31.09 29.86 L 31.09 65.99" stroke="rgba(255,255,255,0.92)" stroke-width="1.0" fill="none"/>
  <path d="M 11.76 29.86 L 11.76 65.99" stroke="rgba(255,255,255,0.92)" stroke-width="1.0" fill="none"/>
</svg>
