<svg xmlns="http://www.w3.org/2000/svg" viewBox="0 0 100.00 100.00" data-cad-width="121.0" data-cad-height="121.0">
  <path d="M 22.73 77.27 L 77.27 77.27 L 77.27 22.73 L 22.73 22.73 Z" stroke="rgba(255,255,255,0.92)" stroke-width="1.0" fill="none"/>
  <path d="M 41.42 42.16 L 58.58 42.16 L 58.58 57.84 L 41.42 57.84 Z" stroke="rgba(255,255,255,0.92)" stroke-width="1.0" fill="none"/>
  <path d="M 18.60 85.54 L 81.40 85.54 L 85.54 81.40 L 85.54 18.60 L 81.40 14.46 L 18.60 14.46 L 14.46 18.60 L 14.46 81.40 Z" stroke="rgba(255,255,255,0.92)" stroke-width="1.0" fill="none"/>
  <path d="M 43.51 48.77 L 46.17 48.77" stroke="rgba(255,255,255,0.92)" stroke-width="1.0" fill="none"/>
  <path d="M 46.17 48.77 L 46.17 45.26" stroke="rgba(255,255,255,0.92)" stroke-width="1.0" fill="none"/>
  <path d="M 46.17 45.26 L 53.89 45.26" stroke="rgba(255,255,255,0.92)" stroke-width="1.0" fill="none"/>
  <path d="M 53.89 45.26 L 53.89 48.77" stroke="rgba(255,255,255,0.92)" stroke-width="1.0" fill="none"/>
  <path d="M 53.89 48.77 L 56.59 48.77" stroke="rgba(255,255,255,0.92)" stroke-width="1.0" fill="none"/>
  <path d="M 43.51 48.77 L 43.51 55.27" stroke="rgba(255,255,255,0.92)" stroke-width="1.0" fill="none"/>
  <path d="M 43.51 55.27 L 56.59 55.27" stroke="rgba(255,255,255,0.92)" stroke-width="1.0" fill="none"/>
  <path d="M 56.59 55.27 L 56.59 48.77" stroke="rgba(255,255,255,0.92)" stroke-width="1.0" fill="none"/>
  <path d="M 43.08 43.81 L 56.92 43.81 L 56.92 56.19 L 43.08 56.19 Z" stroke="rgba(255,255,255,0.92)" stroke-width="1.0" fill="none"/>
  <path d="M 0.00 50.00 L 100.00 50.00" stroke="rgba(255,255,255,0.92)" stroke-width="1.0" fill="none"/>
  <path d="M 50.00 100.00 L 50.00 0.00" stroke="rgba(255,255,255,0.92)" stroke-width="1.0" fill="none"/>
</svg>
