<svg xmlns="http://www.w3.org/2000/svg" viewBox="0 0 100.00 100.00" data-cad-width="4.0" data-cad-height="4.0">
  <path d="M 100.00 50.00 L 99.57 56.53 L 98.30 62.94 L 96.19 69.13 L 93.30 75.00 L 89.67 80.44 L 85.36 85.36 L 80.44 89.67 L 75.00 93.30 L 69.13 96.19 L 62.94 98.30 L 56.53 99.57 L 50.00 100.00 L 43.47 99.57 L 37.06 98.30 L 30.87 96.19 L 25.00 93.30 L 19.56 89.67 L 14.64 85.36 L 10.33 80.44 L 6.70 75.00 L 3.81 69.13 L 1.70 62.94 L 0.43 56.53 L 0.00 50.00 L 0.43 43.47 L 1.70 37.06 L 3.81 30.87 L 6.70 25.00 L 10.33 19.56 L 14.64 14.64 L 19.56 10.33 L 25.00 6.70 L 30.87 3.81 L 37.06 1.70 L 43.47 0.43 L 50.00 0.00 L 56.53 0.43 L 62.94 1.70 L 69.13 3.81 L 75.00 6.70 L 80.44 10.33 L 85.36 14.64 L 89.67 19.56 L 93.30 25.00 L 96.19 30.87 L 98.30 37.06 L 99.57 43.47 L 100.00 50.00" stroke="rgba(255,255,255,0.92)" stroke-width="1.0" fill="none"/>
</svg>
