<svg xmlns="http://www.w3.org/2000/svg" viewBox="0 0 100 100" width="100" height="100">
  <path d="M 76.09 43.00 L 76.09 42.09" stroke="rgba(255,255,255,0.92)" stroke-width="1.0" fill="none"/>
  <path d="M 99.72 43.00 L 99.72 42.09" stroke="rgba(255,255,255,0.92)" stroke-width="1.0" fill="none"/>
  <path d="M 99.42 41.78 L 98.50 41.78" stroke="rgba(255,255,255,0.92)" stroke-width="1.0" fill="none"/>
  <path d="M 98.50 43.00 L 77.31 43.00" stroke="rgba(255,255,255,0.92)" stroke-width="1.0" fill="none"/>
  <path d="M 77.31 41.78 L 76.39 41.78" stroke="rgba(255,255,255,0.92)" stroke-width="1.0" fill="none"/>
  <path d="M 99.72 42.09 A 0.30 0.30 0 0 1 99.42 42.39" stroke="rgba(255,255,255,0.92)" stroke-width="1.0" fill="none"/>
  <path d="M 99.88 43.00 L 99.72 43.00" stroke="rgba(255,255,255,0.92)" stroke-width="1.0" fill="none"/>
  <path d="M 76.39 42.39 A 0.30 0.30 0 0 1 76.09 42.09" stroke="rgba(255,255,255,0.92)" stroke-width="1.0" fill="none"/>
  <path d="M 99.72 43.00 L 75.93 43.00" stroke="rgba(255,255,255,0.92)" stroke-width="1.0" fill="none"/>
  <path d="M 77.31 41.78 L 98.50 41.78" stroke="rgba(255,255,255,0.92)" stroke-width="1.0" fill="none"/>
  <path d="M 75.93 44.15 A 11.90 11.90 0 0 1 77.98 36.89" stroke="rgba(255,255,255,0.92)" stroke-width="1.0" fill="none"/>
  <path d="M 77.98 48.55 A 1.52 1.52 0 0 1 79.24 47.88" stroke="rgba(255,255,255,0.92)" stroke-width="1.0" fill="none"/>
  <path d="M 87.90 43.00 L 87.90 50.93" stroke="rgba(255,255,255,0.92)" stroke-width="1.0" fill="none"/>
  <path d="M 85.21 46.00 A 24.71 24.71 0 0 1 86.01 38.07" stroke="rgba(255,255,255,0.92)" stroke-width="1.0" fill="none"/>
  <path d="M 83.01 46.24 A 17.15 17.15 0 0 1 84.14 38.31" stroke="rgba(255,255,255,0.92)" stroke-width="1.0" fill="none"/>
  <path d="M 81.33 46.38 A 15.68 15.68 0 0 1 82.54 38.45" stroke="rgba(255,255,255,0.92)" stroke-width="1.0" fill="none"/>
  <path d="M 79.69 46.37 A 15.21 15.21 0 0 1 80.94 38.44" stroke="rgba(255,255,255,0.92)" stroke-width="1.0" fill="none"/>
  <path d="M 78.74 46.64 A 14.39 14.39 0 0 1 79.99 38.71" stroke="rgba(255,255,255,0.92)" stroke-width="1.0" fill="none"/>
  <path d="M 77.69 46.00 A 15.69 15.69 0 0 1 78.99 38.09" stroke="rgba(255,255,255,0.92)" stroke-width="1.0" fill="none"/>
  <path d="M 76.90 46.00 A 12.24 12.24 0 0 1 78.53 38.25" stroke="rgba(255,255,255,0.92)" stroke-width="1.0" fill="none"/>
  <path d="M 76.39 46.00 A 10.73 10.73 0 0 1 77.69 39.18" stroke="rgba(255,255,255,0.92)" stroke-width="1.0" fill="none"/>
  <path d="M 89.79 38.07 A 24.71 24.71 0 0 1 90.60 46.00" stroke="rgba(255,255,255,0.92)" stroke-width="1.0" fill="none"/>
  <path d="M 91.67 38.31 A 17.15 17.15 0 0 1 92.79 46.24" stroke="rgba(255,255,255,0.92)" stroke-width="1.0" fill="none"/>
  <path d="M 93.27 38.45 A 15.68 15.68 0 0 1 94.47 46.38" stroke="rgba(255,255,255,0.92)" stroke-width="1.0" fill="none"/>
  <path d="M 94.87 38.44 A 15.21 15.21 0 0 1 96.12 46.37" stroke="rgba(255,255,255,0.92)" stroke-width="1.0" fill="none"/>
  <path d="M 95.82 38.71 A 14.39 14.39 0 0 1 97.06 46.64" stroke="rgba(255,255,255,0.92)" stroke-width="1.0" fill="none"/>
  <path d="M 96.82 38.09 A 15.69 15.69 0 0 1 98.12 46.00" stroke="rgba(255,255,255,0.92)" stroke-width="1.0" fill="none"/>
  <path d="M 97.28 38.25 A 12.24 12.24 0 0 1 98.91 46.00" stroke="rgba(255,255,255,0.92)" stroke-width="1.0" fill="none"/>
  <path d="M 98.12 39.18 A 10.73 10.73 0 0 1 99.42 46.00" stroke="rgba(255,255,255,0.92)" stroke-width="1.0" fill="none"/>
  <path d="M 97.83 36.89 A 11.90 11.90 0 0 1 99.88 44.15" stroke="rgba(255,255,255,0.92)" stroke-width="1.0" fill="none"/>
  <path d="M 96.57 47.88 A 1.52 1.52 0 0 1 97.83 48.55" stroke="rgba(255,255,255,0.92)" stroke-width="1.0" fill="none"/>
  <path d="M 79.24 50.93 L 96.57 50.93" stroke="rgba(255,255,255,0.92)" stroke-width="1.0" fill="none"/>
  <path d="M 76.39 43.00 L 76.39 41.78" stroke="rgba(255,255,255,0.92)" stroke-width="1.0" fill="none"/>
  <path d="M 76.90 43.00 L 76.90 41.78" stroke="rgba(255,255,255,0.92)" stroke-width="1.0" fill="none"/>
  <path d="M 77.69 43.00 L 77.69 41.78" stroke="rgba(255,255,255,0.92)" stroke-width="1.0" fill="none"/>
  <path d="M 78.74 43.00 L 78.74 41.78" stroke="rgba(255,255,255,0.92)" stroke-width="1.0" fill="none"/>
  <path d="M 79.69 43.00 L 79.69 41.78" stroke="rgba(255,255,255,0.92)" stroke-width="1.0" fill="none"/>
  <path d="M 81.33 43.00 L 81.33 41.78" stroke="rgba(255,255,255,0.92)" stroke-width="1.0" fill="none"/>
  <path d="M 83.01 43.00 L 83.01 41.78" stroke="rgba(255,255,255,0.92)" stroke-width="1.0" fill="none"/>
  <path d="M 85.21 43.00 L 85.21 41.78" stroke="rgba(255,255,255,0.92)" stroke-width="1.0" fill="none"/>
  <path d="M 87.90 43.00 L 87.90 41.78" stroke="rgba(255,255,255,0.92)" stroke-width="1.0" fill="none"/>
  <path d="M 90.60 43.00 L 90.60 41.78" stroke="rgba(255,255,255,0.92)" stroke-width="1.0" fill="none"/>
  <path d="M 92.79 43.00 L 92.79 41.78" stroke="rgba(255,255,255,0.92)" stroke-width="1.0" fill="none"/>
  <path d="M 94.47 43.00 L 94.47 41.78" stroke="rgba(255,255,255,0.92)" stroke-width="1.0" fill="none"/>
  <path d="M 96.12 43.00 L 96.12 41.78" stroke="rgba(255,255,255,0.92)" stroke-width="1.0" fill="none"/>
  <path d="M 97.06 43.00 L 97.06 41.78" stroke="rgba(255,255,255,0.92)" stroke-width="1.0" fill="none"/>
  <path d="M 98.12 43.00 L 98.12 41.78" stroke="rgba(255,255,255,0.92)" stroke-width="1.0" fill="none"/>
  <path d="M 98.91 43.00 L 98.91 41.78" stroke="rgba(255,255,255,0.92)" stroke-width="1.0" fill="none"/>
  <path d="M 99.42 43.00 L 99.42 41.78" stroke="rgba(255,255,255,0.92)" stroke-width="1.0" fill="none"/>
  <path d="M 3.91 42.06 L 3.91 38.62 L 11.53 38.62 L 11.53 46.25 L 3.91 46.25 L 3.91 42.80" stroke="rgba(255,255,255,0.92)" stroke-width="1.0" fill="none"/>
  <path d="M 4.21 42.06 L 4.21 38.93 L 11.23 38.93 L 11.23 45.94 L 4.21 45.94 L 4.21 42.80" stroke="rgba(255,255,255,0.92)" stroke-width="1.0" fill="none"/>
  <path d="M 4.73 42.06 A 0.87 0.87 0 1 1 4.73 42.80" stroke="rgba(255,255,255,0.92)" stroke-width="1.0" fill="none"/>
  <path d="M 5.52 42.06 A 0.37 0.37 0 0 1 5.52 42.80" stroke="rgba(255,255,255,0.92)" stroke-width="1.0" fill="none"/>
  <path d="M 5.52 42.80 L 1.20 42.80" stroke="rgba(255,255,255,0.92)" stroke-width="1.0" fill="none"/>
  <path d="M 5.52 42.06 L 1.20 42.06" stroke="rgba(255,255,255,0.92)" stroke-width="1.0" fill="none"/>
  <circle cx="0.66" cy="42.43" r="0.66" stroke="rgba(255,255,255,0.92)" stroke-width="1.0" fill="none"/>
  <path d="M 0.23 43.18 L 1.07 43.18 L 1.07 45.12 L 0.23 45.12 Z" stroke="rgba(255,255,255,0.92)" stroke-width="1.0" fill="none"/>
  <path d="M 0.32 43.00 L 0.32 43.18" stroke="rgba(255,255,255,0.92)" stroke-width="1.0" fill="none"/>
  <path d="M 0.99 43.00 L 0.99 43.18" stroke="rgba(255,255,255,0.92)" stroke-width="1.0" fill="none"/>
  <path d="M 0.32 41.86 L 0.32 40.98" stroke="rgba(255,255,255,0.92)" stroke-width="1.0" fill="none"/>
  <path d="M 0.99 41.86 L 0.99 40.98" stroke="rgba(255,255,255,0.92)" stroke-width="1.0" fill="none"/>
  <path d="M 1.70 40.53 L 1.07 40.53" stroke="rgba(255,255,255,0.92)" stroke-width="1.0" fill="none"/>
  <path d="M 1.62 40.55 A 0.27 0.27 0 0 1 1.59 40.13" stroke="rgba(255,255,255,0.92)" stroke-width="1.0" fill="none"/>
  <path d="M 1.07 40.11 L 1.70 40.11" stroke="rgba(255,255,255,0.92)" stroke-width="1.0" fill="none"/>
  <path d="M 2.23 44.77 L 2.31 44.87 L 3.23 45.01 L 3.36 44.40" stroke="rgba(255,255,255,0.92)" stroke-width="1.0" fill="none"/>
  <path d="M 3.23 45.01 L 3.19 44.88 L 2.51 44.92" stroke="rgba(255,255,255,0.92)" stroke-width="1.0" fill="none"/>
  <path d="M 3.26 44.40 L 3.26 44.76 L 3.19 44.88 L 2.46 44.71 L 2.28 44.40" stroke="rgba(255,255,255,0.92)" stroke-width="1.0" fill="none"/>
  <path d="M 3.26 44.40 L 3.26 44.04 L 3.19 43.92 L 2.46 44.09 L 2.28 44.40" stroke="rgba(255,255,255,0.92)" stroke-width="1.0" fill="none"/>
  <path d="M 3.23 43.78 L 3.19 43.92 L 2.51 43.88" stroke="rgba(255,255,255,0.92)" stroke-width="1.0" fill="none"/>
  <path d="M 2.23 44.03 L 2.31 43.92 L 3.23 43.78 L 3.36 44.40" stroke="rgba(255,255,255,0.92)" stroke-width="1.0" fill="none"/>
  <path d="M 0.23 45.33 L 0.00 45.33" stroke="rgba(255,255,255,0.92)" stroke-width="1.0" fill="none"/>
  <path d="M 0.00 45.33 L 0.00 43.55 L 0.23 43.55" stroke="rgba(255,255,255,0.92)" stroke-width="1.0" fill="none"/>
  <path d="M 0.23 43.55 L 0.23 45.33" stroke="rgba(255,255,255,0.92)" stroke-width="1.0" fill="none"/>
  <path d="M 0.00 39.53 L 0.00 41.31 L 0.23 41.31" stroke="rgba(255,255,255,0.92)" stroke-width="1.0" fill="none"/>
  <path d="M 0.23 41.31 L 0.23 39.53" stroke="rgba(255,255,255,0.92)" stroke-width="1.0" fill="none"/>
  <path d="M 0.23 39.53 L 0.00 39.53" stroke="rgba(255,255,255,0.92)" stroke-width="1.0" fill="none"/>
  <path d="M 0.23 39.53 L 0.45 39.74" stroke="rgba(255,255,255,0.92)" stroke-width="1.0" fill="none"/>
  <path d="M 0.23 41.31 L 0.32 41.22" stroke="rgba(255,255,255,0.92)" stroke-width="1.0" fill="none"/>
  <path d="M 1.18 40.75 L 1.18 40.53" stroke="rgba(255,255,255,0.92)" stroke-width="1.0" fill="none"/>
  <path d="M 1.18 40.10 L 1.18 40.11" stroke="rgba(255,255,255,0.92)" stroke-width="1.0" fill="none"/>
  <path d="M 0.23 45.33 L 0.45 45.12" stroke="rgba(255,255,255,0.92)" stroke-width="1.0" fill="none"/>
  <path d="M 1.18 44.76 L 1.24 44.86 L 2.13 44.86 L 2.20 44.77" stroke="rgba(255,255,255,0.92)" stroke-width="1.0" fill="none"/>
  <path d="M 2.20 44.77 L 2.20 44.03" stroke="rgba(255,255,255,0.92)" stroke-width="1.0" fill="none"/>
  <path d="M 2.23 44.03 L 2.20 44.03" stroke="rgba(255,255,255,0.92)" stroke-width="1.0" fill="none"/>
  <path d="M 2.20 44.77 L 2.23 44.77" stroke="rgba(255,255,255,0.92)" stroke-width="1.0" fill="none"/>
  <path d="M 2.23 44.77 L 2.23 44.03" stroke="rgba(255,255,255,0.92)" stroke-width="1.0" fill="none"/>
  <path d="M 2.20 44.03 L 2.20 43.64" stroke="rgba(255,255,255,0.92)" stroke-width="1.0" fill="none"/>
  <path d="M 2.58 44.23 A 0.64 0.64 0 0 1 2.20 43.64" stroke="rgba(255,255,255,0.92)" stroke-width="1.0" fill="none"/>
  <path d="M 2.20 41.24 A 0.64 0.64 0 0 1 2.58 40.65" stroke="rgba(255,255,255,0.92)" stroke-width="1.0" fill="none"/>
  <path d="M 2.20 40.98 L 2.20 41.24" stroke="rgba(255,255,255,0.92)" stroke-width="1.0" fill="none"/>
  <path d="M 1.70 40.03 L 1.24 40.03 L 1.18 40.09 L 1.18 40.12" stroke="rgba(255,255,255,0.92)" stroke-width="1.0" fill="none"/>
  <path d="M 0.00 41.69 L 0.00 43.17" stroke="rgba(255,255,255,0.92)" stroke-width="1.0" fill="none"/>
  <path d="M 1.18 44.76 L 1.18 42.83" stroke="rgba(255,255,255,0.92)" stroke-width="1.0" fill="none"/>
  <path d="M 1.18 42.03 L 1.18 40.53" stroke="rgba(255,255,255,0.92)" stroke-width="1.0" fill="none"/>
  <path d="M 0.27 42.97 L 0.00 43.17" stroke="rgba(255,255,255,0.92)" stroke-width="1.0" fill="none"/>
  <path d="M 0.28 41.90 L 0.00 41.69" stroke="rgba(255,255,255,0.92)" stroke-width="1.0" fill="none"/>
  <path d="M 1.07 39.74 L 0.23 39.74" stroke="rgba(255,255,255,0.92)" stroke-width="1.0" fill="none"/>
  <path d="M 0.23 39.74 L 0.23 40.98" stroke="rgba(255,255,255,0.92)" stroke-width="1.0" fill="none"/>
  <path d="M 0.23 40.98 L 1.07 40.98" stroke="rgba(255,255,255,0.92)" stroke-width="1.0" fill="none"/>
  <path d="M 1.07 40.98 L 1.07 39.74" stroke="rgba(255,255,255,0.92)" stroke-width="1.0" fill="none"/>
  <path d="M 2.85 42.52 A 0.50 0.50 0 0 1 2.58 42.76" stroke="rgba(255,255,255,0.92)" stroke-width="1.0" fill="none"/>
  <path d="M 2.58 41.92 A 0.63 0.63 0 0 1 2.85 42.17" stroke="rgba(255,255,255,0.92)" stroke-width="1.0" fill="none"/>
  <path d="M 1.70 40.91 L 2.71 41.06" stroke="rgba(255,255,255,0.92)" stroke-width="1.0" fill="none"/>
  <path d="M 2.71 41.06 L 3.03 40.95" stroke="rgba(255,255,255,0.92)" stroke-width="1.0" fill="none"/>
  <path d="M 2.71 41.06 L 2.69 39.49" stroke="rgba(255,255,255,0.92)" stroke-width="1.0" fill="none"/>
  <path d="M 3.03 39.61 L 3.03 40.95" stroke="rgba(255,255,255,0.92)" stroke-width="1.0" fill="none"/>
  <path d="M 1.70 40.91 L 1.70 39.75" stroke="rgba(255,255,255,0.92)" stroke-width="1.0" fill="none"/>
  <path d="M 1.70 39.75 L 2.69 39.49" stroke="rgba(255,255,255,0.92)" stroke-width="1.0" fill="none"/>
  <path d="M 2.69 39.49 L 3.03 39.61" stroke="rgba(255,255,255,0.92)" stroke-width="1.0" fill="none"/>
  <path d="M 3.88 40.62 L 3.91 39.24" stroke="rgba(255,255,255,0.92)" stroke-width="1.0" fill="none"/>
  <path d="M 3.55 40.62 L 3.52 39.24" stroke="rgba(255,255,255,0.92)" stroke-width="1.0" fill="none"/>
  <path d="M 2.76 53.93 L 3.43 53.93" stroke="rgba(255,255,255,0.92)" stroke-width="1.0" fill="none"/>
  <path d="M 2.78 54.29 L 3.41 54.29" stroke="rgba(255,255,255,0.92)" stroke-width="1.0" fill="none"/>
  <path d="M 3.41 54.49 L 2.78 54.49" stroke="rgba(255,255,255,0.92)" stroke-width="1.0" fill="none"/>
  <path d="M 3.02 53.85 A 0.55 0.55 0 1 1 2.75 53.08" stroke="rgba(255,255,255,0.92)" stroke-width="1.0" fill="none"/>
  <path d="M 2.74 54.20 L 2.76 53.93" stroke="rgba(255,255,255,0.92)" stroke-width="1.0" fill="none"/>
  <path d="M 4.81 53.04 A 0.55 0.55 0 1 1 4.70 54.10" stroke="rgba(255,255,255,0.92)" stroke-width="1.0" fill="none"/>
  <path d="M 3.46 54.20 L 3.43 53.93" stroke="rgba(255,255,255,0.92)" stroke-width="1.0" fill="none"/>
  <path d="M 2.87 54.51 L 3.33 54.51" stroke="rgba(255,255,255,0.92)" stroke-width="1.0" fill="none"/>
  <path d="M 3.49 39.28 A 0.14 0.14 0 0 1 3.49 39.30" stroke="rgba(255,255,255,0.92)" stroke-width="1.0" fill="none"/>
  <path d="M 3.49 39.28 L 3.51 40.62" stroke="rgba(255,255,255,0.92)" stroke-width="1.0" fill="none"/>
  <path d="M 3.92 40.62 L 3.94 39.28" stroke="rgba(255,255,255,0.92)" stroke-width="1.0" fill="none"/>
  <path d="M 3.94 39.30 A 0.14 0.14 0 0 1 3.94 39.28" stroke="rgba(255,255,255,0.92)" stroke-width="1.0" fill="none"/>
  <path d="M 3.94 39.61 A 0.29 0.29 0 0 1 3.49 39.61" stroke="rgba(255,255,255,0.92)" stroke-width="1.0" fill="none"/>
  <path d="M 1.27 40.62 L 6.15 40.62" stroke="rgba(255,255,255,0.92)" stroke-width="1.0" fill="none"/>
  <path d="M 1.27 40.72 L 6.15 40.72" stroke="rgba(255,255,255,0.92)" stroke-width="1.0" fill="none"/>
  <path d="M 6.15 40.72 L 5.30 42.09" stroke="rgba(255,255,255,0.92)" stroke-width="1.0" fill="none"/>
  <path d="M 1.27 40.72 L 2.12 42.09" stroke="rgba(255,255,255,0.92)" stroke-width="1.0" fill="none"/>
  <path d="M 5.30 42.09 L 2.12 42.09" stroke="rgba(255,255,255,0.92)" stroke-width="1.0" fill="none"/>
  <path d="M 6.15 40.62 L 6.15 40.72" stroke="rgba(255,255,255,0.92)" stroke-width="1.0" fill="none"/>
  <path d="M 1.27 40.62 L 1.27 40.72" stroke="rgba(255,255,255,0.92)" stroke-width="1.0" fill="none"/>
  <path d="M 2.41 41.93 L 2.41 41.93 L 2.41 41.94 L 2.40 41.94 L 2.40 41.95 L 2.39 41.95 L 2.39 41.95 L 2.38 41.96 L 2.38 41.96 L 2.37 41.96 L 2.36 41.96 L 2.35 41.96 L 2.35 41.96 L 2.34 41.96 L 2.33 41.96 L 2.32 41.96 L 2.32 41.96 L 2.31 41.96 L 2.30 41.95 L 2.30 41.95 L 2.29 41.95 L 2.29 41.94 L 2.29 41.94 L 2.28 41.93 L 2.28 41.93 L 2.28 41.92 L 2.29 41.92 L 2.29 41.91 L 2.29 41.91 L 2.30 41.90 L 2.30 41.90 L 2.31 41.90 L 2.32 41.90 L 2.32 41.89 L 2.33 41.89 L 2.34 41.89 L 2.35 41.89 L 2.35 41.89 L 2.36 41.89 L 2.37 41.89 L 2.38 41.90 L 2.38 41.90 L 2.39 41.90 L 2.39 41.90 L 2.40 41.91 L 2.40 41.91 L 2.41 41.92 L 2.41 41.92 L 2.41 41.93" stroke="rgba(255,255,255,0.92)" stroke-width="1.0" fill="none"/>
  <path d="M 2.71 41.93 L 2.71 41.93 L 2.71 41.94 L 2.71 41.94 L 2.71 41.95 L 2.70 41.95 L 2.70 41.95 L 2.69 41.96 L 2.68 41.96 L 2.68 41.96 L 2.67 41.96 L 2.66 41.96 L 2.65 41.96 L 2.64 41.96 L 2.64 41.96 L 2.63 41.96 L 2.62 41.96 L 2.62 41.96 L 2.61 41.95 L 2.60 41.95 L 2.60 41.95 L 2.60 41.94 L 2.59 41.94 L 2.59 41.93 L 2.59 41.93 L 2.59 41.92 L 2.59 41.92 L 2.60 41.91 L 2.60 41.91 L 2.60 41.90 L 2.61 41.90 L 2.62 41.90 L 2.62 41.90 L 2.63 41.89 L 2.64 41.89 L 2.64 41.89 L 2.65 41.89 L 2.66 41.89 L 2.67 41.89 L 2.68 41.89 L 2.68 41.90 L 2.69 41.90 L 2.70 41.90 L 2.70 41.90 L 2.71 41.91 L 2.71 41.91 L 2.71 41.92 L 2.71 41.92 L 2.71 41.93" stroke="rgba(255,255,255,0.92)" stroke-width="1.0" fill="none"/>
  <path d="M 3.02 41.93 L 3.02 41.93 L 3.02 41.94 L 3.02 41.94 L 3.01 41.95 L 3.01 41.95 L 3.00 41.95 L 3.00 41.96 L 2.99 41.96 L 2.98 41.96 L 2.98 41.96 L 2.97 41.96 L 2.96 41.96 L 2.95 41.96 L 2.94 41.96 L 2.94 41.96 L 2.93 41.96 L 2.92 41.96 L 2.92 41.95 L 2.91 41.95 L 2.91 41.95 L 2.90 41.94 L 2.90 41.94 L 2.90 41.93 L 2.90 41.93 L 2.90 41.92 L 2.90 41.92 L 2.90 41.91 L 2.91 41.91 L 2.91 41.90 L 2.92 41.90 L 2.92 41.90 L 2.93 41.90 L 2.94 41.89 L 2.94 41.89 L 2.95 41.89 L 2.96 41.89 L 2.97 41.89 L 2.98 41.89 L 2.98 41.89 L 2.99 41.90 L 3.00 41.90 L 3.00 41.90 L 3.01 41.90 L 3.01 41.91 L 3.02 41.91 L 3.02 41.92 L 3.02 41.92 L 3.02 41.93" stroke="rgba(255,255,255,0.92)" stroke-width="1.0" fill="none"/>
  <path d="M 3.33 41.93 L 3.33 41.93 L 3.33 41.94 L 3.32 41.94 L 3.32 41.95 L 3.32 41.95 L 3.31 41.95 L 3.30 41.96 L 3.30 41.96 L 3.29 41.96 L 3.28 41.96 L 3.28 41.96 L 3.27 41.96 L 3.26 41.96 L 3.25 41.96 L 3.24 41.96 L 3.24 41.96 L 3.23 41.96 L 3.22 41.95 L 3.22 41.95 L 3.21 41.95 L 3.21 41.94 L 3.21 41.94 L 3.21 41.93 L 3.21 41.93 L 3.21 41.92 L 3.21 41.92 L 3.21 41.91 L 3.21 41.91 L 3.22 41.90 L 3.22 41.90 L 3.23 41.90 L 3.24 41.90 L 3.24 41.89 L 3.25 41.89 L 3.26 41.89 L 3.27 41.89 L 3.28 41.89 L 3.28 41.89 L 3.29 41.89 L 3.30 41.90 L 3.30 41.90 L 3.31 41.90 L 3.32 41.90 L 3.32 41.91 L 3.32 41.91 L 3.33 41.92 L 3.33 41.92 L 3.33 41.93" stroke="rgba(255,255,255,0.92)" stroke-width="1.0" fill="none"/>
  <path d="M 3.64 41.93 L 3.64 41.93 L 3.63 41.94 L 3.63 41.94 L 3.63 41.95 L 3.62 41.95 L 3.62 41.95 L 3.61 41.96 L 3.61 41.96 L 3.60 41.96 L 3.59 41.96 L 3.58 41.96 L 3.57 41.96 L 3.57 41.96 L 3.56 41.96 L 3.55 41.96 L 3.54 41.96 L 3.54 41.96 L 3.53 41.95 L 3.53 41.95 L 3.52 41.95 L 3.52 41.94 L 3.51 41.94 L 3.51 41.93 L 3.51 41.93 L 3.51 41.92 L 3.51 41.92 L 3.52 41.91 L 3.52 41.91 L 3.53 41.90 L 3.53 41.90 L 3.54 41.90 L 3.54 41.90 L 3.55 41.89 L 3.56 41.89 L 3.57 41.89 L 3.57 41.89 L 3.58 41.89 L 3.59 41.89 L 3.60 41.89 L 3.61 41.90 L 3.61 41.90 L 3.62 41.90 L 3.62 41.90 L 3.63 41.91 L 3.63 41.91 L 3.63 41.92 L 3.64 41.92 L 3.64 41.93" stroke="rgba(255,255,255,0.92)" stroke-width="1.0" fill="none"/>
  <path d="M 3.94 41.93 L 3.94 41.93 L 3.94 41.94 L 3.94 41.94 L 3.93 41.95 L 3.93 41.95 L 3.92 41.95 L 3.92 41.96 L 3.91 41.96 L 3.90 41.96 L 3.90 41.96 L 3.89 41.96 L 3.88 41.96 L 3.87 41.96 L 3.87 41.96 L 3.86 41.96 L 3.85 41.96 L 3.84 41.96 L 3.84 41.95 L 3.83 41.95 L 3.83 41.95 L 3.82 41.94 L 3.82 41.94 L 3.82 41.93 L 3.82 41.93 L 3.82 41.92 L 3.82 41.92 L 3.82 41.91 L 3.83 41.91 L 3.83 41.90 L 3.84 41.90 L 3.84 41.90 L 3.85 41.90 L 3.86 41.89 L 3.87 41.89 L 3.87 41.89 L 3.88 41.89 L 3.89 41.89 L 3.90 41.89 L 3.90 41.89 L 3.91 41.90 L 3.92 41.90 L 3.92 41.90 L 3.93 41.90 L 3.93 41.91 L 3.94 41.91 L 3.94 41.92 L 3.94 41.92 L 3.94 41.93" stroke="rgba(255,255,255,0.92)" stroke-width="1.0" fill="none"/>
  <path d="M 4.25 41.93 L 4.25 41.93 L 4.25 41.94 L 4.25 41.94 L 4.24 41.95 L 4.24 41.95 L 4.23 41.95 L 4.23 41.96 L 4.22 41.96 L 4.21 41.96 L 4.20 41.96 L 4.20 41.96 L 4.19 41.96 L 4.18 41.96 L 4.17 41.96 L 4.17 41.96 L 4.16 41.96 L 4.15 41.96 L 4.15 41.95 L 4.14 41.95 L 4.14 41.95 L 4.13 41.94 L 4.13 41.94 L 4.13 41.93 L 4.13 41.93 L 4.13 41.92 L 4.13 41.92 L 4.13 41.91 L 4.14 41.91 L 4.14 41.90 L 4.15 41.90 L 4.15 41.90 L 4.16 41.90 L 4.17 41.89 L 4.17 41.89 L 4.18 41.89 L 4.19 41.89 L 4.20 41.89 L 4.20 41.89 L 4.21 41.89 L 4.22 41.90 L 4.23 41.90 L 4.23 41.90 L 4.24 41.90 L 4.24 41.91 L 4.25 41.91 L 4.25 41.92 L 4.25 41.92 L 4.25 41.93" stroke="rgba(255,255,255,0.92)" stroke-width="1.0" fill="none"/>
  <path d="M 4.56 41.93 L 4.56 41.93 L 4.56 41.94 L 4.55 41.94 L 4.55 41.95 L 4.54 41.95 L 4.54 41.95 L 4.53 41.96 L 4.53 41.96 L 4.52 41.96 L 4.51 41.96 L 4.50 41.96 L 4.50 41.96 L 4.49 41.96 L 4.48 41.96 L 4.47 41.96 L 4.46 41.96 L 4.46 41.96 L 4.45 41.95 L 4.45 41.95 L 4.44 41.95 L 4.44 41.94 L 4.44 41.94 L 4.43 41.93 L 4.43 41.93 L 4.43 41.92 L 4.44 41.92 L 4.44 41.91 L 4.44 41.91 L 4.45 41.90 L 4.45 41.90 L 4.46 41.90 L 4.46 41.90 L 4.47 41.89 L 4.48 41.89 L 4.49 41.89 L 4.50 41.89 L 4.50 41.89 L 4.51 41.89 L 4.52 41.89 L 4.53 41.90 L 4.53 41.90 L 4.54 41.90 L 4.54 41.90 L 4.55 41.91 L 4.55 41.91 L 4.56 41.92 L 4.56 41.92 L 4.56 41.93" stroke="rgba(255,255,255,0.92)" stroke-width="1.0" fill="none"/>
  <path d="M 4.86 41.93 L 4.86 41.93 L 4.86 41.94 L 4.86 41.94 L 4.86 41.95 L 4.85 41.95 L 4.85 41.95 L 4.84 41.96 L 4.83 41.96 L 4.83 41.96 L 4.82 41.96 L 4.81 41.96 L 4.80 41.96 L 4.79 41.96 L 4.79 41.96 L 4.78 41.96 L 4.77 41.96 L 4.77 41.96 L 4.76 41.95 L 4.75 41.95 L 4.75 41.95 L 4.75 41.94 L 4.74 41.94 L 4.74 41.93 L 4.74 41.93 L 4.74 41.92 L 4.74 41.92 L 4.75 41.91 L 4.75 41.91 L 4.75 41.90 L 4.76 41.90 L 4.77 41.90 L 4.77 41.90 L 4.78 41.89 L 4.79 41.89 L 4.79 41.89 L 4.80 41.89 L 4.81 41.89 L 4.82 41.89 L 4.83 41.89 L 4.83 41.90 L 4.84 41.90 L 4.85 41.90 L 4.85 41.90 L 4.86 41.91 L 4.86 41.91 L 4.86 41.92 L 4.86 41.92 L 4.86 41.93" stroke="rgba(255,255,255,0.92)" stroke-width="1.0" fill="none"/>
  <path d="M 5.17 41.93 L 5.17 41.93 L 5.17 41.94 L 5.17 41.94 L 5.16 41.95 L 5.16 41.95 L 5.15 41.95 L 5.15 41.96 L 5.14 41.96 L 5.13 41.96 L 5.13 41.96 L 5.12 41.96 L 5.11 41.96 L 5.10 41.96 L 5.09 41.96 L 5.09 41.96 L 5.08 41.96 L 5.07 41.96 L 5.07 41.95 L 5.06 41.95 L 5.06 41.95 L 5.05 41.94 L 5.05 41.94 L 5.05 41.93 L 5.05 41.93 L 5.05 41.92 L 5.05 41.92 L 5.05 41.91 L 5.06 41.91 L 5.06 41.90 L 5.07 41.90 L 5.07 41.90 L 5.08 41.90 L 5.09 41.89 L 5.09 41.89 L 5.10 41.89 L 5.11 41.89 L 5.12 41.89 L 5.13 41.89 L 5.13 41.89 L 5.14 41.90 L 5.15 41.90 L 5.15 41.90 L 5.16 41.90 L 5.16 41.91 L 5.17 41.91 L 5.17 41.92 L 5.17 41.92 L 5.17 41.93" stroke="rgba(255,255,255,0.92)" stroke-width="1.0" fill="none"/>
  <path d="M 2.26 41.74 L 2.26 41.74 L 2.26 41.75 L 2.26 41.75 L 2.26 41.75 L 2.25 41.76 L 2.25 41.76 L 2.24 41.76 L 2.23 41.77 L 2.23 41.77 L 2.22 41.77 L 2.21 41.77 L 2.20 41.77 L 2.19 41.77 L 2.19 41.77 L 2.18 41.77 L 2.17 41.77 L 2.17 41.76 L 2.16 41.76 L 2.15 41.76 L 2.15 41.75 L 2.15 41.75 L 2.14 41.75 L 2.14 41.74 L 2.14 41.74 L 2.14 41.73 L 2.14 41.73 L 2.15 41.72 L 2.15 41.72 L 2.15 41.71 L 2.16 41.71 L 2.17 41.71 L 2.17 41.70 L 2.18 41.70 L 2.19 41.70 L 2.19 41.70 L 2.20 41.70 L 2.21 41.70 L 2.22 41.70 L 2.23 41.70 L 2.23 41.70 L 2.24 41.71 L 2.25 41.71 L 2.25 41.71 L 2.26 41.72 L 2.26 41.72 L 2.26 41.73 L 2.26 41.73 L 2.26 41.74" stroke="rgba(255,255,255,0.92)" stroke-width="1.0" fill="none"/>
  <path d="M 2.64 41.74 L 2.64 41.74 L 2.64 41.75 L 2.64 41.75 L 2.63 41.75 L 2.63 41.76 L 2.62 41.76 L 2.62 41.76 L 2.61 41.77 L 2.60 41.77 L 2.60 41.77 L 2.59 41.77 L 2.58 41.77 L 2.57 41.77 L 2.57 41.77 L 2.56 41.77 L 2.55 41.77 L 2.54 41.76 L 2.54 41.76 L 2.53 41.76 L 2.53 41.75 L 2.52 41.75 L 2.52 41.75 L 2.52 41.74 L 2.52 41.74 L 2.52 41.73 L 2.52 41.73 L 2.52 41.72 L 2.53 41.72 L 2.53 41.71 L 2.54 41.71 L 2.54 41.71 L 2.55 41.70 L 2.56 41.70 L 2.57 41.70 L 2.57 41.70 L 2.58 41.70 L 2.59 41.70 L 2.60 41.70 L 2.60 41.70 L 2.61 41.70 L 2.62 41.71 L 2.62 41.71 L 2.63 41.71 L 2.63 41.72 L 2.64 41.72 L 2.64 41.73 L 2.64 41.73 L 2.64 41.74" stroke="rgba(255,255,255,0.92)" stroke-width="1.0" fill="none"/>
  <path d="M 3.02 41.74 L 3.02 41.74 L 3.02 41.75 L 3.02 41.75 L 3.01 41.75 L 3.01 41.76 L 3.00 41.76 L 3.00 41.76 L 2.99 41.77 L 2.98 41.77 L 2.98 41.77 L 2.97 41.77 L 2.96 41.77 L 2.95 41.77 L 2.94 41.77 L 2.94 41.77 L 2.93 41.77 L 2.92 41.76 L 2.92 41.76 L 2.91 41.76 L 2.91 41.75 L 2.90 41.75 L 2.90 41.75 L 2.90 41.74 L 2.90 41.74 L 2.90 41.73 L 2.90 41.73 L 2.90 41.72 L 2.91 41.72 L 2.91 41.71 L 2.92 41.71 L 2.92 41.71 L 2.93 41.70 L 2.94 41.70 L 2.94 41.70 L 2.95 41.70 L 2.96 41.70 L 2.97 41.70 L 2.98 41.70 L 2.98 41.70 L 2.99 41.70 L 3.00 41.71 L 3.00 41.71 L 3.01 41.71 L 3.01 41.72 L 3.02 41.72 L 3.02 41.73 L 3.02 41.73 L 3.02 41.74" stroke="rgba(255,255,255,0.92)" stroke-width="1.0" fill="none"/>
  <path d="M 3.40 41.74 L 3.40 41.74 L 3.40 41.75 L 3.40 41.75 L 3.39 41.75 L 3.39 41.76 L 3.38 41.76 L 3.38 41.76 L 3.37 41.77 L 3.36 41.77 L 3.35 41.77 L 3.35 41.77 L 3.34 41.77 L 3.33 41.77 L 3.32 41.77 L 3.32 41.77 L 3.31 41.77 L 3.30 41.76 L 3.30 41.76 L 3.29 41.76 L 3.29 41.75 L 3.28 41.75 L 3.28 41.75 L 3.28 41.74 L 3.28 41.74 L 3.28 41.73 L 3.28 41.73 L 3.28 41.72 L 3.29 41.72 L 3.29 41.71 L 3.30 41.71 L 3.30 41.71 L 3.31 41.70 L 3.32 41.70 L 3.32 41.70 L 3.33 41.70 L 3.34 41.70 L 3.35 41.70 L 3.35 41.70 L 3.36 41.70 L 3.37 41.70 L 3.38 41.71 L 3.38 41.71 L 3.39 41.71 L 3.39 41.72 L 3.40 41.72 L 3.40 41.73 L 3.40 41.73 L 3.40 41.74" stroke="rgba(255,255,255,0.92)" stroke-width="1.0" fill="none"/>
  <path d="M 3.78 41.74 L 3.78 41.74 L 3.78 41.75 L 3.77 41.75 L 3.77 41.75 L 3.77 41.76 L 3.76 41.76 L 3.76 41.76 L 3.75 41.77 L 3.74 41.77 L 3.73 41.77 L 3.73 41.77 L 3.72 41.77 L 3.71 41.77 L 3.70 41.77 L 3.69 41.77 L 3.69 41.77 L 3.68 41.76 L 3.67 41.76 L 3.67 41.76 L 3.66 41.75 L 3.66 41.75 L 3.66 41.75 L 3.66 41.74 L 3.66 41.74 L 3.66 41.73 L 3.66 41.73 L 3.66 41.72 L 3.66 41.72 L 3.67 41.71 L 3.67 41.71 L 3.68 41.71 L 3.69 41.70 L 3.69 41.70 L 3.70 41.70 L 3.71 41.70 L 3.72 41.70 L 3.73 41.70 L 3.73 41.70 L 3.74 41.70 L 3.75 41.70 L 3.76 41.71 L 3.76 41.71 L 3.77 41.71 L 3.77 41.72 L 3.77 41.72 L 3.78 41.73 L 3.78 41.73 L 3.78 41.74" stroke="rgba(255,255,255,0.92)" stroke-width="1.0" fill="none"/>
  <path d="M 4.16 41.74 L 4.16 41.74 L 4.16 41.75 L 4.15 41.75 L 4.15 41.75 L 4.15 41.76 L 4.14 41.76 L 4.13 41.76 L 4.13 41.77 L 4.12 41.77 L 4.11 41.77 L 4.10 41.77 L 4.10 41.77 L 4.09 41.77 L 4.08 41.77 L 4.07 41.77 L 4.07 41.77 L 4.06 41.76 L 4.05 41.76 L 4.05 41.76 L 4.04 41.75 L 4.04 41.75 L 4.04 41.75 L 4.04 41.74 L 4.04 41.74 L 4.04 41.73 L 4.04 41.73 L 4.04 41.72 L 4.04 41.72 L 4.05 41.71 L 4.05 41.71 L 4.06 41.71 L 4.07 41.70 L 4.07 41.70 L 4.08 41.70 L 4.09 41.70 L 4.10 41.70 L 4.10 41.70 L 4.11 41.70 L 4.12 41.70 L 4.13 41.70 L 4.13 41.71 L 4.14 41.71 L 4.15 41.71 L 4.15 41.72 L 4.15 41.72 L 4.16 41.73 L 4.16 41.73 L 4.16 41.74" stroke="rgba(255,255,255,0.92)" stroke-width="1.0" fill="none"/>
  <path d="M 4.54 41.74 L 4.54 41.74 L 4.53 41.75 L 4.53 41.75 L 4.53 41.75 L 4.52 41.76 L 4.52 41.76 L 4.51 41.76 L 4.51 41.77 L 4.50 41.77 L 4.49 41.77 L 4.48 41.77 L 4.48 41.77 L 4.47 41.77 L 4.46 41.77 L 4.45 41.77 L 4.44 41.77 L 4.44 41.76 L 4.43 41.76 L 4.43 41.76 L 4.42 41.75 L 4.42 41.75 L 4.42 41.75 L 4.41 41.74 L 4.41 41.74 L 4.41 41.73 L 4.42 41.73 L 4.42 41.72 L 4.42 41.72 L 4.43 41.71 L 4.43 41.71 L 4.44 41.71 L 4.44 41.70 L 4.45 41.70 L 4.46 41.70 L 4.47 41.70 L 4.48 41.70 L 4.48 41.70 L 4.49 41.70 L 4.50 41.70 L 4.51 41.70 L 4.51 41.71 L 4.52 41.71 L 4.52 41.71 L 4.53 41.72 L 4.53 41.72 L 4.53 41.73 L 4.54 41.73 L 4.54 41.74" stroke="rgba(255,255,255,0.92)" stroke-width="1.0" fill="none"/>
  <path d="M 4.92 41.74 L 4.92 41.74 L 4.91 41.75 L 4.91 41.75 L 4.91 41.75 L 4.90 41.76 L 4.90 41.76 L 4.89 41.76 L 4.88 41.77 L 4.88 41.77 L 4.87 41.77 L 4.86 41.77 L 4.85 41.77 L 4.85 41.77 L 4.84 41.77 L 4.83 41.77 L 4.82 41.77 L 4.82 41.76 L 4.81 41.76 L 4.81 41.76 L 4.80 41.75 L 4.80 41.75 L 4.79 41.75 L 4.79 41.74 L 4.79 41.74 L 4.79 41.73 L 4.79 41.73 L 4.80 41.72 L 4.80 41.72 L 4.81 41.71 L 4.81 41.71 L 4.82 41.71 L 4.82 41.70 L 4.83 41.70 L 4.84 41.70 L 4.85 41.70 L 4.85 41.70 L 4.86 41.70 L 4.87 41.70 L 4.88 41.70 L 4.88 41.70 L 4.89 41.71 L 4.90 41.71 L 4.90 41.71 L 4.91 41.72 L 4.91 41.72 L 4.91 41.73 L 4.92 41.73 L 4.92 41.74" stroke="rgba(255,255,255,0.92)" stroke-width="1.0" fill="none"/>
  <path d="M 5.29 41.74 L 5.29 41.74 L 5.29 41.75 L 5.29 41.75 L 5.29 41.75 L 5.28 41.76 L 5.28 41.76 L 5.27 41.76 L 5.26 41.77 L 5.26 41.77 L 5.25 41.77 L 5.24 41.77 L 5.23 41.77 L 5.22 41.77 L 5.22 41.77 L 5.21 41.77 L 5.20 41.77 L 5.20 41.76 L 5.19 41.76 L 5.18 41.76 L 5.18 41.75 L 5.18 41.75 L 5.17 41.75 L 5.17 41.74 L 5.17 41.74 L 5.17 41.73 L 5.17 41.73 L 5.18 41.72 L 5.18 41.72 L 5.18 41.71 L 5.19 41.71 L 5.20 41.71 L 5.20 41.70 L 5.21 41.70 L 5.22 41.70 L 5.22 41.70 L 5.23 41.70 L 5.24 41.70 L 5.25 41.70 L 5.26 41.70 L 5.26 41.70 L 5.27 41.71 L 5.28 41.71 L 5.28 41.71 L 5.29 41.72 L 5.29 41.72 L 5.29 41.73 L 5.29 41.73 L 5.29 41.74" stroke="rgba(255,255,255,0.92)" stroke-width="1.0" fill="none"/>
  <path d="M 2.09 41.50 L 2.09 41.50 L 2.09 41.51 L 2.09 41.51 L 2.08 41.52 L 2.08 41.52 L 2.07 41.52 L 2.07 41.53 L 2.06 41.53 L 2.05 41.53 L 2.05 41.53 L 2.04 41.53 L 2.03 41.54 L 2.02 41.53 L 2.01 41.53 L 2.01 41.53 L 2.00 41.53 L 1.99 41.53 L 1.99 41.52 L 1.98 41.52 L 1.98 41.52 L 1.97 41.51 L 1.97 41.51 L 1.97 41.50 L 1.97 41.50 L 1.97 41.49 L 1.97 41.49 L 1.97 41.49 L 1.98 41.48 L 1.98 41.48 L 1.99 41.47 L 1.99 41.47 L 2.00 41.47 L 2.01 41.47 L 2.01 41.46 L 2.02 41.46 L 2.03 41.46 L 2.04 41.46 L 2.05 41.46 L 2.05 41.47 L 2.06 41.47 L 2.07 41.47 L 2.07 41.47 L 2.08 41.48 L 2.08 41.48 L 2.09 41.49 L 2.09 41.49 L 2.09 41.49 L 2.09 41.50" stroke="rgba(255,255,255,0.92)" stroke-width="1.0" fill="none"/>
  <path d="M 2.48 41.50 L 2.48 41.50 L 2.48 41.51 L 2.48 41.51 L 2.48 41.52 L 2.47 41.52 L 2.47 41.52 L 2.46 41.53 L 2.45 41.53 L 2.45 41.53 L 2.44 41.53 L 2.43 41.53 L 2.42 41.54 L 2.41 41.53 L 2.41 41.53 L 2.40 41.53 L 2.39 41.53 L 2.39 41.53 L 2.38 41.52 L 2.37 41.52 L 2.37 41.52 L 2.37 41.51 L 2.36 41.51 L 2.36 41.50 L 2.36 41.50 L 2.36 41.49 L 2.36 41.49 L 2.37 41.49 L 2.37 41.48 L 2.37 41.48 L 2.38 41.47 L 2.39 41.47 L 2.39 41.47 L 2.40 41.47 L 2.41 41.46 L 2.41 41.46 L 2.42 41.46 L 2.43 41.46 L 2.44 41.46 L 2.45 41.47 L 2.45 41.47 L 2.46 41.47 L 2.47 41.47 L 2.47 41.48 L 2.48 41.48 L 2.48 41.49 L 2.48 41.49 L 2.48 41.49 L 2.48 41.50" stroke="rgba(255,255,255,0.92)" stroke-width="1.0" fill="none"/>
  <path d="M 3.00 41.50 L 3.00 41.50 L 3.00 41.51 L 2.99 41.51 L 2.99 41.52 L 2.99 41.52 L 2.98 41.52 L 2.97 41.53 L 2.97 41.53 L 2.96 41.53 L 2.95 41.53 L 2.94 41.53 L 2.94 41.54 L 2.93 41.53 L 2.92 41.53 L 2.91 41.53 L 2.91 41.53 L 2.90 41.53 L 2.89 41.52 L 2.89 41.52 L 2.88 41.52 L 2.88 41.51 L 2.88 41.51 L 2.88 41.50 L 2.88 41.50 L 2.88 41.49 L 2.88 41.49 L 2.88 41.49 L 2.88 41.48 L 2.89 41.48 L 2.89 41.47 L 2.90 41.47 L 2.91 41.47 L 2.91 41.47 L 2.92 41.46 L 2.93 41.46 L 2.94 41.46 L 2.94 41.46 L 2.95 41.46 L 2.96 41.47 L 2.97 41.47 L 2.97 41.47 L 2.98 41.47 L 2.99 41.48 L 2.99 41.48 L 2.99 41.49 L 3.00 41.49 L 3.00 41.49 L 3.00 41.50" stroke="rgba(255,255,255,0.92)" stroke-width="1.0" fill="none"/>
  <path d="M 3.53 41.50 L 3.53 41.50 L 3.53 41.51 L 3.53 41.51 L 3.52 41.52 L 3.52 41.52 L 3.51 41.52 L 3.51 41.53 L 3.50 41.53 L 3.49 41.53 L 3.49 41.53 L 3.48 41.53 L 3.47 41.54 L 3.46 41.53 L 3.45 41.53 L 3.45 41.53 L 3.44 41.53 L 3.43 41.53 L 3.43 41.52 L 3.42 41.52 L 3.42 41.52 L 3.41 41.51 L 3.41 41.51 L 3.41 41.50 L 3.41 41.50 L 3.41 41.49 L 3.41 41.49 L 3.41 41.49 L 3.42 41.48 L 3.42 41.48 L 3.43 41.47 L 3.43 41.47 L 3.44 41.47 L 3.45 41.47 L 3.45 41.46 L 3.46 41.46 L 3.47 41.46 L 3.48 41.46 L 3.49 41.46 L 3.49 41.47 L 3.50 41.47 L 3.51 41.47 L 3.51 41.47 L 3.52 41.48 L 3.52 41.48 L 3.53 41.49 L 3.53 41.49 L 3.53 41.49 L 3.53 41.50" stroke="rgba(255,255,255,0.92)" stroke-width="1.0" fill="none"/>
  <path d="M 4.03 41.50 L 4.03 41.50 L 4.03 41.51 L 4.03 41.51 L 4.02 41.52 L 4.02 41.52 L 4.01 41.52 L 4.01 41.53 L 4.00 41.53 L 3.99 41.53 L 3.98 41.53 L 3.98 41.53 L 3.97 41.54 L 3.96 41.53 L 3.95 41.53 L 3.94 41.53 L 3.94 41.53 L 3.93 41.53 L 3.92 41.52 L 3.92 41.52 L 3.92 41.52 L 3.91 41.51 L 3.91 41.51 L 3.91 41.50 L 3.91 41.50 L 3.91 41.49 L 3.91 41.49 L 3.91 41.49 L 3.92 41.48 L 3.92 41.48 L 3.92 41.47 L 3.93 41.47 L 3.94 41.47 L 3.94 41.47 L 3.95 41.46 L 3.96 41.46 L 3.97 41.46 L 3.98 41.46 L 3.98 41.46 L 3.99 41.47 L 4.00 41.47 L 4.01 41.47 L 4.01 41.47 L 4.02 41.48 L 4.02 41.48 L 4.03 41.49 L 4.03 41.49 L 4.03 41.49 L 4.03 41.50" stroke="rgba(255,255,255,0.92)" stroke-width="1.0" fill="none"/>
  <path d="M 4.50 41.50 L 4.50 41.50 L 4.50 41.51 L 4.49 41.51 L 4.49 41.52 L 4.49 41.52 L 4.48 41.52 L 4.48 41.53 L 4.47 41.53 L 4.46 41.53 L 4.45 41.53 L 4.45 41.53 L 4.44 41.54 L 4.43 41.53 L 4.42 41.53 L 4.41 41.53 L 4.41 41.53 L 4.40 41.53 L 4.39 41.52 L 4.39 41.52 L 4.38 41.52 L 4.38 41.51 L 4.38 41.51 L 4.38 41.50 L 4.38 41.50 L 4.38 41.49 L 4.38 41.49 L 4.38 41.49 L 4.38 41.48 L 4.39 41.48 L 4.39 41.47 L 4.40 41.47 L 4.41 41.47 L 4.41 41.47 L 4.42 41.46 L 4.43 41.46 L 4.44 41.46 L 4.45 41.46 L 4.45 41.46 L 4.46 41.47 L 4.47 41.47 L 4.48 41.47 L 4.48 41.47 L 4.49 41.48 L 4.49 41.48 L 4.49 41.49 L 4.50 41.49 L 4.50 41.49 L 4.50 41.50" stroke="rgba(255,255,255,0.92)" stroke-width="1.0" fill="none"/>
  <path d="M 5.04 41.50 L 5.04 41.50 L 5.04 41.51 L 5.03 41.51 L 5.03 41.52 L 5.03 41.52 L 5.02 41.52 L 5.02 41.53 L 5.01 41.53 L 5.00 41.53 L 4.99 41.53 L 4.99 41.53 L 4.98 41.54 L 4.97 41.53 L 4.96 41.53 L 4.95 41.53 L 4.95 41.53 L 4.94 41.53 L 4.93 41.52 L 4.93 41.52 L 4.92 41.52 L 4.92 41.51 L 4.92 41.51 L 4.92 41.50 L 4.92 41.50 L 4.92 41.49 L 4.92 41.49 L 4.92 41.49 L 4.92 41.48 L 4.93 41.48 L 4.93 41.47 L 4.94 41.47 L 4.95 41.47 L 4.95 41.47 L 4.96 41.46 L 4.97 41.46 L 4.98 41.46 L 4.99 41.46 L 4.99 41.46 L 5.00 41.47 L 5.01 41.47 L 5.02 41.47 L 5.02 41.47 L 5.03 41.48 L 5.03 41.48 L 5.03 41.49 L 5.04 41.49 L 5.04 41.49 L 5.04 41.50" stroke="rgba(255,255,255,0.92)" stroke-width="1.0" fill="none"/>
  <path d="M 5.49 41.50 L 5.49 41.50 L 5.49 41.51 L 5.48 41.51 L 5.48 41.52 L 5.48 41.52 L 5.47 41.52 L 5.46 41.53 L 5.46 41.53 L 5.45 41.53 L 5.44 41.53 L 5.44 41.53 L 5.43 41.54 L 5.42 41.53 L 5.41 41.53 L 5.40 41.53 L 5.40 41.53 L 5.39 41.53 L 5.38 41.52 L 5.38 41.52 L 5.37 41.52 L 5.37 41.51 L 5.37 41.51 L 5.37 41.50 L 5.37 41.50 L 5.37 41.49 L 5.37 41.49 L 5.37 41.49 L 5.37 41.48 L 5.38 41.48 L 5.38 41.47 L 5.39 41.47 L 5.40 41.47 L 5.40 41.47 L 5.41 41.46 L 5.42 41.46 L 5.43 41.46 L 5.44 41.46 L 5.44 41.46 L 5.45 41.47 L 5.46 41.47 L 5.46 41.47 L 5.47 41.47 L 5.48 41.48 L 5.48 41.48 L 5.48 41.49 L 5.49 41.49 L 5.49 41.49 L 5.49 41.50" stroke="rgba(255,255,255,0.92)" stroke-width="1.0" fill="none"/>
  <path d="M 1.94 41.27 L 1.94 41.27 L 1.94 41.28 L 1.94 41.28 L 1.94 41.29 L 1.93 41.29 L 1.93 41.29 L 1.92 41.30 L 1.91 41.30 L 1.91 41.30 L 1.90 41.30 L 1.89 41.30 L 1.88 41.30 L 1.87 41.30 L 1.87 41.30 L 1.86 41.30 L 1.85 41.30 L 1.85 41.30 L 1.84 41.29 L 1.83 41.29 L 1.83 41.29 L 1.83 41.28 L 1.82 41.28 L 1.82 41.27 L 1.82 41.27 L 1.82 41.26 L 1.82 41.26 L 1.83 41.25 L 1.83 41.25 L 1.83 41.25 L 1.84 41.24 L 1.85 41.24 L 1.85 41.24 L 1.86 41.23 L 1.87 41.23 L 1.87 41.23 L 1.88 41.23 L 1.89 41.23 L 1.90 41.23 L 1.91 41.23 L 1.91 41.24 L 1.92 41.24 L 1.93 41.24 L 1.93 41.25 L 1.94 41.25 L 1.94 41.25 L 1.94 41.26 L 1.94 41.26 L 1.94 41.27" stroke="rgba(255,255,255,0.92)" stroke-width="1.0" fill="none"/>
  <path d="M 2.41 41.27 L 2.41 41.27 L 2.41 41.28 L 2.40 41.28 L 2.40 41.29 L 2.39 41.29 L 2.39 41.29 L 2.38 41.30 L 2.38 41.30 L 2.37 41.30 L 2.36 41.30 L 2.35 41.30 L 2.35 41.30 L 2.34 41.30 L 2.33 41.30 L 2.32 41.30 L 2.32 41.30 L 2.31 41.30 L 2.30 41.29 L 2.30 41.29 L 2.29 41.29 L 2.29 41.28 L 2.29 41.28 L 2.29 41.27 L 2.28 41.27 L 2.29 41.26 L 2.29 41.26 L 2.29 41.25 L 2.29 41.25 L 2.30 41.25 L 2.30 41.24 L 2.31 41.24 L 2.32 41.24 L 2.32 41.23 L 2.33 41.23 L 2.34 41.23 L 2.35 41.23 L 2.35 41.23 L 2.36 41.23 L 2.37 41.23 L 2.38 41.24 L 2.38 41.24 L 2.39 41.24 L 2.39 41.25 L 2.40 41.25 L 2.40 41.25 L 2.41 41.26 L 2.41 41.26 L 2.41 41.27" stroke="rgba(255,255,255,0.92)" stroke-width="1.0" fill="none"/>
  <path d="M 2.87 41.27 L 2.87 41.27 L 2.87 41.28 L 2.87 41.28 L 2.86 41.29 L 2.86 41.29 L 2.85 41.29 L 2.85 41.30 L 2.84 41.30 L 2.83 41.30 L 2.83 41.30 L 2.82 41.30 L 2.81 41.30 L 2.80 41.30 L 2.79 41.30 L 2.79 41.30 L 2.78 41.30 L 2.77 41.30 L 2.77 41.29 L 2.76 41.29 L 2.76 41.29 L 2.75 41.28 L 2.75 41.28 L 2.75 41.27 L 2.75 41.27 L 2.75 41.26 L 2.75 41.26 L 2.75 41.25 L 2.76 41.25 L 2.76 41.25 L 2.77 41.24 L 2.77 41.24 L 2.78 41.24 L 2.79 41.23 L 2.79 41.23 L 2.80 41.23 L 2.81 41.23 L 2.82 41.23 L 2.83 41.23 L 2.83 41.23 L 2.84 41.24 L 2.85 41.24 L 2.85 41.24 L 2.86 41.25 L 2.86 41.25 L 2.87 41.25 L 2.87 41.26 L 2.87 41.26 L 2.87 41.27" stroke="rgba(255,255,255,0.92)" stroke-width="1.0" fill="none"/>
  <path d="M 3.33 41.27 L 3.33 41.27 L 3.33 41.28 L 3.33 41.28 L 3.33 41.29 L 3.32 41.29 L 3.32 41.29 L 3.31 41.30 L 3.30 41.30 L 3.30 41.30 L 3.29 41.30 L 3.28 41.30 L 3.27 41.30 L 3.26 41.30 L 3.26 41.30 L 3.25 41.30 L 3.24 41.30 L 3.24 41.30 L 3.23 41.29 L 3.22 41.29 L 3.22 41.29 L 3.22 41.28 L 3.21 41.28 L 3.21 41.27 L 3.21 41.27 L 3.21 41.26 L 3.21 41.26 L 3.22 41.25 L 3.22 41.25 L 3.22 41.25 L 3.23 41.24 L 3.24 41.24 L 3.24 41.24 L 3.25 41.23 L 3.26 41.23 L 3.26 41.23 L 3.27 41.23 L 3.28 41.23 L 3.29 41.23 L 3.30 41.23 L 3.30 41.24 L 3.31 41.24 L 3.32 41.24 L 3.32 41.25 L 3.33 41.25 L 3.33 41.25 L 3.33 41.26 L 3.33 41.26 L 3.33 41.27" stroke="rgba(255,255,255,0.92)" stroke-width="1.0" fill="none"/>
  <path d="M 3.80 41.27 L 3.80 41.27 L 3.80 41.28 L 3.79 41.28 L 3.79 41.29 L 3.78 41.29 L 3.78 41.29 L 3.77 41.30 L 3.77 41.30 L 3.76 41.30 L 3.75 41.30 L 3.74 41.30 L 3.74 41.30 L 3.73 41.30 L 3.72 41.30 L 3.71 41.30 L 3.71 41.30 L 3.70 41.30 L 3.69 41.29 L 3.69 41.29 L 3.68 41.29 L 3.68 41.28 L 3.68 41.28 L 3.67 41.27 L 3.67 41.27 L 3.67 41.26 L 3.68 41.26 L 3.68 41.25 L 3.68 41.25 L 3.69 41.25 L 3.69 41.24 L 3.70 41.24 L 3.71 41.24 L 3.71 41.23 L 3.72 41.23 L 3.73 41.23 L 3.74 41.23 L 3.74 41.23 L 3.75 41.23 L 3.76 41.23 L 3.77 41.24 L 3.77 41.24 L 3.78 41.24 L 3.78 41.25 L 3.79 41.25 L 3.79 41.25 L 3.80 41.26 L 3.80 41.26 L 3.80 41.27" stroke="rgba(255,255,255,0.92)" stroke-width="1.0" fill="none"/>
  <path d="M 4.26 41.27 L 4.26 41.27 L 4.26 41.28 L 4.26 41.28 L 4.25 41.29 L 4.25 41.29 L 4.24 41.29 L 4.24 41.30 L 4.23 41.30 L 4.22 41.30 L 4.21 41.30 L 4.21 41.30 L 4.20 41.30 L 4.19 41.30 L 4.18 41.30 L 4.18 41.30 L 4.17 41.30 L 4.16 41.30 L 4.16 41.29 L 4.15 41.29 L 4.15 41.29 L 4.14 41.28 L 4.14 41.28 L 4.14 41.27 L 4.14 41.27 L 4.14 41.26 L 4.14 41.26 L 4.14 41.25 L 4.15 41.25 L 4.15 41.25 L 4.16 41.24 L 4.16 41.24 L 4.17 41.24 L 4.18 41.23 L 4.18 41.23 L 4.19 41.23 L 4.20 41.23 L 4.21 41.23 L 4.21 41.23 L 4.22 41.23 L 4.23 41.24 L 4.24 41.24 L 4.24 41.24 L 4.25 41.25 L 4.25 41.25 L 4.26 41.25 L 4.26 41.26 L 4.26 41.26 L 4.26 41.27" stroke="rgba(255,255,255,0.92)" stroke-width="1.0" fill="none"/>
  <path d="M 4.72 41.27 L 4.72 41.27 L 4.72 41.28 L 4.72 41.28 L 4.72 41.29 L 4.71 41.29 L 4.71 41.29 L 4.70 41.30 L 4.69 41.30 L 4.69 41.30 L 4.68 41.30 L 4.67 41.30 L 4.66 41.30 L 4.65 41.30 L 4.65 41.30 L 4.64 41.30 L 4.63 41.30 L 4.62 41.30 L 4.62 41.29 L 4.61 41.29 L 4.61 41.29 L 4.61 41.28 L 4.60 41.28 L 4.60 41.27 L 4.60 41.27 L 4.60 41.26 L 4.60 41.26 L 4.61 41.25 L 4.61 41.25 L 4.61 41.25 L 4.62 41.24 L 4.62 41.24 L 4.63 41.24 L 4.64 41.23 L 4.65 41.23 L 4.65 41.23 L 4.66 41.23 L 4.67 41.23 L 4.68 41.23 L 4.69 41.23 L 4.69 41.24 L 4.70 41.24 L 4.71 41.24 L 4.71 41.25 L 4.72 41.25 L 4.72 41.25 L 4.72 41.26 L 4.72 41.26 L 4.72 41.27" stroke="rgba(255,255,255,0.92)" stroke-width="1.0" fill="none"/>
  <path d="M 5.19 41.27 L 5.19 41.27 L 5.18 41.28 L 5.18 41.28 L 5.18 41.29 L 5.17 41.29 L 5.17 41.29 L 5.16 41.30 L 5.16 41.30 L 5.15 41.30 L 5.14 41.30 L 5.13 41.30 L 5.13 41.30 L 5.12 41.30 L 5.11 41.30 L 5.10 41.30 L 5.09 41.30 L 5.09 41.30 L 5.08 41.29 L 5.08 41.29 L 5.07 41.29 L 5.07 41.28 L 5.07 41.28 L 5.06 41.27 L 5.06 41.27 L 5.06 41.26 L 5.07 41.26 L 5.07 41.25 L 5.07 41.25 L 5.08 41.25 L 5.08 41.24 L 5.09 41.24 L 5.09 41.24 L 5.10 41.23 L 5.11 41.23 L 5.12 41.23 L 5.13 41.23 L 5.13 41.23 L 5.14 41.23 L 5.15 41.23 L 5.16 41.24 L 5.16 41.24 L 5.17 41.24 L 5.17 41.25 L 5.18 41.25 L 5.18 41.25 L 5.18 41.26 L 5.19 41.26 L 5.19 41.27" stroke="rgba(255,255,255,0.92)" stroke-width="1.0" fill="none"/>
  <path d="M 5.67 41.27 L 5.67 41.27 L 5.67 41.28 L 5.67 41.28 L 5.66 41.29 L 5.66 41.29 L 5.65 41.29 L 5.65 41.30 L 5.64 41.30 L 5.63 41.30 L 5.63 41.30 L 5.62 41.30 L 5.61 41.30 L 5.60 41.30 L 5.59 41.30 L 5.59 41.30 L 5.58 41.30 L 5.57 41.30 L 5.57 41.29 L 5.56 41.29 L 5.56 41.29 L 5.55 41.28 L 5.55 41.28 L 5.55 41.27 L 5.55 41.27 L 5.55 41.26 L 5.55 41.26 L 5.55 41.25 L 5.56 41.25 L 5.56 41.25 L 5.57 41.24 L 5.57 41.24 L 5.58 41.24 L 5.59 41.23 L 5.59 41.23 L 5.60 41.23 L 5.61 41.23 L 5.62 41.23 L 5.63 41.23 L 5.63 41.23 L 5.64 41.24 L 5.65 41.24 L 5.65 41.24 L 5.66 41.25 L 5.66 41.25 L 5.67 41.25 L 5.67 41.26 L 5.67 41.26 L 5.67 41.27" stroke="rgba(255,255,255,0.92)" stroke-width="1.0" fill="none"/>
  <path d="M 1.78 40.96 L 1.78 40.96 L 1.78 40.96 L 1.77 40.97 L 1.77 40.97 L 1.76 40.98 L 1.76 40.98 L 1.75 40.98 L 1.75 40.99 L 1.74 40.99 L 1.73 40.99 L 1.72 40.99 L 1.72 40.99 L 1.71 40.99 L 1.70 40.99 L 1.69 40.99 L 1.69 40.99 L 1.68 40.98 L 1.67 40.98 L 1.67 40.98 L 1.66 40.97 L 1.66 40.97 L 1.66 40.96 L 1.66 40.96 L 1.65 40.96 L 1.66 40.95 L 1.66 40.95 L 1.66 40.94 L 1.66 40.94 L 1.67 40.93 L 1.67 40.93 L 1.68 40.93 L 1.69 40.92 L 1.69 40.92 L 1.70 40.92 L 1.71 40.92 L 1.72 40.92 L 1.72 40.92 L 1.73 40.92 L 1.74 40.92 L 1.75 40.92 L 1.75 40.93 L 1.76 40.93 L 1.76 40.93 L 1.77 40.94 L 1.77 40.94 L 1.78 40.95 L 1.78 40.95 L 1.78 40.96" stroke="rgba(255,255,255,0.92)" stroke-width="1.0" fill="none"/>
  <path d="M 2.27 40.96 L 2.27 40.96 L 2.27 40.96 L 2.27 40.97 L 2.26 40.97 L 2.26 40.98 L 2.25 40.98 L 2.25 40.98 L 2.24 40.99 L 2.23 40.99 L 2.23 40.99 L 2.22 40.99 L 2.21 40.99 L 2.20 40.99 L 2.20 40.99 L 2.19 40.99 L 2.18 40.99 L 2.17 40.98 L 2.17 40.98 L 2.16 40.98 L 2.16 40.97 L 2.15 40.97 L 2.15 40.96 L 2.15 40.96 L 2.15 40.96 L 2.15 40.95 L 2.15 40.95 L 2.15 40.94 L 2.16 40.94 L 2.16 40.93 L 2.17 40.93 L 2.17 40.93 L 2.18 40.92 L 2.19 40.92 L 2.20 40.92 L 2.20 40.92 L 2.21 40.92 L 2.22 40.92 L 2.23 40.92 L 2.23 40.92 L 2.24 40.92 L 2.25 40.93 L 2.25 40.93 L 2.26 40.93 L 2.26 40.94 L 2.27 40.94 L 2.27 40.95 L 2.27 40.95 L 2.27 40.96" stroke="rgba(255,255,255,0.92)" stroke-width="1.0" fill="none"/>
  <path d="M 2.77 40.96 L 2.77 40.96 L 2.77 40.96 L 2.76 40.97 L 2.76 40.97 L 2.75 40.98 L 2.75 40.98 L 2.74 40.98 L 2.74 40.99 L 2.73 40.99 L 2.72 40.99 L 2.71 40.99 L 2.71 40.99 L 2.70 40.99 L 2.69 40.99 L 2.68 40.99 L 2.68 40.99 L 2.67 40.98 L 2.66 40.98 L 2.66 40.98 L 2.65 40.97 L 2.65 40.97 L 2.65 40.96 L 2.65 40.96 L 2.64 40.96 L 2.65 40.95 L 2.65 40.95 L 2.65 40.94 L 2.65 40.94 L 2.66 40.93 L 2.66 40.93 L 2.67 40.93 L 2.68 40.92 L 2.68 40.92 L 2.69 40.92 L 2.70 40.92 L 2.71 40.92 L 2.71 40.92 L 2.72 40.92 L 2.73 40.92 L 2.74 40.92 L 2.74 40.93 L 2.75 40.93 L 2.75 40.93 L 2.76 40.94 L 2.76 40.94 L 2.77 40.95 L 2.77 40.95 L 2.77 40.96" stroke="rgba(255,255,255,0.92)" stroke-width="1.0" fill="none"/>
  <path d="M 3.26 40.96 L 3.26 40.96 L 3.26 40.96 L 3.26 40.97 L 3.25 40.97 L 3.25 40.98 L 3.24 40.98 L 3.24 40.98 L 3.23 40.99 L 3.22 40.99 L 3.22 40.99 L 3.21 40.99 L 3.20 40.99 L 3.19 40.99 L 3.19 40.99 L 3.18 40.99 L 3.17 40.99 L 3.16 40.98 L 3.16 40.98 L 3.15 40.98 L 3.15 40.97 L 3.14 40.97 L 3.14 40.96 L 3.14 40.96 L 3.14 40.96 L 3.14 40.95 L 3.14 40.95 L 3.14 40.94 L 3.15 40.94 L 3.15 40.93 L 3.16 40.93 L 3.16 40.93 L 3.17 40.92 L 3.18 40.92 L 3.19 40.92 L 3.19 40.92 L 3.20 40.92 L 3.21 40.92 L 3.22 40.92 L 3.22 40.92 L 3.23 40.92 L 3.24 40.93 L 3.24 40.93 L 3.25 40.93 L 3.25 40.94 L 3.26 40.94 L 3.26 40.95 L 3.26 40.95 L 3.26 40.96" stroke="rgba(255,255,255,0.92)" stroke-width="1.0" fill="none"/>
  <path d="M 3.76 40.96 L 3.76 40.96 L 3.76 40.96 L 3.75 40.97 L 3.75 40.97 L 3.75 40.98 L 3.74 40.98 L 3.73 40.98 L 3.73 40.99 L 3.72 40.99 L 3.71 40.99 L 3.70 40.99 L 3.70 40.99 L 3.69 40.99 L 3.68 40.99 L 3.67 40.99 L 3.67 40.99 L 3.66 40.98 L 3.65 40.98 L 3.65 40.98 L 3.64 40.97 L 3.64 40.97 L 3.64 40.96 L 3.64 40.96 L 3.63 40.96 L 3.64 40.95 L 3.64 40.95 L 3.64 40.94 L 3.64 40.94 L 3.65 40.93 L 3.65 40.93 L 3.66 40.93 L 3.67 40.92 L 3.67 40.92 L 3.68 40.92 L 3.69 40.92 L 3.70 40.92 L 3.70 40.92 L 3.71 40.92 L 3.72 40.92 L 3.73 40.92 L 3.73 40.93 L 3.74 40.93 L 3.75 40.93 L 3.75 40.94 L 3.75 40.94 L 3.76 40.95 L 3.76 40.95 L 3.76 40.96" stroke="rgba(255,255,255,0.92)" stroke-width="1.0" fill="none"/>
  <path d="M 4.25 40.96 L 4.25 40.96 L 4.25 40.96 L 4.25 40.97 L 4.24 40.97 L 4.24 40.98 L 4.23 40.98 L 4.23 40.98 L 4.22 40.99 L 4.21 40.99 L 4.21 40.99 L 4.20 40.99 L 4.19 40.99 L 4.18 40.99 L 4.18 40.99 L 4.17 40.99 L 4.16 40.99 L 4.15 40.98 L 4.15 40.98 L 4.14 40.98 L 4.14 40.97 L 4.13 40.97 L 4.13 40.96 L 4.13 40.96 L 4.13 40.96 L 4.13 40.95 L 4.13 40.95 L 4.13 40.94 L 4.14 40.94 L 4.14 40.93 L 4.15 40.93 L 4.15 40.93 L 4.16 40.92 L 4.17 40.92 L 4.18 40.92 L 4.18 40.92 L 4.19 40.92 L 4.20 40.92 L 4.21 40.92 L 4.21 40.92 L 4.22 40.92 L 4.23 40.93 L 4.23 40.93 L 4.24 40.93 L 4.24 40.94 L 4.25 40.94 L 4.25 40.95 L 4.25 40.95 L 4.25 40.96" stroke="rgba(255,255,255,0.92)" stroke-width="1.0" fill="none"/>
  <path d="M 4.80 40.96 L 4.80 40.96 L 4.80 40.96 L 4.79 40.97 L 4.79 40.97 L 4.79 40.98 L 4.78 40.98 L 4.77 40.98 L 4.77 40.99 L 4.76 40.99 L 4.75 40.99 L 4.75 40.99 L 4.74 40.99 L 4.73 40.99 L 4.72 40.99 L 4.71 40.99 L 4.71 40.99 L 4.70 40.98 L 4.69 40.98 L 4.69 40.98 L 4.68 40.97 L 4.68 40.97 L 4.68 40.96 L 4.68 40.96 L 4.68 40.96 L 4.68 40.95 L 4.68 40.95 L 4.68 40.94 L 4.68 40.94 L 4.69 40.93 L 4.69 40.93 L 4.70 40.93 L 4.71 40.92 L 4.71 40.92 L 4.72 40.92 L 4.73 40.92 L 4.74 40.92 L 4.75 40.92 L 4.75 40.92 L 4.76 40.92 L 4.77 40.92 L 4.77 40.93 L 4.78 40.93 L 4.79 40.93 L 4.79 40.94 L 4.79 40.94 L 4.80 40.95 L 4.80 40.95 L 4.80 40.96" stroke="rgba(255,255,255,0.92)" stroke-width="1.0" fill="none"/>
  <path d="M 5.28 40.96 L 5.27 40.96 L 5.27 40.96 L 5.27 40.97 L 5.27 40.97 L 5.26 40.98 L 5.26 40.98 L 5.25 40.98 L 5.24 40.99 L 5.24 40.99 L 5.23 40.99 L 5.22 40.99 L 5.21 40.99 L 5.21 40.99 L 5.20 40.99 L 5.19 40.99 L 5.18 40.99 L 5.18 40.98 L 5.17 40.98 L 5.17 40.98 L 5.16 40.97 L 5.16 40.97 L 5.15 40.96 L 5.15 40.96 L 5.15 40.96 L 5.15 40.95 L 5.15 40.95 L 5.16 40.94 L 5.16 40.94 L 5.17 40.93 L 5.17 40.93 L 5.18 40.93 L 5.18 40.92 L 5.19 40.92 L 5.20 40.92 L 5.21 40.92 L 5.21 40.92 L 5.22 40.92 L 5.23 40.92 L 5.24 40.92 L 5.24 40.92 L 5.25 40.93 L 5.26 40.93 L 5.26 40.93 L 5.27 40.94 L 5.27 40.94 L 5.27 40.95 L 5.27 40.95 L 5.28 40.96" stroke="rgba(255,255,255,0.92)" stroke-width="1.0" fill="none"/>
  <path d="M 5.81 40.96 L 5.80 40.96 L 5.80 40.96 L 5.80 40.97 L 5.80 40.97 L 5.79 40.98 L 5.79 40.98 L 5.78 40.98 L 5.77 40.99 L 5.77 40.99 L 5.76 40.99 L 5.75 40.99 L 5.74 40.99 L 5.74 40.99 L 5.73 40.99 L 5.72 40.99 L 5.71 40.99 L 5.71 40.98 L 5.70 40.98 L 5.69 40.98 L 5.69 40.97 L 5.69 40.97 L 5.68 40.96 L 5.68 40.96 L 5.68 40.96 L 5.68 40.95 L 5.68 40.95 L 5.69 40.94 L 5.69 40.94 L 5.69 40.93 L 5.70 40.93 L 5.71 40.93 L 5.71 40.92 L 5.72 40.92 L 5.73 40.92 L 5.74 40.92 L 5.74 40.92 L 5.75 40.92 L 5.76 40.92 L 5.77 40.92 L 5.77 40.92 L 5.78 40.93 L 5.79 40.93 L 5.79 40.93 L 5.80 40.94 L 5.80 40.94 L 5.80 40.95 L 5.80 40.95 L 5.81 40.96" stroke="rgba(255,255,255,0.92)" stroke-width="1.0" fill="none"/>
  <path d="M 3.56 42.09 L 3.56 46.58" stroke="rgba(255,255,255,0.92)" stroke-width="1.0" fill="none"/>
  <path d="M 3.87 42.09 L 3.87 46.58" stroke="rgba(255,255,255,0.92)" stroke-width="1.0" fill="none"/>
  <path d="M 2.48 46.52 L 3.37 46.52 L 3.37 47.00 L 2.48 47.00 Z" stroke="rgba(255,255,255,0.92)" stroke-width="1.0" fill="none"/>
  <path d="M 4.95 46.52 L 4.06 46.52 L 4.06 47.00 L 4.95 47.00 Z" stroke="rgba(255,255,255,0.92)" stroke-width="1.0" fill="none"/>
  <path d="M 3.37 46.58 L 4.06 46.58" stroke="rgba(255,255,255,0.92)" stroke-width="1.0" fill="none"/>
  <path d="M 3.37 46.95 L 4.06 46.95" stroke="rgba(255,255,255,0.92)" stroke-width="1.0" fill="none"/>
  <path d="M 3.87 46.95 L 3.87 48.76" stroke="rgba(255,255,255,0.92)" stroke-width="1.0" fill="none"/>
  <path d="M 3.56 46.95 L 3.56 48.76" stroke="rgba(255,255,255,0.92)" stroke-width="1.0" fill="none"/>
  <path d="M 4.06 46.61 L 3.37 46.61" stroke="rgba(255,255,255,0.92)" stroke-width="1.0" fill="none"/>
  <path d="M 4.06 46.66 L 3.37 46.66" stroke="rgba(255,255,255,0.92)" stroke-width="1.0" fill="none"/>
  <path d="M 4.06 46.92 L 3.37 46.92" stroke="rgba(255,255,255,0.92)" stroke-width="1.0" fill="none"/>
  <path d="M 4.06 46.86 L 3.37 46.86" stroke="rgba(255,255,255,0.92)" stroke-width="1.0" fill="none"/>
  <path d="M 3.37 46.55 L 2.48 46.55" stroke="rgba(255,255,255,0.92)" stroke-width="1.0" fill="none"/>
  <path d="M 3.37 46.60 L 2.48 46.60" stroke="rgba(255,255,255,0.92)" stroke-width="1.0" fill="none"/>
  <path d="M 3.37 46.67 L 2.48 46.67" stroke="rgba(255,255,255,0.92)" stroke-width="1.0" fill="none"/>
  <path d="M 3.37 46.97 L 2.48 46.97" stroke="rgba(255,255,255,0.92)" stroke-width="1.0" fill="none"/>
  <path d="M 3.37 46.92 L 2.48 46.92" stroke="rgba(255,255,255,0.92)" stroke-width="1.0" fill="none"/>
  <path d="M 3.37 46.85 L 2.48 46.85" stroke="rgba(255,255,255,0.92)" stroke-width="1.0" fill="none"/>
  <path d="M 4.06 46.55 L 4.95 46.55" stroke="rgba(255,255,255,0.92)" stroke-width="1.0" fill="none"/>
  <path d="M 4.06 46.60 L 4.95 46.60" stroke="rgba(255,255,255,0.92)" stroke-width="1.0" fill="none"/>
  <path d="M 4.06 46.67 L 4.95 46.67" stroke="rgba(255,255,255,0.92)" stroke-width="1.0" fill="none"/>
  <path d="M 4.06 46.97 L 4.95 46.97" stroke="rgba(255,255,255,0.92)" stroke-width="1.0" fill="none"/>
  <path d="M 4.06 46.92 L 4.95 46.92" stroke="rgba(255,255,255,0.92)" stroke-width="1.0" fill="none"/>
  <path d="M 4.06 46.85 L 4.95 46.85" stroke="rgba(255,255,255,0.92)" stroke-width="1.0" fill="none"/>
  <path d="M 1.77 48.76 L 5.66 48.76 L 5.66 48.97 L 1.77 48.97 Z" stroke="rgba(255,255,255,0.92)" stroke-width="1.0" fill="none"/>
  <path d="M 3.87 48.97 L 3.87 53.36" stroke="rgba(255,255,255,0.92)" stroke-width="1.0" fill="none"/>
  <path d="M 3.56 48.97 L 3.56 53.36" stroke="rgba(255,255,255,0.92)" stroke-width="1.0" fill="none"/>
  <path d="M 2.04 49.25 L 5.39 49.25 L 5.39 49.27 L 2.04 49.27 Z" stroke="rgba(255,255,255,0.92)" stroke-width="1.0" fill="none"/>
  <path d="M 2.26 48.97 L 2.31 48.97 L 2.31 49.25 L 2.26 49.25 Z" stroke="rgba(255,255,255,0.92)" stroke-width="1.0" fill="none"/>
  <path d="M 2.56 48.97 L 2.61 48.97 L 2.61 49.25 L 2.56 49.25 Z" stroke="rgba(255,255,255,0.92)" stroke-width="1.0" fill="none"/>
  <path d="M 5.17 48.97 L 5.12 48.97 L 5.12 49.25 L 5.17 49.25 Z" stroke="rgba(255,255,255,0.92)" stroke-width="1.0" fill="none"/>
  <path d="M 4.87 48.97 L 4.81 48.97 L 4.81 49.25 L 4.87 49.25 Z" stroke="rgba(255,255,255,0.92)" stroke-width="1.0" fill="none"/>
  <path d="M 4.37 46.52 L 4.37 45.02" stroke="rgba(255,255,255,0.92)" stroke-width="1.0" fill="none"/>
  <path d="M 4.65 46.52 L 4.65 45.02" stroke="rgba(255,255,255,0.92)" stroke-width="1.0" fill="none"/>
  <path d="M 4.07 43.47 L 4.12 45.00" stroke="rgba(255,255,255,0.92)" stroke-width="1.0" fill="none"/>
  <path d="M 4.07 43.47 L 4.96 43.47" stroke="rgba(255,255,255,0.92)" stroke-width="1.0" fill="none"/>
  <path d="M 4.96 43.47 L 4.90 45.00" stroke="rgba(255,255,255,0.92)" stroke-width="1.0" fill="none"/>
  <path d="M 4.07 43.47 L 4.15 43.56" stroke="rgba(255,255,255,0.92)" stroke-width="1.0" fill="none"/>
  <path d="M 4.15 43.56 L 4.15 45.02" stroke="rgba(255,255,255,0.92)" stroke-width="1.0" fill="none"/>
  <path d="M 4.15 45.02 L 4.12 45.00" stroke="rgba(255,255,255,0.92)" stroke-width="1.0" fill="none"/>
  <path d="M 4.15 43.56 L 4.87 43.56" stroke="rgba(255,255,255,0.92)" stroke-width="1.0" fill="none"/>
  <path d="M 4.96 43.47 L 4.87 43.56" stroke="rgba(255,255,255,0.92)" stroke-width="1.0" fill="none"/>
  <path d="M 4.87 43.56 L 4.87 45.02" stroke="rgba(255,255,255,0.92)" stroke-width="1.0" fill="none"/>
  <path d="M 4.87 45.02 L 4.90 45.00" stroke="rgba(255,255,255,0.92)" stroke-width="1.0" fill="none"/>
  <path d="M 4.87 45.02 L 4.15 45.02" stroke="rgba(255,255,255,0.92)" stroke-width="1.0" fill="none"/>
  <path d="M 4.77 43.77 L 4.76 43.77 L 4.76 43.78 L 4.76 43.78 L 4.76 43.79 L 4.76 43.79 L 4.75 43.79 L 4.75 43.80 L 4.74 43.80 L 4.74 43.80 L 4.73 43.80 L 4.73 43.80 L 4.72 43.80 L 4.72 43.80 L 4.71 43.80 L 4.71 43.80 L 4.70 43.80 L 4.70 43.80 L 4.69 43.79 L 4.69 43.79 L 4.69 43.79 L 4.69 43.78 L 4.68 43.78 L 4.68 43.77 L 4.68 43.77 L 4.68 43.76 L 4.68 43.76 L 4.69 43.75 L 4.69 43.75 L 4.69 43.75 L 4.69 43.74 L 4.70 43.74 L 4.70 43.74 L 4.71 43.73 L 4.71 43.73 L 4.72 43.73 L 4.72 43.73 L 4.73 43.73 L 4.73 43.73 L 4.74 43.73 L 4.74 43.74 L 4.75 43.74 L 4.75 43.74 L 4.76 43.75 L 4.76 43.75 L 4.76 43.75 L 4.76 43.76 L 4.76 43.76 L 4.77 43.77" stroke="rgba(255,255,255,0.92)" stroke-width="1.0" fill="none"/>
  <path d="M 4.55 43.77 L 4.55 43.77 L 4.55 43.78 L 4.55 43.78 L 4.55 43.79 L 4.55 43.79 L 4.54 43.79 L 4.54 43.80 L 4.53 43.80 L 4.53 43.80 L 4.52 43.80 L 4.52 43.80 L 4.51 43.80 L 4.51 43.80 L 4.50 43.80 L 4.50 43.80 L 4.49 43.80 L 4.49 43.80 L 4.48 43.79 L 4.48 43.79 L 4.48 43.79 L 4.47 43.78 L 4.47 43.78 L 4.47 43.77 L 4.47 43.77 L 4.47 43.76 L 4.47 43.76 L 4.47 43.75 L 4.48 43.75 L 4.48 43.75 L 4.48 43.74 L 4.49 43.74 L 4.49 43.74 L 4.50 43.73 L 4.50 43.73 L 4.51 43.73 L 4.51 43.73 L 4.52 43.73 L 4.52 43.73 L 4.53 43.73 L 4.53 43.74 L 4.54 43.74 L 4.54 43.74 L 4.55 43.75 L 4.55 43.75 L 4.55 43.75 L 4.55 43.76 L 4.55 43.76 L 4.55 43.77" stroke="rgba(255,255,255,0.92)" stroke-width="1.0" fill="none"/>
  <path d="M 4.26 43.77 L 4.26 43.76 L 4.26 43.76 L 4.26 43.75 L 4.26 43.75 L 4.27 43.75 L 4.27 43.74 L 4.28 43.74 L 4.28 43.74 L 4.28 43.73 L 4.29 43.73 L 4.30 43.73 L 4.30 43.73 L 4.31 43.73 L 4.31 43.73 L 4.32 43.73 L 4.32 43.74 L 4.33 43.74 L 4.33 43.74 L 4.33 43.75 L 4.34 43.75 L 4.34 43.75 L 4.34 43.76 L 4.34 43.76 L 4.34 43.77 L 4.34 43.77 L 4.34 43.78 L 4.34 43.78 L 4.34 43.79 L 4.33 43.79 L 4.33 43.79 L 4.33 43.80 L 4.32 43.80 L 4.32 43.80 L 4.31 43.80 L 4.31 43.80 L 4.30 43.80 L 4.30 43.80 L 4.29 43.80 L 4.28 43.80 L 4.28 43.80 L 4.28 43.80 L 4.27 43.79 L 4.27 43.79 L 4.26 43.79 L 4.26 43.78 L 4.26 43.78 L 4.26 43.77 L 4.26 43.77" stroke="rgba(255,255,255,0.92)" stroke-width="1.0" fill="none"/>
  <path d="M 4.77 43.93 L 4.76 43.94 L 4.76 43.94 L 4.76 43.95 L 4.76 43.95 L 4.76 43.95 L 4.75 43.96 L 4.75 43.96 L 4.74 43.96 L 4.74 43.97 L 4.73 43.97 L 4.73 43.97 L 4.72 43.97 L 4.72 43.97 L 4.71 43.97 L 4.71 43.97 L 4.70 43.96 L 4.70 43.96 L 4.69 43.96 L 4.69 43.95 L 4.69 43.95 L 4.69 43.95 L 4.68 43.94 L 4.68 43.94 L 4.68 43.93 L 4.68 43.93 L 4.68 43.92 L 4.69 43.92 L 4.69 43.91 L 4.69 43.91 L 4.69 43.91 L 4.70 43.90 L 4.70 43.90 L 4.71 43.90 L 4.71 43.90 L 4.72 43.90 L 4.72 43.90 L 4.73 43.90 L 4.73 43.90 L 4.74 43.90 L 4.74 43.90 L 4.75 43.90 L 4.75 43.91 L 4.76 43.91 L 4.76 43.91 L 4.76 43.92 L 4.76 43.92 L 4.76 43.93 L 4.77 43.93" stroke="rgba(255,255,255,0.92)" stroke-width="1.0" fill="none"/>
  <path d="M 4.77 44.10 L 4.76 44.10 L 4.76 44.11 L 4.76 44.11 L 4.76 44.11 L 4.76 44.12 L 4.75 44.12 L 4.75 44.13 L 4.74 44.13 L 4.74 44.13 L 4.73 44.13 L 4.73 44.13 L 4.72 44.13 L 4.72 44.13 L 4.71 44.13 L 4.71 44.13 L 4.70 44.13 L 4.70 44.13 L 4.69 44.12 L 4.69 44.12 L 4.69 44.11 L 4.69 44.11 L 4.68 44.11 L 4.68 44.10 L 4.68 44.10 L 4.68 44.09 L 4.68 44.09 L 4.69 44.08 L 4.69 44.08 L 4.69 44.07 L 4.69 44.07 L 4.70 44.07 L 4.70 44.07 L 4.71 44.06 L 4.71 44.06 L 4.72 44.06 L 4.72 44.06 L 4.73 44.06 L 4.73 44.06 L 4.74 44.06 L 4.74 44.07 L 4.75 44.07 L 4.75 44.07 L 4.76 44.07 L 4.76 44.08 L 4.76 44.08 L 4.76 44.09 L 4.76 44.09 L 4.77 44.10" stroke="rgba(255,255,255,0.92)" stroke-width="1.0" fill="none"/>
  <path d="M 4.77 44.26 L 4.76 44.27 L 4.76 44.27 L 4.76 44.28 L 4.76 44.28 L 4.76 44.28 L 4.75 44.29 L 4.75 44.29 L 4.74 44.29 L 4.74 44.29 L 4.73 44.30 L 4.73 44.30 L 4.72 44.30 L 4.72 44.30 L 4.71 44.30 L 4.71 44.29 L 4.70 44.29 L 4.70 44.29 L 4.69 44.29 L 4.69 44.28 L 4.69 44.28 L 4.69 44.28 L 4.68 44.27 L 4.68 44.27 L 4.68 44.26 L 4.68 44.26 L 4.68 44.25 L 4.69 44.25 L 4.69 44.24 L 4.69 44.24 L 4.69 44.24 L 4.70 44.23 L 4.70 44.23 L 4.71 44.23 L 4.71 44.23 L 4.72 44.23 L 4.72 44.22 L 4.73 44.23 L 4.73 44.23 L 4.74 44.23 L 4.74 44.23 L 4.75 44.23 L 4.75 44.24 L 4.76 44.24 L 4.76 44.24 L 4.76 44.25 L 4.76 44.25 L 4.76 44.26 L 4.77 44.26" stroke="rgba(255,255,255,0.92)" stroke-width="1.0" fill="none"/>
  <path d="M 4.77 44.43 L 4.76 44.43 L 4.76 44.43 L 4.76 44.44 L 4.76 44.44 L 4.76 44.45 L 4.75 44.45 L 4.75 44.45 L 4.74 44.46 L 4.74 44.46 L 4.73 44.46 L 4.73 44.46 L 4.72 44.46 L 4.72 44.46 L 4.71 44.46 L 4.71 44.46 L 4.70 44.46 L 4.70 44.45 L 4.69 44.45 L 4.69 44.45 L 4.69 44.44 L 4.69 44.44 L 4.68 44.43 L 4.68 44.43 L 4.68 44.43 L 4.68 44.42 L 4.68 44.42 L 4.69 44.41 L 4.69 44.41 L 4.69 44.40 L 4.69 44.40 L 4.70 44.40 L 4.70 44.39 L 4.71 44.39 L 4.71 44.39 L 4.72 44.39 L 4.72 44.39 L 4.73 44.39 L 4.73 44.39 L 4.74 44.39 L 4.74 44.39 L 4.75 44.40 L 4.75 44.40 L 4.76 44.40 L 4.76 44.41 L 4.76 44.41 L 4.76 44.42 L 4.76 44.42 L 4.77 44.43" stroke="rgba(255,255,255,0.92)" stroke-width="1.0" fill="none"/>
  <path d="M 4.77 44.59 L 4.76 44.59 L 4.76 44.60 L 4.76 44.60 L 4.76 44.61 L 4.76 44.61 L 4.75 44.62 L 4.75 44.62 L 4.74 44.62 L 4.74 44.62 L 4.73 44.63 L 4.73 44.63 L 4.72 44.63 L 4.72 44.63 L 4.71 44.63 L 4.71 44.62 L 4.70 44.62 L 4.70 44.62 L 4.69 44.62 L 4.69 44.61 L 4.69 44.61 L 4.69 44.60 L 4.68 44.60 L 4.68 44.59 L 4.68 44.59 L 4.68 44.59 L 4.68 44.58 L 4.69 44.58 L 4.69 44.57 L 4.69 44.57 L 4.69 44.56 L 4.70 44.56 L 4.70 44.56 L 4.71 44.56 L 4.71 44.55 L 4.72 44.55 L 4.72 44.55 L 4.73 44.55 L 4.73 44.55 L 4.74 44.56 L 4.74 44.56 L 4.75 44.56 L 4.75 44.56 L 4.76 44.57 L 4.76 44.57 L 4.76 44.58 L 4.76 44.58 L 4.76 44.59 L 4.77 44.59" stroke="rgba(255,255,255,0.92)" stroke-width="1.0" fill="none"/>
  <path d="M 4.77 44.75 L 4.76 44.76 L 4.76 44.76 L 4.76 44.77 L 4.76 44.77 L 4.76 44.78 L 4.75 44.78 L 4.75 44.78 L 4.74 44.79 L 4.74 44.79 L 4.73 44.79 L 4.73 44.79 L 4.72 44.79 L 4.72 44.79 L 4.71 44.79 L 4.71 44.79 L 4.70 44.79 L 4.70 44.78 L 4.69 44.78 L 4.69 44.78 L 4.69 44.77 L 4.69 44.77 L 4.68 44.76 L 4.68 44.76 L 4.68 44.75 L 4.68 44.75 L 4.68 44.74 L 4.69 44.74 L 4.69 44.74 L 4.69 44.73 L 4.69 44.73 L 4.70 44.73 L 4.70 44.72 L 4.71 44.72 L 4.71 44.72 L 4.72 44.72 L 4.72 44.72 L 4.73 44.72 L 4.73 44.72 L 4.74 44.72 L 4.74 44.72 L 4.75 44.73 L 4.75 44.73 L 4.76 44.73 L 4.76 44.74 L 4.76 44.74 L 4.76 44.74 L 4.76 44.75 L 4.77 44.75" stroke="rgba(255,255,255,0.92)" stroke-width="1.0" fill="none"/>
  <path d="M 4.55 43.93 L 4.55 43.94 L 4.55 43.94 L 4.55 43.95 L 4.55 43.95 L 4.55 43.95 L 4.54 43.96 L 4.54 43.96 L 4.53 43.96 L 4.53 43.97 L 4.52 43.97 L 4.52 43.97 L 4.51 43.97 L 4.51 43.97 L 4.50 43.97 L 4.50 43.97 L 4.49 43.96 L 4.49 43.96 L 4.48 43.96 L 4.48 43.95 L 4.48 43.95 L 4.47 43.95 L 4.47 43.94 L 4.47 43.94 L 4.47 43.93 L 4.47 43.93 L 4.47 43.92 L 4.47 43.92 L 4.48 43.91 L 4.48 43.91 L 4.48 43.91 L 4.49 43.90 L 4.49 43.90 L 4.50 43.90 L 4.50 43.90 L 4.51 43.90 L 4.51 43.90 L 4.52 43.90 L 4.52 43.90 L 4.53 43.90 L 4.53 43.90 L 4.54 43.90 L 4.54 43.91 L 4.55 43.91 L 4.55 43.91 L 4.55 43.92 L 4.55 43.92 L 4.55 43.93 L 4.55 43.93" stroke="rgba(255,255,255,0.92)" stroke-width="1.0" fill="none"/>
  <path d="M 4.55 44.10 L 4.55 44.10 L 4.55 44.11 L 4.55 44.11 L 4.55 44.11 L 4.55 44.12 L 4.54 44.12 L 4.54 44.13 L 4.53 44.13 L 4.53 44.13 L 4.52 44.13 L 4.52 44.13 L 4.51 44.13 L 4.51 44.13 L 4.50 44.13 L 4.50 44.13 L 4.49 44.13 L 4.49 44.13 L 4.48 44.12 L 4.48 44.12 L 4.48 44.11 L 4.47 44.11 L 4.47 44.11 L 4.47 44.10 L 4.47 44.10 L 4.47 44.09 L 4.47 44.09 L 4.47 44.08 L 4.48 44.08 L 4.48 44.07 L 4.48 44.07 L 4.49 44.07 L 4.49 44.07 L 4.50 44.06 L 4.50 44.06 L 4.51 44.06 L 4.51 44.06 L 4.52 44.06 L 4.52 44.06 L 4.53 44.06 L 4.53 44.07 L 4.54 44.07 L 4.54 44.07 L 4.55 44.07 L 4.55 44.08 L 4.55 44.08 L 4.55 44.09 L 4.55 44.09 L 4.55 44.10" stroke="rgba(255,255,255,0.92)" stroke-width="1.0" fill="none"/>
  <path d="M 4.55 44.26 L 4.55 44.27 L 4.55 44.27 L 4.55 44.28 L 4.55 44.28 L 4.55 44.28 L 4.54 44.29 L 4.54 44.29 L 4.53 44.29 L 4.53 44.29 L 4.52 44.30 L 4.52 44.30 L 4.51 44.30 L 4.51 44.30 L 4.50 44.30 L 4.50 44.29 L 4.49 44.29 L 4.49 44.29 L 4.48 44.29 L 4.48 44.28 L 4.48 44.28 L 4.47 44.28 L 4.47 44.27 L 4.47 44.27 L 4.47 44.26 L 4.47 44.26 L 4.47 44.25 L 4.47 44.25 L 4.48 44.24 L 4.48 44.24 L 4.48 44.24 L 4.49 44.23 L 4.49 44.23 L 4.50 44.23 L 4.50 44.23 L 4.51 44.23 L 4.51 44.22 L 4.52 44.23 L 4.52 44.23 L 4.53 44.23 L 4.53 44.23 L 4.54 44.23 L 4.54 44.24 L 4.55 44.24 L 4.55 44.24 L 4.55 44.25 L 4.55 44.25 L 4.55 44.26 L 4.55 44.26" stroke="rgba(255,255,255,0.92)" stroke-width="1.0" fill="none"/>
  <path d="M 4.55 44.43 L 4.55 44.43 L 4.55 44.43 L 4.55 44.44 L 4.55 44.44 L 4.55 44.45 L 4.54 44.45 L 4.54 44.45 L 4.53 44.46 L 4.53 44.46 L 4.52 44.46 L 4.52 44.46 L 4.51 44.46 L 4.51 44.46 L 4.50 44.46 L 4.50 44.46 L 4.49 44.46 L 4.49 44.45 L 4.48 44.45 L 4.48 44.45 L 4.48 44.44 L 4.47 44.44 L 4.47 44.43 L 4.47 44.43 L 4.47 44.43 L 4.47 44.42 L 4.47 44.42 L 4.47 44.41 L 4.48 44.41 L 4.48 44.40 L 4.48 44.40 L 4.49 44.40 L 4.49 44.39 L 4.50 44.39 L 4.50 44.39 L 4.51 44.39 L 4.51 44.39 L 4.52 44.39 L 4.52 44.39 L 4.53 44.39 L 4.53 44.39 L 4.54 44.40 L 4.54 44.40 L 4.55 44.40 L 4.55 44.41 L 4.55 44.41 L 4.55 44.42 L 4.55 44.42 L 4.55 44.43" stroke="rgba(255,255,255,0.92)" stroke-width="1.0" fill="none"/>
  <path d="M 4.55 44.59 L 4.55 44.59 L 4.55 44.60 L 4.55 44.60 L 4.55 44.61 L 4.55 44.61 L 4.54 44.62 L 4.54 44.62 L 4.53 44.62 L 4.53 44.62 L 4.52 44.63 L 4.52 44.63 L 4.51 44.63 L 4.51 44.63 L 4.50 44.63 L 4.50 44.62 L 4.49 44.62 L 4.49 44.62 L 4.48 44.62 L 4.48 44.61 L 4.48 44.61 L 4.47 44.60 L 4.47 44.60 L 4.47 44.59 L 4.47 44.59 L 4.47 44.59 L 4.47 44.58 L 4.47 44.58 L 4.48 44.57 L 4.48 44.57 L 4.48 44.56 L 4.49 44.56 L 4.49 44.56 L 4.50 44.56 L 4.50 44.55 L 4.51 44.55 L 4.51 44.55 L 4.52 44.55 L 4.52 44.55 L 4.53 44.56 L 4.53 44.56 L 4.54 44.56 L 4.54 44.56 L 4.55 44.57 L 4.55 44.57 L 4.55 44.58 L 4.55 44.58 L 4.55 44.59 L 4.55 44.59" stroke="rgba(255,255,255,0.92)" stroke-width="1.0" fill="none"/>
  <path d="M 4.55 44.75 L 4.55 44.76 L 4.55 44.76 L 4.55 44.77 L 4.55 44.77 L 4.55 44.78 L 4.54 44.78 L 4.54 44.78 L 4.53 44.79 L 4.53 44.79 L 4.52 44.79 L 4.52 44.79 L 4.51 44.79 L 4.51 44.79 L 4.50 44.79 L 4.50 44.79 L 4.49 44.79 L 4.49 44.78 L 4.48 44.78 L 4.48 44.78 L 4.48 44.77 L 4.47 44.77 L 4.47 44.76 L 4.47 44.76 L 4.47 44.75 L 4.47 44.75 L 4.47 44.74 L 4.47 44.74 L 4.48 44.74 L 4.48 44.73 L 4.48 44.73 L 4.49 44.73 L 4.49 44.72 L 4.50 44.72 L 4.50 44.72 L 4.51 44.72 L 4.51 44.72 L 4.52 44.72 L 4.52 44.72 L 4.53 44.72 L 4.53 44.72 L 4.54 44.73 L 4.54 44.73 L 4.55 44.73 L 4.55 44.74 L 4.55 44.74 L 4.55 44.74 L 4.55 44.75 L 4.55 44.75" stroke="rgba(255,255,255,0.92)" stroke-width="1.0" fill="none"/>
  <path d="M 4.26 43.93 L 4.26 43.93 L 4.26 43.92 L 4.26 43.92 L 4.26 43.91 L 4.27 43.91 L 4.27 43.91 L 4.28 43.90 L 4.28 43.90 L 4.28 43.90 L 4.29 43.90 L 4.30 43.90 L 4.30 43.90 L 4.31 43.90 L 4.31 43.90 L 4.32 43.90 L 4.32 43.90 L 4.33 43.90 L 4.33 43.91 L 4.33 43.91 L 4.34 43.91 L 4.34 43.92 L 4.34 43.92 L 4.34 43.93 L 4.34 43.93 L 4.34 43.94 L 4.34 43.94 L 4.34 43.95 L 4.34 43.95 L 4.33 43.95 L 4.33 43.96 L 4.33 43.96 L 4.32 43.96 L 4.32 43.97 L 4.31 43.97 L 4.31 43.97 L 4.30 43.97 L 4.30 43.97 L 4.29 43.97 L 4.28 43.97 L 4.28 43.96 L 4.28 43.96 L 4.27 43.96 L 4.27 43.95 L 4.26 43.95 L 4.26 43.95 L 4.26 43.94 L 4.26 43.94 L 4.26 43.93" stroke="rgba(255,255,255,0.92)" stroke-width="1.0" fill="none"/>
  <path d="M 4.26 44.10 L 4.26 44.09 L 4.26 44.09 L 4.26 44.08 L 4.26 44.08 L 4.27 44.07 L 4.27 44.07 L 4.28 44.07 L 4.28 44.07 L 4.28 44.06 L 4.29 44.06 L 4.30 44.06 L 4.30 44.06 L 4.31 44.06 L 4.31 44.06 L 4.32 44.06 L 4.32 44.07 L 4.33 44.07 L 4.33 44.07 L 4.33 44.07 L 4.34 44.08 L 4.34 44.08 L 4.34 44.09 L 4.34 44.09 L 4.34 44.10 L 4.34 44.10 L 4.34 44.11 L 4.34 44.11 L 4.34 44.11 L 4.33 44.12 L 4.33 44.12 L 4.33 44.13 L 4.32 44.13 L 4.32 44.13 L 4.31 44.13 L 4.31 44.13 L 4.30 44.13 L 4.30 44.13 L 4.29 44.13 L 4.28 44.13 L 4.28 44.13 L 4.28 44.13 L 4.27 44.12 L 4.27 44.12 L 4.26 44.11 L 4.26 44.11 L 4.26 44.11 L 4.26 44.10 L 4.26 44.10" stroke="rgba(255,255,255,0.92)" stroke-width="1.0" fill="none"/>
  <path d="M 4.26 44.26 L 4.26 44.26 L 4.26 44.25 L 4.26 44.25 L 4.26 44.24 L 4.27 44.24 L 4.27 44.24 L 4.28 44.23 L 4.28 44.23 L 4.28 44.23 L 4.29 44.23 L 4.30 44.23 L 4.30 44.22 L 4.31 44.23 L 4.31 44.23 L 4.32 44.23 L 4.32 44.23 L 4.33 44.23 L 4.33 44.24 L 4.33 44.24 L 4.34 44.24 L 4.34 44.25 L 4.34 44.25 L 4.34 44.26 L 4.34 44.26 L 4.34 44.27 L 4.34 44.27 L 4.34 44.28 L 4.34 44.28 L 4.33 44.28 L 4.33 44.29 L 4.33 44.29 L 4.32 44.29 L 4.32 44.29 L 4.31 44.30 L 4.31 44.30 L 4.30 44.30 L 4.30 44.30 L 4.29 44.30 L 4.28 44.29 L 4.28 44.29 L 4.28 44.29 L 4.27 44.29 L 4.27 44.28 L 4.26 44.28 L 4.26 44.28 L 4.26 44.27 L 4.26 44.27 L 4.26 44.26" stroke="rgba(255,255,255,0.92)" stroke-width="1.0" fill="none"/>
  <path d="M 4.26 44.43 L 4.26 44.42 L 4.26 44.42 L 4.26 44.41 L 4.26 44.41 L 4.27 44.40 L 4.27 44.40 L 4.28 44.40 L 4.28 44.39 L 4.28 44.39 L 4.29 44.39 L 4.30 44.39 L 4.30 44.39 L 4.31 44.39 L 4.31 44.39 L 4.32 44.39 L 4.32 44.39 L 4.33 44.40 L 4.33 44.40 L 4.33 44.40 L 4.34 44.41 L 4.34 44.41 L 4.34 44.42 L 4.34 44.42 L 4.34 44.43 L 4.34 44.43 L 4.34 44.43 L 4.34 44.44 L 4.34 44.44 L 4.33 44.45 L 4.33 44.45 L 4.33 44.45 L 4.32 44.46 L 4.32 44.46 L 4.31 44.46 L 4.31 44.46 L 4.30 44.46 L 4.30 44.46 L 4.29 44.46 L 4.28 44.46 L 4.28 44.46 L 4.28 44.45 L 4.27 44.45 L 4.27 44.45 L 4.26 44.44 L 4.26 44.44 L 4.26 44.43 L 4.26 44.43 L 4.26 44.43" stroke="rgba(255,255,255,0.92)" stroke-width="1.0" fill="none"/>
  <path d="M 4.26 44.59 L 4.26 44.59 L 4.26 44.58 L 4.26 44.58 L 4.26 44.57 L 4.27 44.57 L 4.27 44.56 L 4.28 44.56 L 4.28 44.56 L 4.28 44.56 L 4.29 44.55 L 4.30 44.55 L 4.30 44.55 L 4.31 44.55 L 4.31 44.55 L 4.32 44.56 L 4.32 44.56 L 4.33 44.56 L 4.33 44.56 L 4.33 44.57 L 4.34 44.57 L 4.34 44.58 L 4.34 44.58 L 4.34 44.59 L 4.34 44.59 L 4.34 44.59 L 4.34 44.60 L 4.34 44.60 L 4.34 44.61 L 4.33 44.61 L 4.33 44.62 L 4.33 44.62 L 4.32 44.62 L 4.32 44.62 L 4.31 44.63 L 4.31 44.63 L 4.30 44.63 L 4.30 44.63 L 4.29 44.63 L 4.28 44.62 L 4.28 44.62 L 4.28 44.62 L 4.27 44.62 L 4.27 44.61 L 4.26 44.61 L 4.26 44.60 L 4.26 44.60 L 4.26 44.59 L 4.26 44.59" stroke="rgba(255,255,255,0.92)" stroke-width="1.0" fill="none"/>
  <path d="M 4.26 44.75 L 4.26 44.75 L 4.26 44.74 L 4.26 44.74 L 4.26 44.74 L 4.27 44.73 L 4.27 44.73 L 4.28 44.73 L 4.28 44.72 L 4.28 44.72 L 4.29 44.72 L 4.30 44.72 L 4.30 44.72 L 4.31 44.72 L 4.31 44.72 L 4.32 44.72 L 4.32 44.72 L 4.33 44.73 L 4.33 44.73 L 4.33 44.73 L 4.34 44.74 L 4.34 44.74 L 4.34 44.74 L 4.34 44.75 L 4.34 44.75 L 4.34 44.76 L 4.34 44.76 L 4.34 44.77 L 4.34 44.77 L 4.33 44.78 L 4.33 44.78 L 4.33 44.78 L 4.32 44.79 L 4.32 44.79 L 4.31 44.79 L 4.31 44.79 L 4.30 44.79 L 4.30 44.79 L 4.29 44.79 L 4.28 44.79 L 4.28 44.79 L 4.28 44.78 L 4.27 44.78 L 4.27 44.78 L 4.26 44.77 L 4.26 44.77 L 4.26 44.76 L 4.26 44.76 L 4.26 44.75" stroke="rgba(255,255,255,0.92)" stroke-width="1.0" fill="none"/>
  <path d="M 2.78 54.29 L 2.78 54.49" stroke="rgba(255,255,255,0.92)" stroke-width="1.0" fill="none"/>
  <path d="M 2.78 54.49 L 2.80 54.51" stroke="rgba(255,255,255,0.92)" stroke-width="1.0" fill="none"/>
  <path d="M 2.80 54.51 L 2.87 54.51" stroke="rgba(255,255,255,0.92)" stroke-width="1.0" fill="none"/>
  <path d="M 2.87 54.51 L 2.87 54.57" stroke="rgba(255,255,255,0.92)" stroke-width="1.0" fill="none"/>
  <path d="M 2.87 54.57 L 3.33 54.57" stroke="rgba(255,255,255,0.92)" stroke-width="1.0" fill="none"/>
  <path d="M 3.33 54.57 L 3.33 54.51" stroke="rgba(255,255,255,0.92)" stroke-width="1.0" fill="none"/>
  <path d="M 3.33 54.51 L 3.40 54.51" stroke="rgba(255,255,255,0.92)" stroke-width="1.0" fill="none"/>
  <path d="M 3.40 54.51 L 3.41 54.49" stroke="rgba(255,255,255,0.92)" stroke-width="1.0" fill="none"/>
  <path d="M 3.41 54.49 L 3.41 54.29" stroke="rgba(255,255,255,0.92)" stroke-width="1.0" fill="none"/>
  <path d="M 3.41 54.29 L 3.43 54.29" stroke="rgba(255,255,255,0.92)" stroke-width="1.0" fill="none"/>
  <path d="M 3.43 54.23 A 0.03 0.03 0 0 1 3.46 54.26" stroke="rgba(255,255,255,0.92)" stroke-width="1.0" fill="none"/>
  <path d="M 3.46 54.26 L 3.46 54.20" stroke="rgba(255,255,255,0.92)" stroke-width="1.0" fill="none"/>
  <path d="M 4.08 53.85 L 4.36 53.85" stroke="rgba(255,255,255,0.92)" stroke-width="1.0" fill="none"/>
  <path d="M 4.89 53.32 A 0.27 0.27 0 1 1 4.89 53.85" stroke="rgba(255,255,255,0.92)" stroke-width="1.0" fill="none"/>
  <path d="M 4.89 53.32 L 4.70 53.32" stroke="rgba(255,255,255,0.92)" stroke-width="1.0" fill="none"/>
  <path d="M 2.54 53.85 A 0.29 0.29 0 1 1 2.54 53.32" stroke="rgba(255,255,255,0.92)" stroke-width="1.0" fill="none"/>
  <path d="M 2.54 53.85 L 3.35 53.85" stroke="rgba(255,255,255,0.92)" stroke-width="1.0" fill="none"/>
  <path d="M 2.74 54.20 L 2.73 54.26" stroke="rgba(255,255,255,0.92)" stroke-width="1.0" fill="none"/>
  <path d="M 2.73 54.26 A 0.03 0.03 0 0 1 2.76 54.23" stroke="rgba(255,255,255,0.92)" stroke-width="1.0" fill="none"/>
  <path d="M 2.76 54.29 L 2.78 54.29" stroke="rgba(255,255,255,0.92)" stroke-width="1.0" fill="none"/>
  <path d="M 3.43 53.36 L 4.00 53.36 L 4.03 53.39 L 4.03 53.80 L 4.00 53.83 L 3.43 53.83 L 3.40 53.80 L 3.40 53.39 Z" stroke="rgba(255,255,255,0.92)" stroke-width="1.0" fill="none"/>
  <path d="M 2.93 53.85 L 2.93 53.93" stroke="rgba(255,255,255,0.92)" stroke-width="1.0" fill="none"/>
  <path d="M 3.21 53.85 L 3.21 53.93" stroke="rgba(255,255,255,0.92)" stroke-width="1.0" fill="none"/>
  <path d="M 4.36 53.42 L 4.81 53.42 L 4.81 54.75 L 4.36 54.75 Z" stroke="rgba(255,255,255,0.92)" stroke-width="1.0" fill="none"/>
  <path d="M 4.81 53.85 L 4.89 53.85" stroke="rgba(255,255,255,0.92)" stroke-width="1.0" fill="none"/>
  <path d="M 3.03 54.27 A 16.29 16.29 0 0 1 3.21 52.00" stroke="rgba(255,255,255,0.92)" stroke-width="1.0" fill="none"/>
  <path d="M 3.21 56.61 A 0.72 0.72 0 0 1 4.64 56.63" stroke="rgba(255,255,255,0.92)" stroke-width="1.0" fill="none"/>
  <path d="M 3.18 54.27 A 16.14 16.14 0 0 1 3.36 52.02" stroke="rgba(255,255,255,0.92)" stroke-width="1.0" fill="none"/>
  <path d="M 3.36 56.63 A 0.57 0.57 0 0 1 4.49 56.65" stroke="rgba(255,255,255,0.92)" stroke-width="1.0" fill="none"/>
  <path d="M 4.49 52.70 A 16.55 16.55 0 0 1 4.61 54.74" stroke="rgba(255,255,255,0.92)" stroke-width="1.0" fill="none"/>
  <path d="M 4.64 52.68 A 16.70 16.70 0 0 1 4.77 54.74" stroke="rgba(255,255,255,0.92)" stroke-width="1.0" fill="none"/>
  <path d="M 4.70 56.82 A 515.89 515.89 0 0 1 4.67 60.97" stroke="rgba(255,255,255,0.92)" stroke-width="1.0" fill="none"/>
  <path d="M 4.55 56.82 A 515.74 515.74 0 0 1 4.52 60.97" stroke="rgba(255,255,255,0.92)" stroke-width="1.0" fill="none"/>
  <path d="M 4.55 54.01 A 0.55 0.55 0 0 1 4.41 53.85" stroke="rgba(255,255,255,0.92)" stroke-width="1.0" fill="none"/>
  <path d="M 4.55 53.32 L 2.54 53.32" stroke="rgba(255,255,255,0.92)" stroke-width="1.0" fill="none"/>
  <path d="M 4.67 61.48 A 515.89 515.89 0 0 1 4.64 63.24" stroke="rgba(255,255,255,0.92)" stroke-width="1.0" fill="none"/>
  <path d="M 4.51 61.48 A 515.74 515.74 0 0 1 4.49 63.23" stroke="rgba(255,255,255,0.92)" stroke-width="1.0" fill="none"/>
  <path d="M 4.67 60.99 A 515.89 515.89 0 0 1 4.67 61.27" stroke="rgba(255,255,255,0.92)" stroke-width="1.0" fill="none"/>
  <path d="M 4.52 60.99 A 515.74 515.74 0 0 1 4.52 61.27" stroke="rgba(255,255,255,0.92)" stroke-width="1.0" fill="none"/>
  <path d="M 5.66 43.08 L 7.61 43.08" stroke="rgba(255,255,255,0.92)" stroke-width="1.0" fill="none"/>
  <path d="M 4.10 44.45 L 4.10 47.95" stroke="rgba(255,255,255,0.92)" stroke-width="1.0" fill="none"/>
  <path d="M 5.73 46.31 A 1.61 1.61 0 0 1 4.10 44.94" stroke="rgba(255,255,255,0.92)" stroke-width="1.0" fill="none"/>
  <path d="M 8.70 44.77 A 1.25 1.25 0 0 1 7.46 45.57" stroke="rgba(255,255,255,0.92)" stroke-width="1.0" fill="none"/>
  <path d="M 4.10 51.01 L 4.10 52.69" stroke="rgba(255,255,255,0.92)" stroke-width="1.0" fill="none"/>
  <path d="M 5.73 46.00 A 1.31 1.31 0 0 1 4.40 44.89" stroke="rgba(255,255,255,0.92)" stroke-width="1.0" fill="none"/>
  <path d="M 5.67 43.39 L 7.48 43.39" stroke="rgba(255,255,255,0.92)" stroke-width="1.0" fill="none"/>
  <path d="M 8.42 44.62 A 0.90 0.90 0 0 1 7.48 45.18" stroke="rgba(255,255,255,0.92)" stroke-width="1.0" fill="none"/>
  <path d="M 8.70 43.89 L 9.17 45.08" stroke="rgba(255,255,255,0.92)" stroke-width="1.0" fill="none"/>
  <path d="M 8.42 43.95 L 8.87 45.14" stroke="rgba(255,255,255,0.92)" stroke-width="1.0" fill="none"/>
  <path d="M 7.04 46.02 L 11.92 44.88" stroke="rgba(255,255,255,0.92)" stroke-width="1.0" fill="none"/>
  <path d="M 11.92 44.88 L 11.91 45.08" stroke="rgba(255,255,255,0.92)" stroke-width="1.0" fill="none"/>
  <path d="M 7.04 46.02 L 7.20 46.17" stroke="rgba(255,255,255,0.92)" stroke-width="1.0" fill="none"/>
  <path d="M 7.20 46.17 L 11.91 45.08" stroke="rgba(255,255,255,0.92)" stroke-width="1.0" fill="none"/>
  <path d="M 8.62 45.22 L 9.60 44.97" stroke="rgba(255,255,255,0.92)" stroke-width="1.0" fill="none"/>
  <path d="M 9.60 44.97 L 9.82 45.37" stroke="rgba(255,255,255,0.92)" stroke-width="1.0" fill="none"/>
  <path d="M 8.62 45.22 L 8.71 45.63" stroke="rgba(255,255,255,0.92)" stroke-width="1.0" fill="none"/>
  <path d="M 4.41 51.01 L 4.41 52.69" stroke="rgba(255,255,255,0.92)" stroke-width="1.0" fill="none"/>
  <circle cx="4.26" cy="50.69" r="0.36" stroke="rgba(255,255,255,0.92)" stroke-width="1.0" fill="none"/>
  <path d="M 4.10 51.01 L 4.10 52.69" stroke="rgba(255,255,255,0.92)" stroke-width="1.0" fill="none"/>
  <path d="M 3.43 52.69 L 6.49 52.69" stroke="rgba(255,255,255,0.92)" stroke-width="1.0" fill="none"/>
  <path d="M 3.43 52.90 L 6.49 52.90" stroke="rgba(255,255,255,0.92)" stroke-width="1.0" fill="none"/>
  <path d="M 6.49 52.69 L 6.49 52.90" stroke="rgba(255,255,255,0.92)" stroke-width="1.0" fill="none"/>
  <path d="M 4.10 51.01 L 4.10 52.69" stroke="rgba(255,255,255,0.92)" stroke-width="1.0" fill="none"/>
  <path d="M 4.40 44.50 L 4.40 47.95" stroke="rgba(255,255,255,0.92)" stroke-width="1.0" fill="none"/>
  <path d="M 3.43 47.95 L 3.65 47.95 L 3.65 49.45 L 3.43 49.45 Z" stroke="rgba(255,255,255,0.92)" stroke-width="1.0" fill="none"/>
  <path d="M 3.65 48.14 L 4.04 48.33" stroke="rgba(255,255,255,0.92)" stroke-width="1.0" fill="none"/>
  <path d="M 3.65 49.26 L 4.04 49.07" stroke="rgba(255,255,255,0.92)" stroke-width="1.0" fill="none"/>
  <path d="M 4.04 47.95 L 4.49 47.95 L 4.49 49.45 L 4.04 49.45 Z" stroke="rgba(255,255,255,0.92)" stroke-width="1.0" fill="none"/>
  <path d="M 4.40 49.45 L 4.40 50.36" stroke="rgba(255,255,255,0.92)" stroke-width="1.0" fill="none"/>
  <path d="M 4.10 49.45 L 4.10 50.37" stroke="rgba(255,255,255,0.92)" stroke-width="1.0" fill="none"/>
  <path d="M 3.43 52.69 L 3.43 52.90" stroke="rgba(255,255,255,0.92)" stroke-width="1.0" fill="none"/>
  <path d="M 4.10 52.90 L 4.10 53.18" stroke="rgba(255,255,255,0.92)" stroke-width="1.0" fill="none"/>
  <path d="M 4.41 52.90 L 4.41 53.18" stroke="rgba(255,255,255,0.92)" stroke-width="1.0" fill="none"/>
  <path d="M 4.10 52.90 L 4.10 53.18" stroke="rgba(255,255,255,0.92)" stroke-width="1.0" fill="none"/>
  <path d="M 4.10 52.90 L 4.10 53.18" stroke="rgba(255,255,255,0.92)" stroke-width="1.0" fill="none"/>
  <path d="M 3.43 53.18 L 6.49 53.18 L 6.49 53.20 L 3.43 53.20 Z" stroke="rgba(255,255,255,0.92)" stroke-width="1.0" fill="none"/>
  <path d="M 3.63 52.90 L 3.66 52.90 L 3.66 53.18 L 3.63 53.18 Z" stroke="rgba(255,255,255,0.92)" stroke-width="1.0" fill="none"/>
  <path d="M 6.29 52.90 L 6.32 52.90 L 6.32 53.18 L 6.29 53.18 Z" stroke="rgba(255,255,255,0.92)" stroke-width="1.0" fill="none"/>
  <path d="M 4.10 53.18 L 4.10 57.28" stroke="rgba(255,255,255,0.92)" stroke-width="1.0" fill="none"/>
  <path d="M 4.41 53.18 L 4.41 57.83" stroke="rgba(255,255,255,0.92)" stroke-width="1.0" fill="none"/>
  <path d="M 3.57 58.08 L 3.57 56.96" stroke="rgba(255,255,255,0.92)" stroke-width="1.0" fill="none"/>
  <path d="M 3.94 57.32 L 3.94 57.52" stroke="rgba(255,255,255,0.92)" stroke-width="1.0" fill="none"/>
  <path d="M 3.86 57.73 L 3.86 57.52" stroke="rgba(255,255,255,0.92)" stroke-width="1.0" fill="none"/>
  <path d="M 3.86 57.32 L 3.86 57.52" stroke="rgba(255,255,255,0.92)" stroke-width="1.0" fill="none"/>
  <path d="M 3.98 57.72 L 4.10 57.72" stroke="rgba(255,255,255,0.92)" stroke-width="1.0" fill="none"/>
  <path d="M 3.98 57.33 L 4.10 57.33" stroke="rgba(255,255,255,0.92)" stroke-width="1.0" fill="none"/>
  <path d="M 3.94 57.32 L 3.97 57.28 L 4.10 57.28 L 4.14 57.32 L 4.14 57.52" stroke="rgba(255,255,255,0.92)" stroke-width="1.0" fill="none"/>
  <path d="M 3.98 57.47 L 3.95 57.43 L 3.95 57.36 L 3.98 57.33 L 3.98 57.28" stroke="rgba(255,255,255,0.92)" stroke-width="1.0" fill="none"/>
  <path d="M 3.98 57.52 L 3.98 57.47 L 4.04 57.47" stroke="rgba(255,255,255,0.92)" stroke-width="1.0" fill="none"/>
  <path d="M 4.10 57.52 L 4.10 57.47 L 4.04 57.47" stroke="rgba(255,255,255,0.92)" stroke-width="1.0" fill="none"/>
  <path d="M 4.10 57.47 L 4.13 57.43 L 4.13 57.36 L 4.10 57.33 L 4.10 57.28" stroke="rgba(255,255,255,0.92)" stroke-width="1.0" fill="none"/>
  <path d="M 4.10 57.58 L 4.13 57.62 L 4.13 57.68 L 4.10 57.72 L 4.10 57.77" stroke="rgba(255,255,255,0.92)" stroke-width="1.0" fill="none"/>
  <path d="M 4.10 57.52 L 4.10 57.58 L 4.04 57.58" stroke="rgba(255,255,255,0.92)" stroke-width="1.0" fill="none"/>
  <path d="M 3.98 57.52 L 3.98 57.58 L 4.04 57.58" stroke="rgba(255,255,255,0.92)" stroke-width="1.0" fill="none"/>
  <path d="M 3.98 57.58 L 3.95 57.62 L 3.95 57.68 L 3.98 57.72 L 3.98 57.77" stroke="rgba(255,255,255,0.92)" stroke-width="1.0" fill="none"/>
  <path d="M 3.94 57.73 L 3.97 57.77 L 4.10 57.77 L 4.14 57.73 L 4.14 57.52" stroke="rgba(255,255,255,0.92)" stroke-width="1.0" fill="none"/>
  <path d="M 3.86 57.73 L 3.94 57.73 L 3.94 57.52" stroke="rgba(255,255,255,0.92)" stroke-width="1.0" fill="none"/>
  <path d="M 5.13 57.84 L 5.39 57.90" stroke="rgba(255,255,255,0.92)" stroke-width="1.0" fill="none"/>
  <path d="M 5.39 57.92 L 5.12 57.87" stroke="rgba(255,255,255,0.92)" stroke-width="1.0" fill="none"/>
  <path d="M 5.61 58.50 L 6.04 58.50" stroke="rgba(255,255,255,0.92)" stroke-width="1.0" fill="none"/>
  <path d="M 5.26 58.59 L 4.97 58.54" stroke="rgba(255,255,255,0.92)" stroke-width="1.0" fill="none"/>
  <path d="M 5.62 58.70 L 6.04 58.70" stroke="rgba(255,255,255,0.92)" stroke-width="1.0" fill="none"/>
  <path d="M 4.60 57.87 L 5.09 57.86" stroke="rgba(255,255,255,0.92)" stroke-width="1.0" fill="none"/>
  <path d="M 4.60 57.87 L 4.53 57.94 L 4.53 58.33 L 4.60 58.41" stroke="rgba(255,255,255,0.92)" stroke-width="1.0" fill="none"/>
  <path d="M 5.27 58.60 L 5.25 58.60 L 5.22 58.76 L 5.24 58.76 L 5.27 58.60" stroke="rgba(255,255,255,0.92)" stroke-width="1.0" fill="none"/>
  <circle cx="5.10" cy="58.66" r="0.09" stroke="rgba(255,255,255,0.92)" stroke-width="1.0" fill="none"/>
  <path d="M 4.96 58.55 L 4.98 58.55 L 4.95 58.71 L 4.93 58.71 L 4.96 58.55" stroke="rgba(255,255,255,0.92)" stroke-width="1.0" fill="none"/>
  <path d="M 5.29 58.51 L 4.97 58.46" stroke="rgba(255,255,255,0.92)" stroke-width="1.0" fill="none"/>
  <path d="M 5.23 58.78 L 5.17 58.77" stroke="rgba(255,255,255,0.92)" stroke-width="1.0" fill="none"/>
  <path d="M 4.99 58.74 L 4.92 58.72" stroke="rgba(255,255,255,0.92)" stroke-width="1.0" fill="none"/>
  <path d="M 5.17 58.77 L 4.99 58.74" stroke="rgba(255,255,255,0.92)" stroke-width="1.0" fill="none"/>
  <path d="M 5.13 57.60 L 5.49 57.68" stroke="rgba(255,255,255,0.92)" stroke-width="1.0" fill="none"/>
  <path d="M 3.86 57.76 A 0.06 0.06 0 0 1 3.91 57.72" stroke="rgba(255,255,255,0.92)" stroke-width="1.0" fill="none"/>
  <path d="M 3.91 57.83 L 5.08 57.83" stroke="rgba(255,255,255,0.92)" stroke-width="1.0" fill="none"/>
  <path d="M 5.59 59.71 A 0.69 0.69 0 0 1 5.30 59.79" stroke="rgba(255,255,255,0.92)" stroke-width="1.0" fill="none"/>
  <path d="M 5.59 58.50 L 5.61 58.50" stroke="rgba(255,255,255,0.92)" stroke-width="1.0" fill="none"/>
  <path d="M 5.61 58.50 L 5.62 58.70" stroke="rgba(255,255,255,0.92)" stroke-width="1.0" fill="none"/>
  <path d="M 5.62 58.70 L 5.63 58.71" stroke="rgba(255,255,255,0.92)" stroke-width="1.0" fill="none"/>
  <path d="M 5.63 58.71 L 6.02 58.71" stroke="rgba(255,255,255,0.92)" stroke-width="1.0" fill="none"/>
  <path d="M 6.02 58.71 L 6.04 58.70" stroke="rgba(255,255,255,0.92)" stroke-width="1.0" fill="none"/>
  <path d="M 6.04 58.70 L 6.04 58.50" stroke="rgba(255,255,255,0.92)" stroke-width="1.0" fill="none"/>
  <path d="M 6.04 58.50 L 6.05 58.50" stroke="rgba(255,255,255,0.92)" stroke-width="1.0" fill="none"/>
  <path d="M 6.05 58.37 A 0.07 0.07 0 0 1 6.09 58.45" stroke="rgba(255,255,255,0.92)" stroke-width="1.0" fill="none"/>
  <path d="M 6.09 58.42 L 6.03 58.10" stroke="rgba(255,255,255,0.92)" stroke-width="1.0" fill="none"/>
  <path d="M 6.03 58.15 A 0.08 0.08 0 0 1 5.97 58.21" stroke="rgba(255,255,255,0.92)" stroke-width="1.0" fill="none"/>
  <path d="M 5.97 58.05 L 5.39 57.92" stroke="rgba(255,255,255,0.92)" stroke-width="1.0" fill="none"/>
  <path d="M 5.39 57.92 L 5.39 57.90" stroke="rgba(255,255,255,0.92)" stroke-width="1.0" fill="none"/>
  <path d="M 5.39 57.90 L 5.44 57.91" stroke="rgba(255,255,255,0.92)" stroke-width="1.0" fill="none"/>
  <path d="M 5.44 57.91 L 5.49 57.68" stroke="rgba(255,255,255,0.92)" stroke-width="1.0" fill="none"/>
  <path d="M 5.49 57.68 L 5.53 57.61" stroke="rgba(255,255,255,0.92)" stroke-width="1.0" fill="none"/>
  <path d="M 5.53 57.60 A 0.03 0.03 0 0 1 5.51 57.63" stroke="rgba(255,255,255,0.92)" stroke-width="1.0" fill="none"/>
  <path d="M 5.51 60.05 A 1.31 1.31 0 0 1 5.15 60.13" stroke="rgba(255,255,255,0.92)" stroke-width="1.0" fill="none"/>
  <path d="M 5.15 57.57 A 0.03 0.03 0 0 1 5.13 57.54" stroke="rgba(255,255,255,0.92)" stroke-width="1.0" fill="none"/>
  <path d="M 5.13 57.53 L 5.13 57.60" stroke="rgba(255,255,255,0.92)" stroke-width="1.0" fill="none"/>
  <path d="M 5.13 57.60 L 5.08 57.83" stroke="rgba(255,255,255,0.92)" stroke-width="1.0" fill="none"/>
  <path d="M 5.08 57.83 L 5.13 57.84" stroke="rgba(255,255,255,0.92)" stroke-width="1.0" fill="none"/>
  <path d="M 5.13 57.84 L 5.12 57.87" stroke="rgba(255,255,255,0.92)" stroke-width="1.0" fill="none"/>
  <path d="M 5.12 57.87 L 5.09 57.86" stroke="rgba(255,255,255,0.92)" stroke-width="1.0" fill="none"/>
  <path d="M 3.94 57.32 L 3.86 57.32" stroke="rgba(255,255,255,0.92)" stroke-width="1.0" fill="none"/>
  <path d="M 3.86 57.32 L 3.86 57.26" stroke="rgba(255,255,255,0.92)" stroke-width="1.0" fill="none"/>
  <path d="M 3.86 57.26 L 3.57 56.96" stroke="rgba(255,255,255,0.92)" stroke-width="1.0" fill="none"/>
  <path d="M 3.57 56.96 L 3.43 56.96" stroke="rgba(255,255,255,0.92)" stroke-width="1.0" fill="none"/>
  <path d="M 3.43 56.96 L 3.43 58.08" stroke="rgba(255,255,255,0.92)" stroke-width="1.0" fill="none"/>
  <path d="M 3.43 58.08 L 3.57 58.08" stroke="rgba(255,255,255,0.92)" stroke-width="1.0" fill="none"/>
  <path d="M 3.57 58.08 L 3.86 57.79" stroke="rgba(255,255,255,0.92)" stroke-width="1.0" fill="none"/>
  <path d="M 3.86 57.79 L 3.86 57.73" stroke="rgba(255,255,255,0.92)" stroke-width="1.0" fill="none"/>
  <path d="M 5.30 58.57 A 0.08 0.08 0 0 1 5.24 58.48" stroke="rgba(255,255,255,0.92)" stroke-width="1.0" fill="none"/>
  <path d="M 5.29 58.51 L 5.26 58.59" stroke="rgba(255,255,255,0.92)" stroke-width="1.0" fill="none"/>
  <path d="M 4.97 58.46 L 4.97 58.54" stroke="rgba(255,255,255,0.92)" stroke-width="1.0" fill="none"/>
  <path d="M 4.97 59.04 A 0.37 0.37 0 0 1 4.60 59.09" stroke="rgba(255,255,255,0.92)" stroke-width="1.0" fill="none"/>
  <path d="M 4.60 58.41 L 3.43 58.41" stroke="rgba(255,255,255,0.92)" stroke-width="1.0" fill="none"/>
  <path d="M 3.43 58.08 L 3.43 58.41" stroke="rgba(255,255,255,0.92)" stroke-width="1.0" fill="none"/>
  <path d="M 4.57 49.94 L 4.96 48.16" stroke="rgba(255,255,255,0.92)" stroke-width="1.0" fill="none"/>
  <path d="M 5.42 48.16 L 4.85 50.02" stroke="rgba(255,255,255,0.92)" stroke-width="1.0" fill="none"/>
  <path d="M 5.42 48.16 L 4.96 48.16" stroke="rgba(255,255,255,0.92)" stroke-width="1.0" fill="none"/>
  <path d="M 4.91 49.99 L 5.45 48.31" stroke="rgba(255,255,255,0.92)" stroke-width="1.0" fill="none"/>
  <path d="M 4.91 49.99 L 4.85 49.99" stroke="rgba(255,255,255,0.92)" stroke-width="1.0" fill="none"/>
  <path d="M 5.42 48.16 L 5.45 48.31" stroke="rgba(255,255,255,0.92)" stroke-width="1.0" fill="none"/>
  <path d="M 4.57 49.94 L 4.85 50.02" stroke="rgba(255,255,255,0.92)" stroke-width="1.0" fill="none"/>
  <path d="M 4.72 50.05 L 4.59 50.55" stroke="rgba(255,255,255,0.92)" stroke-width="1.0" fill="none"/>
  <path d="M 4.61 49.95 L 4.61 49.99" stroke="rgba(255,255,255,0.92)" stroke-width="1.0" fill="none"/>
  <path d="M 4.74 50.05 L 4.76 49.99" stroke="rgba(255,255,255,0.92)" stroke-width="1.0" fill="none"/>
  <path d="M 4.61 49.76 A 0.18 0.18 0 0 1 4.74 49.69" stroke="rgba(255,255,255,0.92)" stroke-width="1.0" fill="none"/>
  <path d="M 4.61 49.99 L 4.49 50.42" stroke="rgba(255,255,255,0.92)" stroke-width="1.0" fill="none"/>
  <path d="M 3.81 58.42 L 3.81 58.45 L 3.84 58.84 L 3.87 59.19 L 3.90 59.50 L 3.93 59.78 L 3.96 60.35 L 4.00 60.57 L 4.03 60.76 L 4.07 60.92 L 4.11 61.05 L 4.15 61.16 L 4.19 61.24 L 4.24 61.31 L 4.29 61.35 L 4.34 61.38 L 4.40 61.38 L 4.46 61.36 L 4.52 61.32 L 4.59 61.26 L 4.67 61.17 L 4.75 61.06 L 4.84 60.92 L 4.92 60.75 L 4.99 60.54 L 5.06 60.28 L 5.11 59.65 L 5.15 59.28 L 5.16 58.84 L 5.21 58.85 L 5.22 58.78 L 5.23 58.78 L 5.27 58.59 L 5.26 58.59 L 5.27 58.51 L 5.29 58.51 L 5.31 58.47 L 5.42 58.43" stroke="rgba(255,255,255,0.92)" stroke-width="1.0" fill="none"/>
  <path d="M 4.01 58.41 L 4.01 58.44" stroke="rgba(255,255,255,0.92)" stroke-width="1.0" fill="none"/>
  <path d="M 4.01 58.44 L 4.04 58.82" stroke="rgba(255,255,255,0.92)" stroke-width="1.0" fill="none"/>
  <path d="M 4.04 58.82 L 4.07 59.17" stroke="rgba(255,255,255,0.92)" stroke-width="1.0" fill="none"/>
  <path d="M 4.07 59.17 L 4.10 59.48" stroke="rgba(255,255,255,0.92)" stroke-width="1.0" fill="none"/>
  <path d="M 4.10 59.48 L 4.13 59.75" stroke="rgba(255,255,255,0.92)" stroke-width="1.0" fill="none"/>
  <path d="M 4.13 59.75 L 4.16 60.32" stroke="rgba(255,255,255,0.92)" stroke-width="1.0" fill="none"/>
  <path d="M 4.16 60.32 L 4.20 60.53" stroke="rgba(255,255,255,0.92)" stroke-width="1.0" fill="none"/>
  <path d="M 4.20 60.53 L 4.23 60.71" stroke="rgba(255,255,255,0.92)" stroke-width="1.0" fill="none"/>
  <path d="M 4.23 60.71 L 4.28 60.94" stroke="rgba(255,255,255,0.92)" stroke-width="1.0" fill="none"/>
  <path d="M 4.56 60.98 L 4.66 60.83" stroke="rgba(255,255,255,0.92)" stroke-width="1.0" fill="none"/>
  <path d="M 4.66 60.83 L 4.73 60.67" stroke="rgba(255,255,255,0.92)" stroke-width="1.0" fill="none"/>
  <path d="M 4.73 60.67 L 4.80 60.48" stroke="rgba(255,255,255,0.92)" stroke-width="1.0" fill="none"/>
  <path d="M 4.80 60.48 L 4.86 59.91" stroke="rgba(255,255,255,0.92)" stroke-width="1.0" fill="none"/>
  <path d="M 4.86 59.91 L 4.91 59.62" stroke="rgba(255,255,255,0.92)" stroke-width="1.0" fill="none"/>
  <path d="M 4.91 59.62 L 4.94 59.26" stroke="rgba(255,255,255,0.92)" stroke-width="1.0" fill="none"/>
  <path d="M 4.94 59.26 L 4.95 58.81" stroke="rgba(255,255,255,0.92)" stroke-width="1.0" fill="none"/>
  <path d="M 4.95 58.81 L 4.93 58.80" stroke="rgba(255,255,255,0.92)" stroke-width="1.0" fill="none"/>
  <path d="M 4.93 58.80 L 4.94 58.73" stroke="rgba(255,255,255,0.92)" stroke-width="1.0" fill="none"/>
  <path d="M 4.94 58.73 L 4.92 58.72" stroke="rgba(255,255,255,0.92)" stroke-width="1.0" fill="none"/>
  <path d="M 4.96 58.76 A 0.14 0.14 0 0 1 4.92 58.57" stroke="rgba(255,255,255,0.92)" stroke-width="1.0" fill="none"/>
  <path d="M 4.96 58.53 L 4.97 58.54" stroke="rgba(255,255,255,0.92)" stroke-width="1.0" fill="none"/>
  <path d="M 4.97 58.54 L 4.99 58.46" stroke="rgba(255,255,255,0.92)" stroke-width="1.0" fill="none"/>
  <path d="M 4.99 58.46 L 4.97 58.46" stroke="rgba(255,255,255,0.92)" stroke-width="1.0" fill="none"/>
  <path d="M 4.28 60.87 A 0.15 0.15 0 0 1 4.56 60.82" stroke="rgba(255,255,255,0.92)" stroke-width="1.0" fill="none"/>
  <path d="M 4.49 47.95 L 4.40 47.95 L 4.40 44.50 L 4.53 44.10 L 4.94 43.63 L 5.44 43.41 L 5.91 43.39 L 7.58 43.38 L 8.04 43.51 L 8.27 43.70 L 8.46 44.05 L 8.87 45.14 L 8.62 45.22 L 8.71 45.63 L 7.04 46.02 L 7.23 46.17 L 11.91 45.08 L 11.92 44.88 L 9.82 45.37 L 9.60 44.97 L 9.17 45.08 L 8.70 43.87 L 8.53 43.57 L 8.21 43.28 L 7.75 43.10 L 7.46 43.08 L 5.66 43.08 L 5.21 43.16 L 4.79 43.36 L 4.41 43.72 L 4.16 44.19 L 4.10 44.45 L 4.10 47.95 L 4.04 47.95 L 4.04 48.33 L 3.65 48.14 L 3.65 47.95 L 3.43 47.95 L 3.43 49.45 L 3.65 49.45 L 3.65 49.26 L 4.04 49.07 L 4.04 49.45 L 4.10 49.45 L 4.10 50.37 L 4.01 50.43 L 3.92 50.56 L 3.90 50.69 L 3.92 50.81 L 3.97 50.91 L 4.04 50.97 L 4.10 51.01 L 4.10 52.69 L 3.43 52.69 L 3.43 52.90 L 3.63 52.90 L 3.63 53.20 L 4.10 53.20 L 4.10 57.28 L 3.97 57.28 L 3.94 57.32 L 3.86 57.32 L 3.86 57.26 L 3.57 56.96 L 3.43 56.96 L 3.43 58.41 L 3.80 58.41 L 3.91 59.64 L 3.96 60.35 L 4.11 61.05 L 4.34 61.38 L 4.46 61.36 L 4.71 61.12 L 4.92 60.75 L 5.09 59.96 L 5.15 59.20 L 5.16 58.84 L 5.21 58.85 L 5.22 58.78 L 5.23 58.78 L 5.26 58.75 L 5.28 58.72 L 5.29 58.66 L 5.29 58.62 L 5.27 58.59 L 5.26 58.58 L 5.30 58.48 L 5.39 58.42 L 5.60 58.50 L 5.61 58.50 L 5.62 58.70 L 5.63 58.71 L 6.02 58.71 L 6.04 58.70 L 6.04 58.50 L 6.05 58.50 L 6.09 58.47 L 6.09 58.45 L 6.09 58.42 L 6.03 58.10 L 6.01 58.06 L 5.99 58.05 L 5.97 58.05 L 5.39 57.92 L 5.39 57.90 L 5.44 57.91 L 5.49 57.69 L 5.53 57.61 L 5.53 57.59 L 5.51 57.58 L 5.36 57.53 L 5.29 57.52 L 5.20 57.51 L 5.15 57.50 L 5.14 57.51 L 5.13 57.53 L 5.13 57.60 L 5.08 57.83 L 4.41 57.83 L 4.41 53.20 L 6.32 53.20 L 6.32 52.90 L 6.49 52.90 L 6.49 52.69 L 4.41 52.69 L 4.41 51.01 L 4.51 50.94 L 4.59 50.82 L 4.58 50.68 L 4.59 50.55 L 4.74 49.99 L 4.85 50.02 L 4.85 49.99 L 4.91 49.99 L 5.45 48.31 L 5.42 48.15 L 4.96 48.16 L 4.57 49.94 L 4.61 49.95 L 4.49 50.42 L 4.45 50.39 L 4.40 50.36 L 4.40 49.45 L 4.49 49.45 Z" stroke="rgba(255,255,255,0.92)" stroke-width="1.0" fill="none"/>
  <path d="M 6.15 40.72 L 6.15 40.62 L 3.92 40.62 L 3.94 39.27 L 3.91 39.24 L 3.80 39.17 L 3.68 39.16 L 3.55 39.20 L 3.49 39.27 L 3.51 40.62 L 1.27 40.62 L 1.27 40.72 L 2.12 42.09 L 3.56 42.09 L 3.56 46.58 L 3.37 46.58 L 3.37 46.52 L 2.48 46.52 L 2.48 47.00 L 3.37 47.00 L 3.37 46.95 L 3.56 46.95 L 3.56 48.76 L 1.77 48.76 L 1.77 48.97 L 2.26 48.97 L 2.26 49.27 L 3.56 49.27 L 3.56 53.32 L 3.02 53.32 L 2.93 53.20 L 2.84 53.12 L 2.69 53.05 L 2.54 53.03 L 2.39 53.06 L 2.26 53.11 L 2.17 53.17 L 2.08 53.29 L 2.01 53.44 L 1.99 53.64 L 2.06 53.84 L 2.16 53.98 L 2.27 54.06 L 2.43 54.12 L 2.54 54.13 L 2.73 54.10 L 2.73 54.26 L 2.73 54.27 L 2.76 54.29 L 2.78 54.29 L 2.78 54.49 L 2.80 54.51 L 2.87 54.51 L 2.87 54.57 L 3.03 54.57 L 3.12 56.15 L 3.24 56.97 L 3.38 57.21 L 3.74 57.43 L 4.24 57.38 L 4.49 57.17 L 4.61 56.94 L 4.66 56.66 L 4.73 55.79 L 4.76 55.26 L 4.77 54.76 L 4.81 54.75 L 4.81 54.13 L 5.11 54.09 L 5.31 53.93 L 5.41 53.77 L 5.44 53.53 L 5.38 53.34 L 5.24 53.16 L 5.01 53.05 L 4.82 53.04 L 4.70 53.07 L 4.67 49.28 L 5.17 49.28 L 5.17 48.97 L 5.66 48.97 L 5.66 48.76 L 4.67 48.76 L 4.64 47.01 L 4.95 47.00 L 4.95 46.52 L 4.65 46.52 L 4.65 45.02 L 4.87 45.02 L 4.90 45.00 L 4.96 43.47 L 4.07 43.47 L 4.12 45.00 L 4.15 45.02 L 4.37 45.02 L 4.37 46.52 L 4.06 46.52 L 4.06 46.58 L 3.87 46.58 L 3.87 42.09 L 5.30 42.09 Z" stroke="rgba(255,255,255,0.92)" stroke-width="1.0" fill="none"/>
  <path d="M 11.53 38.62 L 3.91 38.62 L 3.91 42.06 L 2.85 42.06 L 2.74 41.92 L 2.58 41.82 L 2.36 41.66 L 2.23 41.44 L 2.20 41.24 L 2.20 40.98 L 2.71 41.06 L 3.03 40.95 L 3.03 39.61 L 2.69 39.49 L 1.70 39.75 L 1.70 40.03 L 1.24 40.03 L 1.21 40.04 L 1.19 40.07 L 1.18 40.10 L 1.18 40.11 L 1.07 40.11 L 1.07 39.74 L 0.45 39.74 L 0.23 39.53 L 0.00 39.53 L 0.00 45.33 L 0.23 45.33 L 0.45 45.12 L 1.07 45.12 L 1.07 43.18 L 0.99 43.18 L 0.99 43.00 L 1.11 42.91 L 1.18 42.83 L 1.18 44.76 L 1.24 44.86 L 2.13 44.86 L 2.16 44.85 L 2.18 44.83 L 2.20 44.81 L 2.20 44.77 L 2.23 44.77 L 2.24 44.80 L 2.26 44.83 L 2.28 44.85 L 2.29 44.87 L 2.31 44.87 L 2.77 44.96 L 2.91 44.98 L 3.15 45.01 L 3.23 45.01 L 3.29 44.84 L 3.35 44.56 L 3.36 44.40 L 3.34 44.15 L 3.29 43.95 L 3.25 43.83 L 3.23 43.79 L 2.92 43.81 L 2.77 43.84 L 2.61 43.86 L 2.51 43.88 L 2.33 43.92 L 2.27 43.95 L 2.24 43.99 L 2.23 44.03 L 2.20 44.03 L 2.20 43.64 L 2.21 43.53 L 2.26 43.36 L 2.36 43.21 L 2.48 43.11 L 2.60 43.05 L 2.73 42.95 L 2.85 42.80 L 3.91 42.80 L 3.91 46.25 L 11.53 46.25 Z" stroke="rgba(255,255,255,0.92)" stroke-width="1.0" fill="none"/>
</svg>
