<svg xmlns="http://www.w3.org/2000/svg" viewBox="0 0 45.98 100.00" data-cad-width="652.0" data-cad-height="1418.0">
  <path d="M 8.23 99.80 A 8.11 8.11 0 1 1 9.64 99.80" stroke="rgba(255,255,255,0.92)" stroke-width="1.0" fill="none"/>
  <path d="M 9.64 91.72 L 9.64 63.64" stroke="rgba(255,255,255,0.92)" stroke-width="1.0" fill="none"/>
  <path d="M 9.64 62.65 L 9.64 57.87" stroke="rgba(255,255,255,0.92)" stroke-width="1.0" fill="none"/>
  <path d="M 8.23 91.72 L 8.23 57.87" stroke="rgba(255,255,255,0.92)" stroke-width="1.0" fill="none"/>
  <path d="M 7.17 55.40 L 10.70 55.40" stroke="rgba(255,255,255,0.92)" stroke-width="1.0" fill="none"/>
  <path d="M 7.17 55.40 L 10.70 55.40 L 10.70 54.69 L 7.17 54.69 Z" stroke="rgba(255,255,255,0.92)" stroke-width="1.0" fill="none"/>
  <path d="M 8.23 93.33 A 1.76 1.76 0 1 1 9.64 93.33" stroke="rgba(255,255,255,0.92)" stroke-width="1.0" fill="none"/>
  <path d="M 8.23 91.72 A 0.71 0.71 0 0 1 9.64 91.72" stroke="rgba(255,255,255,0.92)" stroke-width="1.0" fill="none"/>
  <path d="M 6.47 58.22 L 8.23 58.22" stroke="rgba(255,255,255,0.92)" stroke-width="1.0" fill="none"/>
  <path d="M 9.64 58.22 L 13.87 58.22" stroke="rgba(255,255,255,0.92)" stroke-width="1.0" fill="none"/>
  <path d="M 6.47 60.69 L 8.23 60.69" stroke="rgba(255,255,255,0.92)" stroke-width="1.0" fill="none"/>
  <path d="M 9.64 60.69 L 11.05 60.69" stroke="rgba(255,255,255,0.92)" stroke-width="1.0" fill="none"/>
  <path d="M 13.74 60.69 L 13.87 60.69" stroke="rgba(255,255,255,0.92)" stroke-width="1.0" fill="none"/>
  <path d="M 6.47 60.69 L 6.47 58.22" stroke="rgba(255,255,255,0.92)" stroke-width="1.0" fill="none"/>
  <path d="M 13.87 58.22 L 13.87 60.69" stroke="rgba(255,255,255,0.92)" stroke-width="1.0" fill="none"/>
  <path d="M 15.85 62.93 L 15.85 63.64 L 8.79 63.64 L 8.79 62.93" stroke="rgba(255,255,255,0.92)" stroke-width="1.0" fill="none"/>
  <path d="M 15.85 81.48 A 9.92 9.92 0 0 1 8.79 81.48" stroke="rgba(255,255,255,0.92)" stroke-width="1.0" fill="none"/>
  <path d="M 14.13 65.73 A 2.40 2.40 0 0 1 10.65 65.75" stroke="rgba(255,255,255,0.92)" stroke-width="1.0" fill="none"/>
  <path d="M 15.49 141.67 A 39.25 39.25 0 0 1 9.16 141.68" stroke="rgba(255,255,255,0.92)" stroke-width="1.0" fill="none"/>
  <path d="M 11.41 81.38 A 39.48 39.48 0 0 1 10.65 78.30" stroke="rgba(255,255,255,0.92)" stroke-width="1.0" fill="none"/>
  <path d="M 14.13 78.30 A 39.48 39.48 0 0 1 13.37 81.38" stroke="rgba(255,255,255,0.92)" stroke-width="1.0" fill="none"/>
  <path d="M 13.37 63.69 A 2.38 2.38 0 0 1 11.41 63.69" stroke="rgba(255,255,255,0.92)" stroke-width="1.0" fill="none"/>
  <path d="M 13.37 60.98 A 1.28 1.28 0 0 1 11.41 60.98" stroke="rgba(255,255,255,0.92)" stroke-width="1.0" fill="none"/>
  <path d="M 2.01 54.69 L 6.24 54.69 L 6.24 55.54 L 2.01 55.54 Z" stroke="rgba(255,255,255,0.92)" stroke-width="1.0" fill="none"/>
  <path d="M 11.53 54.69 L 15.76 54.69 L 15.76 55.54 L 11.53 55.54 Z" stroke="rgba(255,255,255,0.92)" stroke-width="1.0" fill="none"/>
  <path d="M 3.06 55.54 L 3.06 56.46 L 4.47 57.87 L 13.29 57.87 L 14.70 56.46 L 14.70 55.54" stroke="rgba(255,255,255,0.92)" stroke-width="1.0" fill="none"/>
  <path d="M 8.09 55.40 L 9.78 55.40 L 9.78 57.87 L 8.09 57.87 Z" stroke="rgba(255,255,255,0.92)" stroke-width="1.0" fill="none"/>
  <path d="M 12.58 55.54 L 12.58 55.72" stroke="rgba(255,255,255,0.92)" stroke-width="1.0" fill="none"/>
  <path d="M 12.23 55.37 A 0.35 0.35 0 0 1 12.58 55.72" stroke="rgba(255,255,255,0.92)" stroke-width="1.0" fill="none"/>
  <path d="M 5.18 55.54 L 5.18 55.72" stroke="rgba(255,255,255,0.92)" stroke-width="1.0" fill="none"/>
  <path d="M 5.18 55.72 A 0.35 0.35 0 0 1 5.53 55.37" stroke="rgba(255,255,255,0.92)" stroke-width="1.0" fill="none"/>
  <path d="M 12.23 56.08 L 9.78 56.08" stroke="rgba(255,255,255,0.92)" stroke-width="1.0" fill="none"/>
  <path d="M 8.09 56.07 L 5.53 56.07" stroke="rgba(255,255,255,0.92)" stroke-width="1.0" fill="none"/>
  <circle cx="8.94" cy="59.45" r="0.71" stroke="rgba(255,255,255,0.92)" stroke-width="1.0" fill="none"/>
  <path d="M 7.54 57.87 L 7.54 58.22" stroke="rgba(255,255,255,0.92)" stroke-width="1.0" fill="none"/>
  <path d="M 10.35 57.87 L 10.35 58.22" stroke="rgba(255,255,255,0.92)" stroke-width="1.0" fill="none"/>
  <path d="M 7.89 55.78 A 12.68 12.68 0 0 1 8.23 54.45" stroke="rgba(255,255,255,0.92)" stroke-width="1.0" fill="none"/>
  <path d="M 9.64 54.45 A 12.68 12.68 0 0 1 9.98 55.78" stroke="rgba(255,255,255,0.92)" stroke-width="1.0" fill="none"/>
  <path d="M 6.34 87.94 A 2.12 2.12 0 1 1 6.34 86.26" stroke="rgba(255,255,255,0.92)" stroke-width="1.0" fill="none"/>
  <path d="M 6.19 87.94 A 1.97 1.97 0 1 1 6.19 86.26" stroke="rgba(255,255,255,0.92)" stroke-width="1.0" fill="none"/>
  <path d="M 11.98 86.26 A 2.12 2.12 0 1 1 11.98 87.94" stroke="rgba(255,255,255,0.92)" stroke-width="1.0" fill="none"/>
  <path d="M 12.13 86.26 A 1.97 1.97 0 1 1 12.13 87.94" stroke="rgba(255,255,255,0.92)" stroke-width="1.0" fill="none"/>
  <path d="M 5.05 87.94 A 1.06 1.06 0 1 1 5.05 86.26" stroke="rgba(255,255,255,0.92)" stroke-width="1.0" fill="none"/>
  <path d="M 4.99 87.94 A 1.02 1.02 0 1 1 4.99 86.26" stroke="rgba(255,255,255,0.92)" stroke-width="1.0" fill="none"/>
  <path d="M 4.40 85.73 L 4.40 85.73" stroke="rgba(255,255,255,0.92)" stroke-width="1.0" fill="none"/>
  <path d="M 3.72 84.44 A 0.96 0.96 0 0 1 4.35 84.71" stroke="rgba(255,255,255,0.92)" stroke-width="1.0" fill="none"/>
  <path d="M 4.45 86.20 A 0.07 0.07 0 0 1 4.35 86.20" stroke="rgba(255,255,255,0.92)" stroke-width="1.0" fill="none"/>
  <path d="M 4.45 84.71 A 0.96 0.96 0 0 1 4.70 84.54" stroke="rgba(255,255,255,0.92)" stroke-width="1.0" fill="none"/>
  <path d="M 4.35 89.50 A 0.96 0.96 0 0 1 3.72 89.76" stroke="rgba(255,255,255,0.92)" stroke-width="1.0" fill="none"/>
  <path d="M 4.35 88.01 A 0.07 0.07 0 0 1 4.45 88.01" stroke="rgba(255,255,255,0.92)" stroke-width="1.0" fill="none"/>
  <path d="M 4.70 89.67 A 0.96 0.96 0 0 1 4.45 89.50" stroke="rgba(255,255,255,0.92)" stroke-width="1.0" fill="none"/>
  <path d="M 3.39 85.74 A 0.96 0.96 0 0 1 3.65 86.37" stroke="rgba(255,255,255,0.92)" stroke-width="1.0" fill="none"/>
  <path d="M 3.39 87.15 A 0.07 0.07 0 0 1 3.39 87.06" stroke="rgba(255,255,255,0.92)" stroke-width="1.0" fill="none"/>
  <path d="M 3.72 86.50 A 0.07 0.07 0 0 1 3.65 86.43" stroke="rgba(255,255,255,0.92)" stroke-width="1.0" fill="none"/>
  <path d="M 3.65 87.84 A 0.96 0.96 0 0 1 3.39 88.47" stroke="rgba(255,255,255,0.92)" stroke-width="1.0" fill="none"/>
  <path d="M 3.65 87.78 A 0.07 0.07 0 0 1 3.72 87.71" stroke="rgba(255,255,255,0.92)" stroke-width="1.0" fill="none"/>
  <path d="M 4.40 87.94 A 0.84 0.84 0 0 1 4.40 86.26" stroke="rgba(255,255,255,0.92)" stroke-width="1.0" fill="none"/>
  <path d="M 13.28 86.26 A 1.06 1.06 0 1 1 13.28 87.94" stroke="rgba(255,255,255,0.92)" stroke-width="1.0" fill="none"/>
  <path d="M 13.34 86.26 A 1.02 1.02 0 1 1 13.34 87.94" stroke="rgba(255,255,255,0.92)" stroke-width="1.0" fill="none"/>
  <path d="M 13.63 84.54 A 0.96 0.96 0 0 1 13.87 84.71" stroke="rgba(255,255,255,0.92)" stroke-width="1.0" fill="none"/>
  <path d="M 13.97 86.20 A 0.07 0.07 0 0 1 13.87 86.20" stroke="rgba(255,255,255,0.92)" stroke-width="1.0" fill="none"/>
  <path d="M 13.97 84.71 A 0.96 0.96 0 0 1 14.60 84.44" stroke="rgba(255,255,255,0.92)" stroke-width="1.0" fill="none"/>
  <path d="M 14.67 86.43 A 0.07 0.07 0 0 1 14.60 86.50" stroke="rgba(255,255,255,0.92)" stroke-width="1.0" fill="none"/>
  <path d="M 13.87 89.50 A 0.96 0.96 0 0 1 13.63 89.67" stroke="rgba(255,255,255,0.92)" stroke-width="1.0" fill="none"/>
  <path d="M 13.87 88.01 A 0.07 0.07 0 0 1 13.97 88.01" stroke="rgba(255,255,255,0.92)" stroke-width="1.0" fill="none"/>
  <path d="M 14.60 89.76 A 0.96 0.96 0 0 1 13.97 89.50" stroke="rgba(255,255,255,0.92)" stroke-width="1.0" fill="none"/>
  <path d="M 14.60 87.71 A 0.07 0.07 0 0 1 14.67 87.78" stroke="rgba(255,255,255,0.92)" stroke-width="1.0" fill="none"/>
  <path d="M 14.67 86.37 A 0.96 0.96 0 0 1 14.93 85.74" stroke="rgba(255,255,255,0.92)" stroke-width="1.0" fill="none"/>
  <path d="M 14.93 88.47 A 0.96 0.96 0 0 1 14.67 87.84" stroke="rgba(255,255,255,0.92)" stroke-width="1.0" fill="none"/>
  <path d="M 14.93 87.06 A 0.07 0.07 0 0 1 14.93 87.15" stroke="rgba(255,255,255,0.92)" stroke-width="1.0" fill="none"/>
  <path d="M 13.92 86.26 A 0.84 0.84 0 0 1 13.92 87.94" stroke="rgba(255,255,255,0.92)" stroke-width="1.0" fill="none"/>
  <path d="M 4.40 87.94 L 8.60 87.94" stroke="rgba(255,255,255,0.92)" stroke-width="1.0" fill="none"/>
  <path d="M 9.73 87.94 L 13.92 87.94" stroke="rgba(255,255,255,0.92)" stroke-width="1.0" fill="none"/>
  <path d="M 4.40 86.26 L 13.92 86.26" stroke="rgba(255,255,255,0.92)" stroke-width="1.0" fill="none"/>
  <path d="M 8.28 83.75 A 2.17 2.17 0 0 1 10.02 83.75" stroke="rgba(255,255,255,0.92)" stroke-width="1.0" fill="none"/>
  <path d="M 8.28 88.58 A 0.49 0.49 0 0 1 7.62 88.36" stroke="rgba(255,255,255,0.92)" stroke-width="1.0" fill="none"/>
  <path d="M 10.70 88.32 A 0.48 0.48 0 0 1 10.02 88.54" stroke="rgba(255,255,255,0.92)" stroke-width="1.0" fill="none"/>
  <path d="M 7.86 86.95 A 1.00 1.00 0 0 1 8.28 86.09" stroke="rgba(255,255,255,0.92)" stroke-width="1.0" fill="none"/>
  <path d="M 10.02 86.09 A 1.00 1.00 0 0 1 10.44 86.95" stroke="rgba(255,255,255,0.92)" stroke-width="1.0" fill="none"/>
  <path d="M 8.60 87.83 L 8.60 88.19" stroke="rgba(255,255,255,0.92)" stroke-width="1.0" fill="none"/>
  <path d="M 8.60 88.19 A 0.07 0.07 0 0 1 8.67 88.12" stroke="rgba(255,255,255,0.92)" stroke-width="1.0" fill="none"/>
  <path d="M 9.73 87.83 L 9.73 88.19" stroke="rgba(255,255,255,0.92)" stroke-width="1.0" fill="none"/>
  <path d="M 9.66 88.12 A 0.07 0.07 0 0 1 9.73 88.19" stroke="rgba(255,255,255,0.92)" stroke-width="1.0" fill="none"/>
  <path d="M 8.67 88.26 L 9.66 88.26" stroke="rgba(255,255,255,0.92)" stroke-width="1.0" fill="none"/>
  <path d="M 7.86 87.78 A 1.74 1.74 0 0 1 7.56 88.38" stroke="rgba(255,255,255,0.92)" stroke-width="1.0" fill="none"/>
  <path d="M 10.75 88.41 A 1.74 1.74 0 0 1 10.44 87.82" stroke="rgba(255,255,255,0.92)" stroke-width="1.0" fill="none"/>
  <path d="M 8.95 84.69 L 9.37 84.69 L 9.51 84.83 L 9.51 86.00 L 8.81 86.00 L 8.81 84.83 Z" stroke="rgba(255,255,255,0.92)" stroke-width="1.0" fill="none"/>
  <path d="M 8.98 86.26 L 9.38 86.26 L 9.38 86.00 L 8.98 86.00 Z" stroke="rgba(255,255,255,0.92)" stroke-width="1.0" fill="none"/>
  <path d="M 8.81 84.94 L 9.51 84.94" stroke="rgba(255,255,255,0.92)" stroke-width="1.0" fill="none"/>
  <path d="M 8.81 85.01 L 9.51 85.01" stroke="rgba(255,255,255,0.92)" stroke-width="1.0" fill="none"/>
  <path d="M 8.81 85.08 L 9.51 85.08" stroke="rgba(255,255,255,0.92)" stroke-width="1.0" fill="none"/>
  <path d="M 11.88 90.95 A 2.77 2.77 0 0 1 11.01 89.89" stroke="rgba(255,255,255,0.92)" stroke-width="1.0" fill="none"/>
  <path d="M 7.30 89.69 A 2.77 2.77 0 0 1 6.47 90.77" stroke="rgba(255,255,255,0.92)" stroke-width="1.0" fill="none"/>
  <path d="M 8.50 83.86 A 1.90 1.90 0 0 1 9.85 83.86" stroke="rgba(255,255,255,0.92)" stroke-width="1.0" fill="none"/>
  <path d="M 10.17 96.01 A 4.74 4.74 0 0 1 8.11 96.04" stroke="rgba(255,255,255,0.92)" stroke-width="1.0" fill="none"/>
  <circle cx="9.16" cy="71.58" r="1.41" stroke="rgba(255,255,255,0.92)" stroke-width="1.0" fill="none"/>
  <path d="M 8.67 70.26 L 8.67 68.67 L 9.66 68.67 L 9.66 70.26" stroke="rgba(255,255,255,0.92)" stroke-width="1.0" fill="none"/>
  <path d="M 8.32 70.45 L 8.32 68.67" stroke="rgba(255,255,255,0.92)" stroke-width="1.0" fill="none"/>
  <path d="M 10.01 70.45 L 10.01 68.67" stroke="rgba(255,255,255,0.92)" stroke-width="1.0" fill="none"/>
  <path d="M 8.67 68.67 L 8.88 68.67" stroke="rgba(255,255,255,0.92)" stroke-width="1.0" fill="none"/>
  <path d="M 9.44 68.67 L 9.66 68.67" stroke="rgba(255,255,255,0.92)" stroke-width="1.0" fill="none"/>
  <path d="M 8.05 74.40 L 8.05 72.45" stroke="rgba(255,255,255,0.92)" stroke-width="1.0" fill="none"/>
  <path d="M 8.90 72.97 L 8.90 74.40" stroke="rgba(255,255,255,0.92)" stroke-width="1.0" fill="none"/>
  <path d="M 10.27 74.40 L 10.27 72.45" stroke="rgba(255,255,255,0.92)" stroke-width="1.0" fill="none"/>
  <path d="M 9.42 72.97 L 9.42 74.40" stroke="rgba(255,255,255,0.92)" stroke-width="1.0" fill="none"/>
  <path d="M 8.05 74.05 L 8.90 74.05" stroke="rgba(255,255,255,0.92)" stroke-width="1.0" fill="none"/>
  <path d="M 9.42 74.05 L 10.27 74.05" stroke="rgba(255,255,255,0.92)" stroke-width="1.0" fill="none"/>
  <path d="M 8.05 74.40 L 8.90 74.40" stroke="rgba(255,255,255,0.92)" stroke-width="1.0" fill="none"/>
  <path d="M 9.42 74.40 L 10.27 74.40" stroke="rgba(255,255,255,0.92)" stroke-width="1.0" fill="none"/>
  <path d="M 1.05 8.11 L 17.27 8.11 L 17.27 8.46 L 1.05 8.46 Z" stroke="rgba(255,255,255,0.92)" stroke-width="1.0" fill="none"/>
  <path d="M 8.28 8.11 L 10.04 8.11 L 10.04 7.26 L 8.28 7.26 Z" stroke="rgba(255,255,255,0.92)" stroke-width="1.0" fill="none"/>
  <path d="M 9.87 7.26 L 9.87 1.76" stroke="rgba(255,255,255,0.92)" stroke-width="1.0" fill="none"/>
  <path d="M 8.46 7.26 L 8.46 1.76" stroke="rgba(255,255,255,0.92)" stroke-width="1.0" fill="none"/>
  <path d="M 9.87 1.76 A 0.71 0.71 0 0 1 8.46 1.76" stroke="rgba(255,255,255,0.92)" stroke-width="1.0" fill="none"/>
  <path d="M 8.46 8.46 L 8.46 68.67" stroke="rgba(255,255,255,0.92)" stroke-width="1.0" fill="none"/>
  <path d="M 16.20 20.10 A 3.53 3.53 0 0 1 9.15 20.10" stroke="rgba(255,255,255,0.92)" stroke-width="1.0" fill="none"/>
  <path d="M 16.11 23.00 A 3.93 3.93 0 0 1 9.22 23.08" stroke="rgba(255,255,255,0.92)" stroke-width="1.0" fill="none"/>
  <path d="M 9.15 19.67 A 3.53 3.53 0 0 1 16.20 19.67" stroke="rgba(255,255,255,0.92)" stroke-width="1.0" fill="none"/>
  <path d="M 8.32 68.67 L 10.01 68.67" stroke="rgba(255,255,255,0.92)" stroke-width="1.0" fill="none"/>
  <path d="M 9.87 8.46 L 9.87 17.97" stroke="rgba(255,255,255,0.92)" stroke-width="1.0" fill="none"/>
  <path d="M 9.87 22.03 L 9.87 68.67" stroke="rgba(255,255,255,0.92)" stroke-width="1.0" fill="none"/>
  <path d="M 6.69 31.16 L 8.46 31.16" stroke="rgba(255,255,255,0.92)" stroke-width="1.0" fill="none"/>
  <path d="M 9.87 31.16 L 14.10 31.16" stroke="rgba(255,255,255,0.92)" stroke-width="1.0" fill="none"/>
  <path d="M 6.69 33.62 L 8.46 33.62" stroke="rgba(255,255,255,0.92)" stroke-width="1.0" fill="none"/>
  <path d="M 9.87 33.62 L 14.10 33.62" stroke="rgba(255,255,255,0.92)" stroke-width="1.0" fill="none"/>
  <path d="M 6.69 33.62 L 6.69 31.16" stroke="rgba(255,255,255,0.92)" stroke-width="1.0" fill="none"/>
  <path d="M 11.86 33.62 L 11.86 33.99" stroke="rgba(255,255,255,0.92)" stroke-width="1.0" fill="none"/>
  <path d="M 14.10 31.16 L 14.10 33.62" stroke="rgba(255,255,255,0.92)" stroke-width="1.0" fill="none"/>
  <circle cx="12.67" cy="20.10" r="0.69" stroke="rgba(255,255,255,0.92)" stroke-width="1.0" fill="none"/>
  <path d="M 11.86 26.88 L 11.86 31.16" stroke="rgba(255,255,255,0.92)" stroke-width="1.0" fill="none"/>
  <path d="M 13.49 33.99 L 11.86 33.99" stroke="rgba(255,255,255,0.92)" stroke-width="1.0" fill="none"/>
  <path d="M 11.86 27.69 A 10.86 10.86 0 0 1 10.97 31.59" stroke="rgba(255,255,255,0.92)" stroke-width="1.0" fill="none"/>
  <path d="M 13.49 26.88 L 13.49 31.16" stroke="rgba(255,255,255,0.92)" stroke-width="1.0" fill="none"/>
  <path d="M 14.37 31.59 A 10.86 10.86 0 0 1 13.49 27.69" stroke="rgba(255,255,255,0.92)" stroke-width="1.0" fill="none"/>
  <path d="M 13.49 33.62 L 13.49 33.99" stroke="rgba(255,255,255,0.92)" stroke-width="1.0" fill="none"/>
  <path d="M 7.45 64.56 A 20.75 20.75 0 0 1 9.42 72.47" stroke="rgba(255,255,255,0.92)" stroke-width="1.0" fill="none"/>
  <path d="M 8.09 61.40 A 25.70 25.70 0 0 1 10.27 69.61" stroke="rgba(255,255,255,0.92)" stroke-width="1.0" fill="none"/>
  <path d="M 7.45 89.58 A 9.21 9.21 0 0 1 6.71 85.63" stroke="rgba(255,255,255,0.92)" stroke-width="1.0" fill="none"/>
  <path d="M 8.09 89.08 A 8.17 8.17 0 0 1 7.43 85.43" stroke="rgba(255,255,255,0.92)" stroke-width="1.0" fill="none"/>
  <path d="M 6.73 92.43 A 8.94 8.94 0 0 1 7.55 85.88" stroke="rgba(255,255,255,0.92)" stroke-width="1.0" fill="none"/>
  <path d="M 7.32 91.82 A 9.69 9.69 0 0 1 8.04 85.78" stroke="rgba(255,255,255,0.92)" stroke-width="1.0" fill="none"/>
  <path d="M 7.55 89.32 A 3.56 3.56 0 0 1 12.38 89.26" stroke="rgba(255,255,255,0.92)" stroke-width="1.0" fill="none"/>
  <path d="M 8.04 89.44 A 3.05 3.05 0 0 1 11.73 89.14" stroke="rgba(255,255,255,0.92)" stroke-width="1.0" fill="none"/>
  <path d="M 12.38 92.04 A 3.21 3.21 0 0 1 10.66 96.26" stroke="rgba(255,255,255,0.92)" stroke-width="1.0" fill="none"/>
  <path d="M 11.73 92.31 A 2.51 2.51 0 0 1 10.39 95.61" stroke="rgba(255,255,255,0.92)" stroke-width="1.0" fill="none"/>
  <path d="M 9.66 89.95 A 1.23 1.23 0 0 1 10.66 87.87" stroke="rgba(255,255,255,0.92)" stroke-width="1.0" fill="none"/>
  <path d="M 8.81 89.95 A 1.94 1.94 0 0 1 10.72 87.17" stroke="rgba(255,255,255,0.92)" stroke-width="1.0" fill="none"/>
  <path d="M 12.67 33.99 L 12.67 33.62" stroke="rgba(255,255,255,0.92)" stroke-width="1.0" fill="none"/>
  <path d="M 12.32 33.99 L 12.32 33.62" stroke="rgba(255,255,255,0.92)" stroke-width="1.0" fill="none"/>
  <path d="M 13.03 33.99 L 13.03 33.62" stroke="rgba(255,255,255,0.92)" stroke-width="1.0" fill="none"/>
  <path d="M 13.03 33.99 L 13.03 78.62 L 16.66 84.65 L 17.84 92.30 L 10.46 99.80 L 0.99 85.98 L 8.17 74.40" stroke="rgba(255,255,255,0.92)" stroke-width="1.0" fill="none"/>
  <path d="M 12.32 33.99 L 12.32 78.69 L 16.15 85.14 L 17.15 92.13 L 10.48 99.09 L 1.66 86.29 L 8.90 74.40" stroke="rgba(255,255,255,0.92)" stroke-width="1.0" fill="none"/>
  <path d="M 9.87 0.15 A 1.76 1.76 0 1 1 8.46 0.15" stroke="rgba(255,255,255,0.92)" stroke-width="1.0" fill="none"/>
  <path d="M 9.87 1.18 A 0.91 0.91 0 1 1 8.46 1.18" stroke="rgba(255,255,255,0.92)" stroke-width="1.0" fill="none"/>
  <path d="M 1.55 90.83 L 2.26 90.83 L 2.40 90.97 L 2.40 94.92 L 2.26 95.06 L 1.55 95.06 Z" stroke="rgba(255,255,255,0.92)" stroke-width="1.0" fill="none"/>
  <path d="M 2.40 92.94 L 2.96 92.94" stroke="rgba(255,255,255,0.92)" stroke-width="1.0" fill="none"/>
  <path d="M 2.40 94.00 L 2.96 94.00" stroke="rgba(255,255,255,0.92)" stroke-width="1.0" fill="none"/>
  <path d="M 2.40 91.88 L 2.96 91.88" stroke="rgba(255,255,255,0.92)" stroke-width="1.0" fill="none"/>
  <path d="M 2.96 94.00 L 2.96 91.88" stroke="rgba(255,255,255,0.92)" stroke-width="1.0" fill="none"/>
  <path d="M 2.49 92.41 L 2.87 92.41" stroke="rgba(255,255,255,0.92)" stroke-width="1.0" fill="none"/>
  <path d="M 2.49 93.47 L 2.87 93.47" stroke="rgba(255,255,255,0.92)" stroke-width="1.0" fill="none"/>
  <path d="M 2.96 93.79 L 4.52 93.79" stroke="rgba(255,255,255,0.92)" stroke-width="1.0" fill="none"/>
  <path d="M 2.96 92.10 L 4.52 92.10" stroke="rgba(255,255,255,0.92)" stroke-width="1.0" fill="none"/>
  <path d="M 4.73 93.58 L 4.73 92.31" stroke="rgba(255,255,255,0.92)" stroke-width="1.0" fill="none"/>
  <path d="M 4.52 93.37 A 0.21 0.21 0 0 1 4.73 93.58" stroke="rgba(255,255,255,0.92)" stroke-width="1.0" fill="none"/>
  <path d="M 4.73 92.31 A 0.21 0.21 0 0 1 4.52 92.52" stroke="rgba(255,255,255,0.92)" stroke-width="1.0" fill="none"/>
  <path d="M 2.96 93.79 L 4.52 93.79" stroke="rgba(255,255,255,0.92)" stroke-width="1.0" fill="none"/>
  <path d="M 12.10 94.16 A 1.45 1.45 0 0 1 11.51 95.04" stroke="rgba(255,255,255,0.92)" stroke-width="1.0" fill="none"/>
  <path d="M 11.51 139.76 A 24.08 24.08 0 0 1 7.21 140.28" stroke="rgba(255,255,255,0.92)" stroke-width="1.0" fill="none"/>
  <path d="M 7.21 92.14 L 4.52 92.10" stroke="rgba(255,255,255,0.92)" stroke-width="1.0" fill="none"/>
  <path d="M 11.90 1449.62 A 677.93 677.93 0 0 1 4.52 1449.63" stroke="rgba(255,255,255,0.92)" stroke-width="1.0" fill="none"/>
  <path d="M 11.90 93.38 A 0.21 0.21 0 0 1 12.10 93.63" stroke="rgba(255,255,255,0.92)" stroke-width="1.0" fill="none"/>
  <path d="M 7.39 90.58 L 7.81 90.58 L 7.95 90.72 L 7.95 91.89 L 7.25 91.89 L 7.25 90.72 Z" stroke="rgba(255,255,255,0.92)" stroke-width="1.0" fill="none"/>
  <path d="M 7.42 92.15 L 7.82 92.15 L 7.82 91.89 L 7.42 91.89 Z" stroke="rgba(255,255,255,0.92)" stroke-width="1.0" fill="none"/>
  <path d="M 7.25 90.83 L 7.95 90.83" stroke="rgba(255,255,255,0.92)" stroke-width="1.0" fill="none"/>
  <path d="M 7.25 90.90 L 7.95 90.90" stroke="rgba(255,255,255,0.92)" stroke-width="1.0" fill="none"/>
  <path d="M 7.25 90.97 L 7.95 90.97" stroke="rgba(255,255,255,0.92)" stroke-width="1.0" fill="none"/>
  <path d="M 10.75 93.81 L 10.75 94.16" stroke="rgba(255,255,255,0.92)" stroke-width="1.0" fill="none"/>
  <path d="M 10.75 94.16 A 0.07 0.07 0 0 1 10.82 94.09" stroke="rgba(255,255,255,0.92)" stroke-width="1.0" fill="none"/>
  <path d="M 11.88 93.80 L 11.88 94.16" stroke="rgba(255,255,255,0.92)" stroke-width="1.0" fill="none"/>
  <path d="M 11.81 94.09 A 0.07 0.07 0 0 1 11.88 94.16" stroke="rgba(255,255,255,0.92)" stroke-width="1.0" fill="none"/>
  <path d="M 10.82 94.23 L 11.81 94.23" stroke="rgba(255,255,255,0.92)" stroke-width="1.0" fill="none"/>
  <path d="M 4.94 76.30 L 4.94 74.52" stroke="rgba(255,255,255,0.92)" stroke-width="1.0" fill="none"/>
  <path d="M 6.63 76.30 L 6.63 74.52" stroke="rgba(255,255,255,0.92)" stroke-width="1.0" fill="none"/>
  <path d="M 5.29 74.52 L 5.50 74.52" stroke="rgba(255,255,255,0.92)" stroke-width="1.0" fill="none"/>
  <path d="M 6.07 74.52 L 6.28 74.52" stroke="rgba(255,255,255,0.92)" stroke-width="1.0" fill="none"/>
  <path d="M 4.13 80.27 L 4.13 78.84" stroke="rgba(255,255,255,0.92)" stroke-width="1.0" fill="none"/>
  <path d="M 4.97 78.84 L 4.97 80.27" stroke="rgba(255,255,255,0.92)" stroke-width="1.0" fill="none"/>
  <path d="M 6.34 80.27 L 6.34 78.84" stroke="rgba(255,255,255,0.92)" stroke-width="1.0" fill="none"/>
  <path d="M 5.50 78.84 L 5.50 80.27" stroke="rgba(255,255,255,0.92)" stroke-width="1.0" fill="none"/>
  <path d="M 4.13 79.90 L 4.97 79.90" stroke="rgba(255,255,255,0.92)" stroke-width="1.0" fill="none"/>
  <path d="M 5.50 79.90 L 6.34 79.90" stroke="rgba(255,255,255,0.92)" stroke-width="1.0" fill="none"/>
  <path d="M 4.13 80.25 L 4.97 80.25" stroke="rgba(255,255,255,0.92)" stroke-width="1.0" fill="none"/>
  <path d="M 5.50 80.25 L 6.34 80.25" stroke="rgba(255,255,255,0.92)" stroke-width="1.0" fill="none"/>
  <path d="M 29.76 13.61 L 45.98 13.61 L 45.98 13.96 L 29.76 13.96 Z" stroke="rgba(255,255,255,0.92)" stroke-width="1.0" fill="none"/>
  <path d="M 36.99 13.61 L 38.75 13.61 L 38.75 12.76 L 36.99 12.76 Z" stroke="rgba(255,255,255,0.92)" stroke-width="1.0" fill="none"/>
  <path d="M 5.08 37.22 L 5.08 9.73" stroke="rgba(255,255,255,0.92)" stroke-width="1.0" fill="none"/>
  <path d="M 5.08 39.25 L 5.08 74.52" stroke="rgba(255,255,255,0.92)" stroke-width="1.0" fill="none"/>
  <path d="M 4.94 74.52 L 6.63 74.52" stroke="rgba(255,255,255,0.92)" stroke-width="1.0" fill="none"/>
  <path d="M 6.49 9.73 L 6.49 37.23" stroke="rgba(255,255,255,0.92)" stroke-width="1.0" fill="none"/>
  <path d="M 6.49 39.25 L 6.49 74.52" stroke="rgba(255,255,255,0.92)" stroke-width="1.0" fill="none"/>
  <circle cx="5.78" cy="38.24" r="1.23" stroke="rgba(255,255,255,0.92)" stroke-width="1.0" fill="none"/>
  <path d="M 1.55 6.91 L 0.85 6.91 L 0.85 10.43 L 1.55 10.43 Z" stroke="rgba(255,255,255,0.92)" stroke-width="1.0" fill="none"/>
  <path d="M 6.49 9.73 L 8.00 9.73 L 8.00 7.61 L 1.55 7.61 L 1.55 9.73 L 5.08 9.73" stroke="rgba(255,255,255,0.92)" stroke-width="1.0" fill="none"/>
  <path d="M 6.49 13.16 A 1.86 1.86 0 0 1 5.08 13.16" stroke="rgba(255,255,255,0.92)" stroke-width="1.0" fill="none"/>
  <path d="M 8.00 9.37 L 35.76 9.37" stroke="rgba(255,255,255,0.92)" stroke-width="1.0" fill="none"/>
  <path d="M 8.00 7.96 L 36.46 7.96" stroke="rgba(255,255,255,0.92)" stroke-width="1.0" fill="none"/>
  <path d="M 38.58 10.08 L 38.58 12.76" stroke="rgba(255,255,255,0.92)" stroke-width="1.0" fill="none"/>
  <path d="M 38.58 10.08 A 2.12 2.12 0 0 1 36.46 12.19" stroke="rgba(255,255,255,0.92)" stroke-width="1.0" fill="none"/>
  <path d="M 37.17 10.78 L 37.17 12.76" stroke="rgba(255,255,255,0.92)" stroke-width="1.0" fill="none"/>
  <path d="M 37.17 10.78 A 1.41 1.41 0 0 1 35.76 12.19" stroke="rgba(255,255,255,0.92)" stroke-width="1.0" fill="none"/>
  <path d="M 8.47 76.02 L 6.63 76.02" stroke="rgba(255,255,255,0.92)" stroke-width="1.0" fill="none"/>
  <path d="M 4.94 76.02 L 1.55 76.02" stroke="rgba(255,255,255,0.92)" stroke-width="1.0" fill="none"/>
  <path d="M 8.47 78.84 L 6.34 78.84" stroke="rgba(255,255,255,0.92)" stroke-width="1.0" fill="none"/>
  <path d="M 5.50 78.84 L 4.97 78.84" stroke="rgba(255,255,255,0.92)" stroke-width="1.0" fill="none"/>
  <path d="M 4.13 78.84 L 1.55 78.84" stroke="rgba(255,255,255,0.92)" stroke-width="1.0" fill="none"/>
  <path d="M 4.94 71.32 A 2.63 2.63 0 0 1 6.63 71.32" stroke="rgba(255,255,255,0.92)" stroke-width="1.0" fill="none"/>
  <path d="M 6.34 81.21 A 1.26 1.26 0 0 1 5.50 81.21" stroke="rgba(255,255,255,0.92)" stroke-width="1.0" fill="none"/>
  <path d="M 4.97 80.66 A 1.00 1.00 0 0 1 4.13 80.66" stroke="rgba(255,255,255,0.92)" stroke-width="1.0" fill="none"/>
  <path d="M 7.34 76.02 L 7.34 78.84" stroke="rgba(255,255,255,0.92)" stroke-width="1.0" fill="none"/>
  <path d="M 7.41 76.02 L 7.41 78.84" stroke="rgba(255,255,255,0.92)" stroke-width="1.0" fill="none"/>
  <path d="M 8.47 76.02 L 8.47 78.84" stroke="rgba(255,255,255,0.92)" stroke-width="1.0" fill="none"/>
  <path d="M 8.25 76.02 L 7.85 76.02 L 7.85 74.91 L 8.25 74.91 Z" stroke="rgba(255,255,255,0.92)" stroke-width="1.0" fill="none"/>
  <path d="M 10.80 23.08 L 11.65 23.08" stroke="rgba(255,255,255,0.92)" stroke-width="1.0" fill="none"/>
  <path d="M 9.02 29.41 L 8.14 29.41" stroke="rgba(255,255,255,0.92)" stroke-width="1.0" fill="none"/>
  <path d="M 10.50 35.75 A 8.55 8.55 0 0 1 7.79 29.88" stroke="rgba(255,255,255,0.92)" stroke-width="1.0" fill="none"/>
  <path d="M 7.79 28.99 A 0.35 0.35 0 0 1 8.14 28.70" stroke="rgba(255,255,255,0.92)" stroke-width="1.0" fill="none"/>
  <path d="M 10.80 23.79 A 0.35 0.35 0 0 1 10.50 23.63" stroke="rgba(255,255,255,0.92)" stroke-width="1.0" fill="none"/>
  <path d="M 11.76 37.24 A 10.37 10.37 0 0 1 9.07 31.14" stroke="rgba(255,255,255,0.92)" stroke-width="1.0" fill="none"/>
  <path d="M 9.35 7.34 A 19.38 19.38 0 0 1 12.01 13.06" stroke="rgba(255,255,255,0.92)" stroke-width="1.0" fill="none"/>
  <path d="M 9.02 28.70 A 0.35 0.35 0 0 1 9.35 28.93" stroke="rgba(255,255,255,0.92)" stroke-width="1.0" fill="none"/>
  <path d="M 12.01 23.42 A 0.35 0.35 0 0 1 11.65 23.79" stroke="rgba(255,255,255,0.92)" stroke-width="1.0" fill="none"/>
  <path d="M 9.02 50.23 A 21.98 21.98 0 0 1 6.54 42.37" stroke="rgba(255,255,255,0.92)" stroke-width="1.0" fill="none"/>
  <path d="M 7.91 45.16 A 15.48 15.48 0 0 1 6.49 42.02" stroke="rgba(255,255,255,0.92)" stroke-width="1.0" fill="none"/>
  <path d="M 1.55 76.02 L 1.55 78.84" stroke="rgba(255,255,255,0.92)" stroke-width="1.0" fill="none"/>
  <path d="M 4.97 93.52 A 19.37 19.37 0 0 1 4.01 89.71" stroke="rgba(255,255,255,0.92)" stroke-width="1.0" fill="none"/>
  <path d="M 4.23 93.54 A 20.08 20.08 0 0 1 3.32 89.87" stroke="rgba(255,255,255,0.92)" stroke-width="1.0" fill="none"/>
  <path d="M 3.32 82.58 A 0.85 0.85 0 0 1 4.01 82.43" stroke="rgba(255,255,255,0.92)" stroke-width="1.0" fill="none"/>
  <path d="M 6.95 93.78 L 8.21 93.78 L 8.21 94.26 L 6.95 94.26 Z" stroke="rgba(255,255,255,0.92)" stroke-width="1.0" fill="none"/>
  <path d="M 7.70 93.81 A 0.30 0.30 0 0 1 7.69 94.26" stroke="rgba(255,255,255,0.92)" stroke-width="1.0" fill="none"/>
  <path d="M 7.50 94.26 A 0.30 0.30 0 0 1 7.49 93.81" stroke="rgba(255,255,255,0.92)" stroke-width="1.0" fill="none"/>
  <path d="M 7.93 94.24 A 0.30 0.30 0 0 1 7.93 93.79" stroke="rgba(255,255,255,0.92)" stroke-width="1.0" fill="none"/>
  <path d="M 8.10 93.81 A 0.30 0.30 0 0 1 8.08 94.26" stroke="rgba(255,255,255,0.92)" stroke-width="1.0" fill="none"/>
  <path d="M 7.07 94.25 A 0.30 0.30 0 0 1 7.07 93.79" stroke="rgba(255,255,255,0.92)" stroke-width="1.0" fill="none"/>
  <path d="M 7.28 93.80 A 0.30 0.30 0 0 1 7.26 94.26" stroke="rgba(255,255,255,0.92)" stroke-width="1.0" fill="none"/>
  <path d="M 8.13 94.28 L 8.67 97.02 L 7.93 99.15 L 5.03 99.56 L 3.43 96.52 L 4.37 94.97 L 5.29 93.73" stroke="rgba(255,255,255,0.92)" stroke-width="1.0" fill="none"/>
  <path d="M 7.44 94.41 L 7.97 97.16 L 7.47 98.61 L 5.32 98.92 L 4.12 96.68 L 5.33 94.88 L 6.04 93.81" stroke="rgba(255,255,255,0.92)" stroke-width="1.0" fill="none"/>
  <path d="M 6.04 92.12 L 6.51 89.99 L 6.26 80.18" stroke="rgba(255,255,255,0.92)" stroke-width="1.0" fill="none"/>
  <path d="M 5.33 92.14 L 5.88 89.68 L 5.65 80.53" stroke="rgba(255,255,255,0.92)" stroke-width="1.0" fill="none"/>
</svg>
