<svg xmlns="http://www.w3.org/2000/svg" viewBox="0 0 100.00 96.04" data-cad-width="380.2" data-cad-height="365.2">
  <path d="M 25.84 27.98 L 33.24 27.92" stroke="rgba(255,255,255,0.92)" stroke-width="1.0" fill="none"/>
  <path d="M 33.24 27.92 L 33.24 27.56" stroke="rgba(255,255,255,0.92)" stroke-width="1.0" fill="none"/>
  <path d="M 33.24 27.56 L 34.47 27.56" stroke="rgba(255,255,255,0.92)" stroke-width="1.0" fill="none"/>
  <path d="M 34.47 27.56 L 34.47 26.94" stroke="rgba(255,255,255,0.92)" stroke-width="1.0" fill="none"/>
  <path d="M 34.47 26.94 L 35.70 26.94" stroke="rgba(255,255,255,0.92)" stroke-width="1.0" fill="none"/>
  <path d="M 35.70 26.94 L 35.70 27.56" stroke="rgba(255,255,255,0.92)" stroke-width="1.0" fill="none"/>
  <path d="M 35.70 27.56 L 39.40 27.56" stroke="rgba(255,255,255,0.92)" stroke-width="1.0" fill="none"/>
  <path d="M 39.40 27.56 L 39.40 26.94" stroke="rgba(255,255,255,0.92)" stroke-width="1.0" fill="none"/>
  <path d="M 39.40 26.94 L 91.19 26.94" stroke="rgba(255,255,255,0.92)" stroke-width="1.0" fill="none"/>
  <path d="M 91.19 26.94 L 91.20 27.03" stroke="rgba(255,255,255,0.92)" stroke-width="1.0" fill="none"/>
  <path d="M 91.20 27.03 L 94.89 26.97" stroke="rgba(255,255,255,0.92)" stroke-width="1.0" fill="none"/>
  <path d="M 94.89 26.97 L 94.89 26.94" stroke="rgba(255,255,255,0.92)" stroke-width="1.0" fill="none"/>
  <path d="M 94.89 26.94 L 96.13 26.94" stroke="rgba(255,255,255,0.92)" stroke-width="1.0" fill="none"/>
  <path d="M 96.13 26.94 L 96.13 26.95" stroke="rgba(255,255,255,0.92)" stroke-width="1.0" fill="none"/>
  <path d="M 96.13 26.95 L 96.62 26.94" stroke="rgba(255,255,255,0.92)" stroke-width="1.0" fill="none"/>
  <path d="M 96.62 26.94 L 96.90 26.94" stroke="rgba(255,255,255,0.92)" stroke-width="1.0" fill="none"/>
  <path d="M 96.90 26.94 L 97.35 26.97" stroke="rgba(255,255,255,0.92)" stroke-width="1.0" fill="none"/>
  <path d="M 97.35 26.97 L 97.84 27.02" stroke="rgba(255,255,255,0.92)" stroke-width="1.0" fill="none"/>
  <path d="M 97.84 27.02 L 98.32 27.11" stroke="rgba(255,255,255,0.92)" stroke-width="1.0" fill="none"/>
  <path d="M 98.32 27.11 L 98.76 27.24" stroke="rgba(255,255,255,0.92)" stroke-width="1.0" fill="none"/>
  <path d="M 98.76 27.24 L 99.18 27.42" stroke="rgba(255,255,255,0.92)" stroke-width="1.0" fill="none"/>
  <path d="M 99.18 27.42 L 99.50 27.62" stroke="rgba(255,255,255,0.92)" stroke-width="1.0" fill="none"/>
  <path d="M 98.25 29.25 L 97.70 29.35" stroke="rgba(255,255,255,0.92)" stroke-width="1.0" fill="none"/>
  <path d="M 97.70 29.35 L 97.23 29.39" stroke="rgba(255,255,255,0.92)" stroke-width="1.0" fill="none"/>
  <path d="M 97.23 29.39 L 96.74 29.41" stroke="rgba(255,255,255,0.92)" stroke-width="1.0" fill="none"/>
  <path d="M 96.74 29.41 L 16.85 30.64" stroke="rgba(255,255,255,0.92)" stroke-width="1.0" fill="none"/>
  <path d="M 16.85 30.64 L 16.38 30.64" stroke="rgba(255,255,255,0.92)" stroke-width="1.0" fill="none"/>
  <path d="M 16.38 30.64 L 16.16 30.63" stroke="rgba(255,255,255,0.92)" stroke-width="1.0" fill="none"/>
  <path d="M 16.16 30.63 L 15.76 30.60" stroke="rgba(255,255,255,0.92)" stroke-width="1.0" fill="none"/>
  <path d="M 15.76 30.60 L 15.36 30.54" stroke="rgba(255,255,255,0.92)" stroke-width="1.0" fill="none"/>
  <path d="M 15.36 30.54 L 14.96 30.45" stroke="rgba(255,255,255,0.92)" stroke-width="1.0" fill="none"/>
  <path d="M 14.96 30.45 L 14.59 30.35" stroke="rgba(255,255,255,0.92)" stroke-width="1.0" fill="none"/>
  <path d="M 14.59 30.35 L 14.31 30.24" stroke="rgba(255,255,255,0.92)" stroke-width="1.0" fill="none"/>
  <path d="M 14.31 30.24 L 14.01 30.09" stroke="rgba(255,255,255,0.92)" stroke-width="1.0" fill="none"/>
  <path d="M 14.01 30.09 L 13.78 29.91" stroke="rgba(255,255,255,0.92)" stroke-width="1.0" fill="none"/>
  <path d="M 13.78 29.91 L 13.65 29.78" stroke="rgba(255,255,255,0.92)" stroke-width="1.0" fill="none"/>
  <path d="M 13.65 29.78 L 13.57 29.65" stroke="rgba(255,255,255,0.92)" stroke-width="1.0" fill="none"/>
  <path d="M 13.57 29.65 L 13.51 29.47" stroke="rgba(255,255,255,0.92)" stroke-width="1.0" fill="none"/>
  <path d="M 13.51 29.47 L 13.50 29.41" stroke="rgba(255,255,255,0.92)" stroke-width="1.0" fill="none"/>
  <path d="M 13.50 29.41 L 13.53 29.26" stroke="rgba(255,255,255,0.92)" stroke-width="1.0" fill="none"/>
  <path d="M 13.53 29.26 L 13.59 29.11" stroke="rgba(255,255,255,0.92)" stroke-width="1.0" fill="none"/>
  <path d="M 13.59 29.11 L 13.71 28.96" stroke="rgba(255,255,255,0.92)" stroke-width="1.0" fill="none"/>
  <path d="M 13.71 28.96 L 13.84 28.85" stroke="rgba(255,255,255,0.92)" stroke-width="1.0" fill="none"/>
  <path d="M 13.84 28.85 L 14.01 28.73" stroke="rgba(255,255,255,0.92)" stroke-width="1.0" fill="none"/>
  <path d="M 14.01 28.73 L 14.26 28.60" stroke="rgba(255,255,255,0.92)" stroke-width="1.0" fill="none"/>
  <path d="M 14.26 28.60 L 14.46 28.51" stroke="rgba(255,255,255,0.92)" stroke-width="1.0" fill="none"/>
  <path d="M 14.46 28.51 L 14.85 28.39" stroke="rgba(255,255,255,0.92)" stroke-width="1.0" fill="none"/>
  <path d="M 14.85 28.39 L 15.15 28.32" stroke="rgba(255,255,255,0.92)" stroke-width="1.0" fill="none"/>
  <path d="M 15.15 28.32 L 15.58 28.24" stroke="rgba(255,255,255,0.92)" stroke-width="1.0" fill="none"/>
  <path d="M 15.58 28.24 L 15.92 28.20" stroke="rgba(255,255,255,0.92)" stroke-width="1.0" fill="none"/>
  <path d="M 15.92 28.20 L 16.10 28.19" stroke="rgba(255,255,255,0.92)" stroke-width="1.0" fill="none"/>
  <path d="M 16.10 28.19 L 16.27 28.18" stroke="rgba(255,255,255,0.92)" stroke-width="1.0" fill="none"/>
  <path d="M 16.27 28.18 L 16.40 28.18" stroke="rgba(255,255,255,0.92)" stroke-width="1.0" fill="none"/>
  <path d="M 16.40 28.18 L 16.59 28.17" stroke="rgba(255,255,255,0.92)" stroke-width="1.0" fill="none"/>
  <path d="M 16.59 28.17 L 6.72 28.17" stroke="rgba(255,255,255,0.92)" stroke-width="1.0" fill="none"/>
  <path d="M 33.24 27.56 L 33.24 28.79" stroke="rgba(255,255,255,0.92)" stroke-width="1.0" fill="none"/>
  <path d="M 34.47 26.94 L 34.47 29.41" stroke="rgba(255,255,255,0.92)" stroke-width="1.0" fill="none"/>
  <path d="M 35.70 26.94 L 35.70 29.41" stroke="rgba(255,255,255,0.92)" stroke-width="1.0" fill="none"/>
  <path d="M 39.40 29.41 L 39.40 26.94" stroke="rgba(255,255,255,0.92)" stroke-width="1.0" fill="none"/>
  <path d="M 91.19 26.94 L 91.19 29.41" stroke="rgba(255,255,255,0.92)" stroke-width="1.0" fill="none"/>
  <path d="M 94.89 26.94 L 94.89 29.41" stroke="rgba(255,255,255,0.92)" stroke-width="1.0" fill="none"/>
  <path d="M 96.13 26.94 L 96.13 29.41" stroke="rgba(255,255,255,0.92)" stroke-width="1.0" fill="none"/>
  <path d="M 97.36 27.56 L 97.36 28.79" stroke="rgba(255,255,255,0.92)" stroke-width="1.0" fill="none"/>
  <path d="M 34.47 26.94 L 35.70 26.94" stroke="rgba(255,255,255,0.92)" stroke-width="1.0" fill="none"/>
  <path d="M 94.89 26.94 L 96.13 26.94" stroke="rgba(255,255,255,0.92)" stroke-width="1.0" fill="none"/>
  <path d="M 34.47 29.41 L 35.70 29.41" stroke="rgba(255,255,255,0.92)" stroke-width="1.0" fill="none"/>
  <path d="M 94.89 29.41 L 96.13 29.41" stroke="rgba(255,255,255,0.92)" stroke-width="1.0" fill="none"/>
  <path d="M 6.72 28.17 L 25.84 28.17" stroke="rgba(255,255,255,0.92)" stroke-width="1.0" fill="none"/>
  <path d="M 7.09 27.80 L 25.47 27.80" stroke="rgba(255,255,255,0.92)" stroke-width="1.0" fill="none"/>
  <path d="M 6.72 26.94 L 25.84 26.94" stroke="rgba(255,255,255,0.92)" stroke-width="1.0" fill="none"/>
  <path d="M 34.47 28.79 L 33.24 28.79" stroke="rgba(255,255,255,0.92)" stroke-width="1.0" fill="none"/>
  <path d="M 35.70 28.79 L 39.40 28.79" stroke="rgba(255,255,255,0.92)" stroke-width="1.0" fill="none"/>
  <path d="M 91.19 28.79 L 94.89 28.79" stroke="rgba(255,255,255,0.92)" stroke-width="1.0" fill="none"/>
  <path d="M 96.13 28.79 L 97.36 28.79" stroke="rgba(255,255,255,0.92)" stroke-width="1.0" fill="none"/>
  <path d="M 34.47 27.56 L 33.24 27.56" stroke="rgba(255,255,255,0.92)" stroke-width="1.0" fill="none"/>
  <path d="M 35.70 27.56 L 39.40 27.56" stroke="rgba(255,255,255,0.92)" stroke-width="1.0" fill="none"/>
  <path d="M 91.19 27.56 L 94.89 27.56" stroke="rgba(255,255,255,0.92)" stroke-width="1.0" fill="none"/>
  <path d="M 96.13 27.56 L 97.36 27.56" stroke="rgba(255,255,255,0.92)" stroke-width="1.0" fill="none"/>
  <path d="M 39.40 26.94 L 91.19 26.94" stroke="rgba(255,255,255,0.92)" stroke-width="1.0" fill="none"/>
  <path d="M 91.19 29.41 L 39.40 29.41" stroke="rgba(255,255,255,0.92)" stroke-width="1.0" fill="none"/>
  <path d="M 40.76 26.94 L 40.76 29.41" stroke="rgba(255,255,255,0.92)" stroke-width="1.0" fill="none"/>
  <path d="M 40.08 26.94 L 40.08 29.41" stroke="rgba(255,255,255,0.92)" stroke-width="1.0" fill="none"/>
  <path d="M 89.84 26.94 L 89.84 29.41" stroke="rgba(255,255,255,0.92)" stroke-width="1.0" fill="none"/>
  <path d="M 90.52 26.94 L 90.52 29.41" stroke="rgba(255,255,255,0.92)" stroke-width="1.0" fill="none"/>
  <path d="M 13.50 29.41 L 13.53 29.25 L 13.61 29.09 L 13.74 28.94 L 13.92 28.79 L 14.14 28.66 L 14.41 28.54 L 14.71 28.43 L 15.05 28.34 L 15.41 28.27 L 15.79 28.22 L 16.18 28.19 L 16.59 28.17 L 16.99 28.19 L 17.39 28.22 L 17.77 28.27 L 18.13 28.34 L 18.46 28.43 L 18.77 28.54 L 19.03 28.66 L 19.26 28.79 L 19.44 28.94 L 19.57 29.09 L 19.64 29.25 L 19.67 29.41 L 19.64 29.57 L 19.57 29.73 L 19.44 29.88 L 19.26 30.02 L 19.03 30.16 L 18.77 30.28 L 18.46 30.39 L 18.13 30.48 L 17.77 30.55 L 17.39 30.60 L 16.99 30.63 L 16.59 30.64 L 16.18 30.63 L 15.79 30.60 L 15.41 30.55 L 15.05 30.48 L 14.71 30.39 L 14.41 30.28 L 14.14 30.16 L 13.92 30.02 L 13.74 29.88 L 13.61 29.73 L 13.53 29.57 L 13.50 29.41" stroke="rgba(255,255,255,0.92)" stroke-width="1.0" fill="none"/>
  <path d="M 96.74 29.41 L 16.64 30.64" stroke="rgba(255,255,255,0.92)" stroke-width="1.0" fill="none"/>
  <path d="M 96.62 26.94 L 96.13 26.95" stroke="rgba(255,255,255,0.92)" stroke-width="1.0" fill="none"/>
  <path d="M 94.89 26.97 L 91.19 27.03" stroke="rgba(255,255,255,0.92)" stroke-width="1.0" fill="none"/>
  <path d="M 16.56 28.17 L 16.53 28.18" stroke="rgba(255,255,255,0.92)" stroke-width="1.0" fill="none"/>
  <path d="M 94.89 29.16 L 94.87 29.16 L 94.85 29.15 L 94.83 29.14 L 94.81 29.14 L 94.79 29.13 L 94.77 29.12 L 94.75 29.12 L 94.73 29.11 L 94.71 29.10 L 94.69 29.10 L 94.67 29.09 L 94.65 29.08 L 94.64 29.07 L 94.62 29.07 L 94.60 29.06 L 94.58 29.05 L 94.56 29.05 L 94.54 29.04 L 94.52 29.03 L 94.51 29.02 L 94.49 29.02 L 94.47 29.01 L 94.45 29.00 L 94.44 28.99 L 94.42 28.99 L 94.40 28.98 L 94.39 28.97 L 94.37 28.96 L 94.35 28.95 L 94.34 28.95 L 94.32 28.94 L 94.30 28.93 L 94.29 28.92 L 94.27 28.91 L 94.26 28.90 L 94.24 28.90 L 94.23 28.89 L 94.21 28.88 L 94.20 28.87 L 94.18 28.86 L 94.17 28.85 L 94.15 28.84 L 94.14 28.84 L 94.13 28.83 L 94.11 28.82 L 94.10 28.81 L 94.09 28.80 L 94.07 28.79" stroke="rgba(255,255,255,0.92)" stroke-width="1.0" fill="none"/>
  <path d="M 94.07 27.56 L 94.09 27.55 L 94.10 27.54 L 94.11 27.53 L 94.13 27.52 L 94.14 27.51 L 94.15 27.51 L 94.17 27.50 L 94.18 27.49 L 94.20 27.48 L 94.21 27.47 L 94.23 27.46 L 94.24 27.45 L 94.26 27.45 L 94.27 27.44 L 94.29 27.43 L 94.30 27.42 L 94.32 27.41 L 94.34 27.40 L 94.35 27.40 L 94.37 27.39 L 94.39 27.38 L 94.40 27.37 L 94.42 27.36 L 94.44 27.36 L 94.45 27.35 L 94.47 27.34 L 94.49 27.33 L 94.51 27.33 L 94.52 27.32 L 94.54 27.31 L 94.56 27.30 L 94.58 27.30 L 94.60 27.29 L 94.62 27.28 L 94.64 27.28 L 94.65 27.27 L 94.67 27.26 L 94.69 27.25 L 94.71 27.25 L 94.73 27.24 L 94.75 27.23 L 94.77 27.23 L 94.79 27.22 L 94.81 27.21 L 94.83 27.21 L 94.85 27.20 L 94.87 27.19 L 94.89 27.19" stroke="rgba(255,255,255,0.92)" stroke-width="1.0" fill="none"/>
  <path d="M 96.13 26.97 L 96.35 26.95 L 96.58 26.94 L 96.81 26.94 L 97.03 26.95 L 97.26 26.96 L 97.48 26.98 L 97.70 27.00 L 97.91 27.03 L 98.12 27.07 L 98.32 27.12 L 98.51 27.16 L 98.69 27.22 L 98.86 27.28 L 99.02 27.34 L 99.17 27.41 L 99.30 27.49 L 99.42 27.57 L 99.53 27.65 L 99.62 27.73 L 99.69 27.82 L 99.75 27.90 L 99.79 27.99 L 99.82 28.08 L 99.83 28.17 L 99.82 28.27 L 99.79 28.36 L 99.75 28.45 L 99.69 28.53 L 99.62 28.62 L 99.53 28.70 L 99.42 28.78 L 99.30 28.86 L 99.17 28.94 L 99.02 29.00 L 98.86 29.07 L 98.69 29.13 L 98.51 29.19 L 98.32 29.23 L 98.12 29.28 L 97.91 29.32 L 97.70 29.35 L 97.48 29.37 L 97.26 29.39 L 97.03 29.40 L 96.81 29.41 L 96.58 29.41 L 96.35 29.40 L 96.13 29.38" stroke="rgba(255,255,255,0.92)" stroke-width="1.0" fill="none"/>
  <path d="M 6.72 26.94 L 6.72 28.17" stroke="rgba(255,255,255,0.92)" stroke-width="1.0" fill="none"/>
  <path d="M 7.09 26.94 L 7.09 27.80" stroke="rgba(255,255,255,0.92)" stroke-width="1.0" fill="none"/>
  <path d="M 25.84 26.94 L 25.84 28.17" stroke="rgba(255,255,255,0.92)" stroke-width="1.0" fill="none"/>
  <path d="M 25.47 26.94 L 25.47 27.80" stroke="rgba(255,255,255,0.92)" stroke-width="1.0" fill="none"/>
  <path d="M 29.60 23.70 L 28.36 23.70" stroke="rgba(255,255,255,0.92)" stroke-width="1.0" fill="none"/>
  <path d="M 86.32 23.70 L 87.55 23.70" stroke="rgba(255,255,255,0.92)" stroke-width="1.0" fill="none"/>
  <path d="M 61.04 65.62 L 61.04 51.44" stroke="rgba(255,255,255,0.92)" stroke-width="1.0" fill="none"/>
  <path d="M 86.32 70.56 L 86.32 58.22" stroke="rgba(255,255,255,0.92)" stroke-width="1.0" fill="none"/>
  <path d="M 92.49 70.56 L 92.49 58.22" stroke="rgba(255,255,255,0.92)" stroke-width="1.0" fill="none"/>
  <path d="M 54.88 65.62 L 54.88 51.44" stroke="rgba(255,255,255,0.92)" stroke-width="1.0" fill="none"/>
  <path d="M 54.88 27.17 A 15.83 15.83 0 0 1 61.04 27.17" stroke="rgba(255,255,255,0.92)" stroke-width="1.0" fill="none"/>
  <path d="M 54.88 34.57 A 15.83 15.83 0 0 1 61.04 34.57" stroke="rgba(255,255,255,0.92)" stroke-width="1.0" fill="none"/>
  <path d="M 54.88 34.01 A 15.83 15.83 0 0 1 61.04 34.01" stroke="rgba(255,255,255,0.92)" stroke-width="1.0" fill="none"/>
  <path d="M 54.88 27.74 A 15.83 15.83 0 0 1 61.04 27.74" stroke="rgba(255,255,255,0.92)" stroke-width="1.0" fill="none"/>
  <path d="M 61.04 63.16 L 86.32 63.16" stroke="rgba(255,255,255,0.92)" stroke-width="1.0" fill="none"/>
  <path d="M 61.04 60.69 L 86.32 60.69" stroke="rgba(255,255,255,0.92)" stroke-width="1.0" fill="none"/>
  <path d="M 12.33 73.02 L 86.32 65.62" stroke="rgba(255,255,255,0.92)" stroke-width="1.0" fill="none"/>
  <path d="M 12.33 75.49 L 86.32 68.09" stroke="rgba(255,255,255,0.92)" stroke-width="1.0" fill="none"/>
  <path d="M 86.32 39.51 A 15.83 15.83 0 0 1 92.49 39.51" stroke="rgba(255,255,255,0.92)" stroke-width="1.0" fill="none"/>
  <path d="M 86.32 33.34 A 15.83 15.83 0 0 1 92.49 33.34" stroke="rgba(255,255,255,0.92)" stroke-width="1.0" fill="none"/>
  <path d="M 86.32 34.10 A 15.83 15.83 0 0 1 92.49 34.10" stroke="rgba(255,255,255,0.92)" stroke-width="1.0" fill="none"/>
  <path d="M 28.36 27.09 L 28.36 23.39" stroke="rgba(255,255,255,0.92)" stroke-width="1.0" fill="none"/>
  <path d="M 27.13 27.09 L 27.13 23.39" stroke="rgba(255,255,255,0.92)" stroke-width="1.0" fill="none"/>
  <path d="M 25.90 26.16 L 25.90 24.31" stroke="rgba(255,255,255,0.92)" stroke-width="1.0" fill="none"/>
  <path d="M 27.13 24.31 L 25.90 24.31" stroke="rgba(255,255,255,0.92)" stroke-width="1.0" fill="none"/>
  <path d="M 28.36 24.31 L 28.37 24.31" stroke="rgba(255,255,255,0.92)" stroke-width="1.0" fill="none"/>
  <path d="M 29.60 24.31 L 32.06 24.31" stroke="rgba(255,255,255,0.92)" stroke-width="1.0" fill="none"/>
  <path d="M 28.36 23.39 L 27.13 23.39" stroke="rgba(255,255,255,0.92)" stroke-width="1.0" fill="none"/>
  <path d="M 27.13 27.09 L 28.36 27.09" stroke="rgba(255,255,255,0.92)" stroke-width="1.0" fill="none"/>
  <path d="M 27.13 26.16 L 25.90 26.16" stroke="rgba(255,255,255,0.92)" stroke-width="1.0" fill="none"/>
  <path d="M 29.70 26.16 L 32.13 26.16" stroke="rgba(255,255,255,0.92)" stroke-width="1.0" fill="none"/>
  <path d="M 87.55 27.09 L 87.55 23.39" stroke="rgba(255,255,255,0.92)" stroke-width="1.0" fill="none"/>
  <path d="M 88.79 27.09 L 88.79 23.39" stroke="rgba(255,255,255,0.92)" stroke-width="1.0" fill="none"/>
  <path d="M 90.02 26.16 L 90.02 24.31" stroke="rgba(255,255,255,0.92)" stroke-width="1.0" fill="none"/>
  <path d="M 88.79 24.31 L 90.02 24.31" stroke="rgba(255,255,255,0.92)" stroke-width="1.0" fill="none"/>
  <path d="M 87.55 24.31 L 87.55 24.31" stroke="rgba(255,255,255,0.92)" stroke-width="1.0" fill="none"/>
  <path d="M 86.31 24.31 L 83.86 24.31" stroke="rgba(255,255,255,0.92)" stroke-width="1.0" fill="none"/>
  <path d="M 87.55 23.39 L 88.79 23.39" stroke="rgba(255,255,255,0.92)" stroke-width="1.0" fill="none"/>
  <path d="M 88.79 27.09 L 87.55 27.09" stroke="rgba(255,255,255,0.92)" stroke-width="1.0" fill="none"/>
  <path d="M 88.79 26.16 L 90.02 26.16" stroke="rgba(255,255,255,0.92)" stroke-width="1.0" fill="none"/>
  <path d="M 86.21 26.16 L 83.79 26.16" stroke="rgba(255,255,255,0.92)" stroke-width="1.0" fill="none"/>
  <path d="M 6.17 81.43 L 6.17 66.64" stroke="rgba(255,255,255,0.92)" stroke-width="1.0" fill="none"/>
  <path d="M 12.33 81.43 L 12.33 66.64" stroke="rgba(255,255,255,0.92)" stroke-width="1.0" fill="none"/>
  <path d="M 6.17 50.38 A 15.83 15.83 0 0 1 12.33 50.38" stroke="rgba(255,255,255,0.92)" stroke-width="1.0" fill="none"/>
  <path d="M 6.17 42.99 A 15.83 15.83 0 0 1 12.33 42.99" stroke="rgba(255,255,255,0.92)" stroke-width="1.0" fill="none"/>
  <path d="M 6.17 43.74 A 15.83 15.83 0 0 1 12.33 43.74" stroke="rgba(255,255,255,0.92)" stroke-width="1.0" fill="none"/>
  <path d="M 6.17 66.64 L 6.19 66.59 L 6.27 66.54 L 6.40 66.49 L 6.58 66.45 L 6.80 66.41 L 7.07 66.37 L 7.37 66.34 L 7.71 66.31 L 8.07 66.29 L 8.45 66.27 L 8.85 66.26 L 9.25 66.26 L 9.65 66.26 L 10.05 66.27 L 10.43 66.29 L 10.79 66.31 L 11.13 66.34 L 11.43 66.37 L 11.69 66.41 L 11.92 66.45 L 12.10 66.49 L 12.23 66.54 L 12.31 66.59 L 12.33 66.64 L 12.31 66.69 L 12.23 66.73 L 12.10 66.78 L 11.92 66.83 L 11.69 66.87 L 11.43 66.90 L 11.13 66.94 L 10.79 66.96 L 10.43 66.98 L 10.05 67.00 L 9.65 67.01 L 9.25 67.01 L 8.85 67.01 L 8.45 67.00 L 8.07 66.98 L 7.71 66.96 L 7.37 66.94 L 7.07 66.90 L 6.80 66.87 L 6.58 66.83 L 6.40 66.78 L 6.27 66.73 L 6.19 66.69 L 6.17 66.64" stroke="rgba(255,255,255,0.92)" stroke-width="1.0" fill="none"/>
  <circle cx="9.25" cy="63.90" r="1.21" stroke="rgba(255,255,255,0.92)" stroke-width="1.0" fill="none"/>
  <circle cx="9.25" cy="84.17" r="1.21" stroke="rgba(255,255,255,0.92)" stroke-width="1.0" fill="none"/>
  <path d="M 86.32 58.22 L 86.35 58.16 L 86.43 58.10 L 86.56 58.04 L 86.73 57.98 L 86.96 57.93 L 87.22 57.88 L 87.53 57.84 L 87.86 57.80 L 88.22 57.77 L 88.61 57.75 L 89.00 57.74 L 89.40 57.73 L 89.81 57.74 L 90.20 57.75 L 90.58 57.77 L 90.95 57.80 L 91.28 57.84 L 91.58 57.88 L 91.85 57.93 L 92.07 57.98 L 92.25 58.04 L 92.38 58.10 L 92.46 58.16 L 92.49 58.22 L 92.46 58.29 L 92.38 58.35 L 92.25 58.41 L 92.07 58.47 L 91.85 58.52 L 91.58 58.57 L 91.28 58.61 L 90.95 58.65 L 90.58 58.68 L 90.20 58.70 L 89.81 58.71 L 89.40 58.72 L 89.00 58.71 L 88.61 58.70 L 88.22 58.68 L 87.86 58.65 L 87.53 58.61 L 87.22 58.57 L 86.96 58.52 L 86.73 58.47 L 86.56 58.41 L 86.43 58.35 L 86.35 58.29 L 86.32 58.22" stroke="rgba(255,255,255,0.92)" stroke-width="1.0" fill="none"/>
  <path d="M 57.96 47.74 L 83.86 47.74 L 83.86 0.00 L 57.96 0.00 L 32.06 0.00 L 32.06 47.74 Z" stroke="rgba(255,255,255,0.92)" stroke-width="1.0" fill="none"/>
  <path d="M 57.96 46.51 L 82.62 46.51 L 82.62 1.23 L 57.96 1.23 L 33.30 1.23 L 33.30 46.51 Z" stroke="rgba(255,255,255,0.92)" stroke-width="1.0" fill="none"/>
  <path d="M 57.96 44.04 L 80.16 44.04 L 80.16 3.70 L 57.96 3.70 L 35.76 3.70 L 35.76 44.04 Z" stroke="rgba(255,255,255,0.92)" stroke-width="1.0" fill="none"/>
  <path d="M 28.37 23.70 L 28.38 53.29 L 54.88 53.29" stroke="rgba(255,255,255,0.92)" stroke-width="1.0" fill="none"/>
  <path d="M 61.04 53.29 L 87.56 53.28 L 87.55 24.31" stroke="rgba(255,255,255,0.92)" stroke-width="1.0" fill="none"/>
  <path d="M 29.60 23.70 L 29.61 52.06 L 54.88 52.06" stroke="rgba(255,255,255,0.92)" stroke-width="1.0" fill="none"/>
  <path d="M 61.04 52.05 L 86.32 52.05 L 86.32 23.70" stroke="rgba(255,255,255,0.92)" stroke-width="1.0" fill="none"/>
  <path d="M 54.88 51.44 L 61.04 51.44" stroke="rgba(255,255,255,0.92)" stroke-width="1.0" fill="none"/>
  <path d="M 35.76 19.20 L 48.68 11.46" stroke="rgba(255,255,255,0.92)" stroke-width="1.0" fill="none"/>
  <path d="M 80.16 13.57 L 49.15 32.79" stroke="rgba(255,255,255,0.92)" stroke-width="1.0" fill="none"/>
  <path d="M 80.16 10.67 L 58.54 24.07" stroke="rgba(255,255,255,0.92)" stroke-width="1.0" fill="none"/>
  <path d="M 51.35 44.04 L 68.27 33.37" stroke="rgba(255,255,255,0.92)" stroke-width="1.0" fill="none"/>
  <path d="M 64.18 40.15 L 73.75 33.74" stroke="rgba(255,255,255,0.92)" stroke-width="1.0" fill="none"/>
  <path d="M 0.00 60.47 L 0.00 87.60 L 18.50 87.60 L 18.50 60.47 Z" stroke="rgba(255,255,255,0.92)" stroke-width="1.0" fill="none"/>
  <path d="M 0.62 61.09 L 0.62 86.98 L 17.88 86.98 L 17.88 61.09 Z" stroke="rgba(255,255,255,0.92)" stroke-width="1.0" fill="none"/>
  <path d="M 55.14 5.43 L 57.60 5.43" stroke="rgba(255,255,255,0.92)" stroke-width="1.0" fill="none"/>
  <path d="M 55.75 60.92 L 56.99 60.92" stroke="rgba(255,255,255,0.92)" stroke-width="1.0" fill="none"/>
  <path d="M 53.29 78.19 L 53.29 60.51" stroke="rgba(255,255,255,0.92)" stroke-width="1.0" fill="none"/>
  <path d="M 59.45 78.19 L 59.45 60.51" stroke="rgba(255,255,255,0.92)" stroke-width="1.0" fill="none"/>
  <path d="M 53.29 47.14 A 15.83 15.83 0 0 1 59.45 47.14" stroke="rgba(255,255,255,0.92)" stroke-width="1.0" fill="none"/>
  <path d="M 53.29 40.97 A 15.83 15.83 0 0 1 59.45 40.97" stroke="rgba(255,255,255,0.92)" stroke-width="1.0" fill="none"/>
  <path d="M 53.29 41.73 A 15.83 15.83 0 0 1 59.45 41.73" stroke="rgba(255,255,255,0.92)" stroke-width="1.0" fill="none"/>
  <path d="M 53.29 65.86 L 53.31 65.79 L 53.39 65.73 L 53.52 65.67 L 53.70 65.61 L 53.92 65.56 L 54.19 65.51 L 54.49 65.47 L 54.83 65.43 L 55.19 65.40 L 55.57 65.38 L 55.97 65.37 L 56.37 65.37 L 56.77 65.37 L 57.17 65.38 L 57.55 65.40 L 57.91 65.43 L 58.25 65.47 L 58.55 65.51 L 58.81 65.56 L 59.04 65.61 L 59.22 65.67 L 59.35 65.73 L 59.43 65.79 L 59.45 65.86 L 59.43 65.92 L 59.35 65.98 L 59.22 66.04 L 59.04 66.10 L 58.81 66.15 L 58.55 66.20 L 58.25 66.25 L 57.91 66.28 L 57.55 66.31 L 57.17 66.33 L 56.77 66.34 L 56.37 66.35 L 55.97 66.34 L 55.57 66.33 L 55.19 66.31 L 54.83 66.28 L 54.49 66.25 L 54.19 66.20 L 53.92 66.15 L 53.70 66.10 L 53.52 66.04 L 53.39 65.98 L 53.31 65.92 L 53.29 65.86" stroke="rgba(255,255,255,0.92)" stroke-width="1.0" fill="none"/>
  <path d="M 57.60 5.43 L 57.60 60.92" stroke="rgba(255,255,255,0.92)" stroke-width="1.0" fill="none"/>
  <path d="M 55.14 5.43 L 55.14 60.92" stroke="rgba(255,255,255,0.92)" stroke-width="1.0" fill="none"/>
  <path d="M 55.14 60.92 L 57.60 60.92" stroke="rgba(255,255,255,0.92)" stroke-width="1.0" fill="none"/>
  <path d="M 55.14 32.15 L 55.43 32.15" stroke="rgba(255,255,255,0.92)" stroke-width="1.0" fill="none"/>
  <path d="M 57.31 32.16 L 57.60 32.16" stroke="rgba(255,255,255,0.92)" stroke-width="1.0" fill="none"/>
  <path d="M 56.37 78.49 L 56.37 96.04" stroke="rgba(255,255,255,0.92)" stroke-width="1.0" fill="none"/>
  <path d="M 57.60 78.49 L 57.60 96.04" stroke="rgba(255,255,255,0.92)" stroke-width="1.0" fill="none"/>
  <path d="M 56.37 83.68 L 56.37 83.65" stroke="rgba(255,255,255,0.92)" stroke-width="1.0" fill="none"/>
  <path d="M 50.20 89.07 L 50.20 74.27" stroke="rgba(255,255,255,0.92)" stroke-width="1.0" fill="none"/>
  <path d="M 56.37 89.07 L 56.37 78.49" stroke="rgba(255,255,255,0.92)" stroke-width="1.0" fill="none"/>
  <path d="M 53.29 74.64 L 53.49 74.64 L 53.69 74.64 L 53.89 74.64 L 54.08 74.63 L 54.28 74.62 L 54.47 74.62 L 54.65 74.61 L 54.83 74.59 L 55.00 74.58 L 55.16 74.57 L 55.32 74.55 L 55.47 74.53 L 55.60 74.52 L 55.73 74.50 L 55.85 74.48 L 55.96 74.46 L 56.05 74.43 L 56.13 74.41 L 56.21 74.39 L 56.26 74.37 L 56.31 74.34 L 56.34 74.32 L 56.36 74.29 L 56.37 74.27 L 56.36 74.24 L 56.34 74.22 L 56.31 74.19 L 56.26 74.17 L 56.21 74.15 L 56.13 74.12 L 56.05 74.10 L 55.96 74.08 L 55.85 74.06 L 55.73 74.04 L 55.60 74.02 L 55.47 74.00 L 55.32 73.99 L 55.16 73.97 L 55.00 73.96 L 54.83 73.94 L 54.65 73.93 L 54.47 73.92 L 54.28 73.91 L 54.08 73.90 L 53.89 73.90 L 53.69 73.89 L 53.49 73.89 L 53.29 73.89" stroke="rgba(255,255,255,0.92)" stroke-width="1.0" fill="none"/>
  <path d="M 50.20 58.02 A 15.83 15.83 0 0 1 56.37 58.02" stroke="rgba(255,255,255,0.92)" stroke-width="1.0" fill="none"/>
  <path d="M 50.20 50.62 A 15.83 15.83 0 0 1 53.90 50.33" stroke="rgba(255,255,255,0.92)" stroke-width="1.0" fill="none"/>
  <path d="M 50.20 51.38 A 15.83 15.83 0 0 1 53.90 51.08" stroke="rgba(255,255,255,0.92)" stroke-width="1.0" fill="none"/>
  <path d="M 53.90 78.30 L 53.90 82.72" stroke="rgba(255,255,255,0.92)" stroke-width="1.0" fill="none"/>
  <path d="M 53.90 82.72 A 1.23 1.23 0 0 1 56.37 82.72" stroke="rgba(255,255,255,0.92)" stroke-width="1.0" fill="none"/>
  <path d="M 56.37 96.04 L 57.60 96.04" stroke="rgba(255,255,255,0.92)" stroke-width="1.0" fill="none"/>
  <path d="M 53.29 60.51 L 55.14 60.51" stroke="rgba(255,255,255,0.92)" stroke-width="1.0" fill="none"/>
  <path d="M 57.60 60.51 L 59.45 60.51" stroke="rgba(255,255,255,0.92)" stroke-width="1.0" fill="none"/>
  <path d="M 55.14 59.88 L 57.60 59.88" stroke="rgba(255,255,255,0.92)" stroke-width="1.0" fill="none"/>
  <path d="M 55.14 6.64 L 57.60 6.64" stroke="rgba(255,255,255,0.92)" stroke-width="1.0" fill="none"/>
  <circle cx="56.37" cy="32.87" r="1.18" stroke="rgba(255,255,255,0.92)" stroke-width="1.0" fill="none"/>
  <circle cx="56.39" cy="32.87" r="0.74" stroke="rgba(255,255,255,0.92)" stroke-width="1.0" fill="none"/>
  <path d="M 55.14 33.58 L 55.43 33.58" stroke="rgba(255,255,255,0.92)" stroke-width="1.0" fill="none"/>
  <path d="M 57.31 33.58 L 57.60 33.58" stroke="rgba(255,255,255,0.92)" stroke-width="1.0" fill="none"/>
</svg>
