<svg xmlns="http://www.w3.org/2000/svg" viewBox="0 0 100 100" width="100" height="100">
  <path d="M 25.84 29.96 L 33.24 29.90" stroke="rgba(255,255,255,0.92)" stroke-width="1.0" fill="none"/>
  <path d="M 33.24 29.90 L 33.24 29.54" stroke="rgba(255,255,255,0.92)" stroke-width="1.0" fill="none"/>
  <path d="M 33.24 29.54 L 34.47 29.54" stroke="rgba(255,255,255,0.92)" stroke-width="1.0" fill="none"/>
  <path d="M 34.47 29.54 L 34.47 28.92" stroke="rgba(255,255,255,0.92)" stroke-width="1.0" fill="none"/>
  <path d="M 34.47 28.92 L 35.70 28.92" stroke="rgba(255,255,255,0.92)" stroke-width="1.0" fill="none"/>
  <path d="M 35.70 28.92 L 35.70 29.54" stroke="rgba(255,255,255,0.92)" stroke-width="1.0" fill="none"/>
  <path d="M 35.70 29.54 L 39.40 29.54" stroke="rgba(255,255,255,0.92)" stroke-width="1.0" fill="none"/>
  <path d="M 39.40 29.54 L 39.40 28.92" stroke="rgba(255,255,255,0.92)" stroke-width="1.0" fill="none"/>
  <path d="M 39.40 28.92 L 91.19 28.92" stroke="rgba(255,255,255,0.92)" stroke-width="1.0" fill="none"/>
  <path d="M 91.19 28.92 L 91.20 29.01" stroke="rgba(255,255,255,0.92)" stroke-width="1.0" fill="none"/>
  <path d="M 91.20 29.01 L 94.89 28.95" stroke="rgba(255,255,255,0.92)" stroke-width="1.0" fill="none"/>
  <path d="M 94.89 28.95 L 94.89 28.92" stroke="rgba(255,255,255,0.92)" stroke-width="1.0" fill="none"/>
  <path d="M 94.89 28.92 L 96.13 28.92" stroke="rgba(255,255,255,0.92)" stroke-width="1.0" fill="none"/>
  <path d="M 96.13 28.92 L 96.13 28.93" stroke="rgba(255,255,255,0.92)" stroke-width="1.0" fill="none"/>
  <path d="M 96.13 28.93 L 96.62 28.92" stroke="rgba(255,255,255,0.92)" stroke-width="1.0" fill="none"/>
  <path d="M 96.62 28.92 L 96.90 28.92" stroke="rgba(255,255,255,0.92)" stroke-width="1.0" fill="none"/>
  <path d="M 96.90 28.92 L 97.35 28.94" stroke="rgba(255,255,255,0.92)" stroke-width="1.0" fill="none"/>
  <path d="M 97.35 28.94 L 97.84 29.00" stroke="rgba(255,255,255,0.92)" stroke-width="1.0" fill="none"/>
  <path d="M 97.84 29.00 L 98.32 29.09" stroke="rgba(255,255,255,0.92)" stroke-width="1.0" fill="none"/>
  <path d="M 98.32 29.09 L 98.76 29.22" stroke="rgba(255,255,255,0.92)" stroke-width="1.0" fill="none"/>
  <path d="M 98.76 29.22 L 99.18 29.40" stroke="rgba(255,255,255,0.92)" stroke-width="1.0" fill="none"/>
  <path d="M 99.18 29.40 L 99.50 29.60" stroke="rgba(255,255,255,0.92)" stroke-width="1.0" fill="none"/>
  <path d="M 98.25 31.23 L 97.70 31.33" stroke="rgba(255,255,255,0.92)" stroke-width="1.0" fill="none"/>
  <path d="M 97.70 31.33 L 97.23 31.37" stroke="rgba(255,255,255,0.92)" stroke-width="1.0" fill="none"/>
  <path d="M 97.23 31.37 L 96.74 31.39" stroke="rgba(255,255,255,0.92)" stroke-width="1.0" fill="none"/>
  <path d="M 96.74 31.39 L 16.85 32.62" stroke="rgba(255,255,255,0.92)" stroke-width="1.0" fill="none"/>
  <path d="M 16.85 32.62 L 16.38 32.62" stroke="rgba(255,255,255,0.92)" stroke-width="1.0" fill="none"/>
  <path d="M 16.38 32.62 L 16.16 32.61" stroke="rgba(255,255,255,0.92)" stroke-width="1.0" fill="none"/>
  <path d="M 16.16 32.61 L 15.76 32.57" stroke="rgba(255,255,255,0.92)" stroke-width="1.0" fill="none"/>
  <path d="M 15.76 32.57 L 15.36 32.52" stroke="rgba(255,255,255,0.92)" stroke-width="1.0" fill="none"/>
  <path d="M 15.36 32.52 L 14.96 32.43" stroke="rgba(255,255,255,0.92)" stroke-width="1.0" fill="none"/>
  <path d="M 14.96 32.43 L 14.59 32.33" stroke="rgba(255,255,255,0.92)" stroke-width="1.0" fill="none"/>
  <path d="M 14.59 32.33 L 14.31 32.22" stroke="rgba(255,255,255,0.92)" stroke-width="1.0" fill="none"/>
  <path d="M 14.31 32.22 L 14.01 32.06" stroke="rgba(255,255,255,0.92)" stroke-width="1.0" fill="none"/>
  <path d="M 14.01 32.06 L 13.78 31.89" stroke="rgba(255,255,255,0.92)" stroke-width="1.0" fill="none"/>
  <path d="M 13.78 31.89 L 13.65 31.76" stroke="rgba(255,255,255,0.92)" stroke-width="1.0" fill="none"/>
  <path d="M 13.65 31.76 L 13.57 31.63" stroke="rgba(255,255,255,0.92)" stroke-width="1.0" fill="none"/>
  <path d="M 13.57 31.63 L 13.51 31.45" stroke="rgba(255,255,255,0.92)" stroke-width="1.0" fill="none"/>
  <path d="M 13.51 31.45 L 13.50 31.39" stroke="rgba(255,255,255,0.92)" stroke-width="1.0" fill="none"/>
  <path d="M 13.50 31.39 L 13.53 31.24" stroke="rgba(255,255,255,0.92)" stroke-width="1.0" fill="none"/>
  <path d="M 13.53 31.24 L 13.59 31.09" stroke="rgba(255,255,255,0.92)" stroke-width="1.0" fill="none"/>
  <path d="M 13.59 31.09 L 13.71 30.94" stroke="rgba(255,255,255,0.92)" stroke-width="1.0" fill="none"/>
  <path d="M 13.71 30.94 L 13.84 30.83" stroke="rgba(255,255,255,0.92)" stroke-width="1.0" fill="none"/>
  <path d="M 13.84 30.83 L 14.01 30.71" stroke="rgba(255,255,255,0.92)" stroke-width="1.0" fill="none"/>
  <path d="M 14.01 30.71 L 14.26 30.58" stroke="rgba(255,255,255,0.92)" stroke-width="1.0" fill="none"/>
  <path d="M 14.26 30.58 L 14.46 30.49" stroke="rgba(255,255,255,0.92)" stroke-width="1.0" fill="none"/>
  <path d="M 14.46 30.49 L 14.85 30.37" stroke="rgba(255,255,255,0.92)" stroke-width="1.0" fill="none"/>
  <path d="M 14.85 30.37 L 15.15 30.30" stroke="rgba(255,255,255,0.92)" stroke-width="1.0" fill="none"/>
  <path d="M 15.15 30.30 L 15.58 30.22" stroke="rgba(255,255,255,0.92)" stroke-width="1.0" fill="none"/>
  <path d="M 15.58 30.22 L 15.92 30.18" stroke="rgba(255,255,255,0.92)" stroke-width="1.0" fill="none"/>
  <path d="M 15.92 30.18 L 16.10 30.17" stroke="rgba(255,255,255,0.92)" stroke-width="1.0" fill="none"/>
  <path d="M 16.10 30.17 L 16.27 30.16" stroke="rgba(255,255,255,0.92)" stroke-width="1.0" fill="none"/>
  <path d="M 16.27 30.16 L 16.40 30.16" stroke="rgba(255,255,255,0.92)" stroke-width="1.0" fill="none"/>
  <path d="M 16.40 30.16 L 16.59 30.15" stroke="rgba(255,255,255,0.92)" stroke-width="1.0" fill="none"/>
  <path d="M 16.59 30.15 L 6.72 30.15" stroke="rgba(255,255,255,0.92)" stroke-width="1.0" fill="none"/>
  <path d="M 33.24 29.54 L 33.24 30.77" stroke="rgba(255,255,255,0.92)" stroke-width="1.0" fill="none"/>
  <path d="M 34.47 28.92 L 34.47 31.39" stroke="rgba(255,255,255,0.92)" stroke-width="1.0" fill="none"/>
  <path d="M 35.70 28.92 L 35.70 31.39" stroke="rgba(255,255,255,0.92)" stroke-width="1.0" fill="none"/>
  <path d="M 39.40 31.39 L 39.40 28.92" stroke="rgba(255,255,255,0.92)" stroke-width="1.0" fill="none"/>
  <path d="M 91.19 28.92 L 91.19 31.39" stroke="rgba(255,255,255,0.92)" stroke-width="1.0" fill="none"/>
  <path d="M 94.89 28.92 L 94.89 31.39" stroke="rgba(255,255,255,0.92)" stroke-width="1.0" fill="none"/>
  <path d="M 96.13 28.92 L 96.13 31.39" stroke="rgba(255,255,255,0.92)" stroke-width="1.0" fill="none"/>
  <path d="M 97.36 29.54 L 97.36 30.77" stroke="rgba(255,255,255,0.92)" stroke-width="1.0" fill="none"/>
  <path d="M 34.47 28.92 L 35.70 28.92" stroke="rgba(255,255,255,0.92)" stroke-width="1.0" fill="none"/>
  <path d="M 94.89 28.92 L 96.13 28.92" stroke="rgba(255,255,255,0.92)" stroke-width="1.0" fill="none"/>
  <path d="M 34.47 31.39 L 35.70 31.39" stroke="rgba(255,255,255,0.92)" stroke-width="1.0" fill="none"/>
  <path d="M 94.89 31.39 L 96.13 31.39" stroke="rgba(255,255,255,0.92)" stroke-width="1.0" fill="none"/>
  <path d="M 6.72 30.15 L 25.84 30.15" stroke="rgba(255,255,255,0.92)" stroke-width="1.0" fill="none"/>
  <path d="M 7.09 29.78 L 25.47 29.78" stroke="rgba(255,255,255,0.92)" stroke-width="1.0" fill="none"/>
  <path d="M 6.72 28.92 L 25.84 28.92" stroke="rgba(255,255,255,0.92)" stroke-width="1.0" fill="none"/>
  <path d="M 34.47 30.77 L 33.24 30.77" stroke="rgba(255,255,255,0.92)" stroke-width="1.0" fill="none"/>
  <path d="M 35.70 30.77 L 39.40 30.77" stroke="rgba(255,255,255,0.92)" stroke-width="1.0" fill="none"/>
  <path d="M 91.19 30.77 L 94.89 30.77" stroke="rgba(255,255,255,0.92)" stroke-width="1.0" fill="none"/>
  <path d="M 96.13 30.77 L 97.36 30.77" stroke="rgba(255,255,255,0.92)" stroke-width="1.0" fill="none"/>
  <path d="M 34.47 29.54 L 33.24 29.54" stroke="rgba(255,255,255,0.92)" stroke-width="1.0" fill="none"/>
  <path d="M 35.70 29.54 L 39.40 29.54" stroke="rgba(255,255,255,0.92)" stroke-width="1.0" fill="none"/>
  <path d="M 91.19 29.54 L 94.89 29.54" stroke="rgba(255,255,255,0.92)" stroke-width="1.0" fill="none"/>
  <path d="M 96.13 29.54 L 97.36 29.54" stroke="rgba(255,255,255,0.92)" stroke-width="1.0" fill="none"/>
  <path d="M 39.40 28.92 L 91.19 28.92" stroke="rgba(255,255,255,0.92)" stroke-width="1.0" fill="none"/>
  <path d="M 91.19 31.39 L 39.40 31.39" stroke="rgba(255,255,255,0.92)" stroke-width="1.0" fill="none"/>
  <path d="M 40.76 28.92 L 40.76 31.39" stroke="rgba(255,255,255,0.92)" stroke-width="1.0" fill="none"/>
  <path d="M 40.08 28.92 L 40.08 31.39" stroke="rgba(255,255,255,0.92)" stroke-width="1.0" fill="none"/>
  <path d="M 89.84 28.92 L 89.84 31.39" stroke="rgba(255,255,255,0.92)" stroke-width="1.0" fill="none"/>
  <path d="M 90.52 28.92 L 90.52 31.39" stroke="rgba(255,255,255,0.92)" stroke-width="1.0" fill="none"/>
  <path d="M 13.50 31.39 L 13.53 31.23 L 13.61 31.07 L 13.74 30.92 L 13.92 30.77 L 14.14 30.64 L 14.41 30.52 L 14.71 30.41 L 15.05 30.32 L 15.41 30.25 L 15.79 30.20 L 16.18 30.16 L 16.59 30.15 L 16.99 30.16 L 17.39 30.20 L 17.77 30.25 L 18.13 30.32 L 18.46 30.41 L 18.77 30.52 L 19.03 30.64 L 19.26 30.77 L 19.44 30.92 L 19.57 31.07 L 19.64 31.23 L 19.67 31.39 L 19.64 31.55 L 19.57 31.71 L 19.44 31.86 L 19.26 32.00 L 19.03 32.14 L 18.77 32.26 L 18.46 32.37 L 18.13 32.46 L 17.77 32.53 L 17.39 32.58 L 16.99 32.61 L 16.59 32.62 L 16.18 32.61 L 15.79 32.58 L 15.41 32.53 L 15.05 32.46 L 14.71 32.37 L 14.41 32.26 L 14.14 32.14 L 13.92 32.00 L 13.74 31.86 L 13.61 31.71 L 13.53 31.55 L 13.50 31.39" stroke="rgba(255,255,255,0.92)" stroke-width="1.0" fill="none"/>
  <path d="M 96.74 31.39 L 16.64 32.62" stroke="rgba(255,255,255,0.92)" stroke-width="1.0" fill="none"/>
  <path d="M 96.62 28.92 L 96.13 28.93" stroke="rgba(255,255,255,0.92)" stroke-width="1.0" fill="none"/>
  <path d="M 94.89 28.95 L 91.19 29.01" stroke="rgba(255,255,255,0.92)" stroke-width="1.0" fill="none"/>
  <path d="M 16.56 30.15 L 16.53 30.16" stroke="rgba(255,255,255,0.92)" stroke-width="1.0" fill="none"/>
  <path d="M 94.89 31.14 L 94.87 31.13 L 94.85 31.13 L 94.83 31.12 L 94.81 31.12 L 94.79 31.11 L 94.77 31.10 L 94.75 31.10 L 94.73 31.09 L 94.71 31.08 L 94.69 31.07 L 94.67 31.07 L 94.65 31.06 L 94.64 31.05 L 94.62 31.05 L 94.60 31.04 L 94.58 31.03 L 94.56 31.02 L 94.54 31.02 L 94.52 31.01 L 94.51 31.00 L 94.49 31.00 L 94.47 30.99 L 94.45 30.98 L 94.44 30.97 L 94.42 30.96 L 94.40 30.96 L 94.39 30.95 L 94.37 30.94 L 94.35 30.93 L 94.34 30.92 L 94.32 30.92 L 94.30 30.91 L 94.29 30.90 L 94.27 30.89 L 94.26 30.88 L 94.24 30.87 L 94.23 30.87 L 94.21 30.86 L 94.20 30.85 L 94.18 30.84 L 94.17 30.83 L 94.15 30.82 L 94.14 30.81 L 94.13 30.81 L 94.11 30.80 L 94.10 30.79 L 94.09 30.78 L 94.07 30.77" stroke="rgba(255,255,255,0.92)" stroke-width="1.0" fill="none"/>
  <path d="M 94.07 29.54 L 94.09 29.53 L 94.10 29.52 L 94.11 29.51 L 94.13 29.50 L 94.14 29.49 L 94.15 29.48 L 94.17 29.48 L 94.18 29.47 L 94.20 29.46 L 94.21 29.45 L 94.23 29.44 L 94.24 29.43 L 94.26 29.42 L 94.27 29.42 L 94.29 29.41 L 94.30 29.40 L 94.32 29.39 L 94.34 29.38 L 94.35 29.38 L 94.37 29.37 L 94.39 29.36 L 94.40 29.35 L 94.42 29.34 L 94.44 29.34 L 94.45 29.33 L 94.47 29.32 L 94.49 29.31 L 94.51 29.31 L 94.52 29.30 L 94.54 29.29 L 94.56 29.28 L 94.58 29.28 L 94.60 29.27 L 94.62 29.26 L 94.64 29.25 L 94.65 29.25 L 94.67 29.24 L 94.69 29.23 L 94.71 29.23 L 94.73 29.22 L 94.75 29.21 L 94.77 29.21 L 94.79 29.20 L 94.81 29.19 L 94.83 29.19 L 94.85 29.18 L 94.87 29.17 L 94.89 29.17" stroke="rgba(255,255,255,0.92)" stroke-width="1.0" fill="none"/>
  <path d="M 96.13 28.95 L 96.35 28.93 L 96.58 28.92 L 96.81 28.92 L 97.03 28.93 L 97.26 28.94 L 97.48 28.96 L 97.70 28.98 L 97.91 29.01 L 98.12 29.05 L 98.32 29.09 L 98.51 29.14 L 98.69 29.20 L 98.86 29.26 L 99.02 29.32 L 99.17 29.39 L 99.30 29.47 L 99.42 29.54 L 99.53 29.63 L 99.62 29.71 L 99.69 29.79 L 99.75 29.88 L 99.79 29.97 L 99.82 30.06 L 99.83 30.15 L 99.82 30.24 L 99.79 30.34 L 99.75 30.42 L 99.69 30.51 L 99.62 30.60 L 99.53 30.68 L 99.42 30.76 L 99.30 30.84 L 99.17 30.91 L 99.02 30.98 L 98.86 31.05 L 98.69 31.11 L 98.51 31.16 L 98.32 31.21 L 98.12 31.26 L 97.91 31.29 L 97.70 31.33 L 97.48 31.35 L 97.26 31.37 L 97.03 31.38 L 96.81 31.39 L 96.58 31.39 L 96.35 31.38 L 96.13 31.36" stroke="rgba(255,255,255,0.92)" stroke-width="1.0" fill="none"/>
  <path d="M 6.72 28.92 L 6.72 30.15" stroke="rgba(255,255,255,0.92)" stroke-width="1.0" fill="none"/>
  <path d="M 7.09 28.92 L 7.09 29.78" stroke="rgba(255,255,255,0.92)" stroke-width="1.0" fill="none"/>
  <path d="M 25.84 28.92 L 25.84 30.15" stroke="rgba(255,255,255,0.92)" stroke-width="1.0" fill="none"/>
  <path d="M 25.47 28.92 L 25.47 29.78" stroke="rgba(255,255,255,0.92)" stroke-width="1.0" fill="none"/>
  <path d="M 29.60 25.68 L 28.36 25.68" stroke="rgba(255,255,255,0.92)" stroke-width="1.0" fill="none"/>
  <path d="M 86.32 25.68 L 87.55 25.68" stroke="rgba(255,255,255,0.92)" stroke-width="1.0" fill="none"/>
  <path d="M 61.04 67.60 L 61.04 53.42" stroke="rgba(255,255,255,0.92)" stroke-width="1.0" fill="none"/>
  <path d="M 86.32 72.54 L 86.32 60.20" stroke="rgba(255,255,255,0.92)" stroke-width="1.0" fill="none"/>
  <path d="M 92.49 72.54 L 92.49 60.20" stroke="rgba(255,255,255,0.92)" stroke-width="1.0" fill="none"/>
  <path d="M 54.88 67.60 L 54.88 53.42" stroke="rgba(255,255,255,0.92)" stroke-width="1.0" fill="none"/>
  <path d="M 54.88 29.15 A 15.83 15.83 0 0 1 61.04 29.15" stroke="rgba(255,255,255,0.92)" stroke-width="1.0" fill="none"/>
  <path d="M 54.88 36.55 A 15.83 15.83 0 0 1 61.04 36.55" stroke="rgba(255,255,255,0.92)" stroke-width="1.0" fill="none"/>
  <path d="M 54.88 35.99 A 15.83 15.83 0 0 1 61.04 35.99" stroke="rgba(255,255,255,0.92)" stroke-width="1.0" fill="none"/>
  <path d="M 54.88 29.72 A 15.83 15.83 0 0 1 61.04 29.72" stroke="rgba(255,255,255,0.92)" stroke-width="1.0" fill="none"/>
  <path d="M 61.04 65.14 L 86.32 65.14" stroke="rgba(255,255,255,0.92)" stroke-width="1.0" fill="none"/>
  <path d="M 61.04 62.67 L 86.32 62.67" stroke="rgba(255,255,255,0.92)" stroke-width="1.0" fill="none"/>
  <path d="M 12.33 75.00 L 86.32 67.60" stroke="rgba(255,255,255,0.92)" stroke-width="1.0" fill="none"/>
  <path d="M 12.33 77.47 L 86.32 70.07" stroke="rgba(255,255,255,0.92)" stroke-width="1.0" fill="none"/>
  <path d="M 86.32 41.49 A 15.83 15.83 0 0 1 92.49 41.49" stroke="rgba(255,255,255,0.92)" stroke-width="1.0" fill="none"/>
  <path d="M 86.32 35.32 A 15.83 15.83 0 0 1 92.49 35.32" stroke="rgba(255,255,255,0.92)" stroke-width="1.0" fill="none"/>
  <path d="M 86.32 36.08 A 15.83 15.83 0 0 1 92.49 36.08" stroke="rgba(255,255,255,0.92)" stroke-width="1.0" fill="none"/>
  <path d="M 28.36 29.07 L 28.36 25.37" stroke="rgba(255,255,255,0.92)" stroke-width="1.0" fill="none"/>
  <path d="M 27.13 29.07 L 27.13 25.37" stroke="rgba(255,255,255,0.92)" stroke-width="1.0" fill="none"/>
  <path d="M 25.90 28.14 L 25.90 26.29" stroke="rgba(255,255,255,0.92)" stroke-width="1.0" fill="none"/>
  <path d="M 27.13 26.29 L 25.90 26.29" stroke="rgba(255,255,255,0.92)" stroke-width="1.0" fill="none"/>
  <path d="M 28.36 26.29 L 28.37 26.29" stroke="rgba(255,255,255,0.92)" stroke-width="1.0" fill="none"/>
  <path d="M 29.60 26.29 L 32.06 26.29" stroke="rgba(255,255,255,0.92)" stroke-width="1.0" fill="none"/>
  <path d="M 28.36 25.37 L 27.13 25.37" stroke="rgba(255,255,255,0.92)" stroke-width="1.0" fill="none"/>
  <path d="M 27.13 29.07 L 28.36 29.07" stroke="rgba(255,255,255,0.92)" stroke-width="1.0" fill="none"/>
  <path d="M 27.13 28.14 L 25.90 28.14" stroke="rgba(255,255,255,0.92)" stroke-width="1.0" fill="none"/>
  <path d="M 29.70 28.14 L 32.13 28.14" stroke="rgba(255,255,255,0.92)" stroke-width="1.0" fill="none"/>
  <path d="M 87.55 29.07 L 87.55 25.37" stroke="rgba(255,255,255,0.92)" stroke-width="1.0" fill="none"/>
  <path d="M 88.79 29.07 L 88.79 25.37" stroke="rgba(255,255,255,0.92)" stroke-width="1.0" fill="none"/>
  <path d="M 90.02 28.14 L 90.02 26.29" stroke="rgba(255,255,255,0.92)" stroke-width="1.0" fill="none"/>
  <path d="M 88.79 26.29 L 90.02 26.29" stroke="rgba(255,255,255,0.92)" stroke-width="1.0" fill="none"/>
  <path d="M 87.55 26.29 L 87.55 26.29" stroke="rgba(255,255,255,0.92)" stroke-width="1.0" fill="none"/>
  <path d="M 86.31 26.29 L 83.86 26.29" stroke="rgba(255,255,255,0.92)" stroke-width="1.0" fill="none"/>
  <path d="M 87.55 25.37 L 88.79 25.37" stroke="rgba(255,255,255,0.92)" stroke-width="1.0" fill="none"/>
  <path d="M 88.79 29.07 L 87.55 29.07" stroke="rgba(255,255,255,0.92)" stroke-width="1.0" fill="none"/>
  <path d="M 88.79 28.14 L 90.02 28.14" stroke="rgba(255,255,255,0.92)" stroke-width="1.0" fill="none"/>
  <path d="M 86.21 28.14 L 83.79 28.14" stroke="rgba(255,255,255,0.92)" stroke-width="1.0" fill="none"/>
  <path d="M 6.17 83.41 L 6.17 68.62" stroke="rgba(255,255,255,0.92)" stroke-width="1.0" fill="none"/>
  <path d="M 12.33 83.41 L 12.33 68.62" stroke="rgba(255,255,255,0.92)" stroke-width="1.0" fill="none"/>
  <path d="M 6.17 52.36 A 15.83 15.83 0 0 1 12.33 52.36" stroke="rgba(255,255,255,0.92)" stroke-width="1.0" fill="none"/>
  <path d="M 6.17 44.96 A 15.83 15.83 0 0 1 12.33 44.96" stroke="rgba(255,255,255,0.92)" stroke-width="1.0" fill="none"/>
  <path d="M 6.17 45.72 A 15.83 15.83 0 0 1 12.33 45.72" stroke="rgba(255,255,255,0.92)" stroke-width="1.0" fill="none"/>
  <path d="M 6.17 68.62 L 6.19 68.57 L 6.27 68.52 L 6.40 68.47 L 6.58 68.43 L 6.80 68.39 L 7.07 68.35 L 7.37 68.32 L 7.71 68.29 L 8.07 68.27 L 8.45 68.25 L 8.85 68.24 L 9.25 68.24 L 9.65 68.24 L 10.05 68.25 L 10.43 68.27 L 10.79 68.29 L 11.13 68.32 L 11.43 68.35 L 11.69 68.39 L 11.92 68.43 L 12.10 68.47 L 12.23 68.52 L 12.31 68.57 L 12.33 68.62 L 12.31 68.66 L 12.23 68.71 L 12.10 68.76 L 11.92 68.80 L 11.69 68.84 L 11.43 68.88 L 11.13 68.91 L 10.79 68.94 L 10.43 68.96 L 10.05 68.98 L 9.65 68.99 L 9.25 68.99 L 8.85 68.99 L 8.45 68.98 L 8.07 68.96 L 7.71 68.94 L 7.37 68.91 L 7.07 68.88 L 6.80 68.84 L 6.58 68.80 L 6.40 68.76 L 6.27 68.71 L 6.19 68.66 L 6.17 68.62" stroke="rgba(255,255,255,0.92)" stroke-width="1.0" fill="none"/>
  <circle cx="9.25" cy="65.88" r="1.21" stroke="rgba(255,255,255,0.92)" stroke-width="1.0" fill="none"/>
  <circle cx="9.25" cy="86.15" r="1.21" stroke="rgba(255,255,255,0.92)" stroke-width="1.0" fill="none"/>
  <path d="M 86.32 60.20 L 86.35 60.14 L 86.43 60.08 L 86.56 60.02 L 86.73 59.96 L 86.96 59.91 L 87.22 59.86 L 87.53 59.81 L 87.86 59.78 L 88.22 59.75 L 88.61 59.73 L 89.00 59.72 L 89.40 59.71 L 89.81 59.72 L 90.20 59.73 L 90.58 59.75 L 90.95 59.78 L 91.28 59.81 L 91.58 59.86 L 91.85 59.91 L 92.07 59.96 L 92.25 60.02 L 92.38 60.08 L 92.46 60.14 L 92.49 60.20 L 92.46 60.27 L 92.38 60.33 L 92.25 60.39 L 92.07 60.45 L 91.85 60.50 L 91.58 60.55 L 91.28 60.59 L 90.95 60.63 L 90.58 60.66 L 90.20 60.68 L 89.81 60.69 L 89.40 60.69 L 89.00 60.69 L 88.61 60.68 L 88.22 60.66 L 87.86 60.63 L 87.53 60.59 L 87.22 60.55 L 86.96 60.50 L 86.73 60.45 L 86.56 60.39 L 86.43 60.33 L 86.35 60.27 L 86.32 60.20" stroke="rgba(255,255,255,0.92)" stroke-width="1.0" fill="none"/>
  <path d="M 57.96 49.72 L 83.86 49.72 L 83.86 1.98 L 57.96 1.98 L 32.06 1.98 L 32.06 49.72 Z" stroke="rgba(255,255,255,0.92)" stroke-width="1.0" fill="none"/>
  <path d="M 57.96 48.49 L 82.62 48.49 L 82.62 3.21 L 57.96 3.21 L 33.30 3.21 L 33.30 48.49 Z" stroke="rgba(255,255,255,0.92)" stroke-width="1.0" fill="none"/>
  <path d="M 57.96 46.02 L 80.16 46.02 L 80.16 5.68 L 57.96 5.68 L 35.76 5.68 L 35.76 46.02 Z" stroke="rgba(255,255,255,0.92)" stroke-width="1.0" fill="none"/>
  <path d="M 28.37 25.68 L 28.38 55.27 L 54.88 55.27" stroke="rgba(255,255,255,0.92)" stroke-width="1.0" fill="none"/>
  <path d="M 61.04 55.27 L 87.56 55.26 L 87.55 26.29" stroke="rgba(255,255,255,0.92)" stroke-width="1.0" fill="none"/>
  <path d="M 29.60 25.67 L 29.61 54.04 L 54.88 54.03" stroke="rgba(255,255,255,0.92)" stroke-width="1.0" fill="none"/>
  <path d="M 61.04 54.03 L 86.32 54.03 L 86.32 25.68" stroke="rgba(255,255,255,0.92)" stroke-width="1.0" fill="none"/>
  <path d="M 54.88 53.42 L 61.04 53.42" stroke="rgba(255,255,255,0.92)" stroke-width="1.0" fill="none"/>
  <path d="M 35.76 21.17 L 48.68 13.44" stroke="rgba(255,255,255,0.92)" stroke-width="1.0" fill="none"/>
  <path d="M 80.16 15.55 L 49.15 34.77" stroke="rgba(255,255,255,0.92)" stroke-width="1.0" fill="none"/>
  <path d="M 80.16 12.65 L 58.54 26.05" stroke="rgba(255,255,255,0.92)" stroke-width="1.0" fill="none"/>
  <path d="M 51.35 46.02 L 68.27 35.34" stroke="rgba(255,255,255,0.92)" stroke-width="1.0" fill="none"/>
  <path d="M 64.18 42.13 L 73.75 35.72" stroke="rgba(255,255,255,0.92)" stroke-width="1.0" fill="none"/>
  <path d="M 0.00 62.45 L 0.00 89.58 L 18.50 89.58 L 18.50 62.45 Z" stroke="rgba(255,255,255,0.92)" stroke-width="1.0" fill="none"/>
  <path d="M 0.62 63.07 L 0.62 88.96 L 17.88 88.96 L 17.88 63.07 Z" stroke="rgba(255,255,255,0.92)" stroke-width="1.0" fill="none"/>
  <path d="M 55.14 7.41 L 57.60 7.41" stroke="rgba(255,255,255,0.92)" stroke-width="1.0" fill="none"/>
  <path d="M 55.75 62.90 L 56.99 62.90" stroke="rgba(255,255,255,0.92)" stroke-width="1.0" fill="none"/>
  <path d="M 53.29 80.17 L 53.29 62.49" stroke="rgba(255,255,255,0.92)" stroke-width="1.0" fill="none"/>
  <path d="M 59.45 80.17 L 59.45 62.49" stroke="rgba(255,255,255,0.92)" stroke-width="1.0" fill="none"/>
  <path d="M 53.29 49.12 A 15.83 15.83 0 0 1 59.45 49.12" stroke="rgba(255,255,255,0.92)" stroke-width="1.0" fill="none"/>
  <path d="M 53.29 42.95 A 15.83 15.83 0 0 1 59.45 42.95" stroke="rgba(255,255,255,0.92)" stroke-width="1.0" fill="none"/>
  <path d="M 53.29 43.71 A 15.83 15.83 0 0 1 59.45 43.71" stroke="rgba(255,255,255,0.92)" stroke-width="1.0" fill="none"/>
  <path d="M 53.29 67.84 L 53.31 67.77 L 53.39 67.71 L 53.52 67.65 L 53.70 67.59 L 53.92 67.54 L 54.19 67.49 L 54.49 67.45 L 54.83 67.41 L 55.19 67.38 L 55.57 67.36 L 55.97 67.35 L 56.37 67.34 L 56.77 67.35 L 57.17 67.36 L 57.55 67.38 L 57.91 67.41 L 58.25 67.45 L 58.55 67.49 L 58.81 67.54 L 59.04 67.59 L 59.22 67.65 L 59.35 67.71 L 59.43 67.77 L 59.45 67.84 L 59.43 67.90 L 59.35 67.96 L 59.22 68.02 L 59.04 68.08 L 58.81 68.13 L 58.55 68.18 L 58.25 68.22 L 57.91 68.26 L 57.55 68.29 L 57.17 68.31 L 56.77 68.32 L 56.37 68.33 L 55.97 68.32 L 55.57 68.31 L 55.19 68.29 L 54.83 68.26 L 54.49 68.22 L 54.19 68.18 L 53.92 68.13 L 53.70 68.08 L 53.52 68.02 L 53.39 67.96 L 53.31 67.90 L 53.29 67.84" stroke="rgba(255,255,255,0.92)" stroke-width="1.0" fill="none"/>
  <path d="M 57.60 7.41 L 57.60 62.90" stroke="rgba(255,255,255,0.92)" stroke-width="1.0" fill="none"/>
  <path d="M 55.14 7.41 L 55.14 62.90" stroke="rgba(255,255,255,0.92)" stroke-width="1.0" fill="none"/>
  <path d="M 55.14 62.90 L 57.60 62.90" stroke="rgba(255,255,255,0.92)" stroke-width="1.0" fill="none"/>
  <path d="M 55.14 34.13 L 55.43 34.13" stroke="rgba(255,255,255,0.92)" stroke-width="1.0" fill="none"/>
  <path d="M 57.31 34.14 L 57.60 34.14" stroke="rgba(255,255,255,0.92)" stroke-width="1.0" fill="none"/>
  <path d="M 56.37 80.47 L 56.37 98.02" stroke="rgba(255,255,255,0.92)" stroke-width="1.0" fill="none"/>
  <path d="M 57.60 80.47 L 57.60 98.02" stroke="rgba(255,255,255,0.92)" stroke-width="1.0" fill="none"/>
  <path d="M 56.37 85.66 L 56.37 85.63" stroke="rgba(255,255,255,0.92)" stroke-width="1.0" fill="none"/>
  <path d="M 50.20 91.05 L 50.20 76.25" stroke="rgba(255,255,255,0.92)" stroke-width="1.0" fill="none"/>
  <path d="M 56.37 91.05 L 56.37 80.47" stroke="rgba(255,255,255,0.92)" stroke-width="1.0" fill="none"/>
  <path d="M 53.29 76.62 L 53.49 76.62 L 53.69 76.62 L 53.89 76.62 L 54.08 76.61 L 54.28 76.60 L 54.47 76.60 L 54.65 76.59 L 54.83 76.57 L 55.00 76.56 L 55.16 76.55 L 55.32 76.53 L 55.47 76.51 L 55.60 76.50 L 55.73 76.48 L 55.85 76.46 L 55.96 76.44 L 56.05 76.41 L 56.13 76.39 L 56.21 76.37 L 56.26 76.34 L 56.31 76.32 L 56.34 76.30 L 56.36 76.27 L 56.37 76.25 L 56.36 76.22 L 56.34 76.20 L 56.31 76.17 L 56.26 76.15 L 56.21 76.13 L 56.13 76.10 L 56.05 76.08 L 55.96 76.06 L 55.85 76.04 L 55.73 76.02 L 55.60 76.00 L 55.47 75.98 L 55.32 75.96 L 55.16 75.95 L 55.00 75.93 L 54.83 75.92 L 54.65 75.91 L 54.47 75.90 L 54.28 75.89 L 54.08 75.88 L 53.89 75.88 L 53.69 75.87 L 53.49 75.87 L 53.29 75.87" stroke="rgba(255,255,255,0.92)" stroke-width="1.0" fill="none"/>
  <path d="M 50.20 60.00 A 15.83 15.83 0 0 1 56.37 60.00" stroke="rgba(255,255,255,0.92)" stroke-width="1.0" fill="none"/>
  <path d="M 50.20 52.60 A 15.83 15.83 0 0 1 53.90 52.31" stroke="rgba(255,255,255,0.92)" stroke-width="1.0" fill="none"/>
  <path d="M 50.20 53.35 A 15.83 15.83 0 0 1 53.90 53.06" stroke="rgba(255,255,255,0.92)" stroke-width="1.0" fill="none"/>
  <path d="M 53.90 80.28 L 53.90 84.70" stroke="rgba(255,255,255,0.92)" stroke-width="1.0" fill="none"/>
  <path d="M 53.90 84.70 A 1.23 1.23 0 0 1 56.37 84.70" stroke="rgba(255,255,255,0.92)" stroke-width="1.0" fill="none"/>
  <path d="M 56.37 98.02 L 57.60 98.02" stroke="rgba(255,255,255,0.92)" stroke-width="1.0" fill="none"/>
  <path d="M 53.29 62.49 L 55.14 62.49" stroke="rgba(255,255,255,0.92)" stroke-width="1.0" fill="none"/>
  <path d="M 57.60 62.49 L 59.45 62.49" stroke="rgba(255,255,255,0.92)" stroke-width="1.0" fill="none"/>
  <path d="M 55.14 61.86 L 57.60 61.86" stroke="rgba(255,255,255,0.92)" stroke-width="1.0" fill="none"/>
  <path d="M 55.14 8.62 L 57.60 8.62" stroke="rgba(255,255,255,0.92)" stroke-width="1.0" fill="none"/>
  <circle cx="56.37" cy="34.85" r="1.18" stroke="rgba(255,255,255,0.92)" stroke-width="1.0" fill="none"/>
  <circle cx="56.39" cy="34.85" r="0.74" stroke="rgba(255,255,255,0.92)" stroke-width="1.0" fill="none"/>
  <path d="M 55.14 35.56 L 55.43 35.56" stroke="rgba(255,255,255,0.92)" stroke-width="1.0" fill="none"/>
  <path d="M 57.31 35.56 L 57.60 35.56" stroke="rgba(255,255,255,0.92)" stroke-width="1.0" fill="none"/>
</svg>
