<svg xmlns="http://www.w3.org/2000/svg" viewBox="0 0 100.00 69.98" data-cad-width="3520.0" data-cad-height="2463.3">
  <circle cx="34.18" cy="34.99" r="19.18" stroke="rgba(255,255,255,0.92)" stroke-width="1.0" fill="none"/>
  <circle cx="34.18" cy="34.99" r="18.61" stroke="rgba(255,255,255,0.92)" stroke-width="1.0" fill="none"/>
  <circle cx="34.18" cy="34.99" r="3.98" stroke="rgba(255,255,255,0.92)" stroke-width="1.0" fill="none"/>
  <circle cx="34.18" cy="34.99" r="2.52" stroke="rgba(255,255,255,0.92)" stroke-width="1.0" fill="none"/>
  <path d="M 34.18 34.99 L 36.94 33.39 L 40.39 32.99" stroke="rgba(255,255,255,0.92)" stroke-width="1.0" fill="none"/>
  <path d="M 40.31 33.02 L 40.23 33.06" stroke="rgba(255,255,255,0.92)" stroke-width="1.0" fill="none"/>
  <path d="M 34.57 35.10 L 37.33 35.43 L 39.75 36.75" stroke="rgba(255,255,255,0.92)" stroke-width="1.0" fill="none"/>
  <path d="M 37.85 35.71 L 39.05 35.25" stroke="rgba(255,255,255,0.92)" stroke-width="1.0" fill="none"/>
  <path d="M 34.73 34.91 L 37.62 34.54 L 41.49 35.11" stroke="rgba(255,255,255,0.92)" stroke-width="1.0" fill="none"/>
  <path d="M 39.93 35.71 L 40.17 35.90" stroke="rgba(255,255,255,0.92)" stroke-width="1.0" fill="none"/>
  <path d="M 39.79 34.14 L 40.01 33.83" stroke="rgba(255,255,255,0.92)" stroke-width="1.0" fill="none"/>
  <path d="M 38.31 32.56 L 38.50 32.67" stroke="rgba(255,255,255,0.92)" stroke-width="1.0" fill="none"/>
  <path d="M 40.73 34.28 L 41.12 34.09" stroke="rgba(255,255,255,0.92)" stroke-width="1.0" fill="none"/>
  <path d="M 39.91 32.61 L 39.91 32.72" stroke="rgba(255,255,255,0.92)" stroke-width="1.0" fill="none"/>
  <path d="M 37.06 35.97 L 37.06 36.22" stroke="rgba(255,255,255,0.92)" stroke-width="1.0" fill="none"/>
</svg>
