<svg xmlns="http://www.w3.org/2000/svg" viewBox="0 0 98.94 100.00" data-cad-width="2343.3" data-cad-height="2368.5">
  <path d="M 61.02 68.49 L 61.02 38.13" stroke="rgba(255,255,255,0.92)" stroke-width="1.0" fill="none"/>
  <path d="M 28.32 68.67 L 27.28 68.67 L 26.64 58.71 L 26.64 52.26 L 28.32 52.26 Z" stroke="rgba(255,255,255,0.92)" stroke-width="1.0" fill="none"/>
  <path d="M 24.67 38.13 L 73.86 38.13" stroke="rgba(255,255,255,0.92)" stroke-width="1.0" fill="none"/>
  <path d="M 24.67 36.65 L 73.86 36.65" stroke="rgba(255,255,255,0.92)" stroke-width="1.0" fill="none"/>
  <path d="M 24.67 38.13 A 0.74 0.74 0 0 1 24.67 36.65" stroke="rgba(255,255,255,0.92)" stroke-width="1.0" fill="none"/>
  <path d="M 49.14 67.05 L 50.55 67.05" stroke="rgba(255,255,255,0.92)" stroke-width="1.0" fill="none"/>
  <path d="M 61.02 68.49 L 50.55 67.61" stroke="rgba(255,255,255,0.92)" stroke-width="1.0" fill="none"/>
  <path d="M 61.02 68.74 L 61.02 68.49" stroke="rgba(255,255,255,0.92)" stroke-width="1.0" fill="none"/>
  <path d="M 49.14 67.61 L 50.55 67.61" stroke="rgba(255,255,255,0.92)" stroke-width="1.0" fill="none"/>
  <path d="M 49.14 67.05 L 49.14 67.61" stroke="rgba(255,255,255,0.92)" stroke-width="1.0" fill="none"/>
  <path d="M 50.55 67.05 L 50.55 67.61" stroke="rgba(255,255,255,0.92)" stroke-width="1.0" fill="none"/>
  <path d="M 49.14 67.05 L 50.55 67.05" stroke="rgba(255,255,255,0.92)" stroke-width="1.0" fill="none"/>
  <path d="M 61.02 68.49 L 50.55 67.61" stroke="rgba(255,255,255,0.92)" stroke-width="1.0" fill="none"/>
  <path d="M 61.02 68.74 L 61.02 68.49" stroke="rgba(255,255,255,0.92)" stroke-width="1.0" fill="none"/>
  <path d="M 49.14 67.61 L 50.55 67.61" stroke="rgba(255,255,255,0.92)" stroke-width="1.0" fill="none"/>
  <path d="M 49.14 67.05 L 49.14 67.61" stroke="rgba(255,255,255,0.92)" stroke-width="1.0" fill="none"/>
  <path d="M 50.55 67.05 L 50.55 67.61" stroke="rgba(255,255,255,0.92)" stroke-width="1.0" fill="none"/>
  <path d="M 38.67 68.74 L 38.67 68.49" stroke="rgba(255,255,255,0.92)" stroke-width="1.0" fill="none"/>
  <path d="M 41.07 68.29 L 49.14 67.61" stroke="rgba(255,255,255,0.92)" stroke-width="1.0" fill="none"/>
  <path d="M 41.07 68.74 L 61.02 68.74" stroke="rgba(255,255,255,0.92)" stroke-width="1.0" fill="none"/>
  <path d="M 38.67 68.49 L 49.14 67.61" stroke="rgba(255,255,255,0.92)" stroke-width="1.0" fill="none"/>
  <path d="M 38.67 68.74 L 61.02 68.74" stroke="rgba(255,255,255,0.92)" stroke-width="1.0" fill="none"/>
  <path d="M 50.48 38.72 L 50.48 67.05" stroke="rgba(255,255,255,0.92)" stroke-width="1.0" fill="none"/>
  <path d="M 49.21 38.72 L 49.21 67.05" stroke="rgba(255,255,255,0.92)" stroke-width="1.0" fill="none"/>
  <path d="M 50.48 38.72 L 50.48 67.05" stroke="rgba(255,255,255,0.92)" stroke-width="1.0" fill="none"/>
  <path d="M 49.21 38.72 L 49.21 67.05" stroke="rgba(255,255,255,0.92)" stroke-width="1.0" fill="none"/>
  <path d="M 73.86 36.65 A 0.74 0.74 0 0 1 73.86 38.13" stroke="rgba(255,255,255,0.92)" stroke-width="1.0" fill="none"/>
  <path d="M 51.15 38.72 L 51.15 38.59" stroke="rgba(255,255,255,0.92)" stroke-width="1.0" fill="none"/>
  <path d="M 55.92 38.13 L 55.92 38.59" stroke="rgba(255,255,255,0.92)" stroke-width="1.0" fill="none"/>
  <path d="M 48.54 38.72 L 48.54 38.59" stroke="rgba(255,255,255,0.92)" stroke-width="1.0" fill="none"/>
  <path d="M 48.54 38.72 L 51.15 38.72" stroke="rgba(255,255,255,0.92)" stroke-width="1.0" fill="none"/>
  <path d="M 43.77 38.59 L 55.92 38.59" stroke="rgba(255,255,255,0.92)" stroke-width="1.0" fill="none"/>
  <path d="M 73.86 36.65 A 0.74 0.74 0 0 1 73.86 38.13" stroke="rgba(255,255,255,0.92)" stroke-width="1.0" fill="none"/>
  <path d="M 51.15 38.72 L 51.15 38.59" stroke="rgba(255,255,255,0.92)" stroke-width="1.0" fill="none"/>
  <path d="M 55.92 38.13 L 55.92 38.59" stroke="rgba(255,255,255,0.92)" stroke-width="1.0" fill="none"/>
  <path d="M 48.54 38.72 L 48.54 38.59" stroke="rgba(255,255,255,0.92)" stroke-width="1.0" fill="none"/>
  <path d="M 48.54 38.72 L 51.15 38.72" stroke="rgba(255,255,255,0.92)" stroke-width="1.0" fill="none"/>
  <path d="M 43.77 38.59 L 55.92 38.59" stroke="rgba(255,255,255,0.92)" stroke-width="1.0" fill="none"/>
  <path d="M 41.07 38.13 L 73.86 38.13" stroke="rgba(255,255,255,0.92)" stroke-width="1.0" fill="none"/>
  <path d="M 41.07 36.65 L 73.86 36.65" stroke="rgba(255,255,255,0.92)" stroke-width="1.0" fill="none"/>
  <path d="M 43.77 38.13 L 43.77 38.59" stroke="rgba(255,255,255,0.92)" stroke-width="1.0" fill="none"/>
  <path d="M 43.77 38.13 L 43.77 38.59" stroke="rgba(255,255,255,0.92)" stroke-width="1.0" fill="none"/>
  <path d="M 38.67 68.62 L 38.67 38.13" stroke="rgba(255,255,255,0.92)" stroke-width="1.0" fill="none"/>
  <path d="M 92.58 68.67 L 93.20 68.67" stroke="rgba(255,255,255,0.92)" stroke-width="1.0" fill="none"/>
  <path d="M 93.54 25.91 L 93.12 27.00 L 92.79 27.99 L 92.52 28.89 L 92.31 29.71 L 92.15 30.46 L 92.02 31.14 L 91.93 31.76 L 91.85 32.33 L 91.78 32.85 L 91.71 33.35 L 91.65 33.82 L 91.60 34.29 L 91.55 34.75 L 91.51 35.22 L 91.47 35.71 L 91.43 36.23 L 91.39 36.79 L 91.36 37.38 L 91.32 37.99 L 91.29 38.63 L 91.26 39.29 L 91.24 39.95 L 91.21 40.61 L 91.18 41.26 L 91.16 41.91 L 91.13 42.55 L 91.11 43.18 L 91.10 43.81 L 91.09 44.45 L 91.08 45.09 L 91.09 45.74 L 91.10 46.41 L 91.12 47.09 L 91.15 47.79 L 91.19 48.49 L 91.23 49.19 L 91.28 49.88 L 91.32 50.55 L 91.36 51.20 L 91.40 51.83 L 91.43 52.42 L 91.46 53.00 L 91.49 53.60 L 91.52 54.23 L 91.56 54.93 L 91.62 55.71 L 91.69 56.61 L 91.78 57.64 L 91.89 58.82 L 92.02 60.13 L 92.17 61.52 L 92.34 62.98 L 92.53 64.46 L 92.74 65.92 L 92.96 67.34 L 93.20 68.67 L 93.54 25.91 L 92.31 28.96 L 91.78 32.78 L 91.40 35.80 L 91.18 41.39 L 90.99 46.22 L 91.46 52.20 L 91.54 55.93 L 92.54 65.25 L 93.20 68.67" stroke="rgba(255,255,255,0.92)" stroke-width="1.0" fill="none"/>
  <path d="M 91.16 29.06 L 90.47 31.43 L 89.96 34.47 L 89.63 38.21 L 89.52 42.70 L 89.64 47.96 L 90.04 54.02 L 90.73 60.91 L 91.75 68.67 L 91.16 29.06 L 89.15 34.50 L 88.59 46.79 L 91.75 68.67" stroke="rgba(255,255,255,0.92)" stroke-width="1.0" fill="none"/>
  <path d="M 91.75 68.67 L 93.20 68.67" stroke="rgba(255,255,255,0.92)" stroke-width="1.0" fill="none"/>
  <path d="M 73.06 54.37 L 90.08 54.37" stroke="rgba(255,255,255,0.92)" stroke-width="1.0" fill="none"/>
  <path d="M 71.22 52.20 L 71.14 52.24 L 71.07 52.21 L 71.03 52.13 L 71.01 52.02 L 71.01 51.87 L 71.01 51.70 L 71.02 51.52 L 71.03 51.35 L 71.04 51.19 L 71.04 51.04 L 71.05 50.91 L 71.05 50.79 L 71.05 50.67 L 71.05 50.57 L 71.06 50.48 L 71.06 50.40 L 71.07 50.32 L 71.08 50.26 L 71.09 50.20 L 71.11 50.14 L 71.12 50.08 L 71.13 50.03 L 71.14 49.98 L 71.14 49.93 L 71.15 49.87 L 71.15 49.82 L 71.16 49.76 L 71.18 49.70 L 71.21 49.64 L 71.25 49.58 L 71.31 49.52 L 71.39 49.45 L 71.50 49.39 L 71.62 49.33 L 71.78 49.26 L 71.95 49.20 L 72.16 49.14 L 72.38 49.07 L 72.63 49.01 L 72.90 48.95 L 73.20 48.88 L 73.51 48.82 L 73.84 48.75 L 74.17 48.69 L 74.50 48.63 L 74.83 48.58 L 75.15 48.53 L 75.45 48.48 L 75.72 48.43 L 75.98 48.39 L 76.23 48.35 L 76.47 48.32 L 76.70 48.29 L 76.92 48.27 L 77.15 48.24 L 77.39 48.22 L 77.64 48.20 L 77.89 48.19 L 78.15 48.17 L 78.42 48.16 L 78.68 48.15 L 78.94 48.14 L 79.20 48.14 L 79.45 48.14 L 79.68 48.14 L 79.92 48.14 L 80.14 48.15 L 80.36 48.15 L 80.57 48.17 L 80.79 48.18 L 81.00 48.20 L 81.21 48.22 L 81.43 48.24 L 81.65 48.27 L 81.87 48.30 L 82.10 48.33 L 82.33 48.36 L 82.56 48.39 L 82.80 48.42 L 83.05 48.46 L 83.29 48.49 L 83.54 48.52 L 83.80 48.55 L 84.05 48.58 L 84.30 48.62 L 84.54 48.65 L 84.78 48.68 L 85.02 48.72 L 85.24 48.76 L 85.46 48.79 L 85.66 48.83 L 85.86 48.87 L 86.05 48.92 L 86.23 48.96 L 86.40 49.00 L 86.56 49.04 L 86.71 49.08 L 86.86 49.12 L 87.00 49.15 L 87.14 49.19 L 87.28 49.23 L 87.41 49.26 L 87.54 49.30 L 87.67 49.33 L 87.81 49.37 L 87.94 49.40 L 88.07 49.44 L 88.21 49.47 L 88.34 49.51 L 88.47 49.54 L 88.59 49.58 L 88.72 49.62 L 88.83 49.66 L 88.95 49.71 L 89.05 49.75 L 89.16 49.79 L 89.25 49.84 L 89.34 49.88 L 89.42 49.92 L 89.50 49.96 L 89.56 50.00 L 89.62 50.03 L 89.67 50.07 L 89.72 50.11 L 89.76 50.15 L 89.79 50.20 L 89.82 50.26 L 89.84 50.33 L 89.85 50.41 L 89.87 50.50 L 89.87 50.59 L 89.88 50.70 L 89.88 50.81 L 89.88 50.92 L 89.88 51.04 L 89.88 51.17 L 89.88 51.29 L 89.87 51.41 L 89.87 51.53 L 89.86 51.65 L 89.85 51.76 L 89.84 51.85 L 89.82 51.94 L 89.80 52.01 L 89.78 52.07 L 89.73 52.11 L 89.66 52.14 L 89.54 52.16 L 89.35 52.17 L 89.10 52.17 L 88.75 52.17 L 88.30 52.17 L 87.72 52.17 L 86.92 52.16 L 85.78 52.16 L 84.19 52.16 L 82.05 52.16 L 79.25 52.17 L 75.68 52.18 L 71.22 52.20 L 71.22 52.20 L 70.95 52.40 L 71.06 51.20 L 71.04 50.31 L 71.17 49.95 L 71.13 49.46 L 72.65 48.95 L 75.69 48.43 L 77.28 48.20 L 79.55 48.11 L 81.18 48.18 L 82.99 48.46 L 85.12 48.70 L 86.65 49.05 L 87.66 49.34 L 88.76 49.60 L 89.58 49.99 L 89.89 50.21 L 89.89 51.15 L 89.85 52.18 L 89.55 52.18 L 84.37 52.15 L 71.22 52.20" stroke="rgba(255,255,255,0.92)" stroke-width="1.0" fill="none"/>
  <path d="M 71.37 68.67 L 72.41 68.67 L 73.06 58.71 L 73.06 52.26 L 71.37 52.26 Z" stroke="rgba(255,255,255,0.92)" stroke-width="1.0" fill="none"/>
  <path d="M 91.16 29.06 L 91.28 28.79 L 91.39 28.55 L 91.48 28.32 L 91.55 28.11 L 91.62 27.92 L 91.68 27.75 L 91.74 27.59 L 91.79 27.45 L 91.84 27.33 L 91.89 27.22 L 91.94 27.11 L 91.99 27.02 L 92.04 26.94 L 92.09 26.86 L 92.14 26.78 L 92.19 26.71 L 92.24 26.63 L 92.30 26.56 L 92.35 26.49 L 92.41 26.42 L 92.46 26.35 L 92.52 26.29 L 92.57 26.23 L 92.63 26.18 L 92.68 26.14 L 92.73 26.10 L 92.78 26.06 L 92.84 26.03 L 92.89 26.01 L 92.95 25.98 L 93.02 25.97 L 93.09 25.95 L 93.16 25.94 L 93.24 25.93 L 93.32 25.92 L 93.39 25.92 L 93.45 25.91 L 93.50 25.91 L 93.53 25.91 L 93.54 25.91 L 91.16 29.06 L 91.51 28.32 L 91.79 27.30 L 92.18 26.71 L 92.64 26.11 L 93.02 25.92 L 93.54 25.91 L 93.54 25.91" stroke="rgba(255,255,255,0.92)" stroke-width="1.0" fill="none"/>
  <path d="M 7.12 68.67 L 6.49 68.67" stroke="rgba(255,255,255,0.92)" stroke-width="1.0" fill="none"/>
  <path d="M 6.15 25.91 L 6.57 27.00 L 6.90 27.99 L 7.17 28.89 L 7.38 29.71 L 7.54 30.46 L 7.67 31.14 L 7.76 31.76 L 7.84 32.33 L 7.91 32.85 L 7.98 33.35 L 8.04 33.82 L 8.09 34.29 L 8.14 34.75 L 8.18 35.22 L 8.23 35.71 L 8.26 36.23 L 8.30 36.79 L 8.34 37.38 L 8.37 37.99 L 8.40 38.63 L 8.43 39.29 L 8.45 39.95 L 8.48 40.61 L 8.51 41.26 L 8.53 41.91 L 8.56 42.55 L 8.58 43.18 L 8.59 43.81 L 8.60 44.45 L 8.61 45.09 L 8.60 45.74 L 8.59 46.41 L 8.57 47.09 L 8.54 47.79 L 8.50 48.49 L 8.46 49.19 L 8.42 49.88 L 8.37 50.55 L 8.33 51.20 L 8.29 51.83 L 8.26 52.42 L 8.23 53.00 L 8.20 53.60 L 8.17 54.23 L 8.13 54.93 L 8.07 55.71 L 8.00 56.61 L 7.91 57.64 L 7.81 58.82 L 7.67 60.13 L 7.52 61.52 L 7.35 62.98 L 7.16 64.46 L 6.95 65.92 L 6.73 67.34 L 6.49 68.67 L 6.15 25.91 L 7.38 28.96 L 7.92 32.78 L 8.29 35.80 L 8.51 41.39 L 8.70 46.22 L 8.23 52.20 L 8.15 55.93 L 7.15 65.25 L 6.49 68.67" stroke="rgba(255,255,255,0.92)" stroke-width="1.0" fill="none"/>
  <path d="M 8.54 29.06 L 9.22 31.43 L 9.73 34.47 L 10.06 38.21 L 10.18 42.70 L 10.05 47.96 L 9.65 54.02 L 8.96 60.91 L 7.94 68.67 L 8.54 29.06 L 10.55 34.50 L 11.10 46.79 L 7.94 68.67" stroke="rgba(255,255,255,0.92)" stroke-width="1.0" fill="none"/>
  <path d="M 7.94 68.67 L 6.49 68.67" stroke="rgba(255,255,255,0.92)" stroke-width="1.0" fill="none"/>
  <path d="M 26.64 54.37 L 9.61 54.37" stroke="rgba(255,255,255,0.92)" stroke-width="1.0" fill="none"/>
  <path d="M 28.47 52.20 L 28.56 52.24 L 28.62 52.21 L 28.66 52.13 L 28.68 52.02 L 28.68 51.87 L 28.68 51.70 L 28.67 51.52 L 28.66 51.35 L 28.65 51.19 L 28.65 51.04 L 28.64 50.91 L 28.64 50.79 L 28.64 50.67 L 28.64 50.57 L 28.63 50.48 L 28.63 50.40 L 28.62 50.32 L 28.61 50.26 L 28.60 50.20 L 28.59 50.14 L 28.57 50.08 L 28.56 50.03 L 28.55 49.98 L 28.55 49.93 L 28.54 49.87 L 28.54 49.82 L 28.53 49.76 L 28.51 49.70 L 28.48 49.64 L 28.44 49.58 L 28.38 49.52 L 28.30 49.45 L 28.20 49.39 L 28.07 49.33 L 27.91 49.26 L 27.74 49.20 L 27.53 49.14 L 27.31 49.07 L 27.06 49.01 L 26.79 48.95 L 26.49 48.88 L 26.18 48.82 L 25.85 48.75 L 25.52 48.69 L 25.19 48.63 L 24.86 48.58 L 24.54 48.53 L 24.25 48.48 L 23.97 48.43 L 23.71 48.39 L 23.46 48.35 L 23.23 48.32 L 23.00 48.29 L 22.77 48.27 L 22.54 48.24 L 22.30 48.22 L 22.05 48.20 L 21.80 48.19 L 21.54 48.17 L 21.28 48.16 L 21.01 48.15 L 20.75 48.14 L 20.49 48.14 L 20.25 48.14 L 20.01 48.14 L 19.78 48.14 L 19.55 48.15 L 19.33 48.15 L 19.12 48.17 L 18.90 48.18 L 18.69 48.20 L 18.48 48.22 L 18.26 48.24 L 18.04 48.27 L 17.82 48.30 L 17.59 48.33 L 17.36 48.36 L 17.13 48.39 L 16.89 48.42 L 16.64 48.46 L 16.40 48.49 L 16.15 48.52 L 15.89 48.55 L 15.64 48.58 L 15.39 48.62 L 15.15 48.65 L 14.91 48.68 L 14.67 48.72 L 14.45 48.76 L 14.24 48.79 L 14.03 48.83 L 13.83 48.87 L 13.65 48.92 L 13.47 48.96 L 13.29 49.00 L 13.13 49.04 L 12.98 49.08 L 12.83 49.12 L 12.69 49.15 L 12.55 49.19 L 12.41 49.23 L 12.28 49.26 L 12.15 49.30 L 12.02 49.33 L 11.89 49.37 L 11.75 49.40 L 11.62 49.44 L 11.49 49.47 L 11.35 49.51 L 11.22 49.54 L 11.10 49.58 L 10.98 49.62 L 10.86 49.66 L 10.74 49.71 L 10.64 49.75 L 10.54 49.79 L 10.44 49.84 L 10.35 49.88 L 10.27 49.92 L 10.19 49.96 L 10.13 50.00 L 10.07 50.03 L 10.02 50.07 L 9.97 50.11 L 9.93 50.15 L 9.90 50.20 L 9.87 50.26 L 9.85 50.33 L 9.84 50.41 L 9.82 50.50 L 9.82 50.59 L 9.81 50.70 L 9.81 50.81 L 9.81 50.92 L 9.81 51.04 L 9.81 51.17 L 9.81 51.29 L 9.82 51.41 L 9.82 51.53 L 9.83 51.65 L 9.84 51.76 L 9.85 51.85 L 9.87 51.94 L 9.89 52.01 L 9.91 52.07 L 9.96 52.11 L 10.03 52.14 L 10.15 52.16 L 10.34 52.17 L 10.59 52.17 L 10.94 52.17 L 11.39 52.17 L 11.97 52.17 L 12.77 52.16 L 13.92 52.16 L 15.50 52.16 L 17.64 52.16 L 20.44 52.17 L 24.01 52.18 L 28.47 52.20 L 28.47 52.20 L 28.74 52.40 L 28.63 51.20 L 28.65 50.31 L 28.52 49.95 L 28.56 49.46 L 27.04 48.95 L 24.00 48.43 L 22.41 48.20 L 20.14 48.11 L 18.51 48.18 L 16.70 48.46 L 14.58 48.70 L 13.05 49.05 L 12.03 49.34 L 10.93 49.60 L 10.11 49.99 L 9.80 50.21 L 9.81 51.15 L 9.85 52.18 L 10.14 52.18 L 15.32 52.15 L 28.47 52.20" stroke="rgba(255,255,255,0.92)" stroke-width="1.0" fill="none"/>
  <path d="M 8.54 29.06 L 8.41 28.79 L 8.31 28.55 L 8.21 28.32 L 8.14 28.11 L 8.07 27.92 L 8.01 27.75 L 7.96 27.59 L 7.90 27.45 L 7.85 27.33 L 7.80 27.22 L 7.76 27.11 L 7.71 27.02 L 7.66 26.94 L 7.61 26.86 L 7.55 26.78 L 7.50 26.71 L 7.45 26.63 L 7.39 26.56 L 7.34 26.49 L 7.28 26.42 L 7.23 26.35 L 7.17 26.29 L 7.12 26.23 L 7.07 26.18 L 7.01 26.14 L 6.96 26.10 L 6.91 26.06 L 6.86 26.03 L 6.80 26.01 L 6.74 25.98 L 6.67 25.97 L 6.61 25.95 L 6.53 25.94 L 6.45 25.93 L 6.38 25.92 L 6.30 25.92 L 6.24 25.91 L 6.19 25.91 L 6.16 25.91 L 6.15 25.91 L 8.54 29.06 L 8.18 28.32 L 7.90 27.30 L 7.52 26.71 L 7.05 26.11 L 6.67 25.92 L 6.15 25.91 L 6.15 25.91" stroke="rgba(255,255,255,0.92)" stroke-width="1.0" fill="none"/>
  <path d="M 28.27 52.20 L 28.30 52.13 L 28.32 51.78 L 28.29 50.85 L 28.27 50.48 L 28.24 50.20 L 28.20 50.03 L 28.17 49.79 L 28.12 49.64 L 28.02 49.52 L 27.71 49.33 L 27.06 49.11 L 26.57 48.98 L 25.82 48.82 L 25.16 48.69 L 24.34 48.55 L 23.48 48.41 L 22.06 48.23 L 20.52 48.15 L 18.97 48.15 L 18.12 48.22 L 17.35 48.31 L 15.91 48.50 L 14.67 48.67 L 13.98 48.78 L 12.33 49.15 L 10.74 49.58 L 10.28 49.75 L 9.80 49.98 L 9.60 50.13 L 9.53 50.23 L 9.64 48.74 L 9.74 45.70 L 9.82 42.70 L 9.73 39.08 L 9.46 35.47 L 9.12 32.95 L 8.64 30.67 L 8.18 29.06 L 7.82 28.21 L 7.65 27.75 L 7.27 26.90 L 6.84 26.32 L 6.52 26.05 L 6.32 25.97 L 6.13 25.94 L 5.96 25.92 L 5.79 25.91 L 6.38 27.50 L 6.92 29.30 L 7.41 31.76 L 7.68 33.82 L 7.98 37.38 L 8.18 41.91 L 8.23 46.41 L 7.84 53.60 L 7.50 58.23 L 6.90 63.72 L 6.13 68.67 L 7.59 68.67 L 9.26 54.37 L 26.28 54.37 L 26.28 58.71 L 26.78 66.59 L 26.78 68.67 L 27.97 68.67 L 27.97 52.20 Z" stroke="rgba(255,255,255,0.92)" stroke-width="1.0" fill="none"/>
  <path d="M 71.07 52.20 L 71.03 52.13 L 71.01 51.78 L 71.05 50.85 L 71.06 50.48 L 71.09 50.20 L 71.13 50.03 L 71.16 49.79 L 71.21 49.64 L 71.31 49.52 L 71.62 49.33 L 72.27 49.11 L 72.77 48.98 L 73.51 48.82 L 74.17 48.69 L 74.99 48.55 L 75.85 48.41 L 77.27 48.23 L 78.81 48.15 L 80.36 48.15 L 81.21 48.22 L 81.99 48.31 L 83.42 48.50 L 84.66 48.67 L 85.35 48.78 L 87.00 49.15 L 88.59 49.58 L 89.05 49.75 L 89.53 49.98 L 89.74 50.13 L 89.80 50.23 L 89.70 48.74 L 89.59 45.70 L 89.52 42.70 L 89.61 39.08 L 89.87 35.47 L 90.22 32.95 L 90.69 30.67 L 91.16 29.06 L 91.52 28.21 L 91.68 27.75 L 92.06 26.90 L 92.49 26.32 L 92.81 26.05 L 93.02 25.97 L 93.20 25.94 L 93.37 25.92 L 93.54 25.91 L 92.96 27.50 L 92.41 29.30 L 91.93 31.76 L 91.65 33.82 L 91.36 37.38 L 91.16 41.91 L 91.10 46.41 L 91.49 53.60 L 91.83 58.23 L 92.43 63.72 L 93.20 68.67 L 91.75 68.67 L 90.08 54.37 L 73.06 54.37 L 73.06 58.71 L 72.55 66.59 L 72.55 68.67 L 71.37 68.67 L 71.37 52.20 Z" stroke="rgba(255,255,255,0.92)" stroke-width="1.0" fill="none"/>
  <path d="M 61.02 38.13 L 73.86 38.13 L 74.00 38.12 L 74.17 38.06 L 74.40 37.90 L 74.44 37.85 L 74.57 37.59 L 74.60 37.39 L 74.58 37.25 L 74.56 37.17 L 74.48 36.99 L 74.42 36.91 L 74.32 36.81 L 74.23 36.75 L 74.12 36.70 L 74.05 36.68 L 73.86 36.65 L 24.67 36.65 L 24.47 36.68 L 24.34 36.73 L 24.27 36.77 L 24.16 36.85 L 24.10 36.92 L 24.05 36.99 L 24.00 37.08 L 23.96 37.19 L 23.94 37.32 L 23.93 37.39 L 23.95 37.55 L 23.98 37.65 L 24.07 37.82 L 24.14 37.91 L 24.29 38.02 L 24.47 38.10 L 38.67 38.13 L 38.67 68.74 L 61.02 68.74 L 61.02 68.62 Z" stroke="rgba(255,255,255,0.92)" stroke-width="1.0" fill="none"/>
  <circle cx="49.47" cy="50.00" r="25.33" stroke="rgba(255,255,255,0.92)" stroke-width="1.0" fill="none"/>
  <circle cx="49.47" cy="50.00" r="23.26" stroke="rgba(255,255,255,0.92)" stroke-width="1.0" fill="none"/>
  <path d="M 97.13 59.46 A 56.60 56.60 0 0 1 97.02 42.75" stroke="rgba(255,255,255,0.92)" stroke-width="1.0" fill="none"/>
  <path d="M 77.14 40.52 A 88.19 88.19 0 0 1 77.30 56.31" stroke="rgba(255,255,255,0.92)" stroke-width="1.0" fill="none"/>
  <path d="M 77.35 40.50 A 88.40 88.40 0 0 1 77.51 56.23" stroke="rgba(255,255,255,0.92)" stroke-width="1.0" fill="none"/>
  <path d="M 78.02 40.80 A 89.04 89.04 0 0 1 78.17 56.00" stroke="rgba(255,255,255,0.92)" stroke-width="1.0" fill="none"/>
  <path d="M 77.30 42.27 L 77.30 42.27 L 81.24 40.19 L 97.13 42.02 L 97.38 41.61 L 97.40 41.61 L 97.43 41.61 L 98.44 42.57 L 98.34 58.17 L 97.28 59.12 L 97.02 58.73 L 81.11 60.34 L 77.14 58.06 L 77.14 58.06" stroke="rgba(255,255,255,0.92)" stroke-width="1.0" fill="none"/>
  <path d="M 77.51 42.34 L 81.26 40.40 L 97.07 42.22 L 97.10 42.23" stroke="rgba(255,255,255,0.92)" stroke-width="1.0" fill="none"/>
  <path d="M 96.99 58.52 L 96.96 58.52 L 81.13 60.14 L 77.30 57.92" stroke="rgba(255,255,255,0.92)" stroke-width="1.0" fill="none"/>
  <path d="M 78.17 42.58 L 81.32 41.03 L 96.89 42.83 L 97.61 42.71 L 97.51 58.04 L 96.79 57.91 L 81.21 59.51 L 78.02 57.78" stroke="rgba(255,255,255,0.92)" stroke-width="1.0" fill="none"/>
  <path d="M 56.94 210.04 A 56.60 56.60 0 0 1 40.23 210.15" stroke="rgba(255,255,255,0.92)" stroke-width="1.0" fill="none"/>
  <path d="M 40.90 -97.30 A 88.19 88.19 0 0 1 56.69 -97.46" stroke="rgba(255,255,255,0.92)" stroke-width="1.0" fill="none"/>
  <path d="M 40.88 -97.52 A 88.40 88.40 0 0 1 56.61 -97.68" stroke="rgba(255,255,255,0.92)" stroke-width="1.0" fill="none"/>
  <path d="M 41.18 -98.18 A 89.04 89.04 0 0 1 56.38 -98.33" stroke="rgba(255,255,255,0.92)" stroke-width="1.0" fill="none"/>
  <path d="M 56.69 78.36 L 56.69 78.36 L 58.77 82.30 L 56.94 98.19 L 57.34 98.45 L 57.35 98.46 L 57.35 98.49 L 56.39 99.51 L 40.79 99.41 L 39.84 98.35 L 40.23 98.08 L 38.61 82.17 L 40.90 78.20 L 40.90 78.20" stroke="rgba(255,255,255,0.92)" stroke-width="1.0" fill="none"/>
  <path d="M 56.61 78.58 L 58.56 82.32 L 56.73 98.13 L 56.73 98.16" stroke="rgba(255,255,255,0.92)" stroke-width="1.0" fill="none"/>
  <path d="M 40.44 98.05 L 40.43 98.03 L 38.82 82.19 L 41.03 78.37" stroke="rgba(255,255,255,0.92)" stroke-width="1.0" fill="none"/>
  <path d="M 56.38 79.23 L 57.93 82.38 L 56.13 97.95 L 56.24 98.67 L 40.92 98.57 L 41.04 97.86 L 39.45 82.27 L 41.18 79.08" stroke="rgba(255,255,255,0.92)" stroke-width="1.0" fill="none"/>
  <path d="M 1.92 42.75 A 56.60 56.60 0 0 1 1.81 59.46" stroke="rgba(255,255,255,0.92)" stroke-width="1.0" fill="none"/>
  <path d="M 21.64 56.31 A 88.19 88.19 0 0 1 21.80 40.52" stroke="rgba(255,255,255,0.92)" stroke-width="1.0" fill="none"/>
  <path d="M 21.42 56.23 A 88.40 88.40 0 0 1 21.59 40.50" stroke="rgba(255,255,255,0.92)" stroke-width="1.0" fill="none"/>
  <path d="M 20.77 56.00 A 89.04 89.04 0 0 1 20.92 40.80" stroke="rgba(255,255,255,0.92)" stroke-width="1.0" fill="none"/>
  <path d="M 21.64 42.27 L 21.64 42.27 L 17.70 40.19 L 1.81 42.02 L 1.55 41.61 L 1.54 41.61 L 1.51 41.61 L 0.49 42.57 L 0.59 58.17 L 1.65 59.12 L 1.92 58.73 L 17.83 60.34 L 21.80 58.06 L 21.80 58.06" stroke="rgba(255,255,255,0.92)" stroke-width="1.0" fill="none"/>
  <path d="M 21.42 42.34 L 17.68 40.40 L 1.87 42.22 L 1.84 42.23" stroke="rgba(255,255,255,0.92)" stroke-width="1.0" fill="none"/>
  <path d="M 1.95 58.52 L 1.97 58.52 L 17.81 60.14 L 21.63 57.92" stroke="rgba(255,255,255,0.92)" stroke-width="1.0" fill="none"/>
  <path d="M 20.77 42.58 L 17.62 41.03 L 2.05 42.83 L 1.33 42.71 L 1.43 58.04 L 2.14 57.91 L 17.73 59.51 L 20.92 57.78" stroke="rgba(255,255,255,0.92)" stroke-width="1.0" fill="none"/>
  <path d="M 40.23 -110.15 A 56.60 56.60 0 0 1 56.94 -110.04" stroke="rgba(255,255,255,0.92)" stroke-width="1.0" fill="none"/>
  <path d="M 56.69 197.46 A 88.19 88.19 0 0 1 40.90 197.30" stroke="rgba(255,255,255,0.92)" stroke-width="1.0" fill="none"/>
  <path d="M 56.61 197.68 A 88.40 88.40 0 0 1 40.88 197.52" stroke="rgba(255,255,255,0.92)" stroke-width="1.0" fill="none"/>
  <path d="M 56.38 198.33 A 89.04 89.04 0 0 1 41.18 198.18" stroke="rgba(255,255,255,0.92)" stroke-width="1.0" fill="none"/>
  <path d="M 56.69 21.64 L 56.69 21.64 L 58.77 17.70 L 56.94 1.81 L 57.34 1.55 L 57.35 1.54 L 57.35 1.51 L 56.39 0.49 L 40.79 0.59 L 39.84 1.65 L 40.23 1.92 L 38.61 17.83 L 40.90 21.80 L 40.90 21.80" stroke="rgba(255,255,255,0.92)" stroke-width="1.0" fill="none"/>
  <path d="M 56.61 21.42 L 58.56 17.68 L 56.73 1.87 L 56.73 1.84" stroke="rgba(255,255,255,0.92)" stroke-width="1.0" fill="none"/>
  <path d="M 40.44 1.95 L 40.43 1.97 L 38.82 17.81 L 41.03 21.63" stroke="rgba(255,255,255,0.92)" stroke-width="1.0" fill="none"/>
  <path d="M 56.38 20.77 L 57.93 17.62 L 56.13 2.05 L 56.24 1.33 L 40.92 1.43 L 41.04 2.14 L 39.45 17.73 L 41.18 20.92" stroke="rgba(255,255,255,0.92)" stroke-width="1.0" fill="none"/>
  <path d="M 58.41 8.74 L 57.69 4.73 L 57.44 3.67 L 57.12 2.46 L 56.94 1.81 L 57.07 1.80 L 57.19 1.75 L 57.24 1.71 L 57.33 1.58 L 57.34 1.42 L 57.29 1.19 L 57.18 0.96 L 57.06 0.81 L 56.88 0.66 L 56.57 0.52 L 56.16 0.47 L 55.44 0.41 L 54.52 0.34 L 53.81 0.15 L 52.55 0.22 L 51.02 0.17 L 49.43 0.15 L 48.00 0.15 L 46.16 0.20 L 45.31 0.24 L 44.02 0.31 L 43.34 0.36 L 42.71 0.41 L 42.24 0.45 L 41.66 0.51 L 40.79 0.59 L 40.43 0.69 L 40.24 0.81 L 40.11 0.94 L 39.99 1.10 L 39.92 1.23 L 39.88 1.36 L 39.85 1.47 L 39.84 1.55 L 39.84 1.63 L 39.86 1.70 L 39.90 1.78 L 39.92 1.80 L 39.98 1.86 L 40.06 1.90 L 40.15 1.92 L 40.23 1.92 L 40.07 2.52 L 39.85 3.36 L 39.66 4.18 L 39.20 6.48 L 39.03 7.56 L 38.72 10.04 L 38.56 12.18 L 38.50 14.59 L 38.54 16.57 L 38.61 17.83 L 38.78 18.57 L 38.99 19.18 L 39.36 19.96 L 39.83 20.68 L 40.28 21.22 L 40.90 21.80 L 56.69 21.64 L 57.02 21.32 L 57.49 20.78 L 57.91 20.17 L 58.55 18.74 L 58.75 17.85 L 58.80 17.06 L 58.84 15.67 L 58.76 12.31 L 58.60 10.36 Z" stroke="rgba(255,255,255,0.92)" stroke-width="1.0" fill="none"/>
  <path d="M 8.74 40.55 L 4.73 41.27 L 3.67 41.52 L 2.46 41.83 L 1.81 42.02 L 1.80 41.88 L 1.75 41.77 L 1.71 41.71 L 1.58 41.63 L 1.42 41.61 L 1.19 41.67 L 0.96 41.78 L 0.81 41.89 L 0.66 42.08 L 0.52 42.38 L 0.47 42.80 L 0.41 43.51 L 0.34 44.44 L 0.15 45.15 L 0.22 46.41 L 0.17 47.94 L 0.15 49.53 L 0.15 50.96 L 0.20 52.79 L 0.24 53.65 L 0.31 54.93 L 0.36 55.61 L 0.41 56.24 L 0.45 56.71 L 0.51 57.30 L 0.59 58.17 L 0.69 58.52 L 0.81 58.71 L 0.94 58.85 L 1.10 58.97 L 1.23 59.03 L 1.36 59.08 L 1.47 59.10 L 1.55 59.11 L 1.63 59.12 L 1.70 59.10 L 1.78 59.06 L 1.80 59.04 L 1.86 58.97 L 1.90 58.90 L 1.92 58.80 L 1.92 58.73 L 2.52 58.89 L 3.36 59.10 L 4.18 59.30 L 6.48 59.76 L 7.56 59.93 L 10.04 60.24 L 12.18 60.39 L 14.59 60.46 L 16.57 60.41 L 17.83 60.34 L 18.57 60.18 L 19.18 59.96 L 19.96 59.59 L 20.68 59.12 L 21.22 58.67 L 21.80 58.06 L 21.64 42.27 L 21.32 41.93 L 20.78 41.47 L 20.17 41.05 L 18.74 40.41 L 17.85 40.21 L 17.06 40.16 L 15.67 40.12 L 12.31 40.20 L 10.36 40.35 Z" stroke="rgba(255,255,255,0.92)" stroke-width="1.0" fill="none"/>
  <path d="M 58.41 91.26 L 57.69 95.27 L 57.44 96.33 L 57.12 97.54 L 56.94 98.19 L 57.07 98.20 L 57.19 98.25 L 57.24 98.29 L 57.33 98.42 L 57.34 98.58 L 57.29 98.81 L 57.18 99.04 L 57.06 99.19 L 56.88 99.34 L 56.57 99.48 L 56.16 99.53 L 55.44 99.59 L 54.52 99.66 L 53.81 99.85 L 52.55 99.78 L 51.02 99.83 L 49.43 99.85 L 48.00 99.85 L 46.16 99.80 L 45.31 99.76 L 44.02 99.69 L 43.34 99.64 L 42.71 99.59 L 42.24 99.55 L 41.66 99.49 L 40.79 99.41 L 40.43 99.31 L 40.24 99.19 L 40.11 99.06 L 39.99 98.90 L 39.92 98.77 L 39.88 98.64 L 39.85 98.53 L 39.84 98.45 L 39.84 98.37 L 39.86 98.30 L 39.90 98.22 L 39.92 98.20 L 39.98 98.14 L 40.06 98.10 L 40.15 98.08 L 40.23 98.08 L 40.07 97.48 L 39.85 96.64 L 39.66 95.82 L 39.20 93.52 L 39.03 92.44 L 38.72 89.96 L 38.56 87.82 L 38.50 85.41 L 38.54 83.43 L 38.61 82.17 L 38.78 81.43 L 38.99 80.82 L 39.36 80.04 L 39.83 79.32 L 40.28 78.78 L 40.90 78.20 L 56.69 78.36 L 57.02 78.68 L 57.49 79.22 L 57.91 79.83 L 58.55 81.26 L 58.75 82.15 L 58.80 82.94 L 58.84 84.33 L 58.76 87.69 L 58.60 89.64 Z" stroke="rgba(255,255,255,0.92)" stroke-width="1.0" fill="none"/>
  <path d="M 90.20 40.55 L 94.21 41.27 L 95.27 41.52 L 96.47 41.83 L 97.13 42.02 L 97.13 41.88 L 97.18 41.77 L 97.22 41.71 L 97.36 41.63 L 97.51 41.61 L 97.75 41.67 L 97.97 41.78 L 98.12 41.89 L 98.27 42.08 L 98.41 42.38 L 98.46 42.80 L 98.53 43.51 L 98.60 44.44 L 98.78 45.15 L 98.71 46.41 L 98.76 47.94 L 98.79 49.53 L 98.78 50.96 L 98.73 52.79 L 98.70 53.65 L 98.62 54.93 L 98.57 55.61 L 98.53 56.24 L 98.48 56.71 L 98.43 57.30 L 98.34 58.17 L 98.24 58.52 L 98.13 58.71 L 98.00 58.85 L 97.83 58.97 L 97.71 59.03 L 97.57 59.08 L 97.46 59.10 L 97.38 59.11 L 97.30 59.12 L 97.24 59.10 L 97.16 59.06 L 97.13 59.04 L 97.08 58.97 L 97.04 58.90 L 97.02 58.80 L 97.02 58.73 L 96.42 58.89 L 95.58 59.10 L 94.75 59.30 L 92.46 59.76 L 91.37 59.93 L 88.89 60.24 L 86.75 60.39 L 84.34 60.46 L 82.37 60.41 L 81.11 60.34 L 80.37 60.18 L 79.75 59.96 L 78.98 59.59 L 78.26 59.12 L 77.72 58.67 L 77.14 58.06 L 77.30 42.27 L 77.62 41.93 L 78.16 41.47 L 78.77 41.05 L 80.20 40.41 L 81.09 40.21 L 81.87 40.16 L 83.27 40.12 L 86.62 40.20 L 88.58 40.35 Z" stroke="rgba(255,255,255,0.92)" stroke-width="1.0" fill="none"/>
  <path d="M 74.80 49.99 L 74.56 46.52 L 73.90 43.29 L 72.32 39.07 L 71.04 36.71 L 69.29 34.21 L 66.96 31.67 L 65.67 30.51 L 63.60 28.96 L 60.86 27.36 L 58.57 26.35 L 56.89 25.77 L 54.68 25.20 L 52.04 24.79 L 50.05 24.66 L 47.25 24.75 L 44.77 25.10 L 41.98 25.79 L 39.39 26.75 L 36.79 28.05 L 34.33 29.67 L 31.68 31.96 L 29.76 34.07 L 28.48 35.80 L 27.21 37.90 L 26.00 40.44 L 24.80 44.24 L 24.24 47.64 L 24.28 52.67 L 24.43 53.82 L 26.14 59.87 L 27.92 63.32 L 31.11 67.45 L 35.10 70.86 L 37.87 72.51 L 43.00 74.48 L 46.62 75.16 L 54.43 74.83 L 57.12 74.14 L 61.01 72.54 L 63.62 71.00 L 67.13 68.15 L 70.12 64.66 L 71.69 62.15 L 72.08 61.41 L 73.94 56.55 Z" stroke="rgba(255,255,255,0.92)" stroke-width="1.0" fill="none"/>
</svg>
