<svg xmlns="http://www.w3.org/2000/svg" viewBox="0 0 100 100" width="100" height="100">
  <path d="M 61.55 68.49 L 61.55 38.13" stroke="rgba(255,255,255,0.92)" stroke-width="1.0" fill="none"/>
  <path d="M 28.86 68.67 L 27.81 68.67 L 27.17 58.71 L 27.17 52.26 L 28.86 52.26 Z" stroke="rgba(255,255,255,0.92)" stroke-width="1.0" fill="none"/>
  <path d="M 25.20 38.13 L 74.39 38.13" stroke="rgba(255,255,255,0.92)" stroke-width="1.0" fill="none"/>
  <path d="M 25.20 36.65 L 74.39 36.65" stroke="rgba(255,255,255,0.92)" stroke-width="1.0" fill="none"/>
  <path d="M 25.20 38.13 A 0.74 0.74 0 0 1 25.20 36.65" stroke="rgba(255,255,255,0.92)" stroke-width="1.0" fill="none"/>
  <path d="M 49.67 67.05 L 51.08 67.05" stroke="rgba(255,255,255,0.92)" stroke-width="1.0" fill="none"/>
  <path d="M 61.55 68.49 L 51.08 67.61" stroke="rgba(255,255,255,0.92)" stroke-width="1.0" fill="none"/>
  <path d="M 61.55 68.74 L 61.55 68.49" stroke="rgba(255,255,255,0.92)" stroke-width="1.0" fill="none"/>
  <path d="M 49.67 67.61 L 51.08 67.61" stroke="rgba(255,255,255,0.92)" stroke-width="1.0" fill="none"/>
  <path d="M 49.67 67.05 L 49.67 67.61" stroke="rgba(255,255,255,0.92)" stroke-width="1.0" fill="none"/>
  <path d="M 51.08 67.05 L 51.08 67.61" stroke="rgba(255,255,255,0.92)" stroke-width="1.0" fill="none"/>
  <path d="M 49.67 67.05 L 51.08 67.05" stroke="rgba(255,255,255,0.92)" stroke-width="1.0" fill="none"/>
  <path d="M 61.55 68.49 L 51.08 67.61" stroke="rgba(255,255,255,0.92)" stroke-width="1.0" fill="none"/>
  <path d="M 61.55 68.74 L 61.55 68.49" stroke="rgba(255,255,255,0.92)" stroke-width="1.0" fill="none"/>
  <path d="M 49.67 67.61 L 51.08 67.61" stroke="rgba(255,255,255,0.92)" stroke-width="1.0" fill="none"/>
  <path d="M 49.67 67.05 L 49.67 67.61" stroke="rgba(255,255,255,0.92)" stroke-width="1.0" fill="none"/>
  <path d="M 51.08 67.05 L 51.08 67.61" stroke="rgba(255,255,255,0.92)" stroke-width="1.0" fill="none"/>
  <path d="M 39.20 68.74 L 39.20 68.49" stroke="rgba(255,255,255,0.92)" stroke-width="1.0" fill="none"/>
  <path d="M 41.60 68.29 L 49.67 67.61" stroke="rgba(255,255,255,0.92)" stroke-width="1.0" fill="none"/>
  <path d="M 41.60 68.74 L 61.55 68.74" stroke="rgba(255,255,255,0.92)" stroke-width="1.0" fill="none"/>
  <path d="M 39.20 68.49 L 49.67 67.61" stroke="rgba(255,255,255,0.92)" stroke-width="1.0" fill="none"/>
  <path d="M 39.20 68.74 L 61.55 68.74" stroke="rgba(255,255,255,0.92)" stroke-width="1.0" fill="none"/>
  <path d="M 51.01 38.72 L 51.01 67.05" stroke="rgba(255,255,255,0.92)" stroke-width="1.0" fill="none"/>
  <path d="M 49.74 38.72 L 49.74 67.05" stroke="rgba(255,255,255,0.92)" stroke-width="1.0" fill="none"/>
  <path d="M 51.01 38.72 L 51.01 67.05" stroke="rgba(255,255,255,0.92)" stroke-width="1.0" fill="none"/>
  <path d="M 49.74 38.72 L 49.74 67.05" stroke="rgba(255,255,255,0.92)" stroke-width="1.0" fill="none"/>
  <path d="M 74.39 36.65 A 0.74 0.74 0 0 1 74.39 38.13" stroke="rgba(255,255,255,0.92)" stroke-width="1.0" fill="none"/>
  <path d="M 51.68 38.72 L 51.68 38.59" stroke="rgba(255,255,255,0.92)" stroke-width="1.0" fill="none"/>
  <path d="M 56.46 38.13 L 56.46 38.59" stroke="rgba(255,255,255,0.92)" stroke-width="1.0" fill="none"/>
  <path d="M 49.07 38.72 L 49.07 38.59" stroke="rgba(255,255,255,0.92)" stroke-width="1.0" fill="none"/>
  <path d="M 49.07 38.72 L 51.68 38.72" stroke="rgba(255,255,255,0.92)" stroke-width="1.0" fill="none"/>
  <path d="M 44.30 38.59 L 56.46 38.59" stroke="rgba(255,255,255,0.92)" stroke-width="1.0" fill="none"/>
  <path d="M 74.39 36.65 A 0.74 0.74 0 0 1 74.39 38.13" stroke="rgba(255,255,255,0.92)" stroke-width="1.0" fill="none"/>
  <path d="M 51.68 38.72 L 51.68 38.59" stroke="rgba(255,255,255,0.92)" stroke-width="1.0" fill="none"/>
  <path d="M 56.46 38.13 L 56.46 38.59" stroke="rgba(255,255,255,0.92)" stroke-width="1.0" fill="none"/>
  <path d="M 49.07 38.72 L 49.07 38.59" stroke="rgba(255,255,255,0.92)" stroke-width="1.0" fill="none"/>
  <path d="M 49.07 38.72 L 51.68 38.72" stroke="rgba(255,255,255,0.92)" stroke-width="1.0" fill="none"/>
  <path d="M 44.30 38.59 L 56.46 38.59" stroke="rgba(255,255,255,0.92)" stroke-width="1.0" fill="none"/>
  <path d="M 41.60 38.13 L 74.39 38.13" stroke="rgba(255,255,255,0.92)" stroke-width="1.0" fill="none"/>
  <path d="M 41.60 36.65 L 74.39 36.65" stroke="rgba(255,255,255,0.92)" stroke-width="1.0" fill="none"/>
  <path d="M 44.30 38.13 L 44.30 38.59" stroke="rgba(255,255,255,0.92)" stroke-width="1.0" fill="none"/>
  <path d="M 44.30 38.13 L 44.30 38.59" stroke="rgba(255,255,255,0.92)" stroke-width="1.0" fill="none"/>
  <path d="M 39.20 68.62 L 39.20 38.13" stroke="rgba(255,255,255,0.92)" stroke-width="1.0" fill="none"/>
  <path d="M 93.11 68.67 L 93.74 68.67" stroke="rgba(255,255,255,0.92)" stroke-width="1.0" fill="none"/>
  <path d="M 94.07 25.91 L 93.66 27.00 L 93.32 27.99 L 93.05 28.89 L 92.84 29.71 L 92.68 30.46 L 92.55 31.14 L 92.46 31.76 L 92.38 32.33 L 92.31 32.85 L 92.25 33.35 L 92.19 33.82 L 92.13 34.29 L 92.08 34.75 L 92.04 35.22 L 92.00 35.71 L 91.96 36.23 L 91.92 36.79 L 91.89 37.38 L 91.86 37.99 L 91.83 38.63 L 91.80 39.29 L 91.77 39.95 L 91.74 40.61 L 91.72 41.26 L 91.69 41.91 L 91.67 42.55 L 91.65 43.18 L 91.63 43.81 L 91.62 44.45 L 91.61 45.09 L 91.62 45.74 L 91.63 46.41 L 91.65 47.09 L 91.69 47.79 L 91.72 48.49 L 91.76 49.19 L 91.81 49.88 L 91.85 50.55 L 91.89 51.20 L 91.93 51.83 L 91.96 52.42 L 91.99 53.00 L 92.02 53.60 L 92.05 54.23 L 92.10 54.93 L 92.15 55.71 L 92.22 56.61 L 92.31 57.64 L 92.42 58.82 L 92.55 60.13 L 92.70 61.52 L 92.87 62.98 L 93.06 64.46 L 93.27 65.92 L 93.50 67.34 L 93.74 68.67 L 94.07 25.91 L 92.85 28.96 L 92.31 32.78 L 91.93 35.80 L 91.71 41.39 L 91.52 46.22 L 92.00 52.20 L 92.07 55.93 L 93.07 65.25 L 93.74 68.67" stroke="rgba(255,255,255,0.92)" stroke-width="1.0" fill="none"/>
  <path d="M 91.69 29.06 L 91.01 31.43 L 90.49 34.47 L 90.16 38.21 L 90.05 42.70 L 90.18 47.96 L 90.57 54.02 L 91.27 60.91 L 92.28 68.67 L 91.69 29.06 L 89.68 34.50 L 89.13 46.79 L 92.28 68.67" stroke="rgba(255,255,255,0.92)" stroke-width="1.0" fill="none"/>
  <path d="M 92.28 68.67 L 93.74 68.67" stroke="rgba(255,255,255,0.92)" stroke-width="1.0" fill="none"/>
  <path d="M 73.59 54.37 L 90.61 54.37" stroke="rgba(255,255,255,0.92)" stroke-width="1.0" fill="none"/>
  <path d="M 71.76 52.20 L 71.67 52.24 L 71.61 52.21 L 71.57 52.13 L 71.55 52.02 L 71.54 51.87 L 71.54 51.70 L 71.55 51.52 L 71.56 51.35 L 71.57 51.19 L 71.57 51.04 L 71.58 50.91 L 71.58 50.79 L 71.58 50.67 L 71.59 50.57 L 71.59 50.48 L 71.60 50.40 L 71.60 50.32 L 71.61 50.26 L 71.63 50.20 L 71.64 50.14 L 71.65 50.08 L 71.66 50.03 L 71.67 49.98 L 71.68 49.93 L 71.68 49.87 L 71.69 49.82 L 71.70 49.76 L 71.71 49.70 L 71.74 49.64 L 71.78 49.58 L 71.84 49.52 L 71.92 49.45 L 72.03 49.39 L 72.16 49.33 L 72.31 49.26 L 72.49 49.20 L 72.69 49.14 L 72.91 49.07 L 73.16 49.01 L 73.44 48.95 L 73.73 48.88 L 74.05 48.82 L 74.37 48.75 L 74.70 48.69 L 75.04 48.63 L 75.36 48.58 L 75.68 48.53 L 75.98 48.48 L 76.26 48.43 L 76.52 48.39 L 76.76 48.35 L 77.00 48.32 L 77.23 48.29 L 77.46 48.27 L 77.69 48.24 L 77.92 48.22 L 78.17 48.20 L 78.42 48.19 L 78.68 48.17 L 78.95 48.16 L 79.21 48.15 L 79.47 48.14 L 79.73 48.14 L 79.98 48.14 L 80.22 48.14 L 80.45 48.14 L 80.67 48.15 L 80.89 48.15 L 81.11 48.17 L 81.32 48.18 L 81.53 48.20 L 81.75 48.22 L 81.96 48.24 L 82.18 48.27 L 82.41 48.30 L 82.63 48.33 L 82.86 48.36 L 83.10 48.39 L 83.33 48.42 L 83.58 48.46 L 83.83 48.49 L 84.08 48.52 L 84.33 48.55 L 84.58 48.58 L 84.83 48.62 L 85.08 48.65 L 85.32 48.68 L 85.55 48.72 L 85.77 48.76 L 85.99 48.79 L 86.19 48.83 L 86.39 48.87 L 86.58 48.92 L 86.76 48.96 L 86.93 49.00 L 87.09 49.04 L 87.25 49.08 L 87.39 49.12 L 87.54 49.15 L 87.67 49.19 L 87.81 49.23 L 87.94 49.26 L 88.07 49.30 L 88.20 49.33 L 88.34 49.37 L 88.47 49.40 L 88.61 49.44 L 88.74 49.47 L 88.87 49.51 L 89.00 49.54 L 89.13 49.58 L 89.25 49.62 L 89.37 49.66 L 89.48 49.71 L 89.59 49.75 L 89.69 49.79 L 89.78 49.84 L 89.87 49.88 L 89.95 49.92 L 90.03 49.96 L 90.10 50.00 L 90.15 50.03 L 90.21 50.07 L 90.25 50.11 L 90.29 50.15 L 90.32 50.20 L 90.35 50.26 L 90.37 50.33 L 90.39 50.41 L 90.40 50.50 L 90.41 50.59 L 90.41 50.70 L 90.41 50.81 L 90.42 50.92 L 90.41 51.04 L 90.41 51.17 L 90.41 51.29 L 90.40 51.41 L 90.40 51.53 L 90.39 51.65 L 90.38 51.76 L 90.37 51.85 L 90.35 51.94 L 90.34 52.01 L 90.31 52.07 L 90.27 52.11 L 90.19 52.14 L 90.07 52.16 L 89.89 52.17 L 89.63 52.17 L 89.28 52.17 L 88.84 52.17 L 88.26 52.17 L 87.45 52.16 L 86.31 52.16 L 84.72 52.16 L 82.58 52.16 L 79.78 52.17 L 76.21 52.18 L 71.76 52.20 L 71.76 52.20 L 71.48 52.40 L 71.59 51.20 L 71.57 50.31 L 71.71 49.95 L 71.66 49.46 L 73.18 48.95 L 76.22 48.43 L 77.81 48.20 L 80.09 48.11 L 81.72 48.18 L 83.53 48.46 L 85.65 48.70 L 87.18 49.05 L 88.19 49.34 L 89.30 49.60 L 90.11 49.99 L 90.42 50.21 L 90.42 51.15 L 90.38 52.18 L 90.08 52.18 L 84.90 52.15 L 71.76 52.20" stroke="rgba(255,255,255,0.92)" stroke-width="1.0" fill="none"/>
  <path d="M 71.90 68.67 L 72.95 68.67 L 73.59 58.71 L 73.59 52.26 L 71.90 52.26 Z" stroke="rgba(255,255,255,0.92)" stroke-width="1.0" fill="none"/>
  <path d="M 91.69 29.06 L 91.81 28.79 L 91.92 28.55 L 92.01 28.32 L 92.09 28.11 L 92.15 27.92 L 92.21 27.75 L 92.27 27.59 L 92.32 27.45 L 92.37 27.33 L 92.42 27.22 L 92.47 27.11 L 92.52 27.02 L 92.57 26.94 L 92.62 26.86 L 92.67 26.78 L 92.72 26.71 L 92.78 26.63 L 92.83 26.56 L 92.88 26.49 L 92.94 26.42 L 93.00 26.35 L 93.05 26.29 L 93.10 26.23 L 93.16 26.18 L 93.21 26.14 L 93.26 26.10 L 93.31 26.06 L 93.37 26.03 L 93.42 26.01 L 93.48 25.98 L 93.55 25.97 L 93.62 25.95 L 93.69 25.94 L 93.77 25.93 L 93.85 25.92 L 93.92 25.92 L 93.98 25.91 L 94.03 25.91 L 94.06 25.91 L 94.07 25.91 L 91.69 29.06 L 92.04 28.32 L 92.32 27.30 L 92.71 26.71 L 93.17 26.11 L 93.55 25.92 L 94.07 25.91 L 94.07 25.91" stroke="rgba(255,255,255,0.92)" stroke-width="1.0" fill="none"/>
  <path d="M 7.65 68.67 L 7.02 68.67" stroke="rgba(255,255,255,0.92)" stroke-width="1.0" fill="none"/>
  <path d="M 6.68 25.91 L 7.10 27.00 L 7.44 27.99 L 7.71 28.89 L 7.92 29.71 L 8.08 30.46 L 8.20 31.14 L 8.30 31.76 L 8.38 32.33 L 8.45 32.85 L 8.51 33.35 L 8.57 33.82 L 8.62 34.29 L 8.67 34.75 L 8.72 35.22 L 8.76 35.71 L 8.80 36.23 L 8.83 36.79 L 8.87 37.38 L 8.90 37.99 L 8.93 38.63 L 8.96 39.29 L 8.99 39.95 L 9.01 40.61 L 9.04 41.26 L 9.07 41.91 L 9.09 42.55 L 9.11 43.18 L 9.13 43.81 L 9.14 44.45 L 9.14 45.09 L 9.14 45.74 L 9.12 46.41 L 9.10 47.09 L 9.07 47.79 L 9.03 48.49 L 8.99 49.19 L 8.95 49.88 L 8.90 50.55 L 8.86 51.20 L 8.83 51.83 L 8.79 52.42 L 8.77 53.00 L 8.74 53.60 L 8.70 54.23 L 8.66 54.93 L 8.60 55.71 L 8.54 56.61 L 8.45 57.64 L 8.34 58.82 L 8.21 60.13 L 8.06 61.52 L 7.88 62.98 L 7.69 64.46 L 7.49 65.92 L 7.26 67.34 L 7.02 68.67 L 6.68 25.91 L 7.91 28.96 L 8.45 32.78 L 8.82 35.80 L 9.05 41.39 L 9.23 46.22 L 8.76 52.20 L 8.69 55.93 L 7.68 65.25 L 7.02 68.67" stroke="rgba(255,255,255,0.92)" stroke-width="1.0" fill="none"/>
  <path d="M 9.07 29.06 L 9.75 31.43 L 10.27 34.47 L 10.60 38.21 L 10.71 42.70 L 10.58 47.96 L 10.18 54.02 L 9.49 60.91 L 8.48 68.67 L 9.07 29.06 L 11.08 34.50 L 11.63 46.79 L 8.48 68.67" stroke="rgba(255,255,255,0.92)" stroke-width="1.0" fill="none"/>
  <path d="M 8.48 68.67 L 7.02 68.67" stroke="rgba(255,255,255,0.92)" stroke-width="1.0" fill="none"/>
  <path d="M 27.17 54.37 L 10.15 54.37" stroke="rgba(255,255,255,0.92)" stroke-width="1.0" fill="none"/>
  <path d="M 29.00 52.20 L 29.09 52.24 L 29.15 52.21 L 29.19 52.13 L 29.21 52.02 L 29.22 51.87 L 29.21 51.70 L 29.20 51.52 L 29.19 51.35 L 29.19 51.19 L 29.18 51.04 L 29.18 50.91 L 29.17 50.79 L 29.17 50.67 L 29.17 50.57 L 29.16 50.48 L 29.16 50.40 L 29.15 50.32 L 29.14 50.26 L 29.13 50.20 L 29.12 50.14 L 29.11 50.08 L 29.10 50.03 L 29.09 49.98 L 29.08 49.93 L 29.07 49.87 L 29.07 49.82 L 29.06 49.76 L 29.04 49.70 L 29.01 49.64 L 28.97 49.58 L 28.91 49.52 L 28.83 49.45 L 28.73 49.39 L 28.60 49.33 L 28.45 49.26 L 28.27 49.20 L 28.07 49.14 L 27.84 49.07 L 27.59 49.01 L 27.32 48.95 L 27.02 48.88 L 26.71 48.82 L 26.38 48.75 L 26.05 48.69 L 25.72 48.63 L 25.39 48.58 L 25.08 48.53 L 24.78 48.48 L 24.50 48.43 L 24.24 48.39 L 23.99 48.35 L 23.76 48.32 L 23.53 48.29 L 23.30 48.27 L 23.07 48.24 L 22.83 48.22 L 22.59 48.20 L 22.33 48.19 L 22.07 48.17 L 21.81 48.16 L 21.54 48.15 L 21.28 48.14 L 21.03 48.14 L 20.78 48.14 L 20.54 48.14 L 20.31 48.14 L 20.08 48.15 L 19.86 48.15 L 19.65 48.17 L 19.44 48.18 L 19.22 48.20 L 19.01 48.22 L 18.79 48.24 L 18.57 48.27 L 18.35 48.30 L 18.12 48.33 L 17.89 48.36 L 17.66 48.39 L 17.42 48.42 L 17.18 48.46 L 16.93 48.49 L 16.68 48.52 L 16.43 48.55 L 16.17 48.58 L 15.92 48.62 L 15.68 48.65 L 15.44 48.68 L 15.21 48.72 L 14.98 48.76 L 14.77 48.79 L 14.56 48.83 L 14.37 48.87 L 14.18 48.92 L 14.00 48.96 L 13.83 49.00 L 13.66 49.04 L 13.51 49.08 L 13.36 49.12 L 13.22 49.15 L 13.08 49.19 L 12.95 49.23 L 12.81 49.26 L 12.68 49.30 L 12.55 49.33 L 12.42 49.37 L 12.28 49.40 L 12.15 49.44 L 12.02 49.47 L 11.89 49.51 L 11.76 49.54 L 11.63 49.58 L 11.51 49.62 L 11.39 49.66 L 11.28 49.71 L 11.17 49.75 L 11.07 49.79 L 10.97 49.84 L 10.88 49.88 L 10.80 49.92 L 10.73 49.96 L 10.66 50.00 L 10.60 50.03 L 10.55 50.07 L 10.50 50.11 L 10.47 50.15 L 10.43 50.20 L 10.41 50.26 L 10.39 50.33 L 10.37 50.41 L 10.36 50.50 L 10.35 50.59 L 10.34 50.70 L 10.34 50.81 L 10.34 50.92 L 10.34 51.04 L 10.34 51.17 L 10.35 51.29 L 10.35 51.41 L 10.36 51.53 L 10.36 51.65 L 10.37 51.76 L 10.39 51.85 L 10.40 51.94 L 10.42 52.01 L 10.45 52.07 L 10.49 52.11 L 10.56 52.14 L 10.69 52.16 L 10.87 52.17 L 11.13 52.17 L 11.47 52.17 L 11.92 52.17 L 12.50 52.17 L 13.31 52.16 L 14.45 52.16 L 16.03 52.16 L 18.17 52.16 L 20.97 52.17 L 24.55 52.18 L 29.00 52.20 L 29.00 52.20 L 29.28 52.40 L 29.16 51.20 L 29.19 50.31 L 29.05 49.95 L 29.09 49.46 L 27.57 48.95 L 24.54 48.43 L 22.95 48.20 L 20.67 48.11 L 19.04 48.18 L 17.23 48.46 L 15.11 48.70 L 13.58 49.05 L 12.57 49.34 L 11.46 49.60 L 10.64 49.99 L 10.33 50.21 L 10.34 51.15 L 10.38 52.18 L 10.67 52.18 L 15.85 52.15 L 29.00 52.20" stroke="rgba(255,255,255,0.92)" stroke-width="1.0" fill="none"/>
  <path d="M 9.07 29.06 L 8.94 28.79 L 8.84 28.55 L 8.75 28.32 L 8.67 28.11 L 8.60 27.92 L 8.54 27.75 L 8.49 27.59 L 8.44 27.45 L 8.39 27.33 L 8.34 27.22 L 8.29 27.11 L 8.24 27.02 L 8.19 26.94 L 8.14 26.86 L 8.09 26.78 L 8.03 26.71 L 7.98 26.63 L 7.93 26.56 L 7.87 26.49 L 7.82 26.42 L 7.76 26.35 L 7.71 26.29 L 7.65 26.23 L 7.60 26.18 L 7.55 26.14 L 7.49 26.10 L 7.44 26.06 L 7.39 26.03 L 7.33 26.01 L 7.27 25.98 L 7.21 25.97 L 7.14 25.95 L 7.06 25.94 L 6.98 25.93 L 6.91 25.92 L 6.84 25.92 L 6.77 25.91 L 6.72 25.91 L 6.69 25.91 L 6.68 25.91 L 9.07 29.06 L 8.71 28.32 L 8.43 27.30 L 8.05 26.71 L 7.58 26.11 L 7.21 25.92 L 6.68 25.91 L 6.68 25.91" stroke="rgba(255,255,255,0.92)" stroke-width="1.0" fill="none"/>
  <path d="M 28.80 52.20 L 28.83 52.13 L 28.86 51.78 L 28.82 50.85 L 28.81 50.48 L 28.77 50.20 L 28.74 50.03 L 28.71 49.79 L 28.66 49.64 L 28.55 49.52 L 28.24 49.33 L 27.60 49.11 L 27.10 48.98 L 26.35 48.82 L 25.69 48.69 L 24.88 48.55 L 24.01 48.41 L 22.59 48.23 L 21.06 48.15 L 19.51 48.15 L 18.65 48.22 L 17.88 48.31 L 16.45 48.50 L 15.20 48.67 L 14.52 48.78 L 12.86 49.15 L 11.27 49.58 L 10.81 49.75 L 10.34 49.98 L 10.13 50.13 L 10.06 50.23 L 10.17 48.74 L 10.28 45.70 L 10.35 42.70 L 10.26 39.08 L 10.00 35.47 L 9.65 32.95 L 9.17 30.67 L 8.71 29.06 L 8.35 28.21 L 8.18 27.75 L 7.80 26.90 L 7.37 26.32 L 7.06 26.05 L 6.85 25.97 L 6.66 25.94 L 6.50 25.92 L 6.32 25.91 L 6.91 27.50 L 7.45 29.30 L 7.94 31.76 L 8.21 33.82 L 8.51 37.38 L 8.71 41.91 L 8.77 46.41 L 8.38 53.60 L 8.03 58.23 L 7.43 63.72 L 6.66 68.67 L 8.12 68.67 L 9.79 54.37 L 26.81 54.37 L 26.81 58.71 L 27.32 66.59 L 27.32 68.67 L 28.50 68.67 L 28.50 52.20 Z" stroke="rgba(255,255,255,0.92)" stroke-width="1.0" fill="none"/>
  <path d="M 71.60 52.20 L 71.57 52.13 L 71.54 51.78 L 71.58 50.85 L 71.59 50.48 L 71.63 50.20 L 71.66 50.03 L 71.69 49.79 L 71.74 49.64 L 71.84 49.52 L 72.16 49.33 L 72.80 49.11 L 73.30 48.98 L 74.05 48.82 L 74.70 48.69 L 75.52 48.55 L 76.39 48.41 L 77.80 48.23 L 79.34 48.15 L 80.89 48.15 L 81.75 48.22 L 82.52 48.31 L 83.95 48.50 L 85.20 48.67 L 85.88 48.78 L 87.54 49.15 L 89.13 49.58 L 89.59 49.75 L 90.06 49.98 L 90.27 50.13 L 90.33 50.23 L 90.23 48.74 L 90.12 45.70 L 90.05 42.70 L 90.14 39.08 L 90.40 35.47 L 90.75 32.95 L 91.22 30.67 L 91.69 29.06 L 92.05 28.21 L 92.21 27.75 L 92.59 26.90 L 93.02 26.32 L 93.34 26.05 L 93.55 25.97 L 93.73 25.94 L 93.90 25.92 L 94.07 25.91 L 93.49 27.50 L 92.95 29.30 L 92.46 31.76 L 92.19 33.82 L 91.89 37.38 L 91.69 41.91 L 91.63 46.41 L 92.02 53.60 L 92.36 58.23 L 92.97 63.72 L 93.74 68.67 L 92.28 68.67 L 90.61 54.37 L 73.59 54.37 L 73.59 58.71 L 73.08 66.59 L 73.08 68.67 L 71.90 68.67 L 71.90 52.20 Z" stroke="rgba(255,255,255,0.92)" stroke-width="1.0" fill="none"/>
  <path d="M 61.55 38.13 L 74.39 38.13 L 74.53 38.12 L 74.70 38.06 L 74.93 37.90 L 74.97 37.85 L 75.10 37.59 L 75.13 37.39 L 75.12 37.25 L 75.09 37.17 L 75.01 36.99 L 74.95 36.91 L 74.85 36.81 L 74.76 36.75 L 74.65 36.70 L 74.59 36.68 L 74.39 36.65 L 25.20 36.65 L 25.01 36.68 L 24.87 36.73 L 24.81 36.77 L 24.70 36.85 L 24.63 36.92 L 24.58 36.99 L 24.53 37.08 L 24.49 37.19 L 24.47 37.32 L 24.46 37.39 L 24.48 37.55 L 24.51 37.65 L 24.60 37.82 L 24.68 37.91 L 24.82 38.02 L 25.00 38.10 L 39.20 38.13 L 39.20 68.74 L 61.55 68.74 L 61.55 68.62 Z" stroke="rgba(255,255,255,0.92)" stroke-width="1.0" fill="none"/>
  <circle cx="50.00" cy="50.00" r="25.33" stroke="rgba(255,255,255,0.92)" stroke-width="1.0" fill="none"/>
  <circle cx="50.00" cy="50.00" r="23.26" stroke="rgba(255,255,255,0.92)" stroke-width="1.0" fill="none"/>
  <path d="M 97.66 59.46 A 56.60 56.60 0 0 1 97.55 42.75" stroke="rgba(255,255,255,0.92)" stroke-width="1.0" fill="none"/>
  <path d="M 77.67 40.52 A 88.19 88.19 0 0 1 77.83 56.31" stroke="rgba(255,255,255,0.92)" stroke-width="1.0" fill="none"/>
  <path d="M 77.88 40.50 A 88.40 88.40 0 0 1 78.05 56.23" stroke="rgba(255,255,255,0.92)" stroke-width="1.0" fill="none"/>
  <path d="M 78.55 40.80 A 89.04 89.04 0 0 1 78.70 56.00" stroke="rgba(255,255,255,0.92)" stroke-width="1.0" fill="none"/>
  <path d="M 77.83 42.27 L 77.83 42.27 L 81.77 40.19 L 97.66 42.02 L 97.91 41.61 L 97.93 41.61 L 97.96 41.61 L 98.98 42.57 L 98.87 58.17 L 97.82 59.12 L 97.55 58.73 L 81.64 60.34 L 77.67 58.06 L 77.67 58.06" stroke="rgba(255,255,255,0.92)" stroke-width="1.0" fill="none"/>
  <path d="M 78.05 42.34 L 81.79 40.40 L 97.60 42.22 L 97.63 42.23" stroke="rgba(255,255,255,0.92)" stroke-width="1.0" fill="none"/>
  <path d="M 97.52 58.52 L 97.49 58.52 L 81.66 60.14 L 77.83 57.92" stroke="rgba(255,255,255,0.92)" stroke-width="1.0" fill="none"/>
  <path d="M 78.70 42.58 L 81.85 41.03 L 97.42 42.83 L 98.14 42.71 L 98.04 58.04 L 97.32 57.91 L 81.74 59.51 L 78.55 57.78" stroke="rgba(255,255,255,0.92)" stroke-width="1.0" fill="none"/>
  <path d="M 57.47 210.04 A 56.60 56.60 0 0 1 40.76 210.15" stroke="rgba(255,255,255,0.92)" stroke-width="1.0" fill="none"/>
  <path d="M 41.43 -97.30 A 88.19 88.19 0 0 1 57.22 -97.46" stroke="rgba(255,255,255,0.92)" stroke-width="1.0" fill="none"/>
  <path d="M 41.41 -97.52 A 88.40 88.40 0 0 1 57.15 -97.68" stroke="rgba(255,255,255,0.92)" stroke-width="1.0" fill="none"/>
  <path d="M 41.71 -98.18 A 89.04 89.04 0 0 1 56.91 -98.33" stroke="rgba(255,255,255,0.92)" stroke-width="1.0" fill="none"/>
  <path d="M 57.22 78.36 L 57.22 78.36 L 59.30 82.30 L 57.47 98.19 L 57.88 98.45 L 57.88 98.46 L 57.88 98.49 L 56.92 99.51 L 41.32 99.41 L 40.37 98.35 L 40.76 98.08 L 39.14 82.17 L 41.43 78.20 L 41.43 78.20" stroke="rgba(255,255,255,0.92)" stroke-width="1.0" fill="none"/>
  <path d="M 57.15 78.58 L 59.09 82.32 L 57.27 98.13 L 57.26 98.16" stroke="rgba(255,255,255,0.92)" stroke-width="1.0" fill="none"/>
  <path d="M 40.97 98.05 L 40.96 98.03 L 39.35 82.19 L 41.57 78.37" stroke="rgba(255,255,255,0.92)" stroke-width="1.0" fill="none"/>
  <path d="M 56.91 79.23 L 58.46 82.38 L 56.66 97.95 L 56.78 98.67 L 41.45 98.57 L 41.57 97.86 L 39.98 82.27 L 41.71 79.08" stroke="rgba(255,255,255,0.92)" stroke-width="1.0" fill="none"/>
  <path d="M 2.45 42.75 A 56.60 56.60 0 0 1 2.34 59.46" stroke="rgba(255,255,255,0.92)" stroke-width="1.0" fill="none"/>
  <path d="M 22.17 56.31 A 88.19 88.19 0 0 1 22.33 40.52" stroke="rgba(255,255,255,0.92)" stroke-width="1.0" fill="none"/>
  <path d="M 21.95 56.23 A 88.40 88.40 0 0 1 22.12 40.50" stroke="rgba(255,255,255,0.92)" stroke-width="1.0" fill="none"/>
  <path d="M 21.30 56.00 A 89.04 89.04 0 0 1 21.45 40.80" stroke="rgba(255,255,255,0.92)" stroke-width="1.0" fill="none"/>
  <path d="M 22.17 42.27 L 22.17 42.27 L 18.23 40.19 L 2.34 42.02 L 2.09 41.61 L 2.07 41.61 L 2.04 41.61 L 1.02 42.57 L 1.13 58.17 L 2.18 59.12 L 2.45 58.73 L 18.36 60.34 L 22.33 58.06 L 22.33 58.06" stroke="rgba(255,255,255,0.92)" stroke-width="1.0" fill="none"/>
  <path d="M 21.95 42.34 L 18.21 40.40 L 2.40 42.22 L 2.37 42.23" stroke="rgba(255,255,255,0.92)" stroke-width="1.0" fill="none"/>
  <path d="M 2.48 58.52 L 2.51 58.52 L 18.34 60.14 L 22.17 57.92" stroke="rgba(255,255,255,0.92)" stroke-width="1.0" fill="none"/>
  <path d="M 21.30 42.58 L 18.15 41.03 L 2.58 42.83 L 1.86 42.71 L 1.96 58.04 L 2.68 57.91 L 18.26 59.51 L 21.45 57.78" stroke="rgba(255,255,255,0.92)" stroke-width="1.0" fill="none"/>
  <path d="M 40.76 -110.15 A 56.60 56.60 0 0 1 57.47 -110.04" stroke="rgba(255,255,255,0.92)" stroke-width="1.0" fill="none"/>
  <path d="M 57.22 197.46 A 88.19 88.19 0 0 1 41.43 197.30" stroke="rgba(255,255,255,0.92)" stroke-width="1.0" fill="none"/>
  <path d="M 57.15 197.68 A 88.40 88.40 0 0 1 41.41 197.52" stroke="rgba(255,255,255,0.92)" stroke-width="1.0" fill="none"/>
  <path d="M 56.91 198.33 A 89.04 89.04 0 0 1 41.71 198.18" stroke="rgba(255,255,255,0.92)" stroke-width="1.0" fill="none"/>
  <path d="M 57.22 21.64 L 57.22 21.64 L 59.30 17.70 L 57.47 1.81 L 57.88 1.55 L 57.88 1.54 L 57.88 1.51 L 56.92 0.49 L 41.32 0.59 L 40.37 1.65 L 40.76 1.92 L 39.14 17.83 L 41.43 21.80 L 41.43 21.80" stroke="rgba(255,255,255,0.92)" stroke-width="1.0" fill="none"/>
  <path d="M 57.15 21.42 L 59.09 17.68 L 57.27 1.87 L 57.26 1.84" stroke="rgba(255,255,255,0.92)" stroke-width="1.0" fill="none"/>
  <path d="M 40.97 1.95 L 40.96 1.97 L 39.35 17.81 L 41.57 21.63" stroke="rgba(255,255,255,0.92)" stroke-width="1.0" fill="none"/>
  <path d="M 56.91 20.77 L 58.46 17.62 L 56.66 2.05 L 56.78 1.33 L 41.45 1.43 L 41.57 2.14 L 39.98 17.73 L 41.71 20.92" stroke="rgba(255,255,255,0.92)" stroke-width="1.0" fill="none"/>
  <path d="M 58.94 8.74 L 58.22 4.73 L 57.97 3.67 L 57.65 2.46 L 57.47 1.81 L 57.61 1.80 L 57.72 1.75 L 57.77 1.71 L 57.86 1.58 L 57.88 1.42 L 57.82 1.19 L 57.71 0.96 L 57.59 0.81 L 57.41 0.66 L 57.11 0.52 L 56.69 0.47 L 55.98 0.41 L 55.05 0.34 L 54.34 0.15 L 53.08 0.22 L 51.55 0.17 L 49.96 0.15 L 48.53 0.15 L 46.70 0.20 L 45.84 0.24 L 44.55 0.31 L 43.88 0.36 L 43.25 0.41 L 42.78 0.45 L 42.19 0.51 L 41.32 0.59 L 40.97 0.69 L 40.78 0.81 L 40.64 0.94 L 40.52 1.10 L 40.46 1.23 L 40.41 1.36 L 40.39 1.47 L 40.38 1.55 L 40.37 1.63 L 40.39 1.70 L 40.43 1.78 L 40.45 1.80 L 40.52 1.86 L 40.59 1.90 L 40.68 1.92 L 40.76 1.92 L 40.60 2.52 L 40.39 3.36 L 40.19 4.18 L 39.73 6.48 L 39.56 7.56 L 39.25 10.04 L 39.10 12.18 L 39.03 14.59 L 39.07 16.57 L 39.14 17.83 L 39.31 18.57 L 39.52 19.18 L 39.90 19.96 L 40.36 20.68 L 40.82 21.22 L 41.43 21.80 L 57.22 21.64 L 57.56 21.32 L 58.02 20.78 L 58.44 20.17 L 59.08 18.74 L 59.28 17.85 L 59.33 17.06 L 59.37 15.67 L 59.29 12.31 L 59.13 10.36 Z" stroke="rgba(255,255,255,0.92)" stroke-width="1.0" fill="none"/>
  <path d="M 9.27 40.55 L 5.26 41.27 L 4.20 41.52 L 2.99 41.83 L 2.34 42.02 L 2.33 41.88 L 2.29 41.77 L 2.24 41.71 L 2.11 41.63 L 1.95 41.61 L 1.72 41.67 L 1.50 41.78 L 1.35 41.89 L 1.20 42.08 L 1.06 42.38 L 1.00 42.80 L 0.94 43.51 L 0.87 44.44 L 0.68 45.15 L 0.76 46.41 L 0.70 47.94 L 0.68 49.53 L 0.69 50.96 L 0.73 52.79 L 0.77 53.65 L 0.85 54.93 L 0.89 55.61 L 0.94 56.24 L 0.98 56.71 L 1.04 57.30 L 1.13 58.17 L 1.22 58.52 L 1.34 58.71 L 1.47 58.85 L 1.64 58.97 L 1.76 59.03 L 1.89 59.08 L 2.00 59.10 L 2.09 59.11 L 2.17 59.12 L 2.23 59.10 L 2.31 59.06 L 2.33 59.04 L 2.39 58.97 L 2.43 58.90 L 2.45 58.80 L 2.45 58.73 L 3.05 58.89 L 3.89 59.10 L 4.71 59.30 L 7.01 59.76 L 8.10 59.93 L 10.57 60.24 L 12.71 60.39 L 15.13 60.46 L 17.10 60.41 L 18.36 60.34 L 19.10 60.18 L 19.72 59.96 L 20.49 59.59 L 21.21 59.12 L 21.75 58.67 L 22.33 58.06 L 22.17 42.27 L 21.85 41.93 L 21.31 41.47 L 20.70 41.05 L 19.27 40.41 L 18.38 40.21 L 17.59 40.16 L 16.20 40.12 L 12.84 40.20 L 10.89 40.35 Z" stroke="rgba(255,255,255,0.92)" stroke-width="1.0" fill="none"/>
  <path d="M 58.94 91.26 L 58.22 95.27 L 57.97 96.33 L 57.65 97.54 L 57.47 98.19 L 57.61 98.20 L 57.72 98.25 L 57.77 98.29 L 57.86 98.42 L 57.88 98.58 L 57.82 98.81 L 57.71 99.04 L 57.59 99.19 L 57.41 99.34 L 57.11 99.48 L 56.69 99.53 L 55.98 99.59 L 55.05 99.66 L 54.34 99.85 L 53.08 99.78 L 51.55 99.83 L 49.96 99.85 L 48.53 99.85 L 46.70 99.80 L 45.84 99.76 L 44.55 99.69 L 43.88 99.64 L 43.25 99.59 L 42.78 99.55 L 42.19 99.49 L 41.32 99.41 L 40.97 99.31 L 40.78 99.19 L 40.64 99.06 L 40.52 98.90 L 40.46 98.77 L 40.41 98.64 L 40.39 98.53 L 40.38 98.45 L 40.37 98.37 L 40.39 98.30 L 40.43 98.22 L 40.45 98.20 L 40.52 98.14 L 40.59 98.10 L 40.68 98.08 L 40.76 98.08 L 40.60 97.48 L 40.39 96.64 L 40.19 95.82 L 39.73 93.52 L 39.56 92.44 L 39.25 89.96 L 39.10 87.82 L 39.03 85.41 L 39.07 83.43 L 39.14 82.17 L 39.31 81.43 L 39.52 80.82 L 39.90 80.04 L 40.36 79.32 L 40.82 78.78 L 41.43 78.20 L 57.22 78.36 L 57.56 78.68 L 58.02 79.22 L 58.44 79.83 L 59.08 81.26 L 59.28 82.15 L 59.33 82.94 L 59.37 84.33 L 59.29 87.69 L 59.13 89.64 Z" stroke="rgba(255,255,255,0.92)" stroke-width="1.0" fill="none"/>
  <path d="M 90.73 40.55 L 94.74 41.27 L 95.80 41.52 L 97.01 41.83 L 97.66 42.02 L 97.67 41.88 L 97.71 41.77 L 97.76 41.71 L 97.89 41.63 L 98.05 41.61 L 98.28 41.67 L 98.50 41.78 L 98.65 41.89 L 98.80 42.08 L 98.94 42.38 L 99.00 42.80 L 99.06 43.51 L 99.13 44.44 L 99.32 45.15 L 99.24 46.41 L 99.30 47.94 L 99.32 49.53 L 99.31 50.96 L 99.27 52.79 L 99.23 53.65 L 99.15 54.93 L 99.11 55.61 L 99.06 56.24 L 99.02 56.71 L 98.96 57.30 L 98.87 58.17 L 98.78 58.52 L 98.66 58.71 L 98.53 58.85 L 98.36 58.97 L 98.24 59.03 L 98.11 59.08 L 98.00 59.10 L 97.91 59.11 L 97.83 59.12 L 97.77 59.10 L 97.69 59.06 L 97.67 59.04 L 97.61 58.97 L 97.57 58.90 L 97.55 58.80 L 97.55 58.73 L 96.95 58.89 L 96.11 59.10 L 95.29 59.30 L 92.99 59.76 L 91.90 59.93 L 89.43 60.24 L 87.29 60.39 L 84.87 60.46 L 82.90 60.41 L 81.64 60.34 L 80.90 60.18 L 80.28 59.96 L 79.51 59.59 L 78.79 59.12 L 78.25 58.67 L 77.67 58.06 L 77.83 42.27 L 78.15 41.93 L 78.69 41.47 L 79.30 41.05 L 80.73 40.41 L 81.62 40.21 L 82.41 40.16 L 83.80 40.12 L 87.16 40.20 L 89.11 40.35 Z" stroke="rgba(255,255,255,0.92)" stroke-width="1.0" fill="none"/>
  <path d="M 75.33 49.99 L 75.09 46.52 L 74.43 43.29 L 72.86 39.07 L 71.57 36.71 L 69.82 34.21 L 67.50 31.67 L 66.20 30.51 L 64.13 28.96 L 61.39 27.36 L 59.10 26.35 L 57.42 25.77 L 55.21 25.20 L 52.57 24.79 L 50.58 24.66 L 47.78 24.75 L 45.30 25.10 L 42.51 25.79 L 39.92 26.75 L 37.33 28.05 L 34.87 29.67 L 32.21 31.96 L 30.29 34.07 L 29.02 35.80 L 27.74 37.90 L 26.53 40.44 L 25.33 44.24 L 24.78 47.64 L 24.81 52.67 L 24.96 53.82 L 26.67 59.87 L 28.46 63.32 L 31.65 67.45 L 35.64 70.86 L 38.40 72.51 L 43.53 74.48 L 47.16 75.16 L 54.97 74.83 L 57.65 74.14 L 61.54 72.54 L 64.15 71.00 L 67.66 68.15 L 70.65 64.66 L 72.22 62.15 L 72.61 61.41 L 74.47 56.55 Z" stroke="rgba(255,255,255,0.92)" stroke-width="1.0" fill="none"/>
</svg>
