<svg xmlns="http://www.w3.org/2000/svg" viewBox="0 0 100.00 85.52" data-cad-width="917.9" data-cad-height="785.0">
  <path d="M 0.00 85.52 L 0.00 46.30" stroke="rgba(255,255,255,0.92)" stroke-width="1.0" fill="none"/>
  <path d="M 16.34 85.52 L 16.34 46.30" stroke="rgba(255,255,255,0.92)" stroke-width="1.0" fill="none"/>
  <path d="M 0.00 46.30 L 74.63 46.30" stroke="rgba(255,255,255,0.92)" stroke-width="1.0" fill="none"/>
  <path d="M 0.00 85.52 L 74.63 85.52" stroke="rgba(255,255,255,0.92)" stroke-width="1.0" fill="none"/>
  <path d="M 74.63 46.30 A 19.61 19.61 0 0 1 74.63 85.52" stroke="rgba(255,255,255,0.92)" stroke-width="1.0" fill="none"/>
  <path d="M 74.63 54.58 A 11.33 11.33 0 0 1 74.63 77.24" stroke="rgba(255,255,255,0.92)" stroke-width="1.0" fill="none"/>
  <path d="M 74.63 56.23 A 9.68 9.68 0 0 1 74.63 75.59" stroke="rgba(255,255,255,0.92)" stroke-width="1.0" fill="none"/>
  <path d="M 53.93 78.02 A 12.10 12.10 0 0 1 53.93 53.81" stroke="rgba(255,255,255,0.92)" stroke-width="1.0" fill="none"/>
  <path d="M 53.93 80.08 A 14.16 14.16 0 0 1 53.93 51.75" stroke="rgba(255,255,255,0.92)" stroke-width="1.0" fill="none"/>
  <path d="M 53.93 80.08 L 74.63 77.24" stroke="rgba(255,255,255,0.92)" stroke-width="1.0" fill="none"/>
  <path d="M 53.93 78.02 L 74.63 75.59" stroke="rgba(255,255,255,0.92)" stroke-width="1.0" fill="none"/>
  <path d="M 53.93 53.81 L 74.63 56.23" stroke="rgba(255,255,255,0.92)" stroke-width="1.0" fill="none"/>
  <path d="M 53.93 51.75 L 74.63 54.58" stroke="rgba(255,255,255,0.92)" stroke-width="1.0" fill="none"/>
  <path d="M 9.81 70.27 L 9.81 61.56 L 8.72 60.47 L 7.63 60.47 L 6.54 61.56 L 6.54 70.27 L 7.63 71.36 L 8.72 71.36 Z" stroke="rgba(255,255,255,0.92)" stroke-width="1.0" fill="none"/>
  <path d="M 10.89 70.27 L 10.89 61.56 L 8.72 59.38 L 7.63 59.38 L 5.45 61.56 L 5.45 70.27 L 7.63 72.45 L 8.72 72.45 Z" stroke="rgba(255,255,255,0.92)" stroke-width="1.0" fill="none"/>
  <path d="M 6.54 64.38 L 9.81 64.38" stroke="rgba(255,255,255,0.92)" stroke-width="1.0" fill="none"/>
  <path d="M 65.30 66.86 L 65.30 64.68 L 60.94 60.32 L 52.23 60.32 L 48.96 63.59 L 48.96 67.95 L 52.23 71.22 L 60.94 71.22 Z" stroke="rgba(255,255,255,0.92)" stroke-width="1.0" fill="none"/>
  <circle cx="32.41" cy="76.37" r="2.00" stroke="rgba(255,255,255,0.92)" stroke-width="1.0" fill="none"/>
  <circle cx="32.41" cy="55.46" r="2.00" stroke="rgba(255,255,255,0.92)" stroke-width="1.0" fill="none"/>
  <path d="M 5.76 1.09 L 5.76 85.52" stroke="rgba(255,255,255,0.92)" stroke-width="1.0" fill="none"/>
  <path d="M 100.00 35.95 L 100.00 41.40" stroke="rgba(255,255,255,0.92)" stroke-width="1.0" fill="none"/>
  <path d="M 5.76 1.09 L 23.19 1.09" stroke="rgba(255,255,255,0.92)" stroke-width="1.0" fill="none"/>
  <path d="M 5.76 85.52 L 89.11 85.52" stroke="rgba(255,255,255,0.92)" stroke-width="1.0" fill="none"/>
  <path d="M 23.19 41.40 L 100.00 41.40" stroke="rgba(255,255,255,0.92)" stroke-width="1.0" fill="none"/>
  <path d="M 45.53 39.22 L 100.00 39.22" stroke="rgba(255,255,255,0.92)" stroke-width="1.0" fill="none"/>
  <path d="M 45.53 35.95 L 100.00 35.95" stroke="rgba(255,255,255,0.92)" stroke-width="1.0" fill="none"/>
  <path d="M 22.10 1.09 L 22.10 85.52" stroke="rgba(255,255,255,0.92)" stroke-width="1.0" fill="none"/>
  <path d="M 23.19 1.09 L 23.19 41.40" stroke="rgba(255,255,255,0.92)" stroke-width="1.0" fill="none"/>
  <path d="M 45.53 39.22 L 45.53 41.40" stroke="rgba(255,255,255,0.92)" stroke-width="1.0" fill="none"/>
  <path d="M 45.53 39.22 L 41.67 35.37" stroke="rgba(255,255,255,0.92)" stroke-width="1.0" fill="none"/>
  <path d="M 41.67 35.37 L 41.67 32.10" stroke="rgba(255,255,255,0.92)" stroke-width="1.0" fill="none"/>
  <path d="M 41.67 32.10 L 45.53 35.95" stroke="rgba(255,255,255,0.92)" stroke-width="1.0" fill="none"/>
  <path d="M 100.00 104.86 A 46.30 46.30 0 0 1 89.11 60.74" stroke="rgba(255,255,255,0.92)" stroke-width="1.0" fill="none"/>
  <path d="M 11.21 0.00 L 16.65 0.00" stroke="rgba(255,255,255,0.92)" stroke-width="1.0" fill="none"/>
  <path d="M 11.21 0.00 L 11.21 1.09" stroke="rgba(255,255,255,0.92)" stroke-width="1.0" fill="none"/>
  <path d="M 16.65 0.00 L 16.65 1.09" stroke="rgba(255,255,255,0.92)" stroke-width="1.0" fill="none"/>
  <path d="M 32.40 1.09 L 71.62 1.09" stroke="rgba(255,255,255,0.92)" stroke-width="1.0" fill="none"/>
  <path d="M 45.47 0.00 L 58.55 0.00" stroke="rgba(255,255,255,0.92)" stroke-width="1.0" fill="none"/>
  <path d="M 37.85 85.52 L 66.17 85.52" stroke="rgba(255,255,255,0.92)" stroke-width="1.0" fill="none"/>
  <path d="M 32.40 41.40 L 32.40 1.09" stroke="rgba(255,255,255,0.92)" stroke-width="1.0" fill="none"/>
  <path d="M 71.62 41.40 L 71.62 1.09" stroke="rgba(255,255,255,0.92)" stroke-width="1.0" fill="none"/>
  <path d="M 32.40 35.95 L 71.62 35.95" stroke="rgba(255,255,255,0.92)" stroke-width="1.0" fill="none"/>
  <path d="M 32.40 41.40 L 71.62 41.40" stroke="rgba(255,255,255,0.92)" stroke-width="1.0" fill="none"/>
  <path d="M 37.85 63.46 A 92.73 92.73 0 0 1 32.40 107.59" stroke="rgba(255,255,255,0.92)" stroke-width="1.0" fill="none"/>
  <path d="M 71.62 107.59 A 92.73 92.73 0 0 1 66.17 63.46" stroke="rgba(255,255,255,0.92)" stroke-width="1.0" fill="none"/>
  <path d="M 45.47 0.00 L 45.47 1.09" stroke="rgba(255,255,255,0.92)" stroke-width="1.0" fill="none"/>
  <path d="M 58.55 0.00 L 58.55 1.09" stroke="rgba(255,255,255,0.92)" stroke-width="1.0" fill="none"/>
  <path d="M 53.54 1.09 L 53.54 0.00" stroke="rgba(255,255,255,0.92)" stroke-width="1.0" fill="none"/>
</svg>
