<svg xmlns="http://www.w3.org/2000/svg" viewBox="0 0 100 100" width="100" height="100">
  <path d="M 51.22 17.52 L 51.22 66.10" stroke="rgba(255,255,255,0.92)" stroke-width="1.0" fill="none"/>
  <path d="M 50.09 17.52 L 50.09 66.10" stroke="rgba(255,255,255,0.92)" stroke-width="1.0" fill="none"/>
  <path d="M 51.22 17.52 A 6.75 6.75 0 0 1 44.46 24.28" stroke="rgba(255,255,255,0.92)" stroke-width="1.0" fill="none"/>
  <path d="M 50.09 17.52 A 5.63 5.63 0 0 1 44.46 23.15" stroke="rgba(255,255,255,0.92)" stroke-width="1.0" fill="none"/>
  <path d="M 14.86 24.28 A 6.75 6.75 0 0 1 8.10 17.52" stroke="rgba(255,255,255,0.92)" stroke-width="1.0" fill="none"/>
  <path d="M 14.86 23.15 A 5.63 5.63 0 0 1 9.23 17.52" stroke="rgba(255,255,255,0.92)" stroke-width="1.0" fill="none"/>
  <path d="M 14.86 10.77 L 24.03 10.77" stroke="rgba(255,255,255,0.92)" stroke-width="1.0" fill="none"/>
  <path d="M 25.16 22.03 L 34.16 22.03" stroke="rgba(255,255,255,0.92)" stroke-width="1.0" fill="none"/>
  <path d="M 24.03 20.90 L 35.29 20.90" stroke="rgba(255,255,255,0.92)" stroke-width="1.0" fill="none"/>
  <path d="M 34.16 19.77 A 1.13 1.13 0 0 1 35.29 20.90" stroke="rgba(255,255,255,0.92)" stroke-width="1.0" fill="none"/>
  <path d="M 35.29 10.77 L 44.46 10.77" stroke="rgba(255,255,255,0.92)" stroke-width="1.0" fill="none"/>
  <path d="M 14.86 11.89 L 24.03 11.89" stroke="rgba(255,255,255,0.92)" stroke-width="1.0" fill="none"/>
  <path d="M 35.29 11.89 L 44.46 11.89" stroke="rgba(255,255,255,0.92)" stroke-width="1.0" fill="none"/>
  <path d="M 8.10 58.10 L 8.32 56.41 L 8.62 54.73 L 8.99 53.09 L 9.43 51.47 L 9.94 49.89 L 10.53 48.36 L 11.18 46.87 L 11.90 45.44 L 12.68 44.07 L 13.52 42.76 L 14.42 41.52 L 15.38 40.36 L 16.38 39.27 L 17.43 38.26 L 18.53 37.34 L 19.66 36.50 L 20.83 35.76 L 22.04 35.11 L 23.26 34.55 L 24.52 34.10 L 25.79 33.74 L 27.07 33.49 L 28.36 33.33 L 29.66 33.28 L 30.96 33.33 L 32.25 33.49 L 33.54 33.74 L 34.81 34.10 L 36.06 34.55 L 37.29 35.11 L 38.49 35.76 L 39.66 36.50 L 40.79 37.34 L 41.89 38.26 L 42.94 39.27 L 43.95 40.36 L 44.90 41.52 L 45.80 42.76 L 46.64 44.07 L 47.42 45.44 L 48.14 46.87 L 48.79 48.36 L 49.38 49.89 L 49.89 51.47 L 50.34 53.09 L 50.71 54.73 L 51.00 56.41 L 51.22 58.10" stroke="rgba(255,255,255,0.92)" stroke-width="1.0" fill="none"/>
  <path d="M 42.21 16.40 L 35.29 16.40" stroke="rgba(255,255,255,0.92)" stroke-width="1.0" fill="none"/>
  <path d="M 24.03 16.40 L 17.11 16.40 L 13.73 19.77 L 13.73 65.79 L 17.84 77.76 L 29.66 85.29 L 40.59 79.05 L 45.59 65.79 L 45.59 19.77 L 42.21 16.40" stroke="rgba(255,255,255,0.92)" stroke-width="1.0" fill="none"/>
  <path d="M 24.03 15.27 L 17.11 15.27 L 12.61 19.77 L 12.61 65.85 L 16.87 78.33 L 29.65 86.42 L 41.51 79.69 L 46.71 65.84 L 46.71 19.77 L 42.21 15.27 L 35.29 15.27" stroke="rgba(255,255,255,0.92)" stroke-width="1.0" fill="none"/>
  <path d="M 17.11 45.21 L 42.21 45.21" stroke="rgba(255,255,255,0.92)" stroke-width="1.0" fill="none"/>
  <path d="M 17.11 46.34 L 42.21 46.34" stroke="rgba(255,255,255,0.92)" stroke-width="1.0" fill="none"/>
  <path d="M 42.21 38.46 A 3.38 3.38 0 0 1 45.59 41.84" stroke="rgba(255,255,255,0.92)" stroke-width="1.0" fill="none"/>
  <path d="M 42.21 37.33 A 4.50 4.50 0 0 1 46.71 41.84" stroke="rgba(255,255,255,0.92)" stroke-width="1.0" fill="none"/>
  <path d="M 9.23 17.52 L 9.22 65.98" stroke="rgba(255,255,255,0.92)" stroke-width="1.0" fill="none"/>
  <path d="M 8.10 66.10 L 8.10 17.52" stroke="rgba(255,255,255,0.92)" stroke-width="1.0" fill="none"/>
  <path d="M 47.71 34.68 L 49.09 34.13" stroke="rgba(255,255,255,0.92)" stroke-width="1.0" fill="none"/>
  <path d="M 48.13 35.73 L 49.51 35.18" stroke="rgba(255,255,255,0.92)" stroke-width="1.0" fill="none"/>
  <path d="M 49.09 27.86 A 3.38 3.38 0 0 1 50.09 28.48" stroke="rgba(255,255,255,0.92)" stroke-width="1.0" fill="none"/>
  <path d="M 49.51 26.82 A 4.50 4.50 0 0 1 51.22 28.02" stroke="rgba(255,255,255,0.92)" stroke-width="1.0" fill="none"/>
  <path d="M 45.59 37.82 L 45.59 41.84" stroke="rgba(255,255,255,0.92)" stroke-width="1.0" fill="none"/>
  <path d="M 46.71 37.82 L 46.71 41.84" stroke="rgba(255,255,255,0.92)" stroke-width="1.0" fill="none"/>
  <path d="M 47.71 40.96 A 3.38 3.38 0 0 1 45.59 37.82" stroke="rgba(255,255,255,0.92)" stroke-width="1.0" fill="none"/>
  <path d="M 48.13 39.91 A 2.25 2.25 0 0 1 46.71 37.82" stroke="rgba(255,255,255,0.92)" stroke-width="1.0" fill="none"/>
  <path d="M 13.73 41.84 A 3.38 3.38 0 0 1 17.11 38.46" stroke="rgba(255,255,255,0.92)" stroke-width="1.0" fill="none"/>
  <path d="M 12.61 41.84 A 4.50 4.50 0 0 1 17.11 37.33" stroke="rgba(255,255,255,0.92)" stroke-width="1.0" fill="none"/>
  <path d="M 9.23 28.48 A 3.38 3.38 0 0 1 10.23 27.86" stroke="rgba(255,255,255,0.92)" stroke-width="1.0" fill="none"/>
  <path d="M 8.10 28.02 A 4.50 4.50 0 0 1 9.81 26.82" stroke="rgba(255,255,255,0.92)" stroke-width="1.0" fill="none"/>
  <path d="M 13.73 37.82 L 13.73 41.84" stroke="rgba(255,255,255,0.92)" stroke-width="1.0" fill="none"/>
  <path d="M 12.61 37.82 L 12.61 41.84" stroke="rgba(255,255,255,0.92)" stroke-width="1.0" fill="none"/>
  <path d="M 13.73 37.82 A 3.38 3.38 0 0 1 11.61 40.96" stroke="rgba(255,255,255,0.92)" stroke-width="1.0" fill="none"/>
  <path d="M 12.61 37.82 A 2.25 2.25 0 0 1 11.19 39.91" stroke="rgba(255,255,255,0.92)" stroke-width="1.0" fill="none"/>
  <path d="M 11.61 34.68 L 10.23 34.13" stroke="rgba(255,255,255,0.92)" stroke-width="1.0" fill="none"/>
  <path d="M 11.19 35.73 L 9.81 35.18" stroke="rgba(255,255,255,0.92)" stroke-width="1.0" fill="none"/>
  <path d="M 24.03 10.77 L 24.03 20.90" stroke="rgba(255,255,255,0.92)" stroke-width="1.0" fill="none"/>
  <path d="M 24.03 20.90 A 1.13 1.13 0 0 1 25.16 19.77" stroke="rgba(255,255,255,0.92)" stroke-width="1.0" fill="none"/>
  <path d="M 25.16 11.89 A 1.13 1.13 0 0 1 24.03 10.77" stroke="rgba(255,255,255,0.92)" stroke-width="1.0" fill="none"/>
  <path d="M 35.29 10.77 L 35.29 20.90" stroke="rgba(255,255,255,0.92)" stroke-width="1.0" fill="none"/>
  <path d="M 35.29 10.77 A 1.13 1.13 0 0 1 34.16 11.89" stroke="rgba(255,255,255,0.92)" stroke-width="1.0" fill="none"/>
  <path d="M 34.16 9.64 L 25.16 9.64" stroke="rgba(255,255,255,0.92)" stroke-width="1.0" fill="none"/>
  <path d="M 0.00 37.31 L 0.00 51.94" stroke="rgba(255,255,255,0.92)" stroke-width="1.0" fill="none"/>
  <path d="M 3.38 40.68 A 3.38 3.38 0 0 1 -0.00 37.31" stroke="rgba(255,255,255,0.92)" stroke-width="1.0" fill="none"/>
  <path d="M 3.38 33.93 L 4.73 33.93" stroke="rgba(255,255,255,0.92)" stroke-width="1.0" fill="none"/>
  <path d="M 3.38 55.32 L 4.73 55.32" stroke="rgba(255,255,255,0.92)" stroke-width="1.0" fill="none"/>
  <path d="M -0.00 51.94 A 3.38 3.38 0 0 1 3.38 48.56" stroke="rgba(255,255,255,0.92)" stroke-width="1.0" fill="none"/>
  <path d="M 8.10 37.31 L 8.10 51.94" stroke="rgba(255,255,255,0.92)" stroke-width="1.0" fill="none"/>
  <path d="M 4.73 48.56 A 3.38 3.38 0 0 1 8.10 51.94" stroke="rgba(255,255,255,0.92)" stroke-width="1.0" fill="none"/>
  <path d="M 8.10 37.31 A 3.38 3.38 0 0 1 4.73 40.68" stroke="rgba(255,255,255,0.92)" stroke-width="1.0" fill="none"/>
  <path d="M 4.73 54.19 L 6.98 51.94 L 6.98 37.31 L 4.73 35.06 L 3.38 35.06 L 1.13 37.31 L 1.13 51.94 L 3.38 54.19 Z" stroke="rgba(255,255,255,0.92)" stroke-width="1.0" fill="none"/>
  <path d="M 8.10 45.19 L 5.04 45.19" stroke="rgba(255,255,255,0.92)" stroke-width="1.0" fill="none"/>
  <circle cx="4.05" cy="45.65" r="0.56" stroke="rgba(255,255,255,0.92)" stroke-width="1.0" fill="none"/>
  <path d="M 4.82 45.36 A 0.79 0.79 0 0 1 3.28 45.36" stroke="rgba(255,255,255,0.92)" stroke-width="1.0" fill="none"/>
  <path d="M 3.06 44.74 A 0.23 0.23 0 0 1 3.28 44.91" stroke="rgba(255,255,255,0.92)" stroke-width="1.0" fill="none"/>
  <path d="M 4.82 44.91 A 0.23 0.23 0 0 1 5.04 44.74" stroke="rgba(255,255,255,0.92)" stroke-width="1.0" fill="none"/>
  <path d="M 3.06 45.19 L 0.00 45.19" stroke="rgba(255,255,255,0.92)" stroke-width="1.0" fill="none"/>
  <circle cx="6.16" cy="49.28" r="0.56" stroke="rgba(255,255,255,0.92)" stroke-width="1.0" fill="none"/>
  <circle cx="4.05" cy="52.91" r="0.56" stroke="rgba(255,255,255,0.92)" stroke-width="1.0" fill="none"/>
  <circle cx="1.95" cy="49.28" r="0.56" stroke="rgba(255,255,255,0.92)" stroke-width="1.0" fill="none"/>
  <path d="M 9.70 14.63 L 9.70 31.39" stroke="rgba(255,255,255,0.92)" stroke-width="1.0" fill="none"/>
  <path d="M 82.32 76.98 L 11.43 76.98" stroke="rgba(255,255,255,0.92)" stroke-width="1.0" fill="none"/>
  <path d="M 9.18 74.76 A 2.25 2.25 0 0 1 11.43 72.47" stroke="rgba(255,255,255,0.92)" stroke-width="1.0" fill="none"/>
  <path d="M 99.41 31.95 L 10.26 31.95" stroke="rgba(255,255,255,0.92)" stroke-width="1.0" fill="none"/>
  <path d="M 99.91 32.26 A 0.56 0.56 0 0 1 99.41 33.07" stroke="rgba(255,255,255,0.92)" stroke-width="1.0" fill="none"/>
  <path d="M 10.26 33.07 A 0.56 0.56 0 0 1 9.70 32.51" stroke="rgba(255,255,255,0.92)" stroke-width="1.0" fill="none"/>
  <path d="M 9.70 31.39 A 0.56 0.56 0 0 1 10.26 30.82" stroke="rgba(255,255,255,0.92)" stroke-width="1.0" fill="none"/>
  <path d="M 13.70 17.95 A 3.38 3.38 0 0 1 9.70 14.63" stroke="rgba(255,255,255,0.92)" stroke-width="1.0" fill="none"/>
  <path d="M 9.70 32.51 L 9.70 44.13" stroke="rgba(255,255,255,0.92)" stroke-width="1.0" fill="none"/>
  <path d="M 82.32 -61.12 A 129.19 129.19 0 0 1 99.91 -16.92" stroke="rgba(255,255,255,0.92)" stroke-width="1.0" fill="none"/>
  <path d="M 9.70 44.13 A 0.56 0.56 0 0 1 9.82 43.78" stroke="rgba(255,255,255,0.92)" stroke-width="1.0" fill="none"/>
  <path d="M 9.82 44.49 L 9.18 74.69" stroke="rgba(255,255,255,0.92)" stroke-width="1.0" fill="none"/>
  <path d="M 13.70 11.31 L 50.72 15.94 L 51.10 16.73 L 50.64 17.71" stroke="rgba(255,255,255,0.92)" stroke-width="1.0" fill="none"/>
  <path d="M 51.74 18.01 L 52.30 16.82 L 52.95 16.51 L 54.73 16.99 L 93.39 26.25 L 98.06 26.94 L 99.75 29.12 L 99.75 30.26 L 99.19 30.82 L 64.08 30.82" stroke="rgba(255,255,255,0.92)" stroke-width="1.0" fill="none"/>
  <path d="M 58.69 -3.68 A 17.86 17.86 0 0 1 64.08 -4.84" stroke="rgba(255,255,255,0.92)" stroke-width="1.0" fill="none"/>
  <path d="M 45.83 27.42 L 60.46 27.42" stroke="rgba(255,255,255,0.92)" stroke-width="1.0" fill="none"/>
  <path d="M 45.83 29.67 A 1.13 1.13 0 0 1 44.71 28.54" stroke="rgba(255,255,255,0.92)" stroke-width="1.0" fill="none"/>
  <path d="M 45.83 29.67 L 60.46 29.67" stroke="rgba(255,255,255,0.92)" stroke-width="1.0" fill="none"/>
  <path d="M 46.96 30.01 L 52.02 30.01" stroke="rgba(255,255,255,0.92)" stroke-width="1.0" fill="none"/>
  <path d="M 44.71 28.54 A 1.13 1.13 0 0 1 45.83 27.42" stroke="rgba(255,255,255,0.92)" stroke-width="1.0" fill="none"/>
  <path d="M 44.71 28.54 L 44.71 28.54" stroke="rgba(255,255,255,0.92)" stroke-width="1.0" fill="none"/>
  <path d="M 48.08 27.42 L 48.08 29.67" stroke="rgba(255,255,255,0.92)" stroke-width="1.0" fill="none"/>
  <path d="M 61.55 28.82 A 1.13 1.13 0 0 1 60.46 29.67" stroke="rgba(255,255,255,0.92)" stroke-width="1.0" fill="none"/>
  <path d="M 61.34 28.09 A 0.23 0.23 0 0 1 61.55 28.37" stroke="rgba(255,255,255,0.92)" stroke-width="1.0" fill="none"/>
  <path d="M 53.71 27.42 L 53.71 29.67" stroke="rgba(255,255,255,0.92)" stroke-width="1.0" fill="none"/>
  <path d="M 58.21 27.42 L 58.21 29.67" stroke="rgba(255,255,255,0.92)" stroke-width="1.0" fill="none"/>
  <path d="M 58.21 28.54 L 61.34 28.54" stroke="rgba(255,255,255,0.92)" stroke-width="1.0" fill="none"/>
  <path d="M 60.46 27.42 A 1.13 1.13 0 0 1 61.55 28.26" stroke="rgba(255,255,255,0.92)" stroke-width="1.0" fill="none"/>
  <path d="M 61.55 28.71 A 0.23 0.23 0 0 1 61.34 28.99" stroke="rgba(255,255,255,0.92)" stroke-width="1.0" fill="none"/>
  <path d="M 57.43 27.98 L 54.50 27.98 L 54.27 28.21 L 54.27 28.88 L 54.50 29.11 L 57.43 29.11 L 57.65 28.88 L 57.65 28.21 Z" stroke="rgba(255,255,255,0.92)" stroke-width="1.0" fill="none"/>
  <path d="M 46.96 30.01 L 46.96 29.67" stroke="rgba(255,255,255,0.92)" stroke-width="1.0" fill="none"/>
  <path d="M 52.02 30.01 L 52.02 29.67" stroke="rgba(255,255,255,0.92)" stroke-width="1.0" fill="none"/>
  <path d="M 13.64 30.26 L 12.51 30.26" stroke="rgba(255,255,255,0.92)" stroke-width="1.0" fill="none"/>
  <path d="M 11.95 29.70 A 0.56 0.56 0 0 1 12.51 29.14" stroke="rgba(255,255,255,0.92)" stroke-width="1.0" fill="none"/>
  <path d="M 13.64 29.14 L 12.51 29.14" stroke="rgba(255,255,255,0.92)" stroke-width="1.0" fill="none"/>
  <path d="M 14.20 29.70 A 0.56 0.56 0 0 1 13.64 30.26" stroke="rgba(255,255,255,0.92)" stroke-width="1.0" fill="none"/>
  <path d="M 12.51 30.26 A 0.56 0.56 0 0 1 11.95 29.70" stroke="rgba(255,255,255,0.92)" stroke-width="1.0" fill="none"/>
  <path d="M 11.95 29.70 L 11.95 29.70" stroke="rgba(255,255,255,0.92)" stroke-width="1.0" fill="none"/>
  <path d="M 14.20 29.70 L 14.20 29.70" stroke="rgba(255,255,255,0.92)" stroke-width="1.0" fill="none"/>
  <path d="M 13.64 29.14 A 0.56 0.56 0 0 1 14.20 29.70" stroke="rgba(255,255,255,0.92)" stroke-width="1.0" fill="none"/>
  <path d="M 13.08 29.70 L 13.64 29.14" stroke="rgba(255,255,255,0.92)" stroke-width="1.0" fill="none"/>
  <path d="M 13.08 29.70 L 13.64 30.26" stroke="rgba(255,255,255,0.92)" stroke-width="1.0" fill="none"/>
  <path d="M 85.68 31.95 L 85.12 30.82" stroke="rgba(255,255,255,0.92)" stroke-width="1.0" fill="none"/>
  <path d="M 87.93 31.95 L 88.50 30.82" stroke="rgba(255,255,255,0.92)" stroke-width="1.0" fill="none"/>
  <path d="M 68.24 30.82 L 68.80 31.95" stroke="rgba(255,255,255,0.92)" stroke-width="1.0" fill="none"/>
  <path d="M 71.05 31.95 L 71.61 30.82" stroke="rgba(255,255,255,0.92)" stroke-width="1.0" fill="none"/>
  <path d="M 49.01 36.13 L 49.01 31.99" stroke="rgba(255,255,255,0.92)" stroke-width="1.0" fill="none"/>
  <path d="M 11.38 12.69 L 21.28 12.69" stroke="rgba(255,255,255,0.92)" stroke-width="1.0" fill="none"/>
  <path d="M 13.63 13.76 L 21.78 13.76" stroke="rgba(255,255,255,0.92)" stroke-width="1.0" fill="none"/>
  <path d="M 13.63 18.26 A 2.25 2.25 0 0 1 11.38 16.01" stroke="rgba(255,255,255,0.92)" stroke-width="1.0" fill="none"/>
  <path d="M 32.54 12.69 L 42.44 12.69" stroke="rgba(255,255,255,0.92)" stroke-width="1.0" fill="none"/>
  <path d="M 32.03 13.76 L 40.19 13.76" stroke="rgba(255,255,255,0.92)" stroke-width="1.0" fill="none"/>
  <path d="M 10.70 18.76 A 3.38 3.38 0 0 1 8.13 16.38" stroke="rgba(255,255,255,0.92)" stroke-width="1.0" fill="none"/>
  <path d="M 11.38 12.69 A 0.56 0.56 0 0 1 10.70 13.24" stroke="rgba(255,255,255,0.92)" stroke-width="1.0" fill="none"/>
  <path d="M 17.35 77.92 L 37.55 77.92" stroke="rgba(255,255,255,0.92)" stroke-width="1.0" fill="none"/>
  <path d="M 5.95 23.60 L 8.13 14.52" stroke="rgba(255,255,255,0.92)" stroke-width="1.0" fill="none"/>
  <path d="M 5.95 24.65 A 2.25 2.25 0 0 1 5.89 24.12" stroke="rgba(255,255,255,0.92)" stroke-width="1.0" fill="none"/>
  <path d="M 45.69 14.52 L 48.88 23.49" stroke="rgba(255,255,255,0.92)" stroke-width="1.0" fill="none"/>
  <path d="M 49.01 24.25 A 2.25 2.25 0 0 1 48.88 25.00" stroke="rgba(255,255,255,0.92)" stroke-width="1.0" fill="none"/>
  <path d="M 45.69 16.38 A 3.38 3.38 0 0 1 43.11 18.76" stroke="rgba(255,255,255,0.92)" stroke-width="1.0" fill="none"/>
  <path d="M 43.11 13.24 A 0.56 0.56 0 0 1 42.44 12.69" stroke="rgba(255,255,255,0.92)" stroke-width="1.0" fill="none"/>
  <path d="M 5.89 24.12 L 5.89 27.65" stroke="rgba(255,255,255,0.92)" stroke-width="1.0" fill="none"/>
  <path d="M 7.71 -171.95 A 102.82 102.82 0 0 1 47.19 -171.95" stroke="rgba(255,255,255,0.92)" stroke-width="1.0" fill="none"/>
  <path d="M 7.01 -172.96 A 103.94 103.94 0 0 1 47.88 -172.96" stroke="rgba(255,255,255,0.92)" stroke-width="1.0" fill="none"/>
  <path d="M 47.19 25.44 A 2.25 2.25 0 0 1 49.01 27.65" stroke="rgba(255,255,255,0.92)" stroke-width="1.0" fill="none"/>
  <path d="M 5.89 27.65 A 2.25 2.25 0 0 1 7.71 25.44" stroke="rgba(255,255,255,0.92)" stroke-width="1.0" fill="none"/>
  <path d="M 49.01 31.99 A 1.13 1.13 0 0 1 47.66 33.10" stroke="rgba(255,255,255,0.92)" stroke-width="1.0" fill="none"/>
  <path d="M 5.89 35.95 A 90.87 90.87 0 0 1 6.60 22.47" stroke="rgba(255,255,255,0.92)" stroke-width="1.0" fill="none"/>
  <path d="M 7.24 33.10 A 1.13 1.13 0 0 1 5.89 32.02" stroke="rgba(255,255,255,0.92)" stroke-width="1.0" fill="none"/>
  <path d="M 48.30 22.32 A 91.32 91.32 0 0 1 49.03 34.42" stroke="rgba(255,255,255,0.92)" stroke-width="1.0" fill="none"/>
  <path d="M 21.28 12.69 L 23.23 16.83" stroke="rgba(255,255,255,0.92)" stroke-width="1.0" fill="none"/>
  <path d="M 32.54 12.69 L 30.58 16.83" stroke="rgba(255,255,255,0.92)" stroke-width="1.0" fill="none"/>
  <path d="M 21.28 10.44 L 23.88 15.96" stroke="rgba(255,255,255,0.92)" stroke-width="1.0" fill="none"/>
  <path d="M 32.54 10.44 L 29.93 15.96" stroke="rgba(255,255,255,0.92)" stroke-width="1.0" fill="none"/>
  <path d="M 32.54 40.56 A 16.08 16.08 0 0 1 21.28 40.56" stroke="rgba(255,255,255,0.92)" stroke-width="1.0" fill="none"/>
  <path d="M 27.77 49.35 A 16.08 16.08 0 0 1 26.04 49.35" stroke="rgba(255,255,255,0.92)" stroke-width="1.0" fill="none"/>
  <path d="M 23.88 14.03 A 2.25 2.25 0 0 1 26.04 12.75" stroke="rgba(255,255,255,0.92)" stroke-width="1.0" fill="none"/>
  <path d="M 27.77 12.75 A 2.25 2.25 0 0 1 29.93 14.03" stroke="rgba(255,255,255,0.92)" stroke-width="1.0" fill="none"/>
  <path d="M 24.85 16.97 L 24.24 17.87" stroke="rgba(255,255,255,0.92)" stroke-width="1.0" fill="none"/>
  <path d="M 28.97 16.97 L 29.57 17.87" stroke="rgba(255,255,255,0.92)" stroke-width="1.0" fill="none"/>
  <path d="M 28.35 50.13 A 16.08 16.08 0 0 1 25.47 50.13" stroke="rgba(255,255,255,0.92)" stroke-width="1.0" fill="none"/>
  <path d="M 28.35 13.62 A 2.25 2.25 0 0 1 30.58 14.90" stroke="rgba(255,255,255,0.92)" stroke-width="1.0" fill="none"/>
  <path d="M 23.23 14.90 A 2.25 2.25 0 0 1 25.47 13.62" stroke="rgba(255,255,255,0.92)" stroke-width="1.0" fill="none"/>
  <path d="M 21.28 10.44 L 21.28 12.69" stroke="rgba(255,255,255,0.92)" stroke-width="1.0" fill="none"/>
  <path d="M 32.54 10.44 L 32.54 12.69" stroke="rgba(255,255,255,0.92)" stroke-width="1.0" fill="none"/>
  <path d="M 5.89 -115.32 A 74.45 74.45 0 0 1 49.01 -115.32" stroke="rgba(255,255,255,0.92)" stroke-width="1.0" fill="none"/>
  <path d="M 12.04 14.42 L 11.38 12.69" stroke="rgba(255,255,255,0.92)" stroke-width="1.0" fill="none"/>
  <path d="M 49.01 24.25 L 49.01 27.65" stroke="rgba(255,255,255,0.92)" stroke-width="1.0" fill="none"/>
  <path d="M 31.04 150.13 A 61.52 61.52 0 0 1 22.78 150.13" stroke="rgba(255,255,255,0.92)" stroke-width="1.0" fill="none"/>
  <path d="M 21.83 23.01 A 2.25 2.25 0 0 1 22.78 22.87" stroke="rgba(255,255,255,0.92)" stroke-width="1.0" fill="none"/>
  <path d="M 22.31 27.40 L 21.72 28.27" stroke="rgba(255,255,255,0.92)" stroke-width="1.0" fill="none"/>
  <path d="M 31.50 27.40 L 32.09 28.27" stroke="rgba(255,255,255,0.92)" stroke-width="1.0" fill="none"/>
  <path d="M 31.63 126.62 A 49.40 49.40 0 0 1 22.18 126.62" stroke="rgba(255,255,255,0.92)" stroke-width="1.0" fill="none"/>
  <path d="M 31.63 23.79 A 2.25 2.25 0 0 1 32.64 23.93" stroke="rgba(255,255,255,0.92)" stroke-width="1.0" fill="none"/>
  <path d="M 11.38 16.01 L 11.38 19.04" stroke="rgba(255,255,255,0.92)" stroke-width="1.0" fill="none"/>
  <path d="M 16.14 -4.46 A 18.74 18.74 0 0 1 21.83 -7.85" stroke="rgba(255,255,255,0.92)" stroke-width="1.0" fill="none"/>
  <path d="M 11.38 3.39 A 18.18 18.18 0 0 1 16.14 -3.71" stroke="rgba(255,255,255,0.92)" stroke-width="1.0" fill="none"/>
  <path d="M 11.69 1.04 A 18.74 18.74 0 0 1 21.17 -6.91" stroke="rgba(255,255,255,0.92)" stroke-width="1.0" fill="none"/>
  <path d="M 21.17 23.93 A 2.25 2.25 0 0 1 22.18 23.79" stroke="rgba(255,255,255,0.92)" stroke-width="1.0" fill="none"/>
  <path d="M 11.38 19.04 A 2.25 2.25 0 0 1 11.69 17.89" stroke="rgba(255,255,255,0.92)" stroke-width="1.0" fill="none"/>
  <path d="M 42.44 16.01 A 2.25 2.25 0 0 1 40.19 18.26" stroke="rgba(255,255,255,0.92)" stroke-width="1.0" fill="none"/>
  <path d="M 42.44 16.01 L 42.44 19.04" stroke="rgba(255,255,255,0.92)" stroke-width="1.0" fill="none"/>
  <path d="M 31.98 -7.85 A 18.74 18.74 0 0 1 37.67 -4.46" stroke="rgba(255,255,255,0.92)" stroke-width="1.0" fill="none"/>
  <path d="M 31.04 22.87 A 2.25 2.25 0 0 1 31.98 23.01" stroke="rgba(255,255,255,0.92)" stroke-width="1.0" fill="none"/>
  <path d="M 37.67 -3.71 A 18.18 18.18 0 0 1 42.44 3.39" stroke="rgba(255,255,255,0.92)" stroke-width="1.0" fill="none"/>
  <path d="M 32.64 -6.91 A 18.74 18.74 0 0 1 42.12 1.04" stroke="rgba(255,255,255,0.92)" stroke-width="1.0" fill="none"/>
  <path d="M 42.12 17.89 A 2.25 2.25 0 0 1 42.44 19.04" stroke="rgba(255,255,255,0.92)" stroke-width="1.0" fill="none"/>
  <path d="M 16.14 23.08 L 16.14 25.28" stroke="rgba(255,255,255,0.92)" stroke-width="1.0" fill="none"/>
  <path d="M 37.67 23.08 L 37.67 25.28" stroke="rgba(255,255,255,0.92)" stroke-width="1.0" fill="none"/>
  <path d="M 37.67 220.09 A 99.09 99.09 0 0 1 16.14 220.09" stroke="rgba(255,255,255,0.92)" stroke-width="1.0" fill="none"/>
  <path d="M 37.67 220.84 A 99.09 99.09 0 0 1 16.14 220.84" stroke="rgba(255,255,255,0.92)" stroke-width="1.0" fill="none"/>
  <path d="M 41.78 14.42 L 42.44 12.69" stroke="rgba(255,255,255,0.92)" stroke-width="1.0" fill="none"/>
  <path d="M 7.03 24.22 L 8.13 14.52" stroke="rgba(255,255,255,0.92)" stroke-width="1.0" fill="none"/>
  <path d="M 7.03 25.27 A 2.25 2.25 0 0 1 6.96 24.74" stroke="rgba(255,255,255,0.92)" stroke-width="1.0" fill="none"/>
  <path d="M 6.96 24.74 L 6.96 27.52" stroke="rgba(255,255,255,0.92)" stroke-width="1.0" fill="none"/>
  <path d="M 44.56 14.52 L 47.75 23.49" stroke="rgba(255,255,255,0.92)" stroke-width="1.0" fill="none"/>
  <path d="M 47.88 24.25 A 2.25 2.25 0 0 1 47.75 25.00" stroke="rgba(255,255,255,0.92)" stroke-width="1.0" fill="none"/>
  <path d="M 47.88 24.25 L 47.88 27.53" stroke="rgba(255,255,255,0.92)" stroke-width="1.0" fill="none"/>
  <path d="M 17.34 41.48 L 17.50 42.49 L 22.80 77.92" stroke="rgba(255,255,255,0.92)" stroke-width="1.0" fill="none"/>
  <path d="M 37.55 41.17 L 32.10 77.92" stroke="rgba(255,255,255,0.92)" stroke-width="1.0" fill="none"/>
  <path d="M 17.34 32.40 L 17.34 41.48" stroke="rgba(255,255,255,0.92)" stroke-width="1.0" fill="none"/>
  <path d="M 37.55 32.40 L 37.55 41.48" stroke="rgba(255,255,255,0.92)" stroke-width="1.0" fill="none"/>
  <path d="M 6.96 27.52 L 7.71 29.86" stroke="rgba(255,255,255,0.92)" stroke-width="1.0" fill="none"/>
  <path d="M 47.93 27.52 L 47.19 29.86" stroke="rgba(255,255,255,0.92)" stroke-width="1.0" fill="none"/>
  <path d="M 9.85 30.25 L 9.85 31.40" stroke="rgba(255,255,255,0.92)" stroke-width="1.0" fill="none"/>
  <path d="M 45.05 30.25 L 45.05 31.40" stroke="rgba(255,255,255,0.92)" stroke-width="1.0" fill="none"/>
  <path d="M 34.97 77.92 L 48.87 39.40" stroke="rgba(255,255,255,0.92)" stroke-width="1.0" fill="none"/>
  <path d="M 6.60 45.45 L 17.35 77.92" stroke="rgba(255,255,255,0.92)" stroke-width="1.0" fill="none"/>
  <path d="M 48.30 45.45 L 37.55 77.92" stroke="rgba(255,255,255,0.92)" stroke-width="1.0" fill="none"/>
  <path d="M 19.93 77.92 L 6.03 39.40" stroke="rgba(255,255,255,0.92)" stroke-width="1.0" fill="none"/>
  <path d="M 6.35 -163.23 A 103.94 103.94 0 0 1 48.53 -163.26" stroke="rgba(255,255,255,0.92)" stroke-width="1.0" fill="none"/>
  <path d="M 17.67 -73.26 A 59.54 59.54 0 0 1 48.75 -70.13" stroke="rgba(255,255,255,0.92)" stroke-width="1.0" fill="none"/>
</svg>
