<svg xmlns="http://www.w3.org/2000/svg" viewBox="0 0 100 100" width="100" height="100">
  <path d="M 16.63 44.63 L 54.70 44.63 L 55.56 43.78 L 55.56 22.75 L 54.70 21.90 L 16.63 21.90 L 15.77 22.75 L 15.77 43.78 Z" stroke="rgba(255,255,255,0.92)" stroke-width="1.0" fill="none"/>
  <circle cx="22.31" cy="33.26" r="3.69" stroke="rgba(255,255,255,0.92)" stroke-width="1.0" fill="none"/>
  <circle cx="22.31" cy="33.26" r="5.11" stroke="rgba(255,255,255,0.92)" stroke-width="1.0" fill="none"/>
  <circle cx="31.78" cy="33.28" r="1.70" stroke="rgba(255,255,255,0.92)" stroke-width="1.0" fill="none"/>
  <circle cx="31.78" cy="33.28" r="0.14" stroke="rgba(255,255,255,0.92)" stroke-width="1.0" fill="none"/>
  <circle cx="39.55" cy="33.28" r="1.70" stroke="rgba(255,255,255,0.92)" stroke-width="1.0" fill="none"/>
  <circle cx="39.55" cy="33.28" r="0.14" stroke="rgba(255,255,255,0.92)" stroke-width="1.0" fill="none"/>
  <circle cx="49.02" cy="33.26" r="3.69" stroke="rgba(255,255,255,0.92)" stroke-width="1.0" fill="none"/>
  <circle cx="49.02" cy="33.26" r="5.11" stroke="rgba(255,255,255,0.92)" stroke-width="1.0" fill="none"/>
  <path d="M 13.65 26.32 L 2.56 27.11" stroke="rgba(255,255,255,0.92)" stroke-width="1.0" fill="none"/>
  <path d="M 13.65 38.99 L 2.56 38.20" stroke="rgba(255,255,255,0.92)" stroke-width="1.0" fill="none"/>
  <path d="M 2.56 38.19 L 2.39 38.17 L 2.22 38.13 L 2.06 38.07 L 1.89 37.98 L 1.73 37.87 L 1.58 37.73 L 1.42 37.58 L 1.28 37.40 L 1.13 37.21 L 1.00 36.99 L 0.87 36.76 L 0.75 36.51 L 0.63 36.24 L 0.53 35.96 L 0.43 35.67 L 0.34 35.36 L 0.26 35.04 L 0.19 34.71 L 0.14 34.37 L 0.09 34.03 L 0.05 33.67 L 0.02 33.32 L 0.01 32.96 L -0.00 32.60 L 0.01 32.24 L 0.02 31.88 L 0.05 31.53 L 0.09 31.18 L 0.14 30.83 L 0.19 30.50 L 0.26 30.17 L 0.34 29.85 L 0.43 29.55 L 0.53 29.26 L 0.63 28.98 L 0.75 28.72 L 0.87 28.47 L 1.00 28.25 L 1.13 28.04 L 1.28 27.85 L 1.42 27.68 L 1.58 27.53 L 1.73 27.40 L 1.89 27.30 L 2.06 27.22 L 2.22 27.16 L 2.39 27.12 L 2.56 27.11" stroke="rgba(255,255,255,0.92)" stroke-width="1.0" fill="none"/>
  <path d="M 2.84 38.20 L 2.79 38.18 L 2.74 38.15 L 2.70 38.09 L 2.65 38.01 L 2.60 37.90 L 2.55 37.77 L 2.51 37.62 L 2.47 37.45 L 2.42 37.26 L 2.38 37.05 L 2.35 36.82 L 2.31 36.57 L 2.28 36.31 L 2.25 36.03 L 2.22 35.73 L 2.19 35.42 L 2.17 35.10 L 2.15 34.77 L 2.13 34.44 L 2.12 34.09 L 2.10 33.73 L 2.10 33.38 L 2.09 33.02 L 2.09 32.65 L 2.09 32.29 L 2.10 31.93 L 2.10 31.57 L 2.12 31.22 L 2.13 30.87 L 2.15 30.53 L 2.17 30.20 L 2.19 29.88 L 2.22 29.58 L 2.25 29.28 L 2.28 29.00 L 2.31 28.74 L 2.35 28.49 L 2.38 28.26 L 2.42 28.05 L 2.47 27.86 L 2.51 27.68 L 2.55 27.53 L 2.60 27.41 L 2.65 27.30 L 2.70 27.22 L 2.74 27.16 L 2.79 27.12 L 2.84 27.11" stroke="rgba(255,255,255,0.92)" stroke-width="1.0" fill="none"/>
  <path d="M 14.25 38.33 L 14.23 38.19 L 14.21 38.04 L 14.19 37.88 L 14.17 37.71 L 14.15 37.52 L 14.14 37.33 L 14.12 37.12 L 14.10 36.91 L 14.09 36.69 L 14.07 36.46 L 14.06 36.22 L 14.05 35.98 L 14.03 35.73 L 14.02 35.47 L 14.01 35.20 L 14.00 34.93 L 14.00 34.66 L 13.99 34.38 L 13.98 34.10 L 13.98 33.81 L 13.97 33.53 L 13.97 33.24 L 13.97 32.95 L 13.97 32.65 L 13.97 32.36 L 13.97 32.07 L 13.97 31.78 L 13.98 31.50 L 13.98 31.21 L 13.99 30.93 L 14.00 30.65 L 14.00 30.38 L 14.01 30.11 L 14.02 29.84 L 14.03 29.58 L 14.05 29.33 L 14.06 29.09 L 14.07 28.85 L 14.09 28.62 L 14.10 28.40 L 14.12 28.18 L 14.14 27.98 L 14.15 27.79 L 14.17 27.60 L 14.19 27.43 L 14.21 27.27 L 14.23 27.12 L 14.25 26.98" stroke="rgba(255,255,255,0.92)" stroke-width="1.0" fill="none"/>
  <path d="M 14.25 26.80 A 0.57 0.57 0 0 1 13.65 27.45" stroke="rgba(255,255,255,0.92)" stroke-width="1.0" fill="none"/>
  <path d="M 13.65 37.85 A 0.57 0.57 0 0 1 14.25 38.51" stroke="rgba(255,255,255,0.92)" stroke-width="1.0" fill="none"/>
  <path d="M 57.68 26.32 L 68.77 27.11" stroke="rgba(255,255,255,0.92)" stroke-width="1.0" fill="none"/>
  <path d="M 57.68 38.99 L 68.77 38.20" stroke="rgba(255,255,255,0.92)" stroke-width="1.0" fill="none"/>
  <path d="M 68.65 38.19 L 68.48 38.17 L 68.31 38.13 L 68.15 38.06 L 67.99 37.97 L 67.83 37.86 L 67.67 37.72 L 67.52 37.57 L 67.38 37.39 L 67.24 37.19 L 67.10 36.98 L 66.98 36.74 L 66.86 36.49 L 66.75 36.22 L 66.64 35.94 L 66.55 35.64 L 66.46 35.33 L 66.39 35.01 L 66.32 34.68 L 66.27 34.34 L 66.22 34.00 L 66.19 33.65 L 66.17 33.29 L 66.16 32.93 L 66.15 32.57 L 66.16 32.21 L 66.18 31.85 L 66.21 31.50 L 66.26 31.15 L 66.31 30.81 L 66.37 30.47 L 66.44 30.14 L 66.53 29.83 L 66.62 29.53 L 66.72 29.23 L 66.83 28.96 L 66.94 28.70 L 67.07 28.45 L 67.20 28.23 L 67.34 28.02 L 67.48 27.83 L 67.63 27.67 L 67.79 27.52 L 67.95 27.39 L 68.11 27.29 L 68.27 27.21 L 68.44 27.15 L 68.60 27.12 L 68.77 27.11" stroke="rgba(255,255,255,0.92)" stroke-width="1.0" fill="none"/>
  <path d="M 68.49 38.20 L 68.44 38.18 L 68.39 38.15 L 68.34 38.09 L 68.29 38.01 L 68.25 37.90 L 68.20 37.77 L 68.16 37.62 L 68.11 37.45 L 68.07 37.26 L 68.03 37.05 L 67.99 36.82 L 67.96 36.57 L 67.92 36.31 L 67.89 36.03 L 67.86 35.73 L 67.84 35.42 L 67.81 35.10 L 67.79 34.77 L 67.78 34.44 L 67.76 34.09 L 67.75 33.73 L 67.74 33.38 L 67.74 33.02 L 67.74 32.65 L 67.74 32.29 L 67.74 31.93 L 67.75 31.57 L 67.76 31.22 L 67.78 30.87 L 67.79 30.53 L 67.81 30.20 L 67.84 29.88 L 67.86 29.58 L 67.89 29.28 L 67.92 29.00 L 67.96 28.74 L 67.99 28.49 L 68.03 28.26 L 68.07 28.05 L 68.11 27.86 L 68.16 27.68 L 68.20 27.53 L 68.25 27.41 L 68.29 27.30 L 68.34 27.22 L 68.39 27.16 L 68.44 27.12 L 68.49 27.11" stroke="rgba(255,255,255,0.92)" stroke-width="1.0" fill="none"/>
  <path d="M 56.60 38.33 L 56.58 38.19 L 56.56 38.04 L 56.54 37.88 L 56.52 37.71 L 56.50 37.52 L 56.48 37.33 L 56.46 37.12 L 56.45 36.91 L 56.43 36.69 L 56.42 36.46 L 56.40 36.22 L 56.39 35.98 L 56.38 35.73 L 56.37 35.47 L 56.36 35.20 L 56.35 34.93 L 56.34 34.66 L 56.33 34.38 L 56.33 34.10 L 56.32 33.81 L 56.32 33.53 L 56.32 33.24 L 56.31 32.95 L 56.31 32.65 L 56.31 32.36 L 56.32 32.07 L 56.32 31.78 L 56.32 31.50 L 56.33 31.21 L 56.33 30.93 L 56.34 30.65 L 56.35 30.38 L 56.36 30.11 L 56.37 29.84 L 56.38 29.58 L 56.39 29.33 L 56.40 29.09 L 56.42 28.85 L 56.43 28.62 L 56.45 28.40 L 56.46 28.18 L 56.48 27.98 L 56.50 27.79 L 56.52 27.60 L 56.54 27.43 L 56.56 27.27 L 56.58 27.12 L 56.60 26.98" stroke="rgba(255,255,255,0.92)" stroke-width="1.0" fill="none"/>
  <path d="M 14.25 26.80 A 0.57 0.57 0 0 1 13.65 27.45" stroke="rgba(255,255,255,0.92)" stroke-width="1.0" fill="none"/>
  <path d="M 13.65 37.85 A 0.57 0.57 0 0 1 14.25 38.51" stroke="rgba(255,255,255,0.92)" stroke-width="1.0" fill="none"/>
</svg>
