<svg xmlns="http://www.w3.org/2000/svg" viewBox="0 0 100.00 62.35" data-cad-width="3519.1" data-cad-height="2194.1">
  <path d="M 16.63 25.80 L 54.70 25.80 L 55.56 24.95 L 55.56 3.92 L 54.70 3.07 L 16.63 3.07 L 15.77 3.92 L 15.77 24.95 Z" stroke="rgba(255,255,255,0.92)" stroke-width="1.0" fill="none"/>
  <circle cx="22.31" cy="14.44" r="3.69" stroke="rgba(255,255,255,0.92)" stroke-width="1.0" fill="none"/>
  <circle cx="22.31" cy="14.44" r="5.11" stroke="rgba(255,255,255,0.92)" stroke-width="1.0" fill="none"/>
  <circle cx="31.78" cy="14.46" r="1.70" stroke="rgba(255,255,255,0.92)" stroke-width="1.0" fill="none"/>
  <circle cx="31.78" cy="14.46" r="0.14" stroke="rgba(255,255,255,0.92)" stroke-width="1.0" fill="none"/>
  <circle cx="39.55" cy="14.46" r="1.70" stroke="rgba(255,255,255,0.92)" stroke-width="1.0" fill="none"/>
  <circle cx="39.55" cy="14.46" r="0.14" stroke="rgba(255,255,255,0.92)" stroke-width="1.0" fill="none"/>
  <circle cx="49.02" cy="14.44" r="3.69" stroke="rgba(255,255,255,0.92)" stroke-width="1.0" fill="none"/>
  <circle cx="49.02" cy="14.44" r="5.11" stroke="rgba(255,255,255,0.92)" stroke-width="1.0" fill="none"/>
  <path d="M 13.65 7.49 L 2.56 8.28" stroke="rgba(255,255,255,0.92)" stroke-width="1.0" fill="none"/>
  <path d="M 13.65 20.16 L 2.56 19.37" stroke="rgba(255,255,255,0.92)" stroke-width="1.0" fill="none"/>
  <path d="M 2.56 19.37 L 2.39 19.35 L 2.22 19.31 L 2.06 19.24 L 1.89 19.15 L 1.73 19.04 L 1.58 18.91 L 1.42 18.75 L 1.28 18.58 L 1.13 18.38 L 1.00 18.17 L 0.87 17.93 L 0.75 17.68 L 0.63 17.42 L 0.53 17.14 L 0.43 16.84 L 0.34 16.53 L 0.26 16.21 L 0.19 15.88 L 0.14 15.55 L 0.09 15.20 L 0.05 14.85 L 0.02 14.49 L 0.01 14.13 L -0.00 13.77 L 0.01 13.41 L 0.02 13.06 L 0.05 12.70 L 0.09 12.35 L 0.14 12.01 L 0.19 11.67 L 0.26 11.34 L 0.34 11.03 L 0.43 10.72 L 0.53 10.43 L 0.63 10.15 L 0.75 9.89 L 0.87 9.65 L 1.00 9.42 L 1.13 9.21 L 1.28 9.02 L 1.42 8.85 L 1.58 8.70 L 1.73 8.58 L 1.89 8.47 L 2.06 8.39 L 2.22 8.33 L 2.39 8.29 L 2.56 8.28" stroke="rgba(255,255,255,0.92)" stroke-width="1.0" fill="none"/>
  <path d="M 2.84 19.37 L 2.79 19.36 L 2.74 19.32 L 2.70 19.26 L 2.65 19.18 L 2.60 19.07 L 2.55 18.95 L 2.51 18.80 L 2.47 18.63 L 2.42 18.44 L 2.38 18.22 L 2.35 17.99 L 2.31 17.75 L 2.28 17.48 L 2.25 17.20 L 2.22 16.91 L 2.19 16.60 L 2.17 16.28 L 2.15 15.95 L 2.13 15.61 L 2.12 15.26 L 2.10 14.91 L 2.10 14.55 L 2.09 14.19 L 2.09 13.83 L 2.09 13.47 L 2.10 13.10 L 2.10 12.75 L 2.12 12.39 L 2.13 12.05 L 2.15 11.71 L 2.17 11.38 L 2.19 11.06 L 2.22 10.75 L 2.25 10.45 L 2.28 10.17 L 2.31 9.91 L 2.35 9.66 L 2.38 9.43 L 2.42 9.22 L 2.47 9.03 L 2.51 8.86 L 2.55 8.71 L 2.60 8.58 L 2.65 8.48 L 2.70 8.39 L 2.74 8.33 L 2.79 8.30 L 2.84 8.29" stroke="rgba(255,255,255,0.92)" stroke-width="1.0" fill="none"/>
  <path d="M 14.25 19.51 L 14.23 19.37 L 14.21 19.21 L 14.19 19.05 L 14.17 18.88 L 14.15 18.70 L 14.14 18.50 L 14.12 18.30 L 14.10 18.09 L 14.09 17.86 L 14.07 17.63 L 14.06 17.40 L 14.05 17.15 L 14.03 16.90 L 14.02 16.64 L 14.01 16.38 L 14.00 16.11 L 14.00 15.83 L 13.99 15.55 L 13.98 15.27 L 13.98 14.99 L 13.97 14.70 L 13.97 14.41 L 13.97 14.12 L 13.97 13.83 L 13.97 13.54 L 13.97 13.25 L 13.97 12.96 L 13.98 12.67 L 13.98 12.38 L 13.99 12.10 L 14.00 11.82 L 14.00 11.55 L 14.01 11.28 L 14.02 11.02 L 14.03 10.76 L 14.05 10.50 L 14.06 10.26 L 14.07 10.02 L 14.09 9.79 L 14.10 9.57 L 14.12 9.36 L 14.14 9.15 L 14.15 8.96 L 14.17 8.78 L 14.19 8.60 L 14.21 8.44 L 14.23 8.29 L 14.25 8.15" stroke="rgba(255,255,255,0.92)" stroke-width="1.0" fill="none"/>
  <path d="M 14.25 7.97 A 0.57 0.57 0 0 1 13.65 8.63" stroke="rgba(255,255,255,0.92)" stroke-width="1.0" fill="none"/>
  <path d="M 13.65 19.03 A 0.57 0.57 0 0 1 14.25 19.68" stroke="rgba(255,255,255,0.92)" stroke-width="1.0" fill="none"/>
  <path d="M 57.68 7.49 L 68.77 8.28" stroke="rgba(255,255,255,0.92)" stroke-width="1.0" fill="none"/>
  <path d="M 57.68 20.16 L 68.77 19.37" stroke="rgba(255,255,255,0.92)" stroke-width="1.0" fill="none"/>
  <path d="M 68.65 19.37 L 68.48 19.35 L 68.31 19.30 L 68.15 19.23 L 67.99 19.14 L 67.83 19.03 L 67.67 18.90 L 67.52 18.74 L 67.38 18.56 L 67.24 18.37 L 67.10 18.15 L 66.98 17.92 L 66.86 17.66 L 66.75 17.40 L 66.64 17.11 L 66.55 16.82 L 66.46 16.51 L 66.39 16.19 L 66.32 15.86 L 66.27 15.52 L 66.22 15.17 L 66.19 14.82 L 66.17 14.46 L 66.16 14.10 L 66.15 13.74 L 66.16 13.39 L 66.18 13.03 L 66.21 12.67 L 66.26 12.32 L 66.31 11.98 L 66.37 11.64 L 66.44 11.32 L 66.53 11.00 L 66.62 10.70 L 66.72 10.41 L 66.83 10.13 L 66.94 9.87 L 67.07 9.63 L 67.20 9.40 L 67.34 9.19 L 67.48 9.01 L 67.63 8.84 L 67.79 8.69 L 67.95 8.57 L 68.11 8.46 L 68.27 8.38 L 68.44 8.33 L 68.60 8.29 L 68.77 8.28" stroke="rgba(255,255,255,0.92)" stroke-width="1.0" fill="none"/>
  <path d="M 68.49 19.37 L 68.44 19.36 L 68.39 19.32 L 68.34 19.26 L 68.29 19.18 L 68.25 19.07 L 68.20 18.95 L 68.16 18.80 L 68.11 18.63 L 68.07 18.44 L 68.03 18.22 L 67.99 17.99 L 67.96 17.75 L 67.92 17.48 L 67.89 17.20 L 67.86 16.91 L 67.84 16.60 L 67.81 16.28 L 67.79 15.95 L 67.78 15.61 L 67.76 15.26 L 67.75 14.91 L 67.74 14.55 L 67.74 14.19 L 67.74 13.83 L 67.74 13.47 L 67.74 13.10 L 67.75 12.75 L 67.76 12.39 L 67.78 12.05 L 67.79 11.71 L 67.81 11.38 L 67.84 11.06 L 67.86 10.75 L 67.89 10.45 L 67.92 10.17 L 67.96 9.91 L 67.99 9.66 L 68.03 9.43 L 68.07 9.22 L 68.11 9.03 L 68.16 8.86 L 68.20 8.71 L 68.25 8.58 L 68.29 8.48 L 68.34 8.39 L 68.39 8.33 L 68.44 8.30 L 68.49 8.29" stroke="rgba(255,255,255,0.92)" stroke-width="1.0" fill="none"/>
  <path d="M 56.60 19.51 L 56.58 19.37 L 56.56 19.21 L 56.54 19.05 L 56.52 18.88 L 56.50 18.70 L 56.48 18.50 L 56.46 18.30 L 56.45 18.09 L 56.43 17.86 L 56.42 17.63 L 56.40 17.40 L 56.39 17.15 L 56.38 16.90 L 56.37 16.64 L 56.36 16.38 L 56.35 16.11 L 56.34 15.83 L 56.33 15.55 L 56.33 15.27 L 56.32 14.99 L 56.32 14.70 L 56.32 14.41 L 56.31 14.12 L 56.31 13.83 L 56.31 13.54 L 56.32 13.25 L 56.32 12.96 L 56.32 12.67 L 56.33 12.38 L 56.33 12.10 L 56.34 11.82 L 56.35 11.55 L 56.36 11.28 L 56.37 11.02 L 56.38 10.76 L 56.39 10.50 L 56.40 10.26 L 56.42 10.02 L 56.43 9.79 L 56.45 9.57 L 56.46 9.36 L 56.48 9.15 L 56.50 8.96 L 56.52 8.78 L 56.54 8.60 L 56.56 8.44 L 56.58 8.29 L 56.60 8.15" stroke="rgba(255,255,255,0.92)" stroke-width="1.0" fill="none"/>
  <path d="M 14.25 7.97 A 0.57 0.57 0 0 1 13.65 8.63" stroke="rgba(255,255,255,0.92)" stroke-width="1.0" fill="none"/>
  <path d="M 13.65 19.03 A 0.57 0.57 0 0 1 14.25 19.68" stroke="rgba(255,255,255,0.92)" stroke-width="1.0" fill="none"/>
</svg>
